<svg xmlns="http://www.w3.org/2000/svg" baseProfile="full" height="1122.52" preserveAspectRatio="xMinYMin meet" style="width:765px;height:943px" width="793.701" xml:space="preserve"><path d="m239.413 272.714-114.557-88.282M103.986 190.476l113.421 89.017M238.226 275.893l-19.708 3.837" style="fill:none;stroke:red;stroke-width:1.99999;stroke-linecap:round;stroke-linejoin:round;stroke-miterlimit:4;stroke-dasharray:none;stroke-opacity:1;visibility:visible"/><path d="m217.363 279.455-.34-.484-.111-.629.145-.679.372-.623.544-.474.633-.252" style="fill:none;stroke:red;stroke-width:.999997;stroke-linecap:round;stroke-linejoin:round;stroke-miterlimit:4;stroke-dasharray:none;stroke-opacity:1;visibility:visible"/><path d="m218.518 279.73-.628-.007-.525-.266" style="fill:none;stroke:red;stroke-width:1.99999;stroke-linecap:round;stroke-linejoin:round;stroke-miterlimit:4;stroke-dasharray:none;stroke-opacity:1;visibility:visible"/><path d="m218.606 276.314 19.719-3.828" style="fill:none;stroke:red;stroke-width:.999997;stroke-linecap:round;stroke-linejoin:round;stroke-miterlimit:4;stroke-dasharray:none;stroke-opacity:1;visibility:visible"/><path d="m239.469 272.76.341.482.104.629-.143.676-.373.623-.541.47-.63.253" style="fill:none;stroke:red;stroke-width:1.99999;stroke-linecap:round;stroke-linejoin:round;stroke-miterlimit:4;stroke-dasharray:none;stroke-opacity:1;visibility:visible"/><path d="m238.325 272.486.625.008.517.266" style="fill:none;stroke:red;stroke-width:.999997;stroke-linecap:round;stroke-linejoin:round;stroke-miterlimit:4;stroke-dasharray:none;stroke-opacity:1;visibility:visible"/><path d="M105.078 187.493a1.792 1.792 0 0 0-1.546 2.004c.022.31.232.761.456.979" style="fill:none;stroke:red;stroke-width:1.99999;stroke-linecap:round;stroke-linejoin:round;stroke-miterlimit:4;stroke-dasharray:none;stroke-opacity:1;visibility:visible"/><path d="m105.078 187.493 113.528 88.821" style="fill:none;stroke:red;stroke-width:.999997;stroke-linecap:round;stroke-linejoin:round;stroke-miterlimit:4;stroke-dasharray:none;stroke-opacity:1;visibility:visible"/><path d="m123.817 184.198.593.019.446.215M105.078 187.493l18.74-3.295" style="fill:none;stroke:red;stroke-width:1.99999;stroke-linecap:round;stroke-linejoin:round;stroke-miterlimit:4;stroke-dasharray:none;stroke-opacity:1;visibility:visible"/><path d="m243.406 130.022-188.95 32.16M236.677 143.456l9.497-1.638M57.227 174.369l157.062-27.057M54.69 162.26l-.113-.066-.111-.014-.097.038-.091.088-.07.136-.056.178-.035.213-.012.237" style="fill:none;stroke:#00ff4a;stroke-width:1.99999;stroke-linecap:round;stroke-linejoin:round;stroke-miterlimit:4;stroke-dasharray:none;stroke-opacity:1;visibility:visible"/><path d="m57.576 173.484.027-7.64M57.601 165.842c.063-.548-.2-1.337-.581-1.737M57.021 164.106l-2.33-1.846" style="fill:none;stroke:#00ff4a;stroke-width:.999997;stroke-linecap:round;stroke-linejoin:round;stroke-miterlimit:4;stroke-dasharray:none;stroke-opacity:1;visibility:visible"/><path d="m56.99 174.292.11.065.111.016.099-.037.092-.088.071-.135.055-.177.037-.212.01-.239" style="fill:none;stroke:#00ff4a;stroke-width:.666665;stroke-linecap:round;stroke-linejoin:round;stroke-miterlimit:4;stroke-dasharray:none;stroke-opacity:1;visibility:visible"/><path d="m54.104 163.072-.021 7.626M54.084 170.697c-.064.547.2 1.335.579 1.735M54.661 172.432l2.329 1.86" style="fill:none;stroke:#00ff4a;stroke-width:1.99999;stroke-linecap:round;stroke-linejoin:round;stroke-miterlimit:4;stroke-dasharray:none;stroke-opacity:1;visibility:visible"/><path d="m56.421 168.738-.041-.522-.125-.512-.191-.428-.221-.274-.224-.08-.19.126-.128.312-.044.453.043.521.124.514.188.425.224.273.221.082.19-.126.128-.312.045-.452" style="fill:none;stroke:#00ff4a;stroke-width:.666665;stroke-linecap:round;stroke-linejoin:round;stroke-miterlimit:4;stroke-dasharray:none;stroke-opacity:1;visibility:visible"/><path d="m57.893 164.69 188.374-32.054" style="fill:none;stroke:#00ff4a;stroke-width:.999997;stroke-linecap:round;stroke-linejoin:round;stroke-miterlimit:4;stroke-dasharray:none;stroke-opacity:1;visibility:visible"/><path d="m246.586 140.95.221-7.44M246.807 133.51c.08-.549-.193-1.306-.597-1.679" style="fill:none;stroke:#00ff4a;stroke-width:1.99999;stroke-linecap:round;stroke-linejoin:round;stroke-miterlimit:4;stroke-dasharray:none;stroke-opacity:1;visibility:visible"/><path d="m178.185 150.541 17.86-3.068M178.25 147.412l-.576.217-.492.421-.332.564-.126.62.102.579.312.451.479.257.568.021M196.114 144.35l-17.864 3.06M196.044 147.473l.57-.216.49-.421.333-.56.125-.618-.1-.578-.31-.45-.472-.258-.566-.022M76.17 168.065l18.47-3.173M76.186 164.89l-.59.221-.506.431-.336.571-.122.629.114.588.331.458.5.257.59.02M94.666 161.725l-18.478 3.165M94.64 164.892l.588-.222.5-.428.336-.57.122-.627-.112-.585-.328-.458-.494-.257-.586-.02M110.56 162.157l18.262-3.137M110.593 158.997l-.585.221-.5.427-.336.57-.123.625.111.584.323.456.493.257.584.02M128.864 155.87l-18.27 3.127M128.822 159.021l.582-.22.496-.425.337-.568.124-.623-.11-.583-.319-.454-.489-.259-.579-.019M144.562 156.317l18.06-3.103M144.612 153.172l-.582.218-.494.426-.336.566-.124.622.106.582.32.454.484.257.576.02M162.677 150.078l-18.065 3.094M162.622 153.214l.576-.217.492-.424.336-.563.124-.62-.104-.582-.314-.454-.482-.256-.573-.02" style="fill:none;stroke:#00ff4a;stroke-width:.666665;stroke-linecap:round;stroke-linejoin:round;stroke-miterlimit:4;stroke-dasharray:none;stroke-opacity:1;visibility:visible"/><path d="M243.666 130.093a.347.347 0 0 0-.26-.07M246.586 140.95l-.019.231-.044.209-.065.172-.083.134-.101.086-.1.036M246.207 131.833l-2.54-1.74M243.666 130.093 54.691 162.26" style="fill:none;stroke:#00ff4a;stroke-width:1.99999;stroke-linecap:round;stroke-linejoin:round;stroke-miterlimit:4;stroke-dasharray:none;stroke-opacity:1;visibility:visible"/><path d="M193.713 145.806c.623-.102 1.257-.678 1.421-1.288M176.817 148.702l16.896-2.896M160.325 151.53c.628-.103 1.268-.68 1.432-1.297M143.169 154.47l17.156-2.94M126.56 157.317c.636-.1 1.28-.683 1.445-1.303M109.137 160.304l17.421-2.987M92.413 163.172c.64-.1 1.29-.686 1.459-1.31M74.721 166.204l17.693-3.032" style="fill:none;stroke:#00ff4a;stroke-width:.666665;stroke-linecap:round;stroke-linejoin:round;stroke-miterlimit:4;stroke-dasharray:none;stroke-opacity:1;visibility:visible"/><path d="m246.267 132.636-9.59 10.82" style="fill:none;stroke:#00ff4a;stroke-width:1.99999;stroke-linecap:round;stroke-linejoin:round;stroke-miterlimit:4;stroke-dasharray:none;stroke-opacity:1;visibility:visible"/><path d="m57.603 165.844-1.182 2.894M57.601 165.842l-1.181 2.896M162.677 150.078l14.14-1.376M128.864 155.87l14.305-1.4M94.666 161.725l14.471-1.421M94.64 164.892l-19.919 1.312" style="fill:none;stroke:#00ff4a;stroke-width:.666665;stroke-linecap:round;stroke-linejoin:round;stroke-miterlimit:4;stroke-dasharray:none;stroke-opacity:1;visibility:visible"/><path d="m274.671 268.798-19.469 3.79M275.84 265.622l-116.348-87.298M138.888 184.342l115.242 88.024" style="fill:none;stroke:#9500ff;stroke-width:1.99999;stroke-linecap:round;stroke-linejoin:round;stroke-miterlimit:4;stroke-dasharray:none;stroke-opacity:1;visibility:visible"/><path d="m254.066 272.314-.336-.483-.101-.626.141-.675.372-.62.541-.47.627-.252" style="fill:none;stroke:#9500ff;stroke-width:.999997;stroke-linecap:round;stroke-linejoin:round;stroke-miterlimit:4;stroke-dasharray:none;stroke-opacity:1;visibility:visible"/><path d="m255.202 272.589-.617-.009-.519-.265" style="fill:none;stroke:#9500ff;stroke-width:1.99999;stroke-linecap:round;stroke-linejoin:round;stroke-miterlimit:4;stroke-dasharray:none;stroke-opacity:1;visibility:visible"/><path d="m255.309 269.189 19.476-3.782" style="fill:none;stroke:#9500ff;stroke-width:.999997;stroke-linecap:round;stroke-linejoin:round;stroke-miterlimit:4;stroke-dasharray:none;stroke-opacity:1;visibility:visible"/><path d="m275.715 265.58.198.1.33.484.103.623-.147.673-.369.62-.536.466-.623.251" style="fill:none;stroke:#9500ff;stroke-width:1.99999;stroke-linecap:round;stroke-linejoin:round;stroke-miterlimit:4;stroke-dasharray:none;stroke-opacity:1;visibility:visible"/><path d="m274.786 265.407.615.008.314.165" style="fill:none;stroke:#9500ff;stroke-width:.999997;stroke-linecap:round;stroke-linejoin:round;stroke-miterlimit:4;stroke-dasharray:none;stroke-opacity:1;visibility:visible"/><path d="M139.964 181.36a1.784 1.784 0 0 0-1.536 2c.02.312.232.764.46.98" style="fill:none;stroke:#9500ff;stroke-width:1.99999;stroke-linecap:round;stroke-linejoin:round;stroke-miterlimit:4;stroke-dasharray:none;stroke-opacity:1;visibility:visible"/><path d="m139.964 181.36 115.346 87.829" style="fill:none;stroke:#9500ff;stroke-width:.999997;stroke-linecap:round;stroke-linejoin:round;stroke-miterlimit:4;stroke-dasharray:none;stroke-opacity:1;visibility:visible"/><path d="m158.486 178.104.586.018.422.202M139.964 181.36l18.524-3.256" style="fill:none;stroke:#9500ff;stroke-width:1.99999;stroke-linecap:round;stroke-linejoin:round;stroke-miterlimit:4;stroke-dasharray:none;stroke-opacity:1;visibility:visible"/><path d="m311.82 258.618-118.085-86.332M173.388 178.277l117.01 87.046M174.448 175.298a1.779 1.779 0 0 0-1.06 2.979" style="fill:none;stroke:#ffdf00;stroke-width:1.99999;stroke-linecap:round;stroke-linejoin:round;stroke-miterlimit:4;stroke-dasharray:none;stroke-opacity:1;visibility:visible"/><path d="m290.32 265.258-.33-.48-.097-.623.145-.672.37-.616.533-.469.621-.247M174.448 175.298l117.114 86.855" style="fill:none;stroke:#ffdf00;stroke-width:.999997;stroke-linecap:round;stroke-linejoin:round;stroke-miterlimit:4;stroke-dasharray:none;stroke-opacity:1;visibility:visible"/><path d="m310.669 261.789-19.23 3.744M291.44 265.531l-.614-.009-.506-.264" style="fill:none;stroke:#ffdf00;stroke-width:1.99999;stroke-linecap:round;stroke-linejoin:round;stroke-miterlimit:4;stroke-dasharray:none;stroke-opacity:1;visibility:visible"/><path d="m291.562 262.151 19.24-3.736" style="fill:none;stroke:#ffdf00;stroke-width:.999997;stroke-linecap:round;stroke-linejoin:round;stroke-miterlimit:4;stroke-dasharray:none;stroke-opacity:1;visibility:visible"/><path d="m311.6 258.527.31.163.327.48.096.621-.148.669-.368.614-.534.467-.613.246" style="fill:none;stroke:#ffdf00;stroke-width:1.99999;stroke-linecap:round;stroke-linejoin:round;stroke-miterlimit:4;stroke-dasharray:none;stroke-opacity:1;visibility:visible"/><path d="m310.802 258.415.607.011.193.101" style="fill:none;stroke:#ffdf00;stroke-width:.999997;stroke-linecap:round;stroke-linejoin:round;stroke-miterlimit:4;stroke-dasharray:none;stroke-opacity:1;visibility:visible"/><path d="m192.757 172.078.581.019.398.188M174.448 175.298l18.309-3.218" style="fill:none;stroke:#ffdf00;stroke-width:1.99999;stroke-linecap:round;stroke-linejoin:round;stroke-miterlimit:4;stroke-dasharray:none;stroke-opacity:1;visibility:visible"/><path d="M347.363 251.7 227.59 166.317M207.494 172.281l118.73 86.085M207.494 172.281l-.093-.076-.316-.456-.102-.588.131-.63.341-.572.5-.431.583-.223" style="fill:none;stroke:#00d4ff;stroke-width:1.99999;stroke-linecap:round;stroke-linejoin:round;stroke-miterlimit:4;stroke-dasharray:none;stroke-opacity:1;visibility:visible"/><path d="m326.177 258.314-.047-.024-.323-.48-.094-.62.149-.668.367-.612.531-.464.61-.246M208.538 169.304 327.371 255.2" style="fill:none;stroke:#00d4ff;stroke-width:.999997;stroke-linecap:round;stroke-linejoin:round;stroke-miterlimit:4;stroke-dasharray:none;stroke-opacity:1;visibility:visible"/><path d="m346.228 254.865-18.997 3.697M327.231 258.562l-.601-.01-.453-.239" style="fill:none;stroke:#00d4ff;stroke-width:1.99999;stroke-linecap:round;stroke-linejoin:round;stroke-miterlimit:4;stroke-dasharray:none;stroke-opacity:1;visibility:visible"/><path d="m327.373 255.2 19.005-3.692" style="fill:none;stroke:#00d4ff;stroke-width:.999997;stroke-linecap:round;stroke-linejoin:round;stroke-miterlimit:4;stroke-dasharray:none;stroke-opacity:1;visibility:visible"/><path d="m347.28 251.684.19.1.317.479.09.618-.147.665-.367.61-.527.464-.609.245" style="fill:none;stroke:#00d4ff;stroke-width:1.99999;stroke-linecap:round;stroke-linejoin:round;stroke-miterlimit:4;stroke-dasharray:none;stroke-opacity:1;visibility:visible"/><path d="m346.376 251.509.6.01.304.164" style="fill:none;stroke:#00d4ff;stroke-width:.999997;stroke-linecap:round;stroke-linejoin:round;stroke-miterlimit:4;stroke-dasharray:none;stroke-opacity:1;visibility:visible"/><path d="m226.64 166.122.572.02.378.175M208.538 169.304l18.102-3.184" style="fill:none;stroke:#00d4ff;stroke-width:1.99999;stroke-linecap:round;stroke-linejoin:round;stroke-miterlimit:4;stroke-dasharray:none;stroke-opacity:1;visibility:visible"/><path d="m344.671 218.57-114.584-79.694M210.506 144.637l113.61 80.34M343.583 221.669l-18.5 3.495" style="fill:none;stroke:#ff008a;stroke-width:1.99999;stroke-linecap:round;stroke-linejoin:round;stroke-miterlimit:4;stroke-dasharray:none;stroke-opacity:1;visibility:visible"/><path d="m324.13 224.956-.123-.066-.312-.47-.092-.608.144-.652.356-.596.517-.452.598-.238" style="fill:none;stroke:#ff008a;stroke-width:.999997;stroke-linecap:round;stroke-linejoin:round;stroke-miterlimit:4;stroke-dasharray:none;stroke-opacity:1;visibility:visible"/><path d="m325.083 225.165-.588-.013-.365-.196" style="fill:none;stroke:#ff008a;stroke-width:1.99999;stroke-linecap:round;stroke-linejoin:round;stroke-miterlimit:4;stroke-dasharray:none;stroke-opacity:1;visibility:visible"/><path d="m325.218 221.874 18.508-3.484" style="fill:none;stroke:#ff008a;stroke-width:.999997;stroke-linecap:round;stroke-linejoin:round;stroke-miterlimit:4;stroke-dasharray:none;stroke-opacity:1;visibility:visible"/><path d="m344.696 218.614.094.05.31.473.088.603-.142.65-.358.594-.516.451-.59.235" style="fill:none;stroke:#ff008a;stroke-width:1.99999;stroke-linecap:round;stroke-linejoin:round;stroke-miterlimit:4;stroke-dasharray:none;stroke-opacity:1;visibility:visible"/><path d="m343.726 218.389.581.015.39.21M211.513 141.714l-.57.216-.489.42-.332.56-.125.615.097.577.307.451.106.084M229.18 138.69l-17.668 3.023M230.087 138.874l-.352-.162-.557-.023M211.513 141.714l113.705 80.16" style="fill:none;stroke:#ff008a;stroke-width:.999997;stroke-linecap:round;stroke-linejoin:round;stroke-miterlimit:4;stroke-dasharray:none;stroke-opacity:1;visibility:visible"/><path d="m211.512 141.713 2.777 5.599" style="fill:none;stroke:#00ff4a;stroke-width:1.99999;stroke-linecap:round;stroke-linejoin:round;stroke-miterlimit:4;stroke-dasharray:none;stroke-opacity:1;visibility:visible"/></svg>