<svg xmlns="http://www.w3.org/2000/svg" baseProfile="full" height="1122.52" preserveAspectRatio="xMinYMin meet" style="width:765px;height:943px" width="793.701" xml:space="preserve"><path d="m372.841 424.33 146.436 75.638 8.224-2.024-.052-9.354-150.537-76.279-7.814 1.646.14 6.96M458.624 647.068l-64.941-40.59-3.667-173.083M378.044 611.35l141.284 89.67 7.98-2.313v-8.71l-56.016-35.01M373.757 608.77l.639.427M373.451 600.602l.136 7.873" style="fill:none;stroke:red;stroke-width:1.99999;stroke-linecap:round;stroke-linejoin:round;stroke-miterlimit:4;stroke-dasharray:none;stroke-opacity:1;visibility:visible" visibility="hidden"/><path d="m370.73 425.86 4.247 174.36-1.418.345" style="fill:none;stroke:red;stroke-width:1.6;stroke-linecap:round;stroke-linejoin:round;stroke-miterlimit:4;stroke-dasharray:none;stroke-opacity:1;visibility:visible" visibility="hidden"/><path d="m470.203 654.29-1.604-180.353" style="fill:none;stroke:red;stroke-width:1.99999;stroke-linecap:round;stroke-linejoin:round;stroke-miterlimit:10;stroke-dasharray:none;stroke-opacity:1;visibility:visible" visibility="hidden"/><path d="m457.807 468.394 1.937 185.844" style="fill:none;stroke:red;stroke-width:1.99999;stroke-linecap:round;stroke-linejoin:round;stroke-miterlimit:4;stroke-dasharray:none;stroke-opacity:1;visibility:visible" visibility="hidden"/><path d="m369.224 414.06 150.028 76.632M527.423 488.669l-8.172 2.024.027 9.196M462.974 471.103l1.812 186.132 5.439-1.904M384.516 430.52l3.875 178.374 5.333-1.437M372.737 424.996l4.225 177.06 1.599-.416" style="fill:none;stroke:red;stroke-width:.999997;stroke-linecap:round;stroke-linejoin:round;stroke-miterlimit:4;stroke-dasharray:none;stroke-opacity:1;visibility:visible" visibility="hidden"/><path d="m374.77 425.671 4.21 177.482" style="fill:none;stroke:red;stroke-width:1.33333;stroke-linecap:round;stroke-linejoin:round;stroke-miterlimit:4;stroke-dasharray:none;stroke-opacity:1;visibility:visible" visibility="hidden"/><path d="m373.932 600.706 145.396 91.604M527.307 689.998l-7.979 2.312v8.71M375.115 423.508l6.253 3.076s1.242.446.938-1.916c-.208-1.625-1.188-2.125-1.188-2.125l-7.188-3.645s-1-.45-1.118 1.088" style="fill:none;stroke:red;stroke-width:.999997;stroke-linecap:round;stroke-linejoin:round;stroke-miterlimit:4;stroke-dasharray:none;stroke-opacity:1;visibility:visible" visibility="hidden"/><path d="M379.044 422.151c.004.504-.162.895-.456.976" style="fill:none;stroke:red;stroke-width:.666665;stroke-linecap:round;stroke-linejoin:round;stroke-miterlimit:4;stroke-dasharray:none;stroke-opacity:1;visibility:visible" visibility="hidden"/><path d="m380.02 610.552 5.62 3.55s1.271.461.896-1.728c-.248-1.442-1-1.959-1-1.959l-7.25-4.562s-.94-.42-.967 1.031c.001 0-.153 1.023.368 1.605" style="fill:none;stroke:red;stroke-width:.999997;stroke-linecap:round;stroke-linejoin:round;stroke-miterlimit:4;stroke-dasharray:none;stroke-opacity:1;visibility:visible" visibility="hidden"/><path d="M459.87 464.218c.26.932.08 1.796-.4 1.929-.48.135-1.082-.513-1.34-1.447-.257-.932-.077-1.794.403-1.929.479-.133 1.082.513 1.338 1.447h-.001M461.764 659.7c.25.892.084 1.713-.364 1.838-.45.126-1.016-.496-1.26-1.386-.248-.892-.085-1.712.364-1.838.45-.124 1.016.496 1.26 1.386M383.407 609.561c-.063.31-.208.534-.421.594" style="fill:none;stroke:red;stroke-width:.666665;stroke-linecap:round;stroke-linejoin:round;stroke-miterlimit:4;stroke-dasharray:none;stroke-opacity:1;visibility:visible" visibility="hidden"/><path d="m370.73 425.86-1.492-4.943M471.292 654.987l-12.668-7.919M374.396 609.197l3.648 2.153M458.624 647.068l12.668 7.92M378.044 611.35l-3.648-2.153" style="fill:none;stroke:red;stroke-width:1.99999;stroke-linecap:round;stroke-linejoin:round;stroke-miterlimit:4;stroke-dasharray:none;stroke-opacity:1;visibility:visible" visibility="hidden"/><path d="m369.238 420.917 1.492 4.943" style="fill:none;stroke:red;stroke-width:1.6;stroke-linecap:round;stroke-linejoin:round;stroke-miterlimit:4;stroke-dasharray:none;stroke-opacity:1;visibility:visible" visibility="hidden"/><path d="m369.238 420.917 15.278 9.603M382.986 610.155l10.738-2.698M373.56 600.565l5.001 1.075" style="fill:none;stroke:red;stroke-width:.999997;stroke-linecap:round;stroke-linejoin:round;stroke-miterlimit:4;stroke-dasharray:none;stroke-opacity:1;visibility:visible" visibility="hidden"/><path d="m369.238 420.917 5.532 4.754M373.451 600.602l5.528 2.551" style="fill:none;stroke:red;stroke-width:1.33333;stroke-linecap:round;stroke-linejoin:round;stroke-miterlimit:4;stroke-dasharray:none;stroke-opacity:1;visibility:visible" visibility="hidden"/><path d="m379.044 422.151-6.232-2.165" style="fill:none;stroke:red;stroke-width:.999997;stroke-linecap:round;stroke-linejoin:round;stroke-miterlimit:4;stroke-dasharray:none;stroke-opacity:1;visibility:visible" visibility="hidden"/><path d="m372.812 419.986 6.232 2.165" style="fill:none;stroke:red;stroke-width:.666665;stroke-linecap:round;stroke-linejoin:round;stroke-miterlimit:4;stroke-dasharray:none;stroke-opacity:1;visibility:visible" visibility="hidden"/><path d="m374.396 609.197 5.624 1.355" style="fill:none;stroke:red;stroke-width:.999997;stroke-linecap:round;stroke-linejoin:round;stroke-miterlimit:4;stroke-dasharray:none;stroke-opacity:1;visibility:visible" visibility="hidden"/><path d="m378.561 601.64 4.425 8.515" style="fill:none;stroke:red;stroke-width:.666665;stroke-linecap:round;stroke-linejoin:round;stroke-miterlimit:4;stroke-dasharray:none;stroke-opacity:1;visibility:visible" visibility="hidden"/><path d="M170.488 465.087c-.451-.603-.378-1.207-.378-1.207l-.304-5.464 167.75-36.125 13.271 6.937-.021 4.147v1.541s.084.626-.334.812L182.35 472.624l-1.678-1.046" style="fill:none;stroke:#00ff4a;stroke-width:1.99999;stroke-linecap:round;stroke-linejoin:round;stroke-miterlimit:4;stroke-dasharray:none;stroke-opacity:1;visibility:visible" visibility="hidden"/><path d="m170.306 458.416 11.479 7.084s.667.687.667 1.542l.272 5.437M182.328 466.227l168.16-36.68" style="fill:none;stroke:#00ff4a;stroke-width:.999997;stroke-linecap:round;stroke-linejoin:round;stroke-miterlimit:4;stroke-dasharray:none;stroke-opacity:1;visibility:visible" visibility="hidden"/><path d="m173.253 462.107-1.675.352s-.708.396-.481 1.896c.097.647.481 1.937 1.085 2.333l6.626 4.124s.166.063.478.104l2.064-.456" style="fill:none;stroke:#00ff4a;stroke-width:1.99999;stroke-linecap:round;stroke-linejoin:round;stroke-miterlimit:4;stroke-dasharray:none;stroke-opacity:1;visibility:visible" visibility="hidden"/><path d="M174.674 465.763c.15.693.039 1.305-.253 1.368-.291.064-.651-.445-.801-1.137-.152-.694-.038-1.307.254-1.37.29-.064.648.446.8 1.139" style="fill:none;stroke:#00ff4a;stroke-width:.666665;stroke-linecap:round;stroke-linejoin:round;stroke-miterlimit:4;stroke-dasharray:none;stroke-opacity:1;visibility:visible" visibility="hidden"/><path d="m171.953 462.583 6.707 4.167s.918.77 1.085 2.478c.153 1.578-.459 1.688-.459 1.688M178.661 466.748l2.063-.521M351.413 432.313l1.465-.328M353.07 431.925l.276-.168.227-.401.112-.579-.019-.69-.145-.711-.254-.656-.333-.512-.37-.314M352.564 427.894l-7.29-3.833M345.274 424.062l-.258-.08s-.542-.099-1.084.09l-.8.186M180.862 466.39l-6.726-4.17M181.448 470.567l.249-.167.192-.408.08-.594-.043-.711-.15-.74-.252-.685-.315-.539-.347-.332M179.334 471.026l2.114-.46" style="fill:none;stroke:#00ff4a;stroke-width:.999997;stroke-linecap:round;stroke-linejoin:round;stroke-miterlimit:4;stroke-dasharray:none;stroke-opacity:1;visibility:visible" visibility="hidden"/><path d="m180.862 466.39-.19 5.188" style="fill:none;stroke:#00ff4a;stroke-width:1.99999;stroke-linecap:round;stroke-linejoin:round;stroke-miterlimit:4;stroke-dasharray:none;stroke-opacity:1;visibility:visible" visibility="hidden"/><path d="m180.862 466.39-10.556-7.974M180.724 466.227h1.604M351.413 432.313l-.925-2.766M180.862 466.39l-8.909-3.807M181.35 470.46l-2.689-3.712M350.488 429.547l.925 2.766M350.488 429.547l-7.356-5.289" style="fill:none;stroke:#00ff4a;stroke-width:.999997;stroke-linecap:round;stroke-linejoin:round;stroke-miterlimit:4;stroke-dasharray:none;stroke-opacity:1;visibility:visible" visibility="hidden"/><path d="m346.586 612.288 9.224 6.041.213 3.871v1.542s.084.625-.333.811L193.12 667.29l-2.25-1.729M344.579 610.972l.099 1.353" style="fill:none;stroke:#9500ff;stroke-width:1.99999;stroke-linecap:round;stroke-linejoin:round;stroke-miterlimit:4;stroke-dasharray:none;stroke-opacity:1;visibility:visible"/><path d="M181.828 658.686c-.48-.458-.592-1.118-.592-1.118l-.304-5.465 162.27-42.031 1.376.901" style="fill:none;stroke:#9500ff;stroke-width:1.6;stroke-linecap:round;stroke-linejoin:round;stroke-miterlimit:4;stroke-dasharray:none;stroke-opacity:1;visibility:visible"/><path d="m184.32 654.293 8.32 6.31s.606.645.606 1.499l.249 5.042M181.432 652.102l1.307.992M193.12 661.227l162.69-42.659" style="fill:none;stroke:#9500ff;stroke-width:.999997;stroke-linecap:round;stroke-linejoin:round;stroke-miterlimit:4;stroke-dasharray:none;stroke-opacity:1;visibility:visible"/><path d="m183.996 655.305-.039-1.02 161.897-42.04" style="fill:none;stroke:#9500ff;stroke-width:.999997;stroke-linecap:round;stroke-linejoin:round;stroke-miterlimit:4;stroke-dasharray:none;stroke-opacity:1;visibility:visible"/><path d="m344.216 611.313-161.634 42.039.17 2.22" style="fill:none;stroke:#9500ff;stroke-width:.666665;stroke-linecap:round;stroke-linejoin:round;stroke-miterlimit:4;stroke-dasharray:none;stroke-opacity:1;visibility:visible"/><path d="m184.453 656.081-1.855.5s-.642.189-.416 1.689c.098.647.354 1.79.959 2.186l6.583 5.021s.125.125.436.167l2.25-.626" style="fill:none;stroke:#9500ff;stroke-width:1.99999;stroke-linecap:round;stroke-linejoin:round;stroke-miterlimit:4;stroke-dasharray:none;stroke-opacity:1;visibility:visible"/><path d="M185.668 660.03c.15.694.038 1.306-.254 1.37-.29.062-.65-.446-.801-1.138-.153-.692-.037-1.308.255-1.37.29-.064.648.445.8 1.138" style="fill:none;stroke:#9500ff;stroke-width:.666665;stroke-linecap:round;stroke-linejoin:round;stroke-miterlimit:4;stroke-dasharray:none;stroke-opacity:1;visibility:visible"/><path d="m182.828 656.582 6.729 5.105s.667.459 1 2.146c.307 1.555-.397 1.812-.397 1.812M189.557 661.685l1.959-.541M356.147 621.48l1.727-.533M349.764 612.42l-.941.284M357.306 617.115l.361.345.319.527.248.645.141.688.015.648-.104.527-.22.345-.192.106M350.215 612.521l7.09 4.593M349.764 612.42l.103-.016.348.117M185.434 656.265l6.344 4.697s1.61 1.786 1.088 4.268M182.739 653.094l1.581 1.199M184.32 654.293l-1.581-1.199M191.516 661.144l1.604.083M356.147 621.48l-.337-2.912M182.739 653.094l.089 3.488M192.41 665.018l-2.853-3.333M193.12 661.227l-1.604-.083M355.81 618.568l.337 2.912" style="fill:none;stroke:#9500ff;stroke-width:.999997;stroke-linecap:round;stroke-linejoin:round;stroke-miterlimit:4;stroke-dasharray:none;stroke-opacity:1;visibility:visible"/><path d="m178.661 466.748-8.173-1.661" style="fill:none;stroke:#00ff4a;stroke-width:1.99999;stroke-linecap:round;stroke-linejoin:round;stroke-miterlimit:4;stroke-dasharray:none;stroke-opacity:1;visibility:visible" visibility="hidden"/><path d="m180.862 466.39 1.862 6.089" style="fill:none;stroke:#00ff4a;stroke-width:.999997;stroke-linecap:round;stroke-linejoin:round;stroke-miterlimit:4;stroke-dasharray:none;stroke-opacity:1;visibility:visible" visibility="hidden"/><path d="m355.81 618.568-11.132-6.243" style="fill:none;stroke:#9500ff;stroke-width:1.99999;stroke-linecap:round;stroke-linejoin:round;stroke-miterlimit:4;stroke-dasharray:none;stroke-opacity:1;visibility:visible"/><path d="m182.739 653.094 10.756 14.05M184.32 654.293l-2.888-2.191" style="fill:none;stroke:#9500ff;stroke-width:.999997;stroke-linecap:round;stroke-linejoin:round;stroke-miterlimit:4;stroke-dasharray:none;stroke-opacity:1;visibility:visible"/><path d="m182.739 653.094.013 2.479" style="fill:none;stroke:#9500ff;stroke-width:.666665;stroke-linecap:round;stroke-linejoin:round;stroke-miterlimit:4;stroke-dasharray:none;stroke-opacity:1;visibility:visible"/></svg>