<svg xmlns="http://www.w3.org/2000/svg" baseProfile="full" height="1122.52" preserveAspectRatio="xMinYMin meet" style="width:765px;height:943px" width="793.701" xml:space="preserve"><path d="m339.296 774.577 121.979-35.992M321.36 768.934l133.75-38.682" style="fill:none;stroke:red;stroke-width:1.99999;stroke-linecap:round;stroke-linejoin:round;stroke-miterlimit:4;stroke-dasharray:none;stroke-opacity:1;visibility:visible"/><path d="m327.395 771.617 134.817-39.564-.23 6.253" style="fill:none;stroke:red;stroke-width:.999997;stroke-linecap:round;stroke-linejoin:round;stroke-miterlimit:4;stroke-dasharray:none;stroke-opacity:1;visibility:visible"/><path d="m310.654 963.518-94.859-40.038-.185-173.812M323.115 862.32l133.757-45.62M323.334 850.067l135.298-45.177M323.334 828.686l68.669-22.132M406.832 801.783l50.5-16.27M323.553 816.391l50.206-15.86M398.284 792.837l60.756-19.15M323.509 794.957l16.38-4.901M363.868 782.728l93.87-28.44M453.344 912.667l.166-12.177M453.812 878.325l.124-9.059M454.23 847.58l.12-8.82M454.652 816.594l.128-9.296M455.082 785.134l.12-8.818M455.5 754.389l.192-14.032M466.847 741.208l-2.497 170.785M310.68 967.982l.948-187.456M323.542 784.297l-1.099 184.593M226.338 927.896l83.663-29.926M323.729 893.06l28.587-10.225M351.444 883.28l1.97.726M383.546 895.098l13.869 5.112M425.959 910.82l15.445 5.706M458.752 922.94l79.452 29.368 5.77-2.584.121-8.808-79.64-28.922M452.558 907.665l-9.924-3.603M414.319 893.774l-13.673-5.085M370.55 877.874l-12.594-4.576" style="fill:none;stroke:red;stroke-width:1.99999;stroke-linecap:round;stroke-linejoin:round;stroke-miterlimit:4;stroke-dasharray:none;stroke-opacity:1;visibility:visible"/><path d="m192.484 742.252.436 175.645-1.562.52.022 8.627 204.854 88.179 6.833-3.028.083-9.583-80.6-34.068" style="fill:none;stroke:red;stroke-width:1.99999;stroke-linecap:round;stroke-linejoin:round;stroke-miterlimit:4;stroke-dasharray:none;stroke-opacity:1;visibility:visible"/><path d="M323.173 864.783 458.79 818.41" style="fill:none;stroke:red;stroke-width:.999997;stroke-linecap:round;stroke-linejoin:round;stroke-miterlimit:4;stroke-dasharray:none;stroke-opacity:1;visibility:visible"/><path d="m322.913 895.742 133.625-47.916M323.029 883.663l135.286-47.737" style="fill:none;stroke:red;stroke-width:1.99999;stroke-linecap:round;stroke-linejoin:round;stroke-miterlimit:4;stroke-dasharray:none;stroke-opacity:1;visibility:visible"/><path d="m322.913 898.377 135.707-48.968" style="fill:none;stroke:red;stroke-width:.999997;stroke-linecap:round;stroke-linejoin:round;stroke-miterlimit:4;stroke-dasharray:none;stroke-opacity:1;visibility:visible"/><path d="m322.554 964.963 130.79-52.296M322.66 950.332l134.814-52.53M322.866 928.948l133.157-50.26M322.863 916.946l135.184-50.097" style="fill:none;stroke:red;stroke-width:1.99999;stroke-linecap:round;stroke-linejoin:round;stroke-miterlimit:4;stroke-dasharray:none;stroke-opacity:1;visibility:visible"/><path d="m325.414 969.694 134.012-53.99.038 6.161" style="fill:none;stroke:red;stroke-width:.999997;stroke-linecap:round;stroke-linejoin:round;stroke-miterlimit:4;stroke-dasharray:none;stroke-opacity:1;visibility:visible"/><path d="m359.234 711.709-.364 45.703M358.76 770l-.089 10.669M358.46 806.889l-.078 9.333M358.194 839.555l-.06 10.206M357.932 871.778l-.014 1.787M333.034 972.93l125.916-50.945" style="fill:none;stroke:red;stroke-width:1.99999;stroke-linecap:round;stroke-linejoin:round;stroke-miterlimit:4;stroke-dasharray:none;stroke-opacity:1;visibility:visible"/><path d="m459.92 755.818-.232 17.404M458.159 754.196s1.68-.502 1.763 1.624l-91.696 27.933M343.232 791.366l-19.68 5.995M459.458 787.096l-.232 17.493M457.707 785.305s1.625-.25 1.75 1.792l-52.633 17.057M394.583 808.12l-71.25 23.085M457.206 816.617s1.5-.584 1.833 1.75l-.185 17.403M457.039 847.577s1.584.041 1.584 1.833l-.325 17.356M458.066 880.311l-.094 17.17M456.524 878.395s1.834.335 1.542 1.918L322.81 931.642M355.108 710.46l-.366 48.349M354.64 771.334l-.06 7.778M354.36 807.555l-.079 10.002M354.103 840.445l-.081 10.444M353.85 873.334l-.018 2.113 3.98-1.42M340.15 712.585l-.324 50.084M339.51 811.555l-.07 10.667M339.292 845.111l-.074 11.569M464.312 912.72l-4.06 1.532 2.508-174.151M544.095 940.918l-5.771 2.604-.12 8.786M349.551 874.529l15.103 5.52M394.274 890.87l14.1 5.157M437.492 906.67l100.77 36.83M403.15 1002.611l-6.862 3.139-.056 9.473M396.29 1005.75l-204.93-87.334M218.733 924.667l91.28-32.572M324.21 887.031l28.78-10.27M352.99 876.76l-.022 5.835M215.838 914.397l95.165-33.217M210.775 748.168l.208 177.854 4.814-1.688M318.589 782.702l-.959 188.594 4.813-1.79" style="fill:none;stroke:red;stroke-width:.999997;stroke-linecap:round;stroke-linejoin:round;stroke-miterlimit:4;stroke-dasharray:none;stroke-opacity:1;visibility:visible"/><path d="M463.848 671.902c0 .655-1.276 1.19-2.846 1.19-1.572 0-2.848-.535-2.848-1.19 0-.657 1.276-1.188 2.848-1.188 1.57 0 2.846.531 2.846 1.188M463.855 671.914v2.85M461.562 672.308h-1.106M462.092 671.921l-.53.385M460.456 672.308l-.532-.386" style="fill:none;stroke:red;stroke-width:.866664;stroke-linecap:round;stroke-linejoin:round;stroke-miterlimit:2;stroke-dasharray:none;stroke-opacity:1;visibility:visible"/><path d="m308.773 787.068-11.8 17.96M296.974 805.029l-15.57 23.26-37.05 56.406M304.323 826.702l-29.789 44.601M278.043 774.524l-14.909 22.698M287.351 738.785l-8.81 13.412M266.606 770.368l-37.388 56.915" style="fill:none;stroke:red;stroke-width:.666665;stroke-linecap:round;stroke-linejoin:round;stroke-miterlimit:4;stroke-dasharray:none;stroke-opacity:1;visibility:visible"/><path d="m339.889 790.056-.593-15.479M322.55 968.544l-11.896-5.026M406.824 804.154l-14.821 2.4M394.583 808.12l12.249-6.337M368.226 783.753l5.533 16.778M392.003 806.554l6.281-13.717M339.296 774.577l.593 15.479M457.972 897.481l-4.462 3.009M458.066 880.311l-4.254-1.986M458.298 866.766l-4.362 2.5M458.854 835.77l-4.504 2.99M459.226 804.589l-4.446 2.709M459.458 787.096l-4.376-1.962M459.688 773.222l-4.486 3.094M459.92 755.818l-4.42-1.429M461.982 738.306l-6.29 2.051M461.982 738.306l4.865 2.902M215.797 924.334l10.541 3.562M322.913 898.377l-12.912-.407M310.013 892.095l13.716.965M349.551 874.529l3.863 9.477M394.274 890.87l3.141 9.34M437.492 906.67l3.912 9.856M464.455 911.994l-11.897-4.329M441.404 916.526l1.23-12.464M408.374 896.027l-7.728-7.338M351.444 883.28l19.106-5.406M310.001 897.97l12.912-2.228M311.003 881.18l12.026 2.483" style="fill:none;stroke:red;stroke-width:1.99999;stroke-linecap:round;stroke-linejoin:round;stroke-miterlimit:4;stroke-dasharray:none;stroke-opacity:1;visibility:visible"/><path d="m310.001 897.97 12.912.407" style="fill:none;stroke:red;stroke-width:.999997;stroke-linecap:round;stroke-linejoin:round;stroke-miterlimit:4;stroke-dasharray:none;stroke-opacity:1;visibility:visible"/><path d="m322.443 969.506.111-4.543M322.443 969.506l.217-19.174" style="fill:none;stroke:red;stroke-width:1.99999;stroke-linecap:round;stroke-linejoin:round;stroke-miterlimit:4;stroke-dasharray:none;stroke-opacity:1;visibility:visible"/><path d="m322.443 969.506 2.971.188" style="fill:none;stroke:red;stroke-width:.999997;stroke-linecap:round;stroke-linejoin:round;stroke-miterlimit:4;stroke-dasharray:none;stroke-opacity:1;visibility:visible"/><path d="m358.76 770 .11-12.588M354.58 779.112l4.18-9.112M354.64 771.334l4.031 9.335M354.281 817.557l4.179-10.668M354.36 807.555l4.022 8.667M354.022 850.889l4.172-11.334M354.103 840.445l4.031 9.316M352.968 882.595l4.964-10.817M322.443 969.506l10.591 3.424" style="fill:none;stroke:red;stroke-width:1.99999;stroke-linecap:round;stroke-linejoin:round;stroke-miterlimit:4;stroke-dasharray:none;stroke-opacity:1;visibility:visible"/><path d="m455.5 754.389 4.42 1.429M373.759 800.531l-5.533-16.778M339.296 774.577l3.936 16.789M339.889 790.056l-16.337 7.305M455.082 785.134l4.376 1.962M394.583 808.12l12.241-3.966M406.824 804.154l-12.241 3.966M453.812 878.325l4.254 1.986M358.76 770l-4.018-11.191M358.671 780.669l-4.031-9.335M358.76 770l-4.18 9.112M358.382 816.222l-4.022-8.667M358.46 806.889l-4.179 10.668M358.134 849.761l-4.031-9.316M358.194 839.555l-4.172 11.334M357.918 873.565l-4.068-.231M354.64 771.334l-14.814-8.665M354.281 817.557l-14.771-6.002M354.022 850.889l-14.73-5.778M461.982 738.306l.778 1.795M353.414 884.006l-3.863-9.477M357.956 873.298l6.698 6.751M397.415 900.21l-3.141-9.34M400.646 888.689l7.728 7.338M441.404 916.526l-3.912-9.856M215.797 924.334l2.936.333M322.913 895.742l-12.9-3.647M311.003 881.18l13.207 5.851M215.797 924.334l.041-9.937M323.029 883.663l-12.026-2.483M218.733 924.667l-2.936-.333" style="fill:none;stroke:red;stroke-width:.999997;stroke-linecap:round;stroke-linejoin:round;stroke-miterlimit:4;stroke-dasharray:none;stroke-opacity:1;visibility:visible"/><path d="m463.848 671.902.007 2.862" style="fill:none;stroke:red;stroke-width:.866664;stroke-linecap:round;stroke-linejoin:round;stroke-miterlimit:2;stroke-dasharray:none;stroke-opacity:1;visibility:visible"/><path d="m220.935 737.901 94.995 29.7M320.31 769.013l85.31 26.801-.128 9.837M405.379 806.067l-7.02 2.223-207.403-66.52-.056-8.894 7.597-2.044M198.88 730.862l2.75.855M206.4 730.476l105.452-26.456 11.793-2.964 11.7-2.942.008-1.45 6.019-1.467 3.82 1.1M350.466 697.484l108.366 29.34M464.032 728.161l83.772 22.676-.16 9.096-5.925 1.793-82.07-22.598M441.483 734.126l-89.473-24.624M353.79 708.974l-29.924 7.791M311.943 719.868l-80.526 20.965" style="fill:none;stroke:#00ff4a;stroke-width:1.99999;stroke-linecap:round;stroke-linejoin:round;stroke-miterlimit:4;stroke-dasharray:none;stroke-opacity:1;visibility:visible" visibility="hidden"/><path d="m547.804 750.836-5.893 1.824-.192 9.065M335.387 696.717l206.525 55.944M208.226 734.369l11.955 3.77M219.705 737.742l92.152-24.092M324.625 710.313l29.727-7.77-.062 6.21M405.508 796.227l-6.981 2.278-.167 9.784M190.9 732.876l207.628 65.63" style="fill:none;stroke:#00ff4a;stroke-width:.999997;stroke-linecap:round;stroke-linejoin:round;stroke-miterlimit:4;stroke-dasharray:none;stroke-opacity:1;visibility:visible" visibility="hidden"/><path d="M463.834 729.214c-.02.376-1.126.626-2.471.552-1.343-.072-2.417-.436-2.396-.812M315.894 771.26l-.48-.2-.274-.227-.043-.236.186-.227.41-.193.576-.14M318.767 770.045l.454.081.565.176.381.216.163.232-.067.235-.3.21-.497.171-.653.114-.756.046-.78-.022-.748-.092-.635-.152M202.106 735.53l-.439-.185-.224-.216.007-.216.237-.208.436-.183.611-.13M205.135 734.388l.532.09.526.164.337.204.113.216-.117.219-.344.197-.53.158-.676.104-.761.044-.779-.024-.722-.086-.607-.144" style="fill:none;stroke:#00ff4a;stroke-width:.666665;stroke-linecap:round;stroke-linejoin:round;stroke-miterlimit:4;stroke-dasharray:none;stroke-opacity:1;visibility:visible" visibility="hidden"/><path d="m315.894 771.26.036-3.659M315.93 767.601l4.38 1.412M202.107 735.53l-.477-3.813M202.734 734.392l3.666-3.916M350.466 697.484l-5.274-1.187M345.192 696.297l5.274 1.187M464.032 728.161l-5.2-1.337M458.832 726.824l5.2 1.337M458.832 726.824l.817 12.304M459.649 739.128l-18.166-5.002M345.192 696.297l6.818 13.205M311.943 719.868l11.923-3.103M323.866 716.765l-11.923 3.103" style="fill:none;stroke:#00ff4a;stroke-width:1.99999;stroke-linecap:round;stroke-linejoin:round;stroke-miterlimit:4;stroke-dasharray:none;stroke-opacity:1;visibility:visible" visibility="hidden"/><path d="m345.192 696.297-9.805.42M201.63 731.717l6.596 2.652M323.866 716.765l-12.009-3.115M311.857 713.65l12.768-3.337M201.63 731.717l-10.73 1.159" style="fill:none;stroke:#00ff4a;stroke-width:.999997;stroke-linecap:round;stroke-linejoin:round;stroke-miterlimit:4;stroke-dasharray:none;stroke-opacity:1;visibility:visible" visibility="hidden"/><path d="m206.4 730.476-3.666 3.916" style="fill:none;stroke:#00ff4a;stroke-width:.666665;stroke-linecap:round;stroke-linejoin:round;stroke-miterlimit:4;stroke-dasharray:none;stroke-opacity:1;visibility:visible" visibility="hidden"/><path d="m316.269 770.037 5.091-1.103M455.692 740.357l-.582-10.105" style="fill:none;stroke:red;stroke-width:1.99999;stroke-linecap:round;stroke-linejoin:round;stroke-miterlimit:4;stroke-dasharray:none;stroke-opacity:1;visibility:visible"/><path d="m316.269 770.037 11.126 1.58" style="fill:none;stroke:red;stroke-width:.999997;stroke-linecap:round;stroke-linejoin:round;stroke-miterlimit:4;stroke-dasharray:none;stroke-opacity:1;visibility:visible"/><path d="m322.554 964.963-11.874 3.019M315.894 771.26l-4.266 9.266M315.894 771.26l7.648 13.037M354.29 708.753l4.944 2.956" style="fill:none;stroke:red;stroke-width:1.99999;stroke-linecap:round;stroke-linejoin:round;stroke-miterlimit:4;stroke-dasharray:none;stroke-opacity:1;visibility:visible"/><path d="m354.29 708.753.818 1.707M354.29 708.753l-14.14 3.832M315.894 771.26l2.695 11.442" style="fill:none;stroke:red;stroke-width:.999997;stroke-linecap:round;stroke-linejoin:round;stroke-miterlimit:4;stroke-dasharray:none;stroke-opacity:1;visibility:visible"/><path d="m406.832 801.783-1.324-5.556" style="fill:none;stroke:#00ff4a;stroke-width:.999997;stroke-linecap:round;stroke-linejoin:round;stroke-miterlimit:4;stroke-dasharray:none;stroke-opacity:1;visibility:visible" visibility="hidden"/><path d="m461.982 738.306 1.852-9.092M461.982 738.306l-3.015-9.352M321.36 768.934l-5.091 1.103" style="fill:none;stroke:#00ff4a;stroke-width:.666665;stroke-linecap:round;stroke-linejoin:round;stroke-miterlimit:4;stroke-dasharray:none;stroke-opacity:1;visibility:visible" visibility="hidden"/></svg>