<svg xmlns="http://www.w3.org/2000/svg" baseProfile="full" height="1122.52" preserveAspectRatio="xMinYMin meet" style="width:765px;height:943px" width="793.701" xml:space="preserve"><path d="m340.393 759.697-74.302 17.107M252.583 730.614l-.341-127.768.168-.208 6.572-8.25 161.23-29.63 6.933 6.46-.822 163.581-5.331 6.343-64.008 14.736" style="fill:none;stroke:red;stroke-width:1.99999;stroke-linecap:round;stroke-linejoin:round;stroke-miterlimit:4;stroke-dasharray:none;stroke-opacity:1;visibility:visible"/><path d="m351.779 597.976-74.87 74.87M400.151 573.077l-74.87 74.87M357.115 666.976l-74.872 74.87M325.813 735.624l-23.65 23.65M407.62 650.614l-51.219 51.219" style="fill:none;stroke:red;stroke-width:.666665;stroke-linecap:round;stroke-linejoin:round;stroke-miterlimit:4;stroke-dasharray:none;stroke-opacity:1;visibility:visible"/><path d="m356.984 755.878-16.591 3.819M340.393 759.697l16.591-3.82" style="fill:none;stroke:red;stroke-width:1.99999;stroke-linecap:round;stroke-linejoin:round;stroke-miterlimit:4;stroke-dasharray:none;stroke-opacity:1;visibility:visible"/><path d="m251.234 731.78-5.604 1.145 2.28 176.467-1.593.409.125 8.541 146.709 102.833 8.667-2.625-.106-9.353M332.02 961.141l-64.392-44.401M401.714 1009.197l-56.875-39.217M276.13 922.447l56.257-14.68" style="fill:none;stroke:#00ff4a;stroke-width:1.99999;stroke-linecap:round;stroke-linejoin:round;stroke-miterlimit:4;stroke-dasharray:none;stroke-opacity:1;visibility:visible"/><path d="m262.352 737.788 2.459 1.464 2.112 177.36M422.853 778.456l-.124-39.336M422.957 811.687l-.033-10.612M423.057 844.368l-.032-10.479" style="fill:none;stroke:#00ff4a;stroke-width:1.99999;stroke-linecap:round;stroke-linejoin:round;stroke-miterlimit:4;stroke-dasharray:none;stroke-opacity:1;visibility:visible"/><path d="m426.405 777.618-.133-42.488M426.507 810.43l-.03-10.053M426.608 843.026l-.032-10.395M424.755 777.898l-.124-39.81M424.858 811.267l-.03-10.193M424.96 843.792l-.033-10.741" style="fill:none;stroke:#00ff4a;stroke-width:.666665;stroke-linecap:round;stroke-linejoin:round;stroke-miterlimit:4;stroke-dasharray:none;stroke-opacity:1;visibility:visible"/><path d="m266.852 906.177 65.341-16.69M442.538 861.398l.017 10.073M442.486 828.723l.016 10.195M442.434 796.467l.017 10.193M439.893 700.309l2.387 1.159.117 72.38M462.862 897.978l-12.148-7.252M502.691 921.76l-13.835-8.26M525.559 919.937l60.363 35.49-.062 9-7.833 2.313-60.643-36.208M506.305 908.616l6.58 3.868M468.065 886.135l12.828 7.543M514.385 757.506l.057-17.08 5.626-1.25 5.249 2.563-.73 178.083M514.283 789.06l.03-9.495M514.178 820.9l.032-9.779M514.074 852.737l.032-9.637M513.97 884.575l.03-9.217M513.86 918.53l.039-11.896M332.895 968.284l-1.472-186.192 6.208-1.437 4.916 2.792 1.295 186.557M342.909 798.003l172.954-40.193M342.855 819.175l173.898-41.305M342.971 831.414l172.736-41.599M343.087 852.619l173.405-42.768M343.242 864.75l172.229-43.005M343.5 885.707l172.546-43.979M343.512 897.891l171.906-44.405M343.714 918.947l172.254-45.452M343.797 930.864l171.458-45.708M343.964 952.03l172.333-47.084M343.964 966.989l168.786-46.667M353.214 975.655l163.89-45.772" style="fill:none;stroke:#00ff4a;stroke-width:1.99999;stroke-linecap:round;stroke-linejoin:round;stroke-miterlimit:4;stroke-dasharray:none;stroke-opacity:1;visibility:visible"/><path d="m346.966 971.206 171.052-48.039.03 6.184M245.797 733.405l12.959 7.375 6.02-1.23M258.984 740.78l2.188 178.125 5.708-1.541M270.583 918.674l61.687-16.02M246.401 909.822l146.666 102.021M401.63 1009.28l-8.563 2.563.084 9.333M498.3 910.465l79.768 47.273M461.553 888.69l11.423 6.77M422.654 865.636l12.983 7.695M585.922 955.426l-7.855 2.312-.062 8.917M514.547 740.822l5.145 2.5 5.5-1.23M519.693 743.322l-.437 178.562 5.312-1.478M331.547 782.51l4.812 2.77 5.959-1.395" style="fill:none;stroke:#00ff4a;stroke-width:.999997;stroke-linecap:round;stroke-linejoin:round;stroke-miterlimit:4;stroke-dasharray:none;stroke-opacity:1;visibility:visible"/><path d="m336.505 785.239 1.432 186.99 5.784-1.661M344.279 888.912l81.352-20.799M266.901 908.697l64.125-16.396M427.448 698.41l9.336 4.548 5.264-1.09M437.21 862.934l.028 10.215M437.121 829.98l.028 10.335M437.036 797.865l.027 10.05M436.784 702.957l.192 72.008" style="fill:none;stroke:#00ff4a;stroke-width:.999997;stroke-linecap:round;stroke-linejoin:round;stroke-miterlimit:4;stroke-dasharray:none;stroke-opacity:1;visibility:visible"/><path d="M338.223 782.937c0 .248-.573.448-1.281.448s-1.282-.2-1.282-.448c0-.247.574-.448 1.282-.448.708 0 1.281.201 1.281.448M521.087 741.24c0 .23-.555.417-1.24.417-.684 0-1.239-.187-1.239-.417 0-.23.555-.418 1.239-.418.685 0 1.24.188 1.24.418" style="fill:none;stroke:#00ff4a;stroke-width:.666665;stroke-linecap:round;stroke-linejoin:round;stroke-miterlimit:4;stroke-dasharray:none;stroke-opacity:1;visibility:visible"/><path d="M516.279 757.654s1.138-.173 1.361 1.938l-174.844 40.746M517.663 759.677l-.077 17.547M516.225 789.649s1.162.003 1.311 1.973L342.97 833.81M517.54 791.621l-.081 17.725M516.023 821.591s1.232-.254 1.384 1.935l-174.088 43.619M517.408 823.525l-.027 17.56M516.048 853.305s1.176.161 1.253 2.014l-173.858 45.068M517.303 855.318l-.05 17.428M515.715 885.043s1.195-.508 1.508 1.937l-173.51 46.47M517.224 886.978l-.075 17.53" style="fill:none;stroke:#00ff4a;stroke-width:.999997;stroke-linecap:round;stroke-linejoin:round;stroke-miterlimit:4;stroke-dasharray:none;stroke-opacity:1;visibility:visible"/><path d="m439.879 701.406.021-2.062s.042-.167-.125-.27l-8.041-3.939s-2.522-.855-3.772.354l-.02 2.105" style="fill:none;stroke:#00ff4a;stroke-width:1.99999;stroke-linecap:round;stroke-linejoin:round;stroke-miterlimit:4;stroke-dasharray:none;stroke-opacity:1;visibility:visible"/><path d="m428.026 695.656 8.062 4.021s2.542.75 3.812-.333" style="fill:none;stroke:#00ff4a;stroke-width:.999997;stroke-linecap:round;stroke-linejoin:round;stroke-miterlimit:4;stroke-dasharray:none;stroke-opacity:1;visibility:visible"/><path d="M433.692 696.677c0 .207-.55.375-1.23.375-.677 0-1.227-.168-1.227-.375s.549-.375 1.228-.375c.679 0 1.23.168 1.23.375h-.001" style="fill:none;stroke:#00ff4a;stroke-width:.666665;stroke-linecap:round;stroke-linejoin:round;stroke-miterlimit:4;stroke-dasharray:none;stroke-opacity:1;visibility:visible"/><path d="M250.713 734.865v-2.125s1.417-1.25 4.125-.292l7.083 3.958s.499.292.458.626l-.041 2.084" style="fill:none;stroke:#00ff4a;stroke-width:1.99999;stroke-linecap:round;stroke-linejoin:round;stroke-miterlimit:4;stroke-dasharray:none;stroke-opacity:1;visibility:visible"/><path d="M262.38 737.032s-1.668 1.166-4.127.25l-7.207-4.084" style="fill:none;stroke:#00ff4a;stroke-width:.999997;stroke-linecap:round;stroke-linejoin:round;stroke-miterlimit:4;stroke-dasharray:none;stroke-opacity:1;visibility:visible"/><path d="M256.463 734.094c0 .264-.578.479-1.292.479-.713 0-1.291-.215-1.291-.479s.578-.478 1.291-.478c.714 0 1.292.214 1.292.478" style="fill:none;stroke:#00ff4a;stroke-width:.666665;stroke-linecap:round;stroke-linejoin:round;stroke-miterlimit:4;stroke-dasharray:none;stroke-opacity:1;visibility:visible"/><path d="m344.84 969.98-12.82-8.839M266.88 917.364l9.25 5.083M343.443 900.387l-11.056 7.38M424.827 801.074l-1.87 10.613M426.507 810.43l-3.583-9.355M424.927 833.05l-1.87 11.318M426.608 843.026l-3.583-9.137" style="fill:none;stroke:#00ff4a;stroke-width:1.99999;stroke-linecap:round;stroke-linejoin:round;stroke-miterlimit:4;stroke-dasharray:none;stroke-opacity:1;visibility:visible"/><path d="m424.827 801.074 1.68 9.356M424.858 811.267l1.618-10.89M423.025 833.89l3.583 9.136M424.96 843.792l1.616-11.16M422.924 801.075l1.934 10.192M426.507 810.43l-1.68-9.356M423.025 833.89l1.935 9.902M426.608 843.026l-1.681-9.975" style="fill:none;stroke:#00ff4a;stroke-width:.666665;stroke-linecap:round;stroke-linejoin:round;stroke-miterlimit:4;stroke-dasharray:none;stroke-opacity:1;visibility:visible"/><path d="m266.88 917.364-.028-11.187M343.5 885.707l-11.307 3.78M437.238 873.149l5.3-11.751M437.21 862.934l5.345 8.537M437.149 840.315l5.337-11.592M437.121 829.98l5.381 8.938M437.063 807.916l5.371-11.449M437.036 797.865l5.415 8.795M461.553 888.69l1.309 9.288M498.3 910.465l4.391 11.295M502.691 921.76l3.614-13.144M525.559 919.937l-12.674-7.453M472.976 895.46l-4.911-9.325M461.553 888.69l19.34 4.988M517.663 759.677l-3.278-2.171M517.54 791.621l-3.257-2.561M517.586 777.224l-3.272 2.341M517.408 823.525l-3.23-2.625M517.459 809.346l-3.249 1.775M517.303 855.318l-3.229-2.581M517.381 841.085l-3.275 2.015M517.224 886.978l-3.254-2.403M517.252 872.746 514 875.358M517.15 904.509l-3.251 2.125M342.318 783.885l.591 14.118M332.193 889.486l11.307-3.779M332.27 902.654l11.242-4.763M332.387 907.767l11.327 11.18M343.721 970.568l.243-18.538M343.721 970.568l.243-3.579M343.721 970.568l9.493 5.087" style="fill:none;stroke:#00ff4a;stroke-width:1.99999;stroke-linecap:round;stroke-linejoin:round;stroke-miterlimit:4;stroke-dasharray:none;stroke-opacity:1;visibility:visible"/><path d="m343.721 970.568 3.245.638M262.338 739.116l-3.354 1.664M266.88 917.364l3.703 1.31M343.443 900.387l-11.173 2.267M401.712 1009.197l-8.56 11.979M502.691 921.76l-4.391-11.295M462.862 897.978l-1.309-9.288M468.065 886.135l4.91 9.324M521.087 741.24l-1.394 2.082M342.909 798.003l-.591-14.118M338.223 782.937l-1.718 2.302M332.193 889.486l12.086-.574M266.88 917.364l.021-8.667M344.279 888.912l-13.253 3.389M442.555 871.471l-5.345-8.537M442.538 861.398l-5.3 11.75M442.502 838.918l-5.381-8.938M442.486 828.723l-5.337 11.592M442.451 806.66l-5.415-8.795M442.434 796.467l-5.371 11.449M439.879 701.406l-3.095 1.551" style="fill:none;stroke:#00ff4a;stroke-width:.999997;stroke-linecap:round;stroke-linejoin:round;stroke-miterlimit:4;stroke-dasharray:none;stroke-opacity:1;visibility:visible"/><path d="m336.505 785.239 1.718-2.302M514.385 757.506l6.702-16.266M519.693 743.322l1.394-2.082" style="fill:none;stroke:#00ff4a;stroke-width:.666665;stroke-linecap:round;stroke-linejoin:round;stroke-miterlimit:4;stroke-dasharray:none;stroke-opacity:1;visibility:visible"/><path d="m342.318 783.885.478 16.453M514.385 757.506l3.278 2.171M514.314 779.565l3.272-2.341M514.283 789.06l3.257 2.561M514.21 811.121l3.249-1.775M514.178 820.9l3.23 2.625M514.106 843.1l3.275-2.015M332.27 902.654l11.173-2.267M514.074 852.737l3.229 2.581M514 875.358l3.252-2.612M513.97 884.575l3.254 2.403" style="fill:none;stroke:#00ff4a;stroke-width:.999997;stroke-linecap:round;stroke-linejoin:round;stroke-miterlimit:4;stroke-dasharray:none;stroke-opacity:1;visibility:visible"/><path d="m436.784 702.957 3.095-1.551" style="fill:none;stroke:#00ff4a;stroke-width:1.99999;stroke-linecap:round;stroke-linejoin:round;stroke-miterlimit:4;stroke-dasharray:none;stroke-opacity:1;visibility:visible"/><path d="m427.942 697.594 5.75-.917" style="fill:none;stroke:#00ff4a;stroke-width:.666665;stroke-linecap:round;stroke-linejoin:round;stroke-miterlimit:4;stroke-dasharray:none;stroke-opacity:1;visibility:visible"/><path d="m256.463 734.094-5.75.771M258.984 740.78l3.354-1.664" style="fill:none;stroke:#00ff4a;stroke-width:1.99999;stroke-linecap:round;stroke-linejoin:round;stroke-miterlimit:4;stroke-dasharray:none;stroke-opacity:1;visibility:visible"/><path d="m250.713 734.865 5.75-.771M258.984 740.78l-2.521-6.686" style="fill:none;stroke:#00ff4a;stroke-width:.666665;stroke-linecap:round;stroke-linejoin:round;stroke-miterlimit:4;stroke-dasharray:none;stroke-opacity:1;visibility:visible"/><path d="m256.463 734.094-3.88-3.48" style="fill:none;stroke:red;stroke-width:1.99999;stroke-linecap:round;stroke-linejoin:round;stroke-miterlimit:4;stroke-dasharray:none;stroke-opacity:1;visibility:visible"/><path d="m250.713 734.865.521-3.085M343.964 966.989l-11.069 1.295" style="fill:none;stroke:#00ff4a;stroke-width:1.99999;stroke-linecap:round;stroke-linejoin:round;stroke-miterlimit:4;stroke-dasharray:none;stroke-opacity:1;visibility:visible"/><path d="m250.713 734.865 14.063 4.685M427.942 697.594l14.106 4.273M343.5 885.707l-.181-18.562" style="fill:none;stroke:#00ff4a;stroke-width:.999997;stroke-linecap:round;stroke-linejoin:round;stroke-miterlimit:4;stroke-dasharray:none;stroke-opacity:1;visibility:visible"/></svg>