<svg xmlns="http://www.w3.org/2000/svg" baseProfile="full" height="1122.52" preserveAspectRatio="xMinYMin meet" style="width:765px;height:943px" width="793.701" xml:space="preserve"><path d="M93.056 585.455v6h-3.639v6.241h-7.28v-6.241H67.496v-4.999l11.641-18.92h10.28v17.919h3.639" style="fill:none;fill-opacity:1;fill-rule:nonzero;stroke:red;stroke-width:1.33333;visibility:visible"/><path d="M266.094 646.528 63.289 671.262M66.09 675.834l-2.507.307M72.9 688.785l203.794-25.219M69.594 686.585l2.516-.31" style="fill:none;stroke:red;stroke-width:1.99999;stroke-linecap:round;stroke-linejoin:round;stroke-miterlimit:4;stroke-dasharray:none;stroke-opacity:1;visibility:visible"/><path d="m70.594 906.067 2.454-.354" style="fill:none;stroke:red;stroke-width:.666665;stroke-linecap:round;stroke-linejoin:round;stroke-miterlimit:4;stroke-dasharray:none;stroke-opacity:1;visibility:visible"/><path d="m238.271 884.454 13.552-1.961M201.274 889.803l13.664-1.973M164.012 895.194l13.778-1.992M126.48 900.62l13.893-2.006M73.798 908.24l28.888-4.176" style="fill:none;stroke:red;stroke-width:1.99999;stroke-linecap:round;stroke-linejoin:round;stroke-miterlimit:4;stroke-dasharray:none;stroke-opacity:1;visibility:visible"/><path d="m102.67 884.41-38.302 5.47M140.441 879.017l-13.921 1.986M177.938 873.665l-13.806 1.972M215.17 868.35l-13.694 1.956M252.133 863.074l-13.584 1.937M67.084 894.722l-2.448.352" style="fill:none;stroke:red;stroke-width:.666665;stroke-linecap:round;stroke-linejoin:round;stroke-miterlimit:4;stroke-dasharray:none;stroke-opacity:1;visibility:visible"/><path d="m284.473 716.049.844-43.781M281.517 869.73l2.733-142.084M275.73 643.848a.672.672 0 0 0-.53-.164M265.74 645.428l-.017 1.142M275.2 643.684l-8.86 1.079M266.34 644.761a.683.683 0 0 0-.6.667M396.508 761.308a.736.736 0 0 0 .634-.703M275.686 663.692l55.753 49.648M335.738 717.169l50.785 45.225M387.11 762.574l9.398-1.264M397.194 750.533 275.73 643.848M386.524 762.394a.73.73 0 0 0 .586.18M397.14 760.605l.303-9.503M397.443 751.104a.724.724 0 0 0-.25-.571M338.131 719.301l-5.306 211.135M343.935 932.995l5.377-203.737" style="fill:none;stroke:red;stroke-width:1.99999;stroke-linecap:round;stroke-linejoin:round;stroke-miterlimit:4;stroke-dasharray:none;stroke-opacity:1;visibility:visible"/><path d="m267.131 664.752-.924 53.65" style="fill:none;stroke:red;stroke-width:.666665;stroke-linecap:round;stroke-linejoin:round;stroke-miterlimit:4;stroke-dasharray:none;stroke-opacity:1;visibility:visible"/><path d="M389.315 988.672a.712.712 0 0 0 .601-.68M274.94 882.66l52.016 53.337M330.234 939.36l49.29 50.547M380.146 990.112l9.169-1.44M333.066 920.782l-51.528-52.183M389.998 978.438l-46.03-46.618M379.524 989.907a.716.716 0 0 0 .623.205M389.916 987.992l.287-9.03M390.203 978.962a.716.716 0 0 0-.205-.524" style="fill:none;stroke:red;stroke-width:1.99999;stroke-linecap:round;stroke-linejoin:round;stroke-miterlimit:4;stroke-dasharray:none;stroke-opacity:1;visibility:visible"/><path d="M73.157 682.632c.057-.527-.153-1.344-.459-1.776M277.129 657.512c.073-.53-.149-1.323-.487-1.74M73.392 681.55l203.174-25.055" style="fill:none;stroke:red;stroke-width:.999997;stroke-linecap:round;stroke-linejoin:round;stroke-miterlimit:4;stroke-dasharray:none;stroke-opacity:1;visibility:visible"/><path d="m72.73 688.705.088.068.084.013.08-.04.065-.09.058-.142.04-.18.025-.221.008-.247M66.381 675.973l-.27-.139h-.022M71.798 681.556l-5.417-5.584M72.11 686.274l.214-.15.174-.426.092-.648-.004-.797-.096-.843-.18-.792-.24-.644-.273-.418" style="fill:none;stroke:red;stroke-width:.666665;stroke-linecap:round;stroke-linejoin:round;stroke-miterlimit:4;stroke-dasharray:none;stroke-opacity:1;visibility:visible"/><path d="m70.566 686.465 2.164 2.24" style="fill:none;stroke:red;stroke-width:1.99999;stroke-linecap:round;stroke-linejoin:round;stroke-miterlimit:4;stroke-dasharray:none;stroke-opacity:1;visibility:visible"/><path d="M63.04 677.384a4.395 4.395 0 0 0 .08.814" style="fill:none;stroke:red;stroke-width:.666665;stroke-linecap:round;stroke-linejoin:round;stroke-miterlimit:4;stroke-dasharray:none;stroke-opacity:1;visibility:visible"/><path d="m63.453 671.34-.085-.066-.088-.013-.075.043-.065.09-.056.14-.04.183-.025.219-.006.244M63.013 672.181l.027 5.203" style="fill:none;stroke:red;stroke-width:1.99999;stroke-linecap:round;stroke-linejoin:round;stroke-miterlimit:4;stroke-dasharray:none;stroke-opacity:1;visibility:visible"/><path d="m276.64 655.772-10.36-9.172M277.031 662.658l.096-5.145M73.178 687.866l-.02-5.234M72.698 680.854l-9.245-9.516" style="fill:none;stroke:red;stroke-width:.999997;stroke-linecap:round;stroke-linejoin:round;stroke-miterlimit:4;stroke-dasharray:none;stroke-opacity:1;visibility:visible"/><path d="m69.302 686.444.268.142.238-.15.174-.427.091-.649-.003-.795-.098-.845-.18-.792-.239-.643-.272-.42M69.282 681.866l-5.409-5.585" style="fill:none;stroke:red;stroke-width:.666665;stroke-linecap:round;stroke-linejoin:round;stroke-miterlimit:4;stroke-dasharray:none;stroke-opacity:1;visibility:visible"/><path d="m63.873 676.281-.268-.139-.234.152-.172.427-.091.645.005.795.097.839.18.79.235.64.27.413M63.893 680.842l5.41 5.602" style="fill:none;stroke:red;stroke-width:1.99999;stroke-linecap:round;stroke-linejoin:round;stroke-miterlimit:4;stroke-dasharray:none;stroke-opacity:1;visibility:visible"/><path d="m65.564 678.937-.18-.084-.154.139-.1.338-.032.487.039.563.104.55.154.454.182.293.18.083.15-.138.103-.338.033-.487-.04-.563-.103-.549-.156-.455-.18-.293" style="fill:none;stroke:red;stroke-width:.666665;stroke-linecap:round;stroke-linejoin:round;stroke-miterlimit:4;stroke-dasharray:none;stroke-opacity:1;visibility:visible"/><path d="m277.031 662.658-.013.243-.033.216-.05.18-.068.14-.081.09-.088.041h-.005" style="fill:none;stroke:red;stroke-width:.999997;stroke-linecap:round;stroke-linejoin:round;stroke-miterlimit:4;stroke-dasharray:none;stroke-opacity:1;visibility:visible"/><path d="m266.094 646.528.085.01.101.064" style="fill:none;stroke:red;stroke-width:.666665;stroke-linecap:round;stroke-linejoin:round;stroke-miterlimit:4;stroke-dasharray:none;stroke-opacity:1;visibility:visible"/><path d="M74.026 902.431c.05-.518-.158-1.338-.448-1.77" style="fill:none;stroke:red;stroke-width:.999997;stroke-linecap:round;stroke-linejoin:round;stroke-miterlimit:4;stroke-dasharray:none;stroke-opacity:1;visibility:visible"/><path d="M64.144 895.66c0 .18.028.517.065.693" style="fill:none;stroke:red;stroke-width:.666665;stroke-linecap:round;stroke-linejoin:round;stroke-miterlimit:4;stroke-dasharray:none;stroke-opacity:1;visibility:visible"/><path d="m64.55 889.98-.082-.077-.084-.026-.076.025-.064.076-.054.122-.04.167-.02.203-.009.232M64.144 895.66l-.024-4.96" style="fill:none;stroke:red;stroke-width:.999997;stroke-linecap:round;stroke-linejoin:round;stroke-miterlimit:4;stroke-dasharray:none;stroke-opacity:1;visibility:visible"/><path d="m65.223 893.858.854 1.01M65.21 890.757l.012 3.1M64.55 889.98l.66.778" style="fill:none;stroke:red;stroke-width:.666665;stroke-linecap:round;stroke-linejoin:round;stroke-miterlimit:4;stroke-dasharray:none;stroke-opacity:1;visibility:visible"/><path d="m74.026 902.431.022 4.984M66.193 891.923l7.385 8.738M66.21 894.85l-.018-2.927" style="fill:none;stroke:red;stroke-width:.999997;stroke-linecap:round;stroke-linejoin:round;stroke-miterlimit:4;stroke-dasharray:none;stroke-opacity:1;visibility:visible"/><path d="m73.61 908.137.086.078.084.028.076-.025.066-.076.052-.123.043-.166.023-.203.008-.235" style="fill:none;stroke:red;stroke-width:.666665;stroke-linecap:round;stroke-linejoin:round;stroke-miterlimit:4;stroke-dasharray:none;stroke-opacity:1;visibility:visible"/><path d="m73.61 908.137-1.88-2.235" style="fill:none;stroke:red;stroke-width:1.99999;stroke-linecap:round;stroke-linejoin:round;stroke-miterlimit:4;stroke-dasharray:none;stroke-opacity:1;visibility:visible"/><path d="m67.084 894.722.062.003.264.18M67.41 894.905l5.292 6.262M72.701 901.167l.265.446.235.656.175.784.093.82.005.757-.09.605-.17.372-.166.104" style="fill:none;stroke:red;stroke-width:.666665;stroke-linecap:round;stroke-linejoin:round;stroke-miterlimit:4;stroke-dasharray:none;stroke-opacity:1;visibility:visible"/><path d="m102.673 886.707-36.478 5.216M140.433 881.307l-13.919 1.99M177.92 875.949l-13.803 1.973M215.14 870.629l-13.69 1.956M252.097 865.345l-13.579 1.94" style="fill:none;stroke:red;stroke-width:.999997;stroke-linecap:round;stroke-linejoin:round;stroke-miterlimit:4;stroke-dasharray:none;stroke-opacity:1;visibility:visible"/><path d="m70.246 901.52.266.447.234.655.175.784.093.82.006.759-.088.604-.172.374-.23.102-.265-.185M64.963 895.254l5.283 6.268M66.626 900.689l-.176-.307-.15-.462-.103-.541-.04-.542.035-.458.096-.305.148-.104.177.11.177.308.151.461.103.543.038.542-.034.456-.099.307-.148.103-.175-.111" style="fill:none;stroke:red;stroke-width:.666665;stroke-linecap:round;stroke-linejoin:round;stroke-miterlimit:4;stroke-dasharray:none;stroke-opacity:1;visibility:visible"/><path d="m64.983 899.602-.263-.443-.232-.653-.175-.781-.093-.816-.005-.755.088-.601.169-.375.227-.104.261.179M70.264 905.88l-5.281-6.277" style="fill:none;stroke:red;stroke-width:1.99999;stroke-linecap:round;stroke-linejoin:round;stroke-miterlimit:4;stroke-dasharray:none;stroke-opacity:1;visibility:visible"/><path d="m102.67 885.405-37.46 5.352M140.436 880.011l-13.919 1.987M177.93 874.654l-13.805 1.972M215.157 869.337l-13.694 1.956M252.118 864.055l-13.581 1.94M66.204 893.717l-.981.14" style="fill:none;stroke:red;stroke-width:.666665;stroke-linecap:round;stroke-linejoin:round;stroke-miterlimit:4;stroke-dasharray:none;stroke-opacity:1;visibility:visible"/><path d="m343.935 932.995-.027.105-.077.106-.128.096-.172.084-.21.068-.241.05M336.131 933.926l-3.201-3.26M343.082 933.503l-5.134.773M336.131 933.926c.45.341 1.273.5 1.817.352" style="fill:none;stroke:red;stroke-width:.999997;stroke-linecap:round;stroke-linejoin:round;stroke-miterlimit:4;stroke-dasharray:none;stroke-opacity:1;visibility:visible"/><path d="M332.823 930.435a.292.292 0 0 0 .104.23" style="fill:none;stroke:red;stroke-width:.666665;stroke-linecap:round;stroke-linejoin:round;stroke-miterlimit:4;stroke-dasharray:none;stroke-opacity:1;visibility:visible"/><path d="M387.07 751.805 266.18 644.944M386.631 752.428l-.292 9.51M396.732 750.402l-9.409 1.258M387.323 751.66a.823.823 0 0 0-.693.768" style="fill:none;stroke:red;stroke-width:.999997;stroke-linecap:round;stroke-linejoin:round;stroke-miterlimit:4;stroke-dasharray:none;stroke-opacity:1;visibility:visible"/><path d="m338.287 716.022.255.482.281.25.27-.013.221-.276.14-.5.045-.656-.061-.727-.156-.696-.232-.572-.274-.37" style="fill:none;stroke:red;stroke-width:.666665;stroke-linecap:round;stroke-linejoin:round;stroke-miterlimit:4;stroke-dasharray:none;stroke-opacity:1;visibility:visible"/><path d="m275.7 870.926 4.975-.716" style="fill:none;stroke:red;stroke-width:.999997;stroke-linecap:round;stroke-linejoin:round;stroke-miterlimit:4;stroke-dasharray:none;stroke-opacity:1;visibility:visible"/><path d="m267.998 664.645-.93 53.648M281.517 869.73v.003l-.028.104-.079.098-.128.09-.17.077-.202.063-.235.044M269.405 664.47l-.94 53.64" style="fill:none;stroke:red;stroke-width:.666665;stroke-linecap:round;stroke-linejoin:round;stroke-miterlimit:4;stroke-dasharray:none;stroke-opacity:1;visibility:visible"/><path d="m379.38 989.511.276-9.039M380.331 979.724l9.18-1.432M380.331 979.724a.813.813 0 0 0-.675.748" style="fill:none;stroke:red;stroke-width:.999997;stroke-linecap:round;stroke-linejoin:round;stroke-miterlimit:4;stroke-dasharray:none;stroke-opacity:1;visibility:visible"/><path d="m333.074 939.314-.268-.396M332.55 935.871l.213-.231.26.026.275.281.25.495.192.645.108.708.009.672-.092.55-.179.348-.242.105-.269-.156" style="fill:none;stroke:red;stroke-width:.666665;stroke-linecap:round;stroke-linejoin:round;stroke-miterlimit:4;stroke-dasharray:none;stroke-opacity:1;visibility:visible"/><path d="m342.527 723.79-5.412 210.32M238.378 877.443l13.565-1.953M201.35 882.771l13.677-1.97M164.058 888.14l13.79-1.986M126.496 893.543l13.904-2M74.496 901.129l28.184-4.16" style="fill:none;stroke:red;stroke-width:.999997;stroke-linecap:round;stroke-linejoin:round;stroke-miterlimit:4;stroke-dasharray:none;stroke-opacity:1;visibility:visible"/><path d="M386.339 761.938a.584.584 0 0 0 .185.456M397.194 750.533a.572.572 0 0 0-.462-.13" style="fill:none;stroke:red;stroke-width:.666665;stroke-linecap:round;stroke-linejoin:round;stroke-miterlimit:4;stroke-dasharray:none;stroke-opacity:1;visibility:visible"/><path d="M275.73 643.848a.55.55 0 0 0-.437-.128" style="fill:none;stroke:red;stroke-width:1.99999;stroke-linecap:round;stroke-linejoin:round;stroke-miterlimit:4;stroke-dasharray:none;stroke-opacity:1;visibility:visible"/><path d="m266.34 644.761.042.006.051.03" style="fill:none;stroke:red;stroke-width:.666665;stroke-linecap:round;stroke-linejoin:round;stroke-miterlimit:4;stroke-dasharray:none;stroke-opacity:1;visibility:visible"/><path d="m275.293 643.721-.05-.03-.043-.006" style="fill:none;stroke:red;stroke-width:1.99999;stroke-linecap:round;stroke-linejoin:round;stroke-miterlimit:4;stroke-dasharray:none;stroke-opacity:1;visibility:visible"/><path d="m276.786 717.038.948-51.524" style="fill:none;stroke:red;stroke-width:.999997;stroke-linecap:round;stroke-linejoin:round;stroke-miterlimit:4;stroke-dasharray:none;stroke-opacity:1;visibility:visible"/><path d="m267.23 664.738-.924 53.652" style="fill:none;stroke:red;stroke-width:.666665;stroke-linecap:round;stroke-linejoin:round;stroke-miterlimit:4;stroke-dasharray:none;stroke-opacity:1;visibility:visible"/><path d="M379.823 979.972 275.271 873.337" style="fill:none;stroke:red;stroke-width:.999997;stroke-linecap:round;stroke-linejoin:round;stroke-miterlimit:4;stroke-dasharray:none;stroke-opacity:1;visibility:visible"/><path d="M379.38 989.511a.53.53 0 0 0 .143.396M389.998 978.438a.55.55 0 0 0-.488-.146" style="fill:none;stroke:red;stroke-width:.666665;stroke-linecap:round;stroke-linejoin:round;stroke-miterlimit:4;stroke-dasharray:none;stroke-opacity:1;visibility:visible"/><path d="m251.943 875.49-13.672 8.964M238.378 877.443l13.445 5.05M215.027 880.801l-13.753 9.002M201.35 882.771l13.588 5.059M177.848 886.154l-13.836 9.04M164.058 888.14l13.732 5.062M140.4 891.543l-13.92 9.077M126.496 893.543l13.877 5.071M284.25 727.646l.223-11.597M277.031 662.658l8.286 9.61M284.473 716.049l-.223 11.597M276.64 655.772l-.954 7.92M335.738 717.169l-4.299-3.829M331.439 713.34l4.299 3.829M330.234 939.36l-3.278-3.363M326.956 935.997l3.278 3.363M332.93 930.666l.136-9.884M336.131 933.926l7.837-2.106" style="fill:none;stroke:red;stroke-width:1.99999;stroke-linecap:round;stroke-linejoin:round;stroke-miterlimit:4;stroke-dasharray:none;stroke-opacity:1;visibility:visible"/><path d="m69.302 686.444-3.738-7.507M63.895 680.843l1.669-1.906" style="fill:none;stroke:red;stroke-width:.666665;stroke-linecap:round;stroke-linejoin:round;stroke-miterlimit:4;stroke-dasharray:none;stroke-opacity:1;visibility:visible"/><path d="m70.264 905.88 1.466.022" style="fill:none;stroke:red;stroke-width:1.99999;stroke-linecap:round;stroke-linejoin:round;stroke-miterlimit:4;stroke-dasharray:none;stroke-opacity:1;visibility:visible"/><path d="m126.52 881.003 13.913.304M140.436 880.011l-13.922 3.286M164.132 875.637l13.788.312M177.93 874.654l-13.813 3.268M201.476 870.306l13.664.323M215.157 869.337l-13.707 3.248M238.549 865.011l13.548.334M252.118 864.055l-13.6 3.23" style="fill:none;stroke:red;stroke-width:.999997;stroke-linecap:round;stroke-linejoin:round;stroke-miterlimit:4;stroke-dasharray:none;stroke-opacity:1;visibility:visible"/><path d="m70.246 901.52-3.62-.831M64.96 895.253l1.666 5.436M277.031 662.658l-7.626 1.812M284.25 727.646l-15.785-9.536" style="fill:none;stroke:red;stroke-width:.666665;stroke-linecap:round;stroke-linejoin:round;stroke-miterlimit:4;stroke-dasharray:none;stroke-opacity:1;visibility:visible"/><path d="m251.823 882.493-13.445-5.05M238.518 867.285l13.425 8.205M214.938 887.83l-13.588-5.059M201.45 872.585l13.577 8.216M177.79 893.202l-13.732-5.062M164.117 877.922l13.731 8.232M140.373 898.614l-13.877-5.071M126.514 883.297l13.886 8.246M73.048 905.713l1.448-4.584M284.25 727.646l-7.464-10.608M277.031 662.658l.703 2.856" style="fill:none;stroke:red;stroke-width:.999997;stroke-linecap:round;stroke-linejoin:round;stroke-miterlimit:4;stroke-dasharray:none;stroke-opacity:1;visibility:visible"/><path d="m102.733 966.44-19.973 3.008M140.157 960.806l-13.797 2.078M177.313 955.212l-13.683 2.06M214.206 949.654l-13.57 2.044M250.842 944.14l-13.461 2.026M289.714 938.284l-15.85 2.388M85.986 980.84l207.175-31.429M294.285 714.782 82.102 742.14M85.356 753.512l212.406-27.623M163.616 959.6l1.324-216.436M140.902 746.288l-.752 216.304M237.346 948.495l3.104-215.153M216.727 736.428l-2.54 214.986M200.613 954.03l2.221-215.794M178.954 741.34l-1.653 215.642M273.82 943.003l3.978-214.518M254.23 731.55l-3.417 214.333M126.358 965.208l.418-217.083M102.572 751.274l.161 216.966" style="fill:none;stroke:#00ff4a;stroke-width:1.99999;stroke-linecap:round;stroke-linejoin:round;stroke-miterlimit:4;stroke-dasharray:none;stroke-opacity:1;visibility:visible"/><path d="m83.73 749.178-.182-.3-.156-.457-.104-.551-.036-.555.033-.483.101-.328.154-.131.182.095.186.296.152.458.105.552.039.558-.034.48-.104.33-.153.128-.183-.091" style="fill:none;stroke:#00ff4a;stroke-width:.666665;stroke-linecap:round;stroke-linejoin:round;stroke-miterlimit:4;stroke-dasharray:none;stroke-opacity:1;visibility:visible"/><path d="m85.17 753.42.094.075.09.019.081-.038.071-.091.06-.141.044-.187.027-.224.007-.256" style="fill:none;stroke:#00ff4a;stroke-width:.999997;stroke-linecap:round;stroke-linejoin:round;stroke-miterlimit:4;stroke-dasharray:none;stroke-opacity:1;visibility:visible"/><path d="m82.285 742.23-.09-.073-.094-.017-.079.036-.072.093-.058.141-.044.187-.028.227-.007.256M81.829 748.494l-.016-5.414M81.83 748.494c-.059.552.162 1.41.477 1.864M85.17 753.42l-2.86-3.061" style="fill:none;stroke:#00ff4a;stroke-width:1.99999;stroke-linecap:round;stroke-linejoin:round;stroke-miterlimit:4;stroke-dasharray:none;stroke-opacity:1;visibility:visible"/><path d="m85.816 746.113 211.551-27.34M85.632 747.148l.013 5.429M85.632 747.148c.057-.552-.164-1.412-.482-1.868M82.285 742.23l2.865 3.05" style="fill:none;stroke:#00ff4a;stroke-width:.999997;stroke-linecap:round;stroke-linejoin:round;stroke-miterlimit:4;stroke-dasharray:none;stroke-opacity:1;visibility:visible"/><path d="m82.965 969.568-.09-.085-.091-.035-.076.022-.07.072-.058.125-.042.173-.026.207-.008.24M82.504 970.287l.016 5.148M82.52 975.435c-.047.541.17 1.404.466 1.857M294.495 714.868a.248.248 0 0 0-.21-.086M298.115 724.962l-.018.251-.034.223-.053.182-.072.144-.085.091-.093.036M294.495 714.868l3.219 2.934M298.224 719.629l-.108 5.333M298.225 719.629c.075-.557-.156-1.39-.511-1.825" style="fill:none;stroke:#00ff4a;stroke-width:1.99999;stroke-linecap:round;stroke-linejoin:round;stroke-miterlimit:4;stroke-dasharray:none;stroke-opacity:1;visibility:visible"/><path d="m86.24 980.003-.016-5.159M86.225 974.844c.05-.544-.17-1.406-.47-1.861M85.756 972.983l-2.792-3.415" style="fill:none;stroke:#00ff4a;stroke-width:.999997;stroke-linecap:round;stroke-linejoin:round;stroke-miterlimit:4;stroke-dasharray:none;stroke-opacity:1;visibility:visible"/><path d="m85.777 980.72.09.088.088.035.079-.021.071-.074.057-.124.042-.169.026-.208.011-.243" style="fill:none;stroke:#00ff4a;stroke-width:.666665;stroke-linecap:round;stroke-linejoin:round;stroke-miterlimit:4;stroke-dasharray:none;stroke-opacity:1;visibility:visible"/><path d="m82.986 977.292 2.792 3.428" style="fill:none;stroke:#00ff4a;stroke-width:1.99999;stroke-linecap:round;stroke-linejoin:round;stroke-miterlimit:4;stroke-dasharray:none;stroke-opacity:1;visibility:visible"/><path d="m84.365 973.852-.177-.12-.15.094-.101.294-.033.451.036.536.102.543.151.462.18.319.177.119.151-.094.099-.294.034-.45-.037-.537-.101-.541-.15-.464-.181-.318" style="fill:none;stroke:#00ff4a;stroke-width:.666665;stroke-linecap:round;stroke-linejoin:round;stroke-miterlimit:4;stroke-dasharray:none;stroke-opacity:1;visibility:visible"/><path d="M293.58 943.507c.061-.547-.166-1.383-.499-1.82" style="fill:none;stroke:#00ff4a;stroke-width:1.99999;stroke-linecap:round;stroke-linejoin:round;stroke-miterlimit:4;stroke-dasharray:none;stroke-opacity:1;visibility:visible"/><path d="M293.58 942.84 86.224 974.18" style="fill:none;stroke:#00ff4a;stroke-width:.999997;stroke-linecap:round;stroke-linejoin:round;stroke-miterlimit:4;stroke-dasharray:none;stroke-opacity:1;visibility:visible"/><path d="m293.08 941.686-3.132-3.29M293.473 948.582l.106-5.076" style="fill:none;stroke:#00ff4a;stroke-width:1.99999;stroke-linecap:round;stroke-linejoin:round;stroke-miterlimit:4;stroke-dasharray:none;stroke-opacity:1;visibility:visible"/><path d="m253.203 946.602 19.519-2.943M250.813 945.883l.12.273.369.248.56.17.67.07.67-.043M272.722 943.66l.57-.147.39-.229.138-.276v-.005M216.571 952.128l19.656-2.964M214.186 951.414l.117.265.364.248.56.173.667.07.677-.044M236.226 949.164l.579-.148.393-.229.148-.279v-.013M105.1 968.947l20.08-3.03M102.733 968.24l.101.248.352.252.555.175.672.073.687-.042M125.181 965.915l.593-.148.412-.237.17-.284.002-.036M142.522 963.3l19.938-3.008M140.149 962.592l.107.255.357.25.555.176.672.07.68-.043M162.46 960.292l.588-.148.406-.234.162-.282v-.028M179.678 957.694l19.798-2.984M177.3 956.983l.11.26.363.25.556.174.67.071.679-.044M199.474 954.708l.584-.148.398-.232.154-.28.003-.021" style="fill:none;stroke:#00ff4a;stroke-width:.999997;stroke-linecap:round;stroke-linejoin:round;stroke-miterlimit:4;stroke-dasharray:none;stroke-opacity:1;visibility:visible"/><path d="M289.949 938.396a.272.272 0 0 0-.235-.112M293.473 948.582l-.016.234-.034.208-.052.167-.07.125-.083.072-.058.022" style="fill:none;stroke:#00ff4a;stroke-width:1.99999;stroke-linecap:round;stroke-linejoin:round;stroke-miterlimit:4;stroke-dasharray:none;stroke-opacity:1;visibility:visible"/><path d="M275.157 870.954c.14.008.406-.005.543-.028" style="fill:none;stroke:#00ff4a;stroke-width:.666665;stroke-linecap:round;stroke-linejoin:round;stroke-miterlimit:4;stroke-dasharray:none;stroke-opacity:1;visibility:visible"/><path d="m142.522 963.3.812-217.327M216.571 952.128l2.612-216.02M179.678 957.694l1.719-216.672M253.203 946.602l3.492-215.372M105.1 968.947l-.107-217.986" style="fill:none;stroke:#00ff4a;stroke-width:.999997;stroke-linecap:round;stroke-linejoin:round;stroke-miterlimit:4;stroke-dasharray:none;stroke-opacity:1;visibility:visible"/><path d="m105.1 968.947-2.367-2.507M142.522 963.3l-2.365-2.494M125.18 965.917l1.18-3.033M179.678 957.694l-2.365-2.482M162.46 960.292l1.17-3.02M216.571 952.128l-2.365-2.474M199.476 954.71l1.16-3.012M253.203 946.602l-2.361-2.462M236.227 949.164l1.154-2.998M272.722 943.659l1.142-2.987M85.645 752.577l16.927-1.303" style="fill:none;stroke:#00ff4a;stroke-width:1.99999;stroke-linecap:round;stroke-linejoin:round;stroke-miterlimit:4;stroke-dasharray:none;stroke-opacity:1;visibility:visible"/><path d="m85.15 745.28-1.42 3.898" style="fill:none;stroke:#00ff4a;stroke-width:.666665;stroke-linecap:round;stroke-linejoin:round;stroke-miterlimit:4;stroke-dasharray:none;stroke-opacity:1;visibility:visible"/><path d="m294.285 714.782 3.082 3.991" style="fill:none;stroke:#00ff4a;stroke-width:.999997;stroke-linecap:round;stroke-linejoin:round;stroke-miterlimit:4;stroke-dasharray:none;stroke-opacity:1;visibility:visible"/><path d="m82.986 977.292 1.379-3.44" style="fill:none;stroke:#00ff4a;stroke-width:.666665;stroke-linecap:round;stroke-linejoin:round;stroke-miterlimit:4;stroke-dasharray:none;stroke-opacity:1;visibility:visible"/><path d="m85.645 752.577 19.348-1.616" style="fill:none;stroke:#00ff4a;stroke-width:.999997;stroke-linecap:round;stroke-linejoin:round;stroke-miterlimit:4;stroke-dasharray:none;stroke-opacity:1;visibility:visible"/><path d="m284.25 727.646-6.452.839M266.207 718.402 254.23 731.55" style="fill:none;stroke:#00ff4a;stroke-width:1.99999;stroke-linecap:round;stroke-linejoin:round;stroke-miterlimit:4;stroke-dasharray:none;stroke-opacity:1;visibility:visible"/><path d="m102.572 751.274-16.756-5.161M266.207 718.402l-9.512 12.828" style="fill:none;stroke:#00ff4a;stroke-width:.999997;stroke-linecap:round;stroke-linejoin:round;stroke-miterlimit:4;stroke-dasharray:none;stroke-opacity:1;visibility:visible"/></svg>