<svg xmlns="http://www.w3.org/2000/svg" baseProfile="full" height="1122.52" preserveAspectRatio="xMinYMin meet" style="width:765px;height:943px" width="793.701" xml:space="preserve"><path d="m277.642 334.68-3.87-130.773M297.548 338l-3.65-131.082M325.652 342.707l-3.317-131.52M345.814 346.08l-3.093-131.829M366.08 349.467l-2.85-132.146M444.23 362.546l-1.937-133.358M394.71 354.25l-2.523-132.584" style="fill:none;stroke:red;stroke-width:.999997;stroke-linecap:round;stroke-linejoin:round;stroke-miterlimit:4;stroke-dasharray:none;stroke-opacity:1;visibility:visible" visibility="hidden"/><path d="m512.069 377.385-.941-113.562" style="fill:none;stroke:red;stroke-width:1.99999;stroke-linecap:round;stroke-linejoin:round;stroke-miterlimit:4;stroke-dasharray:none;stroke-opacity:1;visibility:visible" visibility="hidden"/><path d="m505.35 382.546-1.025-114.11M504.101 241.766l-.075-7.764M501.069 379.32l.027 2.68M503.147 379.119l-.104-.172-.11-.147-.147-.133-.144-.107-.162-.094-.172-.067-.161-.041-.172-.012-.172.012-.15.056-.146.064-.13.094-.11.119-.093.135-.055.162-.04.156-.012.176M502 236.558l-.028-2.747M499.746 236.214l.016.187.041.184.063.19.093.158.12.162.136.146.162.117.156.095.177.068.172.04.17.012.178-.012.155-.054.148-.066.133-.107.121-.12.095-.15.067-.155.037-.178.013-.173M499.72 233.466l.144-.093M499.72 233.466l.027 2.748M502.12 233.707l-.145.104M60.403 170.386l-.12-2.61M58.403 170.08l.027.185.041.178.063.156.093.174.11.144.12.135.145.108.146.09.162.057.145.041.161.01.147-.01.145-.053.134-.067.106-.093.094-.123.077-.132.056-.16.028-.161v-.174M58.283 167.478l.12 2.603M65.054 305.961l.136 2.545M67.043 306.292l-.028-.172-.04-.176-.07-.159-.091-.158-.104-.15-.12-.132-.135-.106-.147-.095-.161-.063-.145-.042-.162-.015-.146.015-.146.042-.12.063-.12.095-.093.118-.068.132-.052.151-.025.161-.016.159M67.043 306.398v-.105M62.148 167.946l6.87 141.041M60.283 167.776l.156-.084M58.44 167.385l-.156.092M473.439 367.427l-.192-15.99M473.137 342.104l-.585-50.08M472.226 264.43l-.361-30.803M423.548 359.08l-2.172-133.028M513.454 380.08h.052M513.83 380.119l-.057-.039-.036-.016-.052-.012h-.058l-.052.012-.068.016M513.548 383.656l.052-.083.068-.096.041-.078.052-.104.04-.107.052-.133M508.08 386.653l.907.157" style="fill:none;stroke:red;stroke-width:.999997;stroke-linecap:round;stroke-linejoin:round;stroke-miterlimit:4;stroke-dasharray:none;stroke-opacity:1;visibility:visible" visibility="hidden"/><path d="m513.626 380.69.041.016.027-.016.041-.025.035-.055.033-.064.024-.052.012-.081.016-.068.011-.067-.01-.065v-.055l-.029-.04M513.428 380.666l.196.025M513.855 383.055l.01-.067.017-.094v-.146l-.027-.068-.016-.049-.025-.03-.027-.027h-.041l-.028.026-.035.042-.03.066M509.881 386.28l.052-.145.052-.16.057-.164.035-.17.044-.173.025-.17.027-.19.013-.176.012-.17.016-.162v-.6l-.016-.132-.025-.136-.01-.133-.029-.107-.04-.107-.025-.09-.052-.094-.044-.068-.065-.038-.055-.04M500.985 383.039v.256l.016.133v.146l.013.117v.63l-.013.078-.016.079-.028.082-.024.052-.036.067-.043.04-.052.043-.057.026-.064.012-.081.011-.079-.01-.093-.027-.08-.042M68.387 310.266v.12l.016.107v.521l-.016.093-.028.162-.008.066-.032.064-.025.068-.027.054-.036.054-.041.039-.052.03-.058.026-.062.01-.068.011h-.086l-.076-.01-.078-.026-.094-.028M513.652 382.707l-.052.104-.036.096-.057.093-.052.066-.052.066-.055.056-.057.039-.052.024-.051.015-.052.012-.057-.012-.052-.015-.052-.039-.052-.038-.042-.042-.041-.066-.027-.066-.025-.069-.027-.077-.025-.082-.016-.093-.01-.095-.017-.106v-.199l.016-.108v-.107l.027-.104.01-.12.026-.108.03-.105.038-.107.041-.106.042-.095.034-.107.044-.093.052-.08.052-.079.058-.081.052-.055.052-.064.052-.042.068-.039.052-.027h.109l.041.014.035.025M513.694 384.346l-.052.012h-.041l-.039-.037-.04-.042-.025-.066-.027-.079-.016-.083v-.172l.027-.08.024-.08.044-.064M515.027 377.88h.016v-.012h.025l.011-.013M508.282 389.173l-.041-.015-.042-.04-.037-.038-.025-.042-.032-.065-.012-.077M508.095 388.896l-.12-.616-.093-.601-.052-.599-.042-.615v-.585l.026-.601.041-.588.079-.572.109-.572" style="fill:none;stroke:red;stroke-width:.999997;stroke-linecap:round;stroke-linejoin:round;stroke-miterlimit:4;stroke-dasharray:none;stroke-opacity:1;visibility:visible" visibility="hidden"/><path d="m500.735 382.988-.24-.027h-.239l-.229.04-.213.064-.199.096-.187.118-.164.149-.144.17-.12.2-.093.215-.052.227-.041.225v.254l.014.242.051.252.096.254.104.238.133.228.162.211.172.19.2.173.213.16.213.118.24.108.24.068.227.04.241.012.24-.025.214-.056.213-.079.197-.106.178-.135.146-.16.13-.187.108-.2.08-.21.041-.242.027-.238-.011-.256-.041-.239-.068-.252-.094-.24-.12-.244-.148-.21-.172-.215-.185-.186-.204-.158-.223-.136-.229-.12-.224-.08-.24-.051M67.533 309.894l-.213-.028-.2.013-.196.028-.188.067-.174.09-.16.125-.145.145-.12.159-.093.186-.068.2-.052.215-.028.225.012.242.026.238.052.226.094.242.092.226.137.214.144.2.164.187.187.157.182.147.214.123.202.092.214.066.214.028.214.012.197-.028.199-.05.186-.08.16-.11.148-.118.135-.162.103-.17.096-.2.052-.202.041-.225v-.23l-.01-.238-.042-.237-.068-.227-.093-.243-.12-.212-.146-.214-.146-.188-.174-.17-.185-.164-.205-.13-.212-.107-.214-.081-.213-.039M508.043 383.546l.027-.107.036-.106.041-.083.052-.077.057-.079.027-.03.025-.026M61.106 307.655l2.579.44M65.387 308.386l1.76.295M69.017 308.989l410.234 69.158M496.215 381.004l3.161.53M501.267 381.855l2.041.345M505.35 382.546l2.959.492M509.855 383.055l-.041-.03-.027-.051-.015-.066v-.097l.015-.079.027-.09.025-.107.043-.093.041-.095.052-.081.052-.078.052-.053" style="fill:none;stroke:red;stroke-width:.999997;stroke-linecap:round;stroke-linejoin:round;stroke-miterlimit:4;stroke-dasharray:none;stroke-opacity:1;visibility:visible" visibility="hidden"/><path d="m502.683 385.56-.12-.013-.127-.043-.224-.077-.196-.094-.093-.054-.084-.066-.077-.069-.068-.079-.052-.076-.027-.057-.015-.052M510.12 387.094l-.052.025h-.052l-.057-.025-.052-.056-.028-.064-.04-.08-.011-.093-.015-.094v-.216l.026-.12.04-.092M510.215 384.357l2.839.48M513.506 380.08l-.028.013-.04-.029-.012-.04-.013-.061.013-.07v-.068l.028-.078.024-.08.044-.083.041-.08.036-.064.051-.043M72.174 307.213v.093l-.01.092-.026.107-.044.079-.05.07-.058.036 407.334 68.563M496.207 379.1l3.153.528M72.174 307.213l-.172-3.677M508.308 383.039l6.719-5.159M513.428 380.012l.265.039M513.412 380.666l.24.041M512.694 382.398l1.079.173M499.08 384.522l1.23.196M66.215 311.375l1.36.239M60.19 162.88l-.016.037.016.028.01.015.031-.015.038-.012.052-.04M499.564 228.28v.545l.01.151v.135l.017.129v.548l-.016.092-.027.081-.015.064-.037.071-.041.063-.052.044-.052.025-.084.024h-.078l-.096-.01-.092-.026-.093-.044M512.386 226.202l-.052-.03-.041-.027h-.104l-.052.013-.058.044-.054.04-.066.05-.052.066-.052.07-.052.077-.057.093-.055.093-.04.094-.036.109-.041.105-.044.107-.024.123-.028.106-.008.118-.016.108-.016.118-.01.107v.2l.01.107.016.094.016.092.025.095.027.079.041.068.024.064.039.068.041.038.052.056.042.028.05.026.052.01h.058l.052-.01.069-.026.052-.028.05-.056.053-.05.057-.083.052-.08.052-.104.044-.095M512.386 226.202l-.25-.03M498.735 228.227h.027v-.013M512.6 228.653l-.036.121-.057.107-.039.107-.057.076-.051.08-.067.082M512.402 228.28l.027-.065.041-.042.036-.029.027.013.041.016.016.042.025.053.011.065.016.068v.078l-.016.096-.028.078M512.59 225.627l.01.039.017.053v.148l-.016.068-.027.08-.025.065-.027.054-.041.053-.028.028-.04.012-.026-.025" style="fill:none;stroke:red;stroke-width:.999997;stroke-linecap:round;stroke-linejoin:round;stroke-miterlimit:4;stroke-dasharray:none;stroke-opacity:1;visibility:visible" visibility="hidden"/><path d="m512.267 225.56.052-.027h.068l.052.014.041.013.052.024.058.043M512.267 225.56l-.068-.013M512.402 224.839l-.041.056-.052.068-.044.061-.035.095-.03.083-.027.077v.08l-.011.068.01.064.017.043.041.026h.035M512.438 229.933l-.132-.015M507.642 229.064l.068-.132.063-.107.065-.094.057-.078.064-.078.084-.082M507.761 229.427l-.041.05-.039.058-.03.012h-.035l-.027-.027-.017-.042-.008-.038v-.132l.025-.081.027-.093.025-.07M61.23 163.267l.01.119v.257l.017.132v.439l-.016.094v.079l-.011.081-.03.079-.027.065-.026.07-.042.05-.036.055-.052.039-.058.028-.062.028-.068.013h-.094l-.093-.013-.095-.028-.093-.043M507.668 232.094l-.028-.04-.04-.067-.012-.068v-.228l.028-.065.01-.05.042-.055.027-.028.041-.015.036.015" style="fill:none;stroke:red;stroke-width:.999997;stroke-linecap:round;stroke-linejoin:round;stroke-miterlimit:4;stroke-dasharray:none;stroke-opacity:1;visibility:visible" visibility="hidden"/><path d="m508.069 232.173-.068.013h-.135l-.062-.026-.068-.028-.068-.039" style="fill:none;stroke:red;stroke-width:.999997;stroke-linecap:round;stroke-linejoin:round;stroke-miterlimit:4;stroke-dasharray:none;stroke-opacity:1;visibility:visible" visibility="hidden"/><path d="m508.173 232.917.041-.036.027-.081.025-.07.016-.09v-.094l-.016-.078-.01-.082-.026-.08-.03-.068-.038-.038-.041-.027h-.052M508.173 232.917l-1.344-.199M506.975 228.132 53.857 160.775M506.975 228.132l-.028.025-.024.03-.057.064-.036.081-.058.095-.026.094-.026.063-.01.056M506.761 234.134l-.12-.627-.093-.613-.052-.627-.042-.612v-.614l.015-.612.052-.602.079-.601.109-.585M60.564 166.8l.208.025.213-.013.204-.037.187-.083.188-.092.156-.133.136-.144.12-.178.104-.182.067-.215.053-.227.03-.225-.015-.243-.026-.241-.068-.236-.078-.243-.11-.225-.12-.227-.161-.201-.156-.187-.187-.157-.204-.147-.197-.122-.213-.092-.214-.056-.214-.038h-.214l-.213.026-.197.068-.172.078-.178.108-.145.147-.13.16-.11.188-.093.2-.055.21-.04.229-.01.24.026.241.036.237.068.239.093.243.12.225.147.199.161.202.172.176.187.156.204.122.213.106.214.08.213.039M499.334 232.333l.24.025.237-.012.231-.038.224-.082.204-.093.181-.133.178-.162.13-.169.12-.201.094-.227.068-.228.041-.253v-.255l-.028-.255-.057-.249-.076-.253-.104-.242-.136-.241-.162-.212-.189-.199-.196-.173-.213-.148-.224-.132-.246-.093-.238-.068-.24-.039h-.24l-.239.025-.224.054-.204.094-.197.119-.188.147-.146.161-.136.201-.104.211-.082.228-.052.239-.011.238.01.254.042.269.068.25.093.243.12.239.146.225.172.202.188.186.213.176.224.131.23.108.238.093.24.039M506.761 234.134l.027.081.025.078.027.053.041.04.024.03.052.013M511.803 230.386l-2.896-.424M508.813 232.468l-.161-.028" style="fill:none;stroke:red;stroke-width:.999997;stroke-linecap:round;stroke-linejoin:round;stroke-miterlimit:4;stroke-dasharray:none;stroke-opacity:1;visibility:visible" visibility="hidden"/><path d="m501.24 231.024-.12-.025-.12-.026-.23-.068-.18-.094-.097-.064-.081-.056-.079-.063-.066-.081-.055-.08-.024-.052-.016-.043M508.574 231.626l-.041.093-.011.107-.016.105v.123l.016.09.024.095.028.082.041.065.038.053.057.039.052.015.052-.026M508.548 228.307l.068.039.052.054.052.078.041.08.04.11.028.107.024.133.028.144.016.136.011.146.015.142v.311l-.015.157v.164l-.01.171-.033.173-.025.188-.027.17-.025.164-.052.17-.044.175-.052.157-.065.15M508.772 227.358l-.052.056-.052.077-.052.083-.041.093-.043.107-.025.093-.027.095-.012.09v.08l.012.082.027.053.041.04M508.043 228.494l.052-.053.04-.083.039-.077.025-.092.016-.095.016-.068.008-.08v-.052l-.008-.055-.032-.028-.025-.01-.039.01M512.293 229.227l-.036.07-.027.075-.03.08v.19l.013.078.028.068.024.067.044.053.041.038.052.016.035-.028M513.787 223.398l-6.812 4.735M60.403 164.787l-1.361-.201M498.735 228.227h0M498.855 230.158l-1.23-.185M512.522 228.144l-1.093-.157M512.412 226.227l-.307-.056M512.412 225.534l-.24-.028" style="fill:none;stroke:red;stroke-width:.999997;stroke-linecap:round;stroke-linejoin:round;stroke-miterlimit:4;stroke-dasharray:none;stroke-opacity:1;visibility:visible" visibility="hidden"/><path d="M499.813 233.358 65.471 168.44" style="fill:none;stroke:red;stroke-width:1.99999;stroke-linecap:round;stroke-linejoin:round;stroke-miterlimit:4;stroke-dasharray:none;stroke-opacity:1;visibility:visible" visibility="hidden"/><path d="m278.814 339.69-.068-.224-.036-.228-.027-.227.011-.226.04-.214.052-.2.096-.185.104-.175.133-.144.164-.121.156-.092.187-.07.204-.051.197-.014.214.027.212.037.2.071.213.105.188.12.187.144.172.176.152.186.129.198.11.216.078.224.052.227.041.227v.228l-.025.212-.043.216-.077.188-.096.185-.117.147-.147.134-.161.119-.19.083-.185.049-.2.027h-.212l-.203-.027-.213-.05-.21-.093-.202-.108-.187-.134-.172-.159-.161-.188-.147-.188-.104-.213-.109-.215" style="fill:none;stroke:red;stroke-width:.666665;stroke-linecap:round;stroke-linejoin:round;stroke-miterlimit:4;stroke-dasharray:none;stroke-opacity:1;visibility:visible" visibility="hidden"/><path d="m279.564 339.628-.041-.123v-.12l.01-.118.058-.094.06-.093.085-.056.104-.036h.11l.12.025.103.042.11.077.093.095.063.12.041.12.027.117-.011.121-.025.106-.058.094-.078.082-.104.037-.11.028-.104-.01-.12-.042-.109-.067-.093-.077-.079-.11-.052-.118M382.053 357.024l-.068-.224-.052-.228-.012-.239.012-.214.04-.226.07-.202.093-.187.105-.172.145-.144.162-.123.172-.092.188-.08.197-.04.213-.016.212.016.231.054.212.066.2.107.203.121.188.156.172.176.161.186.12.198.12.216.077.224.052.243.04.225v.227l-.024.215-.052.21-.085.202-.103.176-.121.157-.16.132-.161.121-.187.08-.199.054-.197.03h-.215l-.214-.03-.23-.054-.213-.094-.196-.118-.188-.134-.187-.159-.161-.185-.147-.203-.121-.201-.092-.227" style="fill:none;stroke:red;stroke-width:.666665;stroke-linecap:round;stroke-linejoin:round;stroke-miterlimit:4;stroke-dasharray:none;stroke-opacity:1;visibility:visible" visibility="hidden"/><path d="m382.84 356.973-.036-.12v-.123l.008-.118.055-.106.066-.08.095-.069.11-.023.118-.013.12.024.103.053.11.067.095.107.063.106.041.122.024.132-.008.12-.032.106-.063.092-.082.083-.094.04-.12.024-.12-.012-.104-.04-.12-.05-.093-.094-.079-.105-.057-.123M178.335 322.81l-.068-.227-.052-.226-.017-.214v-.226l.044-.211.052-.2.082-.173.104-.175.136-.147.146-.117.16-.095.184-.069.188-.05.202-.013.199.012.213.051.198.07.201.094.19.13.171.147.172.162.146.186.136.2.109.214.076.21.055.228.041.228v.211l-.016.228-.052.2-.068.188-.093.187-.12.149-.132.13-.16.107-.174.094-.185.05-.188.028h-.213l-.198-.028-.204-.05-.197-.094-.205-.106-.18-.131-.178-.164-.156-.172-.136-.2-.12-.203-.093-.213" style="fill:none;stroke:red;stroke-width:.666665;stroke-linecap:round;stroke-linejoin:round;stroke-miterlimit:4;stroke-dasharray:none;stroke-opacity:1;visibility:visible" visibility="hidden"/><path d="m179.027 322.747-.028-.117-.013-.123.03-.108.038-.104.066-.081.079-.07.11-.022.103-.015.11.027.104.053.109.064.079.095.068.12.052.106.013.135v.119l-.024.106-.068.092-.068.07-.093.05-.104.018-.11-.018-.12-.025-.104-.065-.093-.08-.068-.107-.068-.12M499.282 371.774l-3.34-.559M479.165 368.41 73.618 300.546" style="fill:none;stroke:red;stroke-width:.666665;stroke-linecap:round;stroke-linejoin:round;stroke-miterlimit:4;stroke-dasharray:none;stroke-opacity:1;visibility:visible" visibility="hidden"/><path d="m99.148 304.81-5.864-128M74.986 300.775l-6.12-127.616M118.121 307.987l-5.667-128.296M164.106 315.68l-5.145-129M137.19 311.173l-5.453-128.588M183.413 318.906l-4.932-129.305M257.855 331.357l-4.11-130.464M230.241 326.747l-4.413-130.038" style="fill:none;stroke:red;stroke-width:.999997;stroke-linecap:round;stroke-linejoin:round;stroke-miterlimit:4;stroke-dasharray:none;stroke-opacity:1;visibility:visible" visibility="hidden"/><path d="m71.413 171.492-.063-.213-.041-.212-.027-.199v-.215l.011-.2.057-.202.063-.186.083-.157.105-.16.117-.135.148-.106.162-.094" style="fill:none;stroke:red;stroke-width:.666665;stroke-linecap:round;stroke-linejoin:round;stroke-miterlimit:4;stroke-dasharray:none;stroke-opacity:1;visibility:visible" visibility="hidden"/><path d="m73.549 169.641.172.145.161.175.144.183.122.202.109.214.079.214.068.226.025.228.01.225-.027.215-.035.212-.068.185-.093.175-.12.161-.135.145-.147.107-.172.095-.186.053-.188.037h-.198l-.204-.028-.197-.052-.2-.077-.185-.107-.188-.134-.172-.16-.151-.172-.145-.19-.107-.212-.11-.214" style="fill:none;stroke:red;stroke-width:.666665;stroke-linecap:round;stroke-linejoin:round;stroke-miterlimit:4;stroke-dasharray:none;stroke-opacity:1;visibility:visible" visibility="hidden"/><path d="m72.08 171.385-.028-.119-.008-.121.008-.121.044-.107.067-.077.078-.066.11-.042h.104l.109.014.103.054.096.068.093.093.068.12.036.107.027.134v.119l-.038.108-.052.093-.068.076-.093.056-.11.012h-.103l-.11-.037-.104-.059-.093-.09-.079-.095-.057-.12M77.856 305.934l-.083-.215-.037-.229-.025-.225v-.214l.036-.197.057-.2.079-.187.093-.161.12-.147.145-.121.162-.092.172-.079.188-.042.186-.015.199.015.203.042.198.079.198.092.188.121.17.147.163.161.145.187.12.2.11.197.076.214.069.225.027.23.013.214-.013.21-.042.202-.062.188-.095.17-.121.162-.134.133-.145.107-.164.081-.185.063-.183.028h-.203l-.198-.028-.203-.063-.183-.081-.202-.107-.172-.133-.172-.161-.151-.171-.148-.188-.103-.203-.093-.209" style="fill:none;stroke:red;stroke-width:.666665;stroke-linecap:round;stroke-linejoin:round;stroke-miterlimit:4;stroke-dasharray:none;stroke-opacity:1;visibility:visible" visibility="hidden"/><path d="m78.507 305.867-.036-.12v-.119l.008-.108.044-.106.067-.08.078-.055.092-.04h.107l.11.012.103.057.094.064.093.094.068.118.041.107.027.12-.016.124-.025.107-.052.092-.068.068-.096.049-.092.015h-.12l-.104-.038-.094-.056-.093-.092-.079-.093-.057-.12M173.07 186.72l-.068-.216-.052-.212-.017-.212v-.213l.028-.214.041-.188.068-.188.093-.169.103-.145.137-.138.146-.118.16-.096" style="fill:none;stroke:red;stroke-width:.666665;stroke-linecap:round;stroke-linejoin:round;stroke-miterlimit:4;stroke-dasharray:none;stroke-opacity:1;visibility:visible" visibility="hidden"/><path d="m175.267 184.856.188.145.161.171.146.187.136.201.104.213.076.228.058.227.027.225.01.227-.026.213-.041.214-.079.2-.093.17-.12.178-.146.132-.148.106-.17.094-.203.065-.187.028h-.216l-.196-.028-.213-.052-.199-.081-.202-.108-.19-.143-.172-.145-.144-.188-.145-.19-.12-.21-.093-.215" style="fill:none;stroke:red;stroke-width:.666665;stroke-linecap:round;stroke-linejoin:round;stroke-miterlimit:4;stroke-dasharray:none;stroke-opacity:1;visibility:visible" visibility="hidden"/><path d="m173.772 186.613-.036-.12v-.12l.008-.121.044-.108.067-.092.094-.05.094-.041.12-.016.104.03.109.04.104.077.095.096.066.105.043.135.025.118-.017.122-.024.106-.052.107-.084.065-.093.054-.104.025-.104-.012-.126-.025-.104-.07-.093-.078-.079-.108-.057-.119" style="fill:none;stroke:red;stroke-width:.666665;stroke-linecap:round;stroke-linejoin:round;stroke-miterlimit:4;stroke-dasharray:none;stroke-opacity:1;visibility:visible" visibility="hidden"/><path d="m210.684 323.467-4.63-129.72" style="fill:none;stroke:red;stroke-width:.999997;stroke-linecap:round;stroke-linejoin:round;stroke-miterlimit:4;stroke-dasharray:none;stroke-opacity:1;visibility:visible" visibility="hidden"/><path d="m489.668 234.134-.068-.216-.036-.227-.033-.225.017-.215.027-.212.065-.213.08-.185.11-.174.12-.16.145-.133.16-.12.184-.092" style="fill:none;stroke:red;stroke-width:.666665;stroke-linecap:round;stroke-linejoin:round;stroke-miterlimit:4;stroke-dasharray:none;stroke-opacity:1;visibility:visible" visibility="hidden"/><path d="m492.137 232.214.183.16.177.173.156.2.135.216.108.208.08.243.068.227.025.24-.016.24-.025.225-.052.213-.094.215-.109.187-.13.16-.162.146-.172.118-.203.082-.198.068-.214.026h-.224l-.229-.026-.224-.057-.213-.093-.214-.118-.202-.133-.188-.16-.156-.188-.148-.201-.123-.227-.107-.224" style="fill:none;stroke:red;stroke-width:.666665;stroke-linecap:round;stroke-linejoin:round;stroke-miterlimit:4;stroke-dasharray:none;stroke-opacity:1;visibility:visible" visibility="hidden"/><path d="m490.506 234.042-.028-.124-.008-.132.025-.12.052-.105.079-.095.093-.067.11-.041h.12l.12.015.12.054.104.08.093.106.084.106.036.135.016.12v.135l-.044.118-.065.094-.079.077-.104.055-.125.013h-.122l-.117-.037-.12-.071-.096-.079-.076-.121-.068-.116M379.24 217.6l-.068-.216-.036-.225-.016-.227v-.215l.027-.212.052-.198.082-.188.095-.174.117-.16.148-.13.162-.107.172-.095" style="fill:none;stroke:red;stroke-width:.666665;stroke-linecap:round;stroke-linejoin:round;stroke-miterlimit:4;stroke-dasharray:none;stroke-opacity:1;visibility:visible" visibility="hidden"/><path d="m381.616 215.691.188.164.172.17.161.189.118.213.121.213.079.228.052.239.025.24v.225l-.025.23-.052.213-.079.2-.11.183-.129.161-.153.147-.172.121-.185.079-.2.068-.212.025H381l-.213-.025-.213-.056-.214-.091-.216-.107-.196-.146-.177-.159-.156-.172-.145-.201-.12-.215-.11-.227" style="fill:none;stroke:red;stroke-width:.666665;stroke-linecap:round;stroke-linejoin:round;stroke-miterlimit:4;stroke-dasharray:none;stroke-opacity:1;visibility:visible" visibility="hidden"/><path d="m380.043 217.507-.041-.135v-.12l.025-.118.043-.122.077-.08.084-.064.117-.042h.107l.117.013.122.056.108.081.096.088.061.124.043.12.025.132-.012.12-.03.119-.062.095-.083.081-.104.053-.11.011h-.119l-.12-.039-.104-.068-.11-.078-.078-.107-.052-.12M274.746 201.945l-.063-.21-.041-.214-.027-.225v-.214l.027-.2.052-.201.068-.188.104-.172.11-.16.13-.136.161-.107.162-.092" style="fill:none;stroke:red;stroke-width:.666665;stroke-linecap:round;stroke-linejoin:round;stroke-miterlimit:4;stroke-dasharray:none;stroke-opacity:1;visibility:visible" visibility="hidden"/><path d="m277.027 200.065.188.148.172.173.145.188.134.212.106.215.083.225.052.226.027.226.013.24-.024.215-.057.212-.079.201-.093.186-.132.161-.15.147-.156.106-.177.095-.197.053-.199.04h-.213l-.214-.028-.213-.054-.205-.092-.196-.107-.203-.136-.172-.157-.161-.187-.147-.201-.121-.2-.092-.227" style="fill:none;stroke:red;stroke-width:.666665;stroke-linecap:round;stroke-linejoin:round;stroke-miterlimit:4;stroke-dasharray:none;stroke-opacity:1;visibility:visible" visibility="hidden"/><path d="m275.496 201.855-.028-.135-.013-.117.025-.125.043-.106.066-.093.095-.064.104-.027.11-.016.12.03.103.038.11.08.088.094.068.121.041.12.027.119-.016.134-.027.107-.053.093-.076.08-.11.055-.104.024-.109-.016-.12-.035-.104-.056-.11-.094-.078-.104-.052-.107" style="fill:none;stroke:red;stroke-width:.666665;stroke-linecap:round;stroke-linejoin:round;stroke-miterlimit:4;stroke-dasharray:none;stroke-opacity:1;visibility:visible" visibility="hidden"/><path d="m260.07 331.732-4.068-130.492M279.882 335.055l-3.856-130.814M299.788 338.372l-3.615-131.104M327.923 343.08l-3.297-131.545M348.08 346.452l-3.052-131.853M425.855 359.467l-2.145-133.069M368.36 349.855l-2.828-132.189M512.105 377.32l-.01.037-.026.028-6.719 5.162M505.35 382.546l-.068.027-.083.026-.096.03h-.206l-.11-.018M501.095 382l-1.479-.252M503.293 379.69l-.01-.144-.026-.15-.057-.146-.052-.132M503.308 382.372l-.016-2.681M504.787 382.611l-1.479-.24M497.985 233.133v-.025l.016-.014M499.616 381.747l-.093-.027-.084-.029-.036-.036-.027-.043M501.293 380.535l1.855-1.416M501.095 382l.213-.17" style="fill:none;stroke:red;stroke-width:.999997;stroke-linecap:round;stroke-linejoin:round;stroke-miterlimit:4;stroke-dasharray:none;stroke-opacity:1;visibility:visible" visibility="hidden"/><path d="m510.949 237.268-.041-5.561M499.376 381.613l-1.027-109.274M498.103 245.918l-.117-12.785" style="fill:none;stroke:red;stroke-width:1.99999;stroke-linecap:round;stroke-linejoin:round;stroke-miterlimit:4;stroke-dasharray:none;stroke-opacity:1;visibility:visible" visibility="hidden"/><path d="m63.684 308.173.01.04.042.025.052.03.079.012M56.788 167.145l-.028.015v.028M63.866 308.28l1.323.227M67.163 308.838l1.317.215M67.163 308.838l-.12-2.44M68.48 309.052l.093.012h.199l.093-.025.084-.015.067-.036M67.043 306.398l-1.667 1.016M69.017 308.989l3.156-1.923M65.429 308.358l-.24.15" style="fill:none;stroke:red;stroke-width:.999997;stroke-linecap:round;stroke-linejoin:round;stroke-miterlimit:4;stroke-dasharray:none;stroke-opacity:1;visibility:visible" visibility="hidden"/><path d="m56.762 167.188 6.887 140.266" style="fill:none;stroke:red;stroke-width:1.99999;stroke-linecap:round;stroke-linejoin:round;stroke-miterlimit:4;stroke-dasharray:none;stroke-opacity:1;visibility:visible" visibility="hidden"/><path d="m475.772 367.825-.168-15.2M475.457 340.068l-.576-49.972M474.56 262.7l-.33-28.713M446.548 362.932l-1.896-133.385M397.001 354.641l-2.495-132.616M515.08 377.855l.027.013.014.026.016.04v.053l-.016.053-.014.082" style="fill:none;stroke:red;stroke-width:.999997;stroke-linecap:round;stroke-linejoin:round;stroke-miterlimit:4;stroke-dasharray:none;stroke-opacity:1;visibility:visible" visibility="hidden"/><path d="m515.105 378.121-.104.557-.068.572-.052.59-.025.601v.583l.041.604.052.612.093.598.12.602M515.162 383.44l.01.123v.105l-.01.095-.016.077-.025.077-.027.028-.025.03M61.31 313.466l-.028-.013-.024-.026-.016-.028v-.172" style="fill:none;stroke:red;stroke-width:1.99999;stroke-linecap:round;stroke-linejoin:round;stroke-miterlimit:4;stroke-dasharray:none;stroke-opacity:1;visibility:visible" visibility="hidden"/><path d="m508.36 389.144-.01.015h-.018l-.013.014h-.039" style="fill:none;stroke:red;stroke-width:.999997;stroke-linecap:round;stroke-linejoin:round;stroke-miterlimit:4;stroke-dasharray:none;stroke-opacity:1;visibility:visible" visibility="hidden"/><path d="m61.002 308.157-.028-.105v-.107l.012-.09.032-.08.036-.07.016-.025.036-.026M61.002 308.157l.12.575.11.576.075.572.055.572.025.561v.57l-.025.549-.043.549-.077.545" style="fill:none;stroke:red;stroke-width:1.99999;stroke-linecap:round;stroke-linejoin:round;stroke-miterlimit:4;stroke-dasharray:none;stroke-opacity:1;visibility:visible" visibility="hidden"/><path d="M72.137 301.802h.01l.017-.015h.008v-.013h.017l.01-.013M72.497 301.584l.036-.024.032-.013h.12" style="fill:none;stroke:red;stroke-width:.999997;stroke-linecap:round;stroke-linejoin:round;stroke-miterlimit:4;stroke-dasharray:none;stroke-opacity:1;visibility:visible" visibility="hidden"/><path d="M71.95 302.31v-.121l.01-.108.058-.107.052-.093.068-.079M72.002 303.535l-.052-1.225" style="fill:none;stroke:red;stroke-width:.999997;stroke-linecap:round;stroke-linejoin:round;stroke-miterlimit:4;stroke-dasharray:none;stroke-opacity:1;visibility:visible" visibility="hidden"/><path d="m515.069 383.975-6.708 5.17M61.106 307.655l2.47-1.496M512.095 377.357l2.984.497M61.31 313.466l417.595 70.728M496.548 387.185l11.735 1.988" style="fill:none;stroke:red;stroke-width:1.99999;stroke-linecap:round;stroke-linejoin:round;stroke-miterlimit:4;stroke-dasharray:none;stroke-opacity:1;visibility:visible" visibility="hidden"/><path d="m72.684 301.546 406.563 68.085M496.054 372.445l3.239.544" style="fill:none;stroke:red;stroke-width:.666665;stroke-linecap:round;stroke-linejoin:round;stroke-miterlimit:4;stroke-dasharray:none;stroke-opacity:1;visibility:visible" visibility="hidden"/><path d="m72.497 301.584-.297.176" style="fill:none;stroke:red;stroke-width:.999997;stroke-linecap:round;stroke-linejoin:round;stroke-miterlimit:4;stroke-dasharray:none;stroke-opacity:1;visibility:visible" visibility="hidden"/><path d="m513.84 229.666.027-.025.03-.028.026-.079.026-.083v-.2l-.016-.062v-.056" style="fill:none;stroke:red;stroke-width:1.99999;stroke-linecap:round;stroke-linejoin:round;stroke-miterlimit:4;stroke-dasharray:none;stroke-opacity:1;visibility:visible" visibility="hidden"/><path d="m513.881 223.655-.11.584-.08.587-.051.614-.014.603v.61l.042.626.052.615.093.613.12.627" style="fill:none;stroke:red;stroke-width:1.99999;stroke-linecap:round;stroke-linejoin:round;stroke-miterlimit:4;stroke-dasharray:none;stroke-opacity:1;visibility:visible" visibility="hidden"/><path d="m513.881 223.655.016-.079.01-.07v-.052l-.01-.04-.016-.028-.028-.01" style="fill:none;stroke:red;stroke-width:.999997;stroke-linecap:round;stroke-linejoin:round;stroke-miterlimit:4;stroke-dasharray:none;stroke-opacity:1;visibility:visible" visibility="hidden"/><path d="M61.736 156.494h-.052l-.016.013h-.025M53.856 160.775l-.028.012-.024.024-.041.07-.027.082-.017.09v.106l.017.055.01.052M53.747 161.266l.12.59.11.587.075.582.055.588.03.589.011.573-.026.572-.052.572-.07.548" style="fill:none;stroke:red;stroke-width:1.99999;stroke-linecap:round;stroke-linejoin:round;stroke-miterlimit:4;stroke-dasharray:none;stroke-opacity:1;visibility:visible" visibility="hidden"/><path d="M506.96 234.428h.057l.011-.012" style="fill:none;stroke:red;stroke-width:.999997;stroke-linecap:round;stroke-linejoin:round;stroke-miterlimit:4;stroke-dasharray:none;stroke-opacity:1;visibility:visible" visibility="hidden"/><path d="M54.002 166.467v.187l.016.038.025.027.038.013" style="fill:none;stroke:red;stroke-width:1.99999;stroke-linecap:round;stroke-linejoin:round;stroke-miterlimit:4;stroke-dasharray:none;stroke-opacity:1;visibility:visible" visibility="hidden"/><path d="m65.898 172.585.052.056.068.04.063.028.057.023.063.026.082.018M65.47 168.44l.172 3.56M65.898 172.585l-.083-.107-.068-.104-.052-.122-.042-.134-.01-.117" style="fill:none;stroke:red;stroke-width:.999997;stroke-linecap:round;stroke-linejoin:round;stroke-miterlimit:4;stroke-dasharray:none;stroke-opacity:1;visibility:visible" visibility="hidden"/><path d="m61.642 156.507-7.787 4.268M507.027 234.416l6.81-4.75M513.855 223.375 61.737 156.493M506.96 234.428l-7.145-1.07M65.47 168.44l-11.39-1.708M498.027 237.547 66.283 172.775" style="fill:none;stroke:red;stroke-width:1.99999;stroke-linecap:round;stroke-linejoin:round;stroke-miterlimit:4;stroke-dasharray:none;stroke-opacity:1;visibility:visible" visibility="hidden"/><path d="M73.653 300.546h-.036l-1.068.655M72.549 301.201l-.052.037-.068.07-.052.09-.041.095-.042.12-.037.107M101.283 305.159l-5.844-128.014M139.35 311.535l-5.427-128.617M120.267 308.346l-5.64-128.321M166.293 316.039l-5.132-129.038M232.439 327.107l-4.385-130.068M212.882 323.84l-4.599-129.76M185.6 319.278l-4.917-129.345M502 236.558l2.101 5.208M502 236.558l2.026-2.556M60.403 170.386l1.745-2.44M475.604 352.625l-2.165 14.802M473.137 342.104l.11 9.334M473.247 351.438l-.11-9.334M508.283 389.173l-.203-2.52M510.215 384.357l-1.228 2.453M496.207 379.1l-16.956-.953M499.36 379.628l-3.145 1.376M503.308 382.371l-.625 3.189M508.095 388.896l-6.495-4.016M508.309 383.038l1.906 1.319M496.207 379.1l-16.887-2.847M499.376 381.533l-3.169-2.433M499.616 381.748l-.256-2.12M513.652 380.707l-.958 1.691M500.735 382.988l-1.655 1.534M67.533 309.894l-1.318 1.481M506.96 234.428l-.131-1.71M499.813 233.358l-.479-1.025M499.815 233.359l-.481-1.026M508.813 232.468l.094-2.506M499.815 233.359l1.425-2.335M489.668 234.134l10.504-3.762M60.564 166.8l-1.522-2.214M499.334 232.333l-1.708-2.36M512.412 226.227l-.983 1.76" style="fill:none;stroke:red;stroke-width:.999997;stroke-linecap:round;stroke-linejoin:round;stroke-miterlimit:4;stroke-dasharray:none;stroke-opacity:1;visibility:visible" visibility="hidden"/><path d="m496.054 372.445 3.228-.671M499.293 372.989l-3.351-1.774M495.942 371.215l-16.777-2.805" style="fill:none;stroke:red;stroke-width:.666665;stroke-linecap:round;stroke-linejoin:round;stroke-miterlimit:4;stroke-dasharray:none;stroke-opacity:1;visibility:visible" visibility="hidden"/><path d="m71.95 302.31 3.036-1.535M65.642 172l3.224 1.16" style="fill:none;stroke:red;stroke-width:.999997;stroke-linecap:round;stroke-linejoin:round;stroke-miterlimit:4;stroke-dasharray:none;stroke-opacity:1;visibility:visible" visibility="hidden"/><path d="m60.283 167.776 11.745 1.637M508.548 228.307l-16.411 3.907" style="fill:none;stroke:red;stroke-width:.666665;stroke-linecap:round;stroke-linejoin:round;stroke-miterlimit:4;stroke-dasharray:none;stroke-opacity:1;visibility:visible" visibility="hidden"/><path d="m501.308 381.83-.015-1.295" style="fill:none;stroke:red;stroke-width:.999997;stroke-linecap:round;stroke-linejoin:round;stroke-miterlimit:4;stroke-dasharray:none;stroke-opacity:1;visibility:visible" visibility="hidden"/><path d="m504.026 234.002 6.923 3.266M502 236.558l8.908-4.851M499.746 236.214l-1.643 9.704" style="fill:none;stroke:red;stroke-width:1.99999;stroke-linecap:round;stroke-linejoin:round;stroke-miterlimit:4;stroke-dasharray:none;stroke-opacity:1;visibility:visible" visibility="hidden"/><path d="m473.247 351.438 2.525 16.387M473.137 342.104l2.467 10.521M473.247 351.438l2.21-11.37" style="fill:none;stroke:red;stroke-width:.999997;stroke-linecap:round;stroke-linejoin:round;stroke-miterlimit:4;stroke-dasharray:none;stroke-opacity:1;visibility:visible" visibility="hidden"/><path d="m65.376 307.414-1.8-1.255M496.215 381.004l-17.31 3.19M500.31 384.718l-3.762 2.467" style="fill:none;stroke:red;stroke-width:1.99999;stroke-linecap:round;stroke-linejoin:round;stroke-miterlimit:4;stroke-dasharray:none;stroke-opacity:1;visibility:visible" visibility="hidden"/><path d="m495.942 371.215-16.695-1.584M499.282 371.774l-3.228.671M495.942 371.215l3.35 1.774" style="fill:none;stroke:red;stroke-width:.666665;stroke-linecap:round;stroke-linejoin:round;stroke-miterlimit:4;stroke-dasharray:none;stroke-opacity:1;visibility:visible" visibility="hidden"/><path d="m499.815 233.359-1.788 4.188" style="fill:none;stroke:red;stroke-width:1.99999;stroke-linecap:round;stroke-linejoin:round;stroke-miterlimit:4;stroke-dasharray:none;stroke-opacity:1;visibility:visible" visibility="hidden"/><path d="m467.985 289.56.068-.508.052-.519.03-.494.027-.504.011-.468v-.468l-.01-.479-.027-.477-.031-.524-.052-.518-.068-.601-.08-.587M467.907 283.414l-.028-.147-.065-.122-.068-.104-.094-.08-.106-.067-.066-.027-.068-.013M454.855 280.882l12.557 1.972M460.08 285.334v-.145l.027-.136.056-.135.068-.117.078-.092.094-.098.104-.064.12-.053.12-.041.136-.012.117.012.137.016.12.053.12.053.119.079.105.077.094.095.078.107.083.106.052.12.041.12.038.12.013.135.017.12-.017.12-.013.121-.027.107-.052.093-.052.095-.068.09-.077.066-.095.07-.11.037-.103.04-.12.012h-.12l-.135-.012-.12-.026-.12-.05-.121-.071-.118-.095-.12-.092-.109-.118-.079-.132-.068-.135-.052-.147-.025-.149-.016-.144M469.72 289.095l-.052.184-.068.161-.104.16-.137.12-.128.107M469.652 282.785l.136.643.093.637.076.643.058.65.028.63-.016.64-.026.624-.068.628-.093.613-.12.601M468.319 281.477l.203.056.198.067.186.106.173.134.16.161.148.17.11.2.093.202.062.212M455.761 279.52l12.557 1.957M454.626 280h0M454.866 279.749l.15-.107.173-.081.188-.04.185-.016.2.016M468.319 281.477l.03-.012h.011M455.761 279.52l.027-.015h.014M484.387 420.853l.041 2.73M486.496 420.6l-.11-.172-.13-.148-.161-.136-.162-.12-.172-.079-.186-.052-.188-.025h-.172l-.172.037-.162.07-.145.089-.12.123-.093.148-.068.16-.052.172-.016.186M487.24 276.787l1.547 147.385M545.985 389.467l-.063.037-.057.043-.063.027-.057.01h-.121l-.035-.01-.057-.027-.036-.043-.042-.052-.042-.054-.036-.066-.028-.065-.03-.093-.028-.094-.008-.106-.026-.094-.018-.12-.008-.106v-.119l-.016-.136v-.519l.016-.133v-.148l.008-.144.028-.147.016-.134.026-.15.01-.13.058-.252.052-.228.078-.214.083-.201.079-.188.104-.144.093-.133.11-.095.103-.065.12-.042h.12l.11.026.12.056.093.078.093.107.095.148.036.081.04.09.028.094.024.11.028.118.03.106.011.12.016.118v.39l-.016.133-.012.132-.029.135-.01.13-.042.152-.028.143-.05.145-.042.15-.052.146-.052.132-.057.135-.063.121-.057.132-.063.107-.083.123-.068.106-.062.094-.068.077-.067.079-.068.068-.068.053M542.147 392.477l-.068.057-.063.026-.057.024-.061.016-.058.012-.054-.012-.052-.016-.04-.024-.052-.039-.042-.044-.026-.05-.042-.07-.025-.077-.027-.08-.028-.094-.024-.106-.016-.107-.012-.108-.013-.117-.01-.122v-.12l-.017-.132v-.256l.016-.132v-.146l.011-.148.013-.135.012-.143.016-.148.024-.146.028-.135.052-.237.058-.228.062-.227.082-.201.096-.187.093-.147.104-.132.11-.094.103-.064.12-.043h.12l.11.027.12.054.093.08.093.106.09.148.041.078.04.094.028.092.024.108.028.118.027.107.014.12.011.121v.388l-.01.135-.015.13-.027.134-.01.137-.042.144-.028.144-.05.163-.042.145-.052.132-.057.135-.052.135-.068.136-.063.118-.067.119-.068.107-.068.106-.068.094-.062.08-.083.077-.068.07-.052.05M470.506 441.44l79.057-61.827" style="fill:none;stroke:#00ff4a;stroke-width:.999997;stroke-linecap:round;stroke-linejoin:round;stroke-miterlimit:4;stroke-dasharray:none;stroke-opacity:1;visibility:visible"/><path d="M545.412 389.374h0-.01v.01M541.574 392.388h0l-.01.01M548.83 224.775l-80.24 56.745M541.293 237.227l-.063.039-.069.044-.057.01-.06.015h-.058l-.054-.015-.052-.01-.052-.044-.04-.039-.042-.055-.036-.061-.026-.07-.042-.08-.026-.091-.026-.111-.016-.105-.028-.107-.013-.119-.01-.12-.017-.12v-.665l.016-.15v-.145l.011-.146.03-.147.011-.135.024-.146.018-.148.052-.239.068-.224.068-.216.076-.199.096-.186.093-.146.104-.124.11-.089.12-.057.103-.024h.12l.12.038.11.055.104.095.092.12.096.142.041.096.041.094.035.106.028.119.027.108.014.117.016.136.011.119v.13l.015.122-.015.133-.01.136-.017.146-.014.132-.027.149-.028.135-.035.156-.041.145-.052.15-.057.145-.052.132-.052.137-.068.12-.068.132-.07.107-.061.122-.067.094-.078.09-.07.08-.065.08-.068.052-.068.055M545.188 234.453l-.052.04-.068.043-.07.01-.05.014h-.052l-.07-.014-.04-.01-.051-.043-.042-.04-.041-.056-.037-.061-.042-.07-.025-.078-.027-.096-.028-.09-.024-.122-.016-.107-.014-.107-.011-.118-.016-.134v-.118l-.01-.136v-.135l.01-.13v-.283l.016-.144.01-.147.015-.147.027-.149.013-.145.028-.131.052-.257.052-.214.084-.225.078-.199.078-.174.11-.144.104-.12.109-.095.104-.055.12-.025h.12l.11.025.12.068.103.094.094.118.084.146.036.094.041.095.04.107.028.106.027.119.014.123.027.117v.132l.01.121v.132l-.01.138v.132l-.016.132-.025.146-.027.135-.028.148-.04.143-.041.164-.052.144-.052.132-.052.146-.058.123-.062.133-.058.119-.062.119-.083.11-.068.09-.063.096-.068.092-.082.066-.063.07-.068.037" style="fill:none;stroke:#00ff4a;stroke-width:.999997;stroke-linecap:round;stroke-linejoin:round;stroke-miterlimit:4;stroke-dasharray:none;stroke-opacity:1;visibility:visible"/><path d="m549.59 232.455-4.948 3.521" style="fill:none;stroke:#00ff4a;stroke-width:1.99999;stroke-linecap:round;stroke-linejoin:round;stroke-miterlimit:4;stroke-dasharray:none;stroke-opacity:1;visibility:visible"/><path d="m563.12 349.052.027-.052v-.039M549.563 379.613l.36-.293.359-.332.344-.347.357-.376.35-.41.35-.427.344-.467.348-.484.333-.503.334-.534.333-.56.319-.586.322-.602.3-.611.31-.653.297-.654.276-.68.28-.708.28-.706.257-.734.25-.733.256-.759.224-.774.229-.774.213-.798.198-.787.204-.816.169-.813.173-.812.16-.827.148-.827.135-.841.12-.825.104-.828.095-.824.077-.827.068-.83.057-.822.052-.816.027-.803.008-.797v-.787" style="fill:none;stroke:#00ff4a;stroke-width:.999997;stroke-linecap:round;stroke-linejoin:round;stroke-miterlimit:4;stroke-dasharray:none;stroke-opacity:1;visibility:visible"/><path d="M563.147 348.961v.04l-.028.05M558.985 351.227l-.396-104.026M553.548 223.385l-.375-.037-.385-.014-.385.014-.386.037-.39.083-.396.093-.402.13-.401.165-.403.182-.398.212-.396.256-.402.268M558.59 247.2l-.016-.803-.012-.784-.04-.774-.052-.774-.07-.744-.08-.736-.08-.718-.103-.695-.12-.695-.122-.652-.149-.652-.156-.613-.161-.599-.172-.589-.203-.561-.199-.518-.213-.508-.213-.478-.24-.454-.239-.425-.256-.403-.265-.372-.282-.345-.281-.307-.276-.294-.307-.254-.308-.214-.306-.2-.319-.159-.333-.13-.334-.095-.333-.071" style="fill:none;stroke:#00ff4a;stroke-width:.999997;stroke-linecap:round;stroke-linejoin:round;stroke-miterlimit:4;stroke-dasharray:none;stroke-opacity:1;visibility:visible"/><path d="m552.35 231.584-.213-.024h-.23l-.224.016-.246.036-.238.056-.25.063-.255.094-.265.12-.282.148-.281.174-.276.186" style="fill:none;stroke:#00ff4a;stroke-width:1.99999;stroke-linecap:round;stroke-linejoin:round;stroke-miterlimit:4;stroke-dasharray:none;stroke-opacity:1;visibility:visible"/><path d="m469.923 443.385-.028-.145-.065-.122-.068-.105-.094-.081-.106-.066-.055-.028-.068-.013-12.385-2.184M470.001 449.357l.068-.49.036-.51.04-.464.017-.48.011-.452v-.47l-.01-.451-.018-.467-.04-.521-.036-.506-.068-.584-.08-.577M464.105 445.427v.133l-.028.131-.052.12-.052.121-.076.092-.096.082-.11.065-.117.041-.106.028-.118.011-.136-.01-.12-.029-.134-.041-.12-.05-.12-.08-.104-.08-.094-.093-.084-.094-.062-.12-.07-.108-.04-.119-.036-.119-.032-.118v-.244l.032-.108.036-.107.04-.09.052-.095.08-.08.084-.079.094-.053.093-.055.12-.028.12-.01h.12l.12.01.117.043.122.052.12.068.12.093.104.104.093.107.084.136.068.134.052.144.025.146.011.149M457.001 439.467l.136-.093.145-.079.156-.056.162-.025h.172l.177.013M471.71 448.838l-.041.163-.068.142-.094.154-.104.1-.12.108" style="fill:none;stroke:#00ff4a;stroke-width:.999997;stroke-linecap:round;stroke-linejoin:round;stroke-miterlimit:4;stroke-dasharray:none;stroke-opacity:1;visibility:visible"/><path d="M470.949 449.654h0" style="fill:none;stroke:#00ff4a;stroke-width:1.99999;stroke-linecap:round;stroke-linejoin:round;stroke-miterlimit:4;stroke-dasharray:none;stroke-opacity:1;visibility:visible"/><path d="m471.642 442.707.12.639.104.629.081.624.039.613.03.628v.612l-.04.614-.069.601-.077.584-.12.587M470.319 441.427l.203.04.198.079.186.108.173.132.16.158.137.178.104.185.092.2.07.2M457.949 439.226l12.368 2.2M471.71 448.838l.01-.013.017-.015M464.095 445.598h0" style="fill:none;stroke:#00ff4a;stroke-width:.999997;stroke-linecap:round;stroke-linejoin:round;stroke-miterlimit:4;stroke-dasharray:none;stroke-opacity:1;visibility:visible"/><path d="m468.642 290.187-.12.064-.135.057-.13.038-.138.026-.144.014-.137-.014-.092-.014M453.855 280.907l.052-.16.068-.147.076-.133.085-.11.094-.09.089-.093M453.949 287.295l-.137-.455-.103-.442-.083-.452-.062-.452-.058-.454-.036-.465-.016-.456v-.464l.024-.455.044-.468.052-.465.076-.455.096-.453.11-.452M455.189 288.386l12.557 1.972M455.189 288.386l-.145-.028-.147-.05-.15-.069-.131-.078-.135-.08-.12-.107-.079-.095-.025-.024-.016-.017-.01-.012v-.016l-.042-.035-.093-.149-.068-.105-.042-.123-.037-.104M468.642 290.187l.587-.361M454.319 280.173l.547-.424" style="fill:none;stroke:#00ff4a;stroke-width:1.99999;stroke-linecap:round;stroke-linejoin:round;stroke-miterlimit:4;stroke-dasharray:none;stroke-opacity:1;visibility:visible"/><path d="m493.907 420.158.041-.025v-.039M482.668 423.188l.016.039.052.04.076.028.096.025 1.52.264M486.668 421.25l-.016-.17-.025-.163-.052-.158-.079-.16M486.694 423.986l1.521.264M486.694 423.986l-.028-2.736M488.215 424.25h.104l.11.015.103-.015.108-.024.08-.027.068-.029M486.496 420.6l-1.87 1.452M488.787 424.171l5.12-4.013" style="fill:none;stroke:#00ff4a;stroke-width:.999997;stroke-linecap:round;stroke-linejoin:round;stroke-miterlimit:4;stroke-dasharray:none;stroke-opacity:1;visibility:visible"/><path d="m492.496 273.052 1.453 147.041M481.105 281.144l1.563 142.044M471.72 448.867l78.638-61.812M457.652 439.201l24.972-19.403M493.866 411.08l42.907-33.305M535.897 223.134l-80.281 56.357M544.642 235.975l-74.958 53.304M563.147 348.961v.707l-.01.73-.018.72-.024.738-.041.728-.038.749-.057.747-.052.745-.067.748-.078.761-.079.746-.093.76-.094.744-.109.736-.104.732-.12.736-.12.745-.136.732-.145.736-.146.717-.146.734-.162.721-.172.72-.177.719-.187.708-.182.693-.19.705-.201.68-.197.696-.216.679-.212.667-.224.666-.231.655-.237.652-.24.639-.242.628-.253.628-.25.609-.255.604-.266.587-.281.572-.265.57-.282.56-.281.547-.292.548-.292.523-.296.504-.292.508-.31.477-.305.468-.306.453-.308.44-.344.454-.334.44-.348.428-.344.4-.349.385-.344.376-.364.36-.36.33-.359.31-.36.293M536.772 377.774l.245-.2.25-.216.24-.24.254-.239.256-.268.25-.277.254-.31.251-.306.253-.333.258-.347.24-.359.249-.357.245-.39.239-.386.24-.413.24-.426.237-.428.226-.454.229-.451.224-.481.23-.48.213-.48.212-.52.225-.518.204-.549.213-.547.198-.56.204-.56.181-.573.188-.585.188-.59.17-.597.178-.603.155-.613.164-.627.145-.624.145-.628.152-.64.13-.636.12-.656.12-.641.109-.653.104-.639.092-.656.096-.653.077-.652.084-.652.068-.655.052-.655.052-.64.042-.652.036-.638.032-.642.01-.629.015-.623v-.76M563.147 348.961l-.361-103.897M546.256 348.867l-.523-103.854M535.897 223.134l.37-.253.36-.228.374-.2.375-.203.384-.155.377-.15.385-.134.386-.104.385-.08.39-.054.386-.039.37-.013.39.013.264.025.268.024 12.187 1.802M553.548 223.385l.333.056.334.08.333.09.317.12.322.125.309.157.305.16.294.184.292.204.281.213.281.227.282.239.289.294.293.32.282.334.281.346.264.359.257.385.25.402.24.413.229.428.224.455.23.45.197.468.201.479.184.508.177.504.172.521.172.548.162.547.145.559.147.574.134.598.12.602.12.598.104.626.11.655.092.667.096.68.077.681.068.69.052.725.052.702.057.734.027.736.025.733.011.747.016.756M545.735 245.013l-.016-.639-.012-.625-.024-.615-.03-.612-.038-.604-.052-.598-.057-.588-.068-.571-.064-.561-.082-.559-.093-.536-.095-.516-.104-.495-.104-.492-.109-.481-.12-.47-.025-.075" style="fill:none;stroke:#00ff4a;stroke-width:1.99999;stroke-linecap:round;stroke-linejoin:round;stroke-miterlimit:4;stroke-dasharray:none;stroke-opacity:1;visibility:visible"/><path d="M457.137 439.679h0" style="fill:none;stroke:#00ff4a;stroke-width:.999997;stroke-linecap:round;stroke-linejoin:round;stroke-miterlimit:4;stroke-dasharray:none;stroke-opacity:1;visibility:visible"/><path d="m456.069 440.6.052-.148.068-.145.076-.135.053-.077.084-.082.079-.08M456.147 446.81l-.12-.425-.093-.424-.094-.442-.068-.454-.052-.438-.026-.441-.026-.455.015-.453.01-.44.04-.453.053-.452.08-.442.093-.453.108-.439M457.36 447.893l-.145-.025-.147-.058-.135-.064-.13-.078-.138-.095-.117-.107-.044-.04-.008-.013-.016-.016-.01-.012-.042-.065-.068-.082-.068-.106-.077-.144-.068-.178M469.735 450.106l-12.375-2.213M470.694 449.906l-.104.07-.12.049-.137.056-.118.025-.146.016h-.231l-.103-.016M456.48 439.933l.521-.467M470.71 449.906l.573-.401" style="fill:none;stroke:#00ff4a;stroke-width:1.99999;stroke-linecap:round;stroke-linejoin:round;stroke-miterlimit:4;stroke-dasharray:none;stroke-opacity:1;visibility:visible"/><path d="m480.705 400.623 1.063-.805" style="fill:none;stroke:#00ff4a;stroke-width:.666665;stroke-linecap:round;stroke-linejoin:round;stroke-miterlimit:4;stroke-dasharray:none;stroke-opacity:1;visibility:visible"/><path d="m588.588 241.109-.083.211-.078.229-.068.239-.042.256-.036.25-.026.254-.016.252v.242l.016.226" style="fill:none;stroke:#00ff4a;stroke-width:.999997;stroke-linecap:round;stroke-linejoin:round;stroke-miterlimit:4;stroke-dasharray:none;stroke-opacity:1;visibility:visible"/><path d="m584.265 242.63.068.014M583.864 242.669l-.036-.055-.044-.077-.024-.083-.028-.094-.024-.092-.028-.108-.013-.106v-.117l-.017-.124.017-.12v-.119l.013-.12.011-.132.029-.118.012-.12.038-.106.03-.094.028-.107.036-.083.041-.092.042-.066.037-.066.041-.053.052-.057M577.999 241.909l-.052-.016-.068-.037-.042-.043-.052-.05-.041-.055-.037-.079-.027-.081-.03-.095-.026-.093-.01-.107-.018-.108-.011-.12v-.356l.012-.121.016-.132.024-.12.028-.108.027-.122.025-.102.043-.095.04-.092.037-.097.043-.067.039-.064.051-.056.045-.039.035-.04.04-.014.054-.014h.043M579.53 242.136l-.061-.014-.059-.04-.051-.038-.042-.055-.036-.052-.041-.08-.027-.083-.026-.093-.027-.095-.025-.106-.018-.106v-.121l-.013-.107.013-.132v-.118l.018-.12.01-.133.025-.119.017-.108.04-.12.028-.094.035-.106.027-.094.058-.082.035-.08.04-.062.045-.057.052-.041.04-.036.038-.016.042-.014h.04M581.052 242.36l-.052-.012-.052-.024-.052-.056-.041-.051-.045-.057-.04-.066-.025-.09-.037-.084-.018-.107-.023-.104-.017-.107v-.122l-.011-.106v-.121l.011-.133.017-.118.016-.118.007-.12.029-.122.026-.106.042-.107.023-.107.045-.092.04-.084.054-.078.035-.066.04-.054.055-.04.04-.038.043-.013.034-.017h.044M582.588 242.588l-.058-.012-.051-.027-.052-.041-.042-.052-.037-.067-.041-.065-.042-.08-.025-.097-.027-.102-.016-.107-.01-.11-.015-.118v-.23l.015-.131.01-.12.016-.119.014-.12.028-.118.025-.107.037-.107.03-.11.039-.09.041-.081.04-.08.053-.068.04-.053.039-.04.051-.04.04-.012.042-.016h.04M583.864 242.669l.016.013v.012h.013v.014l.012.014h.016" style="fill:none;stroke:#00ff4a;stroke-width:.666665;stroke-linecap:round;stroke-linejoin:round;stroke-miterlimit:4;stroke-dasharray:none;stroke-opacity:1;visibility:visible"/><path d="m583.853 240.709.01-.025.017-.027.015-.027.01-.028.016-.025M583.708 242.253l-.016-.036v-.028l-.012-.029v-.038l-.013-.028" style="fill:none;stroke:#00ff4a;stroke-width:.666665;stroke-linecap:round;stroke-linejoin:round;stroke-miterlimit:4;stroke-dasharray:none;stroke-opacity:1;visibility:visible"/><path d="m588.545 244.12.068.11.077.066.08.052.093.028M589.495 240.216h-.095l-.095.024-.108.056-.093.064M588.255 243.269l.025.175.037.158.043.15.05.13.058.12M588.999 240.469l-.094.079-.078.12-.094.121-.083.145-.065.176M576.255 241.242l.052.056.04.038.053.013M576.681 239.48h-.057l-.052.028-.052.042" style="fill:none;stroke:#00ff4a;stroke-width:.999997;stroke-linecap:round;stroke-linejoin:round;stroke-miterlimit:4;stroke-dasharray:none;stroke-opacity:1;visibility:visible"/><path d="m577.896 239.522.036-.042.027-.036.057-.028.036-.03.04-.01h.044M577.948 241.894l-.041-.012-.042-.012-.054-.028-.041-.038M578.332 239.509l.016-.013.036-.026.052-.025h.084M578.332 241.948l-.162-.08M578.719 239.562h.016l.035-.04.04-.016.045-.013h.04M578.719 242.016l-.156-.096M579.093 239.629l.027-.013.04-.028.037-.024.04-.012h.044M579.093 242.068l-.161-.08M579.479 239.682l.016-.01.035-.027.058-.03.036-.012h.043M579.479 242.122l-.162-.078M579.864 239.733l.016-.013.04-.027.037-.021h.084M579.864 242.189l-.156-.095M580.239 239.802l.026-.012.042-.038.04-.02.037-.01h.043M580.239 242.245l-.162-.085M580.625 239.857l.016-.017.042-.027.052-.025.034-.01h.044M580.625 242.296l-.155-.078M581.015 239.909l.01-.013.042-.026.033-.03h.097M581.015 242.349l-.162-.08M581.4 239.964l.01-.016.043-.028.04-.012.038-.014h.039M581.385 242.418l-.145-.094M581.77 240.028l.018-.012.051-.04.04-.01.043-.017h.038M581.77 242.469l-.154-.081M582.161 240.082l.01-.014.043-.028.041-.024.05-.014h.045M582.161 242.524l-.161-.08M582.545 240.136l.016-.014.036-.025.04-.028h.08M582.545 242.576l-.161-.082M582.921 240.202l.027-.028.036-.028.041-.012.04-.014h.039M582.921 242.644l-.161-.084M583.307 240.253l.01-.013.043-.038.05-.012.04-.014h.045M583.307 242.694l-.162-.078M583.692 240.309l.016-.013.036-.027.041-.029.043-.012h.052M583.692 242.749l-.162-.08M584.079 240.36l.016-.012.04-.026.038-.026h.083M578.187 239.388l.04.012.039.028.041.042.023.038M578.172 241.869l-.172.041M578.563 239.444l.036.012.041.024.043.042.036.04M578.563 241.92l-.178.045M578.948 239.494l.035.014.044.03.04.04.026.05M578.932 241.989l-.172.028M579.332 239.562l.041.015.038.023.039.028.027.052M579.317 242.044l-.172.038M579.708 239.616l.052.013.04.03.028.034.036.041M579.708 242.094l-.178.042M580.093 239.672l.042.01.037.028.041.042.024.05M580.079 242.16l-.172.03M580.479 239.733l.04.019.043.012.038.038.024.055M580.468 242.217l-.178.028M580.853 239.789l.052.013.042.028.026.042.042.037M580.853 242.269l-.172.043M581.239 239.84l.04.019.039.023.042.039.039.044M581.239 242.324l-.19.036M581.625 239.896l.042.013.04.025.039.044.024.05M581.615 242.389l-.178.03M582.015 239.964l.034.013.044.025.042.024.024.056M581.999 242.445l-.172.024M582.385 240.016l.042.012.04.028.039.04.041.038M582.385 242.496l-.19.042M582.77 240.068l.043.014.04.028.043.036.024.059M582.76 242.562l-.172.026M583.161 240.12l.036.015.043.027.04.042.025.049M583.145 242.616l-.172.028M583.53 240.189l.059.013.035.028.026.023.04.056M583.53 242.669l-.17.039M583.921 240.242l.036.012.043.028.04.042.037.036M583.921 242.722l-.19.04M584.307 240.296l.04.013.039.025.041.042.04.053.013.05.023.058M577.437 241.642l.058.079.052.041.052.04.051.01h.058l.062-.009M577.896 239.522l-.041-.014h-.068l-.028.014-.04.028-.036.028M584.572 240.564l-.01-.015h-.019v-.013h-.039M583.921 242.722l.036.04.043.014.065.012.07-.012.052-.027.068-.041.078-.064M584.588 240.564h-.016M584.452 242.694h.016l.025.014M584.812 240.549h-.042" style="fill:none;stroke:#00ff4a;stroke-width:.666665;stroke-linecap:round;stroke-linejoin:round;stroke-miterlimit:4;stroke-dasharray:none;stroke-opacity:1;visibility:visible"/><path d="m584.495 242.708 3.76.56M584.812 240.549l3.776.561M588.468 244.002l.079.119M588.999 240.469l.104-.11M588.864 244.376l14.586 2.172M589.495 240.216l14.598 2.172M576.4 241.349l.948.144M576.681 239.48l.943.148M576.025 239.949l-.041.055-.039.08-.024.08-.028.106-.03.107v.093l.017.094.013.08.028.065" style="fill:none;stroke:#00ff4a;stroke-width:.999997;stroke-linecap:round;stroke-linejoin:round;stroke-miterlimit:4;stroke-dasharray:none;stroke-opacity:1;visibility:visible"/><path d="m583.692 242.749.041.013M583.307 242.694l.052.014M582.921 242.644h.052M582.545 242.576l.042.012M582.161 242.524l.036.013M581.77 242.469h.059M581.385 242.418h.052M581.015 242.349l.034.011M580.625 242.296l.058.016M580.239 242.245h.051M579.864 242.189h.041M579.479 242.122l.051.014M579.093 242.068l.052.016M578.719 242.016h.04M578.332 241.948l.052.016M577.948 241.894l.052.016M584.255 240.296h.052M583.879 240.229l.04.011M583.495 240.176l.035.013M583.104 240.12h.056M582.719 240.068h.051M582.348 240.002l.035.014M581.959 239.949l.057.016M581.572 239.896h.052M581.197 239.84h.043M580.812 239.778l.041.01M580.427 239.722l.052.012M580.041 239.672h.052M579.665 239.602l.042.014M579.281 239.55l.052.012M578.896 239.494h.052M578.52 239.444h.04M578.135 239.377l.052.01M577.348 241.493l.087.15M577.625 239.629l.058-.05M584.332 242.644l.12.05M584.588 240.564l.182-.015" style="fill:none;stroke:#00ff4a;stroke-width:.666665;stroke-linecap:round;stroke-linejoin:round;stroke-miterlimit:4;stroke-dasharray:none;stroke-opacity:1;visibility:visible"/><path d="m592.088 237.444-.083.212-.078.228-.068.236-.042.258-.036.25-.026.255-.016.251v.242M575.921 240.709l.334.533M576.025 239.949l.495-.397" style="fill:none;stroke:#00ff4a;stroke-width:.999997;stroke-linecap:round;stroke-linejoin:round;stroke-miterlimit:4;stroke-dasharray:none;stroke-opacity:1;visibility:visible"/><path d="m587.765 238.965.068.013M587.364 239.002l-.036-.054-.044-.078-.024-.084-.028-.093-.024-.093-.028-.106-.013-.106v-.12l-.017-.121.017-.121v-.118l.013-.12.011-.132.029-.12.012-.119.038-.107.03-.093.028-.107.036-.082.041-.092.042-.068.037-.064.041-.054.052-.057M581.5 238.242l-.052-.016-.068-.036-.041-.044-.052-.052-.042-.052-.037-.08-.025-.08-.033-.094-.025-.095-.01-.107-.016-.108-.012-.118v-.356l.012-.124.016-.131.024-.12.028-.107.026-.121.027-.104.039-.093.045-.092.035-.098.04-.066.041-.066.053-.056.043-.036.036-.041.041-.017.05-.012h.046M583.03 238.469l-.061-.013-.059-.04-.051-.04-.042-.053-.036-.053-.041-.08-.027-.082-.026-.094-.027-.094-.025-.107-.018-.105v-.122l-.013-.108.013-.13v-.12l.018-.119.01-.132.025-.121.017-.106.04-.121.028-.093.035-.107.027-.093.058-.083.035-.08.04-.061.045-.06.052-.037.04-.038.038-.017.042-.012h.04M584.552 238.694l-.052-.012-.052-.025-.052-.055-.041-.05-.045-.056-.04-.067-.025-.09-.037-.086-.018-.105-.023-.104-.017-.107v-.123l-.011-.104v-.122l.011-.134.017-.117.016-.119.007-.121.029-.12.026-.108.042-.107.023-.105.045-.095.04-.081.054-.079.035-.065.04-.055.055-.038.04-.04.043-.011.034-.019h.044M586.088 238.922l-.058-.012-.051-.026-.052-.042-.042-.052-.037-.068-.041-.064-.042-.078-.025-.1-.027-.1-.016-.108-.01-.108-.015-.12v-.23l.015-.13.01-.12.016-.12.014-.119.028-.12.025-.106.037-.106.03-.11.039-.093.041-.08.04-.078.053-.068.04-.054.039-.04.051-.04.04-.012.042-.016h.04M587.364 239.002l.016.014v.012h.013v.012l.012.016h.016" style="fill:none;stroke:#00ff4a;stroke-width:.666665;stroke-linecap:round;stroke-linejoin:round;stroke-miterlimit:4;stroke-dasharray:none;stroke-opacity:1;visibility:visible"/><path d="m587.353 237.042.01-.026.017-.026.015-.028.01-.026.016-.027M587.208 238.588l-.016-.036v-.028l-.012-.028v-.04l-.013-.026" style="fill:none;stroke:#00ff4a;stroke-width:.666665;stroke-linecap:round;stroke-linejoin:round;stroke-miterlimit:4;stroke-dasharray:none;stroke-opacity:1;visibility:visible"/><path d="m592.5 236.804-.093.078-.08.122-.091.118-.086.148-.063.174M579.755 237.576l.052.056.04.037.053.013M580.181 235.813h-.057l-.052.027-.052.044" style="fill:none;stroke:#00ff4a;stroke-width:.999997;stroke-linecap:round;stroke-linejoin:round;stroke-miterlimit:4;stroke-dasharray:none;stroke-opacity:1;visibility:visible"/><path d="m581.396 235.856.036-.044.027-.036.057-.027.036-.03.04-.009h.044M581.448 238.229l-.041-.012-.042-.013-.054-.027-.041-.039M581.833 235.842l.017-.012.035-.026.052-.026h.084M581.833 238.282l-.161-.078M582.219 235.897h.016l.035-.04.04-.017.045-.012h.04M582.219 238.349l-.156-.096M582.593 235.962l.027-.012.04-.03.037-.023.04-.013h.044M582.593 238.4l-.161-.078M582.979 236.016l.016-.011.035-.027.058-.03.036-.011h.043M582.979 238.457l-.162-.079M583.364 236.068l.016-.012.04-.028.037-.023h.084M583.364 238.522l-.156-.094M583.739 236.136l.026-.016.042-.036.04-.018.037-.012h.043M583.739 238.58l-.162-.084M584.124 236.19l.016-.016.04-.028.053-.025.035-.011h.044M584.124 238.629l-.156-.079M584.515 236.242l.01-.012.042-.026.033-.03h.097M584.515 238.682l-.162-.08M584.9 236.298l.01-.016.043-.028.04-.012.038-.012h.039M584.885 238.752l-.145-.095M585.27 236.362l.018-.012.051-.038.04-.012.043-.018h.038M585.27 238.802l-.154-.081M585.661 236.416l.01-.016.043-.026.041-.024.05-.014h.045M585.661 238.857l-.161-.079M586.047 236.469l.016-.013.036-.026.04-.028h.08M586.047 238.909l-.162-.081M586.421 236.537l.027-.028.036-.029.041-.012.04-.014h.039M586.421 238.978l-.161-.082M586.807 236.588l.01-.012.043-.04.05-.011.04-.016h.045M586.807 239.029l-.162-.08M587.192 236.644l.016-.014.036-.026.041-.028.043-.014h.052M587.192 239.082l-.162-.08M587.577 236.694l.016-.012.042-.025.035-.027h.085M581.687 235.722l.04.012.039.028.041.043.023.037M581.672 238.202l-.172.042M582.063 235.777l.036.012.041.024.043.044.036.04M582.063 238.256l-.178.042M582.448 235.829l.035.013.044.03.04.04.026.053M582.432 238.322l-.172.028M582.833 235.897l.042.015.037.024.041.026.024.054M582.817 238.378l-.172.039M583.208 235.949l.052.013.04.028.028.038.036.04M583.208 238.429l-.178.041M583.593 236.005l.042.01.037.027.041.043.024.052M583.577 238.496l-.172.028M583.979 236.068l.04.017.043.013.038.039.024.055M583.968 238.55l-.178.028M584.353 236.12l.052.017.042.023.026.044.042.038M584.353 238.602l-.172.043M584.739 236.176l.04.016.039.025.042.039.039.044M584.739 238.657l-.19.037M585.124 236.229l.041.013.042.026.037.044.024.048M585.115 238.722l-.178.03M585.515 236.298l.034.014.044.025.042.023.024.057M585.5 238.78l-.172.024M585.885 236.349l.042.011.04.029.039.04.041.039M585.885 238.829l-.19.043M586.27 236.402l.043.015.04.027.043.036.024.058M586.26 238.896l-.172.026M586.661 236.456l.036.013.043.028.04.041.025.05M586.645 238.949l-.172.03M587.03 236.522l.059.014.035.024.026.026.04.056M587.03 239.002l-.17.039M587.421 236.576l.036.012.043.028.04.04.037.039M587.421 239.057l-.19.04M587.807 236.629l.04.013.039.026.041.04.04.054.013.051.023.055M580.937 237.977l.058.077.052.042.052.04.051.013h.058l.062-.012M581.396 235.856l-.041-.016h-.068l-.028.016-.04.028-.036.028M588.072 236.898l-.01-.014h-.019v-.014h-.039M587.421 239.057l.036.04.043.013.065.012.07-.012.052-.026.068-.042.078-.064M588.088 236.898h-.016M587.953 239.029h.017l.025.013M588.312 236.882h-.042" style="fill:none;stroke:#00ff4a;stroke-width:.666665;stroke-linecap:round;stroke-linejoin:round;stroke-miterlimit:4;stroke-dasharray:none;stroke-opacity:1;visibility:visible"/><path d="m588.312 236.882 3.776.562M592.5 236.804l.104-.111M579.9 237.682l.948.144M580.181 235.813l.943.15M579.525 236.282l-.041.055-.039.08-.024.08-.028.107-.03.106v.095l.017.093.013.079.028.067" style="fill:none;stroke:#00ff4a;stroke-width:.999997;stroke-linecap:round;stroke-linejoin:round;stroke-miterlimit:4;stroke-dasharray:none;stroke-opacity:1;visibility:visible"/><path d="m587.192 239.082.041.014M586.807 239.029l.052.013M586.421 238.978h.052M586.047 238.909l.04.011M585.661 238.857l.036.013M585.27 238.802h.059M584.885 238.752h.052M584.515 238.682l.034.012M584.124 238.629l.056.016M583.739 238.58h.051M583.364 238.522h.041M582.979 238.457l.051.013M582.593 238.4l.052.017M582.219 238.349h.04M581.833 238.282l.052.016M581.448 238.229l.052.016M587.755 236.629h.052M587.38 236.562l.04.014M586.995 236.509l.035.015M586.604 236.456h.056M586.219 236.402h.051M585.848 236.336l.035.013M585.457 236.282l.058.016M585.072 236.229h.052M584.697 236.176h.043M584.312 236.113l.041.007M583.927 236.056l.052.012M583.541 236.005h.052M583.167 235.936l.04.013M582.781 235.884l.052.013M582.396 235.829h.052M582.02 235.777h.04M581.635 235.712l.052.008M580.848 237.826l.087.15M581.124 235.962l.056-.05M587.833 238.978l.12.05M588.088 236.898l.182-.014" style="fill:none;stroke:#00ff4a;stroke-width:.666665;stroke-linecap:round;stroke-linejoin:round;stroke-miterlimit:4;stroke-dasharray:none;stroke-opacity:1;visibility:visible"/><path d="m579.421 237.042.334.534M579.525 236.282l.495-.397M589.565 397.236l-.085.211-.083.227-.072.236-.045.256-.04.25-.029.254-.021.252-.001.241.011.227" style="fill:none;stroke:#00ff4a;stroke-width:.999997;stroke-linecap:round;stroke-linejoin:round;stroke-miterlimit:4;stroke-dasharray:none;stroke-opacity:1;visibility:visible"/><path d="m585.221 398.692.069.015M584.82 398.724l-.036-.054-.044-.08-.02-.083-.027-.093-.023-.092-.025-.108-.015-.107.001-.116-.011-.124.016-.12.001-.119.019-.12.012-.134.027-.118.018-.116.038-.109.033-.091.026-.108.038-.082.044-.09.043-.07.037-.063.043-.052.053-.055M578.967 397.88l-.052-.017-.067-.039-.041-.042-.052-.052-.04-.054-.036-.08-.024-.081-.031-.097-.024-.092-.01-.108-.012-.108-.011-.12.003-.118.002-.118.001-.119.012-.123.019-.13.026-.12.029-.107.028-.121.028-.104.042-.094.043-.09.037-.098.044-.065.043-.063.052-.056.043-.038.034-.039.044-.016.054-.011h.039M580.495 398.128l-.063-.014-.056-.042-.052-.038-.04-.056-.039-.052-.038-.08-.024-.083-.026-.095-.024-.094-.023-.107-.015-.105v-.122l-.013-.108.018-.13v-.119l.02-.12.012-.133.027-.12.018-.106.043-.12.025-.092.04-.108.027-.092.058-.08.039-.081.043-.06.043-.058.052-.038.04-.035.039-.018.042-.012h.041M582.012 398.374l-.052-.012-.052-.024-.052-.056-.04-.052-.041-.058-.042-.068-.025-.09-.035-.084-.013-.107-.024-.103-.016-.108.004-.124-.01-.105.003-.121.012-.13.018-.121.016-.117.013-.12.028-.122.026-.105.045-.107.025-.105.045-.095.042-.08.053-.08.04-.064.04-.053.053-.039.043-.038.04-.012.039-.016h.04M583.545 398.624l-.057-.012-.052-.026-.05-.044-.043-.054-.035-.065-.04-.065-.04-.08-.025-.099-.024-.103-.015-.106-.008-.11-.016-.118.003-.108.002-.122.018-.132.012-.118.017-.119.017-.121.028-.119.028-.105.038-.108.033-.107.037-.092.043-.08.044-.079.053-.066.042-.052.035-.042.054-.038.04-.01.044-.018.036.002M584.82 398.724l.016.014v.012h.013l-.001.014.012.016h.016" style="fill:none;stroke:#00ff4a;stroke-width:.666665;stroke-linecap:round;stroke-linejoin:round;stroke-miterlimit:4;stroke-dasharray:none;stroke-opacity:1;visibility:visible"/><path d="m584.839 396.764.01-.024.016-.026.016-.028.01-.027.019-.025M584.67 398.308l-.016-.037v-.028l-.01-.028v-.04l-.014-.028" style="fill:none;stroke:#00ff4a;stroke-width:.666665;stroke-linecap:round;stroke-linejoin:round;stroke-miterlimit:4;stroke-dasharray:none;stroke-opacity:1;visibility:visible"/><path d="m589.48 400.246.067.11.073.066.08.054.092.03M590.485 396.355l-.093-.001-.096.025-.11.052-.094.063M589.2 399.391l.024.173.035.16.038.151.05.13.057.123M589.985 396.602l-.093.077-.082.121-.094.116-.088.146-.063.174M577.23 397.187l.054.056.039.039.051.013M577.684 395.428h-.057l-.052.027-.052.043" style="fill:none;stroke:#00ff4a;stroke-width:.999997;stroke-linecap:round;stroke-linejoin:round;stroke-miterlimit:4;stroke-dasharray:none;stroke-opacity:1;visibility:visible"/><path d="m583.877 398.686-.16-.084M584.297 396.302l.01-.012.045-.04.051-.01.04-.014h.044M584.263 398.742l-.163-.082M584.681 396.363l.019-.013.035-.027.04-.027.045-.012h.052M584.647 398.803l-.16-.083M585.067 396.42l.016-.014.04-.023.039-.025h.083M579.192 395.36l.04.014.037.03.041.039.023.039M579.139 397.842l-.172.038M579.565 395.422l.036.013.042.025.04.043.037.041M579.53 397.898l-.18.041M579.95 395.478l.038.012.041.031.041.043.023.051M579.897 397.971l-.172.027M580.335 395.552l.04.016.039.024.039.028.024.054M580.283 398.035l-.173.035M580.71 395.61l.05.014.04.03.028.036.036.041M580.672 398.09l-.177.038M581.093 395.671l.042.01.037.028.04.045.023.05M581.041 398.162l-.171.026M581.477 395.74l.043.02.039.012.038.04.023.054M581.43 398.223l-.176.025M581.852 395.8l.05.014.041.028.029.041.038.04M581.815 398.28l-.172.04M582.236 395.858l.041.017.038.025.04.04.04.044M582.2 398.34l-.19.032M582.621 395.92l.04.013.043.027.035.043.024.05M582.573 398.412l-.177.028M583.01 395.994l.036.013.044.027.041.024.022.056M582.959 398.474l-.172.021M583.38 396.05l.04.013.043.03.036.039.04.04M583.344 398.53l-.19.038M583.764 396.108l.041.015.042.03.04.037.027.057M583.717 398.602l-.172.022M584.155 396.167l.033.015.044.028.041.04.023.052M584.101 398.662l-.171.025M584.523 396.242l.057.014.036.027.024.025.041.056M584.487 398.72l-.174.036M584.912 396.3l.035.01.043.031.04.039.037.042M584.876 398.78l-.19.034M585.297 396.36l.04.013.038.026.04.041.041.054.01.053.026.055M578.408 397.606l.056.078.05.042.054.042.051.01.057.002.063-.01M578.897 395.491l-.041-.015h-.068l-.028.014-.04.028-.037.026M585.559 396.631l-.011-.016h-.018v-.012h-.013l-.01-.001h-.017M584.876 398.78l.036.037.041.017.067.013.068-.012.052-.025.07-.04.08-.064M585.575 396.631h-.016M585.408 398.76h.016l.024.013M585.799 396.62h-.011l-.03-.003M578.897 395.491l.035-.043.03-.034.056-.027.038-.03.04-.007h.044M578.915 397.863l-.042-.012-.041-.015-.053-.026-.04-.04M579.336 395.482l.016-.012.036-.026.052-.024.041.002h.044M579.299 397.922l-.16-.08M579.721 395.544h.016l.036-.04.042-.014.042-.014.043.002M579.684 397.998l-.155-.1M580.095 395.615l.025-.013.043-.028.036-.024.041-.01h.044M580.059 398.052l-.16-.08M580.479 395.674l.016-.01.035-.028.059-.028.036-.013.043.001M580.443 398.114l-.16-.08M580.864 395.73l.016-.012.04-.028.037-.02H581.04M580.828 398.187l-.156-.097M581.236 395.804l.028-.013.041-.036.042-.017.037-.012.043.001M581.201 398.247l-.16-.087M581.621 395.866l.016-.016.043-.027.052-.025.036-.008h.042M581.585 398.303l-.154-.08M582.012 395.922l.012-.014.041-.024.035-.029h.059l.037.001M581.976 398.362l-.161-.083M582.397 395.984l.01-.016.043-.026.041-.012.038-.012.042.001M582.345 398.438l-.144-.096M582.765 396.054l.016-.01.052-.041.042-.011.042-.016h.038M582.73 398.495l-.156-.083M583.155 396.114l.012-.015.04-.027.043-.024.05-.012h.045M583.119 398.556l-.162-.082M583.539 396.172l.017-.014.036-.024.041-.027h.079M583.503 398.611l-.16-.083" style="fill:none;stroke:#00ff4a;stroke-width:.666665;stroke-linecap:round;stroke-linejoin:round;stroke-miterlimit:4;stroke-dasharray:none;stroke-opacity:1;visibility:visible"/><path d="m583.913 396.246.027-.027.036-.029.041-.01.043-.014h.037" style="fill:none;stroke:#00ff4a;stroke-width:.666665;stroke-linecap:round;stroke-linejoin:round;stroke-miterlimit:4;stroke-dasharray:none;stroke-opacity:1;visibility:visible"/><path d="m585.45 398.775 3.75.616M585.799 396.62l3.766.615M589.403 400.126l.077.12M589.985 396.602l.107-.11M589.793 400.506l14.555 2.388M590.485 396.355l14.565 2.388M577.376 397.295l.947.159M577.684 395.428l.941.163M577.021 395.89l-.041.053-.04.08-.025.079-.03.106-.032.106-.001.094.015.095.016.079.024.065" style="fill:none;stroke:#00ff4a;stroke-width:.999997;stroke-linecap:round;stroke-linejoin:round;stroke-miterlimit:4;stroke-dasharray:none;stroke-opacity:1;visibility:visible"/><path d="m584.647 398.803.04.013M584.263 398.742l.05.014M583.877 398.686h.053M583.503 398.611l.04.012M583.119 398.556l.034.012M582.73 398.495h.056M582.345 398.438h.052M581.976 398.362l.034.01M581.585 398.303l.058.017M581.201 398.247l.052.001M580.828 398.187h.041M580.443 398.114l.052.014M580.059 398.052l.051.018M579.684 397.998h.041M579.299 397.922l.051.017M578.915 397.863l.052.017M585.245 396.358l.052.001M584.872 396.286l.04.013M584.487 396.226l.033.014M584.097 396.167h.058M583.712 396.108h.052M583.344 396.036l.035.014M582.953 395.975l.057.017M582.57 395.92h.05M582.195 395.858h.04M581.81 395.788l.043.01M581.427 395.727l.05.013M581.041 395.671h.052M580.668 395.596l.041.012M580.284 395.54l.05.011M579.897 395.476l.053.002M579.524 395.422h.041M579.14 395.348l.052.012M578.323 397.452l.084.152M578.625 395.592l.058-.049M585.288 398.707l.12.053M585.575 396.631l.182-.013" style="fill:none;stroke:#00ff4a;stroke-width:.666665;stroke-linecap:round;stroke-linejoin:round;stroke-miterlimit:4;stroke-dasharray:none;stroke-opacity:1;visibility:visible"/><path d="m576.907 396.647.323.54M577.021 395.89l.502-.39" style="fill:none;stroke:#00ff4a;stroke-width:.999997;stroke-linecap:round;stroke-linejoin:round;stroke-miterlimit:4;stroke-dasharray:none;stroke-opacity:1;visibility:visible"/><path d="m588.776 395.08.067.013M588.372 395.111l-.035-.055-.044-.078-.021-.083-.027-.095-.022-.093-.026-.107-.016-.106.002-.118-.011-.124.015-.12.003-.118.018-.12.012-.13.028-.121.017-.117.038-.108.033-.092.027-.106.037-.082.044-.092.043-.067.037-.065.043-.052.053-.056M582.52 394.264l-.052-.016-.068-.038-.04-.044-.05-.052-.043-.054-.035-.08-.024-.08-.03-.098-.026-.092-.007-.107-.014-.108-.011-.12.004-.117.001-.12.002-.119.013-.121.017-.132.027-.12.03-.107.026-.119.028-.105.042-.093.043-.092.039-.096.043-.065.042-.065.054-.054.039-.04.038-.039.042-.014.054-.012h.041M584.05 394.514l-.064-.015-.057-.041-.052-.039-.04-.056-.037-.052-.04-.081-.023-.082-.025-.094-.024-.095-.025-.108-.015-.105.002-.122-.015-.108.018-.13.003-.119.017-.119.012-.133.028-.12.018-.105.042-.12.027-.094.039-.106.028-.094.057-.08.04-.081.041-.059.043-.059.052-.038.043-.036.037-.016.04-.012h.043M585.565 394.76l-.052-.014-.052-.024-.05-.056-.042-.05-.041-.059-.04-.067-.028-.09-.032-.085-.015-.107-.023-.104-.014-.106.001-.124-.01-.106.003-.12.013-.134.017-.116.017-.119.013-.119.027-.122.028-.108.043-.104.028-.106.043-.094.041-.082.055-.077.038-.065.042-.054.052-.038.042-.038.042-.012.037-.017h.041M587.099 395.01l-.059-.012-.05-.028-.05-.043-.041-.053-.039-.067-.039-.065-.04-.079-.025-.099-.024-.102-.013-.107-.01-.11-.014-.119v-.106l.005-.124.016-.13.013-.12.016-.119.018-.119.029-.12.027-.106.036-.106.034-.108.038-.093.042-.077.044-.08.054-.068.042-.052.036-.039.052-.039.04-.012.046-.016.036.002M588.372 395.111l.016.015v.012h.012v.012l.012.016.016.001" style="fill:none;stroke:#00ff4a;stroke-width:.666665;stroke-linecap:round;stroke-linejoin:round;stroke-miterlimit:4;stroke-dasharray:none;stroke-opacity:1;visibility:visible"/><path d="m588.392 393.148.012-.024.016-.026.015-.028.01-.026.018-.026M588.224 394.692l-.016-.036v-.028l-.01-.028v-.038l-.014-.03" style="fill:none;stroke:#00ff4a;stroke-width:.666665;stroke-linecap:round;stroke-linejoin:round;stroke-miterlimit:4;stroke-dasharray:none;stroke-opacity:1;visibility:visible"/><path d="m580.785 393.571.05.056.041.04.053.013M581.239 391.815h-.059l-.05.027-.054.042" style="fill:none;stroke:#00ff4a;stroke-width:.999997;stroke-linecap:round;stroke-linejoin:round;stroke-miterlimit:4;stroke-dasharray:none;stroke-opacity:1;visibility:visible"/><path d="m581.961 393.99.056.08.053.04.051.042.05.011.059.001.063-.009M582.452 391.876l-.04-.016h-.068l-.03.015-.039.027-.035.026M589.113 393.015l-.01-.015h-.018v-.013h-.013l-.01-.001h-.018M588.43 395.166l.033.038.045.016.065.012.07-.01.052-.027.068-.04.08-.063M589.128 393.015h-.016M588.961 395.144h.016l.024.016M589.352 393.004h-.042M582.452 391.876l.036-.042.028-.035.057-.028.038-.027.039-.01.045.002M582.468 394.248l-.041-.013-.042-.013-.053-.027-.039-.04M582.89 391.868l.016-.013.037-.025.052-.023h.084M582.853 394.308l-.161-.08M583.275 391.928h.015l.037-.038.04-.015.046-.012h.04M583.239 394.383l-.155-.099M583.648 392l.027-.013.04-.027.039-.024.041-.012.042.002M583.612 394.438l-.16-.08M584.032 392.058l.017-.01.036-.026.058-.03.034-.012.044.001M583.997 394.5l-.161-.08M584.417 392.116l.016-.012.042-.028.037-.02h.043l.04.002M584.381 394.574l-.154-.099M584.79 392.19l.028-.014.042-.036.04-.017.036-.012.044.002M584.755 394.632l-.16-.085M585.175 392.252l.017-.017.041-.027.052-.024.035-.009h.044M585.14 394.688l-.156-.08M585.564 392.308l.012-.013.041-.024.035-.03h.058l.038.003M585.53 394.748l-.16-.082M585.95 392.37l.012-.016.041-.027.04-.012.041-.012h.039M585.897 394.823l-.144-.097M586.319 392.438l.016-.01.053-.041.041-.01.042-.015h.037M586.284 394.88l-.156-.082M586.708 392.5l.012-.014.04-.027.043-.024.052-.013.044.001M586.673 394.94l-.16-.08M587.093 392.558l.017-.014.035-.024.043-.029.042.001h.037M587.057 394.998l-.16-.083M587.467 392.631l.028-.028.035-.028.04-.01.044-.015h.037M587.432 395.072l-.162-.084M587.852 392.687l.012-.012.041-.037.052-.014.04-.012h.044M587.816 395.128l-.16-.082M588.236 392.75l.016-.015.036-.025.041-.028.044-.012h.052M588.2 395.188l-.16-.082M588.62 392.804l.016-.01.043-.026.036-.025h.084M582.745 391.746l.04.013.038.028.04.043.025.038M582.692 394.226l-.172.038M583.119 391.807l.034.013.044.024.04.044.036.04M583.083 394.284l-.178.04M583.505 391.863l.035.015.043.03.04.039.024.053M583.452 394.358l-.172.026M583.89 391.938l.04.016.036.024.041.026.025.054M583.836 394.42l-.172.033M584.263 391.995l.052.015.04.03.025.034.037.042M584.225 394.474l-.177.04M584.647 392.058l.04.012.039.026.039.044.025.051M584.595 394.547l-.172.027M585.032 392.124l.04.02.043.011.035.041.023.054M584.984 394.608l-.177.026M585.405 392.184l.052.016.043.027.024.041.04.04M585.37 394.664l-.174.042M585.79 392.243l.04.017.039.027.039.039.041.044M585.753 394.726l-.19.032M586.175 392.304l.04.014.042.026.036.044.023.052M586.127 394.796l-.178.028M586.564 392.38l.035.011.044.029.04.023.022.057M586.512 394.86l-.172.02M586.932 392.435l.041.012.042.03.035.039.04.042M586.897 394.915l-.19.039M587.319 392.494l.04.014.041.03.043.037.024.058M587.27 394.987l-.17.023M587.708 392.552l.035.015.044.028.04.04.022.052M587.656 395.046l-.172.026M588.076 392.626l.057.014.037.027.025.024.04.059M588.039 395.106l-.172.036M588.465 392.684l.035.012.044.03.041.041.035.037M588.43 395.166l-.19.036" style="fill:none;stroke:#00ff4a;stroke-width:.666665;stroke-linecap:round;stroke-linejoin:round;stroke-miterlimit:4;stroke-dasharray:none;stroke-opacity:1;visibility:visible"/><path d="m588.852 392.746.041.014.038.026.039.042.04.054.01.05.027.056" style="fill:none;stroke:#00ff4a;stroke-width:.666665;stroke-linecap:round;stroke-linejoin:round;stroke-miterlimit:4;stroke-dasharray:none;stroke-opacity:1;visibility:visible"/><path d="m589.352 393.004 3.767.618M580.93 393.68l.947.16M581.239 391.815l.94.163M580.575 392.275l-.042.053-.04.08-.025.08-.03.105-.029.107-.002.094.013.093.016.08.024.067" style="fill:none;stroke:#00ff4a;stroke-width:.999997;stroke-linecap:round;stroke-linejoin:round;stroke-miterlimit:4;stroke-dasharray:none;stroke-opacity:1;visibility:visible"/><path d="m588.2 395.188.04.014M587.816 395.128l.052.015M587.432 395.072h.052M587.057 394.998l.043.012M586.673 394.94l.037.014M586.284 394.88h.056M585.897 394.823h.053M585.53 394.748l.033.012M585.14 394.688l.057.018M584.755 394.632h.052M584.381 394.574h.042M583.997 394.5l.053.015M583.612 394.438l.052.016M583.239 394.383l.04.001M582.853 394.308l.052.016M582.468 394.248l.052.016M588.799 392.743l.051.001M588.425 392.671l.04.013M588.039 392.611l.034.015M587.65 392.551l.059.001M587.265 392.492h.052M586.897 392.422l.034.013M586.508 392.362l.057.017M586.123 392.303h.052M585.748 392.242h.041M585.364 392.175l.041.01M584.98 392.112l.052.012M584.595 392.058h.052M584.221 391.982l.042.013M583.836 391.924l.052.014M583.452 391.863h.052M583.079 391.807h.04M582.693 391.735l.052.01M581.876 393.84l.084.15M582.179 391.978l.058-.05M588.841 395.092l.12.052M589.128 393.015l.182-.012" style="fill:none;stroke:#00ff4a;stroke-width:.666665;stroke-linecap:round;stroke-linejoin:round;stroke-miterlimit:4;stroke-dasharray:none;stroke-opacity:1;visibility:visible"/><path d="m580.46 393.035.325.537M580.575 392.275l.5-.39M467.907 283.414l-7.827 1.92M544.642 235.976l-3.349 1.251M544.642 235.975l-3.349 1.252M544.642 235.976l.546-1.523M541.293 237.227l3.895-2.774M482.624 419.798l2.003 2.254" style="fill:none;stroke:#00ff4a;stroke-width:.999997;stroke-linecap:round;stroke-linejoin:round;stroke-miterlimit:4;stroke-dasharray:none;stroke-opacity:1;visibility:visible"/><path d="m484.627 422.052-2.003-2.254M493.907 420.158l-.041-9.078" style="fill:none;stroke:#00ff4a;stroke-width:1.99999;stroke-linecap:round;stroke-linejoin:round;stroke-miterlimit:4;stroke-dasharray:none;stroke-opacity:1;visibility:visible"/><path d="m482.624 419.798-1.919-19.175M493.866 411.08l-12.098-11.262" style="fill:none;stroke:#00ff4a;stroke-width:.666665;stroke-linecap:round;stroke-linejoin:round;stroke-miterlimit:4;stroke-dasharray:none;stroke-opacity:1;visibility:visible"/><path d="m589.495 240.216 13.955 6.332M588.864 244.376l15.229-1.988M590.485 396.355l13.863 6.539M589.793 400.506l15.257-1.763M590.485 396.355l2.634-2.733" style="fill:none;stroke:#00ff4a;stroke-width:.999997;stroke-linecap:round;stroke-linejoin:round;stroke-miterlimit:4;stroke-dasharray:none;stroke-opacity:1;visibility:visible"/><path d="m460.08 285.334 12.472 6.69M481.105 281.144l-8.879-16.714" style="fill:none;stroke:red;stroke-width:.999997;stroke-linecap:round;stroke-linejoin:round;stroke-miterlimit:4;stroke-dasharray:none;stroke-opacity:1;visibility:visible" visibility="hidden"/><path d="m502 236.558-11.561-4.596" style="fill:none;stroke:red;stroke-width:.666665;stroke-linecap:round;stroke-linejoin:round;stroke-miterlimit:4;stroke-dasharray:none;stroke-opacity:1;visibility:visible" visibility="hidden"/><path d="m460.08 285.334 14.801 4.762M487.24 276.787 474.56 262.7" style="fill:none;stroke:red;stroke-width:.999997;stroke-linecap:round;stroke-linejoin:round;stroke-miterlimit:4;stroke-dasharray:none;stroke-opacity:1;visibility:visible" visibility="hidden"/><path d="m474.56 262.7 12.68 14.087" style="fill:none;stroke:#00ff4a;stroke-width:.999997;stroke-linecap:round;stroke-linejoin:round;stroke-miterlimit:4;stroke-dasharray:none;stroke-opacity:1;visibility:visible"/><path d="m472.226 264.43 8.879 16.714" style="fill:none;stroke:#00ff4a;stroke-width:1.99999;stroke-linecap:round;stroke-linejoin:round;stroke-miterlimit:4;stroke-dasharray:none;stroke-opacity:1;visibility:visible"/></svg>