<svg xmlns="http://www.w3.org/2000/svg" baseProfile="full" height="1122.52" preserveAspectRatio="xMinYMin meet" style="width:765px;height:943px" width="793.701" xml:space="preserve"><path d="m317.1 491.24-.161-22.148M316.86 458.613l-.75-100.134M337.193 487.695l-.12-22.11M337.005 455.145l-.575-99.905M357.177 484.16l-.08-22.041M357.042 451.695l-.413-99.684M385.073 479.24l-.041-21.975M385.005 446.879l-.177-99.36M404.818 475.76v-21.93M404.818 443.466l-.028-99.134M424.469 472.296l.027-21.884M424.51 440.066l.144-98.904M557.63 455.413v.239M559.63 455.067l-.01-.176-.031-.159-.063-.146-.085-.135-.092-.12-.12-.092-.131-.065-.145-.042-.151-.013-.156.013-.161.042-.147.065-.145.092-.138.12-.12.135-.109.146-.076.159-.068.176-.036.173-.016.172M559.604 457.63l.027-2.563M561.35 317.585l.04-2.621M559.339 317.907l.01.172.025.176.069.144.084.135.093.121.12.09.128.082.148.041.162.011h.144l.161-.039.161-.066.147-.096.13-.12.12-.132.109-.146.096-.161.052-.172.041-.188.01-.175M559.365 315.28l-.028 2.627M555.74 458.174l.368-30.616M556.23 417.372l1.253-101.905M559.365 315.28l-.161-.08M561.219 314.868l.172.095M525.27 454.507l.213-21.628M525.578 422.656l.948-97.75M112.828 400.479l3.281 135.786M120.313 532.96l-.017-.185-.051-.176-.07-.159-.103-.132-.12-.12-.134-.093-.161-.07-.172-.037-.172-.015-.177.024-.184.058-.175.078-.159.106-.149.134-.121.147-.103.172-.083.175M120.375 535.65l-.063-2.692M479.1 462.655l.13-21.75M479.287 430.626l.583-98.281M451.885 467.452l.079-21.81M452.005 435.332l.36-98.6M558.042 459.133l.136.107.117.118M555.87 462.451h0M557.255 459.053l-.213.053-.214.08-.2.107-.185.132-.188.147-.156.174-.161.186-.136.201-.104.227-.094.225-.068.225-.041.243-.01.227.01.226.03.227.053.213.094.198.092.173.13.161.148.148.161.106.172.096.185.062.206.042h.213l.196-.015M558.953 461.028l.01-.175.017-.161v-.172" style="fill:none;stroke:red;stroke-width:.999997;stroke-linecap:round;stroke-linejoin:round;stroke-miterlimit:4;stroke-dasharray:none;stroke-opacity:1;visibility:visible"/><path d="m558.828 459.89-.088-.17-.11-.163-.135-.144-.146-.12-.158-.094-.175-.082-.172-.051-.2-.028h-.187l-.204.015M120.776 536.65l-.241.053-.238.095-.224.123-.213.132-.204.17-.187.188-.158.218-.15.224-.104.225-.093.252-.052.255-.044.254v.239l.028.253.068.226.076.226.11.204.147.186.162.157.185.136.184.119.23.08.229.038.224.028.237-.012.241-.042.24-.079.23-.103.224-.124.213-.16.185-.174.172-.198.162-.226.12-.227.109-.241.063-.255.058-.25.011-.254-.01-.243-.042-.237-.08-.23-.092-.211-.12-.2-.161-.174-.162-.145-.197-.12-.205-.095-.224-.066-.23-.04h-.237l-.24.025M113.365 536.746l2.745-.48M118.135 535.907l2.068-.375M122.1 535.2l21.573-3.83M212.237 519.193l343.502-61.02M154.776 529.4l48.352-8.588M557.604 457.84l1.803-.32M561.125 457.224l2.583-.465" style="fill:none;stroke:red;stroke-width:.999997;stroke-linecap:round;stroke-linejoin:round;stroke-miterlimit:4;stroke-dasharray:none;stroke-opacity:1;visibility:visible"/><path d="m121.911 527.145 21.573-3.801M154.604 521.371l397.826-70.265" style="fill:none;stroke:red;stroke-width:.666665;stroke-linecap:round;stroke-linejoin:round;stroke-miterlimit:4;stroke-dasharray:none;stroke-opacity:1;visibility:visible"/><path d="m122.057 533.466 21.573-3.825M211.862 517.543l340.926-60.49M154.74 527.678l47.296-8.39M552.589 456.585l.016.092.013.097.028.091.052.081.04.064.051.043M557.723 459.053l.017-.015M119.492 538.852l3.019-.544M498.375 459.252l.161-21.695M498.62 427.307l.73-98.066M117.552 380.344l.035.043.033.025.024.013.012.026h.052l-.012-.039-.013-.053M117.552 380.344h0M557.844 313.907l-.041.012M559.802 310.4l.15.108.131.12" style="fill:none;stroke:red;stroke-width:.999997;stroke-linecap:round;stroke-linejoin:round;stroke-miterlimit:4;stroke-dasharray:none;stroke-opacity:1;visibility:visible"/><path d="m557.988 304.479-454.946 71.71" style="fill:none;stroke:red;stroke-width:1.99999;stroke-linecap:round;stroke-linejoin:round;stroke-miterlimit:4;stroke-dasharray:none;stroke-opacity:1;visibility:visible"/><path d="m565.63 308.145-455.999 72.164M117.161 384.506l.245-.056.224-.079.239-.106.212-.147.205-.159.18-.186.164-.216.146-.226.12-.24.093-.237.052-.256.04-.267v-.252l-.024-.249-.052-.245-.085-.227-.103-.213-.135-.186-.158-.174-.186-.144-.205-.122-.213-.094-.224-.054-.23-.04h-.237l-.24.04-.241.068-.238.094-.224.117-.213.148-.204.176-.173.187-.16.209-.13.243-.109.24-.095.254-.052.254-.025.252.008.254.028.25.068.226.093.228.12.214.144.188.162.158M116.177 384.4l.188.067.185.04.2.026h.203l.207-.026M559.042 314.293l.056-.013h.053M560.802 312.4l.027-.188v-.345" style="fill:none;stroke:red;stroke-width:.999997;stroke-linecap:round;stroke-linejoin:round;stroke-miterlimit:4;stroke-dasharray:none;stroke-opacity:1;visibility:visible"/><path d="m560.655 311.173-.103-.19-.137-.171-.144-.148-.161-.119-.188-.093-.183-.08-.203-.04-.214-.015-.212.027-.214.042-.213.08-.216.091-.18.135-.188.148-.177.17-.158.202-.136.201-.117.228-.079.225-.082.242-.038.236-.017.241.017.243.027.225.065.227.08.198.104.187.135.175.147.144.172.124.177.092.196.066.205.042.208.009.214-.024M117.911 380.426l-.213.025M118.818 382.224l-3.132.5" style="fill:none;stroke:red;stroke-width:.999997;stroke-linecap:round;stroke-linejoin:round;stroke-miterlimit:4;stroke-dasharray:none;stroke-opacity:1;visibility:visible"/><path d="m554.287 315.973-436.522 69.425" style="fill:none;stroke:red;stroke-width:1.99999;stroke-linecap:round;stroke-linejoin:round;stroke-miterlimit:4;stroke-dasharray:none;stroke-opacity:1;visibility:visible"/><path d="m341.016 491.773-.063-.216-.041-.212-.016-.227.016-.228.041-.226.063-.224.092-.227.121-.215.136-.186.162-.182.172-.164.185-.136.2-.117.213-.079.214-.054.212-.027h.213l.2.027.185.054.19.09.161.121.147.133.134.163.103.19.08.18.057.213.024.228v.226l-.024.228-.068.228-.082.224-.09.215-.134.212-.147.188-.179.172-.172.152-.196.116-.202.108-.214.064-.216.041-.206.014-.203-.014-.2-.041-.185-.077-.172-.107-.162-.121-.136-.147-.121-.173-.092-.187" style="fill:none;stroke:red;stroke-width:.666665;stroke-linecap:round;stroke-linejoin:round;stroke-miterlimit:4;stroke-dasharray:none;stroke-opacity:1;visibility:visible"/><path d="m342.406 491.307-.03-.107v-.12l.013-.133.052-.119.069-.106.092-.095.107-.07.117-.05.11-.01.12.01.095.039.094.068.068.09.036.107.016.121-.016.122-.027.12-.067.12-.078.105-.094.079-.104.054-.12.04h-.12l-.109-.026-.093-.051-.079-.081-.052-.107M442.39 473.83l-.068-.217-.025-.214-.011-.212.01-.228.042-.226.068-.226.088-.228.125-.2.131-.2.161-.173.162-.16.18-.133.205-.107.197-.093.212-.05.206-.029h.197l.199.04.186.05.172.094.178.108.13.13.118.163.109.188.07.187.05.213.028.227v.212l-.028.239-.05.216-.083.226-.104.214-.136.2-.146.184-.161.174-.172.146-.199.122-.186.09-.216.069-.202.052-.208.013-.202-.028-.188-.037-.19-.08-.172-.095-.144-.12-.137-.157-.104-.163-.092-.181" style="fill:none;stroke:red;stroke-width:.666665;stroke-linecap:round;stroke-linejoin:round;stroke-miterlimit:4;stroke-dasharray:none;stroke-opacity:1;visibility:visible"/><path d="m443.766 473.371-.028-.119v-.118l.028-.123.035-.12.085-.105.076-.094.11-.066.106-.052.117-.016.11.016.09.04.082.064.069.096.036.105.015.119v.12l-.04.122-.052.119-.08.093-.11.082-.102.065-.11.03h-.104l-.109-.03-.093-.053-.079-.08-.052-.095M236.964 510.186l-.068-.201-.036-.226-.016-.225v-.228l.04-.24.08-.225.092-.228.104-.212.153-.2.156-.176.178-.158.197-.148.199-.106.213-.094.213-.053.23-.025h.213l.213.025.199.053.187.094.172.12.144.134.137.158.11.188.078.2.052.213.041.227v.226l-.028.243-.057.224-.076.227-.104.212-.136.214-.145.187-.172.17-.188.149-.203.136-.213.092-.214.078-.216.042-.206.014-.214-.014-.213-.042-.188-.078-.187-.092-.161-.136-.147-.148-.121-.171-.092-.2" style="fill:none;stroke:red;stroke-width:.666665;stroke-linecap:round;stroke-linejoin:round;stroke-miterlimit:4;stroke-dasharray:none;stroke-opacity:1;visibility:visible"/><path d="m238.365 509.734-.028-.12v-.12l.01-.135.058-.118.064-.107.092-.095.11-.08.12-.037.12-.03.12.014.093.053.096.07.065.077.052.119.01.12-.01.121-.024.119-.068.121-.083.107-.104.078-.106.068-.123.026h-.12l-.104-.026-.096-.052-.076-.077-.068-.096M543.86 455.853l-.057-.203-.038-.21-.014-.216.026-.227.042-.224.068-.228.093-.215.104-.198.136-.186.156-.174.161-.159.186-.136.189-.107.197-.077.204-.07.196-.023.2.012.203.028.172.053.172.093.161.107.136.148.118.143.096.189.062.187.058.212.008.213v.225l-.024.216-.052.226-.079.225-.11.2-.12.201-.145.187-.161.159-.172.148-.19.124-.195.102-.204.067-.198.039-.202.016-.183-.028-.204-.042-.17-.065-.162-.107-.148-.118-.133-.148-.104-.175-.079-.184" style="fill:none;stroke:red;stroke-width:.666665;stroke-linecap:round;stroke-linejoin:round;stroke-miterlimit:4;stroke-dasharray:none;stroke-opacity:1;visibility:visible"/><path d="m545.219 455.413-.028-.12v-.119l.028-.121.052-.12.068-.105.076-.082.11-.082.106-.038.11-.013.103.013.094.038.078.069.066.095.042.09.011.122-.01.124-.043.116-.052.12-.076.094-.096.079-.11.068-.104.024h-.109l-.103-.024-.093-.053-.068-.08-.052-.095M550.99 449.984l-396.412 69.934M143.458 521.879l-21.575 3.815" style="fill:none;stroke:red;stroke-width:.666665;stroke-linecap:round;stroke-linejoin:round;stroke-miterlimit:4;stroke-dasharray:none;stroke-opacity:1;visibility:visible"/><path d="m169.135 517.344-.453-22.517M168.484 484.187l-1.017-51.19M167.135 416.266l-.667-33.893M145.63 402.811l-.361-17.052M189.98 513.665l-.401-22.464M189.39 480.585l-1.828-101.586M268.39 499.829l-.265-22.272M268.005 467.04l-1.145-100.694" style="fill:none;stroke:red;stroke-width:.999997;stroke-linecap:round;stroke-linejoin:round;stroke-miterlimit:4;stroke-dasharray:none;stroke-opacity:1;visibility:visible"/><path d="m123.844 386.975-.068-.215-.052-.214-.017-.228v-.226l.044-.238.052-.224.081-.231.121-.212.131-.203.15-.185.173-.157.188-.144.197-.126.196-.106.216-.064M125.604 384.145h.224l.213.043.212.064.206.093.172.123.169.146.137.16.12.202.094.197.052.227.04.23v.238l-.024.24-.058.237-.08.241-.104.226-.133.214-.148.199-.172.175-.201.146-.198.132-.229.107-.213.07-.224.037-.23.016-.224-.016-.213-.052-.216-.08-.185-.108-.172-.132-.146-.16-.12-.187-.109-.197" style="fill:none;stroke:red;stroke-width:.666665;stroke-linecap:round;stroke-linejoin:round;stroke-miterlimit:4;stroke-dasharray:none;stroke-opacity:1;visibility:visible"/><path d="m125.287 386.495-.041-.123v-.133l.01-.132.058-.123.077-.105.092-.105.107-.068.117-.042.12-.022.127.009.104.055.102.068.07.093.057.117.01.123v.132l-.04.133-.063.123-.084.104-.104.079-.122.054-.12.042h-.117l-.12-.028-.11-.068-.078-.079-.052-.104" style="fill:none;stroke:red;stroke-width:.666665;stroke-linecap:round;stroke-linejoin:round;stroke-miterlimit:4;stroke-dasharray:none;stroke-opacity:1;visibility:visible"/><path d="m288.724 496.239-.213-22.213M288.406 463.52l-.99-100.452" style="fill:none;stroke:red;stroke-width:.999997;stroke-linecap:round;stroke-linejoin:round;stroke-miterlimit:4;stroke-dasharray:none;stroke-opacity:1;visibility:visible"/><path d="m128.578 529.162-.041-.123v-.118l.024-.135.044-.121.077-.108.092-.09.11-.081.12-.041.12-.027.12.013.105.042.092.066.085.095.035.117.028.123-.011.116-.041.137-.052.118-.096.106-.092.079-.12.057-.122.04h-.117l-.12-.028-.096-.054-.076-.079-.068-.104M127.016 528.585l.04-.145.043-.144.053-.152.065-.134.07-.144.078-.12.094-.133.104-.119.109-.106.103-.108.121-.094.136-.08.041-.026M234.98 369.265l-.068-.212-.041-.212-.028-.228.017-.227.037-.225.055-.23.08-.211.12-.212.12-.2.161-.19.156-.156.188-.15.186-.12.213-.094.2-.065" style="fill:none;stroke:red;stroke-width:.666665;stroke-linecap:round;stroke-linejoin:round;stroke-miterlimit:4;stroke-dasharray:none;stroke-opacity:1;visibility:visible"/><path d="M236.708 366.479h.213l.212.041.214.054.189.09.172.122.161.146.136.175.104.187.094.201.052.225.032.227.008.241-.024.238-.052.225-.086.24-.102.216-.135.215-.159.2-.161.172-.201.146-.198.135-.216.09-.213.067-.212.055h-.224l-.213-.012-.214-.056-.205-.081-.17-.106-.171-.132-.148-.158-.12-.176-.092-.2" style="fill:none;stroke:red;stroke-width:.666665;stroke-linecap:round;stroke-linejoin:round;stroke-miterlimit:4;stroke-dasharray:none;stroke-opacity:1;visibility:visible"/><path d="m236.406 368.786-.041-.12v-.12l.01-.133.058-.116.077-.123.092-.095.107-.068.109-.037.117-.013.12.013.104.037.096.068.067.095.053.123.014.116-.014.133-.026.12-.063.12-.083.105-.104.084-.11.064-.119.027h-.12l-.12-.027-.093-.064-.079-.084-.052-.105" style="fill:none;stroke:red;stroke-width:.666665;stroke-linecap:round;stroke-linejoin:round;stroke-miterlimit:4;stroke-dasharray:none;stroke-opacity:1;visibility:visible"/><path d="m239.656 504.89-.307-22.333M239.203 471.997 237.8 370.984M219.073 508.534l-.35-22.39M218.552 475.557l-1.575-101.25M554.953 301.665l90.753 43.497M642.776 498.054l-81.614-44.095M550.124 300.853l.427-.055.429-.024h.437l.443.012.427.055.437.08.453.09.443.134.437.15.454.17.442.2" style="fill:none;stroke:red;stroke-width:.999997;stroke-linecap:round;stroke-linejoin:round;stroke-miterlimit:4;stroke-dasharray:none;stroke-opacity:1;visibility:visible"/><path d="m545.39 319.8-.052-.2-.041-.201-.011-.226.01-.21.042-.231.052-.212.092-.212.104-.201.12-.188.153-.174.146-.161.172-.144.185-.11.19-.09.198-.067M547.042 317.119l.213.015.188.028.186.062.172.098.161.12.137.132.12.16.104.185.067.2.053.213.024.226-.009.228-.027.225-.056.23-.08.225-.104.212-.12.201-.149.187-.157.16-.176.146-.184.126-.202.088-.197.065-.215.041-.202.012-.199-.026-.187-.036-.173-.084-.172-.106-.15-.134-.131-.143-.11-.177-.076-.198" style="fill:none;stroke:red;stroke-width:.666665;stroke-linecap:round;stroke-linejoin:round;stroke-miterlimit:4;stroke-dasharray:none;stroke-opacity:1;visibility:visible"/><path d="m546.766 319.344-.028-.12v-.117l.028-.123.035-.116.085-.108.076-.096.11-.067.106-.04.11-.012.103.012.104.04.082.067.052.096.044.108.009.116v.133l-.036.123-.07.104-.08.108-.091.08-.11.056-.104.025h-.109l-.103-.025-.093-.056-.068-.092-.052-.096M442.792 336.145l-.07-.197-.04-.215-.01-.213.01-.226.04-.214.07-.226.079-.213.109-.201.117-.2.148-.174.162-.158.172-.148.185-.108.2-.094.196-.064" style="fill:none;stroke:red;stroke-width:.666665;stroke-linecap:round;stroke-linejoin:round;stroke-miterlimit:4;stroke-dasharray:none;stroke-opacity:1;visibility:visible"/><path d="M444.469 333.44h.213l.203.037.188.056.183.096.161.116.144.144.121.164.11.186.078.2.052.216.016.224v.228l-.026.237-.052.228-.086.228-.104.21-.118.214-.146.188-.178.161-.172.147-.196.132-.203.093-.199.066-.213.041-.213.013-.203-.026-.199-.055-.189-.064-.156-.11-.16-.133-.135-.157-.104-.176-.094-.2" style="fill:none;stroke:red;stroke-width:.666665;stroke-linecap:round;stroke-linejoin:round;stroke-miterlimit:4;stroke-dasharray:none;stroke-opacity:1;visibility:visible"/><path d="m444.177 335.695-.028-.123v-.12l.028-.134.04-.118.08-.108.076-.093.11-.067.106-.041.117-.012.11.012.106.041.083.067.068.093.036.108.016.118-.016.134-.025.12-.068.123-.08.09-.092.094-.104.053-.12.028h-.11l-.104-.028-.093-.065-.084-.081-.052-.091M442.646 335.44v-.041l.01-.148.025-.144.044-.144.041-.136.052-.15.068-.132.065-.133.08-.133.092-.119.096-.107.104-.108.11-.106.076-.055M340.255 352.497l-.063-.2-.041-.23-.016-.213v-.228l.04-.226.07-.227.078-.21.11-.217.127-.189.148-.184.162-.16.172-.147.202-.12.188-.092.214-.069M341.964 349.746h.213l.199.028.203.065.188.092.169.123.148.145.133.162.107.185.083.2.052.228.026.225v.227l-.026.239-.052.225-.083.243-.107.212-.133.212-.148.189-.161.175-.186.145-.2.121-.196.107-.213.064-.23.041-.213.014-.198-.026-.203-.057-.2-.079-.17-.106-.163-.118-.134-.161-.12-.188-.093-.181" style="fill:none;stroke:red;stroke-width:.666665;stroke-linecap:round;stroke-linejoin:round;stroke-miterlimit:4;stroke-dasharray:none;stroke-opacity:1;visibility:visible"/><path d="m341.656 352.025-.028-.119v-.133l.017-.123.051-.118.07-.119.091-.096.104-.065.12-.04.122-.012.109.012.103.04.08.065.068.096.057.119.008.118-.008.123-.044.133-.052.119-.081.093-.104.094-.11.053-.12.03h-.104l-.12-.03-.093-.064-.084-.083-.052-.093M340.11 351.706v-.028l.016-.145.024-.146.043-.146.037-.148.068-.146.065-.136.07-.133.093-.12.095-.132.086-.108.11-.105.121-.094.068-.053" style="fill:none;stroke:red;stroke-width:.666665;stroke-linecap:round;stroke-linejoin:round;stroke-miterlimit:4;stroke-dasharray:none;stroke-opacity:1;visibility:visible"/><path d="m615.988 415.293.163-.041.161-.066.147-.106.129-.118.11-.134.102-.164.07-.168.051-.178.032-.185-.016-.173-.028-.16-.052-.159-.081-.133-.104-.12-.12-.082-.137-.066-.144-.039h-.162l-.156.023-.161.069-.147.079-.15.106-.12.135-.104.147-.08.172-.066.176-.044.172v.186l.016.16.036.174.07.132.092.136.12.106.121.066.147.053.145.013.16-.013M643.417 504.212h0M643.417 504.2h0M655.042 497.187l-11 2.025M644.042 499.212l-.053.012-.051.028-.093.065-.08.082-.068.094-.04.106-.028.065-.008.081M643.62 499.746l-.07.55-.057.531-.036.503-.026.5-.014.436-.01.455-.016.424v.442l.016.451.024.459.038.488.042.481M650.469 501.4l-.01.135-.027.13-.044.136-.064.132-.068.122-.094.106-.089.106-.11.078-.103.068-.12.055-.11.028-.104.012-.12.013-.109-.025-.093-.028-.096-.055-.076-.05-.068-.07-.052-.08-.052-.093-.042-.093-.028-.107-.016-.107v-.106l.016-.122.028-.118.026-.107.042-.107.052-.106.066-.107.069-.092.079-.081.093-.092.104-.07.092-.053.12-.037.11-.015.103-.013.112.013.094.027.12.04.093.066.079.079.077.095.057.105.035.123.028.132v.133M641.87 499.224l.068-.197.076-.187.096-.185.12-.159.145-.152.162-.132.161-.093.172-.082.172-.053M641.764 505.092l-.108-.559-.068-.56-.052-.586-.025-.576v-.599l.025-.583.052-.601.068-.603.092-.597.121-.604M642.297 505.83l-.137-.07-.104-.109-.103-.105-.083-.133-.068-.162-.037-.158M654.031 495.96l.144-.013h.148l.133.026.132.039.12.068M643.042 497.984l10.988-2.025M643.005 497.984h.035M641.723 505.066l.017.013.023.014" style="fill:none;stroke:red;stroke-width:.999997;stroke-linecap:round;stroke-linejoin:round;stroke-miterlimit:4;stroke-dasharray:none;stroke-opacity:1;visibility:visible"/><path d="M653.988 495.947h.017l.026.013M643.406 503.919h0M643.417 504.2h0M648.818 502.025h0M646.339 351.318h0M646.99 346.308l-.068.01-.052.026-.093.055-.08.08-.068.094-.052.119-.014.068-.01.068M646.99 346.308l11.12-1.841M646.552 346.828l-.068.56-.053.544-.042.508-.026.507-.024.466-.016.454v.894l.016.463.024.47.026.507.054.491M651.776 348.96l.016-.132.024-.15.043-.133.053-.132.076-.117.085-.121.088-.095.11-.092.102-.07.122-.04.109-.038.103-.012h.121l.11.025.102.026.096.053.083.065.068.083.062.081.058.091.036.093.026.122.014.106v.239l-.026.11-.042.118-.042.105-.052.107-.068.107-.076.094-.081.082-.09.078-.11.066-.105.056-.119.038-.11.012-.103.015-.11-.015-.104-.025-.096-.04-.109-.068-.076-.093-.068-.094-.052-.12-.041-.121-.027-.13v-.134M657.083 343.28l.172-.015.161.015.162.037.144.071M645.964 345.119l11.12-1.839M644.776 346.361l.068-.217.076-.184.11-.187.12-.16.147-.148.146-.135.177-.09.172-.079.172-.043" style="fill:none;stroke:red;stroke-width:.999997;stroke-linecap:round;stroke-linejoin:round;stroke-miterlimit:4;stroke-dasharray:none;stroke-opacity:1;visibility:visible"/><path d="m645.27 353.173-.145-.081-.136-.108-.104-.118-.095-.145-.083-.164-.036-.185" style="fill:none;stroke:red;stroke-width:1.99999;stroke-linecap:round;stroke-linejoin:round;stroke-miterlimit:4;stroke-dasharray:none;stroke-opacity:1;visibility:visible"/><path d="M657.083 343.28h-.041M644.776 346.361l-.028-.03v-.014M644.672 352.372l-.028-.013-.013-.015M646.339 351.187h0" style="fill:none;stroke:red;stroke-width:.999997;stroke-linecap:round;stroke-linejoin:round;stroke-miterlimit:4;stroke-dasharray:none;stroke-opacity:1;visibility:visible"/><path d="m644.589 352.08-.036-.2-.068-.467-.053-.466-.027-.479-.015-.483-.014-.477.014-.48.042-.495.037-.478.057-.442.052-.425.078-.427.094-.442M652.161 349.494h-.01M651.828 349.33h0M615.922 413.252v-.012M615.922 413.252l-.01-.012M615.938 413.28l-.052-.028M615.938 413.28h0l-.017-.015v-.013M624.375 342.854 621.87 484.52M623.27 481.65l-.017.268M625.287 481.28l-.017-.173-.024-.16-.052-.147-.084-.15-.104-.105-.122-.094-.133-.064-.148-.043-.144-.012-.161.012-.162.043-.156.064-.153.094-.128.12-.12.135-.11.16-.078.157-.07.176-.034.184-.017.174M625.245 483.907l.04-2.627M558.964 461.106l.041-.04M558.896 460.534l-3.01.545M560.828 312.467l.04-.041M560.75 311.879l-3.041.48M557.776 459.08l-.013-.027M557.885 459.133l-.041-.067M558.23 459.318v.015M560.031 310.598l-.028-.041M559.98 310.573l-.041-.079M334.938 488.08l-.12-22.095M334.75 455.533l-.599-99.918M354.953 484.557l-.11-22.05M354.802 452.08l-.427-99.706M382.844 479.641l-.041-21.99M382.776 447.252l-.197-99.373M402.604 476.145l-.017-21.932M402.589 443.84l-.036-99.148M422.255 472.678l.03-21.879M422.297 440.451l.12-98.93M449.682 467.84l.083-21.815M449.802 435.706l.35-98.613M562.896 314.598l.027.028v.028M561.125 457.293l-.017.028-.035.037-.068.014-.083.028M557.604 457.984l-1.333.24M557.63 455.651l-.028 2.333M560.922 457.4l-1.317.23M556.27 458.224l-.093.015h-.2l-.092-.015-.086-.025-.06-.026M557.63 455.651l1.735.948M555.74 458.174l-3.15-1.707M559.365 457.507l.24.123" style="fill:none;stroke:red;stroke-width:.999997;stroke-linecap:round;stroke-linejoin:round;stroke-miterlimit:4;stroke-dasharray:none;stroke-opacity:1;visibility:visible"/><path d="m561.125 457.293.385-30.667M561.63 416.44l1.292-101.784" style="fill:none;stroke:red;stroke-width:1.99999;stroke-linecap:round;stroke-linejoin:round;stroke-miterlimit:4;stroke-dasharray:none;stroke-opacity:1;visibility:visible"/><path d="m549.844 450.174.253-21.575M550.219 418.413l1.13-97.48M109.552 531.641l.01.024.025.03 6.522 4.57M116.11 536.266l.052.03.084.022.093.013h.214l.104-.013 1.493-.264M118.083 533.344l.068 2.71M118.161 532.866l-.052.163-.028.158v.158M120.375 535.65l1.495-.264M121.87 535.387l.083-.016.061-.027.044-.026.041-.026.011-.026M118.552 385.307v-.027l-.016-.014M120.135 534.255l-1.973-1.39M120.375 535.65l-.197-.144" style="fill:none;stroke:red;stroke-width:.999997;stroke-linecap:round;stroke-linejoin:round;stroke-miterlimit:4;stroke-dasharray:none;stroke-opacity:1;visibility:visible"/><path d="m106.203 396.28 3.35 135.361M119.005 404.387l3.104 130.878" style="fill:none;stroke:red;stroke-width:1.99999;stroke-linecap:round;stroke-linejoin:round;stroke-miterlimit:4;stroke-dasharray:none;stroke-opacity:1;visibility:visible"/><path d="m496.203 459.626.161-21.695M496.443 427.678l.719-98.093M476.922 463.04l.12-21.747M477.11 431.011l.563-98.318M552.431 451.106h-.016l-.01-.013-.015-.014h-.015l-.01-.012-.017-.014M552.589 456.585l.067-4.959M552.431 451.106l.08.081.065.092.044.108.026.12.009.119" style="fill:none;stroke:red;stroke-width:.999997;stroke-linecap:round;stroke-linejoin:round;stroke-miterlimit:4;stroke-dasharray:none;stroke-opacity:1;visibility:visible"/><path d="m106.818 532.16 2.745-.496M120.443 541.72l23.36-4.175M154.896 535.572l408.802-72.932" style="fill:none;stroke:red;stroke-width:1.99999;stroke-linecap:round;stroke-linejoin:round;stroke-miterlimit:4;stroke-dasharray:none;stroke-opacity:1;visibility:visible"/><path d="m523.125 454.879.195-21.627M523.417 423.027l.932-97.774M554.005 320.387l-.068.053-.07.039-.051.041-.066.026-.068.012-.093.028M554.23 319.785l-.01.121-.026.131-.057.124-.052.119-.079.106M554.287 315.973l-.057 3.812" style="fill:none;stroke:red;stroke-width:.999997;stroke-linecap:round;stroke-linejoin:round;stroke-miterlimit:4;stroke-dasharray:none;stroke-opacity:1;visibility:visible"/><path d="m565.604 314.174-11.317 1.799M553.589 320.585l-427.527 68.24" style="fill:none;stroke:red;stroke-width:1.99999;stroke-linecap:round;stroke-linejoin:round;stroke-miterlimit:4;stroke-dasharray:none;stroke-opacity:1;visibility:visible"/><path d="M550.953 449.973h.01l.025.01 1.044.562M552.031 450.545l.052.04.068.07.052.077.052.094.04.106.028.106M143.219 401.307l-.323-15.175M187.656 514.066l-.413-22.467M166.792 517.76l-.443-22.519M166.135 484.585l-1.028-51.197M164.75 414.774l-.64-32.028M187.073 480.984l-1.856-101.613M216.766 508.932l-.361-22.387M216.23 475.96l-1.583-101.281M286.458 496.64l-.23-22.227M286.125 463.919l-1-100.493" style="fill:none;stroke:red;stroke-width:.999997;stroke-linecap:round;stroke-linejoin:round;stroke-miterlimit:4;stroke-dasharray:none;stroke-opacity:1;visibility:visible"/><path d="m124.646 384.451.12-.064.13-.079.135-.057.04-.027" style="fill:none;stroke:red;stroke-width:.666665;stroke-linecap:round;stroke-linejoin:round;stroke-miterlimit:4;stroke-dasharray:none;stroke-opacity:1;visibility:visible"/><path d="m314.844 491.626-.172-22.148M314.589 459.011l-.76-100.157" style="fill:none;stroke:red;stroke-width:.999997;stroke-linecap:round;stroke-linejoin:round;stroke-miterlimit:4;stroke-dasharray:none;stroke-opacity:1;visibility:visible"/><path d="m130.135 529.613-.104.133-.093.12-.12.107-.12.107-.12.093-.12.081-.135.063-.13.07-.151.053-.131.038-.145.028-.147.014h-.27l-.146-.024-.13-.03-.12-.041-.125-.053-.12-.064-.104-.084-.109-.08-.09-.107-.093-.09-.068-.117-.068-.125-.069-.12-.035-.133-.041-.131-.028-.148-.013-.145v-.15l.013-.146.012-.147M128.073 527.08l.087-.053.137-.063.136-.057.145-.039.131-.027.15-.029h.277l.133.016.137.027.131.036.119.056.118.065.11.081.105.082.11.092.078.092.079.108.066.121.067.132.044.121.036.132.024.147.033.147v.29l-.033.148-.024.148-.036.146-.057.146-.054.135-.093.173-.093.16" style="fill:none;stroke:red;stroke-width:.666665;stroke-linecap:round;stroke-linejoin:round;stroke-miterlimit:4;stroke-dasharray:none;stroke-opacity:1;visibility:visible"/><path d="m266.1 500.224-.255-22.264M265.724 467.426l-1.19-100.705M237.365 505.307l-.323-22.344M236.896 472.4l-1.427-101.041" style="fill:none;stroke:red;stroke-width:.999997;stroke-linecap:round;stroke-linejoin:round;stroke-miterlimit:4;stroke-dasharray:none;stroke-opacity:1;visibility:visible"/><path d="m561.27 445.212.264.295.283.305.292.28.297.28.29.255.28.24.294.225.292.215.295.2.276.17.297.163M566.287 300.025l90.786 43.255M565.083 314.255l79.666 38.423M641.844 505.387l-78.546-42.667M654.016 495.947l-27.197-14.616M615.563 475.293l-51.133-27.452M542.655 306.879l.043-.052.256-.44.249-.427.264-.402.281-.396.283-.376.292-.374.297-.346.302-.334.321-.32.32-.294.333-.291.334-.27.322-.24.334-.21.344-.216.346-.185.346-.171.365-.164.359-.13.36-.135.369-.095.373-.09.376-.069 10.838-1.706M560.964 299.145l.385-.039.391-.04.396-.013.39.013.397.014.4.053.398.053.403.079.403.105.396.124.39.132.396.147.296.117.282.135" style="fill:none;stroke:red;stroke-width:1.99999;stroke-linecap:round;stroke-linejoin:round;stroke-miterlimit:4;stroke-dasharray:none;stroke-opacity:1;visibility:visible"/><path d="m445.698 335.973-.07.135-.091.116-.094.12-.096.122-.102.107-.11.092-.121.093-.12.07-.117.062-.131.07-.137.038-.134.04-.13.015-.135.012h-.12l-.13-.012-.122-.025-.133-.03-.11-.052-.12-.056-.104-.062-.096-.082-.092-.096-.093-.093-.068-.107-.08-.106-.052-.12-.052-.131-.04-.12-.028-.145-.013-.134-.011-.148v-.105M443.51 333.784l.04-.039.121-.081.12-.065.12-.054.076-.025" style="fill:none;stroke:red;stroke-width:.666665;stroke-linecap:round;stroke-linejoin:round;stroke-miterlimit:4;stroke-dasharray:none;stroke-opacity:1;visibility:visible"/><path d="m444.604 333.413.092.015.132.025.125.025.12.043.118.052.106.068.094.079.093.081.092.09.08.107.068.11.068.116.052.121.041.133.024.135.028.148.016.13v.149l-.016.148-.028.144-.024.146-.041.148-.068.175-.08.172M343.219 352.344l-.083.135-.078.134-.104.119-.096.11-.118.105-.109.092-.12.08-.136.081-.121.064-.128.057-.136.038-.146.028-.136.025h-.265l-.132-.013-.12-.04-.133-.038-.12-.041-.11-.068-.104-.067-.104-.092-.096-.094-.081-.094-.08-.106-.065-.119-.052-.12-.055-.133-.04-.136-.025-.132-.016-.146-.011-.145.01-.123M341.005 350.066l.052-.04.12-.079.133-.068.132-.049h.016M342.1 349.72h.01l.134.013.132.026.12.041.125.04.118.067.106.066.11.08.088.091.092.095.085.105.068.108.052.133.052.119.041.136.027.135.025.142.011.148-.01.148-.018.144-.008.148-.044.148-.04.144-.063.176-.093.171" style="fill:none;stroke:red;stroke-width:.666665;stroke-linecap:round;stroke-linejoin:round;stroke-miterlimit:4;stroke-dasharray:none;stroke-opacity:1;visibility:visible"/><path d="M154.125 497.359h-.028" style="fill:none;stroke:red;stroke-width:.999997;stroke-linecap:round;stroke-linejoin:round;stroke-miterlimit:4;stroke-dasharray:none;stroke-opacity:1;visibility:visible"/><path d="m643.656 506.212-.145.027h-.136l-.146-.015-.104-.025-.096-.026-.092-.041M654.63 504.174l-10.973 2.039M655.75 503.163l-.041.088-.039.107-.052.094-.04.08-.017.014-.008.01-.044.07-.066.08-.078.078-.11.095-.12.093-.132.082-.117.053-.12.037-.136.03M655.87 497.212l.092.417.096.424.064.426.04.426.041.427.016.427v.441l-.016.427-.041.426-.052.424-.068.43-.08.41-.103.415-.109.43M655.313 496.451l.104.07.11.093.091.09.08.107.067.121.053.122.024.08.028.078M642.938 506.133l-.64-.303M655.313 496.451l-.604-.372M645.911 353.44h0M658.828 350.613l-.037.108-.051.107-.044.104-.013.014-.011.016-.017.022-.035.054-.068.095-.068.079-.11.105-.12.096-.13.081-.147.078-.149.054-.145.039M658.953 344.545l.087.43.096.423.066.442.054.44.03.44.027.442-.016.438-.01.437-.042.43-.043.438-.077.425-.085.443-.104.425-.11.415M658.323 343.72l.12.08.11.079.093.094.078.107.076.108.07.12.04.117.044.12M646.563 353.507l11.12-1.843M646.563 353.507l-.104.013h-.213l-.11-.013-.104-.03-.12-.037M658.323 343.72l-.6-.333M645.911 353.44l-.64-.268" style="fill:none;stroke:red;stroke-width:1.99999;stroke-linecap:round;stroke-linejoin:round;stroke-miterlimit:4;stroke-dasharray:none;stroke-opacity:1;visibility:visible"/><path d="m644.63 352.344-.041-.265M615.457 481.266l.012.028.041.037 5.81 3.136M621.322 484.467l.07.03.075.023.11.014h.2l.093-.014 1.35-.254M623.255 481.919l-.036 2.347M625.245 483.907l1.344-.256M626.589 483.65l.067-.01.069-.027.041-.026.011-.042M625.005 482.854l-1.75-.936" style="fill:none;stroke:red;stroke-width:.999997;stroke-linecap:round;stroke-linejoin:round;stroke-miterlimit:4;stroke-dasharray:none;stroke-opacity:1;visibility:visible"/><path d="m617.885 339.732-1.145 67.214M616.563 417.066l-1.105 64.2M629.287 345.224l-2.51 138.321" style="fill:none;stroke:red;stroke-width:1.99999;stroke-linecap:round;stroke-linejoin:round;stroke-miterlimit:4;stroke-dasharray:none;stroke-opacity:1;visibility:visible"/><path d="m556.443 462.76.177.08.183.05.203.027h.213l.196-.038.216-.052.197-.095.188-.119.186-.134.172-.162.161-.173.137-.197.119-.214.095-.213.078-.228.042-.227M559.005 461.066l-.137-.081M559.016 460.479l-.036-.213-.068-.186-.085-.189-.104-.159-.134-.144-.13-.121-.162-.108M558.98 460.52l-.083.013M559.016 460.479l-.036.041M558.35 314.161l.188.063.185.042.2.027.203-.013.196-.04.205-.066.195-.094.19-.106.187-.144.158-.152.15-.184.131-.188.117-.213.096-.213.068-.228.052-.226M560.87 312.426l-.145-.067M560.87 311.828l-.041-.201-.052-.187-.079-.188-.093-.16-.11-.145-.13-.136-.146-.107-.161-.077M560.828 311.867l-.08.012M560.87 311.828l-.041.039M557.988 304.479h-.067M565.74 308.64l.01-.056v-.052l.015-.036-.014-.056v-.04l-.011-.056M565.74 308.344v-.048l-.03-.045-.011-.027-.016-.037-.026-.014-.026-.029M565.672 314.12l.01-.027v-.145l-.01-.056M565.604 314.174h.027v-.013h.013l.012-.016v-.014l.016-.013M565.469 311.307l.016-.533.025-.535.068-.533.068-.534.094-.532M565.672 313.89l-.083-.503-.054-.508-.052-.52-.014-.52v-.532M563.75 462.599l.015-.025v-.04l.012-.027v-.04l-.012-.041v-.039M563.698 462.64h.025l.015-.013.012-.014v-.014M563.828 457.252v-.052l.016-.055v-.092l-.016-.042v-.051M563.552 459.867l.01-.523.042-.533.052-.519.084-.52.088-.52M563.764 462.387l-.083-.496-.061-.504-.044-.508-.024-.507v-.505M314.589 459.011l2.35 10.081M316.939 469.092l-.079-10.479M334.75 455.533l2.323 10.051M337.073 465.584l-.068-10.439M340.11 351.706l-3.68 3.534M354.802 452.08l2.295 10.039M357.097 462.119l-.055-10.424M340.11 351.706l16.519.305M382.776 447.252l2.256 10.013M385.032 457.265l-.027-10.386M402.589 443.84l2.229 9.99M404.818 453.83v-10.364M422.297 440.451l2.199 9.961M424.496 450.412l.014-10.346M442.646 335.44l-17.992 5.722M556.23 417.372l-.122 10.186M556.108 427.558l.122-10.186M559.337 317.907l-1.854-2.44M523.417 423.027l2.066 9.852M525.483 432.88l.095-10.224M118.552 385.307l-5.724 15.172M477.11 431.011l2.12 9.895M479.23 440.906l.057-10.28M449.802 435.706l2.162 9.935M451.964 445.641l.041-10.309M442.646 335.44l9.719 1.292M120.375 535.65l.401 1M120.203 535.532l.573 1.118M118.15 536.054l-4.785.692M154.776 529.4l-11.103 1.97M203.128 520.812l9.109-1.619M143.63 529.64l11.146-.24M212.237 519.193l-9.11 1.619" style="fill:none;stroke:red;stroke-width:.999997;stroke-linecap:round;stroke-linejoin:round;stroke-miterlimit:4;stroke-dasharray:none;stroke-opacity:1;visibility:visible"/><path d="m121.87 535.386.041-8.241M154.604 521.371l-11.12 1.973M143.458 521.879l11.146-.508" style="fill:none;stroke:red;stroke-width:.666665;stroke-linecap:round;stroke-linejoin:round;stroke-miterlimit:4;stroke-dasharray:none;stroke-opacity:1;visibility:visible"/><path d="m121.87 535.386.187-1.92M154.776 529.4l-11.146.24M203.128 520.812l8.734-3.269M143.63 529.64l11.11-1.962M211.862 517.543l-9.826 1.744M120.776 536.65l-1.284 2.202M120.776 536.65l1.735 1.658M496.443 427.678l2.093 9.88M498.536 437.557l.084-10.25" style="fill:none;stroke:red;stroke-width:.999997;stroke-linecap:round;stroke-linejoin:round;stroke-miterlimit:4;stroke-dasharray:none;stroke-opacity:1;visibility:visible"/><path d="m117.911 380.426-14.869-4.238" style="fill:none;stroke:red;stroke-width:1.99999;stroke-linecap:round;stroke-linejoin:round;stroke-miterlimit:4;stroke-dasharray:none;stroke-opacity:1;visibility:visible"/><path d="m117.911 380.426-8.28-.117M117.698 380.451l1.12 1.773M117.16 384.507l-1.474-1.783" style="fill:none;stroke:red;stroke-width:.999997;stroke-linecap:round;stroke-linejoin:round;stroke-miterlimit:4;stroke-dasharray:none;stroke-opacity:1;visibility:visible"/><path d="m557.776 459.08-13.916-3.227M552.589 456.585l-7.37-1.172M557.776 459.08l-12.557-3.667M143.458 521.879l11.12-1.96M154.604 521.371l-11.146.508M121.87 535.386l.013-9.692" style="fill:none;stroke:red;stroke-width:.666665;stroke-linecap:round;stroke-linejoin:round;stroke-miterlimit:4;stroke-dasharray:none;stroke-opacity:1;visibility:visible"/><path d="m166.135 484.585 2.547 10.242M168.682 494.827l-.198-10.64M167.135 416.266l.332 16.732M167.467 432.998l-.332-16.732M142.896 386.132l2.734 16.679M143.219 401.307l2.05-15.548M187.073 480.984l2.506 10.217M189.579 491.201l-.189-10.616M265.724 467.426l2.4 10.131M268.125 477.557l-.12-10.517" style="fill:none;stroke:red;stroke-width:.999997;stroke-linecap:round;stroke-linejoin:round;stroke-miterlimit:4;stroke-dasharray:none;stroke-opacity:1;visibility:visible"/><path d="m117.683 380.359 7.604 6.136" style="fill:none;stroke:red;stroke-width:.666665;stroke-linecap:round;stroke-linejoin:round;stroke-miterlimit:4;stroke-dasharray:none;stroke-opacity:1;visibility:visible"/><path d="m286.125 463.919 2.386 10.107M288.51 474.026l-.104-10.506M236.896 472.4l2.453 10.157M239.35 482.557l-.147-10.56M216.23 475.96l2.492 10.185M218.722 486.145l-.17-10.588M559.365 456.599l1.797-2.64M557.988 304.479l-7.864-3.626" style="fill:none;stroke:red;stroke-width:.999997;stroke-linecap:round;stroke-linejoin:round;stroke-miterlimit:4;stroke-dasharray:none;stroke-opacity:1;visibility:visible"/><path d="m565.672 313.892-18.906 5.452M559.98 310.573l-13.214 8.771" style="fill:none;stroke:red;stroke-width:.666665;stroke-linecap:round;stroke-linejoin:round;stroke-miterlimit:4;stroke-dasharray:none;stroke-opacity:1;visibility:visible"/><path d="m643.62 499.745 6.849 1.655M557.255 459.053l-1.37 2.026M559.042 314.293l-1.333-1.934M334.75 455.533l.068 10.452M337.073 465.584l-2.323-10.051M340.11 351.706l-5.959 3.909M354.802 452.08l.042 10.426M357.097 462.119l-2.295-10.039M340.11 351.706l14.265.668M382.776 447.252l.027 10.398M385.032 457.265l-2.256-10.013M402.589 443.84l-.002 10.373M404.818 453.83l-2.229-9.99M422.297 440.451l-.013 10.348M424.496 450.412l-2.199-9.961M449.802 435.706l-.037 10.32M451.964 445.641l-2.162-9.935M442.646 335.44l7.505 1.653" style="fill:none;stroke:red;stroke-width:.999997;stroke-linecap:round;stroke-linejoin:round;stroke-miterlimit:4;stroke-dasharray:none;stroke-opacity:1;visibility:visible"/><path d="m561.63 416.44-.12 10.186M561.51 426.626l.12-10.186" style="fill:none;stroke:red;stroke-width:1.99999;stroke-linecap:round;stroke-linejoin:round;stroke-miterlimit:4;stroke-dasharray:none;stroke-opacity:1;visibility:visible"/><path d="m552.656 451.626-2.812-1.452M550.219 418.413l-.122 10.186M550.097 428.6l.122-10.187M554.23 319.785l-2.88 1.148M120.178 535.506l-.043-1.251" style="fill:none;stroke:red;stroke-width:.999997;stroke-linecap:round;stroke-linejoin:round;stroke-miterlimit:4;stroke-dasharray:none;stroke-opacity:1;visibility:visible"/><path d="m118.552 385.307-12.349 10.973M118.552 385.307l.453 19.08" style="fill:none;stroke:red;stroke-width:1.99999;stroke-linecap:round;stroke-linejoin:round;stroke-miterlimit:4;stroke-dasharray:none;stroke-opacity:1;visibility:visible"/><path d="m496.443 427.678-.079 10.253M498.536 437.557l-2.093-9.879M477.11 431.011l-.068 10.282M479.23 440.906l-2.12-9.895" style="fill:none;stroke:red;stroke-width:.999997;stroke-linecap:round;stroke-linejoin:round;stroke-miterlimit:4;stroke-dasharray:none;stroke-opacity:1;visibility:visible"/><path d="m116.11 536.266-9.292-4.106M122.51 538.308l-2.067 3.412M154.896 535.572l-11.093 1.973M143.803 537.545l11.093-1.973" style="fill:none;stroke:red;stroke-width:1.99999;stroke-linecap:round;stroke-linejoin:round;stroke-miterlimit:4;stroke-dasharray:none;stroke-opacity:1;visibility:visible"/><path d="m523.417 423.027-.097 10.225M525.483 432.88l-2.066-9.853" style="fill:none;stroke:red;stroke-width:.999997;stroke-linecap:round;stroke-linejoin:round;stroke-miterlimit:4;stroke-dasharray:none;stroke-opacity:1;visibility:visible"/><path d="m118.818 382.224 7.244 6.6" style="fill:none;stroke:red;stroke-width:1.99999;stroke-linecap:round;stroke-linejoin:round;stroke-miterlimit:4;stroke-dasharray:none;stroke-opacity:1;visibility:visible"/><path d="m145.269 385.759-2.05 15.548M145.63 402.811l-2.734-16.679M187.073 480.984l.17 10.615M166.135 484.585l.214 10.656M168.682 494.827l-2.547-10.242M167.135 416.266l-2.028 17.122M167.467 432.998l-2.717-18.224M189.579 491.201l-2.506-10.217M216.23 475.96l.175 10.585M218.722 486.145l-2.492-10.185M286.125 463.919l.104 10.494M288.51 474.026l-2.385-10.107M314.589 459.011l.083 10.467M316.939 469.092l-2.35-10.081M265.724 467.426l.121 10.534M268.125 477.557l-2.401-10.131M236.896 472.4l.146 10.563M239.35 482.557l-2.454-10.157" style="fill:none;stroke:red;stroke-width:.999997;stroke-linecap:round;stroke-linejoin:round;stroke-miterlimit:4;stroke-dasharray:none;stroke-opacity:1;visibility:visible"/><path d="m558.295 459.358 2.975-14.146M625.005 482.854l1.814-1.523M623.256 481.918l-7.693-6.625M560.868 312.426l-18.213-5.547" style="fill:none;stroke:red;stroke-width:1.99999;stroke-linecap:round;stroke-linejoin:round;stroke-miterlimit:4;stroke-dasharray:none;stroke-opacity:1;visibility:visible"/><path d="m626.819 481.331-1.814 1.523" style="fill:none;stroke:red;stroke-width:.999997;stroke-linecap:round;stroke-linejoin:round;stroke-miterlimit:4;stroke-dasharray:none;stroke-opacity:1;visibility:visible"/><path d="m615.922 413.24.818-6.293M615.922 413.252l.641 3.814" style="fill:none;stroke:red;stroke-width:1.99999;stroke-linecap:round;stroke-linejoin:round;stroke-miterlimit:4;stroke-dasharray:none;stroke-opacity:1;visibility:visible"/><path d="m616.79 406.963-462.904 79.77" style="fill:none;stroke:#00ff4a;stroke-width:1.99999;stroke-linecap:round;stroke-linejoin:round;stroke-miterlimit:4;stroke-dasharray:none;stroke-opacity:1;visibility:visible" visibility="hidden"/><path d="m622.646 409.947-468.681 81M616.724 406.947h.027l.04.016 5.853 2.984" style="fill:none;stroke:#00ff4a;stroke-width:.999997;stroke-linecap:round;stroke-linejoin:round;stroke-miterlimit:4;stroke-dasharray:none;stroke-opacity:1;visibility:visible" visibility="hidden"/><path d="m622.604 416.011-468.478 81.348" style="fill:none;stroke:#00ff4a;stroke-width:1.99999;stroke-linecap:round;stroke-linejoin:round;stroke-miterlimit:4;stroke-dasharray:none;stroke-opacity:1;visibility:visible" visibility="hidden"/><path d="m73.297 397.08.016.027.01.038M77.406 398.89l2.839 104.786M85.99 375.372l-.385-.225-.375-.199-.385-.173-.378-.147-.368-.12-.374-.093-.375-.07-.36-.036-.37-.016-.365.016-.345.036" style="fill:none;stroke:#9500ff;stroke-width:.999997;stroke-linecap:round;stroke-linejoin:round;stroke-miterlimit:4;stroke-dasharray:none;stroke-opacity:1;visibility:visible" visibility="hidden"/><path d="m73.323 397.145-.01-.039-.018-.026M83.177 382.506l-.317.067-.323.104-.308.121-.307.176-.302.19-.299.223-.281.254-.264.277-.283.321-.248.334-.257.373-.238.397-.224.43-.213.45-.216.48-.201.508-.19.535-.169.55-.164.583-.144.599-.145.613-.12.64-.12.667-.104.681-.086.706-.076.709-.068.73-.052.75-.028.757-.024.775-.016.787v.798l.016.799M85.495 383.133l-.224-.136-.213-.119-.214-.093-.2-.093-.212-.066-.186-.053-.188-.04-.188-.039-.174-.016h-.172l-.174.016-.172.012M97.375 539.44l.068.053.052.063.068.07.057.08.052.094.052.09.052.106.052.123.042.12.04.12.044.137.025.13.035.147.028.147.029.145.028.147.01.145.025.15.017.133.01.144v.133l.017.136v.52l-.016.104-.011.122-.017.106-.01.106-.014.094-.027.082-.041.144-.052.109-.068.079-.063.053-.093.027h-.094l-.096-.043-.109-.063-.103-.094-.121-.12-.11-.146-.12-.17-.103-.19-.11-.2-.092-.213-.088-.241-.044-.122-.04-.144-.041-.134-.028-.135-.024-.132-.027-.147-.012-.132-.013-.134v-.119l-.016-.135v-.121l.016-.119.013-.12.012-.118.027-.12.024-.108.028-.107.041-.105.04-.095.052-.095.052-.065.058-.067.054-.068.067-.037.05-.041.07-.028.063-.014.068-.013.068.013.065.014.07.041.062.028M93.63 536.786l.052.055.068.05.052.068.068.08.052.095.057.107.052.104.042.108.052.12.034.133.034.124.036.13.026.147.042.148.026.144.015.147.027.147.01.148.014.144.017.133.01.148v.253l.017.132-.016.122v.238l-.011.122-.017.106-.014.106-.01.094-.027.082-.041.145-.052.108-.068.079-.078.053-.084.027h-.093l-.096-.042-.104-.064-.103-.094-.126-.119-.104-.147-.12-.17-.11-.19-.104-.2-.092-.212-.093-.229-.044-.133-.035-.132-.041-.134-.028-.149-.024-.132-.027-.13-.014-.135-.011-.134v-.132l-.016-.122v-.134l.016-.12.01-.12.015-.117.027-.108.024-.107.028-.12.041-.106.035-.095.057-.077.052-.082.055-.068.052-.052.065-.053.052-.041.07-.028.068-.012h.136l.06.028.069.025.068.04M90.1 531.359l77.156 54.615M163.99 424.545l-78-49.175M89.563 380.497l.057.036.063.052.057.067.063.081.057.079.052.109.052.107.052.106.042.118.04.12.038.136.026.133.04.133.028.144.026.148.031.158.01.149.025.148.017.143.01.136v.146l.017.134v.52l-.016.133-.011.121v.107l-.027.105-.014.108-.027.078-.041.149-.052.12-.068.092-.07.065-.086.043h-.094l-.096-.03-.109-.05-.103-.095-.121-.105-.117-.144-.112-.164-.118-.187-.104-.198-.094-.215-.083-.239-.052-.13-.044-.138-.024-.134-.036-.131-.027-.148-.03-.135-.011-.146-.016-.132v-.134l-.01-.12.01-.134v-.119l.016-.135.01-.117.031-.119.027-.109.025-.12.035-.108.057-.105.039-.094.057-.081.052-.064.052-.067.068-.053.066-.043.064-.037.068-.015.068-.013h.068l.065.013.064.026.068.045M93.35 382.879l.068.053.052.052.068.07.052.08.057.078.063.095.041.105.052.12.042.119.04.121.038.135.042.13.024.137.044.144.024.149.017.16.025.147.01.148.017.144.01.134.017.144v.134l.008.136v.265l-.008.12v.133l-.016.123-.011.107-.017.105-.01.107-.025.09-.041.147-.052.107-.068.108-.086.053-.076.039h-.096l-.104-.026-.109-.053-.103-.076-.121-.123-.11-.148-.12-.158-.117-.19-.104-.2-.094-.212-.083-.24-.052-.134-.044-.131-.024-.133-.036-.132-.027-.151-.03-.132-.011-.147-.016-.133v-.132l-.01-.123.01-.132v-.133l.016-.119.01-.12.031-.12.027-.106.025-.12.035-.123.057-.09.039-.094.057-.08.052-.068.068-.064.052-.057.066-.05.069-.028.063-.029h.136l.065.016.07.027.062.025" style="fill:none;stroke:#9500ff;stroke-width:.999997;stroke-linecap:round;stroke-linejoin:round;stroke-miterlimit:4;stroke-dasharray:none;stroke-opacity:1;visibility:visible" visibility="hidden"/><path d="m91.177 386.746-5.684-3.612" style="fill:none;stroke:#9500ff;stroke-width:1.99999;stroke-linecap:round;stroke-linejoin:round;stroke-miterlimit:4;stroke-dasharray:none;stroke-opacity:1;visibility:visible" visibility="hidden"/><path d="m80.245 503.678.027.79.041.813.052.798.068.827.077.815.095.825.104.825.11.828.134.828.147.827.145.812.161.828.172.815.188.809.198.801.213.802.212.773.23.787.24.758.24.746.266.749.255.719.274.706.283.696.281.678.308.656.29.637.309.615.317.6.322.572.32.562.333.519.333.504.334.481.333.454.347.438.345.402.35.372.343.35.347.316.35.295.36.253M167.86 592.545h0M167.86 592.545h0M167.818 592.066h0M167.828 592.251h0M180.802 584.975l-12.413 2.29M168.39 587.266l-.068.015-.052.026-.11.08-.087.079-.068.092-.052.12-.016.081-.018.07M167.922 587.829l-.063.584-.041.572-.041.523-.011.517v.95l.01.466.026.45.04.482.044.468.065.517.091.51M175.75 589.494v.147l-.028.132-.052.145-.052.136-.081.132-.094.121-.12.092-.104.096-.12.062-.12.056-.137.042-.12.023h-.133l-.12-.015-.104-.037-.12-.041-.083-.064-.079-.07-.08-.078-.052-.094-.057-.105-.024-.108-.028-.12v-.24l.028-.121.024-.119.044-.121.065-.104.07-.108.062-.106.092-.094.11-.08.106-.079.118-.053.121-.043.12-.027.12-.012.12.012.12.027.123.043.121.065.09.08.093.108.068.119.052.12.03.132.011.149M166.219 587.252l.068-.213.076-.199.105-.185.136-.188.144-.15.172-.144.19-.108.201-.081.184-.052M166.35 593.452l-.132-.6-.11-.601-.075-.6-.052-.612-.027-.627v-.628l.027-.623.052-.641.076-.641.109-.627" style="fill:none;stroke:#9500ff;stroke-width:.999997;stroke-linecap:round;stroke-linejoin:round;stroke-miterlimit:4;stroke-dasharray:none;stroke-opacity:1;visibility:visible" visibility="hidden"/><path d="M167.151 594.266h0" style="fill:none;stroke:#9500ff;stroke-width:1.99999;stroke-linecap:round;stroke-linejoin:round;stroke-miterlimit:4;stroke-dasharray:none;stroke-opacity:1;visibility:visible" visibility="hidden"/><path d="m166.844 594.133-.145-.095-.12-.12-.096-.145-.076-.16-.058-.16M179.911 583.641l.172-.015h.161l.162.024.154.044.148.079.135.08M167.495 585.932l12.417-2.29M166.323 593.413l.016.028.01.012M179.87 583.626h.016l.024.015M167.802 591.988h0" style="fill:none;stroke:#9500ff;stroke-width:.999997;stroke-linecap:round;stroke-linejoin:round;stroke-miterlimit:4;stroke-dasharray:none;stroke-opacity:1;visibility:visible" visibility="hidden"/><path d="M167.406 594.479h0" style="fill:none;stroke:#9500ff;stroke-width:1.99999;stroke-linecap:round;stroke-linejoin:round;stroke-miterlimit:4;stroke-dasharray:none;stroke-opacity:1;visibility:visible" visibility="hidden"/><path d="M167.86 592.534h0M167.818 592.066h0" style="fill:none;stroke:#9500ff;stroke-width:.999997;stroke-linecap:round;stroke-linejoin:round;stroke-miterlimit:4;stroke-dasharray:none;stroke-opacity:1;visibility:visible" visibility="hidden"/><path d="m144.484 567.092-3.255-148.597" style="fill:none;stroke:#9500ff;stroke-width:1.99999;stroke-linecap:round;stroke-linejoin:round;stroke-miterlimit:4;stroke-dasharray:none;stroke-opacity:1;visibility:visible" visibility="hidden"/><path d="m153.802 567.24-.028-.187-.035-.186-.082-.163-.096-.13-.128-.123-.136-.09-.162-.081-.172-.025-.172-.016-.186.026-.172.052-.178.082-.172.108-.145.133-.136.145-.104.178-.079.17M153.86 569.999l-.057-2.759M149.495 570.626l-3.197-148.92M164.552 430.963h0M164.563 431.118h0M165.11 425.8l-.07.012-.05.028-.121.067-.076.092-.068.093-.052.12-.028.081-.014.068M165.11 425.8l12.587-2.068M164.63 426.361l-.052.601-.052.57-.033.548-.024.533v.97l.016.471.025.466.04.506.052.48.07.531.078.52M170.63 428.557l.016-.144.025-.148.038-.147.065-.145.085-.12.094-.133.102-.107.104-.081.127-.08.12-.054.13-.028.135-.026h.12l.131.026.11.043.12.053.093.054.078.078.083.096.052.09.052.106.04.12.012.123.016.119v.12l-.028.134-.04.12-.041.12-.063.107-.068.107-.083.105-.096.08-.104.095-.102.066-.127.052-.117.04-.131.028-.12.015-.12-.015-.121-.028-.118-.054-.12-.064-.096-.08-.081-.108-.063-.118-.057-.134-.036-.136-.016-.147M176.792 422.44l.188-.013.18.013.19.039.177.068.145.093M164.219 424.507l12.573-2.068M162.911 425.84l.068-.21.076-.218.105-.188.136-.185.162-.16.172-.134.188-.105.197-.083.201-.05M163.042 432.2l-.132-.612-.117-.613-.084-.631-.052-.639-.028-.64v-.64l.028-.641.068-.65.076-.657.109-.637" style="fill:none;stroke:#9500ff;stroke-width:.999997;stroke-linecap:round;stroke-linejoin:round;stroke-miterlimit:4;stroke-dasharray:none;stroke-opacity:1;visibility:visible" visibility="hidden"/><path d="M163.922 433.08h0M163.62 432.96l-.161-.107-.146-.132-.109-.164-.095-.17-.069-.186" style="fill:none;stroke:#9500ff;stroke-width:1.99999;stroke-linecap:round;stroke-linejoin:round;stroke-miterlimit:4;stroke-dasharray:none;stroke-opacity:1;visibility:visible" visibility="hidden"/><path d="m176.792 422.44-.017-.013h-.024M164.219 424.507h-.041M162.911 425.84l-.017-.028-.011-.012M163.042 432.2l-.01-.013-.018-.014M164.526 430.761h0M164.552 430.947h0M164.537 430.84h0M170.672 428.828h0" style="fill:none;stroke:#9500ff;stroke-width:.999997;stroke-linecap:round;stroke-linejoin:round;stroke-miterlimit:4;stroke-dasharray:none;stroke-opacity:1;visibility:visible" visibility="hidden"/><path d="m73.297 397.08 2.863 104.64M90.27 396.6l2.719 104.613M94.1 372.44l-12.19 1.904M94.1 372.44l.333-.053.316-.015.334-.013.333.013.333.04.334.055.322.066.334.08.333.107.32.121.333.134.318.144.281.146.281.162.292.157M73.297 397.08l-.01-.735-.018-.718v-.72l.017-.707.011-.705.027-.695.025-.692.057-.681.035-.68.052-.654.07-.652.083-.654.076-.626.08-.614.094-.614.109-.601.103-.585.121-.574.12-.56.136-.546.145-.547.144-.521.148-.52.178-.504.156-.48.177-.467.197-.481.188-.452.198-.443.213-.428.23-.412.223-.385.23-.388.248-.36.257-.348.255-.332.264-.32.281-.292.276-.279.273-.253.29-.228.282-.214.308-.2.307-.186.303-.159.322-.147.318-.122.333-.103.333-.083.35-.068M91.177 386.746l-.08.333-.11.44-.091.47-.08.462-.092.495-.07.495-.076.505-.052.505-.068.534-.041.534-.052.535-.027.545-.041.546-.01.561-.018.573-.013.575v1.157l.013.588M89.552 538.906l76.822 54.679M102.885 529.387l41.368 29.052M155.552 566.372l24.53 17.241M176.964 422.413l-78.068-48.828M163.073 432.344l-71.896-45.599M89.552 538.906l-.35-.265-.345-.279-.346-.296-.35-.307-.344-.332-.333-.348-.348-.374-.335-.374-.333-.398-.317-.426-.334-.428-.322-.438-.318-.467-.308-.468-.306-.493-.31-.492-.3-.52-.309-.536-.295-.547-.292-.56-.292-.573-.281-.586-.281-.588-.283-.61-.264-.612-.265-.626-.255-.632-.25-.637-.242-.64-.237-.653-.246-.668-.224-.679-.229-.681-.213-.679-.208-.696-.206-.701-.196-.708-.202-.722-.188-.706-.172-.708-.172-.72-.174-.722-.149-.717-.156-.736-.148-.728-.133-.737-.138-.732-.118-.734-.119-.736-.104-.73-.11-.748-.094-.735-.088-.69-.084-.707-.068-.707-.061-.707-.058-.693-.052-.707-.044-.694-.034-.694-.028-.68-.03-.678M92.99 501.212l.027.628.025.639.04.638.044.655.052.653.052.654.065.654.08.666.084.654.094.667.104.652.092.656.121.636.12.653.12.646.133.65.148.638.146.64.146.629.162.624.172.63.161.613.187.61.172.602.204.601.181.584.204.588.213.575.214.572.213.546.213.548.224.532.23.519.24.51.224.49.237.481.241.468.254.452.241.455.256.427.25.412.253.4.257.385.248.363.257.346.255.334.25.306.255.29.255.282.25.266.254.254.241.226.255.217.24.184.24.175M168.323 594.64l-.161.024h-.146l-.158-.01-.134-.027-.148-.054-.133-.066-.036-.028M180.724 592.331l-12.401 2.308M181.922 591.212l-.052.147-.052.148-.08.134-.065.104-.027.027-.041.056-.068.063-.104.106-.12.096-.138.08-.144.066-.145.057-.161.035" style="fill:none;stroke:#9500ff;stroke-width:1.99999;stroke-linecap:round;stroke-linejoin:round;stroke-miterlimit:4;stroke-dasharray:none;stroke-opacity:1;visibility:visible" visibility="hidden"/><path d="m181.802 584.947.12.441.11.452.093.44.068.452.052.468.04.451.012.457v.45l-.012.453-.04.441-.052.455-.068.437-.094.442-.109.426M181.365 584.28l.104.092.092.107.085.12.063.105.057.124.036.119M167.406 594.479l-.563-.345M181.35 584.266l-.505-.412" style="fill:none;stroke:#9500ff;stroke-width:1.99999;stroke-linecap:round;stroke-linejoin:round;stroke-miterlimit:4;stroke-dasharray:none;stroke-opacity:1;visibility:visible" visibility="hidden"/><path d="m155.62 569.585-.017.028-.024.028-.052.037-.068.016-.086.027M151.578 570.413l-1.523.279M151.526 567.65l.052 2.761M151.62 567.133l-.057.173-.036.171v.173M155.375 569.72l-1.516.279M150.057 570.692l-.104.012h-.213l-.11-.027-.078-.013-.058-.037M151.62 567.133l2 1.412M149.495 570.626l-5.01-3.533" style="fill:none;stroke:#9500ff;stroke-width:.999997;stroke-linecap:round;stroke-linejoin:round;stroke-miterlimit:4;stroke-dasharray:none;stroke-opacity:1;visibility:visible" visibility="hidden"/><path d="m155.62 569.585-3.017-143.878M178.193 423.011h0M164.177 433.266h0M178.828 430.186l-.036.145-.068.147-.08.135-.065.092-.016.028-.039.053-.065.068-.068.064-.138.108-.128.092-.148.083-.12.05-.117.042-.136.025" style="fill:none;stroke:#9500ff;stroke-width:1.99999;stroke-linecap:round;stroke-linejoin:round;stroke-miterlimit:4;stroke-dasharray:none;stroke-opacity:1;visibility:visible" visibility="hidden"/><path d="m178.708 423.76.136.441.11.466.077.452.078.466.052.47.042.466.016.464v.468l-.028.467-.04.453-.052.455-.068.453-.094.454-.109.452M178.193 423.011l.12.095.104.106.092.12.08.134.068.133.052.16M165.031 433.4l12.573-2.081M165.031 433.4l-.161.013h-.146l-.164-.013-.128-.028-.137-.05-.12-.055M178.193 423.011l-.523-.37M164.177 433.266l-.557-.305" style="fill:none;stroke:#9500ff;stroke-width:1.99999;stroke-linecap:round;stroke-linejoin:round;stroke-miterlimit:4;stroke-dasharray:none;stroke-opacity:1;visibility:visible" visibility="hidden"/><path d="m89.552 538.906 7.823.534M89.552 538.906l4.078-2.12M85.495 383.133l4.068-2.636M93.35 382.879l-3.787-2.382M89.563 380.497l3.787 2.382" style="fill:none;stroke:#9500ff;stroke-width:.999997;stroke-linecap:round;stroke-linejoin:round;stroke-miterlimit:4;stroke-dasharray:none;stroke-opacity:1;visibility:visible" visibility="hidden"/><path d="m144.484 567.093-.231-8.654M153.62 568.545l1.932-2.173" style="fill:none;stroke:#9500ff;stroke-width:1.99999;stroke-linecap:round;stroke-linejoin:round;stroke-miterlimit:4;stroke-dasharray:none;stroke-opacity:1;visibility:visible" visibility="hidden"/><path d="m155.552 566.372-1.932 2.173" style="fill:none;stroke:#9500ff;stroke-width:.999997;stroke-linecap:round;stroke-linejoin:round;stroke-miterlimit:4;stroke-dasharray:none;stroke-opacity:1;visibility:visible" visibility="hidden"/><path d="m120.375 535.65 8.203-6.488" style="fill:none;stroke:red;stroke-width:.666665;stroke-linecap:round;stroke-linejoin:round;stroke-miterlimit:4;stroke-dasharray:none;stroke-opacity:1;visibility:visible"/><path d="m622.604 416.011-6.616-.718M616.724 406.947l-.736 8.346" style="fill:none;stroke:red;stroke-width:.999997;stroke-linecap:round;stroke-linejoin:round;stroke-miterlimit:4;stroke-dasharray:none;stroke-opacity:1;visibility:visible"/><path d="m615.988 415.293 6.616.718" style="fill:none;stroke:#00ff4a;stroke-width:1.99999;stroke-linecap:round;stroke-linejoin:round;stroke-miterlimit:4;stroke-dasharray:none;stroke-opacity:1;visibility:visible" visibility="hidden"/><path d="m145.63 402.811-4.4 15.684" style="fill:none;stroke:#9500ff;stroke-width:1.99999;stroke-linecap:round;stroke-linejoin:round;stroke-miterlimit:4;stroke-dasharray:none;stroke-opacity:1;visibility:visible" visibility="hidden"/><path d="m145.63 402.811.668 18.895" style="fill:none;stroke:#9500ff;stroke-width:.999997;stroke-linecap:round;stroke-linejoin:round;stroke-miterlimit:4;stroke-dasharray:none;stroke-opacity:1;visibility:visible" visibility="hidden"/><path d="m164.75 414.774-12.147 10.933" style="fill:none;stroke:#9500ff;stroke-width:1.99999;stroke-linecap:round;stroke-linejoin:round;stroke-miterlimit:4;stroke-dasharray:none;stroke-opacity:1;visibility:visible" visibility="hidden"/></svg>