<svg xmlns="http://www.w3.org/2000/svg" baseProfile="full" height="1122.52" preserveAspectRatio="xMinYMin meet" style="width:1370px;height:1303px" width="793.701" xml:space="preserve"><path d="m310.8 573.285-.045-.036-.019-.036M317.551 575.873l-6.284-2.679M253.642 635.233l-.064.153-.073.144-.07.118-.09.098-.1.09-.116.081" style="fill:none;stroke:red;stroke-width:.999997;stroke-linecap:round;stroke-linejoin:round;stroke-miterlimit:4;stroke-dasharray:none;stroke-opacity:1;visibility:visible"/><path d="m252.57 629.57.235.233.216.254.188.277.178.307.147.314.133.342.099.35.09.368.055.378.035.389.01.401-.02.406-.035.404-.063.414-.09.414-.106.413M251.448 628.86l-6.536-3.21M251.448 628.86l.088.044.101.053.099.055.107.063.098.053.099.056.092.053.09.064.097.062.092.064.089.072.07.07M244.75 625.587h.028l.027.01.026.017.036.018.044.019M250.188 631.17l.083.027.081.018h.072l.08-.009.063-.036.062-.044.046-.055.044-.07.037-.091.017-.099.008-.117v-.117l-.025-.116-.028-.127-.053-.133-.063-.127-.081-.145-.091-.134-.097-.126-.099-.118-.117-.106-.108-.091-.108-.072-.099-.063M249.812 629.219l-.099-.033-.081-.022h-.08l-.063.022-.054.033-.038.055-.025.072-.019.098v.099l.01.108M345.887 579.712l-29.657 15.436M316.176 595.172l-64.728 33.688M701.41 723.199l-.313.255-.315.277-.307.315-.306.341-.295.36-.288.387-.287.412-.269.424-.26.449-.253.457-.234.476-.217.478-.204.494-.183.486-.169.504-.145.494-.124.495-.108.484-.083.479-.061.474-.038.45-.016.44v.432l.024.405.054.377.074.359.09.332.114.307.136.278.154.252.17.218.198.177.208.155.225.108M704.163 722.48l-.235-.072-.241-.044-.253-.008-.27.015-.278.056-.29.089-.286.127-.296.153-.307.188-.296.215M388.68 702.136l-.064.153-.072.134-.072.117-.09.11-.1.089-.115.09M387.887 696.05l.224.241.2.263.179.296.161.313.136.344.108.359.09.37.062.394.045.413.01.414-.01.432-.036.438-.054.451-.088.45-.11.45-.124.457M386.666 695.286l-8.02-3.947M386.666 695.286l.108.045.117.063.116.063.127.064.107.062.1.063.097.063.099.062.101.063.088.073.088.074.073.07M378.412 691.249h.036l.037.02.035.017.055.018.072.036M384.679 697.508l.097.008.092-.008.088-.028.082-.045.062-.063.064-.07.044-.091.038-.11.016-.116.01-.125-.017-.135-.028-.134-.044-.146-.064-.133-.09-.164-.1-.143-.107-.136-.116-.133-.135-.117-.127-.108-.133-.091-.117-.06M384.193 695.36l-.117-.055-.107-.028-.1-.008-.092.008-.07.038-.053.053-.045.07-.036.1-.019.109M482.938 637.301l-95.301 58.532M465.866 734.186l-8.955-4.404M456.616 729.663h.019l.025.01.045.02.046.015.07.036.091.036M467.736 741.298l-.064.15-.061.135-.08.118-.083.098-.099.1-.116.09" style="fill:none;stroke:red;stroke-width:.999997;stroke-linecap:round;stroke-linejoin:round;stroke-miterlimit:4;stroke-dasharray:none;stroke-opacity:1;visibility:visible"/><path d="m467.144 734.985.205.245.2.268.159.307.155.323.117.341.099.377.081.388.055.403.016.423.01.441-.026.45-.046.457-.072.469-.1.475-.116.477-.145.47M465.866 734.186l.117.055.134.072.126.064.127.069.108.065.107.062.108.064.098.061.102.072.088.072.089.072.073.072M563.107 669.227l-97.241 64.959M315.59 660.369l-7.217-3.55M317.703 666.976l-.055.153-.072.136-.08.116-.09.108-.099.092-.117.09M316.76 661.107l.233.235.207.26.188.288.163.305.142.333.127.35.097.36.072.377.056.396.018.403v.416l-.018.421-.056.432-.072.43-.097.433-.117.43" style="fill:none;stroke:red;stroke-width:.999997;stroke-linecap:round;stroke-linejoin:round;stroke-miterlimit:4;stroke-dasharray:none;stroke-opacity:1;visibility:visible"/><path d="m315.59 660.369.099.045.108.064.109.054.116.062.099.055.1.063.098.054.09.062.098.072.091.064.09.072.073.072M411.246 607.8l-95.656 52.57M556.341 785.193l-.055.145-.072.126-.072.109-.08.107-.089.098-.119.09M556 778.641l.197.252.172.27.16.306.127.33.108.36.081.378.063.405.036.422.008.441-.019.459-.034.466-.062.478-.089.494-.119.495-.134.501-.152.495M554.668 777.805l-10.07-4.953M554.668 777.805l.136.063.133.072.136.073.135.072.125.07.108.063.107.063.1.072.1.072.097.073.082.071.072.072M544.23 772.708h.02l.035.007.045.02.07.026.082.036.116.054M551.917 779.656l.083-.07.07-.1.063-.109.036-.125.01-.135v-.145l-.027-.143-.036-.153-.063-.152-.1-.179-.107-.162-.117-.154-.144-.152-.141-.134-.166-.127-.152-.099-.153-.089M550.973 777.428l-.143-.064-.145-.036-.133-.027-.116.01-.108.026-.082.044-.073.074-.061.097M651.077 707.943l-17.513 12.695M633.564 720.637l-78.896 57.167" style="fill:none;stroke:red;stroke-width:.999997;stroke-linecap:round;stroke-linejoin:round;stroke-miterlimit:4;stroke-dasharray:none;stroke-opacity:1;visibility:visible"/><path d="m312.202 571.898-1.196.612M310.736 573.212l-.01-.1-.009-.088.01-.099.018-.09.036-.082.044-.08.038-.045.036-.044.053-.047.053-.026M313.007 588.942l-2.27-15.73M320.284 586.563l-1.061-.693M319.034 585.546l-1.297-8.457M319.034 585.546l.008.027v.029l.019.027.008.034.02.027.008.037.028.035.017.027.019.029.025.017.019.018.009.009.01.008" style="fill:none;stroke:red;stroke-width:1.99999;stroke-linecap:round;stroke-linejoin:round;stroke-miterlimit:4;stroke-dasharray:none;stroke-opacity:1;visibility:visible"/><path d="m329.624 581.024-12.073-5.15" style="fill:none;stroke:red;stroke-width:.999997;stroke-linecap:round;stroke-linejoin:round;stroke-miterlimit:4;stroke-dasharray:none;stroke-opacity:1;visibility:visible"/><path d="m252.778 635.944-4.5-2.236M253.13 635.917l-.063.028-.064.017-.054.01h-.052l-.064-.01-.055-.017M245.038 625.867l-.09-.081-.073-.072-.053-.044-.036-.046-.027-.026-.009-.01M246.369 630.271l.035-.404.02-.404-.01-.397-.036-.387-.054-.377-.091-.367-.099-.352-.133-.333-.155-.324-.17-.296-.196-.279-.208-.25-.234-.235M339.226 576.916l-.055-.017-.053-.01h-.053l-.054.018-.064.017-.064.028" style="fill:none;stroke:red;stroke-width:1.99999;stroke-linecap:round;stroke-linejoin:round;stroke-miterlimit:4;stroke-dasharray:none;stroke-opacity:1;visibility:visible"/><path d="m345.887 579.712-6.661-2.796M346.067 580.846l.027-.119.026-.125.019-.117.01-.107v-.108l-.01-.099-.01-.09-.018-.091-.035-.088-.044-.073-.064-.072-.081-.046" style="fill:none;stroke:red;stroke-width:.999997;stroke-linecap:round;stroke-linejoin:round;stroke-miterlimit:4;stroke-dasharray:none;stroke-opacity:1;visibility:visible"/><path d="m346.84 586.338-.199-.225-.18-.251-.161-.28-.144-.296-.124-.307-.11-.332-.08-.341-.063-.359-.036-.369-.018-.377v-.378l.028-.397.044-.393.071-.398.081-.394.118-.395" style="fill:none;stroke:red;stroke-width:.999997;stroke-linecap:round;stroke-linejoin:round;stroke-miterlimit:4;stroke-dasharray:none;stroke-opacity:1;visibility:visible"/><path d="m347.047 586.625.008-.017-.019-.028-.026-.044-.035-.047-.064-.061-.07-.09M338.883 576.953l-23.157 11.965M315.726 588.942l-70.974 36.645M347.047 586.625l-30.225 15.865M316.76 602.522l-63.632 33.395M314.494 560.536l45.805 19.032M360.299 579.57l343.863 142.912M310.125 571.019l22.079 9.385M412.206 614.407l11.973 5.085M346.957 586.68l49.936 21.22M424.18 619.492l43.475 18.483M483.711 644.797l23.195 9.853M564.209 679.007l69.562 29.565M506.905 654.65l35.272 14.993M651.4 716.07l46.981 19.959M704.163 722.48l.224.099.207.1.214.108.208.116.207.117.197.125.198.135.189.136.19.143.18.153.18.152.17.163.17.17.162.171.153.17.154.182.141.188.145.188.127.199.133.186.119.208.116.207.108.208.097.207.092.214.09.216.08.226.073.216.063.225.062.225.054.232.045.224.036.235.028.224.017.233.018.235.009.233v.234l-.01.233-.017.225-.017.234-.036.234-.037.224-.046.226-.053.233-.053.216-.072.225-.072.224-.082.218-.089.214-.09.208-.1.216-.107.198-.118.206-.128.196-.122.199-.135.19-.133.18-.155.187-.143.171-.164.172-.161.17-.17.163-.171.151-.18.153-.18.144-.187.143-.19.135-.198.128-.207.117-.2.115-.204.109-.216.108-.217.09-.216.09-.224.08-.216.08-.233.065-.226.062-.224.054-.233.044-.235.046-.233.028-.235.026-.232.018-.242.009-.235.008-.233-.008-.242-.01-.236-.017-.233-.026-.233-.036-.234-.038-.233-.044-.235-.062-.225-.054-.224-.073-.224-.072-.227-.09-.214-.089M310.125 571.019l-.207-.09-.189-.106-.188-.128-.19-.135-.17-.153-.161-.163-.154-.168-.145-.181-.124-.197-.127-.208-.117-.215-.099-.217-.09-.24-.079-.246-.072-.25-.055-.26-.045-.27-.037-.272-.016-.285-.008-.29.008-.287.016-.286.028-.298.045-.296.055-.298.072-.297.08-.287.098-.297.099-.287.117-.278.127-.279.143-.268.144-.272.162-.252.17-.25.172-.245.189-.225.188-.223.207-.216.206-.198.216-.178.215-.182.225-.16.224-.146.235-.134.244-.118.241-.106.235-.09.243-.072.242-.054.242-.046.244-.028.242-.008.244.008.206.019.216.037.205.054.199.054.197.08M387.654 702.892l-5.68-2.824M388.167 702.829l-.09.047-.09.034-.081.018h-.082l-.08-.008-.09-.028M378.637 691.501l-.07-.072-.065-.063-.045-.044-.027-.037-.018-.027v-.009M379.447 697.56l.125-.45.108-.449.08-.449.063-.441.037-.44.007-.432-.016-.412-.045-.406-.063-.396-.09-.377-.118-.35-.133-.343-.162-.312-.18-.29-.197-.268-.225-.244M474.857 633.902l-.081-.024-.082-.01-.081.01-.08.016-.083.027-.089.045" style="fill:none;stroke:red;stroke-width:1.99999;stroke-linecap:round;stroke-linejoin:round;stroke-miterlimit:4;stroke-dasharray:none;stroke-opacity:1;visibility:visible"/><path d="m482.938 637.3-8.081-3.399M483.18 638.568l.036-.135.028-.133.019-.127.008-.125v-.117l-.018-.11-.018-.106-.027-.099-.045-.1-.055-.088-.079-.073-.092-.055M483.667 644.466l-.19-.243-.162-.269-.152-.288-.127-.305-.098-.334-.09-.349-.061-.361-.045-.386-.019-.396v-.405l.019-.413.045-.422.07-.432.08-.429.12-.433.123-.432" style="fill:none;stroke:red;stroke-width:.999997;stroke-linecap:round;stroke-linejoin:round;stroke-miterlimit:4;stroke-dasharray:none;stroke-opacity:1;visibility:visible"/><path d="m483.81 644.737.008-.02v-.036l-.017-.035-.036-.046-.046-.062-.052-.072M474.361 633.967l-94.902 55.824M483.81 644.737l-95.642 58.092M456.804 729.906l-.063-.063-.054-.062-.035-.046-.028-.026-.008-.028v-.018M457.425 736.19l.144-.467.116-.477.1-.468.061-.465.055-.452.017-.448v-.442l-.034-.422-.046-.404-.08-.387-.098-.37-.127-.34-.152-.323-.172-.298-.19-.278-.215-.243M466.612 742.079l-6.023-2.99M467.233 741.989l-.108.063-.108.045-.099.016-.098.01-.1-.01-.108-.035M562.784 678.401l-95.55 63.588M552.373 665.156l-95.756 64.507M308.434 657.007l-.081-.072-.071-.063-.044-.054-.037-.036-.016-.026-.01-.01M309.7 661.36l.028-.217.017-.424v-.404l-.025-.406-.055-.394-.072-.378-.097-.36-.128-.352-.143-.321-.162-.307-.188-.288-.215-.26-.227-.242M316.769 667.705l-5.06-2.515M317.19 667.67l-.08.035-.073.018-.062.019h-.072l-.062-.01-.072-.027M411.66 613.67l-94.47 54M404.585 605.003l-96.41 51.743M555.1 785.994l-6.27-3.11M555.855 785.868l-.125.083-.124.053-.118.036-.126.017-.127-.017-.133-.045M544.375 772.932l-.053-.063-.036-.054-.036-.035-.019-.028-.008-.027.008-.017M544.753 779.458l.152-.503.136-.494.108-.494.09-.486.062-.475.036-.47.017-.449-.017-.441-.036-.423-.063-.394-.08-.388-.108-.348-.136-.334-.161-.305-.172-.279-.205-.244M641.062 703.736l-.127-.035-.124-.009-.117.019-.117.033-.118.056-.116.072" style="fill:none;stroke:red;stroke-width:1.99999;stroke-linecap:round;stroke-linejoin:round;stroke-miterlimit:4;stroke-dasharray:none;stroke-opacity:1;visibility:visible"/><path d="m651.077 707.943-10.016-4.208M651.418 709.392l.035-.144.038-.153.016-.144v-.279l-.016-.127-.028-.114-.045-.11-.053-.117-.074-.097-.1-.099-.114-.064M651.444 715.738l-.161-.25-.136-.271-.116-.306-.098-.322-.081-.351-.053-.379-.038-.386-.008-.411.008-.425.028-.439.051-.46.075-.459.098-.466.11-.478.133-.476.161-.466" style="fill:none;stroke:red;stroke-width:.999997;stroke-linecap:round;stroke-linejoin:round;stroke-miterlimit:4;stroke-dasharray:none;stroke-opacity:1;visibility:visible"/><path d="m651.526 715.982.017-.028v-.028l-.008-.035-.018-.037-.026-.052-.048-.064M640.343 703.872l-15.724 11.255M624.619 715.127l-80.388 57.581M651.526 715.982l-14.295 10.436M637.232 726.418l-81.377 59.45" style="fill:none;stroke:red;stroke-width:1.99999;stroke-linecap:round;stroke-linejoin:round;stroke-miterlimit:4;stroke-dasharray:none;stroke-opacity:1;visibility:visible"/><path d="m462.864 736.436.097.01.091-.01.09-.028.082-.045.061-.062.063-.072.045-.09.036-.107.018-.117.01-.127-.018-.135-.028-.134-.044-.144-.064-.135-.088-.164-.102-.141-.106-.135-.116-.136-.135-.117-.127-.108-.133-.09-.117-.061M462.378 734.288l-.117-.055-.108-.026-.099-.01-.09.01-.071.036-.055.052-.044.073-.037.099-.018.108M313.812 662.935l.097.01.091-.01.09-.028.08-.044.063-.064.063-.07.045-.091.036-.108.018-.116.009-.127-.017-.135-.028-.133-.046-.145-.062-.134-.09-.164-.1-.144-.106-.136-.118-.133-.134-.117-.127-.108-.132-.088-.117-.063M313.326 660.787l-.119-.053-.106-.03-.1-.008-.091.008-.07.036-.054.055-.045.07-.036.1-.018.109" style="fill:none;stroke:red;stroke-width:.999997;stroke-linecap:round;stroke-linejoin:round;stroke-miterlimit:4;stroke-dasharray:none;stroke-opacity:1;visibility:visible"/><path d="m553.091 665.019-.125-.035-.126-.009-.117.019-.117.036-.116.056-.118.07" style="fill:none;stroke:red;stroke-width:1.99999;stroke-linecap:round;stroke-linejoin:round;stroke-miterlimit:4;stroke-dasharray:none;stroke-opacity:1;visibility:visible"/><path d="m563.107 669.227-10.016-4.208M563.448 670.675l.036-.141.037-.156.016-.143v-.279l-.016-.126-.028-.118-.045-.108-.053-.114-.074-.1-.098-.099-.116-.064M563.474 677.021l-.161-.25-.135-.271-.117-.306-.099-.321-.08-.353-.055-.378-.034-.386-.01-.412.01-.424.026-.44.052-.459.074-.46.098-.465.11-.478.133-.476.161-.468" style="fill:none;stroke:red;stroke-width:.999997;stroke-linecap:round;stroke-linejoin:round;stroke-miterlimit:4;stroke-dasharray:none;stroke-opacity:1;visibility:visible"/><path d="m563.555 677.265.02-.027v-.026l-.01-.038-.018-.036-.025-.053-.048-.064" style="fill:none;stroke:red;stroke-width:1.99999;stroke-linecap:round;stroke-linejoin:round;stroke-miterlimit:4;stroke-dasharray:none;stroke-opacity:1;visibility:visible"/><path d="m411.246 607.8-6.661-2.797M411.426 608.932l.028-.116.025-.13.019-.114.01-.108v-.107l-.01-.098-.008-.091-.02-.092-.035-.088-.045-.07-.064-.074-.08-.044M412.2 614.425l-.199-.227-.18-.25-.161-.279-.145-.296-.126-.308-.106-.33-.082-.343-.062-.359-.038-.368-.017-.379v-.378l.028-.395.045-.395.071-.397.08-.393.117-.396M249.812 629.219l.376 1.951" style="fill:none;stroke:red;stroke-width:.999997;stroke-linecap:round;stroke-linejoin:round;stroke-miterlimit:4;stroke-dasharray:none;stroke-opacity:1;visibility:visible"/><path d="m315.726 588.918-3.524-17.02M317.737 577.089l-4.73 11.853M310.736 573.212l7 3.877" style="fill:none;stroke:red;stroke-width:1.99999;stroke-linecap:round;stroke-linejoin:round;stroke-miterlimit:4;stroke-dasharray:none;stroke-opacity:1;visibility:visible"/><path d="m339.226 576.916-9.602 4.108" style="fill:none;stroke:red;stroke-width:.999997;stroke-linecap:round;stroke-linejoin:round;stroke-miterlimit:4;stroke-dasharray:none;stroke-opacity:1;visibility:visible"/><path d="m251.448 628.86-3.17 4.848M339.226 576.916l-7.022 3.488M404.585 605.003l-7.692 2.897M474.857 633.901l-7.202 4.074M563.107 669.227l1.102 9.78M641.061 703.735l-7.29 4.837M553.091 665.019l-10.914 4.624M384.193 695.36l-2.219 4.708M388.167 702.829l-8.708-13.038M462.378 734.288l-1.789 4.8M552.372 665.156l10.412 13.245M313.326 660.787l-1.617 4.403M550.973 777.428l-2.142 5.455M556.341 785.193l-11.588-5.735" style="fill:none;stroke:red;stroke-width:1.99999;stroke-linecap:round;stroke-linejoin:round;stroke-miterlimit:4;stroke-dasharray:none;stroke-opacity:1;visibility:visible"/><path d="M352.279 717.886h.108l.097-.017.074-.044.062-.064.054-.091.036-.116.018-.143v-.172l-.009-.188-.027-.208-.045-.214-.055-.234-.07-.244-.046-.133-.053-.135-.056-.137-.053-.124-.063-.127-.061-.117-.063-.115-.072-.118-.081-.107-.083-.11-.08-.098-.09-.09-.09-.082-.09-.07-.089-.063-.09-.054M351.361 714.472l-.09-.037-.09-.038-.097-.025-.091-.01-.09-.009-.1.01-.08.017-.09.027-.079.038-.073.036-.135.107-.053.07-.056.073-.053.082-.035.09-.056.189M578.95 818.664l-.277-.117-.306-.08-.316-.036-.322-.01-.343.046-.359.073-.36.115-.368.152-.377.198-.379.224-.377.262-.377.304-.378.325-.369.359-.36.397-.359.413-.341.44-.332.468-.316.487-.305.492-.279.521-.27.523-.242.539-.225.54-.198.538-.17.55-.155.538-.124.542-.09.528-.073.513-.045.504-.017.485.017.468.037.439.063.424.099.395.117.361.153.34.17.297.189.268.223.235.236.199.261.16M518.628 804.46l.153.017.144-.008.118-.037.098-.053.079-.082.073-.116.055-.153.027-.18.008-.197-.018-.218-.026-.23-.055-.263-.072-.261-.045-.152-.054-.152-.062-.155-.063-.143-.072-.134-.072-.144-.08-.135-.092-.135-.088-.125-.099-.119-.108-.114-.109-.11-.108-.1-.115-.088-.11-.072-.116-.064M517.818 800.738l-.115-.055-.118-.042-.118-.039-.116-.025-.125-.01h-.117l-.108.01-.116.025-.099.028-.1.045-.179.11-.082.061-.072.08-.071.083-.052.097-.083.188-.053.208-.01.225" style="fill:none;stroke:#00ff4a;stroke-width:.999997;stroke-linecap:round;stroke-linejoin:round;stroke-miterlimit:4;stroke-dasharray:none;stroke-opacity:1;visibility:visible"/><path d="m352.305 715.605-.063-.117-.053-.118" style="fill:none;stroke:#00ff4a;stroke-width:.999997;stroke-linecap:round;stroke-linejoin:round;stroke-miterlimit:4;stroke-dasharray:none;stroke-opacity:1;visibility:visible"/><path d="m192.752 621.893 386.196 196.77M518.801 805.517l52.905 27.567M427.134 757.753l85.704 44.657M352.463 718.846l71.176 37.085M280.727 681.313l65.725 34.401M218.278 648.926l58.861 30.61M187.045 632.654l26.624 13.872M578.95 818.664l.227.125.224.127.216.135.214.134.207.154.21.152.205.162.189.16.197.172.179.18.181.188.17.19.17.188.162.208.154.205.152.207.144.218.135.214.127.225.125.225.108.224.108.236.11.242.089.233.08.243.08.242.073.252.063.251.054.243.044.253.035.261.037.251.018.252.017.26v.513l-.008.252-.019.251-.026.26-.028.252-.043.253-.055.25-.054.242-.064.254-.07.242-.082.242-.088.236-.102.232-.097.234-.108.234-.127.225-.116.215-.134.224-.136.209-.154.204-.15.208-.154.199-.161.196-.17.189-.182.18-.18.18-.19.172-.186.16-.208.161-.197.144-.207.154-.216.136-.215.133-.225.127-.225.116-.224.109-.235.108-.235.09-.233.09-.241.081-.243.072-.252.062-.243.064-.252.044-.252.045-.25.036-.254.027-.25.017-.262.01h-.25l-.262-.01-.25-.017-.252-.018-.254-.026-.26-.046-.242-.045-.252-.055-.252-.064-.242-.07-.244-.072-.241-.09-.244-.09-.233-.099-.234-.108-.233-.117M187.045 632.654l-.216-.127-.216-.144-.207-.15-.197-.172-.181-.18-.178-.199-.154-.197-.152-.215-.136-.227-.115-.241-.119-.243-.098-.25-.08-.271-.074-.27-.064-.287-.036-.288-.034-.288-.008-.296v-.306l.008-.305.026-.316.044-.315.064-.304.074-.316.08-.306.108-.314.109-.305.133-.297.135-.296.153-.288.172-.288.17-.278.188-.262.208-.26.205-.254.216-.232.225-.225.234-.216.252-.197.242-.188.26-.182.262-.161.261-.144.27-.124.278-.117.277-.1.279-.09.28-.061.27-.045.278-.036.279-.02h.27l.27.026.269.038.233.045.224.053.235.08.216.082.215.109M517.818 800.738l.983 4.779M423.639 755.931l3.495 1.822M517.819 800.737l-4.981 1.673M427.134 757.753l-3.495-1.822M277.14 679.537l3.587 1.776M351.362 714.471l-4.91 1.243M213.669 646.526l4.609 2.4M280.727 681.313l-3.588-1.776M218.278 648.926l-4.61-2.4" style="fill:none;stroke:#00ff4a;stroke-width:1.99999;stroke-linecap:round;stroke-linejoin:round;stroke-miterlimit:4;stroke-dasharray:none;stroke-opacity:1;visibility:visible"/><path d="m310.736 573.212 9.548 13.351M462.378 734.288l-4.953 1.902" style="fill:none;stroke:red;stroke-width:1.99999;stroke-linecap:round;stroke-linejoin:round;stroke-miterlimit:4;stroke-dasharray:none;stroke-opacity:1;visibility:visible"/></svg>