<svg xmlns="http://www.w3.org/2000/svg" baseProfile="full" height="1122.52" preserveAspectRatio="xMinYMin meet" style="width:1370px;height:1303px" width="793.701" xml:space="preserve"><path d="m294.487 102.428-.096.159-.105.138-.118.118-.118.093-.128.076-.074.043-.085.022M294.775 96.156l.159.308.138.32.119.35.084.354.076.383.041.382.022.406-.011.404-.032.426-.053.415-.086.424-.106.427-.127.425-.15.425-.17.418-.192.405M293.753 95.22l-7.101-3.876" style="fill:none;stroke:red;stroke-width:.999997;stroke-linecap:round;stroke-linejoin:round;stroke-miterlimit:4;stroke-dasharray:none;stroke-opacity:1;visibility:visible" visibility="hidden"/><path d="m293.753 95.22.096.055.096.062.105.074.108.074.084.076.086.074.084.085.076.075.084.085.076.085.064.095.064.097M293.753 95.22l97.654-28.553M290.666 95.9l.064-.085.064-.064.072-.042.087-.012h.097l.105.023.106.052M291.26 95.773l.107.063.106.085.107.108.105.128.087.139.085.138.063.147.065.161.031.148.023.16.01.139-.01.14-.023.127-.043.128-.053.116-.073.096-.064.064-.087.064-.084.042-.085.023-.096.008-.096-.008-.096-.033-.084-.044" style="fill:none;stroke:red;stroke-width:.999997;stroke-linecap:round;stroke-linejoin:round;stroke-miterlimit:4;stroke-dasharray:none;stroke-opacity:1;visibility:visible" visibility="hidden"/><path d="m391.408 66.667-7.133-3.555M391.44 67.827l.063-.117.042-.128.034-.107.032-.115.01-.109.011-.095-.01-.094-.011-.096-.023-.087-.043-.084-.064-.075-.073-.053M390.982 73.82l-.127-.287-.118-.32-.086-.329-.074-.341-.042-.362-.03-.372v-.384l.02-.393.041-.395.055-.404.084-.405.118-.415.116-.404.15-.394.17-.404.182-.384M391.046 74.216l.021-.01.011-.014.01-.041v-.066l-.02-.062-.033-.096-.053-.107M384.275 63.112l-.053-.021-.063-.011h-.108l-.064.01-.073.01M286.577 91.686l-.064-.117-.053-.096-.022-.064-.021-.066.01-.041v-.01l.022-.01M286.95 96.274l.095-.428.086-.425.054-.415.032-.416v-.415l-.02-.394-.044-.383-.064-.381-.096-.363-.119-.341-.136-.319-.16-.308M293.39 103.054l-5.32-2.928M293.763 103.077l-.076.021-.063.008h-.064l-.052-.008-.053-.01-.064-.035M286.45 91.281 383.914 63.1M293.763 103.077l97.282-28.861" style="fill:none;stroke:red;stroke-width:1.99999;stroke-linecap:round;stroke-linejoin:round;stroke-miterlimit:4;stroke-dasharray:none;stroke-opacity:1;visibility:visible" visibility="hidden"/><path d="m291.26 95.772-.105 2.14" style="fill:none;stroke:red;stroke-width:.999997;stroke-linecap:round;stroke-linejoin:round;stroke-miterlimit:4;stroke-dasharray:none;stroke-opacity:1;visibility:visible" visibility="hidden"/><path d="m291.26 95.772-3.19 4.354" style="fill:none;stroke:red;stroke-width:1.99999;stroke-linecap:round;stroke-linejoin:round;stroke-miterlimit:4;stroke-dasharray:none;stroke-opacity:1;visibility:visible" visibility="hidden"/><path d="m398.45 191.801.16.096.16.085.15.054.149.032h.137l.128-.022.105-.052.098-.074.097-.098.072-.138.064-.17.053-.192.043-.214.023-.223v-.244l-.012-.256-.031-.265-.023-.151-.032-.148-.032-.139-.03-.138-.043-.138-.052-.138-.053-.13-.055-.128-.075-.114-.064-.118-.085-.106-.073-.107-.096-.087-.086-.084-.097-.073-.095-.055M398.855 188.266l-.095-.055-.097-.04-.107-.032-.106-.022-.106-.011h-.108l-.105.01-.105.034-.096.032-.098.04-.18.108-.076.065-.082.072-.076.098-.064.086-.096.2-.075.214M632.313 310.41l-.265-.127-.299-.096-.308-.054-.321-.01-.339.031-.363.065-.362.098-.374.148-.382.181-.395.212-.393.255-.394.289-.393.319-.384.352-.393.373-.374.403-.372.437-.362.459-.34.466-.331.491-.32.512-.297.521-.278.534-.256.529-.233.545-.204.534-.181.541-.159.533-.137.531-.096.51-.075.502-.053.49-.023.471.01.446.043.425.066.393.093.374.13.34.147.309.172.277.203.246.224.201.255.172M255.308 108.703l.15.117.138.087.128.064.127.043.129.021.105-.01.096-.033.086-.054.074-.074.054-.105.064-.14.044-.159.03-.192.023-.193.008-.212-.008-.235-.01-.233-.034-.245-.021-.139-.022-.137-.032-.13-.032-.128-.041-.126-.043-.118-.042-.116-.055-.117-.053-.107-.064-.108-.063-.093-.064-.087-.076-.074-.073-.075-.086-.063-.076-.054" style="fill:none;stroke:#00ff4a;stroke-width:.999997;stroke-linecap:round;stroke-linejoin:round;stroke-miterlimit:4;stroke-dasharray:none;stroke-opacity:1;visibility:visible" visibility="hidden"/><path d="m255.67 105.478-.084-.043-.085-.03-.086-.024-.085-.011-.096-.01-.085.01-.086.01-.094.034-.076.033-.084.043-.15.105-.064.063-.064.087-.064.076-.052.093M570.256 291.51l.203.108.192.076.182.041.17.022.169-.022.139-.032.14-.077.114-.092.119-.14.096-.17.073-.191.066-.224.032-.244.02-.258v-.276l-.031-.289-.021-.17-.032-.16-.044-.158-.043-.16-.041-.15-.064-.147-.064-.14-.075-.148-.075-.138-.085-.129-.096-.127-.095-.117-.106-.107-.107-.096-.117-.074-.118-.076M570.757 287.643l-.117-.061-.118-.052-.126-.046-.128-.03-.128-.011-.13-.01-.126.01-.128.02-.128.021-.118.046-.212.104-.106.065-.096.083-.087.086-.084.096-.139.203" style="fill:none;stroke:#00ff4a;stroke-width:.999997;stroke-linecap:round;stroke-linejoin:round;stroke-miterlimit:4;stroke-dasharray:none;stroke-opacity:1;visibility:visible" visibility="hidden"/><path d="m247.694 90.592 384.618 219.817M569.597 292.9l54.603 31.737M489.503 246.345l74.43 43.263M397.89 193.095l85.188 49.516M328.037 152.543l64.305 37.328M254.996 110.038l67.812 39.416M221.34 90.475l27.236 15.832M632.313 310.41l.224.13.224.137.212.15.213.15.204.157.202.173.19.168.194.182.181.181.18.192.17.19.16.205.16.201.16.212.149.215.137.222.128.224.128.223.116.235.119.234.096.235.094.244.098.235.073.254.076.246.064.256.063.244.042.256.043.256.032.256.032.264.01.258.013.256v.519l-.023.257-.021.255-.032.256-.043.255-.043.256-.064.254-.052.247-.076.256-.084.245-.085.243-.096.235-.096.234-.117.235-.118.236-.116.221-.14.224-.138.212-.139.214-.159.213-.149.201-.17.203-.17.192-.181.183-.18.19-.183.17-.201.172-.192.158-.214.16-.202.148-.214.15-.224.14-.222.126-.224.116-.234.119-.233.107-.235.105-.245.096-.235.085-.256.075-.244.076-.245.05-.255.066-.256.041-.256.043-.254.021-.256.024-.266.02h-.512l-.266-.01-.256-.022-.255-.021-.255-.032-.256-.053-.254-.043-.258-.063-.244-.065-.256-.073-.244-.087-.248-.084-.233-.096-.233-.108-.234-.116-.236-.117-.222-.127M221.34 90.475l-.224-.139-.212-.158-.203-.171-.19-.181-.171-.202-.17-.204-.15-.224-.139-.221-.126-.247-.118-.254-.096-.258-.085-.265-.075-.287-.053-.288-.043-.309-.03-.297-.011-.308v-.32l.01-.32.031-.33.054-.332.065-.316.073-.332.096-.33.107-.33.128-.32.127-.318.15-.32.171-.308.17-.298.19-.3.193-.276.214-.288.222-.266.224-.255.244-.244.246-.236.149-.127" style="fill:none;stroke:#00ff4a;stroke-width:1.99999;stroke-linecap:round;stroke-linejoin:round;stroke-miterlimit:4;stroke-dasharray:none;stroke-opacity:1;visibility:visible" visibility="hidden"/><path d="m490.486 244.38.201.108.194.075.181.041.17.021.17-.021.137-.03.14-.077.116-.094.118-.139.097-.17.072-.191.065-.224.034-.246.02-.256v-.274l-.032-.29-.022-.17-.032-.16-.044-.158-.041-.16-.043-.15-.064-.148-.064-.14-.073-.148-.075-.139-.086-.128-.096-.128-.095-.117-.107-.106-.105-.094-.119-.076-.116-.076M490.987 240.514l-.119-.061-.117-.054-.127-.042-.126-.035-.13-.008-.128-.01-.128.01-.126.02-.13.023-.116.042-.213.106-.107.065-.096.083-.086.085-.084.097-.139.203M329.24 151.186l.159.095.16.088.15.05.148.034h.139l.127-.022.106-.053.096-.075.098-.096.073-.138.064-.171.053-.192.043-.213.021-.224v-.244l-.012-.256-.03-.266-.022-.149-.032-.15-.032-.138-.032-.139-.041-.136-.053-.138-.054-.131-.054-.127-.074-.116-.064-.116-.085-.108-.075-.108-.096-.084-.085-.085-.096-.073-.096-.055M329.644 147.65l-.095-.053-.097-.042-.105-.033-.107-.02-.107-.012h-.106l-.107.012-.105.032-.096.03-.098.045-.18.105-.074.065-.084.074-.075.096-.065.085-.095.203-.075.213M398.855 188.266l-.405 3.535M570.757 287.643l-.501 3.867" style="fill:none;stroke:#00ff4a;stroke-width:.999997;stroke-linecap:round;stroke-linejoin:round;stroke-miterlimit:4;stroke-dasharray:none;stroke-opacity:1;visibility:visible" visibility="hidden"/><path d="m248.576 106.307-.882-15.715M570.757 287.643l-1.16 5.257M490.987 240.514l-1.484 5.831M569.597 292.9l-5.664-3.292M398.855 188.266l-.965 4.829M489.503 246.345l-6.425-3.734M329.644 147.65l-1.607 4.893M398.45 191.801l-6.108-1.93M255.67 105.478l-.674 4.56M328.037 152.543l-5.23-3.09M254.996 110.038l-6.42-3.731" style="fill:none;stroke:#00ff4a;stroke-width:1.99999;stroke-linecap:round;stroke-linejoin:round;stroke-miterlimit:4;stroke-dasharray:none;stroke-opacity:1;visibility:visible" visibility="hidden"/><path d="m490.987 240.514-.501 3.866M329.644 147.65l-.404 3.536" style="fill:none;stroke:#00ff4a;stroke-width:.999997;stroke-linecap:round;stroke-linejoin:round;stroke-miterlimit:4;stroke-dasharray:none;stroke-opacity:1;visibility:visible" visibility="hidden"/><path d="m366.882 143.557-.095.16-.106.127-.106.117-.118.097-.139.095-.16.065" style="fill:none;stroke:#9500ff;stroke-width:.999997;stroke-linecap:round;stroke-linejoin:round;stroke-miterlimit:4;stroke-dasharray:none;stroke-opacity:1;visibility:visible" visibility="hidden"/><path d="m367.51 136.903.139.31.126.34.087.362.072.373.044.394.021.416v.414l-.032.436-.052.448-.076.447-.105.447-.13.457-.147.459-.171.457-.192.448-.213.447M366.435 135.902l97.453-35.461M366.435 135.902l-8.41-4.587M366.435 135.902l.107.055.117.084.107.074.116.086.096.085.096.073.085.086.075.085.085.084.075.097.064.096.053.095M362.326 136.38l.076-.105.072-.086.087-.064.094-.03.108-.023.116.01.128.043.127.055M363.134 136.18l.119.076.126.104.127.117.117.138.096.15.096.15.075.17.053.17.043.16.01.158.011.16-.021.14-.032.148-.053.128-.074.119-.085.095-.085.072-.096.054-.096.043-.118.023" style="fill:none;stroke:#9500ff;stroke-width:.999997;stroke-linecap:round;stroke-linejoin:round;stroke-miterlimit:4;stroke-dasharray:none;stroke-opacity:1;visibility:visible" visibility="hidden"/><path d="m463.888 100.44-8.367-4.172M463.985 101.718l.053-.125.052-.131.034-.128.03-.127.012-.116v-.106l-.012-.108-.01-.094-.043-.108-.041-.096-.075-.085-.096-.053M463.185 108.064l-.116-.299-.085-.33-.075-.34-.043-.362-.032-.373v-.395l.022-.404.042-.414.063-.424.085-.427.108-.427.127-.437.14-.436.17-.435.19-.428.204-.414M463.196 108.435l.032-.02.023-.043.01-.053-.01-.075-.023-.074-.043-.106M455.521 96.268l-.075-.023-.085-.021h-.148l-.087.021-.094.023M357.812 131.613l-.052-.108-.032-.085-.021-.074-.012-.052.012-.044.03-.02M357.7 137.077l.07-.184.147-.448.128-.456.107-.448.075-.448.053-.445.02-.427.012-.427-.023-.404-.052-.394-.074-.383-.096-.35-.118-.342-.138-.308M365.647 144.218l-6.084-3.344M366.158 144.218l-.095.03-.096.022h-.16l-.085-.021-.075-.031M357.737 131.23l97.294-34.961M366.158 144.218l97.037-35.783M366.435 135.902l-6.872 4.972" style="fill:none;stroke:#9500ff;stroke-width:1.99999;stroke-linecap:round;stroke-linejoin:round;stroke-miterlimit:4;stroke-dasharray:none;stroke-opacity:1;visibility:visible" visibility="hidden"/><path d="m437.266 183.663-.096.161-.107.126-.105.118-.119.096-.137.095-.16.065M437.894 177.01l.139.31.128.34.085.362.073.373.043.394.021.416v.414l-.03.436-.054.448-.076.447-.105.447-.128.457-.148.457-.17.459-.194.448-.212.445M436.818 176.01l97.453-35.463M436.818 176.01l-8.41-4.587M436.818 176.01l.107.055.117.084.107.073.117.087.096.085.095.072.085.087.075.085.085.085.075.096.065.096.052.095M432.71 176.488l.075-.107.072-.085.086-.063.096-.032.107-.021.116.01.13.043.126.054M433.519 176.286l.117.075.128.104.126.118.118.139.095.148.097.15.074.171.053.17.044.158.01.162.01.158-.02.14-.032.15-.055.128-.073.117-.085.095-.086.072-.096.054-.094.043-.119.021" style="fill:none;stroke:#ffdf00;stroke-width:.999997;stroke-linecap:round;stroke-linejoin:round;stroke-miterlimit:4;stroke-dasharray:none;stroke-opacity:1;visibility:visible" visibility="hidden"/><path d="m534.271 140.547-8.367-4.172M534.367 141.824l.053-.125.054-.13.032-.129.03-.127.012-.116v-.106l-.012-.107-.01-.093-.042-.11-.042-.096-.075-.085-.096-.053M533.57 148.171l-.117-.3-.086-.328-.074-.343-.043-.36-.032-.373v-.395l.021-.404.043-.414.064-.426.085-.425.107-.428.128-.436.139-.436.169-.436.192-.427.203-.416M533.58 148.543l.03-.021.023-.043.011-.053-.01-.075-.023-.075-.042-.105M525.904 136.375l-.075-.023-.085-.021h-.148l-.085.021-.096.023M428.194 171.72l-.052-.108-.032-.085-.021-.072-.012-.054.012-.044.03-.021" style="fill:none;stroke:#ffdf00;stroke-width:1.99999;stroke-linecap:round;stroke-linejoin:round;stroke-miterlimit:4;stroke-dasharray:none;stroke-opacity:1;visibility:visible" visibility="hidden"/><path d="m428.085 177.183.068-.183.148-.448.128-.456.107-.449.074-.447.055-.446.019-.427.012-.425-.022-.406-.053-.393-.075-.384-.096-.35-.116-.34-.14-.31M436.03 184.324l-6.084-3.343M436.542 184.324l-.096.032-.096.021h-.16l-.085-.021-.075-.032M428.12 171.335l97.294-34.96M436.542 184.324l97.037-35.781M436.818 176.01l-6.872 4.971" style="fill:none;stroke:#ffdf00;stroke-width:1.99999;stroke-linecap:round;stroke-linejoin:round;stroke-miterlimit:4;stroke-dasharray:none;stroke-opacity:1;visibility:visible" visibility="hidden"/><path d="m526.534 235.617-.09.163-.102.132-.103.121-.114.097-.134.1-.158.071M526.94 228.943l.148.305.14.336.097.362.087.368.055.392.036.414.014.415-.018.439-.038.448-.06.449-.09.452-.115.46-.132.464-.153.461-.179.455-.199.453M525.831 227.98l96.214-38.696M525.831 227.98l-8.557-4.304M525.831 227.98l.11.05.12.08.109.071.12.083.098.081.098.071.088.084.077.084.09.08.075.093.068.094.056.092M521.741 228.596l.072-.108.07-.087.083-.068.094-.034.106-.026.118.007.129.039.13.049" style="fill:none;stroke:#00d4ff;stroke-width:.999997;stroke-linecap:round;stroke-linejoin:round;stroke-miterlimit:4;stroke-dasharray:none;stroke-opacity:1;visibility:visible" visibility="hidden"/><path d="m522.543 228.368.12.07.13.102.131.112.123.136.1.144.1.147.081.168.059.169.048.156.017.16.015.16-.016.14-.027.15-.05.129-.07.12-.081.097-.084.075-.093.061-.094.043-.117.026" style="fill:none;stroke:#00d4ff;stroke-width:.999997;stroke-linecap:round;stroke-linejoin:round;stroke-miterlimit:4;stroke-dasharray:none;stroke-opacity:1;visibility:visible" visibility="hidden"/><path d="m622.046 189.283-8.503-3.89M622.185 190.557l.048-.128.048-.13.03-.131.026-.127.008-.117-.004-.106-.016-.106-.012-.095-.047-.107-.045-.093-.077-.084-.098-.05M621.6 196.925l-.128-.293-.096-.328-.085-.338-.055-.36-.045-.372-.012-.393.006-.405.03-.416.048-.428.072-.428.092-.43.113-.441.124-.439.156-.441.177-.435.188-.421M621.621 197.296l.03-.023.02-.044.009-.05-.012-.076-.024-.074-.046-.105M613.543 185.392l-.075-.019-.086-.018-.074.002-.074.003-.086.023-.093.025M517.142 229.445l.063-.185.133-.454.11-.461.094-.45.059-.45.038-.445.007-.43-.003-.426-.034-.404-.067-.39-.088-.382-.107-.347-.128-.337-.149-.306M525.323 236.316l-6.195-3.139M525.832 236.3l-.093.035-.096.024-.074.001-.086.005-.086-.02-.074-.029M516.983 223.599l96.072-38.19M525.832 236.3l95.79-39.004M525.831 227.98l-6.703 5.197" style="fill:none;stroke:#00d4ff;stroke-width:1.99999;stroke-linecap:round;stroke-linejoin:round;stroke-miterlimit:4;stroke-dasharray:none;stroke-opacity:1;visibility:visible" visibility="hidden"/><path d="m608.606 281.342-.084.139-.107.14-.096.105-.117.093-.119.098-.148.085M609.714 274.262l.117.33.086.342.062.372.034.393.02.415-.011.427-.043.445-.052.457-.085.472-.117.487-.128.481-.16.49-.18.5-.192.49-.224.49-.235.489M608.573 273.188l-10.124-5.516M608.573 273.188l.13.075.126.085.128.087.13.093.094.084.096.085.096.098.084.084.076.096.073.096.064.108.043.084M608.573 273.188l95.465-44.587M603.103 273.348l.064-.117.095-.106.096-.085.116-.065.117-.032h.14l.15.02.147.044.159.074M604.188 273.081l.139.084.149.117.148.139.13.148.117.17.094.173.086.18.062.181.034.181.01.172v.158l-.032.16-.054.15-.063.136-.096.118-.105.096-.107.074-.107.054-.128.041" style="fill:none;stroke:#ff008a;stroke-width:.999997;stroke-linecap:round;stroke-linejoin:round;stroke-miterlimit:4;stroke-dasharray:none;stroke-opacity:1;visibility:visible"/><path d="m704.038 228.602-9.956-4.948M704.207 230.04l.064-.139.053-.149.032-.137.02-.14.011-.127v-.128l-.01-.107-.031-.117-.044-.116-.063-.108-.096-.096-.105-.073M702.95 236.767l-.085-.307-.054-.342-.042-.351-.02-.373.009-.404.021-.406.054-.424.074-.437.096-.448.107-.457.139-.467.158-.472.171-.456.192-.47.212-.466.224-.448M702.908 237.109l.043-.033.022-.043.011-.053v-.054l-.01-.073-.023-.085M694.082 223.653l-.105-.044-.118-.021h-.118l-.116.01-.118.031-.126.055M598.046 267.906l-.032-.096-.021-.072-.011-.065.01-.054.011-.033.032-.03M596.97 274.945l.235-.48.222-.49.191-.49.183-.49.148-.49.128-.477.106-.48.086-.467.062-.457.034-.448.012-.426-.023-.416-.043-.393-.064-.363-.084-.35-.117-.322M607.19 282.023l-6.52-3.588M607.935 282.002l-.139.055-.126.029-.118.012h-.128l-.117-.02-.117-.055M598.035 267.555l95.345-43.87M607.935 282.002l94.973-44.893" style="fill:none;stroke:#ff008a;stroke-width:1.99999;stroke-linecap:round;stroke-linejoin:round;stroke-miterlimit:4;stroke-dasharray:none;stroke-opacity:1;visibility:visible"/><path d="m608.606 281.342-5.503-7.994M607.935 282.002l-3.47-6.389" style="fill:none;stroke:#ff008a;stroke-width:.999997;stroke-linecap:round;stroke-linejoin:round;stroke-miterlimit:4;stroke-dasharray:none;stroke-opacity:1;visibility:visible"/><path d="m604.187 273.081-3.517 5.354" style="fill:none;stroke:#ff008a;stroke-width:1.99999;stroke-linecap:round;stroke-linejoin:round;stroke-miterlimit:4;stroke-dasharray:none;stroke-opacity:1;visibility:visible"/><path d="m329.644 147.65-1.67.8" style="fill:none;stroke:#00ff4a;stroke-width:.999997;stroke-linecap:round;stroke-linejoin:round;stroke-miterlimit:4;stroke-dasharray:none;stroke-opacity:1;visibility:visible" visibility="hidden"/></svg>