<svg xmlns="http://www.w3.org/2000/svg" baseProfile="full" height="1122.52" preserveAspectRatio="xMinYMin meet" style="width:602px;height:832px" width="793.701" xml:space="preserve"><path d="m333.677 191.058-9.35 2.019.022 5.029-182.394 38.3 5.767 176.281-9.563 2.324-4.698-4.068-8.511-240.014 9.94-1.956 4.924 3.395 1.768 53.038" style="fill:none;stroke:red;stroke-width:1.99995;stroke-linecap:round;stroke-linejoin:round;stroke-miterlimit:4;stroke-dasharray:none;stroke-opacity:1;visibility:visible" visibility="hidden"/><path d="M501.547 160.893 333.752 196.13l-5.183-3.301" style="fill:none;stroke:red;stroke-width:1.99995;stroke-linecap:round;stroke-linejoin:round;stroke-miterlimit:4;stroke-dasharray:none;stroke-opacity:1;visibility:visible" visibility="hidden"/><path d="m142.451 221.428 355.142-73.49 1.567-50.498 8.511-1.73 5.714 2.966-7.351 226.179-8.233 2.024-5.47-3.484 4.846-161.044" style="fill:none;stroke:red;stroke-width:1.99995;stroke-linecap:round;stroke-linejoin:round;stroke-miterlimit:4;stroke-dasharray:none;stroke-opacity:1;visibility:visible" visibility="hidden"/><path d="m141.892 236.034-.306-9.84 361.67-75.244-5.663-3.012M504.794 101.274 497.8 326.879M129.864 175.349l8.294 239.662M125.091 172.013l4.773 3.336 9.737-1.923M499.433 98.51l5.361 2.764 8.455-1.692M496.306 318.904c.243 1.02-.026 1.956-.601 2.092-.575.137-1.239-.577-1.481-1.596-.242-1.021.028-1.959.602-2.096.575-.135 1.238.58 1.48 1.6" style="fill:none;stroke:red;stroke-width:.999975;stroke-linecap:round;stroke-linejoin:round;stroke-miterlimit:4;stroke-dasharray:none;stroke-opacity:1;visibility:visible" visibility="hidden"/><path d="M135.647 171.622c.012.638-1.449 1.18-3.264 1.212-1.815.036-3.297-.453-3.309-1.088-.01-.636 1.45-1.178 3.266-1.212 1.814-.033 3.297.455 3.307 1.088M157.013 221.02c0 .325-.677.587-1.513.587-.835 0-1.513-.262-1.513-.587 0-.325.678-.588 1.513-.588.836 0 1.513.263 1.513.588M333.801 191.222v4.696M487.57 152.4c0 .284-.63.515-1.402.515-.773 0-1.4-.23-1.4-.515 0-.285.627-.516 1.4-.516.772 0 1.401.23 1.401.516M509.347 98.03c0 .553-1.37 1.002-3.061 1.002-1.692 0-3.063-.45-3.063-1.002 0-.555 1.371-1.003 3.063-1.003 1.69 0 3.061.448 3.061 1.003" style="fill:none;stroke:red;stroke-width:.999975;stroke-linecap:round;stroke-linejoin:round;stroke-miterlimit:4;stroke-dasharray:none;stroke-opacity:1;visibility:visible" visibility="hidden"/><path d="m157.013 221.02-15.431 4.386M487.57 152.4l9.607 9.95" style="fill:none;stroke:red;stroke-width:1.99995;stroke-linecap:round;stroke-linejoin:round;stroke-miterlimit:4;stroke-dasharray:none;stroke-opacity:1;visibility:visible" visibility="hidden"/><path d="m509.347 98.03-4.553 3.244M135.647 171.622l-5.783 3.727M129.864 175.349l5.783-3.727M141.582 225.406l15.431-4.386M497.177 162.35l-9.608-9.95M504.794 101.274l4.553-3.244" style="fill:none;stroke:red;stroke-width:.999975;stroke-linecap:round;stroke-linejoin:round;stroke-miterlimit:4;stroke-dasharray:none;stroke-opacity:1;visibility:visible" visibility="hidden"/><path d="M537.987 427.013c0 52.006-94.72 94.167-211.56 94.167S114.87 479.02 114.87 427.013" style="fill:none;stroke:#00ff4a;stroke-width:.999975;stroke-linecap:round;stroke-linejoin:round;stroke-miterlimit:4;stroke-dasharray:none;stroke-opacity:1;visibility:visible"/><path d="M428.428 501.9c-29.865 7.851-64.73 12.358-101.97 12.358-76.707 0-143.336-19.122-176.955-47.199M136.48 453.589c-6.634-8.825-10.226-18.266-10.226-28.078 0-6.957 1.805-13.727 5.221-20.224M148.584 384.738c33.314-28.5 100.462-47.976 177.872-47.976 37.647 0 72.867 4.607 102.948 12.616M448.17 355.04c47.722 16.223 78.49 41.753 78.49 70.47 0 29.648-32.798 55.9-83.186 72.019" style="fill:none;stroke:#00ff4a;stroke-width:.999975;stroke-linecap:round;stroke-linejoin:round;stroke-miterlimit:4;stroke-dasharray:none;stroke-opacity:1;visibility:visible"/><path d="M236.445 341.768c27.306-5.722 57.805-8.919 89.983-8.919 37.406 0 72.546 4.321 103.035 11.902M448.493 350.094c15.82 4.984 30.034 10.909 42.233 17.593M504.726 376.307c21.054 14.637 33.26 32.038 33.26 50.706v3.459c0 52.005-94.718 94.164-211.558 94.164-116.841 0-211.558-42.159-211.558-94.164v-3.459c0-12.615 5.573-24.651 15.683-35.647M148.707 375.91c18.78-12.915 44.472-23.65 74.745-31.172" style="fill:none;stroke:#00ff4a;stroke-width:1.99995;stroke-linecap:round;stroke-linejoin:round;stroke-miterlimit:4;stroke-dasharray:none;stroke-opacity:1;visibility:visible"/><path d="m136.211 465.214-.326-7.608.746-2.427 7.188-1.913 3.687 3.127.793 2.848.187 7.7" style="fill:none;stroke:#00ff4a;stroke-width:1.99995;stroke-linecap:round;stroke-linejoin:round;stroke-miterlimit:4;stroke-dasharray:none;stroke-opacity:1;visibility:visible"/><path d="m146.199 456.394-6.393 1.54-.14 2.988.232 7.748" style="fill:none;stroke:#00ff4a;stroke-width:1.99995;stroke-linecap:round;stroke-linejoin:round;stroke-miterlimit:4;stroke-dasharray:none;stroke-opacity:1;visibility:visible"/><path d="m143.42 453.76.54 2.666M136.337 458.134l3.458-.875M140.132 461.434l7.84-1.915M136.538 465.82l3.033-.838M140.366 469.088l7.933-1.913" style="fill:none;stroke:#00ff4a;stroke-width:.999975;stroke-linecap:round;stroke-linejoin:round;stroke-miterlimit:4;stroke-dasharray:none;stroke-opacity:1;visibility:visible"/><path d="m224.314 344.7-.04-7.248.699-2.306.701-.082 3.171 2.306 5.025-1.194" style="fill:none;stroke:#00ff4a;stroke-width:1.99995;stroke-linecap:round;stroke-linejoin:round;stroke-miterlimit:4;stroke-dasharray:none;stroke-opacity:1;visibility:visible"/><path d="m231.029 336.176-.33-2.224.783-.207 3.377 2.513.66 2.388.206 7.087" style="fill:none;stroke:#00ff4a;stroke-width:1.99995;stroke-linecap:round;stroke-linejoin:round;stroke-miterlimit:4;stroke-dasharray:none;stroke-opacity:1;visibility:visible"/><path d="m224.561 344.949 3.872 2.882-.124-7.207.207-2.76" style="fill:none;stroke:#00ff4a;stroke-width:.999975;stroke-linecap:round;stroke-linejoin:round;stroke-miterlimit:4;stroke-dasharray:none;stroke-opacity:1;visibility:visible"/><path d="m224.48 337.865 3.83 2.924 6.92-1.605" style="fill:none;stroke:#00ff4a;stroke-width:.999975;stroke-linecap:round;stroke-linejoin:round;stroke-miterlimit:4;stroke-dasharray:none;stroke-opacity:1;visibility:visible"/><path d="M232.926 341.745c-.42.581-1.15.77-1.628.424-.48-.347-.528-1.097-.106-1.679.42-.58 1.149-.77 1.628-.424.478.347.526 1.099.106 1.679" style="fill:none;stroke:#00ff4a;stroke-width:.999975;stroke-linecap:round;stroke-linejoin:round;stroke-miterlimit:4;stroke-dasharray:none;stroke-opacity:1;visibility:visible"/><path d="m493.792 365.19 3.38 2.108 5.575-1.362.527.35.659 2.548-.308 7.33" style="fill:none;stroke:#00ff4a;stroke-width:1.99995;stroke-linecap:round;stroke-linejoin:round;stroke-miterlimit:4;stroke-dasharray:none;stroke-opacity:1;visibility:visible"/><path d="m503.45 376.341-7.068 1.624.22-7.333.219-2.808" style="fill:none;stroke:#00ff4a;stroke-width:.999975;stroke-linecap:round;stroke-linejoin:round;stroke-miterlimit:4;stroke-dasharray:none;stroke-opacity:1;visibility:visible"/><path d="m499.542 366.068-.13-2.282-.44-.266-6.058 1.45-.965 2.546-.177 7.112" style="fill:none;stroke:#00ff4a;stroke-width:1.99995;stroke-linecap:round;stroke-linejoin:round;stroke-miterlimit:4;stroke-dasharray:none;stroke-opacity:1;visibility:visible"/><path d="M494.78 370.42c.174.681.022 1.31-.342 1.403-.364.094-.801-.383-.977-1.064-.175-.682-.021-1.308.341-1.403.366-.093.803.384.978 1.064M492.212 367.91l4.345 2.898 7.07-1.756" style="fill:none;stroke:#00ff4a;stroke-width:.999975;stroke-linecap:round;stroke-linejoin:round;stroke-miterlimit:4;stroke-dasharray:none;stroke-opacity:1;visibility:visible"/><path d="m429.31 501.938.143-7.726.93-2.683 6.833-1.86 4.542 3.327.716 2.789-.108 7.798" style="fill:none;stroke:#00ff4a;stroke-width:1.99995;stroke-linecap:round;stroke-linejoin:round;stroke-miterlimit:4;stroke-dasharray:none;stroke-opacity:1;visibility:visible"/><path d="m441.58 503.942-4.65-3.541-1.717.501" style="fill:none;stroke:#00ff4a;stroke-width:.999975;stroke-linecap:round;stroke-linejoin:round;stroke-miterlimit:4;stroke-dasharray:none;stroke-opacity:1;visibility:visible"/><path d="m431.456 491.78 3.936 2.97-.25 3.147-.18 7.941" style="fill:none;stroke:#00ff4a;stroke-width:1.99995;stroke-linecap:round;stroke-linejoin:round;stroke-miterlimit:4;stroke-dasharray:none;stroke-opacity:1;visibility:visible"/><path d="m429.632 494.605 4.722 3.65M436.93 500.186l.25-7.726-.179-2.218M434.174 505.98l-4.685-3.611" style="fill:none;stroke:#00ff4a;stroke-width:.999975;stroke-linecap:round;stroke-linejoin:round;stroke-miterlimit:4;stroke-dasharray:none;stroke-opacity:1;visibility:visible"/><path d="m434.104 493.497 3.004-.859 4.65 3.47" style="fill:none;stroke:#00ff4a;stroke-width:.999975;stroke-linecap:round;stroke-linejoin:round;stroke-miterlimit:4;stroke-dasharray:none;stroke-opacity:1;visibility:visible"/><path d="m437.38 479.124-.312 9.017" style="fill:none;stroke:#00ff4a;stroke-width:.66665;stroke-linecap:round;stroke-linejoin:round;stroke-miterlimit:4;stroke-dasharray:none;stroke-opacity:1;visibility:visible"/><path d="m448.493 350.094-19.09-.716M429.404 349.378l18.766 5.663M428.428 501.9l15.046-4.371" style="fill:none;stroke:#00ff4a;stroke-width:.999975;stroke-linecap:round;stroke-linejoin:round;stroke-miterlimit:4;stroke-dasharray:none;stroke-opacity:1;visibility:visible"/><path d="m235.23 339.184 1.215 2.584M448.493 350.094l-19.03-5.343M429.404 349.378l19.089.716M492.212 367.91l-1.486-.223M140.132 461.434l6.067-5.04" style="fill:none;stroke:#00ff4a;stroke-width:1.99995;stroke-linecap:round;stroke-linejoin:round;stroke-miterlimit:4;stroke-dasharray:none;stroke-opacity:1;visibility:visible"/><path d="m139.571 464.982-3.234-6.848M140.132 461.434l-.337-4.175M139.571 464.982l.561-3.548M136.337 458.134l11.635 1.385M140.132 461.434l-.56 3.548" style="fill:none;stroke:#00ff4a;stroke-width:.999975;stroke-linecap:round;stroke-linejoin:round;stroke-miterlimit:4;stroke-dasharray:none;stroke-opacity:1;visibility:visible"/><path d="m236.445 341.768-2.575-5.592" style="fill:none;stroke:#00ff4a;stroke-width:1.99995;stroke-linecap:round;stroke-linejoin:round;stroke-miterlimit:4;stroke-dasharray:none;stroke-opacity:1;visibility:visible"/><path d="m224.314 344.7 4.202-6.835M236.445 341.768l-1.215-2.584" style="fill:none;stroke:#00ff4a;stroke-width:.999975;stroke-linecap:round;stroke-linejoin:round;stroke-miterlimit:4;stroke-dasharray:none;stroke-opacity:1;visibility:visible"/><path d="m490.726 367.687 3.066-2.497" style="fill:none;stroke:#00ff4a;stroke-width:1.99995;stroke-linecap:round;stroke-linejoin:round;stroke-miterlimit:4;stroke-dasharray:none;stroke-opacity:1;visibility:visible"/><path d="m491.772 374.628 5.049-6.804" style="fill:none;stroke:#00ff4a;stroke-width:.999975;stroke-linecap:round;stroke-linejoin:round;stroke-miterlimit:4;stroke-dasharray:none;stroke-opacity:1;visibility:visible"/><path d="m496.82 367.824-5.048 6.804" style="fill:none;stroke:#00ff4a;stroke-width:1.99995;stroke-linecap:round;stroke-linejoin:round;stroke-miterlimit:4;stroke-dasharray:none;stroke-opacity:1;visibility:visible"/><path d="m490.726 367.687 1.486.224M428.428 501.9l6.785-.998" style="fill:none;stroke:#00ff4a;stroke-width:.999975;stroke-linecap:round;stroke-linejoin:round;stroke-miterlimit:4;stroke-dasharray:none;stroke-opacity:1;visibility:visible"/><path d="m434.354 498.254-2.898-6.474" style="fill:none;stroke:#00ff4a;stroke-width:1.99995;stroke-linecap:round;stroke-linejoin:round;stroke-miterlimit:4;stroke-dasharray:none;stroke-opacity:1;visibility:visible"/><path d="m441.758 496.108-12.126-1.503M429.49 502.369l4.864-4.115M428.428 501.9l5.676-8.403M431.456 491.78l10.302 4.328" style="fill:none;stroke:#00ff4a;stroke-width:.999975;stroke-linecap:round;stroke-linejoin:round;stroke-miterlimit:4;stroke-dasharray:none;stroke-opacity:1;visibility:visible"/><path d="m275.841 124.702-3.373 1.43 2.708 6.386c-.57 2.93.648 8.188 1.442 10.057l4.932 11.621 1.742 4.103 1.597 3.761c1.195 2.815 4.456 4.136 7.268 2.941a5.513 5.513 0 0 0 1.841-1.274c1.537 1.736 4.055 2.402 6.304 1.448a5.554 5.554 0 0 0 1.666-1.104c1.422 2.264 4.311 3.246 6.854 2.166a5.492 5.492 0 0 0 1.99-1.465l4.227 9.954c1.276 3.008 4.606 4.484 7.422 3.291 2.816-1.197 4.07-4.619 2.792-7.624l-14.13-33.294-.045.019c-.118-.352-.246-.71-.4-1.07l-3.778-8.9c-.929-2.187-3.296-3.324-5.384-4.327-1.458-.703-3.114-1.497-3.471-2.337l-1.826-4.3-3.374 1.433 1.825 4.3c.899 2.116 3.117 3.177 5.26 4.21 1.505.722 3.206 1.54 3.596 2.454l3.777 8.901c1.501 3.539.588 6.76.588 6.76l-4.035 12.642a1.89 1.89 0 0 1-2.368 1.221 1.865 1.865 0 0 1-1.1-.928c-.229-.448-.272-.954-.104-1.48l3.044-10.467.376-1.298-1.125-.745c-.05-.03-4.99-3.354-7.057-8.226-2.021-4.764-1.965-6.716-1.967-6.737l-3.652-.315c-.044.43-.14 2.864 2.243 8.485 1.868 4.4 5.48 7.614 7.305 9.038l-.654 2.25c-1.432-2.23-4.298-3.186-6.818-2.119a5.515 5.515 0 0 0-2.28 1.833 5.56 5.56 0 0 0-5.211-.466 5.468 5.468 0 0 0-1.592 1.054l-2.904-6.84c-1.742-4.102-1.118-8.535-1.114-8.58l.079-.522-.201-.473" style="fill:none;fill-opacity:1;fill-rule:nonzero;stroke:#9500ff;stroke-width:.13333;visibility:visible" visibility="hidden"/><path d="m318.412 173.293-9.101-21.445c.683-2.137 1.365-4.285 1.755-5.5l10.811 25.474c.488 1.15.106 2.415-.849 2.819-.955.407-2.128-.2-2.616-1.348M304.922 161.868l-.278-.653a5.53 5.53 0 0 0 2.7-3.21l.012-.033 1.03 2.424a1.885 1.885 0 0 1-.996 2.467 1.883 1.883 0 0 1-2.468-.995M298.87 161.801a1.878 1.878 0 0 1-2.461-.996l-1.307-3.076-2.683-6.323a1.882 1.882 0 0 1 .992-2.467 1.88 1.88 0 0 1 2.463 1l1.336 3.148.02-.01c-.275.94-.456 1.562-.45 1.55a5.498 5.498 0 0 0 2.81 6.633 1.905 1.905 0 0 1-.72.541M284.924 152.766a1.881 1.881 0 0 1 .997-2.46 1.881 1.881 0 0 1 2.468.988l.654 1.544 2.684 6.322a1.886 1.886 0 0 1-1 2.467 1.883 1.883 0 0 1-2.465-.998l-1.596-3.758-1.742-4.105M262.7 277.885l1.732 3.232 6.113-3.273c2.97.306 8.096-1.384 9.887-2.344l11.13-5.96 3.928-2.103 3.601-1.93a5.55 5.55 0 0 0 2.273-7.504 5.535 5.535 0 0 0-1.435-1.719c1.59-1.688 2.027-4.254.873-6.409a5.472 5.472 0 0 0-1.25-1.558c2.128-1.622 2.846-4.587 1.54-7.022a5.493 5.493 0 0 0-1.64-1.852l9.534-5.105c2.88-1.544 4.052-4.994 2.609-7.69-1.445-2.698-4.967-3.636-7.848-2.094l-31.882 17.077.023.043c-.34.15-.683.31-1.03.493l-8.523 4.567c-2.096 1.123-3.015 3.581-3.824 5.752-.567 1.517-1.208 3.236-2.015 3.668l-4.117 2.205 1.732 3.232 4.119-2.205c2.023-1.086 2.883-3.391 3.717-5.619.582-1.563 1.245-3.332 2.12-3.8l8.522-4.566c3.39-1.815 6.683-1.195 6.683-1.195l12.953 2.877a1.885 1.885 0 0 1 .604 3.428c-.424.27-.924.356-1.464.236l-10.7-2.086-1.324-.258-.641 1.187c-.028.053-2.892 5.274-7.559 7.77-4.56 2.443-6.509 2.563-6.53 2.567l.016 3.665c.432.005 2.865-.116 8.248-2.998 4.211-2.258 7.09-6.144 8.345-8.092.614.121 1.42.28 2.297.45-2.093 1.627-2.785 4.567-1.495 6.982.486.908 1.207 1.608 2.03 2.106a5.555 5.555 0 0 0 .006 5.23 5.494 5.494 0 0 0 1.195 1.491l-6.552 3.51c-3.93 2.105-8.4 1.882-8.445 1.882l-.527-.032-.454.246" style="fill:none;fill-opacity:1;fill-rule:nonzero;stroke:#9500ff;stroke-width:.13333;visibility:visible" visibility="hidden"/><path d="m307.255 231.108-20.538 10.998c-2.19-.488-4.388-.975-5.636-1.253l24.397-13.065c1.101-.588 2.393-.322 2.884.592.49.914-.007 2.137-1.107 2.728M297.091 245.573l-.624.336a5.542 5.542 0 0 0-3.442-2.402l-.034-.008 2.323-1.244a1.882 1.882 0 0 1 1.777 3.317M297.571 251.606c.49.913.146 2.052-.77 2.541l-2.946 1.579-6.054 3.242a1.882 1.882 0 0 1-2.547-.766 1.881 1.881 0 0 1 .772-2.543l3.017-1.615-.012-.018 1.583.31a5.506 5.506 0 0 0 6.355-3.398c.248.17.454.393.602.668M289.831 266.31a1.88 1.88 0 0 1-2.54-.771 1.88 1.88 0 0 1 .762-2.547l1.478-.792 6.055-3.242a1.882 1.882 0 0 1 1.776 3.319l-3.6 1.928-3.93 2.106" style="fill:none;fill-opacity:1;fill-rule:nonzero;stroke:#9500ff;stroke-width:.13333;visibility:visible" visibility="hidden"/><path d="m312.74 201.479 15.56 9.954.038 4.119M221.393 221.756l1.828 98.179 4.477 3.332 8.47-1.948-1.667-100.803M293.557 189.275l-60.14-38.361-.833-49-4.708-2.791-8.75 1.645 1.92 102.751" style="fill:none;stroke:#9500ff;stroke-width:1.99995;stroke-linecap:round;stroke-linejoin:round;stroke-miterlimit:4;stroke-dasharray:none;stroke-opacity:1;visibility:visible" visibility="hidden"/><path d="m432.339 285.269 1.048-53.585 9.626-2.118 6.002 3.654-5.265 243.25-9.194 2.515-5.761-4.287 3.378-178.225L292.72 205.94" style="fill:none;stroke:#9500ff;stroke-width:1.99995;stroke-linecap:round;stroke-linejoin:round;stroke-miterlimit:4;stroke-dasharray:none;stroke-opacity:1;visibility:visible" visibility="hidden"/><path d="m225.833 218.75 1.865 104.517M223.792 104.495l1.782 99.75M439.434 236.375l-4.878 242.61M324.597 216.857l107.758 69.257-.182 10.139M302.492 202.65l16.719 10.742M219.23 101.684l4.604 2.833 8.626-1.666M433.53 232.757l5.903 3.618 9.378-2.111M285.62 191.807l-60.967-39.187 8.681-1.706" style="fill:none;stroke:#9500ff;stroke-width:.999975;stroke-linecap:round;stroke-linejoin:round;stroke-miterlimit:4;stroke-dasharray:none;stroke-opacity:1;visibility:visible" visibility="hidden"/><path d="M228.772 101.34c0 .526-1.315.95-2.938.95-1.622 0-2.937-.424-2.937-.95 0-.522 1.315-.946 2.937-.946 1.623 0 2.938.424 2.938.946M238.167 156.747c0 .24-.606.437-1.354.437-.748 0-1.354-.197-1.354-.437 0-.243.606-.439 1.354-.439.748 0 1.354.196 1.354.439" style="fill:none;stroke:#9500ff;stroke-width:.999975;stroke-linecap:round;stroke-linejoin:round;stroke-miterlimit:4;stroke-dasharray:none;stroke-opacity:1;visibility:visible" visibility="hidden"/><path d="m328.033 211.51-8.824 1.882-.024 4.936 5.378 3.479.03-4.931 9.067-1.96 97.799 62.334" style="fill:none;stroke:#9500ff;stroke-width:1.99995;stroke-linecap:round;stroke-linejoin:round;stroke-miterlimit:4;stroke-dasharray:none;stroke-opacity:1;visibility:visible" visibility="hidden"/><path d="M428.713 278.638c0 .322-.681.583-1.521.583-.841 0-1.524-.261-1.524-.583 0-.32.683-.582 1.524-.582.84 0 1.521.261 1.521.582M444.55 232.466c0 .704-1.5 1.276-3.349 1.276-1.85 0-3.35-.572-3.35-1.276 0-.704 1.5-1.276 3.35-1.276s3.35.572 3.35 1.276" style="fill:none;stroke:#9500ff;stroke-width:.999975;stroke-linecap:round;stroke-linejoin:round;stroke-miterlimit:4;stroke-dasharray:none;stroke-opacity:1;visibility:visible" visibility="hidden"/><path d="m233.653 167.644.568 34.812M224.818 161.915l49.646 32.204" style="fill:none;stroke:#9500ff;stroke-width:1.99995;stroke-linecap:round;stroke-linejoin:round;stroke-miterlimit:4;stroke-dasharray:none;stroke-opacity:1;visibility:visible" visibility="hidden"/><path d="m304.922 161.868 13.49 11.425M304.922 161.868l13.49 11.425M318.412 173.293l-13.49-11.425M318.412 173.293l-13.49-11.425M297.091 245.573l10.164-14.465M297.091 245.573l10.164-14.465M307.255 231.108l-10.164 14.465M307.255 231.108l-10.164 14.465" style="fill:none;fill-opacity:1;fill-rule:nonzero;stroke:#9500ff;stroke-width:.13333;visibility:visible" visibility="hidden"/><path d="m319.21 213.392-6.47-11.913M225.574 204.246l-4.18 17.51M234.22 202.456l.28 18.06M302.492 202.65l-8.935-13.375M225.833 218.75l-4.788-15.231M428.713 278.638l3.626 6.63M285.62 191.807l7.1 14.133" style="fill:none;stroke:#9500ff;stroke-width:1.99995;stroke-linecap:round;stroke-linejoin:round;stroke-miterlimit:4;stroke-dasharray:none;stroke-opacity:1;visibility:visible" visibility="hidden"/><path d="m225.574 204.246.259 14.505M228.772 101.34l-4.98 3.155M225.833 218.75l-.259-14.504M444.55 232.466l-5.116 3.91M319.21 213.392l5.387 3.465M428.713 278.638l3.46 17.615M293.557 189.275l8.935 13.375M324.597 216.857l-5.386-3.465M292.72 205.94l-7.1-14.133M223.792 104.495l4.98-3.155M233.653 167.644l4.514-10.897M432.339 285.269l-3.626-6.63M439.434 236.375l5.116-3.909" style="fill:none;stroke:#9500ff;stroke-width:.999975;stroke-linecap:round;stroke-linejoin:round;stroke-miterlimit:4;stroke-dasharray:none;stroke-opacity:1;visibility:visible" visibility="hidden"/><path d="m238.167 156.747-4.514 10.897M234.5 220.516l-.28-18.06" style="fill:none;stroke:#9500ff;stroke-width:1.99995;stroke-linecap:round;stroke-linejoin:round;stroke-miterlimit:4;stroke-dasharray:none;stroke-opacity:1;visibility:visible" visibility="hidden"/><path d="m157.013 221.02-14.562.408" style="fill:none;stroke:red;stroke-width:1.99995;stroke-linecap:round;stroke-linejoin:round;stroke-miterlimit:4;stroke-dasharray:none;stroke-opacity:1;visibility:visible" visibility="hidden"/><path d="m224.314 344.7 8.612-2.955M228.516 337.865l4.41 3.88" style="fill:none;stroke:#00ff4a;stroke-width:.999975;stroke-linecap:round;stroke-linejoin:round;stroke-miterlimit:4;stroke-dasharray:none;stroke-opacity:1;visibility:visible"/><path d="m434.556 478.985 2.824.14" style="fill:none;stroke:#00ff4a;stroke-width:.66665;stroke-linecap:round;stroke-linejoin:round;stroke-miterlimit:4;stroke-dasharray:none;stroke-opacity:1;visibility:visible"/><path d="m437.38 479.124-2.824-.139" style="fill:none;stroke:#9500ff;stroke-width:.999975;stroke-linecap:round;stroke-linejoin:round;stroke-miterlimit:4;stroke-dasharray:none;stroke-opacity:1;visibility:visible" visibility="hidden"/></svg>