<svg xmlns="http://www.w3.org/2000/svg" baseProfile="full" height="1122.52" preserveAspectRatio="xMinYMin meet" style="width:602px;height:832px" width="793.701" xml:space="preserve"><path d="m572.42 438.221-.396.513M572.024 438.734 563 450.358M555.046 460.606l-15.3 19.709" style="fill:none;stroke:red;stroke-width:.999975;stroke-linecap:round;stroke-linejoin:round;stroke-miterlimit:4;stroke-dasharray:none;stroke-opacity:1;visibility:visible" visibility="hidden"/><path d="m607.658 504.922-42.208 54.441" style="fill:none;stroke:red;stroke-width:1.99995;stroke-linecap:round;stroke-linejoin:round;stroke-miterlimit:4;stroke-dasharray:none;stroke-opacity:1;visibility:visible" visibility="hidden"/><path d="m595.186 497.842.11-.198M596.728 494.19l.238-1.258-.353-2.45-1.176-1.894-1.792-1.096-2.153-.115-2.185.882-1.888 1.734-1.294 2.33-.489 2.59.356 2.432 1.179 1.907 1.798 1.097 2.159.12 2.184-.888 1.876-1.739" style="fill:none;stroke:red;stroke-width:.999975;stroke-linecap:round;stroke-linejoin:round;stroke-miterlimit:4;stroke-dasharray:none;stroke-opacity:1;visibility:visible" visibility="hidden"/><path d="m593.312 487.333.898.712 1.172 1.893.363 2.431-.26 1.33M593.954 497.29l-1.88 1.734-2.183.892-2.144-.126" style="fill:none;stroke:red;stroke-width:.999975;stroke-linecap:round;stroke-linejoin:round;stroke-miterlimit:4;stroke-dasharray:none;stroke-opacity:1;visibility:visible" visibility="hidden"/><path d="m586.72 491.941 26.674 11.906" style="fill:none;stroke:red;stroke-width:.66665;stroke-linecap:round;stroke-linejoin:round;stroke-miterlimit:4;stroke-dasharray:none;stroke-opacity:1;visibility:visible" visibility="hidden"/><path d="m577.624 580.058-.508.653M577.116 580.71l-41.253 53.145" style="fill:none;stroke:red;stroke-width:.999975;stroke-linecap:round;stroke-linejoin:round;stroke-miterlimit:4;stroke-dasharray:none;stroke-opacity:1;visibility:visible" visibility="hidden"/><path d="m605.288 656.512-40.442 52.164" style="fill:none;stroke:red;stroke-width:1.99995;stroke-linecap:round;stroke-linejoin:round;stroke-miterlimit:4;stroke-dasharray:none;stroke-opacity:1;visibility:visible" visibility="hidden"/><path d="m592.52 649.814.032-.054M594.116 645.875l.184-.97-.354-2.452-1.175-1.893-1.792-1.095-2.154-.117-2.185.884-1.888 1.733-1.293 2.331-.49 2.59.356 2.431 1.179 1.91 1.799 1.093 2.158.121 2.184-.888 1.876-1.739" style="fill:none;stroke:red;stroke-width:.999975;stroke-linecap:round;stroke-linejoin:round;stroke-miterlimit:4;stroke-dasharray:none;stroke-opacity:1;visibility:visible" visibility="hidden"/><path d="m590.645 639.305.899.712 1.172 1.894.363 2.43-.248 1.275M591.288 649.263l-1.881 1.733-2.183.89-2.144-.124" style="fill:none;stroke:red;stroke-width:.999975;stroke-linecap:round;stroke-linejoin:round;stroke-miterlimit:4;stroke-dasharray:none;stroke-opacity:1;visibility:visible" visibility="hidden"/><path d="M586.003 576.748c-30.772 9.57-53.111 38.271-53.111 72.19 0 41.746 33.842 75.588 75.587 75.588 12.996 0 25.23-3.281 35.912-9.058 0 0 6.257-3.828 13.662-10.604" style="fill:none;stroke:red;stroke-width:.999975;stroke-linecap:round;stroke-linejoin:round;stroke-miterlimit:4;stroke-dasharray:none;stroke-opacity:1;visibility:visible" visibility="hidden"/><path d="m584.053 643.913 22.43 10.012" style="fill:none;stroke:red;stroke-width:.66665;stroke-linecap:round;stroke-linejoin:round;stroke-miterlimit:4;stroke-dasharray:none;stroke-opacity:1;visibility:visible" visibility="hidden"/><path d="M175.201 827.029a151.71 151.71 0 0 1-6.865-1.576M111.488 796.977C44.154 742.503 31.04 634.092 84.345 543.414c57.786-98.305 171.753-138.543 254.545-89.873a148.02 148.02 0 0 1 26.513 19.871" style="fill:none;stroke:red;stroke-width:1.99995;stroke-linecap:round;stroke-linejoin:round;stroke-miterlimit:4;stroke-dasharray:none;stroke-opacity:1;visibility:visible" visibility="hidden"/><path d="M111.011 796.185c-64.714-54.61-76.417-161.329-23.694-251.023 57.789-98.304 171.09-138.936 253.06-90.75" style="fill:none;stroke:red;stroke-width:.999975;stroke-linecap:round;stroke-linejoin:round;stroke-miterlimit:4;stroke-dasharray:none;stroke-opacity:1;visibility:visible" visibility="hidden"/><path d="m339.344 686.418-79.678-71.523M166.201 812.581a136.034 136.034 0 0 1-30.124-13.11C59.03 754.18 40.824 642.183 95.41 549.317c4.457-7.58 9.261-14.8 14.367-21.64M118.917 516.211c58.073-68.297 147.718-92.492 214.841-53.033a135.928 135.928 0 0 1 24.07 17.991" style="fill:none;stroke:red;stroke-width:1.99995;stroke-linecap:round;stroke-linejoin:round;stroke-miterlimit:4;stroke-dasharray:none;stroke-opacity:1;visibility:visible" visibility="hidden"/><path d="M328.013 692.115 197.876 576.194M449.697 800.507l-111.132-98.995" style="fill:none;stroke:red;stroke-width:.999975;stroke-linecap:round;stroke-linejoin:round;stroke-miterlimit:4;stroke-dasharray:none;stroke-opacity:1;visibility:visible" visibility="hidden"/><path d="M461.46 796.03 345.875 692.28" style="fill:none;stroke:red;stroke-width:1.99995;stroke-linecap:round;stroke-linejoin:round;stroke-miterlimit:4;stroke-dasharray:none;stroke-opacity:1;visibility:visible" visibility="hidden"/><path d="M327.35 691.719 201.81 853.433M457.358 524.239 334.7 682.246" style="fill:none;stroke:red;stroke-width:.999975;stroke-linecap:round;stroke-linejoin:round;stroke-miterlimit:4;stroke-dasharray:none;stroke-opacity:1;visibility:visible" visibility="hidden"/><path d="M339.38 700.465 226.356 846.247M223.062 850.496l-9.427 12.157" style="fill:none;stroke:red;stroke-width:1.99995;stroke-linecap:round;stroke-linejoin:round;stroke-miterlimit:4;stroke-dasharray:none;stroke-opacity:1;visibility:visible" visibility="hidden"/><path d="m346.125 691.767-6.745 8.698" style="fill:none;stroke:red;stroke-width:.999975;stroke-linecap:round;stroke-linejoin:round;stroke-miterlimit:4;stroke-dasharray:none;stroke-opacity:1;visibility:visible" visibility="hidden"/><path d="m240.722 883.835-122.707-95.933M111.635 795.678l114.974 91.127 7 5.562M469.27 532.928l-7.834 10.105M457.831 547.684 346.125 691.767" style="fill:none;stroke:red;stroke-width:1.99995;stroke-linecap:round;stroke-linejoin:round;stroke-miterlimit:4;stroke-dasharray:none;stroke-opacity:1;visibility:visible" visibility="hidden"/><path d="M494.564 540.463 457.24 524.19" style="fill:none;stroke:red;stroke-width:.999975;stroke-linecap:round;stroke-linejoin:round;stroke-miterlimit:4;stroke-dasharray:none;stroke-opacity:1;visibility:visible" visibility="hidden"/><path d="m490.781 827.546-43.062-26.727M461.46 796.03l29.785 18.227 3.595 3.02M111.014 513.031l119.692 66.332 3.71 3.152M230.842 594.852l-120.364-68.13M364.13 473.322l136.936 58.737 3.13 2.893M500.56 546.641l-31.29-13.713" style="fill:none;stroke:red;stroke-width:1.99995;stroke-linecap:round;stroke-linejoin:round;stroke-miterlimit:4;stroke-dasharray:none;stroke-opacity:1;visibility:visible" visibility="hidden"/><path d="m363.984 473.51-5.848 7.37M500.769 532.495l-6.204 7.968 5.233 5.478M206.852 857.375l256.456-330.543 5.716 5.921M491.14 814.501l-6.012 7.724M461.312 796.279l-1.233 1.61M457.533 801.21l-2.14 2.791M327.645 692.012l5.093 2.65M233.222 878.313l-6.5 8.22M117.763 787.764l-6.128 7.913M230.333 579.847l-6.583 8.5M103.75 520.788l6.663 5.92" style="fill:none;stroke:red;stroke-width:.999975;stroke-linecap:round;stroke-linejoin:round;stroke-miterlimit:4;stroke-dasharray:none;stroke-opacity:1;visibility:visible" visibility="hidden"/><path d="M507.197 542.173c-1.16 2.563-3.743 3.899-5.767 2.981-2.024-.917-2.721-3.738-1.561-6.302 1.162-2.561 3.744-3.896 5.768-2.979 2.024.918 2.722 3.736 1.56 6.3M496.756 824.467c-1.45 2.228-4.05 3.107-5.81 1.963-1.758-1.145-2.009-3.878-.56-6.106 1.451-2.227 4.051-3.106 5.81-1.963 1.757 1.145 2.01 3.88.56 6.106M502.589 539.595l2.461 2.284" style="fill:none;stroke:red;stroke-width:.999975;stroke-linecap:round;stroke-linejoin:round;stroke-miterlimit:4;stroke-dasharray:none;stroke-opacity:1;visibility:visible" visibility="hidden"/><path d="m505.342 535.699-1.581-.571c-2.023-.917-4.604.417-5.768 2.979-1.16 2.564-.461 5.385 1.561 6.302l1.875.745M238.918 889.535c-1.796 2.232-4.664 2.89-6.405 1.465-1.74-1.422-1.695-4.383.101-6.618 1.799-2.23 4.665-2.887 6.408-1.463 1.74 1.423 1.695 4.386-.104 6.616M495.052 821.112l-2.362 3.182M495.946 818.158l-1.394-.757c-1.759-1.145-4.359-.267-5.812 1.96-1.447 2.228-1.198 4.961.561 6.106l1.645.963M236.754 590.821c-1.628 2.5-4.55 3.488-6.526 2.203-1.974-1.285-2.256-4.356-.628-6.86 1.628-2.5 4.55-3.485 6.525-2.203 1.974 1.287 2.257 4.358.63 6.86M234.675 886.017l2.643 2.149" style="fill:none;stroke:red;stroke-width:.999975;stroke-linecap:round;stroke-linejoin:round;stroke-miterlimit:4;stroke-dasharray:none;stroke-opacity:1;visibility:visible" visibility="hidden"/><path d="m238.778 882.673-1.396-.968c-1.743-1.423-4.61-.767-6.406 1.464-1.796 2.232-1.843 5.196-.103 6.617l1.641 1.214M220.308 847.023c-.49-.39-.472-1.223.037-1.864.508-.639 1.319-.841 1.808-.453M448.237 792.692c-.53-.265-.682-1.044-.334-1.741.348-.696 1.06-1.045 1.592-.78M454.985 544.924c-.56-.279-.716-1.099-.351-1.83.365-.734 1.115-1.1 1.675-.82M234.84 587.05l-2.651 3.577M235.845 583.733l-1.567-.85c-1.977-1.287-4.896-.3-6.526 2.2-1.627 2.505-1.346 5.576.628 6.86l1.848 1.08" style="fill:none;stroke:red;stroke-width:.999975;stroke-linecap:round;stroke-linejoin:round;stroke-miterlimit:4;stroke-dasharray:none;stroke-opacity:1;visibility:visible" visibility="hidden"/><path d="m223.996 588.005-120.024-67.713M455.731 803.636l-115.96-103.379M333.217 694.42 203.522 578.795" style="fill:none;stroke:red;stroke-width:.66665;stroke-linecap:round;stroke-linejoin:round;stroke-miterlimit:4;stroke-dasharray:none;stroke-opacity:1;visibility:visible" visibility="hidden"/><path d="M555.046 460.606 563 450.358M563 450.358l-7.954 10.248" style="fill:none;stroke:red;stroke-width:.999975;stroke-linecap:round;stroke-linejoin:round;stroke-miterlimit:4;stroke-dasharray:none;stroke-opacity:1;visibility:visible" visibility="hidden"/><path d="m166.201 812.581 2.135 12.872M345.875 692.28l-6.531-5.862M168.336 825.453 166.2 812.58M118.917 516.211l-9.139 11.467M109.778 527.678l9.14-11.467" style="fill:none;stroke:red;stroke-width:1.99995;stroke-linecap:round;stroke-linejoin:round;stroke-miterlimit:4;stroke-dasharray:none;stroke-opacity:1;visibility:visible" visibility="hidden"/><path d="m333.217 694.42 5.348 7.092M327.35 691.719l7.35-9.473" style="fill:none;stroke:red;stroke-width:.999975;stroke-linecap:round;stroke-linejoin:round;stroke-miterlimit:4;stroke-dasharray:none;stroke-opacity:1;visibility:visible" visibility="hidden"/><path d="m223.062 850.496 3.294-4.25M226.356 846.247l-3.294 4.25M234.675 886.017l6.047-2.182M234.675 886.017l-1.066 6.35M457.831 547.684l3.605-4.65M461.436 543.033l-3.605 4.65M502.589 539.595l1.606-4.643" style="fill:none;stroke:red;stroke-width:1.99995;stroke-linecap:round;stroke-linejoin:round;stroke-miterlimit:4;stroke-dasharray:none;stroke-opacity:1;visibility:visible" visibility="hidden"/><path d="m502.589 539.595-2.79 6.346M223.062 850.496l-16.21 6.879M492.69 824.294l-1.55-9.793M495.052 821.112l-9.924 1.113M457.533 801.21l2.546-3.322M460.08 797.888l-2.547 3.321M238.918 889.535l-5.696-11.222M238.918 889.535l-12.196-3.001M232.189 590.627l-1.856-10.78M492.69 824.294l4.066.173M495.052 821.112l1.704 3.355M504.195 534.952l-1.606 4.643M226.722 886.534l12.196 3.001M233.222 878.313l5.696 11.222M496.756 824.467l-1.704-3.355M496.756 824.467l-4.066-.173M232.189 590.627l4.565.194M234.84 587.05l1.914 3.771M238.778 882.673l-4.103 3.344M234.675 886.017l4.103-3.344M234.675 886.017l-2.16 4.983M461.46 796.03l-13.223-3.338M461.46 796.03l-11.965-5.859M469.27 532.928l-14.285 11.996M469.27 532.928l-12.961 9.345M236.754 590.821l-1.913-3.77M236.754 590.821l-4.565-.194" style="fill:none;stroke:red;stroke-width:.999975;stroke-linecap:round;stroke-linejoin:round;stroke-miterlimit:4;stroke-dasharray:none;stroke-opacity:1;visibility:visible" visibility="hidden"/><path d="M201.448 851.06c-63.32-52.721-75.462-158.447-24.691-249.652a259.242 259.242 0 0 1 16.33-25.682M203.558 562.215c60.069-72.3 152.078-99.882 221.96-60.98a138.388 138.388 0 0 1 30.65 23.161M467.548 537.245a149.064 149.064 0 0 1 8.192 11.527M482.179 559.769c30.147 56.616 28.356 135.45-10.737 205.677a259.56 259.56 0 0 1-15.041 23.88M448.007 800.497c-59.953 75.373-154.124 104.756-225.327 65.12a139.54 139.54 0 0 1-6.083-3.592" style="fill:none;stroke:#00ff4a;stroke-width:1.99995;stroke-linecap:round;stroke-linejoin:round;stroke-miterlimit:4;stroke-dasharray:none;stroke-opacity:1;visibility:visible"/><path d="M201.87 850.887c-61.328-52.695-72.337-157.198-21.948-247.718a261.826 261.826 0 0 1 16.528-25.986M206.606 564.047c59.903-72.457 151.333-100.432 220.493-61.93" style="fill:none;stroke:#00ff4a;stroke-width:.999975;stroke-linecap:round;stroke-linejoin:round;stroke-miterlimit:4;stroke-dasharray:none;stroke-opacity:1;visibility:visible"/><path d="m203.558 562.215-10.47 13.51M196.45 577.183l7.108-14.968M482.179 559.769l-6.439-10.997M475.74 548.772l6.439 10.997M448.007 800.497l8.394-11.171M456.4 789.326l-8.393 11.171" style="fill:none;stroke:#00ff4a;stroke-width:1.99995;stroke-linecap:round;stroke-linejoin:round;stroke-miterlimit:4;stroke-dasharray:none;stroke-opacity:1;visibility:visible"/><path d="m203.558 562.215-7.108 14.968M196.45 577.183l10.156-13.136" style="fill:none;stroke:#00ff4a;stroke-width:.999975;stroke-linecap:round;stroke-linejoin:round;stroke-miterlimit:4;stroke-dasharray:none;stroke-opacity:1;visibility:visible"/><path d="m499.798 545.941 7.399-3.768M502.589 539.595l4.608 2.578" style="fill:none;stroke:red;stroke-width:.999975;stroke-linecap:round;stroke-linejoin:round;stroke-miterlimit:4;stroke-dasharray:none;stroke-opacity:1;visibility:visible" visibility="hidden"/></svg>