<svg xmlns="http://www.w3.org/2000/svg" baseProfile="full" height="1122.52" preserveAspectRatio="xMinYMin meet" style="width:602px;height:832px" width="793.701" xml:space="preserve"><path d="M586.653 480.585c9.305 7.266 14.405 15.153 14.405 23.398M581.81 671.48c0 23.76-30.798 44.88-78.536 58.275M484.925 734.335c-30.026 6.63-65.193 10.444-102.787 10.444-75.723 0-141.6-15.473-175.448-38.278M189.906 691.37c-4.847-6.324-7.44-12.996-7.44-19.89" style="fill:none;stroke:red;stroke-width:.999975;stroke-linecap:round;stroke-linejoin:round;stroke-miterlimit:4;stroke-dasharray:none;stroke-opacity:1;visibility:visible"/><path d="M179.565 480.87c31.132-24.644 110.601-42.166 203.725-42.166 11.595 0 22.979.272 34.084.794M456.766 442.513c59.63 6.407 107.228 20.385 129.887 38.072" style="fill:none;stroke:red;stroke-width:.66665;stroke-linecap:round;stroke-linejoin:round;stroke-miterlimit:4;stroke-dasharray:2.6666,2.6666;stroke-dashoffset:0;stroke-opacity:1;visibility:visible"/><path d="M165.524 503.982c0-8.138 4.968-15.927 14.04-23.111" style="fill:none;stroke:red;stroke-width:.999975;stroke-linecap:round;stroke-linejoin:round;stroke-miterlimit:4;stroke-dasharray:none;stroke-opacity:1;visibility:visible"/><path d="M589.921 479.16c7.224 6.42 11.137 13.29 11.137 20.429 0 35.643-97.497 64.538-217.768 64.538-120.269 0-217.766-28.895-217.766-64.538 0-7.184 3.96-14.093 11.269-20.546" style="fill:none;stroke:red;stroke-width:1.99995;stroke-linecap:round;stroke-linejoin:round;stroke-miterlimit:4;stroke-dasharray:none;stroke-opacity:1;visibility:visible"/><path d="M176.792 479.043c28.956-25.572 110.469-43.991 206.498-43.991 13.164 0 26.056.347 38.577 1.01M466.364 439.913c58.094 7.112 103.538 21.456 123.557 39.247" style="fill:none;stroke:red;stroke-width:.66665;stroke-linecap:round;stroke-linejoin:round;stroke-miterlimit:4;stroke-dasharray:2.6666,2.6666;stroke-dashoffset:0;stroke-opacity:1;visibility:visible"/><path d="M294.106 605.67a400.569 400.569 0 0 0-9.09 1.75" style="fill:none;stroke:red;stroke-width:.999975;stroke-linecap:round;stroke-linejoin:round;stroke-miterlimit:4;stroke-dasharray:none;stroke-opacity:1;visibility:visible"/><path d="M545.973 629.57c-11.353-5.97-25.065-11.29-40.638-15.779M486.061 608.878c-30.272-6.786-65.854-10.697-103.923-10.697-31.596 0-61.478 2.692-88.033 7.49" style="fill:none;stroke:red;stroke-width:1.99995;stroke-linecap:round;stroke-linejoin:round;stroke-miterlimit:4;stroke-dasharray:none;stroke-opacity:1;visibility:visible"/><path d="M553.24 633.675c-2.3-1.4-4.724-2.77-7.267-4.107" style="fill:none;stroke:red;stroke-width:.999975;stroke-linecap:round;stroke-linejoin:round;stroke-miterlimit:4;stroke-dasharray:none;stroke-opacity:1;visibility:visible"/><path d="M579.841 484.996c6.014 5.73 9.252 11.822 9.252 18.138 0 33.686-92.14 60.993-205.803 60.993-113.662 0-205.802-27.307-205.802-60.993 0-6.316 3.238-12.408 9.251-18.137M285.014 607.42c-33.995 6.96-61.872 17.462-79.935 30.147M188.162 654.026c-3.721 5.595-5.695 11.439-5.695 17.453v6.667c0 6.817 2.535 13.417 7.279 19.68M206.458 713.012c33.779 22.89 99.785 38.433 175.68 38.433 37.165 0 71.956-3.726 101.755-10.218M502.557 736.622c48.147-13.384 79.252-34.597 79.252-58.476v-6.667c0-13.83-10.433-26.766-28.57-37.804" style="fill:none;stroke:red;stroke-width:1.99995;stroke-linecap:round;stroke-linejoin:round;stroke-miterlimit:4;stroke-dasharray:none;stroke-opacity:1;visibility:visible"/><path d="M186.74 484.997c25.637-24.431 101.713-42.277 192.132-42.841M396.07 442.258c4.177.075 8.321.19 12.428.336M456.28 446.089c58.822 6.614 104.757 20.989 123.563 38.907" style="fill:none;stroke:red;stroke-width:.66665;stroke-linecap:round;stroke-linejoin:round;stroke-miterlimit:4;stroke-dasharray:2.6666,2.6666;stroke-dashoffset:0;stroke-opacity:1;visibility:visible"/><path d="m485.943 751.597-12.69-8.21M205.676 721.847l11.613-2.498M601.057 503.982c0 36.051-97.498 65.278-217.767 65.278-120.269 0-217.766-29.227-217.766-65.278" style="fill:none;stroke:red;stroke-width:1.99995;stroke-linecap:round;stroke-linejoin:round;stroke-miterlimit:4;stroke-dasharray:none;stroke-opacity:1;visibility:visible"/><path d="m285.737 607.388-.69-45.166" style="fill:none;stroke:red;stroke-width:.999975;stroke-linecap:round;stroke-linejoin:round;stroke-miterlimit:4;stroke-dasharray:none;stroke-opacity:1;visibility:visible"/><path d="m284.3 513.631-.972-63.554" style="fill:none;stroke:red;stroke-width:.66665;stroke-linecap:round;stroke-linejoin:round;stroke-miterlimit:4;stroke-dasharray:2.6666,2.6666;stroke-dashoffset:0;stroke-opacity:1;visibility:visible"/><path d="m284.964 556.84-.663-43.209" style="fill:none;stroke:red;stroke-width:.999975;stroke-linecap:round;stroke-linejoin:round;stroke-miterlimit:4;stroke-dasharray:none;stroke-opacity:1;visibility:visible"/><path d="m281.398 608.293-.749-46.754" style="fill:none;stroke:red;stroke-width:1.99995;stroke-linecap:round;stroke-linejoin:round;stroke-miterlimit:4;stroke-dasharray:none;stroke-opacity:1;visibility:visible"/><path d="m279.868 512.718-.991-61.88" style="fill:none;stroke:red;stroke-width:.66665;stroke-linecap:round;stroke-linejoin:round;stroke-miterlimit:4;stroke-dasharray:2.6666,2.6666;stroke-dashoffset:0;stroke-opacity:1;visibility:visible"/><path d="m294.122 605.785-.593-42.332M280.562 556.103l-.694-43.385" style="fill:none;stroke:red;stroke-width:1.99995;stroke-linecap:round;stroke-linejoin:round;stroke-miterlimit:4;stroke-dasharray:none;stroke-opacity:1;visibility:visible"/><path d="m292.85 515.006-.93-66.278" style="fill:none;stroke:red;stroke-width:.66665;stroke-linecap:round;stroke-linejoin:round;stroke-miterlimit:4;stroke-dasharray:2.6666,2.6666;stroke-dashoffset:0;stroke-opacity:1;visibility:visible"/><path d="m293.455 558.143-.605-43.137" style="fill:none;stroke:red;stroke-width:1.99995;stroke-linecap:round;stroke-linejoin:round;stroke-miterlimit:4;stroke-dasharray:none;stroke-opacity:1;visibility:visible"/><path d="m552.405 633.2 2.372-89.079" style="fill:none;stroke:red;stroke-width:.999975;stroke-linecap:round;stroke-linejoin:round;stroke-miterlimit:4;stroke-dasharray:none;stroke-opacity:1;visibility:visible"/><path d="m556.055 496.218.68-25.512" style="fill:none;stroke:red;stroke-width:.66665;stroke-linecap:round;stroke-linejoin:round;stroke-miterlimit:4;stroke-dasharray:2.6666,2.6666;stroke-dashoffset:0;stroke-opacity:1;visibility:visible"/><path d="m554.973 536.788 1.082-40.57" style="fill:none;stroke:red;stroke-width:.999975;stroke-linecap:round;stroke-linejoin:round;stroke-miterlimit:4;stroke-dasharray:none;stroke-opacity:1;visibility:visible"/><path d="m546.968 630.126 2.162-83.909" style="fill:none;stroke:red;stroke-width:1.99995;stroke-linecap:round;stroke-linejoin:round;stroke-miterlimit:4;stroke-dasharray:none;stroke-opacity:1;visibility:visible"/><path d="m550.374 498.046.768-29.82" style="fill:none;stroke:red;stroke-width:.66665;stroke-linecap:round;stroke-linejoin:round;stroke-miterlimit:4;stroke-dasharray:2.6666,2.6666;stroke-dashoffset:0;stroke-opacity:1;visibility:visible"/><path d="m560.31 638.393 2.727-97.681M549.312 539.21l1.062-41.165" style="fill:none;stroke:red;stroke-width:1.99995;stroke-linecap:round;stroke-linejoin:round;stroke-miterlimit:4;stroke-dasharray:none;stroke-opacity:1;visibility:visible"/><path d="m564.38 492.552.494-17.696" style="fill:none;stroke:red;stroke-width:.66665;stroke-linecap:round;stroke-linejoin:round;stroke-miterlimit:4;stroke-dasharray:2.6666,2.6666;stroke-dashoffset:0;stroke-opacity:1;visibility:visible"/><path d="m563.262 532.721 1.12-40.17" style="fill:none;stroke:red;stroke-width:1.99995;stroke-linecap:round;stroke-linejoin:round;stroke-miterlimit:4;stroke-dasharray:none;stroke-opacity:1;visibility:visible"/><path d="m490.91 806.388 4.296-246.478" style="fill:none;stroke:red;stroke-width:.999975;stroke-linecap:round;stroke-linejoin:round;stroke-miterlimit:4;stroke-dasharray:none;stroke-opacity:1;visibility:visible"/><path d="m486.24 733.558 2.842-172.527" style="fill:none;stroke:red;stroke-width:1.99995;stroke-linecap:round;stroke-linejoin:round;stroke-miterlimit:4;stroke-dasharray:none;stroke-opacity:1;visibility:visible"/><path d="m485.943 751.596.297-18.038" style="fill:none;stroke:red;stroke-width:.999975;stroke-linecap:round;stroke-linejoin:round;stroke-miterlimit:4;stroke-dasharray:none;stroke-opacity:1;visibility:visible"/><path d="m205.23 706.234-4.739-166.945M485.943 751.596l-.838 51.781 5.836 3.95 9.073-2.32 4.673-246.909" style="fill:none;stroke:red;stroke-width:1.99995;stroke-linecap:round;stroke-linejoin:round;stroke-miterlimit:4;stroke-dasharray:none;stroke-opacity:1;visibility:visible"/><path d="m197.616 773.543-7.166-239.467M205.676 721.847l-.445-15.613" style="fill:none;stroke:red;stroke-width:.999975;stroke-linecap:round;stroke-linejoin:round;stroke-miterlimit:4;stroke-dasharray:none;stroke-opacity:1;visibility:visible"/><path d="m185.757 531.2 7.334 239.53 4.67 3.703 9.364-2.1-1.45-50.486M487.47 805.157l-.086 2.279s-.002 2.192 4.837 2.54c4.839.346 5.361-2.084 5.361-2.279l.043-1.91" style="fill:none;stroke:red;stroke-width:1.99995;stroke-linecap:round;stroke-linejoin:round;stroke-miterlimit:4;stroke-dasharray:none;stroke-opacity:1;visibility:visible"/><path d="m195.191 772.665.028 2.43s.416 2.046 4.835 2.018c4.42-.028 5.138-2.127 5.138-2.487l-.084-1.684" style="fill:none;stroke:red;stroke-width:1.99995;stroke-linecap:round;stroke-linejoin:round;stroke-miterlimit:4;stroke-dasharray:none;stroke-opacity:1;visibility:visible"/><path d="m590.013 496.641.17.237.374.218.542.186.682.139.763.079.79.017.755-.05.667-.109.528-.162.352-.204.153-.232-.073-.238-.274-.232-.462-.202-.618-.164-.732-.11-.78-.046-.78.016-.715.078-.6.139-.45.185-.253.219-.039.236M170.125 496.722l.019.552M170.144 497.273v.037l.15.231.352.204.527.164.672.11.755.047.788-.016.764-.08.681-.136.544-.188.373-.22.17-.236" style="fill:none;stroke:red;stroke-width:.66665;stroke-linecap:round;stroke-linejoin:round;stroke-miterlimit:4;stroke-dasharray:none;stroke-opacity:1;visibility:visible"/><path d="m589.987 497.112.008.078.17.236.375.22.54.188.684.138.761.078.79.015.755-.047.667-.109.53-.164.351-.204.151-.23v-.037M175.9 496.641l-.04-.236-.258-.219-.441-.185-.604-.139-.719-.078-.776-.016-.781.046-.73.11-.617.164-.468.202-.273.232-.068.238.152.232.35.204.531.162.667.11.755.049.79-.017.763-.079.681-.139.543-.186.375-.218.169-.237" style="fill:none;stroke:red;stroke-width:.66665;stroke-linecap:round;stroke-linejoin:round;stroke-miterlimit:4;stroke-dasharray:none;stroke-opacity:1;visibility:visible"/><path d="m484.925 734.335 18.35-4.58M502.557 736.622l-17.632-2.287" style="fill:none;stroke:red;stroke-width:.999975;stroke-linecap:round;stroke-linejoin:round;stroke-miterlimit:4;stroke-dasharray:none;stroke-opacity:1;visibility:visible"/><path d="m486.061 608.878 19.274 4.913M505.335 613.791l-19.274-4.913M502.557 736.622l-18.664 4.605M484.925 734.335l17.632 2.287" style="fill:none;stroke:red;stroke-width:1.99995;stroke-linecap:round;stroke-linejoin:round;stroke-miterlimit:4;stroke-dasharray:none;stroke-opacity:1;visibility:visible"/><path d="m396.07 442.258-17.198-.102M378.872 442.156l17.198.102" style="fill:none;stroke:red;stroke-width:.66665;stroke-linecap:round;stroke-linejoin:round;stroke-miterlimit:4;stroke-dasharray:2.6666,2.6666;stroke-dashoffset:0;stroke-opacity:1;visibility:visible"/><path d="m284.964 556.84.082 5.382M285.046 562.222l-.082-5.383" style="fill:none;stroke:red;stroke-width:.999975;stroke-linecap:round;stroke-linejoin:round;stroke-miterlimit:4;stroke-dasharray:none;stroke-opacity:1;visibility:visible"/><path d="m280.562 556.103.087 5.436M293.455 558.143l.074 5.31M280.649 561.54l-.087-5.437M293.529 563.453l-.074-5.31" style="fill:none;stroke:red;stroke-width:1.99995;stroke-linecap:round;stroke-linejoin:round;stroke-miterlimit:4;stroke-dasharray:none;stroke-opacity:1;visibility:visible"/><path d="m554.973 536.788-.196 7.333M554.777 544.121l.196-7.333" style="fill:none;stroke:red;stroke-width:.999975;stroke-linecap:round;stroke-linejoin:round;stroke-miterlimit:4;stroke-dasharray:none;stroke-opacity:1;visibility:visible"/><path d="m549.312 539.21-.182 7.007M563.262 532.721l-.225 7.99M549.13 546.217l.182-7.006M563.037 540.712l.225-7.99" style="fill:none;stroke:red;stroke-width:1.99995;stroke-linecap:round;stroke-linejoin:round;stroke-miterlimit:4;stroke-dasharray:none;stroke-opacity:1;visibility:visible"/><path d="m487.47 805.157 3.44 1.23M195.191 772.665l2.425.878" style="fill:none;stroke:red;stroke-width:.999975;stroke-linecap:round;stroke-linejoin:round;stroke-miterlimit:4;stroke-dasharray:none;stroke-opacity:1;visibility:visible"/><path d="m490.91 806.388-3.44-1.23M490.91 806.388l6.715-.6M197.616 773.543l-2.425-.878M197.616 773.543l7.492-.6" style="fill:none;stroke:red;stroke-width:1.99995;stroke-linecap:round;stroke-linejoin:round;stroke-miterlimit:4;stroke-dasharray:none;stroke-opacity:1;visibility:visible"/><path d="m601.058 503.983-5.289-6.709" style="fill:none;stroke:red;stroke-width:.66665;stroke-linecap:round;stroke-linejoin:round;stroke-miterlimit:4;stroke-dasharray:none;stroke-opacity:1;visibility:visible"/><path d="M599.928 452.625c0 34.119-97.126 61.776-216.938 61.776-119.809 0-216.935-27.657-216.935-61.776" style="fill:none;stroke:#00ff4a;stroke-width:.999975;stroke-linecap:round;stroke-linejoin:round;stroke-miterlimit:4;stroke-dasharray:none;stroke-opacity:1;visibility:visible"/><path d="M374.93 390.892c-116.075 1.206-208.875 28.383-208.875 61.733v4c0 34.119 97.126 61.777 216.935 61.777 119.812 0 216.938-27.658 216.938-61.777v-4c0-32.898-90.302-59.79-204.173-61.67" style="fill:none;stroke:#00ff4a;stroke-width:1.99995;stroke-linecap:round;stroke-linejoin:round;stroke-miterlimit:4;stroke-dasharray:none;stroke-opacity:1;visibility:visible"/><path d="m399.149 460.55 59.272-23.9M340.353 473.455l96.557-37.285M354.694 456.725l21.031-7.648" style="fill:none;stroke:#00ff4a;stroke-width:.66665;stroke-linecap:round;stroke-linejoin:round;stroke-miterlimit:4;stroke-dasharray:none;stroke-opacity:1;visibility:visible"/></svg>