<svg xmlns="http://www.w3.org/2000/svg" baseProfile="full" height="1122.52" preserveAspectRatio="xMinYMin meet" style="width:765px;height:943px" width="793.701" xml:space="preserve"><path d="m172.736 460.287 57.436-28.508M111.313 490.714l39.807-19.719" style="fill:none;stroke:red;stroke-width:1.99999;stroke-linecap:round;stroke-linejoin:round;stroke-miterlimit:4;stroke-dasharray:none;stroke-opacity:1;visibility:visible"/><path d="m126.139 497.36 94.71-47.073M460.197 646.475l22.573 10.085M111.3 490.574l14.744 6.588" style="fill:none;stroke:red;stroke-width:.666665;stroke-linecap:round;stroke-linejoin:round;stroke-miterlimit:4;stroke-dasharray:none;stroke-opacity:1;visibility:visible"/><path d="m459.963 657.69 22.732 10.41M111.282 498.037l14.619 6.693M125.85 504.634l96.84-49.677" style="fill:none;stroke:red;stroke-width:1.99999;stroke-linecap:round;stroke-linejoin:round;stroke-miterlimit:4;stroke-dasharray:none;stroke-opacity:1;visibility:visible"/><path d="m126.038 497.162-.168 7.303" style="fill:none;stroke:red;stroke-width:.666665;stroke-linecap:round;stroke-linejoin:round;stroke-miterlimit:4;stroke-dasharray:none;stroke-opacity:1;visibility:visible"/><path d="M111.223 490.714v7.323M460.192 646.701l-.219 10.76M526.771 588.558l75.901-65.825M460.162 646.324l41.445-35.943" style="fill:none;stroke:red;stroke-width:1.99999;stroke-linecap:round;stroke-linejoin:round;stroke-miterlimit:4;stroke-dasharray:none;stroke-opacity:1;visibility:visible"/><path d="m482.872 656.613 141.04-125.896M482.82 656.47v11.585" style="fill:none;stroke:red;stroke-width:.666665;stroke-linecap:round;stroke-linejoin:round;stroke-miterlimit:4;stroke-dasharray:none;stroke-opacity:1;visibility:visible"/><path d="m482.83 668.201 147.798-134.396" style="fill:none;stroke:red;stroke-width:1.99999;stroke-linecap:round;stroke-linejoin:round;stroke-miterlimit:4;stroke-dasharray:none;stroke-opacity:1;visibility:visible"/><path d="m456.077 354.47 26.257 6.139M80.489 266.4l12.745 2.981" style="fill:none;stroke:red;stroke-width:.666665;stroke-linecap:round;stroke-linejoin:round;stroke-miterlimit:4;stroke-dasharray:none;stroke-opacity:1;visibility:visible"/><path d="m455.96 366.106 26.225 6.448M80.708 273.864l12.617 3.1M456.13 354.387l170.43-41.292" style="fill:none;stroke:red;stroke-width:1.99999;stroke-linecap:round;stroke-linejoin:round;stroke-miterlimit:4;stroke-dasharray:none;stroke-opacity:1;visibility:visible"/><path d="m482.334 360.606 168.309-42.612" style="fill:none;stroke:red;stroke-width:.666665;stroke-linecap:round;stroke-linejoin:round;stroke-miterlimit:4;stroke-dasharray:none;stroke-opacity:1;visibility:visible"/><path d="M455.926 354.419v11.688" style="fill:none;stroke:red;stroke-width:1.99999;stroke-linecap:round;stroke-linejoin:round;stroke-miterlimit:4;stroke-dasharray:none;stroke-opacity:1;visibility:visible"/><path d="M482.204 360.614v11.94" style="fill:none;stroke:red;stroke-width:.666665;stroke-linecap:round;stroke-linejoin:round;stroke-miterlimit:4;stroke-dasharray:none;stroke-opacity:1;visibility:visible"/><path d="m482.182 372.468 160.382-43.9M282.942 251.144l-15.548-2.803" style="fill:none;stroke:red;stroke-width:1.99999;stroke-linecap:round;stroke-linejoin:round;stroke-miterlimit:4;stroke-dasharray:none;stroke-opacity:1;visibility:visible"/><path d="m276.438 251.941-16.019-2.888" style="fill:none;stroke:red;stroke-width:.666665;stroke-linecap:round;stroke-linejoin:round;stroke-miterlimit:4;stroke-dasharray:none;stroke-opacity:1;visibility:visible"/><path d="m650.68 317.593-24.355-4.39M650.777 317.846l-20.148 215.96" style="fill:none;stroke:red;stroke-width:1.99999;stroke-linecap:round;stroke-linejoin:round;stroke-miterlimit:4;stroke-dasharray:none;stroke-opacity:1;visibility:visible"/><path d="m643.398 319.997-20.301 220.574" style="fill:none;stroke:red;stroke-width:.666665;stroke-linecap:round;stroke-linejoin:round;stroke-miterlimit:4;stroke-dasharray:none;stroke-opacity:1;visibility:visible"/><path d="m619.977 335.06-16.975 186.137" style="fill:none;stroke:red;stroke-width:1.99999;stroke-linecap:round;stroke-linejoin:round;stroke-miterlimit:4;stroke-dasharray:none;stroke-opacity:1;visibility:visible"/><path d="m618.919 528.378 5.017 1.773M607.82 523.985l9.199 3.255M602.476 522.56l3.173 1.123" style="fill:none;stroke:red;stroke-width:.666665;stroke-linecap:round;stroke-linejoin:round;stroke-miterlimit:4;stroke-dasharray:none;stroke-opacity:1;visibility:visible"/><path d="m505.604 366.535-3.765 252.275" style="fill:none;stroke:red;stroke-width:1.99999;stroke-linecap:round;stroke-linejoin:round;stroke-miterlimit:4;stroke-dasharray:none;stroke-opacity:1;visibility:visible"/><path d="m514.208 364.585-4.176 258.474" style="fill:none;stroke:red;stroke-width:.666665;stroke-linecap:round;stroke-linejoin:round;stroke-miterlimit:4;stroke-dasharray:none;stroke-opacity:1;visibility:visible"/><path d="m532.288 359.645-6.361 249.4" style="fill:none;stroke:red;stroke-width:1.99999;stroke-linecap:round;stroke-linejoin:round;stroke-miterlimit:4;stroke-dasharray:none;stroke-opacity:1;visibility:visible"/><path d="m501.727 619.035 8.159 4.227M510.03 623.285l15.853-13.973" style="fill:none;stroke:red;stroke-width:.666665;stroke-linecap:round;stroke-linejoin:round;stroke-miterlimit:4;stroke-dasharray:none;stroke-opacity:1;visibility:visible"/><path d="m80.56 266.4.139 7.485M80.548 266.273l186.844-17.953" style="fill:none;stroke:red;stroke-width:1.99999;stroke-linecap:round;stroke-linejoin:round;stroke-miterlimit:4;stroke-dasharray:none;stroke-opacity:1;visibility:visible"/><path d="m93.234 269.39 189.652-18.093" style="fill:none;stroke:red;stroke-width:.666665;stroke-linecap:round;stroke-linejoin:round;stroke-miterlimit:4;stroke-dasharray:none;stroke-opacity:1;visibility:visible"/><path d="m256.152 260.175 20.579-2.139M93.585 277.078l117.76-12.245" style="fill:none;stroke:red;stroke-width:1.99999;stroke-linecap:round;stroke-linejoin:round;stroke-miterlimit:4;stroke-dasharray:none;stroke-opacity:1;visibility:visible"/><path d="M93.32 269.298v7.545" style="fill:none;stroke:red;stroke-width:.666665;stroke-linecap:round;stroke-linejoin:round;stroke-miterlimit:4;stroke-dasharray:none;stroke-opacity:1;visibility:visible"/><path d="m151.092 271.52 1.159 10.18 1.937 17.012L174.047 469M129.032 273.424l22.705 200.58" style="fill:none;stroke:red;stroke-width:1.99999;stroke-linecap:round;stroke-linejoin:round;stroke-miterlimit:4;stroke-dasharray:none;stroke-opacity:1;visibility:visible"/><path d="m133.752 273.588 22.968 202.858M174.046 469l-17.473 8.143M156.449 477.084l-4.67-2.919" style="fill:none;stroke:red;stroke-width:.666665;stroke-linecap:round;stroke-linejoin:round;stroke-miterlimit:4;stroke-dasharray:none;stroke-opacity:1;visibility:visible"/><path d="m288.75 417.753.081 2.26M288.084 398.834l.137 3.89M287.404 379.552l.14 3.984M286.696 359.46l.144 4.084M285.997 339.637l.167 4.708M285.576 318.872l.167 4.708M284.566 298.915l.155 4.425" style="fill:none;stroke:red;stroke-width:.999997;stroke-linecap:round;stroke-linejoin:round;stroke-miterlimit:4;stroke-dasharray:none;stroke-opacity:1;visibility:visible"/><path d="m282.893 251.369.488 13.868" style="fill:none;stroke:red;stroke-width:1.99999;stroke-linecap:round;stroke-linejoin:round;stroke-miterlimit:4;stroke-dasharray:none;stroke-opacity:1;visibility:visible"/><path d="m282.458 415.488.101 2.896M281.81 397.21l.125 3.528M281.118 377.743l.139 3.892M280.419 358.019l.14 3.975M279.713 338.188l.155 4.347M278.988 317.742l.147 4.153M278.261 297.28l.163 4.612M276.654 252.01l.424 11.956" style="fill:none;stroke:red;stroke-width:.666665;stroke-linecap:round;stroke-linejoin:round;stroke-miterlimit:4;stroke-dasharray:none;stroke-opacity:1;visibility:visible"/><path d="M635.337 489.932a35.124 35.124 0 0 1 5.397-.221" style="fill:none;stroke:red;stroke-width:.999997;stroke-linecap:round;stroke-linejoin:round;stroke-miterlimit:4;stroke-dasharray:none;stroke-opacity:1;visibility:visible"/><path d="M565.89 530.465s17.705-16.45 38.235-28.455" style="fill:none;stroke:red;stroke-width:.666665;stroke-linecap:round;stroke-linejoin:round;stroke-miterlimit:4;stroke-dasharray:none;stroke-opacity:1;visibility:visible"/><path d="m665.972 497.748-1.768 8.175" style="fill:none;stroke:red;stroke-width:1.99999;stroke-linecap:round;stroke-linejoin:round;stroke-miterlimit:4;stroke-dasharray:none;stroke-opacity:1;visibility:visible"/><path d="M580.544 541.588s9.104-9.64 22-20.002M634.732 501.228c10.972-4.694 21.905-6.53 30.948-2.41" style="fill:none;stroke:red;stroke-width:.666665;stroke-linecap:round;stroke-linejoin:round;stroke-miterlimit:4;stroke-dasharray:none;stroke-opacity:1;visibility:visible"/><path d="M633.536 509.659c10.684-5.185 21.528-7.623 30.424-3.693M605.88 479.1l-36.205-11.237M665.972 497.748l-30.225-9.38M604.8 500.798l-36.19-11.743" style="fill:none;stroke:red;stroke-width:1.99999;stroke-linecap:round;stroke-linejoin:round;stroke-miterlimit:4;stroke-dasharray:none;stroke-opacity:1;visibility:visible"/><path d="m594.404 507.331-26.327-8.724" style="fill:none;stroke:red;stroke-width:.666665;stroke-linecap:round;stroke-linejoin:round;stroke-miterlimit:4;stroke-dasharray:none;stroke-opacity:1;visibility:visible"/><path d="m588.167 511.49-20.116-6.893" style="fill:none;stroke:red;stroke-width:1.99999;stroke-linecap:round;stroke-linejoin:round;stroke-miterlimit:4;stroke-dasharray:none;stroke-opacity:1;visibility:visible"/><path d="m579.257 518.618-12.07-4.024" style="fill:none;stroke:red;stroke-width:.666665;stroke-linecap:round;stroke-linejoin:round;stroke-miterlimit:4;stroke-dasharray:none;stroke-opacity:1;visibility:visible"/><path d="m576.15 521.17-9.343-3.112" style="fill:none;stroke:red;stroke-width:1.33333;stroke-linecap:round;stroke-linejoin:round;stroke-miterlimit:4;stroke-dasharray:none;stroke-opacity:1;visibility:visible"/><path d="m573.055 523.48-6.123-2.052" style="fill:none;stroke:red;stroke-width:1.99999;stroke-linecap:round;stroke-linejoin:round;stroke-miterlimit:4;stroke-dasharray:none;stroke-opacity:1;visibility:visible"/><path d="m591.731 509.115-23.959-7.912" style="fill:none;stroke:red;stroke-width:1.33333;stroke-linecap:round;stroke-linejoin:round;stroke-miterlimit:4;stroke-dasharray:none;stroke-opacity:1;visibility:visible"/><path d="m604.825 491.326-35.813-11.579" style="fill:none;stroke:red;stroke-width:.666665;stroke-linecap:round;stroke-linejoin:round;stroke-miterlimit:4;stroke-dasharray:none;stroke-opacity:1;visibility:visible"/><path d="m603.912 496.756-34.993-11.328" style="fill:none;stroke:red;stroke-width:1.33333;stroke-linecap:round;stroke-linejoin:round;stroke-miterlimit:4;stroke-dasharray:none;stroke-opacity:1;visibility:visible"/><path d="M608.468 526.615c0 .502-.752.91-1.68.91-.926-.001-1.68-.409-1.68-.911 0-.499.754-.909 1.68-.909.928 0 1.68.41 1.68.91M614.072 528.2c0 .5-.752.907-1.68.907-.926 0-1.68-.407-1.68-.907 0-.503.754-.91 1.68-.91.928 0 1.68.408 1.68.91M141.982 262.725c0 .45-1.09.815-2.437.815-1.347 0-2.439-.365-2.439-.815 0-.452 1.092-.819 2.439-.819s2.437.365 2.437.819M522.725 345.207c0 .69-1.664 1.248-3.715 1.248-2.054 0-3.718-.557-3.718-1.248 0-.687 1.664-1.245 3.718-1.245 2.051 0 3.715.557 3.715 1.245" style="fill:none;stroke:red;stroke-width:.666665;stroke-linecap:round;stroke-linejoin:round;stroke-miterlimit:4;stroke-dasharray:none;stroke-opacity:1;visibility:visible"/><path d="m638.142 330.511-.642 7.863s-.774 6.083-6.74 5.776c-6.256-.32-6.094-6.74-6.094-6.74l.347-3.688" style="fill:none;stroke:red;stroke-width:.999997;stroke-linecap:round;stroke-linejoin:round;stroke-miterlimit:4;stroke-dasharray:none;stroke-opacity:1;visibility:visible"/><path d="M632.004 331.873c.032.086.058.181.078.276.164.794-.185 1.541-.782 1.674-.596.134-1.214-.405-1.378-1.2a2.087 2.087 0 0 1-.038-.322M613.774 521.735c.24.779-.037 1.557-.62 1.745-.583.19-1.249-.292-1.489-1.068-.239-.772.039-1.557.623-1.742.585-.184 1.248.292 1.486 1.065M617.474 515.29c.24.778-.037 1.559-.622 1.747-.582.186-1.247-.293-1.484-1.069-.243-.776.037-1.557.62-1.745.586-.184 1.248.292 1.486 1.067M611.861 513.955c.241.775-.037 1.555-.62 1.743-.581.189-1.247-.292-1.487-1.066-.24-.776.038-1.557.622-1.745.584-.184 1.248.292 1.484 1.068h.001M628.425 338.465c.165.793-.184 1.544-.781 1.674-.596.132-1.212-.406-1.376-1.201-.168-.792.182-1.544.78-1.673.6-.13 1.214.405 1.377 1.2M133.793 281.06c.22 1.06-.247 2.06-1.044 2.234-.796.177-1.617-.539-1.836-1.599-.223-1.06.243-2.062 1.04-2.237.801-.172 1.623.544 1.84 1.602M154.322 465.094c.363.906.148 1.854-.478 2.122-.63.271-1.432-.248-1.798-1.15-.365-.904-.153-1.856.478-2.123.633-.265 1.436.25 1.798 1.15v.001M507.604 609.544c.641 1.128.481 2.445-.363 2.936-.844.501-2.05-.017-2.69-1.144-.644-1.128-.487-2.446.358-2.94.852-.492 2.052.023 2.695 1.148M634.741 339.462c.164.793-.185 1.541-.781 1.675-.596.132-1.214-.407-1.376-1.202-.167-.792.182-1.544.78-1.673.598-.13 1.213.405 1.376 1.2h.001M619.07 541.143c-.455 1.097-1.419 1.745-2.153 1.442-.737-.304-.961-1.442-.504-2.544.453-1.098 1.419-1.745 2.152-1.44.735.302.96 1.443.505 2.542M599.937 336.666c-.356 1.273-1.334 2.112-2.186 1.875-.851-.239-1.251-1.468-.891-2.739.357-1.275 1.337-2.115 2.188-1.876.85.24 1.248 1.467.89 2.74h-.001" style="fill:none;stroke:red;stroke-width:.666665;stroke-linecap:round;stroke-linejoin:round;stroke-miterlimit:4;stroke-dasharray:none;stroke-opacity:1;visibility:visible"/><path d="m606.061 523.932-2.048 1.38s-3.283 3.313 2.377 5.644c5.66 2.33 11.486-1.996 11.486-1.996l1.004-1.2.832-8.822s1.665-6.492-5.327-8.656c-6.793-2.102-6.99 3.828-6.99 3.828l-.667 9.322" style="fill:none;stroke:red;stroke-width:.999997;stroke-linecap:round;stroke-linejoin:round;stroke-miterlimit:4;stroke-dasharray:none;stroke-opacity:1;visibility:visible"/><path d="m643.346 319.725-25.177-4.539M480.659 661.61c-.087 1.48-1.256 2.146-2.62 1.501l-12.97-6.226c-1.363-.65-2.403-2.388-2.326-3.861.087-1.494 1.255-2.164 2.624-1.514l12.966 6.224c1.367.651 2.408 2.383 2.327 3.876h-.001M479.945 366.162c-.03 1.487-1.402 2.341-3.069 1.92l-15.848-4.05c-1.661-.422-2.992-1.975-2.965-3.455.027-1.495 1.399-2.349 3.072-1.929l15.841 4.045c1.67.426 3.001 1.976 2.97 3.469h-.001M124.113 500.006c-.156.866-.965 1.248-1.808.854l-8.021-3.75c-.842-.394-1.4-1.416-1.244-2.282.156-.87.964-1.252 1.81-.858l8.018 3.749c.844.393 1.402 1.417 1.245 2.287M91.986 272.703c-.024.731-.638 1.18-1.374 1.004l-7.014-1.665c-.737-.172-1.317-.908-1.297-1.635.021-.732.636-1.18 1.376-1.007l7.013 1.665c.736.175 1.318.908 1.296 1.638" style="fill:none;stroke:red;stroke-width:.666665;stroke-linecap:round;stroke-linejoin:round;stroke-miterlimit:4;stroke-dasharray:none;stroke-opacity:1;visibility:visible"/><path d="m174.046 469-1.31-8.713M156.573 477.143l-5.453-6.148M510.03 623.285l-8.423-12.904" style="fill:none;stroke:red;stroke-width:1.99999;stroke-linecap:round;stroke-linejoin:round;stroke-miterlimit:4;stroke-dasharray:none;stroke-opacity:1;visibility:visible"/><path d="m617.019 527.24 1.9 1.138M605.65 523.683l2.17.302M618.919 528.378l-1.9-1.138" style="fill:none;stroke:red;stroke-width:.666665;stroke-linecap:round;stroke-linejoin:round;stroke-miterlimit:4;stroke-dasharray:none;stroke-opacity:1;visibility:visible"/><path d="m522.725 345.207 9.563 14.438M267.392 248.32l-11.24 11.855" style="fill:none;stroke:red;stroke-width:1.99999;stroke-linecap:round;stroke-linejoin:round;stroke-miterlimit:4;stroke-dasharray:none;stroke-opacity:1;visibility:visible"/><path d="m282.56 418.384 6.19-.631M282.458 415.488l6.373 4.525M281.935 400.738l6.149-1.904M281.81 397.21l6.411 5.515M281.257 381.635l6.147-2.083M281.118 377.743l6.426 5.793M280.559 361.994l6.137-2.534M280.419 358.019l6.421 5.525M279.868 342.535l6.129-2.898M279.713 338.188l6.45 6.157M279.135 321.895l6.441-3.023M278.988 317.742l6.755 5.838M278.424 301.892l6.142-2.977M278.261 297.28l6.46 6.06" style="fill:none;stroke:red;stroke-width:.999997;stroke-linecap:round;stroke-linejoin:round;stroke-miterlimit:4;stroke-dasharray:none;stroke-opacity:1;visibility:visible"/><path d="m276.654 252.01 6.727 13.227" style="fill:none;stroke:red;stroke-width:1.99999;stroke-linecap:round;stroke-linejoin:round;stroke-miterlimit:4;stroke-dasharray:none;stroke-opacity:1;visibility:visible"/><path d="m288.831 420.013-6.373-4.525M288.75 417.753l-6.19.631M288.221 402.725l-6.411-5.515M288.084 398.834l-6.149 1.904M287.544 383.536l-6.426-5.793M287.404 379.552l-6.147 2.083M286.84 363.544l-6.421-5.525M286.696 359.46l-6.137 2.534M286.164 344.345l-6.451-6.157M285.997 339.637l-6.13 2.898M285.743 323.58l-6.755-5.838M285.576 318.872l-6.441 3.023M284.72 303.34l-6.459-6.06M284.566 298.915l-6.142 2.977M282.893 251.369l-5.815 12.597M602.476 522.56l-8.072-15.229" style="fill:none;stroke:red;stroke-width:.666665;stroke-linecap:round;stroke-linejoin:round;stroke-miterlimit:4;stroke-dasharray:none;stroke-opacity:1;visibility:visible"/><path d="m602.476 522.56-14.309-11.07M579.257 518.618l-11.206-14.021" style="fill:none;stroke:red;stroke-width:1.99999;stroke-linecap:round;stroke-linejoin:round;stroke-miterlimit:4;stroke-dasharray:none;stroke-opacity:1;visibility:visible"/><path d="m566.807 518.058 12.45.56M573.055 523.48l-5.869-8.886" style="fill:none;stroke:red;stroke-width:.666665;stroke-linecap:round;stroke-linejoin:round;stroke-miterlimit:4;stroke-dasharray:none;stroke-opacity:1;visibility:visible"/><path d="m566.932 521.428 9.218-.258M573.055 523.48l-6.248-5.422" style="fill:none;stroke:red;stroke-width:1.33333;stroke-linecap:round;stroke-linejoin:round;stroke-miterlimit:4;stroke-dasharray:none;stroke-opacity:1;visibility:visible"/><path d="m566.807 518.058 6.248 5.422M576.15 521.17l-9.218.258" style="fill:none;stroke:red;stroke-width:1.99999;stroke-linecap:round;stroke-linejoin:round;stroke-miterlimit:4;stroke-dasharray:none;stroke-opacity:1;visibility:visible"/><path d="m602.476 522.56-10.745-13.445" style="fill:none;stroke:red;stroke-width:1.33333;stroke-linecap:round;stroke-linejoin:round;stroke-miterlimit:4;stroke-dasharray:none;stroke-opacity:1;visibility:visible"/><path d="m606.728 523.432 1.74 3.183M614.072 528.2l-5.604-1.585M608.468 526.615l5.604 1.585M608.468 526.615l5.604 1.585M532.288 359.645l-9.563-14.438M617.474 515.29l-3.7 6.445M617.474 515.29l-3.7 6.445M613.774 521.735l3.7-6.445M611.861 513.955l5.613 1.335M617.474 515.29l-5.613-1.335M634.741 339.462l-6.316-.997M628.425 338.465l6.316.997" style="fill:none;stroke:red;stroke-width:.666665;stroke-linecap:round;stroke-linejoin:round;stroke-miterlimit:4;stroke-dasharray:none;stroke-opacity:1;visibility:visible"/><path d="m608.468 526.615-1.74-3.183" style="fill:none;stroke:red;stroke-width:.999997;stroke-linecap:round;stroke-linejoin:round;stroke-miterlimit:4;stroke-dasharray:none;stroke-opacity:1;visibility:visible"/><path d="m482.82 668.055-2.161-6.445M482.204 372.554l-2.259-6.392M93.32 276.843l-1.334-4.14M93.32 269.298l-1.334 3.405" style="fill:none;stroke:red;stroke-width:.666665;stroke-linecap:round;stroke-linejoin:round;stroke-miterlimit:4;stroke-dasharray:none;stroke-opacity:1;visibility:visible"/><path d="m224.93 299.62 5.764 137.218M224.014 277.824l.645 15.344" style="fill:none;stroke:#00ff4a;stroke-width:1.99999;stroke-linecap:round;stroke-linejoin:round;stroke-miterlimit:4;stroke-dasharray:none;stroke-opacity:1;visibility:visible"/><path d="m237.894 294.696 5.305 146.164M237.395 280.963l.361 9.943M364.643 474.363l.043 8.479M364.511 448.558l.016 3.2M364.476 441.693l.035 6.864M364.41 428.912l.065 12.781M364.376 422.048l.035 6.864M364.308 408.858l.068 13.19M364.268 400.91l.04 7.948M364.197 387.22l.07 13.69M364.16 380.054l.036 7.167M364.094 367.015l.067 13.039M364.057 359.06l.037 7.955M363.988 345.325l.07 13.736M363.949 337.796l.039 7.528M363.88 324.07l.025 4.86M363.838 315.994l.041 8.076" style="fill:none;stroke:#00ff4a;stroke-width:.666665;stroke-linecap:round;stroke-linejoin:round;stroke-miterlimit:4;stroke-dasharray:none;stroke-opacity:1;visibility:visible"/><path d="m364.023 441.753.03 6.333M363.92 421.881l.035 6.864M363.812 400.743l.039 7.633M363.705 379.887l.035 6.888M363.6 359.166l.033 7.284M363.493 337.945l.037 6.841M363.385 316.158l.036 7.35" style="fill:none;stroke:#00ff4a;stroke-width:1.33333;stroke-linecap:round;stroke-linejoin:round;stroke-miterlimit:4;stroke-dasharray:none;stroke-opacity:1;visibility:visible"/><path d="m363.812 311.045.027 4.95M380.266 331.455l-.395 156.749M380.317 311.333l-.035 14.088" style="fill:none;stroke:#00ff4a;stroke-width:.666665;stroke-linecap:round;stroke-linejoin:round;stroke-miterlimit:4;stroke-dasharray:none;stroke-opacity:1;visibility:visible"/><path d="M383.891 467.673v4.036M383.891 449.1v2.825M383.891 428.641v3.904M383.891 407.11v4.307M383.891 386.111v3.636M383.891 365.12v4.423M383.891 343.046v4.572M383.891 321.244v4.716" style="fill:none;stroke:#00ff4a;stroke-width:1.33333;stroke-linecap:round;stroke-linejoin:round;stroke-miterlimit:4;stroke-dasharray:none;stroke-opacity:1;visibility:visible"/><path d="m536.715 525.22-1.007 17.539M537.223 516.389l-.508 8.83M537.915 504.365l-.692 12.024M538.268 498.212l-.353 6.153M539.158 482.71l-.89 15.503M539.59 475.207l-.43 7.503M540.462 460.048l-.872 15.159M540.988 450.881l-.527 9.167M541.878 435.373l-.89 15.508M542.31 427.881l-.43 7.492M543.162 413.053l-.853 14.828M543.62 405.058l-.459 7.995M544.54 389.062l-.919 15.996M545.002 381.036l-.463 8.027M545.912 365.208l-.91 15.828M546.344 357.708l-.432 7.5" style="fill:none;stroke:#00ff4a;stroke-width:.666665;stroke-linecap:round;stroke-linejoin:round;stroke-miterlimit:4;stroke-dasharray:none;stroke-opacity:1;visibility:visible"/><path d="m536.766 516.475-.475 8.281M537.825 498.063l-.332 5.8M539.127 475.378l-.395 6.904M540.537 450.863l-.487 8.492M541.856 427.925l-.42 7.303M543.178 404.912l-.444 7.752M544.548 381.09l-.45 7.825M545.879 357.911l-.391 6.795" style="fill:none;stroke:#00ff4a;stroke-width:1.33333;stroke-linecap:round;stroke-linejoin:round;stroke-miterlimit:4;stroke-dasharray:none;stroke-opacity:1;visibility:visible"/><path d="m546.468 355.552-.124 2.156M571.553 348.4l-13.69 212.102" style="fill:none;stroke:#00ff4a;stroke-width:.666665;stroke-linecap:round;stroke-linejoin:round;stroke-miterlimit:4;stroke-dasharray:none;stroke-opacity:1;visibility:visible"/><path d="M577.087 347.024 563.72 556.127" style="fill:none;stroke:#00ff4a;stroke-width:1.99999;stroke-linecap:round;stroke-linejoin:round;stroke-miterlimit:4;stroke-dasharray:none;stroke-opacity:1;visibility:visible"/><path d="m557.725 560.792-7.183-2.583" style="fill:none;stroke:#00ff4a;stroke-width:.999997;stroke-linecap:round;stroke-linejoin:round;stroke-miterlimit:4;stroke-dasharray:none;stroke-opacity:1;visibility:visible"/><path d="m540.28 357.016 5.295 1.215M402.367 325.393l64.985 14.902M477.144 342.54l13.279 3.047M380.81 320.447l11.177 2.564M314.777 305.303l19.71 4.521 16.782 3.848 11.857 2.719M237.84 287.663l5.88 1.348M254.21 291.415l49.495 11.351M532.675 378.58l11.557 2.768M493.52 369.326l11.557 2.768M437.035 355.684l18.407 4.407M380.734 342.206s29.322 7.02 45.642 10.93M360.85 337.441l2.163.519M274.16 316.689l14.968 3.584 24.385 5.837 34.41 8.239M238.734 308.208l16.741 4.008M532.053 402.256l10.607 2.7M380.874 363.794l76.606 19.49 21.21 5.397 25.802 6.564M239.628 327.859l123.621 31.45M531.229 425.441l10.383 2.807M380.946 384.82l123.289 33.327M239.97 346.71l123.189 33.3M531.002 448.587l9.224 2.617M380.705 405.93l123.109 34.94M240.967 366.27l122.434 34.75M530.206 473.084l8.695 2.661M380.925 427.407l122.47 37.473M241.34 384.695l122.333 37.433M529.63 495.766l7.85 2.547M380.826 447.511l122.552 39.743M241.86 402.449l121.888 39.527" style="fill:none;stroke:#00ff4a;stroke-width:1.99999;stroke-linecap:round;stroke-linejoin:round;stroke-miterlimit:4;stroke-dasharray:none;stroke-opacity:1;visibility:visible"/><path d="m247.516 423.634.127 3.44M246.81 404.352l.093 2.55M246.15 386.424l.133 3.607M245.475 368.057l.128 3.441M244.74 348.054l.164 4.487M244.048 329.217l.157 4.264M243.316 309.307l.157 4.268M242.555 288.588l.013.367M532.699 359.645l12.696 2.879M467.006 344.753l13.77 3.121M391.028 327.53l66.063 14.977M304.094 307.82l21.995 4.985 15.609 3.54 21.56 4.888M242.754 293.915l48.761 11.055" style="fill:none;stroke:#00ff4a;stroke-width:1.33333;stroke-linecap:round;stroke-linejoin:round;stroke-miterlimit:4;stroke-dasharray:none;stroke-opacity:1;visibility:visible"/><path d="m532.752 362.304 12.633 2.861M384.796 328.789l67.546 15.3M462.732 346.446l12.443 2.819M297.775 309.076l23.024 5.216 13.472 3.052 29.305 6.637M238.734 295.7l48.29 10.94" style="fill:none;stroke:#00ff4a;stroke-width:.666665;stroke-linecap:round;stroke-linejoin:round;stroke-miterlimit:4;stroke-dasharray:none;stroke-opacity:1;visibility:visible"/><path d="m532.596 384.083 11.192 2.732M484.03 372.066l20.659 5.207M384.245 347.878l70.67 17.248M266.697 319.194l16.061 3.92 22.856 5.579 57.656 14.069M243.647 313.567l15.215 3.713" style="fill:none;stroke:#00ff4a;stroke-width:1.33333;stroke-linecap:round;stroke-linejoin:round;stroke-miterlimit:4;stroke-dasharray:none;stroke-opacity:1;visibility:visible"/><path d="m532.665 386.539 10.847 2.645M480.354 373.77l24.139 5.89M380.25 349.335l100.102 24.435M239.38 314.95l41.857 10.217 20.346 4.967 62.237 15.19" style="fill:none;stroke:#00ff4a;stroke-width:.666665;stroke-linecap:round;stroke-linejoin:round;stroke-miterlimit:4;stroke-dasharray:none;stroke-opacity:1;visibility:visible"/><path d="m531.653 407.595 11.241 2.893M383.889 369.546l120.201 30.95M244.541 333.666l118.95 30.628" style="fill:none;stroke:#00ff4a;stroke-width:1.33333;stroke-linecap:round;stroke-linejoin:round;stroke-miterlimit:4;stroke-dasharray:none;stroke-opacity:1;visibility:visible"/><path d="m531.753 410.238 10.555 2.713M380.17 371.259l124.162 31.927M239.506 335.088l123.906 31.861" style="fill:none;stroke:#00ff4a;stroke-width:.666665;stroke-linecap:round;stroke-linejoin:round;stroke-miterlimit:4;stroke-dasharray:none;stroke-opacity:1;visibility:visible"/><path d="m531.13 430.423 10.421 2.844M383.96 390.28l120.209 32.788M245.049 352.393l118.53 32.33" style="fill:none;stroke:#00ff4a;stroke-width:1.33333;stroke-linecap:round;stroke-linejoin:round;stroke-miterlimit:4;stroke-dasharray:none;stroke-opacity:1;visibility:visible"/><path d="m531.204 432.8 10.199 2.779M380.184 391.65l124.037 33.799M241.028 353.734l122.928 33.495" style="fill:none;stroke:#00ff4a;stroke-width:.666665;stroke-linecap:round;stroke-linejoin:round;stroke-miterlimit:4;stroke-dasharray:none;stroke-opacity:1;visibility:visible"/><path d="m530.76 454.204 9.455 2.735M383.787 411.67l119.808 34.672M245.434 371.63l118.361 34.253" style="fill:none;stroke:#00ff4a;stroke-width:1.33333;stroke-linecap:round;stroke-linejoin:round;stroke-miterlimit:4;stroke-dasharray:none;stroke-opacity:1;visibility:visible"/><path d="m530.8 457.053 8.973 2.599M380.243 413.446l122.993 35.623M240.798 373.057l123.129 35.663" style="fill:none;stroke:#00ff4a;stroke-width:.666665;stroke-linecap:round;stroke-linejoin:round;stroke-miterlimit:4;stroke-dasharray:none;stroke-opacity:1;visibility:visible"/><path d="m529.898 477.136 8.975 2.757M384.055 432.324l119.468 36.708M246.326 390.005l117.749 36.181" style="fill:none;stroke:#00ff4a;stroke-width:1.33333;stroke-linecap:round;stroke-linejoin:round;stroke-miterlimit:4;stroke-dasharray:none;stroke-opacity:1;visibility:visible"/><path d="m530.081 480.11 8.245 2.53M379.943 434.032l123.444 37.885M242.307 391.791l121.488 37.285" style="fill:none;stroke:#00ff4a;stroke-width:.666665;stroke-linecap:round;stroke-linejoin:round;stroke-miterlimit:4;stroke-dasharray:none;stroke-opacity:1;visibility:visible"/><path d="m529.495 498.516 8.039 2.607M383.81 452.04l119.125 38.623M246.91 407.657l116.892 37.896" style="fill:none;stroke:#00ff4a;stroke-width:1.33333;stroke-linecap:round;stroke-linejoin:round;stroke-miterlimit:4;stroke-dasharray:none;stroke-opacity:1;visibility:visible"/><path d="m529.383 501.683 7.676 2.497M380.102 453.855l123.136 40.073M242.308 409.011l121.525 39.55" style="fill:none;stroke:#00ff4a;stroke-width:.666665;stroke-linecap:round;stroke-linejoin:round;stroke-miterlimit:4;stroke-dasharray:none;stroke-opacity:1;visibility:visible"/><path d="m528.812 514.136 7.639 2.47M380.883 466.321l122.241 39.513M242.66 421.644l113.48 36.735" style="fill:none;stroke:#00ff4a;stroke-width:1.99999;stroke-linecap:round;stroke-linejoin:round;stroke-miterlimit:4;stroke-dasharray:none;stroke-opacity:1;visibility:visible"/><path d="m528.976 518.28 7.435 2.399M383.912 471.47l118.737 38.315M247.443 427.433l105.524 34.107" style="fill:none;stroke:#00ff4a;stroke-width:1.33333;stroke-linecap:round;stroke-linejoin:round;stroke-miterlimit:4;stroke-dasharray:none;stroke-opacity:1;visibility:visible"/><path d="m528.476 522.608 7.935 2.604M380.22 473.957 502.7 514.15M243.374 429.053l112.564 36.94M242.78 294.186l-4.401.977M243.242 313.523l-4.4.979M244.22 333.812l-4.4.979M244.8 352.544l-4.4.977M245.197 371.7l-4.4.979M246.176 390.033l-4.4.979M246.91 407.657l-4.4.979M247.37 427.345l-4.127 1.557" style="fill:none;stroke:#00ff4a;stroke-width:.666665;stroke-linecap:round;stroke-linejoin:round;stroke-miterlimit:4;stroke-dasharray:none;stroke-opacity:1;visibility:visible"/><path d="m421.763 319.918 68.176 14.66M500.887 336.931l13.932 2.995M333.817 301.008l22.601 4.859 10.742 2.309 45.015 9.677M333.402 300.92l.416.088M221.24 267.082l.096 3.781.101 4.107.05 1.888 37.901 8.15M271.605 287.634l50.805 10.923M211.7 264.992l327.314 68.852" style="fill:none;stroke:#00ff4a;stroke-width:1.33333;stroke-linecap:round;stroke-linejoin:round;stroke-miterlimit:4;stroke-dasharray:none;stroke-opacity:1;visibility:visible"/><path d="m211.463 258.307.237 6.685" style="fill:none;stroke:#00ff4a;stroke-width:.999997;stroke-linecap:round;stroke-linejoin:round;stroke-miterlimit:4;stroke-dasharray:none;stroke-opacity:1;visibility:visible"/><path d="m211.89 258.085 349.556 70.844" style="fill:none;stroke:#00ff4a;stroke-width:.666665;stroke-linecap:round;stroke-linejoin:round;stroke-miterlimit:4;stroke-dasharray:none;stroke-opacity:1;visibility:visible"/><path d="m234.703 255.988 343.188 68.941" style="fill:none;stroke:#00ff4a;stroke-width:1.99999;stroke-linecap:round;stroke-linejoin:round;stroke-miterlimit:4;stroke-dasharray:none;stroke-opacity:1;visibility:visible"/><path d="m222.09 447.813 6.675-3.964" style="fill:none;stroke:#00ff4a;stroke-width:.666665;stroke-linecap:round;stroke-linejoin:round;stroke-miterlimit:4;stroke-dasharray:none;stroke-opacity:1;visibility:visible"/><path d="m229.479 441.058 5.047-2.841M229.874 448.039l-.396-6.981" style="fill:none;stroke:#00ff4a;stroke-width:1.33333;stroke-linecap:round;stroke-linejoin:round;stroke-miterlimit:4;stroke-dasharray:none;stroke-opacity:1;visibility:visible"/><path d="m266.355 461.324-36.48-13.285M338.468 487.588l-14.537-5.294M313.49 478.49l-41.95-15.276M408.943 513.25l-57.981-21.115M483.438 540.38l-66.817-24.333M502.419 547.292l-12.032-4.383M544.374 562.571l-6.168-2.248-5.767-2.099-4.505-1.64" style="fill:none;stroke:#00ff4a;stroke-width:.666665;stroke-linecap:round;stroke-linejoin:round;stroke-miterlimit:4;stroke-dasharray:none;stroke-opacity:1;visibility:visible"/><path d="m528.292 540.558 22.216 7.755M358.555 481.295l144.19 50.344M338.812 474.402l8.416 2.94M234.525 438.217 338.813 474.4" style="fill:none;stroke:#00ff4a;stroke-width:1.33333;stroke-linecap:round;stroke-linejoin:round;stroke-miterlimit:4;stroke-dasharray:none;stroke-opacity:1;visibility:visible"/><path d="m333.314 477.571-103.44-36.255M343.391 481.186l-10.45-3.69M502.109 537.235l-146.181-51.623M544.748 552.292l-16.616-5.867M550.585 548.558l-5.724 3.815M544.886 552.592l-.293 9.85" style="fill:none;stroke:#00ff4a;stroke-width:.666665;stroke-linecap:round;stroke-linejoin:round;stroke-miterlimit:4;stroke-dasharray:none;stroke-opacity:1;visibility:visible"/><path d="m550.89 548.615-.381 9.355" style="fill:none;stroke:#00ff4a;stroke-width:1.33333;stroke-linecap:round;stroke-linejoin:round;stroke-miterlimit:4;stroke-dasharray:none;stroke-opacity:1;visibility:visible"/><path d="m550.507 558.319-5.764 4.372M262.755 462.472l-40.665-14.659M310.53 479.805l-41.773-15.156M336.915 489.394l-15.644-5.69M405.815 514.446l-55.819-20.297M482.42 542.199l-67.155-24.323M502.139 549.342l-13.493-4.888M550.662 566.951l-14.372-5.219-6.243-2.265-2.08-.753M222.09 447.813l.553 7.05" style="fill:none;stroke:#00ff4a;stroke-width:.666665;stroke-linecap:round;stroke-linejoin:round;stroke-miterlimit:4;stroke-dasharray:none;stroke-opacity:1;visibility:visible"/><path d="m527.703 567.261 16.18 5.964M481.262 550.102l20.73 7.685M472.505 546.855l.496.185M409 523.313l63.505 23.541M344.803 499.782l51.27 18.768M313.59 488.355l17.921 6.56M261.127 469.022l40.673 14.99M222.886 454.93l30.821 11.357" style="fill:none;stroke:#00ff4a;stroke-width:1.99999;stroke-linecap:round;stroke-linejoin:round;stroke-miterlimit:4;stroke-dasharray:none;stroke-opacity:1;visibility:visible"/><path d="M219.25 262.125c.244 1.168-.27 2.265-1.147 2.46-.876.193-1.778-.596-2.02-1.76-.246-1.168.265-2.27 1.143-2.46.884-.19 1.784.598 2.024 1.76M274.778 282.749c.188-.416.507-.722.915-.81.797-.172 1.617.544 1.837 1.602.221 1.059-.247 2.059-1.044 2.234-.487.108-.981-.117-1.344-.552M228.1 452.252c.464.974.25 2.06-.48 2.419-.73.363-1.7-.14-2.165-1.113-.469-.978-.258-2.063.475-2.426.737-.356 1.703.144 2.17 1.12M415.559 512.135c-.081-.639.125-1.225.592-1.51.704-.423 1.71-.01 2.26.919.55.931.43 2.03-.264 2.451-.348.216-.777.219-1.184.051M542.263 566.85c.641 1.13.481 2.447-.363 2.939-.844.499-2.05-.021-2.69-1.146-.646-1.13-.488-2.446.357-2.94.851-.493 2.053.022 2.696 1.147M510.907 375.614c.297 1.265-.231 2.481-1.182 2.716-.949.24-1.957-.6-2.254-1.861-.301-1.264.225-2.48 1.176-2.716.956-.233 1.961.6 2.26 1.86v.001M547.899 331.983a2.977 2.977 0 0 1-.416-.966c-.299-1.264.225-2.482 1.176-2.718.957-.229 1.961.603 2.261 1.864a3.1 3.1 0 0 1 .073.484M582.284 574.593c-.452 1.102-1.417 1.747-2.15 1.443-.739-.303-.964-1.443-.507-2.544.456-1.099 1.42-1.745 2.153-1.44.735.304.96 1.443.504 2.541M380.305 349.114l3.588-1.495M380.206 371.137l3.688-1.595M380.206 391.565l3.787-1.396M380.193 413.292l3.904-1.75M379.94 434.027l4.037-1.481M380.076 453.54l3.768-1.615M379.94 473.727l3.904-2.019M338.488 295.887c.187-.416.507-.72.914-.809.801-.172 1.621.544 1.837 1.602.223 1.06-.244 2.06-1.044 2.234-.484.108-.981-.117-1.344-.552M429.7 314.853c.187-.416.506-.723.914-.81.8-.172 1.62.544 1.836 1.602.222 1.06-.244 2.06-1.043 2.234-.485.108-.981-.117-1.344-.552M507.787 331.957c.186-.417.505-.722.913-.81.8-.172 1.62.544 1.837 1.603.223 1.059-.245 2.059-1.044 2.233-.485.108-.98-.117-1.343-.552" style="fill:none;stroke:#00ff4a;stroke-width:.666665;stroke-linecap:round;stroke-linejoin:round;stroke-miterlimit:4;stroke-dasharray:none;stroke-opacity:1;visibility:visible"/><path d="m457.718 345.457 52.181-12.588" style="fill:none;stroke:#00ff4a;stroke-width:.666665;stroke-linecap:round;stroke-linejoin:round;stroke-miterlimit:2;stroke-dasharray:none;stroke-opacity:1;visibility:visible"/><path d="M490.767 538.521c-.103-.636.082-1.229.54-1.53.688-.446 1.708-.068 2.29.839.583.913.501 2.014-.177 2.459-.34.227-.768.246-1.18.092M320.627 478.29c-.046-.64.19-1.214.675-1.474.724-.386 1.705.082 2.205 1.038.5.96.323 2.052-.393 2.434-.36.196-.788.178-1.185-.013M270.349 460.086c-.026-.643.23-1.208.721-1.451.737-.359 1.703.139 2.172 1.11.468.976.252 2.059-.476 2.421-.365.18-.792.149-1.184-.054M377.944 455.602c.016.245-.22.357-.52.252l-10.326-3.78c-.298-.104-.548-.384-.56-.624l-.156-3.34c-.01-.243.222-.358.522-.254l10.448 3.59c.296.106.552.384.564.628l.028 3.528" style="fill:none;stroke:#00ff4a;stroke-width:.666665;stroke-linecap:round;stroke-linejoin:round;stroke-miterlimit:4;stroke-dasharray:none;stroke-opacity:1;visibility:visible"/><path d="M375.844 453.695s.044-.03.024-.093a1.832 1.832 0 0 0-.084-.183l-.478-.167s-.056.082-.068.134c-.016.049.036.112.036.112l-.966-.334s.054-.018.086-.07c.03-.05.442-.886.461-.915.03-.055-.03-.115-.03-.115l1.534.527s-.051.019-.02.101c.031.082.565 1.23.591 1.271a.455.455 0 0 0 .105.136l-1.191-.404" style="fill:none;fill-opacity:1;fill-rule:nonzero;stroke:#00ff4a;stroke-width:1.33333;visibility:visible"/><path d="m375.662 453.14-.128-.27a.21.21 0 0 1-.02-.076l-.002.002s-.004.035-.014.058a3.746 3.746 0 0 0-.108.198l.272.088M372.216 451.17s.046.036.052.096c0 .042.047 1.073.048 1.094.002.012.012.102-.048.102l1.856.64-.024-.446s-.04.027-.122 0c-.016-.008-.723-.249-.723-.249l-.008-.101.521.176c.036.016.123.048.146.084l-.016-.396c-.026.02-.11-.003-.14-.02a18.452 18.452 0 0 1-.526-.175l-.008-.108s.61.212.686.235c.104.04.172.12.172.12l-.019-.419-1.847-.633M370.5 451.856a.181.181 0 0 1-.06-.133l-.024-.421s.331.5.364.568c.034.074-.004.077-.004.077l1.274.437s-.014-.009-.028-.024a.873.873 0 0 1-.12-.131c-.047-.067-.542-.838-.542-.838s.33-.275.384-.311c.046-.038.098-.038.098-.04a1.69 1.69 0 0 0-.082-.033l-1.012-.345s.064.056.012.101c-.049.047-.35.29-.35.29-.01-.214-.022-.419-.02-.433-.004-.061.045-.066.045-.066l-1.077-.372s.046.041.048.098c.004.043.05 1.074.05 1.098 0 .006.011.098-.049.104l1.093.374M367.828 450.935c.063-.003.055-.088.055-.099 0-.021-.05-1.054-.053-1.098-.002-.058-.048-.092-.048-.092l1.104.374s-.044.008-.043.068l.055 1.12a.16.16 0 0 0 .061.115l-1.131-.388" style="fill:none;fill-opacity:1;fill-rule:nonzero;stroke:#00ff4a;stroke-width:1.33333;visibility:visible"/><path d="M463.42 520.679c0 .364-.548.659-1.222.659-.675 0-1.223-.295-1.223-.66 0-.362.548-.659 1.223-.659.674 0 1.222.297 1.222.66M370.18 487.588c0 .364-.548.659-1.222.659-.675 0-1.223-.295-1.223-.659 0-.364.548-.658 1.223-.658.674 0 1.222.294 1.222.658M303.022 463.872c0 .364-.547.659-1.223.659-.674 0-1.221-.295-1.221-.659 0-.364.547-.658 1.221-.658.676 0 1.223.294 1.223.658M254.45 447.159c0 .364-.548.66-1.223.66-.674 0-1.222-.296-1.222-.66 0-.364.548-.659 1.222-.659.675 0 1.223.295 1.223.66v-.001" style="fill:none;stroke:#00ff4a;stroke-width:.666665;stroke-linecap:round;stroke-linejoin:round;stroke-miterlimit:4;stroke-dasharray:none;stroke-opacity:1;visibility:visible"/><path d="m224.66 293.168.27 6.452M229.478 441.058l1.216-4.22M211.7 264.992l12.314 12.832M224.93 299.62l-.27-6.452" style="fill:none;stroke:#00ff4a;stroke-width:1.99999;stroke-linecap:round;stroke-linejoin:round;stroke-miterlimit:4;stroke-dasharray:none;stroke-opacity:1;visibility:visible"/><path d="m254.45 447.159-11.25-6.3M242.568 288.955l-5.173-7.992M237.894 294.696l-.138-3.79M370.18 487.588l-5.537-13.225M370.18 487.588l-5.494-4.746M364.023 441.753l.504 10.005M363.949 337.796l-.044-8.866M363.421 323.507l.391-12.462M380.282 325.421l-.016 6.034M370.18 487.588l9.691.616M383.891 325.96l-3.574-14.627M383.891 321.244l-3.609 4.177" style="fill:none;stroke:#00ff4a;stroke-width:.666665;stroke-linecap:round;stroke-linejoin:round;stroke-miterlimit:4;stroke-dasharray:none;stroke-opacity:1;visibility:visible"/><path d="m377.944 455.602 5.947 12.071M377.944 455.602l5.947-6.502M383.891 411.417v17.224M383.891 389.747v17.363M383.891 369.543v16.568M383.891 347.618v17.502M383.891 325.96v17.086M380.282 325.421l3.609-4.177M380.266 331.455l3.625-5.495" style="fill:none;stroke:#00ff4a;stroke-width:1.33333;stroke-linecap:round;stroke-linejoin:round;stroke-miterlimit:4;stroke-dasharray:none;stroke-opacity:1;visibility:visible"/><path d="m544.886 552.592-9.178-9.833M545.488 364.706l.98-9.154" style="fill:none;stroke:#00ff4a;stroke-width:.666665;stroke-linecap:round;stroke-linejoin:round;stroke-miterlimit:4;stroke-dasharray:none;stroke-opacity:1;visibility:visible"/><path d="m550.89 548.615 12.83 7.512M545.395 362.524l-5.115-5.508M391.987 323.011l10.38 2.382M467.006 344.753l.346-4.458M480.777 347.874l-3.633-5.334M500.887 336.931l-10.464 8.656M363.258 321.233l17.552-.786M391.028 327.53l.96-4.519M322.41 298.557l-7.633 6.746M242.754 293.915l.966-4.904M259.388 285.008l-5.178 6.407M304.094 307.82l-.389-5.054M543.788 386.815l-11.113-8.235M504.689 377.273l-11.169-7.947M426.376 353.136l10.659 2.548M462.732 346.446l-7.29 13.645M363.82 345.325l16.914-3.119M437.035 355.684l-10.659-2.548M363.27 342.762l-2.42-5.321M258.862 317.28l15.298-.591M360.85 337.441l-12.926-3.092M243.72 289.011l-4.986 19.197M243.647 313.567l11.828-1.351M542.894 410.488l-10.841-8.232M363.491 364.294l17.383-.5M541.551 433.267l-10.322-7.826M363.956 387.229l16.99-2.409M540.215 456.939l-9.213-8.352M363.795 405.883l16.91.047M538.873 479.893l-8.667-6.809M364.075 426.186l16.85 1.221M537.534 501.123l-7.904-5.357M375.662 453.14l5.164-5.629" style="fill:none;stroke:#00ff4a;stroke-width:1.99999;stroke-linecap:round;stroke-linejoin:round;stroke-miterlimit:4;stroke-dasharray:none;stroke-opacity:1;visibility:visible"/><path d="m246.903 406.901.613 16.733M246.283 390.03l.527 14.322M245.603 371.498l.547 14.926M244.904 352.54l.571 15.517M244.205 333.481l.535 14.573M243.473 313.575l.575 15.642M237.756 290.906l5.56 18.401M237.756 290.906l4.799-2.318M237.894 294.696l4.674-5.741M545.575 358.23l-12.876 1.415M540.28 357.016l5.115 5.508M467.352 340.295l-.346 4.458M477.144 342.54l3.633 5.334M391.987 323.011l-.959 4.519M462.732 346.446l-5.641-3.939M303.705 302.766l.389 5.054M360.85 337.441l2.408-16.208M297.775 309.076l-6.26-4.106" style="fill:none;stroke:#00ff4a;stroke-width:1.33333;stroke-linecap:round;stroke-linejoin:round;stroke-miterlimit:4;stroke-dasharray:none;stroke-opacity:1;visibility:visible"/><path d="m545.395 362.524-12.643-.22M391.987 323.011l-7.191 5.778M462.732 346.446l-10.39-2.357M457.091 342.507l5.641 3.939M477.144 342.54l-1.969 6.725M291.515 304.97l6.26 4.106M297.775 309.076l-10.75-2.436" style="fill:none;stroke:#00ff4a;stroke-width:.666665;stroke-linecap:round;stroke-linejoin:round;stroke-miterlimit:4;stroke-dasharray:none;stroke-opacity:1;visibility:visible"/><path d="m544.232 381.348-11.636 2.735M532.665 386.539l11.123.276M480.352 373.77l3.678-1.704M493.52 369.326l11.169 7.947M258.862 317.28l7.835 1.914M360.85 337.441l2.42 5.321M266.697 319.194l-7.835-1.914" style="fill:none;stroke:#00ff4a;stroke-width:1.33333;stroke-linecap:round;stroke-linejoin:round;stroke-miterlimit:4;stroke-dasharray:none;stroke-opacity:1;visibility:visible"/><path d="m543.788 386.815-11.123-.276M493.52 369.326l10.973 10.335" style="fill:none;stroke:#00ff4a;stroke-width:.666665;stroke-linecap:round;stroke-linejoin:round;stroke-miterlimit:4;stroke-dasharray:none;stroke-opacity:1;visibility:visible"/><path d="m542.66 404.956-11.007 2.639M531.753 410.238l11.141.25M380.874 363.794l-17.383.5" style="fill:none;stroke:#00ff4a;stroke-width:1.33333;stroke-linecap:round;stroke-linejoin:round;stroke-miterlimit:4;stroke-dasharray:none;stroke-opacity:1;visibility:visible"/><path d="m542.894 410.488-11.141-.25" style="fill:none;stroke:#00ff4a;stroke-width:.666665;stroke-linecap:round;stroke-linejoin:round;stroke-miterlimit:4;stroke-dasharray:none;stroke-opacity:1;visibility:visible"/><path d="m541.612 428.248-10.482 2.175M531.204 432.8l10.347.467M380.946 384.82l-17.367-.096" style="fill:none;stroke:#00ff4a;stroke-width:1.33333;stroke-linecap:round;stroke-linejoin:round;stroke-miterlimit:4;stroke-dasharray:none;stroke-opacity:1;visibility:visible"/><path d="m541.551 433.267-10.347-.467" style="fill:none;stroke:#00ff4a;stroke-width:.666665;stroke-linecap:round;stroke-linejoin:round;stroke-miterlimit:4;stroke-dasharray:none;stroke-opacity:1;visibility:visible"/><path d="m540.226 451.204-9.466 3M530.8 457.053l9.415-.114M380.705 405.93l-16.91-.047" style="fill:none;stroke:#00ff4a;stroke-width:1.33333;stroke-linecap:round;stroke-linejoin:round;stroke-miterlimit:4;stroke-dasharray:none;stroke-opacity:1;visibility:visible"/><path d="m540.215 456.939-9.415.114" style="fill:none;stroke:#00ff4a;stroke-width:.666665;stroke-linecap:round;stroke-linejoin:round;stroke-miterlimit:4;stroke-dasharray:none;stroke-opacity:1;visibility:visible"/><path d="m538.9 475.745-9.002 1.391M530.081 480.11l8.792-.217M380.925 427.407l-16.85-1.22" style="fill:none;stroke:#00ff4a;stroke-width:1.33333;stroke-linecap:round;stroke-linejoin:round;stroke-miterlimit:4;stroke-dasharray:none;stroke-opacity:1;visibility:visible"/><path d="m538.873 479.893-8.792.217" style="fill:none;stroke:#00ff4a;stroke-width:.666665;stroke-linecap:round;stroke-linejoin:round;stroke-miterlimit:4;stroke-dasharray:none;stroke-opacity:1;visibility:visible"/><path d="m537.48 498.313-7.985.203M529.383 501.683l8.15-.56M367.828 450.935l-4.026-5.382" style="fill:none;stroke:#00ff4a;stroke-width:1.33333;stroke-linecap:round;stroke-linejoin:round;stroke-miterlimit:4;stroke-dasharray:none;stroke-opacity:1;visibility:visible"/><path d="m537.534 501.123-8.151.56" style="fill:none;stroke:#00ff4a;stroke-width:.666665;stroke-linecap:round;stroke-linejoin:round;stroke-miterlimit:4;stroke-dasharray:none;stroke-opacity:1;visibility:visible"/><path d="m536.41 520.679-7.598-6.543M375.662 453.14l5.221 13.181M367.828 450.935l-11.688 7.444" style="fill:none;stroke:#00ff4a;stroke-width:1.99999;stroke-linecap:round;stroke-linejoin:round;stroke-miterlimit:4;stroke-dasharray:none;stroke-opacity:1;visibility:visible"/><path d="m536.45 516.605-7.474 1.675M528.476 522.608l7.935-1.93M367.828 450.935l-14.861 10.605" style="fill:none;stroke:#00ff4a;stroke-width:1.33333;stroke-linecap:round;stroke-linejoin:round;stroke-miterlimit:4;stroke-dasharray:none;stroke-opacity:1;visibility:visible"/><path d="m536.41 520.679-7.934 1.929M358.555 481.295l-2.617-15.302" style="fill:none;stroke:#00ff4a;stroke-width:.666665;stroke-linecap:round;stroke-linejoin:round;stroke-miterlimit:4;stroke-dasharray:none;stroke-opacity:1;visibility:visible"/><path d="m412.175 317.853 9.588 2.065M500.887 336.931l-10.948-2.353M489.939 334.578l10.948 2.353M421.763 319.918l-9.588-2.065M211.7 264.992l9.54 2.09M254.21 291.415l5.178-6.407M259.388 285.008l12.217 2.626M314.777 305.303l7.633-6.746" style="fill:none;stroke:#00ff4a;stroke-width:1.33333;stroke-linecap:round;stroke-linejoin:round;stroke-miterlimit:4;stroke-dasharray:none;stroke-opacity:1;visibility:visible"/><path d="m229.479 441.058-.714 2.791M268.757 464.649l-2.402-3.325M332.942 477.495l5.526 10.093M333.314 477.571l-9.383 4.723M321.271 483.703l-7.781-5.213M266.355 461.324l5.185 1.89M415.265 517.876l-6.322-4.626M338.468 487.588l12.494 4.547M488.646 544.454l-5.208-4.074M408.943 513.25l7.678 2.797M492.24 540.381l10.179 6.911M483.438 540.38l6.949 2.53M544.748 552.292l-16.814 4.292" style="fill:none;stroke:#00ff4a;stroke-width:.666665;stroke-linecap:round;stroke-linejoin:round;stroke-miterlimit:4;stroke-dasharray:none;stroke-opacity:1;visibility:visible"/><path d="m536.41 525.212-8.118 15.346M347.228 477.342l11.327 3.953M492.24 540.381l10.505-8.742M358.555 481.295l-11.327-3.953" style="fill:none;stroke:#00ff4a;stroke-width:1.33333;stroke-linecap:round;stroke-linejoin:round;stroke-miterlimit:4;stroke-dasharray:none;stroke-opacity:1;visibility:visible"/><path d="m338.812 474.402 4.579 6.784M492.24 540.381l9.869-3.146M347.228 477.342l8.7 8.27M268.757 464.649l-6.002-2.177M313.59 488.355l-3.06-8.55M266.355 461.324l2.402 3.325M332.942 477.495l3.973 11.899M313.49 478.49l7.781 5.213M409 523.313l-3.185-8.867M338.468 487.588l11.528 6.56M488.646 544.454l-6.226-2.255M408.943 513.25l6.322 4.626M492.24 540.381l9.899 8.961M483.438 540.38l5.208 4.074M550.542 558.21l.12 8.741M544.374 562.571l-16.407-3.857" style="fill:none;stroke:#00ff4a;stroke-width:.666665;stroke-linecap:round;stroke-linejoin:round;stroke-miterlimit:4;stroke-dasharray:none;stroke-opacity:1;visibility:visible"/><path d="m544.374 562.571-16.671 4.69M550.542 558.21l-6.659 15.015M482.42 542.199l-1.158 7.903M488.646 544.454l13.347 13.333M405.815 514.446l3.185 8.867M336.915 489.394l7.888 10.388M409 523.313l-12.928-4.763M310.53 479.805l3.06 8.55M344.803 499.782l-13.292-4.867M262.755 462.472l-1.628 6.55M313.59 488.355l-11.79-4.344M261.127 469.022l-7.42-2.735" style="fill:none;stroke:#00ff4a;stroke-width:1.99999;stroke-linecap:round;stroke-linejoin:round;stroke-miterlimit:4;stroke-dasharray:none;stroke-opacity:1;visibility:visible"/><path d="m408.943 513.25 8.02.796M483.438 540.38l8.802.001M383.891 451.925l-5.947 3.677M383.891 449.1l-5.947 6.502" style="fill:none;stroke:#00ff4a;stroke-width:.666665;stroke-linecap:round;stroke-linejoin:round;stroke-miterlimit:4;stroke-dasharray:none;stroke-opacity:1;visibility:visible"/><path d="m370.5 451.856 1.716-.686M370.5 451.856l1.716-.686M372.216 451.17l-1.716.686M370.5 451.856l-2.672-.921" style="fill:none;fill-opacity:1;fill-rule:nonzero;stroke:#00ff4a;stroke-width:1.33333;visibility:visible"/><path d="m364.686 482.842 5.494 4.746M364.643 474.363l5.537 13.225M243.2 440.86l11.25 6.299M243.2 440.86l11.25 6.299" style="fill:none;stroke:#00ff4a;stroke-width:.666665;stroke-linecap:round;stroke-linejoin:round;stroke-miterlimit:4;stroke-dasharray:none;stroke-opacity:1;visibility:visible"/><path d="m229.479 441.058.693-9.279" style="fill:none;stroke:red;stroke-width:1.99999;stroke-linecap:round;stroke-linejoin:round;stroke-miterlimit:4;stroke-dasharray:none;stroke-opacity:1;visibility:visible"/><path d="m222.09 447.813-1.24 2.474" style="fill:none;stroke:red;stroke-width:.666665;stroke-linecap:round;stroke-linejoin:round;stroke-miterlimit:4;stroke-dasharray:none;stroke-opacity:1;visibility:visible"/><path d="m510.907 375.614-5.303-9.079" style="fill:none;stroke:red;stroke-width:1.99999;stroke-linecap:round;stroke-linejoin:round;stroke-miterlimit:4;stroke-dasharray:none;stroke-opacity:1;visibility:visible"/><path d="m510.907 375.614 3.301-11.029" style="fill:none;stroke:red;stroke-width:.666665;stroke-linecap:round;stroke-linejoin:round;stroke-miterlimit:4;stroke-dasharray:none;stroke-opacity:1;visibility:visible"/><path d="m611.861 513.955-7.061-13.157" style="fill:none;stroke:red;stroke-width:1.99999;stroke-linecap:round;stroke-linejoin:round;stroke-miterlimit:4;stroke-dasharray:none;stroke-opacity:1;visibility:visible"/><path d="m611.861 513.955-7.949-17.199" style="fill:none;stroke:red;stroke-width:1.33333;stroke-linecap:round;stroke-linejoin:round;stroke-miterlimit:4;stroke-dasharray:none;stroke-opacity:1;visibility:visible"/><path d="m510.03 623.285-2.426-13.741M501.607 610.381l5.997-.837" style="fill:none;stroke:red;stroke-width:.666665;stroke-linecap:round;stroke-linejoin:round;stroke-miterlimit:4;stroke-dasharray:none;stroke-opacity:1;visibility:visible"/><path d="m455.96 366.106-1.045-.98" style="fill:none;stroke:#00ff4a;stroke-width:1.33333;stroke-linecap:round;stroke-linejoin:round;stroke-miterlimit:4;stroke-dasharray:none;stroke-opacity:1;visibility:visible"/><path d="m221.24 267.082 13.463-11.094" style="fill:none;stroke:#00ff4a;stroke-width:1.99999;stroke-linecap:round;stroke-linejoin:round;stroke-miterlimit:4;stroke-dasharray:none;stroke-opacity:1;visibility:visible"/><path d="m505.604 366.535 5.303 9.079" style="fill:none;stroke:#00ff4a;stroke-width:.666665;stroke-linecap:round;stroke-linejoin:round;stroke-miterlimit:4;stroke-dasharray:none;stroke-opacity:1;visibility:visible"/></svg>