<svg xmlns="http://www.w3.org/2000/svg" baseProfile="full" height="1122.52" preserveAspectRatio="xMinYMin meet" style="width:765px;height:943px" width="793.701" xml:space="preserve"><path d="m387.151 598.29-6.145 3.44M381.006 601.73l-6.806 3.812M369.722 608.05l-5.706 3.196M274.945 682.71l-35.67 21.493-4.541-3.178-1.589-15.168 98.488-56.194M336.466 626.905l14.404-8.185M354.38 616.721l9.636-5.476M298.76 669.641l89.146-51.797 76.501 38.296M487.596 667.641l19.161 9.65M391.011 818.249l5.532 4.131 117.774-128.855M514.319 693.525l12.674-13.867.911-14.088-38.637-18.52M463.848 634.805 388 598.541" style="fill:none;stroke:red;stroke-width:1.99999;stroke-linecap:round;stroke-linejoin:round;stroke-miterlimit:4;stroke-dasharray:none;stroke-opacity:1;visibility:visible"/><path d="m382.055 601.416 81.61 39.51M488.708 652.8l34.588 16.57-.848 13.471M238.331 689.274l149.392-85.03M233.805 686.972l3.82 2.861M237.88 689.724l1.513 14.88M390.859 803.33l5.383 4.028L501.679 692.97M501.679 692.97l24.971-27.094" style="fill:none;stroke:red;stroke-width:.999997;stroke-linecap:round;stroke-linejoin:round;stroke-miterlimit:4;stroke-dasharray:none;stroke-opacity:1;visibility:visible"/><path d="m517.115 667.321-32.467 34.67M480.964 705.928l-90.328 96.455v15.291" style="fill:none;stroke:red;stroke-width:1.99999;stroke-linecap:round;stroke-linejoin:round;stroke-miterlimit:4;stroke-dasharray:none;stroke-opacity:1;visibility:visible"/><path d="m275.089 676.076 140.533 98.22M396.011 804.883v14.163" style="fill:none;stroke:red;stroke-width:.999997;stroke-linecap:round;stroke-linejoin:round;stroke-miterlimit:4;stroke-dasharray:none;stroke-opacity:1;visibility:visible"/><path d="m275.653 681.84 136.033 95.64M292.249 666.793l136.383 92.988" style="fill:none;stroke:red;stroke-width:1.99999;stroke-linecap:round;stroke-linejoin:round;stroke-miterlimit:4;stroke-dasharray:none;stroke-opacity:1;visibility:visible"/><path d="M387.723 604.243v1.812M387.723 615.868v2.752M291.747 665.885l-16.969 9.665M274.586 675.93v5.622M429.476 779.08c-.852-.494-.942-1.921-.194-3.177.736-1.262 2.028-1.873 2.88-1.373.848.504.937 1.926.194 3.187-.741 1.255-2.03 1.867-2.88 1.363M484.797 703.348l.716-.772c.312-.519 1.047-.882 1.9-.882 1.135 0 2.059.644 2.059 1.444 0 .398-.23.756-.605 1.019l-9.596 10.364c-.312.52-1.044.881-1.898.881-1.138 0-2.06-.644-2.06-1.444 0-.397.232-.757.604-1.02l5.026-5.428M336.471 628.121l1.796-1.025c.373-.261.888-.423 1.456-.423 1.139 0 2.06.644 2.06 1.444 0 .398-.23.758-.603 1.02l-11.575 6.606a2.73 2.73 0 0 1-1.111.227c-1.139 0-2.06-.645-2.06-1.443 0-.398.23-.76.603-1.02l4.906-2.8" style="fill:none;stroke:red;stroke-width:.999997;stroke-linecap:round;stroke-linejoin:round;stroke-miterlimit:4;stroke-dasharray:none;stroke-opacity:1;visibility:visible"/><path d="M387.69 607.104v7.967" style="fill:none;stroke:red;stroke-width:.666665;stroke-linecap:round;stroke-linejoin:round;stroke-miterlimit:4;stroke-dasharray:none;stroke-opacity:1;visibility:visible"/><path d="m387.266 606.823-3.584 1.829c-1.102.583-2.02 1.797-2.387 3.333-.585 2.459.32 4.738 2.213 5.186a2.845 2.845 0 0 0 1.555-.081l2.341-1.47M387.998 606.776l7.524 3.584c1.124.532 2.098 1.703 2.533 3.22.697 2.431-.252 4.831-2.123 5.364a2.836 2.836 0 0 1-1.557-.007l-6.513-3.456" style="fill:none;stroke:red;stroke-width:.999997;stroke-linecap:round;stroke-linejoin:round;stroke-miterlimit:2;stroke-dasharray:none;stroke-opacity:1;visibility:visible"/><path d="M395.928 612.721c.198.522.063 1.055-.305 1.195-.365.14-.823-.17-1.021-.69-.199-.521-.062-1.056.302-1.196.368-.14.828.17 1.024.69v.001M393.456 613.804c.164.53-.005 1.056-.38 1.172-.374.117-.813-.223-.976-.756-.165-.53.007-1.055.38-1.17.375-.116.815.221.976.753v.001" style="fill:none;stroke:red;stroke-width:.666665;stroke-linecap:round;stroke-linejoin:round;stroke-miterlimit:2;stroke-dasharray:none;stroke-opacity:1;visibility:visible"/><path d="M510.312 675.228c-1.145-.496-2.156-1.63-2.642-3.135-.779-2.403.087-4.837 1.937-5.433a2.863 2.863 0 0 1 1.557-.047l3.903 1.904" style="fill:none;stroke:red;stroke-width:.999997;stroke-linecap:round;stroke-linejoin:round;stroke-miterlimit:2;stroke-dasharray:none;stroke-opacity:1;visibility:visible"/><path d="M384.916 611.484c.172-.53.011-1.056-.361-1.177-.373-.127-.815.205-.99.737-.172.526-.009 1.056.361 1.179.372.122.816-.21.989-.74l.001.001M384.91 614.82c.174-.528.013-1.057-.36-1.18-.372-.123-.815.208-.99.739-.172.526-.01 1.056.36 1.178.375.123.82-.21.99-.737M395.836 616.333c.198.52.064 1.057-.305 1.195-.364.14-.823-.17-1.02-.69-.199-.521-.063-1.056.301-1.196.368-.139.83.17 1.024.691M510.119 673.394c-.214-.513-.099-1.052.261-1.2.364-.157.83.136 1.045.651.218.513.1 1.053-.26 1.205-.361.151-.833-.14-1.045-.656h-.001M510.11 669.952c-.215-.514-.1-1.052.261-1.202.364-.154.829.138 1.045.654.217.512.1 1.052-.26 1.204-.361.15-.833-.142-1.047-.656h.001" style="fill:none;stroke:red;stroke-width:.666665;stroke-linecap:round;stroke-linejoin:round;stroke-miterlimit:2;stroke-dasharray:none;stroke-opacity:1;visibility:visible"/><path d="M381.44 604.441c.393.146.638.354.645.59.009.466-.951.864-2.146.888-1.195.021-2.165-.343-2.175-.81-.004-.229.228-.444.606-.605M373.547 609.227c.396.149.64.357.645.59.011.47-.952.867-2.145.887-1.193.023-2.167-.339-2.175-.808-.005-.232.228-.444.604-.603" style="fill:none;stroke:red;stroke-width:.999997;stroke-linecap:round;stroke-linejoin:round;stroke-miterlimit:4;stroke-dasharray:none;stroke-opacity:1;visibility:visible"/><path d="m369.722 608.05 4.478-2.508M374.2 605.542l-4.478 2.508M274.778 675.55l.167 7.16M336.471 628.121l-4.838 1.542M331.633 629.663l4.833-2.758M354.38 616.721l-3.51 1.999M350.87 618.72l3.51-1.999M291.747 665.885l7.013 3.756M480.964 705.928l3.684-3.937M484.797 703.348l-3.833 2.58" style="fill:none;stroke:red;stroke-width:1.99999;stroke-linecap:round;stroke-linejoin:round;stroke-miterlimit:4;stroke-dasharray:none;stroke-opacity:1;visibility:visible"/><path d="m429.476 779.08-13.854-4.784M390.636 817.674l5.375-12.791" style="fill:none;stroke:red;stroke-width:.999997;stroke-linecap:round;stroke-linejoin:round;stroke-miterlimit:4;stroke-dasharray:none;stroke-opacity:1;visibility:visible"/><path d="m429.476 779.08-17.79-1.6M429.476 779.08l-.844-19.299" style="fill:none;stroke:red;stroke-width:1.99999;stroke-linecap:round;stroke-linejoin:round;stroke-miterlimit:4;stroke-dasharray:none;stroke-opacity:1;visibility:visible"/><path d="m387.69 607.104.033 11.516M298.76 669.641l-7.013-3.756M415.622 774.296l13.854 4.784M480.964 705.928l3.833-2.58M484.648 701.991l-3.705 5.519M331.633 629.663l4.838-1.542M336.466 626.905l-4.523 3.802" style="fill:none;stroke:red;stroke-width:.999997;stroke-linecap:round;stroke-linejoin:round;stroke-miterlimit:4;stroke-dasharray:none;stroke-opacity:1;visibility:visible"/><path d="m395.836 616.333.092-3.612M387.723 615.868l8.205-3.147M395.836 616.333l-2.38-2.529M387.723 615.868l5.733-2.064M384.91 614.82l.006-3.336M384.916 611.484l-.006 3.336M393.456 613.804l2.38 2.529M510.11 669.952l.009 3.442M510.119 673.394l-.009-3.442" style="fill:none;stroke:red;stroke-width:.666665;stroke-linecap:round;stroke-linejoin:round;stroke-miterlimit:2;stroke-dasharray:none;stroke-opacity:1;visibility:visible"/><path d="M311.386 247.904c-3.15.948-5.98 1.794-7.364 2.176M317.5 241.69c-4.752 1.335-15.824 4.722-19.054 5.603" style="fill:none;stroke:#00ff4a;stroke-width:.999997;stroke-linecap:round;stroke-linejoin:round;stroke-miterlimit:4;stroke-dasharray:none;stroke-opacity:1;visibility:visible"/><path d="m312.477 238.874 5.306 2.712.782 12.981M317.783 592.405l4.562 2.571 10.313-4.248M317.783 592.405l-25.365-348.388M292.76 243.674s1.026-.237 2.91-.686M311.755 239.005l.675-.172M311.545 248.265l5.482 2.917M317.093 251.41l21.922 335.855" style="fill:none;stroke:#00ff4a;stroke-width:1.99999;stroke-linecap:round;stroke-linejoin:round;stroke-miterlimit:4;stroke-dasharray:none;stroke-opacity:1;visibility:visible"/><path d="m298.673 247.36-6.715-3.246" style="fill:none;stroke:#00ff4a;stroke-width:.999997;stroke-linecap:round;stroke-linejoin:round;stroke-miterlimit:4;stroke-dasharray:none;stroke-opacity:1;visibility:visible"/><path d="m309.582 253.356-5.843-2.806 23.687 336.73 5.5 2.956" style="fill:none;stroke:#00ff4a;stroke-width:1.99999;stroke-linecap:round;stroke-linejoin:round;stroke-miterlimit:4;stroke-dasharray:none;stroke-opacity:1;visibility:visible"/><path d="m322.678 594.475-24.036-347.22M333.137 589.31l-23.594-335.84M317.631 251.216c-5.031 1.384-8.001 2.178-8.001 2.178" style="fill:none;stroke:#00ff4a;stroke-width:.999997;stroke-linecap:round;stroke-linejoin:round;stroke-miterlimit:4;stroke-dasharray:none;stroke-opacity:1;visibility:visible"/><path d="M338.688 587.805a430.603 430.603 0 0 1-5.133 2.25" style="fill:none;stroke:#00ff4a;stroke-width:1.99999;stroke-linecap:round;stroke-linejoin:round;stroke-miterlimit:4;stroke-dasharray:none;stroke-opacity:1;visibility:visible"/><path d="M321.274 585.695c.295.894.028 1.784-.596 1.992-.625.206-1.37-.348-1.665-1.243-.296-.892-.03-1.784.594-1.987.626-.209 1.37.348 1.667 1.238M296.94 253.696c.296.894.03 1.784-.594 1.992-.628.206-1.373-.348-1.668-1.242-.298-.892-.03-1.784.596-1.99.624-.206 1.37.35 1.666 1.241v-.001M296.409 240.44c-.227-.591.28-1.34 1.133-1.662l11.187-2.545c.885-.227 1.726.095 1.885.71" style="fill:none;stroke:#00ff4a;stroke-width:.999997;stroke-linecap:round;stroke-linejoin:round;stroke-miterlimit:4;stroke-dasharray:none;stroke-opacity:1;visibility:visible"/><path d="m296.409 240.44.169 2.13.128 1.322c.05.636.824 1.092 1.73 1.02l10.919-3.239c.909-.071 1.605-.644 1.555-1.28l-.127-1.324-.17-2.127M312.37 315.178c.283.85.032 1.697-.563 1.897-.593.198-1.301-.328-1.585-1.178-.284-.848-.033-1.695.561-1.89.594-.202 1.304.328 1.587 1.171M317.677 388.26c.283.85.032 1.697-.563 1.897-.594.197-1.301-.327-1.587-1.179-.282-.847-.03-1.695.564-1.888.592-.201 1.302.326 1.586 1.17M323.07 467.203c.283.85.032 1.696-.563 1.896-.593.199-1.301-.327-1.585-1.177-.284-.848-.033-1.696.561-1.892.594-.199 1.304.329 1.587 1.173M327.915 532.728c.285.85.035 1.696-.562 1.896-.594.199-1.3-.328-1.586-1.177-.284-.848-.03-1.697.563-1.89.593-.201 1.303.326 1.585 1.17v.001" style="fill:none;stroke:#00ff4a;stroke-width:.999997;stroke-linecap:round;stroke-linejoin:round;stroke-miterlimit:4;stroke-dasharray:none;stroke-opacity:1;visibility:visible"/><path d="M304.298 238.304c0 .17-.41.31-.913.31-.503 0-.912-.14-.912-.31 0-.171.409-.311.912-.311.504 0 .913.14.913.31v.001" style="fill:none;stroke:#00ff4a;stroke-width:.666665;stroke-linecap:round;stroke-linejoin:round;stroke-miterlimit:4;stroke-dasharray:none;stroke-opacity:1;visibility:visible"/><path d="M315.66 272.202c.001.963-.674 1.745-1.508 1.748-.834.001-1.513-.777-1.515-1.74-.003-.963.672-1.745 1.506-1.748.835-.001 1.514.778 1.517 1.74M336.126 569.535c.002.962-.672 1.745-1.507 1.745-.835.004-1.513-.775-1.516-1.737-.002-.964.672-1.746 1.507-1.748.834-.002 1.513.777 1.516 1.74M331.418 501.934c.002.962-.672 1.745-1.508 1.746-.833.003-1.512-.776-1.515-1.738-.002-.964.672-1.746 1.507-1.748.835-.002 1.513.776 1.516 1.74M326.249 431.836c.001.964-.672 1.746-1.507 1.747-.835.003-1.513-.776-1.516-1.739-.003-.964.673-1.744 1.507-1.748.834 0 1.513.778 1.516 1.74M321.52 356.293c.003.962-.672 1.745-1.506 1.747-.835 0-1.514-.777-1.516-1.74-.003-.962.672-1.745 1.507-1.747.834-.003 1.513.777 1.515 1.74M295.67 242.988l8.352 7.092M311.755 239.005l5.745 2.685" style="fill:none;stroke:#00ff4a;stroke-width:.999997;stroke-linecap:round;stroke-linejoin:round;stroke-miterlimit:4;stroke-dasharray:none;stroke-opacity:1;visibility:visible"/><path d="m317.093 251.41 1.472 3.157M298.446 247.293l-2.776-4.305" style="fill:none;stroke:#00ff4a;stroke-width:1.99999;stroke-linecap:round;stroke-linejoin:round;stroke-miterlimit:4;stroke-dasharray:none;stroke-opacity:1;visibility:visible"/><path d="m296.409 240.44.531 13.256M304.298 238.304l-7.358 15.392" style="fill:none;stroke:#00ff4a;stroke-width:.999997;stroke-linecap:round;stroke-linejoin:round;stroke-miterlimit:4;stroke-dasharray:none;stroke-opacity:1;visibility:visible"/><path d="m310.613 236.942-6.315 1.362" style="fill:none;stroke:#00ff4a;stroke-width:.666665;stroke-linecap:round;stroke-linejoin:round;stroke-miterlimit:4;stroke-dasharray:none;stroke-opacity:1;visibility:visible"/><path d="m318.565 254.567-2.905 17.635M309.543 253.47l6.117 18.732M339.015 587.265l-2.889-17.73" style="fill:none;stroke:#00ff4a;stroke-width:.999997;stroke-linecap:round;stroke-linejoin:round;stroke-miterlimit:4;stroke-dasharray:none;stroke-opacity:1;visibility:visible"/><path d="M414.794 199.261c-7.042 10.17-24.25 17.992-24.25 17.992-9.893 5.935-44.184 16.25-68.067 23.032" style="fill:none;stroke:#9500ff;stroke-width:.999997;stroke-linecap:round;stroke-linejoin:round;stroke-miterlimit:4;stroke-dasharray:none;stroke-opacity:1;visibility:visible"/><path d="m414.794 199.261 7.041 323.86s-7.105 30.403-78.61 63.519l-4.698-3.336M317.966 241.757l-.232-4.195M317.84 237.41c1.28-.342 1.633-.49 2.88-.777 1.756-.403 4.52-1.12 6.19-1.561M331.652 233.749a682.314 682.314 0 0 0 13.218-3.933s1.182-.348 3.882-1.21M353.272 227.145c13.844-4.547 27.203-9.565 36.491-14.585 0 0 16.428-8.606 17.99-13.3M407.752 199.261h7.042" style="fill:none;stroke:#9500ff;stroke-width:1.99999;stroke-linecap:round;stroke-linejoin:round;stroke-miterlimit:4;stroke-dasharray:none;stroke-opacity:1;visibility:visible"/><path d="M398.842 232.694c3.377-1.917 6.472-3.906 9.172-5.954l7.565 290.907s-1.537 20.71-73.708 53.773" style="fill:none;stroke:#9500ff;stroke-width:.999997;stroke-linecap:round;stroke-linejoin:round;stroke-miterlimit:4;stroke-dasharray:none;stroke-opacity:1;visibility:visible"/><path d="M394.755 235.4c1.15-.6 2.279-1.207 3.377-1.822" style="fill:none;stroke:#9500ff;stroke-width:1.99999;stroke-linecap:round;stroke-linejoin:round;stroke-miterlimit:4;stroke-dasharray:none;stroke-opacity:1;visibility:visible"/><path d="M382.087 240.836c4.452-1.89 8.764-3.887 12.775-5.98" style="fill:none;stroke:#9500ff;stroke-width:.999997;stroke-linecap:round;stroke-linejoin:round;stroke-miterlimit:4;stroke-dasharray:none;stroke-opacity:1;visibility:visible"/><path d="M377.664 243.072a205.743 205.743 0 0 0 3.73-1.527" style="fill:none;stroke:#9500ff;stroke-width:1.99999;stroke-linecap:round;stroke-linejoin:round;stroke-miterlimit:4;stroke-dasharray:none;stroke-opacity:1;visibility:visible"/><path d="M362.854 248.153a315.626 315.626 0 0 0 14.23-5.26" style="fill:none;stroke:#9500ff;stroke-width:.999997;stroke-linecap:round;stroke-linejoin:round;stroke-miterlimit:4;stroke-dasharray:none;stroke-opacity:1;visibility:visible"/><path d="M358.818 249.952c1.122-.37 2.25-.75 3.388-1.138" style="fill:none;stroke:#9500ff;stroke-width:1.99999;stroke-linecap:round;stroke-linejoin:round;stroke-miterlimit:4;stroke-dasharray:none;stroke-opacity:1;visibility:visible"/><path d="M343.608 254.251a446.71 446.71 0 0 0 14.883-4.626" style="fill:none;stroke:#9500ff;stroke-width:.999997;stroke-linecap:round;stroke-linejoin:round;stroke-miterlimit:4;stroke-dasharray:none;stroke-opacity:1;visibility:visible"/><path d="M338.816 255.842c1.32-.37 2.695-.764 4.111-1.174" style="fill:none;stroke:#9500ff;stroke-width:1.99999;stroke-linecap:round;stroke-linejoin:round;stroke-miterlimit:4;stroke-dasharray:none;stroke-opacity:1;visibility:visible"/><path d="M323.673 259.622a466.706 466.706 0 0 0 15.143-3.996" style="fill:none;stroke:#9500ff;stroke-width:.999997;stroke-linecap:round;stroke-linejoin:round;stroke-miterlimit:4;stroke-dasharray:none;stroke-opacity:1;visibility:visible"/><path d="m395.216 235.384 4.93 151.706M400.863 408.011l3.94 121.259M378.031 243.665l5.51 153.711M384.306 417.355l4.486 125.205M359.175 250.336l6.813 155.132M366.943 426.675l5.528 125.882M339.306 256.171l15.641 308.214" style="fill:none;stroke:#9500ff;stroke-width:1.99999;stroke-linecap:round;stroke-linejoin:round;stroke-miterlimit:4;stroke-dasharray:none;stroke-opacity:1;visibility:visible"/><path d="m365.474 247.769 7.23 155.486-3.014-.588M373.624 422.282l5.899 126.795" style="fill:none;stroke:#9500ff;stroke-width:.999997;stroke-linecap:round;stroke-linejoin:round;stroke-miterlimit:4;stroke-dasharray:none;stroke-opacity:1;visibility:visible"/><path d="m343.176 255.095 8.668 154.581M353.17 432.704l6.912 123.201M362.615 249.224l7.172 153.02M370.818 424.215l5.806 123.945" style="fill:none;stroke:#9500ff;stroke-width:1.99999;stroke-linecap:round;stroke-linejoin:round;stroke-miterlimit:4;stroke-dasharray:none;stroke-opacity:1;visibility:visible"/><path d="m318.211 238.064 4.344 2.462 20.27 345.238" style="fill:none;stroke:#9500ff;stroke-width:.999997;stroke-linecap:round;stroke-linejoin:round;stroke-miterlimit:4;stroke-dasharray:none;stroke-opacity:1;visibility:visible"/><path d="m381.596 241.856 5.919 149.764M388.406 415.15l4.802 121.5" style="fill:none;stroke:#9500ff;stroke-width:1.99999;stroke-linecap:round;stroke-linejoin:round;stroke-miterlimit:4;stroke-dasharray:none;stroke-opacity:1;visibility:visible"/><path d="m398.771 233.082 4.828 151.7-2.91-1.273M404.26 404.166l3.88 121.951M385.243 240.354l5.708 153.546M391.698 413.234l4.626 124.434" style="fill:none;stroke:#9500ff;stroke-width:.999997;stroke-linecap:round;stroke-linejoin:round;stroke-miterlimit:4;stroke-dasharray:none;stroke-opacity:1;visibility:visible"/><path d="M356.123 558.128s1.264-.39 3.484-1.261M373.042 550.557a118.56 118.56 0 0 0 3.412-1.942M389.263 540.081a141.3 141.3 0 0 0 3.596-2.781" style="fill:none;stroke:#9500ff;stroke-width:1.99999;stroke-linecap:round;stroke-linejoin:round;stroke-miterlimit:4;stroke-dasharray:none;stroke-opacity:1;visibility:visible"/><path d="M404.722 529.932c-.502.668-1.255 1.633-1.932 2.343-1.724 1.805-3.84 3.545-6.146 5.425l-3.086-.82M415.26 516.24s-1.636 3.966-6.797 10.032l-3.119-.88M376.626 548.16l3.257 1.092a145.237 145.237 0 0 0 7.344-4.608s.653-.434 1.495-1.044M372.466 553.364a195.77 195.77 0 0 1-9.398 4.573l-3.2-1.594M363.047 556.99l-6.756-126.384M346.526 253.946l8.384 156.821-3.134-1.227" style="fill:none;stroke:#9500ff;stroke-width:.999997;stroke-linecap:round;stroke-linejoin:round;stroke-miterlimit:4;stroke-dasharray:none;stroke-opacity:1;visibility:visible"/><path d="M348.18 415.156s35.171-12.64 50.423-24.182c.001 0 7.648-5.214 13.047-12.45" style="fill:none;stroke:#9500ff;stroke-width:.666665;stroke-linecap:round;stroke-linejoin:round;stroke-miterlimit:4;stroke-dasharray:none;stroke-opacity:1;visibility:visible"/><path d="M347.666 411.511s1.544-.516 4.133-1.441M366.3 404.304a233.96 233.96 0 0 0 3.375-1.414M384.348 394.387a180.976 180.976 0 0 0 3.163-1.695" style="fill:none;stroke:#9500ff;stroke-width:1.99999;stroke-linecap:round;stroke-linejoin:round;stroke-miterlimit:4;stroke-dasharray:none;stroke-opacity:1;visibility:visible"/><path d="M404.148 403.84c3.192-2.64 5.795-5.305 7.512-7.918" style="fill:none;stroke:#9500ff;stroke-width:.999997;stroke-linecap:round;stroke-linejoin:round;stroke-miterlimit:4;stroke-dasharray:none;stroke-opacity:1;visibility:visible"/><path d="M400.586 406.903a76.813 76.813 0 0 0 3.434-2.68" style="fill:none;stroke:#9500ff;stroke-width:1.99999;stroke-linecap:round;stroke-linejoin:round;stroke-miterlimit:4;stroke-dasharray:none;stroke-opacity:1;visibility:visible"/><path d="M388.238 414.538c4.176-2.403 8.192-4.923 11.757-7.498" style="fill:none;stroke:#9500ff;stroke-width:.999997;stroke-linecap:round;stroke-linejoin:round;stroke-miterlimit:4;stroke-dasharray:none;stroke-opacity:1;visibility:visible"/><path d="M384.191 417.138a221.777 221.777 0 0 0 4.425-2.47" style="fill:none;stroke:#9500ff;stroke-width:1.99999;stroke-linecap:round;stroke-linejoin:round;stroke-miterlimit:4;stroke-dasharray:none;stroke-opacity:1;visibility:visible"/><path d="M370.856 423.575a272.93 272.93 0 0 0 12.951-6.567" style="fill:none;stroke:#9500ff;stroke-width:.999997;stroke-linecap:round;stroke-linejoin:round;stroke-miterlimit:4;stroke-dasharray:none;stroke-opacity:1;visibility:visible"/><path d="M366.736 425.802a295.56 295.56 0 0 0 4.502-2.103" style="fill:none;stroke:#9500ff;stroke-width:1.99999;stroke-linecap:round;stroke-linejoin:round;stroke-miterlimit:4;stroke-dasharray:none;stroke-opacity:1;visibility:visible"/><path d="M352.543 431.662a364.69 364.69 0 0 0 13.81-5.988" style="fill:none;stroke:#9500ff;stroke-width:.999997;stroke-linecap:round;stroke-linejoin:round;stroke-miterlimit:4;stroke-dasharray:none;stroke-opacity:1;visibility:visible"/><path d="M348.58 433.548s1.515-.578 4.09-1.633" style="fill:none;stroke:#9500ff;stroke-width:1.99999;stroke-linecap:round;stroke-linejoin:round;stroke-miterlimit:4;stroke-dasharray:none;stroke-opacity:1;visibility:visible"/><path d="m341.871 571.42-4.668-2.895M323.389 259.526l-4.626-3.566" style="fill:none;stroke:#9500ff;stroke-width:.999997;stroke-linecap:round;stroke-linejoin:round;stroke-miterlimit:4;stroke-dasharray:none;stroke-opacity:1;visibility:visible"/><path d="M355.028 411.028a390.236 390.236 0 0 0 11.058-4.524M373.162 403.386a235.32 235.32 0 0 0 10.478-5.063M411.664 376.466c-2.38 3.192-5.158 6.024-7.636 8.277M400.2 387.988a48.728 48.728 0 0 1-2.317 1.724c-1.928 1.46-4.173 2.934-6.625 4.403l-3.779-1.641M358.152 226.85c-.005-.422.991-.777 2.22-.79 1.232-.012 2.232.318 2.235.744" style="fill:none;stroke:#9500ff;stroke-width:.666665;stroke-linecap:round;stroke-linejoin:round;stroke-miterlimit:4;stroke-dasharray:none;stroke-opacity:1;visibility:visible"/><path d="m352.22 218.78.538 11.46M349.056 218.896l.54 11.456M352.76 230.216c.016.322-.68.617-1.557.656-.875.038-1.595-.192-1.608-.52M352.22 218.776c.014.324-.685.618-1.557.657-.877.039-1.596-.193-1.61-.519-.017-.326.681-.62 1.557-.66.873-.036 1.594.194 1.61.522M330.486 225.086l.537 11.46M327.322 225.2l.538 11.458M331.026 236.52c.016.322-.681.617-1.557.656-.875.038-1.595-.192-1.609-.52M330.486 225.08c.013.324-.686.618-1.557.657-.879.039-1.596-.193-1.61-.519-.018-.326.681-.62 1.556-.66.875-.036 1.595.194 1.61.522h.001M362.607 226.804c.005.42-.987.776-2.216.789-1.235.012-2.235-.32-2.239-.743M326.91 235.072l-4.433 5.213" style="fill:none;stroke:#9500ff;stroke-width:.999997;stroke-linecap:round;stroke-linejoin:round;stroke-miterlimit:4;stroke-dasharray:none;stroke-opacity:1;visibility:visible"/><path d="m341.871 571.42-3.344 11.884M327.86 236.656l-9.894 5.101M331.652 233.749l-4.742 1.323M326.91 235.072l4.742-1.323M353.272 227.145l-4.52 1.461M348.752 228.606l4.52-1.461M390.951 393.9l9.912 14.111M373.624 422.282l-7.636-16.814" style="fill:none;stroke:#9500ff;stroke-width:1.99999;stroke-linecap:round;stroke-linejoin:round;stroke-miterlimit:4;stroke-dasharray:none;stroke-opacity:1;visibility:visible"/><path d="m365.988 405.468 7.636 16.814M404.26 404.166 390.951 393.9M383.541 397.376l8.157 15.858" style="fill:none;stroke:#9500ff;stroke-width:.999997;stroke-linecap:round;stroke-linejoin:round;stroke-miterlimit:4;stroke-dasharray:none;stroke-opacity:1;visibility:visible"/><path d="m372.466 553.364.576-2.807M388.722 543.6l.541-3.519" style="fill:none;stroke:#9500ff;stroke-width:1.99999;stroke-linecap:round;stroke-linejoin:round;stroke-miterlimit:4;stroke-dasharray:none;stroke-opacity:1;visibility:visible"/><path d="m389.263 540.081-.541 3.519M348.18 415.156l8.111 15.45" style="fill:none;stroke:#9500ff;stroke-width:.999997;stroke-linecap:round;stroke-linejoin:round;stroke-miterlimit:4;stroke-dasharray:none;stroke-opacity:1;visibility:visible"/><path d="m351.799 410.07-3.619 5.086" style="fill:none;stroke:#9500ff;stroke-width:.666665;stroke-linecap:round;stroke-linejoin:round;stroke-miterlimit:4;stroke-dasharray:none;stroke-opacity:1;visibility:visible"/><path d="m366.086 406.504-18.42 5.007M366.086 406.504l.214-2.2M383.64 398.323l.708-3.936M366.353 425.674l-17.773 7.874" style="fill:none;stroke:#9500ff;stroke-width:1.99999;stroke-linecap:round;stroke-linejoin:round;stroke-miterlimit:4;stroke-dasharray:none;stroke-opacity:1;visibility:visible"/><path d="m351.799 410.07 3.229.958M366.3 404.304l-.214 2.2M369.675 402.89l3.487.496M400.2 387.988l3.828-3.245" style="fill:none;stroke:#9500ff;stroke-width:.666665;stroke-linecap:round;stroke-linejoin:round;stroke-miterlimit:4;stroke-dasharray:none;stroke-opacity:1;visibility:visible"/><path d="m352.22 218.776-3.164.12M331.023 236.546l-3.701-11.346" style="fill:none;stroke:#9500ff;stroke-width:.999997;stroke-linecap:round;stroke-linejoin:round;stroke-miterlimit:4;stroke-dasharray:none;stroke-opacity:1;visibility:visible"/><path d="M478.576 304.45c.315.888.074 1.784-.55 2.008-.616.223-1.376-.313-1.694-1.203-.319-.884-.073-1.781.547-2 .618-.224 1.377.315 1.697 1.195M474.735 669.99c.317.888.073 1.783-.547 2.006-.62.222-1.377-.314-1.696-1.2-.317-.887-.072-1.784.548-2 .62-.226 1.377.313 1.695 1.194" style="fill:none;stroke:#ffdf00;stroke-width:.999997;stroke-linecap:round;stroke-linejoin:round;stroke-miterlimit:4;stroke-dasharray:none;stroke-opacity:1;visibility:visible"/><path d="m474.033 294.551-3.95 382.393M474.192 294.305l3.698-2.666M492.008 285.233l2.763.542M494.892 286.194l-2.057 135.486-.828 29.324-3.115 214.781-13.322 13.565-5.487-2.406" style="fill:none;stroke:#ffdf00;stroke-width:1.99999;stroke-linecap:round;stroke-linejoin:round;stroke-miterlimit:4;stroke-dasharray:none;stroke-opacity:1;visibility:visible"/><path d="m475.956 678.705 3.148-230.08.513-22.816 1.683-128.986M481.339 296.61l12.73-9.773" style="fill:none;stroke:#ffdf00;stroke-width:.999997;stroke-linecap:round;stroke-linejoin:round;stroke-miterlimit:4;stroke-dasharray:none;stroke-opacity:1;visibility:visible"/><path d="m465.442 303.057-.168 361.59M465.274 664.648l4.639 2.457M465.627 302.93l5.246-3.572 2.922.964" style="fill:none;stroke:#ffdf00;stroke-width:1.99999;stroke-linecap:round;stroke-linejoin:round;stroke-miterlimit:4;stroke-dasharray:none;stroke-opacity:1;visibility:visible"/><path d="m481.299 296.823-7.589-1.886M473.093 305.06l-6.966-1.734M469.033 606.476c.282.85.028 1.696-.568 1.895-.593.196-1.3-.331-1.582-1.182-.281-.849-.03-1.696.567-1.889.594-.199 1.302.33 1.583 1.176M469.033 534.608c.282.85.028 1.696-.568 1.895-.593.196-1.3-.33-1.582-1.183-.281-.848-.03-1.695.567-1.888.594-.199 1.302.33 1.583 1.176M469.445 428.87c.282.85.028 1.696-.568 1.894-.593.196-1.3-.33-1.582-1.18-.281-.851-.027-1.698.568-1.891.593-.198 1.301.331 1.582 1.177M470.273 359.067c.282.85.028 1.696-.568 1.895-.593.196-1.3-.33-1.582-1.182-.281-.85-.03-1.695.567-1.89.594-.197 1.302.331 1.583 1.177M491.284 283.909c-.01.831-.56 1.924-1.221 2.428l-10.14 7.728c-.66.504-1.203.234-1.199-.596l.008-3.302c.003-.83.555-1.91 1.23-2.397l10.149-7.348c.676-.487 1.22-.205 1.209.625l-.036 2.862" style="fill:none;stroke:#ffdf00;stroke-width:.999997;stroke-linecap:round;stroke-linejoin:round;stroke-miterlimit:4;stroke-dasharray:none;stroke-opacity:1;visibility:visible"/><path d="M485.445 285.274c0 .17-.409.31-.913.31-.502.001-.912-.139-.912-.309 0-.171.41-.311.912-.311.504-.001.913.139.913.309v.001" style="fill:none;stroke:#ffdf00;stroke-width:.666665;stroke-linecap:round;stroke-linejoin:round;stroke-miterlimit:4;stroke-dasharray:none;stroke-opacity:1;visibility:visible"/><path d="m481.339 296.61-3.449-4.971M481.299 296.823l10.709-11.59M470.083 676.944l-.17-9.839M473.71 294.937l.085 5.385" style="fill:none;stroke:#ffdf00;stroke-width:1.99999;stroke-linecap:round;stroke-linejoin:round;stroke-miterlimit:4;stroke-dasharray:none;stroke-opacity:1;visibility:visible"/><path d="m473.71 294.937-.617 10.123M485.445 285.274l5.839-1.365M494.892 286.194l-3.608-2.285" style="fill:none;stroke:#ffdf00;stroke-width:.999997;stroke-linecap:round;stroke-linejoin:round;stroke-miterlimit:4;stroke-dasharray:none;stroke-opacity:1;visibility:visible"/><path d="m491.284 283.909-5.839 1.365M491.284 283.909l-5.839 1.365" style="fill:none;stroke:#ffdf00;stroke-width:.666665;stroke-linecap:round;stroke-linejoin:round;stroke-miterlimit:4;stroke-dasharray:none;stroke-opacity:1;visibility:visible"/><path d="m465.274 664.648-.867-8.508M469.913 667.105l17.683.536" style="fill:none;stroke:red;stroke-width:1.99999;stroke-linecap:round;stroke-linejoin:round;stroke-miterlimit:4;stroke-dasharray:none;stroke-opacity:1;visibility:visible"/><path d="m510.11 669.952 12.338 12.889M274.778 675.55l-.192 6.002M387.723 615.868l-9.353-11.364M387.723 615.868l-17.247-6.575" style="fill:none;stroke:red;stroke-width:.999997;stroke-linecap:round;stroke-linejoin:round;stroke-miterlimit:4;stroke-dasharray:none;stroke-opacity:1;visibility:visible"/><path d="m336.126 569.535 18.821-5.15" style="fill:none;stroke:#9500ff;stroke-width:1.99999;stroke-linecap:round;stroke-linejoin:round;stroke-miterlimit:4;stroke-dasharray:none;stroke-opacity:1;visibility:visible"/><path d="m336.126 569.535 6.699 16.229M304.022 250.08l14.741 5.88" style="fill:none;stroke:#9500ff;stroke-width:.999997;stroke-linecap:round;stroke-linejoin:round;stroke-miterlimit:4;stroke-dasharray:none;stroke-opacity:1;visibility:visible"/><path d="m469.913 667.105 6.043 11.6" style="fill:none;stroke:#ffdf00;stroke-width:.999997;stroke-linecap:round;stroke-linejoin:round;stroke-miterlimit:4;stroke-dasharray:none;stroke-opacity:1;visibility:visible"/></svg>