<svg xmlns="http://www.w3.org/2000/svg" baseProfile="full" height="1122.52" preserveAspectRatio="xMinYMin meet" style="width:765px;height:943px" width="793.701" xml:space="preserve"><path d="m345.68 835.831-76.604-36.7M271.256 1013.998l1.872 1.401 127.248-139.22.888-13.743-30.264-14.5M369.78 868.433l10.861 5.435M264.735 815.912l80.45 40.232M177.746 866.404l86.958-50.527M117.699 898.706l2.021 1.415 34.843-20.246M203.128 831.399l-89.385 50.825.13 1.25" style="fill:none;stroke:red;stroke-width:1.99999;stroke-linecap:round;stroke-linejoin:round;stroke-miterlimit:4;stroke-dasharray:none;stroke-opacity:1;visibility:visible" visibility="hidden"/><path d="m267.584 996.813 5.252 3.93L400.04 862.731M118.793 885.563l1.477 14.519M114.778 882.524l3.88 2.907M272.349 796.063a317.746 317.746 0 0 1-11.62 8.477s-7.009 4.195-11.149 6.581l-39.993 22.762" style="fill:none;stroke:red;stroke-width:.999997;stroke-linecap:round;stroke-linejoin:round;stroke-miterlimit:4;stroke-dasharray:none;stroke-opacity:1;visibility:visible" visibility="hidden"/><path d="m370.303 853.399 26.472 12.743-.833 13.14M264.657 802.59l81.218 39.07" style="fill:none;stroke:red;stroke-width:.999997;stroke-linecap:round;stroke-linejoin:round;stroke-miterlimit:4;stroke-dasharray:none;stroke-opacity:1;visibility:visible" visibility="hidden"/><path d="m348.506 909.24-1.923 2.055-79.215 84.593v3.164M390.74 864.141l-21.585 23.05" style="fill:none;stroke:red;stroke-width:1.99999;stroke-linecap:round;stroke-linejoin:round;stroke-miterlimit:4;stroke-dasharray:none;stroke-opacity:1;visibility:visible" visibility="hidden"/><path d="m154.656 872.68 137.085 95.81" style="fill:none;stroke:red;stroke-width:.999997;stroke-linecap:round;stroke-linejoin:round;stroke-miterlimit:4;stroke-dasharray:none;stroke-opacity:1;visibility:visible" visibility="hidden"/><path d="m171.154 863.461 133.276 90.872M155.204 878.303l132.694 93.294" style="fill:none;stroke:red;stroke-width:1.99999;stroke-linecap:round;stroke-linejoin:round;stroke-miterlimit:4;stroke-dasharray:none;stroke-opacity:1;visibility:visible" visibility="hidden"/><path d="M154.321 872.201v5.484M170.907 862.743l-16.555 9.427M264.524 813.938v2.7M264.524 802.615v1.945M354.707 911.378l-5.295-2.481" style="fill:none;stroke:red;stroke-width:.999997;stroke-linecap:round;stroke-linejoin:round;stroke-miterlimit:4;stroke-dasharray:none;stroke-opacity:1;visibility:visible" visibility="hidden"/><path d="m382.623 538.615-5.167 125.366-1.685 40.819-7.912 191.882M361.454 565.964l-12.041 342.931M361.948 551.885l-.216 6.151" style="fill:none;stroke:red;stroke-width:1.99999;stroke-linecap:round;stroke-linejoin:round;stroke-miterlimit:4;stroke-dasharray:none;stroke-opacity:1;visibility:visible" visibility="hidden"/><path d="m355.1 910.76 8.227-212.24.732-18.845 5.132-132.407" style="fill:none;stroke:red;stroke-width:.999997;stroke-linecap:round;stroke-linejoin:round;stroke-miterlimit:4;stroke-dasharray:none;stroke-opacity:1;visibility:visible" visibility="hidden"/><path d="m344.74 901.85 4.468 1.552M353.384 569.644 344.74 901.85M353.717 557.071l-.172 6.49" style="fill:none;stroke:red;stroke-width:1.99999;stroke-linecap:round;stroke-linejoin:round;stroke-miterlimit:4;stroke-dasharray:none;stroke-opacity:1;visibility:visible" visibility="hidden"/><path d="M298.802 443.12c-2.237 3.23-5.524 6.215-8.94 8.775M305.255 973.16c-.833-.484-.921-1.874-.193-3.098.72-1.232 1.98-1.828 2.813-1.342.826.492.91 1.88.187 3.11-.722 1.224-1.982 1.82-2.807 1.33" style="fill:none;stroke:red;stroke-width:.999997;stroke-linecap:round;stroke-linejoin:round;stroke-miterlimit:4;stroke-dasharray:none;stroke-opacity:1;visibility:visible" visibility="hidden"/><path d="M291.933 443.118h6.87M284.211 450.264c3.643-2.433 7.059-5.15 7.722-7.144" style="fill:none;stroke:red;stroke-width:1.99999;stroke-linecap:round;stroke-linejoin:round;stroke-miterlimit:4;stroke-dasharray:none;stroke-opacity:1;visibility:visible" visibility="hidden"/><path d="m229.058 822.675-5.26-3.412" style="fill:none;stroke:red;stroke-width:.999997;stroke-linecap:round;stroke-linejoin:round;stroke-miterlimit:4;stroke-dasharray:none;stroke-opacity:1;visibility:visible" visibility="hidden"/><path d="m303.653 589.465 3.607 166.013s-4.333 18.55-39.515 42.839M301.3 481.32l1.39 63.87M298.803 443.118l.23 10.705" style="fill:none;stroke:red;stroke-width:1.99999;stroke-linecap:round;stroke-linejoin:round;stroke-miterlimit:4;stroke-dasharray:none;stroke-opacity:1;visibility:visible" visibility="hidden"/><path d="M299.565 753.692s-1.498 20.202-71.899 52.453M295.833 593.714l4.155 159.896M292.852 479.055l1.648 63.463M267.503 482.954c3.49-1.82 8.271-4.464 13.215-7.644" style="fill:none;stroke:red;stroke-width:.999997;stroke-linecap:round;stroke-linejoin:round;stroke-miterlimit:4;stroke-dasharray:none;stroke-opacity:1;visibility:visible" visibility="hidden"/><path d="M263.355 485.748c.802-.382 2.115-1.025 3.788-1.886" style="fill:none;stroke:red;stroke-width:1.99999;stroke-linecap:round;stroke-linejoin:round;stroke-miterlimit:4;stroke-dasharray:none;stroke-opacity:1;visibility:visible" visibility="hidden"/><path d="M248.135 490.812a308.293 308.293 0 0 0 13.882-5.13s.31-.143.873-.415" style="fill:none;stroke:red;stroke-width:.999997;stroke-linecap:round;stroke-linejoin:round;stroke-miterlimit:4;stroke-dasharray:none;stroke-opacity:1;visibility:visible" visibility="hidden"/><path d="M244.198 492.566c1.095-.362 2.197-.731 3.305-1.111" style="fill:none;stroke:red;stroke-width:1.99999;stroke-linecap:round;stroke-linejoin:round;stroke-miterlimit:4;stroke-dasharray:none;stroke-opacity:1;visibility:visible" visibility="hidden"/><path d="M229.363 496.762a435.065 435.065 0 0 0 14.517-4.514" style="fill:none;stroke:red;stroke-width:.999997;stroke-linecap:round;stroke-linejoin:round;stroke-miterlimit:4;stroke-dasharray:none;stroke-opacity:1;visibility:visible" visibility="hidden"/><path d="M224.689 498.312a464.96 464.96 0 0 0 4.01-1.145" style="fill:none;stroke:red;stroke-width:1.99999;stroke-linecap:round;stroke-linejoin:round;stroke-miterlimit:4;stroke-dasharray:none;stroke-opacity:1;visibility:visible" visibility="hidden"/><path d="M210.05 502.432c2.883-.737 10.412-3.141 14.64-4.33" style="fill:none;stroke:red;stroke-width:.999997;stroke-linecap:round;stroke-linejoin:round;stroke-miterlimit:4;stroke-dasharray:none;stroke-opacity:1;visibility:visible" visibility="hidden"/><path d="m227.623 547.055 12.801 252.226M225.167 498.632l1.19 23.5M252.126 664.951l5.39 122.792M247.182 552.967l4.012 91.3M244.545 492.94l1.565 35.61M269.06 655.86l4.38 122.133M267.805 603.902l1.152 32.09M266.22 559.67l.432 12.061M263.592 486.342l1.705 47.585M285.214 646.743l3.841 118.284M284.375 600.956l.81 24.919M280.338 476.67l2.028 62.37" style="fill:none;stroke:red;stroke-width:1.99999;stroke-linecap:round;stroke-linejoin:round;stroke-miterlimit:4;stroke-dasharray:none;stroke-opacity:1;visibility:visible" visibility="hidden"/><path d="m258.641 660.667 5.755 123.682M253.712 555.373l4.032 86.732-2.939-.574M250.692 490.434l1.848 39.748" style="fill:none;stroke:red;stroke-width:.999997;stroke-linecap:round;stroke-linejoin:round;stroke-miterlimit:4;stroke-dasharray:none;stroke-opacity:1;visibility:visible" visibility="hidden"/><path d="m255.904 662.55 5.664 120.904M250.832 554.32l4.068 86.797M247.9 491.854l1.773 37.793M238.69 670.831l6.741 120.177M231.791 548.409l5.605 99.958M228.94 497.58l1.423 25.361" style="fill:none;stroke:red;stroke-width:1.99999;stroke-linecap:round;stroke-linejoin:round;stroke-miterlimit:4;stroke-dasharray:none;stroke-opacity:1;visibility:visible" visibility="hidden"/><path d="m212.21 541.688 16.459 280.28M208.842 483.703l.48 8.197.659 11.776.828 14.17" style="fill:none;stroke:red;stroke-width:.999997;stroke-linecap:round;stroke-linejoin:round;stroke-miterlimit:4;stroke-dasharray:none;stroke-opacity:1;visibility:visible" visibility="hidden"/><path d="m273.06 653.709 4.688 118.518M271.946 605.248l.992 25.083M270.177 560.467l.33 8.317M267.183 484.693l1.976 50.048" style="fill:none;stroke:red;stroke-width:1.99999;stroke-linecap:round;stroke-linejoin:round;stroke-miterlimit:4;stroke-dasharray:none;stroke-opacity:1;visibility:visible" visibility="hidden"/><path d="m276.274 651.84 4.51 121.382M275.3 606.045l.992 26.713M270.683 481.874l2.007 53.952M288.527 642.993l3.783 118.961M287.717 598.014l.823 25.841-3.94-1.73M283.837 476.115l2.028 63.727" style="fill:none;stroke:red;stroke-width:.999997;stroke-linecap:round;stroke-linejoin:round;stroke-miterlimit:4;stroke-dasharray:none;stroke-opacity:1;visibility:visible" visibility="hidden"/><path d="M241.57 793.178s1.232-.38 3.4-1.232M258.071 785.793a105.65 105.65 0 0 0 3.33-1.896M273.895 775.574a129.436 129.436 0 0 0 3.51-2.713" style="fill:none;stroke:red;stroke-width:1.99999;stroke-linecap:round;stroke-linejoin:round;stroke-miterlimit:4;stroke-dasharray:none;stroke-opacity:1;visibility:visible" visibility="hidden"/><path d="m235.016 548.952 5.37 100.481-3.057-1.196M232.21 496.462l1.46 27.312M248.325 792.068l-6.592-123.281M288.977 765.676c-.491.648-1.227 1.593-1.887 2.284-1.679 1.762-3.747 3.458-5.99 5.292l-3.014-.8M299.255 752.32s-1.593 3.866-6.632 9.784l-3.04-.858M261.567 783.454l3.18 1.066a139.128 139.128 0 0 0 7.163-4.495s.636-.425 1.457-1.019M257.513 788.533a191.072 191.072 0 0 1-9.167 4.461l-3.125-1.554" style="fill:none;stroke:red;stroke-width:.999997;stroke-linecap:round;stroke-linejoin:round;stroke-miterlimit:4;stroke-dasharray:none;stroke-opacity:1;visibility:visible" visibility="hidden"/><path d="M233.82 653.716s34.31-12.328 49.19-23.588c-.001 0 7.455-5.088 12.724-12.141" style="fill:none;stroke:red;stroke-width:.666665;stroke-linecap:round;stroke-linejoin:round;stroke-miterlimit:4;stroke-dasharray:none;stroke-opacity:1;visibility:visible" visibility="hidden"/><path d="M233.32 650.161s1.504-.501 4.03-1.406M251.498 643.13a275.333 275.333 0 0 0 3.295-1.379M269.105 633.455a183.721 183.721 0 0 0 3.084-1.648" style="fill:none;stroke:red;stroke-width:1.99999;stroke-linecap:round;stroke-linejoin:round;stroke-miterlimit:4;stroke-dasharray:none;stroke-opacity:1;visibility:visible" visibility="hidden"/><path d="M288.417 642.679c3.109-2.576 5.65-5.175 7.325-7.727" style="fill:none;stroke:red;stroke-width:.999997;stroke-linecap:round;stroke-linejoin:round;stroke-miterlimit:4;stroke-dasharray:none;stroke-opacity:1;visibility:visible" visibility="hidden"/><path d="M284.943 645.665a77.1 77.1 0 0 0 3.35-2.614" style="fill:none;stroke:red;stroke-width:1.99999;stroke-linecap:round;stroke-linejoin:round;stroke-miterlimit:4;stroke-dasharray:none;stroke-opacity:1;visibility:visible" visibility="hidden"/><path d="M272.893 653.113c4.077-2.343 7.994-4.802 11.472-7.312" style="fill:none;stroke:red;stroke-width:.999997;stroke-linecap:round;stroke-linejoin:round;stroke-miterlimit:4;stroke-dasharray:none;stroke-opacity:1;visibility:visible" visibility="hidden"/><path d="M268.949 655.648a204.173 204.173 0 0 0 4.317-2.41" style="fill:none;stroke:red;stroke-width:1.99999;stroke-linecap:round;stroke-linejoin:round;stroke-miterlimit:4;stroke-dasharray:none;stroke-opacity:1;visibility:visible" visibility="hidden"/><path d="M255.942 661.926a263.34 263.34 0 0 0 12.636-6.404" style="fill:none;stroke:red;stroke-width:.999997;stroke-linecap:round;stroke-linejoin:round;stroke-miterlimit:4;stroke-dasharray:none;stroke-opacity:1;visibility:visible" visibility="hidden"/><path d="M251.92 664.101a268.973 268.973 0 0 0 4.394-2.05" style="fill:none;stroke:red;stroke-width:1.99999;stroke-linecap:round;stroke-linejoin:round;stroke-miterlimit:4;stroke-dasharray:none;stroke-opacity:1;visibility:visible" visibility="hidden"/><path d="M238.08 669.817a358.69 358.69 0 0 0 13.47-5.841" style="fill:none;stroke:red;stroke-width:.999997;stroke-linecap:round;stroke-linejoin:round;stroke-miterlimit:4;stroke-dasharray:none;stroke-opacity:1;visibility:visible" visibility="hidden"/><path d="M234.211 671.654s1.482-.564 3.992-1.59" style="fill:none;stroke:red;stroke-width:1.99999;stroke-linecap:round;stroke-linejoin:round;stroke-miterlimit:4;stroke-dasharray:none;stroke-opacity:1;visibility:visible" visibility="hidden"/><path d="m227.667 806.144-4.552-2.823" style="fill:none;stroke:red;stroke-width:.999997;stroke-linecap:round;stroke-linejoin:round;stroke-miterlimit:4;stroke-dasharray:none;stroke-opacity:1;visibility:visible" visibility="hidden"/><path d="m178.147 496.423-.197-2.717M178.774 508.46l-.312-4.305M202.5 831.201l-21.688-297.858" style="fill:none;stroke:red;stroke-width:1.99999;stroke-linecap:round;stroke-linejoin:round;stroke-miterlimit:4;stroke-dasharray:none;stroke-opacity:1;visibility:visible" visibility="hidden"/><path d="m208.433 833.641-4.675-2.745" style="fill:none;stroke:red;stroke-width:.999997;stroke-linecap:round;stroke-linejoin:round;stroke-miterlimit:4;stroke-dasharray:none;stroke-opacity:1;visibility:visible" visibility="hidden"/><path d="m206.287 516.313-.721-12.63-.75-11.8-.338-5.929M205.513 538.364l18.533 284.695M197.065 491.198l6.796 2.615" style="fill:none;stroke:red;stroke-width:1.99999;stroke-linecap:round;stroke-linejoin:round;stroke-miterlimit:4;stroke-dasharray:none;stroke-opacity:1;visibility:visible" visibility="hidden"/><path d="m197.09 496.407-7.839-2.701 7.812-2.508M203.96 494.662a1125.145 1125.145 0 0 1-6.897 1.857M197.41 514.667l-.817-18.123M218.355 825.951l-20.381-289.485" style="fill:none;stroke:red;stroke-width:.999997;stroke-linecap:round;stroke-linejoin:round;stroke-miterlimit:4;stroke-dasharray:none;stroke-opacity:1;visibility:visible" visibility="hidden"/><path d="M223.626 823.678a389.103 389.103 0 0 1-4.716 2.752" style="fill:none;stroke:red;stroke-width:1.99999;stroke-linecap:round;stroke-linejoin:round;stroke-miterlimit:4;stroke-dasharray:none;stroke-opacity:1;visibility:visible" visibility="hidden"/><path d="M353.706 901.631c.336 1.014.033 2.016-.672 2.252-.708.232-1.55-.392-1.886-1.402-.333-1.008-.03-2.016.675-2.246.708-.237 1.55.395 1.883 1.396M207.545 827.38c.334 1.012.032 2.014-.675 2.25-.705.233-1.548-.39-1.883-1.4-.334-1.01-.032-2.017.675-2.247.708-.237 1.548.394 1.883 1.397M180.713 502.154c.399.254.844.346 1.26.222.941-.281 1.387-1.558 1-2.856-.385-1.298-1.46-2.12-2.401-1.84-.572.169-.963.709-1.094 1.394" style="fill:none;stroke:red;stroke-width:.999997;stroke-linecap:round;stroke-linejoin:round;stroke-miterlimit:4;stroke-dasharray:none;stroke-opacity:1;visibility:visible" visibility="hidden"/><path d="M240.503 649.69a394.676 394.676 0 0 0 10.787-4.416M258.19 642.236a233.345 233.345 0 0 0 10.221-4.94M295.749 615.979c-2.323 3.111-5.034 5.877-7.449 8.07M284.565 627.215c-1.375 1.08-2.26 1.682-2.26 1.682-1.88 1.424-4.075 2.863-6.463 4.29l-3.687-1.597" style="fill:none;stroke:red;stroke-width:.666665;stroke-linecap:round;stroke-linejoin:round;stroke-miterlimit:4;stroke-dasharray:none;stroke-opacity:1;visibility:visible" visibility="hidden"/><path d="m225.106 478.458-40.04 12.487 1.237 20.285M364.586 562.325c.437.178.89.188 1.278-.01.876-.446 1.083-1.783.47-2.99-.615-1.208-1.822-1.822-2.696-1.377-.53.27-.818.873-.823 1.57M272.837 1000.743l.292 14.656" style="fill:none;stroke:red;stroke-width:.999997;stroke-linecap:round;stroke-linejoin:round;stroke-miterlimit:4;stroke-dasharray:none;stroke-opacity:1;visibility:visible" visibility="hidden"/><path d="M264.31 804.404v8.703" style="fill:none;stroke:red;stroke-width:.666665;stroke-linecap:round;stroke-linejoin:round;stroke-miterlimit:4;stroke-dasharray:none;stroke-opacity:1;visibility:visible" visibility="hidden"/><path d="m263.889 804.478-2.544 1.172c-1.202.637-2.207 1.967-2.607 3.64-.641 2.693.252 4.73 2.32 5.22a3.08 3.08 0 0 0 1.697-.087l1.218-.745M264.595 804.449l7.685 3.524c1.23.582 2.295 1.861 2.77 3.517.76 2.656-.28 5.016-2.32 5.597a3.177 3.177 0 0 1-1.7-.005l-6.584-3.388M382.315 871.41a7.866 7.866 0 0 1-.099-.47c-.578-3.26.982-6.26 3.49-6.701a3.752 3.752 0 0 1 2.028.218l1.136.636" style="fill:none;stroke:red;stroke-width:.999997;stroke-linecap:round;stroke-linejoin:round;stroke-miterlimit:2;stroke-dasharray:none;stroke-opacity:1;visibility:visible" visibility="hidden"/><path d="M261.909 812.475c.145-.434.013-.872-.299-.973-.305-.102-.673.17-.816.61-.143.436-.008.873.297.974.31.101.679-.171.819-.611h-.001M270.36 812.178c.162.432.05.875-.254.99-.301.116-.679-.141-.843-.572-.163-.431-.052-.871.25-.989.304-.112.685.143.846.571h.001M385.995 867.32c.09.4-.063.775-.341.84-.279.061-.58-.21-.672-.606-.092-.397.06-.772.338-.834.282-.069.584.205.675.601v-.001M272.7 810.587c.162.433.05.873-.252.987-.301.117-.681-.14-.845-.57-.162-.431-.05-.874.25-.988.305-.117.685.142.846.571h.001M261.687 808.66c.143-.436.011-.87-.3-.972-.306-.103-.672.173-.814.609-.146.437-.014.873.297.976.307.097.675-.175.817-.613M272.737 814.59c.137.437-.004.875-.314.97-.31.094-.672-.187-.808-.627-.134-.439.006-.871.315-.969.31-.092.673.184.807.626" style="fill:none;stroke:red;stroke-width:.666665;stroke-linecap:round;stroke-linejoin:round;stroke-miterlimit:2;stroke-dasharray:none;stroke-opacity:1;visibility:visible" visibility="hidden"/><path d="M113.717 884.113c.164-.14.41-.16.693-.028l.414.197c.568.268 1.084 1.055 1.145 1.745l1.23 12.086a1.05 1.05 0 0 1-.107.612" style="fill:none;stroke:red;stroke-width:.999997;stroke-linecap:round;stroke-linejoin:round;stroke-miterlimit:4;stroke-dasharray:none;stroke-opacity:1;visibility:visible" visibility="hidden"/><path d="M115.176 898.522a2.176 2.176 0 0 1-.592-1.232l-1.296-12.41c-.034-.35.054-.61.218-.75" style="fill:none;stroke:red;stroke-width:1.99999;stroke-linecap:round;stroke-linejoin:round;stroke-miterlimit:4;stroke-dasharray:none;stroke-opacity:1;visibility:visible" visibility="hidden"/><path d="M268.133 999.516c.17-.116.406-.114.664.036l.377.228c.516.312.935 1.111.928 1.775l.033 11.667a1.052 1.052 0 0 1-.158.57M118.426 898.553c-.136.245-.586.473-.952.45M114.693 883.871a.508.508 0 0 1 .303-.117M115.866 883.713l.415.197c.567.27 1.083 1.055 1.144 1.748l1.23 12.082a1.084 1.084 0 0 1-.105.615M117.154 898.603c-.156.287-.742.547-1.12.417l-.266-.097a1.555 1.555 0 0 1-.592-.401" style="fill:none;stroke:red;stroke-width:.999997;stroke-linecap:round;stroke-linejoin:round;stroke-miterlimit:4;stroke-dasharray:none;stroke-opacity:1;visibility:visible" visibility="hidden"/><path d="M268.165 1013.418c-.271-.348-.715-.808-.715-1.232l-.063-11.982c.003-.336.371-.576.543-.693" style="fill:none;stroke:red;stroke-width:1.99999;stroke-linecap:round;stroke-linejoin:round;stroke-miterlimit:4;stroke-dasharray:none;stroke-opacity:1;visibility:visible" visibility="hidden"/><path d="M271.11 1013.45c-.15.223-.605.403-.95.34M269.154 999.019a.475.475 0 0 1 .301-.083M270.075 999.008l.378.227c.517.31.934 1.112.929 1.776l.032 11.664a1.019 1.019 0 0 1-.159.573M270.047 1013.68c-.177.26-.76.454-1.109.295l-.245-.12a1.527 1.527 0 0 1-.528-.437M350.24 832.66c.28.854.026 1.699-.57 1.898-.592.192-1.3-.332-1.582-1.184-.28-.85-.028-1.694.568-1.888.594-.2 1.302.33 1.584 1.175v-.001M352.211 764.168c.28.852.029 1.697-.568 1.896-.593.194-1.301-.331-1.583-1.184-.28-.85-.029-1.694.567-1.887.593-.2 1.303.33 1.584 1.175M355.167 671.038c.281.852.028 1.698-.567 1.896-.594.196-1.302-.33-1.584-1.182-.28-.85-.028-1.695.568-1.888.594-.2 1.302.33 1.583 1.174M357.63 595.648c.28.852.028 1.697-.568 1.896-.594.195-1.302-.33-1.583-1.183-.281-.849-.028-1.694.568-1.888.593-.2 1.301.331 1.583 1.175M197.446 560.135c.281.852.028 1.697-.568 1.895-.593.195-1.301-.331-1.582-1.182-.282-.85-.028-1.695.568-1.888.593-.2 1.3.33 1.582 1.175M202.927 633.245c.28.852.028 1.698-.567 1.896-.594.195-1.3-.33-1.583-1.181-.281-.851-.03-1.696.566-1.89.594-.2 1.303.33 1.584 1.175M208.33 711.19c.283.85.028 1.695-.567 1.894-.593.196-1.3-.331-1.582-1.18-.283-.85-.031-1.698.566-1.891.594-.197 1.303.33 1.583 1.177M213.27 776.553c.28.852.028 1.697-.568 1.896-.592.195-1.301-.33-1.582-1.183-.28-.85-.03-1.694.566-1.888.594-.2 1.304.33 1.584 1.175M221.425 810.089c0 .961-.676 1.744-1.51 1.744-.837 0-1.514-.783-1.514-1.744.001-.963.679-1.744 1.513-1.744.834 0 1.51.781 1.51 1.744h.001M216.887 742.474c0 .963-.676 1.744-1.51 1.744-.835 0-1.512-.781-1.512-1.744 0-.962.677-1.744 1.512-1.744.833 0 1.51.782 1.51 1.744M211.897 672.365c0 .963-.678 1.745-1.512 1.745-.835 0-1.51-.782-1.51-1.745 0-.963.675-1.744 1.509-1.744.835 0 1.513.781 1.513 1.744M207.36 596.81c0 .961-.679 1.742-1.514 1.742-.833.001-1.509-.78-1.509-1.742 0-.963.676-1.745 1.51-1.745.835 0 1.513.782 1.513 1.745M202.709 512.37c0 .965-.679 1.745-1.51 1.745-.837-.001-1.514-.781-1.514-1.745.001-.962.678-1.743 1.513-1.743.833 0 1.51.781 1.51 1.743h.001" style="fill:none;stroke:red;stroke-width:.999997;stroke-linecap:round;stroke-linejoin:round;stroke-miterlimit:4;stroke-dasharray:none;stroke-opacity:1;visibility:visible" visibility="hidden"/><path d="m191.744 535.668 21.616 288.038 4.97 2.92M189.253 493.708l1.32 18.582" style="fill:none;stroke:red;stroke-width:1.99999;stroke-linecap:round;stroke-linejoin:round;stroke-miterlimit:4;stroke-dasharray:none;stroke-opacity:1;visibility:visible" visibility="hidden"/><path d="m186.626 533.868 22.964 300.017-90.79 51.674" style="fill:none;stroke:red;stroke-width:.999997;stroke-linecap:round;stroke-linejoin:round;stroke-miterlimit:4;stroke-dasharray:none;stroke-opacity:1;visibility:visible" visibility="hidden"/><path d="m388.87 865.093-19.09 3.34M170.907 862.743l6.839 3.661M154.352 872.17l.21 7.705" style="fill:none;stroke:red;stroke-width:1.99999;stroke-linecap:round;stroke-linejoin:round;stroke-miterlimit:4;stroke-dasharray:none;stroke-opacity:1;visibility:visible" visibility="hidden"/><path d="m267.745 798.317 4.604-2.254M203.128 831.399l6.459 2.484M385.995 867.32l9.947 11.962M305.255 973.16l-13.514-4.67" style="fill:none;stroke:red;stroke-width:.999997;stroke-linecap:round;stroke-linejoin:round;stroke-miterlimit:4;stroke-dasharray:none;stroke-opacity:1;visibility:visible" visibility="hidden"/><path d="m305.255 973.16-.825-18.827M305.255 973.16l-17.357-1.563M362.815 559.518l-1.361 6.446M362.815 559.518l-.867-7.633M361.454 565.964l.278-7.928" style="fill:none;stroke:red;stroke-width:1.99999;stroke-linecap:round;stroke-linejoin:round;stroke-miterlimit:4;stroke-dasharray:none;stroke-opacity:1;visibility:visible" visibility="hidden"/><path d="m361.732 558.036 7.459-10.768" style="fill:none;stroke:red;stroke-width:.999997;stroke-linecap:round;stroke-linejoin:round;stroke-miterlimit:4;stroke-dasharray:none;stroke-opacity:1;visibility:visible" visibility="hidden"/><path d="m353.545 563.56-.161 6.084M361.732 558.036l-8.015-.965M353.384 569.644l.161-6.084" style="fill:none;stroke:red;stroke-width:1.99999;stroke-linecap:round;stroke-linejoin:round;stroke-miterlimit:4;stroke-dasharray:none;stroke-opacity:1;visibility:visible" visibility="hidden"/><path d="m291.741 968.49 13.514 4.67M218.33 826.626l5.468-7.363" style="fill:none;stroke:red;stroke-width:.999997;stroke-linecap:round;stroke-linejoin:round;stroke-miterlimit:4;stroke-dasharray:none;stroke-opacity:1;visibility:visible" visibility="hidden"/><path d="m272.349 796.063-4.604 2.254" style="fill:none;stroke:red;stroke-width:1.99999;stroke-linecap:round;stroke-linejoin:round;stroke-miterlimit:4;stroke-dasharray:none;stroke-opacity:1;visibility:visible" visibility="hidden"/><path d="m203.96 494.662 6.09 7.77" style="fill:none;stroke:red;stroke-width:.999997;stroke-linecap:round;stroke-linejoin:round;stroke-miterlimit:4;stroke-dasharray:none;stroke-opacity:1;visibility:visible" visibility="hidden"/><path d="m258.641 660.667-7.447-16.4M276.274 651.84l-7.317-15.847M270.506 568.784l-4.286-9.114M270.177 560.467l-3.525 11.264M276.292 632.758l8.922 13.985M288.527 642.993l-3.341-17.118" style="fill:none;stroke:red;stroke-width:1.99999;stroke-linecap:round;stroke-linejoin:round;stroke-miterlimit:4;stroke-dasharray:none;stroke-opacity:1;visibility:visible" visibility="hidden"/><path d="m251.194 644.267 7.447 16.4M264.524 802.615l-.128-18.266M202.709 512.37l8.1 5.476" style="fill:none;stroke:red;stroke-width:.999997;stroke-linecap:round;stroke-linejoin:round;stroke-miterlimit:4;stroke-dasharray:none;stroke-opacity:1;visibility:visible" visibility="hidden"/><path d="m266.652 571.731 3.525-11.264M266.22 559.67l4.286 9.114" style="fill:none;stroke:red;stroke-width:1.99999;stroke-linecap:round;stroke-linejoin:round;stroke-miterlimit:4;stroke-dasharray:none;stroke-opacity:1;visibility:visible" visibility="hidden"/><path d="m268.957 635.993 7.317 15.847M288.527 642.993l-12.235-10.235" style="fill:none;stroke:red;stroke-width:.999997;stroke-linecap:round;stroke-linejoin:round;stroke-miterlimit:4;stroke-dasharray:none;stroke-opacity:1;visibility:visible" visibility="hidden"/><path d="m257.513 788.533.558-2.74M273.367 779.006l.528-3.432" style="fill:none;stroke:red;stroke-width:1.99999;stroke-linecap:round;stroke-linejoin:round;stroke-miterlimit:4;stroke-dasharray:none;stroke-opacity:1;visibility:visible" visibility="hidden"/><path d="m264.524 802.615-16.199-10.547M273.895 775.574l-.528 3.432" style="fill:none;stroke:red;stroke-width:.999997;stroke-linecap:round;stroke-linejoin:round;stroke-miterlimit:4;stroke-dasharray:none;stroke-opacity:1;visibility:visible" visibility="hidden"/><path d="m237.35 648.755-3.53 4.961" style="fill:none;stroke:red;stroke-width:.666665;stroke-linecap:round;stroke-linejoin:round;stroke-miterlimit:4;stroke-dasharray:none;stroke-opacity:1;visibility:visible" visibility="hidden"/><path d="m251.29 645.274-17.97 4.887M251.29 645.274l.208-2.144M268.411 637.296l.694-3.841M251.55 663.976l-17.339 7.678M178.462 504.155l-.315-7.732M178.774 508.46l-.824-14.754M177.95 493.706l.824 14.754M178.147 496.423l.315 7.732M202.709 512.37l3.578 3.943" style="fill:none;stroke:red;stroke-width:1.99999;stroke-linecap:round;stroke-linejoin:round;stroke-miterlimit:4;stroke-dasharray:none;stroke-opacity:1;visibility:visible" visibility="hidden"/><path d="m202.709 512.37-5.299 2.297" style="fill:none;stroke:red;stroke-width:.999997;stroke-linecap:round;stroke-linejoin:round;stroke-miterlimit:4;stroke-dasharray:none;stroke-opacity:1;visibility:visible" visibility="hidden"/><path d="m237.35 648.755 3.153.935M251.498 643.13l-.208 2.144M254.793 641.751l3.397.485M269.105 633.455l-.694 3.841M284.565 627.215l3.735-3.166M288.3 624.049l-3.735 3.166" style="fill:none;stroke:red;stroke-width:.666665;stroke-linecap:round;stroke-linejoin:round;stroke-miterlimit:4;stroke-dasharray:none;stroke-opacity:1;visibility:visible" visibility="hidden"/><path d="m229.363 496.762-4.257-18.304M178.462 504.155l7.841 7.075M361.454 565.964l1.361-6.446M267.368 999.052l5.469 1.691" style="fill:none;stroke:red;stroke-width:.999997;stroke-linecap:round;stroke-linejoin:round;stroke-miterlimit:4;stroke-dasharray:none;stroke-opacity:1;visibility:visible" visibility="hidden"/><path d="m385.995 867.32-3.68 4.09M369.78 868.433l19.09-3.34" style="fill:none;stroke:red;stroke-width:.999997;stroke-linecap:round;stroke-linejoin:round;stroke-miterlimit:2;stroke-dasharray:none;stroke-opacity:1;visibility:visible" visibility="hidden"/><path d="m261.687 808.66.222 3.815M270.36 812.178l-8.451.297M272.737 814.59l-2.377-2.412M261.909 812.475l8.451-.297M382.315 871.41l3.68-4.09M395.942 879.282l-9.947-11.962M272.737 814.59l-.037-4.003M261.909 812.475l10.791-1.888M261.909 812.475l-.222-3.815M270.36 812.178l2.377 2.412" style="fill:none;stroke:red;stroke-width:.666665;stroke-linecap:round;stroke-linejoin:round;stroke-miterlimit:2;stroke-dasharray:none;stroke-opacity:1;visibility:visible" visibility="hidden"/><path d="m224.046 823.06-2.621-12.971M206.287 516.313l-3.578-3.943" style="fill:none;stroke:red;stroke-width:.999997;stroke-linecap:round;stroke-linejoin:round;stroke-miterlimit:4;stroke-dasharray:none;stroke-opacity:1;visibility:visible" visibility="hidden"/><path d="m178.147 496.423 11.106-2.715M202.709 512.37l-12.136-.08" style="fill:none;stroke:red;stroke-width:1.99999;stroke-linecap:round;stroke-linejoin:round;stroke-miterlimit:4;stroke-dasharray:none;stroke-opacity:1;visibility:visible" visibility="hidden"/><path d="m275.927 577.133.008 28.784" style="fill:none;stroke:#00ff4a;stroke-width:.999997;stroke-linecap:round;stroke-linejoin:round;stroke-miterlimit:4;stroke-dasharray:none;stroke-opacity:1;visibility:visible"/><path d="m376.342 509.244 32.844-19.04M266.04 573.193l105.33-61.065" style="fill:none;stroke:#00ff4a;stroke-width:1.99999;stroke-linecap:round;stroke-linejoin:round;stroke-miterlimit:4;stroke-dasharray:none;stroke-opacity:1;visibility:visible"/><path d="m265.766 573.47 10.325 3.185 147.435-88.695" style="fill:none;stroke:#00ff4a;stroke-width:.999997;stroke-linecap:round;stroke-linejoin:round;stroke-miterlimit:4;stroke-dasharray:none;stroke-opacity:1;visibility:visible"/><path d="m265.821 577.094-.055-3.625M276.424 605.722l-1.057.672-5.767-2.019M379.697 476.247l43.83 11.712-.457 24.693-146.646 93.07M243.443 447.76l.544-.161 4.536-1.338 9.01-2.66 113.316 30.282M194.87 462.097l49.119-14.497M50.126 506.917l-.196-2.04 138.472-40.872M57.998 530.463l-5.108-1.596M116.42 512.359 58.327 530.48M185.066 490.945l-31.336 9.776" style="fill:none;stroke:#00ff4a;stroke-width:1.99999;stroke-linecap:round;stroke-linejoin:round;stroke-miterlimit:4;stroke-dasharray:none;stroke-opacity:1;visibility:visible"/><path d="m257.698 468.291-32.592 10.168" style="fill:none;stroke:#00ff4a;stroke-width:.999997;stroke-linecap:round;stroke-linejoin:round;stroke-miterlimit:4;stroke-dasharray:none;stroke-opacity:1;visibility:visible"/><path d="m371.623 501.898-113.824-33.477M381.94 504.932l-5.268-1.55" style="fill:none;stroke:#00ff4a;stroke-width:1.99999;stroke-linecap:round;stroke-linejoin:round;stroke-miterlimit:4;stroke-dasharray:none;stroke-opacity:1;visibility:visible"/><path d="M416.983 492.356v23.088M409.134 489.569l7.393 2.34M379.4 481.41l30.612 8.381M239.699 453.16l17.64-5.17 113.454 31.063M56.153 506.973l183.545-53.812M257.821 451.237l.041-2.8M257.567 468.23l.037-2.592M250.23 445.94l9.047 2.603M50.923 505.62l4.996 1.615 2.241 23.582M289.77 558.165l-183.808-57.108v6.439" style="fill:none;stroke:#00ff4a;stroke-width:.999997;stroke-linecap:round;stroke-linejoin:round;stroke-miterlimit:4;stroke-dasharray:none;stroke-opacity:1;visibility:visible"/><path d="m106.394 508.092 176.669 54.892M128.92 493.872l179.314 54.43" style="fill:none;stroke:#00ff4a;stroke-width:1.99999;stroke-linecap:round;stroke-linejoin:round;stroke-miterlimit:4;stroke-dasharray:none;stroke-opacity:1;visibility:visible"/><path d="m106.763 500.736 21.528-7.195M374.944 513.979a1.017 1.017 0 0 1 .224.623c0 .705-.792 1.277-1.768 1.277-.978 0-1.769-.572-1.769-1.277 0-.312.153-.598.41-.82M323.24 560.372c1.225.248 1.945 1.828 1.605 3.536-.34 1.705-1.616 2.89-2.846 2.643-1.226-.242-1.949-1.828-1.608-3.534.34-1.705 1.616-2.89 2.849-2.645" style="fill:none;stroke:#00ff4a;stroke-width:.999997;stroke-linecap:round;stroke-linejoin:round;stroke-miterlimit:4;stroke-dasharray:none;stroke-opacity:1;visibility:visible"/><path d="M192.977 465.451c0 .507-.593.917-1.328.917-.733 0-1.329-.41-1.329-.917 0-.252.146-.481.389-.648" style="fill:none;stroke:#00ff4a;stroke-width:.666665;stroke-linecap:round;stroke-linejoin:round;stroke-miterlimit:4;stroke-dasharray:none;stroke-opacity:1;visibility:visible"/><path d="M192.72 464.907a.747.747 0 0 1 .257.545M373.602 515.174l.757-19.597M176.693 501.553l5.88-1.777" style="fill:none;stroke:#00ff4a;stroke-width:.666665;stroke-linecap:round;stroke-linejoin:round;stroke-miterlimit:4;stroke-dasharray:none;stroke-opacity:1;visibility:visible"/><path d="M173.102 500.335s.826 2.181-2.332 1.204c-.001 0-.691-.217-1.094-.601M169.08 506.09c.973-.29 1.438-1.615 1.036-2.96-.4-1.347-1.516-2.2-2.492-1.91-.972.29-1.438 1.618-1.04 2.962.405 1.348 1.523 2.2 2.496 1.908M175.048 504.176c.762-.45 1.09-1.634.734-2.832-.401-1.346-1.516-2.2-2.492-1.908l-.297.108M169.522 505.935l5.384-1.673M167.75 501.124l5.295-1.644M248.546 448.944c0 .576-.665 1.042-1.486 1.042-.823 0-1.49-.466-1.49-1.042 0-.576.667-1.041 1.49-1.041.82 0 1.485.465 1.485 1.041h.001" style="fill:none;stroke:#00ff4a;stroke-width:.999997;stroke-linecap:round;stroke-linejoin:round;stroke-miterlimit:4;stroke-dasharray:none;stroke-opacity:1;visibility:visible"/><path d="M389.066 500.302c-.086-.22-.431-.712-.507-.943-1.521-4.696.172-9.453 3.784-10.615a5.59 5.59 0 0 1 3.041-.093l9.916 2.869" style="fill:none;stroke:#00ff4a;stroke-width:.999997;stroke-linecap:round;stroke-linejoin:round;stroke-miterlimit:2;stroke-dasharray:none;stroke-opacity:1;visibility:visible"/><path d="M257.693 452.46v11.515" style="fill:none;stroke:#00ff4a;stroke-width:.666665;stroke-linecap:round;stroke-linejoin:round;stroke-miterlimit:4;stroke-dasharray:none;stroke-opacity:1;visibility:visible"/><path d="m257.08 452.058-3.017.817c-1.586.841-2.914 2.599-3.448 4.812-.845 3.561.686 6.959 3.42 7.608a4.085 4.085 0 0 0 2.246-.115l.999-.41M258.138 451.988l10.867 3.25c1.629.772 3.037 2.46 3.665 4.654 1.007 3.514-.368 6.984-3.065 7.752a4.137 4.137 0 0 1-2.251-.008l-9.413-3.066" style="fill:none;stroke:#00ff4a;stroke-width:.999997;stroke-linecap:round;stroke-linejoin:round;stroke-miterlimit:2;stroke-dasharray:none;stroke-opacity:1;visibility:visible"/><path d="M255.52 462.251c.19-.576.012-1.153-.395-1.288-.406-.133-.889.227-1.082.81-.188.576-.01 1.152.394 1.286.41.131.893-.232 1.082-.809l.001.001M265.406 460.802c.217.568.068 1.154-.333 1.306-.399.155-.903-.186-1.118-.756-.215-.566-.068-1.152.331-1.305.403-.152.907.185 1.12.755M393.039 498.672c.219.57.073 1.152-.33 1.306-.398.156-.898-.183-1.116-.755-.215-.568-.067-1.153.326-1.304.41-.156.91.183 1.12.753M393.794 493.188c.218.57.073 1.152-.331 1.306-.396.156-.896-.184-1.115-.755-.216-.569-.068-1.152.326-1.304.409-.156.909.183 1.12.753M268.857 458.694c.216.57.068 1.154-.334 1.306-.398.158-.898-.185-1.116-.754-.217-.568-.069-1.154.33-1.304.402-.152.906.184 1.12.752M255.225 457.208c.188-.58.013-1.157-.399-1.292-.405-.133-.885.231-1.077.811-.191.575-.014 1.155.393 1.288.408.132.892-.228 1.083-.807M268.907 463.988c.179.579-.006 1.152-.416 1.278-.41.129-.889-.24-1.068-.826-.18-.578.008-1.15.415-1.278.41-.127.89.244 1.07.826h-.001" style="fill:none;stroke:#00ff4a;stroke-width:.666665;stroke-linecap:round;stroke-linejoin:round;stroke-miterlimit:2;stroke-dasharray:none;stroke-opacity:1;visibility:visible"/><path d="M50.11 507.876c.234-.19.574-.21.963-.021l.566.281c.777.388 1.469 1.492 1.536 2.448l1.365 16.761a1.467 1.467 0 0 1-.163.843" style="fill:none;stroke:#00ff4a;stroke-width:.999997;stroke-linecap:round;stroke-linejoin:round;stroke-miterlimit:4;stroke-dasharray:none;stroke-opacity:1;visibility:visible"/><path d="M51.73 527.855c-.43-.467-.74-1.11-.788-1.722l-1.449-17.213c-.033-.484.094-.838.324-1.03" style="fill:none;stroke:#00ff4a;stroke-width:1.99999;stroke-linecap:round;stroke-linejoin:round;stroke-miterlimit:4;stroke-dasharray:none;stroke-opacity:1;visibility:visible"/><path d="M51.467 507.566a.69.69 0 0 1 .42-.154M51.89 507.412a1.18 1.18 0 0 1 .537.134M52.427 507.546l.568.282c.777.387 1.468 1.49 1.534 2.448l1.367 16.759c.023.344-.04.632-.164.844M54.467 528.019c-.227.393-1.043.737-1.563.546l-.365-.142a2.195 2.195 0 0 1-.81-.568" style="fill:none;stroke:#00ff4a;stroke-width:.999997;stroke-linecap:round;stroke-linejoin:round;stroke-miterlimit:4;stroke-dasharray:none;stroke-opacity:1;visibility:visible"/><path d="M55.824 527.71c-.195.339-.825.64-1.328.596" style="fill:none;stroke:#00ff4a;stroke-width:.999997;stroke-linecap:round;stroke-linejoin:round;stroke-miterlimit:4;stroke-dasharray:none;stroke-opacity:1;visibility:visible"/><path d="M266.573 602.624c-.571-.508-.96-1.268-.96-1.992v-22.565c0-.511.196-.912.512-1.147" style="fill:none;stroke:#00ff4a;stroke-width:1.99999;stroke-linecap:round;stroke-linejoin:round;stroke-miterlimit:4;stroke-dasharray:none;stroke-opacity:1;visibility:visible"/><path d="M266.48 576.861c.324-.241.777-.311 1.28-.141l1.896.628c.985.328 1.794 1.448 1.794 2.487V602.4c-.001 1.043-.81 1.623-1.795 1.295l-1.894-.635a2.384 2.384 0 0 1-.834-.493M271.037 603.525l1.768-1.473M266.438 576.768l1.945-1.357" style="fill:none;stroke:#00ff4a;stroke-width:.999997;stroke-linecap:round;stroke-linejoin:round;stroke-miterlimit:4;stroke-dasharray:none;stroke-opacity:1;visibility:visible"/><path d="M268.233 575.58c.305-.156.696-.183 1.117-.041l1.896.631c.985.329 1.792 1.449 1.792 2.489v22.564c0 .517-.2.925-.525 1.16M265.821 577.094l10.106.039" style="fill:none;stroke:#00ff4a;stroke-width:.999997;stroke-linecap:round;stroke-linejoin:round;stroke-miterlimit:4;stroke-dasharray:none;stroke-opacity:1;visibility:visible"/><path d="m371.37 512.128 4.972-2.884M376.342 509.244l-4.972 2.884M370.85 473.883l8.847 2.364M379.697 476.247l-8.848-2.364M188.402 464.005l6.468-1.908M194.87 462.097l-6.468 1.908M106.763 500.736l9.657 11.623M176.693 501.553l8.373-10.608M169.08 506.09l-15.35-5.369M376.672 503.383l-5.049-1.485M371.623 501.898l5.049 1.485" style="fill:none;stroke:#00ff4a;stroke-width:1.99999;stroke-linecap:round;stroke-linejoin:round;stroke-miterlimit:4;stroke-dasharray:none;stroke-opacity:1;visibility:visible"/><path d="m370.793 479.053 8.607 2.357M379.4 481.41l-8.607-2.357M257.693 463.975l.17-15.538M258.138 451.988l1.139-3.445M116.42 512.359l-9.657-11.623" style="fill:none;stroke:#00ff4a;stroke-width:.999997;stroke-linecap:round;stroke-linejoin:round;stroke-miterlimit:4;stroke-dasharray:none;stroke-opacity:1;visibility:visible"/><path d="m174.906 504.262 1.787-2.709M172.993 499.544l9.58.232" style="fill:none;stroke:#00ff4a;stroke-width:.666665;stroke-linecap:round;stroke-linejoin:round;stroke-miterlimit:4;stroke-dasharray:none;stroke-opacity:1;visibility:visible"/><path d="m169.08 506.09-1.33-4.966M257.821 451.237l-9.275-2.293" style="fill:none;stroke:#00ff4a;stroke-width:.999997;stroke-linecap:round;stroke-linejoin:round;stroke-miterlimit:4;stroke-dasharray:none;stroke-opacity:1;visibility:visible"/><path d="m393.039 498.672-3.973 1.63M409.134 489.569l-3.834 1.951" style="fill:none;stroke:#00ff4a;stroke-width:.999997;stroke-linecap:round;stroke-linejoin:round;stroke-miterlimit:2;stroke-dasharray:none;stroke-opacity:1;visibility:visible"/><path d="m255.225 457.208.295 5.043M268.857 458.694l-3.451 2.108M268.857 458.694l-3.451 2.108M389.066 500.302l3.973-1.63M393.794 493.188l-.755 5.484M393.039 498.672l.755-5.484M393.039 498.672l.755-5.484M265.406 460.802l3.451-2.108M265.406 460.802l3.451-2.108M255.52 462.251l-.295-5.043M265.406 460.802l3.501 3.186" style="fill:none;stroke:#00ff4a;stroke-width:.666665;stroke-linecap:round;stroke-linejoin:round;stroke-miterlimit:2;stroke-dasharray:none;stroke-opacity:1;visibility:visible"/><path d="m382.315 871.41 17.725-8.678" style="fill:none;stroke:red;stroke-width:.999997;stroke-linecap:round;stroke-linejoin:round;stroke-miterlimit:4;stroke-dasharray:none;stroke-opacity:1;visibility:visible" visibility="hidden"/><path d="m382.315 871.41 8.425-7.269" style="fill:none;stroke:red;stroke-width:1.99999;stroke-linecap:round;stroke-linejoin:round;stroke-miterlimit:4;stroke-dasharray:none;stroke-opacity:1;visibility:visible" visibility="hidden"/><path d="m154.352 872.17-.031 5.515" style="fill:none;stroke:red;stroke-width:.999997;stroke-linecap:round;stroke-linejoin:round;stroke-miterlimit:4;stroke-dasharray:none;stroke-opacity:1;visibility:visible" visibility="hidden"/><path d="m268.857 458.694 15.354-8.43M264.396 784.35l9.044-6.357M275.935 605.917l-8.13-2.015M275.935 605.917l8.44-4.961M275.935 605.917l-3.989-.669" style="fill:none;stroke:red;stroke-width:1.99999;stroke-linecap:round;stroke-linejoin:round;stroke-miterlimit:4;stroke-dasharray:none;stroke-opacity:1;visibility:visible" visibility="hidden"/><path d="m264.396 784.35 16.389-11.128M257.567 468.23l13.116 13.644M275.935 605.917l11.782-7.903M173.102 500.335l7.611 1.819" style="fill:none;stroke:red;stroke-width:.999997;stroke-linecap:round;stroke-linejoin:round;stroke-miterlimit:4;stroke-dasharray:none;stroke-opacity:1;visibility:visible" visibility="hidden"/><path d="m405.3 491.52 18.226-3.56" style="fill:none;stroke:#00ff4a;stroke-width:.999997;stroke-linecap:round;stroke-linejoin:round;stroke-miterlimit:4;stroke-dasharray:none;stroke-opacity:1;visibility:visible"/><path d="m371.623 501.898 10.317 3.034" style="fill:none;stroke:#00ff4a;stroke-width:1.99999;stroke-linecap:round;stroke-linejoin:round;stroke-miterlimit:4;stroke-dasharray:none;stroke-opacity:1;visibility:visible"/><path d="m257.821 451.237-7.591-5.297M186.303 511.23l-16.627-10.292" style="fill:none;stroke:#00ff4a;stroke-width:.999997;stroke-linecap:round;stroke-linejoin:round;stroke-miterlimit:4;stroke-dasharray:none;stroke-opacity:1;visibility:visible"/></svg>