<svg xmlns="http://www.w3.org/2000/svg" baseProfile="full" height="1122.52" preserveAspectRatio="xMinYMin meet" style="width:765px;height:943px" width="793.701" xml:space="preserve"><path d="m323.498 432.51 283.844-112.035M323.03 436.97l-.044-4.715-126.637-63.185" style="fill:none;stroke:red;stroke-width:.999997;stroke-linecap:round;stroke-linejoin:round;stroke-miterlimit:4;stroke-dasharray:none;stroke-opacity:1;visibility:visible" visibility="hidden"/><path d="m323.793 437.408 283.681-112.343M323.793 437.408h-.043v.016h-.044l-.017.016h-.074v.014h-.16v-.015h-.073l-.015-.015h-.045v-.016h-.043v-.013h-.029v-.015h-.014M607.87 324.509v.057l-.017.016v.057l-.013.014v.03l-.015.017v.03l-.015.013v.014l-.014.013v.017l-.016.014v.014h-.014v.015l-.014.015v.014h-.015v.018h-.015v.012l-.014.014-.015.017-.015.013v.014h-.014v.015h-.015l-.015.016h-.013v.015h-.016v.014h-.03v.015h-.012v.015h-.031l-.015.013h-.013v.016h-.03M196.046 373.758l127.19 63.624M607.87 324.509l.087-3.447M196.046 373.758h-.014l-.015-.015h-.015v-.016h-.03v-.013h-.014l-.016-.015-.014-.014h-.015v-.015h-.015v-.015h-.014v-.014h-.015v-.016h-.015v-.015h-.014v-.013h-.015v-.012l-.015-.02v-.011h-.013v-.017l-.015-.014v-.013h-.016v-.016l-.014-.015v-.029h-.014v-.031h-.014v-.042h-.016v-.06h-.015v-.101h-.013v-.016M607.577 320.46l.015.016h.013v.014h.03l.015.012h.014v.015h.016l.014.013h.016v.016h.012l.016.015.015.014.015.016.012.014.017.015.015.015v.015h.014v.015h.014v.014h.014v.031h.018v.013l.013.015v.015h.015v.029l.016.015v.029h.014v.028l.014.016v.043l.014.017v.13M195.68 373.2l-.088-3.535M559.615 300.102l47.962 20.358M478.408 265.603l60.05 25.511M195.59 369.666v-.117h.016v-.075h.014v-.044h.014v-.027l.016-.016v-.016l.015-.013v-.015l.013-.013v-.017l.015-.015v-.015h.015v-.013l.016-.016.013-.012v-.017h.015v-.016h.014v-.014h.016v-.014h.014v-.014h.014v-.013h.015v-.017h.015l.014-.015.016-.013h.014v-.015h.029v-.016h.015l.014-.013h.014l.017-.015h.03v-.015h.012M477.953 265.603h.015v-.013h.044v-.015h.073v-.015h.146l.016.015h.073v.015h.045v.013h.043M264.845 343.791l213.108-78.186M196.017 369.035l46.533-17.068" style="fill:none;stroke:red;stroke-width:1.99999;stroke-linecap:round;stroke-linejoin:round;stroke-miterlimit:4;stroke-dasharray:none;stroke-opacity:1;visibility:visible" visibility="hidden"/><path d="m478.439 221.152-274.032 97.357M194.71 318.26l-.145.042M204.406 318.509h.119l.13.029.103.045M194.565 318.303l.145.014M193.964 318.7l128.934 62.185M322.986 387.675v-.014l-.016-.046v-.144M478.35 227.766l.057-6.013M478.35 227.985v-.22M599.421 270.9l-120.984-49.747.014-.207M478.408 221.753v-.087l.015-.09v-.367l.014-.057M599.098 270.958l.103-.03.104-.01.116-.018M322.97 387.471l-.073-6.585M322.898 380.885l286.674-109.399M326.74 382.72l-.016.173-.027.164-.06.176-.087.162-.103.147-.117.13-.13.104-.136.071-.13.044-.132.019-.132-.035-.117-.041-.088-.09-.075-.114-.06-.133-.027-.148v-.16l.028-.18.046-.159.072-.174.09-.149.118-.145.116-.119.132-.086.145-.06.133-.029h.134l.116.045.102.072.087.09.06.13.043.133.014.161M347.522 374.769v.16l-.043.179-.059.174-.089.163-.101.145-.118.117-.117.103-.132.072-.147.045-.132.014-.117-.014-.117-.057-.088-.088-.074-.105-.058-.131-.015-.147v-.176l.015-.161.058-.175.06-.162.102-.162.102-.132.132-.116.132-.09.132-.057.134-.031.13.017.118.028.1.075.091.085.057.132.029.133.015.163M589.33 282.295l-.013.16-.045.165-.057.16-.075.146-.101.131-.103.118-.104.088-.132.074-.117.042h-.103l-.116-.016-.09-.057-.085-.086-.06-.105-.045-.115-.014-.149v-.16l.029-.16.044-.165.073-.144.09-.148.101-.132.103-.101.118-.091.117-.043.116-.027.119.014.1.03.091.07.073.091.044.115.028.149.014.146M607.445 275.36l-.015.16-.029.164-.059.159-.072.148-.105.13-.101.118-.104.088-.116.074-.118.044h-.118l-.103-.016-.101-.059-.074-.088-.058-.101-.044-.119-.015-.144v-.164l.03-.159.042-.162.075-.147.072-.148.102-.13.12-.105.099-.071.135-.061.101-.012h.117l.104.043.09.06.056.101.06.117.03.133v.146" style="fill:none;stroke:#00ff4a;stroke-width:.999997;stroke-linecap:round;stroke-linejoin:round;stroke-miterlimit:4;stroke-dasharray:none;stroke-opacity:1;visibility:visible"/><path d="m590.372 274.274 8.726-3.316" style="fill:none;stroke:#00ff4a;stroke-width:1.99999;stroke-linecap:round;stroke-linejoin:round;stroke-miterlimit:4;stroke-dasharray:none;stroke-opacity:1;visibility:visible"/><path d="M478.35 227.985h0" style="fill:none;stroke:#00ff4a;stroke-width:.999997;stroke-linecap:round;stroke-linejoin:round;stroke-miterlimit:4;stroke-dasharray:none;stroke-opacity:1;visibility:visible"/><path d="m204.757 318.582 8.45 4.061" style="fill:none;stroke:#00ff4a;stroke-width:1.99999;stroke-linecap:round;stroke-linejoin:round;stroke-miterlimit:4;stroke-dasharray:none;stroke-opacity:1;visibility:visible"/><path d="m604.422 266.235-3.93-1.613M604.642 263.054l-.044 1.54M481.517 211.822l.015.015.044.016.015.013.014.015.015.028v.032l-.015.028-.029.03-.03.013-.028.017-.028.013h-.03l-.03.015-.075.03-.132.043-.586.206-1.26.454-.354.12-.175.056-.088.03-.045.014h-.278l-.044-.014-.072-.014-.046-.016M479.244 214.45l3.096-1.102M477.792 214.42h.015l.03.017.057.013.118.027.132.03.117.016.132.013h.367l.13-.014.12-.014.13-.031.061-.013.027-.014h.016M474.155 212.925l3.637 1.495M477.792 214.42l-.059 6.394M481.503 215.518v-.161l-.044-.148-.043-.132-.076-.101-.087-.09-.103-.058-.118-.028h-.13l-.119.028-.132.074-.131.074-.118.118-.102.13-.088.148-.072.16-.06.163-.03.175-.016.162v.162l.031.148.057.128.075.104.088.087.103.059.117.03h.132l.118-.03.132-.06.132-.086.117-.117.104-.132.085-.148.075-.159.06-.162.029-.176.013-.162M202.25 310.309l.075.029.028.015.03.014.028.015.03.028.029.03.014.03v.03l-.014.027-.03.03-.028.017-.045.027-.029.014h-.03l-.058.03-.073.015-.147.059-1.26.454-1.424.501M199.654 313.286l3.577-1.26M198.114 313.257h.016l.027.013.058.03.118.03.133.032.132.03h.132l.132.01h.13l.135-.011.129-.017.134-.012.146-.047.073-.014.031-.015h.014M194.534 311.542l3.58 1.715M198.114 313.257l.176 6.776M202.338 314.342l-.015-.16-.043-.161-.059-.134-.088-.102-.118-.088-.117-.059-.133-.03h-.145l-.146.044-.15.075-.144.087-.132.117-.118.149-.104.161-.086.174-.059.176-.031.179-.014.173.029.177.044.147.059.146.09.102.102.088.13.06.133.03.147-.018.147-.025.147-.075.146-.089.13-.117.119-.147.103-.161.073-.176.06-.176.042-.176v-.191" style="fill:none;stroke:#00ff4a;stroke-width:.999997;stroke-linecap:round;stroke-linejoin:round;stroke-miterlimit:4;stroke-dasharray:none;stroke-opacity:1;visibility:visible"/><path d="m604.865 266.06-.09 3.71" style="fill:none;stroke:#00ff4a;stroke-width:1.33333;stroke-linecap:round;stroke-linejoin:round;stroke-miterlimit:4;stroke-dasharray:none;stroke-opacity:1;visibility:visible"/><path d="m604.892 264.725-2.172-.896-.998-.41" style="fill:none;stroke:#00ff4a;stroke-width:.999997;stroke-linecap:round;stroke-linejoin:round;stroke-miterlimit:4;stroke-dasharray:none;stroke-opacity:1;visibility:visible"/><path d="m604.865 266.06.028-1.334" style="fill:none;stroke:#00ff4a;stroke-width:1.33333;stroke-linecap:round;stroke-linejoin:round;stroke-miterlimit:4;stroke-dasharray:none;stroke-opacity:1;visibility:visible"/><path d="m322.882 373.129-3.885-1.864" style="fill:none;stroke:#00ff4a;stroke-width:.999997;stroke-linecap:round;stroke-linejoin:round;stroke-miterlimit:4;stroke-dasharray:none;stroke-opacity:1;visibility:visible"/><path d="m323.397 372.92.028-1.434M323.426 371.485l-2.156-1.028-.996-.483M323.397 372.92l.042 3.45" style="fill:none;stroke:#00ff4a;stroke-width:1.33333;stroke-linecap:round;stroke-linejoin:round;stroke-miterlimit:4;stroke-dasharray:none;stroke-opacity:1;visibility:visible"/><path d="m531.94 254.005-.145-.03-.147-.056-.103-.046-.089-.075-.059-.056-.029-.074v-.072l.03-.076.073-.058.089-.06.117-.057M534.61 253.402l-.28.104M533.159 252.802l.131-.042.163-.032.177-.014.174-.014h.177l.175.014.176.03.147.043.148.043.116.06.089.06.057.072.031.073v.06l-.045.073-.059.074-.087.058-.117.041M464.548 235.157l-.31-.117M467.13 235.084l.1.058.092.06.058.072.029.059v.073l-.044.059-.06.073-.088.059-.117.043-.132.048-.145.028M464.239 235.04l-.117-.057-.074-.059-.058-.075-.028-.059v-.074l.044-.071.058-.059.102-.058.118-.046.132-.045.162-.028.16-.03h.369l.173.018.162.027.148.03.131.042M226.977 320.091l-.263-.129M229.78 320.02l.101.054.074.076.043.073.03.074-.013.073-.045.075-.073.072-.103.058-.117.059-.147.044M228.386 319.36l1.394.66M226.714 319.962l-.103-.06-.088-.073-.045-.075-.013-.072.013-.075.06-.087.073-.074.119-.059.129-.06.162-.041.162-.044.19-.015.192-.014h.19l.176.029.175.028.147.045.133.045" style="fill:none;stroke:#00ff4a;stroke-width:.999997;stroke-linecap:round;stroke-linejoin:round;stroke-miterlimit:4;stroke-dasharray:none;stroke-opacity:1;visibility:visible"/><path d="m194.389 325.386-.103-.073-.088-.073-.044-.087-.03-.088-.16-6.367M323 387.69h-.016v-.015M609.41 277.675l-.014.075-.044.072-.059.073-.073.06-.103.043M609.292 271.149l.102.045.074.059.058.073.028.074.016.086M609.572 271.486l-.162 6.19M222.02 319.495l-8.814 3.148M460.44 234.38l-231.62 82.698M478.35 227.985l-12.436 4.435M474.096 219.202l-269.329 95.43M213.206 322.643l104.545 50.242M194.389 325.386l128.596 62.29M323 387.69l286.116-109.692M532.89 250.517l-54.54-22.532M590.372 274.274l-51.817-21.41M599.397 267.093l-116.087-47.61M329.2 373.626l261.172-99.352" style="fill:none;stroke:#00ff4a;stroke-width:1.99999;stroke-linecap:round;stroke-linejoin:round;stroke-miterlimit:4;stroke-dasharray:none;stroke-opacity:1;visibility:visible"/><path d="M193.964 318.7v-.09l.042-.073.059-.074.09-.058.104-.042" style="fill:none;stroke:#00ff4a;stroke-width:1.99999;stroke-linecap:round;stroke-linejoin:round;stroke-miterlimit:4;stroke-dasharray:none;stroke-opacity:1;visibility:visible"/><path d="m194.534 311.542.176 6.775" style="fill:none;stroke:#00ff4a;stroke-width:1.33333;stroke-linecap:round;stroke-linejoin:round;stroke-miterlimit:4;stroke-dasharray:none;stroke-opacity:1;visibility:visible"/><path d="m198.29 320.033.133.057.16.047.162.029.19.013h.381l.191-.028.161-.044.162-.045 3.564-1.259" style="fill:none;stroke:#00ff4a;stroke-width:.999997;stroke-linecap:round;stroke-linejoin:round;stroke-miterlimit:4;stroke-dasharray:none;stroke-opacity:1;visibility:visible"/><path d="m474.155 212.925-.059 6.392M203.115 310.398l.102.232.103.237.103.248.088.235.103.25M203.629 311.658l.176 6.779M199.287 309.855l-.073-.997M194.534 311.542l.426-1.188M199.346 311.675l-.102.028-.089.028h-.058l-.044.016h-.163l-.058-.016-.087-.013-.059-.015-.044-.016-.014-.012-.03-.017-.088-.03-.192-.085-.673-.324-.66-.322-.72-.339-.79-.381M203.115 310.398l-.029-.073-.03-.031-.028-.03-.074-.042-.03-.013-.03-.019-.144-.069-.31-.151-.559-.263-.511-.249-.5-.233-.54-.265-.603-.294-.513.192M195.474 310.177l-.513.177M199.287 309.855l.06 1.82M203.629 311.658v-.043h-.015v-.013" style="fill:none;stroke:#00ff4a;stroke-width:1.33333;stroke-linecap:round;stroke-linejoin:round;stroke-miterlimit:4;stroke-dasharray:none;stroke-opacity:1;visibility:visible"/><path d="m477.732 220.813.132.045.147.044.176.028.177.015h.173l.176-.015.162-.013.162-.03.133-.044 3.093-1.101M474.096 219.318l3.637 1.496" style="fill:none;stroke:#00ff4a;stroke-width:.999997;stroke-linecap:round;stroke-linejoin:round;stroke-miterlimit:4;stroke-dasharray:none;stroke-opacity:1;visibility:visible"/><path d="m482.221 211.882.087.223.09.232.072.22.087.235.09.22M482.647 213.069l-.059 6.396M478.29 211.472v-.97M474.155 212.925l.438-1.117M478.275 212.968l-.045-.015-.03-.015-.028-.013-.147-.059-.292-.12-.557-.218-.499-.208-.497-.203-.544-.221-.603-.25M482.221 211.882l-.029-.058-.059-.06-.029-.014-.03-.028-.042-.017-.032-.013-.028-.014-.03-.016-.046-.016-.072-.028-.307-.132-.572-.234-.529-.207-.512-.219-.557-.221-.617-.263-.441.162M475.033 211.646l-.44.164M478.29 211.472l-.016 1.496M482.647 213.069v-.059" style="fill:none;stroke:#00ff4a;stroke-width:1.33333;stroke-linecap:round;stroke-linejoin:round;stroke-miterlimit:4;stroke-dasharray:none;stroke-opacity:1;visibility:visible"/><path d="m608.397 271.253-3.623-1.483" style="fill:none;stroke:#00ff4a;stroke-width:.999997;stroke-linecap:round;stroke-linejoin:round;stroke-miterlimit:4;stroke-dasharray:none;stroke-opacity:1;visibility:visible"/><path d="m600.198 264.257-.014.013v.045M609.014 264.49l-.176 6.585" style="fill:none;stroke:#00ff4a;stroke-width:1.33333;stroke-linecap:round;stroke-linejoin:round;stroke-miterlimit:4;stroke-dasharray:none;stroke-opacity:1;visibility:visible"/><path d="m604.25 272.835-3.919-1.612" style="fill:none;stroke:#00ff4a;stroke-width:.999997;stroke-linecap:round;stroke-linejoin:round;stroke-miterlimit:4;stroke-dasharray:none;stroke-opacity:1;visibility:visible"/><path d="m600.185 264.315-.175 6.602M609.014 264.49l-.41-1.173M608.604 263.318l-.999-.41-.923-.366-.852-.355-.409-.157-.207-.092-.1-.044-.119-.043-.087-.014-.088-.028-.104-.016-.132-.014-.146-.017h-.28l-.102.018-.102.013-.102.016-.088.013-.075.03-.132.041-.235.091-.484.189-1.068.397-.544.205-.264.1-.073.035-.044.027-.03.016-.044.026-.043.031-.03.044-.03.043M604.774 269.77l-.086 2.89" style="fill:none;stroke:#00ff4a;stroke-width:1.33333;stroke-linecap:round;stroke-linejoin:round;stroke-miterlimit:4;stroke-dasharray:none;stroke-opacity:1;visibility:visible"/><path d="m600.198 264.257.09-.237.101-.234.088-.221.104-.232.089-.236" style="fill:none;stroke:#00ff4a;stroke-width:1.33333;stroke-linecap:round;stroke-linejoin:round;stroke-miterlimit:4;stroke-dasharray:none;stroke-opacity:1;visibility:visible"/><path d="m327.753 378.289-3.871-1.862" style="fill:none;stroke:#00ff4a;stroke-width:.999997;stroke-linecap:round;stroke-linejoin:round;stroke-miterlimit:4;stroke-dasharray:none;stroke-opacity:1;visibility:visible"/><path d="m318.717 370.94.073 6.998M328.206 371.103l-.499-1.248M327.707 369.855l-.982-.47-.91-.439-.834-.396-.412-.188-.204-.105-.105-.06-.06-.014-.07-.03-.075-.011-.101-.032-.104-.029-.145-.014-.163-.017h-.19l-.118.016-.103.016-.117.015-.116.013-.09.031-.085.013-.149.059-.279.102-.557.22-1.248.47-.629.235-.307.117-.044.013-.045.033-.043.027-.045.03-.06.03-.042.043-.045.045-.029.057M323.44 376.369l.028 3.561M318.731 370.869v.041h-.014v.031M328.206 371.103l.059 6.998M222.049 318.862l.808.38M222.858 319.242l.028.015.03.029" style="fill:none;stroke:#00ff4a;stroke-width:1.33333;stroke-linecap:round;stroke-linejoin:round;stroke-miterlimit:4;stroke-dasharray:none;stroke-opacity:1;visibility:visible"/><path d="m318.731 370.869.104-.25.09-.236.085-.248.104-.25.088-.25" style="fill:none;stroke:#00ff4a;stroke-width:1.33333;stroke-linecap:round;stroke-linejoin:round;stroke-miterlimit:4;stroke-dasharray:none;stroke-opacity:1;visibility:visible"/><path d="m226.406 316.514-4.37 1.556M222.034 318.07l.016.792" style="fill:none;stroke:#00ff4a;stroke-width:.999997;stroke-linecap:round;stroke-linejoin:round;stroke-miterlimit:4;stroke-dasharray:none;stroke-opacity:1;visibility:visible"/><path d="m228.518 318.303 2.465 1.172M231.626 320.195l-.015-.118-.044-.115-.073-.103-.09-.105-.114-.103-.148-.088-.16-.088M228.46 318.26l.028.025.031.018M227.2 316.894l.116.059.102.089.103.103.938 1.114M226.406 316.514l.794.38" style="fill:none;stroke:#00ff4a;stroke-width:1.33333;stroke-linecap:round;stroke-linejoin:round;stroke-miterlimit:4;stroke-dasharray:none;stroke-opacity:1;visibility:visible"/><path d="m229.53 320.68-.16.042-.163.031-.174.014h-.354l-.159-.029-.162-.03-.134-.042-.131-.046-1.115-.527" style="fill:none;stroke:#00ff4a;stroke-width:.999997;stroke-linecap:round;stroke-linejoin:round;stroke-miterlimit:4;stroke-dasharray:none;stroke-opacity:1;visibility:visible"/><path d="m231.626 320.195.015.792M222.917 319.286l.952 1.115M223.867 320.402l.088.101.116.088.104.059M224.177 320.649l2.45 1.188M231.64 320.986l-.013.117-.045.132-.072.118-.12.116-.13.117-.16.104-.194.103-.219.087-.234.09-.263.059-.265.073-.295.043-.292.029-.292.03h-.601l-.295-.016-.293-.029-.279-.045-.263-.056-.252-.06-.232-.09-.206-.07" style="fill:none;stroke:#00ff4a;stroke-width:1.33333;stroke-linecap:round;stroke-linejoin:round;stroke-miterlimit:4;stroke-dasharray:none;stroke-opacity:1;visibility:visible"/><path d="m463.55 231.919.822.351M463.55 231.918l-3.858 1.39M459.692 233.309l-.014.75M459.679 234.058l.82.338M460.499 234.396l.03.014.028.028" style="fill:none;stroke:#00ff4a;stroke-width:.999997;stroke-linecap:round;stroke-linejoin:round;stroke-miterlimit:4;stroke-dasharray:none;stroke-opacity:1;visibility:visible"/><path d="m464.372 232.269.101.041.104.09.103.088.939 1.026" style="fill:none;stroke:#00ff4a;stroke-width:1.33333;stroke-linecap:round;stroke-linejoin:round;stroke-miterlimit:4;stroke-dasharray:none;stroke-opacity:1;visibility:visible"/><path d="m465.619 233.516.03.026.042.016" style="fill:none;stroke:#00ff4a;stroke-width:.999997;stroke-linecap:round;stroke-linejoin:round;stroke-miterlimit:4;stroke-dasharray:none;stroke-opacity:1;visibility:visible"/><path d="m465.692 233.558 2.493 1.043M468.904 235.318l-.016-.114-.043-.106-.073-.101-.102-.119-.149-.088-.16-.102-.175-.088" style="fill:none;stroke:#00ff4a;stroke-width:1.33333;stroke-linecap:round;stroke-linejoin:round;stroke-miterlimit:4;stroke-dasharray:none;stroke-opacity:1;visibility:visible"/><path d="m466.822 235.716-.178.028h-.364l-.177-.014-.163-.03-.16-.03-.132-.04-1.1-.471" style="fill:none;stroke:#00ff4a;stroke-width:.999997;stroke-linecap:round;stroke-linejoin:round;stroke-miterlimit:4;stroke-dasharray:none;stroke-opacity:1;visibility:visible"/><path d="M468.904 235.318v.764M460.558 234.437l.94 1.028M461.498 235.465l.1.104.105.07.103.061M461.807 235.7l2.492 1.044M468.904 236.082l-.016.103-.057.119-.074.098-.102.108-.148.099-.16.09-.177.072-.22.073-.22.073-.247.059-.267.044-.276.03-.281.027h-.57l-.293-.012-.28-.03-.264-.029-.264-.06-.25-.058-.219-.06-.22-.083" style="fill:none;stroke:#00ff4a;stroke-width:1.33333;stroke-linecap:round;stroke-linejoin:round;stroke-miterlimit:4;stroke-dasharray:none;stroke-opacity:1;visibility:visible"/><path d="m535.564 250.25-.865.323M539.332 251.82l-.015.762M539.332 251.82l-3.768-1.57M539.319 252.582l-.851.308M538.468 252.89l-.044.012-.03.034" style="fill:none;stroke:#00ff4a;stroke-width:.999997;stroke-linecap:round;stroke-linejoin:round;stroke-miterlimit:4;stroke-dasharray:none;stroke-opacity:1;visibility:visible"/><path d="m534.697 250.572-.116.058-.104.072-.117.09-.996 1.01" style="fill:none;stroke:#00ff4a;stroke-width:1.33333;stroke-linecap:round;stroke-linejoin:round;stroke-miterlimit:4;stroke-dasharray:none;stroke-opacity:1;visibility:visible"/><path d="m533.364 251.802-.044.03-.032.017" style="fill:none;stroke:#00ff4a;stroke-width:.999997;stroke-linecap:round;stroke-linejoin:round;stroke-miterlimit:4;stroke-dasharray:none;stroke-opacity:1;visibility:visible"/><path d="m533.29 251.848-2.627.969M530.664 252.816l-.19.073-.147.073-.146.088-.117.102-.09.088-.07.104-.032.102-.013.104" style="fill:none;stroke:#00ff4a;stroke-width:1.33333;stroke-linecap:round;stroke-linejoin:round;stroke-miterlimit:4;stroke-dasharray:none;stroke-opacity:1;visibility:visible"/><path d="m533.13 253.946-.148.046-.159.039-.164.017-.19.014-.176-.012-.176-.02-.177-.025M534.33 253.505l-1.2.441" style="fill:none;stroke:#00ff4a;stroke-width:.999997;stroke-linecap:round;stroke-linejoin:round;stroke-miterlimit:4;stroke-dasharray:none;stroke-opacity:1;visibility:visible"/><path d="m529.857 253.549-.014.761M538.395 252.936l-1.015 1.01M537.381 253.946l-.101.104-.117.07-.103.047M534.419 255.149l-.204.071-.235.06-.265.045-.265.045-.28.03-.277.013h-.572l-.293-.013-.279-.047-.262-.028-.267-.06-.248-.059-.22-.072-.204-.09-.176-.087-.163-.104-.132-.1-.102-.104-.075-.101-.043-.12-.014-.115M537.06 254.166l-2.64.984" style="fill:none;stroke:#00ff4a;stroke-width:1.33333;stroke-linecap:round;stroke-linejoin:round;stroke-miterlimit:4;stroke-dasharray:none;stroke-opacity:1;visibility:visible"/><path d="m323.397 372.92 3.343 9.8M322.897 380.886l3.842 1.833M328.265 378.101l19.257-3.332M328.206 371.103l19.316 3.667M600.01 270.917l-10.68 11.378M609.41 277.676l-1.965-2.316M609.572 271.486l-2.126 3.873M604.865 266.06l-.223-3.006M482.647 213.069l-1.144 2.449M482.647 213.069l-1.145 2.449M203.629 311.658l-1.291 2.684M203.629 311.658l-1.292 2.684M604.422 266.235l-2.7-2.816" style="fill:none;stroke:#00ff4a;stroke-width:.999997;stroke-linecap:round;stroke-linejoin:round;stroke-miterlimit:4;stroke-dasharray:none;stroke-opacity:1;visibility:visible"/><path d="m317.751 372.885 2.523-2.911" style="fill:none;stroke:#00ff4a;stroke-width:1.33333;stroke-linecap:round;stroke-linejoin:round;stroke-miterlimit:4;stroke-dasharray:none;stroke-opacity:1;visibility:visible"/><path d="m226.406 316.514 2.414.564M463.55 231.918l2.364.502M203.231 312.026l1.536 2.606M318.997 371.265l-1.246 1.62M535.564 250.25l-2.674.267M600.492 264.622l-1.095 2.471" style="fill:none;stroke:#00ff4a;stroke-width:1.99999;stroke-linecap:round;stroke-linejoin:round;stroke-miterlimit:4;stroke-dasharray:none;stroke-opacity:1;visibility:visible"/><path d="m323.44 376.369-4.65 1.569M322.897 380.886l.571-.956" style="fill:none;stroke:#00ff4a;stroke-width:1.33333;stroke-linecap:round;stroke-linejoin:round;stroke-miterlimit:4;stroke-dasharray:none;stroke-opacity:1;visibility:visible"/><path d="m323.44 376.369 5.76-2.743" style="fill:none;stroke:#00ff4a;stroke-width:1.99999;stroke-linecap:round;stroke-linejoin:round;stroke-miterlimit:4;stroke-dasharray:none;stroke-opacity:1;visibility:visible"/></svg>