<svg xmlns="http://www.w3.org/2000/svg" baseProfile="full" height="1122.52" preserveAspectRatio="xMinYMin meet" style="width:765px;height:943px" width="793.701" xml:space="preserve"><path d="m375.087 870.81 6.675 1.079" style="fill:none;stroke:red;stroke-width:.666665;stroke-linecap:round;stroke-linejoin:round;stroke-miterlimit:10;stroke-dasharray:none;stroke-opacity:1;visibility:visible" visibility="hidden"/><path d="m0 0 199.481 72.954" style="fill:none;stroke:red;stroke-width:.75;stroke-linecap:round;stroke-linejoin:round;stroke-miterlimit:4;stroke-dasharray:none;stroke-opacity:1;visibility:visible" transform="matrix(1.33333 0 0 -1.33333 233.67 1002.007)" visibility="hidden"/><path d="m0 0-80.874 30.949" style="fill:none;stroke:red;stroke-width:.75;stroke-linecap:round;stroke-linejoin:round;stroke-miterlimit:4;stroke-dasharray:none;stroke-opacity:1;visibility:visible" transform="matrix(1.33333 0 0 -1.33333 490.255 904.371)" visibility="hidden"/><path d="m0 0 .041 3.977" style="fill:none;stroke:red;stroke-width:.75;stroke-linecap:round;stroke-linejoin:round;stroke-miterlimit:4;stroke-dasharray:none;stroke-opacity:1;visibility:visible" transform="matrix(1.33333 0 0 -1.33333 382.342 868.938)" visibility="hidden"/><path d="m0 0 84.891-39.404" style="fill:none;stroke:red;stroke-width:.75;stroke-linecap:round;stroke-linejoin:round;stroke-miterlimit:4;stroke-dasharray:none;stroke-opacity:1;visibility:visible" transform="matrix(1.33333 0 0 -1.33333 120.482 949.468)" visibility="hidden"/><path d="m0 0-73.092-24.984" style="fill:none;stroke:red;stroke-width:.75;stroke-linecap:round;stroke-linejoin:round;stroke-miterlimit:4;stroke-dasharray:none;stroke-opacity:1;visibility:visible" transform="matrix(1.33333 0 0 -1.33333 227.518 915.987)" visibility="hidden"/><path d="m0 0-107.681-36.858" style="fill:none;stroke:red;stroke-width:.75;stroke-linecap:round;stroke-linejoin:round;stroke-miterlimit:4;stroke-dasharray:none;stroke-opacity:1;visibility:visible" transform="matrix(1.33333 0 0 -1.33333 382.423 863.106)" visibility="hidden"/><path d="m0 0 6.012 2.232" style="fill:none;stroke:red;stroke-width:1.5;stroke-linecap:round;stroke-linejoin:round;stroke-miterlimit:4;stroke-dasharray:none;stroke-opacity:1;visibility:visible" transform="matrix(1.33333 0 0 -1.33333 481.945 907.4)" visibility="hidden"/><path d="m0 0-.05-4.21" style="fill:none;stroke:red;stroke-width:1.5;stroke-linecap:round;stroke-linejoin:round;stroke-miterlimit:4;stroke-dasharray:none;stroke-opacity:1;visibility:visible" transform="matrix(1.33333 0 0 -1.33333 499.645 904.735)" visibility="hidden"/><path d="m0 0-.072.05-.059.047-.031.058-.022.059-.109 4.211" style="fill:none;stroke:red;stroke-width:1.5;stroke-linecap:round;stroke-linejoin:round;stroke-miterlimit:4;stroke-dasharray:none;stroke-opacity:1;visibility:visible" transform="matrix(1.33333 0 0 -1.33333 120.872 955.367)" visibility="hidden"/><path d="m0 0 181.812 66.351" style="fill:none;stroke:red;stroke-width:1.5;stroke-linecap:round;stroke-linejoin:round;stroke-miterlimit:4;stroke-dasharray:none;stroke-opacity:1;visibility:visible" transform="matrix(1.33333 0 0 -1.33333 239.53 995.867)" visibility="hidden"/><path d="m0 0-29.957 11.408" style="fill:none;stroke:red;stroke-width:1.5;stroke-linecap:round;stroke-linejoin:round;stroke-miterlimit:4;stroke-dasharray:none;stroke-opacity:1;visibility:visible" transform="matrix(1.33333 0 0 -1.33333 455.273 887.67)" visibility="hidden"/><path d="m0 0-16.825 6.407" style="fill:none;stroke:red;stroke-width:1.5;stroke-linecap:round;stroke-linejoin:round;stroke-miterlimit:4;stroke-dasharray:none;stroke-opacity:1;visibility:visible" transform="matrix(1.33333 0 0 -1.33333 489.678 900.77)" visibility="hidden"/><path d="m0 0-34.44 13.299" style="fill:none;stroke:red;stroke-width:.75;stroke-linecap:round;stroke-linejoin:round;stroke-miterlimit:4;stroke-dasharray:none;stroke-opacity:1;visibility:visible" transform="matrix(1.33333 0 0 -1.33333 481.945 907.4)" visibility="hidden"/><path d="m0 0-36.521 13.968" style="fill:none;stroke:red;stroke-width:.75;stroke-linecap:round;stroke-linejoin:round;stroke-miterlimit:4;stroke-dasharray:none;stroke-opacity:1;visibility:visible" transform="matrix(1.33333 0 0 -1.33333 431.038 887.755)" visibility="hidden"/><path d="m0 0 199.097 73.29" style="fill:none;stroke:red;stroke-width:.75;stroke-linecap:round;stroke-linejoin:round;stroke-miterlimit:4;stroke-dasharray:none;stroke-opacity:1;visibility:visible" transform="matrix(1.33333 0 0 -1.33333 233.846 1008.353)" visibility="hidden"/><path d="m0 0 84.72-39.729" style="fill:none;stroke:red;stroke-width:.75;stroke-linecap:round;stroke-linejoin:round;stroke-miterlimit:4;stroke-dasharray:none;stroke-opacity:1;visibility:visible" transform="matrix(1.33333 0 0 -1.33333 120.872 955.367)" visibility="hidden"/><path d="m0 0 14.78-6.836" style="fill:none;stroke:red;stroke-width:1.5;stroke-linecap:round;stroke-linejoin:round;stroke-miterlimit:4;stroke-dasharray:none;stroke-opacity:1;visibility:visible" transform="matrix(1.33333 0 0 -1.33333 209.24 985.837)" visibility="hidden"/><path d="m0 0 24.751-11.449" style="fill:none;stroke:red;stroke-width:1.5;stroke-linecap:round;stroke-linejoin:round;stroke-miterlimit:4;stroke-dasharray:none;stroke-opacity:1;visibility:visible" transform="matrix(1.33333 0 0 -1.33333 164.123 964.968)" visibility="hidden"/><path d="m0 0-72.752-24.77" style="fill:none;stroke:red;stroke-width:1.5;stroke-linecap:round;stroke-linejoin:round;stroke-miterlimit:4;stroke-dasharray:none;stroke-opacity:1;visibility:visible" transform="matrix(1.33333 0 0 -1.33333 227.398 912.853)" visibility="hidden"/><path d="m0 0-104.133-35.575" style="fill:none;stroke:red;stroke-width:1.5;stroke-linecap:round;stroke-linejoin:round;stroke-miterlimit:4;stroke-dasharray:none;stroke-opacity:1;visibility:visible" transform="matrix(1.33333 0 0 -1.33333 378.055 861.517)" visibility="hidden"/><path d="m0 0-8.557-2.934" style="fill:none;stroke:red;stroke-width:.75;stroke-linecap:round;stroke-linejoin:round;stroke-miterlimit:4;stroke-dasharray:none;stroke-opacity:1;visibility:visible" transform="matrix(1.33333 0 0 -1.33333 382.342 869.132)" visibility="hidden"/><path d="m0 0-56.291-19.43" style="fill:none;stroke:red;stroke-width:.75;stroke-linecap:round;stroke-linejoin:round;stroke-miterlimit:4;stroke-dasharray:none;stroke-opacity:1;visibility:visible" transform="matrix(1.33333 0 0 -1.33333 227.518 922.134)" visibility="hidden"/><path d="m0 0-95.025-32.781" style="fill:none;stroke:red;stroke-width:.75;stroke-linecap:round;stroke-linejoin:round;stroke-miterlimit:4;stroke-dasharray:none;stroke-opacity:1;visibility:visible" transform="matrix(1.33333 0 0 -1.33333 365.911 874.772)" visibility="hidden"/><path d="m0 0 .061 2.28" style="fill:none;stroke:red;stroke-width:1.5;stroke-linecap:round;stroke-linejoin:round;stroke-miterlimit:4;stroke-dasharray:none;stroke-opacity:1;visibility:visible" transform="matrix(1.33333 0 0 -1.33333 499.272 914.301)" visibility="hidden"/><path d="m0 0 84.216-39.65" style="fill:none;stroke:red;stroke-width:1.5;stroke-linecap:round;stroke-linejoin:round;stroke-miterlimit:4;stroke-dasharray:none;stroke-opacity:1;visibility:visible" transform="matrix(1.33333 0 0 -1.33333 121.309 959.653)" visibility="hidden"/><path d="M0 0h-.029v-.011h-.032l-.011-.01h-.049V-.03h-.112v.009h-.05l-.011.01h-.03V0h-.03v.009h-.02v.01h-.01M0 0l198.6 73.313" style="fill:none;stroke:red;stroke-width:1.5;stroke-linecap:round;stroke-linejoin:round;stroke-miterlimit:4;stroke-dasharray:none;stroke-opacity:1;visibility:visible" transform="matrix(1.33333 0 0 -1.33333 234.108 1012.545)" visibility="hidden"/><path d="m0 0 6.012 2.232" style="fill:none;stroke:red;stroke-width:1.5;stroke-linecap:round;stroke-linejoin:round;stroke-miterlimit:4;stroke-dasharray:none;stroke-opacity:1;visibility:visible" transform="matrix(1.33333 0 0 -1.33333 481.945 907.4)" visibility="hidden"/><path d="M.061 2.28-.05-4.21" style="fill:none;stroke:red;stroke-width:1.5;stroke-linecap:round;stroke-linejoin:round;stroke-miterlimit:4;stroke-dasharray:none;stroke-opacity:1;visibility:visible" transform="matrix(1.33333 0 0 -1.33333 499.645 904.735)" visibility="hidden"/><path d="m0 0-16.825 6.407" style="fill:none;stroke:red;stroke-width:1.5;stroke-linecap:round;stroke-linejoin:round;stroke-miterlimit:4;stroke-dasharray:none;stroke-opacity:1;visibility:visible" transform="matrix(1.33333 0 0 -1.33333 489.678 900.77)" visibility="hidden"/><path d="m0 0 14.78-6.836" style="fill:none;stroke:red;stroke-width:1.5;stroke-linecap:round;stroke-linejoin:round;stroke-miterlimit:4;stroke-dasharray:none;stroke-opacity:1;visibility:visible" transform="matrix(1.33333 0 0 -1.33333 209.24 985.837)" visibility="hidden"/><path d="m0 0-8.557-2.934" style="fill:none;stroke:red;stroke-width:.75;stroke-linecap:round;stroke-linejoin:round;stroke-miterlimit:4;stroke-dasharray:none;stroke-opacity:1;visibility:visible" transform="matrix(1.33333 0 0 -1.33333 382.342 869.132)" visibility="hidden"/><path d="m0 0 .061 2.28" style="fill:none;stroke:red;stroke-width:1.5;stroke-linecap:round;stroke-linejoin:round;stroke-miterlimit:4;stroke-dasharray:none;stroke-opacity:1;visibility:visible" transform="matrix(1.33333 0 0 -1.33333 499.272 914.301)" visibility="hidden"/><path d="m392.826 763.485-6.671-1.079M379.88 764.338l-2.838-2.258M386.55 765.417l-6.672-1.079M383.715 763.158l2.835 2.258M373.6 766.272l-2.836-2.26M380.272 767.348l-6.672-1.078M377.436 765.092l2.836 2.257M370.764 764.013l6.672 1.079M376.04 763.808l-6.674-1.076M367.323 768.206l-2.837-2.258M373.995 769.282l-6.672-1.077M371.16 767.024l2.835 2.258M364.486 765.948l6.673 1.077M363.086 764.664l-2.838-2.26M369.756 765.74l-6.672-1.076M366.923 763.48l2.833 2.26M361.047 770.138l-2.837-2.258M367.716 771.214l-6.669-1.077M364.882 768.958l2.834 2.256M363.48 767.674l-6.67-1.078M361.44 773.148l-6.673-1.076M412.975 763.544l-2.836-2.258M419.647 764.624l-6.672-1.08M406.699 765.477l-2.839-2.257M413.37 766.557l-6.671-1.081M410.532 764.294l2.838 2.262M403.862 763.218l6.672 1.078M400.42 767.41l-2.84-2.256M407.09 768.489l-6.67-1.08M404.256 766.229l2.834 2.26M397.582 765.153l6.676 1.076M396.179 763.87l-2.832-2.26M402.855 764.949l-6.676-1.08M394.142 769.344l-2.836-2.258M400.812 770.422l-6.67-1.078M397.978 768.16l2.834 2.26M391.306 767.086l6.672 1.076M389.903 765.804l-2.836-2.26M396.575 766.88l-6.672-1.078M393.738 764.622l2.837 2.259M387.066 763.544l6.67 1.078M387.863 771.276l-2.836-2.258M394.536 772.354l-6.673-1.078M391.702 770.094l2.834 2.259M385.028 769.018l6.675 1.078M383.624 767.737l-2.832-2.259M390.3 768.814l-6.676-1.077M387.46 766.554l2.84 2.259M380.792 765.478l6.668 1.078M381.587 773.21l-2.837-2.258M388.259 774.289l-6.672-1.08M385.42 772.028l2.839 2.26M378.75 770.95l6.67 1.079M377.346 769.669l-2.835-2.259M384.019 770.748l-6.673-1.08M381.184 768.486l2.835 2.26M374.511 767.41l6.673 1.078M375.308 775.144l-2.836-2.26M381.982 776.22l-6.674-1.078M379.146 773.96l2.837 2.26M372.474 772.882l6.672 1.079M371.07 771.6l-2.834-2.256M377.744 772.68l-6.674-1.08M374.904 770.422l2.84 2.259M368.236 769.344l6.668 1.078M369.03 777.076l-2.836-2.258M375.703 778.156l-6.673-1.082M372.871 775.894l2.832 2.263M366.195 774.818l6.677 1.076M364.79 773.537l-2.83-2.26M371.466 774.614l-6.678-1.077M368.63 772.354l2.837 2.259M361.96 771.276l6.67 1.078M433.51 766.618l-2.834-2.261M437.348 765.436l2.839 2.257M430.676 764.357l6.672 1.08M429.278 763.076l-2.84-2.258M435.946 764.153l-6.668-1.079M427.235 768.549l-2.836-2.257M433.908 769.628l-6.673-1.08M431.068 767.37l2.84 2.258M424.399 766.292l6.67 1.078M422.998 765.01l-2.838-2.26M429.668 766.088l-6.67-1.078M426.836 763.828l2.832 2.26M420.959 770.485l-2.836-2.26M427.632 771.56l-6.673-1.075M424.792 769.302l2.84 2.258M418.123 768.224l6.67 1.078M416.72 766.942l-2.836-2.258M423.39 768.02l-6.67-1.078M420.555 765.76l2.836 2.26M413.884 764.684l6.671 1.078M414.679 772.417l-2.836-2.257M421.35 773.494l-6.671-1.077M418.516 771.236l2.835 2.257M411.843 770.158l6.673 1.078M410.442 768.877l-2.834-2.259M417.115 769.953l-6.673-1.077M414.279 767.694l2.835 2.259M407.608 766.617l6.672 1.077M408.402 774.352l-2.836-2.26M415.075 775.428l-6.673-1.076M412.238 773.169l2.837 2.257M405.566 772.092l6.672 1.078M404.166 770.81l-2.839-2.26M410.835 771.885l-6.67-1.076M407.999 769.628l2.836 2.257M401.327 768.549l6.672 1.079M402.123 776.282l-2.833-2.258M408.799 777.36l-6.676-1.078M405.959 775.1l2.839 2.258M399.29 774.024l6.67 1.078M397.89 772.742l-2.836-2.26M404.559 773.82l-6.67-1.08M401.723 771.56l2.837 2.26M395.054 770.48l6.669 1.08M395.847 778.214l-2.836-2.257M402.519 779.293l-6.673-1.079M399.683 777.036l2.837 2.257M393.011 775.957l6.672 1.079M391.608 774.674l-2.836-2.258M398.279 775.753l-6.67-1.079M395.447 773.494l2.832 2.259M388.772 772.414l6.675 1.079M389.568 780.148l-2.834-2.258M396.244 781.228l-6.676-1.08M393.404 778.968l2.84 2.258M386.732 777.89l6.671 1.078M385.334 776.606l-2.838-2.257M392.004 777.686l-6.67-1.08M389.168 775.428l2.836 2.258M382.496 774.348l6.672 1.078M383.29 782.08l-2.835-2.258M389.966 783.158l-6.676-1.077M387.13 780.9l2.836 2.258M380.455 779.822l6.675 1.078M379.052 778.54l-2.832-2.258M385.73 779.62l-6.678-1.08M382.892 777.36l2.838 2.26M376.22 776.282l6.672 1.078M438.663 771.297l6.67 1.079M437.256 770.014l-2.834-2.26M434.422 767.756l6.673 1.078M435.22 775.489l-2.834-2.26M439.055 774.308l2.835 2.257M432.386 773.229l6.669 1.079M430.98 771.948l-2.837-2.26M437.654 773.026l-6.674-1.078M434.816 770.768l2.838 2.257M428.143 769.688l6.673 1.08M428.943 777.42l-2.836-2.256M435.612 778.5l-6.67-1.08M432.779 776.24l2.833 2.26M426.107 775.162l6.672 1.078M424.702 773.88l-2.834-2.26M431.379 774.958l-6.677-1.077M428.54 772.7l2.839 2.258M421.868 771.62l6.672 1.08M422.664 779.354l-2.834-2.257M429.334 780.432l-6.67-1.08M426.502 778.174l2.832 2.258M419.83 777.097l6.672 1.079M418.426 775.814l-2.839-2.26M425.099 776.894l-6.673-1.078M422.259 774.634l2.84 2.259M415.587 773.554l6.672 1.08M416.387 781.286l-2.835-2.257M423.059 782.365l-6.672-1.079M420.222 780.108l2.837 2.257M413.552 779.028l6.67 1.078M412.15 777.746l-2.838-2.258M418.823 778.825l-6.673-1.08M415.983 776.566l2.84 2.259M409.312 775.486l6.671 1.08M410.108 783.218l-2.833-2.256M416.78 784.3l-6.672-1.082M413.944 782.038l2.836 2.26M407.275 780.96l6.67 1.078M405.868 779.68l-2.836-2.258M412.543 780.76l-6.675-1.08M409.707 778.5l2.836 2.258M403.032 777.422l6.675 1.079M403.832 785.154l-2.834-2.257M410.503 786.232l-6.67-1.08M407.668 783.972l2.835 2.26M400.998 782.896l6.67 1.076M399.592 781.614l-2.836-2.258M406.267 782.69l-6.675-1.077M403.428 780.433l2.839 2.256M396.756 779.354l6.672 1.08M397.552 787.089l-2.832-2.26M404.226 788.162l-6.674-1.074M401.392 785.905l2.834 2.257M394.72 784.828l6.672 1.077M393.314 783.548l-2.832-2.26M399.991 784.625l-6.677-1.079M397.152 782.365l2.839 2.26M390.482 781.286l6.67 1.079M455.76 778.56l-2.837-2.258M462.43 779.64l-6.67-1.08M449.483 780.494l-2.836-2.257M456.155 781.573l-6.672-1.08M453.319 779.313l2.836 2.26M443.206 782.428l-2.838-2.258M449.875 783.505l-6.67-1.079M447.044 781.245l2.83 2.26M440.368 780.169l6.676 1.076M438.966 778.885l-2.834-2.257M445.642 779.964l-6.678-1.08M436.132 776.628l6.672 1.077M436.927 784.36l-2.837-2.256M443.599 785.44l-6.67-1.08M440.763 783.18l2.835 2.26M434.09 782.102l6.673 1.078M432.688 780.82l-2.836-2.26M439.362 781.898l-6.674-1.078M436.524 779.638l2.838 2.26M429.852 778.56l6.672 1.078M430.65 786.294l-2.836-2.258M437.322 787.371l-6.672-1.078M434.486 785.112l2.836 2.26M427.814 784.036l6.672 1.077M426.41 782.753l-2.832-2.259M433.087 783.829l-6.677-1.077M430.246 781.57l2.84 2.259M423.578 780.494l6.669 1.078M424.372 788.227l-2.837-2.257M431.044 789.305l-6.672-1.079M428.207 787.046l2.837 2.257M421.535 785.969l6.672 1.078M420.132 784.688l-2.837-2.26M426.807 785.765l-6.673-1.077M423.97 783.504l2.837 2.26M417.296 782.428l6.674 1.077M418.096 790.158l-2.837-2.256M424.767 791.238l-6.67-1.08M421.932 788.98l2.835 2.258M415.259 787.902l6.673 1.077M413.858 786.62l-2.836-2.26M420.53 787.694l-6.674-1.076M417.691 785.437l2.84 2.257M411.022 784.36l6.669 1.078M411.816 792.094l-2.836-2.259M415.654 790.912l2.834 2.258M408.98 789.834l6.674 1.078M407.576 788.552l-2.832-2.26M414.254 789.628l-6.679-1.078M411.416 787.37l2.839 2.259M404.744 786.293l6.672 1.077M465.781 780.026l-2.834-2.257M463.744 785.5l-2.834-2.258M460.91 783.24l6.67 1.078M459.506 781.958l-2.838-2.257M466.178 783.037l-6.672-1.08M463.34 780.778l2.838 2.259M456.668 779.7l6.672 1.08M454.63 785.174l6.674 1.079M453.226 783.892l-2.832-2.26M459.9 784.97l-6.673-1.078M457.066 782.71l2.834 2.259M450.395 781.633l6.67 1.079M450.786 784.644l2.833 2.26M444.112 783.566l6.675 1.078M437.838 785.497l6.67 1.079M435.798 790.974l6.673 1.077M434.395 789.69l-2.836-2.257M438.232 788.51l2.835 2.26M431.559 787.432l6.673 1.078M428.119 791.625l-2.837-2.26M434.79 792.703l-6.671-1.078M431.954 790.442l2.837 2.26M425.282 789.365l6.672 1.078M425.678 792.374l2.836 2.26M419.006 791.297l6.672 1.078M321.89 772.797l-2.835-2.257M328.565 773.874l-6.675-1.078M322.287 775.808l-6.676-1.076M278.343 789.338l-6.672-1.076M265.39 790.196l-2.835-2.258M272.063 791.271l-6.673-1.077M259.115 792.129l-2.837-2.259M265.786 793.205l-6.672-1.078M262.95 790.949l2.837 2.256M261.547 789.668l-6.668-1.08M259.513 795.138l-6.678-1.076M240.282 797.927l-2.835-2.258M246.957 799.005l-6.675-1.078M234.002 799.862l-2.835-2.259M240.677 800.938l-6.675-1.077M237.84 798.68l2.835 2.258M231.167 797.602l6.674 1.077M348.707 773.937l-2.836-2.259M355.38 775.014l-6.673-1.078M352.543 772.758l2.836 2.258M342.428 775.87l-2.836-2.257M349.1 776.949l-6.672-1.079M346.267 774.688l2.832 2.26M339.592 773.614l6.675 1.075M344.866 773.406l-6.672-1.078M336.151 777.804l-2.834-2.258M342.823 778.88l-6.672-1.076M339.986 776.622l2.837 2.258M333.317 775.545l6.669 1.077M331.916 774.264l-2.837-2.26M338.587 775.34l-6.672-1.078M335.754 773.08l2.833 2.26M329.874 779.737l-2.836-2.259M336.546 780.814l-6.672-1.077M333.71 778.557l2.836 2.256M327.04 777.478l6.671 1.08M325.64 776.196l-2.84-2.258M332.308 777.272l-6.67-1.078M329.474 775.014l2.836 2.258M322.8 773.937l6.673 1.077M323.597 781.67l-2.838-2.258M330.269 782.746l-6.672-1.076M327.435 780.488l2.834 2.257M326.033 779.206l-6.674-1.076M323.2 776.948l2.834 2.257M317.32 783.602l-2.837-2.257M323.993 784.68l-6.672-1.078M311.04 785.537l-2.835-2.26M317.713 786.614l-6.672-1.078M314.88 784.354l2.834 2.26M308.205 783.276l6.673 1.078M311.434 788.548l-6.67-1.078M308.6 786.289l2.834 2.257M307.2 785.005l-6.673-1.076M298.487 789.404l-2.834-2.26M305.16 790.48l-6.673-1.077M292.207 791.335l-2.833-2.258M298.88 792.413l-6.673-1.077M296.045 790.155l2.836 2.256M285.934 793.267l-2.839-2.257M292.603 794.346l-6.67-1.079M289.767 792.087l2.836 2.26M283.095 791.01l6.672 1.077M281.697 789.729l-2.839-2.26M288.366 790.805l-6.67-1.076M279.653 795.203l-2.836-2.26M286.323 796.28l-6.67-1.077M283.493 794.02l2.832 2.26M276.817 792.942l6.674 1.079M275.418 791.66l-2.837-2.26M282.09 792.737l-6.673-1.078M279.254 790.48l2.836 2.257M272.58 789.4l6.674 1.08M273.377 797.133l-2.839-2.256M280.047 798.211l-6.67-1.08M277.213 795.953l2.836 2.258M270.538 794.877l6.673 1.077M269.14 793.593l-2.838-2.258M275.813 794.671l-6.672-1.078M272.975 792.413l2.836 2.258M266.302 791.335l6.675 1.078M267.098 799.067l-2.833-2.258M273.773 800.146l-6.675-1.079M270.937 797.885l2.836 2.26M264.266 796.809l6.672 1.077M262.863 795.526l-2.838-2.257M269.533 796.603l-6.671-1.078M266.7 794.345l2.833 2.258M260.025 793.267l6.676 1.078M260.822 801l-2.839-2.258M267.493 802.078l-6.671-1.077M264.657 799.82l2.836 2.258M257.983 798.742l6.674 1.079M263.254 798.537l-6.672-1.078M260.42 796.278l2.834 2.259M254.546 802.934l-2.837-2.26M261.217 804.01l-6.672-1.076M258.38 801.753l2.837 2.257M251.707 800.674l6.674 1.079M250.306 799.393l-2.837-2.26M256.978 800.467l-6.672-1.076M254.142 798.211l2.836 2.256M248.266 804.867l-2.836-2.257M254.937 805.945l-6.672-1.079M252.103 803.687l2.834 2.258M245.429 802.609l6.674 1.078M244.03 801.326l-2.839-2.259M250.7 802.403l-6.671-1.077M247.866 800.145l2.833 2.258M241.191 799.067l6.676 1.078M362.97 778.942l-2.836-2.257M369.643 780.02l-6.673-1.078M366.807 777.76l2.837 2.26M365.404 776.48l-6.674-1.08M362.567 774.218l2.837 2.262M355.896 773.144l6.671 1.076M356.692 780.874l-2.837-2.257M363.364 781.956l-6.673-1.082M353.855 778.617l6.676 1.076M352.455 777.336l-2.836-2.26M356.288 776.153l2.84 2.259M349.62 775.076l6.668 1.078M350.416 782.809l-2.836-2.259M357.088 783.885l-6.673-1.077M354.252 781.628l2.838 2.257M347.58 780.549l6.671 1.079M346.176 779.268l-2.834-2.26M352.85 780.346l-6.674-1.078M350.012 778.086l2.836 2.26M343.342 777.009l6.672 1.077M344.136 784.742l-2.836-2.258M350.81 785.82l-6.674-1.078M347.975 783.56l2.835 2.26M341.302 782.482l6.674 1.078M339.898 781.2l-2.832-2.256M346.571 782.28l-6.673-1.08M343.732 780.02l2.838 2.26M337.066 778.942l6.668 1.079M337.862 786.674l-2.838-2.258M344.532 787.755l-6.672-1.08M341.7 785.492l2.832 2.262M335.024 784.414l6.676 1.078M333.62 783.133l-2.834-2.257M340.292 784.214l-6.673-1.081M337.458 781.953l2.836 2.26M330.786 780.874l6.672 1.079M331.583 788.606l-2.836-2.257M338.255 789.688l-6.673-1.082M335.42 787.428l2.836 2.26M328.746 786.348l6.672 1.078M327.342 785.068l-2.833-2.26M334.017 786.146l-6.675-1.078M331.178 783.885l2.839 2.26M324.509 782.808l6.669 1.078M325.303 790.542l-2.836-2.259M331.976 791.62l-6.673-1.08M329.142 789.36l2.834 2.26M322.469 788.282l6.674 1.077M321.065 787l-2.832-2.258M327.74 788.078 321.066 787M324.902 785.82l2.839 2.258M318.233 784.74l6.669 1.08M319.029 792.474l-2.838-2.259M325.7 793.551l-6.673-1.078M322.863 791.291l2.836 2.26M316.191 790.214l6.674 1.077M314.789 788.932l-2.835-2.258M321.462 790.013l-6.673-1.082M318.625 787.753l2.837 2.26M311.954 786.674l6.67 1.079M312.75 794.406l-2.833-2.257M319.423 795.487l-6.674-1.08M316.586 793.227l2.839 2.26M309.917 792.147l6.669 1.08M308.511 790.866l-2.833-2.26M315.186 791.945l-6.675-1.08M312.346 789.685l2.84 2.26M306.474 796.34l-2.836-2.26M313.146 797.42l-6.672-1.08M310.306 795.158l2.839 2.26M303.637 794.08l6.669 1.08M302.231 792.8l-2.834-2.258M308.905 793.878l-6.674-1.08M306.07 791.617l2.835 2.261M299.397 790.542l6.673 1.076M300.197 798.271l-2.838-2.257M306.867 799.351l-6.67-1.08M304.03 797.091l2.837 2.26M297.36 796.014l6.67 1.077M295.955 794.731l-2.834-2.257M302.629 795.813l-6.674-1.082M299.79 793.551l2.839 2.26M293.12 792.474l6.669 1.079M293.917 800.205l-2.838-2.258M300.587 801.286l-6.672-1.081M297.757 799.023l2.83 2.263M291.08 797.947l6.678 1.076M289.677 796.667l-2.832-2.26M296.353 797.745l-6.676-1.079M293.514 795.483l2.839 2.26M286.845 794.406l6.669 1.079M287.642 802.138l-2.839-2.257M294.311 803.218l-6.67-1.081M291.475 800.958l2.836 2.26M284.803 799.88l6.672 1.08M283.4 798.598l-2.837-2.257M290.074 799.678l-6.673-1.08M287.237 797.42l2.837 2.258M280.565 796.34l6.672 1.08M281.362 804.073l-2.833-2.259M288.037 805.15l-6.676-1.079M285.2 802.89l2.837 2.26M278.529 801.814l6.672 1.077M277.122 800.531l-2.833-2.258M283.797 801.609l-6.675-1.079M280.96 799.351l2.837 2.258M274.289 798.271l6.67 1.08M275.086 806.005l-2.84-2.259M281.755 807.086l-6.67-1.081M278.92 804.823l2.835 2.262M272.246 803.746l6.676 1.079M270.843 802.466l-2.834-2.26M277.517 803.543l-6.674-1.078M274.682 801.283l2.835 2.26M268.009 800.205l6.673 1.078M268.809 807.937l-2.836-2.258M275.482 809.018l-6.673-1.081M272.642 806.758l2.84 2.26M265.973 805.68l6.669 1.078M264.567 804.398l-2.833-2.26M271.242 805.477l-6.675-1.079M268.402 803.215l2.84 2.26M261.733 802.138l6.668 1.079M262.529 809.871l-2.836-2.258M269.2 810.95l-6.673-1.079M266.366 808.69l2.835 2.26M259.693 807.614l6.674 1.077M258.289 806.33l-2.832-2.257M264.965 807.409l-6.676-1.079M262.127 805.15l2.838 2.257M255.457 804.073l6.67 1.078M377.23 783.948l-2.834-2.26M383.906 785.024l-6.676-1.076M381.066 782.766l2.838 2.256M374.396 781.688l6.671 1.08M372.994 780.408l-2.836-2.26M379.664 781.486l-6.67-1.078M376.83 779.228l2.834 2.258M370.16 778.148l6.671 1.078M370.951 785.88l-2.836-2.258M377.624 786.958l-6.673-1.077M374.79 784.7l2.834 2.258M368.115 783.622l6.675 1.079M366.72 782.34l-2.84-2.26M373.388 783.42l-6.67-1.08M370.552 781.158l2.836 2.26M363.88 780.08l6.672 1.08M364.675 787.814l-2.835-2.26M371.351 788.89l-6.676-1.076M368.51 786.634l2.841 2.256M361.84 785.554l6.668 1.08M367.111 785.352l-6.672-1.08M364.278 783.093l2.833 2.259M357.603 782.014l6.675 1.079M358.396 789.747l-2.833-2.257M365.072 790.825l-6.676-1.079M362.234 788.566l2.838 2.259M355.563 787.489l6.67 1.077M354.163 786.206l-2.836-2.258M360.834 787.285l-6.67-1.079M357.998 785.026l2.836 2.259M351.327 783.948l6.67 1.078M352.12 791.68l-2.837-2.258M358.794 792.758l-6.674-1.077M355.96 790.5l2.834 2.257M349.284 789.422l6.675 1.079M347.882 788.14l-2.836-2.26M354.555 789.216l-6.673-1.077M351.722 786.958l2.833 2.258M345.046 785.88l6.676 1.08M345.844 793.614l-2.836-2.259M352.518 794.69l-6.674-1.077M349.678 792.431l2.84 2.258M343.008 791.354l6.67 1.079M341.606 790.073l-2.836-2.259M348.278 791.15l-6.672-1.078M345.44 788.891l2.838 2.26M338.77 787.814l6.67 1.079M339.564 795.547l-2.836-2.257M346.24 796.625l-6.676-1.079M343.402 794.365l2.837 2.26M336.728 793.289l6.674 1.076M335.327 792.006l-2.833-2.26M342.003 793.083l-6.676-1.077M339.164 790.825l2.84 2.257M332.494 789.746l6.67 1.08M333.287 797.48l-2.836-2.258M339.96 798.557l-6.674-1.078M337.123 796.3l2.837 2.257M330.451 795.22l6.672 1.08M329.053 793.938l-2.836-2.257M335.722 795.018l-6.67-1.08M332.89 792.758l2.832 2.26M326.215 791.68l6.675 1.078M327.009 799.413l-2.832-2.259M333.687 800.489l-6.678-1.078M330.846 798.231l2.841 2.258M324.177 797.154l6.669 1.079M322.775 795.871l-2.836-2.258M329.447 796.95l-6.672-1.079M326.609 794.69l2.838 2.26M319.94 793.614l6.669 1.077M320.731 801.347l-2.833-2.258M327.406 802.425l-6.675-1.078M324.567 800.165l2.839 2.258M317.898 799.089l6.67 1.077M316.495 797.806l-2.837-2.259M323.167 798.882l-6.672-1.077M320.333 796.623l2.834 2.26M313.658 795.547l6.675 1.078M314.457 803.278l-2.836-2.257M321.13 804.354l-6.673-1.076M318.29 802.098l2.84 2.255M311.62 801.02l6.67 1.08M310.22 799.738l-2.838-2.257M316.889 800.814l-6.67-1.077M314.054 798.557l2.835 2.257M307.382 797.48l6.672 1.078M308.175 805.214l-2.834-2.26M314.849 806.289l-6.674-1.076M312.015 804.031l2.834 2.258M305.34 802.953l6.675 1.078M303.94 801.671l-2.834-2.26M310.613 802.747l-6.675-1.077M307.778 800.489l2.836 2.258M301.106 799.411l6.672 1.08M301.9 807.146l-2.837-2.26M308.573 808.222l-6.672-1.077M305.735 805.963l2.838 2.26M299.063 804.885l6.672 1.078M297.663 803.603l-2.838-2.257M304.333 804.68l-6.67-1.078M301.498 802.425l2.835 2.257M294.826 801.346l6.673 1.079M295.62 809.08l-2.831-2.26M302.3 810.155l-6.68-1.077M299.46 807.897l2.84 2.258M292.789 806.82l6.67 1.078M291.387 805.537l-2.838-2.259M298.058 806.614l-6.67-1.077M295.223 804.354l2.835 2.26M288.549 803.278l6.674 1.076M289.345 811.013l-2.838-2.26M296.018 812.089l-6.673-1.076M293.18 809.829l2.838 2.258M286.506 808.753l6.673 1.077M285.106 807.471l-2.836-2.258M291.777 808.547l-6.671-1.077M288.945 806.289l2.832 2.258M282.27 805.211l6.675 1.078M283.066 812.945l-2.833-2.26M289.745 814.02l-6.678-1.075M286.902 811.762l2.843 2.257M280.234 810.685l6.668 1.078M278.83 809.403l-2.836-2.258M285.502 810.48l-6.672-1.078M282.666 808.223l2.836 2.258M275.994 807.145l6.672 1.08M276.786 814.878l-2.835-2.259M283.463 815.955l-6.676-1.077M280.626 813.694l2.837 2.26M273.953 812.62l6.673 1.075M272.551 811.337l-2.833-2.259M279.225 812.414l-6.674-1.077M276.39 810.155l2.835 2.258M269.72 809.078l6.671 1.079M391.494 788.953l-2.835-2.259M398.166 790.032l-6.672-1.08M395.328 787.774l2.838 2.258M388.659 786.694l6.67 1.08M387.254 785.413l-2.836-2.259M393.927 786.492l-6.673-1.08M391.09 784.232l2.837 2.26M384.419 783.154l6.672 1.079M385.215 790.885l-2.835-2.257M391.886 791.963l-6.671-1.078M389.052 789.705l2.834 2.257M382.38 788.628l6.672 1.078M380.978 787.346l-2.836-2.26M387.652 788.425l-6.673-1.079M384.812 786.165l2.84 2.259M378.142 785.086l6.669 1.08M378.938 792.82l-2.834-2.26M385.61 793.897l-6.672-1.078M382.774 791.638l2.836 2.259M376.106 790.56l6.67 1.08M374.7 789.28l-2.837-2.258M381.372 790.357l-6.673-1.077M378.535 788.098l2.837 2.258M371.863 787.02l6.672 1.08M372.66 794.753l-2.834-2.259M379.332 795.829l-6.673-1.078M376.496 793.57l2.836 2.259M369.826 792.494l6.67 1.077M368.423 791.211l-2.837-2.258M375.096 792.289l-6.673-1.077M372.26 790.032l2.836 2.257M365.586 788.953l6.673 1.078M366.383 796.685l-2.835-2.258M373.054 797.762l-6.67-1.079M370.22 795.503l2.834 2.26M363.548 794.427l6.672 1.078M362.142 793.146l-2.834-2.26M368.82 794.223l-6.678-1.078M365.98 791.963l2.84 2.26M359.308 790.885l6.672 1.078M360.107 798.618l-2.836-2.257M366.776 799.697l-6.669-1.079M363.94 797.437l2.836 2.258M357.271 796.36l6.67 1.078M355.866 795.078l-2.836-2.257M362.54 796.155l-6.674-1.078M359.702 793.898l2.837 2.257M353.03 792.82l6.672 1.08M353.826 800.551l-2.834-2.257M360.496 801.63l-6.67-1.079M357.664 799.37l2.832 2.26M350.992 798.294l6.672 1.076M349.587 797.013l-2.832-2.26M356.266 798.089l-6.678-1.076M353.423 795.829l2.841 2.258M346.755 794.753l6.668 1.077M347.55 802.483l-2.835-2.257M354.22 803.562l-6.67-1.079M351.387 801.303l2.833 2.26M344.715 800.227l6.672 1.078M343.311 798.945l-2.836-2.26M349.986 800.02l-6.674-1.075M347.15 797.762l2.834 2.257M340.475 796.685l6.675 1.078M341.272 804.42l-2.833-2.26M347.946 805.494l-6.674-1.076M345.11 803.237l2.836 2.257M338.44 802.158l6.67 1.079M337.032 800.878l-2.833-2.26M343.71 801.955l-6.678-1.077M340.868 799.698l2.842 2.257M334.2 798.618l6.668 1.08M334.994 806.351l-2.834-2.258M341.666 807.427l-6.672-1.077M338.831 805.169l2.835 2.258M332.16 804.093l6.671 1.077M330.757 802.811l-2.838-2.258M337.428 803.887l-6.671-1.077M334.592 801.63l2.836 2.257M327.92 800.551l6.672 1.08M328.72 808.283l-2.835-2.26M335.387 809.36l-6.668-1.077M332.554 807.102l2.833 2.257M325.885 806.023l6.669 1.08M324.48 804.745l-2.837-2.26M331.151 805.82l-6.673-1.077M328.314 803.563l2.837 2.258M321.642 802.483l6.672 1.08M322.44 810.215l-2.835-2.257M329.11 811.294l-6.67-1.08M326.28 809.035l2.83 2.26M319.605 807.958l6.674 1.077M318.2 806.677l-2.834-2.26M324.877 807.755l-6.678-1.078M322.04 805.494l2.838 2.26M315.366 804.417l6.672 1.078M316.163 812.15l-2.836-2.259M322.833 813.229l-6.67-1.079M319.998 810.969l2.835 2.26M313.327 809.891l6.67 1.078M311.923 808.609l-2.834-2.258M318.6 809.687l-6.675-1.078M315.757 807.429l2.84 2.257M309.089 806.351l6.668 1.08M309.885 814.083l-2.834-2.257M316.557 815.16l-6.672-1.077M313.723 812.902l2.834 2.257M307.053 811.825l6.672 1.077M305.647 810.543l-2.836-2.258M312.32 811.62l-6.673-1.078M309.483 809.36l2.838 2.26M302.813 808.283l6.672 1.08M303.607 816.017l-2.836-2.258M310.277 817.094l-6.67-1.079M307.442 814.835l2.835 2.26M300.773 813.76l6.67 1.077M299.366 812.478l-2.835-2.261M306.04 813.554l-6.674-1.077M303.205 811.294l2.836 2.26M296.533 810.215l6.673 1.08M297.33 817.949l-2.833-2.259M304.002 819.026l-6.672-1.077M301.166 816.767l2.836 2.258M294.497 815.69l6.669 1.079M293.09 814.409l-2.835-2.258M299.766 815.487l-6.676-1.078M296.926 813.229l2.84 2.257M290.255 812.15l6.67 1.079M291.053 819.882l-2.836-2.257M297.72 820.96l-6.669-1.078M294.889 818.702l2.832 2.259M288.215 817.625l6.674 1.077M286.813 816.343l-2.835-2.26M293.487 817.42l-6.676-1.077M290.65 815.16l2.837 2.26M283.977 814.08l6.673 1.08M405.756 793.958l-2.836-2.257M409.592 792.775l2.836 2.262M402.92 791.7l6.672 1.077M401.518 790.42l-2.836-2.26M408.191 791.494l-6.675-1.076M405.354 789.237l2.838 2.257M398.682 788.158l6.672 1.079M399.479 795.894l-2.837-2.259M403.319 794.71l2.83 2.259M396.642 793.634l6.676 1.077M395.242 792.351l-2.838-2.258M401.912 793.429l-6.672-1.079M399.076 791.169l2.838 2.26M392.404 790.093l6.672 1.077M393.2 797.825l-2.837-2.258M399.874 798.903l-6.674-1.078M397.036 796.646l2.838 2.257M390.363 795.567l6.673 1.08M388.962 794.283l-2.835-2.257M395.636 795.36l-6.676-1.078M392.799 793.102l2.837 2.259M386.127 792.026l6.673 1.077M386.923 799.76l-2.836-2.26M393.595 800.837l-6.672-1.079M390.759 798.578l2.836 2.259M384.087 797.5l6.672 1.078M382.686 796.215l-2.835-2.257M389.359 797.294l-6.673-1.08M386.519 795.037l2.839 2.258M379.851 793.958l6.67 1.079M380.646 801.69l-2.838-2.256M387.319 802.769l-6.672-1.08M384.483 800.51l2.835 2.259M377.808 799.433l6.675 1.077M376.407 798.15l-2.836-2.259M383.079 799.229l-6.673-1.079M380.246 796.969l2.834 2.26M373.571 795.891l6.675 1.078M374.37 803.625l-2.838-2.258M381.04 804.703l-6.67-1.078M378.206 802.442l2.834 2.26M371.532 801.367l6.674 1.076M370.128 800.083l-2.834-2.257M376.803 801.16l-6.676-1.078M373.964 798.902l2.84 2.259M367.292 797.825l6.671 1.077M368.09 805.557l-2.839-2.258M374.762 806.635l-6.672-1.078M371.927 804.377l2.835 2.258M365.252 803.3l6.676 1.077M363.851 802.018l-2.833-2.26M370.528 803.094l-6.677-1.076M367.688 800.835l2.84 2.258M361.018 799.758l6.67 1.079M361.815 807.49l-2.84-2.259M368.484 808.569l-6.669-1.079M365.65 806.31l2.834 2.259M358.975 805.231l6.675 1.08M357.572 803.95l-2.834-2.26M364.25 805.027l-6.676-1.077M361.412 802.767l2.838 2.26M354.74 801.69l6.672 1.079M355.536 809.425l-2.834-2.26M362.21 810.5l-6.674-1.077M359.372 808.24l2.838 2.26M352.702 807.163l6.67 1.08M351.298 805.882l-2.835-2.257M357.972 806.96l-6.676-1.078M355.132 804.702l2.84 2.259M348.463 803.625l6.67 1.077M349.256 811.357l-2.836-2.258M355.928 812.435l-6.672-1.08M353.094 810.177l2.834 2.258M346.42 809.098l6.674 1.079M345.018 807.815l-2.836-2.258M351.692 808.894l-6.674-1.079M348.855 806.634l2.837 2.26M342.182 805.557l6.673 1.077M342.983 813.289l-2.839-2.258M349.654 814.369l-6.67-1.08M346.816 812.109l2.838 2.258M340.146 811.031l6.672 1.08M338.743 809.747l-2.837-2.257M345.416 810.827l-6.673-1.078M342.576 808.569l2.84 2.257M335.906 807.49l6.67 1.079M336.703 815.223l-2.837-2.26M343.372 816.302l-6.669-1.079M340.542 814.04l2.83 2.26M333.866 812.963l6.676 1.08M332.463 811.68l-2.833-2.257M339.14 812.76l-6.677-1.078M336.302 810.5l2.838 2.26M329.63 809.425l6.672 1.077M330.427 817.155l-2.84-2.257M337.095 818.235l-6.668-1.08M334.26 815.974l2.835 2.26M327.587 814.898l6.673 1.077M326.186 813.615l-2.836-2.258M332.862 814.693l-6.675-1.078M330.022 812.434l2.84 2.257M323.351 811.357l6.67 1.078M324.147 819.09l-2.833-2.26M330.82 820.167l-6.673-1.078M327.986 817.907l2.833 2.26M321.314 816.829l6.672 1.08M319.91 815.547l-2.836-2.258M326.583 816.626l-6.673-1.079M323.746 814.367l2.837 2.26M317.074 813.289l6.672 1.078M317.87 821.02l-2.837-2.255M324.54 822.1l-6.67-1.08M321.706 819.84l2.833 2.26M315.033 818.765l6.673 1.077M313.631 817.48l-2.837-2.257M320.303 818.56l-6.673-1.078M317.469 816.3l2.836 2.26M310.794 815.223l6.675 1.078M311.594 822.955l-2.835-2.258M318.267 824.034l-6.673-1.079M315.43 821.774l2.837 2.26M308.76 820.697l6.67 1.077M307.354 819.414l-2.835-2.257M314.029 820.491l-6.675-1.078M311.189 818.234l2.84 2.257M304.52 817.155l6.669 1.08M305.314 824.889l-2.836-2.259M311.986 825.967l-6.672-1.078M309.153 823.707l2.833 2.26M302.48 822.63l6.674 1.079M301.075 821.347l-2.833-2.26M307.75 822.425l-6.675-1.076M304.913 820.166l2.836 2.257M298.242 819.089l6.672 1.078M404.626 800.573l6.672 1.078M403.224 799.289l-2.836-2.258M400.388 797.031l6.675 1.076M401.184 804.765l-2.834-2.26M405.02 803.583l2.836 2.258M398.35 802.505l6.67 1.078M396.948 801.223l-2.837-2.26M403.619 802.3l-6.67-1.077M400.782 800.04l2.837 2.26M394.111 798.963l6.67 1.08M394.908 806.698l-2.837-2.26M401.579 807.774l-6.67-1.076M398.746 805.515l2.832 2.258M392.071 804.437l6.676 1.078M390.668 803.155l-2.836-2.258M397.34 804.235l-6.672-1.08M394.506 801.974l2.833 2.261M387.832 800.897l6.675 1.077M392.466 807.45l2.837 2.257M385.795 806.37l6.67 1.08M384.391 805.09l-2.836-2.26M391.063 806.167l-6.672-1.078M388.226 803.907l2.836 2.26M381.555 802.829l6.672 1.08M378.112 807.02l-2.833-2.257M384.786 808.1l-6.675-1.08M381.95 805.84l2.837 2.26M375.28 804.762l6.67 1.079M375.674 807.774l2.833 2.261M369 806.697l6.674 1.077M369.796 814.429l-2.833-2.259M366.963 812.17l6.67 1.079M365.56 810.887l-2.837-2.258M369.395 809.707l2.837 2.26M362.724 808.627l6.671 1.08M363.518 816.363l-2.835-2.258M370.191 817.44l-6.673-1.077M367.356 815.182l2.835 2.257M360.683 814.103l6.673 1.08M359.28 812.822l-2.836-2.26M365.952 813.9l-6.673-1.078M363.118 811.64l2.834 2.26M356.444 810.562l6.674 1.079M357.244 818.294l-2.837-2.259M363.915 819.374l-6.67-1.08M361.078 817.114l2.837 2.26M354.407 816.037l6.67 1.078M353.004 814.755l-2.838-2.26M359.675 815.834l-6.67-1.08M356.84 813.574l2.835 2.26M350.166 812.494l6.673 1.08M354.803 819.046l2.832 2.26M348.128 817.97l6.676 1.077M346.724 816.687l-2.832-2.258M353.4 817.766l-6.676-1.08M350.563 815.505l2.836 2.261M343.892 814.427l6.671 1.078M341.851 819.903l6.672 1.08M340.448 818.622l-2.834-2.26M347.12 819.7l-6.672-1.078M344.284 817.44l2.835 2.26M337.612 816.36l6.671 1.08M335.575 821.835l6.672 1.08M334.171 820.554l-2.836-2.26M340.843 821.633l-6.672-1.079M338.008 819.371l2.835 2.26M331.335 818.294l6.673 1.079M327.893 822.487l-2.836-2.258M331.73 821.305l2.834 2.261M325.057 820.227l6.673 1.078M325.857 827.96l-2.836-2.258M323.02 825.702l6.67 1.08M321.615 824.422l-2.834-2.261M325.451 823.24l2.838 2.258M318.78 822.16l6.671 1.08M319.575 829.895l-2.834-2.26M326.247 830.974l-6.673-1.079M323.413 828.713l2.834 2.26M316.74 827.635l6.674 1.08M315.337 826.354l-2.834-2.26M322.01 827.431l-6.673-1.078M319.175 825.171l2.835 2.26M312.503 824.094l6.672 1.079M220.242 797.835l-6.672-1.078M227.83 801.762l-2.836-2.259M234.503 802.838l-6.673-1.076M231.666 800.58l2.837 2.258M224.994 799.503l6.672 1.078M223.593 798.22l-2.836-2.258M230.263 799.3l-6.67-1.08M221.551 803.694l-2.836-2.257M228.225 804.774l-6.674-1.079M225.389 802.514l2.836 2.259M223.989 801.231l-6.672-1.078M221.153 798.974l2.836 2.257M221.949 806.705l-6.675-1.079M196.838 814.437l-6.674-1.078M183.888 815.294l-2.838-2.257M190.56 816.37l-6.674-1.077M177.609 817.227l-2.835-2.258M184.284 818.303l-6.675-1.076M181.445 816.045l2.839 2.257M174.774 814.969l6.67 1.077M180.045 814.762l-6.673-1.077M171.332 819.16l-2.835-2.257M178.005 820.237l-6.673-1.078M175.166 817.98l2.839 2.257M173.765 816.698l-6.672-1.079M170.933 814.437l2.833 2.26M171.728 822.17l-6.674-1.077M242.093 806.767l-2.839-2.257M248.763 807.846l-6.67-1.079M245.927 805.587l2.836 2.26M239.254 804.51l6.673 1.077M237.855 803.227l-2.838-2.257M244.529 804.305l-6.674-1.079M241.691 802.046l2.838 2.257M235.017 800.969l6.674 1.078M235.814 808.702l-2.839-2.259M242.483 809.778l-6.669-1.077M239.65 807.52l2.833 2.258M232.975 806.442l6.675 1.079M231.58 805.158l-2.84-2.257M238.25 806.237l-6.67-1.079M235.413 803.98l2.836 2.257M228.74 802.9l6.674 1.08M229.535 810.634l-2.833-2.259M236.209 811.71l-6.674-1.077M233.374 809.454l2.835 2.257M226.702 808.374l6.672 1.079M225.302 807.094l-2.84-2.259M231.97 808.17l-6.67-1.077M229.137 805.911l2.833 2.26M222.462 804.834l6.676 1.077M223.258 812.569l-2.835-2.259M229.933 813.645l-6.675-1.076M227.095 811.385l2.838 2.258M220.423 810.31l6.672 1.076M225.695 810.103l-6.672-1.078M222.858 807.845l2.836 2.258M216.98 814.5l-2.835-2.258M223.653 815.578l-6.672-1.077M220.818 813.32l2.835 2.258M210.706 816.434l-2.839-2.26M217.375 817.51l-6.67-1.076M214.54 815.253l2.835 2.257M204.426 818.369l-2.834-2.262M211.097 819.442l-6.672-1.075M208.262 817.186l2.835 2.256M201.59 816.107l6.672 1.08M200.19 814.825l-2.837-2.258M206.862 815.902l-6.672-1.077M198.15 820.3l-2.838-2.258M204.82 821.377l-6.67-1.078M201.986 819.12l2.835 2.258M195.312 818.04l6.673 1.08M193.912 816.76l-2.838-2.26M200.583 817.835l-6.671-1.077M197.75 815.578l2.833 2.257M191.074 814.5l6.676 1.078M191.87 822.234l-2.834-2.26M198.546 823.31l-6.674-1.076M195.709 821.05l2.836 2.259M189.036 819.974l6.673 1.077M187.636 818.69l-2.836-2.257M194.309 819.767l-6.675-1.078M191.47 817.51l2.839 2.257M184.8 816.431l6.672 1.08M185.594 824.166l-2.837-2.257M192.266 825.24l-6.672-1.075M189.429 822.986l2.837 2.256M182.757 821.907l6.672 1.078M181.357 820.626l-2.839-2.259M188.029 821.703l-6.672-1.077M185.196 819.442l2.833 2.26M178.518 818.367l6.678 1.076M179.316 826.098l-2.835-2.257M185.989 827.177l-6.673-1.079M183.152 824.92l2.837 2.257M176.48 823.84l6.672 1.08M175.08 822.558l-2.838-2.259M181.753 823.635l-6.672-1.077M178.914 821.377l2.838 2.257M172.244 820.3l6.672 1.078M173.04 828.034l-2.84-2.26M179.708 829.109l-6.67-1.076M176.876 826.851l2.832 2.258M170.2 825.774l6.676 1.079M175.476 825.567l-6.675-1.076M172.64 823.31l2.837 2.257M173.433 831.043l-6.67-1.077M170.596 828.783l2.837 2.26M169.196 827.502l-6.67-1.079M256.36 811.774l-2.84-2.259M263.03 812.851l-6.67-1.078M260.191 810.591l2.838 2.26M253.52 809.514l6.671 1.077M252.114 808.231l-2.833-2.257M258.789 809.313l-6.675-1.082M255.95 807.05l2.839 2.261M249.28 805.974l6.669 1.077M250.078 813.705l-2.839-2.258M256.747 814.787l-6.67-1.08M253.917 812.523l2.832 2.263M247.24 811.447l6.677 1.076M245.84 810.165l-2.834-2.259M252.514 811.245l-6.675-1.08M249.674 808.983l2.84 2.26M243.006 807.906l6.668 1.079M243.802 815.64l-2.837-2.26M250.474 816.717l-6.672-1.078M247.637 814.458l2.836 2.259M240.965 813.38l6.673 1.078M239.56 812.098l-2.835-2.257M246.234 813.177l-6.673-1.079M243.398 810.917l2.836 2.26M236.726 809.84l6.672 1.077M237.52 817.573l-2.831-2.26M244.197 818.65l-6.676-1.079M241.36 816.39l2.837 2.26M234.69 815.313l6.67 1.078M233.283 814.031l-2.833-2.257M239.957 815.109l-6.674-1.079M237.118 812.851l2.839 2.258M230.45 811.774l6.668 1.079M231.246 819.505l-2.839-2.26M237.918 820.585l-6.67-1.08M235.083 818.323l2.835 2.26M228.409 817.245l6.674 1.08M227.003 815.966l-2.833-2.26M233.678 817.043l-6.675-1.078M230.843 814.783l2.835 2.26M224.17 813.705l6.673 1.078M224.969 821.437l-2.838-2.258M231.64 822.518l-6.673-1.081M228.803 820.258l2.836 2.26M222.131 819.18l6.674 1.078M220.729 817.898l-2.836-2.257M227.4 818.977l-6.673-1.079M224.562 816.715l2.839 2.26M217.893 815.64l6.67 1.077M218.69 823.371l-2.836-2.26M225.363 824.45l-6.673-1.079M222.529 822.19l2.834 2.26M215.853 821.111l6.674 1.08M214.449 819.831l-2.83-2.258M221.126 820.907l-6.677-1.077M218.287 818.649l2.84 2.258M211.618 817.573l6.67 1.077M212.413 825.305l-2.839-2.258M219.085 826.382l-6.67-1.079M216.25 824.123l2.835 2.26M209.575 823.046l6.675 1.077M208.171 821.765l-2.832-2.259M214.845 822.843l-6.674-1.08M212.01 820.582l2.835 2.261M205.34 819.505l6.67 1.077M206.135 827.238l-2.834-2.259M212.809 828.315l-6.675-1.078M209.973 826.055l2.836 2.26M203.3 824.98l6.674 1.077M201.895 823.698l-2.833-2.26M208.57 824.775l-6.674-1.078M205.73 822.515l2.84 2.26M199.062 821.437l6.668 1.078M199.857 829.17l-2.836-2.259M206.53 830.25l-6.673-1.08M203.693 827.989l2.837 2.26M197.02 826.911l6.673 1.08M195.616 825.63l-2.834-2.257M202.29 826.71l-6.674-1.081M199.453 824.447l2.836 2.263M192.782 823.371l6.672 1.076M193.58 831.103l-2.836-2.257M200.253 832.182l-6.673-1.079M197.417 829.923l2.837 2.26M190.745 828.846l6.672 1.077M189.34 827.562l-2.834-2.257M196.013 828.64l-6.673-1.08M193.173 826.382l2.84 2.259M186.506 825.305l6.668 1.078M187.302 833.037l-2.837-2.259M193.973 834.117l-6.67-1.08M191.14 831.854l2.833 2.263M184.465 830.778l6.676 1.076M183.062 829.495l-2.832-2.257M189.738 830.574l-6.676-1.08M186.898 828.315l2.84 2.26M180.23 827.238l6.668 1.077M181.026 834.969l-2.837-2.258M187.697 836.049l-6.672-1.082M184.858 833.789l2.839 2.26M178.189 832.71l6.67 1.079M176.785 831.429l-2.836-2.258M183.46 832.507l-6.675-1.078M180.62 830.249l2.84 2.258M173.949 829.171l6.67 1.078M174.746 836.903l-2.836-2.26M181.42 837.982l-6.674-1.079M178.584 835.72l2.838 2.26M171.912 834.643l6.672 1.079M170.509 833.36l-2.836-2.257M177.18 834.44l-6.671-1.078M174.344 832.18l2.837 2.26M175.14 839.915l-6.67-1.08M172.304 837.654l2.837 2.26M170.902 836.374l-6.673-1.079M270.617 816.778l-2.836-2.257M277.291 817.854l-6.674-1.076M274.451 815.598l2.84 2.256M267.78 814.52l6.671 1.078M266.378 813.24l-2.837-2.26M273.049 814.315l-6.671-1.076M270.214 812.057l2.835 2.257M263.54 810.98l6.674 1.078M264.34 818.711l-2.84-2.258M271.01 819.79l-6.67-1.079M268.173 817.531l2.836 2.26M261.5 816.454l6.674 1.079M260.103 815.171l-2.836-2.26M266.774 816.249l-6.67-1.078M263.937 813.99l2.837 2.257M257.267 812.911l6.67 1.08M258.06 820.646l-2.834-2.26M264.733 821.722l-6.675-1.077M261.897 819.463l2.837 2.26M255.226 818.385l6.67 1.078M253.823 817.103l-2.837-2.257M260.495 818.182l-6.672-1.079M257.66 815.923l2.835 2.26M250.986 814.846l6.675 1.077M251.78 822.578l-2.831-2.259M258.458 823.654l-6.677-1.077M255.618 821.398l2.84 2.256M248.949 820.32l6.669 1.08M247.547 819.037l-2.837-2.259M254.218 820.114l-6.67-1.077M251.382 817.857l2.836 2.257M244.71 816.778l6.672 1.079M245.505 824.51l-2.835-2.257M252.18 825.59l-6.675-1.08M249.343 823.33l2.836 2.259M242.67 822.253l6.673 1.078M241.267 820.97l-2.836-2.259M247.938 822.047l-6.67-1.078M245.106 819.789l2.832 2.258M238.431 818.71l6.675 1.079M239.226 826.442l-2.836-2.257M245.9 827.52l-6.673-1.078M243.063 825.262l2.838 2.257M236.391 824.185l6.672 1.078M234.991 822.903l-2.838-2.257M241.662 823.982l-6.67-1.079M238.826 821.723l2.836 2.258M232.153 820.646l6.673 1.079M232.949 828.377l-2.835-2.258M239.625 829.455l-6.676-1.078M236.786 827.197l2.839 2.258M230.114 826.12l6.672 1.078M228.713 824.837l-2.836-2.259M235.387 825.914l-6.674-1.077M232.551 823.655l2.836 2.258M225.877 822.578l6.674 1.079M226.673 830.31l-2.838-2.257M233.346 831.389l-6.673-1.08M230.509 829.13l2.837 2.259M223.835 828.051l6.674 1.08M222.435 826.77l-2.834-2.26M229.107 827.847l-6.672-1.077M226.274 825.587l2.833 2.26M219.6 824.51l6.674 1.079M220.394 832.245l-2.833-2.26M227.07 833.32l-6.676-1.075M224.233 831.062l2.837 2.257M217.56 829.983l6.671 1.08M216.16 828.703l-2.837-2.26M222.831 829.78l-6.673-1.078M219.994 827.52l2.837 2.26M213.322 826.442l6.672 1.079M214.118 834.177l-2.836-2.258M220.791 835.254l-6.673-1.079M217.951 832.994l2.84 2.26M211.282 831.92l6.67 1.075M209.88 830.637l-2.837-2.259M216.551 831.714l-6.672-1.079M213.717 829.454l2.834 2.26M207.043 828.377l6.674 1.077M207.84 836.109l-2.837-2.258M214.515 837.187l-6.674-1.078M211.675 834.929l2.84 2.257M205.005 833.851l6.67 1.08M203.603 832.569l-2.835-2.259M210.277 833.649l-6.674-1.08M207.44 831.389l2.838 2.258M200.768 830.31l6.67 1.08M201.56 838.043l-2.836-2.26M208.234 839.12l-6.673-1.075M205.4 836.862l2.834 2.257M198.725 835.783l6.674 1.079M197.325 834.502l-2.833-2.26M203.998 835.578l-6.673-1.076M201.163 833.32l2.835 2.258M194.493 832.24l6.672 1.08M195.285 839.977l-2.835-2.26M201.958 841.051l-6.673-1.076M199.12 838.797l2.838 2.254M192.45 837.715l6.67 1.082M191.049 836.435l-2.839-2.258M197.72 837.513l-6.67-1.078M194.882 835.254l2.836 2.257M188.21 834.177l6.672 1.078M189.006 841.907l-2.833-2.257M195.682 842.987l-6.676-1.078M192.844 840.729l2.838 2.257M186.173 839.65l6.67 1.079M184.773 838.369l-2.837-2.259M191.444 839.445l-6.672-1.078M188.608 837.187l2.836 2.258M181.934 836.109l6.674 1.078M182.73 843.843l-2.836-2.26M189.404 844.92l-6.674-1.077M186.564 842.66l2.84 2.258M179.893 841.583l6.67 1.079M178.493 840.302l-2.837-2.257M185.162 841.38l-6.67-1.08M182.33 839.12l2.832 2.26M175.656 838.043l6.674 1.076M176.452 845.775l-2.835-2.258M183.125 846.853l-6.673-1.078M180.288 844.594l2.837 2.257M173.617 843.517l6.67 1.078M172.214 842.235l-2.834-2.26M178.888 843.313l-6.674-1.078M176.053 841.054l2.836 2.257M169.38 839.974l6.672 1.08M170.173 847.707l-2.837-2.257M176.846 848.787l-6.672-1.078M174.012 846.529l2.834 2.257M172.609 845.245l-6.672-1.078M169.774 842.987l2.835 2.258M284.88 821.783l-2.835-2.257M291.549 822.862l-6.671-1.079M288.714 820.603l2.835 2.258M282.043 819.526l6.67 1.079M280.637 818.245l-2.834-2.26M287.313 819.32l-6.676-1.077M284.474 817.062l2.84 2.259M277.803 815.983l6.67 1.08M278.6 823.715l-2.835-2.257M285.27 824.795l-6.67-1.08M282.44 822.537l2.831 2.258M275.765 821.458l6.673 1.079M274.363 820.177l-2.837-2.26M281.037 821.254l-6.674-1.077M278.197 818.994l2.84 2.259M271.526 817.917l6.67 1.078M272.323 825.649l-2.834-2.258M278.995 826.729l-6.672-1.08M276.16 824.467l2.835 2.26M269.489 823.391l6.67 1.078M268.086 822.109l-2.836-2.259M274.76 823.187l-6.674-1.078M271.92 820.929l2.838 2.257M265.25 819.85l6.672 1.08M266.043 827.583l-2.83-2.258M272.717 828.66l-6.674-1.078M269.88 826.4l2.837 2.26M263.213 825.323l6.668 1.078M261.807 824.043l-2.836-2.26M268.482 825.12l-6.676-1.077M265.642 822.862l2.84 2.259M258.97 821.783l6.672 1.08M259.767 829.515l-2.834-2.257M266.44 830.594l-6.673-1.08M263.605 828.334l2.834 2.261M256.933 827.258l6.672 1.076M255.529 825.977l-2.836-2.26M262.2 827.054l-6.673-1.079M259.366 824.794l2.835 2.26M252.693 823.715l6.674 1.08M253.49 831.449l-2.833-2.259M260.16 832.529l-6.67-1.08M257.326 830.267l2.835 2.26M250.657 829.19l6.669 1.079M249.253 827.907l-2.836-2.258M255.925 828.987l-6.674-1.078M253.086 826.729l2.84 2.257M246.417 825.649l6.669 1.08M247.213 833.382l-2.834-2.257M253.883 834.46l-6.672-1.078M251.05 832.2l2.833 2.26M244.378 831.125l6.672 1.076M242.973 829.843l-2.834-2.26M249.649 830.92l-6.676-1.077M246.809 828.66l2.84 2.258M240.14 827.582l6.67 1.08M240.935 835.315l-2.836-2.256M247.606 836.393l-6.67-1.079M244.773 834.133l2.834 2.26M238.1 833.058l6.671 1.075M236.697 831.775l-2.838-2.26M243.37 832.854l-6.673-1.079M240.533 830.593l2.837 2.26M233.86 829.515l6.673 1.08M234.657 837.249l-2.832-2.258M241.33 838.325l-6.673-1.078M238.494 836.067l2.836 2.258M231.826 834.99l6.67 1.077M230.42 833.707l-2.834-2.26M237.094 834.787l-6.676-1.078M234.254 832.529l2.84 2.257M227.586 831.447l6.67 1.082M228.38 839.182l-2.835-2.257M235.05 840.26l-6.67-1.08M232.214 838l2.836 2.26M225.546 836.925l6.67 1.076M224.14 835.643l-2.835-2.26M230.813 836.718l-6.674-1.076M227.978 834.46l2.835 2.258M221.303 833.38l6.675 1.08M222.102 841.114l-2.835-2.26M228.773 842.193l-6.67-1.079M225.938 839.934l2.835 2.259M219.267 838.854l6.671 1.08M217.863 837.574l-2.834-2.26M224.538 838.653l-6.675-1.078M221.697 836.394l2.841 2.257M215.03 835.315l6.668 1.08M215.823 843.047l-2.834-2.257M222.494 844.126l-6.67-1.079M219.662 841.867l2.832 2.259M212.989 840.79l6.673 1.077M211.586 839.507l-2.833-2.26M218.26 840.586l-6.675-1.079M215.423 838.326l2.838 2.259M208.753 837.247l6.672 1.08M209.549 844.982l-2.836-2.259M216.22 846.058l-6.671-1.077M213.383 843.8l2.836 2.258M206.713 842.722l6.67 1.077M205.306 841.44l-2.835-2.258M211.98 842.518l-6.674-1.079M209.142 840.26l2.839 2.257M202.473 839.18l6.67 1.08M203.269 846.914l-2.832-2.257M209.942 847.991l-6.673-1.078M207.106 845.733l2.836 2.258M200.437 844.655l6.67 1.078M199.033 843.374l-2.837-2.26M205.706 844.451l-6.672-1.077M202.866 842.193l2.839 2.258M196.197 841.114l6.67 1.079M196.992 848.846l-2.835-2.256M203.66 849.925l-6.668-1.079M200.827 847.667l2.834 2.258M194.157 846.59l6.67 1.077M192.753 845.307l-2.836-2.26M199.426 846.383l-6.673-1.077M196.59 844.125l2.835 2.258M189.917 843.046l6.675 1.079M190.714 850.78l-2.833-2.26M197.386 851.858l-6.672-1.077M194.55 849.598l2.836 2.259M187.88 848.52l6.67 1.08M186.476 847.24l-2.836-2.258M193.15 848.317l-6.674-1.079M190.312 846.058l2.838 2.259M183.64 844.982l6.672 1.077M188.274 851.531l2.832 2.26M181.6 850.455l6.674 1.076M180.197 849.174l-2.832-2.263M186.873 850.25l-6.676-1.076M184.033 847.991l2.84 2.258M177.365 846.911l6.668 1.082M299.14 826.79l-2.837-2.259M305.814 827.867l-6.673-1.077M302.977 825.609l2.837 2.257M296.303 824.531l6.674 1.08M294.902 823.249l-2.836-2.258M301.575 824.326l-6.673-1.079M298.737 822.067l2.838 2.26M292.066 820.99l6.67 1.077M292.863 828.722l-2.838-2.256M299.533 829.8l-6.67-1.078M296.702 827.542l2.83 2.257M290.026 826.466l6.677 1.076M288.626 825.18l-2.835-2.257M295.3 826.26l-6.674-1.08M292.46 824l2.84 2.26M285.791 822.923l6.67 1.078M286.586 830.655l-2.835-2.257M293.258 831.734l-6.672-1.079M290.422 829.474l2.836 2.26M283.753 828.398l6.67 1.076M282.346 827.114l-2.836-2.257M289.02 828.193l-6.673-1.079M286.186 825.931l2.835 2.26M279.511 824.857l6.675 1.076M280.307 832.59l-2.834-2.259M286.98 833.667l-6.673-1.077M284.143 831.409l2.838 2.257M277.474 830.33l6.67 1.079M276.071 829.047l-2.837-2.257M282.745 830.126l-6.674-1.079M279.905 827.867l2.84 2.26M273.234 826.79l6.67 1.077M274.03 834.52l-2.836-2.255M280.702 835.6l-6.672-1.08M277.869 833.34l2.833 2.26M271.195 832.265l6.675 1.077M269.791 830.982l-2.836-2.257M276.466 832.06l-6.675-1.08M273.63 829.8l2.836 2.26M266.955 828.723l6.675 1.076M267.755 836.455l-2.837-2.257M274.426 837.534l-6.67-1.079M271.59 835.273l2.835 2.26M264.92 834.198l6.671 1.076M263.515 832.914l-2.837-2.257M270.186 833.991l-6.672-1.078M267.35 831.734l2.837 2.257M260.678 830.655l6.672 1.08M261.474 838.389l-2.835-2.259M268.147 839.466l-6.673-1.077M265.313 837.206l2.834 2.259M258.64 836.13l6.673 1.077M257.235 834.847l-2.832-2.258M263.913 835.925l-6.679-1.078M261.074 833.667l2.84 2.258M254.403 832.587l6.671 1.08M255.2 840.32l-2.84-2.257M259.034 839.14l2.835 2.26M252.362 838.063l6.673 1.078M250.96 836.78l-2.835-2.26M257.633 837.858l-6.674-1.077M254.797 835.598l2.836 2.259M248.125 834.52l6.672 1.08M248.92 842.254l-2.835-2.26M252.757 841.073l2.837 2.257M246.086 839.994l6.672 1.079M244.683 838.713l-2.836-2.259M251.357 839.791l-6.674-1.078M248.517 837.533l2.84 2.258M241.847 836.454l6.67 1.079M242.643 844.187l-2.837-2.257M249.314 845.265l-6.67-1.079M246.48 843.007l2.834 2.258M239.807 841.929l6.674 1.078M238.402 840.647l-2.835-2.257M245.075 841.725l-6.673-1.079M242.24 839.466l2.834 2.259M235.567 838.389l6.674 1.077M236.366 846.12l-2.836-2.258M243.04 847.2l-6.673-1.08M240.2 844.938l2.838 2.261M233.53 843.862l6.67 1.077M232.127 842.578l-2.836-2.257M238.802 843.657l-6.675-1.08M235.962 841.398l2.84 2.259M229.291 840.32l6.671 1.08M230.087 848.054l-2.836-2.257M236.76 849.133l-6.671-1.079M233.923 846.871l2.835 2.26M227.253 845.797l6.672 1.076M225.847 844.513l-2.832-2.259M232.525 845.591l-6.679-1.078M229.686 843.33l2.84 2.26M223.015 842.254l6.671 1.077M223.81 849.987l-2.835-2.257M230.482 851.065l-6.672-1.079M227.646 848.806l2.836 2.259M220.975 847.729l6.671 1.077M219.571 846.445l-2.834-2.258M226.245 847.523l-6.674-1.078M223.407 845.265l2.838 2.257M216.737 844.187l6.67 1.079M217.533 851.92l-2.835-2.258M221.37 850.738l2.835 2.259M214.697 849.66l6.673 1.078M213.297 848.377l-2.839-2.258M219.969 849.457l-6.672-1.08M217.131 847.198l2.838 2.259M210.458 846.12l6.673 1.08M208.42 851.595l6.671 1.076M207.017 850.313l-2.838-2.258M213.69 851.39l-6.673-1.079M210.853 849.13l2.836 2.26M204.18 848.054l6.674 1.076M200.738 852.245l-2.834-2.258M204.575 851.065l2.84 2.258M197.904 849.987l6.671 1.079M191.626 851.92l6.67 1.078M313.403 831.797l-2.836-2.26M320.075 832.873l-6.672-1.078M317.24 830.614l2.835 2.259M310.567 829.537l6.672 1.078M309.163 828.254l-2.836-2.26M315.835 829.334l-6.672-1.079M313 827.073l2.835 2.26M306.327 825.994l6.672 1.079M307.125 833.729l-2.836-2.259M313.797 834.807l-6.672-1.078M310.963 832.547l2.834 2.26M304.289 831.47l6.674 1.077M302.889 830.187l-2.838-2.257M309.56 831.265l-6.671-1.079M306.722 829.006l2.837 2.259M300.053 827.929l6.67 1.077M300.849 835.66l-2.838-2.257M307.52 836.74l-6.673-1.08M304.685 834.48l2.836 2.258M298.011 833.403l6.674 1.079M296.609 832.12l-2.836-2.257M303.28 833.2l-6.673-1.08M300.447 830.938l2.834 2.261M293.773 829.862l6.674 1.077M294.567 837.595l-2.832-2.26M301.243 838.671l-6.676-1.076M298.406 836.414l2.837 2.257M291.735 835.335l6.67 1.079M290.331 834.051l-2.836-2.257M297.003 835.133l-6.672-1.082M294.167 832.871l2.836 2.26M287.495 831.794l6.672 1.079M288.291 839.529l-2.834-2.26M292.13 838.346l2.835 2.259M285.457 837.267l6.673 1.079M284.053 835.987l-2.838-2.257M290.725 837.065l-6.672-1.079M287.891 834.805l2.834 2.26M281.215 833.729l6.676 1.076M285.851 840.28l2.836 2.258M279.18 839.2l6.671 1.08M277.777 837.92l-2.84-2.258M284.447 839l-6.67-1.08M281.611 836.74l2.836 2.26M274.937 835.66l6.674 1.08M271.498 839.854l-2.836-2.26M275.337 838.671l2.834 2.26M268.662 837.593l6.675 1.078M262.383 839.529l6.675 1.076M254.069 846.934l6.67 1.079M252.665 845.653l-2.839-2.256M249.826 843.395l6.676 1.076M250.626 851.126l-2.835-2.259M254.463 849.945l2.836 2.258M247.793 848.867l6.67 1.079M246.389 847.586l-2.838-2.259M253.06 848.663l-6.671-1.078M250.223 846.403l2.836 2.26M243.551 845.326l6.672 1.077M248.185 851.878l2.834 2.259M241.511 850.8l6.674 1.08M240.11 849.518l-2.836-2.257M246.783 850.598l-6.673-1.081M243.946 848.335l2.836 2.263M237.274 847.26l6.673 1.075M233.834 851.45l-2.839-2.257M237.669 850.269l2.836 2.261M230.995 849.193l6.674 1.077M231.393 852.203l2.836 2.26M224.72 851.126l6.674 1.077M170.328 850.794l-6.674-1.079M173.68 851.18l-2.836-2.258M180.353 852.26l-6.673-1.08M177.513 850l2.84 2.26M170.844 848.92l6.669 1.08M171.237 851.931l2.839 2.26M402.412 806.013l6.674 1.078M396.135 807.947l6.67 1.078M367.583 819.87l-2.837-2.257M364.746 817.611l6.67 1.08M358.47 819.543l6.67 1.08M327.083 829.21l6.672 1.08M325.143 834.653l6.67 1.08M323.745 833.37l-2.84-2.259M320.906 831.111l6.67 1.08M321.7 838.846l-2.835-2.26M325.538 837.663l2.836 2.26M318.866 836.586l6.673 1.079M317.466 835.303l-2.835-2.258M324.14 836.38l-6.673-1.078M321.302 834.123l2.837 2.258M314.633 833.043l6.669 1.08M319.26 839.598l2.838 2.259M312.587 838.518l6.672 1.08M311.189 837.237l-2.838-2.259M317.858 838.315l-6.67-1.078M315.026 836.055l2.832 2.259M308.351 834.978l6.676 1.079M304.911 839.169l-2.836-2.258M311.583 840.249l-6.672-1.08M308.746 837.989l2.837 2.258M302.075 836.911l6.67 1.079M302.47 839.92l2.833 2.26M295.797 838.843l6.674 1.079M322.613 839.982l6.676 1.08" style="fill:none;stroke:#00ff4a;stroke-width:.666665;stroke-linecap:round;stroke-linejoin:round;stroke-miterlimit:10;stroke-dasharray:none;stroke-opacity:1;visibility:visible"/><path d="m0 0-190.713-58.747" style="fill:none;stroke:#00ff4a;stroke-width:.75;stroke-linecap:round;stroke-linejoin:round;stroke-miterlimit:4;stroke-dasharray:none;stroke-opacity:1;visibility:visible" transform="matrix(1.33333 0 0 -1.33333 386.568 748.834)"/><path d="m0 0 189.586 62.238" style="fill:none;stroke:#00ff4a;stroke-width:.75;stroke-linecap:round;stroke-linejoin:round;stroke-miterlimit:4;stroke-dasharray:none;stroke-opacity:1;visibility:visible" transform="matrix(1.33333 0 0 -1.33333 237.76 866.97)"/><path d="m0 0-74.089 24.876" style="fill:none;stroke:#00ff4a;stroke-width:.75;stroke-linecap:round;stroke-linejoin:round;stroke-miterlimit:4;stroke-dasharray:none;stroke-opacity:1;visibility:visible" transform="matrix(1.33333 0 0 -1.33333 480.934 783.521)"/><path d="m0 0 .001.068.02.078.04.06.041.058.048.039.049.031" style="fill:none;stroke:#00ff4a;stroke-width:.75;stroke-linecap:round;stroke-linejoin:round;stroke-miterlimit:4;stroke-dasharray:none;stroke-opacity:1;visibility:visible" transform="matrix(1.33333 0 0 -1.33333 381.883 750.798)"/><path d="m0 0-66.927 22.643" style="fill:none;stroke:#00ff4a;stroke-width:.75;stroke-linecap:round;stroke-linejoin:round;stroke-miterlimit:4;stroke-dasharray:none;stroke-opacity:1;visibility:visible" transform="matrix(1.33333 0 0 -1.33333 471.085 786.884)"/><path d="m0 0-175.865-54.508" style="fill:none;stroke:#00ff4a;stroke-width:.75;stroke-linecap:round;stroke-linejoin:round;stroke-miterlimit:4;stroke-dasharray:none;stroke-opacity:1;visibility:visible" transform="matrix(1.33333 0 0 -1.33333 381.849 756.694)"/><path d="m0 0-3.015.972" style="fill:none;stroke:#00ff4a;stroke-width:.75;stroke-linecap:round;stroke-linejoin:round;stroke-miterlimit:4;stroke-dasharray:none;stroke-opacity:1;visibility:visible" transform="matrix(1.33333 0 0 -1.33333 382.007 714.164)"/><path d="m0 0-3.286-.979" style="fill:none;stroke:#00ff4a;stroke-width:.75;stroke-linecap:round;stroke-linejoin:round;stroke-miterlimit:4;stroke-dasharray:none;stroke-opacity:1;visibility:visible" transform="matrix(1.33333 0 0 -1.33333 386.91 712.857)"/><path d="m0 0-3.286 1.057" style="fill:none;stroke:#00ff4a;stroke-width:.75;stroke-linecap:round;stroke-linejoin:round;stroke-miterlimit:4;stroke-dasharray:none;stroke-opacity:1;visibility:visible" transform="matrix(1.33333 0 0 -1.33333 495.404 750.623)"/><path d="m0 0-3.326-1.053" style="fill:none;stroke:#00ff4a;stroke-width:.75;stroke-linecap:round;stroke-linejoin:round;stroke-miterlimit:4;stroke-dasharray:none;stroke-opacity:1;visibility:visible" transform="matrix(1.33333 0 0 -1.33333 500.388 749.218)"/><path d="m0 0-.021 24.341" style="fill:none;stroke:#00ff4a;stroke-width:.75;stroke-linecap:round;stroke-linejoin:round;stroke-miterlimit:4;stroke-dasharray:none;stroke-opacity:1;visibility:visible" transform="matrix(1.33333 0 0 -1.33333 382.565 747.32)"/><path d="m0 0-.035 27.805" style="fill:none;stroke:#00ff4a;stroke-width:.75;stroke-linecap:round;stroke-linejoin:round;stroke-miterlimit:4;stroke-dasharray:none;stroke-opacity:1;visibility:visible" transform="matrix(1.33333 0 0 -1.33333 382.182 862.916)"/><path d="m0 0 .762 115.628" style="fill:none;stroke:#00ff4a;stroke-width:.75;stroke-linecap:round;stroke-linejoin:round;stroke-miterlimit:4;stroke-dasharray:none;stroke-opacity:1;visibility:visible" transform="matrix(1.33333 0 0 -1.33333 494.372 905.538)"/><path d="m0 0 3.283 1.002M0 0l81.1-27.125" style="fill:none;stroke:#00ff4a;stroke-width:.75;stroke-linecap:round;stroke-linejoin:round;stroke-miterlimit:4;stroke-dasharray:none;stroke-opacity:1;visibility:visible" transform="matrix(1.33333 0 0 -1.33333 382.565 747.32)"/><path d="m0 0-3.81-1.134" style="fill:none;stroke:#00ff4a;stroke-width:.75;stroke-linecap:round;stroke-linejoin:round;stroke-miterlimit:4;stroke-dasharray:none;stroke-opacity:1;visibility:visible" transform="matrix(1.33333 0 0 -1.33333 127.182 790.145)"/><path d="m0 0-.015.57-2.912 1.139" style="fill:none;stroke:#00ff4a;stroke-width:.75;stroke-linecap:round;stroke-linejoin:round;stroke-miterlimit:4;stroke-dasharray:none;stroke-opacity:1;visibility:visible" transform="matrix(1.33333 0 0 -1.33333 121.561 792.418)"/><path d="m0 0-78.702 32.068" style="fill:none;stroke:#00ff4a;stroke-width:.75;stroke-linecap:round;stroke-linejoin:round;stroke-miterlimit:4;stroke-dasharray:none;stroke-opacity:1;visibility:visible" transform="matrix(1.33333 0 0 -1.33333 227.4 870.374)"/><path d="m0 0-1.434 124.004" style="fill:none;stroke:#00ff4a;stroke-width:.75;stroke-linecap:round;stroke-linejoin:round;stroke-miterlimit:4;stroke-dasharray:none;stroke-opacity:1;visibility:visible" transform="matrix(1.33333 0 0 -1.33333 233.396 1000.882)"/><path d="m0 0-2.26 118.742" style="fill:none;stroke:#00ff4a;stroke-width:.75;stroke-linecap:round;stroke-linejoin:round;stroke-miterlimit:4;stroke-dasharray:none;stroke-opacity:1;visibility:visible" transform="matrix(1.33333 0 0 -1.33333 124.574 950.741)"/><path d="m0 0 .04.011.038-.01M0 0l-190.608-58.57" style="fill:none;stroke:#00ff4a;stroke-width:1.5;stroke-linecap:round;stroke-linejoin:round;stroke-miterlimit:4;stroke-dasharray:none;stroke-opacity:1;visibility:visible" transform="matrix(1.33333 0 0 -1.33333 382.445 747.491)"/><path d="m0 0 189.393 62.521" style="fill:none;stroke:#00ff4a;stroke-width:1.5;stroke-linecap:round;stroke-linejoin:round;stroke-miterlimit:4;stroke-dasharray:none;stroke-opacity:1;visibility:visible" transform="matrix(1.33333 0 0 -1.33333 237.828 873.48)"/><path d="m0 0 184.855 60.5" style="fill:none;stroke:#00ff4a;stroke-width:1.5;stroke-linecap:round;stroke-linejoin:round;stroke-miterlimit:4;stroke-dasharray:none;stroke-opacity:1;visibility:visible" transform="matrix(1.33333 0 0 -1.33333 237.719 863.26)"/><path d="m0 0 66.818-26.987" style="fill:none;stroke:#00ff4a;stroke-width:1.5;stroke-linecap:round;stroke-linejoin:round;stroke-miterlimit:4;stroke-dasharray:none;stroke-opacity:1;visibility:visible" transform="matrix(1.33333 0 0 -1.33333 138.376 825.741)"/><path d="m0 0-70.106 23.634" style="fill:none;stroke:#00ff4a;stroke-width:.75;stroke-linecap:round;stroke-linejoin:round;stroke-miterlimit:4;stroke-dasharray:none;stroke-opacity:1;visibility:visible" transform="matrix(1.33333 0 0 -1.33333 475.36 785.486)"/><path d="m0 0-178.939-55.321" style="fill:none;stroke:#00ff4a;stroke-width:.75;stroke-linecap:round;stroke-linejoin:round;stroke-miterlimit:4;stroke-dasharray:none;stroke-opacity:1;visibility:visible" transform="matrix(1.33333 0 0 -1.33333 381.884 753.974)"/><path d="m0 0 .012.02.027.019.051.02 3.492 1.037L6.781.068" style="fill:none;stroke:#00ff4a;stroke-width:1.5;stroke-linecap:round;stroke-linejoin:round;stroke-miterlimit:4;stroke-dasharray:none;stroke-opacity:1;visibility:visible" transform="matrix(1.33333 0 0 -1.33333 377.896 712.79)"/><path d="m0 0 .004.537" style="fill:none;stroke:#00ff4a;stroke-width:1.5;stroke-linecap:round;stroke-linejoin:round;stroke-miterlimit:4;stroke-dasharray:none;stroke-opacity:1;visibility:visible" transform="matrix(1.33333 0 0 -1.33333 377.89 713.507)"/><path d="m0 0 .004.538" style="fill:none;stroke:#00ff4a;stroke-width:1.5;stroke-linecap:round;stroke-linejoin:round;stroke-miterlimit:4;stroke-dasharray:none;stroke-opacity:1;visibility:visible" transform="matrix(1.33333 0 0 -1.33333 387.036 713.48)"/><path d="m0 0 .011.028.029.021.05.02 3.555 1.145L7.103.069l.049-.02.03-.021.009-.019" style="fill:none;stroke:#00ff4a;stroke-width:1.5;stroke-linecap:round;stroke-linejoin:round;stroke-miterlimit:4;stroke-dasharray:none;stroke-opacity:1;visibility:visible" transform="matrix(1.33333 0 0 -1.33333 490.917 749.136)"/><path d="m0 0 .01.02.019.019.039.031.05.009 4.126 1.333L7.625.062" style="fill:none;stroke:#00ff4a;stroke-width:1.5;stroke-linecap:round;stroke-linejoin:round;stroke-miterlimit:4;stroke-dasharray:none;stroke-opacity:1;visibility:visible" transform="matrix(1.33333 0 0 -1.33333 227.117 832.983)"/><path d="m0 0-.01.584" style="fill:none;stroke:#00ff4a;stroke-width:1.5;stroke-linecap:round;stroke-linejoin:round;stroke-miterlimit:4;stroke-dasharray:none;stroke-opacity:1;visibility:visible" transform="matrix(1.33333 0 0 -1.33333 237.388 833.77)"/><path d="m0 0-.01-.029-.03-.02-.05-.022-3.26-1.113" style="fill:none;stroke:#00ff4a;stroke-width:.75;stroke-linecap:round;stroke-linejoin:round;stroke-miterlimit:4;stroke-dasharray:none;stroke-opacity:1;visibility:visible" transform="matrix(1.33333 0 0 -1.33333 387.164 861.337)"/><path d="m0 0-.051-.02-.068-.009h-.149l-.058.008L-.387 0l-2.984 1.136" style="fill:none;stroke:#00ff4a;stroke-width:.75;stroke-linecap:round;stroke-linejoin:round;stroke-miterlimit:4;stroke-dasharray:none;stroke-opacity:1;visibility:visible" transform="matrix(1.33333 0 0 -1.33333 382.698 862.916)"/><path d="m0 0-.023 23.7" style="fill:none;stroke:#00ff4a;stroke-width:1.5;stroke-linecap:round;stroke-linejoin:round;stroke-miterlimit:4;stroke-dasharray:none;stroke-opacity:1;visibility:visible" transform="matrix(1.33333 0 0 -1.33333 387.16 855.79)"/><path d="m0 0-.018 24.378" style="fill:none;stroke:#00ff4a;stroke-width:1.5;stroke-linecap:round;stroke-linejoin:round;stroke-miterlimit:4;stroke-dasharray:none;stroke-opacity:1;visibility:visible" transform="matrix(1.33333 0 0 -1.33333 387.06 745.983)"/><path d="m0 0-.037 25.6" style="fill:none;stroke:#00ff4a;stroke-width:1.5;stroke-linecap:round;stroke-linejoin:round;stroke-miterlimit:4;stroke-dasharray:none;stroke-opacity:1;visibility:visible" transform="matrix(1.33333 0 0 -1.33333 378.112 861.322)"/><path d="m0 0-.045 26.52" style="fill:none;stroke:#00ff4a;stroke-width:1.5;stroke-linecap:round;stroke-linejoin:round;stroke-miterlimit:4;stroke-dasharray:none;stroke-opacity:1;visibility:visible" transform="matrix(1.33333 0 0 -1.33333 377.95 748.866)"/><path d="m0 0 .796 115.481" style="fill:none;stroke:#00ff4a;stroke-width:1.5;stroke-linecap:round;stroke-linejoin:round;stroke-miterlimit:4;stroke-dasharray:none;stroke-opacity:1;visibility:visible" transform="matrix(1.33333 0 0 -1.33333 499.43 903.832)"/><path d="m0 0 .523 85.26" style="fill:none;stroke:#00ff4a;stroke-width:1.5;stroke-linecap:round;stroke-linejoin:round;stroke-miterlimit:4;stroke-dasharray:none;stroke-opacity:1;visibility:visible" transform="matrix(1.33333 0 0 -1.33333 489.956 903.796)"/><path d="m0 0 .15 24.232" style="fill:none;stroke:#00ff4a;stroke-width:1.5;stroke-linecap:round;stroke-linejoin:round;stroke-miterlimit:4;stroke-dasharray:none;stroke-opacity:1;visibility:visible" transform="matrix(1.33333 0 0 -1.33333 490.721 782.179)"/><path d="M0 0h0l77.75-25.91" style="fill:none;stroke:#00ff4a;stroke-width:1.5;stroke-linecap:round;stroke-linejoin:round;stroke-miterlimit:4;stroke-dasharray:none;stroke-opacity:1;visibility:visible" transform="matrix(1.33333 0 0 -1.33333 387.06 745.983)"/><path d="m0 0 .011.019.019.02.04.027.05.012 4.034 1.234L7.252.073" style="fill:none;stroke:#00ff4a;stroke-width:1.5;stroke-linecap:round;stroke-linejoin:round;stroke-miterlimit:4;stroke-dasharray:none;stroke-opacity:1;visibility:visible" transform="matrix(1.33333 0 0 -1.33333 117.583 790.059)"/><path d="m0 0-74.621 30.272" style="fill:none;stroke:#00ff4a;stroke-width:.75;stroke-linecap:round;stroke-linejoin:round;stroke-miterlimit:4;stroke-dasharray:none;stroke-opacity:1;visibility:visible" transform="matrix(1.33333 0 0 -1.33333 227.508 865.961)"/><path d="m0 0-74.572 30.584" style="fill:none;stroke:#00ff4a;stroke-width:1.5;stroke-linecap:round;stroke-linejoin:round;stroke-miterlimit:4;stroke-dasharray:none;stroke-opacity:1;visibility:visible" transform="matrix(1.33333 0 0 -1.33333 227.622 876.938)"/><path d="m0 0-1.08 91.412" style="fill:none;stroke:#00ff4a;stroke-width:1.5;stroke-linecap:round;stroke-linejoin:round;stroke-miterlimit:4;stroke-dasharray:none;stroke-opacity:1;visibility:visible" transform="matrix(1.33333 0 0 -1.33333 229.089 998.835)"/><path d="m0 0-.315 26.677" style="fill:none;stroke:#00ff4a;stroke-width:1.5;stroke-linecap:round;stroke-linejoin:round;stroke-miterlimit:4;stroke-dasharray:none;stroke-opacity:1;visibility:visible" transform="matrix(1.33333 0 0 -1.33333 227.529 869.344)"/><path d="m0 0-.271 24.431" style="fill:none;stroke:#00ff4a;stroke-width:1.5;stroke-linecap:round;stroke-linejoin:round;stroke-miterlimit:4;stroke-dasharray:none;stroke-opacity:1;visibility:visible" transform="matrix(1.33333 0 0 -1.33333 237.75 866.344)"/><path d="m0 0-1.036 93.333" style="fill:none;stroke:#00ff4a;stroke-width:1.5;stroke-linecap:round;stroke-linejoin:round;stroke-miterlimit:4;stroke-dasharray:none;stroke-opacity:1;visibility:visible" transform="matrix(1.33333 0 0 -1.33333 239.221 998.892)"/><path d="m0 0-2.29 118.551" style="fill:none;stroke:#00ff4a;stroke-width:1.5;stroke-linecap:round;stroke-linejoin:round;stroke-miterlimit:4;stroke-dasharray:none;stroke-opacity:1;visibility:visible" transform="matrix(1.33333 0 0 -1.33333 120.656 948.887)"/><path d="m0 0-1.577 84.565" style="fill:none;stroke:#00ff4a;stroke-width:1.5;stroke-linecap:round;stroke-linejoin:round;stroke-miterlimit:4;stroke-dasharray:none;stroke-opacity:1;visibility:visible" transform="matrix(1.33333 0 0 -1.33333 130.296 948.913)"/><path d="m0 0-.489 26.1" style="fill:none;stroke:#00ff4a;stroke-width:1.5;stroke-linecap:round;stroke-linejoin:round;stroke-miterlimit:4;stroke-dasharray:none;stroke-opacity:1;visibility:visible" transform="matrix(1.33333 0 0 -1.33333 128 825.598)"/><path d="M123.48 790.04c0 .188-.446.34-.995.34-.55 0-.995-.153-.995-.34 0-.187.446-.338.995-.338.55 0 .995.15.995.339M233.317 832.977c0 .194-.48.354-1.074.354-.592 0-1.072-.16-1.072-.354 0-.195.48-.355 1.072-.355.594 0 1.074.16 1.074.355" style="fill:none;stroke:#00ff4a;stroke-width:.999997;stroke-linecap:round;stroke-linejoin:round;stroke-miterlimit:4;stroke-dasharray:none;stroke-opacity:1;visibility:visible"/><path d="m396.179 763.869-3.353-.384M386.55 765.417l-.395-3.01M373.6 766.272l3.442-4.192M379.88 764.338l3.835-1.18M373.6 766.27l2.44-2.462M369.756 765.74l-.39-3.008M361.047 770.138l-.799-7.733M363.086 764.664l3.837-1.183M363.086 764.664l-4.876 3.216M367.323 768.206l-2.441.752M364.486 765.948l-1.006 1.726M361.44 773.148l-4.63-6.552M361.96 771.276l-.52 1.872M355.38 775.014l-.613-2.942M406.699 765.477l3.44-4.19M422.998 765.01l-3.351-.386M389.903 765.804l3.444-4.194M403.862 763.218l-1.007 1.73M434.422 767.754l-.912-1.136M434.422 767.754l5.765-.061M422.998 765.01l3.44-4.192M434.422 767.756l1.524-3.603M416.72 766.942l3.44-4.192M429.278 763.076l-2.442.752M437.654 773.026l1.009-1.73M438.964 778.885l6.37-6.51M434.816 770.768l2.44-.754M438.663 771.297l2.432-2.463M436.132 776.628l-.912-1.14M440.368 780.17l1.522-3.605M449.483 780.494l3.44-4.192M459.506 781.957l2.925-2.316M441.89 776.565l4.757 1.672M455.76 778.56l-2.441.753M443.206 782.426l2.436-2.462M440.368 780.169l2.436-2.464M409.592 792.775l2.224-.68M421.932 788.98l-3.444 4.19M463.34 780.778l2.442-.752M459.506 781.958l3.44-4.19M463.34 780.778l.404 4.722M459.506 781.957l8.074 2.361M457.066 782.712l-2.435 2.462M460.91 783.24l.394 3.013M457.066 782.71l-3.447 4.193M443.599 785.44l.513-1.874M437.322 787.371l.516-1.874M444.112 783.566l.396 3.01M434.79 792.703l1.008-1.729M437.838 785.497l4.633 6.554M431.954 790.442l2.44-.752M440.763 783.18l.304 7.59M431.954 790.442l-3.44 4.192M415.654 790.912l3.352.385M325.64 776.196l-6.585-5.656M331.915 774.262l-3.35-.388M322.8 773.937l-.513 1.87M314.878 784.354l.733-9.622M281.695 789.729l-3.352-.39M272.063 791.271l-.392-3.009M259.115 792.129l3.44-4.19M272.58 789.4l-.517 1.871M262.863 795.526l-6.585-5.656M265.39 790.196l-2.44.753M259.114 792.127l2.433-2.46M259.513 795.138l-4.634-6.55M260.025 793.267l-.512 1.871M256.978 800.467l-4.143-6.405M234.002 799.862l3.445-4.193M250.306 799.391l-3.35-.386M342.428 775.87l3.443-4.192M348.707 773.937l3.836-1.179M342.428 775.87l2.438-2.464M338.587 775.34l-.393-3.012M325.64 776.196l3.44-4.191M331.916 774.264l3.838-1.183M326.034 779.205l-5.275.207M326.034 779.205l1.401 1.283M322.287 775.808l-2.928 2.322M325.64 776.196l-2.44.752M311.04 785.537l3.443-4.192M324.509 782.808l-.516 1.872M305.16 790.48l-.395-3.01M311.04 785.537l-2.44.752M308.205 783.276l-1.006 1.729M305.16 790.48l-4.633-6.551M292.207 791.335l3.446-4.191M304.765 787.47l.394 3.01M285.934 793.267l3.44-4.19M298.487 789.404l-2.442.751M275.418 791.66l3.44-4.191M285.934 793.267l2.432-2.462M256.978 800.467l-.396-3.008M262.863 795.526l-2.442.752M244.03 801.326l3.439-4.193M250.306 799.393l3.836-1.182M359.127 778.412l1.007-1.727M365.404 776.48l1.403 1.28M356.288 776.154l2.442-.753M355.38 775.014l.516-1.87M363.88 780.08l-.516 1.876M362.97 778.942l-2.439.75M353.855 778.617l-1.4-1.281M360.134 776.685l-1.007 1.727M302.231 792.8l3.447-4.194M311.434 788.546l.912 1.139M357.998 785.026l2.441-.753M357.088 783.885l.515-1.87M403.319 794.71l2.437-.752M415.654 790.912l-3.226 4.125M400.388 797.031l-.909-1.137M409.592 792.775l-3.442 4.194M403.619 802.3l1.007-1.727M402.412 806.013l8.886-4.362M400.782 800.04l2.442-.751M404.626 800.573l2.437-2.466M398.746 805.515l2.438-.75M398.746 805.515l9.11.326M398.746 805.515l-3.443 4.192M384.786 808.1l1.009-1.73M381.95 805.84l-3.443 4.195M368.484 808.569l.515-1.872M367.356 815.182l2.44-.753M378.111 807.02l-4.479 6.229M366.963 812.17l-1.404-1.283M366.963 812.17l5.27-.204M361.078 817.114l-3.443 4.192M347.12 819.7l1.008-1.73M340.843 821.633l1.008-1.73M348.128 817.97l.395 3.012M338.008 819.373l-2.433 2.462M341.851 819.903l.396 3.011M325.451 823.24l2.442-.753M338.008 819.371l-3.443 4.195M323.413 828.713l2.444-.752M327.083 829.21l2.607-2.428M323.02 825.702l-1.405-1.28M323.02 825.702l5.269-.204M223.593 798.22l-3.35-.385M223.989 801.231l-10.419-4.474M223.989 801.231l-3.232-5.269M231.167 797.602l-.904 1.699M223.989 801.231l-5.274.206M223.989 801.231l1.4 1.283M220.242 797.835l-2.925 2.318M223.593 798.22l-2.44.754M222.462 804.834l-.513 1.87M220.242 797.835l-4.968 7.791M200.19 814.825l-3.352-.388M190.56 816.37l-.396-3.01M177.609 817.227l3.441-4.19M191.074 814.5l-.514 1.87M177.609 817.227l2.436-2.465M173.765 816.698l-.393-3.013M173.766 816.697l-5.27.206M173.766 816.697l1.4 1.282M171.728 822.17l-4.635-6.55M171.332 819.16l-.4-4.723M172.244 820.3l-.516 1.87M169.196 827.502l-4.142-6.41M221.949 806.705l-2.926 2.32M225.302 807.094l-2.444.75M210.706 816.434l3.439-4.192M223.258 812.569l-2.44.75M204.426 818.369l3.441-4.195M216.98 814.5l-2.44.753M193.912 816.76l3.44-4.193M204.425 818.367l2.437-2.465M169.196 827.502l-.395-3.01M175.08 822.558l-2.44.752M169.196 827.502l-2.434 2.464M173.04 828.034l-2.444.75M170.2 825.774l-1.004 1.728M171.728 822.17l-9.202 4.253M173.433 831.042l-5.76.061M173.433 831.042l.91 1.139M170.902 836.374l-2.432 2.461M174.746 836.903l-2.442.751M171.912 834.643l-1.01 1.731M169.196 827.502l-4.967 7.793M172.609 845.245l-5.273.205M172.609 845.245l1.403 1.284M170.328 850.794l-4.391-6.627M172.214 842.235l-2.44.752M194.55 849.598l-3.444 4.193M180.353 852.26l1.248-1.805M252.757 841.073l2.442-.752M265.313 837.206l-3.444 4.195M249.826 843.397l-.907-1.143M259.034 839.14l-3.44 4.19M221.37 850.738l-3.837 1.183M227.646 848.806l-3.441 4.19M210.854 849.13l-2.435 2.465M214.697 849.66l.394 3.011M204.575 851.065l-3.837 1.18M210.853 849.13l-3.439 4.193M188.274 851.531l3.352.388M197.904 849.987l.393 3.011M285.851 840.28l2.44-.751M298.406 836.414l-3.441 4.19M292.13 838.346l-3.443 4.192M281.611 836.74l-2.43 2.46M275.337 838.671l-3.839 1.183M281.611 836.74l-3.44 4.191M259.035 839.14l3.348.389M268.662 837.593l.396 3.012M253.06 848.663l1.009-1.729M262.383 839.529l-1.644 8.484M250.223 846.403l2.442-.75M254.069 846.934l2.433-2.463M248.185 851.878l2.441-.752M248.185 851.878l9.114.325M254.463 849.945l-3.444 4.192M243.947 848.335l-2.436 2.464M231.393 852.203l2.441-.753M243.946 848.335l-3.441 4.195M237.669 850.269l-3.44 4.194M221.37 850.738l3.35.388M170.844 848.92l-.516 1.874M172.609 845.245l-8.955 4.47M173.68 851.18l-2.443.751M177.513 850l-3.437 4.191M401.579 807.774l.833-1.761M404.626 800.573l4.46 6.518M398.747 805.515l-2.612 2.432M402.412 806.013l.394 3.012M367.356 815.182l.227 4.688M366.963 812.17l4.452 6.52M361.078 817.115l-2.608 2.428M364.746 817.611l.394 3.011M326.247 830.974l.836-1.764M335.575 821.835l-1.82 8.455M324.14 836.38l1.003-1.727M327.083 829.21l4.73 6.523M321.302 834.123l2.443-.753M327.083 829.21l.494 2.98M319.26 839.598l2.44-.752M319.26 839.598l9.114.325M325.538 837.663l-3.44 4.194M311.583 840.249l1.004-1.731M308.746 837.989l-3.443 4.192M298.406 836.414l-2.61 2.43M319.26 839.598l3.353.384M325.143 834.653l4.146 6.409" style="fill:none;stroke:#00ff4a;stroke-width:.666665;stroke-linecap:round;stroke-linejoin:round;stroke-miterlimit:10;stroke-dasharray:none;stroke-opacity:1;visibility:visible"/></svg>