<svg xmlns="http://www.w3.org/2000/svg" baseProfile="full" height="1122.52" preserveAspectRatio="xMinYMin meet" style="width:765px;height:943px" width="793.701" xml:space="preserve"><path d="m259.53 106.265 158.604 35.33h.181c.136.001.136.001.272-.045" style="fill:none;stroke:red;stroke-width:.999997;stroke-linecap:round;stroke-linejoin:round;stroke-miterlimit:4;stroke-dasharray:none;stroke-opacity:1;visibility:visible" visibility="hidden"/><path d="m422.668 228.902.272.454c.136.272.136.272.227.544.09.318.09.318.136.68v.726c0 .408 0 .408-.045.77l-.182.818-.272.726c-.136.362-.136.362-.317.725-.181.272-.227.272-.408.59l-.272.27M419.902 235.616c-.182-.182-.182-.182-.318-.363l-.272-.453-.181-.636c-.045-.364-.045-.364-.045-.726v-.77c.044-.363.044-.363.136-.771.09-.408.09-.408.226-.772l.272-.725.363-.635c.227-.317.227-.317.499-.59" style="fill:none;stroke:red;stroke-width:.666665;stroke-linecap:round;stroke-linejoin:round;stroke-miterlimit:4;stroke-dasharray:none;stroke-opacity:1;visibility:visible" visibility="hidden"/><path d="m418.043 319.519.09-177.86M259.803 105.492l.045-.045M418.725 141.449l4.717-2.132" style="fill:none;stroke:red;stroke-width:.999997;stroke-linecap:round;stroke-linejoin:round;stroke-miterlimit:4;stroke-dasharray:none;stroke-opacity:1;visibility:visible" visibility="hidden"/><path d="m420.175 235.75.408.09-.272-.045-.408-.181M421.899 142.773l-.09 85.765M420.583 229.173l.045-85.221M420.493 317.387l.09-81.546" style="fill:none;stroke:red;stroke-width:.666665;stroke-linecap:round;stroke-linejoin:round;stroke-miterlimit:4;stroke-dasharray:none;stroke-opacity:1;visibility:visible" visibility="hidden"/><path d="M420.493 317.387v.317" style="fill:none;stroke:red;stroke-width:.999997;stroke-linecap:round;stroke-linejoin:round;stroke-miterlimit:4;stroke-dasharray:none;stroke-opacity:1;visibility:visible" visibility="hidden"/><path d="m421.717 317.75.09-82.545M421.808 228.538l.5.09.361.273M420.629 143.952v-.635l1.27-.544" style="fill:none;stroke:red;stroke-width:.666665;stroke-linecap:round;stroke-linejoin:round;stroke-miterlimit:4;stroke-dasharray:none;stroke-opacity:1;visibility:visible" visibility="hidden"/><path d="m423.804 316.57-.045.136-.091.09-2.041 1.135h-.136l-.998-.226v.68l-.046.181-2.04 1.133-.182.046-153.933-41.136-.18-.09-.046-.182-4.626-172.165.046-.272.136-.227.226-.226 5.488-2.223h.136l156.79 34.786 1.27.318.317.181.136.272.046.273-.227 177.516" style="fill:none;stroke:red;stroke-width:1.99999;stroke-linecap:round;stroke-linejoin:round;stroke-miterlimit:4;stroke-dasharray:none;stroke-opacity:1;visibility:visible" visibility="hidden"/><path d="m420.493 317.387-2.45 2.132" style="fill:none;stroke:red;stroke-width:.999997;stroke-linecap:round;stroke-linejoin:round;stroke-miterlimit:4;stroke-dasharray:none;stroke-opacity:1;visibility:visible" visibility="hidden"/><path d="m420.493 317.387 1.224.363" style="fill:none;stroke:red;stroke-width:.666665;stroke-linecap:round;stroke-linejoin:round;stroke-miterlimit:4;stroke-dasharray:none;stroke-opacity:1;visibility:visible" visibility="hidden"/><path d="m420.493 317.387 3.311-.817" style="fill:none;stroke:red;stroke-width:1.99999;stroke-linecap:round;stroke-linejoin:round;stroke-miterlimit:4;stroke-dasharray:none;stroke-opacity:1;visibility:visible" visibility="hidden"/><path d="m431.192 295.969 121.785 31.62M562.23 329.63l4.036-2.404" style="fill:none;stroke:#00ff4a;stroke-width:.999997;stroke-linecap:round;stroke-linejoin:round;stroke-miterlimit:4;stroke-dasharray:none;stroke-opacity:1;visibility:visible"/><path d="M561.321 500.798c-1.86 1.269-1.86 1.269-3.764 2.54l-.272.18M561.775 499.936c2.358-86.445 2.358-86.445 4.672-172.935 0-.136 0-.136-.047-.272-.044-.182-.044-.182-.135-.363M566.267 326.364l-.227-.317-.453-.227-135.952-35.236M561.776 499.935l-.045.227-.136.362-.272.272" style="fill:none;stroke:#00ff4a;stroke-width:1.99999;stroke-linecap:round;stroke-linejoin:round;stroke-miterlimit:4;stroke-dasharray:none;stroke-opacity:1;visibility:visible"/><path d="m453.017 394.486 108.624-64.493M553.613 327.226l.317-.045 7.03 1.86" style="fill:none;stroke:#00ff4a;stroke-width:.999997;stroke-linecap:round;stroke-linejoin:round;stroke-miterlimit:4;stroke-dasharray:none;stroke-opacity:1;visibility:visible"/><path d="m444.99 391.311.408-.227 107.664-63.533" style="fill:none;stroke:#00ff4a;stroke-width:1.99999;stroke-linecap:round;stroke-linejoin:round;stroke-miterlimit:4;stroke-dasharray:none;stroke-opacity:1;visibility:visible"/><path d="m561.096 329.085.317.227.183.317.09.317-4.535 173.208-.046.319-.181.317-.363.272" style="fill:none;stroke:#00ff4a;stroke-width:.999997;stroke-linecap:round;stroke-linejoin:round;stroke-miterlimit:4;stroke-dasharray:none;stroke-opacity:1;visibility:visible"/><path d="m556.56 504.062-104.905 72.113" style="fill:none;stroke:#00ff4a;stroke-width:1.99999;stroke-linecap:round;stroke-linejoin:round;stroke-miterlimit:4;stroke-dasharray:none;stroke-opacity:1;visibility:visible"/><path d="M205.155 472.951c.091-.227.091-.272.136-.499 0-.226 0-.272-.045-.498-.045-.272-.045-.272-.136-.544l-.272-.546c-.136-.181-.136-.181-.317-.362M202.207 470.455l-.09.453v.544c.09.272.09.272.136.544.136.274.136.274.272.5.181.272.181.272.362.499.227.136.227.181.408.317.227.136.227.136.455.228l.453.089M204.566 470.502c-.226-.227-.226-.227-.5-.454-.225-.09-.225-.09-.452-.226-.228 0-.228 0-.454-.046M200.166 370.133c-.226 0-.226 0-.453-.046l-.453-.181c-.228-.181-.228-.181-.408-.363l-.363-.453-.272-.545c-.092-.272-.092-.272-.137-.5-.046-.315-.046-.315-.046-.633M199.124 366.187c.226.046.226.046.453.046.227.136.227.136.453.226l.455.363.361.453.274.546c.045.272.045.272.135.544v.544c-.045.271-.045.271-.09.498" style="fill:none;stroke:#00ff4a;stroke-width:.666665;stroke-linecap:round;stroke-linejoin:round;stroke-miterlimit:4;stroke-dasharray:none;stroke-opacity:1;visibility:visible"/><path d="M430.294 414.762c-.274.09-.274.136-.544.226-.272.046-.272.046-.591.092l-.635-.09-.634-.275c-.318-.225-.318-.225-.59-.407-.272-.317-.272-.317-.544-.588-.228-.32-.228-.32-.408-.682-.182-.318-.182-.318-.318-.68" style="fill:none;stroke:#00ff4a;stroke-width:.999997;stroke-linecap:round;stroke-linejoin:round;stroke-miterlimit:4;stroke-dasharray:none;stroke-opacity:1;visibility:visible"/><path d="M426.756 409.274c.272-.136.272-.136.544-.227.318-.045.318-.045.59-.09.272.044.272.044.589.089l.727.274c.272.226.272.226.589.452.272.272.272.272.499.544l.453.636.272.726.181.725v.725l-.18.636c-.137.318-.137.318-.318.59-.092.09-.092.09-.182.136-.09.136-.09.136-.226.272M426.03 412.358c-.091-.363-.091-.408-.136-.77a1.717 1.717 0 0 1 0-.681c.045-.365.045-.365.136-.682.136-.271.136-.271.317-.543l.408-.408M426.075 553.273c-.181.227-.181.227-.317.5-.091.315-.091.315-.136.587v.683c.045.362.045.362.136.725.136.363.136.363.317.68M430.339 557.855l.181-.363c.046-.045.09-.045.09-.136l.183-.635v-.68l-.182-.818-.272-.543c-.181-.363-.181-.363-.409-.68-.271-.272-.271-.272-.498-.545-.317-.226-.317-.226-.59-.408-.316-.182-.316-.182-.635-.318l-.635-.089c-.272-.001-.272-.001-.59.044M426.075 556.448c.181.317.181.317.408.635.227.317.227.317.499.59.272.179.272.179.59.407l.635.273c.317.091.317.091.59.137.316 0 .316 0 .588-.046.273-.09.273-.09.545-.227M218.443 488.962c.091-.227.091-.227.227-.5.045-.27.045-.27.09-.587 0-.455 0-.455-.044-.909-.046-.227-.046-.227-.136-.408-.137-.363-.137-.363-.273-.68-.18-.318-.18-.318-.362-.59-.272-.272-.272-.272-.5-.544-.272-.182-.272-.182-.545-.408-.271-.136-.271-.136-.543-.228-.272-.09-.272-.09-.544-.136l-.544.09M214.135 485.695v.68c.046.135.046.135.091.317l.09.363.274.635c.18.318.18.318.407.59l.453.543c.272.183.272.183.545.409.272.136.272.136.545.228.271.089.271.089.543.135a.999.999 0 0 1 .363-.045c.09 0 .09 0 .181-.046M209.735 346.64c-.18.18-.18.18-.362.406-.136.228-.136.228-.227.5-.09.317-.09.317-.136.636 0 .363 0 .363.045.68.046.363.046.363.136.725.091.136.091.136.136.318M213.047 351.81c.183-.227.227-.227.363-.408l.272-.544.09-.636v-.68c-.089-.317-.089-.363-.179-.68-.139-.363-.139-.363-.275-.68-.225-.317-.225-.317-.407-.636-.226-.272-.226-.272-.5-.544l-.544-.363c-.272-.136-.272-.136-.589-.272l-.544-.09-.544.09" style="fill:none;stroke:#00ff4a;stroke-width:.999997;stroke-linecap:round;stroke-linejoin:round;stroke-miterlimit:4;stroke-dasharray:none;stroke-opacity:1;visibility:visible"/><path d="m209.327 349.905.183.362c.18.273.18.318.36.59.273.272.273.272.501.545.319.227.319.227.635.408.227.136.227.136.499.227l.544.09.544-.09" style="fill:none;stroke:#00ff4a;stroke-width:.999997;stroke-linecap:round;stroke-linejoin:round;stroke-miterlimit:4;stroke-dasharray:none;stroke-opacity:1;visibility:visible"/><path d="M442.086 437.802c.272 0 .272 0 .544.045.226.136.272.136.5.227.226.181.226.181.498.408.18.226.18.226.363.498.136.272.181.272.272.544l.181.636v.544c-.09.227-.09.272-.181.499M443.13 441.975l-.544-.09c-.228-.092-.272-.092-.5-.228-.227-.181-.227-.181-.5-.362-.179-.272-.179-.272-.361-.5-.137-.272-.182-.272-.273-.59-.09-.27-.09-.27-.181-.588v-.59c.089-.227.089-.227.181-.499M443.446 547.604l.272.544c.09.272.09.317.136.59v.544c-.046.227-.046.227-.136.498M441.586 546.424c.226 0 .226 0 .453.046l.545.271c.226.182.27.182.499.363.18.272.18.272.363.5M442.586 550.461c-.272-.045-.272-.045-.5-.09-.272-.091-.272-.091-.544-.227-.227-.181-.227-.181-.454-.408l-.362-.455c-.136-.271-.136-.271-.272-.589-.091-.272-.091-.272-.136-.544-.046-.272-.046-.272 0-.544.045-.272.045-.272.136-.499" style="fill:none;stroke:#00ff4a;stroke-width:.666665;stroke-linecap:round;stroke-linejoin:round;stroke-miterlimit:4;stroke-dasharray:none;stroke-opacity:1;visibility:visible"/><path d="M446.71 397.844c.274 0 .274 0 .546-.044l.543-.182c2.177-1.27 2.177-1.27 4.31-2.586" style="fill:none;stroke:#00ff4a;stroke-width:.999997;stroke-linecap:round;stroke-linejoin:round;stroke-miterlimit:4;stroke-dasharray:none;stroke-opacity:1;visibility:visible"/><path d="m198.035 367.41.09-.453.273-.408.317-.272.408-.091M201.164 369.405l-.227.408-.362.227-.41.09" style="fill:none;stroke:#00ff4a;stroke-width:.666665;stroke-linecap:round;stroke-linejoin:round;stroke-miterlimit:4;stroke-dasharray:none;stroke-opacity:1;visibility:visible"/><path d="m446.44 397.842-.453-.09M201.663 498.983v-.136" style="fill:none;stroke:#00ff4a;stroke-width:.999997;stroke-linecap:round;stroke-linejoin:round;stroke-miterlimit:4;stroke-dasharray:none;stroke-opacity:1;visibility:visible"/><path d="m203.16 469.774-.408.09-.317.227-.227.363M204.203 473.63l.408-.09.317-.227.227-.363" style="fill:none;stroke:#00ff4a;stroke-width:.666665;stroke-linecap:round;stroke-linejoin:round;stroke-miterlimit:4;stroke-dasharray:none;stroke-opacity:1;visibility:visible"/><path d="m212.593 352.034.453-.227M210.19 346.365l-.453.272M217.628 489.503l.453-.181.363-.363M215.27 484.06l-.453.227-.363.362-.227.454-.09.59M196.885 326.925l248.285 70.593M429.931 558.215l.408-.363M426.983 552.682l-.544.227-.363.362" style="fill:none;stroke:#00ff4a;stroke-width:.999997;stroke-linecap:round;stroke-linejoin:round;stroke-miterlimit:4;stroke-dasharray:none;stroke-opacity:1;visibility:visible"/><path d="m443.447 550.142-.408.227-.453.09M440.453 547.103l.272-.363.408-.272.455-.045M443.72 549.78l-.272.363M440.953 438.525l.272-.408.408-.227.453-.09M444.263 441.201l-.272.408-.408.272-.453.09" style="fill:none;stroke:#00ff4a;stroke-width:.666665;stroke-linecap:round;stroke-linejoin:round;stroke-miterlimit:4;stroke-dasharray:none;stroke-opacity:1;visibility:visible"/><path d="M446.35 397.842h.499M447.211 397.797l-.272.045" style="fill:none;stroke:#00ff4a;stroke-width:.999997;stroke-linecap:round;stroke-linejoin:round;stroke-miterlimit:4;stroke-dasharray:none;stroke-opacity:1;visibility:visible"/><path d="m445.986 579.941.453-.181 4.173-2.903c.182-.136.182-.136.318-.272" style="fill:none;stroke:#00ff4a;stroke-width:1.99999;stroke-linecap:round;stroke-linejoin:round;stroke-miterlimit:4;stroke-dasharray:none;stroke-opacity:1;visibility:visible"/><path d="m451.156 575.815 1.179-181.1c0-.181 0-.181-.045-.363-.046-.136-.046-.136-.135-.272-.137-.18-.137-.18-.273-.317" style="fill:none;stroke:#00ff4a;stroke-width:.999997;stroke-linecap:round;stroke-linejoin:round;stroke-miterlimit:4;stroke-dasharray:none;stroke-opacity:1;visibility:visible"/><path d="M195.222 325.142c-.136.136-.136.136-.272.317l-.09.272c-.046.136-.046.136-.046.319M200.575 322.6l-.453.09-4.582 2.269-.317.181" style="fill:none;stroke:#00ff4a;stroke-width:1.99999;stroke-linecap:round;stroke-linejoin:round;stroke-miterlimit:4;stroke-dasharray:none;stroke-opacity:1;visibility:visible"/><path d="m209.545 325.025-8.563-2.425" style="fill:none;stroke:#00ff4a;stroke-width:.999997;stroke-linecap:round;stroke-linejoin:round;stroke-miterlimit:4;stroke-dasharray:none;stroke-opacity:1;visibility:visible"/><path d="m364.188 368.824-154.642-43.8" style="fill:none;stroke:#00ff4a;stroke-width:1.99999;stroke-linecap:round;stroke-linejoin:round;stroke-miterlimit:4;stroke-dasharray:none;stroke-opacity:1;visibility:visible"/><path d="m373.825 371.553-9.637-2.73" style="fill:none;stroke:#00ff4a;stroke-width:.999997;stroke-linecap:round;stroke-linejoin:round;stroke-miterlimit:4;stroke-dasharray:none;stroke-opacity:1;visibility:visible"/><path d="m444.306 391.516-70.481-19.963" style="fill:none;stroke:#00ff4a;stroke-width:1.99999;stroke-linecap:round;stroke-linejoin:round;stroke-miterlimit:4;stroke-dasharray:none;stroke-opacity:1;visibility:visible"/><path d="m451.883 393.76-.453-.227-7.124-2.017" style="fill:none;stroke:#00ff4a;stroke-width:.999997;stroke-linecap:round;stroke-linejoin:round;stroke-miterlimit:4;stroke-dasharray:none;stroke-opacity:1;visibility:visible"/><path d="m194.815 326.046 6.848 172.8M201.663 498.8l.045.363.182.362.272.227.317.183 243.009 80.003h.498" style="fill:none;stroke:#00ff4a;stroke-width:1.99999;stroke-linecap:round;stroke-linejoin:round;stroke-miterlimit:4;stroke-dasharray:none;stroke-opacity:1;visibility:visible"/><path d="m208.784 324.822 72.568-35.968" style="fill:none;stroke:#00ff4a;stroke-width:.999997;stroke-linecap:round;stroke-linejoin:round;stroke-miterlimit:4;stroke-dasharray:none;stroke-opacity:1;visibility:visible"/><path d="m273.873 286.33-72.754 35.861" style="fill:none;stroke:#00ff4a;stroke-width:1.99999;stroke-linecap:round;stroke-linejoin:round;stroke-miterlimit:4;stroke-dasharray:none;stroke-opacity:1;visibility:visible"/><path d="m324.981 357.704-.308-19.117M445.987 398.086l-.997 181.128" style="fill:none;stroke:#00ff4a;stroke-width:.999997;stroke-linecap:round;stroke-linejoin:round;stroke-miterlimit:4;stroke-dasharray:none;stroke-opacity:1;visibility:visible"/><path d="m199.392 367.945.428.428M203.53 471.497l.261.47M442.392 439.623l.428.357M441.924 548.235l.356.31" style="fill:none;stroke:#00ff4a;stroke-width:.666665;stroke-linecap:round;stroke-linejoin:round;stroke-miterlimit:4;stroke-dasharray:none;stroke-opacity:1;visibility:visible"/><path d="m483.041 310.082-.725 59.187M373.375 371.4l109.666-61.319" style="fill:none;stroke:#00ff4a;stroke-width:.999997;stroke-linecap:round;stroke-linejoin:round;stroke-miterlimit:4;stroke-dasharray:none;stroke-opacity:1;visibility:visible"/><path d="m475.286 307.542-110.573 61.41" style="fill:none;stroke:#00ff4a;stroke-width:1.99999;stroke-linecap:round;stroke-linejoin:round;stroke-miterlimit:4;stroke-dasharray:none;stroke-opacity:1;visibility:visible"/><path d="M268.148 319.881v-.045M268.102 316.208h0M268.011 310.176h0M270.143 325.278l-.045-.09M269.87 324.1h0v.045M270.914 314.258h0M268.011 310.178l1.089.272c.135.09.135.09.317.136.136.09.136.09.317.181.137.136.137.136.319.273l.272.271c.135.183.135.183.225.319.137.181.137.181.228.363.09.226.09.226.136.407.045.182.045.182.136.409 0 .181 0 .181.045.361v.41l-.09.362c-.046.136-.046.136-.091.319-.045.044-.045.044-.045.136M271.186 342.515c-.227-4.264-.227-4.264-.499-8.525-.272-4.4-.272-4.4-.589-8.8 0-.181 0-.181-.045-.363 0-.181 0-.181-.046-.362-.09-.182-.09-.182-.136-.363-.861-2.132-.861-2.132-1.724-4.219l-.181-.543c-.09-.273-.09-.273-.136-.545-.045-.225-.045-.225-.09-.498v-.547c0-.225 0-.225.044-.497l.091-.454c.091-.226.091-.226.182-.408 0-.09 0-.09.045-.181.59-1.27.59-1.27 1.179-2.585l.045-.046v-.498c-.045-.091-.045-.091-.045-.182-.044-.045-.044-.045-.091-.136l-.09-.181c-.045-.045-.045-.045-.09-.136-.047-.045-.047-.045-.137-.09-.046-.092-.046-.092-.135-.138-.047-.045-.047-.045-.136-.045-.047-.046-.047-.046-.137-.09l-.998-.273M269.734 319.249c.907 2.131.907 2.131 1.723 4.217.137.272.137.272.228.545.045.272.045.272.135.59 0 .272 0 .272.046.544" style="fill:none;stroke:#00ff4a;stroke-width:.666665;stroke-linecap:round;stroke-linejoin:round;stroke-miterlimit:4;stroke-dasharray:none;stroke-opacity:1;visibility:visible"/><path d="M270.869 314.395c-.636 1.315-.636 1.315-1.224 2.631 0 .09 0 .09-.047.181-.045.136-.045.136-.09.318v.634c-.001.182-.001.182.044.363l.093.363.089.364M271.866 325.142l.59 8.753.498 9.116M267.966 310.176h.045M267.331 311.672l-.09-.227-.046-.181M267.422 311.808l-.09-.09M268.011 310.176h-.09M267.422 310.493l-.09.136-.091.317M267.195 311.219l.045-.181M267.513 310.357l-.045.09M267.694 310.22l-.136.09M267.74 310.176l.09-.045" style="fill:none;stroke:#00ff4a;stroke-width:.666665;stroke-linecap:round;stroke-linejoin:round;stroke-miterlimit:4;stroke-dasharray:none;stroke-opacity:1;visibility:visible"/><path d="m452.109 395.032.908-.546M453.017 394.486l-.908.546M209.545 325.025l-12.66 1.9" style="fill:none;stroke:#00ff4a;stroke-width:.999997;stroke-linecap:round;stroke-linejoin:round;stroke-miterlimit:4;stroke-dasharray:none;stroke-opacity:1;visibility:visible"/><path d="m271.866 325.142-3.718-5.261M269.87 324.145l-1.722-4.31M269.734 319.249l.409 6.029M267.331 311.672l2.767 13.515M271.866 325.142l-1.996-.997M271.866 325.142l-.68 17.373" style="fill:none;stroke:#00ff4a;stroke-width:.666665;stroke-linecap:round;stroke-linejoin:round;stroke-miterlimit:4;stroke-dasharray:none;stroke-opacity:1;visibility:visible"/></svg>