<svg xmlns="http://www.w3.org/2000/svg" baseProfile="full" height="1122.52" preserveAspectRatio="xMinYMin meet" style="width:765px;height:943px" width="793.701" xml:space="preserve"><path d="m379.556 743.797 190.81 49.541M578.077 795.039l3.364-2.003" style="fill:none;stroke:red;stroke-width:.999997;stroke-linecap:round;stroke-linejoin:round;stroke-miterlimit:4;stroke-dasharray:none;stroke-opacity:1;visibility:visible"/><path d="M577.32 937.692c-1.55 1.06-1.55 1.06-3.137 2.118l-.227.15M377.78 739.286l-.378.152c-1.663.794-1.663.794-3.326 1.626l-.226.15M577.699 936.974c1.965-72.044 1.965-72.044 3.893-144.127 0-.113 0-.113-.037-.226-.04-.152-.04-.152-.115-.303M581.441 792.317l-.19-.264-.377-.19-202.715-52.54-.377-.038M577.7 936.973l-.039.19-.113.302-.227.227" style="fill:none;stroke:red;stroke-width:1.99999;stroke-linecap:round;stroke-linejoin:round;stroke-miterlimit:4;stroke-dasharray:none;stroke-opacity:1;visibility:visible"/><path d="m487.058 849.091 90.528-53.75M570.896 793.035l.264-.037 5.859 1.549" style="fill:none;stroke:red;stroke-width:.999997;stroke-linecap:round;stroke-linejoin:round;stroke-miterlimit:4;stroke-dasharray:none;stroke-opacity:1;visibility:visible"/><path d="m480.367 846.445.34-.19 89.73-52.949" style="fill:none;stroke:red;stroke-width:1.99999;stroke-linecap:round;stroke-linejoin:round;stroke-miterlimit:4;stroke-dasharray:none;stroke-opacity:1;visibility:visible"/><path d="m577.133 794.585.264.19.152.263.075.266-3.78 144.353-.038.265-.15.264-.303.227" style="fill:none;stroke:red;stroke-width:.999997;stroke-linecap:round;stroke-linejoin:round;stroke-miterlimit:4;stroke-dasharray:none;stroke-opacity:1;visibility:visible"/><path d="m573.353 940.413-87.43 60.1" style="fill:none;stroke:red;stroke-width:1.99999;stroke-linecap:round;stroke-linejoin:round;stroke-miterlimit:4;stroke-dasharray:none;stroke-opacity:1;visibility:visible"/><path d="M280.486 914.483c.076-.19.076-.226.113-.416.001-.19.001-.226-.037-.416-.039-.226-.039-.226-.113-.453l-.229-.453c-.113-.151-.113-.151-.263-.303M278.029 912.405l-.076.377v.455c.076.225.076.225.113.453.113.227.113.227.227.415.152.228.152.228.302.415.19.114.19.153.34.266.19.113.19.113.379.19l.379.074M279.994 912.443c-.19-.19-.19-.19-.416-.378-.19-.075-.19-.075-.377-.188-.191 0-.191 0-.379-.04M276.327 828.794c-.189 0-.189 0-.377-.037l-.379-.152c-.188-.15-.188-.15-.34-.303l-.301-.377-.228-.455c-.075-.225-.075-.225-.113-.415-.039-.264-.039-.264-.039-.529M275.46 825.505c.188.037.188.037.376.037.19.113.19.113.379.19l.379.301.301.378.228.455c.038.225.038.225.114.454v.453c-.039.226-.039.226-.077.416" style="fill:none;stroke:red;stroke-width:.666665;stroke-linecap:round;stroke-linejoin:round;stroke-miterlimit:4;stroke-dasharray:none;stroke-opacity:1;visibility:visible"/><path d="M287.063 813.523c.151-.189.19-.189.303-.34l.227-.453.076-.53v-.565c-.076-.265-.076-.304-.152-.569-.114-.301-.114-.301-.227-.566-.19-.265-.19-.265-.34-.53-.19-.227-.19-.227-.416-.453l-.453-.303c-.227-.113-.227-.113-.491-.227l-.455-.074-.453.074M283.963 811.935l.151.303c.152.225.152.264.303.49.226.228.226.228.416.456.265.187.265.187.529.339.19.111.19.111.416.187l.452.077.455-.076" style="fill:none;stroke:red;stroke-width:.999997;stroke-linecap:round;stroke-linejoin:round;stroke-miterlimit:4;stroke-dasharray:none;stroke-opacity:1;visibility:visible"/><path d="M284.303 809.214c-.15.152-.15.152-.302.34-.114.19-.114.19-.191.416-.073.265-.073.265-.112.53 0 .301 0 .301.039.565.037.305.037.305.113.606.075.114.075.114.113.266" style="fill:none;stroke:red;stroke-width:.999997;stroke-linecap:round;stroke-linejoin:round;stroke-miterlimit:4;stroke-dasharray:none;stroke-opacity:1;visibility:visible"/><path d="m478.816 888.667-.453-.076c-.19-.076-.227-.076-.416-.19-.19-.149-.19-.149-.417-.299-.15-.229-.15-.229-.302-.417-.113-.227-.15-.227-.227-.492-.074-.227-.074-.227-.15-.491v-.492c.076-.19.076-.19.149-.416M479.08 976.7l.227.454c.076.226.076.265.113.492v.453c-.037.19-.037.19-.113.416M477.532 975.718c.19 0 .19 0 .378.037l.454.227c.19.152.227.152.416.302.15.227.15.227.301.416M478.363 979.082c-.227-.038-.227-.038-.416-.076-.227-.076-.227-.076-.454-.188-.188-.152-.188-.152-.378-.342l-.302-.376c-.113-.228-.113-.228-.228-.491-.074-.229-.074-.229-.112-.456-.038-.226-.038-.226 0-.453.038-.226.038-.226.112-.416" style="fill:none;stroke:red;stroke-width:.666665;stroke-linecap:round;stroke-linejoin:round;stroke-miterlimit:4;stroke-dasharray:none;stroke-opacity:1;visibility:visible"/><path d="M481.803 851.889c.226 0 .226 0 .453-.039l.454-.15c1.814-1.059 1.814-1.059 3.591-2.155" style="fill:none;stroke:red;stroke-width:.999997;stroke-linecap:round;stroke-linejoin:round;stroke-miterlimit:4;stroke-dasharray:none;stroke-opacity:1;visibility:visible"/><path d="m274.552 826.525.076-.377.227-.342.264-.225.341-.076M277.16 828.188l-.19.34-.302.19-.34.075" style="fill:none;stroke:red;stroke-width:.666665;stroke-linecap:round;stroke-linejoin:round;stroke-miterlimit:4;stroke-dasharray:none;stroke-opacity:1;visibility:visible"/><path d="m481.577 851.888-.377-.076" style="fill:none;stroke:red;stroke-width:.999997;stroke-linecap:round;stroke-linejoin:round;stroke-miterlimit:4;stroke-dasharray:none;stroke-opacity:1;visibility:visible"/><path d="m278.823 911.837-.34.076-.265.188-.188.303M279.693 915.05l.34-.076.264-.19.19-.3" style="fill:none;stroke:red;stroke-width:.666665;stroke-linecap:round;stroke-linejoin:round;stroke-miterlimit:4;stroke-dasharray:none;stroke-opacity:1;visibility:visible"/><path d="m286.685 813.711.379-.19M284.682 808.986l-.377.227M273.594 792.785l206.923 58.833" style="fill:none;stroke:red;stroke-width:.999997;stroke-linecap:round;stroke-linejoin:round;stroke-miterlimit:4;stroke-dasharray:none;stroke-opacity:1;visibility:visible"/><path d="m479.082 978.817-.34.19-.379.074M476.587 976.285l.227-.303.34-.226.378-.038M479.31 978.514l-.227.303M477.003 885.794l.227-.34.34-.19.378-.075M479.762 888.024l-.227.34-.34.227-.377.076" style="fill:none;stroke:red;stroke-width:.666665;stroke-linecap:round;stroke-linejoin:round;stroke-miterlimit:4;stroke-dasharray:none;stroke-opacity:1;visibility:visible"/><path d="M481.501 851.888h.416M482.22 851.85l-.227.037" style="fill:none;stroke:red;stroke-width:.999997;stroke-linecap:round;stroke-linejoin:round;stroke-miterlimit:4;stroke-dasharray:none;stroke-opacity:1;visibility:visible"/><path d="m481.199 1003.651.377-.15 3.479-2.421c.15-.114.15-.114.264-.227" style="fill:none;stroke:red;stroke-width:1.99999;stroke-linecap:round;stroke-linejoin:round;stroke-miterlimit:4;stroke-dasharray:none;stroke-opacity:1;visibility:visible"/><path d="m485.505 1000.211.983-150.93c0-.152 0-.152-.037-.303-.038-.113-.038-.113-.114-.227-.113-.15-.113-.15-.226-.264" style="fill:none;stroke:red;stroke-width:.999997;stroke-linecap:round;stroke-linejoin:round;stroke-miterlimit:4;stroke-dasharray:none;stroke-opacity:1;visibility:visible"/><path d="M272.209 791.298c-.114.113-.114.113-.227.264l-.076.228c-.037.113-.037.113-.037.264M276.67 789.18l-.379.076-3.817 1.89-.264.151" style="fill:none;stroke:red;stroke-width:1.99999;stroke-linecap:round;stroke-linejoin:round;stroke-miterlimit:4;stroke-dasharray:none;stroke-opacity:1;visibility:visible"/><path d="m284.145 791.2-7.136-2.021" style="fill:none;stroke:red;stroke-width:.999997;stroke-linecap:round;stroke-linejoin:round;stroke-miterlimit:4;stroke-dasharray:none;stroke-opacity:1;visibility:visible"/><path d="m413.027 827.704-128.881-36.503" style="fill:none;stroke:red;stroke-width:1.99999;stroke-linecap:round;stroke-linejoin:round;stroke-miterlimit:4;stroke-dasharray:none;stroke-opacity:1;visibility:visible"/><path d="m421.058 829.979-8.03-2.275" style="fill:none;stroke:red;stroke-width:.999997;stroke-linecap:round;stroke-linejoin:round;stroke-miterlimit:4;stroke-dasharray:none;stroke-opacity:1;visibility:visible"/><path d="m479.798 846.616-58.74-16.637" style="fill:none;stroke:red;stroke-width:1.99999;stroke-linecap:round;stroke-linejoin:round;stroke-miterlimit:4;stroke-dasharray:none;stroke-opacity:1;visibility:visible"/><path d="m486.113 848.486-.377-.19-5.938-1.68" style="fill:none;stroke:red;stroke-width:.999997;stroke-linecap:round;stroke-linejoin:round;stroke-miterlimit:4;stroke-dasharray:none;stroke-opacity:1;visibility:visible"/><path d="m271.868 792.053 5.708 144.013M277.576 936.029l.037.303.152.302.227.188.264.151 202.526 66.677h.416" style="fill:none;stroke:red;stroke-width:1.99999;stroke-linecap:round;stroke-linejoin:round;stroke-miterlimit:4;stroke-dasharray:none;stroke-opacity:1;visibility:visible"/><path d="m374.983 758.753.227.303c.113.189.113.189.19.377.035.265.035.265.073.492v.53c.001.299.001.299-.074.602l-.152.531-.227.529c-.113.227-.113.227-.264.453-.152.19-.152.19-.34.38-.114.074-.114.074-.265.189M373.092 763.1c-.112-.152-.112-.152-.226-.264-.114-.228-.114-.228-.19-.416l-.076-.492c-.037-.264-.037-.264-.037-.53.037-.302.037-.302.077-.566.074-.303.074-.303.187-.567.076-.265.076-.265.228-.53.113-.225.113-.225.265-.452.15-.191.15-.191.34-.379.151-.114.151-.114.34-.227.15-.077.15-.077.34-.113M283.51 791.032l95.554-47.361" style="fill:none;stroke:red;stroke-width:.999997;stroke-linecap:round;stroke-linejoin:round;stroke-miterlimit:4;stroke-dasharray:none;stroke-opacity:1;visibility:visible"/><path d="m374.152 763.137-.076.037-.34.114-.34-.038-.301-.15M374.342 758.563l.34.039.303.15" style="fill:none;stroke:red;stroke-width:.999997;stroke-linecap:round;stroke-linejoin:round;stroke-miterlimit:4;stroke-dasharray:none;stroke-opacity:1;visibility:visible"/><path d="M373.32 741.515h-.19l-96.007 47.324" style="fill:none;stroke:red;stroke-width:1.99999;stroke-linecap:round;stroke-linejoin:round;stroke-miterlimit:4;stroke-dasharray:none;stroke-opacity:1;visibility:visible"/><path d="m379.68 776.896-.539-33.301-.074-.266-.152-.226-.264-.19-.34-.113-4.991-1.285M481.2 852.091l-.832 150.954" style="fill:none;stroke:red;stroke-width:.999997;stroke-linecap:round;stroke-linejoin:round;stroke-miterlimit:4;stroke-dasharray:none;stroke-opacity:1;visibility:visible"/><path d="m275.683 826.971.357.357M279.133 913.272l.219.392M478.202 886.71l.357.297M477.813 977.227l.296.259" style="fill:none;stroke:red;stroke-width:.666665;stroke-linecap:round;stroke-linejoin:round;stroke-miterlimit:4;stroke-dasharray:none;stroke-opacity:1;visibility:visible"/><path d="m512.08 778.747-.605 49.328M420.683 829.852l91.397-51.104" style="fill:none;stroke:red;stroke-width:.999997;stroke-linecap:round;stroke-linejoin:round;stroke-miterlimit:4;stroke-dasharray:none;stroke-opacity:1;visibility:visible"/><path d="m457.025 803.618-43.561 24.192" style="fill:none;stroke:red;stroke-width:1.99999;stroke-linecap:round;stroke-linejoin:round;stroke-miterlimit:4;stroke-dasharray:none;stroke-opacity:1;visibility:visible"/><path d="m463.096 800.246-6.07 3.372" style="fill:none;stroke:red;stroke-width:.999997;stroke-linecap:round;stroke-linejoin:round;stroke-miterlimit:4;stroke-dasharray:none;stroke-opacity:1;visibility:visible"/><path d="m505.617 776.63-42.521 23.615" style="fill:none;stroke:red;stroke-width:1.99999;stroke-linecap:round;stroke-linejoin:round;stroke-miterlimit:4;stroke-dasharray:none;stroke-opacity:1;visibility:visible"/><path d="M334.835 765.748h0M330.11 768.545l127.558 34.695M331.093 804.487l-.983-35.943" style="fill:none;stroke:red;stroke-width:.999997;stroke-linecap:round;stroke-linejoin:round;stroke-miterlimit:4;stroke-dasharray:none;stroke-opacity:1;visibility:visible"/><path d="m334.798 765.748 127.18 34.392" style="fill:none;stroke:red;stroke-width:1.99999;stroke-linecap:round;stroke-linejoin:round;stroke-miterlimit:4;stroke-dasharray:none;stroke-opacity:1;visibility:visible"/><path d="m495.61 846.417-1.148.68M288.473 809.883l-1.184.614" style="fill:none;stroke:red;stroke-width:.666665;stroke-linecap:round;stroke-linejoin:round;stroke-miterlimit:4;stroke-dasharray:none;stroke-opacity:1;visibility:visible"/><path d="m284.145 791.2-10.551 1.585" style="fill:none;stroke:red;stroke-width:.999997;stroke-linecap:round;stroke-linejoin:round;stroke-miterlimit:4;stroke-dasharray:none;stroke-opacity:1;visibility:visible"/><path d="m478.818 888.667-.87-3.478M477.003 885.794l2.759 2.23M487.058 849.091l8.552-2.674M486.301 849.545l8.161-2.448M284.305 809.213l4.168.67M284.682 808.986l2.607 1.511" style="fill:none;stroke:red;stroke-width:.666665;stroke-linecap:round;stroke-linejoin:round;stroke-miterlimit:4;stroke-dasharray:none;stroke-opacity:1;visibility:visible"/><path d="m408.195 1023.474-.303-.38c-.189-.262-.189-.262-.34-.526-.189-.266-.189-.266-.34-.531l-.302-.528c-.114-.265-.114-.265-.227-.567-.113-.266-.113-.266-.227-.567-.076-.265-.076-.265-.15-.568-.039-.264-.039-.264-.114-.567l-.076-.53c0-.3 0-.3-.036-.565-.001-.265-.001-.265.036-.531.038-.262.038-.262.038-.527.076-.227.076-.227.113-.492l.152-.453c.113-.19.113-.19.227-.416l.226-.379c.114-.188.114-.188.266-.377.15-.151.15-.151.338-.303.152-.113.152-.113.342-.264l.377-.227c.15-.036.15-.036.303-.113.037 0 .037-.037.112-.037.191-.078.191-.078.417-.116l.453-.075h.492c.226 0 .226 0 .452.039.266.036.266.036.53.113.226.039.226.039.492.113.226.114.226.114.49.227.266.113.266.113.492.227.227.152.227.152.454.265l.528.377c.228.151.228.19.454.379a4 4 0 0 1 .416.377c.227.228.227.228.415.454.19.264.19.264.416.492.152.264.152.264.34.49.152.266.152.266.341.53.114.302.114.302.264.566.114.266.114.266.266.568.074.264.074.264.188.568.076.263.076.263.152.566.074.264.074.264.15.566.038.264.038.264.076.568v1.058l-.076.529c-.037.227-.037.227-.112.49l-.151.455c-.115.227-.115.227-.191.415-.112.19-.112.19-.264.416-.114.152-.114.152-.264.34l-.303.303c-.19.15-.19.15-.377.264l-.38.226c-.187.076-.187.076-.414.152-.189.038-.189.038-.416.114l-.453.076h-.492c-.227-.04-.227-.04-.453-.04-.264-.073-.264-.073-.492-.111l-.529-.152c-.112-.039-.112-.039-.264-.113l-.227-.076c-.227-.114-.227-.114-.492-.227-.228-.15-.228-.15-.491-.303-.227-.19-.227-.19-.453-.34l-.455-.378c-.225-.188-.225-.188-.452-.415-.19-.227-.19-.227-.416-.453l-.076-.076" style="fill:none;stroke:#00ff4a;stroke-width:.999997;stroke-linecap:round;stroke-linejoin:round;stroke-miterlimit:4;stroke-dasharray:none;stroke-opacity:1;visibility:visible" visibility="hidden"/><path d="m407.932 1011.114.528-.304c.266-.112.266-.112.568-.224.152-.04.152-.04.34-.076.152-.038.152-.038.264-.076.303-.04.303-.04.643-.114h.643l.681.075c.339.039.339.039.68.115.377.113.377.113.717.188l.682.302c.377.15.377.15.717.34l.68.38c.34.226.34.226.643.489.34.267.34.267.642.531.34.263.34.263.643.567.303.301.303.301.567.641l.566.643c.227.379.227.379.492.717l.454.756.378.758c.188.377.188.377.34.793l.302.755.226.83c.076.382.076.382.19.797l.076.755c.036.416.036.416.036.794 0 .377 0 .377-.036.756l-.076.717-.151.68c-.113.304-.113.304-.227.643l-.152.302c-.037.152-.037.152-.112.303-.19.263-.19.263-.341.53-.188.263-.188.263-.415.49-.19.228-.19.228-.416.416-.264.19-.264.19-.492.379" style="fill:none;stroke:#00ff4a;stroke-width:.999997;stroke-linecap:round;stroke-linejoin:round;stroke-miterlimit:4;stroke-dasharray:none;stroke-opacity:1;visibility:visible" visibility="hidden"/><path d="m431.138 995.77-23.208 15.344c-.264.189-.264.189-.489.378-.115.114-.115.114-.228.19l-.454.453c-.264.34-.264.34-.567.719l-.302.528c-.151.302-.151.302-.303.566-.037.152-.037.152-.075.266l-.226.605-.151.68c0 .113 0 .113-.039.227l-.074.68c0 .34 0 .34-.039.718.039.34.039.34.039.718.074.378.074.378.113.756.075.416.075.416.188.869M418.212 1026.76c11.642-7.86 11.642-7.86 23.32-15.76.34-.265.34-.265.643-.53.303-.34.303-.34.567-.68.264-.416.264-.416.453-.794.19-.453.19-.453.34-.906.113-.454.113-.454.227-.946l.076-1.058c0-.528 0-.528-.038-1.058-.076-.568-.076-.568-.152-1.097l-.301-1.133c-.227-.568-.227-.568-.417-1.096-.264-.567-.264-.567-.53-1.096-.338-.491-.338-.491-.64-1.02-.38-.492-.38-.492-.718-.983-.416-.416-.416-.416-.832-.87l-.87-.793-.906-.681-.984-.529c-.491-.227-.491-.227-.983-.415l-.981-.303c-.492-.076-.492-.076-.946-.112-.492-.04-.492-.04-.945-.001l-.907.15-.832.304c-.376.187-.376.187-.716.415M405.323 1019.467c.076.379.076.379.19.719.149.377.149.377.262.717a4.3 4.3 0 0 0 .341.719c.151.34.151.34.342.717.226.341.226.341.414.643l.454.68c.264.304.264.304.492.605.264.263.264.263.529.567.303.265.303.265.567.529.302.227.302.227.604.492.302.19.302.19.605.415l.756.454c.34.188.34.188.643.34.34.113.34.113.68.264.34.076.34.076.642.19a.484.484 0 0 0 .227.036l.68.153c.34.037.34.037.643.037h.945l.604-.076.908-.226c.264-.115.264-.115.567-.228.112-.075.112-.075.264-.149l.528-.304" style="fill:none;stroke:#00ff4a;stroke-width:1.99999;stroke-linecap:round;stroke-linejoin:round;stroke-miterlimit:4;stroke-dasharray:none;stroke-opacity:1;visibility:visible" visibility="hidden"/><path d="m418.21 1026.761-10.278-15.647" style="fill:none;stroke:#00ff4a;stroke-width:.999997;stroke-linecap:round;stroke-linejoin:round;stroke-miterlimit:4;stroke-dasharray:none;stroke-opacity:1;visibility:visible" visibility="hidden"/><path d="M222.583 843.34c.077.19.077.19.151.34.152.267.152.267.341.53l.302.453c.19.264.19.264.378.491.19.19.19.19.378.416.227.19.227.19.416.379l.453.377c.19.152.19.152.416.303.227.113.227.113.453.265l.454.225.453.152c.227.075.227.075.455.114l.453.075c.227 0 .227 0 .454.038.226-.037.226-.037.415-.037.227-.038.227-.038.416-.115.189-.037.189-.037.379-.113.189-.114.189-.114.376-.188.19-.115.19-.115.341-.265.151-.113.151-.113.303-.265a1.152 1.152 0 0 0 .264-.34c.15-.189.15-.189.264-.378.113-.188.113-.188.19-.378.074-.226.074-.226.188-.453.038-.227.038-.227.114-.492.037-.227.037-.227.076-.49.037-.267.037-.267.037-.531v-.529c0-.262 0-.262-.037-.528-.039-.303-.039-.303-.076-.566-.076-.304-.076-.304-.152-.568-.075-.303-.075-.303-.15-.567-.115-.302-.115-.302-.228-.568-.113-.264-.113-.264-.226-.566-.152-.264-.152-.264-.264-.528l-.228-.379c-.037-.037-.037-.076-.112-.113-.151-.264-.151-.264-.341-.492-.15-.227-.15-.227-.34-.49l-.416-.418c-.188-.189-.188-.189-.415-.378-.19-.188-.19-.188-.416-.377l-.455-.301c-.226-.115-.226-.115-.453-.266l-.453-.226-.454-.15c-.226-.078-.226-.078-.453-.117l-.453-.073h-.416c-.227 0-.227 0-.455.037-.188.037-.188.037-.415.076l-.377.15c-.19.078-.19.078-.341.191-.188.113-.188.113-.34.226-.188.152-.188.152-.34.302-.114.151-.114.151-.264.302l-.227.378c-.115.227-.115.227-.19.416-.112.227-.112.227-.188.454-.038.225-.038.225-.114.453-.037.265-.037.265-.074.492-.039.264-.039.264-.039.528v.53c-.001.302-.001.302.038.566.038.303.038.303.075.568.037.037.037.037.037.075.04.265.04.265.114.492.075.265.075.265.152.566.113.265.113.265.226.567l.227.53c.037.112.037.112.113.188M225.04 847.46h0l.717.492" style="fill:none;stroke:#9500ff;stroke-width:.999997;stroke-linecap:round;stroke-linejoin:round;stroke-miterlimit:4;stroke-dasharray:none;stroke-opacity:1;visibility:visible" visibility="hidden"/><path d="M224.285 832.305c.264-.115.264-.115.565-.19.267-.074.304-.074.568-.113l.605-.075c.302 0 .302 0 .604.038.303.037.303.037.643.075l.605.15c.34.152.34.152.643.265.34.152.34.152.642.303.341.19.341.19.642.379.303.19.303.19.643.416.302.264.302.264.565.49.304.264.304.264.607.567l.53.605c.263.303.263.303.526.643l.457.68c.225.34.225.34.452.717l.378.756c.19.38.19.38.341.756.149.379.149.379.301.794.113.378.113.378.228.794a8.1 8.1 0 0 0 .189.795c.037.377.037.377.111.755.041.415.041.415.041.793.035.379.035.379.035.756-.036.379-.036.379-.075.719-.074.377-.074.377-.113.717-.075.34-.075.34-.19.643-.112.302-.112.302-.225.642-.151.266-.151.266-.265.568-.19.264-.19.264-.34.491-.19.227-.19.227-.416.453-.15.19-.15.19-.34.34l-.076.076c-.226.151-.226.151-.492.34-.224.114-.224.114-.49.264" style="fill:none;stroke:#9500ff;stroke-width:.999997;stroke-linecap:round;stroke-linejoin:round;stroke-miterlimit:4;stroke-dasharray:none;stroke-opacity:1;visibility:visible" visibility="hidden"/><path d="m225.76 847.951.602.379c.304.15.304.15.608.264l.603.227.227.076c.302.113.302.113.605.189.34.037.34.037.642.075.114-.001.114-.001.266.038h.604c.302.001.302.001.566-.038.152-.038.152-.038.303-.038.304-.076.304-.076.567-.113l.832-.303" style="fill:none;stroke:#9500ff;stroke-width:1.99999;stroke-linecap:round;stroke-linejoin:round;stroke-miterlimit:4;stroke-dasharray:none;stroke-opacity:1;visibility:visible" visibility="hidden"/><path d="M232.183 848.707c12.662-6.5 12.662-6.5 25.287-12.964l.679-.453.604-.604.529-.68c.19-.379.19-.416.379-.795l.301-.906c.113-.492.113-.492.19-.983l.074-1.021-.075-1.095c-.076-.53-.076-.53-.15-1.096-.151-.568-.151-.568-.303-1.097-.19-.567-.19-.567-.377-1.096l-.531-1.058c-.188-.416-.225-.378-.452-.794-.039-.115-.039-.115-.113-.227-.342-.492-.342-.492-.68-.944-.379-.454-.379-.454-.756-.87l-.832-.754c-.417-.341-.417-.341-.832-.644-.455-.303-.455-.303-.907-.53-.453-.226-.453-.226-.907-.414-.454-.115-.454-.115-.908-.265-.413-.039-.413-.039-.869-.114-.113 0-.113.038-.188.038h-.681c-.378.076-.416.076-.795.189l-.755.3M225.569 847.838l-.529-.377" style="fill:none;stroke:#9500ff;stroke-width:1.99999;stroke-linecap:round;stroke-linejoin:round;stroke-miterlimit:4;stroke-dasharray:none;stroke-opacity:1;visibility:visible" visibility="hidden"/><path d="M249.115 819.833c-12.397 6.236-12.397 6.236-24.832 12.472-.263.152-.263.152-.49.265-.15.076-.15.076-.266.19l-.453.3c-.227.23-.227.23-.453.418-.076.112-.076.112-.191.189l-.376.451-.453.757c-.152.265-.152.265-.303.568-.113.302-.113.302-.19.604l-.074.227c-.114.303-.114.303-.189.606-.038.34-.038.34-.115.68.001.34.001.34-.037.68v.87l.076.717c.038.339.038.339.113.718.076.377.076.377.15.718.115.378.115.378.228.718.113.378.113.378.265.718.15.341.15.341.302.718.151.34.151.34.34.681.19.301.19.301.416.643.188.301.188.301.417.642.226.264.226.264.49.567l.49.567c.267.226.267.226.53.49l.53.455" style="fill:none;stroke:#9500ff;stroke-width:1.99999;stroke-linecap:round;stroke-linejoin:round;stroke-miterlimit:4;stroke-dasharray:none;stroke-opacity:1;visibility:visible" visibility="hidden"/><path d="m232.185 848.707-7.9-16.402" style="fill:none;stroke:#9500ff;stroke-width:.999997;stroke-linecap:round;stroke-linejoin:round;stroke-miterlimit:4;stroke-dasharray:none;stroke-opacity:1;visibility:visible" visibility="hidden"/><path d="M265.214 944.21c-.04-.147-.04-.147-.107-.294-.12-.386-.08-.386-.226-.76-.201-.533-.201-.533-.427-1.053-.253-.533-.253-.533-.52-1.027l-.613-.986c-.334-.454-.334-.454-.681-.867l-.746-.827c-.427-.386-.427-.386-.84-.72-.413-.306-.413-.306-.827-.6-.453-.266-.453-.266-.866-.493-.454-.187-.454-.187-.907-.387-.413-.106-.413-.106-.867-.226-.426-.027-.426-.027-.84-.067-.413 0-.413 0-.826.04-.387.067-.387.067-.801.187-.333.146-.333.146-.68.293-12.106 6.84-12.24 6.92-24.04 13.653a1.167 1.167 0 0 0-.413.227c-.373.227-.373.227-.72.493-.186.147-.186.147-.413.334-.067.12-.067.12-.187.226-.146.227-.186.227-.346.414-.147.266-.147.266-.294.493-.08.12-.08.12-.16.227-.146.266-.146.266-.253.533-.12.293-.12.293-.2.56-.027.12-.027.12-.067.267-.08.266-.08.266-.16.573-.026.333-.026.333-.106.64-.001.333-.001.333-.041.64 0 .453 0 .453.04.867 0 .346 0 .346.04.68.067.346.067.346.147.68.08.346.08.346.147.68.12.386.12.386.227.72.119.346.119.346.266.68.16.346.16.346.307.68.187.306.187.306.373.64.2.346.2.346.387.653.227.293.227.293.453.64.227.267.227.267.454.52.226.267.226.267.493.533.227.267.227.267.48.494.267.226.267.226.573.453l.534.373.746.454c.307.16.307.16.574.266.306.16.306.16.599.227.414.16.414.16.84.227.294.08.294.08.6.12.267.04.267.04.56.04h.267c.307 0 .307 0 .614-.04l.826-.16c.267-.067.267-.067.494-.187.146-.04.146-.04.306-.107.227-.12.227-.12.48-.226 12.134-7 12.134-7 24.227-14.027.347-.227.347-.227.653-.453.294-.267.294-.267.56-.56.227-.307.227-.347.454-.694.186-.373.186-.373.346-.746.147-.454.147-.454.254-.867.079-.493.079-.493.159-.947v-1.026c-.04-.494-.04-.494-.12-1.014-.066-.533-.066-.533-.186-1.066" style="fill:none;fill-opacity:1;fill-rule:nonzero;stroke:#ffdf00;stroke-width:1.33333;visibility:visible" visibility="hidden"/><path d="M227.723 958.352c-.076-.265-.076-.265-.113-.529 0-.263 0-.263-.037-.53v-1.019l.074-.454c.076-.226.076-.226.114-.453.076-.227.076-.227.152-.416.113-.19.113-.19.19-.379l.225-.377c.151-.15.151-.15.265-.303.152-.112.152-.112.302-.264.151-.113.151-.113.34-.226l.303-.152h.037l.38-.15.375-.078h.833l.454.078c.226.074.226.074.453.112.04.038.04.038.076.038l.377.152.454.226c.19.114.19.114.416.264l.453.303c.19.15.19.15.416.34.19.19.19.19.416.377.19.19.19.19.379.416.188.227.188.227.338.454.19.226.19.226.342.454.15.264.15.264.34.528.113.227.113.227.263.492l.227.53.227.53c.076.299.076.299.152.564l.15.53.078.53.075.527v.531c-.039.265-.039.265-.039.492-.037.226-.037.226-.075.49-.038.227-.038.227-.113.454-.076.19-.076.19-.152.416-.076.19-.076.19-.19.378-.112.152-.112.152-.225.34-.151.152-.151.152-.265.303-.152.15-.152.15-.303.264l-.302.227-.378.15-.377.152-.38.076h-.83l-.454-.076c-.226-.076-.226-.076-.453-.113-.227-.115-.227-.115-.454-.19-.189-.112-.189-.112-.416-.225-.226-.114-.226-.114-.453-.265-.227-.151-.227-.151-.416-.303-.227-.152-.227-.152-.453-.34l-.266-.265c-.074-.037-.074-.037-.113-.113-.188-.227-.188-.227-.377-.416l-.378-.454c-.152-.226-.152-.226-.34-.453-.153-.264-.153-.264-.303-.49-.151-.267-.151-.267-.265-.531-.149-.264-.149-.264-.264-.529-.113-.262-.113-.262-.189-.528-.076-.153-.076-.153-.113-.303l-.076-.227c-.077-.303-.077-.303-.114-.567" style="fill:none;stroke:#ffdf00;stroke-width:.999997;stroke-linecap:round;stroke-linejoin:round;stroke-miterlimit:4;stroke-dasharray:none;stroke-opacity:1;visibility:visible" visibility="hidden"/><path d="M229.613 950.302c.226-.15.226-.15.492-.264.113-.039.113-.039.264-.076l.226-.076c.303-.076.303-.076.567-.112.303-.039.303-.039.568-.039h.604c.303.076.303.076.643.113.302.076.302.076.605.19.301.112.301.112.641.226l.607.303c.3.188.3.188.64.377.304.19.304.19.605.416.266.227.266.227.567.492.303.264.303.264.568.528.264.303.264.303.567.567.226.341.226.341.49.643.228.34.228.34.493.68.187.34.187.34.415.681.188.34.188.34.378.717.19.38.19.38.34.756l.302.756.227.756c.113.38.113.38.19.756l.149.756c.04.34.04.34.04.718.037.378.037.378.037.718-.037.38-.037.38-.037.72-.076.339-.076.339-.114.641-.076.341-.076.341-.152.642-.113.304-.113.304-.225.568-.151.301-.151.301-.265.567-.152.226-.152.226-.342.453-.15.227-.15.227-.34.453l-.302.227c-.075.076-.075.076-.114.152l-.452.301" style="fill:none;stroke:#ffdf00;stroke-width:.999997;stroke-linecap:round;stroke-linejoin:round;stroke-miterlimit:4;stroke-dasharray:none;stroke-opacity:1;visibility:visible" visibility="hidden"/><path d="M262.722 951.587c-12.095 7.03-12.095 7.03-24.227 14.023-.265.113-.265.113-.492.226-.15.075-.15.075-.3.112-.23.115-.23.115-.493.192l-.83.15c-.304.038-.304.038-.607.038h-.263c-.303-.001-.303-.001-.567-.038-.303-.038-.303-.038-.605-.114-.416-.076-.416-.076-.832-.228-.303-.074-.303-.074-.604-.225-.265-.113-.265-.113-.568-.265l-.754-.454-.53-.377c-.303-.227-.303-.227-.568-.455-.264-.225-.264-.225-.49-.49-.267-.264-.267-.264-.494-.53l-.452-.529c-.226-.34-.226-.34-.453-.643-.19-.302-.19-.302-.378-.642-.189-.34-.189-.34-.378-.642M229.613 950.302c12.207-6.955 12.207-6.955 24.453-13.87l.681-.305c.415-.112.415-.112.794-.187.414-.038.414-.038.829-.038l.833.076c.454.112.454.112.87.226l.906.378c.416.226.416.226.871.492l.83.604c.417.341.417.341.83.718l.757.832c.343.415.343.415.68.87l.606.981c.265.492.265.492.529 1.021.227.53.227.53.416 1.06.15.375.113.375.227.753.075.153.075.153.113.305.113.528.113.528.19 1.057.073.53.073.53.112 1.021v1.02c-.075.454-.075.454-.151.944-.114.416-.114.416-.264.871-.151.377-.151.377-.34.755-.227.34-.227.378-.455.681-.264.301-.264.301-.567.567-.302.226-.302.226-.641.453M227.837 960.695l-.303-.68c-.15-.34-.15-.34-.264-.681-.113-.339-.113-.339-.228-.718l-.15-.68-.152-.68c-.038-.341-.038-.341-.038-.681-.037-.415-.037-.415-.037-.87.037-.301.037-.301.037-.642.076-.301.076-.301.113-.643.076-.3.076-.3.152-.566.038-.15.038-.15.075-.264.076-.264.076-.264.19-.567.112-.265.112-.265.264-.53l.151-.225c.153-.228.153-.228.303-.493.15-.19.19-.19.34-.415.113-.113.113-.113.188-.228l.416-.34c.341-.264.341-.264.719-.49" style="fill:none;stroke:#ffdf00;stroke-width:1.99999;stroke-linecap:round;stroke-linejoin:round;stroke-miterlimit:4;stroke-dasharray:none;stroke-opacity:1;visibility:visible" visibility="hidden"/><path d="m229.613 950.302 8.882 15.306" style="fill:none;stroke:#ffdf00;stroke-width:.999997;stroke-linecap:round;stroke-linejoin:round;stroke-miterlimit:4;stroke-dasharray:none;stroke-opacity:1;visibility:visible" visibility="hidden"/><path d="M443.455 883.251c-.107-.56-.107-.56-.227-1.133-.146-.6-.146-.6-.293-1.173-.227-.56-.227-.56-.453-1.135-.267-.559-.267-.559-.574-1.132-.306-.533-.306-.533-.64-1.013-.373-.495-.373-.495-.76-.987l-.866-.868c-.454-.412-.454-.412-.907-.799-.453-.333-.453-.333-.947-.64l-.986-.533c-.52-.188-.52-.188-1.014-.373-.493-.12-.493-.12-1.026-.227l-.974-.08c-.493.04-.493.04-.946.08-.454.107-.454.107-.907.227-.413.185-.413.185-.84.373-11.933 7.04-11.933 7.04-23.88 14.067-.307.185-.307.185-.573.333-.107.08-.107.08-.227.2-.253.187-.253.187-.52.372-.227.268-.227.268-.453.495-.08.105-.08.105-.16.225-.227.268-.227.268-.414.521-.186.267-.186.267-.333.574-.08.105-.08.105-.12.225-.147.335-.147.308-.307.641-.106.307-.106.307-.186.64-.107.387-.107.387-.187.72 0 .12 0 .12-.04.227-.04.347-.04.347-.067.72-.04.372-.04.372-.04.72 0 .412 0 .412.04.787.027.385.027.385.067.76.12.453.12.453.187.905.12.375.12.375.2.761.146.374.146.374.253.76.2.374.2.374.347.747.186.347.186.347.373.72.187.347.187.347.413.68.2.307.2.307.387.572.04.028.04.028.067.108.266.307.266.307.493.6.267.307.267.307.573.612.267.268.267.268.56.535.347.293.347.293.72.56l.614.453c.333.187.333.187.68.372.333.201.333.201.68.348.333.107.333.107.68.227.066.04.066.04.186.08.334.105.334.105.72.185.334.068.334.068.68.108.454.04.454.04.947.08.333-.04.333-.04.68-.04.293-.08.293-.08.64-.108.107-.039.107-.039.267-.079.333-.08.333-.08.64-.146.413-.2.413-.2.866-.427.227-.133.454-.268.667-.4.013 0 .013-.013.027-.028 11.253-6.745 11.493-6.892 23.226-13.972.387-.228.387-.228.76-.48.347-.308.347-.308.68-.653.267-.375.267-.375.574-.747l.293-.613c.08-.147.08-.147.16-.267.147-.48.147-.48.293-.973.12-.495.12-.495.227-1.027.04-.56.04-.56.04-1.093 0-.56 0-.56-.04-1.175" style="fill:none;fill-opacity:1;fill-rule:nonzero;stroke:#00d4ff;stroke-width:1.33333;visibility:visible" visibility="hidden"/><path d="M405.815 899.58c-.152-.262-.152-.301-.265-.565-.151-.305-.151-.305-.264-.568-.114-.302-.114-.302-.19-.605-.113-.302-.113-.302-.189-.567-.037-.302-.037-.302-.113-.605l-.075-.604v-1.133l.075-.53c.076-.265.076-.265.113-.53.076-.225.076-.225.19-.489.074-.229.074-.229.188-.454.114-.228.114-.228.265-.417 0-.038 0-.038.038-.075l.227-.303.34-.34c.188-.152.188-.152.379-.302l.376-.227c.228-.113.228-.113.417-.19l.453-.149.454-.077c.264 0 .264 0 .492-.037.264.037.264.037.529.037.227.037.227.037.49.076l.531.15c.226.078.226.078.489.191l.531.226c.226.15.226.15.491.302.225.15.225.15.49.34l.379.303.075.075c.227.227.227.227.453.416.227.226.227.226.416.454.19.264.19.264.416.49.19.266.19.266.34.531.19.263.19.263.34.566l.304.53.226.604c.113.301.113.301.226.566l.152.605c.076.303.076.303.114.606.037.299.037.299.074.566v1.173l-.074.527c-.076.266-.076.266-.114.53-.076.226-.076.226-.189.492-.076.226-.076.226-.19.453-.149.19-.149.19-.262.416l-.304.377c-.15.152-.15.152-.303.34-.188.152-.188.152-.376.266-.191.149-.191.149-.38.264-.226.075-.226.075-.453.189-.227.036-.227.036-.453.113l-.454.076c-.228.038-.228.038-.492.038-.226-.001-.226-.001-.49-.038-.266-.038-.266-.038-.492-.076l-.53-.15c-.264-.077-.264-.077-.529-.19-.225-.113-.225-.113-.49-.226-.266-.152-.266-.152-.492-.303-.265-.15-.265-.15-.491-.34l-.454-.379c-.226-.188-.226-.188-.453-.416-.227-.225-.227-.225-.416-.452-.227-.265-.227-.265-.416-.491-.152-.265-.152-.265-.34-.53-.19-.263-.19-.263-.34-.528M431.1 873.84h-.038" style="fill:none;stroke:#00d4ff;stroke-width:.999997;stroke-linecap:round;stroke-linejoin:round;stroke-miterlimit:4;stroke-dasharray:none;stroke-opacity:1;visibility:visible" visibility="hidden"/><path d="M407.212 887.902c.264-.113.264-.113.568-.264.339-.076.339-.115.642-.19.34-.074.34-.074.642-.112.34-.039.34-.039.68-.039.379 0 .379 0 .719.038.34.038.34.038.717.115.34.073.34.073.72.188.339.112.339.112.716.264.342.15.342.15.68.34.379.19.379.19.719.416l.68.452c.341.265.341.265.643.531.341.302.341.302.642.604.303.302.303.302.606.642l.529.683c.264.376.264.376.528.716l.076.15.379.607c.188.415.188.415.416.792.15.416.15.416.338.832.152.416.152.416.266.833.15.414.15.414.226.83.114.417.114.417.19.833l.074.829c.039.381.039.381.039.796 0 .377 0 .377-.039.793-.037.377-.037.377-.113.756-.075.377-.075.377-.15.718l-.228.68c-.151.34-.151.34-.302.642-.15.302-.188.302-.34.605-.227.265-.227.265-.416.53l-.453.452c-.264.19-.264.19-.53.416" style="fill:none;stroke:#00d4ff;stroke-width:.999997;stroke-linecap:round;stroke-linejoin:round;stroke-miterlimit:4;stroke-dasharray:none;stroke-opacity:1;visibility:visible" visibility="hidden"/><path d="M405.059 899.958c-.19-.379-.19-.379-.379-.719-.15-.377-.15-.377-.34-.754-.113-.38-.113-.38-.264-.756-.076-.38-.076-.38-.189-.756-.076-.455-.076-.455-.19-.908l-.073-.756c-.038-.379-.038-.379-.038-.794 0-.34 0-.34.037-.718.037-.378.037-.378.075-.718.038-.113.038-.113.038-.226.075-.34.075-.34.188-.72.076-.339.076-.339.19-.641.152-.339.152-.302.302-.642.038-.115.038-.115.114-.227.15-.303.15-.303.34-.568.189-.264.189-.264.416-.53l.15-.225c.227-.227.227-.227.455-.49l.53-.381a.983.983 0 0 1 .224-.187c.265-.152.265-.152.569-.342" style="fill:none;stroke:#00d4ff;stroke-width:1.99999;stroke-linecap:round;stroke-linejoin:round;stroke-miterlimit:4;stroke-dasharray:none;stroke-opacity:1;visibility:visible" visibility="hidden"/><path d="m407.212 887.902 23.888-14.06.83-.379.908-.226c.452-.038.452-.038.944-.075l.984.075c.528.113.528.113 1.02.226.49.19.49.19 1.02.379l.982.53c.492.301.492.301.946.641.453.377.453.377.906.794l.87.87.756.982c.34.492.34.492.642 1.021.303.567.303.567.567 1.134l.453 1.133c.15.567.15.567.303 1.173l.227 1.133c.037.605.037.605.037 1.172 0 .529 0 .529-.037 1.095-.114.53-.114.53-.228 1.02l-.302.983c-.076.115-.076.115-.15.267l-.303.604c-.303.376-.303.376-.567.756-.34.339-.34.339-.68.64-.378.267-.378.267-.756.493" style="fill:none;stroke:#00d4ff;stroke-width:1.99999;stroke-linecap:round;stroke-linejoin:round;stroke-miterlimit:4;stroke-dasharray:none;stroke-opacity:1;visibility:visible" visibility="hidden"/><path d="M440.472 890.282c-11.981 7.22-11.981 7.22-23.924 14.4-.454.227-.454.227-.868.416-.304.075-.304.075-.644.15-.15.041-.15.041-.265.078-.34.037-.34.037-.643.112-.34 0-.34 0-.68.039l-.945-.077c-.339-.037-.339-.037-.68-.113-.377-.076-.377-.076-.717-.19-.114-.037-.114-.037-.19-.074l-.68-.228c-.341-.15-.341-.15-.68-.34l-.681-.377-.604-.455c-.379-.263-.379-.263-.719-.566-.302-.264-.302-.264-.566-.528-.303-.303-.303-.303-.567-.606-.227-.302-.227-.302-.492-.605-.037-.075-.037-.075-.075-.113-.189-.265-.189-.265-.378-.567-.227-.34-.227-.34-.416-.68" style="fill:none;stroke:#00d4ff;stroke-width:1.99999;stroke-linecap:round;stroke-linejoin:round;stroke-miterlimit:4;stroke-dasharray:none;stroke-opacity:1;visibility:visible" visibility="hidden"/><path d="m479.762 888.024-1.56-1.314M477.003 885.794l1.556 1.213" style="fill:none;stroke:red;stroke-width:.666665;stroke-linecap:round;stroke-linejoin:round;stroke-miterlimit:4;stroke-dasharray:none;stroke-opacity:1;visibility:visible"/><path d="m232.185 848.707-9.602-5.367" style="fill:none;stroke:#9500ff;stroke-width:.999997;stroke-linecap:round;stroke-linejoin:round;stroke-miterlimit:4;stroke-dasharray:none;stroke-opacity:1;visibility:visible" visibility="hidden"/></svg>