<svg xmlns="http://www.w3.org/2000/svg" baseProfile="full" height="1122.52" preserveAspectRatio="xMinYMin meet" style="width:765px;height:943px" width="793.701" xml:space="preserve"><path d="m472.696 59.878 228.951 59.444M710.9 121.363l4.036-2.404" style="fill:none;stroke:red;stroke-width:.999997;stroke-linecap:round;stroke-linejoin:round;stroke-miterlimit:4;stroke-dasharray:none;stroke-opacity:1;visibility:visible"/><path d="m470.565 54.468-.453.181c-1.996.952-1.996.952-3.992 1.951l-.272.181M710.445 291.67c2.359-86.445 2.359-86.445 4.672-172.935 0-.136 0-.136-.045-.272-.046-.183-.046-.183-.138-.363M714.936 118.097l-.227-.317-.453-.227L471.022 54.51l-.453-.045" style="fill:none;stroke:red;stroke-width:1.99999;stroke-linecap:round;stroke-linejoin:round;stroke-miterlimit:4;stroke-dasharray:none;stroke-opacity:1;visibility:visible"/><path d="m702.282 118.959.317-.045 7.031 1.86M709.766 120.818l.316.227.183.317.089.317-4.535 173.208-.045.319-.181.317-.363.272" style="fill:none;stroke:red;stroke-width:.999997;stroke-linecap:round;stroke-linejoin:round;stroke-miterlimit:4;stroke-dasharray:none;stroke-opacity:1;visibility:visible"/><path d="m601.687 186.22 108.624-64.493" style="fill:none;stroke:#00ff4a;stroke-width:.999997;stroke-linecap:round;stroke-linejoin:round;stroke-miterlimit:4;stroke-dasharray:none;stroke-opacity:1;visibility:visible" visibility="hidden"/><path d="m593.658 183.044.41-.227 107.662-63.533M705.23 295.795l-104.904 72.113" style="fill:none;stroke:#00ff4a;stroke-width:1.99999;stroke-linecap:round;stroke-linejoin:round;stroke-miterlimit:4;stroke-dasharray:none;stroke-opacity:1;visibility:visible" visibility="hidden"/><path d="m599.825 367.549 1.18-181.1c0-.181 0-.181-.045-.363-.047-.136-.047-.136-.136-.272-.137-.181-.137-.181-.272-.317M600.553 185.494l-.455-.227-7.122-2.017M467.21 77.825l.271.363c.137.227.137.227.227.452.045.32.045.32.092.591v.636c-.001.362-.001.362-.091.725l-.182.635-.272.633c-.135.273-.135.273-.317.547-.183.226-.183.226-.409.453-.135.09-.135.09-.317.227M464.943 83.041c-.137-.181-.137-.181-.273-.317-.136-.272-.136-.272-.226-.499-.044-.272-.044-.272-.09-.59-.047-.317-.047-.317-.047-.635.047-.363.047-.363.092-.68.09-.363.09-.363.227-.68.09-.317.09-.317.272-.635.134-.272.134-.272.317-.545.181-.227.181-.227.408-.453.181-.137.181-.137.407-.272.182-.091.182-.091.409-.136M416.912 102.136c0 .136.044.136.044.272v.272l-.089.272-.092.272M415.959 103.405c0-.09 0-.09-.045-.225-.046-.092-.046-.137-.046-.228a.672.672 0 0 0 .046-.317l.09-.272c.092-.091.092-.091.136-.227l.182-.181M357.454 116.555l114.654-56.83" style="fill:none;stroke:#00ff4a;stroke-width:.999997;stroke-linecap:round;stroke-linejoin:round;stroke-miterlimit:4;stroke-dasharray:none;stroke-opacity:1;visibility:visible" visibility="hidden"/><path d="m416.777 103.221-.181.181-.136.136-.182.046-.181-.046-.136-.136M416.324 101.951l.181-.09.136.045.182.09.09.136M466.213 83.083l-.09.045-.409.136-.409-.045-.361-.181M466.44 77.596l.41.045.36.182" style="fill:none;stroke:#00ff4a;stroke-width:.999997;stroke-linecap:round;stroke-linejoin:round;stroke-miterlimit:4;stroke-dasharray:none;stroke-opacity:1;visibility:visible" visibility="hidden"/><path d="M465.216 57.14h-.227l-115.2 56.784" style="fill:none;stroke:#00ff4a;stroke-width:1.99999;stroke-linecap:round;stroke-linejoin:round;stroke-miterlimit:4;stroke-dasharray:none;stroke-opacity:1;visibility:visible" visibility="hidden"/><path d="M473.652 149.437 472.2 59.636l-.09-.317-.182-.272-.317-.228-.408-.136-5.987-1.542" style="fill:none;stroke:#00ff4a;stroke-width:.999997;stroke-linecap:round;stroke-linejoin:round;stroke-miterlimit:4;stroke-dasharray:none;stroke-opacity:1;visibility:visible" visibility="hidden"/><path d="M574.699 204.092c-.09-.363-.09-.408-.136-.772a1.724 1.724 0 0 1 0-.68c.046-.363.046-.363.136-.68.137-.272.137-.272.317-.544l.41-.408M574.745 345.007c-.181.227-.181.227-.317.499-.09.317-.09.317-.136.59v.679c.045.365.045.365.136.728.136.362.136.362.317.679M579.008 349.589l.181-.363c.046-.046.091-.046.091-.136l.182-.635v-.681l-.182-.816-.272-.544c-.183-.364-.183-.364-.41-.68-.27-.272-.27-.272-.498-.544-.317-.227-.317-.227-.59-.408-.316-.183-.316-.183-.634-.319l-.636-.09c-.27 0-.27 0-.589.045M574.745 348.182c.183.317.183.317.41.635.225.317.225.317.498.589.272.181.272.181.59.41l.634.27c.318.091.318.091.59.137.317 0 .317 0 .589-.045.273-.09.273-.09.544-.228M367.114 280.695c.09-.225.09-.225.226-.498.046-.272.046-.272.091-.59 0-.453 0-.453-.045-.907-.046-.227-.046-.227-.136-.409-.136-.361-.136-.361-.274-.68-.18-.317-.18-.317-.36-.589-.274-.272-.274-.272-.501-.544-.271-.183-.271-.183-.543-.408-.272-.137-.272-.137-.544-.228-.273-.09-.273-.09-.545-.136l-.543.09M362.804 277.429v.68c.046.136.046.136.09.317l.092.364.272.635c.181.317.181.317.408.59l.453.542c.272.183.272.183.545.409.272.136.272.136.544.227.272.09.272.09.544.136a.999.999 0 0 1 .363-.046c.09 0 .09 0 .181-.045M358.404 138.373c-.18.181-.18.181-.362.408-.136.227-.136.227-.227.499-.09.317-.09.317-.135.634 0 .363 0 .363.044.682.044.362.044.362.136.724.091.137.091.137.136.318M361.716 143.544c.182-.227.227-.227.362-.408l.272-.544.091-.635v-.681c-.089-.318-.089-.363-.179-.68-.139-.363-.139-.363-.275-.68-.225-.318-.225-.318-.407-.636-.226-.272-.226-.272-.5-.544l-.544-.363c-.272-.136-.272-.136-.589-.272l-.544-.09-.545.089M357.998 141.638l.181.363c.181.272.181.317.363.59.272.27.272.27.498.544.32.227.32.227.635.409.228.136.228.136.5.226l.545.091.543-.09M353.824 264.685c.091-.227.091-.272.138-.499 0-.226 0-.272-.047-.499-.045-.272-.045-.272-.135-.544l-.273-.545c-.136-.181-.136-.181-.319-.363M350.876 262.189l-.09.453v.545c.09.273.09.273.136.543.136.273.136.273.272.5.181.272.181.272.362.5.228.135.228.18.408.316.227.136.227.136.454.227l.454.09M353.234 262.235c-.227-.225-.227-.225-.499-.453-.227-.09-.227-.09-.453-.227-.227 0-.227 0-.455-.045M348.836 161.866c-.228 0-.228 0-.454-.045l-.454-.181c-.226-.182-.226-.182-.408-.363l-.362-.453-.272-.546c-.09-.272-.09-.272-.136-.498-.047-.318-.047-.318-.047-.635M347.791 157.921c.229.045.229.045.455.045.226.136.226.136.453.227l.453.363.363.453.272.545c.045.272.045.272.136.544v.544c-.045.272-.045.272-.09.5M595.381 189.578c.272 0 .272 0 .544-.045l.545-.181c2.177-1.27 2.177-1.27 4.31-2.586M590.755 229.536c.272 0 .272 0 .544.044.226.137.271.137.498.228.227.18.227.18.499.408.183.226.183.226.364.498.135.272.18.272.272.544l.181.636v.544c-.09.227-.09.272-.181.499M591.799 233.708l-.544-.091c-.227-.09-.272-.09-.5-.227-.225-.18-.225-.18-.497-.362-.182-.272-.182-.272-.365-.5-.133-.271-.18-.271-.272-.59-.09-.272-.09-.272-.181-.59v-.588c.092-.227.092-.227.18-.5M592.115 339.338l.272.544c.09.272.09.317.137.59v.544c-.047.227-.047.227-.137.499M590.256 338.158c.227 0 .227 0 .453.045l.544.272c.227.182.272.182.499.363.183.272.183.272.364.499M591.253 342.195c-.272-.045-.272-.045-.498-.09-.272-.091-.272-.091-.545-.227-.226-.181-.226-.181-.453-.408l-.364-.455c-.133-.272-.133-.272-.272-.589-.09-.272-.09-.272-.134-.544-.047-.272-.047-.272 0-.544.043-.272.043-.272.133-.499M578.963 206.496c-.273.09-.273.136-.544.226-.272.046-.272.046-.591.09l-.635-.089-.633-.273c-.32-.226-.32-.226-.591-.408-.272-.317-.272-.317-.544-.589-.225-.319-.225-.319-.41-.681-.179-.318-.179-.318-.315-.68" style="fill:none;stroke:#9500ff;stroke-width:.999997;stroke-linecap:round;stroke-linejoin:round;stroke-miterlimit:4;stroke-dasharray:none;stroke-opacity:1;visibility:visible" visibility="hidden"/><path d="M575.425 201.008c.272-.136.272-.136.545-.228.317-.044.317-.044.59-.089.273.044.273.044.589.089l.726.273c.272.227.272.227.589.453.272.272.272.272.499.544l.453.636.272.726.181.725v.725l-.181.636c-.135.318-.135.318-.318.59-.09.09-.09.09-.181.136-.089.136-.089.136-.226.272M346.704 159.143l.09-.453.273-.408.318-.272.407-.091M349.834 161.138l-.227.408-.362.227-.408.09M595.11 189.575l-.453-.09M350.333 290.716v-.136M351.829 261.507l-.408.09-.317.227-.227.363M352.873 265.363l.408-.09.317-.227.227-.363M361.264 143.768l.453-.227M358.859 138.099l-.453.272M366.298 281.237l.453-.181.363-.363M363.94 275.794l-.455.227-.361.362-.228.454-.09.59M345.554 118.658l248.285 70.593M578.601 349.949l.41-.363M575.653 344.415l-.544.227-.364.362M592.117 341.875l-.408.227-.453.09M589.123 338.837l.272-.363.41-.272.453-.045M592.389 341.513l-.272.363M589.622 230.258l.272-.408.41-.227.453-.09M592.933 232.934l-.272.408-.408.272-.455.09M595.02 189.575h.499M595.881 189.53l-.272.045" style="fill:none;stroke:#9500ff;stroke-width:.999997;stroke-linecap:round;stroke-linejoin:round;stroke-miterlimit:4;stroke-dasharray:none;stroke-opacity:1;visibility:visible" visibility="hidden"/><path d="m594.656 371.675.453-.181 4.172-2.904c.182-.135.182-.135.317-.27M343.892 116.875c-.137.135-.137.135-.272.317l-.09.272c-.047.136-.047.136-.047.316M566.678 362.643l27.479 9.03h.5M349.244 114.333l-.453.09-4.58 2.269-.319.181" style="fill:none;stroke:#9500ff;stroke-width:1.99999;stroke-linecap:round;stroke-linejoin:round;stroke-miterlimit:4;stroke-dasharray:none;stroke-opacity:1;visibility:visible" visibility="hidden"/><path d="m358.214 116.758-8.563-2.425" style="fill:none;stroke:#9500ff;stroke-width:.999997;stroke-linecap:round;stroke-linejoin:round;stroke-miterlimit:4;stroke-dasharray:none;stroke-opacity:1;visibility:visible" visibility="hidden"/><path d="m592.976 183.25-234.76-66.492M343.484 117.78l6.85 172.8M350.333 290.534l.045.363.182.362.272.227.317.181 204.629 67.375" style="fill:none;stroke:#9500ff;stroke-width:1.99999;stroke-linecap:round;stroke-linejoin:round;stroke-miterlimit:4;stroke-dasharray:none;stroke-opacity:1;visibility:visible" visibility="hidden"/><path d="M302.155 182.209a4.137 4.137 0 0 0 1.16 2.3M303.315 184.508c.172.165.375.289.598.366M303.91 184.869a.333.333 0 0 0 .28-.021M310.346 180.429a2.697 2.697 0 0 0-.25-.792 2.385 2.385 0 0 0-.491-.668M302.817 181.209a.373.373 0 0 0-.277.021M304.333 184.778a.354.354 0 0 0 .182-.21M304.514 184.568c.07-.222.093-.459.063-.69M304.575 183.878a4.01 4.01 0 0 0-.397-1.246 4.004 4.004 0 0 0-.77-1.059M303.407 181.573a1.465 1.465 0 0 0-.59-.364M302.397 181.3a.403.403 0 0 0-.184.214" style="fill:none;stroke:#9500ff;stroke-width:.666665;stroke-linecap:round;stroke-linejoin:round;stroke-miterlimit:2;stroke-dasharray:none;stroke-opacity:1;visibility:visible" visibility="hidden"/><path d="M302.213 181.514a1.459 1.459 0 0 0-.058.696M304.19 184.847l.141-.07M302.397 181.297l.144-.07M309.606 178.968a.947.947 0 0 0-.373-.231M310.309 180.872a.947.947 0 0 0 .036-.444M310.195 181.006a.253.253 0 0 0 .115-.134M309.231 178.736a.236.236 0 0 0-.18.016M303.432 181.589l5.624-2.836M304.57 183.846l5.625-2.844M321.235 173.054l.763-.383M322.384 174.38l.383-.193M319.818 176.144a.256.256 0 0 0 .116-.024.257.257 0 0 0 .133-.218M320.067 175.902a1.03 1.03 0 0 0-.101-.458M319.966 175.444a2.775 2.775 0 0 0-1.21-1.256M318.755 174.189a.939.939 0 0 0-.453-.11M319.88 173.277a.24.24 0 0 0-.118.028.236.236 0 0 0-.135.216M319.626 173.521a1.005 1.005 0 0 0 .044.325M320.826 175.17c.036.024.074.044.11.063M320.938 175.233a1.064 1.064 0 0 0 .459.119M321.397 175.352a.248.248 0 0 0 .246-.246M321.642 175.106a1.04 1.04 0 0 0-.096-.46M321.546 174.646a.632.632 0 0 1-.03-.053 2.752 2.752 0 0 0-1.184-1.201M320.331 173.392a1.032 1.032 0 0 0-.451-.115M322.371 172.818a.627.627 0 0 0-.253-.156M322.871 173.806a1.824 1.824 0 0 0-.17-.536 1.6 1.6 0 0 0-.331-.45M322.845 174.1a.732.732 0 0 0 .028-.294M322.766 174.19a.17.17 0 0 0 .079-.09M322.118 172.664a.152.152 0 0 0-.12.01M318.489 176.701a.983.983 0 0 0-.099-.46M318.391 176.24c-.006-.022-.02-.036-.026-.056a2.764 2.764 0 0 0-1.182-1.199M317.182 174.985a.987.987 0 0 0-.459-.112M318.302 174.073a.273.273 0 0 0-.117.03.241.241 0 0 0-.135.212M318.051 174.316a1.07 1.07 0 0 0 .044.328M319.253 175.97c.032.02.073.04.107.06" style="fill:none;stroke:#9500ff;stroke-width:.666665;stroke-linecap:round;stroke-linejoin:round;stroke-miterlimit:2;stroke-dasharray:none;stroke-opacity:1;visibility:visible" visibility="hidden"/><path d="M319.36 176.029a1.03 1.03 0 0 0 .46.115M314.897 175.909a.967.967 0 0 0 .049.327M316.093 177.56c.04.026.077.045.114.065M316.209 177.625a1.05 1.05 0 0 0 .457.113M316.666 177.737a.23.23 0 0 0 .114-.024.247.247 0 0 0 .135-.215M316.914 177.496a1.043 1.043 0 0 0-.099-.458M316.815 177.038l-.025-.054a2.752 2.752 0 0 0-1.185-1.2M315.603 175.784a.996.996 0 0 0-.456-.119M316.726 174.873a.23.23 0 0 0-.119.024.243.243 0 0 0-.13.215M316.474 175.109a1 1 0 0 0 .046.327M317.673 176.766c.034.022.076.039.109.06M317.785 176.825a1.075 1.075 0 0 0 .455.12M318.24 176.945a.379.379 0 0 0 .116-.028.247.247 0 0 0 .133-.217M313.51 179.33a.275.275 0 0 0 .115-.02.27.27 0 0 0 .137-.22M313.763 179.09a1.005 1.005 0 0 0-.101-.456M313.662 178.634c-.005-.021-.017-.04-.027-.058a2.747 2.747 0 0 0-1.18-1.199M312.454 177.377a.963.963 0 0 0-.46-.113M313.57 176.466a.284.284 0 0 0-.113.024.244.244 0 0 0-.137.218M313.322 176.708a.99.99 0 0 0 .047.322M314.52 178.358l.115.06M314.634 178.418a1.008 1.008 0 0 0 .456.119M315.089 178.534c.038 0 .08-.004.114-.024a.256.256 0 0 0 .135-.214M315.338 178.296a.987.987 0 0 0-.099-.459M315.24 177.836c-.012-.019-.018-.038-.03-.052a2.773 2.773 0 0 0-1.177-1.206M314.03 176.578a1.04 1.04 0 0 0-.46-.112" style="fill:none;stroke:#9500ff;stroke-width:.666665;stroke-linecap:round;stroke-linejoin:round;stroke-miterlimit:2;stroke-dasharray:none;stroke-opacity:1;visibility:visible" visibility="hidden"/><path d="M315.15 175.665a.276.276 0 0 0-.117.028.253.253 0 0 0-.135.215M310.418 178.056a.277.277 0 0 0-.115.024.247.247 0 0 0-.133.216M310.17 178.297c0 .112.015.221.045.33M311.365 179.954c.038.02.075.04.113.056M311.478 180.01a1.064 1.064 0 0 0 .459.12M311.935 180.129c.04 0 .08-.01.119-.027a.244.244 0 0 0 .132-.216M312.186 179.886a1.04 1.04 0 0 0-.1-.46M312.086 179.425c-.01-.016-.017-.037-.028-.05a2.736 2.736 0 0 0-1.183-1.201M310.875 178.174a.96.96 0 0 0-.458-.116M311.994 177.261a.243.243 0 0 0-.248.243M311.746 177.504a.987.987 0 0 0 .047.328M312.946 179.157c.036.017.073.039.108.057M313.055 179.214a.939.939 0 0 0 .456.116M307.929 286.469a.372.372 0 0 0-.275.033M309.603 289.966a.358.358 0 0 0 .174-.219M309.777 289.749c.06-.224.072-.463.03-.692M309.806 289.057a4.025 4.025 0 0 0-.452-1.228 3.997 3.997 0 0 0-.817-1.023M308.537 286.806a1.48 1.48 0 0 0-.608-.336M307.513 286.578a.4.4 0 0 0-.174.223M307.34 286.802a1.48 1.48 0 0 0-.026.696M307.313 287.498a4.125 4.125 0 0 0 1.262 2.247M308.574 289.74c.18.159.388.274.613.34M309.186 290.077a.332.332 0 0 0 .277-.034M315.415 285.353a2.676 2.676 0 0 0-.285-.78 2.417 2.417 0 0 0-.52-.647M309.464 290.042l.139-.077M307.514 286.576l.14-.076M314.613 283.926a.955.955 0 0 0-.386-.213M315.4 285.798a.968.968 0 0 0 .016-.445M315.293 285.937a.257.257 0 0 0 .109-.139M314.226 283.713a.235.235 0 0 0-.179.024M308.56 286.82l5.492-3.084M309.799 289.025l5.492-3.092M325.966 277.499l.745-.416M323.385 281.265a.996.996 0 0 0-.12-.456M323.266 280.809c-.007-.022-.021-.035-.028-.055a2.764 2.764 0 0 0-1.235-1.144M322.003 279.61a.992.992 0 0 0-.462-.092M323.08 278.649a.252.252 0 0 0-.114.036.24.24 0 0 0-.127.215M322.84 278.9a1.057 1.057 0 0 0 .06.327M324.114 280.5c.033.019.075.036.112.056M324.226 280.554a1.017 1.017 0 0 0 .464.096M324.687 280.649c.038 0 .079-.01.115-.029a.263.263 0 0 0 .124-.223M324.926 280.397a.997.997 0 0 0-.123-.454M324.803 279.943l-.025-.05a2.773 2.773 0 0 0-1.24-1.15M323.538 278.742a.941.941 0 0 0-.458-.09M324.62 277.782a.255.255 0 0 0-.114.032.241.241 0 0 0-.128.223M324.38 278.037a1.015 1.015 0 0 0 .06.323M325.65 279.631a1.133 1.133 0 0 0 .113.059M325.765 279.689a1.067 1.067 0 0 0 .464.097M326.229 279.787a.248.248 0 0 0 .236-.256M325.077 277.877a1.045 1.045 0 0 0-.457-.095M319.76 280.633a.96.96 0 0 0 .064.324M321.031 282.229c.04.025.079.041.119.06M321.149 282.289a1.036 1.036 0 0 0 .46.093M321.61 282.382a.241.241 0 0 0 .113-.028.252.252 0 0 0 .127-.221M321.847 282.129a1.047 1.047 0 0 0-.12-.452M321.729 281.677l-.029-.054a2.776 2.776 0 0 0-1.237-1.146M320.46 280.478a1.007 1.007 0 0 0-.46-.098M321.54 279.517a.23.23 0 0 0-.116.03.245.245 0 0 0-.122.219M321.3 279.765a1.041 1.041 0 0 0 .063.325M322.57 281.366c.037.02.079.035.113.055M322.686 281.42a1.041 1.041 0 0 0 .461.1" style="fill:none;stroke:#9500ff;stroke-width:.666665;stroke-linecap:round;stroke-linejoin:round;stroke-miterlimit:2;stroke-dasharray:none;stroke-opacity:1;visibility:visible" visibility="hidden"/><path d="M323.147 281.52a.368.368 0 0 0 .115-.035.24.24 0 0 0 .123-.222M318.223 281.502a.976.976 0 0 0 .063.32M319.495 283.097c.036.018.076.037.115.053M319.61 283.153a1.027 1.027 0 0 0 .463.097M320.07 283.247a.237.237 0 0 0 .112-.029.25.25 0 0 0 .125-.22M320.307 282.998a.979.979 0 0 0-.12-.455M320.187 282.543c-.01-.018-.017-.037-.027-.05a2.784 2.784 0 0 0-1.234-1.153M318.925 281.342a1.027 1.027 0 0 0-.466-.092M320.003 280.38a.293.293 0 0 0-.116.032.257.257 0 0 0-.126.222M318.529 284.114a.279.279 0 0 0 .114-.027.268.268 0 0 0 .127-.224M318.77 283.862a1.005 1.005 0 0 0-.121-.45M318.649 283.411c-.007-.02-.02-.04-.029-.057a2.756 2.756 0 0 0-1.234-1.144M317.386 282.21a.945.945 0 0 0-.463-.092" style="fill:none;stroke:#9500ff;stroke-width:.666665;stroke-linecap:round;stroke-linejoin:round;stroke-miterlimit:2;stroke-dasharray:none;stroke-opacity:1;visibility:visible" visibility="hidden"/><path d="M318.46 281.25a.272.272 0 0 0-.112.028.247.247 0 0 0-.126.224M315.145 283.231a1.141 1.141 0 0 0 .06.327M316.413 284.833c.04.017.077.036.116.05M316.529 284.885a1.057 1.057 0 0 0 .461.097M316.99 284.982a.25.25 0 0 0 .243-.252M317.231 284.729a1.045 1.045 0 0 0-.121-.456M317.11 284.273c-.01-.015-.017-.038-.028-.05a2.752 2.752 0 0 0-1.236-1.146M315.845 283.077a.975.975 0 0 0-.465-.097M316.92 282.114a.243.243 0 0 0-.234.253M316.685 282.369a.95.95 0 0 0 .06.325M317.957 283.966l.11.054M318.067 284.018a.952.952 0 0 0 .463.096" style="fill:none;stroke:#9500ff;stroke-width:.666665;stroke-linecap:round;stroke-linejoin:round;stroke-miterlimit:2;stroke-dasharray:none;stroke-opacity:1;visibility:visible" visibility="hidden"/><path d="M315.383 282.98a.243.243 0 0 0-.238.25" style="fill:none;stroke:#9500ff;stroke-width:.666665;stroke-linecap:round;stroke-linejoin:round;stroke-miterlimit:2;stroke-dasharray:none;stroke-opacity:1;visibility:visible" visibility="hidden"/><path d="m594.657 189.82-.999 181.128M358.214 116.758l-12.66 1.9" style="fill:none;stroke:#9500ff;stroke-width:.999997;stroke-linecap:round;stroke-linejoin:round;stroke-miterlimit:4;stroke-dasharray:none;stroke-opacity:1;visibility:visible" visibility="hidden"/><path d="m555.778 359.042 10.9 3.601M594.657 189.484l-1.681-6.234M566.678 362.643l-10.9-3.601" style="fill:none;stroke:#9500ff;stroke-width:1.99999;stroke-linecap:round;stroke-linejoin:round;stroke-miterlimit:4;stroke-dasharray:none;stroke-opacity:1;visibility:visible" visibility="hidden"/><path d="m314.047 283.737 12.664-6.654" style="fill:none;stroke:#9500ff;stroke-width:.666665;stroke-linecap:round;stroke-linejoin:round;stroke-miterlimit:2;stroke-dasharray:none;stroke-opacity:1;visibility:visible" visibility="hidden"/><path d="m600.78 186.766.907-.546" style="fill:none;stroke:#00ff4a;stroke-width:.999997;stroke-linecap:round;stroke-linejoin:round;stroke-miterlimit:4;stroke-dasharray:none;stroke-opacity:1;visibility:visible" visibility="hidden"/><path d="m601.687 186.22-.907.546" style="fill:none;stroke:#9500ff;stroke-width:.999997;stroke-linecap:round;stroke-linejoin:round;stroke-miterlimit:4;stroke-dasharray:none;stroke-opacity:1;visibility:visible" visibility="hidden"/></svg>