<svg xmlns="http://www.w3.org/2000/svg" baseProfile="full" height="1122.52" preserveAspectRatio="xMinYMin meet" style="width:765px;height:943px" width="793.701" xml:space="preserve"><path d="M493.865 319.122a.84.84 0 0 1 .038.303v.377c-.075.19-.075.19-.114.379l-.149.377M492.695 320.937c-.078-.114-.078-.114-.115-.264v-.343l.076-.376a1.467 1.467 0 0 1 .115-.379c.074-.188.074-.188.188-.34.076-.15.113-.15.19-.264l.225-.15M488.953 307.255c-.076.038-.076.038-.113.076l-.15.151c-.19.113-.19.113-.419.19l-.451.149c-.303.04-.303.04-.567.114h-.605c-.453-.037-.453-.037-.945-.074-.379-.076-.379-.076-.719-.191l-.528-.3c-.076-.077-.076-.077-.19-.152M484.23 306.423c.112-.113.112-.113.262-.226.153-.077.191-.077.341-.19l.53-.15.53-.077c.301-.037.301-.037.602-.037.305 0 .305 0 .606.038.266.037.303.037.567.076.264.073.264.073.49.15.228.114.228.114.419.227l.3.227M440.423 354.84l-.227.15c-.113.152-.113.152-.226.265-.075.19-.075.19-.188.378-.076.189-.076.189-.114.377-.038.191-.038.191-.076.416 0 .152 0 .152.038.341l.076.303M440.31 357.145l.228-.227c.112-.15.112-.15.188-.303.113-.19.113-.19.189-.377.037-.19.037-.19.075-.416.038-.19.038-.19.038-.377l-.076-.303M419.675 352.874c-.15-.15-.15-.15-.303-.264-.19-.113-.19-.113-.416-.227-.264-.076-.264-.076-.53-.19-.262-.037-.262-.037-.563-.074-.305-.039-.305-.039-.645-.039-.302 0-.302 0-.604.038-.304.037-.304.037-.568.076-.264.076-.264.076-.528.19-.228.073-.228.073-.416.186-.152.153-.152.153-.303.267M415.291 354.046c.113.076.113.076.227.113.264.114.264.114.528.191.264.036.264.036.568.112.302 0 .302 0 .642.037.302-.037.302-.037.606-.037.301-.039.301-.039.566-.113l.528-.152c.227-.114.227-.114.418-.227.15-.113.15-.113.264-.227.074-.15.074-.15.188-.302M375.682 352.382c.19.076.19.076.34.15l.301.304c.113.151.113.151.227.339l.152.379c.037.19.037.19.037.376M375.226 354.349c-.15-.151-.15-.151-.264-.34-.114-.19-.114-.19-.19-.38-.074-.186-.074-.186-.112-.375 0-.191 0-.191.038-.341M325.149 258.953c.15.113.15.113.264.227.189.113.189.113.377.189.34.113.34.113.72.19M329.683 258.273c-.113-.114-.113-.114-.263-.227-.19-.076-.19-.076-.34-.19-.266-.073-.266-.073-.493-.112-.34-.074-.34-.074-.717-.114h-.945l-.53.076c-.225.076-.225.076-.492.15-.19.078-.19.078-.377.191l-.303.226M326.51 259.558l.83.076c.267 0 .267 0 .57-.039l.527-.074c.265-.076.265-.076.492-.152.189-.075.189-.075.416-.189.113-.075.113-.075.264-.19M273.937 320.673c.037-.19.037-.19.037-.34v-.379l-.152-.377c-.113-.152-.113-.152-.227-.34-.15-.114-.15-.114-.301-.267l-.303-.149M272.083 319.349c-.037.151-.037.189-.037.34.037.189.037.189.113.378l.151.378c.152.152.152.152.265.302.151.114.151.114.303.19.188.073.188.073.34.113M252.317 301.17l.226.227c.19.113.19.113.379.19l.453.149M257.042 300.415c-.113-.152-.113-.152-.228-.264-.188-.076-.188-.076-.377-.189l-.454-.152-.529-.075c-.303-.038-.303-.038-.605-.038s-.302 0-.604.038c-.266.038-.266.038-.567.075l-.53.152c-.188.076-.188.076-.413.19-.154.11-.154.11-.305.225-.113.114-.113.151-.19.265M253.375 301.737c.265.076.265.076.567.113.265 0 .265 0 .568.04.301-.04.301-.04.604-.04.301-.037.301-.037.567-.113.265-.038.265-.038.529-.151.19-.076.19-.076.416-.19l.303-.226c.113-.113.113-.113.189-.265M375.076 352.42l.264-.112.342.075M376.286 354.613l.19-.114-.266.151-.34.04-.34-.115-.303-.225M374.698 352.911l.15-.301.227-.19-.188.15M325.225 258.273l-.151.226-.039.227.115.227M329.609 258.99l.15-.227.039-.263-.113-.229M324.127 249.164h.076M272.991 318.82l-.301-.036-.304.074-.19.19-.112.302M273.218 321.05h.303l.225-.15.19-.228M252.24 300.642l-.036.264.113.265" style="fill:none;stroke:red;stroke-width:.999997;stroke-linecap:round;stroke-linejoin:round;stroke-miterlimit:4;stroke-dasharray:none;stroke-opacity:1;visibility:visible"/><path d="m257.118 300.906.037-.264-.113-.227M421.752 365.006v7.143M510.119 304.989h-.076l-88.215 59.868-190.978-62.25-.076.151h-.037M510.005 311.942l-.037.037M493.375 318.82l.225-.036.152.113.113.226M493.639 320.56l-.19.301-.226.228-.226.074-.189-.037-.113-.19M484.267 307.217l-.152-.264" style="fill:none;stroke:red;stroke-width:.999997;stroke-linecap:round;stroke-linejoin:round;stroke-miterlimit:4;stroke-dasharray:none;stroke-opacity:1;visibility:visible"/><path d="m488.877 306.462.151.264.039.265-.114.264M484.115 306.953l-.038-.264.153-.266M439.706 357.069l.15.151.227.038M440.954 355.142l-.114-.227-.19-.113-.225.037M440.083 357.258l.227-.113M414.799 352.837l-.15.302v.264l.149.303.305.264.188.076M419.826 353.442v-.303l-.151-.264M376.74 353.933l-.078.34-.187.226" style="fill:none;stroke:red;stroke-width:.999997;stroke-linecap:round;stroke-linejoin:round;stroke-miterlimit:4;stroke-dasharray:none;stroke-opacity:1;visibility:visible"/><path d="m324.127 249.164-93.354 53.48.226 6.877.076.077 190.715 62.59.076-.038.568-.38 87.57-59.867.15-6.802-.036-.114-185.953-55.86" style="fill:none;stroke:red;stroke-width:1.99999;stroke-linecap:round;stroke-linejoin:round;stroke-miterlimit:4;stroke-dasharray:none;stroke-opacity:1;visibility:visible"/><path d="m439.83 357.246 4.533 1.568.373.144.027.028.02-.017.019.018c.028-.026.028-.026.085-.025l.028-.028c.028.03.028.03.057.003l.108-.044.083-.027.057.003.21-.109c.106-.043.106-.043.223-.153.049-.102.049-.102.167-.212.03-.121.03-.121.09-.233l.02-.019c.034-.196.034-.196.066-.318-.025-.142-.025-.142-.02-.292-.025-.087-.025-.087-.05-.228-.062-.126-.071-.135-.144-.212l-.028-.03-.054-.113-.045-.05c-.027-.03-.027-.03-.008-.047l-.027-.03-.028-.03c-.018.021-.018.021-.046-.009l-.16-.051-.026-.03-.085-.03-.075-.023-4.81-1.676" style="fill:none;fill-opacity:1;fill-rule:nonzero;stroke:red;stroke-width:1.33333;visibility:visible"/><path d="m244.134 294.13-1.29-.45M243.133 291.39c.026.028.026.028.053.001l.054.002.027-.026.054.003M242.846 293.68c-.026-.026-.026-.026-.053 0l-.053-.058-.026-.025M242.942 291.465h0M242.846 293.68h0M444.724 358.926l-4.45-1.56M445.102 358.83h0l-.082.024-.108.05M445.798 357.142l.1.217.045.268-.003.054-.033.239-.09.29-.084.133-.057.107M445.33 356.7l.189.03.023.03.026.027.026.027.026.028M440.83 355.091l4.37 1.523M444.912 358.905c-.026-.028-.026-.028-.052-.002l-.054-.001-.03.025-.053-.001M445.676 358.449l-.193.18c-.083.079-.083.079-.19.129-.111.049-.111.049-.192.072M445.62 356.842c0 .053 0 .053.026.081l.076.083c.025.08.025.08.076.136M445.199 356.615c.027.028.027.028.053.002l.052.056.027.026M445.772 357.114l.026.028M445.102 358.83h0M445.199 356.615h0M243.32 291.369l4.45 1.56M242.942 291.465h0l.083-.025.108-.05M299.79 259.446l4.472 1.5M299.413 259.546h0l.08-.025.11-.051M298.74 261.245l-.101-.216-.051-.269.002-.053.03-.24.088-.292.082-.133.055-.105M299.214 261.682l-.187-.03-.025-.026-.028-.028-.025-.028-.027-.027M300.64 262.195l-1.294-.432M299.602 259.469c.027.026.027.026.053.001h.055l.027-.025h.053M298.846 259.937l.19-.184c.083-.079.083-.079.191-.13.106-.052.106-.052.187-.077M298.922 261.542c.001-.052.001-.052-.025-.081l-.08-.082c-.023-.079-.023-.079-.075-.134M299.346 261.763c-.027-.028-.027-.028-.053 0l-.053-.057-.026-.025M298.767 261.271l-.026-.026M299.413 259.546h0M299.346 261.763h0" style="fill:none;stroke:red;stroke-width:.666665;stroke-linecap:round;stroke-linejoin:round;stroke-miterlimit:4;stroke-dasharray:none;stroke-opacity:1;visibility:visible"/><path d="m492.919 321.18 4.611 1.32.38.124.03.027.02-.02.019.019c.026-.03.026-.03.081-.03l.03-.03c.03.028.03.028.057-.001l.102-.05.084-.029.058-.003.204-.117c.101-.051.101-.051.212-.167.043-.103.043-.103.153-.22.028-.123.028-.123.081-.238l.019-.019c.023-.199.023-.199.049-.321-.034-.142-.034-.142-.038-.292-.029-.084-.029-.084-.061-.226a.608.608 0 0 0-.155-.202l-.03-.028-.058-.112-.048-.046c-.03-.028-.03-.028-.01-.046l-.033-.028-.026-.028c-.019.02-.019.02-.047-.008l-.163-.043-.029-.028-.084-.027-.078-.016-4.893-1.414" style="fill:none;fill-opacity:1;fill-rule:nonzero;stroke:red;stroke-width:1.33333;visibility:visible"/><path d="m497.899 322.593-4.529-1.316M498.27 322.477h0l-.08.028-.105.055M498.873 320.753l.111.21.06.267.001.053-.02.242-.075.295-.077.135-.05.108M498.383 320.335l.187.023.027.025.028.027.027.025.028.027M493.801 318.975l4.446 1.283M498.084 322.562c-.028-.027-.028-.027-.053.001l-.054.002-.026.025-.054.003M498.823 322.063l-.184.192c-.079.082-.079.082-.183.138-.105.056-.105.056-.185.084M498.679 320.463c.001.054.001.054.028.08l.082.078c.028.079.028.079.084.132M498.247 320.26c.028.025.028.025.053-.003l.055.053.028.027M498.847 320.727l.028.027M498.27 322.477h0M498.247 320.26h0" style="fill:none;stroke:red;stroke-width:.666665;stroke-linecap:round;stroke-linejoin:round;stroke-miterlimit:4;stroke-dasharray:none;stroke-opacity:1;visibility:visible"/><path d="m374.94 352.53-4.116 3.017-.329.226-.039.006.004.027-.028.003c.008.04.008.04-.026.085l.006.04c-.04.006-.04.006-.034.045l-.023.112-.028.086-.033.045-.032.233c-.023.112-.023.112 0 .27.056.101.056.101.08.259a.693.693 0 0 1 .138.207l.004.027c.144.14.144.14.226.235.13.06.13.06.253.15.084.028.084.028.215.09a.635.635 0 0 0 .256 0l.04-.005.124.022.066-.01c.04-.007.04-.007.043.02l.04-.007.04-.006c-.004-.025-.004-.025.035-.032l.134-.101.04-.005.071-.052.061-.05 4.382-3.196" style="fill:none;fill-opacity:1;fill-rule:nonzero;stroke:red;stroke-width:1.33333;visibility:visible"/><path d="m371.892 356.894.14-.097.054-.124M372.127 356.935l-.081-.025-.156-.016M372.063 357.518l.032-.043.037-.005-.005-.04-.005-.036-.038.006-.086-.063-.08-.027.106-.053.107-.055M371.44 357.689l.035-.006M370.298 356.218l.03-.043M371.095 355.677l-.1.092-.101.091.02-.12-.048-.065-.012-.076-.038.006-.036.005M371.3 356.029l.06-.124-.019-.112M371.784 356.183l-.012-.073-.005-.04-.005-.036-.006-.037c-.036.005-.036.005-.044-.032-.037.005-.037.005-.042-.032l-.075.012-.037.005M372.087 356.673l-.005-.038c.037-.005.037-.005.032-.042l-.006-.038-.006-.037c-.006-.038-.043-.032-.043-.032l-.005-.037-.044-.032" style="fill:none;stroke:red;stroke-width:.666665;stroke-linecap:round;stroke-linejoin:round;stroke-miterlimit:4;stroke-dasharray:none;stroke-opacity:1;visibility:visible"/><path d="M372.131 357.202c.036-.005.036-.005.03-.043.041-.006.041-.006.034-.042l.031-.044-.007-.038-.009-.074-.04.005c-.006-.037-.006-.037-.042-.03M371.343 355.791l-.007-.037-.005-.037-.043-.032-.042-.032-.039.006-.036.006-.037.005-.039.005M370.428 355.815l.038-.005 4.49-3.292M370.33 356.175h0l.026-.08.02-.118M370.483 357.183c-.055-.106-.055-.106-.145-.206-.024-.15-.024-.15-.078-.257-.024-.15-.024-.15-.002-.267M371.476 357.682c-.149.023-.149.023-.305.008-.123-.057-.123-.057-.204-.084-.13-.096-.13-.096-.252-.152-.092-.101-.092-.101-.227-.234M371.82 357.669c-.039.005-.039.005-.034.041l-.038.008-.036.005c-.006-.037-.006-.037-.042-.032M370.376 355.977c-.005-.038-.005-.038.031-.043l-.004-.037c.03-.044.03-.044.025-.082M371.558 355.95l-.112.017-.144.06M372.011 356.415l-.117-.02-.08-.025-.108.053.057-.122.021-.121M370.488 357.22l-.005-.036M371.67 357.693l-.076.012-.118-.022" style="fill:none;stroke:red;stroke-width:.666665;stroke-linecap:round;stroke-linejoin:round;stroke-miterlimit:4;stroke-dasharray:none;stroke-opacity:1;visibility:visible"/><path d="m376.514 354.266-4.45 3.25-.071.051-.035.003-.139.1" style="fill:none;stroke:red;stroke-width:.666665;stroke-linecap:round;stroke-linejoin:round;stroke-miterlimit:4;stroke-dasharray:none;stroke-opacity:1;visibility:visible"/><path d="M272.33 319.071 268 321.77l-.348.201-.039.003.002.027-.025.001c0 .04 0 .04-.035.083l.003.04c-.04.002-.04.002-.036.044l-.033.109-.034.083-.037.042-.05.231c-.03.11-.03.11-.018.27.047.101.047.101.06.261.073.102.073.102.121.218l.003.027c.132.15.132.15.207.252.125.07.125.07.239.17.083.032.083.032.21.102a.59.59 0 0 0 .255.023l.04-.003.122.03.067-.004c.04-.003.04-.003.041.023l.04-.002.042-.004c-.003-.027-.003-.027.037-.03l.139-.09.041-.003.076-.047.064-.044 4.61-2.857" style="fill:none;fill-opacity:1;fill-rule:nonzero;stroke:red;stroke-width:1.33333;visibility:visible"/><path d="m268.907 322.477-.006-.077-.003-.037-.003-.037-.002-.037c-.038.001-.038.001-.043-.035-.035.001-.035.001-.039-.036l-.076.007-.037.002M269.173 322.989l-.003-.039c.037-.003.037-.003.033-.04l-.002-.037-.002-.038c-.002-.038-.041-.034-.041-.034l-.003-.039-.04-.035M269.175 323.518c.038-.003.038-.003.035-.041.039-.003.039-.003.036-.04l.035-.04-.003-.039-.007-.075-.037.003c-.003-.037-.003-.037-.04-.035M268.497 322.054l-.003-.037-.004-.039-.04-.035-.04-.033h-.039l-.037.005-.037.002-.039.003M267.583 322.009l.038-.003 4.725-2.944M267.46 322.36h0l.03-.08.03-.114M267.535 323.375c-.045-.11-.045-.11-.13-.217-.011-.15-.011-.15-.059-.261-.01-.151-.01-.151.019-.267M268.487 323.949c-.149.01-.149.01-.304-.015-.118-.068-.118-.068-.197-.099-.121-.105-.121-.105-.24-.172-.084-.106-.084-.106-.208-.249M268.83 323.962c-.037.003-.037.003-.035.04l-.038.003-.038.004c-.002-.039-.002-.039-.039-.035M267.52 322.165c-.004-.038-.004-.038.033-.042l-.002-.037c.036-.04.036-.04.034-.077M268.698 322.229l-.112.008-.148.049M269.117 322.726l-.117-.03-.078-.03-.11.044.065-.117.031-.116" style="fill:none;stroke:red;stroke-width:.666665;stroke-linecap:round;stroke-linejoin:round;stroke-miterlimit:4;stroke-dasharray:none;stroke-opacity:1;visibility:visible"/><path d="m268.96 323.193.146-.087.067-.119M269.193 323.251l-.079-.031-.153-.027M269.085 323.829l.034-.04.039-.003-.003-.039-.004-.037-.038.003-.08-.07-.079-.032.11-.046.111-.046M268.45 323.951l.037-.001M267.423 322.4l.035-.043M268.258 321.92l-.107.082-.106.085.028-.116-.043-.071-.007-.077-.037.003-.037.003M268.438 322.285l.067-.119-.008-.113M267.538 323.415l-.003-.037M268.68 323.973l-.078.005-.115-.03" style="fill:none;stroke:red;stroke-width:.666665;stroke-linecap:round;stroke-linejoin:round;stroke-miterlimit:4;stroke-dasharray:none;stroke-opacity:1;visibility:visible"/><path d="m273.767 320.922-4.682 2.907-.072.041-.039.005-.144.087M372.768 261.749l-.233-.052-.117-.027-.084-.005M372.982 261.834l.22.221a1.4 1.4 0 0 1 .17.235c.055.12.055.12.094.277l.014.273M373.298 263.435c.032.02.032.02.012.052l-.019.033-.02.033M371.92 261.769c-.034-.019-.034-.019-.054.013l-.051.013-.02.032M372.332 261.665l-.064-.039c-.018.032-.018.032-.052.014l-.052.011M373.48 262.84h0M372.768 261.749h0M373.2 263.597h0M373.252 263.585l-.052.013M467.408 290.186l.096.059.117.025M467.91 291.989l-.02.031-.05.014M468.119 291.274l-.052.233-.007.084-.02.032.013.054-.051.012-.007.084-.059.097M466.435 290.263l-1.54 1.023M466.804 290.087h0l-.032-.02-.02.034-.195.102M467.408 290.186l-.233-.052-.118-.027-.084-.005M467.622 290.269l.22.22c.078.09.078.09.168.234.057.123.057.123.096.28l.014.27M467.938 291.871c.031.02.031.02.012.052l-.02.032-.02.032M466.559 290.205c-.032-.02-.032-.02-.052.013l-.052.012-.02.033M466.972 290.1l-.064-.037c-.018.031-.018.031-.052.011l-.052.013M468.119 291.274h0M467.408 290.186h0M467.839 292.033h0M467.892 292.02l-.052.015M372.768 261.749l.096.058.118.026M373.272 263.553l-.02.032-.052.013M373.48 262.84l-.052.232-.006.085-.02.032.013.051-.052.014-.007.084-.058.097M371.796 261.827l-1.54 1.023" style="fill:none;stroke:red;stroke-width:.666665;stroke-linecap:round;stroke-linejoin:round;stroke-miterlimit:4;stroke-dasharray:none;stroke-opacity:1;visibility:visible"/><path d="M372.166 261.651h0l-.032-.018-.02.032-.195.102" style="fill:none;stroke:red;stroke-width:.666665;stroke-linecap:round;stroke-linejoin:round;stroke-miterlimit:4;stroke-dasharray:none;stroke-opacity:1;visibility:visible"/><path d="m419.826 353.442 1.926 11.564M243.321 291.37l-12.584 11.388M498.823 322.063l11.145-10.084" style="fill:none;stroke:red;stroke-width:.999997;stroke-linecap:round;stroke-linejoin:round;stroke-miterlimit:4;stroke-dasharray:none;stroke-opacity:1;visibility:visible"/><path d="m243.32 291.369.814 2.761M242.844 293.68l4.926-.751M299.346 261.763l4.916-.817M299.79 259.446l.85 2.749" style="fill:none;stroke:red;stroke-width:.666665;stroke-linecap:round;stroke-linejoin:round;stroke-miterlimit:4;stroke-dasharray:none;stroke-opacity:1;visibility:visible"/><path d="M276.43 120.283v.037c.037 0 .037 0 .037.039l.039.037c0 .039 0 .039.037.039v.037l.038.037M276.696 120.922v.037l.037.039v.037M275.978 119.902h0l.076.037.075.039.113.076.076.037.076.075v.039l.037.037v.037M276.582 120.507l.037.076h.078l-.039.075.039.113v.152M276.734 121.036v.076h.037l-.037.188v.076l-.037.039M276.772 121.111l-1.323.643M276.696 121.414l.113-.379M275.449 121.187l1.248-.605M276.62 121.603l-1.133.53M276.393 120.167l-.981.453M275.978 119.902l-.567.264M276.317 120.015h0" style="fill:none;stroke:#00ff4a;stroke-width:.999997;stroke-linecap:round;stroke-linejoin:round;stroke-miterlimit:4;stroke-dasharray:none;stroke-opacity:1;visibility:visible"/><path d="m276.317 120.019.189.189a.67.67 0 0 0 .19.264c.036.113.036.113.074.265.04.15.04.15.04.303l-.077.225M276.696 121.452v.037l-.039.039v.037M276.543 121.757c-.037 0-.037 0-.037.037l-.039.041v.035M276.734 121.263l-.037.152v.037M276.657 121.565h0l-.037.037-.039.039-.037.113" style="fill:none;stroke:#00ff4a;stroke-width:1.99999;stroke-linecap:round;stroke-linejoin:round;stroke-miterlimit:4;stroke-dasharray:none;stroke-opacity:1;visibility:visible"/><path d="M276.469 121.867h-.037l-.039.037-.905.454M275.411 119.864l.15-.076h.19l.037.039.114.037.076.037h.037l.076.039.227.076M276.015 119.902h0" style="fill:none;stroke:#00ff4a;stroke-width:1.99999;stroke-linecap:round;stroke-linejoin:round;stroke-miterlimit:4;stroke-dasharray:none;stroke-opacity:1;visibility:visible"/><path d="m277.836 174.327-.037.037M277.798 174.365h0M279.159 175.688h0M278.592 174.516h0M279.195 175.464l-.075-.304c-.038-.112-.038-.112-.114-.263-.075-.113-.075-.113-.188-.227l-.227-.152M277.986 174.368c0-.038 0-.038-.037-.038h-.076M278.706 176.409c0 .037 0 .037-.037.037l-.039.039h-.037M279.007 176.106v.076c-.037 0-.037 0-.037.038l-.039.037M279.159 175.688l-.076.227-.037.113-.038.076" style="fill:none;stroke:#00ff4a;stroke-width:.666665;stroke-linecap:round;stroke-linejoin:round;stroke-miterlimit:4;stroke-dasharray:none;stroke-opacity:1;visibility:visible"/><path d="M278.932 176.255h0v.037h-.037l-.19.115M278.592 176.482l-1.67.793M278.592 174.516l-.227-.076-.076-.037h-.037l-.037-.038-.039.038-.076-.038h-.113M277.873 174.327h-.037l-.039.037M279.159 175.688v-.113l.037-.114" style="fill:none;stroke:#00ff4a;stroke-width:.666665;stroke-linecap:round;stroke-linejoin:round;stroke-miterlimit:4;stroke-dasharray:none;stroke-opacity:1;visibility:visible"/><path d="m176.236 183.212.228.15.226.228.15.302.078.302c-.001.151-.001.151-.04.303M175.97 184.837l-.226-.227c-.114-.113-.114-.113-.19-.264-.074-.152-.074-.152-.112-.302-.038-.151-.038-.151-.038-.304.038-.112.038-.112.038-.264M272.046 232.534c-.113-.113-.113-.113-.227-.264-.076-.19-.076-.19-.189-.378l-.075-.454c-.037-.226-.037-.226-.037-.49M273.9 228.3c.112.115.112.115.225.266.077.189.077.189.191.34l.074.454v.529c0 .264 0 .264-.037.528-.076.303-.076.303-.151.568-.113.227-.113.264-.227.49-.153.228-.153.228-.265.455-.19.189-.19.189-.34.378-.152.112-.152.112-.34.226-.152.076-.19.076-.34.15M271.517 230.946c.037-.264.037-.264.076-.566l.15-.53c.114-.265.114-.265.227-.492.15-.226.15-.226.264-.453.19-.188.19-.188.341-.377.151-.114.151-.114.34-.228.151-.075.151-.075.34-.151M270.95 119.792l.228.303c.113.188.113.188.188.415l.076.454c.037.264.037.264.037.566l-.074.53c-.076.3-.076.3-.151.566l-.227.53-.304.453c-.15.151-.15.151-.301.341l-.379.226c-.15.076-.15.076-.34.113M268.645 123.457c-.038-.264-.038-.264-.115-.53v-.528c.04-.303.04-.303.077-.567.038-.227.038-.227.114-.453.113-.303.113-.341.264-.606.15-.263.15-.263.34-.527.113-.153.113-.153.264-.304.151-.112.151-.112.341-.226.188-.037.188-.037.377-.113M260.594 247.616c-.113.037-.113.037-.19.113-.149.113-.149.113-.262.264-.115.152-.115.152-.189.303-.076.189-.076.189-.114.34-.038.189-.038.189-.038.378v.34a.556.556 0 0 1 .113.264M260.783 249.58c.077-.152.077-.152.19-.303.074-.15.074-.15.15-.34.039-.19.039-.19.077-.34v-.379c0-.15 0-.15-.038-.301M228.127 140.616c.076-.038.076-.038.151-.114.076-.076.076-.076.113-.15.076-.114.076-.114.114-.227 0-.115 0-.115.038-.228v-.227c0-.074 0-.074-.038-.188M228.015 139.33l-.15.152c-.076.075-.076.075-.115.188l-.075.227c0 .113 0 .113-.037.227 0 .113 0 .113.037.226l.076.152M204.543 279.174l.077.303v.377c-.039.19-.039.19-.114.379-.076.15-.076.187-.152.34-.074.15-.074.15-.188.301-.113.076-.15.076-.264.19M203.146 280.647c-.036-.226-.036-.226-.036-.453.036-.113.036-.113.036-.264.076-.151.076-.151.115-.341.113-.19.113-.19.189-.34l.224-.227c.153-.076.153-.076.267-.15M183.34 165.637c-.15-.113-.15-.113-.262-.264-.114-.228-.114-.228-.228-.416-.037-.265-.037-.265-.113-.492M185.345 161.138c.15.152.15.152.264.303.113.189.113.189.227.416.037.227.037.227.113.49 0 .266 0 .266.037.568-.036.265-.036.265-.074.567-.076.302-.076.302-.152.568-.112.3-.112.3-.264.566l-.302.453c-.19.191-.19.191-.341.377-.19.152-.19.152-.416.266-.188.076-.188.076-.377.113M182.737 164.465v-.567l.076-.68c.075-.228.075-.228.15-.493l.227-.528c.15-.264.15-.264.303-.49l.379-.381c.188-.148.226-.148.452-.261a1.024 1.024 0 0 0 .302-.115M180.28 269.989c-.114-.039-.114-.076-.227-.114l-.227-.225c-.113-.115-.113-.115-.188-.265M180.09 268.213l.227.076c.113.076.113.076.227.188l.228.228c.074.15.074.15.113.301.037.114.037.114.075.265v.303M179.637 269.385c-.037-.115-.037-.115-.113-.265 0-.151 0-.151-.038-.302.038-.152.038-.152.075-.265M176.273 170.398c.076-.15.076-.15.113-.302v-.34c0-.114 0-.114-.036-.227" style="fill:none;stroke:#00ff4a;stroke-width:.999997;stroke-linecap:round;stroke-linejoin:round;stroke-miterlimit:4;stroke-dasharray:none;stroke-opacity:1;visibility:visible"/><path d="M176.349 184.874c-.113-.076-.113-.076-.227-.113l-.226-.227c-.114-.113-.114-.113-.188-.264-.04-.152-.04-.152-.114-.302 0-.152 0-.152-.038-.303.038-.113.038-.113.076-.264M171.7 149.609l5.67 1.588M171.965 148.853h.037M172.153 148.74l-.076.037" style="fill:none;stroke:#00ff4a;stroke-width:.999997;stroke-linecap:round;stroke-linejoin:round;stroke-miterlimit:4;stroke-dasharray:none;stroke-opacity:1;visibility:visible"/><path d="m175.443 183.473.15-.19.153-.15h.264l.226.076M176.879 184.494l-.037.113-.039.114-.15.189-.229.076-.226-.039-.227-.113" style="fill:none;stroke:#00ff4a;stroke-width:.999997;stroke-linecap:round;stroke-linejoin:round;stroke-miterlimit:4;stroke-dasharray:none;stroke-opacity:1;visibility:visible"/><path d="m176.69 184.872-.076.037-.265-.037M175.631 183.398l.113-.19.076-.074M176.198 170.51l.076-.113M175.67 168.544l-.113-.076-.303-.075h-.075M175.103 168.394l-.076.037M176.31 169.452l-.19-.453M175.707 168.582l.15.113.153.151M176.047 168.885l.037.037M179.562 268.55l.113-.19.19-.113.225-.037M180.96 269.571l-.076.227-.15.15-.229.076-.226-.037M179.07 226.938l.076.227v.377l-.113.265-.076.075M177.672 225.918l.076-.039-.227.115M177.747 225.88l.115-.037M178.39 225.993l-.076-.076-.301-.076h-.114M178.73 226.296l-.113-.152-.19-.112M179.07 226.863l-.227-.453M178.768 226.296l.037.076M184.436 293.273l-6.685-141.42M177.71 151.197l96.87-46.072M184.626 160.948l.379.037.34.152M184.06 165.823h-.377l-.342-.19M203.449 281.099l-.19-.19-.114-.263M203.94 278.87l.227-.037.226.113.151.227M203.902 281.061l-.227.076-.226-.039M228.43 139.329l-.15-.076h-.114l-.152.076M227.751 140.5l.076.113.15.038.151-.038M228.506 139.48l-.076-.152M261.163 247.915l-.152-.19-.19-.113h-.226M259.915 249.615l.19.15.187.04.227-.077.264-.15M270.308 119.6l.34.039.301.15M269.704 124.286l-.341-.037-.302-.152-.226-.303-.19-.34M273.256 228.148h.34l.303.15M272.69 232.683l-.341-.037-.302-.115M278.208 241.867l.076-.076-.113.113" style="fill:none;stroke:#00ff4a;stroke-width:.999997;stroke-linecap:round;stroke-linejoin:round;stroke-miterlimit:4;stroke-dasharray:none;stroke-opacity:1;visibility:visible"/><path d="m175.405 227.09-2.684-54.879M278.208 241.867l-.037.037.226-.226.151-.227.037-.264-3.553-136.29-.075-.264-.152-.227-.264-.227-.34-.076-4.838-1.285h-.151l-97.134 45.96-.264.227-.151.264-.039.265.984 20.07M278.17 241.905l-93.77 51.93-.19.038-5.178-1.7-.264-.19-.188-.226-.04-.265-3.022-61.795" style="fill:none;stroke:#00ff4a;stroke-width:1.99999;stroke-linecap:round;stroke-linejoin:round;stroke-miterlimit:4;stroke-dasharray:none;stroke-opacity:1;visibility:visible"/><path d="M186.202 270.745c-.112-.039-.112-.039-.264-.115-.152-.037-.152-.037-.34-.037h-.377c-.191 0-.191 0-.381.037-.187.04-.187.04-.338.076-.152.076-.152.076-.265.152M184.238 271.387c.114.04.114.04.19.076l.3.077c.191.037.191.037.381.037h.415c.15-.038.15-.038.34-.077l.3-.15c.115-.04.115-.04.191-.114M184.238 270.858l-.15.15v.191l.15.189" style="fill:none;stroke:#00ff4a;stroke-width:.666665;stroke-linecap:round;stroke-linejoin:round;stroke-miterlimit:4;stroke-dasharray:2.66666;stroke-dashoffset:0;stroke-opacity:1;visibility:visible"/><path d="m186.354 271.237.078-.19-.04-.15-.187-.15" style="fill:none;stroke:#00ff4a;stroke-width:.666665;stroke-linecap:round;stroke-linejoin:round;stroke-miterlimit:4;stroke-dasharray:2.66666;stroke-dashoffset:0;stroke-opacity:1;visibility:visible"/><path d="m242.714 293.597-.187-.032-.025-.028-.027-.028-.025-.027-.025-.028M242.369 291.847l.193-.18c.081-.079.081-.079.19-.129s.11-.048.191-.073M242.426 293.453c.001-.054.001-.054-.025-.083l-.078-.08c-.023-.081-.023-.081-.076-.137M242.273 293.18l-.027-.026" style="fill:none;stroke:#00ff4a;stroke-width:.666665;stroke-linecap:round;stroke-linejoin:round;stroke-miterlimit:4;stroke-dasharray:none;stroke-opacity:1;visibility:visible"/><path d="m242.246 293.153-.1-.218-.044-.269.001-.053.035-.239.088-.29.085-.134.059-.104" style="fill:none;stroke:#00ff4a;stroke-width:.666665;stroke-linecap:round;stroke-linejoin:round;stroke-miterlimit:4;stroke-dasharray:none;stroke-opacity:1;visibility:visible"/><path d="m177.777 225.873-4.561 2.29-.362.167h-.041v.027l-.027-.001c0 .04 0 .04-.041.08v.04c-.041-.002-.041-.002-.041.038l-.042.107-.041.079-.041.04-.07.225c-.042.105-.042.105-.046.265.04.108.04.108.036.268a.693.693 0 0 1 .104.228v.027c.116.163.116.163.18.27.121.083.121.083.226.191.078.04.078.04.196.123a.633.633 0 0 0 .254.043h.04l.12.044h.066c.039.001.039.001.039.029h.08c0-.026 0-.026.041-.024l.147-.079h.04l.081-.038.068-.04 4.85-2.419" style="fill:none;fill-opacity:1;fill-rule:nonzero;stroke:#00ff4a;stroke-width:1.33333;visibility:visible"/><path d="M172.78 228.362h.039l4.975-2.497M172.624 228.7h0l.038-.075.042-.113M172.606 229.72c-.034-.115-.034-.115-.11-.23.004-.15.004-.15-.03-.264a.54.54 0 0 1 .04-.264M173.504 230.377c-.151-.003-.151-.003-.304-.043-.111-.077-.111-.077-.186-.116-.11-.116-.11-.116-.222-.193-.075-.115-.075-.115-.186-.268M173.842 230.42c-.037 0-.037 0-.037.039l-.039-.002h-.036c-.001-.037-.001-.037-.038-.039M172.702 228.512c0-.038 0-.038.038-.038v-.037c.04-.037.04-.037.04-.075M173.872 228.682l-.114-.001-.152.035M174.24 229.217l-.112-.04-.076-.039-.115.036.079-.112.038-.112M174.044 229.669l.152-.073.078-.112M174.269 229.748l-.075-.04-.15-.039M174.109 230.312l.039-.038.038.002v-.04l.002-.036h-.04l-.073-.078-.075-.038.113-.036.115-.036M173.466 230.376h.038M172.586 228.736l.038-.038M173.46 228.336l-.113.073-.115.073.038-.112-.036-.076.002-.076h-.038l-.038-.001M173.606 228.716l.078-.112.002-.114M174.056 228.949v-.076l.003-.037v-.04l.001-.036c-.038 0-.038 0-.038-.04-.038 0-.038 0-.037-.035l-.075-.003-.038-.001M174.274 229.482v-.037c.038 0 .038 0 .039-.037v-.04l.001-.035c0-.039-.037-.041-.037-.041l.001-.035-.037-.041" style="fill:none;stroke:#00ff4a;stroke-width:.666665;stroke-linecap:round;stroke-linejoin:round;stroke-miterlimit:4;stroke-dasharray:none;stroke-opacity:1;visibility:visible"/><path d="M174.226 230.012c.038 0 .038 0 .038-.038.04.002.04.002.04-.037l.038-.037v-.038l.002-.076h-.038c0-.038 0-.038-.038-.038M173.685 228.49v-.037l.001-.039-.036-.037-.038-.039-.038-.001h-.076l-.037-.001M172.606 229.758v-.037M173.69 230.418l-.076-.001-.112-.04M179.04 227.848l-4.93 2.464-.076.036h-.037l-.153.072" style="fill:none;stroke:#00ff4a;stroke-width:.666665;stroke-linecap:round;stroke-linejoin:round;stroke-miterlimit:4;stroke-dasharray:none;stroke-opacity:1;visibility:visible"/><path d="m174.906 168.542-4.561 2.291-.361.167h-.042l-.001.026-.025-.001c-.002.04-.002.04-.042.08v.04c-.041-.001-.041-.001-.041.039l-.043.106-.04.08-.04.039-.071.225c-.043.106-.043.106-.046.267.04.107.04.107.037.267.064.108.064.108.103.228l-.001.026c.117.163.117.163.182.271a.951.951 0 0 1 .224.19c.079.039.079.039.198.122a.556.556 0 0 0 .253.045l.04.002.119.041.068.001c.038 0 .038 0 .038.027l.04.001h.04c0-.026 0-.026.04-.025l.148-.077h.04l.082-.04.066-.038 4.852-2.421" style="fill:none;fill-opacity:1;fill-rule:nonzero;stroke:#00ff4a;stroke-width:1.33333;visibility:visible"/><path d="m171.4 172.417-.075-.039-.15-.041M171.24 172.981l.037-.037.039.001v-.076h-.037l-.074-.077-.075-.039.114-.036.114-.036M170.594 173.046h.039M169.716 171.406l.037-.036M170.59 171.005l-.114.073-.116.075.04-.113-.035-.076.001-.076h-.036l-.04-.002M170.737 171.386l.077-.112.003-.113M171.186 171.62l.002-.076v-.075l.002-.039c-.037 0-.037 0-.037-.037-.039-.001-.039-.001-.039-.039l-.074-.001-.04-.001M171.405 172.153v-.037c.037 0 .037 0 .039-.038v-.076c0-.037-.036-.038-.036-.038v-.038l-.036-.038M171.357 172.681c.037 0 .037 0 .037-.037.039.001.039.001.04-.038l.038-.036v-.038l.003-.075-.038-.001c0-.038 0-.038-.039-.039M170.816 171.16v-.076l-.036-.038-.038-.038-.037-.002h-.037l-.04-.001h-.038M169.753 171.369h0l.039-.075.04-.113M169.737 172.389c-.035-.113-.035-.113-.11-.228.003-.152.003-.152-.032-.265.002-.152.002-.152.042-.264M170.633 173.048c-.153-.003-.153-.003-.303-.043-.112-.077-.112-.077-.186-.117-.111-.115-.111-.115-.224-.192-.074-.116-.074-.116-.184-.268M170.973 173.09c-.037 0-.037 0-.037.038l-.04-.002h-.036c0-.036 0-.036-.038-.038M169.833 171.181c0-.037 0-.037.037-.037l.002-.038c.038-.036.038-.036.04-.076" style="fill:none;stroke:#00ff4a;stroke-width:.666665;stroke-linecap:round;stroke-linejoin:round;stroke-miterlimit:4;stroke-dasharray:none;stroke-opacity:1;visibility:visible"/><path d="m171 171.352-.114-.002-.15.035M171.37 171.888l-.113-.04-.075-.039-.114.036.078-.112.039-.113M171.173 172.338l.152-.073.079-.112M279.158 175.69v-.113l.037-.113M277.873 174.33h-.038l-.038.038M278.591 174.518l-.226-.076-.076-.037h-.039l-.036-.037-.039.037-.075-.037h-.114M278.591 176.484l-1.669.793M278.931 176.257v.037h-.037l-.19.116M279.158 175.69l-.076.227-.037.113-.038.076M279.195 175.464l-.075-.304c-.038-.112-.038-.112-.114-.263-.075-.113-.075-.113-.188-.227l-.227-.152M277.986 174.368c0-.038 0-.038-.037-.038h-.076M278.706 176.409c0 .037 0 .037-.037.037l-.039.039h-.037M279.007 176.106v.076c-.037 0-.037 0-.037.038l-.039.037M278.591 174.518h0M279.158 175.69h0M277.798 174.368h0M277.835 174.33l-.037.038M169.737 172.428v-.038M170.82 173.088l-.074-.002-.113-.04M176.169 170.517l-4.93 2.464-.076.037-.038-.001-.152.073M169.91 171.032h.038l4.976-2.498" style="fill:none;stroke:#00ff4a;stroke-width:.666665;stroke-linecap:round;stroke-linejoin:round;stroke-miterlimit:4;stroke-dasharray:none;stroke-opacity:1;visibility:visible"/><path d="m275.411 119.864-.832-14.739" style="fill:none;stroke:#00ff4a;stroke-width:.999997;stroke-linecap:round;stroke-linejoin:round;stroke-miterlimit:4;stroke-dasharray:none;stroke-opacity:1;visibility:visible"/><path d="m173.686 228.49 1.719-1.4M171.405 172.153l1.316.058M170.817 171.161l1.791-1.558M174.274 229.482l1.244.215" style="fill:none;stroke:#00ff4a;stroke-width:1.99999;stroke-linecap:round;stroke-linejoin:round;stroke-miterlimit:4;stroke-dasharray:none;stroke-opacity:1;visibility:visible"/></svg>