<svg xmlns="http://www.w3.org/2000/svg" baseProfile="full" height="1122.52" preserveAspectRatio="xMinYMin meet" style="width:765px;height:943px" width="793.701" xml:space="preserve"><path d="m458.902 713.776 228.95 59.444M697.105 775.261l4.036-2.404" style="fill:none;stroke:red;stroke-width:.999997;stroke-linecap:round;stroke-linejoin:round;stroke-miterlimit:4;stroke-dasharray:none;stroke-opacity:1;visibility:visible"/><path d="M696.198 946.428c-1.861 1.272-1.861 1.272-3.764 2.54l-.273.182M456.772 708.364l-.454.181c-1.995.952-1.995.952-3.991 1.95l-.272.183M696.65 945.567c2.36-86.445 2.36-86.445 4.672-172.935 0-.136 0-.136-.045-.272-.045-.182-.045-.182-.137-.363M701.142 771.995l-.227-.317-.453-.227-243.235-63.043-.452-.045M696.652 945.566l-.045.227-.136.362-.272.272" style="fill:none;stroke:red;stroke-width:1.99999;stroke-linecap:round;stroke-linejoin:round;stroke-miterlimit:4;stroke-dasharray:none;stroke-opacity:1;visibility:visible"/><path d="m587.892 840.118 108.624-64.493M688.488 772.857l.317-.045 7.031 1.86" style="fill:none;stroke:red;stroke-width:.999997;stroke-linecap:round;stroke-linejoin:round;stroke-miterlimit:4;stroke-dasharray:none;stroke-opacity:1;visibility:visible"/><path d="m579.864 836.943.41-.227 107.662-63.533" style="fill:none;stroke:red;stroke-width:1.99999;stroke-linecap:round;stroke-linejoin:round;stroke-miterlimit:4;stroke-dasharray:none;stroke-opacity:1;visibility:visible"/><path d="m695.971 774.717.317.227.183.317.09.317-4.535 173.208-.046.319-.181.317-.363.272" style="fill:none;stroke:red;stroke-width:.999997;stroke-linecap:round;stroke-linejoin:round;stroke-miterlimit:4;stroke-dasharray:none;stroke-opacity:1;visibility:visible"/><path d="m691.436 949.694-104.905 72.113" style="fill:none;stroke:red;stroke-width:1.99999;stroke-linecap:round;stroke-linejoin:round;stroke-miterlimit:4;stroke-dasharray:none;stroke-opacity:1;visibility:visible"/><path d="M340.03 918.582c.09-.227.09-.272.136-.499 0-.226 0-.272-.046-.5-.045-.272-.045-.272-.136-.543l-.272-.545c-.136-.181-.136-.181-.318-.362M337.082 916.087l-.09.454v.544c.089.272.089.272.134.544.137.273.137.273.274.5.18.271.18.271.362.498.226.136.226.183.408.318.226.135.226.135.453.225l.453.091M339.44 916.133c-.229-.227-.229-.227-.5-.454-.226-.089-.226-.089-.453-.226-.227 0-.227 0-.455-.046M335.04 815.763c-.225 0-.225 0-.452-.045l-.454-.181c-.227-.182-.227-.182-.408-.363l-.363-.453-.272-.546c-.09-.272-.09-.272-.136-.498-.045-.318-.045-.318-.045-.635M333.998 811.817c.226.045.226.045.454.045.228.136.228.136.454.228l.453.36.363.455.272.545c.045.272.045.272.136.544v.544c-.047.272-.047.272-.09.499" style="fill:none;stroke:red;stroke-width:.666665;stroke-linecap:round;stroke-linejoin:round;stroke-miterlimit:4;stroke-dasharray:none;stroke-opacity:1;visibility:visible"/><path d="M347.922 797.44c.181-.225.226-.225.361-.406l.273-.545.091-.635v-.681c-.09-.318-.09-.363-.181-.68-.136-.363-.136-.363-.272-.68-.228-.318-.228-.318-.41-.636-.224-.272-.224-.272-.498-.544l-.544-.363c-.272-.136-.272-.136-.59-.272l-.544-.09-.545.089M344.202 795.534l.182.363c.18.272.18.317.362.59.272.27.272.27.5.543.317.228.317.228.634.41.227.135.227.135.5.226l.542.09.545-.089M560.905 857.987c-.09-.362-.09-.407-.135-.77a1.724 1.724 0 0 1 0-.682c.046-.362.046-.362.135-.68.138-.272.138-.272.318-.544l.409-.408M560.95 998.903c-.18.227-.18.227-.316.499-.091.317-.091.317-.137.588v.682c.046.363.046.363.136.726.137.362.137.362.318.68M565.212 1003.484l.183-.362c.045-.046.089-.046.089-.136l.183-.636v-.68l-.183-.816-.272-.544c-.182-.363-.182-.363-.408-.68-.272-.272-.272-.272-.499-.546-.317-.226-.317-.226-.59-.408-.315-.181-.315-.181-.635-.316l-.633-.091c-.272-.001-.272-.001-.591.044M560.95 1002.078c.183.317.183.317.41.634.227.318.227.318.499.59.271.182.271.182.589.408l.635.273c.317.09.317.09.589.136.317 0 .317 0 .59-.045.272-.091.272-.091.544-.227M353.32 934.591c.087-.227.087-.227.225-.499.045-.272.045-.272.091-.589 0-.455 0-.455-.045-.908-.045-.227-.045-.227-.136-.408-.135-.363-.135-.363-.273-.68-.18-.317-.18-.317-.362-.59-.272-.27-.272-.27-.5-.544-.272-.181-.272-.181-.544-.409-.272-.136-.272-.136-.544-.226s-.272-.09-.545-.136l-.544.09M349.011 931.326v.68c.044.136.044.136.09.317l.09.364.273.635c.182.317.182.317.408.59l.454.542c.272.182.272.182.544.409.273.137.273.137.545.227s.272.09.545.136a.995.995 0 0 1 .36-.046c.092 0 .092 0 .183-.045" style="fill:none;stroke:red;stroke-width:.999997;stroke-linecap:round;stroke-linejoin:round;stroke-miterlimit:4;stroke-dasharray:none;stroke-opacity:1;visibility:visible"/><path d="M344.611 792.27c-.181.181-.181.181-.363.408-.136.227-.136.227-.226.499-.092.317-.092.317-.136.633 0 .365 0 .365.044.683.045.362.045.362.137.725.09.136.09.136.135.317M561.63 854.903c.274-.136.274-.136.546-.226.316-.047.316-.047.588-.091.272.045.272.045.59.09l.726.274c.272.225.272.225.588.452.272.272.272.272.5.544l.452.636.273.725.182.726v.725c-.09.319-.09.319-.182.636-.136.317-.136.317-.317.59-.09.089-.09.089-.181.134-.091.137-.091.137-.227.273" style="fill:none;stroke:red;stroke-width:.999997;stroke-linecap:round;stroke-linejoin:round;stroke-miterlimit:4;stroke-dasharray:none;stroke-opacity:1;visibility:visible"/><path d="M565.17 860.391c-.274.091-.274.136-.546.227-.271.045-.271.045-.589.09l-.635-.089-.636-.273c-.316-.227-.316-.227-.588-.408-.272-.317-.272-.317-.544-.59-.228-.318-.228-.318-.41-.679-.179-.319-.179-.319-.316-.68" style="fill:none;stroke:red;stroke-width:.999997;stroke-linecap:round;stroke-linejoin:round;stroke-miterlimit:4;stroke-dasharray:none;stroke-opacity:1;visibility:visible"/><path d="M576.96 883.431c.272 0 .272 0 .544.046.226.136.272.136.499.226.226.182.226.182.497.408.184.227.184.227.365.5.135.272.18.272.272.544l.183.635v.544c-.092.226-.092.272-.183.499M578.004 887.605l-.544-.091c-.227-.09-.272-.09-.5-.227-.225-.181-.225-.181-.497-.362-.183-.272-.183-.272-.364-.5-.135-.27-.18-.27-.272-.589-.091-.273-.091-.273-.182-.591v-.587c.09-.228.09-.228.182-.501M578.321 993.234l.272.544c.09.272.09.317.137.59v.544c-.046.228-.046.228-.137.499M576.463 992.055c.226 0 .226 0 .453.045l.544.272c.227.182.272.182.499.363.181.272.181.272.364.499M577.46 996.091c-.272-.045-.272-.045-.5-.09-.27-.091-.27-.091-.543-.228-.226-.181-.226-.181-.453-.407l-.364-.456c-.136-.269-.136-.269-.272-.589-.09-.271-.09-.271-.136-.542-.044-.273-.044-.273 0-.545.045-.272.045-.272.136-.499" style="fill:none;stroke:red;stroke-width:.666665;stroke-linecap:round;stroke-linejoin:round;stroke-miterlimit:4;stroke-dasharray:none;stroke-opacity:1;visibility:visible"/><path d="M581.587 843.474c.272 0 .272 0 .543-.045l.545-.182c2.177-1.27 2.177-1.27 4.309-2.585" style="fill:none;stroke:red;stroke-width:.999997;stroke-linecap:round;stroke-linejoin:round;stroke-miterlimit:4;stroke-dasharray:none;stroke-opacity:1;visibility:visible"/><path d="m332.91 813.041.09-.453.273-.408.318-.272.407-.091M336.04 815.037l-.227.408-.362.227-.41.09" style="fill:none;stroke:red;stroke-width:.666665;stroke-linecap:round;stroke-linejoin:round;stroke-miterlimit:4;stroke-dasharray:none;stroke-opacity:1;visibility:visible"/><path d="m581.316 843.474-.455-.09M336.539 944.614v-.136" style="fill:none;stroke:red;stroke-width:.999997;stroke-linecap:round;stroke-linejoin:round;stroke-miterlimit:4;stroke-dasharray:none;stroke-opacity:1;visibility:visible"/><path d="m338.035 915.406-.408.09-.317.227-.227.363M339.078 919.261l.41-.09.317-.227.226-.363" style="fill:none;stroke:red;stroke-width:.666665;stroke-linecap:round;stroke-linejoin:round;stroke-miterlimit:4;stroke-dasharray:none;stroke-opacity:1;visibility:visible"/><path d="m347.469 797.666.455-.227M345.065 791.997l-.453.272M352.504 935.135l.453-.181.363-.363M350.144 929.692l-.453.227-.363.362-.227.454-.09.59M331.76 772.557l248.285 70.593M564.807 1003.847l.408-.363M561.86 998.313l-.544.227-.364.362" style="fill:none;stroke:red;stroke-width:.999997;stroke-linecap:round;stroke-linejoin:round;stroke-miterlimit:4;stroke-dasharray:none;stroke-opacity:1;visibility:visible"/><path d="m578.323 995.774-.41.227-.451.09M575.33 992.735l.272-.363.408-.272.455-.045M578.595 995.41l-.272.363M575.828 884.157l.272-.408.41-.227.453-.09M579.14 886.833l-.272.408-.41.272-.453.09" style="fill:none;stroke:red;stroke-width:.666665;stroke-linecap:round;stroke-linejoin:round;stroke-miterlimit:4;stroke-dasharray:none;stroke-opacity:1;visibility:visible"/><path d="M581.225 843.474h.499M582.087 843.428l-.272.045" style="fill:none;stroke:red;stroke-width:.999997;stroke-linecap:round;stroke-linejoin:round;stroke-miterlimit:4;stroke-dasharray:none;stroke-opacity:1;visibility:visible"/><path d="m580.86 1025.572.455-.181 4.172-2.903c.18-.136.18-.136.317-.272" style="fill:none;stroke:red;stroke-width:1.99999;stroke-linecap:round;stroke-linejoin:round;stroke-miterlimit:4;stroke-dasharray:none;stroke-opacity:1;visibility:visible"/><path d="m586.03 1021.444 1.18-181.1c0-.179 0-.179-.044-.361-.046-.137-.046-.137-.136-.273-.138-.18-.138-.18-.273-.317" style="fill:none;stroke:red;stroke-width:.999997;stroke-linecap:round;stroke-linejoin:round;stroke-miterlimit:4;stroke-dasharray:none;stroke-opacity:1;visibility:visible"/><path d="M330.098 770.772c-.138.136-.138.136-.272.317l-.09.271c-.048.137-.048.137-.048.318M335.45 768.231l-.453.09-4.582 2.269-.317.181" style="fill:none;stroke:red;stroke-width:1.99999;stroke-linecap:round;stroke-linejoin:round;stroke-miterlimit:4;stroke-dasharray:none;stroke-opacity:1;visibility:visible"/><path d="m344.42 770.656-8.563-2.425" style="fill:none;stroke:red;stroke-width:.999997;stroke-linecap:round;stroke-linejoin:round;stroke-miterlimit:4;stroke-dasharray:none;stroke-opacity:1;visibility:visible"/><path d="m499.064 814.456-154.642-43.8M579.182 837.148l-70.481-19.963" style="fill:none;stroke:red;stroke-width:1.99999;stroke-linecap:round;stroke-linejoin:round;stroke-miterlimit:4;stroke-dasharray:none;stroke-opacity:1;visibility:visible"/><path d="m586.759 839.392-.455-.227-7.122-2.017" style="fill:none;stroke:red;stroke-width:.999997;stroke-linecap:round;stroke-linejoin:round;stroke-miterlimit:4;stroke-dasharray:none;stroke-opacity:1;visibility:visible"/><path d="m329.69 771.678 6.85 172.8M336.539 944.433l.045.363.182.362.272.227.317.181 243.007 80.005h.5" style="fill:none;stroke:red;stroke-width:1.99999;stroke-linecap:round;stroke-linejoin:round;stroke-miterlimit:4;stroke-dasharray:none;stroke-opacity:1;visibility:visible"/><path d="m453.415 731.721.272.363a2 2 0 0 1 .227.453c.045.317.045.317.09.59v.634c0 .364 0 .364-.09.727l-.182.634-.272.635c-.134.272-.134.272-.317.545-.181.228-.181.228-.408.454-.136.09-.136.09-.317.226M451.148 736.937c-.137-.181-.137-.181-.272-.317-.136-.272-.136-.272-.228-.5-.044-.271-.044-.271-.09-.589-.045-.316-.045-.316-.045-.634.047-.364.047-.364.091-.681.09-.363.09-.363.227-.68.089-.318.089-.318.272-.636.135-.271.135-.271.317-.544.182-.227.182-.227.408-.454.182-.136.182-.136.408-.272.182-.09.182-.09.408-.136M343.659 770.453l114.656-56.83" style="fill:none;stroke:red;stroke-width:.999997;stroke-linecap:round;stroke-linejoin:round;stroke-miterlimit:4;stroke-dasharray:none;stroke-opacity:1;visibility:visible"/><path d="m452.42 736.982-.09.045-.409.136-.409-.045-.361-.181M452.646 731.494l.41.045.36.182" style="fill:none;stroke:red;stroke-width:.999997;stroke-linecap:round;stroke-linejoin:round;stroke-miterlimit:4;stroke-dasharray:none;stroke-opacity:1;visibility:visible"/><path d="M451.422 711.04h-.228l-115.198 56.784" style="fill:none;stroke:red;stroke-width:1.99999;stroke-linecap:round;stroke-linejoin:round;stroke-miterlimit:4;stroke-dasharray:none;stroke-opacity:1;visibility:visible"/><path d="m459.857 803.335-1.45-89.801-.091-.317-.182-.272-.317-.227-.41-.136-5.985-1.543M580.862 843.718l-.997 181.127" style="fill:none;stroke:red;stroke-width:.999997;stroke-linecap:round;stroke-linejoin:round;stroke-miterlimit:4;stroke-dasharray:none;stroke-opacity:1;visibility:visible"/><path d="m334.267 813.576.428.43M338.406 917.128l.261.47M577.267 885.255l.428.357M576.8 993.867l.356.31M499.814 814.674l.09-.045h-.134" style="fill:none;stroke:red;stroke-width:.666665;stroke-linecap:round;stroke-linejoin:round;stroke-miterlimit:4;stroke-dasharray:none;stroke-opacity:1;visibility:visible"/><path d="m586.984 840.662.908-.544M587.892 840.118l-.908.544M344.42 770.656l-12.66 1.901" style="fill:none;stroke:red;stroke-width:.999997;stroke-linecap:round;stroke-linejoin:round;stroke-miterlimit:4;stroke-dasharray:none;stroke-opacity:1;visibility:visible"/><path d="m499.064 814.456 9.637 2.73" style="fill:none;stroke:red;stroke-width:1.99999;stroke-linecap:round;stroke-linejoin:round;stroke-miterlimit:4;stroke-dasharray:none;stroke-opacity:1;visibility:visible"/><path d="m508.25 817.032 109.666-61.319-.725 59.187" style="fill:none;stroke:#00ff4a;stroke-width:.999997;stroke-linecap:round;stroke-linejoin:round;stroke-miterlimit:4;stroke-dasharray:none;stroke-opacity:1;visibility:visible" visibility="hidden"/><path d="m610.161 753.174-110.574 61.41" style="fill:none;stroke:#00ff4a;stroke-width:1.99999;stroke-linecap:round;stroke-linejoin:round;stroke-miterlimit:4;stroke-dasharray:none;stroke-opacity:1;visibility:visible" visibility="hidden"/></svg>