<svg xmlns="http://www.w3.org/2000/svg" baseProfile="full" height="1122.52" preserveAspectRatio="xMinYMin meet" style="width:765px;height:943px" width="793.701" xml:space="preserve"><path d="m494.679 878.78-.039-.225.076-.266.19-.227.228-.113h.263M497.324 788.413l-.303-.153c-.113-.111-.113-.111-.264-.224-.074-.152-.074-.152-.187-.303-.077-.153-.077-.153-.114-.34v-.303M496.305 787.165v.34c.076.152.076.152.115.34l.149.225M498.043 788.035c.037-.189.037-.189.037-.34 0-.152-.037-.152-.075-.301-.038-.191-.075-.191-.152-.341-.113-.114-.113-.114-.226-.265-.114-.076-.114-.076-.267-.188l-.299-.077M497.437 834.069c.038-.076.038-.076.038-.15l-.075-.381c-.113-.188-.113-.188-.19-.376-.074-.076-.074-.076-.112-.152M495.51 879.84c-.15-.074-.15-.074-.262-.15-.153-.113-.153-.113-.265-.227-.114-.113-.114-.113-.19-.265M495.397 877.95l.303.076c.15.113.15.113.264.188.113.152.113.152.227.265l.152.303c.037.188.037.188.076.34 0 .15 0 .15-.039.303M497.06 786.522l-.303.038-.225.114-.152.226-.075.264" style="fill:none;stroke:red;stroke-width:.999997;stroke-linecap:round;stroke-linejoin:round;stroke-miterlimit:4;stroke-dasharray:none;stroke-opacity:1;visibility:visible"/><path d="m496.57 788.073.301.264.302.152.303.037.265-.076.19-.188.112-.226M497.437 834.145v.075M497.248 834.637l.19-.417M496.456 832.52l.037.039M496.417 832.52l-.227-.074h-.15M497.021 832.935l-.037-.037M496.57 832.558l.414.34M495.51 832.671l.34-.189h.115M495.565 750.633l5.48 1.55M494.792 879.197l-.112-.417M496.38 879.423l-.113.227-.19.19-.266.036-.3-.037M589.81 695.89l.036.038M498.193 771.216l.077.076M498.307 771.329l.226.416v.075M498.572 771.896l.038.264-.038.378-.15.34-.115.076M497.853 770.876l.19.113.15.19M498.76 905.011l2.872-152.767 88.708-55.522M497.779 770.838l-.114-.076-.34-.112-.115.036M497.135 770.686h-.19l-.225.114M496.456 787.09l.076-.303.113-.187" style="fill:none;stroke:red;stroke-width:.999997;stroke-linecap:round;stroke-linejoin:round;stroke-miterlimit:4;stroke-dasharray:none;stroke-opacity:1;visibility:visible"/><path d="m497.816 788.374-.19.038h-.301" style="fill:none;stroke:red;stroke-width:.999997;stroke-linecap:round;stroke-linejoin:round;stroke-miterlimit:4;stroke-dasharray:none;stroke-opacity:1;visibility:visible"/><path d="m589.81 695.89-6.05-1.588-.263.04-88.666 55.065-.304.266-.15.264-.041.303-.413 22.337M493.885 775.109l-1.02 59.338M584.82 843.027l.037-.264 5.519-146.117M492.825 836.942l-1.172 65.84.077.227.15.3.304.191 6.236 2.041.15-.041M498.572 905.502l85.796-61.984c.15-.113.15-.113.264-.227.113-.113.113-.113.19-.265" style="fill:none;stroke:red;stroke-width:1.99999;stroke-linecap:round;stroke-linejoin:round;stroke-miterlimit:4;stroke-dasharray:none;stroke-opacity:1;visibility:visible"/><path d="m590.376 696.684-.037-.264-.152-.266-.264-.189" style="fill:none;stroke:red;stroke-width:1.99999;stroke-linecap:round;stroke-linejoin:round;stroke-miterlimit:4;stroke-dasharray:none;stroke-opacity:1;visibility:visible"/><path d="m497.001 770.712-4.493 2.86-.358.21-.04.004v.028l-.027.003c.002.041.002.041-.035.087l.003.04c-.042.005-.042.005-.038.046l-.033.115-.033.087-.038.045-.049.241c-.033.115-.033.115-.019.28.051.108.051.108.066.275.078.104.078.104.13.225l.003.028c.139.156.139.156.217.262.133.072.133.072.253.172.086.036.086.036.22.109.138.03.153.028.264.019l.042-.004.13.032.068-.007c.042-.004.042-.004.045.024l.041-.003.043-.004c-.003-.028-.003-.028.037-.03l.145-.098.042-.002.08-.05.066-.046 4.783-3.027" style="fill:none;fill-opacity:1;fill-rule:nonzero;stroke:red;stroke-width:1.33333;visibility:visible"/><path d="m493.464 774.3-.007-.08-.004-.037-.002-.041-.004-.038c-.039.002-.039.002-.043-.036-.039.002-.039.002-.041-.036l-.08.006-.039.003M493.745 774.83l-.004-.04c.04-.002.04-.002.036-.042l-.004-.04v-.038c-.006-.04-.046-.036-.046-.036l-.003-.04-.041-.036M493.753 775.384c.04-.004.04-.004.035-.044.04-.002.04-.002.037-.042l.035-.042-.003-.04-.006-.077-.039.002c-.004-.039-.004-.039-.042-.036M493.03 773.862l-.004-.04-.003-.038-.043-.036-.04-.036-.043.004-.037.002-.04.004-.04.003M493.684 774.558l-.121-.03-.083-.03-.113.047.068-.125.03-.12M493.527 775.046l.15-.092.067-.124" style="fill:none;stroke:red;stroke-width:.666665;stroke-linecap:round;stroke-linejoin:round;stroke-miterlimit:4;stroke-dasharray:none;stroke-opacity:1;visibility:visible"/><path d="m493.77 775.105-.084-.032-.159-.027M493.663 775.708l.034-.043.04-.003-.002-.04-.005-.04-.04.004-.083-.072-.083-.032.116-.05.113-.047M493.001 775.844l.04-.004M491.913 774.233l.037-.043M492.781 773.725l-.111.088-.11.09.029-.123-.049-.075-.005-.077-.039.002-.039.003M492.972 774.104l.07-.126-.012-.117M492.043 775.292l-.003-.04M493.239 775.862l-.079.008-.12-.031" style="fill:none;stroke:red;stroke-width:.666665;stroke-linecap:round;stroke-linejoin:round;stroke-miterlimit:4;stroke-dasharray:none;stroke-opacity:1;visibility:visible"/><path d="m498.519 772.629-4.859 3.079-.073.046-.04.003-.15.092M492.076 773.824l.039-.004 4.902-3.12M491.95 774.192h0l.034-.083.029-.121M492.04 775.252c-.05-.115-.05-.115-.139-.226-.011-.156-.011-.156-.06-.272-.017-.157-.017-.157.013-.278M493.04 775.84c-.157.015-.157.015-.317-.01-.126-.071-.126-.071-.208-.102-.127-.108-.127-.108-.252-.178-.088-.11-.088-.11-.22-.257M493.397 775.849c-.037.003-.037.003-.036.043l-.04.002-.038.004c-.004-.038-.004-.038-.043-.036M492.012 773.988c-.004-.04-.004-.04.036-.043l-.004-.039c.037-.042.037-.042.033-.082M493.243 774.04l-.119.013-.153.051" style="fill:none;stroke:red;stroke-width:.666665;stroke-linecap:round;stroke-linejoin:round;stroke-miterlimit:4;stroke-dasharray:none;stroke-opacity:1;visibility:visible"/><path d="m495.736 832.657-4.43 2.953-.358.22-.038.004.002.028-.028.003c.004.041.004.041-.033.088l.005.041c-.041.004-.041.004-.036.045l-.031.116-.033.087-.036.047-.045.241c-.03.116-.03.116-.012.281.053.107.053.107.07.274.082.102.082.102.137.222l.003.028c.142.155.142.155.223.256.132.07.132.07.255.17.088.032.088.032.221.102a.643.643 0 0 0 .308.008l.13.03.068-.008c.042-.004.042-.004.045.024l.041-.007.043-.003c-.003-.027-.003-.027.038-.032l.143-.1.043-.004.077-.05.065-.048 4.718-3.127" style="fill:none;fill-opacity:1;fill-rule:nonzero;stroke:red;stroke-width:1.33333;visibility:visible"/><path d="m492.503 837.722.034-.042.04-.006-.004-.039-.003-.038-.039.003-.088-.07-.083-.03.115-.054.112-.051M491.845 837.871l.04-.004M490.724 836.285l.036-.043M491.58 835.758l-.11.09-.108.092.025-.12-.047-.076-.01-.078-.037.004-.04.004M491.779 836.134l.066-.124-.013-.12M492.275 836.32l-.01-.08-.004-.037-.004-.041-.004-.039c-.038.004-.038.004-.042-.033-.041.003-.041.003-.044-.037l-.079.01-.038.002M492.568 836.843l-.004-.038c.039-.005.039-.005.036-.045l-.004-.038-.004-.04c-.004-.039-.045-.035-.045-.035l-.004-.04-.043-.034M492.587 837.397c.038-.004.038-.004.033-.043.041-.005.041-.005.037-.044l.035-.044-.004-.039-.01-.077-.038.003c-.004-.039-.004-.039-.043-.035M491.832 835.89l-.004-.039-.004-.04-.044-.034-.043-.035-.04.004-.037.004-.04.004-.039.004M490.876 837.34l-.005-.04M492.084 837.886l-.08.008-.12-.027" style="fill:none;stroke:red;stroke-width:.666665;stroke-linecap:round;stroke-linejoin:round;stroke-miterlimit:4;stroke-dasharray:none;stroke-opacity:1;visibility:visible"/><path d="m497.293 834.542-4.792 3.18-.073.048-.04.004-.148.096M490.879 835.873l.038-.004 4.835-3.222M490.759 836.242h0l.03-.082.027-.12M490.87 837.3c-.05-.112-.05-.112-.14-.221-.019-.158-.019-.158-.07-.271-.016-.158-.016-.158.01-.281M491.884 837.867c-.157.016-.157.016-.317-.005-.127-.067-.127-.067-.21-.097-.131-.106-.131-.106-.257-.17-.089-.111-.089-.111-.224-.257M492.241 837.87c-.038.004-.038.004-.034.044l-.04.004-.039.004c-.004-.039-.004-.039-.043-.035M490.816 836.038c-.004-.04-.004-.04.035-.044l-.004-.039c.036-.042.036-.042.032-.082M492.05 836.066l-.12.012-.15.056M492.5 836.574l-.123-.027-.08-.03-.115.052.066-.127.027-.121M492.353 837.065l.148-.096.066-.126M492.599 837.118l-.083-.03-.161-.024" style="fill:none;stroke:red;stroke-width:.666665;stroke-linecap:round;stroke-linejoin:round;stroke-miterlimit:4;stroke-dasharray:none;stroke-opacity:1;visibility:visible"/><path d="m493.885 775.109.038-2.532M492.825 836.942l.04-2.495" style="fill:none;stroke:red;stroke-width:1.99999;stroke-linecap:round;stroke-linejoin:round;stroke-miterlimit:4;stroke-dasharray:none;stroke-opacity:1;visibility:visible"/><path d="m340.746 702.66.037-.227M340.594 703.001h-.039v.037h-.039l-.188.115-.038.037-.038.038h-.037l-1.404.79M340.746 702.66h0l-.038.113-.038.077M339.912 701.11h-.112l-.077-.037h-.15M340.783 702.434l.037-.113v-.15M340.67 702.85c-.038.035-.038.035-.038.074v.038c-.038 0-.038 0-.038.038M339.988 701.148h-.037l-.039-.038M340.82 702.17c-.037-.115-.037-.115-.037-.266-.076-.151-.076-.151-.152-.264l-.151-.227c-.114-.076-.114-.113-.228-.19-.112-.036-.112-.036-.264-.073M340.783 702.472h0M340.783 702.434h0M340.215 703.228h0" style="fill:none;stroke:#00ff4a;stroke-width:.666665;stroke-linecap:round;stroke-linejoin:round;stroke-miterlimit:4;stroke-dasharray:none;stroke-opacity:1;visibility:visible"/><path d="m241.455 678.86 5.127 137.26M242.017 755.153l-.227-.453M241.375 754.284l.151.113.152.15M241.338 754.246l-.113-.076-.303-.076h-.112M240.62 754.133l-.039.037M240.771 754.094l-.114.039-.227.113M242.017 755.228l.037.226v.34l-.113.303-.038.075M242.017 797.294l.152-.19.19-.112M243.491 798.353l-.113.226-.15.151-.228.076-.226-.036M242.36 796.993h.225M238.578 695.966l-.076.038M239.146 696.117l-.113-.076-.303-.075h-.075M239.826 697.1l.076.226-.039.38-.113.299-.075.077M240.24 711.953l-.036.377-.077.152-.15.19-.227.074-.227-.036-.263-.114M238.767 711.234l.114-.226.189-.114.264-.037.228.075M235.291 676.917l5.82 1.663M335.372 755.72c.114.153.114.153.228.266.112.189.112.189.19.378l.072.453v.53l-.074.528c-.076.303-.076.303-.152.567-.074.266-.113.266-.226.53-.114.226-.114.226-.266.453-.15.19-.15.19-.3.34-.191.15-.191.15-.341.264M333.558 760.028c-.15-.114-.15-.114-.264-.264l-.152-.38c-.038-.225-.038-.225-.112-.451v-.493c.037-.302.037-.302.075-.567.075-.264.075-.264.149-.567.114-.226.114-.226.228-.49.152-.227.152-.227.265-.456.153-.187.19-.187.34-.376.153-.114.153-.114.34-.264.153-.076.153-.076.34-.114M333.482 646.001l.226.303c.114.19.114.19.191.376.037.267.037.267.075.493v.53c0 .3 0 .3-.076.604l-.152.529-.227.53c-.113.225-.113.225-.264.452-.15.19-.15.19-.34.378-.15.113-.15.113-.34.228-.19.075-.19.075-.341.113M331.592 650.348c-.112-.152-.112-.152-.226-.264-.113-.228-.113-.228-.19-.416-.036-.228-.036-.228-.074-.492-.037-.264-.037-.264-.037-.53.036-.262.036-.262.074-.489.076-.341.076-.341.191-.644.073-.263.073-.263.225-.53.113-.225.113-.225.265-.451.15-.192.15-.192.34-.379.15-.113.15-.113.34-.228.151-.074.151-.074.34-.113M294.137 780.136a.396.396 0 0 1 .15-.114c.078-.076.078-.076.115-.19.076-.112.076-.112.113-.186M294.175 778.813c-.037.039-.075.039-.113.076l-.15.15c-.041.115-.078.115-.115.191-.038.226-.038.226-.112.452 0 .114.037.114.037.19a.84.84 0 0 0 .076.188M294.515 779.645c.038-.113.038-.113.038-.227 0-.113 0-.113.037-.226-.037-.114-.037-.114-.075-.19M291.569 666.258c0 .114.037.114.037.227v.227l-.076.226M290.773 667.317c0-.076 0-.076-.038-.19-.038-.073-.038-.112-.038-.187.038-.19.038-.19.076-.342.076-.188.076-.188.15-.34M291.53 666.938l-.077.227-.151.15c-.037.078-.037.078-.113.115M253.205 802.774c.113.19.113.19.19.377.075.229.075.229.115.455v.53c-.001.299-.001.299-.077.602-.078.267-.078.267-.153.568l-.226.53c-.152.264-.152.264-.303.49-.15.189-.15.189-.34.379l-.377.302-.228.076M250.711 806.78c-.076-.188-.076-.188-.19-.376-.038-.229-.038-.229-.114-.493v-.529c.039-.302.039-.302.076-.567l.152-.605.227-.528c.152-.228.152-.228.303-.492.15-.19.15-.19.34-.379.188-.15.188-.15.377-.264a.805.805 0 0 1 .379-.15M248.18 688.406c-.19.038-.19.038-.379.114-.189.113-.189.113-.378.264-.152.152-.152.152-.302.341l-.378.53-.226.526c-.114.304-.114.304-.19.607l-.076.605c.039.264.039.264.039.567.037.226.037.226.113.49.077.227.114.227.19.416.15.151.15.151.264.304M247.573 693.321c.19-.037.19-.037.377-.113.191-.114.191-.114.38-.264l.377-.379c.151-.227.151-.227.303-.49l.227-.531.15-.604c.076-.302.076-.302.076-.604v-.568c-.037-.226-.037-.226-.113-.49-.113-.191-.113-.228-.19-.418l-.301-.302M242.773 798.769c-.114-.076-.114-.076-.264-.15-.114-.078-.114-.078-.227-.191-.076-.149-.076-.149-.15-.265-.079-.15-.079-.15-.116-.3-.038-.153-.038-.153-.038-.305 0-.112 0-.112.039-.263M242.586 796.993c.114 0 .114 0 .227.076.15.074.15.074.264.15a.685.685 0 0 1 .19.264c.073.115.073.115.149.267l.077.3v.304M239.22 696.154l.116.114c.15.15.15.15.264.302l.226.454M239.562 710.933c.15.076.15.076.264.19l.152.149c.112.191.112.191.188.38l.076.301M239.26 712.596l-.23-.227c-.112-.113-.112-.113-.187-.265-.038-.151-.038-.151-.113-.302 0-.152 0-.152-.039-.302.04-.152.04-.152.076-.266M337.564 630.921c.076-.076-96.113 47.623-96.113 47.623-.076.036-.076.036-.189.036h-.15M337.035 630.127l.113.037M334.767 755.606h.303l.302.114M334.503 760.028l-.34.152h-.341l-.264-.152M331.592 628.804l.078-.037" style="fill:none;stroke:#00ff4a;stroke-width:.999997;stroke-linecap:round;stroke-linejoin:round;stroke-miterlimit:4;stroke-dasharray:none;stroke-opacity:1;visibility:visible"/><path d="m332.235 650.536-.34-.037-.225-.114M332.84 645.812l.34.037.3.152M331.668 650.385l-.076-.037M293.798 780.06l.076.076.15.037.115-.037M294.515 779l-.075-.15-.114-.038h-.152M290.925 666.258l.15-.152.152-.074.114.037.149.076.077.113M291.189 667.43l-.151.038-.152-.038-.113-.113M252.26 802.397l.34-.038.34.151.266.264M251.806 807.083l-.15.077h-.341l-.34-.153-.265-.226M246.855 693.17l.34.15h.378M248.858 688.558l-.303-.152h-.377" style="fill:none;stroke:#00ff4a;stroke-width:.999997;stroke-linecap:round;stroke-linejoin:round;stroke-miterlimit:4;stroke-dasharray:none;stroke-opacity:1;visibility:visible"/><path d="m337.035 630.127-.227-.077M246.706 822.92h-.15l-5.331-1.737-.302-.191-.15-.225-.076-.265-2.382-62.362M339.794 762.977l-2.155-132.132-.076-.265-.15-.227-.266-.19-.339-.111-4.988-1.285h-.19l-96 47.318-.264.227-.152.265-.037.264.793 20.41M238.2 755.417l-2.116-55.445" style="fill:none;stroke:#00ff4a;stroke-width:1.99999;stroke-linecap:round;stroke-linejoin:round;stroke-miterlimit:4;stroke-dasharray:none;stroke-opacity:1;visibility:visible"/><path d="m456.138 868.66-.228.152c-.112.151-.112.151-.226.265-.074.189-.074.189-.188.377-.076.19-.076.19-.113.379-.039.189-.039.189-.076.414 0 .153 0 .153.037.343l.076.3M456.026 870.966l.228-.227a1.32 1.32 0 0 0 .188-.302c.113-.19.113-.19.188-.378.038-.189.038-.189.077-.416.037-.189.037-.189.037-.378l-.076-.302M435.39 866.695c-.151-.15-.151-.15-.303-.264-.19-.113-.19-.113-.417-.226-.263-.076-.263-.076-.53-.19-.261-.038-.261-.038-.564-.075-.304-.038-.304-.038-.644-.038-.301 0-.301 0-.604.037-.302.038-.302.038-.568.076-.264.076-.264.076-.528.19-.226.074-.226.074-.416.188-.152.152-.152.152-.302.265M431.006 867.867c.113.076.113.076.226.114.264.113.264.113.528.189.266.037.266.037.568.113.303 0 .303 0 .643.038.301-.038.301-.038.604-.038.303-.038.303-.038.568-.113l.527-.152c.228-.113.228-.113.418-.227.15-.113.15-.113.264-.226.075-.151.075-.151.188-.303M391.396 866.205c.19.075.19.075.34.15l.302.303c.112.152.112.152.226.34l.152.379c.038.189.038.189.038.377M390.942 868.17c-.152-.152-.152-.152-.264-.34-.114-.19-.114-.19-.19-.379-.074-.188-.074-.188-.113-.377 0-.19 0-.19.039-.34M340.863 772.774c.15.114.15.114.264.227.19.113.19.113.377.189.342.113.342.113.72.19M345.4 772.094c-.115-.113-.115-.113-.266-.226-.189-.076-.189-.076-.339-.19-.265-.074-.265-.074-.492-.113-.34-.075-.34-.075-.717-.113h-.946l-.529.076c-.227.076-.227.076-.491.15-.19.076-.19.076-.378.19l-.303.226" style="fill:none;stroke:#00ff4a;stroke-width:.999997;stroke-linecap:round;stroke-linejoin:round;stroke-miterlimit:4;stroke-dasharray:none;stroke-opacity:1;visibility:visible"/><path d="m342.224 773.38.831.076c.265 0 .265 0 .568-.04l.528-.073c.265-.077.265-.077.49-.153.192-.074.192-.074.419-.188.112-.076.112-.076.263-.19M289.653 834.494c.037-.19.037-.19.037-.34v-.379l-.152-.377c-.113-.15-.113-.15-.228-.34-.149-.113-.149-.113-.3-.265l-.303-.15M287.8 833.171c-.039.152-.039.19-.039.34.038.19.038.19.114.38l.151.375c.15.154.15.154.264.304.152.113.152.113.304.19.188.073.188.073.34.112M268.031 814.991l.227.227c.19.113.19.113.379.19l.453.149M272.757 814.235c-.115-.152-.115-.152-.228-.264-.189-.076-.189-.076-.379-.189l-.452-.152-.53-.075c-.301-.038-.301-.038-.604-.038-.302 0-.302 0-.604.038-.266.038-.266.038-.567.075l-.53.152c-.189.076-.189.076-.413.19-.155.11-.155.11-.305.225-.115.114-.115.151-.19.265M269.09 815.558c.264.076.264.076.567.113.265 0 .265 0 .568.04.301-.041.301-.041.604-.041.301-.036.301-.036.566-.112.266-.037.266-.037.53-.15.189-.078.189-.078.415-.191l.302-.226c.115-.113.115-.113.19-.265M390.791 866.242l.264-.113.341.076M391.999 868.434l.19-.113-.267.149-.339.04-.339-.113-.304-.227M390.412 866.734l.151-.303.227-.188-.188.151M340.94 772.094l-.153.227-.037.227.113.226M345.323 772.813l.15-.227.041-.264-.116-.228M339.843 762.986h.077M288.706 832.642l-.303-.037-.302.074-.191.191-.112.3" style="fill:none;stroke:#00ff4a;stroke-width:.999997;stroke-linecap:round;stroke-linejoin:round;stroke-miterlimit:4;stroke-dasharray:none;stroke-opacity:1;visibility:visible"/><path d="M288.933 834.871h.302l.226-.15.189-.227M267.957 814.462l-.038.264.114.265M272.833 814.727l.037-.264-.113-.226M437.467 878.827v7.143M489.441 843.457l-51.898 35.221-190.978-62.25M455.42 870.891l.15.152.229.038M456.668 868.963l-.113-.226-.19-.114-.225.038M455.799 871.08l.227-.112" style="fill:none;stroke:#00ff4a;stroke-width:.999997;stroke-linecap:round;stroke-linejoin:round;stroke-miterlimit:4;stroke-dasharray:none;stroke-opacity:1;visibility:visible"/><path d="m430.514 866.658-.151.303v.264l.15.302.306.264.187.076M435.54 867.262v-.303l-.15-.264M392.452 867.754l-.076.34-.188.227" style="fill:none;stroke:#00ff4a;stroke-width:.999997;stroke-linecap:round;stroke-linejoin:round;stroke-miterlimit:4;stroke-dasharray:none;stroke-opacity:1;visibility:visible"/><path d="m246.715 823.345.076.075 190.715 62.589.074-.039.568-.376 50.535-34.548M489.208 807.806 339.88 762.948" style="fill:none;stroke:#00ff4a;stroke-width:1.99999;stroke-linecap:round;stroke-linejoin:round;stroke-miterlimit:4;stroke-dasharray:none;stroke-opacity:1;visibility:visible"/><path d="m339.843 762.986-93.353 53.48.225 6.879" style="fill:none;stroke:#00ff4a;stroke-width:.999997;stroke-linecap:round;stroke-linejoin:round;stroke-miterlimit:4;stroke-dasharray:none;stroke-opacity:1;visibility:visible"/><path d="m455.544 871.067 4.534 1.568.372.145.028.027.02-.017.018.019c.03-.027.03-.027.086-.026l.028-.028c.028.03.028.03.057.003l.107-.044.084-.027.057.003.21-.108c.105-.044.105-.044.223-.153.049-.103.049-.103.166-.212.032-.122.032-.122.092-.234l.018-.018c.036-.196.036-.196.067-.319-.025-.141-.025-.141-.021-.292-.024-.087-.024-.087-.05-.228a.613.613 0 0 0-.145-.212l-.027-.03-.053-.114-.045-.048c-.027-.03-.027-.03-.008-.048l-.027-.03-.028-.028c-.019.018-.019.018-.047-.011l-.158-.051-.028-.03-.084-.029-.075-.022-4.81-1.678" style="fill:none;fill-opacity:1;fill-rule:nonzero;stroke:#00ff4a;stroke-width:1.33333;visibility:visible"/><path d="m460.439 872.747-4.45-1.56M460.816 872.653h0l-.081.024-.108.049M461.512 870.963l.1.218.046.268-.003.054-.033.239-.09.29-.085.134-.057.104M461.046 870.52l.186.034.024.026.027.029.025.026.027.028M456.546 868.913l4.368 1.522" style="fill:none;stroke:#00ff4a;stroke-width:.666665;stroke-linecap:round;stroke-linejoin:round;stroke-miterlimit:4;stroke-dasharray:none;stroke-opacity:1;visibility:visible"/><path d="M460.627 872.726c-.027-.028-.027-.028-.053-.001l-.055-.002-.029.027-.052-.003M461.39 872.27l-.191.181c-.084.079-.084.079-.192.127-.11.05-.11.05-.19.075M461.335 870.663c-.001.054-.001.054.025.082l.076.082c.026.08.026.08.076.136M460.914 870.437c.026.028.026.028.053.001l.052.056.027.027M461.486 870.935l.026.028M460.816 872.653h0M460.914 870.437h0" style="fill:none;stroke:#00ff4a;stroke-width:.666665;stroke-linecap:round;stroke-linejoin:round;stroke-miterlimit:4;stroke-dasharray:none;stroke-opacity:1;visibility:visible"/><path d="m390.655 866.351-4.116 3.019-.33.224-.037.007.003.026-.028.004c.007.039.007.039-.027.084l.007.04c-.04.007-.04.007-.035.046l-.022.112-.028.085-.034.045-.032.235c-.022.11-.022.11 0 .27.056.097.056.097.08.256a.693.693 0 0 1 .139.209l.004.026c.144.141.144.141.225.235.131.061.131.061.254.15.084.03.084.03.214.091a.635.635 0 0 0 .256 0l.04-.005.124.02.068-.009c.038-.006.038-.006.042.019l.04-.005.04-.005c-.004-.027-.004-.027.034-.033l.135-.102.039-.005.073-.052.06-.05 4.381-3.194" style="fill:none;fill-opacity:1;fill-rule:nonzero;stroke:#00ff4a;stroke-width:1.33333;visibility:visible"/><path d="m387.499 870.005-.012-.075-.005-.037-.006-.038-.005-.037c-.039.005-.039.005-.044-.032-.037.005-.037.005-.043-.032l-.074.012-.038.005M387.802 870.494l-.006-.037c.038-.007.038-.007.032-.043l-.005-.037-.007-.038c-.005-.038-.042-.032-.042-.032l-.006-.037-.044-.032M387.846 871.023c.036-.005.036-.005.03-.042.039-.007.039-.007.032-.043l.032-.044-.006-.037-.011-.075-.037.005c-.007-.037-.007-.037-.043-.03M387.058 869.614l-.008-.037-.004-.038-.043-.032-.043-.032-.038.007-.038.005-.036.006-.038.005M387.843 870.755l-.081-.025-.155-.016M387.778 871.34l.032-.044.037-.006-.005-.037-.006-.038-.036.007-.088-.064-.08-.027.108-.053.106-.055M387.154 871.51l.036-.005M386.012 870.04l.031-.041M386.81 869.498l-.1.092-.102.092.02-.119-.048-.068-.012-.074-.037.005-.037.005" style="fill:none;stroke:#00ff4a;stroke-width:.666665;stroke-linecap:round;stroke-linejoin:round;stroke-miterlimit:4;stroke-dasharray:none;stroke-opacity:1;visibility:visible"/><path d="m387.015 869.849.059-.124-.018-.112M386.044 869.997h0l.027-.08.02-.119M386.199 871.006c-.055-.107-.055-.107-.145-.207-.024-.149-.024-.149-.078-.256-.024-.149-.024-.149-.002-.268M387.191 871.505c-.15.022-.15.022-.305.008-.123-.058-.123-.058-.204-.084-.13-.095-.13-.095-.252-.152-.092-.102-.092-.102-.227-.234M387.532 871.491c-.036.006-.036.006-.03.043l-.039.007-.036.005c-.007-.037-.007-.037-.043-.032M386.092 869.798c-.005-.037-.005-.037.031-.043l-.004-.037c.03-.044.03-.044.025-.081M387.272 869.773l-.112.017-.144.06M387.726 870.238l-.118-.02-.08-.027-.108.055.058-.123.021-.118M387.607 870.715l.139-.097.056-.124M386.203 871.043l-.005-.037M387.384 871.514l-.076.012-.117-.021M392.228 868.089l-4.45 3.25-.07.051-.036.004-.138.097" style="fill:none;stroke:#00ff4a;stroke-width:.666665;stroke-linecap:round;stroke-linejoin:round;stroke-miterlimit:4;stroke-dasharray:none;stroke-opacity:1;visibility:visible"/><path d="m386.143 869.638.037-.005 4.491-3.293" style="fill:none;stroke:#00ff4a;stroke-width:.666665;stroke-linecap:round;stroke-linejoin:round;stroke-miterlimit:4;stroke-dasharray:none;stroke-opacity:1;visibility:visible"/><path d="m288.045 832.893-4.331 2.7-.347.2-.04.002.003.027-.027.001c.003.04.003.04-.033.083l.003.04c-.04.004-.04.004-.036.044l-.034.11-.033.081-.037.044-.05.23c-.032.11-.032.11-.018.27.045.102.045.102.06.262.073.103.073.103.121.218l.003.025c.131.152.131.152.206.253.126.071.126.071.24.17.083.033.083.033.21.104a.61.61 0 0 0 .254.021l.041-.003.122.031.067-.005c.04-.003.04-.003.041.024l.04-.003.04-.004c-.001-.027-.001-.027.039-.03l.138-.089.043-.004.075-.045.064-.045 4.609-2.858" style="fill:none;fill-opacity:1;fill-rule:nonzero;stroke:#00ff4a;stroke-width:1.33333;visibility:visible"/><path d="m284.831 836.547-.117-.029-.077-.032-.111.047.067-.119.029-.116M284.677 837.014l.143-.087.069-.117M284.907 837.073l-.077-.033-.155-.026M284.8 837.65l.033-.04.04-.003-.003-.037-.004-.04-.039.004-.08-.07-.077-.03.109-.048.111-.045M284.165 837.774l.037-.003M283.138 836.22l.033-.04M283.973 835.74l-.107.086-.108.083.03-.116-.044-.073-.006-.075-.037.002-.038.003M284.153 836.107l.066-.117-.008-.115M284.622 836.298l-.005-.076-.003-.037-.003-.038-.001-.037c-.04.003-.04.003-.043-.035-.037.003-.037.003-.04-.035l-.076.006-.037.004M284.889 836.809l-.003-.039c.037 0 .037 0 .033-.04l-.002-.037-.002-.038c-.002-.037-.041-.034-.041-.034l-.004-.039-.039-.035M284.89 837.34c.037-.004.037-.004.035-.043.038-.002.038-.002.035-.039l.035-.04-.002-.038-.007-.075-.037.002c-.003-.037-.003-.037-.04-.034M284.211 835.875l-.001-.037-.005-.038-.04-.035-.04-.035-.039.003-.037.004-.039.001-.037.004M283.249 837.198c-.046-.11-.046-.11-.13-.217-.009-.151-.009-.151-.058-.262-.011-.149-.011-.149.018-.266M284.202 837.77c-.15.012-.15.012-.304-.015-.119-.068-.119-.068-.197-.098-.122-.107-.122-.107-.241-.172-.083-.107-.083-.107-.207-.25M284.545 837.783c-.038.003-.038.003-.035.04l-.04.003-.036.004c-.004-.039-.004-.039-.04-.035M283.234 835.987c-.003-.037-.003-.037.035-.04l-.003-.039c.036-.039.036-.039.033-.078" style="fill:none;stroke:#00ff4a;stroke-width:.666665;stroke-linecap:round;stroke-linejoin:round;stroke-miterlimit:4;stroke-dasharray:none;stroke-opacity:1;visibility:visible"/><path d="m284.413 836.049-.113.008-.147.049M483.123 804.007l-.234-.052-.117-.025-.084-.007M483.336 804.091l.22.222c.079.09.079.09.168.233.059.124.059.124.097.279l.014.272M483.652 805.693c.032.02.032.02.013.052l-.02.032-.02.032M482.273 804.026c-.032-.02-.032-.02-.052.014l-.051.011-.02.034M482.687 803.922l-.067-.039c-.016.032-.016.032-.049.012l-.052.015M483.835 805.097h0M483.123 804.007h0M483.555 805.854h0M483.607 805.84l-.052.015M388.483 775.572l.096.058.117.026M388.987 777.374l-.02.032-.052.014M389.195 776.66l-.052.235-.007.083-.02.032.014.052-.052.014-.008.084-.058.097M387.511 775.649l-1.54 1.023M387.88 775.474h0l-.032-.02-.02.034-.194.102M388.483 775.572l-.233-.052-.118-.026-.084-.006M388.696 775.656l.22.22c.079.09.079.09.168.233.059.124.059.124.098.28l.013.271M389.012 777.257c.032.019.032.019.014.052l-.02.031-.02.033M387.634 775.59c-.032-.018-.032-.018-.052.014l-.052.013-.02.032" style="fill:none;stroke:#00ff4a;stroke-width:.666665;stroke-linecap:round;stroke-linejoin:round;stroke-miterlimit:4;stroke-dasharray:none;stroke-opacity:1;visibility:visible"/><path d="m388.048 775.488-.064-.04c-.018.034-.018.034-.052.014l-.052.012M389.195 776.66h0M388.483 775.572h0M388.915 777.42h0M388.967 777.406l-.052.014M283.253 837.235l-.004-.037M284.394 837.794l-.076.006-.116-.03M289.482 834.743l-4.683 2.907-.072.044-.037.003-.145.086M283.298 835.83l.037-.003 4.726-2.944M283.173 836.18h0l.032-.077.029-.117M483.123 804.007l.096.06.117.023M483.625 805.809l-.02.031-.052.014M483.835 805.097l-.052.233-.007.084-.02.033.014.053-.053.011-.006.084-.059.098M482.15 804.085l-1.54 1.022M482.519 803.91h0l-.032-.02-.02.033-.195.103" style="fill:none;stroke:#00ff4a;stroke-width:.666665;stroke-linecap:round;stroke-linejoin:round;stroke-miterlimit:4;stroke-dasharray:none;stroke-opacity:1;visibility:visible"/><path d="m240.6 754.156-4.494 2.42-.356.181h-.041v.025h-.027c0 .04 0 .04-.039.082v.04c-.038 0-.038 0-.038.04l-.039.106-.04.082-.039.04-.064.228c-.038.106-.038.106-.036.266.043.107.043.107.043.267.068.105.068.105.11.225v.027c.123.159.123.159.19.264.12.079.12.079.23.184.08.039.08.039.2.117a.613.613 0 0 0 .255.038l.04-.002.12.039.065-.001c.042 0 .042 0 .042.026h.08c0-.028 0-.028.039-.028l.146-.082h.04l.08-.042.066-.04 4.78-2.561" style="fill:none;fill-opacity:1;fill-rule:nonzero;stroke:#00ff4a;stroke-width:1.33333;visibility:visible"/><path d="m236.978 758.057.15-.077.073-.115M237.206 758.13l-.076-.037-.151-.035M237.062 758.698l.038-.038h.04l-.004-.038v-.038h-.038l-.076-.074-.076-.037.114-.039.111-.04M236.42 758.782h.036M235.493 757.169l.037-.039M236.357 756.742l-.112.078-.115.076.037-.114-.037-.074v-.076h-.077M236.514 757.118l.076-.114-.004-.114M236.969 757.34l-.002-.076v-.114c-.039.002-.039.002-.039-.037-.038.001-.038.001-.039-.037h-.114M237.202 757.865v-.037c.038-.002.038-.002.038-.04v-.075c-.004-.036-.042-.036-.042-.036v-.039l-.036-.037M237.171 758.396c.039 0 .039 0 .039-.04.037.001.037.001.037-.036l.036-.04v-.111h-.039c.001-.039.001-.039-.038-.039M236.586 756.89v-.076l-.039-.037-.037-.037h-.115l-.037.003M235.678 756.788h.037l4.902-2.642M235.53 757.13h0l.036-.076.037-.113M235.543 758.152c-.038-.114-.038-.114-.117-.226-.001-.15-.001-.15-.04-.264-.003-.15-.003-.15.034-.265M236.458 758.782c-.15.002-.15.002-.303-.034-.113-.074-.113-.074-.189-.111-.116-.112-.116-.112-.23-.187-.076-.112-.076-.112-.192-.26M236.8 758.816c-.039 0-.039 0-.039.038h-.075c0-.037 0-.037-.036-.037M235.603 756.94c0-.035 0-.035.038-.037l-.002-.038c.041-.039.041-.039.041-.076" style="fill:none;stroke:#00ff4a;stroke-width:.666665;stroke-linecap:round;stroke-linejoin:round;stroke-miterlimit:4;stroke-dasharray:none;stroke-opacity:1;visibility:visible"/><path d="m236.777 757.077-.114.001-.149.04M237.162 757.6l-.115-.034-.076-.038-.113.04.075-.115.036-.115M235.543 758.188v-.038M236.647 758.818h-.076l-.114-.036M241.917 756.093l-4.857 2.607-.074.038h-.039l-.149.078" style="fill:none;stroke:#00ff4a;stroke-width:.666665;stroke-linecap:round;stroke-linejoin:round;stroke-miterlimit:4;stroke-dasharray:none;stroke-opacity:1;visibility:visible"/><path d="m238.46 696.054-4.56 2.291-.364.167h-.041v.026h-.025c-.001.039-.001.039-.041.079l-.002.04c-.04-.002-.04-.002-.04.038l-.043.107-.041.08-.04.039-.07.224c-.043.107-.043.107-.044.268.037.107.037.107.034.267a.69.69 0 0 1 .103.228v.026c.117.163.117.163.184.271.117.081.117.081.22.19.081.039.081.039.2.122a.637.637 0 0 0 .252.045l.04.002.12.041.068.001c.039 0 .039 0 .037.027l.04.001h.04c0-.026 0-.026.043-.024l.145-.078h.04l.082-.039.068-.039 4.85-2.42" style="fill:none;fill-opacity:1;fill-rule:nonzero;stroke:#00ff4a;stroke-width:1.33333;visibility:visible"/><path d="M233.306 698.881h0l.039-.075.04-.113M233.29 699.902c-.036-.112-.036-.112-.11-.229.001-.15.001-.15-.034-.263.004-.153.004-.153.044-.265M234.186 700.561c-.15-.003-.15-.003-.303-.043-.112-.077-.112-.077-.185-.116-.112-.116-.112-.116-.224-.192-.074-.116-.074-.116-.184-.269M234.525 700.604c-.038 0-.038 0-.039.036h-.076c.001-.038.001-.038-.036-.04M233.385 698.694c.001-.037.001-.037.038-.037v-.037c.04-.038.04-.038.04-.076M234.554 698.865l-.113-.001-.152.034M234.922 699.401l-.112-.04-.076-.039-.113.036.077-.112.04-.113M234.726 699.85l.152-.073.079-.112M234.953 699.93l-.076-.038-.15-.04M234.791 700.494l.04-.037.037.001v-.038l.002-.038h-.039l-.073-.077-.076-.039.115-.036.113-.036M234.147 700.56h.038M233.267 698.92l.04-.038M234.143 698.518l-.113.074-.116.074.039-.113-.036-.076.001-.076h-.037l-.039-.001M234.289 698.898l.078-.112.003-.113" style="fill:none;stroke:#00ff4a;stroke-width:.666665;stroke-linecap:round;stroke-linejoin:round;stroke-miterlimit:4;stroke-dasharray:none;stroke-opacity:1;visibility:visible"/><path d="m234.738 699.133.002-.076v-.037l.001-.038v-.038c-.038 0-.038 0-.038-.038-.038 0-.038 0-.037-.038l-.075-.002h-.038M234.957 699.665v-.037c.037 0 .037 0 .038-.038v-.037l.002-.039c0-.037-.038-.038-.038-.038l.002-.038-.038-.038M234.909 700.194c.037 0 .037 0 .038-.037.04.001.04.001.04-.037l.037-.036v-.039l.002-.075h-.036c0-.04 0-.04-.04-.04M234.367 698.673l.003-.037v-.039l-.037-.039-.039-.038h-.074l-.039-.002h-.038M339.926 647.143l.044-.226M339.763 647.477l-.037-.001-.002.037-.038-.001-.192.107-.039.037-.04.036-.037-.002-1.43.739M339.926 647.143h0l-.042.112-.04.074M339.15 645.565l-.038-.001-.038-.001-.038-.003-.074-.039-.114-.004-.037-.001M339.972 646.917l.043-.112.005-.15M339.844 647.33c-.038.034-.038.034-.04.073v.037c-.041 0-.041 0-.041.037M339.224 645.605l-.037-.001-.037-.039M340.02 646.655c-.033-.115-.033-.115-.028-.266-.07-.154-.07-.154-.142-.269l-.143-.233c-.11-.08-.11-.118-.22-.197-.112-.042-.112-.042-.263-.085M339.97 646.956h0M339.972 646.917h0M339.378 647.69h0M233.289 699.941l.001-.037M234.374 700.601l-.076-.001-.113-.04M239.72 698.03l-4.93 2.464-.076.036h-.037l-.152.074M233.462 698.545h.038l4.975-2.497" style="fill:none;stroke:#00ff4a;stroke-width:.666665;stroke-linecap:round;stroke-linejoin:round;stroke-miterlimit:4;stroke-dasharray:none;stroke-opacity:1;visibility:visible"/><path d="m237.202 757.865 1.113.275M234.37 698.673l1.6-1.422M236.586 756.89l1.614-1.473M234.957 699.665l1.127.307" style="fill:none;stroke:#00ff4a;stroke-width:1.99999;stroke-linecap:round;stroke-linejoin:round;stroke-miterlimit:4;stroke-dasharray:none;stroke-opacity:1;visibility:visible"/><path d="m435.54 867.262 1.927 11.565M492.24 837.87l-2.799 5.587" style="fill:none;stroke:#00ff4a;stroke-width:.999997;stroke-linecap:round;stroke-linejoin:round;stroke-miterlimit:4;stroke-dasharray:none;stroke-opacity:1;visibility:visible"/><path d="m492.24 837.87-3.557 13.176" style="fill:none;stroke:#00ff4a;stroke-width:1.99999;stroke-linecap:round;stroke-linejoin:round;stroke-miterlimit:4;stroke-dasharray:none;stroke-opacity:1;visibility:visible"/></svg>