<svg xmlns="http://www.w3.org/2000/svg" baseProfile="full" height="1122.52" preserveAspectRatio="xMinYMin meet" style="width:765px;height:943px" width="793.701" xml:space="preserve"><path d="m376.284 666.028-64.4 19.857M305.415 687.881l-13.804 4.469M417.547 742.492l75.972-27.682" style="fill:none;stroke:red;stroke-width:1.99999;stroke-linecap:round;stroke-linejoin:round;stroke-miterlimit:4;stroke-dasharray:none;stroke-opacity:1;visibility:visible"/><path d="m407.334 738.462-32.824-12.948M370.332 723.866l-60.447-23.845M307.446 699.058l-15.833-6.038M493.519 714.812a.52.52 0 0 0 .29-.524M484.096 708.028l-.3.156-.136.184.045.188.227.172.383.136.481.081.532.015.516-.05.432-.109.304-.153.133-.186-.046-.188-.227-.172-.383-.134-.48-.08-.527-.016-.517.048-.437.108M456.323 702.738l-.524.227-.375.26-.21.281-.034.291.143.285.312.268.47.236.608.195.711.143.782.085.82.024.82-.04.774-.099.7-.158.588-.204.45-.247.294-.273.116-.287-.054-.292-.235-.277-.399-.25-.538-.218-.664-.166-.75-.116-.8-.054-.82.008-.797.07-.741.128-.647.18M381.284 675.874l-.526.203-.395.235-.235.254-.07.262.098.257.262.243.412.214.553.176.659.128.732.078.776.021.78-.035.751-.09.688-.142.586-.186.46-.223.313-.247.148-.26-.016-.26-.18-.25-.345-.23-.49-.192-.599-.153-.702-.104-.752-.048-.782.005-.766.063-.721.117-.639.164M396.019 723.717l-.57.244-.423.28-.249.304-.071.312.118.308.296.29.462.253.601.211.727.156.804.093.849.025.855-.044.817-.11.745-.165.632-.225.5-.265.334-.295.157-.31-.03-.31-.209-.301-.384-.274-.534-.232-.67-.182-.765-.123-.828-.059-.852.007-.836.077-.781.14-.695.195M321.323 694.781l-.57.219-.433.253-.28.273-.101.282.069.276.246.26.403.23.549.187.664.141.75.082.806.024.812-.036.788-.1.727-.154.633-.198.504-.24.355-.264.188-.279.016-.281-.164-.268-.328-.248-.478-.209-.609-.162-.71-.111-.782-.055-.808.009-.8.068-.767.125-.68.176M493.831 708.101l-.024 6.187M493.83 708.101a.976.976 0 0 0-.545-.908M407.246 738.105l86.038-30.912" style="fill:none;stroke:red;stroke-width:.999997;stroke-linecap:round;stroke-linejoin:round;stroke-miterlimit:4;stroke-dasharray:none;stroke-opacity:1;visibility:visible"/><path d="m385.546 676.284-3.332 1.048M325.234 695.245l-3.067.965" style="fill:none;stroke:red;stroke-width:.666665;stroke-linecap:round;stroke-linejoin:round;stroke-miterlimit:4;stroke-dasharray:none;stroke-opacity:1;visibility:visible"/><path d="m396.882 725.253 3.781-.892M456.879 704.338l4.396-1.033" style="fill:none;stroke:red;stroke-width:.999997;stroke-linecap:round;stroke-linejoin:round;stroke-miterlimit:4;stroke-dasharray:none;stroke-opacity:1;visibility:visible"/><path d="m381.284 675.874-5-9.846M305.415 687.881l6.469-1.996M311.884 685.885l-6.469 1.996" style="fill:none;stroke:red;stroke-width:1.99999;stroke-linecap:round;stroke-linejoin:round;stroke-miterlimit:4;stroke-dasharray:none;stroke-opacity:1;visibility:visible"/><path d="m370.332 723.866 4.178 1.648M374.51 725.514l-4.178-1.648M307.446 699.058l2.439.963M309.885 700.021l-2.439-.963M493.519 714.812l-9.423-6.784M461.275 703.305l-4.952-.567M382.214 677.332l-.93-1.458M385.546 676.284l-4.262-.41M407.246 738.105l-11.227-14.388M400.663 724.361l-4.644-.644M322.167 696.21l-.844-1.429M325.234 695.245l-3.911-.464" style="fill:none;stroke:red;stroke-width:.999997;stroke-linecap:round;stroke-linejoin:round;stroke-miterlimit:4;stroke-dasharray:none;stroke-opacity:1;visibility:visible"/><path d="m381.284 675.874 4.262.41M381.284 675.874l.93 1.458M321.323 694.781l3.911.464M321.323 694.781l.844 1.429" style="fill:none;stroke:red;stroke-width:.666665;stroke-linecap:round;stroke-linejoin:round;stroke-miterlimit:4;stroke-dasharray:none;stroke-opacity:1;visibility:visible"/><path d="m396.019 723.717 4.644.644M456.323 702.738l4.952.567" style="fill:none;stroke:red;stroke-width:.999997;stroke-linecap:round;stroke-linejoin:round;stroke-miterlimit:4;stroke-dasharray:none;stroke-opacity:1;visibility:visible"/><path d="M272.323 706.289 426.08 769.39M444.799 753.24l-37.467-14.778" style="fill:none;stroke:#00ff4a;stroke-width:1.99999;stroke-linecap:round;stroke-linejoin:round;stroke-miterlimit:4;stroke-dasharray:none;stroke-opacity:1;visibility:visible"/><path d="M426.29 760.118a1.104 1.104 0 0 0-.607 1.007" style="fill:none;stroke:#00ff4a;stroke-width:.999997;stroke-linecap:round;stroke-linejoin:round;stroke-miterlimit:4;stroke-dasharray:none;stroke-opacity:1;visibility:visible"/><path d="M272.213 697.862a.896.896 0 0 0-.568.891" style="fill:none;stroke:#00ff4a;stroke-width:1.99999;stroke-linecap:round;stroke-linejoin:round;stroke-miterlimit:4;stroke-dasharray:none;stroke-opacity:1;visibility:visible"/><path d="m426.29 760.118 18.197-6.868" style="fill:none;stroke:#00ff4a;stroke-width:.999997;stroke-linecap:round;stroke-linejoin:round;stroke-miterlimit:4;stroke-dasharray:none;stroke-opacity:1;visibility:visible"/><path d="m444.566 762.424-18.156 6.96M444.566 762.424a1.08 1.08 0 0 0 .593-.99M445.094 753.79l.065 7.643M445.094 753.789l-.014-.144-.038-.13-.055-.114-.079-.087-.085-.06-.11-.034h-.108l-.118.03" style="fill:none;stroke:#00ff4a;stroke-width:1.99999;stroke-linecap:round;stroke-linejoin:round;stroke-miterlimit:4;stroke-dasharray:none;stroke-opacity:1;visibility:visible"/><path d="m425.792 768.848-.11-7.723M425.792 768.848l.014.145.033.132.06.113.079.086.092.06.105.032h.117l.118-.032" style="fill:none;stroke:#00ff4a;stroke-width:.999997;stroke-linecap:round;stroke-linejoin:round;stroke-miterlimit:4;stroke-dasharray:none;stroke-opacity:1;visibility:visible"/><path d="m272.213 697.862 13.696-4.194M272.011 705.782l-.366-7.029M272.011 705.782a.55.55 0 0 0 .312.508" style="fill:none;stroke:#00ff4a;stroke-width:1.99999;stroke-linecap:round;stroke-linejoin:round;stroke-miterlimit:4;stroke-dasharray:none;stroke-opacity:1;visibility:visible"/><path d="m272.213 697.862 154.077 62.256" style="fill:none;stroke:#00ff4a;stroke-width:.999997;stroke-linecap:round;stroke-linejoin:round;stroke-miterlimit:4;stroke-dasharray:none;stroke-opacity:1;visibility:visible"/><path d="m547.792 714.332-50.11-17.279M486.713 693.02 410.2 666.89M403.891 664.714l-11.27-3.884M492.479 715.188l38.836 13.89M376.476 666.037a.31.31 0 0 0-.193-.007" style="fill:none;stroke:#9500ff;stroke-width:1.99999;stroke-linecap:round;stroke-linejoin:round;stroke-miterlimit:4;stroke-dasharray:none;stroke-opacity:1;visibility:visible"/><path d="M531.688 720.332a1.033 1.033 0 0 0-.544.932" style="fill:none;stroke:#9500ff;stroke-width:.999997;stroke-linecap:round;stroke-linejoin:round;stroke-miterlimit:4;stroke-dasharray:none;stroke-opacity:1;visibility:visible"/><path d="M376.542 665.708a.724.724 0 0 0-.402.365" style="fill:none;stroke:#9500ff;stroke-width:1.99999;stroke-linecap:round;stroke-linejoin:round;stroke-miterlimit:4;stroke-dasharray:none;stroke-opacity:1;visibility:visible"/><path d="m531.688 720.332 15.867-5.99" style="fill:none;stroke:#9500ff;stroke-width:.999997;stroke-linecap:round;stroke-linejoin:round;stroke-miterlimit:4;stroke-dasharray:none;stroke-opacity:1;visibility:visible"/><path d="m547.401 723.001-15.836 6.07M547.401 723.001a1.036 1.036 0 0 0 .536-.92M548.065 714.868l-.128 7.212M548.065 714.868l-.008-.138-.025-.124-.048-.105-.061-.087-.079-.061-.09-.032-.096-.004-.103.025" style="fill:none;stroke:#9500ff;stroke-width:1.99999;stroke-linecap:round;stroke-linejoin:round;stroke-miterlimit:4;stroke-dasharray:none;stroke-opacity:1;visibility:visible"/><path d="m531.041 728.548.102-7.284M531.041 728.548l.009.138.03.124.047.107.062.084.084.061.088.031.102.001.102-.024" style="fill:none;stroke:#9500ff;stroke-width:.999997;stroke-linecap:round;stroke-linejoin:round;stroke-miterlimit:4;stroke-dasharray:none;stroke-opacity:1;visibility:visible"/><path d="m376.542 665.708 15.836-4.88" style="fill:none;stroke:#9500ff;stroke-width:1.99999;stroke-linecap:round;stroke-linejoin:round;stroke-miterlimit:4;stroke-dasharray:none;stroke-opacity:1;visibility:visible"/><path d="M392.62 660.83a.379.379 0 0 0-.242-.002M491.484 699.861l.112.193.297.156.435.096.53.028.554-.044.521-.116.411-.166.267-.2.074-.21M418.032 671.702l-.404-.086-.497-.026-.533.042-.503.105-.41.155-.271.184-.099.193.087.181.258.14.402.087.501.025.536-.04.504-.107.408-.155.273-.184.1-.192-.086-.18-.266-.142M405.279 668.641l.047.17.232.135.381.078.47.01.499-.058.439-.12.312-.16.087-.106M481.763 695.37l-.423-.088-.51-.01-.518.061-.451.132-.31.18-.127.197.076.192.269.151.422.09.509.012.52-.063.448-.132.312-.18.13-.202-.08-.189-.266-.15M376.542 665.708l155.145 54.624" style="fill:none;stroke:#9500ff;stroke-width:.999997;stroke-linecap:round;stroke-linejoin:round;stroke-miterlimit:4;stroke-dasharray:none;stroke-opacity:1;visibility:visible"/><path d="m486.713 693.02 10.969 4.033M497.682 697.053l-10.969-4.033M403.891 664.714l6.309 2.176M410.2 666.89l-6.309-2.176" style="fill:none;stroke:#9500ff;stroke-width:1.99999;stroke-linecap:round;stroke-linejoin:round;stroke-miterlimit:4;stroke-dasharray:none;stroke-opacity:1;visibility:visible"/><path d="m580.387 600.823-83.03 25.62M621.377 669.404l61.43-22.381" style="fill:none;stroke:#ffdf00;stroke-width:1.99999;stroke-linecap:round;stroke-linejoin:round;stroke-miterlimit:4;stroke-dasharray:none;stroke-opacity:1;visibility:visible"/><path d="m577.136 613.76-3.308 1.052M602.134 654.221l-3.618.953M526.948 629.721l-3.899 1.242" style="fill:none;stroke:#ffdf00;stroke-width:.666665;stroke-linecap:round;stroke-linejoin:round;stroke-miterlimit:4;stroke-dasharray:none;stroke-opacity:1;visibility:visible"/><path d="m611.694 666.236-26.704-8.744M579.3 655.628l-82.02-26.856M682.806 647.023a.52.52 0 0 0 .3-.494M674.568 640.675l-.246.129-.085.155.085.157.246.144.374.113.462.067.489.013.456-.04.375-.093.248-.127.08-.156-.086-.157-.242-.145-.375-.111-.461-.07-.488-.012-.46.042-.372.09M612.865 662.741l-.268.14-.11.169.072.174.235.156.376.122.474.075.51.015.484-.046.404-.1.268-.143.11-.165-.07-.174-.235-.156-.383-.123-.468-.073-.508-.015-.484.044-.407.1M647.973 636.24l-.43.19-.288.217-.129.236.035.242.192.242.347.225.484.196.594.164.684.121.738.07.757.021.74-.031.69-.088.603-.13.491-.175.359-.203.212-.23.044-.241-.118-.242-.273-.232-.42-.213-.547-.18-.64-.144-.71-.095-.751-.045-.75.005-.71.06-.649.107-.555.153M572.981 613.601l-.437.172-.305.199-.16.215-.003.22.148.22.301.205.432.18.546.148.634.11.694.065.718.017.711-.028.668-.079.597-.118.495-.16.376-.185.224-.209.08-.221-.073-.22-.231-.212-.368-.193-.492-.164-.593-.13-.664-.085-.707-.044-.716.006-.69.053-.637.1-.549.137M597.528 653.788l-.461.202-.32.235-.164.252.007.263.18.255.334.241.479.213.6.175.697.13.755.076.779.022.771-.036.723-.09.641-.141.525-.188.396-.219.238-.246.074-.259-.098-.26-.258-.25-.414-.225-.539-.195-.65-.153-.727-.102-.77-.05-.778.008-.747.062-.681.117-.592.163M522.388 629.552l-.47.185-.334.21-.191.233-.029.233.133.235.283.217.428.195.547.159.645.117.707.07.742.017.739-.029.699-.084.632-.127.531-.168.407-.2.258-.225.109-.233-.055-.237-.213-.227-.36-.205-.492-.175-.599-.14-.68-.093-.725-.045-.74.008-.72.057-.667.105-.585.147M683.309 640.797l-.203 5.733M683.309 640.797a.827.827 0 0 0-.516-.822M566.232 604.983l40.686 12.11M611.033 665.757l71.76-25.782" style="fill:none;stroke:#ffdf00;stroke-width:.999997;stroke-linecap:round;stroke-linejoin:round;stroke-miterlimit:4;stroke-dasharray:none;stroke-opacity:1;visibility:visible"/><path d="m652.421 636.563-3.619.953" style="fill:none;stroke:#ffdf00;stroke-width:.666665;stroke-linecap:round;stroke-linejoin:round;stroke-miterlimit:4;stroke-dasharray:none;stroke-opacity:1;visibility:visible"/><path d="m572.98 613.6 7.407-12.777" style="fill:none;stroke:#ffdf00;stroke-width:1.99999;stroke-linecap:round;stroke-linejoin:round;stroke-miterlimit:4;stroke-dasharray:none;stroke-opacity:1;visibility:visible"/><path d="m572.98 613.6 4.156.16M572.981 613.601l.847 1.211M597.528 653.788l4.606.433M522.388 629.552l4.56.169M522.388 629.552l.661 1.411" style="fill:none;stroke:#ffdf00;stroke-width:.666665;stroke-linecap:round;stroke-linejoin:round;stroke-miterlimit:4;stroke-dasharray:none;stroke-opacity:1;visibility:visible"/><path d="m579.3 655.628 5.69 1.864M584.99 657.492l-5.69-1.864M682.806 647.023l-8.238-6.348M602.134 654.221l10.731 8.52M652.421 636.563l-4.448-.323M573.828 614.812l-.847-1.211M577.136 613.76l-4.156-.16M611.033 665.757l-13.505-11.969M602.134 654.221l-4.606-.433M523.049 630.963l-.661-1.411M526.948 629.721l-4.56-.169" style="fill:none;stroke:#ffdf00;stroke-width:.999997;stroke-linecap:round;stroke-linejoin:round;stroke-miterlimit:4;stroke-dasharray:none;stroke-opacity:1;visibility:visible"/><path d="m647.973 636.24 4.448.323" style="fill:none;stroke:#ffdf00;stroke-width:.666665;stroke-linecap:round;stroke-linejoin:round;stroke-miterlimit:4;stroke-dasharray:none;stroke-opacity:1;visibility:visible"/><path d="M477.995 639.967 632.84 692.51M648.505 678.288l-36.81-12.052" style="fill:none;stroke:#00d4ff;stroke-width:1.99999;stroke-linecap:round;stroke-linejoin:round;stroke-miterlimit:4;stroke-dasharray:none;stroke-opacity:1;visibility:visible"/><path d="M633.27 683.968a1.015 1.015 0 0 0-.524.905" style="fill:none;stroke:#00d4ff;stroke-width:.999997;stroke-linecap:round;stroke-linejoin:round;stroke-miterlimit:4;stroke-dasharray:none;stroke-opacity:1;visibility:visible"/><path d="M478.107 632.144a.84.84 0 0 0-.5.808" style="fill:none;stroke:#00d4ff;stroke-width:1.99999;stroke-linecap:round;stroke-linejoin:round;stroke-miterlimit:4;stroke-dasharray:none;stroke-opacity:1;visibility:visible"/><path d="m633.27 683.968 15.022-5.67" style="fill:none;stroke:#00d4ff;stroke-width:.999997;stroke-linecap:round;stroke-linejoin:round;stroke-miterlimit:4;stroke-dasharray:none;stroke-opacity:1;visibility:visible"/><path d="m648.06 686.756-14.992 5.744M648.06 686.756a1.02 1.02 0 0 0 .513-.894M648.768 678.818l-.195 7.044M648.768 678.818l-.006-.136-.025-.12-.045-.105-.058-.084-.074-.06-.082-.032-.09-.007-.096.023" style="fill:none;stroke:#00d4ff;stroke-width:1.99999;stroke-linecap:round;stroke-linejoin:round;stroke-miterlimit:4;stroke-dasharray:none;stroke-opacity:1;visibility:visible"/><path d="m632.58 691.985.168-7.112M632.581 691.985l.003.136.028.12.042.105.063.084.075.06.086.031.094.005.096-.025" style="fill:none;stroke:#00d4ff;stroke-width:.999997;stroke-linecap:round;stroke-linejoin:round;stroke-miterlimit:4;stroke-dasharray:none;stroke-opacity:1;visibility:visible"/><path d="m478.107 632.144 15.062-4.644M477.708 639.475l-.101-6.523" style="fill:none;stroke:#00d4ff;stroke-width:1.99999;stroke-linecap:round;stroke-linejoin:round;stroke-miterlimit:4;stroke-dasharray:none;stroke-opacity:1;visibility:visible"/><path d="m506.879 639.33-.39-.09-.469-.043-.483.014-.445.068-.352.111-.219.143-.054.159.117.152.27.13.395.09.466.043.485-.015.447-.067.352-.112.21-.142.055-.161-.117-.15-.268-.13M494.456 636.24l.074.14.241.125.368.08.441.03.447-.03.382-.08.261-.124.101-.141" style="fill:none;stroke:#00d4ff;stroke-width:.999997;stroke-linecap:round;stroke-linejoin:round;stroke-miterlimit:4;stroke-dasharray:none;stroke-opacity:1;visibility:visible"/><path d="M477.708 639.475a.496.496 0 0 0 .287.492" style="fill:none;stroke:#00d4ff;stroke-width:1.99999;stroke-linecap:round;stroke-linejoin:round;stroke-miterlimit:4;stroke-dasharray:none;stroke-opacity:1;visibility:visible"/><path d="m478.107 632.144 48.47 16.19M526.577 648.332l106.695 35.636" style="fill:none;stroke:#00d4ff;stroke-width:.999997;stroke-linecap:round;stroke-linejoin:round;stroke-miterlimit:4;stroke-dasharray:none;stroke-opacity:1;visibility:visible"/><path d="m734.13 645.948-58.77-17.188M669.202 626.961l-58.532-17.117M610.67 609.844l-.205-.061M604.513 608.013l-13.237-3.933M585.168 602.261l-4.655-1.384M681.7 647.425l38.453 11.633" style="fill:none;stroke:#ff008a;stroke-width:1.99999;stroke-linecap:round;stroke-linejoin:round;stroke-miterlimit:4;stroke-dasharray:none;stroke-opacity:1;visibility:visible"/><path d="m720.7 650.964 13.257-5.005M720.7 650.964a.976.976 0 0 0-.476.844" style="fill:none;stroke:#ff008a;stroke-width:.999997;stroke-linecap:round;stroke-linejoin:round;stroke-miterlimit:4;stroke-dasharray:none;stroke-opacity:1;visibility:visible"/><path d="m733.567 653.975-13.234 5.071M733.567 653.975a.983.983 0 0 0 .471-.835M734.364 646.46l-.329 6.68M734.364 646.461l-.004-.126-.02-.116-.034-.102-.052-.077-.063-.061-.07-.033-.077-.006-.087.019" style="fill:none;stroke:#ff008a;stroke-width:1.99999;stroke-linecap:round;stroke-linejoin:round;stroke-miterlimit:4;stroke-dasharray:none;stroke-opacity:1;visibility:visible"/><path d="m618.434 613.359-.39-.08-.454-.039-.453.013-.407.06-.31.1-.175.13-.015.142.142.136.281.119.39.079.455.036.452-.01.411-.061.309-.1.171-.128.02-.144-.145-.136-.282-.117M586.752 606.123l-.027.134.128.133.27.111.377.079.44.035.445-.012.406-.059.305-.095.18-.124M606.098 610.71l.258.108.364.075.425.027.415-.027.348-.073.221-.111M582.715 604.752l-.36-.07-.415-.027-.413.026-.343.071-.227.107-.07.125.098.125.246.107.358.07.421.025.407-.026.35-.069.22-.107.073-.125-.095-.125-.25-.107M719.918 658.544l.306-6.737M719.918 658.544v.128l.022.116.033.101.055.079.062.06.07.032.087.008.086-.023M606.918 617.095l113.783 33.869" style="fill:none;stroke:#ff008a;stroke-width:.999997;stroke-linecap:round;stroke-linejoin:round;stroke-miterlimit:4;stroke-dasharray:none;stroke-opacity:1;visibility:visible"/><path d="m669.202 626.961 6.158 1.799M675.36 628.76l-6.158-1.799M610.465 609.783l-5.952-1.77M585.168 602.261l6.108 1.819M591.276 604.08l-6.108-1.819" style="fill:none;stroke:#ff008a;stroke-width:1.99999;stroke-linecap:round;stroke-linejoin:round;stroke-miterlimit:4;stroke-dasharray:none;stroke-opacity:1;visibility:visible"/><path d="m610.67 609.844 7.764 3.515M610.67 609.844l-3.752 7.251" style="fill:none;stroke:#ff008a;stroke-width:.999997;stroke-linecap:round;stroke-linejoin:round;stroke-miterlimit:4;stroke-dasharray:none;stroke-opacity:1;visibility:visible"/><path d="m291.611 692.35-5.702 1.318" style="fill:none;stroke:#00ff4a;stroke-width:1.99999;stroke-linecap:round;stroke-linejoin:round;stroke-miterlimit:4;stroke-dasharray:none;stroke-opacity:1;visibility:visible"/><path d="m497.682 697.053-5.203 18.135" style="fill:none;stroke:#9500ff;stroke-width:1.99999;stroke-linecap:round;stroke-linejoin:round;stroke-miterlimit:4;stroke-dasharray:none;stroke-opacity:1;visibility:visible"/><path d="m493.169 627.5 4.188-1.057" style="fill:none;stroke:#ffdf00;stroke-width:1.99999;stroke-linecap:round;stroke-linejoin:round;stroke-miterlimit:4;stroke-dasharray:none;stroke-opacity:1;visibility:visible"/><path d="m585.168 602.261-18.936 2.722" style="fill:none;stroke:#ffdf00;stroke-width:.999997;stroke-linecap:round;stroke-linejoin:round;stroke-miterlimit:4;stroke-dasharray:none;stroke-opacity:1;visibility:visible"/><path d="m497.357 626.443-4.188 1.057" style="fill:none;stroke:#00d4ff;stroke-width:1.99999;stroke-linecap:round;stroke-linejoin:round;stroke-miterlimit:4;stroke-dasharray:none;stroke-opacity:1;visibility:visible"/><path d="m675.36 628.76 6.34 18.665" style="fill:none;stroke:#ff008a;stroke-width:1.99999;stroke-linecap:round;stroke-linejoin:round;stroke-miterlimit:4;stroke-dasharray:none;stroke-opacity:1;visibility:visible"/><path d="m618.434 613.359-12.336-2.649" style="fill:none;stroke:#ff008a;stroke-width:.999997;stroke-linecap:round;stroke-linejoin:round;stroke-miterlimit:4;stroke-dasharray:none;stroke-opacity:1;visibility:visible"/></svg>