<svg xmlns="http://www.w3.org/2000/svg" baseProfile="full" height="1122.52" preserveAspectRatio="xMinYMin meet" style="width:765px;height:943px" width="793.701" xml:space="preserve"><path d="m595.265 385.782 7.776-217.344M466.312 215.122l2.582 232.161" style="fill:none;stroke:red;stroke-width:1.99999;stroke-linecap:round;stroke-linejoin:round;stroke-miterlimit:4;stroke-dasharray:none;stroke-opacity:1;visibility:visible"/><path d="m389.232 385.347 78.568-36.396" style="fill:none;stroke:red;stroke-width:.999997;stroke-linecap:round;stroke-linejoin:round;stroke-miterlimit:4;stroke-dasharray:none;stroke-opacity:1;visibility:visible"/><path d="m381.238 405.331 76.476 42.581M355.75 172.074l10.664 218.677" style="fill:none;stroke:red;stroke-width:1.99999;stroke-linecap:round;stroke-linejoin:round;stroke-miterlimit:4;stroke-dasharray:none;stroke-opacity:1;visibility:visible"/><path d="m370.858 177.884.414-.136" style="fill:none;stroke:red;stroke-width:.999997;stroke-linecap:round;stroke-linejoin:round;stroke-miterlimit:4;stroke-dasharray:none;stroke-opacity:1;visibility:visible"/><path d="m366.4 390.423-.557.255M380.906 406.196l1.021-.48M610.125 361.943l-14.273 7.454M474.817 458.522l151.815-81.945" style="fill:none;stroke:red;stroke-width:1.99999;stroke-linecap:round;stroke-linejoin:round;stroke-miterlimit:4;stroke-dasharray:none;stroke-opacity:1;visibility:visible"/><path d="m412.25 395.038.585.25.69.176.754.1.793.007.784-.071.748-.16.664-.234.563-.296.427-.349.276-.381.106-.394-.065-.396-.23-.375-.386-.333-.527-.279-.641-.213-.727-.138-.773-.052-.79.031-.764.117-.711.195-.618.264-.497.323-.356.364-.196.393-.024.399.144.382.307.358.464.312M468.599 420.62l-.269.027-.79.121-.719.212-.625.286-.493.35-.339.391-.174.423.002.428.18.418.352.388.498.334M466.221 423.998a5.707 5.707 0 0 0 2.421.584M381.334 398.538 467.9 357.91M381.334 398.538a1 1 0 0 0-.534.901M371.115 177.324a.58.58 0 0 0 .328.544M388.974 385.84a.36.36 0 0 0 .25-.294M366.415 390.751a.287.287 0 0 0 .167.219M374.951 185.757l-.64.3-.605.455-.536.588-.448.704-.334.773-.213.813-.068.812.068.779.208.697.33.598.45.46.533.302.602.136.637-.044.647-.217.621-.383.57-.52" style="fill:none;stroke:red;stroke-width:.999997;stroke-linecap:round;stroke-linejoin:round;stroke-miterlimit:4;stroke-dasharray:none;stroke-opacity:1;visibility:visible"/><path d="m377.938 187.476-.268-.654-.391-.532-.49-.385-.569-.224-.624-.052-.645.128M382.896 370.74l-.593.343-.563.483-.502.59-.418.672-.312.727-.196.74-.069.727.063.675.192.593.308.479.413.346.497.199.56.041.594-.12.597-.275.583-.414.529-.54.463-.632.368-.699.254-.737.131-.739.005-.701-.125-.635-.25-.537-.361-.419-.451-.277-.531-.127-.582.043-.604.194M388.974 385.84l-16.664 7.72M371.28 393.562a1.252 1.252 0 0 0 1.03 0M408.596 362.167l-.085-.645-.21-.563-.316-.449-.417-.312-.498-.17-.55-.005-.577.152-.587.302-.56.436-.505.554-.432.646-.333.705-.224.73-.104.722.024.684.148.61.268.506.374.384.462.24.526.083.568-.077.586-.23.57-.37.534-.5.472-.603.382-.674.279-.721.167-.73.038-.704M467.759 345.109l-78.563 36.19M389.102 381.246l.161 4.084M389.195 381.298l-.093-.052M389.195 381.298l-7.528-187.228M381.462 188.9l-.292-7.248M389.216 385.355c.016-.008.036-.015.047-.025M595.085 386.011a.297.297 0 0 0 .18-.23M468.892 447.282a.36.36 0 0 0 .219.288M473.836 450.18a1.268 1.268 0 0 0 1.115 0M471.679 217.213l-5.13-1.997M468.765 435.762l-10.963 5.724" style="fill:none;stroke:red;stroke-width:.999997;stroke-linecap:round;stroke-linejoin:round;stroke-miterlimit:4;stroke-dasharray:none;stroke-opacity:1;visibility:visible"/><path d="M381.039 404.948a.432.432 0 0 0 .197.383" style="fill:none;stroke:red;stroke-width:1.99999;stroke-linecap:round;stroke-linejoin:round;stroke-miterlimit:4;stroke-dasharray:none;stroke-opacity:1;visibility:visible"/><path d="M371.115 177.324v.14l-.024.13-.044.11-.055.089-.074.061-.088.038-.092.002-.102-.024" style="fill:none;stroke:red;stroke-width:.999997;stroke-linecap:round;stroke-linejoin:round;stroke-miterlimit:4;stroke-dasharray:none;stroke-opacity:1;visibility:visible"/><path d="M354.888 171.014c0 .386.203.743.534.932M366.115 390.712l-.09-.04-.085-.012-.08.017-.068.035-.052.063-.034.088-.026.104v.12M365.68 391.087l.305 6.303M365.987 397.388a1.159 1.159 0 0 0 .5.892" style="fill:none;stroke:red;stroke-width:1.99999;stroke-linecap:round;stroke-linejoin:round;stroke-miterlimit:4;stroke-dasharray:none;stroke-opacity:1;visibility:visible"/><path d="m381.076 405.792-.276-6.354M380.8 399.438a1.18 1.18 0 0 0-.507-.902M380.295 398.538l-14.18-7.826" style="fill:none;stroke:red;stroke-width:.999997;stroke-linecap:round;stroke-linejoin:round;stroke-miterlimit:4;stroke-dasharray:none;stroke-opacity:1;visibility:visible"/><path d="m366.487 398.28 14.14 7.883M380.628 406.164l.092.04.089.011.079-.012.067-.039.056-.06.039-.088.02-.104.006-.12" style="fill:none;stroke:red;stroke-width:1.99999;stroke-linecap:round;stroke-linejoin:round;stroke-miterlimit:4;stroke-dasharray:none;stroke-opacity:1;visibility:visible"/><path d="m472.865 216.882-.013.15-.03.138-.054.114-.075.09-.088.066-.1.03-.114.006-.116-.031" style="fill:none;stroke:red;stroke-width:.999997;stroke-linecap:round;stroke-linejoin:round;stroke-miterlimit:4;stroke-dasharray:none;stroke-opacity:1;visibility:visible"/><path d="M457.727 448.503a1.17 1.17 0 0 0 .541.956" style="fill:none;stroke:red;stroke-width:1.99999;stroke-linecap:round;stroke-linejoin:round;stroke-miterlimit:4;stroke-dasharray:none;stroke-opacity:1;visibility:visible"/><path d="m474.997 458.128-.06-6.674M474.937 451.455a1.19 1.19 0 0 0-.554-.97M474.383 450.486l-16.235-8.97M458.148 441.516l-.104-.041-.098-.019-.092.011-.08.039-.068.062-.047.088-.03.108-.006.124M457.623 441.888l.104 6.615" style="fill:none;stroke:red;stroke-width:.999997;stroke-linecap:round;stroke-linejoin:round;stroke-miterlimit:4;stroke-dasharray:none;stroke-opacity:1;visibility:visible"/><path d="M610.481 361.951a.401.401 0 0 0-.357-.008M626.633 376.577a.416.416 0 0 0 .203-.375M626.612 369.17l-16.13-7.22M626.836 376.202l.292-6.172M627.128 370.029a.941.941 0 0 0-.516-.86M458.268 449.459l16.188 9.03M474.456 458.49l.107.046.104.016.092-.008.081-.033.07-.065.05-.09.029-.106.008-.122" style="fill:none;stroke:red;stroke-width:1.99999;stroke-linecap:round;stroke-linejoin:round;stroke-miterlimit:4;stroke-dasharray:none;stroke-opacity:1;visibility:visible"/><path d="m474.383 450.486 152.229-81.316M366.407 390.577l-.292.135M381.334 398.538l76.844 42.39M362.096 174.546l10.214 219.016M472.892 217.332l2.058 232.848" style="fill:none;stroke:red;stroke-width:.999997;stroke-linecap:round;stroke-linejoin:round;stroke-miterlimit:4;stroke-dasharray:none;stroke-opacity:1;visibility:visible"/><path d="m416.142 394.296-2.17-1.236M405.946 364.865l-.06-2.495M383.012 375.093l-.06-2.494" style="fill:none;stroke:red;stroke-width:.666665;stroke-linecap:round;stroke-linejoin:round;stroke-miterlimit:4;stroke-dasharray:none;stroke-opacity:1;visibility:visible"/><path d="m413.972 393.06-1.722 1.978M389.216 385.355l-6.32-14.615M366.582 390.97l4.698 2.592M405.946 364.865l2.65-2.697M381.462 188.9l.205 5.17M381.667 194.07l-.205-5.17M474.383 450.486l-5.618-14.724" style="fill:none;stroke:red;stroke-width:.999997;stroke-linecap:round;stroke-linejoin:round;stroke-miterlimit:4;stroke-dasharray:none;stroke-opacity:1;visibility:visible"/><path d="m412.25 395.038 1.722-1.978M408.596 362.168l-2.65 2.697M389.102 381.246l-6.09-6.153M389.195 381.298l-6.243-8.699" style="fill:none;stroke:red;stroke-width:.666665;stroke-linecap:round;stroke-linejoin:round;stroke-miterlimit:4;stroke-dasharray:none;stroke-opacity:1;visibility:visible"/><path d="M519.823 111.319a.364.364 0 0 0-.214 0M584.083 154.361l-82.266-26.32M371.443 177.869l82.727 32.188M603.041 168.438l33.915-12.74M519.61 111.319l-164.829 51.723M512.799 131.553l22.528-7.355" style="fill:none;stroke:#00ff4a;stroke-width:1.99999;stroke-linecap:round;stroke-linejoin:round;stroke-miterlimit:4;stroke-dasharray:none;stroke-opacity:1;visibility:visible"/><path d="M584.083 154.362 454.23 201.13M472.57 217.456l130.473-49.016" style="fill:none;stroke:#00ff4a;stroke-width:.999997;stroke-linecap:round;stroke-linejoin:round;stroke-miterlimit:4;stroke-dasharray:none;stroke-opacity:1;visibility:visible"/><path d="m619.237 141.702-35.153 12.66" style="fill:none;stroke:#00ff4a;stroke-width:1.99999;stroke-linecap:round;stroke-linejoin:round;stroke-miterlimit:4;stroke-dasharray:none;stroke-opacity:1;visibility:visible"/><path d="m370.836 170.837.28 6.487M371.415 169.896a.95.95 0 0 0-.579.942M454.063 209.572l-.11-6.818M362.095 174.546l-6.673-2.598M370.793 169.837l.321 7.487M370.792 169.837a1.092 1.092 0 0 0-.549-.945" style="fill:none;stroke:#00ff4a;stroke-width:.999997;stroke-linecap:round;stroke-linejoin:round;stroke-miterlimit:4;stroke-dasharray:none;stroke-opacity:1;visibility:visible"/><path d="M354.527 163.605v-.143l.024-.128.039-.112.057-.089.07-.061.083-.038.091-.002.097.024M354.888 171.014l-.36-7.409M370.636 177.872l-8.54-3.326" style="fill:none;stroke:#00ff4a;stroke-width:1.99999;stroke-linecap:round;stroke-linejoin:round;stroke-miterlimit:4;stroke-dasharray:none;stroke-opacity:1;visibility:visible"/><path d="m354.987 163.056 15.255 5.836" style="fill:none;stroke:#00ff4a;stroke-width:.999997;stroke-linecap:round;stroke-linejoin:round;stroke-miterlimit:4;stroke-dasharray:none;stroke-opacity:1;visibility:visible"/><path d="M535.328 124.2a.52.52 0 0 0 .3-.524M519.823 111.319l15.382 4.69M535.715 116.85l-.087 6.827M535.716 116.85a.87.87 0 0 0-.51-.84M637.62 147.95a.907.907 0 0 0-.555-.909" style="fill:none;stroke:#00ff4a;stroke-width:1.99999;stroke-linecap:round;stroke-linejoin:round;stroke-miterlimit:4;stroke-dasharray:none;stroke-opacity:1;visibility:visible"/><path d="m472.792 208.932.073 7.95M472.792 208.932a1.133 1.133 0 0 0-.601-1.028" style="fill:none;stroke:#00ff4a;stroke-width:.999997;stroke-linecap:round;stroke-linejoin:round;stroke-miterlimit:4;stroke-dasharray:none;stroke-opacity:1;visibility:visible"/><path d="m466.307 215.122-11.657-4.538" style="fill:none;stroke:#00ff4a;stroke-width:1.99999;stroke-linecap:round;stroke-linejoin:round;stroke-miterlimit:4;stroke-dasharray:none;stroke-opacity:1;visibility:visible"/><path d="m472.273 217.444-5.966-2.324" style="fill:none;stroke:#00ff4a;stroke-width:.999997;stroke-linecap:round;stroke-linejoin:round;stroke-miterlimit:4;stroke-dasharray:none;stroke-opacity:1;visibility:visible"/><path d="M454.063 209.572a1.123 1.123 0 0 0 .587 1.01" style="fill:none;stroke:#00ff4a;stroke-width:1.99999;stroke-linecap:round;stroke-linejoin:round;stroke-miterlimit:4;stroke-dasharray:none;stroke-opacity:1;visibility:visible"/><path d="m454.508 201.136 17.683 6.764M453.938 201.702l.012-.148.026-.136.052-.114.074-.091.088-.065.1-.036.106-.003.112.028" style="fill:none;stroke:#00ff4a;stroke-width:.999997;stroke-linecap:round;stroke-linejoin:round;stroke-miterlimit:4;stroke-dasharray:none;stroke-opacity:1;visibility:visible"/><path d="M619.516 141.696a.417.417 0 0 0-.279.004M636.956 155.696a.564.564 0 0 0 .324-.53M619.516 141.696l17.55 5.346M637.62 147.95l-.34 7.214" style="fill:none;stroke:#00ff4a;stroke-width:1.99999;stroke-linecap:round;stroke-linejoin:round;stroke-miterlimit:4;stroke-dasharray:none;stroke-opacity:1;visibility:visible"/><path d="m637.065 147.042-164.874 60.86M370.792 169.837l164.924-52.986M371.415 169.896l82.539 31.617M472.792 208.932l-18.839-6.178M370.242 168.892l-14.82 3.056" style="fill:none;stroke:#00ff4a;stroke-width:.999997;stroke-linecap:round;stroke-linejoin:round;stroke-miterlimit:4;stroke-dasharray:none;stroke-opacity:1;visibility:visible"/><path d="m370.793 169.837-15.905 1.177" style="fill:none;stroke:#00ff4a;stroke-width:1.99999;stroke-linecap:round;stroke-linejoin:round;stroke-miterlimit:4;stroke-dasharray:none;stroke-opacity:1;visibility:visible"/><path d="m371.116 177.324 10.054 4.328" style="fill:none;stroke:red;stroke-width:.999997;stroke-linecap:round;stroke-linejoin:round;stroke-miterlimit:4;stroke-dasharray:none;stroke-opacity:1;visibility:visible"/></svg>