<svg xmlns="http://www.w3.org/2000/svg" baseProfile="full" height="1122.52" preserveAspectRatio="xMinYMin meet" style="width:765px;height:943px" width="793.701" xml:space="preserve"><path d="m352.26 521.16 195.53-67.976M368.242 426.213l-137.864 42.463M425.94 408.442l-40.344 12.427M230.58 468.684l-.097-.024-.091.008-.085.04-.071.061-.055.087-.038.11-.024.125-.008.132" style="fill:none;stroke:red;stroke-width:1.99999;stroke-linecap:round;stroke-linejoin:round;stroke-miterlimit:4;stroke-dasharray:none;stroke-opacity:1;visibility:visible" visibility="hidden"/><path d="m230.58 468.684 121.305 44.367M352.447 514.014a1.063 1.063 0 0 0-.563-.962M352.448 514.012l.101 6.585M352.007 521.153l.105.024.106-.008.097-.032.079-.063.07-.093.047-.11.03-.133.009-.14" style="fill:none;stroke:red;stroke-width:.999997;stroke-linecap:round;stroke-linejoin:round;stroke-miterlimit:4;stroke-dasharray:none;stroke-opacity:1;visibility:visible" visibility="hidden"/><path d="m352.007 521.153-121.105-44.75M230.377 475.498a1.053 1.053 0 0 0 .523.906M230.378 475.496l-.265-6.273M548.283 446.544a.89.89 0 0 0-.539-.874M548.284 446.543l-.18 6.11M426.143 408.442l121.601 37.227M547.79 453.186a.542.542 0 0 0 .314-.531" style="fill:none;stroke:red;stroke-width:1.99999;stroke-linecap:round;stroke-linejoin:round;stroke-miterlimit:4;stroke-dasharray:none;stroke-opacity:1;visibility:visible" visibility="hidden"/><path d="M426.142 408.443a.293.293 0 0 0-.203 0M351.885 513.051l195.86-67.383M248.102 483.215c-.013.153-.028.307-.045.461-.017.15-.037.304-.055.454-.02.15-.04.298-.064.446l-.043.254M253.86 485.385l.01-.445M247.888 484.94l.01.445M247.9 485.388v.034a.903.903 0 0 0 .114.368.679.679 0 0 0 .055.085 1.11 1.11 0 0 0 .066.09l.078.081a1.313 1.313 0 0 0 .09.082c.032.028.067.055.1.08.035.027.074.05.111.076l.121.07c.043.025.086.049.13.069a4.376 4.376 0 0 0 .284.119 3.463 3.463 0 0 0 .313.1l.165.047.171.035c.057.014.116.024.173.034l.18.026a8.824 8.824 0 0 0 .554.05c.062.002.125.005.188.005h.187a4.418 4.418 0 0 0 .374-.019c.063-.002.124-.008.184-.014.061-.006.121-.014.181-.022l.181-.03c.058-.007.115-.019.173-.031l.17-.037.164-.046a1.4 1.4 0 0 0 .159-.05c.052-.013.103-.031.152-.05.05-.018.099-.04.145-.058l.138-.063.129-.067c.041-.024.081-.046.121-.072a2.07 2.07 0 0 0 .112-.077c.035-.025.068-.055.102-.08.032-.03.062-.057.09-.087.03-.028.056-.06.082-.088l.068-.09.055-.095.045-.096a1.01 1.01 0 0 0 .049-.19c.004-.03.005-.059.007-.087M253.86 485.39v-.005M531.92 460.194l.01-.445M526.361 460.938a2.04 2.04 0 0 0 .1.081l.111.075.121.07c.043.024.087.047.131.068l.137.063.147.057.153.055.159.047.165.044.171.036c.057.013.116.024.175.034l.179.026a3.9 3.9 0 0 0 .18.021 4.256 4.256 0 0 0 .56.033h.189c.061 0 .125-.002.186-.005.063-.003.126-.008.187-.012.063-.003.124-.008.185-.016.063-.005.123-.013.183-.021l.177-.028c.059-.011.116-.022.174-.036.058-.009.114-.022.169-.035l.165-.044.159-.05c.052-.014.103-.033.153-.051l.144-.058.139-.062c.044-.024.087-.044.128-.068.041-.024.083-.047.121-.074.039-.022.076-.048.112-.074l.102-.082a1.413 1.413 0 0 0 .172-.174c.025-.031.045-.06.069-.091l.056-.093.043-.098a.733.733 0 0 0 .049-.189.947.947 0 0 0 .007-.087M531.92 460.199v-.005M347.744 519.899l-.022.205a12.743 12.743 0 0 1-.055.454 16.453 16.453 0 0 1-.107.7M353.526 521.813l.01-.445M347.553 521.367l.01.445M347.564 521.816l.002.034a.903.903 0 0 0 .112.366c.017.03.034.059.056.087a1.11 1.11 0 0 0 .066.09l.078.081a1.313 1.313 0 0 0 .09.082c.032.028.066.055.1.08.035.027.074.05.112.076l.12.07c.043.025.086.048.13.068a4.376 4.376 0 0 0 .284.12 3.463 3.463 0 0 0 .313.102l.165.044.171.036c.057.013.117.024.173.034l.18.026a8.824 8.824 0 0 0 .554.05c.062.001.125.004.188.004h.188a4.418 4.418 0 0 0 .373-.018 3.959 3.959 0 0 0 .365-.036l.18-.03c.06-.008.116-.019.174-.032.058-.01.114-.025.17-.035l.164-.048c.055-.013.108-.029.16-.049.05-.013.101-.032.15-.05.051-.019.1-.04.146-.059l.138-.062.13-.067c.039-.024.079-.046.119-.073a2.07 2.07 0 0 0 .113-.077c.035-.024.068-.054.102-.08.032-.03.062-.057.09-.086.03-.028.056-.06.082-.088l.068-.09.056-.096.044-.095a1.01 1.01 0 0 0 .05-.19l.005-.087M353.526 521.818v-.005" style="fill:none;stroke:red;stroke-width:.999997;stroke-linecap:round;stroke-linejoin:round;stroke-miterlimit:4;stroke-dasharray:none;stroke-opacity:1;visibility:visible" visibility="hidden"/><path d="m385.596 420.869-17.354 5.344M368.242 426.213l17.354-5.344" style="fill:none;stroke:red;stroke-width:1.99999;stroke-linecap:round;stroke-linejoin:round;stroke-miterlimit:4;stroke-dasharray:none;stroke-opacity:1;visibility:visible" visibility="hidden"/><path d="m253.86 485.385-5.758-2.17M353.526 521.813l-5.782-1.914" style="fill:none;stroke:red;stroke-width:.999997;stroke-linecap:round;stroke-linejoin:round;stroke-miterlimit:4;stroke-dasharray:none;stroke-opacity:1;visibility:visible" visibility="hidden"/><path d="m360.52 794.033 161.812-70.717M421.633 537.244l-169.484 55.235M519.95 571.119l-170.216 61.156" style="fill:none;stroke:#00ff4a;stroke-width:1.99999;stroke-linecap:round;stroke-linejoin:round;stroke-miterlimit:4;stroke-dasharray:none;stroke-opacity:1;visibility:visible"/><path d="m356.352 656.963 168.969-62.86" style="fill:none;stroke:#00ff4a;stroke-width:.999997;stroke-linecap:round;stroke-linejoin:round;stroke-miterlimit:4;stroke-dasharray:none;stroke-opacity:1;visibility:visible"/><path d="m514.86 565.892-74.065-25.383M339.336 628.353l-73.492-29.984M268.482 754.252l70.305 34.71" style="fill:none;stroke:#00ff4a;stroke-width:1.99999;stroke-linecap:round;stroke-linejoin:round;stroke-miterlimit:4;stroke-dasharray:none;stroke-opacity:1;visibility:visible"/><path d="m360.526 794.228-4.847-159.414" style="fill:none;stroke:#00ff4a;stroke-width:.999997;stroke-linecap:round;stroke-linejoin:round;stroke-miterlimit:4;stroke-dasharray:none;stroke-opacity:1;visibility:visible"/><path d="m361.857 837.986-1.33-43.757M338.786 788.963l1.588 44.093" style="fill:none;stroke:#00ff4a;stroke-width:1.99999;stroke-linecap:round;stroke-linejoin:round;stroke-miterlimit:4;stroke-dasharray:none;stroke-opacity:1;visibility:visible"/><path d="m333.086 630.697 5.7 158.265" style="fill:none;stroke:#00ff4a;stroke-width:.999997;stroke-linecap:round;stroke-linejoin:round;stroke-miterlimit:4;stroke-dasharray:none;stroke-opacity:1;visibility:visible"/><path d="m529.349 761.314 2.565-190.188" style="fill:none;stroke:#00ff4a;stroke-width:1.99999;stroke-linecap:round;stroke-linejoin:round;stroke-miterlimit:4;stroke-dasharray:none;stroke-opacity:1;visibility:visible"/><path d="m510.31 567.61-.06 6.992" style="fill:none;stroke:#00ff4a;stroke-width:.999997;stroke-linecap:round;stroke-linejoin:round;stroke-miterlimit:4;stroke-dasharray:none;stroke-opacity:1;visibility:visible"/><path d="m508.984 729.15-.227 27.915M276.07 793.916l-1.932-36.875M265.82 598.36l-.016-.219M244.734 594.431l11.235 195.016M441.43 540.728l-.003-.593M421.187 536.94l.008.453" style="fill:none;stroke:#00ff4a;stroke-width:1.99999;stroke-linecap:round;stroke-linejoin:round;stroke-miterlimit:4;stroke-dasharray:none;stroke-opacity:1;visibility:visible"/><path d="M524.105 716.877a.933.933 0 0 0-.489-.828M523.336 715.94l.281.11M426.335 539.441a.864.864 0 0 0-.476-.797M523.819 722.668a.432.432 0 0 0 .218-.422M426.336 539.44l.805 65.024M415.516 565.673l.528-.25.5-.39.448-.508.384-.61.288-.663.188-.704.076-.711-.04-.68-.153-.61-.258-.522-.352-.415-.429-.273-.487-.125-.521.024-.533.18-.522.328-.477.445-.421.563-.336.64-.243.696-.132.71-.016.695.093.656.212.57.304.47.399.344.461.195.508.054.531-.109" style="fill:none;stroke:#00ff4a;stroke-width:.999997;stroke-linecap:round;stroke-linejoin:round;stroke-miterlimit:4;stroke-dasharray:none;stroke-opacity:1;visibility:visible"/><path d="M421.835 537.253a.35.35 0 0 0-.203-.008" style="fill:none;stroke:#00ff4a;stroke-width:1.99999;stroke-linecap:round;stroke-linejoin:round;stroke-miterlimit:4;stroke-dasharray:none;stroke-opacity:1;visibility:visible"/><path d="m373.25 781.26-3.492-129.289" style="fill:none;stroke:#00ff4a;stroke-width:.666665;stroke-linecap:round;stroke-linejoin:round;stroke-miterlimit:4;stroke-dasharray:none;stroke-opacity:1;visibility:visible"/><path d="m360.305 786.877 12.945-5.617" style="fill:none;stroke:#00ff4a;stroke-width:.999997;stroke-linecap:round;stroke-linejoin:round;stroke-miterlimit:4;stroke-dasharray:none;stroke-opacity:1;visibility:visible"/><path d="m375.437 780.306-3.41-129.18" style="fill:none;stroke:#00ff4a;stroke-width:.666665;stroke-linecap:round;stroke-linejoin:round;stroke-miterlimit:4;stroke-dasharray:none;stroke-opacity:1;visibility:visible"/><path d="M375.436 780.308a2.643 2.643 0 0 0-2.188.952" style="fill:none;stroke:#00ff4a;stroke-width:.999997;stroke-linecap:round;stroke-linejoin:round;stroke-miterlimit:4;stroke-dasharray:none;stroke-opacity:1;visibility:visible"/><path d="m387.766 774.963-2.984-128.578" style="fill:none;stroke:#00ff4a;stroke-width:.666665;stroke-linecap:round;stroke-linejoin:round;stroke-miterlimit:4;stroke-dasharray:none;stroke-opacity:1;visibility:visible"/><path d="m375.437 780.306 12.328-5.344" style="fill:none;stroke:#00ff4a;stroke-width:.999997;stroke-linecap:round;stroke-linejoin:round;stroke-miterlimit:4;stroke-dasharray:none;stroke-opacity:1;visibility:visible"/><path d="m389.922 774.025-2.907-128.469" style="fill:none;stroke:#00ff4a;stroke-width:.666665;stroke-linecap:round;stroke-linejoin:round;stroke-miterlimit:4;stroke-dasharray:none;stroke-opacity:1;visibility:visible"/><path d="M389.92 774.026a2.57 2.57 0 0 0-2.156.938" style="fill:none;stroke:#00ff4a;stroke-width:.999997;stroke-linecap:round;stroke-linejoin:round;stroke-miterlimit:4;stroke-dasharray:none;stroke-opacity:1;visibility:visible"/><path d="m402.078 768.76-2.484-127.882" style="fill:none;stroke:#00ff4a;stroke-width:.666665;stroke-linecap:round;stroke-linejoin:round;stroke-miterlimit:4;stroke-dasharray:none;stroke-opacity:1;visibility:visible"/><path d="m389.922 774.025 12.156-5.265" style="fill:none;stroke:#00ff4a;stroke-width:.999997;stroke-linecap:round;stroke-linejoin:round;stroke-miterlimit:4;stroke-dasharray:none;stroke-opacity:1;visibility:visible"/><path d="m404.21 767.83-2.415-127.773" style="fill:none;stroke:#00ff4a;stroke-width:.666665;stroke-linecap:round;stroke-linejoin:round;stroke-miterlimit:4;stroke-dasharray:none;stroke-opacity:1;visibility:visible"/><path d="M404.21 767.83a2.523 2.523 0 0 0-2.134.93" style="fill:none;stroke:#00ff4a;stroke-width:.999997;stroke-linecap:round;stroke-linejoin:round;stroke-miterlimit:4;stroke-dasharray:none;stroke-opacity:1;visibility:visible"/><path d="m416.203 762.634-2-127.194" style="fill:none;stroke:#00ff4a;stroke-width:.666665;stroke-linecap:round;stroke-linejoin:round;stroke-miterlimit:4;stroke-dasharray:none;stroke-opacity:1;visibility:visible"/><path d="m404.21 767.83 11.992-5.195" style="fill:none;stroke:#00ff4a;stroke-width:.999997;stroke-linecap:round;stroke-linejoin:round;stroke-miterlimit:4;stroke-dasharray:none;stroke-opacity:1;visibility:visible"/><path d="m418.305 761.72-1.93-127.085" style="fill:none;stroke:#00ff4a;stroke-width:.666665;stroke-linecap:round;stroke-linejoin:round;stroke-miterlimit:4;stroke-dasharray:none;stroke-opacity:1;visibility:visible"/><path d="M418.303 761.72a2.455 2.455 0 0 0-2.101.917" style="fill:none;stroke:#00ff4a;stroke-width:.999997;stroke-linecap:round;stroke-linejoin:round;stroke-miterlimit:4;stroke-dasharray:none;stroke-opacity:1;visibility:visible"/><path d="m430.138 756.587-1.536-126.508" style="fill:none;stroke:#00ff4a;stroke-width:.666665;stroke-linecap:round;stroke-linejoin:round;stroke-miterlimit:4;stroke-dasharray:none;stroke-opacity:1;visibility:visible"/><path d="m418.305 761.72 11.833-5.133" style="fill:none;stroke:#00ff4a;stroke-width:.999997;stroke-linecap:round;stroke-linejoin:round;stroke-miterlimit:4;stroke-dasharray:none;stroke-opacity:1;visibility:visible"/><path d="m432.21 755.69-1.461-126.406" style="fill:none;stroke:#00ff4a;stroke-width:.666665;stroke-linecap:round;stroke-linejoin:round;stroke-miterlimit:4;stroke-dasharray:none;stroke-opacity:1;visibility:visible"/><path d="M432.21 755.69a2.412 2.412 0 0 0-2.074.9" style="fill:none;stroke:#00ff4a;stroke-width:.999997;stroke-linecap:round;stroke-linejoin:round;stroke-miterlimit:4;stroke-dasharray:none;stroke-opacity:1;visibility:visible"/><path d="m443.888 750.627-1.079-125.828" style="fill:none;stroke:#00ff4a;stroke-width:.666665;stroke-linecap:round;stroke-linejoin:round;stroke-miterlimit:4;stroke-dasharray:none;stroke-opacity:1;visibility:visible"/><path d="m432.21 755.69 11.677-5.063" style="fill:none;stroke:#00ff4a;stroke-width:.999997;stroke-linecap:round;stroke-linejoin:round;stroke-miterlimit:4;stroke-dasharray:none;stroke-opacity:1;visibility:visible"/><path d="m445.93 749.744-1.008-125.734" style="fill:none;stroke:#00ff4a;stroke-width:.666665;stroke-linecap:round;stroke-linejoin:round;stroke-miterlimit:4;stroke-dasharray:none;stroke-opacity:1;visibility:visible"/><path d="M445.928 749.745a2.34 2.34 0 0 0-2.041.883" style="fill:none;stroke:#00ff4a;stroke-width:.999997;stroke-linecap:round;stroke-linejoin:round;stroke-miterlimit:4;stroke-dasharray:none;stroke-opacity:1;visibility:visible"/><path d="m457.453 744.744-.633-125.156" style="fill:none;stroke:#00ff4a;stroke-width:.666665;stroke-linecap:round;stroke-linejoin:round;stroke-miterlimit:4;stroke-dasharray:none;stroke-opacity:1;visibility:visible"/><path d="m445.93 749.744 11.524-5" style="fill:none;stroke:#00ff4a;stroke-width:.999997;stroke-linecap:round;stroke-linejoin:round;stroke-miterlimit:4;stroke-dasharray:none;stroke-opacity:1;visibility:visible"/><path d="m459.469 743.869-.563-125.054" style="fill:none;stroke:#00ff4a;stroke-width:.666665;stroke-linecap:round;stroke-linejoin:round;stroke-miterlimit:4;stroke-dasharray:none;stroke-opacity:1;visibility:visible"/><path d="M459.468 743.87a2.316 2.316 0 0 0-2.016.875" style="fill:none;stroke:#00ff4a;stroke-width:.999997;stroke-linecap:round;stroke-linejoin:round;stroke-miterlimit:4;stroke-dasharray:none;stroke-opacity:1;visibility:visible"/><path d="m470.841 738.94-.2-124.492" style="fill:none;stroke:#00ff4a;stroke-width:.666665;stroke-linecap:round;stroke-linejoin:round;stroke-miterlimit:4;stroke-dasharray:none;stroke-opacity:1;visibility:visible"/><path d="m459.469 743.869 11.372-4.93" style="fill:none;stroke:#00ff4a;stroke-width:.999997;stroke-linecap:round;stroke-linejoin:round;stroke-miterlimit:4;stroke-dasharray:none;stroke-opacity:1;visibility:visible"/><path d="m472.833 738.072-.139-124.39" style="fill:none;stroke:#00ff4a;stroke-width:.666665;stroke-linecap:round;stroke-linejoin:round;stroke-miterlimit:4;stroke-dasharray:none;stroke-opacity:1;visibility:visible"/><path d="M472.832 738.073a2.276 2.276 0 0 0-1.992.867" style="fill:none;stroke:#00ff4a;stroke-width:.999997;stroke-linecap:round;stroke-linejoin:round;stroke-miterlimit:4;stroke-dasharray:none;stroke-opacity:1;visibility:visible"/><path d="m484.052 733.213.221-123.836" style="fill:none;stroke:#00ff4a;stroke-width:.666665;stroke-linecap:round;stroke-linejoin:round;stroke-miterlimit:4;stroke-dasharray:none;stroke-opacity:1;visibility:visible"/><path d="m472.833 738.072 11.219-4.86" style="fill:none;stroke:#00ff4a;stroke-width:.999997;stroke-linecap:round;stroke-linejoin:round;stroke-miterlimit:4;stroke-dasharray:none;stroke-opacity:1;visibility:visible"/><path d="m486.016 732.353.29-123.734" style="fill:none;stroke:#00ff4a;stroke-width:.666665;stroke-linecap:round;stroke-linejoin:round;stroke-miterlimit:4;stroke-dasharray:none;stroke-opacity:1;visibility:visible"/><path d="M486.015 732.354a2.224 2.224 0 0 0-1.965.86" style="fill:none;stroke:#00ff4a;stroke-width:.999997;stroke-linecap:round;stroke-linejoin:round;stroke-miterlimit:4;stroke-dasharray:none;stroke-opacity:1;visibility:visible"/><path d="m497.094 727.556.63-123.188" style="fill:none;stroke:#00ff4a;stroke-width:.666665;stroke-linecap:round;stroke-linejoin:round;stroke-miterlimit:4;stroke-dasharray:none;stroke-opacity:1;visibility:visible"/><path d="m486.016 732.353 11.079-4.797" style="fill:none;stroke:#00ff4a;stroke-width:.999997;stroke-linecap:round;stroke-linejoin:round;stroke-miterlimit:4;stroke-dasharray:none;stroke-opacity:1;visibility:visible"/><path d="m499.031 726.713.695-123.085" style="fill:none;stroke:#00ff4a;stroke-width:.666665;stroke-linecap:round;stroke-linejoin:round;stroke-miterlimit:4;stroke-dasharray:none;stroke-opacity:1;visibility:visible"/><path d="M499.03 726.713a2.173 2.173 0 0 0-1.939.844" style="fill:none;stroke:#00ff4a;stroke-width:.999997;stroke-linecap:round;stroke-linejoin:round;stroke-miterlimit:4;stroke-dasharray:none;stroke-opacity:1;visibility:visible"/><path d="m509.966 721.97 1.03-122.538" style="fill:none;stroke:#00ff4a;stroke-width:.666665;stroke-linecap:round;stroke-linejoin:round;stroke-miterlimit:4;stroke-dasharray:none;stroke-opacity:1;visibility:visible"/><path d="m499.031 726.713 10.935-4.743" style="fill:none;stroke:#00ff4a;stroke-width:.999997;stroke-linecap:round;stroke-linejoin:round;stroke-miterlimit:4;stroke-dasharray:none;stroke-opacity:1;visibility:visible"/><path d="m511.883 721.142 1.085-122.445" style="fill:none;stroke:#00ff4a;stroke-width:.666665;stroke-linecap:round;stroke-linejoin:round;stroke-miterlimit:4;stroke-dasharray:none;stroke-opacity:1;visibility:visible"/><path d="M511.881 721.144a2.137 2.137 0 0 0-1.917.828M511.883 721.142l11.263-4.883M525.827 573.73a.896.896 0 0 0-.508-.846M523.145 716.261a.264.264 0 0 0 .191-.203M349.865 632.33l5.11 2.085M436.335 541.917a.841.841 0 0 0-.485.806M525.319 594.104a.476.476 0 0 0 .265-.484M520.195 571.121a.339.339 0 0 0-.246 0M435.852 542.72l.585 58.407M446.74 569.502l-.505-.101-.484.046-.438.195-.368.344-.281.47-.179.57-.078.648.03.703.142.71.246.688.331.648.412.555.464.461.5.328.508.18.5.031.46-.124.407-.267.328-.405.234-.524.132-.617.024-.679-.088-.704-.193-.71-.292-.673-.375-.609-.442-.516-.484-.39-.511-.258M440.57 540.517l-4.235 1.399" style="fill:none;stroke:#00ff4a;stroke-width:.999997;stroke-linecap:round;stroke-linejoin:round;stroke-miterlimit:4;stroke-dasharray:none;stroke-opacity:1;visibility:visible"/><path d="M440.794 540.51a.31.31 0 0 0-.224.01" style="fill:none;stroke:#00ff4a;stroke-width:1.99999;stroke-linecap:round;stroke-linejoin:round;stroke-miterlimit:4;stroke-dasharray:none;stroke-opacity:1;visibility:visible"/><path d="M260.543 600.01a.884.884 0 0 0-.538.884" style="fill:none;stroke:#00ff4a;stroke-width:.999997;stroke-linecap:round;stroke-linejoin:round;stroke-miterlimit:4;stroke-dasharray:none;stroke-opacity:1;visibility:visible"/><path d="M265.843 598.37a.48.48 0 0 0-.312-.006" style="fill:none;stroke:#00ff4a;stroke-width:1.99999;stroke-linecap:round;stroke-linejoin:round;stroke-miterlimit:4;stroke-dasharray:none;stroke-opacity:1;visibility:visible"/><path d="M268.246 753.838a.47.47 0 0 0 .235.415M333.273 630.877l-.085-.039-.063-.054-.032-.055-.008-.055.03-.054.054-.055.08-.055.103-.048M333.352 630.463l5.797-2.063" style="fill:none;stroke:#00ff4a;stroke-width:.999997;stroke-linecap:round;stroke-linejoin:round;stroke-miterlimit:4;stroke-dasharray:none;stroke-opacity:1;visibility:visible"/><path d="M340.234 628.401a1.717 1.717 0 0 0-1.086 0" style="fill:none;stroke:#00ff4a;stroke-width:1.99999;stroke-linecap:round;stroke-linejoin:round;stroke-miterlimit:4;stroke-dasharray:none;stroke-opacity:1;visibility:visible"/><path d="m349.734 632.279 5.75 2.348" style="fill:none;stroke:#00ff4a;stroke-width:.999997;stroke-linecap:round;stroke-linejoin:round;stroke-miterlimit:4;stroke-dasharray:none;stroke-opacity:1;visibility:visible"/><path d="m340.234 628.4 9.5 3.879" style="fill:none;stroke:#00ff4a;stroke-width:1.99999;stroke-linecap:round;stroke-linejoin:round;stroke-miterlimit:4;stroke-dasharray:none;stroke-opacity:1;visibility:visible"/><path d="m355.484 634.627.09.039.066.054.032.055.007.055-.023.062-.055.055-.078.055-.102.04M355.422 635.04l-5.805 2.101M348.523 637.144c.352.116.74.116 1.093 0M348.523 637.142l-15.25-6.265" style="fill:none;stroke:#00ff4a;stroke-width:.999997;stroke-linecap:round;stroke-linejoin:round;stroke-miterlimit:4;stroke-dasharray:none;stroke-opacity:1;visibility:visible"/><path d="M355.078 840.783c.336.14.71.14 1.038 0M355.078 840.783l-14.524-7.508M361.61 838.267l.099-.055.073-.062.052-.071.024-.07v-.023M361.61 838.267l-5.492 2.516M340.374 833.057a.297.297 0 0 0 .18.218" style="fill:none;stroke:#00ff4a;stroke-width:1.99999;stroke-linecap:round;stroke-linejoin:round;stroke-miterlimit:4;stroke-dasharray:none;stroke-opacity:1;visibility:visible"/><path d="m531.724 571.298.085-.039.058-.046.04-.048.008-.047-.016-.047-.042-.046-.068-.047-.093-.032M526.836 573.064l4.888-1.765M525.835 573.065c.328.102.677.102 1 0M510.523 567.79l15.312 5.273M510.508 567.44l-.085.039-.063.046-.04.04-.01.055.015.047.043.046.067.039.089.04M515.39 565.705l-4.883 1.735" style="fill:none;stroke:#00ff4a;stroke-width:.999997;stroke-linecap:round;stroke-linejoin:round;stroke-miterlimit:4;stroke-dasharray:none;stroke-opacity:1;visibility:visible"/><path d="M516.387 565.707a1.673 1.673 0 0 0-.998 0M531.695 570.947l-15.307-5.243M523.543 763.652a1.263 1.263 0 0 0 .956 0M508.96 757.275l14.584 6.375M524.5 763.65l4.664-2.133M529.163 761.518a.258.258 0 0 0 .185-.202M508.96 757.275l-.081-.039-.067-.054-.04-.055-.015-.063" style="fill:none;stroke:#00ff4a;stroke-width:1.99999;stroke-linecap:round;stroke-linejoin:round;stroke-miterlimit:4;stroke-dasharray:none;stroke-opacity:1;visibility:visible"/><path d="m244.898 594.587-.079-.039-.054-.046-.026-.055.003-.048.03-.055.055-.046.087-.047.101-.039" style="fill:none;stroke:#00ff4a;stroke-width:.999997;stroke-linecap:round;stroke-linejoin:round;stroke-miterlimit:4;stroke-dasharray:none;stroke-opacity:1;visibility:visible"/><path d="m245.016 594.213 5.75-1.875M251.797 592.339a1.66 1.66 0 0 0-1.031 0M258.82 595.202l6.82 2.784" style="fill:none;stroke:#00ff4a;stroke-width:1.99999;stroke-linecap:round;stroke-linejoin:round;stroke-miterlimit:4;stroke-dasharray:none;stroke-opacity:1;visibility:visible"/><path d="m251.797 592.337 7.024 2.864" style="fill:none;stroke:#00ff4a;stroke-width:.999997;stroke-linecap:round;stroke-linejoin:round;stroke-miterlimit:4;stroke-dasharray:none;stroke-opacity:1;visibility:visible"/><path d="m265.64 597.986.084.039.055.046.025.048v.055l-.03.055-.055.046-.082.047-.106.039" style="fill:none;stroke:#00ff4a;stroke-width:1.99999;stroke-linecap:round;stroke-linejoin:round;stroke-miterlimit:4;stroke-dasharray:none;stroke-opacity:1;visibility:visible"/><path d="m265.531 598.36-5.757 1.907M258.731 600.268a1.693 1.693 0 0 0 1.042 0M258.732 600.267l-13.833-5.68" style="fill:none;stroke:#00ff4a;stroke-width:.999997;stroke-linecap:round;stroke-linejoin:round;stroke-miterlimit:4;stroke-dasharray:none;stroke-opacity:1;visibility:visible"/><path d="M269.366 796.48a1.28 1.28 0 0 0 .992 0M269.367 796.478l-13.245-6.844M275.813 794.181l.093-.047.079-.054.055-.063.024-.063.006-.038M275.813 794.181l-5.453 2.297M255.969 789.447a.24.24 0 0 0 .153.188" style="fill:none;stroke:#00ff4a;stroke-width:1.99999;stroke-linecap:round;stroke-linejoin:round;stroke-miterlimit:4;stroke-dasharray:none;stroke-opacity:1;visibility:visible"/><path d="M435.374 541.917c.312.094.645.094.96 0" style="fill:none;stroke:#00ff4a;stroke-width:.999997;stroke-linecap:round;stroke-linejoin:round;stroke-miterlimit:4;stroke-dasharray:none;stroke-opacity:1;visibility:visible"/><path d="m441.219 540.298.085-.03.063-.04.045-.047.015-.039-.013-.047-.034-.048-.06-.038-.085-.031" style="fill:none;stroke:#00ff4a;stroke-width:1.99999;stroke-linecap:round;stroke-linejoin:round;stroke-miterlimit:4;stroke-dasharray:none;stroke-opacity:1;visibility:visible"/><path d="m436.336 541.916 4.883-1.617M421.372 537.095l14.003 4.82" style="fill:none;stroke:#00ff4a;stroke-width:.999997;stroke-linecap:round;stroke-linejoin:round;stroke-miterlimit:4;stroke-dasharray:none;stroke-opacity:1;visibility:visible"/><path d="m421.398 536.775-.085.03-.071.04-.039.047-.016.039.008.047.036.04.058.038.082.039M426.281 535.181l-4.883 1.593M427.234 535.183a1.807 1.807 0 0 0-.954 0M441.234 539.978l-14-4.797" style="fill:none;stroke:#00ff4a;stroke-width:1.99999;stroke-linecap:round;stroke-linejoin:round;stroke-miterlimit:4;stroke-dasharray:none;stroke-opacity:1;visibility:visible"/><path d="m426.336 539.44-168.694 55.281M525.828 573.728l-170.133 61.539M510.013 568.275l-74.161-25.555M333.094 630.908l-73.088-30.016M348.523 637.142l6.555 203.64M523.544 763.65l2.292-190.585M270.36 796.478l-10.585-196.21" style="fill:none;stroke:#00ff4a;stroke-width:.999997;stroke-linecap:round;stroke-linejoin:round;stroke-miterlimit:4;stroke-dasharray:none;stroke-opacity:1;visibility:visible"/><path d="m414.435 563.153 2.136-.915M445.87 572.236l2.075 1.041" style="fill:none;stroke:#00ff4a;stroke-width:.666665;stroke-linecap:round;stroke-linejoin:round;stroke-miterlimit:4;stroke-dasharray:none;stroke-opacity:1;visibility:visible"/><path d="m511.883 721.142 10.449 2.174" style="fill:none;stroke:#00ff4a;stroke-width:1.99999;stroke-linecap:round;stroke-linejoin:round;stroke-miterlimit:4;stroke-dasharray:none;stroke-opacity:1;visibility:visible"/><path d="m525.836 573.065-15.586 1.537" style="fill:none;stroke:#00ff4a;stroke-width:.999997;stroke-linecap:round;stroke-linejoin:round;stroke-miterlimit:4;stroke-dasharray:none;stroke-opacity:1;visibility:visible"/><path d="m509.966 721.97-.982 7.18" style="fill:none;stroke:#00ff4a;stroke-width:1.99999;stroke-linecap:round;stroke-linejoin:round;stroke-miterlimit:4;stroke-dasharray:none;stroke-opacity:1;visibility:visible"/><path d="m416.571 562.238-1.055 3.435M447.945 573.277l-1.205-3.775M259.773 600.268l-2.131-5.547" style="fill:none;stroke:#00ff4a;stroke-width:.999997;stroke-linecap:round;stroke-linejoin:round;stroke-miterlimit:4;stroke-dasharray:none;stroke-opacity:1;visibility:visible"/><path d="m415.516 565.673 1.055-3.435M446.74 569.502l1.205 3.775" style="fill:none;stroke:#00ff4a;stroke-width:.666665;stroke-linecap:round;stroke-linejoin:round;stroke-miterlimit:4;stroke-dasharray:none;stroke-opacity:1;visibility:visible"/></svg>