<svg xmlns="http://www.w3.org/2000/svg" baseProfile="full" height="1122.52" preserveAspectRatio="xMinYMin meet" style="width:765px;height:943px" width="793.701" xml:space="preserve"><path d="m515.921 870.05-165.238 61.501M365.3 946.223l55.291-21.37M426.886 922.42l60.3-23.308M493.615 896.627l36.62-14.154" style="fill:none;stroke:red;stroke-width:1.99999;stroke-linecap:round;stroke-linejoin:round;stroke-miterlimit:4;stroke-dasharray:none;stroke-opacity:1;visibility:visible" visibility="hidden"/><path d="m365.074 946.2.085.031.087.005.076-.02.064-.05.052-.072.034-.096.02-.11v-.128M365.086 939.075l.406 6.687M365.086 939.075a1.123 1.123 0 0 0-.506-.892" style="fill:none;stroke:red;stroke-width:.999997;stroke-linecap:round;stroke-linejoin:round;stroke-miterlimit:4;stroke-dasharray:none;stroke-opacity:1;visibility:visible" visibility="hidden"/><path d="m350.898 931.571-.086-.028-.08-.003-.078.023-.062.05-.049.072-.036.094-.016.112v.129M350.934 938.634l-.444-6.615M350.934 938.634a1.115 1.115 0 0 0 .492.88M365.074 946.2l-13.647-6.688" style="fill:none;stroke:red;stroke-width:1.99999;stroke-linecap:round;stroke-linejoin:round;stroke-miterlimit:4;stroke-dasharray:none;stroke-opacity:1;visibility:visible" visibility="hidden"/><path d="m355.442 936.344-.306-.07-.256.098-.18.256-.078.38.03.462.136.486.224.451.29.363.312.23.306.074.26-.099.18-.255.075-.38-.029-.462-.134-.488-.226-.449-.29-.366-.314-.231M360.276 938.26l-.354-.096-.312.07-.248.232-.15.37-.049.476.059.542.164.556.254.524.322.445.353.324.365.177.336.015.284-.15.2-.304.102-.429-.006-.517-.112-.553-.21-.548-.29-.492-.344-.39-.364-.252M350.898 931.571l13.684 6.612" style="fill:none;stroke:red;stroke-width:.999997;stroke-linecap:round;stroke-linejoin:round;stroke-miterlimit:4;stroke-dasharray:none;stroke-opacity:1;visibility:visible" visibility="hidden"/><path d="m530.508 875.986-.039 6.052M530.508 875.986a.84.84 0 0 0-.467-.779" style="fill:none;stroke:red;stroke-width:1.99999;stroke-linecap:round;stroke-linejoin:round;stroke-miterlimit:4;stroke-dasharray:none;stroke-opacity:1;visibility:visible" visibility="hidden"/><path d="m484.188 896.997.063.402.174.311.263.177.32.024.339-.131.32-.269.256-.38.166-.44.055-.445-.064-.406-.173-.31-.267-.177-.319-.027-.34.132-.318.27-.256.377-.17.442-.049.45M418.226 922.323l.08.419.204.317.3.181.36.015.376-.143.346-.291.274-.401.177-.458.047-.468-.083-.421-.204-.317-.296-.181-.36-.015-.375.141-.346.292-.279.397-.175.464-.046.47" style="fill:none;stroke:red;stroke-width:.999997;stroke-linecap:round;stroke-linejoin:round;stroke-miterlimit:4;stroke-dasharray:none;stroke-opacity:1;visibility:visible" visibility="hidden"/><path d="M516.148 870.055a.304.304 0 0 0-.227-.005M530.235 882.473a.443.443 0 0 0 .234-.435M516.148 870.055l13.893 5.151" style="fill:none;stroke:red;stroke-width:1.99999;stroke-linecap:round;stroke-linejoin:round;stroke-miterlimit:4;stroke-dasharray:none;stroke-opacity:1;visibility:visible" visibility="hidden"/><path d="m364.582 938.183 165.46-62.976" style="fill:none;stroke:red;stroke-width:.999997;stroke-linecap:round;stroke-linejoin:round;stroke-miterlimit:4;stroke-dasharray:none;stroke-opacity:1;visibility:visible" visibility="hidden"/><path d="m426.886 922.42-6.295 2.433M420.591 924.853l6.295-2.433M493.615 896.627l-6.429 2.485M487.186 899.112l6.429-2.485" style="fill:none;stroke:red;stroke-width:1.99999;stroke-linecap:round;stroke-linejoin:round;stroke-miterlimit:4;stroke-dasharray:none;stroke-opacity:1;visibility:visible" visibility="hidden"/><path d="m351.426 939.514 4.016-3.17M365.074 946.2l-4.798-7.94M351.426 939.514l8.85-1.254" style="fill:none;stroke:red;stroke-width:.999997;stroke-linecap:round;stroke-linejoin:round;stroke-miterlimit:4;stroke-dasharray:none;stroke-opacity:1;visibility:visible" visibility="hidden"/><path d="m695.42 938.304-102.85-38.193M427.452 974.77l103.156 50.518" style="fill:none;stroke:#00ff4a;stroke-width:1.99999;stroke-linecap:round;stroke-linejoin:round;stroke-miterlimit:4;stroke-dasharray:none;stroke-opacity:1;visibility:visible"/><path d="M531.044 1017.347a1.196 1.196 0 0 0-.593 1.023" style="fill:none;stroke:#00ff4a;stroke-width:.999997;stroke-linecap:round;stroke-linejoin:round;stroke-miterlimit:4;stroke-dasharray:none;stroke-opacity:1;visibility:visible"/><path d="M427.576 967.352a.99.99 0 0 0-.56.931" style="fill:none;stroke:#00ff4a;stroke-width:1.99999;stroke-linecap:round;stroke-linejoin:round;stroke-miterlimit:4;stroke-dasharray:none;stroke-opacity:1;visibility:visible"/><path d="m585.672 994.804-.047-.334-.148-.234-.23-.09-.277.062-.277.206-.24.32-.163.382-.063.388.046.336.148.232.232.092.277-.062.278-.207.237-.32.165-.383.062-.388M651.309 963.002l-.03-.322-.127-.226-.2-.095-.244.051-.251.187-.219.301-.156.36-.068.372.032.324.13.226.198.094.247-.05.25-.193.221-.296.148-.361.069-.372" style="fill:none;stroke:#00ff4a;stroke-width:.999997;stroke-linecap:round;stroke-linejoin:round;stroke-miterlimit:4;stroke-dasharray:none;stroke-opacity:1;visibility:visible"/><path d="m692.2 946.6-161.344 78.674" style="fill:none;stroke:#00ff4a;stroke-width:1.99999;stroke-linecap:round;stroke-linejoin:round;stroke-miterlimit:4;stroke-dasharray:none;stroke-opacity:1;visibility:visible"/><path d="m684.48 943.488 10.728-5.164M684.481 943.488l-.219.29-.234.246-.242.203-.248.147-.242.088-.234.03-.22-.032-.194-.092M672.14 949.428l10.508-5.06M672.14 949.428l-.222.295-.24.252-.248.205-.251.15-.251.087-.236.035-.224-.032-.203-.09M659.52 955.504l10.746-5.174M659.521 955.504l-.227.298-.242.254-.255.208-.257.152-.254.096-.246.031-.227-.027-.21-.09M646.614 961.718l10.987-5.292M646.614 961.718l-.232.302-.249.26-.259.211-.264.153-.258.1-.254.033-.234-.027-.216-.087M633.406 968.075l11.244-5.412M633.406 968.075l-.236.307-.256.264-.26.214-.272.158-.265.1-.257.038-.243-.026-.219-.088M619.888 974.583l11.51-5.541M619.888 974.583l-.24.31-.258.268-.268.219-.278.162-.274.101-.266.039-.244-.023-.227-.088M606.052 981.243l11.781-5.672M606.052 981.243l-.248.316-.26.27-.279.223-.281.166-.282.105-.268.041-.254-.021-.235-.085M591.883 988.063l12.062-5.805M589.727 989.1a1.877 1.877 0 0 0 2.156-1.037M577.367 995.048l12.36-5.948M575.161 996.111a1.935 1.935 0 0 0 2.206-1.063M562.5 1002.208l12.66-6.096M560.239 1003.296a2.007 2.007 0 0 0 2.26-1.088M547.263 1009.543l12.976-6.248M544.943 1010.658a2.083 2.083 0 0 0 2.32-1.115M531.044 1017.347l13.899-6.69M530.461 1024.978l-.01-6.606M530.461 1024.978l.009.092.02.08.04.066.046.05.063.033.065.011.075-.008.078-.027" style="fill:none;stroke:#00ff4a;stroke-width:.999997;stroke-linecap:round;stroke-linejoin:round;stroke-miterlimit:4;stroke-dasharray:none;stroke-opacity:1;visibility:visible"/><path d="m427.287 974.474-.27-6.191M692.2 946.6l.008-.132M692.208 946.47l2.906-1.416M695.114 945.054a.87.87 0 0 0 .104-.35M695.615 938.77l-.397 5.933M695.614 938.77v-.126l-.016-.112-.036-.094-.05-.072-.062-.05-.076-.025-.077.005-.09.028" style="fill:none;stroke:#00ff4a;stroke-width:1.99999;stroke-linecap:round;stroke-linejoin:round;stroke-miterlimit:4;stroke-dasharray:none;stroke-opacity:1;visibility:visible"/><path d="m454.982 984.816-.08-.51-.193-.51-.291-.446-.342-.334-.366-.173-.335.001-.265.178-.164.333-.048.448.078.51.196.507.286.447.344.333.362.175h.336l.266-.177.169-.332.047-.45M501.232 1007.33l-.076-.526-.203-.53-.3-.467-.372-.349-.39-.191-.367-.008-.292.179-.188.337-.063.461.074.526.204.528.304.466.366.35.391.192.365.006.296-.174.189-.34.062-.46M444.303 979.618l-.084-.578-.195-.582-.292-.542-.364-.446-.398-.318-.407-.152-.367.016-.305.191-.211.347-.102.47.025.551.14.585.243.567.333.5.383.384.406.24.392.072.342-.107.26-.269.158-.412.043-.517M513.75 1013.427l-.072-.605-.202-.618-.315-.574-.398-.482-.446-.344-.453-.178-.421.006-.358.186-.25.354-.127.486.003.576.139.616.263.6.36.534.424.416.454.266.442.089.394-.096.305-.27.195-.427.062-.535" style="fill:none;stroke:#00ff4a;stroke-width:.999997;stroke-linecap:round;stroke-linejoin:round;stroke-miterlimit:4;stroke-dasharray:none;stroke-opacity:1;visibility:visible"/><path d="m427.576 967.352 13.807-5.634" style="fill:none;stroke:#00ff4a;stroke-width:1.99999;stroke-linecap:round;stroke-linejoin:round;stroke-miterlimit:4;stroke-dasharray:none;stroke-opacity:1;visibility:visible"/><path d="m544.943 1010.658-103.56-48.94" style="fill:none;stroke:#00ff4a;stroke-width:.666665;stroke-linecap:round;stroke-linejoin:round;stroke-miterlimit:4;stroke-dasharray:none;stroke-opacity:1;visibility:visible"/><path d="M427.287 974.474a.33.33 0 0 0 .167.296" style="fill:none;stroke:#00ff4a;stroke-width:1.99999;stroke-linecap:round;stroke-linejoin:round;stroke-miterlimit:4;stroke-dasharray:none;stroke-opacity:1;visibility:visible"/><path d="m547.263 1009.543-103.57-48.768" style="fill:none;stroke:#00ff4a;stroke-width:.666665;stroke-linecap:round;stroke-linejoin:round;stroke-miterlimit:4;stroke-dasharray:none;stroke-opacity:1;visibility:visible"/><path d="m443.692 960.775 12.922-5.27M441.383 961.718a2.01 2.01 0 0 0 2.31-.943" style="fill:none;stroke:#00ff4a;stroke-width:1.99999;stroke-linecap:round;stroke-linejoin:round;stroke-miterlimit:4;stroke-dasharray:none;stroke-opacity:1;visibility:visible"/><path d="m562.5 1002.208-103.628-47.625M560.239 1003.296l-103.625-47.792" style="fill:none;stroke:#00ff4a;stroke-width:.666665;stroke-linecap:round;stroke-linejoin:round;stroke-miterlimit:4;stroke-dasharray:none;stroke-opacity:1;visibility:visible"/><path d="m458.872 954.583 12.633-5.153M456.615 955.504a1.95 1.95 0 0 0 2.257-.92" style="fill:none;stroke:#00ff4a;stroke-width:1.99999;stroke-linecap:round;stroke-linejoin:round;stroke-miterlimit:4;stroke-dasharray:none;stroke-opacity:1;visibility:visible"/><path d="m577.367 995.048-103.659-46.52M575.161 996.111l-103.656-46.683" style="fill:none;stroke:#00ff4a;stroke-width:.666665;stroke-linecap:round;stroke-linejoin:round;stroke-miterlimit:4;stroke-dasharray:none;stroke-opacity:1;visibility:visible"/><path d="m473.708 948.528 12.355-5.038M471.579 949.462a1.919 1.919 0 0 0 2.13-.934" style="fill:none;stroke:#00ff4a;stroke-width:1.99999;stroke-linecap:round;stroke-linejoin:round;stroke-miterlimit:4;stroke-dasharray:none;stroke-opacity:1;visibility:visible"/><path d="m591.883 988.063-103.664-45.455M589.727 989.1l-103.664-45.612" style="fill:none;stroke:#00ff4a;stroke-width:.666665;stroke-linecap:round;stroke-linejoin:round;stroke-miterlimit:4;stroke-dasharray:none;stroke-opacity:1;visibility:visible"/><path d="m488.219 942.608 12.085-4.932M486.177 943.538a1.875 1.875 0 0 0 2.043-.93" style="fill:none;stroke:#00ff4a;stroke-width:1.99999;stroke-linecap:round;stroke-linejoin:round;stroke-miterlimit:4;stroke-dasharray:none;stroke-opacity:1;visibility:visible"/><path d="m606.052 981.243-103.639-44.425M603.945 982.258l-103.64-44.582" style="fill:none;stroke:#00ff4a;stroke-width:.666665;stroke-linecap:round;stroke-linejoin:round;stroke-miterlimit:4;stroke-dasharray:none;stroke-opacity:1;visibility:visible"/><path d="m502.415 936.816 11.825-4.824M500.452 937.742a1.843 1.843 0 0 0 1.961-.924" style="fill:none;stroke:#00ff4a;stroke-width:1.99999;stroke-linecap:round;stroke-linejoin:round;stroke-miterlimit:4;stroke-dasharray:none;stroke-opacity:1;visibility:visible"/><path d="M619.888 974.583 516.304 931.15M617.833 975.571 514.24 931.992" style="fill:none;stroke:#00ff4a;stroke-width:.666665;stroke-linecap:round;stroke-linejoin:round;stroke-miterlimit:4;stroke-dasharray:none;stroke-opacity:1;visibility:visible"/><path d="m516.305 931.148 11.571-4.72M514.421 932.07a1.805 1.805 0 0 0 1.883-.92" style="fill:none;stroke:#00ff4a;stroke-width:1.99999;stroke-linecap:round;stroke-linejoin:round;stroke-miterlimit:4;stroke-dasharray:none;stroke-opacity:1;visibility:visible"/><path d="m633.406 968.075-103.51-42.472M631.398 969.04l-103.523-42.612" style="fill:none;stroke:#00ff4a;stroke-width:.666665;stroke-linecap:round;stroke-linejoin:round;stroke-miterlimit:4;stroke-dasharray:none;stroke-opacity:1;visibility:visible"/><path d="m529.896 925.603 11.323-4.62M528.085 926.516a1.765 1.765 0 0 0 1.81-.913" style="fill:none;stroke:#00ff4a;stroke-width:1.99999;stroke-linecap:round;stroke-linejoin:round;stroke-miterlimit:4;stroke-dasharray:none;stroke-opacity:1;visibility:visible"/><path d="M646.614 961.718 543.2 920.177M644.648 962.663l-103.43-41.68" style="fill:none;stroke:#00ff4a;stroke-width:.666665;stroke-linecap:round;stroke-linejoin:round;stroke-miterlimit:4;stroke-dasharray:none;stroke-opacity:1;visibility:visible"/><path d="M541.461 921.08a1.741 1.741 0 0 0 1.74-.903" style="fill:none;stroke:#00ff4a;stroke-width:1.99999;stroke-linecap:round;stroke-linejoin:round;stroke-miterlimit:4;stroke-dasharray:none;stroke-opacity:1;visibility:visible"/><path d="m657.601 956.427-103.314-40.773" style="fill:none;stroke:#00ff4a;stroke-width:.666665;stroke-linecap:round;stroke-linejoin:round;stroke-miterlimit:4;stroke-dasharray:none;stroke-opacity:1;visibility:visible"/><path d="m543.2 920.177 11.085-4.524" style="fill:none;stroke:#00ff4a;stroke-width:1.99999;stroke-linecap:round;stroke-linejoin:round;stroke-miterlimit:4;stroke-dasharray:none;stroke-opacity:1;visibility:visible"/><path d="m659.521 955.504-103.297-40.642" style="fill:none;stroke:#00ff4a;stroke-width:.666665;stroke-linecap:round;stroke-linejoin:round;stroke-miterlimit:4;stroke-dasharray:none;stroke-opacity:1;visibility:visible"/><path d="M554.555 915.76a1.704 1.704 0 0 0 1.669-.899" style="fill:none;stroke:#00ff4a;stroke-width:1.99999;stroke-linecap:round;stroke-linejoin:round;stroke-miterlimit:4;stroke-dasharray:none;stroke-opacity:1;visibility:visible"/><path d="m670.265 950.33-103.182-39.9" style="fill:none;stroke:#00ff4a;stroke-width:.666665;stroke-linecap:round;stroke-linejoin:round;stroke-miterlimit:4;stroke-dasharray:none;stroke-opacity:1;visibility:visible"/><path d="m556.224 914.862 10.86-4.43" style="fill:none;stroke:#00ff4a;stroke-width:1.99999;stroke-linecap:round;stroke-linejoin:round;stroke-miterlimit:4;stroke-dasharray:none;stroke-opacity:1;visibility:visible"/><path d="m672.14 949.428-103.164-39.771" style="fill:none;stroke:#00ff4a;stroke-width:.666665;stroke-linecap:round;stroke-linejoin:round;stroke-miterlimit:4;stroke-dasharray:none;stroke-opacity:1;visibility:visible"/><path d="M567.375 910.543a1.661 1.661 0 0 0 1.6-.886" style="fill:none;stroke:#00ff4a;stroke-width:1.99999;stroke-linecap:round;stroke-linejoin:round;stroke-miterlimit:4;stroke-dasharray:none;stroke-opacity:1;visibility:visible"/><path d="m682.648 944.37-103.033-39.052" style="fill:none;stroke:#00ff4a;stroke-width:.666665;stroke-linecap:round;stroke-linejoin:round;stroke-miterlimit:4;stroke-dasharray:none;stroke-opacity:1;visibility:visible"/><path d="m568.976 909.657 10.639-4.34" style="fill:none;stroke:#00ff4a;stroke-width:1.99999;stroke-linecap:round;stroke-linejoin:round;stroke-miterlimit:4;stroke-dasharray:none;stroke-opacity:1;visibility:visible"/><path d="M684.481 943.488 581.473 904.56" style="fill:none;stroke:#00ff4a;stroke-width:.666665;stroke-linecap:round;stroke-linejoin:round;stroke-miterlimit:4;stroke-dasharray:none;stroke-opacity:1;visibility:visible"/><path d="M592.57 900.111a.296.296 0 0 0-.22.01M581.473 904.56l10.875-4.436M579.93 905.437a1.643 1.643 0 0 0 1.542-.878" style="fill:none;stroke:#00ff4a;stroke-width:1.99999;stroke-linecap:round;stroke-linejoin:round;stroke-miterlimit:4;stroke-dasharray:none;stroke-opacity:1;visibility:visible"/><path d="m427.576 967.352 103.47 49.996" style="fill:none;stroke:#00ff4a;stroke-width:.999997;stroke-linecap:round;stroke-linejoin:round;stroke-miterlimit:4;stroke-dasharray:none;stroke-opacity:1;visibility:visible"/></svg>