<svg xmlns="http://www.w3.org/2000/svg" baseProfile="full" height="1122.52" preserveAspectRatio="xMinYMin meet" style="width:765px;height:943px" width="793.701" xml:space="preserve"><path d="m274.402 1036.09 150.548-82.18M317.123 895.949l-45.2 21.769M264.795 921.153l-58.428 28.14M199.934 952.391l-15.684 7.553M177.872 963.016 166.28 968.6M307.405 921.918l24.59-12.133M181.4 984.071l.973-.484M376.94 955.84l-76.363-37.254M181.724 983.224l75.951 42.459" style="fill:none;stroke:red;stroke-width:1.99999;stroke-linecap:round;stroke-linejoin:round;stroke-miterlimit:4;stroke-dasharray:none;stroke-opacity:1;visibility:visible"/><path d="m302.389 922.623.39.13.459.061.472-.02.431-.096.333-.168.201-.211.039-.231-.125-.228-.274-.187-.388-.135-.46-.06-.474.02-.427.099-.336.165-.2.21-.04.233.125.225.275.193M368.035 954.76l.415.141.478.063.49-.017.437-.11.333-.173.194-.228.022-.248-.148-.244-.296-.204-.414-.142-.48-.063-.487.019-.439.11-.334.173-.19.227-.024.247.146.245.297.204M288.889 935.06l.585.232.67.168.726.092.75.008.739-.073.689-.145.608-.216.503-.279.371-.323.219-.36.065-.369-.104-.368-.253-.35-.404-.312-.526-.265-.63-.197-.702-.128-.738-.052-.748.03-.716.111-.651.182-.557.248-.44.301-.3.339-.143.366.015.374.177.361.328.336.467.29M212.266 973.022l.588.254.686.18.747.099.783.008.772-.075.73-.16.658-.233.544-.305.413-.35.263-.388.097-.4-.076-.401-.236-.377-.39-.339-.527-.287-.637-.216-.721-.141-.765-.055-.78.038-.754.114-.695.2-.604.266-.484.328-.341.37-.183.398-.014.404.153.39.312.363.461.315M342.491 961.858l.615.248.7.176.756.094.77.012.755-.074.701-.156.615-.232.5-.296.361-.343.206-.377.04-.39-.123-.393-.287-.367-.434-.334-.558-.279-.658-.21-.73-.137-.765-.052-.767.032-.73.116-.66.191-.559.263-.436.32-.285.362-.126.388.036.394.206.382.36.355.496.307M265.822 1002.128l.617.266.716.193.779.104.805.01.794-.077.745-.173.659-.252.546-.319.404-.374.247-.411.076-.428-.096-.421-.268-.404-.423-.356-.557-.306-.672-.232-.747-.145-.794-.057-.8.033-.771.128-.705.205-.607.288-.479.349-.33.392-.166.419.008.43.18.417.344.385.495.336M181.354 977.456l.183 5.402M377.063 955.974a.28.28 0 0 0-.377-.136c-.014.008-.03.016-.04.024M257.67 1025.407l-.065-5.57M258.146 1018.904a1.12 1.12 0 0 0-.541.932M181.874 976.566a1.023 1.023 0 0 0-.521.89" style="fill:none;stroke:red;stroke-width:.999997;stroke-linecap:round;stroke-linejoin:round;stroke-miterlimit:4;stroke-dasharray:none;stroke-opacity:1;visibility:visible"/><path d="M181.536 982.858a.412.412 0 0 0 .188.366" style="fill:none;stroke:red;stroke-width:1.99999;stroke-linecap:round;stroke-linejoin:round;stroke-miterlimit:4;stroke-dasharray:none;stroke-opacity:1;visibility:visible"/><path d="M300.577 918.585a.325.325 0 0 0-.298.018" style="fill:none;stroke:red;stroke-width:.999997;stroke-linecap:round;stroke-linejoin:round;stroke-miterlimit:4;stroke-dasharray:none;stroke-opacity:1;visibility:visible"/><path d="m166.562 968.634-.09-.042-.09-.016-.074.014-.071.038-.055.06-.038.084-.024.099-.006.117M166.114 968.987l.24 6.193M166.354 975.18a1.133 1.133 0 0 0 .496.88" style="fill:none;stroke:red;stroke-width:1.99999;stroke-linecap:round;stroke-linejoin:round;stroke-miterlimit:4;stroke-dasharray:none;stroke-opacity:1;visibility:visible"/><path d="m181.565 983.688-.21-6.232M181.354 977.456a1.137 1.137 0 0 0-.502-.89M180.852 976.566l-14.29-7.932" style="fill:none;stroke:red;stroke-width:.999997;stroke-linecap:round;stroke-linejoin:round;stroke-miterlimit:4;stroke-dasharray:none;stroke-opacity:1;visibility:visible"/><path d="m331.764 902.722-14.348-6.76M332.18 909.413l.06-5.873M332.24 903.54a.95.95 0 0 0-.476-.819M166.849 976.06l14.26 7.976M181.109 984.038l.09.041.091.016.079-.013.07-.036.059-.058.038-.086.024-.099.005-.115" style="fill:none;stroke:red;stroke-width:1.99999;stroke-linecap:round;stroke-linejoin:round;stroke-miterlimit:4;stroke-dasharray:none;stroke-opacity:1;visibility:visible"/><path d="m257.04 927.076-.286.191-.132.23.032.236.192.21.332.17.427.099.475.02.467-.06.396-.135.284-.195.133-.23-.03-.232-.197-.213-.331-.167-.427-.1-.474-.019-.466.059-.395.136M213.667 948.016l-.297.204-.148.234.021.248.187.224.328.174.436.104.484.023.476-.063.417-.144.296-.204.147-.236-.019-.246-.188-.224-.33-.175-.432-.104-.485-.023-.478.066-.415.142M174.246 966.886l-.314.208-.162.25.01.256.182.231.328.183.44.11.495.021.49-.066.428-.149.314-.21.159-.249-.01-.255-.182-.234-.328-.18-.438-.11-.493-.022-.492.068-.427.148" style="fill:none;stroke:red;stroke-width:.999997;stroke-linecap:round;stroke-linejoin:round;stroke-miterlimit:4;stroke-dasharray:none;stroke-opacity:1;visibility:visible"/><path d="M257.683 1026.26a1.156 1.156 0 0 0 .531.932M317.415 895.96a.323.323 0 0 0-.292-.012M331.997 909.785c.13-.076.2-.222.185-.372" style="fill:none;stroke:red;stroke-width:1.99999;stroke-linecap:round;stroke-linejoin:round;stroke-miterlimit:4;stroke-dasharray:none;stroke-opacity:1;visibility:visible"/><path d="m274.573 1035.708-.043-6.466M274.53 1029.243a1.184 1.184 0 0 0-.539-.945M273.991 1028.298l-15.866-8.81M258.123 1019.487l-.103-.044-.097-.021-.089.008-.077.04-.067.06-.045.086-.03.103-.01.117M257.606 1019.836l.079 6.424" style="fill:none;stroke:red;stroke-width:.999997;stroke-linecap:round;stroke-linejoin:round;stroke-miterlimit:4;stroke-dasharray:none;stroke-opacity:1;visibility:visible"/><path d="m424.858 946.598-15.806-7.448M425.14 953.542l.23-6.088M425.368 947.454a.96.96 0 0 0-.51-.858M258.215 1027.194l15.831 8.864M274.046 1036.057l.101.044.103.02.09-.01.08-.035.066-.06.05-.084.028-.104.009-.12" style="fill:none;stroke:red;stroke-width:1.99999;stroke-linecap:round;stroke-linejoin:round;stroke-miterlimit:4;stroke-dasharray:none;stroke-opacity:1;visibility:visible"/><path d="m363.972 975.503-.272.21-.113.257.063.257.23.24.365.181.467.112.503.027.481-.07.402-.152.272-.213.113-.252-.063-.264-.229-.234-.37-.187-.462-.11-.504-.022-.481.067-.402.153M298.467 1010.827l-.3.23-.132.273.045.278.221.255.369.201.472.12.52.023.505-.07.428-.166.299-.229.136-.272-.047-.28-.223-.253-.369-.201-.473-.12-.521-.024-.503.074-.427.16" style="fill:none;stroke:red;stroke-width:.999997;stroke-linecap:round;stroke-linejoin:round;stroke-miterlimit:4;stroke-dasharray:none;stroke-opacity:1;visibility:visible"/><path d="M409.054 939.148a.384.384 0 0 0-.35-.013M424.95 953.91a.413.413 0 0 0 .19-.367" style="fill:none;stroke:red;stroke-width:1.99999;stroke-linecap:round;stroke-linejoin:round;stroke-miterlimit:4;stroke-dasharray:none;stroke-opacity:1;visibility:visible"/><path d="m180.852 976.566 150.913-73.844M181.874 976.566l76.273 42.338" style="fill:none;stroke:red;stroke-width:.999997;stroke-linecap:round;stroke-linejoin:round;stroke-miterlimit:4;stroke-dasharray:none;stroke-opacity:1;visibility:visible"/><path d="m181.565 983.688.521-.26" style="fill:none;stroke:red;stroke-width:1.99999;stroke-linecap:round;stroke-linejoin:round;stroke-miterlimit:4;stroke-dasharray:none;stroke-opacity:1;visibility:visible"/><path d="m372.403 958.495-81.512 43.388M284.709 1005.174l-26.891 14.313M273.991 1028.298l150.869-81.7" style="fill:none;stroke:red;stroke-width:.999997;stroke-linecap:round;stroke-linejoin:round;stroke-miterlimit:4;stroke-dasharray:none;stroke-opacity:1;visibility:visible"/><path d="m408.746 939.148-31.03 16.518" style="fill:none;stroke:red;stroke-width:1.99999;stroke-linecap:round;stroke-linejoin:round;stroke-miterlimit:4;stroke-dasharray:none;stroke-opacity:1;visibility:visible"/><path d="M179.494 954.878c0-.224.294-.42.732-.53M180.202 953.123l.026 1.23M182.353 951.607c0-.345-.59-.623-1.323-.623-.732 0-1.322.278-1.322.623l.024.996c0 .343.576.62 1.286.62.714 0 1.288-.277 1.288-.62l.047-.996" style="fill:none;stroke:red;stroke-width:.999997;stroke-linecap:round;stroke-linejoin:round;stroke-miterlimit:4;stroke-dasharray:none;stroke-opacity:1;visibility:visible"/><path d="M182.529 954.964c-.103.3-.74.534-1.51.534-.843 0-1.526-.276-1.526-.619" style="fill:none;stroke:red;stroke-width:.666665;stroke-linecap:round;stroke-linejoin:round;stroke-miterlimit:4;stroke-dasharray:none;stroke-opacity:1;visibility:visible"/><path d="m182.54 954.878.027 9.541M179.494 954.878l-.166 9.516M181.826 953.104l.019 1.258c.44.11.697.292.697.516 0 .03-.012.086-.012.086" style="fill:none;stroke:red;stroke-width:.999997;stroke-linecap:round;stroke-linejoin:round;stroke-miterlimit:4;stroke-dasharray:none;stroke-opacity:1;visibility:visible"/><path d="M181.03 957.235v5.955" style="fill:none;stroke:red;stroke-width:.666665;stroke-linecap:round;stroke-linejoin:round;stroke-miterlimit:4;stroke-dasharray:none;stroke-opacity:1;visibility:visible"/><path d="M201.94 943.99c0-.224.293-.422.732-.53M202.646 942.235l.025 1.23M204.797 940.72c0-.346-.59-.622-1.323-.622-.732 0-1.323.276-1.323.622l.024.995c0 .345.576.62 1.287.62.713 0 1.288-.275 1.288-.62l.047-.995M182.653 964.747c.003.457-.736.833-1.647.836-.912.007-1.654-.363-1.656-.819a.51.51 0 0 1 .01-.097" style="fill:none;stroke:red;stroke-width:.999997;stroke-linecap:round;stroke-linejoin:round;stroke-miterlimit:4;stroke-dasharray:none;stroke-opacity:1;visibility:visible"/><path d="M204.973 944.076c-.103.3-.74.534-1.51.534-.843 0-1.526-.276-1.526-.62" style="fill:none;stroke:red;stroke-width:.666665;stroke-linecap:round;stroke-linejoin:round;stroke-miterlimit:4;stroke-dasharray:none;stroke-opacity:1;visibility:visible"/><path d="m204.986 943.99.025 9.54M201.94 943.99l-.167 9.516M204.27 942.216l.02 1.258c.439.11.696.292.696.516 0 .03-.013.086-.013.086" style="fill:none;stroke:red;stroke-width:.999997;stroke-linecap:round;stroke-linejoin:round;stroke-miterlimit:4;stroke-dasharray:none;stroke-opacity:1;visibility:visible"/><path d="M203.474 946.347v5.953" style="fill:none;stroke:red;stroke-width:.666665;stroke-linecap:round;stroke-linejoin:round;stroke-miterlimit:4;stroke-dasharray:none;stroke-opacity:1;visibility:visible"/><path d="M267.05 912.657c0-.224.293-.422.732-.531M267.758 910.902l.025 1.23M269.909 909.387c0-.346-.59-.622-1.323-.622-.732 0-1.323.275-1.323.622l.024.995c0 .344.576.62 1.287.62.713 0 1.288-.276 1.288-.62l.047-.995M205.097 953.858c.002.458-.737.832-1.647.836-.912.008-1.655-.364-1.657-.818a.51.51 0 0 1 .012-.096" style="fill:none;stroke:red;stroke-width:.999997;stroke-linecap:round;stroke-linejoin:round;stroke-miterlimit:4;stroke-dasharray:none;stroke-opacity:1;visibility:visible"/><path d="M270.085 912.743c-.103.3-.74.534-1.511.534-.841 0-1.524-.277-1.524-.62" style="fill:none;stroke:red;stroke-width:.666665;stroke-linecap:round;stroke-linejoin:round;stroke-miterlimit:4;stroke-dasharray:none;stroke-opacity:1;visibility:visible"/><path d="m270.097 912.657.025 9.54M267.05 912.657l-.167 9.515M269.382 910.883l.019 1.258c.439.109.697.292.697.516 0 .029-.013.086-.013.086" style="fill:none;stroke:red;stroke-width:.999997;stroke-linecap:round;stroke-linejoin:round;stroke-miterlimit:4;stroke-dasharray:none;stroke-opacity:1;visibility:visible"/><path d="M268.586 915.014v5.953" style="fill:none;stroke:red;stroke-width:.666665;stroke-linecap:round;stroke-linejoin:round;stroke-miterlimit:4;stroke-dasharray:none;stroke-opacity:1;visibility:visible"/><path d="M286.827 1007.544c0-.224.294-.42.733-.53M287.535 1005.79l.026 1.229M289.686 1004.274c0-.346-.59-.624-1.323-.624-.732 0-1.322.278-1.322.624l.024.996c0 .342.575.62 1.285.62.715 0 1.29-.278 1.29-.62l.046-.996M270.209 922.524c.001.461-.736.834-1.647.837-.912.008-1.655-.364-1.657-.818a.51.51 0 0 1 .012-.097" style="fill:none;stroke:red;stroke-width:.999997;stroke-linecap:round;stroke-linejoin:round;stroke-miterlimit:4;stroke-dasharray:none;stroke-opacity:1;visibility:visible"/><path d="M289.862 1007.631c-.103.3-.74.533-1.51.533-.842 0-1.526-.276-1.526-.618" style="fill:none;stroke:red;stroke-width:.666665;stroke-linecap:round;stroke-linejoin:round;stroke-miterlimit:4;stroke-dasharray:none;stroke-opacity:1;visibility:visible"/><path d="m289.874 1007.544.025 9.542M286.827 1007.544l-.166 9.516M289.16 1005.771l.017 1.257c.441.112.698.292.698.516 0 .03-.013.087-.013.087" style="fill:none;stroke:red;stroke-width:.999997;stroke-linecap:round;stroke-linejoin:round;stroke-miterlimit:4;stroke-dasharray:none;stroke-opacity:1;visibility:visible"/><path d="M288.363 1009.902v5.954" style="fill:none;stroke:red;stroke-width:.666665;stroke-linecap:round;stroke-linejoin:round;stroke-miterlimit:4;stroke-dasharray:none;stroke-opacity:1;visibility:visible"/><path d="M374.162 961.1c0-.226.293-.42.732-.533M374.868 959.344l.026 1.23M377.018 957.828c0-.344-.588-.622-1.322-.622-.733 0-1.322.278-1.322.622l.022.998c0 .341.578.62 1.288.62.714 0 1.288-.279 1.288-.62l.046-.998M289.986 1017.414c.003.456-.736.833-1.647.836-.912.006-1.654-.364-1.657-.82a.51.51 0 0 1 .012-.095" style="fill:none;stroke:red;stroke-width:.999997;stroke-linecap:round;stroke-linejoin:round;stroke-miterlimit:4;stroke-dasharray:none;stroke-opacity:1;visibility:visible"/><path d="M377.195 961.186c-.101.3-.74.533-1.51.533-.843.001-1.524-.276-1.524-.619" style="fill:none;stroke:red;stroke-width:.666665;stroke-linecap:round;stroke-linejoin:round;stroke-miterlimit:4;stroke-dasharray:none;stroke-opacity:1;visibility:visible"/><path d="m377.208 961.1.024 9.54M374.162 961.1l-.168 9.514M376.492 959.326l.02 1.257c.439.112.695.292.695.517.001.03-.012.086-.012.086" style="fill:none;stroke:red;stroke-width:.999997;stroke-linecap:round;stroke-linejoin:round;stroke-miterlimit:4;stroke-dasharray:none;stroke-opacity:1;visibility:visible"/><path d="M375.696 963.456v5.956" style="fill:none;stroke:red;stroke-width:.666665;stroke-linecap:round;stroke-linejoin:round;stroke-miterlimit:4;stroke-dasharray:none;stroke-opacity:1;visibility:visible"/><path d="M377.32 970.97c.001.456-.738.833-1.649.836-.911.004-1.653-.364-1.656-.82a.51.51 0 0 1 .012-.098" style="fill:none;stroke:red;stroke-width:.999997;stroke-linecap:round;stroke-linejoin:round;stroke-miterlimit:4;stroke-dasharray:none;stroke-opacity:1;visibility:visible"/><path d="m343.948 960.08 2.523 1.255M343.96 961.354l2.501-1.292M290.086 933.352l2.521 1.256M290.095 934.626l2.503-1.292M267.235 1000.171l2.522 1.256M267.245 1001.446l2.502-1.292M213.68 971.098l2.52 1.256M213.687 972.371l2.503-1.292" style="fill:none;stroke:red;stroke-width:.666665;stroke-linecap:round;stroke-linejoin:round;stroke-miterlimit:4;stroke-dasharray:none;stroke-opacity:1;visibility:visible"/><path d="m264.795 921.153 7.128-3.435M271.923 917.718l-7.128 3.435M199.934 952.391l6.433-3.098M206.367 949.293l-6.433 3.098M182.53 954.964l1.72 4.98M184.25 959.944l-6.378 3.072M292.598 933.334l14.807-11.416" style="fill:none;stroke:red;stroke-width:1.99999;stroke-linecap:round;stroke-linejoin:round;stroke-miterlimit:4;stroke-dasharray:none;stroke-opacity:1;visibility:visible"/><path d="m292.607 934.608-3.718.452M216.2 972.354l-3.934.668M346.471 961.335l-3.98.523M269.757 1001.427l-3.935.701M182.53 954.964l-8.284 11.922M377.716 955.666l-5.313 2.829M284.709 1005.174l6.182-3.291M290.891 1001.883l-6.182 3.291M179.494 954.878l.708-1.755M181.826 953.104l.527-1.497M180.228 954.353l2.125-2.746M182.353 951.607l-.527 1.497" style="fill:none;stroke:red;stroke-width:.999997;stroke-linecap:round;stroke-linejoin:round;stroke-miterlimit:4;stroke-dasharray:none;stroke-opacity:1;visibility:visible"/><path d="m179.494 954.878 1.536 2.357M182.653 964.747l-1.623-1.557" style="fill:none;stroke:red;stroke-width:.666665;stroke-linecap:round;stroke-linejoin:round;stroke-miterlimit:4;stroke-dasharray:none;stroke-opacity:1;visibility:visible"/><path d="m201.94 943.99.706-1.755M204.27 942.216l.527-1.496M202.671 943.465l2.126-2.745M204.797 940.72l-.527 1.496" style="fill:none;stroke:red;stroke-width:.999997;stroke-linecap:round;stroke-linejoin:round;stroke-miterlimit:4;stroke-dasharray:none;stroke-opacity:1;visibility:visible"/><path d="m201.94 943.99 1.534 2.357M205.097 953.858l-1.623-1.558" style="fill:none;stroke:red;stroke-width:.666665;stroke-linecap:round;stroke-linejoin:round;stroke-miterlimit:4;stroke-dasharray:none;stroke-opacity:1;visibility:visible"/><path d="m267.05 912.657.708-1.755M269.382 910.883l.527-1.496M267.783 912.132l2.126-2.745M269.909 909.387l-.527 1.496" style="fill:none;stroke:red;stroke-width:.999997;stroke-linecap:round;stroke-linejoin:round;stroke-miterlimit:4;stroke-dasharray:none;stroke-opacity:1;visibility:visible"/><path d="m267.05 912.657 1.536 2.357M270.209 922.524l-1.623-1.557" style="fill:none;stroke:red;stroke-width:.666665;stroke-linecap:round;stroke-linejoin:round;stroke-miterlimit:4;stroke-dasharray:none;stroke-opacity:1;visibility:visible"/><path d="m286.827 1007.544.708-1.754M289.16 1005.771l.526-1.497M287.561 1007.019l2.125-2.745M289.686 1004.274l-.526 1.497" style="fill:none;stroke:red;stroke-width:.999997;stroke-linecap:round;stroke-linejoin:round;stroke-miterlimit:4;stroke-dasharray:none;stroke-opacity:1;visibility:visible"/><path d="m286.827 1007.544 1.536 2.358M289.986 1017.414l-1.623-1.558" style="fill:none;stroke:red;stroke-width:.666665;stroke-linecap:round;stroke-linejoin:round;stroke-miterlimit:4;stroke-dasharray:none;stroke-opacity:1;visibility:visible"/><path d="m374.162 961.1.706-1.756M376.492 959.326l.526-1.498M374.894 960.574l2.124-2.746M377.018 957.828l-.526 1.498" style="fill:none;stroke:red;stroke-width:.999997;stroke-linecap:round;stroke-linejoin:round;stroke-miterlimit:4;stroke-dasharray:none;stroke-opacity:1;visibility:visible"/><path d="m374.162 961.1 1.534 2.356M377.32 970.97l-1.624-1.558M342.491 961.858l3.98-.523M300.577 918.585l-10.491 14.767M288.889 935.06l3.718-.452M300.279 918.603l-7.681 14.731M265.822 1002.128l3.935-.701M284.709 1005.174l-17.464-3.728M212.266 973.022l3.934-.668" style="fill:none;stroke:red;stroke-width:.666665;stroke-linecap:round;stroke-linejoin:round;stroke-miterlimit:4;stroke-dasharray:none;stroke-opacity:1;visibility:visible"/><path d="m396.71 640.957.002-.117" style="fill:none;stroke:#00ff4a;stroke-width:.999997;stroke-linecap:round;stroke-linejoin:round;stroke-miterlimit:4;stroke-dasharray:none;stroke-opacity:1;visibility:visible"/><path d="m153.481 646.283 8.693 226.762M185.366 868.085l99.577-41.81M280.035 608.457 173.24 640.785M385.58 866.32l6.362-223.836M390.887 865.531l6.341-223.203M279.511 608.143l.003.472" style="fill:none;stroke:#00ff4a;stroke-width:1.99999;stroke-linecap:round;stroke-linejoin:round;stroke-miterlimit:4;stroke-dasharray:none;stroke-opacity:1;visibility:visible"/><path d="m185.374 868.28-7.153-225.672M390.83 642.564l-111.104-34.26M390.83 642.564c.364.101.748.101 1.112 0M396.508 641.004l-4.568 1.56M396.508 641.004l.092-.039.067-.045.035-.05.008-.045-.024-.053-.052-.047-.079-.044-.107-.037" style="fill:none;stroke:#00ff4a;stroke-width:.999997;stroke-linecap:round;stroke-linejoin:round;stroke-miterlimit:4;stroke-dasharray:none;stroke-opacity:1;visibility:visible"/><path d="m285.36 606.595 111.088 34.049M285.36 606.595a2.037 2.037 0 0 0-1.042 0M279.736 607.981l4.581-1.385M279.735 607.981l-.093.034-.07.042-.042.039-.019.044.014.047.041.04.068.041.09.036" style="fill:none;stroke:#00ff4a;stroke-width:1.99999;stroke-linecap:round;stroke-linejoin:round;stroke-miterlimit:4;stroke-dasharray:none;stroke-opacity:1;visibility:visible"/><path d="M285.293 610.496a.624.624 0 0 0-.353-.586M375.09 635.897l-.292.143-.118.167.071.177.249.153.4.126.5.07.544.017.516-.043.43-.102.29-.142.118-.167-.07-.172-.25-.159-.399-.125-.499-.07-.545-.016-.515.046-.43.097M302.885 613.703l-.3.13-.132.15.049.166.221.141.367.118.475.068.52.01.502-.037.428-.093.296-.132.13-.157-.045-.16-.222-.147-.37-.11-.474-.066-.52-.021-.5.045-.425.095" style="fill:none;stroke:#00ff4a;stroke-width:.999997;stroke-linecap:round;stroke-linejoin:round;stroke-miterlimit:4;stroke-dasharray:none;stroke-opacity:1;visibility:visible"/><path d="M185.366 868.085a.124.124 0 0 0 .047-.031" style="fill:none;stroke:#00ff4a;stroke-width:1.99999;stroke-linecap:round;stroke-linejoin:round;stroke-miterlimit:4;stroke-dasharray:none;stroke-opacity:1;visibility:visible"/><path d="m207.489 631.927-.424-.1-.51-.042-.541.014-.499.07-.398.121-.254.155-.072.172.112.164.288.139.426.099.512.044.54-.011.497-.075.399-.12.252-.157.073-.17-.112-.166-.29-.137M255.249 617.428l-.422-.09-.505-.047-.521.017-.482.068-.377.117-.235.147-.06.163.126.156.29.13.423.096.505.046.523-.016.48-.068.38-.118.232-.145.06-.164-.125-.156-.292-.136M195.554 635.545l-.476-.12-.57-.062-.62-.011-.604.053-.544.105-.43.15-.28.186-.105.194.08.196.259.173.413.144.532.094.601.033.62-.017.583-.083.492-.129.359-.167.193-.192.01-.2-.17-.188-.343-.159M267.18 613.81l-.472-.114-.561-.059-.594-.005-.578.05-.51.096-.399.138-.247.167-.078.185.101.181.268.163.415.13.522.088.587.03.593-.02.553-.07.458-.124.325-.154.164-.177-.013-.183-.187-.175-.346-.147M284.942 609.91l-4.697-1.446M205.103 844.845l-.08-.686-.21-.604-.319-.489-.421-.352-.5-.203-.558-.038-.588.121-.591.284-.569.433-.512.55-.443.653-.346.721-.228.752-.108.759.02.719.144.648.268.546.375.423.463.281.534.115.579-.045.59-.206.582-.357.541-.497.481-.603.391-.688.29-.743.168-.757.047-.737M200.124 652.85l-.088-.77-.22-.693-.339-.583-.447-.445-.53-.29-.59-.109-.62.06-.625.238-.599.402-.546.548-.464.67-.364.75-.242.808-.114.827.022.795.156.739.284.641.396.514.492.368.564.197.61.021.625-.152.615-.322.57-.479.508-.61.415-.709.301-.785.18-.818.05-.813M271.334 630.55l-.068-.746-.187-.672-.308-.57-.401-.441-.484-.281-.541-.12-.576.055-.58.224-.559.377-.512.527-.44.637-.347.727-.24.78-.118.797.006.772.134.716.247.623.357.508.45.356.516.2.563.033.577-.142.571-.304.536-.456.48-.58.393-.689.294-.757.18-.784.057-.79M285.327 822.122l-99.951 41.681M285.36 826.9l-.066-216.404M185.374 863.803l-.096-.043M178.024 642.444l-4.675-1.62" style="fill:none;stroke:#00ff4a;stroke-width:.999997;stroke-linecap:round;stroke-linejoin:round;stroke-miterlimit:4;stroke-dasharray:none;stroke-opacity:1;visibility:visible"/><path d="M280.243 608.463a.347.347 0 0 0-.208-.006" style="fill:none;stroke:#00ff4a;stroke-width:1.99999;stroke-linecap:round;stroke-linejoin:round;stroke-miterlimit:4;stroke-dasharray:none;stroke-opacity:1;visibility:visible"/><path d="m259.517 822.585-.082-.686-.208-.604-.32-.489-.421-.352-.5-.203-.557-.038-.59.121-.589.284-.57.433-.513.55-.442.653-.345.721-.23.752-.107.76.02.717.144.649.268.546.375.423.464.281.533.115.579-.045.59-.206.583-.357.54-.497.482-.603.389-.688.291-.742.169-.758.047-.737M199.722 846.37a5.224 5.224 0 0 0 1.228-2.67M200.222 848.766c.156.021.31.036.456.028a1.27 1.27 0 0 0 .534-.143.984.984 0 0 0 .537-.63.916.916 0 0 0 .01-.438.867.867 0 0 0-.218-.423.919.919 0 0 0-.4-.238 1.52 1.52 0 0 0-.461-.06 2.57 2.57 0 0 0-.542.07 6.256 6.256 0 0 0-.484.135M266.027 632.241a5.31 5.31 0 0 0 .976-3.085M194.382 655.05a5.23 5.23 0 0 0 1.422-3.704M195.804 651.345l-.024-.345" style="fill:none;stroke:#00ff4a;stroke-width:.999997;stroke-linecap:round;stroke-linejoin:round;stroke-miterlimit:4;stroke-dasharray:none;stroke-opacity:1;visibility:visible"/><path d="M254.137 824.11a5.224 5.224 0 0 0 1.226-2.67M254.637 826.507c.156.023.309.036.456.028a1.27 1.27 0 0 0 .533-.142.984.984 0 0 0 .537-.63.916.916 0 0 0 .01-.439.867.867 0 0 0-.216-.424.919.919 0 0 0-.402-.237 1.52 1.52 0 0 0-.46-.06 2.57 2.57 0 0 0-.542.071 6.256 6.256 0 0 0-.484.133" style="fill:none;stroke:#00ff4a;stroke-width:.999997;stroke-linecap:round;stroke-linejoin:round;stroke-miterlimit:4;stroke-dasharray:none;stroke-opacity:1;visibility:visible"/><path d="M172.83 640.645a2.01 2.01 0 0 0-1.11 0" style="fill:none;stroke:#00ff4a;stroke-width:1.99999;stroke-linecap:round;stroke-linejoin:round;stroke-miterlimit:4;stroke-dasharray:none;stroke-opacity:1;visibility:visible"/><path d="m158.858 648.277-5.185-1.836M158.858 648.277a2.08 2.08 0 0 0 1.123 0M177.953 642.807l-17.973 5.472M177.953 642.807l.104-.04.083-.043.053-.051.025-.05-.005-.047-.033-.048-.063-.044-.093-.039M172.83 640.645l5.194 1.8" style="fill:none;stroke:#00ff4a;stroke-width:.999997;stroke-linecap:round;stroke-linejoin:round;stroke-miterlimit:4;stroke-dasharray:none;stroke-opacity:1;visibility:visible"/><path d="m153.76 646.075 17.96-5.43M153.76 646.075l-.11.04-.084.045-.054.048-.028.052.002.052.034.047.062.044.092.037" style="fill:none;stroke:#00ff4a;stroke-width:1.99999;stroke-linecap:round;stroke-linejoin:round;stroke-miterlimit:4;stroke-dasharray:none;stroke-opacity:1;visibility:visible"/><path d="m161.653 645.043-.35.147-.179.17.004.18.197.159.361.128.48.077.547.016.541-.05.476-.097.347-.149.18-.175-.008-.174-.195-.165-.362-.127-.48-.076-.542-.015-.544.047-.473.104M167.696 642.987l-.41.163-.246.19-.068.204.117.2.3.172.445.13.556.084.62.021.626-.036.576-.098.473-.142.333-.18.159-.203-.028-.199-.21-.186-.381-.157-.504-.106-.594-.052-.626.007-.608.068-.53.12" style="fill:none;stroke:#00ff4a;stroke-width:.999997;stroke-linecap:round;stroke-linejoin:round;stroke-miterlimit:4;stroke-dasharray:none;stroke-opacity:1;visibility:visible"/><path d="m185.125 868.54-16.817 7.082M167.25 875.623l-4.896-2.372M167.25 875.623c.342.137.72.137 1.058 0" style="fill:none;stroke:#00ff4a;stroke-width:1.99999;stroke-linecap:round;stroke-linejoin:round;stroke-miterlimit:4;stroke-dasharray:none;stroke-opacity:1;visibility:visible"/><path d="m172.64 657.801-.64.287-.6.448-.536.588-.451.704-.339.78-.213.826-.076.828.063.794.198.726.326.618.44.482.528.328.594.151.63-.024.644-.2.622-.37.57-.522.492-.647.396-.745.276-.803.146-.83.008-.816-.128-.762-.262-.672-.383-.56-.483-.406-.565-.247-.617-.067-.64.111M179.122 852.331l-.601.329-.568.47-.51.584-.426.683-.321.741-.202.772-.074.755.057.71.187.631.308.52.413.39.497.239.56.075.599-.092.605-.252.588-.401.539-.531.47-.639.373-.713.261-.752.141-.767.008-.738-.12-.672-.248-.579-.358-.463-.456-.316-.534-.158-.58.002-.608.172" style="fill:none;stroke:#00ff4a;stroke-width:.999997;stroke-linecap:round;stroke-linejoin:round;stroke-miterlimit:4;stroke-dasharray:none;stroke-opacity:1;visibility:visible"/><path d="M162.173 873.045a.263.263 0 0 0 .18.205" style="fill:none;stroke:#00ff4a;stroke-width:1.99999;stroke-linecap:round;stroke-linejoin:round;stroke-miterlimit:4;stroke-dasharray:none;stroke-opacity:1;visibility:visible"/><path d="M169.88 662.132a5.293 5.293 0 0 0 1.018-2.899" style="fill:none;stroke:#00ff4a;stroke-width:.999997;stroke-linecap:round;stroke-linejoin:round;stroke-miterlimit:4;stroke-dasharray:none;stroke-opacity:1;visibility:visible"/><path d="M185.125 868.54a.33.33 0 0 0 .25-.26" style="fill:none;stroke:#00ff4a;stroke-width:1.99999;stroke-linecap:round;stroke-linejoin:round;stroke-miterlimit:4;stroke-dasharray:none;stroke-opacity:1;visibility:visible"/><path d="M176.913 858.358c.18.008.357.01.513-.019.096-.017.187-.049.276-.082M177.702 858.257c.14-.079.288-.159.394-.263a.921.921 0 0 0 .224-.37c.046-.144.06-.294.04-.444a.91.91 0 0 0-.185-.437.947.947 0 0 0-.389-.273 1.533 1.533 0 0 0-.456-.075 2.44 2.44 0 0 0-.532.056 5.516 5.516 0 0 0-.33.087" style="fill:none;stroke:#00ff4a;stroke-width:.999997;stroke-linecap:round;stroke-linejoin:round;stroke-miterlimit:4;stroke-dasharray:none;stroke-opacity:1;visibility:visible"/><path d="M279.725 608.304v.245" style="fill:none;stroke:#00ff4a;stroke-width:1.99999;stroke-linecap:round;stroke-linejoin:round;stroke-miterlimit:4;stroke-dasharray:none;stroke-opacity:1;visibility:visible"/><path d="m159.98 648.277 8.327 227.346M285.293 610.496l-106.905 32.568" style="fill:none;stroke:#00ff4a;stroke-width:.999997;stroke-linecap:round;stroke-linejoin:round;stroke-miterlimit:4;stroke-dasharray:none;stroke-opacity:1;visibility:visible"/><path d="m285.36 826.274 100.22 40.047" style="fill:none;stroke:#00ff4a;stroke-width:1.66666;stroke-linecap:round;stroke-linejoin:round;stroke-miterlimit:4;stroke-dasharray:none;stroke-opacity:1;visibility:visible"/><path d="m385.58 866.32 5.307-.79M396.71 640.957l.518 1.371" style="fill:none;stroke:#00ff4a;stroke-width:1.99999;stroke-linecap:round;stroke-linejoin:round;stroke-miterlimit:4;stroke-dasharray:none;stroke-opacity:1;visibility:visible"/><path d="m391.942 642.564-16.852-6.667M285.293 610.496l17.592 3.207M279.726 608.304l-12.546 5.506M279.724 608.304l-12.543 5.506M195.78 651l4.344 1.85M177.953 642.807l-16.3 2.236M159.981 648.277l1.672-3.234M173.24 640.785l-5.544 2.202M171.72 640.645l-4.024 2.342M177.953 642.807l-5.313 14.994M177.702 858.257l1.42-5.926M177.702 858.257l1.42-5.926M177.702 858.257l-1.234-1.719" style="fill:none;stroke:#00ff4a;stroke-width:.999997;stroke-linecap:round;stroke-linejoin:round;stroke-miterlimit:4;stroke-dasharray:none;stroke-opacity:1;visibility:visible"/><path d="m284.709 1005.174-14.962-5.02" style="fill:none;stroke:red;stroke-width:.666665;stroke-linecap:round;stroke-linejoin:round;stroke-miterlimit:4;stroke-dasharray:none;stroke-opacity:1;visibility:visible"/><path d="m200.124 652.85-4.57-17.305" style="fill:none;stroke:#00ff4a;stroke-width:.999997;stroke-linecap:round;stroke-linejoin:round;stroke-miterlimit:4;stroke-dasharray:none;stroke-opacity:1;visibility:visible"/></svg>