<svg xmlns="http://www.w3.org/2000/svg" baseProfile="full" height="1122.52" preserveAspectRatio="xMinYMin meet" style="width:765px;height:943px" width="793.701" xml:space="preserve"><path d="m474.572 663.716.003.476M590.54 697.706l.003-.12" style="fill:none;stroke:red;stroke-width:.999997;stroke-linecap:round;stroke-linejoin:round;stroke-miterlimit:4;stroke-dasharray:none;stroke-opacity:1;visibility:visible"/><path d="m603.725 894.069-14.213 7.409M468.322 990.584l151.933-81.894M359.816 922.48l-.552.252M374.324 938.254l1.024-.482M374.652 937.383l76.53 42.573M348.952 703.328l10.88 219.48M475.072 664.037l-106.164 33.487" style="fill:none;stroke:red;stroke-width:1.99999;stroke-linecap:round;stroke-linejoin:round;stroke-miterlimit:4;stroke-dasharray:none;stroke-opacity:1;visibility:visible"/><path d="m474.79 663.55-.09.034-.07.041-.043.045-.015.043.013.044.04.043.063.04.089.037M578.564 697.388l-103.787-33.51M584.785 699.396c.36.11.743.11 1.105 0M590.353 697.756l-4.463 1.64M590.353 697.756l.087-.042.064-.046.035-.048.001-.052-.025-.052-.052-.052-.083-.047-.103-.041M462.252 967.792l-10.984 5.722" style="fill:none;stroke:red;stroke-width:.999997;stroke-linecap:round;stroke-linejoin:round;stroke-miterlimit:4;stroke-dasharray:none;stroke-opacity:1;visibility:visible"/><path d="m480.296 662.138 104.097 33.354M480.296 662.138a1.961 1.961 0 0 0-1.024 0M474.79 663.55l4.483-1.414" style="fill:none;stroke:red;stroke-width:1.99999;stroke-linecap:round;stroke-linejoin:round;stroke-miterlimit:4;stroke-dasharray:none;stroke-opacity:1;visibility:visible"/><path d="m568.92 692.398-.281.148-.112.178.076.176.252.171.4.126.499.076.536.017.51-.048.426-.104.279-.148.11-.174-.075-.186-.256-.16-.397-.13-.498-.078-.534-.014-.511.044-.424.106M497.416 669.398l-.292.136-.127.16.044.162.22.149.359.12.465.068.511.015.495-.044.416-.096.29-.136.126-.156-.043-.167-.22-.145-.364-.118-.461-.07-.51-.014-.492.04-.417.096M578.977 697.388l5.684-1.782" style="fill:none;stroke:red;stroke-width:.999997;stroke-linecap:round;stroke-linejoin:round;stroke-miterlimit:4;stroke-dasharray:none;stroke-opacity:1;visibility:visible"/><path d="M591.455 697.756a1.89 1.89 0 0 0-1.102 0" style="fill:none;stroke:red;stroke-width:1.99999;stroke-linecap:round;stroke-linejoin:round;stroke-miterlimit:4;stroke-dasharray:none;stroke-opacity:1;visibility:visible"/><path d="m391.702 707.434-.024-.33M475.285 664.04a.343.343 0 0 0-.213-.003M403.246 688.245l-.418-.104-.504-.041-.529.014-.497.076-.399.123-.255.164-.081.175.104.177.279.145.417.102.503.046.533-.016.495-.074.401-.128.253-.159.08-.18-.106-.172-.276-.148M450.695 673.23l-.412-.095-.495-.045-.512.016-.472.068-.374.12-.232.151-.06.167.117.164.284.136.41.096.496.044.515-.014.472-.068.375-.12.232-.154.06-.167-.12-.164-.284-.135M391.291 692.028l-.47-.123-.559-.068-.612-.007-.604.05-.542.112-.432.156-.284.192-.114.206.07.204.247.184.401.146.524.1.594.036.614-.019.579-.084.495-.137.364-.178.198-.2.02-.208-.16-.196-.329-.166M462.45 669.51l-.462-.112-.55-.062-.579-.006-.567.047-.504.103-.39.142-.246.172-.08.188.096.188.263.166.404.13.513.094.57.032.585-.022.539-.076.453-.122.319-.162.164-.18-.01-.19-.18-.179-.338-.15M402.083 894.227l-.085-.647-.21-.563-.32-.451-.418-.316-.498-.163-.55-.01-.583.15-.584.3-.557.438-.51.554-.43.646-.336.7-.226.735-.102.726.024.684.15.611.268.508.374.381.462.241.53.086.57-.077.583-.226.573-.372M402.04 894.934l.042-.705M395.906 709.013l-.094-.752-.226-.675-.344-.562-.452-.428-.532-.271-.598-.093-.62.076-.626.246-.602.407-.545.547-.46.664-.36.748-.239.796-.108.81.024.782.164.716.29.622.404.495.494.345.57.184.612.009.628-.169.614-.33.571-.48.505-.609.411-.705.3-.774.177-.802.042-.797M466.54 685.805l-.068-.724-.186-.65-.3-.548-.396-.419-.476-.266-.535-.104-.565.06-.57.227-.55.383-.501.516-.431.631-.34.712-.238.761-.112.773.008.755.13.693.248.601.352.482.44.341.506.183.554.02.569-.148.563-.307.526-.45.468-.581.385-.667.291-.743.174-.766.054-.765M461.226 877.311l-45.803 21.01M406.01 902.64l-12.812 5.876M386.212 911.72l-3.564 1.638M480.496 738.198l-.29-72.104M382.647 913.355l-.093-.052M373.567 699.268l-4.547-1.7M382.671 917.418a.17.17 0 0 0 .05-.024M373.923 699.888a.81.81 0 0 0-.195-.5M480.207 666.094a.615.615 0 0 0-.342-.576M588.739 918.071a.287.287 0 0 0 .177-.224M462.379 979.316a.377.377 0 0 0 .221.292M467.335 982.216a1.287 1.287 0 0 0 1.114 0" style="fill:none;stroke:red;stroke-width:.999997;stroke-linecap:round;stroke-linejoin:round;stroke-miterlimit:4;stroke-dasharray:none;stroke-opacity:1;visibility:visible"/><path d="M390.136 711.241a5.024 5.024 0 0 0 1.566-3.807" style="fill:none;stroke:red;stroke-width:.999997;stroke-linecap:round;stroke-linejoin:round;stroke-miterlimit:4;stroke-dasharray:none;stroke-opacity:1;visibility:visible"/><path d="m491.679 948.14-.094-.754-.225-.674-.345-.562-.45-.428-.535-.27-.594-.095-.624.077-.625.246-.602.407-.545.547-.46.664-.36.748-.239.796-.109.81.028.782.161.716.29.622.404.495.497.345.568.183.61.01.629-.168.614-.331.574-.479.502-.61.411-.705.303-.774.174-.802.043-.796" style="fill:none;stroke:red;stroke-width:.666665;stroke-linecap:round;stroke-linejoin:round;stroke-miterlimit:4;stroke-dasharray:1.33333;stroke-dashoffset:0;stroke-opacity:1;visibility:visible"/><path d="m382.72 917.394 7.108-3.279M400.59 909.15l9.7-4.475M422.419 899.08l38.85-17.926M461.335 687.425a5.16 5.16 0 0 0 .984-3.06" style="fill:none;stroke:red;stroke-width:.999997;stroke-linecap:round;stroke-linejoin:round;stroke-miterlimit:4;stroke-dasharray:none;stroke-opacity:1;visibility:visible"/><path d="M368.515 697.374a1.926 1.926 0 0 0-1.099 0" style="fill:none;stroke:red;stroke-width:1.99999;stroke-linecap:round;stroke-linejoin:round;stroke-miterlimit:4;stroke-dasharray:none;stroke-opacity:1;visibility:visible"/><path d="m354.168 705.43-5.036-1.942M354.168 705.43c.364.112.755.112 1.12 0M373.476 699.651l-18.19 5.779M373.475 699.652l.107-.042.084-.044.057-.053.028-.052-.005-.051-.03-.053-.061-.047-.09-.04" style="fill:none;stroke:red;stroke-width:.999997;stroke-linecap:round;stroke-linejoin:round;stroke-miterlimit:4;stroke-dasharray:none;stroke-opacity:1;visibility:visible"/><path d="m349.242 703.101 18.174-5.727M349.242 703.101l-.11.044-.085.041-.06.054-.032.056v.053l.032.052.06.047.085.038" style="fill:none;stroke:red;stroke-width:1.99999;stroke-linecap:round;stroke-linejoin:round;stroke-miterlimit:4;stroke-dasharray:none;stroke-opacity:1;visibility:visible"/><path d="m368.22 714.516-.64.294-.605.456-.541.588-.448.703-.336.773-.21.82-.073.816.073.776.207.706.333.598.451.467.537.308.602.135.642-.039.648-.216.623-.379.573-.522.495-.651.393-.737.274-.798.141-.817.001-.803-.137-.744-.268-.653-.39-.54-.495-.39-.574-.227-.625-.052-.65.128M376.327 902.765l-.596.344-.565.48-.503.594-.42.669-.312.728-.197.745-.068.725.064.676.191.593.312.482.411.346.5.203.563.043.593-.12.603-.276.58-.415.535-.533.46-.636M379.236 904.534l-.125-.639-.25-.541-.361-.419-.457-.278-.53-.127-.583.037-.603.196M382.426 917.9l-16.7 7.71M364.695 925.61a1.252 1.252 0 0 0 1.03 0M357.155 702.008l-.357.156-.19.182-.005.188.185.171.352.136.471.081.541.015.542-.047.476-.109.357-.153.188-.186.005-.186-.185-.172-.352-.136-.47-.079-.543-.015-.539.047-.476.107M363.28 699.838l-.417.178-.256.197-.079.217.106.21.285.178.433.144.552.084.612.024.624-.038.576-.106.48-.15.34-.187.17-.212-.016-.216-.2-.195-.362-.16-.497-.114-.587-.056-.624.008-.608.072-.532.122" style="fill:none;stroke:red;stroke-width:.999997;stroke-linecap:round;stroke-linejoin:round;stroke-miterlimit:4;stroke-dasharray:none;stroke-opacity:1;visibility:visible"/><path d="M359.832 922.808a.27.27 0 0 0 .17.215" style="fill:none;stroke:red;stroke-width:1.99999;stroke-linecap:round;stroke-linejoin:round;stroke-miterlimit:4;stroke-dasharray:none;stroke-opacity:1;visibility:visible"/><path d="m405.706 927.084.588.248.69.18.758.095.788.013.791-.074.744-.162.669-.229.562-.3.431-.35.273-.376.11-.397-.066-.392-.229-.37-.388-.335-.527-.28-.64-.215-.726-.137-.774-.052-.789.032-.768.118-.71.193-.621.264-.498.324-.356.361-.198.39-.026.397.144.385.309.36.459.31M462.079 952.647l-.245.021-.788.124-.724.215-.623.28-.495.353-.344.39-.172.423.003.431.179.42.349.383.503.337M459.723 956.024a5.827 5.827 0 0 0 2.401.58M374.746 930.58l20.916-9.779M410.403 913.911l6.748-3.154M427.69 905.829l33.682-15.749M374.21 931.48l.245 5.522M451.179 979.67l-.089-5.752M374.746 930.58a1 1 0 0 0-.536.9M382.426 917.9a.343.343 0 0 0 .252-.288M365.452 718.865a5.148 5.148 0 0 0 1.232-3.161" style="fill:none;stroke:red;stroke-width:.999997;stroke-linecap:round;stroke-linejoin:round;stroke-miterlimit:4;stroke-dasharray:none;stroke-opacity:1;visibility:visible"/><path d="m359.532 922.764-.088-.038-.086-.014-.078.018-.068.037-.054.065-.038.083-.02.107-.002.117M359.098 923.14l.314 6.315M359.412 929.456a1.148 1.148 0 0 0 .498.891M374.455 937a.437.437 0 0 0 .197.383" style="fill:none;stroke:red;stroke-width:1.99999;stroke-linecap:round;stroke-linejoin:round;stroke-miterlimit:4;stroke-dasharray:none;stroke-opacity:1;visibility:visible"/><path d="m374.492 937.85-.28-6.37M374.21 931.48a1.156 1.156 0 0 0-.508-.9M373.702 930.58l-14.17-7.817" style="fill:none;stroke:red;stroke-width:.999997;stroke-linecap:round;stroke-linejoin:round;stroke-miterlimit:4;stroke-dasharray:none;stroke-opacity:1;visibility:visible"/><path d="M620.756 902.131a.952.952 0 0 0-.514-.861M359.911 930.347l14.133 7.875M374.043 938.222l.09.038.091.014.079-.014.068-.038.055-.066.038-.082.024-.104.003-.12" style="fill:none;stroke:red;stroke-width:1.99999;stroke-linecap:round;stroke-linejoin:round;stroke-miterlimit:4;stroke-dasharray:none;stroke-opacity:1;visibility:visible"/><path d="M468.439 983.494a1.212 1.212 0 0 0-.559-.976" style="fill:none;stroke:red;stroke-width:.999997;stroke-linecap:round;stroke-linejoin:round;stroke-miterlimit:4;stroke-dasharray:none;stroke-opacity:1;visibility:visible"/><path d="M451.19 980.55a1.204 1.204 0 0 0 .546.96" style="fill:none;stroke:red;stroke-width:1.99999;stroke-linecap:round;stroke-linejoin:round;stroke-miterlimit:4;stroke-dasharray:none;stroke-opacity:1;visibility:visible"/><path d="m468.499 990.183-.06-6.69M467.882 982.516l-16.268-8.972M451.612 973.544l-.104-.041-.098-.021-.092.013-.08.033-.066.068-.05.088-.025.108-.009.124M451.09 973.918l.1 6.632" style="fill:none;stroke:red;stroke-width:.999997;stroke-linecap:round;stroke-linejoin:round;stroke-miterlimit:4;stroke-dasharray:none;stroke-opacity:1;visibility:visible"/><path d="M604.082 894.074a.4.4 0 0 0-.357-.005M620.256 908.689a.415.415 0 0 0 .202-.379M620.244 901.269l-16.162-7.195M620.46 908.311l.297-6.18M451.736 981.511l16.221 9.036M467.957 990.547l.108.047.1.021.095-.008.083-.041.065-.06.05-.087.029-.11.011-.125" style="fill:none;stroke:red;stroke-width:1.99999;stroke-linecap:round;stroke-linejoin:round;stroke-miterlimit:4;stroke-dasharray:none;stroke-opacity:1;visibility:visible"/><path d="m374.746 930.58 76.898 42.375M382.759 917.567l-.275-6.733M382.199 903.858l-8.31-203.842M355.288 705.43l10.438 220.181M480.207 666.094 373.923 699.89M584.77 699.808l.014-.412" style="fill:none;stroke:red;stroke-width:.999997;stroke-linecap:round;stroke-linejoin:round;stroke-miterlimit:4;stroke-dasharray:none;stroke-opacity:1;visibility:visible"/><path d="m359.826 922.631-.292.134M374.492 937.85l.542-.255" style="fill:none;stroke:red;stroke-width:1.99999;stroke-linecap:round;stroke-linejoin:round;stroke-miterlimit:4;stroke-dasharray:none;stroke-opacity:1;visibility:visible"/><path d="m407.163 925.254 2.523 1.256M407.172 926.528l2.503-1.292" style="fill:none;stroke:red;stroke-width:.666665;stroke-linecap:round;stroke-linejoin:round;stroke-miterlimit:4;stroke-dasharray:none;stroke-opacity:1;visibility:visible"/><path d="M578.527 697.646v3.652" style="fill:none;stroke:red;stroke-width:.999997;stroke-linecap:round;stroke-linejoin:round;stroke-miterlimit:4;stroke-dasharray:none;stroke-opacity:1;visibility:visible"/><path d="M584.785 695.701v3.153" style="fill:none;stroke:red;stroke-width:1.99999;stroke-linecap:round;stroke-linejoin:round;stroke-miterlimit:4;stroke-dasharray:none;stroke-opacity:1;visibility:visible"/><path d="m585.416 700.418 6.039-2.662-6.123 205.913-5.027-1.612 5.111-201.639" style="fill:none;fill-opacity:1;fill-rule:nonzero;stroke:red;stroke-width:1.33333;visibility:visible"/><path d="m591.025 698.798-.035 1.334" style="fill:none;stroke:red;stroke-width:.666665;stroke-linecap:round;stroke-linejoin:round;stroke-miterlimit:4;stroke-dasharray:none;stroke-opacity:1;visibility:visible"/><path d="m590.915 702.828-5.508 198.16" style="fill:none;stroke:red;stroke-width:.666665;stroke-linecap:round;stroke-linejoin:round;stroke-miterlimit:4;stroke-dasharray:2.69733,2.69733;stroke-dashoffset:0;stroke-opacity:1;visibility:visible"/><path d="m585.193 701.298-.032 1.334M585.368 902.334l-.036 1.333" style="fill:none;stroke:red;stroke-width:.666665;stroke-linecap:round;stroke-linejoin:round;stroke-miterlimit:4;stroke-dasharray:none;stroke-opacity:1;visibility:visible"/><path d="m585.096 705.272-4.727 194.131" style="fill:none;stroke:red;stroke-width:.666665;stroke-linecap:round;stroke-linejoin:round;stroke-miterlimit:4;stroke-dasharray:2.64266,2.64266;stroke-dashoffset:0;stroke-opacity:1;visibility:visible"/><path d="m584.063 903.26 1.269.408M580.305 902.057l1.27.406M580.337 900.723l-.032 1.334" style="fill:none;stroke:red;stroke-width:.666665;stroke-linecap:round;stroke-linejoin:round;stroke-miterlimit:4;stroke-dasharray:none;stroke-opacity:1;visibility:visible"/><path d="m585.416 700.418-16.496-8.02M584.661 695.606l-15.741-3.208M480.207 666.094l17.209 3.304M474.777 663.878l-12.327 5.632M474.777 663.877l-12.327 5.634M391.678 707.104l4.228 1.909M410.29 904.675l5.133-6.354M400.59 909.15l5.42-6.51M389.828 914.115l3.37-5.599M382.72 917.394l3.492-5.674M467.335 982.216l-4.735-2.608M393.198 908.516l-3.37 5.599M406.01 902.64l-5.42 6.51M415.423 898.321l-5.133 6.354M417.151 910.757l5.268-11.677M373.475 699.652l-5.255 14.864M360.002 923.023l4.693 2.587M373.475 699.652l-16.32 2.356M355.288 705.43l1.867-3.422M373.475 699.652l-10.195.186M367.416 697.374l-4.136 2.464M409.686 926.51l-3.98.574M393.198 908.516l2.464 12.285M410.29 904.675l.113 9.236M427.69 905.829l-10.539 4.928M417.151 910.757l10.539-4.928M373.923 699.888l-7.239 15.816M382.199 903.858l.285 6.976M382.484 910.834l-.285-6.976" style="fill:none;stroke:red;stroke-width:.999997;stroke-linecap:round;stroke-linejoin:round;stroke-miterlimit:4;stroke-dasharray:none;stroke-opacity:1;visibility:visible"/><path d="m405.706 927.084 3.98-.574M395.662 920.801l11.51 5.727M410.403 913.911l-.728 11.325" style="fill:none;stroke:red;stroke-width:.666665;stroke-linecap:round;stroke-linejoin:round;stroke-miterlimit:4;stroke-dasharray:none;stroke-opacity:1;visibility:visible"/><path d="m584.784 699.396-6.257 1.902" style="fill:none;stroke:red;stroke-width:.999997;stroke-linecap:round;stroke-linejoin:round;stroke-miterlimit:4;stroke-dasharray:none;stroke-opacity:1;visibility:visible"/><path d="m590.54 697.706.485 1.092M590.543 697.586l.447 2.546" style="fill:none;stroke:red;stroke-width:.666665;stroke-linecap:round;stroke-linejoin:round;stroke-miterlimit:4;stroke-dasharray:none;stroke-opacity:1;visibility:visible"/><path d="m590.99 700.132-.075 2.696M585.368 902.334l.039-1.346" style="fill:none;stroke:red;stroke-width:.666665;stroke-linecap:round;stroke-linejoin:round;stroke-miterlimit:4;stroke-dasharray:2.69733,2.69733;stroke-dashoffset:0;stroke-opacity:1;visibility:visible"/><path d="m585.416 700.418-.255 2.214M585.407 900.988l-.039 1.346" style="fill:none;stroke:red;stroke-width:.666665;stroke-linecap:round;stroke-linejoin:round;stroke-miterlimit:4;stroke-dasharray:none;stroke-opacity:1;visibility:visible"/><path d="m585.161 702.632-.065 2.64M580.337 900.723l.032-1.32" style="fill:none;stroke:red;stroke-width:.666665;stroke-linecap:round;stroke-linejoin:round;stroke-miterlimit:4;stroke-dasharray:2.64266,2.64266;stroke-dashoffset:0;stroke-opacity:1;visibility:visible"/><path d="m581.575 902.463 2.488.797M584.063 903.26l-2.488-.797M580.369 899.403l-.032 1.32" style="fill:none;stroke:red;stroke-width:.666665;stroke-linecap:round;stroke-linejoin:round;stroke-miterlimit:4;stroke-dasharray:none;stroke-opacity:1;visibility:visible"/><path d="m588.916 917.847 7.937-218.235M459.742 745.977l2.638 233.34M596.66 699.776l.09-.039.064-.045.034-.052.002-.052-.026-.052-.055-.052-.082-.047-.108-.041" style="fill:none;stroke:#00ff4a;stroke-width:1.99999;stroke-linecap:round;stroke-linejoin:round;stroke-miterlimit:4;stroke-dasharray:none;stroke-opacity:1;visibility:visible"/><path d="m465.13 748.182-5.152-1.984M465.13 748.182c.396.134.82.134 1.216 0M466.346 748.182l130.314-48.406" style="fill:none;stroke:#00ff4a;stroke-width:.999997;stroke-linecap:round;stroke-linejoin:round;stroke-miterlimit:4;stroke-dasharray:none;stroke-opacity:1;visibility:visible"/><path d="m460.004 745.741 130.35-47.985M460.004 745.742l-.11.048-.082.056-.052.06-.018.064.011.064.047.06.074.056.104.049M596.579 699.396l-5.126-1.64" style="fill:none;stroke:#00ff4a;stroke-width:1.99999;stroke-linecap:round;stroke-linejoin:round;stroke-miterlimit:4;stroke-dasharray:none;stroke-opacity:1;visibility:visible"/><path d="m493.265 735.83.48.123.561.057.584-.02.526-.091.415-.154.241-.193.05-.216-.15-.208-.337-.175-.476-.123-.566-.057-.577.021-.53.091-.41.15-.246.198-.05.209.15.214.335.174M565.387 709.161l.472.112.54.047.551-.016.49-.084.368-.135.21-.176.016-.196-.169-.188-.342-.159-.47-.106-.541-.052-.55.016-.486.082-.373.136-.208.178-.022.194.172.188.342.159M480.087 740.704l.538.145.636.087.672.01.654-.068.573-.13.443-.192.273-.232.08-.248-.121-.244-.315-.224-.469-.178-.592-.114-.662-.047-.669.025-.617.103-.512.161-.363.214-.18.241.019.25.215.239.397.202M576.353 705.108l.528.128.609.069.63.008.595-.055.513-.114.38-.17.217-.197.03-.216-.155-.216-.325-.19-.472-.158-.571-.103-.624-.038-.62.022-.56.09-.45.142-.307.186-.123.21.06.219.241.203.404.18M466.346 748.182l2.103 234.034M467.882 982.516l152.36-81.246" style="fill:none;stroke:#00ff4a;stroke-width:.999997;stroke-linecap:round;stroke-linejoin:round;stroke-miterlimit:4;stroke-dasharray:none;stroke-opacity:1;visibility:visible"/><path d="m596.66 699.776-6.306-2.02" style="fill:none;stroke:#00ff4a;stroke-width:1.99999;stroke-linecap:round;stroke-linejoin:round;stroke-miterlimit:4;stroke-dasharray:none;stroke-opacity:1;visibility:visible"/><path d="m467.882 982.516-5.63-14.724M395.906 709.013l-4.615-16.985M466.346 748.182l14.15-9.984M382.72 917.394l-4.242-9.981M393.198 908.516l-13.962-3.982" style="fill:none;stroke:red;stroke-width:.999997;stroke-linecap:round;stroke-linejoin:round;stroke-miterlimit:4;stroke-dasharray:none;stroke-opacity:1;visibility:visible"/><path d="m407.172 926.528-.009-1.274" style="fill:none;stroke:red;stroke-width:.666665;stroke-linecap:round;stroke-linejoin:round;stroke-miterlimit:4;stroke-dasharray:none;stroke-opacity:1;visibility:visible"/><path d="m578.564 697.388-13.177 11.773M568.92 692.398l-3.533 16.763M578.564 697.388l-2.211 7.72M568.92 692.398l7.433 12.71" style="fill:none;stroke:#00ff4a;stroke-width:.999997;stroke-linecap:round;stroke-linejoin:round;stroke-miterlimit:4;stroke-dasharray:none;stroke-opacity:1;visibility:visible"/></svg>