<svg xmlns="http://www.w3.org/2000/svg" baseProfile="full" height="1122.52" preserveAspectRatio="xMinYMin meet" style="width:765px;height:943px" width="793.701" xml:space="preserve"><path d="m343.946 455.375 180.1-78.142M503.821 362.551 393.88 325.678" style="fill:none;stroke:red;stroke-width:1.99999;stroke-linecap:round;stroke-linejoin:round;stroke-miterlimit:4;stroke-dasharray:none;stroke-opacity:1;visibility:visible"/><path d="m505.039 362.043-180.87 75.361M323.889 438.78l.036 7.298" style="fill:none;stroke:red;stroke-width:.999997;stroke-linecap:round;stroke-linejoin:round;stroke-miterlimit:4;stroke-dasharray:none;stroke-opacity:1;visibility:visible"/><path d="m213.002 391.57.29 6.87M213.606 390.572a1.05 1.05 0 0 0-.603.998" style="fill:none;stroke:red;stroke-width:1.99999;stroke-linecap:round;stroke-linejoin:round;stroke-miterlimit:4;stroke-dasharray:none;stroke-opacity:1;visibility:visible"/><path d="m292.797 428.982-.083-.576-.215-.57-.324-.493-.395-.359-.417-.18-.39.024-.313.222-.2.39-.066.514.083.574.213.568.328.492.395.358.414.178.39-.02.316-.218.2-.39.065-.515M243.203 407.748l-.083-.56-.21-.552-.31-.473-.374-.339-.386-.169-.363.028-.287.219-.18.385-.05.5.086.56.211.55.308.476.37.339.39.168.36-.028.29-.218.179-.384.048-.502M306.149 434.695l-.08-.664-.22-.664-.336-.612-.424-.497-.475-.344-.485-.159-.45.039-.373.234-.267.415-.137.547.008.637.153.67.278.643.382.56.454.427.488.255.469.06.416-.135.327-.327.203-.486.069-.599M231.687 402.82l-.087-.638-.209-.631-.314-.579-.395-.468-.43-.32-.436-.139-.401.051-.328.234-.229.4-.104.531.017.614.154.639.264.612.357.53.415.397.438.233.423.046.37-.144.279-.32.175-.47.041-.579" style="fill:none;stroke:red;stroke-width:.999997;stroke-linecap:round;stroke-linejoin:round;stroke-miterlimit:4;stroke-dasharray:none;stroke-opacity:1;visibility:visible"/><path d="M245.271 379.382a2.096 2.096 0 0 0 2.16-.995M244.986 379.266l-13.983 5.041M228.758 385.307a2.137 2.137 0 0 0 2.247-1M323.965 446.367l-110.539-47.615M213.293 398.44a.407.407 0 0 0 .134.31M228.511 385.206l-14.906 5.366M524.813 369.302a.968.968 0 0 0-.59-.956M393.879 325.68a.316.316 0 0 0-.227.01M393.652 325.689l-12.036 4.337M380.075 330.94a1.895 1.895 0 0 0 1.541-.913M379.566 330.765 367.816 335M366.22 335.923a1.924 1.924 0 0 0 1.596-.922M365.724 335.754l-11.966 4.31M352.102 341.002a1.957 1.957 0 0 0 1.657-.937M351.627 340.834l-12.195 4.395M337.715 346.177a1.992 1.992 0 0 0 1.719-.948M337.262 346.013l-12.43 4.476M323.051 351.447a2.01 2.01 0 0 0 1.782-.957M322.618 351.289l-12.67 4.565M308.1 356.82a2.04 2.04 0 0 0 1.85-.968M307.693 356.669l-12.918 4.653M292.855 362.295a2.076 2.076 0 0 0 1.92-.973M292.475 362.151l-13.169 4.749M277.31 367.88a2.11 2.11 0 0 0 1.996-.983M276.96 367.745l-13.435 4.84M261.447 373.575a2.157 2.157 0 0 0 2.078-.99M261.133 373.447l-13.703 4.94" style="fill:none;stroke:red;stroke-width:1.99999;stroke-linecap:round;stroke-linejoin:round;stroke-miterlimit:4;stroke-dasharray:none;stroke-opacity:1;visibility:visible"/><path d="m343.586 455.359.124.039.122.005.111-.025.099-.06.078-.09.06-.117.035-.137.013-.154M344.246 446.624a1.239 1.239 0 0 0-.646-1.096" style="fill:none;stroke:red;stroke-width:.999997;stroke-linecap:round;stroke-linejoin:round;stroke-miterlimit:4;stroke-dasharray:none;stroke-opacity:1;visibility:visible"/><path d="m324.555 447.155 19.03 8.203" style="fill:none;stroke:red;stroke-width:1.99999;stroke-linecap:round;stroke-linejoin:round;stroke-miterlimit:4;stroke-dasharray:none;stroke-opacity:1;visibility:visible"/><path d="m337.4 449.434.434.088.386-.116.284-.316.151-.466v-.568l-.15-.598-.287-.558-.383-.448-.435-.286-.44-.09-.38.124-.285.312-.153.468.001.566.152.598.285.558.382.445.437.287M330.629 447.07l.496.117.453-.087.367-.28.252-.453.109-.581-.039-.664-.185-.683-.316-.637-.417-.544-.48-.396-.503-.216-.481-.014-.415.188-.313.372-.178.523-.036.628.112.68.255.667.368.596.452.477.5.307M344.228 454.82l.018-8.194M343.6 445.528l-19.094-8.106M324.507 437.422l-.122-.039-.118-.003-.107.028-.094.06-.079.092-.057.114-.036.138-.01.154M323.885 437.966l.04 8.112M323.925 446.078a1.233 1.233 0 0 0 .632 1.078" style="fill:none;stroke:red;stroke-width:.999997;stroke-linecap:round;stroke-linejoin:round;stroke-miterlimit:4;stroke-dasharray:none;stroke-opacity:1;visibility:visible"/><path d="M505.385 362.04a.5.5 0 0 0-.345.004M524.045 377.231a.573.573 0 0 0 .315-.518M524.223 368.346l-18.839-6.307M524.361 376.713l.454-7.413" style="fill:none;stroke:red;stroke-width:1.99999;stroke-linecap:round;stroke-linejoin:round;stroke-miterlimit:4;stroke-dasharray:none;stroke-opacity:1;visibility:visible"/><path d="m213.606 390.572 110.436 46.923" style="fill:none;stroke:red;stroke-width:.999997;stroke-linecap:round;stroke-linejoin:round;stroke-miterlimit:4;stroke-dasharray:none;stroke-opacity:1;visibility:visible"/><path d="M503.701 362.602 393.652 325.69" style="fill:none;stroke:red;stroke-width:1.99999;stroke-linecap:round;stroke-linejoin:round;stroke-miterlimit:4;stroke-dasharray:none;stroke-opacity:1;visibility:visible"/><path d="m343.6 445.528 180.62-77.182" style="fill:none;stroke:red;stroke-width:.999997;stroke-linecap:round;stroke-linejoin:round;stroke-miterlimit:4;stroke-dasharray:none;stroke-opacity:1;visibility:visible"/><path d="m381.616 330.026 110.168 37.541M379.566 330.765l110.184 37.652M367.818 335l110.287 38.27M365.724 335.754l110.306 38.379M353.76 340.066l110.387 39.017M351.627 340.834l110.403 39.13M339.434 345.229l110.474 39.784M337.262 346.013l110.488 39.904M324.833 350.489l110.545 40.58M322.618 351.289l110.552 40.7M309.949 355.854l110.591 41.398M307.693 356.669l110.597 41.518M294.777 361.322l110.62 42.24M292.475 362.151l110.62 42.37M279.306 366.898l110.622 43.106M276.96 367.745l110.621 43.24M263.525 372.586l110.605 44.002M261.133 373.447l110.597 44.14M247.43 378.389l110.561 44.923M244.986 379.266l110.553 45.068M231.003 384.307l110.492 45.877M228.511 385.206l110.477 46.024" style="fill:none;stroke:red;stroke-width:.666665;stroke-linecap:round;stroke-linejoin:round;stroke-miterlimit:4;stroke-dasharray:none;stroke-opacity:1;visibility:visible"/><path d="m323.884 437.966-17.735-3.271M343.6 445.528l-6.201 3.906M324.507 437.422l6.122 9.648M343.6 445.528l-12.97 1.542" style="fill:none;stroke:red;stroke-width:.999997;stroke-linecap:round;stroke-linejoin:round;stroke-miterlimit:4;stroke-dasharray:none;stroke-opacity:1;visibility:visible"/><path d="m505.384 362.039-13.6 5.528M505.384 362.039l-15.634 6.378M324.506 437.422l16.989-7.238M324.506 437.422l14.482-6.192" style="fill:none;stroke:red;stroke-width:.666665;stroke-linecap:round;stroke-linejoin:round;stroke-miterlimit:4;stroke-dasharray:none;stroke-opacity:1;visibility:visible"/><path d="M167.64 510.838 322.3 445.65M334.98 305.066l-180.63 60.167M340.075 307.38a.897.897 0 0 0-.505-.848" style="fill:none;stroke:#00ff4a;stroke-width:1.99999;stroke-linecap:round;stroke-linejoin:round;stroke-miterlimit:4;stroke-dasharray:none;stroke-opacity:1;visibility:visible"/><path d="m167.388 510.81.09.036.088.008.079-.018.067-.048.054-.07.036-.09.02-.113.003-.125M167.826 510.39l-8.413-142.361M159.413 368.029a1.147 1.147 0 0 0-.541-.954" style="fill:none;stroke:#00ff4a;stroke-width:.999997;stroke-linecap:round;stroke-linejoin:round;stroke-miterlimit:4;stroke-dasharray:none;stroke-opacity:1;visibility:visible"/><path d="m154.116 365.775 8.628 141.93M162.744 507.704a1.185 1.185 0 0 0 .516.924M163.26 508.628l4.129 2.18" style="fill:none;stroke:#00ff4a;stroke-width:1.99999;stroke-linecap:round;stroke-linejoin:round;stroke-miterlimit:4;stroke-dasharray:none;stroke-opacity:1;visibility:visible"/><path d="m154.566 365.247-.094-.026h-.092l-.08.037-.071.057-.055.088-.037.107-.02.125-.001.14" style="fill:none;stroke:#00ff4a;stroke-width:1.33333;stroke-linecap:round;stroke-linejoin:round;stroke-miterlimit:4;stroke-dasharray:none;stroke-opacity:1;visibility:visible"/><path d="m164.142 490.078.324.085.274-.088.193-.252.087-.388-.031-.475-.139-.502-.236-.474-.302-.384-.332-.251-.323-.087-.275.088-.192.256-.086.386.028.474.14.502.235.474.305.385.33.25M158.634 398.176l.33.066.283-.12.197-.29.089-.42-.03-.507-.145-.526-.244-.484-.313-.385-.341-.238-.331-.065-.283.123-.196.286-.088.424.03.503.147.527.242.484.309.382.345.24M158.872 367.075l-4.306-1.828" style="fill:none;stroke:#00ff4a;stroke-width:.999997;stroke-linecap:round;stroke-linejoin:round;stroke-miterlimit:4;stroke-dasharray:none;stroke-opacity:1;visibility:visible"/><path d="M335.206 305.071a.353.353 0 0 0-.226-.006M339.57 306.533l-4.364-1.463M340.06 345.002l.015-37.623" style="fill:none;stroke:#00ff4a;stroke-width:1.99999;stroke-linecap:round;stroke-linejoin:round;stroke-miterlimit:4;stroke-dasharray:none;stroke-opacity:1;visibility:visible"/><path d="m340.075 307.38-180.662 60.648" style="fill:none;stroke:#00ff4a;stroke-width:.999997;stroke-linecap:round;stroke-linejoin:round;stroke-miterlimit:4;stroke-dasharray:none;stroke-opacity:1;visibility:visible"/><path d="m324.169 437.404-1.869 8.246" style="fill:none;stroke:#00ff4a;stroke-width:1.99999;stroke-linecap:round;stroke-linejoin:round;stroke-miterlimit:4;stroke-dasharray:none;stroke-opacity:1;visibility:visible"/></svg>