<svg xmlns="http://www.w3.org/2000/svg" baseProfile="full" height="1122.52" preserveAspectRatio="xMinYMin meet" style="width:914px;height:841px" width="793.701" xml:space="preserve"><path d="M586.924 443.02 250.14 533.624M586.924 443.02l.416-10.872" style="fill:none;stroke:red;stroke-width:1.99999;stroke-linecap:round;stroke-linejoin:round;stroke-miterlimit:4;stroke-dasharray:none;stroke-opacity:1;visibility:visible" visibility="hidden"/><path d="m213.895 504.715-69.498-42.717M587.344 432.148l-337.62 89.572" style="fill:none;stroke:red;stroke-width:.999997;stroke-linecap:round;stroke-linejoin:round;stroke-miterlimit:4;stroke-dasharray:none;stroke-opacity:1;visibility:visible" visibility="hidden"/><path d="M477.817 383.855 578.1 428.074M583.544 430.472l3.8 1.675M144.397 461.998l3.523-.842M155.193 459.416l316.316-75.598M144.856 473.231l-.459-11.233M214.12 516.39l-69.267-43.158" style="fill:none;stroke:red;stroke-width:1.99999;stroke-linecap:round;stroke-linejoin:round;stroke-miterlimit:4;stroke-dasharray:none;stroke-opacity:1;visibility:visible" visibility="hidden"/><path d="M171.722 457.164c.308.18.096.456-.474.578-.572.136-1.288.1-1.594-.09-.31-.181-.096-.442.479-.577.57-.143 1.284-.095 1.59.09l-.001-.001M174.266 461.944c.307.198.096.463-.476.598-.578.142-1.298.104-1.608-.079-.31-.205-.094-.464.479-.6.577-.145 1.296-.108 1.605.081M152.394 462.392c.307.195.083.471-.498.606-.584.134-1.307.092-1.618-.103M157.169 466.366c.308.196.083.47-.499.602-.584.136-1.306.095-1.614-.1-.308-.186-.082-.457.5-.598.582-.13 1.306-.09 1.613.096M265.99 515.576c.361.222.173.536-.421.69-.604.17-1.382.117-1.74-.106-.363-.226-.17-.536.428-.698.593-.16 1.372-.112 1.733.114M254.182 512.162c.36.216.165.524-.435.688-.597.157-1.37.109-1.726-.12-.362-.21-.163-.523.434-.678.6-.165 1.371-.114 1.727.11M580.873 431.846c-.45.114-1.14.08-1.538-.096M574.24 427.715c.39.173.34.4-.11.53-.455.118-1.14.084-1.534-.085-.391-.172-.341-.404.111-.528.45-.114 1.14-.084 1.533.083M561.103 431.538c.393.17.337.408-.12.53-.46.119-1.153.083-1.543-.088-.389-.169-.333-.413.123-.536.457-.118 1.15-.08 1.54.094M566.15 435.9c.394.171.342.42-.12.538-.461.128-1.154.092-1.552-.075-.394-.177-.341-.419.122-.543.46-.129 1.153-.089 1.55.08M483.159 387.571c.348.15.268.363-.175.472-.444.097-1.088.067-1.436-.082-.345-.151-.268-.355.173-.464.447-.107 1.09-.072 1.439.073l-.001.001M469.495 390.642c.345.148.262.355-.183.458-.454.102-1.096.073-1.445-.074-.347-.153-.262-.359.186-.469.45-.099 1.096-.068 1.442.086v-.001M459.298 388.295c.34.142.25.359-.195.465-.45.095-1.095.06-1.439-.08-.342-.158-.252-.358.196-.47.449-.1 1.09-.066 1.438.086v-.001M475.215 385.42c-.445.102-1.085.064-1.427-.092" style="fill:none;stroke:red;stroke-width:.666665;stroke-linecap:round;stroke-linejoin:round;stroke-miterlimit:4;stroke-dasharray:none;stroke-opacity:1;visibility:visible" visibility="hidden"/><path d="M153.774 461.146v-.455M148.956 460.691v.455M153.774 461.146v.027l-.001.026-.006.027-.006.027-.007.026-.008.027-.01.027-.014.026-.013.026-.018.025-.016.025-.018.026-.022.025-.02.025-.024.024-.025.027-.027.023-.026.025-.031.023-.03.024-.033.021-.033.023-.035.022-.037.022-.037.021-.039.02-.04.021-.041.02-.044.02-.043.02-.045.018-.048.017-.047.019-.048.017-.05.016-.05.016-.052.015-.052.016-.052.013-.056.015-.055.012-.056.013-.056.01-.057.013-.059.01-.057.01-.06.009-.06.01-.06.007-.061.008-.062.006-.061.006-.064.003-.059.005-.062.004-.063.004-.063.003-.064.001-.064.002h-.125l-.061-.002-.064-.001-.063-.003-.063-.004-.062-.004-.063-.005-.061-.003-.063-.006-.059-.006-.061-.008-.06-.008-.06-.009-.059-.01-.06-.009-.057-.01-.057-.012-.058-.011-.056-.013-.054-.012-.054-.015-.054-.013-.051-.016-.053-.015-.048-.016-.051-.016-.048-.017-.05-.019-.045-.017-.045-.018-.044-.02-.041-.02-.043-.02-.041-.021-.038-.02-.04-.021-.034-.022-.035-.022-.035-.023-.032-.021-.032-.024-.028-.023-.029-.025-.025-.023-.027-.027-.021-.024-.023-.025-.02-.025-.019-.026-.017-.025-.015-.025-.013-.026-.013-.026-.011-.027-.01-.027-.007-.026-.004-.027-.004-.027-.003-.026-.001-.027M148.96 460.745l-.003-.028-.001-.027.001-.026.003-.027.004-.025.005-.027.008-.027.01-.025.008-.027.014-.026.015-.026.015-.025.016-.025.018-.027.022-.025.021-.026.024-.024.024-.025.027-.024.028-.024.03-.024.03-.023.033-.022.033-.023.034-.023.038-.021.038-.02.036-.021.044-.022.041-.02.041-.02.043-.018M149.662 459.973l.045-.02.046-.017.048-.016.049-.02.05-.015.049-.017.053-.014.05-.016.055-.014.054-.014.054-.013.056-.013.058-.01.057-.013.057-.01.06-.009.059-.01.06-.008.06-.007.061-.008.058-.007.064-.006.061-.003.063-.005.062-.006.063-.001.063-.003.064-.002.06-.002h.126l.064.002.064.002.063.003.063.001.062.006.059.005.064.003.061.006.062.007.061.008.06.007.06.008.06.01.057.01.059.009.057.013.056.01.056.013.055.013.056.014.052.014.052.016.052.014.05.017.05.015.048.02.047.016.046.017.047.02.043.019.044.02.041.02.04.021.039.02.037.021.037.022.035.022.033.023.032.023.031.022.03.023.027.025.027.024.025.026.024.024.019.025.023.024.018.027.015.025.019.025.013.026.013.026.011.027.008.027.007.026.006.027.006.025.001.027v.027M150.344 460.74a1.233 1.233 0 0 0 .416.175M150.344 460.74c.148-.116.3-.216.453-.298M150.789 460.427l.008.015M151.946 460.915a1.244 1.244 0 0 0 .416-.175M151.218 460.622h.266c.153.082.46.294.46.294" style="fill:none;stroke:red;stroke-width:.666665;stroke-linecap:round;stroke-linejoin:round;stroke-miterlimit:10;stroke-dasharray:none;stroke-opacity:1;visibility:visible" visibility="hidden"/><path d="M151.218 460.622a3.496 3.496 0 0 0-.46.293M150.797 460.331l-.008.016M150.344 460.239c.148.013.3.045.453.092M152.362 460.238a2.11 2.11 0 0 0-.452.092M151.918 460.347a.047.047 0 0 0-.008-.016M151.909 460.443a.072.072 0 0 0 .01-.017M152.362 460.742a3.007 3.007 0 0 0-.452-.298M150.83 460.554h-.001M476.683 383.784v-.39M472.556 383.393v.39M476.683 383.784v.024l-.001.021-.004.023-.007.023-.005.021-.01.024-.006.024-.011.021-.012.022-.015.021-.014.024-.016.02-.018.023-.02.021-.017.021-.024.022-.02.02-.024.021-.025.02-.028.02-.028.019-.028.018-.03.02-.032.019-.032.019-.033.017-.033.017-.035.018-.04.017-.036.016-.039.016-.04.015-.041.017-.04.013-.043.015-.044.013-.044.014-.045.012-.044.013-.048.01-.048.011-.048.012-.047.01-.049.009-.05.01-.049.007-.052.01-.05.006-.051.007-.053.007-.054.004-.053.006-.053.003-.051.005-.055.002-.053.004-.053.002-.055.002h-.215l-.054-.002-.054-.002-.053-.004-.053-.002-.055-.005-.052-.003-.053-.006-.051-.004-.053-.007-.051-.007-.052-.006-.052-.01-.052-.008-.047-.009-.049-.01-.048-.009-.048-.012-.047-.01-.045-.011-.05-.013-.042-.012-.045-.014-.04-.013-.044-.015-.043-.013-.04-.017-.039-.015-.041-.016-.036-.016-.036-.017-.037-.018-.035-.017-.032-.017-.032-.019-.03-.019-.033-.02-.028-.018-.028-.019-.025-.02-.025-.02-.026-.021-.021-.02-.024-.022-.017-.021-.02-.021-.019-.023-.013-.02-.016-.024-.012-.021-.014-.022-.009-.021-.01-.024-.007-.024-.007-.021-.004-.023-.004-.023-.003-.021-.001-.024M472.56 383.439l-.003-.023-.001-.022.001-.023.003-.023.004-.022.004-.023.007-.024.008-.021.006-.023.014-.023.012-.021.012-.023.016-.022.014-.022.018-.021.02-.023.018-.02.023-.021.019-.02.028-.021.025-.02.025-.02.028-.019.028-.02.032-.019.031-.018.03-.019.034-.017.036-.019.036-.016.036-.017.037-.016M473.161 382.778l.039-.017.04-.015.04-.015.041-.014.044-.015.041-.013.046-.014.044-.012.046-.014.046-.011.045-.01.05-.013.049-.008.049-.009.048-.01.052-.009.05-.008.051-.008.051-.006.052-.006.05-.005.054-.005.055-.006.054-.002.054-.004.053-.002.053-.002.055-.002.053-.001h.107l.055.001.054.002.054.002.053.002.055.004.052.002.053.006.052.005.052.005.053.006.051.006.05.008.051.008.052.01.05.009.049.01.047.007.049.012.045.011.048.01.046.015.045.012.044.014.043.013.042.015.042.014.041.015.039.015.038.017.038.015.038.017.035.017.035.019.032.017.033.019.03.017.031.02.03.019.026.02.027.019.027.021.022.02.022.02.021.023.021.02.019.022.015.02.017.023.016.023.015.022.009.02.012.024.01.022.007.022.006.024.006.022.004.022.002.024v.022M474.126 383.165l.008.012M473.745 383.435a1.053 1.053 0 0 0 .356.15M473.745 383.435c.127-.1.255-.184.388-.255M474.132 383.086l-.008.012M473.745 383.006c.127.01.255.037.388.081" style="fill:none;stroke:red;stroke-width:.666665;stroke-linecap:round;stroke-linejoin:round;stroke-miterlimit:10;stroke-dasharray:none;stroke-opacity:1;visibility:visible" visibility="hidden"/><path d="M475.472 383.005a1.75 1.75 0 0 0-.388.08M475.092 383.098l-.008-.015M475.084 383.182l.008-.015M475.472 383.435a2.647 2.647 0 0 0-.388-.253M475.116 383.586a1.057 1.057 0 0 0 .357-.15M474.492 383.336h.228c.133.069.395.249.395.249M474.492 383.335a2.743 2.743 0 0 0-.392.25M474.161 383.276h-.001M582.307 429.993v-.39M578.18 429.602v.39M582.307 429.993v.024l-.001.021-.004.023-.007.023-.005.021-.01.024-.006.023-.011.021-.012.023-.015.021-.014.024-.016.021-.018.022-.02.021-.017.021-.024.022-.02.02-.024.021-.025.02-.028.019-.028.02-.028.02-.03.018-.032.019-.032.019-.033.017-.033.017-.035.018-.04.017-.036.017-.039.015-.04.015-.041.017-.04.013-.043.015-.044.013-.044.014-.045.012-.044.013-.048.01-.048.011-.048.012-.047.01-.049.01-.05.008-.049.008-.052.008-.05.008-.051.007-.053.007-.054.004-.053.006-.052.003-.052.005-.055.003-.053.003-.053.002-.055.002h-.215l-.054-.002-.054-.002-.053-.003-.053-.003-.055-.005-.052-.003-.053-.006-.051-.004-.053-.007-.051-.007-.052-.008-.052-.008-.05-.008-.049-.008-.049-.01-.048-.01-.048-.012-.047-.01-.045-.011-.048-.013-.044-.012-.045-.014-.04-.013-.044-.015-.043-.013-.04-.017-.039-.015-.041-.015-.036-.017-.036-.017-.037-.018-.035-.017-.032-.017-.032-.019-.03-.019-.033-.018-.028-.02-.028-.02-.025-.019-.025-.02-.026-.021-.021-.02-.024-.022-.017-.021-.02-.021-.019-.022-.013-.021-.016-.024-.012-.021-.014-.023-.009-.021-.01-.023-.007-.024-.007-.021-.004-.023-.004-.023-.003-.021-.001-.024M578.183 429.648l-.003-.024-.001-.023.001-.021.003-.024.004-.023.004-.024.007-.021.008-.023.006-.021.014-.023.012-.022.012-.022.016-.022.014-.023.018-.02.02-.024.018-.02.023-.021.019-.02.028-.022.025-.02.025-.018.028-.02.028-.019.032-.02.031-.017.03-.019.034-.017.036-.019.036-.016.036-.019.037-.014M578.785 428.987l.039-.017.04-.015.04-.015.041-.016.044-.013.041-.013.046-.014.044-.013.046-.012.046-.01.045-.013.05-.012.049-.008.049-.009.048-.01.052-.009.05-.006.051-.008.051-.008.053-.006.05-.005.053-.005.055-.004.054-.004.054-.004h.053l.053-.003.055-.003.053-.001.054-.001.053.001.055.001.054.003.054.003h.053l.055.004.052.004.053.004.052.005.052.005.053.006.051.008.05.008.051.006.052.01.05.009.049.01.047.007.049.012.045.012.048.011.046.012.045.013.044.014.043.013.042.013.042.016.041.015.039.015.038.017.038.015.038.018.035.016.035.019.032.017.033.019.03.017.031.02.03.019.026.02.027.019.027.021.022.02.022.02.021.021.021.023.019.021.015.02.017.023.016.023.015.021.009.023.012.022.01.022.007.022.006.023.006.023.004.022.002.024v.022M579.756 429.295a.117.117 0 0 0-.008.013M579.368 429.215c.127.01.252.037.388.08" style="fill:none;stroke:red;stroke-width:.666665;stroke-linecap:round;stroke-linejoin:round;stroke-miterlimit:10;stroke-dasharray:none;stroke-opacity:1;visibility:visible" visibility="hidden"/><path d="M581.096 429.214a1.915 1.915 0 0 0-.388.08M580.716 429.308l-.008-.014M580.708 429.391l.008-.015M581.096 429.644a2.543 2.543 0 0 0-.388-.253M580.739 429.795a1.057 1.057 0 0 0 .357-.15M580.117 429.544h.228c.135.069.395.249.395.249M580.117 429.543a2.743 2.743 0 0 0-.393.25M579.368 429.644a1.083 1.083 0 0 0 .356.151M579.368 429.644c.127-.1.252-.184.388-.256M579.748 429.375l.008.012M579.785 429.484l-.001.001" style="fill:none;stroke:red;stroke-width:.666665;stroke-linecap:round;stroke-linejoin:round;stroke-miterlimit:10;stroke-dasharray:none;stroke-opacity:1;visibility:visible" visibility="hidden"/><path d="m580.708 429.391-2.608-1.317M578.1 428.074l5.444 2.398M151.946 460.915l-4.026.241M147.92 461.156l7.273-1.74M475.116 383.586l-3.607.232" style="fill:none;stroke:red;stroke-width:1.99999;stroke-linecap:round;stroke-linejoin:round;stroke-miterlimit:4;stroke-dasharray:none;stroke-opacity:1;visibility:visible" visibility="hidden"/><path d="m174.266 461.944-2.544-4.78M157.169 466.366l17.097-4.422M171.722 457.164l2.544 4.78M157.169 466.366l-4.775-3.974M157.169 466.366l-6.891-3.471M174.266 461.944l-17.097 4.422M152.394 462.392l4.775 3.974M254.182 512.162l11.808 3.414M254.182 512.162l11.808 3.414M265.99 515.576l-11.808-3.414M265.99 515.576l-11.808-3.414M580.739 429.795l.134 2.051M578.1 428.074l1.235 3.676M578.1 428.074l-3.86-.359M579.335 431.75l-5.095-4.035M566.15 435.9l-5.047-4.362M566.15 435.9l-5.047-4.362M561.103 431.538l5.047 4.362M561.103 431.538l5.047 4.362M474.133 383.087l-4.638 7.555M472.556 383.784l-3.061 6.858M474.133 383.087l-14.835 5.208M472.556 383.784l-13.258 4.511M475.116 383.586l.099 1.834" style="fill:none;stroke:red;stroke-width:.666665;stroke-linecap:round;stroke-linejoin:round;stroke-miterlimit:4;stroke-dasharray:none;stroke-opacity:1;visibility:visible" visibility="hidden"/><path d="m246.975 546.535-2.185-96.221M215.714 451.508l2.69 96.345M255.42 543.828l-.026-.99M214.749 543.519l.028.994" style="fill:none;stroke:#00ff4a;stroke-width:1.99999;stroke-linecap:round;stroke-linejoin:round;stroke-miterlimit:4;stroke-dasharray:none;stroke-opacity:1;visibility:visible" visibility="hidden"/><path d="m246.487 520.147-.114-.055" style="fill:none;stroke:#00ff4a;stroke-width:.999997;stroke-linecap:round;stroke-linejoin:round;stroke-miterlimit:4;stroke-dasharray:none;stroke-opacity:1;visibility:visible" visibility="hidden"/><path d="m218.32 544.817-.008.044.011.064" style="fill:none;stroke:#00ff4a;stroke-width:1.99999;stroke-linecap:round;stroke-linejoin:round;stroke-miterlimit:4;stroke-dasharray:none;stroke-opacity:1;visibility:visible" visibility="hidden"/><path d="m250.3 543.605-.248-.105-.325-.057-.364-.006-.352.047-.293.097-.19.127-.065.148.067.141.189.123.291.081.353.035.364-.023.327-.076.247-.113.132-.14-.003-.147-.129-.132" style="fill:none;stroke:#00ff4a;stroke-width:.999997;stroke-linecap:round;stroke-linejoin:round;stroke-miterlimit:4;stroke-dasharray:none;stroke-opacity:1;visibility:visible" visibility="hidden"/><path d="m218.382 547.063-3.3-2.123M255.07 542.39l-2.001-1.245M253.069 541.144a19.997 19.997 0 0 0-6.269-2.3M218.243 542.076l-2.44.656M215.803 542.732l-.34.112-.287.133-.219.154-.143.164-.063.172.022.168" style="fill:none;stroke:#00ff4a;stroke-width:1.99999;stroke-linecap:round;stroke-linejoin:round;stroke-miterlimit:4;stroke-dasharray:none;stroke-opacity:1;visibility:visible" visibility="hidden"/><path d="m247.306 546.532-.305.1-.187.081" style="fill:none;stroke:#00ff4a;stroke-width:.999997;stroke-linecap:round;stroke-linejoin:round;stroke-miterlimit:4;stroke-dasharray:none;stroke-opacity:1;visibility:visible" visibility="hidden"/><path d="m255.42 543.828-.003.032-.054.175-.137.161-.212.155-.279.134-.335.115M214.777 544.513a.55.55 0 0 0 .305.427M254.4 544.6l-7.095 1.933" style="fill:none;stroke:#00ff4a;stroke-width:1.99999;stroke-linecap:round;stroke-linejoin:round;stroke-miterlimit:4;stroke-dasharray:none;stroke-opacity:1;visibility:visible" visibility="hidden"/><path d="m226.586 560.69-2.784-105.093" style="fill:none;stroke:#00ff4a;stroke-width:.999997;stroke-linecap:round;stroke-linejoin:round;stroke-miterlimit:4;stroke-dasharray:none;stroke-opacity:1;visibility:visible" visibility="hidden"/><path d="M218.405 547.852a.243.243 0 0 0 .13.183M218.673 553.015l-.139-4.979M218.673 553.015l.054.665.123.695.188.685.247.652.297.599.33.514.358.416.367.304M225.335 560.599l-4.698-3.054M243.649 555.995l-17.063 4.695M243.649 555.995a4.353 4.353 0 0 0 3.008-4.165M246.657 551.83l-.112-4.973M215.845 451.672l-.08-.056-.042-.064-.009-.065.027-.064.062-.063.094-.058.12-.05.145-.045M222.527 455.514l-6.682-3.842M244.353 450.608l-20.55 4.988M244.653 450.143l.081.057.044.063.013.063-.026.064-.058.062-.09.062-.12.049-.144.045M237.906 446.352l6.745 3.792M237.906 446.352a2 2 0 0 0-1.26-.08M216.162 451.207l20.484-4.935M222.527 455.514c.407.168.855.194 1.276.082M225.335 560.599a1.76 1.76 0 0 0 1.25.09" style="fill:none;stroke:#00ff4a;stroke-width:1.99999;stroke-linecap:round;stroke-linejoin:round;stroke-miterlimit:4;stroke-dasharray:none;stroke-opacity:1;visibility:visible" visibility="hidden"/><path d="M246.975 546.535v.014l-.025.072-.057.07-.09.065-.117.055-.14.045M237.571 452.019l-.134-5.553" style="fill:none;stroke:#00ff4a;stroke-width:.999997;stroke-linecap:round;stroke-linejoin:round;stroke-miterlimit:4;stroke-dasharray:none;stroke-opacity:1;visibility:visible" visibility="hidden"/><path d="m218.405 547.852-.082-2.927" style="fill:none;stroke:#00ff4a;stroke-width:1.99999;stroke-linecap:round;stroke-linejoin:round;stroke-miterlimit:4;stroke-dasharray:none;stroke-opacity:1;visibility:visible" visibility="hidden"/><path d="m244.79 450.314-7.219 1.705" style="fill:none;stroke:#00ff4a;stroke-width:.999997;stroke-linecap:round;stroke-linejoin:round;stroke-miterlimit:4;stroke-dasharray:none;stroke-opacity:1;visibility:visible" visibility="hidden"/><path d="m610.978 437.696-.038.888M628.958 448.054l.32.138M643.77 444.464l4.547-93.164M623.421 352.105l-3.811 85.854M631.2 355.217c.372.12.768.142 1.15.063M632.35 355.282l15.7-3.81M648.052 351.473l.106-.034.083-.038.053-.044.023-.048-.01-.05-.037-.049-.068-.047-.096-.044M648.105 351.12l-7.599-2.898M640.508 348.223a2.207 2.207 0 0 0-1.14-.061M639.366 348.162l-15.672 3.77M623.694 351.93l-.109.03-.084.04-.056.048-.021.046.005.05.036.048.068.047.093.046M623.626 352.285l7.574 2.932" style="fill:none;stroke:#9500ff;stroke-width:1.99999;stroke-linecap:round;stroke-linejoin:round;stroke-miterlimit:4;stroke-dasharray:none;stroke-opacity:1;visibility:visible" visibility="hidden"/><path d="M627.252 441.406c.361.136.753.158 1.133.07M632.35 355.282l-3.968 86.194" style="fill:none;stroke:#9500ff;stroke-width:.999997;stroke-linecap:round;stroke-linejoin:round;stroke-miterlimit:4;stroke-dasharray:none;stroke-opacity:1;visibility:visible" visibility="hidden"/><path d="m629.528 448.278.44.048.464-.072M630.432 448.254l13.076-3.598" style="fill:none;stroke:#9500ff;stroke-width:1.99999;stroke-linecap:round;stroke-linejoin:round;stroke-miterlimit:4;stroke-dasharray:none;stroke-opacity:1;visibility:visible" visibility="hidden"/><path d="M619.61 437.959a.253.253 0 0 0 .197.197M627.252 441.406l-7.443-3.248" style="fill:none;stroke:#9500ff;stroke-width:.999997;stroke-linecap:round;stroke-linejoin:round;stroke-miterlimit:4;stroke-dasharray:none;stroke-opacity:1;visibility:visible" visibility="hidden"/><path d="M627.858 445.798a2.2 2.2 0 0 0 1.1 2.256M628.054 441.522l-.194 4.277M643.508 444.656l.106-.036.082-.045.052-.05.022-.049v-.013M616.377 433.804l3.456-.931M616.377 433.803l-.997.295-.912.33-.818.359-.718.384-.612.416-.503.433-.387.452-.269.468-.15.476-.031.488" style="fill:none;stroke:#9500ff;stroke-width:1.99999;stroke-linecap:round;stroke-linejoin:round;stroke-miterlimit:4;stroke-dasharray:none;stroke-opacity:1;visibility:visible" visibility="hidden"/><path d="m620.754 441.583-.166-.104-.055-.116.063-.11.174-.088.263-.057.312-.017.325.027.283.062.217.095.112.11v.115l-.125.102-.219.073-.294.039-.323-.006-.313-.044-.254-.081M615.514 437.002l-.164-.104-.054-.112.064-.11.176-.085.26-.059.308-.016.322.026.284.061.216.095.112.109-.005.113-.123.1-.22.072-.29.039-.323-.003-.31-.046-.252-.08" style="fill:none;stroke:#9500ff;stroke-width:.999997;stroke-linecap:round;stroke-linejoin:round;stroke-miterlimit:4;stroke-dasharray:none;stroke-opacity:1;visibility:visible" visibility="hidden"/><path d="m614.924 442.54-.878-.42-.778-.438-.675-.458-.565-.474-.448-.482-.334-.488-.213-.493-.09-.493-.003-.21M627.902 442.259a4.816 4.816 0 0 0-2.484-.079M617.153 443.522l-2.23-.98M619.874 443.688l5.544-1.508M617.153 443.522a4.615 4.615 0 0 0 2.721.168" style="fill:none;stroke:#9500ff;stroke-width:1.99999;stroke-linecap:round;stroke-linejoin:round;stroke-miterlimit:4;stroke-dasharray:none;stroke-opacity:1;visibility:visible" visibility="hidden"/><path d="m628.022 442.227-.12.032M640.148 348.309l-.235 4.931" style="fill:none;stroke:#9500ff;stroke-width:.999997;stroke-linecap:round;stroke-linejoin:round;stroke-miterlimit:4;stroke-dasharray:none;stroke-opacity:1;visibility:visible" visibility="hidden"/><path d="m619.874 443.688-.041-10.815" style="fill:none;stroke:#9500ff;stroke-width:1.99999;stroke-linecap:round;stroke-linejoin:round;stroke-miterlimit:4;stroke-dasharray:none;stroke-opacity:1;visibility:visible" visibility="hidden"/><path d="m627.902 442.259-7.148-.676M627.902 442.259l-12.387-5.257M632.35 355.282l7.563-2.042" style="fill:none;stroke:#9500ff;stroke-width:.999997;stroke-linecap:round;stroke-linejoin:round;stroke-miterlimit:4;stroke-dasharray:none;stroke-opacity:1;visibility:visible" visibility="hidden"/><path d="m146.632 456.484-.036-.909M116.668 468.046l.434-.1M137.52 456.655l-3.68-87.666M107.626 369.975l4.446 95.345M128.168 365.815a1.965 1.965 0 0 0-1.123-.064M127.045 365.751l-18.979 3.97M108.066 369.72l-.136.032-.116.043-.09.047-.064.05-.03.052v.051l.031.055.061.043M107.722 370.093l5.514 3.085M113.236 373.18c.361.134.757.156 1.133.062M114.369 373.242l19.039-4.005M133.408 369.237l.136-.035.113-.042.09-.043.059-.054.027-.052v-.051l-.032-.05-.065-.045M133.736 368.865l-5.568-3.051" style="fill:none;stroke:#ffdf00;stroke-width:1.99999;stroke-linecap:round;stroke-linejoin:round;stroke-miterlimit:4;stroke-dasharray:none;stroke-opacity:1;visibility:visible" visibility="hidden"/><path d="m125.528 379.418-.074-.38-.176-.323-.264-.235-.328-.13-.366-.011-.37.109-.338.219-.279.305-.193.373-.092.4.016.399.128.356.221.281.303.185.35.07.371-.05.356-.164.313-.265.239-.347.145-.389.038-.402M137.097 456.932l-18.721 4.438M114.369 373.242l4.008 88.126" style="fill:none;stroke:#ffdf00;stroke-width:.999997;stroke-linecap:round;stroke-linejoin:round;stroke-miterlimit:4;stroke-dasharray:none;stroke-opacity:1;visibility:visible" visibility="hidden"/><path d="m112.169 465.452 3.88 2.455" style="fill:none;stroke:#ffdf00;stroke-width:1.99999;stroke-linecap:round;stroke-linejoin:round;stroke-miterlimit:4;stroke-dasharray:none;stroke-opacity:1;visibility:visible" visibility="hidden"/><path d="M112.072 465.319a.179.179 0 0 0 .097.133" style="fill:none;stroke:#ffdf00;stroke-width:.999997;stroke-linecap:round;stroke-linejoin:round;stroke-miterlimit:4;stroke-dasharray:none;stroke-opacity:1;visibility:visible" visibility="hidden"/><path d="m121.366 463.128-3.544.844" style="fill:none;stroke:#ffdf00;stroke-width:1.99999;stroke-linecap:round;stroke-linejoin:round;stroke-miterlimit:4;stroke-dasharray:none;stroke-opacity:1;visibility:visible" visibility="hidden"/><path d="m137.097 456.932.133-.038.112-.044.086-.052.06-.056.026-.059.003-.028" style="fill:none;stroke:#ffdf00;stroke-width:.999997;stroke-linecap:round;stroke-linejoin:round;stroke-miterlimit:4;stroke-dasharray:none;stroke-opacity:1;visibility:visible" visibility="hidden"/><path d="m117.902 465.752-.002.574-.063.514-.12.435-.175.337-.22.226-.22.106M117.706 461.414l.195 4.338M146.596 455.752l-.039-.509-.164-.5-.287-.49-.404-.475-.522-.449-.634-.436M142.89 451.889l1.655 1.007M142.889 451.89a4.124 4.124 0 0 0-2.65-.171M140.24 451.718l-2.898.681" style="fill:none;stroke:#ffdf00;stroke-width:1.99999;stroke-linecap:round;stroke-linejoin:round;stroke-miterlimit:4;stroke-dasharray:none;stroke-opacity:1;visibility:visible" visibility="hidden"/><path d="M138.629 452.96a1.877 1.877 0 0 0-1.265-.066M138.629 452.96l.104.11-.02.117-.13.112-.236.095-.301.056-.33.017-.308-.027-.023-.002M141.088 457.735l.104.11-.019.119-.132.113-.235.095-.304.059-.33.017-.314-.026-.253-.068-.16-.099-.047-.113.078-.122.189-.102.275-.08.32-.039.328.007.289.046.21.083M124.564 461.93l.101.109-.019.12-.136.117-.238.095-.306.059-.332.02-.317-.027-.253-.07-.159-.099-.041-.117.08-.122.19-.107.276-.077.326-.037.328.002.289.048.21.086" style="fill:none;stroke:#ffdf00;stroke-width:.999997;stroke-linecap:round;stroke-linejoin:round;stroke-miterlimit:4;stroke-dasharray:none;stroke-opacity:1;visibility:visible" visibility="hidden"/><path d="M120.19 462.392a3.901 3.901 0 0 0-2.374-.238M120.189 462.391l3.625 2.27M138.197 462.05l-11.697 2.789M123.813 464.662a4.11 4.11 0 0 0 2.685.177" style="fill:none;stroke:#ffdf00;stroke-width:1.99999;stroke-linecap:round;stroke-linejoin:round;stroke-miterlimit:4;stroke-dasharray:none;stroke-opacity:1;visibility:visible" visibility="hidden"/><path d="m117.816 462.154-.08-.05" style="fill:none;stroke:#ffdf00;stroke-width:.999997;stroke-linecap:round;stroke-linejoin:round;stroke-miterlimit:4;stroke-dasharray:none;stroke-opacity:1;visibility:visible" visibility="hidden"/><path d="M146.632 456.484v.178l-.083.516-.21.516-.329.509-.451.505-.569.495-.68.479-.789.461-.89.437-.985.415-1.074.385-1.152.352-1.223.318" style="fill:none;stroke:#ffdf00;stroke-width:1.99999;stroke-linecap:round;stroke-linejoin:round;stroke-miterlimit:4;stroke-dasharray:none;stroke-opacity:1;visibility:visible" visibility="hidden"/><path d="m127.733 365.907.185 4.304" style="fill:none;stroke:#ffdf00;stroke-width:.999997;stroke-linecap:round;stroke-linejoin:round;stroke-miterlimit:4;stroke-dasharray:none;stroke-opacity:1;visibility:visible" visibility="hidden"/><path d="m118.376 461.37 2.99 1.758M117.102 467.946l.72-3.974" style="fill:none;stroke:#ffdf00;stroke-width:1.99999;stroke-linecap:round;stroke-linejoin:round;stroke-miterlimit:4;stroke-dasharray:none;stroke-opacity:1;visibility:visible" visibility="hidden"/><path d="m123.813 464.662 17.274-6.927M123.813 464.662l.75-2.732M133.84 368.989l-5.922 1.222" style="fill:none;stroke:#ffdf00;stroke-width:.999997;stroke-linecap:round;stroke-linejoin:round;stroke-miterlimit:4;stroke-dasharray:none;stroke-opacity:1;visibility:visible" visibility="hidden"/><path d="m493.412 369.37 1.705-79.087M472.268 290.986l-1.393 79.161M497.432 373.025l.019-.827M464.839 372.497l-.013.825" style="fill:none;stroke:#00d4ff;stroke-width:1.99999;stroke-linecap:round;stroke-linejoin:round;stroke-miterlimit:4;stroke-dasharray:none;stroke-opacity:1;visibility:visible"/><path d="m491.705 375.438.342-.08M492.925 370.06l-.165-.084-.12-.093-.072-.097-.013-.099v-.005M468.804 372.06l.219.07.273.037.295.006.273-.034.213-.062.131-.082.023-.095-.083-.093-.18-.08-.25-.052-.288-.018-.29.012-.25.046-.17.075-.08.09.028.096.136.085M479.033 374.431l.22.066.275.038.297.002.275-.031.212-.061.128-.083.023-.096-.084-.093-.182-.08-.252-.051-.289-.023-.29.015-.249.046-.173.074-.077.092.03.097.135.088M492.804 371.413l.221.067.276.039.295.003.27-.033.214-.06.125-.084.02-.096-.085-.09-.183-.079-.252-.05-.289-.023-.286.014-.247.046-.173.074-.075.092.032.097.137.083" style="fill:none;stroke:#00d4ff;stroke-width:.999997;stroke-linecap:round;stroke-linejoin:round;stroke-miterlimit:4;stroke-dasharray:none;stroke-opacity:1;visibility:visible"/><path d="m465.52 372.062 5.315-1.248M465.52 372.06l-.25.075-.197.084-.141.101-.079.106-.011.11M497.437 372.26l.008-.11-.06-.11-.125-.106-.184-.094M492.925 370.06l4.15 1.78" style="fill:none;stroke:#00d4ff;stroke-width:1.99999;stroke-linecap:round;stroke-linejoin:round;stroke-miterlimit:4;stroke-dasharray:none;stroke-opacity:1;visibility:visible"/><path d="M470.836 370.814a1.01 1.01 0 0 0 .639-.324" style="fill:none;stroke:#00d4ff;stroke-width:.999997;stroke-linecap:round;stroke-linejoin:round;stroke-miterlimit:4;stroke-dasharray:none;stroke-opacity:1;visibility:visible"/><path d="m497.432 373.025-.012.058-.073.11-.137.1-.194.086-.248.074M465.185 373.673l-.18-.096-.122-.107-.056-.11-.003-.037M465.185 373.673l1.861.814M487.492 375.657l9.276-2.204M487.492 375.657l-1.036.222-1.099.191-1.146.16-1.195.124-1.226.09-1.255.053-1.268.02-1.275-.02-1.268-.053-1.257-.091-1.23-.123-1.197-.161-1.157-.189-1.103-.223-1.043-.254-.977-.28-.9-.308-.816-.325M478.732 293.549c.336.105.69.121 1.032.053" style="fill:none;stroke:#00d4ff;stroke-width:1.99999;stroke-linecap:round;stroke-linejoin:round;stroke-miterlimit:4;stroke-dasharray:none;stroke-opacity:1;visibility:visible"/><path d="M477.241 372.995c.329.115.683.136 1.022.058M478.263 373.053l1.502-79.453" style="fill:none;stroke:#00d4ff;stroke-width:.999997;stroke-linecap:round;stroke-linejoin:round;stroke-miterlimit:4;stroke-dasharray:none;stroke-opacity:1;visibility:visible"/><path d="m494.96 290.149.076.038.055.04.022.039-.002.04-.031.042-.058.037-.082.03-.103.028M488.623 287.744l6.337 2.405M488.623 287.745a2.13 2.13 0 0 0-1.028-.05M472.555 290.823l15.041-3.129M472.421 291.12l-.077-.04-.05-.037-.024-.042.003-.042.034-.038.058-.036.085-.035.105-.027M478.732 293.549l-6.31-2.429M494.839 290.443l-15.074 3.158" style="fill:none;stroke:#00d4ff;stroke-width:1.99999;stroke-linecap:round;stroke-linejoin:round;stroke-miterlimit:4;stroke-dasharray:none;stroke-opacity:1;visibility:visible"/><path d="m477.241 372.995-6.216-2.698M487.143 300.818l.292-.115.265-.21.221-.286.154-.342.07-.359-.013-.352-.101-.31-.178-.239-.238-.147-.278-.048-.293.063-.281.162-.248.255-.188.317-.114.354-.029.361.057.333.142.276.21.199.26.097.29-.009M493.135 369.547l-14.872 3.506" style="fill:none;stroke:#00d4ff;stroke-width:.999997;stroke-linecap:round;stroke-linejoin:round;stroke-miterlimit:4;stroke-dasharray:none;stroke-opacity:1;visibility:visible"/><path d="m471.025 370.295-.077-.041-.048-.041-.023-.05-.002-.017" style="fill:none;stroke:#00d4ff;stroke-width:1.99999;stroke-linecap:round;stroke-linejoin:round;stroke-miterlimit:4;stroke-dasharray:none;stroke-opacity:1;visibility:visible"/><path d="M471.903 375.877a1.693 1.693 0 0 0 1.69.505M473.593 376.382l.64-.153" style="fill:none;stroke:#00d4ff;stroke-width:.999997;stroke-linecap:round;stroke-linejoin:round;stroke-miterlimit:4;stroke-dasharray:none;stroke-opacity:1;visibility:visible"/><path d="m493.412 369.37-.005.024-.03.044-.059.042-.081.038-.1.03" style="fill:none;stroke:#00d4ff;stroke-width:1.99999;stroke-linecap:round;stroke-linejoin:round;stroke-miterlimit:4;stroke-dasharray:none;stroke-opacity:1;visibility:visible"/><path d="m488.199 291.673.078-3.858M492.047 375.358c.47-.15.825-.533.948-1.01M490.185 375.015l.798.345M497.076 371.84l-4.272-.427M495.117 290.283l-6.918 1.39M492.925 370.06l-2.74 4.955" style="fill:none;stroke:#00d4ff;stroke-width:.999997;stroke-linecap:round;stroke-linejoin:round;stroke-miterlimit:4;stroke-dasharray:none;stroke-opacity:1;visibility:visible"/><path d="m254.4 544.6-4.26-10.976M477.241 372.995l.576 10.86" style="fill:none;stroke:red;stroke-width:1.99999;stroke-linecap:round;stroke-linejoin:round;stroke-miterlimit:4;stroke-dasharray:none;stroke-opacity:1;visibility:visible" visibility="hidden"/><path d="m490.983 375.36-7.824 12.211M467.046 374.487l6.742 10.841" style="fill:none;stroke:red;stroke-width:.666665;stroke-linecap:round;stroke-linejoin:round;stroke-miterlimit:4;stroke-dasharray:none;stroke-opacity:1;visibility:visible" visibility="hidden"/><path d="m474.133 383.087-5.329-11.027M473.745 383.435l-4.941-11.374M474.133 383.087l4.9-8.656M473.745 383.435l5.287-9.004" style="fill:none;stroke:#00d4ff;stroke-width:.999997;stroke-linecap:round;stroke-linejoin:round;stroke-miterlimit:4;stroke-dasharray:none;stroke-opacity:1;visibility:visible"/></svg>