<svg xmlns="http://www.w3.org/2000/svg" baseProfile="full" height="1122.52" preserveAspectRatio="xMinYMin meet" style="width:914px;height:841px" width="793.701" xml:space="preserve"><path d="m527.756 639.55 2.168-123.081" style="fill:none;stroke:red;stroke-width:1.99999;stroke-linecap:round;stroke-linejoin:round;stroke-miterlimit:4;stroke-dasharray:none;stroke-opacity:1;visibility:visible"/><path d="m527.344 663.052.199-11.39" style="fill:none;stroke:red;stroke-width:.999997;stroke-linecap:round;stroke-linejoin:round;stroke-miterlimit:4;stroke-dasharray:2.66666,2.66666;stroke-dashoffset:0;stroke-opacity:1;visibility:visible"/><path d="m548.643 634.22 2.69-120.31" style="fill:none;stroke:red;stroke-width:1.99999;stroke-linecap:round;stroke-linejoin:round;stroke-miterlimit:4;stroke-dasharray:none;stroke-opacity:1;visibility:visible"/><path d="m548.064 660.11.307-13.749" style="fill:none;stroke:red;stroke-width:.999997;stroke-linecap:round;stroke-linejoin:round;stroke-miterlimit:4;stroke-dasharray:2.66666,2.66666;stroke-dashoffset:0;stroke-opacity:1;visibility:visible"/><path d="m550.608 513.37-7.37-3.445" style="fill:none;stroke:red;stroke-width:.999997;stroke-linecap:round;stroke-linejoin:round;stroke-miterlimit:4;stroke-dasharray:none;stroke-opacity:1;visibility:visible"/><path d="m521.33 653.287-.11 6.72" style="fill:none;stroke:red;stroke-width:.999997;stroke-linecap:round;stroke-linejoin:round;stroke-miterlimit:4;stroke-dasharray:2.66666,2.66666;stroke-dashoffset:0;stroke-opacity:1;visibility:visible"/><path d="m543.015 507.203-.203.052M541.008 509.024l-16.75 4.182M523.588 513.819l-2.04 126.18" style="fill:none;stroke:red;stroke-width:1.99999;stroke-linecap:round;stroke-linejoin:round;stroke-miterlimit:4;stroke-dasharray:none;stroke-opacity:1;visibility:visible"/><path d="m546.412 662.054.568-.128" style="fill:none;stroke:red;stroke-width:.999997;stroke-linecap:round;stroke-linejoin:round;stroke-miterlimit:4;stroke-dasharray:2.66666,2.66666;stroke-dashoffset:0;stroke-opacity:1;visibility:visible"/><path d="m538.476 513.876-.361.067-.402.024-.413-.012-.388-.056-.332-.09-.25-.121-.146-.133-.032-.143.083-.141.198-.124.288-.099.362-.064.402-.024.408.014.388.054.334.09.249.117.147.135.033.145-.085.139-.194.124-.289.098M543.001 509.908l-1.846-.864M526.341 514.146l3.34 1.584" style="fill:none;stroke:red;stroke-width:.999997;stroke-linecap:round;stroke-linejoin:round;stroke-miterlimit:4;stroke-dasharray:none;stroke-opacity:1;visibility:visible"/><path d="m536.155 517.176 14.21-3.58M531.624 516.899a7.664 7.664 0 0 0 4.53.277" style="fill:none;stroke:red;stroke-width:1.99999;stroke-linecap:round;stroke-linejoin:round;stroke-miterlimit:4;stroke-dasharray:none;stroke-opacity:1;visibility:visible"/><path d="m529.677 515.974.004-.244" style="fill:none;stroke:red;stroke-width:.999997;stroke-linecap:round;stroke-linejoin:round;stroke-miterlimit:4;stroke-dasharray:none;stroke-opacity:1;visibility:visible"/><path d="m529.677 515.974 1.947.925" style="fill:none;stroke:red;stroke-width:1.99999;stroke-linecap:round;stroke-linejoin:round;stroke-miterlimit:4;stroke-dasharray:none;stroke-opacity:1;visibility:visible"/><path d="m521.335 660.15 5.278 2.991M527.344 663.052l-.003.022-.053.06-.105.05-.144.024-.159.002-.148-.024-.119-.046" style="fill:none;stroke:red;stroke-width:.999997;stroke-linecap:round;stroke-linejoin:round;stroke-miterlimit:4;stroke-dasharray:2.66666,2.66666;stroke-dashoffset:0;stroke-opacity:1;visibility:visible"/><path d="m524.404 513.468 1.7.81" style="fill:none;stroke:red;stroke-width:.999997;stroke-linecap:round;stroke-linejoin:round;stroke-miterlimit:4;stroke-dasharray:none;stroke-opacity:1;visibility:visible"/><path d="m546.359 662.054-1.516-.766" style="fill:none;stroke:red;stroke-width:.999997;stroke-linecap:round;stroke-linejoin:round;stroke-miterlimit:4;stroke-dasharray:2.66666,2.66666;stroke-dashoffset:0;stroke-opacity:1;visibility:visible"/><path d="m549.352 509.872.381.238.367.344.33.438.287.515.234.573.172.608.097.62.027.608M542.884 507.239l-.341.121-.303.24-.252.343-.19.437-.119.514-.043.374" style="fill:none;stroke:red;stroke-width:1.99999;stroke-linecap:round;stroke-linejoin:round;stroke-miterlimit:4;stroke-dasharray:none;stroke-opacity:1;visibility:visible"/><path d="m548.064 660.11-.003.023-.05.06-.104.045-.144.027-.158.001-.148-.022-.117-.047" style="fill:none;stroke:red;stroke-width:.999997;stroke-linecap:round;stroke-linejoin:round;stroke-miterlimit:4;stroke-dasharray:2.66666,2.66666;stroke-dashoffset:0;stroke-opacity:1;visibility:visible"/><path d="m550.172 513.646.615.288M550.821 513.783a.376.376 0 0 0-.306-.43M543.239 509.924a.357.357 0 0 0-.239-.017M550.785 513.935l.048.015.06.006h.063l.057-.008.039-.016.021-.021-.003-.021-.03-.02" style="fill:none;stroke:red;stroke-width:.999997;stroke-linecap:round;stroke-linejoin:round;stroke-miterlimit:4;stroke-dasharray:none;stroke-opacity:1;visibility:visible"/><path d="M521.22 660.008a.173.173 0 0 0 .115.14" style="fill:none;stroke:red;stroke-width:.999997;stroke-linecap:round;stroke-linejoin:round;stroke-miterlimit:4;stroke-dasharray:2.66666,2.66666;stroke-dashoffset:0;stroke-opacity:1;visibility:visible"/><path d="M541.155 509.042a.2.2 0 0 0-.147-.018" style="fill:none;stroke:red;stroke-width:.999997;stroke-linecap:round;stroke-linejoin:round;stroke-miterlimit:4;stroke-dasharray:none;stroke-opacity:1;visibility:visible"/><path d="m524.407 513.226-.067-.023h-.07l-.057.023-.056.042-.044.062-.033.078-.021.095-.011.101" style="fill:none;stroke:red;stroke-width:1.99999;stroke-linecap:round;stroke-linejoin:round;stroke-miterlimit:4;stroke-dasharray:none;stroke-opacity:1;visibility:visible"/><path d="M550.616 513.835v.019M550.821 513.783l-.005.163" style="fill:none;stroke:red;stroke-width:.999997;stroke-linecap:round;stroke-linejoin:round;stroke-miterlimit:4;stroke-dasharray:none;stroke-opacity:1;visibility:visible"/><path d="M543.837 507.304a1.201 1.201 0 0 0-.822-.101M549.352 509.872l-5.516-2.568M524.05 513.604l-.232.058" style="fill:none;stroke:red;stroke-width:1.99999;stroke-linecap:round;stroke-linejoin:round;stroke-miterlimit:4;stroke-dasharray:none;stroke-opacity:1;visibility:visible"/><path d="M546.98 661.928a1.767 1.767 0 0 0 .987-1.69M547.112 660.608a.671.671 0 0 0 .387-.36M547.117 660.382a.368.368 0 0 0 .211-.192M526.692 663.176a.321.321 0 0 0 .399.166M528.97 664.408l-1.88-1.066M527.092 663.201l-.003.14M547.112 660.608l-13.759 4.118M547.112 660.608l.005-.228M528.97 664.408a6.316 6.316 0 0 0 4.384.32M533.915 660.03l-.28.114-.191.142-.081.16.029.167.143.157.241.134.321.102.374.064.398.016.391-.028.35-.077.276-.111.193-.144.081-.16-.03-.166-.142-.154-.243-.136-.32-.105-.373-.06-.399-.02-.389.032-.35.073M540.001 656.414l7.116 3.968M538.219 655.42l1.781.994" style="fill:none;stroke:red;stroke-width:.999997;stroke-linecap:round;stroke-linejoin:round;stroke-miterlimit:4;stroke-dasharray:2.66666,2.66666;stroke-dashoffset:0;stroke-opacity:1;visibility:visible"/><path d="m538.62 636.89 2.427-120.945" style="fill:none;stroke:red;stroke-width:.999997;stroke-linecap:round;stroke-linejoin:round;stroke-miterlimit:4;stroke-dasharray:none;stroke-opacity:1;visibility:visible"/><path d="m527.423 658.624 10.796-3.204M538.259 654.966l.121-6.169" style="fill:none;stroke:red;stroke-width:.999997;stroke-linecap:round;stroke-linejoin:round;stroke-miterlimit:4;stroke-dasharray:2.66666,2.66666;stroke-dashoffset:0;stroke-opacity:1;visibility:visible"/><path d="m527.543 651.662.213-12.112" style="fill:none;stroke:red;stroke-width:1.99999;stroke-linecap:round;stroke-linejoin:round;stroke-miterlimit:4;stroke-dasharray:none;stroke-opacity:1;visibility:visible"/><path d="m521.22 660.007 6.323-8.345" style="fill:none;stroke:red;stroke-width:.999997;stroke-linecap:round;stroke-linejoin:round;stroke-miterlimit:4;stroke-dasharray:2.66666,2.66666;stroke-dashoffset:0;stroke-opacity:1;visibility:visible"/><path d="m548.371 646.361.272-12.141" style="fill:none;stroke:red;stroke-width:1.99999;stroke-linecap:round;stroke-linejoin:round;stroke-miterlimit:4;stroke-dasharray:none;stroke-opacity:1;visibility:visible"/><path d="m548.643 634.22-.272 12.141M527.344 663.052l-6.014-9.765" style="fill:none;stroke:red;stroke-width:.999997;stroke-linecap:round;stroke-linejoin:round;stroke-miterlimit:4;stroke-dasharray:2.66666,2.66666;stroke-dashoffset:0;stroke-opacity:1;visibility:visible"/><path d="m527.543 651.662-5.995-11.663" style="fill:none;stroke:red;stroke-width:1.99999;stroke-linecap:round;stroke-linejoin:round;stroke-miterlimit:4;stroke-dasharray:none;stroke-opacity:1;visibility:visible"/><path d="m536.155 517.176 2.321-3.3M541.008 509.024l-2.532 4.852" style="fill:none;stroke:red;stroke-width:.999997;stroke-linecap:round;stroke-linejoin:round;stroke-miterlimit:4;stroke-dasharray:none;stroke-opacity:1;visibility:visible"/><path d="m547.117 660.382-2.274.906M546.98 661.928l-13.065-1.898M533.354 664.728l.56-4.698" style="fill:none;stroke:red;stroke-width:.999997;stroke-linecap:round;stroke-linejoin:round;stroke-miterlimit:4;stroke-dasharray:2.66666,2.66666;stroke-dashoffset:0;stroke-opacity:1;visibility:visible"/><path d="m538.38 648.797.24-11.907M550.616 513.854l-9.569 2.091" style="fill:none;stroke:red;stroke-width:.999997;stroke-linecap:round;stroke-linejoin:round;stroke-miterlimit:4;stroke-dasharray:none;stroke-opacity:1;visibility:visible"/><path d="m527.091 663.342.332-4.718M538.62 636.89l-.24 11.907" style="fill:none;stroke:red;stroke-width:.999997;stroke-linecap:round;stroke-linejoin:round;stroke-miterlimit:4;stroke-dasharray:2.66666,2.66666;stroke-dashoffset:0;stroke-opacity:1;visibility:visible"/><path d="m302.06 653.481-46.477-30.313M235.777 639.63l45.933 31.085M289.129 816.685l-23.549-18.599M246.522 814.358l44.36 36.19" style="fill:none;stroke:#00ff4a;stroke-width:1.99999;stroke-linecap:round;stroke-linejoin:round;stroke-miterlimit:4;stroke-dasharray:none;stroke-opacity:1;visibility:visible"/><path d="m298.423 848.934.254-.083M317.98 836.857l-6.32-144.21M281.84 673.753l8.461 165.953M283.066 671.405l-.265.072M300.031 846.757l-8.106-166.861" style="fill:none;stroke:#00ff4a;stroke-width:.666665;stroke-linecap:round;stroke-linejoin:round;stroke-miterlimit:4;stroke-dasharray:2.66666,2.66666;stroke-dashoffset:0;stroke-opacity:1;visibility:visible"/><path d="m319.246 839.735-.012-.254" style="fill:none;stroke:#00ff4a;stroke-width:.999997;stroke-linecap:round;stroke-linejoin:round;stroke-miterlimit:4;stroke-dasharray:none;stroke-opacity:1;visibility:visible"/><path d="m344.032 858.373-26.802-21.134M291.167 852.442l58.305 47.644" style="fill:none;stroke:#00ff4a;stroke-width:1.99999;stroke-linecap:round;stroke-linejoin:round;stroke-miterlimit:4;stroke-dasharray:none;stroke-opacity:1;visibility:visible"/><path d="m363.531 693.176-.017-.54M341.395 712.004l.512-.144" style="fill:none;stroke:#00ff4a;stroke-width:.999997;stroke-linecap:round;stroke-linejoin:round;stroke-miterlimit:4;stroke-dasharray:none;stroke-opacity:1;visibility:visible"/><path d="M352.726 902.203 720.26 774.668M360.395 689.86l-56.348-36.677M291.087 678.697l46.576 31.583" style="fill:none;stroke:#00ff4a;stroke-width:1.99999;stroke-linecap:round;stroke-linejoin:round;stroke-miterlimit:4;stroke-dasharray:none;stroke-opacity:1;visibility:visible"/><path d="M730.916 593.628 345.623 702.085M345.626 702.085l7.1 200.118" style="fill:none;stroke:#00ff4a;stroke-width:.999997;stroke-linecap:round;stroke-linejoin:round;stroke-miterlimit:4;stroke-dasharray:none;stroke-opacity:1;visibility:visible"/><path d="m720.26 774.665 10.657-181.038" style="fill:none;stroke:#00ff4a;stroke-width:1.99999;stroke-linecap:round;stroke-linejoin:round;stroke-miterlimit:4;stroke-dasharray:none;stroke-opacity:1;visibility:visible"/><path d="m345.626 702.085-3.1-2.07" style="fill:none;stroke:#00ff4a;stroke-width:.999997;stroke-linecap:round;stroke-linejoin:round;stroke-miterlimit:4;stroke-dasharray:none;stroke-opacity:1;visibility:visible"/><path d="M255.582 623.168a.695.695 0 0 0-.548-.081M235.482 639.081a.701.701 0 0 0 .295.55M255.033 623.087l-19.418 4.828M234.853 628.963l.63 10.117M235.617 627.915a1.045 1.045 0 0 0-.763 1.048M265.58 798.086a.633.633 0 0 0-.59-.086M246.309 813.918a.6.6 0 0 0 .211.44M264.989 797.998l-18.526 5.642M245.737 804.651l.573 9.267M246.466 803.64a1.04 1.04 0 0 0-.73 1.01M338.512 710.476l6.495 173.994M352.726 902.203l-2.963-2.416M704.804 594.604l-343.774 95.97" style="fill:none;stroke:#00ff4a;stroke-width:1.99999;stroke-linecap:round;stroke-linejoin:round;stroke-miterlimit:4;stroke-dasharray:none;stroke-opacity:1;visibility:visible"/><path d="M290.389 839.85a7.064 7.064 0 0 0 1.965 4.647M297.47 848.64l-5.116-4.14M282.918 671.456l-.305.101-.264.24-.204.37-.143.481-.072.582-.003.65M289.195 675.194l.372.318.366.437.344.547.306.626.259.688.21.722.138.726.07.707M281.909 673.624a.147.147 0 0 0-.039.206.135.135 0 0 0 .057.05M283.887 671.605a.968.968 0 0 0-.82-.199M289.195 675.194l-5.305-3.589M291.687 679.317l.227-.061M291.382 679.998l-.01-.24M291.687 679.317a.444.444 0 0 0-.314.44M300.031 846.757l-.017.068-.081.082-.143.068-.176.035-.185.003-.167-.034-.124-.061" style="fill:none;stroke:#00ff4a;stroke-width:.666665;stroke-linecap:round;stroke-linejoin:round;stroke-miterlimit:4;stroke-dasharray:2.66666,2.66666;stroke-dashoffset:0;stroke-opacity:1;visibility:visible"/><path d="m291.258 679.965.048.023.07.01h.074l.07-.014.054-.022.037-.028.006-.03-.024-.028" style="fill:none;stroke:#00ff4a;stroke-width:.666665;stroke-linecap:round;stroke-linejoin:round;stroke-miterlimit:4;stroke-dasharray:2.66666,2.66666;stroke-dashoffset:0;stroke-opacity:1;visibility:visible"/><path d="m317.1 837.01-3.152-2.48M317.98 836.857l-.016.062-.079.083-.14.065-.176.038-.182.001-.166-.03-.122-.066M290.303 839.706a.196.196 0 0 0 .084.144" style="fill:none;stroke:#00ff4a;stroke-width:.999997;stroke-linecap:round;stroke-linejoin:round;stroke-miterlimit:4;stroke-dasharray:none;stroke-opacity:1;visibility:visible"/><path d="m299.4 846.993-.014.44-.071.516-.144.414-.201.303-.26.175-.03.012M319.246 839.735l-.006.142-.114.349-.246.336-.38.31-.484.276-.578.226M317.437 841.374l-17.591 5.692M307.16 840.845l.367-.156.272-.199.154-.219.02-.229-.11-.216-.231-.184-.339-.143-.417-.085-.462-.024-.464.04-.432.104-.37.155-.269.196-.154.221-.026.228.111.213.237.188.336.142.417.088.46.022.465-.04.435-.102" style="fill:none;stroke:#00ff4a;stroke-width:.666665;stroke-linecap:round;stroke-linejoin:round;stroke-miterlimit:4;stroke-dasharray:2.66666,2.66666;stroke-dashoffset:0;stroke-opacity:1;visibility:visible"/><path d="M299.398 847.005a.47.47 0 0 0 .448.06" style="fill:none;stroke:#00ff4a;stroke-width:.666665;stroke-linecap:round;stroke-linejoin:round;stroke-miterlimit:4;stroke-dasharray:2.66666,2.66666;stroke-dashoffset:0;stroke-opacity:1;visibility:visible"/><path d="M317.1 837.354a.91.91 0 0 0 .24-.254" style="fill:none;stroke:#00ff4a;stroke-width:.999997;stroke-linecap:round;stroke-linejoin:round;stroke-miterlimit:4;stroke-dasharray:none;stroke-opacity:1;visibility:visible"/><path d="m290.957 851.995-.568-11.118" style="fill:none;stroke:#00ff4a;stroke-width:1.99999;stroke-linecap:round;stroke-linejoin:round;stroke-miterlimit:4;stroke-dasharray:none;stroke-opacity:1;visibility:visible"/><path d="m344.42 883.995 2.945 2.379M349.752 899.46l-.297-8.203M350.192 900.137l-.082.028M349.858 900.22c.085 0 .172-.02.25-.058M349.456 891.258a7.25 7.25 0 0 0-2.09-4.884" style="fill:none;stroke:#00ff4a;stroke-width:.999997;stroke-linecap:round;stroke-linejoin:round;stroke-miterlimit:4;stroke-dasharray:none;stroke-opacity:1;visibility:visible"/><path d="M290.957 851.995a.592.592 0 0 0 .21.447" style="fill:none;stroke:#00ff4a;stroke-width:1.99999;stroke-linecap:round;stroke-linejoin:round;stroke-miterlimit:4;stroke-dasharray:none;stroke-opacity:1;visibility:visible"/><path d="m345 884.305.007.165M290.466 840.46a.996.996 0 0 0-.079.418M344.733 883.555a.467.467 0 0 0-.271.248M344.732 883.555l.191-.065M342.85 699.377l-60.903-40.625M344.412 883.83l.006.165" style="fill:none;stroke:#00ff4a;stroke-width:.999997;stroke-linecap:round;stroke-linejoin:round;stroke-miterlimit:4;stroke-dasharray:none;stroke-opacity:1;visibility:visible"/><path d="m344.412 883.83.328-.2.228-.18" style="fill:none;stroke:#00ff4a;stroke-width:.999997;stroke-linecap:round;stroke-linejoin:round;stroke-miterlimit:4;stroke-dasharray:none;stroke-opacity:1;visibility:visible"/><path d="M281.947 658.752a1.108 1.108 0 0 0-.793 1.09" style="fill:none;stroke:#00ff4a;stroke-width:1.99999;stroke-linecap:round;stroke-linejoin:round;stroke-miterlimit:4;stroke-dasharray:none;stroke-opacity:1;visibility:visible"/><path d="m342.54 700.38.326 9.037M361.638 694.654l-18.768 5.266" style="fill:none;stroke:#00ff4a;stroke-width:.999997;stroke-linecap:round;stroke-linejoin:round;stroke-miterlimit:4;stroke-dasharray:none;stroke-opacity:1;visibility:visible"/><path d="m362.93 691.81-3.106-2.022M303.493 653.107l-21.544 5.645M340.434 711.777l-3.066-2.077M281.155 659.842l.623 12.178" style="fill:none;stroke:#00ff4a;stroke-width:1.99999;stroke-linecap:round;stroke-linejoin:round;stroke-miterlimit:4;stroke-dasharray:none;stroke-opacity:1;visibility:visible"/><path d="m342.867 709.417-.015.676-.092.599-.168.494-.234.374-.296.237-.158.063" style="fill:none;stroke:#00ff4a;stroke-width:.999997;stroke-linecap:round;stroke-linejoin:round;stroke-miterlimit:4;stroke-dasharray:none;stroke-opacity:1;visibility:visible"/><path d="M337.368 709.701a.675.675 0 0 0 .887.657M338.255 710.358l.056-.018M360.691 690.352a.667.667 0 0 0-.865-.563" style="fill:none;stroke:#00ff4a;stroke-width:1.99999;stroke-linecap:round;stroke-linejoin:round;stroke-miterlimit:4;stroke-dasharray:none;stroke-opacity:1;visibility:visible"/><path d="m363.531 693.176-.001.084-.106.326-.254.311-.394.29-.516.254-.622.212" style="fill:none;stroke:#00ff4a;stroke-width:.999997;stroke-linecap:round;stroke-linejoin:round;stroke-miterlimit:4;stroke-dasharray:none;stroke-opacity:1;visibility:visible"/><path d="M281.778 672.02a.69.69 0 0 0 .295.562" style="fill:none;stroke:#00ff4a;stroke-width:.666665;stroke-linecap:round;stroke-linejoin:round;stroke-miterlimit:4;stroke-dasharray:2.66666,2.66666;stroke-dashoffset:0;stroke-opacity:1;visibility:visible"/><path d="M304.047 653.183a.685.685 0 0 0-.556-.078" style="fill:none;stroke:#00ff4a;stroke-width:1.99999;stroke-linecap:round;stroke-linejoin:round;stroke-miterlimit:4;stroke-dasharray:none;stroke-opacity:1;visibility:visible"/><path d="m281.877 658.774-46.26-30.86M290.266 838.987l-43.801-35.346" style="fill:none;stroke:#00ff4a;stroke-width:.999997;stroke-linecap:round;stroke-linejoin:round;stroke-miterlimit:4;stroke-dasharray:none;stroke-opacity:1;visibility:visible"/><path d="m312.506 832.766-6.508-143.956M291.595 679.95l-.002-.078" style="fill:none;stroke:#00ff4a;stroke-width:.666665;stroke-linecap:round;stroke-linejoin:round;stroke-miterlimit:4;stroke-dasharray:2.66666,2.66666;stroke-dashoffset:0;stroke-opacity:1;visibility:visible"/><path d="m299.846 847.065-.006-.11" style="fill:none;stroke:#00ff4a;stroke-width:.999997;stroke-linecap:round;stroke-linejoin:round;stroke-miterlimit:4;stroke-dasharray:none;stroke-opacity:1;visibility:visible"/><path d="m299.569 837.231 12.357-3.958" style="fill:none;stroke:#00ff4a;stroke-width:.666665;stroke-linecap:round;stroke-linejoin:round;stroke-miterlimit:4;stroke-dasharray:2.66666,2.66666;stroke-dashoffset:0;stroke-opacity:1;visibility:visible"/><path d="m299.282 848.067 44.646 36.094M290.389 840.877l.16.132" style="fill:none;stroke:#00ff4a;stroke-width:.999997;stroke-linecap:round;stroke-linejoin:round;stroke-miterlimit:4;stroke-dasharray:none;stroke-opacity:1;visibility:visible"/><path d="m656.645 560.165-53.28-24.038M587.068 550.65l53.174 24.748" style="fill:none;stroke:#00ff4a;stroke-width:1.99999;stroke-linecap:round;stroke-linejoin:round;stroke-miterlimit:4;stroke-dasharray:none;stroke-opacity:1;visibility:visible"/><path d="m662.769 729.188 4.636-104.839M668.288 604.392l.632-14.345M641.473 732.408l4.037-103.856M646.217 610.399l1.161-29.846M635.257 716.217l-36.297-20.163M583.163 710.45l50.987 29.092" style="fill:none;stroke:#00ff4a;stroke-width:.666665;stroke-linecap:round;stroke-linejoin:round;stroke-miterlimit:4;stroke-dasharray:2.66666,2.66666;stroke-dashoffset:0;stroke-opacity:1;visibility:visible"/><path d="m728.238 591.148-69.674-31.383M640.505 576.801l47.532 22.231" style="fill:none;stroke:#00ff4a;stroke-width:1.99999;stroke-linecap:round;stroke-linejoin:round;stroke-miterlimit:4;stroke-dasharray:none;stroke-opacity:1;visibility:visible"/><path d="m701.724 751.806-39.91-22.136M634.345 740.957l52.195 29.821" style="fill:none;stroke:#00ff4a;stroke-width:.666665;stroke-linecap:round;stroke-linejoin:round;stroke-miterlimit:4;stroke-dasharray:2.66666,2.66666;stroke-dashoffset:0;stroke-opacity:1;visibility:visible"/><path d="m704.56 594.175.07-.02" style="fill:none;stroke:#00ff4a;stroke-width:.999997;stroke-linecap:round;stroke-linejoin:round;stroke-miterlimit:4;stroke-dasharray:none;stroke-opacity:1;visibility:visible"/><path d="M603.365 536.127a.481.481 0 0 0-.315-.024M586.768 550.073a.58.58 0 0 0 .3.58M603.052 536.104l-15.397 3.833M586.99 540.865l-.223 9.208M587.653 539.936a.988.988 0 0 0-.663.93" style="fill:none;stroke:#00ff4a;stroke-width:1.99999;stroke-linecap:round;stroke-linejoin:round;stroke-miterlimit:4;stroke-dasharray:none;stroke-opacity:1;visibility:visible"/><path d="M661.774 729.456a.401.401 0 0 0 .216-.2M643.246 733.854l-2.072-1.168M641.181 732.568l-.005.117M661.764 729.692l-13.916 4.512M661.765 729.692l.01-.236M643.246 733.854a6.444 6.444 0 0 0 4.602.351M647.977 729.072l-.281.124-.184.156-.068.174.05.184.162.17.265.148.345.116.399.066.416.02.401-.034.356-.083.28-.124.184-.156.07-.175-.05-.178-.164-.174-.265-.149-.345-.112-.396-.067-.419-.021-.401.035-.355.08M651.986 724.03l10.004 5.095M634.781 729.053a.199.199 0 0 0 .13.168M662.769 729.188v.012l-.047.069-.104.05-.148.03h-.164l-.156-.024-.131-.052M662.334 729.961l.072-.285.05-.326M634.912 729.22l3.722-100.073M639.258 612.353l1.284-34.546M634.912 729.22l5.806 3.276M641.473 732.408l-.003.012-.048.071-.105.05-.15.029-.162.002-.16-.026-.125-.05M598.962 696.054a.445.445 0 0 0-.36-.024M582.932 709.964a.515.515 0 0 0 .232.486M598.6 696.03l-14.825 4.522M583.137 701.452l-.205 8.51M583.775 700.552a.992.992 0 0 0-.64.901M662.649 729.334l-.043.276-.124.428" style="fill:none;stroke:#00ff4a;stroke-width:.666665;stroke-linecap:round;stroke-linejoin:round;stroke-miterlimit:4;stroke-dasharray:2.66666,2.66666;stroke-dashoffset:0;stroke-opacity:1;visibility:visible"/><path d="M661.765 729.692c.173-.07.31-.2.392-.368" style="fill:none;stroke:#00ff4a;stroke-width:.666665;stroke-linecap:round;stroke-linejoin:round;stroke-miterlimit:4;stroke-dasharray:2.66666,2.66666;stroke-dashoffset:0;stroke-opacity:1;visibility:visible"/><path d="m641.305 564.19 63.563 29.115M708.329 595.392a8.236 8.236 0 0 0 4.995.32" style="fill:none;stroke:#00ff4a;stroke-width:.999997;stroke-linecap:round;stroke-linejoin:round;stroke-miterlimit:4;stroke-dasharray:none;stroke-opacity:1;visibility:visible"/><path d="m727.614 592.079 3.039 1.369M641.305 564.19l16.94-4.444" style="fill:none;stroke:#00ff4a;stroke-width:1.99999;stroke-linecap:round;stroke-linejoin:round;stroke-miterlimit:4;stroke-dasharray:none;stroke-opacity:1;visibility:visible"/><path d="M641.305 564.19a1.053 1.053 0 0 0-.687.964M704.549 594.387l.01-.191M704.698 593.884a.476.476 0 0 0-.14.312M704.842 593.795l3.488 1.597M704.842 593.795l.028-.492M713.324 595.712l14.565-4.092M728.526 591.761l-.092.632M728.042 591.11l.123.014.11.043.092.072.075.1.054.126.026.142.003.153" style="fill:none;stroke:#00ff4a;stroke-width:.999997;stroke-linecap:round;stroke-linejoin:round;stroke-miterlimit:4;stroke-dasharray:none;stroke-opacity:1;visibility:visible"/><path d="m640.212 576.208.41-11.056" style="fill:none;stroke:#00ff4a;stroke-width:1.99999;stroke-linecap:round;stroke-linejoin:round;stroke-miterlimit:4;stroke-dasharray:none;stroke-opacity:1;visibility:visible"/><path d="M640.212 576.208a.587.587 0 0 0 .294.592" style="fill:none;stroke:#00ff4a;stroke-width:.999997;stroke-linecap:round;stroke-linejoin:round;stroke-miterlimit:4;stroke-dasharray:none;stroke-opacity:1;visibility:visible"/><path d="M658.564 559.765a.473.473 0 0 0-.318-.02" style="fill:none;stroke:#00ff4a;stroke-width:1.99999;stroke-linecap:round;stroke-linejoin:round;stroke-miterlimit:4;stroke-dasharray:none;stroke-opacity:1;visibility:visible"/><path d="m704.842 593.795-.134.035" style="fill:none;stroke:#00ff4a;stroke-width:.999997;stroke-linecap:round;stroke-linejoin:round;stroke-miterlimit:4;stroke-dasharray:none;stroke-opacity:1;visibility:visible"/><path d="M634.118 740.461a.513.513 0 0 0 .227.496M634.496 730.27l-.378 10.192M635.132 729.344a1.07 1.07 0 0 0-.638.924" style="fill:none;stroke:#00ff4a;stroke-width:.666665;stroke-linecap:round;stroke-linejoin:round;stroke-miterlimit:4;stroke-dasharray:2.66666,2.66666;stroke-dashoffset:0;stroke-opacity:1;visibility:visible"/><path d="m640.985 564.375-53.33-24.438" style="fill:none;stroke:#00ff4a;stroke-width:.999997;stroke-linecap:round;stroke-linejoin:round;stroke-miterlimit:4;stroke-dasharray:none;stroke-opacity:1;visibility:visible"/><path d="m689.738 761.456-55.244-31.188M641.67 727.34l10.315-3.308M652.017 723.553l4.017-96.946M656.837 607.248l.927-22.403M634.49 730.45l-49.498-28.057" style="fill:none;stroke:#00ff4a;stroke-width:.666665;stroke-linecap:round;stroke-linejoin:round;stroke-miterlimit:4;stroke-dasharray:2.66666,2.66666;stroke-dashoffset:0;stroke-opacity:1;visibility:visible"/><path d="m304.047 653.183-1.987.298M283.89 671.605l-2.18-.89M291.167 852.442l-.285-1.894" style="fill:none;stroke:#00ff4a;stroke-width:1.99999;stroke-linecap:round;stroke-linejoin:round;stroke-miterlimit:4;stroke-dasharray:none;stroke-opacity:1;visibility:visible"/><path d="m299.846 847.065 7.314-6.22M299.569 837.231l7.591 3.614M291.595 679.95l14.403 8.86M307.16 840.845l-7.591-3.614" style="fill:none;stroke:#00ff4a;stroke-width:.666665;stroke-linecap:round;stroke-linejoin:round;stroke-miterlimit:4;stroke-dasharray:2.66666,2.66666;stroke-dashoffset:0;stroke-opacity:1;visibility:visible"/><path d="m658.564 559.765-1.919.4" style="fill:none;stroke:#00ff4a;stroke-width:1.99999;stroke-linecap:round;stroke-linejoin:round;stroke-miterlimit:4;stroke-dasharray:none;stroke-opacity:1;visibility:visible"/><path d="m668.288 604.392-.883 19.957M667.405 624.349l.883-19.957M639.258 612.353l6.252 16.199M645.51 628.552l.707-18.153M640.212 576.208l7.166 4.345M634.912 729.22l.345-13.003" style="fill:none;stroke:#00ff4a;stroke-width:.666665;stroke-linecap:round;stroke-linejoin:round;stroke-miterlimit:4;stroke-dasharray:2.66666,2.66666;stroke-dashoffset:0;stroke-opacity:1;visibility:visible"/><path d="m704.842 593.795-16.805 5.237" style="fill:none;stroke:#00ff4a;stroke-width:1.99999;stroke-linecap:round;stroke-linejoin:round;stroke-miterlimit:4;stroke-dasharray:none;stroke-opacity:1;visibility:visible"/><path d="m661.765 729.692-13.788-.62M647.848 734.205l.129-5.133M639.258 612.353l-.624 16.794M638.634 629.147l.624-16.794M640.212 576.208l.33 1.599M647.848 734.205l-6.178-6.865M646.217 610.399l9.817 16.208M656.034 626.607l.803-19.359M640.212 576.208l17.552 8.637M583.164 710.45l1.828-8.057" style="fill:none;stroke:#00ff4a;stroke-width:.666665;stroke-linecap:round;stroke-linejoin:round;stroke-miterlimit:4;stroke-dasharray:2.66666,2.66666;stroke-dashoffset:0;stroke-opacity:1;visibility:visible"/><path d="m203.957 599.041-1.723-1.133M202.234 597.908l-2.953-1.94M199.28 595.97l-1.71-1.124M185.08 606.128l-.402-.27M184.922 605.673a.413.413 0 0 0-.302.414M194.789 765.818l-.02.066-.083.076-.136.058-.17.034h-.174l-.16-.03-.112-.056M185.973 759.674a6.701 6.701 0 0 0 1.833 4.367M192.464 767.732l-4.656-3.69M176.905 598.473l-.273.108-.232.239-.18.361-.12.466-.056.553.005.624M182.593 601.807l.339.286.33.407.314.503.284.586.246.646.19.681.138.69.071.668M213.353 759.565l-.016-.243M194.189 766.064l.017.012M193.268 767.974l.246-.074M212.26 756.998l-8.778-156.088M197.442 594.815l-18.417 4.604M175.973 600.717l9.923 158.836M204.411 599.917l-.017-.264M177.098 598.421l-.254.063M194.789 765.818l-9.65-159.611" style="fill:none;stroke:#9500ff;stroke-width:1.99999;stroke-linecap:round;stroke-linejoin:round;stroke-miterlimit:4;stroke-dasharray:none;stroke-opacity:1;visibility:visible"/><path d="m192.449 600.757.368-.122.277-.155.164-.17.038-.179-.098-.168-.22-.144-.324-.112-.401-.064-.45-.023-.463.033-.431.08-.375.122-.277.153-.164.172-.033.177.094.17.219.145.325.112.406.067.449.018.461-.032.436-.08" style="fill:none;stroke:#9500ff;stroke-width:.999997;stroke-linecap:round;stroke-linejoin:round;stroke-miterlimit:4;stroke-dasharray:none;stroke-opacity:1;visibility:visible"/><path d="M197.57 594.845a.163.163 0 0 0-.13-.03M185.898 759.553a.155.155 0 0 0 .076.121M176.032 600.608a.125.125 0 0 0 .02.216M204.411 599.917l-.013.15-.132.27-.265.264-.387.242-.496.213-.581.179M177.794 598.592a.832.832 0 0 0-.694-.17M182.593 601.807l-4.801-3.217M184.922 605.673l17.613-4.438" style="fill:none;stroke:#9500ff;stroke-width:1.99999;stroke-linecap:round;stroke-linejoin:round;stroke-miterlimit:4;stroke-dasharray:none;stroke-opacity:1;visibility:visible"/><path d="M208.366 754.494a.653.653 0 0 0 .184.434M212.26 756.998l-.02.064-.077.075-.137.057-.168.03-.176.005-.152-.031-.115-.054M206.529 753.397l.27-.081" style="fill:none;stroke:#9500ff;stroke-width:.999997;stroke-linecap:round;stroke-linejoin:round;stroke-miterlimit:4;stroke-dasharray:none;stroke-opacity:1;visibility:visible"/><path d="m208.366 754.494-8.712-152.533" style="fill:none;stroke:#9500ff;stroke-width:.666665;stroke-linecap:round;stroke-linejoin:round;stroke-miterlimit:4;stroke-dasharray:none;stroke-opacity:1;visibility:visible"/><path d="M207.267 753.356a.59.59 0 0 0-.47-.04M208.349 754.19l-1.083-.834" style="fill:none;stroke:#9500ff;stroke-width:.999997;stroke-linecap:round;stroke-linejoin:round;stroke-miterlimit:4;stroke-dasharray:none;stroke-opacity:1;visibility:visible"/><path d="m194.189 766.064-.001.405-.062.504-.124.41-.174.301-.228.185-.086.031" style="fill:none;stroke:#9500ff;stroke-width:1.99999;stroke-linecap:round;stroke-linejoin:round;stroke-miterlimit:4;stroke-dasharray:none;stroke-opacity:1;visibility:visible"/><path d="M194.184 766.06a.461.461 0 0 0 .449.082" style="fill:none;stroke:#9500ff;stroke-width:1.99999;stroke-linecap:round;stroke-linejoin:round;stroke-miterlimit:4;stroke-dasharray:none;stroke-opacity:1;visibility:visible"/><path d="m201.835 760.584.356-.14.267-.174.155-.197.03-.204-.093-.192-.212-.167-.314-.125-.391-.077-.435-.022-.445.04-.413.09-.357.138-.264.176-.158.196-.032.204.096.19.21.168.313.125.392.079.434.02.444-.039.417-.088M211.237 757.329l1.672 1.293M208.37 755.113l2.864 2.216M206.71 753.829l1.66 1.284" style="fill:none;stroke:#9500ff;stroke-width:.999997;stroke-linecap:round;stroke-linejoin:round;stroke-miterlimit:4;stroke-dasharray:none;stroke-opacity:1;visibility:visible"/><path d="m213.353 759.565-.014.175-.124.31-.249.298-.37.277-.478.245-.558.204M211.56 761.074l-16.929 5.068" style="fill:none;stroke:#9500ff;stroke-width:1.99999;stroke-linecap:round;stroke-linejoin:round;stroke-miterlimit:4;stroke-dasharray:none;stroke-opacity:1;visibility:visible"/><path d="M208.37 755.113a.41.41 0 0 0 .215-.159M211.437 757.485a.81.81 0 0 0 .233-.255M206.529 753.397a.643.643 0 0 0 .181.432" style="fill:none;stroke:#9500ff;stroke-width:.999997;stroke-linecap:round;stroke-linejoin:round;stroke-miterlimit:4;stroke-dasharray:none;stroke-opacity:1;visibility:visible"/><path d="m206.8 753.317-8.676-150.97" style="fill:none;stroke:#9500ff;stroke-width:.666665;stroke-linecap:round;stroke-linejoin:round;stroke-miterlimit:4;stroke-dasharray:none;stroke-opacity:1;visibility:visible"/><path d="m206.529 753.397-12.27 3.64" style="fill:none;stroke:#9500ff;stroke-width:.999997;stroke-linecap:round;stroke-linejoin:round;stroke-miterlimit:4;stroke-dasharray:none;stroke-opacity:1;visibility:visible"/><path d="m194.633 766.142-.01-.15M177.098 598.421l1.927.998" style="fill:none;stroke:#9500ff;stroke-width:1.99999;stroke-linecap:round;stroke-linejoin:round;stroke-miterlimit:4;stroke-dasharray:none;stroke-opacity:1;visibility:visible"/><path d="m197.442 594.815-4.993 5.942M197.44 594.815l-4.99 5.942" style="fill:none;stroke:#9500ff;stroke-width:.999997;stroke-linecap:round;stroke-linejoin:round;stroke-miterlimit:4;stroke-dasharray:none;stroke-opacity:1;visibility:visible"/><path d="m204.411 599.917-4.757 2.044" style="fill:none;stroke:#9500ff;stroke-width:.666665;stroke-linecap:round;stroke-linejoin:round;stroke-miterlimit:4;stroke-dasharray:none;stroke-opacity:1;visibility:visible"/><path d="m206.529 753.397-4.694 7.187M194.259 757.037l7.576 3.548" style="fill:none;stroke:#9500ff;stroke-width:.999997;stroke-linecap:round;stroke-linejoin:round;stroke-miterlimit:4;stroke-dasharray:none;stroke-opacity:1;visibility:visible"/><path d="m204.411 599.917-6.287 2.43" style="fill:none;stroke:#9500ff;stroke-width:.666665;stroke-linecap:round;stroke-linejoin:round;stroke-miterlimit:4;stroke-dasharray:none;stroke-opacity:1;visibility:visible"/><path d="m201.835 760.585-7.576-3.548" style="fill:none;stroke:#9500ff;stroke-width:.999997;stroke-linecap:round;stroke-linejoin:round;stroke-miterlimit:4;stroke-dasharray:none;stroke-opacity:1;visibility:visible"/></svg>