<svg xmlns="http://www.w3.org/2000/svg" baseProfile="full" height="1122.52" preserveAspectRatio="xMinYMin meet" style="width:914px;height:841px" width="793.701" xml:space="preserve"><path d="m255.152 592.973 4.135 168.242M285.79 759.74l-3.341-167.994" style="fill:none;stroke:red;stroke-width:1.99999;stroke-linecap:round;stroke-linejoin:round;stroke-miterlimit:4;stroke-dasharray:none;stroke-opacity:1;visibility:visible" visibility="hidden"/><path d="m266.505 765.07-3.936-168.885M265.229 764.982c.401.18.854.21 1.276.088" style="fill:none;stroke:red;stroke-width:.999997;stroke-linecap:round;stroke-linejoin:round;stroke-miterlimit:4;stroke-dasharray:none;stroke-opacity:1;visibility:visible" visibility="hidden"/><path d="M261.253 596.112c.421.15.877.175 1.314.075M282.002 592.011l-19.433 4.173M261.254 596.11l-5.964-2.984" style="fill:none;stroke:red;stroke-width:.666665;stroke-linecap:round;stroke-linejoin:round;stroke-miterlimit:4;stroke-dasharray:none;stroke-opacity:1;visibility:visible" visibility="hidden"/><path d="m285.358 760.058-18.853 5.012M265.229 764.981l-5.807-3.584M259.285 761.217a.237.237 0 0 0 .137.181M285.79 759.74l-.003.015-.022.069-.058.068-.089.063-.117.06-.143.041" style="fill:none;stroke:red;stroke-width:1.99999;stroke-linecap:round;stroke-linejoin:round;stroke-miterlimit:4;stroke-dasharray:none;stroke-opacity:1;visibility:visible" visibility="hidden"/><path d="m282.494 591.519-.019-.833.019.833" style="fill:none;fill-opacity:1;fill-rule:nonzero;stroke:red;stroke-width:1.33333;visibility:visible" visibility="hidden"/><path d="m282.495 591.519-.02-.832" style="fill:none;stroke:red;stroke-width:.999997;stroke-linecap:round;stroke-linejoin:round;stroke-miterlimit:4;stroke-dasharray:none;stroke-opacity:1;visibility:visible" visibility="hidden"/><path d="m255.208 592.596-.052-.941.052.941" style="fill:none;fill-opacity:1;fill-rule:nonzero;stroke:red;stroke-width:1.33333;visibility:visible" visibility="hidden"/><path d="m255.155 591.657.053.94" style="fill:none;stroke:red;stroke-width:.999997;stroke-linecap:round;stroke-linejoin:round;stroke-miterlimit:4;stroke-dasharray:none;stroke-opacity:1;visibility:visible" visibility="hidden"/><path d="m282.412 590.388.019.19-20.383 4.247-.608-.108-5.972-2.885-.17-.255" style="fill:none;fill-opacity:1;fill-rule:nonzero;stroke:red;stroke-width:.666665;stroke-linecap:round;stroke-linejoin:round;stroke-miterlimit:4;stroke-dasharray:none;stroke-opacity:1;visibility:visible" visibility="hidden"/><path d="m255.3 591.578 20.727-3.973.798.109 5.588 2.675" style="fill:none;stroke:red;stroke-width:1.99999;stroke-linecap:round;stroke-linejoin:round;stroke-miterlimit:4;stroke-dasharray:none;stroke-opacity:1;visibility:visible" visibility="hidden"/><path d="m161.725 728.247 4.016 96.526M192.058 815.82l-3.267-88.757" style="fill:none;stroke:#00ff4a;stroke-width:1.99999;stroke-linecap:round;stroke-linejoin:round;stroke-miterlimit:4;stroke-dasharray:none;stroke-opacity:1;visibility:visible" visibility="hidden"/><path d="m170.717 828.04.444-.121" style="fill:none;stroke:#00ff4a;stroke-width:.999997;stroke-linecap:round;stroke-linejoin:round;stroke-miterlimit:4;stroke-dasharray:none;stroke-opacity:1;visibility:visible" visibility="hidden"/><path d="m600.23 696.873-3.04 86.086M622.023 789.33l3.716-93.424" style="fill:none;stroke:#00ff4a;stroke-width:1.99999;stroke-linecap:round;stroke-linejoin:round;stroke-miterlimit:4;stroke-dasharray:none;stroke-opacity:1;visibility:visible" visibility="hidden"/><path d="m606.433 793.482.316.167M588.377 782.822l-.028.89M201.436 815.558l-.033-.92M257.336 879.498l.027.97M297.803 879.73l-.019-.97M483.85 731.212l-.012.85M518.16 731.69l.019-.85" style="fill:none;stroke:#00ff4a;stroke-width:.999997;stroke-linecap:round;stroke-linejoin:round;stroke-miterlimit:4;stroke-dasharray:none;stroke-opacity:1;visibility:visible" visibility="hidden"/><path d="m491.558 646.737-1.319 81.584M513.965 727.357l1.659-81.502M258.733 790.067l2.336 94.202M289.478 882.826l-1.85-94.09M268.802 902.153l-102.485-72.872M166.316 829.28l-.172-4.136" style="fill:none;stroke:#00ff4a;stroke-width:1.99999;stroke-linecap:round;stroke-linejoin:round;stroke-miterlimit:4;stroke-dasharray:none;stroke-opacity:1;visibility:visible" visibility="hidden"/><path d="m261.215 884.978-89.425-62.85" style="fill:none;stroke:#00ff4a;stroke-width:.999997;stroke-linecap:round;stroke-linejoin:round;stroke-miterlimit:4;stroke-dasharray:none;stroke-opacity:1;visibility:visible" visibility="hidden"/><path d="M621.493 793.766 268.802 902.152M621.493 793.766l.167-4.179" style="fill:none;stroke:#00ff4a;stroke-width:1.99999;stroke-linecap:round;stroke-linejoin:round;stroke-miterlimit:4;stroke-dasharray:none;stroke-opacity:1;visibility:visible" visibility="hidden"/><path d="m605.555 787.766-316.486 96.101" style="fill:none;stroke:#00ff4a;stroke-width:.999997;stroke-linecap:round;stroke-linejoin:round;stroke-miterlimit:4;stroke-dasharray:none;stroke-opacity:1;visibility:visible" visibility="hidden"/><path d="m195.661 809.799 63.135-17.265M283.189 785.864l200.805-54.917M516.755 729.796l80.872 40.753M188.68 726.91l-5.91-3.688M188.358 727.359l.139-.04.113-.047.092-.058.06-.062.025-.064-.002-.062-.038-.062-.068-.053M168.862 732.206l19.496-4.848M167.689 732.129c.37.16.785.193 1.173.079M161.833 728.395l5.857 3.733M162.17 727.946l-.139.039-.116.049-.092.057-.062.062-.03.061.002.068.034.059.067.053M181.605 723.144l-19.436 4.803M182.769 723.224a1.748 1.748 0 0 0-1.164-.08" style="fill:none;stroke:#00ff4a;stroke-width:1.99999;stroke-linecap:round;stroke-linejoin:round;stroke-miterlimit:4;stroke-dasharray:none;stroke-opacity:1;visibility:visible" visibility="hidden"/><path d="m168.862 732.206 3.6 89.208M191.634 816.144l-19.172 5.272M180.24 738.011l-.072-.384-.177-.317-.271-.231-.336-.119-.373.003-.378.127-.348.233-.285.327-.203.384-.096.41.015.402.127.356.228.276.306.173.359.056.379-.057.365-.188.323-.28.244-.36.152-.402.041-.409" style="fill:none;stroke:#00ff4a;stroke-width:.999997;stroke-linecap:round;stroke-linejoin:round;stroke-miterlimit:4;stroke-dasharray:none;stroke-opacity:1;visibility:visible" visibility="hidden"/><path d="m165.848 824.934 4.116 2.917M165.74 824.774a.213.213 0 0 0 .109.163" style="fill:none;stroke:#00ff4a;stroke-width:1.99999;stroke-linecap:round;stroke-linejoin:round;stroke-miterlimit:4;stroke-dasharray:none;stroke-opacity:1;visibility:visible" visibility="hidden"/><path d="m191.634 816.144.136-.044.113-.053.087-.066.059-.064.028-.069.001-.028M171.762 821.47l.176 4.357M171.937 825.825l-.007.577-.072.511-.13.423-.188.318-.235.203-.144.063" style="fill:none;stroke:#00ff4a;stroke-width:.999997;stroke-linecap:round;stroke-linejoin:round;stroke-miterlimit:4;stroke-dasharray:none;stroke-opacity:1;visibility:visible" visibility="hidden"/><path d="m600.424 697.074 7.496 3.461M600.523 696.657l-.112.039-.088.044-.06.054-.03.056.002.06.036.056.061.059.092.048M616.85 692.203l-16.327 4.455M618.006 692.281a1.943 1.943 0 0 0-1.158-.077M625.537 695.696l-7.528-3.417M625.452 696.114l.11-.037.087-.047.058-.052.029-.059-.004-.054-.036-.059-.064-.056-.096-.052M609.094 700.61l16.36-4.496M607.918 700.534c.375.146.784.174 1.175.076" style="fill:none;stroke:#00ff4a;stroke-width:1.99999;stroke-linecap:round;stroke-linejoin:round;stroke-miterlimit:4;stroke-dasharray:none;stroke-opacity:1;visibility:visible" visibility="hidden"/><path d="m609.094 700.61-3.19 86.422M604.75 786.952c.364.157.771.188 1.154.082" style="fill:none;stroke:#00ff4a;stroke-width:.999997;stroke-linecap:round;stroke-linejoin:round;stroke-miterlimit:4;stroke-dasharray:none;stroke-opacity:1;visibility:visible" visibility="hidden"/><path d="m608.12 793.728 13.621-4.168" style="fill:none;stroke:#00ff4a;stroke-width:1.99999;stroke-linecap:round;stroke-linejoin:round;stroke-miterlimit:4;stroke-dasharray:none;stroke-opacity:1;visibility:visible" visibility="hidden"/><path d="m604.752 786.951-7.37-3.767M597.188 782.962a.273.273 0 0 0 .192.223" style="fill:none;stroke:#00ff4a;stroke-width:.999997;stroke-linecap:round;stroke-linejoin:round;stroke-miterlimit:4;stroke-dasharray:none;stroke-opacity:1;visibility:visible" visibility="hidden"/><path d="m621.741 789.56.108-.04.087-.05.057-.055.028-.064.001-.02" style="fill:none;stroke:#00ff4a;stroke-width:1.99999;stroke-linecap:round;stroke-linejoin:round;stroke-miterlimit:4;stroke-dasharray:none;stroke-opacity:1;visibility:visible" visibility="hidden"/><path d="m605.58 787.09-.157 4.256M605.421 791.347a2.228 2.228 0 0 0 1.01 2.136M594.188 778.132l3.205-.96M594.188 778.132l-1.041.343-.956.382-.862.415-.761.447-.655.484-.545.498-.43.527-.307.543-.191.556-.061.562M594.352 789.27a4.15 4.15 0 0 0 2.77.195M594.353 789.269l-2.207-1.139M592.146 788.132l-.868-.487-.765-.51-.655-.532-.543-.548-.422-.562-.307-.564-.183-.573-.06-.57.003-.073M605.555 787.766l-.125.037M197.404 810.154a3.788 3.788 0 0 0-2.747-.207M197.403 810.153l1.755 1.196M201.38 814.988l.027-.243-.064-.604-.192-.598-.316-.583-.44-.563-.559-.537-.677-.51M178.184 825.17a3.767 3.767 0 0 0 2.786.21M192.946 822.063l-11.975 3.316M174.337 822.47l3.847 2.699M174.337 822.471a3.627 3.627 0 0 0-2.465-.281M171.872 822.188l-.083-.059M201.436 815.558l.001.105-.066.611-.191.613-.321.61-.444.598-.564.59-.686.568-.794.549-.903.519-1 .49-1.093.458-1.178.421-1.25.373M258.367 878.64l-.337.12-.282.15-.213.169-.14.18-.057.186.022.19M260.91 877.878l-2.543.761M295.431 876.887a18.896 18.896 0 0 0-6.12-2.492M297.45 878.265l-2.019-1.377M261.044 883.314l-3.368-2.364M257.36 880.467a.625.625 0 0 0 .313.48" style="fill:none;stroke:#00ff4a;stroke-width:.999997;stroke-linecap:round;stroke-linejoin:round;stroke-miterlimit:4;stroke-dasharray:none;stroke-opacity:1;visibility:visible" visibility="hidden"/><path d="m484.575 730.669 1.02-.277" style="fill:none;stroke:#00ff4a;stroke-width:1.99999;stroke-linecap:round;stroke-linejoin:round;stroke-miterlimit:4;stroke-dasharray:none;stroke-opacity:1;visibility:visible" visibility="hidden"/><path d="M490.185 729.136a1.084 1.084 0 0 0 .68-.396M507.66 734.93l9.795-2.71M507.66 734.93l-1.093.273-1.156.24-1.215.191-1.257.157-1.295.108-1.319.068-1.336.024-1.341-.024-1.336-.068-1.32-.108-1.295-.157-1.257-.19-1.212-.24-1.159-.274-1.096-.31-1.021-.345-.941-.378-.858-.402M484.212 732.49l1.943 1.004M483.836 732.062a.527.527 0 0 0 .374.43M518.16 731.69l-.013.077-.078.131-.146.123-.207.108-.26.089M490.683 728.923l.005-.275" style="fill:none;stroke:#00ff4a;stroke-width:.999997;stroke-linecap:round;stroke-linejoin:round;stroke-miterlimit:4;stroke-dasharray:none;stroke-opacity:1;visibility:visible" visibility="hidden"/><path d="M498.319 649.948c.348.132.726.152 1.086.067" style="fill:none;stroke:#00ff4a;stroke-width:1.99999;stroke-linecap:round;stroke-linejoin:round;stroke-miterlimit:4;stroke-dasharray:none;stroke-opacity:1;visibility:visible" visibility="hidden"/><path d="m497.972 731.893 1.435-81.878M496.896 731.824c.341.14.719.165 1.075.07" style="fill:none;stroke:#00ff4a;stroke-width:.999997;stroke-linecap:round;stroke-linejoin:round;stroke-miterlimit:4;stroke-dasharray:none;stroke-opacity:1;visibility:visible" visibility="hidden"/><path d="m515.327 646.055-15.919 3.959M498.32 649.947l-6.603-3.045M491.717 646.902l-.08-.048-.053-.045-.024-.054.005-.05.035-.051.062-.047.088-.038.111-.039M491.861 646.53l15.885-3.92M508.825 642.675a1.887 1.887 0 0 0-1.08-.063M508.826 642.673l6.633 3.017M515.459 645.69l.083.04.056.05.024.053-.004.052-.032.052-.062.041-.088.043-.109.034" style="fill:none;stroke:#00ff4a;stroke-width:1.99999;stroke-linecap:round;stroke-linejoin:round;stroke-miterlimit:4;stroke-dasharray:none;stroke-opacity:1;visibility:visible" visibility="hidden"/><path d="m513.674 727.575-15.7 4.317M507.217 657.1l.305-.13.283-.23.232-.307.161-.357.076-.375-.016-.361-.106-.315-.186-.234-.254-.146-.295-.034-.31.081-.298.183-.259.269-.197.335-.121.372-.031.373.063.34.148.28.222.19.278.094.305-.028M496.898 731.822l-6.504-3.325M490.239 728.321a.223.223 0 0 0 .154.176M513.965 727.357l-.005.03-.032.057-.06.048-.087.044-.108.038M269.282 897.385l-2.401-102.741" style="fill:none;stroke:#00ff4a;stroke-width:.999997;stroke-linecap:round;stroke-linejoin:round;stroke-miterlimit:4;stroke-dasharray:none;stroke-opacity:1;visibility:visible" visibility="hidden"/><path d="M265.61 794.554c.399.184.85.216 1.27.09M259.173 789.736l20.256-5.525M280.685 784.302a1.778 1.778 0 0 0-1.256-.09M280.686 784.301l6.803 4.244M287.487 788.545l.083.065.045.067.012.07-.021.075-.058.07-.089.066-.117.058-.143.046M287.199 789.062l-20.317 5.583M265.61 794.554l-6.743-4.303M258.868 790.253l-.08-.061-.045-.074-.01-.07.026-.072.058-.075.091-.063.12-.057.145-.045M289.152 888.046l-.096-4.865M286.165 892.22a4.46 4.46 0 0 0 2.985-4.172M286.165 892.22l-16.883 5.164M268.035 897.284l-4.745-3.36M261.322 889.345a6.29 6.29 0 0 0 1.97 4.58M261.323 889.344l-.121-4.873" style="fill:none;stroke:#00ff4a;stroke-width:1.99999;stroke-linecap:round;stroke-linejoin:round;stroke-miterlimit:4;stroke-dasharray:none;stroke-opacity:1;visibility:visible" visibility="hidden"/><path d="M261.069 884.27a.248.248 0 0 0 .134.2M289.478 882.826v.015l-.023.077-.056.079-.086.069-.116.064-.139.05M181.858 723.303l.204 5.4M617.172 692.354l-.225 5.863M508.37 647.582l.092-4.817M280.353 790.678l-.132-6.248" style="fill:none;stroke:#00ff4a;stroke-width:.999997;stroke-linecap:round;stroke-linejoin:round;stroke-miterlimit:4;stroke-dasharray:none;stroke-opacity:1;visibility:visible" visibility="hidden"/><path d="M179.133 822.76a1.2 1.2 0 0 0 .481-.3M179.7 821.51a.572.572 0 0 0-.172-.408M179.528 821.103a1.307 1.307 0 0 0-.516-.317M179.013 820.785a2.943 2.943 0 0 0-.936-.148 2.947 2.947 0 0 0-.939.153M176.458 821.52l.002.739M176.46 822.258a.315.315 0 0 0 .086.212M176.546 822.469a1.28 1.28 0 0 0 .484.297M177.137 820.791a1.32 1.32 0 0 0-.512.32M176.626 821.111a.572.572 0 0 0-.168.409M194.405 816.422l.545.315.57-.307M196.573 816.418v.737M196.488 817.366a.297.297 0 0 0 .085-.21M193.904 817.671a3.357 3.357 0 0 0 2.102-.005M196.006 817.667a1.219 1.219 0 0 0 .482-.3M196.573 816.418a.58.58 0 0 0-.173-.41M196.402 816.007a1.283 1.283 0 0 0-.516-.313M195.886 815.693a2.944 2.944 0 0 0-.936-.15 2.94 2.94 0 0 0-.938.154M193.332 816.426v.739M193.333 817.163a.307.307 0 0 0 .087.211M193.42 817.374a1.272 1.272 0 0 0 .482.299M194.012 815.698a1.32 1.32 0 0 0-.512.319M193.5 816.017a.579.579 0 0 0-.168.41M514.821 728.06a2.943 2.943 0 0 0-.936-.148 2.94 2.94 0 0 0-.938.153M512.265 728.793l.002.74M512.268 729.532a.312.312 0 0 0 .087.212M512.355 729.744a1.276 1.276 0 0 0 .482.296M512.945 728.064a1.33 1.33 0 0 0-.512.32M512.435 728.385a.58.58 0 0 0-.168.41M498.888 732.552l.545.316.57-.306M501.056 732.548v.737M500.97 733.497a.297.297 0 0 0 .087-.21M498.385 733.802a3.357 3.357 0 0 0 2.103-.005M500.49 733.796a1.216 1.216 0 0 0 .48-.3M501.056 732.548a.583.583 0 0 0-.172-.411M500.884 732.138a1.328 1.328 0 0 0-.516-.316M500.37 731.824a2.944 2.944 0 0 0-1.876.005M497.815 732.557l.001.737M497.816 733.294a.307.307 0 0 0 .087.211M497.903 733.505a1.219 1.219 0 0 0 .482.296M498.495 731.828a1.307 1.307 0 0 0-.512.318M497.983 732.148a.58.58 0 0 0-.168.41M593.155 780.796l.545.316.57-.304M595.323 780.793v.737M595.239 781.74a.3.3 0 0 0 .085-.21M592.652 782.048a3.357 3.357 0 0 0 2.103-.006M594.756 782.04a1.216 1.216 0 0 0 .481-.3M595.323 780.793a.579.579 0 0 0-.173-.41M595.152 780.384a1.333 1.333 0 0 0-.516-.316M594.636 780.068a2.983 2.983 0 0 0-1.876.006M592.081 780.802l.002.738M592.083 781.54a.315.315 0 0 0 .086.212M592.17 781.752a1.256 1.256 0 0 0 .481.294M592.761 780.073a1.307 1.307 0 0 0-.511.319M592.25 780.392a.58.58 0 0 0-.17.41M291.243 879.1l.547.316.568-.306M293.413 879.097v.738M293.327 880.045a.3.3 0 0 0 .086-.211M290.742 880.35c.34.11.695.168 1.052.167.36 0 .71-.06 1.05-.175M292.846 880.342a1.197 1.197 0 0 0 .481-.299M293.413 879.097a.58.58 0 0 0-.173-.411M293.24 878.686a1.337 1.337 0 0 0-.514-.317M292.726 878.37a3.02 3.02 0 0 0-.936-.148c-.321 0-.637.052-.94.155M290.171 879.103l.002.74M290.173 879.842a.307.307 0 0 0 .086.21M290.26 880.054a1.299 1.299 0 0 0 .481.299M290.85 878.377a1.32 1.32 0 0 0-.512.318M290.34 878.694a.58.58 0 0 0-.17.41M177.53 821.515l.546.315.569-.305M179.7 821.51v.74M179.613 822.46a.3.3 0 0 0 .085-.212" style="fill:none;stroke:#00ff4a;stroke-width:.666665;stroke-linecap:round;stroke-linejoin:round;stroke-miterlimit:2;stroke-dasharray:none;stroke-opacity:1;visibility:visible" visibility="hidden"/><path d="M177.029 822.766a3.32 3.32 0 0 0 2.103-.006M487.548 730.942a3.32 3.32 0 0 0 2.103-.006M489.65 730.934a1.197 1.197 0 0 0 .483-.298M490.219 729.688a.575.575 0 0 0-.172-.41M490.047 729.278a1.312 1.312 0 0 0-.517-.316M489.53 728.962a2.944 2.944 0 0 0-1.873.006M486.976 729.697l.001.739M486.977 730.436a.307.307 0 0 0 .087.209M487.065 730.646a1.267 1.267 0 0 0 .483.296M487.656 728.968a1.32 1.32 0 0 0-.512.318M487.144 729.286a.58.58 0 0 0-.168.411M513.339 728.788l.545.316.57-.306M515.508 728.785v.737M515.423 729.734a.303.303 0 0 0 .085-.21M512.839 730.04a3.357 3.357 0 0 0 2.101-.007M514.941 730.033a1.2 1.2 0 0 0 .482-.3M515.508 728.785a.576.576 0 0 0-.172-.41M515.336 728.374a1.3 1.3 0 0 0-.516-.314M599.581 785.369a2.944 2.944 0 0 0-1.874.005M597.025 786.104l.002.736M597.028 786.84c0 .08.032.158.087.214M597.115 787.053a1.28 1.28 0 0 0 .482.297M597.705 785.374a1.315 1.315 0 0 0-.512.32M597.195 785.694a.577.577 0 0 0-.168.41M488.05 729.692l.544.314.571-.304M490.219 729.688v.738" style="fill:none;stroke:#00ff4a;stroke-width:.666665;stroke-linecap:round;stroke-linejoin:round;stroke-miterlimit:2;stroke-dasharray:none;stroke-opacity:1;visibility:visible" visibility="hidden"/><path d="M490.132 730.637a.304.304 0 0 0 .085-.21M600.096 785.685a1.29 1.29 0 0 0-.516-.316M191.884 810.93l.549.31.565-.306M194.053 810.909l.007.738M193.974 811.858a.307.307 0 0 0 .084-.212M192.446 812.342a3.3 3.3 0 0 0 1.05-.181M193.496 812.16a1.2 1.2 0 0 0 .478-.302M194.053 810.909a.583.583 0 0 0-.175-.409M193.88 810.5a1.323 1.323 0 0 0-.52-.31M193.36 810.189a2.944 2.944 0 0 0-.938-.142M598.098 786.098l.546.315.57-.304M600.268 786.094v.739M600.183 787.044a.302.302 0 0 0 .085-.211M597.599 787.347a3.293 3.293 0 0 0 2.1-.006M599.7 787.34a1.208 1.208 0 0 0 .482-.297" style="fill:none;stroke:#00ff4a;stroke-width:.666665;stroke-linecap:round;stroke-linejoin:round;stroke-miterlimit:2;stroke-dasharray:none;stroke-opacity:1;visibility:visible" visibility="hidden"/><path d="M600.268 786.094a.579.579 0 0 0-.173-.41" style="fill:none;stroke:#00ff4a;stroke-width:.666665;stroke-linecap:round;stroke-linejoin:round;stroke-miterlimit:2;stroke-dasharray:none;stroke-opacity:1;visibility:visible" visibility="hidden"/><path d="m293.413 879.834 4.39-.104" style="fill:none;stroke:#00ff4a;stroke-width:.999997;stroke-linecap:round;stroke-linejoin:round;stroke-miterlimit:4;stroke-dasharray:none;stroke-opacity:1;visibility:visible" visibility="hidden"/><path d="m193.496 812.161 2.165-2.362M259.173 789.736l-.377 2.798M279.429 784.21l3.76 1.654M496.898 731.822l19.857-2.026M593.155 780.796l4.472-10.247M605.555 787.766l2.565 5.962" style="fill:none;stroke:#00ff4a;stroke-width:1.99999;stroke-linecap:round;stroke-linejoin:round;stroke-miterlimit:4;stroke-dasharray:none;stroke-opacity:1;visibility:visible" visibility="hidden"/><path d="m592.76 780.074 4.633-2.902M599.7 787.34l-2.578 2.125" style="fill:none;stroke:#00ff4a;stroke-width:.999997;stroke-linecap:round;stroke-linejoin:round;stroke-miterlimit:4;stroke-dasharray:none;stroke-opacity:1;visibility:visible" visibility="hidden"/><path d="m487.657 728.968-2.062 1.424" style="fill:none;stroke:#00ff4a;stroke-width:1.99999;stroke-linecap:round;stroke-linejoin:round;stroke-miterlimit:4;stroke-dasharray:none;stroke-opacity:1;visibility:visible" visibility="hidden"/><path d="m491.861 646.53 15.356 10.57" style="fill:none;stroke:#00ff4a;stroke-width:.999997;stroke-linecap:round;stroke-linejoin:round;stroke-miterlimit:4;stroke-dasharray:none;stroke-opacity:1;visibility:visible" visibility="hidden"/><path d="m257.676 880.95 10.359 16.334" style="fill:none;stroke:#00ff4a;stroke-width:1.99999;stroke-linecap:round;stroke-linejoin:round;stroke-miterlimit:4;stroke-dasharray:none;stroke-opacity:1;visibility:visible" visibility="hidden"/><path d="m188.791 727.063-6.729 1.64M609.094 700.61l7.853-2.393M515.624 645.855l-7.254 1.727M287.627 788.737l-7.274 1.941" style="fill:none;stroke:#00ff4a;stroke-width:.999997;stroke-linecap:round;stroke-linejoin:round;stroke-miterlimit:4;stroke-dasharray:none;stroke-opacity:1;visibility:visible" visibility="hidden"/><path d="m197.404 810.154-5.52.776" style="fill:none;stroke:#00ff4a;stroke-width:.666665;stroke-linecap:round;stroke-linejoin:round;stroke-miterlimit:2;stroke-dasharray:none;stroke-opacity:1;visibility:visible" visibility="hidden"/><path d="m155.225 542.985 6.541 158.082M186.614 699.755l-5.844-157.86" style="fill:none;stroke:#9500ff;stroke-width:1.99999;stroke-linecap:round;stroke-linejoin:round;stroke-miterlimit:4;stroke-dasharray:none;stroke-opacity:1;visibility:visible" visibility="hidden"/><path d="m168.094 704.395-6.392-158.649" style="fill:none;stroke:#9500ff;stroke-width:.999997;stroke-linecap:round;stroke-linejoin:round;stroke-miterlimit:4;stroke-dasharray:none;stroke-opacity:1;visibility:visible" visibility="hidden"/><path d="M166.914 704.321c.374.153.79.185 1.18.075" style="fill:none;stroke:#9500ff;stroke-width:1.99999;stroke-linecap:round;stroke-linejoin:round;stroke-miterlimit:4;stroke-dasharray:none;stroke-opacity:1;visibility:visible" visibility="hidden"/><path d="M160.489 545.681c.391.131.81.155 1.211.066M180.319 542.136l-18.617 3.61M160.49 545.68l-5.153-2.58M174.81 641.46l.379-.143.341-.261.272-.343.179-.402.07-.423-.045-.408-.156-.353-.252-.272-.328-.162-.375-.04-.386.084-.364.204-.308.307-.231.377-.125.419-.014.416.102.387.209.316.29.218.358.104.384-.025" style="fill:none;stroke:#9500ff;stroke-width:.666665;stroke-linecap:round;stroke-linejoin:round;stroke-miterlimit:4;stroke-dasharray:none;stroke-opacity:1;visibility:visible" visibility="hidden"/><path d="m186.178 700.046-18.084 4.348" style="fill:none;stroke:#9500ff;stroke-width:1.99999;stroke-linecap:round;stroke-linejoin:round;stroke-miterlimit:4;stroke-dasharray:none;stroke-opacity:1;visibility:visible" visibility="hidden"/><path d="m176.417 683.023.377-.15.338-.26.27-.343.179-.399.07-.42-.043-.4-.156-.348-.252-.261-.324-.158-.372-.036-.384.091-.362.208-.308.301-.226.376-.124.415-.014.416.102.379.204.306.292.215.353.096.38-.028M175.616 662.315l.377-.147.34-.26.272-.342.178-.4.07-.42-.042-.403-.158-.352-.25-.265-.328-.162-.374-.037-.384.087-.362.205-.311.304-.224.38-.128.41-.012.42.1.38.208.313.29.216.355.101.383-.028" style="fill:none;stroke:#9500ff;stroke-width:.666665;stroke-linecap:round;stroke-linejoin:round;stroke-miterlimit:4;stroke-dasharray:none;stroke-opacity:1;visibility:visible" visibility="hidden"/><path d="m166.914 704.321-5.039-3.112M161.766 701.068a.185.185 0 0 0 .108.141M186.614 699.755l-.003.028-.026.063-.062.058-.09.055-.118.047-.137.041" style="fill:none;stroke:#9500ff;stroke-width:1.99999;stroke-linecap:round;stroke-linejoin:round;stroke-miterlimit:4;stroke-dasharray:none;stroke-opacity:1;visibility:visible" visibility="hidden"/><path d="m180.595 541.55-.019-.784.019.784" style="fill:none;fill-opacity:1;fill-rule:nonzero;stroke:#9500ff;stroke-width:1.33333;visibility:visible" visibility="hidden"/><path d="m180.595 541.551-.019-.784" style="fill:none;stroke:#9500ff;stroke-width:.999997;stroke-linecap:round;stroke-linejoin:round;stroke-miterlimit:4;stroke-dasharray:none;stroke-opacity:1;visibility:visible" visibility="hidden"/><path d="m155.042 542.57-.05-.888.05.888" style="fill:none;fill-opacity:1;fill-rule:nonzero;stroke:#9500ff;stroke-width:1.33333;visibility:visible" visibility="hidden"/><path d="m154.993 541.683.05.888" style="fill:none;stroke:#9500ff;stroke-width:.999997;stroke-linecap:round;stroke-linejoin:round;stroke-miterlimit:4;stroke-dasharray:none;stroke-opacity:1;visibility:visible" visibility="hidden"/><path d="m180.518 540.486.017.179-19.35 3.941-.567-.104-5.33-2.653-.16-.239" style="fill:none;fill-opacity:1;fill-rule:nonzero;stroke:#9500ff;stroke-width:.666665;stroke-linecap:round;stroke-linejoin:round;stroke-miterlimit:4;stroke-dasharray:none;stroke-opacity:1;visibility:visible" visibility="hidden"/><path d="m155.129 541.61 19.41-3.755.745.104 5.234 2.527" style="fill:none;stroke:#9500ff;stroke-width:1.99999;stroke-linecap:round;stroke-linejoin:round;stroke-miterlimit:4;stroke-dasharray:none;stroke-opacity:1;visibility:visible" visibility="hidden"/><path d="m607.76 517.702-5.43 152.853M625.615 669.47l6.041-152.668" style="fill:none;stroke:#ffdf00;stroke-width:1.99999;stroke-linecap:round;stroke-linejoin:round;stroke-miterlimit:4;stroke-dasharray:none;stroke-opacity:1;visibility:visible" visibility="hidden"/><path d="m631.362 516.973-15.537 3.336M614.616 520.252a2.533 2.533 0 0 0 1.206.059M614.618 520.25l-6.653-2.387" style="fill:none;stroke:#ffdf00;stroke-width:.666665;stroke-linecap:round;stroke-linejoin:round;stroke-miterlimit:4;stroke-dasharray:none;stroke-opacity:1;visibility:visible" visibility="hidden"/><path d="m610.165 673.708 5.66-153.397" style="fill:none;stroke:#ffdf00;stroke-width:.999997;stroke-linecap:round;stroke-linejoin:round;stroke-miterlimit:4;stroke-dasharray:none;stroke-opacity:1;visibility:visible" visibility="hidden"/><path d="M608.985 673.634a2.027 2.027 0 0 0 1.177.074M625.329 669.675l-15.164 4.03M608.987 673.634l-6.46-2.883M602.528 670.752l-.09-.05-.067-.054-.035-.057-.003-.036M625.615 669.47l-.001.017-.027.055-.057.05-.09.045-.112.037" style="fill:none;stroke:#ffdf00;stroke-width:1.99999;stroke-linecap:round;stroke-linejoin:round;stroke-miterlimit:4;stroke-dasharray:none;stroke-opacity:1;visibility:visible" visibility="hidden"/><path d="m631.589 516.056-.017-.701.017.701" style="fill:none;fill-opacity:1;fill-rule:nonzero;stroke:#ffdf00;stroke-width:1.33333;visibility:visible" visibility="hidden"/><path d="m631.59 516.056-.016-.701" style="fill:none;stroke:#ffdf00;stroke-width:.999997;stroke-linecap:round;stroke-linejoin:round;stroke-miterlimit:4;stroke-dasharray:none;stroke-opacity:1;visibility:visible" visibility="hidden"/><path d="m608.017 517.356-.045-.79.045.79" style="fill:none;fill-opacity:1;fill-rule:nonzero;stroke:#ffdf00;stroke-width:1.33333;visibility:visible" visibility="hidden"/><path d="m607.97 516.566.047.79" style="fill:none;stroke:#ffdf00;stroke-width:.999997;stroke-linecap:round;stroke-linejoin:round;stroke-miterlimit:4;stroke-dasharray:none;stroke-opacity:1;visibility:visible" visibility="hidden"/><path d="m631.519 515.106.016.159-16.91 3.737-1.751-.637-4.63-1.66-.148-.21" style="fill:none;fill-opacity:1;fill-rule:nonzero;stroke:#ffdf00;stroke-width:.666665;stroke-linecap:round;stroke-linejoin:round;stroke-miterlimit:4;stroke-dasharray:none;stroke-opacity:1;visibility:visible" visibility="hidden"/><path d="m608.095 516.495 16.985-3.379.695.072 5.743 1.918" style="fill:none;stroke:#ffdf00;stroke-width:1.99999;stroke-linecap:round;stroke-linejoin:round;stroke-miterlimit:4;stroke-dasharray:none;stroke-opacity:1;visibility:visible" visibility="hidden"/><path d="m495.413 477.426-2.361 144.396M515.042 620.84l2.907-144.221" style="fill:none;stroke:#00d4ff;stroke-width:1.99999;stroke-linecap:round;stroke-linejoin:round;stroke-miterlimit:4;stroke-dasharray:none;stroke-opacity:1;visibility:visible"/><path d="m517.644 476.78-15.11 2.923M501.412 479.655c.365.101.75.121 1.121.048M501.413 479.654l-5.836-2.096" style="fill:none;stroke:#00d4ff;stroke-width:.666665;stroke-linecap:round;stroke-linejoin:round;stroke-miterlimit:4;stroke-dasharray:none;stroke-opacity:1;visibility:visible"/><path d="m499.989 624.584 2.545-144.881" style="fill:none;stroke:#00d4ff;stroke-width:.999997;stroke-linecap:round;stroke-linejoin:round;stroke-miterlimit:4;stroke-dasharray:none;stroke-opacity:1;visibility:visible"/><path d="M498.895 624.523c.352.124.73.14 1.092.062" style="fill:none;stroke:#00d4ff;stroke-width:1.99999;stroke-linecap:round;stroke-linejoin:round;stroke-miterlimit:4;stroke-dasharray:none;stroke-opacity:1;visibility:visible"/><path d="m508.432 567.22.31-.124.287-.228.236-.31.164-.362.078-.387-.018-.368-.109-.33-.19-.251-.255-.157-.299-.043-.313.068-.303.179-.265.272-.2.336-.123.38-.03.386.062.352.153.291.224.21.283.1.308-.014" style="fill:none;stroke:#00d4ff;stroke-width:.999997;stroke-linecap:round;stroke-linejoin:round;stroke-miterlimit:4;stroke-dasharray:none;stroke-opacity:1;visibility:visible"/><path d="m514.744 621.035-14.753 3.55" style="fill:none;stroke:#00d4ff;stroke-width:1.99999;stroke-linecap:round;stroke-linejoin:round;stroke-miterlimit:4;stroke-dasharray:none;stroke-opacity:1;visibility:visible"/><path d="m507.715 605.231.31-.13.285-.229.233-.308.163-.358.077-.383-.017-.364-.107-.32-.19-.252-.254-.15-.297-.038-.312.073-.302.179-.261.272-.201.339-.12.373-.031.38.063.348.152.285.225.203.277.097.307-.017M508.072 586.288l.31-.13.286-.227.235-.31.164-.357.076-.385-.016-.37-.108-.324-.191-.25-.255-.154-.298-.041-.312.073-.303.178-.263.273-.201.337-.12.375-.032.383.064.35.15.29.227.204.28.1.307-.015" style="fill:none;stroke:#00d4ff;stroke-width:.999997;stroke-linecap:round;stroke-linejoin:round;stroke-miterlimit:4;stroke-dasharray:none;stroke-opacity:1;visibility:visible"/><path d="m498.897 624.522-5.687-2.54M493.21 621.981l-.081-.044-.052-.045-.024-.051-.002-.019M515.042 620.84l-.005.03-.034.05-.061.041-.088.042-.11.032" style="fill:none;stroke:#00d4ff;stroke-width:1.99999;stroke-linecap:round;stroke-linejoin:round;stroke-miterlimit:4;stroke-dasharray:none;stroke-opacity:1;visibility:visible"/><path d="m517.933 476.283-.017-.703.017.703" style="fill:none;fill-opacity:1;fill-rule:nonzero;stroke:#00d4ff;stroke-width:1.33333;visibility:visible"/><path d="m517.933 476.282-.019-.701" style="fill:none;stroke:#00d4ff;stroke-width:.999997;stroke-linecap:round;stroke-linejoin:round;stroke-miterlimit:4;stroke-dasharray:none;stroke-opacity:1;visibility:visible"/><path d="m495.198 477.154-.045-.795.045.795" style="fill:none;fill-opacity:1;fill-rule:nonzero;stroke:#00d4ff;stroke-width:1.33333;visibility:visible"/><path d="m495.152 476.36.045.793" style="fill:none;stroke:#00d4ff;stroke-width:.999997;stroke-linecap:round;stroke-linejoin:round;stroke-miterlimit:4;stroke-dasharray:none;stroke-opacity:1;visibility:visible"/><path d="m517.864 475.33.016.16-16.212 3.177-1.885-.646-4.367-1.512-.141-.214" style="fill:none;fill-opacity:1;fill-rule:nonzero;stroke:#00d4ff;stroke-width:.666665;stroke-linecap:round;stroke-linejoin:round;stroke-miterlimit:4;stroke-dasharray:none;stroke-opacity:1;visibility:visible"/><path d="m495.274 476.295 16.347-3.15.674.094 5.568 2.09" style="fill:none;stroke:#00d4ff;stroke-width:1.99999;stroke-linecap:round;stroke-linejoin:round;stroke-miterlimit:4;stroke-dasharray:none;stroke-opacity:1;visibility:visible"/></svg>