<svg xmlns="http://www.w3.org/2000/svg" baseProfile="full" height="1122.52" preserveAspectRatio="xMinYMin meet" style="width:602px;height:832px" width="793.701" xml:space="preserve"><path d="m518.31 590.127 23.64 1.781 161.34-2.968v7.712l-162.524 6.525s-8.271 5.934-21.274-.593" style="fill:none;stroke:red;stroke-width:2.00014;stroke-linecap:butt;stroke-linejoin:miter;stroke-miterlimit:2.4142;stroke-dasharray:none;stroke-opacity:1;visibility:visible"/><path d="m518.901 590.127-.59 12.457" style="fill:none;stroke:red;stroke-width:.999997;stroke-linecap:butt;stroke-linejoin:miter;stroke-miterlimit:2.4142;stroke-dasharray:none;stroke-opacity:1;visibility:visible"/><path d="m703.292 588.94-15.958-2.373-167.25 2.968" style="fill:none;stroke:red;stroke-width:2.00014;stroke-linecap:butt;stroke-linejoin:miter;stroke-miterlimit:2.4142;stroke-dasharray:none;stroke-opacity:1;visibility:visible"/><path d="M540.767 591.905v11.288M532.495 604.959l158.977-5.935 11.82-2.967" style="fill:none;stroke:red;stroke-width:.999997;stroke-linecap:butt;stroke-linejoin:miter;stroke-miterlimit:2.4142;stroke-dasharray:none;stroke-opacity:1;visibility:visible"/><path d="m641.533 600.45-22.288 265.424" style="fill:none;stroke:red;stroke-width:2.00014;stroke-linecap:butt;stroke-linejoin:miter;stroke-miterlimit:2.4142;stroke-dasharray:none;stroke-opacity:1;visibility:visible"/><path d="M646.852 600.45 624.99 867.368" style="fill:none;stroke:red;stroke-width:.999997;stroke-linecap:butt;stroke-linejoin:miter;stroke-miterlimit:2.4142;stroke-dasharray:none;stroke-opacity:1;visibility:visible"/><path d="M661.744 599.916 636.8 861.281" style="fill:none;stroke:red;stroke-width:2.00014;stroke-linecap:butt;stroke-linejoin:miter;stroke-miterlimit:2.4142;stroke-dasharray:none;stroke-opacity:1;visibility:visible"/><path d="m618.874 865.823 6.223 1.68s8.617.24 11.968-6.969" style="fill:none;stroke:red;stroke-width:.999997;stroke-linecap:butt;stroke-linejoin:miter;stroke-miterlimit:2.4142;stroke-dasharray:none;stroke-opacity:1;visibility:visible"/><path d="m637.527 852.843 18.685-12.973M523.085 932.86l96.21-67.248" style="fill:none;stroke:red;stroke-width:2.00014;stroke-linecap:butt;stroke-linejoin:miter;stroke-miterlimit:2.4142;stroke-dasharray:none;stroke-opacity:1;visibility:visible"/><path d="m534.716 937.616 130.545-94.285" style="fill:none;stroke:red;stroke-width:.999997;stroke-linecap:butt;stroke-linejoin:miter;stroke-miterlimit:2.4142;stroke-dasharray:none;stroke-opacity:1;visibility:visible"/><path d="m523.085 932.427.431 12.324 11.2 5.405 130.545-98.609v-8.66l-9.393-2.764" style="fill:none;stroke:red;stroke-width:2.00014;stroke-linecap:butt;stroke-linejoin:miter;stroke-miterlimit:2.4142;stroke-dasharray:none;stroke-opacity:1;visibility:visible"/><path d="M650.35 848.52c.718 0 1.3.419 1.3.934-.001.51-.582.928-1.3.928-.716.001-1.298-.416-1.298-.93s.582-.932 1.298-.932M550.388 918.525c1.024 0 1.855.5 1.855 1.115 0 .618-.831 1.118-1.854 1.118-1.028 0-1.857-.5-1.857-1.118.001-.615.832-1.115 1.856-1.115M654.588 841.081l9.512 2.802v8.408M524.808 932.208l10.772 4.328v12.548" style="fill:none;stroke:red;stroke-width:.999997;stroke-linecap:butt;stroke-linejoin:miter;stroke-miterlimit:2.4142;stroke-dasharray:none;stroke-opacity:1;visibility:visible"/><path d="m524.163 933.291 10.772 4.325v12.112" style="fill:none;stroke:red;stroke-width:.999997;stroke-linecap:butt;stroke-linejoin:miter;stroke-miterlimit:2.4142;stroke-dasharray:none;stroke-opacity:1;visibility:visible"/><path d="m385.922 584.668-168.848 6.03-6.01.604v6.031l5.408.607 169.45-7.845v-5.428.001" style="fill:none;stroke:red;stroke-width:2.00014;stroke-linecap:butt;stroke-linejoin:miter;stroke-miterlimit:2.4142;stroke-dasharray:none;stroke-opacity:1;visibility:visible"/><path d="m217.073 591.301.601 6.639" style="fill:none;stroke:red;stroke-width:.999997;stroke-linecap:butt;stroke-linejoin:miter;stroke-miterlimit:2.4142;stroke-dasharray:none;stroke-opacity:1;visibility:visible"/><path d="m327.035 593.713 11.417 171.012" style="fill:none;stroke:red;stroke-width:2.00014;stroke-linecap:butt;stroke-linejoin:miter;stroke-miterlimit:2.4142;stroke-dasharray:none;stroke-opacity:1;visibility:visible"/><path d="m330.04 593.112 10.516 172.82" style="fill:none;stroke:red;stroke-width:.999997;stroke-linecap:butt;stroke-linejoin:miter;stroke-miterlimit:2.4142;stroke-dasharray:none;stroke-opacity:1;visibility:visible"/><path d="m351.875 716.43 2.501 46.182M345.663 591.301l3.441 70.996" style="fill:none;stroke:red;stroke-width:2.00014;stroke-linecap:butt;stroke-linejoin:miter;stroke-miterlimit:2.4142;stroke-dasharray:none;stroke-opacity:1;visibility:visible"/><path d="m338.152 764.424 2.103.904" style="fill:none;stroke:red;stroke-width:.999997;stroke-linecap:butt;stroke-linejoin:miter;stroke-miterlimit:2.4142;stroke-dasharray:none;stroke-opacity:1;visibility:visible"/><path d="m354.21 759.157 26.605-7.05M245.615 788.25l92.79-24.877" style="fill:none;stroke:red;stroke-width:2.00014;stroke-linecap:butt;stroke-linejoin:miter;stroke-miterlimit:2.4142;stroke-dasharray:none;stroke-opacity:1;visibility:visible"/><path d="m245.315 787.946 4.807 2.868M249.52 790.963l134.483-36.756-3.215-1.941" style="fill:none;stroke:red;stroke-width:.999997;stroke-linecap:butt;stroke-linejoin:miter;stroke-miterlimit:2.4142;stroke-dasharray:none;stroke-opacity:1;visibility:visible"/><path d="m271.95 791.288 102.556-27.769-.6-6.034M249.822 797.297l7.013-1.83" style="fill:none;stroke:red;stroke-width:2.00014;stroke-linecap:butt;stroke-linejoin:miter;stroke-miterlimit:2.4142;stroke-dasharray:none;stroke-opacity:1;visibility:visible"/><path d="M245.465 788.4v6.484l4.657 2.413v-6.642" style="fill:none;stroke:red;stroke-width:.999997;stroke-linecap:butt;stroke-linejoin:miter;stroke-miterlimit:2.4142;stroke-dasharray:none;stroke-opacity:1;visibility:visible"/><path d="m374.395 763.913 246.88 81.792" style="fill:none;stroke:red;stroke-width:2.00014;stroke-linecap:butt;stroke-linejoin:miter;stroke-miterlimit:2.4142;stroke-dasharray:none;stroke-opacity:1;visibility:visible"/><path d="m638.897 844.848 7.2 2.274M373.964 757.276l247.333 81.682" style="fill:none;stroke:red;stroke-width:.999997;stroke-linecap:butt;stroke-linejoin:miter;stroke-miterlimit:2.4142;stroke-dasharray:none;stroke-opacity:1;visibility:visible"/><path d="m621.87 833.873-242.303-78.184M650.588 843.397l-11.538-3.848" style="fill:none;stroke:red;stroke-width:2.00014;stroke-linecap:butt;stroke-linejoin:miter;stroke-miterlimit:2.4142;stroke-dasharray:none;stroke-opacity:1;visibility:visible"/><path d="M384.167 754.102v2.742" style="fill:none;stroke:red;stroke-width:.999997;stroke-linecap:butt;stroke-linejoin:miter;stroke-miterlimit:2.4142;stroke-dasharray:none;stroke-opacity:1;visibility:visible"/><path d="m264.36 786.977 274.923 134.31" style="fill:none;stroke:red;stroke-width:2.00014;stroke-linecap:butt;stroke-linejoin:miter;stroke-miterlimit:2.4142;stroke-dasharray:none;stroke-opacity:1;visibility:visible"/><path d="m257.64 789.43 274.312 136.766" style="fill:none;stroke:red;stroke-width:.999997;stroke-linecap:butt;stroke-linejoin:miter;stroke-miterlimit:2.4142;stroke-dasharray:none;stroke-opacity:1;visibility:visible"/><path d="M257.64 788.817v6.746l264.536 137.992" style="fill:none;stroke:red;stroke-width:2.00014;stroke-linecap:butt;stroke-linejoin:miter;stroke-miterlimit:2.4142;stroke-dasharray:none;stroke-opacity:1;visibility:visible"/><path d="M640.213 842.322c.848-.001 1.537.308 1.537.684-.002.379-.689.688-1.537.688-.847-.001-1.536-.308-1.536-.688 0-.376.69-.684 1.537-.684h-.001M569.468 818.935c.85 0 1.536.307 1.536.686 0 .379-.687.686-1.535.686-.849 0-1.536-.307-1.536-.686.002-.379.687-.686 1.537-.686h-.002M547.08 811.167c.848 0 1.535.307 1.535.687 0 .377-.687.683-1.535.683-.849 0-1.536-.307-1.536-.684 0-.379.687-.686 1.537-.686h-.001M385.13 758.684c.538 0 .974.293.974.65 0 .363-.436.654-.973.654-.54 0-.976-.291-.976-.654.001-.357.437-.65.975-.65M436.962 775.766c.537.002.973.295.973.654 0 .36-.435.65-.973.65-.54 0-.974-.29-.974-.65 0-.36.435-.654.974-.654M454.408 781.734c.539-.002.974.29.974.65 0 .361-.434.655-.974.655-.537-.001-.973-.294-.973-.653-.001-.361.435-.652.972-.652h.001M526.905 917.913c.996 0 1.805.487 1.805 1.086-.002.602-.809 1.087-1.805 1.087-.997 0-1.804-.486-1.804-1.087-.001-.598.807-1.086 1.804-1.086M445.458 878.458c.997-.001 1.804.484 1.804 1.087 0 .597-.808 1.085-1.804 1.085s-1.803-.488-1.803-1.085c0-.603.807-1.088 1.803-1.088v.001M422.675 867.169c.995 0 1.807.489 1.807 1.087-.002.601-.812 1.086-1.807 1.086-.996 0-1.803-.485-1.803-1.087 0-.601.808-1.085 1.803-1.085v-.001M266.941 790.648c.719.001 1.302.41 1.302.914 0 .507-.582.915-1.302.915-.721 0-1.303-.41-1.303-.917 0-.503.584-.911 1.303-.911v-.001M315.317 814.182c.721 0 1.305.41 1.305.915-.002.503-.584.913-1.304.913-.72 0-1.303-.408-1.303-.913 0-.507.585-.915 1.303-.915h-.001M332.047 822.482c.743-.001 1.344.421 1.344.944 0 .52-.603.945-1.344.945-.743 0-1.344-.425-1.344-.946 0-.519.602-.942 1.344-.942v-.001M368.397 755.745c.553 0 1.003.4 1.003.893 0 .495-.45.895-1.004.895-.552 0-1-.401-1-.895-.001-.492.445-.892.999-.892l.002-.001M267.74 783.018c.556 0 1.004.35 1.004.78-.001.432-.449.784-1.003.784-.552 0-1.002-.352-1.002-.784.001-.43.451-.78 1.002-.78h-.001" style="fill:none;stroke:red;stroke-width:.999997;stroke-linecap:butt;stroke-linejoin:miter;stroke-miterlimit:2.4142;stroke-dasharray:none;stroke-opacity:1;visibility:visible"/><path d="m338.735 712.977 286.306 76.128" style="fill:none;stroke:red;stroke-width:2.00014;stroke-linecap:butt;stroke-linejoin:miter;stroke-miterlimit:2.4142;stroke-dasharray:none;stroke-opacity:1;visibility:visible"/><path d="m339.588 664.218 292.27 48.759" style="fill:none;stroke:red;stroke-width:.999997;stroke-linecap:butt;stroke-linejoin:miter;stroke-miterlimit:2.4142;stroke-dasharray:none;stroke-opacity:1;visibility:visible"/><path d="m349.814 662.51 282.892 46.19" style="fill:none;stroke:red;stroke-width:2.00014;stroke-linecap:butt;stroke-linejoin:miter;stroke-miterlimit:2.4142;stroke-dasharray:none;stroke-opacity:1;visibility:visible"/><path d="m349.602 662.508-4.05.644M336.606 668.07s-1.066-3.85 3.408-3.85M339.162 713.189l-2.77-45.12M345.98 663.365l285.876 47.472" style="fill:none;stroke:red;stroke-width:.999997;stroke-linecap:butt;stroke-linejoin:miter;stroke-miterlimit:2.4142;stroke-dasharray:none;stroke-opacity:1;visibility:visible"/><path d="M547.757 586.412c4.478 0 8.107.9 8.107 2.012.001 1.115-3.628 2.013-8.105 2.013-4.479 0-8.109-.9-8.109-2.014.002-1.111 3.63-2.011 8.109-2.011h-.002" style="fill:none;fill-opacity:1;fill-rule:evenodd;stroke:red;stroke-width:1.33333;visibility:visible"/><path d="M547.757 586.412c4.478 0 8.107.9 8.107 2.012.001 1.115-3.628 2.013-8.105 2.013-4.479 0-8.109-.9-8.109-2.014.002-1.111 3.63-2.011 8.109-2.011h-.002" style="fill:none;stroke:red;stroke-width:.999997;stroke-linecap:butt;stroke-linejoin:miter;stroke-miterlimit:2.4142;stroke-dasharray:none;stroke-opacity:1;visibility:visible"/><path d="M682.31 584.94c3.82 0 6.916.701 6.916 1.568.002.867-3.096 1.573-6.916 1.573-3.822-.001-6.92-.706-6.92-1.573s3.098-1.568 6.92-1.568" style="fill:none;fill-opacity:1;fill-rule:evenodd;stroke:red;stroke-width:1.33333;visibility:visible"/><path d="M682.31 584.94c3.82 0 6.916.701 6.916 1.568.002.867-3.096 1.573-6.916 1.573-3.822-.001-6.92-.706-6.92-1.573s3.098-1.568 6.92-1.568" style="fill:none;stroke:red;stroke-width:.999997;stroke-linecap:butt;stroke-linejoin:miter;stroke-miterlimit:2.4142;stroke-dasharray:none;stroke-opacity:1;visibility:visible"/><path d="M225.847 588.145c3.24 0 5.868.472 5.868 1.059 0 .581-2.625 1.056-5.868 1.056-3.242 0-5.869-.475-5.869-1.056 0-.587 2.627-1.059 5.87-1.059h-.001" style="fill:none;fill-opacity:1;fill-rule:evenodd;stroke:red;stroke-width:1.33333;visibility:visible"/><path d="M225.847 588.145c3.24 0 5.868.472 5.868 1.059 0 .581-2.625 1.056-5.868 1.056-3.242 0-5.869-.475-5.869-1.056 0-.587 2.627-1.059 5.87-1.059h-.001" style="fill:none;stroke:red;stroke-width:.999997;stroke-linecap:butt;stroke-linejoin:miter;stroke-miterlimit:2.4142;stroke-dasharray:none;stroke-opacity:1;visibility:visible"/><path d="M376.967 582.693c2.228 0 4.035.54 4.035 1.207 0 .663-1.807 1.203-4.035 1.203s-4.035-.54-4.035-1.204c0-.666 1.808-1.204 4.035-1.204v-.002" style="fill:none;fill-opacity:1;fill-rule:evenodd;stroke:red;stroke-width:1.33333;visibility:visible"/><path d="M376.967 582.693c2.228 0 4.035.54 4.035 1.207 0 .663-1.807 1.203-4.035 1.203s-4.035-.54-4.035-1.204c0-.666 1.808-1.204 4.035-1.204v-.002" style="fill:none;stroke:red;stroke-width:.999997;stroke-linecap:butt;stroke-linejoin:miter;stroke-miterlimit:2.4142;stroke-dasharray:none;stroke-opacity:1;visibility:visible"/><path d="m622.069 829.83-246.674-78.885M654.652 840.293l-15.256-4.97M354.455 756.716l21.815-5.772M245.313 787.677v7.758l4.786 1.848" style="fill:none;stroke:red;stroke-width:2.00014;stroke-linecap:butt;stroke-linejoin:miter;stroke-miterlimit:2.4142;stroke-dasharray:none;stroke-opacity:1;visibility:visible"/><path d="m251.2 796.705.154-6.347-3.237-2.164" style="fill:none;stroke:red;stroke-width:.999997;stroke-linecap:butt;stroke-linejoin:miter;stroke-miterlimit:2.4142;stroke-dasharray:none;stroke-opacity:1;visibility:visible"/><path d="m519.552 590.401-.404 11.982" style="fill:none;stroke:red;stroke-width:2.00014;stroke-linecap:butt;stroke-linejoin:miter;stroke-miterlimit:2.4142;stroke-dasharray:none;stroke-opacity:1;visibility:visible"/><path d="m383.836 590.139-.194-5.05M218.909 597.412l-.4-6.393M701.444 596.513l.325-7.236M541.599 603.193l.2-11.166M340.405 747.995l1.137.115.226-3.653h-1.364l.001 3.538M350.919 745.69l1.136.114.227-3.654h-1.363v3.54M339.125 733.705h1.135l.227-3.31-1.135-.115-.227 3.425M349.808 731.397h1.138l.226-3.31-1.134-.114-.228 3.425-.002-.001M541.599 603.193l-.832-11.288M640.213 842.322l10.137 6.198M531.952 926.196l-7.144 6.012M531.952 926.196l-7.789 7.095" style="fill:none;stroke:red;stroke-width:.999997;stroke-linecap:butt;stroke-linejoin:miter;stroke-miterlimit:2.4142;stroke-dasharray:none;stroke-opacity:1;visibility:visible"/><path d="m376.967 582.693 8.955 1.975M383.642 585.089l2.28-.421" style="fill:none;stroke:red;stroke-width:2.00014;stroke-linecap:butt;stroke-linejoin:miter;stroke-miterlimit:2.4142;stroke-dasharray:none;stroke-opacity:1;visibility:visible"/><path d="m218.909 597.412-1.836-6.111M218.509 591.019l-.835 6.921" style="fill:none;stroke:red;stroke-width:.999997;stroke-linecap:butt;stroke-linejoin:miter;stroke-miterlimit:2.4142;stroke-dasharray:none;stroke-opacity:1;visibility:visible"/><path d="m339.162 713.189 12.713 3.241M338.405 763.373l15.805-4.216M354.21 759.157l-15.805 4.216M256.835 795.467l15.115-4.179M249.52 790.963l7.315 4.504M638.897 844.848l-17.622.857" style="fill:none;stroke:red;stroke-width:2.00014;stroke-linecap:butt;stroke-linejoin:miter;stroke-miterlimit:2.4142;stroke-dasharray:none;stroke-opacity:1;visibility:visible"/><path d="m650.588 843.397-11.691 1.451M639.05 839.549l7.047 7.573M639.05 839.549l-17.753-.591" style="fill:none;stroke:red;stroke-width:.999997;stroke-linecap:butt;stroke-linejoin:miter;stroke-miterlimit:2.4142;stroke-dasharray:none;stroke-opacity:1;visibility:visible"/><path d="m639.396 835.323-17.526-1.45M654.588 841.081l-4 2.316M646.097 847.122l-7.047-7.573M250.122 790.814l14.238-3.837M524.808 932.208l14.475-10.921" style="fill:none;stroke:red;stroke-width:2.00014;stroke-linecap:butt;stroke-linejoin:miter;stroke-miterlimit:2.4142;stroke-dasharray:none;stroke-opacity:1;visibility:visible"/><path d="m524.808 932.208 7.144-6.012M650.35 848.52l-10.137-6.198M650.35 848.52l-10.137-6.198M368.397 755.745l16.733 2.939M454.408 781.734l-17.446-5.968M454.408 781.734l-17.446-5.968M436.962 775.766l17.446 5.968M436.962 775.766l17.446 5.968M251.2 796.705l15.741-6.057M385.13 758.684l-16.733-2.939" style="fill:none;stroke:red;stroke-width:.999997;stroke-linecap:butt;stroke-linejoin:miter;stroke-miterlimit:2.4142;stroke-dasharray:none;stroke-opacity:1;visibility:visible"/><path d="m639.396 835.323-17.327-5.493M646.097 847.122l-6.701-11.799M338.405 763.373l16.05-6.657" style="fill:none;stroke:red;stroke-width:2.00014;stroke-linecap:butt;stroke-linejoin:miter;stroke-miterlimit:2.4142;stroke-dasharray:none;stroke-opacity:1;visibility:visible"/><path d="m250.122 790.655 1.078 6.05M250.122 790.814l-2.005-2.62M376.967 582.693l6.869 7.446M385.922 584.668l-2.28.421M217.073 591.301l1.836 6.111M217.674 597.94l.835-6.921M540.767 603.193l1.032-11.166" style="fill:none;stroke:red;stroke-width:.999997;stroke-linecap:butt;stroke-linejoin:miter;stroke-miterlimit:2.4142;stroke-dasharray:none;stroke-opacity:1;visibility:visible"/><path d="M537.313 865.119c.995.002 1.803.488 1.803 1.091 0 .597-.807 1.084-1.803 1.084-.996.001-1.805-.487-1.805-1.084.001-.603.81-1.09 1.805-1.09v-.001M345.833 786.548c.719 0 1.301.409 1.301.915.001.505-.584.914-1.302.914-.72 0-1.304-.41-1.304-.915 0-.505.584-.914 1.304-.914h.001" style="fill:none;stroke:#00ff4a;stroke-width:.999997;stroke-linecap:butt;stroke-linejoin:miter;stroke-miterlimit:2.4142;stroke-dasharray:none;stroke-opacity:1;visibility:visible"/><path d="M546.783 981.22 690.73 857.185M547.487 981.844l-327.032-184.35" style="fill:none;stroke:#00ff4a;stroke-width:2.00014;stroke-linecap:butt;stroke-linejoin:miter;stroke-miterlimit:2.4142;stroke-dasharray:none;stroke-opacity:1;visibility:visible"/><path d="m690.614 858.014-.181-6.85" style="fill:none;stroke:#00ff4a;stroke-width:.999997;stroke-linecap:butt;stroke-linejoin:miter;stroke-miterlimit:2.4142;stroke-dasharray:none;stroke-opacity:1;visibility:visible"/><path d="m689.673 851.395-24.44-7.805" style="fill:none;stroke:#00ff4a;stroke-width:2.00014;stroke-linecap:butt;stroke-linejoin:miter;stroke-miterlimit:2.4142;stroke-dasharray:none;stroke-opacity:1;visibility:visible"/><path d="M546.544 971.446 221.539 792.514M546.584 971.547l143.537-119.885" style="fill:none;stroke:#00ff4a;stroke-width:.999997;stroke-linecap:butt;stroke-linejoin:miter;stroke-miterlimit:2.4142;stroke-dasharray:none;stroke-opacity:1;visibility:visible"/><path d="m220.255 797.38-.118-5.052 117.553-31.089" style="fill:none;stroke:#00ff4a;stroke-width:2.00014;stroke-linecap:butt;stroke-linejoin:miter;stroke-miterlimit:2.4142;stroke-dasharray:none;stroke-opacity:1;visibility:visible"/><path d="M546.661 971.28v9.715" style="fill:none;stroke:#00ff4a;stroke-width:.999997;stroke-linecap:butt;stroke-linejoin:miter;stroke-miterlimit:2.4142;stroke-dasharray:none;stroke-opacity:1;visibility:visible"/><path d="m531.952 926.196 2.764 11.42" style="fill:none;stroke:red;stroke-width:.999997;stroke-linecap:butt;stroke-linejoin:miter;stroke-miterlimit:2.4142;stroke-dasharray:none;stroke-opacity:1;visibility:visible"/><path d="m338.405 763.373-.715-2.134" style="fill:none;stroke:#00ff4a;stroke-width:2.00014;stroke-linecap:butt;stroke-linejoin:miter;stroke-miterlimit:2.4142;stroke-dasharray:none;stroke-opacity:1;visibility:visible"/></svg>