<svg xmlns="http://www.w3.org/2000/svg" baseProfile="full" height="1122.52" preserveAspectRatio="xMinYMin meet" style="width:602px;height:832px" width="793.701" xml:space="preserve"><path d="m372.411 643.33.441 6.424 135.785 26.823 4.415-3.104v-6.205l-134.237-26.155-6.404 2.215v.002" style="fill:none;stroke:red;stroke-width:2.00014;stroke-linecap:butt;stroke-linejoin:miter;stroke-miterlimit:2.4142;stroke-dasharray:none;stroke-opacity:1;visibility:visible" visibility="hidden"/><path d="M382.648 649.612v-4.13l3.398-1.616M377.642 648.538v-4.314l3.576-1.612M502.233 672.696l.017-3.35 3.295-1.968M496.05 671.254v-3.324l2.982-1.996M508.195 670.148l4.415-3.104" style="fill:none;stroke:red;stroke-width:.999997;stroke-linecap:butt;stroke-linejoin:miter;stroke-miterlimit:2.4142;stroke-dasharray:none;stroke-opacity:1;visibility:visible" visibility="hidden"/><path d="m372.631 643.33 136.006 27.037v5.783" style="fill:none;stroke:red;stroke-width:.999997;stroke-linecap:butt;stroke-linejoin:miter;stroke-miterlimit:2.4142;stroke-dasharray:none;stroke-opacity:1;visibility:visible" visibility="hidden"/><path d="M104.96 723.545v8.643l155.925 66.218 10.69-5.496v-10.732l-157.489-62.817-9.126 4.184" style="fill:none;stroke:red;stroke-width:2.00014;stroke-linecap:butt;stroke-linejoin:miter;stroke-miterlimit:2.4142;stroke-dasharray:none;stroke-opacity:1;visibility:visible" visibility="hidden"/><path d="m123.993 727.733 4.436-2.095M115.39 724.33l4.432-2.617M259.291 781.432l4.724-2.134M250.194 777.99l5.013-2.385M260.885 787.936l10.225-5.196M105.742 724.069l155.664 63.867v9.951" style="fill:none;stroke:red;stroke-width:.999997;stroke-linecap:butt;stroke-linejoin:miter;stroke-miterlimit:2.4142;stroke-dasharray:none;stroke-opacity:1;visibility:visible" visibility="hidden"/><path d="m141.762 747.948 33.79 187.844" style="fill:none;stroke:red;stroke-width:2.00014;stroke-linecap:butt;stroke-linejoin:miter;stroke-miterlimit:2.4142;stroke-dasharray:none;stroke-opacity:1;visibility:visible" visibility="hidden"/><path d="m156.968 754.732 31.68 188.692" style="fill:none;stroke:red;stroke-width:.999997;stroke-linecap:butt;stroke-linejoin:miter;stroke-miterlimit:2.4142;stroke-dasharray:none;stroke-opacity:1;visibility:visible" visibility="hidden"/><path d="m162.46 756.852 30.413 184.452" style="fill:none;stroke:red;stroke-width:2.00014;stroke-linecap:butt;stroke-linejoin:miter;stroke-miterlimit:2.4142;stroke-dasharray:none;stroke-opacity:1;visibility:visible" visibility="hidden"/><path d="m192.872 940.88-3.8 2.333M175.342 935.371s4.858 7.63 13.308 7.63" style="fill:none;stroke:red;stroke-width:.999997;stroke-linecap:butt;stroke-linejoin:miter;stroke-miterlimit:2.4142;stroke-dasharray:none;stroke-opacity:1;visibility:visible" visibility="hidden"/><path d="m192.83 939.653 103.024 67.551v6.103l-11.024 11.07-148.265-103.042-1.14-3.435" style="fill:none;stroke:red;stroke-width:2.00014;stroke-linecap:butt;stroke-linejoin:miter;stroke-miterlimit:2.4142;stroke-dasharray:none;stroke-opacity:1;visibility:visible" visibility="hidden"/><path d="m174.202 926.678-25.852-16.793s-10.264 1.145-12.925 8.778" style="fill:none;stroke:red;stroke-width:2.00014;stroke-linecap:butt;stroke-linejoin:miter;stroke-miterlimit:2.4142;stroke-dasharray:none;stroke-opacity:1;visibility:visible" visibility="hidden"/><path d="m284.07 1018.653.379 5.339M136.945 916.755l147.125 101.897s7.223-11.069 11.404-11.069" style="fill:none;stroke:red;stroke-width:.999997;stroke-linecap:butt;stroke-linejoin:miter;stroke-miterlimit:2.4142;stroke-dasharray:none;stroke-opacity:1;visibility:visible" visibility="hidden"/><path d="m247.353 772.514 153.38-68.026M170.153 806.867l53.912-24.07" style="fill:none;stroke:red;stroke-width:2.00014;stroke-linecap:butt;stroke-linejoin:miter;stroke-miterlimit:2.4142;stroke-dasharray:none;stroke-opacity:1;visibility:visible" visibility="hidden"/><path d="m250.942 774.1 151.636-67.943M171.26 809.927l56.684-25.453M405.116 801.017l12.366-142.375" style="fill:none;stroke:red;stroke-width:.999997;stroke-linecap:butt;stroke-linejoin:miter;stroke-miterlimit:2.4142;stroke-dasharray:none;stroke-opacity:1;visibility:visible" visibility="hidden"/><path d="m404.026 656.085-4.002 48.92M392.752 797.001l3.635-42.347M407.299 800.653l12.363-142.013" style="fill:none;stroke:red;stroke-width:2.00014;stroke-linecap:butt;stroke-linejoin:miter;stroke-miterlimit:2.4142;stroke-dasharray:none;stroke-opacity:1;visibility:visible" visibility="hidden"/><path d="m359.623 789.227 130.588 45.67s.985-3.944 4.912-5.587M407.08 800.396l-1.964.984M392.351 797.44s5.239 3.615 13.093 3.94" style="fill:none;stroke:red;stroke-width:.999997;stroke-linecap:butt;stroke-linejoin:miter;stroke-miterlimit:2.4142;stroke-dasharray:none;stroke-opacity:1;visibility:visible" visibility="hidden"/><path d="m392.682 794.811-27.17-9.198s-5.562-.33-6.547 3.612M358.967 789.227l-.327 2.627 131.247 46.327 4.91-5.258.325-3.285-87.387-30.227" style="fill:none;stroke:red;stroke-width:2.00014;stroke-linecap:butt;stroke-linejoin:miter;stroke-miterlimit:2.4142;stroke-dasharray:none;stroke-opacity:1;visibility:visible" visibility="hidden"/><path d="M242.135 773.214c1.215.002 2.2.594 2.2 1.326 0 .728-.985 1.322-2.2 1.322-1.213 0-2.195-.594-2.195-1.322 0-.734.982-1.326 2.195-1.326M132.905 729.97c1.092 0 1.977.396 1.977.882 0 .488-.885.884-1.977.884-1.093 0-1.979-.396-1.979-.884 0-.486.887-.882 1.979-.882M491.48 664.267c.824-.001 1.492.305 1.492.679 0 .375-.668.68-1.49.68-.828.002-1.495-.304-1.495-.678.001-.378.668-.682 1.494-.682l-.001.001M391.086 644.927c.524 0 .949.243.949.545 0 .298-.425.543-.95.543-.522 0-.948-.245-.948-.543-.002-.302.425-.547.949-.547v.002M405.922 708.262l-4.908-1.488h.34M402.268 705.284l6.734 2.292M400.442 707.156l.253 3.688M408.051 707.41l3.168.636M399.682 704.608l3.422 1.146M408.535 741.941l.796.133-.396 3.59-.797.138M409.463 726.505l1.192.132-.396 3.46h-.928M411.187 709.472h.927l-.398 3.594-.928.132M490.212 834.567l-.325 2.96M374.426 649.885l-.404-6.194 5.665-2.034M507.516 676.131l-.179-6.176 3.835-2.865M106.528 732.716l.217-8.182 9.127-4.253M260.138 797.927l-.265-10.5 10.862-5.653M360.352 792.19l.255-2.617s1.28-3.233 5.93-3.233M488.824 837.759l.49-3.026s.772-4.153 4.559-5.559M138.255 922.446c.001-.33-.716-4.966-.716-4.966s4.179-5.63 12.317-6.46M283.5 1023.404l-.405-5.31s6.103-10.08 11.8-11.307M402.128 693.964l1.152.114.409-3.714H402.3l-.172 3.6M411.884 695.408l1.152.114.41-3.72h-1.387l-.175 3.606M403.776 678.868h1.156l.392-3.366-1.149-.114-.399 3.48M413.535 680.293h1.156l.393-3.371-1.15-.118-.4 3.488.001.001M372.411 643.33l10.237 6.282M372.411 643.33l5.231 5.208M508.195 670.148l-2.65-2.77M508.195 670.148l-9.163-4.214M505.545 667.378l2.65 2.77M115.872 720.281l8.121 7.452M255.207 775.605l4.084 5.827M260.885 787.936l3.13-8.638M264.015 779.298l-13.821-1.308M250.942 774.1l4.265 1.505M264.015 779.298l-3.13 8.638M259.291 781.432l11.819 1.308" style="fill:none;stroke:red;stroke-width:.999997;stroke-linecap:butt;stroke-linejoin:miter;stroke-miterlimit:2.4142;stroke-dasharray:none;stroke-opacity:1;visibility:visible" visibility="hidden"/><path d="m175.342 935.371 17.488 4.282" style="fill:none;stroke:red;stroke-width:2.00014;stroke-linecap:butt;stroke-linejoin:miter;stroke-miterlimit:2.4142;stroke-dasharray:none;stroke-opacity:1;visibility:visible" visibility="hidden"/><path d="m283.5 1023.404.57-4.751" style="fill:none;stroke:red;stroke-width:.999997;stroke-linecap:butt;stroke-linejoin:miter;stroke-miterlimit:2.4142;stroke-dasharray:none;stroke-opacity:1;visibility:visible" visibility="hidden"/><path d="m255.207 775.605-7.854-3.091" style="fill:none;stroke:red;stroke-width:2.00014;stroke-linecap:butt;stroke-linejoin:miter;stroke-miterlimit:2.4142;stroke-dasharray:none;stroke-opacity:1;visibility:visible" visibility="hidden"/><path d="m255.207 775.605-4.265-1.505" style="fill:none;stroke:red;stroke-width:.999997;stroke-linecap:butt;stroke-linejoin:miter;stroke-miterlimit:2.4142;stroke-dasharray:none;stroke-opacity:1;visibility:visible" visibility="hidden"/><path d="m391.086 644.927 12.94 11.158M407.735 799.411l-15.053-4.6M392.682 794.811l15.053 4.6" style="fill:none;stroke:red;stroke-width:2.00014;stroke-linecap:butt;stroke-linejoin:miter;stroke-miterlimit:2.4142;stroke-dasharray:none;stroke-opacity:1;visibility:visible" visibility="hidden"/><path d="m404.026 656.085-12.94-11.158M402.268 705.284l3.654 2.978M401.354 706.774l9.833 2.698M488.824 837.759l1.388-3.192M372.411 643.33l2.015 6.555M508.195 670.148l2.977-3.058M104.96 723.545l1.568 9.171M123.993 727.733l-8.121-7.452M259.291 781.432l11.444.342M358.967 789.227l1.385 2.963M490.212 834.567l-1.388 3.192M284.07 1018.653l-.57 4.751" style="fill:none;stroke:red;stroke-width:.999997;stroke-linecap:butt;stroke-linejoin:miter;stroke-miterlimit:2.4142;stroke-dasharray:none;stroke-opacity:1;visibility:visible" visibility="hidden"/><path d="m257.495 776.484 150.65-68.924M172.093 815.354l62.016-28.297" style="fill:none;stroke:#00ff4a;stroke-width:2.00014;stroke-linecap:butt;stroke-linejoin:miter;stroke-miterlimit:2.4142;stroke-dasharray:none;stroke-opacity:1;visibility:visible"/><path d="m260.842 777.878 150.616-69.557M172.922 818.553l64.824-29.907" style="fill:none;stroke:#00ff4a;stroke-width:.999997;stroke-linecap:butt;stroke-linejoin:miter;stroke-miterlimit:2.4142;stroke-dasharray:none;stroke-opacity:1;visibility:visible"/><path d="m181.238 872.526 226.785-125.148" style="fill:none;stroke:#00ff4a;stroke-width:2.00014;stroke-linecap:butt;stroke-linejoin:miter;stroke-miterlimit:2.4142;stroke-dasharray:none;stroke-opacity:1;visibility:visible"/><path d="m407.902 747.824 3.268-39.506.011-.053" style="fill:none;stroke:#00ff4a;stroke-width:.999997;stroke-linecap:butt;stroke-linejoin:miter;stroke-miterlimit:2.4142;stroke-dasharray:none;stroke-opacity:1;visibility:visible"/><path d="m407.902 747.824-11.515 6.83" style="fill:none;stroke:red;stroke-width:2.00014;stroke-linecap:butt;stroke-linejoin:miter;stroke-miterlimit:2.4142;stroke-dasharray:none;stroke-opacity:1;visibility:visible" visibility="hidden"/><path d="m259.291 781.432-17.156-8.218M511.172 667.09l-19.692-2.823" style="fill:none;stroke:red;stroke-width:.999997;stroke-linecap:butt;stroke-linejoin:miter;stroke-miterlimit:2.4142;stroke-dasharray:none;stroke-opacity:1;visibility:visible" visibility="hidden"/><path d="m255.207 775.605 2.288.879M250.194 777.99l-16.085 9.067" style="fill:none;stroke:#00ff4a;stroke-width:2.00014;stroke-linecap:butt;stroke-linejoin:miter;stroke-miterlimit:2.4142;stroke-dasharray:none;stroke-opacity:1;visibility:visible"/><path d="m264.015 779.298-3.173-1.42M250.194 777.99l-12.448 10.656" style="fill:none;stroke:#00ff4a;stroke-width:.999997;stroke-linecap:butt;stroke-linejoin:miter;stroke-miterlimit:2.4142;stroke-dasharray:none;stroke-opacity:1;visibility:visible"/></svg>