<svg xmlns="http://www.w3.org/2000/svg" baseProfile="full" height="1122.52" preserveAspectRatio="xMinYMin meet" style="width:602px;height:832px" width="793.701" xml:space="preserve"><path d="m450.946 689.828-173.539-62.933" style="fill:none;stroke:red;stroke-width:.999997;stroke-linecap:butt;stroke-linejoin:miter;stroke-miterlimit:2.4142;stroke-dasharray:none;stroke-opacity:1;visibility:visible" visibility="hidden"/><path d="m279.915 636.963 170.027 65.453 13.04-5.032-.5-13.094-172.033-61.929-12.039 4.027 1.507 10.575h-.002" style="fill:none;stroke:red;stroke-width:2.00014;stroke-linecap:butt;stroke-linejoin:miter;stroke-miterlimit:2.4142;stroke-dasharray:none;stroke-opacity:1;visibility:visible" visibility="hidden"/><path d="m448.239 684.24 5.216-1.964M435.899 679.76l6.52-2.014M462.482 685.801l-12.038 4.533-.502 11.578" style="fill:none;stroke:red;stroke-width:.999997;stroke-linecap:butt;stroke-linejoin:miter;stroke-miterlimit:2.4142;stroke-dasharray:none;stroke-opacity:1;visibility:visible" visibility="hidden"/><path d="m319.623 652.021 35.717 234.396" style="fill:none;stroke:red;stroke-width:2.00014;stroke-linecap:butt;stroke-linejoin:miter;stroke-miterlimit:2.4142;stroke-dasharray:none;stroke-opacity:1;visibility:visible" visibility="hidden"/><path d="m335.615 658.977 33.053 234.93" style="fill:none;stroke:red;stroke-width:.999997;stroke-linecap:butt;stroke-linejoin:miter;stroke-miterlimit:2.4142;stroke-dasharray:none;stroke-opacity:1;visibility:visible" visibility="hidden"/><path d="m342.012 660.584 31.986 230.649" style="fill:none;stroke:red;stroke-width:2.00014;stroke-linecap:butt;stroke-linejoin:miter;stroke-miterlimit:2.4142;stroke-dasharray:none;stroke-opacity:1;visibility:visible" visibility="hidden"/><path d="m374.266 890.697-5.332 2.676M355.34 885.88s3.998 7.759 13.327 7.492" style="fill:none;stroke:red;stroke-width:.999997;stroke-linecap:butt;stroke-linejoin:miter;stroke-miterlimit:2.4142;stroke-dasharray:none;stroke-opacity:1;visibility:visible" visibility="hidden"/><path d="M373.652 887.297 491.92 970.38v6.984l-14.876 12.763-165.667-120.504-.864-5.201M353.474 874.91l-28.254-20.603s-12.794.267-14.926 9.9" style="fill:none;stroke:red;stroke-width:2.00014;stroke-linecap:butt;stroke-linejoin:miter;stroke-miterlimit:2.4142;stroke-dasharray:none;stroke-opacity:1;visibility:visible" visibility="hidden"/><path d="M427.546 674.945c1.22 0 2.213.553 2.213 1.236 0 .683-.99 1.235-2.212 1.235-1.225-.002-2.217-.552-2.217-1.236 0-.684.992-1.235 2.216-1.235M308.454 632.461c.952 0 1.723.554 1.723 1.236 0 .683-.771 1.235-1.722 1.235-.952 0-1.722-.552-1.722-1.235 0-.682.77-1.236 1.72-1.236h.001M297.97 629.916l6.02-1.516M290.447 627.396l5.519-2.013M476.757 983.192s4.75-9.102 14.683-13.005" style="fill:none;stroke:red;stroke-width:.999997;stroke-linecap:butt;stroke-linejoin:miter;stroke-miterlimit:2.4142;stroke-dasharray:none;stroke-opacity:1;visibility:visible" visibility="hidden"/><path d="m310.945 864.422 165.812 118.337.863 6.067M281.833 637.477l-1.35-9.737 12.279-4.192M448.274 701.172l.546-12.054 13.1-4.384" style="fill:none;stroke:red;stroke-width:.999997;stroke-linecap:butt;stroke-linejoin:miter;stroke-miterlimit:2.4142;stroke-dasharray:none;stroke-opacity:1;visibility:visible" visibility="hidden"/><path d="m313.179 870.811-.705-5.48s-.176-8.488 13.56-9.725M476.04 989.315l-.939-7.68s7.247-11.048 15.434-12.395M442.419 677.746l5.82 6.494M435.899 679.76l17.556 2.516M453.455 682.276l-17.556-2.516M448.239 684.24l-5.82-6.494M448.239 684.24l14.243 1.561M292.762 623.548l5.208 6.368M292.762 623.548l-2.315 3.848M290.447 627.396l2.315-3.848M448.239 684.24l13.681.494M310.513 864.422l2.666 6.389" style="fill:none;stroke:red;stroke-width:.999997;stroke-linecap:butt;stroke-linejoin:miter;stroke-miterlimit:2.4142;stroke-dasharray:none;stroke-opacity:1;visibility:visible" visibility="hidden"/><path d="m449.489 678.798 136.26-62.706" style="fill:none;stroke:#00ff4a;stroke-width:2.00014;stroke-linecap:butt;stroke-linejoin:miter;stroke-miterlimit:2.4142;stroke-dasharray:none;stroke-opacity:1;visibility:visible" visibility="hidden"/><path d="m456.055 681.792 132.298-61.76.094-2.6M452.77 680.49l135.26-63.206-2.283-.867" style="fill:none;stroke:#00ff4a;stroke-width:.999997;stroke-linecap:butt;stroke-linejoin:miter;stroke-miterlimit:2.4142;stroke-dasharray:none;stroke-opacity:1;visibility:visible" visibility="hidden"/><path d="m421.906 692.65-71.32 32.171" style="fill:none;stroke:#00ff4a;stroke-width:2.00014;stroke-linecap:butt;stroke-linejoin:miter;stroke-miterlimit:2.4142;stroke-dasharray:none;stroke-opacity:1;visibility:visible" visibility="hidden"/><path d="m588.472 665.461-4.703-1.684-223.706 125.844M429.128 694.464l-76.82 35.746M425.968 693.284l-74.48 34.374" style="fill:none;stroke:#00ff4a;stroke-width:.999997;stroke-linecap:butt;stroke-linejoin:miter;stroke-miterlimit:2.4142;stroke-dasharray:none;stroke-opacity:1;visibility:visible" visibility="hidden"/><path d="M588.121 665.505 360.975 796.418" style="fill:none;stroke:#00ff4a;stroke-width:2.00014;stroke-linecap:butt;stroke-linejoin:miter;stroke-miterlimit:2.4142;stroke-dasharray:none;stroke-opacity:1;visibility:visible" visibility="hidden"/><path d="M549.617 547.357v5.53l163.885 23.082 3.836-4.952v-7.153l-163.335-18.707-4.386 2.2" style="fill:none;stroke:#9500ff;stroke-width:2.00014;stroke-linecap:butt;stroke-linejoin:miter;stroke-miterlimit:2.4142;stroke-dasharray:none;stroke-opacity:1;visibility:visible"/><path d="M698.018 570.577v-4.207l2.467-2.725M705.418 571.32l-.248-3.961 3.454-2.972M562.772 552.584v-3.85l1.918-1.101M557.565 552.036v-3.303l2.192-1.376M712.406 568.267l4.386-3.854" style="fill:none;stroke:#9500ff;stroke-width:.999997;stroke-linecap:butt;stroke-linejoin:miter;stroke-miterlimit:2.4142;stroke-dasharray:none;stroke-opacity:1;visibility:visible"/><path d="m549.617 547.357 162.79 20.91v7.173" style="fill:none;stroke:#9500ff;stroke-width:.999997;stroke-linecap:butt;stroke-linejoin:miter;stroke-miterlimit:2.4142;stroke-dasharray:none;stroke-opacity:1;visibility:visible"/><path d="m583.783 668.208-1.92 57.052M587.69 558.91l-1.966 57.17" style="fill:none;stroke:#9500ff;stroke-width:2.00014;stroke-linecap:butt;stroke-linejoin:miter;stroke-miterlimit:2.4142;stroke-dasharray:none;stroke-opacity:1;visibility:visible"/><path d="m603.872 560.859-9.062 168.298" style="fill:none;stroke:#9500ff;stroke-width:.999997;stroke-linecap:butt;stroke-linejoin:miter;stroke-miterlimit:2.4142;stroke-dasharray:none;stroke-opacity:1;visibility:visible"/><path d="m606.461 561.508-9.061 166.35" style="fill:none;stroke:#9500ff;stroke-width:2.00014;stroke-linecap:butt;stroke-linejoin:miter;stroke-miterlimit:2.4142;stroke-dasharray:none;stroke-opacity:1;visibility:visible"/><path d="m581.759 725.424 13.166 3.411 2.547-1.281M595.135 666.938l1.94.162v-5.684h-1.941v5.522h.001M587.211 602.288l1.618.16.326-5.199h-1.945l.001 5.039M598.873 603.568l1.619.163.322-5.196h-1.94l-.001 5.033M596.59 645.007l1.619.163.323-5.195h-1.942v5.033-.001M588.048 581.4h1.62l.322-4.715-1.615-.161-.327 4.873v.003M599.71 582.677h1.617l.328-4.709-1.621-.163-.324 4.875v-.003M597.884 623.89h1.619l.325-4.713-1.619-.161-.325 4.873v.001M585.424 621.268l-1.295 42.69" style="fill:none;stroke:#9500ff;stroke-width:.999997;stroke-linecap:butt;stroke-linejoin:miter;stroke-miterlimit:2.4142;stroke-dasharray:none;stroke-opacity:1;visibility:visible"/><path d="m581.292 722.61-32.872-6.522s-7.263 1.534-7.645 4.986" style="fill:none;stroke:#9500ff;stroke-width:2.00014;stroke-linecap:butt;stroke-linejoin:miter;stroke-miterlimit:2.4142;stroke-dasharray:none;stroke-opacity:1;visibility:visible"/><path d="m540.776 721.46 157.093 37.218s1.53-6.522 3.825-6.906" style="fill:none;stroke:#9500ff;stroke-width:.999997;stroke-linecap:butt;stroke-linejoin:miter;stroke-miterlimit:2.4142;stroke-dasharray:none;stroke-opacity:1;visibility:visible"/><path d="M540.777 721.46v4.22l157.477 36.836 3.056-6.14.19-4.988M597.345 726.83l104.347 24.558" style="fill:none;stroke:#9500ff;stroke-width:2.00014;stroke-linecap:butt;stroke-linejoin:miter;stroke-miterlimit:2.4142;stroke-dasharray:none;stroke-opacity:1;visibility:visible"/><path d="M697.87 758.102v3.648M585.467 624.162h1.647l.093-3.511M584.921 644.348h1.46l.184-5.32-1.828-.37M584.007 662.334h1.643l.183-4.954-1.28-.368M690.606 561.884c.84 0 1.52.341 1.52.763 0 .42-.68.762-1.52.762-.836.001-1.516-.342-1.516-.762-.001-.422.679-.763 1.516-.763M571.379 547.857c.585 0 1.06.273 1.06.61.003.336-.474.61-1.059.61-.588-.001-1.065-.275-1.065-.611 0-.337.475-.609 1.064-.609M551.513 552.988v-5.072l4.523-1.946M711.278 575.738v-7.439l4.755-4.372M542.7 726.156v-4.398s1.684-4.565 8.421-4.565M697.049 762.141l-.256-3.608s.835-5.8 3.85-7.413M712.406 568.267l-3.782-3.88M549.617 547.357l13.155 5.227M549.617 547.357l15.073.276M549.617 547.357l7.948 4.679M708.624 564.387l3.782 3.88" style="fill:none;stroke:#9500ff;stroke-width:.999997;stroke-linecap:butt;stroke-linejoin:miter;stroke-miterlimit:2.4142;stroke-dasharray:none;stroke-opacity:1;visibility:visible"/><path d="m584.129 663.958-.346 4.25M587.207 620.651l-1.483-4.571" style="fill:none;stroke:#9500ff;stroke-width:2.00014;stroke-linecap:butt;stroke-linejoin:miter;stroke-miterlimit:2.4142;stroke-dasharray:none;stroke-opacity:1;visibility:visible"/><path d="m584.007 662.334 11.128 4.604M587.207 620.651l.004-18.363M599.71 582.677l-11.662-1.277M588.048 581.4l11.662 1.277M587.207 620.651l10.677 3.239M585.724 616.08l-.3 5.188M583.783 668.208l.346-4.25" style="fill:none;stroke:#9500ff;stroke-width:.999997;stroke-linecap:butt;stroke-linejoin:miter;stroke-miterlimit:2.4142;stroke-dasharray:none;stroke-opacity:1;visibility:visible"/><path d="m581.759 725.424-.467-2.814" style="fill:none;stroke:#9500ff;stroke-width:2.00014;stroke-linecap:butt;stroke-linejoin:miter;stroke-miterlimit:2.4142;stroke-dasharray:none;stroke-opacity:1;visibility:visible"/><path d="m697.049 762.141.821-4.039M585.724 616.08l1.483 4.571M595.135 666.938l-11.128-4.604M549.617 547.357l1.896 5.631M549.617 547.357l6.419-1.387M540.777 721.46l1.923 4.696" style="fill:none;stroke:#9500ff;stroke-width:.999997;stroke-linecap:butt;stroke-linejoin:miter;stroke-miterlimit:2.4142;stroke-dasharray:none;stroke-opacity:1;visibility:visible"/><path d="m453.455 682.276-3.966-3.478" style="fill:none;stroke:#00ff4a;stroke-width:2.00014;stroke-linecap:butt;stroke-linejoin:miter;stroke-miterlimit:2.4142;stroke-dasharray:none;stroke-opacity:1;visibility:visible" visibility="hidden"/><path d="m453.455 682.276 2.6-.484M585.724 616.08l2.723 1.352M453.455 682.276l-.685-1.786" style="fill:none;stroke:#00ff4a;stroke-width:.999997;stroke-linecap:butt;stroke-linejoin:miter;stroke-miterlimit:2.4142;stroke-dasharray:none;stroke-opacity:1;visibility:visible" visibility="hidden"/><path d="m587.211 602.288 11.662 1.28M588.472 665.461l-3.919-8.449M564.69 547.633l6.689.224" style="fill:none;stroke:#9500ff;stroke-width:.999997;stroke-linecap:butt;stroke-linejoin:miter;stroke-miterlimit:2.4142;stroke-dasharray:none;stroke-opacity:1;visibility:visible"/></svg>