<svg xmlns="http://www.w3.org/2000/svg" baseProfile="full" height="1122.52" preserveAspectRatio="xMinYMin meet" style="width:602px;height:832px" width="793.701" xml:space="preserve"><path d="m377.57 614.152 106.645 25.213M365.976 604.841l6.64-1.797 142.514 33.219v6.605l-5.414 2.702-7.248-1.285" style="fill:none;stroke:red;stroke-width:2.00014;stroke-linecap:butt;stroke-linejoin:miter;stroke-miterlimit:2.4142;stroke-dasharray:none;stroke-opacity:1;visibility:visible" visibility="hidden"/><path d="m509.409 638.783-143.278-33.515M515.128 636.648l-5.601 2.327v6.598M375.434 607.357l4.386-.834M371.792 606.52l3.783-.845M366.44 604.829v2.549M500.299 636.625l4.605-1.641M496.112 635.651l4.428-1.521" style="fill:none;stroke:red;stroke-width:.999997;stroke-linecap:butt;stroke-linejoin:miter;stroke-miterlimit:2.4142;stroke-dasharray:none;stroke-opacity:1;visibility:visible" visibility="hidden"/><path d="M224.609 768.668 69.096 693.05v-9.489l9.45-2.583 157.518 71.302v12.089l-11.454 4.297-.001.002" style="fill:none;stroke:red;stroke-width:2.00014;stroke-linecap:butt;stroke-linejoin:miter;stroke-miterlimit:2.4142;stroke-dasharray:none;stroke-opacity:1;visibility:visible" visibility="hidden"/><path d="m225.183 747.68-6.3 2.014M220.601 745.667l-7.161 2.301M88.856 685.865l-6.302 1.15M85.707 684.142l-6.592 1.436M224.895 756.881l11.172-4.027M69.38 684.142l156.089 73.024v11.516" style="fill:none;stroke:red;stroke-width:.999997;stroke-linecap:butt;stroke-linejoin:miter;stroke-miterlimit:2.4142;stroke-dasharray:none;stroke-opacity:1;visibility:visible" visibility="hidden"/><path d="m137.318 786.873 66.519-28.293M136.941 781.214l60.13-25.276M218.585 743.548l177.67-72.114M135.814 777.44l58.344-23.705" style="fill:none;stroke:red;stroke-width:2.00014;stroke-linecap:butt;stroke-linejoin:miter;stroke-miterlimit:2.4142;stroke-dasharray:none;stroke-opacity:1;visibility:visible" visibility="hidden"/><path d="m138.444 789.891 68.4-29.423" style="fill:none;stroke:red;stroke-width:.999997;stroke-linecap:butt;stroke-linejoin:miter;stroke-miterlimit:2.4142;stroke-dasharray:none;stroke-opacity:1;visibility:visible" visibility="hidden"/><path d="M148.592 847.238 400.355 721.95l3.485-36.064" style="fill:none;stroke:red;stroke-width:2.00014;stroke-linecap:butt;stroke-linejoin:miter;stroke-miterlimit:2.4142;stroke-dasharray:none;stroke-opacity:1;visibility:visible" visibility="hidden"/><path d="m406.066 684.908-8.91 92.37M411.962 622.91l-4.526 46.407" style="fill:none;stroke:red;stroke-width:.999997;stroke-linecap:butt;stroke-linejoin:miter;stroke-miterlimit:2.4142;stroke-dasharray:none;stroke-opacity:1;visibility:visible" visibility="hidden"/><path d="m408.607 684.018-9.061 91.823M414.828 622.91l-4.848 45.516" style="fill:none;stroke:red;stroke-width:2.00014;stroke-linecap:butt;stroke-linejoin:miter;stroke-miterlimit:2.4142;stroke-dasharray:none;stroke-opacity:1;visibility:visible" visibility="hidden"/><path d="M402.418 702.08h.782l.628-4.872h-.942M400.459 719.681l.94-.475.625-4.718h-.938" style="fill:none;stroke:red;stroke-width:.999997;stroke-linecap:butt;stroke-linejoin:miter;stroke-miterlimit:2.4142;stroke-dasharray:none;stroke-opacity:1;visibility:visible" visibility="hidden"/><path d="m388.838 727.591-4.216 45.374M398.782 619.79l-4.692 52.77" style="fill:none;stroke:red;stroke-width:2.00014;stroke-linecap:butt;stroke-linejoin:miter;stroke-miterlimit:2.4142;stroke-dasharray:none;stroke-opacity:1;visibility:visible" visibility="hidden"/><path d="m399.874 775.632-2.59 1.485M384.888 772.658s4.626 5.016 12.396 4.276M396.042 671.841l2.74.685" style="fill:none;stroke:red;stroke-width:.999997;stroke-linecap:butt;stroke-linejoin:miter;stroke-miterlimit:2.4142;stroke-dasharray:none;stroke-opacity:1;visibility:visible" visibility="hidden"/><path d="M349.408 763.384s2.1-4.814 7.494-4.814M399.906 774.988l91.874 36.235v3.314l-5.992 6.617-136.08-55.061v-2.71M356.602 758.27l28.317 11.152" style="fill:none;stroke:red;stroke-width:2.00014;stroke-linecap:butt;stroke-linejoin:miter;stroke-miterlimit:2.4142;stroke-dasharray:none;stroke-opacity:1;visibility:visible" visibility="hidden"/><path d="M485.185 820.554v-3.914M349.708 763.384l135.177 53.56s1.8-5.118 6.596-5.421" style="fill:none;stroke:red;stroke-width:.999997;stroke-linecap:butt;stroke-linejoin:miter;stroke-miterlimit:2.4142;stroke-dasharray:none;stroke-opacity:1;visibility:visible" visibility="hidden"/><path d="m105.742 711.508 37.523 203.965" style="fill:none;stroke:red;stroke-width:2.00014;stroke-linecap:butt;stroke-linejoin:miter;stroke-miterlimit:2.4142;stroke-dasharray:none;stroke-opacity:1;visibility:visible" visibility="hidden"/><path d="M122.734 719.325 156.714 924" style="fill:none;stroke:red;stroke-width:.999997;stroke-linecap:butt;stroke-linejoin:miter;stroke-miterlimit:2.4142;stroke-dasharray:none;stroke-opacity:1;visibility:visible" visibility="hidden"/><path d="m127.689 722.165 31.86 198.993" style="fill:none;stroke:red;stroke-width:2.00014;stroke-linecap:butt;stroke-linejoin:miter;stroke-miterlimit:2.4142;stroke-dasharray:none;stroke-opacity:1;visibility:visible" visibility="hidden"/><path d="M143.265 915.474s4.955 7.993 13.273 8.173" style="fill:none;stroke:red;stroke-width:.999997;stroke-linecap:butt;stroke-linejoin:miter;stroke-miterlimit:2.4142;stroke-dasharray:none;stroke-opacity:1;visibility:visible" visibility="hidden"/><path d="m159.44 918.27 106.066 78.606-.287 5.754-12.902 11.802L102.65 898.15v-4.03s4.012-7.482 13.474-7.194l25.54 18.393" style="fill:none;stroke:red;stroke-width:2.00014;stroke-linecap:butt;stroke-linejoin:miter;stroke-miterlimit:2.4142;stroke-dasharray:none;stroke-opacity:1;visibility:visible" visibility="hidden"/><path d="M488.167 631.084c.993 0 1.802.673 1.802 1.506.001.83-.808 1.505-1.802 1.505-.992 0-1.8-.675-1.8-1.507.001-.83.808-1.504 1.801-1.504h-.001M387.34 606.984c.995 0 1.799.537 1.799 1.204 0 .667-.804 1.204-1.8 1.204-.993 0-1.8-.537-1.8-1.204 0-.668.807-1.204 1.8-1.204h.001M206.686 741.34c1.327 0 2.401.672 2.401 1.506 0 .83-1.074 1.504-2.4 1.504-1.327.002-2.4-.673-2.4-1.505-.001-.833 1.071-1.505 2.399-1.505M93.253 690.126c1.327 0 2.403.54 2.403 1.204 0 .668-1.076 1.208-2.4 1.208-1.33 0-2.404-.54-2.404-1.208.001-.665 1.076-1.204 2.401-1.204M252.603 1008.964v4.604M103.222 894.407l149.095 114.844s8.313-11.227 12.616-11.512M508.062 645.06l.21-6.348 5.681-2.472M71.06 694.008v-8.864l10.002-2.95M223.682 767.93l.13-12.064 11.499-3.893M351.637 766.838l-.102-2.57s-.255-4.362 6.96-4.67M483.935 820.306l.141-3.593s1.474-5.71 6.67-5.92" style="fill:none;stroke:red;stroke-width:.999997;stroke-linecap:butt;stroke-linejoin:miter;stroke-miterlimit:2.4142;stroke-dasharray:none;stroke-opacity:1;visibility:visible" visibility="hidden"/><path d="M104.365 899.347v-4.026s2.187-7.321 13.248-7.078M251.4 1013.363v-4.67s6.001-10.543 13.502-11.903M396.864 659.324l1.107.111.399-3.575h-1.342l-.164 3.464M406.256 660.715l1.11.109.393-3.58h-1.336l-.168 3.47.001.001M398.451 644.795h1.113l.379-3.24-1.11-.112-.382 3.352M407.843 646.167h1.113l.379-3.247-1.107-.11-.385 3.357" style="fill:none;stroke:red;stroke-width:.999997;stroke-linecap:butt;stroke-linejoin:miter;stroke-miterlimit:2.4142;stroke-dasharray:none;stroke-opacity:1;visibility:visible" visibility="hidden"/><path d="m502.468 644.285-18.253-4.92M509.409 638.783l-6.941 5.502" style="fill:none;stroke:red;stroke-width:2.00014;stroke-linecap:butt;stroke-linejoin:miter;stroke-miterlimit:2.4142;stroke-dasharray:none;stroke-opacity:1;visibility:visible" visibility="hidden"/><path d="m502.468 644.285 6.941-5.502M500.299 636.625l14.829.023M375.575 605.675l-.141 1.682M371.792 606.52l8.028.003M379.82 606.523l-8.028-.003M375.434 607.357l.141-1.682M500.54 634.13l-.241 2.495M496.112 635.651l8.792-.667M504.904 634.984l-8.792.667M500.299 636.625l.241-2.495M218.585 743.548l6.598 4.132M220.601 745.667l-1.718 4.027M218.585 743.548l2.016 2.119M225.183 747.68l-11.743.288M79.115 685.578l9.741.287M85.707 684.142l-3.153 2.873M82.554 687.015l3.153-2.873M81.062 682.194l-1.947 3.384M225.183 747.68l-.288 9.201M218.883 749.694l17.184 3.16" style="fill:none;stroke:red;stroke-width:.999997;stroke-linecap:butt;stroke-linejoin:miter;stroke-miterlimit:2.4142;stroke-dasharray:none;stroke-opacity:1;visibility:visible" visibility="hidden"/><path d="m213.44 747.968-16.369 7.97M220.601 745.667l-2.016-2.119" style="fill:none;stroke:red;stroke-width:2.00014;stroke-linecap:butt;stroke-linejoin:miter;stroke-miterlimit:2.4142;stroke-dasharray:none;stroke-opacity:1;visibility:visible" visibility="hidden"/><path d="m224.895 756.881-18.051 3.587" style="fill:none;stroke:red;stroke-width:.999997;stroke-linecap:butt;stroke-linejoin:miter;stroke-miterlimit:2.4142;stroke-dasharray:none;stroke-opacity:1;visibility:visible" visibility="hidden"/><path d="m394.09 672.56 9.75 13.326" style="fill:none;stroke:red;stroke-width:2.00014;stroke-linecap:butt;stroke-linejoin:miter;stroke-miterlimit:2.4142;stroke-dasharray:none;stroke-opacity:1;visibility:visible" visibility="hidden"/><path d="m407.436 669.317-1.37 15.591M408.607 684.018l-1.171-14.701" style="fill:none;stroke:red;stroke-width:.999997;stroke-linecap:butt;stroke-linejoin:miter;stroke-miterlimit:2.4142;stroke-dasharray:none;stroke-opacity:1;visibility:visible" visibility="hidden"/><path d="m407.436 669.317 1.171 14.701M408.607 684.018l1.373-15.592M403.84 685.886l-9.75-13.326M399.906 774.988l-14.987-5.566" style="fill:none;stroke:red;stroke-width:2.00014;stroke-linecap:butt;stroke-linejoin:miter;stroke-miterlimit:2.4142;stroke-dasharray:none;stroke-opacity:1;visibility:visible" visibility="hidden"/><path d="m483.935 820.306 1.25-3.666M251.4 1013.363l1.203-4.399M500.299 636.625l13.654-.385M79.115 685.578l1.947-3.384M224.895 756.881l10.416-4.908M349.708 763.383l1.929 3.455M485.185 816.64l-1.25 3.666M252.603 1008.964l-1.203 4.399" style="fill:none;stroke:red;stroke-width:.999997;stroke-linecap:butt;stroke-linejoin:miter;stroke-miterlimit:2.4142;stroke-dasharray:none;stroke-opacity:1;visibility:visible" visibility="hidden"/><path d="m217.575 743.632 277.81-108.465" style="fill:none;stroke:#00ff4a;stroke-width:2.00014;stroke-linecap:butt;stroke-linejoin:miter;stroke-miterlimit:2.4142;stroke-dasharray:none;stroke-opacity:1;visibility:visible" visibility="hidden"/><path d="m227.651 748.614 274.586-111.38v7.244L236.491 756.779M426.315 664.72c1.157.002 2.1.408 2.1.91 0 .496-.943.9-2.101.9-1.16 0-2.1-.402-2.1-.902s.94-.906 2.1-.906l.001-.002M325.82 703.984c1.163 0 2.1.536 2.1 1.204.002.668-.938 1.206-2.098 1.206s-2.1-.538-2.1-1.206c-.002-.666.938-1.204 2.098-1.204" style="fill:none;stroke:#00ff4a;stroke-width:.999997;stroke-linecap:butt;stroke-linejoin:miter;stroke-miterlimit:2.4142;stroke-dasharray:none;stroke-opacity:1;visibility:visible" visibility="hidden"/><path d="m236.095 757.004 265.28-112.667" style="fill:none;stroke:#00ff4a;stroke-width:2.00014;stroke-linecap:butt;stroke-linejoin:miter;stroke-miterlimit:2.4142;stroke-dasharray:none;stroke-opacity:1;visibility:visible" visibility="hidden"/><path d="m82.784 683.014 287.74-76.633" style="fill:none;stroke:#9500ff;stroke-width:2.00014;stroke-linecap:butt;stroke-linejoin:miter;stroke-miterlimit:2.4142;stroke-dasharray:none;stroke-opacity:1;visibility:visible"/><path d="m91.797 686.406 285.631-78.186v5.823l-274.39 77.74M294.74 627.887c1.233.001 2.23.448 2.23.997 0 .546-.997.993-2.23.993-1.23 0-2.228-.445-2.228-.993-.001-.55.999-.996 2.229-.996l-.001-.001M200.985 652.774c1.16-.001 2.1.537 2.1 1.202 0 .667-.94 1.205-2.1 1.205-1.16 0-2.102-.538-2.102-1.204 0-.666.943-1.204 2.103-1.204l-.001.001" style="fill:none;stroke:#9500ff;stroke-width:.999997;stroke-linecap:butt;stroke-linejoin:miter;stroke-miterlimit:2.4142;stroke-dasharray:none;stroke-opacity:1;visibility:visible"/><path d="m103.637 691.634 273.32-77" style="fill:none;stroke:#9500ff;stroke-width:2.00014;stroke-linecap:butt;stroke-linejoin:miter;stroke-miterlimit:2.4142;stroke-dasharray:none;stroke-opacity:1;visibility:visible"/><path d="m375.575 605.675-9.135 1.703" style="fill:none;stroke:red;stroke-width:.999997;stroke-linecap:butt;stroke-linejoin:miter;stroke-miterlimit:2.4142;stroke-dasharray:none;stroke-opacity:1;visibility:visible" visibility="hidden"/><path d="m197.071 755.938 6.766 2.642M197.071 755.938l-2.913-2.203" style="fill:none;stroke:red;stroke-width:2.00014;stroke-linecap:butt;stroke-linejoin:miter;stroke-miterlimit:2.4142;stroke-dasharray:none;stroke-opacity:1;visibility:visible" visibility="hidden"/><path d="m504.904 634.984-16.737-3.9M504.904 634.984l-16.737-3.9M379.82 606.523l7.52.461M371.792 606.52l15.548.464M225.183 747.68l-18.497-6.34M213.44 747.968l-6.754-6.628M88.856 685.865l4.397 4.261M79.115 685.578l14.138 4.548M500.54 634.13l7.522 10.93M407.436 669.317l-10.572-9.993" style="fill:none;stroke:red;stroke-width:.999997;stroke-linecap:butt;stroke-linejoin:miter;stroke-miterlimit:2.4142;stroke-dasharray:none;stroke-opacity:1;visibility:visible" visibility="hidden"/><path d="m220.601 745.667-3.026-2.035" style="fill:none;stroke:#00ff4a;stroke-width:2.00014;stroke-linecap:butt;stroke-linejoin:miter;stroke-miterlimit:2.4142;stroke-dasharray:none;stroke-opacity:1;visibility:visible" visibility="hidden"/><path d="m225.183 747.68 2.468.934" style="fill:none;stroke:#00ff4a;stroke-width:.999997;stroke-linecap:butt;stroke-linejoin:miter;stroke-miterlimit:2.4142;stroke-dasharray:none;stroke-opacity:1;visibility:visible" visibility="hidden"/><path d="m500.299 636.625 1.076 7.712" style="fill:none;stroke:#00ff4a;stroke-width:2.00014;stroke-linecap:butt;stroke-linejoin:miter;stroke-miterlimit:2.4142;stroke-dasharray:none;stroke-opacity:1;visibility:visible" visibility="hidden"/><path d="m81.062 682.194 1.722.82M371.792 606.52l-1.268-.139" style="fill:none;stroke:#9500ff;stroke-width:2.00014;stroke-linecap:butt;stroke-linejoin:miter;stroke-miterlimit:2.4142;stroke-dasharray:none;stroke-opacity:1;visibility:visible"/><path d="m88.856 685.865 2.941.541" style="fill:none;stroke:#9500ff;stroke-width:.999997;stroke-linecap:butt;stroke-linejoin:miter;stroke-miterlimit:2.4142;stroke-dasharray:none;stroke-opacity:1;visibility:visible"/></svg>