<svg xmlns="http://www.w3.org/2000/svg" baseProfile="full" height="1122.52" preserveAspectRatio="xMinYMin meet" style="width:765px;height:943px" width="793.701" xml:space="preserve"><path d="m146.635 107.92-.41-15.94M146.05 110.24l.547-2.016M245.983 60.862l-.023 15.675M246.003 76.823l.563 1.921M245.975 76.536l.03.285" style="fill:none;stroke:red;stroke-width:1.6;stroke-linecap:round;stroke-linejoin:round;stroke-miterlimit:10;stroke-dasharray:none;stroke-opacity:1;visibility:visible"/><path d="m315.82 136.963.02-.848M406.725 103.457l-.039.91M161.246 85.205l-.016-.885M326.504 79.405l-.019.876M252.92 57.337v.845" style="fill:none;stroke:red;stroke-width:.999997;stroke-linecap:round;stroke-linejoin:round;stroke-miterlimit:10;stroke-dasharray:none;stroke-opacity:1;visibility:visible"/><path d="m140.71 90.092.524 19.45M135.904 88.444l.543 19.403M141.346 111.65l-.101-1.863M145.89 110.337l-4.544 1.313M137.617 110.324l3.17-.912M136.493 108.104l.665 2.059" style="fill:none;stroke:red;stroke-width:1.6;stroke-linecap:round;stroke-linejoin:round;stroke-miterlimit:10;stroke-dasharray:none;stroke-opacity:1;visibility:visible"/><path d="m247.46 63.45.059-.381.162-.291.247-.15.288.009.288.169.245.299.163.388.056.418-.059.38-.162.29-.25.152-.286-.01-.287-.166-.243-.302-.165-.388-.056-.417M247.44 73.855l.059-.379.162-.286.244-.147.288.008.288.168.246.303.16.386.058.416-.058.38-.166.286-.242.149-.288-.012-.286-.17-.246-.297-.163-.388-.056-.417" style="fill:none;stroke:red;stroke-width:.866664;stroke-linecap:round;stroke-linejoin:round;stroke-miterlimit:10;stroke-dasharray:none;stroke-opacity:1;visibility:visible"/><path d="m255.595 61.07-.059 15.547" style="fill:none;stroke:red;stroke-width:1.6;stroke-linecap:round;stroke-linejoin:round;stroke-miterlimit:10;stroke-dasharray:none;stroke-opacity:1;visibility:visible"/><path d="M250.19 79.999c.177.097.508.117.735.045a.35.35 0 0 0 .093-.037" style="fill:none;stroke:red;stroke-width:.999997;stroke-linecap:round;stroke-linejoin:round;stroke-miterlimit:10;stroke-dasharray:none;stroke-opacity:1;visibility:visible"/><path d="m250.3 79.96-3.616-1.139M255.499 76.86l-.581 1.944M254.918 78.804l-4.019 1.161" style="fill:none;stroke:red;stroke-width:1.6;stroke-linecap:round;stroke-linejoin:round;stroke-miterlimit:10;stroke-dasharray:none;stroke-opacity:1;visibility:visible"/><path d="m319.383 142.444-.185 8.732M319.383 142.444 135.015 80.259" style="fill:none;stroke:red;stroke-width:.999997;stroke-linecap:round;stroke-linejoin:round;stroke-miterlimit:10;stroke-dasharray:none;stroke-opacity:1;visibility:visible"/><path d="M319.198 151.175 135.241 88.219M135.24 88.22l-.227-7.961M434.354 111.52l.43-8.21M355.028 138.838l-35.83 12.337M434.354 111.52l-53.675 18.484" style="fill:none;stroke:red;stroke-width:1.73333;stroke-linecap:round;stroke-linejoin:round;stroke-miterlimit:10;stroke-dasharray:none;stroke-opacity:1;visibility:visible"/><path d="m343.725 134.19-24.341 8.255M434.785 103.308l-67.63 22.935" style="fill:none;stroke:red;stroke-width:.999997;stroke-linecap:round;stroke-linejoin:round;stroke-miterlimit:10;stroke-dasharray:none;stroke-opacity:1;visibility:visible"/><path d="M319.035 138.041 146.777 80.358M338.391 131.53l-19.356 6.51M422.592 103.205l-62.48 21.019" style="fill:none;stroke:red;stroke-width:1.73333;stroke-linecap:round;stroke-linejoin:round;stroke-miterlimit:10;stroke-dasharray:none;stroke-opacity:1;visibility:visible"/><path d="m250.654 52.009-103.877 28.35M250.654 52.009l171.938 51.196" style="fill:none;stroke:red;stroke-width:.999997;stroke-linecap:round;stroke-linejoin:round;stroke-miterlimit:10;stroke-dasharray:none;stroke-opacity:1;visibility:visible"/><path d="m250.803 48.87 183.98 54.439M250.803 48.87 135.014 80.26M315.651 136.27l.212-.104.312-.241.121-.259-.065-.267-.257-.257-.428-.23-.575-.191-.69-.143-.762-.084-.79-.024-.777.044-.718.1-.315.072M235.165 109.224l.217-.096.33-.217.153-.236-.03-.243-.206-.233-.38-.208-.523-.178-.641-.126-.717-.08-.754-.02-.749.037-.7.092-.305.064" style="fill:none;stroke:red;stroke-width:1.73333;stroke-linecap:round;stroke-linejoin:round;stroke-miterlimit:10;stroke-dasharray:none;stroke-opacity:1;visibility:visible"/><path d="m415.108 104.207.039-.91M415.147 103.298l-4.735-1.417M260.732 57.127l-3.985-1.192M260.727 57.972l.005-.845M250.634 59.573l.02-7.564M334.585 80.093l.023-.877M334.607 79.216l-4.337-1.296" style="fill:none;stroke:red;stroke-width:.999997;stroke-linecap:round;stroke-linejoin:round;stroke-miterlimit:10;stroke-dasharray:none;stroke-opacity:1;visibility:visible"/><path d="m250.634 59.573 158.909 48.024" style="fill:none;stroke:red;stroke-width:1.73333;stroke-linecap:round;stroke-linejoin:round;stroke-miterlimit:10;stroke-dasharray:none;stroke-opacity:1;visibility:visible"/><path d="M406.686 104.366v.032l.103.236.276.228.434.205.575.172.668.128.732.078.753.018.723-.034.657-.092.558-.142M410.413 101.881l-2.945.98-.743.596M412.165 105.195l2.943-.988" style="fill:none;stroke:red;stroke-width:.999997;stroke-linecap:round;stroke-linejoin:round;stroke-miterlimit:10;stroke-dasharray:none;stroke-opacity:1;visibility:visible"/><path d="m161.223 84.6.221-.087.343-.198.175-.218.006-.218-.17-.215-.335-.19-.479-.16-.594-.12-.678-.07-.722-.02-.723.032-.68.085-.305.06M250.634 59.573l-85.348 23.67" style="fill:none;stroke:red;stroke-width:1.73333;stroke-linecap:round;stroke-linejoin:round;stroke-miterlimit:10;stroke-dasharray:none;stroke-opacity:1;visibility:visible"/><path d="m326.486 80.28.065.197.236.208.39.188.52.158.624.116.69.072.722.02.7-.035.642-.083.55-.13M330.27 77.92l-2.96.896-.805.588M331.625 80.992l2.96-.899M256.746 55.936l-2.968.817-.857.584M252.92 58.182l.037.14.198.192.348.172.482.145.582.106.656.066.682.019.678-.03.629-.078.547-.117M257.76 58.797l2.968-.824M250.45 77.791l.044-18.292M250.457 79.806l-.004-1.781" style="fill:none;stroke:red;stroke-width:.999997;stroke-linecap:round;stroke-linejoin:round;stroke-miterlimit:10;stroke-dasharray:none;stroke-opacity:1;visibility:visible"/><path d="m184.531 121.351-.417-16.259M183.932 123.718l.56-2.057M178.486 103.168l.535 19.84M173.583 101.487l.555 19.79M179.137 125.157l-.104-1.901M183.772 123.817l-4.636 1.34M175.33 123.804l3.232-.93M174.185 121.54l.679 2.1M283.15 70.17l-.023 17.856M283.17 88.319l.575 1.96M283.14 88.026l.03.292" style="fill:none;stroke:red;stroke-width:1.6;stroke-linecap:round;stroke-linejoin:round;stroke-miterlimit:10;stroke-dasharray:none;stroke-opacity:1;visibility:visible"/><path d="m284.654 74.678.061-.39.166-.295.25-.154.296.01.292.17.251.306.167.397.057.425-.061.39-.166.293-.253.156-.293-.01-.292-.169-.248-.31-.168-.394-.059-.425M284.634 85.291l.061-.387.166-.292.248-.15.296.009.292.172.25.308.163.393.061.424-.061.388-.168.291-.248.152-.292-.01-.293-.173-.251-.305-.165-.395-.059-.425" style="fill:none;stroke:red;stroke-width:.866664;stroke-linecap:round;stroke-linejoin:round;stroke-miterlimit:10;stroke-dasharray:none;stroke-opacity:1;visibility:visible"/><path d="m292.954 72.25-.061 15.86" style="fill:none;stroke:red;stroke-width:1.6;stroke-linecap:round;stroke-linejoin:round;stroke-miterlimit:10;stroke-dasharray:none;stroke-opacity:1;visibility:visible"/><path d="M287.44 91.557c.18.1.52.119.75.046a.463.463 0 0 0 .097-.036" style="fill:none;stroke:red;stroke-width:.999997;stroke-linecap:round;stroke-linejoin:round;stroke-miterlimit:10;stroke-dasharray:none;stroke-opacity:1;visibility:visible"/><path d="m287.552 91.52-3.688-1.161M292.855 88.355l-.59 1.983M292.264 90.338l-4.101 1.185" style="fill:none;stroke:red;stroke-width:1.6;stroke-linecap:round;stroke-linejoin:round;stroke-miterlimit:10;stroke-dasharray:none;stroke-opacity:1;visibility:visible"/><path d="m287.707 89.307.044-18.657M287.712 91.36l-.003-1.816" style="fill:none;stroke:red;stroke-width:.999997;stroke-linecap:round;stroke-linejoin:round;stroke-miterlimit:10;stroke-dasharray:none;stroke-opacity:1;visibility:visible"/><path d="m135.24 88.22 10.986 3.76M250.634 59.573l-4.651 1.289M135.24 88.22l5.47 1.872" style="fill:none;stroke:red;stroke-width:1.6;stroke-linecap:round;stroke-linejoin:round;stroke-miterlimit:10;stroke-dasharray:none;stroke-opacity:1;visibility:visible"/><path d="m246.004 76.821 1.456-13.371M246.004 76.821l1.436-2.966" style="fill:none;stroke:red;stroke-width:.866664;stroke-linecap:round;stroke-linejoin:round;stroke-miterlimit:10;stroke-dasharray:none;stroke-opacity:1;visibility:visible"/><path d="m252.92 58.182 2.675 2.888" style="fill:none;stroke:red;stroke-width:1.6;stroke-linecap:round;stroke-linejoin:round;stroke-miterlimit:10;stroke-dasharray:none;stroke-opacity:1;visibility:visible"/><path d="m360.112 124.224-5.084 14.614" style="fill:none;stroke:red;stroke-width:1.73333;stroke-linecap:round;stroke-linejoin:round;stroke-miterlimit:10;stroke-dasharray:none;stroke-opacity:1;visibility:visible"/><path d="m360.112 124.224-16.387 9.966M355.028 138.838l12.128-12.595" style="fill:none;stroke:red;stroke-width:.999997;stroke-linecap:round;stroke-linejoin:round;stroke-miterlimit:10;stroke-dasharray:none;stroke-opacity:1;visibility:visible"/><path d="m355.028 138.838 5.084-14.614M410.412 101.88l-.87 5.717" style="fill:none;stroke:red;stroke-width:1.73333;stroke-linecap:round;stroke-linejoin:round;stroke-miterlimit:10;stroke-dasharray:none;stroke-opacity:1;visibility:visible"/><path d="m179.02 123.008 5.094-17.916M174.138 121.276l4.348-18.108M287.707 89.307 283.15 70.17" style="fill:none;stroke:red;stroke-width:1.6;stroke-linecap:round;stroke-linejoin:round;stroke-miterlimit:10;stroke-dasharray:none;stroke-opacity:1;visibility:visible"/><path d="m283.17 88.318 1.484-13.64M283.17 88.318l1.464-3.027" style="fill:none;stroke:red;stroke-width:.866664;stroke-linecap:round;stroke-linejoin:round;stroke-miterlimit:10;stroke-dasharray:none;stroke-opacity:1;visibility:visible"/><path d="m287.707 89.307 5.247-17.057" style="fill:none;stroke:red;stroke-width:1.6;stroke-linecap:round;stroke-linejoin:round;stroke-miterlimit:10;stroke-dasharray:none;stroke-opacity:1;visibility:visible"/><path d="m283.127 88.026 4.624-17.376" style="fill:none;stroke:red;stroke-width:.999997;stroke-linecap:round;stroke-linejoin:round;stroke-miterlimit:10;stroke-dasharray:none;stroke-opacity:1;visibility:visible"/><path d="m249.635 340.885-.003.79M249.647 342.269a1.227 1.227 0 0 0 .013.254 1.04 1.04 0 0 0 .134.338c.067.105.144.208.237.296a2.65 2.65 0 0 0 .814.512 5.683 5.683 0 0 0 1.789.389 6.693 6.693 0 0 0 .655.005 6.8 6.8 0 0 0 1.253-.161c.157-.04.303-.09.453-.137M148.46 385.343l.03 1.085M148.51 387.06a.999.999 0 0 0-.009.167.992.992 0 0 0 .116.375 1.84 1.84 0 0 0 .57.635 2.707 2.707 0 0 0 .459.26c.176.086.367.153.564.215a6.077 6.077 0 0 0 1.303.218c.227.009.464.012.696.004.228-.01.457-.034.687-.06a4.02 4.02 0 0 0 .662-.127l.064-.017M303.501 467.703l-.016.937M303.49 468.612c.005.143.008.288.04.428.035.149.1.292.181.431a2.2 2.2 0 0 0 .307.392c.125.13.276.25.436.361.168.116.352.219.555.31.2.094.42.176.65.246a6.577 6.577 0 0 0 1.467.252c.253.016.51.02.761.008.25-.014.498-.044.746-.074.247-.043.492-.084.704-.159.013-.005.026-.008.038-.017M404.456 413.514l-.041.903M404.426 414.81l-.012.084a.899.899 0 0 0 .081.41 1.947 1.947 0 0 0 .195.378c.089.125.197.24.32.354a3.617 3.617 0 0 0 .994.596c.199.088.408.16.632.216.215.063.447.112.679.154a8.032 8.032 0 0 0 1.427.085c.238-.013.465-.036.694-.07.23-.034.447-.075.648-.136.147-.043.287-.099.42-.154" style="fill:none;stroke:#00ff4a;stroke-width:1.6;stroke-linecap:round;stroke-linejoin:round;stroke-miterlimit:10;stroke-dasharray:none;stroke-opacity:1;visibility:visible"/><path d="M311.575 463.554c-.057.026-.101.106-.101.172M311.474 463.724l-.143 6.823M317.044 460.642l-5.47 2.91M311.33 470.548a.072.072 0 0 0 .032.074M311.477 463.601l-.15 7.268" style="fill:none;stroke:#00ff4a;stroke-width:.999997;stroke-linecap:round;stroke-linejoin:round;stroke-miterlimit:10;stroke-dasharray:none;stroke-opacity:1;visibility:visible"/><path d="m143.594 382.786-.19-6.748M143.594 382.786l167.732 88.084" style="fill:none;stroke:#00ff4a;stroke-width:1.73333;stroke-linecap:round;stroke-linejoin:round;stroke-miterlimit:10;stroke-dasharray:none;stroke-opacity:1;visibility:visible"/><path d="m143.404 376.039 168.073 87.562M412.724 409.804l5.137-2.725M284.888 350.515l127.836 59.29M189.17 394.139l95.717-43.624" style="fill:none;stroke:#00ff4a;stroke-width:.999997;stroke-linecap:round;stroke-linejoin:round;stroke-miterlimit:10;stroke-dasharray:none;stroke-opacity:1;visibility:visible"/><path d="m189.173 394.2 128.128 66.305M244.876 331.96l-56.277 24.444M177.508 361.226l-23.395 10.16M255.098 332.033l24.653 11.364M290.128 348.182l127.733 58.897" style="fill:none;stroke:#00ff4a;stroke-width:1.73333;stroke-linecap:round;stroke-linejoin:round;stroke-miterlimit:10;stroke-dasharray:none;stroke-opacity:1;visibility:visible"/><path d="m249.92 334.297-61.248 26.77M249.92 334.297l29.721 13.787M177.591 365.906l-23.361 10.212" style="fill:none;stroke:#00ff4a;stroke-width:.999997;stroke-linecap:round;stroke-linejoin:round;stroke-miterlimit:10;stroke-dasharray:none;stroke-opacity:1;visibility:visible"/><path d="m154.23 376.118 23.776 12.297M189.094 389.09l90.546-41.007" style="fill:none;stroke:#00ff4a;stroke-width:1.73333;stroke-linecap:round;stroke-linejoin:round;stroke-miterlimit:10;stroke-dasharray:none;stroke-opacity:1;visibility:visible"/><path d="m412.375 416.743.35-6.939M284.806 357.09l.083-6.575" style="fill:none;stroke:#00ff4a;stroke-width:.999997;stroke-linecap:round;stroke-linejoin:round;stroke-miterlimit:10;stroke-dasharray:none;stroke-opacity:1;visibility:visible"/><path d="m284.806 357.09 127.569 59.653M196.182 397.825l88.624-40.736" style="fill:none;stroke:#00ff4a;stroke-width:1.73333;stroke-linecap:round;stroke-linejoin:round;stroke-miterlimit:10;stroke-dasharray:none;stroke-opacity:1;visibility:visible"/><path d="m249.897 340.768.023-6.472" style="fill:none;stroke:#00ff4a;stroke-width:.999997;stroke-linecap:round;stroke-linejoin:round;stroke-miterlimit:10;stroke-dasharray:none;stroke-opacity:1;visibility:visible"/><path d="m249.897 340.768-61.124 26.945M177.715 372.588l-16.365 7.21M249.897 340.768l22.581 10.557M293.48 112.753l-5.615-1.828M287.958 114.498l5.521-1.745M282.337 112.66l5.621 1.839M287.865 110.925l-5.528 1.735M282.24 121.644l-.045 4.061M282.337 112.66l-.05 4.699M282.05 138.464l-2.352 209.643" style="fill:none;stroke:#00ff4a;stroke-width:1.73333;stroke-linecap:round;stroke-linejoin:round;stroke-miterlimit:10;stroke-dasharray:none;stroke-opacity:1;visibility:visible"/><path d="m287.958 114.498-.17 13.08M287.626 140.373l-2.677 210.17M279.7 348.109l1.124.523M280.823 348.631l4.127 1.913" style="fill:none;stroke:#00ff4a;stroke-width:.999997;stroke-linecap:round;stroke-linejoin:round;stroke-miterlimit:10;stroke-dasharray:none;stroke-opacity:1;visibility:visible"/><path d="m285.233 119.855.305-.047.254-.197.168-.321.061-.408M286.02 118.881l-.053-.445-.158-.43-.242-.36-.306-.248-.325-.106-.308.046-.25.196" style="fill:none;stroke:#00ff4a;stroke-width:.866664;stroke-linecap:round;stroke-linejoin:round;stroke-miterlimit:10;stroke-dasharray:none;stroke-opacity:1;visibility:visible"/><path d="m293.48 112.753-.239 16.65M293.06 142.229l-2.932 205.953" style="fill:none;stroke:#00ff4a;stroke-width:1.73333;stroke-linecap:round;stroke-linejoin:round;stroke-miterlimit:10;stroke-dasharray:none;stroke-opacity:1;visibility:visible"/><path d="m284.95 350.544 5.179-2.361" style="fill:none;stroke:#00ff4a;stroke-width:.999997;stroke-linecap:round;stroke-linejoin:round;stroke-miterlimit:10;stroke-dasharray:none;stroke-opacity:1;visibility:visible"/><path d="m287.867 111.083-.041 3.215" style="fill:none;stroke:#00ff4a;stroke-width:.666665;stroke-linecap:round;stroke-linejoin:round;stroke-miterlimit:10;stroke-dasharray:none;stroke-opacity:1;visibility:visible"/><path d="m136.513 133.093 5.353 1.981M136.513 133.093l6.89 242.945" style="fill:none;stroke:#00ff4a;stroke-width:1.73333;stroke-linecap:round;stroke-linejoin:round;stroke-miterlimit:10;stroke-dasharray:none;stroke-opacity:1;visibility:visible"/><path d="m141.866 135.075 6.556 243.58M143.404 376.039l5.019 2.616" style="fill:none;stroke:#00ff4a;stroke-width:.999997;stroke-linecap:round;stroke-linejoin:round;stroke-miterlimit:10;stroke-dasharray:none;stroke-opacity:1;visibility:visible"/><path d="m141.866 135.075 6.244-1.887M148.11 133.188l6.12 242.929" style="fill:none;stroke:#00ff4a;stroke-width:1.73333;stroke-linecap:round;stroke-linejoin:round;stroke-miterlimit:10;stroke-dasharray:none;stroke-opacity:1;visibility:visible"/><path d="m148.422 378.655 5.807-2.536" style="fill:none;stroke:#00ff4a;stroke-width:.999997;stroke-linecap:round;stroke-linejoin:round;stroke-miterlimit:10;stroke-dasharray:none;stroke-opacity:1;visibility:visible"/><path d="m142.755 131.221-6.243 1.872M148.11 133.188l-5.355-1.968" style="fill:none;stroke:#00ff4a;stroke-width:1.73333;stroke-linecap:round;stroke-linejoin:round;stroke-miterlimit:10;stroke-dasharray:none;stroke-opacity:1;visibility:visible"/><path d="m142.714 131.39.088 3.241" style="fill:none;stroke:#00ff4a;stroke-width:.666665;stroke-linecap:round;stroke-linejoin:round;stroke-miterlimit:10;stroke-dasharray:none;stroke-opacity:1;visibility:visible"/><path d="m173.572 146.815 5.607 2.075M173.572 146.815l4.537 247.303" style="fill:none;stroke:#00ff4a;stroke-width:1.73333;stroke-linecap:round;stroke-linejoin:round;stroke-miterlimit:10;stroke-dasharray:none;stroke-opacity:1;visibility:visible"/><path d="m179.178 148.889 4.173 247.962M178.11 394.118l5.243 2.733" style="fill:none;stroke:#00ff4a;stroke-width:.999997;stroke-linecap:round;stroke-linejoin:round;stroke-miterlimit:10;stroke-dasharray:none;stroke-opacity:1;visibility:visible"/><path d="m179.178 148.889 6.257-1.977M185.436 146.911l3.737 247.289" style="fill:none;stroke:#00ff4a;stroke-width:1.73333;stroke-linecap:round;stroke-linejoin:round;stroke-miterlimit:10;stroke-dasharray:none;stroke-opacity:1;visibility:visible"/><path d="m183.352 396.851 5.821-2.65" style="fill:none;stroke:#00ff4a;stroke-width:.999997;stroke-linecap:round;stroke-linejoin:round;stroke-miterlimit:10;stroke-dasharray:none;stroke-opacity:1;visibility:visible"/><path d="m179.827 144.85-6.255 1.965M185.436 146.911l-5.61-2.061" style="fill:none;stroke:#00ff4a;stroke-width:1.73333;stroke-linecap:round;stroke-linejoin:round;stroke-miterlimit:10;stroke-dasharray:none;stroke-opacity:1;visibility:visible"/><path d="m179.8 145.028.057 3.473" style="fill:none;stroke:#00ff4a;stroke-width:.666665;stroke-linecap:round;stroke-linejoin:round;stroke-miterlimit:10;stroke-dasharray:none;stroke-opacity:1;visibility:visible"/><path d="m245.135 109.37-.005 3.923M245.147 100.485l-.007 4.604M245.116 125.824l-.24 206.137M245.147 100.485l5.373 1.76" style="fill:none;stroke:#00ff4a;stroke-width:1.73333;stroke-linecap:round;stroke-linejoin:round;stroke-miterlimit:10;stroke-dasharray:none;stroke-opacity:1;visibility:visible"/><path d="m250.52 102.246-.03 12.843M250.402 148.56l-.483 185.736M244.876 331.96l1.055.488M245.93 332.449l3.988 1.848" style="fill:none;stroke:#00ff4a;stroke-width:.999997;stroke-linecap:round;stroke-linejoin:round;stroke-miterlimit:10;stroke-dasharray:none;stroke-opacity:1;visibility:visible"/><path d="m247.977 107.527.292-.05.24-.194.156-.316.052-.401M248.716 106.566l-.052-.437-.152-.42-.24-.352-.293-.242-.312-.104-.292.048-.239.199" style="fill:none;stroke:#00ff4a;stroke-width:.866664;stroke-linecap:round;stroke-linejoin:round;stroke-miterlimit:10;stroke-dasharray:none;stroke-opacity:1;visibility:visible"/><path d="m250.52 102.246 5.212-1.56M256.044 101.054l-.063 15.872M255.87 144.66l-.772 187.373M255.918 132.96l-.013 3.139" style="fill:none;stroke:#00ff4a;stroke-width:1.73333;stroke-linecap:round;stroke-linejoin:round;stroke-miterlimit:10;stroke-dasharray:none;stroke-opacity:1;visibility:visible"/><path d="m249.92 334.297 5.179-2.263" style="fill:none;stroke:#00ff4a;stroke-width:.999997;stroke-linecap:round;stroke-linejoin:round;stroke-miterlimit:10;stroke-dasharray:none;stroke-opacity:1;visibility:visible"/><path d="m255.815 100.63-5.147-1.801M250.668 98.83l-5.521 1.656" style="fill:none;stroke:#00ff4a;stroke-width:1.73333;stroke-linecap:round;stroke-linejoin:round;stroke-miterlimit:10;stroke-dasharray:none;stroke-opacity:1;visibility:visible"/><path d="m250.661 98.98-.008 3.077" style="fill:none;stroke:#00ff4a;stroke-width:.666665;stroke-linecap:round;stroke-linejoin:round;stroke-miterlimit:10;stroke-dasharray:none;stroke-opacity:1;visibility:visible"/><path d="m311.91 470.514 1.47.56M313.473 471.074l5.117-2.52M318.67 468.438l.072-6.559" style="fill:none;stroke:#00ff4a;stroke-width:1.6;stroke-linecap:round;stroke-linejoin:round;stroke-miterlimit:10;stroke-dasharray:none;stroke-opacity:1;visibility:visible"/><path d="m313.589 464.435-.075 6.559M313.409 464.435l-.81-.333M318.706 461.916l-5.117 2.519" style="fill:none;stroke:#00ff4a;stroke-width:.866664;stroke-linecap:round;stroke-linejoin:round;stroke-miterlimit:10;stroke-dasharray:none;stroke-opacity:1;visibility:visible"/><path d="m318.615 461.761-1.432-.532M412.66 416.772l1.45.61M414.203 417.385l5.141-2.572M419.43 414.7l.296-6.553" style="fill:none;stroke:#00ff4a;stroke-width:1.6;stroke-linecap:round;stroke-linejoin:round;stroke-miterlimit:10;stroke-dasharray:none;stroke-opacity:1;visibility:visible"/><path d="m414.546 410.753-.299 6.552M414.366 410.747l-.801-.361M419.687 408.182l-5.141 2.572" style="fill:none;stroke:#00ff4a;stroke-width:.866664;stroke-linecap:round;stroke-linejoin:round;stroke-miterlimit:10;stroke-dasharray:none;stroke-opacity:1;visibility:visible"/><path d="m419.605 408.025-1.417-.581" style="fill:none;stroke:#00ff4a;stroke-width:1.6;stroke-linecap:round;stroke-linejoin:round;stroke-miterlimit:10;stroke-dasharray:none;stroke-opacity:1;visibility:visible"/><path d="M248.489 319.325a6.127 6.127 0 0 0-.115-.295 3.764 3.764 0 0 0-.252-.41 1.893 1.893 0 0 0-.672-.578 1.395 1.395 0 0 0-.38-.125 1.09 1.09 0 0 0-.33.008 1.017 1.017 0 0 0-.31.138.804.804 0 0 0-.24.242 1.34 1.34 0 0 0-.113.235M246.045 318.6c-.358 1.052.174 2.267 1.182 2.724" style="fill:none;stroke:#00ff4a;stroke-width:.566665;stroke-linecap:round;stroke-linejoin:round;stroke-miterlimit:10;stroke-dasharray:none;stroke-opacity:1;visibility:visible"/><path d="M246.9 321.111c.07.056.135.11.208.152a1.163 1.163 0 0 0 .367.147 1.267 1.267 0 0 0 .34.012.916.916 0 0 0 .322-.115.907.907 0 0 0 .251-.222 1.13 1.13 0 0 0 .174-.31c.044-.12.075-.248.088-.382a2.758 2.758 0 0 0 0-.446 1.916 1.916 0 0 0-.161-.622M246.978 319.4l.199.817M248.587 328.33a5.325 5.325 0 0 0-.114-.292 3.527 3.527 0 0 0-.253-.412 2.69 2.69 0 0 0-.315-.34 1.839 1.839 0 0 0-.356-.237 1.439 1.439 0 0 0-.379-.127 1.144 1.144 0 0 0-.33.008 1.079 1.079 0 0 0-.312.139.813.813 0 0 0-.238.241 1.325 1.325 0 0 0-.113.236M246.143 327.607c-.356 1.05.177 2.264 1.183 2.723" style="fill:none;stroke:#00ff4a;stroke-width:.566665;stroke-linecap:round;stroke-linejoin:round;stroke-miterlimit:10;stroke-dasharray:none;stroke-opacity:1;visibility:visible"/><path d="M247 330.118c.068.055.132.11.205.152a1.163 1.163 0 0 0 .369.147 1.213 1.213 0 0 0 .339.01.875.875 0 0 0 .574-.336c.071-.093.134-.196.173-.31a1.5 1.5 0 0 0 .09-.382 2.775 2.775 0 0 0-.001-.446 1.857 1.857 0 0 0-.162-.623M247.078 328.406l.197.816M283.547 335.31a6.8 6.8 0 0 0-.122-.31 3.723 3.723 0 0 0-.267-.437 2.693 2.693 0 0 0-.335-.358 1.835 1.835 0 0 0-.377-.251 1.406 1.406 0 0 0-.401-.133 1.119 1.119 0 0 0-.347.008 1.119 1.119 0 0 0-.332.146.821.821 0 0 0-.25.256 1.4 1.4 0 0 0-.123.25M280.96 334.545c-.379 1.113.184 2.398 1.25 2.881" style="fill:none;stroke:#00ff4a;stroke-width:.566665;stroke-linecap:round;stroke-linejoin:round;stroke-miterlimit:10;stroke-dasharray:none;stroke-opacity:1;visibility:visible"/><path d="M281.866 337.202c.073.06.14.116.219.161a1.284 1.284 0 0 0 .389.155 1.307 1.307 0 0 0 .359.012.977.977 0 0 0 .341-.12 1.003 1.003 0 0 0 .267-.236 1.444 1.444 0 0 0 .276-.732 3.116 3.116 0 0 0 0-.473 1.925 1.925 0 0 0-.103-.495l-.065-.164M281.947 335.389l.212.865M283.547 344.522a7.07 7.07 0 0 0-.122-.308 3.722 3.722 0 0 0-.267-.439 2.79 2.79 0 0 0-.335-.358 1.95 1.95 0 0 0-.377-.251 1.406 1.406 0 0 0-.401-.133 1.16 1.16 0 0 0-.347.009 1.081 1.081 0 0 0-.332.145.85.85 0 0 0-.25.256 1.4 1.4 0 0 0-.123.25M280.96 343.758c-.379 1.112.184 2.397 1.25 2.88" style="fill:none;stroke:#00ff4a;stroke-width:.566665;stroke-linecap:round;stroke-linejoin:round;stroke-miterlimit:10;stroke-dasharray:none;stroke-opacity:1;visibility:visible"/><path d="M281.866 346.415c.073.06.14.116.219.162a1.22 1.22 0 0 0 .389.153c.123.023.247.025.359.015a1.004 1.004 0 0 0 .341-.12 1.007 1.007 0 0 0 .267-.238 1.453 1.453 0 0 0 .276-.732c.012-.152.012-.31 0-.472a1.933 1.933 0 0 0-.103-.496l-.065-.164M281.947 344.603l.212.864" style="fill:none;stroke:#00ff4a;stroke-width:.566665;stroke-linecap:round;stroke-linejoin:round;stroke-miterlimit:10;stroke-dasharray:none;stroke-opacity:1;visibility:visible"/><path d="M441.486 142.472c4.624-19.56 13.972-37.296 26.77-51.937M441.186 142.874c-97.074-12.288-148.568-46.66-148.568-46.66s43.834 45.823 145.652 70.25" style="fill:none;stroke:#00ff4a;stroke-width:.999997;stroke-linecap:round;stroke-linejoin:round;stroke-miterlimit:4;stroke-dasharray:none;stroke-opacity:1;visibility:visible"/><path d="m143.594 382.786 4.866 2.557M412.375 416.743l-7.919-3.229M414.203 417.385l-3.699-.658" style="fill:none;stroke:#00ff4a;stroke-width:1.6;stroke-linecap:round;stroke-linejoin:round;stroke-miterlimit:10;stroke-dasharray:none;stroke-opacity:1;visibility:visible"/><path d="m177.508 361.226 11.09-4.822M188.672 361.066l-11.164.16M154.229 376.119l-.116-4.733M279.7 348.109l.051-4.712" style="fill:none;stroke:#00ff4a;stroke-width:1.73333;stroke-linecap:round;stroke-linejoin:round;stroke-miterlimit:10;stroke-dasharray:none;stroke-opacity:1;visibility:visible"/><path d="m177.508 361.226 11.164-.16M188.773 367.713l-11.182-1.807" style="fill:none;stroke:#00ff4a;stroke-width:.999997;stroke-linecap:round;stroke-linejoin:round;stroke-miterlimit:10;stroke-dasharray:none;stroke-opacity:1;visibility:visible"/><path d="m178.11 394.118-.104-5.703M189.173 394.2l-.079-5.11M189.173 394.2l7.009 3.625M177.591 365.906l11.182 1.807M188.773 367.713l-11.058 4.875M154.229 376.119l7.12 3.68M279.7 348.109l-7.222 3.216M282.288 117.359l-.048 4.285M287.958 114.498l-5.763 11.207M282.24 121.644l.048-4.285M287.789 127.578l-5.739 10.886" style="fill:none;stroke:#00ff4a;stroke-width:1.73333;stroke-linecap:round;stroke-linejoin:round;stroke-miterlimit:10;stroke-dasharray:none;stroke-opacity:1;visibility:visible"/><path d="m282.24 121.644 5.549 5.934M293.241 129.404l-5.615 10.969" style="fill:none;stroke:#00ff4a;stroke-width:.999997;stroke-linecap:round;stroke-linejoin:round;stroke-miterlimit:10;stroke-dasharray:none;stroke-opacity:1;visibility:visible"/><path d="m287.626 140.373 5.615-10.97M293.241 129.404l-.181 12.825" style="fill:none;stroke:#00ff4a;stroke-width:1.73333;stroke-linecap:round;stroke-linejoin:round;stroke-miterlimit:10;stroke-dasharray:none;stroke-opacity:1;visibility:visible"/><path d="m141.866 135.075.936-.444" style="fill:none;stroke:#00ff4a;stroke-width:.666665;stroke-linecap:round;stroke-linejoin:round;stroke-miterlimit:10;stroke-dasharray:none;stroke-opacity:1;visibility:visible"/><path d="m245.14 105.089-.005 4.281M250.52 102.246l-5.39 11.047M245.135 109.37l.005-4.281M250.49 115.089l-5.374 10.735" style="fill:none;stroke:#00ff4a;stroke-width:1.73333;stroke-linecap:round;stroke-linejoin:round;stroke-miterlimit:10;stroke-dasharray:none;stroke-opacity:1;visibility:visible"/><path d="m245.135 109.37 5.356 5.719M255.905 136.099l-5.503 12.461" style="fill:none;stroke:#00ff4a;stroke-width:.999997;stroke-linecap:round;stroke-linejoin:round;stroke-miterlimit:10;stroke-dasharray:none;stroke-opacity:1;visibility:visible"/><path d="m245.135 109.37 10.846 7.556M255.905 136.099l-.035 8.561M255.981 116.926l-.063 16.034M255.87 144.66l.035-8.561" style="fill:none;stroke:#00ff4a;stroke-width:1.73333;stroke-linecap:round;stroke-linejoin:round;stroke-miterlimit:10;stroke-dasharray:none;stroke-opacity:1;visibility:visible"/><path d="m318.615 461.761-6.017 2.34M412.724 409.804l.84.582" style="fill:none;stroke:#00ff4a;stroke-width:.866664;stroke-linecap:round;stroke-linejoin:round;stroke-miterlimit:10;stroke-dasharray:none;stroke-opacity:1;visibility:visible"/><path d="m247.275 329.222-.297-9.822M247.177 320.217l-.099 8.189M282.159 345.467l-.212-10.078M282.159 336.254l-.212 8.349" style="fill:none;stroke:#00ff4a;stroke-width:.566665;stroke-linecap:round;stroke-linejoin:round;stroke-miterlimit:10;stroke-dasharray:none;stroke-opacity:1;visibility:visible"/></svg>