<svg xmlns="http://www.w3.org/2000/svg" baseProfile="full" height="1122.52" preserveAspectRatio="xMinYMin meet" style="width:765px;height:943px" width="793.701" xml:space="preserve"><path d="m158.79 652.813 5.624 2.295M158.79 652.813l-2.697 243.223" style="fill:none;stroke:red;stroke-width:1.73333;stroke-linecap:round;stroke-linejoin:round;stroke-miterlimit:10;stroke-dasharray:none;stroke-opacity:1;visibility:visible" visibility="hidden"/><path d="m164.413 655.107-2.7 243.226" style="fill:none;stroke:red;stroke-width:.999997;stroke-linecap:round;stroke-linejoin:round;stroke-miterlimit:10;stroke-dasharray:none;stroke-opacity:1;visibility:visible" visibility="hidden"/><path d="m156.092 896.037 5.621 2.297M164.365 650.602l-5.576 2.21M169.988 652.899l-5.623-2.297M164.413 655.107l5.575-2.208M169.988 652.899l-2.696 243.223M161.713 898.334l5.579-2.21" style="fill:none;stroke:red;stroke-width:1.73333;stroke-linecap:round;stroke-linejoin:round;stroke-miterlimit:10;stroke-dasharray:none;stroke-opacity:1;visibility:visible" visibility="hidden"/><path d="m164.37 650.802-.021 1.82M164.413 655.107l-.064-2.485" style="fill:none;stroke:red;stroke-width:.999997;stroke-linecap:round;stroke-linejoin:round;stroke-miterlimit:10;stroke-dasharray:none;stroke-opacity:1;visibility:visible" visibility="hidden"/><path d="M319.146 1023.808c0 .099 0 .195.021.284a.976.976 0 0 0 .15.33c.073.108.158.205.259.296a2.453 2.453 0 0 0 .379.273 4.293 4.293 0 0 0 .51.236c.19.07.39.136.603.19.209.05.429.095.659.129a7.91 7.91 0 0 0 1.406.084c.237-.002.474-.02.704-.041a9.14 9.14 0 0 0 .663-.103 4.457 4.457 0 0 0 1.01-.318M263.633 917.128l-.012.987M263.635 918.73c0 .099 0 .193.022.287a.916.916 0 0 0 .15.328c.074.105.158.202.256.291.112.1.242.192.383.274.156.09.327.17.512.24.184.071.387.131.597.187a7.507 7.507 0 0 0 1.358.201 9 9 0 0 0 .71.017 8.6 8.6 0 0 0 1.367-.148c.216-.044.424-.096.61-.159.143-.046.272-.101.4-.158M160.786 958.117l-.012 1.208M421.995 981.315l-.016 1.205M421.994 983.224c0 .096 0 .191.02.284a.95.95 0 0 0 .153.332 1.747 1.747 0 0 0 .253.291 2.4 2.4 0 0 0 .386.27c.154.089.324.171.508.243a6.423 6.423 0 0 0 1.26.315 7.2 7.2 0 0 0 .696.072 7.992 7.992 0 0 0 1.412-.031 7.63 7.63 0 0 0 .664-.098 5.41 5.41 0 0 0 .609-.162c.143-.049.273-.1.4-.158M326.82 1025.078l1.524.581M328.44 1025.66l5.235-2.076M333.76 1023.464l.076-6.807M260.077 887.003l-.597 1.864M259.434 889.154l-.2 18M204.239 945.305l-.556-1.87M204.08 963.594l.2-18M298.183 902.573l-.595 1.861M297.541 904.724l-.2 18M166.135 929.732l-.557-1.87M165.975 948.024l.2-18.003" style="fill:none;stroke:#00ff4a;stroke-width:1.6;stroke-linecap:round;stroke-linejoin:round;stroke-miterlimit:10;stroke-dasharray:none;stroke-opacity:1;visibility:visible"/><path d="m160.786 957.401.003-.024v-.012M421.995 981.315v-.039M429.524 976.866a.176.176 0 0 0-.09.156M429.435 977.021l-.079 6.805M434.766 974.787l-5.24 2.079M434.814 974.784c-.016-.004-.04-.004-.05.003M429.356 983.827a.09.09 0 0 0 .047.085M332.01 1015.542l-5.576 2.213M326.434 1017.755l-.083 7.248" style="fill:none;stroke:#00ff4a;stroke-width:.999997;stroke-linecap:round;stroke-linejoin:round;stroke-miterlimit:10;stroke-dasharray:none;stroke-opacity:1;visibility:visible"/><path d="m155.5 955.19.083-7.248M155.5 955.19l170.852 69.812" style="fill:none;stroke:#00ff4a;stroke-width:1.73333;stroke-linecap:round;stroke-linejoin:round;stroke-miterlimit:10;stroke-dasharray:none;stroke-opacity:1;visibility:visible"/><path d="m155.581 947.943 170.853 69.812M429.284 976.961l5.573-2.21M302.157 925.019l127.126 51.943M204.885 963.602l97.272-38.583" style="fill:none;stroke:#00ff4a;stroke-width:.999997;stroke-linecap:round;stroke-linejoin:round;stroke-miterlimit:10;stroke-dasharray:none;stroke-opacity:1;visibility:visible"/><path d="m204.885 963.602 127.125 51.94M259.238 906.83l-93.216 36.97" style="fill:none;stroke:#00ff4a;stroke-width:1.73333;stroke-linecap:round;stroke-linejoin:round;stroke-miterlimit:10;stroke-dasharray:none;stroke-opacity:1;visibility:visible"/><path d="m156.206 947.696-.625.248" style="fill:none;stroke:#00ff4a;stroke-width:.999997;stroke-linecap:round;stroke-linejoin:round;stroke-miterlimit:10;stroke-dasharray:none;stroke-opacity:1;visibility:visible"/><path d="m269.008 906.982 28.379 11.596M307.117 922.552l127.74 52.197" style="fill:none;stroke:#00ff4a;stroke-width:1.73333;stroke-linecap:round;stroke-linejoin:round;stroke-miterlimit:10;stroke-dasharray:none;stroke-opacity:1;visibility:visible"/><path d="m264.051 909.446-97.272 38.583M264.051 909.446l32.484 13.276" style="fill:none;stroke:#00ff4a;stroke-width:.999997;stroke-linecap:round;stroke-linejoin:round;stroke-miterlimit:10;stroke-dasharray:none;stroke-opacity:1;visibility:visible"/><path d="m166.78 948.029 27.576 11.268M204.127 959.373l92.41-36.65" style="fill:none;stroke:#00ff4a;stroke-width:1.73333;stroke-linecap:round;stroke-linejoin:round;stroke-miterlimit:10;stroke-dasharray:none;stroke-opacity:1;visibility:visible"/><path d="m429.2 984.209.083-7.248M302.079 932.266l.079-7.248" style="fill:none;stroke:#00ff4a;stroke-width:.999997;stroke-linecap:round;stroke-linejoin:round;stroke-miterlimit:10;stroke-dasharray:none;stroke-opacity:1;visibility:visible"/><path d="M302.079 932.266 429.2 984.209" style="fill:none;stroke:#00ff4a;stroke-width:1.73333;stroke-linecap:round;stroke-linejoin:round;stroke-miterlimit:10;stroke-dasharray:none;stroke-opacity:1;visibility:visible"/><path d="M434.857 974.75v.052M429.672 984.024l-.472.185" style="fill:none;stroke:#00ff4a;stroke-width:.999997;stroke-linecap:round;stroke-linejoin:round;stroke-miterlimit:10;stroke-dasharray:none;stroke-opacity:1;visibility:visible"/><path d="m213.847 967.26 88.232-34.995" style="fill:none;stroke:#00ff4a;stroke-width:1.73333;stroke-linecap:round;stroke-linejoin:round;stroke-miterlimit:10;stroke-dasharray:none;stroke-opacity:1;visibility:visible"/><path d="m263.972 916.696.08-7.25" style="fill:none;stroke:#00ff4a;stroke-width:.999997;stroke-linecap:round;stroke-linejoin:round;stroke-miterlimit:10;stroke-dasharray:none;stroke-opacity:1;visibility:visible"/><path d="m263.972 916.696-59.381 23.552M191.038 945.625l-15.297 6.065M263.972 916.696l23.521 9.612" style="fill:none;stroke:#00ff4a;stroke-width:1.73333;stroke-linecap:round;stroke-linejoin:round;stroke-miterlimit:10;stroke-dasharray:none;stroke-opacity:1;visibility:visible"/><path d="m260.204 887.151 3.759 1.533M268.606 887.091l.567 1.901M264.574 888.693l4.032-1.601M264.235 885.302l-4.035 1.601" style="fill:none;stroke:#00ff4a;stroke-width:1.6;stroke-linecap:round;stroke-linejoin:round;stroke-miterlimit:10;stroke-dasharray:none;stroke-opacity:1;visibility:visible"/><path d="M263.735 909.071a.959.959 0 0 0 .623.003M263.736 909.07l-4.125-1.688M259.611 907.383l-.248-.099" style="fill:none;stroke:#00ff4a;stroke-width:.999997;stroke-linecap:round;stroke-linejoin:round;stroke-miterlimit:10;stroke-dasharray:none;stroke-opacity:1;visibility:visible"/><path d="m269.006 907.232.199-18.005" style="fill:none;stroke:#00ff4a;stroke-width:1.6;stroke-linecap:round;stroke-linejoin:round;stroke-miterlimit:10;stroke-dasharray:none;stroke-opacity:1;visibility:visible"/><path d="m269.006 907.232-4.647 1.841" style="fill:none;stroke:#00ff4a;stroke-width:.999997;stroke-linecap:round;stroke-linejoin:round;stroke-miterlimit:10;stroke-dasharray:none;stroke-opacity:1;visibility:visible"/><path d="m264.688 887.16.024-1.659" style="fill:none;stroke:#00ff4a;stroke-width:1.6;stroke-linecap:round;stroke-linejoin:round;stroke-miterlimit:10;stroke-dasharray:none;stroke-opacity:1;visibility:visible"/><path d="m259.364 907.284-.055-.028-.041-.03-.027-.035-.008-.035" style="fill:none;stroke:#00ff4a;stroke-width:.999997;stroke-linecap:round;stroke-linejoin:round;stroke-miterlimit:10;stroke-dasharray:none;stroke-opacity:1;visibility:visible"/><path d="m199.508 947.308.019-2.133M199.527 945.175l4.033-1.599M199.188 941.79l-4.033 1.599M199.797 941.792a.936.936 0 0 0-.61-.002M203.558 943.328l-3.76-1.536M199.307 965.56l.2-18" style="fill:none;stroke:#00ff4a;stroke-width:1.6;stroke-linecap:round;stroke-linejoin:round;stroke-miterlimit:10;stroke-dasharray:none;stroke-opacity:1;visibility:visible"/><path d="m203.953 963.72-4.645 1.841" style="fill:none;stroke:#00ff4a;stroke-width:.999997;stroke-linecap:round;stroke-linejoin:round;stroke-miterlimit:10;stroke-dasharray:none;stroke-opacity:1;visibility:visible"/><path d="m199.47 943.521.027-1.765" style="fill:none;stroke:#00ff4a;stroke-width:.866664;stroke-linecap:round;stroke-linejoin:round;stroke-miterlimit:10;stroke-dasharray:none;stroke-opacity:1;visibility:visible"/><path d="m195.154 943.388-.607 1.893" style="fill:none;stroke:#00ff4a;stroke-width:1.6;stroke-linecap:round;stroke-linejoin:round;stroke-miterlimit:10;stroke-dasharray:none;stroke-opacity:1;visibility:visible"/><path d="m194.778 963.709 3.952-1.565" style="fill:none;stroke:#00ff4a;stroke-width:.999997;stroke-linecap:round;stroke-linejoin:round;stroke-miterlimit:10;stroke-dasharray:none;stroke-opacity:1;visibility:visible"/><path d="m194.31 963.519.199-18.003" style="fill:none;stroke:#00ff4a;stroke-width:1.6;stroke-linecap:round;stroke-linejoin:round;stroke-miterlimit:10;stroke-dasharray:none;stroke-opacity:1;visibility:visible"/><path d="m194.778 963.709-.47-.19M203.951 963.72a.177.177 0 0 0 .129-.125" style="fill:none;stroke:#00ff4a;stroke-width:.999997;stroke-linecap:round;stroke-linejoin:round;stroke-miterlimit:10;stroke-dasharray:none;stroke-opacity:1;visibility:visible"/><path d="m298.31 902.72 3.761 1.536M306.714 902.662l.564 1.901M302.68 904.26l4.033-1.599M302.34 900.875l-4.032 1.599" style="fill:none;stroke:#00ff4a;stroke-width:1.6;stroke-linecap:round;stroke-linejoin:round;stroke-miterlimit:10;stroke-dasharray:none;stroke-opacity:1;visibility:visible"/><path d="M301.843 924.64a.953.953 0 0 0 .622.006M301.844 924.64l-4.063-1.661M297.782 922.98l-.312-.128" style="fill:none;stroke:#00ff4a;stroke-width:.999997;stroke-linecap:round;stroke-linejoin:round;stroke-miterlimit:10;stroke-dasharray:none;stroke-opacity:1;visibility:visible"/><path d="m307.114 922.8.2-18" style="fill:none;stroke:#00ff4a;stroke-width:1.6;stroke-linecap:round;stroke-linejoin:round;stroke-miterlimit:10;stroke-dasharray:none;stroke-opacity:1;visibility:visible"/><path d="m307.114 922.8-4.648 1.847" style="fill:none;stroke:#00ff4a;stroke-width:.999997;stroke-linecap:round;stroke-linejoin:round;stroke-miterlimit:10;stroke-dasharray:none;stroke-opacity:1;visibility:visible"/><path d="m302.795 902.732.024-1.661" style="fill:none;stroke:#00ff4a;stroke-width:1.6;stroke-linecap:round;stroke-linejoin:round;stroke-miterlimit:10;stroke-dasharray:none;stroke-opacity:1;visibility:visible"/><path d="m297.47 922.852-.053-.027-.04-.03-.027-.034-.01-.034" style="fill:none;stroke:#00ff4a;stroke-width:.999997;stroke-linecap:round;stroke-linejoin:round;stroke-miterlimit:10;stroke-dasharray:none;stroke-opacity:1;visibility:visible"/><path d="m161.402 931.735.02-2.13M161.421 929.604l4.032-1.599M161.081 926.22l-4.033 1.596M161.692 926.224a.923.923 0 0 0-.612-.004M165.451 927.758l-3.759-1.533M165.453 928.006c.17-.066.17-.178-.003-.248M161.2 949.992l.2-18.005" style="fill:none;stroke:#00ff4a;stroke-width:1.6;stroke-linecap:round;stroke-linejoin:round;stroke-miterlimit:10;stroke-dasharray:none;stroke-opacity:1;visibility:visible"/><path d="m165.847 948.146-4.647 1.847" style="fill:none;stroke:#00ff4a;stroke-width:.999997;stroke-linecap:round;stroke-linejoin:round;stroke-miterlimit:10;stroke-dasharray:none;stroke-opacity:1;visibility:visible"/><path d="m161.372 928.063.019-1.581" style="fill:none;stroke:#00ff4a;stroke-width:.866664;stroke-linecap:round;stroke-linejoin:round;stroke-miterlimit:10;stroke-dasharray:none;stroke-opacity:1;visibility:visible"/><path d="m157.047 927.815-.605 1.896M156.442 929.711a.805.805 0 0 0-.04.237" style="fill:none;stroke:#00ff4a;stroke-width:1.6;stroke-linecap:round;stroke-linejoin:round;stroke-miterlimit:10;stroke-dasharray:none;stroke-opacity:1;visibility:visible"/><path d="m156.671 948.14 3.883-1.541" style="fill:none;stroke:#00ff4a;stroke-width:.999997;stroke-linecap:round;stroke-linejoin:round;stroke-miterlimit:10;stroke-dasharray:none;stroke-opacity:1;visibility:visible"/><path d="m156.203 947.948.199-18" style="fill:none;stroke:#00ff4a;stroke-width:1.6;stroke-linecap:round;stroke-linejoin:round;stroke-miterlimit:10;stroke-dasharray:none;stroke-opacity:1;visibility:visible"/><path d="m156.671 948.14-.47-.193M165.846 948.147a.161.161 0 0 0 .128-.123" style="fill:none;stroke:#00ff4a;stroke-width:.999997;stroke-linecap:round;stroke-linejoin:round;stroke-miterlimit:10;stroke-dasharray:none;stroke-opacity:1;visibility:visible"/><path d="m160.774 959.589.065.29.227.303.377.282.511.24.625.197.707.141.76.078.783.013.765-.052.72-.115.563-.148" style="fill:none;stroke:#00ff4a;stroke-width:1.6;stroke-linecap:round;stroke-linejoin:round;stroke-miterlimit:10;stroke-dasharray:none;stroke-opacity:1;visibility:visible"/><path d="m328.562 1018.769-.079 6.807M328.374 1018.769l-.841-.347M333.794 1016.696l-5.232 2.073" style="fill:none;stroke:#00ff4a;stroke-width:.866664;stroke-linecap:round;stroke-linejoin:round;stroke-miterlimit:10;stroke-dasharray:none;stroke-opacity:1;visibility:visible"/><path d="m333.703 1016.534-1.49-.552" style="fill:none;stroke:#00ff4a;stroke-width:1.6;stroke-linecap:round;stroke-linejoin:round;stroke-miterlimit:10;stroke-dasharray:none;stroke-opacity:1;visibility:visible"/><path d="m263.973 908.677.199-18.003.074-1.697M302.465 924.646l.197-18.003-.128-2.09" style="fill:none;stroke:#00ff4a;stroke-width:.999997;stroke-linecap:round;stroke-linejoin:round;stroke-miterlimit:10;stroke-dasharray:none;stroke-opacity:1;visibility:visible"/><path d="m262.555 903.81-.063.39-.165.298-.253.167-.308.02-.324-.135-.304-.268-.247-.37-.157-.43-.054-.437.062-.391.166-.295.251-.169.31-.019.325.134.304.268.245.37.16.43.052.437M262.665 893.742l-.06.39-.167.298-.25.17-.308.014-.326-.13-.305-.27-.247-.368-.158-.435-.051-.434.061-.388.167-.3.25-.167.31-.019.324.131.304.27.248.374.157.43.051.434M300.985 919.183l-.06.388-.17.3-.251.167-.307.017-.327-.135-.302-.265-.247-.373-.157-.43-.052-.434.06-.394.166-.294.251-.17.308-.017.327.135.302.265.247.373.16.43.052.437M301.097 909.115l-.064.39-.165.295-.252.17-.307.02-.327-.135-.302-.267-.248-.372-.16-.429-.051-.44.063-.385.166-.3.251-.167.308-.02.325.135.304.268.247.37.157.43.055.437" style="fill:none;stroke:#00ff4a;stroke-width:.866664;stroke-linecap:round;stroke-linejoin:round;stroke-miterlimit:10;stroke-dasharray:none;stroke-opacity:1;visibility:visible"/><path d="m429.99 983.854 1.412.536M431.49 984.39l4.839-1.919M436.406 982.365l.07-6.295" style="fill:none;stroke:#00ff4a;stroke-width:1.6;stroke-linecap:round;stroke-linejoin:round;stroke-miterlimit:10;stroke-dasharray:none;stroke-opacity:1;visibility:visible"/><path d="m431.602 978.021-.073 6.295M431.43 978.021l-.781-.32M436.437 976.104l-4.836 1.916" style="fill:none;stroke:#00ff4a;stroke-width:.866664;stroke-linecap:round;stroke-linejoin:round;stroke-miterlimit:10;stroke-dasharray:none;stroke-opacity:1;visibility:visible"/><path d="m436.352 975.956-1.375-.51M326.351 1025.003l-7.205-1.195M264.36 909.073 270 920.09" style="fill:none;stroke:#00ff4a;stroke-width:1.6;stroke-linecap:round;stroke-linejoin:round;stroke-miterlimit:10;stroke-dasharray:none;stroke-opacity:1;visibility:visible"/><path d="m165.847 948.146.175-4.347M297.47 922.852l-.083-4.274M194.309 963.518l.047-4.221M203.953 963.72l.174-4.347M203.953 963.72l9.894 3.54M203.56 943.576l1.03-3.328M195.155 943.389l-4.117 2.236M165.847 948.146l9.894 3.544M297.47 922.852l-9.977 3.456" style="fill:none;stroke:#00ff4a;stroke-width:1.73333;stroke-linecap:round;stroke-linejoin:round;stroke-miterlimit:10;stroke-dasharray:none;stroke-opacity:1;visibility:visible"/><path d="m264.246 888.977.442-1.817" style="fill:none;stroke:#00ff4a;stroke-width:1.6;stroke-linecap:round;stroke-linejoin:round;stroke-miterlimit:10;stroke-dasharray:none;stroke-opacity:1;visibility:visible"/><path d="m199.527 945.175-.057-1.654" style="fill:none;stroke:#00ff4a;stroke-width:.866664;stroke-linecap:round;stroke-linejoin:round;stroke-miterlimit:10;stroke-dasharray:none;stroke-opacity:1;visibility:visible"/><path d="m199.308 965.561-.578-3.417" style="fill:none;stroke:#00ff4a;stroke-width:.999997;stroke-linecap:round;stroke-linejoin:round;stroke-miterlimit:10;stroke-dasharray:none;stroke-opacity:1;visibility:visible"/><path d="m302.534 904.553.261-1.821" style="fill:none;stroke:#00ff4a;stroke-width:1.6;stroke-linecap:round;stroke-linejoin:round;stroke-miterlimit:10;stroke-dasharray:none;stroke-opacity:1;visibility:visible"/><path d="m161.422 929.604-.05-1.541" style="fill:none;stroke:#00ff4a;stroke-width:.866664;stroke-linecap:round;stroke-linejoin:round;stroke-miterlimit:10;stroke-dasharray:none;stroke-opacity:1;visibility:visible"/><path d="m161.2 949.993-.646-3.394" style="fill:none;stroke:#00ff4a;stroke-width:.999997;stroke-linecap:round;stroke-linejoin:round;stroke-miterlimit:10;stroke-dasharray:none;stroke-opacity:1;visibility:visible"/><path d="m165.846 948.147 1.03 12.671" style="fill:none;stroke:#00ff4a;stroke-width:1.6;stroke-linecap:round;stroke-linejoin:round;stroke-miterlimit:10;stroke-dasharray:none;stroke-opacity:1;visibility:visible"/><path d="m326.434 1017.755 1.099.667M302.534 904.553l-1.549 14.63M302.534 904.553l-1.437 4.562M429.283 976.962l1.366.739" style="fill:none;stroke:#00ff4a;stroke-width:.866664;stroke-linecap:round;stroke-linejoin:round;stroke-miterlimit:10;stroke-dasharray:none;stroke-opacity:1;visibility:visible"/><path d="m196.959 671.341 5.621 2.297M196.959 671.341l-2.697 243.223" style="fill:none;stroke:#9500ff;stroke-width:1.73333;stroke-linecap:round;stroke-linejoin:round;stroke-miterlimit:10;stroke-dasharray:none;stroke-opacity:1;visibility:visible" visibility="hidden"/><path d="m202.58 673.638-2.697 243.223" style="fill:none;stroke:#9500ff;stroke-width:.999997;stroke-linecap:round;stroke-linejoin:round;stroke-miterlimit:10;stroke-dasharray:none;stroke-opacity:1;visibility:visible" visibility="hidden"/><path d="m194.261 914.565 5.621 2.297M202.535 669.128l-5.576 2.213M208.157 671.427l-5.623-2.3M202.58 673.638l5.577-2.21M208.157 671.427l-2.699 243.223M199.882 916.862l5.576-2.21" style="fill:none;stroke:#9500ff;stroke-width:1.73333;stroke-linecap:round;stroke-linejoin:round;stroke-miterlimit:10;stroke-dasharray:none;stroke-opacity:1;visibility:visible" visibility="hidden"/><path d="m202.536 669.328-.021 1.847" style="fill:none;stroke:#9500ff;stroke-width:.999997;stroke-linecap:round;stroke-linejoin:round;stroke-miterlimit:10;stroke-dasharray:none;stroke-opacity:1;visibility:visible" visibility="hidden"/><path d="M187.032 873.534a2.056 2.056 0 0 1-.226.904M187.032 884.837a2.067 2.067 0 0 1-.226.906" style="fill:none;stroke:#9500ff;stroke-width:.866664;stroke-linecap:round;stroke-linejoin:round;stroke-miterlimit:2;stroke-dasharray:none;stroke-opacity:1;visibility:visible" visibility="hidden"/><path d="m202.58 673.638-.065-2.463" style="fill:none;stroke:#9500ff;stroke-width:.999997;stroke-linecap:round;stroke-linejoin:round;stroke-miterlimit:10;stroke-dasharray:none;stroke-opacity:1;visibility:visible" visibility="hidden"/><path d="m261.096 856.357.25-.167.31-.018.325.133.306.268.244.37.16.43.052.437M262.743 857.81l-.061.39-.167.298-.253.167-.308.02" style="fill:none;stroke:#ffdf00;stroke-width:.866664;stroke-linecap:round;stroke-linejoin:round;stroke-miterlimit:10;stroke-dasharray:none;stroke-opacity:1;visibility:visible" visibility="hidden"/><path d="m258.95 860.177-.01.932M259.058 850.537l-.06 5.257M261.639 617.883l5.623 2.3M261.639 617.883l-2.528 227.953" style="fill:none;stroke:#ffdf00;stroke-width:1.73333;stroke-linecap:round;stroke-linejoin:round;stroke-miterlimit:10;stroke-dasharray:none;stroke-opacity:1;visibility:visible" visibility="hidden"/><path d="m267.261 620.183-2.697 243.226" style="fill:none;stroke:#ffdf00;stroke-width:.999997;stroke-linecap:round;stroke-linejoin:round;stroke-miterlimit:10;stroke-dasharray:none;stroke-opacity:1;visibility:visible" visibility="hidden"/><path d="m258.94 861.11 5.624 2.3" style="fill:none;stroke:#ffdf00;stroke-width:1.73333;stroke-linecap:round;stroke-linejoin:round;stroke-miterlimit:10;stroke-dasharray:none;stroke-opacity:1;visibility:visible" visibility="hidden"/><path d="m265.222 634.315-.052-.435-.159-.429-.248-.373-.302-.268-.326-.134-.308.019-.25.167-.168.297-.06.39.052.438.157.43.248.371.303.267.325.135.308-.02.252-.167.167-.297.061-.391M265.333 624.248l-.052-.435-.157-.429-.247-.373-.304-.268-.325-.134-.31.019-.25.167-.167.3-.061.388.05.437.16.43.247.371.303.27.326.132.308-.02.251-.167.167-.297.061-.391M261.208 846.29l.25-.167.31-.021.324.133.305.268.247.372.157.431.052.437" style="fill:none;stroke:#ffdf00;stroke-width:.866664;stroke-linecap:round;stroke-linejoin:round;stroke-miterlimit:10;stroke-dasharray:none;stroke-opacity:1;visibility:visible" visibility="hidden"/><path d="m262.853 847.742-.061.388-.167.3-.25.17-.309.014-.325-.13" style="fill:none;stroke:#ffdf00;stroke-width:.866664;stroke-linecap:round;stroke-linejoin:round;stroke-miterlimit:10;stroke-dasharray:none;stroke-opacity:1;visibility:visible" visibility="hidden"/><path d="m267.261 620.183 5.577-2.213M272.838 617.97l-.515 46.284M272.324 664.253l-2.185 196.942M264.563 863.41l5.576-2.213M272.838 617.97l-5.624-2.295M267.214 615.675l-5.576 2.208" style="fill:none;stroke:#ffdf00;stroke-width:1.73333;stroke-linecap:round;stroke-linejoin:round;stroke-miterlimit:10;stroke-dasharray:none;stroke-opacity:1;visibility:visible" visibility="hidden"/><path d="m267.217 615.875-.023 1.964" style="fill:none;stroke:#ffdf00;stroke-width:.999997;stroke-linecap:round;stroke-linejoin:round;stroke-miterlimit:10;stroke-dasharray:none;stroke-opacity:1;visibility:visible" visibility="hidden"/><path d="m259.111 845.836-.053 4.701M258.95 860.177l.048-4.383M259.058 850.537l.053-4.701" style="fill:none;stroke:#ffdf00;stroke-width:1.73333;stroke-linecap:round;stroke-linejoin:round;stroke-miterlimit:10;stroke-dasharray:none;stroke-opacity:1;visibility:visible" visibility="hidden"/><path d="m264.564 863.41-2.823-14.925" style="fill:none;stroke:#ffdf00;stroke-width:.866664;stroke-linecap:round;stroke-linejoin:round;stroke-miterlimit:10;stroke-dasharray:none;stroke-opacity:1;visibility:visible" visibility="hidden"/><path d="m267.261 620.183-.067-2.344" style="fill:none;stroke:#ffdf00;stroke-width:.999997;stroke-linecap:round;stroke-linejoin:round;stroke-miterlimit:10;stroke-dasharray:none;stroke-opacity:1;visibility:visible" visibility="hidden"/><path d="m297.115 876.177-.007.528M297.22 866.534l-.057 5.257M299.808 633.48l5.623 2.3M299.808 633.48l-2.53 228.015" style="fill:none;stroke:#00d4ff;stroke-width:1.73333;stroke-linecap:round;stroke-linejoin:round;stroke-miterlimit:10;stroke-dasharray:none;stroke-opacity:1;visibility:visible" visibility="hidden"/><path d="m305.43 635.779-2.697 243.22" style="fill:none;stroke:#00d4ff;stroke-width:.999997;stroke-linecap:round;stroke-linejoin:round;stroke-miterlimit:10;stroke-dasharray:none;stroke-opacity:1;visibility:visible" visibility="hidden"/><path d="m297.109 876.706 5.624 2.295" style="fill:none;stroke:#00d4ff;stroke-width:1.73333;stroke-linecap:round;stroke-linejoin:round;stroke-miterlimit:10;stroke-dasharray:none;stroke-opacity:1;visibility:visible" visibility="hidden"/><path d="m303.391 649.912-.052-.437-.16-.43-.247-.37-.302-.268-.324-.134-.311.019-.25.167-.167.297-.06.39.052.438.157.43.247.37.302.268.327.135.307-.02.252-.167.169-.297.06-.391M303.503 639.844l-.052-.435-.16-.429-.247-.373-.304-.268-.325-.134-.308.019-.25.167-.167.297-.063.39.053.438.158.43.248.371.302.267.327.135.307-.02.252-.167.168-.297.061-.391" style="fill:none;stroke:#00d4ff;stroke-width:.866664;stroke-linecap:round;stroke-linejoin:round;stroke-miterlimit:10;stroke-dasharray:none;stroke-opacity:1;visibility:visible" visibility="hidden"/><path d="m305.43 635.779 5.577-2.213M311.007 633.565l-2.7 243.223M302.732 879l5.575-2.21M311.007 633.565l-5.623-2.297M305.385 631.269l-5.577 2.21" style="fill:none;stroke:#00d4ff;stroke-width:1.73333;stroke-linecap:round;stroke-linejoin:round;stroke-miterlimit:10;stroke-dasharray:none;stroke-opacity:1;visibility:visible" visibility="hidden"/><path d="m305.385 631.47-.02 1.833" style="fill:none;stroke:#00d4ff;stroke-width:.999997;stroke-linecap:round;stroke-linejoin:round;stroke-miterlimit:10;stroke-dasharray:none;stroke-opacity:1;visibility:visible" visibility="hidden"/><path d="m297.279 861.495-.059 5.039M297.115 876.177l.048-4.386M297.22 866.534l.059-5.039" style="fill:none;stroke:#00d4ff;stroke-width:1.73333;stroke-linecap:round;stroke-linejoin:round;stroke-miterlimit:10;stroke-dasharray:none;stroke-opacity:1;visibility:visible" visibility="hidden"/><path d="m305.43 635.779-.065-2.476" style="fill:none;stroke:#00d4ff;stroke-width:.999997;stroke-linecap:round;stroke-linejoin:round;stroke-miterlimit:10;stroke-dasharray:none;stroke-opacity:1;visibility:visible" visibility="hidden"/><path d="m264.246 888.977-1.691 14.833M264.246 888.977l-1.581 4.765" style="fill:none;stroke:#00ff4a;stroke-width:.866664;stroke-linecap:round;stroke-linejoin:round;stroke-miterlimit:10;stroke-dasharray:none;stroke-opacity:1;visibility:visible"/></svg>