<svg xmlns="http://www.w3.org/2000/svg" baseProfile="full" height="1122.52" preserveAspectRatio="xMinYMin meet" style="width:765px;height:943px" width="793.701" xml:space="preserve"><path d="M403.348 969.67c-.002.028-.012.058-.014.085a.925.925 0 0 0 .081.412c.05.13.116.256.197.375.09.128.195.241.32.357a3.888 3.888 0 0 0 .992.596c.199.085.408.156.632.215a6.108 6.108 0 0 0 1.394.229 6.424 6.424 0 0 0 1.405-.061c.23-.032.448-.074.65-.135.148-.045.285-.1.419-.155M403.378 968.378l-.044.9M302.411 1023.474c.006.142.01.288.042.428.033.148.097.292.177.43.087.135.191.268.31.392.127.13.275.25.435.362a4.673 4.673 0 0 0 1.208.554 6.168 6.168 0 0 0 1.467.254c.25.016.507.02.76.009.251-.016.5-.044.745-.077.247-.042.49-.083.703-.158.016-.005.03-.008.041-.016M302.42 1022.566l-.014.937M147.43 941.923c-.005.055-.013.11-.009.163a.976.976 0 0 0 .117.378 1.875 1.875 0 0 0 .568.636c.138.095.296.186.462.258a3.947 3.947 0 0 0 .562.216c.2.054.41.104.63.138.218.038.445.064.674.076a7.505 7.505 0 0 0 1.383-.052c.228-.029.455-.065.66-.129l.063-.016M147.381 940.204l.028 1.088M248.569 897.133a.963.963 0 0 0 .148.59c.063.104.141.208.233.295.107.1.223.192.356.272.137.093.29.173.46.243a5.76 5.76 0 0 0 1.152.317 8.133 8.133 0 0 0 .636.072 7.65 7.65 0 0 0 1.299-.047c.209-.025.416-.064.609-.11.16-.04.307-.09.453-.136M248.554 895.75v.79" style="fill:none;stroke:red;stroke-width:1.6;stroke-linecap:round;stroke-linejoin:round;stroke-miterlimit:10;stroke-dasharray:none;stroke-opacity:1;visibility:visible"/><path d="m310.397 1018.463-.152 7.267M310.251 1025.408a.085.085 0 0 0 .032.076M315.967 1015.504l-5.472 2.91M310.394 1018.587l-.144 6.82M310.495 1018.414c-.057.028-.101.108-.101.174" style="fill:none;stroke:red;stroke-width:.999997;stroke-linecap:round;stroke-linejoin:round;stroke-miterlimit:10;stroke-dasharray:none;stroke-opacity:1;visibility:visible"/><path d="m142.515 937.648-.191-6.746M142.514 937.648l167.73 88.083" style="fill:none;stroke:red;stroke-width:1.73333;stroke-linecap:round;stroke-linejoin:round;stroke-miterlimit:10;stroke-dasharray:none;stroke-opacity:1;visibility:visible"/><path d="m188.09 949.003 95.72-43.626M283.81 905.377l127.832 59.291M411.642 964.668l5.138-2.728M142.324 930.903l168.073 87.56" style="fill:none;stroke:red;stroke-width:.999997;stroke-linecap:round;stroke-linejoin:round;stroke-miterlimit:10;stroke-dasharray:none;stroke-opacity:1;visibility:visible"/><path d="m289.05 903.045 127.73 58.895M254.018 886.897l24.652 11.363M176.426 916.091l-23.393 10.159M243.798 886.825l-56.276 24.442M188.093 949.063l128.13 66.305" style="fill:none;stroke:red;stroke-width:1.73333;stroke-linecap:round;stroke-linejoin:round;stroke-miterlimit:10;stroke-dasharray:none;stroke-opacity:1;visibility:visible"/><path d="m176.513 920.769-23.361 10.21M248.838 889.161 187.59 915.93M248.838 889.16l29.721 13.788" style="fill:none;stroke:red;stroke-width:.999997;stroke-linecap:round;stroke-linejoin:round;stroke-miterlimit:10;stroke-dasharray:none;stroke-opacity:1;visibility:visible"/><path d="m188.016 943.951 90.543-41.005M153.15 930.98l23.774 12.3" style="fill:none;stroke:red;stroke-width:1.73333;stroke-linecap:round;stroke-linejoin:round;stroke-miterlimit:10;stroke-dasharray:none;stroke-opacity:1;visibility:visible"/><path d="m283.725 911.953.085-6.576M411.295 971.604l.348-6.936" style="fill:none;stroke:red;stroke-width:.999997;stroke-linecap:round;stroke-linejoin:round;stroke-miterlimit:10;stroke-dasharray:none;stroke-opacity:1;visibility:visible"/><path d="m195.1 952.688 88.626-40.735M283.725 911.953l127.57 59.651" style="fill:none;stroke:red;stroke-width:1.73333;stroke-linecap:round;stroke-linejoin:round;stroke-miterlimit:10;stroke-dasharray:none;stroke-opacity:1;visibility:visible"/><path d="m248.82 895.631.017-6.471" style="fill:none;stroke:red;stroke-width:.999997;stroke-linecap:round;stroke-linejoin:round;stroke-miterlimit:10;stroke-dasharray:none;stroke-opacity:1;visibility:visible"/><path d="m281.113 680.57-.519 46.311M280.355 748.254l-1.734 154.719M281.26 667.524l-.148 13.046M248.82 895.631l22.58 10.559M176.636 927.454l-16.367 7.21M248.82 895.631l-61.129 26.947" style="fill:none;stroke:red;stroke-width:1.73333;stroke-linecap:round;stroke-linejoin:round;stroke-miterlimit:10;stroke-dasharray:none;stroke-opacity:1;visibility:visible"/><path d="m279.742 903.495 4.127 1.915M278.62 902.974l1.123.523M286.711 682.441l-.6 46.976M285.846 750.36l-1.977 155.048M286.88 669.361l-.168 13.08" style="fill:none;stroke:red;stroke-width:.999997;stroke-linecap:round;stroke-linejoin:round;stroke-miterlimit:10;stroke-dasharray:none;stroke-opacity:1;visibility:visible"/><path d="m292.163 684.268-.668 46.972M291.191 752.47l-2.141 150.576M292.351 670.905l-.188 13.363" style="fill:none;stroke:red;stroke-width:1.73333;stroke-linecap:round;stroke-linejoin:round;stroke-miterlimit:10;stroke-dasharray:none;stroke-opacity:1;visibility:visible"/><path d="m283.867 905.409 5.183-2.363" style="fill:none;stroke:red;stroke-width:.999997;stroke-linecap:round;stroke-linejoin:round;stroke-miterlimit:10;stroke-dasharray:none;stroke-opacity:1;visibility:visible"/><path d="m135.433 687.957 6.89 242.946" style="fill:none;stroke:red;stroke-width:1.73333;stroke-linecap:round;stroke-linejoin:round;stroke-miterlimit:10;stroke-dasharray:none;stroke-opacity:1;visibility:visible"/><path d="m142.324 930.903 5.018 2.615M140.785 689.938l6.557 243.58" style="fill:none;stroke:red;stroke-width:.999997;stroke-linecap:round;stroke-linejoin:round;stroke-miterlimit:10;stroke-dasharray:none;stroke-opacity:1;visibility:visible"/><path d="m147.164 693.394 5.986 237.586" style="fill:none;stroke:red;stroke-width:1.73333;stroke-linecap:round;stroke-linejoin:round;stroke-miterlimit:10;stroke-dasharray:none;stroke-opacity:1;visibility:visible"/><path d="m147.342 933.518 5.808-2.538" style="fill:none;stroke:red;stroke-width:.999997;stroke-linecap:round;stroke-linejoin:round;stroke-miterlimit:10;stroke-dasharray:none;stroke-opacity:1;visibility:visible"/><path d="m172.52 703.17 4.51 245.809" style="fill:none;stroke:red;stroke-width:1.73333;stroke-linecap:round;stroke-linejoin:round;stroke-miterlimit:10;stroke-dasharray:none;stroke-opacity:1;visibility:visible"/><path d="m177.03 948.982 5.24 2.733M178.13 705.498l4.14 246.216" style="fill:none;stroke:red;stroke-width:.999997;stroke-linecap:round;stroke-linejoin:round;stroke-miterlimit:10;stroke-dasharray:none;stroke-opacity:1;visibility:visible"/><path d="m184.448 707.948 3.645 241.115" style="fill:none;stroke:red;stroke-width:1.73333;stroke-linecap:round;stroke-linejoin:round;stroke-miterlimit:10;stroke-dasharray:none;stroke-opacity:1;visibility:visible"/><path d="m182.27 951.714 5.823-2.65" style="fill:none;stroke:red;stroke-width:.999997;stroke-linecap:round;stroke-linejoin:round;stroke-miterlimit:10;stroke-dasharray:none;stroke-opacity:1;visibility:visible"/><path d="m244.053 668.156-.054 45.366M243.974 734.197l-.177 152.629M244.063 657.677l-.012 10.479" style="fill:none;stroke:red;stroke-width:1.73333;stroke-linecap:round;stroke-linejoin:round;stroke-miterlimit:10;stroke-dasharray:none;stroke-opacity:1;visibility:visible"/><path d="m244.853 887.314 3.985 1.846M243.798 886.825l1.055.488M249.41 669.953l-.119 45.823M249.24 735.742l-.403 153.418M249.443 657.11l-.033 12.842" style="fill:none;stroke:red;stroke-width:.999997;stroke-linecap:round;stroke-linejoin:round;stroke-miterlimit:10;stroke-dasharray:none;stroke-opacity:1;visibility:visible"/><path d="m254.9 671.792-.186 45.528M254.629 737.988l-.611 148.91M254.958 657.997l-.057 13.795" style="fill:none;stroke:red;stroke-width:1.73333;stroke-linecap:round;stroke-linejoin:round;stroke-miterlimit:10;stroke-dasharray:none;stroke-opacity:1;visibility:visible"/><path d="m248.838 889.16 5.18-2.261" style="fill:none;stroke:red;stroke-width:.999997;stroke-linecap:round;stroke-linejoin:round;stroke-miterlimit:10;stroke-dasharray:none;stroke-opacity:1;visibility:visible"/><path d="m317.593 1023.303.072-6.559M312.393 1025.935l5.117-2.517M310.83 1025.378l1.47.557" style="fill:none;stroke:red;stroke-width:1.6;stroke-linecap:round;stroke-linejoin:round;stroke-miterlimit:10;stroke-dasharray:none;stroke-opacity:1;visibility:visible"/><path d="m317.626 1016.779-5.117 2.519M312.329 1019.298l-.811-.335M312.509 1019.298l-.076 6.558" style="fill:none;stroke:red;stroke-width:.866664;stroke-linecap:round;stroke-linejoin:round;stroke-miterlimit:10;stroke-dasharray:none;stroke-opacity:1;visibility:visible"/><path d="m418.35 969.563.298-6.553M413.123 972.248l5.145-2.572M411.579 971.636l1.45.607M317.537 1016.624l-1.435-.532" style="fill:none;stroke:red;stroke-width:1.6;stroke-linecap:round;stroke-linejoin:round;stroke-miterlimit:10;stroke-dasharray:none;stroke-opacity:1;visibility:visible"/><path d="m418.61 963.044-5.143 2.574M413.286 965.61l-.802-.362M413.466 965.618l-.299 6.55" style="fill:none;stroke:red;stroke-width:.866664;stroke-linecap:round;stroke-linejoin:round;stroke-miterlimit:10;stroke-dasharray:none;stroke-opacity:1;visibility:visible"/><path d="m418.524 962.887-1.413-.583" style="fill:none;stroke:red;stroke-width:1.6;stroke-linecap:round;stroke-linejoin:round;stroke-miterlimit:10;stroke-dasharray:none;stroke-opacity:1;visibility:visible"/><path d="M247.409 874.185c-.035-.102-.075-.198-.114-.292a3.583 3.583 0 0 0-.253-.411 2.69 2.69 0 0 0-.315-.34 1.9 1.9 0 0 0-.356-.237 1.52 1.52 0 0 0-.38-.128 1.196 1.196 0 0 0-.33.009 1.044 1.044 0 0 0-.311.139.808.808 0 0 0-.24.241 1.479 1.479 0 0 0-.112.235M244.966 873.462a2.252 2.252 0 0 0 1.181 2.721M247.509 883.193c-.036-.103-.076-.2-.114-.294a4.728 4.728 0 0 0-.253-.413 3.12 3.12 0 0 0-.316-.34 2.016 2.016 0 0 0-.356-.237 1.405 1.405 0 0 0-.38-.124 1.05 1.05 0 0 0-.33.008.973.973 0 0 0-.31.137.765.765 0 0 0-.24.244 1.2 1.2 0 0 0-.112.235M245.065 882.467c-.356 1.05.174 2.264 1.182 2.723M245.9 874.262l.196.816" style="fill:none;stroke:red;stroke-width:.566665;stroke-linecap:round;stroke-linejoin:round;stroke-miterlimit:10;stroke-dasharray:none;stroke-opacity:1;visibility:visible"/><path d="M245.82 875.974c.07.056.135.108.208.152a1.2 1.2 0 0 0 .367.147 1.313 1.313 0 0 0 .338.01.929.929 0 0 0 .325-.113.933.933 0 0 0 .25-.224 1.347 1.347 0 0 0 .261-.692 2.484 2.484 0 0 0 0-.445 1.808 1.808 0 0 0-.16-.624M282.469 890.17c-.04-.107-.08-.21-.124-.308a3.152 3.152 0 0 0-.266-.437 2.799 2.799 0 0 0-.336-.36 2.059 2.059 0 0 0-.376-.25 1.304 1.304 0 0 0-.402-.131 1.07 1.07 0 0 0-.346.006 1.03 1.03 0 0 0-.329.147.807.807 0 0 0-.252.256 1.4 1.4 0 0 0-.123.249M279.88 889.406c-.378 1.112.184 2.399 1.25 2.881M245.998 883.269l.199.817M245.92 884.98c.07.053.134.108.208.15a1.09 1.09 0 0 0 .703.16.907.907 0 0 0 .576-.337 1.385 1.385 0 0 0 .263-.693 2.773 2.773 0 0 0-.001-.446 1.77 1.77 0 0 0-.162-.621M282.469 899.385a5.533 5.533 0 0 0-.124-.31 3.439 3.439 0 0 0-.266-.44 2.785 2.785 0 0 0-.336-.357 1.856 1.856 0 0 0-.376-.25 1.433 1.433 0 0 0-.402-.133 1.197 1.197 0 0 0-.346.007 1.13 1.13 0 0 0-.329.147.821.821 0 0 0-.252.256 1.447 1.447 0 0 0-.123.249M279.88 898.62c-.378 1.114.184 2.398 1.25 2.88M280.867 890.254l.21.863" style="fill:none;stroke:red;stroke-width:.566665;stroke-linecap:round;stroke-linejoin:round;stroke-miterlimit:10;stroke-dasharray:none;stroke-opacity:1;visibility:visible"/><path d="M280.785 892.065c.074.057.14.115.221.16a1.141 1.141 0 0 0 .745.168 1.008 1.008 0 0 0 .342-.123c.106-.06.19-.14.269-.233.073-.1.137-.211.181-.33.047-.13.08-.261.095-.405.01-.152.01-.31 0-.472a2.051 2.051 0 0 0-.105-.495l-.064-.165M280.867 899.465l.21.865M280.785 901.275c.074.062.14.116.221.163a1.265 1.265 0 0 0 .39.155c.119.02.244.022.354.01a.948.948 0 0 0 .612-.356 1.284 1.284 0 0 0 .181-.327 1.68 1.68 0 0 0 .095-.403c.01-.154.01-.314 0-.472a2.07 2.07 0 0 0-.17-.66" style="fill:none;stroke:red;stroke-width:.566665;stroke-linecap:round;stroke-linejoin:round;stroke-miterlimit:10;stroke-dasharray:none;stroke-opacity:1;visibility:visible"/><path d="m316.786 749.384-.186 8.732M316.786 749.384l-181.773-69.646M251.766 652.792l-.001.845M324.729 677.961l-.023.875M161.248 684.685l-.02-.885M403.166 704.912l-.039.91M233.778 712.936l-.005-.872M313.223 743.905l.02-.848" style="fill:none;stroke:red;stroke-width:.999997;stroke-linecap:round;stroke-linejoin:round;stroke-miterlimit:10;stroke-dasharray:none;stroke-opacity:1;visibility:visible"/><path d="m431.252 713.341-114.65 44.775M431.252 713.341l.428-8.212M135.24 687.701l-.227-7.963M316.602 758.116 135.24 687.7" style="fill:none;stroke:red;stroke-width:1.73333;stroke-linecap:round;stroke-linejoin:round;stroke-miterlimit:10;stroke-dasharray:none;stroke-opacity:1;visibility:visible"/><path d="m431.682 705.129-114.895 44.255" style="fill:none;stroke:red;stroke-width:.999997;stroke-linecap:round;stroke-linejoin:round;stroke-miterlimit:10;stroke-dasharray:none;stroke-opacity:1;visibility:visible"/><path d="m419.492 705.028-103.051 39.954M316.44 744.982 146.775 679.84" style="fill:none;stroke:red;stroke-width:1.73333;stroke-linecap:round;stroke-linejoin:round;stroke-miterlimit:10;stroke-dasharray:none;stroke-opacity:1;visibility:visible"/><path d="m249.5 647.464-87.655 27.624M156.969 676.625l-10.193 3.213M249.5 647.464l3.364 1.14M257.025 650.012l69.23 23.441M330.326 674.833l74.09 25.09M408.835 701.417l10.656 3.61" style="fill:none;stroke:red;stroke-width:.999997;stroke-linecap:round;stroke-linejoin:round;stroke-miterlimit:10;stroke-dasharray:none;stroke-opacity:1;visibility:visible"/><path d="m233.946 712.26.217-.096.328-.219.154-.237-.028-.24-.208-.235-.379-.207M230.647 710.658l-.7.092-.31.062M312.913 742.432l.213-.106.312-.24.12-.26-.064-.264-.259-.257-.425-.23-.576-.192M309.215 740.674l-.718.1-.314.072M249.647 644.325l3.1 1.035M257.193 646.847l68.75 22.963M330.577 671.358l74.025 24.726M409.266 697.644l22.416 7.485M249.647 644.325l-87.411 27.003M156.922 672.97l-21.909 6.768" style="fill:none;stroke:red;stroke-width:1.73333;stroke-linecap:round;stroke-linejoin:round;stroke-miterlimit:10;stroke-dasharray:none;stroke-opacity:1;visibility:visible"/><path d="m332.83 677.77-3.035-.909M332.807 678.65l.023-.879M249.48 655.028l.02-7.564M259.571 653.43l.006-.846M259.577 652.583l-2.854-.854M411.59 704.754l-3.08-.921M411.548 705.661l.042-.908" style="fill:none;stroke:red;stroke-width:.999997;stroke-linecap:round;stroke-linejoin:round;stroke-miterlimit:10;stroke-dasharray:none;stroke-opacity:1;visibility:visible"/><path d="m249.48 655.028 156.961 54.389" style="fill:none;stroke:red;stroke-width:1.73333;stroke-linecap:round;stroke-linejoin:round;stroke-miterlimit:10;stroke-dasharray:none;stroke-opacity:1;visibility:visible"/><path d="m408.608 706.649 2.94-.988M405.2 703.886l-1.29.431-.744.595M403.127 705.821v.03l.103.239.276.226.438.206.571.171.668.128.732.077.753.019.727-.032.656-.095.557-.14" style="fill:none;stroke:red;stroke-width:.999997;stroke-linecap:round;stroke-linejoin:round;stroke-miterlimit:10;stroke-dasharray:none;stroke-opacity:1;visibility:visible"/><path d="m249.48 655.028-84.127 27.064M161.224 684.078l.22-.085.342-.199.175-.218.005-.218-.168-.216-.337-.19-.479-.16M157.588 682.701l-.308.059" style="fill:none;stroke:red;stroke-width:1.73333;stroke-linecap:round;stroke-linejoin:round;stroke-miterlimit:10;stroke-dasharray:none;stroke-opacity:1;visibility:visible"/><path d="m256.605 654.252 2.965-.822M251.765 653.637l.038.14.198.193.348.174.481.144.581.105.659.065.68.02.68-.029.628-.077.547-.12M253.466 651.979l-.844.231-.856.58M329.85 679.548l2.958-.9M326.493 677.081l-.963.29-.8.589M324.706 678.836l.067.198.234.208.39.188.523.156.625.116.689.072.721.02.699-.034.643-.082.551-.13" style="fill:none;stroke:red;stroke-width:.999997;stroke-linecap:round;stroke-linejoin:round;stroke-miterlimit:10;stroke-dasharray:none;stroke-opacity:1;visibility:visible"/><path d="M285.222 673.07a6.213 6.213 0 0 0-.125-.309 3.493 3.493 0 0 0-.264-.44 2.912 2.912 0 0 0-.34-.359 1.77 1.77 0 0 0-.373-.248 1.462 1.462 0 0 0-.403-.134 1.15 1.15 0 0 0-.347.008 1.15 1.15 0 0 0-.33.145.84.84 0 0 0-.25.257 1.341 1.341 0 0 0-.123.248M282.631 672.305a2.383 2.383 0 0 0 1.254 2.879M285.222 682.281a6.155 6.155 0 0 0-.125-.308 3.197 3.197 0 0 0-.264-.437 2.82 2.82 0 0 0-.34-.359 1.964 1.964 0 0 0-.373-.252 1.11 1.11 0 0 0-.749-.123 1.05 1.05 0 0 0-.331.146.808.808 0 0 0-.25.256 1.276 1.276 0 0 0-.123.25M282.631 681.517c-.374 1.113.186 2.399 1.254 2.881M283.62 673.15l.21.865" style="fill:none;stroke:red;stroke-width:.566665;stroke-linecap:round;stroke-linejoin:round;stroke-miterlimit:10;stroke-dasharray:none;stroke-opacity:1;visibility:visible"/><path d="M283.537 674.961c.073.06.14.116.22.163a1.328 1.328 0 0 0 .389.154c.123.02.247.022.357.012a.992.992 0 0 0 .342-.12c.105-.064.19-.142.269-.237a1.293 1.293 0 0 0 .181-.33c.047-.124.08-.259.095-.399a3.78 3.78 0 0 0 0-.476 2.061 2.061 0 0 0-.105-.495c-.02-.056-.043-.11-.063-.163M247.97 661.07c-.04-.102-.077-.2-.12-.296a3.29 3.29 0 0 0-.253-.418 2.443 2.443 0 0 0-.324-.346 1.753 1.753 0 0 0-.36-.24 1.471 1.471 0 0 0-.388-.13 1.145 1.145 0 0 0-.331.01 1.088 1.088 0 0 0-.317.14.747.747 0 0 0-.242.25 1.18 1.18 0 0 0-.117.233M245.485 660.336a2.287 2.287 0 0 0 1.202 2.764M283.62 682.365l.21.863M283.537 684.174c.073.06.14.116.22.16a1.139 1.139 0 0 0 .746.17.973.973 0 0 0 .611-.358 1.33 1.33 0 0 0 .181-.328c.047-.128.08-.262.095-.405.01-.152.01-.31 0-.472a2.051 2.051 0 0 0-.105-.495l-.063-.165M247.97 669.914c-.04-.1-.077-.2-.12-.294a3.405 3.405 0 0 0-.253-.42 2.519 2.519 0 0 0-.324-.346 1.745 1.745 0 0 0-.36-.24 1.428 1.428 0 0 0-.388-.129 1.195 1.195 0 0 0-.331.01 1.088 1.088 0 0 0-.317.139.741.741 0 0 0-.242.247 1.193 1.193 0 0 0-.117.239M245.485 669.18a2.288 2.288 0 0 0 1.202 2.766M246.433 661.15l.201.83" style="fill:none;stroke:red;stroke-width:.566665;stroke-linecap:round;stroke-linejoin:round;stroke-miterlimit:10;stroke-dasharray:none;stroke-opacity:1;visibility:visible"/><path d="M246.354 662.886c.073.058.136.114.212.158a1.217 1.217 0 0 0 .373.146 1.245 1.245 0 0 0 .343.014.957.957 0 0 0 .328-.116 1 1 0 0 0 .259-.228 1.35 1.35 0 0 0 .264-.703 3.213 3.213 0 0 0 0-.453 1.91 1.91 0 0 0-.1-.474 1.9 1.9 0 0 0-.063-.16M246.433 669.994l.201.831M246.354 671.73c.073.06.136.114.212.158a1.255 1.255 0 0 0 .373.148 1.243 1.243 0 0 0 .343.012.93.93 0 0 0 .587-.343c.07-.095.13-.201.174-.313.044-.126.077-.254.09-.39.01-.146.01-.298 0-.452a1.92 1.92 0 0 0-.1-.476 2.649 2.649 0 0 0-.063-.16" style="fill:none;stroke:red;stroke-width:.566665;stroke-linecap:round;stroke-linejoin:round;stroke-miterlimit:10;stroke-dasharray:none;stroke-opacity:1;visibility:visible"/><path d="m413.123 972.248-3.699-.66M411.295 971.604l-7.917-3.226M142.515 937.648l4.866 2.556" style="fill:none;stroke:red;stroke-width:1.6;stroke-linecap:round;stroke-linejoin:round;stroke-miterlimit:10;stroke-dasharray:none;stroke-opacity:1;visibility:visible"/><path d="m278.62 902.974.05-4.714M187.59 915.93l-11.164.161M153.15 930.98l-.117-4.73M176.426 916.091l11.096-4.824" style="fill:none;stroke:red;stroke-width:1.73333;stroke-linecap:round;stroke-linejoin:round;stroke-miterlimit:10;stroke-dasharray:none;stroke-opacity:1;visibility:visible"/><path d="m187.691 922.578-11.178-1.809M176.426 916.091l11.164-.161" style="fill:none;stroke:red;stroke-width:.999997;stroke-linecap:round;stroke-linejoin:round;stroke-miterlimit:10;stroke-dasharray:none;stroke-opacity:1;visibility:visible"/><path d="m188.093 949.064-.077-5.113M177.03 948.982l-.106-5.702M188.093 949.064l7.007 3.624M286.111 729.417l-5.756 18.837M286.712 682.441l-5.452-14.917M278.62 902.974l-7.22 3.216M187.691 922.578l-11.055 4.876M153.15 930.98l7.119 3.684M176.513 920.769l11.178 1.809" style="fill:none;stroke:red;stroke-width:1.73333;stroke-linecap:round;stroke-linejoin:round;stroke-miterlimit:10;stroke-dasharray:none;stroke-opacity:1;visibility:visible"/><path d="m280.355 748.254 5.756-18.837M291.495 731.24l-5.649 19.12M281.112 680.57l5.768-11.209" style="fill:none;stroke:red;stroke-width:.999997;stroke-linecap:round;stroke-linejoin:round;stroke-miterlimit:10;stroke-dasharray:none;stroke-opacity:1;visibility:visible"/><path d="m285.846 750.36 5.649-19.12M286.712 682.441l5.639-11.536" style="fill:none;stroke:red;stroke-width:1.73333;stroke-linecap:round;stroke-linejoin:round;stroke-miterlimit:10;stroke-dasharray:none;stroke-opacity:1;visibility:visible"/><path d="m135.24 687.701 5.545 2.237" style="fill:none;stroke:red;stroke-width:.999997;stroke-linecap:round;stroke-linejoin:round;stroke-miterlimit:10;stroke-dasharray:none;stroke-opacity:1;visibility:visible"/><path d="m135.24 687.701 11.924 5.693M233.773 712.064l10.226 1.458M249.291 715.776l-5.317 18.421M249.48 655.028l-5.417 2.649" style="fill:none;stroke:red;stroke-width:1.73333;stroke-linecap:round;stroke-linejoin:round;stroke-miterlimit:10;stroke-dasharray:none;stroke-opacity:1;visibility:visible"/><path d="m233.773 712.064 15.518 3.712M254.714 717.32l-5.474 18.422M249.48 655.028l-.037 2.082" style="fill:none;stroke:red;stroke-width:.999997;stroke-linecap:round;stroke-linejoin:round;stroke-miterlimit:10;stroke-dasharray:none;stroke-opacity:1;visibility:visible"/><path d="m249.24 735.742 5.474-18.422M251.765 653.637l3.193 4.36" style="fill:none;stroke:red;stroke-width:1.73333;stroke-linecap:round;stroke-linejoin:round;stroke-miterlimit:10;stroke-dasharray:none;stroke-opacity:1;visibility:visible"/><path d="m316.223 1015.368-4.705 3.595M411.642 964.668l.842.58" style="fill:none;stroke:red;stroke-width:.866664;stroke-linecap:round;stroke-linejoin:round;stroke-miterlimit:10;stroke-dasharray:none;stroke-opacity:1;visibility:visible"/><path d="m246.197 884.086-.297-9.824M246.096 875.078l-.098 8.191M281.077 900.33l-.21-10.076M281.077 891.117l-.21 8.348" style="fill:none;stroke:red;stroke-width:.566665;stroke-linecap:round;stroke-linejoin:round;stroke-miterlimit:10;stroke-dasharray:none;stroke-opacity:1;visibility:visible"/><path d="m316.786 749.384-3.563-5.479M156.969 676.625l4.876-1.537M161.845 675.088l-4.876 1.537M257.025 650.012l-4.161-1.408M259.577 652.583l-2.552-2.571M330.326 674.833l-4.071-1.38M332.83 677.77l-2.504-2.937M408.835 701.417l-4.419-1.494M411.59 704.754l-2.755-3.337" style="fill:none;stroke:red;stroke-width:.999997;stroke-linecap:round;stroke-linejoin:round;stroke-miterlimit:10;stroke-dasharray:none;stroke-opacity:1;visibility:visible"/><path d="m316.44 744.982-4.206-4.099M249.5 647.464l3.247-2.104M252.864 648.604l4.329-1.757M330.577 671.358l-4.634-1.548M326.255 673.453l4.322-2.095M409.266 697.644l-4.664-1.56M404.602 696.084l4.664 1.56M156.922 672.97l5.314-1.642M161.845 675.088l-4.923-2.118" style="fill:none;stroke:red;stroke-width:1.73333;stroke-linecap:round;stroke-linejoin:round;stroke-miterlimit:10;stroke-dasharray:none;stroke-opacity:1;visibility:visible"/><path d="m326.255 673.453 3.54 3.408M252.864 648.604l3.859 3.125M404.416 699.923l4.094 3.91" style="fill:none;stroke:red;stroke-width:.999997;stroke-linecap:round;stroke-linejoin:round;stroke-miterlimit:10;stroke-dasharray:none;stroke-opacity:1;visibility:visible"/><path d="m408.51 703.833-2.069 5.584" style="fill:none;stroke:red;stroke-width:1.73333;stroke-linecap:round;stroke-linejoin:round;stroke-miterlimit:10;stroke-dasharray:none;stroke-opacity:1;visibility:visible"/><path d="m408.608 706.649-3.408-2.763" style="fill:none;stroke:red;stroke-width:.999997;stroke-linecap:round;stroke-linejoin:round;stroke-miterlimit:10;stroke-dasharray:none;stroke-opacity:1;visibility:visible"/><path d="m156.969 676.625 8.384 5.467" style="fill:none;stroke:red;stroke-width:1.73333;stroke-linecap:round;stroke-linejoin:round;stroke-miterlimit:10;stroke-dasharray:none;stroke-opacity:1;visibility:visible"/><path d="m256.605 654.252-3.139-2.273M329.85 679.548l-3.357-2.467" style="fill:none;stroke:red;stroke-width:.999997;stroke-linecap:round;stroke-linejoin:round;stroke-miterlimit:10;stroke-dasharray:none;stroke-opacity:1;visibility:visible"/><path d="m283.83 683.228-.21-10.078M283.83 674.015l-.21 8.35M246.634 670.825l-.201-9.675M246.634 661.98l-.201 8.014" style="fill:none;stroke:red;stroke-width:.566665;stroke-linecap:round;stroke-linejoin:round;stroke-miterlimit:10;stroke-dasharray:none;stroke-opacity:1;visibility:visible"/><path d="m146.049 590.255.037 1.801" style="fill:none;stroke:#00ff4a;stroke-width:.999997;stroke-linecap:round;stroke-linejoin:round;stroke-miterlimit:10;stroke-dasharray:none;stroke-opacity:1;visibility:visible" visibility="hidden"/><path d="m319.214 646.97-.041 1.95M146.049 590.255l10.13 3.318M158.133 594.212l109.32 35.804M269.842 630.8l2.747.9M276.411 632.95l24.647 8.073M302.733 641.573l16.48 5.398" style="fill:none;stroke:#00ff4a;stroke-width:.666665;stroke-linecap:round;stroke-linejoin:round;stroke-miterlimit:10;stroke-dasharray:none;stroke-opacity:1;visibility:visible" visibility="hidden"/><path d="m146.086 592.055 173.085 56.864" style="fill:none;stroke:#00ff4a;stroke-width:.999997;stroke-linecap:round;stroke-linejoin:round;stroke-miterlimit:10;stroke-dasharray:none;stroke-opacity:1;visibility:visible" visibility="hidden"/><path d="m319.214 646.97 59.694-19.542M381.006 626.743l25.249-8.268M411.455 616.77l11.533-3.774" style="fill:none;stroke:#00ff4a;stroke-width:.666665;stroke-linecap:round;stroke-linejoin:round;stroke-miterlimit:10;stroke-dasharray:none;stroke-opacity:1;visibility:visible" visibility="hidden"/><path d="m250.12 562.153-104.072 28.1M422.988 612.995l-135.107-39.736M276.657 569.959l-26.538-7.806M319.173 648.92l103.733-34.073M422.988 612.995l-.084 1.852" style="fill:none;stroke:#00ff4a;stroke-width:.999997;stroke-linecap:round;stroke-linejoin:round;stroke-miterlimit:10;stroke-dasharray:none;stroke-opacity:1;visibility:visible" visibility="hidden"/><path d="M378.956 606.2v13.783M373.687 602.147v13.783M365.58 628.09v-15.95M365.58 610.19v-1.56M305.525 588.063v23.107M298.634 580.767v23.103M216.747 610.9v-1.687M216.747 607.728v-14.792M207.967 601.319v-17.962M203.974 606.508v-17.963" style="fill:none;stroke:#00ff4a;stroke-width:.666665;stroke-linecap:butt;stroke-linejoin:round;stroke-miterlimit:10;stroke-dasharray:none;stroke-opacity:1;visibility:visible" visibility="hidden"/><path d="m158.133 594.212-1.954-.639M156.179 593.573l1.954.639M269.842 630.8l-2.389-.784M267.453 630.016l2.389.784M276.411 632.95l-3.822-1.25M272.589 631.7l3.822 1.25M302.733 641.573l-1.675-.55M301.058 641.023l1.675.55M381.006 626.743l-2.098.685M378.908 627.428l2.098-.685M411.455 616.77l-5.2 1.705M406.255 618.475l5.2-1.705" style="fill:none;stroke:#00ff4a;stroke-width:.666665;stroke-linecap:round;stroke-linejoin:round;stroke-miterlimit:10;stroke-dasharray:none;stroke-opacity:1;visibility:visible" visibility="hidden"/><path d="m276.657 569.959 11.224 3.3M287.881 573.259l-11.224-3.3" style="fill:none;stroke:#00ff4a;stroke-width:.999997;stroke-linecap:round;stroke-linejoin:round;stroke-miterlimit:10;stroke-dasharray:none;stroke-opacity:1;visibility:visible" visibility="hidden"/><path d="m373.687 615.93 5.269-9.73M365.58 612.14l13.376 7.843M365.58 610.19l8.107-8.043M365.58 612.14l8.107 3.79M365.58 608.63v19.46M365.58 610.19v1.95M365.58 612.14v-1.95M373.687 615.93l-8.107-7.3M298.634 603.87l6.891-15.807M305.525 588.063l-6.891 15.807M216.747 592.936V610.9M216.747 607.728v1.485M216.747 609.213v-1.485M207.967 601.319l8.78-8.383M216.747 609.213l-8.78-7.894M216.747 609.213l-12.773-2.705M207.967 601.319l-3.993-12.774" style="fill:none;stroke:#00ff4a;stroke-width:.666665;stroke-linecap:butt;stroke-linejoin:round;stroke-miterlimit:10;stroke-dasharray:none;stroke-opacity:1;visibility:visible" visibility="hidden"/><path d="m311.518 1018.963-3.219 6.689" style="fill:none;stroke:red;stroke-width:1.6;stroke-linecap:round;stroke-linejoin:round;stroke-miterlimit:10;stroke-dasharray:none;stroke-opacity:1;visibility:visible"/><path d="m161.845 675.088-.863 7.704" style="fill:none;stroke:red;stroke-width:1.73333;stroke-linecap:round;stroke-linejoin:round;stroke-miterlimit:10;stroke-dasharray:none;stroke-opacity:1;visibility:visible"/></svg>