<svg xmlns="http://www.w3.org/2000/svg" baseProfile="full" height="1122.52" preserveAspectRatio="xMinYMin meet" style="width:765px;height:943px" width="793.701" xml:space="preserve"><path d="m432.042 648.117.012-.217v-.204l-.026-.193-.05-.167-.063-.14-.079-.116-.101-.076-.105-.05-.116-.014-.114.025-.114.05-.127.093-.116.125-.115.155-.102.165-.09.194-.078.217-.05.216-.038.22-.027.217v.218l.013.192.04.177.062.155.065.141.09.09.102.063.105.039.127-.013.115-.039.126-.076.116-.101.116-.143.1-.153.103-.19.079-.206.064-.206.049-.228.027-.22M439.916 646.056l.012-.207v-.204l-.025-.19-.05-.167-.064-.141-.078-.117-.091-.075-.103-.052-.114-.013-.115.027-.114.05-.118.091-.113.115-.115.152-.105.179-.087.193-.064.207-.064.216-.038.22-.027.216v.204l.012.193.04.178.05.154.079.14.089.09.089.067.116.035.104-.012.126-.038.115-.078.115-.101.116-.128.1-.168.105-.177.077-.206.06-.206.054-.216.026-.231M436.255 647.016l.013-.243-.013-.242-.012-.218-.053-.206-.05-.192-.09-.155-.091-.129-.101-.086-.116-.065-.127-.025-.143.012-.14.038-.14.079-.13.113-.14.143-.127.164-.116.206-.117.218-.088.23-.08.244-.059.255-.041.258-.024.24-.014.259.026.231.028.218.049.19.079.167.072.139.105.119.115.075.129.039.128.012.14-.027.143-.064.125-.101.141-.128.128-.155.127-.177.119-.207.102-.23.075-.243.077-.244.05-.256.041-.256M428.866 653.817l-.078-.04-.064-.064-.053-.09-.023-.114-.013-.141v-.142M429.467 644.57l.027-.15.04-.16.06-.137.069-.128.073-.1.092-.068.086-.038M441.568 640.819l.038-.012h.038M230.535 609.18l199.38 34.61M441.568 640.819l-11.653 2.97M428.635 653.225l.832-8.654M329.995 674.801v-.245l-.025-.228-.04-.206-.073-.192-.092-.154-.102-.127-.128-.089-.141-.051-.141-.015-.153.04-.167.062-.153.117-.143.14-.14.165-.114.206-.102.218-.091.244-.063.244-.04.243-.024.257.014.23.036.228.052.192.077.18.101.142.119.103.138.063.14.038.156-.013.154-.05.15-.089.157-.129.138-.155.128-.19.119-.208.087-.229.078-.241.053-.257.035-.244M319.573 677.528l.013-.255-.026-.23-.05-.208-.064-.189-.103-.169-.102-.116-.128-.088-.155-.05-.139-.013-.165.023-.156.08-.152.101-.156.154-.14.165-.127.207-.101.232-.092.242-.065.242-.038.257-.012.243v.242l.039.22.063.202.078.181.103.139.128.105.139.077.14.023.157-.012.163-.05.155-.09.154-.128.141-.153.13-.194.125-.218.092-.228.076-.244.05-.258.024-.242M315.629 684.11l-.091-.054-.075-.06-.065-.106-.038-.128-.023-.14v-.154M315.949 673.624l.011-.179.054-.167.061-.166.09-.143.105-.113.115-.09.1-.052M331.787 668.81h.153M331.787 668.81l-15.302 3.903M143.404 623.727l173.082 48.987M315.949 673.624l-.612 9.845M246.209 613.7l-70.076 12.215" style="fill:none;stroke:red;stroke-width:.999997;stroke-linecap:round;stroke-linejoin:round;stroke-miterlimit:4;stroke-dasharray:none;stroke-opacity:1;visibility:visible"/><path d="m434.28 647.553.066-.09.064-.103.037-.113.04-.14.023-.127M434.51 646.98v-.13l-.011-.1-.013-.104" style="fill:none;stroke:red;stroke-width:.999997;stroke-linecap:round;stroke-linejoin:round;stroke-miterlimit:4;stroke-dasharray:none;stroke-opacity:1;visibility:visible"/><path d="m244.12 620.603 184.746 33.214M243.557 607.017l198.086 33.79M243.557 607.017h-.09M230.535 609.18l-.089.027-.09.062-.091.091-.062.1-.052.131-.037.129-.013.14M428.954 653.804l-.048.013h-.04M441.643 640.807l.08.037.052.065.05.091.022.114.013.141v.14M441.015 649.921l-.025.156-.036.139-.067.143-.061.126-.078.09-.09.077-.078.038M440.58 650.69l-11.625 3.115M230.535 609.18l12.932-2.164M441.86 641.396l-.845 8.527M230.1 609.861l-.037 1.167M158.885 621.165l173.055 47.643M143.162 633.38l172.468 50.73M158.885 621.165h-.139M143.404 623.727l-.115.038-.101.066-.09.089-.092.115-.049.14-.037.14-.016.155M142.83 632.816l.014.128.024.128.052.116.064.09.089.064.09.037M315.783 684.11l-.077.011-.077-.011M331.94 668.81l.091.05.065.064.064.104.038.126.026.154v.154M331.583 679.13l-.025.177-.053.167-.063.154-.09.14-.088.116-.102.09-.115.051M331.046 680.024l-15.261 4.085M143.404 623.727l15.34-2.56M331.583 679.13l.64-9.669M142.83 632.816l.075-8.347M230.56 610.961l-.076-.013-.063.012" style="fill:none;stroke:red;stroke-width:1.99999;stroke-linecap:round;stroke-linejoin:round;stroke-miterlimit:4;stroke-dasharray:none;stroke-opacity:1;visibility:visible"/><path d="m246.489 619.719.205-5.312M246.694 614.407l-.013-.143-.026-.139-.052-.13-.073-.115-.104-.088-.103-.065-.113-.027M246.209 613.7l-15.647-2.74" style="fill:none;stroke:red;stroke-width:.999997;stroke-linecap:round;stroke-linejoin:round;stroke-miterlimit:4;stroke-dasharray:none;stroke-opacity:1;visibility:visible"/><path d="m191.472 630.14 54.633-9.897M163.07 622.317l67.35-11.357" style="fill:none;stroke:red;stroke-width:1.99999;stroke-linecap:round;stroke-linejoin:round;stroke-miterlimit:4;stroke-dasharray:none;stroke-opacity:1;visibility:visible"/><path d="m369.04 647.61-.157 1.559M368.077 647.52l-.159 1.555M369.403 648.804a.256.256 0 0 0-.043-.161M369.328 648.95a.221.221 0 0 0 .078-.145M367.64 648.704a.856.856 0 0 0-.284.155M367.96 648.641a1.519 1.519 0 0 0-.318.062M369.368 650.281a.213.213 0 0 0 .076-.144l.08-.985M369.084 650.435a1.01 1.01 0 0 0 .286-.155M368.734 650.501c.116-.01.236-.03.352-.066M368.28 650.495c.146.012.303.02.455.008M367.823 650.407c.148.04.301.072.457.086M367.496 650.27c.106.059.214.106.327.139M367.245 650.064a.819.819 0 0 0 .249.206M367.244 650.064a.24.24 0 0 1-.037-.155l.068-.713M367.983 642.633l-.419 4.127c-.084.752 2.298 1.065 2.236.23l.364-3.526M369.228 648.861a2.027 2.027 0 0 0-.305-.121" style="fill:none;stroke:red;stroke-width:.666665;stroke-linecap:round;stroke-linejoin:round;stroke-miterlimit:2;stroke-dasharray:none;stroke-opacity:1;visibility:visible"/><path d="M369.476 649.076a1.072 1.072 0 0 0-.248-.216M254.23 627.215l-.157 1.557M253.268 627.123l-.159 1.555M254.275 630.039a.976.976 0 0 0 .286-.154M253.925 630.108a1.71 1.71 0 0 0 .352-.068M253.469 630.099c.148.011.305.02.457.008M253.013 630.012c.147.038.301.07.457.085M252.686 629.873c.105.058.213.107.327.139M252.436 629.668a.795.795 0 0 0 .249.205M252.435 629.668a.24.24 0 0 1-.037-.156l.068-.713M254.594 628.408a.259.259 0 0 0-.043-.161M254.52 628.556a.224.224 0 0 0 .076-.148M252.831 628.308a.884.884 0 0 0-.284.156M253.15 628.245a1.515 1.515 0 0 0-.317.062" style="fill:none;stroke:red;stroke-width:.666665;stroke-linecap:round;stroke-linejoin:round;stroke-miterlimit:2;stroke-dasharray:none;stroke-opacity:1;visibility:visible"/><path d="M254.56 629.887a.213.213 0 0 0 .074-.147l.08-.983M254.666 628.679a1.104 1.104 0 0 0-.248-.215M253.173 622.237l-.419 4.127c-.085.752 2.297 1.065 2.236.23l.364-3.526" style="fill:none;stroke:red;stroke-width:.666665;stroke-linecap:round;stroke-linejoin:round;stroke-miterlimit:2;stroke-dasharray:none;stroke-opacity:1;visibility:visible"/><path d="M254.42 628.465c-.099-.045-.2-.09-.307-.121M159.462 642.66l-.159 1.557M158.5 642.569l-.16 1.553M158.7 645.544c.15.012.307.02.458.008M158.245 645.455c.148.04.3.072.455.088M157.918 645.319c.106.057.214.104.327.136M157.666 645.112a.813.813 0 0 0 .25.207M157.666 645.112a.244.244 0 0 1-.038-.156l.068-.713M159.75 643.999a.217.217 0 0 0 .076-.146M158.062 643.752a.88.88 0 0 0-.284.155M158.38 643.69a1.433 1.433 0 0 0-.315.063M159.79 645.332a.213.213 0 0 0 .075-.144l.08-.988M159.506 645.483a.98.98 0 0 0 .284-.153" style="fill:none;stroke:red;stroke-width:.666665;stroke-linecap:round;stroke-linejoin:round;stroke-miterlimit:2;stroke-dasharray:none;stroke-opacity:1;visibility:visible"/><path d="M159.157 645.552a1.54 1.54 0 0 0 .35-.07M159.898 644.123a1.127 1.127 0 0 0-.248-.214M159.826 643.855a.259.259 0 0 0-.044-.163M158.405 637.681l-.42 4.127c-.085.75 2.299 1.065 2.237.23l.363-3.526" style="fill:none;stroke:red;stroke-width:.666665;stroke-linecap:round;stroke-linejoin:round;stroke-miterlimit:2;stroke-dasharray:none;stroke-opacity:1;visibility:visible"/><path d="M159.652 643.91a1.993 1.993 0 0 0-.306-.123M265.298 674.48l-.157 1.559M264.335 674.39l-.159 1.555M265.662 675.673a.259.259 0 0 0-.043-.163M265.586 675.818a.219.219 0 0 0 .077-.145M263.9 675.573a.899.899 0 0 0-.287.155M264.217 675.51a1.437 1.437 0 0 0-.317.062M264.24 669.502l-.417 4.126c-.086.752 2.296 1.066 2.235.232l.364-3.528M265.489 675.73a1.993 1.993 0 0 0-.306-.123" style="fill:none;stroke:red;stroke-width:.666665;stroke-linecap:round;stroke-linejoin:round;stroke-miterlimit:2;stroke-dasharray:none;stroke-opacity:1;visibility:visible"/><path d="M265.734 675.944a1.072 1.072 0 0 0-.248-.215" style="fill:none;stroke:red;stroke-width:.666665;stroke-linecap:round;stroke-linejoin:round;stroke-miterlimit:2;stroke-dasharray:none;stroke-opacity:1;visibility:visible"/><path d="m429.467 644.571 2.575 3.546M436.255 647.016l-4.213 1.101M441.86 641.396l-1.944 4.66M436.255 647.016l3.661-.96M439.916 646.056l-3.661.96M441.015 649.923l-4.76-2.907M332.223 669.461l-2.228 5.34M331.583 679.13l-1.588-4.329M315.949 673.624l3.624 3.904M315.949 673.624l3.623 3.904M158.744 621.167l17.389 4.748" style="fill:none;stroke:red;stroke-width:.999997;stroke-linecap:round;stroke-linejoin:round;stroke-miterlimit:4;stroke-dasharray:none;stroke-opacity:1;visibility:visible"/><path d="m246.209 613.7-2.089 6.903M158.744 621.167l4.326 1.15" style="fill:none;stroke:red;stroke-width:1.99999;stroke-linecap:round;stroke-linejoin:round;stroke-miterlimit:4;stroke-dasharray:none;stroke-opacity:1;visibility:visible"/><path d="m369.403 648.804-1.42-6.171M369.403 648.804l.761-5.34M254.594 628.408l-1.421-6.171M254.594 628.408l.76-5.34M159.826 643.855l-1.421-6.174M159.826 643.855l.759-5.343M265.662 675.673l-1.422-6.171M265.662 675.673l.76-5.341" style="fill:none;stroke:red;stroke-width:.666665;stroke-linecap:round;stroke-linejoin:round;stroke-miterlimit:2;stroke-dasharray:none;stroke-opacity:1;visibility:visible"/><path d="m252.133 739.354 3.592 1.11M349.34 720.934l-.205.078-.19.116-.205.14-.19.18-.195.189-.179.232-.179.256-.155.27-.14.279-.139.307-.117.309-.088.332-.079.32-.064.334-.037.32-.014.32v.308l.026.306.038.283.064.255.091.244.103.216.114.192.128.169.155.128.165.103.167.064.179.036h.192l.204-.036.19-.064.208-.091.192-.128.206-.167.19-.193.18-.203.179-.245.166-.255.142-.282.141-.294.127-.308.101-.32.092-.32.062-.333.053-.32.024-.32.013-.319-.013-.292-.037-.297-.052-.27-.076-.254-.09-.232-.102-.205-.127-.18-.143-.14-.153-.127-.168-.079-.177-.05-.192-.027-.192.015-.194.05M264.26 748.525l.207-.168.216-.14.218-.115.218-.09M265.12 748.014l.23-.052.23-.025.216.015.218.048.205.078.194.114.166.144.166.177.141.205.117.23.099.271.079.281.065.293.036.32v.319l-.012.348-.024.345-.065.345-.079.347-.099.347-.13.332-.143.32-.165.306-.166.295-.192.281-.205.243-.216.232-.219.192-.23.168-.231.139-.244.102-.23.078-.229.037h-.231l-.219-.037M337.332 885.462l-.192.09-.193.05-.18.015-.164-.017-.168-.034-.153-.079-.139-.101-.117-.13-.116-.152-.089-.193-.062-.204-.055-.23-.037-.255-.013-.272v-.28l.026-.292.054-.298.062-.31.088-.304.091-.307.128-.296.128-.293.141-.284.166-.256.168-.243.177-.23.18-.203.192-.179.192-.154.193-.131.19-.101.195-.063.177-.026.181-.014.165.027.155.06.141.093.14.114.101.155.105.166.076.204.062.22.052.241.015.258.012.283-.027.279-.022.296-.068.307-.076.306-.09.296-.1.307-.132.295-.14.28-.152.27-.156.256-.178.231-.179.218-.177.189-.195.173-.19.136-.194.116M255.927 926.6h.194l.186-.039.206-.061.206-.105M256.72 926.395l.228-.127.218-.153.219-.18.217-.218.205-.231.193-.256.191-.28.167-.28.167-.312.14-.304.114-.322.103-.318.09-.335.066-.319.037-.306.012-.312v-.29l-.025-.286-.05-.253-.076-.247-.091-.213-.102-.194-.141-.152-.141-.141-.166-.103-.181-.073-.192-.043-.203-.012-.204.025-.217.054-.219.09-.232.115-.217.151-.23.168-.208.207M255.989 740.549l102.749-31.92" style="fill:none;stroke:#00ff4a;stroke-width:.999997;stroke-linecap:round;stroke-linejoin:round;stroke-miterlimit:4;stroke-dasharray:none;stroke-opacity:1;visibility:visible"/><path d="m252.72 737.193 99.66-30.5" style="fill:none;stroke:#00ff4a;stroke-width:1.99999;stroke-linecap:round;stroke-linejoin:round;stroke-miterlimit:4;stroke-dasharray:none;stroke-opacity:1;visibility:visible"/><path d="m349.034 881.787-.244-.116-.254-.138-.245-.183-.23-.189-.221-.219-.2-.243-.178-.254-.182-.268-.14-.287-.13-.292-.102-.308-.065-.307-.05-.292-.026-.31v-.295l.025-.28.051-.27.092-.254.103-.243.128-.219.14-.193.18-.177.193-.143.204-.113.217-.079.231-.064.243-.01h.254l.26.037.25.076.262.101.254.132.242.151.244.18.22.207.218.228.19.257.179.268.167.282.128.28.114.31.091.293.061.308.042.304.012.296-.026.299-.038.276-.063.27-.09.247-.13.229-.139.206-.156.179-.178.149-.206.13-.216.104-.233.078-.227.036h-.256l-.244-.028-.257-.048-.27-.09M353.426 893.694l14.39-183.337-16.556-4.303M362.912 707.937l-.114.039-.103.052-.063.064-.04.064.015.064.025.064.078.074.1.064.13.066.152.052.182.062.204.054.217.037.23.037.244.028.242.012.245.014h.228l.231-.014.207-.012.192-.038.165-.027.143-.05.101-.053.088-.049.04-.065.013-.064-.013-.064-.055-.064-.085-.076-.117-.068-.14-.062-.182-.05-.189-.052-.205-.05-.23-.041-.233-.024-.243-.025-.24-.014h-.462l-.22.014-.203.024-.18.025-.155.052M357.422 706.824l.05.05.088.064.115.052.145.051.164.039.18.038.206.039.204.025.206.014h.41l.178-.014.167-.025.15-.027.131-.037.089-.052.062-.037.028-.066M368.74 710.382l-.105.026-.115.014h-.28l-.154-.014-.139-.012-.13-.039M351.262 706.054l-.103-.024-.063-.04-.065-.024-.024-.04-.012-.038M372.12 709.257l-.014.039-.038.024-.064.025M368.74 710.382l3.263-1.036" style="fill:none;stroke:#00ff4a;stroke-width:.999997;stroke-linecap:round;stroke-linejoin:round;stroke-miterlimit:4;stroke-dasharray:none;stroke-opacity:1;visibility:visible"/><path d="m361.467 719.909-.27-.05-.267-.028-.27.013-.268.038-.258.078-.244.116-.215.128-.219.178-.192.194-.164.229-.157.243-.127.269-.09.281-.078.296-.048.319-.013.321.013.32.036.32.066.332.09.308.126.319.142.295.166.282.18.27.218.242.218.218.241.193.244.165.27.142.268.1.27.078.267.039.27.015.268-.027.256-.065.256-.09.23-.117.218-.152.206-.192.192-.204.152-.23.142-.272.116-.266.09-.297.05-.304.04-.322v-.321l-.028-.32-.05-.332-.076-.319-.116-.321-.128-.307-.155-.296-.175-.268-.194-.256-.219-.23-.243-.218-.244-.18-.256-.154-.269-.114-.268-.088M356.026 802.25l-.156-.028-.14-.01-.14.038-.127.05-.116.092-.101.101-.078.137-.053.157-.025.166v.17l.025.174.053.18.078.166.101.154.116.141.128.117.139.087.14.065.156.04.138.01.143-.035.13-.052.113-.088.102-.104.076-.141.052-.154.026-.166v-.167l-.026-.179-.052-.18-.076-.164-.089-.156-.115-.138-.14-.116-.145-.107-.137-.059M259.114 744.72l-9.18 203.53M254.517 741.674l.192-.05.217-.038.232-.025.255-.025h.537l.268.01.27.027.255.039.246.05.217.051.205.064.164.079.143.077.101.076.078.09.025.086v.081l-.05.075-.079.088-.114.067-.151.064-.183.062-.203.039-.23.039-.246.025-.255.013h-.268l-.281-.013-.268-.012-.259-.039-.254-.038-.231-.051-.204-.065-.195-.064-.154-.076-.127-.09-.073-.078-.054-.09-.012-.074.024-.091.065-.076.091-.077.139-.064.167-.066M251.597 740.381l-.027.065-.05.062-.089.066-.129.063-.152.039-.181.053-.204.024-.218.013h-.473l-.228-.013-.22-.039-.217-.038-.192-.039-.167-.063-.141-.066-.116-.062-.063-.076-.039-.065v-.076l.039-.065M241.955 739.372l-.1-.04-.081-.052-.048-.038-.013-.05M264.502 743.289l-.012.039-.036.025-.053.039-.078.025M264.325 743.416l-4.175 1.318M260.15 744.734l-.116.038-.15.014-.156.014h-.165l-.166-.028-.143-.024-.139-.026M241.955 739.372l17.159 5.35" style="fill:none;stroke:#00ff4a;stroke-width:.999997;stroke-linecap:round;stroke-linejoin:round;stroke-miterlimit:4;stroke-dasharray:none;stroke-opacity:1;visibility:visible"/><path d="m362.12 720.177-.104.27-.076.281-.05.308-.025.294v.306l.025.32.05.306.075.308.092.308.128.296.139.282.181.268.179.242.205.232.219.204.23.179.242.168M244.186 722.814l-.23-.088-.219-.116-.22-.128-.216-.166-.191-.194-.192-.217-.168-.23-.152-.256-.143-.269-.114-.282-.088-.282-.078-.306-.052-.296-.038-.295v-.308l.013-.279.037-.282.066-.27.089-.256.102-.242.128-.218.155-.192.151-.165.181-.144.191-.113.205-.091.218-.064.217-.025.233.013.23.039.217.064.23.089.219.125.216.156.207.178.19.205.179.233.167.242.14.256.13.28.116.284.075.294.064.295.051.307.015.296v.292l-.04.294-.051.271-.076.268-.091.243-.128.233-.126.203-.156.178-.176.156-.183.127-.203.103-.206.076-.218.038-.229.012-.23-.025-.219-.05M308.357 976.69v.205l.012.164.053.156.061.127.079.101.101.052.128.04.127-.015.132-.036.152-.08.14-.114.143-.14.125-.156.13-.19.115-.204.09-.206.089-.218.05-.229.041-.207.013-.204-.013-.193-.028-.165-.063-.128-.064-.116-.103-.076-.102-.051-.128-.013-.128.024-.14.065-.154.09-.14.13-.141.151-.13.168-.114.205-.104.204-.09.219-.075.217-.039.217-.025.206M298.74 982.4v.191l.028.18.039.155.074.124.077.106.116.05.115.04.128-.016.14-.049.155-.079.141-.102.14-.14.141-.168.128-.192.113-.205.105-.216.075-.219.055-.213.036-.221.012-.206-.012-.19-.027-.168-.064-.143-.075-.113-.089-.076-.118-.04-.127-.01-.14.026-.139.061-.144.09-.152.13-.141.153-.128.18-.128.191-.104.216-.089.217-.062.222-.052.213-.026.221M303.273 979.711v.23l.016.204.049.194.067.152.073.143.115.086.117.08.14.026h.155l.153-.04.165-.076.167-.114.165-.13.168-.182.152-.188.158-.206.124-.23.117-.244.101-.256.092-.254.05-.259.041-.241.024-.231-.013-.23-.036-.192-.055-.181-.078-.138-.087-.118-.116-.089-.128-.052-.142-.01-.153.025-.165.05-.169.088-.165.13-.168.152-.164.18-.156.205-.14.219-.125.241-.103.245-.104.255-.064.255-.05.257-.028.244M311.763 970.222l.102-.036.092-.016.076.026M296.73 987.943l-.063-.05-.052-.092-.025-.114v-.13M296.59 987.556l.527-8.216.037-.156.065-.153.074-.152.092-.13.1-.102.105-.077M297.589 978.57l14.174-8.348M297.589 978.57l-156.372-91.316M404.462 919.635l-.012.179.012.168.026.14.052.128.051.087.076.065.09.025.103.015.116-.04.115-.05.115-.089.116-.128.101-.128.103-.167.101-.178.076-.18.064-.205.064-.192.027-.195.024-.177v-.178l-.024-.152-.036-.132-.055-.101-.064-.088-.09-.053-.086-.012-.104.012-.115.053-.114.063-.116.115-.116.127-.102.139-.102.181-.091.179-.076.19-.065.196-.038.205-.026.178M412.016 915.154l-.013.181.013.152.027.155.037.115.066.09.076.063.088.036h.102l.103-.026.115-.063.102-.09.115-.113.116-.141.101-.153.091-.18.077-.178.079-.193.05-.192.022-.19.031-.196v-.164l-.03-.156-.024-.125-.049-.104-.079-.076-.077-.053-.09-.024-.103.011-.115.05-.115.067-.116.1-.101.13-.116.155-.088.164-.09.181-.074.19-.067.193-.037.191-.027.193M414.858 909.545l.052-.026.049-.012.053.013M402.823 924.5l-.063-.029-.037-.059-.028-.08-.012-.102v-.114M403.387 916.843l.01-.141.041-.125.063-.143.063-.128.076-.103.08-.09.076-.063M230.97 851.26l-.039.118-.011.115.025.113.052.116.076.116.102.117.128.115.152.103.18.089.206.09.217.089.243.064.246.061.268.067.282.04.268.024.295.025h.56l.283-.013M403.796 916.051l11.064-6.506M236.989 858.78l-14.919-5.123M403.796 916.051l-65.605-22.52M403.387 916.843l-.705 7.274" style="fill:none;stroke:#00ff4a;stroke-width:.999997;stroke-linecap:round;stroke-linejoin:round;stroke-miterlimit:4;stroke-dasharray:none;stroke-opacity:1;visibility:visible"/><path d="m244.478 720.332-.087.013-.078.013h-.09l-.09-.013-.09-.025-.089-.04-.101-.038-.078-.05-.157-.104-.138-.14-.127-.154-.054-.092-.037-.088-.077-.176-.038-.193-.013-.193.026-.192.04-.194.074-.19.091-.18.114-.179.141-.167.141-.153.166-.141.167-.116.104-.062.088-.052.105-.04.087-.036.077-.041.078-.01.077-.028h.075M246.462 721.061l-.167-.204-.165-.23-.14-.244-.13-.257-.101-.266-.102-.284-.063-.282-.053-.282-.026-.295-.013-.28.027-.281.025-.271M254.58 683.314l-.012.027-.025.027-.053.025-.061.025M250.97 684.274l3.459-.857M250.969 684.274l-.089.014-.127.012-.13.016-.126-.016h-.14l-.118-.026-.116-.024M236.13 680.561l-.079-.025-.06-.026-.038-.037-.018-.027M248.806 682.816l-.168.04-.177.024-.192.012-.216.013h-.438l-.217-.013-.23-.012-.207-.024-.189-.04-.195-.04-.151-.047-.144-.055-.115-.052-.073-.05-.064-.062-.028-.054.013-.05.04-.064.061-.05.106-.04.113-.05.155-.027.165-.039.192-.024.207-.012h.653l.23.012.203.024.206.04.19.024.17.051.149.041.131.051.103.063.064.05.037.064.013.051-.028.052-.049.051-.076.056-.115.046-.129.04M244.837 699.064l-.23-.078-.232-.116-.218-.126-.203-.167-.204-.192-.181-.217-.179-.23-.153-.257-.143-.268-.116-.281-.101-.286-.075-.305-.052-.295-.025-.305v-.307l.012-.294.037-.283.066-.27.09-.268.101-.243.129-.218.154-.205.166-.167.18-.153.193-.128.202-.09.219-.062.217-.027h.231l.23.026.231.064.217.102.23.115.217.153.206.18.193.204.179.218.165.245.156.267.127.27.102.291.091.297.061.295.04.307.014.306v.295l-.026.296-.065.283-.065.266-.102.258-.116.232-.14.202-.166.192-.166.167-.193.128-.192.101-.219.078-.216.052-.23.012-.218-.012-.23-.052M247.895 738.038l2.228-53.788M250.123 684.252l-13.993-3.69" style="fill:none;stroke:#00ff4a;stroke-width:.999997;stroke-linecap:round;stroke-linejoin:round;stroke-miterlimit:4;stroke-dasharray:none;stroke-opacity:1;visibility:visible"/><path d="m245.158 717.514.037.091.015.1.027.116.012.13v.561l-.012.141-.017.141-.011.14-.026.143-.025.141-.027.139-.025.127-.036.116-.04.129-.052.115-.063.104-.064.1-.078.102-.09.078-.102.065-.103.037M171.277 878.42l-.23-.103-.241-.077-.271-.075-.283-.055-.292-.05-.31-.037-.304-.013-.311-.012-.301.01-.311.027-.293.039-.297.036-.265.065-.26.08-.24.087-.22.09-.191.103-.181.114-.127.129-.115.127-.078.129-.051.13-.023.137.01.144.053.125.075.143.116.126.128.116.168.116.192.114.216.105.244.088.254.079.283.063.283.05.309.04.304.027.308.008h.307l.32-.008.294-.027.298-.052.29-.055.259-.072.255-.078.229-.09.205-.103.18-.113.152-.117.13-.127.09-.128.063-.13.039-.14v-.128l-.04-.142-.062-.125-.089-.131-.13-.126-.154-.127-.179-.104-.205-.103M183.506 878.69l-.23-.088-.242-.092-.27-.065-.284-.066-.291-.049-.309-.025-.307-.026h-.615l-.31.026-.291.038-.295.05-.27.065-.254.064-.242.09-.207.102-.192.101-.168.115-.14.115-.103.132-.076.125-.05.143-.011.125.011.143.05.142.09.126.102.129.142.13.178.112.194.105.217.1.243.09.257.079.279.061.284.054.306.049.31.025.302.015.31-.015.318-.012.298-.023.294-.039.28-.066.27-.064.243-.09.229-.089.204-.101.18-.105.143-.116.129-.124.088-.13.065-.141.024-.13v-.139l-.036-.141-.067-.128-.101-.127-.128-.13-.152-.115-.181-.115-.218-.1M214.12 860.454l-.204-.09-.181-.101-.152-.113-.128-.116-.102-.113-.078-.132-.038-.115-.01-.128.023-.127.037-.116.091-.113.103-.116.139-.116.155-.088.19-.105.205-.076.233-.079.243-.06.268-.055.281-.035.285-.026.29-.015h.296l.296.015.293.025.282.036.282.055.267.06.247.067.241.078.217.1.194.088.165.117.141.105.116.113.09.125.062.131.028.115v.128l-.04.128-.062.113-.09.116-.117.116-.153.105-.166.088-.205.09-.217.077-.247.075-.253.052-.27.052-.281.025-.296.027h-.587l-.293-.012-.297-.04-.283-.04-.279-.064-.259-.065-.242-.077-.23-.089M214.709 865.451l-.202-.105-.18-.1-.155-.116-.142-.117-.1-.128-.064-.115-.052-.13-.013-.124.025-.131.054-.128.074-.112.104-.118.142-.114.163-.103.195-.09.203-.089.229-.076.256-.065.27-.05.272-.04.29-.027.296-.014h.296l.307.015.293.025.283.041.282.05.28.065.245.063.243.09.217.092.193.101.176.101.145.116.116.128.089.116.061.128.026.127v.129l-.025.128-.063.113-.103.128-.115.115-.154.103-.176.104-.196.089-.228.075-.246.065-.254.065-.272.04-.28.039-.293.024h-.603l-.31-.025-.29-.027-.283-.039-.282-.062-.258-.066-.253-.075-.232-.089M168.553 888.714l67.964-29.077M158.232 707.169l-2.446 186.254M157.296 705.466l.166-.052.14-.05.106-.051.076-.063.049-.066.016-.076-.027-.066-.061-.062-.093-.064-.115-.066-.155-.048-.177-.052-.191-.05-.22-.026-.227-.029-.235-.024-.242-.011-.256.011h-.23l-.231.024-.219.028-.2.039-.182.037-.154.053-.129.063-.09.05-.062.065-.027.076v.064l.04.064.076.065.103.064.14.064.165.05.182.052.204.039.229.022.232.028.243.012h.486l.242-.012.232-.028.205-.038.19-.036M159.168 707.194l-.115.024-.143.015h-.292l-.144-.015-.126-.012-.115-.036M144.07 702.841l14.162 4.33M144.07 702.841l-.074-.025-.054-.036-.037-.027v-.039M247.103 697.386l-.18-.216-.153-.242-.152-.256-.13-.27-.099-.285-.093-.292-.062-.295-.039-.306-.025-.295v-.295l.025-.294.051-.27" style="fill:none;stroke:#00ff4a;stroke-width:.999997;stroke-linecap:round;stroke-linejoin:round;stroke-miterlimit:4;stroke-dasharray:none;stroke-opacity:1;visibility:visible"/><path d="m180.6 880.88-.026-.104-.052-.103-.05-.09-.064-.088-.128-.142-.143-.114-.139-.089-.152-.063-.168-.04-.154-.014h-.09l-.077.014-.077.026-.076.024-.088.052-.08.051-.074.065-.077.06M215.811 865.757l-.077-.167-.103-.139-.114-.117-.117-.104-.126-.073-.128-.052-.13-.039-.139-.015-.142.015-.127.025-.141.066-.065.048-.062.052" style="fill:none;stroke:#00ff4a;stroke-width:.999997;stroke-linecap:round;stroke-linejoin:round;stroke-miterlimit:4;stroke-dasharray:none;stroke-opacity:1;visibility:visible"/><path d="m337.9 893.673-82.438 42.67" style="fill:none;stroke:#00ff4a;stroke-width:1.99999;stroke-linecap:round;stroke-linejoin:round;stroke-miterlimit:4;stroke-dasharray:none;stroke-opacity:1;visibility:visible"/><path d="m353.426 893.694.116.04.138.025.13.011h.14l.13-.01.114-.026.091-.04M354.284 893.694l3.136-1.65M344.682 890.16l8.745 3.535M344.835 890.083l-6.933 3.59" style="fill:none;stroke:#00ff4a;stroke-width:.999997;stroke-linecap:round;stroke-linejoin:round;stroke-miterlimit:4;stroke-dasharray:none;stroke-opacity:1;visibility:visible"/><path d="m241.714 739.192.013-.04.038-.04.05-.024.089-.036M246.092 737.784l-4.189 1.268M246.093 737.784l.114-.039.139-.013.155-.014.166.014.153.013.154.025.13.026M264.247 743.096l.103.038.092.052.05.05.009.054M256.431 740.678l7.816 2.418M350.906 707.08l.088-1.192M357.536 891.9l14.584-182.642M350.994 705.889l.013-.027.05-.038.067-.026M354.412 704.802l.091-.028.115-.013h.28l.142.013.14.014.126.04M371.84 709.089l-10.713-2.761M356.46 705.124l-1.152-.298M371.84 709.089l.1.027.08.036.05.041.038.037.014.027M351.122 705.798l3.29-.996" style="fill:none;stroke:#00ff4a;stroke-width:1.99999;stroke-linecap:round;stroke-linejoin:round;stroke-miterlimit:4;stroke-dasharray:none;stroke-opacity:1;visibility:visible"/><path d="m249.933 948.25-15.955-7.707M249.933 948.251l.129.052.139.037.154.016h.155l.137-.016.144-.037.115-.037M254.85 946.176l-3.943 2.09" style="fill:none;stroke:#00ff4a;stroke-width:.999997;stroke-linecap:round;stroke-linejoin:round;stroke-miterlimit:4;stroke-dasharray:none;stroke-opacity:1;visibility:visible"/><path d="m141.217 887.254-.103.064-.101.077-.077.103-.08.116-.062.126-.026.143-.012.127M312.033 970.198l.062.064.055.092.023.113v.125M311.635 978.56l-.013.152-.04.14-.062.154-.08.141-.087.128-.103.101-.103.079M297.013 987.918l-.08.038-.074.011h-.077l-.052-.024M142.304 886.807l-1.087.447M297.013 987.918l14.134-8.463M140.756 888.009l-.064 7.068M312.173 970.592l-.538 7.968M328.445 898.571l74.377 25.929M234.914 865.95l1.753.613M357.675 890.186l57.339 19.333M222.071 853.658l-.088.05-.077.079-.079.089-.06.114-.055.115-.037.115-.013.129M415.012 909.52l.051.024.052.066.025.077.011.103v.115M414.435 917.102l-.025.125-.038.13-.052.141-.062.115-.076.114-.08.078-.076.062M402.99 924.472l-.066.028-.049.014-.052-.015M229.638 850.52l-7.567 3.139M402.99 924.472l11.036-6.606M221.649 854.758l.014-.41M414.435 917.102l.717-7.196M233.762 940.288l7.952-201.096M254.85 946.176l.063-.036.053-.053.037-.063.012-.052 9.488-202.684M233.762 940.288l.013.066.038.073.077.065.09.05M255.389 938.032l56.641 32.166M160.884 884.362l73.442 41.702" style="fill:none;stroke:#00ff4a;stroke-width:1.99999;stroke-linecap:round;stroke-linejoin:round;stroke-miterlimit:4;stroke-dasharray:none;stroke-opacity:1;visibility:visible"/><path d="m140.693 895.077.013.113.038.105.052.075.062.065 155.873 92.508M236.093 680.344l3.47-.83" style="fill:none;stroke:#00ff4a;stroke-width:1.99999;stroke-linecap:round;stroke-linejoin:round;stroke-miterlimit:4;stroke-dasharray:none;stroke-opacity:1;visibility:visible"/><path d="m229.818 850.789 7.362 3.008" style="fill:none;stroke:#00ff4a;stroke-width:.999997;stroke-linecap:round;stroke-linejoin:round;stroke-miterlimit:4;stroke-dasharray:none;stroke-opacity:1;visibility:visible"/><path d="m149.19 701.601 14.15 4.301M148.273 701.574l-4.163 1.011M252.446 732.946l2.135-49.632M229.638 850.61l6.3-170.164M229.638 850.61v.05l.04.039.063.052.077.039M254.375 683.201l.091.025.065.027.039.037.01.024M235.938 680.448l.015-.026.025-.025.05-.024.064-.028M239.56 679.513l.104-.013.114-.014.13-.013h.125l.131.013.126.027.104.012M254.375 683.201l-13.98-3.675" style="fill:none;stroke:#00ff4a;stroke-width:1.99999;stroke-linecap:round;stroke-linejoin:round;stroke-miterlimit:4;stroke-dasharray:none;stroke-opacity:1;visibility:visible"/><path d="m155.786 893.425.104.053.126.024.13.013h.14l.139-.013.128-.024.116-.039M160.586 891.76l-3.918 1.68M155.786 893.425l-13.316-6.312" style="fill:none;stroke:#00ff4a;stroke-width:.999997;stroke-linecap:round;stroke-linejoin:round;stroke-miterlimit:4;stroke-dasharray:none;stroke-opacity:1;visibility:visible"/><path d="m174.569 892.135 61.997-26.889M160.946 880.047l60.908-25.364M236.566 865.246l.064-.041.064-.063.039-.064M160.78 891.569l2.74-185.54M142.304 886.923l1.601-184.209M148.273 701.574l.115-.016.126-.012.14-.01h.156l.14.01.127.028.113.026M143.906 702.714l.012-.038.038-.039.064-.027.091-.025" style="fill:none;stroke:#00ff4a;stroke-width:1.99999;stroke-linecap:round;stroke-linejoin:round;stroke-miterlimit:4;stroke-dasharray:none;stroke-opacity:1;visibility:visible"/><path d="m345.04 889.738-.029.115-.037.092-.064.088-.076.05M358.74 708.628l-13.7 181.11" style="fill:none;stroke:#00ff4a;stroke-width:.999997;stroke-linecap:round;stroke-linejoin:round;stroke-miterlimit:4;stroke-dasharray:none;stroke-opacity:1;visibility:visible"/><path d="M249.938 733.868a.757.757 0 0 0-.281.154M251.69 734.836a.28.28 0 0 0 .081-.164.253.253 0 0 0-.054-.162M249.287 734.389a.296.296 0 0 0-.072.153.253.253 0 0 0 .065.172M249.28 734.714a1.088 1.088 0 0 0 .366.251M249.647 734.966c.263.102.535.16.819.176.279.019.565-.018.833-.092M251.3 735.048a.947.947 0 0 0 .388-.212M251.386 734.117a.776.776 0 0 0-.26-.19" style="fill:none;stroke:#00ff4a;stroke-width:.666665;stroke-linecap:round;stroke-linejoin:round;stroke-miterlimit:2;stroke-dasharray:none;stroke-opacity:1;visibility:visible"/><path d="M251.126 733.928a1.87 1.87 0 0 0-1.19-.059M249.65 734.024l-.361.364M251.395 734.122l.321.388M249.217 734.542l-.279 5.51M250.484 735.3l-.272 5.316M251.771 734.671l-.301 5.881M359.972 701.67a.945.945 0 0 0 .398-.197M360.09 700.742a.747.747 0 0 0-.255-.194M359.835 700.548a1.853 1.853 0 0 0-1.185-.099M358.65 700.45a.803.803 0 0 0-.288.142M360.37 701.473a.29.29 0 0 0 .085-.163.267.267 0 0 0-.048-.165M357.983 700.95a.267.267 0 0 0-.077.146.259.259 0 0 0 .058.177M357.963 701.273a1.06 1.06 0 0 0 .361.263" style="fill:none;stroke:#00ff4a;stroke-width:.666665;stroke-linecap:round;stroke-linejoin:round;stroke-miterlimit:2;stroke-dasharray:none;stroke-opacity:1;visibility:visible"/><path d="M358.324 701.534a2.64 2.64 0 0 0 .814.203c.276.028.564 0 .836-.067M358.356 700.594l-.372.355M360.098 700.746l.31.399M357.907 701.097l-.456 5.501M359.15 701.895l-.443 5.307M360.456 701.308l-.453 5.428" style="fill:none;stroke:#00ff4a;stroke-width:.666665;stroke-linecap:round;stroke-linejoin:round;stroke-miterlimit:2;stroke-dasharray:none;stroke-opacity:1;visibility:visible"/><path d="m348.6 724.47 1.143-.586M264.635 751.532l1.146-.588M349.3 878.6l-.114 1.51M336.956 883.25l1.156-.79M256.302 923.976l1.156-.789M168.553 879.64l1.277-.5M215.546 859.946l1.277-.5" style="fill:none;stroke:#00ff4a;stroke-width:.666665;stroke-linecap:round;stroke-linejoin:round;stroke-miterlimit:4;stroke-dasharray:none;stroke-opacity:1;visibility:visible"/><path d="M191.066 863.014a2.327 2.327 0 0 0-.388.563 2.425 2.425 0 0 0-.19.643M190.488 864.22a.81.81 0 0 0 .044.36M137.06 838.36a.805.805 0 0 0 .076.372M142.638 755.964l-4.548-1.354M142.928 754.51l-5.2-1.55M142.97 752.916l-4.017-1.196M137.93 754.474a.284.284 0 0 0 .16.136M138.953 751.72a.281.281 0 0 0-.21.025M137.94 754.489l-.314-.516M138.753 751.74l-.545.26M137.617 753.96l.008.013M138.208 752l-.008.005M138.2 752.004a.883.883 0 0 0-.287.25M137.914 752.254a2.277 2.277 0 0 0-.308.642 2.444 2.444 0 0 0-.089.702" style="fill:none;stroke:#00ff4a;stroke-width:.666665;stroke-linecap:round;stroke-linejoin:round;stroke-miterlimit:2;stroke-dasharray:none;stroke-opacity:1;visibility:visible"/><path d="M137.517 753.598a.763.763 0 0 0 .1.364M192.28 865.926l-1.402-.67M194.385 865.371l-3.6-1.718M196.67 864.847l-4.554-2.176M190.748 865.106a.256.256 0 0 0 .132.15M192.116 862.671a.273.273 0 0 0-.2-.01M190.756 865.12l-.222-.53M191.928 862.66l-.55.167M190.532 864.58c-.002 0 0 .001.002.008M191.378 862.825h-.01M191.368 862.826a.813.813 0 0 0-.304.19M229.69 810.789l-4.437-1.683M230.087 809.358l-5.073-1.928M230.247 807.774l-3.922-1.49M225.105 808.957a.284.284 0 0 0 .148.15M226.325 806.285a.287.287 0 0 0-.208.005M225.111 808.971l-.273-.54M226.127 806.29l-.566.221M224.83 808.422s.003.008.01.01M225.56 806.51l-.005.003M225.555 806.513a.936.936 0 0 0-.304.227M225.251 806.74a2.445 2.445 0 0 0-.354.619 2.517 2.517 0 0 0-.143.692M224.754 808.053a.796.796 0 0 0 .076.37M233 726.988l-4.55-1.355M233.287 725.534l-5.2-1.55M233.331 723.941l-4.017-1.196M141.997 841.1l-4.437-1.686M142.393 839.667l-5.073-1.927M142.553 838.083l-3.923-1.49M137.41 839.266a.284.284 0 0 0 .148.15M138.63 836.593a.293.293 0 0 0-.208.006M137.418 839.28l-.273-.54M138.434 836.6l-.566.22M137.136 838.731s.002.007.009.01M137.866 836.818l-.006.004M137.861 836.823a.933.933 0 0 0-.305.227M137.557 837.05a2.422 2.422 0 0 0-.355.617 2.497 2.497 0 0 0-.142.694" style="fill:none;stroke:#00ff4a;stroke-width:.666665;stroke-linecap:round;stroke-linejoin:round;stroke-miterlimit:2;stroke-dasharray:none;stroke-opacity:1;visibility:visible"/><path d="m251.126 733.928 1.007 5.426M351.122 705.798l-1.782 15.136M352.38 706.693l-3.04 14.241M251.688 734.836l12.572 13.689M337.902 893.673l-.57-8.211M338.112 882.46l-.781 3.002" style="fill:none;stroke:#00ff4a;stroke-width:.999997;stroke-linecap:round;stroke-linejoin:round;stroke-miterlimit:4;stroke-dasharray:none;stroke-opacity:1;visibility:visible"/><path d="m251.299 735.05 1.421 2.143M351.122 705.798l1.258.895" style="fill:none;stroke:#00ff4a;stroke-width:1.99999;stroke-linecap:round;stroke-linejoin:round;stroke-miterlimit:4;stroke-dasharray:none;stroke-opacity:1;visibility:visible"/><path d="m344.682 890.16 4.352-8.373M353.427 893.695l-4.394-11.907M368.74 710.382l-5.828-2.445M358.738 708.629l4.174-.692M260.15 744.734l-5.633-3.06M255.989 740.549l-1.472 1.125M251.126 733.927l-6.94-11.113M233.331 723.941l10.854-1.126M311.635 978.56l-3.278-1.87M311.635 978.56l-3.278-1.87M296.59 987.556l2.15-5.156M311.635 978.56l-12.894 3.84M311.635 978.56l-8.362 1.151M311.635 978.56l-8.362 1.151M403.387 916.843l1.075 2.792M403.387 916.843l1.075 2.792M414.435 917.102l-2.419-1.948M414.435 917.102l-2.419-1.948M249.28 734.714l-2.818-13.653M250.97 684.274l-2.164-1.458M254.429 683.417l-5.623-.601M254.375 683.201l-9.538 15.863M250.123 684.252l-5.286 14.812M183.506 878.69l-12.229-.27M190.878 865.256l-7.372 13.434M171.277 878.42l12.229.27M214.71 865.451l-.59-4.997M196.67 864.847l17.45-4.393M160.586 891.76l7.967-3.046M148.273 701.574l9.023 3.892M148.273 701.574l9.022 3.892M190.748 865.106 180.6 880.88" style="fill:none;stroke:#00ff4a;stroke-width:.999997;stroke-linecap:round;stroke-linejoin:round;stroke-miterlimit:4;stroke-dasharray:none;stroke-opacity:1;visibility:visible"/><path d="m254.85 946.176.612-9.833M358.74 708.628l-7.834-1.548M356.46 705.124l4.667 1.204M361.127 706.328l-4.667-1.204M236.989 858.78l-2.075 7.17M229.818 850.789l6.849 15.774M353.427 893.695l4.248-3.509M249.933 948.25l5.456-10.218M155.786 893.425l5.098-9.063M233.978 940.543l.348-14.479" style="fill:none;stroke:#00ff4a;stroke-width:1.99999;stroke-linecap:round;stroke-linejoin:round;stroke-miterlimit:4;stroke-dasharray:none;stroke-opacity:1;visibility:visible"/><path d="m234.914 865.95 2.266-12.153" style="fill:none;stroke:#00ff4a;stroke-width:.999997;stroke-linecap:round;stroke-linejoin:round;stroke-miterlimit:4;stroke-dasharray:none;stroke-opacity:1;visibility:visible"/><path d="m251.771 734.671.675-1.725M169.83 879.14l4.739 12.995M169.83 879.14l-8.884.907" style="fill:none;stroke:#00ff4a;stroke-width:1.99999;stroke-linecap:round;stroke-linejoin:round;stroke-miterlimit:4;stroke-dasharray:none;stroke-opacity:1;visibility:visible"/><path d="m251.771 734.671-1.559 5.945M358.74 708.628l-.033-1.426" style="fill:none;stroke:#00ff4a;stroke-width:.666665;stroke-linecap:round;stroke-linejoin:round;stroke-miterlimit:2;stroke-dasharray:none;stroke-opacity:1;visibility:visible"/><path d="m265.119 748.012-.484 3.52M345.04 889.738l4.26-11.138M337.331 885.462l.781-3.002M160.586 891.76l7.967-12.12M160.946 880.047l8.884-.907M221.854 854.683l-6.308 5.263M222.071 853.659l-5.248 5.787" style="fill:none;stroke:#00ff4a;stroke-width:.666665;stroke-linecap:round;stroke-linejoin:round;stroke-miterlimit:4;stroke-dasharray:none;stroke-opacity:1;visibility:visible"/><path d="m138.953 751.72 3.685 4.244M138.09 754.61l4.838-.1M138.09 754.61l4.88-1.694M190.785 863.653l1.495 2.273M190.878 865.256l3.507.115M190.878 865.256l5.792-.409M226.325 806.284l3.365 4.505M225.253 809.106l4.834.252M225.253 809.106l4.994-1.332M229.314 722.745l3.686 4.243M233.287 725.534l-4.837.099M228.45 725.633l4.837-.099M233.331 723.941l-5.244.043M228.45 725.633l4.881-1.692M233.287 725.534l-3.973-2.789M138.63 836.593l3.367 4.507M137.56 839.414l4.833.253M137.56 839.414l4.993-1.331" style="fill:none;stroke:#00ff4a;stroke-width:.666665;stroke-linecap:round;stroke-linejoin:round;stroke-miterlimit:2;stroke-dasharray:none;stroke-opacity:1;visibility:visible"/><path d="m234.914 865.95-3.944-14.69" style="fill:none;stroke:#00ff4a;stroke-width:.999997;stroke-linecap:round;stroke-linejoin:round;stroke-miterlimit:4;stroke-dasharray:none;stroke-opacity:1;visibility:visible"/></svg>