<svg xmlns="http://www.w3.org/2000/svg" baseProfile="full" height="1122.52" preserveAspectRatio="xMinYMin meet" style="width:765px;height:943px" width="793.701" xml:space="preserve"><path d="m240.596 915.43-4.027 1.243M236.077 917.41l-.69 18.54M236.077 917.41l.012-.137.05-.134.063-.136.07-.109.089-.097.092-.076.117-.048M235.597 936.392l-.076-.05-.061-.074-.047-.087-.024-.109v-.124M240.596 915.43l.077-.01h.071l.075.025M238.534 927.89l-.039-.015-.146-.013-.147.013-.148.051-.145.072-.147.11-.137.125-.123.158-.099.162-.1.185-.07.196-.05.197-.026.196v.182l.026.173.05.159.07.148.09.113.101.096M238.264 924.35l.175-.073.166-.099.174-.123.149-.145.145-.173.139-.198.108-.208.085-.209.071-.221.05-.236.04-.222v-.22l-.026-.206-.047-.198-.061-.17-.087-.15-.11-.134-.135-.1-.136-.072-.163-.038-.157-.01-.176.022-.172.064-.168.072-.17.122-.16.137-.147.159-.136.185-.123.196-.112.22-.07.223-.063.221-.05.223-.014.229.014.212.034.196.052.181.084.174.1.136.126.109.132.085.146.063.162.025.159-.012.172-.037M111.975 865.192l124.1 52.217" style="fill:none;stroke:red;stroke-width:.999997;stroke-linecap:round;stroke-linejoin:round;stroke-miterlimit:4;stroke-dasharray:none;stroke-opacity:1;visibility:visible" visibility="hidden"/><path d="m240.39 932.461-.077 1.916M241.039 915.885l-.465 11.837M111.911 882.416l.064-17.224M112.426 864.517l-.096.035-.1.076-.088.085-.075.1-.057.121-.036.122v.136M116.407 863.51l-3.981 1.007" style="fill:none;stroke:red;stroke-width:1.99999;stroke-linecap:round;stroke-linejoin:round;stroke-miterlimit:4;stroke-dasharray:none;stroke-opacity:1;visibility:visible" visibility="hidden"/><path d="m116.64 863.521-.073-.024h-.07l-.09.012M111.911 882.416l.012.112.021.099.052.084.058.064.089.046" style="fill:none;stroke:red;stroke-width:.999997;stroke-linecap:round;stroke-linejoin:round;stroke-miterlimit:4;stroke-dasharray:none;stroke-opacity:1;visibility:visible" visibility="hidden"/><path d="m239.834 935.114-4.003 1.277" style="fill:none;stroke:red;stroke-width:1.99999;stroke-linecap:round;stroke-linejoin:round;stroke-miterlimit:4;stroke-dasharray:none;stroke-opacity:1;visibility:visible" visibility="hidden"/><path d="m235.832 936.392-.085.01h-.074l-.077-.01" style="fill:none;stroke:red;stroke-width:.999997;stroke-linecap:round;stroke-linejoin:round;stroke-miterlimit:4;stroke-dasharray:none;stroke-opacity:1;visibility:visible" visibility="hidden"/><path d="m240.314 934.377-.01.133-.038.135-.061.127-.076.118-.098.103-.094.07-.102.051" style="fill:none;stroke:red;stroke-width:1.99999;stroke-linecap:round;stroke-linejoin:round;stroke-miterlimit:4;stroke-dasharray:none;stroke-opacity:1;visibility:visible" visibility="hidden"/><path d="m240.819 915.444.076.048.056.073.056.087.021.11.011.123" style="fill:none;stroke:red;stroke-width:.999997;stroke-linecap:round;stroke-linejoin:round;stroke-miterlimit:4;stroke-dasharray:none;stroke-opacity:1;visibility:visible" visibility="hidden"/><path d="m240.819 915.444-124.181-51.923M235.597 936.392l-123.456-53.57" style="fill:none;stroke:red;stroke-width:1.99999;stroke-linecap:round;stroke-linejoin:round;stroke-miterlimit:4;stroke-dasharray:none;stroke-opacity:1;visibility:visible" visibility="hidden"/><path d="m242.142 922.838 1.48-.495M241.829 921.926l1.484-.5M242.765 921.1a.259.259 0 0 0-.13.108M242.93 921.109a.216.216 0 0 0-.165-.009M243.398 922.749a.936.936 0 0 0 .259.193M243.213 922.485c.046.092.113.178.185.265M242.89 921.235a1.68 1.68 0 0 0 .015.328" style="fill:none;stroke:red;stroke-width:.666665;stroke-linecap:round;stroke-linejoin:round;stroke-miterlimit:2;stroke-dasharray:none;stroke-opacity:1;visibility:visible" visibility="hidden"/><path d="M242.982 920.923a1.039 1.039 0 0 0-.092.312M243.053 929.991a.963.963 0 0 0-.354.247M242.7 930.238a2.52 2.52 0 0 0-.637 1.454M242.065 931.694a.883.883 0 0 0 .058.424M242.873 932.088a.701.701 0 0 0 .256-.17M243.131 931.918c.132-.148.24-.31.316-.488.08-.178.126-.37.14-.558M243.586 930.872a.74.74 0 0 0-.04-.309M109.302 873.854l2.358.944M108.208 874.649l2.938 1.213M108.19 876.007l3.14 1.226M108.506 873.9l.452-.17M107.86 875.446l.212.447M108.502 873.903a.67.67 0 0 0-.257.178M108.244 874.08a1.756 1.756 0 0 0-.43 1.058M107.813 875.137a.767.767 0 0 0 .045.305M242.243 932.243l-4.605-2.016M242.115 930.872l-4.689-2.056M243.229 929.994l-4.862-2.13M242.866 932.095l-.46.155M243.545 930.558l-.205-.448M242.123 932.118a.259.259 0 0 0 .122.125.225.225 0 0 0 .162.008" style="fill:none;stroke:red;stroke-width:.666665;stroke-linecap:round;stroke-linejoin:round;stroke-miterlimit:2;stroke-dasharray:none;stroke-opacity:1;visibility:visible" visibility="hidden"/><path d="M243.34 930.11a.263.263 0 0 0-.11-.116.253.253 0 0 0-.18-.002" style="fill:none;stroke:red;stroke-width:.666665;stroke-linecap:round;stroke-linejoin:round;stroke-miterlimit:2;stroke-dasharray:none;stroke-opacity:1;visibility:visible" visibility="hidden"/><path d="m242.765 921.1-4.501 3.25M236.57 916.673l1.694 7.677" style="fill:none;stroke:red;stroke-width:.999997;stroke-linecap:round;stroke-linejoin:round;stroke-miterlimit:4;stroke-dasharray:none;stroke-opacity:1;visibility:visible" visibility="hidden"/><path d="m242.063 931.692-1.673.769M242.065 931.694l-1.491-3.972" style="fill:none;stroke:red;stroke-width:1.99999;stroke-linecap:round;stroke-linejoin:round;stroke-miterlimit:4;stroke-dasharray:none;stroke-opacity:1;visibility:visible" visibility="hidden"/><path d="m108.208 874.649 3.452.149M109.302 873.854l1.844 2.008M109.302 873.854l2.028 3.379M238.534 927.89l-1.108.926" style="fill:none;stroke:red;stroke-width:.666665;stroke-linecap:round;stroke-linejoin:round;stroke-miterlimit:2;stroke-dasharray:none;stroke-opacity:1;visibility:visible" visibility="hidden"/><path d="M294.032 908.858 170.59 859.577M391.93 878.117l-97.898 30.741M265.587 838.444l-.184.05-.16.06-.145.074-.11.073-.102.076-.056.084-.04.075v.087l.008.085.054.085.087.087.096.085.125.087.159.072.172.075.195.061.218.073.234.051.252.05.256.035.268.039.27.021.27.015.282.012h.274l.256-.012.258-.027.246-.022.234-.039.222-.05.196-.046.173-.063.159-.061.125-.072.11-.075.07-.076.048-.084.015-.085v-.085l-.039-.088-.063-.086-.094-.086-.11-.087-.149-.073-.16-.074-.193-.073-.199-.063-.235-.06-.23-.05-.26-.048-.262-.038-.266-.024-.267-.026h-.276l-.281-.01-.256.01-.276.013-.242.025-.248.038-.218.034-.211.051M185.9 859.306l.233-.05.243-.047.264-.038.268-.024.283-.012.282-.012h.292l.283.012.281.024.286.036.268.04.261.048.243.048.236.062.205.074.19.086.158.073.135.087.11.097.087.087.044.097.027.088-.01.097-.038.099-.064.087-.095.084-.124.088-.145.072-.175.074-.195.062-.218.061-.239.05-.256.035-.268.039-.27.023-.283.012h-.298l-.285-.012-.293-.012-.283-.024-.28-.038-.257-.036-.258-.062-.236-.06-.22-.063-.197-.073-.17-.087-.149-.084-.122-.087-.103-.085-.057-.1-.036-.099-.018-.084.031-.098.05-.087.083-.099.11-.085.137-.073.156-.074.188-.076.208-.061M376.746 878.436l-.212.063-.233.037-.248.047-.26.025-.267.025h-.577l-.295-.012-.293-.025-.299-.025-.279-.048-.284-.05-.273-.062-.243-.06-.23-.074-.226-.086-.196-.086-.161-.088-.143-.094-.125-.1-.085-.098-.05-.1-.04-.097v-.1l.04-.096.062-.087.098-.101.111-.07.148-.075.184-.074.183-.061.222-.048.23-.05.261-.023.268-.026.284-.012.284-.013.295.013.294.012.294.026.282.034.284.051.272.061.256.06.25.062.228.086.197.086.187.088.16.085.117.096.112.101.076.095.035.101.029.111-.03.085-.049.098-.069.086-.104.086-.13.085-.16.073-.182.063M297.08 903.194l.205-.076.186-.072.148-.1.136-.084.1-.099.062-.109.031-.112v-.097l-.03-.114-.063-.109-.087-.11-.125-.111-.159-.095-.17-.101-.207-.098-.222-.085-.26-.073-.258-.078-.283-.06-.296-.049-.295-.035-.309-.026-.315-.024h-.614l-.3.014-.292.036-.27.035-.256.05-.246.05-.227.075-.18.07-.17.087-.149.085-.113.103-.072.093-.063.112-.012.111.012.11.054.11.072.11.11.111.132.102.156.094.2.102.212.086.246.087.26.072.266.063.284.06.307.049.307.025.308.023.306.015h.615l.293-.027.283-.036.273-.037.244-.064.235-.059M294.129 915.319l.305-5.712M294.129 915.319l-.025.11-.022.102-.064.085-.064.072-.082.038M294.032 908.858l.085.059.098.076.07.096.064.125.044.121.035.136.008.136" style="fill:none;stroke:#00ff4a;stroke-width:.999997;stroke-linecap:round;stroke-linejoin:round;stroke-miterlimit:4;stroke-dasharray:none;stroke-opacity:1;visibility:visible" visibility="hidden"/><path d="m268.526 834.156 123.404 43.961M293.664 915.713 170.47 865.965" style="fill:none;stroke:#00ff4a;stroke-width:1.99999;stroke-linecap:round;stroke-linejoin:round;stroke-miterlimit:4;stroke-dasharray:none;stroke-opacity:1;visibility:visible" visibility="hidden"/><path d="m293.87 915.726-.061.01-.076-.01-.07-.013" style="fill:none;stroke:#00ff4a;stroke-width:.999997;stroke-linecap:round;stroke-linejoin:round;stroke-miterlimit:4;stroke-dasharray:none;stroke-opacity:1;visibility:visible" visibility="hidden"/><path d="m170.11 865.278.099-5.307M170.47 865.965l-.087-.05-.077-.073-.073-.085-.047-.11-.05-.125-.027-.122v-.123M391.892 884.2l.43-5.384M391.634 884.593l.076-.05.07-.06.049-.078.038-.096.023-.11M392.324 878.817v-.123l-.025-.124-.056-.12-.058-.108-.072-.102-.089-.072-.096-.051M383.3 887.248l8.335-2.655M293.87 915.726l80.124-25.515M170.43 859.565l97.933-25.41" style="fill:none;stroke:#00ff4a;stroke-width:1.99999;stroke-linecap:round;stroke-linejoin:round;stroke-miterlimit:4;stroke-dasharray:none;stroke-opacity:1;visibility:visible" visibility="hidden"/><path d="m268.363 834.156-2.776 4.288M170.43 859.565l15.47-.259M383.3 887.248l-6.554-8.812M373.994 890.211l2.752-11.775M294.032 908.858l3.048-5.664" style="fill:none;stroke:#00ff4a;stroke-width:.999997;stroke-linecap:round;stroke-linejoin:round;stroke-miterlimit:4;stroke-dasharray:none;stroke-opacity:1;visibility:visible" visibility="hidden"/><path d="m373.994 890.211 9.306-2.963M383.3 887.248l-9.306 2.963" style="fill:none;stroke:#00ff4a;stroke-width:1.99999;stroke-linecap:round;stroke-linejoin:round;stroke-miterlimit:4;stroke-dasharray:none;stroke-opacity:1;visibility:visible" visibility="hidden"/><path d="m425.814 875.093 1.472-16.524-124.288-41.873M309.674 830.581v.147l.025.149.032.145.054.136.072.124.085.122.096.088.101.073.112.048.11.024h.096l.11-.024.084-.048.088-.073.075-.1.05-.122.038-.124.01-.136v-.146l-.025-.16-.037-.135-.048-.147-.072-.124-.084-.11-.105-.098-.094-.073-.11-.05-.102-.025h-.109l-.096.026-.104.049-.085.084-.056.087-.064.121-.022.125-.025.147M309.28 824.045v.259l.01.257.037.27.049.257.073.261.098.255.097.234.141.235.134.208.145.197.164.184.172.147.183.135.18.112.197.085.185.063.199.034h.196l.184-.022.173-.05.172-.072.174-.1.144-.121.134-.15.123-.173.108-.194.09-.208.073-.222.06-.234.025-.246.025-.258-.01-.256-.026-.274-.038-.256-.072-.272-.075-.245-.097-.245-.123-.246-.135-.222-.137-.195-.16-.197-.17-.16-.174-.147-.181-.123-.198-.098-.185-.074-.199-.049-.194-.013-.184.013-.188.036-.167.06-.172.088-.159.11-.149.135-.125.159-.122.185-.101.198-.068.221-.064.233-.045.234-.027.257M430.791 856.972l.07-.012.065.012M427.694 857.931l3.096-.959M427.286 858.57l.017-.121.036-.124.058-.11.062-.1.076-.085.074-.063.085-.036M425.987 875.513l-.048-.036-.047-.039-.041-.073-.021-.073-.018-.098v-.1M427.791 870.094l-.085-.05-.072-.086-.063-.11-.048-.135-.027-.147-.01-.147.01-.172.027-.173.048-.173.063-.17.084-.16.088-.148.096-.134.112-.112.108-.086.125-.061.11-.037.109-.011.112.024M428.578 864.847l-.12.027h-.139l-.109-.027-.112-.06-.097-.075-.084-.112-.063-.12-.064-.161-.021-.159-.026-.185.012-.183.014-.197.048-.21.05-.197.072-.196.102-.185.096-.17.11-.16.126-.135.132-.123.12-.099.14-.061.134-.037.136-.023.126.023.109.037.096.072.1.088.072.123.064.134.032.16.024.171.012.197-.012.184-.033.21-.05.197-.062.197-.084.195-.102.173-.098.171-.123.15-.12.12-.133.111-.139.086-.136.049" style="fill:none;stroke:#9500ff;stroke-width:.999997;stroke-linecap:round;stroke-linejoin:round;stroke-miterlimit:4;stroke-dasharray:none;stroke-opacity:1;visibility:visible"/><path d="m311.418 824.967.084-.035.072-.038.079-.05.07-.062.062-.074.049-.073.05-.085.051-.099.023-.088.035-.084.022-.087.04-.11.023-.098.015-.098.024-.111.012-.11.013-.111.012-.111.012-.11v-.111l.013-.111v-.11l-.013-.111-.012-.096" style="fill:none;stroke:#9500ff;stroke-width:.999997;stroke-linecap:round;stroke-linejoin:round;stroke-miterlimit:4;stroke-dasharray:none;stroke-opacity:1;visibility:visible"/><path d="m311.575 822.312-.073.024-.071.027-.076.034-.088.039-.07.036-.09.05-.087.049-.072.06-.146.124-.128.124-.122.133-.106.159-.086.149-.062.16-.039.159-.008.16v.158l.02.163.043.145.069.136.088.147.095.124.128.097.122.088.071.036.072.038.088.024.075.012.074.01h.146l.076-.01M312.41 823.123v.11" style="fill:none;stroke:#9500ff;stroke-width:.999997;stroke-linecap:round;stroke-linejoin:round;stroke-miterlimit:4;stroke-dasharray:none;stroke-opacity:1;visibility:visible"/><path d="m302.997 816.696-.835 15.47M430.191 867.558l.908-10.168M429.626 873.89l.196-2.208" style="fill:none;stroke:#9500ff;stroke-width:1.99999;stroke-linecap:round;stroke-linejoin:round;stroke-miterlimit:4;stroke-dasharray:none;stroke-opacity:1;visibility:visible"/><path d="m430.926 856.972.063.036.034.05.038.062.022.085.016.087v.097M426.137 875.513l-.08.012-.07-.012" style="fill:none;stroke:#9500ff;stroke-width:.999997;stroke-linecap:round;stroke-linejoin:round;stroke-miterlimit:4;stroke-dasharray:none;stroke-opacity:1;visibility:visible"/><path d="m426.137 875.513 3.08-.995M429.626 873.89l-.027.11-.037.123-.048.111-.064.099-.07.084-.075.062-.091.038M303.392 816.108l3.135-.799M306.66 815.322l-.073-.012h-.063M303.392 816.108l-.085.036-.074.05-.072.085-.062.086-.05.11-.037.11-.015.111M430.926 856.972l-124.265-41.65M370.453 856.22l-68.102-23.66M425.987 875.513l-47.437-16.48" style="fill:none;stroke:#9500ff;stroke-width:1.99999;stroke-linecap:round;stroke-linejoin:round;stroke-miterlimit:4;stroke-dasharray:none;stroke-opacity:1;visibility:visible"/><path d="M310.289 829.851a1.016 1.016 0 0 0-.255-.197M310.493 830.14c-.055-.1-.126-.2-.206-.288M310.677 830.56a2.979 2.979 0 0 0-.184-.417M310.783 831.011a3.116 3.116 0 0 0-.106-.45M310.793 831.366c.012-.12.005-.236-.013-.355M310.707 831.68a.754.754 0 0 0 .084-.313M432.202 870.911a.796.796 0 0 0 .1.363M432.958 871.16a.576.576 0 0 0 .2-.184M433.159 870.977c.095-.139.17-.297.211-.462.05-.161.07-.335.058-.501M433.43 870.014a.63.63 0 0 0-.073-.265M432.427 871.371l-4.537-1.278M432.148 870.193l-4.332-1.223M433.012 869.29l-4.354-1.227M432.95 871.166l-.38.193M433.355 869.743l-.233-.365M432.303 871.274a.235.235 0 0 0 .124.097.207.207 0 0 0 .14-.013M433.124 869.378a.23.23 0 0 0-.112-.088.232.232 0 0 0-.152.019M432.858 869.31a.907.907 0 0 0-.276.257" style="fill:none;stroke:#9500ff;stroke-width:.666665;stroke-linecap:round;stroke-linejoin:round;stroke-miterlimit:2;stroke-dasharray:none;stroke-opacity:1;visibility:visible"/><path d="M432.582 869.567a2.187 2.187 0 0 0-.38 1.346M300.402 826.24l2.418.763M299.367 827.115l3.027.991M299.453 828.471l3.226.986M299.61 826.347l.439-.202M299.085 827.938l.245.428M299.607 826.354a.665.665 0 0 0-.246.193M299.362 826.547a1.773 1.773 0 0 0-.263.515 1.636 1.636 0 0 0-.089.572M299.013 827.634a.748.748 0 0 0 .07.3" style="fill:none;stroke:#9500ff;stroke-width:.666665;stroke-linecap:round;stroke-linejoin:round;stroke-miterlimit:2;stroke-dasharray:none;stroke-opacity:1;visibility:visible"/><path d="m312.41 823.234-3.13.811M310.791 831.367l-1.511-7.322M427.694 857.931l.884 6.916M427.694 857.931l.884 6.916" style="fill:none;stroke:#9500ff;stroke-width:.999997;stroke-linecap:round;stroke-linejoin:round;stroke-miterlimit:4;stroke-dasharray:none;stroke-opacity:1;visibility:visible"/><path d="m429.822 871.682.369-4.124M430.191 867.558l-.369 4.124M378.55 859.033l-8.097-2.813M370.453 856.22l8.097 2.813" style="fill:none;stroke:#9500ff;stroke-width:1.99999;stroke-linecap:round;stroke-linejoin:round;stroke-miterlimit:4;stroke-dasharray:none;stroke-opacity:1;visibility:visible"/><path d="m428.578 868.006-.762.964M299.367 827.115l3.453-.112M300.402 826.24l1.992 1.866M302.35 832.56l.329-3.103" style="fill:none;stroke:#9500ff;stroke-width:.666665;stroke-linecap:round;stroke-linejoin:round;stroke-miterlimit:2;stroke-dasharray:none;stroke-opacity:1;visibility:visible"/></svg>