<svg xmlns="http://www.w3.org/2000/svg" baseProfile="full" height="1122.52" preserveAspectRatio="xMinYMin meet" style="width:765px;height:943px" width="793.701" xml:space="preserve"><path d="m97.75 853.4.076-.013.057.013.075.032" style="fill:none;stroke:red;stroke-width:1.99999;stroke-linecap:round;stroke-linejoin:round;stroke-miterlimit:4;stroke-dasharray:none;stroke-opacity:1;visibility:visible"/><path d="m129.12 833.399 136.461 66.441M288.77 898.381l76.45-29.921M219.286 803.536l-76.984 25.124M163.53 827.288l-.015.295-.046.31-.071.312-.09.295-.118.31-.132.295-.163.28-.178.263-.19.252-.208.236-.221.207-.22.19-.237.162-.25.133-.236.104-.252.075-.236.045-.236.013-.237-.029-.221-.043-.208-.089-.191-.116-.179-.132-.161-.179-.132-.192-.119-.224-.089-.236-.072-.265-.047-.281-.013-.279.013-.293.032-.312.058-.312.076-.308.101-.298.135-.306.146-.28.162-.284.193-.264.19-.238.223-.237.22-.19.238-.178.236-.147.25-.118.236-.086.251-.061.237-.015h.234l.222.047.222.056.193.104.19.132.165.15.148.193.13.202.106.238.072.236.06.281.029.281v.295M156.665 837.961l-.015.295-.042.292-.06.298-.091.298-.099.274-.134.299-.135.265-.176.267-.176.25-.193.235-.208.208-.219.191-.223.179" style="fill:none;stroke:red;stroke-width:.999997;stroke-linecap:round;stroke-linejoin:round;stroke-miterlimit:4;stroke-dasharray:none;stroke-opacity:1;visibility:visible"/><path d="M151.884 839.849v-.295l.013-.296.046-.293.057-.31.09-.297.12-.309.131-.28.162-.28.164-.283.19-.248.207-.224.208-.221.235-.19.236-.163.236-.132.237-.12.25-.074.237-.042.237-.03.221.015.223.045.223.071.189.103.177.121.162.161.148.179.118.204.104.239.072.234.059.266.03.278v.283M198.723 815.696v.283l.028.284.06.264.073.248.088.225.134.205.132.178.164.158.177.122.175.105.209.072.221.032.223.01.236-.027.219-.059.236-.075.236-.117.238-.15.222-.16.221-.207.205-.207.192-.239.178-.264.162-.265.148-.279.119-.297.103-.296.089-.31.043-.294.044-.295v-.292l-.015-.284-.03-.282-.073-.248-.072-.238-.118-.221-.119-.193-.147-.162-.178-.145-.178-.12-.192-.073-.222-.058-.218-.02h-.224l-.234.047-.239.059-.236.102-.221.134-.236.15-.223.192-.205.206-.207.218-.19.255-.165.265-.161.279-.132.28-.104.297-.104.308-.057.299-.047.307-.028.293M204.863 821.899v.28l.03.283.045.248.073.253.104.22.117.207.134.178.161.148.164.132.19.104.207.062.208.04h.22l.236-.028.222-.044.237-.091.236-.115.221-.149.238-.161.205-.191.207-.225.193-.238.177-.246.16-.266.15-.282.118-.295.102-.295.074-.31.058-.295.032-.296.014-.297-.014-.276-.032-.27-.072-.25-.076-.238-.118-.208-.117-.189-.148-.179-.161-.132-.194-.116-.189-.092-.208-.04-.221-.032-.223.016-.22.047-.236.056-.236.104-.236.132-.223.148-.221.193-.204.207-.208.219-.18.254-.176.248-.147.282-.133.294-.117.295-.088.297-.076.294-.044.308-.015.297M256.294 819.727l-.015.297-.042.266-.076.265-.09.237-.117.22-.119.19-.148.166-.161.147-.193.117-.175.074-.208.06-.208.014-.219-.014-.222-.043-.222-.076-.208-.103-.218-.133-.208-.18-.207-.172-.19-.224-.195-.237-.159-.248-.165-.266-.132-.28-.12-.296-.086-.312-.076-.309-.057-.31-.03-.297-.015-.308.014-.296.031-.278.057-.266.076-.252.103-.22.116-.208.15-.178.146-.162.177-.133.179-.087.19-.074.207-.028h.222l.205.01.223.06.221.104.223.119.221.147.205.176.194.193.189.236.18.237.16.266.148.28.117.292.119.298.09.31.06.309.043.295.015.31v.295M360.454 860.118l-73.556-32.49M262.817 817l-35.47-15.664M238.713 812.29l-.03.292-.042.265-.061.255-.088.237-.12.218-.118.193-.146.176-.163.135-.161.12-.192.072-.194.06-.205.01-.223-.01-.206-.046-.222-.076-.205-.101-.224-.135-.207-.161-.19-.176-.192-.207-.175-.236-.179-.252-.149-.265-.132-.284-.117-.292-.09-.295-.073-.31-.06-.31-.03-.297-.013-.293.014-.294.029-.284.06-.265.073-.25.09-.223.117-.207.132-.173.163-.163.165-.12.175-.103.192-.074.205-.031h.208l.208.019.221.057.206.087.221.121.208.145.205.176.194.192.192.224.177.25.147.252.146.28.132.297.106.293.088.295.061.31.043.31.029.296v.296M333.662 854.138l-.017.308.029.31.03.327.074.327.092.308.116.325.132.295.15.295.173.282.196.25.208.234.202.224.236.191.226.15.248.133.236.101.236.075.252.029h.22l.237-.03.207-.06.208-.103.19-.115.179-.165.161-.194.134-.205.102-.236.104-.25.058-.282.046-.295.03-.294-.018-.323-.029-.312-.057-.325-.075-.327-.104-.307-.115-.309-.15-.312-.162-.283-.19-.264-.196-.248-.202-.225-.225-.204-.236-.177-.237-.132-.236-.122-.248-.086-.238-.047-.236-.027-.236.027-.225.047-.201.077-.196.112-.191.15-.161.162-.15.21-.114.218-.106.253-.074.266-.058.28-.029.293M353.147 863.217v.312l.01.308.047.327.058.308.092.326.116.311.132.308.15.279.179.284.173.266.207.235.227.22.218.192.236.161.238.148.236.103.248.076.236.043M357.368 866.88l.15-.208.133-.219.105-.237.084-.27.059-.278.029-.295.017-.31-.017-.314-.04-.32-.064-.313-.087-.321-.104-.312-.132-.312-.145-.294-.179-.28-.189-.265-.197-.237-.219-.222-.225-.208-.236-.161-.231-.13-.255-.12-.236-.073-.246-.045-.238-.013-.224.013-.236.057-.209.075-.19.117-.19.148-.16.162-.15.208-.115.222-.104.251-.094.264-.057.283-.03.293M241.12 609.89l-5.507-1.832" style="fill:none;stroke:red;stroke-width:.999997;stroke-linecap:round;stroke-linejoin:round;stroke-miterlimit:4;stroke-dasharray:none;stroke-opacity:1;visibility:visible"/><path d="m214.148 801.468 4.21-37.819" style="fill:none;stroke:red;stroke-width:1.99999;stroke-linecap:round;stroke-linejoin:round;stroke-miterlimit:4;stroke-dasharray:none;stroke-opacity:1;visibility:visible"/><path d="m256.384 606.67-14.363 3.25M218.208 822.311l6.29-56.08M233.872 682.591l8.148-72.672M226.932 812.63l-.19.219-.18.236-.16.266-.147.268-.119.28-.117.283-.091.293-.056.294-.047.282-.014.296v.279l.014.267.047.248.07.237.091.223.103.204.133.178.147.15.161.133.179.105M256.573 606.57l-.015.03-.028.027-.06.03-.086.013M235.613 608.059l-.076-.03-.057-.031-.03-.027v-.043M242.02 609.92l-.12.03h-.13l-.134.014-.147-.015-.133-.014-.133-.015-.103-.028M247.215 606.981l-.176-.044-.192-.047-.205-.041-.223-.03-.236-.015-.236-.015h-.46l-.221.015-.19.029-.193.03-.163.043-.146.046-.103.058-.09.046-.045.072-.013.06.013.058.046.074.074.057.118.061.133.059.161.06.179.043.204.046.223.031.221.027.237.016h.458l.233-.016.208-.014.193-.03.176-.031.148-.044.132-.057.09-.046.074-.057.03-.076v-.059l-.03-.073-.06-.06-.104-.059-.117-.058-.148-.059M251.762 605.964l-.147-.045-.177-.044-.193-.03-.192-.016-.206-.014h-.397l-.179.014-.176.031-.15.028-.131.03-.101.046-.062.056-.044.045-.013.062.03.058.055.058.076.045.118.06.148.043.16.044.18.03.19.028.192.015h.414l.193-.015.175-.013.165-.03.132-.029.117-.044.088-.045.06-.044.014-.059v-.058l-.042-.06-.074-.046-.106-.06-.117-.041M242.035 608.147l-.148-.045-.179-.043-.174-.03-.208-.015-.19-.018h-.416l-.177.018-.175.03-.15.028-.132.044-.104.047-.072.041-.047.06-.015.046.032.058.058.059.09.057.103.048.148.043.161.044.179.03.19.029.207.014.191.015h.207l.193-.015.176-.014.161-.028.151-.046.119-.029.085-.06.06-.044.03-.059-.014-.058-.045-.059-.059-.044-.105-.057-.131-.047M106.153 637.067l5.46 2.05M129.002 635.442l-16.428 3.721M127.955 852.648l-15.381-213.485M129.252 635.295l-.013.044-.043.044-.077.03-.116.03M106.153 637.067l-.076-.03-.06-.043-.015-.044M112.574 639.163l-.133.015-.132.016h-.312l-.147-.016-.133-.031-.103-.03M113.075 637.138l-.147-.044-.178-.043-.191-.029-.208-.016-.221-.013-.208-.016-.219.016-.208.013-.193.03-.176.03-.146.044-.134.057-.088.062-.062.058-.029.058.015.061.046.073.072.058.118.061.133.041.164.048.19.044.194.027.223.016h.425l.223-.016.189-.013.193-.028.163-.046.132-.045.119-.057.074-.06.043-.059v-.061l-.028-.072-.057-.059-.09-.059-.133-.061M124.28 634.63l-.147-.06-.178-.028-.192-.03-.207-.03-.208-.015h-.44l-.195.015-.189.03-.179.045-.148.045-.117.043-.105.06-.056.058-.015.06v.058l.057.074.075.059.103.059.149.045.16.043.177.045.208.015.207.03h.44l.21-.014.191-.016.191-.03.164-.045.133-.043.102-.06.074-.057.043-.061v-.059l-.015-.059-.07-.072-.091-.061-.132-.044M266.524 696.733l-.132.03-.161.014h-.33l-.16-.028-.145-.03-6.557-2.44M266.524 696.733l7.116 228.589M266.524 696.733l16.55-4.577M269.685 693.397l.207.075.232.057.253.045.253.028.278.031.265.015h.548l.247-.028.237-.031.207-.06.197-.044.16-.073.116-.074.104-.074.047-.088.029-.09-.03-.086-.058-.09-.092-.089-.132-.072-.163-.09-.189-.06-.225-.071-.236-.047-.248-.044-.266-.03-.282-.027h-.548l-.248.013-.254.03-.218.045-.208.044-.18.076-.132.057-.115.073-.075.09-.029.088v.088l.045.089.07.088.121.09.133.073.179.073M264.415 694.858l.172.047.196.057.219.03.237.029.236.014h.473l.219-.029.197-.03.172-.045.151-.058.115-.058.093-.06.045-.074v-.088l-.034-.075-.058-.075-.104-.072-.144-.073-.166-.059-.191-.061-.208-.043-.219-.029-.236-.016-.237-.013h-.236l-.22.029-.224.016-.173.041-.18.046-.132.058-.092.074-.07.074-.026.075.01.073.046.072.086.075.122.076.161.072M388.795 658.677l6.499 2.155M396.268 660.875 364.16 888.861M396.268 660.875l14.3-3.955M388.795 658.677l-.104-.03-.07-.043-.045-.062-.018-.042M396.268 660.875l-.105.015-.148.016-.144.014-.15-.014-.162-.016-.134-.03-.132-.028M403.65 656.566l.172.045.196.044.219.028.208.03.22.016h.432l.192-.031.177-.03.144-.027.132-.044.093-.059.059-.06.028-.06-.017-.075-.04-.054-.076-.078-.122-.056-.132-.061-.161-.059-.19-.045-.19-.043-.227-.029-.217-.013h-.428l-.205.013-.182.013-.161.03-.148.044-.105.06-.086.058-.029.059-.019.059.03.074.064.059.085.073.135.062.149.057M393.875 659.253l.179.043.19.045.207.044.22.015.224.013h.427l.19-.013.18-.03.162-.044.114-.044.103-.058.065-.062.027-.057-.016-.075-.04-.057-.076-.076-.12-.057-.133-.06-.162-.058-.19-.045-.207-.044-.208-.03-.219-.015-.225-.014h-.22l-.19.014-.195.029-.163.03-.143.045-.105.058-.09.044-.042.074v.06l.012.073.075.059.086.074.12.059.163.06M379.955 720.308l-137.657-50.132M377.384 726.065l-.04.308-.059.31-.093.298-.113.265-.134.251-.15.22-.178.193-.192.178-.218.132-.224.104-.238.058-.246.044h-.254l-.248-.044-.254-.058-.248-.104-.254-.132-.248-.178-.237-.193-.224-.22-.207-.25-.174-.266-.179-.28-.15-.313-.133-.323-.104-.325-.086-.34-.046-.324-.04-.339v-.341l.028-.324.047-.31.07-.296.103-.28.122-.266.144-.236.161-.206.196-.178.19-.147.22-.133.235-.075.238-.059.253-.013.247.013.254.044.267.09.253.117.248.15.235.175.22.222.225.236.19.253.189.28.168.295.133.309.115.325.105.339.056.34.047.339.012.325v.34M310.604 700.468v.177l.028.192.047.178.074.178.087.16.103.147.116.121.121.087.144.072.132.032h.139l.116-.032.114-.059.106-.086.09-.119.058-.145.048-.164.028-.163v-.193l-.028-.176-.048-.192-.074-.16-.088-.164-.102-.148-.122-.118-.132-.09-.133-.074-.132-.028h-.133l-.132.028-.106.06-.102.09-.087.117-.075.148-.04.148-.017.176M377.799 735.75l-92.556 29.333M238.623 685.602l-.219.061-.193.071-.176.09-.15.09-.1.088-.091.103-.046.104-.014.102.032.104.042.103.091.104.117.103.147.089.176.104.208.088.223.072.25.076.28.073.279.059.312.043.308.045.327.032.325.013h.633l.323-.013.297-.016.294-.045.284-.046.25-.042.236-.075.22-.073.179-.074.161-.089.118-.09.104-.086.057-.104.032-.103-.017-.104-.03-.104-.072-.102-.102-.103-.132-.104-.164-.09-.192-.089-.222-.088-.237-.072-.264-.074-.265-.059-.298-.06-.308-.043-.325-.029-.31-.032-.325-.013h-.328l-.32.013-.313.017-.293.03-.28.044-.268.044-.251.057M367.465 733.741l-.248.06-.265.059-.299.045-.307.041-.328.018-.34.014h-.34l-.353-.014-.339-.031-.341-.028-.34-.06-.324-.059-.31-.073-.294-.076-.284-.087-.23-.104-.237-.102-.196-.104-.16-.119-.133-.116-.085-.12-.078-.117-.016-.12v-.116l.047-.12.085-.118.104-.104.15-.102.18-.088.201-.075.237-.073.27-.075.277-.044.293-.044.33-.03.322-.014h.682l.352.03.34.029.34.045.341.044.31.075.305.072.285.088.252.09.23.102.226.106.179.115.142.105.122.132.07.118.046.12.017.116-.028.118-.064.103-.087.12-.133.101-.16.091-.19.09-.226.086M119.657 701.872l141.257 57.94M128.854 851.764l.265-18.365M128.854 851.764l.015.117.013.087.047.09.058.074.074.044M129.622 832.662l-.104.043-.1.073-.105.104-.075.119-.057.134-.047.132-.015.132M133.903 831.257l-4.281 1.405M134.169 831.272l-.085-.028h-.091l-.09.013M266.26 920.524l-137.198-68.348" style="fill:none;stroke:red;stroke-width:.999997;stroke-linecap:round;stroke-linejoin:round;stroke-miterlimit:4;stroke-dasharray:none;stroke-opacity:1;visibility:visible"/><path d="m265.4 894.808-131.232-63.536" style="fill:none;stroke:red;stroke-width:1.99999;stroke-linecap:round;stroke-linejoin:round;stroke-miterlimit:4;stroke-dasharray:none;stroke-opacity:1;visibility:visible"/><path d="m360.604 865.743 4.221 1.873M362.49 887.825l2.733-19.365M360.604 865.743l-.104-.028h-.092l-.099.01M365.222 868.46v-.152l-.019-.144-.038-.148-.059-.133-.092-.104-.087-.104-.102-.058M362.223 888.239l-72.938 29.333M362.223 888.239l.075-.044.076-.072.056-.076.046-.103.012-.118" style="fill:none;stroke:red;stroke-width:.999997;stroke-linecap:round;stroke-linejoin:round;stroke-miterlimit:4;stroke-dasharray:none;stroke-opacity:1;visibility:visible"/><path d="m360.31 865.726-71.67 27.857" style="fill:none;stroke:red;stroke-width:1.99999;stroke-linecap:round;stroke-linejoin:round;stroke-miterlimit:4;stroke-dasharray:none;stroke-opacity:1;visibility:visible"/><path d="m215.345 801.173-.073-.03h-.074l-.06.018M218.946 802.768l-3.601-1.596M219.286 803.536l.015-.13-.03-.135-.029-.132-.06-.134-.072-.104-.075-.073-.089-.06M216.998 822.047l-60.153 20.195" style="fill:none;stroke:red;stroke-width:.999997;stroke-linecap:round;stroke-linejoin:round;stroke-miterlimit:4;stroke-dasharray:none;stroke-opacity:1;visibility:visible"/><path d="m215.137 801.161-73.101 23.705" style="fill:none;stroke:red;stroke-width:1.99999;stroke-linecap:round;stroke-linejoin:round;stroke-miterlimit:4;stroke-dasharray:none;stroke-opacity:1;visibility:visible"/><path d="m227.347 801.336-.65 17.568M226.696 818.905v.113l.03.106.045.073.042.076.076.043M227.82 800.627l3.852-1.268M227.82 800.627l-.104.043-.09.076-.089.088-.072.118-.061.119-.041.13-.015.135M231.893 799.373l-.075-.03h-.074l-.074.015M343.8 872.15l-56.4-25.493M263.44 835.834l-36.55-16.519" style="fill:none;stroke:red;stroke-width:.999997;stroke-linecap:round;stroke-linejoin:round;stroke-miterlimit:4;stroke-dasharray:none;stroke-opacity:1;visibility:visible"/><path d="m361.013 856.102-74.22-32.624M262.684 812.895l-30.79-13.523" style="fill:none;stroke:red;stroke-width:1.99999;stroke-linecap:round;stroke-linejoin:round;stroke-miterlimit:4;stroke-dasharray:none;stroke-opacity:1;visibility:visible"/><path d="m216.895 822.076.441.208" style="fill:none;stroke:red;stroke-width:.999997;stroke-linecap:round;stroke-linejoin:round;stroke-miterlimit:4;stroke-dasharray:none;stroke-opacity:1;visibility:visible"/><path d="m250.891 604.635 5.505 1.8M250.006 604.606l-14.364 3.216" style="fill:none;stroke:red;stroke-width:1.99999;stroke-linecap:round;stroke-linejoin:round;stroke-miterlimit:4;stroke-dasharray:none;stroke-opacity:1;visibility:visible"/><path d="m218.208 822.311 8.784-2.952M256.397 606.435l.09.03.057.029.029.029v.047M235.451 607.928l.015-.03.028-.031.076-.03.072-.014M217.336 822.283l.105.028.118.028.132.017.133.015.15-.015.114-.017.12-.028" style="fill:none;stroke:red;stroke-width:.999997;stroke-linecap:round;stroke-linejoin:round;stroke-miterlimit:4;stroke-dasharray:none;stroke-opacity:1;visibility:visible"/><path d="m256.573 606.57-7.187 62.796M237.634 771.798l-3.29 28.652M235.451 607.928l-8.488 76.478" style="fill:none;stroke:red;stroke-width:1.99999;stroke-linecap:round;stroke-linejoin:round;stroke-miterlimit:4;stroke-dasharray:none;stroke-opacity:1;visibility:visible"/><path d="m127.038 852.619-5.195-2.6" style="fill:none;stroke:red;stroke-width:.999997;stroke-linecap:round;stroke-linejoin:round;stroke-miterlimit:4;stroke-dasharray:none;stroke-opacity:1;visibility:visible"/><path d="m129.09 635.161-5.46-2.005M122.67 633.11l-16.417 3.675" style="fill:none;stroke:red;stroke-width:1.99999;stroke-linecap:round;stroke-linejoin:round;stroke-miterlimit:4;stroke-dasharray:none;stroke-opacity:1;visibility:visible"/><path d="m127.955 852.648 1.24-.416M129.09 635.161l.09.045.058.044.013.044" style="fill:none;stroke:red;stroke-width:.999997;stroke-linecap:round;stroke-linejoin:round;stroke-miterlimit:4;stroke-dasharray:none;stroke-opacity:1;visibility:visible"/><path d="m122.67 633.11.133-.016.147-.013h.295l.149.013.117.03.12.031" style="fill:none;stroke:red;stroke-width:1.99999;stroke-linecap:round;stroke-linejoin:round;stroke-miterlimit:4;stroke-dasharray:none;stroke-opacity:1;visibility:visible"/><path d="m106.002 636.949.015-.047.046-.042.072-.028.118-.047M127.038 852.619l.105.03.132.045.132.013h.283l.148-.03.117-.029M121.696 849.857l.028.06.043.063.076.04" style="fill:none;stroke:red;stroke-width:.999997;stroke-linecap:round;stroke-linejoin:round;stroke-miterlimit:4;stroke-dasharray:none;stroke-opacity:1;visibility:visible"/><path d="m129.252 635.295 4.608 68.333M135.558 728.679l7.203 106.742M106.002 636.949l15.695 212.907M276.564 689.412l6.523 2.405" style="fill:none;stroke:red;stroke-width:1.99999;stroke-linecap:round;stroke-linejoin:round;stroke-miterlimit:4;stroke-dasharray:none;stroke-opacity:1;visibility:visible"/><path d="m266.507 922.22 6.141 3.055M289.111 919.09l-15.472 6.232" style="fill:none;stroke:red;stroke-width:.999997;stroke-linecap:round;stroke-linejoin:round;stroke-miterlimit:4;stroke-dasharray:none;stroke-opacity:1;visibility:visible"/><path d="m258.966 693.899 16.56-4.53" style="fill:none;stroke:red;stroke-width:1.99999;stroke-linecap:round;stroke-linejoin:round;stroke-miterlimit:4;stroke-dasharray:none;stroke-opacity:1;visibility:visible"/><path d="m258.729 694.077.017-.06.042-.044.074-.03.104-.043M266.3 922l.017.056.047.061.057.044.086.059M289.111 919.09l.085-.043.059-.058.047-.062.01-.058M272.65 925.275l.12.061.145.028.151.031h.31l.134-.03.13-.042" style="fill:none;stroke:red;stroke-width:.999997;stroke-linecap:round;stroke-linejoin:round;stroke-miterlimit:4;stroke-dasharray:none;stroke-opacity:1;visibility:visible"/><path d="M258.729 694.077 266.301 922M283.294 691.994l6.02 226.875M410.511 656.625l-6.493-2.11" style="fill:none;stroke:red;stroke-width:1.99999;stroke-linecap:round;stroke-linejoin:round;stroke-miterlimit:4;stroke-dasharray:none;stroke-opacity:1;visibility:visible"/><path d="m363.215 888.816-1.136-.519M378.139 883.22l-13.977 5.64" style="fill:none;stroke:red;stroke-width:.999997;stroke-linecap:round;stroke-linejoin:round;stroke-miterlimit:4;stroke-dasharray:none;stroke-opacity:1;visibility:visible"/><path d="m388.738 658.384 14.317-3.915" style="fill:none;stroke:red;stroke-width:1.99999;stroke-linecap:round;stroke-linejoin:round;stroke-miterlimit:4;stroke-dasharray:none;stroke-opacity:1;visibility:visible"/><path d="m388.558 658.5.019-.03.045-.029.057-.03.059-.027" style="fill:none;stroke:red;stroke-width:.999997;stroke-linecap:round;stroke-linejoin:round;stroke-miterlimit:4;stroke-dasharray:none;stroke-opacity:1;visibility:visible"/><path d="m403.055 654.469.121-.03.132-.013h.144l.15.014.15.014.144.03.122.032" style="fill:none;stroke:red;stroke-width:1.99999;stroke-linecap:round;stroke-linejoin:round;stroke-miterlimit:4;stroke-dasharray:none;stroke-opacity:1;visibility:visible"/><path d="m378.139 883.22.085-.047.064-.056.03-.057M363.215 888.816l.133.045.134.028.149.028h.143l.133-.013.133-.015.12-.028" style="fill:none;stroke:red;stroke-width:.999997;stroke-linecap:round;stroke-linejoin:round;stroke-miterlimit:4;stroke-dasharray:none;stroke-opacity:1;visibility:visible"/><path d="m388.558 658.5-28.919 207.49M410.747 656.804l-32.43 226.255" style="fill:none;stroke:red;stroke-width:1.99999;stroke-linecap:round;stroke-linejoin:round;stroke-miterlimit:4;stroke-dasharray:none;stroke-opacity:1;visibility:visible"/><path d="m242.298 670.177-.412 10.29M242.772 669.468l3.913-1.019M246.875 668.465l-.088-.015h-.103M242.772 669.468l-.104.044-.104.059-.087.089-.073.117-.059.134-.032.133-.014.132" style="fill:none;stroke:red;stroke-width:.999997;stroke-linecap:round;stroke-linejoin:round;stroke-miterlimit:4;stroke-dasharray:none;stroke-opacity:1;visibility:visible"/><path d="m380.428 716.839-133.553-48.373" style="fill:none;stroke:red;stroke-width:1.99999;stroke-linecap:round;stroke-linejoin:round;stroke-miterlimit:4;stroke-dasharray:none;stroke-opacity:1;visibility:visible"/><path d="m242.33 680.42 28.03 10.363M283.397 695.61l95.093 35.179M242.33 680.42l-.088-.03-.104.015" style="fill:none;stroke:red;stroke-width:.999997;stroke-linecap:round;stroke-linejoin:round;stroke-miterlimit:4;stroke-dasharray:none;stroke-opacity:1;visibility:visible"/><path d="m285.45 772.935 91.258-29.317" style="fill:none;stroke:red;stroke-width:1.99999;stroke-linecap:round;stroke-linejoin:round;stroke-miterlimit:4;stroke-dasharray:none;stroke-opacity:1;visibility:visible"/><path d="m233.66 682.642 8.476-2.236" style="fill:none;stroke:red;stroke-width:.999997;stroke-linecap:round;stroke-linejoin:round;stroke-miterlimit:4;stroke-dasharray:none;stroke-opacity:1;visibility:visible"/><path d="m141.832 706.875 91.83-24.232" style="fill:none;stroke:red;stroke-width:1.99999;stroke-linecap:round;stroke-linejoin:round;stroke-miterlimit:4;stroke-dasharray:none;stroke-opacity:1;visibility:visible"/><path d="m119.421 721.489.236-19.616M120.177 701.101l-.104.045-.119.075-.088.103-.09.12-.056.13-.047.147-.016.15M124.634 699.951l-4.457 1.15M124.87 699.966l-.076-.015-.073-.016-.087.016M119.421 721.489l.017.135.028.116.059.105.061.072.086.044" style="fill:none;stroke:red;stroke-width:.999997;stroke-linecap:round;stroke-linejoin:round;stroke-miterlimit:4;stroke-dasharray:none;stroke-opacity:1;visibility:visible"/><path d="m260.765 755.383-135.894-55.417M261.652 781.94l-141.978-59.98" style="fill:none;stroke:red;stroke-width:1.99999;stroke-linecap:round;stroke-linejoin:round;stroke-miterlimit:4;stroke-dasharray:none;stroke-opacity:1;visibility:visible"/><path d="m374.253 725.115 1.39.556M235.756 811.29l1.39.556M207.915 821.09l-1.39.556M155.097 838.545l-1.39.555M254.052 818.112v1.279M201.048 814.363v1.364M161.23 827.546v1.363M354.947 864.198l1.39.556M335.988 854.631v1.385" style="fill:none;stroke:red;stroke-width:.666665;stroke-linecap:round;stroke-linejoin:round;stroke-miterlimit:4;stroke-dasharray:none;stroke-opacity:1;visibility:visible"/><path d="m133.903 831.257 8.4-2.597M161.23 828.909l2.3-1.621M161.23 827.546l2.3-.258M156.665 837.961l-4.781 1.888M201.048 815.727l-2.325-.031M201.048 815.727l3.815 6.172M201.048 814.363l3.815 7.536M254.052 819.39l2.242.337M254.052 818.112l2.242 1.615M360.604 865.743l-.15-5.625M234.345 800.45l4.368 11.84M226.696 818.905l12.017-6.615M335.988 856.016l-2.326-1.878" style="fill:none;stroke:red;stroke-width:.999997;stroke-linecap:round;stroke-linejoin:round;stroke-miterlimit:4;stroke-dasharray:none;stroke-opacity:1;visibility:visible"/><path d="m227.347 801.336-13.199.132" style="fill:none;stroke:red;stroke-width:1.99999;stroke-linecap:round;stroke-linejoin:round;stroke-miterlimit:4;stroke-dasharray:none;stroke-opacity:1;visibility:visible"/><path d="m218.946 802.768 7.81 14.603M250.891 604.635l-3.676 2.346M251.762 605.964l-4.547 1.017M250.891 604.635l.871 1.329M256.396 606.435l-4.634-.471M241.12 609.892l.915-1.745M241.12 609.89l.915-1.743M111.614 639.116l1.461-1.978M111.613 639.118l1.462-1.98M123.63 633.156l.65 1.474M123.631 633.155l.649 1.475M270.36 690.783l-.675 2.614M276.564 689.412l-6.879 3.985M259.039 694.28l5.376.578M404.018 654.516l-.368 2.05M404.018 654.516l-.368 2.05M395.294 660.832l-1.419-1.579M388.795 658.677l5.08.576M374.253 725.115l5.702-4.807M367.465 733.741l10.334 2.009M233.66 682.642l4.963 2.96M233.661 682.643l4.962 2.959M377.799 735.75l-10.334-2.009M266.507 922.22l-.247-1.696M289.111 919.09l.174-1.518M155.097 838.545l1.748 3.697" style="fill:none;stroke:red;stroke-width:.999997;stroke-linecap:round;stroke-linejoin:round;stroke-miterlimit:4;stroke-dasharray:none;stroke-opacity:1;visibility:visible"/><path d="m133.903 831.257 8.133-6.39" style="fill:none;stroke:red;stroke-width:1.99999;stroke-linecap:round;stroke-linejoin:round;stroke-miterlimit:4;stroke-dasharray:none;stroke-opacity:1;visibility:visible"/><path d="M354.947 864.198 343.8 872.15" style="fill:none;stroke:red;stroke-width:.999997;stroke-linecap:round;stroke-linejoin:round;stroke-miterlimit:4;stroke-dasharray:none;stroke-opacity:1;visibility:visible"/><path d="m360.604 865.743.409-9.641M242.298 670.177l7.088-.811M227.347 801.336l6.998-.886M119.657 701.873l14.203 1.755M119.421 721.489l16.137 7.19M129.12 833.399l13.64 2.022M270.36 690.783l6.204-1.371M266.524 696.733l9.002-7.365M374.253 725.115l6.175-8.276" style="fill:none;stroke:red;stroke-width:1.99999;stroke-linecap:round;stroke-linejoin:round;stroke-miterlimit:4;stroke-dasharray:none;stroke-opacity:1;visibility:visible"/><path d="m269.685 693.397.676-2.614M283.087 691.817l.31 3.793M374.253 725.115l4.237 5.674" style="fill:none;stroke:red;stroke-width:.999997;stroke-linecap:round;stroke-linejoin:round;stroke-miterlimit:4;stroke-dasharray:none;stroke-opacity:1;visibility:visible"/><path d="m367.465 733.741 9.243 9.877M124.634 699.951l17.198 6.924" style="fill:none;stroke:red;stroke-width:1.99999;stroke-linecap:round;stroke-linejoin:round;stroke-miterlimit:4;stroke-dasharray:none;stroke-opacity:1;visibility:visible"/><path d="m378.49 730.789-4.237-5.674M231.893 799.373l3.863 11.917M226.89 819.315l10.255-7.469M218.208 822.311l-10.293-1.221M216.998 822.047l-10.472-.401M156.845 842.242l-1.748-3.697M256.294 819.727l-2.242-1.615M256.294 819.727l-2.242-.336M204.863 821.899l-3.815-7.536M198.723 815.696l2.325.031M163.53 827.288l-2.3.258M163.53 827.288l-2.3 1.62M360.454 860.118l-5.507 4.08M360.604 865.743l-4.268-.989M333.662 854.138l2.326 1.878" style="fill:none;stroke:red;stroke-width:.666665;stroke-linecap:round;stroke-linejoin:round;stroke-miterlimit:4;stroke-dasharray:none;stroke-opacity:1;visibility:visible"/><path d="M260.545 936.1 97.96 853.434M400.783 879.161 260.545 936.1M260.708 943.272l.293-6.303M260.708 943.272l-.013.115-.028.093-.047.085-.057.075-.076.03M260.545 936.1l.104.056.103.107.088.114.074.148.046.147.041.148v.15" style="fill:none;stroke:#00ff4a;stroke-width:.999997;stroke-linecap:round;stroke-linejoin:round;stroke-miterlimit:4;stroke-dasharray:none;stroke-opacity:1;visibility:visible" visibility="hidden"/><path d="m380.175 870.052 20.61 9.11M401.227 879.972v-.133l-.028-.147-.048-.132-.073-.133-.087-.104-.087-.09-.121-.072M400.766 885.862l.461-5.89M400.535 886.261l.07-.044.062-.072.04-.077.047-.087.012-.12M97.546 853.802l.015-.123.029-.102.043-.072.046-.072.072-.032M97.5 859.645l.045-5.843M97.915 860.427l-.103-.057-.076-.092-.088-.099-.058-.121-.044-.147-.031-.133-.015-.132M260.194 943.655 97.916 860.427" style="fill:none;stroke:#00ff4a;stroke-width:1.99999;stroke-linecap:round;stroke-linejoin:round;stroke-miterlimit:4;stroke-dasharray:none;stroke-opacity:1;visibility:visible" visibility="hidden"/><path d="m260.487 943.67-.092.028-.099-.013-.102-.031" style="fill:none;stroke:#00ff4a;stroke-width:.999997;stroke-linecap:round;stroke-linejoin:round;stroke-miterlimit:4;stroke-dasharray:none;stroke-opacity:1;visibility:visible" visibility="hidden"/><path d="m97.75 853.4 23.633-7.837M260.487 943.67l140.048-57.41" style="fill:none;stroke:#00ff4a;stroke-width:1.99999;stroke-linecap:round;stroke-linejoin:round;stroke-miterlimit:4;stroke-dasharray:none;stroke-opacity:1;visibility:visible" visibility="hidden"/><path d="m163.53 827.288-8.636 14.024M356.336 864.754l-.386 2.67" style="fill:none;stroke:red;stroke-width:.999997;stroke-linecap:round;stroke-linejoin:round;stroke-miterlimit:4;stroke-dasharray:none;stroke-opacity:1;visibility:visible"/><path d="m156.665 837.961-2.957 1.139" style="fill:none;stroke:red;stroke-width:.666665;stroke-linecap:round;stroke-linejoin:round;stroke-miterlimit:4;stroke-dasharray:none;stroke-opacity:1;visibility:visible"/><path d="m364.825 867.616 15.35 2.436M127.955 852.648l-6.572-7.085" style="fill:none;stroke:#00ff4a;stroke-width:1.99999;stroke-linecap:round;stroke-linejoin:round;stroke-miterlimit:4;stroke-dasharray:none;stroke-opacity:1;visibility:visible" visibility="hidden"/></svg>