<svg xmlns="http://www.w3.org/2000/svg" baseProfile="full" height="1122.52" preserveAspectRatio="xMinYMin meet" style="width:765px;height:943px" width="793.701" xml:space="preserve"><path d="m107.762 350-.196-.096-.228-.075-.24-.07-.262-.066-.267-.04-.279-.037-.292-.026-.277-.016h-.584l-.292.025-.279.043-.266.04-.25.052-.24.068-.213.078-.197.079-.174.091-.146.094-.12.109-.094.117-.068.104-.024.121-.013.118.027.12.065.107.083.12.12.105.13.109.169.092.189.093.212.092.24.067.238.065.267.054.277.056.292.024.276.012.294.014h.292l.293-.013.29-.028.265-.039.268-.056.238-.064.226-.062.213-.086.183-.09.16-.093.132-.106.105-.107.083-.105.036-.119.03-.121-.016-.117-.05-.107-.07-.117-.088-.108-.137-.108-.157-.107-.174-.09M119.21 350.61l-.196-.093-.226-.082-.252-.064-.254-.053-.265-.056-.279-.039-.288-.026-.297-.012h-.29l-.29.012-.28.013-.277.043-.267.037-.252.057-.24.066-.212.077-.184.079-.175.094-.144.104-.118.108-.092.105-.07.12-.024.106v.121l.024.118.055.118.09.11.11.102.143.107.174.105.184.095.215.077.237.083.252.064.266.056.277.038.28.026.292.03.29.009.295-.009.289-.018.279-.024.265-.044.267-.049.238-.054.226-.077.211-.081.185-.08.148-.107.134-.093.104-.122.081-.102.04-.12.024-.107-.01-.121-.055-.12-.066-.117-.105-.103-.133-.11-.162-.105-.172-.092M151.101 335.711l-.184-.093-.16-.09-.12-.108-.107-.11-.077-.1-.052-.111-.013-.118.012-.103.038-.11.068-.101.092-.111.122-.095.142-.089.174-.081.202-.078.21-.067.238-.052.239-.053.264-.039.28-.03.277-.01h.279l.279.011.278.014.279.024.279.042.254.052.248.068.228.067.209.078.19.093.175.094.142.093.119.105.093.107.054.119.042.105v.107l-.014.121-.055.104-.081.108-.118.092-.133.093-.156.095-.19.076-.197.07-.225.062-.24.055-.263.041-.266.027-.267.025-.29.011h-.277l-.294-.027-.282-.01-.261-.039-.268-.053-.252-.055-.24-.064-.224-.083-.2-.079M150.812 340.117l-.175-.095-.159-.105-.132-.094-.105-.106-.079-.119-.054-.108-.015-.117.015-.106.04-.121.066-.105.092-.092.134-.107.145-.095.172-.076.199-.081.214-.065.236-.055.254-.055.252-.038.277-.024.28-.014h.57l.279.026.278.025.28.043.25.05.255.068.224.076.227.083.184.079.17.093.15.105.119.108.095.105.049.11.039.115v.105l-.014.119-.051.108-.093.106-.104.107-.136.093-.16.092-.183.079-.213.068-.226.065-.236.054-.256.038-.276.042-.281.014-.277.01h-.292l-.28-.01-.275-.029-.279-.039-.268-.05-.264-.057-.238-.066-.214-.08-.21-.077M103.888 358.646l68.838-22.976" style="fill:none;stroke:red;stroke-width:.999997;stroke-linecap:round;stroke-linejoin:round;stroke-miterlimit:4;stroke-dasharray:none;stroke-opacity:1;visibility:visible"/><path d="m116.453 352.426-.105-.159-.122-.145-.12-.11-.129-.089-.136-.066-.133-.057-.144-.025h-.132l-.148.016-.144.036-.067.03-.08.038-.067.055-.062.055M152.15 340.46l-.092-.13-.118-.12-.106-.092-.12-.083-.121-.064-.119-.041-.118-.025-.134-.016-.12.016-.132.025-.131.05-.119.086" style="fill:none;stroke:red;stroke-width:.999997;stroke-linecap:round;stroke-linejoin:round;stroke-miterlimit:4;stroke-dasharray:none;stroke-opacity:1;visibility:visible"/><path d="m109.938 362.243 62.814-21.158M93.541 352.49l66.037-21.676" style="fill:none;stroke:red;stroke-width:1.99999;stroke-linecap:round;stroke-linejoin:round;stroke-miterlimit:4;stroke-dasharray:none;stroke-opacity:1;visibility:visible"/><path d="m152.607 335.23 1.163-.324M105 350.956l1.163-.323" style="fill:none;stroke:red;stroke-width:.666665;stroke-linecap:round;stroke-linejoin:round;stroke-miterlimit:4;stroke-dasharray:none;stroke-opacity:1;visibility:visible"/><path d="m119.21 350.61-11.448-.61M119.21 350.61l-11.448-.61M107.762 350l11.448.61M107.762 350l11.448.61M106.163 350.633l-2.275 8.013" style="fill:none;stroke:red;stroke-width:.999997;stroke-linecap:round;stroke-linejoin:round;stroke-miterlimit:4;stroke-dasharray:none;stroke-opacity:1;visibility:visible"/><path d="m106.163 350.633 3.775 11.61M106.163 350.633 93.54 352.49M152.607 335.23l6.971-4.416" style="fill:none;stroke:red;stroke-width:1.99999;stroke-linecap:round;stroke-linejoin:round;stroke-miterlimit:4;stroke-dasharray:none;stroke-opacity:1;visibility:visible"/><path d="m159.578 330.814-6.971 4.416M103.888 358.646l2.275-8.013" style="fill:none;stroke:red;stroke-width:.666665;stroke-linecap:round;stroke-linejoin:round;stroke-miterlimit:4;stroke-dasharray:none;stroke-opacity:1;visibility:visible"/><path d="M173.125 336.333v-.119l-.029-.12-.054-.119-.052-.102-.077-.093-.095-.07-.093-.04M173.124 336.333l-.16 4.394M318.146 392.16v.17l.03.144.025.146.065.122.068.09.092.07.11.041.101.01.137-.011.12-.04.128-.07.118-.104.119-.118.127-.136.087-.156.093-.175.067-.17.052-.188.042-.169.014-.175-.014-.158-.026-.145-.052-.135-.069-.103-.074-.083-.096-.067-.11-.025h-.117l-.128.039-.125.054-.132.081-.119.104-.117.135-.11.156-.095.16-.075.173-.068.173-.039.184-.03.176M326.598 388.762l-.01.173.026.145.026.146.067.118.063.094.092.068.108.037.104.013.12-.013.136-.037.119-.068.12-.108.117-.118.119-.132.095-.162.09-.156.071-.185.052-.177.024-.184.016-.156v-.173l-.027-.149-.056-.12-.053-.103-.094-.094-.09-.054-.103-.024h-.12l-.121.024-.12.067-.131.081-.121.103-.119.136-.108.144-.091.162-.079.171-.053.185-.052.174-.017.172M329.623 383.758l.07-.024h.062l.058.016M316.489 396.575l-.063-.039-.057-.064-.035-.08-.017-.095v-.107M316.834 389.397l.016-.13.036-.12.052-.121.07-.107.079-.092.094-.079.088-.053M173.508 329.091l.174-.08.158-.078.12-.093.104-.106.069-.107.037-.105.015-.107-.015-.105-.037-.108-.07-.105-.103-.107-.12-.105-.158-.091-.174-.095-.198-.082-.216-.078-.224-.066-.252-.051-.261-.053-.268-.042-.276-.024-.281-.017-.276-.01-.28.011-.267.016-.267.024-.262.043-.24.052-.226.05-.198.068-.188.077-.158.082-.146.095-.104.09-.095.106-.053.107-.024.105-.015.107.039.106.053.107.08.105.119.107.133.09.157.095.187.092.213.08.226.064.24.068.249.054.27.053.276.03.281.025.276.011h.28l.278-.009.267-.028.261-.029.252-.053.224-.054.227-.052.187-.08M270.497 364.309l.103-.063.086-.053.035-.08.029-.068-.012-.076-.044-.082-.076-.066-.093-.067-.119-.065-.136-.052-.155-.055-.177-.039-.181-.026-.187-.015h-.175l-.182.015-.163.026-.157.027-.131.039-.12.054-.081.067-.071.064-.023.065-.01.083.023.077.053.067.096.079.104.069.132.05.145.053.163.04.185.042.17.011.186.016h.189l.171-.027.161-.026.143-.043.119-.04M274.793 366.223l.082-.052.068-.054.038-.064.013-.068-.024-.067-.056-.068-.064-.064-.11-.064-.12-.056-.141-.039-.148-.041-.177-.027-.155-.013h-.176l-.156.013-.142.027-.136.041-.104.039-.092.056-.07.05-.04.068v.065l.015.065.053.067.076.069.094.064.118.053.147.042.161.037.16.013.159.015h.333l.144-.028.13-.037.12-.042M317.27 388.695l12.356-4.937M317.27 388.695l-157.466-58.833M316.834 389.397l-.519 6.793" style="fill:none;stroke:#00ff4a;stroke-width:.999997;stroke-linecap:round;stroke-linejoin:round;stroke-miterlimit:4;stroke-dasharray:none;stroke-opacity:1;visibility:visible"/><path d="m171.028 341.657 145.462 54.917M172.606 325.722l157.205 58.028M172.606 325.722l-.068-.012h-.064l-.064.027M159.804 329.86l-.092.04-.095.067-.063.094-.081.089-.037.12-.044.124-.012.104M329.811 383.749l.063.037.04.064.041.084.01.09v.108M329.453 390.885l-.028.117-.04.121-.05.119-.068.108-.081.104-.08.068-.092.052M316.673 396.566l-.067.024h-.063l-.056-.016M172.406 325.735l-12.601 4.126M316.673 396.566l12.34-4.992M159.366 330.882l.015-.385M329.453 390.885l.514-6.753" style="fill:none;stroke:#00ff4a;stroke-width:1.99999;stroke-linecap:round;stroke-linejoin:round;stroke-miterlimit:4;stroke-dasharray:none;stroke-opacity:1;visibility:visible"/><path d="M176.554 314.969a.904.904 0 0 0 .292.197M176.488 314.802c0 .061.026.121.068.167M178.574 307.122a.888.888 0 0 0 .29-.199M178.21 307.229c.124-.022.25-.056.364-.107M177.712 307.273c.164 0 .332-.018.498-.044M176.844 307.122l.102.039M178.864 314.969a.24.24 0 0 0 .073-.167M178.574 315.165a.885.885 0 0 0 .29-.198M178.21 315.273c.124-.023.25-.056.364-.108M177.712 315.315c.164 0 .332-.012.498-.041M177.21 315.273c.167.029.332.041.502.041" style="fill:none;stroke:#00ff4a;stroke-width:.666665;stroke-linecap:round;stroke-linejoin:round;stroke-miterlimit:2;stroke-dasharray:none;stroke-opacity:1;visibility:visible"/><path d="M176.844 315.165c.12.052.244.085.365.108M178.236 317.226c.144.012.254.061.302.156.106.212-.17.561-.612.781-.441.217-.885.219-.99.007-.062-.124.004-.292.156-.455M178.236 315.527c.144.013.254.063.302.154.106.213-.17.564-.612.781-.441.219-.885.221-.99.01-.062-.126.004-.294.156-.459" style="fill:none;stroke:#00ff4a;stroke-width:.666665;stroke-linecap:round;stroke-linejoin:round;stroke-miterlimit:2;stroke-dasharray:none;stroke-opacity:1;visibility:visible"/><path d="M274.575 365.558c.239.08.395.21.395.36-.001.24-.405.432-.903.432s-.902-.192-.902-.432c0-.158.17-.293.432-.37" style="fill:none;stroke:#00ff4a;stroke-width:.666665;stroke-linecap:round;stroke-linejoin:round;stroke-miterlimit:500;stroke-dasharray:none;stroke-opacity:1;visibility:visible"/><path d="m159.381 330.497 13.583 10.23M316.315 396.19l1.831-4.03M329.453 390.885l-11.308 1.275M329.453 390.885l-2.855-2.123M329.967 384.132l-3.369 4.63M159.804 329.86l13.704-.769M172.41 325.737l1.098 3.354" style="fill:none;stroke:#00ff4a;stroke-width:.999997;stroke-linecap:round;stroke-linejoin:round;stroke-miterlimit:4;stroke-dasharray:none;stroke-opacity:1;visibility:visible"/><path d="m177.712 315.314.524 1.912M178.864 314.969l-1.772 2.746" style="fill:none;stroke:#00ff4a;stroke-width:.666665;stroke-linecap:round;stroke-linejoin:round;stroke-miterlimit:2;stroke-dasharray:none;stroke-opacity:1;visibility:visible"/><path d="M216.449 433.071v.172l.03.17.052.147.067.12.095.092.104.066.12.042.132.012.13-.012.144-.053.154-.083.142-.102.131-.136.117-.144.11-.172.093-.187.077-.187.051-.186.044-.183v-.185l-.012-.175-.04-.156-.05-.136-.087-.104-.089-.081-.123-.066-.119-.012h-.142l-.137.04-.143.062-.149.094-.144.12-.117.134-.121.158-.11.174-.074.186-.068.198-.038.186-.029.187M206.82 436.943v.172l.03.176.049.143.066.12.095.092.105.078.132.042h.133l.133-.012.144-.056.15-.078.146-.105.128-.132.136-.161.103-.16.092-.184.084-.184.052-.204.028-.182.014-.188-.014-.173-.044-.143-.062-.134-.083-.12-.09-.079-.121-.053-.119-.026h-.149l-.143.04-.142.066-.148.09-.135.122-.133.148-.12.158-.104.172-.076.183-.068.204-.04.183-.029.185M211.346 435.124l.012.202.015.2.052.17.065.16.095.118.104.106.133.078.135.054.153.014.163-.014.16-.054.17-.064.172-.107.16-.13.16-.15.148-.181.12-.188.12-.2.107-.223.061-.212.067-.227.028-.213.016-.215-.016-.194-.039-.187-.056-.161-.078-.146-.107-.117-.12-.095-.13-.068-.146-.026h-.159l-.16.026-.171.068-.16.08-.17.12-.163.148-.146.156-.132.184-.132.204-.11.211-.077.21-.076.228-.041.226-.027.21M219.795 427.671l.095-.027h.089l.082.027M204.763 441.308l.35-7.334.034-.136.068-.128.082-.122.077-.108.104-.077.093-.053M87.466 357.495l.242-.065.21-.084.199-.09.17-.093.147-.106.12-.107.08-.12.067-.116.025-.108v-.119l-.038-.121-.068-.117-.08-.12-.134-.107-.14-.105-.176-.094-.198-.092-.212-.094-.242-.068-.25-.064-.264-.055-.279-.039-.292-.025-.293-.013-.29-.016-.307.016-.291.013-.282.039-.276.04-.252.055-.252.065-.228.078-.196.08-.186.092-.162.095-.128.105-.106.122-.066.105-.054.118-.015.12.025.119.044.119.076.119.106.108.134.118.16.092.186.095.211.092.228.077.239.068.263.054.281.052.278.04.292.016.304.009h.292l.292-.01.292-.025.276-.043.268-.04.25-.065M167.713 406.352l.133-.04.106-.067.076-.063.054-.068.028-.08v-.08l-.038-.079-.068-.068-.096-.065-.116-.064-.147-.056-.159-.039-.16-.03-.186-.008h-.172l-.171.009-.17.03-.152.026-.129.053-.106.052-.095.068-.052.077-.024.068.01.08.043.08.064.077.095.071.119.049.13.054.16.039.172.026.17.026h.191l.171-.01.159-.026.16-.042M205.573 433.35l14.224-5.682M205.573 433.348 78.55 356.5" style="fill:none;stroke:#9500ff;stroke-width:.999997;stroke-linecap:round;stroke-linejoin:round;stroke-miterlimit:4;stroke-dasharray:none;stroke-opacity:1;visibility:visible"/><path d="m78.55 356.5-.09.04-.096.077-.09.096-.07.106-.054.104-.036.134-.014.118M220.06 427.671l.07.069.05.076.025.106.014.133M219.847 435.194l-.016.133-.036.13-.057.132-.077.121-.092.094-.092.091-.097.052M205.189 441.679l-.092.025h-.104l-.086-.024M92.4 351.962 78.55 356.5M205.189 441.679l14.194-5.733M78.1 357.175l-.082 6.632M220.22 428.055l-.37 7.139M92.666 351.975l127.397 75.696" style="fill:none;stroke:#9500ff;stroke-width:1.99999;stroke-linecap:round;stroke-linejoin:round;stroke-miterlimit:4;stroke-dasharray:none;stroke-opacity:1;visibility:visible"/><path d="m78.018 363.807.015.123.027.09.052.079.066.067 126.73 77.514" style="fill:none;stroke:#9500ff;stroke-width:1.99999;stroke-linecap:round;stroke-linejoin:round;stroke-miterlimit:4;stroke-dasharray:none;stroke-opacity:1;visibility:visible"/><path d="m219.85 435.194-3.401-2.123M219.847 435.194l-3.397-2.123M204.763 441.308l2.057-4.365M219.847 435.194l-13.027 1.749M220.219 428.055l-8.873 7.069M219.847 435.194l-8.501-.069M92.4 351.962l-4.934 5.533M78.55 356.5l8.916.995" style="fill:none;stroke:#9500ff;stroke-width:.999997;stroke-linecap:round;stroke-linejoin:round;stroke-miterlimit:4;stroke-dasharray:none;stroke-opacity:1;visibility:visible"/><path d="m473.557 490.392 14.224-5.679M473.557 490.392l-127.022-76.85M431.343 461.271l.148-.053.12-.067.105-.065.064-.08.042-.095v-.077l-.014-.079-.05-.095-.096-.08-.106-.064-.144-.065-.146-.053-.184-.04-.19-.042-.186-.013-.196-.01-.199.01-.188.025-.17.03-.162.052-.132.053-.105.068-.094.076-.05.083-.031.08.016.09.039.078.068.084.105.078.12.066.144.07.172.035.173.041.202.024.185.016h.197l.199-.016.173-.024.171-.041M355.45 414.536l.241-.065.21-.084.2-.09.17-.094.147-.106.12-.106.079-.119.069-.117.024-.108v-.119l-.039-.121-.068-.118-.078-.118-.135-.11-.141-.104-.175-.093-.199-.092-.212-.095-.241-.068-.25-.064-.265-.053-.278-.04-.292-.025-.294-.014-.29-.016-.306.016-.292.014-.281.038-.276.042-.25.053-.255.065-.227.079-.196.08-.187.092-.161.095-.13.105-.105.121-.065.106-.055.118-.014.12.025.119.044.119.076.118.105.108.135.119.159.092.188.093.21.094.227.077.239.068.265.052.279.053.278.04.292.016.304.01h.292l.292-.01.292-.026.276-.043.268-.04.251-.064M472.748 498.35l.35-7.335.034-.136.068-.128.081-.121.078-.108.104-.077.093-.054M487.78 484.714l.093-.027h.091l.081.027M479.33 492.168l.012.2.015.201.052.172.065.159.095.119.104.105.133.077.135.055.154.013.162-.013.16-.055.17-.064.172-.106.16-.131.16-.148.148-.183.12-.188.119-.2.108-.222.061-.212.067-.227.028-.213.016-.215-.016-.195-.039-.186-.056-.162-.077-.145-.108-.117-.12-.095-.13-.068-.146-.027h-.159l-.16.027-.172.068-.16.08-.17.12-.162.148-.146.156-.132.184-.132.203-.11.213-.077.21-.076.226-.041.227-.027.209M474.805 493.985v.172l.028.176.05.143.066.12.096.092.104.078.132.043h.135l.132-.013.144-.055.149-.077.147-.107.128-.132.136-.161.102-.16.092-.183.084-.185.052-.202.028-.184.014-.188-.014-.173-.044-.143-.062-.134-.083-.118-.09-.081-.12-.052-.12-.027h-.147l-.144.042-.143.064-.148.092-.133.121-.135.147-.12.16-.104.17-.076.184-.068.203-.04.183-.028.185M484.434 490.113v.173l.03.171.053.145.066.12.095.092.104.066.12.042.132.012.13-.012.145-.052.153-.082.143-.104.13-.135.118-.145.109-.171.095-.188.076-.185.05-.187.044-.184v-.184l-.012-.176-.04-.156-.05-.135-.086-.104-.09-.082-.122-.066-.12-.01h-.142l-.136.037-.144.065-.148.092-.144.12-.119.135-.12.159-.11.173-.074.185-.068.199-.037.185-.031.187" style="fill:none;stroke:#ffdf00;stroke-width:.999997;stroke-linecap:round;stroke-linejoin:round;stroke-miterlimit:4;stroke-dasharray:none;stroke-opacity:1;visibility:visible"/><path d="m488.205 485.097-.37 7.139M346.084 414.217l-.081 6.633M473.174 498.723l14.195-5.733M360.383 409.003l-13.85 4.539M473.174 498.723l-.092.025h-.104l-.085-.025M487.833 492.236l-.016.132-.036.132-.057.13-.078.122-.092.095-.092.09-.096.052M488.046 484.714l.068.068.052.077.024.106.015.133M346.535 413.542l-.09.039-.097.078-.09.095-.068.107-.055.104-.036.133-.015.119M346.003 420.85l.015.12.026.092.052.08.067.067 126.729 77.513M360.65 409.017l127.397 75.696" style="fill:none;stroke:#ffdf00;stroke-width:1.99999;stroke-linecap:round;stroke-linejoin:round;stroke-miterlimit:4;stroke-dasharray:none;stroke-opacity:1;visibility:visible"/><path d="m360.383 409.003-4.933 5.533M346.534 413.542l8.916.994M488.205 485.098l-8.875 7.07M487.833 492.236l-8.503-.068M472.748 498.35l2.057-4.365M487.833 492.236l-13.028 1.749M487.834 492.236l-3.4-2.123M487.833 492.236l-3.399-2.123" style="fill:none;stroke:#ffdf00;stroke-width:.999997;stroke-linecap:round;stroke-linejoin:round;stroke-miterlimit:4;stroke-dasharray:none;stroke-opacity:1;visibility:visible"/><path d="m371.872 415.688 68.838-22.976M418.796 397.159l-.175-.095-.158-.105-.132-.095-.106-.105-.078-.12-.055-.105-.013-.119.013-.105.04-.122.067-.105.092-.092.133-.107.145-.094.172-.076.199-.083.215-.064.236-.053.253-.056.252-.039.277-.024.28-.013h.571l.279.025.278.025.279.043.25.05.255.069.224.076.227.082.184.079.17.093.151.104.118.11.094.104.051.109.037.116v.105l-.013.119-.05.108-.094.107-.104.106-.135.094-.161.092-.183.078-.213.068-.225.066-.236.053-.256.039-.278.041-.28.015-.277.009h-.292l-.279-.01-.277-.029-.277-.038-.268-.051-.264-.056-.239-.067-.213-.08-.211-.077M419.085 392.753l-.184-.092-.16-.092-.12-.105-.107-.11-.077-.104-.052-.108-.013-.118.013-.104.039-.11.066-.102.092-.111.122-.092.142-.09.174-.082.202-.077.21-.067.238-.052.239-.055.264-.038.28-.028.277-.012h.279l.279.012.278.013.279.024.279.041.254.054.248.068.227.066.21.078.189.094.176.092.142.094.119.106.093.107.054.119.042.105v.107l-.014.12-.055.104-.081.108-.118.092-.133.094-.156.095-.19.076-.197.068-.225.064-.24.055-.263.04-.266.026-.267.027-.29.01h-.278l-.292-.026-.283-.01-.261-.04-.268-.051-.252-.058-.24-.064-.224-.082-.2-.079M387.195 407.652l-.196-.093-.227-.082-.252-.064-.253-.053-.265-.056-.279-.039-.29-.026-.295-.012h-.29l-.292.012-.278.014-.278.042-.266.038-.252.056-.24.066-.212.077-.184.079-.175.094-.144.104-.119.108-.092.104-.069.12-.024.107v.121l.024.118.055.118.09.11.108.102.147.107.172.105.184.095.215.077.236.083.253.064.265.056.278.039.28.025.292.03.29.01.294-.01.289-.017.281-.025.263-.043.268-.05.237-.054.227-.078.21-.08.187-.08.147-.107.133-.093.104-.122.082-.102.04-.119.024-.11-.011-.12-.053-.118-.067-.119-.105-.102-.134-.11-.16-.105-.173-.092M375.747 407.041l-.196-.095-.228-.076-.24-.069-.263-.067-.266-.038-.279-.039-.292-.027-.277-.014h-.584l-.292.025-.279.043-.267.04-.249.052-.241.068-.211.078-.199.079-.173.09-.147.094-.12.11-.093.118-.068.103-.024.121-.013.117.026.12.066.108.082.12.12.104.13.11.17.092.19.093.21.092.24.067.239.065.267.053.277.056.29.024.278.012.293.015h.292l.294-.015.289-.026.267-.039.266-.056.239-.064.225-.063.214-.085.182-.09.16-.094.132-.105.106-.107.082-.105.036-.119.031-.121-.016-.118-.05-.106-.07-.118-.088-.108-.137-.108-.158-.105-.173-.092" style="fill:none;stroke:#00d4ff;stroke-width:.999997;stroke-linecap:round;stroke-linejoin:round;stroke-miterlimit:4;stroke-dasharray:none;stroke-opacity:1;visibility:visible"/><path d="m420.135 397.502-.092-.13-.119-.122-.105-.09-.12-.083-.121-.064-.119-.042-.119-.025-.133-.016-.12.016-.133.025-.13.051-.12.084M384.437 409.469l-.105-.159-.122-.145-.12-.11-.129-.09-.136-.065-.133-.056-.144-.026h-.132l-.148.016-.144.036-.067.03-.08.038-.067.055-.062.055M441.109 393.375v-.119l-.028-.12-.053-.118-.054-.103-.076-.092-.094-.07-.094-.04M441.109 393.375l-.159 4.395" style="fill:none;stroke:#00d4ff;stroke-width:.999997;stroke-linecap:round;stroke-linejoin:round;stroke-miterlimit:4;stroke-dasharray:none;stroke-opacity:1;visibility:visible"/><path d="m361.525 409.531 66.037-21.676M377.923 419.286l62.813-21.159M427.35 387.925l.015-.385M427.788 386.903l-.092.04-.095.065-.062.095-.082.09-.037.12-.044.123-.01.104" style="fill:none;stroke:#00d4ff;stroke-width:1.99999;stroke-linecap:round;stroke-linejoin:round;stroke-miterlimit:4;stroke-dasharray:none;stroke-opacity:1;visibility:visible"/><path d="m373.006 407.925 1.163-.323M420.587 392.209l1.163-.324" style="fill:none;stroke:#00d4ff;stroke-width:.666665;stroke-linecap:round;stroke-linejoin:round;stroke-miterlimit:4;stroke-dasharray:none;stroke-opacity:1;visibility:visible"/><path d="m374.169 407.602-2.297 8.086M375.747 407.041l11.448.611M375.747 407.041l11.448.611M387.195 407.652l-11.448-.611M387.195 407.652l-11.448-.611" style="fill:none;stroke:#00d4ff;stroke-width:.999997;stroke-linecap:round;stroke-linejoin:round;stroke-miterlimit:4;stroke-dasharray:none;stroke-opacity:1;visibility:visible"/><path d="m374.169 407.602-12.644 1.929M374.169 407.602l3.754 11.684" style="fill:none;stroke:#00d4ff;stroke-width:1.99999;stroke-linecap:round;stroke-linejoin:round;stroke-miterlimit:4;stroke-dasharray:none;stroke-opacity:1;visibility:visible"/><path d="m371.872 415.688 2.297-8.086M427.562 387.855l-6.975 4.354" style="fill:none;stroke:#00d4ff;stroke-width:.666665;stroke-linecap:round;stroke-linejoin:round;stroke-miterlimit:4;stroke-dasharray:none;stroke-opacity:1;visibility:visible"/><path d="m584.82 446.44-.519 6.793M585.255 445.737l12.356-4.937M585.255 445.737l-157.466-58.833M542.778 423.265l.083-.052.068-.055.037-.064.013-.068-.024-.066-.056-.068-.064-.064-.109-.064-.12-.056-.143-.039-.146-.041-.178-.027-.154-.013h-.176l-.156.013-.143.027-.136.041-.104.039-.092.056-.07.05-.04.067v.065l.015.066.054.066.076.07.093.065.119.052.146.041.162.038.16.013.158.015h.334l.144-.028.129-.038.12-.041M584.82 446.44l.017-.13.035-.12.052-.12.07-.107.08-.092.094-.079.087-.053M584.473 453.616l-.063-.039-.057-.064-.035-.081-.017-.093v-.107M597.609 440.8l.07-.024h.062l.057.016M594.583 445.805l-.01.173.027.146.024.144.068.12.062.093.093.068.108.037.104.014.12-.014.136-.037.119-.068.12-.107.117-.118.119-.132.096-.162.09-.157.07-.185.052-.176.024-.184.016-.156v-.175l-.027-.148-.056-.12-.053-.103-.094-.094-.09-.054-.103-.024h-.12l-.121.024-.119.067-.133.081-.119.103-.12.136-.11.144-.089.163-.08.17-.052.186-.052.172-.017.173M586.13 449.201v.17l.03.145.026.146.064.122.068.09.092.07.11.04.102.01.136-.01.12-.04.128-.07.119-.104.118-.118.127-.136.087-.156.093-.175.067-.17.052-.187.042-.171.014-.173-.014-.159-.026-.145-.052-.135-.068-.104-.075-.083-.096-.065-.11-.027h-.118l-.127.042-.125.05-.132.083-.119.104-.117.135-.11.156-.094.16-.076.173-.068.173-.039.184-.029.175" style="fill:none;stroke:#ff008a;stroke-width:.999997;stroke-linecap:round;stroke-linejoin:round;stroke-miterlimit:4;stroke-dasharray:none;stroke-opacity:1;visibility:visible"/><path d="m597.437 447.927.515-6.752M584.658 453.608l12.34-4.992M440.391 382.778l-12.601 4.125M584.658 453.608l-.067.024h-.062l-.056-.016M597.437 447.927l-.028.119-.039.12-.052.118-.066.108-.082.104-.08.068-.092.052M597.796 440.791l.063.037.04.066.041.082.01.091v.107M440.59 382.764l157.205 58.028M440.59 382.764l-.068-.012h-.064l-.065.027M439.012 398.699l145.462 54.917" style="fill:none;stroke:#ff008a;stroke-width:1.99999;stroke-linecap:round;stroke-linejoin:round;stroke-miterlimit:4;stroke-dasharray:none;stroke-opacity:1;visibility:visible"/><path d="M542.559 422.603c.238.079.393.21.393.359 0 .238-.404.433-.901.433-.499 0-.903-.195-.903-.433 0-.158.17-.294.432-.37" style="fill:none;stroke:#ff008a;stroke-width:.666665;stroke-linecap:round;stroke-linejoin:round;stroke-miterlimit:500;stroke-dasharray:none;stroke-opacity:1;visibility:visible"/><path d="m597.437 447.927-2.854-2.122M597.952 441.175l-3.369 4.63M584.301 453.233l1.829-4.032M597.437 447.927l-11.307 1.274" style="fill:none;stroke:#ff008a;stroke-width:.999997;stroke-linecap:round;stroke-linejoin:round;stroke-miterlimit:4;stroke-dasharray:none;stroke-opacity:1;visibility:visible"/><path d="m159.805 329.861-6.035 5.045M92.4 351.962l12.6-1.006" style="fill:none;stroke:red;stroke-width:.666665;stroke-linecap:round;stroke-linejoin:round;stroke-miterlimit:4;stroke-dasharray:none;stroke-opacity:1;visibility:visible"/><path d="m360.383 409.003 12.623-1.078M427.79 386.903l-6.04 4.982" style="fill:none;stroke:#00d4ff;stroke-width:.666665;stroke-linecap:round;stroke-linejoin:round;stroke-miterlimit:4;stroke-dasharray:none;stroke-opacity:1;visibility:visible"/></svg>