<svg xmlns="http://www.w3.org/2000/svg" baseProfile="full" height="1122.52" preserveAspectRatio="xMinYMin meet" style="width:765px;height:943px" width="793.701" xml:space="preserve"><path d="m359.643 945.203 68.838-22.975M406.568 926.675l-.175-.095-.158-.106-.134-.092-.104-.107-.081-.119-.052-.106-.015-.119.015-.107.04-.121.067-.104.092-.092.132-.108.146-.093.174-.076.196-.082.214-.065.238-.055.252-.053.253-.04.279-.024.278-.013h.57l.278.025.279.025.277.042.254.053.253.067.224.076.227.081.185.08.17.095.15.102.117.11.095.104.05.109.04.117v.104l-.017.119-.048.108-.093.107-.105.106-.132.095-.164.09-.183.08-.212.067-.225.066-.238.054-.254.038-.278.041-.28.013-.277.011h-.292l-.279-.01-.277-.029-.279-.038-.266-.051-.264-.055-.239-.068-.213-.081-.211-.076M406.857 922.27l-.184-.093-.159-.092-.121-.104-.107-.111-.078-.103-.052-.109-.014-.119.014-.102.038-.111.067-.103.092-.109.121-.093.144-.091.172-.081.203-.076.21-.07.238-.05.24-.055.264-.037.279-.03.277-.013h.28l.279.013.278.014.279.024.279.042.253.052.248.067.227.07.209.075.19.095.175.093.144.094.119.105.093.105.052.12.043.106v.106l-.013.12-.055.106-.084.108-.117.09-.131.094-.157.094-.188.078-.199.068-.225.065-.239.055-.264.038-.267.027-.266.027-.29.009h-.28l-.29-.025-.282-.011-.262-.04-.267-.05-.252-.057-.239-.065-.226-.083-.199-.077M374.965 937.167l-.196-.095-.227-.08-.25-.062-.254-.055-.268-.055-.276-.04-.29-.026-.295-.011h-.288l-.295.01-.278.015-.278.042-.265.038-.253.056-.239.064-.212.08-.184.078-.176.094-.143.106-.118.105-.094.105-.068.12-.025.106v.122l.025.118.055.118.088.11.11.102.146.107.172.105.184.095.216.077.235.083.252.064.268.055.276.041.281.024.29.03.291.01.295-.01.29-.015.28-.027.263-.041.267-.054.239-.052.226-.078.211-.08.187-.08.146-.107.132-.095.104-.12.082-.101.04-.121.024-.108-.011-.12-.053-.118-.067-.12-.105-.102-.134-.11-.158-.105-.175-.092M363.518 936.556l-.196-.093-.23-.078-.238-.069-.264-.065-.267-.04-.277-.039-.293-.027-.278-.013h-.582l-.294.025-.28.042-.264.04-.25.052-.24.069-.211.079-.2.078-.173.092-.144.091-.123.11-.09.12-.07.102-.025.12-.012.119.025.12.067.108.081.12.12.104.13.109.17.09.19.094.211.092.239.068.239.065.266.054.278.056.29.025.279.01.293.014h.294l.29-.015.29-.026.266-.038.267-.056.239-.065.224-.061.214-.086.183-.09.16-.094.133-.106.106-.106.081-.106.037-.119.03-.119-.016-.12-.051-.106-.068-.118-.088-.106-.137-.108-.159-.107-.172-.092" style="fill:none;stroke:red;stroke-width:.999997;stroke-linecap:round;stroke-linejoin:round;stroke-miterlimit:4;stroke-dasharray:none;stroke-opacity:1;visibility:visible" visibility="hidden"/><path d="m407.906 927.017-.093-.13-.119-.12-.105-.093-.12-.081-.12-.065-.119-.042-.119-.024-.134-.016-.12.016-.132.024-.131.052-.12.086M372.209 938.984l-.107-.159-.12-.144-.12-.109-.13-.092-.135-.065-.135-.056-.142-.026h-.134l-.148.018-.144.034-.066.03-.079.038-.068.055-.063.055M461.328 1019.907l14.224-5.679M461.328 1019.907l-127.024-76.85M419.115 990.786l.145-.052.123-.068.105-.065.064-.08.042-.094v-.077l-.015-.08-.05-.095-.095-.08-.106-.064-.145-.064-.147-.054-.184-.04-.186-.04-.19-.015-.196-.01-.198.01-.187.027-.172.028-.159.052-.133.053-.105.068-.092.076-.055.081-.03.082.018.092.037.077.07.083.105.078.12.067.144.068.17.036.175.041.2.024.186.018h.197l.201-.018.172-.024.171-.041M344.162 942.577l-.143-.104-.174-.093-.198-.092-.212-.095-.244-.067-.248-.065-.265-.055-.279-.038-.29-.026-.294-.012-.292-.017-.304.017-.292.012-.281.038-.276.042-.252.054-.256.065-.225.079-.195.08-.187.093-.161.093-.13.107-.107.119-.064.106-.055.119-.012.12.023.119.044.12.077.117.104.108.135.119.161.093.185.093.212.092.227.078.237.069.266.052.278.053.279.039.29.017.307.008h.29l.293-.008.293-.026.276-.043.264-.04.255-.067M343.221 944.052l.24-.064.21-.084.2-.09.171-.094M460.52 1027.866l.35-7.335.034-.134.067-.131.081-.12.079-.108.104-.077.092-.054M475.552 1014.229l.093-.027h.091l.081.027M467.103 1021.684l.01.2.014.201.052.172.065.159.095.117.104.107.133.079.136.053.156.013.158-.013.161-.053.17-.067.173-.105.16-.131.162-.15.146-.18.12-.19.118-.2.107-.223.064-.212.065-.226.03-.212.014-.214-.014-.197-.038-.185-.057-.163-.079-.145-.108-.118-.118-.093-.132-.07-.144-.025h-.16l-.16.026-.172.069-.16.08-.171.119-.161.148-.147.157-.132.185-.13.202-.109.212-.08.21-.076.226-.041.226-.024.211M462.577 1023.5v.173l.027.175.05.144.067.12.095.092.104.077.132.043h.136l.13-.013.146-.055.148-.077.146-.107.128-.132.138-.16.102-.16.091-.185.085-.183.052-.203.027-.184.015-.188-.015-.173-.043-.143-.064-.133-.081-.119-.092-.081-.12-.052-.119-.025h-.146l-.144.038-.144.066-.148.092-.134.12-.133.149-.123.157-.101.174-.077.182-.068.203-.04.184-.027.184M472.206 1019.63v.17l.03.173.053.146.066.119.094.093.104.066.121.041.132.013.13-.013.145-.053.152-.082.144-.102.129-.136.117-.146.111-.17.093-.188.076-.186.052-.185.043-.185v-.184l-.01-.175-.042-.156-.05-.136-.085-.104-.093-.083-.119-.065-.12-.012h-.144l-.134.04-.147.064-.147.093-.142.119-.119.135-.12.16-.11.17-.075.188-.068.198-.036.185-.031.188M572.591 975.954l-.517 6.795M573.026 975.252l12.355-4.936M573.026 975.252l-157.468-58.833M526.254 950.869l.103-.064.084-.053.037-.08.028-.067-.013-.077-.044-.08-.075-.068-.095-.067-.118-.065-.135-.051-.156-.056-.176-.039-.183-.025-.186-.016h-.175l-.181.016-.162.025-.16.024-.129.044-.12.052-.083.067-.068.064-.025.065-.01.083.022.077.055.068.094.079.104.068.132.05.147.055.161.039.187.043.168.008.19.018h.186l.172-.026.159-.028.145-.042.12-.041M429.265 915.648l.173-.08.16-.077.118-.094.105-.106.068-.107.04-.105.012-.107-.012-.105-.04-.108-.068-.106-.105-.106-.118-.107-.16-.088-.173-.095-.199-.084-.216-.077-.224-.067-.25-.052-.264-.053-.266-.039-.278-.025-.28-.017-.276-.01-.28.01-.267.017-.265.025-.266.039-.237.053-.225.052-.202.067-.185.077-.157.084-.147.095-.104.088-.095.107-.053.106-.027.106-.012.108.039.105.053.107.079.105.12.107.133.09.156.095.188.092.214.08.225.064.237.068.251.053.27.054.277.029.28.027.276.01h.28l.278-.01.266-.027.264-.03.25-.053.224-.053.227-.05.188-.082M572.591 975.954l.016-.13.036-.12.052-.118.068-.107.08-.094.095-.078.088-.054M572.244 983.132l-.06-.04-.059-.064-.036-.08-.014-.093v-.107M585.38 970.316l.068-.025h.063l.056.017M582.356 975.32l-.012.175.028.145.024.144.07.12.06.092.093.068.108.039.101.013.121-.013.136-.039.119-.068.12-.104.116-.12.121-.132.095-.161.09-.159.07-.185.052-.175.027-.184.014-.157v-.175l-.025-.147-.059-.12-.052-.104-.092-.093-.093-.055-.103-.024h-.12l-.118.024-.12.068-.134.08-.12.104-.118.135-.11.145-.09.162-.079.172-.052.185-.052.17-.016.174M573.903 978.717v.17l.03.146.026.145.063.122.066.09.095.068.11.043.102.01.133-.01.12-.043.131-.068.119-.104.118-.118.127-.135.087-.159.092-.173.068-.172.052-.185.041-.171.013-.173-.013-.159-.025-.144-.052-.136-.068-.105-.075-.08-.097-.066-.108-.028h-.119l-.127.042-.126.052-.131.08-.12.105-.117.136-.11.155-.092.16-.08.173-.066.173-.038.184-.029.175M428.88 922.89v-.117l-.028-.122-.053-.118-.054-.104-.076-.091-.094-.068-.092-.041M428.88 922.89l-.159 4.395" style="fill:none;stroke:red;stroke-width:.999997;stroke-linecap:round;stroke-linejoin:round;stroke-miterlimit:4;stroke-dasharray:none;stroke-opacity:1;visibility:visible" visibility="hidden"/><path d="m349.297 939.048 66.037-21.677M365.694 948.8l62.812-21.159M475.977 1014.613l-.372 7.139M333.856 943.733l-.083 6.632M460.945 1028.238l14.192-5.733M343.35 940.094l-9.044 2.964M460.945 1028.238l-.093.025h-.104l-.084-.025M475.604 1021.75l-.016.133-.036.131-.057.132-.079.12-.09.095-.094.09-.097.052M475.818 1014.229l.067.068.052.079.024.104.016.133M334.306 943.058l-.092.037-.095.08-.09.096-.07.104-.052.106-.038.133-.014.119M348.422 938.533l-.081-.025h-.092l-.094.013M333.775 950.365l.013.12.028.092.052.08.067.067 126.729 77.514M425.422 984.285l50.396 29.944M348.422 938.533l72.066 42.821M585.21 977.443l.51-6.753M415.123 917.44l.013-.385M572.43 983.122l12.34-4.99M428.163 912.294l-12.603 4.125M572.43 983.122l-.067.024h-.062l-.058-.015M585.21 977.443l-.03.117-.038.12-.052.119-.07.108-.078.104-.081.07-.091.051M585.567 970.308l.063.036.041.065.04.082.01.093v.107M415.56 916.42l-.093.04-.095.065-.061.094-.082.09-.038.119-.044.124-.011.105M428.362 912.279l-.068-.01h-.065l-.066.026M532.054 950.553l53.513 19.755M435.655 914.971l91.906 33.924M428.362 912.279l2.883 1.064M426.784 928.215l145.46 54.917" style="fill:none;stroke:red;stroke-width:1.99999;stroke-linecap:round;stroke-linejoin:round;stroke-miterlimit:4;stroke-dasharray:none;stroke-opacity:1;visibility:visible" visibility="hidden"/><path d="M346.28 934.778v-.008a.243.243 0 0 0-.107-.198M346.624 934.942a.21.21 0 0 0-.06-.147M346.563 934.796a.567.567 0 0 0-.105-.089M344.52 934.827a.975.975 0 0 0-.15.413" style="fill:none;stroke:red;stroke-width:.666665;stroke-linecap:round;stroke-linejoin:round;stroke-miterlimit:2;stroke-dasharray:none;stroke-opacity:1;visibility:visible" visibility="hidden"/><path d="M346.742 935.291a1.033 1.033 0 0 0-.156-.464M346.779 937.973v8.043M346.076 936.27v1.703M344.33 937.973v8.043M345.029 936.279v1.695M344.37 935.853v-.615M346.74 935.816l.003-.525M346.416 938.338a.856.856 0 0 0 .291-.199M346.052 938.447a1.53 1.53 0 0 0 .362-.11M345.552 938.487c.168 0 .334-.013.5-.04M344.688 938.338c.032.014.068.026.1.041M344.396 938.14a.873.873 0 0 0 .292.197M344.33 937.974c0 .064.022.12.066.166M344.396 937.803a.24.24 0 0 0-.066.17M344.688 937.604a.873.873 0 0 0-.292.2M345.028 937.503a1.881 1.881 0 0 0-.34.101M346.706 946.183a.233.233 0 0 0 .072-.167M346.416 946.383a.92.92 0 0 0 .291-.2M346.052 946.488c.123-.02.25-.056.362-.106M345.552 946.531c.168 0 .334-.016.5-.043M345.052 946.488c.166.028.334.043.5.043M344.688 946.383c.12.05.242.085.363.107M344.396 946.183a.941.941 0 0 0 .292.2M344.33 946.015a.23.23 0 0 0 .066.167M344.714 936.171a1.61 1.61 0 0 0 .804.145M344.431 935.982a.907.907 0 0 0 .283.19M344.368 935.854a.241.241 0 0 0 .063.128" style="fill:none;stroke:red;stroke-width:.666665;stroke-linecap:round;stroke-linejoin:round;stroke-miterlimit:2;stroke-dasharray:none;stroke-opacity:1;visibility:visible" visibility="hidden"/><path d="M346.706 938.14a.233.233 0 0 0 .072-.169M345.552 936.32a2.8 2.8 0 0 0 .483-.042M345.518 936.316c.012 0 .024.004.032.004M346.047 936.294a.05.05 0 0 0 .017-.022M345.047 936.284l.008.01M345.028 937.974c0 .025.012.052.028.07M346.416 937.604a1.747 1.747 0 0 0-.34-.1M346.706 937.803a.856.856 0 0 0-.29-.199" style="fill:none;stroke:red;stroke-width:.666665;stroke-linecap:round;stroke-linejoin:round;stroke-miterlimit:2;stroke-dasharray:none;stroke-opacity:1;visibility:visible" visibility="hidden"/><path d="M346.778 937.974a.243.243 0 0 0-.072-.17M344.638 934.712a.919.919 0 0 0-.094.083M344.882 934.592a.252.252 0 0 0-.126.166M344.368 935.344a.2.2 0 0 0 .062.111M344.543 934.796a.195.195 0 0 0-.061.147M345.118 934.528c-.08.012-.159.038-.239.062M345.552 934.492c-.145 0-.292.01-.434.036M345.987 934.528a2.371 2.371 0 0 0-.435-.036M346.172 934.572a1.167 1.167 0 0 0-.185-.044M346.616 934.99a.164.164 0 0 0 .008-.048M346.67 935.982a.241.241 0 0 0 .07-.166M346.39 936.171a.86.86 0 0 0 .28-.19M346.035 936.278c.125-.023.243-.055.355-.108M345.378 935.156l.35-.088M434.659 906.14a1.039 1.039 0 0 0-.156-.462M434.697 908.824v8.041M433.994 907.12v1.705M432.249 908.824v8.041M432.947 907.128v1.696M432.288 906.703v-.616M434.658 906.665l.003-.525M432.97 917.338c.167.03.334.044.503.044M432.604 917.231c.12.05.243.086.364.107M432.314 917.034a.992.992 0 0 0 .29.196M432.248 916.866c0 .061.024.123.067.168M432.632 907.02a1.63 1.63 0 0 0 .804.148M432.35 906.831a.893.893 0 0 0 .282.19M432.287 906.703a.237.237 0 0 0 .063.127M433.472 907.17c.159 0 .322-.016.482-.044M433.435 907.166l.035.003M433.964 907.143c.01-.008.016-.013.019-.023" style="fill:none;stroke:red;stroke-width:.666665;stroke-linecap:round;stroke-linejoin:round;stroke-miterlimit:2;stroke-dasharray:none;stroke-opacity:1;visibility:visible" visibility="hidden"/><path d="M432.966 907.134c.004 0 .004.005.008.008M432.946 908.825c0 .024.012.05.028.069M434.334 908.454a1.954 1.954 0 0 0-.342-.104M434.626 908.651a.876.876 0 0 0-.292-.197M434.696 908.825a.253.253 0 0 0-.07-.175M434.626 908.99a.25.25 0 0 0 .07-.165M434.334 909.187a.89.89 0 0 0 .292-.197M433.97 909.297c.124-.024.249-.06.362-.11M433.472 909.337c.164 0 .33-.014.498-.04M432.604 909.187c.034.015.07.027.102.043M432.314 908.99a.899.899 0 0 0 .29.197M432.248 908.825a.25.25 0 0 0 .067.165M432.314 908.651a.253.253 0 0 0-.067.174M432.604 908.454a.92.92 0 0 0-.29.196M432.946 908.351a2.05 2.05 0 0 0-.342.103M434.626 917.034a.248.248 0 0 0 .07-.168M434.334 917.231a.981.981 0 0 0 .292-.197M433.97 917.338c.124-.021.249-.056.362-.108M433.472 917.382c.164 0 .33-.015.498-.044M432.287 906.194a.2.2 0 0 0 .061.11M434.588 906.831a.241.241 0 0 0 .07-.165M434.308 907.02a.827.827 0 0 0 .28-.188M433.954 907.126a1.49 1.49 0 0 0 .354-.106M433.296 906.003l.35-.088M530.555 941.208v-.008a.24.24 0 0 0-.106-.198M530.901 941.37a.21.21 0 0 0-.061-.144M530.84 941.226a.44.44 0 0 0-.105-.088M528.795 941.254a1.028 1.028 0 0 0-.148.413" style="fill:none;stroke:red;stroke-width:.666665;stroke-linecap:round;stroke-linejoin:round;stroke-miterlimit:2;stroke-dasharray:none;stroke-opacity:1;visibility:visible" visibility="hidden"/><path d="M531.019 941.72a1.05 1.05 0 0 0-.156-.466M531.056 944.402v8.041M530.353 942.697v1.705M528.608 944.402v8.041M529.306 942.706v1.696M528.647 942.281v-.613M531.017 942.245l.003-.525M529.305 944.403c0 .024.015.05.028.07M530.692 944.034a1.75 1.75 0 0 0-.341-.104M530.983 944.231a.87.87 0 0 0-.291-.197M531.055 944.403a.244.244 0 0 0-.072-.17M530.983 944.568a.237.237 0 0 0 .072-.165M530.692 944.766a.833.833 0 0 0 .29-.198M530.328 944.875c.124-.024.25-.059.363-.11M529.83 944.916c.166 0 .334-.014.499-.04M528.964 944.766l.101.041M528.673 944.568a.859.859 0 0 0 .291.198M528.607 944.403a.24.24 0 0 0 .066.165M528.673 944.231a.247.247 0 0 0-.066.17M528.964 944.034a.899.899 0 0 0-.29.196M529.305 943.931a1.933 1.933 0 0 0-.341.103M530.983 952.612a.239.239 0 0 0 .072-.168M530.692 952.81a.87.87 0 0 0 .29-.198M530.328 952.92c.124-.025.25-.06.363-.11M529.83 952.96a3.1 3.1 0 0 0 .499-.04M529.33 952.92c.164.025.33.04.5.04M528.964 952.81c.12.05.243.085.364.11M528.673 952.612a.899.899 0 0 0 .291.198M528.607 952.443a.24.24 0 0 0 .066.168M528.992 942.6a1.64 1.64 0 0 0 .69.151c.038 0 .074-.003.112-.005M528.708 942.408a.884.884 0 0 0 .284.192M528.647 942.28a.224.224 0 0 0 .062.127M529.83 942.747c.16 0 .323-.015.48-.041M529.795 942.746l.035.002M530.323 942.724c.009-.012.016-.017.017-.026" style="fill:none;stroke:red;stroke-width:.666665;stroke-linecap:round;stroke-linejoin:round;stroke-miterlimit:2;stroke-dasharray:none;stroke-opacity:1;visibility:visible" visibility="hidden"/><path d="M529.325 942.712c.003 0 .005.008.007.012M528.915 941.14a.804.804 0 0 0-.095.086M529.159 941.02a.257.257 0 0 0-.126.167M528.647 941.774a.2.2 0 0 0 .061.11M528.82 941.226a.19.19 0 0 0-.061.144M529.395 940.958a1.299 1.299 0 0 0-.239.058M529.83 940.92c-.145 0-.293.01-.434.036M530.265 940.958a2.39 2.39 0 0 0-.434-.036M530.45 941.002a1.187 1.187 0 0 0-.186-.044M530.893 941.418a.145.145 0 0 0 .008-.048M530.947 942.408a.232.232 0 0 0 .069-.162M530.667 942.6a.827.827 0 0 0 .28-.192M530.313 942.707a1.85 1.85 0 0 0 .355-.107M529.655 941.583l.35-.088M423.55 981.462v-.01c0-.078-.04-.15-.106-.197M423.896 981.624a.212.212 0 0 0-.061-.144M423.835 981.48a.475.475 0 0 0-.105-.088M421.79 981.508a.996.996 0 0 0-.148.414" style="fill:none;stroke:red;stroke-width:.666665;stroke-linecap:round;stroke-linejoin:round;stroke-miterlimit:2;stroke-dasharray:none;stroke-opacity:1;visibility:visible" visibility="hidden"/><path d="M424.012 981.975a1.06 1.06 0 0 0-.156-.467M424.05 984.656v8.043M423.348 982.951v1.705M421.603 984.656v8.043M422.3 982.96v1.695M421.642 982.536v-.615M424.012 982.5l.003-.525M422.3 984.656a.12.12 0 0 0 .028.071M423.688 984.287a1.663 1.663 0 0 0-.341-.103M423.979 984.486a.857.857 0 0 0-.29-.198M424.05 984.656a.244.244 0 0 0-.072-.17M423.979 984.823a.236.236 0 0 0 .071-.167M423.688 985.02a.84.84 0 0 0 .29-.197M423.323 985.13a1.54 1.54 0 0 0 .363-.11M422.826 985.17c.164 0 .332-.014.497-.04M421.959 985.02l.101.04M421.667 984.823a.884.884 0 0 0 .292.197M421.602 984.656c0 .062.024.12.065.167M421.667 984.486a.253.253 0 0 0-.065.17M421.959 984.287a.941.941 0 0 0-.292.197M422.3 984.186a1.732 1.732 0 0 0-.34.102M423.979 992.867a.24.24 0 0 0 .071-.168M423.688 993.064a.857.857 0 0 0 .29-.197M423.323 993.172c.124-.022.25-.057.363-.108M422.826 993.214c.164 0 .332-.015.497-.042M422.323 993.172c.167.028.333.042.503.042M421.959 993.064c.12.051.243.086.363.108M421.667 992.867a.927.927 0 0 0 .292.197M421.602 992.699a.253.253 0 0 0 .065.168M421.986 982.854a1.68 1.68 0 0 0 .692.149l.112-.003M421.703 982.666a.933.933 0 0 0 .281.189M421.642 982.536a.24.24 0 0 0 .062.13M423.319 982.978a.053.053 0 0 0 .019-.026" style="fill:none;stroke:red;stroke-width:.666665;stroke-linecap:round;stroke-linejoin:round;stroke-miterlimit:2;stroke-dasharray:none;stroke-opacity:1;visibility:visible" visibility="hidden"/><path d="M422.319 982.967c.005.001.005.008.01.01M422.79 983.001h.036M421.91 981.394a.804.804 0 0 0-.094.085M422.154 981.276a.248.248 0 0 0-.126.166M421.642 982.027a.204.204 0 0 0 .06.11M421.815 981.48a.19.19 0 0 0-.061.144M422.39 981.211a1.4 1.4 0 0 0-.24.063M422.826 981.175c-.147 0-.296.01-.436.035M423.26 981.211a2.389 2.389 0 0 0-.434-.035M423.444 981.255a1.37 1.37 0 0 0-.184-.045M423.888 981.671a.145.145 0 0 0 .008-.048M423.942 982.666a.24.24 0 0 0 .068-.166M423.662 982.854a.88.88 0 0 0 .28-.19M423.308 982.958a1.53 1.53 0 0 0 .355-.104M422.826 983.003a2.8 2.8 0 0 0 .48-.044M422.65 981.839l.35-.09M380.226 926.4c-.002.002 0 .003.002.01M381.071 924.646l-.01.001M381.06 924.647a.813.813 0 0 0-.304.19M380.76 924.836a2.293 2.293 0 0 0-.39.562 2.493 2.493 0 0 0-.19.644M380.18 926.042a.808.808 0 0 0 .044.358M381.621 924.481l-.55.164M380.45 926.94l-.221-.532M380.44 926.926a.259.259 0 0 0 .132.152M381.81 924.494a.273.273 0 0 0-.2-.01M386.365 926.668l-4.555-2.176M384.078 927.193l-3.6-1.719M381.974 927.746l-1.401-.668" style="fill:none;stroke:red;stroke-width:.666665;stroke-linecap:round;stroke-linejoin:round;stroke-miterlimit:2;stroke-dasharray:none;stroke-opacity:1;visibility:visible" visibility="hidden"/><path d="m360.856 937.417 1.136-.316M408.39 921.871l1.136-.315" style="fill:none;stroke:red;stroke-width:.666665;stroke-linecap:round;stroke-linejoin:round;stroke-miterlimit:4;stroke-dasharray:none;stroke-opacity:1;visibility:visible" visibility="hidden"/><path d="m361.992 937.101-2.349 8.102M363.518 936.556l11.447.611M363.518 936.556l11.447.611M374.965 937.167l-11.447-.611M374.965 937.167l-11.447-.611M380.226 926.4l-9.608 12.163M423.686 993.064l-4.571-2.278M423.323 993.172l-4.208-2.386M346.458 934.707l-2.296 7.87M475.977 1014.613l-8.874 7.071M475.604 1021.75l-8.501-.066M460.52 1027.866l2.057-4.366M475.604 1021.75l-13.027 1.75M475.605 1021.752l-3.399-2.122M475.604 1021.75l-3.398-2.12M529.159 941.02l-2.905 9.849M530.692 952.81l-4.438-1.941M434.332 917.23l-5.067-1.582M428.163 912.295l1.102 3.353M585.21 977.443l-2.854-2.123M585.72 970.69l-3.364 4.63M572.074 982.749l1.829-4.032" style="fill:none;stroke:red;stroke-width:.999997;stroke-linecap:round;stroke-linejoin:round;stroke-miterlimit:4;stroke-dasharray:none;stroke-opacity:1;visibility:visible" visibility="hidden"/><path d="m344.688 937.604 4.609 1.444M361.992 937.101l3.702 11.699M344.688 937.604l-1.338 2.49M420.488 981.354l4.934 2.931M423.444 981.255l-2.956.1M528.964 952.81l3.09-2.257M432.604 917.23l3.051-2.259M528.964 952.81l-1.403-3.915M432.604 917.231l-1.36-3.888M432.604 917.23l-5.82 10.985" style="fill:none;stroke:red;stroke-width:1.99999;stroke-linecap:round;stroke-linejoin:round;stroke-miterlimit:4;stroke-dasharray:none;stroke-opacity:1;visibility:visible" visibility="hidden"/><path d="m380.573 927.078 5.792-.41M380.573 927.078l3.505.115M380.478 925.474l1.496 2.272" style="fill:none;stroke:red;stroke-width:.666665;stroke-linecap:round;stroke-linejoin:round;stroke-miterlimit:2;stroke-dasharray:none;stroke-opacity:1;visibility:visible" visibility="hidden"/><path d="m345.729 935.068 15.127 2.349M359.643 945.203l2.349-8.102M415.334 917.37l-6.944 4.501M415.56 916.42l-6.034 5.136" style="fill:none;stroke:red;stroke-width:.666665;stroke-linecap:round;stroke-linejoin:round;stroke-miterlimit:4;stroke-dasharray:none;stroke-opacity:1;visibility:visible" visibility="hidden"/><path d="m338.354 727.06 12.308 4.23M338.354 727.06l-.068-.013-.039-.04-.03-.028-.011-.026M351.526 731.331l-.107.012-.132.015h-.266l-.134-.027-.117-.013-.105-.028M355.57 730.485l-4.044.847M355.784 730.364l-.013.039-.039.026-.068.042-.093.014M350.12 729.738l.173-.037.132-.055.118-.052.082-.053.052-.054.026-.066-.012-.052-.042-.067-.065-.068-.107-.052-.12-.055-.157-.053-.173-.037-.202-.042-.194-.026-.227-.014-.225-.012-.226-.012h-.225l-.212.012-.213.026-.186.026-.174.042-.159.037-.119.053-.105.055-.068.052-.039.055-.013.064.027.068.068.053.077.067.121.053.132.052.172.039.171.041.215.039.213.026.224.015.227.013h.224l.213-.013.225-.015.199-.026.172-.027M350.664 731.29l-2.801 175.762" style="fill:none;stroke:#00ff4a;stroke-width:.999997;stroke-linecap:round;stroke-linejoin:round;stroke-miterlimit:4;stroke-dasharray:none;stroke-opacity:1;visibility:visible" visibility="hidden"/><path d="m342.466 726.012-4.035.824M343.328 726.052l12.308 4.205M347.865 907.053l-11.768-5.427M335.964 901.48v.041l.027.042.041.036.065.028M352.56 905.898l-3.873 1.183M352.56 905.898l.092-.04.055-.039.05-.04.015-.053M347.865 907.053l.092.028.107.027.133.025h.25l.134-.025.105-.027M338.206 726.954l.013-.027.055-.04.068-.024.09-.026M355.638 730.258l.068.027.052.025.024.028v.027M342.466 726.012l.119-.013.118-.014h.282l.118.014.116.026.108.027M335.964 901.48l2.243-174.525M352.772 905.726l3.012-175.36" style="fill:none;stroke:#00ff4a;stroke-width:1.99999;stroke-linecap:round;stroke-linejoin:round;stroke-miterlimit:4;stroke-dasharray:none;stroke-opacity:1;visibility:visible" visibility="hidden"/><path d="m336.203 859.97-4.437-1.684M336.6 858.538l-5.075-1.928M336.76 856.954l-3.924-1.49M331.616 858.137a.276.276 0 0 0 .149.149M332.837 855.465a.287.287 0 0 0-.21.005M331.625 858.151l-.275-.54M332.64 855.47l-.568.22M331.342 857.6s.003.01.01.01M332.074 855.69l-.007.004M332.066 855.694a.933.933 0 0 0-.306.227M331.763 855.92a2.467 2.467 0 0 0-.356.619 2.555 2.555 0 0 0-.141.692M331.266 857.231a.796.796 0 0 0 .076.37M336.844 774.834l-4.549-1.353M337.132 773.38l-5.2-1.547M337.176 771.788l-4.016-1.196M332.137 773.345a.27.27 0 0 0 .158.135M333.16 770.59a.293.293 0 0 0-.213.023M332.146 773.36l-.313-.516M332.96 770.61l-.547.26M331.823 772.833l.008.01M332.413 770.87l-.007.003M332.407 770.873a.899.899 0 0 0-.286.25M332.12 771.124a2.259 2.259 0 0 0-.31.64 2.444 2.444 0 0 0-.089.705M331.723 772.468a.748.748 0 0 0 .1.364" style="fill:none;stroke:#00ff4a;stroke-width:.666665;stroke-linecap:round;stroke-linejoin:round;stroke-miterlimit:2;stroke-dasharray:none;stroke-opacity:1;visibility:visible" visibility="hidden"/><path d="m355.57 730.485-5.45-.747M351.526 731.332l-1.406-1.594" style="fill:none;stroke:#00ff4a;stroke-width:.999997;stroke-linecap:round;stroke-linejoin:round;stroke-miterlimit:4;stroke-dasharray:none;stroke-opacity:1;visibility:visible" visibility="hidden"/><path d="m332.836 855.464 3.367 4.506M331.766 858.286l4.834.252M331.766 858.286l4.994-1.332M333.16 770.592l3.684 4.242M332.295 773.481l4.837-.101M332.295 773.481l4.881-1.693" style="fill:none;stroke:#00ff4a;stroke-width:.666665;stroke-linecap:round;stroke-linejoin:round;stroke-miterlimit:2;stroke-dasharray:none;stroke-opacity:1;visibility:visible" visibility="hidden"/><path d="m438.167 749.229-.199-.08-.2-.107-.2-.146-.186-.16-.171-.186-.161-.212-.158-.225-.132-.25-.121-.253-.107-.28-.077-.277-.068-.293-.05-.292-.029-.292v-.292l.015-.278.039-.265.054-.265.076-.254.092-.225.11-.212.132-.185.146-.159.159-.133.175-.12.182-.079.187-.055.2-.01h.199l.2.037.197.07.199.091.198.134.187.144.185.173.175.199.156.225.148.239.133.252.106.266.093.278.077.292.055.292.039.292.013.292v.277l-.027.28-.052.263-.069.268-.077.225-.106.225-.12.199-.145.173-.145.146-.174.132-.176.094-.181.066-.2.04h-.2l-.2-.027-.196-.052" style="fill:none;stroke:#9500ff;stroke-width:.999997;stroke-linecap:round;stroke-linejoin:round;stroke-miterlimit:4;stroke-dasharray:none;stroke-opacity:1;visibility:visible"/><path d="m440.235 746.774-.107-.277-.077-.282-.067-.278-.053-.292-.013-.292M438.776 746.878l-.083.013-.076.014h-.092l-.081-.014-.092-.025-.096-.025-.076-.043-.081-.039-.158-.094-.136-.119-.117-.132-.107-.159-.065-.158-.067-.174-.028-.172v-.172l.015-.173.037-.173.068-.17.082-.174.106-.159.131-.16.133-.133.144-.118.095-.066.093-.068.091-.055.083-.037.088-.052.096-.028.08-.039.094-.013M439.638 744.81v.225l-.013.118v.12l-.015.105-.01.123-.03.118-.015.107-.05.196-.055.2-.061.161-.082.158-.038.078-.055.068-.068.066-.052.066-.08.055-.077.052-.08.04-.08.012M443.459 712.042l-12.39-3.847M436.986 879.7l6.472-167.657M438.763 726.237l-.2-.08-.199-.105-.197-.134-.187-.158-.173-.187-.172-.21-.147-.226-.132-.255-.132-.264-.106-.266-.082-.288-.064-.294-.054-.29-.015-.295-.01-.29.01-.278.044-.28.05-.265.08-.252.095-.24.119-.211.132-.185.145-.175.162-.132.17-.117.171-.082.203-.052.196-.028h.2l.2.028.21.066.202.094.196.131.186.147.186.173.172.197.158.227.148.225.13.266.109.265.092.279.079.292.053.292.043.289.012.293v.292l-.026.279-.054.277-.068.252-.078.24-.108.227-.129.197-.136.187-.159.145-.156.135-.188.104-.186.068-.186.039-.197.013-.215-.027-.197-.053M434.664 842.196l-.2-.068-.199-.027-.184-.013-.186.027-.187.054-.173.08-.159.104-.144.134-.133.16-.122.172-.104.212-.08.212-.066.238-.039.254-.027.264v.278l.014.28.024.279.054.277.079.28.09.263.107.265.135.254.135.238.157.214.175.212.17.172.186.158.185.134.199.105.2.079.185.054.2.015h.183l.188-.041.186-.067.159-.093.159-.118.144-.148.121-.172.105-.185.096-.213.076-.224.055-.252.04-.251.01-.28v-.279l-.023-.278-.052-.279-.067-.279-.083-.278-.106-.267-.106-.25-.144-.253-.146-.226-.162-.212-.17-.184-.172-.174-.2-.146-.186-.119-.197-.092M433.602 863.712l-.2-.067-.196-.026-.187-.014-.186.014-.184.053-.175.081-.157.104-.147.122-.133.157-.12.175-.092.197-.092.225-.052.227-.055.252-.027.265v.264l.014.279.041.279.052.278.08.267.079.279.12.264.12.24.144.237.145.225.175.2.172.186.184.16.188.13.184.11.198.078.2.052.2.026.184-.014.187-.028.172-.062.159-.094.161-.106.132-.146.13-.173.109-.185.093-.2.079-.226.05-.252.042-.25.014-.266-.014-.278-.027-.266-.039-.293-.066-.277-.078-.266-.109-.266-.117-.264-.135-.24-.144-.226-.16-.212-.172-.198-.173-.172-.186-.147-.198-.117-.187-.095M442.636 710.635l-.156.028-.188.027-.199.013h-.428l-.209-.013-.213-.014-.196-.026-.2-.027-.187-.039-.16-.042-.145-.04-.107-.051-.09-.053-.069-.052-.037-.07v-.052l.024-.052.052-.053.081-.041.107-.052.13-.028.162-.039.17-.025.187-.014.212-.013h.427l.212.013.21.026.197.026.189.026.173.041.144.053.134.04.106.052.08.054.052.052.011.068v.053l-.037.053-.067.051-.107.041-.121.04-.144.039M431.068 708.196l-.065-.027-.055-.025-.025-.028-.014-.041M444.268 712.084l3.636-.759M444.268 712.084l-.105.012-.107.013h-.132l-.135-.013-.12-.012-.118-.015-.092-.026M448.076 711.235l-.013.027-.026.024-.068.029-.065.01" style="fill:none;stroke:#9500ff;stroke-width:.999997;stroke-linecap:round;stroke-linejoin:round;stroke-miterlimit:4;stroke-dasharray:none;stroke-opacity:1;visibility:visible"/><path d="m435.366 867.48-.157-.039-.162-.012-.157-.014h-.132l-.135.026-.105.026-.105.041-.08.067-.08.068-.052.064-.055.08-.028.078-.024.092v.163l.013.079.039.09.041.082.066.08.08.052.105.065.107.041.13.039.147.015M435.06 844.967l-.065.013-.079.014h-.145l-.162-.04-.158-.054-.134-.078-.129-.092-.107-.107-.106-.121-.094-.132-.054-.132-.051-.146-.025-.161-.016-.145.016-.159.037-.145.052-.159.068-.16.092-.16.12-.132.12-.132.13-.133.162-.12.17-.107.162-.092M435.897 843.335l-.028.2-.024.2-.04.172-.04.175-.055.142-.052.146-.066.12-.066.12-.093.12-.107.093-.068.052-.052.041-.065.026-.081.026M440.847 723.849l-.093-.252-.082-.253-.065-.264-.053-.264-.026-.267-.013-.263" style="fill:none;stroke:#9500ff;stroke-width:.999997;stroke-linecap:round;stroke-linejoin:round;stroke-miterlimit:4;stroke-dasharray:none;stroke-opacity:1;visibility:visible"/><path d="m431.097 707.984 3.62-.744M425.14 874.75l11.847 4.948M447.917 711.113l-12.39-3.833M434.716 707.24l.105-.012.119-.016h.12l.133.016.122.012.118.015.091.025M430.91 708.075l.013-.025.039-.027.055-.027.081-.012M447.917 711.113l.065.028.055.025.039.027v.041M441.258 878.664l.079-.025.054-.042.026-.038.013-.04M437.768 879.737l3.49-1.073M436.986 879.7l.092.027.105.025.122.012.132.013.118-.013.107-.012.107-.015M424.992 874.615l5.916-166.54M424.992 874.615l.016.028.025.04.05.041.054.027M441.43 878.518l6.644-167.282" style="fill:none;stroke:#9500ff;stroke-width:1.99999;stroke-linecap:round;stroke-linejoin:round;stroke-miterlimit:4;stroke-dasharray:none;stroke-opacity:1;visibility:visible"/><path d="m425.983 835.938-4.644-.973M426.154 834.462l-5.312-1.115M426.066 832.873l-4.107-.863M421.17 834.842a.283.283 0 0 0 .169.121M421.959 832.011a.285.285 0 0 0-.205.04M421.178 834.854l-.356-.49M421.763 832.049l-.525.304M420.815 834.357l.008.008M421.239 832.353l-.005.002M421.235 832.357a.883.883 0 0 0-.265.273M420.97 832.63a2.37 2.37 0 0 0-.255.664 2.42 2.42 0 0 0-.032.708M420.683 834.002a.787.787 0 0 0 .133.355M428.283 756.054l-4.645-.972M428.452 754.58l-5.31-1.114M428.364 752.988l-4.106-.86M423.47 754.958a.275.275 0 0 0 .168.124M424.259 752.129a.28.28 0 0 0-.207.039M423.476 754.972l-.356-.492M424.062 752.165l-.526.305M423.114 754.474s.002.004.008.007M423.538 752.469l-.006.005M423.532 752.474a.867.867 0 0 0-.264.276M423.268 752.748a2.32 2.32 0 0 0-.253.662 2.373 2.373 0 0 0-.033.707M422.982 754.118a.821.821 0 0 0 .132.356" style="fill:none;stroke:#9500ff;stroke-width:.666665;stroke-linecap:round;stroke-linejoin:round;stroke-miterlimit:2;stroke-dasharray:none;stroke-opacity:1;visibility:visible"/><path d="m428.364 752.988 9.803-3.759M438.777 746.878l.08-2.917M447.917 711.113l-9.154 15.124M443.459 712.042l-4.696 14.195M425.14 874.75l8.462-11.038M425.137 874.751l8.465-11.039M444.268 712.084l-1.632-1.449M447.904 711.325l-5.268-.69M436.986 879.7l-1.62-12.22M430.91 708.075l9.937 15.774M448.076 711.234l-7.561 11.052" style="fill:none;stroke:#9500ff;stroke-width:.999997;stroke-linecap:round;stroke-linejoin:round;stroke-miterlimit:4;stroke-dasharray:none;stroke-opacity:1;visibility:visible"/><path d="m421.959 832.01 4.024 3.928M421.339 834.965l4.815-.503M421.339 834.965l4.727-2.092M424.258 752.128l4.025 3.926M423.638 755.082l4.814-.502M423.638 755.082l4.726-2.094" style="fill:none;stroke:#9500ff;stroke-width:.666665;stroke-linecap:round;stroke-linejoin:round;stroke-miterlimit:2;stroke-dasharray:none;stroke-opacity:1;visibility:visible"/><path d="m380.478 925.474-8.269 13.51" style="fill:none;stroke:red;stroke-width:.999997;stroke-linecap:round;stroke-linejoin:round;stroke-miterlimit:4;stroke-dasharray:none;stroke-opacity:1;visibility:visible" visibility="hidden"/></svg>