<svg xmlns="http://www.w3.org/2000/svg" baseProfile="full" height="1122.52" preserveAspectRatio="xMinYMin meet" style="width:765px;height:943px" width="793.701" xml:space="preserve"><path d="m138.96 370.109 56.368-18.821M190.584 349.72l-.192-.1-.172-.121-.147-.102-.117-.114-.088-.131-.06-.12-.015-.13.015-.114.045-.132.072-.119.103-.105.145-.112.162-.104.188-.088.221-.088.235-.07.26-.06.276-.06.28-.045.306-.028.307-.014h.627l.304.03.309.03.304.042.28.06.276.072.25.088.246.086.207.089.186.103.163.114.132.119.103.116.056.117.042.131v.119l-.012.129-.057.117-.103.118-.117.116-.147.104-.177.098-.201.092-.235.071-.247.07-.262.06-.279.045-.305.045-.307.013-.305.015h-.323l-.307-.015-.305-.03-.307-.044-.292-.056-.292-.059-.261-.075-.235-.085-.233-.088M190.903 344.876l-.201-.104-.179-.103-.13-.116-.118-.117-.088-.117-.056-.116-.015-.131.015-.117.043-.118.073-.114.103-.119.13-.103.16-.102.192-.086.219-.089.23-.072.266-.057.263-.059.29-.045.308-.031.306-.01h.306l.306.01.308.017.305.03.308.044.277.057.276.075.247.07.235.09.205.101.192.104.159.101.13.115.103.116.057.135.046.114v.116l-.015.132-.059.116-.089.118-.13.102-.146.102-.175.102-.205.09-.219.07-.248.072-.262.06-.291.042-.293.032-.291.029-.323.013h-.304l-.322-.028-.308-.014-.291-.043-.29-.059-.28-.06-.262-.072-.248-.089-.22-.084M155.818 361.262l-.219-.097-.249-.095-.276-.07-.28-.06-.29-.057-.305-.045-.322-.028-.322-.012h-.32l-.321.012-.308.017-.305.043-.291.044-.279.057-.262.072-.235.088-.201.09-.192.1-.162.116-.128.12-.104.113-.073.132-.028.12v.13l.028.13.06.133.099.115.117.119.163.112.188.121.205.103.233.085.263.088.277.072.292.061.307.04.308.03.319.03.321.015.324-.015.317-.013.31-.03.289-.045.295-.056.261-.06.247-.089.234-.084.204-.09.162-.117.145-.104.117-.129.088-.115.043-.134.03-.116-.015-.13-.058-.133-.073-.13-.119-.118-.144-.115-.176-.118-.189-.103M143.222 360.592l-.216-.103-.252-.088-.263-.069-.289-.076-.29-.047-.31-.042-.323-.028-.304-.014h-.642l-.32.028-.31.046-.288.042-.277.059-.264.073-.235.088-.218.087-.19.101-.16.103-.132.117-.102.131-.075.117-.027.131-.014.132.029.13.073.117.09.13.129.118.147.118.186.102.208.102.232.1.263.074.261.074.294.058.304.06.324.028.306.013.32.017h.323l.319-.017.322-.028.291-.044.293-.057.262-.076.248-.07.234-.089.204-.103.174-.101.146-.113.118-.122.089-.114.043-.131.03-.13-.017-.134-.056-.119-.076-.13-.099-.114-.149-.12-.172-.113-.192-.104" style="fill:none;stroke:red;stroke-width:.999997;stroke-linecap:round;stroke-linejoin:round;stroke-miterlimit:4;stroke-dasharray:none;stroke-opacity:1;visibility:visible"/><path d="m192.057 350.098-.101-.147-.132-.13-.116-.102-.131-.088-.132-.072-.132-.044-.13-.028-.149-.018-.13.018-.146.028-.145.059-.132.088M152.782 363.26l-.116-.172-.132-.16-.13-.117-.147-.104-.148-.075-.143-.056-.16-.028h-.148l-.161.015-.158.041-.077.028-.084.047-.075.057-.07.059M114.808 180.274l13.37 5.05M114.808 180.274l-.059-.03-.057-.029-.03-.045v-.028M129.123 185.368l-.13.012-.133.015h-.305l-.13-.015-.133-.027-.116-.029M133.518 184.316l-4.393 1.053M133.75 184.171l-.015.044-.041.044-.075.028-.101.028M127.592 183.44l.19-.041.147-.06.118-.058.098-.074.062-.072.014-.074v-.073l-.045-.073-.088-.071-.101-.073-.146-.06-.161-.058-.19-.058-.205-.043-.233-.03-.233-.03-.251-.013h-.481l-.246.013-.22.03-.204.045-.189.041-.175.045-.132.058-.101.074-.09.059-.029.07-.013.09.028.073.061.072.086.058.13.074.148.058.174.06.205.041.219.044.232.03.252.015.246.015h.231l.252-.015.23-.014.22-.031.19-.044M128.176 185.324l-3.008 188.62M249.94 461.047l.365-7.925M250.829 452.288l15.648-6.245M250.829 452.288l-139.744-84.545M250.305 453.122l.015-.145.041-.146.076-.144.087-.133.086-.117.116-.088.104-.06M250.1 461.456l-.075-.073-.057-.087-.028-.12v-.13M266.477 446.043l.103-.028h.097l.092.028M257.18 454.243l.013.223.016.218.056.19.076.174.1.131.116.12.15.085.145.058.173.017.178-.017.172-.058.193-.074.188-.112.175-.15.176-.16.157-.204.135-.206.132-.216.117-.248.07-.234.074-.248.028-.234.015-.234-.015-.22-.041-.202-.06-.176-.088-.16-.118-.131-.13-.103-.146-.073-.16-.03h-.176l-.173.03-.192.073-.173.084-.191.132-.175.163-.16.175-.148.205-.146.219-.115.233-.087.23-.088.253-.044.248-.029.229M252.201 456.247v.185l.03.194.058.161.075.13.102.103.114.086.148.046h.146l.144-.017.16-.056.162-.088.161-.119.145-.146.146-.172.117-.178.1-.205.09-.203.057-.218.032-.207.014-.205-.014-.187-.047-.16-.07-.148-.089-.13-.102-.086-.131-.059-.132-.03h-.159l-.162.042-.16.075-.159.101-.145.132-.15.16-.13.178-.118.186-.085.207-.073.219-.046.201-.029.208M262.796 451.983v.192l.032.188.057.16.075.13.101.103.116.075.131.044.147.012.145-.012.159-.06.162-.087.162-.117.144-.145.129-.16.121-.19.102-.204.085-.205.057-.203.047-.206v-.203l-.012-.192-.044-.173-.059-.146-.09-.118-.103-.088-.132-.074-.13-.014h-.158l-.15.042-.16.075-.158.103-.16.132-.133.145-.132.173-.118.191-.086.205-.071.22-.044.206-.032.201M373.236 403.937l-.57 7.475M373.715 403.162l13.59-5.427M373.715 403.162 238.33 352.579M326.984 378.443l.09-.059.075-.06.04-.073.018-.07-.028-.074-.064-.075-.068-.073-.12-.072-.131-.059-.16-.044-.159-.041-.193-.028-.172-.019h-.193l-.172.019-.16.028-.148.041-.114.044-.104.059-.073.06-.045.07v.073l.017.074.056.075.085.073.104.072.131.059.159.044.177.041.177.015.176.013h.366l.158-.028.143-.041.132-.044M322.257 376.338l.115-.073.09-.056.04-.088.035-.074-.017-.088-.047-.089-.084-.073-.104-.071-.13-.07-.149-.062-.17-.06-.195-.043-.199-.028-.205-.013h-.195l-.2.013-.174.028-.178.031-.144.043-.129.057-.092.076-.075.07-.028.074-.013.09.03.087.058.072.103.088.113.074.148.057.159.056.178.047.206.041.188.016.204.017h.205l.19-.033.175-.03.159-.038.132-.048M373.236 403.937l.017-.144.039-.132.059-.133.074-.115.09-.103.102-.088.098-.061M372.853 411.834l-.068-.045-.063-.074-.038-.088-.019-.1v-.114M387.305 397.735l.076-.03h.067l.062.015M383.976 403.237l-.01.19.03.16.027.163.074.131.07.103.101.072.12.042.115.016.129-.016.15-.042.13-.072.132-.12.13-.131.131-.145.102-.175.104-.176.074-.205.056-.187.03-.207.016-.173v-.19l-.027-.16-.064-.133-.056-.116-.103-.104-.102-.057-.114-.03h-.133l-.13.03-.131.073-.15.088-.129.116-.133.146-.119.164-.097.173-.09.19-.057.203-.056.191-.02.188M374.68 406.973v.192l.033.159.028.158.07.132.074.106.1.073.122.041.116.015.148-.015.129-.041.143-.073.132-.12.13-.128.136-.148.099-.176.101-.188.075-.188.057-.207.046-.19.014-.19-.014-.176-.028-.157-.058-.148-.073-.118-.087-.086-.104-.074-.118-.029h-.132l-.142.048-.136.055-.142.086-.134.118-.129.148-.121.173-.102.176-.085.188-.073.192-.042.201-.033.191" style="fill:none;stroke:red;stroke-width:.999997;stroke-linecap:round;stroke-linejoin:round;stroke-miterlimit:4;stroke-dasharray:none;stroke-opacity:1;visibility:visible"/><path d="m130.686 362.33 64.332-21.135M145.617 374.064l49.22-16.584M119.288 178.974l-4.396 1.023M120.22 179.019l13.37 5.02" style="fill:none;stroke:red;stroke-width:1.99999;stroke-linecap:round;stroke-linejoin:round;stroke-miterlimit:4;stroke-dasharray:none;stroke-opacity:1;visibility:visible"/><path d="m125.169 373.944-12.784-6.287M130.278 372.575l-4.204 1.399M125.169 373.944l.103.03.118.045.144.014h.278l.13-.014.132-.046" style="fill:none;stroke:red;stroke-width:.999997;stroke-linecap:round;stroke-linejoin:round;stroke-miterlimit:4;stroke-dasharray:none;stroke-opacity:1;visibility:visible"/><path d="m114.66 180.142.016-.045.043-.043.074-.028.099-.03M133.59 184.039l.075.028.041.03.028.045.016.029M119.288 178.974l.113-.015.148-.013h.292l.146.013.116.03.117.03M112.239 367.48l2.421-187.338M130.512 372.382l3.237-188.21M266.946 446.469l-.41 7.85M110.59 368.49l-.087 7.296M250.407 461.456l15.616-6.305M112.239 367.365l-1.152.377M250.407 461.456l-.1.028h-.12l-.085-.028M266.535 454.318l-.017.148-.04.144-.063.147-.084.132-.101.102-.106.103-.102.057M266.768 446.043l.076.076.057.087.027.114.019.148M111.085 367.743l-.103.044-.101.085-.101.104-.074.119-.06.115-.041.146-.016.134M110.5 375.786l.016.132.028.103.059.085.074.073L250.1 461.456M130.628 365.16l136.138 80.884M387.118 405.574l.565-7.427M373.06 411.82l-.075.028h-.066l-.064-.015M373.06 411.82l13.575-5.488M387.118 405.574l-.033.13-.04.134-.058.13-.073.114-.093.12-.084.072-.102.059M387.511 397.72l.068.043.047.074.045.086.012.102v.122M252.06 347.737l135.45 49.984M226.35 356.525l146.504 55.308" style="fill:none;stroke:red;stroke-width:1.99999;stroke-linecap:round;stroke-linejoin:round;stroke-miterlimit:4;stroke-dasharray:none;stroke-opacity:1;visibility:visible"/><path d="m192.445 344.377 1.13-.33M140.285 361.595l1.13-.33" style="fill:none;stroke:red;stroke-width:.666665;stroke-linecap:round;stroke-linejoin:round;stroke-miterlimit:4;stroke-dasharray:none;stroke-opacity:1;visibility:visible"/><path d="M327.711 378.734a.267.267 0 0 0 .09-.184M327.366 378.934a1.01 1.01 0 0 0 .344-.2M326.942 379.029a1.96 1.96 0 0 0 .424-.095M326.373 379.037c.192.013.384.012.567-.01M325.813 378.949c.187.048.373.074.56.088M325.414 378.797c.124.066.263.12.4.152M325.097 378.55a.905.905 0 0 0 .317.245M325.034 378.357a.277.277 0 0 0 .063.193M164.948 349.569l-1.402-.669M167.053 349.015l-3.599-1.718M169.338 348.491l-4.554-2.176M163.416 348.75a.267.267 0 0 0 .133.15M164.784 346.315a.27.27 0 0 0-.2-.01M163.424 348.763l-.222-.53M164.596 346.303l-.548.167M163.2 348.223c-.002.002 0 .003.002.01M164.046 346.469h-.01M164.036 346.47a.793.793 0 0 0-.303.19M163.733 346.66a2.305 2.305 0 0 0-.388.56 2.544 2.544 0 0 0-.19.646M163.156 347.865a.805.805 0 0 0 .044.358M111.778 317.175l-4.437-1.684M112.173 315.746l-5.073-1.928M112.333 314.162l-3.921-1.49M107.19 315.343a.287.287 0 0 0 .148.148M108.41 312.671a.29.29 0 0 0-.206.007M107.198 315.358l-.272-.54M108.213 312.677l-.567.22M106.916 314.809s.002.008.01.009M107.648 312.895l-.008.005M107.641 312.9a.927.927 0 0 0-.304.228M107.338 313.129a2.467 2.467 0 0 0-.356.617 2.544 2.544 0 0 0-.14.693M106.84 314.44a.797.797 0 0 0 .077.368M112.418 232.042l-4.548-1.352M112.706 230.589l-5.198-1.55M112.75 228.994l-4.017-1.196M107.712 230.552a.28.28 0 0 0 .157.137M108.733 227.798a.279.279 0 0 0-.21.023M107.72 230.566l-.312-.516M108.533 227.816l-.543.26M107.397 230.04l.01.009M107.986 228.077l-.006.003M107.981 228.08a.896.896 0 0 0-.287.25M107.694 228.332a2.256 2.256 0 0 0-.397 1.344M107.297 229.676a.779.779 0 0 0 .1.364" style="fill:none;stroke:red;stroke-width:.666665;stroke-linecap:round;stroke-linejoin:round;stroke-miterlimit:2;stroke-dasharray:none;stroke-opacity:1;visibility:visible"/><path d="m130.278 372.575 8.682-2.466M192.445 344.377l2.883 6.91M143.222 360.592l12.596.67M143.222 360.592l12.596.67M155.818 361.262l-12.596-.67M155.818 361.262l-12.596-.67M133.518 184.316l-5.926-.876M129.125 185.37l-1.533-1.93M266.947 446.468l-9.767 7.775M250.305 453.122l6.875 1.121M249.94 461.047l2.261-4.8M266.535 454.318l-14.334 1.929M266.535 454.318l-3.739-2.335M266.535 454.318l-3.739-2.335M327.366 378.934l-5.109-2.596M387.118 405.574l-3.142-2.337M387.683 398.147l-3.707 5.09M372.665 411.412l2.015-4.439M387.118 405.574l-12.438 1.399" style="fill:none;stroke:red;stroke-width:.999997;stroke-linecap:round;stroke-linejoin:round;stroke-miterlimit:4;stroke-dasharray:none;stroke-opacity:1;visibility:visible"/><path d="m130.278 372.575.408-10.245M192.445 344.377l2.573-3.182M141.416 361.264l4.201 12.8M192.445 344.377l2.392 13.103M125.169 373.944l5.459-8.784" style="fill:none;stroke:red;stroke-width:1.99999;stroke-linecap:round;stroke-linejoin:round;stroke-miterlimit:4;stroke-dasharray:none;stroke-opacity:1;visibility:visible"/><path d="m195.018 341.195-2.573 3.182M130.278 372.575l10.007-10.98M138.96 370.109l2.456-8.845" style="fill:none;stroke:red;stroke-width:.666665;stroke-linecap:round;stroke-linejoin:round;stroke-miterlimit:4;stroke-dasharray:none;stroke-opacity:1;visibility:visible"/><path d="m163.454 347.297 1.494 2.272M163.546 348.9l3.507.115M163.546 348.9l5.792-.409M108.412 312.672l3.366 4.503M107.341 315.491l4.832.255M107.341 315.491l4.992-1.329M108.733 227.798l3.685 4.244M107.87 230.69l4.836-.101M107.87 230.69l4.88-1.696" style="fill:none;stroke:red;stroke-width:.666665;stroke-linecap:round;stroke-linejoin:round;stroke-miterlimit:2;stroke-dasharray:none;stroke-opacity:1;visibility:visible"/><path d="m332.257 323.594 12.37-192.942-15.278-4.655" style="fill:none;stroke:#00ff4a;stroke-width:.999997;stroke-linecap:round;stroke-linejoin:round;stroke-miterlimit:4;stroke-dasharray:none;stroke-opacity:1;visibility:visible"/><path d="m334.223 226.729-.13-.03h-.149l-.113.03-.135.059-.1.104-.085.114-.073.146-.047.16-.03.174v.178l.03.189.047.19.073.173.085.161.12.148.115.115.13.089.131.073.148.03h.131l.13-.03.117-.058.118-.087.086-.132.073-.132.047-.16.01-.173v-.192l-.01-.19-.062-.176-.058-.174-.102-.162-.102-.145-.116-.13-.131-.089-.148-.073M338.852 140.516l-.25-.056-.263-.03-.243.013-.235.045-.234.072-.222.117-.216.148-.19.174-.175.204-.161.233-.13.248-.118.277-.088.294-.074.32-.029.324-.015.333.015.335.03.336.057.336.09.336.112.321.135.321.159.291.177.279.187.262.206.219.216.203.232.177.254.145.245.118.25.07.25.046.244.014.253-.03.232-.058.228-.086.222-.135.208-.157.169-.19.177-.22.15-.248.129-.262.103-.278.074-.306.058-.322.012-.336.018-.334-.03-.336-.058-.336-.074-.351-.103-.319-.12-.322-.143-.308-.158-.291-.195-.263-.204-.246-.199-.219-.234-.192-.235-.159-.25-.117-.246-.104M330.565 309.525l-.205-.06-.206-.056-.222-.057-.2-.031h-.176l-.178.015-.142.044-.131.042-.103.072-.09.102-.075.102-.04.104-.03.118-.014.116.015.117.029.101.056.132.073.098.106.105.13.087.159.061.177.056.103.017.103.012h.198M345.58 130.695l3.957-.919M349.708 129.66l-.01.028-.03.028-.061.03-.07.03M329.35 125.997l-.085-.03-.063-.029-.04-.045-.017-.028M345.58 130.695l-.103.015-.148.016h-.29l-.148-.016-.131-.031-.132-.027M335.467 126.914l.028.059.056.058.105.06.114.043.165.057.17.031.195.043.198.03.206.014.223.016h.403l.196-.03.17-.016.148-.042.114-.046.092-.044.056-.041.03-.059M340.706 128.141l-.161.044-.131.059-.101.057-.063.059-.03.058v.072l.046.062.075.069.102.075.131.058.16.059.188.057.223.044.216.044.234.03.246.029.25.015h.495l.219-.015.22-.03.189-.029.177-.044.143-.044.103-.057.092-.059.038-.058.018-.059-.028-.072-.047-.075-.103-.057-.113-.073-.15-.059-.175-.057-.2-.044-.222-.044-.236-.044-.232-.03-.245-.014-.25-.014h-.246l-.233.014-.223.014-.205.03-.171.029" style="fill:none;stroke:#00ff4a;stroke-width:.999997;stroke-linecap:round;stroke-linejoin:round;stroke-miterlimit:4;stroke-dasharray:none;stroke-opacity:1;visibility:visible"/><path d="m340.21 141.539-.044.321-.017.32v.338l.033.334.056.336.076.322.101.321.115.32.15.292.169.279.176.261M204.988 154.572l15.281 5.239M221.29 159.855l-.13.03h-.147l-.159.014-.163-.015-.145-.014-.145-.03-.132-.029M225.83 158.79l-4.54 1.065M226.046 158.644l-.013.044-.043.044-.06.028-.099.03M204.988 154.572l-.088-.044-.057-.028-.03-.047-.014-.028M214.183 155.799l-.088.056-.103.045-.145.059-.16.03-.205.029-.206.029h-.45l-.232-.013-.222-.016-.218-.03-.188-.045-.178-.043-.144-.058-.132-.058-.088-.073-.041-.059-.016-.072.016-.058M216.692 156.98l.205-.045.234-.028.248-.03.248-.013h.262l.28.013.262.03.248.028.248.032.218.058.204.056.176.06.146.071.117.073.07.075.046.07v.089l-.028.073-.073.073-.103.06-.133.058-.174.058-.19.044-.22.042-.234.016-.246.03h-.54l-.262-.03-.262-.016-.251-.042-.23-.044-.207-.058-.19-.058-.16-.06-.13-.073-.104-.073-.056-.088-.018-.071.018-.075.042-.073.088-.07.118-.06.16-.057.173-.045M220.269 159.811l-7.501 204.925M218.72 156.061l117.549-27.292M325.261 141.13l-.235.073-.241.104-.235.147-.236.156-.221.207-.199.232-.208.249-.174.277-.176.291-.144.307-.13.321-.104.321-.092.336-.068.338-.026.334-.02.335.02.323.026.32.058.292.086.278.103.244.13.238.147.202.16.175.19.147.192.116.217.088.217.044.223.016.233-.03.247-.06.232-.088.233-.13.234-.146.217-.19.221-.218.207-.233.188-.264.175-.277.16-.306.144-.308.118-.334.088-.322.071-.334.059-.338.028-.334v-.335l-.028-.31-.04-.303-.075-.295-.084-.261-.12-.248-.13-.219-.162-.19-.175-.16-.189-.131-.204-.103-.216-.06-.224-.027h-.232l-.236.043M228.85 164.059l.265-.044h.248l.262.016.234.072.234.101.217.132.19.159.189.207.162.233.131.248.117.277.071.307.075.307.029.336v.35l-.015.35-.044.352-.073.348-.103.352-.13.348-.147.322-.159.322-.192.306-.201.278-.235.245-.233.233-.248.194-.248.173-.265.132-.262.101-.262.06-.264.03-.26-.016-.248-.046-.235-.086-.22-.103-.219-.159-.188-.174-.164-.22-.158-.234-.118-.278-.101-.276-.072-.323-.045-.319-.028-.336.014-.35.028-.352.059-.364.09-.351.115-.352.131-.335.161-.32.174-.306.205-.291.22-.261.233-.25.232-.218.264-.176.248-.147.262-.116.277-.088M314.885 314.035l-.216.059-.235.029h-.221l-.199-.045-.194-.074-.187-.086-.177-.131-.144-.16-.13-.19-.12-.22-.086-.234-.074-.263-.045-.261-.03-.29v-.31l.03-.308.045-.319.074-.321.086-.305.12-.322.13-.293.16-.307.176-.274.172-.264.205-.232.207-.222.216-.189.234-.175.222-.13.233-.118.233-.073.218-.044.233-.013.204.028.207.057.186.073.178.116.16.147.142.177.122.204.102.218.084.248.056.277.036.279.011.29-.01.307-.037.32-.068.308-.072.32-.102.307-.134.321-.146.29-.16.295-.178.264-.188.244-.204.234-.206.206-.232.175-.218.16-.234.117-.235.103M221.86 345.223l.248-.084.263-.15.248-.16.233-.187.233-.223.22-.245.22-.263.188-.292.159-.305.163-.308.132-.319.102-.339.084-.336.062-.321.028-.333.014-.32-.029-.308-.043-.292-.073-.276-.103-.251-.117-.235-.147-.216-.158-.177-.178-.145-.202-.118-.218-.085-.22-.059-.248-.014-.249.014-.247.059-.262.085-.248.118-.248.145-.247.177-.25.204-.22.234-.218.264-.205.276-.174.292-.161.308-.148.32-.116.333-.1.337-.075.32-.042.339-.016.319v.318l.044.308.057.279.09.263.102.245.13.223.162.188.175.176.189.133.205.101.219.058.233.044h.248l.25-.044.261-.075" style="fill:none;stroke:#00ff4a;stroke-width:.999997;stroke-linecap:round;stroke-linejoin:round;stroke-miterlimit:4;stroke-dasharray:none;stroke-opacity:1;visibility:visible"/><path d="m336.967 322.324.073-.027.047-.032.045-.044.011-.041M333.157 323.638l3.81-1.313M332.257 323.594l.113.044.132.03.148.014.131.015.143-.015.132-.015.101-.029M329.32 125.749l3.956-.905M349.492 129.513l.103.03.056.042.046.03.011.045M334.837 125.076l-.625-.19M349.492 129.513l-10.277-3.11M333.277 124.843l.115-.016.132-.013h.289l.15.013.13.03.12.03M329.144 125.865l.017-.045.028-.03.058-.013.074-.028M337.143 322.18l12.565-192.52M329.087 126.871l.056-1.007M219.066 156.185l6.793 2.313M225.859 158.498l.085.03.06.042.044.045v.028M209.557 153.244l-4.524 1.035M209.557 153.244l.132-.028.145-.016h.159l.163.016.146.015.144.028.118.029M204.799 154.426l.015-.044.042-.043.075-.029.103-.03M218.094 363.278l-4.35 1.488M212.766 364.737l-14.521-6.716M212.766 364.737l.116.043.145.032.148.012.162.016.144-.016.146-.012.116-.046M198.068 357.82l.016.059.03.041.057.059.076.042M218.094 363.278l.088-.047.072-.04.044-.044.015-.06 7.734-204.443M198.068 357.82l6.73-203.393" style="fill:none;stroke:#00ff4a;stroke-width:1.99999;stroke-linecap:round;stroke-linejoin:round;stroke-miterlimit:4;stroke-dasharray:none;stroke-opacity:1;visibility:visible"/><path d="m336.27 128.77-11.897 190.986" style="fill:none;stroke:#00ff4a;stroke-width:.999997;stroke-linecap:round;stroke-linejoin:round;stroke-miterlimit:4;stroke-dasharray:none;stroke-opacity:1;visibility:visible"/><path d="m214.678 154.695 3.828 1.3M324.128 320.178l-105.552 35.963M330.376 126.571l-115.161 26.504" style="fill:none;stroke:#00ff4a;stroke-width:1.99999;stroke-linecap:round;stroke-linejoin:round;stroke-miterlimit:4;stroke-dasharray:none;stroke-opacity:1;visibility:visible"/><path d="M212.647 149.066a.79.79 0 0 0-.282.152M214.395 150.042a.292.292 0 0 0 .083-.166.273.273 0 0 0-.055-.162M211.997 149.584a.272.272 0 0 0-.074.152.253.253 0 0 0 .064.172M211.986 149.91a1.11 1.11 0 0 0 .367.251M212.353 150.162c.261.102.533.162.817.18.28.019.565-.018.835-.091M214.005 150.25a.977.977 0 0 0 .39-.209M214.097 149.321a.733.733 0 0 0-.26-.19" style="fill:none;stroke:#00ff4a;stroke-width:.666665;stroke-linecap:round;stroke-linejoin:round;stroke-miterlimit:2;stroke-dasharray:none;stroke-opacity:1;visibility:visible"/><path d="M213.835 149.13a1.875 1.875 0 0 0-1.189-.064M212.359 149.218l-.361.364M214.105 149.323l.32.39M211.924 149.734l-.304 5.51M213.188 150.499l-.295 5.313M214.479 149.872l-.321 5.793M201.531 359.93l-.209 3.652c.223 1.241 2.618.89 2.57-.125l.161-2.834M202.807 360.465l-.175 3.045M338.488 121.556a.28.28 0 0 0 .086-.166.253.253 0 0 0-.048-.162M336.102 121.033a.267.267 0 0 0-.077.147.263.263 0 0 0 .057.176M336.083 121.356a1.068 1.068 0 0 0 .36.263M336.443 121.618a2.63 2.63 0 0 0 1.648.136M338.092 121.753a.947.947 0 0 0 .396-.196M338.208 120.825a.743.743 0 0 0-.253-.195M337.954 120.63a1.839 1.839 0 0 0-1.186-.1M336.768 120.53a.827.827 0 0 0-.288.147M336.475 120.676l-.37.355M338.217 120.828l.31.399M336.025 121.178l-.456 5.503M337.268 121.976l-.443 5.307M338.575 121.39l-.463 5.544" style="fill:none;stroke:#00ff4a;stroke-width:.666665;stroke-linecap:round;stroke-linejoin:round;stroke-miterlimit:2;stroke-dasharray:none;stroke-opacity:1;visibility:visible"/><path d="m324.44 144.713 1.635-.528M227.9 168.033l1.635-.53" style="fill:none;stroke:#00ff4a;stroke-width:.666665;stroke-linecap:round;stroke-linejoin:round;stroke-miterlimit:4;stroke-dasharray:none;stroke-opacity:1;visibility:visible"/><path d="m344.628 130.652-5.776 9.864M329.35 125.997l9.502 14.519M332.257 323.594l-1.692-14.069M345.58 130.695l-4.874-2.554M336.269 128.77l4.437-.629M336.825 127.283l3.385 14.256M221.29 159.855l-4.598-2.875M218.72 156.061l-2.028.919M324.44 144.713l.821-3.583M330.376 126.571l-5.115 14.559M225.83 158.79l3.02 5.269M227.9 168.033l.95-3.974M324.128 320.178l-9.243-6.143M218.094 363.278l3.766-18.055M218.576 356.14l3.284-10.917" style="fill:none;stroke:#00ff4a;stroke-width:.999997;stroke-linecap:round;stroke-linejoin:round;stroke-miterlimit:4;stroke-dasharray:none;stroke-opacity:1;visibility:visible"/><path d="m334.837 125.076 4.378 1.326M214.678 154.695l-4.114-1.407M210.564 153.288l4.114 1.407M218.094 363.278l.482-7.137M329.32 125.749l1.056.822M214.005 150.251l1.21 2.824" style="fill:none;stroke:#00ff4a;stroke-width:1.99999;stroke-linecap:round;stroke-linejoin:round;stroke-miterlimit:4;stroke-dasharray:none;stroke-opacity:1;visibility:visible"/><path d="m214.479 149.872-1.586 5.94M202.632 363.51l-1.101-3.58M202.632 363.51l1.421-2.887M198.068 357.82l4.739 2.645M204.053 360.623l-1.42 2.887M336.27 128.77l.555-1.487" style="fill:none;stroke:#00ff4a;stroke-width:.666665;stroke-linecap:round;stroke-linejoin:round;stroke-miterlimit:2;stroke-dasharray:none;stroke-opacity:1;visibility:visible"/><path d="m325.261 141.13-.821 3.583M228.85 164.059l-.95 3.974M225.831 158.79l3.704 8.714" style="fill:none;stroke:#00ff4a;stroke-width:.666665;stroke-linecap:round;stroke-linejoin:round;stroke-miterlimit:4;stroke-dasharray:none;stroke-opacity:1;visibility:visible"/><path d="m198.068 357.82-7.165-12.944M163.454 347.297l-10.672 15.963" style="fill:none;stroke:red;stroke-width:.999997;stroke-linecap:round;stroke-linejoin:round;stroke-miterlimit:4;stroke-dasharray:none;stroke-opacity:1;visibility:visible"/><path d="m212.766 364.737 13.584-8.212" style="fill:none;stroke:red;stroke-width:1.99999;stroke-linecap:round;stroke-linejoin:round;stroke-miterlimit:4;stroke-dasharray:none;stroke-opacity:1;visibility:visible"/></svg>