<svg xmlns="http://www.w3.org/2000/svg" baseProfile="full" height="1122.52" preserveAspectRatio="xMinYMin meet" style="width:765px;height:943px" width="793.701" xml:space="preserve"><path d="m225.802 238.136.238-.311.242-.31.25-.299.258-.3.25-.278.26-.262.246-.248.248-.232.236-.206.233-.192.208-.156.203-.137.192-.11.172-.081.152-.054.137-.02h.114" style="fill:none;stroke:red;stroke-width:1.99999;stroke-linecap:round;stroke-linejoin:round;stroke-miterlimit:4;stroke-dasharray:none;stroke-opacity:1;visibility:visible" visibility="hidden"/><path d="m216.554 231.822-.01-.085-.034-.059-.065-.036-.08-.005-.105.02-.131.043-.149.068-.17.1-.183.12-.204.144-.225.17-.235.19-.252.214-.261.23-.273.242-.284.27-.283.277-.296.29-.29.304-.299.314-.295.321-.295.328-.29.32-.278.332-.276.33-.266.321-.248.324M221.109 439.055l-.036.079-.043.068-.039.06-.045.048-.045.057-.063.05M220.837 439.418l-.13.09-.145.056-.151.027-.16-.008-.157-.039-.152-.058-.152-.079-.136-.108-.124-.104-.113-.127-.112-.137-.095-.152-.085-.155-.066-.166-.052-.18-.04-.178-.027-.169-.007-.18.013-.17.02-.187.032-.176.048-.18.059-.175.073-.18.077-.179.088-.17.098-.17.106-.174.107-.167.116-.165.12-.16.124-.158.132-.165.141-.152.138-.143.13-.128.119-.11.116-.1.103-.074.09-.052.088-.025.066-.008.05.013.04.04.026.06.02.079.013.095.01.109M215.837 240.212l-.283-.066-.297-.085-.315-.123-.324-.142-.337-.168-.348-.191-.35-.21-.361-.225-.358-.26-.364-.272-.355-.288-.355-.3-.35-.312-.343-.332-.322-.33M223.797 233.904l-.242-.027-.23.007-.219.036-.205.082-.179.106-.164.144-.145.17-.124.206-.099.238-.079.255-.054.284-.024.31v.322l.017.344.048.355.073.369.099.375M225.802 238.136l-.14.177-.144.157-.15.152-.158.126-.155.106-.155.087-.166.065-.173.054-.164.026-.158.01-.162-.003-.174-.028-.163-.039-.165-.053-.16-.073-.152-.087-.162-.113-.152-.122-.146-.138-.123-.154-.133-.184-.113-.194-.093-.206-.071-.22M425.642 271.158l.006.283.03.312.054.337.082.36.105.383.133.402.15.422.18.433.19.443.215.453.235.461.248.464.27.46.28.459.287.46M419.844 494.744l.007-.044.009-.066.018-.084.031-.107.021-.105.024-.128.029-.136.02-.155.017-.147.012-.16.016-.172.004-.177v-.376l-.004-.197-.016-.204-.005-.222-.021-.228-.012-.222-.011-.231-.015-.253-.013-.254-.007-.256.007-.245M410.563 272.338l.088.23.099.226.129.211.147.198.153.167.161.164.18.136.192.121.182.102.184.073.19.065.2.049.198.025.193.008.19-.008.195-.035.2-.044.192-.068.192-.092.176-.105.198-.136.182-.155.176-.175.163-.192M418.186 269.545l-.063.008-.077.037-.111.073-.133.1-.154.127-.168.155-.191.178-.209.21-.237.23-.233.257-.251.27-.267.291-.269.313-.268.316-.28.329-.277.327-.274.337M410.563 272.338l-.117-.416-.094-.4-.069-.388-.056-.379-.035-.36v-.337l.023-.313.04-.295.064-.255.088-.23.104-.198.124-.166.153-.131.166-.093.182-.052.199-.019.21.028M420.043 492.552h0M419.447 493.143h0M208.582 219.557l.028.117.05.127.093.115.125.113.157.108.191.107.224.092.245.09.276.079.299.067.313.068.332.044.35.04M211.265 220.722l.365.028.38.019h.38l.385-.01.375-.022.373-.033.357-.051.35-.057.323-.067.307-.077.283-.086.258-.098.225-.108.196-.103.159-.12.125-.119.094-.124.053-.126.017-.126M425.98 258.138l.02.144.06.144.096.144.147.147.183.132.224.131.257.118.3.115.315.105.348.092.378.077.387.067.408.053.419.031.424.028.429.008.43-.008.419-.021.408-.038.396-.049.375-.067.359-.076.32-.085.308-.108.264-.11.228-.119.19-.123.15-.14.117-.137.063-.146.026-.145M410.632 268.614h0M411.546 268.334l.026.004M425.608 270.949h0l.007-.009.013-.003.019-.008M425.642 271.158l.006-.245M419.955 490.575l.02-.837M419.844 494.744h0M424.502 279.206h0M223.797 233.904l.041.012M221.297 434.772v.008M220.773 438.964h0M216.762 240.38l-.924-.167M216.358 240.74h0M221.39 439.135l-.619-.17M224.786 238.985h0" style="fill:none;stroke:red;stroke-width:.999997;stroke-linecap:round;stroke-linejoin:round;stroke-miterlimit:4;stroke-dasharray:none;stroke-opacity:1;visibility:visible" visibility="hidden"/><path d="m425.404 280.32.014-.04.04-.063.067-.089.089-.118.119-.144.149-.164.168-.192.194-.22.207-.236.239-.25.25-.279.27-.289.284-.301.306-.318.306-.329" style="fill:none;stroke:red;stroke-width:.999997;stroke-linecap:round;stroke-linejoin:round;stroke-miterlimit:4;stroke-dasharray:none;stroke-opacity:1;visibility:visible" visibility="hidden"/><path d="m214.675 449.226.016.592M221.626 448.996l.014.592M221.638 449.588l-.007.146-.025.152-.055.142-.065.142-.085.136-.104.138-.13.132-.137.119-.156.123-.173.114-.192.108-.202.095-.225.103-.235.072-.246.077-.254.068-.267.048-.277.05-.283.026-.283.019h-.294l-.285-.008-.287-.024-.28-.034-.226-.04-.21-.045-.212-.053-.203-.06-.193-.074-.216-.096-.211-.106-.193-.114-.162-.126-.126-.106-.106-.112-.096-.11-.082-.12-.068-.129-.053-.141-.03-.135-.012-.147M221.626 448.996h0M214.675 449.226h0M419.532 506.615l-.012.639M427.132 506.936l-.017.642M427.115 507.578l-.016.164-.039.173-.06.164-.085.156-.105.152-.127.148-.144.135-.159.13-.18.133-.201.115-.217.108-.228.094-.254.085-.265.079-.277.058-.276.055-.302.04-.304.019-.308.014-.306-.006-.316-.02-.316-.04-.31-.052-.302-.068-.238-.058-.23-.072-.226-.081-.208-.083-.204-.1-.238-.125-.218-.139-.2-.152-.174-.157-.147-.159-.133-.164-.104-.164-.079-.18-.059-.172-.032-.178-.01-.176" style="fill:none;stroke:red;stroke-width:1.99999;stroke-linecap:round;stroke-linejoin:round;stroke-miterlimit:4;stroke-dasharray:none;stroke-opacity:1;visibility:visible" visibility="hidden"/><path d="M221.869 435.386h0" style="fill:none;stroke:red;stroke-width:.999997;stroke-linecap:round;stroke-linejoin:round;stroke-miterlimit:4;stroke-dasharray:none;stroke-opacity:1;visibility:visible" visibility="hidden"/><path d="M229.442 234.938h0" style="fill:none;stroke:red;stroke-width:1.99999;stroke-linecap:round;stroke-linejoin:round;stroke-miterlimit:4;stroke-dasharray:none;stroke-opacity:1;visibility:visible" visibility="hidden"/><path d="M223.797 233.904h0" style="fill:none;stroke:red;stroke-width:.999997;stroke-linecap:round;stroke-linejoin:round;stroke-miterlimit:4;stroke-dasharray:none;stroke-opacity:1;visibility:visible" visibility="hidden"/><path d="M217.329 232.717h0" style="fill:none;stroke:red;stroke-width:1.99999;stroke-linecap:round;stroke-linejoin:round;stroke-miterlimit:4;stroke-dasharray:none;stroke-opacity:1;visibility:visible" visibility="hidden"/><path d="M425.404 280.32h0M418.186 269.545h0M419.086 493.724h0M216.554 231.822h0" style="fill:none;stroke:red;stroke-width:.999997;stroke-linecap:round;stroke-linejoin:round;stroke-miterlimit:4;stroke-dasharray:none;stroke-opacity:1;visibility:visible" visibility="hidden"/><path d="m216.554 231.822-.268-11.652M221.297 434.78l-4.535-194.401M221.626 448.996l-.235-9.861M214.675 449.226l-6.074-228.946M223.797 233.904l-6.47-1.188M309.405 249.6l-73.23-13.427M230.262 235.089l-.82-.15M305.777 257.015l-89.015-16.635M251.86 443.61l-29.992-8.223M312.846 460.344l-52.721-14.469M251.929 447.562l-30.539-8.428M311.8 464.096l-51.623-14.253" style="fill:none;stroke:red;stroke-width:1.99999;stroke-linecap:round;stroke-linejoin:round;stroke-miterlimit:4;stroke-dasharray:none;stroke-opacity:1;visibility:visible" visibility="hidden"/><path d="M221.297 434.78v.013l.003.026.006.041.019.052.033.064.043.076.058.07.086.088.097.078.112.058.116.041" style="fill:none;stroke:red;stroke-width:.999997;stroke-linecap:round;stroke-linejoin:round;stroke-miterlimit:4;stroke-dasharray:none;stroke-opacity:1;visibility:visible" visibility="hidden"/><path d="m223.84 233.916.182.04.228.07.228.095.219.109.233.142.24.16.232.168.221.185.174.159.172.16.164.168M216.554 231.822l.01.078.015.088.024.085.034.092.046.085.051.084.073.092.08.082.083.066.1.056.1.042.1.034.06.01" style="fill:none;stroke:red;stroke-width:1.99999;stroke-linecap:round;stroke-linejoin:round;stroke-miterlimit:4;stroke-dasharray:none;stroke-opacity:1;visibility:visible" visibility="hidden"/><path d="m226.133 235.372.12.125.117.121.125.115.131.12.156.13.168.126.17.099.06.037" style="fill:none;stroke:red;stroke-width:.999997;stroke-linecap:round;stroke-linejoin:round;stroke-miterlimit:4;stroke-dasharray:none;stroke-opacity:1;visibility:visible" visibility="hidden"/><path d="m427.132 506.936 7.279-247.843M425.648 270.914l.31-11.984M419.975 489.736l5.43-209.416M419.532 506.615l.312-11.87M323.007 260.24l101.495 18.965M418.186 269.545l7.464 1.368M324.467 252.364l76.505 14.03M407.538 267.557l4.009.777M319.573 466.242l99.514 27.484M320.586 462.474l99.388 27.262" style="fill:none;stroke:red;stroke-width:1.99999;stroke-linecap:round;stroke-linejoin:round;stroke-miterlimit:4;stroke-dasharray:none;stroke-opacity:1;visibility:visible" visibility="hidden"/><path d="m425.404 280.32-.008-.12-.01-.12-.033-.117-.041-.106-.054-.11-.06-.101-.078-.092-.077-.076-.093-.081-.1-.067-.103-.049-.115-.046-.13-.029M419.844 494.744l-.006-.128-.02-.136-.05-.137-.058-.136-.06-.097-.069-.082-.074-.072-.085-.074-.096-.06-.096-.043-.144-.055" style="fill:none;stroke:red;stroke-width:.999997;stroke-linecap:round;stroke-linejoin:round;stroke-miterlimit:4;stroke-dasharray:none;stroke-opacity:1;visibility:visible" visibility="hidden"/><path d="m416.091 271.091.153-.144.192-.192.186-.185.176-.163.172-.157.156-.145.148-.127.11-.097.107-.086.097-.072.102-.06.172-.083.056-.025.081-.01.084-.007.101.007M425.98 258.138l.014-.118.032-.12.058-.12.083-.11.097-.108.11-.102.133-.1.151-.1.176-.092.194-.093.202-.085.216-.073.26-.072.264-.072.282-.053.283-.054.33-.044.337-.035.337-.02.345-.002.267-.012.269.012.263.01.311.022.302.038.3.04.287.045.283.058.266.067.258.065.24.08.237.086.213.097.184.087.166.1.152.1.136.103.12.107.104.123.088.126.06.131.034.132.004.12M411.572 268.338l.176.04.212.07.208.096.202.106.225.143.225.165.222.177.217.2.179.167.178.188.17.19" style="fill:none;stroke:red;stroke-width:1.99999;stroke-linecap:round;stroke-linejoin:round;stroke-miterlimit:4;stroke-dasharray:none;stroke-opacity:1;visibility:visible" visibility="hidden"/><path d="m413.786 269.882.149.172.167.164.176.157.169.145.176.127.185.116.188.1.194.087.197.064.196.05.208.028.19.011.119-.01" style="fill:none;stroke:red;stroke-width:1.99999;stroke-linecap:round;stroke-linejoin:round;stroke-miterlimit:4;stroke-dasharray:none;stroke-opacity:1;visibility:visible" visibility="hidden"/><path d="m434.412 259.093.018-.793M425.959 258.929l.023-.792" style="fill:none;stroke:red;stroke-width:.999997;stroke-linecap:round;stroke-linejoin:round;stroke-miterlimit:4;stroke-dasharray:none;stroke-opacity:1;visibility:visible" visibility="hidden"/><path d="m208.582 219.557.013-.107.022-.105.043-.099.067-.098.076-.1.1-.099.114-.091.133-.086.15-.087.162-.087.181-.078.198-.071.221-.077.241-.067.242-.06.257-.052.296-.053.297-.042.308-.03.31-.02.28-.008.27-.007.273.007.273.016.268.02.273.022.264.036.261.046.251.052.244.053.22.064.203.07.197.079.177.074.173.091.155.097.147.11.119.113.093.121.059.109.04.112.017.119" style="fill:none;stroke:red;stroke-width:1.99999;stroke-linecap:round;stroke-linejoin:round;stroke-miterlimit:4;stroke-dasharray:none;stroke-opacity:1;visibility:visible" visibility="hidden"/><path d="m216.285 220.17-.015-.726M208.602 220.28l-.02-.724M230.674 236.21l.008-.062.013-.06.025-.056.04-.058.041-.056.059-.057.063-.053.078-.05.086-.05.094-.048.104-.047.113-.04.127-.044.138-.039.14-.034.147-.03.17-.03.172-.024.178-.018.176-.01.161-.007.155-.003.159.003.154.01.155.012.157.013.153.02.15.026.144.03.14.032.127.036.116.04.113.044.101.045.1.05.089.059.085.062.07.064.05.069.036.064.022.064.011.068M230.674 236.21l.016.067.03.073.052.066.073.066.09.062.11.06.13.055.139.051.158.046.171.037.182.04.19.024.202.023M232.217 236.882l.21.015.216.012h.22l.222-.005.214-.015.216-.017.205-.03.201-.032.185-.038.177-.046.163-.05.147-.054.13-.062.112-.06.092-.07.073-.068.053-.07.03-.074.011-.072M401.856 267.467l.008-.063.014-.061.024-.056.038-.057.044-.056.058-.057.064-.054.077-.049.087-.05.093-.048.104-.046.113-.041.127-.044.139-.039.138-.035.148-.029.171-.03.17-.026.179-.016.176-.01.162-.008.154-.002.159.003.155.01.154.011.158.013.152.02.15.027.144.03.14.032.127.035.116.04.113.046.102.043.098.05.091.06.084.06.07.065.05.07.036.064.023.064.01.067" style="fill:none;stroke:red;stroke-width:.999997;stroke-linecap:round;stroke-linejoin:round;stroke-miterlimit:4;stroke-dasharray:none;stroke-opacity:1;visibility:visible" visibility="hidden"/><path d="m401.856 267.466.016.067.03.073.053.065.072.067.09.062.111.061.129.053.139.052.158.045.171.039.183.039.189.024.203.024M403.399 268.135l.21.015.218.012h.219l.221-.005.215-.015.216-.017.204-.03.201-.033.185-.037.178-.046.162-.049.147-.056.13-.061.114-.06.091-.07.072-.068.053-.07.03-.075.012-.07" style="fill:none;stroke:red;stroke-width:.999997;stroke-linecap:round;stroke-linejoin:round;stroke-miterlimit:4;stroke-dasharray:none;stroke-opacity:1;visibility:visible" visibility="hidden"/><path d="m490.599 341.897-13.85-2.587" style="fill:none;stroke:red;stroke-width:1.99999;stroke-linecap:round;stroke-linejoin:round;stroke-miterlimit:4;stroke-dasharray:none;stroke-opacity:1;visibility:visible" visibility="hidden"/><path d="M473.023 316.878a76.066 76.066 0 0 0-.155 4.856c0 41.748 33.843 75.592 75.59 75.592 41.75 0 75.592-33.844 75.592-75.592 0-31.056-18.729-57.737-45.507-69.365" style="fill:none;stroke:red;stroke-width:.999997;stroke-linecap:round;stroke-linejoin:round;stroke-miterlimit:4;stroke-dasharray:none;stroke-opacity:1;visibility:visible" visibility="hidden"/><path d="m324.467 252.364-15.062-2.764M232.217 236.88l3.958-.707M323.007 260.24l-17.23-3.225M260.125 445.875l-8.265-2.265M320.586 462.474l-7.74-2.13M251.929 447.562l8.196-1.687M260.125 445.875l-8.196 1.687M319.573 466.242l-7.773-2.146M251.929 447.562l8.248 2.281M309.405 249.6l13.602 10.64M309.405 249.6l15.062 2.764M407.538 267.557l-6.566-1.163M411.545 268.334l-4.007-.777M311.8 464.096l7.773 2.146M312.846 460.344l7.74 2.13" style="fill:none;stroke:red;stroke-width:1.99999;stroke-linecap:round;stroke-linejoin:round;stroke-miterlimit:4;stroke-dasharray:none;stroke-opacity:1;visibility:visible" visibility="hidden"/><path d="m360.706 221.005-.098-.007-.09.02-.088.047M360.874 221.889l.116-.06.154-.05.168-.044.196-.031.208-.02.212-.012h.224l.215.012.213.028.198.033.178.047.158.05.122.059.102.065.061.067.025.073-.009.072-.045.074-.08.064M363.292 222.316l-.1.054-.124.052-.144.04-.168.032-.176.028-.189.018M267.222 288.25h0M315.723 257.637l.01.079.006.072.015.132.004.129v.073l.01.09-.013.334-.045.328-.063.297-.09.283-.108.266-.134.253-.162.253-.188.236-.242.23-.26.207M262.333 285.77l.337-.208.35-.164.354-.123.361-.084.365-.04h.355l.358.039.341.085.33.12.319.163.298.197.277.246.264.269.23.3.208.34.183.36M258.226 288.483l.212-.117.237-.092.265-.061.29-.038.308-.008.323.03.336.052.357.078.355.106.368.13.37.16.368.182.362.205.358.224.342.243.336.268M263.413 289.845l.177.145.171.11.153.075.145.049.072.008h.072l.067-.021.067-.037M267.205 288.258l-2.867 1.917M267.205 288.258l.049-.045.045-.066.046-.062.015-.08.027-.159-.013-.17-.039-.196-.072-.207M368.986 223.998l.312-.225.3-.243.297-.274.281-.296.282-.306.256-.328.25-.353.231-.355.208-.37.19-.381.177-.381M364.864 217.916l.127-.067.14-.052.163-.043.192-.016.204-.014h.218l.242.024.253.029.267.047.28.058.286.07.3.087.302.101.304.104.308.118.314.135.298.136.306.153.295.147.292.16.272.173.276.17.25.174.237.178.225.178.201.17.187.178.167.171M318.203 248.812l.274-.118.288-.096.305-.064.287-.034h.302l.306.029.31.051.286.078.277.1.26.119.264.139.25.15.238.18.224.192.219.202.214.233.21.255.18.265.173.285.159.316.145.346.11.348.081.364M363.84 223.505l2.104-1.405M365.942 221.289l.072.177.038.166.014.137-.007.131-.013.06-.026.056-.033.04-.041.044M361.524 220.132l.303-.188.313-.144.311-.118.325-.078.324-.047.315-.007.315.027.314.06.296.097.283.132.27.164.255.198.232.225.21.252.186.283.166.302M358.52 222.122l.203-.12.232-.092.252-.072.26-.04.283-.018.298.004.314.032.305.062.317.084.322.114.324.13.317.152.31.178.294.197.291.21.276.232M363.84 223.505l-.04.025-.057.008h-.048l-.061-.014-.122-.047-.11-.079-.13-.098-.155-.127M249.04 278.329l.028.16.069.157.121.152.156.15.206.141.237.131.282.12.316.11.342.1.378.083.395.076.423.056.425.042.45.024.448.009.447-.009.45-.024.442-.042.426-.052.409-.07.39-.087.363-.101.328-.112.3-.116.267-.133.232-.144.183-.145.137-.15M257.693 278.653l.094-.14.048-.144.025-.147" style="fill:none;stroke:#00ff4a;stroke-width:.999997;stroke-linecap:round;stroke-linejoin:round;stroke-miterlimit:4;stroke-dasharray:none;stroke-opacity:1;visibility:visible"/><path d="m318.305 258.282-.19.316-.201.277-.204.236-.21.214-.242.217-.291.213" style="fill:none;stroke:#00ff4a;stroke-width:1.99999;stroke-linecap:round;stroke-linejoin:round;stroke-miterlimit:4;stroke-dasharray:none;stroke-opacity:1;visibility:visible"/><path d="m312.797 463.92.117-.106.124-.072.132-.064.135-.046.155-.041.194-.01M313.653 463.58l.176.004.169.02.159.042.16.053.165.064.187.1M314.669 463.863l.149.092.147.105.137.12.133.126.103.114.101.128.091.134.073.122.064.124.056.12.047.112.032.107.045.185.026.178.006.177-.006.179-.04.188-.03.102-.045.106M315.76 466.382l-.006.004-.004.013-.01.013-.008.014-.003.014-.004.012M315.723 466.452v.006l-.01.009-.003.004v.007l-.01.006M317.395 257.529l.55-.004M261.026 286.869l.095-.04.104-.02.113.006M258.142 299.242l-.02-.22-.039-.222-.068-.24-.09-.254-.122-.264-.142-.272-.163-.273M258.067 293.977l-.004.472-.033.496-.06.501-.079.507-.104.512-.134.515-.156.515M262.234 288.915l.25.012.25-.006.251-.021.238-.03.222-.056.205-.057.172-.074.147-.078M263.969 288.605l.117-.095.072-.096.025-.108-.02-.096-.063-.1-.105-.093-.145-.087-.184-.063-.215-.06-.237-.045-.255-.03-.273-.004-.26.005-.263.021-.253.04-.24.059-.201.073-.172.079-.131.092-.09.092-.058.104v.101M318.229 257.716h0M317.437 462.604l.052-.018.051-.022M314.02 461.595v.152l.043.145.072.146.11.137.147.133.175.118.206.104.227.085.255.073M314.857 460.763l-.122.061-.122.063-.098.07-.093.066-.144.129-.115.128-.052.072-.038.07-.04.086-.011.087M314.858 460.763l.23-.083.246-.06.263-.053.269-.03.279-.016.275.006.279.024.262.044.249.057.24.08.216.084.2.108.163.118.136.125.1.13.073.146.039.14v.144M317.54 462.564l.128-.06.117-.061.097-.059.095-.058.142-.124.111-.132.057-.08.038-.076.032-.095.02-.092M313.614 463.58h0M319.314 460.806l.13.044.141.074.125.09.123.112.1.122.077.138.07.144.032.144.013.16-.02.15-.019.08-.031.063-.051.07-.045.05M315.88 459.862l1.356.368.629.173 1.448.403M363.166 414.02l.086-.066.114-.047.062-.015.076-.004h.163l.087.004.1.015.096.013.108.02.11.026.112.026.12.034.12.04.107.03.108.044.217.086.206.088.196.102.18.104.17.111.146.12.131.139.119.154.047.091.033.09.032.095.014.103.002.104-.002.105-.027.128-.032.118-.056.116-.059.12-.065.116-.077.11-.18.206M318.12 257.605l.054.041.056.052.069.127.046.12.013.117-.013.113-.04.106M317.946 257.525l.034.004.027.014.026.008.026.012.027.02.032.023M314.96 260.462h0M364.82 217.948l.043-.032" style="fill:none;stroke:#00ff4a;stroke-width:.999997;stroke-linecap:round;stroke-linejoin:round;stroke-miterlimit:4;stroke-dasharray:none;stroke-opacity:1;visibility:visible"/><path d="m315.77 466.382-.01.013-.006.01-.004.006-.01.015-.01.014-.005.012" style="fill:none;stroke:#00ff4a;stroke-width:.999997;stroke-linecap:round;stroke-linejoin:round;stroke-miterlimit:4;stroke-dasharray:none;stroke-opacity:1;visibility:visible"/><path d="m364.72 226.885 4.264-2.888" style="fill:none;stroke:#00ff4a;stroke-width:1.99999;stroke-linecap:round;stroke-linejoin:round;stroke-miterlimit:4;stroke-dasharray:none;stroke-opacity:1;visibility:visible"/><path d="m362.66 414.522.506-.5M363.166 414.02h0M361.382 220.234l.052-.037.09-.067M371.714 220.653h0M264.1 285.15h-.012M314.463 260.898l-.113.072M363.1 219.562v-.005" style="fill:none;stroke:#00ff4a;stroke-width:.999997;stroke-linecap:round;stroke-linejoin:round;stroke-miterlimit:4;stroke-dasharray:none;stroke-opacity:1;visibility:visible"/><path d="m362.606 419.668 3.124-3.122" style="fill:none;stroke:#00ff4a;stroke-width:1.99999;stroke-linecap:round;stroke-linejoin:round;stroke-miterlimit:4;stroke-dasharray:none;stroke-opacity:1;visibility:visible"/><path d="m261.137 521.063-.079-5.89M257.643 297.165h0M318.26 258.369h0M316.98 459.77l.126-.058" style="fill:none;stroke:#00ff4a;stroke-width:.999997;stroke-linecap:round;stroke-linejoin:round;stroke-miterlimit:4;stroke-dasharray:none;stroke-opacity:1;visibility:visible"/><path d="m258.067 293.977-.072-5.342" style="fill:none;stroke:#00ff4a;stroke-width:1.99999;stroke-linecap:round;stroke-linejoin:round;stroke-miterlimit:4;stroke-dasharray:none;stroke-opacity:1;visibility:visible"/><path d="M306.837 254.729v.239l.016.197.004.095.013.134.031.264.049.263.065.279M309.422 249.6l-.16-.01-.159.018-.162.05-.167.082-.157.097-.152.136-.151.147-.152.173-.137.177-.128.2-.127.218-.112.222-.121.242-.104.25-.104.256-.086.272-.086.3-.083.309-.065.308-.06.313-.046.345-.037.353-.024.335-.004.336M311.5 462.439l-.03.16-.013.13-.02.236-.007.193.017.182.02.187.026.105.022.11M312.855 460.348l-.07-.013h-.062l-.065.02-.076.025-.068.043-.075.044-.072.068-.067.064-.066.081-.064.08-.065.089-.06.094-.119.203-.106.224-.054.128-.047.124-.046.13-.044.124-.036.146-.036.145-.032.14-.027.13M311.514 463.742l.043.081.036.072.036.06.038.05.053.051.058.032" style="fill:none;stroke:#00ff4a;stroke-width:.999997;stroke-linecap:round;stroke-linejoin:round;stroke-miterlimit:4;stroke-dasharray:none;stroke-opacity:1;visibility:visible"/><path d="m311.775 464.039-.045-.053-.041-.052-.042-.042-.037-.05-.04-.046-.055-.054M308.771 254.86l-.01.033-.007.033v.027l-.007.036v.03l-.005.039M318.66 256.7l-.02.13-.01.134.01.123.03.113.017.048.028.031.027.027.032.012M318.773 257.318v.007h.004M318.7 257.267h0M318.015 251.037l.166.05.137.041.104.056.068.05.019.038.004.03v.04l-.01.032-.026.042-.042.04-.092.074-.133.09-.163.084-.194.084-.228.088-.235.078-.26.068-.248.058-.257.046-.272.032-.268.02-.265.008-.257-.013-.246-.035-.222-.044-.225-.06-.224-.084-.196-.106-.18-.118-.145-.122-.111-.132-.079-.13-.045-.141-.01-.072.01-.064.01-.065.036-.068.039-.063.059-.057.068-.05.081-.038.095-.04.107-.035.11-.016.128-.024M311.274 250.252l-.134.105-.135.1-.142.128-.13.132-.125.137-.118.146-.128.15-.116.164-.216.33-.204.356-.192.382-.184.403-.099.224-.09.227-.089.247-.079.237-.084.282-.089.278-.081.29-.068.29M312.28 249.958h-.175l-.169.015-.148.037-.158.054-.164.076-.193.112M322.237 251.785l-.183-.023-.181.015-.166.032-.164.05-.188.089-.201.12M321.154 252.069l-.14.097-.13.108-.134.124-.136.138-.121.13-.124.144-.119.16-.119.167-.211.328-.202.361-.199.384-.178.4-.102.23-.084.234-.092.236-.077.247-.096.28-.077.283-.078.29-.074.292M308.978 254.9l-.208-.04M319.17 465.226h0M319.235 464.575h0M315.502 256.772h.005M317.211 464.988l-.006.008M312.797 463.92l-.411.41M315.531 466.703v.005M312.315 253.82l.125.017.283.09.283.103.283.124.264.152.266.174.247.19.248.204.121.114.12.122.118.12.107.11.1.113.09.107.093.105.127.139.113.136.12.13.363.389.403.339.456.31.212.106.228.099.237.079.26.06h.013M258.325 298.887l-.007.003M262.182 285.869l.039-.027.106-.072M324.453 252.364l-.173-.014-.17.024-.177.07-.186.104-.172.124-.162.164-.167.188-.156.212-.147.229-.136.235-.134.264-.118.28-.113.282-.104.299-.09.308-.091.314-.077.343-.065.35-.052.346-.036.344-.022.384-.011.37v.254l.01.127.006.065.008.08M320.053 462.708l-.108.114-.098.136-.085.138-.088.151-.07.147-.078.16-.056.15-.06.158-.053.172-.044.169-.048.185-.03.184M319.235 464.575l-.02.112-.015.105-.017.198-.013.164v.162l.003.13.014.132.023.129.029.132.044.135.07.114.045.056.045.04.057.032.058.019" style="fill:none;stroke:#00ff4a;stroke-width:.999997;stroke-linecap:round;stroke-linejoin:round;stroke-miterlimit:4;stroke-dasharray:none;stroke-opacity:1;visibility:visible"/><path d="m321.918 258.109.024.311.055.29.052.256.064.236.077.2.084.185.09.16.101.138.111.122.124.103.146.08.159.051M364.971 204.216l.02.117.056.12.09.116.126.119.164.106.199.107.224.097.254.092.283.079.303.073.325.06.343.055.354.036.371.025.367.016.376.006.37-.014.367-.016.359-.034.342-.05.328-.056.306-.066.284-.079.254-.087.231-.1.199-.101.166-.101.128-.119.1-.112.055-.125.025-.12M323.663 252.608h0M323.005 260.24h.002M324.453 252.364h.014M319.56 466.234l.012.006M320.58 462.464l.008.01M322.385 251.817h.01M318.777 257.326h0M311.8 464.096l-.02-.008M311.813 464.106l-.016-.018-.02-.041-.002-.012h-.011M321.894 257.555h0" style="fill:none;stroke:#00ff4a;stroke-width:.999997;stroke-linecap:round;stroke-linejoin:round;stroke-miterlimit:4;stroke-dasharray:none;stroke-opacity:1;visibility:visible"/><path d="m249.04 278.329.012-.124.031-.13.053-.129.079-.125.095-.115.117-.115.14-.113.15-.108.18-.107.203-.102.209-.096.225-.085.263-.091.283-.079.29-.07.297-.064.338-.054.348-.047.356-.03.358-.03.308-.004h.31l.309.004.31.023.301.023.306.033.294.05.293.052.284.057.263.077.244.07.237.082.219.088.195.1.19.097.184.13.16.128.14.133.104.137.07.145.048.14.022.143" style="fill:none;stroke:#00ff4a;stroke-width:1.99999;stroke-linecap:round;stroke-linejoin:round;stroke-miterlimit:4;stroke-dasharray:none;stroke-opacity:1;visibility:visible"/><path d="m257.862 279.049-.003-.826M249.053 279.15l-.014-.823" style="fill:none;stroke:#00ff4a;stroke-width:.999997;stroke-linecap:round;stroke-linejoin:round;stroke-miterlimit:4;stroke-dasharray:none;stroke-opacity:1;visibility:visible"/><path d="m253.442 536.508.013.667M261.342 536.31l.016.666M261.358 536.977l-.016.178-.032.182-.059.184-.08.174-.096.172-.13.17-.143.159-.163.148-.186.153-.203.138-.217.132-.24.118-.223.1-.237.083-.288.102-.298.082-.314.058-.311.054-.321.03-.331.012-.324.009-.321-.022-.327-.026-.319-.044-.313-.066-.296-.08-.287-.091-.273-.106-.256-.12-.232-.13-.212-.146-.192-.152-.172-.159-.143-.169-.117-.168-.09-.176-.078-.185-.044-.176-.013-.115-.007-.11M261.342 536.31h0M253.442 536.508h0M362.532 426.152l-.005.575M369.21 426.256l-.014.576M369.196 426.832l-.006.138-.032.136-.052.136-.076.13-.083.123-.11.127-.114.121-.139.103-.16.114-.172.096-.182.096-.198.075-.218.079-.228.077-.238.05-.244.05-.257.043-.273.028-.268.01h-.272l-.284-.007-.274-.018-.28-.039-.269-.048-.21-.042-.204-.056-.198-.056-.19-.07-.186-.077-.211-.101-.188-.11-.18-.119-.166-.126-.134-.125-.114-.132-.096-.139-.074-.137-.052-.146-.032-.144-.005-.145" style="fill:none;stroke:#00ff4a;stroke-width:1.99999;stroke-linecap:round;stroke-linejoin:round;stroke-miterlimit:4;stroke-dasharray:none;stroke-opacity:1;visibility:visible"/><path d="M364.964 204.912h0M372.326 204.958h0M258.325 298.887h0M310.017 254.215h.003M262.329 285.77h.004M361.524 220.132h0M358.52 222.122h0" style="fill:none;stroke:#00ff4a;stroke-width:.999997;stroke-linecap:round;stroke-linejoin:round;stroke-miterlimit:4;stroke-dasharray:none;stroke-opacity:1;visibility:visible"/><path d="m316.967 259.755-.142.095-.135.08-.133.073-.123.057-.144.065-.16.065" style="fill:none;stroke:#00ff4a;stroke-width:1.99999;stroke-linecap:round;stroke-linejoin:round;stroke-miterlimit:4;stroke-dasharray:none;stroke-opacity:1;visibility:visible"/><path d="m315.7 466.484-.025.042-.026.037-.027.033-.025.035-.03.04-.036.032M315.255 462.69l.265.06.282.031.283.019h.282l.284-.018.279-.04.26-.06.247-.076M317.257 464.951l-.007.007-.007.006-.006.004-.003.007-.016.008-.008.004M315.146 459.967l.101-.073.104-.051.104-.028.107-.008.112.008.12.021.085.026" style="fill:none;stroke:#00ff4a;stroke-width:.999997;stroke-linecap:round;stroke-linejoin:round;stroke-miterlimit:4;stroke-dasharray:none;stroke-opacity:1;visibility:visible"/><path d="M310.017 254.215 269.694 280.9M269.694 280.898h0M270.293 280.503l-1.156.767M265.53 283.653l-.328.217M265.203 283.869l-.481.32M264.722 284.189l-2.39 1.581M314.35 260.97l-56.027 37.916M326.52 252.74l38.201-25.855M361.524 220.132l3.296-2.184M319.1 248.2l35.964-23.79" style="fill:none;stroke:#00ff4a;stroke-width:1.99999;stroke-linecap:round;stroke-linejoin:round;stroke-miterlimit:4;stroke-dasharray:none;stroke-opacity:1;visibility:visible"/><path d="m258.226 288.483-.23.152" style="fill:none;stroke:#00ff4a;stroke-width:.999997;stroke-linecap:round;stroke-linejoin:round;stroke-miterlimit:4;stroke-dasharray:none;stroke-opacity:1;visibility:visible"/><path d="m359.304 221.809 1.127-.744M371.532 260.997l.792-56.039M369.21 426.256l2.206-156.969M364.82 217.948l.143-13.036M364.366 259.678l.356-32.793M362.66 414.522l1.615-146.572M362.532 426.152l.074-6.484" style="fill:none;stroke:#00ff4a;stroke-width:1.99999;stroke-linecap:round;stroke-linejoin:round;stroke-miterlimit:4;stroke-dasharray:none;stroke-opacity:1;visibility:visible"/><path d="m361.071 220.477.084-.068.092-.073.093-.076.04-.026M360.431 221.065l.007-.005.012-.018.022-.006.018-.026.034-.024.04-.04.052-.046.06-.054.069-.062.073-.08.106-.092.106-.103.04-.032" style="fill:none;stroke:#00ff4a;stroke-width:.999997;stroke-linecap:round;stroke-linejoin:round;stroke-miterlimit:4;stroke-dasharray:none;stroke-opacity:1;visibility:visible"/><path d="m320.682 461.56 41.924-41.892M316.98 459.77l45.68-45.25M316.967 259.755l3.103-2.109" style="fill:none;stroke:#00ff4a;stroke-width:1.99999;stroke-linecap:round;stroke-linejoin:round;stroke-miterlimit:4;stroke-dasharray:none;stroke-opacity:1;visibility:visible"/><path d="m312.437 462.656 2.71-2.689M317.257 464.951l2.165-2.153M315.88 459.862l.21.045.212.021.163-.006.16-.02.158-.044.144-.062.05-.026" style="fill:none;stroke:#00ff4a;stroke-width:.999997;stroke-linecap:round;stroke-linejoin:round;stroke-miterlimit:4;stroke-dasharray:none;stroke-opacity:1;visibility:visible"/><path d="m257.997 288.635-.135-9.585M261.058 515.174l-2.917-215.934M261.342 536.31l-.205-15.248M253.442 536.508l-4.388-257.358" style="fill:none;stroke:#00ff4a;stroke-width:1.99999;stroke-linecap:round;stroke-linejoin:round;stroke-miterlimit:4;stroke-dasharray:none;stroke-opacity:1;visibility:visible"/><path d="m261.026 286.869.027-.012.029-.02.039-.032.039-.035.059-.057.058-.047.081-.075.079-.077.108-.1.104-.1.077-.072.081-.07M261.807 286.173l.103-.087.099-.085.104-.081.069-.051" style="fill:none;stroke:#00ff4a;stroke-width:.999997;stroke-linecap:round;stroke-linejoin:round;stroke-miterlimit:4;stroke-dasharray:none;stroke-opacity:1;visibility:visible"/><path d="m261.026 286.869-1.963 1.305" style="fill:none;stroke:#00ff4a;stroke-width:1.99999;stroke-linecap:round;stroke-linejoin:round;stroke-miterlimit:4;stroke-dasharray:none;stroke-opacity:1;visibility:visible"/><path d="m258.318 298.89-.027.016-.031.028-.033.05-.036.054-.025.057-.02.06-.004.046v.034" style="fill:none;stroke:#00ff4a;stroke-width:.999997;stroke-linecap:round;stroke-linejoin:round;stroke-miterlimit:4;stroke-dasharray:none;stroke-opacity:1;visibility:visible"/><path d="m316.13 260.191-.345.135-.328.136-.317.139-.347.159-.336.16-.1.05h-.007" style="fill:none;stroke:#00ff4a;stroke-width:1.99999;stroke-linecap:round;stroke-linejoin:round;stroke-miterlimit:4;stroke-dasharray:none;stroke-opacity:1;visibility:visible"/><path d="m310.317 254.038.18-.08.256-.092.27-.066.277-.039.273-.019.293.012.283.032.166.034" style="fill:none;stroke:#00ff4a;stroke-width:.999997;stroke-linecap:round;stroke-linejoin:round;stroke-miterlimit:4;stroke-dasharray:none;stroke-opacity:1;visibility:visible"/><path d="m312.386 464.33-51.328 50.844M315.531 466.708l-54.394 54.355" style="fill:none;stroke:#00ff4a;stroke-width:1.99999;stroke-linecap:round;stroke-linejoin:round;stroke-miterlimit:4;stroke-dasharray:none;stroke-opacity:1;visibility:visible"/><path d="m317.205 464.996-.251.198-.25.214-.252.208-.207.198-.202.196-.123.151-.11.161-.11.163" style="fill:none;stroke:#00ff4a;stroke-width:.999997;stroke-linecap:round;stroke-linejoin:round;stroke-miterlimit:4;stroke-dasharray:none;stroke-opacity:1;visibility:visible"/><path d="m317.609 466.651.026.004h.026l.019-.004h.026l.027-.015.025-.013" style="fill:none;stroke:#00ff4a;stroke-width:1.99999;stroke-linecap:round;stroke-linejoin:round;stroke-miterlimit:4;stroke-dasharray:none;stroke-opacity:1;visibility:visible"/><path d="m313.031 460.468-.031-.032-.027-.028-.026-.022-.026-.01-.032-.013-.034-.013M312.38 249.973h-.03l-.015-.007h-.035l-.019-.008M322.385 251.817l-.025-.008-.021-.01-.028-.004-.017-.007h-.027l-.03-.003M324.453 252.364h0M320.58 462.464l-.086-.006-.087.006-.077.032-.085.04-.095.072-.097.102" style="fill:none;stroke:#00ff4a;stroke-width:.999997;stroke-linecap:round;stroke-linejoin:round;stroke-miterlimit:4;stroke-dasharray:none;stroke-opacity:1;visibility:visible"/><path d="m322.237 251.785-2.998-.552M317.609 466.651l-1.702-.468" style="fill:none;stroke:#00ff4a;stroke-width:1.99999;stroke-linecap:round;stroke-linejoin:round;stroke-miterlimit:4;stroke-dasharray:none;stroke-opacity:1;visibility:visible"/><path d="m318.777 257.326-2.518-.468" style="fill:none;stroke:#00ff4a;stroke-width:.999997;stroke-linecap:round;stroke-linejoin:round;stroke-miterlimit:4;stroke-dasharray:none;stroke-opacity:1;visibility:visible"/><path d="m313.031 460.468.167.184.165.172.172.151.135.1" style="fill:none;stroke:#00ff4a;stroke-width:1.99999;stroke-linecap:round;stroke-linejoin:round;stroke-miterlimit:4;stroke-dasharray:none;stroke-opacity:1;visibility:visible"/><path d="M311.813 464.096h-.016M312.085 464.622l-.115-.232-.124-.23-.032-.054" style="fill:none;stroke:#00ff4a;stroke-width:.999997;stroke-linecap:round;stroke-linejoin:round;stroke-miterlimit:4;stroke-dasharray:none;stroke-opacity:1;visibility:visible"/><path d="M309.422 249.6h.007l.006.008h.018l.026.005.067.01.097.019.1.012.298.04.305.04.479.058.48.058.49.062.482.046" style="fill:none;stroke:#00ff4a;stroke-width:1.99999;stroke-linecap:round;stroke-linejoin:round;stroke-miterlimit:4;stroke-dasharray:none;stroke-opacity:1;visibility:visible"/><path d="m319.795 462.975.032-.041.226-.224" style="fill:none;stroke:#00ff4a;stroke-width:.999997;stroke-linecap:round;stroke-linejoin:round;stroke-miterlimit:4;stroke-dasharray:none;stroke-opacity:1;visibility:visible"/><path d="m323.005 260.24-.135-.043-.139-.057-.124-.08-.132-.11-.08-.08-.085-.087-.076-.09-.09-.093-.154-.18-.153-.185-.475-.538-.49-.493-.169-.146-.171-.133-.179-.118-.143-.091-.155-.074-.15-.058-.095-.03-.073-.017-.08-.02-.085-.028-.094-.02-.263-.05-.273-.061-.165-.032M319.573 466.242l-.22-.03-.235-.012-.165-.011-.166.015-.145.02-.137.034-.135.046-.097.046-.02.005-.023.012-.02.008-.12.067-.175.09-.155.091" style="fill:none;stroke:#00ff4a;stroke-width:1.99999;stroke-linecap:round;stroke-linejoin:round;stroke-miterlimit:4;stroke-dasharray:none;stroke-opacity:1;visibility:visible"/><path d="m322.394 251.817.188.065.218.059.237.067.252.072.253.065.235.052.228.063.237.058.121.024.059.008.018.004.013.01" style="fill:none;stroke:#00ff4a;stroke-width:.999997;stroke-linecap:round;stroke-linejoin:round;stroke-miterlimit:4;stroke-dasharray:none;stroke-opacity:1;visibility:visible"/><path d="m364.971 204.216.013-.1.026-.092.04-.092.066-.1.08-.088.09-.09.114-.084.134-.085.136-.081.158-.074.172-.072.2-.068.207-.071.217-.057.236-.045.266-.056.27-.036.282-.037.292-.028.25-.009.256-.004h.268l.256.005.255.008.265.028.262.03.258.038.25.04.244.053.225.053.217.063.206.075.196.07.178.08.144.078.14.082.116.086.107.09.083.094.088.104.061.11.03.116.015.111" style="fill:none;stroke:#00ff4a;stroke-width:1.99999;stroke-linecap:round;stroke-linejoin:round;stroke-miterlimit:4;stroke-dasharray:none;stroke-opacity:1;visibility:visible"/><path d="m372.326 204.958.016-.698M364.964 204.912l.007-.698M357.152 224.265l.211.015.217.012h.22l.22-.006.215-.014.216-.018.204-.03.201-.031.186-.039.177-.044.163-.051.146-.054.132-.063.111-.06.092-.07.072-.066.053-.071.032-.075.01-.071M266.135 283.025l.008-.062.014-.06.023-.058.039-.055.044-.057.058-.058.064-.053.077-.05.087-.048.093-.05.104-.047.113-.04.127-.044.139-.038.138-.035.148-.03.171-.03.17-.024.178-.016.177-.011.163-.009h.312l.155.012.153.01.16.015.15.019.15.027.145.03.14.031.127.036.116.04.113.045.102.045.097.05.092.057.084.063.07.064.05.07.036.062.023.065.01.069M266.135 283.025l.016.065.03.075.053.065.072.067.09.061.111.062.129.053.139.052.158.045.171.037.183.04.189.024.203.024M267.68 283.695l.21.015.216.012h.22l.221-.005.215-.015.216-.017.204-.03.201-.033.187-.037.176-.046.163-.049.146-.056.131-.061.112-.06.092-.07.072-.068.053-.07.031-.075.01-.07" style="fill:none;stroke:#00ff4a;stroke-width:.999997;stroke-linecap:round;stroke-linejoin:round;stroke-miterlimit:4;stroke-dasharray:none;stroke-opacity:1;visibility:visible"/><path d="m355.61 223.595.01-.063.012-.06.024-.056.04-.058.042-.056.058-.057.064-.053.078-.05.086-.05.094-.047.104-.048.113-.04.127-.044.138-.039.14-.034.146-.03.171-.03.172-.024.177-.018.177-.01.161-.008.156-.002.158.003.154.009.155.013.157.013.152.02.151.026.144.03.14.033.127.035.116.04.113.045.101.044.1.05.089.059.085.062.07.064.05.069.036.064.022.063.011.069" style="fill:none;stroke:#00ff4a;stroke-width:.999997;stroke-linecap:round;stroke-linejoin:round;stroke-miterlimit:4;stroke-dasharray:none;stroke-opacity:1;visibility:visible"/><path d="m355.611 223.594.016.067.03.073.053.066.072.066.09.062.11.06.13.055.139.051.159.046.17.037.182.04.19.023.202.025M316.13 260.191l2.073-11.379M261.338 286.815l.896 2.1M257.995 288.635l3.023-.241M262.329 285.77l1.771-.62M262.333 285.77l1.755-.62M364.722 226.885l-1.622-7.323M364.82 217.948l-1.72 1.609M322.385 251.817l-4.37-.78" style="fill:none;stroke:#00ff4a;stroke-width:.999997;stroke-linecap:round;stroke-linejoin:round;stroke-miterlimit:4;stroke-dasharray:none;stroke-opacity:1;visibility:visible"/><path d="m321.154 252.069 5.366.671M321.154 252.069 319.1 248.2M371.416 269.287l.116-8.29M371.532 260.997l-.116 8.29M364.275 267.95l.091-8.272M364.366 259.678l-.091 8.272M316.967 259.755l3.103-2.109M322.237 251.785l-2.998-.552" style="fill:none;stroke:#00ff4a;stroke-width:1.99999;stroke-linecap:round;stroke-linejoin:round;stroke-miterlimit:4;stroke-dasharray:none;stroke-opacity:1;visibility:visible"/></svg>