<svg xmlns="http://www.w3.org/2000/svg" baseProfile="full" height="1122.52" preserveAspectRatio="xMinYMin meet" style="width:765px;height:943px" width="793.701" xml:space="preserve"><path d="m602.599 122.418-.187-.079-.145-.09-.11-.084-.08-.1-.029-.098-.002-.102.048-.091.078-.103.118-.098.153-.086.183-.084.221-.081.24-.065.267-.06.282-.04.3-.047.306-.025.313-.01M503.823 189.936l-.187-.103-.149-.113-.1-.116-.063-.124-.02-.13.027-.126.063-.128.117-.12.156-.121.184-.115.232-.107.264-.102.28-.082.316-.078.325-.06.348-.042.351-.029.352-.019M510.96 189.824h-.027l-.032.01-.034.01-.04.025-.05.026-.048.038" style="fill:none;stroke:red;stroke-width:.666665;stroke-linecap:round;stroke-linejoin:round;stroke-miterlimit:4;stroke-dasharray:none;stroke-opacity:1;visibility:visible"/><path d="m510.73 189.932-.09.075-.09.08-.09.086-.091.087-.095.11-.104.129M510.17 190.499l-.153.208-.138.203-.113.197-.097.193-.079.228-.036.127-.023.127M509.533 191.782l-.017.059-.028.052-.038.032-.028.036-.052.028-.058.018M608.65 122.454l.052-.024.032-.019.033-.012.032-.009.027-.007.023.004M608.14 122.923l.097-.11.098-.09.081-.076.083-.065.07-.064.082-.064M607.536 124.037l-.01.059-.029.041-.029.044-.032.025-.043.018-.049.021M607.536 124.037l.065-.22.072-.201.098-.178.101-.172.124-.161.143-.181M501.388 190.522v-.007l-.007-.009v-.035M501.381 190.471l-.004-.093-.01-.083-.003-.081-.003-.075-.01-.084-.002-.097M501.417 188.953l.032-.095.047-.097.038-.075.056-.068.059-.072.08-.052M501.73 188.494l.024-.015.028-.018.024-.008.025-.011.03-.007.025-.013M600.366 123.23l-.017-.023-.019-.025-.01-.027-.01-.024-.007-.024-.006-.033M600.223 122.063v.17l.016.163.012.154.013.16.024.173.01.19M511.04 189.712v.059l-.013.06M508.504 188.57l.19.1.142.116.107.115.058.12.024.132-.033.129-.07.128-.113.13-.153.12-.197.114-.232.108-.263.101-.29.086-.326.066-.328.06-.356.043M505.687 190.295l-.192.008-.192-.005-.341-.02-.291-.052-.292-.075-.287-.099-.15-.062-.119-.055M505.47 188.063h-.027l-.032.016M506.32 188.22l.07.005h.054l.059.004.058.007.059.008.061.015M508.253 188.503l.05.015.04.009.045.004.038.01.039.011.039.018M509.47 188.7h-.027l-.032.019M608.947 122.321l-.004.033-.007.042M604.598 122.68l-.201.015-.2.008-.182.005-.185-.003-.16-.01-.153-.023-.306-.055-.166-.037-.15-.056-.162-.055-.134-.052M607.384 121.45l.016-.01h.023M510.96 189.824l.079.012M608.849 122.387l.1.019M501.323 189.337l.027.621M501.417 188.966v-.013M501.323 189.337l-.007-.075.007-.066.016-.071.025-.056.027-.07.025-.047M501.885 188.422l.097-.017.043-.011M502.198 191.222h0l-.159-.061-.146-.07-.127-.078-.11-.092-.115-.11-.094-.142-.058-.147M509.311 192.007l-.097.012M600.216 121.928v-.02l.007-.019v-.05l.006-.016M600.216 121.928l.007.135M600.954 123.594l-.016-.004-.127-.056-.13-.055-.1-.062-.122-.091-.093-.096" style="fill:none;stroke:red;stroke-width:.666665;stroke-linecap:round;stroke-linejoin:round;stroke-miterlimit:4;stroke-dasharray:none;stroke-opacity:1;visibility:visible"/><path d="m509.214 192.029.104.16.113.167.115.146.124.138.1.106.121.112.111.099.12.08.127.075.12.064.144.058.142.028M607.345 124.245l.087.153.098.158.104.148.095.13.093.106.108.104.095.097.104.09.11.07.111.067.118.052.11.033M502.198 191.222l-.097.097-.079.086-.084.069-.081.07-.134.103-.11.07-.05.028-.049.017-.052.01h-.032M600.954 123.594l-.097.107-.098.112-.088.094-.081.086-.075.066-.072.063-.065.063-.059.041-.058.035-.056.037-.052.016-.032.004" style="fill:none;stroke:red;stroke-width:1.99999;stroke-linecap:round;stroke-linejoin:round;stroke-miterlimit:4;stroke-dasharray:none;stroke-opacity:1;visibility:visible"/><path d="m506.664 190.239-.332.028-.332.02M506 190.287h-.052l-.059.003h-.038l-.052.002h-.052l-.059.003" style="fill:none;stroke:red;stroke-width:.666665;stroke-linecap:round;stroke-linejoin:round;stroke-miterlimit:4;stroke-dasharray:none;stroke-opacity:1;visibility:visible"/><path d="m506.68 188.26.308.055.287.049.245.045.228.035.253.027.251.033M511.04 189.835l1.508.207 1.584.202 1.612.198 1.617.186 1.639.183 1.643.168 1.664.165 1.656.15 1.68.138 1.693.134 1.692.124 1.7.113 1.71.093 1.707.102 1.726.081 1.722.073 1.732.064 1.744.054 1.746.045 1.752.03 1.757.026 1.753.015 1.756.004 1.764-.004 1.764-.015 1.764-.027 1.762-.03 1.77-.044 1.764-.056 1.77-.062 1.772-.082 1.762-.079 1.767-.099 1.761-.104 1.764-.11 1.752-.123 1.75-.128 1.746-.147 1.732-.153 1.735-.165 1.722-.17 1.715-.176 1.719-.19 1.71-.202 1.694-.204 1.693-.216 1.684-.232 1.673-.232 1.663-.245 1.647-.253 1.638-.258 1.623-.27 1.615-.284 1.605-.283 1.59-.299 1.567-.298 1.572-.318 1.543-.317 1.541-.33 1.516-.331 1.504-.348 1.482-.346 1.474-.361 1.455-.365 1.436-.371 1.41-.385 1.405-.383 1.381-.397 1.367-.402 1.341-.4 1.325-.42 1.308-.416 1.292-.436 1.263-.429 1.244-.433 1.224-.447 1.204-.444 1.172-.46 1.159-.459 1.14-.462 1.104-.471 1.1-.479 1.061-.472 1.048-.484 1.023-.48.996-.504.972-.486.95-.498.923-.506.907-.504.87-.51.843-.514.833-.512.791-.508.77-.523.754-.517.719-.527.702-.524.668-.523.646-.529.62-.52.593-.527.564-.53.543-.523.508-.528.485-.524.463-.525.436-.534.409-.52.385-.52.354-.522.329-.52.313-.512.276-.518.26-.513.226-.507.21-.509.187-.505.159-.51.136-.504.114-.508.086-.502.068-.495.045-.501.016-.494-.005-.494-.02-.494-.052-.492-.072-.492-.095-.488-.124-.514-.145-.522-.176-.513-.2-.521-.223-.52-.252-.518-.287-.518-.301-.516-.332-.52-.359-.515-.384-.512-.414-.525-.436-.514-.45-.488-.464-.492-.501-.496-.521-.486-.538-.494-.576-.482-.592-.484-.616-.476-.634-.474-.668-.474-.683-.47-.707-.465-.726-.459-.735-.446-.745-.436-.768-.438-.792-.428-.814-.434-.836-.415-.846-.416-.866-.419-.892-.406-.905-.407-.924-.397-.941-.392-.964-.386-.974-.38-1-.38-1.014-.377-1.039-.36-1.048-.364-1.065-.356-1.08-.343-1.096-.352-1.118-.333-1.129-.332-1.139-.324-1.157-.319-1.168-.313-1.188-.305-1.205-.299-1.223-.295-1.23-.288-1.245-.28-1.262-.28-1.272-.26-1.276-.26-1.296-.254-1.315-.25-1.31-.24-1.327-.232-1.339-.226-.94-.155-.948-.147-.95-.144" style="fill:none;stroke:red;stroke-width:1.99999;stroke-linecap:round;stroke-linejoin:round;stroke-miterlimit:4;stroke-dasharray:none;stroke-opacity:1;visibility:visible"/><path d="m608.95 122.405 1.296.193 1.38.224 1.377.224 1.362.236 1.349.24 1.341.256 1.328.256 1.314.26 1.304.276 1.293.28 1.283.287 1.262.29 1.256.293 1.231.304 1.22.318 1.205.319 1.198.323 1.178.33 1.17.34 1.145.34 1.143.359 1.11.359 1.107.358 1.09.374 1.065.377 1.057.38 1.041.393 1.016.394 1.007.404.992.402.973.423.947.421.935.426.918.43.899.442.875.449.86.45.838.449.819.468.807.468.784.469.76.487.744.489.726.484.699.499.677.506.662.507.632.513.614.526.596.525.574.533.542.536.534.543.5.552.48.555.457.56.436.568.41.568.386.585.363.588.334.588.303.6.29.599.251.602.234.614.185.56.16.565.144.573.116.566.095.58.069.576.041.576.026.584-.01.585-.018.584-.052.58-.083.587-.097.582-.124.578-.15.609-.178.599-.202.6-.234.593-.254.601-.277.592-.307.586-.325.588-.359.586-.377.583-.397.579-.426.577-.45.573-.484.592-.508.586-.534.573-.57.577-.583.578-.605.573-.638.57-.657.566-.677.564-.711.557-.728.548-.752.548-.775.555-.83.55-.843.553-.879.552-.892.548-.917.537-.957.543-.971.528-.996.525-1.01.524-1.047.517-1.066.51-1.082.514-1.114.502-1.133.493-1.152.487-1.185.48-1.195.478-1.224.474-1.24.476-1.263.45-1.29.463-1.307.44-1.325.444-1.338.435-1.372.424-1.382.42-1.391.413-1.415.404-1.436.404-1.448.384-1.472.382-1.484.38-1.504.364-1.517.358-1.533.356-1.552.341-1.567.33-1.576.329-1.595.325-1.597.3-1.612.3-1.628.293-1.64.287-1.655.272-1.662.261-1.683.262-1.683.245-1.698.236-1.707.23-1.716.22-1.712.214-1.739.201-1.732.188-1.737.176-1.745.174-1.758.162-1.76.158-1.765.145-1.77.13-1.775.12-1.78.113-1.784.108-1.788.097-1.778.08-1.786.072-1.79.064-1.788.056-1.78.04-1.788.035-1.784.021-1.792.013-1.78.007-1.78-.012-1.773-.012-1.777-.028-1.77-.037-1.758-.05-1.757-.053-1.752-.07-1.748-.073-1.74-.086-1.734-.099-1.725-.101-1.719-.126-1.71-.124-1.7-.137-1.694-.143-1.677-.153-1.673-.167-1.66-.173-1.64-.183-1.538-.18-1.53-.196-1.516-.197-1.504-.2M501.43 191.772l-1.507-.276-1.488-.296-1.472-.3-1.453-.305-1.44-.315-1.423-.325-1.409-.331-1.38-.341-1.367-.352-1.348-.36-1.325-.359-1.308-.38-1.283-.376-1.257-.388-1.243-.39-1.224-.403-1.198-.41-1.175-.414-1.163-.423-1.128-.425-1.12-.44-1.092-.443-1.066-.443-1.043-.45-1.015-.463-1.002-.47-.978-.477-.95-.478-.927-.49-.91-.489-.885-.499-.852-.504-.833-.516-.81-.506-.786-.523-.761-.53-.736-.527-.703-.538-.68-.54-.664-.549-.637-.556-.61-.557-.58-.57-.562-.566-.534-.57-.5-.582-.48-.583-.452-.592-.43-.593-.395-.596-.37-.61-.346-.6-.308-.608-.287-.61-.26-.61-.228-.616-.205-.622-.179-.623-.144-.621-.122-.635-.086-.632-.058-.625-.036-.632-.003-.63.02-.628.057-.602.075-.606.097-.593.124-.601.156-.598.176-.592.2-.59.224-.582.247-.584.273-.578.294-.579.318-.572.34-.568.362-.572.39-.561.41-.567.432-.564.46-.556.477-.552.5-.55.516-.554.547-.536.56-.54.586-.53.6-.527.618-.532.661-.538.696-.532.704-.533.725-.53.755-.526.768-.513.795-.514.813-.506.827-.515.86-.495.858-.502.89-.484.912-.49.921-.48.947-.473.973-.472.98-.475 1.005-.457 1.023-.457 1.028-.454 1.061-.45 1.072-.438 1.087-.438 1.11-.426 1.113-.428 1.133-.42 1.15-.412 1.158-.402 1.179-.398 1.198-.4 1.198-.385 1.226-.379 1.235-.385 1.25-.361 1.263-.366 1.276-.357 1.284-.357 1.3-.34 1.311-.346 1.32-.324 1.328-.325 1.347-.317 1.348-.317 1.374-.3 1.367-.305 1.387-.291 1.406-.284 1.406-.282 1.409-.268 1.419-.261 1.442-.263 1.44-.25 1.439-.24 1.453-.238 1.466-.228 1.472-.232 1.474-.21 1.49-.204 1.492-.207 1.492-.197 1.505-.187 1.508-.175 1.513-.177 1.522-.165 1.516-.16 1.526-.144 1.523-.148 1.535-.131 1.542-.132 1.543-.12 1.544-.117 1.543-.106 1.552-.098 1.553-.092 1.552-.078 1.553-.074 1.55-.072 1.556-.058 1.556-.056 1.562-.046 1.55-.042 1.552-.033 1.556-.021 1.556-.018 1.556-.004 1.556.003h1.553l1.545.021 1.55.019 1.537.027 1.542.045 1.53.043 1.534.053 1.53.055 1.524.068 1.522.077 1.518.081 1.506.094 1.508.096 1.504.106 1.498.112 1.484.12 1.484.13 1.474.136 1.378.137 1.368.14 1.356.143 1.282.144" style="fill:none;stroke:red;stroke-width:1.99999;stroke-linecap:round;stroke-linejoin:round;stroke-miterlimit:4;stroke-dasharray:none;stroke-opacity:1;visibility:visible"/><path d="m600.121 124.318-1.435-.167-1.442-.157-1.452-.145-1.459-.14-1.464-.128-1.479-.123-1.48-.121-1.484-.114-1.498-.097-1.495-.095-1.507-.086-1.502-.08-1.51-.079-1.509-.063-1.513-.05-1.523-.054-1.524-.046-1.53-.026-1.523-.03-1.54-.019-1.53-.01-1.537-.003-1.539-.002-1.54.015-1.537.023-1.536.02-1.547.032-1.54.049-1.542.045-1.543.056-1.54.063-1.543.067-1.536.08-1.546.093-1.534.09-1.526.103-1.534.103-1.529.119-1.517.128-1.523.133-1.51.139-1.518.14-1.508.152-1.513.165-1.498.163-1.49.181-1.49.179-1.485.188-1.478.193-1.475.205-1.459.212-1.458.214-1.446.23-1.438.227-1.44.239-1.42.245-1.424.253-1.402.255-1.406.264-1.391.277-1.376.278-1.37.286-1.365.292-1.348.3-1.341.302-1.319.308-1.321.314-1.303.326-1.29.334-1.28.334-1.27.345-1.25.348-1.247.357-1.23.358-1.211.362-1.198.371-1.19.38-1.171.39-1.148.385-1.145.389-1.124.403-1.107.401-1.1.41-1.075.415-1.064.418-1.041.425-1.035.433-1.002.434-1 .441-.974.437-.954.448-.931.45-.92.454-.903.463-.878.461-.854.468-.846.472-.82.475-.803.481-.781.48-.763.483-.739.493-.722.479-.694.5-.67.49-.651.498-.632.493-.612.503-.583.504-.566.501-.54.51-.522.504-.497.506-.475.51-.442.506-.431.514-.403.508-.382.502-.354.516-.336.502-.3.502-.286.512-.27.502-.232.5-.221.502-.195.498-.165.497-.144.495-.127.493-.1.499-.089.54-.059.54-.032.542-.002.546.02.54.052.536.073.54.101.54.134.55.166.536.195.547.216.547.236.528.268.524.299.526.316.526.361.532.375.532.41.534.443.53.468.528.49.528.535.524.551.528.587.525.585.499.615.498.634.494.667.496.695.489.716.485.742.478.778.492.792.476.826.469.84.465.875.464.892.459.908.45.935.445.949.44.984.429 1.003.428 1.021.428 1.052.42 1.075.413 1.089.408 1.117.4 1.14.39 1.159.39 1.172.372 1.207.382 1.224.37 1.248.367 1.265.35 1.29.353 1.307.337 1.332.336 1.342.324 1.362.327 1.382.31 1.402.304 1.416.296 1.43.287 1.474.281 1.326.252" style="fill:none;stroke:red;stroke-width:1.99999;stroke-linecap:round;stroke-linejoin:round;stroke-miterlimit:4;stroke-dasharray:none;stroke-opacity:1;visibility:visible"/><path d="M511.04 189.712v.124M502.026 188.395l.061-.019.102-.021.093-.03.092-.023.084-.022" style="fill:none;stroke:red;stroke-width:.666665;stroke-linecap:round;stroke-linejoin:round;stroke-miterlimit:4;stroke-dasharray:none;stroke-opacity:1;visibility:visible"/><path d="m502.458 188.28.195-.067.2-.045.217-.048.219-.04.214-.032.224-.023.228-.024.226-.006.217-.008.225.002.218.011.208.007.218.029.203.027M509.47 188.7l-1.217-.197" style="fill:none;stroke:red;stroke-width:1.99999;stroke-linecap:round;stroke-linejoin:round;stroke-miterlimit:4;stroke-dasharray:none;stroke-opacity:1;visibility:visible"/><path d="m506.68 188.26-1.21-.196" style="fill:none;stroke:red;stroke-width:.666665;stroke-linecap:round;stroke-linejoin:round;stroke-miterlimit:4;stroke-dasharray:none;stroke-opacity:1;visibility:visible"/><path d="m509.47 188.7.201.033.187.046.185.05.16.056.163.06.139.07.134.085.107.076.115.112.084.124.049.09.032.102.013.107M502.93 191.409l4.004.647M502.93 191.409l-.201-.035-.183-.045-.19-.053-.16-.054M509.214 192.019l-.11.02-.222.032-.225.03-.228.017-.224.005-.226.01h-.217l-.215-.014-.212-.017-.202-.019-.198-.028" style="fill:none;stroke:red;stroke-width:1.99999;stroke-linecap:round;stroke-linejoin:round;stroke-miterlimit:4;stroke-dasharray:none;stroke-opacity:1;visibility:visible"/><path d="m608.947 122.321.003.084" style="fill:none;stroke:red;stroke-width:.666665;stroke-linecap:round;stroke-linejoin:round;stroke-miterlimit:4;stroke-dasharray:none;stroke-opacity:1;visibility:visible"/><path d="m607.423 121.44-1.055-.143M607.423 121.44l.179.028.176.03.162.035.15.044.142.048.138.055.114.053.118.063.097.07.09.086.06.079.051.084.04.098.007.108M600.987 121.178l.16-.044.172-.05.176-.045.192-.04.19-.022.191-.031.192-.015.199-.014.201-.015h.188l.203.004.192.004.179.01.176.02.166.02M607.345 124.245l-.183.02-.201.023-.19.014-.2.007-.202.005h-.193l-.192-.001-.195-.013-.193-.02-.184-.019M601.755 123.773l-.19-.03-.165-.026-.169-.039-.15-.04-.127-.044M601.755 123.773l3.656.488" style="fill:none;stroke:red;stroke-width:1.99999;stroke-linecap:round;stroke-linejoin:round;stroke-miterlimit:4;stroke-dasharray:none;stroke-opacity:1;visibility:visible"/><path d="m600.12 124.318 4.478-1.638" style="fill:none;stroke:red;stroke-width:.666665;stroke-linecap:round;stroke-linejoin:round;stroke-miterlimit:4;stroke-dasharray:none;stroke-opacity:1;visibility:visible"/><path d="m603.764 120.96 2.604.337" style="fill:none;stroke:red;stroke-width:1.99999;stroke-linecap:round;stroke-linejoin:round;stroke-miterlimit:4;stroke-dasharray:none;stroke-opacity:1;visibility:visible"/><path d="m500.362 205.843.093-.139.048-.142.024-.146M491.767 205.522l.03.159.066.156.121.152.155.146.204.14.236.131.28.119.316.11.339.098.374.082.392.078.42.054.424.044.446.023.446.008.444-.008.446-.023.44-.044.422-.05.408-.071.386-.085.361-.1.325-.112.299-.115.264-.133.232-.146.18-.14.139-.152M605.803 151.063l-.041.025-.055.008h-.05l-.06-.016-.12-.045-.11-.077-.13-.099-.153-.125M600.517 149.69l.204-.12.23-.092.249-.07.258-.04.282-.018.297.003.31.032.305.061.313.084.32.113.323.131.316.15.305.175.296.196.287.211.273.228M603.503 147.712l.3-.188.31-.14.31-.117.324-.078.32-.048.313-.005.315.025.31.059.294.097.283.132.269.16.25.198.23.224.21.25.185.282.164.298M607.89 148.861l.072.176.037.164.014.137-.006.131-.013.06-.025.055-.034.041-.041.043M605.803 151.063l2.09-1.395M560.215 176.352l.253-.15.274-.118.284-.095.305-.062.284-.036h.3l.304.03.308.051.283.076.276.1.26.119.261.138.248.147.237.181.222.191.217.2.212.232.21.252.18.263.17.284.157.314.146.344.109.346.081.361M606.82 145.511l.127-.067.138-.05.162-.044.19-.015.204-.015h.216l.24.023.252.03.266.047.278.058.284.069.298.085.3.1.301.104.307.119.312.135.296.133.302.153.294.146.29.16.271.17.273.17.248.17.236.178.223.177.201.17.186.177.165.169M610.913 151.553l.31-.224.298-.24.296-.273.279-.294.28-.304.254-.326.25-.351.228-.352.208-.365.186-.382.176-.378M509.81 215.385l-2.848 1.904M509.81 215.385l.05-.045.045-.066.044-.061.016-.08.026-.157-.013-.17-.039-.193-.07-.207M506.043 216.962l.177.144.17.11.152.074.144.05.072.006h.072l.064-.02.068-.036M500.892 215.61l.21-.116.237-.09.261-.063.288-.036.308-.008.32.028.333.053.355.076.352.105.367.132.368.156.365.183.36.203.355.221.338.241.334.267M504.97 212.914l.336-.207.347-.161.352-.123.358-.084.362-.041h.353l.356.041.339.084.328.118.316.165.298.193.274.244.262.268.23.299.204.336.184.36M558.007 184.968l.01.079.006.072.015.129.004.13v.073l.01.088-.014.33-.044.327-.063.297-.09.28-.107.263-.132.253-.162.252-.186.234-.24.229-.259.204M509.827 215.377h0M605.258 149.882l-.1.053-.123.054-.142.038-.168.034-.175.026-.188.018M602.855 149.458l.117-.06.151-.05.168-.042.195-.032.206-.02.21-.012h.224l.212.012.212.028.196.035.178.045.155.05.124.058.1.065.06.067.025.072-.008.072-.046.072-.076.064M602.69 148.58l-.097-.007-.09.02-.088.047" style="fill:none;stroke:#00ff4a;stroke-width:.999997;stroke-linecap:round;stroke-linejoin:round;stroke-miterlimit:4;stroke-dasharray:none;stroke-opacity:1;visibility:visible"/><path d="m560.57 185.608-.188.315-.2.273-.203.236-.208.212-.242.215-.288.214" style="fill:none;stroke:#00ff4a;stroke-width:1.99999;stroke-linecap:round;stroke-linejoin:round;stroke-miterlimit:4;stroke-dasharray:none;stroke-opacity:1;visibility:visible"/><path d="M557.246 187.775h0M560.215 184.857l.033.004.027.013.025.008.027.012.027.02.032.022M560.385 184.936l.056.041.052.052.07.126.045.118.013.118-.013.113-.038.104M605.131 340.313l.087-.068.112-.047.062-.012.075-.006h.163l.085.006.1.012.095.015.108.017.109.027.11.027.12.032.12.041.106.03.107.04.216.09.204.085.194.103.18.104.168.11.146.117.13.138.12.154.044.092.034.088.033.094.01.103.003.104-.002.103-.024.126-.034.119-.056.115-.058.118-.063.118-.079.106-.178.206M558.161 385.846l1.348.367.624.173 1.439.399M561.572 386.785l.13.045.14.072.123.09.123.112.099.121.078.135.068.144.034.142.012.16-.02.15-.019.08-.032.061-.05.07-.046.05M555.911 389.543h0" style="fill:none;stroke:#00ff4a;stroke-width:.999997;stroke-linecap:round;stroke-linejoin:round;stroke-miterlimit:4;stroke-dasharray:none;stroke-opacity:1;visibility:visible"/><path d="m559.811 388.531.125-.059.118-.06.096-.06.093-.057.143-.124.109-.13.056-.08.039-.077.03-.093.02-.092M557.146 386.742l-.123.06-.121.065-.096.068-.093.064-.143.131-.113.127-.052.07-.039.068-.039.088-.012.086M557.146 386.742l.23-.081.242-.059.261-.055.268-.03.278-.016.273.006.277.024.26.044.248.056.238.083.216.083.197.105.161.117.136.126.1.126.072.148.038.138v.142M556.315 387.57v.15l.04.145.073.144.11.137.145.132.175.116.205.105.224.083.253.073M559.707 388.572l.052-.02.052-.021" style="fill:none;stroke:#00ff4a;stroke-width:.666665;stroke-linecap:round;stroke-linejoin:round;stroke-miterlimit:4;stroke-dasharray:none;stroke-opacity:1;visibility:visible"/><path d="M560.495 185.047h0M506.596 215.729l.116-.093.072-.096.024-.106-.017-.098-.066-.096-.104-.094-.145-.085-.181-.064-.214-.059-.236-.046-.252-.028-.272-.006-.257.006-.263.021-.252.04-.236.056-.2.075-.172.078-.129.091-.09.09-.055.105v.101M504.874 216.037l.248.012.25-.007.249-.017.234-.032.22-.053.204-.059.174-.073.144-.079M500.734 221.066l-.004.47-.035.491-.058.499-.078.504-.104.508-.133.513-.155.511M500.809 226.295l-.021-.217-.038-.223-.068-.239-.089-.25-.121-.263-.142-.27-.161-.271M559.667 184.861l.548-.004M558.007 392.393v.004l-.01.01-.003.006v.005l-.011.006M558.042 392.324l-.004.003-.005.013-.011.013-.007.015-.004.013-.004.012M556.958 389.823l.15.09.145.105.136.117.133.128.101.112.102.127.09.132.071.122.064.123.056.119.045.112.034.105.044.185.025.175.007.177-.007.179-.039.187-.03.1-.044.106M555.95 389.543l.175.003.169.017.157.041.159.054.164.065.185.1M555.099 389.879l.116-.107.124-.072.132-.062.132-.047.156-.04.19-.008" style="fill:none;stroke:#00ff4a;stroke-width:.999997;stroke-linecap:round;stroke-linejoin:round;stroke-miterlimit:4;stroke-dasharray:none;stroke-opacity:1;visibility:visible"/><path d="m558.052 392.324-.01.012-.005.008-.005.01-.01.014-.011.013-.004.012M606.775 145.542l.044-.03" style="fill:none;stroke:#00ff4a;stroke-width:.999997;stroke-linecap:round;stroke-linejoin:round;stroke-miterlimit:4;stroke-dasharray:none;stroke-opacity:1;visibility:visible"/><path d="m606.677 154.421 4.236-2.868" style="fill:none;stroke:#00ff4a;stroke-width:1.99999;stroke-linecap:round;stroke-linejoin:round;stroke-miterlimit:4;stroke-dasharray:none;stroke-opacity:1;visibility:visible"/><path d="M605.066 147.146v-.004M556.754 188.208l-.112.072M613.624 148.231h0M603.36 147.815l.05-.039.091-.065M559.923 176.58l.123-.104.169-.125M605.131 340.313h0M604.63 340.808l.501-.496" style="fill:none;stroke:#00ff4a;stroke-width:.999997;stroke-linecap:round;stroke-linejoin:round;stroke-miterlimit:4;stroke-dasharray:none;stroke-opacity:1;visibility:visible"/><path d="m604.575 345.92 3.103-3.101" style="fill:none;stroke:#00ff4a;stroke-width:1.99999;stroke-linecap:round;stroke-linejoin:round;stroke-miterlimit:4;stroke-dasharray:none;stroke-opacity:1;visibility:visible"/><path d="m559.254 385.755.127-.059M560.525 185.693h0M500.313 224.233h0M503.783 446.64l-.079-5.85" style="fill:none;stroke:#00ff4a;stroke-width:.999997;stroke-linecap:round;stroke-linejoin:round;stroke-miterlimit:4;stroke-dasharray:none;stroke-opacity:1;visibility:visible"/><path d="m500.734 221.066-.072-5.307" style="fill:none;stroke:#00ff4a;stroke-width:1.99999;stroke-linecap:round;stroke-linejoin:round;stroke-miterlimit:4;stroke-dasharray:none;stroke-opacity:1;visibility:visible"/><path d="m500.988 225.942-.005.003M554.62 181.175l.124.019.281.088.282.104.281.122.261.151.266.173.246.19.244.202.12.112.12.122.116.117.108.112.099.112.09.107.091.104.128.136.112.138.118.13.36.382.401.339.453.308.211.105.227.098.234.078.26.059h.012M557.815 392.643v.005M555.099 389.879l-.408.407M559.483 390.938l-.007.008M557.786 184.109h.005M561.495 390.528h0M561.43 391.175h0M551.306 182.248l-.205-.039M563.4 179.436l-.139.096-.129.107-.133.124-.135.136-.12.13-.124.143-.116.159-.12.164-.21.328-.2.358-.197.382-.18.397-.098.23-.083.23-.093.236-.076.244-.095.277-.077.282-.079.29-.072.288M564.475 179.155l-.18-.023-.181.014-.166.032-.161.05-.187.091-.201.117M554.585 177.34h-.172l-.168.015-.148.037-.157.053-.162.075-.192.11M553.586 177.632l-.133.105-.135.1-.14.127-.13.13-.125.138-.116.143-.128.15-.116.163-.213.327-.203.354-.192.379-.18.4-.1.224-.088.224-.09.247-.078.234-.084.28-.086.278-.082.288-.066.288M557.776 177.987l.308.035.313.045.314.045.314.051.287.053.27.048.26.052.238.051.203.044.164.048.136.044.104.055.068.05.018.038.004.028v.041l-.009.032-.027.04-.041.043-.092.073-.132.088-.161.084-.194.083-.226.088-.232.077-.259.068-.247.056-.256.047-.269.03-.268.022-.261.008-.255-.015-.247-.033-.22-.044-.224-.059-.221-.084-.195-.105-.177-.116-.147-.124-.109-.131-.077-.128-.046-.14-.009-.072.01-.064.009-.064.036-.068.038-.063.058-.057.069-.048.08-.039.095-.037.106-.039.11-.014.126-.023.135-.012.136-.008h.295l.145.012.152.008M560.962 184.6h0M561.035 184.652v.007h.004" style="fill:none;stroke:#00ff4a;stroke-width:.999997;stroke-linecap:round;stroke-linejoin:round;stroke-miterlimit:4;stroke-dasharray:none;stroke-opacity:1;visibility:visible"/><path d="m560.923 184.038-.02.128-.012.133.012.123.03.112.017.047.028.032.026.026.031.014M551.1 182.21l-.01.035-.009.03v.028l-.005.034v.03l-.005.04M554.083 389.997l-.045-.053-.042-.054-.04-.04-.037-.049-.039-.045-.056-.056" style="fill:none;stroke:#00ff4a;stroke-width:.999997;stroke-linecap:round;stroke-linejoin:round;stroke-miterlimit:4;stroke-dasharray:none;stroke-opacity:1;visibility:visible"/><path d="m553.824 389.7.043.083.036.07.036.06.038.05.052.049.058.032M555.158 386.33l-.07-.013h-.063l-.064.021-.075.024-.068.041-.075.047-.07.065-.067.064-.065.082-.063.078-.068.09-.057.09-.12.203-.103.223-.055.126-.045.124-.047.13-.044.124-.036.145-.036.141-.032.142-.026.129M553.809 388.407l-.028.159-.013.13-.02.234-.007.19.017.184.02.183.026.104.021.11M551.746 176.984l-.159-.01-.157.018-.163.05-.164.08-.157.097-.15.136-.15.146-.152.172-.136.176-.127.198-.125.217-.112.22-.12.241-.104.248-.104.255-.084.27-.085.297-.083.308-.064.306-.059.31-.048.344-.036.349-.024.335-.005.332M549.178 182.08v.239l.016.196.004.094.015.132.03.263.048.26.064.276" style="fill:none;stroke:#00ff4a;stroke-width:.999997;stroke-linecap:round;stroke-linejoin:round;stroke-miterlimit:4;stroke-dasharray:none;stroke-opacity:1;visibility:visible"/><path d="m468.684 165.596.236-.308.24-.308.248-.3.257-.295.248-.276.258-.262.246-.246.246-.23.232-.206.233-.189.207-.156.202-.136.19-.108.17-.083.151-.053.137-.019h.114" style="fill:none;stroke:#00ff4a;stroke-width:1.99999;stroke-linecap:round;stroke-linejoin:round;stroke-miterlimit:4;stroke-dasharray:none;stroke-opacity:1;visibility:visible"/><path d="m468.684 165.596-.14.176-.143.156-.148.152-.157.124-.153.107-.155.085-.165.064-.172.053-.163.027-.156.01-.161-.005-.172-.026-.164-.038-.163-.054-.159-.072-.152-.087-.161-.112-.15-.12-.145-.139-.122-.152-.134-.181-.112-.195-.09-.204-.072-.218M466.691 161.393l-.24-.027-.23.007-.215.039-.204.08-.179.105-.161.141-.146.171-.122.204-.098.236-.08.253-.052.283-.025.308v.32l.019.343.045.35.073.368.098.374M463.751 365.54l-.13.092-.14.053-.151.027-.162-.008-.154-.039-.151-.057-.15-.079-.137-.106-.125-.104-.112-.127-.11-.135-.093-.153-.085-.153-.065-.163-.052-.18-.042-.177-.024-.168-.008-.178.014-.17.018-.183.034-.177.046-.179.059-.175.073-.177.076-.177.088-.171.098-.168.105-.172.105-.168.115-.164.121-.157.122-.156.132-.166.14-.15.136-.144.129-.124.119-.112.117-.098.1-.074.09-.052.087-.024.066-.01.05.015.039.039.027.057.018.081.014.095.01.107M464.02 365.18l-.036.077-.043.067-.037.06-.045.05-.046.055-.062.051M459.496 159.324l-.01-.085-.034-.058-.064-.036-.08-.004-.103.019-.132.043-.146.066-.168.1-.183.12-.203.142-.224.17-.234.19-.25.21-.26.23-.27.241-.282.267-.281.276-.293.288-.291.301-.295.313-.294.318M561.495 390.528l-.02.11-.016.106-.016.195-.013.164v.161l.002.128.015.13.021.129.031.133.044.133.068.114.045.054.046.04.054.034.059.017" style="fill:none;stroke:#00ff4a;stroke-width:.999997;stroke-linecap:round;stroke-linejoin:round;stroke-miterlimit:4;stroke-dasharray:none;stroke-opacity:1;visibility:visible"/><path d="m562.307 388.675-.108.112-.096.136-.085.137-.087.15-.07.146-.077.158-.057.149-.059.16-.054.168-.043.168-.047.185-.029.184M566.677 179.73l-.17-.013-.169.024-.177.069-.184.103-.17.122-.162.163-.167.187-.156.21-.144.228-.136.236-.132.26-.117.278-.112.28-.104.297-.092.307-.087.313-.077.339-.064.349-.052.343-.036.341-.023.383-.01.366v.254l.01.125.003.065.01.078" style="fill:none;stroke:#00ff4a;stroke-width:.999997;stroke-linecap:round;stroke-linejoin:round;stroke-miterlimit:4;stroke-dasharray:none;stroke-opacity:1;visibility:visible"/><path d="m564.159 185.436.024.31.055.286.05.257.066.232.077.199.081.184.091.159.099.137.11.123.123.1.147.081.158.05M661.04 418.906h0M661.63 418.318h0M652.215 199.571l-.117-.413-.092-.398-.07-.385-.054-.376-.035-.36v-.332l.021-.31.04-.294.064-.253.088-.23.103-.196.123-.165.153-.13.164-.091.181-.054.198-.018.209.026M659.785 196.798l-.063.007-.077.036-.11.073-.131.1-.152.125-.17.154-.188.178-.208.207-.234.23-.232.257-.25.269-.266.287-.267.312-.265.31-.278.328-.276.327-.27.333" style="fill:none;stroke:#00ff4a;stroke-width:.999997;stroke-linecap:round;stroke-linejoin:round;stroke-miterlimit:4;stroke-dasharray:none;stroke-opacity:1;visibility:visible"/><path d="m652.215 199.571.088.23.097.223.128.208.146.2.153.166.16.162.179.135.19.12.18.1.183.073.19.066.198.046.196.026.192.008.19-.008.191-.034.2-.044.191-.068.192-.092.173-.104.198-.136.181-.152.176-.174.161-.191M661.434 420.499l.007-.048.009-.064.019-.084.03-.105.019-.106.027-.126.028-.134.02-.156.016-.145.013-.16.015-.17.004-.175v-.375l-.004-.196-.015-.203-.005-.22-.022-.226-.013-.222-.01-.226-.014-.254-.013-.252-.007-.254.007-.243M667.193 198.4l.007.281.028.311.054.335.082.357.104.38.133.4.148.417.179.432.189.439.215.45.232.46.245.46.27.455.277.459.285.455M666.957 207.5l.013-.039.042-.061.064-.09.09-.115.116-.144.148-.164.17-.191.192-.217.204-.235.237-.248.25-.277.269-.288.281-.3.304-.314.304-.326M467.675 166.44h0M564.135 184.886h0M554.122 390.062l-.016-.017-.019-.04-.004-.014h-.009M554.107 390.052l-.02-.008M464.3 365.257l-.615-.168M459.302 168.183h0M459.703 167.827l-.917-.168M463.686 365.089h0M464.208 360.923h0v.007M466.691 161.393l.041.012M561.04 184.659h0M564.622 179.187h.01M562.83 388.432l.007.008M561.815 392.177l.013.007M566.677 179.73h.015M565.24 187.554h.003M666.061 206.395h0M661.434 420.499h0M661.544 416.354l.02-.832M667.193 198.4l.007-.243M667.16 198.19h0l.007-.008.013-.003.019-.009M653.191 195.593l.027.005M652.283 195.871h0M565.892 179.97h0M667.529 185.466l.02.143.057.142.098.143.145.145.181.132.223.132.256.115.297.115.314.104.346.093.375.075.384.068.405.052.418.032.42.026.426.01.427-.01.417-.02.404-.038.395-.048.372-.067.356-.076.32-.087.304-.102.263-.112.225-.116.19-.124.15-.14.113-.135.064-.144.027-.145M606.926 131.902l.02.117.056.118.09.116.123.117.164.107.198.105.221.097.253.091.283.077.299.075.324.059.34.054.352.036.368.026.365.014.372.006.37-.014.365-.016.354-.033.34-.05.326-.054.305-.067.281-.078.252-.086.231-.1.197-.1.166-.101.124-.116.101-.112.055-.127.025-.117" style="fill:none;stroke:#00ff4a;stroke-width:.999997;stroke-linecap:round;stroke-linejoin:round;stroke-miterlimit:4;stroke-dasharray:none;stroke-opacity:1;visibility:visible"/><path d="m491.767 205.522.013-.124.03-.13.053-.125.079-.126.093-.115.117-.113.139-.112.148-.108.18-.106.203-.102.205-.095.224-.083.263-.092.281-.078.287-.07.294-.064.336-.053.347-.048.352-.03.356-.029.307-.002h.308l.306.002.308.024.299.024.305.031.292.05.291.051.281.058.262.076.242.068.236.085.216.084.196.101.19.098.181.126.159.127.138.133.103.136.072.143.045.14.023.141" style="fill:none;stroke:#00ff4a;stroke-width:1.99999;stroke-linecap:round;stroke-linejoin:round;stroke-miterlimit:4;stroke-dasharray:none;stroke-opacity:1;visibility:visible"/><path d="m491.78 206.338-.013-.816M500.53 206.236l-.003-.82" style="fill:none;stroke:#00ff4a;stroke-width:.999997;stroke-linecap:round;stroke-linejoin:round;stroke-miterlimit:4;stroke-dasharray:none;stroke-opacity:1;visibility:visible"/><path d="m611.124 353.037-.008.137-.03.135-.053.133-.074.131-.084.124-.108.124-.115.12-.137.101-.159.118-.17.093-.182.095-.196.074-.217.08-.227.074-.235.049-.244.053-.254.04-.271.028-.267.011h-.272l-.281-.007-.272-.018-.277-.039-.268-.047-.207-.042-.204-.056-.197-.056-.187-.07-.188-.074-.207-.1-.188-.112-.178-.115-.166-.127-.132-.124-.113-.132-.096-.136-.072-.138-.052-.144-.032-.143-.005-.144M611.135 352.465l-.012.572M604.504 352.363l-.005.57M496.14 461.984h0M503.987 461.785h0M504.003 462.451l-.016.173-.032.182-.057.185-.08.17-.095.173-.13.168-.142.158-.161.148-.186.151-.2.137-.217.131-.239.117-.22.098-.237.086-.287.098-.294.081-.314.06-.308.052-.318.03-.328.013-.323.008-.32-.02-.323-.027-.317-.044-.312-.063-.293-.082-.284-.091-.272-.104-.255-.12-.23-.13-.211-.142-.191-.15-.17-.16-.142-.169-.117-.166-.09-.175-.076-.183-.045-.177-.013-.112-.006-.11M503.987 461.785l.016.667M496.14 461.984l.013.661M668.656 433.245l-.016.163-.037.173-.062.163-.084.156-.105.15-.124.147-.144.133-.157.131-.182.13-.197.114-.216.108-.227.093-.253.086-.261.078-.276.058-.274.054-.301.039-.3.019-.308.014-.303-.006-.314-.02-.314-.039-.306-.053-.302-.066-.236-.058-.229-.071-.223-.083-.208-.08-.202-.1-.238-.125-.216-.137-.197-.151-.175-.156-.145-.159-.132-.162-.104-.163-.079-.18-.057-.17-.032-.177-.01-.174M668.673 432.607l-.017.637M661.124 432.29l-.013.635M457.631 375.283h0M464.534 375.053h0M464.547 375.641l-.007.144-.025.152-.055.143-.064.14-.085.134-.103.138-.129.133-.136.115-.155.124-.172.112-.19.106-.2.098-.224.1-.234.074-.246.072-.25.07-.266.046-.274.05-.282.026-.282.018h-.29l-.286-.006-.284-.022-.278-.036-.224-.039-.208-.045-.21-.054-.202-.06-.192-.07-.215-.099-.21-.103-.191-.114-.162-.124-.124-.107-.106-.11-.096-.111-.08-.118-.068-.129-.054-.14-.028-.133-.013-.148M464.534 375.053l.013.588M457.631 375.283l.016.585" style="fill:none;stroke:#00ff4a;stroke-width:1.99999;stroke-linecap:round;stroke-linejoin:round;stroke-miterlimit:4;stroke-dasharray:none;stroke-opacity:1;visibility:visible"/><path d="M600.517 149.69h0M603.503 147.712h0M552.337 181.567h.004M500.988 225.942h0M614.23 132.64h0M606.92 132.594h0" style="fill:none;stroke:#00ff4a;stroke-width:.999997;stroke-linecap:round;stroke-linejoin:round;stroke-miterlimit:4;stroke-dasharray:none;stroke-opacity:1;visibility:visible"/><path d="m559.24 187.074-.141.093-.134.079-.132.072-.122.057-.143.064-.159.066" style="fill:none;stroke:#00ff4a;stroke-width:1.99999;stroke-linecap:round;stroke-linejoin:round;stroke-miterlimit:4;stroke-dasharray:none;stroke-opacity:1;visibility:visible"/><path d="m557.434 385.953.1-.073.104-.051.103-.028.108-.01.109.01.119.023.085.022M559.529 390.902l-.007.007-.006.005-.007.005-.003.006-.016.009-.006.004" style="fill:none;stroke:#00ff4a;stroke-width:.999997;stroke-linecap:round;stroke-linejoin:round;stroke-miterlimit:4;stroke-dasharray:none;stroke-opacity:1;visibility:visible"/><path d="m557.54 388.655.263.061.281.03.28.021h.281l.282-.021.276-.038.261-.061.243-.075" style="fill:none;stroke:#00ff4a;stroke-width:.666665;stroke-linecap:round;stroke-linejoin:round;stroke-miterlimit:4;stroke-dasharray:none;stroke-opacity:1;visibility:visible"/><path d="m557.983 392.425-.027.043-.025.036-.027.033-.025.036-.028.039-.036.032" style="fill:none;stroke:#00ff4a;stroke-width:.999997;stroke-linecap:round;stroke-linejoin:round;stroke-miterlimit:4;stroke-dasharray:none;stroke-opacity:1;visibility:visible"/><path d="m560.215 176.352 36.437-24.105M603.503 147.712l3.272-2.17M568.73 180.103l37.948-25.681M541.76 198.352l-40.772 27.59M556.642 188.28l-2.933 1.985M507.803 211.04l-2.833 1.875M527.572 197.956l-15.548 10.29M552.337 181.567l-12.472 8.256" style="fill:none;stroke:#00ff4a;stroke-width:1.99999;stroke-linecap:round;stroke-linejoin:round;stroke-miterlimit:4;stroke-dasharray:none;stroke-opacity:1;visibility:visible"/><path d="m500.892 215.61-.23.15" style="fill:none;stroke:#00ff4a;stroke-width:.999997;stroke-linecap:round;stroke-linejoin:round;stroke-miterlimit:4;stroke-dasharray:none;stroke-opacity:1;visibility:visible"/><path d="m604.504 352.363.072-6.443M604.63 340.808l1.603-145.596M606.352 184.543l.325-30.121M606.775 145.542l.144-12.948M611.135 352.465l2.193-155.924M613.526 182.538l.704-49.897M601.297 149.379l1.119-.739" style="fill:none;stroke:#00ff4a;stroke-width:1.99999;stroke-linecap:round;stroke-linejoin:round;stroke-miterlimit:4;stroke-dasharray:none;stroke-opacity:1;visibility:visible"/><path d="m602.415 148.64.007-.005.012-.018.022-.008.018-.025.034-.023.04-.04.051-.046.059-.052.07-.063.071-.08.107-.09.104-.103.042-.032M603.052 148.055l.084-.068.09-.073.093-.072.041-.027" style="fill:none;stroke:#00ff4a;stroke-width:.999997;stroke-linecap:round;stroke-linejoin:round;stroke-miterlimit:4;stroke-dasharray:none;stroke-opacity:1;visibility:visible"/><path d="m559.24 187.074 3.083-2.096" style="fill:none;stroke:#00ff4a;stroke-width:1.99999;stroke-linecap:round;stroke-linejoin:round;stroke-miterlimit:4;stroke-dasharray:none;stroke-opacity:1;visibility:visible"/><path d="m558.785 178.106.043-.065.157-.224.243-.38.09-.142.095-.138.064-.086.064-.086.059-.084.146-.151.14-.141.038-.028" style="fill:none;stroke:#00ff4a;stroke-width:.999997;stroke-linecap:round;stroke-linejoin:round;stroke-miterlimit:4;stroke-dasharray:none;stroke-opacity:1;visibility:visible"/><path d="m559.254 385.755 45.376-44.947M562.93 387.534l41.644-41.613" style="fill:none;stroke:#00ff4a;stroke-width:1.99999;stroke-linecap:round;stroke-linejoin:round;stroke-miterlimit:4;stroke-dasharray:none;stroke-opacity:1;visibility:visible"/><path d="m558.161 385.846.21.044.21.023.163-.008.157-.02.157-.043.144-.06.051-.027M559.529 390.902l2.15-2.139M554.74 388.622l2.693-2.67" style="fill:none;stroke:#00ff4a;stroke-width:.999997;stroke-linecap:round;stroke-linejoin:round;stroke-miterlimit:4;stroke-dasharray:none;stroke-opacity:1;visibility:visible"/><path d="m496.14 461.984-4.36-255.646M503.987 461.785l-.204-15.145M503.704 440.79l-2.896-214.494M500.663 215.76l-.133-9.523M503.673 214.006l-1.95 1.297" style="fill:none;stroke:#00ff4a;stroke-width:1.99999;stroke-linecap:round;stroke-linejoin:round;stroke-miterlimit:4;stroke-dasharray:none;stroke-opacity:1;visibility:visible"/><path d="m500.983 225.945-.027.017-.032.028-.032.051-.036.05-.025.06-.02.058-.003.045v.035" style="fill:none;stroke:#00ff4a;stroke-width:.999997;stroke-linecap:round;stroke-linejoin:round;stroke-miterlimit:4;stroke-dasharray:none;stroke-opacity:1;visibility:visible"/><path d="m558.41 187.505-.344.133-.325.138-.314.137-.345.157-.333.16-.1.05h-.007" style="fill:none;stroke:#00ff4a;stroke-width:1.99999;stroke-linecap:round;stroke-linejoin:round;stroke-miterlimit:4;stroke-dasharray:none;stroke-opacity:1;visibility:visible"/><path d="m552.634 181.393.18-.079.253-.092.27-.066.273-.038.273-.02.291.012.28.032.165.034" style="fill:none;stroke:#00ff4a;stroke-width:.999997;stroke-linecap:round;stroke-linejoin:round;stroke-miterlimit:4;stroke-dasharray:none;stroke-opacity:1;visibility:visible"/><path d="m557.815 392.65-54.032 53.99M554.691 390.286l-50.987 50.504" style="fill:none;stroke:#00ff4a;stroke-width:1.99999;stroke-linecap:round;stroke-linejoin:round;stroke-miterlimit:4;stroke-dasharray:none;stroke-opacity:1;visibility:visible"/><path d="m559.477 390.947-.25.197-.247.214-.251.205-.205.195-.2.196-.123.15-.11.159-.107.161" style="fill:none;stroke:#00ff4a;stroke-width:.999997;stroke-linecap:round;stroke-linejoin:round;stroke-miterlimit:4;stroke-dasharray:none;stroke-opacity:1;visibility:visible"/><path d="m559.878 392.59.027.004h.025l.02-.004h.025l.027-.015.025-.012" style="fill:none;stroke:#00ff4a;stroke-width:1.99999;stroke-linecap:round;stroke-linejoin:round;stroke-miterlimit:4;stroke-dasharray:none;stroke-opacity:1;visibility:visible"/><path d="m564.622 179.187-.024-.01-.021-.007-.028-.006-.018-.005h-.025l-.03-.004M554.685 177.355h-.032l-.013-.007h-.035l-.02-.008M555.332 386.451l-.032-.032-.027-.03-.025-.02-.027-.013-.032-.012-.032-.013M464.776 361.534h0" style="fill:none;stroke:#00ff4a;stroke-width:.999997;stroke-linecap:round;stroke-linejoin:round;stroke-miterlimit:4;stroke-dasharray:none;stroke-opacity:1;visibility:visible"/><path d="M472.298 162.421h0" style="fill:none;stroke:#00ff4a;stroke-width:1.99999;stroke-linecap:round;stroke-linejoin:round;stroke-miterlimit:4;stroke-dasharray:none;stroke-opacity:1;visibility:visible"/><path d="M466.691 161.393h0" style="fill:none;stroke:#00ff4a;stroke-width:.999997;stroke-linecap:round;stroke-linejoin:round;stroke-miterlimit:4;stroke-dasharray:none;stroke-opacity:1;visibility:visible"/><path d="M460.266 160.213h0" style="fill:none;stroke:#00ff4a;stroke-width:1.99999;stroke-linecap:round;stroke-linejoin:round;stroke-miterlimit:4;stroke-dasharray:none;stroke-opacity:1;visibility:visible"/><path d="M459.496 159.324h0M562.83 388.432l-.087-.007-.085.007-.077.032-.084.04-.094.072-.097.1M566.677 179.73h0M660.68 419.483h0M659.785 196.798h0M666.957 207.5h0" style="fill:none;stroke:#00ff4a;stroke-width:.999997;stroke-linecap:round;stroke-linejoin:round;stroke-miterlimit:4;stroke-dasharray:none;stroke-opacity:1;visibility:visible"/><path d="m559.878 392.59-1.69-.464M564.475 179.155l-9.79-1.8" style="fill:none;stroke:#00ff4a;stroke-width:1.99999;stroke-linecap:round;stroke-linejoin:round;stroke-miterlimit:4;stroke-dasharray:none;stroke-opacity:1;visibility:visible"/><path d="m561.04 184.659-2.5-.465" style="fill:none;stroke:#00ff4a;stroke-width:.999997;stroke-linecap:round;stroke-linejoin:round;stroke-miterlimit:4;stroke-dasharray:none;stroke-opacity:1;visibility:visible"/><path d="m555.332 386.451.165.181.164.171.171.15.133.1" style="fill:none;stroke:#00ff4a;stroke-width:1.99999;stroke-linecap:round;stroke-linejoin:round;stroke-miterlimit:4;stroke-dasharray:none;stroke-opacity:1;visibility:visible"/><path d="m554.392 390.575-.115-.23-.122-.227-.032-.056M554.122 390.052h-.016" style="fill:none;stroke:#00ff4a;stroke-width:.999997;stroke-linecap:round;stroke-linejoin:round;stroke-miterlimit:4;stroke-dasharray:none;stroke-opacity:1;visibility:visible"/><path d="M551.746 176.984h.007l.006.008h.018l.026.004.066.01.097.02.1.011.295.043.304.039.474.056.479.058.485.062.479.045M554.107 390.052l-51.277-14.156M494.635 373.631l-30.335-8.373M555.148 386.327l-52.37-14.373M494.566 369.702l-29.79-8.168M548.125 184.352l-88.421-16.525M475.035 162.923l-2.737-.501M551.73 176.984l-70.938-13.005M466.691 161.393l-6.425-1.18M457.631 375.283l-5.339-201.189M464.534 375.053l-.233-9.796M464.208 360.93l-4.224-181.053M459.496 159.324l-.176-7.67" style="fill:none;stroke:#00ff4a;stroke-width:1.99999;stroke-linecap:round;stroke-linejoin:round;stroke-miterlimit:4;stroke-dasharray:none;stroke-opacity:1;visibility:visible"/><path d="M464.208 360.93v.015l.004.025.005.04.019.052.033.065.042.075.058.068.086.088.096.077.112.058.113.041" style="fill:none;stroke:#00ff4a;stroke-width:.999997;stroke-linecap:round;stroke-linejoin:round;stroke-miterlimit:4;stroke-dasharray:none;stroke-opacity:1;visibility:visible"/><path d="m459.496 159.324.01.076.014.09.025.085.034.089.045.085.05.083.074.092.079.081.084.067.098.056.099.04.099.033.058.012M466.733 161.404l.183.04.225.07.227.094.217.11.232.14.236.16.232.165.22.185.172.156.17.16.163.167" style="fill:none;stroke:#00ff4a;stroke-width:1.99999;stroke-linecap:round;stroke-linejoin:round;stroke-miterlimit:4;stroke-dasharray:none;stroke-opacity:1;visibility:visible"/><path d="m469.01 162.851.119.125.117.122.125.113.13.119.154.132.167.12.17.102.058.032M562.05 388.938l.032-.04.224-.223" style="fill:none;stroke:#00ff4a;stroke-width:.999997;stroke-linecap:round;stroke-linejoin:round;stroke-miterlimit:4;stroke-dasharray:none;stroke-opacity:1;visibility:visible"/><path d="m561.828 392.183-.217-.03-.235-.011-.164-.01-.164.012-.144.022-.136.032-.135.049-.096.043-.018.005-.024.012-.019.01-.121.065-.172.09-.156.091M565.24 187.554l-.133-.041-.139-.06-.123-.079-.133-.11-.077-.077-.086-.088-.074-.088-.09-.092-.154-.178-.151-.184-.473-.535-.486-.49-.169-.146-.168-.132-.18-.116-.141-.09-.152-.075-.151-.058-.093-.029-.074-.019-.077-.017-.088-.027-.09-.021-.262-.052-.27-.057-.166-.034" style="fill:none;stroke:#00ff4a;stroke-width:1.99999;stroke-linecap:round;stroke-linejoin:round;stroke-miterlimit:4;stroke-dasharray:none;stroke-opacity:1;visibility:visible"/><path d="m564.633 179.187.187.064.217.06.235.067.249.069.252.067.233.05.227.063.235.059.121.022.059.008.017.004.012.01" style="fill:none;stroke:#00ff4a;stroke-width:.999997;stroke-linecap:round;stroke-linejoin:round;stroke-miterlimit:4;stroke-dasharray:none;stroke-opacity:1;visibility:visible"/><path d="m562.837 388.44 98.726 27.083M561.828 392.183l98.852 27.3M649.01 194.826l4.183.767M619.493 189.413l24.057 4.21M566.691 179.73l34.067 6.248M659.785 196.798l7.415 1.359M598.823 193.829l67.239 12.567M565.242 187.554l9.472 1.77M661.124 432.29l.31-11.79M661.564 415.522l5.393-208.022M667.2 198.156l.307-11.905M668.673 432.607l7.23-246.193" style="fill:none;stroke:#00ff4a;stroke-width:1.99999;stroke-linecap:round;stroke-linejoin:round;stroke-miterlimit:4;stroke-dasharray:none;stroke-opacity:1;visibility:visible"/><path d="m661.434 420.499-.005-.13-.022-.133-.048-.138-.058-.136-.059-.095-.07-.081-.071-.072-.086-.074-.096-.058-.094-.046-.144-.053M666.957 207.5l-.008-.117-.01-.12-.034-.118-.039-.105-.054-.108-.059-.1-.077-.09-.079-.077-.09-.081-.1-.064-.103-.05-.114-.046-.129-.028" style="fill:none;stroke:#00ff4a;stroke-width:.999997;stroke-linecap:round;stroke-linejoin:round;stroke-miterlimit:4;stroke-dasharray:none;stroke-opacity:1;visibility:visible"/><path d="m657.704 198.333.153-.143.191-.192.184-.182.175-.162.17-.157.155-.144.147-.127.11-.096.106-.084.097-.073.1-.059.172-.084.055-.024.081-.009.083-.007.102.007" style="fill:none;stroke:#00ff4a;stroke-width:1.99999;stroke-linecap:round;stroke-linejoin:round;stroke-miterlimit:4;stroke-dasharray:none;stroke-opacity:1;visibility:visible"/><path d="m655.415 197.13.148.17.167.165.174.156.168.142.175.127.184.116.187.099.192.085.196.067.194.045.207.03.188.011.12-.01M653.217 195.598l.175.04.21.07.207.094.2.105.224.143.223.164.22.176.216.197.178.17.176.184.168.189M667.529 185.466l.013-.119.032-.12.058-.117.082-.11.098-.105.109-.104.13-.098.151-.1.175-.091.192-.092.201-.085.214-.072.258-.071.263-.073.28-.052.281-.054.327-.044.337-.034.334-.019.342-.004.266-.01.268.01.262.01.306.025.302.036.298.038.284.046.28.06.266.065.256.064.24.079.232.085.214.097.182.086.164.1.151.098.136.104.119.106.104.121.088.127.058.129.035.13.004.12" style="fill:none;stroke:#00ff4a;stroke-width:1.99999;stroke-linecap:round;stroke-linejoin:round;stroke-miterlimit:4;stroke-dasharray:none;stroke-opacity:1;visibility:visible"/><path d="m667.507 186.251.023-.785M675.904 186.415l.017-.787" style="fill:none;stroke:#00ff4a;stroke-width:.999997;stroke-linecap:round;stroke-linejoin:round;stroke-miterlimit:4;stroke-dasharray:none;stroke-opacity:1;visibility:visible"/><path d="m606.926 131.902.013-.1.026-.09.04-.093.065-.098.08-.088.088-.09.115-.084.132-.084.136-.08.157-.072.17-.072.198-.07.207-.068.216-.058.232-.044.265-.056.27-.036.28-.037.289-.025.248-.011.254-.004h.268l.251.004.255.01.264.026.26.03.256.038.249.041.243.054.222.049.216.064.204.073.194.071.178.079.142.077.14.084.116.084.106.09.082.091.088.104.061.11.03.114.014.111" style="fill:none;stroke:#00ff4a;stroke-width:1.99999;stroke-linecap:round;stroke-linejoin:round;stroke-miterlimit:4;stroke-dasharray:none;stroke-opacity:1;visibility:visible"/><path d="m606.92 132.594.007-.692M614.23 132.64l.016-.695" style="fill:none;stroke:#00ff4a;stroke-width:.999997;stroke-linecap:round;stroke-linejoin:round;stroke-miterlimit:4;stroke-dasharray:none;stroke-opacity:1;visibility:visible"/><path d="m451.578 147.141.013-.107.022-.105.042-.096.067-.1.076-.096.099-.103.113-.089.132-.085.148-.086.164-.085.177-.08.198-.068.22-.077" style="fill:none;stroke:#00ff4a;stroke-width:1.99999;stroke-linecap:round;stroke-linejoin:round;stroke-miterlimit:4;stroke-dasharray:none;stroke-opacity:1;visibility:visible"/><path d="m451.598 147.86-.02-.719" style="fill:none;stroke:#00ff4a;stroke-width:.999997;stroke-linecap:round;stroke-linejoin:round;stroke-miterlimit:4;stroke-dasharray:none;stroke-opacity:1;visibility:visible"/><path d="m558.025 387.456.512.32.384-.32" style="fill:none;stroke:#00ff4a;stroke-width:.666665;stroke-linecap:round;stroke-linejoin:round;stroke-miterlimit:4;stroke-dasharray:none;stroke-opacity:1;visibility:visible"/><path d="m510.332 210.639.21.015.217.012h.22l.22-.006.216-.014.217-.016.203-.031.2-.033.188-.038.177-.045.161-.05.147-.055.132-.062.112-.06.09-.068.073-.069.053-.07.03-.074.011-.07M508.79 209.969l.008-.061.013-.062.023-.056.039-.057.045-.056.057-.057.064-.054.076-.049.087-.05.095-.05.102-.045.115-.042.127-.042.138-.039.139-.035.148-.03.17-.03.171-.024.178-.018.177-.01.161-.006.155-.004.157.004.156.009.154.012.157.013.153.02.15.027.145.03.139.03.126.037.118.04.113.044.101.044.099.051.09.059.083.062.071.063.052.07.033.063.024.066.01.068M508.79 209.969l.016.067.028.073.053.065.072.066.091.062.11.062.129.053.14.052.16.045.17.038.18.038.192.026.2.022M599.155 151.824l.21.015.217.012h.22l.221-.006.215-.013.216-.017.204-.031.201-.032.185-.039.178-.045.162-.048.147-.057.13-.062.113-.06.09-.068.074-.069.053-.07.03-.074.011-.07M597.612 151.153l.008-.061.013-.06.026-.059.037-.055.044-.057.057-.059.064-.053.079-.047.087-.049.093-.05.104-.046.112-.04.128-.045.137-.039.14-.035.147-.029.172-.03.17-.025.177-.017.178-.01.162-.007.154-.004.159.004.153.01.155.011.159.013.15.02.151.027.144.03.14.031.128.036.116.04.113.046.102.044.098.049.09.059.085.064.068.062.053.071.034.063.024.064.009.069M597.612 151.153l.016.067.03.073.053.065.073.067.09.061.109.062.129.053.14.052.16.045.17.038.18.038.191.026.202.024M645.092 195.404l.21.013.217.014h.22l.221-.007.215-.013.216-.018.204-.03.201-.032.185-.039.178-.044.162-.05.147-.055.13-.063.113-.059.09-.069.074-.07.053-.069.03-.074.011-.071" style="fill:none;stroke:#00ff4a;stroke-width:.999997;stroke-linecap:round;stroke-linejoin:round;stroke-miterlimit:4;stroke-dasharray:none;stroke-opacity:1;visibility:visible"/><path d="m643.55 194.733.008-.06.013-.063.026-.056.037-.057.044-.055.057-.058.064-.054.079-.048.087-.05.093-.05.104-.045.112-.041.128-.044.137-.039.14-.033.147-.031.172-.03.17-.025.177-.017.178-.01.162-.007.154-.003.159.003.153.009.155.012.159.013.15.02.151.027.144.03.14.031.128.036.116.04.113.046.102.044.098.05.09.058.085.062.068.066.053.068.034.064.024.064.009.068M643.55 194.733l.016.067.03.073.053.065.073.067.09.061.109.062.129.053.14.05.16.047.17.038.18.04.191.025.202.023M476.695 164.477l.21.015.217.012h.22l.22-.006.216-.014.217-.016.203-.031.2-.032.188-.039.177-.044.161-.05.147-.055.132-.063.112-.06.09-.069.073-.068.053-.07.03-.074.011-.07M475.154 163.805l.008-.06.013-.06.023-.057.039-.058.045-.056.057-.058.064-.052.076-.05.087-.05.095-.05.102-.045.115-.04.127-.044.138-.039.139-.034.148-.031.17-.03.171-.023.178-.019.177-.01.161-.006.155-.004.157.004.156.01.154.01.157.015.153.02.15.026.145.031.139.03.126.035.118.04.113.046.101.044.099.052.09.057.083.063.071.064.052.07.033.062.024.065.01.068M475.154 163.805l.016.068.028.072.053.067.072.065.091.061.11.063.129.053.14.051.16.047.17.037.18.039.192.024.2.024M500.662 215.76l3.005-.239M510.331 210.638l-5.457 5.399M606.677 154.422l-1.611-7.276M606.775 145.542l-1.709 1.6M554.582 177.34l3.194.647M551.746 176.984l6.03 1.003M468.684 165.596l-13.285-3.161" style="fill:none;stroke:#00ff4a;stroke-width:.999997;stroke-linecap:round;stroke-linejoin:round;stroke-miterlimit:4;stroke-dasharray:none;stroke-opacity:1;visibility:visible"/><path d="m600.517 149.69-3.865 2.557M563.4 179.436l5.33.667M539.865 189.823l1.895 8.529M556.754 188.208l-3.045 2.057M504.97 212.914l2.833-1.874M539.865 189.823l-12.293 8.133M507.803 211.04l4.221-2.793M541.76 198.352l-1.895-8.529M606.352 184.543l-.12 10.67M606.233 195.212l.119-10.669M606.352 184.543l6.976 11.998M613.328 196.541l.198-14.003M559.24 187.073l3.083-2.095" style="fill:none;stroke:#00ff4a;stroke-width:1.99999;stroke-linecap:round;stroke-linejoin:round;stroke-miterlimit:4;stroke-dasharray:none;stroke-opacity:1;visibility:visible"/><path d="m560.57 185.608-1.785-7.502" style="fill:none;stroke:#00ff4a;stroke-width:.999997;stroke-linecap:round;stroke-linejoin:round;stroke-miterlimit:4;stroke-dasharray:none;stroke-opacity:1;visibility:visible"/><path d="m504.97 212.915-1.297 1.091M494.635 373.631l8.195 2.265M502.777 371.954l-8.142 1.677M494.635 373.631l8.142-1.677M502.777 371.954l-8.211-2.252M551.1 182.21l-2.975 2.142M476.695 164.476l4.097-.497M459.496 159.324l-7.204 14.77M459.496 159.324l-.176-7.67M645.093 195.404l3.917-.578M600.758 185.978l18.735 3.435M649.01 194.826l-5.46-1.204M598.823 193.829l1.935-7.851M600.758 185.978l-1.935 7.851M566.691 179.73l8.023 9.595" style="fill:none;stroke:#00ff4a;stroke-width:1.99999;stroke-linecap:round;stroke-linejoin:round;stroke-miterlimit:4;stroke-dasharray:none;stroke-opacity:1;visibility:visible"/><path d="m555.965 387.052 2.06.404M559.254 385.755l-.333 1.701" style="fill:none;stroke:#00ff4a;stroke-width:.666665;stroke-linecap:round;stroke-linejoin:round;stroke-miterlimit:4;stroke-dasharray:none;stroke-opacity:1;visibility:visible"/><path d="m558.785 178.106-9.43 5.434" style="fill:none;stroke:#00ff4a;stroke-width:.999997;stroke-linecap:round;stroke-linejoin:round;stroke-miterlimit:4;stroke-dasharray:none;stroke-opacity:1;visibility:visible"/></svg>