<svg xmlns="http://www.w3.org/2000/svg" baseProfile="full" height="1122.52" preserveAspectRatio="xMinYMin meet" style="width:765px;height:943px" width="793.701" xml:space="preserve"><path d="m478.871 770.34-.187-.077-.166-.091-.143-.093M482.613 770.006l-.105.077-.123.075" style="fill:none;stroke:red;stroke-width:.999997;stroke-linecap:round;stroke-linejoin:round;stroke-miterlimit:4;stroke-dasharray:none;stroke-opacity:1;visibility:visible"/><path d="m481.294 769.585-.033-.385M480.518 769.811l.776-.225M479.706 769.644l.812.167M479.664 769.25l.041.393" style="fill:none;stroke:red;stroke-width:.666665;stroke-linecap:round;stroke-linejoin:round;stroke-miterlimit:4;stroke-dasharray:none;stroke-opacity:1;visibility:visible"/><path d="m531.104 935.723-.144.081-.157.063-.188.047-.194.033-.208.01-.202-.01-.188-.033-.188-.047-.167-.063-.14-.072" style="fill:none;stroke:red;stroke-width:.999997;stroke-linecap:round;stroke-linejoin:round;stroke-miterlimit:4;stroke-dasharray:none;stroke-opacity:1;visibility:visible"/><path d="m531.65 930.019-.2.099-.223.073-.25.063-.247.04-.27.026-.26.006-.267-.006-.267-.026-.256-.046-.237-.065-.222-.073-.206-.096-.178-.103M529.427 929.205l.573.304M529.64 928.786l-.213.419M530.776 929.393l.216-.405M530 929.509l.776-.115M574.208 698.848l.576-.217M573.425 698.75l.784.097M573.208 698.453l.216.299" style="fill:none;stroke:red;stroke-width:.666665;stroke-linecap:round;stroke-linejoin:round;stroke-miterlimit:4;stroke-dasharray:none;stroke-opacity:1;visibility:visible"/><path d="m528.453 732.634.083.039.1.038M529.77 732.535h-.008v.007M572.14 699.089l-.172-.096-.132-.095-.1-.113-.072-.105-.024-.112v-.107l.047-.11.084-.106.113-.107.144-.085.176-.09.2-.08.223-.06.256-.06.27-.04.279-.031.29-.016.287-.008M478.286 770.06l-.172-.11-.136-.127-.087-.13-.056-.144-.014-.142.032-.13.064-.148.112-.126.144-.132.173-.122.221-.108.238-.098.272-.08.292-.074.31-.056.312-.038.331-.018.33-.006M477.138 768.205l-.176.056-.203.05-.325.089M575.855 698.027l.165.09.134.097.101.104.075.106.037.111v.101l-.044.106-.068.105-.101.103-.134.092-.165.089-.192.076-.22.073-.239.059-.248.047-.273.03M484.95 770.168h-.025l-.03.004-.042.013-.04.028-.048.032-.064.056M484.7 770.3l-.079.075-.09.08-.079.076-.09.093-.086.103-.11.128M484.167 770.855l-.15.187-.129.185-.109.172-.099.187-.084.201-.03.11-.02.113M483.546 772.01l-.02.06-.021.036-.032.033-.032.024-.039.026-.043.016M577.786 699.34l.053-.035.04-.022.032-.019.031-.016h.055M577.292 699.787l.096-.103.092-.088.077-.073.076-.076.08-.053.074-.055M576.698 700.8l-.019.055-.02.042-.028.023-.029.024-.04.015-.048.014M576.698 700.8l.068-.203.077-.182.092-.163.102-.15.121-.157.133-.157M570.02 699.606l-.008-.01-.016-.026-.01-.017v-.022l-.009-.014v-.026M569.937 698.535v.161l.01.16.01.144.005.151.011.163.004.177M570.143 697.844l-.052.055-.047.064-.032.073-.025.081-.025.087-.014.113M570.268 697.783l-.025.005-.026.006-.013.01-.021.019-.022.001-.018.02M484.997 770.01v.083l-.016.076M482.67 768.73l.167.112.13.12.094.13.068.134.018.135-.026.137-.06.135-.094.132-.13.129-.167.116-.2.107-.233.105-.252.079-.278.082" style="fill:none;stroke:red;stroke-width:.999997;stroke-linecap:round;stroke-linejoin:round;stroke-miterlimit:4;stroke-dasharray:none;stroke-opacity:1;visibility:visible"/><path d="m479.249 770.448-.195-.052-.173-.056-.155-.057-.153-.07-.144-.072-.143-.081M477.138 768.205l-.041-.008h-.04M479.879 768.06h-.03l-.031.024M480.652 768.272l.083.005.069.011.068.008.063.007.062.014.083.016M482.374 768.63l.064.01.053.015.044.019.043.016.052.013.04.027M483.577 768.897l-.03.007-.035.017M578.064 699.143l-.008.059-.017.056M573.2 699.416l-.21-.03-.194-.042-.17-.057-.166-.055-.161-.07-.086-.043-.073-.031M576.631 698.183l.02-.017h.024M574.01 697.667l.057.008h.047l.048.007.045.009.048.005.059.012M575.64 697.964l.039.007.04.01.041.008.033.018.031.008.03.013M573.24 697.523l.025-.015h.014M570.672 697.661l.039-.008.04.008M484.95 770.168l.055.004M577.997 699.247l.067.01M476.55 771.009l-.105-.059M483.36 772.205l-.12.015M569.937 698.41v-.06l.01-.015v-.025M569.937 698.41v.124M570.268 697.783l.063-.019.02-.012M576.514 700.973h-.008M570.435 699.972l-.015-.01-.113-.06-.095-.073-.105-.106-.087-.116M476.245 762.962l.083-.135.04-.144.016-.145M468.292 762.61l.02.168.065.165.104.164.156.152.183.143.221.147.259.128.29.12.322.106.35.087.363.072.386.07.404.034.408.035.414.002.416-.002.416-.027.399-.041.392-.062.377-.072.364-.088.33-.105.304-.113.273-.131.244-.136.207-.15.164-.151.122-.164M430.297 700.865l.345.03.362.017h.356l.358-.008.356-.027.346-.039.337-.044.321-.068.303-.073.288-.088.265-.099.238-.102.212-.112.181-.116.15-.134.12-.128.078-.138.059-.135.017-.135" style="fill:none;stroke:red;stroke-width:.999997;stroke-linecap:round;stroke-linejoin:round;stroke-miterlimit:4;stroke-dasharray:none;stroke-opacity:1;visibility:visible"/><path d="m427.69 699.553.016.137.055.139.09.125.122.128.161.123.179.12.22.105.24.102.266.089.29.081.309.063.323.06.336.04M576.82 682.395l.016.136.048.13.09.14.125.123.153.123.192.119.22.104.239.104.274.09.299.079.313.065.314.056.35.05.351.022.357.016.36.007.354-.013.349-.026.341-.04.328-.049.315-.06.295-.085.274-.084.246-.098.22-.105.194-.12.151-.12.13-.13.086-.127.055-.138.016-.136M575.655 701.385l-.047.024-.05.013h-.055l-.059-.005-.109-.04-.113-.067-.131-.089-.14-.116M570.413 700.1l.176-.124.192-.088.224-.07.235-.049.256-.026.266-.007.283.023.285.042.298.063.298.09.303.113.31.128.293.153.296.161.286.184.278.203.258.208M575.655 701.385l.49-.37M531.474 729.534l.243-.161.262-.138.271-.101.303-.076.277-.039.297-.009.307.027.305.046.287.071.275.097.27.122.267.136.25.158.24.18.225.184.216.208.218.243.2.256.184.265.168.283.154.325.13.336.102.355.068.35M536.992 732.653l.005.059.01.041.008.039v.073l.006.039M581.854 700.125l.264-.307.26-.317.239-.35.213-.342.213-.367.188-.374.172-.376M575.589 701.417h0M482.727 772.285l-.57.443M481.311 772.454l.161.13.152.093.15.064.124.042h.064l.061-.009.064-.015.07-.032M476.445 771.13l.199-.099.228-.081.24-.045.273-.024h.29l.302.024.315.056.329.082.345.103.336.121.354.151.345.17.341.193.338.206.317.224.313.243M480.393 768.183l.325-.161.318-.118.33-.092.34-.048.326-.006.33.022.322.064.305.104.307.136.281.176.264.212.25.239.231.267.2.3M528.753 736.402l.184.267.173.292.162.326.124.338.106.356.07.357M529.572 738.338l.008.075.008.064.01.11.009.115.004.119-.004.288-.035.292-.048.246-.07.251-.086.224-.097.224-.142.227-.153.2-.19.216-.218.188M476.487 781.05h0M482.072 772.765h0M577.566 885.4h.112l.11-.01.115-.011.114-.03.214-.068.211-.106.181-.13.179-.152.159-.165.141-.177.113-.18.099-.191.09-.193.063-.192.043-.2.024-.204.003-.202-.011-.192-.032-.172-.041-.178-.064-.167-.083-.163-.09-.16-.098-.15-.113-.148-.131-.143-.145-.13-.144-.127-.158-.127-.18-.115-.174-.102-.187-.099-.19-.079-.194-.07-.203-.058-.201-.032-.183-.018-.169.009-.15.021-.129.043-.122.06-.112.07-.095.095-.087.112-.073.127-.059.148-.04.15-.041.177-.015.19-.014.206M576.732 695.231l.015-.181.034-.167.055-.163.07-.148.107-.122.114-.108.141-.095.157-.081.171-.056.193-.042.203-.014h.224l.236.014.236.036.259.055.258.07.271.1.275.1.273.131.284.138.279.152.269.178.275.172.265.2.26.203.243.215.242.218.23.232.202.239.204.227.184.244.162.241.15.228.131.244M532.008 738.827l-.153.239-.15.205-.145.179-.157.158-.168.167-.208.177M531.667 738.125l.023.008.034.016.024.005.024.018.023.013.03.017M531.825 738.202l.052.041.047.059.07.11.044.11.011.117-.01.102-.031.086M533.355 930.156l-.012.016-.008.019-.01.008-.013.014-.016.011-.008.013M529.69 927.565l1.325.372.603.168 1.392.385M533.01 928.49l.125.048.138.065.121.084.11.114.098.114.079.13.064.142.033.136.016.155-.016.14-.023.075-.03.074-.044.056-.047.055M527.501 931.2h0M531.909 738.283h0M476.492 776.762l-.005.436-.031.452-.047.456-.081.467-.099.464-.113.465-.135.467M476.526 781.398l-.003-.179-.042-.184-.059-.193-.08-.207-.097-.216-.123-.228-.14-.222M529.557 933.958v.004l-.01.01v.007h-.007v.008M529.596 933.88l-.01.019-.007.009v.013l-.008.012-.011.003-.003.023" style="fill:none;stroke:red;stroke-width:.999997;stroke-linecap:round;stroke-linejoin:round;stroke-miterlimit:4;stroke-dasharray:none;stroke-opacity:1;visibility:visible"/><path d="m528.544 931.469.144.096.145.104.127.112.12.12.107.115.094.116.086.129.078.123.064.112.048.118.05.102.028.108.042.18.019.166.013.176-.013.159-.039.188-.022.093-.039.095M527.565 931.193l.175.007.161.026.148.038.157.048.158.066.18.091M526.74 931.532l.11-.107.12-.07.13-.063.125-.05.154-.031.185-.018M529.596 933.89v.017l-.01.01-.007.004-.008.012-.011.012-.003.013" style="fill:none;stroke:red;stroke-width:.999997;stroke-linecap:round;stroke-linejoin:round;stroke-miterlimit:4;stroke-dasharray:none;stroke-opacity:1;visibility:visible"/><path d="m576.676 704.234 2.392-1.839" style="fill:none;stroke:red;stroke-width:1.99999;stroke-linecap:round;stroke-linejoin:round;stroke-miterlimit:4;stroke-dasharray:none;stroke-opacity:1;visibility:visible"/><path d="M574.73 697.297h0M528.568 741.177l-.115.085M481.57 767.78h0M576.732 695.231h0M531.266 729.7l.09-.072.118-.095M575.95 882.018l.01-.007M575.495 882.48l.456-.461" style="fill:none;stroke:red;stroke-width:.999997;stroke-linecap:round;stroke-linejoin:round;stroke-miterlimit:4;stroke-dasharray:none;stroke-opacity:1;visibility:visible"/><path d="m575.464 887.528 3.019-3.061" style="fill:none;stroke:red;stroke-width:1.99999;stroke-linecap:round;stroke-linejoin:round;stroke-miterlimit:4;stroke-dasharray:none;stroke-opacity:1;visibility:visible"/><path d="m530.76 927.476.123-.056M476.089 779.72h0M481.563 772.428h0M478.115 986.11l-.039-5.632" style="fill:none;stroke:red;stroke-width:.999997;stroke-linecap:round;stroke-linejoin:round;stroke-miterlimit:4;stroke-dasharray:none;stroke-opacity:1;visibility:visible"/><path d="m476.492 776.762-.047-5.632" style="fill:none;stroke:red;stroke-width:1.99999;stroke-linecap:round;stroke-linejoin:round;stroke-miterlimit:4;stroke-dasharray:none;stroke-opacity:1;visibility:visible"/><path d="M528.552 741.18h0l.016-.003M525.673 734.655h0l.275.017.266.028.275.067.267.083.264.104.264.125.248.148.246.159.246.186.192.16.184.171.121.116.115.123.101.11.105.108.106.118.11.121.106.11.262.282.29.26.306.24.212.144.239.132.256.116.27.097.13.031.059.008M529.384 934.186v.01M526.74 931.532l-.39.385M530.992 932.55h-.01M529.325 737.432h0M532.935 932.107h0M532.87 932.75h0M534.675 732.865l-.127.103-.118.113-.128.128-.131.137-.112.135-.119.155-.114.152-.112.165-.202.323-.188.354-.18.37-.174.386-.092.226-.078.217-.09.228-.071.237-.087.266-.074.262-.071.272-.073.282M535.849 732.505l-.197-.017-.194.008-.181.046-.18.066-.196.104-.227.153M526.447 730.544h-.184l-.177.024-.168.048-.162.067-.172.094-.201.138M525.383 730.914l-.133.101-.124.116-.13.126-.13.14-.118.132-.113.146-.113.166-.115.157-.2.321-.2.354-.176.366-.176.387-.087.217-.09.222-.078.229-.076.232-.089.264-.07.272-.08.265-.066.28M531.441 731.635l.17.05.151.047.139.047.107.05.077.046.063.052.042.053.012.067-.012.053-.034.063-.056.068-.08.07-.096.069-.114.07-.138.07-.151.073-.172.07-.199.065-.194.058-.206.047-.229.048-.235.043-.245.024-.237.006M528.536 732.678l-.137-.079-.118-.08-.113-.088-.1-.097-.07-.079-.066-.096-.047-.092-.032-.092-.014-.089v-.08l.014-.081.024-.08.047-.064.055-.067.07-.056.088-.047.1-.048.123-.041.137-.033.138-.015.176-.017h.361l.179.017M532.333 737.376l-.013.121-.012.12v.114l.025.093.024.04.027.035.022.025.031.005M523.018 735.407l-.015.09-.008.089-.008.081.008.079.015.082.033.075M525.757 931.603l-.048-.052-.039-.053-.03-.039-.04-.047-.043-.049-.044-.05M525.513 931.313l.035.084.036.061.03.056.039.051.048.039.056.03M526.802 928.042l-.057-.013h-.063l-.075.016-.062.034-.071.032-.064.048-.073.059-.063.07-.067.073-.061.081-.064.087-.064.086-.105.203-.106.217-.05.12-.048.128-.047.122-.043.126-.036.136-.034.138-.036.136-.016.126M525.497 930.067l-.028.147-.013.137-.018.227-.013.181.013.177.023.18.024.094.028.102M523.72 730.183l-.143-.017-.153.017-.161.048-.162.073-.153.104-.144.12-.153.155-.146.168-.126.176-.13.192-.126.208-.115.223-.11.236-.106.24-.103.257-.09.267-.088.288-.074.296-.069.298-.056.303-.05.337-.038.33-.03.328v.313M521.195 735.143v.308l.012.135.008.081.008.108.023.164.025.168.03.161.04.152.051.159.046.148.062.144.076.136M444.117 717.407l-.13.164-.137.143-.125.125-.139.105-.128.092-.137.071-.139.064-.136.041-.156.042-.161.017h-.181l-.183-.024M444.117 717.407l.232-.303.247-.296.242-.301.258-.288.245-.27.253-.265.24-.25.243-.223.225-.21.214-.193.208-.162.185-.135.177-.112.154-.083.134-.056.115-.02h.095M442.262 713.122l-.243-.03h-.22l-.22.04-.202.07-.182.107-.169.142-.144.175-.13.203-.098.232-.079.268-.058.278-.019.314-.012.321.024.347.047.35M434.262 718.863l-.277-.07-.299-.098-.313-.128-.322-.148-.329-.17-.337-.197-.346-.213-.345-.245-.352-.256-.347-.276-.344-.288-.337-.302-.325-.324-.314-.317M437.42 907.333l-.13.088-.133.056-.146.025h-.144l-.144-.033-.146-.053-.138-.076-.136-.095-.118-.105-.106-.112-.102-.131-.09-.144-.079-.143-.065-.161-.056-.168-.039-.168-.02-.167-.005-.164.005-.166.02-.167.03-.179.04-.169.06-.177.069-.166.074-.17.079-.17.087-.161.104-.17.108-.158.1-.159.114-.154.123-.155.125-.159.131-.148.128-.15.13-.127.118-.121.105-.091.102-.085.09-.058.082-.046.064-.018.054.008.035.03.032.045.015.063.008.08.008.096" style="fill:none;stroke:red;stroke-width:.999997;stroke-linecap:round;stroke-linejoin:round;stroke-miterlimit:4;stroke-dasharray:none;stroke-opacity:1;visibility:visible"/><path d="m437.67 906.988-.039.072-.037.067-.039.054-.038.047-.043.056-.055.05M435.145 710.88l-.012-.055-.036-.032-.055-.009-.078.017-.098.038-.121.066-.132.088-.167.104-.172.13-.193.15-.203.168-.222.187-.244.212-.239.223-.255.24-.266.248-.276.268-.278.269-.282.281-.278.294-.284.292-.281.298-.27.3-.275.296-.258.295-.257.29-.239.291M532.935 932.149l-.027.112-.006.099-.024.184-.008.16v.153l.008.127.013.129.01.119.034.121.048.13.067.111.038.048.047.04.048.034.052.025M533.733 930.334l-.108.115-.096.134-.079.128-.09.154-.071.146-.063.143-.054.153-.059.151-.059.17-.044.169-.041.174-.035.178M537.88 733.146l-.159-.016-.169.024-.17.063-.177.096-.16.13-.168.151-.161.188-.152.207-.143.216-.136.233-.13.259-.122.261-.113.281-.095.291-.093.299-.09.301-.069.33-.069.34-.059.334-.034.332-.028.359-.008.353v.244l.008.119.009.062v.075M535.392 738.678l.03.264.043.247.047.218.061.211.062.165.069.154.083.138.077.116.108.116.105.08.124.074.131.045M628.316 959.783h0M617.822 753.369l-.073-.368-.048-.353-.022-.346-.009-.33.015-.302.04-.284.058-.264.079-.237.095-.199.12-.176.14-.142.152-.114.168-.07.184-.042.2-.009.21.027M619.131 750.159h0M623.505 752.936h0M625.152 751.42l-.052.005-.07.042-.106.065-.117.104-.146.12-.168.152-.184.183-.2.202-.22.234-.228.24-.242.269-.259.284-.256.3-.267.301-.276.316-.261.319-.261.321M619.846 755.738l.208.024h.199l.185-.015.184-.042.161-.048.159-.063.153-.072.147-.093.153-.11.144-.121.154-.15.145-.171M628.724 961.221l.008-.057.008-.066.019-.078.012-.104.028-.099.012-.119.02-.128.014-.137.018-.135.006-.154.007-.15.005-.164v-.166l-.005-.18v-.174l-.007-.185-.014-.193-.01-.21-.014-.208-.02-.201-.004-.232-.016-.233v-.456M631.92 753.343l.01.281.02.298.06.318.08.351.094.359.112.377.145.388.162.41.177.407.192.418.219.418.224.426.248.424.249.42.27.406M631.79 761.6l.01-.028.042-.048.05-.068.091-.097.107-.114.116-.142.157-.16.17-.178.18-.2.213-.216.223-.234.234-.252.255-.256.264-.272.281-.29M443.266 718.14h0M525.792 931.66l-.008-.016-.027-.04-.005-.01v-.007M525.784 931.65l-.028-.016M437.918 907.06l-.545-.153M434.879 719.313h0M435.258 719.072l-.996-.21M437.372 906.906h0M437.862 902.78h0M435.895 711.79h0M442.262 713.122l.039.01M534.234 930.11h0M533.234 933.74h.012M537.88 733.146h.008M628.79 957.392l.008-.94M631.92 753.343l.01-.504M621.508 754.677l-.01.01M619.131 750.159l.025.005M521.552 736.967h0M534.893 732.712h0M537.159 733.355h0M632.096 741.47l.024.157.055.155.098.153.136.154.17.142.208.138.238.121.274.12.298.105.331.095.345.077.359.074.377.053.394.037.394.026h.392l.404-.011.386-.024.374-.043.371-.05.344-.075.33-.087.305-.096.276-.112.245-.124.208-.128.179-.132.144-.145.093-.153.065-.154.026-.15M531.357 935.344l-.02.105-.048.094-.077.101-.107.079M529.328 935.733l-.11-.088-.082-.101-.047-.094-.016-.105" style="fill:none;stroke:red;stroke-width:.999997;stroke-linecap:round;stroke-linejoin:round;stroke-miterlimit:4;stroke-dasharray:none;stroke-opacity:1;visibility:visible"/><path d="m528.568 929.911-.139-.107-.112-.105-.086-.121-.063-.111-.043-.128-.017-.12M530.768 928.022l.257.041.248.072.224.083.199.096.19.1.153.124.109.124.092.15.053.133.015.146M528.108 929.098l.017-.144.058-.143.086-.149.122-.124.161-.124.176-.112.208-.097.236-.078.245-.064.26-.049.275-.024.27-.007.283.007.263.03" style="fill:none;stroke:red;stroke-width:.666665;stroke-linecap:round;stroke-linejoin:round;stroke-miterlimit:4;stroke-dasharray:none;stroke-opacity:1;visibility:visible"/><path d="M531.357 934.133v1.21M529.073 934.501v.843" style="fill:none;stroke:red;stroke-width:.999997;stroke-linecap:round;stroke-linejoin:round;stroke-miterlimit:4;stroke-dasharray:none;stroke-opacity:1;visibility:visible"/><path d="M532.309 929.091v.05M528.108 929.098v.121" style="fill:none;stroke:red;stroke-width:.666665;stroke-linecap:round;stroke-linejoin:round;stroke-miterlimit:4;stroke-dasharray:none;stroke-opacity:1;visibility:visible"/><path d="m529.435 935.803-.107-.07M530.992 935.792l.112-.07M574.684 699.416l-.225.017-.235.011-.23.003M483.24 772.22l.085.147.1.142.094.13.098.121.087.097.099.086.093.09.105.079.106.065.102.058.122.053.122.032M576.507 700.973l.079.136.082.147.079.129.09.112.08.096.08.097.091.09.087.069.093.073.091.055.103.059.105.03M481.707 770.383l-.265.045-.272.054-.282.021-.289.016-.292.007M480.307 770.526l-.2-.007h-.176l-.17-.006-.167-.01-.17-.021-.176-.035M481.08 768.333l.257.065.224.058.196.049.196.039.204.04.216.046M573.993 699.447h-.283l-.121-.003h-.119l-.128-.01-.142-.018M574.314 697.71l.083.013.07.016.075.014.059.018.074.019.079.015M575.158 697.883l.09.016.08.016.078.008.068.017.076.007.09.016" style="fill:none;stroke:red;stroke-width:.999997;stroke-linecap:round;stroke-linejoin:round;stroke-miterlimit:4;stroke-dasharray:none;stroke-opacity:1;visibility:visible"/><path d="m485.005 770.173 1.404.283 1.477.278 1.488.267 1.5.265 1.511.248 1.513.242 1.534.23 1.545.224 1.553.212 1.56.208 1.578.183 1.566.188 1.586.17 1.581.158 1.599.15 1.596.138 1.616.13 1.602.12 1.62.102 1.628.1 1.628.085 1.627.075 1.636.07 1.635.05 1.638.05 1.636.03 1.639.017 1.636.015h1.647l1.638-.008 1.648-.024 1.634-.03 1.648-.043 1.637-.058 1.633-.06 1.627-.084 1.627-.08 1.624-.097 1.614-.11 1.614-.111 1.602-.13 1.61-.146 1.593-.144 1.594-.159 1.58-.17 1.576-.183 1.574-.194 1.557-.201 1.547-.21 1.533-.217 1.535-.23 1.51-.242 1.51-.248 1.493-.269 1.487-.261 1.465-.279 1.463-.293 1.444-.294 1.438-.313 1.42-.315 1.404-.33 1.4-.328 1.374-.346 1.356-.35 1.35-.36 1.32-.374 1.314-.372 1.297-.384 1.28-.393 1.257-.399 1.244-.412 1.232-.417 1.203-.424 1.185-.432 1.175-.433 1.145-.452 1.132-.45 1.111-.453 1.09-.47 1.067-.462 1.052-.485 1.031-.482 1.003-.49.984-.499.966-.499.948-.504.914-.512.898-.514.878-.523.858-.521.83-.53.804-.53.782-.536.766-.539.729-.547.713-.544.69-.557.668-.552.65-.557.619-.551.593-.561.568-.566.546-.568.52-.56.497-.572.488-.56.448-.569.427-.572.4-.57.384-.58.352-.57.332-.57.312-.569.282-.569.263-.57.236-.571.215-.57.192-.578.177-.578.145-.57.13-.579.093-.57.083-.578.054-.57.043-.567.008-.574-.008-.569-.035-.572-.054-.568-.083-.57-.101-.583-.122-.588-.153-.588-.177-.587-.192-.585-.228-.576-.247-.59-.263-.584-.297-.585-.313-.58-.339-.584-.368-.58-.388-.577-.404-.562-.42-.566-.443-.567-.47-.555-.495-.558-.513-.555-.536-.557-.563-.55-.576-.546-.604-.55-.619-.534-.644-.539-.665-.53-.664-.522-.69-.515-.705-.504-.726-.506-.744-.507-.762-.495-.792-.494-.798-.486-.82-.482-.836-.472-.852-.478-.864-.464-.891-.466-.903-.455-.922-.45-.928-.44-.962-.445-.96-.434-.984-.423-1-.428-1.021-.408-1.024-.416-1.047-.405-1.049-.392-1.07-.392-1.083-.387-1.102-.377-1.113-.37-1.127-.36-1.136-.362-1.157-.353-1.165-.343-1.172-.34-1.196-.328-1.2-.332-1.21-.31-1.222-.316-1.227-.294-1.243-.299-1.252-.29-1.26-.271" style="fill:none;stroke:red;stroke-width:1.99999;stroke-linecap:round;stroke-linejoin:round;stroke-miterlimit:4;stroke-dasharray:none;stroke-opacity:1;visibility:visible"/><path d="m578.064 699.258 1.228.275 1.273.285 1.279.307 1.263.305 1.252.312 1.245.321 1.236.331 1.223.339 1.204.342 1.192.354 1.188.36 1.176.361 1.158.38 1.132.376 1.134.385 1.118.394 1.102.398 1.09.402 1.074.421 1.06.419 1.054.433 1.035.43 1.012.44 1.004.443.988.46.97.454.954.47.939.47.926.476.904.488.895.489.875.499.857.506.844.506.816.512.808.524.785.53.77.528.745.539.73.545.718.547.69.55.671.569.659.568.635.57.62.579.596.58.568.581.554.596.53.595.513.603.49.608.467.612.45.609.42.628.404.617.377.634.364.634.325.64.314.646.29.64.267.646.232.662.216.66.196.656.16.65.133.66.123.659.088.659.064.657.039.667.014.665-.014.665-.03.672-.07.664-.078.667-.11.66-.135.664-.161.65-.188.64-.2.653-.232.642-.251.636-.279.64-.297.634-.33.634-.346.635-.367.628-.397.625-.416.616-.437.619-.468.627-.498.62-.513.618-.543.607-.56.612-.584.61-.114.103M623.344 752.767l-.303.283-.654.592-.682.586-.694.587-.719.575-.744.573-.781.575-.798.581-.832.567-.848.568-.869.558-.899.555-.914.547-.928.545-.966.53-.981.531-1.003.522-1.021.52-1.047.504-1.062.506-1.086.5-1.106.49-1.134.481-1.148.481-1.172.463-1.182.468-1.21.45-1.22.45-1.246.443-1.26.424-1.28.425-1.296.41-1.308.41-1.327.392-1.345.385-1.36.382-1.38.374-1.39.363-1.404.341-1.422.348-1.436.339-1.455.317-1.457.314-1.48.306-1.484.299-1.5.279-1.506.282-1.522.264-1.532.259-1.542.239-1.556.232-1.569.224-1.573.218-1.584.206-1.588.196-1.604.185-1.6.167-1.61.164-1.62.15-1.627.147-1.628.125-1.64.122-1.64.105-1.642.096-1.654.088-1.651.081-1.659.063-1.658.047-1.655.05-1.664.034-1.664.017-1.661.004h-1.66l-1.662-.004-1.666-.03-1.66-.029-1.656-.046-1.66-.056-1.651-.068-1.655-.08-1.644-.088-1.646-.096-1.638-.111-1.633-.121-1.627-.136-1.622-.138-1.612-.152-1.607-.168-1.605-.177-1.599-.184-1.583-.195-1.578-.205-1.57-.217-1.556-.227-1.549-.233-1.541-.25-1.524-.254-1.472-.26-1.451-.263-1.447-.28-1.434-.283M468.355 769.25l-.499-.156-1.302-.417-1.274-.418-1.27-.424-1.236-.442-1.227-.44-1.208-.458-1.188-.457-1.164-.468-1.137-.472-1.134-.48-1.098-.485-1.09-.504-1.072-.498-1.046-.514-1.024-.511-1.003-.521-.981-.534-.964-.532-.939-.544-.916-.544-.899-.549-.873-.559-.852-.565-.827-.565-.812-.58-.784-.584-.765-.59-.74-.586-.715-.6-.694-.603-.667-.6-.643-.615-.626-.606-.595-.63-.57-.616-.554-.633-.525-.628-.503-.643-.473-.636-.459-.645-.428-.641-.399-.663-.377-.65-.353-.657-.326-.657-.3-.67-.272-.658-.246-.657-.228-.658-.2-.666-.167-.666-.155-.677-.12-.667-.1-.664-.064-.673-.049-.667-.01-.678.005-.663.037-.667.047-.652.078-.642.102-.65.128-.642.154-.642.17-.629.198-.637.22-.639.24-.624.267-.624.276-.63.315-.617.322-.608.352-.62.382-.604.386-.608.422-.602.434-.596.456-.59.482-.596.502-.58.518-.586.541-.57.548-.568.581-.562.595-.563.624-.57.65-.56.666-.555.693-.554.704-.554.73-.538.748-.537.762-.53.78-.533.803-.518.82-.516.832-.506.85-.502.88-.502.889-.488.91-.49.918-.483.949-.475.957-.472.979-.464.987-.454 1.01-.456 1.02-.442 1.034-.432 1.054-.434 1.067-.415 1.077-.419 1.094-.409 1.109-.405 1.125-.39 1.13-.394 1.149-.376 1.164-.379 1.168-.36 1.185-.363 1.199-.354 1.204-.346 1.223-.334 1.229-.332 1.235-.32 1.253-.308 1.264-.313 1.267-.3 1.281-.29 1.296-.29 1.3-.274 1.308-.262 1.316-.268 1.333-.248 1.335-.248 1.341-.234 1.347-.23 1.359-.218 1.362-.214 1.367-.204 1.38-.2 1.38-.187 1.395-.18 1.4-.179 1.396-.164 1.413-.148 1.41-.154 1.417-.136 1.42-.14 1.418-.118 1.434-.112 1.426-.11 1.439-.096 1.439-.091 1.444-.083 1.438-.078 1.45-.066 1.444-.054 1.456-.051 1.454-.037 1.45-.034 1.448-.024 1.449-.014h2.908l1.455.006 1.454.018 1.45.03 1.456.03 1.45.053 1.447.048 1.452.061 1.438.064 1.447.084 1.435.08 1.437.095 1.43.096 1.427.112 1.432.124 1.42.124 1.414.13 1.413.147 1.41.15 1.403.16 1.403.17 1.388.178 1.387.174 1.373.195 1.373.197 1.316.202 1.31.209 1.31.219 1.206.196" style="fill:none;stroke:red;stroke-width:1.99999;stroke-linecap:round;stroke-linejoin:round;stroke-miterlimit:4;stroke-dasharray:none;stroke-opacity:1;visibility:visible"/><path d="m569.762 700.532-1.333-.224-1.342-.225-1.349-.208-1.357-.208-1.351-.191-1.373-.195-1.378-.18-1.385-.166-1.381-.168-1.4-.154-1.394-.152-1.408-.133-1.405-.13-1.401-.131-1.408-.111-1.412-.104-1.419-.104-1.424-.087-1.428-.08-1.427-.073-1.436-.067-1.428-.056-1.438-.048-1.427-.04-1.436-.03-1.433-.027-1.44-.015-1.436-.005h-1.44l-1.439.005-1.43.015-1.451.035-1.436.033-1.436.039-1.43.056-1.436.058-1.428.062-1.422.082-1.42.078-1.423.1-1.42.093-1.416.113-1.41.119-1.405.121-1.404.136-1.395.146-1.393.144-1.387.162-1.388.166-1.378.168-1.365.188-1.359.193-1.362.19-1.343.211-1.347.215-1.33.216-1.332.233-1.318.234-1.314.246-1.302.252-1.292.264-1.288.263-1.274.285-1.258.278-1.264.29-1.234.298-1.236.304-1.222.313-1.213.32-1.205.32-1.187.339-1.181.345-1.164.345-1.154.354-1.144.364-1.122.366-1.116.38-1.103.386-1.083.385-1.065.39-1.064.4-1.043.414-1.024.408-1.014.425-1 .424-.983.435-.97.432-.949.453-.937.448-.916.447-.897.47-.887.465-.865.464-.844.474-.518.294M444.07 717.016l-.036.024-.713.505-.707.519-.675.51-.672.522-.628.523-.629.521-.59.53-.587.527-.551.539-.543.54-.521.544-.497.537-.475.547-.455.556-.436.543-.406.557-.396.544-.364.553-.347.566-.33.552-.307.558-.279.558-.261.561-.238.559-.217.568-.195.56-.177.554-.153.562-.126.561-.113.563-.087.576-.066.57-.039.576-.023.576.003.575.03.58.046.577.07.572.097.572.114.59.146.578.156.575.196.581.217.594.241.593.266.604.296.593.316.595.342.603.37.592.4.597.42.6.446.597.474.59.505.594.523.594.537.57.561.572.588.57.612.572.635.566.659.56.69.564.706.558.729.554.757.552.784.546.8.54.82.536.847.52.859.525.884.524.897.501.928.512.95.5.971.498.988.49 1.01.478 1.038.488 1.052.473 1.066.46 1.094.463 1.115.456 1.132.449 1.15.436 1.17.43 1.19.434 1.21.419 1.228.41 1.243.41.517.158" style="fill:none;stroke:red;stroke-width:1.99999;stroke-linecap:round;stroke-linejoin:round;stroke-miterlimit:4;stroke-dasharray:none;stroke-opacity:1;visibility:visible"/><path d="m484.997 770.01.008.163M477.057 768.196l.184-.053.183-.059.206-.039.206-.041.208-.021.208-.023.208-.012.212-.007h.208l.208.007.2.027.204.013.2.033.186.039M483.577 768.897l-1.203-.267M481.08 768.333l-1.201-.273M483.577 768.897l.187.048.172.059.17.062.162.064.137.071.135.081.113.096.101.098.091.104.07.114.042.103.033.104.007.11M483.24 772.22l-.088.017-.21.032-.211.016-.215.016h-.416l-.21-.009-.202-.016-.2-.023-.193-.033-.108-.025M578.064 699.143v.115M576.676 698.166l-1.035-.203M576.676 698.166l.168.039.161.04.152.05.143.047.14.057.117.062.11.074.102.071.096.08.078.099.066.096.039.112.008.073.008.076M574.314 697.71l-1.035-.2M570.352 697.752l.053-.013.072-.016.067-.026.06-.014.068-.022M570.672 697.661l.14-.05.163-.047.168-.042.176-.044.176-.017.185-.027.187-.017.193-.008h.367l.186.008.176.017.17.027.158.013.162.034M576.507 700.973l-.17.016-.183.017-.184.015h-.38l-.184-.005-.184-.015-.178-.019-.129-.014M570.526 700.019l-.09-.047" style="fill:none;stroke:red;stroke-width:.999997;stroke-linecap:round;stroke-linejoin:round;stroke-miterlimit:4;stroke-dasharray:none;stroke-opacity:1;visibility:visible"/><path d="M470.77 1000.715h0M478.23 1000.594h0M478.237 1001.22l-.008.168-.043.176-.044.17-.081.16-.1.16-.12.153-.132.152-.155.136-.176.134-.196.139-.208.113-.214.112-.194.088-.208.071-.266.09-.287.071-.284.06-.304.047-.303.033-.305.016h-.307l-.305-.016-.304-.026-.307-.048-.297-.052-.28-.076-.273-.09-.256-.094-.243-.115-.223-.128-.2-.127-.185-.144-.168-.153-.139-.152-.112-.161-.09-.17-.071-.166-.047-.171-.016-.119-.009-.12M478.23 1000.594l.008.625M470.77 1000.715l.007.625M431.31 916.75h0M438.055 916.591h0M438.063 917.168l-.008.143-.028.148-.043.144-.074.144-.092.136-.094.128-.129.126-.136.123-.152.119-.165.113-.192.105-.196.098-.218.085-.233.083-.24.064-.24.064-.267.046-.273.043-.272.027-.27.012h-.282l-.283-.012-.269-.027-.276-.043-.219-.037-.208-.05-.2-.053-.192-.058-.185-.071-.215-.097-.201-.114-.187-.11-.16-.134-.08-.068-.114-.112-.092-.116-.1-.134-.074-.144-.044-.142-.036-.153-.004-.123M438.055 916.591l.008.577M431.31 916.75l.01.572M581.957 894.393l-.015.133-.028.144-.05.138-.067.13-.088.127-.105.12-.118.123-.132.112-.156.102-.169.106-.177.089-.192.088-.22.079-.224.072-.234.06-.232.044-.256.042-.266.023-.267.016-.261.007-.271-.007-.276-.024-.273-.033-.255-.04-.212-.046-.2-.056-.192-.058-.185-.074-.184-.07-.202-.096-.194-.115-.175-.11-.152-.13-.135-.125-.114-.131-.098-.137-.072-.143-.046-.137-.032-.154-.019-.142M581.957 893.83v.563" style="fill:none;stroke:red;stroke-width:1.99999;stroke-linecap:round;stroke-linejoin:round;stroke-miterlimit:4;stroke-dasharray:none;stroke-opacity:1;visibility:visible"/><path d="m575.42 893.756-.008.564" style="fill:none;stroke:red;stroke-width:.999997;stroke-linecap:round;stroke-linejoin:round;stroke-miterlimit:4;stroke-dasharray:none;stroke-opacity:1;visibility:visible"/><path d="m635.773 973.407-.015.163-.034.158-.056.164-.082.15-.094.142-.119.147-.136.13-.155.127-.166.127-.198.112-.198.107-.216.094-.242.086-.248.076-.258.065-.259.048-.295.037-.29.035-.287.007h-.297l-.295-.012-.31-.036-.285-.04-.292-.055-.222-.057-.224-.066-.211-.068-.21-.092-.194-.088-.22-.113-.208-.128-.192-.145-.173-.142-.142-.145-.12-.163-.106-.157-.079-.163-.06-.165-.039-.175-.008-.168M635.783 972.8l-.01.608M628.547 972.6l-.008.605M468.292 762.61l.005-.132.031-.132.059-.128.069-.13.099-.129.113-.121.135-.11.152-.114.169-.112.192-.097.208-.098.219-.086.252-.09.266-.08.271-.062.287-.067.314-.045.32-.042.32-.032.331-.016h.565l.278.016.274.014.271.033.268.04.261.041.259.058.248.062.23.074.22.068.209.092.192.089.176.095.169.097.167.128.148.128.12.137.094.147.059.104.039.112.024.103.008.112" style="fill:none;stroke:red;stroke-width:1.99999;stroke-linecap:round;stroke-linejoin:round;stroke-miterlimit:4;stroke-dasharray:none;stroke-opacity:1;visibility:visible"/><path d="m468.297 763.35-.005-.739M476.395 763.286l-.012-.748" style="fill:none;stroke:red;stroke-width:.999997;stroke-linecap:round;stroke-linejoin:round;stroke-miterlimit:4;stroke-dasharray:none;stroke-opacity:1;visibility:visible"/><path d="m427.69 699.553.008-.119.023-.114.048-.112.065-.11.087-.105.1-.104.12-.096.125-.097.161-.096.17-.099.176-.076.2-.083.228-.07.23-.074.243-.061.256-.053.279-.047.293-.03.293-.037.291-.014h.513l.252.008.247.017.247.025.25.031.239.039.23.052.23.056.219.056.198.07.183.062.176.081.161.09.154.087.152.104.133.114.105.121.091.12.064.128.041.123.018.128" style="fill:none;stroke:red;stroke-width:1.99999;stroke-linecap:round;stroke-linejoin:round;stroke-miterlimit:4;stroke-dasharray:none;stroke-opacity:1;visibility:visible"/><path d="m427.698 700.218-.008-.665M434.996 700.141l-.008-.675" style="fill:none;stroke:red;stroke-width:.999997;stroke-linecap:round;stroke-linejoin:round;stroke-miterlimit:4;stroke-dasharray:none;stroke-opacity:1;visibility:visible"/><path d="m576.82 682.395.008-.104.023-.103.048-.101.056-.108.081-.108.104-.09.112-.1.13-.094.143-.09.16-.08.179-.08.2-.074.207-.073.216-.063.237-.045.256-.063.272-.036.273-.033.271-.02.308-.011.304-.01.297.02.303.018.244.021.243.032.234.038.228.049.227.05.204.065.195.061.194.075.176.073.17.087.168.096.152.114.133.108.105.124.071.096.06.096.039.098.024.104v.094" style="fill:none;stroke:red;stroke-width:1.99999;stroke-linecap:round;stroke-linejoin:round;stroke-miterlimit:4;stroke-dasharray:none;stroke-opacity:1;visibility:visible"/><path d="m576.813 683.047.008-.652M583.875 683.089v-.66M531.474 729.534h0M583.875 683.089h0M576.813 683.047h0M576.732 695.231h0" style="fill:none;stroke:red;stroke-width:.999997;stroke-linecap:round;stroke-linejoin:round;stroke-miterlimit:4;stroke-dasharray:none;stroke-opacity:1;visibility:visible"/><path d="m531.026 739.953-.144.107-.137.085-.134.084-.133.068-.145.073-.168.072" style="fill:none;stroke:red;stroke-width:1.99999;stroke-linecap:round;stroke-linejoin:round;stroke-miterlimit:4;stroke-dasharray:none;stroke-opacity:1;visibility:visible"/><path d="m533.29 930.238-.016.016-.017.007-.01.017-.012.01-.008.006-.02.015M529.003 927.678l.099-.081.101-.05.095-.024.106-.006.106.006.117.024.064.018M531.031 932.509v.01h-.005l-.011.009-.01.008-.006.008-.007.006M526.23 930.785v-.105l.013-.088.02-.079.023-.072.052-.075.053-.073M476.526 781.398h0M529.54 933.988l-.023.041-.028.031-.021.032-.023.03-.028.034-.033.03" style="fill:none;stroke:red;stroke-width:.999997;stroke-linecap:round;stroke-linejoin:round;stroke-miterlimit:4;stroke-dasharray:none;stroke-opacity:1;visibility:visible"/><path d="M569.786 700.573h0M569.786 700.573l.627-.472M531.474 729.534l35.197-26.604M574.49 697.018l2.179-1.648M538.772 733.329l37.904-29.095M528.453 741.262l-38.797 29.792M486.24 773.674l-9.497 7.29M482.813 766.36l-2.459 1.812M486.27 763.7l-.107.08M524.007 735.175 486.271 763.7M575.42 893.756l.043-6.228M575.495 882.48l.721-109.296M576.24 769.917l.139-20.915M576.428 741.221l.248-36.988M576.732 695.231l.081-12.184M581.957 893.83l1.119-122.205M583.099 768.333l.17-17.879M583.33 742.667l.361-39.155M583.719 700.582l.156-17.493" style="fill:none;stroke:red;stroke-width:1.99999;stroke-linecap:round;stroke-linejoin:round;stroke-miterlimit:4;stroke-dasharray:none;stroke-opacity:1;visibility:visible"/><path d="m576.668 695.37.008-.007.017-.016.018-.025.004-.03.017-.034v-.027" style="fill:none;stroke:red;stroke-width:.999997;stroke-linecap:round;stroke-linejoin:round;stroke-miterlimit:4;stroke-dasharray:none;stroke-opacity:1;visibility:visible"/><path d="m531.031 739.945 2.357-1.804M530.094 731.297l.007-.008.169-.215.152-.218.145-.222.184-.289.056-.081.055-.088.076-.104.077-.098.107-.121.112-.119.032-.034M530.76 927.476l44.736-44.997M533.29 930.238l42.175-42.71" style="fill:none;stroke:red;stroke-width:1.99999;stroke-linecap:round;stroke-linejoin:round;stroke-miterlimit:4;stroke-dasharray:none;stroke-opacity:1;visibility:visible"/><path d="m529.69 927.565.203.05.208.014h.161l.152-.023.153-.048.146-.054.046-.027M531.031 932.509l2.176-2.2M526.39 930.293l2.612-2.615" style="fill:none;stroke:red;stroke-width:.999997;stroke-linecap:round;stroke-linejoin:round;stroke-miterlimit:4;stroke-dasharray:none;stroke-opacity:1;visibility:visible"/><path d="m470.77 1000.715-2.473-237.365M478.23 1000.594l-.115-14.484M478.075 980.479l-1.55-199.08M476.445 771.13l-.05-7.844" style="fill:none;stroke:red;stroke-width:1.99999;stroke-linecap:round;stroke-linejoin:round;stroke-miterlimit:4;stroke-dasharray:none;stroke-opacity:1;visibility:visible"/><path d="m476.742 780.964-.053.047-.048.065-.047.07-.036.091-.021.086-.011.074" style="fill:none;stroke:red;stroke-width:.999997;stroke-linecap:round;stroke-linejoin:round;stroke-miterlimit:4;stroke-dasharray:none;stroke-opacity:1;visibility:visible"/><path d="m530.164 740.442-.448.193-.443.211-.414.201-.382.202-.024.013" style="fill:none;stroke:red;stroke-width:1.99999;stroke-linecap:round;stroke-linejoin:round;stroke-miterlimit:4;stroke-dasharray:none;stroke-opacity:1;visibility:visible"/><path d="m524.306 734.983.13-.061.222-.107.25-.07.249-.06.254-.03h.262" style="fill:none;stroke:red;stroke-width:.999997;stroke-linecap:round;stroke-linejoin:round;stroke-miterlimit:4;stroke-dasharray:none;stroke-opacity:1;visibility:visible"/><path d="m529.384 934.195-51.27 51.916M526.352 931.917l-48.276 48.561" style="fill:none;stroke:red;stroke-width:1.99999;stroke-linecap:round;stroke-linejoin:round;stroke-miterlimit:4;stroke-dasharray:none;stroke-opacity:1;visibility:visible"/><path d="m530.982 932.55-.237.195-.239.206-.244.203-.204.181-.188.203-.121.144-.108.148-.1.159M526.352 931.917l-.015-.179-.032-.313-.032-.3-.044-.341M531.371 934.14h.059l.03-.005.02-.011.03-.016M536.026 732.559l-.035-.008-.02-.016-.033-.004-.021-.012-.035-.01-.033-.003M526.56 730.559h-.016l-.023-.005h-.032l-.014-.01h-.028M532.437 737.93v.01M526.971 928.151l-.028-.024-.027-.023-.028-.017-.022-.017-.035-.014-.03-.014M438.439 903.428h0M442.262 713.122h0M435.145 710.88h0M534.234 930.11l-.079-.01-.082.01-.079.027-.083.046-.086.066-.092.085M628.01 960.265h0M619.131 750.159h0M531.36 934.14l-1.61-.457" style="fill:none;stroke:red;stroke-width:.999997;stroke-linecap:round;stroke-linejoin:round;stroke-miterlimit:4;stroke-dasharray:none;stroke-opacity:1;visibility:visible"/><path d="m535.849 732.505-4.767-.997M530.784 731.443l-4.224-.885" style="fill:none;stroke:red;stroke-width:1.99999;stroke-linecap:round;stroke-linejoin:round;stroke-miterlimit:4;stroke-dasharray:none;stroke-opacity:1;visibility:visible"/><path d="m532.437 737.93-2.544-.53M526.971 928.151l.15.177.162.168.167.136.129.098.144.088.09.048M526.07 932.196l-.128-.248-.112-.224-.039-.064M525.792 931.65h-.008" style="fill:none;stroke:red;stroke-width:.999997;stroke-linecap:round;stroke-linejoin:round;stroke-miterlimit:4;stroke-dasharray:none;stroke-opacity:1;visibility:visible"/><path d="M523.72 730.183h.03l.022.01.059.006.144.023.222.032.226.041.45.061.46.059.463.057.321.043.324.03M525.784 931.65l-48.19-13.487M469.888 916.002l-31.97-8.943M526.797 928.042l-49.235-13.717M469.845 912.183l-31.407-8.755M521.195 737.297l-81.117-17.205" style="fill:none;stroke:red;stroke-width:1.99999;stroke-linecap:round;stroke-linejoin:round;stroke-miterlimit:4;stroke-dasharray:none;stroke-opacity:1;visibility:visible"/><path d="m436.525 719.34-1.267-.268" style="fill:none;stroke:red;stroke-width:.999997;stroke-linecap:round;stroke-linejoin:round;stroke-miterlimit:4;stroke-dasharray:none;stroke-opacity:1;visibility:visible"/><path d="m449.538 714.65-1.955-.41M450.125 714.73l-.587-.081M523.708 730.183 455.52 715.83M442.262 713.122l-6.367-1.332M431.31 916.75l-2.98-178.722M428.266 734.511l-.568-34.293M438.055 916.591l-.137-9.53M437.862 902.78l-2.137-150.92M435.661 747.162l-.313-22.143" style="fill:none;stroke:red;stroke-width:1.99999;stroke-linecap:round;stroke-linejoin:round;stroke-miterlimit:4;stroke-dasharray:none;stroke-opacity:1;visibility:visible"/><path d="m435.283 720.572-.025-1.5" style="fill:none;stroke:red;stroke-width:.999997;stroke-linecap:round;stroke-linejoin:round;stroke-miterlimit:4;stroke-dasharray:none;stroke-opacity:1;visibility:visible"/><path d="m435.145 710.88-.148-10.74" style="fill:none;stroke:red;stroke-width:1.99999;stroke-linecap:round;stroke-linejoin:round;stroke-miterlimit:4;stroke-dasharray:none;stroke-opacity:1;visibility:visible"/><path d="M437.862 902.78v.017l.008.042.008.048.012.056.036.054.043.08.046.078.079.084.097.082.08.047.09.03.078.03M435.145 710.88l.012.132.03.136.06.137.07.127.064.079.07.073.089.064.082.057.096.047.098.041.078.016M442.3 713.132l.177.048.223.079.212.098.215.112.224.135.224.164.046.027" style="fill:none;stroke:red;stroke-width:.999997;stroke-linecap:round;stroke-linejoin:round;stroke-miterlimit:4;stroke-dasharray:none;stroke-opacity:1;visibility:visible"/><path d="m533.246 933.74-.208-.025-.223-.023h-.15l-.152.017-.148.014-.126.032-.13.05-.095.035h-.007l-.028.012-.016.015-.122.054-.17.1-.161.086M536.307 740.5l-.096-.035-.13-.064-.11-.07-.123-.103-.084-.088-.092-.097-.097-.098-.156-.185-.161-.183-.322-.364-.337-.336-.345-.304-.131-.09-.136-.087-.133-.081-.13-.06-.121-.052-.137-.048h-.024l-.048-.014-.07-.016-.117-.026-.11-.02-.329-.079-.33-.06M536.026 732.559l.145.059.16.054.168.064.194.064.192.066.252.073.246.07.266.082.138.03.062.02.025.005h.007M534.234 930.11l94.564 26.343M533.246 933.74l94.764 26.525M614.878 749.268l4.253.89M537.888 733.146l72.058 15.09M625.152 751.42l6.776 1.419M536.332 740.505l76.506 16.225M617.187 757.658l13.784 2.921M628.547 972.6l.177-11.379M628.798 956.453l2.99-194.853M631.928 752.839l.16-10.655M635.783 972.8l4.148-230.494" style="fill:none;stroke:red;stroke-width:1.99999;stroke-linecap:round;stroke-linejoin:round;stroke-miterlimit:4;stroke-dasharray:none;stroke-opacity:1;visibility:visible"/><path d="M628.724 961.221v-.079l-.008-.08-.016-.101-.03-.093-.06-.13-.08-.121-.105-.112-.109-.103-.097-.057-.107-.047-.101-.033M631.79 761.6v-.105l-.015-.103-.029-.105-.06-.155-.08-.143-.068-.081-.084-.077-.079-.075-.097-.064-.095-.048-.105-.041-.097-.024M619.156 750.165l.184.05.2.073.212.096.196.113.219.141.225.171.207.175.054.049" style="fill:none;stroke:red;stroke-width:.999997;stroke-linecap:round;stroke-linejoin:round;stroke-miterlimit:4;stroke-dasharray:none;stroke-opacity:1;visibility:visible"/><path d="m632.096 741.47.016-.127.036-.122.055-.13.078-.118.086-.112.112-.112.14-.106.144-.106.169-.103.192-.088.199-.09.208-.08.25-.078.256-.067.267-.061.275-.05.306-.038.31-.035.313-.022.325-.011h.235l.25.01.245.018.27.023.276.032.262.04.266.057.246.056.241.063.225.064.22.08.207.089.195.088.2.115.18.118.172.127.138.14.1.125.084.13.055.136.03.125.009.143" style="fill:none;stroke:red;stroke-width:1.99999;stroke-linecap:round;stroke-linejoin:round;stroke-miterlimit:4;stroke-dasharray:none;stroke-opacity:1;visibility:visible"/><path d="m632.089 742.184.008-.713M639.93 742.305l.008-.71" style="fill:none;stroke:red;stroke-width:.999997;stroke-linecap:round;stroke-linejoin:round;stroke-miterlimit:4;stroke-dasharray:none;stroke-opacity:1;visibility:visible"/><path d="m532.309 929.195-.025.121-.042.111-.05.104-.072.087-.088.09-.123.098M532.309 929.14v.056M531.909 929.805l-.039.041-.044.042-.04.029-.038.03-.042.042-.056.03M531.65 930.019l-.008.012-.015.005-.008.012-.008.003-.017.013-.005.003" style="fill:none;stroke:red;stroke-width:.666665;stroke-linecap:round;stroke-linejoin:round;stroke-miterlimit:4;stroke-dasharray:none;stroke-opacity:1;visibility:visible"/><path d="M529.805 732.945v.007h-.01l-.023.01-.04.006-.055.009h-.128l-.16-.01-.155-.015-.144-.022-.14-.033-.121-.04-.13-.05-.06-.03-.035-.024-.036-.025-.031-.016-.016-.024v-.01h.016M531.466 731.635h.008v.008l-.008-.008h-.025M531.441 731.635h0M485.205 766.038l.2.015.206.01h.208l.208-.004.206-.014.204-.015.193-.03.19-.03.177-.037.168-.041.152-.048.14-.054.123-.057.108-.057.087-.064.068-.066.05-.066.03-.071.01-.069M450.35 715.8l.006-.058.014-.058.02-.052.04-.056.04-.052.057-.056.059-.05.073-.046.079-.046.092-.048.097-.044.11-.037.117-.043.133-.037.13-.032.141-.028.16-.028.165-.024.165-.015.168-.012.155-.005.147-.003.148.003.149.01M452.814 714.981l.145.01.148.015.145.018.143.024.135.03.134.028.119.035.112.037.107.044.096.04.092.05.088.054.077.059.067.061.048.066.034.06.022.061.009.064M450.35 715.8l.014.064.027.07.049.062.07.061.086.059.104.057.122.05.133.051.15.042.163.037.171.036.181.024.19.023" style="fill:none;stroke:red;stroke-width:.999997;stroke-linecap:round;stroke-linejoin:round;stroke-miterlimit:4;stroke-dasharray:none;stroke-opacity:1;visibility:visible"/><path d="m451.81 716.434.198.016.207.011h.208l.207-.008.206-.012.204-.016.192-.03.19-.029.178-.037.168-.041.154-.048.138-.054.126-.056.104-.057.088-.067.068-.065.05-.065.03-.07.009-.069M609.945 749.248l.008-.058.013-.058.024-.054.036-.053.04-.055.055-.054.061-.05.074-.048.082-.044.088-.048.1-.044.106-.037.12-.043.13-.037.134-.032.138-.03.163-.026.161-.024.167-.016.17-.01.154-.007.145-.003.151.003.145.009.147.011.15.013.143.02.142.025.137.028.132.03.121.033.11.039.108.042.096.042.093.048.085.053.082.06.064.061.05.067.031.059.023.06.01.066M609.945 749.248l.016.064.029.068.05.062.068.063.086.059.103.056.121.05.134.052.15.042.162.036.172.037.18.023.192.024M611.408 749.884l.198.014.207.01h.208l.21-.004.201-.014.206-.017.192-.028.192-.03.176-.038.168-.04.154-.048.138-.053.124-.06.106-.054.088-.066.07-.066.047-.066.031-.07.01-.066M567.672 701.988l.008-.058.012-.057.024-.055.037-.053.04-.053.055-.056.061-.05.074-.046.082-.047.088-.045.1-.046.107-.037.119-.043.13-.036.134-.033.137-.028.164-.028.161-.024.167-.016M569.372 701.176l.17-.01.15-.005.149-.004.15.004.145.01.148.009.148.013.143.02.144.024.134.03.135.026.121.037.111.036.105.044.096.042.094.048.085.053.08.061.064.06.052.064.032.06.021.063.011.064M567.672 701.988l.016.064.028.068.05.064.068.062.086.058.104.058.121.05.135.048.149.044.162.036.172.037.18.024.192.023M569.135 702.624l.198.014.207.012h.208l.21-.008.202-.01.205-.019.192-.028.193-.03.175-.039.167-.039.155-.047.138-.054.125-.058.105-.057.085-.065.071-.066.051-.065.029-.07.009-.068M483.745 765.404l.006-.058.014-.056.022-.054.037-.056.041-.052.055-.055.063-.05.07-.048.081-.046.091-.047.097-.042.108-.04.12-.04.133-.038.13-.032.14-.028.16-.03.163-.023.168-.016.168-.01.155-.007.145-.003.15.004.146.01.147.009.148.013.146.019.142.026.137.028.13.03.121.033.111.039.107.042.098.044.093.047.084.053.08.06.068.062.049.064.029.06.025.063.01.063M483.745 765.404l.015.064.027.069.05.061.067.063.088.059.103.058.122.05.134.049.149.043.16.037.173.036.183.024.19.023M577.291 699.788l4.563.337" style="fill:none;stroke:red;stroke-width:.999997;stroke-linecap:round;stroke-linejoin:round;stroke-miterlimit:4;stroke-dasharray:none;stroke-opacity:1;visibility:visible"/><path d="m577.786 699.34 1.282 3.055M575.495 882.48l2.988 1.987" style="fill:none;stroke:red;stroke-width:1.99999;stroke-linecap:round;stroke-linejoin:round;stroke-miterlimit:4;stroke-dasharray:none;stroke-opacity:1;visibility:visible"/><path d="m435.145 710.88 5.412 5.06M609.945 749.248l7.877 4.121M619.131 750.16l.715 5.578" style="fill:none;stroke:red;stroke-width:.999997;stroke-linecap:round;stroke-linejoin:round;stroke-miterlimit:4;stroke-dasharray:none;stroke-opacity:1;visibility:visible"/><path d="m623.344 752.767.827-.812M479.879 768.06l-11.524 1.19M479.879 768.06l-11.557-2.143M569.786 700.573l-3.115 2.357M486.24 773.674l3.416-2.62M484.7 770.301l1.54 3.373M479.818 768.084l2.995-1.724M576.24 769.917l-.024 3.267M576.216 773.184l.024-3.267M576.428 741.221l-.05 7.781M576.379 749.002l.049-7.781M583.099 768.333l-.023 3.292M583.076 771.625l.023-3.292M583.33 742.667l-.062 7.787M583.268 750.454l.062-7.787M583.719 700.582l-.028 2.93M583.691 703.512l.028-2.93M469.888 916.002l7.705 2.161M477.562 914.325l-7.674 1.677M469.888 916.002l7.674-1.677M477.562 914.325l-7.717-2.142M436.525 719.34l3.553.752" style="fill:none;stroke:red;stroke-width:1.99999;stroke-linecap:round;stroke-linejoin:round;stroke-miterlimit:4;stroke-dasharray:none;stroke-opacity:1;visibility:visible"/><path d="m434.262 718.863 2.263.477" style="fill:none;stroke:red;stroke-width:.999997;stroke-linecap:round;stroke-linejoin:round;stroke-miterlimit:4;stroke-dasharray:none;stroke-opacity:1;visibility:visible"/><path d="m428.266 734.511.064 3.517M428.33 738.028l-.064-3.517M435.661 747.162l.064 4.698M435.725 751.86l-.064-4.698M435.283 720.572l.065 4.447" style="fill:none;stroke:red;stroke-width:1.99999;stroke-linecap:round;stroke-linejoin:round;stroke-miterlimit:4;stroke-dasharray:none;stroke-opacity:1;visibility:visible"/><path d="m435.348 725.02-.065-4.448" style="fill:none;stroke:red;stroke-width:.999997;stroke-linecap:round;stroke-linejoin:round;stroke-miterlimit:4;stroke-dasharray:none;stroke-opacity:1;visibility:visible"/><path d="m614.878 749.268-4.932-1.033M617.187 757.658l-4.349-.928M612.838 756.73l4.349.928" style="fill:none;stroke:red;stroke-width:1.99999;stroke-linecap:round;stroke-linejoin:round;stroke-miterlimit:4;stroke-dasharray:none;stroke-opacity:1;visibility:visible"/><path d="m561.206 659.518.005-.145.03-.156.058-.143.084-.147.084-.126.108-.112.128-.104.138-.082.129-.062.143-.05.132-.022.141-.016.141.005.138.033.129.04.123.066.1.07.084.08.077.091.064.11.057.114.032.117.023.123v.121l-.008.13-.023.129-.046.119-.059.121-.064.119-.079.105-.085.09-.107.086-.12.08-.13.075-.136.046-.138.03-.126.014h-.136l-.139-.014-.13-.03-.133-.062-.128-.083-.106-.088-.086-.112-.081-.13-.053-.146-.03-.143-.005-.141" style="fill:none;stroke:#00ff4a;stroke-width:.999997;stroke-linecap:round;stroke-linejoin:round;stroke-miterlimit:4;stroke-dasharray:none;stroke-opacity:1;visibility:visible" visibility="hidden"/><path d="m645.029 620.218-.047.527-.097.716-.155.706-.18.716-.234.707-.27.712-.314.707-.364.706-.402.707-.438.705-.494.7-.526.708-.58.696-.619.694-.656.697-.705.69-.742.68-.796.685-.824.672-.877.676-.915.666-.957.667-.996.657-1.043.65-1.074.652-1.124.636-1.166.63-1.205.63-1.233.616-1.287.618-1.321.603-1.362.593-1.392.594-1.438.578-1.474.572-1.514.562-1.542.553-1.589.543-1.615.533-1.654.52-1.683.519-1.721.502-1.758.49-1.778.482-1.816.474-1.848.454-1.878.444-1.909.436-1.935.423-1.964.41-1.992.393-2.012.385-2.04.37-2.07.36-2.088.347-2.11.328-2.138.312-2.153.308-2.176.288-2.188.27-2.216.27-2.223.239-2.252.233-2.253.216-2.28.199-2.286.185-2.298.182-2.312.148-2.322.144-2.33.12-2.34.116-2.347.094-2.344.079-2.36.057-2.361.047-2.358.032-2.364.017-2.368.01-2.361-.016-2.368-.031-2.361-.05-2.348-.066-2.354-.07-2.344-.097-2.345-.104-2.325-.126-2.327-.14-2.308-.16-2.305-.168-2.288-.187-2.27-.199-2.268-.208-2.246-.232-2.223-.242-2.216-.266-2.2-.272-2.177-.29-2.15-.296-2.14-.322-2.117-.326-2.09-.34-2.07-.363-2.039-.367-2.017-.386-1.999-.392-1.957-.41-1.941-.418-1.908-.432-1.88-.451-1.848-.448-1.823-.475-1.784-.481-1.756-.492-1.727-.496-1.686-.516-1.654-.521-1.624-.54-1.588-.535-1.549-.555-1.51-.561-1.478-.57-1.434-.58-1.404-.585-1.368-.602-1.326-.602-1.281-.61-1.245-.616-1.203-.628-1.176-.634-1.124-.641-1.08-.643-1.045-.649-1.004-.659-.955-.669-.927-.665-.874-.672-.835-.678-.788-.682-.752-.683-.707-.69-.658-.69-.627-.7-.577-.695-.534-.701-.493-.704-.439-.701-.413-.706-.361-.705-.32-.717-.284-.707-.231-.713-.192-.707-.144-.713-.113-.708-.043-.468" style="fill:none;stroke:#00ff4a;stroke-width:1.99999;stroke-linecap:round;stroke-linejoin:round;stroke-miterlimit:4;stroke-dasharray:none;stroke-opacity:1;visibility:visible" visibility="hidden"/><path d="m582.625 598.314 1.772.313 1.761.331 1.732.335 1.724.354 1.704.351 1.686.372 1.662.377 1.65.394 1.626.397 1.606.413 1.581.419 1.567.427 1.544.437 1.513.448 1.495.46 1.468.467 1.448.472 1.42.489 1.396.49 1.372.509 1.34.512 1.318.521 1.287.53 1.26.533 1.239.544 1.19.553 1.18.56 1.144.573 1.116.58 1.074.586 1.052.584 1.018.6.99.602.949.611.921.62.883.627.861.625.808.644.788.64.746.643.717.658.67.658.637.658.604.674.56.668.529.68.49.684.451.685.408.687.382.689.333.701.29.69.258.704.212.7M417.973 627.794l.22-.701.248-.696.297-.698.326-.69.38-.692.413-.688.448-.682.479-.684.532-.673.56-.667.602-.666.632-.67.67-.657.716-.652.734-.639.782-.642.821-.634.845-.637.879-.619.913-.618.958-.607.976-.605 1.016-.6 1.049-.584 1.077-.588 1.108-.571 1.13-.57 1.173-.562 1.2-.556 1.224-.537 1.257-.534 1.279-.532 1.31-.521 1.34-.505 1.366-.507 1.392-.499 1.41-.484 1.44-.47 1.469-.464 1.485-.463 1.51-.447 1.529-.438 1.56-.428 1.58-.428 1.6-.407 1.62-.393 1.64-.395 1.66-.38 1.68-.365 1.693-.362 1.719-.342 1.726-.338 1.747-.333 1.77-.32 1.783-.305 1.788-.296 1.814-.283 1.822-.273 1.839-.262 1.848-.253 1.861-.241 1.879-.23 1.885-.217 1.895-.21 1.902-.2 1.922-.185 1.925-.168 1.937-.169 1.934-.147 1.948-.142 1.953-.132 1.97-.11 1.955-.105 1.978-.096 1.974-.079 1.972-.074 1.987-.054 1.992-.05 1.983-.04 1.988-.02 1.985-.015h1.992l1.988.015 1.99.02 1.986.034 1.985.047 1.98.057 1.983.064 1.977.08 1.976.1 1.964.1 1.958.112 1.952.131 1.953.136 1.941.153 1.938.158 1.922.173 1.92.185 1.907.188 1.89.212 1.898.215 1.87.232 1.863.233 1.855.258 1.835.257 1.83.273 1.81.28 1.793.3 1.787.303" style="fill:none;stroke:#00ff4a;stroke-width:.999997;stroke-linecap:round;stroke-linejoin:round;stroke-miterlimit:4;stroke-dasharray:none;stroke-opacity:1;visibility:visible" visibility="hidden"/><path d="m583.966 586.422 1.804.316 1.783.328 1.774.328 1.751.347 1.73.364 1.726.358 1.69.375 1.677.387 1.656.396 1.638.398 1.612.419 1.599.425 1.561.432 1.554.443 1.525.457 1.503.455 1.478.477 1.45.482 1.428.489 1.4.497 1.373.51 1.348.512 1.317.521 1.29.53 1.26.537 1.23.554 1.204.555 1.172.56 1.147.573 1.113.576 1.082.586 1.046.585 1.016.604.978.603.956.609.918.62.874.624.852.635.812.637.776.643.737.649.71.648.666.659.628.656.592.67.553.672.519.676.476.676.444.679.396.69.365.694.326.69.277.697.239.7.2.693.154.71.12.7.079.706.036.707v.713M414.448 619.854v-.713l.035-.707.078-.707.123-.705.152-.708.199-.696.248-.699.282-.701.322-.692.361-.688.403-.692.44-.684.482-.677.514-.675.56-.676.598-.668.62-.664.676-.659.711-.648.736-.653.781-.645.812-.63.847-.634.885-.622.922-.618.949-.616.984-.602 1.025-.605 1.051-.592 1.08-.585 1.119-.579 1.141-.57 1.176-.56 1.205-.555 1.238-.546 1.272-.54 1.293-.537 1.321-.52 1.346-.513 1.376-.508 1.402-.498 1.432-.489 1.463-.483 1.479-.476 1.498-.456 1.534-.458 1.549-.436 1.576-.436 1.596-.426 1.623-.413 1.636-.408 1.662-.39 1.687-.387 1.7-.38 1.717-.358 1.736-.354 1.76-.347 1.772-.337 1.79-.32 1.806-.314 1.823-.3 1.84-.293 1.85-.28 1.867-.273 1.89-.26 1.883-.247 1.912-.24 1.908-.225 1.928-.218 1.944-.2 1.95-.192 1.952-.184 1.965-.17 1.977-.159 1.98-.153 1.992-.139 2-.12 2-.119 2.016-.098 2.004-.094 2.026-.08 2.012-.065 2.028-.057 2.028-.048 2.034-.03 2.02-.026 2.031-.015 2.032.005 2.033.01 2.03.025 2.03.03 2.023.049 2.023.057 2.024.07 2.017.08 2.013.095 2.01.107 1.994.112 2.002.13 1.992.134 1.984.145 1.964.163 1.969.177 1.957.182 1.954.193 1.933.203 1.924.214 1.923.232 1.905.243 1.88.248 1.88.256 1.875.272 1.848.284 1.833.29 1.825.302M645.586 619.854l-.388 9.948M414.448 619.854l.38 9.948M645.198 629.802l-.032.61-.061.611-.083.61-.113.601-.134.61-.161.602-.184.605-.208.592-.235.591-.256.599-.282.586-.298.584-.329.578-.348.58-.381.585-.398.57-.422.57-.439.57-.467.562-.492.553-.517.555-.524.552-.556.539-.579.545-.589.533-.617.526-.686.565-.698.556-.734.552-.753.544-.773.536-.799.54-.828.53-.843.531-.874.522-.895.513-.913.515-.938.506-.956.498-1.004.504-1.02.497-1.053.49-1.068.489-1.09.482-1.12.475-1.135.473-1.164.466-1.182.458-1.206.448-1.228.452-1.244.435-1.27.432-1.274.423-1.302.412-1.326.409-1.335.41-1.359.391-1.38.388-1.405.384-1.427.379-1.426.359-1.459.36-1.47.356-1.483.344-1.514.34-1.505.32-1.527.317-1.548.315-1.56.31-1.58.287-1.593.288-1.603.284-1.62.261-1.635.264-1.643.25-1.653.246-1.667.236-1.68.224-1.69.22-1.69.204-1.715.204-1.71.192-1.734.178-1.732.173-1.74.163-1.761.15-1.757.147-1.768.139-1.774.124-1.784.122-1.78.104-1.784.1-1.79.084-1.798.082-1.796.07-1.808.056-1.81.05-1.8.04-1.82.03-1.808.026-1.82.009-1.816.008-1.803-.008-1.813-.016-1.807-.035-1.808-.032-1.808-.046-1.804-.046-1.8-.076-1.796-.07-1.799-.08-1.784-.096-1.789-.096-1.772-.115-1.776-.12-1.764-.137-1.763-.136-1.748-.142-1.741-.164-1.737-.168-1.726-.174-1.717-.186-1.71-.192-1.706-.2-1.693-.217-1.674-.219-1.664-.234-1.656-.24-1.64-.24-1.624-.255-1.622-.268-1.598-.273-1.596-.28-1.577-.288-1.56-.298-1.552-.304-1.535-.314-1.517-.324-1.5-.32-1.476-.336-1.47-.346-1.457-.35-1.426-.355-1.415-.37-1.404-.377-1.38-.378-1.357-.382-1.35-.401-1.325-.404-1.307-.4-1.286-.419-1.266-.424-1.244-.43-1.222-.431-1.204-.447-1.18-.436-1.165-.457-1.144-.459-1.122-.466-1.094-.474-1.087-.481-1.05-.48-1.04-.495-1.013-.488-.981-.504-.967-.506-.948-.507-.916-.51-.89-.523-.874-.531-.85-.53-.835-.538-.804-.548-.78-.54-.753-.559-.736-.562-.711-.559-.683-.57-.658-.582-.631-.572-.612-.581-.576-.596-.565-.594-.531-.593-.512-.612-.484-.61-.453-.615-.438-.619-.4-.635-.378-.625-.35-.644-.321-.641-.3-.643-.265-.65-.23-.658-.201-.628-.173-.624-.147-.628-.115-.633-.098-.627-.063-.633-.039-.635" style="fill:none;stroke:#00ff4a;stroke-width:1.99999;stroke-linecap:round;stroke-linejoin:round;stroke-miterlimit:4;stroke-dasharray:none;stroke-opacity:1;visibility:visible" visibility="hidden"/></svg>