<svg xmlns="http://www.w3.org/2000/svg" baseProfile="full" height="1122.52" preserveAspectRatio="xMinYMin meet" style="width:912px;height:1246px" width="793.701" xml:space="preserve"><path d="m374.193 815.805.339 8.084M374.532 823.888l212.898 77.058" style="fill:none;stroke:red;stroke-width:1.99999;stroke-linecap:round;stroke-linejoin:round;stroke-miterlimit:500;stroke-dasharray:none;stroke-opacity:1;visibility:visible"/><path d="m587.465 892.292-.033 8.655" style="fill:none;stroke:red;stroke-width:.999997;stroke-linecap:round;stroke-linejoin:round;stroke-miterlimit:500;stroke-dasharray:none;stroke-opacity:1;visibility:visible"/><path d="m587.43 900.947 134.685-109.685M722.116 791.262l.256-7.85" style="fill:none;stroke:red;stroke-width:1.99999;stroke-linecap:round;stroke-linejoin:round;stroke-miterlimit:500;stroke-dasharray:none;stroke-opacity:1;visibility:visible"/><path d="m722.372 783.412-134.908 108.88" style="fill:none;stroke:red;stroke-width:.999997;stroke-linecap:round;stroke-linejoin:round;stroke-miterlimit:500;stroke-dasharray:none;stroke-opacity:1;visibility:visible"/><path d="m649.74 761.315 72.632 22.096M612.48 749.98l4.775 1.453M598.14 745.617l8.488 2.581M572.046 737.679l16.987 5.168M541.23 728.305l21.301 6.479M519.246 724.438l3.019-1.904 12.902 3.928M487.279 744.57l26.248-16.53M412.128 791.91l42-26.456M374.193 815.805l32.204-20.287" style="fill:none;stroke:red;stroke-width:1.99999;stroke-linecap:round;stroke-linejoin:round;stroke-miterlimit:500;stroke-dasharray:none;stroke-opacity:1;visibility:visible"/><path d="m374.193 815.805 213.271 76.486" style="fill:none;stroke:red;stroke-width:.999997;stroke-linecap:round;stroke-linejoin:round;stroke-miterlimit:500;stroke-dasharray:none;stroke-opacity:1;visibility:visible"/><path d="m606.628 748.198 5.852 1.782M598.14 745.617l19.115 5.816M589.033 742.847l9.107 2.77M612.48 749.98l-5.852-1.782M562.531 734.784l9.515 2.895M598.14 745.617l-9.107-2.77M535.167 726.462l6.063 1.843M572.046 737.679l-9.515-2.895M513.527 728.04l5.719-3.602M541.23 728.305l-6.063-1.843M519.246 724.438l-5.72 3.601M406.397 795.518l5.731-3.608M412.128 791.91l-5.731 3.608" style="fill:none;stroke:red;stroke-width:1.99999;stroke-linecap:round;stroke-linejoin:round;stroke-miterlimit:500;stroke-dasharray:none;stroke-opacity:1;visibility:visible"/><path d="m609.633 758.18.217.041h.234l.212-.041.16-.073.086-.099-.008-.107-.092-.098-.168-.076-.216-.042h-.232l-.213.042-.163.073-.082.099.002.106.095.099.168.076M422.941 729.115l.016.503M554.15 771.222l-.003-.624M406.753 725.86l-.38.197-.275.226-.152.245-.024.248.107.239.232.217.344.181.439.14.509.088.552.032.564-.026.547-.083.501-.133.424-.18.33-.212.213-.239.09-.247-.045-.245-.17-.228-.291-.201-.395-.16M409.872 725.718l-.283-.067M565.47 775.724l-.207.05-.465.177-.361.224-.243.257-.112.275.028.281.165.272.294.245.406.208.496.158.562.1.596.034.594-.029.566-.093.505-.151.416-.203.305-.241.176-.27.042-.28-.099-.277-.233-.261-.352-.225-.454-.186M483.76 749.953l-.465.167-.371.208-.26.24-.135.26v.264l.135.254.261.23.374.194.466.15.535.093.57.033.583-.026.556-.088.502-.143.422-.19.316-.227.199-.252.064-.263-.068-.261-.201-.242-.32-.214-.422-.174M422.652 730.078l-.88-.279M421.772 729.8l1.17-.685" style="fill:none;stroke:#00ff4a;stroke-width:.999997;stroke-linecap:round;stroke-linejoin:round;stroke-miterlimit:500;stroke-dasharray:none;stroke-opacity:1;visibility:visible"/><path d="m412.383 725.775 10.559 3.34M401.348 726.492l4.715-2.716M569.11 775.328l5.03 1.59M555.124 770.907l9.815 3.104" style="fill:none;stroke:#00ff4a;stroke-width:1.99999;stroke-linecap:round;stroke-linejoin:round;stroke-miterlimit:500;stroke-dasharray:none;stroke-opacity:1;visibility:visible"/><path d="m554.013 771.668 1.11-.761M553.036 771.36l1.11-.761M553.036 771.36l.976.308" style="fill:none;stroke:#00ff4a;stroke-width:.999997;stroke-linecap:round;stroke-linejoin:round;stroke-miterlimit:500;stroke-dasharray:none;stroke-opacity:1;visibility:visible"/><path d="m488.012 749.688 66.136 20.91M466.02 742.733l16.119 5.097M423.822 729.39l42.199 13.343" style="fill:none;stroke:#00ff4a;stroke-width:1.99999;stroke-linecap:round;stroke-linejoin:round;stroke-miterlimit:500;stroke-dasharray:none;stroke-opacity:1;visibility:visible"/><path d="m422.652 730.078 1.17-.688" style="fill:none;stroke:#00ff4a;stroke-width:.999997;stroke-linecap:round;stroke-linejoin:round;stroke-miterlimit:500;stroke-dasharray:none;stroke-opacity:1;visibility:visible"/><path d="m574.14 776.92-.023 21.255" style="fill:none;stroke:#00ff4a;stroke-width:1.99999;stroke-linecap:round;stroke-linejoin:round;stroke-miterlimit:500;stroke-dasharray:none;stroke-opacity:1;visibility:visible"/><path d="m569.72 780.02 4.42-3.1" style="fill:none;stroke:#00ff4a;stroke-width:.999997;stroke-linecap:round;stroke-linejoin:round;stroke-miterlimit:500;stroke-dasharray:none;stroke-opacity:1;visibility:visible"/><path d="m569.717 801.34 4.401-3.165" style="fill:none;stroke:#00ff4a;stroke-width:1.99999;stroke-linecap:round;stroke-linejoin:round;stroke-miterlimit:500;stroke-dasharray:none;stroke-opacity:1;visibility:visible"/><path d="m569.72 780.02-.003 21.32M401.348 726.492 569.72 780.02" style="fill:none;stroke:#00ff4a;stroke-width:.999997;stroke-linecap:round;stroke-linejoin:round;stroke-miterlimit:500;stroke-dasharray:none;stroke-opacity:1;visibility:visible"/><path d="m402.063 746.666-.715-20.173M569.717 801.34l-167.654-54.675" style="fill:none;stroke:#00ff4a;stroke-width:1.99999;stroke-linecap:round;stroke-linejoin:round;stroke-miterlimit:500;stroke-dasharray:none;stroke-opacity:1;visibility:visible"/><path d="m548.526 674.051-.832.501M548.57 655.341v.464" style="fill:none;stroke:#00ff4a;stroke-width:.999997;stroke-linecap:round;stroke-linejoin:round;stroke-miterlimit:500;stroke-dasharray:none;stroke-opacity:1;visibility:visible"/><path d="m534.536 670.875 13.157 3.677" style="fill:none;stroke:#00ff4a;stroke-width:1.99999;stroke-linecap:round;stroke-linejoin:round;stroke-miterlimit:500;stroke-dasharray:none;stroke-opacity:1;visibility:visible"/><path d="m544.612 669.365-.03-.188-.094-.173-.133-.14-.162-.08-.16-.01-.133.064-.09.126-.031.168.032.188.093.176.133.137.16.081.16.008.134-.064.09-.124.031-.169M544.561 659.429l-.033-.188-.092-.175-.135-.138-.159-.082-.161-.006-.135.062-.09.127-.03.17.031.189.093.176.134.137.161.08.16.01.136-.066.09-.127.03-.169M547.608 655.904l.085 18.648" style="fill:none;stroke:#00ff4a;stroke-width:.999997;stroke-linecap:round;stroke-linejoin:round;stroke-miterlimit:500;stroke-dasharray:none;stroke-opacity:1;visibility:visible"/><path d="m531.503 651.516.023 2.515M650.659 703.367l25.467 7.127M548.529 674.788l93.768 26.241" style="fill:none;stroke:#00ff4a;stroke-width:1.99999;stroke-linecap:round;stroke-linejoin:round;stroke-miterlimit:500;stroke-dasharray:none;stroke-opacity:1;visibility:visible"/><path d="m548.529 674.788-.081-18.655M671.746 708.935l.35-19.108M672.648 708.302l.352-19.095M536.135 651.073l-.267.175-.16.194-.042.203.073.199.19.188.29.166.383.13M536.602 652.328l.45.093.493.05.509.002.497-.044.463-.089.396-.13.317-.16.212-.189.102-.197-.018-.203-.132-.196-.242-.177-.34-.148M609.482 670.62l-.26.07-.356.154-.256.185-.144.204-.021.215.096.21.213.2.319.174.406.14M609.48 672.172l.472.099.512.052.524.002.508-.046.465-.096.396-.136.307-.172.199-.195.084-.21-.04-.215-.158-.208-.269-.186M673.925 689.459l-.904.62" style="fill:none;stroke:#00ff4a;stroke-width:.999997;stroke-linecap:round;stroke-linejoin:round;stroke-miterlimit:500;stroke-dasharray:none;stroke-opacity:1;visibility:visible"/><path d="m608.151 669.034-66.574-18.057M685.517 690.016l-71.614-19.421M534.406 649.844l-2.904 1.672" style="fill:none;stroke:#00ff4a;stroke-width:1.99999;stroke-linecap:round;stroke-linejoin:round;stroke-miterlimit:500;stroke-dasharray:none;stroke-opacity:1;visibility:visible"/><path d="m547.608 655.904-16.105-4.388M548.57 655.341l-.963.563M549.408 655.568l-.96.565M549.408 655.568l-.837-.227M672.096 689.827l-123.648-33.695M673 689.207l-.904.62M676.3 695.55l.04-.177.104-.13.152-.065.176.01.177.089.147.145.099.185.029.195-.04.177-.101.131-.155.065-.176-.012-.176-.086-.148-.147-.096-.185-.032-.195M690.849 699.344l.11-4.377M690.958 694.966l-17.937-4.888M509.352 677.403l.599.17M508.336 658.48l.007.328" style="fill:none;stroke:#00ff4a;stroke-width:.999997;stroke-linecap:round;stroke-linejoin:round;stroke-miterlimit:500;stroke-dasharray:none;stroke-opacity:1;visibility:visible"/><path d="m509.95 677.573 8.919-5.233" style="fill:none;stroke:#00ff4a;stroke-width:1.99999;stroke-linecap:round;stroke-linejoin:round;stroke-miterlimit:500;stroke-dasharray:none;stroke-opacity:1;visibility:visible"/><path d="m511.957 661.985.021-.192.063-.19.095-.157.113-.1.113-.03.099.046.067.115.025.165-.021.194-.063.188-.095.156-.113.102-.113.028-.099-.044-.067-.114-.025-.167M509.719 658.864l.232 18.71" style="fill:none;stroke:#00ff4a;stroke-width:.999997;stroke-linecap:round;stroke-linejoin:round;stroke-miterlimit:500;stroke-dasharray:none;stroke-opacity:1;visibility:visible"/><path d="m521.195 655.505-.03-3.19" style="fill:none;stroke:#00ff4a;stroke-width:1.99999;stroke-linecap:round;stroke-linejoin:round;stroke-miterlimit:500;stroke-dasharray:none;stroke-opacity:1;visibility:visible"/><path d="m512.077 671.95.02-.193.064-.187.095-.157.113-.103.115-.03.096.045.065.113.025.164-.018.195-.066.186-.094.158-.112.102-.115.028-.097-.044-.064-.112-.027-.165" style="fill:none;stroke:#00ff4a;stroke-width:.999997;stroke-linecap:round;stroke-linejoin:round;stroke-miterlimit:500;stroke-dasharray:none;stroke-opacity:1;visibility:visible"/><path d="m424.133 727.946 85.224-50.023" style="fill:none;stroke:#00ff4a;stroke-width:1.99999;stroke-linecap:round;stroke-linejoin:round;stroke-miterlimit:500;stroke-dasharray:none;stroke-opacity:1;visibility:visible"/><path d="m509.357 677.923-.237-18.719M419.67 726.772l-.684-16.019M417.573 710.703l-.015-.39M514.035 652.643l-.385.139-.298.168-.192.19-.081.203.039.204.156.192.262.172.358.144.432.104.481.06.51.012.507-.03.475-.08.421-.12.343-.157" style="fill:none;stroke:#00ff4a;stroke-width:.999997;stroke-linecap:round;stroke-linejoin:round;stroke-miterlimit:500;stroke-dasharray:none;stroke-opacity:1;visibility:visible"/><path d="m517.063 653.845.248-.181.136-.198.02-.205-.099-.199-.213-.182-.31-.159M404.075 715.116l-.352.199-.241.226-.12.24.006.239.136.23.258.202.364.168.452.123.514.072.55.018.557-.038.53-.095.477-.143.4-.182M407.607 716.375l.297-.213.18-.236.056-.242-.072-.236-.198-.216-.314-.185-.412-.145M461.155 682.646l-.324.185-.216.206-.099.218.024.222.147.208.261.188.36.156.442.112.498.066.53.016.528-.037.504-.084.448-.133.369-.167" style="fill:none;stroke:#00ff4a;stroke-width:.999997;stroke-linecap:round;stroke-linejoin:round;stroke-miterlimit:500;stroke-dasharray:none;stroke-opacity:1;visibility:visible"/><path d="m464.626 683.802.27-.197.158-.215.037-.224-.089-.216-.204-.197-.313-.172-.404-.134-.206-.038M507.74 658.82l.596-.341M508.336 658.48l1.383.384M521.164 652.317l-11.445 6.547" style="fill:none;stroke:#00ff4a;stroke-width:.999997;stroke-linecap:round;stroke-linejoin:round;stroke-miterlimit:500;stroke-dasharray:none;stroke-opacity:1;visibility:visible"/><path d="m517.858 651.412 3.305.905M403.526 714.537l-4.372 2.484M459.953 682.475l-49.344 28.036M513.112 652.267l-48.265 27.427" style="fill:none;stroke:#00ff4a;stroke-width:1.99999;stroke-linecap:round;stroke-linejoin:round;stroke-miterlimit:500;stroke-dasharray:none;stroke-opacity:1;visibility:visible"/><path d="m416.871 710.703 1.428.444M417.559 710.313l1.428.441M417.559 710.313l-.688.39M509.12 659.205l-90.133 51.55M507.74 658.82l1.38.384M399.154 717.021l5.728 1.801" style="fill:none;stroke:#00ff4a;stroke-width:.999997;stroke-linecap:round;stroke-linejoin:round;stroke-miterlimit:500;stroke-dasharray:none;stroke-opacity:1;visibility:visible"/><path d="m399.154 717.021.716 19.972M399.87 736.992l1.972.636" style="fill:none;stroke:#00ff4a;stroke-width:1.99999;stroke-linecap:round;stroke-linejoin:round;stroke-miterlimit:500;stroke-dasharray:none;stroke-opacity:1;visibility:visible"/><path d="m415.926 717.242-.032-.175-.081-.12-.115-.042-.133.037-.13.115-.109.172-.07.206-.02.206.034.174.077.119.118.045.133-.041.132-.112.107-.172.068-.207.021-.205M418.3 711.147l-7.061 4.037M418.3 711.147l.675 15.624M404.881 718.822l.123 3.572M683.348 707.084l-.01.35M599.362 766.94l.001-.415" style="fill:none;stroke:#00ff4a;stroke-width:.999997;stroke-linecap:round;stroke-linejoin:round;stroke-miterlimit:500;stroke-dasharray:none;stroke-opacity:1;visibility:visible"/><path d="m586.155 797.054.076-21.233M592.77 799.185l-6.615-2.132" style="fill:none;stroke:#00ff4a;stroke-width:1.99999;stroke-linecap:round;stroke-linejoin:round;stroke-miterlimit:500;stroke-dasharray:none;stroke-opacity:1;visibility:visible"/><path d="m591.624 773.383-.379.13-.382.211" style="fill:none;stroke:#00ff4a;stroke-width:.999997;stroke-linecap:round;stroke-linejoin:round;stroke-miterlimit:500;stroke-dasharray:none;stroke-opacity:1;visibility:visible"/><path d="m590.862 773.724-.265.248-.139.272.003.28.141.273.268.25.39.218.477.17.552.114.59.052.596-.013.572-.075.516-.138.435-.19.325-.232.202-.262.065-.278-.073-.277-.207-.265-.332-.235-.368-.163M692.841 701.66l-.42.136-.325.177M692.096 701.973l-.216.207-.093.225.032.236.157.227.273.21.378.18.46.143.516.096.544.043.545-.011.516-.067.456-.113.375-.159.272-.192.156-.22.028-.23-.095-.234-.221-.22-.328-.197-.423-.163M644.55 735.896l-.448.148-.35.193" style="fill:none;stroke:#00ff4a;stroke-width:.999997;stroke-linecap:round;stroke-linejoin:round;stroke-miterlimit:500;stroke-dasharray:none;stroke-opacity:1;visibility:visible"/><path d="m643.751 736.237-.241.227-.114.246.022.256.148.25.273.229.383.197.469.158.532.102.567.048.572-.012.538-.07.488-.126.399-.172.299-.213.178-.237.044-.254-.085-.254-.216-.239-.328-.217-.256-.104M601.01 767.034l-.639.453M600.371 767.487l-1.647-.51" style="fill:none;stroke:#00ff4a;stroke-width:.999997;stroke-linecap:round;stroke-linejoin:round;stroke-miterlimit:500;stroke-dasharray:none;stroke-opacity:1;visibility:visible"/><path d="m594.586 769.907 4.139-2.93M586.23 775.82l5.013-3.548" style="fill:none;stroke:#00ff4a;stroke-width:1.99999;stroke-linecap:round;stroke-linejoin:round;stroke-miterlimit:500;stroke-dasharray:none;stroke-opacity:1;visibility:visible"/><path d="m592.876 777.91-6.645-2.088" style="fill:none;stroke:#00ff4a;stroke-width:.999997;stroke-linecap:round;stroke-linejoin:round;stroke-miterlimit:500;stroke-dasharray:none;stroke-opacity:1;visibility:visible"/><path d="m700.17 701.35-4.636-1.268M683.348 707.084l8.256-5.845" style="fill:none;stroke:#00ff4a;stroke-width:1.99999;stroke-linecap:round;stroke-linejoin:round;stroke-miterlimit:500;stroke-dasharray:none;stroke-opacity:1;visibility:visible"/><path d="m684.926 707.521-1.579-.437M684.374 707.912l-1.577-.437M684.374 707.912l.552-.39" style="fill:none;stroke:#00ff4a;stroke-width:.999997;stroke-linecap:round;stroke-linejoin:round;stroke-miterlimit:500;stroke-dasharray:none;stroke-opacity:1;visibility:visible"/><path d="m647.534 732.431 35.263-24.957M599.363 766.526l43.735-30.956" style="fill:none;stroke:#00ff4a;stroke-width:1.99999;stroke-linecap:round;stroke-linejoin:round;stroke-miterlimit:500;stroke-dasharray:none;stroke-opacity:1;visibility:visible"/><path d="m601.01 767.034-1.645-.508" style="fill:none;stroke:#00ff4a;stroke-width:.999997;stroke-linecap:round;stroke-linejoin:round;stroke-miterlimit:500;stroke-dasharray:none;stroke-opacity:1;visibility:visible"/><path d="m700.17 701.35-.54 19.661" style="fill:none;stroke:#00ff4a;stroke-width:1.99999;stroke-linecap:round;stroke-linejoin:round;stroke-miterlimit:500;stroke-dasharray:none;stroke-opacity:1;visibility:visible"/><path d="m592.876 777.91 107.293-76.56M592.77 799.185l.107-21.276" style="fill:none;stroke:#00ff4a;stroke-width:.999997;stroke-linecap:round;stroke-linejoin:round;stroke-miterlimit:500;stroke-dasharray:none;stroke-opacity:1;visibility:visible"/><path d="m699.629 721.01-106.86 78.174" style="fill:none;stroke:#00ff4a;stroke-width:1.99999;stroke-linecap:round;stroke-linejoin:round;stroke-miterlimit:500;stroke-dasharray:none;stroke-opacity:1;visibility:visible"/><path d="M610.838 636.05a2.33 2.33 0 0 0 1.378-.48M612.217 635.57a.893.893 0 0 0 .248-.308M612.465 635.261a.21.21 0 0 0-.1-.277M610.452 635.965a.8.8 0 0 0 .357.086h.031M610.358 635.692a.208.208 0 0 0-.022.084.205.205 0 0 0 .116.19M610.865 638.777a.104.104 0 0 0 .045.143M610.91 638.921a.485.485 0 0 0 .183.042h.017M611.11 638.961a1.197 1.197 0 0 0 .714-.248M611.825 638.715a.484.484 0 0 0 .13-.162M610.53 637.255a.147.147 0 0 0-.019.073.183.183 0 0 0 .101.162M610.612 637.49a.761.761 0 0 0 .333.072M610.945 637.563a2 2 0 0 0 1.187-.416M612.132 637.148a.743.743 0 0 0 .212-.265M610.817 634.33a2.301 2.301 0 0 0 1.376-.483M612.194 633.848a.893.893 0 0 0 .252-.308M612.446 633.54a.242.242 0 0 0 .02-.083.21.21 0 0 0-.121-.192M610.434 634.247a.8.8 0 0 0 .356.083h.027M610.338 633.97a.216.216 0 0 0-.02.087.204.204 0 0 0 .116.189M610.852 632.53a2.318 2.318 0 0 0 1.378-.48M612.23 632.048a.855.855 0 0 0 .247-.308M612.476 631.741c.014-.026.017-.057.02-.085a.2.2 0 0 0-.116-.19" style="fill:none;stroke:#00ff4a;stroke-width:.666665;stroke-linecap:round;stroke-linejoin:round;stroke-miterlimit:2;stroke-dasharray:none;stroke-opacity:1;visibility:visible"/><path d="M610.465 632.447a.979.979 0 0 0 .359.083h.028M610.372 632.175a.212.212 0 0 0 .093.273M610.885 630.73a2.28 2.28 0 0 0 1.379-.481M612.265 630.248a.852.852 0 0 0 .25-.305M612.513 629.941a.207.207 0 0 0-.096-.274M610.504 630.65a.936.936 0 0 0 .356.082l.025-.001M610.408 630.37a.175.175 0 0 0-.022.086.21.21 0 0 0 .118.193M610.921 628.932a2.33 2.33 0 0 0 1.376-.483M612.298 628.45a.844.844 0 0 0 .25-.31M612.546 628.141a.207.207 0 0 0-.096-.274M610.537 628.845a.793.793 0 0 0 .353.086c.011-.002.02-.001.031-.001M610.44 628.57a.235.235 0 0 0-.02.086.2.2 0 0 0 .117.189M610.952 627.13a2.326 2.326 0 0 0 1.381-.483M610.572 627.045a.893.893 0 0 0 .353.086l.027-.002" style="fill:none;stroke:#00ff4a;stroke-width:.666665;stroke-linecap:round;stroke-linejoin:round;stroke-miterlimit:2;stroke-dasharray:none;stroke-opacity:1;visibility:visible"/><path d="m673.532 692.57 12.202 3.125M686.009 695.97l2.885 6.046M578.072 788.285c-.17 1.505.67 2.835 1.873 2.975 1.205.134 2.32-.972 2.488-2.48.172-1.502-.666-2.833-1.872-2.971-1.201-.139-2.32.971-2.49 2.476h.001M575.135 796.94l9.94-.95M575.281 780.896l9.867-.876M417.116 714.788c-.292.072-5.8 2.817-5.8 2.817M518.912 668.521v-10.87M536.357 666.912v-9.662M524.416 662.081c0 1.41.961 2.55 2.145 2.55 1.186.001 2.147-1.139 2.147-2.549s-.961-2.551-2.147-2.551c-1.184-.001-2.145 1.139-2.145 2.549v.001M546.555 672.012l-8.856-2.148-20.934 1.342-5.233 3.087M510.592 660.873l4.25-2.773 2.998-1.79 17.712-1.074 10.197 2.282" style="fill:none;stroke:#00ff4a;stroke-width:.999997;stroke-linecap:round;stroke-linejoin:round;stroke-miterlimit:500;stroke-dasharray:none;stroke-opacity:1;visibility:visible"/><path d="m691.368 691.025 1.512.547" style="fill:none;stroke:#00ff4a;stroke-width:1.99999;stroke-linecap:round;stroke-linejoin:round;stroke-miterlimit:500;stroke-dasharray:none;stroke-opacity:1;visibility:visible"/><path d="m401.348 726.492 5.405-.632M564.939 774.011l3.156 1.778M482.139 747.83l4.362 2.136" style="fill:none;stroke:#00ff4a;stroke-width:.999997;stroke-linecap:round;stroke-linejoin:round;stroke-miterlimit:500;stroke-dasharray:none;stroke-opacity:1;visibility:visible"/><path d="m409.872 725.718 2.511.057M399.154 717.021l6.909 6.755M564.939 774.011l4.171 1.317M568.095 775.79l-3.156-1.779M482.139 747.83l5.873 1.858M486.501 749.966l-4.362-2.136M546.555 672.012l-12.019-1.137M536.357 657.25l-4.831-3.22M642.297 701.03l8.362 2.337M682.797 707.475l-6.671 3.019M650.659 703.367l-8.362-2.338" style="fill:none;stroke:#00ff4a;stroke-width:1.99999;stroke-linecap:round;stroke-linejoin:round;stroke-miterlimit:500;stroke-dasharray:none;stroke-opacity:1;visibility:visible"/><path d="m683.348 707.084-11.602 1.851M683.348 707.084l-10.7 1.218M531.502 651.516l4.633-.443M536.602 652.328l2.707-1.388" style="fill:none;stroke:#00ff4a;stroke-width:.999997;stroke-linecap:round;stroke-linejoin:round;stroke-miterlimit:500;stroke-dasharray:none;stroke-opacity:1;visibility:visible"/><path d="m609.48 672.172-1.329-3.138M536.602 652.328l4.975-1.351M691.368 691.025l-5.851-1.009M609.48 672.172l4.423-1.577M547.607 655.904l-13.201-6.06" style="fill:none;stroke:#00ff4a;stroke-width:1.99999;stroke-linecap:round;stroke-linejoin:round;stroke-miterlimit:500;stroke-dasharray:none;stroke-opacity:1;visibility:visible"/><path d="m700.17 701.35-9.321-2.006" style="fill:none;stroke:#00ff4a;stroke-width:.999997;stroke-linecap:round;stroke-linejoin:round;stroke-miterlimit:500;stroke-dasharray:none;stroke-opacity:1;visibility:visible"/><path d="m511.532 674.293 7.337-1.953M518.912 657.651l2.283-2.146M423.821 729.39l.312-1.444" style="fill:none;stroke:#00ff4a;stroke-width:1.99999;stroke-linecap:round;stroke-linejoin:round;stroke-miterlimit:500;stroke-dasharray:none;stroke-opacity:1;visibility:visible"/><path d="m404.882 718.822 2.262-3.92M464.847 679.694l-3.692 2.952" style="fill:none;stroke:#00ff4a;stroke-width:.999997;stroke-linecap:round;stroke-linejoin:round;stroke-miterlimit:500;stroke-dasharray:none;stroke-opacity:1;visibility:visible"/><path d="m509.719 658.864 8.139-7.452M464.847 679.694l-4.894 2.781M417.559 710.313l-6.95.198M461.155 682.646l3.692-2.952M402.063 746.665l-.221-9.037" style="fill:none;stroke:#00ff4a;stroke-width:1.99999;stroke-linecap:round;stroke-linejoin:round;stroke-miterlimit:500;stroke-dasharray:none;stroke-opacity:1;visibility:visible"/><path d="m404.075 715.116 7.164.068M401.348 726.493l3.656-4.099M692.88 691.572l2.548 10.162" style="fill:none;stroke:#00ff4a;stroke-width:.999997;stroke-linecap:round;stroke-linejoin:round;stroke-miterlimit:500;stroke-dasharray:none;stroke-opacity:1;visibility:visible"/><path d="m591.243 772.272 3.343-2.365M594.586 769.907l-3.343 2.365M690.958 694.966l4.576 5.116M643.098 735.57l4.436-3.139" style="fill:none;stroke:#00ff4a;stroke-width:1.99999;stroke-linecap:round;stroke-linejoin:round;stroke-miterlimit:500;stroke-dasharray:none;stroke-opacity:1;visibility:visible"/><path d="m612.298 628.45.035-1.803" style="fill:none;stroke:#00ff4a;stroke-width:.666665;stroke-linecap:round;stroke-linejoin:round;stroke-miterlimit:2;stroke-dasharray:none;stroke-opacity:1;visibility:visible"/><path d="m672.096 689.827 1.436 2.743M585.148 780.02l-10.013 16.92M575.281 780.896l9.794 15.094M585.075 795.99l-9.794-15.094M575.135 796.94l10.013-16.92M407.606 716.375l3.71 1.23M524.416 662.081l-5.504 6.44M521.195 655.505l-2.283 2.146M524.416 662.081l11.941 4.831M531.526 654.03l4.831 3.22M521.195 655.505l3.221 6.576M518.912 657.651l5.504 4.43M548.529 674.788l-1.974-2.776M509.357 677.923l2.175-3.63M509.12 659.205l1.472 1.668M548.448 656.132l-2.699 1.386" style="fill:none;stroke:#00ff4a;stroke-width:.999997;stroke-linecap:round;stroke-linejoin:round;stroke-miterlimit:500;stroke-dasharray:none;stroke-opacity:1;visibility:visible"/><path d="m690.958 694.966.41-3.941M695.534 700.082l-2.654-8.51" style="fill:none;stroke:#00ff4a;stroke-width:1.99999;stroke-linecap:round;stroke-linejoin:round;stroke-miterlimit:500;stroke-dasharray:none;stroke-opacity:1;visibility:visible"/><path d="m609.48 672.172.002-1.552" style="fill:none;stroke:#00ff4a;stroke-width:.999997;stroke-linecap:round;stroke-linejoin:round;stroke-miterlimit:500;stroke-dasharray:none;stroke-opacity:1;visibility:visible"/></svg>