<svg xmlns="http://www.w3.org/2000/svg" baseProfile="full" height="1122.52" preserveAspectRatio="xMinYMin meet" style="width:912px;height:1246px" width="793.701" xml:space="preserve"><path d="m617.927 171.347-.033.327-.092.302-.14.27-.194.224-.232.169-.121.061M618.133 155.33l-.205 16.016" style="fill:none;stroke:red;stroke-width:.999997;stroke-linecap:round;stroke-linejoin:round;stroke-miterlimit:500;stroke-dasharray:none;stroke-opacity:1;visibility:visible"/><path d="m493.661 204.72 118.448-50.452" style="fill:none;stroke:red;stroke-width:1.99999;stroke-linecap:round;stroke-linejoin:round;stroke-miterlimit:500;stroke-dasharray:none;stroke-opacity:1;visibility:visible"/><path d="m499.93 205.95 118.202-50.619M618.133 155.33l-6.024-1.063M506.747 202.073l.235-.137.098-.15-.044-.15-.184-.143-.31-.121-.412-.094-.486-.057-.521-.016-.52.024-.477.064-.403.1-.296.125-.17.144-.027.154.116.148.248.133.364.11.453.074.51.039.525-.004.504-.047.445-.083.352-.113M609.344 158.196l-.312.1-.41.073-.466.04-.495.004-.484-.033-.437-.067-.357-.096-.252-.117-.126-.13.006-.135.138-.128.263-.112.364-.087.44-.057.485-.022.495.016.463.05.398.081.308.108.192.125.06.134-.068.133-.205.12M499.93 205.95l-6.268-1.23" style="fill:none;stroke:red;stroke-width:.999997;stroke-linecap:round;stroke-linejoin:round;stroke-miterlimit:500;stroke-dasharray:none;stroke-opacity:1;visibility:visible"/><path d="m531.93 159.644-.021-.004-.151-.061-.137-.111-.123-.157-.099-.198-.076-.236-.046-.262-.019-.284M706.825 168.693l-172.01-30.277M534.815 138.416l-3.833 1.523" style="fill:none;stroke:red;stroke-width:1.99999;stroke-linecap:round;stroke-linejoin:round;stroke-miterlimit:500;stroke-dasharray:none;stroke-opacity:1;visibility:visible"/><path d="m699.099 167.895-.467-.061-.5-.024-.497.013-.455.05-.384.082-.281.11-.156.129-.02.137.112.137.241.126.355.105.437.077.487.043.503.005.482-.03.424-.068.336-.098.219-.12.09-.134-.046-.139-.183-.132-.298-.117-.399-.091" style="fill:none;stroke:red;stroke-width:.999997;stroke-linecap:round;stroke-linejoin:round;stroke-miterlimit:500;stroke-dasharray:none;stroke-opacity:1;visibility:visible"/><path d="m540.143 139.893.36.084.263.107.142.121.016.128-.117.124-.237.11-.343.09-.42.061-.467.03-.481-.006-.459-.04-.4-.07-.316-.098-.205-.114-.079-.127.052-.125.18-.119.292-.101.386-.076.448-.046.478-.012.475.023.432.056" style="fill:none;stroke:red;stroke-width:.666665;stroke-linecap:round;stroke-linejoin:round;stroke-miterlimit:500;stroke-dasharray:none;stroke-opacity:1;visibility:visible"/><path d="m704.93 171.78-.11.07-.109.102-.101.136-.097.164-.086.185-.07.204-.052.212-.039.219-.019.215.003.206.019.191.038.17.058.145.068.113.085.079.1.044.101.005.11-.033.109-.068.11-.104.103-.136.094-.164.084-.186.073-.202.052-.212.039-.219.018-.215-.002-.206-.019-.191-.039-.17-.054-.145-.071-.113-.087-.08-.098-.044-.104-.004-.107.032" style="fill:none;stroke:red;stroke-width:.999997;stroke-linecap:round;stroke-linejoin:round;stroke-miterlimit:500;stroke-dasharray:none;stroke-opacity:1;visibility:visible"/><path d="m705.05 189.864.156-.1.156-.15.147-.194.137-.233.117-.266.102-.288.076-.304.052-.309.029-.307M705.05 189.864l-1.797.855M706.825 168.693l-.541 12.825" style="fill:none;stroke:red;stroke-width:1.99999;stroke-linecap:round;stroke-linejoin:round;stroke-miterlimit:500;stroke-dasharray:none;stroke-opacity:1;visibility:visible"/><path d="m706.825 168.693-3.601 1.665M702.425 189.42l.003.293.028.272.053.24.08.206.104.16.12.11.136.06.15.007.154-.05M704.925 182.366l-.139-.06-.145-.008-.153.047M704.487 182.345l-.159.1-.153.15-.152.194-.132.233-.12.267-.099.288-.081.305-.052.311-.025.307.001.292.03.273.054.241.079.204.101.162.12.112.137.06" style="fill:none;stroke:red;stroke-width:.999997;stroke-linecap:round;stroke-linejoin:round;stroke-miterlimit:500;stroke-dasharray:none;stroke-opacity:1;visibility:visible"/><path d="m531.258 158.33-.276-18.392" style="fill:none;stroke:red;stroke-width:1.99999;stroke-linecap:round;stroke-linejoin:round;stroke-miterlimit:500;stroke-dasharray:none;stroke-opacity:1;visibility:visible"/><path d="m703.224 170.358-172.242-30.42M703.224 170.358l-.8 19.061" style="fill:none;stroke:red;stroke-width:.999997;stroke-linecap:round;stroke-linejoin:round;stroke-miterlimit:500;stroke-dasharray:none;stroke-opacity:1;visibility:visible"/><path d="m406.39 210.942-.161-.056-.164-.113-.144-.164-.119-.21-.092-.246-.059-.28-.026-.303M409.42 188.18l179.174 35.179M404.99 189.937l4.43-1.757" style="fill:none;stroke:red;stroke-width:1.99999;stroke-linecap:round;stroke-linejoin:round;stroke-miterlimit:500;stroke-dasharray:none;stroke-opacity:1;visibility:visible"/><path d="m412.585 190.787.455.064.504.027.516-.014.492-.053.429-.088.335-.117.216-.138.081-.145-.06-.147-.199-.133-.317-.11-.415-.082-.484-.045-.516-.008-.508.033-.462.07-.386.106-.278.127-.151.144-.01.146.127.14.26.124.371.099" style="fill:none;stroke:red;stroke-width:.666665;stroke-linecap:round;stroke-linejoin:round;stroke-miterlimit:500;stroke-dasharray:none;stroke-opacity:1;visibility:visible"/><path d="m578.273 223.41-.415-.108-.298-.136-.17-.153-.024-.162.123-.156.257-.14.382-.113.468-.077.524-.038.538.007.522.05.453.09.364.124.237.145.096.159-.046.161-.194.15-.322.128-.427.096-.505.057-.536.016-.538-.03-.489-.07M493.589 211.043l-.057.401-.17.336-.265.232-.33.103-.36-.037-.349-.174-.305-.288-.224-.374-.12-.422v-.42l.115-.373.22-.288.301-.17.35-.034.36.107.331.234.268.336.174.404.061.427" style="fill:none;stroke:red;stroke-width:.999997;stroke-linecap:round;stroke-linejoin:round;stroke-miterlimit:500;stroke-dasharray:none;stroke-opacity:1;visibility:visible"/><path d="m404.99 189.937.636 19.633" style="fill:none;stroke:red;stroke-width:1.99999;stroke-linecap:round;stroke-linejoin:round;stroke-miterlimit:500;stroke-dasharray:none;stroke-opacity:1;visibility:visible"/><path d="m404.99 189.937 179.414 35.359M586.068 241.74l-.183.057h-.174l-.162-.057-.142-.115-.126-.166-.098-.215-.071-.256-.039-.29-.005-.313.024-.328.055-.334.082-.328.112-.315.136-.288.154-.256.169-.213.177-.167.182-.113M586.159 238.043l.18-.057h.175l.161.058M586.44 226.74l.128-.04.123.001.11.043.103.081.088.119.068.15.05.18.025.205.005.22-.015.23-.04.234-.057.23-.077.22-.096.202-.108.178-.119.15-.125.116-.128.078-.126.04-.118-.001-.118-.043-.101-.08-.084-.118-.07-.151-.05-.181-.028-.202-.005-.222.017-.23.037-.234.063-.231.075-.22.094-.201.11-.179.118-.15.123-.115.128-.079M583.901 245.69l.01.35.053.318.088.275.122.217.156.153.175.086.193.012.206-.062M583.901 245.69l.503-20.395" style="fill:none;stroke:red;stroke-width:.999997;stroke-linecap:round;stroke-linejoin:round;stroke-miterlimit:500;stroke-dasharray:none;stroke-opacity:1;visibility:visible"/><path d="m584.904 247.04 2.088-.995M586.992 246.045l.183-.115.177-.166.168-.215.152-.255.135-.289.112-.312.084-.328.054-.333.023-.327M588.24 237.446l.355-14.088" style="fill:none;stroke:red;stroke-width:1.99999;stroke-linecap:round;stroke-linejoin:round;stroke-miterlimit:500;stroke-dasharray:none;stroke-opacity:1;visibility:visible"/><path d="m584.404 225.296 4.19-1.939" style="fill:none;stroke:red;stroke-width:.999997;stroke-linecap:round;stroke-linejoin:round;stroke-miterlimit:500;stroke-dasharray:none;stroke-opacity:1;visibility:visible"/><path d="m528.573 211.557 88.541-38.857M613.055 174.405l89.912 16.36M531.93 159.644l46.437 8.45M406.39 210.942l178.14 36.152" style="fill:none;stroke:red;stroke-width:1.99999;stroke-linecap:round;stroke-linejoin:round;stroke-miterlimit:500;stroke-dasharray:none;stroke-opacity:1;visibility:visible"/><path d="m529.159 155.888 1.466-.844M530.692 156.676l-1.743-.223a1.45 1.45 0 1 1 .366-2.873l1.429.18M704.816 182.848l3.976.75a1.455 1.455 0 0 1-.54 2.856l-3.995-.757M589.22 239.876l-2.935 1.253M586.195 238.606l3.975.75a1.458 1.458 0 0 1 1.158 1.698 1.457 1.457 0 0 1-1.699 1.159l-3.994-.757M403.128 207.149l1.466-.844M404.662 207.936l-1.744-.223a1.45 1.45 0 0 1-1.255-1.621 1.445 1.445 0 0 1 1.62-1.252l1.43.18M704.816 182.848l-5.717-14.953M703.224 170.358l-4.125-2.463" style="fill:none;stroke:red;stroke-width:.999997;stroke-linecap:round;stroke-linejoin:round;stroke-miterlimit:500;stroke-dasharray:none;stroke-opacity:1;visibility:visible"/><path d="m534.815 138.416 5.328 1.477" style="fill:none;stroke:red;stroke-width:.666665;stroke-linecap:round;stroke-linejoin:round;stroke-miterlimit:500;stroke-dasharray:none;stroke-opacity:1;visibility:visible"/><path d="m705.05 189.864-.12-18.084M703.253 190.719l1.677-18.939" style="fill:none;stroke:red;stroke-width:.999997;stroke-linecap:round;stroke-linejoin:round;stroke-miterlimit:500;stroke-dasharray:none;stroke-opacity:1;visibility:visible"/><path d="m702.424 189.42 3.598-1.707M706.022 187.713l.262-6.195" style="fill:none;stroke:red;stroke-width:1.99999;stroke-linecap:round;stroke-linejoin:round;stroke-miterlimit:500;stroke-dasharray:none;stroke-opacity:1;visibility:visible"/><path d="m404.713 205.02 7.872-14.233M409.42 188.18l3.165 2.607" style="fill:none;stroke:red;stroke-width:.666665;stroke-linecap:round;stroke-linejoin:round;stroke-miterlimit:500;stroke-dasharray:none;stroke-opacity:1;visibility:visible"/><path d="m586.195 238.606-7.922-15.196M584.404 225.296l-6.131-1.886M586.068 241.74l.372-15M586.992 246.045l-.552-19.305" style="fill:none;stroke:red;stroke-width:.999997;stroke-linecap:round;stroke-linejoin:round;stroke-miterlimit:500;stroke-dasharray:none;stroke-opacity:1;visibility:visible"/><path d="m583.901 245.69 4.179-1.985M588.08 243.705l.16-6.259M618.133 155.33l-5.078 19.075" style="fill:none;stroke:red;stroke-width:1.99999;stroke-linecap:round;stroke-linejoin:round;stroke-miterlimit:500;stroke-dasharray:none;stroke-opacity:1;visibility:visible"/><path d="m531.93 159.644-1.238-2.968M531.93 159.644l-1.186-5.884M584.904 247.04l4.316-7.164M406.39 210.942l-1.728-3.006M406.39 210.942l-1.677-5.922" style="fill:none;stroke:red;stroke-width:.999997;stroke-linecap:round;stroke-linejoin:round;stroke-miterlimit:500;stroke-dasharray:none;stroke-opacity:1;visibility:visible"/><path d="m440.224 481.21-.028-.01-.021-.011-.016-.012-.008-.015-.003-.01M443.398 478.777l1.297-4.496M448.414 483.388l3.528-2.024M451.943 481.364l-.005-.499M440.224 481.21l7.937 2.196M448.414 483.388l-.024.01-.028.009-.032.006-.035.006h-.07l-.034-.007-.029-.005M444.208 479.804l.216.088.112.12-.01.127-.133.117-.232.09-.297.049-.317-.002-.29-.049-.216-.09-.112-.117.012-.129.131-.117.232-.09.299-.049.316.003.289.049M448.909 481.1l.216.092.113.117-.012.128-.129.118-.232.09-.297.048-.318-.001-.29-.048-.218-.093-.112-.116.011-.128.132-.118.232-.089.297-.048h.318l.289.048M443.398 478.777l-3.223 1.833M440.176 480.61l-.017.012-.011.016-.004.013.003.015.006.013.016.012.022.011.025.01M440.216 480.71l7.94 2.196M448.156 482.907l.028.008.035.004h.07l.035-.004.032-.008.03-.008.02-.01M451.622 481.046l-3.215 1.843M443.398 478.777l8.224 2.27M446.036 474.411l-.024.056-.036.045-.047.028-.049.011-.016-.001M446.036 474.411l.107-.347.128-.332.148-.314.168-.291.182-.263.195-.23.204-.192.208-.15M442.625 473.708l2.928.804M443.156 471.974l.367-.407.37-.34.358-.258.334-.171.303-.076.255.015M442.52 473.492l-.007.06.012.059.027.048.041.037.031.012M442.52 473.492l.057-.204.066-.203.07-.197.075-.196.084-.188.09-.183.094-.177.1-.17M450.052 473.876l-.187-.56-.24-.507-.288-.438-.326-.356-.355-.259-.252-.108M447.376 472.293l.29-.133.302-.043.31.045.306.134.293.218.268.295.24.364.198.42.154.463M449.737 474.056l1.885 6.99M451.937 480.866l-.315.18M450.052 473.876l1.885 6.99" style="fill:none;stroke:#00ff4a;stroke-width:.999997;stroke-linecap:round;stroke-linejoin:round;stroke-miterlimit:500;stroke-dasharray:none;stroke-opacity:1;visibility:visible"/><path d="m340.919 456.34.221 8.124M341.14 464.464l205.889 57.624" style="fill:none;stroke:#00ff4a;stroke-width:1.99999;stroke-linecap:round;stroke-linejoin:round;stroke-miterlimit:500;stroke-dasharray:none;stroke-opacity:1;visibility:visible"/><path d="m547.055 513.554-.027 8.533" style="fill:none;stroke:#00ff4a;stroke-width:.999997;stroke-linecap:round;stroke-linejoin:round;stroke-miterlimit:500;stroke-dasharray:none;stroke-opacity:1;visibility:visible"/><path d="m547.029 522.088 132.169-83.313M679.198 438.775l.183-7.955" style="fill:none;stroke:#00ff4a;stroke-width:1.99999;stroke-linecap:round;stroke-linejoin:round;stroke-miterlimit:500;stroke-dasharray:none;stroke-opacity:1;visibility:visible"/><path d="m679.38 430.82-132.325 82.733" style="fill:none;stroke:#00ff4a;stroke-width:.999997;stroke-linecap:round;stroke-linejoin:round;stroke-miterlimit:500;stroke-dasharray:none;stroke-opacity:1;visibility:visible"/><path d="m654.81 424.772 24.57 6.048M353 449.99l-12.081 6.35" style="fill:none;stroke:#00ff4a;stroke-width:1.99999;stroke-linecap:round;stroke-linejoin:round;stroke-miterlimit:500;stroke-dasharray:none;stroke-opacity:1;visibility:visible"/><path d="m340.919 456.34 206.135 57.215M390.75 440.785l.013.66M515.745 475.2v-.767M378.111 437.979l-.461-.095-.511-.048-.533-.004-.527.046-.495.09-.432.13-.348.165-.246.188-.13.201-.005.206.117.197.235.18.34.15.427.115.489.074.527.026.534-.022.515-.068.467-.112.393-.147.299-.177.188-.199.068-.203-.058-.204-.178-.19-.29-.164-.385-.135M528.784 478.565l-.497-.103-.539-.054-.56-.002-.543.048-.5.098-.429.142-.339.176-.226.206-.099.218.027.224.153.216.276.195.38.164.464.125.523.08.552.028.554-.022.527-.075.47-.121.387-.16.28-.194.166-.214.036-.223-.091-.221-.22-.206-.33-.181-.422-.144M451.862 457.845l-.477-.099-.527-.052-.545-.001-.535.045-.497.095-.432.136-.344.17-.234.195-.117.212.01.215.135.205.255.187.359.157.444.12.505.078.54.025.544-.023.521-.069.468-.117.391-.155.29-.185.175-.204.055-.215-.075-.21-.196-.2-.309-.171-.404-.139M390.533 441.582l-.852-.23M389.68 441.352l1.068-.567M374.353 436.37l16.396 4.416M370.053 438.625l4.3-2.256" style="fill:none;stroke:#00ff4a;stroke-width:.999997;stroke-linecap:round;stroke-linejoin:round;stroke-miterlimit:500;stroke-dasharray:none;stroke-opacity:1;visibility:visible"/><path d="m516.659 474.678 17.757 4.781" style="fill:none;stroke:#00ff4a;stroke-width:1.99999;stroke-linecap:round;stroke-linejoin:round;stroke-miterlimit:500;stroke-dasharray:none;stroke-opacity:1;visibility:visible"/><path d="m515.628 475.288 1.03-.61M514.714 475.04l1.03-.608M514.714 475.04l.915.248" style="fill:none;stroke:#00ff4a;stroke-width:.999997;stroke-linecap:round;stroke-linejoin:round;stroke-miterlimit:500;stroke-dasharray:none;stroke-opacity:1;visibility:visible"/><path d="m391.6 441.013 124.144 33.419" style="fill:none;stroke:#00ff4a;stroke-width:1.99999;stroke-linecap:round;stroke-linejoin:round;stroke-miterlimit:500;stroke-dasharray:none;stroke-opacity:1;visibility:visible"/><path d="m390.533 441.582 1.068-.57M370.053 438.625l160.258 43.3M370.503 458.239l-.45-19.613M443.487 478.364l-72.984-20.125M530.3 502.302l-78.432-21.63" style="fill:none;stroke:#00ff4a;stroke-width:.999997;stroke-linecap:round;stroke-linejoin:round;stroke-miterlimit:500;stroke-dasharray:none;stroke-opacity:1;visibility:visible"/><path d="m534.417 479.46-.027 20.336" style="fill:none;stroke:#00ff4a;stroke-width:1.99999;stroke-linecap:round;stroke-linejoin:round;stroke-miterlimit:500;stroke-dasharray:none;stroke-opacity:1;visibility:visible"/><path d="m530.313 481.925-.013 20.377M530.313 481.925l4.104-2.465M530.3 502.302l4.09-2.505M638.92 422.289l-.008.46M557.982 471.672l.003-.524" style="fill:none;stroke:#00ff4a;stroke-width:.999997;stroke-linecap:round;stroke-linejoin:round;stroke-miterlimit:500;stroke-dasharray:none;stroke-opacity:1;visibility:visible"/><path d="m545.617 498.9.06-20.321" style="fill:none;stroke:#00ff4a;stroke-width:1.99999;stroke-linecap:round;stroke-linejoin:round;stroke-miterlimit:500;stroke-dasharray:none;stroke-opacity:1;visibility:visible"/><path d="m551.779 500.587-6.161-1.688M550 476.908l-.248.197-.127.218v.222l.127.216.25.202.36.172.447.136.511.09.55.042.557-.012.534-.06.482-.111.404-.15.304-.187.19-.207.063-.221-.065-.22-.191-.212-.307-.187-.406-.153-.482-.114-.534-.068-.558-.014-.546.036-.51.085-.445.132-.36.168M647.529 417.973l-.216.176-.101.192.022.196.142.192.254.179.355.152.432.12.492.08.521.034.52-.008.498-.056.442-.094.368-.135.271-.164.156-.185.039-.196-.08-.195-.198-.185-.308-.167-.398-.137-.463-.1-.508-.059-.527-.013-.513.032-.47.076-.407.116-.323.149M600.24 446.548l-.232.187-.112.204.008.209.139.204.254.188.352.161.443.128.5.086.533.04.542-.012.513-.058.464-.102.385-.143.287-.173.172-.196.05-.208-.074-.21-.197-.197-.306-.175-.404-.146-.47-.107-.522-.061-.538-.015-.53.035-.492.081-.424.123-.341.157M559.518 471.558l-.599.363M558.92 471.92l-1.536-.41" style="fill:none;stroke:#00ff4a;stroke-width:.999997;stroke-linecap:round;stroke-linejoin:round;stroke-miterlimit:500;stroke-dasharray:none;stroke-opacity:1;visibility:visible"/><path d="m545.677 478.578 11.705-7.067" style="fill:none;stroke:#00ff4a;stroke-width:1.99999;stroke-linecap:round;stroke-linejoin:round;stroke-miterlimit:500;stroke-dasharray:none;stroke-opacity:1;visibility:visible"/><path d="m551.854 480.235-6.177-1.656M655.31 417.444l-5.956-1.455" style="fill:none;stroke:#00ff4a;stroke-width:.999997;stroke-linecap:round;stroke-linejoin:round;stroke-miterlimit:500;stroke-dasharray:none;stroke-opacity:1;visibility:visible"/><path d="m638.92 422.289 10.435-6.3" style="fill:none;stroke:#00ff4a;stroke-width:1.99999;stroke-linecap:round;stroke-linejoin:round;stroke-miterlimit:500;stroke-dasharray:none;stroke-opacity:1;visibility:visible"/><path d="m640.411 422.657-1.492-.368M639.867 422.985l-1.49-.368M639.867 422.985l.544-.33" style="fill:none;stroke:#00ff4a;stroke-width:.999997;stroke-linecap:round;stroke-linejoin:round;stroke-miterlimit:500;stroke-dasharray:none;stroke-opacity:1;visibility:visible"/><path d="m557.984 471.149 80.393-48.532" style="fill:none;stroke:#00ff4a;stroke-width:1.99999;stroke-linecap:round;stroke-linejoin:round;stroke-miterlimit:500;stroke-dasharray:none;stroke-opacity:1;visibility:visible"/><path d="m559.518 471.558-1.533-.41M655.31 417.444l-.367 19.264M551.854 480.235l103.456-62.79M551.779 500.587l.076-20.352M654.943 436.707l-103.164 63.88M509.086 396.454l-.803.436M509.17 377.835l.001.625M492.473 392.961l15.81 3.928M505.262 391.823l-.03-.185-.091-.172-.132-.132-.159-.075-.157-.004-.132.068-.088.128-.031.17.032.185.09.172.133.133.156.073.158.003.132-.067.09-.128.029-.169M505.233 381.934l-.032-.187-.09-.17-.134-.134-.157-.073-.158-.004-.13.068-.091.13-.03.169.031.185.09.173.134.132.156.074.159.002.13-.066.09-.128.032-.171M508.237 378.332l.047 18.557M492.383 374.474l.01 2.1M509.107 397.093l-.047-18.56M509.107 397.093l119.398 29.66M629.37 426.232l-.864.521M628.505 426.753l.29-19.087M629.677 407.858l.013-.723M642.654 410.512l.472.09.512.047.519.002.502-.044.456-.086.383-.122.296-.154.185-.177.071-.19-.047-.195-.172-.186-.278-.169-.368-.14-.446-.11-.494-.067-.518-.024-.516.02-.478.065-.426.104-.341.139-.244.165-.13.187-.009.192.107.192.224.178.325.158.415.125M497.398 375.191l.443.083.482.042.499.002.49-.04.449-.08.389-.114.307-.142.205-.163.096-.177-.019-.18-.136-.171-.238-.156-.336-.13-.411-.102-.465-.063-.495-.021-.497.019-.471.058-.423.098-.349.129-.26.153-.15.171-.04.18.075.176.19.165.29.146.375.117M568.599 392.505l.456.085.497.046.511.001.495-.041.453-.082.388-.118.299-.15.196-.169.082-.183-.03-.186-.152-.179-.258-.163-.353-.136-.428-.104-.479-.065-.505-.023-.508.019-.473.061-.428.102-.344.132-.25.162-.142.178-.024.185.09.184.204.17.307.151.396.123M629.69 407.135l.877.213M630.568 407.349l-.896.53" style="fill:none;stroke:#00ff4a;stroke-width:.999997;stroke-linecap:round;stroke-linejoin:round;stroke-miterlimit:500;stroke-dasharray:none;stroke-opacity:1;visibility:visible"/><path d="m650.313 409.901-154.182-37.39" style="fill:none;stroke:#00ff4a;stroke-width:1.99999;stroke-linecap:round;stroke-linejoin:round;stroke-miterlimit:500;stroke-dasharray:none;stroke-opacity:1;visibility:visible"/><path d="m496.13 372.51-3.748 1.964M508.237 378.332l-15.855-3.857M509.17 377.835l-.933.497M509.993 378.036l-.933.497M509.993 378.036l-.823-.201M628.794 407.666 509.06 378.533M629.69 407.135l-.896.53" style="fill:none;stroke:#00ff4a;stroke-width:.999997;stroke-linecap:round;stroke-linejoin:round;stroke-miterlimit:500;stroke-dasharray:none;stroke-opacity:1;visibility:visible"/><path d="m650.198 416.2.115-6.299" style="fill:none;stroke:#00ff4a;stroke-width:1.99999;stroke-linecap:round;stroke-linejoin:round;stroke-miterlimit:500;stroke-dasharray:none;stroke-opacity:1;visibility:visible"/><path d="m650.313 409.901-3.557 2.135M632.828 413.133l.036-.176.103-.13.142-.071.167.006.17.076.142.14.092.178.03.192-.035.174-.099.132-.144.068-.17-.004-.169-.078-.14-.136-.092-.18-.033-.191M629.672 407.88l-.29 19.092M629.383 426.972l.693.172M646.661 417.477l.093-5.441M646.755 412.036l-17.084-4.157M632.67 423.323l.036-.173.1-.132.143-.068.169.005.17.077.14.14.091.176.034.194-.036.173-.099.132-.147.065-.166-.004-.17-.077-.14-.14-.094-.177-.031-.191M470.781 399.395l.588.15M469.86 380.607l.005.443M471.37 399.544l11.005-5.86M473.36 384.19l.021-.19.06-.183.092-.15.11-.093.11-.021.092.053.064.117.024.167-.021.19-.06.183-.093.15-.108.092-.111.021-.095-.052-.061-.117-.024-.167M471.221 380.943l.148 18.601M482.272 377.407l-.015-2.223M473.435 394.1l.021-.19.06-.182.094-.15.109-.094.108-.021.093.052.064.114.023.17-.02.189-.061.183-.092.149-.11.093-.109.023-.095-.052-.061-.117-.024-.167M384.453 425.624l-.01-.5M392.818 441.371l77.98-41.523M470.798 399.85l-.15-18.605M386.03 434.817l-.192-9.324M478.276 376.533l.237-.159.13-.174.013-.18-.101-.176-.211-.162-.31-.137-.394-.11-.452-.073-.49-.032-.5.007-.482.052-.44.088-.372.121-.287.15-.185.168-.073.177.045.179.156.169.263.153.353.126.425.09.476.052.499.014.495-.03.462-.069.412-.107.331-.137M428.286 402.595l.252-.17.143-.185.024-.189-.094-.187-.209-.17-.31-.147-.397-.116-.464-.076-.5-.035-.516.01-.497.053-.459.09-.39.131-.304.156-.199.179-.085.19.034.189.152.18.262.16.357.132.432.096.485.058.512.012.511-.03.483-.074.426-.113.351-.144M469.285 380.908l.575-.301M469.86 380.607l1.361.336M482.258 375.185l-11.036 5.759M476.835 373.861l5.423 1.324" style="fill:none;stroke:#00ff4a;stroke-width:.999997;stroke-linecap:round;stroke-linejoin:round;stroke-miterlimit:500;stroke-dasharray:none;stroke-opacity:1;visibility:visible"/><path d="m476.835 373.861-98.398 51.104" style="fill:none;stroke:#00ff4a;stroke-width:1.99999;stroke-linecap:round;stroke-linejoin:round;stroke-miterlimit:500;stroke-dasharray:none;stroke-opacity:1;visibility:visible"/><path d="m383.81 425.453 1.395.37M384.443 425.123l1.395.37M384.443 425.123l-.633.33M470.647 381.244l-84.81 44.25M469.285 380.908l1.361.336M382.977 431.574l-.028-.173-.072-.123-.105-.05-.123.026-.12.1-.1.159-.065.196-.022.197.03.175.072.121.104.05.122-.025.12-.101.102-.159.065-.194.02-.199M385.205 425.822l-6.505 3.395M385.205 425.822l.19 9.187M379.032 437.636l-.15-6.944M370.503 458.239l-2.37 1.268" style="fill:none;stroke:#00ff4a;stroke-width:.999997;stroke-linecap:round;stroke-linejoin:round;stroke-miterlimit:500;stroke-dasharray:none;stroke-opacity:1;visibility:visible"/><path d="m363.348 114.772-10.52-1.87M344.652 115.715l8.176-2.813" style="fill:none;stroke:#00ff4a;stroke-width:1.99999;stroke-linecap:round;stroke-linejoin:round;stroke-miterlimit:500;stroke-dasharray:none;stroke-opacity:1;visibility:visible"/><path d="m355.193 117.604-10.541-1.89" style="fill:none;stroke:#00ff4a;stroke-width:.999997;stroke-linecap:round;stroke-linejoin:round;stroke-miterlimit:500;stroke-dasharray:none;stroke-opacity:1;visibility:visible"/><path d="m353.3 455.407-8.648-339.691" style="fill:none;stroke:#00ff4a;stroke-width:1.99999;stroke-linecap:round;stroke-linejoin:round;stroke-miterlimit:500;stroke-dasharray:none;stroke-opacity:1;visibility:visible"/><path d="m368.134 459.506-.533-22.917M368.134 459.506l-14.833-4.099M378.881 430.692l-.113-4.496M378.881 430.692l-11.28 5.896" style="fill:none;stroke:#00ff4a;stroke-width:.999997;stroke-linecap:round;stroke-linejoin:round;stroke-miterlimit:500;stroke-dasharray:none;stroke-opacity:1;visibility:visible"/><path d="m366.91 186.726 11.857 239.47M363.348 114.772l3.39 68.424" style="fill:none;stroke:#00ff4a;stroke-width:1.99999;stroke-linecap:round;stroke-linejoin:round;stroke-miterlimit:500;stroke-dasharray:none;stroke-opacity:1;visibility:visible"/><path d="m363.348 114.772-8.155 2.832M355.193 117.604l12.408 318.983M362.636 184.792l-.13.107-.135.07-.138.034-.133-.004-.128-.043-.116-.08-.103-.117-.085-.146-.065-.173-.043-.195-.021-.209.004-.219.028-.221.049-.22.072-.205.09-.19.109-.166.12-.139.129-.107.136-.07M362.277 182.498l.136-.033.135.005.126.044.118.08.102.115.084.146.066.172M362.823 196.775l.193-.103.184-.153.172-.199.154-.238.129-.271.101-.293.071-.312.04-.315.007-.312-.03-.3-.062-.276-.092-.245-.122-.208-.145-.163-.167-.113-.181-.062-.192-.006-.195.048-.194.102-.186.154-.17.198-.154.239-.13.27-.102.295-.072.311-.038.316-.006.313.03.299.061.277.093.247.122.207.145.162.168.114.181.06.192.005.195-.048M488.208 395.137l.23-.017M498.194 373.01l-.02-4.66M488.437 395.12l4.035-2.159M473.833 370.047l.039 5.303M488.208 395.137l-5.833-1.453M488.089 373.516l.023 3.893" style="fill:none;stroke:#00ff4a;stroke-width:.999997;stroke-linecap:round;stroke-linejoin:round;stroke-miterlimit:500;stroke-dasharray:none;stroke-opacity:1;visibility:visible"/><path d="m492.159 70.047-10.15-1.616M482.008 68.431l-7.076 2.436" style="fill:none;stroke:#00ff4a;stroke-width:1.99999;stroke-linecap:round;stroke-linejoin:round;stroke-miterlimit:500;stroke-dasharray:none;stroke-opacity:1;visibility:visible"/><path d="m488.318 373.5 9.857-5.15" style="fill:none;stroke:#00ff4a;stroke-width:.999997;stroke-linecap:round;stroke-linejoin:round;stroke-miterlimit:500;stroke-dasharray:none;stroke-opacity:1;visibility:visible"/><path d="m495.365 228.953 2.81 139.396M493.51 137.109l1.315 65.165M492.159 70.047l1.287 63.765" style="fill:none;stroke:#00ff4a;stroke-width:1.99999;stroke-linecap:round;stroke-linejoin:round;stroke-miterlimit:500;stroke-dasharray:none;stroke-opacity:1;visibility:visible"/><path d="m485.104 72.497 7.055-2.45M488.318 373.5l-.139-4.21M490.224 134.375l-.033-.184-.055-.163-.07-.138-.089-.111-.1-.08-.109-.044-.115-.007-.117.027" style="fill:none;stroke:#00ff4a;stroke-width:.999997;stroke-linecap:round;stroke-linejoin:round;stroke-miterlimit:500;stroke-dasharray:none;stroke-opacity:1;visibility:visible"/><path d="m489.536 133.675-.119.063-.114.096-.106.126-.093.155-.081.173-.067.192-.045.203-.026.207-.005.204.013.198.035.183.053.164.072.14.087.11.099.078.109.044.117.008.118-.028.117-.063.115-.096.104-.128M489.811 147.06l-.168.04-.164-.01-.156-.062-.144-.11-.121-.158-.104-.197-.076-.232-.048-.263-.023-.28.01-.292.037-.296.068-.288.09-.273.115-.251.136-.219.152-.181.16-.139.17-.09.166-.04.167.009.156.064.141.11.125.158.099.196.077.233.051.262.02.281-.01.292-.037.293-.065.29-.093.273-.115.25-.136.218-.15.181-.16.139-.17.092M486.706 227.2l1.473 142.089M485.104 72.497l-10.172-1.63M485.104 72.497l1.356 130.746" style="fill:none;stroke:#00ff4a;stroke-width:.999997;stroke-linecap:round;stroke-linejoin:round;stroke-miterlimit:500;stroke-dasharray:none;stroke-opacity:1;visibility:visible"/><path d="m474.454 200.887.477-130.02M473.833 370.047l.533-145.352" style="fill:none;stroke:#00ff4a;stroke-width:1.99999;stroke-linecap:round;stroke-linejoin:round;stroke-miterlimit:500;stroke-dasharray:none;stroke-opacity:1;visibility:visible"/><path d="m488.089 373.516-14.255-3.47M488.18 369.29l-.09 4.227M440.143 480.656l.005.497M445.572 474.517l.293.033M448.281 471.597l-3.139-.86" style="fill:none;stroke:#00ff4a;stroke-width:.999997;stroke-linecap:round;stroke-linejoin:round;stroke-miterlimit:500;stroke-dasharray:none;stroke-opacity:1;visibility:visible"/><path d="M320.317 177.046a.581.581 0 0 1-.21-.001c-.556-.107-.85-1.01-.654-2.02.193-1.01.8-1.74 1.356-1.633M321.574 177.288a.553.553 0 0 1-.21 0c-.554-.108-.846-1.012-.652-2.023.194-1.007.801-1.739 1.355-1.632M322.833 177.53a.64.64 0 0 1-.208 0c-.556-.109-.848-1.013-.655-2.022.193-1.008.803-1.739 1.36-1.632M324.093 177.772a.613.613 0 0 1-.21-.002c-.553-.108-.848-1.01-.653-2.02.193-1.009.8-1.741 1.357-1.633M325.351 178.014a.567.567 0 0 1-.211-.001c-.554-.105-.847-1.01-.653-2.019.194-1.01.803-1.741 1.358-1.634M326.61 178.256a.527.527 0 0 1-.21-.002c-.553-.104-.846-1.01-.652-2.017.193-1.01.802-1.741 1.357-1.635" style="fill:none;stroke:#00ff4a;stroke-width:.666665;stroke-linecap:round;stroke-linejoin:round;stroke-miterlimit:500;stroke-dasharray:none;stroke-opacity:1;visibility:visible"/><path d="m492.644 390.368.67-.055M493.313 390.313l4.074-.343 1.741 1.476M476.616 380.455l23.505-1.518M507.439 394.527l-8.844-2.144-5.488.352M487.128 392.968l-9.441.755-5.227 3.081M471.519 383.405l4.246-2.77 2.995-1.785 17.688-1.076 10.185 2.28M537.365 490.018c-.164 1.452.768 2.75 2.079 2.906 1.31.15 2.505-.904 2.67-2.36.162-1.452-.771-2.75-2.081-2.904-1.307-.151-2.503.903-2.667 2.358h-.001M534.537 497.966l10.55-1.038M534.515 484.175l10.377-.665M534.712 481.955l9.987-.597M479.83 391.042v-10.855M497.252 389.434v-9.65" style="fill:none;stroke:#00ff4a;stroke-width:.999997;stroke-linecap:round;stroke-linejoin:round;stroke-miterlimit:500;stroke-dasharray:none;stroke-opacity:1;visibility:visible"/><path d="m477.687 393.724 2.143-2.278 5.829-.49" style="fill:none;stroke:#00ff4a;stroke-width:.999997;stroke-linecap:round;stroke-linejoin:round;stroke-miterlimit:500;stroke-dasharray:none;stroke-opacity:1;visibility:visible"/><path d="m631.55 410.206 6.694 1.593 4.121 8.921" style="fill:none;stroke:#00ff4a;stroke-width:1.99999;stroke-linecap:round;stroke-linejoin:round;stroke-miterlimit:500;stroke-dasharray:none;stroke-opacity:1;visibility:visible"/><path d="m381.634 429.408-.347 4.968M379.711 431.14l-.385 5.766M645.398 418.316l-2.694-5.37-4.462-1.147" style="fill:none;stroke:#00ff4a;stroke-width:.999997;stroke-linecap:round;stroke-linejoin:round;stroke-miterlimit:500;stroke-dasharray:none;stroke-opacity:1;visibility:visible"/><path d="M389.68 439.028c-.322-.008-.573-.65-.558-1.44.013-.788.288-1.42.612-1.416M388.38 439.002c-.324-.008-.574-.652-.56-1.439.014-.79.287-1.423.612-1.417M387.078 438.975c-.323-.007-.575-.65-.56-1.439.014-.788.289-1.421.612-1.416M385.252 438.071a3.244 3.244 0 0 1-.036-.559c.015-.788.287-1.421.611-1.412M383.919 437.768a3.24 3.24 0 0 1-.005-.28c.013-.788.288-1.425.612-1.417M382.612 437.646a4.151 4.151 0 0 1-.001-.183c.015-.79.289-1.423.612-1.417M381.318 437.264c.048-.706.305-1.249.604-1.244M380.03 437.075c.073-.624.313-1.085.59-1.083M390.215 437.611c.015-.79.288-1.421.612-1.417.324.006.575.65.56 1.438-.013.788-.29 1.422-.61 1.416-.326-.008-.576-.648-.563-1.437h.001M488.265 391.231c-.124-.633.335-1.265 1.035-1.404.693-.142 1.359.263 1.489.896M488.039 389.837c-.127-.635.331-1.267 1.03-1.404.695-.143 1.363.257 1.492.896M489.273 394.14a1.116 1.116 0 0 1-.576-.76c-.126-.638.333-1.266 1.03-1.409.693-.14 1.361.26 1.49.9a1.099 1.099 0 0 1-.074.655" style="fill:none;stroke:#00ff4a;stroke-width:.666665;stroke-linecap:round;stroke-linejoin:round;stroke-miterlimit:500;stroke-dasharray:none;stroke-opacity:1;visibility:visible"/><path d="M488.479 392.18c-.124-.63.336-1.262 1.033-1.4.695-.147 1.36.261 1.49.894" style="fill:none;stroke:#00ff4a;stroke-width:.666665;stroke-linecap:round;stroke-linejoin:round;stroke-miterlimit:500;stroke-dasharray:none;stroke-opacity:1;visibility:visible"/><path d="M493.039 389.82c.085-.26.101-.597.044-.935a2.01 2.01 0 0 0-.348-.866M486.685 387.733c-.365.33-.665.829-.872 1.459" style="fill:none;stroke:#00ff4a;stroke-width:.666665;stroke-linecap:round;stroke-linejoin:round;stroke-miterlimit:2;stroke-dasharray:none;stroke-opacity:1;visibility:visible"/><path d="M486.116 390.99c.404.53.848.9 1.304 1.09M487.419 392.08c.42.174.84.291 1.254.345M491.565 391.744a5.62 5.62 0 0 0 .602-.466M492.167 391.278c.363-.328.663-.828.872-1.458" style="fill:none;stroke:#00ff4a;stroke-width:.999997;stroke-linecap:round;stroke-linejoin:round;stroke-miterlimit:2;stroke-dasharray:none;stroke-opacity:1;visibility:visible"/><path d="M487.528 388.275c-.255.23-.464.575-.607 1.012M485.812 389.191a1.98 1.98 0 0 0-.045.93c.057.339.182.651.35.869M486.92 389.288a1.333 1.333 0 0 0-.03.645 1.387 1.387 0 0 0 .24.603M487.132 390.535c.279.363.588.625.904.755M491.324 390.735c.256-.227.461-.572.606-1.01M491.93 389.724c.06-.18.07-.416.03-.646a1.373 1.373 0 0 0-.24-.601M491.72 388.476c-.28-.365-.59-.625-.9-.755" style="fill:none;stroke:#00ff4a;stroke-width:.666665;stroke-linecap:round;stroke-linejoin:round;stroke-miterlimit:2;stroke-dasharray:none;stroke-opacity:1;visibility:visible"/><path d="M490.819 387.72c-.589-.245-1.174-.323-1.734-.227a3.08 3.08 0 0 0-1.558.783" style="fill:none;stroke:#00ff4a;stroke-width:.666665;stroke-linecap:round;stroke-linejoin:round;stroke-miterlimit:2;stroke-dasharray:none;stroke-opacity:1;visibility:visible"/><path d="m486.057 390.909-.614-.94M485.116 389.084c.056.334.174.647.327.886M493.339 388.634c.068-.278.076-.61.02-.944" style="fill:none;stroke:#00ff4a;stroke-width:.999997;stroke-linecap:round;stroke-linejoin:round;stroke-miterlimit:2;stroke-dasharray:none;stroke-opacity:1;visibility:visible"/><path d="m493.068 389.722.27-1.087" style="fill:none;stroke:#00ff4a;stroke-width:.666665;stroke-linecap:round;stroke-linejoin:round;stroke-miterlimit:2;stroke-dasharray:none;stroke-opacity:1;visibility:visible"/><path d="m490.955 383.794 2.137 2.308M486.107 384.613l4.848-.818M484.848 387.498l1.259-2.885" style="fill:none;stroke:#00ff4a;stroke-width:.999997;stroke-linecap:round;stroke-linejoin:round;stroke-miterlimit:2;stroke-dasharray:none;stroke-opacity:1;visibility:visible"/><path d="M486.376 386.2a7.036 7.036 0 0 0 2.499.033 6.956 6.956 0 0 0 2.345-.854M485.116 389.084c.635-.574 1.081-1.6 1.26-2.884M491.221 385.38c.591 1.157 1.351 1.977 2.139 2.312" style="fill:none;stroke:#00ff4a;stroke-width:.666665;stroke-linecap:round;stroke-linejoin:round;stroke-miterlimit:2;stroke-dasharray:none;stroke-opacity:1;visibility:visible"/><path d="m484.848 387.498.268 1.587M493.092 386.103l.268 1.588" style="fill:none;stroke:#00ff4a;stroke-width:.999997;stroke-linecap:round;stroke-linejoin:round;stroke-miterlimit:2;stroke-dasharray:none;stroke-opacity:1;visibility:visible"/><path d="m486.107 384.613.27 1.586M490.955 383.794l.265 1.584" style="fill:none;stroke:#00ff4a;stroke-width:.666665;stroke-linecap:round;stroke-linejoin:round;stroke-miterlimit:2;stroke-dasharray:none;stroke-opacity:1;visibility:visible"/><path d="M484.41 388.44a2.763 2.763 0 0 1-.585-1.21c-.405-1.96 1.442-3.996 4.125-4.552 2.683-.553 5.186.587 5.59 2.545a2.768 2.768 0 0 1-.016 1.175" style="fill:none;stroke:#00ff4a;stroke-width:.999997;stroke-linecap:round;stroke-linejoin:round;stroke-miterlimit:2;stroke-dasharray:none;stroke-opacity:1;visibility:visible"/><path d="m440.216 480.711 3.992-.907M448.162 483.407l-3.954-3.603M440.224 481.21l8.685-.11M448.162 483.407l.747-2.307" style="fill:none;stroke:#00ff4a;stroke-width:.999997;stroke-linecap:round;stroke-linejoin:round;stroke-miterlimit:500;stroke-dasharray:none;stroke-opacity:1;visibility:visible"/><path d="m655.31 417.444-.5 7.328M368.134 459.507 353 449.99" style="fill:none;stroke:#00ff4a;stroke-width:1.99999;stroke-linecap:round;stroke-linejoin:round;stroke-miterlimit:500;stroke-dasharray:none;stroke-opacity:1;visibility:visible"/><path d="m516.659 474.678 12.125 3.887M530.311 481.925l-1.527-3.36M445.142 470.737l6.72-12.892M448.281 471.597l3.581-13.752M493.359 387.69l11.903 4.133M493.339 388.634l11.923 3.189M493.092 386.103l12.141-4.169M493.524 386.398l11.709-4.464M488.089 373.516l4.305 3.058M646.755 412.036l-4.101-1.524M638.242 411.799l4.412-1.287M488.089 373.516l9.309 1.675M496.13 372.51l1.268 2.681M486.376 386.2l-13.016-2.01M485.116 389.085l-11.756-4.895M479.83 380.187l2.442-2.78M486.376 386.2l-12.941 7.9M485.116 389.085l-11.681 5.015M391.601 441.013l1.217.358M491.22 385.379l-12.944-8.846" style="fill:none;stroke:#00ff4a;stroke-width:.999997;stroke-linecap:round;stroke-linejoin:round;stroke-miterlimit:500;stroke-dasharray:none;stroke-opacity:1;visibility:visible"/><path d="m378.881 430.692-.444-5.727" style="fill:none;stroke:#00ff4a;stroke-width:1.99999;stroke-linecap:round;stroke-linejoin:round;stroke-miterlimit:500;stroke-dasharray:none;stroke-opacity:1;visibility:visible"/><path d="m381.287 434.376 1.69-2.802M378.881 430.692l-.181-1.475" style="fill:none;stroke:#00ff4a;stroke-width:.999997;stroke-linecap:round;stroke-linejoin:round;stroke-miterlimit:500;stroke-dasharray:none;stroke-opacity:1;visibility:visible"/><path d="m366.737 183.196.173 3.53M366.91 186.726l-.173-3.53" style="fill:none;stroke:#00ff4a;stroke-width:1.99999;stroke-linecap:round;stroke-linejoin:round;stroke-miterlimit:500;stroke-dasharray:none;stroke-opacity:1;visibility:visible"/><path d="m362.276 182.499.547 14.276M362.277 182.498l.546 14.277M492.383 374.474l5.811-1.464M471.221 380.943l2.65-5.593M492.383 374.474l-4.271 2.935" style="fill:none;stroke:#00ff4a;stroke-width:.999997;stroke-linecap:round;stroke-linejoin:round;stroke-miterlimit:500;stroke-dasharray:none;stroke-opacity:1;visibility:visible"/><path d="m493.446 133.812.064 3.297M493.51 137.109l-.064-3.297" style="fill:none;stroke:#00ff4a;stroke-width:1.99999;stroke-linecap:round;stroke-linejoin:round;stroke-miterlimit:500;stroke-dasharray:none;stroke-opacity:1;visibility:visible"/><path d="m489.536 133.675.275 13.385M489.536 133.675l.275 13.385M485.659 390.956l-9.043-10.501M493.313 390.313l6.808-11.376M509.107 397.093l-1.668-2.566M470.798 399.848l1.662-3.044M491.22 385.379l-19.701-1.974M509.06 378.533l-2.427 1.521M544.892 483.51l-7.527 6.508M544.892 483.51l-10.355 14.456M534.515 484.175l10.572 12.753M544.699 481.358l-10.184 2.817M537.365 490.018l7.527-6.508M544.892 483.51l-10.18-1.555M534.515 484.175l10.184-2.817M471.221 380.943l8.609 10.099M482.272 377.407l-2.442 2.78M508.237 378.332l-10.985 11.102M492.394 376.574l4.858 3.21M486.685 387.733l-8.998 5.991" style="fill:none;stroke:#00ff4a;stroke-width:.999997;stroke-linecap:round;stroke-linejoin:round;stroke-miterlimit:500;stroke-dasharray:none;stroke-opacity:1;visibility:visible"/><path d="m630.567 407.348.983 2.858" style="fill:none;stroke:#00ff4a;stroke-width:1.99999;stroke-linecap:round;stroke-linejoin:round;stroke-miterlimit:500;stroke-dasharray:none;stroke-opacity:1;visibility:visible"/><path d="m380.03 437.075 1.604-7.667M382.977 431.574l-1.69 2.802M642.654 410.512l-4.412 1.287" style="fill:none;stroke:#00ff4a;stroke-width:.999997;stroke-linecap:round;stroke-linejoin:round;stroke-miterlimit:500;stroke-dasharray:none;stroke-opacity:1;visibility:visible"/><path d="m390.75 440.785-6.831-3.017M378.881 430.692l3.731 6.954M382.977 431.574l-1.659 5.69M390.75 440.785l-.535-3.174M485.116 389.084l2.923.753M493.359 387.69l-2.798 1.639M490.82 387.721l-1.547 6.419M486.107 384.613l5.036 8.913" style="fill:none;stroke:#00ff4a;stroke-width:.666665;stroke-linecap:round;stroke-linejoin:round;stroke-miterlimit:500;stroke-dasharray:none;stroke-opacity:1;visibility:visible"/><path d="m487.527 388.276-.842-.543" style="fill:none;stroke:#00ff4a;stroke-width:.666665;stroke-linecap:round;stroke-linejoin:round;stroke-miterlimit:2;stroke-dasharray:none;stroke-opacity:1;visibility:visible"/><path d="M537.365 490.018 550 476.908" style="fill:none;stroke:#00ff4a;stroke-width:.999997;stroke-linecap:round;stroke-linejoin:round;stroke-miterlimit:500;stroke-dasharray:none;stroke-opacity:1;visibility:visible"/><path d="m390.215 437.611-4.963.46" style="fill:none;stroke:#00ff4a;stroke-width:.666665;stroke-linecap:round;stroke-linejoin:round;stroke-miterlimit:500;stroke-dasharray:none;stroke-opacity:1;visibility:visible"/></svg>