<svg xmlns="http://www.w3.org/2000/svg" baseProfile="full" height="1122.52" preserveAspectRatio="xMinYMin meet" style="width:912px;height:1246px" width="793.701" xml:space="preserve"><path d="m373.474 962.307.005.496M373.48 962.804l-.026.012-.027.01-.032.006-.033.003-.036.001h-.036l-.032-.005-.03-.005M373.226 962.824l-.006-.498M365.308 960.671l7.918 2.153M365.303 960.174l.005.496M376.962 960.822l-.004-.498M373.48 962.804l3.481-1.98M368.442 958.278l1.328-4.57M372.992 961.07l.063-.02.296-.046h.315l.29.048M365.308 960.671l-.026-.01-.023-.009-.015-.011-.009-.016-.003-.011M368.306 959.796l.062-.016.294-.048h.316l.288.05M371.506 952.664l3.27.88M367.618 952.974l-.008.06.011.056.029.051.04.033.03.013M367.618 952.974l.056-.202.064-.2.07-.199.073-.191.085-.188.088-.184.093-.174.099-.169M368.246 951.467l.364-.404.366-.333.354-.254.33-.169.295-.073.235.013M371.46 952.334l-.098.168-.095.176-.087.184-.082.185-.078.193-.069.198-.064.2-.057.202M370.642 953.978l.05.002.048-.017.044-.035.032-.048.014-.04M367.72 953.187l2.922.79M371.12 953.876l-.025.058-.035.044-.046.03-.052.009-.019-.002M371.12 953.876l.102-.34.129-.334.147-.311.165-.288.181-.259.192-.226.202-.19.205-.15M370.83 953.84l.29.038M368.442 958.278l8.202 2.225M376.644 960.503l-3.172 1.805M373.222 962.326l.03.008.034.004h.07l.034-.004.032-.008.028-.008.022-.01M365.303 960.174l7.917 2.152M365.262 960.075l-.019.013-.01.014-.004.013.002.013.009.014.014.014.022.01.027.008M368.442 958.278l-3.18 1.797" style="fill:none;stroke:red;stroke-width:.999997;stroke-linecap:round;stroke-linejoin:round;stroke-miterlimit:500;stroke-dasharray:none;stroke-opacity:1;visibility:visible"/><path d="m373.95 960.556.216.088.113.116-.009.124-.126.116-.231.088-.298.05h-.313l-.29-.05-.216-.09-.113-.115.01-.125.127-.116.23-.087.296-.048h.316l.288.05M369.26 959.283l.214.088.114.117-.008.124-.13.115-.23.088-.296.05-.313-.003-.29-.047-.214-.09-.113-.113.008-.126.13-.116.228-.087.296-.047h.316l.288.047M375.09 953.37l-.186-.558-.238-.504-.286-.437-.322-.355-.35-.26-.368-.16-.369-.05-.363.056-.344.165-.313.265-.27.36-.223.442M375.09 953.37l1.866 6.956M376.958 960.324l-.312.18M374.778 953.544l1.866 6.96" style="fill:none;stroke:red;stroke-width:.999997;stroke-linecap:round;stroke-linejoin:round;stroke-miterlimit:500;stroke-dasharray:none;stroke-opacity:1;visibility:visible"/><path d="m372.444 951.78.287-.13.299-.044.305.048.305.136.286.22.268.296.234.361.198.417.152.46M372.444 951.78l-.984.551" style="fill:none;stroke:red;stroke-width:.999997;stroke-linecap:round;stroke-linejoin:round;stroke-miterlimit:500;stroke-dasharray:none;stroke-opacity:1;visibility:visible"/><path d="m516.83 972.68 86.686-53.734" style="fill:none;stroke:red;stroke-width:1.99999;stroke-linecap:round;stroke-linejoin:round;stroke-miterlimit:500;stroke-dasharray:none;stroke-opacity:1;visibility:visible"/><path d="m471.543 1000.751 9.776-6.059" style="fill:none;stroke:red;stroke-width:.999997;stroke-linecap:round;stroke-linejoin:round;stroke-miterlimit:500;stroke-dasharray:none;stroke-opacity:1;visibility:visible"/><path d="m603.517 918.947.167-7.957" style="fill:none;stroke:red;stroke-width:1.99999;stroke-linecap:round;stroke-linejoin:round;stroke-miterlimit:500;stroke-dasharray:none;stroke-opacity:1;visibility:visible"/><path d="m471.575 992.271-.03 8.479" style="fill:none;stroke:red;stroke-width:.999997;stroke-linecap:round;stroke-linejoin:round;stroke-miterlimit:500;stroke-dasharray:none;stroke-opacity:1;visibility:visible"/><path d="m266.18 944.336 205.364 56.415M265.987 936.223l.194 8.113" style="fill:none;stroke:red;stroke-width:1.99999;stroke-linecap:round;stroke-linejoin:round;stroke-miterlimit:500;stroke-dasharray:none;stroke-opacity:1;visibility:visible"/><path d="m603.684 910.987-86.867 53.445M487.381 982.547l-5.33 3.281M477.54 988.602l-5.967 3.668" style="fill:none;stroke:red;stroke-width:.999997;stroke-linecap:round;stroke-linejoin:round;stroke-miterlimit:500;stroke-dasharray:none;stroke-opacity:1;visibility:visible"/><path d="m277.963 929.92-11.973 6.304M578.9 904.92l24.784 6.07" style="fill:none;stroke:red;stroke-width:1.99999;stroke-linecap:round;stroke-linejoin:round;stroke-miterlimit:500;stroke-dasharray:none;stroke-opacity:1;visibility:visible"/><path d="m496.932 637.307-.101 15.757M496.83 653.064l-.032.321-.086.298-.137.265-.183.22-.221.165-.144.07M265.987 936.223l205.586 56.048" style="fill:none;stroke:red;stroke-width:.999997;stroke-linecap:round;stroke-linejoin:round;stroke-miterlimit:500;stroke-dasharray:none;stroke-opacity:1;visibility:visible"/><path d="m371.982 686.504 119.086-50.268" style="fill:none;stroke:red;stroke-width:1.99999;stroke-linecap:round;stroke-linejoin:round;stroke-miterlimit:500;stroke-dasharray:none;stroke-opacity:1;visibility:visible"/><path d="m581.29 653.75-.113.07-.108.103-.106.133-.094.161-.084.183-.07.2-.055.208-.036.215-.016.21.002.204.02.186.047.166.056.143.074.11.09.078.096.042.107.006.11-.035.113-.07.107-.103.109-.132.096-.161.08-.184.073-.2.055-.208.033-.215.019-.21-.003-.203-.023-.187-.042-.168-.058-.142-.074-.11-.09-.076-.098-.041-.104-.006-.113.034M378.048 687.718l-6.066-1.214M488.085 640.181l-.32.102-.405.074-.465.039-.487.004-.47-.032-.43-.068-.344-.096-.24-.119-.117-.132.013-.133.148-.128.263-.113.368-.087.44-.059.476-.02.485.015.452.05.388.082.295.11.182.124.053.134-.08.132-.206.121M384.898 683.89l.237-.139.104-.145-.037-.15-.174-.143-.297-.12-.399-.092-.47-.055-.512-.016-.507.022-.472.065-.397.097-.295.126-.172.142-.035.152.106.144.236.135.352.107.437.074.497.036.514-.004.494-.042.44-.084.35-.11M496.932 637.307l-5.861-1.071M378.048 687.718l118.883-50.413" style="fill:none;stroke:red;stroke-width:.999997;stroke-linecap:round;stroke-linejoin:round;stroke-miterlimit:500;stroke-dasharray:none;stroke-opacity:1;visibility:visible"/><path d="m583.201 650.704-.421 12.445M581.595 671.498l.158-.101.159-.15.147-.188.137-.231.12-.262.099-.284.075-.3.053-.304.025-.3M581.595 671.497l-1.835.85" style="fill:none;stroke:red;stroke-width:1.99999;stroke-linecap:round;stroke-linejoin:round;stroke-miterlimit:500;stroke-dasharray:none;stroke-opacity:1;visibility:visible"/><path d="m583.201 650.704-3.677 1.664M580.941 664.121l-.158.099-.163.148-.145.192-.138.23-.12.261-.101.285-.076.298-.05.306-.021.3v.291l.032.265.06.238.08.2.11.157.122.109M581.392 664.134l-.14-.057-.152-.005-.16.048M578.9 671.08l.005.288.028.266.06.236.084.2.11.154.12.109.142.06.154.004.157-.05" style="fill:none;stroke:red;stroke-width:.999997;stroke-linecap:round;stroke-linejoin:round;stroke-miterlimit:500;stroke-dasharray:none;stroke-opacity:1;visibility:visible"/><path d="m583.201 650.704-167.414-30.439" style="fill:none;stroke:red;stroke-width:1.99999;stroke-linecap:round;stroke-linejoin:round;stroke-miterlimit:500;stroke-dasharray:none;stroke-opacity:1;visibility:visible"/><path d="M579.524 652.37 411.918 621.8M579.524 652.37l-.625 18.71M420.939 621.75l.351.087.253.107.136.121.008.13-.12.125-.243.113-.344.09-.416.06-.466.033-.474-.007-.45-.039-.394-.073-.304-.097-.193-.12-.073-.124.057-.128.185-.12.294-.1.384-.079.446-.046.472-.011.467.023.424.055M575.673 649.907l-.453-.062-.49-.024-.485.012-.457.05-.383.082-.281.11-.167.13-.032.135.1.14.23.124.337.105.423.078.473.043.497.006.478-.032.42-.068.335-.096.226-.12.104-.136-.039-.137-.164-.132-.29-.118-.381-.09" style="fill:none;stroke:red;stroke-width:.999997;stroke-linecap:round;stroke-linejoin:round;stroke-miterlimit:500;stroke-dasharray:none;stroke-opacity:1;visibility:visible"/><path d="m290.226 670.117 173.368 34.748" style="fill:none;stroke:red;stroke-width:1.99999;stroke-linecap:round;stroke-linejoin:round;stroke-miterlimit:500;stroke-dasharray:none;stroke-opacity:1;visibility:visible"/><path d="m459.043 726.621.013.344.055.308.088.267.125.212.159.15.177.082.195.01.204-.061M459.043 726.621l.352-19.855M461.455 708.164l.128-.039.123.003.113.04.105.08.086.112.07.148.05.176.028.196.01.214-.016.226-.036.228-.06.222-.074.215-.095.197-.107.175-.117.145-.124.114-.129.077-.127.04h-.123l-.114-.043-.104-.077-.086-.116-.07-.147-.05-.174-.032-.199-.006-.213.014-.227.038-.228.06-.223.074-.214.096-.198.106-.173.117-.145.124-.114.128-.078M461.256 719.17l.18-.056h.178l.16.056.15.111.026.037M461.078 722.808l-.068.021h-.172l-.168-.057-.142-.11-.128-.162-.1-.21-.074-.249-.04-.28-.009-.307.021-.318.052-.327.082-.32.11-.307.136-.28.15-.249.167-.208.18-.164.183-.11M285.83 671.864l173.565 34.904M371.803 692.704l-.052.394-.164.326-.256.225-.317.099-.35-.035-.337-.17-.297-.283-.216-.366-.118-.412-.005-.409.11-.363.212-.28.29-.166.339-.032.35.104.319.23.261.329.169.393.062.416M453.538 704.917l-.396-.104-.284-.136-.156-.15-.014-.157.128-.154.264-.139.374-.11.46-.077.515-.036.526.007.5.05.44.086.343.121.224.146.086.156-.057.156-.199.146-.32.126-.421.096-.492.056-.527.016-.518-.03-.476-.069M293.21 672.701l.444.064.493.027.507-.014.483-.053.422-.087.332-.117.216-.133.084-.148-.054-.144-.187-.132-.308-.11-.405-.084-.471-.042-.506-.008-.5.034-.454.072-.381.1-.278.126-.152.144-.015.144.121.142.249.123.36.096" style="fill:none;stroke:red;stroke-width:.999997;stroke-linecap:round;stroke-linejoin:round;stroke-miterlimit:500;stroke-dasharray:none;stroke-opacity:1;visibility:visible"/><path d="m463.346 718.625.25-13.76M462.155 726.961l.18-.11.18-.164.168-.209.15-.25.133-.28.111-.304.079-.322.054-.322.023-.32M460.059 727.934l2.096-.972" style="fill:none;stroke:red;stroke-width:1.99999;stroke-linecap:round;stroke-linejoin:round;stroke-miterlimit:500;stroke-dasharray:none;stroke-opacity:1;visibility:visible"/><path d="M482.39 951.002v-.504M563.14 902.36l-.01.452M459.395 706.766l4.2-1.902" style="fill:none;stroke:red;stroke-width:.999997;stroke-linecap:round;stroke-linejoin:round;stroke-miterlimit:500;stroke-dasharray:none;stroke-opacity:1;visibility:visible"/><path d="m470.14 973.595.05-15.821" style="fill:none;stroke:red;stroke-width:1.99999;stroke-linecap:round;stroke-linejoin:round;stroke-miterlimit:500;stroke-dasharray:none;stroke-opacity:1;visibility:visible"/><path d="m483.319 951.254-1.524-.402M483.916 950.898l-.596.357M524.439 926.324l-.23.184-.114.2.01.205.136.202.247.187.355.16.437.122.497.086.534.038.537-.01.51-.058.459-.1.388-.14.286-.172.174-.193.05-.205-.075-.204-.193-.196-.307-.174-.396-.14-.472-.109-.516-.059-.536-.015-.53.034-.488.08-.427.12-.336.157M571.772 898.083l-.219.175-.103.19.02.196.141.189.249.179.352.149.432.118.488.081.52.034.521-.007.498-.054.445-.098.367-.132.273-.162.159-.183.04-.195-.08-.193-.193-.185-.311-.166-.391-.134-.463-.1-.507-.06-.522-.01-.516.029-.47.078-.411.116-.319.145M474.473 956.14l-.245.191-.127.213.003.218.124.212.25.196.358.168.444.132.505.09.546.042.552-.01.53-.062.48-.107.399-.148.301-.181.187-.204.065-.218-.069-.216-.19-.205-.304-.184-.399-.15-.483-.114-.528-.063-.55-.016-.542.036-.51.084-.44.13-.356.165M476.236 979.626l-1.528-.414" style="fill:none;stroke:red;stroke-width:.999997;stroke-linecap:round;stroke-linejoin:round;stroke-miterlimit:500;stroke-dasharray:none;stroke-opacity:1;visibility:visible"/><path d="m470.19 957.774 11.605-6.92" style="fill:none;stroke:red;stroke-width:1.99999;stroke-linecap:round;stroke-linejoin:round;stroke-miterlimit:500;stroke-dasharray:none;stroke-opacity:1;visibility:visible"/><path d="m476.319 959.392-6.13-1.618" style="fill:none;stroke:red;stroke-width:.999997;stroke-linecap:round;stroke-linejoin:round;stroke-miterlimit:500;stroke-dasharray:none;stroke-opacity:1;visibility:visible"/><path d="m579.543 897.558-5.933-1.443" style="fill:none;stroke:red;stroke-width:1.99999;stroke-linecap:round;stroke-linejoin:round;stroke-miterlimit:500;stroke-dasharray:none;stroke-opacity:1;visibility:visible"/><path d="m516.147 930.374 46.445-27.69M564.079 903.049l-1.487-.364M564.079 903.049l.544-.324M564.624 902.725l-1.484-.365M563.14 902.36l10.472-6.244" style="fill:none;stroke:red;stroke-width:.999997;stroke-linecap:round;stroke-linejoin:round;stroke-miterlimit:500;stroke-dasharray:none;stroke-opacity:1;visibility:visible"/><path d="m482.39 950.498 7.692-4.584" style="fill:none;stroke:red;stroke-width:1.99999;stroke-linecap:round;stroke-linejoin:round;stroke-miterlimit:500;stroke-dasharray:none;stroke-opacity:1;visibility:visible"/><path d="m483.916 950.898-1.526-.4" style="fill:none;stroke:red;stroke-width:.999997;stroke-linecap:round;stroke-linejoin:round;stroke-miterlimit:500;stroke-dasharray:none;stroke-opacity:1;visibility:visible"/><path d="m579.543 897.558-.336 19.259" style="fill:none;stroke:red;stroke-width:1.99999;stroke-linecap:round;stroke-linejoin:round;stroke-miterlimit:500;stroke-dasharray:none;stroke-opacity:1;visibility:visible"/><path d="m400.915 854.145 5.455 1.325M406.368 855.47l-11.016 5.759M393.986 860.894l1.366.335M393.411 861.194l.576-.3M352.624 882.82l.251-.17.14-.183.021-.187-.096-.187-.21-.17-.316-.146-.399-.115-.463-.076-.502-.036-.514.01-.498.052-.455.094-.39.128-.303.156-.195.18-.084.184.039.19.154.179.263.158.36.133.435.096.485.057.513.013.51-.03.482-.076.424-.112.348-.143M402.386 856.82l.238-.16.127-.174.01-.18-.102-.175-.213-.164-.312-.136-.395-.109-.456-.073-.49-.034-.503.01-.484.05-.439.087-.373.123-.287.148-.184.167-.07.18.045.178.157.17.265.154.358.123.428.092.477.053.501.013.496-.03.463-.07.412-.105.33-.137M309.98 905.867l.238 13.139M307.769 911.6l-.029-.172-.07-.122-.103-.052-.121.026-.119.099-.097.158-.068.193-.02.2.028.173.07.122.104.05.119-.025.12-.1.1-.157.067-.195.019-.198M310.849 919.167l-.244-13.626M394.908 880.197l-.128-18.668M318.2 921.046l76.706-40.85M309.214 905.66l-.008-.486M397.543 874.433l.021-.191.06-.183.094-.149.108-.093.11-.023.094.053.062.116.024.168-.022.189-.062.183-.092.15-.108.094-.109.023-.095-.052-.061-.119-.024-.166M406.386 858.667l-.016-3.197M395.354 861.229l.125 18.66M397.48 864.491l.022-.191.06-.183.093-.152.107-.091.112-.023.092.055.064.116.022.168-.022.19-.06.184-.092.15-.108.092-.11.023-.094-.052-.062-.12-.024-.167M395.479 879.89l10.987-5.85M393.986 860.894l.002.435M394.884 879.742l.594.148M579.207 916.817 516.4 955.126M489.745 971.387l-13.51 8.24M476.236 979.626l.084-20.234M476.319 959.392l13.874-8.312M516.376 935.398l63.167-37.84" style="fill:none;stroke:red;stroke-width:.999997;stroke-linecap:round;stroke-linejoin:round;stroke-miterlimit:500;stroke-dasharray:none;stroke-opacity:1;visibility:visible"/><path d="m400.915 854.145-97.608 50.82" style="fill:none;stroke:red;stroke-width:1.99999;stroke-linecap:round;stroke-linejoin:round;stroke-miterlimit:500;stroke-dasharray:none;stroke-opacity:1;visibility:visible"/><path d="m314.74 921.21 1.052-.561M315.591 921.437l-.853-.227M376.874 937.447l-.476-.096-.524-.051-.542-.005-.532.05-.493.089-.427.134-.338.168-.234.192-.112.208.012.21.138.202.254.183.36.155.441.118.503.076.54.026.539-.022.519-.07.462-.114.386-.152.288-.18.172-.203.051-.209-.076-.21-.199-.194-.308-.169-.404-.136M453.428 957.76l-.492-.1-.536-.053-.553-.003-.539.048-.494.096-.427.14-.333.174-.222.198-.101.216.028.218.153.21.274.19.378.161.458.125.52.075.548.03.552-.025.52-.07.465-.118.383-.16.278-.188.162-.209.036-.219-.094-.216-.212-.2-.331-.179-.419-.141M303.146 917.882l-.46-.093-.51-.049-.532-.002-.526.044-.49.09-.425.128-.346.16-.242.187-.124.2-.001.203.119.192.239.179.342.149.427.113.489.073.524.026.533-.022.512-.067.463-.111.39-.146.292-.174.185-.195.06-.203-.059-.2-.18-.187-.293-.163-.387-.132M440.474 954.451v-.736M315.791 920.649l.012.644M393.411 861.194l1.37.335M394.78 861.529l-84.175 44.013M309.206 905.175l1.399.366M309.206 905.175l-.626.326M308.58 905.5l1.4.368M309.98 905.867l-6.373 3.33" style="fill:none;stroke:red;stroke-width:.999997;stroke-linecap:round;stroke-linejoin:round;stroke-miterlimit:500;stroke-dasharray:none;stroke-opacity:1;visibility:visible"/><path d="m299.369 916.294 16.421 4.356" style="fill:none;stroke:red;stroke-width:1.99999;stroke-linecap:round;stroke-linejoin:round;stroke-miterlimit:500;stroke-dasharray:none;stroke-opacity:1;visibility:visible"/><path d="m295.13 918.52 4.239-2.225" style="fill:none;stroke:red;stroke-width:.999997;stroke-linecap:round;stroke-linejoin:round;stroke-miterlimit:500;stroke-dasharray:none;stroke-opacity:1;visibility:visible"/><path d="m441.382 953.956 17.64 4.68" style="fill:none;stroke:red;stroke-width:1.99999;stroke-linecap:round;stroke-linejoin:round;stroke-miterlimit:500;stroke-dasharray:none;stroke-opacity:1;visibility:visible"/><path d="m439.452 954.312 1.022-.596M439.452 954.312l.908.243M440.362 954.554l1.02-.598" style="fill:none;stroke:red;stroke-width:.999997;stroke-linecap:round;stroke-linejoin:round;stroke-miterlimit:500;stroke-dasharray:none;stroke-opacity:1;visibility:visible"/><path d="m316.646 920.875 123.829 32.84" style="fill:none;stroke:red;stroke-width:1.99999;stroke-linecap:round;stroke-linejoin:round;stroke-miterlimit:500;stroke-dasharray:none;stroke-opacity:1;visibility:visible"/><path d="m454.934 981.302-78.05-21.154M368.512 957.878l-72.991-19.784M295.52 938.094l-.392-19.575M295.13 918.52l159.828 42.527M315.591 921.437l1.055-.562" style="fill:none;stroke:red;stroke-width:.999997;stroke-linecap:round;stroke-linejoin:round;stroke-miterlimit:500;stroke-dasharray:none;stroke-opacity:1;visibility:visible"/><path d="m459.023 958.635-.036 20.219" style="fill:none;stroke:red;stroke-width:1.99999;stroke-linecap:round;stroke-linejoin:round;stroke-miterlimit:500;stroke-dasharray:none;stroke-opacity:1;visibility:visible"/><path d="m554.912 887.542-.899.525M554.039 887.327l.874.214M421.558 855.477l.444.081.484.043.5.002.493-.04.451-.078.386-.115.308-.143.207-.165.095-.175-.02-.177-.14-.175-.239-.155-.337-.133-.415-.097-.467-.065-.497-.023-.499.02-.472.06-.422.096-.35.128-.257.156-.153.172-.038.177.076.179.192.165.29.143.381.119M566.965 890.68l.475.088.507.049h.52l.501-.042.457-.085.387-.123.296-.153.185-.176.077-.188-.05-.192-.168-.185-.277-.167-.368-.141-.447-.107-.49-.068-.519-.025-.512.02-.483.065-.424.103-.344.137-.241.167-.134.183-.013.194.11.188.22.176.327.157.409.126M554.028 888.026l.01-.697M552.868 906.957l.268-19.102M553.72 906.449l-.852.508M433.308 877.445l-.03-18.626M433.308 877.445l54.735 13.51M519.532 898.727l33.336 8.23M416.519 854.76l.013 3.308M432.45 858.618l.033 18.623M429.428 862.234l-.03-.184-.092-.175-.132-.13-.16-.078-.156-.002-.135.069-.09.13-.029.17.032.187.09.172.132.134.158.073.159.002.133-.067.09-.13.03-.171M429.452 872.158l-.032-.184-.091-.175-.133-.132-.16-.073-.156-.005-.133.069-.09.13-.031.169.031.184.092.174.131.135.158.07.16.005.132-.067.092-.13.03-.169M416.592 873.317l15.89 3.922M433.386 858.122v.61M433.282 876.809l-.8.431M454.934 981.302l4.052-2.448M454.958 961.044l-.024 20.256M454.958 961.044l4.065-2.41" style="fill:none;stroke:red;stroke-width:.999997;stroke-linecap:round;stroke-linejoin:round;stroke-miterlimit:500;stroke-dasharray:none;stroke-opacity:1;visibility:visible"/><path d="m574.624 890.075-54.752-13.224M488.397 869.247l-68.131-16.456" style="fill:none;stroke:red;stroke-width:1.99999;stroke-linecap:round;stroke-linejoin:round;stroke-miterlimit:500;stroke-dasharray:none;stroke-opacity:1;visibility:visible"/><path d="m554.039 887.327-.902.528M553.136 887.854l-33.086-8.016M488.46 872.187l-55.182-13.366M434.212 858.322l-.932.497M434.212 858.322l-.826-.2M433.386 858.122l-.936.496M432.45 858.618l-15.93-3.86M420.266 852.791l-3.747 1.969" style="fill:none;stroke:red;stroke-width:.999997;stroke-linecap:round;stroke-linejoin:round;stroke-miterlimit:500;stroke-dasharray:none;stroke-opacity:1;visibility:visible"/><path d="m574.523 896.254.1-6.179" style="fill:none;stroke:red;stroke-width:1.99999;stroke-linecap:round;stroke-linejoin:round;stroke-miterlimit:500;stroke-dasharray:none;stroke-opacity:1;visibility:visible"/><path d="m557.023 903.514.033-.176.1-.13.143-.068.166.003.17.078.14.138.094.179.028.19-.036.176-.096.131-.145.068-.171-.005-.164-.078-.14-.14-.094-.176-.028-.191M571.052 892.195l-17.036-4.13M570.965 897.427l.086-5.232M554.015 888.066l-.268 18.928M557.168 893.317l.039-.177.097-.13.143-.07.169.007.17.073.139.14.091.179.031.191-.034.176-.097.131-.147.069-.166-.004-.167-.079-.14-.137-.097-.177-.031-.192M574.624 890.075l-3.574 2.12" style="fill:none;stroke:red;stroke-width:.999997;stroke-linecap:round;stroke-linejoin:round;stroke-miterlimit:500;stroke-dasharray:none;stroke-opacity:1;visibility:visible"/><path d="m303.971 917.47-.128-6.817" style="fill:none;stroke:red;stroke-width:1.99999;stroke-linecap:round;stroke-linejoin:round;stroke-miterlimit:500;stroke-dasharray:none;stroke-opacity:1;visibility:visible"/><path d="m295.52 938.094-2.336 1.25" style="fill:none;stroke:red;stroke-width:.999997;stroke-linecap:round;stroke-linejoin:round;stroke-miterlimit:500;stroke-dasharray:none;stroke-opacity:1;visibility:visible"/><path d="m270.813 607.183 8.01-2.904M289.327 606.212l-10.502-1.933" style="fill:none;stroke:red;stroke-width:1.99999;stroke-linecap:round;stroke-linejoin:round;stroke-miterlimit:500;stroke-dasharray:none;stroke-opacity:1;visibility:visible"/><path d="m281.337 609.132-10.524-1.95" style="fill:none;stroke:red;stroke-width:.999997;stroke-linecap:round;stroke-linejoin:round;stroke-miterlimit:500;stroke-dasharray:none;stroke-opacity:1;visibility:visible"/><path d="m278.311 935.304-7.497-328.121" style="fill:none;stroke:red;stroke-width:1.99999;stroke-linecap:round;stroke-linejoin:round;stroke-miterlimit:500;stroke-dasharray:none;stroke-opacity:1;visibility:visible"/><path d="m303.843 910.653-.101-4.484M303.843 910.653l-11.12 5.822M293.186 939.344l-.463-22.869M293.186 939.344l-14.876-4.04" style="fill:none;stroke:red;stroke-width:.999997;stroke-linecap:round;stroke-linejoin:round;stroke-miterlimit:500;stroke-dasharray:none;stroke-opacity:1;visibility:visible"/><path d="m289.327 606.212 2.998 64.3M293.4 693.616l10.34 212.551" style="fill:none;stroke:red;stroke-width:1.99999;stroke-linecap:round;stroke-linejoin:round;stroke-miterlimit:500;stroke-dasharray:none;stroke-opacity:1;visibility:visible"/><path d="m281.337 609.132 11.385 307.343M289.327 606.212l-7.989 2.919M412.33 875.49l.229-.017" style="fill:none;stroke:red;stroke-width:.999997;stroke-linecap:round;stroke-linejoin:round;stroke-miterlimit:500;stroke-dasharray:none;stroke-opacity:1;visibility:visible"/><path d="m422.327 853.267-.017-4.647" style="fill:none;stroke:red;stroke-width:1.99999;stroke-linecap:round;stroke-linejoin:round;stroke-miterlimit:500;stroke-dasharray:none;stroke-opacity:1;visibility:visible"/><path d="m412.559 875.474 4.033-2.156" style="fill:none;stroke:red;stroke-width:.999997;stroke-linecap:round;stroke-linejoin:round;stroke-miterlimit:500;stroke-dasharray:none;stroke-opacity:1;visibility:visible"/><path d="m397.9 850.317.034 5.277" style="fill:none;stroke:red;stroke-width:1.99999;stroke-linecap:round;stroke-linejoin:round;stroke-miterlimit:500;stroke-dasharray:none;stroke-opacity:1;visibility:visible"/><path d="m412.234 853.791.016 3.755M412.33 875.49l-5.864-1.45" style="fill:none;stroke:red;stroke-width:.999997;stroke-linecap:round;stroke-linejoin:round;stroke-miterlimit:500;stroke-dasharray:none;stroke-opacity:1;visibility:visible"/><path d="m406.398 558.023-7.039 2.553M416.567 559.719l-10.17-1.696" style="fill:none;stroke:red;stroke-width:1.99999;stroke-linecap:round;stroke-linejoin:round;stroke-miterlimit:500;stroke-dasharray:none;stroke-opacity:1;visibility:visible"/><path d="m412.464 853.774 9.848-5.155" style="fill:none;stroke:red;stroke-width:.999997;stroke-linecap:round;stroke-linejoin:round;stroke-miterlimit:500;stroke-dasharray:none;stroke-opacity:1;visibility:visible"/><path d="m418.152 642.144.428 22.136M418.98 685.04l.18 9.397M419.619 718.185l2.693 130.434" style="fill:none;stroke:red;stroke-width:1.99999;stroke-linecap:round;stroke-linejoin:round;stroke-miterlimit:500;stroke-dasharray:none;stroke-opacity:1;visibility:visible"/><path d="m409.545 562.285-10.186-1.709M409.546 562.285l.989 105.38M410.732 688.598l.039 4.255M410.994 716.508l1.336 133.045M412.464 853.774l-.134-4.223M409.546 562.285l7.021-2.565M416.567 559.719l1.172 60.876" style="fill:none;stroke:red;stroke-width:.999997;stroke-linecap:round;stroke-linejoin:round;stroke-miterlimit:500;stroke-dasharray:none;stroke-opacity:1;visibility:visible"/><path d="m397.9 850.317.711-136.361M398.814 672.23l.544-111.654" style="fill:none;stroke:red;stroke-width:1.99999;stroke-linecap:round;stroke-linejoin:round;stroke-miterlimit:500;stroke-dasharray:none;stroke-opacity:1;visibility:visible"/><path d="m412.33 849.551-.096 4.24M412.234 853.791l-14.334-3.473M373.31 951.087l-3.122-.84M370.656 953.98l.288.036M365.228 960.118l.006.496" style="fill:none;stroke:red;stroke-width:.999997;stroke-linecap:round;stroke-linejoin:round;stroke-miterlimit:500;stroke-dasharray:none;stroke-opacity:1;visibility:visible"/><path d="m287.28 692.424 172.405 35.565M412.966 641.233l44.04 8.244M491.941 656.014l87.524 16.38M406.712 693.094l89.315-38.69" style="fill:none;stroke:red;stroke-width:1.99999;stroke-linecap:round;stroke-linejoin:round;stroke-miterlimit:500;stroke-dasharray:none;stroke-opacity:1;visibility:visible"/><path d="m289.626 670.156-4.339 1.362.496 19.464s.497.874.992 1.122M414.834 620.321l-3.472 1.24.248 17.975s.001.744.621.992M580.945 664.392l3.976.75a1.453 1.453 0 0 1-.538 2.855l-3.998-.755M464.892 721.042l-2.934 1.254M461.863 719.774l3.976.751a1.453 1.453 0 0 1-.539 2.856l-3.997-.756" style="fill:none;stroke:red;stroke-width:.999997;stroke-linecap:round;stroke-linejoin:round;stroke-miterlimit:500;stroke-dasharray:none;stroke-opacity:1;visibility:visible"/><path d="m580.764 666.717 3.232-1.477" style="fill:none;stroke:red;stroke-width:.666665;stroke-linecap:round;stroke-linejoin:round;stroke-miterlimit:500;stroke-dasharray:none;stroke-opacity:1;visibility:visible"/><path d="m402.275 874.182 2.239-1.49 5.818-.822M466.265 970.627c-.158-1.132-.983-2.04-2.067-2.167-1.31-.15-2.506.903-2.67 2.358-.164 1.45.768 2.75 2.079 2.905M458.699 978.764l7.89-.777M458.676 964.974l10.377-.664M458.874 962.755l9.986-.597M403.994 871.84v-10.853M421.415 870.233v-9.65M416.807 871.167l4.743-.397 1.74 1.475M400.779 861.254l23.505-1.519M431.6 875.326l-8.844-2.144-5.489.352M411.291 873.767l-9.441.755-5.227 3.081M395.684 864.203l4.246-2.769 2.994-1.787 17.688-1.074 10.186 2.28" style="fill:none;stroke:red;stroke-width:.999997;stroke-linecap:round;stroke-linejoin:round;stroke-miterlimit:500;stroke-dasharray:none;stroke-opacity:1;visibility:visible"/><path d="m554.876 890.643 6.693 1.594 4.122 8.92" style="fill:none;stroke:red;stroke-width:1.99999;stroke-linecap:round;stroke-linejoin:round;stroke-miterlimit:500;stroke-dasharray:none;stroke-opacity:1;visibility:visible"/><path d="m568.725 898.754-2.694-5.37-4.462-1.148" style="fill:none;stroke:red;stroke-width:.999997;stroke-linecap:round;stroke-linejoin:round;stroke-miterlimit:500;stroke-dasharray:none;stroke-opacity:1;visibility:visible"/><path d="M412.503 871.722c-.124-.633.333-1.265 1.033-1.404.695-.143 1.36.264 1.49.896M412.276 870.327c-.126-.634.332-1.265 1.031-1.404.695-.142 1.363.259 1.492.897M413.511 874.631a1.11 1.11 0 0 1-.576-.758c-.127-.639.332-1.267 1.03-1.41.693-.14 1.359.26 1.489.9a1.099 1.099 0 0 1-.074.655" style="fill:none;stroke:red;stroke-width:.666665;stroke-linecap:round;stroke-linejoin:round;stroke-miterlimit:500;stroke-dasharray:none;stroke-opacity:1;visibility:visible"/><path d="M412.716 872.671c-.124-.63.336-1.261 1.034-1.401.694-.145 1.36.263 1.489.896" style="fill:none;stroke:red;stroke-width:.666665;stroke-linecap:round;stroke-linejoin:round;stroke-miterlimit:500;stroke-dasharray:none;stroke-opacity:1;visibility:visible"/><path d="M417.276 870.313c.086-.26.102-.595.044-.934a2.023 2.023 0 0 0-.348-.868M410.922 868.223c-.366.331-.667.83-.872 1.46" style="fill:none;stroke:red;stroke-width:.666665;stroke-linecap:round;stroke-linejoin:round;stroke-miterlimit:2;stroke-dasharray:none;stroke-opacity:1;visibility:visible"/><path d="M410.354 871.48c.404.53.848.9 1.302 1.09M411.655 872.571c.42.176.84.294 1.255.347M415.803 872.237c.205-.139.407-.294.601-.468M416.404 871.769c.364-.329.664-.827.872-1.459" style="fill:none;stroke:red;stroke-width:.999997;stroke-linecap:round;stroke-linejoin:round;stroke-miterlimit:2;stroke-dasharray:none;stroke-opacity:1;visibility:visible"/><path d="M411.159 869.78a1.333 1.333 0 0 0-.03.642 1.4 1.4 0 0 0 .241.605M411.368 871.027c.279.363.588.624.904.754M415.562 871.227c.256-.227.461-.572.605-1.01M416.167 870.215c.06-.181.07-.415.03-.645a1.379 1.379 0 0 0-.239-.603M415.958 868.969c-.28-.364-.59-.626-.902-.756M415.056 868.211c-.588-.246-1.173-.321-1.733-.228s-1.087.36-1.559.784M411.764 868.767c-.254.23-.464.575-.606 1.013M410.05 869.683a1.98 1.98 0 0 0-.046.931c.058.337.183.65.35.868" style="fill:none;stroke:red;stroke-width:.666665;stroke-linecap:round;stroke-linejoin:round;stroke-miterlimit:2;stroke-dasharray:none;stroke-opacity:1;visibility:visible"/><path d="m410.295 871.4-.615-.94M409.354 869.577c.056.332.173.645.326.882M417.576 869.126c.068-.276.076-.61.02-.943" style="fill:none;stroke:red;stroke-width:.999997;stroke-linecap:round;stroke-linejoin:round;stroke-miterlimit:2;stroke-dasharray:none;stroke-opacity:1;visibility:visible"/><path d="m417.306 870.214.27-1.087" style="fill:none;stroke:red;stroke-width:.666665;stroke-linecap:round;stroke-linejoin:round;stroke-miterlimit:2;stroke-dasharray:none;stroke-opacity:1;visibility:visible"/><path d="m415.191 864.286 2.137 2.308M410.344 865.103l4.848-.817M409.086 867.989l1.258-2.886" style="fill:none;stroke:red;stroke-width:.999997;stroke-linecap:round;stroke-linejoin:round;stroke-miterlimit:2;stroke-dasharray:none;stroke-opacity:1;visibility:visible"/><path d="M409.354 869.577c.634-.575 1.081-1.602 1.26-2.887M415.459 865.87c.59 1.157 1.35 1.977 2.137 2.312" style="fill:none;stroke:red;stroke-width:.666665;stroke-linecap:round;stroke-linejoin:round;stroke-miterlimit:2;stroke-dasharray:none;stroke-opacity:1;visibility:visible"/><path d="M410.612 866.691a7.067 7.067 0 0 0 2.499.035 6.956 6.956 0 0 0 2.347-.855" style="fill:none;stroke:red;stroke-width:.666665;stroke-linecap:round;stroke-linejoin:round;stroke-miterlimit:2;stroke-dasharray:none;stroke-opacity:1;visibility:visible"/><path d="m409.086 867.989.268 1.586M417.328 866.594l.267 1.588" style="fill:none;stroke:red;stroke-width:.999997;stroke-linecap:round;stroke-linejoin:round;stroke-miterlimit:2;stroke-dasharray:none;stroke-opacity:1;visibility:visible"/><path d="m410.344 865.103.27 1.587M415.191 864.286l.267 1.584" style="fill:none;stroke:red;stroke-width:.666665;stroke-linecap:round;stroke-linejoin:round;stroke-miterlimit:2;stroke-dasharray:none;stroke-opacity:1;visibility:visible"/><path d="M408.647 868.931a2.763 2.763 0 0 1-.587-1.209c-.404-1.96 1.443-3.996 4.126-4.552 2.684-.553 5.186.585 5.59 2.545a2.768 2.768 0 0 1-.016 1.175" style="fill:none;stroke:red;stroke-width:.999997;stroke-linecap:round;stroke-linejoin:round;stroke-miterlimit:2;stroke-dasharray:none;stroke-opacity:1;visibility:visible"/><path d="m482.051 985.828-.732 8.864M476.235 979.627l11.146 2.92M477.54 988.602l4.511-2.774M482.051 985.828l-4.511 2.774" style="fill:none;stroke:red;stroke-width:.999997;stroke-linecap:round;stroke-linejoin:round;stroke-miterlimit:500;stroke-dasharray:none;stroke-opacity:1;visibility:visible"/><path d="m293.184 939.344-15.221-9.424M579.543 897.558l-.643 7.362" style="fill:none;stroke:red;stroke-width:1.99999;stroke-linecap:round;stroke-linejoin:round;stroke-miterlimit:500;stroke-dasharray:none;stroke-opacity:1;visibility:visible"/><path d="m581.595 671.498-.305-17.748M579.76 672.347l1.53-18.596" style="fill:none;stroke:red;stroke-width:.999997;stroke-linecap:round;stroke-linejoin:round;stroke-miterlimit:500;stroke-dasharray:none;stroke-opacity:1;visibility:visible"/><path d="m582.568 669.378.212-6.229M578.899 671.08l3.669-1.702" style="fill:none;stroke:red;stroke-width:1.99999;stroke-linecap:round;stroke-linejoin:round;stroke-miterlimit:500;stroke-dasharray:none;stroke-opacity:1;visibility:visible"/><path d="m420.939 621.75-9.021.05M415.787 620.265l5.152 1.485M580.945 664.392l-5.272-14.485M579.524 652.37l-3.85-2.463M461.078 722.808l.377-14.644M462.155 726.961l-.7-18.797M293.21 672.701l-7.38-.837M461.863 719.774l-8.325-14.857M459.395 706.768l-5.857-1.851M290.226 670.117l2.984 2.584" style="fill:none;stroke:red;stroke-width:.999997;stroke-linecap:round;stroke-linejoin:round;stroke-miterlimit:500;stroke-dasharray:none;stroke-opacity:1;visibility:visible"/><path d="m463.233 724.68.113-6.055M459.043 726.621l4.19-1.941M476.32 959.392l-6.18 14.203" style="fill:none;stroke:red;stroke-width:1.99999;stroke-linecap:round;stroke-linejoin:round;stroke-miterlimit:500;stroke-dasharray:none;stroke-opacity:1;visibility:visible"/><path d="m471.573 992.271 3.135-13.059" style="fill:none;stroke:red;stroke-width:.999997;stroke-linecap:round;stroke-linejoin:round;stroke-miterlimit:500;stroke-dasharray:none;stroke-opacity:1;visibility:visible"/><path d="m483.32 951.255 6.762-5.341" style="fill:none;stroke:red;stroke-width:1.99999;stroke-linecap:round;stroke-linejoin:round;stroke-miterlimit:500;stroke-dasharray:none;stroke-opacity:1;visibility:visible"/><path d="m415.458 865.871-13.072-9.051M393.411 861.194l8.974-4.373M316.646 920.875l1.554.171M410.614 866.69l-13.071 7.743M409.354 869.575l-11.811 4.858M403.994 860.987l2.392-2.32M410.614 866.69l-13.134-2.199M409.354 869.575l-11.874-5.085M482.051 985.828l7.694-14.441M483.32 951.255l6.873-.175" style="fill:none;stroke:red;stroke-width:.999997;stroke-linecap:round;stroke-linejoin:round;stroke-miterlimit:500;stroke-dasharray:none;stroke-opacity:1;visibility:visible"/><path d="m303.843 910.653-.536-5.688" style="fill:none;stroke:red;stroke-width:1.99999;stroke-linecap:round;stroke-linejoin:round;stroke-miterlimit:500;stroke-dasharray:none;stroke-opacity:1;visibility:visible"/><path d="m370.188 950.247 6.686-12.8M373.31 951.087l3.564-13.64M441.382 953.956l12.046 3.804M454.958 961.047l-1.528-3.287M303.843 910.653l-.236-1.456M412.234 853.791l9.324 1.686M420.266 852.791l1.293 2.686M571.052 892.195l-4.087-1.515M561.569 892.236l5.397-1.555M421.415 860.583l-4.883-2.515M417.328 866.594l12.1-4.36M417.76 866.89l11.668-4.656M417.596 868.183l11.856 3.975M417.576 869.126l11.876 3.033M574.623 890.075l-3.658 7.352" style="fill:none;stroke:red;stroke-width:.999997;stroke-linecap:round;stroke-linejoin:round;stroke-miterlimit:500;stroke-dasharray:none;stroke-opacity:1;visibility:visible"/><path d="m416.519 854.76 5.808-1.493M395.354 861.229l2.58-5.635" style="fill:none;stroke:red;stroke-width:1.99999;stroke-linecap:round;stroke-linejoin:round;stroke-miterlimit:500;stroke-dasharray:none;stroke-opacity:1;visibility:visible"/><path d="m416.519 854.76-4.269 2.786" style="fill:none;stroke:red;stroke-width:.999997;stroke-linecap:round;stroke-linejoin:round;stroke-miterlimit:500;stroke-dasharray:none;stroke-opacity:1;visibility:visible"/><path d="m410.771 692.853 8.209-7.813M410.732 688.598l8.428 5.839" style="fill:none;stroke:red;stroke-width:1.99999;stroke-linecap:round;stroke-linejoin:round;stroke-miterlimit:500;stroke-dasharray:none;stroke-opacity:1;visibility:visible"/><path d="m418.98 685.04-8.445-17.375M419.16 694.437l-8.428-5.839M418.98 685.04l-8.209 7.813M371.506 952.664l1.804-1.577" style="fill:none;stroke:red;stroke-width:.999997;stroke-linecap:round;stroke-linejoin:round;stroke-miterlimit:500;stroke-dasharray:none;stroke-opacity:1;visibility:visible"/><path d="m496.932 637.307-4.991 18.707" style="fill:none;stroke:red;stroke-width:1.99999;stroke-linecap:round;stroke-linejoin:round;stroke-miterlimit:500;stroke-dasharray:none;stroke-opacity:1;visibility:visible"/><path d="m460.059 727.934 4.833-6.892" style="fill:none;stroke:red;stroke-width:.999997;stroke-linecap:round;stroke-linejoin:round;stroke-miterlimit:500;stroke-dasharray:none;stroke-opacity:1;visibility:visible"/><path d="m579.76 672.347 4.236-7.107" style="fill:none;stroke:red;stroke-width:.666665;stroke-linecap:round;stroke-linejoin:round;stroke-miterlimit:500;stroke-dasharray:none;stroke-opacity:1;visibility:visible"/><path d="m415.458 865.871-13.183 8.311M458.676 964.974l7.913 13.013M468.86 962.158l-10.184 2.816M458.874 962.755l10.179 1.555M469.053 964.31l-10.179-1.555M458.676 964.974l10.184-2.816M395.354 861.229l8.64 10.611M406.386 858.667l-2.392 2.32M432.45 858.618l-11.035 11.615M416.532 858.068l4.883 2.515M410.332 871.87l-9.553-10.616M416.807 871.167l7.477-11.432M433.308 877.445l-1.708-2.119M412.33 875.49l-1.039-1.723M394.906 880.196l1.717-2.593M415.458 865.871l-19.774-1.668M433.278 858.821l-2.48 2.032" style="fill:none;stroke:red;stroke-width:.999997;stroke-linecap:round;stroke-linejoin:round;stroke-miterlimit:500;stroke-dasharray:none;stroke-opacity:1;visibility:visible"/><path d="m554.913 887.541-.037 3.102" style="fill:none;stroke:red;stroke-width:1.99999;stroke-linecap:round;stroke-linejoin:round;stroke-miterlimit:500;stroke-dasharray:none;stroke-opacity:1;visibility:visible"/><path d="m566.966 890.681-5.397 1.555" style="fill:none;stroke:red;stroke-width:.999997;stroke-linecap:round;stroke-linejoin:round;stroke-miterlimit:500;stroke-dasharray:none;stroke-opacity:1;visibility:visible"/><path d="m409.354 869.577 2.922.75M417.596 868.183l-2.797 1.637M411.655 872.571l1.856 2.06M410.344 865.103l5.036 8.915" style="fill:none;stroke:red;stroke-width:.666665;stroke-linecap:round;stroke-linejoin:round;stroke-miterlimit:500;stroke-dasharray:none;stroke-opacity:1;visibility:visible"/><path d="m411.764 868.767-.842-.544" style="fill:none;stroke:red;stroke-width:.666665;stroke-linecap:round;stroke-linejoin:round;stroke-miterlimit:2;stroke-dasharray:none;stroke-opacity:1;visibility:visible"/><path d="m504.225 669.198 12.1 2.292M504.225 669.198l-7.742 3.432" style="fill:none;stroke:#00ff4a;stroke-width:1.99999;stroke-linecap:round;stroke-linejoin:round;stroke-miterlimit:500;stroke-dasharray:none;stroke-opacity:1;visibility:visible"/><path d="m508.612 674.941 7.71-3.453M513.012 744.697l-.047.445-.12.436-.182.383-.227.279-.239.157-.237.01-.205-.137-.147-.268-.075-.37.007-.434.079-.45.153-.413.207-.335.238-.223.246-.084.221.065.177.207.115.324.036.408" style="fill:none;stroke:#00ff4a;stroke-width:.999997;stroke-linecap:round;stroke-linejoin:round;stroke-miterlimit:500;stroke-dasharray:none;stroke-opacity:1;visibility:visible"/><path d="m488.592 1024.715 16.992 4.74M488.592 1024.715l.145-24.4M496.483 672.63l-7.746 327.686M516.652 998.08l-.328-326.59M516.652 998.08l-.24 24.362M516.412 1022.442l-10.828 7.013" style="fill:none;stroke:#00ff4a;stroke-width:1.99999;stroke-linecap:round;stroke-linejoin:round;stroke-miterlimit:500;stroke-dasharray:none;stroke-opacity:1;visibility:visible"/><path d="m496.483 672.63 12.13 2.311M505.585 1029.455l3.028-354.515" style="fill:none;stroke:#00ff4a;stroke-width:.999997;stroke-linecap:round;stroke-linejoin:round;stroke-miterlimit:500;stroke-dasharray:none;stroke-opacity:1;visibility:visible"/><path d="m622.097 906.411.197-8.11" style="fill:none;stroke:#9500ff;stroke-width:1.99999;stroke-linecap:round;stroke-linejoin:round;stroke-miterlimit:500;stroke-dasharray:none;stroke-opacity:1;visibility:visible"/><path d="m622.636 883.9.138-4.346" style="fill:none;stroke:#9500ff;stroke-width:.999997;stroke-linecap:round;stroke-linejoin:round;stroke-miterlimit:500;stroke-dasharray:none;stroke-opacity:1;visibility:visible"/><path d="m622.362 895.257.274-11.357M622.774 879.553l-.073 4.436M638.392 582.245l-15.618 297.308M644.838 579.435l11.328 1.868M638.392 582.245l6.448-2.809M622.162 906.502l15.82 3.88" style="fill:none;stroke:#9500ff;stroke-width:1.99999;stroke-linecap:round;stroke-linejoin:round;stroke-miterlimit:500;stroke-dasharray:none;stroke-opacity:1;visibility:visible"/><path d="m638.574 887.797-.59 22.585M638.574 887.797l11.17-303.668M656.168 581.304l-6.424 2.825M650.217 649.041l.027.375.085.304.143.195.185.069.2-.064.201-.192.178-.298.132-.373.076-.407.01-.395-.054-.345-.118-.251-.166-.135-.194-.004-.205.13-.193.252-.156.338-.108.393-.043.408M638.392 582.245l11.352 1.885M622.701 883.989l15.872 3.806" style="fill:none;stroke:#9500ff;stroke-width:.999997;stroke-linecap:round;stroke-linejoin:round;stroke-miterlimit:500;stroke-dasharray:none;stroke-opacity:1;visibility:visible"/><path d="m647.108 904.574 9.06-323.271M637.982 910.382l9.126-5.807M622.362 895.257l-.068 3.044M622.294 898.301l.068-3.044" style="fill:none;stroke:#9500ff;stroke-width:1.99999;stroke-linecap:round;stroke-linejoin:round;stroke-miterlimit:500;stroke-dasharray:none;stroke-opacity:1;visibility:visible"/><path d="m483.32 951.255-8.847 4.885M303.607 909.197l4.162 2.403M458.874 962.755l4.733 10.968" style="fill:none;stroke:red;stroke-width:.999997;stroke-linecap:round;stroke-linejoin:round;stroke-miterlimit:500;stroke-dasharray:none;stroke-opacity:1;visibility:visible"/></svg>