<svg xmlns="http://www.w3.org/2000/svg" baseProfile="full" height="1122.52" preserveAspectRatio="xMinYMin meet" style="width:912px;height:1246px" width="793.701" xml:space="preserve"><path d="m595.785 647.087-.293 22.497M595.492 669.584l-.047.458-.125.423-.201.38-.266.316-.328.237-.172.086" style="fill:none;stroke:red;stroke-width:.666665;stroke-linecap:round;stroke-linejoin:round;stroke-miterlimit:500;stroke-dasharray:none;stroke-opacity:1;visibility:visible"/><path d="m420.944 716.46 14.006-5.967M438.755 708.873l139.668-59.49M583.465 647.235l3.858-1.643" style="fill:none;stroke:red;stroke-width:1.99999;stroke-linecap:round;stroke-linejoin:round;stroke-miterlimit:500;stroke-dasharray:none;stroke-opacity:1;visibility:visible"/><path d="m429.748 718.188-8.804-1.728M583.439 651.11l-.443.143-.573.102-.658.055-.692.005-.68-.047-.612-.092-.504-.136-.353-.165-.179-.183.01-.19.195-.179.369-.155.51-.128.286-.033M582.687 650.17l.35.07.433.151.27.176.086.188-.101.185-.285.171M439.324 712.744l.33-.191.141-.213-.065-.212-.26-.2-.434-.17-.578-.13" style="fill:none;stroke:red;stroke-width:.666665;stroke-linecap:round;stroke-linejoin:round;stroke-miterlimit:500;stroke-dasharray:none;stroke-opacity:1;visibility:visible"/><path d="m435.319 711.726-.243.06-.414.178-.24.202-.037.215.161.207.349.186.512.156.636.106.715.052.738-.004.708-.064.626-.116.494-.16M595.785 647.087l-8.462-1.495M429.748 718.188l166.037-71.101" style="fill:none;stroke:red;stroke-width:.666665;stroke-linecap:round;stroke-linejoin:round;stroke-miterlimit:500;stroke-dasharray:none;stroke-opacity:1;visibility:visible"/><path d="m469.98 726.065 124.372-54.583M438.755 708.873l-3.805 1.62M434.95 710.493l3.805-1.62M583.465 647.235l-5.042 2.148M578.423 649.383l5.042-2.148" style="fill:none;stroke:red;stroke-width:1.99999;stroke-linecap:round;stroke-linejoin:round;stroke-miterlimit:500;stroke-dasharray:none;stroke-opacity:1;visibility:visible"/><path d="m595.785 647.087-13.098 3.083M429.748 718.188l8.71-6.56" style="fill:none;stroke:red;stroke-width:.666665;stroke-linecap:round;stroke-linejoin:round;stroke-miterlimit:500;stroke-dasharray:none;stroke-opacity:1;visibility:visible"/><path d="m296.389 695.694 6.221-2.469M302.611 693.228l251.68 49.412M298.358 725.201l-.228-.08-.229-.159-.202-.23-.168-.29-.126-.35-.085-.392-.037-.424" style="fill:none;stroke:#00ff4a;stroke-width:1.99999;stroke-linecap:round;stroke-linejoin:round;stroke-miterlimit:500;stroke-dasharray:none;stroke-opacity:1;visibility:visible"/><path d="m539.795 742.713-.58-.15-.423-.191-.239-.216-.033-.23.172-.216.365-.197.531-.16.66-.107.735-.052.761.01.725.07.642.127.506.172.335.204.14.224-.07.227-.27.209-.453.18-.602.133-.706.082-.755.02-.752-.038-.69-.101M307.058 696.89l.637.09.71.038.725-.02.691-.077.602-.119.47-.169.304-.188.113-.207-.085-.205-.276-.188-.447-.155-.583-.116-.678-.064-.724-.009-.715.049-.65.098-.542.145-.39.18-.214.201-.013.206.18.197.365.176.52.137" style="fill:none;stroke:#00ff4a;stroke-width:.666665;stroke-linecap:round;stroke-linejoin:round;stroke-miterlimit:500;stroke-dasharray:none;stroke-opacity:1;visibility:visible"/><path d="m296.389 695.694.894 27.58" style="fill:none;stroke:#00ff4a;stroke-width:1.99999;stroke-linecap:round;stroke-linejoin:round;stroke-miterlimit:500;stroke-dasharray:none;stroke-opacity:1;visibility:visible"/><path d="m550.743 768.462-.255.082h-.245l-.228-.082-.202-.161-.173-.236-.14-.299-.097-.361-.055-.407-.01-.438.032-.46.078-.472.119-.462.153-.441.191-.405.216-.36.238-.3.25-.231.257-.161M296.389 695.694l252.015 49.668M547.696 774.009l.019.493.07.448.126.383.172.307.216.216.249.118.272.016.285-.085M547.696 774.009l.707-28.645M551.267 747.389l.177-.055.172.003.16.057.14.116.123.168.096.208.069.254.039.286.007.31-.022.324-.055.329-.082.323-.111.308-.13.284-.153.252-.166.209-.175.164-.179.11-.177.055-.173-.004-.16-.057-.143-.113-.12-.168-.099-.212-.065-.252-.041-.284-.009-.311.023-.325.055-.328.083-.324.109-.308.133-.284.152-.25.167-.21.173-.164.182-.111" style="fill:none;stroke:#00ff4a;stroke-width:.666665;stroke-linecap:round;stroke-linejoin:round;stroke-miterlimit:500;stroke-dasharray:none;stroke-opacity:1;visibility:visible"/><path d="m550.87 763.268.255-.082.243.002.228.084.203.158.174.236" style="fill:none;stroke:#00ff4a;stroke-width:.666665;stroke-linecap:round;stroke-linejoin:round;stroke-miterlimit:500;stroke-dasharray:none;stroke-opacity:1;visibility:visible"/><path d="m553.57 771.222.03-1.052M553.773 763.18l.519-20.54M552.039 774.508l.257-.16.248-.234.239-.301.214-.359.188-.406.156-.438.119-.464.077-.465.033-.459M549.105 775.905l2.935-1.397" style="fill:none;stroke:#00ff4a;stroke-width:1.99999;stroke-linecap:round;stroke-linejoin:round;stroke-miterlimit:500;stroke-dasharray:none;stroke-opacity:1;visibility:visible"/><path d="m548.404 745.364 5.888-2.724" style="fill:none;stroke:#00ff4a;stroke-width:.666665;stroke-linecap:round;stroke-linejoin:round;stroke-miterlimit:500;stroke-dasharray:none;stroke-opacity:1;visibility:visible"/><path d="m298.358 725.201 75.177 15.256M390.732 743.948l157.852 32.032" style="fill:none;stroke:#00ff4a;stroke-width:1.99999;stroke-linecap:round;stroke-linejoin:round;stroke-miterlimit:500;stroke-dasharray:none;stroke-opacity:1;visibility:visible"/><path d="m555.012 765.713-4.1 1.75M550.781 763.94l5.556 1.048a2.03 2.03 0 0 1-.753 3.99l-5.585-1.057M294.455 718.928l2.046-1.18M296.6 720.028l-2.438-.311a2.027 2.027 0 0 1-1.752-2.267 2.02 2.02 0 0 1 2.263-1.749l1.997.253" style="fill:none;stroke:#00ff4a;stroke-width:.999997;stroke-linecap:round;stroke-linejoin:round;stroke-miterlimit:500;stroke-dasharray:none;stroke-opacity:1;visibility:visible"/><path d="m548.404 745.362-8.61-2.649M302.611 693.228l4.447 3.662" style="fill:none;stroke:#00ff4a;stroke-width:.666665;stroke-linecap:round;stroke-linejoin:round;stroke-miterlimit:500;stroke-dasharray:none;stroke-opacity:1;visibility:visible"/><path d="m553.773 763.18-.173 6.99M553.6 770.17l.173-6.99M390.732 743.948l-17.197-3.491M373.535 740.457l17.197 3.491" style="fill:none;stroke:#00ff4a;stroke-width:1.99999;stroke-linecap:round;stroke-linejoin:round;stroke-miterlimit:500;stroke-dasharray:none;stroke-opacity:1;visibility:visible"/><path d="m549.105 775.905 5.907-10.192M552.04 774.508l-1.128-7.045M298.358 725.201l-1.758-5.173M298.358 725.201l-1.688-9.247" style="fill:none;stroke:#00ff4a;stroke-width:.999997;stroke-linecap:round;stroke-linejoin:round;stroke-miterlimit:500;stroke-dasharray:none;stroke-opacity:1;visibility:visible"/><path d="m478.752 623.327-5.385 2.137M720.362 665.857l-136.938-24.105M579.18 641.004l-100.428-17.677M474.696 653.144l-.026-.007-.217-.085-.193-.155-.17-.22-.143-.281-.103-.33-.067-.366-.025-.401" style="fill:none;stroke:#9500ff;stroke-width:1.99999;stroke-linecap:round;stroke-linejoin:round;stroke-miterlimit:500;stroke-dasharray:none;stroke-opacity:1;visibility:visible"/><path d="m717.705 670.192-.155.098-.152.146-.146.188-.132.232-.12.261-.1.283-.074.3-.053.306-.027.302.004.292.027.268.053.237.078.205.1.16.121.11.135.06.144.01.152-.048.154-.1.152-.144.147-.188.132-.23.117-.265.102-.281.076-.3.052-.304.026-.304-.002-.289-.027-.267-.055-.24-.077-.202-.1-.16-.12-.11-.135-.065-.146-.007-.151.046M486.233 625.4l.508.119.367.149.202.17.02.181-.164.175-.331.154-.482.125-.59.087-.658.04-.677-.007-.641-.053-.564-.101-.44-.135-.29-.164-.109-.176.072-.179.25-.165.414-.141.537-.107.631-.064.672-.019.664.032.61.079M709.513 664.734l-.655-.084-.702-.037-.698.019-.64.07-.538.118-.395.154-.22.18-.03.191.161.195.34.174.495.15.614.108.684.06.708.008.677-.044.596-.096.467-.136.312-.168.127-.19-.067-.196-.256-.185-.421-.163-.56-.128" style="fill:none;stroke:#9500ff;stroke-width:.666665;stroke-linecap:round;stroke-linejoin:round;stroke-miterlimit:500;stroke-dasharray:none;stroke-opacity:1;visibility:visible"/><path d="m720.362 665.857-.782 18.467M717.87 695.592l.22-.139.216-.212.208-.271.19-.329.17-.371.139-.406.107-.426.076-.436.036-.43M717.87 695.592l-2.525 1.204" style="fill:none;stroke:#9500ff;stroke-width:1.99999;stroke-linecap:round;stroke-linejoin:round;stroke-miterlimit:500;stroke-dasharray:none;stroke-opacity:1;visibility:visible"/><path d="m717.078 685.033-.221.14-.217.21-.207.274-.193.327-.166.372-.141.408-.11.428-.073.437-.037.431.001.41.04.383.076.339.112.288.143.226.172.156.192.084.21.008.214-.064M717.905 685.281l-.039-.061-.17-.156-.19-.088-.211-.007-.215.064M714.184 694.972l.002.41.04.382.078.338.112.288.144.224.169.156.191.083.209.01.217-.068M720.362 665.857l-5.058 2.339" style="fill:none;stroke:#9500ff;stroke-width:.666665;stroke-linecap:round;stroke-linejoin:round;stroke-miterlimit:500;stroke-dasharray:none;stroke-opacity:1;visibility:visible"/><path d="m473.752 651.3-.387-25.836" style="fill:none;stroke:#9500ff;stroke-width:1.99999;stroke-linecap:round;stroke-linejoin:round;stroke-miterlimit:500;stroke-dasharray:none;stroke-opacity:1;visibility:visible"/><path d="m715.305 668.196-132.413-23.387M579.324 644.179l-105.959-18.715M715.305 668.196l-1.121 26.776" style="fill:none;stroke:#9500ff;stroke-width:.666665;stroke-linecap:round;stroke-linejoin:round;stroke-miterlimit:500;stroke-dasharray:none;stroke-opacity:1;visibility:visible"/><path d="m474.696 653.144 65.228 11.868M588.652 673.877l126.296 22.983" style="fill:none;stroke:#9500ff;stroke-width:1.99999;stroke-linecap:round;stroke-linejoin:round;stroke-miterlimit:500;stroke-dasharray:none;stroke-opacity:1;visibility:visible"/><path d="m717.064 685.498 5.556 1.048a2.03 2.03 0 0 1-.754 3.991l-5.585-1.057" style="fill:none;stroke:#9500ff;stroke-width:.999997;stroke-linecap:round;stroke-linejoin:round;stroke-miterlimit:500;stroke-dasharray:none;stroke-opacity:1;visibility:visible"/><path d="m721.294 687.27-4.1 1.752" style="fill:none;stroke:#9500ff;stroke-width:.666665;stroke-linecap:round;stroke-linejoin:round;stroke-miterlimit:500;stroke-dasharray:none;stroke-opacity:1;visibility:visible"/><path d="m470.559 647.301 2.045-1.18M472.701 648.401l-2.436-.31a2.025 2.025 0 0 1-1.754-2.266 2.02 2.02 0 0 1 2.264-1.75l1.997.254" style="fill:none;stroke:#9500ff;stroke-width:.999997;stroke-linecap:round;stroke-linejoin:round;stroke-miterlimit:500;stroke-dasharray:none;stroke-opacity:1;visibility:visible"/><path d="m579.18 641.004 4.244.748M583.424 641.752l-4.244-.748" style="fill:none;stroke:#9500ff;stroke-width:1.99999;stroke-linecap:round;stroke-linejoin:round;stroke-miterlimit:500;stroke-dasharray:none;stroke-opacity:1;visibility:visible"/><path d="m716.873 689.89.832-19.698M478.752 623.327l7.482 2.073M715.305 668.196l-5.793-3.462" style="fill:none;stroke:#9500ff;stroke-width:.666665;stroke-linecap:round;stroke-linejoin:round;stroke-miterlimit:500;stroke-dasharray:none;stroke-opacity:1;visibility:visible"/><path d="m719.232 692.572.348-8.248M714.184 694.972l5.048-2.4" style="fill:none;stroke:#9500ff;stroke-width:1.99999;stroke-linecap:round;stroke-linejoin:round;stroke-miterlimit:500;stroke-dasharray:none;stroke-opacity:1;visibility:visible"/><path d="m579.324 644.179 3.568.63M582.892 644.809l-3.568-.63M715.345 696.796l5.949-9.526" style="fill:none;stroke:#9500ff;stroke-width:.666665;stroke-linecap:round;stroke-linejoin:round;stroke-miterlimit:500;stroke-dasharray:none;stroke-opacity:1;visibility:visible"/><path d="m474.696 653.144-1.995-4.743M474.696 653.144l-1.924-8.815" style="fill:none;stroke:#9500ff;stroke-width:.999997;stroke-linecap:round;stroke-linejoin:round;stroke-miterlimit:500;stroke-dasharray:none;stroke-opacity:1;visibility:visible"/></svg>