<svg xmlns="http://www.w3.org/2000/svg" baseProfile="full" height="1122.52" preserveAspectRatio="xMinYMin meet" style="width:912px;height:1246px" width="793.701" xml:space="preserve"><path d="m177.033 956.104-.407-11.532M177.434 967.427l-.29-8.232M177.434 967.427l-11.795 5.825M156.727 628.529l-10.188-1.82M137.97 629.448l8.57-2.74" style="fill:none;stroke:red;stroke-width:1.99999;stroke-linecap:round;stroke-linejoin:round;stroke-miterlimit:500;stroke-dasharray:none;stroke-opacity:1;visibility:visible" visibility="hidden"/><path d="m176.626 944.572-11.839 5.71" style="fill:none;stroke:red;stroke-width:.999997;stroke-linecap:round;stroke-linejoin:round;stroke-miterlimit:500;stroke-dasharray:none;stroke-opacity:1;visibility:visible" visibility="hidden"/><path d="m176.626 944.572-.17-4.504M156.727 628.529l19.73 311.538" style="fill:none;stroke:red;stroke-width:1.99999;stroke-linecap:round;stroke-linejoin:round;stroke-miterlimit:500;stroke-dasharray:none;stroke-opacity:1;visibility:visible" visibility="hidden"/><path d="m156.727 628.529-8.552 2.753M156.35 696.127l.144-.032.14.004.136.048.124.08.108.116.092.147.07.172.047.197.024.21-.001.22-.027.22-.05.215-.072.207-.095.188-.11.165-.126.138-.135.105-.141.07-.144.031-.143-.008-.134-.044-.123-.081-.11-.117-.091-.146-.071-.173-.047-.196-.024-.208.002-.221.026-.22.05-.216.073-.206.093-.188.112-.166.126-.136.136-.106.141-.069M157.085 710.39l.201-.1.194-.15.178-.197.159-.238.133-.267.104-.295.072-.309.038-.315.002-.312-.033-.297-.07-.277-.1-.247-.129-.21-.156-.162-.176-.117-.192-.063-.201-.008-.205.047-.203.1-.193.15-.179.198-.16.234-.132.271-.104.295-.072.308-.037.314-.003.312.033.3.068.276.102.247.129.21.156.163.177.116.192.062.202.008.205-.047M148.175 631.283l-10.205-1.835M148.175 631.283l16.612 318.998" style="fill:none;stroke:red;stroke-width:.999997;stroke-linecap:round;stroke-linejoin:round;stroke-miterlimit:500;stroke-dasharray:none;stroke-opacity:1;visibility:visible" visibility="hidden"/><path d="M151.229 969.287 137.97 629.449M165.639 973.253l-14.41-3.967" style="fill:none;stroke:red;stroke-width:1.99999;stroke-linecap:round;stroke-linejoin:round;stroke-miterlimit:500;stroke-dasharray:none;stroke-opacity:1;visibility:visible" visibility="hidden"/><path d="m165.639 973.253-.85-22.972" style="fill:none;stroke:red;stroke-width:.999997;stroke-linecap:round;stroke-linejoin:round;stroke-miterlimit:500;stroke-dasharray:none;stroke-opacity:1;visibility:visible" visibility="hidden"/><path d="m177.143 959.195-.11-3.091M177.033 956.104l.11 3.091" style="fill:none;stroke:red;stroke-width:1.99999;stroke-linecap:round;stroke-linejoin:round;stroke-miterlimit:500;stroke-dasharray:none;stroke-opacity:1;visibility:visible" visibility="hidden"/><path d="m157.085 710.39-.735-14.263M157.085 710.39l-.735-14.263M156.35 696.127l.735 14.263M156.35 696.127l.735 14.263" style="fill:none;stroke:red;stroke-width:.999997;stroke-linecap:round;stroke-linejoin:round;stroke-miterlimit:500;stroke-dasharray:none;stroke-opacity:1;visibility:visible" visibility="hidden"/><path d="m303.428 989.4 3.163.864M300.053 996.653l.09-.028.305-.047h.321l.29.05M301.06 996.628l.037.01M296.975 997.537l-.027-.01-.02-.013-.016-.01-.009-.016v-.01M304.766 997.95l.093-.028.304-.047h.322l.29.048M305.775 997.925l.039.013M300.269 995.094l1.28-4.601M305.196 999.713l3.661-2.024M308.857 997.69l-.01-.507M296.966 997.029l.01.508M296.975 997.537l7.964 2.195M304.939 999.732l-.008-.508M305.196 999.713l-.023.012-.03.008-.032.008-.035.001-.036.002-.036-.002-.035-.001-.03-.008M305.188 999.203l.008.51" style="fill:none;stroke:#00ff4a;stroke-width:.999997;stroke-linecap:round;stroke-linejoin:round;stroke-miterlimit:500;stroke-dasharray:none;stroke-opacity:1;visibility:visible"/><path d="m301.05 996.12.216.09.107.118-.015.128-.137.117-.24.091-.303.047h-.323l-.29-.05-.216-.09-.108-.118.016-.128.138-.117.238-.088.304-.05h.322l.291.05M305.766 997.418l.216.09.11.118-.015.13-.138.115-.24.09-.302.049h-.323l-.29-.05-.218-.09-.108-.119.015-.126.137-.118.239-.09.304-.048.322.001.291.048M300.269 995.094l-3.34 1.833M296.928 996.927l-.019.013-.012.014-.005.014.003.014.008.013.014.013.022.01.026.01M296.966 997.029l7.965 2.195M304.93 999.224l.03.007.034.004.036.001.036-.001.035-.004.033-.007.028-.008.025-.013M308.521 997.364l-3.333 1.84M300.269 995.094l8.252 2.27M302.466 990.56l.305.04M302.77 990.6l-.025.056-.035.047-.048.029-.052.012-.015-.003M302.77 990.6l.108-.35.13-.337.155-.32.174-.294.186-.263.202-.232.21-.192.216-.15M299.337 989.897l2.936.804M302.273 990.7l.05.003.051-.016.044-.038.034-.049.014-.04M303.116 989.024l-.103.172-.096.18-.092.184-.085.193-.079.198-.073.2-.064.204-.057.205M299.883 988.142l.379-.413.381-.338.37-.261.349-.172.313-.076.263.019M299.232 989.679l-.008.061.013.059.027.05.041.034.032.015M299.232 989.679l.059-.21.065-.203.072-.2.08-.196.085-.192.091-.186.097-.178.102-.171" style="fill:none;stroke:#00ff4a;stroke-width:.999997;stroke-linecap:round;stroke-linejoin:round;stroke-miterlimit:500;stroke-dasharray:none;stroke-opacity:1;visibility:visible"/><path d="m306.919 990.084-.193-.568-.247-.516-.297-.447-.336-.36-.367-.268-.384-.161-.388-.052-.379.055-.361.169-.33.27-.285.367-.236.451" style="fill:none;stroke:#00ff4a;stroke-width:.999997;stroke-linecap:round;stroke-linejoin:round;stroke-miterlimit:500;stroke-dasharray:none;stroke-opacity:1;visibility:visible"/><path d="m304.152 988.461.3-.136.313-.039.322.047.317.14.301.223.278.301.246.37.204.426.158.472M304.152 988.461l-1.036.563M306.59 990.265l1.932 7.099M308.847 997.183l-.325.181M306.919 990.084l1.928 7.099" style="fill:none;stroke:#00ff4a;stroke-width:.999997;stroke-linecap:round;stroke-linejoin:round;stroke-miterlimit:500;stroke-dasharray:none;stroke-opacity:1;visibility:visible"/><path d="m197.162 972.657.27 8.264M197.43 980.92l206.557 57.59" style="fill:none;stroke:#00ff4a;stroke-width:1.99999;stroke-linecap:round;stroke-linejoin:round;stroke-miterlimit:500;stroke-dasharray:none;stroke-opacity:1;visibility:visible"/><path d="m403.96 1029.841.028 8.67" style="fill:none;stroke:#00ff4a;stroke-width:.999997;stroke-linecap:round;stroke-linejoin:round;stroke-miterlimit:500;stroke-dasharray:none;stroke-opacity:1;visibility:visible"/><path d="m403.988 1038.51 137.769-83.346M541.758 955.164l.13-8.093" style="fill:none;stroke:#00ff4a;stroke-width:1.99999;stroke-linecap:round;stroke-linejoin:round;stroke-miterlimit:500;stroke-dasharray:none;stroke-opacity:1;visibility:visible"/><path d="m541.888 947.07-137.928 82.77" style="fill:none;stroke:#00ff4a;stroke-width:.999997;stroke-linecap:round;stroke-linejoin:round;stroke-miterlimit:500;stroke-dasharray:none;stroke-opacity:1;visibility:visible"/><path d="m517.716 941.13 24.172 5.94M221.952 960.042l-24.79 12.615" style="fill:none;stroke:#00ff4a;stroke-width:1.99999;stroke-linecap:round;stroke-linejoin:round;stroke-miterlimit:500;stroke-dasharray:none;stroke-opacity:1;visibility:visible"/><path d="m197.162 972.657 206.797 57.185M370.383 912.57l-.863.452M370.337 893.627l.005.655M353.605 909.077l15.915 3.945M366.453 907.875l-.032-.188-.092-.176-.135-.135-.158-.076-.158-.002-.132.069-.09.13-.028.173.033.189.09.175.134.136.159.074.158.003.132-.068.09-.132.029-.172M366.369 897.804l-.035-.19-.089-.173-.136-.136-.159-.076-.157-.004-.133.072-.09.131-.029.175.033.186.091.176.136.136.159.074.157.002.133-.069.09-.13.029-.174M369.366 894.125l.153 18.897" style="fill:none;stroke:#00ff4a;stroke-width:.999997;stroke-linecap:round;stroke-linejoin:round;stroke-miterlimit:500;stroke-dasharray:none;stroke-opacity:1;visibility:visible"/><path d="m353.411 890.249.027 2.533" style="fill:none;stroke:#00ff4a;stroke-width:1.99999;stroke-linecap:round;stroke-linejoin:round;stroke-miterlimit:500;stroke-dasharray:none;stroke-opacity:1;visibility:visible"/><path d="m491.335 942.455-.003-.001M387.356 917.444 490.4 942.992M370.346 913.227l-.15-18.901M370.346 913.227l5.59 1.387M491.332 942.453l-.932.539M490.4 942.992l.17-19.425M491.332 942.453l.176-19.417M504.517 926.42l.475.09.517.047h.53l.511-.042.467-.084.397-.124.306-.154.198-.178.079-.192-.04-.195-.164-.187-.275-.168-.368-.142-.449-.108-.499-.07-.525-.022-.521.02-.492.065-.435.104-.353.14-.256.167-.139.185-.021.196.101.19.219.178.326.157.411.127M358.482 890.97l.445.083.488.041.51.003.498-.042.463-.077.4-.115.315-.144.217-.166.105-.174-.012-.181-.129-.173-.239-.156-.334-.134-.416-.098-.47-.064-.501-.023-.505.019-.483.06-.433.097-.36.13-.27.154-.162.172-.047.181.068.178.185.165.29.144.377.12M430.103 908.354l.46.087.503.046h.518l.504-.041.464-.081.4-.12.31-.15.209-.169.093-.184-.026-.188-.146-.179-.256-.161-.352-.14-.43-.103-.484-.066-.512-.023-.514.02-.488.061-.434.1-.358.136-.264.16-.15.18-.034.184.084.186.203.172.304.152.396.121M491.508 923.035l.883.215M492.39 923.25l-.936.53" style="fill:none;stroke:#00ff4a;stroke-width:.999997;stroke-linecap:round;stroke-linejoin:round;stroke-miterlimit:500;stroke-dasharray:none;stroke-opacity:1;visibility:visible"/><path d="m403.358 899.425-46.052-11.15M512.325 925.809l-89.784-21.739M357.306 888.274l-3.895 1.975" style="fill:none;stroke:#00ff4a;stroke-width:1.99999;stroke-linecap:round;stroke-linejoin:round;stroke-miterlimit:500;stroke-dasharray:none;stroke-opacity:1;visibility:visible"/><path d="m369.366 894.125-15.955-3.876M370.337 893.627l-.972.499M371.167 893.826l-.97.5M371.167 893.826l-.83-.199M400.417 901.667l-30.22-7.341M490.57 923.567l-72.261-17.553M491.508 923.035l-.937.53" style="fill:none;stroke:#00ff4a;stroke-width:.999997;stroke-linecap:round;stroke-linejoin:round;stroke-miterlimit:500;stroke-dasharray:none;stroke-opacity:1;visibility:visible"/><path d="m512.25 932.19.076-6.38" style="fill:none;stroke:#00ff4a;stroke-width:1.99999;stroke-linecap:round;stroke-linejoin:round;stroke-miterlimit:500;stroke-dasharray:none;stroke-opacity:1;visibility:visible"/><path d="m512.325 925.809-3.712 2.141M494.655 929.116l.035-.18.098-.133.144-.071.171.005.168.076.143.143.094.183.032.192-.034.178-.1.135-.146.07-.168-.006-.17-.076-.142-.143-.093-.178-.032-.195M491.454 923.78l-.173 19.432M491.281 943.213l1.423.353M508.547 933.67l.067-5.719M508.613 927.95l-17.159-4.17M494.559 939.487l.032-.179.097-.133.146-.07.17.005.168.077.142.141.096.183.029.193-.032.178-.099.133-.144.07-.17-.005-.168-.077-.143-.143-.095-.18-.029-.193M247.477 956.769l.019.695M372.896 991.222l-.008-.805M234.76 953.96l-.464-.095-.516-.049-.541-.003-.538.047-.504.09-.444.131-.361.163-.256.188-.139.203-.014.204.112.2.23.178.34.154.428.114.495.072.533.027.543-.023.525-.069.478-.112.405-.147.31-.178.2-.195.074-.207-.05-.202-.173-.191-.286-.165-.387-.135M385.93 994.546l-.499-.103-.545-.053-.565-.001-.552.048-.512.097-.442.143-.35.174-.236.206-.112.22.016.224.149.213.27.195.378.166.464.123.527.081.56.026.564-.023.536-.073.48-.12.398-.163.295-.19.176-.215.047-.223-.086-.22-.21-.205-.327-.183-.424-.144M308.799 973.837l-.481-.097-.531-.052-.552-.003-.545.047-.508.094-.443.138-.356.169-.247.195-.126.21v.215l.13.207.25.185.358.159.444.12.511.076.547.028.553-.023.53-.072.48-.116.402-.156.304-.184.187-.204.062-.213-.068-.212-.19-.198-.307-.174-.404-.139M247.227 957.567l-.856-.23M246.37 957.337l1.107-.57" style="fill:none;stroke:#00ff4a;stroke-width:.999997;stroke-linecap:round;stroke-linejoin:round;stroke-miterlimit:500;stroke-dasharray:none;stroke-opacity:1;visibility:visible"/><path d="m231.01 952.35 16.468 4.419M226.557 954.607l4.452-2.257M373.805 990.663l17.799 4.777" style="fill:none;stroke:#00ff4a;stroke-width:1.99999;stroke-linecap:round;stroke-linejoin:round;stroke-miterlimit:500;stroke-dasharray:none;stroke-opacity:1;visibility:visible"/><path d="m372.736 991.271 1.07-.608M371.818 991.026l1.07-.61M371.818 991.026l.917.245" style="fill:none;stroke:#00ff4a;stroke-width:.999997;stroke-linecap:round;stroke-linejoin:round;stroke-miterlimit:500;stroke-dasharray:none;stroke-opacity:1;visibility:visible"/><path d="m248.333 956.998 124.554 33.419" style="fill:none;stroke:#00ff4a;stroke-width:1.99999;stroke-linecap:round;stroke-linejoin:round;stroke-miterlimit:500;stroke-dasharray:none;stroke-opacity:1;visibility:visible"/><path d="m247.227 957.567 1.107-.57" style="fill:none;stroke:#00ff4a;stroke-width:.999997;stroke-linecap:round;stroke-linejoin:round;stroke-miterlimit:500;stroke-dasharray:none;stroke-opacity:1;visibility:visible"/><path d="m391.603 995.44.104 20.664" style="fill:none;stroke:#00ff4a;stroke-width:1.99999;stroke-linecap:round;stroke-linejoin:round;stroke-miterlimit:500;stroke-dasharray:none;stroke-opacity:1;visibility:visible"/><path d="m387.336 997.901 4.267-2.461M387.453 1018.607l4.253-2.503M387.336 997.901l.117 20.705M226.557 954.607l160.778 43.295" style="fill:none;stroke:#00ff4a;stroke-width:.999997;stroke-linecap:round;stroke-linejoin:round;stroke-miterlimit:500;stroke-dasharray:none;stroke-opacity:1;visibility:visible"/><path d="m227.12 974.555-.563-19.948" style="fill:none;stroke:#00ff4a;stroke-width:1.99999;stroke-linecap:round;stroke-linejoin:round;stroke-miterlimit:500;stroke-dasharray:none;stroke-opacity:1;visibility:visible"/><path d="m300.442 994.7-73.321-20.145M387.453 1018.607l-78.61-21.597M500.177 938.227l-.003.467M415.857 987.662l-.001-.527" style="fill:none;stroke:#00ff4a;stroke-width:.999997;stroke-linecap:round;stroke-linejoin:round;stroke-miterlimit:500;stroke-dasharray:none;stroke-opacity:1;visibility:visible"/><path d="m403.128 1015.209-.072-20.648" style="fill:none;stroke:#00ff4a;stroke-width:1.99999;stroke-linecap:round;stroke-linejoin:round;stroke-miterlimit:500;stroke-dasharray:none;stroke-opacity:1;visibility:visible"/><path d="m409.3 1016.893-6.172-1.685M407.512 992.89l-.261.196-.139.219-.01.221.12.217.247.2.356.172.446.136.516.091.554.04.564-.01.544-.062.494-.11.417-.15.317-.185.2-.208.075-.222-.057-.221-.187-.21-.303-.189-.404-.152-.484-.113-.537-.068-.561-.015-.556.036-.523.086-.459.132-.369.169M509.125 933.901l-.23.177-.111.191.013.197.135.194.249.178.352.154.435.118.494.083.527.033.53-.008.506-.054.459-.098.377-.134.283-.164.17-.184.048-.199-.074-.195-.195-.188-.304-.164-.395-.138-.468-.102-.512-.058-.533-.012-.52.032-.485.076-.42.116-.331.149M459.813 962.529l-.245.185-.122.203v.21l.13.207.246.186.354.162.442.128.503.086.543.038.548-.01.524-.059.473-.103.397-.142.298-.174.186-.196.059-.208-.067-.208-.188-.198-.305-.178-.4-.144-.476-.106-.525-.062-.544-.016-.54.035-.502.08-.438.124-.351.16M417.396 987.542l-.625.361M416.77 987.904l-1.539-.407M403.056 994.56l12.176-7.063M409.246 996.214l-6.19-1.653" style="fill:none;stroke:#00ff4a;stroke-width:.999997;stroke-linecap:round;stroke-linejoin:round;stroke-miterlimit:500;stroke-dasharray:none;stroke-opacity:1;visibility:visible"/><path d="m517.05 933.37-5.981-1.459" style="fill:none;stroke:#00ff4a;stroke-width:1.99999;stroke-linecap:round;stroke-linejoin:round;stroke-miterlimit:500;stroke-dasharray:none;stroke-opacity:1;visibility:visible"/><path d="m500.177 938.227 10.89-6.315M501.677 938.597l-1.5-.37M501.112 938.925l-1.5-.368M501.112 938.925l.565-.328" style="fill:none;stroke:#00ff4a;stroke-width:.999997;stroke-linecap:round;stroke-linejoin:round;stroke-miterlimit:500;stroke-dasharray:none;stroke-opacity:1;visibility:visible"/><path d="m415.855 987.136 83.756-48.58" style="fill:none;stroke:#00ff4a;stroke-width:1.99999;stroke-linecap:round;stroke-linejoin:round;stroke-miterlimit:500;stroke-dasharray:none;stroke-opacity:1;visibility:visible"/><path d="m417.396 987.542-1.54-.407" style="fill:none;stroke:#00ff4a;stroke-width:.999997;stroke-linecap:round;stroke-linejoin:round;stroke-miterlimit:500;stroke-dasharray:none;stroke-opacity:1;visibility:visible"/><path d="m517.05 933.37-.25 19.601" style="fill:none;stroke:#00ff4a;stroke-width:1.99999;stroke-linecap:round;stroke-linejoin:round;stroke-miterlimit:500;stroke-dasharray:none;stroke-opacity:1;visibility:visible"/><path d="M409.246 996.214 517.05 933.37M409.3 1016.893l-.053-20.68M516.8 952.972l-107.5 63.921M331.308 915.548l.573.144M330.257 896.413l.007.45M331.88 915.693l11.43-5.888M333.87 900.07l.021-.193.063-.186.095-.152.114-.093.114-.021.097.054.067.119.025.17-.02.194-.064.188-.095.152-.113.09-.115.025-.097-.055-.067-.12-.025-.172M331.628 896.75l.252 18.943" style="fill:none;stroke:#00ff4a;stroke-width:.999997;stroke-linecap:round;stroke-linejoin:round;stroke-miterlimit:500;stroke-dasharray:none;stroke-opacity:1;visibility:visible"/><path d="m343.117 893.33-.028-2.367" style="fill:none;stroke:#00ff4a;stroke-width:1.99999;stroke-linecap:round;stroke-linejoin:round;stroke-miterlimit:500;stroke-dasharray:none;stroke-opacity:1;visibility:visible"/><path d="m334.001 910.163.021-.192.063-.187.095-.15.112-.095.114-.023.098.055.065.12.025.168-.02.193-.061.186-.095.15-.113.096-.115.023-.097-.053-.065-.122-.027-.169M241.7 941.586l-.012-.505M250.632 957.55l80.652-41.552M331.285 915.998l-.255-18.947M243.456 955.64l-.367-14.19M338.984 892.32l.248-.16.136-.177.024-.18-.097-.176-.21-.163-.309-.139-.393-.108-.458-.073-.497-.035-.508.011-.492.048-.45.088-.386.123-.297.15-.195.17-.081.18.037.18.152.169.261.15.354.129.429.09.481.054.506.013.505-.03.476-.07.42-.107.344-.137M232.233 946.175l.281-.181.168-.194.044-.204-.08-.197-.201-.181-.31-.158-.402-.122-.476-.08-.52-.038-.537.011-.528.055-.488.098-.422.139-.333.167-.225.189-.11.201.018.199.14.193.257.17.36.141.443.101.501.06.533.015.538-.032.512-.08.457-.119.38-.153M287.108 918.49l.264-.17.152-.186.032-.19-.088-.186-.205-.172-.311-.148-.399-.115-.465-.078-.508-.034-.524.008-.508.054-.468.093-.403.13-.314.158-.211.179-.095.19.028.191.148.18.259.161.357.13.435.1.49.057.52.01.522-.03.492-.075.439-.113.361-.144M329.66 896.714l.597-.301M330.257 896.413l1.37.337M343.09 890.964l-11.461 5.787" style="fill:none;stroke:#00ff4a;stroke-width:.999997;stroke-linecap:round;stroke-linejoin:round;stroke-miterlimit:500;stroke-dasharray:none;stroke-opacity:1;visibility:visible"/><path d="m337.63 889.633-113.566 57.085M337.63 889.633l5.46 1.33" style="fill:none;stroke:#00ff4a;stroke-width:1.99999;stroke-linecap:round;stroke-linejoin:round;stroke-miterlimit:500;stroke-dasharray:none;stroke-opacity:1;visibility:visible"/><path d="m241.033 941.412 1.401.37M241.687 941.08l1.401.37M241.687 941.08l-.655.33M331.03 897.051l-87.941 44.4M329.66 896.714l1.37.337M224.064 946.72l5.619 1.503" style="fill:none;stroke:#00ff4a;stroke-width:.999997;stroke-linecap:round;stroke-linejoin:round;stroke-miterlimit:500;stroke-dasharray:none;stroke-opacity:1;visibility:visible"/><path d="m224.469 960.953.161 5.576M224.064 946.72l.248 8.71" style="fill:none;stroke:#00ff4a;stroke-width:1.99999;stroke-linecap:round;stroke-linejoin:round;stroke-miterlimit:500;stroke-dasharray:none;stroke-opacity:1;visibility:visible"/><path d="m224.63 966.529 2.752.752M240.15 947.616l-.03-.179-.075-.124-.11-.053-.126.027-.126.102-.102.16-.068.199-.02.199.03.178.076.124.11.054.125-.027.125-.103.104-.16.067-.196.02-.201M242.434 941.783l-12.752 6.439M242.434 941.783l.355 13.681M229.682 948.222l.139 4.964M296.893 996.97l.01.51M302.292 990.703l.305.039M305.083 987.758l-3.145-.857M332.183 899.183l4.245-2.77 2.995-1.786 17.69-1.075 10.183 2.28M349.038 908.818l-10.69.685-5.226 3.08M368.1 910.306l-8.844-2.144-6.937.445M349.647 902.19c.388-.461.628-1.097.628-1.801 0-1.407-.96-2.547-2.145-2.547-1.182 0-2.142 1.14-2.142 2.547 0 1.406.96 2.548 2.142 2.548M357.914 905.213v-9.65M340.493 906.82v-10.855M392.41 999.386l9.987-.597M392.237 1013.999l10.55-1.037M395.064 1006.051c-.164 1.452.767 2.75 2.079 2.907 1.308.149 2.505-.906 2.668-2.36.164-1.452-.768-2.751-2.077-2.906-1.31-.15-2.507.904-2.67 2.359" style="fill:none;stroke:#00ff4a;stroke-width:.999997;stroke-linecap:round;stroke-linejoin:round;stroke-miterlimit:500;stroke-dasharray:none;stroke-opacity:1;visibility:visible"/><path d="m492.215 925.985 6.692 1.593 4.121 8.92M517.05 933.37l.666 7.76M226.557 954.607l-4.605 5.435" style="fill:none;stroke:#00ff4a;stroke-width:1.99999;stroke-linecap:round;stroke-linejoin:round;stroke-miterlimit:500;stroke-dasharray:none;stroke-opacity:1;visibility:visible"/><path d="m368.1 910.306-14.495-1.229" style="fill:none;stroke:#00ff4a;stroke-width:.999997;stroke-linecap:round;stroke-linejoin:round;stroke-miterlimit:500;stroke-dasharray:none;stroke-opacity:1;visibility:visible"/><path d="m357.914 895.564-4.476-2.782" style="fill:none;stroke:#00ff4a;stroke-width:1.99999;stroke-linecap:round;stroke-linejoin:round;stroke-miterlimit:500;stroke-dasharray:none;stroke-opacity:1;visibility:visible"/><path d="m375.935 914.614 11.421 2.83M387.356 917.444l-11.42-2.83M508.613 927.95l-4.096-1.53M511.069 931.911l-6.552-5.491M367.296 895.832l-8.814-4.862M357.306 888.274l1.176 2.696M422.541 904.07l7.562 4.284" style="fill:none;stroke:#00ff4a;stroke-width:.999997;stroke-linecap:round;stroke-linejoin:round;stroke-miterlimit:500;stroke-dasharray:none;stroke-opacity:1;visibility:visible"/><path d="m418.309 906.014-14.951-6.589M430.103 908.354l-7.562-4.284" style="fill:none;stroke:#00ff4a;stroke-width:1.99999;stroke-linecap:round;stroke-linejoin:round;stroke-miterlimit:500;stroke-dasharray:none;stroke-opacity:1;visibility:visible"/><path d="m418.309 906.014-17.892-4.347M430.103 908.354l-11.794-2.34" style="fill:none;stroke:#00ff4a;stroke-width:.999997;stroke-linecap:round;stroke-linejoin:round;stroke-miterlimit:500;stroke-dasharray:none;stroke-opacity:1;visibility:visible"/><path d="m517.05 933.37-4.8-1.18" style="fill:none;stroke:#00ff4a;stroke-width:1.99999;stroke-linecap:round;stroke-linejoin:round;stroke-miterlimit:500;stroke-dasharray:none;stroke-opacity:1;visibility:visible"/><path d="m499.612 938.557-6.908 5.01M231.01 952.35l3.75 1.61M229.683 948.223l5.077 5.737M373.805 990.663l12.125 3.883M387.335 997.902l-1.405-3.356M301.938 986.9l6.861-13.063M305.083 987.758l3.716-13.921M333.122 912.583l10.187-2.778" style="fill:none;stroke:#00ff4a;stroke-width:.999997;stroke-linecap:round;stroke-linejoin:round;stroke-miterlimit:500;stroke-dasharray:none;stroke-opacity:1;visibility:visible"/><path d="m340.493 895.965 2.624-2.635" style="fill:none;stroke:#00ff4a;stroke-width:1.99999;stroke-linecap:round;stroke-linejoin:round;stroke-miterlimit:500;stroke-dasharray:none;stroke-opacity:1;visibility:visible"/><path d="m248.334 956.998 2.298.552M229.682 948.222l2.551-2.047" style="fill:none;stroke:#00ff4a;stroke-width:.999997;stroke-linecap:round;stroke-linejoin:round;stroke-miterlimit:500;stroke-dasharray:none;stroke-opacity:1;visibility:visible"/><path d="m224.312 955.43.157 5.523M226.557 954.607l-2.245.822" style="fill:none;stroke:#00ff4a;stroke-width:1.99999;stroke-linecap:round;stroke-linejoin:round;stroke-miterlimit:500;stroke-dasharray:none;stroke-opacity:1;visibility:visible"/><path d="m227.12 974.555.262-7.274M226.557 954.607l3.264-1.421M303.428 989.4l1.655-1.642M370.197 894.326l-2.9 1.506M352.319 908.607l-3.281.211M331.284 915.998l1.838-3.415M370.346 913.227l-2.246-2.921M349.038 908.818l3.28-.21M352.319 908.607l-4.189-5.67M353.411 890.249l4.503 14.964M353.438 892.782l4.476 2.782M331.628 896.75l8.865 10.07M343.117 893.33l-2.624 2.635M402.786 1012.962l-10.376-13.576M392.237 1013.999l10.16-15.21M402.397 998.789l-10.16 15.21M392.41 999.386l10.376 13.576" style="fill:none;stroke:#00ff4a;stroke-width:.999997;stroke-linecap:round;stroke-linejoin:round;stroke-miterlimit:500;stroke-dasharray:none;stroke-opacity:1;visibility:visible"/><path d="m492.39 923.25-.175 2.735" style="fill:none;stroke:#00ff4a;stroke-width:1.99999;stroke-linecap:round;stroke-linejoin:round;stroke-miterlimit:500;stroke-dasharray:none;stroke-opacity:1;visibility:visible"/><path d="m351.08 876.05-.38-21.615M344.415 879.343l6.664-3.293M326.164 856.091l.455 21.648M339.275 880.887l-12.656-3.147" style="fill:none;stroke:#9500ff;stroke-width:1.99999;stroke-linecap:round;stroke-linejoin:round;stroke-miterlimit:500;stroke-dasharray:none;stroke-opacity:1;visibility:visible" visibility="hidden"/><path d="m340.507 870.412-.208-10.959M340.298 859.453l10.401-5.019" style="fill:none;stroke:#9500ff;stroke-width:.999997;stroke-linecap:round;stroke-linejoin:round;stroke-miterlimit:500;stroke-dasharray:none;stroke-opacity:1;visibility:visible" visibility="hidden"/><path d="m350.7 854.435-9.919-299.111-9.874-1.583-7.466 2.385" style="fill:none;stroke:#9500ff;stroke-width:1.99999;stroke-linecap:round;stroke-linejoin:round;stroke-miterlimit:500;stroke-dasharray:none;stroke-opacity:1;visibility:visible" visibility="hidden"/><path d="m333.333 557.72 7.447-2.399M340.298 859.453l-.197-4.228M338.751 619.003l-.124.06-.12.096-.11.128-.1.15-.082.175-.067.191-.045.203-.027.208-.005.204.019.197.038.185.06.164.076.14.094.112.106.079.118.044.122.01.126-.026.122-.064.119-.095.112-.125.096-.153.087-.175.065-.19.047-.203.025-.206.003-.205-.015-.197-.041-.183-.059-.165-.077-.14-.092-.112-.107-.079-.116-.047-.123-.009-.125.028M339.203 632.41l-.179.039-.176-.012-.165-.063-.15-.11-.134-.16-.112-.2-.083-.233-.057-.261-.024-.281.005-.295.038-.295.065-.288.096-.273.12-.25.14-.218.157-.181.171-.135.177-.09.178-.04.174.013.167.065.15.112.134.159.112.197.083.235.054.26.027.281-.007.295-.038.294-.064.29-.095.273-.12.247-.14.218-.159.18-.169.138-.176.089M333.333 557.72l-9.892-1.595M333.333 557.72l6.767 297.503" style="fill:none;stroke:#9500ff;stroke-width:.999997;stroke-linecap:round;stroke-linejoin:round;stroke-miterlimit:500;stroke-dasharray:none;stroke-opacity:1;visibility:visible" visibility="hidden"/><path d="m326.164 856.091-2.723-299.965" style="fill:none;stroke:#9500ff;stroke-width:1.99999;stroke-linecap:round;stroke-linejoin:round;stroke-miterlimit:500;stroke-dasharray:none;stroke-opacity:1;visibility:visible" visibility="hidden"/><path d="m340.066 859.47-13.903-3.377M340.1 855.225l-.033 4.244M340.1 855.225l.407 15.187M323.441 556.126l17.339-.805M339.203 632.41l-.452-13.407M339.203 632.41l-.452-13.407M338.751 619.003l.452 13.407M338.751 619.003l.452 13.407" style="fill:none;stroke:#9500ff;stroke-width:.999997;stroke-linecap:round;stroke-linejoin:round;stroke-miterlimit:500;stroke-dasharray:none;stroke-opacity:1;visibility:visible" visibility="hidden"/><path d="m344.415 879.343-5.431 12.977M343.117 893.33l6.53 8.86" style="fill:none;stroke:#00ff4a;stroke-width:.999997;stroke-linecap:round;stroke-linejoin:round;stroke-miterlimit:500;stroke-dasharray:none;stroke-opacity:1;visibility:visible"/><path d="m343.09 890.964 1.325-11.621M337.63 889.633l1.645-8.746" style="fill:none;stroke:#9500ff;stroke-width:1.99999;stroke-linecap:round;stroke-linejoin:round;stroke-miterlimit:500;stroke-dasharray:none;stroke-opacity:1;visibility:visible" visibility="hidden"/></svg>