<svg xmlns="http://www.w3.org/2000/svg" baseProfile="full" height="1122.52" preserveAspectRatio="xMinYMin meet" style="width:919px;height:1159px" width="793.701" xml:space="preserve"><path d="m660.05 667.553.01.23.03.225.064.208.095.184.113.152.128.121.153.087.167.048.161.016.16-.023.159-.05.153-.078.143-.121.145-.144.135-.176.11-.192.1-.192.078-.2.08-.207.056-.224.057-.233.04-.224.024-.216.016-.208.007-.184-.007-.183-.024-.17-.032-.151-.05-.128-.055-.104-.064-.08-.08-.056-.103-.04-.12-.016-.137.025-.133.039-.155.07-.153.098-.167.121-.161.143-.094.088-.089.096-.167.201-.153.215-.135.232-.121.249-.047.127-.049.128-.032.128-.024.129-.032.24M674.187 463.127l-.032.185-.072.176-.121.175-.151.177-.201.167-.238.161-.281.152-.313.143-.35.136-.384.128-.416.112-.441.105-.472.095-.497.08-.518.072-.538.057-.552.039-.566.033-.577.015h-.585l-.582-.008-.593-.024-.585-.039-.583-.048-.567-.065-.561-.08-.544-.088-.528-.104-.512-.112-.48-.12-.465-.136-.423-.135-.4-.152-.368-.161-.336-.159-.296-.168-.265-.177-.216-.183-.184-.176-.135-.185-.097-.192-.056-.183-.006-.185M567.7 649.56l-.21-.064-.2-.04h-.19l-.179.04-.149.072-.128.104-.113.144-.096.176-.063.192-.04.208-.027.232v.24l.016.256.042.264.065.264.077.256.088.232.107.208.119.2.134.192.154.168.168.136.176.119.177.081.175.056.19.032h.184l.195-.032.175-.064.16-.08.152-.112.129-.136.128-.168.103-.192.07-.216.043-.223.015-.225-.015-.239-.05-.248-.08-.249-.055-.13-.064-.134-.152-.256-.168-.224-.192-.224-.104-.104-.104-.096-.114-.087-.11-.08-.111-.073-.113-.072-.215-.104M575.922 709.72l.01.24.046.232.073.216.112.184.127.16.155.12.166.088.183.048.184.007.185-.023.176-.056.167-.096.17-.128.16-.16.142-.183.13-.209.103-.207.095-.208.083-.225.061-.24.056-.24.041-.239.024-.224.007-.217v-.2l-.016-.19-.03-.17-.04-.152-.057-.136-.072-.104-.08-.08-.105-.056-.117-.032-.139-.008-.15.024-.16.057-.167.071-.17.104-.184.136-.176.152-.104.096-.094.104-.186.216-.158.224-.146.248-.126.264-.05.136-.046.137-.032.127-.026.136-.025.256M564.316 816.24v.16l.016.176.023.176.04.176.049.176.063.184.08.175.089.168.096.169.103.16.113.152.119.145.136.143.145.136.15.12.169.12.152.096.169.088.165.07.17.066.168.048.176.04.168.024.176.016h.177l.175-.008.174-.024.178-.04.166-.048.17-.056.158-.072.154-.079.265-.169.232-.192.216-.224.173-.248.083-.128.072-.136.056-.144.047-.137.04-.143.024-.136.017-.144.005-.136-.014-.273-.026-.135-.03-.136-.048-.128-.056-.136-.138-.248-.166-.232-.2-.216-.223-.192-.257-.168-.143-.088-.155-.088-.158-.072-.17-.063-.166-.064-.168-.057-.175-.04-.168-.04-.168-.032-.17-.025-.166-.015-.168-.008h-.168l-.16.008-.168.015-.155.025-.173.04-.161.039-.152.056-.144.073-.128.07-.119.083-.123.095-.102.096-.098.12-.086.12-.072.136-.056.137-.056.151-.032.152-.026.161-.005.159M585.915 495l-.032.208-.072.208-.12.2-.16.199-.21.192-.246.184-.288.185-.328.168-.368.159-.4.153-.432.144-.465.127-.494.113-.522.103-.551.098-.56.07-.584.065-.6.04-.608.03-.616.018h-.615l-.625-.017-.625-.024-.607-.047-.61-.065-.59-.07-.584-.09-.56-.102-.537-.112-.512-.13-.488-.144-.456-.151-.431-.16-.39-.167-.354-.177-.321-.193-.279-.192-.232-.192-.193-.207-.15-.208-.112-.201-.057-.214-.025-.21M634.131 788.472l.136-.728.096-.737.056-.743.016-.736-.024-.744-.056-.736-.105-.744-.144-.737-.175-.735-.216-.737-.256-.727-.297-.728-.335-.727-.368-.722-.41-.712-.446-.711-.481-.705-.512-.695-.551-.696-.592-.681-.617-.679-.656-.665-.688-.664-.719-.648-.752-.639-.785-.633-.815-.616-.848-.608-.872-.599-.904-.585-.936-.567-.96-.561-.984-.552-1.016-.534-1.033-.522-1.063-.503M641.075 776.35l-.03-.775-.067-.768-.103-.777-.144-.767-.184-.769-.225-.767-.263-.768-.296-.76-.335-.76-.378-.753-.406-.752-.45-.744-.479-.736-.521-.736-.55-.728-.594-.719-.622-.713-.665-.704-.688-.696-.728-.687-.753-.672-.791-.673-.815-.655-.857-.649-.881-.64-.911-.63-.936-.609-.968-.608-.992-.592-1.024-.576-1.047-.568-1.072-.552-1.106-.537-1.119-.528" style="fill:none;stroke:red;stroke-width:.999997;stroke-linecap:round;stroke-linejoin:round;stroke-miterlimit:4;stroke-dasharray:none;stroke-opacity:1;visibility:visible"/><path d="m429.507 666.28 133.432 60.559" style="fill:none;stroke:red;stroke-width:.666665;stroke-linecap:round;stroke-linejoin:round;stroke-miterlimit:4;stroke-dasharray:none;stroke-opacity:1;visibility:visible"/><path d="m578.619 734.014 41.457 18.97M641.716 771.729l4.968-.697M641.788 779.472l.2-3.928M617.411 764.24l.89.416.86.433.858.439.84.448.832.456.808.465.801.479.775.488.759.496.753.503.73.513.711.52.688.528.671.536.657.552.639.552.623.567.6.57.585.583.559.592.544.6.521.608.503.617.482.623.454.632.434.64.406.632.384.641.361.639.336.656.312.664.296.663.264.682.247.678.217.68.079.281" style="fill:none;stroke:red;stroke-width:.999997;stroke-linecap:round;stroke-linejoin:round;stroke-miterlimit:4;stroke-dasharray:none;stroke-opacity:1;visibility:visible"/><path d="m542.772 793.063.888.441.912.431.928.425.95.407.96.408.978.401 1 .383 1.007.377 1.024.367 1.032.36 1.049.344 1.063.337 1.07.319 1.083.312 1.087.304 1.104.288 1.113.281 1.048.247M576.547 801.92l1.113.095 1.215.08 1.225.08 1.216.056 1.215.049 1.224.03 1.217.026 1.207.007h1.216l1.216-.015 1.208-.033 1.21-.039 1.206-.056 1.2-.073 1.195-.079 1.189-.096 1.185-.104 1.183-.12 1.168-.128 1.161-.145 1.152-.16 1.143-.168 1.136-.176 1.128-.192 1.119-.207 1.112-.216 1.098-.232 1.087-.24 1.072-.248 1.067-.265 1.046-.279 1.04-.28 1.016-.296 1.008-.313.992-.319.975-.33.961-.334.943-.352.928-.36.921-.37.895-.382.88-.393.865-.399.839-.41.824-.415.81-.424.782-.431.761-.441.75-.447.72-.464.714-.464.688-.472.662-.48.65-.49.622-.495.6-.504.578-.504.56-.52.534-.511.513-.528.487-.528.474-.528.439-.545.424-.542.4-.545.375-.561.354-.552.334-.559.306-.56.287-.57.257-.566.239-.568.208-.576.176-.528.163-.536.133-.53.112-.534.097-.536.079-.536.056-.537.032-.544M638.915 764.976l.319.512.353.593.319.591.305.592.28.6.248.608.239.6.209.608.185.607.159.617.144.607.103.576.089.577.064.567.047.584.025.577v.576l-.015.576M352.02 697.464l190.752 95.598" style="fill:none;stroke:red;stroke-width:1.99999;stroke-linecap:round;stroke-linejoin:round;stroke-miterlimit:4;stroke-dasharray:none;stroke-opacity:1;visibility:visible"/><path d="m343.068 690.889.032-.081.232-.512.241-.504.262-.504.281-.487.297-.49.319-.486.328-.473.353-.472.359-.455.424-.513.45-.504.46-.495.483-.488.503-.49.521-.47.535-.465.559-.456.569-.455.592-.441.6-.44.624-.423.624-.41.641-.406.656-.401.672-.392.688-.384.695-.375.72-.368.728-.36.737-.353.76-.344.767-.344.777-.328.791-.32.8-.311.816-.313.832-.296.84-.288.848-.288.864-.272.87-.263.882-.257.896-.247.895-.24.913-.233.912-.224.92-.216.921-.2.927-.19.936-.193.944-.177.944-.168.96-.152.961-.152.959-.144.975-.127.969-.121.975-.12.985-.104.976-.088.976-.088.985-.072.975-.071.984-.057.992-.048.984-.04.984-.032.992-.015.985-.017h.982l.984.008.984.017.977.023.976.04.968.041.967.056.969.064.96.072.96.08.961.087.95.104.944.104.937.12.93.128.927.13.918.142.913.152.904.168.896.168.886.184.888.184.872.2.866.208.857.208.847.225.84.23.825.242.807.247.81.256.783.264.783.272.766.28.754.288.745.304.735.305.71.312.707.319 135.216 62.384M578.25 746.048l39.161 18.192" style="fill:none;stroke:red;stroke-width:.999997;stroke-linecap:round;stroke-linejoin:round;stroke-miterlimit:4;stroke-dasharray:none;stroke-opacity:1;visibility:visible"/><path d="m651.54 603.425-.039-.05-.049-.031-.032-.024-.04-.007-.032-.01-.041.01M656.779 779.848l-.039.264-.072.264-.113.264-.143.248-.193.25-.215.231-.256.223-.297.216-.319.2-.353.183-.375.169-.41.152-.431.136-.456.12-.472.104-.488.08-.503.063-.521.049-.52.025h-.535l-.529-.017-.535-.032-.536-.056-.529-.07-.52-.098-.503-.112-.497-.128-.48-.152-.456-.16-.439-.176-.414-.2-.386-.201-.361-.224-.336-.231-.296-.241-.273-.247-.23-.256-.193-.264-.16-.264-.128-.273-.079-.271M674.187 463.127l-17.41 316.72M658.1 462.455l-7.123 141.008M649.988 623.095l-7.13 141.344M658.1 462.455l.016-.248.023-.255.033-.249.039-.248.048-.248.057-.248.063-.248.072-.239.08-.241.088-.24.088-.232.104-.23.11-.234.114-.224.12-.224.136-.217.137-.214.144-.209.144-.207.159-.201.16-.192.168-.19.176-.186.176-.175.184-.177.192-.168.2-.16.201-.16.207-.152.208-.144.214-.136.218-.127.225-.121.224-.12.23-.104.233-.104.23-.096.242-.087.24-.081.248-.07.249-.066.239-.056.256-.048.249-.04.247-.03.256-.025.256-.025.248-.007h.254l.258.007.248.016.257.025.248.023.247.04.256.05.241.046.245.064.242.072.248.073.233.087.239.088.233.104.223.105.232.111.217.12.216.128.215.137.208.143.208.145.2.151.192.16.192.168.185.168.173.185.17.183.169.184.16.193.159.199.144.208.142.208.13.208.128.216.128.224.113.225.103.231.096.224.097.24.079.233.08.24.072.246.057.241.056.248.047.25.032.247.032.247.024.256.014.25v.502l-.006.256M575.794 826.391l-.03.305-.063.295-.114.296-.153.29-.19.278-.225.272-.264.257-.305.246-.335.241-.36.217-.4.207-.424.184-.448.168-.48.152-.488.128-.522.112-.526.088-.536.064-.553.048-.559.024h-.569l-.559-.024-.56-.039-.56-.073-.542-.088-.539-.104-.517-.127-.514-.153-.481-.168-.463-.184-.44-.199-.416-.225-.385-.232-.352-.248-.32-.255-.285-.273-.25-.28-.208-.288-.176-.296-.137-.296-.087-.304-.056-.303-.016-.305M585.915 495l-10.121 331.39M568.906 494.591l.016-.264.016-.264.035-.272.03-.263.047-.265.05-.263.062-.257.072-.264.072-.255.088-.249.096-.256.097-.247.114-.241.11-.24.127-.239.13-.233.143-.232.144-.224.151-.223.161-.217.167-.207.17-.2.183-.202.186-.199.189-.185.193-.182.207-.176.21-.168.206-.16.224-.161.217-.143.231-.145.232-.136.233-.128.24-.119.248-.112.247-.104.25-.096.247-.089.256-.081.264-.07.255-.065.265-.056.263-.048.267-.04.261-.032.265-.024.272-.015.263-.008h.272l.265.015.272.017.263.032.265.032.263.039.265.056.256.064.264.064.256.081.248.08.255.095.25.104.24.105.238.119.24.12.232.13.224.142.232.144.216.152.216.16.21.168.2.17.198.174.193.192.191.185.176.2.176.2.168.207.16.216.152.217.153.223.135.224.137.23.13.242.112.241.11.239.106.248.094.248.088.257.079.256.072.255.065.256.048.265.048.263.039.264.032.264.017.273.016.263V495M568.906 494.591l-8.519 331.207" style="fill:none;stroke:red;stroke-width:1.99999;stroke-linecap:round;stroke-linejoin:round;stroke-miterlimit:4;stroke-dasharray:none;stroke-opacity:1;visibility:visible"/><path d="m644.467 779.095.24-.047.239-.081.209-.104.208-.12.184-.135.175-.16.161-.185.145-.192.134-.23.105-.257.039-.144.033-.153.024-.15.016-.16.304-5.946M646.684 771.03v-.247l-.024-.257-.05-.263-.063-.264-.087-.248-.096-.256-.12-.246-.121-.243-.13-.223-.125-.217-.136-.207-.13-.201-.142-.199-.137-.192-.151-.201-.143-.19-.161-.202-.167-.199-.154-.184-.159-.182-.17-.187-.158-.175-.153-.161-.143-.135M643.068 765l-.075-.161-.046-.127-.04-.097-.024-.071-.015-.065-.008-.039M643.122 765.104l-.03-.056-.025-.048M643.763 765.953l-.192-.208-.176-.21-.152-.215-.12-.215" style="fill:none;stroke:red;stroke-width:.999997;stroke-linecap:round;stroke-linejoin:round;stroke-miterlimit:4;stroke-dasharray:none;stroke-opacity:1;visibility:visible"/><path d="m641.163 791.88-.04.616-.063.624-.097.616-.112.616-.144.616-.16.616-.184.607-.216.61-.232.607-.265.6-.278.592-.304.601-.328.583-.352.585-.368.575-.401.575-.416.569-.44.56-.461.56-.491.552-.51.552-.529.536-.553.536-.575.528-.593.52-.607.512-.641.512-.664.504-.679.488-.705.488-.727.48-.745.472-.76.464-.783.456-.801.441-.823.438-.833.425-.855.415-.873.409-.887.4-.913.384-.927.376-.945.367-.961.36-.967.345-.992.337-1.008.327-1.016.313-1.032.303-1.048.288-1.056.272-1.07.272-1.083.248-1.095.248-1.104.232-1.11.216-1.13.208-1.135.192-1.154.184-1.15.168-1.16.152-1.177.144-1.176.128-1.176.119-1.192.105-1.19.088-1.194.08-1.205.064-1.21.056-1.209.041-1.215.023-1.224.015h-1.216l-1.224-.015-1.216-.023-1.225-.041-1.215-.056-1.216-.064-1.217-.08-1.215-.095-.696-.057M641.163 791.88l.625-12.408M560.61 817.112l-.439-.105-1.121-.28-1.12-.287-1.103-.304-1.096-.313-1.082-.319-1.071-.336-1.056-.345-1.04-.36-1.032-.368-1.016-.375-.967-.37-.961-.382-.944-.401-.928-.399-.912-.41-.904-.423-.88-.422-.863-.441M620.587 750.72l.88.407.872.425.855.423.841.44.824.44.816.457.792.464.776.463.768.481.744.48.72.485.712.498.688.504.672.513.647.51.634.52.616.529.591.528.576.544.56.544.536.544.512.56.497.56.471.56.457.568.431.577.408.575.384.584.048.072M352.292 713.296l189.784 97.176M429.901 664.24l133.092 60.216M578.691 731.617l41.896 19.104M641.788 779.472l2.68-.377M638.915 764.976l3.944-.553" style="fill:none;stroke:red;stroke-width:1.99999;stroke-linecap:round;stroke-linejoin:round;stroke-miterlimit:4;stroke-dasharray:none;stroke-opacity:1;visibility:visible"/><path d="m326.549 544.497.03-.08.034-.08.037-.062.057-.058.048-.04.058-.03.062-.027.058-.015h.062l.072.008.09.024.08.05.08.062.088.088.069.104.075.111.056.13.055.15.039.153.034.162.014.15M323.533 538.016l.08-.015.07-.017.072-.014h.225M327.747 545.297v.13l-.01.11-.019.103-.035.097-.032.071-.046.067-.056.038-.056.032-.066.016h-.064" style="fill:none;stroke:red;stroke-width:.999997;stroke-linecap:round;stroke-linejoin:round;stroke-miterlimit:4;stroke-dasharray:none;stroke-opacity:1;visibility:visible"/><path d="m327.747 545.297-3.104 1.035" style="fill:none;stroke:red;stroke-width:.666665;stroke-linecap:round;stroke-linejoin:round;stroke-miterlimit:4;stroke-dasharray:none;stroke-opacity:1;visibility:visible"/><path d="m406.363 519.73.121.03.128.008.119-.022.12-.048.096-.072.088-.08.081-.114.064-.118.04-.13.031-.134.016-.136-.007-.144-.017-.146-.03-.15-.05-.144-.056-.144-.08-.138-.088-.136-.096-.12-.105-.101-.126-.105-.12-.08-.122-.056-.12-.032M313.918 414.451l-.01.159-.045.168-.084.16-.117.17-.16.157-.202.162-.225.16-.27.15-.295.155-.33.143-.36.143-.382.13-.409.125-.44.115-.454.112-.473.092-.496.09-.504.08-.512.072-.521.056-.529.041-.535.03-.528.027-.528.004h-.512l-.511-.014-.506-.023-.48-.039-.462-.049-.448-.065-.432-.07-.401-.081-.367-.098-.353-.103M301.035 416.61l-.312-.112-.281-.12-.247-.119-.205-.137-.185-.136-.145-.15-.103-.145-.064-.159-.033-.155M321.79 694.001l.005.13.019.116.023.103.016.098.032.081.024.073.03.056.042.047.032.03.037.025.043.01h.04l.037-.01.05-.024.043-.03.029-.049.041-.049.033-.058.029-.06.026-.073.019-.083.028-.086.025-.098.007-.102.018-.112v-.112l.007-.112-.007-.12-.01-.119-.014-.128-.019-.13-.024-.135-.021-.15-.035-.155-.038-.151-.048-.15-.042-.154-.046-.144-.051-.15-.052-.138-.058-.152-.055-.15-.056-.155-.064-.142-.056-.144-.06-.139-.045-.126-.049-.11M326.243 599.936l-.013-.15-.041-.146-.054-.135-.068-.112-.077-.089-.097-.072-.103-.048-.123-.021h-.117l-.121.013-.129.04-.12.05-.13.079-.125.087-.12.104-.111.123-.097.118-.08.13-.074.126-.054.143-.05.144-.021.144-.018.144.009.137.016.128.04.13.048.11.062.112.082.096.086.08.097.056.102.055.123.033.128.016.127-.01.129-.021.126-.05.122-.063.112-.087.105-.105.11-.129.098-.145.071-.159.065-.168.048-.175.03-.176.018-.177-.011-.16M311.571 548.73l-.15-.05-.136-.02-.128.015-.114.045-.086.072-.072.099-.056.134-.04.16-.019.166-.004.194.004.202.02.205.032.218.047.223.056.231.07.217.072.194.083.168.093.166.107.151.112.14.118.109.129.096.128.056.133.04.13.016.137-.007.128-.039.12-.066.113-.078.102-.108.09-.116.072-.155.063-.176.032-.182.013-.2-.013-.192-.032-.209-.056-.206-.08-.216-.055-.114-.059-.109-.134-.219-.146-.192-.158-.176-.08-.086-.09-.071-.086-.082-.081-.065-.086-.053-.09-.051-.154-.078M340.707 700.801l.056-.025.05-.063.047-.08.04-.103.032-.129.024-.143.024-.168.015-.193.017-.219.008-.238v-.29l-.008-.292-.242-5.497M339.62 687.897l-.04-.12-.032-.087-.03-.073-.026-.047-.03-.034-.027-.006M340.77 693.361l-.007-.216-.016-.232-.024-.24-.023-.248-.025-.233-.033-.23-.03-.234-.032-.238-.03-.21-.042-.205-.035-.201-.038-.201-.04-.183-.04-.193-.039-.184-.04-.176-.049-.19-.047-.177-.042-.177-.048-.161-.049-.158-.045-.154-.048-.128-.048-.119M340.77 693.361l-6.52.785M339.9 688.673l-.144-.385-.136-.39M334.82 688.465l-.015-.024-.026-.024-.016-.024-.025-.023-.022-.024-.024-.025M334.82 688.465l.12.195.086.19.065.2.032.19M335.123 689.241v.272l-.016.152-.023.177-.024.175-.04.185-.04.2-.048.2-.048.191-.056.192-.048.2-.057.2-.048.192-.055.21-.056.204-.056.217-.057.232-.047.241-.048.24-.038.23-.034.258-.022.256-.01.248v.233M334.252 694.146l.215 4.824M418.876 388.162l-.016.12-.056.121-.088.12-.128.11-.161.114-.19.111-.226.104-.256.104-.29.096-.308.088-.345.08-.369.08-.392.072-.408.054-.43.058-.451.048-.455.04-.479.032-.48.016-.488.017h-.497l-.487-.01-.496-.014-.488-.025-.488-.032-.472-.039-.466-.05-.447-.054-.43-.065-.421-.072-.388-.08-.369-.088-.344-.088M407.066 389.128l-.298-.087-.268-.096-.249-.097-.216-.101-.192-.105-.168-.113-.137-.104-.104-.112-.071-.111-.047-.112-.016-.113M416.083 567.577l-.008-.15-.016-.147-.04-.133-.05-.112-.061-.098-.073-.077-.088-.067-.096-.032-.103-.016h-.113l-.112.026-.11.038-.123.056-.111.082-.119.088-.105.102-.095.113-.08.111-.073.12-.064.139-.05.13-.037.139-.018.138-.006.133.006.121.025.129.03.121.057.109.057.097.072.09.081.072.095.053.105.05.11.024.113.009.112-.018.112-.032.104-.048.112-.072.096-.088.103-.112.098-.134.071-.138.072-.16.048-.158.04-.167.024-.17.008-.161" style="fill:none;stroke:red;stroke-width:.999997;stroke-linecap:round;stroke-linejoin:round;stroke-miterlimit:4;stroke-dasharray:none;stroke-opacity:1;visibility:visible"/><path d="m406.3 519.704.018.01h.006l.008.008h.008l.016.008h.008" style="fill:none;stroke:red;stroke-width:.999997;stroke-linecap:round;stroke-linejoin:round;stroke-miterlimit:4;stroke-dasharray:none;stroke-opacity:1;visibility:visible"/><path d="m339.842 684.146.042-.61.072-.606.111-.598.137-.61.176-.602.215-.6.241-.589.282-.601.302-.594.343-.586.377-.58.41-.586.438-.576.473-.568.503-.567.536-.56.56-.552.591-.543.624-.544.657-.538.68-.528.704-.519.735-.509.77-.502.782-.493.817-.487.847-.482.867-.466.886-.454.912-.448.936-.442.96-.42.986-.418 1-.407 1.014-.39 1.047-.388 1.057-.367 1.08-.359 1.095-.344 1.113-.336 1.128-.327 1.152-.304 1.16-.298 1.168-.286 1.192-.274 1.2-.254 1.207-.242 1.224-.23 1.233-.217 1.24-.208 1.254-.185 1.258-.175 1.272-.16 1.272-.152 1.282-.128 1.277-.12 1.29-.104 1.286-.087 1.297-.074 1.296-.063 1.296-.048 1.296-.033 1.295-.016h1.297l1.296.016 1.288.026 1.28.047 1.288.055 1.274.072 1.272.082 1.26.102 1.258.113 1.248.136 1.234.144 1.23.15 1.216.179 1.207.182 1.193.201 1.184.215 1.168.224 1.152.241 1.136.256 1.119.272 1.113.28 1.087.29 1.072.309 1.05.32 1.03.33 1.016.343.993.359.967.37.953.374.928.393.904.408" style="fill:none;stroke:red;stroke-width:.666665;stroke-linecap:round;stroke-linejoin:round;stroke-miterlimit:4;stroke-dasharray:none;stroke-opacity:1;visibility:visible"/><path d="m340.707 700.801-.616.072M339.435 687.53l-.223.02M345.675 693.417l-.015-.577.024-.582.048-.58.096-.58.12-.578.16-.575.192-.575.224-.569.266-.576.285-.56.33-.568.357-.561.394-.552.424-.55.456-.546.488-.543.512-.537.554-.528.574-.52.606-.51.642-.515.663-.495.688-.495.721-.481.752-.479.768-.465.802-.455.822-.448" style="fill:none;stroke:red;stroke-width:.999997;stroke-linecap:round;stroke-linejoin:round;stroke-miterlimit:4;stroke-dasharray:none;stroke-opacity:1;visibility:visible"/><path d="m339.78 683.336.031.464.051.464.07.465.096.455.12.464.136.465.158.455.178.465.208.455.223.448.241.456.272.448.278.45.314.44.328.44.344.431.368.432.392.43.407.427.432.422.457.417.464.416.494.405.514.41.528.39.551.4.513.355.536.353.551.343.57.344.585.333.6.338.605.33.625.317" style="fill:none;stroke:red;stroke-width:1.99999;stroke-linecap:round;stroke-linejoin:round;stroke-miterlimit:4;stroke-dasharray:none;stroke-opacity:1;visibility:visible"/><path d="m405.795 658.25.49.054.976.106.959.12.97.12.949.135.945.145.544.078" style="fill:none;stroke:red;stroke-width:.999997;stroke-linecap:round;stroke-linejoin:round;stroke-miterlimit:4;stroke-dasharray:none;stroke-opacity:1;visibility:visible"/><path d="m299.462 415.378 22.024 274.814M335.684 701.408l.086 1.168M313.918 414.451l20.904 275.542M335.77 702.577v.233l-.03.232-.074.231-.101.233-.138.231-.176.232-.21.223-.227.217-.276.216-.296.201-.319.199-.343.183-.376.172-.391.166-.417.146-.431.133-.447.12-.458.104-.471.097-.471.071-.483.056-.485.04-.483.023-.486.01-.474-.014-.47-.027-.458-.047-.446-.066-.424-.072-.416-.094-.394-.113-.366-.127-.344-.136-.329-.151M324.06 705.498l-.29-.161-.261-.176-.234-.183-.2-.2-.165-.201-.141-.207-.101-.224-.073-.216-.03-.233M321.675 690.77l.018.095.014.096.016.089.01.096.006.104.018.12M321.675 690.77l-.062-.16-.048-.13-.031-.095-.025-.072-.016-.07-.008-.052M321.755 691.37l.008.221.017.242v.688l-.01.224v.405l-.006.211v.209l.006.222.019.21M334.82 689.993l.01.144.006.144.006.129.01.138.008.141.006.161M324.565 550.761l-.047-.009-.056-.005-.05-.01-.046-.005-.057-.019-.056-.022M323.3 538.13l.04-.025.03-.015.043-.026.029-.016.044-.015.048-.017M404.606 529.935l-.636 128.145M405.3 387.976l-.6 123.384M418.876 388.162l-2.288 271.783M299.462 415.378l-.02-.23-.007-.227v-.231l.007-.224.01-.23.022-.229.036-.219.03-.226.04-.224.057-.224.056-.224.064-.215.065-.215.078-.218.08-.207.095-.21.095-.205.105-.202.115-.2.11-.192.12-.192.129-.184.136-.184.144-.184.14-.168.155-.168.151-.168.162-.159.169-.155.174-.149.177-.137.176-.143.185-.13.19-.126.194-.12.191-.112.2-.105.207-.104.209-.096.209-.09.205-.078.217-.07.217-.069.222-.059.216-.059.226-.039.219-.04.228-.032.233-.026.222-.02.234-.01.223-.008.234.008.223.01.23.014.226.031.224.034.222.031.226.048.224.057.224.056.216.072.214.07.219.081.213.087.21.097.208.096.2.113.2.113.193.118.19.121.192.136.182.136.18.144.175.145.175.16.159.15.171.169.15.167.153.176.144.177.136.183.136.185.128.19.12.19.118.201.106.202.105.208.094.21.095.205.08.217.082.216.063.214.065.218.054.224.051.224.048.224.031.224.024.232.025.224M321.79 694.001l.775 9.695M405.3 387.976l.008-.216.01-.214.014-.217.032-.215.024-.21.04-.214.05-.21.046-.206.056-.21.064-.199.072-.207.079-.201.083-.192.086-.2.096-.191.104-.184.104-.193.112-.177.12-.183.12-.175.128-.17.136-.165.144-.162.142-.16.148-.151.16-.147.15-.141.167-.137.17-.136.168-.128.175-.12.186-.11.173-.115.195-.103.182-.097.192-.095.2-.088.192-.08.2-.071.208-.066.2-.063.207-.055.21-.048.208-.04.215-.032.208-.024.216-.025.208-.016.216-.01h.216l.209.01.214.016.208.016.219.033.206.032.216.04.208.048.208.048.2.063.208.064.2.072.2.08.192.081.2.097.186.095.19.103.186.112.18.112.178.12.175.129.17.128.157.134.171.145.149.152.154.153.152.15.138.164.142.166.13.167.126.177.12.175.12.185.104.183.104.192.104.191.088.193.088.2.08.201.074.199.07.201.056.209.056.207.047.214.041.21.042.206.022.216.024.216.016.218.01.216v.214" style="fill:none;stroke:red;stroke-width:1.99999;stroke-linecap:round;stroke-linejoin:round;stroke-miterlimit:4;stroke-dasharray:none;stroke-opacity:1;visibility:visible"/><path d="m334.466 698.97.033.67M334.5 699.641l.01.16.014.144.024.15.032.138.033.117.029.123.043.112.048.105.087.175.09.15.095.123.094.103.096.08.098.064.096.04.046.008h.039" style="fill:none;stroke:red;stroke-width:.999997;stroke-linecap:round;stroke-linejoin:round;stroke-miterlimit:4;stroke-dasharray:none;stroke-opacity:1;visibility:visible"/><path d="m339.028 683.385.186 4.165M352.292 713.297l-.688-.367-.672-.368-.657-.376-.639-.385-.624-.384-.6-.4-.592-.4-.558-.41-.554-.413-.528-.414-.505-.428-.485-.432-.474-.429-.449-.434-.425-.449-.407-.438-.384-.457-.367-.453-.344-.458-.328-.466-.304-.471-.288-.463-.264-.482-.238-.471-.226-.48-.2-.479-.169-.472-.153-.472-.078-.272M411.628 659.008l.4.066.928.158.922.17.912.174.91.184.896.192.89.198.884.211.866.216.864.224.856.233.839.24.825.237.815.258.81.265.79.271.729.257.722.264.704.271.694.273.68.29.672.284.664.297M339.028 683.385l-.008-.48.008-.48.032-.48.058-.488.072-.48.094-.481.12-.48.136-.47.16-.483.176-.471.2-.472.215-.472.233-.464.266-.464.27-.462.296-.457.311-.456.337-.455.352-.457.376-.44.386-.448.416-.44.422-.432.44-.432.465-.433.478-.423.497-.417.52-.422.536-.41.551-.416.57-.4.582-.4.601-.4.626-.384.63-.386.648-.38.664-.37.68-.367.689-.36.703-.352.728-.35.736-.347.743-.334.77-.329.777-.32.79-.32.8-.313.81-.304.832-.296.83-.288.848-.28.856-.27.866-.264.87-.258.888-.255.896-.243.904-.237.912-.223.928-.225.93-.207.936-.208.95-.193.954-.193.95-.175.967-.176.961-.163.976-.149.984-.143.986-.145.992-.128.99-.12 1-.115 1-.101 1.01-.099 1-.077 1.008-.08 1.014-.063 1.008-.065 1.008-.049 1.018-.04 1.006-.04 1.016-.023 1.016-.016h2.024l1.016.007 1.009.025 1.006.021 1.009.043 1 .049.992.054.992.065.992.072.984.08.984.088.487.047M340.092 700.873l-4.617.56M339.212 687.55l-4.537.546" style="fill:none;stroke:red;stroke-width:1.99999;stroke-linecap:round;stroke-linejoin:round;stroke-miterlimit:4;stroke-dasharray:none;stroke-opacity:1;visibility:visible"/><path d="m409.212 658.297-.408-.033-.416-.039-.393-.055-.39-.066M411.595 659.008l-.184-.11-.199-.098-.192-.079-.191-.08-.187-.073-.191-.056-.184-.055-.192-.04-.208-.04-.2-.041-.232-.023-.223-.016M407.604 658.105l-.184-.03-.184-.027-.169-.007-.167-.007-.145.007-.143.009-.136.01-.128.02-.136.033-.129.033-.135.046-.128.066" style="fill:none;stroke:red;stroke-width:.999997;stroke-linecap:round;stroke-linejoin:round;stroke-miterlimit:4;stroke-dasharray:none;stroke-opacity:1;visibility:visible"/><path d="m409.523 662.59-.177.888M403.721 661.847l-.181.881M403.972 661.388a.816.816 0 0 0-.25.46M409.523 662.592a.699.699 0 0 0-.06-.496M409.463 662.096a1.899 1.899 0 0 0-.724-.788M408.739 661.308a4.36 4.36 0 0 0-1.804-.632 4.748 4.748 0 0 0-1.963.148M404.972 660.824a2.341 2.341 0 0 0-1 .564M409.092 663.934a.818.818 0 0 0 .254-.454M408.852 664.134c.08-.062.159-.126.24-.2M403.539 662.73a.737.737 0 0 0 .06.497" style="fill:none;stroke:red;stroke-width:.666665;stroke-linecap:round;stroke-linejoin:round;stroke-miterlimit:4;stroke-dasharray:none;stroke-opacity:1;visibility:visible"/><path d="M405.299 664.606a.272.272 0 0 0-.052.014M405.244 664.62a1.093 1.093 0 0 0-.374.19c-.014.007-.027.022-.04.03M404.09 665.22a.29.29 0 0 0 .016.034M404.106 665.254a1.484 1.484 0 0 0 .528.523M407.292 666.17c.248-.055.486-.173.692-.34M404.756 665.248a.861.861 0 0 0 .112.152.767.767 0 0 0 .243.2M406.906 665.868a1.112 1.112 0 0 0 .466-.23M407.372 665.638a.344.344 0 0 0 .118-.194.301.301 0 0 0-.038-.218M407.452 665.226c-.006-.016-.016-.024-.021-.036a.972.972 0 0 0-.335-.317" style="fill:none;stroke:red;stroke-width:.666665;stroke-linecap:round;stroke-linejoin:round;stroke-miterlimit:2;stroke-dasharray:none;stroke-opacity:1;visibility:visible"/><path d="M407.096 664.872a2.545 2.545 0 0 0-.865-.302 2.695 2.695 0 0 0-.933.036M403.866 664.521a.4.4 0 0 0-.008.096c0 .081.016.157.049.223M408.327 665.494a.54.54 0 0 0 .155-.293M404.622 665.974a.303.303 0 0 0-.112.19.29.29 0 0 0 .037.216M404.547 666.38a.924.924 0 0 0 .112.153.763.763 0 0 0 .243.199s.558.476 1.794.268a1.03 1.03 0 0 0 .467-.23M407.163 666.77a.344.344 0 0 0 .117-.194.299.299 0 0 0-.037-.218M407.243 666.358c-.007-.016-.016-.024-.021-.034a.913.913 0 0 0-.29-.287.2.2 0 0 0-.045-.032M406.887 666.005a2.52 2.52 0 0 0-.865-.303 2.533 2.533 0 0 0-.334-.025 2.864 2.864 0 0 0-.6.061" style="fill:none;stroke:red;stroke-width:.666665;stroke-linecap:round;stroke-linejoin:round;stroke-miterlimit:2;stroke-dasharray:none;stroke-opacity:1;visibility:visible"/><path d="M405.088 665.738a.204.204 0 0 0-.052.015M405.034 665.753a1.048 1.048 0 0 0-.375.19c-.013.008-.027.022-.039.03M404.831 664.841a.307.307 0 0 0-.112.19.29.29 0 0 0 .037.218M404.091 665.218l-.02-.037-.163-.343M408.016 665.802l.312-.308M404.298 662.249l1.119-.735M405.417 661.514l.36.056.988.144.335.047 1.03.154M408.13 661.915l.463.6.321.42M407.7 664.181c.135.445.415.81.782 1.021" style="fill:none;stroke:red;stroke-width:.666665;stroke-linecap:round;stroke-linejoin:round;stroke-miterlimit:2;stroke-dasharray:none;stroke-opacity:1;visibility:visible"/><path d="M404.006 664.48a1.99 1.99 0 0 0 .978-.7" style="fill:none;stroke:red;stroke-width:.666665;stroke-linecap:round;stroke-linejoin:round;stroke-miterlimit:4;stroke-dasharray:none;stroke-opacity:1;visibility:visible"/><path d="M404.986 663.78a6.056 6.056 0 0 0 1.413.36c.427.06.861.074 1.303.04M403.866 664.521c.048-.011.092-.025.138-.04M408.914 662.935l-.063.33-.368 1.935M404.298 662.249l-.43 2.27M408.13 661.915l-.185.973-.018.092-.225 1.2M405.417 661.514l-.388 2.036-.043.23" style="fill:none;stroke:red;stroke-width:.666665;stroke-linecap:round;stroke-linejoin:round;stroke-miterlimit:2;stroke-dasharray:none;stroke-opacity:1;visibility:visible"/><path d="m637.772 771.416-.675.085M637.105 765.646l-.67.081M637.486 765.756a.483.483 0 0 0-.382-.11M637.772 771.417a.49.49 0 0 0 .344-.2M638.114 771.217c.216-.279.346-.567.416-.92M638.532 770.297c.133-.66.16-1.233.084-1.9l-.002-.01M636.718 771.39a.49.49 0 0 0 .38.112M636.524 771.22c.061.057.124.116.194.17M636.433 765.728a.503.503 0 0 0-.345.198" style="fill:none;stroke:red;stroke-width:.666665;stroke-linecap:round;stroke-linejoin:round;stroke-miterlimit:4;stroke-dasharray:none;stroke-opacity:1;visibility:visible"/><path d="M635.213 766.556a.196.196 0 0 0-.07.02.344.344 0 0 0-.151.112M635.436 771.108a.324.324 0 0 0 .244.064M634.325 767.697a.192.192 0 0 0-.16-.053.21.21 0 0 0-.147.1M634.018 767.745a.836.836 0 0 0-.086.15.933.933 0 0 0-.095.291s-.227.671.18 1.794a.95.95 0 0 0 .26.38M634.277 770.36a.215.215 0 0 0 .167.058.213.213 0 0 0 .146-.101M634.59 770.317c.011-.01.014-.021.023-.03a1.173 1.173 0 0 0 .157-.412M634.772 769.876a3.347 3.347 0 0 0-.012-1.243 3.436 3.436 0 0 0-.17-.556M634.59 768.078a.447.447 0 0 0-.02-.046M634.57 768.03a1.012 1.012 0 0 0-.215-.305c-.009-.01-.023-.019-.029-.028M634.756 766.972l-.022.026M634.736 766.998a1.69 1.69 0 0 0-.239.524l-.027.13M634.737 770.31a1.547 1.547 0 0 0 .387.564M634.758 766.97l.024-.03.213-.253M635.152 770.897l.285.21M636.937 766.313l.759.861M637.697 767.174l.035.36.101.988.035.333.102 1.031M637.97 769.886l-.335.616-.237.43" style="fill:none;stroke:red;stroke-width:.666665;stroke-linecap:round;stroke-linejoin:round;stroke-miterlimit:2;stroke-dasharray:none;stroke-opacity:1;visibility:visible"/><path d="M636.252 770.13a1.816 1.816 0 0 0-.572 1.042" style="fill:none;stroke:red;stroke-width:.666665;stroke-linecap:round;stroke-linejoin:round;stroke-miterlimit:2;stroke-dasharray:none;stroke-opacity:1;visibility:visible"/><path d="M635.272 766.677c.161.327.405.583.705.736" style="fill:none;stroke:red;stroke-width:.666665;stroke-linecap:round;stroke-linejoin:round;stroke-miterlimit:4;stroke-dasharray:none;stroke-opacity:1;visibility:visible"/><path d="M635.977 767.414a8.027 8.027 0 0 0 .033 1.456c.044.427.126.848.24 1.262M635.213 766.556c.019.04.037.08.059.12M637.398 770.931l-.25.035-1.467.205M636.937 766.313l-1.723.243M637.97 769.886l-.739.105-.068.008-.91.131M637.697 767.174l-1.544.213-.173.026" style="fill:none;stroke:red;stroke-width:.666665;stroke-linecap:round;stroke-linejoin:round;stroke-miterlimit:2;stroke-dasharray:none;stroke-opacity:1;visibility:visible"/><path d="m566.303 816.774 1.022-.512.83.896" style="fill:none;stroke:red;stroke-width:.666665;stroke-linecap:round;stroke-linejoin:round;stroke-miterlimit:4;stroke-dasharray:none;stroke-opacity:1;visibility:visible"/><path d="m560.387 825.798 3.929-9.558M560.387 825.799l3.929-9.559M634.77 769.875l-.639 18.597M617.411 764.24l-1.592.176" style="fill:none;stroke:red;stroke-width:.999997;stroke-linecap:round;stroke-linejoin:round;stroke-miterlimit:4;stroke-dasharray:none;stroke-opacity:1;visibility:visible"/><path d="m578.691 731.617-15.752-4.778" style="fill:none;stroke:red;stroke-width:.666665;stroke-linecap:round;stroke-linejoin:round;stroke-miterlimit:4;stroke-dasharray:none;stroke-opacity:1;visibility:visible"/><path d="m562.629 738.792 15.99-4.778M637.772 771.416l3.944.313M642.188 779.416l-4.298 4.896M578.619 734.014l-15.99 4.778M562.629 738.792l15.621 7.256" style="fill:none;stroke:red;stroke-width:.999997;stroke-linecap:round;stroke-linejoin:round;stroke-miterlimit:4;stroke-dasharray:none;stroke-opacity:1;visibility:visible"/><path d="m650.977 603.463-.989 19.632M578.691 731.617l-15.698-7.161M562.939 726.839l15.752 4.778" style="fill:none;stroke:red;stroke-width:1.99999;stroke-linecap:round;stroke-linejoin:round;stroke-miterlimit:4;stroke-dasharray:none;stroke-opacity:1;visibility:visible"/><path d="m323.534 538.016 1.109 8.316" style="fill:none;stroke:red;stroke-width:.666665;stroke-linecap:round;stroke-linejoin:round;stroke-miterlimit:4;stroke-dasharray:none;stroke-opacity:1;visibility:visible"/><path d="m324.253 550.691-12.682-1.961M340.77 693.361l4.905.056" style="fill:none;stroke:red;stroke-width:.999997;stroke-linecap:round;stroke-linejoin:round;stroke-miterlimit:4;stroke-dasharray:none;stroke-opacity:1;visibility:visible"/><path d="m311.571 548.73 12.682 1.961M404.7 511.36l-.094 18.575M404.606 529.935l.094-18.575" style="fill:none;stroke:red;stroke-width:1.99999;stroke-linecap:round;stroke-linejoin:round;stroke-miterlimit:4;stroke-dasharray:none;stroke-opacity:1;visibility:visible"/><path d="m636.25 770.132 2.364-1.745" style="fill:none;stroke:red;stroke-width:.666665;stroke-linecap:round;stroke-linejoin:round;stroke-miterlimit:4;stroke-dasharray:none;stroke-opacity:1;visibility:visible"/><path d="m329.029 552.425 77.408-26.567-.23-10.722-5.498-2.512-76.21 25.648.166 12.72 4.364 1.433" style="fill:none;fill-opacity:1;fill-rule:nonzero;stroke:#00ff4a;stroke-width:1.33333;visibility:visible" visibility="hidden"/><path d="m406.204 515.138-77.687 25.865M323.98 537.97l.446.054.435.056.414.081.392.082.384.093.352.105.335.12.304.12.281.134.257.136.225.146.19.151.162.16.128.17.094.168M328.38 539.747l.024.056.023.072.015.088.01.086.013.098.009.102.01.103.01.113.006.128v.128l.009.144.009.138M328.518 541.003l.495 11.117M329.013 552.121v.087l.007.082v.073l.009.064v.208l-.016.014" style="fill:none;stroke:#00ff4a;stroke-width:.999997;stroke-linecap:round;stroke-linejoin:round;stroke-miterlimit:4;stroke-dasharray:none;stroke-opacity:1;visibility:visible" visibility="hidden"/><path d="m405.867 526.55-76.856 26.099M400.628 512.55l-77.094 25.467M405.867 526.55l.16-.07.137-.088.103-.095.088-.12.033-.072.032-.08.015-.08v-.085M406.435 525.86l-.23-10.722M406.204 515.138l-.016-.12-.05-.128-.055-.112-.079-.103-.081-.081-.087-.072-.098-.072-.103-.056-.112-.047-.12-.048-.136-.033-.13-.016M405.138 514.25l-.439-.048-.416-.055-.407-.073-.392-.08-.377-.087-.352-.099-.336-.104-.312-.112-.279-.118-.258-.128-.232-.14-.206-.13-.169-.156-.143-.142-.113-.154M400.707 512.624l-.016-.022-.015-.024-.016-.01-.009-.006-.008-.012h-.016M329.013 552.648h-.008l-.01-.007-.005-.008-.01-.017-.015-.024-.008-.024M324.565 550.761l.448.056.429.064.42.071.39.09.378.096.35.103.337.122.303.126.28.131.249.14.22.153.197.152.157.168.139.162.095.174" style="fill:none;stroke:#00ff4a;stroke-width:1.99999;stroke-linecap:round;stroke-linejoin:round;stroke-miterlimit:4;stroke-dasharray:none;stroke-opacity:1;visibility:visible" visibility="hidden"/><path d="m658.788 606.663-77.368 35.472M657.578 605.63l-.528-.064-.528-.079-.51-.089-.497-.112-.486-.112-.467-.136-.44-.143-.421-.153-.4-.167-.37-.177-.344-.175-.305-.193-.279-.199-.248-.201-.216-.207M658.788 606.663l-.01-.144-.038-.144-.064-.128-.083-.112-.086-.096-.103-.087-.103-.073-.122-.072-.135-.056-.144-.057-.16-.039-.161-.024M658.147 618.83l.64-12.167" style="fill:none;stroke:#9500ff;stroke-width:.999997;stroke-linecap:round;stroke-linejoin:round;stroke-miterlimit:4;stroke-dasharray:none;stroke-opacity:1;visibility:visible" visibility="hidden"/><path d="m657.578 619.553.161-.09.128-.094.106-.113.077-.119.065-.137.016-.087.016-.083M651.306 603.313l-69.661 31.623M657.578 619.553l-76.558 35.76" style="fill:none;stroke:#9500ff;stroke-width:1.99999;stroke-linecap:round;stroke-linejoin:round;stroke-miterlimit:4;stroke-dasharray:none;stroke-opacity:1;visibility:visible" visibility="hidden"/></svg>