<svg xmlns="http://www.w3.org/2000/svg" baseProfile="full" height="1122.52" preserveAspectRatio="xMinYMin meet" style="width:919px;height:1159px" width="793.701" xml:space="preserve"><path d="m458.92 661.122.145-.717.096-.736.048-.754.018-.736-.018-.736-.064-.736-.096-.753-.145-.735-.175-.737-.225-.735-.256-.72-.287-.737-.334-.717-.368-.722-.418-.72-.448-.704-.478-.704-.514-.704-.544-.688-.59-.686-.624-.672-.656-.674-.688-.656-.72-.657-.752-.639-.784-.624-.816-.624-.848-.609-.866-.59-.91-.591-.93-.562-.958-.56-.994-.56-1.006-.528-1.042-.528-1.056-.494" style="fill:none;stroke:red;stroke-width:.999997;stroke-linecap:round;stroke-linejoin:round;stroke-miterlimit:4;stroke-dasharray:none;stroke-opacity:1;visibility:visible"/><path d="m465.865 649.011-.032-.784-.064-.77-.096-.766-.144-.768-.192-.77-.223-.766-.257-.768-.304-.768-.321-.752-.384-.752-.415-.752-.447-.752-.482-.736-.51-.736-.561-.721-.592-.719-.61-.72-.671-.704-.687-.69-.736-.686-.75-.673-.785-.672-.817-.655-.865-.655-.878-.64-.913-.625-.928-.607-.975-.608-.994-.592-1.023-.576-1.04-.577-1.07-.544-1.105-.545-.849-.4-.272-.126M158.057 553.283l.047-.576.065-.607.112-.61.128-.607.176-.593.223-.607.24-.592.272-.59.306-.594.35-.593.369-.574.415-.594.433-.575.48-.56.496-.575.544-.561.56-.544.59-.545.625-.543.656-.544.688-.527.688-.514.737-.512.77-.496.78-.496.82-.496.846-.479.864-.464.895-.447.912-.45.929-.447.959-.417.994-.415 1.006-.417 1.009-.382 1.04-.385 1.056-.37 1.09-.366 1.086-.336 1.119-.336 1.12-.336 1.152-.303 1.168-.289 1.169-.288 1.185-.273 1.199-.255 1.216-.241 1.216-.239 1.247-.208 1.233-.208 1.248-.192 1.263-.175 1.265-.16 1.28-.144 1.28-.129 1.28-.128 1.279-.096 1.297-.096 1.296-.065 1.295-.063 1.297-.048 1.296-.032 1.296-.017h1.296l1.296.017 1.279.017 1.296.048 1.28.063 1.264.065 1.28.08 1.265.111 1.248.112 1.262.13 1.218.142 1.233.161 1.215.175 1.216.175 1.184.21 1.185.207 1.167.224 1.152.24 1.134.256 1.122.273 1.118.286 1.088.29 1.072.303 1.04.32 1.042.336 1.01.336 1.004.37.962.366.942.37.928.398.912.4M248.01 535.572l132.11 60.447M396.168 603.363l48.704 22.273" style="fill:none;stroke:red;stroke-width:.666665;stroke-linecap:round;stroke-linejoin:round;stroke-miterlimit:4;stroke-dasharray:none;stroke-opacity:1;visibility:visible"/><path d="m164.849 557.72.152-.325.288-.56.32-.578.368-.558.4-.546.416-.558.45-.544.494-.544.51-.528.546-.528.577-.528.607-.512.656-.512.656-.495.688-.496.721-.481.75-.482.768-.464.801-.446.815-.45.849-.448.879-.416.897-.416.913-.416.663-.268M442.2 636.9l.897.415.863.433.641.32.207.112.85.448.83.464.816.464.8.481.768.479.753.496.752.512.736.513.719.511.672.528.672.544.656.543.64.561.625.56.607.576.577.577.559.591.545.61.528.607.495.607.257.336.063.064.175.224.37.544.079.096.432.64.4.624.383.64.37.639.336.656.304.672.303.658.256.687.257.673.208.687.079.27" style="fill:none;stroke:red;stroke-width:.999997;stroke-linecap:round;stroke-linejoin:round;stroke-miterlimit:4;stroke-dasharray:none;stroke-opacity:1;visibility:visible"/><path d="m367.578 665.715.879.447.912.434.929.415.944.416.959.401.976.399 1.008.384 1.008.385 1.024.367 1.025.352 1.056.352.08.016h.015M394.185 673.731l1.057.16 1.184.16 1.2.144 1.199.144 1.201.112 1.216.112 1.215.112 1.216.08 1.23.081 1.2.047 1.218.048 1.23.03 1.218.035h2.416l1.216-.017 1.216-.032 1.215-.032 1.2-.064 1.2-.065 1.2-.079 1.185-.096 1.184-.112 1.185-.112 1.167-.13 1.152-.142 1.152-.161 1.152-.175 1.136-.175 1.12-.193 1.121-.208 1.118-.207 1.089-.241 1.088-.24 1.072-.24 1.073-.27 1.039-.274 1.039-.288 1.025-.29 1.008-.317.992-.321.975-.32.96-.336.945-.352.928-.367.91-.369.898-.384.881-.383.878-.4.833-.417.815-.415.817-.417.784-.432.75-.448.754-.448.721-.464.72-.464.687-.463.656-.482.657-.496.622-.496.594-.494.59-.514.033-.014.51-.497.546-.512.51-.527.483-.529.479-.528.433-.543.43-.546.353-.496.048-.047.37-.56.348-.544v-.016l.082-.112v-.015l.256-.433.318-.56.275-.56.255-.576.24-.56.208-.575.177-.529.175-.544.126-.527.114-.529.096-.544.078-.528.018-.192.033-.353.032-.543M170.232 566.627l197.346 99.088M157.993 552.5l.032.463.032.32v.03l.016.114.063.464.096.464.128.462.144.466.144.448.177.464.207.464.225.449.24.447.272.449.288.447.319.448.321.433.096.127h.015l.064.113.16.19.241.289.128.144.399.432.4.432.432.416.465.416.463.416.32.272.177.144.513.398.527.402.544.4.51.353.546.35.545.337.574.35.577.336.608.338.608.32.623.32" style="fill:none;stroke:red;stroke-width:1.99999;stroke-linecap:round;stroke-linejoin:round;stroke-miterlimit:4;stroke-dasharray:none;stroke-opacity:1;visibility:visible"/><path d="m224.01 527.41.495.065.961.096.11.015.85.113.768.095.208.016.944.143.96.146.527.08M222.825 539.829l.944.11.944.097.944.126.928.128.928.128.912.146.912.144.91.176.897.161.881.19.893.177.867.208.863.209.865.207.847.222.832.224.833.24.8.258.816.256.784.254.783.272.768.29.753.288.735.304.736.302.718.304.708.322 2.559 1.184 131.646 61.168h.016M161.273 560.05l.03-.08.24-.512.242-.496.256-.512.288-.479.304-.497.143-.224.161-.255.192-.273.144-.208.353-.464.35-.464.433-.512.448-.496.463-.496.481-.496.497-.48.527-.48.528-.465.56-.447.575-.464.592-.433.593-.447.625-.417.62-.415.658-.399.656-.401.672-.399.672-.386.705-.367.72-.368.719-.368.737-.35.77-.34.766-.35.783-.32.784-.319.8-.321.816-.304.833-.301.832-.292.863-.286.848-.273.88-.256.88-.256.896-.256.896-.24.913-.225.912-.222.912-.225.928-.192.928-.192.93-.19.943-.178.943-.177.959-.143.96-.161.96-.142.977-.129.976-.11.975-.13.978-.096.975-.096.973-.079.996-.08.974-.065.976-.064.993-.048.99-.032.977-.032.992-.016.992-.016h1.617M395.832 615.347l46.177 21.47.19.082" style="fill:none;stroke:red;stroke-width:.999997;stroke-linecap:round;stroke-linejoin:round;stroke-miterlimit:4;stroke-dasharray:none;stroke-opacity:1;visibility:visible"/><path d="m224.01 527.41.128-.048.128-.05.128-.045.144-.032.144-.017.128-.016h.144l.16-.016.16.016.159.016.194.017.19.032M227.432 527.458l.225.017.223.032.224.032.21.047.19.05.193.046.191.064.177.065.192.079.191.08.193.097.191.112M225.816 527.268l.384.063.401.048.415.048.416.032M465.96 664.531l-.047.623-.066.625-.095.608-.11.624-.146.608-.064.272-.096.353-.177.607-.127.336-.096.27-.224.61-.272.59-.273.594-.303.608-.336.577-.352.591-.368.577-.4.575-.416.561-.433.559-.462.56-.497.56-.497.543-.526.545-.561.528-.576.528-.593.528-.606.513-.641.511-.67.496-.673.496-.706.48-.72.48-.751.48-.767.464-.785.447-.8.449-.815.432-.833.432-.85.416-.878.4-.896.399-.913.385-.911.384-.96.367-.96.353-.96.353-.992.334-1.008.32-1.024.322-1.024.303-1.056.288-1.055.273-1.074.272-1.072.239-1.103.257-1.103.222-1.105.225-1.136.208-1.136.192-1.152.175-1.135.178-1.169.143-1.183.144-1.169.128-1.184.128-1.184.096-1.185.096-1.199.08-1.201.064-1.216.048-1.215.048-1.216.016-1.215.016h-1.216l-1.233-.016-1.215-.016-1.217-.048-1.216-.048-1.215-.064-1.217-.08-1.216-.096-1.216-.113-1.216-.111-.192-.016M465.96 664.531l.625-12.4M377.978 687.7l-.657-.223-1.039-.354-1.04-.367-1.01-.384-.974-.367-.96-.385-.945-.4-.927-.401-.913-.399-.896-.433-.88-.414-.864-.45M445.385 623.379l.88.4.864.432.864.416.832.45.832.43.815.465.785.464.784.463.767.48.736.48.721.481.72.496.688.511.672.512.64.512.641.512.606.528.593.528.576.543.576.545.527.544.513.56.496.56.464.56.464.577.43.576.402.575.384.576.047.081M170.504 582.469l196.305 100.622.063.031M157.242 552.547l-.016-.48.016-.48.03-.48.049-.48.08-.481.096-.478.112-.481.144-.479.161-.481.175-.465.192-.479.222-.465.226-.463.272-.464.272-.464.302-.464.306-.448.334-.464.355-.447.367-.449.384-.447.416-.433.432-.432.433-.432.463-.432.48-.432.497-.416.528-.416.528-.415.56-.417.573-.401.578-.399.592-.4.625-.383.639-.385.64-.384.672-.37.672-.366.688-.352.705-.352.733-.35.738-.354.734-.336.786-.32.768-.32.785-.32.799-.32.816-.303.832-.288.832-.289.849-.287.861-.273.85-.256.88-.257.88-.255.896-.24.912-.24.91-.224.928-.223.93-.209.944-.208.944-.192.945-.19.957-.18.962-.175.96-.159.974-.161.994-.143.992-.144.976-.128.992-.11 1.008-.114.992-.112 1.008-.097 1.008-.078 1.009-.08 1.007-.065 1.008-.064 1.006-.048 1.026-.032 1.008-.048 1.022-.016 1.01-.015h3.038l1.008.031 1.01.016 1.006.048.995.048 1.005.048.976.063.994.081.992.08.975.08.496.048M229.832 528.18l.4.065.672.11.272.049.912.16.913.175.914.192.893.192.896.192.881.208.863.224.865.225.863.224.833.24.256.079.56.161.816.255.816.273.786.272.733.256.721.255.704.272.703.273.672.287.672.289.656.303M170.504 582.469l-.688-.368-.672-.37-.656-.383-.64-.386-.621-.382-.594-.4-.606-.402-.562-.398-.545-.418-.527-.414-.513-.434-.479-.43-.481-.434-.447-.432-.416-.446-.414-.432-.386-.464-.353-.448-.352-.464-.32-.463-.317-.465-.288-.464-.258-.48-.24-.48-.225-.48-.205-.482-.163-.464-.16-.48-.077-.27M248.104 533.41l132.064 60.225M396.232 600.962l49.153 22.416M157.242 552.547l.19 4.176" style="fill:none;stroke:red;stroke-width:1.99999;stroke-linecap:round;stroke-linejoin:round;stroke-miterlimit:4;stroke-dasharray:none;stroke-opacity:1;visibility:visible"/><path d="m442.2 636.899-1.583.178" style="fill:none;stroke:red;stroke-width:.999997;stroke-linecap:round;stroke-linejoin:round;stroke-miterlimit:4;stroke-dasharray:none;stroke-opacity:1;visibility:visible"/><path d="m396.232 600.962-16.112-4.943M380.12 596.019l16.048 7.344" style="fill:none;stroke:red;stroke-width:.666665;stroke-linecap:round;stroke-linejoin:round;stroke-miterlimit:4;stroke-dasharray:none;stroke-opacity:1;visibility:visible"/><path d="m224.008 527.411-1.183 12.418M227.432 527.458l-13.68 11.888" style="fill:none;stroke:red;stroke-width:.999997;stroke-linecap:round;stroke-linejoin:round;stroke-miterlimit:4;stroke-dasharray:none;stroke-opacity:1;visibility:visible"/><path d="m396.232 600.962-16.064-7.327M380.12 596.019l16.112 4.943M157.993 552.5l-.56 4.223" style="fill:none;stroke:red;stroke-width:1.99999;stroke-linecap:round;stroke-linejoin:round;stroke-miterlimit:4;stroke-dasharray:none;stroke-opacity:1;visibility:visible"/><path d="m229.465 382.036.13.03h.11l.112-.015.113-.047.096-.063.094-.082.065-.098.063-.125.05-.128.031-.145v-.286l-.015-.146-.048-.16-.05-.144-.079-.146-.064-.126-.08-.11-.095-.098-.081-.096-.112-.098-.096-.062-.096-.062-.096-.034-.096-.034h-.176l-.08.034-.064.034-.064.046-.064.064-.047.08-.033.112-.032.114-.032.126v.273l.016.143.03.144.018.161.048.159.063.16.066.144.079.128.096.129.113.096.095.079.112.049M240.298 428.723l-.017-.144-.015-.143-.035-.128-.062-.113-.066-.095-.077-.064-.081-.049-.098-.048h-.221l-.097.032-.112.048-.112.048-.13.079-.11.1-.095.109-.097.115-.08.109-.064.13-.064.127-.032.127-.047.145-.016.128v.127l.016.128.016.128.047.112.049.112.077.099.066.077.078.064.098.048.096.05.113.014h.11l.111-.015.112-.034.114-.046.097-.081.095-.096.112-.112.08-.128.062-.144.066-.16.046-.16.05-.175.017-.161v-.16M226.809 253.62l-.29-.08-.271-.096-.239-.096-.224-.112-.19-.095-.162-.112-.128-.113-.112-.11-.064-.13-.048-.112-.032-.127M238.504 252.258l-.03.147-.049.128-.096.125-.113.128-.159.13-.192.113-.208.126-.256.114-.288.11-.304.112-.336.098-.369.08-.384.093-.4.081-.432.066-.447.064-.448.046-.464.048-.481.034-.496.03-.479.015h-.976l-.496-.015-.481-.016-.463-.032-.464-.048-.448-.048-.432-.046-.398-.082-.402-.064-.369-.08-.335-.096" style="fill:none;stroke:#00ff4a;stroke-width:.999997;stroke-linecap:round;stroke-linejoin:round;stroke-miterlimit:4;stroke-dasharray:none;stroke-opacity:1;visibility:visible" visibility="hidden"/><path d="M243.32 528.1v.19l-.047.178-.065.19-.11.193-.129.176-.161.176-.176.176-.224.176-.239.16-.27.161-.29.143-.305.126-.335.144-.337.115-.367.11M238.504 252.258 243.32 528.1M225.048 252.436v-.21l.017-.207v-.208l.032-.224.016-.208.031-.208.048-.208.035-.208.062-.208.048-.208.064-.208.079-.191.064-.193.097-.208.079-.192.112-.192.081-.176.112-.194.111-.174.13-.175.11-.179.128-.156.144-.162.128-.16.143-.16.161-.16.147-.146.158-.126.159-.144.176-.128.16-.13.177-.109.175-.113.193-.111.176-.113.192-.096.192-.082.191-.094.193-.063.207-.081.193-.064.207-.064.21-.048.19-.047.21-.032.207-.032.224-.032.21-.016.205-.017h.641l.208.017.207.016.21.032.206.032.21.047.206.046.208.051.192.064.21.064.19.079.21.064.19.096.193.096.191.096.176.097.193.11.175.113.179.126.158.114.176.144.159.128.161.144.16.144.144.158.144.146.143.158.13.178.127.158.128.179.128.175.112.174.096.194.111.192.096.176.099.209.077.19.081.194.063.207.065.192.062.208.052.206.046.211.048.207.032.208.016.225.031.207.016.208.016.206M225.048 252.436l5.703 268.743M243.32 528.1l-12.57-6.92" style="fill:none;stroke:#00ff4a;stroke-width:1.99999;stroke-linecap:round;stroke-linejoin:round;stroke-miterlimit:4;stroke-dasharray:none;stroke-opacity:1;visibility:visible" visibility="hidden"/><path d="m108.617 286.228-.513.047-.528.014-.511.018-.513.016-.511-.016-.512-.018-.496-.032-.481-.029-.448-.05-.462-.047-.434-.064-.399-.08-.4-.096-.352-.079-.337-.112-.288-.096-.287-.13-.241-.111-.206-.127-.178-.145-.144-.128-.095-.146-.065-.142-.031-.143v-.69l.016-.223.015-.24.032-.224.033-.224.032-.223.063-.227.049-.206.063-.224.064-.223.081-.21.08-.207.08-.208.11-.207.098-.21.112-.191.113-.191.111-.193.128-.192.128-.191.144-.179.143-.173.161-.163.144-.174.16-.16.175-.143.161-.16.176-.145.176-.126.193-.148.191-.126.192-.112.192-.111.192-.113.207-.095.209-.096.224-.097.192-.08.223-.08.209-.063.223-.065.224-.047.225-.05.223-.046.224-.032.225-.033.224-.015.223-.017h.465l.224.017.24.015.224.017.224.03.223.05.224.032.225.063.223.048.224.062.209.083.224.079.208.08.208.094.208.098.208.112.192.113.207.11.193.129.192.128.176.142.192.13.176.161.161.143.175.16.16.161.16.175.144.177.144.173.145.178.143.192.128.177.13.207.11.192.11.192.098.209.096.205.096.21.095.224.066.206.078.226.065.208.063.224.048.225.034.223.047.225.032.223.016.24.017.224-.017.145-.048.141-.081.147-.111.159-.16.144-.177.129-.239.143-.256.142-.29.13-.318.128-.336.112-.367.113-.4.11-.418.098-.447.096-.447.079-.482.08-.495.064-.496.065-.496.032M122.072 472.755l.112-.112.113-.128.096-.144.079-.144.08-.176.05-.176.03-.175.016-.177v-.16l-.016-.16-.03-.144-.05-.128-.064-.127-.08-.097-.095-.063-.113-.065-.112-.032h-.112l-.13.016-.126.032-.127.049-.13.063-.143.097-.112.095-.128.112-.095.128-.082.112-.078.128-.049.144-.047.145-.032.143-.017.142v.147l.017.127.032.128.047.126.065.114.078.096.082.08.096.065.095.063.128.032.128.016h.127l.129-.016.128-.048.128-.047.112-.081M108.601 419.203l-.082.08-.078.096-.048.144-.048.16-.032.176v.385l.016.207.016.224.048.224.048.241.063.207.065.192.079.176.096.176.097.145.112.143.112.11.127.098.128.064.128.03.145.019.127-.019.127-.03.129-.064.017-.016.095-.064.096-.112.097-.112.079-.16.065-.176.032-.192.015-.192v-.21l-.03-.206-.049-.208-.08-.208-.048-.127-.065-.115-.03-.045-.018-.05-.08-.111-.127-.192-.16-.191-.033-.032-.048-.05h-.016l-.063-.08-.097-.08-.08-.063-.079-.064-.08-.048-.161-.08-.143-.05-.129-.014h-.015l-.128.014-.112.05" style="fill:none;fill-opacity:1;fill-rule:nonzero;stroke:#9500ff;stroke-width:1.33333;visibility:visible" visibility="hidden"/><path d="m103.208 286.067.433.064.463.048.448.05.48.029.496.032.513.017.511.016.513-.016.51-.017.529-.015.513-.047.496-.032.496-.065.495-.064.481-.08.447-.079.448-.096.419-.097.398-.11.368-.114.336-.112.319-.128.29-.13.254-.142.24-.143.177-.129.16-.144.111-.159.08-.146.048-.142.017-.145 14.479 278.96v.673l.016.126v.306l.016.19v.16l.019.16.014.144.016.127v.097l.016.032v.015l.559 10.785v.207l-.047.225-.081.226-.095.206-.145.226-.16.208-.207.206-.225.207-.27.192-.289.193-.304.176-.336.176-.37.16-.384.146-.4.144-.415.128-.43.11-.447.096-.451.08-.479.063-.465.065-.48.032-.464.016-.48.016-.463-.016-.465-.016-.448-.048-.463-.05-.417-.078-.416-.081-.399-.093-.384-.114-.352-.128-.336-.145-.305-.143-.287-.16-.257-.174-.224-.194-.207-.192-.16-.192-.128-.208-.096-.208-.065-.225-.032-.207-.528-9.632.017.112.016.08.032.08.016.064.047.064.032.048.033.032.031.016h.081l.048-.016.047-.032.032-.032.033-.049.063-.095.032-.08.033-.064.032-.078.031-.098.016-.094.017-.114.015-.112v-.478l-.015-.115v-.143l-.033-.128-.015-.144-.032-.16-.033-.16-.048-.144-.032-.16-.047-.142-.049-.147-.047-.143-.048-.16-.049-.144-.063-.16-.049-.144-.063-.145-.048-.125-.033-.13-.063-.112-.049-.16-.032-.128-.047-.096-.016-.08-.017-.062-.016-.032-15.552-278.304.032.143.065.143.095.145.143.128.178.144.206.128.241.112.288.13.288.095.337.112.351.079.4.096.4.08" style="fill:none;fill-opacity:1;fill-rule:nonzero;stroke:#9500ff;stroke-width:1.33333;visibility:visible" visibility="hidden"/><path d="m109.129 419.203-.143-.05-.129-.014h-.016l-.128.015-.112.049-.081.08-.079.096-.048.144-.048.16-.03.176v.385l.014.207.016.224.048.224.048.241.063.207.066.192.079.176.096.176.096.145.112.143.112.11.128.098.128.064.127.03.146.02.126-.02.128-.03.129-.064.016-.016.096-.064.096-.112.096-.112.08-.16.065-.176.031-.192.016-.192v-.21l-.032-.206-.048-.208-.079-.208-.048-.127-.065-.114-.032-.046-.016-.049-.08-.112-.128-.192-.16-.19-.032-.033-.048-.049h-.016l-.063-.08-.097-.081-.081-.063-.078-.064-.081-.048-.16-.08M122.648 471.363l-.016-.16-.03-.144-.05-.128-.064-.127-.08-.096-.095-.064-.113-.065-.112-.032h-.112l-.13.016-.126.033-.127.048-.129.064-.144.096-.112.095-.128.112-.095.128-.082.112-.078.128-.049.144-.047.145-.032.143-.017.143v.146l.017.127.032.128.047.127.065.114.078.095.082.08.096.065.095.063.128.032.128.016h.127l.129-.016.128-.048.128-.047.112-.081.112-.112.113-.128.096-.144.079-.144.08-.176.05-.176.03-.175.016-.177v-.16M115.977 566.947l.017.112.015.08.033.08.016.064.047.064.032.048.033.032.031.017h.081l.048-.017.047-.032.032-.032.033-.05.063-.094.032-.08.033-.064.032-.077.031-.099.016-.095.017-.113.015-.112v-.479l-.015-.113v-.144l-.033-.128-.016-.144-.03-.16-.034-.16-.048-.143-.032-.161-.047-.143-.049-.145-.047-.144-.048-.16-.05-.144-.062-.16-.05-.144-.062-.145-.049-.126-.032-.129-.063-.112" style="fill:none;stroke:#9500ff;stroke-width:.999997;stroke-linecap:round;stroke-linejoin:round;stroke-miterlimit:4;stroke-dasharray:none;stroke-opacity:1;visibility:visible" visibility="hidden"/><path d="m115.96 566.708.016.128v.064M101.72 285.7l-.288-.096-.288-.13-.24-.111-.207-.127-.177-.145-.144-.128-.095-.146-.065-.142-.03-.143M114.698 283.97l-.017.145-.048.142-.08.146-.111.159-.16.144-.177.13-.24.142-.255.143-.29.129-.318.128-.336.112-.368.113-.4.111-.417.097-.448.096-.447.079-.481.08-.495.064-.496.065-.497.032-.512.047-.53.015-.51.017-.512.016-.511-.016-.513-.017-.496-.032-.48-.03-.448-.049-.463-.048-.433-.064-.4-.08-.4-.096-.351-.079-.337-.112" style="fill:none;stroke:#9500ff;stroke-width:.999997;stroke-linecap:round;stroke-linejoin:round;stroke-miterlimit:4;stroke-dasharray:none;stroke-opacity:1;visibility:visible" visibility="hidden"/><path d="m115.993 564.05.016.239v.481l-.016.24v.225l-.017.223v.417l-.015.207-.016.207v.225l.016.193M115.914 563.395l.03.095v.114l.033.096v.223l.017.128M115.914 563.395l-.05-.16-.033-.128-.046-.096-.015-.08-.017-.064-.016-.03M117.96 578.34l-.288-.16-.256-.175-.224-.193-.207-.192-.161-.192-.127-.208-.097-.208-.064-.225-.033-.207M129.832 575.747v.207l-.047.226-.081.224-.095.207-.144.225-.161.208-.207.207-.225.208-.27.19-.289.194-.304.176-.336.176-.369.16-.385.145-.399.144-.416.13-.43.109-.447.096-.451.08-.477.063-.467.065-.479.032-.465.017-.479.015-.464-.015-.465-.017-.448-.048-.461-.05-.419-.078-.415-.08-.4-.095-.384-.113-.352-.128-.336-.145-.304-.143M114.698 283.97l14.477 278.96M129.273 564.962l.559 10.784M100.185 284.532l15.552 278.303M115.96 566.708l.016.192v.047l.527 9.632M100.185 284.532v-.69l.016-.223.015-.24.032-.224.033-.224.033-.223.063-.227.05-.206.062-.224.063-.223.081-.21.08-.207.08-.208.11-.207.098-.21.112-.191.113-.191.111-.193.128-.192.13-.191.142-.179.143-.173.162-.163.143-.174.16-.16.175-.143.161-.16.176-.145.176-.126.193-.148.191-.126.192-.112.192-.111.192-.113.208-.095.208-.096.224-.097.192-.08.223-.08.21-.064.223-.064.224-.047.225-.05.223-.046.224-.032.224-.033.224-.015.223-.017h.465l.224.017.24.015.224.017.225.03.223.05.224.032.225.063.223.048.224.062.208.083.224.079.208.08.208.094.208.098.208.112.192.113.208.11.192.129.193.128.175.142.192.13.176.161.161.143.175.16.16.161.16.175.144.177.144.173.145.178.144.192.127.177.13.207.11.192.11.192.098.209.097.205.095.21.095.224.066.206.079.226.064.208.063.224.048.225.034.223.047.225.032.223.016.24.017.224M129.273 564.962l-.098-2.033M129.175 562.93l.098 2.032" style="fill:none;stroke:#9500ff;stroke-width:1.99999;stroke-linecap:round;stroke-linejoin:round;stroke-miterlimit:4;stroke-dasharray:none;stroke-opacity:1;visibility:visible" visibility="hidden"/><path d="m513.369 538.307.16-.017.144-.047.158-.081.147-.11.127-.143.126-.178.114-.192.096-.192.078-.192.083-.224.063-.222.049-.227.03-.224.033-.207.016-.208.016-.193-.016-.173-.016-.176-.032-.146-.031-.128-.065-.112-.063-.078-.067-.051-.11-.045h-.111l-.13.014-.126.03-.144.084-.161.094-.159.112-.05.047h-.015l-.096.097-.096.095-.08.081-.176.211-.146.205-.142.24-.08.16-.032.079-.048.13-.05.127-.03.128-.034.13-.03.24v.238l.03.224.064.194.098.19.112.146.126.125.146.081.16.064h.16M505.433 480.98l-.016.16v.16l.016.175.032.175.064.21.065.177.11.174.097.16.129.144.143.13.144.096.161.077.141.033.179.018.159-.018.16-.033.144-.063.112-.096.128-.112.096-.142.081-.147.03-.143.034-.16v-.176l-.016-.173-.032-.179-.065-.176-.082-.16-.078-.144-.096-.142-.112-.13-.128-.112-.13-.094-.126-.098-.144-.08-.13-.046-.125-.034-.13-.03h-.129l-.11.014-.111.05-.097.045-.096.065-.079.096-.067.096-.062.128-.05.143-.014.161M495.523 635.139l-.033.08-.033.095-.015.113-.032.128v.144l-.017.16-.014.176v.368l.014.193v.19l.017.177.032.192.03.159.033.192.065.161.048.143.064.129.08.096.081.079.08.064.095.033h.095l.098-.033.095-.064.079-.095.065-.128.063-.145.049-.175.017-.192v-.192l-.017-.21-.033-.222-.047-.224-.064-.224-.08-.208-.08-.192-.079-.192-.097-.16-.064-.144-.095-.13-.08-.078-.065-.081-.064-.047-.063-.016h-.049l-.048.032-.03.048" style="fill:none;fill-opacity:1;fill-rule:nonzero;stroke:#ffdf00;stroke-width:1.33333;visibility:visible" visibility="hidden"/><path d="m493.578 647.939 18.464-315.263.015.176.048.193.096.175.144.192.174.176.21.174.272.18.288.174.337.16.352.161.4.143.43.144.465.128.48.128.494.112.53.112.544.097.56.063.576.08.576.048.593.048.575.016.592.017h1.152l.574-.033.546-.032.544-.064.51-.064.498-.079.464-.081.448-.098.416-.11.384-.128.352-.128.32-.144.272-.143.24-.161.192-.176.16-.159.129-.177.063-.176.048-.176-19.92 315.615-.032.255-.08.273-.112.256-.16.24-.175.24-.225.24-.256.21-.304.206-.322.192-.352.192-.382.16-.4.145-.432.127-.45.112-.477.097-.497.079-.496.063-.53.034-.525.015h-.53l-.529-.015-.526-.049-.546-.064-.526-.08-.512-.096-.511-.112-.481-.13-.48-.158-.464-.16-.432-.192-.415-.192-.384-.207-.353-.225-.336-.225-.288-.239-.272-.256-.226-.256-.189-.256-.147-.272-.126-.272-.079-.27-.048-.274v-.256" style="fill:none;fill-opacity:1;fill-rule:nonzero;stroke:#ffdf00;stroke-width:1.33333;visibility:visible" visibility="hidden"/><path d="m523.61 335.443-.544.064-.545.032-.575.033h-1.152l-.593-.018-.574-.015-.594-.05-.575-.046-.577-.081-.56-.062-.543-.097-.53-.112-.495-.112-.479-.128-.465-.13-.431-.142-.4-.143-.35-.161-.338-.16-.288-.175-.272-.178-.21-.176-.174-.175-.145-.192-.096-.175-.047-.193-.016-.176.016-.257.03-.239.033-.256.048-.24.048-.256.065-.24.064-.241.064-.239.095-.239.081-.241.096-.241.096-.224.127-.223.097-.225.128-.223.128-.224.144-.21.143-.206.16-.207.144-.193.161-.192.176-.192.175-.177.176-.176.193-.176.19-.176.194-.158.207-.146.208-.143.209-.144.208-.144.223-.127.225-.114.24-.11.208-.114.24-.095.239-.096.24-.081.241-.079.24-.08.24-.063.255-.049.241-.048.255-.032.257-.032.255-.03.241-.02h.767l.256.02.24.03.256.032.256.032.241.048.24.05.257.062.238.08.241.079.24.081.225.096.238.095.224.114.225.11.223.114.225.127.19.144.21.144.208.143.192.16.19.161.211.159.159.176.177.176.19.177.144.192.161.192.159.207.145.193.144.207.128.225.128.208.113.223.111.225.11.223.097.241.082.224.094.241.065.239.063.239.066.241.063.256.032.24.032.256.032.24.03.257v1.007l-.046.176-.064.176-.13.176-.16.16-.19.175-.24.162-.272.142-.32.145-.352.128-.384.128-.417.11-.447.098-.464.081-.497.079-.511.064" style="fill:none;fill-opacity:1;fill-rule:nonzero;stroke:#ffdf00;stroke-width:1.33333;visibility:visible" visibility="hidden"/><path d="m506.378 482.818.141.033.179.018.159-.018.16-.033.144-.063.113-.097.128-.11.096-.143.08-.147.032-.143.032-.161v-.175l-.015-.174-.033-.178-.065-.176-.08-.16-.08-.144-.095-.142-.113-.13-.128-.112-.128-.094-.127-.098-.145-.081-.128-.045-.127-.034-.13-.032h-.127l-.111.016-.11.05-.1.045-.095.065-.078.096-.066.096-.063.128-.05.143-.015.161-.016.162v.16l.016.174.032.175.064.21.065.177.11.174.097.16.129.144.143.13.144.096.161.077M512.665 536.29l-.032.13-.032.191-.033.194" style="fill:none;stroke:#ffdf00;stroke-width:.999997;stroke-linecap:round;stroke-linejoin:round;stroke-miterlimit:4;stroke-dasharray:none;stroke-opacity:1;visibility:visible" visibility="hidden"/><path d="M512.473 537.044v.239l.03.224.065.193.098.19.112.146.126.125.145.082.16.064h.16l.16-.018.144-.046.16-.082.145-.11.127-.143.127-.177.113-.192.097-.192.078-.192.082-.224.064-.223.048-.227.031-.224.033-.206.015-.208.016-.194-.016-.173-.015-.176-.033-.145-.03-.128-.066-.112-.063-.079-.066-.05-.111-.046h-.11l-.131.015-.126.03-.144.083-.161.093-.159.114-.049.046h-.016l-.096.098-.096.094-.079.082-.177.209-.145.207-.142.24-.08.16-.032.078-.049.13-.05.128-.03.128-.033.129-.031.24M495.682 637.938l.08.097.081.079.08.064.095.032h.095l.097-.032.096-.064.079-.095.065-.129.063-.144.049-.176.017-.192v-.19l-.017-.21-.033-.223-.047-.225-.064-.224-.08-.207-.08-.193-.079-.192-.097-.16-.064-.144-.095-.128-.08-.079-.065-.081-.065-.048-.062-.016h-.05l-.047.033-.03.047-.035.08-.032.096-.015.113-.032.127v.145" style="fill:none;stroke:#ffdf00;stroke-width:.999997;stroke-linecap:round;stroke-linejoin:round;stroke-miterlimit:4;stroke-dasharray:none;stroke-opacity:1;visibility:visible" visibility="hidden"/><path d="m495.047 644.295-.023.017-.016.023-.018.04-.012.047-.011.057-.016.064v.07l-.008.083-.01.086v.185l.01.095v.097l.008.09.016.095.015.082.016.093.036.08.02.072.034.064.038.048.041.041.04.031.048.016h.05l.047-.016.047-.03.039-.049.034-.065.032-.072.023-.088.008-.096v-.095l-.008-.106-.017-.11-.023-.112-.032-.114-.039-.103-.04-.095-.04-.096-.049-.081-.032-.073-.048-.062-.04-.038-.03-.044-.034-.022-.03-.009h-.026" style="fill:none;fill-opacity:1;fill-rule:nonzero;stroke:#ffdf00;stroke-width:1.33333;visibility:visible" visibility="hidden"/><path d="M495.535 645.455v-.095l-.01-.105-.015-.11-.022-.114-.034-.112-.039-.105-.039-.095-.04-.096-.05-.08-.032-.073-.047-.063-.04-.039-.032-.042-.03-.022-.034-.009h-.024l-.024.017-.016.022-.017.041-.014.048-.01.056-.015.064v.072l-.008.081-.008.087v.184l.008.095v.097l.008.088.015.096.016.081.016.095.034.08.023.072.033.064.038.048.041.04.04.032.047.015h.05l.047-.015.047-.032.041-.048.032-.064.033-.07.022-.09.009-.096M528.104 333.443l-.047.176-.064.176-.129.177-.16.159-.19.176-.24.163-.273.141-.32.144-.352.128-.384.128-.417.11-.448.098-.463.083-.497.077-.51.064-.545.064-.545.032-.575.033h-1.152l-.593-.017-.573-.016-.595-.048-.575-.048-.577-.08-.56-.061-.543-.099-.53-.112-.495-.112-.479-.128-.465-.128-.43-.144-.4-.143-.351-.161-.338-.16-.288-.173-.272-.18-.209-.175-.175-.176-.145-.192-.096-.175-.047-.193-.016-.176" style="fill:none;stroke:#ffdf00;stroke-width:.999997;stroke-linecap:round;stroke-linejoin:round;stroke-miterlimit:4;stroke-dasharray:none;stroke-opacity:1;visibility:visible" visibility="hidden"/><path d="m508.185 649.059-.032.255-.08.273-.112.256-.16.24-.175.24-.225.24-.256.21-.304.206-.321.192-.352.192-.383.16-.4.145-.432.127-.45.112-.477.097-.497.079-.496.063-.53.034-.525.016h-.53l-.528-.016-.527-.049-.545-.064-.527-.08-.512-.096-.51-.112-.482-.13-.48-.158-.464-.159-.432-.193-.415-.192-.384-.207-.353-.225-.336-.225-.288-.239-.272-.256-.225-.256-.19-.256-.146-.272-.127-.272-.079-.27-.048-.273v-.257M528.104 333.443l-19.919 315.615M494.017 640.422l-.439 7.517M512.042 332.675l.016-.256.03-.24.033-.256.048-.24.048-.256.065-.24.064-.24.063-.24.096-.239.081-.241.095-.241.097-.224.125-.223.099-.225.127-.223.129-.223.144-.21.143-.207.16-.207.142-.193.163-.192.175-.19.176-.18.176-.175.193-.175.19-.177.194-.158.207-.146.208-.143.208-.144.209-.144.223-.127.225-.114.239-.11.209-.114.239-.094.24-.097.24-.081.24-.079.241-.08.24-.063.255-.049.241-.047.255-.032.257-.033.255-.03.241-.018h.767l.256.017.24.031.256.033.256.032.24.047.241.05.256.062.239.08.241.079.239.081.225.097.239.094.224.114.225.11.223.114.225.127.19.144.21.144.208.143.192.16.19.161.21.16.159.175.177.176.19.178.143.191.162.192.16.207.145.193.143.207.129.225.128.208.113.223.111.225.11.223.097.242.081.223.095.241.065.239.061.24.067.24.064.256.032.24.032.256.03.24.033.257v1.007M512.042 332.675l-17.59 300.36" style="fill:none;stroke:#ffdf00;stroke-width:1.99999;stroke-linecap:round;stroke-linejoin:round;stroke-miterlimit:4;stroke-dasharray:none;stroke-opacity:1;visibility:visible" visibility="hidden"/><path d="m493.578 647.939 1.957-2.484M493.578 647.939l1.957-2.484" style="fill:none;stroke:#ffdf00;stroke-width:.999997;stroke-linecap:round;stroke-linejoin:round;stroke-miterlimit:4;stroke-dasharray:none;stroke-opacity:1;visibility:visible" visibility="hidden"/><path d="m495.41 635.7-1.393 4.722M494.017 640.422l.434-7.386" style="fill:none;stroke:#ffdf00;stroke-width:1.99999;stroke-linecap:round;stroke-linejoin:round;stroke-miterlimit:4;stroke-dasharray:none;stroke-opacity:1;visibility:visible" visibility="hidden"/><path d="m384.345 534.947-.225-.079-.191-.032h-.21l-.093.015h-.017l-.065.017-.143.079-.128.096-.113.144-.095.176-.064.192-.048.224-.016.225v.242l.016.254.032.271.063.273.081.27.097.225.111.223.11.192.147.192.159.177.161.147.19.126.161.08.192.064.192.034h.192l.192-.034.175-.064.161-.08.032-.033.112-.081.144-.127.128-.175.095-.208.081-.21.048-.223v-.237l-.016-.243-.048-.241-.08-.255-.064-.144-.064-.13-.143-.253-.162-.241-.206-.223-.113-.096-.096-.097-.113-.096-.111-.08-.128-.081-.113-.063-.207-.112M392.841 595.954l.016.241.047.242.081.206.112.194.13.16.093.08.065.045.175.081.193.048.176.018.19-.034.18-.062.174-.096.175-.13.161-.161.144-.19.128-.225.112-.209.096-.208.08-.239.063-.238.065-.242.032-.238.03-.242.02-.208v-.208l-.035-.193-.031-.173-.048-.144-.048-.146-.08-.096-.08-.08-.097-.064-.127-.032h-.145l-.159.032-.161.047-.175.081-.161.112-.191.128-.08.08-.113.082-.095.11-.096.096-.192.226-.16.222-.063.096v.018l-.097.142-.112.271-.064.13-.032.143-.033.128-.032.146-.031.253M402.552 378.004l-.032.207-.079.208-.112.225-.161.207-.223.192-.241.193-.303.19-.336.18-.368.173-.398.144-.451.16-.48.128-.496.129-.527.096-.56.096-.577.079-.59.064-.609.048-.624.032-.625.03h-.64l-.623-.014-.64-.032-.625-.048-.605-.064-.61-.08-.592-.078-.577-.114-.544-.11-.527-.145-.496-.147-.449-.142-.447-.175-.4-.177-.352-.176-.334-.192-.29-.208-.241-.207-.19-.207-.146-.212-.112-.221-.063-.207-.03-.224" style="fill:none;stroke:#00d4ff;stroke-width:.999997;stroke-linecap:round;stroke-linejoin:round;stroke-miterlimit:4;stroke-dasharray:none;stroke-opacity:1;visibility:visible" visibility="hidden"/><path d="m393.033 714.036-.03.319-.065.304-.112.304-.16.305-.193.287-.225.288-.27.272-.305.256-.335.24-.369.225-.401.208-.431.207-.464.176-.48.144-.512.144-.512.114-.543.095-.545.063-.561.049-.574.03h-.577l-.56-.015-.577-.047-.559-.063-.559-.098-.546-.096-.526-.142-.529-.146-.48-.175-.48-.192-.448-.21-.416-.223-.384-.24-.367-.256-.321-.272-.303-.272-.256-.287-.21-.304-.175-.305-.144-.304-.096-.304-.047-.32-.017-.32M402.552 378.004l-6.32 222.958-.016.687-.048 1.713-.336 11.984-.03.88-1.634 57.504-.016.688-.048 1.921-.079 2.91-.016.356-.336 12.062-.016.415-.016.353-.609 21.6M385.227 377.605l.016-.273.015-.274.048-.272.014-.254.048-.274.064-.272.048-.27.08-.258.067-.254.093-.272.096-.242.099-.253.112-.257.11-.239.129-.241.144-.242.126-.24.163-.221.143-.225.16-.224.176-.208.176-.208.176-.208.19-.192.195-.192.205-.192.21-.176.206-.175.21-.161.224-.16.224-.16.238-.144.242-.128.241-.143.237-.115.242-.109.254-.115.256-.094.274-.096.254-.082.258-.08.256-.062.27-.064.272-.048.272-.032.272-.032.274-.032.273-.018h.525l.29.018.254.014.272.034.274.03.272.051.272.045.256.066.272.062.254.08.258.083.254.095.274.112.238.097.242.127.241.126.239.128.238.147.226.141.224.163.224.159.208.158.208.178.192.192.208.177.192.19.192.209.158.208.178.206.158.226.16.208.162.24.144.222.128.24.128.242.126.24.112.254.098.242.097.254.093.258.08.257.082.272.064.256.048.272.048.27.046.273.032.27.016.274.016.27v.546M385.227 377.605l-5.059 216.03-.016.687-.032 1.697-.288 11.904-.016.88-1.438 61.279-.016.72-.384 16.673v.224l-.61 25.774" style="fill:none;stroke:#00d4ff;stroke-width:1.99999;stroke-linecap:round;stroke-linejoin:round;stroke-miterlimit:4;stroke-dasharray:none;stroke-opacity:1;visibility:visible" visibility="hidden"/><path d="m396.168 603.363-.336 11.984" style="fill:none;stroke:red;stroke-width:.999997;stroke-linecap:round;stroke-linejoin:round;stroke-miterlimit:4;stroke-dasharray:none;stroke-opacity:1;visibility:visible"/></svg>