<svg xmlns="http://www.w3.org/2000/svg" baseProfile="full" height="1122.52" preserveAspectRatio="xMinYMin meet" style="width:919px;height:1159px" width="793.701" xml:space="preserve"><path d="m247.469 345.033-72.905 27.543M230.94 338.425l-72.814 26.95M455.43 428.2l-59.481 29.056M380.646 426.785l-39.905 18.504M373.758 395.538l-73.041 32.239M335.651 380.305l-73.086 30.776M299.219 365.729l-73.061 29.425M264.349 351.785l-72.97 28.143M434.283 419.744l-37.743 17.96M380.164 445.496l-18.672 8.88M381.102 409.016l-60.619 27.41M354.492 387.832l-73.08 31.496M317.236 372.938l-73.086 30.088M281.596 358.681l-73.024 28.775M464.14 427.538l-39.928-15.883M381.469 394.665l-163.52-65.025M230.932 338.417l-6.52-2.608M224.413 335.809l-.144-.039-.136-.026-.136.012-.128.021-.12.056M247.46 345.025l-6.656-2.656M240.805 342.369l-.153-.047-.144-.024-.143.007-.13.032-.126.057M264.341 351.776l-6.801-2.712M257.54 349.065l-.15-.047-.155-.022h-.143l-.144.029-.128.064M281.589 358.681l-6.943-2.784M274.646 355.897l-.163-.047-.16-.024-.149.007-.144.033-.137.062M299.212 365.729l-7.096-2.84M292.116 362.889l-.168-.056-.168-.025-.16.009-.143.039-.144.068M317.23 372.927l-7.255-2.895M309.974 370.033l-.177-.056-.167-.023-.17.008-.158.038-.144.066M335.646 380.296l-7.416-2.97M328.23 377.327l-.184-.056-.184-.021-.168.006-.17.04-.143.072M354.477 387.832l-7.584-3.039M346.892 384.794l-.19-.056-.186-.027-.183.012-.169.038-.159.08M373.74 395.538l-7.761-3.104M365.98 392.434l-.167-.057-.161-.034h-.159l-.152.018-.145.049-.135.07M434.268 419.744l-8.32-3.327M425.948 416.417l-.184-.063-.19-.032h-.186l-.176.022-.16.056-.15.089M455.413 428.2l-8.521-3.407M446.892 424.794l-.199-.067-.192-.03-.193-.007-.184.033-.165.054-.162.094M133.283 360.305 379.557 469.05" style="fill:none;stroke:red;stroke-width:.999997;stroke-linecap:round;stroke-linejoin:round;stroke-miterlimit:4;stroke-dasharray:none;stroke-opacity:1;visibility:visible" visibility="hidden"/><path d="m240.315 342.313-72.685 27.225M248.116 348.313l-69.046 26.23M223.948 335.76l-72.606 26.648M231.58 341.673l-68.96 25.67M446.077 424.727l-49.872 24.09M379.876 456.703l-6.207 3.003M456.236 431.8l-60.416 29.672M380.836 419.143l-48.744 22.368M380.54 430.816l-35.28 16.456M365.307 392.369l-72.805 31.815M374.492 399.016l-69.256 30.737M327.62 377.272l-72.87 30.392M336.365 383.723l-69.281 29.343M291.557 362.832l-72.841 29.059M299.908 369.097l-69.23 28.03M257.036 349.009l-72.76 27.817M265.013 355.097l-69.121 26.808M425.18 416.354l-28.392 13.36M380.374 437.44l-27.744 13.056M435.077 423.313l-38.656 18.497M380.052 449.632l-14.039 6.723M381.283 401.76l-69.221 30.981M380.997 412.941l-55.992 25.467M346.251 384.738l-72.846 31.087M355.212 391.28l-69.272 30.032M309.39 369.968l-72.865 29.72M317.932 376.328 248.67 405M274.108 355.84l-72.805 28.432M282.268 362.018l-69.185 27.416M464.43 421.794l-33.57-13.243M407.693 399.425l-9.863-3.896M381.612 389.136l-157.689-62.195M463.516 439.76l-12.88-5.208M437.092 429.074l-7.616-3.08M416.158 420.6l-5.945-2.4M375.732 404.25l-6.816-2.761M356.212 396.343l-6.561-2.647M337.133 388.634l-6.32-2.563M318.477 381.08l-6.08-2.455M300.236 373.703l-5.856-2.364M282.397 366.49l-5.639-2.29M264.94 359.425l-5.432-2.197M247.86 352.513l-5.225-2.113M231.14 345.744l-5.032-2.03M133.797 371.143l.008.073.016.074.056.134.081.114.094.094.112.082.144.08" style="fill:none;stroke:red;stroke-width:1.99999;stroke-linecap:round;stroke-linejoin:round;stroke-miterlimit:4;stroke-dasharray:none;stroke-opacity:1;visibility:visible" visibility="hidden"/><path d="m133.283 360.305.515 10.837M134.358 359.383l-.139.025-.142.031-.13.05-.117.054-.105.064-.106.065-.078.083-.08.076-.074.107-.054.101-.042.128-.009.137M139.651 357.473l-.183.177-.208.175-.24.175-.272.161-.302.161-.322.151-.344.144-.376.127-.384.128-.408.112-.433.105-.439.095-.449.082-.461.062-.472.056" style="fill:none;stroke:red;stroke-width:.999997;stroke-linecap:round;stroke-linejoin:round;stroke-miterlimit:4;stroke-dasharray:none;stroke-opacity:1;visibility:visible" visibility="hidden"/><path d="m139.852 357.376 239.88 104.978M139.852 357.376l-.03-.007-.034.007-.03.008-.033.016-.032.033-.041.04M134.307 371.794l244.92 110" style="fill:none;stroke:red;stroke-width:1.99999;stroke-linecap:round;stroke-linejoin:round;stroke-miterlimit:4;stroke-dasharray:none;stroke-opacity:1;visibility:visible" visibility="hidden"/><path d="m218.974 328.769.439-.057.43-.056.426-.072.408-.088.392-.096.377-.095.35-.121.337-.118.313-.128.295-.138.264-.144.23-.151.211-.15.184-.162.15-.167" style="fill:none;stroke:red;stroke-width:.999997;stroke-linecap:round;stroke-linejoin:round;stroke-miterlimit:4;stroke-dasharray:none;stroke-opacity:1;visibility:visible" visibility="hidden"/><path d="m223.78 327.027.032-.032.024-.027.025-.006.015-.02h.047" style="fill:none;stroke:red;stroke-width:1.99999;stroke-linecap:round;stroke-linejoin:round;stroke-miterlimit:4;stroke-dasharray:none;stroke-opacity:1;visibility:visible" visibility="hidden"/><path d="m217.948 329.64.01-.117.031-.124.056-.11.071-.096.081-.089.086-.07.09-.066.103-.056.112-.045.12-.051.136-.032.13-.015M218.124 337.897l-.176-8.256M281.596 358.681l.177.088.167.113.168.144.152.158.144.193.119.201.112.222.098.224.063.241.048.23.024.242v.224l-.017.215-.047.2-.07.178-.089.159-.105.128-.128.1-.144.076M317.236 372.938l.184.087.177.11.167.146.152.17.153.188.128.211.111.221.097.227.072.24.047.237.024.243v.221l-.024.216-.047.21-.064.185-.097.157-.11.135-.129.108-.145.077M354.492 387.832l.19.095.194.129.184.16.17.183.15.209.136.224.119.241.089.248.073.255.039.256.008.248-.015.241-.041.222-.072.201-.096.179-.112.15-.135.12-.161.087M434.283 419.744l.21.107.2.133.2.159.177.194.166.207.144.232.122.241.102.255.074.267.038.256.016.256-.016.246-.038.226-.074.216-.096.182-.128.159-.144.136-.158.097M264.349 351.785l.175.081.169.111.159.144.153.161.136.191.127.2.106.216.087.233.07.231.049.24.024.232v.225l-.024.207-.039.199-.072.178-.09.16-.103.13-.127.104-.136.069M299.219 365.729l.177.088.178.112.168.143.15.169.144.193.128.2.112.222.098.234.072.232.046.24.024.232v.231l-.024.216-.046.2-.066.185-.097.151-.103.136-.128.105-.144.079" style="fill:none;stroke:red;stroke-width:.999997;stroke-linecap:round;stroke-linejoin:round;stroke-miterlimit:4;stroke-dasharray:none;stroke-opacity:1;visibility:visible" visibility="hidden"/><path d="M299.212 365.729h.007" style="fill:none;stroke:red;stroke-width:1.99999;stroke-linecap:round;stroke-linejoin:round;stroke-miterlimit:4;stroke-dasharray:none;stroke-opacity:1;visibility:visible" visibility="hidden"/><path d="m335.651 380.305.185.09.176.11.176.144.16.177.144.183.138.208.11.224.096.232.07.24.057.24.027.24v.232l-.027.216-.048.21-.07.182-.087.163-.112.142-.138.103-.144.081M373.758 395.538l.19.095.2.137.186.152.168.19.16.21.135.221.118.242.098.256.064.256.04.258.016.246-.016.24-.04.225-.071.2-.1.184-.119.15-.136.127-.158.09M455.43 428.2l.205.104.21.136.2.159.185.194.168.214.143.234.129.24.095.256.08.262.038.266.019.256-.019.239-.038.235-.071.212-.096.193-.13.161-.143.136-.17.103M230.94 338.425l.167.08.161.113.15.136.155.159.135.184.121.2.103.215.09.229.06.228.051.232.024.233v.222l-.024.212-.041.189-.063.176-.089.15-.104.129-.12.097-.137.064M247.469 345.033l.167.079.169.116.153.141.15.159.137.185.13.199.102.216.087.232.072.233.041.23.025.233v.225l-.02.208-.046.199-.063.177-.09.152-.102.125-.12.099-.145.07M379.876 456.703l16.073.553M396.788 429.714l-16.142-2.929M380.374 437.44l16.166.264M373.67 459.706l6.494-14.21M379.876 456.703l-18.384-2.327M450.636 434.552l13.504-7.014M425.948 416.417l-1.736-4.762M373.758 395.538l7.711-.873" style="fill:none;stroke:red;stroke-width:.999997;stroke-linecap:round;stroke-linejoin:round;stroke-miterlimit:4;stroke-dasharray:none;stroke-opacity:1;visibility:visible" visibility="hidden"/><path d="m380.052 449.632 16.153-.816M366.013 456.355l13.863.348M380.052 449.632l-6.383 10.074M379.876 456.703l15.944 4.769M396.788 429.714l-15.952-10.571M396.788 429.714l-16.248 1.102M380.54 430.816l16.248-1.102M396.54 437.704l-16.166-.264M380.374 437.44l16.047 4.37M373.67 459.706l6.382-10.074M379.876 456.703l-13.863-.348M365.061 392.48l16.222 9.28M374.493 399.017l6.504 13.924M446.892 424.793l17.538-2.999M425.948 416.417l4.913-7.866M410.213 418.2l-2.52-18.775M381.469 394.665l16.361.864M373.758 395.538l7.854-6.402M455.43 428.2l8.086 11.56M455.413 428.2l-4.777 6.352M434.283 419.744l2.809 9.33M434.268 419.744l-4.792 6.25M425.948 416.417l-9.79 4.183M425.948 416.417l-15.735 1.783M373.758 395.538l1.974 8.712M373.74 395.538l-4.824 5.95M354.492 387.832l1.72 8.511M354.477 387.832l-4.826 5.864M335.651 380.305l1.482 8.329M335.646 380.296l-4.833 5.775M317.236 372.938l1.241 8.142M317.23 372.927l-4.833 5.698M299.219 365.729l1.017 7.974M299.212 365.729l-4.832 5.61M281.596 358.681l.801 7.809M281.589 358.681l-4.83 5.52M264.349 351.785l.591 7.64M264.341 351.776l-4.833 5.452M247.469 345.033l.391 7.48M247.46 345.025l-4.825 5.375M230.94 338.425l.2 7.319M230.932 338.417l-4.824 5.298" style="fill:none;stroke:red;stroke-width:1.99999;stroke-linecap:round;stroke-linejoin:round;stroke-miterlimit:4;stroke-dasharray:none;stroke-opacity:1;visibility:visible" visibility="hidden"/><path d="m474.716 375.744-77.366 35.472M215.548 280.729l-77.688 25.865M149.245 454.266l-.143-.384-.138-.392M150.116 458.954l-.008-.216-.016-.233-.023-.239-.024-.248-.024-.233-.034-.23-.028-.233-.035-.241-.032-.21-.04-.206-.032-.2-.04-.199-.039-.185-.04-.19-.04-.185-.041-.177-.047-.19-.048-.178-.042-.178-.047-.158-.048-.16-.047-.152-.049-.13-.047-.117M150.116 458.954l-6.52.784M148.964 453.49l-.039-.12-.033-.088-.03-.073-.026-.048-.03-.032-.026-.007" style="fill:none;stroke:#00ff4a;stroke-width:.999997;stroke-linecap:round;stroke-linejoin:round;stroke-miterlimit:4;stroke-dasharray:none;stroke-opacity:1;visibility:visible"/><path d="m150.052 466.393.056-.025.05-.063.046-.08.041-.104.031-.127.025-.144.024-.169.016-.192.016-.217.007-.239v-.29l-.007-.294-.241-5.496" style="fill:none;stroke:#00ff4a;stroke-width:.999997;stroke-linecap:round;stroke-linejoin:round;stroke-miterlimit:4;stroke-dasharray:none;stroke-opacity:1;visibility:visible"/><path d="m457.005 545.434-.03-.777-.069-.766-.101-.778-.144-.77-.184-.766-.225-.768-.266-.77-.293-.757-.335-.76-.38-.753-.405-.752-.45-.744-.478-.735-.521-.737-.551-.728-.595-.72-.62-.711-.665-.705-.688-.696-.73-.688-.751-.671-.792-.673-.816-.656-.855-.647-.881-.639-.912-.633-.935-.61-.968-.607-.992-.592-1.024-.574-1.047-.569-1.073-.553-1.105-.535-1.119-.528M149.187 449.738l.041-.61.074-.606.11-.601.136-.608.176-.602.215-.598.24-.591.281-.601.304-.594.342-.584.377-.584.408-.584.441-.577.472-.565.503-.567.536-.561.561-.552.592-.546.623-.542.656-.538.683-.528.702-.52.736-.51.767-.498.784-.496.817-.486.847-.482.865-.465.888-.455.911-.446.937-.442.96-.424.986-.414 1-.407 1.013-.395 1.048-.384 1.056-.368 1.083-.357 1.093-.347 1.112-.333 1.13-.33 1.15-.302 1.161-.299 1.167-.286 1.193-.271 1.199-.257 1.21-.242 1.223-.229 1.232-.216 1.24-.208 1.255-.187 1.256-.174 1.272-.162 1.272-.152 1.281-.126 1.279-.12 1.29-.106 1.287-.086 1.298-.074 1.293-.06 1.297-.05 1.295-.034 1.297-.016h1.296l1.295.016 1.29.027 1.28.047 1.287.054 1.272.072 1.272.082 1.263.104 1.256.113 1.25.135 1.231.142 1.232.152 1.215.178 1.21.182 1.19.202 1.184.214 1.17.224 1.15.242 1.136.256 1.121.272 1.11.278 1.089.29 1.073.312 1.048.32 1.032.328 1.015.342.994.36.967.368.952.378.927.393.904.405M238.434 432.01l140.017 64.05M429.992 519.316l6.013 2.75M394.548 503.096l35.444 16.22" style="fill:none;stroke:#00ff4a;stroke-width:.666665;stroke-linecap:round;stroke-linejoin:round;stroke-miterlimit:4;stroke-dasharray:none;stroke-opacity:1;visibility:visible"/><path d="m155.02 459.007-.016-.573.025-.584.047-.578.095-.582.12-.576.16-.576.194-.576.223-.568.264-.578.288-.56.328-.566.357-.563.395-.55.424-.55.456-.547.488-.544.512-.537.552-.528.575-.517.608-.514.642-.512.663-.496.685-.494.723-.483.75-.48.77-.463.8-.457.825-.448.847-.439.872-.425.895-.413.92-.408M457.646 540.808l4.967-.695M148.78 453.122l-.223.021M150.052 466.393l-.616.073M457.716 548.552l.199-3.925M447.866 543.758l.544.6.521.61.504.617.482.622.453.634.432.637.408.635.385.64.36.64.336.653.312.665.296.664.264.682.247.678.217.679.08.283" style="fill:none;stroke:#00ff4a;stroke-width:.999997;stroke-linecap:round;stroke-linejoin:round;stroke-miterlimit:4;stroke-dasharray:none;stroke-opacity:1;visibility:visible"/><path d="m358.702 562.143.885.441.915.432.928.424.95.411.96.405.975.4 1 .383 1.008.379 1.026.366 1.032.359 1.049.345 1.063.336 1.07.319 1.083.312 1.085.305 1.106.291 1.112.277 1.049.248M392.477 571l1.11.096 1.218.079 1.225.081 1.215.056 1.216.048 1.221.033 1.219.023 1.208.008h1.215l1.217-.016 1.208-.032 1.21-.039 1.206-.056 1.2-.073 1.193-.08 1.19-.095 1.185-.106 1.183-.119 1.166-.128 1.164-.143 1.15-.161 1.145-.168 1.136-.175 1.128-.193 1.119-.208 1.112-.215 1.098-.232 1.086-.244 1.073-.245 1.065-.263 1.047-.281 1.041-.281 1.016-.295 1.008-.31.992-.325.974-.324.96-.336.945-.352.928-.36.92-.369.893-.384.883-.39.865-.4.839-.41.824-.416.81-.424.78-.433.762-.438.752-.45.719-.46.713-.468.687-.471.664-.48.649-.487.623-.496.6-.504.578-.504.558-.52.536-.513.512-.527.488-.529.473-.528.44-.543.424-.542.4-.546.375-.56.352-.552.336-.56.305-.56.287-.568.258-.569.239-.57.208-.574.176-.528.161-.536.135-.528.112-.536.096-.536.079-.536.057-.535.032-.546M454.844 534.056l.32.513.352.591.32.593.305.59.28.598.248.614.238.597.209.608.187.608.158.615.143.61.104.576.09.575.063.568.047.584.024.576v.579l-.016.576M161.365 463.056l197.337 99.086M149.125 448.927l.032.467.048.461.07.467.1.454.117.464.138.466.158.454.176.466.209.454.224.448.239.456.27.45.282.446.313.442.328.438.344.435.368.43.39.431.41.426.432.424.456.416.464.416.495.405.514.412.527.387.55.401.513.353.537.354.55.344.569.344.584.333.601.337.608.33.624.318" style="fill:none;stroke:#00ff4a;stroke-width:1.99999;stroke-linecap:round;stroke-linejoin:round;stroke-miterlimit:4;stroke-dasharray:none;stroke-opacity:1;visibility:visible"/><path d="m215.14 423.84.49.057.974.102.959.122.969.119.95.135.947.146.544.078M152.413 456.48l.032-.081.232-.508.239-.508.264-.503.281-.487.297-.488.319-.489.328-.475.353-.469.358-.455.425-.512.447-.505.464-.496.481-.487.504-.489.521-.472.535-.463.559-.456.568-.457.593-.44.6-.44.624-.425.624-.407.641-.407.656-.401.672-.392.687-.384.696-.377.72-.366.728-.36.736-.354.761-.343.767-.344.776-.328.792-.319.8-.312.815-.313.833-.296.839-.288.849-.288.864-.272.87-.263.882-.257.896-.248.895-.24.913-.232.91-.224.92-.217.922-.202.928-.188.936-.192.944-.178.943-.167.96-.15.96-.154.96-.144.976-.127.969-.12.975-.122.985-.103.976-.09.976-.085.985-.072.975-.073.984-.055.99-.05.985-.039.984-.032.99-.016.987-.015h.983l.984.007.984.017.976.023.977.039.968.042.967.056.969.064.96.072.96.079.961.088.948.104.946.104.937.12.928.127.93.13.917.142.913.153.904.168.894.168.888.183.888.185.872.2.866.21.857.205.847.225.84.232.825.241.805.247.811.255.783.266.784.274.766.277.754.288.744.305.736.304.71.311.707.319 141.798 65.872M394.18 515.128l30.11 13.99M208.764 156.527l-.312-.093-.295-.106-.256-.112-.232-.118-.193-.12-.161-.13-.127-.128-.096-.128-.056-.126-.023-.138M220.651 155.12l-.016.136-.056.139-.087.133-.118.128-.162.137-.192.119-.224.127-.256.121-.289.112-.31.112-.345.096-.376.096-.39.09-.418.078-.433.081-.447.064-.464.048-.48.046-.486.041-.49.025-.504.015-.496.01h-.496l-.496-.018-.488-.023-.481-.033-.463-.04-.454-.048-.432-.064-.419-.064-.4-.08-.367-.079-.352-.098M476.245 435.714l-.065.168-.039.175-.033.169-.015.168" style="fill:none;stroke:#00ff4a;stroke-width:.999997;stroke-linecap:round;stroke-linejoin:round;stroke-miterlimit:4;stroke-dasharray:none;stroke-opacity:1;visibility:visible"/><path d="m475.98 436.634.008.232.033.223.063.208.096.185.112.15.13.12.151.089.168.048.16.017.16-.024.159-.05.155-.08.141-.12.147-.142.134-.177.111-.191.099-.195.077-.2.081-.205.056-.225.056-.231.039-.225.025-.216.018-.208.006-.184-.006-.183-.024-.17-.032-.15-.051-.13-.055-.105-.064-.078-.08-.058-.104-.037-.118-.017-.138.024-.134.04-.154.07-.153.099-.168.117-.16.146-.093.088-.09.094-.168.2-.152.218-.137.232-.119.249-.048.125-.048.13-.032.129-.024.127-.033.241M490.116 232.21l-.032.185-.07.175-.122.175-.15.177-.203.168-.236.161-.282.15-.313.142-.35.139-.383.128-.418.113-.442.102-.47.097-.497.08-.517.072-.54.055-.551.041-.565.03-.579.018h-.584l-.583-.01-.593-.025-.584-.038-.583-.047-.568-.064-.56-.08-.544-.087-.529-.105-.51-.11-.482-.123-.464-.135-.424-.136-.401-.152-.367-.161-.337-.16-.296-.167-.263-.176-.216-.185-.185-.175-.135-.184-.096-.192-.056-.181-.005-.186M383.63 418.641l-.21-.065-.202-.039h-.188l-.179.039-.149.073-.13.104-.111.143-.096.177-.063.193-.041.207-.026.232v.236l.016.259.04.265.067.261.077.256.088.234.107.209.119.199.133.192.155.168.168.137.176.12.176.081.174.054.192.032h.184l.195-.032.175-.064.158-.08.152-.111.128-.137.13-.168.104-.192.069-.216.043-.223.014-.224-.014-.239-.048-.25-.08-.247-.056-.128-.064-.137-.152-.255-.168-.224-.192-.225-.104-.102-.106-.098-.112-.088-.11-.079-.111-.073-.115-.074-.213-.101M392.245 477.594l-.081.183-.071.192-.048.184-.032.19-.016.184" style="fill:none;stroke:#00ff4a;stroke-width:.999997;stroke-linecap:round;stroke-linejoin:round;stroke-miterlimit:4;stroke-dasharray:none;stroke-opacity:1;visibility:visible"/><path d="m391.852 478.8.01.239.046.233.072.217.113.182.127.161.155.121.166.086.183.05.183.008.186-.025.175-.055.168-.096.168-.126.161-.163.143-.181.13-.211.103-.207.095-.209.08-.224.064-.24.056-.239.041-.238.024-.227.007-.216v-.199l-.016-.19-.03-.17-.04-.154-.057-.134-.073-.105-.079-.08-.105-.053-.12-.032-.136-.011-.15.025-.16.056-.167.072-.17.104-.184.134-.177.153-.103.097-.094.103-.186.216-.158.224-.146.248-.126.263-.051.136-.047.138-.032.127-.024.135-.025.257M380.245 585.322v.16l.016.173.021.178.042.174.05.176.063.186.079.174.089.168.097.17.103.158.11.155.122.144.135.144.144.135.153.121.167.117.152.099.17.085.166.075.168.061.169.051.175.04.169.024.175.015h.178l.175-.008.175-.024.174-.04.17-.05.169-.056.159-.07.153-.08.264-.167.232-.193.216-.223.173-.25.084-.127.072-.136.056-.143.047-.137.039-.146.025-.133.016-.147.007-.133-.015-.273-.025-.136-.031-.136-.048-.127-.057-.137-.136-.25-.168-.229-.2-.216-.222-.195-.257-.168-.144-.085-.153-.09-.16-.073-.168-.061-.168-.065-.167-.058-.176-.037-.167-.041-.169-.032-.168-.024-.168-.015-.167-.01h-.169l-.159.01-.169.015-.153.024-.175.038-.16.043-.153.056-.143.07-.128.073-.12.081-.121.096-.103.093-.097.122-.087.121-.072.136-.056.135-.057.153-.032.15-.024.16-.007.162M401.844 264.08l-.03.21-.073.207-.121.199-.159.201-.209.192-.247.184-.289.184-.328.168-.367.16-.401.154-.432.142-.464.127-.495.115-.521.102-.55.098-.562.072-.583.061-.6.04-.608.033-.617.016h-.615l-.625-.016-.625-.024-.607-.049-.61-.061-.59-.072-.584-.09-.559-.104-.537-.112-.513-.128-.487-.146-.456-.148-.432-.162-.39-.166-.353-.178-.322-.192-.279-.19-.23-.194-.194-.208-.15-.208-.114-.2-.055-.214-.025-.21M125.716 312.608l-.152-.048-.135-.017-.128.017-.113.048-.096.073-.079.103-.054.137-.052.159-.031.176-.008.195v.198l.008.207.025.224.039.224.057.223.063.226.073.186.071.173.097.168.095.153.112.136.123.112.126.088.126.063.138.04.127.019.135-.019.137-.032.128-.064.113-.08.103-.104.088-.12.088-.16.065-.176.04-.184.015-.199v-.201l-.03-.21-.051-.205-.078-.216-.049-.121-.055-.112-.128-.216-.137-.192-.152-.183-.088-.08-.08-.078-.087-.072-.08-.067-.086-.063-.083-.046-.16-.083M131.365 459.451l.01.135.014.128.016.118.025.104.022.088.032.072.032.064.042.047.039.033.05.026.035.006.05-.006.049-.026.05-.033.038-.039.047-.054.032-.058.04-.073.033-.07.032-.089.03-.102.026-.106.016-.11.016-.123.008-.127.01-.129-.01-.127v-.134l-.016-.136-.017-.146-.023-.15-.032-.152-.03-.16-.043-.168-.047-.16-.048-.162-.05-.16-.046-.15-.056-.147-.048-.15-.063-.16-.057-.154-.057-.15-.055-.135-.056-.138-.047-.12-.042-.102-.039-.098M119.315 179.688l-.285-.096-.266-.112-.232-.11-.206-.114-.178-.12-.142-.128-.123-.125-.087-.13-.048-.136-.022-.126M132.133 178.007l-.017.145-.047.152-.09.151-.127.145-.159.144-.2.146-.232.136-.264.136-.295.134-.328.122-.361.12-.383.112-.412.105-.43.095-.455.089-.472.079-.487.072-.497.062-.512.05-.521.038-.518.026-.529.022-.521.008-.518-.008-.522-.016-.503-.021-.497-.035-.478-.048-.456-.056-.45-.062-.422-.082-.393-.078-.376-.096-.345-.106" style="fill:none;stroke:#00ff4a;stroke-width:.999997;stroke-linecap:round;stroke-linejoin:round;stroke-miterlimit:4;stroke-dasharray:none;stroke-opacity:1;visibility:visible"/><path d="m467.469 372.505-.039-.05-.049-.031-.032-.026-.041-.004-.032-.009-.04.01" style="fill:none;stroke:#00ff4a;stroke-width:1.99999;stroke-linecap:round;stroke-linejoin:round;stroke-miterlimit:4;stroke-dasharray:none;stroke-opacity:1;visibility:visible"/><path d="m473.508 374.712-.528-.06-.528-.083-.512-.088-.495-.112-.486-.112-.467-.136-.44-.144-.421-.153-.402-.168-.368-.175-.345-.176-.304-.193-.28-.2-.25-.2-.213-.207M474.716 375.744l-.008-.141-.039-.147-.065-.128-.081-.112-.087-.093-.103-.09-.104-.07-.121-.074-.135-.057-.144-.056-.16-.037-.161-.027M474.077 387.912l.639-12.168" style="fill:none;stroke:#00ff4a;stroke-width:.999997;stroke-linecap:round;stroke-linejoin:round;stroke-miterlimit:4;stroke-dasharray:none;stroke-opacity:1;visibility:visible"/><path d="m473.508 388.634.161-.09.128-.095.104-.112.079-.12.064-.138.017-.085.016-.083M467.236 372.395l-69.662 31.623M473.508 388.634l-76.56 35.759M138.358 317.714v.11l.007.043v.087l.009.045M137.86 306.594l.497 11.12M137.844 306.25v.061l.008.056v.112l.01.058v.056M210.052 278.216l-.016-.023-.015-.024-.016-.009-.008-.007-.008-.009h-.016" style="fill:none;stroke:#00ff4a;stroke-width:1.99999;stroke-linecap:round;stroke-linejoin:round;stroke-miterlimit:4;stroke-dasharray:none;stroke-opacity:1;visibility:visible"/><path d="m214.483 279.84-.437-.047-.416-.054-.411-.075-.39-.08-.377-.088-.35-.096-.338-.104-.312-.113-.28-.119-.257-.127-.233-.138-.206-.134-.169-.153-.143-.144-.112-.152M215.548 280.729l-.017-.12-.048-.128-.054-.112-.08-.103-.081-.081-.088-.072-.097-.073-.104-.055-.111-.045-.12-.05-.136-.034-.13-.015M215.78 291.45l-.232-10.723M215.212 292.143l.161-.072.135-.087.104-.093.09-.121.03-.072.032-.082.016-.078v-.087" style="fill:none;stroke:#00ff4a;stroke-width:.999997;stroke-linecap:round;stroke-linejoin:round;stroke-miterlimit:4;stroke-dasharray:none;stroke-opacity:1;visibility:visible"/><path d="m209.974 278.144-72.312 23.89M215.212 292.143l-76.832 26.099M463.548 439.266l.592-11.728M463.523 439.665v-.056l.008-.055v-.057l.01-.063v-.074l.007-.094M464.14 427.538v-.097l.008-.098v-.086l.01-.096v-.095l.006-.104" style="fill:none;stroke:#00ff4a;stroke-width:1.99999;stroke-linecap:round;stroke-linejoin:round;stroke-miterlimit:4;stroke-dasharray:none;stroke-opacity:1;visibility:visible"/><path d="m143.844 465.233.008.161.017.144.023.151.033.136.034.117.028.124.044.11.046.106.087.174.088.153.097.121.096.103.095.08.096.065.097.039.047.01h.04M143.596 459.738l.216 4.823.032.672M144.469 454.889v.128l-.008.144-.016.161-.024.175-.033.175-.039.184-.041.194-.047.207-.048.184-.05.193-.055.191-.047.2-.056.192-.057.2-.047.208-.057.216-.056.23-.047.234-.048.233-.03.223-.043.256-.015.25-.008.238v.233M460.397 548.175l.239-.048.24-.077.208-.108.208-.118.185-.136.173-.16.163-.185.145-.19.134-.231.105-.258.039-.142.032-.154.024-.152.016-.16.304-5.942M462.612 540.113v-.248l-.025-.257-.047-.266-.064-.262-.088-.248-.096-.256-.119-.248-.121-.239-.13-.224-.125-.216-.136-.21-.13-.198-.143-.203-.137-.188-.15-.201-.142-.195-.162-.198-.166-.2-.155-.186-.161-.182-.167-.183-.161-.177-.151-.159-.143-.136" style="fill:none;stroke:#00ff4a;stroke-width:.999997;stroke-linecap:round;stroke-linejoin:round;stroke-miterlimit:4;stroke-dasharray:none;stroke-opacity:1;visibility:visible"/><path d="m458.997 534.08-.075-.159-.046-.126-.04-.098-.024-.073-.015-.063-.01-.038M459.052 534.184l-.03-.056-.025-.048" style="fill:none;stroke:#00ff4a;stroke-width:1.99999;stroke-linecap:round;stroke-linejoin:round;stroke-miterlimit:4;stroke-dasharray:none;stroke-opacity:1;visibility:visible"/><path d="m459.693 535.033-.192-.21-.177-.206-.152-.219-.119-.214" style="fill:none;stroke:#00ff4a;stroke-width:.999997;stroke-linecap:round;stroke-linejoin:round;stroke-miterlimit:4;stroke-dasharray:none;stroke-opacity:1;visibility:visible"/><path d="m148.557 453.143-4.144.497M149.436 466.466l-4.616.56M457.092 560.962l-.04.615-.065.622-.095.618-.112.617-.145.616-.159.615-.185.608-.215.609-.233.607-.264.601-.278.592-.304.6-.328.584-.354.584-.367.575-.4.576-.416.569-.44.559-.463.561-.489.55-.51.554-.529.536-.553.536-.576.53-.593.515-.606.514-.642.513-.663.501-.68.49-.707.489-.724.479-.745.472-.76.465-.783.457-.801.438-.824.44-.832.425-.855.415-.874.409-.887.399-.915.384-.924.374-.945.37-.961.36-.968.346-.99.334-1.01.328-1.015.313-1.032.303-1.05.288-1.054.273-1.07.27-1.083.249-1.096.246-1.103.235-1.112.215-1.128.206-1.135.195-1.154.185-1.15.166-1.16.152-1.177.145-1.177.127-1.175.12-1.192.102-1.19.09-1.194.078-1.207.067-1.209.057-1.208.039-1.216.023-1.223.017h-1.216l-1.225-.017-1.216-.023-1.224-.039-1.216-.057-1.216-.067-1.217-.077-1.214-.097-.697-.055M457.092 560.962l.624-12.41M376.54 586.195l-.439-.105-1.122-.28-1.119-.287-1.103-.307-1.096-.312-1.082-.32-1.071-.333-1.056-.345-1.04-.362-1.032-.369-1.016-.375-.967-.366-.961-.383-.944-.401-.928-.399-.913-.41-.903-.423-.88-.423-.863-.44M436.516 519.8l.88.408.872.425.856.423.84.44.824.441.816.456.793.463.775.465.768.479.743.481.722.488.711.498.69.501.671.513.647.512.635.519.616.528.589.528.577.544.56.543.535.544.513.562.498.56.469.56.457.57.432.573.408.575.384.585.047.072M161.635 478.889l196.369 100.666M148.374 448.977l-.01-.481.01-.479.03-.48.057-.487.072-.481.097-.48.119-.481.134-.472.163-.48.173-.472.2-.471.216-.473.234-.464.264-.464.272-.462.297-.456.31-.456.337-.458.353-.455.375-.44.384-.45.416-.44.425-.43.439-.433.464-.434.477-.421.497-.416.523-.424.533-.41.554-.415.569-.4.583-.399.6-.4.624-.385.632-.386.649-.381.661-.368.682-.368.688-.36.702-.355.728-.35.739-.344.743-.336.769-.328.775-.32.793-.322.799-.31.809-.304.83-.296.834-.288.847-.279.857-.273.863-.264.872-.256.889-.258.895-.24.904-.237.912-.224.926-.225.93-.206.937-.21.95-.19.954-.194.948-.176.97-.176.96-.162.977-.149.984-.144.985-.144.99-.13.993-.12 1-.114 1-.101 1.008-.096 1-.079 1.009-.08 1.015-.063 1.006-.068 1.01-.046 1.016-.04 1.008-.04 1.017-.023 1.016-.016h2.024l1.012.008 1.01.024 1.01.021 1.007.042 1 .05.993.055.99.065.99.07.988.081.981.09.49.045M220.974 424.6l.4.065.928.159.917.17.914.175.913.183.895.192.889.2.887.21.862.215.867.224.856.232.839.24.822.239.816.256.81.265.792.274.726.254.723.264.703.274.696.27.678.29.672.288.666.293M161.635 478.889l-.688-.367-.672-.369-.656-.376-.64-.383-.621-.386-.6-.399-.595-.401-.559-.407-.552-.417-.528-.415-.504-.425-.488-.431-.472-.432-.449-.43-.424-.45-.408-.44-.383-.455-.366-.454-.348-.456-.324-.468-.306-.472-.288-.462-.264-.482-.24-.471-.224-.48-.201-.48-.167-.473-.153-.47-.079-.272M239.245 429.832l139.678 63.705M394.62 500.696l41.896 19.104M457.716 548.552l2.681-.377M454.844 534.056l3.944-.55M148.374 448.977l.184 4.165M220.651 155.12l3.441 171.897M224.445 344.337l.07 3.888M224.702 357.208l.079 4.132M224.964 370.625l.088 4.375M225.245 384.608l.096 4.643M225.813 412.889l.256 12.68M207.013 155.327l2.919 122.833M210.307 293.816l1.105 46.544M211.62 349.104l.096 3.92M211.932 362.066l.097 4.15M212.251 375.561l.107 4.4M213.005 407.136l.39 16.545M207.013 155.327v-.216l.008-.215.01-.214.02-.216.026-.219.03-.215.034-.208.048-.206.056-.219.057-.207.063-.198.07-.21.073-.201.088-.199.086-.19.098-.196.102-.19.107-.184.119-.184.112-.174.129-.176.128-.178.135-.158.146-.171.143-.15.15-.151.154-.155.16-.143.167-.136.17-.134.167-.13.183-.118.177-.114.184-.11.19-.107.186-.095.2-.096.19-.077.2-.083.2-.08.21-.064.2-.057.208-.057.208-.046.215-.041.209-.03.216-.033.207-.017.217-.016.213-.007h.219l.215.007.206.016.219.025.217.026.206.029.216.041.209.046.207.057.209.064.2.065.2.072.2.083.199.085.193.098.192.094.19.104.186.111.183.113.176.127.177.12.168.136.167.139.161.142.16.154.15.149.145.161.145.16.136.168.135.168.128.176.12.176.114.184.111.194.103.181.096.193.097.199.087.201.073.199.079.2.065.21.064.207.047.208.049.207.047.219.032.216.024.214.026.208.016.218.006.214M472.708 548.927l-.039.267-.073.261-.113.267-.142.246-.193.248-.216.234-.255.222-.297.216-.32.202-.352.182-.375.168-.41.154-.431.134-.456.122-.472.104-.488.08-.504.062-.52.047-.52.025h-.535l-.529-.016-.536-.03-.535-.056-.529-.072-.52-.096-.504-.114-.496-.129-.48-.15-.456-.162-.439-.173-.416-.202-.384-.2-.361-.226-.336-.23-.296-.241-.275-.247-.228-.256-.194-.264-.16-.265-.127-.27-.08-.273M490.116 232.21l-17.408 316.718M474.03 231.538l-7.124 141.005M465.915 392.177l-1.75 34.785M463.523 439.665l-4.736 93.857M474.03 231.538l.015-.25.024-.254.033-.25.039-.246.046-.248.058-.25.062-.246.074-.24.08-.241.088-.24.086-.231.106-.233.11-.232.112-.224.12-.226.136-.213.139-.217.144-.208.144-.208.159-.198.158-.194.17-.192.174-.183.176-.176.186-.176.192-.168.198-.161.202-.16.208-.151.208-.147.214-.134.218-.128.225-.119.224-.121.23-.104.233-.103.23-.097.242-.087.238-.08.248-.075.25-.061.24-.059.256-.045.249-.04.245-.032.258-.024.254-.025.248-.008h.256l.258.008.248.014.257.027.247.023.248.036.256.053.238.045.248.066.242.072.248.074.233.086.237.088.235.102.221.107.232.11.219.123.213.128.218.134.208.144.206.145.202.15.192.16.19.169.186.169.174.185.17.182.168.185.16.19.16.2.144.209.142.208.128.208.128.217.128.221.115.226.103.23.094.227.099.241.079.232.078.239.074.248.054.24.059.247.047.249.032.247.03.245.026.259.014.25v.503l-.008.255M391.724 595.473l-.03.304-.063.295-.115.297-.152.287-.192.282-.224.27-.265.258-.303.248-.336.24-.361.215-.4.207-.422.185-.448.17-.481.15-.487.127-.522.114-.526.086-.536.065-.553.05-.559.02h-.569l-.56-.02-.56-.042-.559-.073-.542-.086-.54-.105-.518-.128-.513-.15-.48-.17-.463-.185-.44-.2-.418-.223-.383-.232-.352-.247-.321-.257-.286-.27-.248-.282-.209-.288-.176-.296-.136-.295-.088-.304-.055-.306-.018-.303M401.844 264.08l-10.12 331.392M384.836 263.673l.016-.264.016-.265.033-.272.031-.264.047-.264.052-.263.061-.256.072-.263.072-.256.087-.249.096-.257.097-.247.115-.24.11-.241.127-.239.13-.232.143-.232.142-.225.153-.222.16-.217.168-.208.168-.199.184-.201.187-.2.189-.183.19-.186.21-.175.21-.168.206-.16.224-.157.217-.146.23-.145.233-.136.233-.128.238-.119.249-.114.248-.102.25-.096.247-.088.255-.08.264-.072.256-.064.264-.054.263-.051.266-.039.263-.033.265-.024.271-.016.264-.007h.272l.264.015.272.016.264.033.265.032.262.039.265.055.257.065.264.064.255.083.25.077.254.095.25.105.238.105.24.119.24.12.23.13.226.142.232.145.215.148.217.163.21.168.198.168.2.176.193.192.19.185.177.2.175.2.169.207.16.216.152.217.152.223.135.224.137.233.128.24.115.24.11.239.104.25.096.245.088.257.079.256.072.256.065.257.048.263.048.264.039.264.032.264.017.272.015.263v.536M384.836 263.673l-8.521 331.207M131.396 456.897l.01.225v.688l-.01.208-.008.215-.008.201-.007.191-.008.208-.006.201v.218l.006.2M131.276 455.968l.03.13.027.134.016.144.024.147.015.173.008.2M131.276 455.968l-.03-.085-.027-.074-.015-.049-.01-.047-.014-.032v-.017M133.341 471.112l-.264-.15-.248-.154-.217-.167-.191-.174-.17-.178-.135-.192-.111-.192-.08-.192-.056-.202-.025-.199" style="fill:none;stroke:#00ff4a;stroke-width:1.99999;stroke-linecap:round;stroke-linejoin:round;stroke-miterlimit:4;stroke-dasharray:none;stroke-opacity:1;visibility:visible"/><path d="m145.083 468.6-.007.217-.046.223-.072.227-.115.222-.141.215-.187.208-.208.216-.239.2-.272.195-.296.189-.329.177-.35.167-.37.152-.399.144-.417.137-.423.119-.448.105-.457.087-.472.072-.47.065-.482.04-.487.031-.481.01-.479-.01-.473-.013-.463-.04-.454-.056-.442-.067-.433-.088-.407-.093-.39-.123-.37-.12-.342-.141-.322-.155M132.133 178.007l5.71 128.244M138.374 317.999l1.759 39.505M140.901 374.753l3.568 80.136M145.013 467l.07 1.6M117.725 178.49l13.455 277.174M131.365 459.451l.479 9.861M117.725 178.49l-.01-.233v-.224l.01-.234.007-.224.025-.224.03-.222.033-.223.041-.224.047-.227.056-.214.066-.218.071-.214.079-.216.08-.21.089-.208.096-.198.103-.202.113-.198.112-.195.119-.188.129-.187.136-.182.135-.175.144-.177.15-.168.163-.162.159-.16.161-.15.176-.151.175-.144.176-.139.184-.126.184-.131.193-.119.201-.112.199-.102.2-.104.207-.087.209-.09.207-.078.216-.081.216-.066.218-.062.215-.048.224-.05.224-.038.223-.032.225-.024.223-.016.232-.015h.449l.23.015.226.016.224.024.223.032.225.038.224.04.223.058.216.056.216.072.216.072.214.081.211.085.208.09.207.102.2.106.2.113.193.119.19.129.193.128.184.132.177.147.175.145.168.15.17.16.158.16.152.169.152.176.144.176.137.184.135.184.128.192.12.192.112.193.112.199.097.208.096.208.095.208.081.217.072.204.07.217.063.224.058.216.046.227.044.223.039.222.023.227.024.23.017.223" style="fill:none;stroke:#00ff4a;stroke-width:1.99999;stroke-linecap:round;stroke-linejoin:round;stroke-miterlimit:4;stroke-dasharray:none;stroke-opacity:1;visibility:visible"/><path d="m219.2 428.57-.177.887M213.396 427.826l-.18.881M213.647 427.368a.83.83 0 0 0-.252.46M219.2 428.571a.707.707 0 0 0-.06-.496M219.14 428.076a1.907 1.907 0 0 0-.726-.788M218.414 427.287a4.357 4.357 0 0 0-1.794-.632c0 .005-.007.001-.007.001a4.779 4.779 0 0 0-1.966.146M214.647 426.802a2.36 2.36 0 0 0-1 .565M218.767 429.914a.813.813 0 0 0 .254-.456M218.529 430.114c.08-.064.158-.127.24-.2M213.215 428.708a.73.73 0 0 0 .06.498" style="fill:none;stroke:#00ff4a;stroke-width:.666665;stroke-linecap:round;stroke-linejoin:round;stroke-miterlimit:4;stroke-dasharray:none;stroke-opacity:1;visibility:visible"/><path d="M214.223 432.36a.861.861 0 0 0 .112.15.787.787 0 0 0 .243.202s.559.475 1.795.268a1.04 1.04 0 0 0 .466-.229M216.84 432.751a.352.352 0 0 0 .116-.196.299.299 0 0 0-.037-.217M216.92 432.338c-.008-.015-.018-.024-.023-.036a.956.956 0 0 0-.334-.318M216.563 431.984a2.52 2.52 0 0 0-.865-.302 3.09 3.09 0 0 0-.333-.026c-.202 0-.399.02-.6.062M214.765 431.72a.272.272 0 0 0-.052.011M214.71 431.731a1.084 1.084 0 0 0-.375.19c-.013.011-.025.026-.038.034M214.506 430.822a.307.307 0 0 0-.112.19.287.287 0 0 0 .037.215M214.433 431.227a.853.853 0 0 0 .112.153.787.787 0 0 0 .242.2M216.583 431.846a1.123 1.123 0 0 0 .467-.228M217.049 431.618a.347.347 0 0 0 .117-.196.3.3 0 0 0-.036-.218M217.129 431.204c-.007-.014-.016-.022-.023-.034a.91.91 0 0 0-.288-.287.195.195 0 0 0-.045-.03M216.773 430.852a2.52 2.52 0 0 0-.866-.302 2.805 2.805 0 0 0-.334-.026 2.861 2.861 0 0 0-.599.062M214.974 430.586a.204.204 0 0 0-.052.014M214.92 430.602a1.067 1.067 0 0 0-.376.188c-.014.01-.026.025-.038.033M213.766 431.2a.216.216 0 0 0 .016.033M213.782 431.234a1.484 1.484 0 0 0 .528.522M216.969 432.148a1.65 1.65 0 0 0 .691-.34M213.542 430.5c-.005.031-.012.066-.008.095 0 .08.016.159.05.223M218.003 431.476a.547.547 0 0 0 .155-.294" style="fill:none;stroke:#00ff4a;stroke-width:.666665;stroke-linecap:round;stroke-linejoin:round;stroke-miterlimit:2;stroke-dasharray:none;stroke-opacity:1;visibility:visible"/><path d="M214.298 431.954a.293.293 0 0 0-.112.19.29.29 0 0 0 .037.214M213.767 431.197l-.02-.037-.163-.344M217.691 431.78l.312-.305M213.974 428.228l1.119-.735M215.092 427.493l.36.055.988.145.335.048 1.03.153M217.806 427.894l.463.6.321.42M217.377 430.162c.133.445.413.81.781 1.021" style="fill:none;stroke:#00ff4a;stroke-width:.666665;stroke-linecap:round;stroke-linejoin:round;stroke-miterlimit:2;stroke-dasharray:none;stroke-opacity:1;visibility:visible"/><path d="M213.682 430.46c.375-.119.716-.36.979-.7" style="fill:none;stroke:#00ff4a;stroke-width:.666665;stroke-linecap:round;stroke-linejoin:round;stroke-miterlimit:4;stroke-dasharray:none;stroke-opacity:1;visibility:visible"/><path d="M214.66 429.76a6.056 6.056 0 0 0 1.415.36c.426.06.86.073 1.302.04M213.542 430.5c.048-.012.092-.026.139-.04M218.59 428.914l-.063.33-.368 1.935M213.974 428.228l-.43 2.27M217.806 427.894l-.187.973-.016.092-.225 1.2M215.092 427.493l-.388 2.036-.043.23" style="fill:none;stroke:#00ff4a;stroke-width:.666665;stroke-linecap:round;stroke-linejoin:round;stroke-miterlimit:2;stroke-dasharray:none;stroke-opacity:1;visibility:visible"/><path d="m453.928 540.484-.675.088M453.262 534.714l-.67.083M453.927 540.485a.48.48 0 0 0 .343-.2M454.27 540.285a2.1 2.1 0 0 0 .418-.918M454.687 539.368a5.742 5.742 0 0 0 .085-1.903l-.002-.008M452.874 540.459a.493.493 0 0 0 .378.114M452.679 540.288c.061.057.124.116.195.17M452.59 534.797a.493.493 0 0 0-.346.2" style="fill:none;stroke:#00ff4a;stroke-width:.666665;stroke-linecap:round;stroke-linejoin:round;stroke-miterlimit:4;stroke-dasharray:none;stroke-opacity:1;visibility:visible"/><path d="M451.37 535.625c-.026.005-.051.008-.071.02a.341.341 0 0 0-.15.111M451.592 540.177a.323.323 0 0 0 .244.063M450.482 536.767a.184.184 0 0 0-.16-.052.21.21 0 0 0-.148.097M450.172 536.812a1.059 1.059 0 0 0-.085.152.933.933 0 0 0-.095.29s-.226.67.18 1.794a.95.95 0 0 0 .26.382M450.434 539.43a.205.205 0 0 0 .166.054.21.21 0 0 0 .147-.097M450.748 539.388c.01-.01.014-.02.023-.03a1.2 1.2 0 0 0 .157-.414M450.927 538.945a3.343 3.343 0 0 0-.012-1.242 3.396 3.396 0 0 0-.17-.556M450.746 537.147a.336.336 0 0 0-.02-.047M450.726 537.099a1.053 1.053 0 0 0-.214-.306.094.094 0 0 1-.03-.026M450.912 536.041l-.021.026M450.892 536.065a1.725 1.725 0 0 0-.238.526c-.011.042-.02.086-.028.129M450.892 539.38c.09.221.224.416.388.565M450.914 536.04l.024-.03.213-.254M451.307 539.965l.287.212M453.094 535.382l.759.86M453.853 536.242l.035.361.101.987.035.335.102 1.032" style="fill:none;stroke:#00ff4a;stroke-width:.666665;stroke-linecap:round;stroke-linejoin:round;stroke-miterlimit:2;stroke-dasharray:none;stroke-opacity:1;visibility:visible"/><path d="m454.126 538.956-.335.615-.237.429M452.408 539.199a1.828 1.828 0 0 0-.572 1.041" style="fill:none;stroke:#00ff4a;stroke-width:.666665;stroke-linecap:round;stroke-linejoin:round;stroke-miterlimit:2;stroke-dasharray:none;stroke-opacity:1;visibility:visible"/><path d="M451.428 535.748c.162.325.406.584.706.736" style="fill:none;stroke:#00ff4a;stroke-width:.666665;stroke-linecap:round;stroke-linejoin:round;stroke-miterlimit:4;stroke-dasharray:none;stroke-opacity:1;visibility:visible"/><path d="M452.135 536.483a7.893 7.893 0 0 0 .033 1.456 7.64 7.64 0 0 0 .24 1.26M451.37 535.625c.018.043.036.08.058.122M453.555 540l-.25.035-1.467.205M453.094 535.382l-1.723.243M454.126 538.956l-.739.103-.068.009-.91.13M453.853 536.242l-1.544.215-.173.025" style="fill:none;stroke:#00ff4a;stroke-width:.666665;stroke-linecap:round;stroke-linejoin:round;stroke-miterlimit:2;stroke-dasharray:none;stroke-opacity:1;visibility:visible"/><path d="m125.659 314.021.541.207-.229.542M383.513 420.325l.583.195-.259.712M381.966 586.038l1.24-.584.73 1.095" style="fill:none;stroke:#00ff4a;stroke-width:.666665;stroke-linecap:round;stroke-linejoin:round;stroke-miterlimit:4;stroke-dasharray:none;stroke-opacity:1;visibility:visible"/><path d="m477.596 436-.666.111.333.89M393.484 477.888l-.554.444.444.446" style="fill:none;stroke:#00ff4a;stroke-width:.666665;stroke-linecap:round;stroke-linejoin:round;stroke-miterlimit:10;stroke-dasharray:none;stroke-opacity:1;visibility:visible"/><path d="M425.216 519.972a.333.333 0 0 0-.222-.046" style="fill:none;stroke:#00ff4a;stroke-width:.666665;stroke-linecap:round;stroke-linejoin:round;stroke-miterlimit:2;stroke-dasharray:none;stroke-opacity:1;visibility:visible"/><path d="m394.62 500.696-16.169-4.635M378.556 507.87l15.992-4.774" style="fill:none;stroke:#00ff4a;stroke-width:.666665;stroke-linecap:round;stroke-linejoin:round;stroke-miterlimit:4;stroke-dasharray:none;stroke-opacity:1;visibility:visible"/><path d="m150.116 458.953 4.904.054M453.928 540.484l3.718.324M450.482 536.767l-2.616 6.991M458.116 548.496l-4.409 5.2M394.548 503.096l-15.992 4.775M378.556 507.87l15.624 7.258M429.992 519.316l-5.701 9.803M383.513 420.325l.117-1.684M376.315 594.88l3.93-9.558M391.724 595.473l-11.479-10.151M125.659 314.021l.057-1.413" style="fill:none;stroke:#00ff4a;stroke-width:.999997;stroke-linecap:round;stroke-linejoin:round;stroke-miterlimit:4;stroke-dasharray:none;stroke-opacity:1;visibility:visible"/><path d="m148.78 453.122-4.367.518M394.62 500.696l-15.697-7.159M378.451 496.06l16.169 4.636M224.445 344.337l-.353-17.32M211.412 340.36l13.033 3.977M224.702 357.208l-.186-8.983M224.516 348.225l.186 8.983M224.964 370.625l-.183-9.285M224.78 361.34l.184 9.285M225.245 384.608l-.193-9.608M225.052 375l.193 9.608M224.964 370.625l.377 18.626M213.396 423.681l12.417-10.792M215.78 291.45l-5.473 2.366M211.62 349.104l-.208-8.744M211.412 340.36l.208 8.744M211.932 362.066l-.216-9.042M211.716 353.024l.216 9.042M212.251 375.561l-.222-9.344M212.03 366.217l.221 9.344M225.245 384.608l-12.887-4.647M225.813 412.889l-12.417 10.792M474.077 387.912l-8.162 4.265M140.901 374.753l-.768-17.249M140.133 357.504l.768 17.249" style="fill:none;stroke:#00ff4a;stroke-width:1.99999;stroke-linecap:round;stroke-linejoin:round;stroke-miterlimit:4;stroke-dasharray:none;stroke-opacity:1;visibility:visible"/><path d="m452.408 539.199 2.362-1.742M125.716 312.608l-.057 1.413M383.63 418.641l-.117 1.684" style="fill:none;stroke:#00ff4a;stroke-width:.666665;stroke-linecap:round;stroke-linejoin:round;stroke-miterlimit:4;stroke-dasharray:none;stroke-opacity:1;visibility:visible"/><path d="m397.35 411.216-16.248-2.2" style="fill:none;stroke:red;stroke-width:.999997;stroke-linecap:round;stroke-linejoin:round;stroke-miterlimit:4;stroke-dasharray:none;stroke-opacity:1;visibility:visible" visibility="hidden"/><path d="m378.923 493.537.305-11.743" style="fill:none;stroke:red;stroke-width:1.99999;stroke-linecap:round;stroke-linejoin:round;stroke-miterlimit:4;stroke-dasharray:none;stroke-opacity:1;visibility:visible" visibility="hidden"/><path d="m211.412 340.36 6.712-2.463" style="fill:none;stroke:red;stroke-width:.999997;stroke-linecap:round;stroke-linejoin:round;stroke-miterlimit:4;stroke-dasharray:none;stroke-opacity:1;visibility:visible" visibility="hidden"/><path d="m381.102 409.016 16.248 2.2" style="fill:none;stroke:#00ff4a;stroke-width:.999997;stroke-linecap:round;stroke-linejoin:round;stroke-miterlimit:4;stroke-dasharray:none;stroke-opacity:1;visibility:visible"/><path d="m381.283 401.76 16.29 2.258M380.646 426.785l16.302-2.392" style="fill:none;stroke:#00ff4a;stroke-width:1.99999;stroke-linecap:round;stroke-linejoin:round;stroke-miterlimit:4;stroke-dasharray:none;stroke-opacity:1;visibility:visible"/></svg>