<svg xmlns="http://www.w3.org/2000/svg" baseProfile="full" height="1122.52" preserveAspectRatio="xMinYMin meet" style="width:765px;height:943px" width="793.701" xml:space="preserve"><path d="m409.555 822.71-.104 4.06M185.924 926.895l13.13-6.173 1.25-.588M205.04 917.91l.944-.444 202.946-95.393" style="fill:none;stroke:red;stroke-width:.999997;stroke-linecap:round;stroke-linejoin:round;stroke-miterlimit:4;stroke-dasharray:none;stroke-opacity:1;visibility:visible"/><path d="m168.613 917.63 27.86-12.852M391.119 814.969l-170.138 78.5" style="fill:none;stroke:red;stroke-width:1.99999;stroke-linecap:round;stroke-linejoin:round;stroke-miterlimit:4;stroke-dasharray:none;stroke-opacity:1;visibility:visible"/><path d="m432.852 832.545-.132 4.232M209.215 939.368l223.003-107.473" style="fill:none;stroke:red;stroke-width:.999997;stroke-linecap:round;stroke-linejoin:round;stroke-miterlimit:4;stroke-dasharray:none;stroke-opacity:1;visibility:visible"/><path d="m191.444 929.855 7.52-3.557 1.708-.808M205.834 923.05l1.596-.753 206.459-97.627" style="fill:none;stroke:red;stroke-width:1.99999;stroke-linecap:round;stroke-linejoin:round;stroke-miterlimit:4;stroke-dasharray:none;stroke-opacity:1;visibility:visible"/><path d="m386.792 813.102-.072 3.48M220.46 888.502l165.719-76.025M163.236 914.753l29.569-13.566" style="fill:none;stroke:red;stroke-width:.999997;stroke-linecap:round;stroke-linejoin:round;stroke-miterlimit:4;stroke-dasharray:none;stroke-opacity:1;visibility:visible"/><path d="m146.37 905.725 38.17-17.196M368.906 805.47 220.2 872.458" style="fill:none;stroke:red;stroke-width:1.99999;stroke-linecap:round;stroke-linejoin:round;stroke-miterlimit:4;stroke-dasharray:none;stroke-opacity:1;visibility:visible"/><path d="m364.556 803.715-.054 3.742M219.946 867.61l144-64.508M141.128 902.92l43.706-19.584" style="fill:none;stroke:red;stroke-width:.999997;stroke-linecap:round;stroke-linejoin:round;stroke-miterlimit:4;stroke-dasharray:none;stroke-opacity:1;visibility:visible"/><path d="m124.693 894.118 59.085-26.008M347.376 796.114l-127.114 55.941" style="fill:none;stroke:red;stroke-width:1.99999;stroke-linecap:round;stroke-linejoin:round;stroke-miterlimit:4;stroke-dasharray:none;stroke-opacity:1;visibility:visible"/><path d="m456.71 842.198-.25 6.77M233.135 952.171l224.69-110.713" style="fill:none;stroke:red;stroke-width:.999997;stroke-linecap:round;stroke-linejoin:round;stroke-miterlimit:4;stroke-dasharray:none;stroke-opacity:1;visibility:visible"/><path d="M455.167 849.761 241.182 956.478M455.167 849.76l1.033-.636M437.478 834.471l-222.59 107.932" style="fill:none;stroke:red;stroke-width:1.99999;stroke-linecap:round;stroke-linejoin:round;stroke-miterlimit:4;stroke-dasharray:none;stroke-opacity:1;visibility:visible"/><path d="M238.946 985.775h-1.456" style="fill:none;stroke:red;stroke-width:.566665;stroke-linecap:round;stroke-linejoin:round;stroke-miterlimit:4;stroke-dasharray:none;stroke-opacity:1;visibility:visible"/><path d="m237.002 961.807-135.829-73.286M237.49 985.775l-.488-23.97" style="fill:none;stroke:red;stroke-width:.999997;stroke-linecap:round;stroke-linejoin:round;stroke-miterlimit:4;stroke-dasharray:none;stroke-opacity:1;visibility:visible"/><path d="m244.546 958.356-.01.41M243.435 957.686l1.111.67M101.173 888.52l.047-.748" style="fill:none;stroke:red;stroke-width:.566665;stroke-linecap:round;stroke-linejoin:round;stroke-miterlimit:4;stroke-dasharray:none;stroke-opacity:1;visibility:visible"/><path d="m237.002 961.807 6.433-3.29" style="fill:none;stroke:red;stroke-width:.999997;stroke-linecap:round;stroke-linejoin:round;stroke-miterlimit:4;stroke-dasharray:none;stroke-opacity:1;visibility:visible"/><path d="m259.133 975.414-.095-7.015M244.846 974.218l-.306-15.454" style="fill:none;stroke:red;stroke-width:1.99999;stroke-linecap:round;stroke-linejoin:round;stroke-miterlimit:4;stroke-dasharray:none;stroke-opacity:1;visibility:visible"/><path d="m253.935 977.859.6-.381.568-.523.51-.63.43-.715.328-.762.212-.773.09-.75-.043-.698-.17-.601-.292-.487-.401-.343-.485-.188-.553-.018-.592.146-.604.307-.59.457-.54.58-.477.678-.385.744-.272.773-.152.77-.022.729.111.656.235.546.349.416.448.262.523.102.576-.064.598-.232M241.69 969.856l.61-.384.574-.528.517-.633.439-.72.332-.768.216-.783.081-.764-.044-.702-.175-.612-.3-.492-.406-.355-.5-.19-.56-.021-.603.144-.614.31-.598.458-.552.584-.48.682-.393.75-.272.784-.152.78-.02.74.115.661.24.553.357.425.456.27.537.107.583-.064.612-.232" style="fill:none;stroke:red;stroke-width:.566665;stroke-linecap:round;stroke-linejoin:round;stroke-miterlimit:4;stroke-dasharray:none;stroke-opacity:1;visibility:visible"/><path d="m244.546 958.356-36.936-19.794M200.805 934.916l-85.195-45.651M109.201 885.825l-1.695-.911M107.506 884.917l-6.286 2.857M102.493 911.165l134.997 74.61M101.22 887.774l1.273 23.392" style="fill:none;stroke:red;stroke-width:1.99999;stroke-linecap:round;stroke-linejoin:round;stroke-miterlimit:4;stroke-dasharray:none;stroke-opacity:1;visibility:visible"/><path d="m199.933 936.791-.49-.188-.592-.099h-.633l-.611.1-.537.186-.399.257-.232.305-.037.322.16.305.341.261M210.79 942.61l-4.353-2.334M200.985 937.354l-.528-.284M200.457 937.071l-.524-.28M207.76 944.076l.494.191.596.103h.643l.616-.103.531-.19.402-.266.228-.305.036-.327-.17-.305-.346-.266M196.902 938.24l10.859 5.835M176.314 924.131l-.473-.184-.584-.096h-.625l-.61.096-.53.184-.402.25-.237.294-.043.315.15.297.332.255M186.885 929.795l-10.57-5.664M183.856 931.22l.48.186.59.098h.629l.609-.098.536-.186.4-.256.23-.298.047-.316-.159-.303-.334-.252M173.293 925.542l10.564 5.68M153.324 911.806l-.468-.181-.571-.095h-.613l-.604.095-.532.18-.404.245-.239.287-.048.303.137.29.322.247M163.61 917.318l-10.286-5.512M160.588 918.707l.474.183.576.096h.623l.604-.097.53-.182.399-.25.24-.287.051-.311-.147-.293-.326-.248M150.304 913.177l10.284 5.528M130.928 899.798l-.459-.173-.561-.091h-.608l-.595.09-.528.175-.403.239-.246.281-.055.295.132.281.312.24M140.949 905.17l-10.021-5.372M137.934 906.525l.463.174.565.091h.611l.604-.09.528-.175.404-.247.239-.283.054-.298-.138-.287-.314-.24M127.917 901.134l10.019 5.39M109.112 888.1l-.45-.166-.551-.091h-.601l-.593.09-.521.167-.404.233-.244.273-.068.292.125.272.299.235M118.873 893.335l-3.992-2.14M109.564 888.345l-.452-.246M115.862 894.654l.454.172.56.088h.604l.594-.088.526-.172.4-.237.249-.278.06-.289-.13-.28-.305-.235M106.104 889.405l9.758 5.25" style="fill:none;stroke:red;stroke-width:.999997;stroke-linecap:round;stroke-linejoin:round;stroke-miterlimit:4;stroke-dasharray:none;stroke-opacity:1;visibility:visible"/><path d="m237.49 985.775.773.492M238.946 985.775l-.684.492M244.563 958.388l-.017-.032M240.95 967.475l.383-.277.34-.402.246-.482.123-.504-.007-.463-.144-.367-.258-.228-.347-.06-.39.114-.386.276-.339.406-.247.48-.125.504.011.468.14.364.26.228.347.059.393-.116M239.477 969.728c.437.108 1.13-.008 1.51-.254M240.986 969.474l.608-.386.577-.524.515-.634.439-.72.33-.769.219-.784.08-.763-.044-.699-.176-.612-.299-.493-.132-.144" style="fill:none;stroke:red;stroke-width:.566665;stroke-linecap:round;stroke-linejoin:round;stroke-miterlimit:4;stroke-dasharray:none;stroke-opacity:1;visibility:visible"/><path d="m103.29 911.663-.698-.416M238.263 986.267 103.29 911.663M102.59 911.25l-.096-.084M258.443 975.907l-20.18 10.361M259.16 975.472l-.718.435M259.133 975.414l.027.058" style="fill:none;stroke:red;stroke-width:1.99999;stroke-linecap:round;stroke-linejoin:round;stroke-miterlimit:4;stroke-dasharray:none;stroke-opacity:1;visibility:visible"/><path d="m244.86 974.804 13.818-7.033" style="fill:none;stroke:red;stroke-width:.999997;stroke-linecap:round;stroke-linejoin:round;stroke-miterlimit:4;stroke-dasharray:none;stroke-opacity:1;visibility:visible"/><path d="m258.677 967.77-14.084-7.552M259.037 968.4l.003-.409M259.04 967.991l-.36-.221" style="fill:none;stroke:red;stroke-width:1.99999;stroke-linecap:round;stroke-linejoin:round;stroke-miterlimit:4;stroke-dasharray:none;stroke-opacity:1;visibility:visible"/><path d="m253.203 975.504.382-.274.33-.4.245-.475.126-.499-.007-.456-.138-.365-.254-.224-.341-.057-.384.113-.377.276-.336.4-.247.481-.124.496.007.456.145.366.252.221.339.057.382-.116M251.754 977.738c.433.104 1.108-.014 1.479-.259M253.233 977.479l.597-.383.571-.521.508-.633.43-.712.328-.76.215-.774.09-.753-.046-.695-.169-.6-.295-.488-.123-.132" style="fill:none;stroke:red;stroke-width:.566665;stroke-linecap:round;stroke-linejoin:round;stroke-miterlimit:4;stroke-dasharray:none;stroke-opacity:1;visibility:visible"/><path d="m259.17 974.655-.01.816M259.04 967.991l.039.09" style="fill:none;stroke:red;stroke-width:1.99999;stroke-linecap:round;stroke-linejoin:round;stroke-miterlimit:4;stroke-dasharray:none;stroke-opacity:1;visibility:visible"/><path d="m500.005 836.298-.015-.623-.113-.54-.213-.438-.29-.311-.359-.17-.422-.03-.45.127-.46.267-.456.399-.423.511-.377.6-.312.659-.225.685-.133.687-.033.649.068.584.164.493.252.373.33.241.392.099.437-.051.461-.199.456-.336.443-.453.408-.558.335-.633.274-.676.179-.69.082-.665M490.201 853.718l-.016-.619-.122-.537-.206-.433-.297-.306-.367-.166-.42-.02-.458.129-.465.272-.457.404-.432.515-.38.6-.3.661-.229.688-.132.685-.032.649.068.577.167.486.257.374.335.236.4.093.437-.057.461-.204.467-.339.44-.463.407-.558.342-.636.267-.674.181-.689.084-.668" style="fill:none;stroke:red;stroke-width:.566665;stroke-linecap:round;stroke-linejoin:round;stroke-miterlimit:4;stroke-dasharray:none;stroke-opacity:1;visibility:visible"/><path d="m500.445 829.867-5.198 3.034" style="fill:none;stroke:red;stroke-width:.999997;stroke-linecap:round;stroke-linejoin:round;stroke-miterlimit:4;stroke-dasharray:none;stroke-opacity:1;visibility:visible"/><path d="m499.295 852.155 1.23-22.82" style="fill:none;stroke:red;stroke-width:1.99999;stroke-linecap:round;stroke-linejoin:round;stroke-miterlimit:4;stroke-dasharray:none;stroke-opacity:1;visibility:visible"/><path d="m483.759 853.677-.316 6.398" style="fill:none;stroke:red;stroke-width:.999997;stroke-linecap:round;stroke-linejoin:round;stroke-miterlimit:4;stroke-dasharray:none;stroke-opacity:1;visibility:visible"/><path d="m347.502 795.665-.15.095M347.348 795.76l.01.363M483.201 860.475l.656-.4" style="fill:none;stroke:red;stroke-width:.566665;stroke-linecap:round;stroke-linejoin:round;stroke-miterlimit:4;stroke-dasharray:none;stroke-opacity:1;visibility:visible"/><path d="m483.847 853.127 10.622-5.407M347.502 795.665l95.188 40.115M457.346 841.958l26.5 11.17" style="fill:none;stroke:red;stroke-width:.999997;stroke-linecap:round;stroke-linejoin:round;stroke-miterlimit:4;stroke-dasharray:none;stroke-opacity:1;visibility:visible"/><path d="m358.22 790.952-10.719 4.712" style="fill:none;stroke:red;stroke-width:1.99999;stroke-linecap:round;stroke-linejoin:round;stroke-miterlimit:4;stroke-dasharray:none;stroke-opacity:1;visibility:visible"/><path d="m358.22 790.952 136.25 56.767" style="fill:none;stroke:red;stroke-width:.999997;stroke-linecap:round;stroke-linejoin:round;stroke-miterlimit:4;stroke-dasharray:none;stroke-opacity:1;visibility:visible"/><path d="m488.212 854.085-.028-.385-.136-.282-.21-.152-.272.003-.305.151-.286.286-.243.384-.17.436-.073.439.029.381.135.283.212.15h.28l.299-.154.284-.288.244-.383.168-.435.072-.434M486.425 857.71l.43-.057.464-.2.461-.34.45-.463.4-.56.341-.633.271-.675.181-.692.087-.667M489.508 853.423c.112-.57-.125-1.383-.532-1.802" style="fill:none;stroke:red;stroke-width:.566665;stroke-linecap:round;stroke-linejoin:round;stroke-miterlimit:4;stroke-dasharray:none;stroke-opacity:1;visibility:visible"/><path d="m498.553 852.658-15.429 7.919" style="fill:none;stroke:red;stroke-width:1.99999;stroke-linecap:round;stroke-linejoin:round;stroke-miterlimit:4;stroke-dasharray:none;stroke-opacity:1;visibility:visible"/><path d="m483.123 860.578.08-.103" style="fill:none;stroke:red;stroke-width:.566665;stroke-linecap:round;stroke-linejoin:round;stroke-miterlimit:4;stroke-dasharray:none;stroke-opacity:1;visibility:visible"/><path d="m483.123 860.578-26.92-11.452M498.553 852.658l.744-.501" style="fill:none;stroke:red;stroke-width:1.99999;stroke-linecap:round;stroke-linejoin:round;stroke-miterlimit:4;stroke-dasharray:none;stroke-opacity:1;visibility:visible"/><path d="m495.245 833.32-136.829-56.007" style="fill:none;stroke:red;stroke-width:.999997;stroke-linecap:round;stroke-linejoin:round;stroke-miterlimit:4;stroke-dasharray:none;stroke-opacity:1;visibility:visible"/><path d="m358.414 776.74.002.159" style="fill:none;stroke:red;stroke-width:.566665;stroke-linecap:round;stroke-linejoin:round;stroke-miterlimit:4;stroke-dasharray:none;stroke-opacity:1;visibility:visible"/><path d="m494.47 847.72.774-14.814" style="fill:none;stroke:red;stroke-width:.999997;stroke-linecap:round;stroke-linejoin:round;stroke-miterlimit:4;stroke-dasharray:none;stroke-opacity:1;visibility:visible"/><path d="m381.998 781.198 63.325 25.756 3.055 1.246M500.524 829.334l-26.521-10.712M358.416 776.898l-.196 14.053" style="fill:none;stroke:red;stroke-width:1.99999;stroke-linecap:round;stroke-linejoin:round;stroke-miterlimit:4;stroke-dasharray:none;stroke-opacity:1;visibility:visible"/><path d="m433.292 804.314-.461-.14-.528-.074h-.543l-.508.074-.421.14-.291.19-.135.226.035.233.208.228.347.192M443.855 808.614l-10.563-4.3M441.559 809.694l.468.14.535.076h.546l.506-.076.42-.14.291-.194.129-.226-.035-.243-.212-.226-.35-.195M430.996 805.383l10.564 4.31M410.252 794.929l-.456-.139-.516-.067h-.54l-.506.068-.414.139-.294.185-.136.223.026.23.198.222.333.19M420.568 799.131l-10.313-4.201M418.272 800.189l.46.138.519.07h.547l.502-.07.42-.137.29-.191.138-.224-.034-.232-.202-.22-.341-.193M407.946 795.98l10.324 4.208M387.735 785.76l-.443-.13-.512-.07h-.531l-.501.069-.418.131-.294.185-.142.215.025.225.177.219.336.18M397.819 789.867l-10.083-4.106M395.516 790.9l.451.138.517.069h.536l.496-.07.419-.137.295-.184.148-.218-.031-.232-.192-.213-.335-.186M385.434 786.784l10.082 4.116" style="fill:none;stroke:red;stroke-width:.999997;stroke-linecap:round;stroke-linejoin:round;stroke-miterlimit:4;stroke-dasharray:none;stroke-opacity:1;visibility:visible"/><path d="m358.407 776.774.007-.032M347.343 796.127l.003-.337M347.348 795.76l-.002.03M498.025 836.657l-.029-.387-.132-.287-.212-.153h-.27l-.298.147-.288.283-.243.383-.166.435-.072.439.028.385.13.285.214.155h.27l.295-.152.29-.281.244-.382.166-.436.073-.434M496.27 840.274l.4-.052.456-.199.462-.336.443-.457.398-.555.344-.629.268-.676.183-.69.086-.67M499.31 836.01c.116-.58-.126-1.403-.53-1.827" style="fill:none;stroke:red;stroke-width:.566665;stroke-linecap:round;stroke-linejoin:round;stroke-miterlimit:4;stroke-dasharray:none;stroke-opacity:1;visibility:visible"/><path d="m358.208 790.957.2-14.184" style="fill:none;stroke:red;stroke-width:1.99999;stroke-linecap:round;stroke-linejoin:round;stroke-miterlimit:4;stroke-dasharray:none;stroke-opacity:1;visibility:visible"/><path d="m244.265 963.983-.823-.567c-1.276-.889-3.292-.128-4.505 1.706-1.214 1.833-1.162 4.038.117 4.928l.796.584" style="fill:none;fill-opacity:1;fill-rule:nonzero;stroke:red;stroke-width:.999997;stroke-linecap:round;stroke-linejoin:round;stroke-miterlimit:4;stroke-dasharray:none;stroke-opacity:1;visibility:visible"/><path d="M244.622 969.088c-1.212 1.835-3.23 2.595-4.508 1.704-1.276-.888-1.328-3.096-.117-4.929 1.213-1.83 3.233-2.59 4.51-1.703 1.274.891 1.325 3.094.114 4.928" style="fill:none;fill-opacity:1;fill-rule:nonzero;stroke:red;stroke-width:1.33333;visibility:visible"/><path d="M244.622 969.088c-1.212 1.835-3.23 2.595-4.508 1.704-1.276-.888-1.328-3.096-.117-4.929 1.213-1.83 3.233-2.59 4.51-1.703 1.274.891 1.325 3.094.114 4.928h.001" style="fill:none;stroke:red;stroke-width:.999997;stroke-linecap:round;stroke-linejoin:round;stroke-miterlimit:4;stroke-dasharray:none;stroke-opacity:1;visibility:visible"/><path d="m257.165 971.828-.822-.568c-1.276-.89-3.293-.126-4.505 1.704-1.21 1.836-1.161 4.039.117 4.932l.796.582" style="fill:none;fill-opacity:1;fill-rule:nonzero;stroke:red;stroke-width:.999997;stroke-linecap:round;stroke-linejoin:round;stroke-miterlimit:4;stroke-dasharray:none;stroke-opacity:1;visibility:visible"/><path d="M257.523 976.934c-1.213 1.833-3.23 2.593-4.509 1.702-1.276-.888-1.328-3.093-.116-4.928 1.215-1.83 3.233-2.59 4.508-1.704 1.277.891 1.33 3.096.117 4.93" style="fill:none;fill-opacity:1;fill-rule:nonzero;stroke:red;stroke-width:1.33333;visibility:visible"/><path d="M257.523 976.934c-1.213 1.833-3.23 2.593-4.509 1.702-1.276-.888-1.328-3.093-.116-4.928 1.215-1.83 3.233-2.59 4.508-1.704 1.277.891 1.33 3.096.117 4.93" style="fill:none;stroke:red;stroke-width:.999997;stroke-linecap:round;stroke-linejoin:round;stroke-miterlimit:4;stroke-dasharray:none;stroke-opacity:1;visibility:visible"/><path d="m490.303 851.937-.743-.435c-1.148-.677-2.825.108-3.74 1.756-.916 1.65-.725 3.537.428 4.21l.724.45M500.319 834.909l-.74-.43c-1.15-.682-2.83.104-3.743 1.754-.919 1.647-.725 3.536.425 4.207l.727.453" style="fill:none;fill-opacity:1;fill-rule:nonzero;stroke:red;stroke-width:.999997;stroke-linecap:round;stroke-linejoin:round;stroke-miterlimit:4;stroke-dasharray:none;stroke-opacity:1;visibility:visible"/><path d="M501.145 839.338c-.915 1.645-2.589 2.43-3.745 1.753-1.15-.673-1.344-2.558-.43-4.209.92-1.65 2.598-2.435 3.747-1.759 1.153.68 1.344 2.563.429 4.215" style="fill:none;fill-opacity:1;fill-rule:nonzero;stroke:red;stroke-width:1.33333;visibility:visible"/><path d="M501.145 839.338c-.915 1.645-2.589 2.43-3.745 1.753-1.15-.673-1.344-2.558-.43-4.209.92-1.65 2.598-2.435 3.747-1.759 1.153.68 1.344 2.563.429 4.215h-.001" style="fill:none;stroke:red;stroke-width:.999997;stroke-linecap:round;stroke-linejoin:round;stroke-miterlimit:4;stroke-dasharray:none;stroke-opacity:1;visibility:visible"/><path d="M491.125 856.32c-.914 1.647-2.585 2.436-3.742 1.758-1.154-.678-1.344-2.563-.433-4.212.922-1.648 2.597-2.433 3.75-1.757 1.148.677 1.343 2.561.424 4.211" style="fill:none;fill-opacity:1;fill-rule:nonzero;stroke:red;stroke-width:1.33333;visibility:visible"/><path d="M491.125 856.32c-.914 1.647-2.585 2.436-3.742 1.758-1.154-.678-1.344-2.563-.433-4.212.922-1.648 2.597-2.433 3.75-1.757 1.148.677 1.343 2.561.424 4.211h.001" style="fill:none;stroke:red;stroke-width:.999997;stroke-linecap:round;stroke-linejoin:round;stroke-miterlimit:4;stroke-dasharray:none;stroke-opacity:1;visibility:visible"/><path d="m457.823 841.458 4.147-2.163M457.239 835.883 233.63 946.65l-2.979 4.26" style="fill:none;stroke:red;stroke-width:.945331;stroke-linecap:round;stroke-linejoin:round;stroke-miterlimit:10;stroke-dasharray:none;stroke-opacity:1;visibility:visible"/><path d="m457.239 835.883-7.204-3.033M450.034 832.847 226.327 942.734M457.239 835.883l4.731 3.414" style="fill:none;stroke:red;stroke-width:1.99999;stroke-linecap:round;stroke-linejoin:round;stroke-miterlimit:4;stroke-dasharray:none;stroke-opacity:1;visibility:visible"/><path d="m265.329 924.664.216-.109.232-.1.249-.09.256-.059.267-.048.269-.027.27-.005.268.013.258.025.25.056.233.06.221.09.199.1.173.116.15.122.126.148.096.151.063.153.033.162.003.17-.027.168-.063.164-.093.163-.115.159-.148.146-.173.138-.193.13-.215.112-.235.1-.249.081-.26.071-.264.041-.27.031-.273.005-.266-.013-.26-.03-.248-.044-.239-.075-.215-.083-.2-.102-.175-.118-.15-.12-.123-.151-.096-.143-.065-.164-.03-.163-.004-.163.031-.172.06-.164.088-.16.122-.156.15-.153.171-.137.195-.126M422.743 847.237l.18-.092.204-.083.216-.075.23-.054.244-.039.237-.02.252-.01.25.004.244.025.24.037.226.057.216.071.194.085.18.091.16.107.139.114.108.123.084.132.055.133.025.142-.005.138-.024.134-.062.137-.09.135-.11.124-.142.112-.16.11-.184.095-.207.083-.213.073-.23.055-.24.038-.245.026-.251.009-.25-.008-.242-.024-.238-.041-.232-.056-.214-.068-.2-.084-.178-.098-.16-.108-.134-.114-.108-.124-.085-.129-.053-.138-.027-.136.007-.14.026-.137.064-.139.087-.127.113-.123.14-.113.163-.11M344.068 885.962l.198-.103.218-.092.227-.07.249-.063.251-.045.261-.023.255-.01.257.012.252.026.246.044.23.061.215.075.2.093.179.104.152.119.132.124.102.136.078.143.046.152.014.149-.014.15-.045.154-.076.145-.099.144-.133.135-.15.13-.179.118-.202.1-.214.091-.232.079-.242.058-.254.041-.258.027-.262.01-.254-.009-.253-.031-.243-.044-.234-.062-.219-.075-.196-.092-.177-.101-.159-.116-.13-.132-.101-.136-.074-.141-.046-.147-.013-.156.012-.15.047-.152.073-.147.105-.146.126-.129.156-.127.178-.121" style="fill:none;stroke:red;stroke-width:.666665;stroke-linecap:round;stroke-linejoin:round;stroke-miterlimit:10;stroke-dasharray:none;stroke-opacity:1;visibility:visible"/><path d="m266.355 926.24.912-1.159M265.926 925.502l1.73.43M344.643 887.122l1.844-.347M345.335 886.471l.525.899M423.25 848.22l1.856-.288M423.962 847.59l.493.916" style="fill:none;stroke:red;stroke-width:.666665;stroke-linecap:round;stroke-linejoin:round;stroke-miterlimit:4;stroke-dasharray:none;stroke-opacity:1;visibility:visible"/><path d="m226.327 942.733 7.305 3.916" style="fill:none;stroke:red;stroke-width:.945331;stroke-linecap:round;stroke-linejoin:round;stroke-miterlimit:10;stroke-dasharray:none;stroke-opacity:1;visibility:visible"/><path d="m226.327 942.733-2.957 4.273" style="fill:none;stroke:red;stroke-width:1.99999;stroke-linecap:round;stroke-linejoin:round;stroke-miterlimit:4;stroke-dasharray:none;stroke-opacity:1;visibility:visible"/><path d="m200.672 925.49-14.748 1.405M205.04 917.91l-4.736 2.224M200.304 920.134l4.736-2.224" style="fill:none;stroke:red;stroke-width:.999997;stroke-linecap:round;stroke-linejoin:round;stroke-miterlimit:4;stroke-dasharray:none;stroke-opacity:1;visibility:visible"/><path d="m205.04 917.91-8.567-13.132" style="fill:none;stroke:red;stroke-width:1.99999;stroke-linecap:round;stroke-linejoin:round;stroke-miterlimit:4;stroke-dasharray:none;stroke-opacity:1;visibility:visible"/><path d="m200.672 925.49 8.543 13.878" style="fill:none;stroke:red;stroke-width:.999997;stroke-linecap:round;stroke-linejoin:round;stroke-miterlimit:4;stroke-dasharray:none;stroke-opacity:1;visibility:visible"/><path d="m200.304 920.134-8.86 9.721M205.834 923.05l-5.162 2.44M200.672 925.49l5.162-2.44M107.506 884.917l17.187 9.201" style="fill:none;stroke:red;stroke-width:1.99999;stroke-linecap:round;stroke-linejoin:round;stroke-miterlimit:4;stroke-dasharray:none;stroke-opacity:1;visibility:visible"/><path d="m243.435 958.517-10.3-6.346" style="fill:none;stroke:red;stroke-width:.999997;stroke-linecap:round;stroke-linejoin:round;stroke-miterlimit:4;stroke-dasharray:none;stroke-opacity:1;visibility:visible"/><path d="m243.435 958.517-2.253-2.039M422.743 847.237l14.735-12.766M210.79 942.61l-3.18-4.048M199.933 936.791l.872-1.875M118.873 893.335l-3.263-4.07M109.112 888.099l.089-2.274" style="fill:none;stroke:red;stroke-width:1.99999;stroke-linecap:round;stroke-linejoin:round;stroke-miterlimit:4;stroke-dasharray:none;stroke-opacity:1;visibility:visible"/><path d="m207.761 944.075-1.324-3.799M115.862 894.655l-.981-3.46" style="fill:none;stroke:red;stroke-width:.999997;stroke-linecap:round;stroke-linejoin:round;stroke-miterlimit:4;stroke-dasharray:none;stroke-opacity:1;visibility:visible"/><path d="m240.987 969.474-.037-1.999" style="fill:none;stroke:red;stroke-width:.566665;stroke-linecap:round;stroke-linejoin:round;stroke-miterlimit:4;stroke-dasharray:none;stroke-opacity:1;visibility:visible"/><path d="m244.546 958.356.047 1.862" style="fill:none;stroke:red;stroke-width:1.99999;stroke-linecap:round;stroke-linejoin:round;stroke-miterlimit:4;stroke-dasharray:none;stroke-opacity:1;visibility:visible"/><path d="m253.233 977.479-.03-1.975" style="fill:none;stroke:red;stroke-width:.566665;stroke-linecap:round;stroke-linejoin:round;stroke-miterlimit:4;stroke-dasharray:none;stroke-opacity:1;visibility:visible"/><path d="m450.035 832.85-7.345 2.93" style="fill:none;stroke:red;stroke-width:.999997;stroke-linecap:round;stroke-linejoin:round;stroke-miterlimit:4;stroke-dasharray:none;stroke-opacity:1;visibility:visible"/><path d="m489.508 853.423-1.296.662" style="fill:none;stroke:red;stroke-width:.566665;stroke-linecap:round;stroke-linejoin:round;stroke-miterlimit:4;stroke-dasharray:none;stroke-opacity:1;visibility:visible"/><path d="m395.516 790.9-13.518-9.702M433.292 804.314l15.086 3.886" style="fill:none;stroke:red;stroke-width:1.99999;stroke-linecap:round;stroke-linejoin:round;stroke-miterlimit:4;stroke-dasharray:none;stroke-opacity:1;visibility:visible"/><path d="m499.31 836.01-1.285.647" style="fill:none;stroke:red;stroke-width:.566665;stroke-linecap:round;stroke-linejoin:round;stroke-miterlimit:4;stroke-dasharray:none;stroke-opacity:1;visibility:visible"/><path d="m243.435 957.686.83 6.297M258.68 967.77l-1.515 4.058M258.68 967.77l-5.929 10.708" style="fill:none;fill-opacity:1;fill-rule:nonzero;stroke:red;stroke-width:.999997;stroke-linecap:round;stroke-linejoin:round;stroke-miterlimit:4;stroke-dasharray:none;stroke-opacity:1;visibility:visible"/><path d="m226.327 942.733 4.324 8.177" style="fill:none;stroke:red;stroke-width:.945331;stroke-linecap:round;stroke-linejoin:round;stroke-miterlimit:10;stroke-dasharray:none;stroke-opacity:1;visibility:visible"/><path d="m432.218 831.895-9.475 15.342" style="fill:none;stroke:red;stroke-width:.666665;stroke-linecap:round;stroke-linejoin:round;stroke-miterlimit:10;stroke-dasharray:none;stroke-opacity:1;visibility:visible"/><path d="m243.435 957.686-9.803-11.037" style="fill:none;stroke:red;stroke-width:.945331;stroke-linecap:round;stroke-linejoin:round;stroke-miterlimit:10;stroke-dasharray:none;stroke-opacity:1;visibility:visible"/><path d="m103.676 849.806.638 2.097M103.421 845.52l.239 4.194M117.017 856.82l.407-2.172M117.429 854.551l-.19-3.531M95.28 702.393l.4 7.005M95.69 699.977l-.41 2.35M109.945 713.612l-.372-7.039M109.56 706.505l-.666-2.307" style="fill:none;stroke:#00ff4a;stroke-width:1.99999;stroke-linecap:round;stroke-linejoin:round;stroke-miterlimit:4;stroke-dasharray:none;stroke-opacity:1;visibility:visible" visibility="hidden"/><path d="m107.658 716.945-17.196-7.48M107.658 716.945h1.442M106.317 714.642l.473.142.584.078h.638l.622-.078.554-.142.43-.198.257-.234.071-.22M96.124 710.222l10.194 4.419M95.68 709.777v.019l.131.23.314.196" style="fill:none;stroke:#00ff4a;stroke-width:.999997;stroke-linecap:round;stroke-linejoin:round;stroke-miterlimit:4;stroke-dasharray:none;stroke-opacity:1;visibility:visible" visibility="hidden"/><path d="m90.626 708.918-.165.547" style="fill:none;stroke:#00ff4a;stroke-width:.566665;stroke-linecap:round;stroke-linejoin:round;stroke-miterlimit:4;stroke-dasharray:none;stroke-opacity:1;visibility:visible" visibility="hidden"/><path d="m115.058 714.85-5.186-2.238M90.626 708.918l4.91-1.692" style="fill:none;stroke:#00ff4a;stroke-width:1.99999;stroke-linecap:round;stroke-linejoin:round;stroke-miterlimit:4;stroke-dasharray:none;stroke-opacity:1;visibility:visible" visibility="hidden"/><path d="m114.908 851.411-7.25-134.467M109.1 716.945l5.96-2.095" style="fill:none;stroke:#00ff4a;stroke-width:.999997;stroke-linecap:round;stroke-linejoin:round;stroke-miterlimit:4;stroke-dasharray:none;stroke-opacity:1;visibility:visible" visibility="hidden"/><path d="m108.902 704.27-.08-.193-.252-.163M116.296 851.411h-1.387" style="fill:none;stroke:#00ff4a;stroke-width:1.99999;stroke-linecap:round;stroke-linejoin:round;stroke-miterlimit:4;stroke-dasharray:none;stroke-opacity:1;visibility:visible" visibility="hidden"/><path d="m106.23 705.854.394.116.486.052.524-.021.494-.08.406-.144.268-.175.1-.198" style="fill:none;stroke:#00ff4a;stroke-width:.999997;stroke-linecap:round;stroke-linejoin:round;stroke-miterlimit:4;stroke-dasharray:none;stroke-opacity:1;visibility:visible" visibility="hidden"/><path d="m108.57 703.916-10.222-4.363M98.256 842.867l16.652 8.543M90.461 709.465l7.797 133.404M116.296 851.411l5.721-2.389M122.017 849.022l-6.959-134.172" style="fill:none;stroke:#00ff4a;stroke-width:1.99999;stroke-linecap:round;stroke-linejoin:round;stroke-miterlimit:4;stroke-dasharray:none;stroke-opacity:1;visibility:visible" visibility="hidden"/><path d="m95.69 700.756.075.19.247.159M96.012 701.484l10.218 4.369" style="fill:none;stroke:#00ff4a;stroke-width:.999997;stroke-linecap:round;stroke-linejoin:round;stroke-miterlimit:4;stroke-dasharray:none;stroke-opacity:1;visibility:visible" visibility="hidden"/><path d="m98.346 699.553-.389-.112-.479-.05-.52.021-.493.078-.405.137-.27.177-.102.196" style="fill:none;stroke:#00ff4a;stroke-width:1.99999;stroke-linecap:round;stroke-linejoin:round;stroke-miterlimit:4;stroke-dasharray:none;stroke-opacity:1;visibility:visible" visibility="hidden"/><path d="m101.32 702.476-.387.189-.179.217.05.222.276.189.458.128.572.043.592-.044.534-.127.384-.19.176-.219-.052-.22-.276-.189-.455-.129-.57-.04-.596.039-.527.13" style="fill:none;stroke:#00ff4a;stroke-width:.666665;stroke-linecap:round;stroke-linejoin:round;stroke-miterlimit:4;stroke-dasharray:none;stroke-opacity:1;visibility:visible" visibility="hidden"/><path d="m104.617 852.211-.24-.19-.064-.116M114.466 857.297l-9.849-5.087M117.017 856.82l-.087.18-.257.21-.39.164-.466.095-.503.021-.47-.059-.379-.136M98.258 842.869l5.163 2.651M114.908 851.411l2.331-.391M106.318 714.641l3.554-2.029M109.1 716.945l-13.564-9.719" style="fill:none;stroke:#00ff4a;stroke-width:1.99999;stroke-linecap:round;stroke-linejoin:round;stroke-miterlimit:4;stroke-dasharray:none;stroke-opacity:1;visibility:visible" visibility="hidden"/><path d="m95.688 700 13.214 5.404" style="fill:none;stroke:#00ff4a;stroke-width:.999997;stroke-linecap:round;stroke-linejoin:round;stroke-miterlimit:4;stroke-dasharray:none;stroke-opacity:1;visibility:visible" visibility="hidden"/><path d="m195.312 896.991.612 2.194M195.16 892.57l.137 4.305M209.889 904.743l.481-2.243M210.382 902.383l-.09-3.333M190.424 743.2l.236 7.323M190.922 740.677l-.492 2.445M206.343 755.338l-.2-7.36M206.127 747.896l-.637-2.42" style="fill:none;stroke:#9500ff;stroke-width:1.99999;stroke-linecap:round;stroke-linejoin:round;stroke-miterlimit:4;stroke-dasharray:none;stroke-opacity:1;visibility:visible" visibility="hidden"/><path d="m204.335 758.969-19.234-8.363M204.335 758.969h1.527M202.59 756.396l.523.162.626.087h.674l.65-.087.562-.162.431-.223.239-.261.046-.196M191.192 751.452l11.398 4.942M190.658 750.9l.01.074.166.256.358.222" style="fill:none;stroke:#9500ff;stroke-width:.999997;stroke-linecap:round;stroke-linejoin:round;stroke-miterlimit:4;stroke-dasharray:none;stroke-opacity:1;visibility:visible" visibility="hidden"/><path d="m185.2 749.997-.1.61" style="fill:none;stroke:#9500ff;stroke-width:.566665;stroke-linecap:round;stroke-linejoin:round;stroke-miterlimit:4;stroke-dasharray:none;stroke-opacity:1;visibility:visible" visibility="hidden"/><path d="m211.866 756.628-5.563-2.403M185.2 749.997l5.363-2.045" style="fill:none;stroke:#9500ff;stroke-width:1.99999;stroke-linecap:round;stroke-linejoin:round;stroke-miterlimit:4;stroke-dasharray:none;stroke-opacity:1;visibility:visible" visibility="hidden"/><path d="m208.28 899.3-3.946-140.332M205.86 758.969l6.004-2.341" style="fill:none;stroke:#9500ff;stroke-width:.999997;stroke-linecap:round;stroke-linejoin:round;stroke-miterlimit:4;stroke-dasharray:none;stroke-opacity:1;visibility:visible" visibility="hidden"/><path d="m205.5 745.52-.113-.214-.291-.182M209.746 899.3h-1.468" style="fill:none;stroke:#9500ff;stroke-width:1.99999;stroke-linecap:round;stroke-linejoin:round;stroke-miterlimit:4;stroke-dasharray:none;stroke-opacity:1;visibility:visible" visibility="hidden"/><path d="m202.738 747.16.43.129.522.055.552-.02.512-.091.407-.157.261-.204.078-.218" style="fill:none;stroke:#9500ff;stroke-width:.999997;stroke-linecap:round;stroke-linejoin:round;stroke-miterlimit:4;stroke-dasharray:none;stroke-opacity:1;visibility:visible" visibility="hidden"/><path d="m205.095 745.124-11.427-4.879M189.733 889.787l18.545 9.513M185.1 750.606l4.637 139.184M209.746 899.3l5.764-2.66M215.51 896.64l-3.643-140.011" style="fill:none;stroke:#9500ff;stroke-width:1.99999;stroke-linecap:round;stroke-linejoin:round;stroke-miterlimit:4;stroke-dasharray:none;stroke-opacity:1;visibility:visible" visibility="hidden"/><path d="m190.998 741.657-.082.221.11.21.284.182M191.309 742.268l11.43 4.892" style="fill:none;stroke:#9500ff;stroke-width:.999997;stroke-linecap:round;stroke-linejoin:round;stroke-miterlimit:4;stroke-dasharray:none;stroke-opacity:1;visibility:visible" visibility="hidden"/><path d="m193.666 740.245-.426-.125-.518-.058-.546.019-.507.093-.41.154-.261.196" style="fill:none;stroke:#9500ff;stroke-width:1.99999;stroke-linecap:round;stroke-linejoin:round;stroke-miterlimit:4;stroke-dasharray:none;stroke-opacity:1;visibility:visible" visibility="hidden"/><path d="m197.113 743.42-.38.21-.153.25.082.249.319.208.501.143.608.046.625-.046.54-.143.385-.208.156-.25-.09-.249-.319-.21-.497-.137-.611-.053-.624.052-.542.139" style="fill:none;stroke:#9500ff;stroke-width:.666665;stroke-linecap:round;stroke-linejoin:round;stroke-miterlimit:4;stroke-dasharray:none;stroke-opacity:1;visibility:visible" visibility="hidden"/><path d="m211.967 756.985-.102-.359" style="fill:none;stroke:#9500ff;stroke-width:.566665;stroke-linecap:round;stroke-linejoin:round;stroke-miterlimit:4;stroke-dasharray:none;stroke-opacity:1;visibility:visible" visibility="hidden"/><path d="m196.293 899.563-.276-.208-.09-.17M207.254 905.227l-10.962-5.662M209.889 904.743l-.069.152-.243.232-.39.183-.492.107-.524.02-.5-.061-.418-.151M215.51 896.64l.048-1.614M211.967 756.985l3.59 138.04M189.737 889.79l5.423 2.78M202.59 756.394l3.713-2.169M205.86 758.969l-15.297-11.017" style="fill:none;stroke:#9500ff;stroke-width:1.99999;stroke-linecap:round;stroke-linejoin:round;stroke-miterlimit:4;stroke-dasharray:none;stroke-opacity:1;visibility:visible" visibility="hidden"/><path d="m365.111 652.97-.095 6.107M365.606 650.9l-.49 2.02M378.68 662.654l.12-6.131M378.792 656.476l-.42-2.043" style="fill:none;stroke:#ffdf00;stroke-width:1.99999;stroke-linecap:round;stroke-linejoin:round;stroke-miterlimit:4;stroke-dasharray:none;stroke-opacity:1;visibility:visible" visibility="hidden"/><path d="m360.402 659.641 17.341 6.017M377.743 665.658l-2.245 118.147" style="fill:none;stroke:#ffdf00;stroke-width:.999997;stroke-linecap:round;stroke-linejoin:round;stroke-miterlimit:4;stroke-dasharray:none;stroke-opacity:1;visibility:visible" visibility="hidden"/><path d="m378.363 654.405-.13-.15-.272-.131" style="fill:none;stroke:#ffdf00;stroke-width:1.99999;stroke-linecap:round;stroke-linejoin:round;stroke-miterlimit:4;stroke-dasharray:none;stroke-opacity:1;visibility:visible" visibility="hidden"/><path d="m376.215 655.903.377.087.43.047.445-.014.399-.067.302-.112.176-.142.019-.162" style="fill:none;stroke:#ffdf00;stroke-width:.999997;stroke-linecap:round;stroke-linejoin:round;stroke-miterlimit:4;stroke-dasharray:none;stroke-opacity:1;visibility:visible" visibility="hidden"/><path d="m380.948 781.146 2.38-117.533" style="fill:none;stroke:#ffdf00;stroke-width:1.99999;stroke-linecap:round;stroke-linejoin:round;stroke-miterlimit:4;stroke-dasharray:none;stroke-opacity:1;visibility:visible" visibility="hidden"/><path d="M365.048 657.235h-.177M365.014 659.456a.625.625 0 0 0 .55.458M375.746 663.448l.456.116.525.06h.547l.51-.06.434-.116.304-.156.148-.19.01-.07M365.563 659.914l10.184 3.531M382.196 663.99l-4.453 1.668M380.948 781.524l-5.45 2.28" style="fill:none;stroke:#ffdf00;stroke-width:.999997;stroke-linecap:round;stroke-linejoin:round;stroke-miterlimit:4;stroke-dasharray:none;stroke-opacity:1;visibility:visible" visibility="hidden"/><path d="m364.871 657.235-4.456 1.638M383.33 663.613l-.05-.443M378.71 661.592l4.572 1.577" style="fill:none;stroke:#ffdf00;stroke-width:1.99999;stroke-linecap:round;stroke-linejoin:round;stroke-miterlimit:4;stroke-dasharray:none;stroke-opacity:1;visibility:visible" visibility="hidden"/><path d="m365.612 652.124.126.152.268.128M366.006 652.404l10.208 3.499" style="fill:none;stroke:#ffdf00;stroke-width:.999997;stroke-linecap:round;stroke-linejoin:round;stroke-miterlimit:4;stroke-dasharray:none;stroke-opacity:1;visibility:visible" visibility="hidden"/><path d="m377.962 654.124-10.204-3.492M367.756 650.632l-.37-.088-.436-.044-.439.016-.393.07-.308.106-.174.141-.02.159" style="fill:none;stroke:#ffdf00;stroke-width:1.99999;stroke-linecap:round;stroke-linejoin:round;stroke-miterlimit:4;stroke-dasharray:none;stroke-opacity:1;visibility:visible" visibility="hidden"/><path d="m372.928 653.78.272-.15.084-.18-.12-.176-.298-.151-.436-.099-.504-.035-.496.035-.414.1-.268.15-.084.176.116.179.296.151.436.1.504.037.498-.037.414-.1" style="fill:none;stroke:#ffdf00;stroke-width:.533332;stroke-linecap:round;stroke-linejoin:round;stroke-miterlimit:4;stroke-dasharray:none;stroke-opacity:1;visibility:visible" visibility="hidden"/><path d="m358.764 776.502 1.651-117.63" style="fill:none;stroke:#ffdf00;stroke-width:1.99999;stroke-linecap:round;stroke-linejoin:round;stroke-miterlimit:4;stroke-dasharray:none;stroke-opacity:1;visibility:visible" visibility="hidden"/><path d="m358.764 775.748.044-.266M365.616 650.992l12.747 4.548" style="fill:none;stroke:#ffdf00;stroke-width:.999997;stroke-linecap:round;stroke-linejoin:round;stroke-miterlimit:4;stroke-dasharray:none;stroke-opacity:1;visibility:visible" visibility="hidden"/><path d="m375.747 663.445 2.963-1.853" style="fill:none;stroke:#ffdf00;stroke-width:1.99999;stroke-linecap:round;stroke-linejoin:round;stroke-miterlimit:4;stroke-dasharray:none;stroke-opacity:1;visibility:visible" visibility="hidden"/><path d="m459.5 685.374-.26 6.352M460.079 683.232l-.573 2.088M474.112 695.748l.288-6.379M474.39 689.313l-.39-2.137" style="fill:none;stroke:#00d4ff;stroke-width:1.99999;stroke-linecap:round;stroke-linejoin:round;stroke-miterlimit:4;stroke-dasharray:none;stroke-opacity:1;visibility:visible" visibility="hidden"/><path d="m454.655 692.39 18.858 6.554M473.51 698.944l-5.495 122.78" style="fill:none;stroke:#00d4ff;stroke-width:.999997;stroke-linecap:round;stroke-linejoin:round;stroke-miterlimit:4;stroke-dasharray:none;stroke-opacity:1;visibility:visible" visibility="hidden"/><path d="M473.983 687.297v-.172l-.164-.17-.3-.143" style="fill:none;stroke:#00d4ff;stroke-width:1.99999;stroke-linecap:round;stroke-linejoin:round;stroke-miterlimit:4;stroke-dasharray:none;stroke-opacity:1;visibility:visible" visibility="hidden"/><path d="m471.779 688.654.408.1.466.044.462-.014.408-.074.3-.122.157-.159" style="fill:none;stroke:#00d4ff;stroke-width:.999997;stroke-linecap:round;stroke-linejoin:round;stroke-miterlimit:4;stroke-dasharray:none;stroke-opacity:1;visibility:visible" visibility="hidden"/><path d="m473.441 818.769 5.632-122.041" style="fill:none;stroke:#00d4ff;stroke-width:1.99999;stroke-linecap:round;stroke-linejoin:round;stroke-miterlimit:4;stroke-dasharray:none;stroke-opacity:1;visibility:visible" visibility="hidden"/><path d="M459.339 689.701h-.576M459.239 692.104a.759.759 0 0 0 .645.55M471.092 696.541l.492.132.563.063h.573l.531-.063.432-.132.297-.173.125-.208.01-.035M459.883 692.653l11.207 3.888M477.937 697.105l-4.425 1.839M473.441 819.146l-5.425 2.577" style="fill:none;stroke:#00d4ff;stroke-width:.999997;stroke-linecap:round;stroke-linejoin:round;stroke-miterlimit:4;stroke-dasharray:none;stroke-opacity:1;visibility:visible" visibility="hidden"/><path d="m458.764 689.701-4.434 1.805M479.07 696.726l-.116-.49M474.18 694.59l4.773 1.645" style="fill:none;stroke:#00d4ff;stroke-width:1.99999;stroke-linecap:round;stroke-linejoin:round;stroke-miterlimit:4;stroke-dasharray:none;stroke-opacity:1;visibility:visible" visibility="hidden"/><path d="m460.09 684.494.156.164.3.142M460.546 684.801l11.234 3.855" style="fill:none;stroke:#00d4ff;stroke-width:.999997;stroke-linecap:round;stroke-linejoin:round;stroke-miterlimit:4;stroke-dasharray:none;stroke-opacity:1;visibility:visible" visibility="hidden"/><path d="m473.519 686.813-11.232-3.845M462.287 682.968l-.404-.098-.459-.046-.462.013-.407.073-.3.123-.163.157-.001.172" style="fill:none;stroke:#00d4ff;stroke-width:1.99999;stroke-linecap:round;stroke-linejoin:round;stroke-miterlimit:4;stroke-dasharray:none;stroke-opacity:1;visibility:visible" visibility="hidden"/><path d="m468.068 686.353.26-.165.063-.196-.151-.192-.334-.167-.477-.115-.529-.034-.517.034-.421.115-.255.167-.061.192.146.196.336.165.47.11.537.039.515-.038.418-.11" style="fill:none;stroke:#00d4ff;stroke-width:.533332;stroke-linecap:round;stroke-linejoin:round;stroke-miterlimit:4;stroke-dasharray:none;stroke-opacity:1;visibility:visible" visibility="hidden"/><path d="m449.546 813.6 4.784-122.095M471.09 696.541l3.09-1.951" style="fill:none;stroke:#00d4ff;stroke-width:1.99999;stroke-linecap:round;stroke-linejoin:round;stroke-miterlimit:4;stroke-dasharray:none;stroke-opacity:1;visibility:visible" visibility="hidden"/><path d="m215.51 896.64 5.471-3.171" style="fill:none;stroke:red;stroke-width:1.99999;stroke-linecap:round;stroke-linejoin:round;stroke-miterlimit:4;stroke-dasharray:none;stroke-opacity:1;visibility:visible"/><path d="m215.51 896.64 4.95-8.138M209.746 899.3l-16.941 1.887" style="fill:none;stroke:red;stroke-width:.999997;stroke-linecap:round;stroke-linejoin:round;stroke-miterlimit:4;stroke-dasharray:none;stroke-opacity:1;visibility:visible"/><path d="m243.435 957.686-.332 5.26M243.435 958.517l11.904 12.511" style="fill:none;stroke:red;stroke-width:.566665;stroke-linecap:round;stroke-linejoin:round;stroke-miterlimit:4;stroke-dasharray:none;stroke-opacity:1;visibility:visible"/><path d="m106.318 714.641-4.998-12.165" style="fill:none;stroke:#00ff4a;stroke-width:.666665;stroke-linecap:round;stroke-linejoin:round;stroke-miterlimit:4;stroke-dasharray:none;stroke-opacity:1;visibility:visible" visibility="hidden"/><path d="m202.59 756.394-5.477-12.974" style="fill:none;stroke:#9500ff;stroke-width:.666665;stroke-linecap:round;stroke-linejoin:round;stroke-miterlimit:4;stroke-dasharray:none;stroke-opacity:1;visibility:visible" visibility="hidden"/><path d="m378.71 661.592-5.782-7.812" style="fill:none;stroke:#ffdf00;stroke-width:.533332;stroke-linecap:round;stroke-linejoin:round;stroke-miterlimit:4;stroke-dasharray:none;stroke-opacity:1;visibility:visible" visibility="hidden"/><path d="m358.407 776.774.401-1.292" style="fill:none;stroke:#ffdf00;stroke-width:.999997;stroke-linecap:round;stroke-linejoin:round;stroke-miterlimit:4;stroke-dasharray:none;stroke-opacity:1;visibility:visible" visibility="hidden"/><path d="m474.18 694.59-6.112-8.237" style="fill:none;stroke:#00d4ff;stroke-width:.533332;stroke-linecap:round;stroke-linejoin:round;stroke-miterlimit:4;stroke-dasharray:none;stroke-opacity:1;visibility:visible" visibility="hidden"/></svg>