<svg xmlns="http://www.w3.org/2000/svg" baseProfile="full" height="1122.52" preserveAspectRatio="xMinYMin meet" style="width:765px;height:943px" width="793.701" xml:space="preserve"><path d="m320.335 769.54-.139.601M297.248 759.044l-.15.58M344.084 780.346l-.116.619M368.53 791.461l-.101.639" style="fill:none;stroke:red;stroke-width:.566665;stroke-linecap:round;stroke-linejoin:round;stroke-miterlimit:4;stroke-dasharray:none;stroke-opacity:1;visibility:visible"/><path d="m312.241 722.298 236.02-83.045M549.086 642.61l.037-3.273" style="fill:none;stroke:red;stroke-width:.999997;stroke-linecap:round;stroke-linejoin:round;stroke-miterlimit:4;stroke-dasharray:none;stroke-opacity:1;visibility:visible"/><path d="m532.12 633.102-236.04 81.473" style="fill:none;stroke:red;stroke-width:1.99999;stroke-linecap:round;stroke-linejoin:round;stroke-miterlimit:4;stroke-dasharray:none;stroke-opacity:1;visibility:visible"/><path d="m409.713 763.58 236.062-92.345M646.047 678.304l-225.99 88.846" style="fill:none;stroke:red;stroke-width:.999997;stroke-linecap:round;stroke-linejoin:round;stroke-miterlimit:4;stroke-dasharray:none;stroke-opacity:1;visibility:visible"/><path d="m652.074 681.872-223.638 88.101" style="fill:none;stroke:red;stroke-width:2.05866;stroke-linecap:round;stroke-linejoin:round;stroke-miterlimit:4;stroke-dasharray:none;stroke-opacity:1;visibility:visible"/><path d="m646.23 678.553.155-7.196" style="fill:none;stroke:red;stroke-width:.999997;stroke-linecap:round;stroke-linejoin:round;stroke-miterlimit:4;stroke-dasharray:none;stroke-opacity:1;visibility:visible"/><path d="m625.957 664.902-234.606 90" style="fill:none;stroke:red;stroke-width:1.99999;stroke-linecap:round;stroke-linejoin:round;stroke-miterlimit:4;stroke-dasharray:none;stroke-opacity:1;visibility:visible"/><path d="m384.127 752.813 235.866-89.881M620.786 666.742l.101-3.697" style="fill:none;stroke:red;stroke-width:.999997;stroke-linecap:round;stroke-linejoin:round;stroke-miterlimit:4;stroke-dasharray:none;stroke-opacity:1;visibility:visible"/><path d="m601.297 656.761-234.633 87.584" style="fill:none;stroke:red;stroke-width:1.99999;stroke-linecap:round;stroke-linejoin:round;stroke-miterlimit:4;stroke-dasharray:none;stroke-opacity:1;visibility:visible"/><path d="m335.714 732.16 235.86-85.208M572.395 650.449l.057-3.407" style="fill:none;stroke:red;stroke-width:.999997;stroke-linecap:round;stroke-linejoin:round;stroke-miterlimit:4;stroke-dasharray:none;stroke-opacity:1;visibility:visible"/><path d="M553.793 641.079 319.36 724.121" style="fill:none;stroke:red;stroke-width:1.99999;stroke-linecap:round;stroke-linejoin:round;stroke-miterlimit:4;stroke-dasharray:none;stroke-opacity:1;visibility:visible"/><path d="m359.63 742.318 235.851-87.474M596.286 658.488l.081-3.544" style="fill:none;stroke:red;stroke-width:.999997;stroke-linecap:round;stroke-linejoin:round;stroke-miterlimit:4;stroke-dasharray:none;stroke-opacity:1;visibility:visible"/><path d="m577.243 648.822-234.566 85.27" style="fill:none;stroke:red;stroke-width:1.99999;stroke-linecap:round;stroke-linejoin:round;stroke-miterlimit:4;stroke-dasharray:none;stroke-opacity:1;visibility:visible"/><path d="m674.914 680.05-.23 7.883M674.73 680.12l16.779-6.296M532.12 633.102l142.61 47.017" style="fill:none;stroke:red;stroke-width:.999997;stroke-linecap:round;stroke-linejoin:round;stroke-miterlimit:4;stroke-dasharray:none;stroke-opacity:1;visibility:visible"/><path d="m690.204 698.273 1.305-24.45M548.382 627.488l-16.26 5.615M691.509 673.786l-143.128-46.3" style="fill:none;stroke:red;stroke-width:1.99999;stroke-linecap:round;stroke-linejoin:round;stroke-miterlimit:4;stroke-dasharray:none;stroke-opacity:1;visibility:visible"/><path d="m552.574 631.35.38-.104.445-.065.483-.026.497.015.471.057.419.094.338.122.24.15.127.161.003.167-.119.161-.236.14-.339.12-.414.084-.474.047-.494.005-.487-.037-.447-.075-.384-.11-.292-.14-.186-.154-.06-.167.057-.164.179-.15.293-.131M648.288 662.421l.384-.113.459-.071.508-.028.52.016.502.06.455.104.38.139.275.164.161.178.032.186-.099.172-.225.161-.335.13-.43.094-.486.052-.516.005-.518-.042-.484-.082-.422-.122-.329-.152-.22-.174-.092-.182.035-.182.166-.17.279-.143" style="fill:none;stroke:red;stroke-width:.666665;stroke-linecap:round;stroke-linejoin:round;stroke-miterlimit:4;stroke-dasharray:none;stroke-opacity:1;visibility:visible"/><path d="m674.674 687.876-28.09-9.379" style="fill:none;stroke:red;stroke-width:1.99999;stroke-linecap:round;stroke-linejoin:round;stroke-miterlimit:4;stroke-dasharray:none;stroke-opacity:1;visibility:visible"/><path d="m678.772 681.509-.31.203-.28.34-.223.432-.13.48-.024.457.084.388.186.27.258.12.3-.05.314-.201.277-.339.223-.433.13-.474.02-.46-.081-.386-.183-.272-.256-.122-.305.047" style="fill:none;stroke:red;stroke-width:.566665;stroke-linecap:round;stroke-linejoin:round;stroke-miterlimit:4;stroke-dasharray:none;stroke-opacity:1;visibility:visible"/><path d="m685.18 684.22-10.508 4.412" style="fill:none;stroke:red;stroke-width:1.99999;stroke-linecap:round;stroke-linejoin:round;stroke-miterlimit:4;stroke-dasharray:none;stroke-opacity:1;visibility:visible"/><path d="m684.837 700.25.867-16.14" style="fill:none;stroke:red;stroke-width:.999997;stroke-linecap:round;stroke-linejoin:round;stroke-miterlimit:4;stroke-dasharray:none;stroke-opacity:1;visibility:visible"/><path d="m684.837 700.25.32.217M687.525 691.628l-.305.2-.278.341-.218.43-.124.468-.03.454.086.383.174.264.258.116.297-.048.303-.201.28-.339.214-.43.134-.467.018-.455-.076-.381-.181-.266-.252-.116-.3.047M685.017 700.744l.14-.277" style="fill:none;stroke:red;stroke-width:.566665;stroke-linecap:round;stroke-linejoin:round;stroke-miterlimit:4;stroke-dasharray:none;stroke-opacity:1;visibility:visible"/><path d="m685.017 700.744-41.567-14.06M690.11 698.46l-.684.435M689.428 698.895l-4.413 1.85M690.204 698.273l-.093.188" style="fill:none;stroke:red;stroke-width:1.99999;stroke-linecap:round;stroke-linejoin:round;stroke-miterlimit:4;stroke-dasharray:none;stroke-opacity:1;visibility:visible"/><path d="m415.85 812.715-.567-26.675" style="fill:none;stroke:red;stroke-width:.999997;stroke-linecap:round;stroke-linejoin:round;stroke-miterlimit:4;stroke-dasharray:none;stroke-opacity:1;visibility:visible"/><path d="m273.128 722.792.688-.468" style="fill:none;stroke:red;stroke-width:1.99999;stroke-linecap:round;stroke-linejoin:round;stroke-miterlimit:4;stroke-dasharray:none;stroke-opacity:1;visibility:visible"/><path d="m415.285 785.663-142.213-62.507" style="fill:none;stroke:red;stroke-width:.999997;stroke-linecap:round;stroke-linejoin:round;stroke-miterlimit:4;stroke-dasharray:none;stroke-opacity:1;visibility:visible"/><path d="m273.072 723.535.056-.743" style="fill:none;stroke:red;stroke-width:1.99999;stroke-linecap:round;stroke-linejoin:round;stroke-miterlimit:4;stroke-dasharray:none;stroke-opacity:1;visibility:visible"/><path d="m415.32 785.848 23.084-9.357M437.627 776l.777.493M438.405 776.493l-.017.815" style="fill:none;stroke:red;stroke-width:.999997;stroke-linecap:round;stroke-linejoin:round;stroke-miterlimit:4;stroke-dasharray:none;stroke-opacity:1;visibility:visible"/><path d="m273.072 723.535 1.504 24.945M438.503 785.183l-.115-7.875M295.123 714.966l-21.307 7.361" style="fill:none;stroke:red;stroke-width:1.99999;stroke-linecap:round;stroke-linejoin:round;stroke-miterlimit:4;stroke-dasharray:none;stroke-opacity:1;visibility:visible"/><path d="m318.096 724.803-22.972-9.837" style="fill:none;stroke:red;stroke-width:.999997;stroke-linecap:round;stroke-linejoin:round;stroke-miterlimit:4;stroke-dasharray:none;stroke-opacity:1;visibility:visible"/><path d="m318.096 724.274-4.45-1.904" style="fill:none;stroke:red;stroke-width:1.99999;stroke-linecap:round;stroke-linejoin:round;stroke-miterlimit:4;stroke-dasharray:none;stroke-opacity:1;visibility:visible"/><path d="m341.91 735.003-23.815-10.2M366.577 745.568l-24.667-10.565M390.603 755.859l-24.028-10.29" style="fill:none;stroke:red;stroke-width:.999997;stroke-linecap:round;stroke-linejoin:round;stroke-miterlimit:4;stroke-dasharray:none;stroke-opacity:1;visibility:visible"/><path d="m390.603 755.33-5.315-2.276" style="fill:none;stroke:red;stroke-width:1.99999;stroke-linecap:round;stroke-linejoin:round;stroke-miterlimit:4;stroke-dasharray:none;stroke-opacity:1;visibility:visible"/><path d="m411.7 764.902-21.096-9.043" style="fill:none;stroke:red;stroke-width:.999997;stroke-linecap:round;stroke-linejoin:round;stroke-miterlimit:4;stroke-dasharray:none;stroke-opacity:1;visibility:visible"/><path d="m438.39 776.316-27.74-12.399" style="fill:none;stroke:red;stroke-width:1.99999;stroke-linecap:round;stroke-linejoin:round;stroke-miterlimit:4;stroke-dasharray:none;stroke-opacity:1;visibility:visible"/><path d="m283.907 724.398.487-.137.549-.084.572-.035.565.017.512.078.438.124.328.164.201.198.065.215-.081.221-.22.214-.345.19-.45.156-.528.115-.564.061-.573.007-.544-.047-.481-.101-.384-.147-.268-.182-.132-.208.012-.222.153-.218.287-.203.401-.176" style="fill:none;stroke:red;stroke-width:.666665;stroke-linecap:round;stroke-linejoin:round;stroke-miterlimit:4;stroke-dasharray:none;stroke-opacity:1;visibility:visible"/><path d="m418.508 804.674.085.472.219.36.325.195.396.012.415-.175.388-.337.312-.46.2-.532.063-.532-.083-.475-.219-.357-.322-.199-.396-.012-.415.173-.388.339-.315.46-.201.532-.064.536" style="fill:none;stroke:red;stroke-width:.999997;stroke-linecap:round;stroke-linejoin:round;stroke-miterlimit:4;stroke-dasharray:none;stroke-opacity:1;visibility:visible"/><path d="m423.463 791.521.35 18.696M438.136 785.512l-14.675 6.01M438.519 785.266l-.016-.083M438.136 785.512l.381-.248M423.813 810.22l-8 3.208" style="fill:none;stroke:red;stroke-width:1.99999;stroke-linecap:round;stroke-linejoin:round;stroke-miterlimit:4;stroke-dasharray:none;stroke-opacity:1;visibility:visible"/><path d="m292.22 756.753-16.793-7.639" style="fill:none;stroke:red;stroke-width:.999997;stroke-linecap:round;stroke-linejoin:round;stroke-miterlimit:4;stroke-dasharray:none;stroke-opacity:1;visibility:visible"/><path d="m297.252 759.571-5.032-2.29" style="fill:none;stroke:red;stroke-width:1.99999;stroke-linecap:round;stroke-linejoin:round;stroke-miterlimit:4;stroke-dasharray:none;stroke-opacity:1;visibility:visible"/><path d="m315.258 767.233-18.007-8.192" style="fill:none;stroke:red;stroke-width:.999997;stroke-linecap:round;stroke-linejoin:round;stroke-miterlimit:4;stroke-dasharray:none;stroke-opacity:1;visibility:visible"/><path d="m320.335 770.07-5.077-2.31" style="fill:none;stroke:red;stroke-width:1.99999;stroke-linecap:round;stroke-linejoin:round;stroke-miterlimit:4;stroke-dasharray:none;stroke-opacity:1;visibility:visible"/><path d="m344.084 780.346-23.75-10.805" style="fill:none;stroke:red;stroke-width:.999997;stroke-linecap:round;stroke-linejoin:round;stroke-miterlimit:4;stroke-dasharray:none;stroke-opacity:1;visibility:visible"/><path d="m344.083 780.873-5.219-2.373" style="fill:none;stroke:red;stroke-width:1.99999;stroke-linecap:round;stroke-linejoin:round;stroke-miterlimit:4;stroke-dasharray:none;stroke-opacity:1;visibility:visible"/><path d="m368.53 791.461-24.448-11.117" style="fill:none;stroke:red;stroke-width:.999997;stroke-linecap:round;stroke-linejoin:round;stroke-miterlimit:4;stroke-dasharray:none;stroke-opacity:1;visibility:visible"/><path d="m368.53 791.993-5.46-2.483" style="fill:none;stroke:red;stroke-width:1.99999;stroke-linecap:round;stroke-linejoin:round;stroke-miterlimit:4;stroke-dasharray:none;stroke-opacity:1;visibility:visible"/><path d="m388.636 800.579-20.104-9.115" style="fill:none;stroke:red;stroke-width:.999997;stroke-linecap:round;stroke-linejoin:round;stroke-miterlimit:4;stroke-dasharray:none;stroke-opacity:1;visibility:visible"/><path d="m415.813 813.428-27.533-12.453" style="fill:none;stroke:red;stroke-width:1.99999;stroke-linecap:round;stroke-linejoin:round;stroke-miterlimit:4;stroke-dasharray:none;stroke-opacity:1;visibility:visible"/><path d="m430.978 783.663.081.476.214.363.322.198.388.019.415-.165.385-.339.31-.457.198-.53.066-.534-.079-.475-.213-.361-.323-.2-.393-.023-.41.168-.382.332-.318.463-.196.53-.065.535M438.405 776.493l.024.173" style="fill:none;stroke:red;stroke-width:.999997;stroke-linecap:round;stroke-linejoin:round;stroke-miterlimit:4;stroke-dasharray:none;stroke-opacity:1;visibility:visible"/><path d="m438.429 776.666.112 7.379M438.54 784.045l-.024 1.221" style="fill:none;stroke:red;stroke-width:1.99999;stroke-linecap:round;stroke-linejoin:round;stroke-miterlimit:4;stroke-dasharray:none;stroke-opacity:1;visibility:visible"/><path d="m434.83 780.3-.78-.54c-1.21-.845-3.13-.121-4.282 1.62-1.15 1.743-1.101 3.838.11 4.683l.761.554" style="fill:none;fill-opacity:1;fill-rule:nonzero;stroke:red;stroke-width:.999997;stroke-linecap:round;stroke-linejoin:round;stroke-miterlimit:4;stroke-dasharray:none;stroke-opacity:1;visibility:visible"/><path d="M435.17 785.148c-1.152 1.742-3.068 2.462-4.282 1.62-1.212-.844-1.261-2.94-.112-4.683 1.154-1.741 3.072-2.465 4.286-1.62 1.208.847 1.258 2.939.108 4.683" style="fill:none;fill-opacity:1;fill-rule:nonzero;stroke:red;stroke-width:1.33333;visibility:visible"/><path d="M435.17 785.148c-1.152 1.742-3.068 2.462-4.282 1.62-1.212-.844-1.261-2.94-.112-4.683 1.154-1.741 3.072-2.465 4.286-1.62 1.208.847 1.258 2.939.108 4.683" style="fill:none;stroke:red;stroke-width:.999997;stroke-linecap:round;stroke-linejoin:round;stroke-miterlimit:4;stroke-dasharray:none;stroke-opacity:1;visibility:visible"/><path d="m422.264 801.743-.781-.538c-1.21-.846-3.13-.122-4.281 1.62-1.152 1.741-1.103 3.835.11 4.682l.759.554" style="fill:none;fill-opacity:1;fill-rule:nonzero;stroke:red;stroke-width:.999997;stroke-linecap:round;stroke-linejoin:round;stroke-miterlimit:4;stroke-dasharray:none;stroke-opacity:1;visibility:visible"/><path d="M422.602 806.593c-1.152 1.742-3.068 2.465-4.282 1.62-1.212-.844-1.26-2.94-.112-4.683 1.154-1.74 3.072-2.464 4.284-1.62 1.21.847 1.26 2.94.11 4.683" style="fill:none;fill-opacity:1;fill-rule:nonzero;stroke:red;stroke-width:1.33333;visibility:visible"/><path d="M422.602 806.593c-1.152 1.742-3.068 2.465-4.282 1.62-1.212-.844-1.26-2.94-.112-4.683 1.154-1.74 3.072-2.464 4.284-1.62 1.21.847 1.26 2.94.11 4.683" style="fill:none;stroke:red;stroke-width:.999997;stroke-linecap:round;stroke-linejoin:round;stroke-miterlimit:4;stroke-dasharray:none;stroke-opacity:1;visibility:visible"/><path d="m690.478 690.176-.74-.43c-1.15-.682-2.83.104-3.742 1.752-.919 1.65-.724 3.538.424 4.21l.728.452" style="fill:none;fill-opacity:1;fill-rule:nonzero;stroke:red;stroke-width:.999997;stroke-linecap:round;stroke-linejoin:round;stroke-miterlimit:4;stroke-dasharray:none;stroke-opacity:1;visibility:visible"/><path d="M691.306 694.606c-.916 1.644-2.59 2.43-3.745 1.754-1.15-.675-1.344-2.56-.43-4.21.921-1.65 2.598-2.434 3.748-1.76 1.151.68 1.343 2.563.427 4.216" style="fill:none;fill-opacity:1;fill-rule:nonzero;stroke:red;stroke-width:1.33333;visibility:visible"/><path d="M691.306 694.606c-.916 1.644-2.59 2.43-3.745 1.754-1.15-.675-1.344-2.56-.43-4.21.921-1.65 2.598-2.434 3.748-1.76 1.151.68 1.343 2.563.427 4.216" style="fill:none;stroke:red;stroke-width:.999997;stroke-linecap:round;stroke-linejoin:round;stroke-miterlimit:4;stroke-dasharray:none;stroke-opacity:1;visibility:visible"/><path d="m682.017 679.724-.74-.43c-1.15-.682-2.83.104-3.743 1.752-.918 1.65-.724 3.538.426 4.21l.726.452" style="fill:none;fill-opacity:1;fill-rule:nonzero;stroke:red;stroke-width:.999997;stroke-linecap:round;stroke-linejoin:round;stroke-miterlimit:4;stroke-dasharray:none;stroke-opacity:1;visibility:visible"/><path d="M682.846 684.153c-.916 1.645-2.589 2.43-3.745 1.753-1.15-.674-1.344-2.558-.43-4.209.921-1.65 2.598-2.435 3.748-1.76 1.151.68 1.343 2.563.427 4.216" style="fill:none;fill-opacity:1;fill-rule:nonzero;stroke:red;stroke-width:1.33333;visibility:visible"/><path d="M682.846 684.153c-.916 1.645-2.589 2.43-3.745 1.753-1.15-.674-1.344-2.558-.43-4.209.921-1.65 2.598-2.435 3.748-1.76 1.151.68 1.343 2.563.427 4.216M295.123 714.966l17.118 7.332" style="fill:none;stroke:red;stroke-width:.999997;stroke-linecap:round;stroke-linejoin:round;stroke-miterlimit:4;stroke-dasharray:none;stroke-opacity:1;visibility:visible"/><path d="m295.123 714.966.958-.39" style="fill:none;stroke:red;stroke-width:1.99999;stroke-linecap:round;stroke-linejoin:round;stroke-miterlimit:4;stroke-dasharray:none;stroke-opacity:1;visibility:visible"/><path d="m438.404 776.49-9.968-6.517" style="fill:none;stroke:red;stroke-width:2.05866;stroke-linecap:round;stroke-linejoin:round;stroke-miterlimit:4;stroke-dasharray:none;stroke-opacity:1;visibility:visible"/><path d="m552.574 631.35 1.219 9.729" style="fill:none;stroke:red;stroke-width:1.99999;stroke-linecap:round;stroke-linejoin:round;stroke-miterlimit:4;stroke-dasharray:none;stroke-opacity:1;visibility:visible"/><path d="m548.382 627.488 4.192 3.862M645.775 671.235l2.513-8.814" style="fill:none;stroke:red;stroke-width:.666665;stroke-linecap:round;stroke-linejoin:round;stroke-miterlimit:4;stroke-dasharray:none;stroke-opacity:1;visibility:visible"/><path d="m689.426 698.895-1.901-7.267" style="fill:none;stroke:red;stroke-width:.566665;stroke-linecap:round;stroke-linejoin:round;stroke-miterlimit:4;stroke-dasharray:none;stroke-opacity:1;visibility:visible"/><path d="m318.096 724.803-4.45-2.433M390.603 755.859l-5.315-2.805" style="fill:none;stroke:red;stroke-width:1.99999;stroke-linecap:round;stroke-linejoin:round;stroke-miterlimit:4;stroke-dasharray:none;stroke-opacity:1;visibility:visible"/><path d="m410.65 763.917 1.05.985" style="fill:none;stroke:red;stroke-width:.999997;stroke-linecap:round;stroke-linejoin:round;stroke-miterlimit:4;stroke-dasharray:none;stroke-opacity:1;visibility:visible"/><path d="m295.123 714.966-11.216 9.432M273.816 722.327l10.091 2.071" style="fill:none;stroke:red;stroke-width:.666665;stroke-linecap:round;stroke-linejoin:round;stroke-miterlimit:4;stroke-dasharray:none;stroke-opacity:1;visibility:visible"/><path d="m344.084 780.346-5.22-1.846M368.53 791.461l-5.46-1.95" style="fill:none;stroke:red;stroke-width:1.99999;stroke-linecap:round;stroke-linejoin:round;stroke-miterlimit:4;stroke-dasharray:none;stroke-opacity:1;visibility:visible"/><path d="m438.519 785.266-7.541-1.603" style="fill:none;stroke:red;stroke-width:.999997;stroke-linecap:round;stroke-linejoin:round;stroke-miterlimit:4;stroke-dasharray:none;stroke-opacity:1;visibility:visible"/><path d="m437.627 776-2.797 4.3M437.627 776l-6.988 10.617M684.837 700.25l5.641-10.074M684.837 700.25l2.311-4.09M684.837 700.25l-6.151-14.542" style="fill:none;fill-opacity:1;fill-rule:nonzero;stroke:red;stroke-width:.999997;stroke-linecap:round;stroke-linejoin:round;stroke-miterlimit:4;stroke-dasharray:none;stroke-opacity:1;visibility:visible"/><path d="m607.469 700.843-3.077 94.645M608.697 793.532l-4.305 1.959" style="fill:none;stroke:#00ff4a;stroke-width:.999997;stroke-linecap:round;stroke-linejoin:round;stroke-miterlimit:4;stroke-dasharray:none;stroke-opacity:1;visibility:visible" visibility="hidden"/><path d="m585.631 787.961 2.15-79.297" style="fill:none;stroke:#00ff4a;stroke-width:1.99999;stroke-linecap:round;stroke-linejoin:round;stroke-miterlimit:4;stroke-dasharray:none;stroke-opacity:1;visibility:visible" visibility="hidden"/><path d="m632.33 691.016-4.47 113.894M632.155 802.9l-4.296 2.01" style="fill:none;stroke:#00ff4a;stroke-width:.999997;stroke-linecap:round;stroke-linejoin:round;stroke-miterlimit:4;stroke-dasharray:none;stroke-opacity:1;visibility:visible" visibility="hidden"/><path d="m608.647 797.197 3.3-97.865" style="fill:none;stroke:#00ff4a;stroke-width:1.99999;stroke-linecap:round;stroke-linejoin:round;stroke-miterlimit:4;stroke-dasharray:none;stroke-opacity:1;visibility:visible" visibility="hidden"/><path d="m343.994 913.44-5.781-135.096M345.41 913.817l3.94-1.797M345.41 913.817h-1.416" style="fill:none;stroke:#00ff4a;stroke-width:.999997;stroke-linecap:round;stroke-linejoin:round;stroke-miterlimit:4;stroke-dasharray:none;stroke-opacity:1;visibility:visible" visibility="hidden"/><path d="m320.197 770.143 6.403 133.998" style="fill:none;stroke:#00ff4a;stroke-width:1.99999;stroke-linecap:round;stroke-linejoin:round;stroke-miterlimit:4;stroke-dasharray:none;stroke-opacity:1;visibility:visible" visibility="hidden"/><path d="m321.197 901.253-6.59-133.657M322.593 901.63l3.788-1.683M322.593 901.63h-1.396" style="fill:none;stroke:#00ff4a;stroke-width:.999997;stroke-linecap:round;stroke-linejoin:round;stroke-miterlimit:4;stroke-dasharray:none;stroke-opacity:1;visibility:visible" visibility="hidden"/><path d="m297.098 759.623 7.172 132.584" style="fill:none;stroke:#00ff4a;stroke-width:1.99999;stroke-linecap:round;stroke-linejoin:round;stroke-miterlimit:4;stroke-dasharray:none;stroke-opacity:1;visibility:visible" visibility="hidden"/><path d="m583.453 710.174-1.972 76.118M585.733 784.404l-4.25 1.888" style="fill:none;stroke:#00ff4a;stroke-width:.999997;stroke-linecap:round;stroke-linejoin:round;stroke-miterlimit:4;stroke-dasharray:none;stroke-opacity:1;visibility:visible" visibility="hidden"/><path d="m563.163 778.94 1.272-61.448" style="fill:none;stroke:#00ff4a;stroke-width:1.99999;stroke-linecap:round;stroke-linejoin:round;stroke-miterlimit:4;stroke-dasharray:none;stroke-opacity:1;visibility:visible" visibility="hidden"/><path d="m367.43 925.964-4.92-136.558M368.864 926.342l4.103-1.916M368.864 926.342h-1.432" style="fill:none;stroke:#00ff4a;stroke-width:.999997;stroke-linecap:round;stroke-linejoin:round;stroke-miterlimit:4;stroke-dasharray:none;stroke-opacity:1;visibility:visible" visibility="hidden"/><path d="m343.968 780.964 5.58 135.442" style="fill:none;stroke:#00ff4a;stroke-width:1.99999;stroke-linecap:round;stroke-linejoin:round;stroke-miterlimit:4;stroke-dasharray:none;stroke-opacity:1;visibility:visible" visibility="hidden"/><path d="m657.595 691.47-5.693 123.092" style="fill:none;stroke:#00ff4a;stroke-width:.999997;stroke-linecap:round;stroke-linejoin:round;stroke-miterlimit:4;stroke-dasharray:none;stroke-opacity:1;visibility:visible" visibility="hidden"/><path d="m656.191 812.505 5.675-119.589" style="fill:none;stroke:#00ff4a;stroke-width:1.99999;stroke-linecap:round;stroke-linejoin:round;stroke-miterlimit:4;stroke-dasharray:none;stroke-opacity:1;visibility:visible" visibility="hidden"/><path d="m656.191 812.505-4.29 2.059" style="fill:none;stroke:#00ff4a;stroke-width:.999997;stroke-linecap:round;stroke-linejoin:round;stroke-miterlimit:4;stroke-dasharray:none;stroke-opacity:1;visibility:visible" visibility="hidden"/><path d="m632.217 806.66 4.764-117.556" style="fill:none;stroke:#00ff4a;stroke-width:1.99999;stroke-linecap:round;stroke-linejoin:round;stroke-miterlimit:4;stroke-dasharray:none;stroke-opacity:1;visibility:visible" visibility="hidden"/><path d="m391.53 938.847-4.01-138.053M392.989 939.224l5.735-2.752M392.989 939.224h-1.46" style="fill:none;stroke:#00ff4a;stroke-width:.999997;stroke-linecap:round;stroke-linejoin:round;stroke-miterlimit:4;stroke-dasharray:none;stroke-opacity:1;visibility:visible" visibility="hidden"/><path d="m368.429 792.1 4.71 136.916M395.253 804.374l3.443 131.609" style="fill:none;stroke:#00ff4a;stroke-width:1.99999;stroke-linecap:round;stroke-linejoin:round;stroke-miterlimit:4;stroke-dasharray:none;stroke-opacity:1;visibility:visible" visibility="hidden"/><path d="m398.723 936.094.048-1.621" style="fill:none;stroke:#00ff4a;stroke-width:.566665;stroke-linecap:round;stroke-linejoin:round;stroke-miterlimit:4;stroke-dasharray:none;stroke-opacity:1;visibility:visible" visibility="hidden"/><path d="m299.014 889.395-7.356-132.249M300.391 889.773l3.64-1.576M300.391 889.773h-1.377" style="fill:none;stroke:#00ff4a;stroke-width:.999997;stroke-linecap:round;stroke-linejoin:round;stroke-miterlimit:4;stroke-dasharray:none;stroke-opacity:1;visibility:visible" visibility="hidden"/><path d="m274.632 749.398 7.904 131.193" style="fill:none;stroke:#00ff4a;stroke-width:1.99999;stroke-linecap:round;stroke-linejoin:round;stroke-miterlimit:4;stroke-dasharray:none;stroke-opacity:1;visibility:visible" visibility="hidden"/><path d="m560.251 718.671-1.141 58.639M563.235 775.524l-4.127 1.788" style="fill:none;stroke:#00ff4a;stroke-width:.999997;stroke-linecap:round;stroke-linejoin:round;stroke-miterlimit:4;stroke-dasharray:none;stroke-opacity:1;visibility:visible" visibility="hidden"/><path d="m541.214 770.13.63-43.297" style="fill:none;stroke:#00ff4a;stroke-width:1.99999;stroke-linecap:round;stroke-linejoin:round;stroke-miterlimit:4;stroke-dasharray:none;stroke-opacity:1;visibility:visible" visibility="hidden"/><path d="m397.414 883.956 171.188-77.442M568.841 806.797l-.076 4.176" style="fill:none;stroke:#00ff4a;stroke-width:.999997;stroke-linecap:round;stroke-linejoin:round;stroke-miterlimit:4;stroke-dasharray:none;stroke-opacity:1;visibility:visible" visibility="hidden"/><path d="M551.616 799.464 396.987 868.12" style="fill:none;stroke:#00ff4a;stroke-width:1.99999;stroke-linecap:round;stroke-linejoin:round;stroke-miterlimit:4;stroke-dasharray:none;stroke-opacity:1;visibility:visible" visibility="hidden"/><path d="m397.997 905.7 193.413-89.73M591.66 816.27l-.105 4.343" style="fill:none;stroke:#00ff4a;stroke-width:.999997;stroke-linecap:round;stroke-linejoin:round;stroke-miterlimit:4;stroke-dasharray:none;stroke-opacity:1;visibility:visible" visibility="hidden"/><path d="m574.013 808.756-176.46 80.308" style="fill:none;stroke:#00ff4a;stroke-width:1.99999;stroke-linecap:round;stroke-linejoin:round;stroke-miterlimit:4;stroke-dasharray:none;stroke-opacity:1;visibility:visible" visibility="hidden"/><path d="m398.614 928.564 216.16-102.901M615.033 825.973l-.133 4.527" style="fill:none;stroke:#00ff4a;stroke-width:.999997;stroke-linecap:round;stroke-linejoin:round;stroke-miterlimit:4;stroke-dasharray:none;stroke-opacity:1;visibility:visible" visibility="hidden"/><path d="m596.952 818.271-198.809 92.798" style="fill:none;stroke:#00ff4a;stroke-width:1.99999;stroke-linecap:round;stroke-linejoin:round;stroke-miterlimit:4;stroke-dasharray:none;stroke-opacity:1;visibility:visible" visibility="hidden"/><path d="m416.723 944.847 223.105-110.05M638.984 835.92l-.259 6.727" style="fill:none;stroke:#00ff4a;stroke-width:.999997;stroke-linecap:round;stroke-linejoin:round;stroke-miterlimit:4;stroke-dasharray:none;stroke-opacity:1;visibility:visible" visibility="hidden"/><path d="M620.45 828.02 398.767 934.974M638.832 842.813 423.417 949.197" style="fill:none;stroke:#00ff4a;stroke-width:1.99999;stroke-linecap:round;stroke-linejoin:round;stroke-miterlimit:4;stroke-dasharray:none;stroke-opacity:1;visibility:visible" visibility="hidden"/><path d="m396.861 863.256 149.47-65.981M546.557 797.545l-.053 4.021" style="fill:none;stroke:#00ff4a;stroke-width:.999997;stroke-linecap:round;stroke-linejoin:round;stroke-miterlimit:4;stroke-dasharray:none;stroke-opacity:1;visibility:visible" visibility="hidden"/><path d="m529.738 790.39-133.29 57.773" style="fill:none;stroke:#00ff4a;stroke-width:1.99999;stroke-linecap:round;stroke-linejoin:round;stroke-miterlimit:4;stroke-dasharray:none;stroke-opacity:1;visibility:visible" visibility="hidden"/><path d="m419.283 978.617-.512-24.203" style="fill:none;stroke:#00ff4a;stroke-width:.999997;stroke-linecap:round;stroke-linejoin:round;stroke-miterlimit:4;stroke-dasharray:none;stroke-opacity:1;visibility:visible" visibility="hidden"/><path d="m425.325 950.211 1.115.676M426.44 950.887l-.007.416" style="fill:none;stroke:#00ff4a;stroke-width:1.99999;stroke-linecap:round;stroke-linejoin:round;stroke-miterlimit:4;stroke-dasharray:none;stroke-opacity:1;visibility:visible" visibility="hidden"/><path d="m419.13 954.181 5.743-2.837M418.835 954.334 282.59 881.44" style="fill:none;stroke:#00ff4a;stroke-width:.999997;stroke-linecap:round;stroke-linejoin:round;stroke-miterlimit:4;stroke-dasharray:none;stroke-opacity:1;visibility:visible" visibility="hidden"/><path d="m282.59 881.44.048-.748M282.68 880.667l-.041.027" style="fill:none;stroke:#00ff4a;stroke-width:.566665;stroke-linecap:round;stroke-linejoin:round;stroke-miterlimit:4;stroke-dasharray:none;stroke-opacity:1;visibility:visible" visibility="hidden"/><path d="m441.16 968.198-.103-7.081M282.59 881.44l1.372 22.815M283.963 904.254l135.382 74.282M425.325 950.211l-26.601-14.117" style="fill:none;stroke:#00ff4a;stroke-width:1.99999;stroke-linecap:round;stroke-linejoin:round;stroke-miterlimit:4;stroke-dasharray:none;stroke-opacity:1;visibility:visible" visibility="hidden"/><path d="m422.817 960.082.39-.276.342-.405.25-.484.123-.512-.005-.466-.144-.373-.263-.23-.352-.06-.39.111-.391.275-.345.407-.246.485-.125.51.008.466.141.375.263.229.352.063.392-.115" style="fill:none;stroke:#00ff4a;stroke-width:.566665;stroke-linecap:round;stroke-linejoin:round;stroke-miterlimit:4;stroke-dasharray:none;stroke-opacity:1;visibility:visible" visibility="hidden"/><path d="m426.459 950.926-.021-.039M426.459 950.926l.31 16.125" style="fill:none;stroke:#00ff4a;stroke-width:1.99999;stroke-linecap:round;stroke-linejoin:round;stroke-miterlimit:4;stroke-dasharray:none;stroke-opacity:1;visibility:visible" visibility="hidden"/><path d="m419.345 978.537.779.504" style="fill:none;stroke:#00ff4a;stroke-width:.566665;stroke-linecap:round;stroke-linejoin:round;stroke-miterlimit:4;stroke-dasharray:none;stroke-opacity:1;visibility:visible" visibility="hidden"/><path d="m441.16 968.198.024.063M441.184 968.26l-.716.44M440.468 968.7l-20.345 10.34M284.064 904.344l-.101-.09M420.124 979.04l-135.357-74.276M284.767 904.765l-.703-.42" style="fill:none;stroke:#00ff4a;stroke-width:1.99999;stroke-linecap:round;stroke-linejoin:round;stroke-miterlimit:4;stroke-dasharray:none;stroke-opacity:1;visibility:visible" visibility="hidden"/><path d="m426.769 967.504 13.925-7.023" style="fill:none;stroke:#00ff4a;stroke-width:.999997;stroke-linecap:round;stroke-linejoin:round;stroke-miterlimit:4;stroke-dasharray:none;stroke-opacity:1;visibility:visible" visibility="hidden"/><path d="m441.059 960.709-.363-.225M441.058 961.119l.003-.412M440.696 960.483l-14.196-7.55" style="fill:none;stroke:#00ff4a;stroke-width:1.99999;stroke-linecap:round;stroke-linejoin:round;stroke-miterlimit:4;stroke-dasharray:none;stroke-opacity:1;visibility:visible" visibility="hidden"/><path d="m435.184 968.262.383-.273.336-.403.245-.48.123-.503-.006-.46-.144-.365-.25-.23-.344-.06-.383.115-.387.275-.336.403-.246.481-.123.501.005.463.143.364.256.228.344.059.384-.115" style="fill:none;stroke:#00ff4a;stroke-width:.566665;stroke-linecap:round;stroke-linejoin:round;stroke-miterlimit:4;stroke-dasharray:none;stroke-opacity:1;visibility:visible" visibility="hidden"/><path d="m441.059 960.709.044.099M441.103 960.808l.095 6.635M441.2 967.442l-.017.819" style="fill:none;stroke:#00ff4a;stroke-width:1.99999;stroke-linecap:round;stroke-linejoin:round;stroke-miterlimit:4;stroke-dasharray:none;stroke-opacity:1;visibility:visible" visibility="hidden"/><path d="m682.866 823.757-4.565 2.26" style="fill:none;stroke:#00ff4a;stroke-width:.999997;stroke-linecap:round;stroke-linejoin:round;stroke-miterlimit:4;stroke-dasharray:none;stroke-opacity:1;visibility:visible" visibility="hidden"/><path d="m682.041 845.795 1.283-22.403" style="fill:none;stroke:#00ff4a;stroke-width:1.99999;stroke-linecap:round;stroke-linejoin:round;stroke-miterlimit:4;stroke-dasharray:none;stroke-opacity:1;visibility:visible" visibility="hidden"/><path d="m666.58 846.814-.325 6.433M639.596 835.435l27.035 11.207M529.863 789.95l94.546 39.192M666.631 846.643l10.607-5.348" style="fill:none;stroke:#00ff4a;stroke-width:.999997;stroke-linecap:round;stroke-linejoin:round;stroke-miterlimit:4;stroke-dasharray:none;stroke-opacity:1;visibility:visible" visibility="hidden"/><path d="m540.572 785.307-10.707 4.641" style="fill:none;stroke:#00ff4a;stroke-width:1.99999;stroke-linecap:round;stroke-linejoin:round;stroke-miterlimit:4;stroke-dasharray:none;stroke-opacity:1;visibility:visible" visibility="hidden"/><path d="m540.572 785.307 136.666 55.988" style="fill:none;stroke:#00ff4a;stroke-width:.999997;stroke-linecap:round;stroke-linejoin:round;stroke-miterlimit:4;stroke-dasharray:none;stroke-opacity:1;visibility:visible" visibility="hidden"/><path d="m670.983 847.65-.03-.388-.129-.285-.216-.154-.276-.001-.297.15-.29.287-.243.384-.166.438-.072.44.026.382.132.287.212.153.276.002.302-.15.287-.285.24-.387.17-.438.074-.435" style="fill:none;stroke:#00ff4a;stroke-width:.566665;stroke-linecap:round;stroke-linejoin:round;stroke-miterlimit:4;stroke-dasharray:none;stroke-opacity:1;visibility:visible" visibility="hidden"/><path d="m681.302 846.304.741-.51M681.302 846.304l-15.412 7.833M665.89 854.137l-27.059-11.324" style="fill:none;stroke:#00ff4a;stroke-width:1.99999;stroke-linecap:round;stroke-linejoin:round;stroke-miterlimit:4;stroke-dasharray:none;stroke-opacity:1;visibility:visible" visibility="hidden"/><path d="M678.041 826.017 540.78 770.822" style="fill:none;stroke:#00ff4a;stroke-width:.999997;stroke-linecap:round;stroke-linejoin:round;stroke-miterlimit:4;stroke-dasharray:none;stroke-opacity:1;visibility:visible" visibility="hidden"/><path d="m540.775 771.045.005.156" style="fill:none;stroke:#00ff4a;stroke-width:.566665;stroke-linecap:round;stroke-linejoin:round;stroke-miterlimit:4;stroke-dasharray:none;stroke-opacity:1;visibility:visible" visibility="hidden"/><path d="m677.238 841.295.805-14.9" style="fill:none;stroke:#00ff4a;stroke-width:.999997;stroke-linecap:round;stroke-linejoin:round;stroke-miterlimit:4;stroke-dasharray:none;stroke-opacity:1;visibility:visible" visibility="hidden"/><path d="m683.324 823.393-27.135-10.888" style="fill:none;stroke:#00ff4a;stroke-width:1.99999;stroke-linecap:round;stroke-linejoin:round;stroke-miterlimit:4;stroke-dasharray:none;stroke-opacity:1;visibility:visible" visibility="hidden"/><path d="m632.366 802.986-.21-.085M608.768 793.555l-.073-.025M680.807 830.201l-.03-.387-.126-.289-.213-.156-.27-.008-.298.148-.288.283-.24.382-.172.439-.07.44.028.387.127.289.212.159.27.002.3-.149.287-.283.242-.382.169-.438.072-.437M540.768 771.08l.008-.035" style="fill:none;stroke:#00ff4a;stroke-width:.566665;stroke-linecap:round;stroke-linejoin:round;stroke-miterlimit:4;stroke-dasharray:none;stroke-opacity:1;visibility:visible" visibility="hidden"/><path d="m540.567 785.314.201-14.235" style="fill:none;stroke:#00ff4a;stroke-width:1.99999;stroke-linecap:round;stroke-linejoin:round;stroke-miterlimit:4;stroke-dasharray:none;stroke-opacity:1;visibility:visible" visibility="hidden"/><path d="m425.404 955.982-.782-.539c-1.21-.843-3.128-.12-4.282 1.62-1.149 1.741-1.1 3.837.112 4.684l.758.553" style="fill:none;fill-opacity:1;fill-rule:nonzero;stroke:#00ff4a;stroke-width:.999997;stroke-linecap:round;stroke-linejoin:round;stroke-miterlimit:4;stroke-dasharray:none;stroke-opacity:1;visibility:visible" visibility="hidden"/><path d="M425.742 960.83c-1.152 1.742-3.068 2.466-4.282 1.62-1.212-.844-1.26-2.94-.112-4.683 1.154-1.741 3.072-2.463 4.286-1.62 1.209.847 1.258 2.939.108 4.683" style="fill:none;fill-opacity:1;fill-rule:nonzero;stroke:#00ff4a;stroke-width:1.33333;visibility:visible" visibility="hidden"/><path d="M425.742 960.83c-1.152 1.742-3.068 2.466-4.282 1.62-1.212-.844-1.26-2.94-.112-4.683 1.154-1.741 3.072-2.463 4.286-1.62 1.209.847 1.258 2.939.108 4.683" style="fill:none;stroke:#00ff4a;stroke-width:.999997;stroke-linecap:round;stroke-linejoin:round;stroke-miterlimit:4;stroke-dasharray:none;stroke-opacity:1;visibility:visible" visibility="hidden"/><path d="m437.466 964.676-.78-.538c-1.212-.844-3.128-.123-4.282 1.62-1.15 1.741-1.1 3.836.112 4.684l.758.552" style="fill:none;fill-opacity:1;fill-rule:nonzero;stroke:#00ff4a;stroke-width:.999997;stroke-linecap:round;stroke-linejoin:round;stroke-miterlimit:4;stroke-dasharray:none;stroke-opacity:1;visibility:visible" visibility="hidden"/><path d="M437.81 969.526c-1.151 1.742-3.07 2.464-4.283 1.62-1.213-.844-1.263-2.94-.113-4.683 1.153-1.741 3.074-2.463 4.284-1.62 1.21.847 1.262 2.939.112 4.683" style="fill:none;fill-opacity:1;fill-rule:nonzero;stroke:#00ff4a;stroke-width:1.33333;visibility:visible" visibility="hidden"/><path d="M437.81 969.526c-1.151 1.742-3.07 2.464-4.283 1.62-1.213-.844-1.263-2.94-.113-4.683 1.153-1.741 3.074-2.463 4.284-1.62 1.21.847 1.262 2.939.112 4.683" style="fill:none;stroke:#00ff4a;stroke-width:.999997;stroke-linecap:round;stroke-linejoin:round;stroke-miterlimit:4;stroke-dasharray:none;stroke-opacity:1;visibility:visible" visibility="hidden"/><path d="m682.972 828.054-.74-.43c-1.152-.681-2.832.106-3.743 1.754-.919 1.649-.724 3.536.425 4.209l.727.45" style="fill:none;fill-opacity:1;fill-rule:nonzero;stroke:#00ff4a;stroke-width:.999997;stroke-linecap:round;stroke-linejoin:round;stroke-miterlimit:4;stroke-dasharray:none;stroke-opacity:1;visibility:visible" visibility="hidden"/><path d="M683.801 832.483c-.916 1.644-2.59 2.43-3.745 1.754-1.151-.675-1.344-2.559-.43-4.21.919-1.65 2.596-2.434 3.747-1.76 1.152.68 1.344 2.563.428 4.216" style="fill:none;fill-opacity:1;fill-rule:nonzero;stroke:#00ff4a;stroke-width:1.33333;visibility:visible" visibility="hidden"/><path d="M683.801 832.483c-.916 1.644-2.59 2.43-3.745 1.754-1.151-.675-1.344-2.559-.43-4.21.919-1.65 2.596-2.434 3.747-1.76 1.152.68 1.344 2.563.428 4.216" style="fill:none;stroke:#00ff4a;stroke-width:.999997;stroke-linecap:round;stroke-linejoin:round;stroke-miterlimit:4;stroke-dasharray:none;stroke-opacity:1;visibility:visible" visibility="hidden"/><path d="m673.684 845.758-.74-.43c-1.151-.681-2.831.106-3.744 1.754-.918 1.648-.723 3.536.426 4.208l.727.452" style="fill:none;fill-opacity:1;fill-rule:nonzero;stroke:#00ff4a;stroke-width:.999997;stroke-linecap:round;stroke-linejoin:round;stroke-miterlimit:4;stroke-dasharray:none;stroke-opacity:1;visibility:visible" visibility="hidden"/><path d="M674.513 850.187c-.916 1.644-2.59 2.43-3.745 1.754-1.151-.675-1.344-2.559-.43-4.211.919-1.649 2.596-2.433 3.747-1.759 1.152.68 1.344 2.563.428 4.216" style="fill:none;fill-opacity:1;fill-rule:nonzero;stroke:#00ff4a;stroke-width:1.33333;visibility:visible" visibility="hidden"/><path d="M674.513 850.187c-.916 1.644-2.59 2.43-3.745 1.754-1.151-.675-1.344-2.559-.43-4.211.919-1.649 2.596-2.433 3.747-1.759 1.152.68 1.344 2.563.428 4.216" style="fill:none;stroke:#00ff4a;stroke-width:.999997;stroke-linecap:round;stroke-linejoin:round;stroke-miterlimit:4;stroke-dasharray:none;stroke-opacity:1;visibility:visible" visibility="hidden"/><path d="m639.828 834.797 3.805-1.937M639.245 829.14 415.21 940.263l-1.983 2.572" style="fill:none;stroke:#00ff4a;stroke-width:.945331;stroke-linecap:round;stroke-linejoin:round;stroke-miterlimit:10;stroke-dasharray:none;stroke-opacity:1;visibility:visible" visibility="hidden"/><path d="M632.216 826.26 407.812 936.33l-2.48 3.273" style="fill:none;stroke:#00ff4a;stroke-width:1.99999;stroke-linecap:round;stroke-linejoin:round;stroke-miterlimit:4;stroke-dasharray:none;stroke-opacity:1;visibility:visible" visibility="hidden"/><path d="m447.335 918.76.215-.108.234-.101.247-.09.259-.059.265-.047.27-.028.268-.005.27.013.259.026.248.054.234.062.22.089.199.101.175.115.15.123.126.148.096.15.062.154.032.16.003.171-.027.169-.062.163-.094.163-.114.159-.148.147-.175.137-.192.13-.215.114-.234.096-.25.084-.258.07-.266.041-.27.031-.273.005-.266-.013-.259-.03-.25-.044-.235-.075-.217-.082-.2-.103-.176-.117-.151-.123-.121-.149-.095-.142-.067-.165-.03-.164-.003-.16.03-.173.061-.164.089-.16.119-.156.152-.154.17-.137.195-.126M604.748 841.331l.181-.091.203-.083.216-.075.23-.055.243-.037.237-.021.254-.01.25.003.243.025.241.039.224.056.216.07.195.087.181.089.16.108.138.114.108.123.084.132.054.133.026.141-.004.139-.026.133-.06.139-.09.133-.111.124-.143.113-.16.11-.184.095-.206.082-.212.074-.23.054-.241.039-.247.025-.248.011-.25-.01-.243-.023-.237-.042-.232-.055-.214-.069-.2-.084-.181-.097-.159-.108-.132-.115-.108-.124-.086-.128-.054-.138-.024-.137.006-.14.024-.137.065-.137.087-.128.113-.124.141-.112.162-.11M526.073 880.057l.198-.103.218-.092.227-.07.248-.064.252-.045.263-.022.253-.011.257.011.252.029.246.043.23.06.215.077.201.092.179.104.15.119.135.124.102.136.076.142.045.153.015.15-.015.149-.044.152-.075.147-.1.144-.131.135-.153.13-.176.116-.204.103-.214.09-.233.079-.24.057-.255.041-.258.029-.261.008-.255-.009-.251-.031-.246-.043-.233-.061-.219-.076-.196-.092-.177-.101-.159-.117-.13-.131-.101-.136-.074-.143-.046-.145-.013-.156.012-.15.047-.153.073-.147.105-.145.127-.13.156-.127.177-.12" style="fill:none;stroke:#00ff4a;stroke-width:.666665;stroke-linecap:round;stroke-linejoin:round;stroke-miterlimit:10;stroke-dasharray:none;stroke-opacity:1;visibility:visible" visibility="hidden"/><path d="m448.363 920.334.913-1.157M447.934 919.598l1.729.43M526.648 881.217l1.844-.347M527.34 880.566l.523.899M605.254 842.314l1.856-.287M605.968 841.685l.492.915" style="fill:none;stroke:#00ff4a;stroke-width:.666665;stroke-linecap:round;stroke-linejoin:round;stroke-miterlimit:4;stroke-dasharray:none;stroke-opacity:1;visibility:visible" visibility="hidden"/><path d="m643.634 832.86-4.389-3.72M639.245 829.14l-7.028-2.88" style="fill:none;stroke:#00ff4a;stroke-width:1.99999;stroke-linecap:round;stroke-linejoin:round;stroke-miterlimit:4;stroke-dasharray:none;stroke-opacity:1;visibility:visible" visibility="hidden"/><path d="m415.207 940.26-7.395-3.933" style="fill:none;stroke:#00ff4a;stroke-width:.945331;stroke-linecap:round;stroke-linejoin:round;stroke-miterlimit:10;stroke-dasharray:none;stroke-opacity:1;visibility:visible" visibility="hidden"/><path d="m398.724 936.472-.11-7.908M424.873 951.344l-8.15-6.497" style="fill:none;stroke:#00ff4a;stroke-width:.999997;stroke-linecap:round;stroke-linejoin:round;stroke-miterlimit:4;stroke-dasharray:none;stroke-opacity:1;visibility:visible" visibility="hidden"/><path d="m424.873 951.344-1.456-2.147" style="fill:none;stroke:#00ff4a;stroke-width:1.99999;stroke-linecap:round;stroke-linejoin:round;stroke-miterlimit:4;stroke-dasharray:none;stroke-opacity:1;visibility:visible" visibility="hidden"/><path d="m423.417 949.197 1.456 2.147" style="fill:none;stroke:#00ff4a;stroke-width:.999997;stroke-linecap:round;stroke-linejoin:round;stroke-miterlimit:4;stroke-dasharray:none;stroke-opacity:1;visibility:visible" visibility="hidden"/><path d="m426.44 950.887.06 2.045" style="fill:none;stroke:#00ff4a;stroke-width:1.99999;stroke-linecap:round;stroke-linejoin:round;stroke-miterlimit:4;stroke-dasharray:none;stroke-opacity:1;visibility:visible" visibility="hidden"/><path d="m441.184 968.26-6 .002" style="fill:none;stroke:#00ff4a;stroke-width:.566665;stroke-linecap:round;stroke-linejoin:round;stroke-miterlimit:4;stroke-dasharray:none;stroke-opacity:1;visibility:visible" visibility="hidden"/><path d="m632.217 826.26-7.808 2.882" style="fill:none;stroke:#00ff4a;stroke-width:.999997;stroke-linecap:round;stroke-linejoin:round;stroke-miterlimit:4;stroke-dasharray:none;stroke-opacity:1;visibility:visible" visibility="hidden"/><path d="m425.325 950.211.079 5.771M425.325 950.211 421.21 962.3M440.696 960.484l-3.23 4.192M440.696 960.484l-7.422 10.51" style="fill:none;fill-opacity:1;fill-rule:nonzero;stroke:#00ff4a;stroke-width:.999997;stroke-linecap:round;stroke-linejoin:round;stroke-miterlimit:4;stroke-dasharray:none;stroke-opacity:1;visibility:visible" visibility="hidden"/><path d="m614.775 825.663-10.027 15.668" style="fill:none;stroke:#00ff4a;stroke-width:.666665;stroke-linecap:round;stroke-linejoin:round;stroke-miterlimit:10;stroke-dasharray:none;stroke-opacity:1;visibility:visible" visibility="hidden"/><path d="m425.325 950.211-10.118-9.951" style="fill:none;stroke:#00ff4a;stroke-width:.945331;stroke-linecap:round;stroke-linejoin:round;stroke-miterlimit:10;stroke-dasharray:none;stroke-opacity:1;visibility:visible" visibility="hidden"/><path d="m646.23 678.553-13.9 12.463M646.23 678.553l11.365 12.917" style="fill:none;stroke:#00ff4a;stroke-width:.999997;stroke-linecap:round;stroke-linejoin:round;stroke-miterlimit:4;stroke-dasharray:none;stroke-opacity:1;visibility:visible" visibility="hidden"/><path d="m674.683 687.933-12.817 4.983M646.23 678.553l-9.249 10.551" style="fill:none;stroke:#00ff4a;stroke-width:1.99999;stroke-linecap:round;stroke-linejoin:round;stroke-miterlimit:4;stroke-dasharray:none;stroke-opacity:1;visibility:visible" visibility="hidden"/></svg>