<svg xmlns="http://www.w3.org/2000/svg" baseProfile="full" height="1122.52" preserveAspectRatio="xMinYMin meet" style="width:919px;height:1159px" width="793.701" xml:space="preserve"><path d="M389.416 682.214 237.61 712.95" style="fill:none;stroke:red;stroke-width:.999997;stroke-linecap:round;stroke-linejoin:round;stroke-miterlimit:2;stroke-dasharray:none;stroke-opacity:1;visibility:visible"/><path d="m237.61 712.948-8.083 1.722-6.666-4.61-1.856-17.396M220.005 683.293l-.7-6.567 170.303-33.653 7 4.292-.792 33.563-6.398 1.285" style="fill:none;stroke:red;stroke-width:1.99999;stroke-linecap:round;stroke-linejoin:round;stroke-miterlimit:2;stroke-dasharray:none;stroke-opacity:1;visibility:visible"/><path d="m226.305 681.17 170.075-33.722M219.915 676.893l6.39 4.277 3.39 33.223" style="fill:none;stroke:red;stroke-width:.999997;stroke-linecap:round;stroke-linejoin:round;stroke-miterlimit:2;stroke-dasharray:none;stroke-opacity:1;visibility:visible"/><path d="M260.583 699.026c-2.033 3.151-5.826 4.324-8.472 2.618-2.644-1.708-3.138-5.646-1.105-8.799 2.035-3.15 5.827-4.323 8.47-2.615 2.647 1.707 3.141 5.644 1.108 8.796h-.001M226.154 700.31c.43 1.702.284 3.21-.332 3.361-.612.159-1.457-1.098-1.884-2.802-.43-1.701-.283-3.209.33-3.364.615-.155 1.459 1.101 1.887 2.805h-.001M222.971 684.556c.542-.138 1.279.928 1.642 2.378.366 1.451.225 2.74-.319 2.872M374.255 676.037c-1.99 3.084-5.701 4.23-8.29 2.56-2.586-1.67-3.07-5.524-1.079-8.607 1.987-3.085 5.698-4.23 8.284-2.56 2.591 1.67 3.074 5.522 1.085 8.607" style="fill:none;stroke:red;stroke-width:.666665;stroke-linecap:round;stroke-linejoin:round;stroke-miterlimit:2;stroke-dasharray:none;stroke-opacity:1;visibility:visible"/><path d="M256.462 689.913c.308 1.68-.055 3.599-1.147 5.292-1.208 1.87-3.034 3.043-4.873 3.33M370.436 668.033s-.2-2.299 1.406-.49c1.606 1.805 1.897 3.881.736 5.064-1.16 1.182-2.299.177-2.166-1.718.135-1.896.024-2.856.024-2.856M337.403 656.636c.019.594-1.345 1.122-3.05 1.182-1.706.06-3.108-.37-3.126-.963-.021-.591 1.343-1.12 3.048-1.18 1.707-.06 3.107.369 3.128.96v.001M286.146 666.786c.021.616-1.363 1.164-3.093 1.224-1.731.06-3.154-.386-3.173-1.002-.022-.615 1.362-1.162 3.093-1.223 1.73-.06 3.152.387 3.173 1.001M369.78 667.128c.332 1.637.011 3.522-1.028 5.197-1.148 1.85-2.914 3.03-4.709 3.345" style="fill:none;stroke:red;stroke-width:.666665;stroke-linecap:round;stroke-linejoin:round;stroke-miterlimit:2;stroke-dasharray:none;stroke-opacity:1;visibility:visible"/><path d="m220.005 683.293 1 9.371M221.005 692.664l-1-9.371" style="fill:none;stroke:red;stroke-width:1.99999;stroke-linecap:round;stroke-linejoin:round;stroke-miterlimit:2;stroke-dasharray:none;stroke-opacity:1;visibility:visible"/><path d="m237.61 712.948 12.832-14.413" style="fill:none;stroke:red;stroke-width:.666665;stroke-linecap:round;stroke-linejoin:round;stroke-miterlimit:2;stroke-dasharray:none;stroke-opacity:1;visibility:visible"/><path d="m499.055 895.167-8.807 2.058-8.388-6-1.425-19.125" style="fill:none;stroke:#00ff4a;stroke-width:1.99999;stroke-linecap:round;stroke-linejoin:round;stroke-miterlimit:2;stroke-dasharray:none;stroke-opacity:1;visibility:visible"/><path d="m664.238 856.585-165.182 38.582" style="fill:none;stroke:#00ff4a;stroke-width:.999997;stroke-linecap:round;stroke-linejoin:round;stroke-miterlimit:2;stroke-dasharray:none;stroke-opacity:1;visibility:visible"/><path d="m664.238 856.585 7.37-1.722 2-37.04-8.834-5.481L479.13 854.57l.671 9.015" style="fill:none;stroke:#00ff4a;stroke-width:1.99999;stroke-linecap:round;stroke-linejoin:round;stroke-miterlimit:2;stroke-dasharray:none;stroke-opacity:1;visibility:visible"/><path d="m487.919 860.322 185.437-42.375M479.65 854.635l8.27 5.688 2.716 36.514" style="fill:none;stroke:#00ff4a;stroke-width:.999997;stroke-linecap:round;stroke-linejoin:round;stroke-miterlimit:2;stroke-dasharray:none;stroke-opacity:1;visibility:visible"/><path d="M608.732 829.465c.005.718-1.547 1.317-3.476 1.337-1.928.019-3.498-.544-3.503-1.262-.008-.715 1.544-1.317 3.473-1.334 1.927-.021 3.498.541 3.506 1.259M552.77 842.12c.025.754-1.523 1.419-3.455 1.487-1.931.066-3.519-.486-3.543-1.238-.03-.752 1.516-1.416 3.448-1.486 1.932-.066 3.523.487 3.55 1.238v-.001M486.693 880.806c.6 1.879.438 3.61-.372 3.861-.801.26-1.937-1.056-2.534-2.934-.597-1.876-.432-3.607.373-3.863.804-.255 1.937 1.06 2.533 2.936M483.313 863.547c.648-.197 1.568.933 2.052 2.527.49 1.593.366 3.047-.285 3.243" style="fill:none;stroke:#00ff4a;stroke-width:.666665;stroke-linecap:round;stroke-linejoin:round;stroke-miterlimit:2;stroke-dasharray:none;stroke-opacity:1;visibility:visible"/><path d="m479.801 863.585.634 8.515M480.435 872.1l-.634-8.515" style="fill:none;stroke:#00ff4a;stroke-width:1.99999;stroke-linecap:round;stroke-linejoin:round;stroke-miterlimit:2;stroke-dasharray:none;stroke-opacity:1;visibility:visible"/><path d="m388.983 683.302 221.943 140.7" style="fill:none;stroke:#9500ff;stroke-width:1.99999;stroke-linecap:round;stroke-linejoin:round;stroke-miterlimit:2;stroke-dasharray:none;stroke-opacity:1;visibility:visible"/><path d="m238.213 713.581 221.482 154.133M469.035 874.211l10.158 7.07" style="fill:none;stroke:#9500ff;stroke-width:.999997;stroke-linecap:round;stroke-linejoin:round;stroke-miterlimit:2;stroke-dasharray:none;stroke-opacity:1;visibility:visible"/><path d="M218.293 702.384s-5.155 5.176 2.097 11.894l222.342 156.079M454.199 878.406l56.328 39.541 164.58-38.914s12.056-5.584-.499-14.668l-10.833-6.896" style="fill:none;stroke:#9500ff;stroke-width:1.99999;stroke-linecap:round;stroke-linejoin:round;stroke-miterlimit:2;stroke-dasharray:none;stroke-opacity:1;visibility:visible"/><path d="M510.081 903.003s-3.166 8.667-.333 14.278M500.193 895.891l10.167 7.112 163.768-38.473M469.035 874.211l-9.34-6.497M459.695 867.714l9.34 6.497" style="fill:none;stroke:#9500ff;stroke-width:.999997;stroke-linecap:round;stroke-linejoin:round;stroke-miterlimit:2;stroke-dasharray:none;stroke-opacity:1;visibility:visible"/><path d="m454.199 878.406-11.467-8.049M459.695 867.714l-5.496 10.692" style="fill:none;stroke:#9500ff;stroke-width:1.99999;stroke-linecap:round;stroke-linejoin:round;stroke-miterlimit:2;stroke-dasharray:none;stroke-opacity:1;visibility:visible"/><path d="m664.238 856.585 9.89 7.945" style="fill:none;stroke:#9500ff;stroke-width:.999997;stroke-linecap:round;stroke-linejoin:round;stroke-miterlimit:2;stroke-dasharray:none;stroke-opacity:1;visibility:visible"/></svg>