<svg xmlns="http://www.w3.org/2000/svg" baseProfile="full" height="1122.52" preserveAspectRatio="xMinYMin meet" style="width:919px;height:1159px" width="793.701" xml:space="preserve"><path d="m155.561 269.548-1.683-13.723 286.918-98.874 21.248 7.375 1.043 13.04-295.165 96.877-12.361-4.695" style="fill:none;stroke:red;stroke-width:1.99999;stroke-linecap:round;stroke-linejoin:round;stroke-miterlimit:2;stroke-dasharray:none;stroke-opacity:1;visibility:visible" visibility="hidden"/><path d="m153.88 255.825 12.459 4.917 1.581 13.5M166.339 260.742l294.958-95.89" style="fill:none;stroke:red;stroke-width:.999997;stroke-linecap:round;stroke-linejoin:round;stroke-miterlimit:2;stroke-dasharray:none;stroke-opacity:1;visibility:visible" visibility="hidden"/><path d="m315.616 354.076-131.152 62.25-12.125-5.126-1.667-13 93.71-46.508M408.602 280.087l40.572-20.233 21.11 7.777.834 12.612-27.247 12.963" style="fill:none;stroke:#00ff4a;stroke-width:1.99999;stroke-linecap:round;stroke-linejoin:round;stroke-miterlimit:2;stroke-dasharray:none;stroke-opacity:1;visibility:visible"/><path d="m170.672 398.2 12.125 5.084 1.667 13.041M428.591 287.516l41.083-19.552M182.797 403.283l117.764-55.319" style="fill:none;stroke:#00ff4a;stroke-width:.999997;stroke-linecap:round;stroke-linejoin:round;stroke-miterlimit:2;stroke-dasharray:none;stroke-opacity:1;visibility:visible"/><path d="m582.288 421.787 86.59-81.63 23.127 8.418.625 13.125-204.5 182.708-13.918-5.959-1.081-13.625 63.874-60.304" style="fill:none;stroke:#00ff4a;stroke-width:1.99999;stroke-linecap:round;stroke-linejoin:round;stroke-miterlimit:2;stroke-dasharray:none;stroke-opacity:1;visibility:visible"/><path d="m473.13 524.825 13.873 5.792 1.127 13.792M583.06 445.464l108.945-96.89M487.005 530.617l84.777-75.04" style="fill:none;stroke:#00ff4a;stroke-width:.999997;stroke-linecap:round;stroke-linejoin:round;stroke-miterlimit:2;stroke-dasharray:none;stroke-opacity:1;visibility:visible"/><path d="m534.172 398.825-2.833-39.5" style="fill:none;stroke:#00ff4a;stroke-width:1.99999;stroke-linecap:round;stroke-linejoin:round;stroke-miterlimit:2;stroke-dasharray:none;stroke-opacity:1;visibility:visible"/><path d="m535.005 410.325-.833-11.5" style="fill:none;stroke:#00ff4a;stroke-width:.999997;stroke-linecap:round;stroke-linejoin:round;stroke-miterlimit:2;stroke-dasharray:none;stroke-opacity:1;visibility:visible"/><path d="m538.925 464.097-3.919-53.772M563.117 338.847l11.6 4.326 7.279 110.369s-.492 4.146-6.77 1.868l-11.168-4.443.198 4.92M286.88 235.825l241.971 90.241M355.695 368.482l180.308 71.37M291.189 347.079l-.452-4.308 43.417 17.185M255.178 246.364l11.407 108.41" style="fill:none;stroke:#00ff4a;stroke-width:1.99999;stroke-linecap:round;stroke-linejoin:round;stroke-miterlimit:2;stroke-dasharray:none;stroke-opacity:1;visibility:visible"/><path d="m564.283 456.576-16.944 11.721-8.39-3.388M266.667 355.628l7.444 3.13 17.176-10.7M280.255 239.867l1.465 14.317" style="fill:none;stroke:#00ff4a;stroke-width:.999997;stroke-linecap:round;stroke-linejoin:round;stroke-miterlimit:2;stroke-dasharray:none;stroke-opacity:1;visibility:visible"/><path d="m280.047 238.033.207 1.833" style="fill:none;stroke:#00ff4a;stroke-width:1.99999;stroke-linecap:round;stroke-linejoin:round;stroke-miterlimit:2;stroke-dasharray:none;stroke-opacity:1;visibility:visible"/><path d="m280.376 240.058 240.711 90.1M262.214 243.95l11.897 114.588M557.255 343.658l10.416 4.084M575.225 454.987l-7.554-107.244s3.759-3.853 6.729-4.41M556.672 342.908l7.221 107.001M539.422 354.742l7.916 113.556M290.712 342.255l-7.93-77.694" style="fill:none;stroke:#00ff4a;stroke-width:.999997;stroke-linecap:round;stroke-linejoin:round;stroke-miterlimit:2;stroke-dasharray:none;stroke-opacity:1;visibility:visible"/><path d="M541.279 423.842c.676 1.058.669 2.276-.02 2.718-.683.447-1.794-.054-2.471-1.112-.679-1.057-.67-2.274.017-2.717.686-.444 1.795.053 2.475 1.11l-.001.001M538.745 387.3c.636 1.099.578 2.323-.128 2.733-.704.411-1.793-.149-2.426-1.246-.638-1.099-.579-2.324.125-2.734.708-.411 1.793.147 2.43 1.247h-.001M267.351 316.531c.51 1.076.351 2.22-.354 2.556-.703.336-1.687-.266-2.197-1.344-.507-1.076-.351-2.222.353-2.557.702-.337 1.686.265 2.197 1.345h.001M263.645 281.415c.514 1.088.355 2.248-.359 2.587-.713.34-1.707-.27-2.223-1.36-.513-1.09-.356-2.25.357-2.588.713-.34 1.706.27 2.225 1.361M285.475 335.01c-.892 2.404-2.857 3.887-4.388 3.315-1.533-.575-2.054-2.986-1.164-5.388.892-2.407 2.858-3.891 4.39-3.318 1.534.574 2.053 2.984 1.162 5.391M275.909 260.251c-.782.65-1.682.93-2.515.687-1.668-.488-2.44-2.877-1.728-5.338.715-2.467 2.644-4.068 4.31-3.582 1.104.323 1.814 1.483 1.959 2.947M282.307 332.054l.297 3.737" style="fill:none;stroke:#00ff4a;stroke-width:.666665;stroke-linecap:round;stroke-linejoin:round;stroke-miterlimit:2;stroke-dasharray:none;stroke-opacity:1;visibility:visible"/><path d="M548.48 358.335c-1.088 2.663-3.345 4.263-5.04 3.572-1.696-.693-2.188-3.414-1.099-6.08 1.087-2.665 3.342-4.264 5.039-3.572 1.696.692 2.187 3.415 1.1 6.08" style="fill:none;stroke:#00ff4a;stroke-width:.666665;stroke-linecap:round;stroke-linejoin:round;stroke-miterlimit:4;stroke-dasharray:1.99999,1.99999;stroke-dashoffset:0;stroke-opacity:1;visibility:visible"/><path d="m571.782 455.577 11.278-10.113M583.06 445.464l-11.278 10.113" style="fill:none;stroke:#00ff4a;stroke-width:.999997;stroke-linecap:round;stroke-linejoin:round;stroke-miterlimit:2;stroke-dasharray:none;stroke-opacity:1;visibility:visible"/><path d="m567.671 347.742-4.554-8.895" style="fill:none;stroke:#00ff4a;stroke-width:1.99999;stroke-linecap:round;stroke-linejoin:round;stroke-miterlimit:2;stroke-dasharray:none;stroke-opacity:1;visibility:visible"/><path d="m282.783 264.56-1.063-10.376" style="fill:none;stroke:#00ff4a;stroke-width:.999997;stroke-linecap:round;stroke-linejoin:round;stroke-miterlimit:2;stroke-dasharray:none;stroke-opacity:1;visibility:visible"/><path d="m281.72 254.184-1.673-16.151" style="fill:none;stroke:#00ff4a;stroke-width:1.99999;stroke-linecap:round;stroke-linejoin:round;stroke-miterlimit:2;stroke-dasharray:none;stroke-opacity:1;visibility:visible"/><path d="m280.254 239.866-18.04 4.084M563.117 338.847l4.554 8.895M282.307 332.054l8.405 10.201M281.72 254.184l1.063 10.377" style="fill:none;stroke:#00ff4a;stroke-width:.999997;stroke-linecap:round;stroke-linejoin:round;stroke-miterlimit:2;stroke-dasharray:none;stroke-opacity:1;visibility:visible"/><path d="m282.783 264.56-4.848-9.595M290.712 342.255l-8.405-10.201" style="fill:none;stroke:#00ff4a;stroke-width:.666665;stroke-linecap:round;stroke-linejoin:round;stroke-miterlimit:2;stroke-dasharray:none;stroke-opacity:1;visibility:visible"/><path d="m462.172 389.492-1.164-14.152 202.164-141.806 23.458 8.084.583 13.416-210.874 140-14.167-5.542" style="fill:none;stroke:#9500ff;stroke-width:1.99999;stroke-linecap:round;stroke-linejoin:round;stroke-miterlimit:2;stroke-dasharray:none;stroke-opacity:1;visibility:visible" visibility="hidden"/><path d="m461.008 375.34 14.223 5.485 1.108 14.21M475.23 380.825l211.4-139.208" style="fill:none;stroke:#9500ff;stroke-width:.999997;stroke-linecap:round;stroke-linejoin:round;stroke-miterlimit:2;stroke-dasharray:none;stroke-opacity:1;visibility:visible" visibility="hidden"/></svg>