<svg xmlns="http://www.w3.org/2000/svg" baseProfile="full" height="1122.52" preserveAspectRatio="xMinYMin meet" style="width:919px;height:1159px" width="793.701" xml:space="preserve"><path d="m272.498 635.86-2.353-.503-7.65 2.326-58.774 297.33 12.917 3.657 7.473-3.349 68.647-295.126-9.355-2.002" style="fill:none;stroke:red;stroke-width:1.99999;stroke-linecap:round;stroke-linejoin:round;stroke-miterlimit:4;stroke-dasharray:none;stroke-opacity:1;visibility:visible" visibility="hidden"/><path d="m285.106 642.821-68.47 295.851M262.794 637.945l22.312 4.875 7.088-2.213" style="fill:none;stroke:red;stroke-width:.999997;stroke-linecap:round;stroke-linejoin:round;stroke-miterlimit:4;stroke-dasharray:none;stroke-opacity:1;visibility:visible" visibility="hidden"/><path d="m299.013 787.76 23.757-168.75 7.076-2.252 2.987.618M343.68 619.625l8.465 1.755-30.346 172.19" style="fill:none;stroke:red;stroke-width:1.99999;stroke-linecap:round;stroke-linejoin:round;stroke-miterlimit:4;stroke-dasharray:none;stroke-opacity:1;visibility:visible" visibility="hidden"/><path d="m345.068 623.907-29.785 167.906M322.97 619.232l22.1 4.675 7.074-2.527" style="fill:none;stroke:red;stroke-width:.999997;stroke-linecap:round;stroke-linejoin:round;stroke-miterlimit:4;stroke-dasharray:none;stroke-opacity:1;visibility:visible" visibility="hidden"/><path d="m315.055 793.02 190.193 46.26" style="fill:none;stroke:red;stroke-width:1.99999;stroke-linecap:round;stroke-linejoin:round;stroke-miterlimit:4;stroke-dasharray:none;stroke-opacity:1;visibility:visible" visibility="hidden"/><path d="m298.789 789.065 16.265 3.955" style="fill:none;stroke:red;stroke-width:.999997;stroke-linecap:round;stroke-linejoin:round;stroke-miterlimit:4;stroke-dasharray:none;stroke-opacity:1;visibility:visible" visibility="hidden"/><path d="m257.615 799.054 31.647-12.307 9.528 2.318" style="fill:none;stroke:red;stroke-width:1.99999;stroke-linecap:round;stroke-linejoin:round;stroke-miterlimit:4;stroke-dasharray:none;stroke-opacity:1;visibility:visible" visibility="hidden"/><path d="m253.966 815.15 253.385 63.372" style="fill:none;stroke:red;stroke-width:.999997;stroke-linecap:round;stroke-linejoin:round;stroke-miterlimit:4;stroke-dasharray:none;stroke-opacity:1;visibility:visible" visibility="hidden"/><path d="m292.629 834.473-9.349 65.577 12.51 3.323 7.055-3.074 10.532-60.858M247.213 843.075l30.22-12.402M252.066 823.147l255.61 64.39" style="fill:none;stroke:red;stroke-width:1.99999;stroke-linecap:round;stroke-linejoin:round;stroke-miterlimit:4;stroke-dasharray:none;stroke-opacity:1;visibility:visible" visibility="hidden"/><path d="m307.24 837.978-11.45 65.393" style="fill:none;stroke:red;stroke-width:.999997;stroke-linecap:round;stroke-linejoin:round;stroke-miterlimit:4;stroke-dasharray:none;stroke-opacity:1;visibility:visible" visibility="hidden"/><path d="m505.156 685.57-7.125 2.698 18.873 333.69 14.536 4.029 6.879-3.879-8.451-331.25-9.41-2.018" style="fill:none;stroke:red;stroke-width:1.99999;stroke-linecap:round;stroke-linejoin:round;stroke-miterlimit:4;stroke-dasharray:none;stroke-opacity:1;visibility:visible" visibility="hidden"/><path d="m522.932 693.857 8.38 331.754M498.556 688.57l24.375 5.287 6.788-2.625" style="fill:none;stroke:red;stroke-width:.999997;stroke-linecap:round;stroke-linejoin:round;stroke-miterlimit:4;stroke-dasharray:none;stroke-opacity:1;visibility:visible" visibility="hidden"/><path d="m574.916 856.211-20.972-189.105 6.673-2.524 2.284.48M576.103 667.846l8.814 1.86 24.563 311.85-6.374 3.564-14.138-3.826-9.7-87.336" style="fill:none;stroke:red;stroke-width:1.99999;stroke-linecap:round;stroke-linejoin:round;stroke-miterlimit:4;stroke-dasharray:none;stroke-opacity:1;visibility:visible" visibility="hidden"/><path d="m554.217 667.43 24.203 5.05 6.325-2.472" style="fill:none;stroke:red;stroke-width:.999997;stroke-linecap:round;stroke-linejoin:round;stroke-miterlimit:4;stroke-dasharray:none;stroke-opacity:1;visibility:visible" visibility="hidden"/><path d="m593.532 860.745 4.786 1.164s6.352 3.948-.726 8.685l-52.525 26.364-9.299-2.401" style="fill:none;stroke:red;stroke-width:1.99999;stroke-linecap:round;stroke-linejoin:round;stroke-miterlimit:4;stroke-dasharray:none;stroke-opacity:1;visibility:visible" visibility="hidden"/><path d="m574.168 856.031 19.364 4.714" style="fill:none;stroke:red;stroke-width:.999997;stroke-linecap:round;stroke-linejoin:round;stroke-miterlimit:4;stroke-dasharray:none;stroke-opacity:1;visibility:visible" visibility="hidden"/><path d="m534.679 846.42 39.489 9.61" style="fill:none;stroke:red;stroke-width:1.99999;stroke-linecap:round;stroke-linejoin:round;stroke-miterlimit:4;stroke-dasharray:none;stroke-opacity:1;visibility:visible" visibility="hidden"/><path d="M545.668 888.16s1.5 4.348-.599 8.8M535.77 885.655l9.9 2.503 51.699-25.803" style="fill:none;stroke:red;stroke-width:.999997;stroke-linecap:round;stroke-linejoin:round;stroke-miterlimit:4;stroke-dasharray:none;stroke-opacity:1;visibility:visible" visibility="hidden"/><path d="m536.568 913.757 51.952-26.402" style="fill:none;stroke:red;stroke-width:1.99999;stroke-linecap:round;stroke-linejoin:round;stroke-miterlimit:4;stroke-dasharray:none;stroke-opacity:1;visibility:visible" visibility="hidden"/><path d="m594.219 873.507 8.886 111.613M578.421 672.481l14.887 187.394M588.519 887.357l.549-11.55" style="fill:none;stroke:red;stroke-width:.999997;stroke-linecap:round;stroke-linejoin:round;stroke-miterlimit:4;stroke-dasharray:none;stroke-opacity:1;visibility:visible" visibility="hidden"/><path d="M279.183 639.125c-.013.238-.741.395-1.633.355-.89-.043-1.603-.267-1.592-.5M338.99 620.388c-.012.235-.723.392-1.594.355-.868-.04-1.564-.264-1.552-.498M571.065 668.714c-.024.246-.774.376-1.682.29-.903-.087-1.62-.355-1.596-.599M515.672 689.814c-.024.256-.804.388-1.743.3-.937-.089-1.677-.368-1.656-.622M255.42 826.357l-.148 2.8M257.567 828.371c-.684 2.16-2.176 3.612-3.334 3.246-1.16-.368-1.544-2.415-.86-4.574.682-2.16 2.174-3.612 3.333-3.245 1.16.368 1.544 2.415.861 4.573" style="fill:none;stroke:red;stroke-width:.666665;stroke-linecap:round;stroke-linejoin:round;stroke-miterlimit:4;stroke-dasharray:none;stroke-opacity:1;visibility:visible" visibility="hidden"/><path d="m262.794 637.945 9.704-2.085" style="fill:none;stroke:red;stroke-width:1.99999;stroke-linecap:round;stroke-linejoin:round;stroke-miterlimit:4;stroke-dasharray:none;stroke-opacity:1;visibility:visible" visibility="hidden"/><path d="m272.498 635.86-9.704 2.085" style="fill:none;stroke:red;stroke-width:.999997;stroke-linecap:round;stroke-linejoin:round;stroke-miterlimit:4;stroke-dasharray:none;stroke-opacity:1;visibility:visible" visibility="hidden"/><path d="m322.97 619.232 9.863-1.856M332.833 617.376l10.847 2.249" style="fill:none;stroke:red;stroke-width:1.99999;stroke-linecap:round;stroke-linejoin:round;stroke-miterlimit:4;stroke-dasharray:none;stroke-opacity:1;visibility:visible" visibility="hidden"/><path d="m332.833 617.376-9.863 1.856" style="fill:none;stroke:red;stroke-width:.999997;stroke-linecap:round;stroke-linejoin:round;stroke-miterlimit:4;stroke-dasharray:none;stroke-opacity:1;visibility:visible" visibility="hidden"/><path d="m554.217 667.43 8.684-2.368M562.901 665.062l13.202 2.784" style="fill:none;stroke:red;stroke-width:1.99999;stroke-linecap:round;stroke-linejoin:round;stroke-miterlimit:4;stroke-dasharray:none;stroke-opacity:1;visibility:visible" visibility="hidden"/><path d="m562.901 665.062-8.684 2.368M593.308 859.875l.911 13.632" style="fill:none;stroke:red;stroke-width:.999997;stroke-linecap:round;stroke-linejoin:round;stroke-miterlimit:4;stroke-dasharray:none;stroke-opacity:1;visibility:visible" visibility="hidden"/><path d="m233.469 558.81-15.62 4.256s-7.029 3.894-.28 8.693l336.775 68.75 77.224-28.325s6.301-4.5.15-8.701l-18.15-3.451" style="fill:none;stroke:#00ff4a;stroke-width:1.99999;stroke-linecap:round;stroke-linejoin:round;stroke-miterlimit:4;stroke-dasharray:none;stroke-opacity:1;visibility:visible"/><path d="M554.995 631.232s1.575 6.175-.648 9.276M219.52 563.359l335.472 67.873 76.726-27.75" style="fill:none;stroke:#00ff4a;stroke-width:.999997;stroke-linecap:round;stroke-linejoin:round;stroke-miterlimit:4;stroke-dasharray:none;stroke-opacity:1;visibility:visible"/><path d="m341.6 487.339 166.914 30.44M518.025 519.512l47.007 8.572M575.313 529.959l79.507 14.498-.676 8.851-90 30.075-363.175-69.924.371-8.581 73.106-17.744M282.88 485.086l19.888-4.827 30.452 5.551" style="fill:none;stroke:#00ff4a;stroke-width:1.99999;stroke-linecap:round;stroke-linejoin:round;stroke-miterlimit:4;stroke-dasharray:none;stroke-opacity:1;visibility:visible"/><path d="m224.42 504.908 333.724 63.499 72.076-23.575" style="fill:none;stroke:#00ff4a;stroke-width:1.99999;stroke-linecap:round;stroke-linejoin:round;stroke-miterlimit:4;stroke-dasharray:none;stroke-opacity:1;visibility:visible"/><path d="m558.143 568.407 6.644 5.986-.642 8.99M203.669 504.659l20.75.25 49.906-12.059M282.423 490.89l24.547-5.931 26.264 4.787M341.978 491.342l166.486 30.36M518.828 523.59l45.933 8.379" style="fill:none;stroke:#00ff4a;stroke-width:.999997;stroke-linecap:round;stroke-linejoin:round;stroke-miterlimit:4;stroke-dasharray:none;stroke-opacity:1;visibility:visible"/><path d="m575.799 533.981 56.22 10.251 21.822.15-89.054 30.014-363.449-69.518" style="fill:none;stroke:#00ff4a;stroke-width:.999997;stroke-linecap:round;stroke-linejoin:round;stroke-miterlimit:4;stroke-dasharray:none;stroke-opacity:1;visibility:visible"/><path d="m610.944 549.481-34.53-6.389M564.433 540.879l-44.938-8.316M507.757 530.392l-165.017-30.53M333.186 498.092l-26.667-4.932-23.777 5.919M274.027 501.25l-28.157 7.009" style="fill:none;stroke:#00ff4a;stroke-width:1.99999;stroke-linecap:round;stroke-linejoin:round;stroke-miterlimit:4;stroke-dasharray:none;stroke-opacity:1;visibility:visible"/><path d="m306.52 493.159.448-8.2-4.199-4.7" style="fill:none;stroke:#00ff4a;stroke-width:.999997;stroke-linecap:round;stroke-linejoin:round;stroke-miterlimit:4;stroke-dasharray:none;stroke-opacity:1;visibility:visible"/><path d="m244.27 522.508 2.868 43.724M232.566 521.534l2.704 42.924" style="fill:none;stroke:#00ff4a;stroke-width:1.99999;stroke-linecap:round;stroke-linejoin:round;stroke-miterlimit:4;stroke-dasharray:none;stroke-opacity:1;visibility:visible"/><path d="m241.618 522.359 2.957 45.589 2.512-.599" style="fill:none;stroke:#00ff4a;stroke-width:.999997;stroke-linecap:round;stroke-linejoin:round;stroke-miterlimit:4;stroke-dasharray:none;stroke-opacity:1;visibility:visible"/><path d="m291.02 531.61 2.516 44.428M278.986 529.423l2.635 44.936" style="fill:none;stroke:#00ff4a;stroke-width:1.99999;stroke-linecap:round;stroke-linejoin:round;stroke-miterlimit:4;stroke-dasharray:none;stroke-opacity:1;visibility:visible"/><path d="m288.37 531.16 2.655 46.193 2.445-.593" style="fill:none;stroke:#00ff4a;stroke-width:.999997;stroke-linecap:round;stroke-linejoin:round;stroke-miterlimit:4;stroke-dasharray:none;stroke-opacity:1;visibility:visible"/><path d="m314.77 536.557 2.46 43.963M302.569 534.16l2.6 45.1" style="fill:none;stroke:#00ff4a;stroke-width:1.99999;stroke-linecap:round;stroke-linejoin:round;stroke-miterlimit:4;stroke-dasharray:none;stroke-opacity:1;visibility:visible"/><path d="m312.069 536.159 2.593 45.968 2.155-.598" style="fill:none;stroke:#00ff4a;stroke-width:.999997;stroke-linecap:round;stroke-linejoin:round;stroke-miterlimit:4;stroke-dasharray:none;stroke-opacity:1;visibility:visible"/><path d="m620.318 565.833-10.873 44.027" style="fill:none;stroke:#00ff4a;stroke-width:1.99999;stroke-linecap:round;stroke-linejoin:round;stroke-miterlimit:4;stroke-dasharray:none;stroke-opacity:1;visibility:visible"/><path d="m614.94 567.455-11.174 45.27-4.073-.844" style="fill:none;stroke:#00ff4a;stroke-width:.999997;stroke-linecap:round;stroke-linejoin:round;stroke-miterlimit:4;stroke-dasharray:none;stroke-opacity:1;visibility:visible"/><path d="m606.425 570.524-10.858 44.284M610.177 568.508l-10.335 42.55" style="fill:none;stroke:#00ff4a;stroke-width:1.99999;stroke-linecap:round;stroke-linejoin:round;stroke-miterlimit:4;stroke-dasharray:none;stroke-opacity:1;visibility:visible"/><path d="m600.745 572.281-11.025 45.45-4.124-.749" style="fill:none;stroke:#00ff4a;stroke-width:.999997;stroke-linecap:round;stroke-linejoin:round;stroke-miterlimit:4;stroke-dasharray:none;stroke-opacity:1;visibility:visible"/><path d="m592.27 575.281-10.728 44.326M596.145 573.303l-10.325 42.404" style="fill:none;stroke:#00ff4a;stroke-width:1.99999;stroke-linecap:round;stroke-linejoin:round;stroke-miterlimit:4;stroke-dasharray:none;stroke-opacity:1;visibility:visible"/><path d="m586.644 576.633-11.176 46.274-4.125-.75" style="fill:none;stroke:#00ff4a;stroke-width:.999997;stroke-linecap:round;stroke-linejoin:round;stroke-miterlimit:4;stroke-dasharray:none;stroke-opacity:1;visibility:visible"/><path d="m538.553 579.179 1.083 45.905M581.844 578.281l-10.05 41.776" style="fill:none;stroke:#00ff4a;stroke-width:1.99999;stroke-linecap:round;stroke-linejoin:round;stroke-miterlimit:4;stroke-dasharray:none;stroke-opacity:1;visibility:visible"/><path d="m536.145 579.132 1.125 47.977 2.285-.752" style="fill:none;stroke:#00ff4a;stroke-width:.999997;stroke-linecap:round;stroke-linejoin:round;stroke-miterlimit:4;stroke-dasharray:none;stroke-opacity:1;visibility:visible"/><path d="m449.216 562.901 1.644 45.566M474.456 567.777l1.507 46.195M525.679 576.972l1.244 46.924" style="fill:none;stroke:#00ff4a;stroke-width:1.99999;stroke-linecap:round;stroke-linejoin:round;stroke-miterlimit:4;stroke-dasharray:none;stroke-opacity:1;visibility:visible"/><path d="m459.239 564.235 1.704 47.432 2.344-.782" style="fill:none;stroke:#00ff4a;stroke-width:.999997;stroke-linecap:round;stroke-linejoin:round;stroke-miterlimit:4;stroke-dasharray:none;stroke-opacity:1;visibility:visible"/><path d="m399.332 552.633 2.032 46.077M461.767 564.372l1.563 45.26" style="fill:none;stroke:#00ff4a;stroke-width:1.99999;stroke-linecap:round;stroke-linejoin:round;stroke-miterlimit:4;stroke-dasharray:none;stroke-opacity:1;visibility:visible"/><path d="m409.216 554.395 2.028 47.162 2.423-.68" style="fill:none;stroke:#00ff4a;stroke-width:.999997;stroke-linecap:round;stroke-linejoin:round;stroke-miterlimit:4;stroke-dasharray:none;stroke-opacity:1;visibility:visible"/><path d="m374.77 547.983 2.2 46.097M411.788 554.81l1.878 44.981" style="fill:none;stroke:#00ff4a;stroke-width:1.99999;stroke-linecap:round;stroke-linejoin:round;stroke-miterlimit:4;stroke-dasharray:none;stroke-opacity:1;visibility:visible"/><path d="m384.556 549.633 2.122 47.077 2.592-.837" style="fill:none;stroke:#00ff4a;stroke-width:.999997;stroke-linecap:round;stroke-linejoin:round;stroke-miterlimit:4;stroke-dasharray:none;stroke-opacity:1;visibility:visible"/><path d="m350.532 543.481 2.25 45.429M387.182 549.933l2.005 44.858" style="fill:none;stroke:#00ff4a;stroke-width:1.99999;stroke-linecap:round;stroke-linejoin:round;stroke-miterlimit:4;stroke-dasharray:none;stroke-opacity:1;visibility:visible"/><path d="m360.144 544.87 2.4 46.872 2.376-.705" style="fill:none;stroke:#00ff4a;stroke-width:.999997;stroke-linecap:round;stroke-linejoin:round;stroke-miterlimit:4;stroke-dasharray:none;stroke-opacity:1;visibility:visible"/><path d="m362.844 545.47 2.116 44.9" style="fill:none;stroke:#00ff4a;stroke-width:1.99999;stroke-linecap:round;stroke-linejoin:round;stroke-miterlimit:4;stroke-dasharray:none;stroke-opacity:1;visibility:visible"/><path d="m484.617 569.248 1.52 47.533 2.459-.893" style="fill:none;stroke:#00ff4a;stroke-width:.999997;stroke-linecap:round;stroke-linejoin:round;stroke-miterlimit:4;stroke-dasharray:none;stroke-opacity:1;visibility:visible"/><path d="m254.469 553.108 5.15-1.4-2.649-26.4M250.618 523.859l3.2 30.698M487.145 569.339l1.367 45.257" style="fill:none;stroke:#00ff4a;stroke-width:1.99999;stroke-linecap:round;stroke-linejoin:round;stroke-miterlimit:4;stroke-dasharray:none;stroke-opacity:1;visibility:visible"/><path d="m253.87 555.608-6.45 1.75M260.569 525.759l2.801 26.5M259.82 552.31l3.648.75 6.152-1.7" style="fill:none;stroke:#00ff4a;stroke-width:.999997;stroke-linecap:round;stroke-linejoin:round;stroke-miterlimit:4;stroke-dasharray:none;stroke-opacity:1;visibility:visible"/><path d="m265.671 512.159-.801-7.899M269.569 550.459l-2.351-23.302" style="fill:none;stroke:#00ff4a;stroke-width:1.99999;stroke-linecap:round;stroke-linejoin:round;stroke-miterlimit:4;stroke-dasharray:none;stroke-opacity:1;visibility:visible"/><path d="m258.52 505.707.5 5.001" style="fill:none;stroke:#00ff4a;stroke-width:.999997;stroke-linecap:round;stroke-linejoin:round;stroke-miterlimit:4;stroke-dasharray:none;stroke-opacity:1;visibility:visible"/><path d="m270.72 502.807 1.05 10.1M255.069 506.56l.351 3.8" style="fill:none;stroke:#00ff4a;stroke-width:1.99999;stroke-linecap:round;stroke-linejoin:round;stroke-miterlimit:4;stroke-dasharray:none;stroke-opacity:1;visibility:visible"/><path d="m274.22 501.956 1.2 11.602" style="fill:none;stroke:#00ff4a;stroke-width:.999997;stroke-linecap:round;stroke-linejoin:round;stroke-miterlimit:4;stroke-dasharray:none;stroke-opacity:1;visibility:visible"/><path d="m322.97 497.21-3.65 24.349M292.47 542.81l9.699-2.65M269.97 548.908l5.35-1.45-2-19.148M281.102 507.255l.768 7.305" style="fill:none;stroke:#00ff4a;stroke-width:1.99999;stroke-linecap:round;stroke-linejoin:round;stroke-miterlimit:4;stroke-dasharray:none;stroke-opacity:1;visibility:visible"/><path d="m331.92 499.108-3.6 24.35" style="fill:none;stroke:#00ff4a;stroke-width:.999997;stroke-linecap:round;stroke-linejoin:round;stroke-miterlimit:4;stroke-dasharray:none;stroke-opacity:1;visibility:visible"/><path d="m368.367 505.332-3.747 25.276M333.687 503.223l-3.117 20.585" style="fill:none;stroke:#00ff4a;stroke-width:1.99999;stroke-linecap:round;stroke-linejoin:round;stroke-miterlimit:4;stroke-dasharray:none;stroke-opacity:1;visibility:visible"/><path d="m377.522 507.206-3.75 25.002" style="fill:none;stroke:#00ff4a;stroke-width:.999997;stroke-linecap:round;stroke-linejoin:round;stroke-miterlimit:4;stroke-dasharray:none;stroke-opacity:1;visibility:visible"/><path d="m391.346 509.86-3.726 24.5M379.752 507.752l-3.732 25.005" style="fill:none;stroke:#00ff4a;stroke-width:1.99999;stroke-linecap:round;stroke-linejoin:round;stroke-miterlimit:4;stroke-dasharray:none;stroke-opacity:1;visibility:visible"/><path d="m400.619 511.408-3.75 24.999" style="fill:none;stroke:#00ff4a;stroke-width:.999997;stroke-linecap:round;stroke-linejoin:round;stroke-miterlimit:4;stroke-dasharray:none;stroke-opacity:1;visibility:visible"/><path d="m437.956 518.508-3.856 25.483M402.819 511.935l-3.8 25.124" style="fill:none;stroke:#00ff4a;stroke-width:1.99999;stroke-linecap:round;stroke-linejoin:round;stroke-miterlimit:4;stroke-dasharray:none;stroke-opacity:1;visibility:visible"/><path d="m447.332 520.495-3.812 25.245" style="fill:none;stroke:#00ff4a;stroke-width:.999997;stroke-linecap:round;stroke-linejoin:round;stroke-miterlimit:4;stroke-dasharray:none;stroke-opacity:1;visibility:visible"/><path d="m485.519 526.983-3.995 26.02M449.583 520.833l-3.913 25.53" style="fill:none;stroke:#00ff4a;stroke-width:1.99999;stroke-linecap:round;stroke-linejoin:round;stroke-miterlimit:4;stroke-dasharray:none;stroke-opacity:1;visibility:visible"/><path d="m495.119 528.783-3.999 26.114" style="fill:none;stroke:#00ff4a;stroke-width:.999997;stroke-linecap:round;stroke-linejoin:round;stroke-miterlimit:4;stroke-dasharray:none;stroke-opacity:1;visibility:visible"/><path d="m533.819 536.359-3.902 25.55M497.293 529.083l-4.063 26.237" style="fill:none;stroke:#00ff4a;stroke-width:1.99999;stroke-linecap:round;stroke-linejoin:round;stroke-miterlimit:4;stroke-dasharray:none;stroke-opacity:1;visibility:visible"/><path d="m543.62 538.159-3.953 25.398" style="fill:none;stroke:#00ff4a;stroke-width:.999997;stroke-linecap:round;stroke-linejoin:round;stroke-miterlimit:4;stroke-dasharray:none;stroke-opacity:1;visibility:visible"/><path d="m558.419 540.659-4.1 25.9M545.668 538.61l-3.997 25.6" style="fill:none;stroke:#00ff4a;stroke-width:1.99999;stroke-linecap:round;stroke-linejoin:round;stroke-miterlimit:4;stroke-dasharray:none;stroke-opacity:1;visibility:visible"/><path d="m566.363 554.668-1.643 10.442" style="fill:none;stroke:#00ff4a;stroke-width:.999997;stroke-linecap:round;stroke-linejoin:round;stroke-miterlimit:4;stroke-dasharray:none;stroke-opacity:1;visibility:visible"/><path d="m587.844 595.083 2.4.525M563.844 584.508l-.975 5.699 2.284.446M573.223 592.233l3.446.674M539.425 585.708l11.571 2.201.98-5.925M491.01 570.121l-.97 5.931 18.867 3.677M517.623 581.428l7.087 1.381M462.872 570.81l10.805 2.026M443.422 561.11l-.93 5.688 6.174 1.255M413.212 561.155l17.784 3.425.884-5.907M396.782 552.033l-.863 5.777 3.412.6M373.756 547.457l-.788 5.888 1.69.262M328.415 538.595l-.88 5.897 6.407 1.25M341.316 547.181l8.924 1.74" style="fill:none;stroke:#00ff4a;stroke-width:1.99999;stroke-linecap:round;stroke-linejoin:round;stroke-miterlimit:4;stroke-dasharray:none;stroke-opacity:1;visibility:visible"/><path d="m602.393 599.581-2.1-.445M326.105 538.321l-.915 6.529M316.369 543.956l8.658 1.675 2.347-.651M371.582 546.895l-1.087 7.085M363.894 553.157l6.562 1.276 2.25-.6M394.568 551.732l-1.012 6.788M388.119 557.92l5.4 1.013 2.288-.638M441.262 560.557l-1.103 7.083M430.824 566.259l9.334 1.748 2.3-.735M561.893 583.608l-1.423 7.8M550.783 589.524l9.686 1.883 2.551-.75" style="fill:none;stroke:#00ff4a;stroke-width:.999997;stroke-linecap:round;stroke-linejoin:round;stroke-miterlimit:4;stroke-dasharray:none;stroke-opacity:1;visibility:visible"/><path d="M337.58 551.97v-10.812M572.207 597.47c-.01.344-1.214.592-2.694.556-1.478-.038-2.668-.349-2.661-.694M515.917 616.665c-.004.36-1.232.636-2.742.618-1.506-.02-2.727-.323-2.723-.683M280.85 569.039c0 .32-1.17.581-2.616.581-1.444 0-2.615-.26-2.615-.58M340.022 552.023c0 .305-1.215.55-2.715.55-1.5 0-2.715-.245-2.715-.55" style="fill:none;stroke:#00ff4a;stroke-width:.666665;stroke-linecap:round;stroke-linejoin:round;stroke-miterlimit:4;stroke-dasharray:none;stroke-opacity:1;visibility:visible"/><path d="M568.405 448.02v.646M571.496 448.02v.646M568.079 447.922a5.875 5.875 0 0 0 3.744 0M571.823 447.922a2.18 2.18 0 0 0 .857-.53M571.108 448.828v4.268M568.793 448.828v4.872M516.105 458.382a.52.52 0 0 0 .156-.374M516.105 457.098a4.344 4.344 0 0 0-5.458 0M514.535 459.816v4.268M512.22 459.816v4.874M511.835 459.01v.645M514.923 459.01v.645M510.495 457.474v.534M516.261 458.007v-.535M516.261 457.474a.521.521 0 0 0-.154-.375M510.647 457.098a.536.536 0 0 0-.152.374M510.495 458.007c0 .14.055.276.152.373M510.647 458.382a2.213 2.213 0 0 0 .861.528M511.507 458.911a5.87 5.87 0 0 0 3.742 0" style="fill:none;stroke:#00ff4a;stroke-width:.999997;stroke-linecap:round;stroke-linejoin:round;stroke-miterlimit:2;stroke-dasharray:none;stroke-opacity:1;visibility:visible"/><path d="M515.25 458.911a2.18 2.18 0 0 0 .856-.53" style="fill:none;stroke:#00ff4a;stroke-width:.999997;stroke-linecap:round;stroke-linejoin:round;stroke-miterlimit:2;stroke-dasharray:none;stroke-opacity:1;visibility:visible"/><path d="M278.706 462.216a2.305 2.305 0 0 1-.697.33 2.152 2.152 0 0 1-.919.08M278.663 452.039c.207.016.363.09.428.221.152.307-.238.807-.874 1.12-.635.312-1.271.32-1.42.012-.088-.176.005-.42.225-.652M278.663 449.602c.207.016.363.088.428.224.152.304-.238.804-.874 1.117-.635.313-1.271.319-1.42.013-.088-.176.005-.42.225-.653M278.663 459.215c.207.016.363.09.428.221.152.307-.238.808-.874 1.12-.635.312-1.271.319-1.42.012-.088-.176.005-.418.225-.652M278.663 456.778c.207.016.363.09.428.224.152.304-.238.805-.874 1.117-.635.313-1.271.32-1.42.013-.088-.177.005-.418.225-.652M278.663 454.34c.207.016.363.09.428.223.152.305-.238.805-.874 1.117-.635.315-1.271.32-1.42.014-.088-.178.005-.419.225-.652" style="fill:none;stroke:#00ff4a;stroke-width:.666665;stroke-linecap:round;stroke-linejoin:round;stroke-miterlimit:2;stroke-dasharray:none;stroke-opacity:1;visibility:visible"/><path d="m247.42 557.358-13.951 1.452M602.393 599.581l11.175.451M333.22 485.81l8.38 1.529M518.025 519.512l-9.511-1.733M508.514 517.779l9.511 1.733M575.313 529.959l-10.281-1.875M565.032 528.084l10.281 1.875M282.88 485.086l-8.434 2.048M274.446 487.134l8.434-2.048M341.6 487.339l-8.38-1.529" style="fill:none;stroke:#00ff4a;stroke-width:1.99999;stroke-linecap:round;stroke-linejoin:round;stroke-miterlimit:4;stroke-dasharray:none;stroke-opacity:1;visibility:visible"/><path d="m566.852 597.332-2.707-13.949M282.423 490.89l-8.098 1.96M274.325 492.85l8.098-1.96M341.6 487.339l-8.366 2.407M333.234 489.746l8.744 1.596M518.025 519.512l-9.561 2.19M508.464 521.702l10.364 1.888M575.313 529.959l-10.552 2.01M564.761 531.969l11.038 2.012" style="fill:none;stroke:#00ff4a;stroke-width:.999997;stroke-linecap:round;stroke-linejoin:round;stroke-miterlimit:4;stroke-dasharray:none;stroke-opacity:1;visibility:visible"/><path d="m564.433 540.879 11.981 2.213M576.414 543.092l-11.981-2.213M507.757 530.392l11.738 2.171M519.495 532.563l-11.738-2.171M333.186 498.092l9.554 1.77M342.74 499.862l-9.554-1.77M274.027 501.25l8.715-2.171M255.42 510.36l-11.15 12.148" style="fill:none;stroke:#00ff4a;stroke-width:1.99999;stroke-linecap:round;stroke-linejoin:round;stroke-miterlimit:4;stroke-dasharray:none;stroke-opacity:1;visibility:visible"/><path d="m255.42 510.36-13.802 11.999M247.42 557.358l-.333 9.991" style="fill:none;stroke:#00ff4a;stroke-width:.999997;stroke-linecap:round;stroke-linejoin:round;stroke-miterlimit:4;stroke-dasharray:none;stroke-opacity:1;visibility:visible"/><path d="m281.87 514.56 9.15 17.05M281.87 514.56l-2.884 14.863M280.85 569.039l.771 5.32" style="fill:none;stroke:#00ff4a;stroke-width:1.99999;stroke-linecap:round;stroke-linejoin:round;stroke-miterlimit:4;stroke-dasharray:none;stroke-opacity:1;visibility:visible"/><path d="m281.87 514.56 6.5 16.6" style="fill:none;stroke:#00ff4a;stroke-width:.999997;stroke-linecap:round;stroke-linejoin:round;stroke-miterlimit:4;stroke-dasharray:none;stroke-opacity:1;visibility:visible"/><path d="m515.917 616.665 11.006 7.231M337.58 551.97l12.952-8.489M253.87 555.608l.599-2.5M259.02 510.708l-2.05 14.6M255.42 510.36l-4.802 13.499" style="fill:none;stroke:#00ff4a;stroke-width:1.99999;stroke-linecap:round;stroke-linejoin:round;stroke-miterlimit:4;stroke-dasharray:none;stroke-opacity:1;visibility:visible"/><path d="m254.469 553.108-.599 2.5M247.087 567.349l.333-9.991M265.671 512.159l-5.102 13.6" style="fill:none;stroke:#00ff4a;stroke-width:.999997;stroke-linecap:round;stroke-linejoin:round;stroke-miterlimit:4;stroke-dasharray:none;stroke-opacity:1;visibility:visible"/><path d="m258.52 505.707 7.151 6.452M259.02 510.708l5.85-6.448M271.77 512.907l-4.552 14.25" style="fill:none;stroke:#00ff4a;stroke-width:1.99999;stroke-linecap:round;stroke-linejoin:round;stroke-miterlimit:4;stroke-dasharray:none;stroke-opacity:1;visibility:visible"/><path d="m255.42 510.36 3.1-4.653M255.069 506.56l3.951 4.148" style="fill:none;stroke:#00ff4a;stroke-width:.999997;stroke-linecap:round;stroke-linejoin:round;stroke-miterlimit:4;stroke-dasharray:none;stroke-opacity:1;visibility:visible"/><path d="m265.671 512.159 5.049-9.352M281.102 507.255l-9.332 5.652M259.02 510.708l-3.951-4.148M258.52 505.707l-3.1 4.653" style="fill:none;stroke:#00ff4a;stroke-width:1.99999;stroke-linecap:round;stroke-linejoin:round;stroke-miterlimit:4;stroke-dasharray:none;stroke-opacity:1;visibility:visible"/><path d="m281.102 507.255-5.682 6.303" style="fill:none;stroke:#00ff4a;stroke-width:.999997;stroke-linecap:round;stroke-linejoin:round;stroke-miterlimit:4;stroke-dasharray:none;stroke-opacity:1;visibility:visible"/><path d="m326.105 538.321-6.785-16.762M269.62 551.36l.35-2.452M275.42 513.558l-2.1 14.752M275.42 513.558l5.682-6.303M274.22 501.956l7.65 12.604" style="fill:none;stroke:#00ff4a;stroke-width:1.99999;stroke-linecap:round;stroke-linejoin:round;stroke-miterlimit:4;stroke-dasharray:none;stroke-opacity:1;visibility:visible"/><path d="m326.105 538.321 2.215-14.863" style="fill:none;stroke:#00ff4a;stroke-width:.999997;stroke-linecap:round;stroke-linejoin:round;stroke-miterlimit:4;stroke-dasharray:none;stroke-opacity:1;visibility:visible"/><path d="m371.582 546.895-6.962-16.287M328.415 538.595l2.155-14.787" style="fill:none;stroke:#00ff4a;stroke-width:1.99999;stroke-linecap:round;stroke-linejoin:round;stroke-miterlimit:4;stroke-dasharray:none;stroke-opacity:1;visibility:visible"/><path d="m371.582 546.895 2.19-14.687" style="fill:none;stroke:#00ff4a;stroke-width:.999997;stroke-linecap:round;stroke-linejoin:round;stroke-miterlimit:4;stroke-dasharray:none;stroke-opacity:1;visibility:visible"/><path d="m394.568 551.732-6.948-17.372M371.582 546.895l4.438-14.138" style="fill:none;stroke:#00ff4a;stroke-width:1.99999;stroke-linecap:round;stroke-linejoin:round;stroke-miterlimit:4;stroke-dasharray:none;stroke-opacity:1;visibility:visible"/><path d="m394.568 551.732 2.301-15.325" style="fill:none;stroke:#00ff4a;stroke-width:.999997;stroke-linecap:round;stroke-linejoin:round;stroke-miterlimit:4;stroke-dasharray:none;stroke-opacity:1;visibility:visible"/><path d="m431.88 558.673 2.22-14.682M396.782 552.033l2.237-14.974" style="fill:none;stroke:#00ff4a;stroke-width:1.99999;stroke-linecap:round;stroke-linejoin:round;stroke-miterlimit:4;stroke-dasharray:none;stroke-opacity:1;visibility:visible"/><path d="m441.262 560.557 2.258-14.817" style="fill:none;stroke:#00ff4a;stroke-width:.999997;stroke-linecap:round;stroke-linejoin:round;stroke-miterlimit:4;stroke-dasharray:none;stroke-opacity:1;visibility:visible"/><path d="m491.01 570.121-9.486-17.118M441.262 560.557l4.408-14.194" style="fill:none;stroke:#00ff4a;stroke-width:1.99999;stroke-linecap:round;stroke-linejoin:round;stroke-miterlimit:4;stroke-dasharray:none;stroke-opacity:1;visibility:visible"/><path d="m491.01 570.121.11-15.224" style="fill:none;stroke:#00ff4a;stroke-width:.999997;stroke-linecap:round;stroke-linejoin:round;stroke-miterlimit:4;stroke-dasharray:none;stroke-opacity:1;visibility:visible"/><path d="m491.01 570.121 2.22-14.801M551.976 581.984l2.343-15.425" style="fill:none;stroke:#00ff4a;stroke-width:1.99999;stroke-linecap:round;stroke-linejoin:round;stroke-miterlimit:4;stroke-dasharray:none;stroke-opacity:1;visibility:visible"/><path d="m554.319 566.559 12.044-11.891M561.893 583.608l2.827-18.498" style="fill:none;stroke:#00ff4a;stroke-width:.999997;stroke-linecap:round;stroke-linejoin:round;stroke-miterlimit:4;stroke-dasharray:none;stroke-opacity:1;visibility:visible"/><path d="m576.669 592.907 11.175 2.176M600.293 599.136l-10.049-3.528M560.47 591.408l3.374-6.9M573.223 592.233l-8.07-1.58M565.153 590.653l8.07 1.58M587.844 595.083l-11.175-2.176M524.71 582.809l14.715 2.899M560.47 591.408l-8.494-9.424M493.23 555.32l-2.22 14.801M517.623 581.428l-8.716-1.699M508.907 579.729l8.716 1.699M539.425 585.708l-14.715-2.899M448.666 568.053l14.206 2.757M440.159 567.64l3.263-6.53M462.872 570.81l-14.206-2.757M399.331 558.41l13.881 2.745M440.159 567.64l-8.279-8.967M393.556 558.52l3.226-6.487M388.119 557.92l11.212.49M370.495 553.98l3.261-6.523M363.894 553.157l10.764.45M325.19 544.85l3.225-6.255M341.316 547.181l-7.374-1.439M333.942 545.742l7.374 1.439M363.894 553.157l-13.654-4.236" style="fill:none;stroke:#00ff4a;stroke-width:1.99999;stroke-linecap:round;stroke-linejoin:round;stroke-miterlimit:4;stroke-dasharray:none;stroke-opacity:1;visibility:visible"/><path d="m613.568 600.032-11.175-.451M590.244 595.608l10.049 3.528M328.32 523.458l-2.215 14.863M328.415 538.595l-3.225 6.255M333.942 545.742l-17.573-1.786M376.02 532.757l-4.438 14.138M373.756 547.457l-3.261 6.523M374.658 553.607l-10.764-.45M399.019 537.059l-4.451 14.673M396.782 552.033l-3.226 6.487M399.331 558.41l-11.212-.49M445.67 546.363l-4.408 14.194M443.422 561.11l-3.263 6.53M448.666 568.053l-17.842-1.794M554.319 566.559l7.574 17.049M563.844 584.508l-3.374 6.9M565.153 590.653l-14.37-1.129" style="fill:none;stroke:#00ff4a;stroke-width:.999997;stroke-linecap:round;stroke-linejoin:round;stroke-miterlimit:4;stroke-dasharray:none;stroke-opacity:1;visibility:visible"/><path d="m340.022 552.023-2.442-.053M564.145 583.383l8.062 14.087M564.145 583.383l2.707 13.949M526.923 623.896l-11.006-7.231M526.923 623.896l-16.471-7.296M281.621 574.359l-.771-5.32M281.621 574.359l-6.002-5.319M337.58 551.97l2.442.053M337.58 551.97l-2.988.053" style="fill:none;stroke:#00ff4a;stroke-width:.666665;stroke-linecap:round;stroke-linejoin:round;stroke-miterlimit:4;stroke-dasharray:none;stroke-opacity:1;visibility:visible"/><path d="m568.793 448.828 2.315 4.268M571.108 448.828l-2.315 4.872M512.22 459.816l2.315 4.268M514.535 459.816l-2.315 4.874" style="fill:none;stroke:#00ff4a;stroke-width:.999997;stroke-linecap:round;stroke-linejoin:round;stroke-miterlimit:2;stroke-dasharray:none;stroke-opacity:1;visibility:visible"/><path d="m491.01 570.121-16.554-2.344" style="fill:none;stroke:#00ff4a;stroke-width:1.99999;stroke-linecap:round;stroke-linejoin:round;stroke-miterlimit:4;stroke-dasharray:none;stroke-opacity:1;visibility:visible"/><path d="m491.01 570.121-6.393-.873" style="fill:none;stroke:#00ff4a;stroke-width:.999997;stroke-linecap:round;stroke-linejoin:round;stroke-miterlimit:4;stroke-dasharray:none;stroke-opacity:1;visibility:visible"/><path d="m491.01 570.121-3.865-.782" style="fill:none;stroke:#00ff4a;stroke-width:1.99999;stroke-linecap:round;stroke-linejoin:round;stroke-miterlimit:4;stroke-dasharray:none;stroke-opacity:1;visibility:visible"/><path d="m554.319 566.559-14.652-3.002" style="fill:none;stroke:#00ff4a;stroke-width:.999997;stroke-linecap:round;stroke-linejoin:round;stroke-miterlimit:4;stroke-dasharray:none;stroke-opacity:1;visibility:visible"/><path d="m554.319 566.559-12.648-2.349" style="fill:none;stroke:#00ff4a;stroke-width:1.99999;stroke-linecap:round;stroke-linejoin:round;stroke-miterlimit:4;stroke-dasharray:none;stroke-opacity:1;visibility:visible"/></svg>