<svg xmlns="http://www.w3.org/2000/svg" baseProfile="full" height="1122.52" preserveAspectRatio="xMinYMin meet" style="width:919px;height:1159px" width="793.701" xml:space="preserve"><path d="m292.65 304.033-131.214 61.95-13.043-5.234-1.343-13.88 98.32-48.267M403.715 220.955l26.23-12.875 22.227 7.187.646 13.147-9.996 4.721" style="fill:none;stroke:red;stroke-width:1.99999;stroke-linecap:round;stroke-linejoin:round;stroke-miterlimit:2;stroke-dasharray:none;stroke-opacity:1;visibility:visible" visibility="hidden"/><path d="m147.05 346.869 12.736 5.345 1.65 13.768M425.685 227.872l25.839-12.084M159.785 352.214l122.181-57.136" style="fill:none;stroke:red;stroke-width:.999997;stroke-linecap:round;stroke-linejoin:round;stroke-miterlimit:2;stroke-dasharray:none;stroke-opacity:1;visibility:visible" visibility="hidden"/><path d="m451.524 215.788-8.702 17.347" style="fill:none;stroke:red;stroke-width:1.99999;stroke-linecap:round;stroke-linejoin:round;stroke-miterlimit:2;stroke-dasharray:none;stroke-opacity:1;visibility:visible" visibility="hidden"/><path d="m442.822 233.135 8.702-17.347" style="fill:none;stroke:red;stroke-width:.999997;stroke-linecap:round;stroke-linejoin:round;stroke-miterlimit:2;stroke-dasharray:none;stroke-opacity:1;visibility:visible" visibility="hidden"/><path d="m546.336 346.115-1.935-61.639 5.794-3.042" style="fill:none;stroke:#00ff4a;stroke-width:1.99999;stroke-linecap:round;stroke-linejoin:round;stroke-miterlimit:2;stroke-dasharray:none;stroke-opacity:1;visibility:visible"/><path d="m546.713 358.124-.377-12.01" style="fill:none;stroke:#00ff4a;stroke-width:.999997;stroke-linecap:round;stroke-linejoin:round;stroke-miterlimit:2;stroke-dasharray:none;stroke-opacity:1;visibility:visible"/><path d="m548.583 417.749-1.868-59.625M249.245 170.056l343.528 114.38 2.48 121.043s.127 5.804-7.208 2.665l-12.708-4.77.167 5.361M317.364 306.495l184.073 68.928M272.507 294.283l-.48-4.765 19.032 7.126M239.261 178.02l-4.135 1.713 11.966 122.513" style="fill:none;stroke:#00ff4a;stroke-width:1.99999;stroke-linecap:round;stroke-linejoin:round;stroke-miterlimit:2;stroke-dasharray:none;stroke-opacity:1;visibility:visible"/><path d="m575.526 409.454-17.25 12.855-9.666-3.71M247.18 303.143l7.764 2.959 17.667-10.792M262.08 180.593l9.14 100.012M235.46 180.024l7.736 2.736 18.403-7.715" style="fill:none;stroke:#00ff4a;stroke-width:.999997;stroke-linecap:round;stroke-linejoin:round;stroke-miterlimit:2;stroke-dasharray:none;stroke-opacity:1;visibility:visible"/><path d="m261.6 175.044.477 5.548" style="fill:none;stroke:#00ff4a;stroke-width:1.99999;stroke-linecap:round;stroke-linejoin:round;stroke-miterlimit:2;stroke-dasharray:none;stroke-opacity:1;visibility:visible"/><path d="m262.204 180.793 287.446 96.473M243.195 182.76l11.75 123.112M573.427 285.216l11.932 4.01M588.045 407.7l-2.688-118.474s3.959-4.039 7.084-4.623M572.497 284.89l2.815 117.564M544.567 284.726l9.793 3.417 17.874-9.376" style="fill:none;stroke:#00ff4a;stroke-width:.999997;stroke-linecap:round;stroke-linejoin:round;stroke-miterlimit:2;stroke-dasharray:none;stroke-opacity:1;visibility:visible"/><path d="m572.234 278.767.263 6.124" style="fill:none;stroke:#00ff4a;stroke-width:1.99999;stroke-linecap:round;stroke-linejoin:round;stroke-miterlimit:2;stroke-dasharray:none;stroke-opacity:1;visibility:visible"/><path d="m554.36 288.476 3.917 133.833M243.21 174.633l.432 5.084M241.47 172.541a.339.339 0 0 0-.06.21.32.32 0 0 0 .107.206M241.515 172.957a1.28 1.28 0 0 0 .527.265M242.042 173.224a3.376 3.376 0 0 0 2.144-.178M244.187 173.045a1.277 1.277 0 0 0 .47-.345M244.135 171.818a.916.916 0 0 0-.37-.193M243.765 171.626a2.524 2.524 0 0 0-.783-.064 2.51 2.51 0 0 0-.76.192M242.222 171.754a.915.915 0 0 0-.332.25" style="fill:none;stroke:#00ff4a;stroke-width:.999997;stroke-linecap:round;stroke-linejoin:round;stroke-miterlimit:2;stroke-dasharray:none;stroke-opacity:1;visibility:visible"/><path d="M244.657 172.701a.313.313 0 0 0 .073-.224.324.324 0 0 0-.099-.197M241.883 172.004l-.413.533M244.144 171.822l.49.455M241.411 172.748l.583 6.801M244.731 172.474l.593 6.961M553.59 279.298l.144 4.764M552.015 277.309a1.324 1.324 0 0 0 .53.308M552.545 277.618a3.484 3.484 0 0 0 2.245-.047M554.787 277.571a1.333 1.333 0 0 0 .512-.329M554.813 276.291a.967.967 0 0 0-.373-.221M554.439 276.069a2.68 2.68 0 0 0-.809-.119 2.623 2.623 0 0 0-.803.151M552.825 276.102a.968.968 0 0 0-.362.241M555.297 277.242a.32.32 0 0 0 .094-.228.344.344 0 0 0-.091-.212" style="fill:none;stroke:#00ff4a;stroke-width:.999997;stroke-linecap:round;stroke-linejoin:round;stroke-miterlimit:2;stroke-dasharray:none;stroke-opacity:1;visibility:visible"/><path d="M551.996 276.874a.35.35 0 0 0-.079.213c0 .084.044.166.099.223M552.458 276.344l-.461.528M554.823 276.294l.479.505M551.919 277.085l.175 7.11M555.393 277.012l.175 7.277" style="fill:none;stroke:#00ff4a;stroke-width:.999997;stroke-linecap:round;stroke-linejoin:round;stroke-miterlimit:2;stroke-dasharray:none;stroke-opacity:1;visibility:visible"/><path d="M553.423 373.591c.74 1.152.694 2.506-.11 3.022-.8.516-2.052-.003-2.793-1.158-.741-1.152-.692-2.504.105-3.018.803-.518 2.052 0 2.798 1.153v.001M552.283 333.234c.694 1.199.587 2.563-.238 3.041-.828.483-2.065-.105-2.757-1.305-.7-1.201-.59-2.564.233-3.043.827-.481 2.066.106 2.762 1.307M555.953 284.202c0 .398-.937.719-2.093.719-1.157-.001-2.097-.322-2.097-.719M563.537 280.194c0 .58-1.15 1.048-2.57 1.048-1.418 0-2.568-.468-2.568-1.048 0-.581 1.15-1.05 2.568-1.05 1.42.001 2.57.47 2.57 1.051v-.001M248.217 261.642c.536 1.128.37 2.328-.368 2.68-.743.352-1.779-.28-2.314-1.41-.537-1.128-.372-2.328.371-2.679.739-.355 1.775.277 2.31 1.408l.001.001M244.602 224.42c.543 1.143.375 2.359-.372 2.714-.751.356-1.8-.284-2.343-1.426-.54-1.144-.373-2.36.375-2.714.75-.357 1.796.283 2.34 1.427v-.001M263.9 284.909c-.53.184-1.067.2-1.558.018-1.612-.602-2.161-3.13-1.222-5.649.937-2.523 3.003-4.077 4.617-3.477 1.176.436 1.783 1.894 1.668 3.628M259.378 199.068c-.75 2.581-2.78 4.258-4.533 3.75-1.755-.51-2.566-3.016-1.815-5.597.75-2.584 2.78-4.263 4.533-3.753 1.754.51 2.564 3.016 1.815 5.6M245.618 179.409c0 .343-.885.623-1.975.623-1.093 0-1.978-.28-1.978-.623M253.487 176.421c0 .465-1.041.844-2.326.844-1.284 0-2.326-.379-2.326-.844 0-.468 1.042-.847 2.326-.847 1.285 0 2.326.379 2.326.847" style="fill:none;stroke:#00ff4a;stroke-width:.666665;stroke-linecap:round;stroke-linejoin:round;stroke-miterlimit:2;stroke-dasharray:none;stroke-opacity:1;visibility:visible"/><path d="m243.765 171.626 5.48-1.57M242.222 171.754l-2.961 6.266" style="fill:none;stroke:#00ff4a;stroke-width:1.99999;stroke-linecap:round;stroke-linejoin:round;stroke-miterlimit:2;stroke-dasharray:none;stroke-opacity:1;visibility:visible"/><path d="m552.545 277.618-2.895-.352M243.642 179.717l-.447 3.043M549.65 277.266l-5.083 7.46M555.568 284.29l-1.208 4.186M241.994 179.55l1.216-4.917M245.618 179.409l-1.976.308M552.094 284.196l1.496-4.898M551.763 284.202l1.971-.14" style="fill:none;stroke:#00ff4a;stroke-width:.999997;stroke-linecap:round;stroke-linejoin:round;stroke-miterlimit:2;stroke-dasharray:none;stroke-opacity:1;visibility:visible"/><path d="m546.715 358.124 6.708 15.467M555.568 284.29l7.969-4.096M555.568 284.29l7.969-4.096M245.324 179.435l8.163-3.014M261.6 175.044l-8.113 1.377" style="fill:none;stroke:#00ff4a;stroke-width:.666665;stroke-linecap:round;stroke-linejoin:round;stroke-miterlimit:2;stroke-dasharray:none;stroke-opacity:1;visibility:visible"/><path d="m595.463 365.694 74.398-79.578 26.304 8.472-.028 13.805L499.86 508.224l-16.513-6.896-.653-14.937 64.833-69.29" style="fill:none;stroke:#9500ff;stroke-width:1.99999;stroke-linecap:round;stroke-linejoin:round;stroke-miterlimit:2;stroke-dasharray:none;stroke-opacity:1;visibility:visible" visibility="hidden"/><path d="m482.692 486.393 16.336 6.767.83 15.066M596.669 394.81l99.497-100.222M499.028 493.159l84.142-84.753M583.17 408.406l13.499-13.596M596.669 394.81l-13.499 13.596" style="fill:none;stroke:#9500ff;stroke-width:.999997;stroke-linecap:round;stroke-linejoin:round;stroke-miterlimit:2;stroke-dasharray:none;stroke-opacity:1;visibility:visible" visibility="hidden"/><path d="m555.568 284.29-5.373-2.856" style="fill:none;stroke:#00ff4a;stroke-width:1.99999;stroke-linecap:round;stroke-linejoin:round;stroke-miterlimit:2;stroke-dasharray:none;stroke-opacity:1;visibility:visible"/></svg>