<svg xmlns="http://www.w3.org/2000/svg" baseProfile="full" height="1122.52" preserveAspectRatio="xMinYMin meet" style="width:729px;height:902px" width="793.701" xml:space="preserve"><path d="m331.07 705.155-.104-.045-.097-.07-.106-.078-.096-.096-.089-.124-.079-.123-.069-.143-.061-.146-.054-.159-.034-.157-.036-.159-.008-.17v-.158l.008-.148.028-.147.033-.134.044-.132.061-.107.071-.095.079-.08.089-.06.087-.044.097-.016h.105l.106.016.106.036.104.062.096.068.098.097.096.107.089.122.07.134.071.14.052.156.051.16.028.157.027.167.009.16-.01.157-.017.148-.025.143-.045.13-.052.115-.071.104-.07.088-.08.07-.097.054-.096.025-.097.019-.105-.01-.107-.034M330.237 965.752l2.548-268.63M328.762 957.121l-.107-.036-.096-.027-.097-.006-.087.014-.089.038-.079.045-.07.068-.06.088-.054.099-.036.114-.033.122-.01.13-.007.142.008.148.017.15.033.16.046.148.053.148.061.144.08.131.079.121.087.114.088.097.097.09.105.066.098.056.097.025.096.018h.095l.088-.024.09-.046.07-.054.07-.079.051-.096.045-.104.034-.115.028-.134.009-.139v-.141l-.017-.148-.028-.15-.035-.157-.053-.15-.054-.142-.069-.14-.079-.13-.088-.122-.086-.108-.096-.087-.099-.078-.096-.063" style="fill:none;stroke:red;stroke-width:.999997;stroke-linecap:round;stroke-linejoin:round;stroke-miterlimit:4;stroke-dasharray:none;stroke-opacity:1;visibility:visible" visibility="hidden"/><path d="m327.145 964.16 2.367-266.718" style="fill:none;stroke:red;stroke-width:1.99999;stroke-linecap:round;stroke-linejoin:round;stroke-miterlimit:4;stroke-dasharray:none;stroke-opacity:1;visibility:visible" visibility="hidden"/><path d="m330.237 965.752-3.092-1.592" style="fill:none;stroke:red;stroke-width:.999997;stroke-linecap:round;stroke-linejoin:round;stroke-miterlimit:4;stroke-dasharray:none;stroke-opacity:1;visibility:visible" visibility="hidden"/><path d="m341.424 961.98 3.11-267.574" style="fill:none;stroke:red;stroke-width:1.99999;stroke-linecap:round;stroke-linejoin:round;stroke-miterlimit:4;stroke-dasharray:none;stroke-opacity:1;visibility:visible" visibility="hidden"/><path d="m273.196 711.246 1.217 274.02 4.518-1.96-.65-273.064-5.085 1.004M204.986 727.053l4.256 279.783 4.51-2.01-3.675-278.804-5.091 1.031" style="fill:none;fill-opacity:1;fill-rule:nonzero;stroke:red;stroke-width:1.33333;visibility:visible" visibility="hidden"/><path d="m195.223 769.051-37.376-16.155M194.882 747.014l-37.517-15.699" style="fill:none;stroke:red;stroke-width:.666665;stroke-linecap:round;stroke-linejoin:round;stroke-miterlimit:4;stroke-dasharray:none;stroke-opacity:1;visibility:visible" visibility="hidden"/><path d="m153.673 982.993-6.696-277.751M156.906 954.633l-.008.168-.019.176-.034.175-.052.176-.071.174-.08.167-.097.16-.104.148-.115.141-.13.132-.133.115-.141.104-.15.09-.149.071-.149.052-.159.024-.149.018h-.15l-.14-.023-.131-.037-.134-.063-.113-.079-.105-.085-.096-.108-.079-.123-.07-.141-.045-.14-.045-.159-.017-.157v-.176l.008-.17.028-.171.044-.178.061-.177.07-.175.087-.157.107-.159.113-.148.124-.133.132-.121.132-.115.151-.097.147-.071.152-.06.156-.045.15-.026.148-.01.142.018.14.026.132.053.122.07.115.08.096.105.088.113.072.124.06.141.045.159.026.16.017.164M154.385 846.618l-.008.175-.019.177-.036.183-.053.176-.07.177-.078.175-.097.158-.115.156-.113.144-.132.128-.14.118-.142.094-.149.082-.157.07-.158.044-.15.026-.158.006-.149-.006-.14-.026-.143-.054-.13-.06-.124-.091-.106-.097-.098-.12-.079-.124-.07-.15-.051-.149-.036-.167-.026-.166v-.176l.01-.186.033-.184.044-.177.063-.175.07-.176.088-.166.106-.159.113-.148.124-.132.14-.124.141-.115.15-.086.15-.07.158-.061.148-.036.158-.015h.15l.149.015.141.044.131.053.132.079.115.097.097.103.096.127.07.14.062.148.043.157.028.165.017.179M151.757 734.084l-.01.183-.015.196-.036.184-.055.184-.07.174-.087.176-.095.167-.116.15-.121.15-.134.125-.138.111-.152.097-.148.079-.159.061-.157.046-.16.016h-.158l-.149-.016-.15-.036-.14-.052-.14-.079-.113-.097-.116-.106-.097-.125-.087-.139-.07-.157-.054-.157-.033-.176-.028-.178v-.184l.008-.184.028-.194.052-.186.061-.184.071-.173.096-.168.107-.16.112-.148.132-.143.133-.11.15-.108.149-.088.157-.068.159-.055.158-.036.159-.008.157.008.15.028.141.053.14.063.124.087.123.096.105.122.088.132.079.148.061.16.043.167.028.175.017.177M157.776 974.53l.07-.019.063.008.062.018.053.046.033.052.026.063.009.068-.01.079-.015.081-.036.079-.054.06-.052.061-.062.044-.07.037-.07.008h-.06l-.062-.026-.053-.035-.035-.053-.026-.063-.01-.077.01-.078.016-.073.037-.08.052-.068.052-.061.061-.043.071-.028M151.669 712.085l.079-.027.061-.034.063-.062.052-.07.036-.079.017-.088.008-.077-.008-.08-.027-.08-.044-.06-.044-.046-.07-.036-.06-.009h-.071l-.079.028-.062.044-.062.063-.053.069-.035.079-.018.081-.008.087.008.078.028.079.042.061.046.044.07.035.06.01.071-.01" style="fill:none;stroke:red;stroke-width:.999997;stroke-linecap:round;stroke-linejoin:round;stroke-miterlimit:4;stroke-dasharray:none;stroke-opacity:1;visibility:visible" visibility="hidden"/><path d="m157.663 974.592-.019.07-.025.065-.035.069-.044.05-.053.054M75.598 965.241l-.299-7.708-5.994-3.576" style="fill:none;stroke:red;stroke-width:.999997;stroke-linecap:round;stroke-linejoin:round;stroke-miterlimit:4;stroke-dasharray:none;stroke-opacity:1;visibility:visible" visibility="hidden"/><path d="m72.407 958.71.08.056.07.06.07.085.06.1.063.104.062.115.043.124.043.13.037.134.019.123.016.13v.124l-.008.104-.018.107-.029.095-.033.069-.054.063-.052.053-.052.027-.07.008-.062-.008-.078-.027-.072-.044-.07-.061-.07-.068-.07-.099-.062-.096-.062-.112-.052-.125-.044-.123-.034-.132-.028-.13-.018-.126-.008-.124v-.12l.018-.107.016-.098.037-.086.041-.069.047-.056.06-.032.061-.021h.064l.071.021.068.032M100.591 958.782l-.263-7.656M147.099 936.942l-46.77 14.184M75.3 957.533l25.03-6.408M102.007 952.822l89.852 52.47M102.104 955.625l-.017-.612-.08-2.192M185.478 970.391l3.463-1.107M213.723 961.357l2.1-.677M250.413 949.615l3.735-1.195M215.683 960.6l41.656 22.799M279.397 941.804l40.357 20.764M315.42 957.43l-.115-.063-.088-.07-.077-.071-.063-.072-.034-.076-.028-.072v-.079l.018-.08.036-.069.052-.077.071-.071.088-.061.104-.064.124-.062.133-.053.148-.043.159-.036.165-.034.178-.027.176-.017.184-.007h.369l.184.016.175.017.177.036.157.035.158.043.141.046.132.05.124.061.096.064.087.07.072.071.052.078.026.073.016.076-.008.079-.025.07-.045.079-.062.07-.08.071-.093.063-.115.061-.132.055-.14.05-.15.045-.168.034-.166.027-.176.027-.186.008-.184.008h-.184l-.184-.016-.184-.019-.176-.017-.167-.034-.159-.046-.15-.044-.142-.051-.121-.052M176.592 1018.1l.159 8.148M342.206 962.366l-165.614 55.735M169.737 1014l6.856 4.101M173.218 1019.184l-.08-.036-.087-.024h-.07l-.079.016-.061.036-.062.05-.045.071-.043.09-.028.102-.017.118-.01.122.01.134.017.126.028.144.043.14.045.131.062.136.061.12.07.107.08.104.08.08.086.07.079.042.078.037.08.01h.079l.07-.029.06-.052.055-.062.043-.08.036-.095.017-.105.018-.115v-.133l-.008-.131-.027-.141-.036-.138-.043-.133-.054-.13-.062-.135-.069-.115-.07-.105-.08-.088-.087-.076-.079-.063M266.25 719.503v.159l-.017.148-.034.142-.045.131-.053.123-.062.1-.078.084-.079.064-.088.044-.096.026-.107.007-.096-.017-.105-.035-.105-.052-.098-.07-.097-.098-.095-.107-.089-.121-.079-.13-.07-.15-.062-.152-.044-.165-.044-.168-.017-.159-.019-.167v-.166l.012-.148.024-.151.035-.13.053-.135.062-.103.07-.088.079-.079.08-.053.095-.043.098-.01h.106l.094.025.107.045.105.062.098.086.096.098.088.112.088.132.07.141.07.153.053.158.045.165.026.161.025.164v.167M266.998 712.289l.659 274.491M266.908 979.586v-.152l-.016-.15-.035-.158-.045-.159-.053-.146-.062-.151-.069-.141-.08-.134-.087-.12-.088-.105-.096-.09-.098-.078-.096-.053-.096-.044-.099-.018h-.095l-.088.008-.078.044-.08.054-.062.069-.062.087-.044.108-.035.113-.025.133-.01.14v.148l.01.154.025.154.035.148.053.162.053.146.071.142.07.14.087.124.09.114.085.096.099.09.105.062.095.051.098.035.096.01.087-.01.09-.026.078-.045.072-.067.059-.081.054-.099.036-.104.035-.122.016-.14v-.139" style="fill:none;stroke:red;stroke-width:.999997;stroke-linecap:round;stroke-linejoin:round;stroke-miterlimit:4;stroke-dasharray:none;stroke-opacity:1;visibility:visible" visibility="hidden"/><path d="m264.528 959.273-37.36-19.799M264.467 939.316l-37.5-19.421M264.405 919.2l-37.633-19.028M264.342 898.933l-37.77-18.632M264.28 878.519l-37.912-18.236M264.221 857.934l-38.056-17.823M264.159 837.204l-38.196-17.41M264.096 816.307l-38.335-16.979M264.034 795.25l-38.483-16.559M263.973 774.025l-38.623-16.116M263.911 752.636l-38.773-15.67M240.499 721.946l-5.793-2.265M263.85 731.08l-16.441-6.43M243.485 701.68l-18.768-7.09" style="fill:none;stroke:red;stroke-width:.666665;stroke-linecap:round;stroke-linejoin:round;stroke-miterlimit:4;stroke-dasharray:none;stroke-opacity:1;visibility:visible" visibility="hidden"/><path d="m215.578 707.62-.203-17.317M218.556 962.175l-2.785-238.067M221.948 934.42l-.01.17-.015.165-.035.176-.053.169-.071.165-.079.167-.088.159-.105.148-.105.132-.124.132-.132.105-.14.104-.14.08-.142.07-.14.043-.149.036-.14.02-.141-.012-.132-.024-.134-.036-.121-.06-.107-.072-.104-.096-.089-.105-.07-.115-.06-.141-.054-.143-.028-.146-.015-.158-.009-.168.016-.176.028-.166.043-.175.061-.167.07-.168.09-.158.096-.159.105-.139.123-.134.123-.123.13-.105.143-.087.14-.08.15-.052.14-.041.151-.02.139-.01.132.02.133.026.122.05.116.071.104.079.097.097.08.115.068.13.053.134.044.149.026.159.009.165M220.79 828.627l-.01.177-.026.176-.035.175-.053.175-.061.177-.079.165-.097.158-.106.153-.113.13-.124.133-.13.106-.143.094-.14.08-.148.061-.151.053-.148.027h-.141l-.151-.01-.132-.023-.13-.052-.125-.064-.114-.088-.095-.098-.096-.113-.07-.132-.071-.141-.046-.15-.034-.158-.016-.166v-.176l.008-.176.034-.177.046-.177.061-.172.07-.166.087-.17.096-.148.115-.15.113-.134.132-.114.142-.105.14-.085.142-.072.148-.054.15-.033.149-.017h.143l.14.017.129.043.132.053.115.08.104.087.1.114.088.116.069.139.052.141.044.158.025.165.011.168M219.751 697.024l.06-.017.072-.044.053-.062.052-.064.035-.077.017-.079.008-.088-.008-.08-.025-.07-.035-.06-.054-.046-.052-.033-.07-.01h-.062l-.071.027-.061.044-.059.052-.047.07-.033.08-.028.078-.008.087.008.08.028.068.033.065.054.046.052.033.069.008.072-.008M215.376 690.302l-3.016-1.135M197.094 735.673l-.008.161-.017.154-.028.153-.042.13-.044.115-.062.103-.08.083-.079.072-.087.041-.088.025-.098.01-.104-.016-.096-.036-.108-.062-.095-.072-.095-.097-.098-.113-.088-.123-.079-.14-.07-.15-.054-.157-.052-.168-.044-.166-.027-.176-.009-.167-.01-.168.01-.156.027-.153.036-.136.044-.127.061-.112.063-.087.078-.082.079-.052.088-.034.095-.017h.106l.096.024.106.055.098.058.095.091.097.104.088.116.088.13.07.151.072.158.052.158.044.167.037.175.024.168.008.165M197.728 728.293l4.201 280.59M201.112 1001.519l-.008-.15-.03-.157-.025-.158-.044-.158-.052-.158-.061-.15-.07-.15-.08-.132-.086-.123-.09-.113-.095-.098-.098-.08-.097-.052-.096-.041-.096-.03h-.088l-.09.02-.078.033-.07.056-.071.068-.051.096-.047.097-.032.125-.02.131-.008.141v.147l.019.159.025.158.035.159.044.159.063.157.07.15.07.142.088.121.086.123.088.096.099.09.096.07.097.052.096.036.098.008h.086l.08-.027.078-.052.07-.062.055-.078.053-.098.034-.112.026-.123.019-.141.008-.151" style="fill:none;stroke:red;stroke-width:.999997;stroke-linecap:round;stroke-linejoin:round;stroke-miterlimit:4;stroke-dasharray:none;stroke-opacity:1;visibility:visible" visibility="hidden"/><path d="m198.5 980.13-36.04-20.383M198.184 959.758l-36.172-19.993M197.87 939.226l-36.305-19.596M197.543 918.532l-36.427-19.187M197.218 897.684l-36.557-18.78M196.893 876.665l-36.693-18.36M196.57 855.485l-36.832-17.939M196.234 834.13l-36.963-17.499M195.901 812.613l-37.105-17.064M195.566 790.916l-37.244-16.608" style="fill:none;stroke:red;stroke-width:.666665;stroke-linecap:round;stroke-linejoin:round;stroke-miterlimit:4;stroke-dasharray:none;stroke-opacity:1;visibility:visible" visibility="hidden"/><path d="m148.444 969.97.008.148.025.148.03.161.042.15.054.148.053.149.07.14.08.132.078.116.087.105.088.088.088.078.089.053.096.045.087.018h.08l.078-.018.08-.036.062-.052.06-.072.054-.085.035-.108.036-.113.015-.132.01-.143-.01-.139-.007-.158-.027-.151-.044-.156-.044-.15-.053-.149-.061-.152-.079-.129-.07-.125-.09-.114-.087-.096-.086-.078-.088-.071-.098-.045-.088-.034-.086-.01-.08.01-.079.026-.07.045-.062.07-.052.078-.044.096-.037.105-.024.124-.019.142v.141M142.054 714.302v-.159l.01-.148.026-.141.035-.125.053-.122.053-.098.063-.078.077-.07.079-.043.088-.027.088-.009.097.019.088.034.096.052.096.071.09.087.086.106.079.123.081.133.07.146.052.154.052.155.036.167.026.168.016.158v.167l-.009.15-.015.15-.028.13-.044.125-.052.106-.06.096-.072.071-.068.061-.092.034-.086.017-.087-.01-.097-.017-.098-.044-.096-.069-.086-.08-.088-.095-.088-.116-.082-.132-.07-.14-.06-.149-.054-.15-.044-.169-.033-.156-.017-.166-.011-.167M282.333 886.26l-.14.052-.141.061-.142.088-.141.096-.123.118-.121.13-.116.143-.105.147-.087.157-.079.17-.072.165-.053.177-.044.175-.025.177-.008.168v.164l.025.17.027.155.052.14.062.143.07.121.086.106.099.096.105.078.123.063.123.045.132.034.14.012.141-.012.141-.027.14-.043.15-.058.14-.083.134-.09.13-.102.124-.124.124-.132.104-.15.097-.15.088-.165.07-.167.062-.167.052-.177.028-.175.025-.176v-.166l-.008-.166-.026-.16-.044-.152-.054-.137-.07-.132-.08-.115-.087-.105-.105-.087-.116-.07-.114-.054-.132-.044-.132-.017h-.14l-.14.017-.149.035M282.394 727.72l-.15.044-.14.063-.15.077-.132.097-.132.114-.132.125-.112.136-.108.15-.096.16-.079.177-.07.176-.062.173-.034.185-.028.184-.018.184.01.178.017.174.035.171.045.156.07.15.069.13.09.125.106.106.106.096.122.07.132.062.13.034.143.028h.148l.15-.018.15-.035.14-.053.148-.07.141-.089.132-.105.131-.123.124-.132.104-.141.107-.159.089-.167.077-.174.063-.178.044-.181.035-.177.017-.188.008-.182-.017-.174-.026-.167-.036-.17-.06-.147-.061-.14-.09-.132-.097-.116-.104-.107-.116-.077-.122-.07-.13-.044-.141-.037-.143-.007-.148.007-.149.028" style="fill:none;stroke:red;stroke-width:.999997;stroke-linecap:round;stroke-linejoin:round;stroke-miterlimit:4;stroke-dasharray:none;stroke-opacity:1;visibility:visible" visibility="hidden"/><path d="m282.28 729.513-.053-.025-.052-.036-.044-.043-.044-.053-.035-.062-.025-.06-.028-.072-.019-.069-.016-.072-.017-.07-.01-.077-.01-.081-.008-.081-.008-.078v-.078l-.01-.07v-.16l.01-.076v-.072l.008-.078.008-.071.01-.07.018-.054M282.255 727.756l.035.019.044.016.044.026.052.026.045.026.052.035.043.045.053.035.079.087.08.09.078.096.063.115.053.103.034.108.017.113.01.107v.106l-.018.095-.036.107-.044.086-.061.088-.07.079-.072.064-.08.052-.049.016-.047.016-.052.019-.052.008h-.089l-.043-.008-.044-.019M282.218 887.73l-.035-.02-.044-.024-.033-.039-.039-.041-.025-.035-.025-.042-.044-.099-.027-.096-.027-.107-.025-.104-.01-.117-.017-.13v-.06l-.009-.062v-.256M282.447 886.226l.08.07.087.078.072.08.069.088.053.088.052.099.044.092.026.1.018.085.008.09v.089l-.017.088-.016.08-.036.077-.044.072-.045.059-.062.064-.06.042-.069.043-.072.03-.079.025h-.089l-.077-.011-.071-.024" style="fill:none;stroke:red;stroke-width:.999997;stroke-linecap:round;stroke-linejoin:round;stroke-miterlimit:4;stroke-dasharray:none;stroke-opacity:1;visibility:visible" visibility="hidden"/><path d="m195.469 785.02-37.165-16.443" style="fill:none;stroke:red;stroke-width:1.99999;stroke-linecap:round;stroke-linejoin:round;stroke-miterlimit:4;stroke-dasharray:none;stroke-opacity:1;visibility:visible" visibility="hidden"/><path d="m158.19 768.481-.344-15.584M157.953 752.75l2.53-.599" style="fill:none;stroke:red;stroke-width:.999997;stroke-linecap:round;stroke-linejoin:round;stroke-miterlimit:4;stroke-dasharray:none;stroke-opacity:1;visibility:visible" visibility="hidden"/><path d="m195.188 767.11-34.704-14.959" style="fill:none;stroke:red;stroke-width:1.99999;stroke-linecap:round;stroke-linejoin:round;stroke-miterlimit:4;stroke-dasharray:none;stroke-opacity:1;visibility:visible" visibility="hidden"/><path d="m157.953 752.75-.107.145" style="fill:none;stroke:red;stroke-width:.999997;stroke-linecap:round;stroke-linejoin:round;stroke-miterlimit:4;stroke-dasharray:none;stroke-opacity:1;visibility:visible" visibility="hidden"/><path d="m158.19 768.481.112.096M195.126 763.113l-37.305-15.988" style="fill:none;stroke:red;stroke-width:1.99999;stroke-linecap:round;stroke-linejoin:round;stroke-miterlimit:4;stroke-dasharray:none;stroke-opacity:1;visibility:visible" visibility="hidden"/><path d="m157.715 747.03-.35-15.715M157.47 731.166l2.55-.581" style="fill:none;stroke:red;stroke-width:.999997;stroke-linecap:round;stroke-linejoin:round;stroke-miterlimit:4;stroke-dasharray:none;stroke-opacity:1;visibility:visible" visibility="hidden"/><path d="m194.854 745.111-34.835-14.527" style="fill:none;stroke:red;stroke-width:1.99999;stroke-linecap:round;stroke-linejoin:round;stroke-miterlimit:4;stroke-dasharray:none;stroke-opacity:1;visibility:visible" visibility="hidden"/><path d="m157.47 731.166-.105.148" style="fill:none;stroke:red;stroke-width:.999997;stroke-linecap:round;stroke-linejoin:round;stroke-miterlimit:4;stroke-dasharray:none;stroke-opacity:1;visibility:visible" visibility="hidden"/><path d="m157.715 747.03.107.095M162.467 727.623l-5.123-2.125M194.782 741.026l-18.939-7.855" style="fill:none;stroke:red;stroke-width:1.99999;stroke-linecap:round;stroke-linejoin:round;stroke-miterlimit:4;stroke-dasharray:none;stroke-opacity:1;visibility:visible" visibility="hidden"/><path d="m157.232 725.4-.352-15.836M156.985 709.415l-.105.15M156.985 709.415l2.556-.561" style="fill:none;stroke:red;stroke-width:.999997;stroke-linecap:round;stroke-linejoin:round;stroke-miterlimit:4;stroke-dasharray:none;stroke-opacity:1;visibility:visible" visibility="hidden"/><path d="m157.232 725.4.112.097" style="fill:none;stroke:red;stroke-width:1.99999;stroke-linecap:round;stroke-linejoin:round;stroke-miterlimit:4;stroke-dasharray:none;stroke-opacity:1;visibility:visible" visibility="hidden"/><path d="m165.843 979.084-12.17 3.91" style="fill:none;stroke:red;stroke-width:.999997;stroke-linecap:round;stroke-linejoin:round;stroke-miterlimit:4;stroke-dasharray:none;stroke-opacity:1;visibility:visible" visibility="hidden"/><path d="m165.843 979.084-.07-3.157M165.414 959.072l-.072-3.05M164.973 939.106l-.059-3.139M164.545 918.98l-.07-3.217M164.095 898.704l-.07-3.293M163.656 878.273l-.08-3.384M163.207 857.692l-.079-3.472M162.76 836.942l-.081-3.559M162.303 816.035l-.079-3.647M161.847 794.968l-.088-3.735M161.38 773.735l-.079-3.832M160.914 752.337l-.087-3.919M160.449 730.761l-.09-4.007" style="fill:none;stroke:red;stroke-width:1.99999;stroke-linecap:round;stroke-linejoin:round;stroke-miterlimit:4;stroke-dasharray:none;stroke-opacity:1;visibility:visible" visibility="hidden"/><path d="m150.841 981.343-6.819-277.3" style="fill:none;stroke:red;stroke-width:.999997;stroke-linecap:round;stroke-linejoin:round;stroke-miterlimit:4;stroke-dasharray:none;stroke-opacity:1;visibility:visible" visibility="hidden"/><path d="m69.613 961.63-.308-7.673M75.598 965.241l-5.985-3.61M100.591 958.782l2.805-.863M120.224 952.773l27.06-8.283M146.94 930.598l-77.636 23.36M75.598 965.241l24.993-6.46M114.001 949.184l33.896 19.545M165.843 979.084l32.939 19" style="fill:none;stroke:red;stroke-width:1.99999;stroke-linecap:round;stroke-linejoin:round;stroke-miterlimit:4;stroke-dasharray:none;stroke-opacity:1;visibility:visible" visibility="hidden"/><path d="m110.276 950.31-8.27 2.512M114.001 949.184l-3.725 1.127M102.157 957.2l-.053-1.575" style="fill:none;stroke:red;stroke-width:.999997;stroke-linecap:round;stroke-linejoin:round;stroke-miterlimit:4;stroke-dasharray:none;stroke-opacity:1;visibility:visible" visibility="hidden"/><path d="m187.217 1007.117-85.06-49.917" style="fill:none;stroke:red;stroke-width:1.99999;stroke-linecap:round;stroke-linejoin:round;stroke-miterlimit:4;stroke-dasharray:none;stroke-opacity:1;visibility:visible" visibility="hidden"/><path d="m215.866 964.206-.043-3.527" style="fill:none;stroke:red;stroke-width:.999997;stroke-linecap:round;stroke-linejoin:round;stroke-miterlimit:4;stroke-dasharray:none;stroke-opacity:1;visibility:visible" visibility="hidden"/><path d="m167.171 979.847 3.48-1.115M189.52 972.667l3.461-1.107M213.768 964.88l2.099-.675M231.51 959.177l3.796-1.221M254.517 951.784l3.745-1.2M230.156 958.455l34.425 18.616M252.258 985.086l-37.393-20.557M288.572 937.284l37.77 19.232M314.55 964.308l-35.153-18.19M342.12 970.1l-165.369 56.15M342.206 962.366l-.087 7.733M176.75 1026.25l-6.845-4.13M326.6 960.29l-47.195 15.743M264.59 980.972l-50.401 16.82M198.853 1002.907l-6.223 2.075-22.893 9.017M169.737 1014l.168 8.12" style="fill:none;stroke:red;stroke-width:1.99999;stroke-linecap:round;stroke-linejoin:round;stroke-miterlimit:4;stroke-dasharray:none;stroke-opacity:1;visibility:visible" visibility="hidden"/><path d="m264.607 985.111 3.05 1.67" style="fill:none;stroke:red;stroke-width:.999997;stroke-linecap:round;stroke-linejoin:round;stroke-miterlimit:4;stroke-dasharray:none;stroke-opacity:1;visibility:visible" visibility="hidden"/><path d="m263.794 712.44.813 272.67M279.361 709.425l.044 273.398M264.57 973.73l-37.165-20.03" style="fill:none;stroke:red;stroke-width:1.99999;stroke-linecap:round;stroke-linejoin:round;stroke-miterlimit:4;stroke-dasharray:none;stroke-opacity:1;visibility:visible" visibility="hidden"/><path d="m227.31 953.623-.141-14.148M227.265 939.334l2.321-.73" style="fill:none;stroke:red;stroke-width:.999997;stroke-linecap:round;stroke-linejoin:round;stroke-miterlimit:4;stroke-dasharray:none;stroke-opacity:1;visibility:visible" visibility="hidden"/><path d="m264.52 957.079-34.935-18.473" style="fill:none;stroke:red;stroke-width:1.99999;stroke-linecap:round;stroke-linejoin:round;stroke-miterlimit:4;stroke-dasharray:none;stroke-opacity:1;visibility:visible" visibility="hidden"/><path d="m227.265 939.334-.096.14" style="fill:none;stroke:red;stroke-width:.999997;stroke-linecap:round;stroke-linejoin:round;stroke-miterlimit:4;stroke-dasharray:none;stroke-opacity:1;visibility:visible" visibility="hidden"/><path d="m227.31 953.623.095.079M264.51 953.877l-37.3-19.65" style="fill:none;stroke:red;stroke-width:1.99999;stroke-linecap:round;stroke-linejoin:round;stroke-miterlimit:4;stroke-dasharray:none;stroke-opacity:1;visibility:visible" visibility="hidden"/><path d="m227.115 934.149-.148-14.255M227.063 919.754l2.339-.713" style="fill:none;stroke:red;stroke-width:.999997;stroke-linecap:round;stroke-linejoin:round;stroke-miterlimit:4;stroke-dasharray:none;stroke-opacity:1;visibility:visible" visibility="hidden"/><path d="m264.458 937.154-35.056-18.113" style="fill:none;stroke:red;stroke-width:1.99999;stroke-linecap:round;stroke-linejoin:round;stroke-miterlimit:4;stroke-dasharray:none;stroke-opacity:1;visibility:visible" visibility="hidden"/><path d="m227.063 919.754-.096.139" style="fill:none;stroke:red;stroke-width:.999997;stroke-linecap:round;stroke-linejoin:round;stroke-miterlimit:4;stroke-dasharray:none;stroke-opacity:1;visibility:visible" visibility="hidden"/><path d="m227.115 934.149.096.079M264.45 933.877l-37.437-19.264" style="fill:none;stroke:red;stroke-width:1.99999;stroke-linecap:round;stroke-linejoin:round;stroke-miterlimit:4;stroke-dasharray:none;stroke-opacity:1;visibility:visible" visibility="hidden"/><path d="m226.914 914.533-.141-14.361M226.871 900.032l2.337-.693" style="fill:none;stroke:red;stroke-width:.999997;stroke-linecap:round;stroke-linejoin:round;stroke-miterlimit:4;stroke-dasharray:none;stroke-opacity:1;visibility:visible" visibility="hidden"/><path d="m264.396 917.081-35.187-17.743" style="fill:none;stroke:red;stroke-width:1.99999;stroke-linecap:round;stroke-linejoin:round;stroke-miterlimit:4;stroke-dasharray:none;stroke-opacity:1;visibility:visible" visibility="hidden"/><path d="m226.871 900.032-.099.14" style="fill:none;stroke:red;stroke-width:.999997;stroke-linecap:round;stroke-linejoin:round;stroke-miterlimit:4;stroke-dasharray:none;stroke-opacity:1;visibility:visible" visibility="hidden"/><path d="m226.914 914.533.097.08M264.387 913.724l-37.57-18.868" style="fill:none;stroke:red;stroke-width:1.99999;stroke-linecap:round;stroke-linejoin:round;stroke-miterlimit:4;stroke-dasharray:none;stroke-opacity:1;visibility:visible" visibility="hidden"/><path d="m226.722 894.766-.15-14.465M226.668 880.16l2.356-.684" style="fill:none;stroke:red;stroke-width:.999997;stroke-linecap:round;stroke-linejoin:round;stroke-miterlimit:4;stroke-dasharray:none;stroke-opacity:1;visibility:visible" visibility="hidden"/><path d="m264.342 896.86-35.319-17.383" style="fill:none;stroke:red;stroke-width:1.99999;stroke-linecap:round;stroke-linejoin:round;stroke-miterlimit:4;stroke-dasharray:none;stroke-opacity:1;visibility:visible" visibility="hidden"/><path d="m226.668 880.16-.096.14" style="fill:none;stroke:red;stroke-width:.999997;stroke-linecap:round;stroke-linejoin:round;stroke-miterlimit:4;stroke-dasharray:none;stroke-opacity:1;visibility:visible" visibility="hidden"/><path d="m226.722 894.766.096.09M264.325 893.421l-37.71-18.477" style="fill:none;stroke:red;stroke-width:1.99999;stroke-linecap:round;stroke-linejoin:round;stroke-miterlimit:4;stroke-dasharray:none;stroke-opacity:1;visibility:visible" visibility="hidden"/><path d="m226.519 874.863-.15-14.58M226.466 860.141l2.364-.667" style="fill:none;stroke:red;stroke-width:.999997;stroke-linecap:round;stroke-linejoin:round;stroke-miterlimit:4;stroke-dasharray:none;stroke-opacity:1;visibility:visible" visibility="hidden"/><path d="m264.28 876.478-35.45-17.004" style="fill:none;stroke:red;stroke-width:1.99999;stroke-linecap:round;stroke-linejoin:round;stroke-miterlimit:4;stroke-dasharray:none;stroke-opacity:1;visibility:visible" visibility="hidden"/><path d="m226.466 860.141-.096.141" style="fill:none;stroke:red;stroke-width:.999997;stroke-linecap:round;stroke-linejoin:round;stroke-miterlimit:4;stroke-dasharray:none;stroke-opacity:1;visibility:visible" visibility="hidden"/><path d="m226.519 874.863.096.081M264.271 872.956l-37.859-18.07" style="fill:none;stroke:red;stroke-width:1.99999;stroke-linecap:round;stroke-linejoin:round;stroke-miterlimit:4;stroke-dasharray:none;stroke-opacity:1;visibility:visible" visibility="hidden"/><path d="m226.317 854.8-.15-14.69M226.272 839.973l2.365-.652" style="fill:none;stroke:red;stroke-width:.999997;stroke-linecap:round;stroke-linejoin:round;stroke-miterlimit:4;stroke-dasharray:none;stroke-opacity:1;visibility:visible" visibility="hidden"/><path d="m264.221 855.94-35.584-16.62" style="fill:none;stroke:red;stroke-width:1.99999;stroke-linecap:round;stroke-linejoin:round;stroke-miterlimit:4;stroke-dasharray:none;stroke-opacity:1;visibility:visible" visibility="hidden"/><path d="m226.272 839.973-.105.139" style="fill:none;stroke:red;stroke-width:.999997;stroke-linecap:round;stroke-linejoin:round;stroke-miterlimit:4;stroke-dasharray:none;stroke-opacity:1;visibility:visible" visibility="hidden"/><path d="m226.317 854.8.096.087M264.21 852.338l-37.999-17.655" style="fill:none;stroke:red;stroke-width:1.99999;stroke-linecap:round;stroke-linejoin:round;stroke-miterlimit:4;stroke-dasharray:none;stroke-opacity:1;visibility:visible" visibility="hidden"/><path d="m226.114 834.594-.15-14.8M226.063 819.654l2.381-.633" style="fill:none;stroke:red;stroke-width:.999997;stroke-linecap:round;stroke-linejoin:round;stroke-miterlimit:4;stroke-dasharray:none;stroke-opacity:1;visibility:visible" visibility="hidden"/><path d="m264.159 835.255-35.716-16.233" style="fill:none;stroke:red;stroke-width:1.99999;stroke-linecap:round;stroke-linejoin:round;stroke-miterlimit:4;stroke-dasharray:none;stroke-opacity:1;visibility:visible" visibility="hidden"/><path d="m226.063 819.654-.1.14" style="fill:none;stroke:red;stroke-width:.999997;stroke-linecap:round;stroke-linejoin:round;stroke-miterlimit:4;stroke-dasharray:none;stroke-opacity:1;visibility:visible" visibility="hidden"/><path d="m226.114 834.594.097.088M264.15 831.562l-38.14-17.243" style="fill:none;stroke:red;stroke-width:1.99999;stroke-linecap:round;stroke-linejoin:round;stroke-miterlimit:4;stroke-dasharray:none;stroke-opacity:1;visibility:visible" visibility="hidden"/><path d="m225.913 814.234-.152-14.907M225.86 799.18l2.39-.616" style="fill:none;stroke:red;stroke-width:.999997;stroke-linecap:round;stroke-linejoin:round;stroke-miterlimit:4;stroke-dasharray:none;stroke-opacity:1;visibility:visible" visibility="hidden"/><path d="m264.096 814.4-35.847-15.836" style="fill:none;stroke:red;stroke-width:1.99999;stroke-linecap:round;stroke-linejoin:round;stroke-miterlimit:4;stroke-dasharray:none;stroke-opacity:1;visibility:visible" visibility="hidden"/><path d="m225.86 799.18-.097.148" style="fill:none;stroke:red;stroke-width:.999997;stroke-linecap:round;stroke-linejoin:round;stroke-miterlimit:4;stroke-dasharray:none;stroke-opacity:1;visibility:visible" visibility="hidden"/><path d="m225.913 814.234.096.085M264.08 810.63l-38.275-16.821" style="fill:none;stroke:red;stroke-width:1.99999;stroke-linecap:round;stroke-linejoin:round;stroke-miterlimit:4;stroke-dasharray:none;stroke-opacity:1;visibility:visible" visibility="hidden"/><path d="m225.71 793.71-.159-15.019M225.656 778.551l2.392-.608" style="fill:none;stroke:red;stroke-width:.999997;stroke-linecap:round;stroke-linejoin:round;stroke-miterlimit:4;stroke-dasharray:none;stroke-opacity:1;visibility:visible" visibility="hidden"/><path d="m264.034 793.389-35.987-15.445" style="fill:none;stroke:red;stroke-width:1.99999;stroke-linecap:round;stroke-linejoin:round;stroke-miterlimit:4;stroke-dasharray:none;stroke-opacity:1;visibility:visible" visibility="hidden"/><path d="m225.656 778.551-.105.14" style="fill:none;stroke:red;stroke-width:.999997;stroke-linecap:round;stroke-linejoin:round;stroke-miterlimit:4;stroke-dasharray:none;stroke-opacity:1;visibility:visible" visibility="hidden"/><path d="m225.71 793.71.096.097M264.018 789.528l-38.424-16.39" style="fill:none;stroke:red;stroke-width:1.99999;stroke-linecap:round;stroke-linejoin:round;stroke-miterlimit:4;stroke-dasharray:none;stroke-opacity:1;visibility:visible" visibility="hidden"/><path d="m225.5 773.041-.148-15.132M225.446 757.766l2.41-.585" style="fill:none;stroke:red;stroke-width:.999997;stroke-linecap:round;stroke-linejoin:round;stroke-miterlimit:4;stroke-dasharray:none;stroke-opacity:1;visibility:visible" visibility="hidden"/><path d="m263.965 772.205-36.11-15.025" style="fill:none;stroke:red;stroke-width:1.99999;stroke-linecap:round;stroke-linejoin:round;stroke-miterlimit:4;stroke-dasharray:none;stroke-opacity:1;visibility:visible" visibility="hidden"/><path d="m225.446 757.766-.095.143" style="fill:none;stroke:red;stroke-width:.999997;stroke-linecap:round;stroke-linejoin:round;stroke-miterlimit:4;stroke-dasharray:none;stroke-opacity:1;visibility:visible" visibility="hidden"/><path d="m225.5 773.041.095.097M263.956 768.261l-38.563-15.95" style="fill:none;stroke:red;stroke-width:1.99999;stroke-linecap:round;stroke-linejoin:round;stroke-miterlimit:4;stroke-dasharray:none;stroke-opacity:1;visibility:visible" visibility="hidden"/><path d="m225.29 752.212-.15-15.245M225.235 736.824l2.416-.58" style="fill:none;stroke:red;stroke-width:.999997;stroke-linecap:round;stroke-linejoin:round;stroke-miterlimit:4;stroke-dasharray:none;stroke-opacity:1;visibility:visible" visibility="hidden"/><path d="m263.902 750.859-36.25-14.615" style="fill:none;stroke:red;stroke-width:1.99999;stroke-linecap:round;stroke-linejoin:round;stroke-miterlimit:4;stroke-dasharray:none;stroke-opacity:1;visibility:visible" visibility="hidden"/><path d="m225.235 736.824-.096.143" style="fill:none;stroke:red;stroke-width:.999997;stroke-linecap:round;stroke-linejoin:round;stroke-miterlimit:4;stroke-dasharray:none;stroke-opacity:1;visibility:visible" visibility="hidden"/><path d="m225.29 752.212.104.099M263.894 746.828l-38.71-15.504" style="fill:none;stroke:red;stroke-width:1.99999;stroke-linecap:round;stroke-linejoin:round;stroke-miterlimit:4;stroke-dasharray:none;stroke-opacity:1;visibility:visible" visibility="hidden"/><path d="m225.077 731.227-.092-9.453" style="fill:none;stroke:red;stroke-width:.999997;stroke-linecap:round;stroke-linejoin:round;stroke-miterlimit:4;stroke-dasharray:none;stroke-opacity:1;visibility:visible" visibility="hidden"/><path d="m263.84 729.355-26.47-10.323M225.077 731.227l.107.096M263.834 725.223l-20.299-7.863" style="fill:none;stroke:red;stroke-width:1.99999;stroke-linecap:round;stroke-linejoin:round;stroke-miterlimit:4;stroke-dasharray:none;stroke-opacity:1;visibility:visible" visibility="hidden"/><path d="m224.82 705.274-.103-10.687M224.815 694.449l-.097.139M224.815 694.449l2.433-.536M230.156 958.455l-2.593.832" style="fill:none;stroke:red;stroke-width:.999997;stroke-linecap:round;stroke-linejoin:round;stroke-miterlimit:4;stroke-dasharray:none;stroke-opacity:1;visibility:visible" visibility="hidden"/><path d="m230.156 958.455-.027-3.285M229.972 938.816l-.025-3.148M229.787 919.245l-.027-3.217M229.602 899.532l-.035-3.299M229.41 879.67l-.027-3.375M229.226 859.667l-.036-3.455M229.03 839.506l-.032-3.532M228.837 819.199l-.035-3.612M228.646 798.738l-.036-3.699M228.452 778.122l-.033-3.79M228.25 757.347l-.036-3.868M228.057 736.412l-.036-3.956" style="fill:none;stroke:red;stroke-width:1.99999;stroke-linecap:round;stroke-linejoin:round;stroke-miterlimit:4;stroke-dasharray:none;stroke-opacity:1;visibility:visible" visibility="hidden"/><path d="m212.59 707.94-.23-18.773M215.683 960.6l-2.887-235.825M198.924 1007.136l3.005 1.748" style="fill:none;stroke:red;stroke-width:.999997;stroke-linecap:round;stroke-linejoin:round;stroke-miterlimit:4;stroke-dasharray:none;stroke-opacity:1;visibility:visible" visibility="hidden"/><path d="m194.604 728.94 4.32 278.194M210.753 725.287l3.525 279.44M198.73 994.867l-35.837-20.601" style="fill:none;stroke:red;stroke-width:1.99999;stroke-linecap:round;stroke-linejoin:round;stroke-miterlimit:4;stroke-dasharray:none;stroke-opacity:1;visibility:visible" visibility="hidden"/><path d="m162.786 974.179-.325-14.43M162.556 959.598l2.444-.763" style="fill:none;stroke:red;stroke-width:.999997;stroke-linecap:round;stroke-linejoin:round;stroke-miterlimit:4;stroke-dasharray:none;stroke-opacity:1;visibility:visible" visibility="hidden"/><path d="m198.466 977.711-33.465-18.876" style="fill:none;stroke:red;stroke-width:1.99999;stroke-linecap:round;stroke-linejoin:round;stroke-miterlimit:4;stroke-dasharray:none;stroke-opacity:1;visibility:visible" visibility="hidden"/><path d="m162.556 959.598-.095.15" style="fill:none;stroke:red;stroke-width:.999997;stroke-linecap:round;stroke-linejoin:round;stroke-miterlimit:4;stroke-dasharray:none;stroke-opacity:1;visibility:visible" visibility="hidden"/><path d="m162.786 974.179.107.087M198.413 974.61l-35.97-20.213" style="fill:none;stroke:red;stroke-width:1.99999;stroke-linecap:round;stroke-linejoin:round;stroke-miterlimit:4;stroke-dasharray:none;stroke-opacity:1;visibility:visible" visibility="hidden"/><path d="m162.337 954.31-.324-14.544M162.118 939.624l2.444-.755" style="fill:none;stroke:red;stroke-width:.999997;stroke-linecap:round;stroke-linejoin:round;stroke-miterlimit:4;stroke-dasharray:none;stroke-opacity:1;visibility:visible" visibility="hidden"/><path d="m198.149 957.383-33.587-18.515" style="fill:none;stroke:red;stroke-width:1.99999;stroke-linecap:round;stroke-linejoin:round;stroke-miterlimit:4;stroke-dasharray:none;stroke-opacity:1;visibility:visible" visibility="hidden"/><path d="m162.118 939.624-.105.14" style="fill:none;stroke:red;stroke-width:.999997;stroke-linecap:round;stroke-linejoin:round;stroke-miterlimit:4;stroke-dasharray:none;stroke-opacity:1;visibility:visible" visibility="hidden"/><path d="m162.337 954.31.107.087M198.098 954.194l-36.101-19.817" style="fill:none;stroke:red;stroke-width:1.99999;stroke-linecap:round;stroke-linejoin:round;stroke-miterlimit:4;stroke-dasharray:none;stroke-opacity:1;visibility:visible" visibility="hidden"/><path d="m161.89 934.288-.325-14.659M161.67 919.489l2.452-.739" style="fill:none;stroke:red;stroke-width:.999997;stroke-linecap:round;stroke-linejoin:round;stroke-miterlimit:4;stroke-dasharray:none;stroke-opacity:1;visibility:visible" visibility="hidden"/><path d="m197.833 936.9-33.712-18.15" style="fill:none;stroke:red;stroke-width:1.99999;stroke-linecap:round;stroke-linejoin:round;stroke-miterlimit:4;stroke-dasharray:none;stroke-opacity:1;visibility:visible" visibility="hidden"/><path d="m161.67 919.489-.105.14" style="fill:none;stroke:red;stroke-width:.999997;stroke-linecap:round;stroke-linejoin:round;stroke-miterlimit:4;stroke-dasharray:none;stroke-opacity:1;visibility:visible" visibility="hidden"/><path d="m161.89 934.288.107.088M197.78 933.63l-36.232-19.428" style="fill:none;stroke:red;stroke-width:1.99999;stroke-linecap:round;stroke-linejoin:round;stroke-miterlimit:4;stroke-dasharray:none;stroke-opacity:1;visibility:visible" visibility="hidden"/><path d="m161.44 914.119-.324-14.773M161.212 899.208l2.472-.723" style="fill:none;stroke:red;stroke-width:.999997;stroke-linecap:round;stroke-linejoin:round;stroke-miterlimit:4;stroke-dasharray:none;stroke-opacity:1;visibility:visible" visibility="hidden"/><path d="m197.509 916.254-33.825-17.77" style="fill:none;stroke:red;stroke-width:1.99999;stroke-linecap:round;stroke-linejoin:round;stroke-miterlimit:4;stroke-dasharray:none;stroke-opacity:1;visibility:visible" visibility="hidden"/><path d="m161.212 899.208-.096.139" style="fill:none;stroke:red;stroke-width:.999997;stroke-linecap:round;stroke-linejoin:round;stroke-miterlimit:4;stroke-dasharray:none;stroke-opacity:1;visibility:visible" visibility="hidden"/><path d="m161.44 914.119.107.083M197.455 912.898l-36.357-19.027" style="fill:none;stroke:red;stroke-width:1.99999;stroke-linecap:round;stroke-linejoin:round;stroke-miterlimit:4;stroke-dasharray:none;stroke-opacity:1;visibility:visible" visibility="hidden"/><path d="m160.993 893.784-.332-14.88M160.756 878.764l2.479-.701" style="fill:none;stroke:red;stroke-width:.999997;stroke-linecap:round;stroke-linejoin:round;stroke-miterlimit:4;stroke-dasharray:none;stroke-opacity:1;visibility:visible" visibility="hidden"/><path d="m197.183 895.445-33.948-17.383" style="fill:none;stroke:red;stroke-width:1.99999;stroke-linecap:round;stroke-linejoin:round;stroke-miterlimit:4;stroke-dasharray:none;stroke-opacity:1;visibility:visible" visibility="hidden"/><path d="m160.756 878.764-.095.14" style="fill:none;stroke:red;stroke-width:.999997;stroke-linecap:round;stroke-linejoin:round;stroke-miterlimit:4;stroke-dasharray:none;stroke-opacity:1;visibility:visible" visibility="hidden"/><path d="m160.993 893.784.105.087M197.132 892l-36.49-18.604" style="fill:none;stroke:red;stroke-width:1.99999;stroke-linecap:round;stroke-linejoin:round;stroke-miterlimit:4;stroke-dasharray:none;stroke-opacity:1;visibility:visible" visibility="hidden"/><path d="m160.537 873.308-.336-15.003M160.3 858.165l2.487-.685" style="fill:none;stroke:red;stroke-width:.999997;stroke-linecap:round;stroke-linejoin:round;stroke-miterlimit:4;stroke-dasharray:none;stroke-opacity:1;visibility:visible" visibility="hidden"/><path d="m196.857 874.477-34.07-16.997" style="fill:none;stroke:red;stroke-width:1.99999;stroke-linecap:round;stroke-linejoin:round;stroke-miterlimit:4;stroke-dasharray:none;stroke-opacity:1;visibility:visible" visibility="hidden"/><path d="m160.3 858.165-.099.14" style="fill:none;stroke:red;stroke-width:.999997;stroke-linecap:round;stroke-linejoin:round;stroke-miterlimit:4;stroke-dasharray:none;stroke-opacity:1;visibility:visible" visibility="hidden"/><path d="m160.537 873.308.105.087M196.805 870.943l-36.63-18.193" style="fill:none;stroke:red;stroke-width:1.99999;stroke-linecap:round;stroke-linejoin:round;stroke-miterlimit:4;stroke-dasharray:none;stroke-opacity:1;visibility:visible" visibility="hidden"/><path d="m160.07 852.662-.333-15.116M159.832 837.407l2.496-.667" style="fill:none;stroke:red;stroke-width:.999997;stroke-linecap:round;stroke-linejoin:round;stroke-miterlimit:4;stroke-dasharray:none;stroke-opacity:1;visibility:visible" visibility="hidden"/><path d="m196.533 853.34-34.204-16.599" style="fill:none;stroke:red;stroke-width:1.99999;stroke-linecap:round;stroke-linejoin:round;stroke-miterlimit:4;stroke-dasharray:none;stroke-opacity:1;visibility:visible" visibility="hidden"/><path d="m159.832 837.407-.096.139" style="fill:none;stroke:red;stroke-width:.999997;stroke-linecap:round;stroke-linejoin:round;stroke-miterlimit:4;stroke-dasharray:none;stroke-opacity:1;visibility:visible" visibility="hidden"/><path d="m160.07 852.662.105.088M196.481 849.72l-36.763-17.77" style="fill:none;stroke:red;stroke-width:1.99999;stroke-linecap:round;stroke-linejoin:round;stroke-miterlimit:4;stroke-dasharray:none;stroke-opacity:1;visibility:visible" visibility="hidden"/><path d="m159.604 831.861-.333-15.23M159.367 816.49l2.513-.657" style="fill:none;stroke:red;stroke-width:.999997;stroke-linecap:round;stroke-linejoin:round;stroke-miterlimit:4;stroke-dasharray:none;stroke-opacity:1;visibility:visible" visibility="hidden"/><path d="m196.2 832.037-34.319-16.204" style="fill:none;stroke:red;stroke-width:1.99999;stroke-linecap:round;stroke-linejoin:round;stroke-miterlimit:4;stroke-dasharray:none;stroke-opacity:1;visibility:visible" visibility="hidden"/><path d="m159.367 816.49-.096.14" style="fill:none;stroke:red;stroke-width:.999997;stroke-linecap:round;stroke-linejoin:round;stroke-miterlimit:4;stroke-dasharray:none;stroke-opacity:1;visibility:visible" visibility="hidden"/><path d="m159.604 831.861.115.09M196.145 828.32l-36.901-17.332" style="fill:none;stroke:red;stroke-width:1.99999;stroke-linecap:round;stroke-linejoin:round;stroke-miterlimit:4;stroke-dasharray:none;stroke-opacity:1;visibility:visible" visibility="hidden"/><path d="m159.14 810.902-.344-15.353M158.902 795.407l2.513-.64" style="fill:none;stroke:red;stroke-width:.999997;stroke-linecap:round;stroke-linejoin:round;stroke-miterlimit:4;stroke-dasharray:none;stroke-opacity:1;visibility:visible" visibility="hidden"/><path d="m195.865 810.57-34.45-15.804" style="fill:none;stroke:red;stroke-width:1.99999;stroke-linecap:round;stroke-linejoin:round;stroke-miterlimit:4;stroke-dasharray:none;stroke-opacity:1;visibility:visible" visibility="hidden"/><path d="m158.902 795.407-.107.141" style="fill:none;stroke:red;stroke-width:.999997;stroke-linecap:round;stroke-linejoin:round;stroke-miterlimit:4;stroke-dasharray:none;stroke-opacity:1;visibility:visible" visibility="hidden"/><path d="m159.14 810.902.104.085M195.812 806.761l-37.033-16.89" style="fill:none;stroke:red;stroke-width:1.99999;stroke-linecap:round;stroke-linejoin:round;stroke-miterlimit:4;stroke-dasharray:none;stroke-opacity:1;visibility:visible" visibility="hidden"/><path d="m158.672 789.775-.35-15.468M158.427 774.157l2.521-.613" style="fill:none;stroke:red;stroke-width:.999997;stroke-linecap:round;stroke-linejoin:round;stroke-miterlimit:4;stroke-dasharray:none;stroke-opacity:1;visibility:visible" visibility="hidden"/><path d="m195.531 788.923-34.583-15.379" style="fill:none;stroke:red;stroke-width:1.99999;stroke-linecap:round;stroke-linejoin:round;stroke-miterlimit:4;stroke-dasharray:none;stroke-opacity:1;visibility:visible" visibility="hidden"/><path d="m158.427 774.157-.104.15" style="fill:none;stroke:red;stroke-width:.999997;stroke-linecap:round;stroke-linejoin:round;stroke-miterlimit:4;stroke-dasharray:none;stroke-opacity:1;visibility:visible" visibility="hidden"/><path d="m158.672 789.775.107.096M141.22 702.91l6.936 276.213M288.94 706.94l-.367 230.343" style="fill:none;stroke:red;stroke-width:1.99999;stroke-linecap:round;stroke-linejoin:round;stroke-miterlimit:4;stroke-dasharray:none;stroke-opacity:1;visibility:visible" visibility="hidden"/><path d="m204.581 727.16 4.099 278.805M273.196 711.246l.652 273.142" style="fill:none;stroke:red;stroke-width:.666665;stroke-linecap:round;stroke-linejoin:round;stroke-miterlimit:4;stroke-dasharray:none;stroke-opacity:1;visibility:visible" visibility="hidden"/><path d="m225.483 965.777 8.167-2.592-.087-.036v-.307M219.073 962.072l8.157-2.647" style="fill:none;stroke:red;stroke-width:.999997;stroke-linecap:round;stroke-linejoin:round;stroke-miterlimit:4;stroke-dasharray:none;stroke-opacity:1;visibility:visible" visibility="hidden"/><path d="m225.93 963.162-.039-.033-.037-.038-.028-.036-.028-.036-.015-.038-.017-.038-.008-.038-.003-.035v-.039l.007-.036.01-.041.018-.036.02-.033.028-.039.032-.037.037-.035.042-.033.046-.03.05-.029.052-.03.06-.027.062-.024.066-.027.068-.02.07-.019.072-.017.078-.017.08-.008.076-.015.081-.012.085-.004.083-.003h.167l.084.002.082.005.082.01.08.011.08.011.077.015.077.017.07.019.069.02.07.024.063.025.056.025.058.027.053.035.048.029.044.035.043.03.032.035.029.036.025.037.022.039.012.036.012.036.002.039v.042l-.006.035-.014.037-.016.039-.022.033-.023.039-.033.032-.036.037-.044.032-.043.032-.052.03-.056.032-.056.024-.064.025-.063.025-.068.019-.069.021-.079.018-.073.016-.081.013-.08.01-.079.009-.084.005-.083.003-.084.006h-.082l-.083-.006-.085-.003-.082-.01-.081-.011-.076-.012-.081-.018-.075-.014-.07-.02-.071-.022-.068-.024-.062-.025-.062-.025-.055-.028-.052-.03-.052-.033-.04-.028" style="fill:none;stroke:red;stroke-width:.666665;stroke-linecap:round;stroke-linejoin:round;stroke-miterlimit:4;stroke-dasharray:none;stroke-opacity:1;visibility:visible" visibility="hidden"/><path d="m233.715 962.707-6.484-3.283-.185-10.701-.268-.17" style="fill:none;stroke:red;stroke-width:.999997;stroke-linecap:round;stroke-linejoin:round;stroke-miterlimit:4;stroke-dasharray:none;stroke-opacity:1;visibility:visible" visibility="hidden"/><path d="m223.227 953.175.067-.02.069-.016.065-.008.063-.003.07-.005.063.005.06.003.062.013.054.018.058.021.053.027.05.033.047.033.046.042.041.041.037.043.034.053.03.053.024.055.026.06.018.065.015.063.01.067.003.068.004.072-.004.073-.006.068-.012.079-.016.073-.019.076-.023.075-.029.076-.028.072-.035.076-.04.068-.042.07-.044.072-.048.064-.051.066-.055.06-.054.06-.06.056-.059.052-.063.046-.066.05-.064.036-.064.041-.07.033-.065.032-.067.024-.068.02-.069.012-.067.015-.065.005h-.127l-.061-.005-.063-.017-.057-.016-.057-.023-.051-.023-.05-.032-.047-.033-.044-.044-.043-.039-.037-.046-.036-.05-.031-.053-.024-.059-.021-.057-.022-.064-.014-.064-.008-.065-.008-.071v-.07l.002-.073.006-.074.013-.075.015-.079.018-.069.026-.072.026-.076.028-.075.038-.077.038-.073.042-.066.044-.07.049-.066.05-.065.057-.061.052-.059" style="fill:none;stroke:red;stroke-width:.666665;stroke-linecap:round;stroke-linejoin:round;stroke-miterlimit:4;stroke-dasharray:none;stroke-opacity:1;visibility:visible" visibility="hidden"/><path d="m222.708 953.493.059-.056.062-.048.064-.044.066-.043.066-.037.068-.032.066-.032.068-.025" style="fill:none;stroke:red;stroke-width:.666665;stroke-linecap:round;stroke-linejoin:round;stroke-miterlimit:4;stroke-dasharray:none;stroke-opacity:1;visibility:visible" visibility="hidden"/><path d="m218.856 950.924 7.921-2.37" style="fill:none;stroke:red;stroke-width:.999997;stroke-linecap:round;stroke-linejoin:round;stroke-miterlimit:4;stroke-dasharray:none;stroke-opacity:1;visibility:visible" visibility="hidden"/><path d="m225.768 962.836-.01.068M223.466 954.145l-.53.07.105.569M226.744 962.684l.39.215.355-.18" style="fill:none;stroke:red;stroke-width:.666665;stroke-linecap:round;stroke-linejoin:round;stroke-miterlimit:4;stroke-dasharray:none;stroke-opacity:1;visibility:visible" visibility="hidden"/><path d="m284.05 943.972 8.663-2.779-.076-.029v-.279M279.78 940.121l7.353-2.385" style="fill:none;stroke:red;stroke-width:.999997;stroke-linecap:round;stroke-linejoin:round;stroke-miterlimit:4;stroke-dasharray:none;stroke-opacity:1;visibility:visible" visibility="hidden"/><path d="m284.792 941.1-.033-.027-.034-.032-.026-.033-.024-.036-.015-.032-.015-.033-.008-.035-.002-.033v-.035l.006-.03.008-.04.018-.029.018-.03.024-.035.03-.035.033-.033.037-.03.043-.025.044-.029.048-.025.053-.024.056-.024.059-.02.061-.02.066-.016.062-.016.072-.016.071-.008.07-.012.073-.01.076-.004.074-.002h.151l.075.002.074.004.075.007.072.012.07.004.071.02.07.01.062.018.063.021.063.02.057.023.05.023.053.026.049.028.043.027.038.033.039.028.028.032.028.03.023.036.018.032.011.036.01.032.002.036v.033l-.005.035-.011.032-.015.033-.018.035-.023.032-.03.029-.034.033-.04.03-.037.028-.047.028-.05.026-.05.026-.057.021-.058.02-.062.017-.063.023-.068.013-.068.014-.072.012-.073.013-.071.005-.075.003-.074.004-.076.007h-.075l-.075-.007-.076-.004-.074-.005-.074-.011-.069-.012-.072-.016-.067-.013-.065-.018-.063-.02-.061-.021-.056-.021-.056-.026-.05-.026-.047-.024-.047-.031-.036-.028" style="fill:none;stroke:red;stroke-width:.666665;stroke-linecap:round;stroke-linejoin:round;stroke-miterlimit:4;stroke-dasharray:none;stroke-opacity:1;visibility:visible" visibility="hidden"/><path d="m287.133 937.736-.048-9.677-.24-.15" style="fill:none;stroke:red;stroke-width:.999997;stroke-linecap:round;stroke-linejoin:round;stroke-miterlimit:4;stroke-dasharray:none;stroke-opacity:1;visibility:visible" visibility="hidden"/><path d="m282.686 932.516.06-.017.061-.014.06-.01.058-.003.061-.005.057.005.054.003.057.013.05.015.051.021.047.02.044.032.044.03.04.038.039.035.033.037.03.05.027.049.022.049.022.053.019.059.01.059.009.06.005.06.004.064-.004.066-.007.066-.01.065-.014.07-.017.067-.021.066-.026.069-.025.065-.032.068-.036.062-.039.065-.038.063-.044.058-.046.059-.049.055-.05.053-.053.05-.053.047-.057.044-.059.043-.059.036-.056.032-.062.033-.06.028-.06.023-.062.017-.062.01-.059.013-.06.004h-.115l-.056-.004-.056-.015-.05-.013-.052-.021-.046-.02-.046-.03-.042-.03-.04-.038-.038-.036-.034-.041-.032-.047-.028-.048-.021-.052-.02-.052-.02-.06-.013-.054-.006-.06-.008-.063v-.064l.002-.065.006-.068.011-.068.013-.068.019-.066.021-.065.024-.068.026-.068.034-.067.034-.062.037-.064.04-.063.045-.06.044-.057.051-.055.048-.055" style="fill:none;stroke:red;stroke-width:.666665;stroke-linecap:round;stroke-linejoin:round;stroke-miterlimit:4;stroke-dasharray:none;stroke-opacity:1;visibility:visible" visibility="hidden"/><path d="m282.218 932.8.053-.05.056-.043.058-.043.058-.035.062-.034.06-.03.06-.025.061-.024" style="fill:none;stroke:red;stroke-width:.666665;stroke-linecap:round;stroke-linejoin:round;stroke-miterlimit:4;stroke-dasharray:none;stroke-opacity:1;visibility:visible" visibility="hidden"/><path d="m279.583 930.07 7.261-2.161" style="fill:none;stroke:red;stroke-width:.999997;stroke-linecap:round;stroke-linejoin:round;stroke-miterlimit:4;stroke-dasharray:none;stroke-opacity:1;visibility:visible" visibility="hidden"/><path d="m284.648 940.81-.008.06M282.989 933.383l-.53.07.106.567M285.499 940.808l.39.212.355-.176M220.942 934.61l-.639.123.267.674M155.868 954.883l-.639.125.267.674M153.317 846.767l-.637.127.265.673M150.66 734.197l-.637.127.265.672M219.755 828.822l-.639.125.266.674" style="fill:none;stroke:red;stroke-width:.666665;stroke-linecap:round;stroke-linejoin:round;stroke-miterlimit:4;stroke-dasharray:none;stroke-opacity:1;visibility:visible" visibility="hidden"/><path d="m167.24 728.161-.09-.055-.085-.061-.081-.087-.077-.097-.071-.113-.07-.124-.053-.14-.043-.14-.037-.151-.025-.148-.008-.15v-.139l.008-.133.025-.134.037-.113.043-.096.052-.09.072-.06.07-.044.077-.026.08-.008.088.016.088.034.089.054.087.08.08.086.078.114.062.116.06.132.054.14.044.149.024.15.02.151.008.139-.008.141-.02.13-.024.125-.044.104-.053.099-.061.068-.071.053-.07.036-.079.017h-.086l-.09-.025" style="fill:none;stroke:red;stroke-width:.999997;stroke-linecap:round;stroke-linejoin:round;stroke-miterlimit:4;stroke-dasharray:none;stroke-opacity:1;visibility:visible" visibility="hidden"/><path d="m387.351 880.295 26.703-7.645" style="fill:none;stroke:red;stroke-width:.666665;stroke-linecap:round;stroke-linejoin:round;stroke-miterlimit:10;stroke-dasharray:none;stroke-opacity:1;visibility:visible" visibility="hidden"/><path d="m315.42 957.43 13.342-.309M315.42 957.43l13.342-.309M142.054 714.302l4.923-9.06M162.337 954.31l-5.431.323M162.46 959.748l-5.554-5.115M160.07 852.662l-5.685-6.044M159.737 837.546l-5.352 9.072M160.449 730.761l-8.692 3.323M157.364 731.315l-5.607 2.769M156.985 709.415l-5.316 2.67M75.598 965.241l-3.191-6.531M162.118 939.624l-15.019-2.682M198.924 1007.136l-7.065-1.845M192.981 971.56l-7.503-1.169M189.52 972.667l-.58-3.383M215.867 964.205l-2.144-2.848M258.262 950.584l-7.849-.969M254.517 951.784l-.37-3.364M264.607 985.111l-7.268-1.712M264.467 939.316l14.93 2.488M315.42 957.43l4.334 5.138M328.762 957.121l-13.342.309M319.754 962.568l-4.334-5.138M266.998 712.289l-.748 7.214M266.25 719.503l.748-7.214M264.607 985.11l2.301-5.524" style="fill:none;stroke:red;stroke-width:.999997;stroke-linecap:round;stroke-linejoin:round;stroke-miterlimit:4;stroke-dasharray:none;stroke-opacity:1;visibility:visible" visibility="hidden"/><path d="m279.397 946.117-14.869 13.156M279.397 941.804l-14.93-2.488M237.37 719.032l3.129 2.914M282.28 729.512l-18.43 1.568M240.499 721.946l6.91 2.703M243.535 717.36l-.05-15.68" style="fill:none;stroke:red;stroke-width:.666665;stroke-linecap:round;stroke-linejoin:round;stroke-miterlimit:4;stroke-dasharray:none;stroke-opacity:1;visibility:visible" visibility="hidden"/><path d="m224.717 694.587-9.139 13.033M225.077 731.227l-9.306-7.12M227.115 934.149l-5.167.271M227.169 939.475l-5.221-5.055M226.114 834.594l-5.324-5.967M225.963 819.794l-5.173 8.833M227.248 693.913l-7.497 3.111M194.604 728.94l2.49 6.733M197.094 735.673l.634-7.38M198.924 1007.134l2.188-5.615" style="fill:none;stroke:red;stroke-width:.999997;stroke-linecap:round;stroke-linejoin:round;stroke-miterlimit:4;stroke-dasharray:none;stroke-opacity:1;visibility:visible" visibility="hidden"/><path d="m214.865 964.529-16.681-4.771" style="fill:none;stroke:red;stroke-width:.666665;stroke-linecap:round;stroke-linejoin:round;stroke-miterlimit:4;stroke-dasharray:none;stroke-opacity:1;visibility:visible" visibility="hidden"/><path d="m148.156 979.123.288-9.153M162.46 959.748l-14.016 10.222M146.977 705.242l-4.923 9.06M157.232 725.4l-15.178-11.098" style="fill:none;stroke:red;stroke-width:.999997;stroke-linecap:round;stroke-linejoin:round;stroke-miterlimit:4;stroke-dasharray:none;stroke-opacity:1;visibility:visible" visibility="hidden"/><path d="m160.02 730.584 2.447-2.961M162.467 727.623l13.376 5.548M162.786 974.179l2.988 1.748M162.337 954.31l3.005 1.713M161.89 934.288l3.024 1.68M161.44 914.119l3.034 1.644M160.993 893.784l3.033 1.627M160.537 873.308l3.039 1.581M160.07 852.662l3.058 1.558M159.604 831.861l3.075 1.522M159.14 810.902l3.084 1.486M158.672 789.775l3.087 1.458M158.19 768.481l3.111 1.422M157.715 747.03l3.112 1.388M157.232 725.4l3.128 1.354" style="fill:none;stroke:red;stroke-width:1.99999;stroke-linecap:round;stroke-linejoin:round;stroke-miterlimit:4;stroke-dasharray:none;stroke-opacity:1;visibility:visible" visibility="hidden"/><path d="m148.444 969.97 2.397 11.373M142.054 714.302l1.968-10.258" style="fill:none;stroke:red;stroke-width:.999997;stroke-linecap:round;stroke-linejoin:round;stroke-miterlimit:4;stroke-dasharray:none;stroke-opacity:1;visibility:visible" visibility="hidden"/><path d="m102.007 952.822 1.39 5.097M114.001 949.184l6.223 3.589M162.118 939.624l-14.834 4.866M162.118 939.624l-15.178-9.026M162.893 974.266l-14.996-5.537M198.924 1007.136l-.142-9.052M198.924 1007.136l-11.707-.019M165.843 979.084l1.328.763M157.776 974.53l12.875 4.202M188.94 969.284l.58 3.383M185.478 970.391l7.503 1.17M215.823 960.68l-2.055 4.2M230.156 958.455l1.354.722M227.563 959.287l7.743-1.331M254.148 948.42l.369 3.364M250.413 949.615l7.85.969M264.607 985.111l-.026-8.04M264.607 985.111l-12.349-.025M198.184 959.758l16.68 4.77M327.145 964.16l-.804-7.644M315.42 957.43l-.87 6.878M264.467 939.316l14.93 6.801M264.59 980.972l14.815-4.94M279.405 976.033l-14.815 4.939M198.853 1002.907l15.336-5.115M214.189 997.792l-15.336 5.115M266.25 719.503l-2.456-7.063M266.25 719.503l13.111-10.078M266.908 979.586l12.497 3.237M264.607 985.111l-.037-11.381M279.397 946.117 264.52 957.08M279.397 946.117l-14.887 7.76M279.397 941.804l-14.939-4.65M279.397 941.804l-14.947-7.927" style="fill:none;stroke:red;stroke-width:1.99999;stroke-linecap:round;stroke-linejoin:round;stroke-miterlimit:4;stroke-dasharray:none;stroke-opacity:1;visibility:visible" visibility="hidden"/><path d="m228.057 736.412-3.072-14.638" style="fill:none;stroke:red;stroke-width:.999997;stroke-linecap:round;stroke-linejoin:round;stroke-miterlimit:4;stroke-dasharray:none;stroke-opacity:1;visibility:visible" visibility="hidden"/><path d="m247.409 724.65 16.431 4.705M240.499 721.946l-3.13-2.914M247.409 724.65l16.425.573M240.499 721.946l3.036-4.586" style="fill:none;stroke:red;stroke-width:1.99999;stroke-linecap:round;stroke-linejoin:round;stroke-miterlimit:4;stroke-dasharray:none;stroke-opacity:1;visibility:visible" visibility="hidden"/><path d="m224.985 721.774-.165-16.5M219.751 697.024l7.497-3.111" style="fill:none;stroke:red;stroke-width:.999997;stroke-linecap:round;stroke-linejoin:round;stroke-miterlimit:4;stroke-dasharray:none;stroke-opacity:1;visibility:visible" visibility="hidden"/><path d="m227.31 953.623 2.82 1.547M227.115 934.149l2.832 1.519M226.914 914.533l2.846 1.495M226.722 894.766l2.845 1.467M226.519 874.863l2.864 1.432M226.317 854.8l2.873 1.412M226.114 834.594l2.884 1.38M225.913 814.234l2.89 1.353M225.71 793.71l2.9 1.33M225.5 773.041l2.919 1.292M225.29 752.212l2.924 1.267M225.077 731.227l2.944 1.229" style="fill:none;stroke:red;stroke-width:1.99999;stroke-linecap:round;stroke-linejoin:round;stroke-miterlimit:4;stroke-dasharray:none;stroke-opacity:1;visibility:visible" visibility="hidden"/><path d="m215.77 724.108-3.18-16.168M225.077 731.227l-12.28-6.452" style="fill:none;stroke:red;stroke-width:.999997;stroke-linecap:round;stroke-linejoin:round;stroke-miterlimit:4;stroke-dasharray:none;stroke-opacity:1;visibility:visible" visibility="hidden"/><path d="m197.094 735.673-2.49-6.733M225.077 731.227l-14.324-5.94M201.112 1001.519l13.166 3.207M198.924 1007.136l-.194-12.269M214.865 964.529l-16.452 10.081M215.683 960.6l-17.534-3.217M215.683 960.6l-17.585-6.406M142.054 714.302l-.834-11.392M148.444 969.97l-.288 9.153" style="fill:none;stroke:red;stroke-width:1.99999;stroke-linecap:round;stroke-linejoin:round;stroke-miterlimit:4;stroke-dasharray:none;stroke-opacity:1;visibility:visible" visibility="hidden"/><path d="m201.112 1001.519 7.568 4.446M266.908 979.586l6.94 4.802" style="fill:none;stroke:red;stroke-width:.666665;stroke-linecap:round;stroke-linejoin:round;stroke-miterlimit:4;stroke-dasharray:none;stroke-opacity:1;visibility:visible" visibility="hidden"/><path d="m227.23 959.425-1.747 6.352M223.227 953.176l-4.371-2.252M287.133 937.736l-3.083 6.236M288.573 937.283l4.064 3.602M282.686 932.516l-2.906 7.605M282.686 932.516l-3.103-2.446" style="fill:none;stroke:red;stroke-width:.999997;stroke-linecap:round;stroke-linejoin:round;stroke-miterlimit:4;stroke-dasharray:none;stroke-opacity:1;visibility:visible" visibility="hidden"/><path d="m157.776 974.53-1.908-19.647M159.832 837.407l-6.515 9.36M157.47 731.166l-6.81 3.031M226.063 819.654l-6.308 9.168" style="fill:none;stroke:red;stroke-width:.666665;stroke-linecap:round;stroke-linejoin:round;stroke-miterlimit:4;stroke-dasharray:none;stroke-opacity:1;visibility:visible" visibility="hidden"/><path d="m175.479 717.083-18.599-7.519" style="fill:none;stroke:#00ff4a;stroke-width:.666665;stroke-linecap:round;stroke-linejoin:round;stroke-miterlimit:4;stroke-dasharray:none;stroke-opacity:1;visibility:visible"/><path d="m217.266 689.889-1.89.413" style="fill:none;stroke:#00ff4a;stroke-width:.999997;stroke-linecap:round;stroke-linejoin:round;stroke-miterlimit:4;stroke-dasharray:none;stroke-opacity:1;visibility:visible"/><path d="m236.409 683.925 43.31-9.428M168.622 698.682l46.09-10.032" style="fill:none;stroke:#00ff4a;stroke-width:.666665;stroke-linecap:round;stroke-linejoin:round;stroke-miterlimit:4;stroke-dasharray:none;stroke-opacity:1;visibility:visible"/><path d="m160.21 667.825-.097-4.735M203.408 679.245 256.7 699.13M160.113 663.09l37.905 14.144M213.1 679.822l-.09-.032-.06-.046-.045-.036-.026-.044-.008-.044.009-.044.034-.036.056-.043.069-.035.085-.032.106-.037.115-.027.124-.025.141-.02.141-.019.149-.006h.307l.15.006.14.02.141.019.122.014.115.038.096.025.08.038.059.033.055.043.025.044.008.044-.016.036-.035.044-.044.044-.07.036-.087.034-.108.034-.113.028-.132.024-.133.018-.15.018-.148.01h-.307l-.14-.01-.15-.018-.132-.017-.123-.016-.115-.037-.095-.026M224.339 649.995l98.108 34.335M279.646 665.56l-.095-.028-.116-.026-.122-.028-.133-.017-.14-.008-.15-.008h-.289l-.151.008-.139.008-.133.017-.121.028-.107.026-.096.036-.079.034-.07.035-.045.037-.026.044-.008.034.008.044.035.034.045.044.07.036.088.035.095.025.116.03.123.024.13.016.141.011.151.009h.289l.149-.008.141-.019.131-.019.124-.014.105-.03.099-.034.087-.036.061-.034.044-.036.028-.04.008-.047-.008-.035-.037-.044-.044-.035-.07-.035-.089-.034M224.367 652.305l-.027-2.31M224.375 653.192l-.008-.887M170.737 724.065l.185 9.087M170.737 724.065l-7.205-2.963M170.737 724.065l174.729-39.708M333.468 685.37l.108-.026.112-.01.123-.012.124-.005h.123l.132.005.123.012.105.016.106.027.096.017.08.036.06.027.045.033.017.036.01.036-.019.034-.026.036-.054.036-.07.026-.088.024-.095.028-.105.018-.124.01-.124.007h-.253l-.124-.008-.115-.017-.113-.018-.097-.02-.08-.034-.068-.026-.053-.034-.037-.036-.017-.034.008-.037.017-.033.045-.036.062-.028.078-.035.09-.015M267.73 700.257l.113-.019.115-.017.132-.01h.387l.122.019.115.016.104.019.09.025.079.035.06.036.037.037.026.034v.034l-.02.046-.04.033-.055.036-.078.029-.088.024-.099.027-.113.017-.123.016h-.132l-.132.011-.121-.01-.134-.01-.113-.015-.115-.017-.096-.028-.089-.025-.061-.035-.052-.035-.036-.036-.008-.037.008-.033.027-.046.05-.032.063-.028.08-.034.097-.027M198.51 715.945l.115-.019.124-.018.13-.016h.274l.131.008.123.008.113.018.106.027.088.025.079.036.053.034.035.036.016.045v.035l-.025.044-.045.032-.06.038-.077.036-.091.027-.112.024-.117.02-.132.016-.13.01h-.13l-.134-.011-.132-.007-.122-.008-.106-.028-.096-.027-.088-.026-.062-.036-.053-.034-.025-.044-.01-.036.018-.042.034-.038.054-.033.07-.033.088-.038.096-.025M58.28 677.95l6.256 2.567 26.418-4.544M235.826 646.497 90.954 675.973M91.246 684.445l-.293-8.472M64.863 689.052l-.327-8.535M61.6 684.462l.08.02.07.006.07-.015.063-.037.06-.062.055-.07.042-.087.037-.095.016-.114.018-.128v-.129l-.011-.141-.015-.14-.028-.14-.044-.133-.042-.13-.055-.124-.06-.106-.07-.105-.071-.079-.069-.07-.081-.055-.08-.024-.067-.01h-.071l-.071.026-.061.053-.055.061-.043.08-.044.097-.025.105-.019.122-.009.126v.138l.018.132.027.14.026.14.044.134.052.121.06.124.065.107.068.088.071.078.079.052.07.044M92.774 679.26l-.078-2.416M92.799 680.13l-.024-.87M92.696 676.844l94.793 37.888M144.678 696.194l-.068-.024-.045-.036-.025-.036-.01-.033.01-.045.034-.034.044-.036.072-.036.078-.024.104-.029.106-.016.123-.017.124-.019h.385l.116.011.112.015.107.025.088.018.07.036.063.036.034.026.017.044v.034l-.017.036-.043.035-.061.036-.071.033-.088.028-.107.028-.113.016-.124.007-.13.01-.135.01h-.12l-.124-.009-.124-.018-.104-.016-.096-.028-.082-.028M158.486 695.221l53.945-11.628M226.309 680.596l51.201-11.038" style="fill:none;stroke:#00ff4a;stroke-width:.999997;stroke-linecap:round;stroke-linejoin:round;stroke-miterlimit:4;stroke-dasharray:none;stroke-opacity:1;visibility:visible"/><path d="m218.066 689.597 30.33 11.408M160.21 667.825l36.694 13.8" style="fill:none;stroke:#00ff4a;stroke-width:1.99999;stroke-linecap:round;stroke-linejoin:round;stroke-miterlimit:4;stroke-dasharray:none;stroke-opacity:1;visibility:visible"/><path d="m212.483 687.497 5.582 2.1" style="fill:none;stroke:#00ff4a;stroke-width:.999997;stroke-linecap:round;stroke-linejoin:round;stroke-miterlimit:4;stroke-dasharray:none;stroke-opacity:1;visibility:visible"/><path d="m172.164 660.636 96.886 35.718" style="fill:none;stroke:#00ff4a;stroke-width:1.99999;stroke-linecap:round;stroke-linejoin:round;stroke-miterlimit:4;stroke-dasharray:none;stroke-opacity:1;visibility:visible"/><path d="m160.114 663.09 12.05-2.455" style="fill:none;stroke:#00ff4a;stroke-width:.999997;stroke-linecap:round;stroke-linejoin:round;stroke-miterlimit:4;stroke-dasharray:none;stroke-opacity:1;visibility:visible"/><path d="m277.511 673.372 36.456 12.866M224.394 654.626l37.29 13.156M235.837 647.648l98.353 34.037" style="fill:none;stroke:#00ff4a;stroke-width:1.99999;stroke-linecap:round;stroke-linejoin:round;stroke-miterlimit:4;stroke-dasharray:none;stroke-opacity:1;visibility:visible"/><path d="m224.394 654.626-.017-1.433M224.34 649.995l7.023-1.432 4.474-.915" style="fill:none;stroke:#00ff4a;stroke-width:.999997;stroke-linecap:round;stroke-linejoin:round;stroke-miterlimit:4;stroke-dasharray:none;stroke-opacity:1;visibility:visible"/><path d="m92.853 681.676 87.041 35.078M91.245 684.445l-26.382 4.607-6.251-2.602M235.826 646.497l.01 1.15M96.852 683.286l-5.607 1.16M164.288 669.354l-46.834 9.68M228.533 656.084l-44.03 9.096M227.813 643.728l8.013 2.77M227.813 643.728 58.279 677.95M58.613 686.45l-.333-8.5M163.533 721.102l24.239-6.441M345.466 684.358l-9.132-3.157M345.466 684.357l-.096 8.561M345.37 692.918l-174.446 40.234M163.533 721.102l.193 9.054 7.198 2.996M187.773 714.661l148.562-33.459" style="fill:none;stroke:#00ff4a;stroke-width:1.99999;stroke-linecap:round;stroke-linejoin:round;stroke-miterlimit:4;stroke-dasharray:none;stroke-opacity:1;visibility:visible"/><path d="m92.853 681.676-.053-1.546M92.697 676.842l8.015-1.636 4.638-.946" style="fill:none;stroke:#00ff4a;stroke-width:.999997;stroke-linecap:round;stroke-linejoin:round;stroke-miterlimit:4;stroke-dasharray:none;stroke-opacity:1;visibility:visible"/><path d="m105.35 674.26 95.14 37.536" style="fill:none;stroke:#00ff4a;stroke-width:1.99999;stroke-linecap:round;stroke-linejoin:round;stroke-miterlimit:4;stroke-dasharray:none;stroke-opacity:1;visibility:visible"/><path d="m212.483 687.497-.052-3.904" style="fill:none;stroke:#00ff4a;stroke-width:.999997;stroke-linecap:round;stroke-linejoin:round;stroke-miterlimit:4;stroke-dasharray:none;stroke-opacity:1;visibility:visible"/><path d="m149.629 691.732 53.821-11.503" style="fill:none;stroke:#00ff4a;stroke-width:1.99999;stroke-linecap:round;stroke-linejoin:round;stroke-miterlimit:4;stroke-dasharray:none;stroke-opacity:1;visibility:visible"/><path d="M277.511 673.372v-3.814M165.009 697.796l47.474-10.3" style="fill:none;stroke:#00ff4a;stroke-width:.999997;stroke-linecap:round;stroke-linejoin:round;stroke-miterlimit:4;stroke-dasharray:none;stroke-opacity:1;visibility:visible"/><path d="m217.293 677.273 51.086-10.916" style="fill:none;stroke:#00ff4a;stroke-width:1.99999;stroke-linecap:round;stroke-linejoin:round;stroke-miterlimit:4;stroke-dasharray:none;stroke-opacity:1;visibility:visible"/><path d="m232.953 683.046 44.557-9.674" style="fill:none;stroke:#00ff4a;stroke-width:.999997;stroke-linecap:round;stroke-linejoin:round;stroke-miterlimit:4;stroke-dasharray:none;stroke-opacity:1;visibility:visible"/><path d="m163.532 721.102 11.947-4.019M144.678 696.194l12.202 13.37" style="fill:none;stroke:#00ff4a;stroke-width:.666665;stroke-linecap:round;stroke-linejoin:round;stroke-miterlimit:4;stroke-dasharray:none;stroke-opacity:1;visibility:visible"/><path d="m214.711 688.65.666 1.652" style="fill:none;stroke:#00ff4a;stroke-width:.999997;stroke-linecap:round;stroke-linejoin:round;stroke-miterlimit:4;stroke-dasharray:none;stroke-opacity:1;visibility:visible"/><path d="m215.377 690.302-.666-1.652" style="fill:none;stroke:#00ff4a;stroke-width:.666665;stroke-linecap:round;stroke-linejoin:round;stroke-miterlimit:4;stroke-dasharray:none;stroke-opacity:1;visibility:visible"/><path d="m203.408 679.245-5.39-2.011M212.483 687.497l.617-7.675M336.334 681.201l-13.887 3.129M277.511 673.372l2.135-7.812M261.684 667.782l17.962-2.222M336.335 681.202l-2.867 4.168M187.773 714.661l10.737 1.284M58.28 677.95l6.583 11.102M58.613 686.45l5.923-5.933M156.88 709.564l-12.202-13.37M217.266 689.889l9.043-9.293" style="fill:none;stroke:#00ff4a;stroke-width:.999997;stroke-linecap:round;stroke-linejoin:round;stroke-miterlimit:4;stroke-dasharray:none;stroke-opacity:1;visibility:visible"/><path d="m203.408 679.245-6.504 2.38M277.511 673.372l-15.827-5.59M336.334 681.201l-2.144.484M163.532 721.102l16.362-4.348M92.697 676.842l4.155 6.444M160.114 663.09l4.174 6.264M105.35 674.26l12.104 4.774M224.34 649.995l4.193 6.089M172.164 660.635l12.339 4.545M212.431 683.593l4.862-6.32" style="fill:none;stroke:#00ff4a;stroke-width:1.99999;stroke-linecap:round;stroke-linejoin:round;stroke-miterlimit:4;stroke-dasharray:none;stroke-opacity:1;visibility:visible"/><path d="m217.266 689.889 15.687-6.843" style="fill:none;stroke:#00ff4a;stroke-width:.999997;stroke-linecap:round;stroke-linejoin:round;stroke-miterlimit:4;stroke-dasharray:none;stroke-opacity:1;visibility:visible"/><path d="m345.37 692.918-12.585 4.204" style="fill:none;stroke:red;stroke-width:.999997;stroke-linecap:round;stroke-linejoin:round;stroke-miterlimit:4;stroke-dasharray:none;stroke-opacity:1;visibility:visible" visibility="hidden"/><path d="m345.37 692.918-15.858 4.524M345.37 692.918l-.837 1.488" style="fill:none;stroke:red;stroke-width:1.99999;stroke-linecap:round;stroke-linejoin:round;stroke-miterlimit:4;stroke-dasharray:none;stroke-opacity:1;visibility:visible" visibility="hidden"/><path d="m264.45 933.877-.045-14.677M247.409 724.65l-12.703-4.97" style="fill:none;stroke:red;stroke-width:.666665;stroke-linecap:round;stroke-linejoin:round;stroke-miterlimit:4;stroke-dasharray:none;stroke-opacity:1;visibility:visible" visibility="hidden"/><path d="m165.009 697.796-5.468 11.058" style="fill:none;stroke:red;stroke-width:.999997;stroke-linecap:round;stroke-linejoin:round;stroke-miterlimit:4;stroke-dasharray:none;stroke-opacity:1;visibility:visible" visibility="hidden"/><path d="m264.45 933.877-.054-16.796" style="fill:none;stroke:red;stroke-width:1.99999;stroke-linecap:round;stroke-linejoin:round;stroke-miterlimit:4;stroke-dasharray:none;stroke-opacity:1;visibility:visible" visibility="hidden"/><path d="m227.248 693.913 9.161-9.988M159.541 708.854l9.081-10.172" style="fill:none;stroke:#00ff4a;stroke-width:.666665;stroke-linecap:round;stroke-linejoin:round;stroke-miterlimit:4;stroke-dasharray:none;stroke-opacity:1;visibility:visible"/><path d="m273.196 711.246-5.466-10.989M159.541 708.854l-1.055-13.633" style="fill:none;stroke:#00ff4a;stroke-width:.999997;stroke-linecap:round;stroke-linejoin:round;stroke-miterlimit:4;stroke-dasharray:none;stroke-opacity:1;visibility:visible"/><path d="m243.535 717.36 4.861-16.355M210.753 725.287l-10.263-13.491M159.541 708.854l-9.912-17.122" style="fill:none;stroke:#00ff4a;stroke-width:1.99999;stroke-linecap:round;stroke-linejoin:round;stroke-miterlimit:4;stroke-dasharray:none;stroke-opacity:1;visibility:visible"/><path d="m159.541 708.854 5.468-11.058" style="fill:none;stroke:#00ff4a;stroke-width:.999997;stroke-linecap:round;stroke-linejoin:round;stroke-miterlimit:4;stroke-dasharray:none;stroke-opacity:1;visibility:visible"/></svg>