<svg xmlns="http://www.w3.org/2000/svg" baseProfile="full" height="1122.52" preserveAspectRatio="xMinYMin meet" style="width:729px;height:902px" width="793.701" xml:space="preserve"><path d="m473.573 636.002 3.81 353.347 5.318-2.655-3.132-352.132-5.996 1.44" style="fill:none;fill-opacity:1;fill-rule:nonzero;stroke:red;stroke-width:1.33333;visibility:visible"/><path d="m449.71 942.918 4.365-1.394M423.372 951.343l2.588-.817M459.946 660.868l-47.21-19.713M460.378 688.608l-47.034-20.288M463.915 634.676l-51.787-20.896M459.548 635.683l3.98 1.604 16.385-3.782M464.502 954.263l-16.887-9.535M467.786 982.2l-.012-.188-.02-.198-.048-.199-.054-.199-.064-.196-.08-.191-.087-.189-.1-.165-.113-.155-.108-.142-.121-.123-.123-.099-.121-.078-.122-.044-.122-.032h-.111l-.11.021-.1.044-.086.067-.091.089-.065.11-.056.132-.044.155-.021.166-.012.177v.188l.022.197.034.202.044.197.055.2.077.199.089.188.088.176.11.156.112.154.11.122.122.11.12.088.122.068.123.044.121.011.11-.01.101-.026.1-.064.088-.077.065-.099.067-.123.044-.144.044-.154.01-.176.013-.19M463.528 637.287l5.284 354.179M462.722 646.584v.199l-.023.2-.033.176-.056.168-.066.153-.076.123-.09.109-.099.088-.11.055-.111.034h-.122l-.132-.009-.121-.056-.133-.068-.123-.099-.121-.11-.12-.144-.112-.156-.1-.177-.088-.187-.078-.2-.054-.21-.056-.22-.032-.21-.024-.211v-.21l.013-.197.032-.191.045-.174.055-.156.067-.144.088-.121.098-.09.1-.077.11-.044.122-.023.123.012.132.033.133.055.12.09.124.11.12.12.11.156.113.167.087.176.089.2.065.208.056.212.046.208.02.21.012.223M475.435 633.65l-.045.053-.065.045-.088.055-.122.044-.135.045-.153.033-.164.035-.178.019-.177.013h-.376l-.188-.012-.176-.01-.167-.035-.156-.022-.13-.042-.123-.046-.088-.042-.077-.055-.044-.058-.023-.054" style="fill:none;stroke:red;stroke-width:.999997;stroke-linecap:round;stroke-linejoin:round;stroke-miterlimit:4;stroke-dasharray:none;stroke-opacity:1;visibility:visible"/><path d="m464.777 635.363.144-.034.144-.009.167-.024h.32l.153.012.155.021.133.023.123.033.099.032.079.044.053.044.035.055.01.044-.022.059-.055.044-.065.043-.102.045-.11.03-.132.035-.144.02-.166.013-.156.01h-.33l-.143-.023-.145-.02-.132-.024-.11-.032-.09-.044-.066-.044-.045-.044-.02-.055.01-.044.033-.056.066-.044.077-.043.111-.034.121-.033M471.092 634.533l.01.055-.022.067-.044.055-.076.045-.09.054-.11.044-.144.044-.156.035-.165.032-.176.012-.179.023h-.373l-.189-.012-.178-.011-.164-.036-.156-.02-.133-.044-.122-.044-.087-.045-.078-.055-.044-.056-.022-.056" style="fill:none;stroke:red;stroke-width:.999997;stroke-linecap:round;stroke-linejoin:round;stroke-miterlimit:4;stroke-dasharray:none;stroke-opacity:1;visibility:visible"/><path d="m419.559 946.822 45.23 25.97" style="fill:none;stroke:red;stroke-width:1.99999;stroke-linecap:round;stroke-linejoin:round;stroke-miterlimit:4;stroke-dasharray:none;stroke-opacity:1;visibility:visible"/><path d="m460.798 716.125-46.855-20.861M461.23 743.436l-46.691-21.438M461.648 770.52l-46.513-21.987M462.07 797.387l-46.348-22.531M462.479 824.054l-46.17-23.073M462.887 850.5l-46.004-23.594M463.298 876.747l-45.839-24.112M463.706 902.785l-45.684-24.622M464.103 928.622l-45.507-25.119" style="fill:none;stroke:red;stroke-width:.999997;stroke-linecap:round;stroke-linejoin:round;stroke-miterlimit:4;stroke-dasharray:none;stroke-opacity:1;visibility:visible"/><path d="m460.686 708.708-46.766-20.652" style="fill:none;stroke:red;stroke-width:1.99999;stroke-linecap:round;stroke-linejoin:round;stroke-miterlimit:4;stroke-dasharray:none;stroke-opacity:1;visibility:visible"/><path d="m413.476 668.134 3.186-.753M413.776 687.933l-.432-19.612" style="fill:none;stroke:red;stroke-width:.999997;stroke-linecap:round;stroke-linejoin:round;stroke-miterlimit:4;stroke-dasharray:none;stroke-opacity:1;visibility:visible"/><path d="m460.332 686.165-43.67-18.784" style="fill:none;stroke:red;stroke-width:1.99999;stroke-linecap:round;stroke-linejoin:round;stroke-miterlimit:4;stroke-dasharray:none;stroke-opacity:1;visibility:visible"/><path d="m413.476 668.134-.133.188" style="fill:none;stroke:red;stroke-width:.999997;stroke-linecap:round;stroke-linejoin:round;stroke-miterlimit:4;stroke-dasharray:none;stroke-opacity:1;visibility:visible"/><path d="m460.256 681.134-46.944-20.078M413.776 687.933l.144.123" style="fill:none;stroke:red;stroke-width:1.99999;stroke-linecap:round;stroke-linejoin:round;stroke-miterlimit:4;stroke-dasharray:none;stroke-opacity:1;visibility:visible"/><path d="m412.87 640.968 3.205-.73M413.18 660.934l-.442-19.78" style="fill:none;stroke:red;stroke-width:.999997;stroke-linecap:round;stroke-linejoin:round;stroke-miterlimit:4;stroke-dasharray:none;stroke-opacity:1;visibility:visible"/><path d="m459.903 658.49-43.827-18.253" style="fill:none;stroke:red;stroke-width:1.99999;stroke-linecap:round;stroke-linejoin:round;stroke-miterlimit:4;stroke-dasharray:none;stroke-opacity:1;visibility:visible"/><path d="m412.87 640.968-.134.188" style="fill:none;stroke:red;stroke-width:.999997;stroke-linecap:round;stroke-linejoin:round;stroke-miterlimit:4;stroke-dasharray:none;stroke-opacity:1;visibility:visible"/><path d="m413.18 660.934.134.122M454.795 945.782l4.367-1.395M425.11 955.323l5.904-1.901" style="fill:none;stroke:red;stroke-width:1.99999;stroke-linecap:round;stroke-linejoin:round;stroke-miterlimit:4;stroke-dasharray:none;stroke-opacity:1;visibility:visible"/><path d="m423.416 952.99-15.324 4.91" style="fill:none;stroke:red;stroke-width:.999997;stroke-linecap:round;stroke-linejoin:round;stroke-miterlimit:4;stroke-dasharray:none;stroke-opacity:1;visibility:visible"/><path d="m420.09 800.209-.1-4.367M423.416 952.99l-.088-3.98M459.826 653.33l-47.122-19.494" style="fill:none;stroke:red;stroke-width:1.99999;stroke-linecap:round;stroke-linejoin:round;stroke-miterlimit:4;stroke-dasharray:none;stroke-opacity:1;visibility:visible"/><path d="m412.262 613.595 3.217-.708M412.572 633.713l-.442-19.932" style="fill:none;stroke:red;stroke-width:.999997;stroke-linecap:round;stroke-linejoin:round;stroke-miterlimit:4;stroke-dasharray:none;stroke-opacity:1;visibility:visible"/><path d="m467.564 633.836-52.084-20.95" style="fill:none;stroke:red;stroke-width:1.99999;stroke-linecap:round;stroke-linejoin:round;stroke-miterlimit:4;stroke-dasharray:none;stroke-opacity:1;visibility:visible"/><path d="m412.262 613.595-.134.188" style="fill:none;stroke:red;stroke-width:.999997;stroke-linecap:round;stroke-linejoin:round;stroke-miterlimit:4;stroke-dasharray:none;stroke-opacity:1;visibility:visible"/><path d="m412.572 633.713.134.123" style="fill:none;stroke:red;stroke-width:1.99999;stroke-linecap:round;stroke-linejoin:round;stroke-miterlimit:4;stroke-dasharray:none;stroke-opacity:1;visibility:visible"/><path d="m451.3 939.966-2.785.892" style="fill:none;stroke:red;stroke-width:.999997;stroke-linecap:round;stroke-linejoin:round;stroke-miterlimit:4;stroke-dasharray:none;stroke-opacity:1;visibility:visible"/><path d="m479.913 633.505-3.6-1.437M467.335 633.89l-7.787 1.792" style="fill:none;stroke:red;stroke-width:1.99999;stroke-linecap:round;stroke-linejoin:round;stroke-miterlimit:4;stroke-dasharray:none;stroke-opacity:1;visibility:visible"/><path d="m465.03 989.266 3.783 2.2" style="fill:none;stroke:red;stroke-width:.999997;stroke-linecap:round;stroke-linejoin:round;stroke-miterlimit:4;stroke-dasharray:none;stroke-opacity:1;visibility:visible"/><path d="m479.913 633.505 4.434 352.742M459.548 635.683l5.483 353.581" style="fill:none;stroke:red;stroke-width:1.99999;stroke-linecap:round;stroke-linejoin:round;stroke-miterlimit:4;stroke-dasharray:none;stroke-opacity:1;visibility:visible"/><path d="m419.559 946.822-.41-18.166" style="fill:none;stroke:red;stroke-width:.999997;stroke-linecap:round;stroke-linejoin:round;stroke-miterlimit:4;stroke-dasharray:none;stroke-opacity:1;visibility:visible"/><path d="m464.458 951.232-15.531-8.75M464.39 947.32l-45.261-25.41M419.559 946.822l.133.098" style="fill:none;stroke:red;stroke-width:1.99999;stroke-linecap:round;stroke-linejoin:round;stroke-miterlimit:4;stroke-dasharray:none;stroke-opacity:1;visibility:visible"/><path d="m418.718 903.326 3.076-.939M418.995 921.813l-.399-18.308" style="fill:none;stroke:red;stroke-width:.999997;stroke-linecap:round;stroke-linejoin:round;stroke-miterlimit:4;stroke-dasharray:none;stroke-opacity:1;visibility:visible"/><path d="m464.059 925.65-42.265-23.261" style="fill:none;stroke:red;stroke-width:1.99999;stroke-linecap:round;stroke-linejoin:round;stroke-miterlimit:4;stroke-dasharray:none;stroke-opacity:1;visibility:visible"/><path d="m418.718 903.326-.122.177" style="fill:none;stroke:red;stroke-width:.999997;stroke-linecap:round;stroke-linejoin:round;stroke-miterlimit:4;stroke-dasharray:none;stroke-opacity:1;visibility:visible"/><path d="m463.992 921.635-45.417-24.92M418.995 921.813l.133.097" style="fill:none;stroke:red;stroke-width:1.99999;stroke-linecap:round;stroke-linejoin:round;stroke-miterlimit:4;stroke-dasharray:none;stroke-opacity:1;visibility:visible"/><path d="m418.155 877.987 3.084-.917M418.443 896.615l-.42-18.452" style="fill:none;stroke:red;stroke-width:.999997;stroke-linecap:round;stroke-linejoin:round;stroke-miterlimit:4;stroke-dasharray:none;stroke-opacity:1;visibility:visible"/><path d="M463.662 899.867 421.24 877.07" style="fill:none;stroke:red;stroke-width:1.99999;stroke-linecap:round;stroke-linejoin:round;stroke-miterlimit:4;stroke-dasharray:none;stroke-opacity:1;visibility:visible"/><path d="m418.155 877.987-.133.178" style="fill:none;stroke:red;stroke-width:.999997;stroke-linecap:round;stroke-linejoin:round;stroke-miterlimit:4;stroke-dasharray:none;stroke-opacity:1;visibility:visible"/><path d="M463.594 895.742 418 871.33M418.443 896.615l.132.1" style="fill:none;stroke:red;stroke-width:1.99999;stroke-linecap:round;stroke-linejoin:round;stroke-miterlimit:4;stroke-dasharray:none;stroke-opacity:1;visibility:visible"/><path d="m417.579 852.458 3.107-.907M417.867 871.22l-.41-18.586" style="fill:none;stroke:red;stroke-width:.999997;stroke-linecap:round;stroke-linejoin:round;stroke-miterlimit:4;stroke-dasharray:none;stroke-opacity:1;visibility:visible"/><path d="m463.252 873.875-42.566-22.322" style="fill:none;stroke:red;stroke-width:1.99999;stroke-linecap:round;stroke-linejoin:round;stroke-miterlimit:4;stroke-dasharray:none;stroke-opacity:1;visibility:visible"/><path d="m417.579 852.458-.121.177" style="fill:none;stroke:red;stroke-width:.999997;stroke-linecap:round;stroke-linejoin:round;stroke-miterlimit:4;stroke-dasharray:none;stroke-opacity:1;visibility:visible"/><path d="m463.186 869.651-45.751-23.905M417.867 871.22l.133.11" style="fill:none;stroke:red;stroke-width:1.99999;stroke-linecap:round;stroke-linejoin:round;stroke-miterlimit:4;stroke-dasharray:none;stroke-opacity:1;visibility:visible"/><path d="m417.004 826.73 3.119-.884M417.302 845.637l-.42-18.73" style="fill:none;stroke:red;stroke-width:.999997;stroke-linecap:round;stroke-linejoin:round;stroke-miterlimit:4;stroke-dasharray:none;stroke-opacity:1;visibility:visible"/><path d="m462.843 847.693-42.72-21.847" style="fill:none;stroke:red;stroke-width:1.99999;stroke-linecap:round;stroke-linejoin:round;stroke-miterlimit:4;stroke-dasharray:none;stroke-opacity:1;visibility:visible"/><path d="m417.004 826.73-.121.177" style="fill:none;stroke:red;stroke-width:.999997;stroke-linecap:round;stroke-linejoin:round;stroke-miterlimit:4;stroke-dasharray:none;stroke-opacity:1;visibility:visible"/><path d="m462.778 843.349-45.918-23.386M417.302 845.637l.133.109" style="fill:none;stroke:red;stroke-width:1.99999;stroke-linecap:round;stroke-linejoin:round;stroke-miterlimit:4;stroke-dasharray:none;stroke-opacity:1;visibility:visible"/><path d="m416.43 800.805 3.129-.862M416.728 819.854l-.418-18.872" style="fill:none;stroke:red;stroke-width:.999997;stroke-linecap:round;stroke-linejoin:round;stroke-miterlimit:4;stroke-dasharray:none;stroke-opacity:1;visibility:visible"/><path d="m462.434 821.302-42.875-21.36" style="fill:none;stroke:red;stroke-width:1.99999;stroke-linecap:round;stroke-linejoin:round;stroke-miterlimit:4;stroke-dasharray:none;stroke-opacity:1;visibility:visible"/><path d="m416.43 800.805-.122.177" style="fill:none;stroke:red;stroke-width:.999997;stroke-linecap:round;stroke-linejoin:round;stroke-miterlimit:4;stroke-dasharray:none;stroke-opacity:1;visibility:visible"/><path d="m462.367 816.846-14.997-7.435M428.978 800.294l-12.703-6.299M416.728 819.854l.134.11" style="fill:none;stroke:red;stroke-width:1.99999;stroke-linecap:round;stroke-linejoin:round;stroke-miterlimit:4;stroke-dasharray:none;stroke-opacity:1;visibility:visible"/><path d="m415.844 774.678 3.151-.84M416.142 793.882l-.42-19.026" style="fill:none;stroke:red;stroke-width:.999997;stroke-linecap:round;stroke-linejoin:round;stroke-miterlimit:4;stroke-dasharray:none;stroke-opacity:1;visibility:visible"/><path d="m462.026 794.7-43.03-20.86" style="fill:none;stroke:red;stroke-width:1.99999;stroke-linecap:round;stroke-linejoin:round;stroke-miterlimit:4;stroke-dasharray:none;stroke-opacity:1;visibility:visible"/><path d="m415.844 774.678-.122.178" style="fill:none;stroke:red;stroke-width:.999997;stroke-linecap:round;stroke-linejoin:round;stroke-miterlimit:4;stroke-dasharray:none;stroke-opacity:1;visibility:visible"/><path d="M461.948 790.135 415.7 767.813M416.142 793.882l.133.112" style="fill:none;stroke:red;stroke-width:1.99999;stroke-linecap:round;stroke-linejoin:round;stroke-miterlimit:4;stroke-dasharray:none;stroke-opacity:1;visibility:visible"/><path d="m415.258 748.354 3.162-.83M415.556 767.704l-.42-19.172" style="fill:none;stroke:red;stroke-width:.999997;stroke-linecap:round;stroke-linejoin:round;stroke-miterlimit:4;stroke-dasharray:none;stroke-opacity:1;visibility:visible"/><path d="m461.604 767.89-43.184-20.365" style="fill:none;stroke:red;stroke-width:1.99999;stroke-linecap:round;stroke-linejoin:round;stroke-miterlimit:4;stroke-dasharray:none;stroke-opacity:1;visibility:visible"/><path d="m415.258 748.354-.123.178" style="fill:none;stroke:red;stroke-width:.999997;stroke-linecap:round;stroke-linejoin:round;stroke-miterlimit:4;stroke-dasharray:none;stroke-opacity:1;visibility:visible"/><path d="m461.539 763.214-46.436-21.778M415.556 767.704l.144.109" style="fill:none;stroke:red;stroke-width:1.99999;stroke-linecap:round;stroke-linejoin:round;stroke-miterlimit:4;stroke-dasharray:none;stroke-opacity:1;visibility:visible"/><path d="m414.672 721.821 3.162-.797M414.97 741.324l-.431-19.326" style="fill:none;stroke:red;stroke-width:.999997;stroke-linecap:round;stroke-linejoin:round;stroke-miterlimit:4;stroke-dasharray:none;stroke-opacity:1;visibility:visible"/><path d="m461.186 740.858-43.352-19.834" style="fill:none;stroke:red;stroke-width:1.99999;stroke-linecap:round;stroke-linejoin:round;stroke-miterlimit:4;stroke-dasharray:none;stroke-opacity:1;visibility:visible"/><path d="m414.672 721.821-.132.177" style="fill:none;stroke:red;stroke-width:.999997;stroke-linecap:round;stroke-linejoin:round;stroke-miterlimit:4;stroke-dasharray:none;stroke-opacity:1;visibility:visible"/><path d="m461.106 736.07-46.59-21.216M414.97 741.324l.133.11" style="fill:none;stroke:red;stroke-width:1.99999;stroke-linecap:round;stroke-linejoin:round;stroke-miterlimit:4;stroke-dasharray:none;stroke-opacity:1;visibility:visible"/><path d="m414.075 695.076 3.184-.774M414.384 714.734l-.441-19.47" style="fill:none;stroke:red;stroke-width:.999997;stroke-linecap:round;stroke-linejoin:round;stroke-miterlimit:4;stroke-dasharray:none;stroke-opacity:1;visibility:visible"/><path d="m460.764 713.628-43.506-19.326" style="fill:none;stroke:red;stroke-width:1.99999;stroke-linecap:round;stroke-linejoin:round;stroke-miterlimit:4;stroke-dasharray:none;stroke-opacity:1;visibility:visible"/><path d="m414.075 695.076-.132.188" style="fill:none;stroke:red;stroke-width:.999997;stroke-linecap:round;stroke-linejoin:round;stroke-miterlimit:4;stroke-dasharray:none;stroke-opacity:1;visibility:visible"/><path d="m414.384 714.734.134.122" style="fill:none;stroke:red;stroke-width:1.99999;stroke-linecap:round;stroke-linejoin:round;stroke-miterlimit:4;stroke-dasharray:none;stroke-opacity:1;visibility:visible"/><path d="m473.572 636.003 3.144 352.356" style="fill:none;stroke:red;stroke-width:.666665;stroke-linecap:round;stroke-linejoin:round;stroke-miterlimit:4;stroke-dasharray:none;stroke-opacity:1;visibility:visible"/><path d="M429.256 657.25a.2.2 0 0 0 .196.126M429.202 656.88a.813.813 0 0 0 .054.37M470.899 628.364l.085 6.055M468.34 628.401l.085 5.996M470.484 627.832l.35.378M468.736 627.857l-.34.387M470.83 628.533a.24.24 0 0 0 .07-.17.217.217 0 0 0-.065-.151M468.396 628.244a.237.237 0 0 0 .014.321M468.412 628.568a.98.98 0 0 0 .38.228M468.793 628.796a2.565 2.565 0 0 0 1.66-.026M470.452 628.77a.947.947 0 0 0 .378-.238M470.479 627.825a.687.687 0 0 0-.276-.162M470.203 627.664a1.848 1.848 0 0 0-1.19.015M469.015 627.677a.67.67 0 0 0-.272.174" style="fill:none;stroke:red;stroke-width:.666665;stroke-linecap:round;stroke-linejoin:round;stroke-miterlimit:2;stroke-dasharray:none;stroke-opacity:1;visibility:visible"/><path d="m469.633 629.236.078 5.27" style="fill:none;stroke:red;stroke-width:.666665;stroke-linecap:round;stroke-linejoin:round;stroke-miterlimit:4;stroke-dasharray:none;stroke-opacity:1;visibility:visible"/><path d="M473.479 626.676a.67.67 0 0 0-.272.173M475.36 627.363l.087 6.054M472.803 627.399l.085 5.996M474.948 626.83l.35.38M473.199 626.856l-.34.387M475.295 627.532a.235.235 0 0 0 .004-.323M472.859 627.243a.237.237 0 0 0 .013.32M472.876 627.567a.984.984 0 0 0 .379.228M473.255 627.795c.27.084.552.128.834.124a2.54 2.54 0 0 0 .827-.151M474.916 627.77a.95.95 0 0 0 .377-.239M474.943 626.824a.687.687 0 0 0-.276-.164" style="fill:none;stroke:red;stroke-width:.666665;stroke-linecap:round;stroke-linejoin:round;stroke-miterlimit:2;stroke-dasharray:none;stroke-opacity:1;visibility:visible"/><path d="M474.665 626.663a1.848 1.848 0 0 0-1.189.014" style="fill:none;stroke:red;stroke-width:.666665;stroke-linecap:round;stroke-linejoin:round;stroke-miterlimit:2;stroke-dasharray:none;stroke-opacity:1;visibility:visible"/><path d="m474.096 628.235.077 5.27" style="fill:none;stroke:red;stroke-width:.666665;stroke-linecap:round;stroke-linejoin:round;stroke-miterlimit:4;stroke-dasharray:none;stroke-opacity:1;visibility:visible"/><path d="m454.795 945.782-.72-4.258M423.416 952.99l-.044-1.647M425.11 955.323l.85-4.797M459.548 635.683l4.367-1.007M448.927 942.482l15.575 11.781M464.39 947.32l-16.775-2.592M465.031 989.264l2.755-7.064M468.425 634.397l-4.897 2.89M468.425 634.397l-5.703 12.187M463.528 637.287l-.806 9.298M467.335 633.89l-2.558 1.473M459.548 635.682l5.229-.319" style="fill:none;stroke:red;stroke-width:.999997;stroke-linecap:round;stroke-linejoin:round;stroke-miterlimit:4;stroke-dasharray:none;stroke-opacity:1;visibility:visible"/><path d="m465.03 989.266-.241-16.474" style="fill:none;stroke:red;stroke-width:1.99999;stroke-linecap:round;stroke-linejoin:round;stroke-miterlimit:4;stroke-dasharray:none;stroke-opacity:1;visibility:visible"/><path d="m447.37 809.411 14.7-12.024" style="fill:none;stroke:red;stroke-width:.999997;stroke-linecap:round;stroke-linejoin:round;stroke-miterlimit:4;stroke-dasharray:none;stroke-opacity:1;visibility:visible"/><path d="m454.075 941.524.72 4.258M449.71 942.918l9.452 1.469M423.416 952.99l1.694 2.333M423.372 951.343l7.642 2.079" style="fill:none;stroke:red;stroke-width:1.99999;stroke-linecap:round;stroke-linejoin:round;stroke-miterlimit:4;stroke-dasharray:none;stroke-opacity:1;visibility:visible"/><path d="m425.96 950.526-17.868 7.374" style="fill:none;stroke:red;stroke-width:.999997;stroke-linecap:round;stroke-linejoin:round;stroke-miterlimit:4;stroke-dasharray:none;stroke-opacity:1;visibility:visible"/><path d="m416.142 793.882 3.848 1.96M419.559 946.822l3.769 2.188M459.548 635.683l.278 17.647" style="fill:none;stroke:red;stroke-width:1.99999;stroke-linecap:round;stroke-linejoin:round;stroke-miterlimit:4;stroke-dasharray:none;stroke-opacity:1;visibility:visible"/><path d="m449.71 942.918 1.59-2.952M454.075 941.524l-5.56-.666" style="fill:none;stroke:red;stroke-width:.999997;stroke-linecap:round;stroke-linejoin:round;stroke-miterlimit:4;stroke-dasharray:none;stroke-opacity:1;visibility:visible"/><path d="m473.255 627.795 3.058 4.273M467.786 982.2l16.561 4.047" style="fill:none;stroke:red;stroke-width:1.99999;stroke-linecap:round;stroke-linejoin:round;stroke-miterlimit:4;stroke-dasharray:none;stroke-opacity:1;visibility:visible"/><path d="m418.995 921.813.154 6.843" style="fill:none;stroke:red;stroke-width:.999997;stroke-linecap:round;stroke-linejoin:round;stroke-miterlimit:4;stroke-dasharray:none;stroke-opacity:1;visibility:visible"/><path d="m447.615 944.728 16.843 6.504M448.927 942.482l15.463 4.838M447.37 809.411l15.064 11.891M462.07 797.387l-14.7 12.024M419.559 799.942l9.419.352" style="fill:none;stroke:red;stroke-width:1.99999;stroke-linecap:round;stroke-linejoin:round;stroke-miterlimit:4;stroke-dasharray:none;stroke-opacity:1;visibility:visible"/><path d="m467.786 982.2 8.93 6.159M473.572 636.003l-3.861-1.497M473.573 636.002l.6-2.497" style="fill:none;stroke:red;stroke-width:.666665;stroke-linecap:round;stroke-linejoin:round;stroke-miterlimit:4;stroke-dasharray:none;stroke-opacity:1;visibility:visible"/><path d="m560.213 616.132.667 344.507 5.333-1.675V615.768l-6 .364" style="fill:none;fill-opacity:1;fill-rule:nonzero;stroke:#00ff4a;stroke-width:1.33333;visibility:visible" visibility="hidden"/><path d="m546.659 616.633 4.034 1.527 15.557-3.595M547.587 928.943l-47.01-24.91M550.583 954.484v-.19l-.023-.187-.044-.199-.056-.198-.065-.188-.076-.188-.09-.178-.099-.166-.11-.144-.112-.143-.121-.11-.12-.103-.123-.063-.123-.055-.121-.024h-.121l-.111.024-.1.044-.099.066-.077.088-.077.11-.055.134-.045.154-.035.155-.009.177v.188l.009.19.035.197.045.2.064.188.068.188.09.187.085.165.111.155.112.144.11.133.121.1.134.088.121.057.121.043.123.01.11-.009.112-.034.098-.055.09-.079.076-.098.066-.123.044-.143.044-.154.023-.166v-.188M550.693 618.159l.83 345.38M549.755 627.247v.198l-.025.188-.043.178-.055.166-.067.143-.075.133-.1.099-.1.09-.11.053-.123.034-.132.012-.122-.021-.133-.045-.133-.067-.122-.1-.12-.11-.123-.132-.11-.156-.101-.175-.084-.178-.081-.2-.055-.197-.054-.212-.034-.21-.01-.209v-.2l.01-.198.034-.178.043-.177.066-.153.08-.133.075-.122.101-.09.11-.074.121-.047.122-.022.122.012.133.033.132.055.133.078.122.099.121.133.11.143.112.156.087.175.088.2.067.198.055.199.033.21.035.212v.209M561.916 614.644l-.012.055-.032.044-.068.054-.088.044-.1.046-.132.043-.144.034-.155.023-.177.02-.176.013-.177.01h-.188l-.178-.011-.176-.02-.166-.024-.154-.035-.132-.03-.121-.045-.091-.044-.077-.044-.055-.057-.022-.055v-.045" style="fill:none;stroke:#00ff4a;stroke-width:.999997;stroke-linecap:round;stroke-linejoin:round;stroke-miterlimit:4;stroke-dasharray:none;stroke-opacity:1;visibility:visible" visibility="hidden"/><path d="m551.71 616.324.135-.024.142-.02.153-.01h.312l.155.01.153.01.135.024.12.033.101.032.087.044.056.044.034.045.01.044-.023.056-.033.044-.064.044-.09.033-.11.034-.123.032-.143.021-.154.011-.156.014h-.31l-.154-.025-.144-.02-.132-.023-.11-.033-.09-.044-.065-.035-.055-.042-.023-.055.012-.045.02-.044.056-.044.077-.045.099-.033.122-.033M557.781 615.595l-.01.054-.044.055-.057.044-.087.056-.111.045-.123.031-.153.036-.156.033-.167.021-.176.01h-.376l-.177-.01-.176-.01-.165-.024-.144-.032-.144-.034-.111-.045-.099-.042-.078-.055-.044-.045-.034-.055" style="fill:none;stroke:#00ff4a;stroke-width:.999997;stroke-linecap:round;stroke-linejoin:round;stroke-miterlimit:4;stroke-dasharray:none;stroke-opacity:1;visibility:visible" visibility="hidden"/><path d="m500.699 903.858 46.888 24.832" style="fill:none;stroke:#00ff4a;stroke-width:.666665;stroke-linecap:round;stroke-linejoin:round;stroke-miterlimit:4;stroke-dasharray:none;stroke-opacity:1;visibility:visible" visibility="hidden"/><path d="m500.512 897.334 47.053 24.776M547.51 903.825l-47.174-24.423" style="fill:none;stroke:#00ff4a;stroke-width:.999997;stroke-linecap:round;stroke-linejoin:round;stroke-miterlimit:4;stroke-dasharray:none;stroke-opacity:1;visibility:visible" visibility="hidden"/><path d="m500.455 879.225 47.055 24.357" style="fill:none;stroke:#00ff4a;stroke-width:.666665;stroke-linecap:round;stroke-linejoin:round;stroke-miterlimit:4;stroke-dasharray:none;stroke-opacity:1;visibility:visible" visibility="hidden"/><path d="m500.267 872.657 47.22 24.278M547.432 878.517l-47.353-23.927" style="fill:none;stroke:#00ff4a;stroke-width:.999997;stroke-linecap:round;stroke-linejoin:round;stroke-miterlimit:4;stroke-dasharray:none;stroke-opacity:1;visibility:visible" visibility="hidden"/><path d="m500.201 854.414 47.231 23.86" style="fill:none;stroke:#00ff4a;stroke-width:.666665;stroke-linecap:round;stroke-linejoin:round;stroke-miterlimit:4;stroke-dasharray:none;stroke-opacity:1;visibility:visible" visibility="hidden"/><path d="m500.012 847.793 47.398 23.793M547.355 853.022l-47.519-23.428" style="fill:none;stroke:#00ff4a;stroke-width:.999997;stroke-linecap:round;stroke-linejoin:round;stroke-miterlimit:4;stroke-dasharray:none;stroke-opacity:1;visibility:visible" visibility="hidden"/><path d="m499.959 829.406 47.396 23.372" style="fill:none;stroke:#00ff4a;stroke-width:.666665;stroke-linecap:round;stroke-linejoin:round;stroke-miterlimit:4;stroke-dasharray:none;stroke-opacity:1;visibility:visible" visibility="hidden"/><path d="m499.77 822.74 47.562 23.293M547.277 827.329l-47.694-22.93" style="fill:none;stroke:#00ff4a;stroke-width:.999997;stroke-linecap:round;stroke-linejoin:round;stroke-miterlimit:4;stroke-dasharray:none;stroke-opacity:1;visibility:visible" visibility="hidden"/><path d="m499.703 804.22 47.574 22.864" style="fill:none;stroke:#00ff4a;stroke-width:.666665;stroke-linecap:round;stroke-linejoin:round;stroke-miterlimit:4;stroke-dasharray:none;stroke-opacity:1;visibility:visible" visibility="hidden"/><path d="m499.516 797.497 47.74 22.786M547.2 801.435l-47.872-22.411" style="fill:none;stroke:#00ff4a;stroke-width:.999997;stroke-linecap:round;stroke-linejoin:round;stroke-miterlimit:4;stroke-dasharray:none;stroke-opacity:1;visibility:visible" visibility="hidden"/><path d="m499.45 778.846 47.75 22.345" style="fill:none;stroke:#00ff4a;stroke-width:.666665;stroke-linecap:round;stroke-linejoin:round;stroke-miterlimit:4;stroke-dasharray:none;stroke-opacity:1;visibility:visible" visibility="hidden"/><path d="m499.261 772.07 47.919 22.265M547.123 775.342l-48.05-21.878" style="fill:none;stroke:#00ff4a;stroke-width:.999997;stroke-linecap:round;stroke-linejoin:round;stroke-miterlimit:4;stroke-dasharray:none;stroke-opacity:1;visibility:visible" visibility="hidden"/><path d="M499.195 753.274 547.12 775.1" style="fill:none;stroke:#00ff4a;stroke-width:.666665;stroke-linecap:round;stroke-linejoin:round;stroke-miterlimit:4;stroke-dasharray:none;stroke-opacity:1;visibility:visible" visibility="hidden"/><path d="m498.996 746.454 48.104 21.738M547.045 749.052l-48.237-21.348" style="fill:none;stroke:#00ff4a;stroke-width:.999997;stroke-linecap:round;stroke-linejoin:round;stroke-miterlimit:4;stroke-dasharray:none;stroke-opacity:1;visibility:visible" visibility="hidden"/><path d="m498.94 727.514 48.105 21.294" style="fill:none;stroke:#00ff4a;stroke-width:.666665;stroke-linecap:round;stroke-linejoin:round;stroke-miterlimit:4;stroke-dasharray:none;stroke-opacity:1;visibility:visible" visibility="hidden"/><path d="m498.741 720.637 48.283 21.207M546.967 722.549l-48.415-20.807" style="fill:none;stroke:#00ff4a;stroke-width:.999997;stroke-linecap:round;stroke-linejoin:round;stroke-miterlimit:4;stroke-dasharray:none;stroke-opacity:1;visibility:visible" visibility="hidden"/><path d="m498.676 701.565 48.292 20.752" style="fill:none;stroke:#00ff4a;stroke-width:.666665;stroke-linecap:round;stroke-linejoin:round;stroke-miterlimit:4;stroke-dasharray:none;stroke-opacity:1;visibility:visible" visibility="hidden"/><path d="m498.475 694.622 48.472 20.664M546.89 695.85l-48.601-20.267" style="fill:none;stroke:#00ff4a;stroke-width:.999997;stroke-linecap:round;stroke-linejoin:round;stroke-miterlimit:4;stroke-dasharray:none;stroke-opacity:1;visibility:visible" visibility="hidden"/><path d="m546.813 668.94-48.79-19.701M498.42 675.406l48.47 20.2" style="fill:none;stroke:#00ff4a;stroke-width:.666665;stroke-linecap:round;stroke-linejoin:round;stroke-miterlimit:4;stroke-dasharray:none;stroke-opacity:1;visibility:visible" visibility="hidden"/><path d="m498.223 668.42 48.645 20.11" style="fill:none;stroke:#00ff4a;stroke-width:.999997;stroke-linecap:round;stroke-linejoin:round;stroke-miterlimit:4;stroke-dasharray:none;stroke-opacity:1;visibility:visible" visibility="hidden"/><path d="m498.156 649.05 48.657 19.645" style="fill:none;stroke:#00ff4a;stroke-width:.666665;stroke-linecap:round;stroke-linejoin:round;stroke-miterlimit:4;stroke-dasharray:none;stroke-opacity:1;visibility:visible" visibility="hidden"/><path d="m497.957 642.005 48.835 19.56M546.725 641.808l-48.968-19.128" style="fill:none;stroke:#00ff4a;stroke-width:.999997;stroke-linecap:round;stroke-linejoin:round;stroke-miterlimit:4;stroke-dasharray:none;stroke-opacity:1;visibility:visible" visibility="hidden"/><path d="m497.89 622.492 48.836 19.084" style="fill:none;stroke:#00ff4a;stroke-width:.666665;stroke-linecap:round;stroke-linejoin:round;stroke-miterlimit:4;stroke-dasharray:none;stroke-opacity:1;visibility:visible" visibility="hidden"/><path d="m497.692 615.395 49.012 18.982M550.196 615.815l-52.704-19.902" style="fill:none;stroke:#00ff4a;stroke-width:.999997;stroke-linecap:round;stroke-linejoin:round;stroke-miterlimit:4;stroke-dasharray:none;stroke-opacity:1;visibility:visible" visibility="hidden"/><path d="m497.615 595.737 52.969 19.99" style="fill:none;stroke:#00ff4a;stroke-width:.666665;stroke-linecap:round;stroke-linejoin:round;stroke-miterlimit:4;stroke-dasharray:none;stroke-opacity:1;visibility:visible" visibility="hidden"/><path d="m309.906 936.947-.376-9.695-7.54-4.5M343.25 924.854l-.024-.774-.099-2.753M343.128 921.326l113.038 66.004M483.672 932.062l2.643-.852M530.417 917.102l4.71-1.503M504.324 925.45l1.924-.62M483.652 929.751l54.892 30.039M611.612 927.12l-.143-.078-.109-.088-.1-.088-.079-.09-.043-.098-.034-.088v-.1l.022-.1.044-.087.067-.099.088-.089.11-.077.132-.079.157-.077.165-.067.188-.055.199-.044.21-.044.219-.032.223-.024.232-.01h.466l.231.022.221.022.222.045.198.045.198.054.177.056.167.065.156.077.12.08.11.086.09.089.066.1.032.088.024.1-.012.099-.033.088-.056.098-.076.09-.1.088-.121.078-.146.076-.164.068-.178.066-.188.056-.208.044-.212.033-.222.033-.23.011-.232.012h-.234l-.232-.023-.233-.022-.221-.022-.208-.044-.199-.056-.188-.054-.177-.067-.156-.067M566.295 907.462l50.769 26.125M432.715 1004.81l-.099-.044-.11-.034h-.09l-.1.023-.076.044-.077.065-.056.088-.055.112-.032.134-.024.142-.01.156.01.166.024.166.032.176.055.178.056.164.077.166.076.155.09.132.1.133.1.1.109.088.1.055.099.044.1.011h.1l.089-.032.076-.068.067-.075.056-.1.044-.121.02-.134.024-.142v-.168l-.012-.164-.032-.176-.044-.178-.056-.166-.067-.166-.077-.165-.087-.145-.09-.132-.101-.111-.108-.099-.101-.078M639.882 933.343l.123-.043.11-.056.09-.066.053-.068.044-.066.023-.064-.012-.068-.02-.077-.056-.068-.077-.064-.088-.055-.11-.057-.135-.045-.142-.044-.157-.03-.166-.015-.165-.021h-.176l-.167.011-.166.024-.154.02-.144.035-.133.044-.11.054-.09.056-.076.067-.055.065-.033.068v.064l.01.08.046.066.055.065.088.067.11.056.122.044.133.044.153.033.156.032.166.012.165.01h.177l.166-.021.156-.022.153-.023.133-.044M636.134 934.603l.122-.043.11-.056.088-.068.056-.064.044-.065.022-.067-.01-.08-.023-.064-.055-.066-.078-.067-.088-.055-.11-.056-.132-.044-.144-.044-.156-.033-.167-.021-.163-.012h-.177l-.167.012-.166.008-.155.036-.144.032-.133.044-.11.054-.1.056-.066.056-.055.076-.032.068-.012.066.023.077.032.065.066.068.088.055.1.069.122.043.145.043.143.033.165.033.167.011.165.01h.165l.178-.019.154-.024.156-.022.132-.045M632.233 935.787l.11-.044.087-.043.08-.056.042-.056.034-.066v-.067l-.012-.055-.044-.066-.065-.056-.079-.055-.098-.043-.123-.045-.13-.035-.135-.02-.154-.025h-.298l-.155.013-.133.023-.132.032-.123.044-.099.044-.078.056-.066.055-.032.056-.022.066.01.067.022.055.057.066.064.056.1.043.112.044.121.045.132.023.144.021.155.011h.297l.146-.021.142-.024.123-.043M428.338 998.286l8.624 5.164M645.31 933.334l-208.35 70.116M436.962 1003.45l.197 10.249M399.67 608.33l-3.727-1.504M405.572 616.953l.088-.032.09-.056.076-.065.066-.091.044-.098.024-.111.009-.11-.009-.1-.034-.09-.056-.075-.066-.068-.078-.033-.088-.021-.09.01-.088.034-.076.053-.077.07-.067.087-.044.1-.033.11v.11l.01.1.036.088.043.078.066.066.077.034.09.022.086-.012M413.256 947.252l.087-.01h.079l.078.032.064.045.046.067.033.077.01.099-.009.09-.024.098-.042.1-.058.086-.074.08-.079.054-.088.033-.09.024-.076-.013-.078-.02-.053-.055-.058-.068-.032-.079-.012-.086.012-.1.022-.099.044-.1.068-.087.064-.069.089-.055.077-.044M405.683 644.639l-.01.231-.023.233-.044.244-.076.232-.08.22-.109.223-.121.208-.144.187-.154.178-.167.165-.177.144-.188.121-.187.1-.199.079-.2.043-.2.033h-.197l-.2-.02-.188-.047-.177-.076-.166-.09-.153-.119-.133-.144-.132-.156-.102-.178-.088-.186-.066-.21-.055-.211-.021-.231-.012-.232.021-.232.035-.233.054-.232.076-.234.102-.219.12-.222.133-.198.144-.19.156-.164.176-.156.187-.132.189-.11.188-.091.21-.064.201-.034.195-.009.189.009.198.034.178.054.177.09.155.1.156.132.12.154.122.167.099.177.079.198.054.21.034.22.021.235M408.988 786.266l-.01.221-.022.233-.045.22-.065.234-.09.22-.098.21-.123.21-.143.19-.144.174-.166.167-.176.142-.176.123-.19.11-.198.077-.199.056-.188.045-.2.01-.187-.023-.188-.032-.166-.065-.166-.081-.154-.107-.134-.124-.122-.142-.099-.166-.088-.188-.065-.187-.044-.213-.035-.21v-.219l.01-.234.035-.22.064-.234.068-.22.099-.221.11-.209.135-.197.142-.191.157-.164.164-.157.188-.132.177-.122.199-.088.188-.077.199-.045.198-.022h.188l.188.023.178.055.166.078.166.088.144.122.12.133.112.153.098.18.08.186.054.2.032.21.022.22M412.162 922.211l-.012.221-.02.222-.046.22-.064.21-.091.219-.097.213-.122.198-.134.198-.144.18-.166.152-.166.155-.177.121-.187.114-.188.085-.188.068-.2.044-.188.021-.176-.01-.188-.022-.165-.056-.167-.076-.142-.088-.134-.124-.12-.13-.101-.156-.09-.167-.054-.187-.056-.2-.02-.2v-.206l.01-.223.035-.221.054-.22.077-.221.1-.212.099-.209.133-.2.143-.186.154-.168.167-.153.165-.144.188-.111.188-.1.188-.077.2-.055.188-.035h.187l.177.012.178.044.165.055.156.09.143.109.121.124.11.14.09.169.075.177.057.186.032.199.023.21M408.092 957.9l-8.422-349.573M415.844 604.803l-16.174 3.526M309.529 927.252l31.486-8.06M399.856 901.347l-58.84 17.844M341.35 928.822l-.334-9.63" style="fill:none;stroke:#00ff4a;stroke-width:.999997;stroke-linecap:round;stroke-linejoin:round;stroke-miterlimit:4;stroke-dasharray:none;stroke-opacity:1;visibility:visible" visibility="hidden"/><path d="m305.893 928.734.097.065.091.077.088.111.077.121.076.134.078.142.055.156.056.166.044.166.023.156.021.164v.156l-.012.132-.02.132-.034.122-.044.088-.067.078-.065.067-.067.033-.09.011-.074-.011-.101-.033-.087-.056-.089-.077-.09-.088-.088-.122-.078-.122-.076-.143-.067-.156-.056-.155-.044-.165-.033-.165-.022-.155-.01-.155v-.154l.02-.134.025-.124.043-.109.054-.087.055-.066.078-.044.078-.024h.077l.09.024.088.044M574.443 566.428l-.056.044-.078.044-.099.045-.11.032-.131.034-.146.022-.154.023-.165.01-.179.01h-.177l-.165-.011-.167-.009-.164-.022-.144-.023-.132-.034-.112-.032M486.901 585.057l-.1-.044-.077-.045-.044-.044-.032-.056M489.124 584.708l.023.017.032.043.011.045v.055l-.043.044-.057.055-.077.046-.11.044-.123.033-.13.034-.157.021-.166.023-.177.01-.177.012h-.353l-.167-.022-.153-.023-.156-.021-.132-.035-.11-.032M408.723 600.967l3.361 1.326M412.084 602.295l166.283-36.078M403.439 603.355l-.044.044-.077.056-.088.042-.123.046-.133.033-.144.033-.164.035-.178.01-.177.021h-.364l-.177-.01-.178-.011-.154-.022-.143-.032-.133-.035-.112-.044-.078-.044-.065-.044-.044-.053M412.084 602.295l-15.898 3.449M396.186 605.743l-.454-.023M397.247 603.996l.133-.03.154-.026.156-.009h.33l.155.009.155.012.133.023.133.021.099.033.088.046.067.044.044.044.012.044v.043l-.034.046-.054.044-.09.044-.1.044-.108.033-.144.034-.145.022-.155.01-.154.012h-.332l-.155-.012-.144-.022-.132-.022-.11-.033-.101-.034-.078-.044-.054-.044-.034-.043v-.044l.022-.045.044-.056.067-.044.088-.032.11-.044.135-.024M393.444 618.723v-.2l.023-.186.021-.178.056-.167.056-.143.066-.122.088-.11.089-.077.099-.056.11-.044h.111l.123.01.12.046.121.067.112.097.12.111.101.133.111.156.088.164.087.176.078.2.056.2.043.21.035.2.021.208.012.199-.012.2-.021.188-.046.166-.054.154-.056.135-.076.119-.09.09-.1.078-.11.043-.111.02-.11-.008-.121-.034-.124-.056-.118-.077-.112-.1-.11-.12-.11-.145-.102-.166-.088-.177-.077-.187-.065-.188-.056-.21-.046-.211-.02-.199-.012-.21M401.492 940.586l.012.188.022.198.044.19.057.197.055.188.076.188.089.177.088.155.11.155.101.132.109.112.121.098.112.066.11.044.112.034h.109l.1-.022.1-.044.077-.078.078-.088.066-.112.044-.13.034-.146.032-.164v-.354l-.022-.187-.033-.201-.045-.187-.055-.2-.065-.188-.09-.177-.088-.164-.098-.167-.1-.133-.112-.12-.11-.112-.122-.078-.11-.065-.112-.033-.108-.012-.101.012-.099.032-.086.056-.08.078-.066.1-.068.121-.044.143-.02.154-.024.166v.178M395.732 605.721l-3.338-1.338M409.796 921.326l.144-.033.144-.011.132.01.132.035.112.053.11.09.088.088.078.121.055.134.044.142.012.156v.155l-.023.167-.033.164-.065.166-.076.155-.091.154-.11.135-.121.12-.133.11-.133.077-.143.068-.145.044-.144.023h-.132l-.132-.024-.134-.043-.11-.067-.099-.088-.079-.11-.064-.122-.056-.145-.022-.143-.012-.154.011-.167.035-.164.044-.167.076-.167.078-.143.1-.145.121-.131.123-.122.13-.087.146-.079.142-.055M413.112 947.33l-.021.088-.033.09-.044.074-.055.078-.067.056M406.568 785.304l.155-.034h.144l.132.01.133.047.123.066.11.09.09.108.075.121.066.146.034.142.02.166v.166l-.02.166-.044.176-.067.166-.079.156-.088.154-.109.132-.123.123-.133.11-.143.078-.142.067-.146.042-.142.011-.144-.01-.143-.033-.123-.045-.11-.077-.111-.101-.076-.12-.068-.121-.055-.154-.034-.156v-.167l.013-.165.032-.176.044-.168.077-.166.079-.153.11-.143.109-.122.136-.122.132-.088.142-.076.144-.046M403.218 643.588l.144-.024.154.01.132.026.146.053.12.068.11.099.09.12.076.132.066.145.044.155.011.176v.165l-.02.179-.045.176-.056.177-.088.155-.088.155-.11.132-.133.122-.133.111-.143.077-.144.055-.156.033-.143.01-.144-.009-.144-.045-.132-.054-.109-.09-.112-.112-.09-.118-.064-.144-.045-.156-.032-.155-.011-.176.009-.179.034-.176.055-.166.065-.178.088-.153.112-.144.11-.132.134-.112.144-.088.143-.065.155-.055M405.175 616.655l.079-.067.064-.088.045-.1.033-.1.011-.11-.01-.11M570.065 635.75l-.19.055-.175.075-.19.103-.162.12-.168.144-.165.153-.145.18-.131.187-.123.21-.099.21-.09.22-.075.221-.045.232-.034.232-.021.232.01.223.021.22.045.211.056.199.09.188.086.178.111.142.133.145.144.111.144.099.167.064.164.055.176.024.189.01.188-.021.188-.044.176-.068.19-.1.174-.109.167-.131.166-.145.156-.166.13-.186.135-.203.109-.196.101-.221.077-.223.055-.23.044-.235.024-.229.01-.223-.011-.22-.034-.223-.053-.197-.07-.2-.087-.178-.11-.165-.122-.144-.132-.123-.144-.11-.155-.077-.165-.065-.178-.045-.177-.01-.188.011-.187.033M569.987 835.334l-.178.066-.177.087-.176.111-.166.121-.165.144-.155.167-.143.165-.134.188-.112.199-.098.21-.088.223-.067.209-.055.219-.033.222-.011.222v.209l.032.212.034.187.065.188.08.167.087.153.11.144.123.123.132.099.155.077.153.056.167.032.177.023.176-.012.18-.032.175-.055.188-.079.177-.098.165-.111.167-.133.155-.155.153-.167.133-.185.123-.191.11-.208.099-.211.066-.21.068-.221.044-.222.02-.221v-.21l-.007-.209-.036-.2-.055-.2-.068-.174-.076-.156-.11-.154-.111-.122-.132-.111-.144-.099-.144-.066-.167-.045-.165-.022-.178-.012-.175.024-.188.044M568.87 577.693l.086-.021.08-.055.067-.067.054-.089.044-.088.023-.098.01-.111-.011-.09-.023-.086-.043-.079-.054-.066-.067-.034-.079-.009h-.087l-.078.032-.077.044-.066.065-.068.09-.044.099-.021.099-.01.101.009.1.022.086.044.079.069.054.065.034.077.024.077-.014M412.106 603.31l-.023-1.016" style="fill:none;stroke:#00ff4a;stroke-width:.999997;stroke-linecap:round;stroke-linejoin:round;stroke-miterlimit:4;stroke-dasharray:none;stroke-opacity:1;visibility:visible" visibility="hidden"/><path d="m572.265 566.561-.098-.044-.08-.044-.053-.045M569.844 837.19l-.044-.023-.055-.033-.045-.044-.044-.055-.033-.045-.034-.055-.054-.133-.035-.121-.032-.122-.033-.142-.012-.147-.023-.153v-.078l-.009-.076v-.32M568.252 638.401l.143-.164.122-.177.123-.187.099-.201.089-.197.064-.212.056-.22.045-.213.022-.22.01-.21M569.876 635.804l.056.021.055.025.056.021.054.033.067.044.055.045.066.044.055.055.112.098.098.113.089.132.089.132.065.133.047.132.019.145.013.133v.133l-.023.133-.045.12-.055.121-.076.113-.078.086-.1.088-.099.056-.066.033-.055.023-.066.021h-.057l-.067.01-.054-.01h-.056l-.055-.021M569.92 638.016l-.067-.033-.066-.046-.057-.054-.054-.078-.044-.065-.033-.088-.032-.079-.023-.098-.021-.08-.023-.097-.01-.088-.012-.1-.011-.1-.012-.099v-.101l-.01-.1v-.2l.01-.098v-.088l.012-.101.012-.086.01-.08.021-.074M485.739 590.519l-3.792-1.439M491.245 598.977l.087-.022.079-.056.078-.064.055-.09.044-.1.033-.1v-.109l-.011-.1-.02-.09-.058-.074-.055-.056-.077-.045-.077-.012h-.09l-.088.033-.077.055-.067.066-.065.09-.045.097-.022.101-.012.112.013.099.021.088.056.079.053.054.08.044.077.011.088-.01M491.025 626.041v.232l-.033.222-.044.232-.065.232-.09.22-.098.213-.123.196-.132.19-.156.176-.154.156-.166.142-.177.11-.187.101-.188.077-.19.044-.197.023h-.189l-.176-.023-.177-.044-.166-.067-.156-.1-.154-.11-.122-.143-.12-.155-.101-.165-.077-.188-.066-.21-.044-.212-.024-.221v-.221l.024-.232.031-.232.057-.221.076-.233.1-.207.111-.213.121-.2.144-.174.156-.167.167-.156.175-.121.177-.11.188-.09.187-.052.201-.047.187-.01.177.011.19.046.162.053.168.078.153.109.135.123.12.154.111.167.088.176.078.201.046.199.03.219.012.223M492.55 764.562l-.01.222-.023.22-.045.223-.064.221-.09.22-.099.21-.11.2-.134.187-.155.177-.153.154-.167.144-.177.11-.178.113-.185.075-.18.056-.188.034-.187.012-.177-.023-.176-.033-.167-.067-.142-.077-.144-.111-.132-.123-.112-.142-.1-.166-.076-.177-.067-.187-.032-.201-.023-.208-.012-.221.023-.222.033-.221.055-.221.079-.222.088-.21.11-.21.131-.186.133-.178.156-.166.167-.155.164-.133.176-.111.188-.089.177-.066.188-.044.188-.022h.189l.166.032.177.045.155.077.155.09.133.12.12.135.1.154.088.165.068.19.055.188.033.208.01.21M494.01 897.677v.21l-.032.21-.046.221-.065.211-.078.209-.099.21-.11.199-.135.189-.142.166-.154.165-.166.146-.167.117-.176.104-.177.085-.188.068-.178.034-.187.019-.178-.008-.165-.025-.155-.054-.155-.078-.142-.085-.125-.123-.11-.133-.099-.144-.076-.165-.055-.188-.045-.19-.022-.197v-.211l.01-.221.044-.21.058-.223.065-.209.1-.208.099-.198.121-.201.144-.179.144-.165.155-.155.177-.132.165-.11.188-.091.178-.075.188-.057.176-.02.177-.011.176.021.167.035.153.064.145.088.132.1.122.133.1.135.09.164.065.176.055.177.023.2.01.21M489.743 932.603 485.74 590.52M501.119 587.157l-15.379 3.363M568.505 577.363l.056-.079.044-.076.035-.09.019-.098v-.088M568.284 837.4l.133-.153.11-.178.113-.189.087-.198.077-.19.065-.206.047-.201" style="fill:none;stroke:#00ff4a;stroke-width:.999997;stroke-linecap:round;stroke-linejoin:round;stroke-miterlimit:4;stroke-dasharray:none;stroke-opacity:1;visibility:visible" visibility="hidden"/><path d="m570.13 835.3.1.086.1.101.1.1.086.111.069.11.066.11.056.122.032.131.024.112.009.11v.11l-.022.111-.022.099-.044.101-.055.088-.056.077-.077.078-.077.053-.08.057-.097.034-.099.033h-.111l-.099-.012-.09-.032M490.857 598.668l.067-.067.057-.076.031-.089.035-.088.01-.1-.011-.088" style="fill:none;stroke:#00ff4a;stroke-width:.999997;stroke-linecap:round;stroke-linejoin:round;stroke-miterlimit:4;stroke-dasharray:none;stroke-opacity:1;visibility:visible" visibility="hidden"/><path d="m566.25 614.565-3.696-1.377M554.335 614.863l-7.676 1.77" style="fill:none;stroke:#00ff4a;stroke-width:1.99999;stroke-linecap:round;stroke-linejoin:round;stroke-miterlimit:4;stroke-dasharray:none;stroke-opacity:1;visibility:visible" visibility="hidden"/><path d="m547.676 961.448 3.848 2.09" style="fill:none;stroke:#00ff4a;stroke-width:.999997;stroke-linecap:round;stroke-linejoin:round;stroke-miterlimit:4;stroke-dasharray:none;stroke-opacity:1;visibility:visible" visibility="hidden"/><path d="m547.643 947.12-46.767-25.174M566.25 614.565l.054 344.007M546.659 616.633l1.017 344.815" style="fill:none;stroke:#00ff4a;stroke-width:1.99999;stroke-linecap:round;stroke-linejoin:round;stroke-miterlimit:4;stroke-dasharray:none;stroke-opacity:1;visibility:visible" visibility="hidden"/><path d="m500.699 903.858 2.917-.908M500.753 921.846l-.177-17.812" style="fill:none;stroke:#00ff4a;stroke-width:.999997;stroke-linecap:round;stroke-linejoin:round;stroke-miterlimit:4;stroke-dasharray:none;stroke-opacity:1;visibility:visible" visibility="hidden"/><path d="m547.576 926.17-43.959-23.22" style="fill:none;stroke:#00ff4a;stroke-width:1.99999;stroke-linecap:round;stroke-linejoin:round;stroke-miterlimit:4;stroke-dasharray:none;stroke-opacity:1;visibility:visible" visibility="hidden"/><path d="m500.699 903.858-.123.176" style="fill:none;stroke:#00ff4a;stroke-width:.999997;stroke-linecap:round;stroke-linejoin:round;stroke-miterlimit:4;stroke-dasharray:none;stroke-opacity:1;visibility:visible" visibility="hidden"/><path d="m547.565 922.146-46.933-24.7M500.753 921.846l.123.099" style="fill:none;stroke:#00ff4a;stroke-width:1.99999;stroke-linecap:round;stroke-linejoin:round;stroke-miterlimit:4;stroke-dasharray:none;stroke-opacity:1;visibility:visible" visibility="hidden"/><path d="m500.455 879.225 2.93-.898M500.512 897.334l-.177-17.932" style="fill:none;stroke:#00ff4a;stroke-width:.999997;stroke-linecap:round;stroke-linejoin:round;stroke-miterlimit:4;stroke-dasharray:none;stroke-opacity:1;visibility:visible" visibility="hidden"/><path d="m547.499 901.103-44.114-22.776" style="fill:none;stroke:#00ff4a;stroke-width:1.99999;stroke-linecap:round;stroke-linejoin:round;stroke-miterlimit:4;stroke-dasharray:none;stroke-opacity:1;visibility:visible" visibility="hidden"/><path d="m500.455 879.225-.12.177" style="fill:none;stroke:#00ff4a;stroke-width:.999997;stroke-linecap:round;stroke-linejoin:round;stroke-miterlimit:4;stroke-dasharray:none;stroke-opacity:1;visibility:visible" visibility="hidden"/><path d="m547.487 896.98-47.098-24.222M500.512 897.334l.12.11" style="fill:none;stroke:#00ff4a;stroke-width:1.99999;stroke-linecap:round;stroke-linejoin:round;stroke-miterlimit:4;stroke-dasharray:none;stroke-opacity:1;visibility:visible" visibility="hidden"/><path d="m500.201 854.414 2.952-.883M500.267 872.657l-.188-18.067" style="fill:none;stroke:#00ff4a;stroke-width:.999997;stroke-linecap:round;stroke-linejoin:round;stroke-miterlimit:4;stroke-dasharray:none;stroke-opacity:1;visibility:visible" visibility="hidden"/><path d="m547.421 875.854-44.268-22.321" style="fill:none;stroke:#00ff4a;stroke-width:1.99999;stroke-linecap:round;stroke-linejoin:round;stroke-miterlimit:4;stroke-dasharray:none;stroke-opacity:1;visibility:visible" visibility="hidden"/><path d="m500.201 854.414-.121.177" style="fill:none;stroke:#00ff4a;stroke-width:.999997;stroke-linecap:round;stroke-linejoin:round;stroke-miterlimit:4;stroke-dasharray:none;stroke-opacity:1;visibility:visible" visibility="hidden"/><path d="m547.41 871.63-47.278-23.737M500.267 872.657l.122.1" style="fill:none;stroke:#00ff4a;stroke-width:1.99999;stroke-linecap:round;stroke-linejoin:round;stroke-miterlimit:4;stroke-dasharray:none;stroke-opacity:1;visibility:visible" visibility="hidden"/><path d="m499.959 829.406 2.95-.852M500.012 847.793l-.176-18.199" style="fill:none;stroke:#00ff4a;stroke-width:.999997;stroke-linecap:round;stroke-linejoin:round;stroke-miterlimit:4;stroke-dasharray:none;stroke-opacity:1;visibility:visible" visibility="hidden"/><path d="m547.355 850.4-44.446-21.845" style="fill:none;stroke:#00ff4a;stroke-width:1.99999;stroke-linecap:round;stroke-linejoin:round;stroke-miterlimit:4;stroke-dasharray:none;stroke-opacity:1;visibility:visible" visibility="hidden"/><path d="m499.959 829.406-.123.188" style="fill:none;stroke:#00ff4a;stroke-width:.999997;stroke-linecap:round;stroke-linejoin:round;stroke-miterlimit:4;stroke-dasharray:none;stroke-opacity:1;visibility:visible" visibility="hidden"/><path d="m547.332 846.078-47.441-23.228M500.012 847.793l.121.1" style="fill:none;stroke:#00ff4a;stroke-width:1.99999;stroke-linecap:round;stroke-linejoin:round;stroke-miterlimit:4;stroke-dasharray:none;stroke-opacity:1;visibility:visible" visibility="hidden"/><path d="m499.703 804.22 2.964-.84M499.77 822.74l-.19-18.343" style="fill:none;stroke:#00ff4a;stroke-width:.999997;stroke-linecap:round;stroke-linejoin:round;stroke-miterlimit:4;stroke-dasharray:none;stroke-opacity:1;visibility:visible" visibility="hidden"/><path d="m547.277 824.763-44.61-21.383" style="fill:none;stroke:#00ff4a;stroke-width:1.99999;stroke-linecap:round;stroke-linejoin:round;stroke-miterlimit:4;stroke-dasharray:none;stroke-opacity:1;visibility:visible" visibility="hidden"/><path d="m499.703 804.22-.123.179" style="fill:none;stroke:#00ff4a;stroke-width:.999997;stroke-linecap:round;stroke-linejoin:round;stroke-miterlimit:4;stroke-dasharray:none;stroke-opacity:1;visibility:visible" visibility="hidden"/><path d="m547.255 820.329-47.618-22.719M499.77 822.74l.121.11" style="fill:none;stroke:#00ff4a;stroke-width:1.99999;stroke-linecap:round;stroke-linejoin:round;stroke-miterlimit:4;stroke-dasharray:none;stroke-opacity:1;visibility:visible" visibility="hidden"/><path d="m499.45 778.846 2.972-.816M499.516 797.497l-.188-18.473" style="fill:none;stroke:#00ff4a;stroke-width:.999997;stroke-linecap:round;stroke-linejoin:round;stroke-miterlimit:4;stroke-dasharray:none;stroke-opacity:1;visibility:visible" visibility="hidden"/><path d="m547.2 798.925-44.777-20.896" style="fill:none;stroke:#00ff4a;stroke-width:1.99999;stroke-linecap:round;stroke-linejoin:round;stroke-miterlimit:4;stroke-dasharray:none;stroke-opacity:1;visibility:visible" visibility="hidden"/><path d="m499.45 778.846-.123.178" style="fill:none;stroke:#00ff4a;stroke-width:.999997;stroke-linecap:round;stroke-linejoin:round;stroke-miterlimit:4;stroke-dasharray:none;stroke-opacity:1;visibility:visible" visibility="hidden"/><path d="m547.179 794.391-47.796-22.21M499.516 797.497l.124.112" style="fill:none;stroke:#00ff4a;stroke-width:1.99999;stroke-linecap:round;stroke-linejoin:round;stroke-miterlimit:4;stroke-dasharray:none;stroke-opacity:1;visibility:visible" visibility="hidden"/><path d="m499.195 753.274 2.984-.796M499.261 772.07l-.189-18.606" style="fill:none;stroke:#00ff4a;stroke-width:.999997;stroke-linecap:round;stroke-linejoin:round;stroke-miterlimit:4;stroke-dasharray:none;stroke-opacity:1;visibility:visible" visibility="hidden"/><path d="m547.123 772.889-44.943-20.41" style="fill:none;stroke:#00ff4a;stroke-width:1.99999;stroke-linecap:round;stroke-linejoin:round;stroke-miterlimit:4;stroke-dasharray:none;stroke-opacity:1;visibility:visible" visibility="hidden"/><path d="m499.195 753.274-.123.19" style="fill:none;stroke:#00ff4a;stroke-width:.999997;stroke-linecap:round;stroke-linejoin:round;stroke-miterlimit:4;stroke-dasharray:none;stroke-opacity:1;visibility:visible" visibility="hidden"/><path d="m547.1 768.245-47.972-21.683M499.261 772.07l.122.11" style="fill:none;stroke:#00ff4a;stroke-width:1.99999;stroke-linecap:round;stroke-linejoin:round;stroke-miterlimit:4;stroke-dasharray:none;stroke-opacity:1;visibility:visible" visibility="hidden"/><path d="m498.94 727.514 2.997-.774M498.996 746.454l-.188-18.75" style="fill:none;stroke:#00ff4a;stroke-width:.999997;stroke-linecap:round;stroke-linejoin:round;stroke-miterlimit:4;stroke-dasharray:none;stroke-opacity:1;visibility:visible" visibility="hidden"/><path d="m547.045 746.652-45.108-19.912" style="fill:none;stroke:#00ff4a;stroke-width:1.99999;stroke-linecap:round;stroke-linejoin:round;stroke-miterlimit:4;stroke-dasharray:none;stroke-opacity:1;visibility:visible" visibility="hidden"/><path d="m498.94 727.514-.132.19" style="fill:none;stroke:#00ff4a;stroke-width:.999997;stroke-linecap:round;stroke-linejoin:round;stroke-miterlimit:4;stroke-dasharray:none;stroke-opacity:1;visibility:visible" visibility="hidden"/><path d="m547.023 741.909-48.15-21.161M498.996 746.454l.134.11" style="fill:none;stroke:#00ff4a;stroke-width:1.99999;stroke-linecap:round;stroke-linejoin:round;stroke-miterlimit:4;stroke-dasharray:none;stroke-opacity:1;visibility:visible" visibility="hidden"/><path d="m498.676 701.565 3.019-.763M498.741 720.637l-.188-18.895" style="fill:none;stroke:#00ff4a;stroke-width:.999997;stroke-linecap:round;stroke-linejoin:round;stroke-miterlimit:4;stroke-dasharray:none;stroke-opacity:1;visibility:visible" visibility="hidden"/><path d="m546.957 720.206-45.262-19.404" style="fill:none;stroke:#00ff4a;stroke-width:1.99999;stroke-linecap:round;stroke-linejoin:round;stroke-miterlimit:4;stroke-dasharray:none;stroke-opacity:1;visibility:visible" visibility="hidden"/><path d="m498.676 701.565-.123.177" style="fill:none;stroke:#00ff4a;stroke-width:.999997;stroke-linecap:round;stroke-linejoin:round;stroke-miterlimit:4;stroke-dasharray:none;stroke-opacity:1;visibility:visible" visibility="hidden"/><path d="m546.945 715.353-48.338-20.61M498.741 720.637l.134.11" style="fill:none;stroke:#00ff4a;stroke-width:1.99999;stroke-linecap:round;stroke-linejoin:round;stroke-miterlimit:4;stroke-dasharray:none;stroke-opacity:1;visibility:visible" visibility="hidden"/><path d="m498.42 675.406 3.02-.742M498.475 694.622l-.188-19.038" style="fill:none;stroke:#00ff4a;stroke-width:.999997;stroke-linecap:round;stroke-linejoin:round;stroke-miterlimit:4;stroke-dasharray:none;stroke-opacity:1;visibility:visible" visibility="hidden"/><path d="m546.88 693.561-45.44-18.897" style="fill:none;stroke:#00ff4a;stroke-width:1.99999;stroke-linecap:round;stroke-linejoin:round;stroke-miterlimit:4;stroke-dasharray:none;stroke-opacity:1;visibility:visible" visibility="hidden"/><path d="m498.42 675.406-.133.178" style="fill:none;stroke:#00ff4a;stroke-width:.999997;stroke-linecap:round;stroke-linejoin:round;stroke-miterlimit:4;stroke-dasharray:none;stroke-opacity:1;visibility:visible" visibility="hidden"/><path d="m546.868 688.597-48.525-20.056M498.475 694.622l.133.122" style="fill:none;stroke:#00ff4a;stroke-width:1.99999;stroke-linecap:round;stroke-linejoin:round;stroke-miterlimit:4;stroke-dasharray:none;stroke-opacity:1;visibility:visible" visibility="hidden"/><path d="m498.156 649.05 3.028-.72M498.223 668.42l-.199-19.183" style="fill:none;stroke:#00ff4a;stroke-width:.999997;stroke-linecap:round;stroke-linejoin:round;stroke-miterlimit:4;stroke-dasharray:none;stroke-opacity:1;visibility:visible" visibility="hidden"/><path d="m546.803 666.706-45.619-18.374" style="fill:none;stroke:#00ff4a;stroke-width:1.99999;stroke-linecap:round;stroke-linejoin:round;stroke-miterlimit:4;stroke-dasharray:none;stroke-opacity:1;visibility:visible" visibility="hidden"/><path d="m498.156 649.05-.133.186" style="fill:none;stroke:#00ff4a;stroke-width:.999997;stroke-linecap:round;stroke-linejoin:round;stroke-miterlimit:4;stroke-dasharray:none;stroke-opacity:1;visibility:visible" visibility="hidden"/><path d="m546.792 661.63-48.713-19.502M498.223 668.42l.121.12" style="fill:none;stroke:#00ff4a;stroke-width:1.99999;stroke-linecap:round;stroke-linejoin:round;stroke-miterlimit:4;stroke-dasharray:none;stroke-opacity:1;visibility:visible" visibility="hidden"/><path d="m497.89 622.492 3.04-.695M497.957 642.005l-.197-19.325" style="fill:none;stroke:#00ff4a;stroke-width:.999997;stroke-linecap:round;stroke-linejoin:round;stroke-miterlimit:4;stroke-dasharray:none;stroke-opacity:1;visibility:visible" visibility="hidden"/><path d="m546.725 639.641-45.794-17.844" style="fill:none;stroke:#00ff4a;stroke-width:1.99999;stroke-linecap:round;stroke-linejoin:round;stroke-miterlimit:4;stroke-dasharray:none;stroke-opacity:1;visibility:visible" visibility="hidden"/><path d="m497.89 622.492-.132.188" style="fill:none;stroke:#00ff4a;stroke-width:.999997;stroke-linecap:round;stroke-linejoin:round;stroke-miterlimit:4;stroke-dasharray:none;stroke-opacity:1;visibility:visible" visibility="hidden"/><path d="m546.703 634.455-48.89-18.927M497.957 642.005l.123.123" style="fill:none;stroke:#00ff4a;stroke-width:1.99999;stroke-linecap:round;stroke-linejoin:round;stroke-miterlimit:4;stroke-dasharray:none;stroke-opacity:1;visibility:visible" visibility="hidden"/><path d="m497.615 595.737 3.061-.674M497.692 615.395l-.199-19.48" style="fill:none;stroke:#00ff4a;stroke-width:.999997;stroke-linecap:round;stroke-linejoin:round;stroke-miterlimit:4;stroke-dasharray:none;stroke-opacity:1;visibility:visible" visibility="hidden"/><path d="m553.679 615.008-53.004-19.945" style="fill:none;stroke:#00ff4a;stroke-width:1.99999;stroke-linecap:round;stroke-linejoin:round;stroke-miterlimit:4;stroke-dasharray:none;stroke-opacity:1;visibility:visible" visibility="hidden"/><path d="m497.615 595.737-.123.178" style="fill:none;stroke:#00ff4a;stroke-width:.999997;stroke-linecap:round;stroke-linejoin:round;stroke-miterlimit:4;stroke-dasharray:none;stroke-opacity:1;visibility:visible" visibility="hidden"/><path d="m497.692 615.395.121.133M535.58 919.833l4.72-1.516M506.05 929.32l5.35-1.713M532.153 961.912l-47.043-25.86M503.784 928.103l43.87 23.727M610.518 935.775l-44.223-22.885M575.184 900.43l55.921 28.47M428.338 998.286l.209 10.216M634.41 927.804l10.9 5.528M464.967 984.336l-7.828 2.608-28.801 11.343M547.664 956.738 484.259 977.9M634.41 927.804l-68.106 22.722M437.159 1013.7l-8.612-5.197M645.31 933.334l-.109 9.73M645.201 943.062 437.159 1013.7" style="fill:none;stroke:#00ff4a;stroke-width:1.99999;stroke-linecap:round;stroke-linejoin:round;stroke-miterlimit:4;stroke-dasharray:none;stroke-opacity:1;visibility:visible" visibility="hidden"/><path d="m486.37 935.644-.056-4.433" style="fill:none;stroke:#00ff4a;stroke-width:.999997;stroke-linecap:round;stroke-linejoin:round;stroke-miterlimit:4;stroke-dasharray:none;stroke-opacity:1;visibility:visible" visibility="hidden"/><path d="m421.903 953.478 42.975 24.788M358.22 916.749l42.643 24.589M483.728 936.494l2.642-.85" style="fill:none;stroke:#00ff4a;stroke-width:1.99999;stroke-linecap:round;stroke-linejoin:round;stroke-miterlimit:4;stroke-dasharray:none;stroke-opacity:1;visibility:visible" visibility="hidden"/><path d="m343.315 926.83-.065-1.978M358.22 916.749l-4.689 1.416M353.532 918.163l-10.404 3.163" style="fill:none;stroke:#00ff4a;stroke-width:.999997;stroke-linecap:round;stroke-linejoin:round;stroke-miterlimit:4;stroke-dasharray:none;stroke-opacity:1;visibility:visible" visibility="hidden"/><path d="m309.906 936.947 31.444-8.127M399.658 893.366l-97.67 29.387M366.047 921.26l34.041-10.414M341.35 928.822l3.526-1.083M309.906 936.947l-7.528-4.544M302.377 932.403l-.388-9.65M450.327 989.63l-107.012-62.8M416.022 613.108l-.178-8.305M416.619 640.459l-.112-5.052M417.203 667.612l-.11-4.943M417.79 694.545l-.1-4.82M418.376 721.268l-.112-4.71M418.95 747.778l-.098-4.586M419.526 774.094l-.1-4.478M420.652 826.113l-.086-4.258M421.216 851.827l-.098-4.156M421.77 877.345l-.088-4.046M422.322 902.674l-.088-3.948M422.866 927.804l-.088-3.836" style="fill:none;stroke:#00ff4a;stroke-width:1.99999;stroke-linecap:round;stroke-linejoin:round;stroke-miterlimit:4;stroke-dasharray:none;stroke-opacity:1;visibility:visible" visibility="hidden"/><path d="m404.532 955.832-8.589-349.007" style="fill:none;stroke:#00ff4a;stroke-width:.999997;stroke-linecap:round;stroke-linejoin:round;stroke-miterlimit:4;stroke-dasharray:none;stroke-opacity:1;visibility:visible" visibility="hidden"/><path d="m412.106 603.31 3.737 1.494M577.837 899.58l-1.673.533M578.367 566.216l-.53 333.364M408.723 600.967l76.928-16.643M490.03 583.377l80.914-17.507M575.604 565.26l2.763.956M392.395 604.383l.088-.133M392.483 604.25l7.303-1.581M404.383 601.67l3.699-.804M408.082 600.868l.464.023M392.395 604.383l8.755 348.563" style="fill:none;stroke:#00ff4a;stroke-width:1.99999;stroke-linecap:round;stroke-linejoin:round;stroke-miterlimit:4;stroke-dasharray:none;stroke-opacity:1;visibility:visible" visibility="hidden"/><path d="m504.348 927.916-3.73 1.196M486.104 928.866l-2.453.784M532.308 914.117l-4.71 1.505" style="fill:none;stroke:#00ff4a;stroke-width:.999997;stroke-linecap:round;stroke-linejoin:round;stroke-miterlimit:4;stroke-dasharray:none;stroke-opacity:1;visibility:visible" visibility="hidden"/><path d="m501.196 595.25-.079-8.092M501.45 621.996l-.053-5.086M501.693 648.541l-.043-4.985M501.948 674.877l-.044-4.865M502.19 701.014l-.042-4.754M502.445 726.961l-.044-4.653M502.688 752.712l-.044-4.555M502.932 778.26l-.044-4.454M503.164 803.623l-.032-4.345M503.408 828.798l-.045-4.247M503.639 853.785l-.032-4.146M503.883 878.583l-.044-4.046M504.115 903.206l-.045-3.96M504.348 927.916l-.044-4.125" style="fill:none;stroke:#00ff4a;stroke-width:1.99999;stroke-linecap:round;stroke-linejoin:round;stroke-miterlimit:4;stroke-dasharray:none;stroke-opacity:1;visibility:visible" visibility="hidden"/><path d="m486.127 930.624-4.179-341.543M481.948 589.081l15.367-3.338" style="fill:none;stroke:#00ff4a;stroke-width:.999997;stroke-linecap:round;stroke-linejoin:round;stroke-miterlimit:4;stroke-dasharray:none;stroke-opacity:1;visibility:visible" visibility="hidden"/><path d="m497.315 585.743 3.804 1.414" style="fill:none;stroke:#00ff4a;stroke-width:1.99999;stroke-linecap:round;stroke-linejoin:round;stroke-miterlimit:4;stroke-dasharray:none;stroke-opacity:1;visibility:visible" visibility="hidden"/><path d="m419.282 928.468 3.064-.962M419.282 928.468l-.134.188" style="fill:none;stroke:#00ff4a;stroke-width:.999997;stroke-linecap:round;stroke-linejoin:round;stroke-miterlimit:4;stroke-dasharray:none;stroke-opacity:1;visibility:visible" visibility="hidden"/><path d="M560.212 616.135V960.86" style="fill:none;stroke:#00ff4a;stroke-width:.666665;stroke-linecap:round;stroke-linejoin:round;stroke-miterlimit:4;stroke-dasharray:none;stroke-opacity:1;visibility:visible" visibility="hidden"/><path d="m490.596 932.503 9.592-3.113M498.132 936.86l9.603-3.05-.1-.042v-.362" style="fill:none;stroke:#00ff4a;stroke-width:.999997;stroke-linecap:round;stroke-linejoin:round;stroke-miterlimit:4;stroke-dasharray:none;stroke-opacity:1;visibility:visible" visibility="hidden"/><path d="m498.659 933.782-.047-.039-.042-.043-.034-.044-.032-.044-.02-.042-.02-.044-.01-.044-.001-.044v-.046l.007-.042.01-.047.023-.041.024-.042.033-.042.037-.044.043-.044.05-.038.054-.034.059-.036.06-.034.071-.032.076-.03.075-.028.078-.026.087-.022.08-.02.093-.02.094-.012.09-.015.094-.012.102-.005.098-.006h.196l.098.003.098.008.094.01.095.012.093.011.092.021.09.018.082.023.081.024.082.028.076.03.065.03.068.032.063.038.057.036.051.042.05.037.038.041.035.04.03.044.023.044.016.043.012.043.004.046v.048l-.008.043-.015.043-.017.044-.028.042-.028.046-.037.037-.044.043-.05.038-.055.036-.058.036-.065.038-.066.03-.077.027-.072.029-.083.023-.08.025-.09.02-.087.02-.096.014-.094.016-.093.008-.097.005-.1.005-.097.006h-.098l-.097-.006-.1-.005-.097-.01-.095-.014-.09-.015-.096-.018-.086-.019-.084-.023-.081-.026-.083-.028-.07-.027-.075-.033-.064-.032-.063-.035-.06-.039-.044-.034" style="fill:none;stroke:#00ff4a;stroke-width:.666665;stroke-linecap:round;stroke-linejoin:round;stroke-miterlimit:4;stroke-dasharray:none;stroke-opacity:1;visibility:visible" visibility="hidden"/><path d="m507.812 933.247-7.624-3.859-.218-12.582-.315-.199" style="fill:none;stroke:#00ff4a;stroke-width:.999997;stroke-linecap:round;stroke-linejoin:round;stroke-miterlimit:4;stroke-dasharray:none;stroke-opacity:1;visibility:visible" visibility="hidden"/><path d="m495.481 922.04.079-.02.079-.02.078-.012.073-.005.081-.005.077.005.068.007.074.014.065.02.068.028.062.029.058.039.056.04.053.047.05.047.042.052.039.063.037.061.028.066.028.071.024.075.016.076.01.077.006.082.004.081-.005.088-.007.082-.013.091-.019.087-.021.09-.028.086-.034.088-.034.087-.04.087-.047.081-.05.085-.05.081-.059.077-.059.078-.063.07-.067.071-.069.064-.071.063-.072.056-.078.056-.075.042-.076.048-.08.04-.079.038-.079.03-.08.021-.08.017-.078.016-.078.005h-.148l-.073-.005-.073-.022-.067-.018-.068-.026-.06-.029-.06-.036-.053-.041-.054-.047-.049-.048-.044-.055-.043-.056-.036-.064-.029-.068-.025-.07-.024-.075-.019-.073-.007-.08-.01-.08v-.087l.002-.081.008-.09.017-.086.014-.089.024-.087.028-.084.032-.09.033-.086.044-.091.046-.084.049-.08.051-.082.059-.077.061-.076.062-.073.063-.07" style="fill:none;stroke:#00ff4a;stroke-width:.666665;stroke-linecap:round;stroke-linejoin:round;stroke-miterlimit:4;stroke-dasharray:none;stroke-opacity:1;visibility:visible" visibility="hidden"/><path d="m494.87 922.414.07-.066.072-.057.076-.051.076-.05.079-.043.077-.04.08-.034.08-.031" style="fill:none;stroke:#00ff4a;stroke-width:.666665;stroke-linecap:round;stroke-linejoin:round;stroke-miterlimit:4;stroke-dasharray:none;stroke-opacity:1;visibility:visible" visibility="hidden"/><path d="m490.34 919.393 9.315-2.787" style="fill:none;stroke:#00ff4a;stroke-width:.999997;stroke-linecap:round;stroke-linejoin:round;stroke-miterlimit:4;stroke-dasharray:none;stroke-opacity:1;visibility:visible" visibility="hidden"/><path d="m499.616 933.222.459.25.415-.21M495.761 923.18l-.625.084.125.666M498.468 933.398l-.012.082" style="fill:none;stroke:#00ff4a;stroke-width:.666665;stroke-linecap:round;stroke-linejoin:round;stroke-miterlimit:4;stroke-dasharray:none;stroke-opacity:1;visibility:visible" visibility="hidden"/><path d="m566.465 903.266 8.648-2.806M569.245 908.509l12.43-3.982-.091-.037v-.328" style="fill:none;stroke:#00ff4a;stroke-width:.999997;stroke-linecap:round;stroke-linejoin:round;stroke-miterlimit:4;stroke-dasharray:none;stroke-opacity:1;visibility:visible" visibility="hidden"/><path d="m572.361 904.42-.041-.035-.04-.039-.029-.039-.028-.04-.018-.037-.017-.041-.01-.04-.004-.039v-.04l.009-.041.009-.041.021-.037.022-.037.029-.039.033-.038.04-.04.044-.034.05-.032.052-.031.056-.03.064-.03.066-.026.068-.027.07-.024.079-.018.074-.02.084-.017.083-.011.082-.013.084-.011.092-.006.088-.004h.177l.087.003.088.007.087.007.087.013.081.009.085.02.08.015.075.02.07.025.075.024.068.027.06.026.062.031.057.033.05.032.047.036.044.035.035.039.03.034.03.041.019.04.015.038.011.039.003.042v.042l-.007.037-.014.04-.016.04-.024.039-.026.04-.033.033-.04.04-.048.035-.045.032-.054.032-.058.033-.061.027-.067.028-.066.023-.074.02-.074.025-.079.017-.08.017-.086.014-.085.013-.083.007-.09.005-.086.004-.09.007h-.09l-.085-.007-.091-.004-.087-.01-.086-.008-.081-.017-.086-.017-.077-.017-.078-.02-.073-.022-.073-.025-.064-.027-.067-.03-.059-.027-.056-.032-.053-.036-.044-.03" style="fill:none;stroke:#00ff4a;stroke-width:.666665;stroke-linecap:round;stroke-linejoin:round;stroke-miterlimit:4;stroke-dasharray:none;stroke-opacity:1;visibility:visible" visibility="hidden"/><path d="m575.115 900.46-.058-11.378-.284-.177" style="fill:none;stroke:#00ff4a;stroke-width:.999997;stroke-linecap:round;stroke-linejoin:round;stroke-miterlimit:4;stroke-dasharray:none;stroke-opacity:1;visibility:visible" visibility="hidden"/><path d="m569.884 894.32.072-.02.07-.016.074-.011.064-.006.073-.004.067.004.064.006.065.014.059.018.061.024.057.028.051.033.052.037.047.043.044.043.04.046.035.056.033.058.025.057.027.063.02.069.015.068.009.07.005.074.004.075-.004.077-.006.074-.014.079-.017.082-.019.079-.025.08-.03.08-.029.077-.038.08-.042.072-.046.076-.047.073-.05.07-.056.069-.055.065-.059.063-.063.058-.062.057-.066.051-.069.05-.071.038-.068.042-.071.038-.07.032-.072.026-.072.02-.073.018-.07.012-.072.004h-.131l-.067-.004-.067-.02-.06-.014-.061-.024-.055-.027-.053-.032-.048-.04-.047-.04-.044-.045-.04-.047-.039-.052-.032-.057-.026-.062-.023-.062-.023-.07-.015-.064-.007-.07-.01-.076v-.075l.003-.075.007-.08.013-.08.014-.08.023-.075.024-.078.03-.08.029-.08.04-.08.04-.076.044-.07.048-.078.052-.068.053-.067.059-.065.056-.065" style="fill:none;stroke:#00ff4a;stroke-width:.666665;stroke-linecap:round;stroke-linejoin:round;stroke-miterlimit:4;stroke-dasharray:none;stroke-opacity:1;visibility:visible" visibility="hidden"/><path d="m569.332 894.657.064-.06.067-.05.066-.048.068-.044.073-.04.071-.035.069-.03.073-.027" style="fill:none;stroke:#00ff4a;stroke-width:.666665;stroke-linecap:round;stroke-linejoin:round;stroke-miterlimit:4;stroke-dasharray:none;stroke-opacity:1;visibility:visible" visibility="hidden"/><path d="m566.236 891.449 8.537-2.544" style="fill:none;stroke:#00ff4a;stroke-width:.999997;stroke-linecap:round;stroke-linejoin:round;stroke-miterlimit:4;stroke-dasharray:none;stroke-opacity:1;visibility:visible" visibility="hidden"/><path d="m573.192 904.071.458.25.417-.208M570.241 895.34l-.625.084.124.666M572.19 904.074l-.01.073" style="fill:none;stroke:#00ff4a;stroke-width:.666665;stroke-linecap:round;stroke-linejoin:round;stroke-miterlimit:4;stroke-dasharray:none;stroke-opacity:1;visibility:visible" visibility="hidden"/><path d="M402.652 596.473a1.878 1.878 0 0 0-.594-.092 1.925 1.925 0 0 0-.595.107M401.463 596.488a.683.683 0 0 0-.272.172M403.346 597.175l.086 6.054M400.788 597.21l.086 5.998M402.934 596.641l.349.379M401.184 596.668l-.34.387M403.279 597.343a.236.236 0 0 0 .068-.17.217.217 0 0 0-.064-.153M400.844 597.055a.236.236 0 0 0 .016.321M400.86 597.379a.98.98 0 0 0 .38.228M401.242 597.607a2.56 2.56 0 0 0 1.661-.027M402.903 597.58a.955.955 0 0 0 .376-.237" style="fill:none;stroke:#00ff4a;stroke-width:.666665;stroke-linecap:round;stroke-linejoin:round;stroke-miterlimit:2;stroke-dasharray:none;stroke-opacity:1;visibility:visible" visibility="hidden"/><path d="M402.927 596.636a.657.657 0 0 0-.276-.163" style="fill:none;stroke:#00ff4a;stroke-width:.666665;stroke-linecap:round;stroke-linejoin:round;stroke-miterlimit:2;stroke-dasharray:none;stroke-opacity:1;visibility:visible" visibility="hidden"/><path d="m402.08 598.047.078 5.27" style="fill:none;stroke:#00ff4a;stroke-width:.666665;stroke-linecap:round;stroke-linejoin:round;stroke-miterlimit:4;stroke-dasharray:none;stroke-opacity:1;visibility:visible" visibility="hidden"/><path d="m489.115 578.655.085 6.054M486.557 578.692l.086 5.996M488.701 578.123l.351.377M486.953 578.148l-.34.387M489.048 578.824a.233.233 0 0 0 .004-.323M486.612 578.535a.237.237 0 0 0 .013.321M486.63 578.86a.984.984 0 0 0 .38.228M487.01 579.088a2.577 2.577 0 0 0 1.661-.026M488.67 579.061a.95.95 0 0 0 .379-.237M488.696 578.117a.657.657 0 0 0-.276-.162M488.42 577.955a1.848 1.848 0 0 0-1.19.014M487.232 577.97a.67.67 0 0 0-.272.172" style="fill:none;stroke:#00ff4a;stroke-width:.666665;stroke-linecap:round;stroke-linejoin:round;stroke-miterlimit:2;stroke-dasharray:none;stroke-opacity:1;visibility:visible" visibility="hidden"/><path d="m487.85 579.528.079 5.27" style="fill:none;stroke:#00ff4a;stroke-width:.666665;stroke-linecap:round;stroke-linejoin:round;stroke-miterlimit:4;stroke-dasharray:none;stroke-opacity:1;visibility:visible" visibility="hidden"/><path d="m574.408 560.121.087 6.055M571.85 560.157l.084 5.996M573.995 559.588l.349.379M572.244 559.615l-.34.385M574.34 560.29a.236.236 0 0 0 .068-.17.217.217 0 0 0-.064-.153M571.905 560.001a.236.236 0 0 0 .015.322M571.921 560.324a.964.964 0 0 0 .38.228M572.301 560.553a2.56 2.56 0 0 0 1.662-.026M573.964 560.527a.955.955 0 0 0 .376-.238M573.988 559.583a.657.657 0 0 0-.276-.163M573.712 559.42a1.84 1.84 0 0 0-1.19.015M572.523 559.435a.67.67 0 0 0-.273.173" style="fill:none;stroke:#00ff4a;stroke-width:.666665;stroke-linecap:round;stroke-linejoin:round;stroke-miterlimit:2;stroke-dasharray:none;stroke-opacity:1;visibility:visible" visibility="hidden"/><path d="m573.141 560.993.079 5.271" style="fill:none;stroke:#00ff4a;stroke-width:.666665;stroke-linecap:round;stroke-linejoin:round;stroke-miterlimit:4;stroke-dasharray:none;stroke-opacity:1;visibility:visible" visibility="hidden"/><path d="m557.69 609.415.085 6.054M555.132 609.45l.085 5.994M557.277 608.881l.35.38M555.528 608.908l-.34.387M557.624 609.583a.235.235 0 0 0 .004-.323M555.188 609.295a.237.237 0 0 0 .012.321M555.205 609.617a.984.984 0 0 0 .379.228M555.585 609.845c.27.085.552.128.835.125.28-.005.56-.055.827-.15M557.245 609.82a.965.965 0 0 0 .378-.237M557.272 608.876a.657.657 0 0 0-.276-.163M556.996 608.713a1.848 1.848 0 0 0-1.19.015M555.807 608.727a.67.67 0 0 0-.272.173" style="fill:none;stroke:#00ff4a;stroke-width:.666665;stroke-linecap:round;stroke-linejoin:round;stroke-miterlimit:2;stroke-dasharray:none;stroke-opacity:1;visibility:visible" visibility="hidden"/><path d="m556.425 610.285.078 5.27" style="fill:none;stroke:#00ff4a;stroke-width:.666665;stroke-linecap:round;stroke-linejoin:round;stroke-miterlimit:4;stroke-dasharray:none;stroke-opacity:1;visibility:visible" visibility="hidden"/><path d="m561.788 608.497.087 6.055M559.23 608.533l.084 5.997M561.375 607.964l.349.379M559.625 607.99l-.341.388M561.719 608.665a.236.236 0 0 0 .068-.169.217.217 0 0 0-.064-.153M559.285 608.377a.236.236 0 0 0 .015.323M559.301 608.701a.996.996 0 0 0 .38.229M559.683 608.93a2.595 2.595 0 0 0 1.66-.028M561.344 608.903a.955.955 0 0 0 .376-.238M561.368 607.959a.657.657 0 0 0-.276-.163M561.092 607.796a1.84 1.84 0 0 0-1.19.014M559.904 607.81a.67.67 0 0 0-.272.175" style="fill:none;stroke:#00ff4a;stroke-width:.666665;stroke-linecap:round;stroke-linejoin:round;stroke-miterlimit:2;stroke-dasharray:none;stroke-opacity:1;visibility:visible" visibility="hidden"/><path d="M489.747 626.35h-.81l.303.76M491.344 764.865h-.81l.304.76M492.77 898.033h-.808l.303.76M560.521 609.37l.079 5.27" style="fill:none;stroke:#00ff4a;stroke-width:.666665;stroke-linecap:round;stroke-linejoin:round;stroke-miterlimit:4;stroke-dasharray:none;stroke-opacity:1;visibility:visible" visibility="hidden"/><path d="m547.676 961.448 2.907-6.964M555.217 615.444l-4.524 2.715M555.217 615.444l-5.462 11.803M550.693 618.159l-.938 9.088M554.335 614.863l-2.625 1.461M546.659 616.633l5.051-.309M486.104 928.866l-2.432 3.196M532.308 914.117l-1.891 2.985M535.58 919.833l-.453-4.234M504.348 927.916l-.024-2.466M506.05 929.32l.198-4.49M547.676 961.448l-9.132-1.658M617.064 933.587l-5.452-6.467M547.51 903.825l18.785 3.637M611.612 927.12l5.452 6.467M636.134 934.603l3.748-1.26M636.134 934.603l3.748-1.26M639.882 933.343l-3.748 1.26M639.882 933.343l-3.748 1.26M636.134 934.603l-3.901 1.184M636.134 934.603l-3.901 1.184M416.619 640.459l-10.936 4.18M416.507 635.407l-10.824 9.233M419.526 774.094l-10.538 12.172M419.426 769.616l-10.438 16.65M422.866 927.804l-10.704-5.593M422.778 923.968l-10.616-1.758M401.492 940.586l6.6 17.314M309.906 936.947l-4.013-8.213M302.378 932.403l3.515-3.669M399.786 602.669l-2.539 1.327M396.186 605.744l1.062-1.748M399.67 608.327l-6.226 10.396M400.874 603.208l-7.43 15.514M422.346 927.506l-12.55-6.18M419.282 928.468l-9.486-7.142M501.45 621.996l-10.425 4.045M497.76 622.68l-6.735 3.362M499.261 772.07l-6.711-7.508M499.072 753.464l-6.522 11.098M500.512 897.334l-6.502.343M500.576 904.034l-6.566-6.357" style="fill:none;stroke:#00ff4a;stroke-width:.999997;stroke-linecap:round;stroke-linejoin:round;stroke-miterlimit:4;stroke-dasharray:none;stroke-opacity:1;visibility:visible" visibility="hidden"/><path d="m559.681 608.93 2.873 4.258M547.676 961.448l-.033-14.328M550.583 954.484l15.721 4.088M566.295 907.462l-18.796-6.359M535.127 915.599l.453 4.234M530.417 917.102l9.883 1.215M504.348 927.916l1.702 1.404M504.324 925.45l7.076 2.157M547.676 961.448l-15.523.464M547.676 961.448l-.022-9.618M611.612 927.12l-1.094 8.655M634.41 927.804l-3.305 1.096M566.304 950.526l-18.64 6.212M547.664 956.738l18.64-6.212M486.315 931.21l-2.587 5.284M358.22 916.749l7.827 4.511M409.796 921.326l-9.708-10.48M343.128 921.326l1.748 6.413M405.397 616.08l10.625-2.972M405.683 644.639l10.936-4.18M405.683 644.64l10.824-9.233M408.988 786.266l10.538-12.172M408.988 786.266l10.438-16.65M412.162 922.21l10.616 1.758" style="fill:none;stroke:#00ff4a;stroke-width:1.99999;stroke-linecap:round;stroke-linejoin:round;stroke-miterlimit:4;stroke-dasharray:none;stroke-opacity:1;visibility:visible" visibility="hidden"/><path d="m401.492 940.586 3.04 15.246" style="fill:none;stroke:#00ff4a;stroke-width:.999997;stroke-linecap:round;stroke-linejoin:round;stroke-miterlimit:4;stroke-dasharray:none;stroke-opacity:1;visibility:visible" visibility="hidden"/><path d="m575.113 900.46 1.051-.347M490.03 583.377l-4.379.947M485.651 584.324l4.379-.947M568.87 577.693l2.074-11.823M572.301 560.552l3.303 4.708M397.247 603.996l2.539-1.327M399.786 602.669l4.597-.999M401.492 940.586l-.342 12.36" style="fill:none;stroke:#00ff4a;stroke-width:1.99999;stroke-linecap:round;stroke-linejoin:round;stroke-miterlimit:4;stroke-dasharray:none;stroke-opacity:1;visibility:visible" visibility="hidden"/><path d="m483.672 932.062 2.432-3.196M530.417 917.102l1.891-2.985M535.127 915.599l-7.529.023" style="fill:none;stroke:#00ff4a;stroke-width:.999997;stroke-linecap:round;stroke-linejoin:round;stroke-miterlimit:4;stroke-dasharray:none;stroke-opacity:1;visibility:visible" visibility="hidden"/><path d="m497.692 615.395 3.705 1.515M497.957 642.005l3.693 1.551M498.223 668.42l3.681 1.592M498.475 694.622l3.673 1.638M498.741 720.637l3.66 1.671M498.996 746.454l3.648 1.703M499.261 772.07l3.627 1.736M499.516 797.497l3.616 1.781M499.77 822.74l3.593 1.811M500.012 847.793l3.595 1.846M500.267 872.657l3.572 1.88M500.512 897.334l3.558 1.912M500.753 921.846l3.551 1.945" style="fill:none;stroke:#00ff4a;stroke-width:1.99999;stroke-linecap:round;stroke-linejoin:round;stroke-miterlimit:4;stroke-dasharray:none;stroke-opacity:1;visibility:visible" visibility="hidden"/><path d="m550.583 954.484 9.629 6.376" style="fill:none;stroke:#00ff4a;stroke-width:.666665;stroke-linecap:round;stroke-linejoin:round;stroke-miterlimit:4;stroke-dasharray:none;stroke-opacity:1;visibility:visible" visibility="hidden"/><path d="m500.188 929.39-2.056 7.47M495.48 922.042l-5.14-2.649" style="fill:none;stroke:#00ff4a;stroke-width:.999997;stroke-linecap:round;stroke-linejoin:round;stroke-miterlimit:4;stroke-dasharray:none;stroke-opacity:1;visibility:visible" visibility="hidden"/><path d="m507.812 933.247-8.196-.025" style="fill:none;stroke:#00ff4a;stroke-width:.666665;stroke-linecap:round;stroke-linejoin:round;stroke-miterlimit:4;stroke-dasharray:none;stroke-opacity:1;visibility:visible" visibility="hidden"/><path d="m569.883 894.323-3.418 8.943M575.113 900.46l-5.868 8.049M577.837 899.58l3.747 4.582M569.883 894.323l-3.647-2.874" style="fill:none;stroke:#00ff4a;stroke-width:.999997;stroke-linecap:round;stroke-linejoin:round;stroke-miterlimit:4;stroke-dasharray:none;stroke-opacity:1;visibility:visible" visibility="hidden"/><path d="m399.67 608.327 2.488-5.01M485.74 590.52l2.189-5.722M578.367 566.216l-5.147.048M559.295 614.62l-2.792.935M559.295 614.62l1.305.02" style="fill:none;stroke:#00ff4a;stroke-width:.666665;stroke-linecap:round;stroke-linejoin:round;stroke-miterlimit:4;stroke-dasharray:none;stroke-opacity:1;visibility:visible" visibility="hidden"/><path d="m483.652 929.751-19.549-1.129" style="fill:none;stroke:red;stroke-width:.999997;stroke-linecap:round;stroke-linejoin:round;stroke-miterlimit:4;stroke-dasharray:none;stroke-opacity:1;visibility:visible"/><path d="m465.03 989.266-8.864-1.936M418.718 903.326l-18.862-1.979M418.995 773.838l-12.427 11.466M415.844 774.678l-9.276 10.626M416.075 640.238l-12.857 3.35M405.683 644.639l-2.465-1.051" style="fill:none;stroke:#00ff4a;stroke-width:.999997;stroke-linecap:round;stroke-linejoin:round;stroke-miterlimit:4;stroke-dasharray:none;stroke-opacity:1;visibility:visible" visibility="hidden"/><path d="m495.48 922.042-10.37 14.01M423.328 949.01l-1.425 4.468M467.786 982.2l-2.908-3.934M465.03 989.266l-14.703.364M413.18 660.934l3.913 1.735M413.776 687.933l3.914 1.792M414.384 714.734l3.88 1.824M414.97 741.324l3.882 1.868M416.728 819.854l3.838 2.001M417.302 845.637l3.816 2.034M417.867 871.22l3.815 2.079M418.443 896.615l3.791 2.111" style="fill:none;stroke:#00ff4a;stroke-width:1.99999;stroke-linecap:round;stroke-linejoin:round;stroke-miterlimit:4;stroke-dasharray:none;stroke-opacity:1;visibility:visible" visibility="hidden"/><path d="m472.76 633.616 16.48-6.506M494.01 897.677l-1.24.356" style="fill:none;stroke:#00ff4a;stroke-width:.666665;stroke-linecap:round;stroke-linejoin:round;stroke-miterlimit:4;stroke-dasharray:none;stroke-opacity:1;visibility:visible" visibility="hidden"/></svg>