<svg xmlns="http://www.w3.org/2000/svg" baseProfile="full" height="1122.52" preserveAspectRatio="xMinYMin meet" style="width:729px;height:902px" width="793.701" xml:space="preserve"><path d="m396.422 933.499 101.472 43.476M451.703 956.61l-.487-64.032M451.09 877.366l-.484-65.119M395.403 856.46l102.248 39.344M507.255 1027.414l-.42-209.325M670.38 894.142l-156.174 44.53M497.793 943.36l-42.888 12.221M394.529 976.323l1.108-26.627M393.808 811.628l1.83 138.069M393.397 780.57l.283 21.403M548.123 931.516l50.303 19.787M730.578 764.947l-3.87 192.509M671.588 821.146l.42-29.275M670.533 894.209l.353-24.632M673.59 895.283l-159.385 45.584M497.793 945.552l-39.908 11.415M454.905 955.691l2.98 1.275M463.092 955.837l34.781 14.79M480.556 950.853l17.284 7.221M514.237 964.932l16.165 6.77M497.693 948.913l.112.055M514.217 952.689l33.536 13.805M514.781 941.055l50.09 20.31M531.569 936.246l50.193 20.056" style="fill:none;stroke:red;stroke-width:.999997;stroke-linecap:round;stroke-linejoin:round;stroke-miterlimit:4;stroke-dasharray:none;stroke-opacity:1;visibility:visible"/><path d="m514.26 978.95 212.435-63.901" style="fill:none;stroke:red;stroke-width:.666665;stroke-linecap:round;stroke-linejoin:round;stroke-miterlimit:4;stroke-dasharray:none;stroke-opacity:1;visibility:visible"/><path d="m622.89 945.046-.043.021-.034.022-.02.032.009.022.019.023.036.023.068.021.065.01.067.014h.154l.078-.013.054-.02.048-.023.018-.023.013-.034-.021-.02-.036-.024-.043-.02-.068-.024-.065-.011h-.154l-.078.01-.067.014M521.914 975.371l-.055.021-.042.034-.026.022v.034l.026.022.042.022.055.024.067.018.08.012h.077l.09-.012.067-.006.067-.026.043-.022.034-.022.008-.032-.008-.034-.034-.023-.043-.023-.067-.022-.066-.01h-.168l-.08.01-.067.013M716.22 917.022l-.06.024-.021.01-.014.033v.021l.026.021.042.023.058.023.066.012h.08l.078.012.065-.012.067-.012.054-.011.043-.023.02-.021v-.021l-.02-.036-.035-.019-.042-.024-.07-.01-.065-.013h-.152l-.07.012-.05.011M674.667 822.123l-160.56 41.063M497.561 867.405l-40.23 10.293M454.33 876.545l3.003 1.153M658.292 899.992l50.835 18.116M564.475 926.84l50.395 19.533M627.807 908.713l50.705 18.572M643.144 904.325l50.77 18.337M580.606 922.218l50.485 19.29M612.277 913.155l50.637 18.804M596.544 917.654l50.565 19.047" style="fill:none;stroke:red;stroke-width:.999997;stroke-linecap:round;stroke-linejoin:round;stroke-miterlimit:4;stroke-dasharray:none;stroke-opacity:1;visibility:visible"/><path d="m514.148 897.61 214.057-57.617" style="fill:none;stroke:red;stroke-width:.666665;stroke-linecap:round;stroke-linejoin:round;stroke-miterlimit:4;stroke-dasharray:none;stroke-opacity:1;visibility:visible"/><path d="m623.644 867.03-.043.02-.045.01-.01.033v.025l.02.021.047.023.051.01.065.013.08.009h.155l.079-.01.057-.022.043-.012.022-.023.011-.034-.023-.022-.022-.021-.055-.02-.07-.015-.067-.009h-.155l-.07.01-.07.014M521.87 894.374l-.055.024-.045.021-.02.022v.021l.02.036.045.019.055.014.067.022h.248l.078-.012.051-.024.061-.019.02-.024.008-.02-.008-.024-.02-.032-.061-.012-.05-.024-.08-.01h-.171l-.076.01-.067.012M717.636 841.778l-.045.01-.034.022-.009.021.01.024.023.022.043.021.055.013.069.01.077.012h.076l.07-.012.069-.01.048-.013.05-.01.02-.023v-.02l-.02-.024-.035-.023-.047-.02-.064-.012-.064-.012h-.227l-.065.024M659.256 826.398l51.181 16.365M644.008 830.299l51.113 16.576M628.552 834.252l51.057 16.776M612.907 838.254l50.99 16.996M597.065 842.31l50.91 17.205M581.02 846.418l50.827 17.432M564.754 850.575l50.737 17.661M548.284 854.796l50.639 17.884M531.597 859.06l50.528 18.13M514.683 863.395l50.423 18.361M497.573 867.96l-.121-.044M497.553 867.773l.02.01M514.113 873.9l33.741 12.483M480.19 872.214l17.407 6.55M514.127 884.978l16.244 6.096M462.586 876.724l35.053 13.384" style="fill:none;stroke:red;stroke-width:.999997;stroke-linecap:round;stroke-linejoin:round;stroke-miterlimit:4;stroke-dasharray:none;stroke-opacity:1;visibility:visible"/><path d="m400.39 932.423 41.952 17.908M458.387 957.176l39.496 16.864" style="fill:none;stroke:red;stroke-width:1.99999;stroke-linecap:round;stroke-linejoin:round;stroke-miterlimit:4;stroke-dasharray:none;stroke-opacity:1;visibility:visible"/><path d="M396.422 934.22v-.721l3.968-1.076" style="fill:none;stroke:red;stroke-width:.999997;stroke-linecap:round;stroke-linejoin:round;stroke-miterlimit:4;stroke-dasharray:none;stroke-opacity:1;visibility:visible"/><path d="m396.6 947.55 101.341 44.22M442.36 952.612l-.544-63.724" style="fill:none;stroke:red;stroke-width:1.99999;stroke-linecap:round;stroke-linejoin:round;stroke-miterlimit:4;stroke-dasharray:none;stroke-opacity:1;visibility:visible"/><path d="m454.905 955.691-3.201.919M454.905 955.691l-.444-61.839" style="fill:none;stroke:red;stroke-width:.999997;stroke-linecap:round;stroke-linejoin:round;stroke-miterlimit:4;stroke-dasharray:none;stroke-opacity:1;visibility:visible"/><path d="m441.685 873.757-.553-64.82" style="fill:none;stroke:red;stroke-width:1.99999;stroke-linecap:round;stroke-linejoin:round;stroke-miterlimit:4;stroke-dasharray:none;stroke-opacity:1;visibility:visible"/><path d="m454.33 876.545-3.24.821M454.33 876.545l-.456-63.153" style="fill:none;stroke:red;stroke-width:.999997;stroke-linecap:round;stroke-linejoin:round;stroke-miterlimit:4;stroke-dasharray:none;stroke-opacity:1;visibility:visible"/><path d="m395.589 870.728 102.104 40.124M399.413 855.483l42.25 16.21M457.82 877.883l39.82 15.273" style="fill:none;stroke:red;stroke-width:1.99999;stroke-linecap:round;stroke-linejoin:round;stroke-miterlimit:4;stroke-dasharray:none;stroke-opacity:1;visibility:visible"/><path d="m395.403 856.46 4.01-.976" style="fill:none;stroke:red;stroke-width:.999997;stroke-linecap:round;stroke-linejoin:round;stroke-miterlimit:4;stroke-dasharray:none;stroke-opacity:1;visibility:visible"/><path d="m394.575 792.703 102.877 35.877M497.94 994.493l-.523-178.336M507.255 1027.414l-7.585-3.433M507.255 1027.414l7.059-2.25M514.036 816.37l.277 208.794M499.67 1023.98l-1.73-29.487M729.447 777.91l-215.383 52.321M394.529 976.323l-6.704-3.047-2.361-168.003v-1.834M385.077 777.722l.239 16.917M400.916 815.293l.52 40.967M400.657 794.82l.145 11.43M401.645 873.1l.75 60.179" style="fill:none;stroke:red;stroke-width:1.99999;stroke-linecap:round;stroke-linejoin:round;stroke-miterlimit:4;stroke-dasharray:none;stroke-opacity:1;visibility:visible"/><path d="m402.475 950.119-1.024 24.221-6.923 1.983" style="fill:none;stroke:red;stroke-width:1.99999;stroke-linecap:round;stroke-linejoin:round;stroke-miterlimit:4;stroke-dasharray:none;stroke-opacity:1;visibility:visible"/><path d="m548.02 934.464.01-2.804" style="fill:none;stroke:red;stroke-width:.999997;stroke-linecap:round;stroke-linejoin:round;stroke-miterlimit:4;stroke-dasharray:none;stroke-opacity:1;visibility:visible"/><path d="m610.403 947.705-50.37-19.601M548.02 934.464l.103.088" style="fill:none;stroke:red;stroke-width:1.99999;stroke-linecap:round;stroke-linejoin:round;stroke-miterlimit:4;stroke-dasharray:none;stroke-opacity:1;visibility:visible"/><path d="m548.123 931.516-.093.144" style="fill:none;stroke:red;stroke-width:.999997;stroke-linecap:round;stroke-linejoin:round;stroke-miterlimit:4;stroke-dasharray:none;stroke-opacity:1;visibility:visible"/><path d="m726.709 957.456 5.91-1.885M736.582 763.518l-3.965 192.053M720.591 780.06l-1.125 59.125M719.13 856.313l-1.105 57.797M717.937 931.339l1.005 23.224 7.767 2.893M719.555 834.287l-45.244-14.215M674.301 820.447l.435-29.24" style="fill:none;stroke:red;stroke-width:1.99999;stroke-linecap:round;stroke-linejoin:round;stroke-miterlimit:4;stroke-dasharray:none;stroke-opacity:1;visibility:visible"/><path d="m674.301 820.447-2.713.699-.172-.055" style="fill:none;stroke:red;stroke-width:.999997;stroke-linecap:round;stroke-linejoin:round;stroke-miterlimit:4;stroke-dasharray:none;stroke-opacity:1;visibility:visible"/><path d="m673.238 893.431.353-24.596" style="fill:none;stroke:red;stroke-width:1.99999;stroke-linecap:round;stroke-linejoin:round;stroke-miterlimit:4;stroke-dasharray:none;stroke-opacity:1;visibility:visible"/><path d="m673.238 893.431-2.704.777-.155-.066" style="fill:none;stroke:red;stroke-width:.999997;stroke-linecap:round;stroke-linejoin:round;stroke-miterlimit:4;stroke-dasharray:none;stroke-opacity:1;visibility:visible"/><path d="m563.556 940.645-.03.012M546.97 945.487l-.112.033M530.159 950.383l-.187.057" style="fill:none;stroke:red;stroke-width:1.99999;stroke-linecap:round;stroke-linejoin:round;stroke-miterlimit:4;stroke-dasharray:none;stroke-opacity:1;visibility:visible"/><path d="m673.59 895.283-.043 3.125M463.013 958.885l-.021-2.895" style="fill:none;stroke:red;stroke-width:.999997;stroke-linecap:round;stroke-linejoin:round;stroke-miterlimit:4;stroke-dasharray:none;stroke-opacity:1;visibility:visible"/><path d="m525.627 973.131-11.39-4.784M497.85 961.454l-22.037-9.252M463.013 958.885l.103.085" style="fill:none;stroke:red;stroke-width:1.99999;stroke-linecap:round;stroke-linejoin:round;stroke-miterlimit:4;stroke-dasharray:none;stroke-opacity:1;visibility:visible"/><path d="m463.092 955.837-.1.153M480.465 953.863l-.012-2.867" style="fill:none;stroke:red;stroke-width:.999997;stroke-linecap:round;stroke-linejoin:round;stroke-miterlimit:4;stroke-dasharray:none;stroke-opacity:1;visibility:visible"/><path d="m543.044 967.904-28.819-11.913M497.805 949.2l-4.695-1.948M480.465 953.863l.1.088" style="fill:none;stroke:red;stroke-width:1.99999;stroke-linecap:round;stroke-linejoin:round;stroke-miterlimit:4;stroke-dasharray:none;stroke-opacity:1;visibility:visible"/><path d="m480.556 950.853-.103.143" style="fill:none;stroke:red;stroke-width:.999997;stroke-linecap:round;stroke-linejoin:round;stroke-miterlimit:4;stroke-dasharray:none;stroke-opacity:1;visibility:visible"/><path d="M497.805 949.01h-.012M560.23 962.75l-46.025-18.736M497.693 948.913l.1.097M577.171 957.676l-50.17-20.121M514.781 941.055l-.085.145" style="fill:none;stroke:red;stroke-width:1.99999;stroke-linecap:round;stroke-linejoin:round;stroke-miterlimit:4;stroke-dasharray:none;stroke-opacity:1;visibility:visible"/><path d="M531.471 939.216v-2.827" style="fill:none;stroke:red;stroke-width:.999997;stroke-linecap:round;stroke-linejoin:round;stroke-miterlimit:4;stroke-dasharray:none;stroke-opacity:1;visibility:visible"/><path d="m593.905 952.658-50.273-19.856M531.471 939.216l.085.088" style="fill:none;stroke:red;stroke-width:1.99999;stroke-linecap:round;stroke-linejoin:round;stroke-miterlimit:4;stroke-dasharray:none;stroke-opacity:1;visibility:visible"/><path d="m531.569 936.246-.097.143" style="fill:none;stroke:red;stroke-width:.999997;stroke-linecap:round;stroke-linejoin:round;stroke-miterlimit:4;stroke-dasharray:none;stroke-opacity:1;visibility:visible"/><path d="m514.27 993.786 212.16-65.052M514.251 976.544l209.058-62.69" style="fill:none;stroke:red;stroke-width:1.99999;stroke-linecap:round;stroke-linejoin:round;stroke-miterlimit:4;stroke-dasharray:none;stroke-opacity:1;visibility:visible"/><path d="m726.697 915.048-3.387-1.195M674.667 822.123l-.045 2.856M671.416 821.092l-157.308 40.11M497.561 865.42l-43.232 11.027M658.173 902.595l.03-2.47" style="fill:none;stroke:red;stroke-width:.999997;stroke-linecap:round;stroke-linejoin:round;stroke-miterlimit:4;stroke-dasharray:none;stroke-opacity:1;visibility:visible"/><path d="m720.062 914.828-50.868-17.961M717.57 909.11l-44.27-15.633" style="fill:none;stroke:red;stroke-width:1.99999;stroke-linecap:round;stroke-linejoin:round;stroke-miterlimit:4;stroke-dasharray:none;stroke-opacity:1;visibility:visible"/><path d="m658.292 899.992-.088.135M564.364 929.764l.012-2.793" style="fill:none;stroke:red;stroke-width:.999997;stroke-linecap:round;stroke-linejoin:round;stroke-miterlimit:4;stroke-dasharray:none;stroke-opacity:1;visibility:visible"/><path d="m626.688 942.828-50.459-19.357M564.364 929.764l.055.044" style="fill:none;stroke:red;stroke-width:1.99999;stroke-linecap:round;stroke-linejoin:round;stroke-miterlimit:4;stroke-dasharray:none;stroke-opacity:1;visibility:visible"/><path d="m564.475 926.84-.099.132M627.686 911.427l.035-2.57" style="fill:none;stroke:red;stroke-width:.999997;stroke-linecap:round;stroke-linejoin:round;stroke-miterlimit:4;stroke-dasharray:none;stroke-opacity:1;visibility:visible"/><path d="m689.736 923.915-50.76-18.395" style="fill:none;stroke:red;stroke-width:1.99999;stroke-linecap:round;stroke-linejoin:round;stroke-miterlimit:4;stroke-dasharray:none;stroke-opacity:1;visibility:visible"/><path d="m627.807 908.713-.085.144M643.024 906.985l.033-2.527" style="fill:none;stroke:red;stroke-width:.999997;stroke-linecap:round;stroke-linejoin:round;stroke-miterlimit:4;stroke-dasharray:none;stroke-opacity:1;visibility:visible"/><path d="m704.994 919.337-50.815-18.17" style="fill:none;stroke:red;stroke-width:1.99999;stroke-linecap:round;stroke-linejoin:round;stroke-miterlimit:4;stroke-dasharray:none;stroke-opacity:1;visibility:visible"/><path d="m643.144 904.325-.085.135M580.51 925.11l.01-2.748" style="fill:none;stroke:red;stroke-width:.999997;stroke-linecap:round;stroke-linejoin:round;stroke-miterlimit:4;stroke-dasharray:none;stroke-opacity:1;visibility:visible"/><path d="m642.757 938.008-50.539-19.113" style="fill:none;stroke:red;stroke-width:1.99999;stroke-linecap:round;stroke-linejoin:round;stroke-miterlimit:4;stroke-dasharray:none;stroke-opacity:1;visibility:visible"/><path d="m580.606 922.218-.085.144M612.165 915.926l.024-2.628" style="fill:none;stroke:red;stroke-width:.999997;stroke-linecap:round;stroke-linejoin:round;stroke-miterlimit:4;stroke-dasharray:none;stroke-opacity:1;visibility:visible"/><path d="m674.278 928.556-50.69-18.636" style="fill:none;stroke:red;stroke-width:1.99999;stroke-linecap:round;stroke-linejoin:round;stroke-miterlimit:4;stroke-dasharray:none;stroke-opacity:1;visibility:visible"/><path d="m612.277 913.155-.088.143M596.432 920.49l.02-2.693" style="fill:none;stroke:red;stroke-width:.999997;stroke-linecap:round;stroke-linejoin:round;stroke-miterlimit:4;stroke-dasharray:none;stroke-opacity:1;visibility:visible"/><path d="m658.622 933.242-50.625-18.868" style="fill:none;stroke:red;stroke-width:1.99999;stroke-linecap:round;stroke-linejoin:round;stroke-miterlimit:4;stroke-dasharray:none;stroke-opacity:1;visibility:visible"/><path d="m596.544 917.654-.092.143" style="fill:none;stroke:red;stroke-width:.999997;stroke-linecap:round;stroke-linejoin:round;stroke-miterlimit:4;stroke-dasharray:none;stroke-opacity:1;visibility:visible"/><path d="m514.174 912.68 213.753-58.793M514.148 895.427l210.637-56.51" style="fill:none;stroke:red;stroke-width:1.99999;stroke-linecap:round;stroke-linejoin:round;stroke-miterlimit:4;stroke-dasharray:none;stroke-opacity:1;visibility:visible"/><path d="m728.206 839.993-3.42-1.075" style="fill:none;stroke:red;stroke-width:.999997;stroke-linecap:round;stroke-linejoin:round;stroke-miterlimit:4;stroke-dasharray:none;stroke-opacity:1;visibility:visible"/><path d="m721.448 839.804-51.212-16.21" style="fill:none;stroke:red;stroke-width:1.99999;stroke-linecap:round;stroke-linejoin:round;stroke-miterlimit:4;stroke-dasharray:none;stroke-opacity:1;visibility:visible"/><path d="m659.256 826.398-.079.135" style="fill:none;stroke:red;stroke-width:.999997;stroke-linecap:round;stroke-linejoin:round;stroke-miterlimit:4;stroke-dasharray:none;stroke-opacity:1;visibility:visible"/><path d="m706.277 843.883-51.155-16.423" style="fill:none;stroke:red;stroke-width:1.99999;stroke-linecap:round;stroke-linejoin:round;stroke-miterlimit:4;stroke-dasharray:none;stroke-opacity:1;visibility:visible"/><path d="m628.44 836.7.023-2.313" style="fill:none;stroke:red;stroke-width:.999997;stroke-linecap:round;stroke-linejoin:round;stroke-miterlimit:4;stroke-dasharray:none;stroke-opacity:1;visibility:visible"/><path d="m690.91 848.004-51.104-16.632" style="fill:none;stroke:red;stroke-width:1.99999;stroke-linecap:round;stroke-linejoin:round;stroke-miterlimit:4;stroke-dasharray:none;stroke-opacity:1;visibility:visible"/><path d="m628.552 834.252-.09.136M612.795 840.758l.027-2.36" style="fill:none;stroke:red;stroke-width:.999997;stroke-linecap:round;stroke-linejoin:round;stroke-miterlimit:4;stroke-dasharray:none;stroke-opacity:1;visibility:visible"/><path d="m675.343 852.181-51.035-16.841" style="fill:none;stroke:red;stroke-width:1.99999;stroke-linecap:round;stroke-linejoin:round;stroke-miterlimit:4;stroke-dasharray:none;stroke-opacity:1;visibility:visible"/><path d="m612.907 838.254-.085.144M596.962 844.869l.012-2.416" style="fill:none;stroke:red;stroke-width:.999997;stroke-linecap:round;stroke-linejoin:round;stroke-miterlimit:4;stroke-dasharray:none;stroke-opacity:1;visibility:visible"/><path d="m659.576 856.413-50.972-17.05" style="fill:none;stroke:red;stroke-width:1.99999;stroke-linecap:round;stroke-linejoin:round;stroke-miterlimit:4;stroke-dasharray:none;stroke-opacity:1;visibility:visible"/><path d="m597.065 842.31-.09.143M580.907 849.034l.012-2.47" style="fill:none;stroke:red;stroke-width:.999997;stroke-linecap:round;stroke-linejoin:round;stroke-miterlimit:4;stroke-dasharray:none;stroke-opacity:1;visibility:visible"/><path d="m643.588 860.69-50.88-17.263" style="fill:none;stroke:red;stroke-width:1.99999;stroke-linecap:round;stroke-linejoin:round;stroke-miterlimit:4;stroke-dasharray:none;stroke-opacity:1;visibility:visible"/><path d="m581.02 846.418-.1.145M564.653 853.245l.015-2.525" style="fill:none;stroke:red;stroke-width:.999997;stroke-linecap:round;stroke-linejoin:round;stroke-miterlimit:4;stroke-dasharray:none;stroke-opacity:1;visibility:visible"/><path d="m627.402 865.045-50.804-17.495" style="fill:none;stroke:red;stroke-width:1.99999;stroke-linecap:round;stroke-linejoin:round;stroke-miterlimit:4;stroke-dasharray:none;stroke-opacity:1;visibility:visible"/><path d="m564.754 850.575-.085.145M548.187 857.523v-2.583" style="fill:none;stroke:red;stroke-width:.999997;stroke-linecap:round;stroke-linejoin:round;stroke-miterlimit:4;stroke-dasharray:none;stroke-opacity:1;visibility:visible"/><path d="m610.988 869.444-50.7-17.717" style="fill:none;stroke:red;stroke-width:1.99999;stroke-linecap:round;stroke-linejoin:round;stroke-miterlimit:4;stroke-dasharray:none;stroke-opacity:1;visibility:visible"/><path d="m548.284 854.796-.096.144M531.5 861.853v-2.647" style="fill:none;stroke:red;stroke-width:.999997;stroke-linecap:round;stroke-linejoin:round;stroke-miterlimit:4;stroke-dasharray:none;stroke-opacity:1;visibility:visible"/><path d="m594.37 873.9-50.615-17.952" style="fill:none;stroke:red;stroke-width:1.99999;stroke-linecap:round;stroke-linejoin:round;stroke-miterlimit:4;stroke-dasharray:none;stroke-opacity:1;visibility:visible"/><path d="m531.597 859.06-.097.145" style="fill:none;stroke:red;stroke-width:.999997;stroke-linecap:round;stroke-linejoin:round;stroke-miterlimit:4;stroke-dasharray:none;stroke-opacity:1;visibility:visible"/><path d="m577.517 878.43-50.515-18.195M497.553 867.773h.02M560.43 883.005l-46.323-16.94M497.553 867.773l-.101.143" style="fill:none;stroke:red;stroke-width:1.99999;stroke-linecap:round;stroke-linejoin:round;stroke-miterlimit:4;stroke-dasharray:none;stroke-opacity:1;visibility:visible"/><path d="m480.1 875.206-.01-2.836" style="fill:none;stroke:red;stroke-width:.999997;stroke-linecap:round;stroke-linejoin:round;stroke-miterlimit:4;stroke-dasharray:none;stroke-opacity:1;visibility:visible"/><path d="m543.113 887.649-29-10.757M497.573 870.74l-4.741-1.761" style="fill:none;stroke:red;stroke-width:1.99999;stroke-linecap:round;stroke-linejoin:round;stroke-miterlimit:4;stroke-dasharray:none;stroke-opacity:1;visibility:visible"/><path d="m480.19 872.214-.1.156M462.505 879.683l-.023-2.815" style="fill:none;stroke:red;stroke-width:.999997;stroke-linecap:round;stroke-linejoin:round;stroke-miterlimit:4;stroke-dasharray:none;stroke-opacity:1;visibility:visible"/><path d="m525.552 892.369-11.413-4.31M497.604 881.82l-22.201-8.376" style="fill:none;stroke:red;stroke-width:1.99999;stroke-linecap:round;stroke-linejoin:round;stroke-miterlimit:4;stroke-dasharray:none;stroke-opacity:1;visibility:visible"/><path d="m462.586 876.724-.103.143" style="fill:none;stroke:red;stroke-width:.999997;stroke-linecap:round;stroke-linejoin:round;stroke-miterlimit:4;stroke-dasharray:none;stroke-opacity:1;visibility:visible"/><path d="M448.075 966.198a3.612 3.612 0 0 0 .555 2.194M448.54 965.242l.44-.112M449.49 968.997l.441-.113M449.736 965.64a1.55 1.55 0 0 0-.486-.472M450.352 968.078a4.027 4.027 0 0 0-.108-1.27 4.044 4.044 0 0 0-.508-1.166M450.148 968.722a1.45 1.45 0 0 0 .203-.644M449.932 968.884a.347.347 0 0 0 .218-.162M449.25 965.17a.352.352 0 0 0-.27-.04M449.001 966.8l.15.681M448.732 966.575l.27.225M449.152 967.482l-.13.25M503.404 991.326a3.612 3.612 0 0 0 .1 1.141c.093.373.248.73.456 1.05M449.22 968.956a.35.35 0 0 0 .27.042M448.732 968.486a1.467 1.467 0 0 0 .488.47M448.32 965.406a1.444 1.444 0 0 0-.202.644M448.539 965.243a.363.363 0 0 0-.219.163M503.87 990.369l.441-.112M504.82 994.124l.441-.113M505.065 990.766a1.547 1.547 0 0 0-.485-.471M505.681 993.203a4.027 4.027 0 0 0-.108-1.27 4.084 4.084 0 0 0-.508-1.166M505.479 993.848c.118-.196.186-.416.201-.644M505.26 994.011a.347.347 0 0 0 .217-.163M504.579 990.296a.361.361 0 0 0-.269-.038M504.33 991.926l.152.684M504.061 991.702l.27.224M504.483 992.61l-.13.25M503.095 909.774a3.576 3.576 0 0 0 .555 2.193M504.55 994.082a.35.35 0 0 0 .268.041M504.063 993.614c.126.193.29.353.486.469M503.652 990.531a1.447 1.447 0 0 0-.204.647M503.868 990.368a.37.37 0 0 0-.217.163M503.56 908.817l.441-.112M504.512 912.572l.44-.113M504.756 909.215a1.58 1.58 0 0 0-.486-.472M505.372 911.651a4.067 4.067 0 0 0-.11-1.27 4.02 4.02 0 0 0-.505-1.165M505.17 912.297a1.45 1.45 0 0 0 .201-.644M504.95 912.46a.35.35 0 0 0 .22-.164M504.27 908.745a.365.365 0 0 0-.27-.04M504.02 910.375l.152.683M503.753 910.15l.268.225M504.173 911.058l-.13.25M503.043 827.14a3.612 3.612 0 0 0 .556 2.192M504.241 912.531a.355.355 0 0 0 .27.04M503.753 912.062c.127.193.29.353.487.47M503.341 908.982a1.444 1.444 0 0 0-.201.645M503.559 908.817a.367.367 0 0 0-.219.163M503.509 826.183l.44-.112M504.46 829.938l.441-.113M504.705 826.58a1.58 1.58 0 0 0-.485-.47M505.32 829.018a4.067 4.067 0 0 0-.108-1.27 4.052 4.052 0 0 0-.508-1.166M505.117 829.663a1.45 1.45 0 0 0 .203-.643M504.9 829.826a.357.357 0 0 0 .217-.163M504.217 826.109a.357.357 0 0 0-.269-.039M503.97 827.74l.15.683M503.7 827.516l.27.224M504.12 828.422l-.13.25M504.188 829.897a.356.356 0 0 0 .27.041M503.701 829.427a1.467 1.467 0 0 0 .487.471M503.29 826.347a1.444 1.444 0 0 0-.204.646M503.508 826.183a.363.363 0 0 0-.218.163" style="fill:none;stroke:red;stroke-width:.666665;stroke-linecap:round;stroke-linejoin:round;stroke-miterlimit:2;stroke-dasharray:none;stroke-opacity:1;visibility:visible"/><path d="m480.804 878.455.49-.134" style="fill:none;stroke:red;stroke-width:.666665;stroke-linecap:round;stroke-linejoin:round;stroke-miterlimit:4;stroke-dasharray:.507999;stroke-dashoffset:0;stroke-opacity:1;visibility:visible"/><path d="m479.365 877.84.516.37M477.9 871.062l-.25.583" style="fill:none;stroke:red;stroke-width:.666665;stroke-linecap:round;stroke-linejoin:round;stroke-miterlimit:4;stroke-dasharray:.634665;stroke-dashoffset:0;stroke-opacity:1;visibility:visible"/><path d="m473.205 873.6-1.285.358M477.39 872.442l-1.287.356M477.445 877.647l1.286-.356M473.261 878.803l1.286-.356" style="fill:none;stroke:red;stroke-width:.666665;stroke-linecap:round;stroke-linejoin:round;stroke-miterlimit:4;stroke-dasharray:none;stroke-opacity:1;visibility:visible"/><path d="m472.425 878.617.536.176M471.67 874.12l-.37.427" style="fill:none;stroke:red;stroke-width:.666665;stroke-linecap:round;stroke-linejoin:round;stroke-miterlimit:4;stroke-dasharray:.563999;stroke-dashoffset:0;stroke-opacity:1;visibility:visible"/><path d="m478.567 870.374.09-.019.085-.005h.091l.095.012.095.023.097.03.1.042.1.053.1.06.1.07.104.083.1.087.032.032" style="fill:none;stroke:red;stroke-width:.666665;stroke-linecap:round;stroke-linejoin:round;stroke-miterlimit:4;stroke-dasharray:none;stroke-opacity:1;visibility:visible"/><path d="m481.13 873.133.046.114.067.196.064.2.06.199.057.203.048.201.05.203.038.201.041.203.035.202.028.199.02.196.017.197.014.19.01.19.003.183-.001.18-.007.173-.012.17-.018.166-.02.155-.009.043" style="fill:none;stroke:red;stroke-width:.666665;stroke-linecap:round;stroke-linejoin:round;stroke-miterlimit:4;stroke-dasharray:2.69333,2.69333;stroke-dashoffset:0;stroke-opacity:1;visibility:visible"/><path d="m481.105 878.294-.057.046-.078.049-.079.038-.087.028-.084.019-.09.01-.093-.003-.094-.012-.094-.022-.098-.032-.098-.041-.1-.052-.1-.063-.072-.049" style="fill:none;stroke:red;stroke-width:.666665;stroke-linecap:round;stroke-linejoin:round;stroke-miterlimit:4;stroke-dasharray:none;stroke-opacity:1;visibility:visible"/><path d="M478.567 870.374a1.12 1.12 0 0 0-.667.69" style="fill:none;stroke:red;stroke-width:.666665;stroke-linecap:round;stroke-linejoin:round;stroke-miterlimit:4;stroke-dasharray:.987998;stroke-dashoffset:0;stroke-opacity:1;visibility:visible"/><path d="m479.057 870.24.086-.02.086-.008.094.002.096.01.093.026.095.029.1.043.1.052.101.06.1.072.103.08.099.09.034.03" style="fill:none;stroke:red;stroke-width:.666665;stroke-linecap:round;stroke-linejoin:round;stroke-miterlimit:4;stroke-dasharray:none;stroke-opacity:1;visibility:visible"/><path d="m481.497 872.691.018.04.077.189.072.194.066.193.066.199.057.2.058.203.048.201.05.204.041.203.037.2.036.205.025.196.025.199.018.193.014.193.006.187.005.185v.066" style="fill:none;stroke:red;stroke-width:.666665;stroke-linecap:round;stroke-linejoin:round;stroke-miterlimit:4;stroke-dasharray:2.36399,2.36399;stroke-dashoffset:0;stroke-opacity:1;visibility:visible"/><path d="m478.892 873.045-.027-.039-.073-.106-.08-.098-.077-.087-.082-.08-.078-.069-.078-.064-.08-.052-.075-.043-.078-.033-.074-.021-.077-.013-.072-.001-.069.008-.03.007M479.183 877.203l.066-.025.063-.032.058-.043.054-.053.052-.065.045-.072.043-.08.04-.087.032-.099.028-.106.027-.112.019-.123.014-.125.008-.111M472.181 875.842l-.014-.028-.048-.094-.05-.086-.049-.085-.053-.076-.055-.078-.052-.065-.056-.064-.057-.056-.055-.05-.055-.042-.057-.036-.05-.03-.059-.022-.051-.016-.052-.01-.048-.001-.05.004-.024.008M472.188 878.411l.045-.016.043-.022.041-.031.04-.039.033-.043.035-.05.028-.056.027-.064.025-.069.02-.074.018-.077.014-.085.008-.09.006-.09.004-.098v-.1l-.005-.102-.006-.086M472.839 874.683l-.026-.036-.076-.107-.08-.098-.077-.085-.077-.083-.08-.07-.083-.061-.079-.053-.076-.044-.078-.03-.074-.026-.072-.01-.071-.002-.07.01-.033.005M473.13 878.842l.067-.025.059-.032.057-.045.058-.051.052-.063.045-.073.043-.08.037-.091.035-.096.027-.106.025-.113.02-.122.013-.125.008-.113M482.073 877.31l-.012.04-.041.131-.044.125-.05.109-.056.106-.06.094-.062.087-.067.077-.071.067-.074.06-.079.048-.077.039-.085.029M471.044 875.827l-.003-.037-.006-.14v-.13l.005-.129.01-.121.014-.117.02-.108.023-.1.028-.098.035-.087.037-.078.042-.07.046-.062.004-.003" style="fill:none;stroke:red;stroke-width:.666665;stroke-linecap:round;stroke-linejoin:round;stroke-miterlimit:4;stroke-dasharray:none;stroke-opacity:1;visibility:visible"/><path d="m472.425 878.617-.035-.015-.073-.032-.076-.043-.07-.052-.075-.064-.075-.07-.07-.081-.072-.089-.075-.093-.07-.104-.066-.11-.068-.116-.049-.098" style="fill:none;stroke:red;stroke-width:.666665;stroke-linecap:round;stroke-linejoin:round;stroke-miterlimit:4;stroke-dasharray:none;stroke-opacity:1;visibility:visible"/><path d="m514.236 968.347-16.342 8.628M451.09 877.366l.126 15.212M514.139 888.06l-16.488 7.744M503.086 826.993l3.749-8.904M497.793 943.36l16.413-4.687M514.205 940.867l-16.412 2.493M400.802 806.25l-6.994 5.378M385.316 794.64l8.081-14.07M385.464 803.44l8.216-1.467M514.205 940.867l-16.412 4.685M514.236 968.347l-16.363 2.28M497.693 948.913l.147 9.161M525.627 973.131l-11.39-8.199M514.236 968.347l16.166 3.356M497.805 949.2l16.412 3.489" style="fill:none;stroke:red;stroke-width:.999997;stroke-linecap:round;stroke-linejoin:round;stroke-miterlimit:4;stroke-dasharray:none;stroke-opacity:1;visibility:visible"/><path d="m521.914 975.371-7.654 3.579" style="fill:none;stroke:red;stroke-width:.666665;stroke-linecap:round;stroke-linejoin:round;stroke-miterlimit:4;stroke-dasharray:none;stroke-opacity:1;visibility:visible"/><path d="m514.251 976.544 7.663-1.173M723.31 913.853l-7.09 3.169M723.31 913.853l-14.183 4.255" style="fill:none;stroke:red;stroke-width:.999997;stroke-linecap:round;stroke-linejoin:round;stroke-miterlimit:4;stroke-dasharray:none;stroke-opacity:1;visibility:visible"/><path d="m504.001 908.705 10.147-11.095" style="fill:none;stroke:red;stroke-width:.666665;stroke-linecap:round;stroke-linejoin:round;stroke-miterlimit:4;stroke-dasharray:none;stroke-opacity:1;visibility:visible"/><path d="m727.927 853.887-10.291-12.109M724.786 838.918l-14.349 3.845M497.573 870.74l16.54 3.16M497.452 867.916l.145 10.847M525.552 892.369l-11.425-7.391M514.139 888.06l16.232 3.014M514.139 888.06l-16.5 2.048" style="fill:none;stroke:red;stroke-width:.999997;stroke-linecap:round;stroke-linejoin:round;stroke-miterlimit:4;stroke-dasharray:none;stroke-opacity:1;visibility:visible"/><path d="m454.905 955.691-12.563-5.36M514.236 968.347l-16.353 5.693M448.075 966.198l-5.715-13.586M451.09 877.366l-9.274 11.522" style="fill:none;stroke:red;stroke-width:1.99999;stroke-linecap:round;stroke-linejoin:round;stroke-miterlimit:4;stroke-dasharray:none;stroke-opacity:1;visibility:visible"/><path d="m462.505 879.683-8.044 14.17" style="fill:none;stroke:red;stroke-width:.999997;stroke-linecap:round;stroke-linejoin:round;stroke-miterlimit:4;stroke-dasharray:none;stroke-opacity:1;visibility:visible"/><path d="m441.816 888.888-.131-15.131M454.33 876.545l-12.668-4.851M514.139 888.06l-16.5 5.096M503.086 826.993l-5.669-10.836M503.086 826.993l10.95-10.623M504.901 829.825l9.163.406M393.68 801.973l-8.216 1.466M385.464 803.44l-.148-8.8M400.802 806.25l.114 9.043M401.645 873.1l-.209-16.84M393.68 801.973l6.977-7.153M393.808 811.628l6.994-5.377M401.436 856.26l.209 16.84M402.475 950.119l-.08-16.84M395.637 949.697l6.838.422M719.13 856.313l.336-17.128M719.466 839.185l-.336 17.128M717.937 931.339l.088-17.229M718.025 914.11l-.088 17.229M724.786 838.918l-5.231-4.631M546.858 945.52l16.698-4.875M546.97 945.487l16.555-4.83M563.525 940.657l-16.555 4.83M530.159 950.383l16.699-4.863M546.858 945.52l-16.699 4.863M546.97 945.487l-16.998 4.953" style="fill:none;stroke:red;stroke-width:1.99999;stroke-linecap:round;stroke-linejoin:round;stroke-miterlimit:4;stroke-dasharray:none;stroke-opacity:1;visibility:visible"/><path d="m658.204 900.126 15.343-1.718" style="fill:none;stroke:red;stroke-width:.999997;stroke-linecap:round;stroke-linejoin:round;stroke-miterlimit:4;stroke-dasharray:none;stroke-opacity:1;visibility:visible"/><path d="m514.237 964.932 11.39 8.199M530.402 971.703l-16.166-3.356M497.693 948.913l.157 12.541M457.885 956.966l17.928-4.764M497.84 958.074l16.385-2.083M497.805 948.968l-4.695-1.716M497.805 948.968l16.4-4.954M505.261 994.01l9.009-.224M521.914 975.371l-7.663 1.173" style="fill:none;stroke:red;stroke-width:1.99999;stroke-linecap:round;stroke-linejoin:round;stroke-miterlimit:4;stroke-dasharray:none;stroke-opacity:1;visibility:visible"/><path d="m497.561 865.42 16.547-4.219M514.107 863.186l-16.546 2.234M643.057 904.458l15.116-1.863" style="fill:none;stroke:red;stroke-width:.999997;stroke-linecap:round;stroke-linejoin:round;stroke-miterlimit:4;stroke-dasharray:none;stroke-opacity:1;visibility:visible"/><path d="m723.31 913.853-3.248.975M723.31 913.853l-5.74-4.743" style="fill:none;stroke:red;stroke-width:1.99999;stroke-linecap:round;stroke-linejoin:round;stroke-miterlimit:4;stroke-dasharray:none;stroke-opacity:1;visibility:visible"/><path d="m612.189 913.298 15.497-1.871M627.72 908.856l15.304-1.871" style="fill:none;stroke:red;stroke-width:.999997;stroke-linecap:round;stroke-linejoin:round;stroke-miterlimit:4;stroke-dasharray:none;stroke-opacity:1;visibility:visible"/><path d="m723.31 913.853-18.316 5.484" style="fill:none;stroke:red;stroke-width:1.99999;stroke-linecap:round;stroke-linejoin:round;stroke-miterlimit:4;stroke-dasharray:none;stroke-opacity:1;visibility:visible"/><path d="m564.376 926.97 16.134-1.86M596.452 917.797l15.713-1.871M580.52 922.362l15.912-1.872" style="fill:none;stroke:red;stroke-width:.999997;stroke-linecap:round;stroke-linejoin:round;stroke-miterlimit:4;stroke-dasharray:none;stroke-opacity:1;visibility:visible"/><path d="m504.952 912.459 9.222.221M717.636 841.778l10.29 12.109M504.001 908.705l10.147-13.278M724.786 838.918l-3.338.886M724.786 838.918l-18.509 4.965" style="fill:none;stroke:red;stroke-width:1.99999;stroke-linecap:round;stroke-linejoin:round;stroke-miterlimit:4;stroke-dasharray:none;stroke-opacity:1;visibility:visible"/><path d="m612.822 838.398 15.618-1.698M596.974 842.453l15.821-1.695M580.919 846.563l16.043-1.694M564.668 850.72l16.239-1.686M548.187 854.94l16.466-1.695M531.5 859.206l16.687-1.683M548.187 854.94l-16.687 6.913" style="fill:none;stroke:red;stroke-width:.999997;stroke-linecap:round;stroke-linejoin:round;stroke-miterlimit:4;stroke-dasharray:none;stroke-opacity:1;visibility:visible"/><path d="m497.573 867.96 16.534-1.895M497.597 878.763l16.516-1.871M497.452 867.916l.121 2.824M497.573 867.96l-4.741 1.019" style="fill:none;stroke:red;stroke-width:1.99999;stroke-linecap:round;stroke-linejoin:round;stroke-miterlimit:4;stroke-dasharray:none;stroke-opacity:1;visibility:visible"/><path d="m472.564 877.219-10.059 2.464" style="fill:none;stroke:red;stroke-width:.999997;stroke-linecap:round;stroke-linejoin:round;stroke-miterlimit:4;stroke-dasharray:none;stroke-opacity:1;visibility:visible"/><path d="m514.127 884.978 11.425 7.391M530.371 891.074l-16.232-3.014M492.832 868.979l4.772 12.841" style="fill:none;stroke:red;stroke-width:1.99999;stroke-linecap:round;stroke-linejoin:round;stroke-miterlimit:4;stroke-dasharray:none;stroke-opacity:1;visibility:visible"/><path d="m471.246 875.015 1.959-1.415M474.547 878.447l2.898-.8M473.13 878.842l1.417-.395" style="fill:none;stroke:red;stroke-width:.666665;stroke-linecap:round;stroke-linejoin:round;stroke-miterlimit:4;stroke-dasharray:none;stroke-opacity:1;visibility:visible"/><path d="m479.732 876.07 2.484.071" style="fill:none;stroke:red;stroke-width:.666665;stroke-linecap:round;stroke-linejoin:round;stroke-miterlimit:4;stroke-dasharray:2.36399,2.36399;stroke-dashoffset:0;stroke-opacity:1;visibility:visible"/><path d="m471.551 877.65.63-1.808M471.044 875.827l1.52 1.392M480.1 875.206l-6.424 2.501" style="fill:none;stroke:red;stroke-width:.666665;stroke-linecap:round;stroke-linejoin:round;stroke-miterlimit:4;stroke-dasharray:none;stroke-opacity:1;visibility:visible"/><path d="m504.562 803.162.035 15.457M379.515 761.413l125.048 41.75 237.315-54.947" style="fill:none;stroke:#00ff4a;stroke-width:.999997;stroke-linecap:round;stroke-linejoin:round;stroke-miterlimit:4;stroke-dasharray:none;stroke-opacity:1;visibility:visible" visibility="hidden"/><path d="m504.597 818.62 236.98-56.287M379.723 775.895l124.874 42.724M741.88 748.216l-.301 14.117M741.88 748.216l-128.764-34.781M379.515 761.413l.208 14.481M613.115 713.435l-233.6 47.979M506.945 649.237l76.128 25.001" style="fill:none;stroke:#00ff4a;stroke-width:1.99999;stroke-linecap:round;stroke-linejoin:round;stroke-miterlimit:4;stroke-dasharray:none;stroke-opacity:1;visibility:visible" visibility="hidden"/><path d="m476.675 629.437 23.119-77.84M484.285 633.995c-3.668 2.34-2.335 6.225-2.335 6.225.753 1.943-.374 3.972-1.257 5.156M479.39 632.627c1.417 3.186-2.068 6.838-2.068 6.838-1.739 1.51-1.573 3.576-1.403 4.676M487.22 632.592c-4.379 2.7-2.43 5.987-2.43 5.987M475.201 636.3c4.562-2.612 1.71-6.48 1.71-6.48M484.79 638.579c.844 1.36.226 3.58-.82 5.071M473.645 641.483c-.365-1.83.416-4.563 1.556-5.183M487.89 632.183l-3.432 1.736M476.675 629.437l2.716 3.188 5.067 1.293M483.97 643.65l-3.276 1.725" style="fill:none;stroke:#00ff4a;stroke-width:.666665;stroke-linecap:round;stroke-linejoin:round;stroke-miterlimit:10;stroke-dasharray:2.66666,2.66666;stroke-dashoffset:0;stroke-opacity:1;visibility:visible" visibility="hidden"/><path d="m473.647 641.482 2.273 2.657 4.774 1.236" style="fill:none;stroke:#00ff4a;stroke-width:.666665;stroke-linecap:round;stroke-linejoin:round;stroke-miterlimit:10;stroke-dasharray:2.66666,2.66666;stroke-dashoffset:0;stroke-opacity:1;visibility:visible" visibility="hidden"/><path d="m741.579 762.333-11.001 2.614M514.139 888.06l7.731 6.314" style="fill:none;stroke:red;stroke-width:.999997;stroke-linecap:round;stroke-linejoin:round;stroke-miterlimit:4;stroke-dasharray:none;stroke-opacity:1;visibility:visible"/><path d="m379.723 775.894 5.354 1.828M741.579 762.333l-4.997 1.185M720.062 914.828l6.369 13.906" style="fill:none;stroke:red;stroke-width:1.99999;stroke-linecap:round;stroke-linejoin:round;stroke-miterlimit:4;stroke-dasharray:none;stroke-opacity:1;visibility:visible"/></svg>