<svg xmlns="http://www.w3.org/2000/svg" baseProfile="full" height="1122.52" preserveAspectRatio="xMinYMin meet" style="width:729px;height:902px" width="793.701" xml:space="preserve"><path d="m387.89 485.284-.05-3.924" style="fill:none;stroke:red;stroke-width:.999997;stroke-linecap:round;stroke-linejoin:round;stroke-miterlimit:4;stroke-dasharray:none;stroke-opacity:1;visibility:visible" visibility="hidden"/><path d="m334.089 502.566 53.8-17.282" style="fill:none;stroke:red;stroke-width:1.99999;stroke-linecap:round;stroke-linejoin:round;stroke-miterlimit:4;stroke-dasharray:none;stroke-opacity:1;visibility:visible" visibility="hidden"/><path d="m329.155 500.134 58.685-18.774" style="fill:none;stroke:red;stroke-width:.999997;stroke-linecap:round;stroke-linejoin:round;stroke-miterlimit:4;stroke-dasharray:none;stroke-opacity:1;visibility:visible" visibility="hidden"/><path d="M329.235 500.179 374.3 526.17M291.74 478.554l19.919 11.489" style="fill:none;stroke:red;stroke-width:1.99999;stroke-linecap:round;stroke-linejoin:round;stroke-miterlimit:4;stroke-dasharray:none;stroke-opacity:1;visibility:visible" visibility="hidden"/><path d="m290.375 489.746 21.93 12.804 48.105 28.089" style="fill:none;stroke:red;stroke-width:.999997;stroke-linecap:round;stroke-linejoin:round;stroke-miterlimit:4;stroke-dasharray:none;stroke-opacity:1;visibility:visible" visibility="hidden"/><path d="m229.78 485.343-4.856-2.93M224.925 482.415l-.345-8.553M354.966 532.508l-64.91-38.09" style="fill:none;stroke:red;stroke-width:1.99999;stroke-linecap:round;stroke-linejoin:round;stroke-miterlimit:4;stroke-dasharray:none;stroke-opacity:1;visibility:visible" visibility="hidden"/><path d="m228.662 480.488.001.06v.059l-.002.059-.006.054-.008.054-.013.05-.01.048-.012.044-.018.044-.019.036-.022.038-.02.03-.024.028-.026.024-.028.02-.03.018-.028.012-.034.009-.033.003h-.032l-.035-.003-.033-.01-.039-.009-.034-.017-.035-.02-.039-.024-.036-.028-.034-.03-.039-.036-.034-.039-.034-.039-.036-.044-.033-.049-.03-.05-.035-.053-.029-.055-.03-.057-.027-.06-.028-.059-.023-.062-.02-.064-.021-.063-.02-.067-.018-.065-.014-.065-.012-.063-.01-.065-.008-.066-.003-.062-.006-.064-.002-.06.002-.06.003-.056.004-.054.009-.054.011-.051.01-.047.018-.045.015-.041.017-.04.02-.034.024-.031.024-.03.023-.024.028-.021.03-.015.031-.012.03-.01.034-.004.032-.001.036.004.033.008.036.012.039.018.035.018.034.024.038.028.036.03.037.035.035.038.035.043.035.044.032.048.034.049.029.051.033.056.03.058.025.059.028.061.024.062.021.064.022.064.017.064.02.065.012.065.012.064.01.066.01.065.006.063.002.062M231.257 477.852l-6.677-3.992" style="fill:none;stroke:red;stroke-width:.999997;stroke-linecap:round;stroke-linejoin:round;stroke-miterlimit:4;stroke-dasharray:none;stroke-opacity:1;visibility:visible" visibility="hidden"/><path d="m228.609 480.104.013.066.013.064.01.065.008.064.007.064.002.063" style="fill:none;stroke:red;stroke-width:.999997;stroke-linecap:round;stroke-linejoin:round;stroke-miterlimit:4;stroke-dasharray:none;stroke-opacity:1;visibility:visible" visibility="hidden"/><path d="m292.746 469.051 18.617-5.696" style="fill:none;stroke:red;stroke-width:1.99999;stroke-linecap:round;stroke-linejoin:round;stroke-miterlimit:4;stroke-dasharray:none;stroke-opacity:1;visibility:visible" visibility="hidden"/><path d="m311.1 454.959-17.02 5.16" style="fill:none;stroke:red;stroke-width:.999997;stroke-linecap:round;stroke-linejoin:round;stroke-miterlimit:4;stroke-dasharray:none;stroke-opacity:1;visibility:visible" visibility="hidden"/><path d="m403.796 478.864 38.02 20.563M310.225 448.098l-14.528 4.37M233.826 471.082l-9.246 2.78" style="fill:none;stroke:red;stroke-width:1.99999;stroke-linecap:round;stroke-linejoin:round;stroke-miterlimit:4;stroke-dasharray:none;stroke-opacity:1;visibility:visible" visibility="hidden"/><path d="m400.574 484.095-.014-.007M400.574 484.095l-.014-.008-.018-.007-.018-.008-.022-.006-.016-.006-.023-.006-.024-.004-.02-.004-.025-.004-.024-.004-.024-.002-.023-.002-.027-.002-.028-.001h-.022l-.028.001-.024.003-.026.001-.024.004-.024.002-.024.004-.022.004-.024.005-.02.007-.023.005-.016.008-.023.007-.017.008-.016.008-.016.009-.013.01-.016.006-.009.011-.006.011-.009.009-.01.011-.005.009-.001.011-.004.009v.023l.004.011.005.01.007.009.006.012.007.01.013.01.012.008.012.01.015.005.016.011.017.007.018.007.017.005.023.008.022.006.02.004.023.004.024.004.023.004.026.002.024.002.026.002h.052l.024-.001.025-.001.023-.002.026-.004.024-.002.024-.004.023-.004.023-.006.022-.004.02-.01.02-.004.022-.01.014-.006.018-.008.014-.008.015-.01.012-.01.01-.01.012-.01.009-.007.006-.012.003-.012.005-.01.004-.009v-.022l-.005-.01-.004-.01-.007-.012-.006-.01-.011-.008-.01-.012-.012-.007-.011-.009-.016-.01M391.147 483.17l42.504 23.254" style="fill:none;stroke:red;stroke-width:.999997;stroke-linecap:round;stroke-linejoin:round;stroke-miterlimit:4;stroke-dasharray:none;stroke-opacity:1;visibility:visible" visibility="hidden"/><path d="m399.935 484.096-.016.01-.012.009-.015.008-.009.01-.01.011-.006.009-.011.011-.004.009-.001.011-.004.009v.023l.004.011.004.01.007.008.006.013.007.01.015.008.01.01.012.009.015.007.017.008.018.009.016.007.018.004.022.009.022.005.022.006.021.002.025.004.022.004.026.003.024.001.026.003h.052l.025-.001.024-.002.024-.001.025-.004.024-.003.026-.004.021-.004.024-.005.021-.005.022-.008.02-.006.02-.01.016-.005.017-.009.013-.008.015-.01.013-.009.012-.011.009-.007.01-.011.005-.01.003-.012.005-.01.004-.01v-.022l-.005-.01-.004-.01-.007-.01-.006-.01-.01-.01-.01-.01-.011-.01-.013-.006-.016-.011M400.27 484.03h-.051l-.025.005-.024.001-.026.004-.022.002-.026.004" style="fill:none;stroke:red;stroke-width:.999997;stroke-linecap:round;stroke-linejoin:round;stroke-miterlimit:4;stroke-dasharray:none;stroke-opacity:1;visibility:visible" visibility="hidden"/><path d="m428.076 508.356-40.96-22.522" style="fill:none;stroke:red;stroke-width:1.99999;stroke-linecap:round;stroke-linejoin:round;stroke-miterlimit:4;stroke-dasharray:none;stroke-opacity:1;visibility:visible" visibility="hidden"/><path d="m344.124 545.337.18 9.078" style="fill:none;stroke:red;stroke-width:.999997;stroke-linecap:round;stroke-linejoin:round;stroke-miterlimit:4;stroke-dasharray:none;stroke-opacity:1;visibility:visible" visibility="hidden"/><path d="m528.561 491.854-184.258 62.56" style="fill:none;stroke:red;stroke-width:1.99999;stroke-linecap:round;stroke-linejoin:round;stroke-miterlimit:4;stroke-dasharray:none;stroke-opacity:1;visibility:visible" visibility="hidden"/><path d="m528.663 483.24-184.539 62.097M528.663 483.24l-.103 8.612M528.663 483.239l-.103 8.613" style="fill:none;stroke:red;stroke-width:.999997;stroke-linecap:round;stroke-linejoin:round;stroke-miterlimit:4;stroke-dasharray:none;stroke-opacity:1;visibility:visible" visibility="hidden"/><path d="m441.836 504.086-79.833 26.633M519.008 478.336l-59.777 19.944M344.302 554.415l-7.628-4.599" style="fill:none;stroke:red;stroke-width:1.99999;stroke-linecap:round;stroke-linejoin:round;stroke-miterlimit:4;stroke-dasharray:none;stroke-opacity:1;visibility:visible" visibility="hidden"/><path d="m403.814 478.876-12.931 4.147M400.955 177.114l-13.613 2.972M390.883 483.024l-3.541-302.936M469.19 455.439l46.556 23.704" style="fill:none;stroke:red;stroke-width:.999997;stroke-linecap:round;stroke-linejoin:round;stroke-miterlimit:4;stroke-dasharray:none;stroke-opacity:1;visibility:visible" visibility="hidden"/><path d="m401.011 183.222-.056-6.109" style="fill:none;stroke:red;stroke-width:1.99999;stroke-linecap:round;stroke-linejoin:round;stroke-miterlimit:4;stroke-dasharray:none;stroke-opacity:1;visibility:visible" visibility="hidden"/><path d="m387.342 180.086-3.362-1.268M390.883 483.024l-3.203-1.752M390.883 483.024l-3.203-1.752M383.98 178.818l3.7 302.453" style="fill:none;stroke:red;stroke-width:.999997;stroke-linecap:round;stroke-linejoin:round;stroke-miterlimit:4;stroke-dasharray:none;stroke-opacity:1;visibility:visible" visibility="hidden"/><path d="m398.452 176.181 2.503.933" style="fill:none;stroke:red;stroke-width:1.99999;stroke-linecap:round;stroke-linejoin:round;stroke-miterlimit:4;stroke-dasharray:none;stroke-opacity:1;visibility:visible" visibility="hidden"/><path d="m458.93 460.45 44.363 22.833" style="fill:none;stroke:red;stroke-width:.999997;stroke-linecap:round;stroke-linejoin:round;stroke-miterlimit:4;stroke-dasharray:none;stroke-opacity:1;visibility:visible" visibility="hidden"/><path d="m362.003 530.719-25.517 10.054" style="fill:none;stroke:red;stroke-width:1.99999;stroke-linecap:round;stroke-linejoin:round;stroke-miterlimit:4;stroke-dasharray:none;stroke-opacity:1;visibility:visible" visibility="hidden"/><path d="m515.957 484.842-.04.013-.042.015-.035.018-.032.019-.033.019-.028.018-.024.022-.02.02-.02.022-.015.023-.012.019-.01.025-.004.023v.046l.005.022.01.024.01.02.016.025.02.019.02.023.024.021.028.018.033.02.033.019.034.017.045.016.037.018.046.014.046.014.047.01.05.012.051.01.049.008.056.006.051.007.058.003.053.004h.167l.053-.004.055-.006.051-.004.054-.01.048-.007.05-.01.048-.013.046-.01.044-.015.041-.013.039-.018.036-.017.035-.017.032-.02.026-.02.026-.015.021-.025.017-.022.017-.021.014-.023.005-.024.008-.02.003-.025-.003-.023-.007-.022-.01-.023-.01-.021-.018-.022-.016-.024-.021-.02-.026-.022-.026-.02-.033-.018-.034-.02-.036-.017-.041-.016-.039-.017-.044-.014-.047-.012-.048-.012-.05-.012-.051-.01-.049-.006-.055-.009-.052-.005-.056-.004-.053-.002-.056-.002h-.055l-.056.003-.055.003-.052.004-.054.006-.05.008-.053.008-.048.009-.046.012-.047.013-.046.014M373.356 532.692l-.045.016-.044.019-.04.018-.039.02-.036.019-.034.023-.028.022-.027.023-.021.025-.02.023-.016.024-.012.027-.01.022-.006.027v.05l.006.028.01.023.012.024.016.026.02.021.024.023.024.022.031.023.033.02.037.019.037.017.044.017.042.017.044.014.048.013.05.014.054.009.053.011.053.006.056.008.058.003.057.003.057.002h.058l.058-.002.058-.003.058-.007.056-.006.056-.01.056-.005.052-.013.05-.012.05-.015.05-.015.044-.017.045-.017.041-.018.036-.02.038-.023.032-.02.03-.021.026-.025.024-.023.02-.025.014-.023.015-.026.007-.024.006-.026v-.05l-.006-.027-.01-.025-.014-.023-.014-.024-.018-.024-.027-.023-.023-.02-.032-.023-.033-.021-.035-.017-.04-.02-.038-.017-.046-.015-.048-.015-.045-.013-.05-.013-.05-.01-.055-.011-.056-.007-.056-.006-.056-.005-.06-.001-.056-.002h-.056l-.06.002-.058.003-.058.005-.053.008-.056.007-.057.009-.052.011-.052.013-.05.014-.048.015M519.008 478.336l9.655 4.904M519.008 478.336l9.655 4.904M336.486 540.773l7.638 4.564M501.923 476.702l.077.042.068.043.065.045.058.048.048.047.041.05.036.05.024.052.021.051.012.05.002.055-.005.051-.013.053-.017.05-.03.051-.035.049-.046.051-.048.046-.058.044-.066.045-.072.043-.075.04-.086.039-.09.034-.094.036-.1.03-.105.03-.108.023-.114.024-.117.02-.119.016-.12.013-.124.01-.122.007-.128.004-.126.002-.125-.002-.125-.008-.127-.01-.12-.01-.123-.018-.117-.018-.115-.02-.113-.026-.108-.027-.104-.03-.1-.035-.092-.034-.09-.038-.081-.04-.077-.041-.071-.043-.059-.044-.062-.05-.048-.048-.044-.05-.032-.05-.028-.05-.016-.052-.012-.052-.003-.051.006-.053.013-.052.017-.05.029-.052.037-.05.043-.046.05-.049.057-.045.067-.044.072-.043.079-.041.084-.04.088-.034.093-.034.104-.03.103-.03.11-.023.111-.023.117-.02.12-.017.12-.013.122-.01.125-.008.125-.002h.25l.126.007.124.009.123.014.123.014.117.018.115.023.113.024.105.027.108.03.096.034.094.036.089.036.082.04M376.903 531.387l-.056.021-.055.022-.048.022-.049.028-.041.02-.04.028-.039.028-.033.028-.026.03-.025.029-.019.031-.014.028-.01.031-.01.032-.003.032.005.031.007.03.01.029.018.034.019.03.025.026.028.03.033.026.036.027.04.024.046.023.044.023.052.02.054.022.056.018.06.015.062.015.062.013.066.012.068.008.066.007.072.007.07.005h.144l.07-.002.072-.006.071-.004.069-.01.07-.01.066-.01.064-.015.064-.015.062-.016.058-.02.056-.019.052-.022.051-.023.047-.024.044-.025.042-.027.036-.028.031-.028.028-.03.024-.028.02-.03.015-.03.012-.034.006-.029v-.063l-.01-.03-.01-.032-.015-.029-.021-.03-.026-.028-.027-.028-.035-.027-.034-.027-.042-.025-.042-.024-.046-.021-.053-.023-.055-.019-.056-.018-.056-.016-.064-.015-.064-.012-.064-.012-.068-.008-.068-.007-.072-.006-.072-.004-.068-.003h-.07l-.074.004-.068.004-.07.007-.072.005-.067.013-.067.011-.065.013-.064.015-.063.018-.057.017" style="fill:none;stroke:red;stroke-width:.999997;stroke-linecap:round;stroke-linejoin:round;stroke-miterlimit:4;stroke-dasharray:none;stroke-opacity:1;visibility:visible" visibility="hidden"/><path d="m515.745 484.944-.024.022-.02.02-.02.02-.014.024-.01.02-.013.026-.004.022v.045l.005.023.011.024.01.02.016.025.019.019.02.023.024.021.028.018.034.02.033.019.035.017.044.016.037.018.045.013.049.015.046.01.05.012.048.01.051.008.055.006.052.007.058.003.053.004h.166l.054-.004.054-.006.053-.004.053-.01.047-.007.05-.01.05-.013.046-.01.043-.015.041-.013.04-.018.035-.017.034-.017.032-.02.027-.02.025-.015.022-.025.017-.022.016-.022.016-.022.004-.024.008-.02.003-.025-.003-.023-.008-.022-.008-.023-.012-.021-.016-.022-.017-.024-.022-.02-.025-.022-.027-.02-.031-.019-.035-.019-.035-.017-.043-.017-.037-.016-.045-.014-.046-.012-.049-.012-.05-.012-.05-.01-.05-.006-.056-.009-.051-.005-.056-.004-.054-.002-.056-.002h-.054l-.056.003-.055.003-.052.004-.055.006-.05.008-.051.008-.048.009M501.923 476.702l.077.042.068.043.065.045.058.048.048.047.041.05.036.05.024.052.021.051.012.05.002.055-.005.051-.013.053-.017.05-.03.051-.035.049-.046.051-.048.046-.058.044-.066.045-.072.043-.075.04-.086.039-.09.034-.094.036-.1.03-.105.03-.108.023-.114.024-.117.02-.119.016-.12.013-.124.01-.122.007-.128.004-.126.002-.125-.002-.125-.008-.127-.01-.12-.01-.123-.018-.117-.018-.115-.02-.113-.026-.108-.027-.104-.03-.1-.035-.092-.034-.09-.038-.081-.04-.077-.041-.071-.043-.059-.044-.062-.05-.048-.048-.044-.05-.032-.05-.028-.05-.016-.052-.012-.052-.003-.051.006-.053.013-.052.017-.05.029-.052M382.331 530.403l-.02-.03-.025-.03-.028-.026-.034-.026-.033-.028-.044-.024-.041-.023-.048-.024-.051-.02-.055-.019-.054-.02-.062-.013-.058-.016-.064-.013-.068-.012-.066-.009-.069-.007-.07-.007-.069-.004-.071-.001h-.071l-.072.002-.072.007-.068.004-.071.01-.067.008-.069.011-.064.014-.063.016-.061.017-.059.02" style="fill:none;stroke:red;stroke-width:.999997;stroke-linecap:round;stroke-linejoin:round;stroke-miterlimit:4;stroke-dasharray:none;stroke-opacity:1;visibility:visible" visibility="hidden"/><path d="m380.564 530.16-.056.02-.053.021-.05.023-.046.024-.044.024-.04.028-.035.027-.033.028-.028.03-.024.027-.019.032-.016.03-.01.032-.009.029v.065l.011.03.009.028.015.031.022.031.022.027.028.028.036.028.036.025.042.025.042.024.047.023.053.021.054.02.057.017.056.017.064.015.063.013.064.01.066.011.07.006.072.005.066.005.074.001h.072l.07-.001.068-.005.072-.007.068-.008.072-.01.066-.01.066-.015.062-.015.061-.017.061-.017.055-.023.053-.02.048-.025.05-.021.044-.027.038-.025.035-.028.032-.028.028-.03.025-.031.019-.029.016-.029.012-.031.005-.034.002-.029-.002-.029M498.467 476.944l.043-.05.05-.045.056-.046.068-.044.072-.043.077-.041.087-.039.087-.036.093-.033.104-.03.103-.028.11-.026.111-.021.117-.022.12-.017.12-.013.121-.009.126-.006.125-.005h.126l.124.002.126.006.124.01.123.012.121.015.12.017.113.023.114.025.105.027.107.03.097.035.094.035.089.036.082.04M519.157 483.658l-.049.017-.05.019-.046.02-.04.025-.039.021-.033.024-.032.026-.027.025-.021.027-.02.025-.015.028-.01.027-.006.028-.004.029.005.03.005.028.01.029.015.026.019.028.021.024.031.027.032.027.032.025.038.024.044.021.043.022.048.02.052.02.053.018.057.016.058.016.061.012.063.012.065.01.063.01.067.006.066.005.067.001.07.004.068-.002.065-.002.069-.004.067-.004.065-.01.063-.006.06-.012.063-.014.058-.011.057-.016.055-.016.048-.019.047-.02.045-.021.044-.02.037-.024.034-.024.029-.025.028-.026.023-.026.021-.028.013-.027.011-.028.004-.028.003-.027-.003-.03-.005-.026-.012-.029-.015-.028-.019-.027-.022-.028-.027-.024-.033-.028-.034-.024-.036-.024-.041-.021-.048-.023-.048-.018-.05-.02-.054-.02-.056-.014-.059-.016-.06-.013-.065-.012-.06-.01-.067-.006-.066-.009-.067-.004-.068-.003-.067-.003h-.065l-.07.003-.07.003-.064.006-.064.006-.065.012-.062.009-.061.011-.057.014-.057.016-.053.018M465.4 460.311l-.006.01-.005.011-.002.009-.003.009v.011l.003.009.003.011.006.011.005.009.01.011.008.007.01.01.013.008.014.009.015.008.013.006.02.008.02.008.016.007.022.007.02.002.023.004.022.007.022.004.024.003h.024l.026.002.022.002.027.001h.024l.026-.001.024-.002.022-.001.026-.004.024-.003.022-.002.023-.006.02-.004.022-.005.02-.007.017-.005.021-.008.014-.007.017-.009.012-.008.017-.01.01-.006.01-.009.007-.01.009-.01.007-.008.002-.012.004-.01v-.02l-.001-.008M522.479 482.543l-.054.019-.045.018-.044.022-.044.022-.039.023-.03.023-.034.024-.025.026-.024.026-.016.026-.015.028-.012.028-.006.028-.004.028.005.028.005.028.013.028.015.027.018.028.022.027.03.026.03.027.035.024.037.023.04.024.048.02.048.02.048.021.055.017.059.016.057.015.06.013.064.012.061.01.066.009.066.007.071.005.063.003h.205l.067-.006.065-.005.067-.007.061-.01.063-.009.061-.013.059-.014.056-.015.052-.017.053-.018.045-.02.047-.02.043-.022.033-.023.037-.024.03-.025.026-.024.022-.028.02-.027.013-.027.012-.03.005-.025.002-.029-.002-.028-.005-.026-.012-.03-.013-.028-.02-.026-.025-.028-.03-.026-.027-.025-.033-.025-.04-.024-.043-.022-.042-.021-.052-.02-.051-.02-.052-.017-.059-.016-.056-.015-.061-.013-.061-.014-.066-.01-.062-.007-.071-.007-.067-.005-.066-.003-.066-.001h-.068l-.066.001-.068.004-.066.006-.065.008-.064.009-.06.01-.063.01-.058.015-.054.014-.053.019" style="fill:none;stroke:red;stroke-width:.999997;stroke-linecap:round;stroke-linejoin:round;stroke-miterlimit:4;stroke-dasharray:none;stroke-opacity:1;visibility:visible" visibility="hidden"/><path d="m519.157 483.658-.049.017-.05.019-.046.02-.04.025-.039.021-.033.024-.032.026-.027.025-.021.027-.02.025-.015.028-.01.027-.006.028-.004.029.005.03.005.028.01.029.015.026.019.028.021.024.031.027.032.027.032.025.038.024.044.021.043.022.048.02.052.02.053.018.057.016.058.016.061.012.063.012.065.01.063.01.067.006.066.005.067.001.07.004.068-.002.065-.002.069-.004.067-.004.065-.01.063-.006.06-.012.063-.014.058-.011.057-.016.055-.016.048-.019.047-.02.045-.021.044-.02.037-.024.034-.024.029-.025.028-.026.023-.026.021-.028.013-.027.011-.028.004-.028.003-.027-.003-.03-.005-.026-.012-.029-.015-.028-.019-.027-.022-.028-.027-.024-.033-.028-.034-.024-.036-.024-.041-.021-.048-.023-.048-.018-.05-.02-.054-.02-.056-.014-.059-.016-.06-.013-.065-.012-.06-.01-.067-.006-.066-.009-.067-.004-.068-.003-.067-.003h-.065l-.07.003-.07.003-.064.006-.064.006-.065.012-.062.009-.061.011-.057.014-.057.016-.053.018M522.479 482.543l-.054.019-.045.018-.044.022-.044.022-.039.023-.03.023-.034.024-.025.026-.024.026-.016.026-.015.028-.012.028-.006.028-.004.028.005.028.005.028.013.028.015.027.018.028.022.027.03.026.03.027.035.024.037.023.04.024.048.02.048.02.048.021.055.017.059.016.057.015.06.013.064.012.061.01.066.009.066.007.071.005.063.003h.205l.067-.006.065-.005.067-.007.061-.01.063-.009.061-.013.059-.014.056-.015.052-.017.053-.018.045-.02.047-.02.043-.022.033-.023.037-.024.03-.025.026-.024.022-.028.02-.027.013-.027.012-.03.005-.025.002-.029-.002-.028-.005-.026-.012-.03-.013-.028-.02-.026-.025-.028-.03-.026-.027-.025-.033-.025-.04-.024-.043-.022-.042-.021-.052-.02-.051-.02-.052-.017-.059-.016-.056-.015-.061-.013-.061-.014-.066-.01-.062-.007-.071-.007-.067-.005-.066-.003-.066-.001h-.068l-.066.001-.068.004-.066.006-.065.008-.064.009-.06.01-.063.01-.058.015-.054.014-.053.019" style="fill:none;stroke:red;stroke-width:.999997;stroke-linecap:round;stroke-linejoin:round;stroke-miterlimit:4;stroke-dasharray:none;stroke-opacity:1;visibility:visible" visibility="hidden"/><path d="m336.486 540.773.19 9.043" style="fill:none;stroke:red;stroke-width:1.99999;stroke-linecap:round;stroke-linejoin:round;stroke-miterlimit:4;stroke-dasharray:none;stroke-opacity:1;visibility:visible" visibility="hidden"/><path d="m497.972 485.46-39.012-20.178M339.724 547.185l.002.066.004.066.011.068.01.07.011.07.018.07.018.07.018.067.024.071.023.067.028.066.029.067.031.062.03.063.034.059.035.058.038.055.036.052.04.048.04.044.038.044.044.037.038.036.042.031.042.028.044.02.04.021.042.015.041.01.039.004.036.003.041-.002.035-.006.036-.012.034-.017.032-.02.032-.025.026-.028.028-.033.021-.035.025-.039.02-.041.016-.05.018-.049.012-.052.01-.056.009-.058.005-.06.002-.063v-.13l-.007-.066-.009-.068-.011-.07-.011-.07-.018-.069-.016-.07-.02-.069-.025-.068-.021-.07-.028-.066-.028-.066-.034-.064-.028-.06-.034-.061-.036-.057-.036-.055-.04-.05-.036-.051-.039-.046-.04-.04-.044-.041-.041-.035-.042-.03-.042-.028-.042-.023-.04-.016-.043-.016-.037-.01-.04-.007h-.041l-.037.001-.036.008-.034.012-.036.016-.033.02-.027.024-.03.03-.026.03-.024.037-.024.04-.018.043-.019.047-.017.05-.01.051-.012.056-.009.057-.005.063-.002.061v.064" style="fill:none;stroke:red;stroke-width:.999997;stroke-linecap:round;stroke-linejoin:round;stroke-miterlimit:4;stroke-dasharray:none;stroke-opacity:1;visibility:visible" visibility="hidden"/><path d="m322.14 192.282 101.893-22.184M433.074 168.13l36.291-7.9" style="fill:none;stroke:red;stroke-width:.666665;stroke-linecap:round;stroke-linejoin:round;stroke-miterlimit:4;stroke-dasharray:none;stroke-opacity:1;visibility:visible" visibility="hidden"/><path d="m319.173 191.098 67.946-14.752M391.291 175.442l13.86-3.008M432.752 166.44l30.288-6.575M466.777 159.326l2.588.904" style="fill:none;stroke:red;stroke-width:1.99999;stroke-linecap:round;stroke-linejoin:round;stroke-miterlimit:4;stroke-dasharray:none;stroke-opacity:1;visibility:visible" visibility="hidden"/><path d="m388.383 176.965-.043-.017-.038-.015-.03-.02-.03-.016-.024-.019-.019-.02-.016-.018-.013-.02-.007-.02-.003-.022.003-.018.005-.02M390.363 176.856l-.024.018-.027.019-.032.019-.036.017-.037.017-.044.016-.048.016-.047.014-.056.014-.056.014-.056.012-.061.01-.064.01-.064.008-.064.008-.07.008-.069.004-.068.002-.072.003-.072.001h-.069l-.07-.001-.07-.001-.071-.004-.068-.003-.068-.007-.064-.008-.064-.009-.061-.008-.057-.012-.058-.01-.052-.016-.052-.013-.048-.014-.041-.015M319.173 191.098l2.967 1.184M319.173 191.098l2.967 1.184M463.96 160.534l-.04-.014-.041-.016-.034-.018-.028-.016-.026-.018-.024-.018-.015-.018-.014-.02M465.903 160.298l.01.02.007.019v.016l-.005.021-.007.019-.013.018-.015.019-.02.02-.026.017-.028.017-.034.016-.036.017-.038.015-.044.014-.048.015-.05.013-.053.012-.056.012-.057.01-.06.01-.062.006-.062.009-.067.004-.067.008-.07.001-.066.004-.069.002h-.07l-.068-.003-.067-.003h-.07l-.066-.009-.064-.003-.066-.008-.065-.008-.061-.008-.056-.01-.058-.011-.054-.013-.05-.012-.045-.015-.045-.015" style="fill:none;stroke:red;stroke-width:.999997;stroke-linecap:round;stroke-linejoin:round;stroke-miterlimit:4;stroke-dasharray:none;stroke-opacity:1;visibility:visible" visibility="hidden"/><path d="m388.383 176.965-.043-.017-.038-.015-.03-.02-.03-.016-.024-.019-.019-.02-.016-.018" style="fill:none;stroke:red;stroke-width:.999997;stroke-linecap:round;stroke-linejoin:round;stroke-miterlimit:4;stroke-dasharray:none;stroke-opacity:1;visibility:visible" visibility="hidden"/><path d="m469.365 160.23-.464 295.06" style="fill:none;stroke:red;stroke-width:1.99999;stroke-linecap:round;stroke-linejoin:round;stroke-miterlimit:4;stroke-dasharray:none;stroke-opacity:1;visibility:visible" visibility="hidden"/><path d="m460.963 170.396.017-.004.02-.008.022-.007.02-.012.02-.01.017-.013.021-.014.016-.015.019-.017.017-.018.014-.018.016-.02.014-.022.015-.02.009-.024.015-.021.011-.024.006-.025.01-.024.007-.026.005-.024.005-.026v-.024l.005-.026v-.052l-.001-.024-.004-.022-.005-.024-.006-.023-.005-.023-.01-.021-.008-.02-.01-.017-.012-.02-.013-.016-.014-.015-.014-.015-.014-.014-.016-.012-.017-.01-.019-.008-.016-.008-.02-.005-.018-.005-.02-.002-.02-.001-.022.001-.02.002-.017.004-.023.004-.02.008-.018.008-.022.01-.02.01-.02.014-.016.014-.018.014-.018.016-.02.018-.012.02-.016.018-.017.02-.01.023-.013.023-.012.022-.01.024-.011.024-.008.027-.004.023-.005.026-.01.026v.05l-.002.024v.026l.002.024v.024l.01.022.005.024.004.022.008.021.01.02.012.019.011.02.012.017.01.015.018.014.016.014.012.012.02.009.018.01.018.004.016.007.02.004.02.003.022.001.017-.001.021-.001.023-.004M468.903 455.292l-9.841 3.148M461.286 169.929v-.027" style="fill:none;stroke:red;stroke-width:.999997;stroke-linecap:round;stroke-linejoin:round;stroke-miterlimit:4;stroke-dasharray:none;stroke-opacity:1;visibility:visible" visibility="hidden"/><path d="m460.963 170.396.017-.004.02-.008.022-.007.02-.012M460.903 450.995l.017-.005.02-.01.018-.01.02-.01.019-.013.017-.013.016-.015.02-.016.014-.017.018-.016.016-.02.014-.02.012-.02.016-.022.01-.021.013-.021.007-.026.01-.022.01-.022.005-.024.005-.022.003-.026.005-.022v-.092l-.005-.022-.003-.018-.005-.02-.005-.02-.01-.02-.01-.016-.008-.016-.012-.016-.01-.015-.015-.012-.013-.012-.014-.01-.016-.008-.018-.01-.013-.005-.016-.006-.021-.002-.018-.002h-.038l-.02.003-.018.004-.017.005-.023.008-.018.009-.02.008-.018.011-.017.012-.021.012-.018.018-.016.013-.017.019-.016.017-.013.019-.016.02-.015.02-.012.021-.013.021-.01.023-.01.024-.01.021-.007.023-.005.024-.006.024-.004.023-.006.024v.09l.006.022.004.021.006.02.004.019.01.02.008.017.01.016.01.015.013.013.012.015.015.012.016.009.013.01.016.006.017.007.016.005.018.003.02.001.019.001.017-.001.02-.001.018-.006.023-.005M307.669 195.33l-2.955-1.194M312.874 491.074l-.024.054-.02.06-.02.066-.015.068-.012.07-.01.074-.006.078-.004.079v.083l.007.084.005.084.01.086.015.087.014.088.021.09.022.086.023.089.03.087.032.083.032.085.036.08.037.081.043.076.039.075.046.072.044.067.051.064.047.06.049.058.048.052.053.046.05.042.053.039.053.032" style="fill:none;stroke:red;stroke-width:.999997;stroke-linecap:round;stroke-linejoin:round;stroke-miterlimit:4;stroke-dasharray:none;stroke-opacity:1;visibility:visible" visibility="hidden"/><path d="m313.623 493.499.052.027.05.024.05.016.05.012.049.004h.05l.05-.004.039-.012.046-.016.041-.023.04-.028.039-.03.035-.041.033-.038.028-.049.028-.051.027-.056.019-.06.021-.064.014-.068.011-.072.008-.075.008-.077.003-.08v-.081l-.004-.085-.007-.085-.012-.087-.011-.086-.017-.087-.021-.09-.023-.087-.022-.087-.03-.087-.03-.086-.034-.084-.036-.08-.037-.08-.04-.08-.044-.073-.043-.071-.045-.068-.048-.064-.049-.06-.047-.056-.052-.052-.053-.048-.049-.042-.053-.038-.052-.032-.052-.028-.048-.022-.052-.016-.05-.012-.05-.004h-.05l-.045.004-.045.012-.043.015-.042.023-.038.028-.04.032-.033.038-.033.042" style="fill:none;stroke:red;stroke-width:.999997;stroke-linecap:round;stroke-linejoin:round;stroke-miterlimit:4;stroke-dasharray:none;stroke-opacity:1;visibility:visible" visibility="hidden"/><path d="m304.714 194.136 2.726 108.602M308.714 353.477l3.73 148.543" style="fill:none;stroke:red;stroke-width:1.99999;stroke-linecap:round;stroke-linejoin:round;stroke-miterlimit:4;stroke-dasharray:none;stroke-opacity:1;visibility:visible" visibility="hidden"/><path d="m306.535 208.636-.054-.026-.056-.03-.051-.035-.055-.045-.049-.044-.053-.052-.052-.056-.048-.062-.05-.066-.044-.068-.045-.074-.043-.078-.038-.078-.04-.085-.031-.087-.036-.086-.027-.09-.028-.092-.021-.09-.024-.095-.016-.093-.014-.095-.01-.092-.009-.092-.001-.093v-.09l.001-.088.006-.088.01-.082.012-.082.016-.078.022-.075.019-.07.027-.069.03-.06.03-.06.033-.054.037-.05.039-.042.041-.039.044-.033.046-.027.047-.023.05-.014.05-.011.05-.004.051.003.055.006.054.015.052.019.055.024.052.031.054.038.054.041.053.046.053.053.048.056.054.06.045.067.045.068.043.074.044.078.04.078.038.086.034.084.033.089.028.09.028.089.022.094.022.094.018.092.014.096.011.092.005.092.006.092v.091l-.003.089-.008.086-.009.084-.011.082-.017.078-.023.074-.02.07-.025.068-.027.064-.033.059-.032.053-.036.048-.043.044-.039.038-.044.032-.046.028-.048.022-.047.015-.05.01-.054.005-.049-.003-.055-.01-.053-.01-.054-.021M308.675 194.13l-.022-.016-.018-.014-.015-.018-.013-.016-.007-.016-.003-.018v-.015l.002-.02.008-.016.01-.017.013-.018.02-.016.02-.017.027-.015.028-.014.033-.015.032-.016.037-.015.043-.013.044-.012.044-.012.045-.01.054-.014.05-.005.054-.01.053-.008.055-.006.06-.006.057-.004.059-.002.058-.003h.178l.058.001.058.004.056.003.056.007.053.005.05.008.054.008.044.01M310.207 194.184l-.042.012-.046.012-.048.01-.048.012-.053.008-.053.008-.055.008-.056.007-.056.005-.06.004-.06.003-.057.003-.06.001h-.058l-.06-.001-.055-.002-.059-.002-.058-.006-.053-.004-.056-.006-.052-.008-.05-.008-.048-.008-.044-.012-.046-.008-.037-.014-.04-.012-.035-.013-.032-.013-.03-.015M310.374 193.864l.028.016.021.014.019.016.015.016.01.018.007.016.006.017v.019l-.002.014-.01.02-.01.016-.013.016-.018.016-.022.016-.025.018-.03.016-.029.012" style="fill:none;stroke:red;stroke-width:.999997;stroke-linecap:round;stroke-linejoin:round;stroke-miterlimit:4;stroke-dasharray:none;stroke-opacity:1;visibility:visible" visibility="hidden"/><path d="m307.018 206.293.042.077.04.08.04.084.034.086.033.088.028.089.028.09.022.095.022.092.016.092.015.096.01.092.008.094.005.092v.09l-.003.088-.008.087-.009.084-.012.081-.016.08-.023.072-.023.071-.022.068-.028.064-.032.059-.032.053-.038.048-.041.043-.039.038-.045.034-.047.026-.046.024-.047.014-.05.009-.054.005-.049-.002-.055-.01-.053-.012-.054-.02M306.57 205.79l.055.036.053.044.052.044.053.054.048.056.054.06.045.066M306.053 205.745l.047-.023.05-.014.05-.011.05-.004.051.003.057.006.052.015.053.019M305.922 205.842l.041-.038.043-.034M306.535 208.636l-.054-.026-.056-.03-.051-.035-.055-.045-.049-.044-.053-.052-.052-.056-.048-.062-.05-.066-.044-.068-.045-.074-.043-.078-.038-.078-.04-.085-.031-.087-.036-.086-.027-.09-.028-.092-.021-.09-.024-.095-.016-.093-.014-.095-.01-.092-.009-.092-.001-.093v-.09l.001-.088.006-.088.01-.082.012-.082.016-.078.022-.075.019-.07.027-.069.03-.06.03-.06M308.597 194.016l.002-.02.008-.016.01-.018.013-.017.02-.016.02-.016.025-.016.03-.015.032-.014.033-.016.037-.015.04-.013.046-.012.045-.012.045-.011.054-.012.05-.007.054-.009.053-.008.055-.007.06-.004.057-.005.059-.003.058-.002h.177l.058.001.057.004.056.004.056.005.054.007.052.007.052.008.045.009.047.01.042.01.042.013.038.012.035.014M308.675 194.13l-.022-.016-.018-.014-.015-.018-.013-.016-.007-.016-.003-.018M310.314 193.837l.03.013.031.015.025.016.023.015.019.016.015.016.01.016.007.016.006.018v.018l-.002.016-.01.017-.01.017-.013.018-.018.016-.022.016-.025.016-.03.017-.029.013-.034.016-.04.015-.04.012-.042.012-.046.012-.048.01-.048.011-.053.01-.053.008-.055.008-.056.006-.056.006-.06.004-.06.002-.057.003-.06.001h-.06l-.057-.001-.056-.001-.059-.003-.058-.005-.053-.004-.056-.008-.052-.007-.05-.008-.048-.008-.044-.012-.046-.01-.037-.011-.04-.012-.035-.014" style="fill:none;stroke:red;stroke-width:.999997;stroke-linecap:round;stroke-linejoin:round;stroke-miterlimit:4;stroke-dasharray:none;stroke-opacity:1;visibility:visible" visibility="hidden"/><path d="m304.789 194.018 6.409-1.39M315.41 191.713l3.195-.693" style="fill:none;stroke:red;stroke-width:1.99999;stroke-linecap:round;stroke-linejoin:round;stroke-miterlimit:4;stroke-dasharray:none;stroke-opacity:1;visibility:visible" visibility="hidden"/><path d="m311.546 229.516-.09.017-.094.01-.084.006-.09-.004-.086-.008-.084-.017-.085-.022-.083-.03-.076-.033-.077-.041-.072-.046-.068-.055-.067-.057-.06-.064-.056-.072-.052-.072-.05-.08-.039-.081-.042-.087-.031-.091-.03-.093-.02-.096-.016-.1-.014-.1-.002-.103v-.104l.005-.105.014-.108.013-.103.025-.105.028-.104.034-.104.04-.102.042-.098.046-.1.055-.091.057-.093.06-.087.068-.084.065-.079.075-.076.078-.07.075-.064.084-.062.083-.053.085-.05.09-.039.086-.04.088-.029.09-.022.09-.017.091-.012.089-.004.085.002.088.01.087.016.083.022.08.028.08.036.076.042.07.046.07.054.064.058.06.064.057.068.05.075.051.08.044.081.038.087.033.089.024.097.024.094.016.099.01.1.006.104v.104l-.007.105-.01.104-.018.105-.021.108-.028.103-.036.103-.037.1-.043.101-.05.097-.05.094-.057.09-.064.088-.064.084-.071.08-.074.075-.074.07-.079.065-.08.06-.084.054-.085.048-.088.043-.087.035-.09.03-.087.027M308.073 195.344l2.726 110.955M312.258 365.694l3.405 138.613M328.997 500.042l-13.334 4.265M317.469 474.842l-.089.022-.083.02-.088.01-.084.005h-.083l-.082-.008-.08-.013-.075-.02-.075-.026-.072-.032-.07-.037-.065-.043-.063-.048-.061-.052-.053-.06-.05-.065-.05-.068-.036-.073-.037-.076-.033-.08-.027-.086-.018-.088-.015-.089-.013-.092-.005-.093.001-.098.007-.098.009-.098.018-.1.02-.096.029-.101.03-.096.039-.099.042-.094.045-.094.05-.092.054-.089.061-.085.063-.084.067-.08.069-.076.073-.071.075-.067.076-.061.083-.059.08-.05.087-.048.082-.042.085-.034.084-.03.089-.024.083-.017.088-.012.084-.005h.085l.081.009.078.013.078.019.073.025.075.032.069.038.065.042.063.05.06.054.05.059.052.065.043.068.044.074.039.074.028.082.027.082.022.09.015.089.008.092.007.095v.096l-.007.097-.01.097-.018.1-.021.099-.027.099-.032.097-.036.097-.044.096-.045.092-.051.092-.056.09-.06.086-.06.084-.067.078-.07.076-.074.072-.073.066-.079.064-.082.055-.08.052-.082.048-.085.041-.088.035-.08.029M328.997 500.042l-3.478-156.068M325.013 321.233l-2.874-128.95M322.14 192.282l-14.068 3.062M314.231 193.378l-.046.018-.055.014-.057.015-.06.015-.059.012-.064.01-.065.01-.067.008-.068.011-.072.004-.072.007-.07.004-.074.004h-.217l-.075-.004-.069-.004-.067-.005-.068-.007-.07-.008-.062-.008-.061-.01-.06-.011-.056-.013-.055-.012-.048-.015-.048-.016-.043-.016-.038-.016-.038-.019-.03-.018-.027-.019-.023-.02-.017-.02-.016-.02-.01-.02-.004-.023v-.02" style="fill:none;stroke:red;stroke-width:.999997;stroke-linecap:round;stroke-linejoin:round;stroke-miterlimit:4;stroke-dasharray:none;stroke-opacity:1;visibility:visible" visibility="hidden"/><path d="m310.942 226.457.083-.053.085-.048.09-.043.086-.037.088-.03.09-.024.092-.016.089-.012.089-.004.085.003.091.01.084.016.084.022.079.029.08.034.076.042.07.047.07.053.064.059.06.064.059.068.049.076.05.079.044.08.038.088.033.092.024.093.024.095.016.1.01.1.006.104v.104l-.007.104-.01.105-.017.105-.022.106-.028.104-.036.102-.037.102-.043.1-.05.097-.048.093-.059.092-.064.087-.064.084-.071.08-.072.075-.076.07-.079.064-.08.06-.084.055-.085.047-.088.045-.087.035-.09.03-.086.025M310.565 226.809l.065-.079.075-.076.078-.07.077-.064M311.546 229.516l-.09.017-.094.01-.084.006-.09-.004-.086-.008-.084-.017-.085-.022-.083-.03-.076-.033-.077-.041-.072-.046-.068-.055-.067-.057-.06-.064-.056-.072-.052-.072-.05-.08-.039-.081-.042-.087-.031-.091-.03-.093-.02-.096-.016-.1-.014-.1-.002-.103v-.104l.005-.105.014-.108.013-.103.025-.105.028-.104.034-.104.04-.102.042-.098.046-.1.055-.091.057-.093" style="fill:none;stroke:red;stroke-width:.999997;stroke-linecap:round;stroke-linejoin:round;stroke-miterlimit:4;stroke-dasharray:none;stroke-opacity:1;visibility:visible" visibility="hidden"/><path d="M405.491 166.982c2.433-.16 4.29-1.54 6.25-2.632" style="fill:none;stroke:red;stroke-width:.666665;stroke-linecap:round;stroke-linejoin:round;stroke-miterlimit:4;stroke-dasharray:none;stroke-opacity:1;visibility:visible" visibility="hidden"/><path d="M426.612 160.784c-.377-.134-.756-.208-1.206-.138-.932.147-1.78.668-2.8.682M411.74 164.35c.538-.005 1.062.201 1.615.22.705.04 1.519-.056 2.244-.05 1.215-.002 2.387-.018 3.592.076 2.359.184 4.699 1.014 6.993 1.43 1.184.219 5.034.194 5.144 1.599.156 1.803-2.965 1.971-4.348 1.923-1.717-.046-3.414-.823-5.012-.606-1.446.199-2.978.016-4.388.452-1.406.42-2.302 1.65-3.725 2.272-1.705.744-5.05 1.034-6.932.735" style="fill:none;stroke:red;stroke-width:.666665;stroke-linecap:round;stroke-linejoin:round;stroke-miterlimit:500;stroke-dasharray:none;stroke-opacity:1;visibility:visible" visibility="hidden"/><path d="M403.702 164.292c1.033 0 2.232-1.136 3.117-1.583 1.073-.548 2.017-1.237 3.072-1.765 1.223-.616 2.56-.626 3.881-1.086 1.258-.432 2.452-1.054 3.739-1.5 2.101-.737 4.41-1.251 6.601-1.728 2.156-.462 9.78 4.932 11.41 6.038" style="fill:none;stroke:red;stroke-width:.666665;stroke-linecap:round;stroke-linejoin:round;stroke-miterlimit:500;stroke-dasharray:none;stroke-opacity:1;visibility:visible" visibility="hidden"/><path d="m314.417 187.388.08 5.652M312.074 187.422l.079 5.488M314.04 186.9l.317.346M312.437 186.922l-.311.356M314.355 187.542a.217.217 0 0 0 .062-.156.201.201 0 0 0-.06-.14M312.126 187.278a.227.227 0 0 0-.05.143.21.21 0 0 0 .064.15M312.14 187.576a.89.89 0 0 0 .35.209M312.49 187.784a2.347 2.347 0 0 0 1.52-.024M314.011 187.76a.88.88 0 0 0 .346-.218M314.034 186.896a.623.623 0 0 0-.254-.15M313.78 186.746a1.68 1.68 0 0 0-1.086.014M312.693 186.76a.61.61 0 0 0-.248.158" style="fill:none;stroke:red;stroke-width:.666665;stroke-linecap:round;stroke-linejoin:round;stroke-miterlimit:2;stroke-dasharray:none;stroke-opacity:1;visibility:visible" visibility="hidden"/><path d="m313.258 188.188.072 4.824" style="fill:none;stroke:red;stroke-width:.666665;stroke-linecap:round;stroke-linejoin:round;stroke-miterlimit:4;stroke-dasharray:none;stroke-opacity:1;visibility:visible" visibility="hidden"/><path d="m390.363 170.953.083 5.652M388.022 170.989l.078 5.488M389.986 170.468l.32.345M388.384 170.49l-.31.356M390.302 171.109a.217.217 0 0 0 .061-.156.21.21 0 0 0-.057-.14M388.072 170.845a.207.207 0 0 0-.05.143c0 .057.024.112.064.15M388.088 171.141a.88.88 0 0 0 .347.21M388.435 171.349c.25.077.507.117.764.113.259-.002.513-.049.759-.136M389.958 171.328a.88.88 0 0 0 .345-.219M389.98 170.462a.619.619 0 0 0-.252-.149M389.728 170.313a1.687 1.687 0 0 0-1.088.013M388.639 170.326a.59.59 0 0 0-.25.16" style="fill:none;stroke:red;stroke-width:.666665;stroke-linecap:round;stroke-linejoin:round;stroke-miterlimit:2;stroke-dasharray:none;stroke-opacity:1;visibility:visible" visibility="hidden"/><path d="m389.206 171.753.069 4.824" style="fill:none;stroke:red;stroke-width:.666665;stroke-linecap:round;stroke-linejoin:round;stroke-miterlimit:4;stroke-dasharray:none;stroke-opacity:1;visibility:visible" visibility="hidden"/><path d="m465.936 154.77.084 5.652M463.596 154.805l.079 5.488M465.559 154.284l.321.345M463.958 154.306l-.31.356M465.875 154.926a.212.212 0 0 0 .061-.156.205.205 0 0 0-.056-.14M463.647 154.662a.207.207 0 0 0-.05.143.202.202 0 0 0 .063.15M463.663 154.958a.887.887 0 0 0 .347.21M464.01 155.168c.25.077.507.117.765.112.255-.002.511-.049.755-.135M465.53 155.144a.863.863 0 0 0 .345-.219M465.555 154.28a.627.627 0 0 0-.252-.15M465.301 154.13a1.693 1.693 0 0 0-1.087.014M464.212 154.144a.605.605 0 0 0-.25.158" style="fill:none;stroke:red;stroke-width:.666665;stroke-linecap:round;stroke-linejoin:round;stroke-miterlimit:2;stroke-dasharray:none;stroke-opacity:1;visibility:visible" visibility="hidden"/><path d="m464.78 155.57.07 4.824" style="fill:none;stroke:red;stroke-width:.666665;stroke-linecap:round;stroke-linejoin:round;stroke-miterlimit:4;stroke-dasharray:none;stroke-opacity:1;visibility:visible" visibility="hidden"/><path d="m328.997 500.042 5.092 2.524M313.623 493.499l-1.964-3.456M224.58 473.86l5.2 11.483" style="fill:none;stroke:red;stroke-width:1.99999;stroke-linecap:round;stroke-linejoin:round;stroke-miterlimit:4;stroke-dasharray:none;stroke-opacity:1;visibility:visible" visibility="hidden"/><path d="m224.924 482.413 6.333-4.561" style="fill:none;stroke:red;stroke-width:.999997;stroke-linecap:round;stroke-linejoin:round;stroke-miterlimit:4;stroke-dasharray:none;stroke-opacity:1;visibility:visible" visibility="hidden"/><path d="m317.47 474.84-6.107-11.485" style="fill:none;stroke:red;stroke-width:1.99999;stroke-linecap:round;stroke-linejoin:round;stroke-miterlimit:4;stroke-dasharray:none;stroke-opacity:1;visibility:visible" visibility="hidden"/><path d="m295.697 452.468 15.403 2.491M311.363 463.355l-17.283-3.236" style="fill:none;stroke:red;stroke-width:.999997;stroke-linecap:round;stroke-linejoin:round;stroke-miterlimit:4;stroke-dasharray:none;stroke-opacity:1;visibility:visible" visibility="hidden"/><path d="m311.1 454.959-15.403-2.491M459.231 498.28l-17.395 5.806M441.836 504.086l17.395-5.806" style="fill:none;stroke:red;stroke-width:1.99999;stroke-linecap:round;stroke-linejoin:round;stroke-miterlimit:4;stroke-dasharray:none;stroke-opacity:1;visibility:visible" visibility="hidden"/><path d="m519.008 478.336-3.262.807" style="fill:none;stroke:red;stroke-width:.999997;stroke-linecap:round;stroke-linejoin:round;stroke-miterlimit:4;stroke-dasharray:none;stroke-opacity:1;visibility:visible" visibility="hidden"/><path d="m387.342 180.088 13.669 3.134M388.383 176.965l10.069-.784" style="fill:none;stroke:red;stroke-width:1.99999;stroke-linecap:round;stroke-linejoin:round;stroke-miterlimit:4;stroke-dasharray:none;stroke-opacity:1;visibility:visible" visibility="hidden"/><path d="m501.923 476.702 1.37 6.581M376.903 531.387l-3.547 1.305M376.903 531.387l-3.547 1.305M373.356 532.692l3.547-1.305M373.356 532.692l3.547-1.305M501.923 476.702l-3.951 8.758M336.676 549.816l3.048-2.631M344.124 545.337l-4.4 1.848" style="fill:none;stroke:red;stroke-width:.999997;stroke-linecap:round;stroke-linejoin:round;stroke-miterlimit:4;stroke-dasharray:none;stroke-opacity:1;visibility:visible" visibility="hidden"/><path d="m433.074 168.13-9.041 1.968M424.033 170.098l9.041-1.968" style="fill:none;stroke:red;stroke-width:.666665;stroke-linecap:round;stroke-linejoin:round;stroke-miterlimit:4;stroke-dasharray:none;stroke-opacity:1;visibility:visible" visibility="hidden"/><path d="m387.119 176.346 4.172-.904M387.342 180.086l17.809-7.652M424.033 170.098l8.719-3.658M463.96 160.534l2.817-1.208" style="fill:none;stroke:red;stroke-width:1.99999;stroke-linecap:round;stroke-linejoin:round;stroke-miterlimit:4;stroke-dasharray:none;stroke-opacity:1;visibility:visible" visibility="hidden"/><path d="m468.903 455.292-8-4.297" style="fill:none;stroke:red;stroke-width:.999997;stroke-linecap:round;stroke-linejoin:round;stroke-miterlimit:4;stroke-dasharray:none;stroke-opacity:1;visibility:visible" visibility="hidden"/><path d="m311.198 192.628 4.212-.915" style="fill:none;stroke:red;stroke-width:1.99999;stroke-linecap:round;stroke-linejoin:round;stroke-miterlimit:4;stroke-dasharray:none;stroke-opacity:1;visibility:visible" visibility="hidden"/><path d="m311.363 463.355 6.107 11.485" style="fill:none;stroke:red;stroke-width:.999997;stroke-linecap:round;stroke-linejoin:round;stroke-miterlimit:4;stroke-dasharray:none;stroke-opacity:1;visibility:visible" visibility="hidden"/><path d="m452.148 202.788.667 304.13 5.333-1.477V202.467l-6 .321" style="fill:none;fill-opacity:1;fill-rule:nonzero;stroke:#00ff4a;stroke-width:1.33333;visibility:visible"/><path d="m405.595 479.595 5.54-1.779M405.595 479.595l5.54-1.779" style="fill:none;stroke:#00ff4a;stroke-width:.999997;stroke-linecap:round;stroke-linejoin:round;stroke-miterlimit:4;stroke-dasharray:none;stroke-opacity:1;visibility:visible"/><path d="m441.256 243.013-42.988-17.221" style="fill:none;stroke:#00ff4a;stroke-width:1.99999;stroke-linecap:round;stroke-linejoin:round;stroke-miterlimit:4;stroke-dasharray:none;stroke-opacity:1;visibility:visible"/><path d="m441.43 225.553-43.447-16.988" style="fill:none;stroke:#00ff4a;stroke-width:.666665;stroke-linecap:round;stroke-linejoin:round;stroke-miterlimit:4;stroke-dasharray:none;stroke-opacity:1;visibility:visible"/><path d="m398.156 225.685-.173-17.12M398.094 208.404l2.058-.471" style="fill:none;stroke:#00ff4a;stroke-width:.999997;stroke-linecap:round;stroke-linejoin:round;stroke-miterlimit:4;stroke-dasharray:none;stroke-opacity:1;visibility:visible"/><path d="m440.826 223.398-40.031-15.61" style="fill:none;stroke:#00ff4a;stroke-width:1.99999;stroke-linecap:round;stroke-linejoin:round;stroke-miterlimit:4;stroke-dasharray:none;stroke-opacity:1;visibility:visible"/><path d="m403.813 478.876-.034-3.852" style="fill:none;stroke:#00ff4a;stroke-width:.999997;stroke-linecap:round;stroke-linejoin:round;stroke-miterlimit:4;stroke-dasharray:none;stroke-opacity:1;visibility:visible"/><path d="m401.907 277.751-.035-3.75M402.77 368.625l-.034-3.655M402.983 391.002l-.033-3.653M403.19 412.92l-.032-3.306M403.403 435.296l-.033-3.653M403.814 478.876l-.036-3.852M401.239 207.692l-.041-4.11M401.462 231.382l-.039-4.048M401.682 254.672l-.038-4.112M402.122 300.906l-.04-4.11M402.342 323.646l-.036-3.819" style="fill:none;stroke:#00ff4a;stroke-width:1.99999;stroke-linecap:round;stroke-linejoin:round;stroke-miterlimit:4;stroke-dasharray:none;stroke-opacity:1;visibility:visible"/><path d="m395.346 474.562-.022.005-.018.005-.02.003-.02.001h-.022l-.02-.001-.017-.005-.017-.006-.016-.004-.019-.01-.016-.006-.016-.011-.015-.01-.013-.016-.013-.015-.012-.014-.011-.016-.01-.019-.006-.019-.008-.02-.004-.02-.005-.021-.006-.021v-.023l-.002-.023v-.024l.001-.024.004-.022.005-.026.003-.024.008-.024.007-.024.01-.022.008-.026.014-.02.012-.024.011-.021.016-.021.014-.02.017-.019.015-.019.017-.016.023-.017.015-.016.018-.015.022-.012.02-.01.02-.01.02-.009.018-.008.024-.005.018-.004.02-.004.021-.002.02.002h.019l.017.004.019.006.018.006.019.006.015.011.013.01.016.01.012.017.015.014.012.014.01.016.01.018.008.02.006.018.004.022.008.02.003.022.001.023v.047l-.001.022-.003.024-.004.026-.005.024M391.839 336.445l-.097.024-.098.014-.097.01h-.095l-.092-.004-.093-.016-.09-.02-.087-.027-.087-.037-.08-.042-.077-.047-.074-.055-.072-.063-.064-.068-.061-.072-.056-.079-.05-.085-.045-.09-.041-.093-.033-.098-.031-.102-.021-.105-.018-.108-.012-.11-.001-.112.001-.115.007-.116.015-.115.02-.117.026-.118.031-.116.039-.113.041-.115.05-.11.055-.108.056-.107.066-.101.068-.1.072-.095.076-.09.08-.087.082-.079.09-.076.088-.07.089-.062.095-.057.094-.051.094-.044.098-.037.098-.031.098-.023.098-.014.094-.007.098-.003.093.007.092.015.092.02.084.029.084.033.083.043.078.048.075.056.068.063.067.068.06.072.056.08.05.082.046.092.04.092.034.1.028.1.02.104.02.11.008.11.007.113-.003.113-.006.117-.016.115-.019.115-.027.118-.032.116-.037.113-.045.114-.046.109-.054.111-.06.106-.063.103-.067.097-.072.095-.077.09-.079.087-.082.08-.088.075-.09.07-.09.061-.094.06-.094.049-.096.045-.099.036-.096.03M390.458 213.789l-.1.019-.098.012-.098.005-.096-.005-.098-.01-.094-.02-.092-.026-.088-.032-.087-.04-.083-.047-.08-.053-.076-.064-.072-.066-.066-.074-.062-.08-.058-.083-.052-.092-.046-.095-.04-.098-.037-.106-.028-.104-.023-.111-.016-.116-.01-.114-.008-.116.005-.12.007-.12.014-.12.02-.121.028-.12.03-.118.04-.117.045-.117.05-.114.052-.11.061-.106.065-.105.07-.099.076-.096.075-.089.083-.087.085-.078.087-.076.092-.067.093-.061.095-.055.097-.048.096-.041.102-.035.098-.027.099-.018.1-.012.097-.004.099.004.096.012.095.017.093.027.087.033.085.04.084.048.079.055.077.06.07.069.068.072.062.08.056.085.05.09.047.094.042.1.033.104.03.108.024.11.017.114.009.114.007.117-.003.119-.008.12-.016.12-.021.12-.024.121-.032.117-.039.118-.044.117-.048.112-.057.11-.06.11-.064.101-.068.102-.075.093-.08.092-.081.083-.086.082-.086.074-.09.068-.094.06-.094.056-.097.048-.099.04-.1.035-.098.027M393.163 454.303l-.093.027-.096.02-.096.01-.092.006-.096-.002-.089-.008-.084-.016-.087-.024-.083-.029-.08-.037-.076-.043-.073-.05-.068-.057-.064-.062-.059-.068-.059-.074-.046-.078-.047-.084-.036-.087-.035-.093-.029-.098-.02-.1-.02-.101-.01-.108v-.217l.01-.112.012-.111.017-.115.027-.112.033-.113.034-.112.044-.11.048-.11.053-.107.056-.104.064-.102.065-.099.072-.093.074-.09.078-.088.083-.08.083-.076.089-.07.09-.066.089-.058.096-.052.093-.047.095-.04.094-.033.098-.026.094-.018.095-.012.092-.007.093.003.09.008.089.017.085.023.082.03.082.036.076.043.072.05.07.058.06.061.06.068.056.074.05.078.044.086.038.086.034.092.027.1.024.098.015.102.012.107.002.108-.001.11-.007.112-.014.111-.02.114-.027.113-.03.113-.035.112-.044.11-.047.108-.053.108-.058.102-.065.103-.064.099-.07.096-.073.088-.082.085-.079.081-.087.076-.085.071-.088.065-.093.059-.095.053-.09.046-.101.04-.092.033M392.212 187.581l.02-.005.023-.008.019-.008.021-.011.023-.012.017-.012.021-.016.016-.015.022-.017.016-.019.018-.017.015-.023.015-.02.012-.022.014-.023.012-.024.014-.025.008-.024.008-.026.006-.024.006-.026.002-.026.004-.026.002-.027.002-.025-.002-.024-.002-.026-.004-.025-.006-.024-.006-.023-.006-.022-.007-.022-.013-.02-.01-.02-.012-.02-.014-.016-.012-.016-.016-.014-.02-.014-.014-.012-.017-.01-.02-.008-.019-.008-.02-.006-.022-.004-.018-.002-.021-.002-.023.002-.021.001-.023.004-.017.005-.023.007-.02.01-.022.009-.023.011-.017.016-.022.013-.016.016-.02.017-.016.017-.02.022-.013.018-.015.022-.016.022-.012.023-.012.024-.008.024-.008.025-.011.027-.007.024-.004.025-.008.027-.003.027v.1l.005.025.008.025.004.022.01.022.008.022.008.02.013.021.01.017.016.018.013.017.014.013.019.014.016.012.017.009.018.01.022.008.016.005.023.004.021.004.02.001.02-.001.022-.004.022-.004" style="fill:none;stroke:#00ff4a;stroke-width:.999997;stroke-linecap:round;stroke-linejoin:round;stroke-miterlimit:4;stroke-dasharray:none;stroke-opacity:1;visibility:visible"/><path d="M395.664 474.09v.024l-.001.022-.003.024-.004.026-.005.024M395.266 474.576h-.023l-.019-.001-.018-.004-.018-.007-.014-.004-.019-.009-.017-.008-.015-.01-.015-.01-.014-.016-.014-.013-.01-.016-.011-.016-.01-.019-.006-.017-.009-.02-.004-.022-.006-.021-.004-.021-.002-.023-.002-.023v-.024l.002-.024.004-.022.005-.024.003-.026.008-.024.008-.022.01-.024.008-.026.012-.02.014-.022.012-.023.014-.021.014-.02.017-.019.016-.019.017-.016.022-.017.016-.016.018-.015.02-.012.022-.01.018-.01.02-.009.02-.007.022-.006.02-.004.02-.004.02-.002.021.002h.019l.016.004.02.006.018.007.018.005.016.011.013.01M392.044 186.906v-.025l-.004-.024-.002-.025-.008-.024M391.852 187.318l.016-.016.02-.017.019-.019" style="fill:none;stroke:#00ff4a;stroke-width:.999997;stroke-linecap:round;stroke-linejoin:round;stroke-miterlimit:4;stroke-dasharray:none;stroke-opacity:1;visibility:visible"/><path d="m441.188 249.448-42.97-17.366" style="fill:none;stroke:#00ff4a;stroke-width:.666665;stroke-linecap:round;stroke-linejoin:round;stroke-miterlimit:4;stroke-dasharray:none;stroke-opacity:1;visibility:visible"/><path d="m398.39 249.072-.043-4.202-.068-6.85-.06-5.94" style="fill:none;stroke:#00ff4a;stroke-width:.999997;stroke-linecap:round;stroke-linejoin:round;stroke-miterlimit:4;stroke-dasharray:none;stroke-opacity:1;visibility:visible"/><path d="m398.39 249.072 43.089 17.825" style="fill:none;stroke:#00ff4a;stroke-width:1.99999;stroke-linecap:round;stroke-linejoin:round;stroke-miterlimit:4;stroke-dasharray:none;stroke-opacity:1;visibility:visible"/><path d="m398.33 231.922 2.689-.637" style="fill:none;stroke:#00ff4a;stroke-width:.999997;stroke-linecap:round;stroke-linejoin:round;stroke-miterlimit:4;stroke-dasharray:none;stroke-opacity:1;visibility:visible"/><path d="m401.13 231.392 40.138 16.18" style="fill:none;stroke:#00ff4a;stroke-width:1.99999;stroke-linecap:round;stroke-linejoin:round;stroke-miterlimit:4;stroke-dasharray:none;stroke-opacity:1;visibility:visible"/><path d="m441.132 273.225-42.681-17.806" style="fill:none;stroke:#00ff4a;stroke-width:.666665;stroke-linecap:round;stroke-linejoin:round;stroke-miterlimit:4;stroke-dasharray:none;stroke-opacity:1;visibility:visible"/><path d="m398.623 272.282-.17-16.861" style="fill:none;stroke:#00ff4a;stroke-width:.999997;stroke-linecap:round;stroke-linejoin:round;stroke-miterlimit:4;stroke-dasharray:none;stroke-opacity:1;visibility:visible"/><path d="m398.623 272.282 42.932 18.315" style="fill:none;stroke:#00ff4a;stroke-width:1.99999;stroke-linecap:round;stroke-linejoin:round;stroke-miterlimit:4;stroke-dasharray:none;stroke-opacity:1;visibility:visible"/><path d="m398.564 255.26 2.678-.655" style="fill:none;stroke:#00ff4a;stroke-width:.999997;stroke-linecap:round;stroke-linejoin:round;stroke-miterlimit:4;stroke-dasharray:none;stroke-opacity:1;visibility:visible"/><path d="m440.994 271.143-39.752-16.538" style="fill:none;stroke:#00ff4a;stroke-width:1.99999;stroke-linecap:round;stroke-linejoin:round;stroke-miterlimit:4;stroke-dasharray:none;stroke-opacity:1;visibility:visible"/><path d="m441.267 296.895-42.583-18.314" style="fill:none;stroke:#00ff4a;stroke-width:.666665;stroke-linecap:round;stroke-linejoin:round;stroke-miterlimit:4;stroke-dasharray:none;stroke-opacity:1;visibility:visible"/><path d="m398.851 295.314-.115-11.627-.05-5.107 2.621-.83" style="fill:none;stroke:#00ff4a;stroke-width:.999997;stroke-linecap:round;stroke-linejoin:round;stroke-miterlimit:4;stroke-dasharray:none;stroke-opacity:1;visibility:visible"/><path d="m441.055 294.731-39.592-16.985M398.851 295.314l42.312 18.593" style="fill:none;stroke:#00ff4a;stroke-width:1.99999;stroke-linecap:round;stroke-linejoin:round;stroke-miterlimit:4;stroke-dasharray:none;stroke-opacity:1;visibility:visible"/><path d="m441.875 343.853-42.733-19.474" style="fill:none;stroke:#00ff4a;stroke-width:.666665;stroke-linecap:round;stroke-linejoin:round;stroke-miterlimit:4;stroke-dasharray:none;stroke-opacity:1;visibility:visible"/><path d="m399.252 335.197-.11-10.818" style="fill:none;stroke:#00ff4a;stroke-width:.999997;stroke-linecap:round;stroke-linejoin:round;stroke-miterlimit:4;stroke-dasharray:none;stroke-opacity:1;visibility:visible"/><path d="m431.54 355.846 9.48 4.408" style="fill:none;stroke:#00ff4a;stroke-width:1.99999;stroke-linecap:round;stroke-linejoin:round;stroke-miterlimit:4;stroke-dasharray:none;stroke-opacity:1;visibility:visible"/><path d="m399.252 324.22 2.648-.708" style="fill:none;stroke:#00ff4a;stroke-width:.999997;stroke-linecap:round;stroke-linejoin:round;stroke-miterlimit:4;stroke-dasharray:none;stroke-opacity:1;visibility:visible"/><path d="m402.011 323.611 39.701 18.043" style="fill:none;stroke:#00ff4a;stroke-width:1.99999;stroke-linecap:round;stroke-linejoin:round;stroke-miterlimit:4;stroke-dasharray:none;stroke-opacity:1;visibility:visible"/><path d="m444.312 202.458-46.566-17.592" style="fill:none;stroke:#00ff4a;stroke-width:.666665;stroke-linecap:round;stroke-linejoin:round;stroke-miterlimit:4;stroke-dasharray:none;stroke-opacity:1;visibility:visible"/><path d="m397.919 202.12-.172-17.252 2.645-.722" style="fill:none;stroke:#00ff4a;stroke-width:.999997;stroke-linecap:round;stroke-linejoin:round;stroke-miterlimit:4;stroke-dasharray:none;stroke-opacity:1;visibility:visible"/><path d="M441.512 434.908 400.04 413.94" style="fill:none;stroke:#00ff4a;stroke-width:.666665;stroke-linecap:round;stroke-linejoin:round;stroke-miterlimit:4;stroke-dasharray:none;stroke-opacity:1;visibility:visible"/><path d="m400.199 429.938-.037-3.775-.06-5.936-.062-6.287" style="fill:none;stroke:#00ff4a;stroke-width:.999997;stroke-linecap:round;stroke-linejoin:round;stroke-miterlimit:4;stroke-dasharray:none;stroke-opacity:1;visibility:visible"/><path d="m400.199 429.938 42.153 21.688" style="fill:none;stroke:#00ff4a;stroke-width:1.99999;stroke-linecap:round;stroke-linejoin:round;stroke-miterlimit:4;stroke-dasharray:none;stroke-opacity:1;visibility:visible"/><path d="m400.15 413.783 2.605-.779" style="fill:none;stroke:#00ff4a;stroke-width:.999997;stroke-linecap:round;stroke-linejoin:round;stroke-miterlimit:4;stroke-dasharray:none;stroke-opacity:1;visibility:visible"/><path d="m402.866 413.095 38.909 19.625" style="fill:none;stroke:#00ff4a;stroke-width:1.99999;stroke-linecap:round;stroke-linejoin:round;stroke-miterlimit:4;stroke-dasharray:none;stroke-opacity:1;visibility:visible"/><path d="m441.684 412.451-41.864-20.653" style="fill:none;stroke:#00ff4a;stroke-width:.666665;stroke-linecap:round;stroke-linejoin:round;stroke-miterlimit:4;stroke-dasharray:none;stroke-opacity:1;visibility:visible"/><path d="m399.98 407.915-.16-16.117" style="fill:none;stroke:#00ff4a;stroke-width:.999997;stroke-linecap:round;stroke-linejoin:round;stroke-miterlimit:4;stroke-dasharray:none;stroke-opacity:1;visibility:visible"/><path d="m399.98 407.915 41.652 20.919" style="fill:none;stroke:#00ff4a;stroke-width:1.99999;stroke-linecap:round;stroke-linejoin:round;stroke-miterlimit:4;stroke-dasharray:none;stroke-opacity:1;visibility:visible"/><path d="m399.927 391.64 2.619-.76" style="fill:none;stroke:#00ff4a;stroke-width:.999997;stroke-linecap:round;stroke-linejoin:round;stroke-miterlimit:4;stroke-dasharray:none;stroke-opacity:1;visibility:visible"/><path d="m441.944 410.263-39.398-19.383" style="fill:none;stroke:#00ff4a;stroke-width:1.99999;stroke-linecap:round;stroke-linejoin:round;stroke-miterlimit:4;stroke-dasharray:none;stroke-opacity:1;visibility:visible"/><path d="m441.57 389.675-41.974-20.182" style="fill:none;stroke:#00ff4a;stroke-width:.666665;stroke-linecap:round;stroke-linejoin:round;stroke-miterlimit:4;stroke-dasharray:none;stroke-opacity:1;visibility:visible"/><path d="m399.759 385.731-.044-4.32-.063-6.393-.056-5.525" style="fill:none;stroke:#00ff4a;stroke-width:.999997;stroke-linecap:round;stroke-linejoin:round;stroke-miterlimit:4;stroke-dasharray:none;stroke-opacity:1;visibility:visible"/><path d="m399.759 385.731 41.819 20.487" style="fill:none;stroke:#00ff4a;stroke-width:1.99999;stroke-linecap:round;stroke-linejoin:round;stroke-miterlimit:4;stroke-dasharray:none;stroke-opacity:1;visibility:visible"/><path d="m399.702 369.335 2.628-.745" style="fill:none;stroke:#00ff4a;stroke-width:.999997;stroke-linecap:round;stroke-linejoin:round;stroke-miterlimit:4;stroke-dasharray:none;stroke-opacity:1;visibility:visible"/><path d="m441.552 387.402-39.222-18.81" style="fill:none;stroke:#00ff4a;stroke-width:1.99999;stroke-linecap:round;stroke-linejoin:round;stroke-miterlimit:4;stroke-dasharray:none;stroke-opacity:1;visibility:visible"/><path d="m441.519 457.28-41.257-21.365" style="fill:none;stroke:#00ff4a;stroke-width:.666665;stroke-linecap:round;stroke-linejoin:round;stroke-miterlimit:4;stroke-dasharray:none;stroke-opacity:1;visibility:visible"/><path d="m400.368 435.758 2.595-.796M400.419 451.796l-.159-15.882" style="fill:none;stroke:#00ff4a;stroke-width:.999997;stroke-linecap:round;stroke-linejoin:round;stroke-miterlimit:4;stroke-dasharray:none;stroke-opacity:1;visibility:visible"/><path d="m403.074 435.054 38.748 20.016" style="fill:none;stroke:#00ff4a;stroke-width:1.99999;stroke-linecap:round;stroke-linejoin:round;stroke-miterlimit:4;stroke-dasharray:none;stroke-opacity:1;visibility:visible"/><path d="m400.635 473.495-.156-15.765" style="fill:none;stroke:#00ff4a;stroke-width:.999997;stroke-linecap:round;stroke-linejoin:round;stroke-miterlimit:4;stroke-dasharray:none;stroke-opacity:1;visibility:visible"/><path d="m400.635 473.495 40.983 22.08" style="fill:none;stroke:#00ff4a;stroke-width:1.99999;stroke-linecap:round;stroke-linejoin:round;stroke-miterlimit:4;stroke-dasharray:none;stroke-opacity:1;visibility:visible"/><path d="m400.586 457.572 2.588-.812" style="fill:none;stroke:#00ff4a;stroke-width:.999997;stroke-linecap:round;stroke-linejoin:round;stroke-miterlimit:4;stroke-dasharray:none;stroke-opacity:1;visibility:visible"/><path d="m446.692 201.485-46.125-17.379M397.919 202.12l42.992 16.654" style="fill:none;stroke:#00ff4a;stroke-width:1.99999;stroke-linecap:round;stroke-linejoin:round;stroke-miterlimit:4;stroke-dasharray:none;stroke-opacity:1;visibility:visible"/><path d="m441.124 320.262-42.209-18.696" style="fill:none;stroke:#00ff4a;stroke-width:.666665;stroke-linecap:round;stroke-linejoin:round;stroke-miterlimit:4;stroke-dasharray:none;stroke-opacity:1;visibility:visible"/><path d="m399.079 318.175-.165-16.608" style="fill:none;stroke:#00ff4a;stroke-width:.999997;stroke-linecap:round;stroke-linejoin:round;stroke-miterlimit:4;stroke-dasharray:none;stroke-opacity:1;visibility:visible"/><path d="m399.079 318.175 42.437 19.19" style="fill:none;stroke:#00ff4a;stroke-width:1.99999;stroke-linecap:round;stroke-linejoin:round;stroke-miterlimit:4;stroke-dasharray:none;stroke-opacity:1;visibility:visible"/><path d="m399.023 301.407 2.659-.693" style="fill:none;stroke:#00ff4a;stroke-width:.999997;stroke-linecap:round;stroke-linejoin:round;stroke-miterlimit:4;stroke-dasharray:none;stroke-opacity:1;visibility:visible"/><path d="m440.708 317.957-39.026-17.243" style="fill:none;stroke:#00ff4a;stroke-width:1.99999;stroke-linecap:round;stroke-linejoin:round;stroke-miterlimit:4;stroke-dasharray:none;stroke-opacity:1;visibility:visible"/><path d="m462.018 225.673.1-.03.1-.034.1-.044.101-.048.093-.06.098-.063.09-.07.09-.08.088-.079.082-.091.08-.094.075-.1.07-.102.066-.108.063-.11.058-.116.05-.118.046-.12.039-.12.033-.124.028-.124.027-.125.012-.124.01-.124.003-.123-.002-.122-.011-.12-.012-.115-.027-.116-.024-.11-.034-.107-.042-.103-.045-.097-.05-.095-.058-.085-.063-.083-.064-.076-.07-.07-.078-.063-.077-.056-.084-.05-.089-.041-.09-.033-.09-.027-.098-.017-.094-.012-.1-.004-.098.004-.1.012-.1.02-.102.03-.1.034-.099.044-.099.049-.097.057-.095.063-.093.072-.088.075-.088.085-.083.09-.081.092-.072.099-.073.104-.071.108-.061.11-.056.117-.05.119-.044.118-.04.123-.036.123-.026.124-.023.124-.016.124-.01.125-.002.123.003.122.009.12.016.118.023.112.026.11.036.11.04.1.043.1.049.092.059.088.059.082.072.076.069.07.076.062.081.055.084.05.086.041.088.034.094.027.094.017.098.012.098.004.1-.005.1-.013.1-.02" style="fill:none;stroke:#00ff4a;stroke-width:.999997;stroke-linecap:round;stroke-linejoin:round;stroke-miterlimit:4;stroke-dasharray:none;stroke-opacity:1;visibility:visible"/><path d="m461.89 221.837.039.016.039.019.043.02.041.027.044.029.044.032.046.03.044.04.048.038.04.04.046.046.039.042.039.044.036.049.036.05.036.049.03.054.035.056.025.056.023.059.023.059.016.06.014.06.008.058.01.06.002.058v.056l-.005.058-.011.056-.007.056-.021.056-.018.054-.024.052-.026.049-.028.047-.032.044-.032.04-.036.041-.034.036-.04.03-.042.029-.038.026-.044.024-.046.022-.044.016-.045.013-.044.01-.044.004h-.045l-.042-.001-.041-.008-.039-.01-.04-.014-.033-.017-.033-.024-.034-.027-.03-.03-.03-.03-.028-.038-.022-.04-.023-.043-.023-.045-.017-.05-.017-.048-.014-.05-.014-.052-.015-.054-.01-.056-.01-.058-.009-.06-.007-.062-.009-.06-.004-.064-.006-.064-.005-.061v-.063l-.001-.06-.002-.058v-.06l.002-.055v-.112l.006-.053.006-.051.002-.049.008-.046.006-.044.01-.04.01-.038.008-.034.01-.032M461.523 221.992l-.095.062-.093.072-.088.076" style="fill:none;stroke:#00ff4a;stroke-width:.999997;stroke-linecap:round;stroke-linejoin:round;stroke-miterlimit:4;stroke-dasharray:none;stroke-opacity:1;visibility:visible"/><path d="m441.632 366.813-42.264-19.791" style="fill:none;stroke:#00ff4a;stroke-width:.666665;stroke-linecap:round;stroke-linejoin:round;stroke-miterlimit:4;stroke-dasharray:none;stroke-opacity:1;visibility:visible"/><path d="m399.535 363.38 41.984 20.048" style="fill:none;stroke:#00ff4a;stroke-width:1.99999;stroke-linecap:round;stroke-linejoin:round;stroke-miterlimit:4;stroke-dasharray:none;stroke-opacity:1;visibility:visible"/><path d="m399.535 363.38-.167-16.36" style="fill:none;stroke:#00ff4a;stroke-width:.999997;stroke-linecap:round;stroke-linejoin:round;stroke-miterlimit:4;stroke-dasharray:none;stroke-opacity:1;visibility:visible"/><path d="m447.862 201.709-6.58 1.516M441.463 364.514l-39.347-18.379" style="fill:none;stroke:#00ff4a;stroke-width:1.99999;stroke-linecap:round;stroke-linejoin:round;stroke-miterlimit:4;stroke-dasharray:none;stroke-opacity:1;visibility:visible"/><path d="m458.635 201.398-3.588-1.344M441.284 203.226l3.58 1.356" style="fill:none;stroke:#00ff4a;stroke-width:.999997;stroke-linecap:round;stroke-linejoin:round;stroke-miterlimit:4;stroke-dasharray:none;stroke-opacity:1;visibility:visible"/><path d="m458.635 201.398-2.956-1.106" style="fill:none;stroke:#00ff4a;stroke-width:1.99999;stroke-linecap:round;stroke-linejoin:round;stroke-miterlimit:4;stroke-dasharray:none;stroke-opacity:1;visibility:visible"/><path d="m446.986 203 .032.014.029.012.027.016.025.014.02.016.016.014.015.016.012.016.006.016.002.018v.014l-.002.018-.006.014-.012.018-.015.014-.013.018-.022.012-.024.016-.025.014-.031.014-.03.013-.034.013-.04.011-.041.012-.04.01-.045.009-.047.011-.048.005-.05.009-.051.005-.054.006-.05.004-.054.002-.056.003h-.162l-.056-.003-.054-.002-.056-.003-.05-.005-.049-.007-.051-.007-.052-.006-.043-.008-.045-.011-.043-.01-.039-.01-.04-.013-.033-.014-.033-.012-.028-.014-.028-.015-.023-.013-.021-.016-.016-.015-.014-.015-.012-.016-.008-.016-.001-.016v-.014l.001-.018.008-.017.012-.016.014-.015.014-.014.023-.018.02-.013.027-.015.028-.013.033-.012.037-.015.038-.012.04-.01.04-.012.044-.01.048-.006.048-.008.052-.007.048-.008.054-.004.05-.004.057-.003.055-.002.053-.002h.057l.05.002.059.001.053.003.052.005.052.004.05.008.052.005.048.008.045.008.049.01.04.01.038.01.039.012.035.012M448.906 202.45l-.027-.02-.025-.02-.018-.02-.012-.022-.01-.022-.004-.02M451.124 202.364l-.013.021-.019.02-.02.02-.03.021-.028.02-.038.018-.036.018-.042.018-.048.016-.052.017-.051.013-.057.016-.06.011-.06.013-.063.011-.067.008-.07.01-.068.007-.072.004-.072.004-.071.002-.073.001h-.072l-.072-.001-.075-.003-.073-.003-.07-.005-.07-.005-.068-.008-.067-.011-.063-.008-.062-.013-.06-.012-.054-.015-.056-.013-.05-.018-.047-.014-.043-.019-.038-.017M444.863 204.582l13.772-3.182M442.495 210.91l.045-.037.048-.033.05-.028.054-.022.052-.017.056-.008.058-.004.056.001.058.01.06.013M444.018 212.345l.01.095.006.093.002.093-.002.09-.006.09-.01.087-.012.084-.016.083-.02.077-.023.076-.027.073-.03.067-.034.064-.036.057-.04.054-.04.05-.042.043-.046.039-.05.032-.052.028-.052.02-.054.018-.056.009-.057.003-.056-.002-.061-.008-.056-.014-.056-.018-.062-.026-.058-.032-.058-.037-.057-.041-.059-.048-.056-.052-.052-.058-.053-.061-.05-.068-.049-.07-.048-.072-.042-.079-.044-.08-.04-.084-.037-.087-.031-.087-.03-.092-.028-.092-.024-.094-.018-.094-.02-.093-.011-.095-.01-.093-.005-.095-.004-.092.002-.092.005-.088.01-.088.014-.085.016-.081M443.542 211.158l.048.064.054.074.046.073.045.077.043.08.038.084.035.087.035.09.028.089.028.091.02.096.025.094M443.092 210.805l.059.027.059.028.06.037.056.043.056.048.056.052.054.057M454.802 201.473l-.006.023-.006.021-.014.02-.018.021-.023.02-.025.022-.032.02-.032.017-.04.019-.044.017-.046.017-.05.015-.053.015-.055.014-.06.012-.062.012-.064.012-.065.009-.07.005-.068.011-.071.002-.069.004-.074.003-.072.002h-.076l-.072-.002h-.072l-.073-.004-.068-.006-.072-.008-.067-.006-.067-.01-.064-.01-.061-.012-.061-.012-.056-.014-.055-.014-.047-.016-.05-.016-.042-.016-.04-.02-.034-.02-.034-.018-.025-.021-.023-.019-.018-.021-.016-.021-.01-.022-.003-.02" style="fill:none;stroke:#00ff4a;stroke-width:.999997;stroke-linecap:round;stroke-linejoin:round;stroke-miterlimit:4;stroke-dasharray:none;stroke-opacity:1;visibility:visible"/><path d="m446.986 203 .032.014.029.012.027.016.025.014.02.016.016.014M443.868 500.61l-.056-.028-.056-.023-.054-.017-.055-.012-.057-.006h-.05l-.05.006-.05.012-.05.016-.046.02-.045.029-.041.031-.04.038-.039.044-.031.044-.031.054-.032.056-.022.062-.024.064-.02.066-.013.072-.011.076-.01.076-.005.08-.002.083.002.083.006.087.009.087.012.088.017.088.018.089.025.088.023.087.03.089.031.087.033.084.039.082.04.082.043.076.044.077.046.07.05.07.049.063.051.062.054.059.055.049.052.05.059.042.053.039.056.033.059.03.054.02.056.018.056.011.052.007h.055l.05-.006.051-.01.047-.016.045-.022.046-.026.04-.034.04-.036.038-.042.032-.048.034-.052.028-.056.025-.062.024-.062.017-.07.016-.072.012-.073.008-.079.007-.08.001-.081-.001-.087-.007-.085-.008-.087-.014-.088-.015-.088-.019-.09-.024-.088-.024-.088-.03-.087-.03-.085-.037-.087-.036-.081-.04-.08-.041-.08-.046-.073-.046-.073-.05-.07-.05-.063-.05-.061-.056-.058-.053-.053-.053-.048-.058-.043-.056-.038-.056-.032M444.863 204.582l.733 305.858M442.19 508.583l3.407 1.857M443.092 210.805l.059.027.059.028.06.037.056.043.056.048.056.052.054.057.05.063.051.064.053.073.044.073.045.078.044.08.039.084.034.085.035.09.028.09.028.093.021.094.023.094.017.094.014.094.01.095.006.092.002.095-.002.09-.006.088-.01.088-.011.084-.017.083-.02.077-.022.076-.028.072-.03.068-.033.063-.037.059-.038.053-.042.05-.042.044-.046.038-.05.032-.05.027-.052.022-.054.016-.056.01-.058.005-.056-.004-.061-.007-.056-.014-.057-.02-.062-.026-.058-.03-.058-.038-.057-.042-.059-.047-.056-.052-.052-.057-.053-.062-.05-.068-.048-.07-.047-.071-.044-.081-.044-.079-.04-.082-.035-.089-.032-.086-.03-.092-.03-.092-.021-.095-.02-.093-.02-.096-.01-.092-.01-.095-.004-.093-.004-.092v-.092l.007-.088.009-.088.013-.086.016-.081.02-.079.021-.074.026-.072.032-.068.033-.063.035-.059.038-.053.044-.05.044-.042.046-.039.048-.034.05-.027.052-.021.054-.018.056-.008.057-.004.056.002.059.008.06.014.058.019" style="fill:none;stroke:#00ff4a;stroke-width:.999997;stroke-linecap:round;stroke-linejoin:round;stroke-miterlimit:4;stroke-dasharray:none;stroke-opacity:1;visibility:visible"/><path d="m443.54 500.524-.05.006-.05.012-.05.016-.045.02-.045.029M443.868 500.61l-.056-.028-.056-.023-.054-.017-.055-.012-.057-.006" style="fill:none;stroke:#00ff4a;stroke-width:.999997;stroke-linecap:round;stroke-linejoin:round;stroke-miterlimit:4;stroke-dasharray:none;stroke-opacity:1;visibility:visible"/><path d="m441.284 203.226.908 305.357M458.635 201.398l.05 304.64" style="fill:none;stroke:#00ff4a;stroke-width:1.99999;stroke-linecap:round;stroke-linejoin:round;stroke-miterlimit:4;stroke-dasharray:none;stroke-opacity:1;visibility:visible"/><path d="m462.159 223.792.145-.036" style="fill:none;stroke:#00ff4a;stroke-width:.999997;stroke-linecap:round;stroke-linejoin:round;stroke-miterlimit:4;stroke-dasharray:none;stroke-opacity:1;visibility:visible"/><path d="M452.147 202.79v304.325" style="fill:none;stroke:#00ff4a;stroke-width:.666665;stroke-linecap:round;stroke-linejoin:round;stroke-miterlimit:4;stroke-dasharray:none;stroke-opacity:1;visibility:visible"/><path d="m451.035 196.526.083 5.652M448.694 196.561l.078 5.488M450.658 196.038l.32.347M449.056 196.062l-.31.356M450.974 196.682a.213.213 0 0 0 .004-.296M448.746 196.418a.213.213 0 0 0-.051.143c0 .057.024.113.064.15M448.76 196.713a.887.887 0 0 0 .348.21M449.108 196.922a2.347 2.347 0 0 0 1.522-.024M450.628 196.898a.88.88 0 0 0 .346-.217M450.652 196.034a.619.619 0 0 0-.252-.149M450.399 195.885a1.69 1.69 0 0 0-1.089.013M449.31 195.898a.597.597 0 0 0-.247.159" style="fill:none;stroke:#00ff4a;stroke-width:.666665;stroke-linecap:round;stroke-linejoin:round;stroke-miterlimit:2;stroke-dasharray:none;stroke-opacity:1;visibility:visible"/><path d="m449.878 197.326.069 4.824" style="fill:none;stroke:#00ff4a;stroke-width:.666665;stroke-linecap:round;stroke-linejoin:round;stroke-miterlimit:4;stroke-dasharray:none;stroke-opacity:1;visibility:visible"/><path d="M452.447 195.605a.212.212 0 0 0-.05.143.215.215 0 0 0 .066.15M452.463 195.9a.877.877 0 0 0 .347.209M452.812 196.109c.248.077.506.117.763.113.257-.002.512-.049.757-.136M454.33 196.086a.877.877 0 0 0 .349-.218M454.355 195.222a.615.615 0 0 0-.253-.149M454.102 195.072a1.68 1.68 0 0 0-1.088.013M453.012 195.086a.61.61 0 0 0-.248.159M454.739 195.713l.081 5.652M452.398 195.749l.077 5.487M454.36 195.226l.32.346M452.759 195.249l-.31.356" style="fill:none;stroke:#00ff4a;stroke-width:.666665;stroke-linecap:round;stroke-linejoin:round;stroke-miterlimit:2;stroke-dasharray:none;stroke-opacity:1;visibility:visible"/><path d="M454.678 195.869a.217.217 0 0 0 .06-.156.201.201 0 0 0-.058-.14" style="fill:none;stroke:#00ff4a;stroke-width:.666665;stroke-linecap:round;stroke-linejoin:round;stroke-miterlimit:2;stroke-dasharray:none;stroke-opacity:1;visibility:visible"/><path d="m453.579 196.512.071 4.825M443.092 210.805l-1.662 14.748" style="fill:none;stroke:#00ff4a;stroke-width:.666665;stroke-linecap:round;stroke-linejoin:round;stroke-miterlimit:4;stroke-dasharray:none;stroke-opacity:1;visibility:visible"/><path d="m443.092 210.805-2.266 12.593M398.623 272.282l3.249 1.719M399.535 363.38l3.201 1.59M399.759 385.731l3.191 1.618M399.98 407.915l3.178 1.699M400.199 429.938l3.171 1.705M397.919 202.12l3.279 1.462M398.156 225.685l3.267 1.649M398.39 249.072l3.254 1.488M398.851 295.314l3.231 1.482M399.079 318.175l3.227 1.652" style="fill:none;stroke:#00ff4a;stroke-width:1.99999;stroke-linecap:round;stroke-linejoin:round;stroke-miterlimit:4;stroke-dasharray:none;stroke-opacity:1;visibility:visible"/><path d="m399.252 324.22-7.413 12.225M401.9 323.512l-10.061 12.933M398.094 208.404l-7.636 5.385M400.152 207.933l-9.694 5.857M400.586 457.572l-7.423-3.269M403.174 456.76l-10.01-2.457" style="fill:none;stroke:#00ff4a;stroke-width:.999997;stroke-linecap:round;stroke-linejoin:round;stroke-miterlimit:4;stroke-dasharray:none;stroke-opacity:1;visibility:visible"/><path d="m431.54 355.846 10.335-11.993" style="fill:none;stroke:#00ff4a;stroke-width:.666665;stroke-linecap:round;stroke-linejoin:round;stroke-miterlimit:4;stroke-dasharray:none;stroke-opacity:1;visibility:visible"/><path d="m399.368 347.02-.116-11.823" style="fill:none;stroke:#00ff4a;stroke-width:.999997;stroke-linecap:round;stroke-linejoin:round;stroke-miterlimit:4;stroke-dasharray:none;stroke-opacity:1;visibility:visible"/><path d="m441.463 364.514-9.923-8.668M431.54 355.846l10.172-14.192" style="fill:none;stroke:#00ff4a;stroke-width:1.99999;stroke-linecap:round;stroke-linejoin:round;stroke-miterlimit:4;stroke-dasharray:none;stroke-opacity:1;visibility:visible"/><path d="m446.986 203-2.674-.542" style="fill:none;stroke:#00ff4a;stroke-width:.666665;stroke-linecap:round;stroke-linejoin:round;stroke-miterlimit:4;stroke-dasharray:none;stroke-opacity:1;visibility:visible"/><path d="m400.479 457.73-.06-5.934" style="fill:none;stroke:#00ff4a;stroke-width:.999997;stroke-linecap:round;stroke-linejoin:round;stroke-miterlimit:4;stroke-dasharray:none;stroke-opacity:1;visibility:visible"/><path d="m443.868 500.61-2.25-5.035" style="fill:none;stroke:#00ff4a;stroke-width:1.99999;stroke-linecap:round;stroke-linejoin:round;stroke-miterlimit:4;stroke-dasharray:none;stroke-opacity:1;visibility:visible"/><path d="m393.164 454.303 10.01 2.457" style="fill:none;stroke:#00ff4a;stroke-width:.999997;stroke-linecap:round;stroke-linejoin:round;stroke-miterlimit:4;stroke-dasharray:none;stroke-opacity:1;visibility:visible"/><path d="m446.986 203-.294-1.515M443.092 210.805l-2.181 7.969" style="fill:none;stroke:#00ff4a;stroke-width:1.99999;stroke-linecap:round;stroke-linejoin:round;stroke-miterlimit:4;stroke-dasharray:none;stroke-opacity:1;visibility:visible"/><path d="m462.304 223.756-.286 1.917M462.159 223.792l-.141 1.88" style="fill:none;stroke:#00ff4a;stroke-width:.999997;stroke-linecap:round;stroke-linejoin:round;stroke-miterlimit:4;stroke-dasharray:none;stroke-opacity:1;visibility:visible"/><path d="m431.54 355.846 10.092 10.967" style="fill:none;stroke:#00ff4a;stroke-width:.666665;stroke-linecap:round;stroke-linejoin:round;stroke-miterlimit:4;stroke-dasharray:none;stroke-opacity:1;visibility:visible"/><path d="m431.54 355.846 9.923 8.668" style="fill:none;stroke:#00ff4a;stroke-width:1.99999;stroke-linecap:round;stroke-linejoin:round;stroke-miterlimit:4;stroke-dasharray:none;stroke-opacity:1;visibility:visible"/><path d="m462.018 225.672.141-1.88M462.018 225.673l.286-1.917" style="fill:none;stroke:#00ff4a;stroke-width:.999997;stroke-linecap:round;stroke-linejoin:round;stroke-miterlimit:4;stroke-dasharray:none;stroke-opacity:1;visibility:visible"/><path d="m452.147 202.79-2.2-.64M452.148 202.788l1.502-1.451" style="fill:none;stroke:#00ff4a;stroke-width:.666665;stroke-linecap:round;stroke-linejoin:round;stroke-miterlimit:4;stroke-dasharray:none;stroke-opacity:1;visibility:visible"/><path d="m443.868 500.61-2.052-1.183" style="fill:none;stroke:red;stroke-width:1.99999;stroke-linecap:round;stroke-linejoin:round;stroke-miterlimit:4;stroke-dasharray:none;stroke-opacity:1;visibility:visible" visibility="hidden"/><path d="m442.19 508.583-8.539-2.159" style="fill:none;stroke:red;stroke-width:.999997;stroke-linecap:round;stroke-linejoin:round;stroke-miterlimit:4;stroke-dasharray:none;stroke-opacity:1;visibility:visible" visibility="hidden"/><path d="m442.19 508.583-14.114-.227" style="fill:none;stroke:red;stroke-width:1.99999;stroke-linecap:round;stroke-linejoin:round;stroke-miterlimit:4;stroke-dasharray:none;stroke-opacity:1;visibility:visible" visibility="hidden"/><path d="m468.903 455.292-9.973 5.158M468.903 455.292l-9.943 9.99" style="fill:none;stroke:red;stroke-width:.999997;stroke-linecap:round;stroke-linejoin:round;stroke-miterlimit:4;stroke-dasharray:none;stroke-opacity:1;visibility:visible" visibility="hidden"/><path d="m398.452 176.181 7.039-9.199" style="fill:none;stroke:red;stroke-width:.666665;stroke-linecap:round;stroke-linejoin:round;stroke-miterlimit:4;stroke-dasharray:none;stroke-opacity:1;visibility:visible" visibility="hidden"/><path d="m401.011 183.222 5.912-10.821M398.452 176.181l5.25-11.889" style="fill:none;stroke:red;stroke-width:.666665;stroke-linecap:round;stroke-linejoin:round;stroke-miterlimit:500;stroke-dasharray:none;stroke-opacity:1;visibility:visible" visibility="hidden"/><path d="m401.872 274.001-3.188 4.58M400.955 177.114l-3.209 7.752" style="fill:none;stroke:#00ff4a;stroke-width:.666665;stroke-linecap:round;stroke-linejoin:round;stroke-miterlimit:4;stroke-dasharray:none;stroke-opacity:1;visibility:visible"/><path d="m460.903 450.995-18.551.631" style="fill:none;stroke:#00ff4a;stroke-width:1.99999;stroke-linecap:round;stroke-linejoin:round;stroke-miterlimit:4;stroke-dasharray:none;stroke-opacity:1;visibility:visible"/><path d="m458.93 460.45-17.411-3.17" style="fill:none;stroke:#00ff4a;stroke-width:.666665;stroke-linecap:round;stroke-linejoin:round;stroke-miterlimit:4;stroke-dasharray:none;stroke-opacity:1;visibility:visible"/><path d="m458.93 460.45-17.108-5.38M402.736 364.97l-.62-18.835" style="fill:none;stroke:#00ff4a;stroke-width:1.99999;stroke-linecap:round;stroke-linejoin:round;stroke-miterlimit:4;stroke-dasharray:none;stroke-opacity:1;visibility:visible"/></svg>