<svg xmlns="http://www.w3.org/2000/svg" baseProfile="full" height="1122.52" preserveAspectRatio="xMinYMin meet" style="width:729px;height:902px" width="793.701" xml:space="preserve"><path d="m244.935 898.798-.35-9.061-7.047-4.207M359.706 962.216l-.094-.04-.104-.033h-.082l-.092.021-.072.042-.074.062-.052.083-.05.103-.03.124-.023.136-.009.142.009.155.022.156.03.165.052.166.051.154.074.155.072.145.081.124.093.124.094.094.104.082.092.051.092.041.094.012h.094l.082-.03.072-.065.062-.071.052-.092.042-.115.02-.124.019-.133v-.156l-.007-.155-.03-.165-.045-.166-.051-.156-.062-.154-.072-.155-.082-.135-.083-.124-.093-.102-.104-.094-.092-.072M553.312 895.429l.115-.042.102-.052.084-.061.05-.064.043-.06.021-.061-.012-.063-.02-.072-.051-.064-.074-.06-.082-.052-.103-.052-.124-.041-.134-.042-.147-.03-.153-.011-.155-.02h-.165l-.155.01-.156.019-.143.022-.136.033-.124.039-.103.052-.082.052-.072.06-.052.065-.032.061v.062l.01.072.044.061.05.064.083.06.104.052.112.041.125.043.143.03.146.032.154.009.156.013h.165l.155-.024.145-.02.144-.02.124-.041M549.81 896.607l.114-.041.103-.05.083-.064.05-.062.043-.061.02-.063-.01-.072-.021-.061-.052-.063-.072-.06-.083-.053-.104-.051-.121-.043-.137-.041-.144-.03-.155-.021-.153-.013h-.167l-.156.013-.155.01-.143.032-.135.029-.126.043-.101.05-.093.055-.063.049-.052.072-.03.063-.01.061.02.072.03.063.064.063.082.05.092.063.115.041.134.04.135.033.155.03.153.012.156.008h.155l.165-.02.145-.021.144-.02.126-.042M480.252 919.969l.124-.043.104-.052.08-.061.073-.063.042-.072.02-.061v-.072l-.02-.075-.042-.059-.072-.061-.081-.064-.104-.052-.124-.041-.136-.043-.144-.029-.155-.022-.165-.009h-.319l-.157.02-.155.032-.144.031-.124.04-.113.054-.093.049-.083.064-.052.071-.03.062-.01.073.011.072.03.061.061.074.073.05.093.063.113.05.135.043.133.031.155.03.157.012.167.009.163-.011.154-.009.155-.022.144-.029.136-.041M476.575 921.207l.124-.052.101-.05.093-.053.063-.072.041-.06.033-.074v-.072l-.033-.064-.04-.07-.065-.062-.091-.052-.101-.063-.125-.041-.136-.042-.144-.03-.155-.02-.155-.01h-.165l-.165.01-.155.01-.156.03-.133.032-.135.05-.115.044-.091.061-.073.062-.062.062-.03.073-.013.06.012.073.03.073.054.062.081.063.092.05.115.052.135.043.133.039.156.021.155.022h.33l.156-.011.154-.021.144-.032.136-.041M403.536 945.747l.124-.052.114-.05.093-.063.072-.072.052-.072.03-.072v-.072l-.019-.074-.042-.06-.062-.075-.083-.061-.103-.052-.125-.052-.133-.04-.146-.03-.154-.022-.166-.01h-.165l-.165.01-.164.01-.156.032-.146.04-.132.042-.125.051-.104.063-.083.062-.062.072-.042.072-.009.072v.072l.032.064.05.071.072.061.094.063.113.052.134.041.146.042.144.02.166.02.164.011.166-.011.164-.009.166-.021.146-.033.144-.039M399.671 947.038l.124-.042.115-.06.092-.065.073-.059.05-.075.032-.069v-.075l-.011-.073-.042-.07-.061-.063-.092-.061-.104-.063-.113-.041-.135-.042-.156-.03-.155-.022-.165-.02h-.164l-.167.012-.164.02-.156.02-.145.042-.133.041-.124.061-.103.052-.084.072-.063.063-.04.072-.011.072v.072l.034.073.049.072.072.063.096.061.112.051.134.041.134.032.155.031.165.02h.331l.165-.01.164-.019.147-.044.144-.04M546.161 897.713l.103-.043.084-.04.07-.052.044-.052.03-.061v-.065l-.01-.05-.042-.061-.061-.051-.074-.053-.092-.042-.113-.04-.124-.03-.124-.023-.145-.02h-.279l-.144.01-.124.023-.124.029-.115.039-.093.044-.072.051-.061.052-.031.052-.021.06.01.064.02.052.054.061.061.053.092.04.104.042.113.04.124.023.135.02.145.01h.279l.133-.021.135-.02.113-.041M472.761 922.376l.104-.039.095-.055.07-.051.05-.061.033-.063.01-.063-.01-.059-.042-.064-.051-.051-.073-.05-.092-.055-.115-.04-.12-.031-.137-.021-.135-.02h-.288l-.145.01-.135.02-.133.03-.115.044-.102.051-.085.052-.06.051-.042.062-.02.061v.063l.03.062.042.051.061.064.094.039.103.054.115.029.122.034.146.018.134.009h.155l.135-.009.144-.01.133-.032.124-.03M395.662 948.267l.114-.041.102-.05.072-.065.064-.061.041-.062.01-.062-.009-.062-.033-.072-.052-.052-.07-.062-.095-.042-.114-.05-.122-.032-.135-.02-.144-.022-.147-.01-.144.01-.154.011-.136.021-.132.031-.124.041-.104.052-.094.052-.062.062-.051.061-.02.063-.01.072.019.062.044.062.06.052.082.052.104.052.124.04.124.03.144.022.145.01h.145l.156-.01.144-.022.134-.03.124-.03M355.614 956.12l8.058 4.826M558.385 895.418l-194.713 65.528M363.672 960.946l.188 9.578M492.361 871.169l-.06-.022-.085-.02-.092-.02h-.184l-.085.02-.08.011-.063.03-.052.032-.032.042-.01.03.009.041.033.031.052.031.063.032.08.019.084.01.093.012.092-.011.093-.011.073-.019.071-.021.054-.043.03-.03.009-.04-.009-.031-.031-.043-.054-.029M484.88 865.155l-.113-.052-.124-.041-.144-.03-.146-.03-.153-.023-.167-.009-.165-.01-.165.01-.166.01-.154.02-.146.034-.144.04-.125.04-.103.052-.092.063-.073.05-.05.072-.032.063v.063l.011.072.029.061.052.063.085.062.092.051.103.052.135.04.135.043.152.029.158.021.165.012h.33l.155-.022.165-.021.143-.03.136-.032.124-.05.113-.054.083-.049.073-.063.051-.061.03-.074.01-.061-.011-.063-.037-.072-.055-.061-.072-.061-.093-.054M526.892 889.613l-.135-.074-.102-.082-.095-.083-.07-.084-.042-.092-.03-.083v-.092l.019-.093.04-.083.063-.093.083-.084.104-.07.123-.073.145-.073.154-.061.176-.053.187-.041.196-.041.207-.03.208-.023.216-.009h.433l.217.021.208.022.207.04.184.042.187.049.165.053.155.062.145.073.115.072.101.084.083.083.061.092.033.084.02.09-.01.095-.031.082-.052.093-.073.082-.092.085-.115.071-.133.07-.157.065-.165.061-.174.05-.196.043-.198.03-.206.033-.216.009-.218.011h-.217l-.216-.021-.217-.022-.208-.02-.195-.041-.187-.052-.174-.052-.167-.061-.144-.061M489.892 866.395l-.082-.052-.073-.061-.04-.063-.033-.049-.011-.063.022-.064.03-.061.063-.061.073-.052.092-.052.114-.042.123-.041.135-.021.146-.03.154-.01h.3l.155.01.143.019.136.032.124.041.113.042.094.041.082.063.052.049.04.064.021.06-.01.064-.02.061-.052.063-.063.052-.08.05-.105.054-.123.04-.125.03-.147.022-.143.02-.154.01h-.155l-.156-.01-.144-.02-.144-.021-.124-.031-.125-.041-.103-.042M439.666 848.14l92.32 47.516M410.531 888.837l-.093-.063-.072-.061-.052-.063-.032-.07v-.075l.01-.062.032-.072.063-.061.081-.072.092-.053.115-.051.135-.052.134-.042.156-.03.164-.02.166-.021h.34l.166.01.155.021.155.031.146.042.123.04.103.053.092.059.073.065.052.059.03.075.012.073-.011.07-.042.063-.05.072-.084.063-.092.06-.114.053-.134.041-.146.041-.153.031-.157.032-.166.01-.174.01-.166-.01-.164-.01-.164-.021-.148-.03-.144-.042-.124-.041-.113-.052M415.852 890.046l-.104-.052-.113-.041-.135-.031-.144-.032-.154-.01-.156-.01h-.156l-.155.01-.153.01-.146.032-.134.03-.124.043-.114.051-.081.052-.073.061-.052.063-.042.061v.072l.01.062.032.062.052.062.08.052.094.053.116.05.123.032.133.029.146.023.154.02h.32l.156-.02.144-.022.144-.03.124-.043.126-.039.092-.053.082-.063.063-.05.04-.073.021-.062v-.062l-.021-.061-.04-.063-.072-.061-.083-.052M423.239 896.329l-.072-.031-.083-.021-.084-.02h-.194l-.084.02-.082.02-.073.021-.05.042-.043.03-.009.044.009.039.031.042.043.03.071.033.071.019.094.011h.186l.093-.011.083-.019.072-.032.05-.03.032-.044.022-.039-.012-.043-.03-.03-.042-.032M366.864 869.946l91.743 50.197M423.434 889.075l-10.094-5.455M423.435 889.075l59.05-18.888M347.876 913.242l-9.752-5.616M347.876 913.24l61.92-19.805M276.097 887.494l-.022-.724-.093-2.572M334.32 915.94l-.073-.054-.052-.049-.03-.064-.009-.06.009-.063.031-.063.052-.05.083-.052.092-.052.104-.043.124-.04.135-.03.133-.012.145-.009.144-.009.144.009.135.021.124.02.115.042.102.04.083.043.063.06.04.053.021.061v.063l-.021.061-.04.052-.072.063-.084.05-.103.042-.113.04-.124.031-.135.034-.143.009-.146.009-.146-.009-.133-.011-.135-.02-.124-.031-.104-.042-.092-.041M339.868 914.171l.083.052.063.062.04.062.021.073v.061l-.03.073-.054.061-.059.072-.095.053-.103.062-.124.041-.135.042-.143.03-.157.03-.165.013h-.32l-.155-.012-.153-.02-.136-.041-.124-.031-.114-.052-.093-.052-.073-.063-.05-.061-.032-.063-.01-.072.02-.071.031-.063.064-.062.082-.062.093-.063.112-.05s1.184-.498 1.716.051M275.983 884.198l105.639 61.684M244.585 889.735l29.425-7.533M325.763 866.507l-51.753 15.695M274.322 891.202l-.31-9" style="fill:none;stroke:red;stroke-width:.999997;stroke-linecap:round;stroke-linejoin:round;stroke-miterlimit:4;stroke-dasharray:none;stroke-opacity:1;visibility:visible"/><path d="m241.185 891.12.092.063.083.072.082.103.073.112.072.125.073.135.053.144.05.156.042.153.02.147.02.153v.147l-.01.123-.02.122-.032.115-.04.083-.062.073-.063.061-.061.03-.082.013-.073-.012-.092-.03-.084-.054-.083-.071-.082-.082-.083-.114-.073-.114-.072-.134-.063-.145-.05-.145-.043-.154-.029-.155-.023-.145-.009-.145v-.144l.021-.124.02-.115.043-.102.051-.083.051-.062.073-.041.071-.021h.074l.082.021.083.042" style="fill:none;stroke:red;stroke-width:.999997;stroke-linecap:round;stroke-linejoin:round;stroke-miterlimit:4;stroke-dasharray:none;stroke-opacity:1;visibility:visible"/><path d="m290.087 879.92 47.203 27.223M348.276 913.478l47.748 27.537M244.935 898.798l29.387-7.595M325.322 859.118l-87.784 26.413M297.402 884.135l28.75-8.794M274.322 891.202l3.295-1.012M244.935 898.798l-7.034-4.248M237.9 894.551l-.363-9.02" style="fill:none;stroke:red;stroke-width:1.99999;stroke-linecap:round;stroke-linejoin:round;stroke-miterlimit:4;stroke-dasharray:none;stroke-opacity:1;visibility:visible"/><path d="m276.16 889.342-.063-1.85M290.087 879.92l-4.38 1.324M285.706 881.243l-9.724 2.955" style="fill:none;stroke:red;stroke-width:.999997;stroke-linecap:round;stroke-linejoin:round;stroke-miterlimit:4;stroke-dasharray:none;stroke-opacity:1;visibility:visible"/><path d="m376.164 948.03-100.006-58.688" style="fill:none;stroke:red;stroke-width:1.99999;stroke-linecap:round;stroke-linejoin:round;stroke-miterlimit:4;stroke-dasharray:none;stroke-opacity:1;visibility:visible"/><path d="m409.848 897.58-.052-4.146" style="fill:none;stroke:red;stroke-width:.999997;stroke-linecap:round;stroke-linejoin:round;stroke-miterlimit:4;stroke-dasharray:none;stroke-opacity:1;visibility:visible"/><path d="m352.598 915.97 57.25-18.39M337.9 907.547l61.834-19.62" style="fill:none;stroke:red;stroke-width:1.99999;stroke-linecap:round;stroke-linejoin:round;stroke-miterlimit:4;stroke-dasharray:none;stroke-opacity:1;visibility:visible"/><path d="m482.495 874.249-.01-4.062" style="fill:none;stroke:red;stroke-width:.999997;stroke-linecap:round;stroke-linejoin:round;stroke-miterlimit:4;stroke-dasharray:none;stroke-opacity:1;visibility:visible"/><path d="m355.614 956.12.196 9.548M548.197 890.251l10.19 5.167M548.197 890.251 382.53 945.52l-26.915 10.6M363.86 970.524l-8.05-4.856M558.385 895.418l-.104 9.092M558.281 904.511 363.86 970.523M466.221 866.84l-33.1-17.125M525.87 897.702l-44.593-23.07M451.986 843.86l93.123 47.416M393.834 889.798l-32.006-17.595M452.635 922.127l-43.965-24.166M380.602 865.914l32.245 17.437M423.99 889.378l48.389 26.168M428.24 891.667l54.255-17.42M413.34 883.62l58.936-18.694" style="fill:none;stroke:red;stroke-width:1.99999;stroke-linecap:round;stroke-linejoin:round;stroke-miterlimit:4;stroke-dasharray:none;stroke-opacity:1;visibility:visible"/><path d="m549.811 896.607 3.501-1.178M549.81 896.607l3.502-1.178M553.312 895.429l-3.502 1.178M553.312 895.429l-3.501 1.178M476.575 921.207l3.677-1.238M472.761 922.376l7.491-2.407M480.252 919.969l-3.677 1.238M399.671 947.038l3.865-1.29M403.536 945.748l-3.865 1.29M395.662 948.267l4.009-1.229M549.811 896.607l-3.65 1.106M549.81 896.607l-3.649 1.106M476.575 921.207l-3.814 1.169M399.671 947.038l-4.009 1.229M489.892 866.395l2.469 4.774M489.892 866.395l2.468 4.775M489.892 866.395l-5.012-1.24M489.892 866.395l-5.012-1.24M531.986 895.656l-5.094-6.043M484.88 865.155l5.012 1.24M484.88 865.155l5.012 1.24M526.892 889.613l5.094 6.043M415.852 890.046l-5.321-1.209M415.852 890.046l-5.321-1.209M410.531 888.837l5.321 1.209M410.531 888.837l5.321 1.209M410.531 888.837l12.708 7.492M410.531 888.837l12.707 7.491M339.868 914.171l-5.548 1.769M334.32 915.94l5.548-1.769M244.935 898.798l-3.75-7.678M237.901 894.55l3.284-3.429" style="fill:none;stroke:red;stroke-width:.999997;stroke-linecap:round;stroke-linejoin:round;stroke-miterlimit:4;stroke-dasharray:none;stroke-opacity:1;visibility:visible"/><path d="m290.087 879.92 7.315 4.215M275.982 884.198l1.635 5.992M413.34 883.62l-13.606 4.307M481.277 874.632l-15.056-7.792M526.892 889.613l-1.022 8.089M484.88 865.155l-3.603 9.477M548.197 890.251l-3.088 1.025M410.531 888.837l-16.697.961M415.852 890.046l-7.182 7.915M409.796 893.435l18.444-1.768" style="fill:none;stroke:red;stroke-width:1.99999;stroke-linecap:round;stroke-linejoin:round;stroke-miterlimit:4;stroke-dasharray:none;stroke-opacity:1;visibility:visible"/><path d="M329.713 581.979v.196l-.031.205-.043.208-.062.196-.082.196-.092.187-.113.165-.136.165-.135.144-.154.124-.155.105-.165.093-.176.061-.176.041-.166.022h-.176l-.165-.031-.153-.043-.156-.072-.135-.093-.133-.113-.114-.135-.093-.153-.083-.157-.062-.185-.04-.185-.032-.197v-.198l.009-.205.032-.207.063-.197.071-.196.083-.185.115-.187.112-.165.133-.155.147-.133.155-.115.165-.103.176-.073.164-.05.176-.034.177-.008.164.01.167.039.153.064.146.082.134.105.114.124.113.144.083.153.072.167.051.187.04.185.014.207M332.915 715.834l-.01.186-.02.206-.044.198-.061.185-.083.197-.093.175-.113.176-.124.155-.134.145-.146.133-.153.104-.165.092-.166.074-.176.05-.165.022-.165.01-.167-.021-.153-.041-.147-.062-.143-.082-.125-.103-.103-.125-.102-.134-.072-.156-.063-.165-.042-.176-.031-.185v-.196l.01-.196.032-.198.063-.196.061-.196.095-.185.1-.176.116-.165.132-.156.145-.135.155-.123.155-.093.165-.083.165-.062.177-.04.165-.012.165.011.156.021.154.051.145.073.135.104.114.102.104.134.081.144.072.166.052.176.041.176.012.196M335.983 844.294v.185l-.03.198-.043.185-.062.196-.07.176-.095.185-.113.166-.123.154-.136.156-.133.125-.155.113-.165.093-.156.072-.175.063-.166.029-.154.012-.165-.01-.155-.032-.136-.051-.133-.072-.124-.094-.115-.113-.092-.135-.072-.144-.063-.156-.04-.165-.021-.185-.013-.176.023-.196.029-.187.053-.197.062-.186.093-.185.104-.176.115-.165.12-.144.148-.146.144-.112.154-.105.167-.092.164-.061.167-.043.165-.02h.164l.156.02.144.043.145.061.123.083.114.102.103.124.083.135.072.155.053.165.03.165.011.187M324.546 547.468l8.121 330.333M331.386 545.31l-.02.05-.041.041-.075.043-.08.04-.115.043-.124.03-.144.03-.154.022-.156.021-.175.01-.165.01h-.177l-.165-.01-.165-.02-.145-.021-.135-.022-.123-.03-.102-.042-.085-.03-.062-.052-.03-.043-.021-.039M339.496 544.421l-14.951 3.049M324.546 547.468l-.433-.01M325.538 545.919l.135-.02.144-.01.143-.023h.31l.147.011.145.011.123.02.124.02.101.032.085.03.05.043.043.04.022.042-.012.042-.032.04-.05.043-.074.03-.092.04-.115.034-.122.019-.146.021-.144.02h-.153l-.157.01-.144-.009-.144-.011-.146-.011-.124-.031-.104-.02-.091-.03-.074-.042-.052-.032-.03-.041v-.042l.019-.04.044-.041.062-.042.08-.042.105-.03.124-.03M321.962 559.827v-.187l.021-.175.03-.174.043-.156.051-.135.073-.124.071-.103.094-.082.092-.052.105-.04.103-.012.114.021.112.03.104.064.115.082.112.103.104.123.093.146.083.155.081.174.074.176.05.196.054.196.029.188.02.195v.197l-.01.187-.019.173-.043.157-.04.155-.063.123-.072.115-.082.092-.092.062-.104.053-.105.02h-.102l-.115-.03-.113-.043-.113-.072-.104-.093-.114-.124-.092-.124-.093-.154-.084-.166-.072-.176-.07-.185-.054-.187-.031-.196-.03-.197-.011-.196M329.577 864.391l.022.186.019.176.032.185.052.187.061.175.072.175.083.155.082.156.094.143.104.114.102.115.115.083.103.061.102.041.114.031.092-.01.094-.019.093-.044.084-.071.062-.084.061-.112.042-.124.041-.135.022-.155.009-.166-.01-.175-.01-.176-.032-.185-.042-.187-.062-.174-.061-.177-.072-.177-.095-.153-.08-.145-.104-.135-.104-.112-.104-.095-.113-.07-.103-.064-.104-.031-.103-.01-.102.011-.084.042-.092.052-.074.082-.062.095-.051.12-.041.127-.03.153-.012.156-.01.165M324.111 547.459l-3.131-1.19" style="fill:none;stroke:#00ff4a;stroke-width:.999997;stroke-linecap:round;stroke-linejoin:round;stroke-miterlimit:4;stroke-dasharray:none;stroke-opacity:1;visibility:visible" visibility="hidden"/><path d="m339.496 544.421 156.39-31.885" style="fill:none;stroke:#00ff4a;stroke-width:.666665;stroke-linecap:round;stroke-linejoin:round;stroke-miterlimit:4;stroke-dasharray:none;stroke-opacity:1;visibility:visible" visibility="hidden"/><path d="m492.207 512.598.02.04-.01.042-.034.042-.039.04-.072.043-.092.029-.104.033-.125.031-.144.02-.147.02-.153.011-.167.009h-.153l-.167-.009-.153-.011-.155-.019-.135-.021-.125-.032-.112-.031M409.87 529.18l-.083-.032-.072-.04-.052-.041-.021-.042M412.019 529.027l-.03.041-.054.042-.083.04-.092.031-.113.031-.136.032-.143.03-.156.012-.154.01-.176.01h-.166l-.165-.011-.156-.009-.153-.012-.135-.029-.124-.034-.113-.029M336.346 543.244l3.152 1.177M488.084 578.197l-.174.053-.177.071-.165.094-.165.114-.155.122-.155.156-.133.166-.125.174-.115.186-.103.198-.082.217-.062.205-.052.218-.03.217-.011.217v.216l.03.209.033.195.06.196.073.175.092.165.104.146.124.133.124.104.145.093.155.073.165.051.166.031h.165l.176-.021.175-.031.176-.061.176-.083.165-.104.153-.123.158-.145.144-.155.133-.165.115-.188.103-.195.093-.206.072-.208.062-.217.043-.215.019-.218v-.217l-.01-.207-.032-.208-.052-.194-.06-.186-.083-.165-.094-.156-.115-.144-.122-.113-.146-.104-.144-.083-.154-.063-.167-.041-.164-.01h-.176l-.176.032M488.012 766.948l-.176.052-.165.082-.166.104-.154.114-.155.134-.145.144-.134.166-.125.176-.102.185-.103.197-.074.206-.072.206-.04.207-.033.207-.008.208v.194l.019.198.041.185.053.176.071.156.093.153.104.135.114.113.124.094.145.082.144.052.156.042.164.01.165-.01.167-.022.175-.05.165-.072.165-.094.167-.104.153-.124.146-.144.144-.154.124-.176.111-.176.105-.196.094-.198.072-.194.052-.208.042-.216.018-.208v-.195l-.009-.197-.032-.196-.039-.176-.062-.176-.083-.155-.095-.133-.113-.124-.124-.104-.133-.094-.146-.06-.144-.051-.165-.024-.165-.009-.166.02-.165.042M411.552 823.434l-.152.03-.168.023-.145-.011-.144-.032-.144-.041-.124-.073-.124-.083-.103-.113-.093-.124-.073-.135-.063-.154-.04-.166-.021-.165-.01-.185.01-.187.032-.185.052-.186.061-.186.072-.176.103-.176.104-.166.124-.143.134-.135.134-.125.156-.102.144-.093.166-.063.154-.05.154-.022.156-.01.146.02.142.032.135.062.125.083.114.093.093.113.092.135.061.144.052.156.032.175.02.176-.009.176-.01.185-.041.187-.065.185-.06.185-.095.176-.102.167-.114.164-.124.146-.134.122-.143.115-.157.102-.154.074-.156.061M410.066 697.67l-.156.03h-.164l-.156-.009-.144-.031-.146-.064-.133-.07-.115-.106-.114-.112-.092-.134-.072-.144-.064-.157-.04-.176-.03-.185v-.186l.01-.185.03-.197.042-.196.073-.188.081-.184.094-.176.114-.155.123-.155.135-.134.144-.124.146-.103.154-.083.164-.062.157-.042.165-.02h.155l.156.03.144.042.133.072.124.084.116.102.102.125.082.144.074.155.052.166.03.175.02.185v.186l-.02.197-.04.195-.064.188-.073.185-.081.187-.104.165-.124.155-.126.144-.142.134-.146.104-.154.092-.156.083-.164.053M408.527 566.759l-.167.021h-.165l-.153-.02-.156-.043-.146-.06-.132-.094-.125-.104-.104-.124-.093-.145-.082-.154-.062-.176-.042-.176-.032-.196-.008-.187.019-.205.032-.196.041-.197.072-.196.083-.187.093-.175.114-.165.124-.156.144-.133.145-.115.155-.103.154-.082.166-.051.165-.044.165-.008.156.01.155.03.155.063.134.072.135.093.112.124.104.135.084.144.07.165.053.176.042.185.011.198v.196l-.023.196-.04.197-.051.195-.084.197-.082.176-.113.175-.114.155-.136.145-.142.134-.148.103-.164.095-.156.06-.163.052M486.896 822.297l-.073.041-.07.042-.065.073-.051.07-.04.083-.021.094-.012.093.012.081.02.073.041.063.053.04.062.032h.07l.075-.01.073-.03.07-.052.061-.064.052-.072.032-.092.031-.082.01-.094-.009-.083-.031-.072-.034-.061-.051-.043-.06-.03-.073-.01-.072.009M486.959 523.27l.071-.03.07-.043.075-.07.052-.073.041-.092.02-.095.012-.094-.012-.09-.02-.084-.041-.072-.052-.062-.063-.032-.081-.02-.072.01-.074.021-.072.052-.072.062-.051.072-.04.093-.02.092-.014.105.012.092.022.083.04.072.051.052.072.041.072.01h.075" style="fill:none;stroke:#00ff4a;stroke-width:.999997;stroke-linecap:round;stroke-linejoin:round;stroke-miterlimit:4;stroke-dasharray:none;stroke-opacity:1;visibility:visible" visibility="hidden"/><path d="m490.141 512.835-.093-.03-.072-.043-.052-.04-.021-.042-.01-.04M487.94 580.397l-.063-.03-.073-.052-.052-.062-.05-.073-.042-.083-.04-.082-.021-.092-.03-.094-.013-.093-.019-.092-.013-.104-.008-.103-.01-.104v-.206l-.012-.094.011-.102v-.094l.011-.092.01-.082.009-.094.022-.072.023-.064.029-.05M486.617 522.962l.051-.072.042-.074.031-.093.02-.093v-.092M486.576 822.68l.052-.072.04-.083.022-.083M488.095 766.926l.093.072.103.083.094.104.082.103.073.092.072.114.05.116.043.122.029.113.012.105v.103l-.011.113-.03.094-.031.102-.051.083-.054.083-.069.072-.075.062-.08.05-.085.045-.103.029-.104.01-.093-.01-.08-.03M487.879 768.756l-.052-.031-.052-.03-.04-.044-.043-.051-.03-.051-.034-.052-.028-.061-.03-.064-.034-.123-.029-.124-.022-.145-.02-.143-.011-.075v-.082l-.009-.071v-.393" style="fill:none;stroke:#00ff4a;stroke-width:.999997;stroke-linecap:round;stroke-linejoin:round;stroke-miterlimit:4;stroke-dasharray:none;stroke-opacity:1;visibility:visible" visibility="hidden"/><path d="M487.805 578.29h.042l.041.01.053.021.051.02.052.022.061.03.062.04.061.043.053.041.062.053.102.102.106.115.081.112.072.134.063.124.041.146.03.134v.134l-.01.134-.031.125-.04.123-.074.114-.082.103-.081.083-.104.072-.064.031-.061.032-.063.02-.061.01h-.114l-.06-.009-.053-.011" style="fill:none;stroke:#00ff4a;stroke-width:.999997;stroke-linecap:round;stroke-linejoin:round;stroke-miterlimit:4;stroke-dasharray:none;stroke-opacity:1;visibility:visible" visibility="hidden"/><path d="m346.823 873.451-14.156 4.351M320.98 546.27l.075-.122M321.053 546.145l6.916-1.4M332.306 543.868l3.44-.697M335.746 543.17l.423.01M332.252 877.782l-2.995-1.684M320.98 546.27l8.279 329.829" style="fill:none;stroke:#00ff4a;stroke-width:1.99999;stroke-linecap:round;stroke-linejoin:round;stroke-miterlimit:4;stroke-dasharray:none;stroke-opacity:1;visibility:visible" visibility="hidden"/><path d="m346.823 873.451-7.325-329.03" style="fill:none;stroke:#00ff4a;stroke-width:.999997;stroke-linecap:round;stroke-linejoin:round;stroke-miterlimit:4;stroke-dasharray:none;stroke-opacity:1;visibility:visible" visibility="hidden"/><path d="m495.885 512.535-.057 38.795M495.808 562.443l-.417 265.34-148.568 45.668M336.346 543.244l72.528-14.744M412.726 527.716l76.454-15.542M492.955 511.578l2.93.958M332.252 877.782l.414.02" style="fill:none;stroke:#00ff4a;stroke-width:1.99999;stroke-linecap:round;stroke-linejoin:round;stroke-miterlimit:4;stroke-dasharray:none;stroke-opacity:1;visibility:visible" visibility="hidden"/><path d="m492.141 506.983.104 5.652M489.799 507.027l.1 5.487M491.763 506.499l.321.344M490.16 506.527l-.31.357M492.081 507.139a.216.216 0 0 0 .003-.297M489.85 506.884a.215.215 0 0 0 .016.294M489.868 507.179a.893.893 0 0 0 .35.208M490.216 507.388a2.396 2.396 0 0 0 1.521-.028M491.737 507.359a.87.87 0 0 0 .344-.22M491.757 506.495a.627.627 0 0 0-.252-.15M491.505 506.344a1.657 1.657 0 0 0-.545-.08 1.67 1.67 0 0 0-.544.099M490.415 506.363a.613.613 0 0 0-.248.16" style="fill:none;stroke:#00ff4a;stroke-width:.666665;stroke-linecap:round;stroke-linejoin:round;stroke-miterlimit:2;stroke-dasharray:none;stroke-opacity:1;visibility:visible" visibility="hidden"/><path d="m490.987 507.788.088 4.824" style="fill:none;stroke:#00ff4a;stroke-width:.666665;stroke-linecap:round;stroke-linejoin:round;stroke-miterlimit:4;stroke-dasharray:none;stroke-opacity:1;visibility:visible" visibility="hidden"/><path d="m411.926 523.268.104 5.652M409.584 523.31l.1 5.49M411.546 522.783l.321.344M409.946 522.81l-.31.359M411.866 523.423a.216.216 0 0 0 .002-.296M409.635 523.168a.215.215 0 0 0 .015.293M409.652 523.464a.88.88 0 0 0 .35.208M410 523.67a2.396 2.396 0 0 0 1.522-.026M411.522 523.643a.87.87 0 0 0 .344-.22M411.54 522.778a.627.627 0 0 0-.252-.15M411.288 522.628a1.693 1.693 0 0 0-1.088.019M410.199 522.647a.613.613 0 0 0-.248.16" style="fill:none;stroke:#00ff4a;stroke-width:.666665;stroke-linecap:round;stroke-linejoin:round;stroke-miterlimit:2;stroke-dasharray:none;stroke-opacity:1;visibility:visible" visibility="hidden"/><path d="m410.772 524.072.088 4.824" style="fill:none;stroke:#00ff4a;stroke-width:.666665;stroke-linecap:round;stroke-linejoin:round;stroke-miterlimit:4;stroke-dasharray:none;stroke-opacity:1;visibility:visible" visibility="hidden"/><path d="m331.273 539.537.104 5.653M328.933 539.581l.1 5.487M330.894 539.053l.321.344M329.293 539.081l-.31.359M331.213 539.693a.216.216 0 0 0 .002-.296M328.983 539.439a.215.215 0 0 0 .015.293M329 539.735a.893.893 0 0 0 .348.208M329.349 539.941a2.396 2.396 0 0 0 1.52-.028M330.87 539.913a.87.87 0 0 0 .344-.22M330.889 539.048a.627.627 0 0 0-.252-.15M330.637 538.899a1.657 1.657 0 0 0-.547-.08 1.67 1.67 0 0 0-.543.098M329.546 538.917a.613.613 0 0 0-.248.16" style="fill:none;stroke:#00ff4a;stroke-width:.666665;stroke-linecap:round;stroke-linejoin:round;stroke-miterlimit:2;stroke-dasharray:none;stroke-opacity:1;visibility:visible" visibility="hidden"/><path d="m330.12 540.341.086 4.824" style="fill:none;stroke:#00ff4a;stroke-width:.666665;stroke-linecap:round;stroke-linejoin:round;stroke-miterlimit:4;stroke-dasharray:none;stroke-opacity:1;visibility:visible" visibility="hidden"/><path d="m339.66 875.727.103 5.59M337.195 876.578l.088 4.782M339.7 881.48a.22.22 0 0 0 .063-.164M337.283 881.36a.235.235 0 0 0 .07.163M339.708 881.471l-.328.375M337.346 881.514l.341.364M339.375 881.854c.003-.001.005-.007.005-.01M337.686 881.878l.006.007M337.692 881.885a.723.723 0 0 0 .268.16M337.96 882.045a1.832 1.832 0 0 0 1.154-.022M339.114 882.023a.721.721 0 0 0 .261-.168" style="fill:none;stroke:#00ff4a;stroke-width:.666665;stroke-linecap:round;stroke-linejoin:round;stroke-miterlimit:2;stroke-dasharray:none;stroke-opacity:1;visibility:visible" visibility="hidden"/><path d="m338.432 876.174.1 5.376" style="fill:none;stroke:#00ff4a;stroke-width:.666665;stroke-linecap:round;stroke-linejoin:round;stroke-miterlimit:4;stroke-dasharray:none;stroke-opacity:1;visibility:visible" visibility="hidden"/><path d="m415.66 852.394.103 5.59M413.195 853.245l.088 4.782M415.699 858.146a.22.22 0 0 0 .065-.163M413.283 858.027a.235.235 0 0 0 .07.163M415.71 858.138l-.328.375M413.346 858.18l.341.366M415.376 858.52c.004 0 .006-.005.006-.008M413.686 858.545l.006.005M413.692 858.551a.723.723 0 0 0 .268.16M413.96 858.711a1.832 1.832 0 0 0 1.154-.021M415.114 858.69a.721.721 0 0 0 .261-.168" style="fill:none;stroke:#00ff4a;stroke-width:.666665;stroke-linecap:round;stroke-linejoin:round;stroke-miterlimit:2;stroke-dasharray:none;stroke-opacity:1;visibility:visible" visibility="hidden"/><path d="m414.432 852.84.099 5.378" style="fill:none;stroke:#00ff4a;stroke-width:.666665;stroke-linecap:round;stroke-linejoin:round;stroke-miterlimit:4;stroke-dasharray:none;stroke-opacity:1;visibility:visible" visibility="hidden"/><path d="m492.436 828.831.104 5.59M489.97 829.68l.09 4.784M492.475 834.582a.22.22 0 0 0 .065-.162M490.059 834.465a.235.235 0 0 0 .07.161M492.485 834.574l-.328.376M490.12 834.617l.341.363M492.152 834.957l.005-.008M490.461 834.98l.007.008M490.468 834.987a.685.685 0 0 0 .268.16M490.736 835.147a1.84 1.84 0 0 0 1.154-.02M491.89 835.126a.721.721 0 0 0 .26-.168" style="fill:none;stroke:#00ff4a;stroke-width:.666665;stroke-linecap:round;stroke-linejoin:round;stroke-miterlimit:2;stroke-dasharray:none;stroke-opacity:1;visibility:visible" visibility="hidden"/><path d="m491.207 829.278.098 5.376" style="fill:none;stroke:#00ff4a;stroke-width:.666665;stroke-linecap:round;stroke-linejoin:round;stroke-miterlimit:4;stroke-dasharray:none;stroke-opacity:1;visibility:visible" visibility="hidden"/><path d="m327.969 544.745-2.431 1.174M324.545 547.47l.993-1.55M324.546 547.468l-2.584 12.359M329.033 545.068l-7.071 14.759M337.195 876.578l-7.618-12.187" style="fill:none;stroke:#00ff4a;stroke-width:.999997;stroke-linecap:round;stroke-linejoin:round;stroke-miterlimit:4;stroke-dasharray:none;stroke-opacity:1;visibility:visible" visibility="hidden"/><path d="m325.538 545.919 2.431-1.174M327.969 544.745l4.337-.877M495.808 562.443l.02-11.113M495.828 551.33l-.02 11.113M408.874 528.5l3.852-.784M490.141 512.835l2.814-1.257" style="fill:none;stroke:#00ff4a;stroke-width:1.99999;stroke-linecap:round;stroke-linejoin:round;stroke-miterlimit:4;stroke-dasharray:none;stroke-opacity:1;visibility:visible" visibility="hidden"/><path d="m411.926 523.268-1.066 5.628M328.933 539.581l1.273 5.584" style="fill:none;stroke:#00ff4a;stroke-width:.666665;stroke-linecap:round;stroke-linejoin:round;stroke-miterlimit:4;stroke-dasharray:none;stroke-opacity:1;visibility:visible" visibility="hidden"/><path d="m338.532 881.55 1.128-5.823M332.667 877.801l4.528-1.223" style="fill:none;stroke:#00ff4a;stroke-width:.666665;stroke-linecap:round;stroke-linejoin:round;stroke-miterlimit:2;stroke-dasharray:none;stroke-opacity:1;visibility:visible" visibility="hidden"/><path d="m337.283 881.36 1.149-5.186" style="fill:none;stroke:#00ff4a;stroke-width:.666665;stroke-linecap:round;stroke-linejoin:round;stroke-miterlimit:4;stroke-dasharray:none;stroke-opacity:1;visibility:visible" visibility="hidden"/><path d="m414.531 858.218 1.129-5.824M414.531 858.218l-1.336-4.973" style="fill:none;stroke:#00ff4a;stroke-width:.666665;stroke-linecap:round;stroke-linejoin:round;stroke-miterlimit:2;stroke-dasharray:none;stroke-opacity:1;visibility:visible" visibility="hidden"/><path d="m413.283 858.027 1.149-5.187" style="fill:none;stroke:#00ff4a;stroke-width:.666665;stroke-linecap:round;stroke-linejoin:round;stroke-miterlimit:4;stroke-dasharray:none;stroke-opacity:1;visibility:visible" visibility="hidden"/><path d="m491.305 834.654 1.131-5.823M491.305 834.654l-1.335-4.974" style="fill:none;stroke:#00ff4a;stroke-width:.666665;stroke-linecap:round;stroke-linejoin:round;stroke-miterlimit:2;stroke-dasharray:none;stroke-opacity:1;visibility:visible" visibility="hidden"/><path d="m490.06 834.464 1.147-5.186" style="fill:none;stroke:#00ff4a;stroke-width:.666665;stroke-linecap:round;stroke-linejoin:round;stroke-miterlimit:4;stroke-dasharray:none;stroke-opacity:1;visibility:visible" visibility="hidden"/><path d="m332.667 877.801-6.904-11.294" style="fill:none;stroke:red;stroke-width:.999997;stroke-linecap:round;stroke-linejoin:round;stroke-miterlimit:4;stroke-dasharray:none;stroke-opacity:1;visibility:visible"/><path d="m332.667 877.801-6.515-2.46M339.868 914.171l12.73 1.799" style="fill:none;stroke:red;stroke-width:1.99999;stroke-linecap:round;stroke-linejoin:round;stroke-miterlimit:4;stroke-dasharray:none;stroke-opacity:1;visibility:visible"/></svg>