<svg xmlns="http://www.w3.org/2000/svg" baseProfile="full" height="1122.52" preserveAspectRatio="xMinYMin meet" style="width:738px;height:965px" width="793.701" xml:space="preserve"><path d="m440.658 879.851 1.306.919M440.578 889.147l-.02.028M440.706 888.969l-.022.025M440.632 891.04l1.312.932M441.972 877.053l-.092.006-.202.035-.2.07-.2.101-.188.133-.18.159-.167.18-.143.198-.125.215-.093.22-.072.228-.038.224-.008.217.023.207.055.188.08.166.111.145.125.108M440.578 889.147l.038-.061.068-.093M441.952 888.258l-.096.004-.198.037-.2.071-.2.104-.188.129-.18.159-.164.18-.143.2-.123.21-.096.224-.068.225-.038.224-.008.214.022.206.052.185.082.168.109.141.117.102" style="fill:none;stroke:red;stroke-width:.999997;stroke-linecap:round;stroke-linejoin:round;stroke-miterlimit:10;stroke-dasharray:none;stroke-opacity:1;visibility:visible"/><path d="m493.233 746.405-1.109-.805" style="fill:none;stroke:red;stroke-width:1.99999;stroke-linecap:round;stroke-linejoin:round;stroke-miterlimit:10;stroke-dasharray:none;stroke-opacity:1;visibility:visible"/><path d="m486.89 767.673.264-19.396M264.831 618.259l.719 16.896M265.726 617.687l-.895.572M487.155 748.277 264.83 618.257M493.233 746.405l-6.078 1.872" style="fill:none;stroke:red;stroke-width:.999997;stroke-linecap:round;stroke-linejoin:round;stroke-miterlimit:10;stroke-dasharray:none;stroke-opacity:1;visibility:visible"/><path d="m492.996 761.89.108-7.088M493.161 751.065l.072-4.66" style="fill:none;stroke:red;stroke-width:1.99999;stroke-linecap:round;stroke-linejoin:round;stroke-miterlimit:10;stroke-dasharray:none;stroke-opacity:1;visibility:visible"/><path d="m488.859 751.7.013.216.041.2.071.18.099.159.12.133.145.1.162.07.177.035.19-.001.193-.035.195-.07M491.39 750.59l-.059-.192-.081-.17-.11-.145-.136-.118-.153-.085-.171-.052-.18-.018-.193.018-.197.052-.194.085-.19.117-.181.148-.165.169-.147.191-.128.208-.104.222-.076.226-.045.228-.021.226M488.7 763.188l.01.212.043.2.069.18.098.158.12.13.144.1.161.068.178.034h.187l.193-.037.196-.07.191-.103M491.217 762.073l-.054-.19-.084-.172-.11-.142-.132-.116-.153-.084-.17-.05-.181-.019-.193.02-.196.05-.196.089-.187.115-.18.146-.164.172-.147.19-.129.208-.1.22-.078.226-.049.229-.014.223M488.939 757.402l.013.202.041.186.071.167.099.143.122.113.143.083.162.048.174.013.183-.023.182-.057.182-.09.177-.124.164-.147.148-.174.125-.192.105-.205.075-.212.05-.215.018-.21-.013-.204-.04-.187-.075-.167-.095-.14-.123-.116-.147-.081-.159-.05-.173-.01-.183.019-.182.058-.183.09-.176.122-.164.15-.15.173-.122.19-.108.208-.076.213-.047.214-.017.212" style="fill:none;stroke:red;stroke-width:.999997;stroke-linecap:round;stroke-linejoin:round;stroke-miterlimit:10;stroke-dasharray:none;stroke-opacity:1;visibility:visible"/><path d="m492.124 745.6-222.04-128.974" style="fill:none;stroke:red;stroke-width:1.99999;stroke-linecap:round;stroke-linejoin:round;stroke-miterlimit:10;stroke-dasharray:none;stroke-opacity:1;visibility:visible"/><path d="m278.469 623.307-.22.062-.202.071-.177.076-.155.084-.125.09-.097.092-.067.098-.035.096-.001.097.029.095.062.095.093.086.12.084.15.075.176.07.2.057.218.049.233.039.251.029.257.016.266.004.269-.007.265-.02.259-.03.25-.041.239-.053.219-.061.201-.07.18-.077.153-.084.126-.089.096-.095.065-.095.034-.099.002-.098-.03-.093-.063-.093-.093-.09-.122-.081-.15-.076-.176-.068-.199-.059-.217-.05-.235-.037-.248-.029-.259-.014-.264-.004-.266.008-.266.017-.258.032-.251.04-.237.05M472.09 736.068l-.239.082-.211.094-.184.104-.153.112-.118.12-.085.125-.047.128-.008.132.028.13.063.13.101.124.136.119.17.112.197.102.227.092.25.08.271.067.287.052.298.039.307.022.31.006.309-.008.304-.026.294-.041.28-.055.259-.069.236-.081.215-.095.182-.104.151-.112.12-.121.083-.124.045-.13.01-.133-.03-.13-.064-.126-.101-.127-.139-.12-.167-.11-.2-.103-.224-.09-.249-.081-.272-.067-.285-.051-.3-.038-.307-.022-.308-.006-.307.008-.305.026-.292.04-.278.054-.26.07" style="fill:none;stroke:red;stroke-width:.999997;stroke-linecap:round;stroke-linejoin:round;stroke-miterlimit:10;stroke-dasharray:none;stroke-opacity:1;visibility:visible"/><path d="m491.813 766.397-4.773 1.503" style="fill:none;stroke:red;stroke-width:1.99999;stroke-linecap:round;stroke-linejoin:round;stroke-miterlimit:10;stroke-dasharray:none;stroke-opacity:1;visibility:visible"/><path d="m487.04 767.9-.15-.227" style="fill:none;stroke:red;stroke-width:.999997;stroke-linecap:round;stroke-linejoin:round;stroke-miterlimit:10;stroke-dasharray:none;stroke-opacity:1;visibility:visible"/><path d="m266.493 635.835-.944-.682M442.279 741.098 266.494 635.836M487.04 767.9l-8.224-4.923" style="fill:none;stroke:red;stroke-width:1.99999;stroke-linecap:round;stroke-linejoin:round;stroke-miterlimit:10;stroke-dasharray:none;stroke-opacity:1;visibility:visible"/><path d="m227.933 711.344 84.389-22.838" style="fill:none;stroke:red;stroke-width:.999997;stroke-linecap:round;stroke-linejoin:round;stroke-miterlimit:10;stroke-dasharray:none;stroke-opacity:1;visibility:visible"/><path d="m309.773 686.928-81.96 22.117" style="fill:none;stroke:red;stroke-width:1.99999;stroke-linecap:round;stroke-linejoin:round;stroke-miterlimit:10;stroke-dasharray:none;stroke-opacity:1;visibility:visible"/><path d="m312.84 705.117-.208.365M312.309 705.86l-77.963 21.542M312.631 705.484l-.321.376M293.098 693.556l.212-.063.193-.075.17-.08.146-.09.118-.094.092-.098.06-.102.034-.1v-.104l-.033-.1-.06-.1-.09-.092-.12-.088-.147-.078-.169-.072-.19-.063-.212-.052-.227-.04-.238-.03-.25-.018-.254-.004-.255.008-.255.019-.25.032-.237.044-.229.053-.212.064-.19.073-.171.082-.147.088-.117.096-.093.097-.063.101-.03.102-.003.102.033.102.059.097.092.093.118.088.144.08.17.071.193.065.212.051.225.04.24.03.25.018.253.004.257-.007.255-.02.25-.032.239-.044.226-.054M247.647 705.856l.216-.068.2-.075.18-.084.15-.092.126-.097.101-.102.067-.104.039-.104.004-.106-.024-.106-.057-.098-.087-.098-.115-.089-.142-.083-.168-.073-.19-.064-.214-.055-.226-.04-.24-.034-.253-.014-.256-.006-.258.008-.262.018-.253.035-.246.045-.232.054-.217.066-.2.076-.179.084-.153.091-.127.096-.098.103-.07.104-.038.106-.006.104.026.104.055.102.086.094.115.091.142.083.168.074.191.064.21.054.23.042.24.032.25.016.261.006.258-.008.26-.019.257-.035.245-.044.234-.054M309.773 686.928l2.552 1.58" style="fill:none;stroke:red;stroke-width:.999997;stroke-linecap:round;stroke-linejoin:round;stroke-miterlimit:10;stroke-dasharray:none;stroke-opacity:1;visibility:visible"/><path d="m322.082 572.548-15.267 3.559M331.627 577.521l-9.545-4.971" style="fill:none;stroke:red;stroke-width:1.99999;stroke-linecap:round;stroke-linejoin:round;stroke-miterlimit:10;stroke-dasharray:none;stroke-opacity:1;visibility:visible"/><path d="m322.951 669.641.935 33.029M320.285 575.541l2.024 71.42M326.825 578.97l-6.54-3.428M332 578.337l-4.244 1M330.915 706.533l-.45.27M326.874 579.044l.883.295M328.743 650.699l-1.918-71.729M330.24 706.641l-.888-33.165M330.466 706.804l-.228-.164M310.877 575.228l-.23.06-.21.068-.19.075-.164.081-.138.085-.108.091-.08.093-.05.095-.02.096.014.095.044.092.075.091.105.086.133.081.16.074.185.068.207.058.228.053.244.04.258.031.269.02.277.011.28-.001.28-.011.276-.021.27-.034.261-.041.247-.05.23-.063.212-.067.187-.075.164-.081.137-.085.11-.093.077-.093.051-.093.016-.097-.014-.095-.043-.092-.077-.09-.105-.087-.132-.079-.163-.075-.184-.066-.207-.06-.226-.05-.244-.041-.26-.032-.266-.019-.276-.01h-.28l-.277.009-.277.023-.271.033-.259.041-.246.051M325.551 576.061l-.228.06-.21.069-.186.074-.164.081-.133.087-.11.092-.08.092-.046.096-.016.097.016.094.045.093.078.092.106.085.135.082.162.073.187.068.21.06.229.05.244.043.26.031.27.019.278.01h.279l.281-.012.277-.02.269-.033.261-.043.247-.05.228-.061.21-.07.185-.073.165-.082.135-.085.107-.092.077-.093.047-.096.017-.096-.017-.095-.047-.093-.077-.091-.108-.085-.135-.082-.164-.073-.185-.068-.21-.06-.23-.05-.244-.039-.259-.035-.27-.019-.274-.01-.281.001-.28.012-.276.02-.268.033-.26.042-.248.049M332 578.337l.21-.317M331.627 577.521l.583.499" style="fill:none;stroke:red;stroke-width:.999997;stroke-linecap:round;stroke-linejoin:round;stroke-miterlimit:10;stroke-dasharray:none;stroke-opacity:1;visibility:visible"/><path d="m327.767 577.535.058-.043.052-.059.02-.062-.01-.061-.045-.06-.075-.053-.101-.047-.128-.04-.148-.033-.163-.021-.173-.012-.179-.001-.178.012-.172.02-.16.032M326.365 577.108l-.143.04-.122.047-.095.054-.067.058-.036.061-.004.061.028.061.059.055.054.035M329.22 577.02a5.101 5.101 0 0 0-3.65-.328M325.569 576.692a2.341 2.341 0 0 0-1.003.432" style="fill:none;stroke:red;stroke-width:.999997;stroke-linecap:round;stroke-linejoin:round;stroke-miterlimit:10;stroke-dasharray:none;stroke-opacity:1;visibility:visible"/><path d="m334.714 676.686.308 12.091M332.21 578.019l1.924 75.81" style="fill:none;stroke:red;stroke-width:1.99999;stroke-linecap:round;stroke-linejoin:round;stroke-miterlimit:10;stroke-dasharray:none;stroke-opacity:1;visibility:visible"/><path d="m308.885 578.26-2.616-1.39M309.75 577.981l-.865.279M310.82 640.287l-1.938-62.028M312.84 705.117l-1.32-42.319M313.523 705.608l-.681-.49" style="fill:none;stroke:red;stroke-width:.999997;stroke-linecap:round;stroke-linejoin:round;stroke-miterlimit:10;stroke-dasharray:none;stroke-opacity:1;visibility:visible"/><path d="m306.815 576.108-.548.761" style="fill:none;stroke:red;stroke-width:1.99999;stroke-linecap:round;stroke-linejoin:round;stroke-miterlimit:10;stroke-dasharray:none;stroke-opacity:1;visibility:visible"/><path d="m320.285 575.541-10.491 2.456" style="fill:none;stroke:red;stroke-width:.999997;stroke-linecap:round;stroke-linejoin:round;stroke-miterlimit:10;stroke-dasharray:none;stroke-opacity:1;visibility:visible"/><path d="m308.954 661.262.816 25.666M307.8 624.955l.437 13.833M306.269 576.868l.893 28.09" style="fill:none;stroke:red;stroke-width:1.99999;stroke-linecap:round;stroke-linejoin:round;stroke-miterlimit:10;stroke-dasharray:none;stroke-opacity:1;visibility:visible"/><path d="M310.897 575.856a2.384 2.384 0 0 0-1.018.437M324 702.782l-10.419 2.88M313.58 705.662l-.77-.488M313.523 705.608l.058.056M330.52 706.86l-6.521-4.078M324 702.782l-.114-.112M330.92 706.748l-.4.11M330.52 706.86l-.053-.056M313.08 576.692l.05-.037.053-.059.023-.061-.01-.062-.044-.057-.073-.055-.101-.046-.125-.042-.146-.032-.162-.021-.175-.012h-.177l-.18.01-.17.021-.161.033M311.68 576.27l-.141.04-.124.048-.095.053-.07.058-.036.062-.007.059.027.06.056.058.057.035" style="fill:none;stroke:red;stroke-width:.999997;stroke-linecap:round;stroke-linejoin:round;stroke-miterlimit:10;stroke-dasharray:none;stroke-opacity:1;visibility:visible"/><path d="M314.52 576.175a5.097 5.097 0 0 0-3.624-.319M223.48 627.395l86.28-20.996" style="fill:none;stroke:red;stroke-width:.999997;stroke-linecap:round;stroke-linejoin:round;stroke-miterlimit:10;stroke-dasharray:none;stroke-opacity:1;visibility:visible"/><path d="m307.162 604.959-83.793 20.334" style="fill:none;stroke:red;stroke-width:1.99999;stroke-linecap:round;stroke-linejoin:round;stroke-miterlimit:10;stroke-dasharray:none;stroke-opacity:1;visibility:visible"/><path d="m307.162 604.959 2.6 1.44" style="fill:none;stroke:red;stroke-width:.999997;stroke-linecap:round;stroke-linejoin:round;stroke-miterlimit:10;stroke-dasharray:none;stroke-opacity:1;visibility:visible"/><path d="m265.893 635.403-41.443 10.329M310.322 624.327l-18.877 4.706" style="fill:none;stroke:red;stroke-width:1.99999;stroke-linecap:round;stroke-linejoin:round;stroke-miterlimit:10;stroke-dasharray:none;stroke-opacity:1;visibility:visible"/><path d="m310.322 624.327-.236-.28M211.454 605.825l4.881-1.148M218.84 737.741l-.164.1M218.813 737.502 211.49 606.62M218.675 737.841l-.473-.339M211.454 605.825l-.574.796" style="fill:none;stroke:red;stroke-width:.999997;stroke-linecap:round;stroke-linejoin:round;stroke-miterlimit:10;stroke-dasharray:none;stroke-opacity:1;visibility:visible"/><path d="m216.335 604.676.247.177" style="fill:none;stroke:red;stroke-width:1.99999;stroke-linecap:round;stroke-linejoin:round;stroke-miterlimit:10;stroke-dasharray:none;stroke-opacity:1;visibility:visible"/><path d="m210.88 606.62-8.968-5.401" style="fill:none;stroke:red;stroke-width:.999997;stroke-linecap:round;stroke-linejoin:round;stroke-miterlimit:10;stroke-dasharray:none;stroke-opacity:1;visibility:visible"/><path d="m201.914 601.22 7.557 130.054M202.486 600.432l-.572.788" style="fill:none;stroke:red;stroke-width:1.99999;stroke-linecap:round;stroke-linejoin:round;stroke-miterlimit:10;stroke-dasharray:none;stroke-opacity:1;visibility:visible"/><path d="m209.471 731.274 8.731 6.23" style="fill:none;stroke:red;stroke-width:.999997;stroke-linecap:round;stroke-linejoin:round;stroke-miterlimit:10;stroke-dasharray:none;stroke-opacity:1;visibility:visible"/><path d="m221.482 598.197-2.668-1.573M218.814 596.624l-16.328 3.807" style="fill:none;stroke:red;stroke-width:1.99999;stroke-linecap:round;stroke-linejoin:round;stroke-miterlimit:10;stroke-dasharray:none;stroke-opacity:1;visibility:visible"/><path d="m209.991 600.884 11.491-2.687" style="fill:none;stroke:red;stroke-width:.999997;stroke-linecap:round;stroke-linejoin:round;stroke-miterlimit:10;stroke-dasharray:none;stroke-opacity:1;visibility:visible"/><path d="m216.335 604.676-6.344-3.793" style="fill:none;stroke:red;stroke-width:1.99999;stroke-linecap:round;stroke-linejoin:round;stroke-miterlimit:10;stroke-dasharray:none;stroke-opacity:1;visibility:visible"/><path d="m209.269 604.384.154.081.182.072.205.064.23.056.245.044.265.035.275.023.284.01.29-.001.292-.01.292-.024.287-.035.275-.046.264-.053.25-.067.226-.073.208-.081.184-.089.156-.093.127-.097.097-.103.066-.101.034-.104v-.103l-.032-.101-.065-.097-.095-.094-.126-.087-.154-.08-.182-.073-.206-.065-.227-.055-.248-.044-.262-.033-.275-.023-.286-.012-.289.002-.292.012-.29.024-.284.033-.277.045-.262.055-.248.065-.23.074-.206.08-.184.089-.157.093-.127.096-.098.102-.065.104-.035.101-.002.105.032.1.064.098.094.094.127.087M213.66 598.924l.156.08.179.07.205.066.226.052.245.044.262.035.274.021.283.012.289-.001.291-.013.285-.022.285-.035.274-.043.261-.055.247-.065.228-.071.204-.08.18-.087.156-.093.125-.096.095-.099.064-.101.033-.103v-.1l-.033-.1-.064-.096-.095-.092-.125-.085-.155-.08-.18-.071-.205-.063-.227-.053-.243-.044-.26-.035-.276-.021-.282-.01h-.287l-.29.01-.287.024-.283.033-.274.046-.261.054-.245.064-.228.071-.204.08-.18.085-.157.094-.125.096-.096.1-.066.101-.032.103-.002.099.032.1.063.097.095.092.126.085M210.677 604.71l.083.043" style="fill:none;stroke:red;stroke-width:.999997;stroke-linecap:round;stroke-linejoin:round;stroke-miterlimit:10;stroke-dasharray:none;stroke-opacity:1;visibility:visible"/><path d="m214.007 604.05-.006-.004-.127-.089-.154-.081-.18-.072-.208-.064-.227-.055-.246-.045-.264-.033-.274-.023-.284-.01h-.29l-.292.012-.29.024-.286.033-.274.046-.265.055-.247.064-.228.073-.208.082-.183.087-.157.094-.127.099-.052.049" style="fill:none;stroke:red;stroke-width:.999997;stroke-linecap:round;stroke-linejoin:round;stroke-miterlimit:10;stroke-dasharray:none;stroke-opacity:1;visibility:visible"/><path d="m212.449 604.668.064-.041.073-.063.04-.067.007-.066-.027-.064-.059-.06-.09-.054-.118-.046-.139-.037-.164-.026-.174-.015-.185-.002-.187.008-.18.018-.177.031-.159.041-.141.05-.115.057-.087.061-.057.067-.024.065.01.065.043.062.075.057" style="fill:none;stroke:red;stroke-width:.999997;stroke-linecap:round;stroke-linejoin:round;stroke-miterlimit:10;stroke-dasharray:none;stroke-opacity:1;visibility:visible"/><path d="m221.726 598.372-.244-.175M216.658 604.93l6.239 114.517M216.582 604.855l.076.075" style="fill:none;stroke:red;stroke-width:1.99999;stroke-linecap:round;stroke-linejoin:round;stroke-miterlimit:10;stroke-dasharray:none;stroke-opacity:1;visibility:visible"/><path d="m215.055 599.252.068.033M218.355 598.601l-.005-.005-.127-.085-.153-.081-.18-.071-.205-.063-.228-.055-.243-.041-.261-.035-.274-.022-.282-.013-.288.002-.29.012-.286.024-.283.032-.275.045-.26.055-.245.063-.227.073-.205.08-.181.087-.155.09-.127.098-.045.044" style="fill:none;stroke:red;stroke-width:.999997;stroke-linecap:round;stroke-linejoin:round;stroke-miterlimit:10;stroke-dasharray:none;stroke-opacity:1;visibility:visible"/><path d="m216.827 599.201.051-.03.07-.063.039-.065.006-.066-.026-.062-.06-.059-.087-.053-.118-.046-.141-.036-.162-.026-.173-.016-.181-.003-.187.008-.183.02-.172.03-.158.043-.138.047-.114.056-.086.06-.056.065-.021.065.009.063.041.062.074.057" style="fill:none;stroke:red;stroke-width:.999997;stroke-linecap:round;stroke-linejoin:round;stroke-miterlimit:10;stroke-dasharray:none;stroke-opacity:1;visibility:visible"/><path d="m221.951 598.601 6.622 124.792M221.726 598.372l.227.23" style="fill:none;stroke:red;stroke-width:1.99999;stroke-linecap:round;stroke-linejoin:round;stroke-miterlimit:10;stroke-dasharray:none;stroke-opacity:1;visibility:visible"/><path d="m540.381 829.433-.111-.119-.13-.088-.152-.06-.164-.026-.175.005-.179.038-.182.071-.18.1-.172.128-.164.152-.148.176-.13.189-.111.203-.084.21-.06.216-.035.21-.005.204.024.193.049.175.076.157.099.13.122.103.141.075.155.043.172.01.178-.024.182-.054.179-.085M540.876 819.425l-.008-.2-.036-.187M540.832 819.038l-.063-.167-.085-.144-.115-.12-.133-.09-.148-.06-.164-.028-.175.005-.179.039-.186.07-.179.099-.172.128-.163.152-.15.173-.132.192-.11.203-.085.212-.061.215-.033.212-.006.206.022.195.052.175.073.157.101.133.122.105.144.075.156.043.172.013.177-.024M540.725 824.782l-.008-.2-.033-.185-.065-.167-.089-.143-.11-.117-.132-.091-.148-.061-.164-.028-.175.007-.181.038-.184.07-.18.1-.17.128-.166.152-.148.174-.132.191-.108.203-.088.21-.057.215-.037.212-.005.207.023.192.05.177.076.156.098.13.125.106.143.072.155.045.172.011.177-.023.181-.053.18-.088.18-.112.167-.14.156-.165.14-.182.12-.197.097-.208.075-.215.047-.213.018-.208M542.043 814.707l-4.476 1.514M535.993 834.88l.487-18.075M330.683 689.77l-.188.96M438.815 757.028l-108.32-66.299M536.48 816.806l-31.65-19.373M537.567 816.22l-1.087.584M218.675 737.841l.15.105M218.853 737.941l-.027.007" style="fill:none;stroke:red;stroke-width:.999997;stroke-linecap:round;stroke-linejoin:round;stroke-miterlimit:10;stroke-dasharray:none;stroke-opacity:1;visibility:visible"/><path d="m438.744 751.873-103.936-63.225M542.043 814.707l-31.988-19.457" style="fill:none;stroke:red;stroke-width:1.99999;stroke-linecap:round;stroke-linejoin:round;stroke-miterlimit:10;stroke-dasharray:none;stroke-opacity:1;visibility:visible"/><path d="m330.92 706.774 107.784 67.33M529.813 821.891l-.005-.246-.025-.255-.051-.26-.067-.263-.089-.257-.104-.247-.123-.236-.134-.22-.15-.197-.155-.177-.162-.147-.167-.12-.169-.085-.164-.055-.159-.021-.153.014-.141.048-.13.08-.114.114-.098.141-.08.17-.057.192-.039.216-.016.23.003.248.028.255.048.261.067.26.089.256.104.249.123.235.134.219.15.197.156.177.161.147.167.119.166.09.164.053.162.021.15-.012.144-.048.127-.08.117-.112.099-.143.079-.17.057-.194.039-.213.018-.235M337.407 702.912l-.013-.22-.03-.226-.046-.228-.06-.226-.075-.222-.087-.213-.096-.2-.11-.184-.113-.165-.121-.142-.126-.118-.125-.092-.126-.063-.121-.033-.118-.006-.11.027-.103.055-.09.082-.077.11-.066.136-.05.158-.038.18-.018.191-.002.211.013.218.031.226.046.228.059.226.075.222.087.212.096.201.107.183.116.166.122.14.124.12.125.091.125.064.123.033.115.006.111-.024.103-.056.091-.083.079-.11.065-.133.051-.16.037-.177.017-.196.003-.21M345.81 697.174l.208-.064.19-.074.163-.083.141-.09.115-.094.084-.1.056-.101.024-.104-.007-.104-.038-.102-.068-.1-.098-.093-.126-.087-.15-.082-.177-.072-.197-.064-.215-.052-.23-.04-.245-.03-.25-.018-.258-.006-.256.008-.253.022-.25.03-.237.044-.226.055-.208.065-.188.074-.166.082-.14.09-.117.094-.083.1-.056.102-.025.104.007.104.036.101.07.099.095.092.127.091.15.079.174.073.201.063.213.054.232.04.243.031.252.016.257.006.258-.008.256-.019.248-.033.238-.043.226-.056M410.426 736.572l.213-.072.19-.082.171-.09.139-.098.11-.105.079-.11.052-.114.018-.113-.019-.115-.047-.112-.081-.11-.112-.101-.14-.098-.164-.09-.193-.08-.212-.069-.231-.059-.247-.044-.258-.033-.266-.02-.27-.005-.268.008-.27.02-.257.036-.247.049-.229.06-.216.07-.19.083-.171.089-.139.099-.11.104-.082.11-.051.113-.016.115.016.114.047.112.079.108.112.104.137.099.167.088.193.081.21.07.234.058.245.048.262.029.265.023.268.004.273-.008.266-.022.258-.036.247-.047.235-.061M334.808 688.648l-4.123 1.124" style="fill:none;stroke:red;stroke-width:.999997;stroke-linecap:round;stroke-linejoin:round;stroke-miterlimit:10;stroke-dasharray:none;stroke-opacity:1;visibility:visible"/><path d="m542.147 814.891-.104-.185M542.147 814.891l-.115 4.027M541.912 823.167l-.188 6.586" style="fill:none;stroke:red;stroke-width:1.99999;stroke-linecap:round;stroke-linejoin:round;stroke-miterlimit:10;stroke-dasharray:none;stroke-opacity:1;visibility:visible"/><path d="m218.163 720.454 4.438-1.209M414.78 877.078l-1.096-.096M414.679 857.727l.101 19.351M218.163 720.454 414.68 857.73M217.933 721.457l.23-1.004M528.925 819.551l-.013.047a.867.867 0 0 0-.017.195 1.173 1.173 0 0 0 .02.192 1.201 1.201 0 0 0 .138.34 1.495 1.495 0 0 0 .463.45c.045.026.092.048.139.071M330.92 706.774l.566.44M536.57 835.34l-51.355-32.084M541.023 833.806l.489-.373M541.023 833.806l-4.454 1.534M535.993 834.88l.577.46" style="fill:none;stroke:red;stroke-width:.999997;stroke-linecap:round;stroke-linejoin:round;stroke-miterlimit:10;stroke-dasharray:none;stroke-opacity:1;visibility:visible"/><path d="M419.554 856.08 222.6 719.243" style="fill:none;stroke:red;stroke-width:1.99999;stroke-linecap:round;stroke-linejoin:round;stroke-miterlimit:10;stroke-dasharray:none;stroke-opacity:1;visibility:visible"/><path d="m218.854 737.969 194.83 139.013M418.46 866.5l-.016-.204-.046-.191-.074-.172-.104-.146-.126-.12-.15-.09-.166-.058-.179-.026-.193.01-.198.043-.198.075-.195.106-.185.135-.178.163-.156.181-.136.2-.114.212-.088.219-.058.221-.028.22v.212l.031.199.06.181.09.159.116.134.138.107.159.073.174.04.187.008.196-.026.197-.059.2-.092.189-.123.179-.146.166-.172.146-.191.128-.207.099-.215.076-.222.041-.221.016-.217M418.483 872.015l-.016-.204-.047-.19-.073-.171-.101-.147-.127-.12-.15-.088-.165-.057-.182-.025-.194.009-.194.044-.199.076-.195.107-.185.134-.175.16-.156.183-.138.2-.112.21-.088.221-.06.22-.028.221v.21l.032.199.061.179.088.159.115.133.138.104.159.073.175.042M418.436 860.97l-.016-.204-.046-.192-.076-.172-.102-.148-.126-.12-.15-.09-.166-.061-.182-.024-.192.009-.198.039-.199.08-.195.104-.188.136-.174.163-.156.18-.14.2-.109.212-.091.22-.059.223-.028.22v.212l.03.201.064.18.087.16.116.135.14.105.156.076.178.041.186.008M400.543 845.358l-.243.09-.218.107-.19.114-.158.128-.131.133-.09.141-.059.144-.02.148.016.147.052.144.09.139.123.134.159.126.188.114.216.106.238.089.264.076.28.059.289.043.304.025.307.009.304-.01.306-.03.29-.043.282-.061.262-.077.246-.093.216-.103.193-.117.159-.126.128-.136.09-.14.058-.144.021-.148-.019-.147-.052-.144-.092-.14-.121-.133-.16-.124-.187-.116-.216-.103-.24-.089-.262-.075-.279-.06-.292-.042-.303-.026-.304-.007-.305.01-.301.025-.295.045-.279.062-.265.076M328.466 795.145l-.236.081-.212.094-.19.103-.159.114-.132.12-.099.126-.063.128-.03.132.004.131.04.13.073.124.108.121.14.111.17.103.194.092.221.082.242.068.26.052.273.038.283.023.289.005.29-.006.288-.027.281-.039.269-.054.255-.07.237-.085.213-.092.187-.104.163-.113.128-.123.097-.124.064-.128.03-.133-.004-.13-.04-.131-.077-.125-.108-.119-.138-.113-.171-.1-.196-.094-.219-.079-.241-.068-.261-.052-.27-.037-.285-.024-.287-.006-.29.008-.287.026-.28.038-.269.055-.255.07M291.495 769.388l-.233.078-.21.088-.188.098-.159.106-.132.114-.1.118-.068.123-.035.124v.123l.032.12.068.12.099.112.13.105.159.099.188.086.21.076.232.062.249.05.262.036.275.022.28.005.281-.008.282-.025.273-.036.264-.052.25-.066.23-.076.211-.09.19-.098.159-.106.13-.114.101-.118.067-.124.034-.123v-.124l-.036-.121-.065-.118-.1-.112-.131-.105-.16-.097-.187-.086-.21-.077-.231-.063-.25-.05-.261-.034-.275-.022-.28-.006-.281.008-.278.024-.274.038-.262.052-.25.064M230.553 726.932l-.226.068-.206.08-.184.089-.16.097-.132.104-.103.104-.072.111-.043.112-.009.112.024.11.056.105.085.102.118.096.146.088.171.078.193.068.216.057.234.045.248.032.257.02.265.004.269-.008.27-.021.26-.033.253-.047.242-.06.225-.07.207-.081.182-.09.161-.095.133-.101.101-.108.07-.111.044-.112.007-.11-.024-.111-.056-.107-.085-.101-.12-.095-.144-.085-.172-.08-.193-.068-.216-.056-.235-.046-.247-.032-.257-.018-.263-.006-.268.008-.265.022-.264.033-.253.047-.24.06M414.679 857.727l4.875-1.645" style="fill:none;stroke:red;stroke-width:.999997;stroke-linecap:round;stroke-linejoin:round;stroke-miterlimit:10;stroke-dasharray:none;stroke-opacity:1;visibility:visible"/><path d="m419.554 856.08.2.163M419.755 856.243l.016 3.982M419.79 865.558l.025 5.665" style="fill:none;stroke:red;stroke-width:1.99999;stroke-linecap:round;stroke-linejoin:round;stroke-miterlimit:10;stroke-dasharray:none;stroke-opacity:1;visibility:visible"/><path d="m357.554 798.623.076-.023M303.645 799.094l.484-.281M303.535 799.645l.11-.55M420.34 774.334l-81.908 25.386M313.938 811.82l.51.361M314.693 812.043l-.246.14M414.78 877.078l-.445.368M414.335 877.446l-.65-.466" style="fill:none;stroke:red;stroke-width:.999997;stroke-linecap:round;stroke-linejoin:round;stroke-miterlimit:10;stroke-dasharray:none;stroke-opacity:1;visibility:visible"/><path d="m303.702 804.465 10.236 7.354" style="fill:none;stroke:red;stroke-width:1.99999;stroke-linecap:round;stroke-linejoin:round;stroke-miterlimit:10;stroke-dasharray:none;stroke-opacity:1;visibility:visible"/><path d="m300.182 717.122.117 3.403M300.182 717.122l.537-.75M300.72 716.372l87.498 56.697M314.449 812.182l.129.088M314.698 812.233l-.121.037M357.878 798.777l-.068.021M420.89 763.068 327.034 791.8M303.535 799.645l.167 4.82" style="fill:none;stroke:red;stroke-width:.999997;stroke-linecap:round;stroke-linejoin:round;stroke-miterlimit:10;stroke-dasharray:none;stroke-opacity:1;visibility:visible"/><path d="m341.22 787.458-85.607-58.514M403.851 768.285l-88.11-56.101" style="fill:none;stroke:red;stroke-width:1.99999;stroke-linecap:round;stroke-linejoin:round;stroke-miterlimit:10;stroke-dasharray:none;stroke-opacity:1;visibility:visible"/><path d="m399.684 781.69.034 3.618M399.684 781.689l.582-.815M477.732 831.074l25.656 16.624M400.266 780.874l38.36 24.86" style="fill:none;stroke:red;stroke-width:.999997;stroke-linecap:round;stroke-linejoin:round;stroke-miterlimit:10;stroke-dasharray:none;stroke-opacity:1;visibility:visible"/><path d="m438.564 790.388-22.59-14.384M519.725 842.067l-41.46-26.4" style="fill:none;stroke:red;stroke-width:1.99999;stroke-linecap:round;stroke-linejoin:round;stroke-miterlimit:10;stroke-dasharray:none;stroke-opacity:1;visibility:visible"/><path d="m259.953 728.344.164 3.608M259.953 728.344l.546-.762M260.5 727.582l85.815 58.316" style="fill:none;stroke:red;stroke-width:.999997;stroke-linecap:round;stroke-linejoin:round;stroke-miterlimit:10;stroke-dasharray:none;stroke-opacity:1;visibility:visible"/><path d="m362.391 780.978-86.471-57.694" style="fill:none;stroke:red;stroke-width:1.99999;stroke-linecap:round;stroke-linejoin:round;stroke-miterlimit:10;stroke-dasharray:none;stroke-opacity:1;visibility:visible"/><path d="m280.199 722.697.141 3.536M280.2 722.697l.541-.757M280.742 721.938l86.673 57.5M260.117 731.952l.932.666" style="fill:none;stroke:red;stroke-width:.999997;stroke-linecap:round;stroke-linejoin:round;stroke-miterlimit:10;stroke-dasharray:none;stroke-opacity:1;visibility:visible"/><path d="m383.264 774.586-87.303-56.888" style="fill:none;stroke:red;stroke-width:1.99999;stroke-linecap:round;stroke-linejoin:round;stroke-miterlimit:10;stroke-dasharray:none;stroke-opacity:1;visibility:visible"/><path d="m419.762 858.509 17.308 12.056" style="fill:none;stroke:red;stroke-width:.999997;stroke-linecap:round;stroke-linejoin:round;stroke-miterlimit:10;stroke-dasharray:none;stroke-opacity:1;visibility:visible"/><path d="m439.327 854.518-86.31-58.996" style="fill:none;stroke:red;stroke-width:1.99999;stroke-linecap:round;stroke-linejoin:round;stroke-miterlimit:10;stroke-dasharray:none;stroke-opacity:1;visibility:visible"/><path d="m357.552 794.76.08 3.839M357.552 794.76l.588-.826M358.14 793.934l80.95 55.01" style="fill:none;stroke:red;stroke-width:.999997;stroke-linecap:round;stroke-linejoin:round;stroke-miterlimit:10;stroke-dasharray:none;stroke-opacity:1;visibility:visible"/><path d="m439.15 832.19-64.85-43.267" style="fill:none;stroke:red;stroke-width:1.99999;stroke-linecap:round;stroke-linejoin:round;stroke-miterlimit:10;stroke-dasharray:none;stroke-opacity:1;visibility:visible"/><path d="m378.768 788.178.056 3.763M378.768 788.178l.583-.821M477.236 852.294l4.388 2.91M379.351 787.357l59.293 39.333M357.63 798.6l1.004.72" style="fill:none;stroke:red;stroke-width:.999997;stroke-linecap:round;stroke-linejoin:round;stroke-miterlimit:10;stroke-dasharray:none;stroke-opacity:1;visibility:visible"/><path d="m438.66 810.682-43.377-28.264M498.21 849.485l-20.44-13.318" style="fill:none;stroke:red;stroke-width:1.99999;stroke-linecap:round;stroke-linejoin:round;stroke-miterlimit:10;stroke-dasharray:none;stroke-opacity:1;visibility:visible"/><path d="m218.922 739.188.253 4.558M218.922 739.188l.556-.774M331.486 707.214l-10.728 2.988M320.003 714.897l-.123-4.165M408.812 766.766l.134-.781M320.758 710.204l88.186 55.78M320.758 710.204l-.879.528" style="fill:none;stroke:red;stroke-width:.999997;stroke-linecap:round;stroke-linejoin:round;stroke-miterlimit:10;stroke-dasharray:none;stroke-opacity:1;visibility:visible"/><path d="m219.175 743.745 83.775 60.181" style="fill:none;stroke:red;stroke-width:1.99999;stroke-linecap:round;stroke-linejoin:round;stroke-miterlimit:10;stroke-dasharray:none;stroke-opacity:1;visibility:visible"/><path d="m314.549 807.515.155 4.853M314.55 807.514l.599-.839M414.335 877.446l.412.912M219.186 738.788l-.263.398M219.186 738.788l.294-.375M303.698 804.343l-.11.034M302.951 803.926l.639.452M303.587 804.378l.108-.113" style="fill:none;stroke:red;stroke-width:.999997;stroke-linecap:round;stroke-linejoin:round;stroke-miterlimit:10;stroke-dasharray:none;stroke-opacity:1;visibility:visible"/><path d="m314.703 812.369 99.021 71.133" style="fill:none;stroke:red;stroke-width:1.99999;stroke-linecap:round;stroke-linejoin:round;stroke-miterlimit:10;stroke-dasharray:none;stroke-opacity:1;visibility:visible"/><path d="m427.898 887.822.008 5.183M541.599 834.275l-.009.251M541.53 834.547l.07-.272M541.599 834.275l-.576-.46M432.499 770.324l-11.219 3.474M541.023 833.817l-.008-.007M420.322 778.772l-.019-4.418M541.39 834.595l-.368-.778M478.31 809.871l46.617 29.49M421.28 773.798l17.602 11.135M421.28 773.798l-.976.556M314.786 807.05l-.236.465M314.786 807.05l.363-.373M414.614 883.878l-.244.084M413.723 883.5l.648.463M414.372 883.962l.243-.199" style="fill:none;stroke:red;stroke-width:.999997;stroke-linecap:round;stroke-linejoin:round;stroke-miterlimit:10;stroke-dasharray:none;stroke-opacity:1;visibility:visible"/><path d="m555.199 843.314-.46-.967M426.799 892.905l.555.395M427.906 893.003l-.552.298" style="fill:none;stroke:red;stroke-width:1.99999;stroke-linecap:round;stroke-linejoin:round;stroke-miterlimit:10;stroke-dasharray:none;stroke-opacity:1;visibility:visible"/><path d="m415.231 878.094 12.208 8.71M414.687 878.39l.544-.296M414.588 879.005l.099-.615M477.096 869.463l77.644-27.116M427.439 886.805l4.345-1.518M436.866 883.513l2.96-1.035M427.439 886.805l.435 1.05" style="fill:none;stroke:red;stroke-width:.999997;stroke-linecap:round;stroke-linejoin:round;stroke-miterlimit:10;stroke-dasharray:none;stroke-opacity:1;visibility:visible"/><path d="m414.616 884.153 12.184 8.752" style="fill:none;stroke:red;stroke-width:1.99999;stroke-linecap:round;stroke-linejoin:round;stroke-miterlimit:10;stroke-dasharray:none;stroke-opacity:1;visibility:visible"/><path d="m414.588 879.005.028 5.145" style="fill:none;stroke:red;stroke-width:.999997;stroke-linecap:round;stroke-linejoin:round;stroke-miterlimit:10;stroke-dasharray:none;stroke-opacity:1;visibility:visible"/><path d="M554.741 842.347 541.96 834.4" style="fill:none;stroke:red;stroke-width:1.99999;stroke-linecap:round;stroke-linejoin:round;stroke-miterlimit:10;stroke-dasharray:none;stroke-opacity:1;visibility:visible"/><path d="m515.77 854.547.1-.046.078-.058.04-.066.003-.07-.031-.069-.066-.063-.094-.054-.119-.043-.138-.028-.143-.01-.144.01-.132.024-.114.039-.09.053-.06.064-.023.068.014.068.049.068.08.059.11.049.126.035.141.017.147.003.14-.017.126-.033M439.108 869.863l-4.39 1.514M429.736 873.094l-4.854 1.675M418.938 876.818l-3.708 1.277M541.959 834.4l-65.174 22.474" style="fill:none;stroke:red;stroke-width:.999997;stroke-linecap:round;stroke-linejoin:round;stroke-miterlimit:10;stroke-dasharray:none;stroke-opacity:1;visibility:visible"/><path d="m555.316 842.809-.059 1.853M555.316 842.81l-.117.504M555.316 842.809l-.576-.462M427.354 893.3l.098.068M437.648 889.782l-10.196 3.584" style="fill:none;stroke:red;stroke-width:1.99999;stroke-linecap:round;stroke-linejoin:round;stroke-miterlimit:10;stroke-dasharray:none;stroke-opacity:1;visibility:visible"/><path d="m319.88 710.732-78.178 21.782M219.153 743.325l-.628-.047M219.186 738.788l-.36-.842" style="fill:none;stroke:red;stroke-width:.999997;stroke-linecap:round;stroke-linejoin:round;stroke-miterlimit:10;stroke-dasharray:none;stroke-opacity:1;visibility:visible"/><path d="m209.542 732.484.55-.766" style="fill:none;stroke:red;stroke-width:1.99999;stroke-linecap:round;stroke-linejoin:round;stroke-miterlimit:10;stroke-dasharray:none;stroke-opacity:1;visibility:visible"/><path d="m260.043 731.973.074-.021" style="fill:none;stroke:red;stroke-width:.999997;stroke-linecap:round;stroke-linejoin:round;stroke-miterlimit:10;stroke-dasharray:none;stroke-opacity:1;visibility:visible"/><path d="m209.805 737.012 8.72 6.265M209.542 732.484l.263 4.528" style="fill:none;stroke:red;stroke-width:1.99999;stroke-linecap:round;stroke-linejoin:round;stroke-miterlimit:10;stroke-dasharray:none;stroke-opacity:1;visibility:visible"/><path d="m219.174 743.712-.028.008M260.403 732.158l-.062.019M219.147 743.72l.027-.032M219.147 743.72l-.622-.442" style="fill:none;stroke:red;stroke-width:.999997;stroke-linecap:round;stroke-linejoin:round;stroke-miterlimit:10;stroke-dasharray:none;stroke-opacity:1;visibility:visible"/><path d="m209.807 732.093.286-.375M209.542 732.484l.265-.391" style="fill:none;stroke:red;stroke-width:1.99999;stroke-linecap:round;stroke-linejoin:round;stroke-miterlimit:10;stroke-dasharray:none;stroke-opacity:1;visibility:visible"/><path d="m440.632 891.04 1.332-10.27M440.658 879.851l1.286 12.121" style="fill:none;stroke:red;stroke-width:.999997;stroke-linecap:round;stroke-linejoin:round;stroke-miterlimit:10;stroke-dasharray:none;stroke-opacity:1;visibility:visible"/><path d="m488.7 763.188 4.296-1.298M493.161 751.065l-.057 3.737M493.104 754.802l.057-3.737" style="fill:none;stroke:red;stroke-width:1.99999;stroke-linecap:round;stroke-linejoin:round;stroke-miterlimit:10;stroke-dasharray:none;stroke-opacity:1;visibility:visible"/><path d="m487.155 748.277 3.11 4.41M492.996 761.89l-4.057-4.488M493.104 754.802l-4.164 2.6M291.445 629.033l-12.976-5.726M265.893 635.403l12.576-12.097M487.155 748.277l-15.065-12.209" style="fill:none;stroke:red;stroke-width:.999997;stroke-linecap:round;stroke-linejoin:round;stroke-miterlimit:10;stroke-dasharray:none;stroke-opacity:1;visibility:visible"/><path d="m487.155 748.277 4.658 18.12M487.155 748.277l-8.339 14.7" style="fill:none;stroke:red;stroke-width:1.99999;stroke-linecap:round;stroke-linejoin:round;stroke-miterlimit:10;stroke-dasharray:none;stroke-opacity:1;visibility:visible"/><path d="m222.601 719.245 5.332-7.901" style="fill:none;stroke:red;stroke-width:.999997;stroke-linecap:round;stroke-linejoin:round;stroke-miterlimit:10;stroke-dasharray:none;stroke-opacity:1;visibility:visible"/><path d="m222.601 719.245 5.212-10.2" style="fill:none;stroke:red;stroke-width:1.99999;stroke-linecap:round;stroke-linejoin:round;stroke-miterlimit:10;stroke-dasharray:none;stroke-opacity:1;visibility:visible"/><path d="m230.553 726.932 3.793.47M309.773 686.928l-16.675 6.628M334.134 653.829l-11.183 15.812M311.52 662.798l10.789-15.837M322.951 669.641l5.792-18.942M335.022 688.777l-5.67-15.301M322.082 572.55l7.138 4.47" style="fill:none;stroke:red;stroke-width:.999997;stroke-linecap:round;stroke-linejoin:round;stroke-miterlimit:10;stroke-dasharray:none;stroke-opacity:1;visibility:visible"/><path d="m322.951 669.641 11.183-15.812" style="fill:none;stroke:red;stroke-width:1.99999;stroke-linecap:round;stroke-linejoin:round;stroke-miterlimit:10;stroke-dasharray:none;stroke-opacity:1;visibility:visible"/><path d="m307.8 624.955 3.02 15.332M322.309 646.961l-10.789 15.837" style="fill:none;stroke:red;stroke-width:.999997;stroke-linecap:round;stroke-linejoin:round;stroke-miterlimit:10;stroke-dasharray:none;stroke-opacity:1;visibility:visible"/><path d="m322.309 646.961-13.355 14.301M310.82 640.287l-3.02-15.332" style="fill:none;stroke:red;stroke-width:1.99999;stroke-linecap:round;stroke-linejoin:round;stroke-miterlimit:10;stroke-dasharray:none;stroke-opacity:1;visibility:visible"/><path d="m320.285 575.542-5.765.633" style="fill:none;stroke:red;stroke-width:.999997;stroke-linecap:round;stroke-linejoin:round;stroke-miterlimit:10;stroke-dasharray:none;stroke-opacity:1;visibility:visible"/><path d="m278.469 623.307 12.976 5.726" style="fill:none;stroke:red;stroke-width:1.99999;stroke-linecap:round;stroke-linejoin:round;stroke-miterlimit:10;stroke-dasharray:none;stroke-opacity:1;visibility:visible"/><path d="m216.335 604.676-2.328-.626M221.726 598.372l-3.371.229" style="fill:none;stroke:red;stroke-width:.999997;stroke-linecap:round;stroke-linejoin:round;stroke-miterlimit:10;stroke-dasharray:none;stroke-opacity:1;visibility:visible"/><path d="m218.922 739.188 9.651-15.795" style="fill:none;stroke:red;stroke-width:1.99999;stroke-linecap:round;stroke-linejoin:round;stroke-miterlimit:10;stroke-dasharray:none;stroke-opacity:1;visibility:visible"/><path d="m536.48 816.804 3.096 14.961M541.912 823.167l-1.187 1.615M541.724 829.753l-.999-4.971M421.28 773.798l17.424.306M536.48 816.805l-6.667 5.086M542.032 818.918l-12.219 2.972M319.88 710.732l17.527-7.82M330.24 706.641l7.167-3.73M334.808 688.648l11.002 8.526M330.685 689.772l15.125 7.402" style="fill:none;stroke:red;stroke-width:.999997;stroke-linecap:round;stroke-linejoin:round;stroke-miterlimit:10;stroke-dasharray:none;stroke-opacity:1;visibility:visible"/><path d="m541.912 823.167.12-4.249M540.725 824.782l1.187-1.615M541.599 834.275l.125-4.522" style="fill:none;stroke:red;stroke-width:1.99999;stroke-linecap:round;stroke-linejoin:round;stroke-miterlimit:10;stroke-dasharray:none;stroke-opacity:1;visibility:visible"/><path d="m541.53 834.547-12.605-14.996M419.79 865.558l-1.33.942M419.815 871.223l-1.355-4.723M419.79 865.558l-1.307 6.457M419.79 865.558l-1.354-4.588M413.684 876.982l3.116-14.119M414.679 857.727l-14.136-12.369M327.034 791.8l1.432 3.345M234.346 727.402l-3.793-.47M222.601 719.245l7.952 7.687" style="fill:none;stroke:red;stroke-width:.999997;stroke-linecap:round;stroke-linejoin:round;stroke-miterlimit:10;stroke-dasharray:none;stroke-opacity:1;visibility:visible"/><path d="m419.79 865.558-.019-5.333M418.46 866.5l1.33-.942M418.46 866.5l1.355 4.723" style="fill:none;stroke:red;stroke-width:1.99999;stroke-linecap:round;stroke-linejoin:round;stroke-miterlimit:10;stroke-dasharray:none;stroke-opacity:1;visibility:visible"/><path d="m328.466 795.145 9.966 4.575M395.283 782.418l-7.065-9.349M421.28 773.798l-.39-10.73M328.466 795.145l-1.432-3.345" style="fill:none;stroke:red;stroke-width:.999997;stroke-linecap:round;stroke-linejoin:round;stroke-miterlimit:10;stroke-dasharray:none;stroke-opacity:1;visibility:visible"/><path d="m353.017 795.522-11.797-8.064M261.049 732.618l-5.436-3.674M400.266 780.874l3.585-12.589M313.58 705.662l2.161 6.522M408.944 765.984l7.03 10.02" style="fill:none;stroke:red;stroke-width:1.99999;stroke-linecap:round;stroke-linejoin:round;stroke-miterlimit:10;stroke-dasharray:none;stroke-opacity:1;visibility:visible"/><path d="m353.017 795.522-6.702-9.624" style="fill:none;stroke:red;stroke-width:.999997;stroke-linecap:round;stroke-linejoin:round;stroke-miterlimit:10;stroke-dasharray:none;stroke-opacity:1;visibility:visible"/><path d="m358.14 793.934 4.251-12.956M261.049 732.618l14.871-9.334" style="fill:none;stroke:red;stroke-width:1.99999;stroke-linecap:round;stroke-linejoin:round;stroke-miterlimit:10;stroke-dasharray:none;stroke-opacity:1;visibility:visible"/><path d="m374.3 788.923-6.885-9.485" style="fill:none;stroke:red;stroke-width:.999997;stroke-linecap:round;stroke-linejoin:round;stroke-miterlimit:10;stroke-dasharray:none;stroke-opacity:1;visibility:visible"/><path d="m379.351 787.357 3.913-12.771" style="fill:none;stroke:red;stroke-width:1.99999;stroke-linecap:round;stroke-linejoin:round;stroke-miterlimit:10;stroke-dasharray:none;stroke-opacity:1;visibility:visible"/><path d="m419.754 856.243.008 2.266M440.658 879.851l-3.588-9.286" style="fill:none;stroke:red;stroke-width:.999997;stroke-linecap:round;stroke-linejoin:round;stroke-miterlimit:10;stroke-dasharray:none;stroke-opacity:1;visibility:visible"/><path d="m419.554 856.08 19.773-1.562M358.634 799.32l-5.617-3.798M367.415 779.438l6.885 9.485" style="fill:none;stroke:red;stroke-width:1.99999;stroke-linecap:round;stroke-linejoin:round;stroke-miterlimit:10;stroke-dasharray:none;stroke-opacity:1;visibility:visible"/><path d="m477.77 836.167 3.854 19.037" style="fill:none;stroke:red;stroke-width:.999997;stroke-linecap:round;stroke-linejoin:round;stroke-miterlimit:10;stroke-dasharray:none;stroke-opacity:1;visibility:visible"/><path d="m388.218 773.069 7.065 9.349M481.624 855.204l-3.854-19.037" style="fill:none;stroke:red;stroke-width:1.99999;stroke-linecap:round;stroke-linejoin:round;stroke-miterlimit:10;stroke-dasharray:none;stroke-opacity:1;visibility:visible"/><path d="m300.182 717.122 19.821-2.225M541.96 834.4l-17.033 4.961M436.866 883.513l-5.082 1.774M431.784 885.287l5.082-1.774M434.718 871.377l5.108 11.101M436.866 883.513l2.242-13.65M429.736 873.094l4.982-1.717M434.718 871.377l-4.982 1.717M418.938 876.818l5.944-2.049M424.882 874.769l-5.944 2.049" style="fill:none;stroke:red;stroke-width:.999997;stroke-linecap:round;stroke-linejoin:round;stroke-miterlimit:10;stroke-dasharray:none;stroke-opacity:1;visibility:visible"/><path d="m541.599 834.275 13.658 10.387M436.866 883.513l.782 6.269" style="fill:none;stroke:red;stroke-width:1.99999;stroke-linecap:round;stroke-linejoin:round;stroke-miterlimit:10;stroke-dasharray:none;stroke-opacity:1;visibility:visible"/><path d="m230.553 726.932 11.149 5.582" style="fill:none;stroke:red;stroke-width:.999997;stroke-linecap:round;stroke-linejoin:round;stroke-miterlimit:10;stroke-dasharray:none;stroke-opacity:1;visibility:visible"/><path d="M564.265 835.062a1.51 1.51 0 0 0-.054 1.543M564.13 835.353l-.043.153" style="fill:none;stroke:#00ff4a;stroke-width:.999997;stroke-linecap:round;stroke-linejoin:round;stroke-miterlimit:10;stroke-dasharray:none;stroke-opacity:1;visibility:visible"/><path d="M564.265 835.011a1.643 1.643 0 0 0-.135.342M567.523 847.855l.137-1.213M473.825 879.71l93.836-33.068" style="fill:none;stroke:#00ff4a;stroke-width:.999997;stroke-linecap:round;stroke-linejoin:round;stroke-miterlimit:10;stroke-dasharray:none;stroke-opacity:1;visibility:visible"/><path d="m563.945 844.34-90.08 31.626" style="fill:none;stroke:#00ff4a;stroke-width:1.99999;stroke-linecap:round;stroke-linejoin:round;stroke-miterlimit:10;stroke-dasharray:none;stroke-opacity:1;visibility:visible"/><path d="m492.637 869.622-.24.096-.213.11-.184.122-.155.132-.117.141-.08.148-.047.154-.005.154.03.155.07.152.104.148.144.14.172.133.207.123.232.108.257.095.276.081.295.06.304.047.312.026.318.01.313-.011.31-.03.296-.046.284-.064.263-.083.24-.093.213-.113.185-.123.151-.133.12-.142.079-.146.044-.155.005-.153-.032-.156-.07-.151-.106-.148-.142-.14-.174-.132-.205-.121-.232-.111-.259-.093-.275-.078-.292-.064-.305-.045-.312-.027-.315-.008-.313.011-.307.028-.3.048-.28.063-.265.081M543.121 851.894l-.231.092-.206.107-.175.117-.142.13-.11.137-.07.142-.038.146v.15l.041.148.074.147.112.143.147.136.18.126.207.118.233.105.257.09.276.079.292.06.301.043.311.028.31.007.31-.01.301-.029.29-.045.276-.062.252-.078.231-.094.207-.106.174-.118.144-.128.105-.137.075-.143.033-.148v-.149l-.041-.148-.077-.147-.111-.142-.149-.136-.177-.127-.208-.117-.234-.104-.255-.092-.276-.075-.292-.06-.303-.045-.305-.026-.315-.008-.305.011-.304.025-.288.048-.275.062-.252.077M567.66 846.64l-3.716-2.301" style="fill:none;stroke:#00ff4a;stroke-width:.999997;stroke-linecap:round;stroke-linejoin:round;stroke-miterlimit:10;stroke-dasharray:none;stroke-opacity:1;visibility:visible"/><path d="m566.865 866.397.115-.531M474.256 899.87l-.643-.45M566.347 866.767l.52-.369M566.348 866.767l-92.09 33.103M473.616 899.403l.64.467" style="fill:none;stroke:#00ff4a;stroke-width:1.99999;stroke-linecap:round;stroke-linejoin:round;stroke-miterlimit:10;stroke-dasharray:none;stroke-opacity:1;visibility:visible"/><path d="m455.78 906.32-.57.303M456.66 754.072l-.88 152.248M455.21 906.62l-.563-.402M455.479 753.982l1.183.09" style="fill:none;stroke:#00ff4a;stroke-width:.999997;stroke-linecap:round;stroke-linejoin:round;stroke-miterlimit:10;stroke-dasharray:none;stroke-opacity:1;visibility:visible"/><path d="m474.55 747.38.49 1.052" style="fill:none;stroke:#00ff4a;stroke-width:1.99999;stroke-linecap:round;stroke-linejoin:round;stroke-miterlimit:10;stroke-dasharray:none;stroke-opacity:1;visibility:visible"/><path d="m455.479 753.982-13.24-7.974M475.04 748.432l-18.38 5.64" style="fill:none;stroke:#00ff4a;stroke-width:.999997;stroke-linecap:round;stroke-linejoin:round;stroke-miterlimit:10;stroke-dasharray:none;stroke-opacity:1;visibility:visible"/><path d="m442.922 745.044-.683.964" style="fill:none;stroke:#00ff4a;stroke-width:1.99999;stroke-linecap:round;stroke-linejoin:round;stroke-miterlimit:10;stroke-dasharray:none;stroke-opacity:1;visibility:visible"/><path d="m458.299 897.249.193-.084.19-.116.18-.146.166-.166.148-.187.126-.203.104-.213.076-.219.044-.217.018-.212-.016-.204-.044-.184-.07-.168-.102-.14-.125-.113-.145-.082-.164-.05-.18-.015-.188.019-.192.051-.194.085-.19.115-.179.143-.166.168-.151.189-.125.202-.102.213-.076.219-.047.219-.016.212.014.2.044.189.073.164.101.14.126.115.145.08.164.053.18.013.187-.018.193-.052" style="fill:none;stroke:#00ff4a;stroke-width:.999997;stroke-linecap:round;stroke-linejoin:round;stroke-miterlimit:10;stroke-dasharray:none;stroke-opacity:1;visibility:visible"/><path d="m474.55 747.38-3.977-2.347M470.572 745.033l-12.892 3.933M457.679 748.966l-9.312-5.566M448.367 743.4l-5.445 1.645M441.934 897.147l12.713 9.07M442.239 746.006l-.305 151.14" style="fill:none;stroke:#00ff4a;stroke-width:1.99999;stroke-linecap:round;stroke-linejoin:round;stroke-miterlimit:10;stroke-dasharray:none;stroke-opacity:1;visibility:visible"/><path d="m469.681 748.758.274-.093.248-.108.216-.117.181-.13.15-.136.11-.142.073-.147.035-.152-.005-.15-.044-.152-.087-.146-.122-.145-.157-.135-.193-.128-.225-.119-.255-.106-.279-.095-.301-.081-.319-.066-.336-.05-.345-.034-.353-.016-.35-.002-.351.017-.343.032-.334.05-.314.066-.295.079-.273.094-.248.106-.216.118-.184.128-.15.136-.112.142-.072.148-.034.15.002.15.044.154.084.146.123.142.156.138.192.128.224.12.254.106.28.095.303.083.321.064.334.053.347.033.352.018h.353l.352-.017.344-.033.334-.05.317-.066.293-.08M450.895 747.369l.275-.093.249-.107.219-.119.184-.128.152-.136.114-.142.075-.147.039-.15-.002-.149-.045-.151-.08-.147-.117-.143-.156-.137-.188-.126-.224-.118-.25-.106-.276-.096-.3-.08-.317-.064-.333-.051-.344-.035-.352-.018h-.351l-.35.018-.339.032-.336.049-.314.065-.3.08-.273.094-.248.105-.219.117-.186.128-.152.136-.115.143-.077.147-.036.149v.15l.04.151.081.147.117.141.154.138.188.128.22.118.255.108.275.094.299.08.319.066.334.05.344.036.352.017.355.001.348-.018.344-.032.333-.051.318-.064.297-.08" style="fill:none;stroke:#00ff4a;stroke-width:.999997;stroke-linecap:round;stroke-linejoin:round;stroke-miterlimit:10;stroke-dasharray:none;stroke-opacity:1;visibility:visible"/><path d="m470.845 748.069-.02-.029-.123-.14-.157-.138-.192-.128-.226-.118-.254-.108-.277-.094-.303-.081-.32-.065-.336-.051-.344-.035-.351-.017h-.352l-.351.017-.341.032-.335.05-.313.065-.298.08-.272.093-.246.108-.218.116-.182.13-.15.136-.084.104M452.083 746.669l-.01-.013-.121-.142-.154-.137-.189-.127-.219-.118-.253-.107-.275-.095-.3-.08-.318-.065-.333-.05-.344-.035-.35-.016-.354-.002-.349.016-.342.034-.332.048-.315.066-.299.079-.274.095-.246.106-.22.118-.183.126-.155.135-.101.124" style="fill:none;stroke:#00ff4a;stroke-width:.999997;stroke-linecap:round;stroke-linejoin:round;stroke-miterlimit:10;stroke-dasharray:none;stroke-opacity:1;visibility:visible"/><path d="m468.556 748.854.17-.062.139-.076.106-.083.071-.09.031-.099-.011-.095-.054-.096-.091-.09-.124-.079-.156-.071-.182-.061-.206-.042-.217-.028-.225-.01-.224.01-.218.022-.202.04-.183.058-.156.068-.124.08-.09.087-.05.096-.005.097.027.096.073.092.107.087.139.075.175.066.191.05.213.037.221.017.227.002.224-.016.21-.032.195-.05" style="fill:none;stroke:#00ff4a;stroke-width:.999997;stroke-linecap:round;stroke-linejoin:round;stroke-miterlimit:10;stroke-dasharray:none;stroke-opacity:1;visibility:visible"/><path d="m475.04 748.432.177-.503M474.55 747.38l.668.549" style="fill:none;stroke:#00ff4a;stroke-width:1.99999;stroke-linecap:round;stroke-linejoin:round;stroke-miterlimit:10;stroke-dasharray:none;stroke-opacity:1;visibility:visible"/><path d="m449.79 747.465.17-.063.143-.074.107-.084.07-.091.032-.097-.008-.096-.05-.094-.085-.09-.123-.08-.156-.071-.182-.059-.201-.042-.219-.028-.224-.008-.224.005-.218.025-.203.04-.183.055-.158.07-.126.081-.088.086-.052.094-.01.096.028.097.068.092.106.087.139.076.17.064.19.05.211.036.223.018.226.002.221-.016.212-.033.195-.048" style="fill:none;stroke:#00ff4a;stroke-width:.999997;stroke-linecap:round;stroke-linejoin:round;stroke-miterlimit:10;stroke-dasharray:none;stroke-opacity:1;visibility:visible"/><path d="m473.528 900.038-.083-.068" style="fill:none;stroke:#00ff4a;stroke-width:1.99999;stroke-linecap:round;stroke-linejoin:round;stroke-miterlimit:10;stroke-dasharray:none;stroke-opacity:1;visibility:visible"/><path d="m473.833 878.834-.217 20.57" style="fill:none;stroke:#00ff4a;stroke-width:.999997;stroke-linecap:round;stroke-linejoin:round;stroke-miterlimit:10;stroke-dasharray:none;stroke-opacity:1;visibility:visible"/><path d="m474.63 803.5-.796 75.335" style="fill:none;stroke:#00ff4a;stroke-width:1.99999;stroke-linecap:round;stroke-linejoin:round;stroke-miterlimit:10;stroke-dasharray:none;stroke-opacity:1;visibility:visible"/><path d="m474.863 781.5-.233 22" style="fill:none;stroke:#00ff4a;stroke-width:.999997;stroke-linecap:round;stroke-linejoin:round;stroke-miterlimit:10;stroke-dasharray:none;stroke-opacity:1;visibility:visible"/><path d="m472.957 900.337-17.655 6.346M442.922 745.044l-.484.466M442.436 745.509l-.196.497M473.616 899.403l-.088.635M475.217 747.929l-.356 33.573" style="fill:none;stroke:#00ff4a;stroke-width:1.99999;stroke-linecap:round;stroke-linejoin:round;stroke-miterlimit:10;stroke-dasharray:none;stroke-opacity:1;visibility:visible"/><path d="m455.21 906.62.09.064" style="fill:none;stroke:#00ff4a;stroke-width:.999997;stroke-linecap:round;stroke-linejoin:round;stroke-miterlimit:10;stroke-dasharray:none;stroke-opacity:1;visibility:visible"/><path d="m473.528 900.038-.57.3" style="fill:none;stroke:#00ff4a;stroke-width:1.99999;stroke-linecap:round;stroke-linejoin:round;stroke-miterlimit:10;stroke-dasharray:none;stroke-opacity:1;visibility:visible"/><path d="m474.632 803.22 1.168-.646M474.861 781.74l69.324-22.071M556.943 755.605l14.105-4.49" style="fill:none;stroke:#00ff4a;stroke-width:.999997;stroke-linecap:round;stroke-linejoin:round;stroke-miterlimit:10;stroke-dasharray:none;stroke-opacity:1;visibility:visible"/><path d="m567.23 748.998-12.001 3.807M542.025 756.996l-67.128 21.292" style="fill:none;stroke:#00ff4a;stroke-width:1.99999;stroke-linecap:round;stroke-linejoin:round;stroke-miterlimit:10;stroke-dasharray:none;stroke-opacity:1;visibility:visible"/><path d="m525.159 776.728-.019.216-.052.22-.08.216-.104.209-.13.197-.152.179-.166.152-.177.127-.186.093-.186.06-.183.025-.177-.012-.159-.046-.145-.084-.123-.115-.1-.143-.07-.17-.04-.189-.012-.206.021-.217.049-.22.081-.216.107-.211.13-.196.152-.177.163-.154.18-.125.184-.095.188-.06.183-.025.175.013.161.047.145.084.123.115.099.142.07.17.039.19.01.206M571.048 751.114l-3.818-2.116" style="fill:none;stroke:#00ff4a;stroke-width:.999997;stroke-linecap:round;stroke-linejoin:round;stroke-miterlimit:10;stroke-dasharray:none;stroke-opacity:1;visibility:visible"/><path d="m570.31 772.044-7.752 2.526M549.796 778.728l-75.164 24.49" style="fill:none;stroke:#00ff4a;stroke-width:1.99999;stroke-linecap:round;stroke-linejoin:round;stroke-miterlimit:10;stroke-dasharray:none;stroke-opacity:1;visibility:visible"/><path d="m572.873 717.252-.656.932M570.31 772.044l-.092-.227" style="fill:none;stroke:#00ff4a;stroke-width:.999997;stroke-linecap:round;stroke-linejoin:round;stroke-miterlimit:10;stroke-dasharray:none;stroke-opacity:1;visibility:visible"/><path d="m567.519 866.254-.54-.388" style="fill:none;stroke:#00ff4a;stroke-width:1.99999;stroke-linecap:round;stroke-linejoin:round;stroke-miterlimit:10;stroke-dasharray:none;stroke-opacity:1;visibility:visible"/><path d="m566.98 865.866 5.237-147.682" style="fill:none;stroke:#00ff4a;stroke-width:.999997;stroke-linecap:round;stroke-linejoin:round;stroke-miterlimit:10;stroke-dasharray:none;stroke-opacity:1;visibility:visible"/><path d="m568.083 865.96-.563.296" style="fill:none;stroke:#00ff4a;stroke-width:1.99999;stroke-linecap:round;stroke-linejoin:round;stroke-miterlimit:10;stroke-dasharray:none;stroke-opacity:1;visibility:visible"/><path d="m572.873 717.252 16.932-5.188" style="fill:none;stroke:#00ff4a;stroke-width:.999997;stroke-linecap:round;stroke-linejoin:round;stroke-miterlimit:10;stroke-dasharray:none;stroke-opacity:1;visibility:visible"/><path d="m568.468 715.233.295-.164" style="fill:none;stroke:#00ff4a;stroke-width:1.99999;stroke-linecap:round;stroke-linejoin:round;stroke-miterlimit:10;stroke-dasharray:none;stroke-opacity:1;visibility:visible"/><path d="m568.761 715.069 4.112 2.183" style="fill:none;stroke:#00ff4a;stroke-width:.999997;stroke-linecap:round;stroke-linejoin:round;stroke-miterlimit:10;stroke-dasharray:none;stroke-opacity:1;visibility:visible"/><path d="m568.083 865.96 16.322-5.864M568.468 715.233l-.104.901" style="fill:none;stroke:#00ff4a;stroke-width:1.99999;stroke-linecap:round;stroke-linejoin:round;stroke-miterlimit:10;stroke-dasharray:none;stroke-opacity:1;visibility:visible"/><path d="m581.381 852.098.006.195.033.18.06.162.087.139.109.112.13.083.148.05.161.019.171-.015.177-.048.176-.077.174-.11.167-.133.156-.16.141-.178.12-.195.099-.204.076-.21.05-.212.021-.206-.007-.195-.033-.18-.06-.162-.086-.138-.11-.112-.129-.083-.146-.05-.163-.02-.169.013-.18.048-.173.079-.178.108-.166.137-.154.158-.141.177-.121.197-.1.203-.075.212-.05.21-.019.207" style="fill:none;stroke:#00ff4a;stroke-width:.999997;stroke-linecap:round;stroke-linejoin:round;stroke-miterlimit:10;stroke-dasharray:none;stroke-opacity:1;visibility:visible"/><path d="m580.684 711.432-11.921 3.638M566.39 773.32l-2.447 71.02M568.364 716.134l-1.134 32.864" style="fill:none;stroke:#00ff4a;stroke-width:1.99999;stroke-linecap:round;stroke-linejoin:round;stroke-miterlimit:10;stroke-dasharray:none;stroke-opacity:1;visibility:visible"/><path d="m570.968 706.342 9.716 5.088" style="fill:none;stroke:#00ff4a;stroke-width:.999997;stroke-linecap:round;stroke-linejoin:round;stroke-miterlimit:10;stroke-dasharray:none;stroke-opacity:1;visibility:visible"/><path d="m589.807 712.064-13.864-7.226M575.941 704.838l-4.973 1.504" style="fill:none;stroke:#00ff4a;stroke-width:1.99999;stroke-linecap:round;stroke-linejoin:round;stroke-miterlimit:10;stroke-dasharray:none;stroke-opacity:1;visibility:visible"/><path d="m579.356 706.746-.23-.108-.253-.096-.28-.086-.3-.072-.312-.059-.328-.048-.333-.03-.34-.017h-.335l-.333.016-.323.031-.313.045-.293.06-.275.072-.248.086-.22.097-.193.107-.16.116-.125.124-.091.129-.051.133-.016.138.024.136.062.138.097.134.133.13.17.124.196.116.23.108.254.098.28.086.3.074.314.06.328.045.333.03.342.017h.338l.335-.015.32-.03.315-.047.293-.059.272-.073.251-.086.223-.097.191-.108.16-.116.125-.124.09-.13.05-.135.014-.135-.024-.139-.063-.136-.097-.134-.135-.13-.17-.122-.199-.118M577.577 714.092l-.232-.11-.257-.098-.281-.088-.3-.074-.318-.061-.329-.047-.337-.03-.343-.018h-.337l-.336.016-.328.032-.312.046-.298.06-.276.073-.25.088-.225.099-.194.108-.164.12-.125.125-.091.132-.052.136-.016.139.024.14.06.14.099.136.134.132.17.126.2.119.231.11.257.101.279.086.306.075.316.061.33.046.341.033.338.016h.344l.335-.016.328-.03.315-.048.297-.059.276-.075.252-.087.224-.1.195-.109.16-.119.126-.126.09-.132.052-.136.015-.139-.023-.141-.063-.138-.099-.136-.135-.133-.17-.127-.202-.118" style="fill:none;stroke:#00ff4a;stroke-width:.999997;stroke-linecap:round;stroke-linejoin:round;stroke-miterlimit:10;stroke-dasharray:none;stroke-opacity:1;visibility:visible"/><path d="m576.137 715.26-.153-.068-.177-.058-.198-.042-.212-.028-.217-.014-.217.003-.211.019-.196.034-.173.048-.15.062-.117.072-.086.078-.043.087-.008.09.033.088.07.087.106.08.137.074.167.064.19.05.205.036.213.022.22.005.216-.012.203-.027.188-.04.16-.056.137-.066.099-.076.064-.084.026-.088-.013-.091-.05-.087-.086-.084-.127-.078M578.121 715.285a1.627 1.627 0 0 0-.57-.459M577.55 714.828l-.23-.11-.26-.098-.28-.088-.3-.074-.317-.061-.328-.047-.34-.03-.339-.018h-.341l-.335.016-.328.032-.312.046-.297.06-.276.073-.252.088-.225.099-.193.109-.161.117-.128.128-.008.007" style="fill:none;stroke:#00ff4a;stroke-width:.999997;stroke-linecap:round;stroke-linejoin:round;stroke-miterlimit:10;stroke-dasharray:none;stroke-opacity:1;visibility:visible"/><path d="m570.643 706.801-.271 7.777M570.968 706.342l-.29.163M570.679 706.505l-.036.296M584.507 859.569l-.063.601M590.399 712.608l-5.894 146.96M584.444 860.17l-.039-.077M589.807 712.064l.593.544" style="fill:none;stroke:#00ff4a;stroke-width:1.99999;stroke-linecap:round;stroke-linejoin:round;stroke-miterlimit:10;stroke-dasharray:none;stroke-opacity:1;visibility:visible"/><path d="m577.928 707.901-.15-.067-.178-.056-.196-.042-.21-.03-.214-.01-.216.002-.208.018-.193.034-.173.048-.147.059-.118.07-.082.081-.046.083-.007.087.034.088.068.086.107.078.134.074.167.06.188.049.202.037.214.02.216.006.215-.011.2-.027.185-.041.16-.053.133-.066.1-.074.064-.084.024-.084-.01-.088-.052-.088-.089-.082-.122-.077M579.892 707.924a1.555 1.555 0 0 0-.565-.447M579.327 707.477l-.227-.108-.257-.096-.28-.087-.295-.072-.316-.06-.325-.046-.334-.03-.338-.016h-.34l-.329.015-.326.03-.31.045-.296.06-.27.072-.25.086-.219.098-.195.106-.161.116-.126.124-.001.004" style="fill:none;stroke:#00ff4a;stroke-width:.999997;stroke-linecap:round;stroke-linejoin:round;stroke-miterlimit:10;stroke-dasharray:none;stroke-opacity:1;visibility:visible"/><path d="m567.564 866.33-.601-.38M584.444 860.17l-.564.295M567.519 866.254l.044.076" style="fill:none;stroke:#00ff4a;stroke-width:1.99999;stroke-linecap:round;stroke-linejoin:round;stroke-miterlimit:10;stroke-dasharray:none;stroke-opacity:1;visibility:visible"/><path d="m474.903 777.918.396.243" style="fill:none;stroke:#00ff4a;stroke-width:.999997;stroke-linecap:round;stroke-linejoin:round;stroke-miterlimit:10;stroke-dasharray:none;stroke-opacity:1;visibility:visible"/><path d="m492.637 869.622-18.772 6.344" style="fill:none;stroke:#00ff4a;stroke-width:1.99999;stroke-linecap:round;stroke-linejoin:round;stroke-miterlimit:10;stroke-dasharray:none;stroke-opacity:1;visibility:visible"/><path d="m473.865 875.966 18.772-6.344M455.78 906.32l2.519-9.071M455.302 906.683l2.997-9.434M468.557 748.854l1.124-.096M468.556 748.854l1.124-.096M449.791 747.465l1.104-.096M457.68 748.966l-6.785-1.597M442.922 745.044l3.125 1.585M469.68 748.758l-1.124.096M469.681 748.758l-1.124.096M448.367 743.4l1.423 4.065M450.895 747.369l-1.104.096M555.229 752.805l-11.044 6.864M567.23 748.998l-10.287 6.607" style="fill:none;stroke:#00ff4a;stroke-width:.999997;stroke-linecap:round;stroke-linejoin:round;stroke-miterlimit:10;stroke-dasharray:none;stroke-opacity:1;visibility:visible"/><path d="m544.185 759.669 11.044-6.864M555.229 752.805l-13.204 4.191M549.796 778.728l12.762-4.158M562.558 774.57l-12.762 4.158" style="fill:none;stroke:#00ff4a;stroke-width:1.99999;stroke-linecap:round;stroke-linejoin:round;stroke-miterlimit:10;stroke-dasharray:none;stroke-opacity:1;visibility:visible"/><path d="m584.505 859.568-3.124-7.47M584.507 859.569l-3.124-7.47M577.551 714.826l-1.414.434M572.873 717.252l3.264-1.992" style="fill:none;stroke:#00ff4a;stroke-width:.999997;stroke-linecap:round;stroke-linejoin:round;stroke-miterlimit:10;stroke-dasharray:none;stroke-opacity:1;visibility:visible"/><path d="m568.468 715.233 1.904-.655" style="fill:none;stroke:#00ff4a;stroke-width:1.99999;stroke-linecap:round;stroke-linejoin:round;stroke-miterlimit:10;stroke-dasharray:none;stroke-opacity:1;visibility:visible"/><path d="m579.327 707.477-1.399.424M580.684 711.43l-2.756-3.529" style="fill:none;stroke:#00ff4a;stroke-width:.999997;stroke-linecap:round;stroke-linejoin:round;stroke-miterlimit:10;stroke-dasharray:none;stroke-opacity:1;visibility:visible"/><path d="m487.155 748.277 4.235 2.313M488.94 757.402l1.35 6.658M487.155 748.277l4.062 13.796" style="fill:none;stroke:red;stroke-width:.999997;stroke-linecap:round;stroke-linejoin:round;stroke-miterlimit:10;stroke-dasharray:none;stroke-opacity:1;visibility:visible"/><path d="m442.922 745.044-.643-3.946" style="fill:none;stroke:red;stroke-width:1.99999;stroke-linecap:round;stroke-linejoin:round;stroke-miterlimit:10;stroke-dasharray:none;stroke-opacity:1;visibility:visible"/><path d="m528.925 819.551 11.456 9.882M442.239 746.008l-3.424 11.02" style="fill:none;stroke:red;stroke-width:.999997;stroke-linecap:round;stroke-linejoin:round;stroke-miterlimit:10;stroke-dasharray:none;stroke-opacity:1;visibility:visible"/><path d="m442.239 746.008-3.495 5.865" style="fill:none;stroke:red;stroke-width:1.99999;stroke-linecap:round;stroke-linejoin:round;stroke-miterlimit:10;stroke-dasharray:none;stroke-opacity:1;visibility:visible"/><path d="m420.89 763.068-.568 15.704M492.637 869.622l-15.541-.159M524.927 839.361l-9.157 15.186" style="fill:none;stroke:red;stroke-width:.999997;stroke-linecap:round;stroke-linejoin:round;stroke-miterlimit:10;stroke-dasharray:none;stroke-opacity:1;visibility:visible"/><path d="m554.739 842.347 9.472-5.742M555.316 842.809l12.207 5.046M536.569 835.34l6.552 16.554M554.74 842.347l-11.619 9.547M487.155 748.277l-16.31-.208" style="fill:none;stroke:#00ff4a;stroke-width:.999997;stroke-linecap:round;stroke-linejoin:round;stroke-miterlimit:10;stroke-dasharray:none;stroke-opacity:1;visibility:visible"/></svg>