<svg xmlns="http://www.w3.org/2000/svg" baseProfile="full" height="1122.52" preserveAspectRatio="xMinYMin meet" style="width:738px;height:965px" width="793.701" xml:space="preserve"><path d="m316.006 371.294.043.124.4 1.275.37 1.3.329 1.319.288 1.333.259 1.345.216 1.368.179 1.381.135 1.388.094 1.398.058 1.413.023 1.422-.023 1.429-.058 1.438-.088 1.436-.136 1.445-.175 1.454-.209 1.453-.25 1.452-.281 1.455-.328 1.453-.362 1.452-.393 1.453-.434 1.447-.473 1.435-.507 1.438-.538 1.428-.578 1.423-.61 1.403-.649 1.408M292.066 437.455l-1.228.932-1.252.907-1.27.874-1.286.844-1.29.811-1.318.77-1.327.747-1.33.706-1.348.666-1.359.642-1.372.596-1.373.562-1.383.53-1.389.49-1.395.451-1.397.407-1.399.372-1.405.328-1.396.298-1.406.256-1.396.207-1.397.179-1.397.128-1.39.089-1.388.055-1.373.008-1.373-.032-1.356-.072-1.351-.111-1.341-.163-1.324-.192-1.318-.242-1.301-.272-1.284-.322-1.259-.361-1.253-.393-1.236-.442-1.213-.48-1.188-.524-1.172-.553-1.148-.604M224.96 434.927l.496-.443M236.335 446.191l.105-.095M223.69 443.656l6.27-5.526-3.661-3.196M229.96 438.131l.152.136.161.155.17.166.174.184.178.186.185.194.185.208.184.209.177.206.17.205.176.207.167.208.171.208.175.21.165.217.18.217.184.241.186.232.177.242.176.224.193.25.176.239.176.233.153.218M225.455 434.486l.032-.018.05-.006.048.006.055.018.12.048.145.089.09.063.087.064.105.091.111.093M234.151 443.126l.571.746.578.731M235.3 444.603l.192.23.177.219.153.192.136.168.112.144.104.13.081.112.072.088.056.081.034.067.022.038v.024M414.711 610.435l-.416-.33-.45-.285-.483-.245-.514-.192-.538-.151-.563-.099-.585-.057h-.603l-.617.052-.626.096-.634.143-.643.185-.641.241-.644.28-.635.33-.625.37-.618.415-.594.45-.586.486-.554.512-.539.552-.505.58-.474.592-.441.63-.41.64-.37.65-.329.667-.288.673-.251.676-.2.673-.159.675-.112.666-.064.658-.017.644.024.627.072.6.12.585.168.556.21.523.256.489.297.457.337.416.379.379" style="fill:none;stroke:red;stroke-width:.999997;stroke-linecap:round;stroke-linejoin:round;stroke-miterlimit:4;stroke-dasharray:none;stroke-opacity:1;visibility:visible"/><path d="m311.862 374.33.083.185.474 1.148.443 1.174.393 1.188.362 1.212.32 1.228.29 1.245.239 1.268.21 1.276.17 1.293.128 1.303.086 1.316.05 1.324.007 1.342-.032 1.34-.065 1.348-.111 1.358-.144 1.357-.185 1.365-.226 1.364-.265 1.374-.306 1.365-.337 1.364-.376 1.364-.408 1.359-.459 1.348-.481 1.35-.523 1.34-.562 1.324-.594 1.324-.625 1.31-.659 1.301-.699 1.284-.73 1.27-.754 1.252-.796 1.237-.819 1.22-.851 1.205-.884 1.18-.906 1.165-.94 1.14-.963 1.115-.988 1.092-1.012 1.067-1.044 1.044-1.06 1.01-1.083.99M295.229 432.36l-1.11.961-1.122.931-1.148.9-1.164.868-1.188.843-1.198.801-1.219.779-1.229.74-1.245.699-1.252.674-1.268.627-1.276.601-1.287.556-1.292.522-1.301.488-1.308.442-1.31.41-1.318.361-1.314.327-1.317.289-1.318.243-1.308.208-1.317.16-1.31.129-1.3.08-1.299.041-1.285-.005-1.287-.044-1.265-.087-1.263-.124-1.251-.168-1.237-.214-1.222-.25-1.203-.296-1.19-.329-1.169-.376-1.151-.419-1.129-.458-1.109-.49-1.092-.538-1.068-.579-1.037-.61-1.019-.657-.988-.682-.963-.732-.94-.762-.899-.802-.875-.836-.843-.868-.819-.9-.78-.938-.745-.964-.716-1.002-.673-1.028-.643-1.06-.612-1.084-.56-1.118-.538-1.14-.49-1.162-.459-1.198-.416-1.212-.37-1.238-.336-1.252-.299-1.276-.256-1.3-.217-1.308M301.195 354.98l.996.7.972.73.948.77.923.796.89.826.861.86.825.89.804.918.77.947.741.977.705 1.005 1.659 2.824 1.5 2.835 1.114 2.672M248.165 447.524l-1.198-.361-1.18-.393-1.156-.434-1.14-.465-1.127-.516-1.098-.536-1.083-.584-1.062-.623-1.027-.648-1.01-.69-.99-.724-.956-.754-.93-.794-.906-.827M308.357 357.863l.828.979.802 1.013.764 1.035.73 1.068 1.676 2.767.966 1.9.999 2.265.928 2.528" style="fill:none;stroke:red;stroke-width:.999997;stroke-linecap:round;stroke-linejoin:round;stroke-miterlimit:4;stroke-dasharray:none;stroke-opacity:1;visibility:visible"/><path d="m277.966 354.78 1.333-.072 1.318-.023 1.308.008 1.301.062 1.284.098 1.276.144 1.263.185 1.241.224 1.231.274 1.202.314 1.199.353 1.172.393 1.146.433 1.127.473 1.107.514 1.083.555 1.052.595 1.029.625 1.002.666.98.706.947.739.918.772.889.81.852.847.824.865.8.905.752.94 1.721 2.205 1.667 3 .955 2.125" style="fill:none;stroke:red;stroke-width:.999997;stroke-linecap:round;stroke-linejoin:round;stroke-miterlimit:4;stroke-dasharray:none;stroke-opacity:1;visibility:visible"/><path d="m312.789 360.618-.819-.57-.835-.561-.852-.531-.865-.513-.892-.491-.899-.465-.917-.441-.932-.417-.945-.394-.958-.37-.97-.345-.977-.314-.998-.296-.996-.265-1.01-.242-1.023-.216-1.034-.192-1.044-.17-1.052-.135-1.061-.113-1.073-.09-1.078-.064-1.082-.03-1.092-.016-1.095.016-1.097.047-1.103.065-1.107.097-1.113.118-1.117.146-1.116.177-1.127.192-1.13.225-1.125.258-1.122.272-1.126.305-1.125.328-1.121.355-1.119.377-1.116.402-1.115.426-1.108.448-1.108.483-1.101.5-1.099.528-1.093.545-1.084.579-1.083.593-1.068.618-1.06.643-1.053.667-1.043.683-1.028.705-1.025.722-1.013.757-1.005.77-.985.788-.981.809-.964.837-.956.849-.937.868-.917.882-.906.909-.892.914-.876.939-.86.948-.841.973-.82.98-.81.994-.795 1.02-.773 1.028-.753 1.044-.732 1.05-.715 1.07-.689 1.074-.673 1.083-.65 1.101-.629 1.101-.609 1.115-.587 1.125-.569 1.131-.538 1.142-.522 1.146-.506 1.158-.473 1.156-.45 1.172-.427 1.165-.409 1.172-.377 1.18-.353 1.173-.328 1.18-.313 1.18-.283 1.18-.257 1.18-.23 1.18-.213 1.187-.181 1.181-.155 1.18-.136 1.174-.104 1.173-.079 1.17-.065 1.159-.025 1.154-.007 1.15.015 1.137.048 1.142.065 1.124.097 1.124.12 1.115.143 1.1.169 1.101.193 1.084.217 1.076.25 1.059.263 1.044.291 1.036.312 1.02.337 1.01.37.996.386.98.408.972.427.948.457.938.472.925.508.899.52.884.54.873.563.844.585.836.601.81.644.811.659.795.689.77.701.754.721.732.745.705.764.692" style="fill:none;stroke:red;stroke-width:1.99999;stroke-linecap:round;stroke-linejoin:round;stroke-miterlimit:4;stroke-dasharray:none;stroke-opacity:1;visibility:visible"/><path d="m314.737 372.297.34.926.338.988.312 1.003.298 1.012.264 1.02.24 1.027.229 1.036.189 1.044.17 1.045.152 1.059.12 1.066.099 1.068.078 1.086.048 1.083.035 1.091.005 1.094-.024 1.1-.04 1.101-.064 1.098-.096 1.1-.112 1.106-.136 1.118-.163 1.116-.184 1.116-.208 1.116-.233 1.124-.248 1.116-.281 1.116-.306 1.116-.321 1.108-.345 1.108-.37 1.102-.385 1.09-.41 1.094-.432 1.09-.458 1.083-.473 1.077-.5 1.068-.521 1.067-.538 1.061-.563 1.052-.585 1.044-.595 1.028-.618 1.02-.643 1.01-.656.997-.676.987-.692.97-.705.964-.731.956-.745.94-.764.922-.787.916-.793.901-.814.88-.825.87-.845.85-.859.833-.873.82-.878.804-.898.786-.907.761-.924.75-.939.736-.948.709-.962.698-.972.675-.98.657-.994.634-1.005.612-1.003.592-1.021.571-1.017.554-1.039.521-1.035.515-1.052.481-1.052.468-1.066.442-1.062.416-1.073.394-1.077.368-1.086.346-1.076.321-1.09.305-1.084.274-1.084.248-1.084.225-1.092.2-1.094.17-1.082.151-1.094.128-1.092.098-1.089.072-1.087.05-1.081.022h-1.077l-1.076-.032-1.067-.055-1.06-.083-.956-.094-.948-.112-.948-.146-.937-.152-.932-.186-.927-.2-.92-.226-.907-.24" style="fill:none;stroke:red;stroke-width:.999997;stroke-linecap:round;stroke-linejoin:round;stroke-miterlimit:4;stroke-dasharray:none;stroke-opacity:1;visibility:visible"/><path d="m209.067 452.052-.272-.256-.255-.28-.234-.306-.215-.315-.2-.328-.181-.344-.152-.347-.136-.358-.11-.372-.101-.383-.061-.396-.05-.393-.03-.408-.008-.411.016-.416.04-.428.064-.425.08-.416.105-.426.127-.426.156-.428.167-.422.19-.41.211-.411.232-.392.248-.395.265-.385.292-.37.295-.359.321-.346.33-.329.345-.313.36-.306.37-.281.376-.263.394-.25.394-.226.41-.208.417-.184.418-.168.418-.146.427-.119.423-.097.426-.08.426-.058.418-.022.427-.008.407.016.41.04.391.064.396.08.384.11.37.13.362.154.304.151.306.17.282.193.192.134M414.711 610.435l.241.225.239.232.227.241.225.242.216.248.21.265.194.265.191.274.185.273.168.279.168.29.153.299.144.295.136.306.13.304.112.312.112.315.096.32.09.316.072.328.071.321.057.328.048.33.032.329.024.337.018.331.008.336-.008.33-.011.336-.03.33-.034.328-.047.33-.057.33-.064.328-.079.322-.09.32-.096.32-.104.314-.12.313-.12.306-.138.306-.152.296-.153.298-.161.287-.175.283-.177.282-.192.27-.2.266-.202.257-.218.257-.224.243-.236.237-.229.236-.251.223-.249.216-.256.211-.265.192-.272.192-.273.185-.281.176-.288.161-.291.153-.296.145-.305.135-.306.129-.305.12-.313.105-.322.096-.314.09-.32.07-.328.073-.32.05-.332.047-.328.033-.33.033-.329.007-.33.007-.33-.007-.327-.02-.329-.029-.33-.041-.321-.046-.329-.057-.321-.071-.323-.082-.312-.087-.313-.106-.312-.104-.304-.12-.306-.13-.298-.141-.298-.146-.289-.16-.29-.17-.279-.177-.273-.184-.265-.193-.265-.2-.248-.219-.25-.216M209.067 452.052l120.459 109.412M332.548 564.21l68.298 62.035M351.023 554.19l63.688 56.246M229.64 446.978l109.823 97" style="fill:none;stroke:red;stroke-width:1.99999;stroke-linecap:round;stroke-linejoin:round;stroke-miterlimit:4;stroke-dasharray:none;stroke-opacity:1;visibility:visible"/><path d="m220.053 440.435 3.637 3.221M224.06 443.928l-.083-.048-.063-.048-.057-.048-.055-.042-.055-.039-.057-.047M229.64 446.978l-.192-.168-.208-.16-.227-.162-.243-.168-.23-.145-.243-.141-.247-.148-.25-.136-.24-.12-.24-.122-.233-.117-.241-.115-.226-.104-.23-.104-.235-.105-.225-.104-.248-.112-.25-.113-.239-.104-.236-.112-.247-.12-.24-.128-.217-.123-.194-.12M220.053 440.435l-.113-.105-.09-.104-.07-.096-.047-.096-.04-.082-.018-.078-.008-.082v-.072l.016-.07.024-.066.04-.064.058-.064" style="fill:none;stroke:red;stroke-width:.999997;stroke-linecap:round;stroke-linejoin:round;stroke-miterlimit:4;stroke-dasharray:none;stroke-opacity:1;visibility:visible"/><path d="m219.805 439.455 5.153-4.528M232.54 449.539l3.796-3.348M224.96 434.927l-.395-.555-.578-.866-.554-.876-.538-.89-.514-.917-.479-.915-.467-.938-.442-.958-.427-.97-.393-.984-.378-.999-.352-1.012-.329-1.027-.304-1.045-.273-1.05-.258-1.061-.234-1.077-.208-1.075-.178-1.092-.159-1.109-.127-1.115-.114-1.125-.079-1.13-.057-1.141-.04-1.148v-1.154l.015-1.159.042-1.164.071-1.165.089-1.172.12-1.172.143-1.17.168-1.185.195-1.184.217-1.181.24-1.19.274-1.188.288-1.18.32-1.188.345-1.18.363-1.18.393-1.173.41-1.172.439-1.164.46-1.157.482-1.156.505-1.156.532-1.14.556-1.139.575-1.133.595-1.124.618-1.108.643-1.108.658-1.092.682-1.076.698-1.068.722-1.061.739-1.043.754-1.027.78-1.021.803-1.003.812-.996.834-.977.851-.966.867-.94.884-.93.898-.915.917-.89.923-.876.938-.86.956-.835.973-.817.98-.804.995-.78 1.002-.761 1.02-.739 1.036-.724 1.035-.7 1.052-.671 1.06-.661 1.068-.627 1.076-.608 1.076-.587 1.084-.561 1.1-.539 1.1-.513 1.108-.499 1.116-.465 1.116-.443 1.124-.415 1.124-.395 1.124-.368 1.132-.344 1.124-.323 1.132-.29 1.124-.262 1.124-.244 1.133-.215 1.123-.194 1.127-.16 1.122-.135 1.124-.115 1.116-.088 1.118-.064 1.105-.033 1.111-.007 1.089.018 1.092.046 1.077.07 1.076.101 1.06.119 1.059.145 1.053.168 1.043.2 1.028.224 1.03.248 1.002.275 1.005.296.987.32.97.355.956.369.946.393.959.425.929.459.923.475.908.497.89.53.875.548.86.569.836.593M322.794 369.875l.176.275.539.864.504.893.49.899.474.923.442.931.427.949.401.96.378.975.36.986.329.996.313 1.013.28 1.018.266 1.029.24 1.044.217 1.05.2 1.06.17 1.077.143 1.077.13 1.09.097 1.101.079 1.099.048 1.106.033 1.118.007 1.116-.023 1.126-.04 1.122-.065 1.134-.087 1.138-.113 1.14-.136 1.14-.153 1.15-.186 1.138-.2 1.151-.232 1.145-.25 1.15-.272 1.14-.297 1.15-.313 1.13-.345 1.142-.365 1.131-.382 1.139-.401 1.125-.435 1.132-.45 1.123-.465 1.117-.489 1.107-.516 1.11-.537 1.09-.546 1.093-.578 1.076-.586 1.075-.612 1.061-.633 1.051-.65 1.046-.667 1.032-.691 1.03-.697 1.021-.731 1.004-.739.985-.754.98-.781.972-.784.948-.805.939-.818.924-.835.905-.852.892-.867.875-.882.867-.894.853-.905.833-.924.811-.94.803-.945.778-.956.764-.963.74-.981.723-.989.705-.994.682-1.013.666-1.018.652-1.03.624-1.035.612-1.043.584-1.05.564-1.06.544-1.068.526-1.07.496-1.076.474-1.082.456-1.086.427-1.082.41-1.093.384-1.093.362-1.097.348-1.103.31-1.106.297-1.107.264-1.101.242-1.108.224-1.102.195-1.106.168-1.102.143-1.092.122-1.09.096-1.094.072-1.089.047-1.085.027-1.085-.008-1.077-.027-1.076-.056-1.066-.08-1.061-.104-1.051-.128-1.043-.152-1.036-.185-1.021-.202-1.019-.233-1.003-.248-.996-.28-.986-.305-.982-.331-.969-.352-.956-.379-.94-.401-.932-.432-.915-.45-.898-.472-.886-.499-.866-.514-.868-.556-.856-.577-.837-.603-.818-.618-.804-.65-.788-.666M311.729 358.642l-9.096-6.616M240.67 449.99l-4.335-3.8" style="fill:none;stroke:red;stroke-width:1.99999;stroke-linecap:round;stroke-linejoin:round;stroke-miterlimit:4;stroke-dasharray:none;stroke-opacity:1;visibility:visible"/><path d="m343.22 549.568 1.777 1.572M350.355 553.797l-.187-.12-.208-.112-.224-.12-.232-.121-.233-.112-.24-.112-.243-.112-.256-.113-.232-.098-.236-.104-.23-.097-.227-.088-.224-.095-.223-.097-.236-.096-.222-.097-.25-.106-.235-.11-.223-.112-.218-.115-.225-.127-.208-.128-.183-.129-.164-.136M339.055 545.881l-.128-.121-.096-.113-.081-.112-.056-.103-.04-.097-.024-.088-.015-.088.008-.08.017-.083.022-.07.048-.081.057-.063M339.055 545.881l4.165 3.689" style="fill:none;stroke:red;stroke-width:.999997;stroke-linecap:round;stroke-linejoin:round;stroke-miterlimit:4;stroke-dasharray:none;stroke-opacity:1;visibility:visible"/><path d="M330.557 560.655c.412-.39 1.398-.015 2.206.837.81.855 1.13 1.861.72 2.25-.268.258-.781.187-1.33-.132" style="fill:none;stroke:red;stroke-width:.666665;stroke-linecap:round;stroke-linejoin:round;stroke-miterlimit:500;stroke-dasharray:none;stroke-opacity:1;visibility:visible"/><path d="m224.06 443.928 13.625 1.619M226.298 434.934l3.662 3.197M302.634 352.026l-1.439 2.954M226.298 434.934l7.004 4.241" style="fill:none;stroke:red;stroke-width:.999997;stroke-linecap:round;stroke-linejoin:round;stroke-miterlimit:4;stroke-dasharray:none;stroke-opacity:1;visibility:visible"/><path d="m301.195 354.98 11.594 5.638M332.548 564.21l-3.022-2.746M339.055 545.881l.408-1.903M236.44 446.096l-3.9 3.443M301.195 354.98l10.534 3.662" style="fill:none;stroke:red;stroke-width:1.99999;stroke-linecap:round;stroke-linejoin:round;stroke-miterlimit:4;stroke-dasharray:none;stroke-opacity:1;visibility:visible"/><path d="m330.557 560.655 8.21-15.873" style="fill:none;stroke:red;stroke-width:.999997;stroke-linecap:round;stroke-linejoin:round;stroke-miterlimit:4;stroke-dasharray:none;stroke-opacity:1;visibility:visible"/><path d="m338.767 544.782-8.21 15.873" style="fill:none;stroke:red;stroke-width:.666665;stroke-linecap:round;stroke-linejoin:round;stroke-miterlimit:500;stroke-dasharray:none;stroke-opacity:1;visibility:visible"/><path d="m321.82 357.255-5.57 4.905" style="fill:none;stroke:#00ff4a;stroke-width:.999997;stroke-linecap:round;stroke-linejoin:round;stroke-miterlimit:4;stroke-dasharray:none;stroke-opacity:1;visibility:visible"/><path d="m313.327 359.798.81.61.798.63.778.647.753.674.748.699.723.715.697.73.683.754.668.772.644.796.614.8.604.829.578.843.37.578M313.327 359.798l-1.597-1.156" style="fill:none;stroke:#00ff4a;stroke-width:1.99999;stroke-linecap:round;stroke-linejoin:round;stroke-miterlimit:4;stroke-dasharray:none;stroke-opacity:1;visibility:visible"/><path d="m326.333 365.434-.111-.08-.113-.087-.096-.087-.104-.09-.104-.104-.122-.121M324.631 363.333l.216.416.253.401.28.37.303.345M324.495 363.042l-.112-.259-.112-.278-.12-.291-.111-.299-.115-.278-.105-.283-.103-.288-.104-.29-.096-.254-.09-.259-.087-.256-.089-.241-.097-.243-.087-.24-.097-.241-.095-.232-.114-.241-.112-.234-.112-.215-.12-.202-.147-.208-.14-.176-.155-.154-.154-.126M317.873 354.41l3.947 2.846M317.873 354.41l-.13-.08-.136-.064-.12-.04-.13-.024-.111-.016-.121.008-.112.016-.113.025-.111.047-.112.057-.122.071-.112.09" style="fill:none;stroke:#00ff4a;stroke-width:.999997;stroke-linecap:round;stroke-linejoin:round;stroke-miterlimit:4;stroke-dasharray:none;stroke-opacity:1;visibility:visible"/><path d="m316.443 354.5-4.713 4.143M327.146 366.029l-4.352 3.837" style="fill:none;stroke:#00ff4a;stroke-width:1.99999;stroke-linecap:round;stroke-linejoin:round;stroke-miterlimit:4;stroke-dasharray:none;stroke-opacity:1;visibility:visible"/><path d="m293.62 308.313-5.299 2.244-3.999 1.168-1.35.337-1.35.288-1.362.257-1.35.219-1.359.176-1.349.136-1.353.097-1.343.056-1.343.007-1.333-.023-1.336-.064-1.319-.111-1.312-.146-1.31-.192-1.287-.233-1.285-.267-1.263-.313-1.256-.355-1.239-.392-1.222-.427-1.206-.474-1.189-.511M276.742 208.77l.085 2.01M291.722 212.576l-.073.104-.104.105-.122.095-.145.097-.159.081-.177.088-.2.08-.219.074-.25.073-.263.072-.315.073-.321.07M289.375 213.589l-1.005.2-1.007.22M287.363 214.008l-.281.06-.299.058-.313.056-.312.048-.308.04-.303.032-.307.024-.306.027-.28.015-.274.009h-.523l-.248-.01-.25-.013-.249-.028-.24-.024-.252-.032-.24-.04-.233-.056-.216-.056-.229-.065-.2-.079-.185-.078-.16-.091M280.833 206.045l.321 7.761M281.155 213.806l-3.788-2.293M277.367 211.513l-.161-.113-.136-.112-.096-.112-.073-.12-.047-.13-.025-.145M280.535 218.245l1.263-.316 1.272-.272 1.261-.232 1.264-.195 1.27-.152 1.254-.112 1.256-.073 1.255-.03 1.245.006 1.23.048 1.233.087 1.212.13 1.205.168 1.2.219 1.18.248 1.168.291 1.15.32" style="fill:none;stroke:#00ff4a;stroke-width:.999997;stroke-linecap:round;stroke-linejoin:round;stroke-miterlimit:4;stroke-dasharray:none;stroke-opacity:1;visibility:visible"/><path d="m325.933 233.002.492 1.263.45 1.285.418 1.296.377 1.319.345 1.335.307 1.352.264 1.364.233 1.376.195 1.393.163 1.407.117 1.406.09 1.424.046 1.423.01 1.44-.032 1.439-.063 1.45-.107 1.446-.135 1.457-.178 1.453-.208 1.456-.251 1.447-.288 1.457-.323 1.447-.352 1.45-.396 1.435-.425 1.435-.465 1.432-.5 1.411-.532 1.41-.563 1.398-.596 1.392-.633 1.375-.66 1.368-.7 1.343-.724 1.334-.754 1.321-.79 1.292-.819 1.29-.847 1.259-.866 1.241-.903 1.222-.93 1.197-.959 1.183-.981 1.15-1.005 1.135-1.03 1.1-1.055 1.079-1.076 1.044-1.094 1.03-1.117.987-1.142.967-1.156.932-1.175.91-1.2.869-1.215.845-1.221.81-1.245.774-1.259.74-1.269.708-1.286.665-1.295.643-.813.373" style="fill:none;stroke:#00ff4a;stroke-width:.999997;stroke-linecap:round;stroke-linejoin:round;stroke-miterlimit:4;stroke-dasharray:none;stroke-opacity:1;visibility:visible"/><path d="m315.318 226.665.852.875.82.91.788.942.757.973.723.995.7 1.029.65 1.056.63 1.075.595 1.104.553 1.133.514 1.152.486 1.171.448 1.2.41 1.216.377 1.236.337 1.248.3 1.269.264 1.28.217 1.303.194 1.308.145 1.32.112 1.337.072 1.333.033 1.35-.008 1.36-.041 1.36-.079 1.37-.122 1.365-.151 1.375-.201 1.375-.227 1.368-.273 1.373-.304 1.37-.34 1.357-.385 1.36-.411 1.35-.45 1.344-.491 1.343-.514 1.32-.556 1.317-.585 1.303-.628 1.288-.652 1.276-.683 1.256-.724 1.247-.749 1.222-.781 1.206-.801 1.181-.837 1.167-.868 1.141-.895 1.128-.916 1.093-.942 1.068-.971 1.048-.997 1.02-1.013.99-1.04.965-1.058.932-1.087.902-1.102.87-1.118.84-1.134.805-1.158.775-1.166.737-1.182.71-1.198.666-1.215.637-1.223.593-1.229.565-1.236.522-1.257.482-1.255.45-1.264.404-1.27.369-1.269.328-1.281.282-1.27.251-1.281.205-1.277.163-1.27.121-1.27.091-1.271.039-1.264-.008-1.253-.04-1.247-.082-1.237-.128-1.23-.169-1.224-.21-1.205-.246-1.189-.3-1.183-.33-1.16-.376-1.149-.413-1.127-.456-1.11-.497-1.092-.533-1.07-.578-1.046-.613-1.028-.65-.999-.694-.98-.721-.95-.764-.924-.798-.893-.836-.868-.86-.845-.911-.804-.932-.78-.963-.75-.999-.704-1.027-.686-1.064-.643-1.085-.612-1.11-.577-1.141-.54-1.167-.507-1.191-.466-1.214-.427-1.229-.393-1.264-.355-1.268-.312-1.296-.273-1.31-.235-1.338" style="fill:none;stroke:#00ff4a;stroke-width:.999997;stroke-linecap:round;stroke-linejoin:round;stroke-miterlimit:4;stroke-dasharray:none;stroke-opacity:1;visibility:visible"/><path d="m295.833 318.858-.996.283-1.074.279-1.068.249-1.07.233-1.067.201-1.072.187-1.07.15-1.068.138-1.071.104-1.067.083-1.071.054-1.059.032-1.063.01-.517-.011M295.083 214.577l-.885.097-1.084.128-1.087.162-1.084.184-1.096.217-1.093.233-1.085.266-1.094.289-1.085.321-1.093.339-1.079.37-1.087.394-1.068.411-1.07.442-1.068.464-1.055.492-1.053.515-1.044.539-1.04.562-1.036.588-1.02.609-1.024.639-1.003.652-.999.68-.98.702-.981.714-.956.75-.95.754-.934.78-.924.804-.916.82-.893.844-.883.86-.879.887-.853.893-.836.915-.825.933-.806.948-.789.967-.773.981-.746.99-.733 1.005-.716 1.023-.7 1.034-.676 1.046-.659 1.062-.633 1.08-.621 1.084-.602 1.1-.573 1.102-.555 1.117-.538 1.127-.506 1.126-.49 1.135-.468 1.15-.442 1.149-.418 1.158-.403 1.166-.377 1.174-.347 1.175-.328 1.174-.308 1.183-.281 1.183-.256 1.188-.232 1.181-.208 1.184-.188 1.182-.16 1.182-.136 1.183-.114 1.182-.079 1.18-.066 1.175-.039 1.175-.01 1.168.009 1.164.033 1.16.063 1.148.083 1.15.112 1.134.128 1.129.161 1.115.176 1.11.21 1.102.225 1.093.257 1.077.273 1.071.298 1.06.322 1.047.347 1.037.37 1.021.384 1.007.418.989.435.971.45.965.474.943.5.93.522.919.539.9.564.878.585.865.597.845.626.83.635.805.661.785.675.767.692.748.714.724.727.707.745.692.765.657.78.644.795.628.812.595" style="fill:none;stroke:#00ff4a;stroke-width:1.99999;stroke-linecap:round;stroke-linejoin:round;stroke-miterlimit:4;stroke-dasharray:none;stroke-opacity:1;visibility:visible"/><path d="m285.755 325.355-.194-4.615M543.38 337.771l-.507-.254-.53-.212-.546-.152-.58-.103-.587-.048h-.603l-.619.055-.628.11-.628.16-.628.211-.625.264-.629.316-.61.352-.604.412-.587.45-.572.489-.545.533-.524.563-.497.596-.466.626-.428.652-.401.675-.363.699-.321.708-.288.724-.241.725-.195.73-.161.739-.104.725-.067.725-.015.708.026.69.072.675.121.653.16.627.208.593.25.574.291.519.329.494.371.448.4.403.444.362.467.313" style="fill:none;stroke:#00ff4a;stroke-width:.999997;stroke-linecap:round;stroke-linejoin:round;stroke-miterlimit:4;stroke-dasharray:none;stroke-opacity:1;visibility:visible"/><path d="m274.263 202.146-.332-.212-.318-.233-.299-.248-.29-.275-.272-.288-.259-.308-.233-.31-.207-.338-.203-.348-.175-.361-.161-.37-.145-.387-.122-.392-.105-.414-.077-.416-.058-.418-.041-.428-.016-.432.008-.442.024-.444.047-.442.074-.44.098-.443.113-.435.127-.432.153-.437.177-.425.192-.41.218-.412.233-.393.25-.387.264-.368.282-.362.305-.347.315-.33.32-.313.339-.291.353-.279.361-.259.38-.232.378-.217.393-.202.393-.168.396-.153.41-.128.409-.105.412-.083.408-.053.41-.04.403-.01.409.018.403.038.394.059.386.087.338.096.329.112.321.129.315.153.307.16M543.38 337.771l.288.179.283.183.282.194.274.203.265.207.265.218.25.225.248.231.232.244.233.248.228.258.208.264.21.265.199.273.187.292.177.279.167.3.161.296.154.305.144.307.129.312.12.315.112.32.104.325.092.326.077.33.074.332.054.336.059.339.032.33.032.346.016.337.007.339-.007.338-.016.338-.025.337-.031.337-.05.338-.062.338-.065.328-.08.33-.088.333-.099.319-.113.322-.118.323-.129.313-.137.307-.153.304-.161.299-.168.296-.18.29-.181.283-.195.28-.21.273-.21.265-.222.258-.224.247-.244.242-.238.244-.253.223-.256.224-.267.212-.273.2-.281.2-.28.187-.291.178-.297.166-.307.154-.304.15-.305.141-.315.127-.321.12-.323.114-.323.096-.326.087-.332.08-.338.065-.33.065-.338.038-.337.042-.337.023-.347.018-.337.008-.339-.009-.337-.017-.344-.032-.339-.033-.33-.048-.336-.06-.33-.073-.33-.084-.33-.087-.321-.096-.323-.11-.32-.123-.315-.138-.308-.136-.302-.153-.3-.161-.296-.17M447.923 305.846l84.496 50.455M282.273 206.93l156.769 93.617M274.263 202.146l2.26 1.35M282.797 187.338l167.449 96.67M450.246 284.007l93.133 53.764M248.633 306.28l-.82-.604-.804-.634-.799-.652-.77-.673-.763-.7-.739-.718-.732-.739-.71-.765-.688-.781-.67-.793-.652-.822-.625-.838-.612-.851-.589-.868-.57-.885-.546-.899-.524-.917-.507-.944-.49-.947-.468-.968-.44-.988-.421-.988-.391-1.013-.378-1.023-.355-1.036-.329-1.047-.306-1.057-.28-1.071-.267-1.081-.233-1.098-.217-1.102-.193-1.12-.16-1.118-.147-1.134-.118-1.141-.09-1.142-.07-1.16-.052-1.146-.014-1.17v-1.166l.032-1.163.047-1.183.081-1.184.106-1.181.12-1.181.153-1.19.177-1.191.192-1.191.224-1.183.25-1.19.274-1.181.29-1.173.323-1.184.338-1.174.359-1.166.395-1.166.41-1.166.434-1.156.461-1.152.48-1.141.5-1.145.522-1.124.548-1.118.57-1.1.579-1.104.611-1.077.627-1.077.652-1.07.666-1.054.692-1.036.708-1.03.726-1.022.745-.996.765-.99.78-.965.796-.957.814-.932.826-.918.846-.902.86-.891.884-.861.892-.852.901-.836.924-.811.933-.79.951-.769.955-.758.974-.724.983-.708.988-.691 1.004-.659 1.005-.644 1.024-.62 1.029-.594 1.035-.582 1.055-.545 1.05-.533 1.064-.496 1.071-.484 1.07-.46 1.077-.426 1.077-.398 1.086-.387 1.085-.355 1.085-.321 1.095-.307.372-.096M281.5 320.851l-.547-.009-1.052-.037-1.047-.072-1.047-.099-1.037-.112-1.028-.145-1.021-.168-1.015-.191-1.012-.225-1.005-.244-.996-.266-.983-.297-.98-.321-.965-.34-.958-.367-.941-.397-.932-.416-.916-.435-.821-.419-.803-.434-.8-.451-.787-.473-.77-.49-.764-.508-.748-.529M337.12 239.685l.185.473.361 1.007.34 1.02.321 1.03.288 1.046.281 1.051.251 1.072.225 1.068.21 1.088.184 1.085.16 1.1.137 1.101.112 1.104.088 1.118.073 1.117.05 1.133.024 1.127v1.144l-.024 1.14-.05 1.141-.073 1.151-.088 1.149-.112 1.151-.137 1.149-.16 1.15-.176 1.142-.212 1.15-.224 1.151-.25 1.14-.264 1.152-.297 1.142-.313 1.141-.34 1.144-.354 1.132-.376 1.126-.404 1.126-.416 1.11-.445 1.108-.455 1.103-.482 1.093-.5 1.094-.523 1.079-.55 1.067-.559 1.07-.581 1.055-.595 1.045-.621 1.037-.632 1.023-.66 1.013-.667.997-.692.99-.699.964-.726.964-.74.942-.746.933-.774.925-.788.9-.803.892-.819.877-.83.859-.843.837-.863.83-.874.804-.886.789-.893.772-.908.755-.916.732-.933.715-.942.699-.957.675-.968.663-.969.632-.988.62-.993.597-1.003.57-1.007.554-1.012.53-1.021.516-1.022.482-1.037.465-1.038.443-1.053.42-1.044.395-1.062.377-1.062.355-1.061.32-.065.025M258.525 313.406l-9.892-7.127M276.523 203.496l.219 5.274M280.833 206.045l.2.121.209.13.219.136.233.144.256.161.321.193M276.523 203.496l.017.008.047.022.073.034.087.054.13.067.169.096 3.787 2.268M439.042 300.549l.033.014.064.032.09.038.112.066.153.088.2.116 6.611 3.948M446.304 304.85l.234.144.24.145.251.158.257.162.296.178.34.209" style="fill:none;stroke:#00ff4a;stroke-width:1.99999;stroke-linecap:round;stroke-linejoin:round;stroke-miterlimit:4;stroke-dasharray:none;stroke-opacity:1;visibility:visible"/><path d="m282.071 322.735 3.684 2.622M285.755 325.355l.162.096.185.074.2.045.217.027.208.006.234-.013.236-.033.248-.05.225-.047.232-.065.233-.064.24-.073.235-.072.25-.088.248-.088.258-.099.283-.093.28-.116.29-.101.282-.112.313-.123.305-.121.299-.112.281-.111M293.645 323.535l-.491.076-.481.103-.493.137-.481.171M293.645 323.535l.192-.021.186-.019.183-.015.179-.014.305-.016.28-.017.235-.008.2-.007.169-.01h.259l.086-.005.066-.02.017-.003v-.02" style="fill:none;stroke:#00ff4a;stroke-width:.999997;stroke-linecap:round;stroke-linejoin:round;stroke-miterlimit:4;stroke-dasharray:none;stroke-opacity:1;visibility:visible"/><path d="m296 323.36-.168-4.503M281.533 321.57l-.033-.708M281.533 321.57l.025.264.055.224.073.192.096.179.12.161.081.073.088.072" style="fill:none;stroke:#00ff4a;stroke-width:1.99999;stroke-linecap:round;stroke-linejoin:round;stroke-miterlimit:4;stroke-dasharray:none;stroke-opacity:1;visibility:visible"/><path d="m538.893 498.296.008-.19M538.901 498.106v-.034l-.025-.024M538.325 497.656v-.006M538.325 497.65l-.008-.026-.007-.024M536.157 496.122l.03-.01.026.015M536.03 496.17l.126-.047M535.477 495.824l.03-.017.042.017M535.22 495.962l.257-.136M534.716 495.672l.033-.014h.032l.026.006M534.37 495.922l.347-.25M533.907 495.68l.033-.024.032-.006.032.006M533.553 496.002l.354-.32M528.865 499.216l.043-.062M532.052 505.419l5.695-1.985M537.747 503.434l.068-1.488M537.815 501.946l-5.7 1.984M532.113 503.93l-.061 1.49M535.515 497.506l.04.014.042-.006.05-.034M535.515 497.506l-.255-.218M535.261 497.288l-.03-.008-.044.008-.038.03M535.15 497.32l-.32.363M534.691 497.73l.039.005.05-.016.05-.037M534.69 497.73l-.293-.144M534.396 497.586l-.041-.008-.04.016-.031.03M534.284 497.624l-.29.402M533.868 498.098h.039l.048-.026.04-.046M533.868 498.098l-.336-.08M533.532 498.018h-.041l-.038.022-.033.042M533.419 498.082l-.234.424M533.052 498.594l.048-.008.047-.034.038-.046M533.052 498.594l-.361-.018M532.69 498.576l-.04.018-.04.022-.022.05M532.585 498.666l-.184.43M532.275 499.21l.048-.018.047-.038.033-.058M532.275 499.21l-.376.057M529.812 497.776l.335-.046M531.899 499.268l-.039.015-.043.032-.014.047M529.715 497.872l.017-.038.039-.042.041-.016M531.803 499.362l-.127.44M529.585 498.312l.128-.441M531.556 499.93l.047-.031.041-.041.033-.056M529.585 498.312l-.032.056-.038.048-.05.024M531.556 499.93l-.384.12M529.083 498.562l.384-.122M531.172 500.05l-.041.022-.031.042-.015.046M528.995 498.674l.017-.05.03-.038.041-.024M531.084 500.162l-.073.433M528.924 499.104l.07-.43M530.917 500.73l.038-.031.041-.049.015-.056M528.924 499.104l-.016.058-.043.048-.038.03M530.917 500.73l-.394.192M528.433 499.432l.394-.192M530.523 500.922l-.04.03-.033.043-.007.039M528.353 499.546l.02-.04.019-.048.041-.026M530.444 501.034l-.008.424M528.353 499.962v-.416M530.356 501.602l.037-.04.035-.055.008-.048M528.353 499.962l-.016.056-.03.054-.039.042M530.356 501.602l-.387.248M527.89 500.362l.376-.248M529.97 501.848l-.032.035-.025.045-.008.042M527.825 500.482v-.04l.026-.046.038-.033M529.905 501.97l.059.393M527.883 500.872l-.056-.392M529.899 502.515l.038-.05.027-.047v-.056M527.883 500.872l-.008.048-.023.058-.041.048M529.899 502.515l-.362.304M527.737 501.082l.074-.056M529.539 502.819l-.032.04-.017.041v.046M529.49 502.946l.114.35M529.553 503.45l.04-.047.017-.056-.009-.05M529.553 503.45l-.326.354M529.227 503.802l-.031.038-.01.048.009.034M529.196 503.922l.168.304M529.337 504.378l.034-.049.008-.054-.015-.049M529.337 504.379l-.296.39M529.043 504.77l-.024.04-.007.05.015.03M529.027 504.89l.223.257M529.25 505.29l.018-.055.008-.048-.025-.04M529.25 505.29l-.254.418M528.995 505.707l-.016.05v.039l.025.023M529.003 505.819l.272.191M529.288 506.146l.008-.056v-.047l-.021-.033M529.288 506.146l-.205.442M529.083 506.588l-.008.039.008.04.024.025M529.105 506.692l.311.13M529.459 506.938l.008-.055-.017-.04-.033-.023M529.113 506.692l.347.248M529.459 506.938l-.152.44M529.307 507.379v.05l.008.031.03.014M529.345 507.474l.346.065M529.747 507.644v-.048l-.017-.04-.04-.016M529.572 507.516l.176.128M529.747 507.644l-.09.44M529.657 508.084v.039l.027.033.03.007M529.715 508.162l.365-.016M530.165 508.242l-.01-.046-.031-.034-.041-.016M530.037 508.156l.128.086M530.165 508.242l-.033.426M530.132 508.668l.008.032.025.024.04.007M530.204 508.73l.38-.077M530.675 508.715l-.016-.039-.034-.024h-.041M530.577 508.652l.098.063M530.675 508.715l.03.401M530.705 509.116l.008.024.019.024M531.29 509.068l-.026-.04-.036-.016-.05.008M531.21 509.01l.08.058M531.29 509.068l.086.362M530.94 509.108l.439.322M531.379 509.428l.008.015.018.016M531.739 509.318l.121-.075M531.98 509.268l-.032-.032-.041-.006-.047.014M531.923 509.228l.057.039M531.98 509.268l.152.32M531.739 509.307l.393.28M532.132 509.588l.008.016.008.008M532.58 509.348l.024-.016M532.732 509.332l-.033-.025h-.05l-.046.025M532.699 509.307l.033.025M532.732 509.332l.205.264M532.585 509.348l.352.25M532.939 509.596v.007l.008.007M533.523 509.243l-.023-.015h-.033M533.523 509.235v.008M533.523 509.243l.257.21M533.467 509.228l.313.224M533.781 509.452h0l.007.008M539.927 500.088h-.008M539.565 499.842l.355.248M539.919 500.088l-.314-.126M539.58 499.946l.025.016M539.565 499.842l-.01.048.018.04.031.033M539.7 499.306l-.008-.008h-.013M539.3 499.034l.379.264M539.679 499.296l-.347-.056M539.284 499.21l.048.03M539.275 499.13v.056l.025.03.032.024M539.275 499.13l.025-.104M539.35 498.618l-.019-.008h-.014M538.893 498.304l.423.306M539.317 498.61l-.366.009M538.877 498.568l.074.048M538.877 498.528l.008.048.025.035.041.005M538.877 498.528l.018-.232M538.877 498.048l-.017-.008h-.023M538.335 497.682l.501.357M538.836 498.04l-.384.083M538.365 498.058l.087.065M538.357 498.048l.016.04.032.026.047.009M538.357 498.048l-.032-.392M538.31 497.602l-.032-.007-.034.007M538.244 497.602l-.383.144M537.74 497.664l.121.08M537.747 497.696l.026.04.042.016.045-.008M537.747 497.696l-.087-.36M537.661 497.336l-.024-.03-.03-.018-.042.018M537.564 497.306l-.384.209M537.019 497.402l.161.113M537.06 497.49l.03.03.041.01.049-.015M537.06 497.49l-.153-.322M536.907 497.168l-.023-.025-.033-.007-.038.016M536.812 497.152l-.376.274M536.165 497.234l.272.192M536.311 497.424l.032.024h.045l.05-.024M536.31 497.424l-.201-.273M536.108 497.152l-.03-.016h-.041l-.04.024M535.996 497.159l-.35.321M570.59 479.824l.115.043.103.04.088.04.081.04.087.05.09.053 6.746 4.554M575.113 493.374l-.057.209-.064.203-.065.198-.071.194-.064.169-.073.17-.152.303-.14.242-.15.208-.145.174-.153.139-.184.112-.202.073-.112.016h-.118l-.131-.016-.128-.032M575.113 493.374l.159-.56.203-.564.222-.563.25-.553.289-.548.307-.528.337-.522.353-.505" style="fill:none;stroke:#00ff4a;stroke-width:.999997;stroke-linecap:round;stroke-linejoin:round;stroke-miterlimit:4;stroke-dasharray:none;stroke-opacity:1;visibility:visible"/><path d="m577.9 484.644.152.112.136.138.112.145.097.16.064.153.047.168.027.168.014.176v.17l-.014.168-.027.17-.03.175-.051.168-.054.185-.065.186-.073.184-.086.209-.097.208-.107.21-.12.216-.134.234-.144.23-.155.23-.159.223M344.996 551.14l108.296-99.308M446.1 304.746l-.957 134.066M577.9 484.644l-92.613-28.3M537.42 506.842h-.008l-.03.048M538.085 506.035l-.072.09M538.628 505.187l-.032.048-.017.024M533.163 495.807l.317.227M526.913 504.323l.298.207M527.016 505.187l.355.257M527.243 505.97l.4.29M527.603 506.65l.456.34M528.075 507.219l.55.41M528.65 507.66l2.081 1.504M530.924 509.116l.48.344M531.739 509.318l.409.292M532.58 509.348l.365.264M533.467 509.228l.321.232M539.565 499.842l.362.248M539.3 499.027l.4.279M538.893 498.296l.457.32M536.212 496.128l2.096 1.472M535.55 495.824l.48.346M534.807 495.663l.413.297M534.004 495.656l.365.266M533.553 496.002l-.03.024-.043.009M533.06 495.839l.03-.032.043-.008.029.008M532.732 496.2l.328-.36M532.732 496.2l-.041.04-.047.016-.041-.008M532.185 496.143l.042-.03.041-.017h.032l.303.151M531.907 496.545l.278-.403M531.907 496.544l-.039.039-.05.024-.046.008M531.332 496.59l.03-.037.044-.018.038-.007.328.087M531.089 497.016l.243-.425M531.09 497.016l-.032.05-.048.029-.047.008M530.499 497.176l.024-.04.037-.033.043-.01.36.011M530.315 497.615l.185-.439M530.315 497.615l-.031.05-.05.039-.045.016M530.145 497.73l.042-.011M527.403 501.45v-.04l.016-.047.03-.033.288-.247M527.523 501.802l-.12-.352M527.523 501.802v.048l-.016.058-.034.048M527.105 502.435l-.008-.041.016-.05.027-.04.333-.35M527.281 502.739l-.177-.304M527.281 502.739l.01.039-.011.054-.023.058M526.945 503.394l-.015-.032.007-.04.027-.047.293-.385M527.17 503.65l-.225-.255M527.17 503.65l.014.04v.048l-.023.057M526.913 504.323l-.016-.025v-.04l.016-.048.25-.415M527.21 504.53l.01.04v.038l-.017.043M527.016 505.187l-.024-.024v-.033l.01-.04.201-.44M527.243 505.97l-.018-.023-.008-.023.008-.04.146-.44M527.603 506.65l-.024-.022v-.051l.064-.317M528.075 507.219l-.018-.016-.007-.039.007-.173M530.732 509.164l.032.008.03-.008M528.65 507.66l-.018-.016-.007-.016M530.793 509.164l.131-.048M531.404 509.46l.03.007.041-.007M531.475 509.46l.264-.142M532.148 509.61l.024.009.032-.009.03-.014M532.235 509.596l.345-.25M532.945 509.61l.035.009.03-.009.034-.023M533.045 509.588l.352-.32M533.467 509.228l-.032.015-.039.024M533.788 509.46l.03.007.041-.015.031-.022M533.892 509.428l.32-.37M534.347 509.01h-.039l-.05.018-.046.03M534.347 509.01l.297.154M534.644 509.164h.04l.04-.017.033-.03M534.757 509.116l.278-.401M535.172 508.643l-.045.007-.05.026-.042.039M535.172 508.643l.328.081M535.499 508.724h.041l.041-.024.031-.04M535.612 508.66l.235-.425M535.98 508.146l-.049.016-.046.034-.038.038M535.981 508.146l.362.016M536.343 508.162l.036-.007.033-.033.032-.04M536.444 508.084l.185-.44M536.748 507.539l-.047.017-.04.039-.031.05M536.748 507.539l.376-.065M537.124 507.474l.04-.015.04-.03.015-.041M537.22 507.388l.13-.441M537.381 506.89l-.016.027-.014.029M537.46 506.82l-.025.007-.015.016M537.459 506.82l.394-.12M537.853 506.702l.038-.027.034-.04.015-.045M537.941 506.588l.066-.432M538.013 506.13v.009l-.008.017M538.111 506.019l-.019.007-.007.008M538.11 506.019l.383-.185M538.492 505.834l.043-.032.021-.04.016-.047M538.572 505.714l.008-.416M538.579 505.258v.04M538.663 505.156l-.016.014-.018.016M538.663 505.155l.373-.25M539.036 504.906l.041-.031.026-.05v-.039M539.103 504.786l-.048-.392M539.119 504.25l-.04.04-.024.058v.046M539.119 504.25l.361-.304M539.479 503.946l.029-.04.016-.046v-.041M539.524 503.819l-.11-.35M539.452 503.314l-.03.054-.016.05.009.049M539.452 503.314l.337-.346M539.79 502.97l.022-.04.019-.047-.011-.041M539.821 502.842l-.177-.303M539.679 502.386l-.035.056-.008.058.008.04M539.679 502.386l.293-.384M539.972 502.002l.027-.04v-.048l-.016-.031M539.983 501.883l-.219-.257M539.775 501.482l-.027.054-.007.056.023.032M539.775 501.482l.248-.416M540.021 501.067l.019-.04v-.041l-.027-.034M540.013 500.95l-.265-.19M539.733 500.625l-.016.058.008.047.023.032M539.733 500.626l.2-.431M539.935 500.195l.013-.041-.008-.04-.013-.024M539.565 499.834v.008M539.565 499.834l.152-.44M539.719 499.394l.008-.034-.008-.03-.019-.024M539.3 499.027l.075-.337M539.375 498.688l-.007-.037-.019-.035" style="fill:none;stroke:#00ff4a;stroke-width:.999997;stroke-linecap:round;stroke-linejoin:round;stroke-miterlimit:4;stroke-dasharray:none;stroke-opacity:1;visibility:visible"/><path d="m570.59 479.824-92.142-28.297M573.105 495.735l-55.194-16.447" style="fill:none;stroke:#00ff4a;stroke-width:1.99999;stroke-linecap:round;stroke-linejoin:round;stroke-miterlimit:4;stroke-dasharray:none;stroke-opacity:1;visibility:visible"/><path d="m445.143 438.812.16.099.185.079.19.056.219.032.211.014.215-.006.225-.016.224-.032.218-.048.217-.048.208-.056.215-.074.22-.07.216-.082.224-.08.224-.097.244-.103.246-.113.243-.112.239-.121.257-.127.259-.139.248-.136.233-.137M454.73 436.195l-.512.024-.531.067-.539.1-.537.146-.539.186-.538.226-.528.256-.524.296M454.73 436.195h.274l.256-.008h.587l.145-.007h.12l.096-.006.087-.01.057-.008.05-.025.016-.024M438.178 432.855l.026.319.056.285.08.241.112.214.15.201.101.097.103.088M438.806 434.3l6.337 4.514" style="fill:none;stroke:#00ff4a;stroke-width:.999997;stroke-linecap:round;stroke-linejoin:round;stroke-miterlimit:4;stroke-dasharray:none;stroke-opacity:1;visibility:visible"/><path d="m279.22 331.418-.292-.224-.271-.243-.255-.256-.244-.284-.225-.286-.208-.306-.186-.313-.166-.33-.146-.338-.137-.351-.113-.361-.087-.37-.075-.386-.054-.385-.031-.403-.016-.399.008-.405.03-.407.05-.411.072-.417.088-.418.113-.408.127-.411.155-.401.168-.402.193-.392.207-.394.225-.379.108-.167M457.63 460.514l67.29 48.236M279.22 331.418l34.31 24.83M327.471 366.335l115.213 83.37M456.418 436.028l79.652 56.007M296.386 323.447l141.84 99.787M438.836 300.443l-.658 132.41M457.727 312.911l-1.31 123.195" style="fill:none;stroke:#00ff4a;stroke-width:1.99999;stroke-linecap:round;stroke-linejoin:round;stroke-miterlimit:4;stroke-dasharray:none;stroke-opacity:1;visibility:visible"/><path d="m455.502 457.235.094.347.115.337M455.712 457.919l.186.448.216.419.238.402.275.368.299.339.329.313.344.28M455.502 457.235l-.064-.223-.056-.249-.074-.256-.072-.267-.064-.256-.072-.26-.072-.264-.078-.265-.075-.24-.072-.241-.073-.24-.074-.234-.076-.218-.082-.224-.08-.224-.09-.216-.102-.234-.106-.224-.112-.212-.12-.2-.137-.198-.145-.18-.152-.149-.162-.13M446.862 447.206l6.43 4.626M446.862 447.206l-.146-.087-.145-.076-.143-.048-.145-.021-.128-.01-.128.01-.12.016-.13.03-.119.056-.122.058-.126.086-.123.098" style="fill:none;stroke:#00ff4a;stroke-width:.999997;stroke-linecap:round;stroke-linejoin:round;stroke-miterlimit:4;stroke-dasharray:none;stroke-opacity:1;visibility:visible"/><path d="m457.63 460.514-.006-.008-.009-.008h-.01l-.005-.01M354.786 556.735l103.846-95.49M338.767 544.78l106.521-97.462" style="fill:none;stroke:#00ff4a;stroke-width:1.99999;stroke-linecap:round;stroke-linejoin:round;stroke-miterlimit:4;stroke-dasharray:none;stroke-opacity:1;visibility:visible"/><path d="m525.103 508.863-.183-.113-.656-.631-.557-.74-.447-.87-.29-.974-.184-1.029-.031-1.136" style="fill:none;stroke:#00ff4a;stroke-width:.999997;stroke-linecap:round;stroke-linejoin:round;stroke-miterlimit:4;stroke-dasharray:none;stroke-opacity:1;visibility:visible"/><path d="m536.543 492.312.321.194.663.608.55.764.453.87.283.947.16 1.055.011.354M529.532 509.618l-1.027.132-1.001-.024-.948-.186-.847-.312-.606-.365" style="fill:none;stroke:#00ff4a;stroke-width:1.99999;stroke-linecap:round;stroke-linejoin:round;stroke-miterlimit:4;stroke-dasharray:none;stroke-opacity:1;visibility:visible"/><path d="m522.755 503.37.11-1.16.259-1.185.372-1.189.503-1.185.63-1.161.742-1.104.812-1.003.901-.953.972-.818 1.027-.712 1.057-.576 1.057-.424 1.051-.29 1.059-.134.977.029.943.185.843.344.473.278M288 190.221l-.17-.143-.222-.15-.259-.132-.286-.104-.311-.084-.304-.059-.33-.027-.347-.009-.308.025-.302.051-.28.075-.257.085-.248.097-.227.139-.185.145-.155.167-.097.15-.076.162-.035.165-.006.176.017.151.072.176.095.139.128.148.144.125.177.11.213.107.228.096.25.07.25.038.264.038.28.021.299-.004.304-.023.299-.049.276-.052.264-.093.246-.1.228-.099.194-.141.186-.147.14-.167.095-.166.05-.187-.003-.181-.046-.191-.1-.172-.145-.176" style="fill:none;stroke:#00ff4a;stroke-width:.999997;stroke-linecap:round;stroke-linejoin:round;stroke-miterlimit:4;stroke-dasharray:none;stroke-opacity:1;visibility:visible"/><path d="m285.145 191.08.61.29.7-.375M453.501 286.565l-.17-.143-.222-.15-.259-.132-.286-.104-.311-.084-.304-.059-.33-.027-.347-.009-.308.025-.302.051-.28.075-.257.085-.248.097-.227.139-.185.145-.155.167-.097.15-.076.162-.035.165-.006.176.017.151.072.176.095.139.128.148.144.125.177.11.213.107.228.096.25.07.25.038.264.038.28.021.299-.004.304-.023.299-.049.276-.052.264-.093.246-.1.228-.099.194-.141.186-.147.14-.167.095-.166.05-.187-.003-.181-.046-.191-.1-.172-.145-.176" style="fill:none;stroke:#00ff4a;stroke-width:.999997;stroke-linecap:round;stroke-linejoin:round;stroke-miterlimit:4;stroke-dasharray:none;stroke-opacity:1;visibility:visible"/><path d="m450.646 287.423.61.29.7-.375M316.443 354.5l-.193 7.66M287.363 214.008l-6.828 4.237M281.533 321.57l4.028-.83" style="fill:none;stroke:#00ff4a;stroke-width:.999997;stroke-linecap:round;stroke-linejoin:round;stroke-miterlimit:4;stroke-dasharray:none;stroke-opacity:1;visibility:visible"/><path d="m311.73 358.642 1.8-2.394M446.862 447.206l-4.178 2.499M438.806 434.3l-.58-11.066M445.287 447.318l13.345 13.927M530.204 508.73l-.672.888" style="fill:none;stroke:#00ff4a;stroke-width:1.99999;stroke-linecap:round;stroke-linejoin:round;stroke-miterlimit:4;stroke-dasharray:none;stroke-opacity:1;visibility:visible"/><path d="m282.797 187.338 2.348 3.742M450.246 284.008l.4 3.415" style="fill:none;stroke:#00ff4a;stroke-width:.999997;stroke-linecap:round;stroke-linejoin:round;stroke-miterlimit:4;stroke-dasharray:none;stroke-opacity:1;visibility:visible"/><path d="m646.414 525.076-.393-.232-.41-.184-.439-.145-.457-.096-.477-.05-.496-.008-.514.043-.522.086-.53.129-.539.178-.537.216-.546.257-.538.305-.528.345-.524.377-.514.41-.505.45-.484.481-.464.507-.443.535-.416.56-.393.575-.361.593-.338.61-.298.619-.274.627-.232.626-.192.633-.16.627-.12.618-.09.61-.04.602-.007.587.039.561.073.54.112.519.153.492.186.456.224.425.264.397.29.351.327.313.356.272M457.144 360.818l.636 1.036.594 1.068.57 1.084.53 1.116.496 1.14.466 1.164.435 1.179.393 1.205.37 1.221.328 1.246.297 1.26.257 1.277.232 1.299.186 1.31.16 1.323.121 1.333.089 1.351.046 1.364.017 1.372-.017 1.381-.055 1.39-.088 1.398-.12 1.397-.161 1.412-.194 1.412M392.679 448.914l-1.09-.336-1.078-.379-1.067-.419M429.668 440.211l-1.212.657-1.21.62-1.222.576-1.237.547-1.237.505-1.238.474-1.242.426-1.246.394-1.242.353-1.246.312-1.245.275-1.244.224-1.237.193-1.238.152-1.229.103-1.219.065-1.21.033-1.206-.024-1.198-.056-1.176-.096-1.174-.146-1.157-.186-1.14-.221-1.133-.267-1.108-.304M457.039 371.063l.505 1.059.467 1.084.435 1.103.4 1.13.37 1.156.328 1.175.29 1.185.256 1.215.225 1.219.185 1.245.144 1.259.11 1.277.085 1.284.039 1.292v1.31l-.034 1.316-.07 1.325-.104 1.333-.147 1.34-.177 1.351-.216 1.339-.25 1.357-.285 1.351-.323 1.348-.354 1.348-.392 1.348-.42 1.35-.456 1.341-.498 1.333-.524 1.332M399.423 444.819l-1.052-.337-1.044-.372-1.01-.407-1.006-.45-.977-.49-.956-.523-.939-.553-.916-.593-.892-.635-.867-.667-.836-.698-.817-.731-.787-.768-.762-.805-.732-.828-.707-.866-.673-.889-.644-.927-.61-.954-.585-.98-.548-1.01-.52-1.041-.481-1.064-.45-1.084-.418-1.11M396.812 448.047l-.697-.185-.699-.194M395.418 447.668l-1.14-.36-1.134-.402-1.106-.45-1.084-.481-1.07-.523-1.042-.562-1.02-.602-.995-.633-.973-.681" style="fill:none;stroke:#9500ff;stroke-width:.999997;stroke-linecap:round;stroke-linejoin:round;stroke-miterlimit:4;stroke-dasharray:none;stroke-opacity:1;visibility:visible"/><path d="m427.146 443.775-1.276.681-1.284.644-1.284.611-1.302.577-1.3.539-1.302.505-1.308.468-1.316.423-1.308.395-1.319.352-1.308.314-1.316.272-1.31.242-1.299.192-1.309.16-1.295.12-1.292.073-1.288.041h-1.264l-1.271-.049-1.25-.08-1.245-.12-1.237-.163-1.213-.208-1.203-.24-1.188-.28-1.183-.33" style="fill:none;stroke:#9500ff;stroke-width:.999997;stroke-linecap:round;stroke-linejoin:round;stroke-miterlimit:4;stroke-dasharray:none;stroke-opacity:1;visibility:visible"/><path d="m472.152 413.192-.37 1.004-.433 1.132-.449 1.124-.475 1.124-.497 1.116-.507 1.108-.529 1.091-.555 1.1-.562 1.085-.36.658M381.726 405.518l-.138.544-.27 1.18-.25 1.181-.233 1.172-.201 1.18-.184 1.183-.152 1.17-.138 1.164-.104 1.174-.086 1.153-.066 1.157-.032 1.148-.016 1.134.008 1.13.04 1.123.056 1.11.08 1.109.103 1.09.13 1.091.152 1.077.177 1.062.202 1.058.224 1.036.24 1.028.274 1.012.288 1.004.313.979.339.972.352.947.376.938.404.927.425.905.44.891.467.868.481.857.507.836.53.82.547.794.561.778.586.755.602.737.595.686.61.672.622.642.645.636.659.61.675.586.69.57.7.554M438.508 353.471l-.224.009-1.044.065-1.044.088-1.045.11-1.051.147-1.051.168-1.051.192-1.062.216-1.066.241-1.068.274-1.06.298-1.075.319-1.071.352-1.065.371-1.059.405-1.07.424-1.06.44-1.052.471-1.051.501-1.053.514-1.042.546-1.044.57-1.037.593-1.027.611-1.028.642-1.02.66-1.01.681-1.006.699-.988.73-.978.741-.971.768-.964.78-.948.802-.94.828-.93.85-.924.859-.906.885-.892.897-.875.925-.868.93-.85.949-.836.972-.819.979-.803.987-.778 1.013-.772 1.017-.754 1.04-.738 1.048-.715 1.068-.707 1.077-.682 1.083-.659 1.1-.65 1.1-.419.756" style="fill:none;stroke:#9500ff;stroke-width:1.99999;stroke-linecap:round;stroke-linejoin:round;stroke-miterlimit:4;stroke-dasharray:none;stroke-opacity:1;visibility:visible"/><path d="m431.355 441.431-.73.441-.99.57-.993.546-.995.53-1.005.506-1.012.482-1.02.457-1.02.443-1.02.408-1.026.394-1.028.368-1.028.339-1.044.321-1.036.298-1.045.273-1.041.25-1.046.213-1.042.202-1.044.17-1.035.145-1.045.119-1.036.096-1.026.065-1.045.047-1.044.016-1.044-.016-1.036-.032-1.027-.072-1.028-.088-1.021-.12-1.01-.152-1.006-.169-.995-.211-.978-.223M457.11 364.111l.115.184.498.85.48.87.459.875.434.899.41.913.393.925.368.93.337.956.33.956.299.971.273.978.254.997.232 1.003.21 1.012.185 1.03.168 1.026.137 1.044.12 1.052.098 1.053.072 1.06.046 1.067.035 1.075v1.076l-.017 1.085-.04 1.092-.063 1.107-.083 1.108-.112 1.107-.128 1.118-.152 1.116-.177 1.124-.201 1.116-.226 1.116-.238 1.124-.266 1.116-.28 1.108-.314 1.106-.331 1.118-.345 1.11-.376 1.103-.395 1.111-.409 1.108-.44 1.092-.45 1.092-.484 1.092-.49 1.074-.456.956" style="fill:none;stroke:#9500ff;stroke-width:.999997;stroke-linecap:round;stroke-linejoin:round;stroke-miterlimit:4;stroke-dasharray:none;stroke-opacity:1;visibility:visible"/><path d="m646.414 525.076.25.179.25.175.231.193.241.192.226.21.217.209.217.215.208.224.2.234.196.233.182.24.176.25.169.259.17.256.15.265.145.263.136.274.128.281.122.275.105.286.103.283.097.295.079.292.074.296.064.297.056.295.05.3.03.305.032.295.016.306.008.307-.008.295-.008.305-.022.307-.035.297-.04.304-.045.296-.058.297-.072.289-.081.3-.08.284-.103.283-.105.288-.113.275-.12.281-.138.266-.136.272-.152.258-.152.255-.169.258-.177.247-.176.243-.192.23-.194.227-.208.224-.21.216-.216.21-.227.201-.23.2-.232.185-.243.177-.247.175-.259.162-.256.16-.264.145-.276.145-.272.128-.273.122-.281.11-.288.107-.282.096-.297.087-.29.081-.295.063-.298.056-.305.057-.296.032-.307.032-.304.024-.298.01h-.304l-.306-.011-.304-.014-.305-.024-.307-.042-.296-.039-.306-.056-.296-.063-.298-.073-.288-.09-.29-.086-.287-.104-.29-.113-.283-.112-.271-.13-.281-.135-.264-.147-.267-.159-.256-.161-.256-.17M567.393 493.94l68.263 46.953M466.844 424.77l60.66 41.726M473.484 409.066l172.93 116.01M472.152 413.192l1.139.771" style="fill:none;stroke:#9500ff;stroke-width:1.99999;stroke-linecap:round;stroke-linejoin:round;stroke-miterlimit:4;stroke-dasharray:none;stroke-opacity:1;visibility:visible"/><path d="m469.003 424.248.15.04.14.016.137-.006.127-.026.121-.038.112-.048.106-.076.104-.079.095-.088.088-.096.096-.104.09-.121.086-.127.089-.137.09-.146.086-.16.097-.184.098-.193.095-.201.097-.21.103-.246.105-.25.097-.258.096-.264M472.465 419.239l-.28.488-.25.499-.224.504-.202.514M472.465 419.24l.17-.285.158-.288.154-.29.153-.297.128-.272.128-.272.115-.266.101-.256.09-.234.072-.232.066-.217.056-.208.047-.2.032-.195.024-.198.008-.194-.008-.193-.024-.19-.042-.187-.063-.176-.097-.18-.12-.166-.142-.144-.181-.138" style="fill:none;stroke:#9500ff;stroke-width:.999997;stroke-linecap:round;stroke-linejoin:round;stroke-miterlimit:4;stroke-dasharray:none;stroke-opacity:1;visibility:visible"/><path d="m376.01 379.398.36-.641.644-1.1.658-1.094.683-1.082.697-1.078.715-1.058.74-1.055.747-1.033.77-1.028.787-1.014.803-.993.818-.982.835-.962.85-.948.861-.93.875-.917.893-.9.904-.873.917-.868.93-.843.941-.826.955-.811.973-.788.97-.76.986-.75.988-.721 1.005-.706 1.01-.677 1.014-.657 1.027-.642 1.036-.612 1.036-.592 1.044-.57 1.052-.547 1.058-.52 1.06-.499 1.068-.475 1.07-.448 1.068-.425 1.068-.403 1.066-.37 1.068-.352 1.078-.322 1.066-.306 1.076-.271 1.076-.251 1.068-.215 1.067-.2 1.069-.17 1.057-.145 1.061-.121 1.054-.086 1.051-.066 1.035-.041 1.037-.015 1.027.011 1.02.037 1.02.064 1.01.09.996.119.996.138.988.169.97.19.958.219.955.239.755.218M381.775 443.944l-.748-.586-.737-.61-.715-.636-.708-.649-.681-.683-.667-.698-.649-.723-.636-.736-.609-.765-.596-.779-.569-.793-.553-.819-.532-.836-.505-.851-.49-.861-.466-.889-.44-.902-.427-.92-.401-.933-.386-.957-.36-.963-.338-.975-.314-1-.288-1.01-.272-1.02-.25-1.028-.224-1.052-.202-1.06-.177-1.069-.15-1.084-.131-1.089-.112-1.111-.079-1.115-.063-1.123-.033-1.125-.017-1.14.017-1.147.033-1.15.063-1.147.079-1.166.105-1.164.137-1.17.151-1.175.177-1.179.202-1.188.232-1.18.25-1.188.274-1.189.208-.867M439.168 452.751l-.57.307-1.012.537-1.02.513-1.026.499-1.028.475-1.03.448-1.042.425-1.036.401-1.044.386-1.044.361-1.052.33-1.044.313-1.042.288-1.052.265-1.043.232-1.037.22-1.044.19-1.036.161-1.044.146-1.035.111-1.028.088-1.027.073-1.028.04-1.021.015-1.01-.005-1.013-.04-1.004-.06-.988-.087-.985-.104-.973-.136-.972-.16-.963-.185-.956-.21-.94-.238-.93-.26-.923-.289-.916-.311-.902-.331-.888-.361-.877-.384-.856-.411-.852-.425-.779-.434-.772-.442-.754-.474-.747-.48-.73-.514-.723-.532M467.415 423.734l-.226.418-.609 1.078-.628 1.057-.632 1.06-.66 1.044-.682 1.035-.691 1.021-.707 1.019-.722.996-.74.988-.752.972-.763.961-.788.95-.707.826M459.32 357.768l.795.522.787.544.762.572.747.593.737.619.716.632.699.66.673.673.667.698.633.725.628.737.601.755.58.772.559.787.541.813.512.816.5.844.481.859.458.876.444.89.407.907.401.925.37.93.35.948.332.962.305.973.288.99.267.994.239 1.019.225 1.02.203 1.035.173 1.052.155 1.052.125 1.07.113 1.072.09 1.085.065 1.085.04 1.09.017 1.111v1.099l-.025 1.114-.048 1.126-.072 1.122-.09 1.134-.11 1.14-.14 1.14-.159 1.14-.184 1.14-.2 1.148-.226 1.148-.24 1.141-.266 1.141-.288 1.146-.314 1.141-.328 1.15-.355 1.139-.37 1.14-.392 1.14-.047.128M459.319 357.767l-2.127-1.35M393.33 452.702l-11.554-8.759M469.003 424.248l-1.588-.514" style="fill:none;stroke:#9500ff;stroke-width:1.99999;stroke-linecap:round;stroke-linejoin:round;stroke-miterlimit:4;stroke-dasharray:none;stroke-opacity:1;visibility:visible"/><path d="m395.418 447.668-5.974.112M472.152 413.192l-15.524-4.024M381.775 443.944l4.079-.97M467.415 423.734l-10.825-10.422" style="fill:none;stroke:#9500ff;stroke-width:.999997;stroke-linecap:round;stroke-linejoin:round;stroke-miterlimit:4;stroke-dasharray:none;stroke-opacity:1;visibility:visible"/><path d="m473.291 413.963-6.447 10.807M473.291 413.963l.193-4.897" style="fill:none;stroke:#9500ff;stroke-width:1.99999;stroke-linecap:round;stroke-linejoin:round;stroke-miterlimit:4;stroke-dasharray:none;stroke-opacity:1;visibility:visible"/><path d="m325.683 364.865-17.326-7.002" style="fill:none;stroke:red;stroke-width:.999997;stroke-linecap:round;stroke-linejoin:round;stroke-miterlimit:4;stroke-dasharray:none;stroke-opacity:1;visibility:visible"/><path d="m442.684 449.705-13.016-9.494M442.684 449.705l-15.538-5.93M442.684 449.705l-11.329-8.274" style="fill:none;stroke:#9500ff;stroke-width:.999997;stroke-linecap:round;stroke-linejoin:round;stroke-miterlimit:4;stroke-dasharray:none;stroke-opacity:1;visibility:visible"/><path d="m577.9 484.644-10.507 9.296M442.684 449.705l-3.516 3.046" style="fill:none;stroke:#9500ff;stroke-width:1.99999;stroke-linecap:round;stroke-linejoin:round;stroke-miterlimit:4;stroke-dasharray:none;stroke-opacity:1;visibility:visible"/></svg>