<svg xmlns="http://www.w3.org/2000/svg" baseProfile="full" height="1122.52" preserveAspectRatio="xMinYMin meet" style="width:919px;height:1159px" width="793.701" xml:space="preserve"><path d="m207.618 789.66-.03.142-.064.13-.081.094-.101.076-.115.039-.129.016-.135-.017-.14-.05-.145-.071-.138-.098-.129-.119-.12-.13-.116-.163-.102-.179-.1-.183-.083-.206-.06-.181-.055-.18-.04-.183-.028-.183-.014-.183-.007-.159.007-.16.014-.135.027-.112.041-.1.047-.087.052-.062.073-.036.071-.024.084.004.084.024.105.046.116.07.12.097.124.112.116.124.123.141.123.158.113.179.124.196.112.209.096.196.073.21.06.198.033.2.006.18-.012.16M162 760.18l-.14-.098-.162-.132-.188-.138-.196-.154-.194-.164-.198-.17-.194-.18-.198-.19-.16-.177-.157-.17-.13-.174-.105-.161-.082-.156-.066-.146-.04-.132-.017-.106.007-.08.025-.066.041-.041.066-.025h.073l.09.034.099.048.114.066.114.096.122.114.12.13.141.158.132.162.129.172.13.17.13.18.139.204.139.196.13.187.123.18.113.163.1.146.089.132.079.114.068.097.031.067.016.037-.008.01-.04-.009-.065-.038-.098-.067-.122-.09M126.608 719.865l-.106-.097-.074-.108-.032-.12-.008-.123.04-.13.065-.121.107-.126.138-.114.155-.094.187-.082.196-.065.204-.05.228-.03.237-.012h.245l.244.025.211.024.205.043.204.047.188.065.179.067.155.072.138.073.116.065.08.074.064.076.042.072.016.074-.007.064-.041.066-.058.066-.089.054-.123.068-.146.065-.163.056-.188.056-.196.05-.219.05-.229.041-.228.03-.27.032-.252.02-.245.006-.236-.014-.221-.026-.204-.048-.17-.058-.141-.083" style="fill:none;stroke:red;stroke-width:.999997;stroke-linecap:round;stroke-linejoin:round;stroke-miterlimit:4;stroke-dasharray:none;stroke-opacity:1;visibility:visible"/><path d="m117.229 729.14-.293-.227-.278-.247-.26-.261-.245-.285-.23-.294-.21-.312-.187-.316-.172-.336-.146-.341-.14-.357-.114-.368-.089-.376-.073-.391-.058-.39-.033-.409-.016-.408.008-.408.033-.416.05-.416.073-.424.091-.425.111-.416.131-.416.155-.405.172-.408.195-.4.213-.402.23-.384.241-.372.262-.358.276-.354.295-.332.31-.326.319-.312.334-.292.342-.278.351-.252.367-.246.374-.22.375-.196.392-.186.39-.154.395-.139.398-.115.4-.097.4-.076.398-.047.4-.024h.391l.392.016.384.04.375.064.376.09.358.116.318.114.3.132.304.154.284.162.277.188M117.229 729.14l161.317 116.613M287.715 852.403l80.47 58.147M126.925 715.601l253.39 178.45" style="fill:none;stroke:red;stroke-width:1.99999;stroke-linecap:round;stroke-linejoin:round;stroke-miterlimit:4;stroke-dasharray:none;stroke-opacity:1;visibility:visible"/><path d="m377.507 897.404-.357.324M377.62 897.397l-.032-.016h-.041l-.04.024M377.823 897.67l.033.028h.047l.05-.028M377.823 897.67l-.203-.273M377.676 897.478l.276.192M378.332 897.397l-.38.273M378.43 897.413l-.024-.025-.033-.007-.04.016M378.585 897.737l.03.032.043.01.047-.018M378.585 897.737l-.155-.324M378.543 897.647l.161.113M379.095 897.55l-.39.21M379.193 897.585l-.025-.035-.031-.016-.041.016M379.28 897.947l.027.04.04.016.048-.008M379.28 897.947l-.087-.361M379.272 897.915l.123.08M379.783 897.85l-.388.144M379.848 897.85l-.03-.008-.035.008M379.897 898.305l.017.039.032.025.048.01M379.897 898.305l-.032-.4M379.905 898.314l.09.065M380.384 898.296l-.39.083M379.874 897.932l.51.364M380.423 898.305l-.016-.01h-.023M380.423 898.79l.008.05.024.033.043.008M380.423 898.79l.017-.236M380.423 898.831l.075.05M380.871 898.872l-.373.008M380.44 898.564l.43.308M380.902 898.88l-.016-.008h-.015M380.83 899.398v.057l.024.034.033.022M380.83 899.398l.024-.105M380.837 899.48l.05.03M381.236 899.57l-.35-.057M380.853 899.3l.383.268M381.26 899.575l-.008-.005h-.016M381.122 900.12l-.01.05.018.038.03.032M381.137 900.225l.025.016M381.478 900.371l-.316-.13M381.122 900.12l.356.25M381.486 900.371h-.008M375.262 909.855h0l.008.005M374.945 909.628l.316.227M375.001 909.643l.26.212M375.001 909.633v.01M375.001 909.643l-.023-.015h-.033M374.41 910v.01l.008.007M374.053 909.749l.357.25M374.2 909.733l.21.267M374.165 909.707l.033.025M374.2 909.733l-.033-.025h-.048l-.05.025M374.046 909.749l.024-.016M373.592 909.992l.008.016.007.008M373.194 909.707l.399.285M373.437 909.666l.155.327M373.38 909.628l.057.037M373.437 909.666l-.032-.032-.041-.005-.05.014M373.194 909.716l.121-.073M372.83 909.83l.008.016.017.015M372.384 909.506l.445.324M372.74 909.466l.09.364M372.659 909.408l.081.057M372.74 909.466l-.024-.041-.04-.016-.05.006M372.148 909.514l.008.024.017.025M372.116 909.109l.032.405M372.017 909.046l.099.063M372.116 909.109l-.017-.04-.032-.023h-.042M371.638 909.125l.387-.08M371.565 909.06l.008.03.024.026.041.008M371.598 908.63l-.032.43M371.467 908.542l.13.087M371.598 908.63l-.01-.048-.031-.033-.04-.016M371.143 908.548l.373-.016M371.086 908.469v.041l.025.032.032.007M371.176 908.022l-.09.447M370.997 907.893l.179.13M371.176 908.022v-.048l-.016-.037-.041-.02M370.77 907.852l.348.065M370.73 907.755v.048l.008.033.032.016M370.884 907.308l-.153.447M370.535 907.057l.35.25M370.884 907.308l.008-.056-.016-.041-.032-.023M370.527 907.057l.316.13M370.503 906.953l-.008.04.008.041.025.024M370.714 906.506l.008-.053v-.051l-.024-.033M370.714 906.506l-.21.447M370.423 906.175l.275.193M370.413 906.06l-.016.052v.039l.027.025M370.673 905.641l.017-.059.008-.048-.025-.042M370.673 905.641l-.26.417M370.447 905.234l.227.257M370.462 905.111l-.024.041-.007.05.015.032M370.763 904.715l.032-.05.008-.054-.015-.05M370.763 904.715l-.301.396M370.617 904.252l.17.31M370.648 904.132l-.03.04-.011.048.01.032M370.98 903.777l.04-.05.017-.06-.009-.047M370.98 903.777l-.332.355M370.915 903.265l.113.356M370.965 903.135l-.033.041-.016.039v.05M369.142 901.377l.073-.057M371.33 902.827l-.364.308M369.288 901.165l-.008.05-.024.054-.041.05M371.33 902.827l.041-.05.024-.047v-.058M369.288 901.165l-.057-.397M371.337 902.275l.057.397M369.23 900.768v-.039l.025-.05.04-.032M371.402 902.155l-.03.032-.027.05-.008.038M369.296 900.647l.381-.25M371.792 901.904l-.39.25M369.766 900.24l-.016.057-.032.056-.04.043M371.792 901.904l.04-.043.035-.056.008-.046M369.766 900.24v-.42M371.881 901.327l-.008.43M369.766 899.82l.017-.043.023-.046.04-.026M371.962 901.215l-.041.03-.032.04-.008.042M369.845 899.706l.399-.195M372.36 901.019l-.399.196M370.341 899.374l-.016.057-.041.05-.04.032M372.36 901.019l.039-.03.042-.05.015-.057M370.341 899.374l.072-.437M372.53 900.445l-.073.437M370.413 898.936l.019-.05.03-.038.04-.025M372.619 900.331l-.04.023-.033.042-.015.048M370.503 898.823l.39-.121M373.007 900.21l-.388.123M371.013 898.572l-.032.057-.04.046-.05.026M373.007 900.21l.05-.032.04-.041.033-.056M371.013 898.572l.13-.447M373.26 899.633l-.13.447M371.143 898.125l.017-.04.04-.041.04-.016M373.357 899.537l-.041.016-.042.033-.014.047M371.24 898.028l.34-.048M373.737 899.48l.05-.016.049-.041.032-.058M373.737 899.48l-.38.056M374.053 898.928l-.187.437M374.159 898.84l-.04.016-.043.025-.022.048M374.525 898.855l.05-.007.046-.034.04-.046M374.525 898.855l-.365-.016M374.896 898.337l-.236.432M375.01 898.272h-.041l-.04.025-.034.04M375.35 898.354h.04l.048-.025.041-.05M375.35 898.354l-.34-.083M375.77 897.874l-.292.405M375.885 897.836l-.041-.01-.042.017-.032.03M376.184 897.98l.041.007.048-.015.05-.041M376.184 897.98l-.299-.144M376.647 897.566l-.324.365M376.76 897.535l-.03-.008-.042.008-.041.03M377.02 897.753l.04.016.043-.01.048-.031M377.02 897.753l-.259-.219M373.574 904.262l-.063 1.508M379.346 902.252l-5.772 2.01M379.28 903.759l.067-1.507M373.512 905.77l5.768-2.01M370.284 899.488l.041-.065M375.034 896.23l.357-.324M375.39 895.906l.032-.024.033-.01.032.01M375.86 896.147l.35-.25M376.21 895.897l.032-.015h.032l.025.006M376.72 896.188l.26-.137M376.98 896.051l.03-.016.043.016M377.54 896.4l.13-.047M377.668 896.352l.03-.01.027.015M379.865 897.9l-.007-.025-.01-.023M379.865 897.906v-.007M380.448 898.361v-.032l-.025-.024M380.44 898.554l.008-.193M380.927 898.953l-.008-.041-.017-.031M380.853 899.293l.075-.34M381.276 899.666l.008-.033-.008-.031-.017-.027M381.122 900.111h0v.01M381.122 900.111l.153-.445M381.493 900.475l.016-.039-.008-.04-.016-.025M381.293 900.914l-.017.057.008.048.025.032M381.293 900.914l.2-.439M381.574 901.246l-.265-.195M381.582 901.361l.019-.043v-.04l-.027-.032M381.332 901.782l-.024.057-.007.056.023.032M381.332 901.782l.25-.42M381.543 902.187l-.219-.26M381.534 902.308l.025-.04v-.048l-.016-.033M381.236 902.697l-.033.056-.008.057.008.04M381.236 902.697l.299-.39M381.381 903.159l-.18-.308M381.348 903.288l.027-.04.014-.048-.008-.041M381.008 903.639l-.032.055-.016.049.008.05M381.008 903.639l.34-.35M381.08 904.147l-.113-.355M381.033 904.279l.032-.043.016-.048v-.041M380.668 904.586l-.04.04-.025.057v.048M380.668 904.586l.364-.307M380.652 905.13l-.05-.399M380.586 905.25l.041-.03.026-.051v-.039M380.206 905.503l-.016.017-.016.015M380.206 905.503l.38-.252M380.124 905.608v.039M380.116 906.07l.008-.423M380.034 906.19l.041-.03.024-.04.018-.05M379.647 906.379l-.019.005-.008.01M379.647 906.379l.387-.19M379.55 906.49v.008l-.01.017M379.475 906.953l.065-.437M379.385 907.066l.04-.024.035-.043.014-.046M378.988 907.188l-.024.008-.016.015M378.988 907.188l.397-.123M378.909 907.26l-.016.024-.017.032M378.746 907.765l.13-.448M378.648 907.852l.04-.016.043-.033.014-.038M378.267 907.917l-.047.019-.041.038-.03.048M378.267 907.917l.381-.065M377.96 908.469l.19-.447M377.857 908.548l.037-.005.034-.034.032-.041M377.49 908.532l-.05.016-.047.035-.042.038M377.49 908.532l.365.016M377.117 909.053l.236-.43M377.004 909.117h.041l.042-.025.03-.039M376.673 909.035l-.05.01-.049.023-.04.04M376.673 909.035l.33.081M376.25 909.514l.284-.405M376.137 909.563h.039l.041-.016.033-.033M375.836 909.408h-.04l-.05.016-.049.035M375.836 909.408l.301.155M375.374 909.83l.324-.372M375.27 909.86l.03.01.042-.015.032-.026" style="fill:none;stroke:red;stroke-width:.999997;stroke-linecap:round;stroke-linejoin:round;stroke-miterlimit:4;stroke-dasharray:none;stroke-opacity:1;visibility:visible"/><path d="m374.945 909.628-.033.015-.04.022M374.517 909.992l.356-.327M374.418 910.016l.032.008.033-.008.034-.024M373.697 910l.35-.25M373.607 910.016l.025.008.032-.008.032-.017M372.927 909.86l.267-.144M372.854 909.86l.032.01.041-.01M372.237 909.563l.132-.05M370.065 908.038l-.016-.016-.01-.016M372.173 909.563l.032.01.032-.01M369.482 907.593l-.019-.016-.006-.04.006-.179M369.004 907.019l-.025-.027v-.046l.065-.326M368.64 906.329l-.017-.024-.008-.024.008-.04.146-.447M368.411 905.535l-.025-.025v-.034l.009-.04.204-.445M368.607 904.87l.008.04v.04l-.016.041M368.306 904.659l-.016-.025v-.04l.016-.05.25-.421M368.565 903.978l-.225-.26M368.565 903.978l.017.041v.047l-.025.057M368.34 903.718l-.016-.032.008-.039.024-.05.299-.39M368.68 903.053l-.18-.305M368.68 903.053l.008.04-.008.056-.025.057M368.5 902.747l-.008-.043.016-.048.025-.042.34-.355M368.922 902.105l-.121-.356M368.922 902.105v.05l-.015.057-.033.048M368.8 901.749v-.04l.016-.05.033-.03.292-.252M371.58 897.98l.041-.008M371.751 897.865l.188-.445M371.751 897.865l-.032.05-.05.04-.047.017M371.939 897.42l.024-.039.039-.034.041-.007.365.007M372.538 897.258l.244-.43M372.538 897.258l-.033.05-.048.031-.05.007M372.781 896.828l.03-.04.043-.016.04-.008.332.09M373.365 896.78l.283-.407M373.365 896.78l-.04.041-.05.022-.049.01M373.647 896.374l.041-.032.042-.016h.032l.306.155M374.2 896.432l.333-.365M374.2 896.432l-.04.04-.048.019-.043-.01M374.533 896.066l.03-.03.043-.007.031.006M375.034 896.23l-.032.025-.041.007M375.488 895.882l.372.265M376.3 895.887l.42.301M377.053 896.051l.485.348M377.725 896.358l2.123 1.493M380.44 898.554l.463.327M380.853 899.293l.407.281M381.122 900.12l.363.25M374.945 909.628l.324.232M374.046 909.749l.372.268M373.194 909.716l.413.3M372.369 909.514l.485.347M370.065 908.038l2.108 1.525M369.482 907.593l.559.413M369.004 907.019l.46.339M368.64 906.329l.405.292M368.411 905.535l.357.259M368.306 904.659l.301.21M374.637 896.035l.324.227M380.173 905.535l-.032.047-.017.026M379.621 906.394l-.072.09M378.948 907.21h-.008l-.03.05M366.568 909.361l-.153-.092-.663-.639-.56-.744-.45-.878-.294-.982-.185-1.038-.03-1.143" style="fill:none;stroke:red;stroke-width:.999997;stroke-linecap:round;stroke-linejoin:round;stroke-miterlimit:4;stroke-dasharray:none;stroke-opacity:1;visibility:visible"/><path d="m371.066 910.145-1.035.135-1.01-.027-.955-.188-.855-.316-.644-.387M378.626 893.042l.5.46.556.77.455.878.286.955.131.856" style="fill:none;stroke:red;stroke-width:1.99999;stroke-linecap:round;stroke-linejoin:round;stroke-miterlimit:4;stroke-dasharray:none;stroke-opacity:1;visibility:visible"/><path d="m364.233 903.846.108-1.17.265-1.195.374-1.202.506-1.192.636-1.17.747-1.114.82-1.012.907-.961.98-.824 1.037-.716 1.065-.584 1.066-.424 1.061-.296 1.067-.135.985.031.95.187.853.342.797.476.17.155" style="fill:none;stroke:red;stroke-width:.999997;stroke-linecap:round;stroke-linejoin:round;stroke-miterlimit:4;stroke-dasharray:none;stroke-opacity:1;visibility:visible"/><path d="m292.43 832.305 86.028 60.583M294.806 857.505l71.608 51.765" style="fill:none;stroke:red;stroke-width:1.99999;stroke-linecap:round;stroke-linejoin:round;stroke-miterlimit:4;stroke-dasharray:none;stroke-opacity:1;visibility:visible"/><path d="m126.925 715.602-.319 4.263" style="fill:none;stroke:red;stroke-width:.999997;stroke-linecap:round;stroke-linejoin:round;stroke-miterlimit:4;stroke-dasharray:none;stroke-opacity:1;visibility:visible"/><path d="m287.715 852.403-9.169-6.65M278.546 845.753l9.169 6.65M366.567 909.362l1.618 1.188M377.725 896.358l2.59-2.307M371.638 909.125l-.572 1.02M379.865 897.905l.689-.944M278.546 845.753l13.884-13.448" style="fill:none;stroke:red;stroke-width:1.99999;stroke-linecap:round;stroke-linejoin:round;stroke-miterlimit:4;stroke-dasharray:none;stroke-opacity:1;visibility:visible"/><path d="m273.723 878.768.188.53.228.498.261.472.31.433.341.399.375.359.401.318M277.31 882.152l-.064.05-.083.031-.097.018-.099.009-.105-.01-.113-.017-.124-.038-.13-.043-.148-.065-.153-.082-.18-.105-.187-.121M168.124 982.554l.107-.113.098-.132.074-.139.065-.145.05-.155.03-.164.025-.161.01-.18-.01-.198-.033-.194-.04-.238-.073-.228M165.98 977.376l-.196-.113-.213-.115-.235-.121-.245-.123-.236-.115-.244-.105-.255-.115-.25-.112-.238-.101-.245-.105-.236-.098-.238-.097-.228-.092-.228-.096-.229-.099-.235-.106-.246-.106-.236-.113-.236-.115-.222-.114-.226-.139-.206-.13-.186-.138-.155-.139M165.98 977.376l.416.277.39.319.36.343.326.384.295.406.26.44.22.466.178.497M159.178 973.43l1.339 1.24M160.517 974.669l110.89-101.69" style="fill:none;stroke:#00ff4a;stroke-width:.999997;stroke-linecap:round;stroke-linejoin:round;stroke-miterlimit:4;stroke-dasharray:none;stroke-opacity:1;visibility:visible" visibility="hidden"/><path d="m273.723 878.768 3.147 2.39M264.98 868.14l6.425 4.837M264.98 868.14l-.139-.097-.156-.071-.137-.05-.139-.033-.129-.009h-.132l-.123.017-.122.031-.13.05-.113.065-.132.081-.115.099M273.64 878.507l.04.13.043.131M273.64 878.507l-.056-.235-.075-.246-.064-.262-.074-.269-.074-.261-.073-.26-.072-.27-.083-.268-.073-.253-.073-.245-.074-.236-.073-.246-.081-.226-.083-.23-.08-.228-.09-.221-.107-.236-.106-.228-.114-.22-.114-.204-.138-.204-.147-.19-.156-.16-.155-.13M276.87 881.158l.139.104.114.116.09.096.073.099.056.09.035.079.022.083.008.074v.074l-.014.065-.034.056-.049.059M166.65 982.48l.139.115.137.089.139.067.13.046.122.026.124.01.122-.01.114-.026.113-.032.115-.05.114-.07.104-.092M154.587 969.173l-.115-.124-.105-.121-.073-.115-.058-.107-.032-.096-.024-.098-.009-.091.01-.088.015-.092.031-.07.057-.083.058-.074M154.587 969.173l4.59 4.256M159.178 973.43l.107.376.114.373.104.336.107.326.107.31.114.302.114.285.13.277.139.27.147.244.178.244.18.197 5.931 5.512M154.342 968.014l109.072-99.79M168.124 982.554 277.31 882.152" style="fill:none;stroke:#00ff4a;stroke-width:1.99999;stroke-linecap:round;stroke-linejoin:round;stroke-miterlimit:4;stroke-dasharray:none;stroke-opacity:1;visibility:visible" visibility="hidden"/><path d="m287.092 671.837.18.099.195.116.21.118.23.139.22.139.236.138.237.147.244.139.23.138.227.124.228.127.23.119.228.12.236.114.236.108.245.106.26.104.261.1.254.088.261.073.276.073.279.059.261.04.244.024M297.367 673.306l.293-.18.279-.204.243-.204.213-.227.179-.22.154-.23.131-.227.115-.23.089-.251.073-.255.05-.277.016-.278M297.367 673.306l-.563.284-.572.244-.569.205-.579.155-.578.115-.572.073-.571.024-.563-.017M279.997 667.928l.04.027.05.024.042.025.047.024.049.024.057.033 6.81 3.752M289.131 672.302l.219.104.261.116.303.113.325.099.343.088.344.065.357.058.376.025h.333l.319-.015.301-.048.27-.076.244-.089.221-.123.187-.128.138-.149.09-.145.058-.139.015-.145-.015-.15-.058-.138-.098-.131-.121-.113-.164-.096-.179-.084-.22-.071-.245-.052-.261-.032-.286-.01h-.286l-.292.01-.302.024-.326.04-.335.05-.319.057-.293.057-.276.065-.245.066-.23.066-.194.072-.098.042-.082.04-.123.082-.065.09-.023.089.03.099.035.048.048.048.066.057.073.059.18.105M287.092 671.837l-1.004 140.516" style="fill:none;stroke:#9500ff;stroke-width:.999997;stroke-linecap:round;stroke-linejoin:round;stroke-miterlimit:4;stroke-dasharray:none;stroke-opacity:1;visibility:visible" visibility="hidden"/><path d="m279.556 807.975 6.532 4.379M278.913 806.54l.017.325.056.282.091.242.113.212.155.196.107.098.104.081M295.99 809.674l-.537.013-.547.056-.555.1-.556.136-.554.18-.555.212-.547.262-.537.293M295.99 809.674h.277l.268.004.22.01.206.007.17.008h.147l.123.01.106.005h.088l.066-.005.041-.01.016-.016M286.089 812.354l.17.09.19.082.204.05.219.023.213.007.227-.007.229-.024.237-.042.219-.05.221-.056.22-.065.22-.064.22-.083.228-.082.23-.088.236-.099.253-.107.252-.114.245-.12.252-.124.268-.139.263-.139.252-.138.245-.139M299.202 670.523l-.024-.319-.057-.276-.091-.237-.121-.203-.172-.188-.114-.089-.121-.075M291.65 665.42l-.17-.083-.195-.048-.214-.041-.228-.008-.22.008-.228.033-.245.04-.245.051-.219.064-.23.065-.226.082-.228.081-.23.081-.237.099-.237.097-.235.107-.261.113-.261.123-.252.123-.254.121-.285.139-.27.138-.26.139-.245.13M291.65 665.42l6.852 3.719M281.432 668.134l-.317-.023-.286-.033-.237-.03-.203-.035-.206-.034-.186-.05M281.432 668.134l.564.025.563-.025.569-.07.57-.109.58-.162.571-.196.563-.247.563-.277M279.605 667.793l.01-.007.031.007.058.016.065.025.096.04.132.055M299.202 670.523l-1.484 139.164M279.605 667.793l-.693 138.746" style="fill:none;stroke:#9500ff;stroke-width:1.99999;stroke-linecap:round;stroke-linejoin:round;stroke-miterlimit:4;stroke-dasharray:none;stroke-opacity:1;visibility:visible" visibility="hidden"/><path d="m287.092 671.837 2.039.465M287.092 671.837l2.039.465" style="fill:none;stroke:#9500ff;stroke-width:.999997;stroke-linecap:round;stroke-linejoin:round;stroke-miterlimit:4;stroke-dasharray:none;stroke-opacity:1;visibility:visible" visibility="hidden"/><path d="m368.055 867.13 6.803 4.667M367.582 866.895l.083.033.08.034.074.03.072.042.075.041.088.056M374.727 881.674l.375-.523.341-.548.319-.545.293-.57.261-.571.228-.58.198-.586.17-.58M374.727 881.674l-.147.187-.162.177-.172.173-.188.163-.18.147-.187.138-.399.236-.384.182-.392.146-.382.112-.383.074-.425.049-.416.01-.236-.018-.22-.024-.212-.043-.212-.048M374.857 871.797l.17.121.171.147.172.172.18.188.155.187.155.205.154.21.14.231.122.211.113.212.107.21.098.222.088.22.075.23.073.234.066.237.057.252.04.262.025.261.016.261-.008.287-.017.276-.04.275-.057.262M467.324 900.054l-92.468-28.257M373.695 875.762l.147.116.134.153.124.183.098.208.078.223.05.23.024.244v.251l-.03.239-.056.232-.085.214-.099.203-.128.19-.153.17-.164.147-.179.122-.172.086-.169.062-.17.036-.18.019-.171-.013-.158-.031-.153-.061-.128-.08-.116-.096-.099-.123" style="fill:none;stroke:#ffdf00;stroke-width:.999997;stroke-linecap:round;stroke-linejoin:round;stroke-miterlimit:4;stroke-dasharray:none;stroke-opacity:1;visibility:visible" visibility="hidden"/><path d="m365.583 869.376.057-.212.067-.212.065-.204.064-.204.075-.181.065-.17.074-.164.072-.156.138-.25.147-.22.148-.19.155-.138.178-.122.099-.049.097-.033.123-.018h.113l.131.01.13.033M362.64 878.33l6.768 4.712M370.029 883.335l-.123-.048-.114-.041-.098-.04-.089-.048-.097-.052-.099-.064M467.324 900.054l.163.112.14.139.121.14.099.164.072.154.049.163.043.172.014.172.008.17-.008.165-.024.169-.025.17-.04.173-.048.172-.057.185-.066.19-.081.205-.09.204-.107.212-.106.204-.13.226-.147.236-.145.222-.158.209M464.698 908.641l-.056.204-.065.195-.066.196-.073.186-.073.163-.074.164-.154.295-.147.236-.155.201-.164.167-.164.129-.186.107-.212.065-.122.015h-.122l-.132-.015-.139-.033M464.698 908.641l.172-.548.195-.555.221-.546.253-.538.286-.537.3-.521.328-.515.349-.499M459.846 895.233l.123.043.098.04.088.04.091.041.09.048.09.06 6.897 4.55M462.594 910.915l-92.565-27.58M459.846 895.233l-92.264-28.337" style="fill:none;stroke:#ffdf00;stroke-width:1.99999;stroke-linecap:round;stroke-linejoin:round;stroke-miterlimit:4;stroke-dasharray:none;stroke-opacity:1;visibility:visible" visibility="hidden"/><path d="m374.858 871.797-1.163 3.965" style="fill:none;stroke:#ffdf00;stroke-width:.999997;stroke-linecap:round;stroke-linejoin:round;stroke-miterlimit:4;stroke-dasharray:none;stroke-opacity:1;visibility:visible" visibility="hidden"/><path d="m376.912 877.171-11.329-7.795M368.054 867.131l-5.414 11.199" style="fill:none;stroke:#ffdf00;stroke-width:1.99999;stroke-linecap:round;stroke-linejoin:round;stroke-miterlimit:4;stroke-dasharray:none;stroke-opacity:1;visibility:visible" visibility="hidden"/><path d="m287.715 852.403 7.091 5.102" style="fill:none;stroke:red;stroke-width:1.99999;stroke-linecap:round;stroke-linejoin:round;stroke-miterlimit:4;stroke-dasharray:none;stroke-opacity:1;visibility:visible"/><path d="m378.43 897.413-6.49-18.727" style="fill:none;stroke:#ffdf00;stroke-width:.999997;stroke-linecap:round;stroke-linejoin:round;stroke-miterlimit:4;stroke-dasharray:none;stroke-opacity:1;visibility:visible" visibility="hidden"/></svg>