<svg xmlns="http://www.w3.org/2000/svg" baseProfile="full" height="1122.52" preserveAspectRatio="xMinYMin meet" style="width:919px;height:1159px" width="793.701" xml:space="preserve"><path d="m482.708 65.063.117-.067.128-.048.135-.048.143-.037.128-.024.138-.023.138-.006.134-.004.246.014.249.043.23.07.22.091.22.116.18.139.083.081.079.092.075.098.054.1" style="fill:none;stroke:red;stroke-width:.999997;stroke-linecap:round;stroke-linejoin:round;stroke-miterlimit:4;stroke-dasharray:none;stroke-opacity:1;visibility:visible" visibility="hidden"/><path d="m457.223 148.432-.433-.336-.419-.361-.407-.376-.381-.399-.377-.416-.356-.436-.346-.45-.325-.467-.308-.495-.299-.507-.276-.526-.266-.546-.243-.565-.227-.575-.216-.598-.196-.599-.172-.617-.162-.627-.14-.645-.127-.662-.108-.677-.095-.685-.074-.704-.058-.722-.045-.729-.027-.743-.005-.758.008-.767.023-.783.042-.793.06-.852.088-.867.099-.881.128-.89.135-.9.157-.91.183-.921.194-.928.219-.942.233-.944.254-.956.264-.965.293-.97.305-.977.31-.917.317-.919.335-.924.35-.932.364-.937.382-.932.394-.944.411-.94.424-.94.437-.948.452-.94.47-.948.476-.945.49-.944.508-.943.52-.945.53-.942.549-.938.556-.94.57-.935.582-.93.592-.925.605-.925.614-.916.624-.91.63-.906.651-.904.653-.895.671-.888.672-.876.683-.873.689-.864.705-.859.704-.848.716-.84.724-.825.732-.817.73-.81.744-.8.75-.785.759-.778.759-.762.762-.746.77-.74.772-.728.78-.714.778-.697.784-.685.787-.672.784-.658.79-.64.795-.628.792-.613.798-.593.793-.582.799-.564.79-.548.796-.53.792-.516.79-.494.793-.481.787-.463.785-.446.785-.427.775-.408.776-.39.775-.367.764-.354.764-.336.76-.314.752-.298.745-.277.743-.259.74-.238.72-.22.777-.211.767-.193.752-.17.744-.144.73-.125.732-.101.714-.075.704-.056.692-.035.682-.008.664.012.659.039.645.056.63.083.598.094.587.116.568.14.559.163.545.18.53.196.514.223.505.242.492.264.47.278.465.298.445.318" style="fill:none;stroke:red;stroke-width:1.99999;stroke-linecap:round;stroke-linejoin:round;stroke-miterlimit:4;stroke-dasharray:none;stroke-opacity:1;visibility:visible" visibility="hidden"/><path d="m488.135 143.673-.188.13-.815.55-.806.53-.815.511-.81.495-.809.476-.801.463-.808.436-.801.425-.798.407-.73.352M479.206 131.495l-.264.196-.843.596-.846.583-.842.564-.846.545-.852.525-.848.502-.85.489-.84.467-.852.446-.848.424-.846.404-.844.384-.859.364-.855.344-.852.322-.853.297-.848.276-.847.252-.837.228-.848.204-.83.173-.842.148-.827.127-.824.1-.825.072-.817.039-.755.018-.748-.009-.741-.037-.74-.06-.734-.091-.722-.115-.608-.118M510.02 62.538l.161.304.296.596.268.605.263.619.233.628.215.64.199.652.178.655.163.669.145.675.142.77.12.778.09.788.082.793.049.808.037.813.011.826v.832l-.023.844-.05.844-.064.858-.083.864-.105.866-.116.876-.148.941-.17.945-.185.954-.207.96-.233.966-.247.967-.264.976-.284.98-.306.985-.318.988-.348.99-.36.992-.381 1-.393 1-.407.98-.423.985-.437.988-.459.988-.473.985-.487.983-.504.983-.52.985-.532.981-.544.975-.566.972-.576.97-.588.966-.603.96-.61.948-.62.937-.633.936-.65.926-.652.929-.67.91-.678.905-.696.897-.692.89-.716.88-.715.869-.73.858-.737.852-.744.839-.753.828-.765.816-.766.803-.774.796-.784.772-.787.77-.793.747-.454.421M483.264 55.033l-.1-.07-.095-.062-.088-.05-.088-.05-.101-.044-.116-.05" style="fill:none;stroke:red;stroke-width:.999997;stroke-linecap:round;stroke-linejoin:round;stroke-miterlimit:4;stroke-dasharray:none;stroke-opacity:1;visibility:visible" visibility="hidden"/><path d="m474.465 58.7.008.121.03.119.043.12.058.119.073.11.088.116.103.119.114.115.136.133.155.136.195.155.202.16 5.15 3.849M480.82 64.072l.215.156.233.161.248.166.267.164.246.148.264.146.259.139.267.127.246.108.246.097.237.09.243.082.236.07.238.057.243.053.247.036.256.023.261.012.257-.011.243-.024.273-.048.254-.068.24-.093.228-.107M488.284 64.517l.213-.185.194-.211.177-.228.165-.243.128-.233.115-.253.097-.258.078-.262.056-.246.042-.249.026-.243.012-.248-.002-.233-.017-.241-.035-.243-.044-.245-.058-.26-.087-.25-.096-.245-.125-.227-.148-.244-.174-.222-.189-.196-.205-.174" style="fill:none;stroke:red;stroke-width:1.99999;stroke-linecap:round;stroke-linejoin:round;stroke-miterlimit:4;stroke-dasharray:none;stroke-opacity:1;visibility:visible" visibility="hidden"/><path d="m488.284 64.517-.38.296-.376.27-.384.251-.379.222M483.264 55.033l5.141 3.845" style="fill:none;stroke:red;stroke-width:1.99999;stroke-linecap:round;stroke-linejoin:round;stroke-miterlimit:4;stroke-dasharray:none;stroke-opacity:1;visibility:visible" visibility="hidden"/><path d="m476.672 60.79.405-.279.415-.27M477.492 60.24l.193-.119.208-.113.224-.101.238-.09.228-.07.238-.059.243-.045.243-.035.228-.021.228-.014h.221l.221.01.223.018.22.024.221.036.23.05.233.056.235.072.222.081.224.088.232.108.223.124.207.125.189.132M487.974 64.313l-5.11-3.816M475.577 65.51l-.195-.152-.182-.175-.156-.166-.147-.182-.11-.168-.107-.177-.084-.177-.071-.183-.063-.203-.04-.2-.025-.22-.01-.222M480.721 69.359l-5.144-3.85M486.7 69.305l-.215.139-.233.136-.248.126-.268.108-.25.104-.263.08-.272.066-.271.064-.25.041-.257.03-.25.02-.243.009h-.247l-.249-.016-.245-.02-.25-.036-.262-.048-.256-.063-.255-.076-.241-.085-.268-.116-.244-.123-.23-.143-.21-.144M488.22 68.262l-.759.515-.762.528M489.505 66.239l-.012.197-.035.203-.054.188-.071.183-.077.169-.098.161-.105.158-.128.152-.145.16-.163.152-.193.157-.204.144" style="fill:none;stroke:red;stroke-width:.999997;stroke-linecap:round;stroke-linejoin:round;stroke-miterlimit:4;stroke-dasharray:none;stroke-opacity:1;visibility:visible" visibility="hidden"/><path d="m474.45 59.508-.063 3.776M489.586 61.658l-.081 4.581" style="fill:none;stroke:red;stroke-width:1.99999;stroke-linecap:round;stroke-linejoin:round;stroke-miterlimit:4;stroke-dasharray:none;stroke-opacity:1;visibility:visible" visibility="hidden"/><path d="m486.848 145.833-.377.221-.384.247-.372.272-.384.297M486.848 145.833l.215-.123.192-.128.162-.118.154-.12.121-.111.104-.105.096-.111.072-.104.07-.112.042-.116.035-.127.012-.118M479.954 148.447l.232.073.233.051.243.033.25.008.231.003.238-.019.238-.033.232-.039.218-.042.216-.05.206-.064.216-.066.215-.079.216-.08.216-.09.213-.097.235-.11.224-.116.219-.128.216-.123.233-.15.221-.146.218-.155.197-.157" style="fill:none;stroke:red;stroke-width:.999997;stroke-linecap:round;stroke-linejoin:round;stroke-miterlimit:4;stroke-dasharray:none;stroke-opacity:1;visibility:visible" visibility="hidden"/><path d="m488.122 144.44.013-.768M456.682 149.155l-14.015-10.488M519.98 64.517l.473.37.455.387.433.412.432.434.4.449.387.477.37.492.353.514.333.533.31.548.298.567.281.592.258.606.238.623.216.605.198.628.176.642.164.654.142.668.127.684.112.7.093.711.074.721.058.74.042.75.022.761.008.772-.012.79-.028.791-.046.822-.062.825-.082.833-.094.846-.121.864-.127.862-.152.872-.166.882-.18.894-.202.898-.22.909-.24.91-.246.92-.27.925-.286.929-.295.936-.319.94-.325.944-.35.952-.369.948-.374.957-.394.958-.41.957-.423.964-.437.96-.451.967-.47.962-.478.964-.501.964-.507.963-.521.959-.532.958-.548.956-.562.958-.57.95-.583.944-.599.948-.604.936-.62.938-.638.925-.634.925-.65.918-.67.912-.665.905-.681.895-.691.893-.699.879-.704.876-.718.862-.724.855-.727.844-.74.836-.747.825-.753.813-.76.804-.76.79-.77.781-.775.768-.778.757-.789.74-.787.728-.79.718-.795.705-.803.683-.8.674-.81.66-.803.644-.807.622-.812.617-.809.596-.81.577-.622.434M519.98 64.517l-14.017-10.49M479.954 148.447l-.065.033-.791.364-.783.35-.782.328-.776.309-.778.288-.768.27-.764.25-.753.227-.753.209-.739.188-.735.17-.73.143-.719.13-.716.105-.704.084-.697.067-.686.045-.674.024h-.67l-.658-.017-.65-.042-.632-.056-.626-.089-.626-.105-.608-.123-.601-.152-.584-.168-.57-.192-.56-.212-.546-.236-.536-.253-.523-.278-.502-.296-.488-.317-.479-.34M442.668 138.667l-.475-.368-.453-.392-.443-.408-.42-.436-.404-.452-.384-.473-.369-.492-.353-.51-.336-.534-.316-.546-.292-.569-.283-.587-.256-.606-.25-.618-.21-.613-.199-.624-.18-.64-.162-.656-.148-.665-.128-.687-.108-.697-.098-.71-.072-.724-.062-.733-.043-.75-.021-.763-.008-.771.008-.783.028-.797.044-.817.06-.83.077-.838.103-.842.108-.862.133-.863.145-.875.172-.884.178-.892.202-.897.215-.907.233-.913.252-.921.27-.922.277-.932.307-.937.308-.94.334-.947.343-.949.363-.95.38-.954.393-.959.408-.96.421-.962.436-.958.458-.965.464-.964.484-.967.49-.96.515-.968.516-.96.532-.957.55-.956.56-.956.567-.95.584-.947.6-.943.606-.937.618-.936.631-.93.636-.92.653-.922.66-.915.672-.9.679-.9.69-.888.697-.881.712-.872.71-.87.723-.852.733-.848.739-.836.747-.824.744-.813.764-.805.76-.787.772-.782.773-.767.779-.756.782-.747.788-.728.802-.713.794-.701.795-.69.804-.676.803-.657.809-.644.81-.63.806-.614.812-.59.81-.582.625-.439M482.676 54.708l-.227-.072-.238-.053-.242-.039-.252-.015h-.234l-.235.011-.24.027-.243.041-.214.044-.215.05-.213.066-.214.064-.216.076-.222.083-.215.089-.219.097-.226.111-.231.119-.224.122-.221.128-.234.15-.224.15-.214.159-.202.152M482.676 54.708l.025-.013.791-.366.79-.345.782-.33.777-.31.771-.284.77-.272.762-.252.757-.228.754-.21.746-.186.739-.17.73-.15.72-.123.715-.113.706-.084.696-.067.686-.041.686-.02.662-.004.663.019.65.036.642.068.627.081.622.105.616.128.6.148.584.172.576.191.563.213.547.238.536.256.518.277.504.297.492.319.482.34" style="fill:none;stroke:red;stroke-width:1.99999;stroke-linecap:round;stroke-linejoin:round;stroke-miterlimit:4;stroke-dasharray:none;stroke-opacity:1;visibility:visible" visibility="hidden"/><path d="m475.742 57.307-.205.125-.2.12-.166.122-.149.122-.124.111-.107.104-.09.112-.08.112-.058.11-.048.11-.038.128-.012.117-.015.808M475.742 57.307l.377-.22.383-.252.381-.272.379-.295" style="fill:none;stroke:red;stroke-width:1.99999;stroke-linecap:round;stroke-linejoin:round;stroke-miterlimit:4;stroke-dasharray:none;stroke-opacity:1;visibility:visible" visibility="hidden"/><path d="m486.767 65.556-4.059-.493M488.136 143.673l-8.93-12.178" style="fill:none;stroke:red;stroke-width:.999997;stroke-linecap:round;stroke-linejoin:round;stroke-miterlimit:4;stroke-dasharray:none;stroke-opacity:1;visibility:visible" visibility="hidden"/><path d="m474.387 63.284 15.199-1.626" style="fill:none;stroke:red;stroke-width:1.99999;stroke-linecap:round;stroke-linejoin:round;stroke-miterlimit:4;stroke-dasharray:none;stroke-opacity:1;visibility:visible" visibility="hidden"/><path d="m731.223 322.077-.039.443-.012.416.014.397.044.377.068.35.096.321.121.295.145.268.172.233.196.201.216.174M741.798 311.054l-.256-.141-.277-.104-.304-.067-.328-.027-.339.016-.36.054-.375.094-.389.13-.4.17-.413.208-.412.246-.424.276-.42.312-.427.346-.423.375-.418.404-.415.424-.401.455-.395.477-.379.49-.365.514-.355.523-.329.533-.308.543-.288.552-.268.548-.243.549-.212.547-.192.541-.16.528-.128.516-.1.508-.073.484" style="fill:none;stroke:#00ff4a;stroke-width:.999997;stroke-linecap:round;stroke-linejoin:round;stroke-miterlimit:4;stroke-dasharray:none;stroke-opacity:1;visibility:visible" visibility="hidden"/><path d="m652.619 252.574 89.18 58.48M488.462 144.925l164.156 107.65M473.018 151.302l259.225 174.249M741.798 311.054l.23.152.227.163.216.168.21.178.208.18.205.188.192.196.192.203.181.207.176.212.168.213.163.227.157.226.147.232.148.236.13.24.125.248.12.251.11.25.103.257.095.256.082.266.083.263.07.267.06.266.051.271.044.275.038.269.025.275.016.273.01.277.006.274-.012.276-.013.273-.031.27-.03.275-.04.275-.051.27-.06.262-.07.272-.076.257-.082.267-.092.257-.102.252-.108.254-.118.246-.123.246-.13.237-.14.237-.15.228-.153.228-.159.223-.17.215-.178.213-.183.201-.182.199-.195.195-.201.186-.208.182-.211.17-.22.17-.223.158-.224.151-.232.145-.236.139-.245.132-.24.119-.252.117-.25.105-.257.102-.261.085-.26.083-.265.077-.268.065-.266.059-.272.047-.272.041-.273.03-.272.022-.275.013-.276.007h-.276l-.274-.013-.272-.019-.272-.033-.275-.038-.272-.048-.27-.053-.267-.064-.266-.068-.264-.084-.26-.087-.261-.094-.255-.106-.252-.112-.245-.12-.244-.13-.243-.135-.236-.141-.232-.148" style="fill:none;stroke:#00ff4a;stroke-width:1.99999;stroke-linecap:round;stroke-linejoin:round;stroke-miterlimit:4;stroke-dasharray:none;stroke-opacity:1;visibility:visible" visibility="hidden"/><path d="M650.14 251.008c.108.818-1.138 1.66-2.78 1.874-1.642.215-3.062-.277-3.17-1.097-.106-.823 1.14-1.66 2.782-1.875 1.641-.216 3.061.275 3.168 1.098" style="fill:none;stroke:#00ff4a;stroke-width:.999997;stroke-linecap:round;stroke-linejoin:round;stroke-miterlimit:4;stroke-dasharray:none;stroke-opacity:1;visibility:visible" visibility="hidden"/><path d="m592.582 365.76-.313-.005-.343.03-.356.068-.37.111-.385.153-.4.182-.408.218-.412.26-.416.292-.421.327-.42.35-.421.385-.415.413-.405.44-.404.453-.394.482-.377.496-.363.513-.35.523-.324.536-.311.538-.287.544-.264.544-.24.546-.212.537-.188.533-.16.518-.129.51-.1.491-.072.47-.04.454-.01.427.018.405.055.372.077.347.11.316.137.28.172.248.19.212.223.173" style="fill:none;stroke:#9500ff;stroke-width:.999997;stroke-linecap:round;stroke-linejoin:round;stroke-miterlimit:4;stroke-dasharray:none;stroke-opacity:1;visibility:visible" visibility="hidden"/><path d="m515.51 314.865 77.977 51.196M376.434 223.553l139.077 91.312M360.216 230.154l223.638 150.297M593.488 366.062l.228.153.227.163.214.17.216.174.207.181.201.19.198.192.188.205.184.203.176.216.168.213.161.224.157.228.15.232.14.24.136.237.121.244.117.247.111.253.1.258.095.258.085.258.077.265.07.268.061.265.05.27.047.27.031.271.028.272.016.275.01.272-.002.277-.007.272-.017.272-.025.272-.036.275-.042.268-.056.265-.057.267-.07.268-.078.26-.085.257-.095.261-.099.251-.109.25-.12.246-.124.244-.14.237-.14.232-.147.232-.156.223-.162.22-.167.216-.176.205-.183.206-.192.194-.194.195-.203.183-.205.177-.215.17-.219.169-.224.157-.228.147-.233.146-.237.138-.246.125-.246.124-.25.112-.254.107-.254.093-.258.092-.267.081-.264.074-.268.062-.27.054-.269.05-.276.038-.27.029-.275.02-.277.015-.278.006-.273-.006-.273-.015-.275-.019-.275-.03-.277-.04-.27-.047-.273-.056-.265-.061-.265-.074-.266-.08-.26-.085-.258-.104-.258-.101-.25-.115-.251-.12-.241-.127-.24-.138-.239-.139-.23-.155" style="fill:none;stroke:#9500ff;stroke-width:1.99999;stroke-linecap:round;stroke-linejoin:round;stroke-miterlimit:4;stroke-dasharray:none;stroke-opacity:1;visibility:visible" visibility="hidden"/><path d="M512.705 312.893c.108.82-1.137 1.661-2.78 1.876-1.64.213-3.06-.279-3.168-1.099-.107-.821 1.138-1.661 2.78-1.876 1.643-.213 3.063.277 3.168 1.099" style="fill:none;stroke:#9500ff;stroke-width:.999997;stroke-linecap:round;stroke-linejoin:round;stroke-miterlimit:4;stroke-dasharray:none;stroke-opacity:1;visibility:visible" visibility="hidden"/><path d="m370.784 143.656.117-.068.128-.05.135-.047.143-.035.128-.028.138-.02.138-.01h.134l.246.013.249.041.232.072.217.09.22.12.18.134.084.084.079.09.075.097.054.104" style="fill:none;stroke:#ffdf00;stroke-width:.999997;stroke-linecap:round;stroke-linejoin:round;stroke-miterlimit:4;stroke-dasharray:none;stroke-opacity:1;visibility:visible" visibility="hidden"/><path d="m345.297 227.022-.43-.336-.42-.357-.406-.378-.384-.4-.376-.416-.356-.434-.345-.451-.327-.47-.308-.493-.297-.508-.276-.524-.267-.548-.243-.564-.226-.576-.216-.598-.196-.599-.172-.616-.163-.627-.14-.644-.127-.661-.108-.679-.094-.686-.074-.706-.058-.717-.046-.732-.028-.743-.005-.758.01-.766.022-.784.044-.792.059-.85.088-.87.098-.88.127-.886.136-.9.159-.912.181-.923.196-.93.217-.94.234-.945.252-.956.265-.96.293-.972.306-.978.309-.919.317-.917.335-.924.35-.934.365-.936.381-.933.395-.943.41-.94.424-.94.438-.949.452-.94.469-.948.476-.944.49-.945.51-.939.519-.95.53-.938.55-.941.554-.938.571-.936.58-.928.593-.926.604-.927.615-.915.624-.908.63-.909.651-.903.654-.893.67-.888.672-.877.683-.875.69-.864.705-.86.704-.844.716-.843.724-.825.732-.817.729-.81.745-.8.75-.784.758-.777.759-.761.763-.75.769-.74.772-.727.78-.712.779-.695.785-.69.784-.67.784-.656.79-.64.797-.632.792-.612.797-.593.793-.58.799-.566.79-.548.797-.53.792-.516.788-.494.794-.481.787-.463.785-.445.786-.425.774-.408.776-.391.775-.37.764-.353.764-.337.761-.312.75-.299.746-.277.744-.259.739-.238.721-.216.776-.214.767-.193.752-.168.744-.147.73-.125.733-.099.713-.076.704-.054.692-.034.683-.008.664.008.658.04.644.055.632.083.598.096.586.117.568.139.558.164.546.177.53.199.514.224.504.24.494.26.47.28.464.3.446.318" style="fill:none;stroke:#ffdf00;stroke-width:1.99999;stroke-linecap:round;stroke-linejoin:round;stroke-miterlimit:4;stroke-dasharray:none;stroke-opacity:1;visibility:visible" visibility="hidden"/><path d="m376.21 222.266-.188.128-.815.55-.806.529-.816.512-.81.494-.808.476-.801.463-.808.439-.801.425-.798.404-.732.35M367.852 209.665l-.835.616-.842.599-.847.581-.839.563-.849.546-.852.528-.848.5-.848.491-.841.464-.852.448-.848.423-.846.404-.845.384-.859.368-.853.341-.853.323-.854.297-.846.275-.85.253-.836.225-.848.203-.83.177-.843.147-.825.125-.824.103-.826.07-.816.04-.756.017-.746-.01-.743-.036-.74-.06-.732-.09-.723-.118-.609-.117M398.095 141.13l.161.304.298.595.268.606.261.618.233.63.215.64.199.65.18.657.161.67.145.673.142.769.118.779.091.789.083.793.049.808.037.814.011.826v.832l-.023.84-.05.847-.064.856-.083.864-.105.867-.116.876-.148.94-.171.946-.184.954-.207.96-.234.965-.246.968-.264.975-.285.982-.305.984-.318.987-.346.99-.36.994-.384.999-.392 1-.407.98-.423.985-.437.987-.459.988-.473.985-.487.983-.504.985-.52.985-.532.978-.544.978-.566.97-.576.974-.588.964-.603.959-.61.95-.62.938-.633.932-.65.93-.652.923-.67.914-.678.906-.696.896-.692.888-.716.879-.715.87-.73.862-.737.85-.744.84-.753.827-.764.816-.767.802-.774.794-.784.776-.787.767-.793.75-.796.737M371.34 133.623l-.1-.072-.096-.06-.087-.05-.088-.05-.101-.043-.116-.049" style="fill:none;stroke:#ffdf00;stroke-width:.999997;stroke-linecap:round;stroke-linejoin:round;stroke-miterlimit:4;stroke-dasharray:none;stroke-opacity:1;visibility:visible" visibility="hidden"/><path d="m362.54 137.294.008.119.03.12.043.117.058.124.073.107.088.114.103.122.114.114.136.136.156.135.194.153.201.158 5.15 3.853M368.895 142.665l.216.156.232.16.248.165.267.164.248.148.261.143.26.14.267.13.246.107.246.099.237.09.243.08.236.069.238.06.243.048.247.038.256.026.261.009.257-.008.243-.024.273-.05.254-.069.238-.092.231-.109M376.36 143.107l.213-.185.194-.21.176-.228.166-.241.13-.236.113-.253.097-.256.078-.264.056-.244.042-.25.026-.244.013-.245-.003-.235-.017-.241-.035-.243-.044-.245-.058-.259-.087-.25-.096-.243-.124-.23-.15-.245-.173-.221-.189-.197-.204-.174M376.36 143.107l-.38.296-.376.27-.383.251-.378.222M371.34 133.623l5.143 3.844" style="fill:none;stroke:#ffdf00;stroke-width:1.99999;stroke-linecap:round;stroke-linejoin:round;stroke-miterlimit:4;stroke-dasharray:none;stroke-opacity:1;visibility:visible" visibility="hidden"/><path d="m364.747 139.382.405-.28.415-.273M365.568 138.83l.193-.117.208-.115.224-.101.236-.09.23-.069.238-.06.243-.044.243-.035.226-.022.23-.014h.221l.223.011.221.019.22.024.221.034.23.05.233.057.235.07.222.085.224.085.232.108.223.124.207.125.189.135M376.05 142.906l-5.11-3.816M363.651 144.1l-.195-.155-.182-.173-.155-.167-.147-.18-.11-.169-.107-.175-.084-.177-.07-.184-.063-.203-.04-.197-.026-.225-.009-.223M368.797 147.95l-5.145-3.85M374.775 147.895l-.215.139-.233.138-.248.124-.27.11-.249.102-.262.08-.272.067-.271.064-.248.043-.259.026-.249.024-.244.006-.247-.002-.249-.012-.245-.021-.25-.036-.264-.047-.254-.065-.256-.073-.24-.088-.268-.112-.244-.124-.23-.143-.21-.145M376.296 146.854l-.759.515-.762.526M377.58 144.83l-.013.199-.034.198-.054.19-.071.184-.077.166-.098.164-.105.158-.128.153-.147.157-.161.152-.193.158-.204.145" style="fill:none;stroke:#ffdf00;stroke-width:.999997;stroke-linecap:round;stroke-linejoin:round;stroke-miterlimit:4;stroke-dasharray:none;stroke-opacity:1;visibility:visible" visibility="hidden"/><path d="m362.526 138.1-.063 3.773M377.663 140.25l-.083 4.58" style="fill:none;stroke:#ffdf00;stroke-width:1.99999;stroke-linecap:round;stroke-linejoin:round;stroke-miterlimit:4;stroke-dasharray:none;stroke-opacity:1;visibility:visible" visibility="hidden"/><path d="m374.923 224.423-.377.223-.384.246-.374.271-.382.299M374.923 224.423l.215-.121.192-.128.162-.116.154-.123.121-.11.104-.103.096-.115.073-.104.071-.112.041-.116.034-.124.013-.121M368.029 227.037l.233.073.234.051.242.035.25.009h.233l.235-.019.24-.029.232-.04.217-.045.216-.05.207-.062.216-.067.214-.077.216-.083.216-.088.215-.095.233-.114.224-.116.219-.123.216-.128.233-.147.22-.148.219-.156.197-.156" style="fill:none;stroke:#ffdf00;stroke-width:.999997;stroke-linecap:round;stroke-linejoin:round;stroke-miterlimit:4;stroke-dasharray:none;stroke-opacity:1;visibility:visible" visibility="hidden"/><path d="m376.2 223.03.012-.764M344.758 227.746l-14.016-10.488M408.055 143.107l.473.372.455.39.433.409.432.432.4.45.387.478.37.492.353.514.333.531.31.55.298.569.281.589.258.607.238.621.216.607.198.626.176.644.162.654.144.669.127.68.112.703.093.709.074.723.058.74.04.749.024.763.008.77-.013.791-.027.79-.046.82-.062.827-.084.835-.092.847-.121.86-.127.862-.152.875-.166.881-.179.896-.204.898-.219.904-.238.912-.248.918-.27.927-.286.928-.294.937-.32.94-.326.944-.348.95-.37.95-.376.958-.392.956-.41.96-.423.962-.439.962-.449.962-.47.967-.48.963-.5.964-.506.964-.52.96-.532.956-.55.956-.56.954-.571.956-.583.94-.599.948-.604.938-.618.936-.64.928-.634.924-.65.918-.67.914-.666.905-.68.893-.691.89-.699.884-.704.874-.718.862-.724.852-.727.845-.741.837-.746.827-.753.81-.759.804-.76.792-.772.78-.774.767-.778.757-.789.74-.787.728-.79.72-.795.704-.803.683-.8.676-.812.657-.8.644-.808.626-.812.614-.809.595-.812.581-.62.432M408.055 143.107l-14.017-10.488M368.029 227.037l-.065.035-.79.366-.784.348-.781.326-.777.309-.776.292-.768.267-.764.249-.754.227-.753.21-.74.187-.733.17-.731.145-.719.13-.716.106-.704.082-.696.068-.686.043-.675.024-.67-.001-.658-.014-.65-.044-.631-.056-.627-.089-.625-.103-.608-.122-.603-.154-.583-.169-.57-.192-.559-.21-.547-.238-.536-.253-.522-.276-.504-.296-.486-.319-.48-.339M330.742 217.259l-.473-.37-.452-.389-.443-.409-.421-.437-.406-.451-.384-.473-.368-.492-.352-.511-.337-.533-.317-.546-.291-.57-.283-.587-.256-.605-.249-.618-.21-.612-.2-.622-.18-.642-.162-.658-.148-.664-.127-.688-.109-.695-.097-.712-.072-.724-.063-.733-.043-.748-.021-.762-.008-.77.008-.787.028-.797.044-.818.06-.828.077-.836.102-.844.109-.86.132-.862.147-.879.172-.884.177-.89.203-.898.214-.905.235-.918.25-.918.27-.919.277-.936.307-.936.308-.94.335-.947.342-.946.363-.95.38-.957.393-.957.408-.959.422-.963.436-.96.457-.965.464-.965.484-.963.49-.964.514-.964.519-.963.53-.957.55-.953.561-.956.565-.952.584-.948.602-.944.605-.938.619-.932.63-.929.635-.924.655-.921.66-.915.672-.901.678-.899.691-.888.696-.881.712-.874.71-.865.722-.856.735-.845.738-.836.747-.826.744-.813.764-.805.761-.788.77-.779.776-.768.777-.758.783-.747.788-.728.8-.712.796-.703.794-.69.804-.675.803-.657.81-.644.81-.63.804-.612.813-.593.81-.579.625-.44M370.751 133.299l-.227-.073-.237-.054-.243-.036-.252-.016h-.234l-.235.014-.24.025-.241.04-.216.044-.215.052-.213.061-.214.068-.216.075-.224.084-.212.09-.22.094-.226.112-.232.12-.224.12-.22.13-.232.151-.226.147-.214.159-.202.153M370.751 133.299l.027-.012.789-.365.79-.346.782-.33.777-.311.772-.285.767-.272.764-.251.757-.23.754-.207.746-.187.739-.168.73-.153.72-.122.715-.114.706-.084.696-.066.686-.04.686-.022.662-.004.663.02.65.037.642.067.627.081.622.104.616.13.6.147.584.174.576.188.563.213.547.239.536.254.518.279.504.299.492.316.482.341M363.818 135.899l-.205.125-.202.123-.164.116-.15.125-.123.11-.107.106-.09.112-.082.108-.056.111-.048.113-.037.124-.013.122-.015.805M363.818 135.899l.377-.223.383-.249.381-.272.379-.295" style="fill:none;stroke:#ffdf00;stroke-width:1.99999;stroke-linecap:round;stroke-linejoin:round;stroke-miterlimit:4;stroke-dasharray:none;stroke-opacity:1;visibility:visible" visibility="hidden"/><path d="m374.843 144.145-4.059-.489M376.211 222.265l-8.359-12.6" style="fill:none;stroke:#ffdf00;stroke-width:.999997;stroke-linecap:round;stroke-linejoin:round;stroke-miterlimit:4;stroke-dasharray:none;stroke-opacity:1;visibility:visible" visibility="hidden"/><path d="m362.463 141.873 15.2-1.623" style="fill:none;stroke:#ffdf00;stroke-width:1.99999;stroke-linecap:round;stroke-linejoin:round;stroke-miterlimit:4;stroke-dasharray:none;stroke-opacity:1;visibility:visible" visibility="hidden"/><path d="m439.897 422.954-.232-.124-.253-.085-.272-.05-.302-.013-.313.024-.333.067-.346.101-.365.139-.372.17-.385.212-.396.247-.396.276-.404.312-.406.337-.404.366-.398.392-.398.42-.388.438-.382.463-.366.472-.354.488-.34.507-.324.51-.307.516-.284.523-.265.524-.238.517-.218.514-.188.51-.164.499-.135.48-.107.472-.081.452-.05.43-.02.407.009.383.037.355.068.328.097.297.12.268.155.23.175.198.204.161" style="fill:none;stroke:#00d4ff;stroke-width:.999997;stroke-linecap:round;stroke-linejoin:round;stroke-miterlimit:4;stroke-dasharray:none;stroke-opacity:1;visibility:visible"/><path d="m376.465 381.488 63.432 41.467M271.827 313.083l104.638 68.404M255.487 319.67l175.088 117.016M439.897 422.954l.219.15.21.153.214.16.202.172.198.172.194.181.188.185.18.192.178.198.17.204.164.206.152.215.151.219.144.218.13.23.131.229.122.235.112.238.104.239.093.244.093.247.08.25.076.252.063.251.06.255.05.258.04.262.031.254.027.263.013.263.01.261v.261l-.011.258-.021.262-.023.259-.035.26-.041.257-.052.259-.057.255-.068.248-.074.253-.085.248-.09.241-.103.24-.104.244-.116.23-.12.233-.13.23-.137.22-.141.22-.155.215-.155.208-.164.204-.168.198-.178.194-.183.191-.19.179-.195.177-.2.172-.203.161-.21.156-.218.155-.221.143-.224.137-.231.128-.236.121-.237.116-.24.11-.243.097-.245.092-.252.085-.252.078-.256.066-.259.064-.259.051-.262.047-.264.033-.266.032-.26.02-.268.01-.264.006-.264-.005-.265-.012-.267-.022-.261-.029-.265-.035-.259-.048-.264-.053-.257-.059-.256-.07-.254-.082-.249-.081-.25-.092-.246-.104-.241-.104-.242-.116-.234-.12-.23-.133-.226-.135-.224-.147" style="fill:none;stroke:#00d4ff;stroke-width:1.99999;stroke-linecap:round;stroke-linejoin:round;stroke-miterlimit:4;stroke-dasharray:none;stroke-opacity:1;visibility:visible"/><path d="M373.666 379.615c.108.82-1.138 1.66-2.78 1.876-1.642.214-3.062-.277-3.168-1.098-.108-.823 1.137-1.663 2.78-1.875 1.641-.216 3.061.275 3.168 1.097" style="fill:none;stroke:#00d4ff;stroke-width:.999997;stroke-linecap:round;stroke-linejoin:round;stroke-miterlimit:4;stroke-dasharray:none;stroke-opacity:1;visibility:visible"/><path d="m266.133 232.986.117-.065.128-.052.135-.047.141-.036.13-.027.138-.02.138-.009.134-.001.246.014.249.04.232.07.219.093.218.117.18.139.084.08.079.093.075.098.054.098" style="fill:none;stroke:#ff008a;stroke-width:.999997;stroke-linecap:round;stroke-linejoin:round;stroke-miterlimit:4;stroke-dasharray:none;stroke-opacity:1;visibility:visible" visibility="hidden"/><path d="m240.647 316.352-.432-.336-.42-.36-.405-.375-.383-.398-.377-.416-.356-.436-.346-.451-.325-.47-.308-.491-.299-.507-.277-.528-.265-.547-.243-.562-.227-.576-.216-.599-.196-.597-.172-.619-.162-.627-.142-.644-.125-.661-.108-.676-.095-.69-.074-.702-.058-.72-.045-.73-.027-.743-.005-.758.008-.766.021-.786.046-.792.058-.85.088-.867.098-.881.129-.888.135-.902.158-.91.182-.92.197-.932.216-.938.233-.948.254-.954.264-.964.293-.97.305-.976.31-.917.317-.92.335-.927.35-.93.363-.936.383-.932.394-.944.411-.939.424-.943.437-.945.452-.945.47-.943.474-.947.492-.945.51-.941.518-.947.531-.939.55-.94.554-.94.57-.936.582-.929.592-.925.605-.927.614-.915.624-.908.63-.908.651-.9.653-.896.671-.889.672-.875.683-.877.689-.86.705-.861.704-.844.716-.844.724-.823.732-.821.73-.808.745-.799.75-.785.757-.779.76-.76.762-.75.77-.74.772-.726.78-.713.778-.696.786-.688.785-.67.784-.658.79-.64.795-.63.792-.614.798-.592.793-.58.799-.563.79-.55.796-.528.792-.518.79-.494.793-.483.787-.463.785-.442.785-.427.775-.41.776-.39.775-.365.764-.358.764-.336.76-.312.75-.298.747-.278.744-.261.739-.235.72-.217.777-.213.767-.195.752-.168.744-.144.73-.125.732-.1.714-.076.702-.056.694-.032.68-.011.666.01.659.04.645.055.63.084.598.096.587.114.568.14.559.165.545.177.53.199.514.223.503.24.494.264.47.277.465.301.445.318" style="fill:none;stroke:#ff008a;stroke-width:1.99999;stroke-linecap:round;stroke-linejoin:round;stroke-miterlimit:4;stroke-dasharray:none;stroke-opacity:1;visibility:visible" visibility="hidden"/><path d="m271.56 311.594-.188.13-.815.55-.806.53-.815.51-.81.497-.809.474-.801.462-.808.44-.801.424-.798.404-.73.354M263.202 298.996l-.837.615-.842.6-.846.582-.839.562-.85.549-.851.523-.848.5-.848.49-.842.466-.852.448-.848.424-.845.405-.845.383-.859.364-.855.344-.852.322-.854.298-.846.273-.848.253-.837.23-.85.201-.829.176-.841.147-.827.126-.824.103-.825.07-.816.04-.756.015-.747-.008-.742-.036-.74-.062-.732-.088-.723-.119-.61-.117M293.444 230.462l.161.304.298.595.268.605.261.617.233.631.215.64.199.65.18.657.161.669.145.675.142.769.12.779.089.786.083.795.049.81.037.811.011.826v.832l-.023.842-.05.847-.064.855-.084.865-.104.864-.116.879-.148.94-.17.944-.185.956-.207.958-.233.966-.247.969-.264.976-.285.98-.307.983-.316.988-.348.99-.358.995-.383.996-.395 1.001-.405.982-.423.984-.437.985-.459.99-.473.986-.487.984-.504.984-.52.983-.532.978-.544.979-.566.97-.576.973-.588.965-.603.959-.61.949-.62.939-.633.933-.65.928-.652.924-.67.915-.678.904-.696.897-.694.887-.714.88-.715.87-.73.862-.737.849-.744.841-.753.826-.764.817-.767.803-.774.794-.784.774-.788.768-.792.749-.796.74M266.689 222.955l-.1-.072-.095-.06-.088-.048-.088-.05-.101-.042-.117-.052" style="fill:none;stroke:#ff008a;stroke-width:.999997;stroke-linecap:round;stroke-linejoin:round;stroke-miterlimit:4;stroke-dasharray:none;stroke-opacity:1;visibility:visible" visibility="hidden"/><path d="m257.89 226.623.008.121.03.119.043.119.058.12.073.109.087.113.104.122.114.117.135.137.157.134.194.153.202.159 5.15 3.849M264.243 231.995l.216.156.232.161.248.166.267.164.248.146.262.144.259.139.267.13.246.109.246.098.237.091.243.08.236.068.238.059.243.053.247.036.256.023.261.01.257-.006.243-.026.273-.05.252-.067.242-.096.229-.107M271.708 232.437l.213-.184.194-.21.177-.227.165-.242.13-.237.113-.252.097-.256.078-.264.056-.245.042-.25.026-.242.014-.246-.004-.233-.017-.243-.035-.244-.044-.244-.06-.26-.085-.249-.096-.244-.124-.227-.15-.244-.173-.222-.189-.2-.204-.171M271.708 232.437l-.38.296-.376.273-.383.25-.378.221M266.689 222.955l5.143 3.847" style="fill:none;stroke:#ff008a;stroke-width:1.99999;stroke-linecap:round;stroke-linejoin:round;stroke-miterlimit:4;stroke-dasharray:none;stroke-opacity:1;visibility:visible" visibility="hidden"/><path d="m260.096 228.712.404-.28.416-.272M260.917 228.16l.193-.119.208-.112.224-.1.238-.092.228-.07.238-.058.243-.045.243-.036.228-.02.228-.015h.221l.223.008.22.022.221.024.221.037.23.045.233.059.233.07.224.083.224.088.232.107.223.124.207.127.189.132M271.398 232.236l-5.11-3.816M259.001 233.432l-.195-.156-.182-.173-.156-.168-.147-.178-.11-.169-.107-.176-.084-.179-.071-.181-.063-.203-.04-.2-.025-.224-.01-.22M264.146 237.282l-5.144-3.85M270.122 237.227l-.213.139-.234.137-.248.124-.268.112-.25.1-.263.081-.272.068-.27.063-.249.04-.258.032-.25.02-.244.007h-.246l-.251-.015-.244-.019-.25-.038-.262-.047-.256-.064-.255-.075-.241-.086-.268-.115-.244-.124-.23-.143-.21-.141M271.645 236.184l-.759.516-.764.527M272.93 234.162l-.012.199-.035.198-.054.19-.071.184-.077.165-.098.165-.106.158-.127.152-.145.157-.163.153-.193.156-.204.146" style="fill:none;stroke:#ff008a;stroke-width:.999997;stroke-linecap:round;stroke-linejoin:round;stroke-miterlimit:4;stroke-dasharray:none;stroke-opacity:1;visibility:visible" visibility="hidden"/><path d="m257.875 227.428-.063 3.777M273.013 229.583l-.083 4.58" style="fill:none;stroke:#ff008a;stroke-width:1.99999;stroke-linecap:round;stroke-linejoin:round;stroke-miterlimit:4;stroke-dasharray:none;stroke-opacity:1;visibility:visible" visibility="hidden"/><path d="m263.379 316.368.23.076.235.047.243.034.25.01h.233l.236-.018.238-.029.232-.041.218-.042.216-.053.206-.063.216-.066.215-.078.216-.082.216-.088.215-.095.233-.115.224-.116.219-.122.216-.126.233-.149.221-.148.218-.152.197-.157" style="fill:none;stroke:#ff008a;stroke-width:.999997;stroke-linecap:round;stroke-linejoin:round;stroke-miterlimit:4;stroke-dasharray:none;stroke-opacity:1;visibility:visible" visibility="hidden"/><path d="m240.107 317.075-14.015-10.485M303.404 232.437l.473.372.455.39.433.409.432.432.4.453.387.475.37.493.353.515.333.529.31.55.298.569.281.589.258.608.238.62.216.608.198.625.176.647.164.65.141.671.128.68.112.702.093.712.074.72.058.741.042.75.022.763.008.768-.012.792-.028.792-.046.818-.062.826-.082.836-.094.846-.121.861-.127.861-.152.878-.166.878-.179.896-.204.898-.219.905-.238.913-.248.918-.27.928-.286.926-.295.938-.319.94-.325.945-.35.95-.369.949-.374.956-.394.957-.41.96-.423.963-.437.96-.451.965-.47.964-.478.964-.501.963-.507.964-.52.96-.533.956-.548.958-.562.954-.57.953-.583.943-.599.946-.604.94-.618.932-.64.93-.635.924-.65.92-.669.912-.665.905-.683.893-.689.892-.699.882-.704.873-.718.864-.724.852-.727.845-.74.837-.747.826-.753.81-.759.807-.76.79-.772.78-.774.767-.778.755-.789.743-.787.73-.79.716-.795.703-.803.684-.8.675-.81.658-.803.646-.808.624-.81.616-.81.594-.81.58-.622.431M303.404 232.437l-14.019-10.485M263.379 316.368l-.065.035-.791.366-.783.346-.782.326-.776.311-.778.29-.768.269-.764.25-.753.224-.755.214-.737.185-.735.17-.73.146-.719.13-.716.103-.704.084-.696.066-.687.044-.674.025h-.67l-.658-.016-.651-.041-.63-.059-.627-.087-.626-.105-.608-.124-.601-.15-.584-.17-.57-.19-.56-.213-.546-.236-.536-.256-.523-.274-.502-.299-.487-.317-.48-.34M226.092 306.59l-.475-.37-.452-.39-.442-.408-.422-.439-.404-.448-.384-.477-.37-.49-.351-.507-.337-.538-.316-.544-.292-.569-.283-.588-.256-.605-.25-.618-.21-.613-.199-.623-.18-.64-.162-.657-.148-.667-.127-.688-.11-.693-.097-.712-.072-.721-.062-.736-.043-.748-.021-.763-.008-.772.008-.785.028-.798.042-.816.062-.828.077-.837.103-.843.108-.861.133-.863.145-.874.172-.886.179-.89.201-.9.215-.906.235-.916.25-.918.27-.92.277-.936.305-.935.31-.94.333-.947.344-.948.363-.949.38-.957.393-.956.408-.96.421-.964.436-.959.458-.963.464-.968.484-.964.49-.962.515-.964.516-.962.532-.958.55-.955.56-.955.567-.95.584-.948.6-.942.604-.94.62-.933.631-.93.636-.922.653-.92.659-.916.672-.903.68-.896.69-.888.697-.882.712-.874.71-.868.723-.853.733-.845.739-.838.747-.825.744-.812.764-.805.761-.787.77-.781.775-.768.778-.757.782-.747.788-.728.802-.712.794-.704.795-.688.804-.676.803-.657.809-.643.81-.632.806-.61.812-.595.81-.58.625-.44M266.099 222.63l-.225-.076-.238-.05-.242-.038-.252-.015h-.235l-.235.014-.24.025-.241.041-.216.043-.215.05-.213.065-.213.066-.216.078-.223.08-.213.092-.22.093-.227.112-.23.119-.225.12-.221.13-.232.151-.225.148-.215.159-.201.153M266.099 222.63l.028-.012.79-.367.789-.344.782-.332.778-.308.772-.288.768-.27.762-.251.758-.23.752-.209.748-.186.738-.168.73-.151.721-.124.715-.112.705-.084.696-.064.687-.044.685-.023h.661l.664.018.651.037.641.067.627.084.623.101.616.13.6.146.584.176.574.188.564.212.546.24.537.253.519.279.504.296.492.321.48.34M259.167 225.23l-.205.123-.2.124-.166.117-.149.124-.124.112-.107.105-.09.111-.08.108-.059.112-.047.113-.037.127-.013.117-.015.806M259.167 225.23l.377-.223.383-.249.381-.27.379-.297" style="fill:none;stroke:#ff008a;stroke-width:1.99999;stroke-linecap:round;stroke-linejoin:round;stroke-miterlimit:4;stroke-dasharray:none;stroke-opacity:1;visibility:visible" visibility="hidden"/><path d="m270.191 233.476-4.058-.49M271.56 311.594l-8.358-12.598" style="fill:none;stroke:#ff008a;stroke-width:.999997;stroke-linecap:round;stroke-linejoin:round;stroke-miterlimit:4;stroke-dasharray:none;stroke-opacity:1;visibility:visible" visibility="hidden"/><path d="m257.812 231.205 15.201-1.622" style="fill:none;stroke:#ff008a;stroke-width:1.99999;stroke-linecap:round;stroke-linejoin:round;stroke-miterlimit:4;stroke-dasharray:none;stroke-opacity:1;visibility:visible" visibility="hidden"/><path d="m271.56 311.594-2.805 3.2" style="fill:none;stroke:#ff008a;stroke-width:.999997;stroke-linecap:round;stroke-linejoin:round;stroke-miterlimit:4;stroke-dasharray:none;stroke-opacity:1;visibility:visible" visibility="hidden"/><path d="m457.223 148.432 15.795 2.87" style="fill:none;stroke:#00ff4a;stroke-width:1.99999;stroke-linecap:round;stroke-linejoin:round;stroke-miterlimit:4;stroke-dasharray:none;stroke-opacity:1;visibility:visible" visibility="hidden"/><path d="m345.297 227.022 14.919 3.132" style="fill:none;stroke:#9500ff;stroke-width:1.99999;stroke-linecap:round;stroke-linejoin:round;stroke-miterlimit:4;stroke-dasharray:none;stroke-opacity:1;visibility:visible" visibility="hidden"/><path d="m240.647 316.352 14.84 3.318" style="fill:none;stroke:#00d4ff;stroke-width:1.99999;stroke-linecap:round;stroke-linejoin:round;stroke-miterlimit:4;stroke-dasharray:none;stroke-opacity:1;visibility:visible"/></svg>