<svg xmlns="http://www.w3.org/2000/svg" baseProfile="full" height="1122.52" preserveAspectRatio="xMinYMin meet" style="width:912px;height:1303px" width="793.701" xml:space="preserve"><path d="m276.253 779.277-.334-.265-.052-.043-.245-.244-.121-.125-.103-.111-.11-.13" style="fill:none;stroke:red;stroke-width:.666665;stroke-linecap:round;stroke-linejoin:round;stroke-miterlimit:4;stroke-dasharray:none;stroke-opacity:1;visibility:visible" visibility="hidden"/><path d="m274.126 775.996-.05-.184-.022-.098-.084-.456-.003-.017-.054-.461-.011-.118-.017-.352-.011-.274v-.094l.013-.492v-.042l.044-.456.019-.18.033-.238.072-.444.105-.477.042-.177.063-.232.125-.455.173-.476.06-.165.11-.274.169-.404.227-.47.081-.166.14-.253.227-.401v-.002l.276-.446.097-.156.165-.234.271-.374.325-.412.119-.143.17-.19.326-.363.355-.37.136-.136.253-.23.277-.242.046-.042.433-.35.045-.036.427-.309.11-.081.342-.22.224-.135.144-.083.436-.246.476-.222.093-.042.37-.151.221-.085.152-.05.45-.144.472-.113.09-.021.393-.068.186-.031.232-.021.356-.03h.545l.4.03.133.01.007.002" style="fill:none;stroke:red;stroke-width:.666665;stroke-linecap:round;stroke-linejoin:round;stroke-miterlimit:4;stroke-dasharray:2.65733,2.65733;stroke-dashoffset:0;stroke-opacity:1;visibility:visible" visibility="hidden"/><path d="m265.269 771.238-.329-.26-.053-.041-.245-.241-.123-.126-.104-.11-.112-.136M286.417 762.726l.105.039.121.047.167.077.313.161.238.142.237.148" style="fill:none;stroke:red;stroke-width:.666665;stroke-linecap:round;stroke-linejoin:round;stroke-miterlimit:4;stroke-dasharray:none;stroke-opacity:1;visibility:visible" visibility="hidden"/><path d="m263.143 767.984-.046-.16-.027-.104-.085-.444-.003-.02-.055-.45-.013-.12-.019-.346-.013-.274-.001-.094.009-.488.004-.044.036-.45.019-.176.03-.237.068-.443.103-.472.037-.177.063-.235.125-.45.167-.471.06-.167.107-.272.169-.406.221-.462.081-.166.138-.252.224-.402.003-.001.27-.441.099-.154.164-.236.268-.372h.001l.323-.408.116-.142.172-.195.325-.359.35-.36.136-.134.248-.227.28-.244.046-.04.428-.341.044-.036.419-.304.107-.076.339-.216.223-.138.147-.082.435-.24.464-.22.093-.041.367-.143.221-.084.153-.051.447-.143.468-.11.085-.019.388-.065.186-.028.232-.022.36-.026h.536l.395.03.13.014.024.002" style="fill:none;stroke:red;stroke-width:.666665;stroke-linecap:round;stroke-linejoin:round;stroke-miterlimit:4;stroke-dasharray:2.63466,2.63466;stroke-dashoffset:0;stroke-opacity:1;visibility:visible" visibility="hidden"/><path d="m287.22 787.156-.333-.266-.053-.04-.248-.246-.124-.127-.1-.112-.105-.125M275.306 754.876l.097.034.123.047.164.076.315.159.24.144.244.153" style="fill:none;stroke:red;stroke-width:.666665;stroke-linecap:round;stroke-linejoin:round;stroke-miterlimit:4;stroke-dasharray:none;stroke-opacity:1;visibility:visible" visibility="hidden"/><path d="m285.08 783.86-.05-.19-.025-.1-.086-.458-.002-.016-.054-.462-.012-.124-.016-.354-.01-.274-.001-.094.014-.496.001-.044.043-.46.019-.18.034-.24.072-.446.104-.48.044-.177.062-.235.129-.458.172-.482.062-.165.11-.276.17-.409.228-.47.083-.167.142-.255.226-.404.279-.448.101-.16.163-.236.275-.378.325-.416.12-.142.17-.194.329-.365.358-.368.134-.139.26-.23.277-.25.048-.034.435-.356.044-.036.428-.314.112-.078.348-.22.224-.137.141-.085.443-.246.477-.227.096-.043.373-.15.222-.086.154-.05.455-.142.472-.116.09-.022.398-.067.187-.032.232-.021.36-.031h.549l.401.03.136.014h.016" style="fill:none;stroke:red;stroke-width:.666665;stroke-linecap:round;stroke-linejoin:round;stroke-miterlimit:4;stroke-dasharray:2.67866,2.67866;stroke-dashoffset:0;stroke-opacity:1;visibility:visible" visibility="hidden"/><path d="m298.897 771.258.336.268.05.042.248.244.126.126.098.112.107.124M297.466 770.498l.097.034.127.046.163.079.317.159.237.14.24.157" style="fill:none;stroke:red;stroke-width:.666665;stroke-linecap:round;stroke-linejoin:round;stroke-miterlimit:4;stroke-dasharray:none;stroke-opacity:1;visibility:visible" visibility="hidden"/><path d="m301.037 774.556.05.189.026.104.085.455.002.018.053.463.012.123.017.35.01.276.001.096-.014.496-.002.042-.043.462-.017.178-.035.24-.072.446-.104.479-.043.18-.062.236-.131.453-.172.483-.061.167-.11.274-.172.41-.225.47-.084.167-.141.257-.227.402-.279.45-.101.159-.164.236-.274.376-.325.416-.12.144-.17.192-.329.367-.358.368-.135.14-.258.228-.28.249-.045.036-.437.355-.042.036-.431.313-.11.08-.347.22-.224.139-.143.082-.443.248-.478.224-.095.047-.372.148-.22.083-.158.05-.451.147-.474.113-.09.022-.396.069-.189.03-.231.021-.362.03h-.546l-.404-.03-.134-.01-.013-.003" style="fill:none;stroke:red;stroke-width:.666665;stroke-linecap:round;stroke-linejoin:round;stroke-miterlimit:4;stroke-dasharray:2.67866,2.67866;stroke-dashoffset:0;stroke-opacity:1;visibility:visible" visibility="hidden"/><path d="m288.653 787.92-.098-.035-.124-.049-.165-.076-.316-.16-.237-.14-.24-.153" style="fill:none;stroke:red;stroke-width:.666665;stroke-linecap:round;stroke-linejoin:round;stroke-miterlimit:4;stroke-dasharray:none;stroke-opacity:1;visibility:visible" visibility="hidden"/><path d="m166.686 874.56 109.97-100.841M164.876 872.963l1.809 1.599M172.126 877.26l-.188-.122-.213-.113-.227-.123-.236-.123-.237-.114-.245-.115-.244-.112-.262-.113-.236-.102-.238-.103-.234-.098-.23-.09-.229-.097-.229-.1-.237-.097-.225-.097-.254-.107-.236-.115-.23-.113-.217-.116-.231-.127-.209-.133-.189-.13-.164-.137M172.126 877.26l.415.279.385.318.348.35.319.393.285.406.246.45.218.47.172.491M174.173 882.498l.113-.115.098-.13.082-.144.067-.159.055-.145.032-.165.024-.17.008-.18-.008-.196-.015-.204-.05-.236-.064-.237M269.346 624.361l-.97 136.139M271.353 624.648l.213.115.26.124.295.112.325.106.333.088.344.064.352.05.356.033h.336l.319-.033.293-.05.262-.07.242-.099.22-.12.18-.141.142-.154.088-.148.049-.154.024-.148-.016-.154-.057-.149-.096-.138-.123-.121-.156-.106-.18-.083M271.5 623.735l-.186.08-.1.05-.073.042-.123.096-.072.086-.016.101.032.115.032.05.05.055.059.066.072.056.178.116M261.973 619.993l.027.014.057.025.089.05.123.054.151.101.107.058.115.064 6.704 4.001M279.46 625.723l.286-.18.275-.203.238-.212.214-.228.167-.22.158-.23.13-.233.108-.24.087-.252.072-.253.051-.276.016-.283M279.46 625.723l-.556.286-.562.252-.563.212-.569.163-.57.132-.564.082-.562.033h-.547M269.346 624.361l.172.106.195.116.212.132.221.145.221.132.227.145.236.139.237.144.23.133.226.13.222.122.228.123.22.115.237.105.228.105.237.107.26.099.255.097.249.08.255.076.276.063.27.05.26.035.247.023M403.186 807.04l-94.041-28.737M362.082 829.58h-.008l-.03.052M362.754 828.76l-.074.092M363.306 827.898l-.03.048-.018.025M357.76 818.374l.323.227M351.412 827.022l.303.212M351.52 827.898l.355.26M351.746 828.694l.406.296M352.112 829.387l.462.343M352.591 829.962l.56.415M353.175 830.411l2.115 1.526M355.484 831.889l.487.35M356.312 832.094l.415.299M357.167 832.125l.373.265M358.068 832.003l.324.235M364.26 822.471l.364.252M363.99 821.642l.406.283M363.576 820.903l.464.324M360.855 818.698l2.128 1.496M360.18 818.393l.487.35M359.426 818.227l.421.304M358.612 818.22l.372.272M358.156 818.571l-.033.024-.04.007M357.654 818.409l.03-.034.041-.01.033.01M357.32 818.775l.334-.367M357.32 818.774l-.04.036-.05.02-.04-.005M356.766 818.715l.041-.029.041-.02h.032l.31.159M356.482 819.122l.284-.407M356.482 819.122l-.039.041-.05.024-.051.007M355.9 819.171l.03-.038.042-.018.04-.008.331.088M355.653 819.603l.247-.433M355.654 819.603l-.035.051-.048.03-.048.006M355.052 819.766l.024-.041.042-.032.041-.01.365.01M354.863 820.211l.19-.445M354.863 820.211l-.03.051-.049.04-.048.016M354.695 820.326l.041-.01M351.908 824.105v-.043l.018-.045.03-.037.295-.25M352.03 824.462l-.124-.357M352.028 824.462v.048l-.016.057-.032.051M351.607 825.103l-.01-.04.019-.05.024-.042.34-.354M351.786 825.411l-.18-.308M351.786 825.411l.008.04-.008.056-.027.06M351.446 826.078l-.016-.032.008-.04.022-.048.3-.39M351.672 826.338l-.226-.26M351.672 826.338l.016.042v.05l-.024.056M351.412 827.022l-.017-.025v-.04l.017-.05.252-.421M351.714 827.234l.008.039v.037l-.016.045M351.52 827.898l-.029-.025v-.03l.012-.041.204-.447M351.746 828.694l-.016-.024-.008-.025.008-.04.146-.447M352.112 829.387l-.028-.025v-.05l.067-.319M352.591 829.962l-.019-.017-.008-.039.008-.179M355.29 831.937l.03.008.032-.008M353.175 830.411l-.015-.02-.009-.014M355.352 831.937l.134-.048M355.972 832.238l.031.01.043-.011M356.044 832.238l.268-.144M356.727 832.391l.024.009.033-.009.031-.014M356.815 832.377l.352-.252M357.54 832.391l.03.009.034-.009.032-.024M357.636 832.367l.36-.324M358.068 832.003l-.033.018-.04.022M358.392 832.238l.032.01.04-.021.033-.02M358.498 832.205l.325-.375M358.962 831.782h-.042l-.049.019-.048.029M358.962 831.782l.3.156M359.26 831.937h.042l.04-.018.033-.029M359.375 831.889l.285-.409M359.8 831.41l-.05.007-.047.023-.043.04M359.8 831.409l.33.081M360.131 831.491h.041l.042-.024.032-.04M360.246 831.427l.237-.432M360.62 830.905l-.049.015-.05.034-.039.041M360.62 830.905l.367.015M360.987 830.92l.036-.005.035-.033.03-.04M361.087 830.84l.193-.448M361.4 830.286l-.049.019-.041.041-.03.045M361.4 830.286l.38-.065M361.78 830.222l.041-.012.041-.035.016-.04M361.88 830.134l.13-.448M362.042 829.63l-.016.024-.018.032M362.119 829.554l-.024.011-.015.014M362.12 829.555l.397-.12M362.52 829.434l.04-.024.035-.04.015-.05M362.61 829.32l.065-.436M362.682 828.857v.006l-.007.02M362.782 828.745l-.019.005-.01.011M362.782 828.745l.388-.188M363.17 828.555l.04-.032.025-.038.016-.05M363.25 828.435l.008-.422M363.258 827.973v.04M363.342 827.866l-.016.017-.019.015M363.342 827.866l.38-.252M363.722 827.614l.041-.032.027-.05v-.041M363.79 827.491l-.05-.396M363.804 826.947l-.04.043-.026.056v.05M363.804 826.947l.364-.307M364.17 826.64l.033-.043.017-.046v-.04M364.22 826.509l-.117-.359M364.146 825.998l-.034.057-.016.051.008.047M364.146 825.998l.342-.352M364.488 825.646l.022-.036.017-.051-.01-.041M364.52 825.518l-.18-.31M364.372 825.055l-.032.056-.009.059.009.039M364.372 825.054l.3-.39M364.672 824.665l.028-.04v-.048l-.018-.032M364.682 824.545l-.22-.263M364.47 824.137l-.026.057-.006.057.022.031M364.471 824.137l.25-.42M364.722 823.715l.018-.042v-.04l-.026-.034M364.714 823.6l-.268-.193M364.43 823.267l-.016.056.006.05.026.033M364.43 823.267l.202-.437M364.634 822.83l.016-.043-.01-.037-.014-.027M364.26 822.463v.007M364.26 822.463l.154-.446M364.415 822.017l.007-.032-.007-.035-.019-.024M363.99 821.642l.076-.342M364.066 821.3l-.008-.04-.019-.032M363.576 820.903l.008-.193M363.583 820.71v-.035l-.023-.024M363 820.251v-.004M363 820.247l-.008-.026-.01-.026M360.798 818.693l.03-.006.027.013M360.667 818.74l.13-.048M360.107 818.393l.03-.018.043.018M359.847 818.53l.26-.139M359.334 818.237l.033-.017h.033l.024.007M358.986 818.49l.35-.253M358.514 818.247l.033-.026.033-.007.032.007M358.156 818.571l.358-.324M353.394 821.838l.041-.065M356.631 828.137l5.784-2.019M362.415 826.118l.065-1.508M362.48 824.61l-5.789 2.015M356.692 826.625l-.062 1.512M360.146 820.098l.041.016.041-.004.052-.036M360.146 820.098l-.259-.22M359.887 819.878l-.03-.007-.041.007-.044.035M359.772 819.913l-.324.365M359.308 820.326l.043.005.047-.014.05-.04M359.308 820.326l-.298-.144M359.011 820.182l-.041-.012-.042.017-.032.034M358.896 820.22l-.294.407M358.474 820.698h.038l.05-.024.04-.05M358.474 820.698l-.344-.081M358.132 820.617h-.04l-.04.025-.032.04M358.02 820.683l-.239.431M357.646 821.202l.05-.008.045-.03.041-.052M357.646 821.202l-.367-.015M357.28 821.187l-.043.015-.039.025-.028.048M357.171 821.277l-.184.44M356.858 821.831l.048-.02.05-.038.032-.056M356.858 821.831l-.383.055M354.355 820.374l.341-.05M356.474 821.886l-.042.016-.04.035-.015.048M354.255 820.471l.019-.038.038-.043.042-.015M356.378 821.983l-.13.447M354.126 820.92l.13-.45M356.126 822.56l.048-.032.041-.041.033-.057M354.126 820.92l-.03.054-.041.052-.05.024M356.126 822.56l-.39.122M353.615 821.17l.39-.12M355.735 822.683l-.039.023-.036.044-.013.049M353.524 821.283l.02-.046.027-.043.044-.024M355.646 822.798l-.076.436M353.451 821.722l.073-.439M355.476 823.373l.04-.034.041-.046.013-.059M353.451 821.722l-.016.058-.041.05-.04.03M355.476 823.373l-.4.194M352.956 822.055l.398-.194M355.076 823.567l-.038.033-.035.04-.01.04M352.875 822.17l.016-.039.023-.049.042-.025M354.994 823.68l-.007.434M352.875 822.591v-.42M354.906 824.258l.04-.038.034-.059.008-.051M352.875 822.591l-.015.06-.034.053-.039.043M354.906 824.258l-.39.25M352.404 823l.383-.252M354.516 824.509l-.03.034-.027.047-.008.043M352.34 823.12v-.04l.022-.046.042-.035M354.451 824.633l.057.396M352.396 823.52l-.056-.4M354.443 825.186l.041-.048.024-.05v-.058M352.396 823.52l-.008.05-.025.056-.04.048M354.443 825.186l-.363.308M352.25 823.73l.073-.057M354.08 825.494l-.035.04-.015.041v.048M354.028 825.623l.112.357M354.094 826.134l.036-.05.021-.056-.01-.05M354.094 826.134l-.334.36M353.76 826.494l-.03.039-.01.05.01.029M353.73 826.614l.17.312M353.875 827.078l.03-.05.01-.056-.016-.047M353.875 827.078l-.304.396M353.572 827.474l-.024.043-.005.048.015.034M353.558 827.6l.226.26M353.784 828.005l.02-.058.006-.049-.026-.038M353.784 828.005l-.26.421M353.524 828.427l-.017.048v.043l.028.023M353.534 828.54l.276.198M353.825 828.875l.009-.057v-.05l-.024-.032M353.826 828.875l-.21.446M353.615 829.32l-.008.043.008.04.023.024M353.636 829.427l.32.13M353.995 829.677l.01-.055-.017-.042-.031-.025M353.646 829.427l.35.251M353.995 829.677l-.153.446M353.842 830.125v.05l.008.035.033.012M353.883 830.222l.35.065M354.29 830.393v-.046l-.016-.04-.042-.021M354.108 830.263l.182.13M354.29 830.393l-.092.45M354.196 830.84v.04l.028.034.031.005M354.255 830.92l.375-.014M354.711 831l-.008-.046-.033-.035-.04-.016M354.582 830.914l.13.088M354.711 831l-.03.435M354.68 831.434l.005.033.025.024.04.009M354.752 831.5l.39-.081M355.232 831.48l-.018-.04-.03-.022h-.043M355.132 831.418l.1.064M355.232 831.48l.031.41M355.263 831.889l.008.024.019.024M355.858 831.84l-.024-.04-.042-.017-.049.009M355.776 831.782l.082.058M355.858 831.84l.088.364M355.5 831.88l.446.326M355.946 832.205l.008.014.018.018M356.312 832.094l.12-.073M356.554 832.043l-.03-.033-.042-.007-.05.017M356.498 832.003l.056.04M356.554 832.043l.156.324M356.312 832.08l.398.287M356.71 832.367l.01.018.006.005M357.167 832.125l.024-.016M357.32 832.107l-.033-.026h-.05l-.047.026M357.287 832.08l.033.028M357.32 832.107l.21.268M357.171 832.125l.36.252M357.53 832.377v.008l.01.005M358.123 832.02l-.021-.019h-.034M358.123 832.009v.01M358.123 832.02l.263.208M358.068 832.003l.318.227M358.386 832.227h0l.006.01M364.626 822.722h-.01M364.26 822.471l.356.252M364.616 822.722l-.316-.13M364.274 822.575l.026.016M364.26 822.471l-.01.051.018.038.032.033M364.396 821.925l-.008-.008h-.016M363.99 821.65l.382.268M364.372 821.918l-.349-.056M363.972 821.831l.051.031M363.967 821.747v.058l.024.033.033.024M363.967 821.747l.024-.105M364.04 821.227l-.018-.007h-.014M363.576 820.91l.432.308M364.008 821.22l-.374.006M363.56 821.178l.071.05M363.56 821.138l.007.05.023.032.042.007M363.56 821.138l.014-.235M363.56 820.65l-.018-.008h-.022M363.008 820.278l.514.364M363.522 820.642l-.392.081M363.04 820.66l.087.061M363.03 820.65l.02.041.03.026.048.005M363.031 820.65l-.03-.4M362.982 820.195l-.03-.005-.037.005M362.916 820.195l-.389.147M362.407 820.26l.121.08M362.415 820.294l.025.039.04.017.048-.008M362.415 820.294l-.088-.364M362.326 819.927l-.027-.033-.029-.017-.044.017M362.226 819.894l-.39.216M361.675 819.993l.161.114M361.716 820.081l.031.032.043.01.046-.017M361.716 820.08l-.156-.324M361.56 819.757l-.026-.024-.032-.008-.039.017M361.464 819.742l-.382.275M360.804 819.822l.276.195M360.952 820.017l.035.026h.045l.05-.026M360.952 820.017l-.204-.275M360.748 819.742l-.03-.019h-.043l-.039.024M360.636 819.747l-.356.327" style="fill:none;stroke:red;stroke-width:.999997;stroke-linecap:round;stroke-linejoin:round;stroke-miterlimit:4;stroke-dasharray:none;stroke-opacity:1;visibility:visible" visibility="hidden"/><path d="m395.763 802.145-93.568-28.736M398.319 818.302l-56.05-16.701M395.763 802.145l.115.042.106.04.088.043.084.04.088.049.092.056 6.848 4.625M400.355 815.905l-.057.21-.066.206-.065.202-.072.197-.065.17-.074.172-.153.31-.143.247-.153.212-.147.175-.153.139-.19.117-.202.072-.113.016h-.123l-.13-.016-.131-.032M400.355 815.905l.164-.57.203-.573.228-.571.254-.56.294-.557.31-.539.342-.53.358-.512M403.186 807.04l.156.115.138.138.115.15.096.161.064.154.05.17.024.175.014.177v.171l-.015.171-.022.17-.036.181-.046.17-.057.189-.065.188-.075.187-.09.211-.094.215-.108.212-.123.218-.137.24-.15.231-.152.231-.165.23" style="fill:none;stroke:red;stroke-width:1.99999;stroke-linecap:round;stroke-linejoin:round;stroke-miterlimit:4;stroke-dasharray:none;stroke-opacity:1;visibility:visible" visibility="hidden"/><path d="m268.378 760.5.161.099.188.081.195.057.221.033.21.014.222-.007.23-.017.225-.032.223-.048.217-.048.215-.058.22-.073.221-.073.219-.083.228-.081.229-.1.245-.104.253-.114.245-.114.245-.122.26-.13.259-.137.254-.139.235-.14M278.113 757.84l-.523.025-.537.067-.544.104-.547.149-.547.185-.548.23-.536.26-.531.306M278.113 757.84h.277l.261-.006h.599l.144-.01h.123l.098-.004.088-.011.058-.009.049-.022.016-.026M261.306 754.448l.024.326.059.286.08.245.114.22.154.203.098.1.108.088M261.943 755.917l6.435 4.583" style="fill:none;stroke:red;stroke-width:.999997;stroke-linecap:round;stroke-linejoin:round;stroke-miterlimit:4;stroke-dasharray:none;stroke-opacity:1;visibility:visible" visibility="hidden"/><path d="m99.888 651.445-.294-.225-.276-.247-.26-.26-.245-.29-.23-.289-.209-.311-.188-.32-.172-.333-.146-.34-.142-.358-.113-.37-.088-.374-.073-.393-.058-.391-.032-.41-.017-.404.008-.41.033-.412.05-.421.072-.421.09-.426.113-.415.131-.415.155-.407.17-.41.199-.398.209-.4.231-.382.244-.377.26-.359.275-.35.296-.334.31-.326.319-.311.334-.293.342-.278.351-.252.368-.246.375-.22.374-.197.391-.186.39-.154.395-.14.398-.112.398-.098.4-.075.4-.048.399-.025h.391l.394.017.383.041.375.065.376.089.202.065M281.058 782.534l68.328 48.986M99.888 651.445l40.362 29.207M145.597 684.521l120.284 87.036M279.826 757.669l80.884 56.87M113.96 640.984l147.394 103.694M261.973 619.993l-.667 134.455M281.26 622.915l-1.433 134.837M263.777 620.212l-.292-.016-.271-.026-.235-.014-.213-.024-.18-.027-.153-.022-.13-.02-.108-.023-.09-.015-.066-.018-.046-.014h-.02M263.777 620.212l.553.01.556-.042.565-.081.56-.124.564-.163.563-.203.563-.245.548-.285M277.717 619.805l2.858 1.68M281.26 622.915l-.014-.323-.067-.284-.088-.245-.125-.211-.161-.195-.115-.094-.116-.078" style="fill:none;stroke:red;stroke-width:1.99999;stroke-linecap:round;stroke-linejoin:round;stroke-miterlimit:4;stroke-dasharray:none;stroke-opacity:1;visibility:visible" visibility="hidden"/><path d="m278.897 779.208.097.35.116.343M279.11 779.9l.188.46.219.42.243.41.279.372.303.346.333.317.351.285M278.897 779.208l-.067-.23-.056-.253-.072-.26-.073-.268-.066-.261-.073-.263-.075-.267-.081-.268-.073-.246-.072-.247-.076-.243-.074-.237-.079-.22-.082-.225-.083-.231-.089-.22-.108-.237-.103-.228-.114-.212-.123-.204-.137-.203-.151-.181-.152-.154-.164-.13M270.123 769.022l6.531 4.696M270.123 769.022l-.149-.09-.145-.073-.146-.051-.148-.024-.13-.008-.131.008-.123.016-.129.033-.123.057-.124.06-.128.087-.122.1" style="fill:none;stroke:red;stroke-width:.999997;stroke-linecap:round;stroke-linejoin:round;stroke-miterlimit:4;stroke-dasharray:none;stroke-opacity:1;visibility:visible" visibility="hidden"/><path d="m174.173 882.498 107.904-99.221M160.358 868.105l108.167-98.968M164.876 872.963l.122.424.13.434.122.398.115.391.115.344.13.351.122.341.146.324.156.33.17.29.105.15.1.128.111.122.108.1 6.045 5.365M160.653 869.22l-.13-.121-.101-.114-.078-.115-.057-.105-.043-.099-.024-.088-.015-.09.008-.083.016-.082.023-.073.048-.081.058-.063M160.653 869.22l4.224 3.746M172.673 882.455l.139.115.137.09.139.056.137.049.124.015.13.01.114-.01.113-.022.124-.041.114-.058.122-.073.107-.09M281.058 782.534l-.008-.008-.008-.008h-.008l-.007-.01" style="fill:none;stroke:red;stroke-width:1.99999;stroke-linecap:round;stroke-linejoin:round;stroke-miterlimit:4;stroke-dasharray:none;stroke-opacity:1;visibility:visible" visibility="hidden"/><path d="m349.572 831.631-.186-.111-.667-.643-.563-.75-.454-.886-.295-.991-.19-1.043-.028-1.153" style="fill:none;stroke:red;stroke-width:.999997;stroke-linecap:round;stroke-linejoin:round;stroke-miterlimit:4;stroke-dasharray:none;stroke-opacity:1;visibility:visible" visibility="hidden"/><path d="m361.191 814.827.325.196.672.617.56.775.46.886.287.961.165 1.072.007.359M354.071 832.4l-1.041.135-1.02-.028-.96-.186-.86-.318-.618-.37" style="fill:none;stroke:red;stroke-width:1.99999;stroke-linecap:round;stroke-linejoin:round;stroke-miterlimit:4;stroke-dasharray:none;stroke-opacity:1;visibility:visible" visibility="hidden"/><path d="m347.188 826.054.112-1.177.263-1.207.377-1.205.511-1.202.641-1.18.751-1.12.827-1.02.914-.966.987-.834 1.044-.72 1.072-.589 1.075-.424 1.066-.3 1.076-.133.992.028.956.188.86.346.479.287" style="fill:none;stroke:red;stroke-width:.999997;stroke-linecap:round;stroke-linejoin:round;stroke-miterlimit:4;stroke-dasharray:none;stroke-opacity:1;visibility:visible" visibility="hidden"/><path d="M184.282 689.132a.3.3 0 0 0-.154-.114.327.327 0 0 0-.29.044" style="fill:none;stroke:red;stroke-width:.666665;stroke-linecap:round;stroke-linejoin:round;stroke-miterlimit:2;stroke-dasharray:none;stroke-opacity:1;visibility:visible" visibility="hidden"/><path d="m276.654 773.72-.401 5.557M281.058 782.534l-5.77-4.175" style="fill:none;stroke:red;stroke-width:.666665;stroke-linecap:round;stroke-linejoin:round;stroke-miterlimit:4;stroke-dasharray:none;stroke-opacity:1;visibility:visible" visibility="hidden"/><path d="m278.897 779.208-4.771-3.212M286.417 762.726l-1.287-.322" style="fill:none;stroke:red;stroke-width:.666665;stroke-linecap:round;stroke-linejoin:round;stroke-miterlimit:4;stroke-dasharray:2.65733,2.65733;stroke-dashoffset:0;stroke-opacity:1;visibility:visible" visibility="hidden"/><path d="m285.13 762.404 1.287.322M279.826 757.669l7.772 5.671" style="fill:none;stroke:red;stroke-width:.666665;stroke-linecap:round;stroke-linejoin:round;stroke-miterlimit:4;stroke-dasharray:none;stroke-opacity:1;visibility:visible" visibility="hidden"/><path d="m278.897 779.208-15.754-11.224M278.113 757.84l-4.079-3.29" style="fill:none;stroke:red;stroke-width:.666665;stroke-linecap:round;stroke-linejoin:round;stroke-miterlimit:4;stroke-dasharray:2.63466,2.63466;stroke-dashoffset:0;stroke-opacity:1;visibility:visible" visibility="hidden"/><path d="m281.058 782.534 5.199 3.706M285.13 762.404l-9.824-7.528M279.826 757.669l-3.337-2.18" style="fill:none;stroke:red;stroke-width:.666665;stroke-linecap:round;stroke-linejoin:round;stroke-miterlimit:4;stroke-dasharray:none;stroke-opacity:1;visibility:visible" visibility="hidden"/><path d="m278.897 779.208 6.183 4.652" style="fill:none;stroke:red;stroke-width:.666665;stroke-linecap:round;stroke-linejoin:round;stroke-miterlimit:4;stroke-dasharray:2.67866,2.67866;stroke-dashoffset:0;stroke-opacity:1;visibility:visible" visibility="hidden"/><path d="m286.257 786.24 13.605-14.066M285.13 762.404l12.336 8.094" style="fill:none;stroke:red;stroke-width:.666665;stroke-linecap:round;stroke-linejoin:round;stroke-miterlimit:4;stroke-dasharray:none;stroke-opacity:1;visibility:visible" visibility="hidden"/><path d="m285.08 783.86 15.957-9.304" style="fill:none;stroke:red;stroke-width:.666665;stroke-linecap:round;stroke-linejoin:round;stroke-miterlimit:4;stroke-dasharray:2.67866,2.67866;stroke-dashoffset:0;stroke-opacity:1;visibility:visible" visibility="hidden"/><path d="m297.466 770.498-8.813 17.422" style="fill:none;stroke:red;stroke-width:.666665;stroke-linecap:round;stroke-linejoin:round;stroke-miterlimit:4;stroke-dasharray:none;stroke-opacity:1;visibility:visible" visibility="hidden"/><path d="m288.653 787.92 13.542-14.511M145.597 684.521l-5.347-3.869M140.25 680.652l5.347 3.869M99.888 651.445l14.072-10.461M261.943 755.917l-.589-11.239M279.46 625.723l-11.211-6.644M271.353 624.648l6.364-4.843M268.525 769.137l13.552 14.14M354.752 831.5l-.681.9" style="fill:none;stroke:red;stroke-width:1.99999;stroke-linecap:round;stroke-linejoin:round;stroke-miterlimit:4;stroke-dasharray:none;stroke-opacity:1;visibility:visible" visibility="hidden"/><path d="m374.554 616.179-.027-.346-.037-.348-.055-.345-.065-.345-.067-.348-.083-.334-.089-.333-.107-.345-.108-.332-.134-.323-.134-.32-.145-.32-.145-.321-.164-.292-.186-.307-.172-.307-.2-.28-.216-.28-.2-.281-.225-.277-.227-.268-.24-.255-.238-.252-.254-.24-.254-.227-.266-.225-.28-.215-.281-.212-.295-.201-.29-.188-.294-.172-.308-.173-267.944-144-.32-.16-.32-.147-.347-.12-.372-.106-.15-.042-.532-.106-.561-.064-.547-.016-.559.03-.562.064-.558.106-.56.174-.548.202-.53.225-.534.293-.52.334-.48.345-.482.401-.454.44-.423.452-.401.495-.372.519-.334.546-.296.548-.265.572-.227.603-.2.61-.149.603-.119.624-.077.615-.043.612.012.628.043.573.079.56.12.548.16.546.173.505.228.495.24.493.279.439.321.426.333.403.372.36.388.333.427.308.427.264 2.053 1.146v-.012h.039l.041.024.065.016.08.04.108.053.04.03.026.009.041.014.025.012.028.028.054.012-.308 5.44-1.454.39-1.426.413-1.454.465-1.426.506-1.424.56-1.415.6-1.401.627-1.399.697-1.387.716-1.36.76-1.36.801-1.333.84-1.333.883-1.308.917-1.28.961-1.266.986-1.24 1.028-1.226 1.052-1.2 1.092-1.175 1.134-1.159 1.162-1.12 1.184-1.092 1.226-1.068 1.258-1.042 1.276-.999 1.308-.986 1.32-.946 1.358-.905 1.39-.882 1.384-.84 1.429-.813 1.439-.773 1.454-.747 1.479-.693 1.507-.667 1.505-.627 1.52-.587 1.534-.546 1.547-.522 1.56-.467 1.56-.425 1.573-.386 1.572-.357 1.587-.31 1.576-.267 1.587-.228 1.584-.171 1.586-.148 1.59-.104 1.573-.055 1.57-.014 1.575.026 1.559.068 1.548.107 1.52.146 1.505.187 1.508.227 1.48.265 1.467.307 1.455.348 1.435.388 1.415.423 1.415.47 1.372.492 1.363.534 1.317.573 1.32.612 1.295.64 1.252.679 1.228.722 1.212.748 1.174.786 1.159.813 1.107.84 1.094.895 1.054.785.908.732.785.761.761.774.746.798.733.801.692.174.147.653.533.506.415.333.252.841.629 12.2 7.065 1.17.695 1.191.639.387.193c.188.107.37.221.561.324 24.214 13.033 55.99 1.03 70.972-26.805 10.039-18.654 9.976-39.676 1.566-55.444l.38.212 115.24 64.213.024.013.309.172.173.095.08.04.613.348.267.144.053.028.027.012.773.441.12.067.187.108.944.52.323.17.986.561.252.134.376.212 82.345 45.88.306.163.32.157.32.147.321.148.32.12.333.107.334.106.333.095.347.09.333.068.345.067.347.04.347.039.35.03.358.024h.693l.344-.01.361-.03.334-.039.361-.055.333-.052.347-.081.347-.066.333-.093.333-.108.334-.107.333-.13.32-.132.32-.138.32-.16.305-.157.308-.176.294-.185.305-.187.281-.199.28-.214.279-.215.267-.237.254-.228.267-.252.239-.255.226-.253.24-.267.212-.269.215-.275.201-.297.2-.294.188-.292.17-.306.164-.308.145-.32.145-.303.134-.336.134-.317.12-.348.095-.335.09-.332.081-.348.068-.333.065-.348.055-.346.037-.348.027-.345.014-.36v-.696l-.014-.345" style="fill:none;fill-opacity:1;fill-rule:nonzero;stroke:#00ff4a;stroke-width:1.33333;visibility:visible"/><path d="m114.277 599.448-1.083.292-1.092.267h-.012l-1.08.241-.908.173-.2.042-1.092.186-1.106.171-1.094.135-1.106.105-1.107.093-.427.027-.666.028-1.095.04-1.093.012-.812-.012.093 2.387 3.773 2.545.172.095.186.065.201.053.228.014h.213l.24-.027.24-.025.251-.055.243-.052.226-.068.254-.077.238-.07.24-.081.256-.093.252-.089.266-.097.294-.103.28-.122.293-.108.294-.105.321-.12.318-.132.306-.107.295-.121.493-.175.507-.117.493-.123.507-.052.187-.028.198-.012h.188l.175-.027h.317l.295-.011h.44l.173.011h.267l.093.015.066-.015h.016l-.188-4.841-.227.068" style="fill:none;fill-opacity:1;fill-rule:nonzero;stroke:#00ff4a;stroke-width:1.33333;visibility:visible"/><path d="m141.042 504.959.124.18.114.17M102.426 466.604l.198.11.258.114.302.098.336.074.364.06.356.038.39.012h.41l.362-.026.355-.046.333-.066.304-.072.294-.085.27-.113.219-.119.186-.135.121-.121.09-.13.046-.128.01-.141-.02-.117-.078-.137-.112-.107-.146-.113-.168-.096-.208-.082-.248-.081-.266-.068-.294-.05-.293-.026-.31-.023-.331-.008-.351.009-.357.022-.354.049-.328.046-.312.078-.293.086-.268.082-.232.118-.223.118-.168.136-.113.132-.063.15v.142l.051.148.113.134.168.134M107.46 596.981l.132.074.172.075.201.065.225.05.242.04.238.026.26.008h.271l.241-.016.24-.033.219-.043.204-.048.196-.059.18-.073.147-.079.124-.09.078-.081.062-.084.03-.089.008-.093-.014-.078-.052-.093-.074-.07-.098-.076-.112-.064-.14-.054-.164-.053-.178-.047-.196-.033-.194-.016-.208-.017-.22-.006-.235.007-.237.016-.236.032-.22.03-.207.054-.195.056-.18.056-.154.075-.15.08-.112.09-.074.09-.042.1v.094l.034.099.076.087.112.09M144.152 506.69l.63 1.246.586 1.276.557 1.286.523 1.314.49 1.342.438 1.353.412 1.372.372 1.387.337 1.4.293 1.424.26 1.434.211 1.444.188 1.462.139 1.469.106 1.481.064 1.48.024 1.496-.014 1.501-.048 1.503-.092 1.509-.13 1.511-.161 1.505-.205 1.511-.246 1.51-.278 1.512-.316 1.51-.352 1.503-.395 1.492-.42 1.49-.465 1.48-.5 1.478-.536 1.458-.571 1.456-.604 1.443-.639 1.43-.67 1.41-.71 1.395-.733 1.39-.77 1.36-.797 1.347-.832 1.33-.865 1.307-.89 1.29-.923 1.263-.947 1.24-.977 1.217-1.006 1.189-1.026 1.168-1.058 1.148-1.074 1.11-1.099 1.084-1.13 1.059-1.15 1.022-1.168.996-1.192.964-1.207.929-1.224.897-1.246.862-1.259.833-1.283.803-1.29.756-1.302.722-1.322.694-1.331.644-1.347.61-1.356.58-1.36.53-1.365.5-1.379.453-1.387.421-1.387.374-1.39.332-1.394.297-1.396.253-1.403.208-1.393.165-1.399.131-1.388.083-1.393.041h-1.38l-1.379-.041-1.379-.083-1.364-.131-1.353-.173-1.347-.212-1.34-.25-1.324-.302-1.306-.336-1.295-.38-1.283-.427-1.264-.466-1.237-.508" style="fill:none;stroke:#00ff4a;stroke-width:.999997;stroke-linecap:round;stroke-linejoin:round;stroke-miterlimit:4;stroke-dasharray:none;stroke-opacity:1;visibility:visible"/><path d="m96.28 495.786 1.338-.42 1.334-.381 1.35-.334 1.345-.291 1.346-.238 1.35-.205 1.344-.159 1.347-.102 1.34-.066 1.331-.024 1.32.024 1.313.073 1.308.116 1.296.165 1.282.199 1.273.247 1.257.294 1.24.334 1.222.386 1.208.416 1.184.463 1.17.507 1.14.545 1.13.585 1.092.63 1.076.67 1.056.703 1.028.745.997.78.957.818.95.848.905.89.88.922.85.956.824.986.787 1.014.747 1.044.72 1.074.684 1.104.644 1.136.621 1.149.572 1.184.546 1.198.496 1.235.476 1.248.426 1.265.391 1.288.35 1.303.319 1.313.276 1.341.238 1.353.194 1.363.158 1.373.122 1.387.072 1.4.039 1.403v1.402l-.032 1.42-.079 1.42-.116 1.418-.154 1.424-.195 1.428-.236 1.418-.27 1.42-.312 1.42-.35 1.41-.383 1.407-.424 1.402-.457 1.388-.497 1.379-.532 1.37-.564 1.362-.602 1.348-.638 1.33-.67 1.316-.7 1.298-.733 1.28-.77 1.262-.799 1.246-.833 1.224-.858 1.197-.888 1.178-.913 1.151-.943 1.122-.965 1.105-.998 1.068-1.02 1.044-1.044 1.019-1.072.981-1.09.953-1.115.924-1.123.896-1.15.859-1.17.815-1.19.796-1.198.746-1.22.718-1.228.677-1.252.637-1.254.609-1.267.56-1.279.53-1.285.483-1.296.437-1.297.41-1.307.363-1.303.326-1.316.271-1.316.239-1.308.196-1.317.15-1.308.1-1.315.069-1.3.025-1.303-.025-1.287-.055-1.289-.114-1.274-.15-1.265-.195-1.256-.239-1.244-.281-1.222-.318-1.216-.37-1.198-.408-1.176-.447-1.167-.498-1.145-.532-1.116-.581-1.103-.61-1.077-.65-1.059-.696-1.03-.737-1.001-.774-.982-.808-.956-.848-.922-.882-.888-.912-.864-.956-.834-.987-.802-1.024-.762-1.041-.737-1.086-.7-1.112-.663-1.143-.627-1.165-.595-1.202-.555-1.223-.515-1.239-.48-1.276-.447-1.294-.393-1.316-.363-1.332-.326-1.353-.281-1.371-.24-1.389" style="fill:none;stroke:#00ff4a;stroke-width:.999997;stroke-linecap:round;stroke-linejoin:round;stroke-miterlimit:4;stroke-dasharray:none;stroke-opacity:1;visibility:visible"/><path d="m115.269 599.063-.227.069-1.092.29-1.097.266-1.09.232-1.104.224-1.091.19-1.106.159-1.098.137-1.106.115-1.1.086-1.096.061-1.098.033-1.094.008-1.085-.013-.227-.01M115.525 490.742l-.548.033-1.119.081-1.106.116-1.12.135-1.122.17-1.114.188-1.119.225-1.124.249-1.12.273-1.12.3-1.116.338-1.119.348-1.108.385-1.106.407-1.098.433-1.104.465-1.085.478-1.083.509-1.08.539-1.068.556-1.062.585-1.05.613-1.046.63-1.038.659-1.028.675-1.02.714-1.005.726-.995.742-.977.776-.963.789-.958.81-.935.831-.925.85-.914.874-.897.898-.879.904-.866.938-.85.948-.83.974-.82.976-.798 1.004-.773 1.01-.763 1.028-.74 1.044-.718 1.064-.704 1.07-.679 1.085-.657 1.101-.646 1.117-.62 1.126-.595 1.136-.582 1.15-.555 1.15-.528 1.169-.506 1.176-.49 1.176-.459 1.19-.436 1.19-.42 1.203-.391 1.205-.365 1.21-.344 1.214-.32 1.225-.294 1.225-.275 1.223-.246 1.232-.219 1.223-.197 1.235-.17 1.224-.141 1.221-.125 1.225-.092 1.214-.075 1.23-.042 1.214-.023 1.217.008 1.205.032 1.21.055 1.2.084 1.19.101 1.184.131 1.175.156 1.168.182 1.16.202 1.15.232 1.134.252 1.133.278 1.118.295 1.113.322 1.09.35 1.086.38 1.069.39 1.06.425 1.038.441 1.024.457 1.017.49.987.506.981.52.963.557.945.571.925.588.915.61.893.637.871.654.852.676.839.686.817.71.793.726.764.744.756.742.72.76.682.782.677.792.652.81.63.811.601.841.586" style="fill:none;stroke:#00ff4a;stroke-width:1.99999;stroke-linecap:round;stroke-linejoin:round;stroke-miterlimit:4;stroke-dasharray:none;stroke-opacity:1;visibility:visible"/><path d="m104.933 605.855-.207-4.995M141.28 505.31l-.238-.351M106.53 490.162l-.295.056-.302.057-.315.059-.328.049-.309.03-.317.032-.314.038-.318.015-.283.017-.279.007h-.537l-.265-.007-.25-.01-.255-.015-.243-.024-.262-.036-.242-.04-.24-.048-.227-.047-.227-.068-.212-.07-.19-.084-.164-.079M99.824 481.924l.332 8.07M100.156 489.994l-3.884-2.198M96.272 487.796l-.163-.106-.139-.114-.1-.108-.073-.112-.047-.121-.025-.148M369.524 606.841l-.53-.254-.556-.202-.588-.148-.596-.09-.616-.039-.63.027-.641.07-.642.13-.649.18-.649.235-.644.295-.639.335-.624.39-.616.435-.596.485-.568.521-.55.559-.52.599-.5.626-.464.66-.424.687-.392.709-.35.738-.31.741-.269.754-.231.756-.178.768-.132.757-.09.762-.04.74.01.733.052.717.102.698.148.665.193.645.236.615.281.579.318.537.366.499.398.45.436.415.466.36.502.31M111.06 488.599l-.015.117-.068.124-.085.116-.134.102-.156.1-.186.09-.212.091-.247.085-.287.096-.306.076-.379.086-.39.07" style="fill:none;stroke:#00ff4a;stroke-width:.999997;stroke-linecap:round;stroke-linejoin:round;stroke-miterlimit:4;stroke-dasharray:none;stroke-opacity:1;visibility:visible"/><path d="m108.594 489.752-1.036.2-1.03.21" style="fill:none;stroke:#00ff4a;stroke-width:.999997;stroke-linecap:round;stroke-linejoin:round;stroke-miterlimit:4;stroke-dasharray:none;stroke-opacity:1;visibility:visible"/><path d="m95.636 485.15.09 1.936" style="fill:none;stroke:#00ff4a;stroke-width:1.99999;stroke-linecap:round;stroke-linejoin:round;stroke-miterlimit:4;stroke-dasharray:none;stroke-opacity:1;visibility:visible"/><path d="m111.053 488.244.007.356" style="fill:none;stroke:#00ff4a;stroke-width:.999997;stroke-linecap:round;stroke-linejoin:round;stroke-miterlimit:4;stroke-dasharray:none;stroke-opacity:1;visibility:visible"/><path d="m95.402 479.519.234 5.631M99.824 481.924l.126.07.132.078.14.088.146.084.152.092.141.087.319.187.178.116.19.108.212.12.22.125M95.938 479.758l3.886 2.166M95.402 479.519l.006-.007.032.008.041.015.061.024.088.037.102.055M95.732 479.65l.034.018.031.015.035.015.03.017.032.024.044.019M93.341 478.375l-.351-.205-.336-.235-.326-.255-.299-.265-.293-.295-.28-.302-.252-.33-.232-.333-.219-.359-.203-.366-.172-.374-.164-.39-.137-.412-.127-.416-.092-.432-.076-.432-.057-.444-.03-.442-.011-.452.011-.456.029-.458.058-.458.084-.466.1-.448.119-.456.14-.45.163-.444.188-.428.2-.429.233-.415.245-.404.262-.393.274-.376.295-.368.312-.35.325-.327.343-.316.353-.296.364-.276.375-.255.383-.236.402-.21.4-.194.408-.169.408-.144.422-.115.418-.1.422-.072.418-.04.423-.028h.421l.412.037.41.047.4.08.352.084.341.115.343.122.325.147.32.153M369.524 606.841l.311.172.29.179.295.187.296.198.276.213.28.213.269.226.251.227.254.247.245.242.235.266.232.257.217.279.212.281.205.281.198.288.178.303.18.3.163.3.157.319.147.318.127.319.132.324.106.34.106.332.098.336.08.344.066.34.064.343.05.344.044.35.023.351.017.35.007.34-.007.355-.017.349-.023.352-.044.351-.05.343-.064.34-.067.343-.079.346-.098.332-.098.336-.114.335-.132.328-.127.327-.147.318-.157.316-.163.304-.172.307-.186.293-.198.296-.198.29-.21.279-.218.275-.232.266-.235.253-.244.252-.253.247-.26.234-.27.233-.274.22-.282.203-.286.202-.295.188-.3.192-.301.17-.31.166-.321.149-.317.139-.328.138-.328.124-.334.112-.336.1-.333.092-.341.079-.344.072-.344.059-.35.049-.342.039-.35.022-.354.025h-.699l-.352-.03-.35-.024-.342-.041-.351-.045-.344-.069-.344-.065-.333-.09-.344-.088-.323-.107-.336-.112-.328-.124-.316-.14-.322-.145-.316-.158-.304-.163M101.78 483.079 358.8 626.29M93.341 478.375l2.061 1.152M101.585 462.846l170.581 91.814M276.875 557.053l92.65 49.79M115.457 603.897l-.188-4.834M100.605 602.148l-.047-1.236M100.605 602.148l.025.27.058.23.072.187.1.17.128.158.084.082.086.063M101.16 603.308l3.773 2.548M104.933 605.855l.17.1.19.062.203.05.22.017h.217l.241-.028.234-.03.256-.05.234-.056.238-.065.244-.075.245-.073.237-.079.251-.093.264-.088.26-.099.293-.104.286-.115.292-.106.294-.113.32-.125.312-.122.31-.115.29-.112M113.034 603.97l-.508.055-.496.111-.506.13-.492.17M113.034 603.97l.196-.024.187-.014.19-.01.181-.018.316-.004.291-.011h.445l.169.011.148.005h.12l.09.01.067-.01h.015l.007-.005M68.146 586.855l-.864-.61-.857-.63-.833-.662-.825-.677-.803-.7-.792-.725-.779-.747-.757-.765-.736-.79-.72-.805-.701-.835-.676-.849-.663-.867-.633-.87-.615-.903-.592-.919-.581-.931-.555-.955-.53-.971-.514-.987-.492-1.005-.465-1.017-.448-1.03-.426-1.053-.389-1.052-.378-1.068-.359-1.09-.328-1.096-.307-1.114-.279-1.125-.261-1.134-.235-1.146-.203-1.158-.187-1.153-.164-1.176-.135-1.187-.112-1.182-.082-1.191-.067-1.192-.031-1.21-.016-1.206.016-1.216.044-1.219.063-1.22.089-1.234.115-1.22.137-1.239.167-1.23.185-1.224.22-1.233.24-1.227.257-1.223.286-1.215.32-1.224.335-1.212.36-1.21.39-1.219.413-1.202.429-1.196.458-1.191.48-1.184.5-1.177.523-1.163.544-1.151.569-1.144.59-1.136.61-1.124.635-1.12.657-1.099.676-1.094.695-1.08.718-1.059.733-1.051.76-1.04.774-1.018.793-.996.808-.986.826-.97.839-.954.858-.926.88-.914.888-.9.913-.882.925-.862.936-.834.955-.824.965-.798.978-.776.986-.75 1.006-.737 1.013-.699 1.019-.69 1.03-.66 1.043-.646 1.055-.608 1.068-.598 1.07-.57 1.074-.543 1.098-.517 1.09-.498 1.097-.465 1.099-.439 1.113-.42 1.108-.39 1.113-.366 1.114-.336 1.126-.312 1.004-.261M100.558 600.91l-.857-.03-1.08-.08-1.076-.085-1.07-.125-1.057-.146-1.057-.17-1.053-.204-1.044-.222-1.036-.256-1.03-.272-1.028-.303-1.002-.327-1.004-.358-.99-.373-.976-.412-.964-.424-.88-.419-.873-.437-.861-.46-.856-.48-.828-.499-.834-.523-.809-.535M155.7 513.13l.078.148.467.986.459 1.002.436 1.01.405 1.036.39 1.05.368 1.05.347 1.07.32 1.08.295 1.098.28 1.1.25 1.113.234 1.115.203 1.127.184 1.137.158 1.133.13 1.148.115 1.16.089 1.16.062 1.17.043 1.173.019 1.179-.015 1.18-.02 1.182-.057 1.19-.07 1.192-.102 1.184-.122 1.192-.148 1.192-.17 1.181-.19 1.192-.216 1.192-.238 1.19-.262 1.186-.286 1.181-.3 1.184-.332 1.187-.354 1.173-.368 1.168-.4 1.16-.406 1.154-.443 1.144-.459 1.144-.477 1.137-.497 1.123-.526 1.12-.54 1.11-.562 1.11-.576 1.09-.607 1.081-.621 1.076-.634 1.053-.661 1.056-.67 1.029-.695 1.019-.709 1.012-.729.993-.748.98-.761.963-.781.952-.803.943-.807.918-.83.91-.84.888-.856.873-.879.856-.877.835-.898.815-.906.798-.932.784-.93.762-.956.744-.962.723-.97.7-.98.677-.996.67-1.004.637-1.014.621-1.018.595-1.029.572-1.035.547-1.044.529-1.044.508-1.06.483-1.065.453-1.076.444-1.075.413-1.081.386-1.084.366-1.097.335-.863.25M78.293 593.77l-10.145-6.918" style="fill:none;stroke:#00ff4a;stroke-width:1.99999;stroke-linecap:round;stroke-linejoin:round;stroke-miterlimit:4;stroke-dasharray:none;stroke-opacity:1;visibility:visible"/><path d="m115.269 599.062-.992.386M115.269 599.063l-.992.385" style="fill:none;fill-opacity:1;fill-rule:nonzero;stroke:#00ff4a;stroke-width:1.33333;visibility:visible"/><path d="m101.585 462.844.841 3.76M104.933 605.856l2.527-8.875M101.16 603.308l6.3-6.328M95.634 485.151l.646 10.635M100.605 602.148l4.121-1.288" style="fill:none;stroke:#00ff4a;stroke-width:.999997;stroke-linecap:round;stroke-linejoin:round;stroke-miterlimit:4;stroke-dasharray:none;stroke-opacity:1;visibility:visible"/><path d="m276.875 557.053-4.709-2.393M272.166 554.66l4.709 2.393" style="fill:none;stroke:#00ff4a;stroke-width:1.99999;stroke-linecap:round;stroke-linejoin:round;stroke-miterlimit:4;stroke-dasharray:none;stroke-opacity:1;visibility:visible"/></svg>