<svg xmlns="http://www.w3.org/2000/svg" baseProfile="full" height="1122.52" preserveAspectRatio="xMinYMin meet" style="width:602px;height:832px" width="793.701" xml:space="preserve"><path d="m288.588 976.114 11.975 12.497M301.385 988.896l17.572-8.902M300.996 989.037l-.436-317.362" style="fill:none;stroke:red;stroke-width:.999997;stroke-linecap:round;stroke-linejoin:round;stroke-miterlimit:4;stroke-dasharray:none;stroke-opacity:1;visibility:visible" visibility="hidden"/><path d="M287.271 662.868c5.419-1.67 11.343-3.756 17.459-5.65M318.93 979.372l-.335-313.487M288.413 975.458l-1.426-312.38" style="fill:none;stroke:red;stroke-width:1.99999;stroke-linecap:round;stroke-linejoin:round;stroke-miterlimit:4;stroke-dasharray:none;stroke-opacity:1;visibility:visible" visibility="hidden"/><path d="m287.4 663.006 13.07 8.558M300.805 671.334l17.849-5.64" style="fill:none;stroke:red;stroke-width:.999997;stroke-linecap:round;stroke-linejoin:round;stroke-miterlimit:4;stroke-dasharray:none;stroke-opacity:1;visibility:visible" visibility="hidden"/><path d="m304.985 657.201 13.473 8.273" style="fill:none;stroke:red;stroke-width:1.99999;stroke-linecap:round;stroke-linejoin:round;stroke-miterlimit:4;stroke-dasharray:none;stroke-opacity:1;visibility:visible" visibility="hidden"/><path d="m299.07 1002.84 385.456-198.292" style="fill:none;stroke:#00ff4a;stroke-width:1.99999;stroke-linecap:round;stroke-linejoin:round;stroke-miterlimit:4;stroke-dasharray:none;stroke-opacity:1;visibility:visible" visibility="hidden"/><path d="m653.207 763.814-160.609-88.12M125.342 811.71l173.085 182.2" style="fill:none;stroke:#00ff4a;stroke-width:.999997;stroke-linecap:round;stroke-linejoin:round;stroke-miterlimit:4;stroke-dasharray:none;stroke-opacity:1;visibility:visible" visibility="hidden"/><path d="m125.232 818.51 173.562 184.5" style="fill:none;stroke:#00ff4a;stroke-width:1.99999;stroke-linecap:round;stroke-linejoin:round;stroke-miterlimit:4;stroke-dasharray:none;stroke-opacity:1;visibility:visible" visibility="hidden"/><path d="m147.444 801.417 140.181 141.265M147.939 807.013l139.689 140.984M147.556 822.937l140.153 145.07" style="fill:none;stroke:#00ff4a;stroke-width:.999997;stroke-linecap:round;stroke-linejoin:round;stroke-miterlimit:4;stroke-dasharray:none;stroke-opacity:1;visibility:visible" visibility="hidden"/><path d="m653.262 758.655-156.245-85.013M152.886 796.874 287.93 930.455" style="fill:none;stroke:#00ff4a;stroke-width:1.99999;stroke-linecap:round;stroke-linejoin:round;stroke-miterlimit:4;stroke-dasharray:none;stroke-opacity:1;visibility:visible" visibility="hidden"/><path d="m319.366 944.153 342.96-166.992M319.33 951.842l343.68-168.314M319.27 975.5l343.517-173.27M298.93 994.295 684.232 798.11M638.672 783.309l-145.406-83.232" style="fill:none;stroke:#00ff4a;stroke-width:.999997;stroke-linecap:round;stroke-linejoin:round;stroke-miterlimit:4;stroke-dasharray:none;stroke-opacity:1;visibility:visible" visibility="hidden"/><path d="m319.538 937.549 338.74-163.426" style="fill:none;stroke:#00ff4a;stroke-width:1.99999;stroke-linecap:round;stroke-linejoin:round;stroke-miterlimit:4;stroke-dasharray:none;stroke-opacity:1;visibility:visible" visibility="hidden"/><path d="M298.768 994.319v8.416M172.996 815.928l113.102-42.742M319.788 760.454l164.246-62.065M160.105 792.15l125.877-45.601M319.777 734.306l164.088-59.445" style="fill:none;stroke:#00ff4a;stroke-width:.999997;stroke-linecap:round;stroke-linejoin:round;stroke-miterlimit:4;stroke-dasharray:none;stroke-opacity:1;visibility:visible" visibility="hidden"/><path d="m685.266 797.698-.076 6.443M125.014 811.767l.106 6.508" style="fill:none;stroke:#00ff4a;stroke-width:1.99999;stroke-linecap:round;stroke-linejoin:round;stroke-miterlimit:4;stroke-dasharray:none;stroke-opacity:1;visibility:visible" visibility="hidden"/><path d="m663.082 801.685.048-2.655M663.376 779.914l.054-3.19M663.129 799.029l.213-12.492M663.342 786.537l.055-3.159s-.948-.65-.93-1.65c.01-.499.243-1.081.483-1.55" style="fill:none;stroke:#00ff4a;stroke-width:.999997;stroke-linecap:round;stroke-linejoin:round;stroke-miterlimit:4;stroke-dasharray:none;stroke-opacity:1;visibility:visible" visibility="hidden"/><path d="m483.944 674.221-3.42-1.883" style="fill:none;stroke:#00ff4a;stroke-width:1.99999;stroke-linecap:round;stroke-linejoin:round;stroke-miterlimit:4;stroke-dasharray:none;stroke-opacity:1;visibility:visible" visibility="hidden"/><path d="m319.356 947.233 343.797-167.527M663.422 776.664l-4.896-2.711" style="fill:none;stroke:#00ff4a;stroke-width:.999997;stroke-linecap:round;stroke-linejoin:round;stroke-miterlimit:4;stroke-dasharray:none;stroke-opacity:1;visibility:visible" visibility="hidden"/><path d="m684.908 797.231-4.694-2.638" style="fill:none;stroke:#00ff4a;stroke-width:1.99999;stroke-linecap:round;stroke-linejoin:round;stroke-miterlimit:4;stroke-dasharray:none;stroke-opacity:1;visibility:visible" visibility="hidden"/><path d="m147.421 799.495.01 1.982s.749 1.151.756 2.481c.006 1.208-.729 2.607-.729 2.607l.084 15.838" style="fill:none;stroke:#00ff4a;stroke-width:.999997;stroke-linecap:round;stroke-linejoin:round;stroke-miterlimit:4;stroke-dasharray:none;stroke-opacity:1;visibility:visible" visibility="hidden"/><path d="m159.521 788.004 126.566-45.555M319.509 730.42l160.916-57.92" style="fill:none;stroke:#00ff4a;stroke-width:1.99999;stroke-linecap:round;stroke-linejoin:round;stroke-miterlimit:4;stroke-dasharray:none;stroke-opacity:1;visibility:visible" visibility="hidden"/><path d="m147.638 798.907 5.378-1.966" style="fill:none;stroke:#00ff4a;stroke-width:.999997;stroke-linecap:round;stroke-linejoin:round;stroke-miterlimit:4;stroke-dasharray:none;stroke-opacity:1;visibility:visible" visibility="hidden"/><path d="m492.46 675.305 4.557-1.661" style="fill:none;stroke:#00ff4a;stroke-width:1.99999;stroke-linecap:round;stroke-linejoin:round;stroke-miterlimit:4;stroke-dasharray:none;stroke-opacity:1;visibility:visible" visibility="hidden"/><path d="M147.553 799.254 287.65 939.462" style="fill:none;stroke:#00ff4a;stroke-width:.666665;stroke-linecap:round;stroke-linejoin:round;stroke-miterlimit:4;stroke-dasharray:none;stroke-opacity:1;visibility:visible" visibility="hidden"/><path d="m492.455 675.544.075 1.532M484.208 674.845l.077 1.433M125.22 811.114l6.922-2.53" style="fill:none;stroke:#00ff4a;stroke-width:1.99999;stroke-linecap:round;stroke-linejoin:round;stroke-miterlimit:4;stroke-dasharray:none;stroke-opacity:1;visibility:visible" visibility="hidden"/><path d="m493.04 678.633.19 16.393" style="fill:none;stroke:#00ff4a;stroke-width:.999997;stroke-linecap:round;stroke-linejoin:round;stroke-miterlimit:4;stroke-dasharray:none;stroke-opacity:1;visibility:visible" visibility="hidden"/><path d="m467.048 681.828 16.036-5.868 9.926.851" style="fill:none;stroke:#00ff4a;stroke-width:1.33333;stroke-linecap:round;stroke-linejoin:round;stroke-miterlimit:4;stroke-dasharray:none;stroke-opacity:1;visibility:visible" visibility="hidden"/><path d="m467.496 701.294 15.75-5.762" style="fill:none;stroke:#00ff4a;stroke-width:.999997;stroke-linecap:round;stroke-linejoin:round;stroke-miterlimit:4;stroke-dasharray:none;stroke-opacity:1;visibility:visible" visibility="hidden"/><path d="m466.663 682.124.221 19.325M506.499 684.318l-13.32-7.377" style="fill:none;stroke:#00ff4a;stroke-width:1.33333;stroke-linecap:round;stroke-linejoin:round;stroke-miterlimit:4;stroke-dasharray:none;stroke-opacity:1;visibility:visible" visibility="hidden"/><path d="m483.212 678.108.172 15.972" style="fill:none;stroke:#00ff4a;stroke-width:.999997;stroke-linecap:round;stroke-linejoin:round;stroke-miterlimit:4;stroke-dasharray:none;stroke-opacity:1;visibility:visible" visibility="hidden"/><path d="m506.51 684.497.245 19.841" style="fill:none;stroke:#00ff4a;stroke-width:1.33333;stroke-linecap:round;stroke-linejoin:round;stroke-miterlimit:4;stroke-dasharray:none;stroke-opacity:1;visibility:visible" visibility="hidden"/><path d="m492.91 696.788.045 3.046M484.458 695.621l.042 2.787M483.407 695.618l3.541.38M489.271 696.245l3.868.417 13.106 7.451M506.505 684.264l.003.234" style="fill:none;stroke:#00ff4a;stroke-width:.999997;stroke-linecap:round;stroke-linejoin:round;stroke-miterlimit:4;stroke-dasharray:none;stroke-opacity:1;visibility:visible" visibility="hidden"/><path d="m487.685 676.084-.112-7.454M486.92 682.556a2.175 2.175 0 0 1-.683-1.61c0-1.149.831-2.076 1.853-2.076 1.025 0 1.855.927 1.855 2.076 0 .708-.314 1.331-.798 1.706M488.935 689.007c.602.346 1.01 1.043 1.01 1.851a2.2 2.2 0 0 1-.54 1.466M487.065 692.584c-.5-.37-.828-1.006-.828-1.727 0-.77.375-1.443.93-1.8M473.304 692.32l-.38-.435M472.656 691.718a.533.533 0 0 1 .267.167M470.364 693.15c.153-.356.376-.658.653-.9.276-.245.607-.425.98-.532M471.996 691.718a1.315 1.315 0 0 1 .66 0M473.305 692.32a1.045 1.045 0 0 1 .255.562M473.561 692.882a1.419 1.419 0 0 1-.096.696M473.465 693.58a2.344 2.344 0 0 1-.582.798 2.353 2.353 0 0 1-.874.475M470.783 694.526l-.38-.436M470.403 694.09a.527.527 0 0 1-.133-.29M470.27 693.8a1.27 1.27 0 0 1 .094-.65M472.009 694.852a1.421 1.421 0 0 1-.702.002M471.307 694.854a1.043 1.043 0 0 1-.524-.328M171.282 804.661l-.38-.435M168.342 805.491a2.512 2.512 0 0 1 1.632-1.431M169.974 804.06a1.315 1.315 0 0 1 .66 0M171.282 804.661a1.04 1.04 0 0 1 .258.562M171.54 805.223a1.413 1.413 0 0 1-.096.695M171.444 805.919a2.34 2.34 0 0 1-.584.801 2.337 2.337 0 0 1-.872.473M168.76 806.866l-.38-.436M168.381 806.43a.52.52 0 0 1-.133-.291" style="fill:none;stroke:#00ff4a;stroke-width:.666665;stroke-linecap:round;stroke-linejoin:round;stroke-miterlimit:2;stroke-dasharray:none;stroke-opacity:1;visibility:visible" visibility="hidden"/><path d="M168.248 806.14a1.28 1.28 0 0 1 .094-.649M169.988 807.193a1.453 1.453 0 0 1-.703.002M169.285 807.196a1.045 1.045 0 0 1-.525-.331M171.402 794.781l-.38-.435M168.463 795.611a2.512 2.512 0 0 1 1.63-1.431M170.094 794.179a1.31 1.31 0 0 1 .659.001M171.402 794.781c.146.169.12-.235.138-.044M171.66 795.343a1.413 1.413 0 0 1-.096.695M171.564 796.039a2.34 2.34 0 0 1-.584.801 2.316 2.316 0 0 1-.872.47M168.88 796.986l-.38-.436M168.501 796.55a.52.52 0 0 1-.133-.291" style="fill:none;stroke:#00ff4a;stroke-width:.666665;stroke-linecap:round;stroke-linejoin:round;stroke-miterlimit:2;stroke-dasharray:none;stroke-opacity:1;visibility:visible" visibility="hidden"/><path d="M168.368 796.26a1.28 1.28 0 0 1 .094-.649M170.108 797.311a1.421 1.421 0 0 1-.703.003M169.404 797.314a1.028 1.028 0 0 1-.522-.328M473.304 684.948l-.38-.435M472.656 684.346a.516.516 0 0 1 .268.167M470.364 685.778a2.512 2.512 0 0 1 1.632-1.432M471.996 684.346a1.315 1.315 0 0 1 .66 0M473.305 684.948a1.04 1.04 0 0 1 .255.562M473.561 685.51a1.413 1.413 0 0 1-.096.695M473.465 686.206a2.337 2.337 0 0 1-.582.801 2.332 2.332 0 0 1-.874.471M470.783 687.153l-.38-.437M470.403 686.716a.519.519 0 0 1-.133-.29M470.27 686.426a1.267 1.267 0 0 1 .094-.648M472.009 687.478a1.421 1.421 0 0 1-.702.003M471.307 687.481a1.035 1.035 0 0 1-.524-.328M500.031 694.015l.377-.435M500.676 693.412a.515.515 0 0 0-.268.17M502.968 694.844a2.504 2.504 0 0 0-.65-.902 2.573 2.573 0 0 0-.984-.53M501.335 693.412a1.31 1.31 0 0 0-.659 0M500.031 694.016a.988.988 0 0 0-.258.56M499.773 694.576a1.36 1.36 0 0 0 .097.694M499.87 695.271c.137.312.335.582.58.801.25.218.545.376.875.474M502.55 696.218l.38-.437M502.93 695.78a.515.515 0 0 0 .131-.286M503.061 695.494a1.261 1.261 0 0 0-.093-.65M501.325 696.545c.211.061.452.059.7.005M502.025 696.549a1.028 1.028 0 0 0 .525-.329M642.785 778.95l.377-.434M643.432 778.346a.513.513 0 0 0-.27.169M645.722 779.778a2.515 2.515 0 0 0-.65-.901 2.577 2.577 0 0 0-.982-.53M644.09 778.346a1.31 1.31 0 0 0-.658 0M642.785 778.95a.997.997 0 0 0-.257.56M642.527 779.51a1.373 1.373 0 0 0 .098.695M645.684 780.716a.513.513 0 0 0 .133-.287M645.817 780.428a1.263 1.263 0 0 0-.095-.649M642.785 765.122l.377-.434M643.432 764.518a.513.513 0 0 0-.27.17M645.722 765.95a2.504 2.504 0 0 0-1.632-1.432M644.09 764.518a1.31 1.31 0 0 0-.658 0M642.785 765.122a.997.997 0 0 0-.257.56M642.528 765.683a1.373 1.373 0 0 0 .096.693M642.624 766.377a2.333 2.333 0 0 0 .581.803c.25.216.545.374.875.473M645.304 767.325l.38-.437M645.684 766.887a.517.517 0 0 0 .133-.287" style="fill:none;stroke:#00ff4a;stroke-width:.666665;stroke-linecap:round;stroke-linejoin:round;stroke-miterlimit:2;stroke-dasharray:none;stroke-opacity:1;visibility:visible" visibility="hidden"/><path d="M645.817 766.6a1.263 1.263 0 0 0-.095-.65M644.08 767.653c.21.06.453.057.7.003M644.78 767.656a1.023 1.023 0 0 0 .524-.331M500.031 686.804l.377-.434M500.676 686.2a.533.533 0 0 0-.268.17M502.968 687.633a2.493 2.493 0 0 0-1.633-1.433M501.335 686.2a1.31 1.31 0 0 0-.659 0M500.031 686.805a.988.988 0 0 0-.258.56M499.773 687.366a1.36 1.36 0 0 0 .097.694M499.87 688.06c.137.312.335.582.58.802.25.216.545.375.875.474M502.55 689.008l.38-.438M502.93 688.57a.52.52 0 0 0 .131-.286M503.061 688.284a1.259 1.259 0 0 0-.093-.65M501.325 689.336c.211.06.452.057.7.002M502.025 689.338a1.028 1.028 0 0 0 .525-.33" style="fill:none;stroke:#00ff4a;stroke-width:.666665;stroke-linecap:round;stroke-linejoin:round;stroke-miterlimit:2;stroke-dasharray:none;stroke-opacity:1;visibility:visible" visibility="hidden"/><path d="m176.375 787.417-15.923 5.86M160.453 798.643l-2.048 3.282" style="fill:none;stroke:#00ff4a;stroke-width:1.33333;stroke-linecap:round;stroke-linejoin:round;stroke-miterlimit:4;stroke-dasharray:none;stroke-opacity:1;visibility:visible" visibility="hidden"/><path d="m176.777 810.155-8.13 3.026M176.688 787.412l.088 22.745" style="fill:none;stroke:#00ff4a;stroke-width:.999997;stroke-linecap:round;stroke-linejoin:round;stroke-miterlimit:4;stroke-dasharray:none;stroke-opacity:1;visibility:visible" visibility="hidden"/><path d="m160.649 800.378.019 3.125" style="fill:none;stroke:#00ff4a;stroke-width:.666665;stroke-linecap:round;stroke-linejoin:round;stroke-miterlimit:4;stroke-dasharray:none;stroke-opacity:1;visibility:visible" visibility="hidden"/><path d="m653.206 764.9-12.914-7.082" style="fill:none;stroke:#00ff4a;stroke-width:1.33333;stroke-linecap:round;stroke-linejoin:round;stroke-miterlimit:4;stroke-dasharray:none;stroke-opacity:1;visibility:visible" visibility="hidden"/><path d="m639.725 757.898.365 22.878M641.281 781.672l-1.037-.532" style="fill:none;stroke:#00ff4a;stroke-width:.999997;stroke-linecap:round;stroke-linejoin:round;stroke-miterlimit:4;stroke-dasharray:none;stroke-opacity:1;visibility:visible" visibility="hidden"/><path d="m652.121 768.182 1.579 7.55" style="fill:none;stroke:#00ff4a;stroke-width:1.33333;stroke-linecap:round;stroke-linejoin:round;stroke-miterlimit:4;stroke-dasharray:none;stroke-opacity:1;visibility:visible" visibility="hidden"/><path d="M651.332 770.198v7.394M506.507 684.264l2.542-1.47M467.048 681.83l-2.541-1.746M176.688 787.412l-3.062-2.086" style="fill:none;stroke:#00ff4a;stroke-width:.999997;stroke-linecap:round;stroke-linejoin:round;stroke-miterlimit:4;stroke-dasharray:none;stroke-opacity:1;visibility:visible" visibility="hidden"/><path d="m640.916 757.404 2.996-1.036" style="fill:none;stroke:#00ff4a;stroke-width:.666665;stroke-linecap:round;stroke-linejoin:round;stroke-miterlimit:2;stroke-dasharray:none;stroke-opacity:1;visibility:visible" visibility="hidden"/><path d="m658.526 773.953-5.319-10.139" style="fill:none;stroke:#00ff4a;stroke-width:.999997;stroke-linecap:round;stroke-linejoin:round;stroke-miterlimit:4;stroke-dasharray:none;stroke-opacity:1;visibility:visible" visibility="hidden"/><path d="m640.292 757.818 12.97.837" style="fill:none;stroke:#00ff4a;stroke-width:1.99999;stroke-linecap:round;stroke-linejoin:round;stroke-miterlimit:4;stroke-dasharray:none;stroke-opacity:1;visibility:visible" visibility="hidden"/><path d="m640.244 781.14-1.572 2.169M176.777 810.155l-3.781 5.773M153.016 796.941l7.09-4.791" style="fill:none;stroke:#00ff4a;stroke-width:.999997;stroke-linecap:round;stroke-linejoin:round;stroke-miterlimit:4;stroke-dasharray:none;stroke-opacity:1;visibility:visible" visibility="hidden"/><path d="m153.016 796.941 6.505-8.937M483.212 678.108l1.073-1.83M147.638 798.907l-15.496 9.677" style="fill:none;stroke:#00ff4a;stroke-width:1.99999;stroke-linecap:round;stroke-linejoin:round;stroke-miterlimit:4;stroke-dasharray:none;stroke-opacity:1;visibility:visible" visibility="hidden"/><path d="m492.53 677.076.51 1.557M492.91 696.788l.32-1.762M484.285 676.278l-1.073 1.83M484.458 695.621l-1.074-1.541M493.23 695.026l-.32 1.762M483.384 694.08l1.074 1.541M489.271 696.245l-2.323-.247M486.948 695.998l2.323.247" style="fill:none;stroke:#00ff4a;stroke-width:.999997;stroke-linecap:round;stroke-linejoin:round;stroke-miterlimit:4;stroke-dasharray:none;stroke-opacity:1;visibility:visible" visibility="hidden"/><path d="m484.208 674.845 3.477 1.239M484.285 676.278l3.288-7.648M483.944 674.221l4.991 14.786M500.031 694.016l-10.626-1.692M506.507 684.264l-19.34 4.793" style="fill:none;stroke:#00ff4a;stroke-width:.666665;stroke-linecap:round;stroke-linejoin:round;stroke-miterlimit:2;stroke-dasharray:none;stroke-opacity:1;visibility:visible" visibility="hidden"/><path d="m153.016 796.941 7.436-3.664" style="fill:none;stroke:#00ff4a;stroke-width:1.33333;stroke-linecap:round;stroke-linejoin:round;stroke-miterlimit:4;stroke-dasharray:none;stroke-opacity:1;visibility:visible" visibility="hidden"/><path d="m169.974 804.06-1.327 9.121" style="fill:none;stroke:#00ff4a;stroke-width:.999997;stroke-linecap:round;stroke-linejoin:round;stroke-miterlimit:4;stroke-dasharray:none;stroke-opacity:1;visibility:visible" visibility="hidden"/><path d="m176.776 810.157-16.127-9.779M147.421 799.495l13.247 4.008" style="fill:none;stroke:#00ff4a;stroke-width:.666665;stroke-linecap:round;stroke-linejoin:round;stroke-miterlimit:4;stroke-dasharray:none;stroke-opacity:1;visibility:visible" visibility="hidden"/><path d="m658.526 773.953-5.32-9.053" style="fill:none;stroke:#00ff4a;stroke-width:1.33333;stroke-linecap:round;stroke-linejoin:round;stroke-miterlimit:4;stroke-dasharray:none;stroke-opacity:1;visibility:visible" visibility="hidden"/><path d="m658.526 773.953-17.245 7.719M640.09 780.776l11.242-10.578M663.43 776.724l-12.098.868" style="fill:none;stroke:#00ff4a;stroke-width:.999997;stroke-linecap:round;stroke-linejoin:round;stroke-miterlimit:4;stroke-dasharray:none;stroke-opacity:1;visibility:visible" visibility="hidden"/><path d="m643.432 764.518.48-8.15" style="fill:none;stroke:#00ff4a;stroke-width:.666665;stroke-linecap:round;stroke-linejoin:round;stroke-miterlimit:2;stroke-dasharray:none;stroke-opacity:1;visibility:visible" visibility="hidden"/><path d="m132.702 813.412 10.078 10.517M131.958 559.269l9.334 6.238" style="fill:none;stroke:#9500ff;stroke-width:.999997;stroke-linecap:round;stroke-linejoin:round;stroke-miterlimit:4;stroke-dasharray:none;stroke-opacity:1;visibility:visible" visibility="hidden"/><path d="m148.282 555.554 9.162 5.926M131.5 559.515l1.34 253.302M131.62 559.188l16.188-3.717" style="fill:none;stroke:#9500ff;stroke-width:1.99999;stroke-linecap:round;stroke-linejoin:round;stroke-miterlimit:4;stroke-dasharray:none;stroke-opacity:1;visibility:visible" visibility="hidden"/><path d="m142.062 565.748 14.899-3.547M141.609 565.89l1.365 257.816M143.377 823.937l3.4-1.279" style="fill:none;stroke:#9500ff;stroke-width:.999997;stroke-linecap:round;stroke-linejoin:round;stroke-miterlimit:4;stroke-dasharray:none;stroke-opacity:1;visibility:visible" visibility="hidden"/><path d="M157.829 561.82s1.043 176.812 1.363 236.335" style="fill:none;stroke:#9500ff;stroke-width:1.99999;stroke-linecap:round;stroke-linejoin:round;stroke-miterlimit:4;stroke-dasharray:none;stroke-opacity:1;visibility:visible" visibility="hidden"/><path d="M157.865 571.57c.28 51.078.967 159.069 1.328 226.842M157.829 561.82l.036 9.75" style="fill:none;stroke:#9500ff;stroke-width:1.99999;stroke-linecap:round;stroke-linejoin:round;stroke-miterlimit:4;stroke-dasharray:none;stroke-opacity:1;visibility:visible" visibility="hidden"/><path d="m484.8 463.21-10.899-4.134" style="fill:none;stroke:#ffdf00;stroke-width:.999997;stroke-linecap:round;stroke-linejoin:round;stroke-miterlimit:4;stroke-dasharray:none;stroke-opacity:1;visibility:visible" visibility="hidden"/><path d="m474.087 458.628 11.368-2.736M496.49 459.944l-10.568-3.837" style="fill:none;stroke:#ffdf00;stroke-width:1.99999;stroke-linecap:round;stroke-linejoin:round;stroke-miterlimit:4;stroke-dasharray:none;stroke-opacity:1;visibility:visible" visibility="hidden"/><path d="m484.93 463.154 2.83 177.885M485.455 463.154l10.515-2.575" style="fill:none;stroke:#ffdf00;stroke-width:.999997;stroke-linecap:round;stroke-linejoin:round;stroke-miterlimit:4;stroke-dasharray:none;stroke-opacity:1;visibility:visible" visibility="hidden"/><path d="m496.627 460.055 3.325 203.397M473.785 458.814l3.155 202.78M491.3 666.625l8.433-3.024M483.75 665.33l-6.73-3.653" style="fill:none;stroke:#ffdf00;stroke-width:1.99999;stroke-linecap:round;stroke-linejoin:round;stroke-miterlimit:4;stroke-dasharray:none;stroke-opacity:1;visibility:visible" visibility="hidden"/><path d="m666.727 803.78 12.286-6.223" style="fill:none;stroke:#00d4ff;stroke-width:.999997;stroke-linecap:round;stroke-linejoin:round;stroke-miterlimit:4;stroke-dasharray:none;stroke-opacity:1;visibility:visible"/><path d="m657.064 546.95 11.757-3.692" style="fill:none;stroke:#00d4ff;stroke-width:1.99999;stroke-linecap:round;stroke-linejoin:round;stroke-miterlimit:4;stroke-dasharray:none;stroke-opacity:1;visibility:visible"/><path d="m667.293 803.277 3.65-250.113M666.082 803.774l-3.052-1.752" style="fill:none;stroke:#00d4ff;stroke-width:.999997;stroke-linecap:round;stroke-linejoin:round;stroke-miterlimit:4;stroke-dasharray:none;stroke-opacity:1;visibility:visible"/><path d="m652.852 768.463 3.862-221.309M679.365 797.109l4.42-248.7" style="fill:none;stroke:#00d4ff;stroke-width:1.99999;stroke-linecap:round;stroke-linejoin:round;stroke-miterlimit:4;stroke-dasharray:none;stroke-opacity:1;visibility:visible"/><path d="m671.464 552.42 12.032-3.87M671.048 552.632l-13.592-4.977" style="fill:none;stroke:#00d4ff;stroke-width:.999997;stroke-linecap:round;stroke-linejoin:round;stroke-miterlimit:4;stroke-dasharray:none;stroke-opacity:1;visibility:visible"/><path d="m683.548 548.207-14.432-5.039" style="fill:none;stroke:#00d4ff;stroke-width:1.99999;stroke-linecap:round;stroke-linejoin:round;stroke-miterlimit:4;stroke-dasharray:none;stroke-opacity:1;visibility:visible"/><path d="m142.78 823.93 5.159-16.917M288.588 976.114l-.879-8.107M318.957 979.994l.313-4.495M666.727 803.78l17.505-5.671" style="fill:none;stroke:#00ff4a;stroke-width:.999997;stroke-linecap:round;stroke-linejoin:round;stroke-miterlimit:4;stroke-dasharray:none;stroke-opacity:1;visibility:visible" visibility="hidden"/><path d="m666.082 803.774 14.132-9.181" style="fill:none;stroke:#00ff4a;stroke-width:1.99999;stroke-linecap:round;stroke-linejoin:round;stroke-miterlimit:4;stroke-dasharray:none;stroke-opacity:1;visibility:visible" visibility="hidden"/><path d="m153.016 796.941 7.437 1.702M159.521 788.004l-1.116 13.921" style="fill:none;stroke:#00ff4a;stroke-width:1.33333;stroke-linecap:round;stroke-linejoin:round;stroke-miterlimit:4;stroke-dasharray:none;stroke-opacity:1;visibility:visible" visibility="hidden"/><path d="m497.017 673.644-5.717-7.019M480.524 672.338l3.226-7.008" style="fill:none;stroke:#ffdf00;stroke-width:1.99999;stroke-linecap:round;stroke-linejoin:round;stroke-miterlimit:4;stroke-dasharray:none;stroke-opacity:1;visibility:visible" visibility="hidden"/></svg>