<svg xmlns="http://www.w3.org/2000/svg" baseProfile="full" height="1122.52" preserveAspectRatio="xMinYMin meet" style="width:912px;height:1303px" width="793.701" xml:space="preserve"><path d="M384.96 783.478v-.193M384.96 783.286v-.035M384.557 783.338v-.033M203.518 810.54v.159M203.588 810.523h0M203.588 810.715v-.088M203.622 810.645h-.019l-.013-.019" style="fill:none;stroke:red;stroke-width:.999997;stroke-linecap:round;stroke-linejoin:round;stroke-miterlimit:4;stroke-dasharray:none;stroke-opacity:1;visibility:visible"/><path d="m301.53 803.696.019.156.033.159.07.122.089.124.102.106.107.07.143.052.137.016h.143l.138-.034.142-.071.125-.087.104-.104.104-.142.088-.139.05-.157.04-.159v-.16l-.02-.157-.033-.158-.053-.138-.09-.124-.105-.09-.122-.068-.124-.053-.139-.017h-.143l-.138.033-.139.072-.124.087-.123.106-.086.122-.09.16-.053.14-.033.174-.019.159M350.605 796.47l.017.157.036.159.071.123.087.122.104.106.104.07.142.052.139.018h.143l.138-.035.143-.07.124-.089.104-.105.105-.14.088-.14.052-.159.035-.156v-.16l-.017-.157-.034-.157-.053-.142-.09-.122-.103-.088-.124-.07-.124-.053-.139-.017h-.143l-.137.034-.14.071-.124.088-.123.107-.086.121-.09.16-.052.137-.036.176-.017.159M254.117 810.872l.019.156.034.159.07.124.088.122.104.106.105.07.143.052.138.016h.143l.137-.033.143-.072.124-.087.104-.105.105-.141.087-.139.053-.159.038-.157v-.16l-.02-.157-.032-.156-.055-.14-.088-.124-.107-.09-.122-.068-.124-.053-.139-.017h-.141l-.14.033-.139.072-.124.087-.123.106-.086.122-.09.16-.052.14-.034.174-.019.159" style="fill:none;stroke:red;stroke-width:.666665;stroke-linecap:round;stroke-linejoin:round;stroke-miterlimit:4;stroke-dasharray:none;stroke-opacity:1;visibility:visible"/><path d="m391.752 781.495-40.31 6.09-7.46 1.123-83.831 12.671-7.688 1.157-48.279 7.3.02 1.106M380.82 783.882l.227 15.372M385.26 783.197l-4.44.684M385.26 783.566v-.367M381.046 799.256l3.421-.528M221.49 817.348l-.21-9.336M216.557 808.714l.019.404M221.278 808.012l-4.721.701M340.753 786.725l-83.237 12.53M201.078 807.82l.352.052.333.07.315.071.281.07.282.089.242.087.23.07.194.106.176.086.158.088.122.106.107.105.07.087M204.167 809.68h0M384.96 783.478v-.228M204.15 809.451h0" style="fill:none;stroke:red;stroke-width:.999997;stroke-linecap:round;stroke-linejoin:round;stroke-miterlimit:4;stroke-dasharray:none;stroke-opacity:1;visibility:visible"/><path d="m203.94 808.908.032.033.037.052.015.054.039.054.016.068.017.072.039.086.014.089v.087l.019.105.019.105v.123M672.033 868.435l-207.994-67.304M446.296 795.395l-42.979-13.917M659.695 865.258v2.825M663.241 866.399l-3.545-1.139M663.241 866.873v-.472M411.951 800.361l-.195-15.41M409.757 799.624l2.195.737M408.916 784.023v.367M411.758 784.952l-2.843-.93M531.76 819.437l-67.758-21.813" style="fill:none;stroke:red;stroke-width:.999997;stroke-linecap:round;stroke-linejoin:round;stroke-miterlimit:4;stroke-dasharray:none;stroke-opacity:1;visibility:visible"/><path d="m407.213 779.32-.263.087-.281.07-.317.071-.316.07-.334.069-.366.072" style="fill:none;stroke:red;stroke-width:1.99999;stroke-linecap:round;stroke-linejoin:round;stroke-miterlimit:4;stroke-dasharray:none;stroke-opacity:1;visibility:visible"/><path d="m410.372 799.606 1.581.528M409.39 784.18v.14" style="fill:none;stroke:red;stroke-width:.999997;stroke-linecap:round;stroke-linejoin:round;stroke-miterlimit:4;stroke-dasharray:none;stroke-opacity:1;visibility:visible"/><path d="m407.424 779.337-.21-.017M407.213 779.32h-.052l-.052.017M407.109 779.337h0" style="fill:none;stroke:red;stroke-width:1.99999;stroke-linecap:round;stroke-linejoin:round;stroke-miterlimit:4;stroke-dasharray:none;stroke-opacity:1;visibility:visible"/><path d="m411.075 784.97.016-.035.036-.037M409.39 784.18v.14M447.507 905.517l-251.095-93.433M447.47 901.077l-4.825-1.792" style="fill:none;stroke:red;stroke-width:.999997;stroke-linecap:round;stroke-linejoin:round;stroke-miterlimit:4;stroke-dasharray:none;stroke-opacity:1;visibility:visible"/><path d="m439.188 898.006-116.073-42.961" style="fill:none;stroke:red;stroke-width:1.99999;stroke-linecap:round;stroke-linejoin:round;stroke-miterlimit:4;stroke-dasharray:none;stroke-opacity:1;visibility:visible"/><path d="M202.71 810.47h0M202.5 810.312l-.247-.019M202.148 810.312l.053-.019h.054M202.5 810.312h0M202.131 810.312h.017M691.178 889.67l-.019.21-.052.21-.068.212-.124.21-.14.193-.158.212-.21.21-.229.191-.263.195-.281.21-.333.194-.351.173-.368.195-.404.176-.439.176-.457.173-.49.176-.51.157-.544.176-.561.142-.582.158-.594.139-.631.141-.65.139-.667.124M189.039 832.301l-.365-.14-.334-.16-.32-.139-.281-.158-.261-.158-.228-.16-.211-.173-.195-.16-.158-.173-.119-.16-.11-.174-.066-.176-.039-.176-.014-.174M451.993 932.207l.085 7.65M443.611 929.946l-254.574-97.644M477.077 931.403l-.773.139-.771.122-.79.126-.805.102-.829.106-.84.089-.843.088-.877.088-.86.068-.877.053-.896.052-.895.054-.895.036-.896.016-.91.018-.896.019h-.914l-.896-.019-.896-.018-.892-.016-.894-.036-.88-.034-.876-.053-.878-.072-.842-.068-.844-.07-.84-.09-.808-.087-.806-.105-.792-.104-.756-.124-.752-.124-.72-.139-.72-.122-.685-.159-.667-.141-.628-.176-.614-.158-.6-.176-.563-.173-.543-.176-.509-.195M682.053 894.162l-204.974 37.24M531.707 820.087l.107.019.122.014.158.02.141.018h.316M535.306 820.42l-.02.07-.05.07-.069.055-.109.068-.137.07-.159.054-.193.052-.211.052-.23.037-.262.052-.263.016-.281.037-.297.016-.282.018h-.614l-.298-.018-.28-.016-.281-.02-.265-.033-.262-.036-.229-.036-.21-.052-.193-.052-.16-.053-.138-.071-.106-.052-.089-.07-.033-.07-.02-.07" style="fill:none;stroke:red;stroke-width:.999997;stroke-linecap:round;stroke-linejoin:round;stroke-miterlimit:4;stroke-dasharray:none;stroke-opacity:1;visibility:visible"/><path d="m534.744 819.805.033.07.02.053V820l-.053.053-.07.068-.087.052-.143.053-.137.052-.196.036-.191.052-.21.036-.247.036-.247.016-.243.019-.264.017h-.546l-.262-.017-.264-.019-.246-.016-.228-.018-.224-.034-.195-.053-.177-.036-.156-.053-.124-.052-.106-.054-.072-.069-.052-.053v-.052l.019-.071.033-.053" style="fill:none;stroke:red;stroke-width:.999997;stroke-linecap:round;stroke-linejoin:round;stroke-miterlimit:4;stroke-dasharray:none;stroke-opacity:1;visibility:visible"/><path d="m533.147 819.823-.105-.035-.124-.018-.14-.019h-.159l-.159-.016h-.156M533.27 820.016l.052-.033.019-.038v-.034l-.036-.034-.07-.037-.088-.017M532.551 820.157l.156-.019h.157l.124-.033.124-.02.086-.033.072-.035M531.585 819.876l-.052.035-.02.036v.034l.053.035.052.036.09.035" style="fill:none;stroke:red;stroke-width:.999997;stroke-linecap:round;stroke-linejoin:round;stroke-miterlimit:4;stroke-dasharray:none;stroke-opacity:1;visibility:visible"/><path d="m532.305 819.735-.157.017-.143.018-.139.017-.122.019-.088.034-.071.035M531.585 819.876l.019.088v.088M533.2 820.051l-.019-.035v-.052l-.014-.072-.019-.069" style="fill:none;stroke:red;stroke-width:.999997;stroke-linecap:round;stroke-linejoin:round;stroke-miterlimit:4;stroke-dasharray:none;stroke-opacity:1;visibility:visible"/><path d="m533.147 819.823-.105.07-.124.034-.087.035h-.105l-.107-.016-.087-.052-.124-.054-.104-.105" style="fill:none;stroke:red;stroke-width:.999997;stroke-linecap:round;stroke-linejoin:round;stroke-miterlimit:4;stroke-dasharray:none;stroke-opacity:1;visibility:visible"/><path d="m532.305 819.735-.105.105-.09.071-.086.052-.087.02-.07.016-.09-.016-.105-.037-.087-.071M533.147 820.07v-.248M532.305 820.157v-.421M657.555 860.644l.123.033.138.019.158.017.162.018h.334M661.327 861.03l-.017.07-.054.07-.068.088-.124.07-.141.053-.176.069-.19.053-.23.055-.247.052-.261.033-.281.036-.298.018-.317.034h-.95l-.295-.017-.319-.017-.295-.035-.281-.036-.261-.035-.248-.053-.228-.052-.191-.052-.179-.07-.14-.071-.125-.068-.068-.072-.052-.07-.019-.088" style="fill:none;stroke:red;stroke-width:.999997;stroke-linecap:round;stroke-linejoin:round;stroke-miterlimit:4;stroke-dasharray:none;stroke-opacity:1;visibility:visible"/><path d="m660.73 860.363.052.07.019.069v.07l-.052.072-.071.07-.105.053-.124.052-.175.07-.177.035-.208.054-.247.033-.245.037-.263.015-.265.037h-.858l-.281-.017-.263-.02-.265-.032-.245-.036-.247-.036-.21-.053-.175-.034-.176-.072-.122-.05-.102-.072-.072-.068-.054-.054v-.07l.016-.07.054-.072" style="fill:none;stroke:red;stroke-width:.999997;stroke-linecap:round;stroke-linejoin:round;stroke-miterlimit:4;stroke-dasharray:none;stroke-opacity:1;visibility:visible"/><path d="m659.046 860.363-.124-.035-.139-.018-.157-.019-.16-.016h-.333M659.205 860.59l.052-.035.019-.052-.019-.036-.052-.036-.072-.034-.087-.035M658.467 860.73h.156l.157-.019.143-.034.124-.019.087-.033.07-.035M657.397 860.415l-.053.053-.019.035.019.035.053.036.07.036.087.033M658.134 860.274l-.159.017-.157.018-.143.017-.122.019-.086.034-.072.035" style="fill:none;stroke:red;stroke-width:.999997;stroke-linecap:round;stroke-linejoin:round;stroke-miterlimit:4;stroke-dasharray:none;stroke-opacity:1;visibility:visible"/><path d="m657.397 860.415.017.105.015.09M659.116 860.644l-.019-.053-.014-.052-.019-.09-.019-.086" style="fill:none;stroke:red;stroke-width:.999997;stroke-linecap:round;stroke-linejoin:round;stroke-miterlimit:4;stroke-dasharray:none;stroke-opacity:1;visibility:visible"/><path d="m659.046 860.363-.139.07-.108.053-.105.016h-.105l-.103-.016-.127-.052-.104-.054-.122-.105M658.134 860.274l-.107.105-.088.071-.086.052-.088.036h-.09l-.085-.017-.09-.036-.105-.071M659.046 860.66v-.3M658.134 860.73v-.457M405.51 527.948h-.176l-.072.017-.052.035-.053.035-.052.036-.034.052-.052.053-.037.053-.033.07-.054.069-.018.088-.035.088-.033.088-.019.088-.052.193-.019.211-.014.21-.019.194v.21l.019.21.014.21.038.194.033.157.052.142.07.14.07.105.07.105.09.071.104.052.088.035h.104l.125-.016.104-.036.123-.071.107-.07.104-.105.09-.122.086-.142.085-.157.072-.193.052-.194.039-.192.013-.193v-.21l-.033-.211-.034-.194-.037-.122-.035-.106-.037-.088-.052-.105-.033-.088-.054-.088-.052-.07-.07-.087-.052-.07-.072-.053-.052-.053-.067-.052-.072-.052-.053-.019-.07-.035-.053-.017" style="fill:none;stroke:red;stroke-width:.999997;stroke-linecap:round;stroke-linejoin:round;stroke-miterlimit:4;stroke-dasharray:none;stroke-opacity:1;visibility:visible"/><path d="m405.668 531.107-.087-.07-.088-.07-.072-.107-.053-.121-.053-.124-.052-.123-.016-.157-.035-.159-.016-.14-.02-.157v-.475l.02-.158.016-.158.017-.14.034-.157.037-.141.035-.14.052-.123.053-.123.07-.105.071-.088.087-.052" style="fill:none;stroke:red;stroke-width:.999997;stroke-linecap:round;stroke-linejoin:round;stroke-miterlimit:4;stroke-dasharray:none;stroke-opacity:1;visibility:visible"/><path d="m419.392 525.766-.159 3" style="fill:none;stroke:red;stroke-width:1.99999;stroke-linecap:round;stroke-linejoin:round;stroke-miterlimit:4;stroke-dasharray:none;stroke-opacity:1;visibility:visible"/><path d="m466.338 925.119 3.139-.561M178.984 552.37l.017-.035.015-.036M179.37 555.09l-.035-.053-.037-.052M178.667 552.055l.105-.017.09.034M179.317 555.267l-.07.053-.089.034-.089.018M178.685 555.968l.087-.035.09-.018.072-.052.066-.054.072-.069.072-.088M178.51 551.651l-.072-.035-.05-.018-.054-.018-.052-.017h-.125M179.861 555.354h0M179.071 556.758h0M177.807 557.232l-.123-.052-.104-.053-.106-.071-.087-.088-.07-.088-.071-.087-.071-.122-.053-.124-.052-.14-.052-.158-.052-.176-.035-.21M176.703 551.722l.017-.21M176.72 551.51l.017-.14.016-.14.02-.124.018-.121.034-.107.034-.087.056-.088.053-.07.05-.054.053-.052.069-.036.07-.033.091-.019h.086l.086.019.108.017" style="fill:none;stroke:red;stroke-width:.999997;stroke-linecap:round;stroke-linejoin:round;stroke-miterlimit:4;stroke-dasharray:none;stroke-opacity:1;visibility:visible"/><path d="m177.58 550.476.139.052.174.07.159.089.159.105.158.105.139.123.157.14.16.159.159.192.14.193.156.228.161.264" style="fill:none;stroke:red;stroke-width:.999997;stroke-linecap:round;stroke-linejoin:round;stroke-miterlimit:4;stroke-dasharray:none;stroke-opacity:1;visibility:visible"/><path d="m179.44 552.195.123.228.105.228.085.247.091.245.052.263.053.264.035.245.019.263v.264l-.019.245-.035.263-.037.229-.068.245-.07.228-.106.211-.09.21M179.58 556.073l-.139.228-.142.193-.14.176-.16.14-.138.123-.142.105-.159.071-.139.07-.157.035-.143.035h-.156l-.158-.017M178.299 556.161h.052l.07.017.073-.017.053-.017.067-.018.07-.034.071-.036.072-.052.053-.054.067-.052.105-.122M179.143 552.476h0M178.317 551.493l-.107-.052-.088-.019-.086-.017h-.072l-.067.017-.072.036M179.125 552.529v-.035l.019-.053.052-.052.052-.053.085-.071.105-.07" style="fill:none;stroke:red;stroke-width:.999997;stroke-linecap:round;stroke-linejoin:round;stroke-miterlimit:4;stroke-dasharray:none;stroke-opacity:1;visibility:visible"/><path d="m179.58 556.073-.123-.087-.088-.106-.07-.106-.034-.086-.038-.088v-.088l.02-.088M176.773 551.669l-.036-.07-.017-.089M177.421 557.004h0M179.247 555.424l.07-.157.069-.194.056-.176.034-.21.016-.192.016-.211v-.21l-.016-.211-.016-.211-.018-.159-.036-.14-.052-.157-.038-.159-.066-.174-.054-.159-.088-.175" style="fill:none;stroke:red;stroke-width:.999997;stroke-linecap:round;stroke-linejoin:round;stroke-miterlimit:4;stroke-dasharray:none;stroke-opacity:1;visibility:visible"/><path d="m179.054 555.775.032-.052.039-.053.033-.052.035-.054.036-.07.02-.07M179.125 552.529l-.072-.14-.067-.141-.09-.14-.087-.106-.07-.105-.086-.105-.072-.088-.09-.07-.053-.053-.052-.035-.053-.036-.013-.017" style="fill:none;stroke:red;stroke-width:.999997;stroke-linecap:round;stroke-linejoin:round;stroke-miterlimit:4;stroke-dasharray:none;stroke-opacity:1;visibility:visible"/><path d="m470.197 908.149.195 19.55" style="fill:none;stroke:red;stroke-width:1.99999;stroke-linecap:round;stroke-linejoin:round;stroke-miterlimit:4;stroke-dasharray:none;stroke-opacity:1;visibility:visible"/><path d="m676.911 871.524-206.714 36.625" style="fill:none;stroke:red;stroke-width:.999997;stroke-linecap:round;stroke-linejoin:round;stroke-miterlimit:4;stroke-dasharray:none;stroke-opacity:1;visibility:visible"/><path d="m465.968 905.64.439.087.437.07.405.106.387.089.35.104.35.105.3.124.28.104.247.124.226.122.194.141.158.123.123.14M470.145 907.675h0" style="fill:none;stroke:red;stroke-width:1.99999;stroke-linecap:round;stroke-linejoin:round;stroke-miterlimit:4;stroke-dasharray:none;stroke-opacity:1;visibility:visible"/><path d="m469.864 907.079.035.035.052.052.036.07.054.071.018.088.034.087.032.089.02.087.019.122.015.107.018.123v.14" style="fill:none;stroke:red;stroke-width:1.99999;stroke-linecap:round;stroke-linejoin:round;stroke-miterlimit:4;stroke-dasharray:none;stroke-opacity:1;visibility:visible"/><path d="m676.42 891.056.07-.035.069-.018.056-.035.052-.052.086-.09.052-.122.034-.07.018-.089.019-.085v-.09M470.39 927.7v.105l-.017.088v.068l-.015.09-.039.105-.033.105-.019.034-.033.037-.039.016-.032.019M672.155 869.243l-.104-.019M465.775 905.64h.195M676.245 870.576l.033-.019h.036M677.069 871.454v.017l-.033.016-.052.02-.072.018" style="fill:none;stroke:red;stroke-width:.999997;stroke-linecap:round;stroke-linejoin:round;stroke-miterlimit:4;stroke-dasharray:none;stroke-opacity:1;visibility:visible"/><path d="m677.052 890.284-.019.017-.034.036-.052.018-.071.016M672.155 869.243l.107.017.088.016M465.933 926.63l.017.104.036.07.052.035.052.036M469.637 927.944v.088l.032.07.053.09M676.42 891.056h0M672.05 869.224h0M676.297 870.56h.017M470.163 928.366h0M465.757 905.64h.019M683.99 592.196h.07l.086.019h.072l.087-.019.089-.017.068-.035.09-.035.086-.053.072-.053.07-.07.071-.07.068-.087.072-.07.052-.106.051-.088.053-.123.071-.21.053-.211.034-.228v-.245l-.015-.23-.052-.245-.072-.228-.088-.228-.087-.175-.106-.176-.124-.158-.123-.123-.139-.123-.142-.105-.139-.052-.124-.053-.123-.018-.138.018-.106.034-.122.054-.087.088-.09.105-.086.121-.072.142-.052.176-.052.192-.037.212-.015.226-.02.23v.228l.02.228.032.228.02.14.019.122.033.106.033.122.039.106.052.088.035.105.05.088.072.088.052.07.072.07.067.07.07.053.073.034.072.036.085.035" style="fill:none;stroke:red;stroke-width:.999997;stroke-linecap:round;stroke-linejoin:round;stroke-miterlimit:4;stroke-dasharray:none;stroke-opacity:1;visibility:visible"/><path d="m698.953 589.961-.07 1.843" style="fill:none;stroke:red;stroke-width:1.99999;stroke-linecap:round;stroke-linejoin:round;stroke-miterlimit:4;stroke-dasharray:none;stroke-opacity:1;visibility:visible"/><path d="M177.755 551.458h.123l.138.035.124.053.124.088.124.123.12.14.124.158.104.192.09.194.088.228.089.245.067.247.053.262.036.247.016.263.02.262-.02.264-.016.246-.016.245-.055.228-.072.193-.066.194-.071.158-.105.14-.104.123-.11.087-.12.053-.122.035" style="fill:none;stroke:red;stroke-width:.999997;stroke-linecap:round;stroke-linejoin:round;stroke-miterlimit:4;stroke-dasharray:none;stroke-opacity:1;visibility:visible"/><path d="M178.492 554.178v.51l-.033.245-.039.228-.067.228-.056.193-.086.176-.087.14-.104.123-.108.105-.121.07-.123.035-.124.018-.124-.035-.139-.036-.122-.087-.123-.105-.124-.141-.121-.158M176.65 551.774l.105-.105.123-.07.123-.053h.244l.142.053.124.07.12.105.124.123.123.158.124.175.087.193.105.228.09.228.066.247.053.263.054.264.018.262.018.263M179.476 554.67l-.597 1.053M179.125 552.529l-.72-.772M177.07 551.546l.685-.088M177.632 556.231l.685-.07M444.628 620.963l.053.247.071.245.07.208.086.195.07.176.089.138.105.143.104.104.124.124.123.087.158.07.175.054M444.523 616.26l-.02.228-.032.244M445.769 615.12l-.176-.035h-.176l-.139.016-.142.036-.104.07-.106.069-.086.105-.071.106-.072.16-.067.157-.056.21-.052.245M448.033 617.103l-.123-.195-.125-.192-.12-.176-.14-.176-.141-.176-.156-.138-.143-.158-.159-.122-.141-.126-.156-.122-.159-.086-.138-.088-.143-.07-.139-.071-.141-.052-.14-.035M448.085 621.507l.123-.228.124-.245.086-.266.087-.261.072-.281.036-.28.035-.282v-.578l-.035-.299-.056-.3-.068-.281-.09-.28-.103-.28-.124-.282-.139-.264" style="fill:none;stroke:red;stroke-width:.999997;stroke-linecap:round;stroke-linejoin:round;stroke-miterlimit:4;stroke-dasharray:none;stroke-opacity:1;visibility:visible"/><path d="m445.856 622.753.195.033h.209l.193-.016.194-.052.177-.07.19-.09.178-.105.175-.121.19-.176.176-.175.178-.23.174-.246M444.681 616.523l-.088-.14-.07-.123M444.978 615.242h0" style="fill:none;stroke:red;stroke-width:.999997;stroke-linecap:round;stroke-linejoin:round;stroke-miterlimit:4;stroke-dasharray:none;stroke-opacity:1;visibility:visible"/><path d="m445.119 616.328-.085.02-.162.052-.158.088-.139.123-.123.158-.122.175M444.365 620.49l.123.247.138.209.143.192.157.177.159.123.157.105.176.07.175.036h.064M445.119 616.33l.737-.105M445.769 621.647l.737-.087M438.679 898.813l.123.017.14.035.141.017.177.018h.348M442.645 899.146l-.02.087-.05.07-.069.09-.124.069-.157.088-.176.07-.21.054-.227.068-.248.053-.282.052-.298.036-.298.035-.333.017-.313.018-.334.018h-.333l-.319-.018-.316-.018-.313-.017-.301-.035-.28-.053-.248-.052-.226-.052-.212-.052-.192-.072-.142-.07-.12-.087-.088-.071-.054-.088-.018-.07" style="fill:none;stroke:red;stroke-width:.999997;stroke-linecap:round;stroke-linejoin:round;stroke-miterlimit:4;stroke-dasharray:none;stroke-opacity:1;visibility:visible"/><path d="m442.013 898.461.053.07.032.07-.014.07-.038.071-.068.087-.104.07-.141.054-.177.07-.192.053-.212.053-.244.052-.263.035-.265.034-.298.036h-.28l-.298.018h-.298l-.298-.018-.282-.018-.281-.018-.263-.034-.248-.054-.208-.033-.196-.053-.173-.071-.14-.052-.105-.07-.072-.07-.052-.088v-.07l.018-.071.07-.07" style="fill:none;stroke:red;stroke-width:.999997;stroke-linecap:round;stroke-linejoin:round;stroke-miterlimit:4;stroke-dasharray:none;stroke-opacity:1;visibility:visible"/><path d="m440.293 898.497-.105-.035-.142-.034-.158-.018h-.156l-.178-.018-.176.018M440.416 898.743l.053-.052.018-.035v-.036l-.036-.053-.068-.035-.09-.034M439.609 898.9l.176-.017.159-.018.137-.018.143-.032.105-.038.085-.034M438.573 898.567l-.053.035-.032.036v.052l.032.036.07.052.088.037" style="fill:none;stroke:red;stroke-width:.999997;stroke-linecap:round;stroke-linejoin:round;stroke-miterlimit:4;stroke-dasharray:none;stroke-opacity:1;visibility:visible"/><path d="M439.38 898.41h-.176l-.157.019-.158.034-.122.018-.107.034-.085.052M438.573 898.567v.053l.017.07.016.088M440.345 898.778l-.019-.053v-.052l-.013-.088-.02-.088" style="fill:none;stroke:red;stroke-width:.999997;stroke-linecap:round;stroke-linejoin:round;stroke-miterlimit:4;stroke-dasharray:none;stroke-opacity:1;visibility:visible"/><path d="m440.293 898.497-.123.07-.105.053-.124.017h-.104l-.105-.017-.106-.052-.122-.071-.126-.087" style="fill:none;stroke:red;stroke-width:.999997;stroke-linecap:round;stroke-linejoin:round;stroke-miterlimit:4;stroke-dasharray:none;stroke-opacity:1;visibility:visible"/><path d="m439.38 898.41-.105.105-.104.071-.107.052-.088.035h-.192l-.105-.054-.104-.052M440.293 898.796v-.3M439.38 898.9v-.492M319.343 854.59l.105.017.124.035h.138l.161.019h.333M323.117 854.887l-.02.07-.032.069-.087.07-.108.071-.138.07-.178.07-.19.07-.215.053-.243.053-.261.036-.281.035-.3.033-.3.037-.296.016h-.948l-.299-.016-.281-.017-.282-.02-.262-.033-.247-.052-.227-.054-.193-.052-.175-.053-.14-.07-.104-.053-.089-.072-.053-.068-.019-.088" style="fill:none;stroke:red;stroke-width:.999997;stroke-linecap:round;stroke-linejoin:round;stroke-miterlimit:4;stroke-dasharray:none;stroke-opacity:1;visibility:visible"/><path d="m322.52 854.256.052.052.019.07v.071l-.054.068-.07.054-.086.07-.142.071-.159.052-.175.053-.21.052-.228.035-.248.036-.262.036-.262.017-.282.016-.281.019h-.543l-.28-.019-.262-.016-.248-.037-.228-.033-.191-.035-.196-.053-.156-.052-.143-.055-.106-.053-.067-.068-.036-.071-.017-.052.017-.072.05-.07" style="fill:none;stroke:red;stroke-width:.999997;stroke-linecap:round;stroke-linejoin:round;stroke-miterlimit:4;stroke-dasharray:none;stroke-opacity:1;visibility:visible"/><path d="m320.906 854.29-.105-.019-.124-.034-.14-.019h-.492M320.993 854.519l.053-.035.032-.037v-.052l-.032-.035-.053-.036-.085-.034M320.203 854.66h.159l.156-.02.142-.033.139-.019.105-.033.09-.035M319.273 854.36l-.07.035-.017.036v.034l.016.054.051.036.09.033M320.045 854.22h-.157l-.158.017-.141.016-.125.038-.104.034-.087.034" style="fill:none;stroke:red;stroke-width:.999997;stroke-linecap:round;stroke-linejoin:round;stroke-miterlimit:4;stroke-dasharray:none;stroke-opacity:1;visibility:visible"/><path d="M319.273 854.36v.123l.019.072M320.94 854.536v-.035l-.017-.052v-.072l-.015-.086M320.906 854.29l-.105.085-.106.038-.104.016-.105.017-.108-.033-.105-.038-.106-.068-.122-.089M320.045 854.22l-.104.105-.09.07-.106.053-.087.017-.085.016-.09-.016-.105-.036-.105-.07M320.924 854.554l-.02-.263M320.063 854.66l-.02-.439M212.011 814.804l.085.017.126.036h.122l.159.018h.299M215.609 815.085v.052l-.052.07-.07.071-.106.068-.14.054-.16.07-.19.052-.211.054-.228.052-.248.037-.262.035-.281.033-.281.019-.299.018-.297.015h-.878l-.265-.015-.281-.037-.243-.016-.228-.037-.21-.052-.197-.034-.154-.053-.14-.07-.107-.053-.07-.072-.053-.052-.018-.07" style="fill:none;stroke:red;stroke-width:.999997;stroke-linecap:round;stroke-linejoin:round;stroke-miterlimit:4;stroke-dasharray:none;stroke-opacity:1;visibility:visible"/><path d="m215.048 814.489.053.07.016.053-.016.052-.036.07-.07.054-.104.052-.124.053-.158.052-.176.052-.19.053-.215.034-.228.037-.244.035-.248.017-.261.016-.263.02h-.527l-.262-.02-.247-.016-.228-.017-.212-.035-.21-.037-.174-.034-.14-.053-.143-.036-.085-.053-.09-.052-.034-.068-.02-.054.02-.052.052-.07" style="fill:none;stroke:red;stroke-width:.999997;stroke-linecap:round;stroke-linejoin:round;stroke-miterlimit:4;stroke-dasharray:none;stroke-opacity:1;visibility:visible"/><path d="m213.52 814.54-.085-.019-.126-.016-.122-.017-.158-.02h-.298M213.572 814.752l.053-.035.034-.037v-.033l-.016-.035-.052-.037-.071-.034" style="fill:none;stroke:red;stroke-width:.999997;stroke-linecap:round;stroke-linejoin:round;stroke-miterlimit:4;stroke-dasharray:none;stroke-opacity:1;visibility:visible"/><path d="M212.802 814.874h.157l.156-.017.143-.018.124-.036.105-.016.086-.036M211.958 814.593l-.052.035-.032.036v.034l.013.035.038.036.086.035" style="fill:none;stroke:red;stroke-width:.999997;stroke-linecap:round;stroke-linejoin:round;stroke-miterlimit:4;stroke-dasharray:none;stroke-opacity:1;visibility:visible"/><path d="m212.731 814.47-.159.019h-.157l-.14.034-.125.018-.106.034-.086.018" style="fill:none;stroke:red;stroke-width:.999997;stroke-linecap:round;stroke-linejoin:round;stroke-miterlimit:4;stroke-dasharray:none;stroke-opacity:1;visibility:visible"/><path d="M211.958 814.593v.07l.019.053v.072M213.539 814.752v-.14l-.02-.07M213.52 814.54l-.104.07-.107.053-.089.016h-.085l-.106-.016-.089-.036-.105-.068-.104-.091" style="fill:none;stroke:red;stroke-width:.999997;stroke-linecap:round;stroke-linejoin:round;stroke-miterlimit:4;stroke-dasharray:none;stroke-opacity:1;visibility:visible"/><path d="m212.731 814.47-.105.105-.106.071-.09.033-.086.038h-.085l-.09-.019-.105-.035-.106-.07M213.539 814.769l-.02-.228M212.731 814.874v-.404M418.04 783.443l.105.019.124.016.123.018.14.018h.313M421.48 783.742l-.02.07-.032.053-.07.072-.107.052-.14.052-.14.069-.194.036-.193.052-.23.036-.227.036-.262.033-.262.035-.282.017-.281.019h-.841l-.282-.019-.262-.017-.263-.035-.248-.017-.21-.036-.209-.052-.177-.035-.157-.053-.124-.052-.104-.053-.071-.068-.052-.055-.02-.07" style="fill:none;stroke:red;stroke-width:.999997;stroke-linecap:round;stroke-linejoin:round;stroke-miterlimit:4;stroke-dasharray:none;stroke-opacity:1;visibility:visible"/><path d="m420.955 783.18.032.053.02.051-.02.072-.032.052-.072.053-.105.052-.124.054-.139.033-.175.052-.177.037-.21.034-.227.018-.231.035-.243.019-.246.017h-.754l-.246-.017-.228-.019-.231-.016-.208-.037-.192-.034-.16-.037-.159-.052-.122-.033-.087-.054-.072-.052-.052-.053v-.105l.052-.07M419.444 783.197l-.084-.017-.127-.018-.142-.018-.138-.018h-.298" style="fill:none;stroke:red;stroke-width:.999997;stroke-linecap:round;stroke-linejoin:round;stroke-miterlimit:4;stroke-dasharray:none;stroke-opacity:1;visibility:visible"/><path d="m419.55 783.391.033-.035.038-.037v-.033l-.038-.019-.052-.035-.086-.036M418.848 783.514l.139-.019.142-.016.123-.017.124-.02.087-.015.085-.037M417.952 783.25l-.052.033-.02.038v.034l.039.034.052.02.068.034" style="fill:none;stroke:red;stroke-width:.999997;stroke-linecap:round;stroke-linejoin:round;stroke-miterlimit:4;stroke-dasharray:none;stroke-opacity:1;visibility:visible"/><path d="m418.655 783.127-.157.017-.144.018-.119.018-.108.018-.107.034-.068.018" style="fill:none;stroke:red;stroke-width:.999997;stroke-linecap:round;stroke-linejoin:round;stroke-miterlimit:4;stroke-dasharray:none;stroke-opacity:1;visibility:visible"/><path d="m417.952 783.25.019.087v.089M419.48 783.408v-.035l-.02-.052v-.052l-.016-.072M419.444 783.197l-.104.07-.107.053-.088.017h-.086l-.106-.017-.089-.035-.107-.07-.102-.089M418.655 783.127l-.087.105-.108.071-.068.035-.09.017-.086.02-.07-.02-.106-.033-.088-.072M419.444 783.426v-.228M418.655 783.514v-.387M465.179 914.572l.033.14M465.214 915.31l-.035.14M465.179 914.151l.033.07M465.214 915.52l-.035.07M465.16 913.818l.033.052M465.214 915.59l-.02.053M465.16 913.52l.033.052M465.16 913.274l.033.033M465.16 913.028l.033.035M465.16 912.8l.033.033M465.16 912.589l.033.017M465.16 912.396l.033.017M465.16 912.204l.019.017M465.144 912.01l.033.017" style="fill:none;stroke:red;stroke-width:.999997;stroke-linecap:round;stroke-linejoin:round;stroke-miterlimit:4;stroke-dasharray:none;stroke-opacity:1;visibility:visible"/><path d="m396.82 791.322-1.667-.51M397.277 792.937l-.456-1.615M391.959 792.672l.087-.088.108-.105.105-.087.087-.105.105-.087.103-.107.106-.105.104-.105M392.766 791.883l.124-.105.105-.123.139-.124.124-.121.141-.14.14-.142.158-.16.176-.173M394.153 790.515l-.28.28" style="fill:none;stroke:red;stroke-width:.666665;stroke-linecap:round;stroke-linejoin:round;stroke-miterlimit:4;stroke-dasharray:none;stroke-opacity:1;visibility:visible"/><path d="m395.066 791.34-.247-.052-.245-.035-.247-.018-.242.018-.248.052-.243.068-.23.09-.213.124-.192.14-.194.156M396.786 793.094l-.087-.247-.108-.226-.121-.228-.156-.194-.177-.193-.175-.176-.21-.157-.213-.14-.225-.107-.248-.087M396.188 795.376l.159-.176.157-.21.124-.21.088-.212.07-.245.051-.247.036-.244-.017-.247-.019-.244-.052-.246M396.66 790.202l-.207-.035-.208-.021-.204-.005-.201.022-.205.052-.2.067-.188.081-.17.108-.158.124-.154.138" style="fill:none;stroke:red;stroke-width:.666665;stroke-linecap:round;stroke-linejoin:round;stroke-miterlimit:4;stroke-dasharray:none;stroke-opacity:1;visibility:visible"/><path d="m398.148 791.603-.083-.199-.094-.188-.11-.186-.137-.155-.156-.155-.148-.14-.183-.124-.177-.108-.195-.08-.205-.066M397.727 793.52l.127-.15.124-.182.097-.179.067-.178.048-.206.034-.206.02-.204-.022-.204-.023-.204-.053-.203M393.89 795.902l.248.07.243.035h.261l.25-.017.246-.036.224-.07.228-.087.215-.123.209-.14.176-.159M392.188 794.165l.07.247.105.225.138.213.143.21.176.192.192.176.195.157.229.123.224.124.228.07M392.766 791.883l-.157.176-.142.19-.12.214-.109.225-.068.248-.052.228-.019.262v.248l.035.244.052.246M392.222 792.41h0" style="fill:none;stroke:red;stroke-width:.666665;stroke-linecap:round;stroke-linejoin:round;stroke-miterlimit:4;stroke-dasharray:none;stroke-opacity:1;visibility:visible"/><path d="m467.162 905.394-2.073-.087M216.522 809.136l.033-.019h.038v-.016h-.018M216.575 809.118v-.017M214.59 809.434l1.93-.3M216.575 809.1h0M219.47 808.803v.017h-.02M219.453 808.82l-6.355 5.317M663.241 866.873v-.053M663.241 866.82h-.036l-.017.017.017.016M665.152 867.487l-1.913 3.3M665.152 870.454v-2.968M663.241 866.82h0M663.205 866.856l1.948.632M385.26 783.566l.032.017h.124M410.564 784.549l-.367.387M410.197 784.935l-.036.017-.052.016h-.141M409.926 799.641l-.195-14.463-26.578-.93M383.153 784.04h-.105l-.018-.017-.016-.018M384.575 783.356l.685.21M385.416 783.584l.195-.035M458.615 484.806l-.019-.245-.016-.106-.018-.105-.019-.07-.033-.089-.019-.069-.033-.053-.052-.088-.054-.035-.037-.017-.033.017-.019.053v.227l.019.159v.105l.017.105v.246M458.81 484.77l-.107.017-.088.018M459.089 484.718l-.019-.228-.016-.105-.018-.106-.019-.088-.033-.069-.019-.07-.033-.071-.054-.088-.037-.035h-.052l-.016.017-.017.036v.227l.017.176.016.105.02.106v.245" style="fill:none;stroke:red;stroke-width:.999997;stroke-linecap:round;stroke-linejoin:round;stroke-miterlimit:4;stroke-dasharray:none;stroke-opacity:1;visibility:visible"/><path d="m459.265 484.683-.088.017-.088.018M459.51 484.63l-.019-.228-.014-.105-.019-.106-.019-.088-.033-.069-.019-.07-.034-.054-.054-.105-.036-.018-.034-.017-.019.017-.015.054v.157l.015.053.019.175.018.105v.106l.016.124v.122" style="fill:none;stroke:red;stroke-width:.999997;stroke-linecap:round;stroke-linejoin:round;stroke-miterlimit:4;stroke-dasharray:none;stroke-opacity:1;visibility:visible"/><path d="m459.668 484.595-.072.017-.087.018M459.88 484.542l-.02-.228-.016-.105-.017-.106-.019-.088-.016-.069-.036-.07-.015-.054-.072-.104-.037-.017-.016-.019-.017.019-.02.052v.088l.02.069v.07l.033.158.019.105v.106l.018.124v.121" style="fill:none;stroke:red;stroke-width:.999997;stroke-linecap:round;stroke-linejoin:round;stroke-miterlimit:4;stroke-dasharray:none;stroke-opacity:1;visibility:visible"/><path d="m460.861 483.999-.019.07-.033.07-.087.07-.108.071-.138.07-.176.07-.192.052-.228.071" style="fill:none;stroke:red;stroke-width:1.99999;stroke-linecap:round;stroke-linejoin:round;stroke-miterlimit:4;stroke-dasharray:none;stroke-opacity:1;visibility:visible"/><path d="m444.593 484.859-.315-.053-.281-.052-.265-.071-.211-.07-.19-.053-.158-.069-.124-.07-.09-.071-.053-.071-.016-.087M444.856 484.911l.019-.247v-.209l.014-.088v-.07l.019-.071v-.07l-.019-.105v-.035l-.033-.018h-.032l-.039.036-.052.088-.034.052-.018.07-.053.158-.019.105v.105l-.016.123v.124M445.067 484.929h-.105l-.106-.017M445.348 484.98l.017-.245v-.211l.015-.088v-.316l-.015-.035-.037-.017h-.032l-.036.035-.07.088-.018.052-.035.07-.037.159-.015.104-.018.123v.229M445.576 484.999l-.105-.017h-.123M445.892 485.034v-.228l.017-.105v-.194l.015-.086v-.142l-.015-.088-.037-.052-.033-.017-.035.017-.037.035-.051.088-.035.053-.018.07-.052.157-.02.107-.015.105v.245M446.137 485.069l-.123-.017-.124-.018M446.47 485.086l.019-.228v-.51l-.019-.105-.033-.034-.039-.036-.032.018-.035.035-.072.088-.017.052-.035.07-.037.158-.015.105-.018.124v.246M446.733 485.122l-.123-.017-.14-.018M447.103 485.14v-.755l-.036-.088-.017-.052-.054-.018-.032.018-.038.035-.071.088-.016.053-.037.07-.032.157-.02.107-.016.122v.246M447.366 485.157h-.123l-.14-.017M447.752 485.192v-.701l-.02-.054-.015-.105-.037-.035-.032-.018h-.053l-.054.036-.052.088-.037.069-.015.07-.038.158-.015.105v.106l-.017.122v.124M457.176 484.98l-.456.052-.473.036-.491.035-.51.036-.529.034-.525.035-.544.019-.545.017-.543.017h-.543l-.562.018h-.544l-.543-.018h-.548l-.524-.017-.528-.017-.508-.019-.508-.017M457.51 484.946v-.228l-.02-.105-.015-.106-.017-.088-.02-.088-.033-.069-.035-.053-.055-.087-.053-.036-.033-.017-.034.017-.038.053-.015.087v.3l.015.104v.23l.02.12" style="fill:none;stroke:red;stroke-width:.999997;stroke-linecap:round;stroke-linejoin:round;stroke-miterlimit:4;stroke-dasharray:none;stroke-opacity:1;visibility:visible"/><path d="m457.754 484.911-.123.017-.124.018M458.088 484.876l-.019-.228-.014-.105-.019-.106-.019-.088-.014-.088-.038-.07-.016-.052-.07-.088-.038-.035-.052-.017-.034.034-.019.036-.015.087v.14l.015.159v.105l.019.123v.228M459.88 484.542l.017 1.79M457.194 486.754l-.02-1.773M447.752 485.192l.019 1.755M444.611 486.648l-.02-1.79M453.192 482.086l.615-.088M449.91 481.735l3.281.35M450.525 481.647l-.615.088M453.806 481.998l-3.281-.35M450.525 481.805v-.157M686.371 464.8l.017-.21.015-.106.02-.105.019-.087.014-.07.019-.071.019-.052.034-.106v-.053h-.018l-.016.035-.052.07-.019.054-.02.069-.052.14-.016.107-.017.105-.019.105v.123M686.248 464.711l.017-.228.016-.105.02-.087.018-.088.034-.07.019-.071.015-.052.037-.107v-.052l-.019.035-.052.07-.02.054-.014.052-.054.158-.017.087-.019.105-.016.124v.123" style="fill:none;stroke:red;stroke-width:.999997;stroke-linecap:round;stroke-linejoin:round;stroke-miterlimit:4;stroke-dasharray:none;stroke-opacity:1;visibility:visible"/><path d="m686.194 464.607.019-.21.034-.211.034-.159.02-.052.032-.07.038-.087v-.036l.018-.035-.018.017v.018l-.038.07-.032.052-.02.071-.034.14-.018.088-.035.105v.106l-.019.122" style="fill:none;stroke:red;stroke-width:.999997;stroke-linecap:round;stroke-linejoin:round;stroke-miterlimit:4;stroke-dasharray:none;stroke-opacity:1;visibility:visible"/><path d="m703.447 465.115-.02-.21v-.106l-.016-.105-.017-.07-.019-.07-.016-.071-.017-.052-.034-.088-.02-.035v.018l.02.034.014.088.02.071.017.07.035.14v.106l.017.105v.246" style="fill:none;stroke:red;stroke-width:1.99999;stroke-linecap:round;stroke-linejoin:round;stroke-miterlimit:4;stroke-dasharray:none;stroke-opacity:1;visibility:visible"/><path d="M703.447 465.08v.035" style="fill:none;stroke:red;stroke-width:.999997;stroke-linecap:round;stroke-linejoin:round;stroke-miterlimit:4;stroke-dasharray:none;stroke-opacity:1;visibility:visible"/><path d="m703.341 464.343-.02-.052v-.035l-.015-.036v.018l.015.018.02.087.033.105.019.071.017.088" style="fill:none;stroke:red;stroke-width:1.99999;stroke-linecap:round;stroke-linejoin:round;stroke-miterlimit:4;stroke-dasharray:none;stroke-opacity:1;visibility:visible"/><path d="m686.212 464.66-.02-.035v-.018M686.3 464.747l-.036-.017-.017-.018M692.635 465.852l-.51-.035-.509-.034-.472-.054-.476-.034-.452-.054-.442-.052-.42-.053-.406-.052-.386-.07-.348-.053-.319-.07-.313-.071-.263-.07-.267-.07-.208-.07-.193-.07-.156-.07-.124-.071M693.039 465.87l.017-.21v-.37l-.017-.07-.017-.07-.036-.088-.032-.035-.054-.017h-.037l-.052.035-.052.088-.036.052-.017.07-.034.159-.02.088v.121l-.018.106v.122M693.337 465.887h-.139l-.161-.017M693.759 465.905v-.579l-.02-.07-.015-.07-.037-.088-.033-.034-.054-.019-.052.019-.037.016-.053.088-.032.053-.02.07-.032.158v.105l-.02.106-.016.105v.123M694.057 465.922h-.139l-.161-.017M694.478 465.94l.019-.228v-.105l-.019-.088v-.175l-.019-.053-.013-.071-.053-.088-.038-.033-.052-.019h-.036l-.052.035-.052.088-.018.053-.019.07-.033.158-.019.105v.106l-.015.105v.123M694.777 465.958l-.14-.017h-.161M695.198 465.958l.017-.21v-.211l-.017-.088v-.07l-.019-.07-.016-.071-.05-.087-.039-.036-.052-.016-.052.016-.035.036-.053.087-.017.053-.019.071-.035.14-.018.105v.228l-.014.123M695.515 465.975h-.159l-.157-.017M695.935 465.975v-.333l-.019-.088v-.087l-.016-.088-.018-.053-.018-.071-.054-.087-.032-.036-.052-.017-.054.017-.037.018-.052.105-.016.053-.019.071-.017.157v.088l-.015.106v.245M696.233 465.975h-.3M696.637 465.975v-.421l-.019-.087v-.07l-.014-.071-.019-.071-.07-.087-.037-.036-.052-.017-.036.017-.034.036-.052.087-.02.053-.015.071-.017.157-.02.106v.333" style="fill:none;stroke:red;stroke-width:.999997;stroke-linecap:round;stroke-linejoin:round;stroke-miterlimit:4;stroke-dasharray:none;stroke-opacity:1;visibility:visible"/><path d="m703.165 465.361-.139.053-.176.07-.212.052-.245.053-.263.052-.298.053-.316.035-.351.053-.37.035-.385.035-.422.034-.438.019-.44.035-.473.017h-.473l-.51.017h-1.017M703.27 465.308v-.228l-.019-.105-.016-.088-.018-.088-.019-.071-.013-.07-.02-.051-.034-.088-.037-.036h-.019v.053l.019.105.019.052.018.071.015.157.019.088v.352M703.323 465.273l-.033.017-.019.018" style="fill:none;stroke:red;stroke-width:.999997;stroke-linecap:round;stroke-linejoin:round;stroke-miterlimit:4;stroke-dasharray:none;stroke-opacity:1;visibility:visible"/><path d="M703.376 465.22v-.333l-.02-.088-.015-.088-.018-.071-.019-.07-.016-.051-.035-.088-.016-.036h-.02v.053l.02.105.016.054.018.069.017.159.016.086.019.107v.245" style="fill:none;stroke:red;stroke-width:1.99999;stroke-linecap:round;stroke-linejoin:round;stroke-miterlimit:4;stroke-dasharray:none;stroke-opacity:1;visibility:visible"/><path d="m696.637 465.975-.052 1.72M692.565 467.555l.07-1.703M697.022 462.816l.053-.105M692.706 462.658l4.316.159M692.759 462.553l-.053.105M697.076 462.71l-4.316-.157M692.759 462.658v-.105M423.57 415.223v-.193l-.02-.088v-.087l-.016-.088-.017-.053-.019-.071-.016-.052-.05-.07-.04-.035-.017-.018-.034.018-.019.036-.015.069v.632M423.744 415.223h-.175M423.973 415.223v-.299l-.02-.088-.016-.069-.017-.07-.018-.054-.016-.052-.052-.088-.02-.017-.036-.018-.016.018-.018.017-.019.088v.105l.019.14v.387M424.13 415.223h-.157M424.323 415.205l.017-.193-.017-.087v-.088l-.019-.07-.014-.071-.02-.071-.019-.035-.052-.086-.033-.036h-.038l-.014.036v.333l.014.088v.297M424.464 415.205h-.139M424.657 415.205v-.21l-.019-.089v-.086l-.014-.071-.019-.07-.019-.054-.014-.052-.054-.087-.018-.018-.038-.018-.014.018v.21l.014.142v.174l.019.106-.019.105M425.517 415.047l-.02.035-.033.017-.071.019-.105.017-.124.017-.139.018-.175.017-.194.019M411.758 414.539l-.248-.035-.243-.036-.21-.034-.176-.035-.158-.036-.122-.035-.107-.017-.07-.036-.053-.035v-.017M411.986 414.573l.019-.193.014-.106v-.086l.019-.071.019-.07v-.053l.016-.053v-.087l-.016-.018-.019-.018h-.033l-.039.036-.052.07-.013.036-.038.069-.034.123-.018.088-.02.088-.016.105-.017.105M412.145 414.59l-.07-.017h-.089" style="fill:none;stroke:red;stroke-width:.999997;stroke-linecap:round;stroke-linejoin:round;stroke-miterlimit:4;stroke-dasharray:none;stroke-opacity:1;visibility:visible"/><path d="m412.39 414.626.019-.21.014-.089.02-.088v-.069l.018-.07v-.053l.016-.053-.016-.088v-.035l-.038-.017-.033.017-.033.018-.052.07-.02.054-.034.052-.036.14-.02.088-.016.088-.017.105-.019.105M412.583 414.643l-.085-.017h-.11" style="fill:none;stroke:red;stroke-width:.999997;stroke-linecap:round;stroke-linejoin:round;stroke-miterlimit:4;stroke-dasharray:none;stroke-opacity:1;visibility:visible"/><path d="m412.846 414.661.019-.192.016-.088v-.088l.018-.07v-.071l.018-.052v-.052l-.018-.088-.018-.036-.016-.018-.038.018-.033.018-.052.07-.035.053-.018.052-.052.14-.019.088-.019.088-.016.105v.106M413.057 414.696l-.104-.017-.107-.018M413.338 414.713l.019-.193v-.088l.014-.087v-.07l.019-.071v-.123l-.019-.07-.014-.035-.039-.018h-.032l-.035.035-.052.07-.02.054-.036.052-.034.14-.018.07-.016.106-.018.105v.106M413.549 414.731h-.105l-.106-.017M413.864 414.766l.019-.193v-.175l.016-.088v-.176l-.016-.087-.019-.018-.033-.018h-.039l-.032.036-.053.07-.038.053-.016.052-.052.123-.018.088-.019.105v.088l-.015.105M414.093 414.784h-.125l-.104-.017" style="fill:none;stroke:red;stroke-width:.999997;stroke-linecap:round;stroke-linejoin:round;stroke-miterlimit:4;stroke-dasharray:none;stroke-opacity:1;visibility:visible"/><path d="m414.408 414.819.019-.21v-.089l.014-.088v-.245l-.014-.088-.038-.035-.033-.017-.033.017-.038.018-.052.088-.036.034-.017.054-.035.14-.018.088-.019.086-.015.107v.105M422.34 415.223l-.385-.017h-.406l-.42-.018h-.422l-.439-.018-.439-.018-.457-.017-.452-.035-.476-.018-.457-.018-.472-.034-.456-.018-.46-.036-.454-.034-.456-.035-.437-.017-.424-.035-.42-.036" style="fill:none;stroke:red;stroke-width:.999997;stroke-linecap:round;stroke-linejoin:round;stroke-miterlimit:4;stroke-dasharray:none;stroke-opacity:1;visibility:visible"/><path d="M422.64 415.223v-.299l-.02-.069v-.088l-.016-.07-.017-.054-.018-.052-.053-.088-.035-.017-.036-.018-.034.018-.019.017-.033.088v.245l-.02.088v.299M422.85 415.223h-.21M423.113 415.223v-.368l-.019-.088-.014-.053-.02-.071-.018-.052-.054-.07-.032-.035-.038-.018-.033.018-.02.036-.015.069v.632M424.657 415.205l-.085 1.51M422.253 416.732l.085-1.51M414.408 414.819l-.085 1.51M411.688 416.065l.07-1.527M419.163 412.889h.51M416.408 412.59l2.753.299M416.935 412.59h-.528M419.674 412.889l-2.74-.299M416.935 412.643v-.052M186.109 437.001l-.02-.21-.016-.106-.017-.088-.019-.07-.016-.07-.017-.052-.034-.053-.056-.088-.034-.018-.034-.017-.038.017-.015.035-.017.088v.105l.017.159.015.087v.106l.02.104v.106" style="fill:none;stroke:red;stroke-width:.999997;stroke-linecap:round;stroke-linejoin:round;stroke-miterlimit:4;stroke-dasharray:none;stroke-opacity:1;visibility:visible"/><path d="m186.302 436.966-.087.017-.108.018M186.565 436.913l-.02-.193v-.106l-.015-.088-.037-.069-.016-.07-.017-.053-.034-.053-.056-.088-.033-.017-.035-.018-.037.018v.036l-.015.086v.054l.015.053v.157l.019.088.018.106v.209" style="fill:none;stroke:red;stroke-width:.999997;stroke-linecap:round;stroke-linejoin:round;stroke-miterlimit:4;stroke-dasharray:none;stroke-opacity:1;visibility:visible"/><path d="m186.757 436.896-.087.017h-.108M186.987 436.844l-.02-.21-.015-.089-.018-.086-.019-.072-.016-.07-.035-.07-.016-.052-.056-.071-.034-.035h-.034l-.018.018-.02.034v.194l.02.157.018.088.015.088v.105l.019.124M187.144 436.808l-.072.019-.085.017M187.354 436.773l-.019-.21-.014-.089-.019-.088-.019-.088-.013-.069-.039-.053-.016-.052-.056-.071-.032-.035h-.036l-.017.018v.176l.017.052.016.141.02.087v.105l.018.105v.106M188.53 436.23v.052l-.053.07-.07.054-.106.07-.124.053-.175.069-.175.053-.226.052-.248.071M173.824 437.16l-.228-.035-.21-.053-.195-.053-.159-.052-.123-.035-.104-.07-.066-.054-.054-.052-.018-.052M174.035 437.195v-.21l.017-.089v-.176l.016-.069v-.245l-.033-.019-.019.019-.034.017-.052.087-.019.053-.015.052-.037.141-.019.088v.104l-.016.106v.106M174.192 437.212h-.072l-.085-.017" style="fill:none;stroke:red;stroke-width:.999997;stroke-linecap:round;stroke-linejoin:round;stroke-miterlimit:4;stroke-dasharray:none;stroke-opacity:1;visibility:visible"/><path d="M174.438 437.247v-.387l.017-.086v-.282l-.017-.034-.019-.018-.034.018-.032.034-.054.071-.018.052-.019.053-.035.14-.017.106v.088l-.02.105v.105M174.614 437.264h-.088l-.088-.017M174.877 437.3v-.403l.019-.07v-.194l-.019-.088-.02-.034-.015-.018-.037.018-.033.017-.054.088-.017.052-.019.053-.034.14-.019.088-.015.106v.21M175.07 437.317l-.085-.017h-.11M175.351 437.335v-.299l.017-.088v-.262l-.017-.106-.02-.034h-.067l-.036.034-.053.071-.019.052-.034.07-.019.14-.015.089-.018.105v.21M175.562 437.352h-.105l-.106-.017M175.877 437.37v-.596l-.02-.053-.015-.106-.017-.017-.033-.017h-.038l-.034.034-.054.071-.017.052-.019.07-.034.14-.019.089v.105l-.015.105v.106M176.106 437.387h-.124l-.105-.017M176.421 437.405v-.613l-.02-.054-.015-.088-.037-.034-.033-.018-.034.018-.037.034-.053.071-.019.052-.015.07-.037.14-.015.089v.316M184.757 437.16l-.421.035-.44.052-.455.036-.457.034-.475.018-.472.036-.475.017-.492.017-.49.018-.474.017h-.49l-.474.019h-.949l-.459-.019h-.453l-.44-.017-.42-.018M185.073 437.124v-.21l-.019-.089-.013-.088-.02-.086-.017-.071-.035-.053-.019-.052-.072-.088-.032-.018-.036-.017-.036.017-.016.035-.037.088v.123l.019.141v.192l.018.105v.106M185.302 437.107h-.105l-.124.017" style="fill:none;stroke:red;stroke-width:.999997;stroke-linecap:round;stroke-linejoin:round;stroke-miterlimit:4;stroke-dasharray:none;stroke-opacity:1;visibility:visible"/><path d="m185.617 437.054-.019-.193-.013-.106-.02-.086-.02-.071-.012-.07-.039-.07-.016-.053-.054-.07-.054-.036h-.033l-.035.018-.018.036-.019.086v.106l.019.141v.105l.018.087v.23M187.354 436.773l.053 1.58M184.81 438.721l-.052-1.561M176.421 437.405l.052 1.561M173.877 438.739l-.053-1.58M181.58 434.667l.596-.088M178.914 434.387l2.667.28M179.492 434.316l-.58.07M182.178 434.58l-2.688-.263M179.492 434.456v-.14M204.096 809.206h0" style="fill:none;stroke:red;stroke-width:.999997;stroke-linecap:round;stroke-linejoin:round;stroke-miterlimit:4;stroke-dasharray:none;stroke-opacity:1;visibility:visible"/><path d="m201.06 807.732 48.245-7.265 8.159-1.23 83.253-12.53 7.984-1.21 41.699-6.285" style="fill:none;stroke:red;stroke-width:1.99999;stroke-linecap:round;stroke-linejoin:round;stroke-miterlimit:4;stroke-dasharray:none;stroke-opacity:1;visibility:visible"/><path d="m236.44 822.877 19.079-2.948 2.718-.42 88.623-13.673 2.652-.403 41.786-6.459" style="fill:none;stroke:red;stroke-width:.999997;stroke-linecap:round;stroke-linejoin:round;stroke-miterlimit:4;stroke-dasharray:none;stroke-opacity:1;visibility:visible"/><path d="M407.109 779.337h0M407.424 779.337l10.899 3.51M421.48 783.865l24.779 7.984M464.002 797.553l67.917 21.867M535.306 820.508l122.356 39.415M661.327 861.1l10.847 3.493" style="fill:none;stroke:red;stroke-width:1.99999;stroke-linecap:round;stroke-linejoin:round;stroke-miterlimit:4;stroke-dasharray:none;stroke-opacity:1;visibility:visible"/><path d="m405.65 799.484 40.857 13.53M464.213 818.894l171.336 56.772" style="fill:none;stroke:red;stroke-width:.999997;stroke-linecap:round;stroke-linejoin:round;stroke-miterlimit:4;stroke-dasharray:none;stroke-opacity:1;visibility:visible"/><path d="m407.109 779.337.052-.017.07-.016h.053l.053.016h.033l.052.017M405.353 779.74l.28-.053.281-.052.28-.054.244-.069.248-.053.23-.07.19-.053" style="fill:none;stroke:red;stroke-width:1.99999;stroke-linecap:round;stroke-linejoin:round;stroke-miterlimit:4;stroke-dasharray:none;stroke-opacity:1;visibility:visible"/><path d="m411.127 784.9-.036-.019-.016-.016M411.127 784.9l.017-.072.035-.068M411.46 799.975l.49-.087M202.148 810.312h0" style="fill:none;stroke:red;stroke-width:.999997;stroke-linecap:round;stroke-linejoin:round;stroke-miterlimit:4;stroke-dasharray:none;stroke-opacity:1;visibility:visible"/><path d="m447.454 900.972-4.807-1.772M439.416 898.006l-116.301-43.05M320.132 853.852l-104.525-38.68M212.837 814.154l-10.337-3.843" style="fill:none;stroke:red;stroke-width:1.99999;stroke-linecap:round;stroke-linejoin:round;stroke-miterlimit:4;stroke-dasharray:none;stroke-opacity:1;visibility:visible"/><path d="m447.733 925.54-250.5-95.417M198.463 810.978l.333-.035.352-.036.334-.053.314-.033.334-.054.3-.052.296-.053.265-.052.245-.052.246-.07.23-.054.226-.07.193-.053M202.148 810.312l.053-.019h.247l.052.019" style="fill:none;stroke:red;stroke-width:.999997;stroke-linecap:round;stroke-linejoin:round;stroke-miterlimit:4;stroke-dasharray:none;stroke-opacity:1;visibility:visible"/><path d="m691.178 889.67-.019 7.353M186.337 830.02l.157 6.807M688.283 886.405h.019l.314.175.316.176.28.157.282.193.248.176.242.194.231.21.208.211.176.228.177.228.14.247.106.261.086.264.054.263.017.281" style="fill:none;stroke:red;stroke-width:1.99999;stroke-linecap:round;stroke-linejoin:round;stroke-miterlimit:4;stroke-dasharray:none;stroke-opacity:1;visibility:visible"/><path d="M186.337 830.02v-.177l.017-.176.036-.175.052-.159v-.016" style="fill:none;stroke:red;stroke-width:.999997;stroke-linecap:round;stroke-linejoin:round;stroke-miterlimit:4;stroke-dasharray:none;stroke-opacity:1;visibility:visible"/><path d="m691.161 897.023-.017.21-.036.194-.032.21-.072.193-.091.194-.085.194-.124.174-.124.175-.138.176-.196.195-.209.209-.227.192-.264.176-.262.193-.28.176-.318.158-.316.176-.314.157-.334.14-.352.141-.368.14-.386.142-.404.138-.406.142-.418.122-.439.123-.456.123-.473.122-.475.106-.456.105-.456.088-.475.105-.473.088-204.871 37.539M476.814 939.739l-.596.105-.615.104-.614.106-.635.089-.647.087-.648.088-.653.069-.667.072-.666.07-.683.053-.684.052-.667.052-.686.053-.682.033-.685.038-.687.016-.7.036-.684.016h-.702l-.686.02h-1.385l-.687-.02-.681-.016-.684-.018-.687-.018-.682-.034-.667-.036-.667-.052-.666-.037-.654-.052-.646-.052-.648-.07-.634-.07-.614-.07-.63-.071-.6-.087-.614-.09-.578-.086-.578-.087-.579-.108-.547-.104-.54-.105-.528-.104-.528-.124-.509-.121-.508-.142-.492-.124-.453-.138-.459-.143-.437-.139-.424-.157-.402-.143-254.518-98.537M189.601 839.741l-.333-.139-.316-.142-.299-.139-.281-.141-.263-.159-.245-.157-.231-.158-.21-.176-.191-.176-.175-.174-.143-.212-.118-.175-.091-.175-.087-.193-.053-.193-.05-.211-.02-.193" style="fill:none;stroke:red;stroke-width:1.99999;stroke-linecap:round;stroke-linejoin:round;stroke-miterlimit:4;stroke-dasharray:none;stroke-opacity:1;visibility:visible"/><path d="m686.108 466.484.017-.07.015-.07M703.358 466.87v.017l.019.123" style="fill:none;stroke:red;stroke-width:.999997;stroke-linecap:round;stroke-linejoin:round;stroke-miterlimit:4;stroke-dasharray:none;stroke-opacity:1;visibility:visible"/><path d="m686.072 467.467.035-.983M703.341 467.993l.033-.983" style="fill:none;stroke:red;stroke-width:1.99999;stroke-linecap:round;stroke-linejoin:round;stroke-miterlimit:4;stroke-dasharray:none;stroke-opacity:1;visibility:visible"/><path d="m535.218 820.262.052.053.019.051.016.053M529.567 820.438v-.035l.033-.053.038-.052M533.533 821.508l-.263.033-.281.02h-1.104l-.281-.02-.266-.016M535.306 820.894l-.02.07-.032.07-.072.055-.087.068-.122.053-.139.052-.177.052-.195.053-.21.035-.227.053-.23.035-.262.017" style="fill:none;stroke:red;stroke-width:.999997;stroke-linecap:round;stroke-linejoin:round;stroke-miterlimit:4;stroke-dasharray:none;stroke-opacity:1;visibility:visible"/><path d="m531.34 821.525-.248-.033-.244-.02-.228-.052-.21-.034-.195-.054-.156-.052-.159-.054-.123-.052-.088-.053-.069-.068-.033-.055-.02-.07M533.322 819.437l.23.035.21.018.193.035.192.035.158.053.141.052.125.036.103.052.068.052M530.11 819.84l.087-.07.108-.053.138-.052.159-.053.175-.052.21-.036.228-.035.247-.036.244-.017.281-.016h.262l.265-.019.281.019h.263l.263.016M535.306 820.42v.473M529.567 820.438v.49M534.744 819.805l.472.456M530.11 819.84l-.472.456M661.24 860.853l.053.053.032.052v.071M655.272 860.994v-.053l.035-.07.052-.053M659.45 862.188l-.28.033-.281.019h-.876l-.3-.019-.283-.016-.28-.017M661.327 861.538l-.017.07-.035.069-.07.07-.105.072-.125.052-.156.071-.177.052-.21.053-.228.034-.229.053-.263.036-.262.016M657.151 862.188l-.264-.035-.264-.037-.244-.052-.21-.035-.213-.052-.173-.07-.16-.054-.121-.07-.106-.068-.07-.071-.036-.07-.018-.073M659.152 859.94l.245.035.244.036.23.034.193.035.173.055.176.052.124.052.106.069.088.053" style="fill:none;stroke:red;stroke-width:.999997;stroke-linecap:round;stroke-linejoin:round;stroke-miterlimit:4;stroke-dasharray:none;stroke-opacity:1;visibility:visible"/><path d="m655.87 860.344.085-.07.11-.053.138-.052.176-.053.176-.052.21-.036.244-.035.248-.036.245-.017.283-.016.28-.019h.544l.28.019.264.016M661.327 861.03v.508M655.272 860.994v.508M660.73 860.363l.51.49M655.87 860.344l-.51.473M425.359 417.697v-.017M410.23 416.855h0l-.019.017" style="fill:none;stroke:red;stroke-width:.999997;stroke-linecap:round;stroke-linejoin:round;stroke-miterlimit:4;stroke-dasharray:none;stroke-opacity:1;visibility:visible"/><path d="m425.359 417.697-5.968 108.07M419.234 528.767 405.371 779.74M410.214 416.872l-19.85 362.938M698.884 591.804l.07-.245.033-.247.036-.263v-.544l-.036-.262-.034-.282" style="fill:none;stroke:red;stroke-width:1.99999;stroke-linecap:round;stroke-linejoin:round;stroke-miterlimit:4;stroke-dasharray:none;stroke-opacity:1;visibility:visible"/><path d="m188.618 438.95.017.017v.018" style="fill:none;stroke:red;stroke-width:.999997;stroke-linecap:round;stroke-linejoin:round;stroke-miterlimit:4;stroke-dasharray:none;stroke-opacity:1;visibility:visible"/><path d="M172.77 439.458v-.035" style="fill:none;stroke:red;stroke-width:1.99999;stroke-linecap:round;stroke-linejoin:round;stroke-miterlimit:4;stroke-dasharray:none;stroke-opacity:1;visibility:visible"/><path d="m197.34 830.16-.421.053-.44.052-.44.054-.454.036-.44.033M186.881 829.598l-.176-.087-.124-.089-.121-.105-.088-.088-.072-.103-.034-.107-.018-.106" style="fill:none;stroke:red;stroke-width:.999997;stroke-linecap:round;stroke-linejoin:round;stroke-miterlimit:4;stroke-dasharray:none;stroke-opacity:1;visibility:visible"/><path d="m172.77 439.458 3.879 112.316M176.79 555.688l9.46 273.225" style="fill:none;stroke:red;stroke-width:1.99999;stroke-linecap:round;stroke-linejoin:round;stroke-miterlimit:4;stroke-dasharray:none;stroke-opacity:1;visibility:visible"/><path d="M470.25 928.296h0M672.05 869.224h0M465.775 905.64h0M676.314 870.56h0M677.052 890.284h0M465.32 925.961h0M466.09 926.874h0M469.724 928.19h0M676.42 891.056l-206.257 37.308" style="fill:none;stroke:red;stroke-width:.999997;stroke-linecap:round;stroke-linejoin:round;stroke-miterlimit:4;stroke-dasharray:none;stroke-opacity:1;visibility:visible"/><path d="M672.05 869.224 465.775 905.64" style="fill:none;stroke:red;stroke-width:1.99999;stroke-linecap:round;stroke-linejoin:round;stroke-miterlimit:4;stroke-dasharray:none;stroke-opacity:1;visibility:visible"/><path d="m676.314 870.56.087.017.09.036.072.032.086.054.085.054.072.068.07.072.053.07.053.086.017.072.036.071v.016l.018.072.014.085v.09l-.014 18.83M672.91 869.663l.157.07.195.087.192.071.21.07.226.089.25.069.242.072.265.052.263.07.281.051.282.054.298.052.298.054.228.034M677.052 890.284l-.019.123-.034.122-.019.088-.053.071-.032.068-.054.07-.07.053-.071.053-.107.052-.122.053-.052.018M672.05 869.224h.156l.053.017.052.018M466.09 926.874l-.085-.017-.09-.036-.088-.034-.089-.052-.067-.072-.072-.052-.07-.088-.052-.088-.054-.088-.032-.07-.02-.052-.02-.018v-.034l-.013-.104-.019-.108M469.724 928.19l-.053-.07-.072-.069-.086-.072-.105-.07-.123-.071-.122-.068-.14-.09-.195-.087-.192-.07-.228-.086-.23-.09-.246-.07-.261-.07-.302-.07-.294-.071-.319-.07-.315-.07-.352-.052M470.163 928.366h-.139l-.072-.019-.07-.033-.072-.036-.052-.052-.034-.035M465.127 906.429v-.087l.017-.088.035-.088.017-.088.054-.088.052-.069.052-.07.07-.054.054-.052.121-.053.123-.052h.036" style="fill:none;stroke:red;stroke-width:.999997;stroke-linecap:round;stroke-linejoin:round;stroke-miterlimit:4;stroke-dasharray:none;stroke-opacity:1;visibility:visible"/><path d="m419.62 527.328-.019.228-.034.228-.032.228-.054.21-.07.194-.091.193-.087.158M419.392 525.766l.07.193.069.211.036.228.036.228.017.228.017.245-.017.228" style="fill:none;stroke:red;stroke-width:1.99999;stroke-linecap:round;stroke-linejoin:round;stroke-miterlimit:4;stroke-dasharray:none;stroke-opacity:1;visibility:visible"/><path d="M686.072 467.555v-.035l.019-.017" style="fill:none;stroke:red;stroke-width:.999997;stroke-linecap:round;stroke-linejoin:round;stroke-miterlimit:4;stroke-dasharray:none;stroke-opacity:1;visibility:visible"/><path d="M703.341 468.046v.035l-4.388 121.88M698.884 591.804l-10.69 297.41M686.072 467.555l-14.057 401.687" style="fill:none;stroke:red;stroke-width:1.99999;stroke-linecap:round;stroke-linejoin:round;stroke-miterlimit:4;stroke-dasharray:none;stroke-opacity:1;visibility:visible"/><path d="m176.79 555.688-.105-.176-.106-.192-.089-.23-.067-.227-.072-.228-.07-.263-.035-.247-.037-.262-.016-.263v-.247l.016-.245.02-.245.052-.23.052-.209.052-.193.089-.176.088-.14.09-.142" style="fill:none;stroke:red;stroke-width:.999997;stroke-linecap:round;stroke-linejoin:round;stroke-miterlimit:4;stroke-dasharray:none;stroke-opacity:1;visibility:visible"/><path d="M442.926 487.28v.035" style="fill:none;stroke:red;stroke-width:1.99999;stroke-linecap:round;stroke-linejoin:round;stroke-miterlimit:4;stroke-dasharray:none;stroke-opacity:1;visibility:visible"/><path d="M460.896 487.122v-.035M447.752 927.594l.019.139.052.142.088.139.122.141.158.139.194.125.21.14.244.122.3.106.298.122.35.105.352.107.404.105.404.088.438.087.454.069.476.072.492.052.508.053.525.054.53.033.542.019.543.017.546.017h.543l.563-.017.544-.017.544-.035.542-.037.528-.034.524-.053.492-.07.494-.07.473-.07.457-.089.438-.086.42-.106.385-.105.353-.105.352-.123.295-.105.281-.142.247-.124.23-.138.174-.124.159-.139.122-.143.068-.138.052-.142.02-.138" style="fill:none;stroke:red;stroke-width:.999997;stroke-linecap:round;stroke-linejoin:round;stroke-miterlimit:4;stroke-dasharray:none;stroke-opacity:1;visibility:visible"/><path d="m442.926 487.316 1.404 129.628M444.365 620.49l3.387 307.105" style="fill:none;stroke:red;stroke-width:1.99999;stroke-linecap:round;stroke-linejoin:round;stroke-miterlimit:4;stroke-dasharray:none;stroke-opacity:1;visibility:visible"/><path d="m443.961 618.629.017.28.016.264.052.281.054.28.07.263.091.247.104.246M444.33 616.944l-.105.195-.071.209-.07.23-.054.243-.033.264-.02.263-.015.281M442.54 898.935l.052.07.033.07.019.07M436.345 899.217l.017-.07.035-.069.052-.072M440.697 900.427l-.3.017-.281.036h-.296l-.318.018h-.297l-.297-.018-.283-.02-.297-.016M442.663 899.672l-.02.07-.052.089-.067.069-.108.07-.14.07-.157.07-.195.071-.209.052-.23.071-.243.035-.266.053-.281.035M438.327 900.444l-.28-.017-.264-.052-.261-.036-.228-.052-.214-.054-.19-.052-.159-.07-.141-.071-.104-.068-.072-.072-.054-.088-.014-.068M440.538 898.04l.248.033.244.038.23.034.207.052.178.071.156.053.125.071.085.068M436.976 898.515l.087-.072.124-.068.157-.07.176-.07.21-.053.229-.054.266-.034.262-.036.281-.034.295-.018h.896l.3.018.28.018M442.645 899.146l.019.528M436.345 899.217v.528M442.013 898.461l.528.473M436.976 898.515l-.528.49M323.028 854.711l.055.053.032.052v.071M317.15 854.993l.017-.053.015-.052.053-.072M321.291 856.08l-.281.017-.28.018-.28.018-.298.018h-.562l-.28-.018-.282-.018M323.135 855.378l-.02.07-.032.07-.073.07-.104.07-.124.07-.158.054-.176.07-.19.054-.21.05-.248.035-.248.054-.261.034M319.028 856.115l-.263-.017-.265-.036-.225-.034-.23-.052-.194-.037-.176-.052-.158-.052-.124-.07-.105-.07-.065-.052-.056-.072v-.07M321.187 853.886l.245.035.211.036.21.034.175.035.176.055.122.052.106.053.088.07" style="fill:none;stroke:red;stroke-width:.999997;stroke-linecap:round;stroke-linejoin:round;stroke-miterlimit:4;stroke-dasharray:none;stroke-opacity:1;visibility:visible"/><path d="m317.729 854.343.087-.07.108-.054.12-.052.177-.07.175-.034.21-.053.23-.035.226-.037.263-.034.265-.018.263-.016.28-.018h.544l.263.018.248.016M323.117 854.887l.019.49M317.15 854.993l.017.51M322.52 854.256l.508.456M317.729 854.343l-.49.473M215.539 814.926l.033.053.038.052v.054M209.94 815.226v-.053l.035-.052.036-.035M213.889 816.19l-.263.017-.265.036-.277.018h-1.11l-.261-.018M215.627 815.56l-.02.052-.033.07-.07.053-.088.07-.122.054-.139.068-.163.053-.19.052-.195.037-.23.052-.242.034-.248.037M211.713 816.243l-.247-.017-.245-.036-.227-.018-.21-.034-.176-.052-.176-.036-.14-.052-.123-.054-.09-.052-.069-.069-.052-.052v-.072M213.837 814.172l.228.033.192.02.195.034.157.036.143.053.118.033.106.054.072.052M210.484 814.611l.072-.052.105-.072.124-.05.156-.054.178-.035.209-.053.21-.036.247-.033.243-.035.263-.019.265-.018h.263l.264-.016.262.016h.246l.246.018M215.609 815.085l.019.472M209.94 815.226l.019.472M215.048 814.489l.49.439M210.484 814.611l-.472.472M421.41 783.62l.032.033.039.054v.036M416.023 783.812v-.035l.033-.052.038-.036M419.814 784.777l-.248.017-.263.018-.262.018h-.808l-.263-.018-.263-.018M421.48 784.216v.053l-.036.052-.07.054-.089.069-.121.052-.123.053-.157.035-.193.053-.194.035-.212.036-.226.036-.246.033M417.708 784.795l-.23-.019-.242-.016-.215-.037-.19-.033-.175-.052-.159-.038-.142-.052-.119-.053-.09-.052-.073-.053-.032-.052-.02-.071M419.655 782.864l.21.017.194.035.192.019.157.034.162.035.12.055.104.033.09.052.071.036M416.549 783.232l.07-.053.089-.034.122-.052.139-.054.161-.035.192-.052.194-.019.21-.034.227-.034.245-.02h.247l.243-.017h.494l.244.017.23.02M421.48 783.742v.473M416.023 783.812v.456M420.955 783.18l.456.437M416.549 783.232l-.456.456M465.214 915.59l-.02.053" style="fill:none;stroke:red;stroke-width:.999997;stroke-linecap:round;stroke-linejoin:round;stroke-miterlimit:4;stroke-dasharray:none;stroke-opacity:1;visibility:visible"/><path d="m394.153 790.515-1.843 1.805M395.154 790.813l-1.001-.3M397.576 794.007l-.301-1.072M392.696 795.357l-.085-.139-.072-.16-.07-.14-.072-.157-.066-.141-.054-.158-.038-.14-.051-.158M392.188 794.165l-.036-.157-.05-.159-.037-.175-.016-.176-.037-.194-.019-.192-.016-.21-.018-.229M392.222 792.41l-.263.263M397.576 794.007l-.281.28M397.295 794.287l-.176.176-.157.157-.139.14-.143.142-.138.122-.124.124-.106.122-.124.105M396.188 795.376l-.104.105-.105.104-.106.106-.104.089-.109.105-.085.087-.106.105-.105.09M395.364 796.166l-.21-.02-.209-.016-.194-.036-.192-.033-.178-.035-.156-.037-.177-.034-.156-.053M393.89 795.902l-.139-.035-.161-.052-.139-.072-.157-.052-.141-.07-.14-.087-.156-.07-.162-.106M392.222 792.41h0M392.433 792.094l.087.033M392.38 792.217l-.159.193M392.416 792.234l-.035-.017M394.139 789.568l-.195.228-.173.228-.141.244-.14.248-.103.28-.072.281M396.63 795.26l.177.01.298-.034.278-.053.282-.071.281-.103.265-.125.244-.14.23-.175.209-.194M399.053 794.22l.208-.23.179-.227.141-.263.12-.263.104-.281.072-.3.052-.297.019-.298v-.316l-.034-.298-.07-.3-.091-.296-.119-.282-.142-.28-.178-.264-.19-.245-.21-.228-.229-.21-.247-.177-.262-.176-.28-.14-.282-.122-.301-.09-.295-.052-.3-.033-.314-.02-.3.037-.299.052-.28.071-.279.105-.282.122-.246.16-.248.173-.209.195" style="fill:none;stroke:red;stroke-width:.666665;stroke-linecap:round;stroke-linejoin:round;stroke-miterlimit:4;stroke-dasharray:none;stroke-opacity:1;visibility:visible"/><path d="m465.179 912.028-.02-.019h-.013M465.283 922.241h-.033M465.073 903.955l8.25.35M209.765 812.997l4.177-3.475.648-.089M216.838 808.679l2.492.088M219.33 808.767h.052l.052.017.019.016h.016M219.645 816.665l-.175-7.863M657.52 871.787l3.248-5.512M660.766 866.277l.017-.019.054-.016h.157l1.967.068M408.757 784.391h.159M387.856 783.216l19.339.667 1.562.509M409.407 784.32l.28-.052M408.916 784.391l.49-.072M410.372 799.606l-.02.017-.052.018h-.139l-26.797-.948M383.012 784.005h0M383.364 798.693h-.053l-.052-.017h-.02l-.014-.016M383.012 784.005l.544-.544M385.61 783.549l2.248-.333M383.223 798.66l-.21-14.655M172.737 438.475v-.07l.019-.053M188.565 437.879l.035.123" style="fill:none;stroke:red;stroke-width:.999997;stroke-linecap:round;stroke-linejoin:round;stroke-miterlimit:4;stroke-dasharray:none;stroke-opacity:1;visibility:visible"/><path d="m172.77 439.37-.033-.895M188.635 438.896l-.032-.895" style="fill:none;stroke:red;stroke-width:1.99999;stroke-linecap:round;stroke-linejoin:round;stroke-miterlimit:4;stroke-dasharray:none;stroke-opacity:1;visibility:visible"/><path d="m458.335 486.63-.02-.035M458.335 486.63l-.125.017-.104.018M457.773 486.7v-.017M457.773 486.7l-.123.017-.124.018M460.88 485.788l-.02.07-.032.071-.087.07-.109.07-.139.054-.176.069-.192.07-.228.07M459.685 486.385v-.053M459.685 486.385l-.072.017-.085.018M459.282 486.473v-.035M459.282 486.473l-.085.017-.09.018M458.826 486.56v-.052M458.826 486.56l-.105.017-.09.018M445.365 486.736l.017.017M445.593 486.789l-.104-.017-.107-.018M445.085 486.719l-.107-.017h-.104M444.874 486.648v.053M457.194 486.771v-.017M457.194 486.771l-.457.053-.474.035-.489.035-.51.034-.529.036-.525.035-.527.017-.544.018-.562.017h-1.104l-.544.019-.543-.019h-.548l-.524-.017-.528-.018-.508-.017-.508-.035M447.77 486.947v.017M447.383 486.947h-.123l-.14-.019M447.12 486.912v.017M446.752 486.894h-.123l-.125-.017M446.506 486.86v.017M446.155 486.842h-.123l-.125-.017M445.91 486.789v.035M444.611 486.648l-.316-.053-.28-.07-.248-.052-.227-.07-.193-.071-.156-.07-.124-.07-.09-.07-.053-.07-.016-.07M457.773 486.683l.052-.017h.281M457.194 486.754l.032-.017h.301M447.383 486.947h.07l.07-.019h.088l.07.019h.089M446.752 486.894h.313l.054.017M446.155 486.842h.299l.052.017M445.593 486.789h.315M445.085 486.719h.227l.053.017M444.611 486.648h.263M459.685 486.333h.21M459.282 486.438l.07-.017h.178M458.826 486.508h.281M458.317 486.595h.07l.069-.017h.089l.085.017" style="fill:none;stroke:red;stroke-width:.999997;stroke-linecap:round;stroke-linejoin:round;stroke-miterlimit:4;stroke-dasharray:none;stroke-opacity:1;visibility:visible"/><path d="M442.89 484.191v-.193l.035-.211.036-.192.068-.193.072-.194.07-.176.107-.157.104-.159.124-.14.123-.122.122-.123.14-.105.124-.088.139-.088.141-.07.123-.07.173-.088.178-.071.176-.052.174-.052.282-.088.316-.07.314-.053.334-.07.352-.052.368-.054.316-.034.333-.036.35-.035.353-.035.314-.017.334-.019.352-.034.333-.018.352-.017h.367l.352-.019.385-.017h2.355l.385.017.367.019h.368l.352.017.35.035.334.017.333.019.335.035.316.034.297.036.281.035.246.035.246.036.228.052.228.052.227.036.212.069.21.053.315.123.351.176.352.245.12.088.125.123.106.105.104.14.124.159.105.175.09.193.067.193.052.175.038.176.017.176v.175M460.88 485.788l-.02-1.79M442.908 485.982l-.02-1.79" style="fill:none;stroke:red;stroke-width:1.99999;stroke-linecap:round;stroke-linejoin:round;stroke-miterlimit:4;stroke-dasharray:none;stroke-opacity:1;visibility:visible"/><path d="m442.908 486.21.019-.087.014-.053M460.861 485.876h0l.019.123" style="fill:none;stroke:red;stroke-width:.999997;stroke-linecap:round;stroke-linejoin:round;stroke-miterlimit:4;stroke-dasharray:none;stroke-opacity:1;visibility:visible"/><path d="m442.926 487.228-.02-1.019M460.896 487.034l-.019-1.035" style="fill:none;stroke:red;stroke-width:1.99999;stroke-linecap:round;stroke-linejoin:round;stroke-miterlimit:4;stroke-dasharray:none;stroke-opacity:1;visibility:visible"/><path d="m686.23 466.45.052.017h.033v.054M686.142 466.361h.052v.053M686.177 464.536h0v.017" style="fill:none;stroke:red;stroke-width:.999997;stroke-linecap:round;stroke-linejoin:round;stroke-miterlimit:4;stroke-dasharray:none;stroke-opacity:1;visibility:visible"/><path d="m686.125 466.256.052-1.701" style="fill:none;stroke:red;stroke-width:1.99999;stroke-linecap:round;stroke-linejoin:round;stroke-miterlimit:4;stroke-dasharray:none;stroke-opacity:1;visibility:visible"/><path d="M686.125 466.256v.07M686.318 463.869l.017-.035v-.034l.016-.036.02-.035.018-.035v-.018" style="fill:none;stroke:red;stroke-width:.999997;stroke-linecap:round;stroke-linejoin:round;stroke-miterlimit:4;stroke-dasharray:none;stroke-opacity:1;visibility:visible"/><path d="m703.41 464.607-.019-.07v-.035l-.013-.054v-.034l-.02-.035-.019-.036" style="fill:none;stroke:red;stroke-width:1.99999;stroke-linecap:round;stroke-linejoin:round;stroke-miterlimit:4;stroke-dasharray:none;stroke-opacity:1;visibility:visible"/><path d="M703.41 464.607v.053l.019.07v.069l.016.07v.142M703.358 466.888v-.052M703.358 466.888l-.019.017-.016.018M703.27 466.976v-.053M703.27 466.976l-.035.017-.037.018M703.376 466.8v.035M694.004 467.642l-.157-.017h-.142M693.285 467.607l-.159-.017h-.142M692.986 467.59h0M703.113 467.063v-.052M703.113 467.063l-.159.07-.174.053-.211.053-.23.07-.262.035-.299.052-.316.054-.35.034-.368.035-.404.036-.404.035-.439.034-.459.019-.453.017-.493.018-.49.017h-1.017M696.163 467.695h-.299M695.444 467.678h-.301M694.724 467.66h-.3M692.565 467.555l-.51-.035-.49-.034-.49-.036-.477-.052-.452-.054-.442-.052-.42-.053-.387-.052-.385-.053-.354-.071-.333-.07-.295-.051-.281-.071-.247-.07-.21-.071-.195-.07-.156-.07-.125-.07M686.23 466.45l-.02-.017-.016-.018M686.142 466.361v-.017l-.019-.018M703.27 466.923h.052M703.113 467.011h.085M696.163 467.695l.019-.017h.349l.052.017M695.444 467.678h.032l.055-.017h.16l.066.017h.072l.035.017M694.724 467.66h.033l.052-.017h.163l.085.017h.054l.032.017M694.004 467.642l.035-.017h.298l.054.017.033.017M693.285 467.607l.033-.017h.228l.072.017h.052l.035.017M692.565 467.555h.281l.071.017h.052l.015.018M703.358 466.835h.019M703.447 465.01v.07" style="fill:none;stroke:red;stroke-width:.999997;stroke-linecap:round;stroke-linejoin:round;stroke-miterlimit:4;stroke-dasharray:none;stroke-opacity:1;visibility:visible"/><path d="m686.388 463.676.085-.176.11-.157.12-.159.124-.14.122-.123.123-.105.123-.088.141-.087.139-.088.122-.07.143-.054.12-.052.213-.069.191-.07.21-.054.195-.035.282-.053.298-.052.298-.053.334-.035.334-.035.368-.017.369-.035.297-.018.316-.018h.316l.334-.017h.333l.352-.017h1.07l.387.017h.367l.387.017.385.018.385.018.368.016.354.019.368.017.35.035.352.035.352.018.334.035.314.052.315.036.317.035.298.053.281.035.281.053.28.052.262.052.248.07.242.054.23.07.3.122.316.141.317.175.139.105.14.106.121.122.143.142.124.157.104.176.105.192.07.193.035.106M686.177 464.536l.017-.14.016-.124.02-.14.032-.123.054-.14M703.376 466.8l.07-1.72" style="fill:none;stroke:red;stroke-width:1.99999;stroke-linecap:round;stroke-linejoin:round;stroke-miterlimit:4;stroke-dasharray:none;stroke-opacity:1;visibility:visible"/><path d="M423.218 416.75v-.017M423.218 416.75h-.175M422.762 416.75v-.017M422.762 416.75h-.21M425.429 416.573l-.02.019-.032.016-.07.036-.106.017-.125.017-.138.018h-.176l-.194.017M424.394 416.732v-.017M424.394 416.732h-.139M424.043 416.732v-.017M424.043 416.732h-.159M423.657 416.75v-.017M423.657 416.75h-.176M412.32 416.118v.017M412.495 416.153h-.085l-.091-.019M412.075 416.1h-.088l-.088-.017M411.899 416.065v.017M422.253 416.732h0M422.253 416.732h-.387l-.405-.017h-.403l-.438-.018-.44-.018-.436-.018-.459-.017-.453-.017-.458-.018-.476-.036-.452-.016-.476-.036-.457-.034-.455-.018-.441-.036-.439-.034-.437-.035-.42-.036M414.32 416.328h0M414.004 416.31l-.123-.017h-.105M413.777 416.275v.017M413.46 416.258l-.104-.017h-.107M413.25 416.223v.017M412.97 416.205l-.107-.017h-.088M412.775 416.17v.017M411.688 416.065l-.263-.035-.246-.036-.211-.034-.175-.036-.158-.035-.123-.035-.105-.036-.071-.034-.035-.018-.02-.034M422.762 416.732h.21l.071.017M422.253 416.732h.248l.05.017M414.004 416.31h.248l.052.017h.015M413.46 416.258h.21l.071.017h.034M412.97 416.205h.123l.07.017h.086M412.495 416.153h.053l.07.017h.157M412.075 416.1l.052.017h.193M411.688 416.065h.21M424.394 416.714h.176M424.043 416.714h.052l.087.017h.069M423.657 416.732h.228M423.218 416.732h.195l.066.017" style="fill:none;stroke:red;stroke-width:.999997;stroke-linecap:round;stroke-linejoin:round;stroke-miterlimit:4;stroke-dasharray:none;stroke-opacity:1;visibility:visible"/><path d="m410.372 414.222.019-.157.014-.159.054-.157.052-.14.056-.142.066-.14.091-.122.104-.123.088-.105.123-.106.105-.088.124-.088.104-.07.107-.052.104-.052.104-.036.105-.035.09-.017.085-.018.106-.018.104-.018.091-.017.281-.035.28-.017h.334l.192-.019h1.104l.249.019h.508l.281.017h.263l.281.018h.298l.317.017.315.017h.316l.316.018.316.018.314.018.318.017.316.017.297.036.317.018.298.016.297.018.299.018.281.034.281.018.263.018.261.035.266.017.245.035.228.019.23.034.21.018.193.017.176.036.158.017.157.035.137.017.143.019.125.035.138.034.142.035.139.053.105.035.124.053.086.035.105.07.124.071.104.087.105.088.124.123.09.122.104.123.07.124.055.14.065.123.039.14.033.157.019.159.016.141v.157M425.429 416.573l.087-1.527M410.283 415.731l.087-1.51" style="fill:none;stroke:red;stroke-width:1.99999;stroke-linecap:round;stroke-linejoin:round;stroke-miterlimit:4;stroke-dasharray:none;stroke-opacity:1;visibility:visible"/><path d="m410.267 415.924.016-.053.016-.035.02-.035.019-.017M425.377 416.609l.017.035.015.053v.07" style="fill:none;stroke:red;stroke-width:.999997;stroke-linecap:round;stroke-linejoin:round;stroke-miterlimit:4;stroke-dasharray:none;stroke-opacity:1;visibility:visible"/><path d="m410.23 416.802.035-.877M425.377 417.627l.032-.86" style="fill:none;stroke:red;stroke-width:1.99999;stroke-linecap:round;stroke-linejoin:round;stroke-miterlimit:4;stroke-dasharray:none;stroke-opacity:1;visibility:visible"/><path d="M185.88 438.616v-.035M185.88 438.616l-.104.017h-.105M185.354 438.669v-.017M185.354 438.669l-.104.017-.107.018M188.583 437.791v.07l-.052.053-.07.07-.106.054-.125.069-.175.052-.173.07-.228.054-.247.07M187.197 438.387v-.035M187.197 438.387l-.072.019-.087.016M186.81 438.475v-.035M186.81 438.475h-.085l-.11.017M186.354 438.545v-.035M186.354 438.545l-.085.017h-.11M174.492 438.791v.035M174.666 438.844h-.085l-.09-.017M174.263 438.791h-.085l-.09-.017M174.088 438.739v.035M184.81 438.739v-.017M184.81 438.739l-.419.035-.442.052-.454.036-.457.034-.476.018-.472.036-.475.017-.492.017-.472.018-.492.017h-.489l-.475.019h-.948l-.458-.019h-.454l-.441-.017-.42-.018M176.474 438.967v.017M176.159 438.967h-.123l-.106-.017M175.93 438.932v.017M175.632 438.932h-.124l-.105-.017M175.403 438.896v.017M175.122 438.896l-.085-.017h-.11M174.93 438.844v.036M173.877 438.739l-.23-.035-.21-.053-.195-.052-.154-.053-.126-.054-.105-.052-.067-.053-.052-.052-.02-.052M185.354 438.65h.052l.053-.017h.21M184.81 438.721l.035-.017h.298M176.159 438.967h.07l.069-.017h.142l.032.017M175.632 438.932h.052l.07-.017h.073l.052.017h.05M175.122 438.896l.07-.017h.178l.033.017M174.666 438.844h.261M174.263 438.791h.23M173.877 438.739h.21M187.197 438.353h.208M186.81 438.44l.033-.017h.195M186.354 438.51h.053l.07-.017h.14M185.88 438.58h.107l.052-.017h.122" style="fill:none;stroke:red;stroke-width:.999997;stroke-linecap:round;stroke-linejoin:round;stroke-miterlimit:4;stroke-dasharray:none;stroke-opacity:1;visibility:visible"/><path d="M172.666 436.703v-.176l.017-.175.035-.176.052-.174.053-.159.071-.157.085-.142.091-.14.104-.122.107-.123.104-.105.105-.088.124-.088.104-.07.124-.07.105-.054.139-.069.141-.053.124-.052.14-.054.262-.069.28-.07.3-.071.314-.052.352-.071.282-.035.281-.036.315-.034.317-.035.277-.035.302-.036.298-.017.296-.017.318-.035.316-.019.314-.017.334-.017.353-.018h.35l.349-.017h.353l.333-.019h1.334l.314.019h.319l.315.017.301.018h.279l.278.034.28.019.266.017.264.035.246.017.244.036.228.035.211.053.208.034.281.088.282.088.3.141.157.088.143.087.157.122.14.14.123.124.104.158.106.141.071.175.07.158.053.158.033.176.035.174v.142M188.583 437.791l-.052-1.561M172.718 438.283l-.052-1.58" style="fill:none;stroke:red;stroke-width:1.99999;stroke-linecap:round;stroke-linejoin:round;stroke-miterlimit:4;stroke-dasharray:none;stroke-opacity:1;visibility:visible"/><path d="m187.197 829.704-.053-.019-.072-.016-.052-.018-.034-.019-.053-.016-.052-.017M195.147 830.389l-.472.033-.476.019h-.473l-.475.019h-.457l-.472-.019-.458-.019-.437-.016-.44-.017-.437-.035-.424-.053-.386-.036-.386-.053-.367-.051-.353-.072-.334-.068-.313-.07-.281-.073-.263-.086-.245-.09M198.27 811.014l-.368.07-.404.069-.404.07M196.815 829.493v.07l.016.07.036.14.07.107.073.086.102.088.054.035.066.037M197.095 811.225l-.105.017-.09.036-.085.051-.087.052-.072.072-.052.07-.053.069-.053.07-.036.106-.035.089-.017.105v.123" style="fill:none;stroke:red;stroke-width:.999997;stroke-linecap:round;stroke-linejoin:round;stroke-miterlimit:4;stroke-dasharray:none;stroke-opacity:1;visibility:visible"/><path d="m196.41 812.084.104 4.353.09 4.351.103 4.353.107 4.352M198.463 810.978l-.033.017h-.091l-.033.016h-.038M403.317 781.478l.019 1.139v1.124" style="fill:none;stroke:red;stroke-width:.999997;stroke-linecap:round;stroke-linejoin:round;stroke-miterlimit:4;stroke-dasharray:none;stroke-opacity:1;visibility:visible"/><path d="m403.826 780.618-.072.017-.067.054-.056.052-.053.052-.052.072-.052.053-.035.085-.032.071-.038.105-.015.088-.019.106-.018.106M405.335 779.758l-.052.104-.087.09-.108.105-.138.105-.178.085-.192.107-.226.088-.248.087-.28.089M405.353 779.74h0l-.02.017M391.648 783.338l.104-1.843M391.752 781.495v-.21l-.02-.106-.015-.088-.037-.088-.032-.07-.019-.07-.052-.07-.036-.053-.052-.05-.052-.038-.053-.034M391.383 780.618l-.21-.087-.195-.072-.156-.088-.14-.086-.123-.106-.09-.088-.053-.088-.033-.105-.019-.085M688.195 889.214l-.033.139-.052.122-.092.126-.123.14-.139.121-.194.124-.211.104-.261.124-.262.105-.318.104-.335.106-.347.089-.386.087-.404.089-.424.087-.439.053-.472.07-.476.053-.49.052-.511.034-.506.036-.526.016-.527.02h-1.599l-.525-.036-.528-.017-.524-.035-.51-.037-.49-.052M672.91 869.663l-.123-.07-.105-.069-.087-.054-.089-.052-.088-.071-.07-.07M676.702 890.88h0M672.348 869.278h-.017v-.019h-.016M384.557 783.338l.019.017" style="fill:none;stroke:red;stroke-width:.999997;stroke-linecap:round;stroke-linejoin:round;stroke-miterlimit:4;stroke-dasharray:none;stroke-opacity:1;visibility:visible"/><path d="M392.222 792.41h0M392.222 792.41l.087-.087" style="fill:none;stroke:red;stroke-width:.666665;stroke-linecap:round;stroke-linejoin:round;stroke-miterlimit:4;stroke-dasharray:none;stroke-opacity:1;visibility:visible"/><path d="M461.828 571.961c-.014 2.326-4.092 4.315-9.112 4.446-5.02.129-9.076-1.651-9.065-3.975l-.128-11.792c-.015 2.324 4.19 4.127 9.21 3.996 5.017-.13 9.097-2.119 9.11-4.444l-.015 11.769" style="fill:none;fill-opacity:1;fill-rule:nonzero;stroke:red;stroke-width:1.33333;visibility:visible"/><path d="M461.828 571.961c-.014 2.326-4.092 4.315-9.112 4.446-5.02.129-9.076-1.651-9.065-3.975l-.128-11.792c-.015 2.324 4.19 4.127 9.21 3.996 5.017-.13 9.097-2.119 9.11-4.444l-.015 11.769" style="fill:none;stroke:red;stroke-width:1.33333;stroke-linecap:butt;stroke-linejoin:miter;stroke-miterlimit:10;stroke-dasharray:none;stroke-opacity:1;visibility:visible"/><path d="M422.202 481.19c-.14 1.636-3.724 2.797-8.003 2.592-4.277-.204-7.633-1.696-7.492-3.332l.539-8.875c-.139 1.636 3.338 3.152 7.617 3.357 4.279.204 7.861-.956 8.001-2.592l-.662 8.85" style="fill:none;fill-opacity:1;fill-rule:nonzero;stroke:red;stroke-width:1.33333;visibility:visible"/><path d="M422.202 481.19c-.14 1.636-3.724 2.797-8.003 2.592-4.277-.204-7.633-1.696-7.492-3.332l.539-8.875c-.139 1.636 3.338 3.152 7.617 3.357 4.279.204 7.861-.956 8.001-2.592l-.662 8.85" style="fill:none;stroke:red;stroke-width:1.33333;stroke-linecap:butt;stroke-linejoin:miter;stroke-miterlimit:10;stroke-dasharray:none;stroke-opacity:1;visibility:visible"/><path d="M216.717 814.845c0 1.345-1.764 2.438-3.944 2.438-2.18 0-3.946-1.092-3.946-2.438 0-1.35 1.766-2.439 3.946-2.439s3.944 1.09 3.944 2.439" style="fill:none;fill-opacity:1;fill-rule:nonzero;stroke:red;stroke-width:1.33333;visibility:visible"/><path d="m213.697 814.287.2.03.19.03.174.033.154.043.135.04.117.047.087.047.063.053M211.669 816.123l-.235-.023-.223-.035-.209-.035-.195-.035-.166-.045-.159-.05-.128-.046-.11-.052-.089-.052-.065-.06-.033-.052-.014-.058M215.327 815.605l-.012.052-.04.058-.065.052-.088.055-.104.05-.136.048-.159.046-.168.044-.194.039-.211.028-.222.03-.233.024M213.697 816.13l-.25.017-.247.016-.255.007h-.268l-.255-.007-.255-.005-.253-.016-.244-.019M210.045 815.142l.005-.047.023-.04.041-.048M215.263 815.031l.032.04.025.046.007.043M212.066 814.727l.399.255.625-.002.292-.245M210.56 814.593l-.447.416M214.817 814.61l.446.42M210.045 815.142v.439M215.327 815.16v.446" style="fill:none;stroke:red;stroke-width:.666665;stroke-linecap:round;stroke-linejoin:round;stroke-miterlimit:4;stroke-dasharray:none;stroke-opacity:1;visibility:visible"/><path d="m210.56 814.593.07-.054.1-.046.12-.053.147-.041.163-.039.193-.037.205-.029.216-.023.236-.017.239-.019.244-.004h.253l.244.004.244.012.236.018.229.022" style="fill:none;stroke:red;stroke-width:.666665;stroke-linecap:round;stroke-linejoin:round;stroke-miterlimit:4;stroke-dasharray:none;stroke-opacity:1;visibility:visible"/><path d="M323.673 854.757c0 1.346-1.764 2.438-3.944 2.438-2.182 0-3.946-1.092-3.946-2.438 0-1.348 1.764-2.439 3.947-2.439 2.179 0 3.943 1.09 3.943 2.439" style="fill:none;fill-opacity:1;fill-rule:nonzero;stroke:red;stroke-width:1.33333;visibility:visible"/><path d="m319.023 854.64.399.255.628-.004.29-.241M317.515 854.505l-.445.414M321.773 854.522l.446.42M317 855.054v.439M322.283 855.071v.444M317.515 854.505l.07-.052.101-.048.121-.052.146-.043.164-.04.192-.035.205-.03.216-.022.235-.017.24-.019.245-.005h.252l.244.005.244.011.235.019.229.022M320.653 854.2l.2.03.189.03.176.033.152.042.136.042.117.046.087.047.063.052M318.626 856.037l-.233-.027-.223-.032-.21-.035-.196-.036-.166-.046-.159-.047-.128-.047-.11-.052-.089-.052-.066-.06-.032-.052-.012-.058M322.283 855.515l-.012.055-.04.057-.065.053-.088.053-.104.052-.136.045-.159.048-.168.041-.194.042-.211.028-.221.029-.235.025M320.653 856.04l-.25.019-.248.016-.254.007h-.268l-.255-.007-.255-.005-.253-.017-.245-.018M317 855.054l.007-.047.022-.041.04-.048M322.22 854.942l.034.041.023.047.008.04" style="fill:none;stroke:red;stroke-width:.666665;stroke-linecap:round;stroke-linejoin:round;stroke-miterlimit:4;stroke-dasharray:none;stroke-opacity:1;visibility:visible"/><path d="M422.884 783.44c0 1.346-1.764 2.438-3.944 2.438-2.18 0-3.945-1.092-3.945-2.438 0-1.348 1.764-2.44 3.945-2.44 2.18 0 3.944 1.093 3.944 2.44" style="fill:none;fill-opacity:1;fill-rule:nonzero;stroke:red;stroke-width:1.33333;visibility:visible"/><path d="m418.235 783.324.399.253.628-.003.288-.242M416.727 783.188l-.445.414M420.986 783.205l.446.42M416.212 783.737v.439M421.496 783.754v.444M416.727 783.188l.07-.054.101-.046.12-.052.146-.043.164-.04.192-.035.206-.03.216-.022.234-.016.242-.021.242-.004h.254l.244.004.244.011.234.02.23.022M419.866 782.884l.2.028.189.03.175.034.154.042.136.042.116.046.087.046.063.053M417.836 784.72l-.233-.026-.223-.033-.21-.035-.195-.036-.167-.046-.158-.047-.128-.047-.11-.052-.089-.052-.067-.06-.032-.052-.013-.058M421.496 784.198l-.013.052-.039.06-.064.05-.09.056-.104.052-.136.046-.158.047-.168.041-.194.04-.211.03-.221.028-.234.026M419.866 784.725l-.25.017-.248.018-.254.006h-.268l-.256-.006-.254-.006-.253-.017-.245-.017M416.212 783.737l.006-.047.022-.04.042-.05M421.432 783.625l.032.041.024.046.008.042" style="fill:none;stroke:red;stroke-width:.666665;stroke-linecap:round;stroke-linejoin:round;stroke-miterlimit:4;stroke-dasharray:none;stroke-opacity:1;visibility:visible"/><path d="M443.207 899.02c0 1.345-1.764 2.436-3.944 2.436-2.181.001-3.945-1.09-3.945-2.437 0-1.349 1.764-2.438 3.945-2.438 2.18-.001 3.944 1.089 3.944 2.438" style="fill:none;fill-opacity:1;fill-rule:nonzero;stroke:red;stroke-width:1.33333;visibility:visible"/><path d="m440.186 898.462.2.03.189.028.175.035.154.043.136.04.116.047.087.045.063.055M438.159 900.298l-.233-.024-.223-.035-.21-.034-.196-.035-.167-.047-.158-.048-.128-.045-.11-.053-.089-.052-.065-.06-.033-.052-.012-.06M441.818 899.778l-.014.052-.038.06-.066.052-.088.053-.105.052-.135.046-.158.046-.168.043-.196.04-.211.028-.221.03-.232.026M440.186 900.305l-.25.017-.248.016-.254.007h-.268l-.256-.007-.254-.005-.253-.016-.245-.018M436.535 899.317l.005-.047.023-.04.041-.048M441.754 899.206l.032.04.024.044.008.045M438.556 898.902l.399.255.627-.003.29-.244M437.048 898.767l-.445.416M441.306 898.785l.446.418M436.535 899.317v.438M441.818 899.334v.444" style="fill:none;stroke:red;stroke-width:.666665;stroke-linecap:round;stroke-linejoin:round;stroke-miterlimit:4;stroke-dasharray:none;stroke-opacity:1;visibility:visible"/><path d="m437.048 898.767.07-.053.101-.047.121-.052.146-.041.164-.04.192-.036.205-.03.216-.021.235-.018.24-.02.245-.002h.252l.244.003.244.012.235.017.229.023" style="fill:none;stroke:red;stroke-width:.666665;stroke-linecap:round;stroke-linejoin:round;stroke-miterlimit:4;stroke-dasharray:none;stroke-opacity:1;visibility:visible"/><path d="M536.232 819.83c0 1.347-1.764 2.44-3.944 2.44-2.18-.001-3.945-1.093-3.945-2.44 0-1.35 1.765-2.439 3.945-2.439 2.18 0 3.944 1.09 3.944 2.44" style="fill:none;fill-opacity:1;fill-rule:nonzero;stroke:red;stroke-width:1.33333;visibility:visible"/><path d="m531.583 819.714.397.256.628-.004.29-.244M530.075 819.578l-.446.416M534.332 819.597l.447.418M529.56 820.127v.44M534.843 820.146v.444M530.075 819.578l.07-.053.099-.047.123-.052.145-.041.164-.04.192-.036.205-.03.217-.022.234-.018.24-.018.244-.004h.253l.244.003.245.013.234.017.23.023M533.212 819.274l.2.03.19.028.174.035.155.043.134.04.118.047.086.046.063.054M531.184 821.109l-.233-.024-.224-.035-.21-.035-.194-.034-.167-.047-.159-.048-.127-.046-.11-.053-.09-.052-.067-.06-.031-.052-.013-.058M534.843 820.59l-.013.053-.04.058-.065.053-.088.053-.104.053-.136.045-.157.045-.17.044-.194.04-.21.028-.223.03-.232.026M533.212 821.115l-.25.018-.246.016-.256.006h-.268l-.255-.005-.254-.007-.254-.016-.245-.017M529.56 820.127l.005-.046.023-.041.041-.047M534.779 820.017l.031.04.025.046.008.043" style="fill:none;stroke:red;stroke-width:.666665;stroke-linecap:round;stroke-linejoin:round;stroke-miterlimit:4;stroke-dasharray:none;stroke-opacity:1;visibility:visible"/><path d="M662.468 860.903c0 1.347-1.764 2.439-3.944 2.439-2.182 0-3.946-1.092-3.946-2.439 0-1.349 1.764-2.438 3.946-2.438 2.18 0 3.944 1.089 3.944 2.438" style="fill:none;fill-opacity:1;fill-rule:nonzero;stroke:red;stroke-width:1.33333;visibility:visible"/><path d="m657.817 860.787.399.255.628-.003.289-.244M656.309 860.651l-.445.416M660.568 860.669l.446.418M655.796 861.2v.44M661.078 861.218v.444M656.309 860.651l.07-.051.101-.049.12-.051.146-.042.164-.04.192-.036.206-.03.216-.022.234-.017.242-.019.242-.004h.254l.244.004.244.012.234.017.23.024M659.448 860.347l.2.03.189.029.176.035.153.042.135.04.117.047.087.047.063.053M657.418 862.182l-.233-.024-.223-.033-.21-.036-.195-.035-.167-.047-.158-.046-.128-.048-.11-.053-.089-.051-.067-.06-.032-.052-.013-.059M661.078 861.662l-.013.053-.039.058-.065.053-.088.052-.105.052-.135.047-.159.046-.168.043-.194.04-.212.028-.22.03-.234.026M659.448 862.189l-.25.017-.248.016-.254.007h-.268l-.255-.007-.255-.005-.253-.017-.245-.017M655.796 861.2l.004-.045.024-.041.041-.048M661.014 861.09l.032.04.024.045.008.045" style="fill:none;stroke:red;stroke-width:.666665;stroke-linecap:round;stroke-linejoin:round;stroke-miterlimit:4;stroke-dasharray:none;stroke-opacity:1;visibility:visible"/><path d="m188.634 438.986 12.53 371.572M460.895 487.124l4.405 440.312" style="fill:none;stroke:red;stroke-width:1.99999;stroke-linecap:round;stroke-linejoin:round;stroke-miterlimit:4;stroke-dasharray:none;stroke-opacity:1;visibility:visible"/><path d="m385.416 783.584-.949 15.144M216.717 814.845l4.773 2.503M446.296 795.395l17.743 5.736M464.002 797.553l-17.706-2.158M663.241 866.82l-3.546 1.263M442.645 899.285l4.862 6.232M447.752 927.595l4.241 4.612M477.077 931.403l-10.739-6.284M470.163 928.364l-.686-3.806M465.775 905.64l1.387-.246M660.768 866.275l2.47 4.512M663.241 866.82l1.911 3.634M381.046 799.256l10.252-.282" style="fill:none;stroke:red;stroke-width:.999997;stroke-linecap:round;stroke-linejoin:round;stroke-miterlimit:4;stroke-dasharray:none;stroke-opacity:1;visibility:visible"/><path d="m464.002 797.553-17.743-5.704M663.205 866.856l8.969-2.263" style="fill:none;stroke:red;stroke-width:1.99999;stroke-linecap:round;stroke-linejoin:round;stroke-miterlimit:4;stroke-dasharray:none;stroke-opacity:1;visibility:visible"/><path d="m411.953 800.134-6.303-.65M464.213 818.894l-17.706-5.88M446.507 813.013l17.706 5.881M443.61 929.944l4.123-4.404" style="fill:none;stroke:red;stroke-width:.999997;stroke-linecap:round;stroke-linejoin:round;stroke-miterlimit:4;stroke-dasharray:none;stroke-opacity:1;visibility:visible"/><path d="m676.314 870.56 11.969 15.845" style="fill:none;stroke:red;stroke-width:1.99999;stroke-linecap:round;stroke-linejoin:round;stroke-miterlimit:4;stroke-dasharray:none;stroke-opacity:1;visibility:visible"/><path d="m470.197 908.149-5.07-1.72M465.146 912.01l.137 10.231M470.163 928.366l-4.913-6.125M465.758 905.64l-.685-1.685M465.775 905.64l7.547-1.334M210.56 814.593l-.795-1.596M216.717 814.845l2.928 1.82M665.152 867.487l-7.632 4.3M408.916 784.023l-5.58-.282M385.26 783.2l6.388.138" style="fill:none;stroke:red;stroke-width:.999997;stroke-linecap:round;stroke-linejoin:round;stroke-miterlimit:4;stroke-dasharray:none;stroke-opacity:1;visibility:visible"/><path d="m215.61 815.085 1.107-.24M215.609 815.085l1.108-.24M421.48 783.743l1.404-.303M421.496 783.754l1.388-.314M535.306 820.893l.926-1.063M535.306 820.42l.926-.589M661.325 861.029l1.143-.126M661.327 861.03l1.141-.127" style="fill:none;fill-opacity:1;fill-rule:nonzero;stroke:red;stroke-width:1.33333;visibility:visible"/><path d="M299.846 541.858v-.123l-.02-.105-.012-.105-.039-.123-.033-.105-.053-.106-.054-.105-.052-.088-.07-.105-.071-.07-.157-.158-.087-.054-.09-.069-.105-.052-.086-.036-.194-.07-.192-.035h-.194l-.178.017-.174.053-.172.088-.162.104-.138.142-.106.14-.105.14-.09.176-.069.176-.05.192-.038.212-.014.192v.193l.014.193.018.176.053.192.072.159.067.157.089.14.105.107.124.104.14.088.156.07.178.035.174.018.176-.018.176-.034.192-.071.176-.088.09-.07.106-.07.084-.07.087-.07.072-.088.07-.088.071-.088.068-.105.052-.106.056-.104.052-.105.035-.124.02-.123.012-.105.02-.123v-.105" style="fill:none;stroke:#00ff4a;stroke-width:.999997;stroke-linecap:round;stroke-linejoin:round;stroke-miterlimit:4;stroke-dasharray:none;stroke-opacity:1;visibility:visible"/><path d="M297.81 543.526h.195l.172-.017.194-.054.176-.088.178-.086.156-.123.157-.124.123-.157.106-.14.104-.159.071-.175.052-.176.036-.193.017-.175v-.176l-.037-.176-.032-.192-.087-.176-.09-.158-.104-.158-.139-.158-.163-.122-.17-.105-.195-.088M196.287 546.474l-.176.087-.176.141-.157.159-.158.192-.157.21-.143.246-.118.264-.11.298-.105.298-.087.333-.07.352-.071.35-.033.386-.036.37-.018.402v.404l.018.404.036.404.052.403.052.386.07.404.106.386.086.369.123.368.124.352.141.333.158.315.158.299.158.264.176.245.19.228.176.193.196.175.19.141.21.106.195.088" style="fill:none;stroke:#00ff4a;stroke-width:.999997;stroke-linecap:round;stroke-linejoin:round;stroke-miterlimit:4;stroke-dasharray:none;stroke-opacity:1;visibility:visible"/><path d="m197.2 557.548 194.324-20.568M195.953 545.844l194.375-20.181M390.347 525.661h.245l.14.019.143.035.157.034.156.052.159.054.177.07.176.086.175.089.19.105.179.123.189.123.196.141.191.14.212.158.192.16.194.154.21.212.23.21.209.212.196.227.208.246.192.229.195.28.19.298.178.298.156.281.142.316.123.3.088.279.07.281.054.282.033.245.018.263v.264l-.018.262-.034.264M395.858 532.455l-.035.262-.07.283-.091.26-.104.265-.106.246-.138.264-.158.262-.16.246-.173.227-.176.229-.195.23-.209.226-.21.195-.212.21-.226.175-.23.158-.209.14-.213.14-.21.123-.211.105-.227.089-.21.07-.195.052-.191.036-.175.035" style="fill:none;stroke:#00ff4a;stroke-width:1.99999;stroke-linecap:round;stroke-linejoin:round;stroke-miterlimit:4;stroke-dasharray:none;stroke-opacity:1;visibility:visible"/><path d="M464.616 610.302h.177l.191-.019.213.019.172.033.178.038.176.068.157.089.156.087.143.105.122.141.12.139.111.16.103.159.088.174.07.194.072.209.067.21.052.229.037.228.035.246.019.244.033.266v.262l.019.282v.858l-.019.299v.3l-.019.315-.014.314v.318l-.019.316-.02.333v.333M467.038 618.093v.632l.019.21.016.387.018.386.018.352.036.314.017.315.015.3.02.264v.701l-.02.211-.015.192-.017.193-.036.159-.052.175-.071.14-.07.141-.089.105-.122.106-.139.086-.161.072-.172.034" style="fill:none;stroke:#9500ff;stroke-width:1.99999;stroke-linecap:round;stroke-linejoin:round;stroke-miterlimit:4;stroke-dasharray:none;stroke-opacity:1;visibility:visible"/><path d="M572.616 605.16v-.51l.017-.245.015-.228.039-.212.033-.21.035-.21.036-.192.053-.213.07-.19.067-.23.091-.21M573.072 602.51l.087-.159.089-.141.087-.157.089-.14.104-.122.107-.125.122-.104.104-.124.126-.087.137-.089.143-.085.138-.072.159-.054.141-.052.158-.033.176-.017.172-.02h.353l.175.02.177.033.175.036.176.053.173.07.195.069.176.072.157.088.176.104.157.105.159.106.157.124.156.14M577.775 601.947l.159.159.156.174M578.091 602.28l.157.228.158.245.124.246.102.264.091.281.068.281.037.28.015.28M578.845 604.388l-.019.21-.013.21-.02.195-.052.174-.035.176-.056.174-.068.16-.07.157-.071.176-.104.159-.105.174-.124.174M578.108 606.528l-.157.193-.158.175M577.793 606.897l-.159.14-.157.14-.156.124-.163.124-.17.121-.163.106-.17.088-.178.104-.176.088-.195.07-.174.071-.175.07-.175.054-.177.033-.175.035-.177.017-.156.019-.159.017-.157-.017h-.157l-.142-.019-.14-.034-.122-.035-.123-.052-.125-.07-.12-.054-.108-.07-.087-.087-.104-.088-.088-.106-.088-.105-.087-.123M573.09 607.458l-.053-.087-.054-.124-.07-.105-.034-.14-.052-.123-.038-.141-.032-.14-.036-.14-.018-.159-.033-.14-.02-.174-.019-.159-.013-.157v-.51" style="fill:none;stroke:#9500ff;stroke-width:.999997;stroke-linecap:round;stroke-linejoin:round;stroke-miterlimit:4;stroke-dasharray:none;stroke-opacity:1;visibility:visible"/><path d="m672.553 598.418-206.322 25.15M671.009 585.694l-206.393 24.608" style="fill:none;stroke:#9500ff;stroke-width:1.99999;stroke-linecap:round;stroke-linejoin:round;stroke-miterlimit:4;stroke-dasharray:none;stroke-opacity:1;visibility:visible"/><path d="M573.228 603.388c.728-.85 1.852-1.115 2.615-.58.82.579.907 1.868.193 2.883-.716 1.012-1.956 1.365-2.779.788a2.312 2.312 0 0 1-.154-.123" style="fill:none;stroke:#9500ff;stroke-width:.999997;stroke-linecap:round;stroke-linejoin:round;stroke-miterlimit:4;stroke-dasharray:none;stroke-opacity:1;visibility:visible"/><path d="m671.008 585.695.157-.018h.176l.175.018.177.017.175.053.192.035.209.07.195.086.21.089.23.106.209.105.228.123.23.141.226.14.229.157.231.176.223.175.229.176.247.21.264.23.228.244.245.247.23.245.226.263.247.316.228.316.21.334.14.246.14.245.123.264.107.28.122.299.087.333M677.553 591.415l.07.315.055.282.014.297.018.282-.018.281-.015.28-.053.281-.038.194-.033.192M677.553 593.82l-.105.299-.104.316-.144.298-.138.28-.158.282-.194.298-.229.298-.21.281-.245.263-.245.245-.263.247-.265.228-.281.21-.28.211-.298.175-.28.158-.264.123-.264.123-.262.088-.264.07-.247.07-.261.036" style="fill:none;stroke:#9500ff;stroke-width:1.99999;stroke-linecap:round;stroke-linejoin:round;stroke-miterlimit:4;stroke-dasharray:none;stroke-opacity:1;visibility:visible"/><path d="m577.773 601.949-4.67 4.407" style="fill:none;stroke:#9500ff;stroke-width:.999997;stroke-linecap:round;stroke-linejoin:round;stroke-miterlimit:4;stroke-dasharray:none;stroke-opacity:1;visibility:visible"/></svg>