<svg xmlns="http://www.w3.org/2000/svg" baseProfile="full" height="1122.52" preserveAspectRatio="xMinYMin meet" style="width:912px;height:1303px" width="793.701" xml:space="preserve"><path d="m681.586 955.423-1.26 18.287M491.74 990.437l-.847 20.023M681.468 955.483s.082-.641-.672-.96c-.752-.316-3.862-.823-4.902-1.519l-189.306 34.52" style="fill:none;stroke:red;stroke-width:1.99999;stroke-linecap:round;stroke-linejoin:round;stroke-miterlimit:4;stroke-dasharray:none;stroke-opacity:1;visibility:visible"/><path d="m491.74 990.437 189.732-34.956" style="fill:none;stroke:red;stroke-width:.999997;stroke-linecap:round;stroke-linejoin:round;stroke-miterlimit:4;stroke-dasharray:none;stroke-opacity:1;visibility:visible"/><path d="m486.84 987.535.49.105.477.106.452.117.43.123.406.13.385.132.356.143.327.144.308.147.274.158.238.151.212.157.173.166M491.368 989.314l.059.039.056.058.049.072.044.08.041.09.04.086.026.1.024.106.018.112.01.116.013.133-.008.13" style="fill:none;stroke:red;stroke-width:1.99999;stroke-linecap:round;stroke-linejoin:round;stroke-miterlimit:4;stroke-dasharray:none;stroke-opacity:1;visibility:visible"/><path d="m490.894 1010.459-.005.093-.012.088-.016.076-.016.071-.042.116-.053.088-.064.07-.043.023-.041.011M490.027 1010.646l.016.11.032.1.065.087M489.993 1007.36l-3.36.643M485.087 1008.25h0M490.14 1010.944h0M490.602 1011.095l189.09-36.69.508-.631M485.863 1009.232l-.096-.03-.097-.037-.088-.045-.084-.06-.084-.064-.078-.075-.066-.082-.058-.087-.048-.095-.012-.034-.013-.03-.007-.005-.006-.017-.012-.047-.027-.141v-.134M490.14 1010.944l-.097-.093-.111-.096-.125-.099-.144-.099-.159-.098-.175-.095-.188-.1-.234-.11-.254-.118-.276-.104-.294-.105-.303-.104-.323-.1-.294-.09-.314-.08-.32-.077-.325-.075-.341-.069" style="fill:none;stroke:red;stroke-width:.999997;stroke-linecap:round;stroke-linejoin:round;stroke-miterlimit:4;stroke-dasharray:none;stroke-opacity:1;visibility:visible"/><path d="M490.602 1011.095h0l-.083.012-.081-.005-.083-.018-.073-.036-.068-.038-.063-.054-.012-.013M233.1 889.952l.052-8.337M233.152 881.616l-4.34.508" style="fill:none;stroke:red;stroke-width:.999997;stroke-linecap:round;stroke-linejoin:round;stroke-miterlimit:4;stroke-dasharray:none;stroke-opacity:1;visibility:visible"/><path d="m305.535 880.125.01.139.031.141.047.124.07.11.091.094.107.07.11.046.118.025.13-.006.122-.023.125-.053.118-.078.106-.098.088-.112.075-.128.059-.134.032-.146.01-.147-.005-.145-.033-.136-.05-.123-.073-.112-.09-.09-.097-.073-.112-.046-.125-.022h-.124l-.125.03-.123.05-.117.076-.104.095-.091.112-.075.128-.057.139-.032.148-.016.145M345.444 875.32l.008.139.025.136.05.122.068.107.086.092.096.07.111.047.12.024.123-.006.116-.024.12-.052.11-.075.104-.096.083-.11.08-.123.053-.134.031-.145.016-.141-.01-.14-.029-.135-.048-.124-.065-.11-.085-.093-.096-.072-.112-.045-.119-.019h-.117l-.123.03-.123.046-.112.078-.098.093-.083.11-.081.123-.052.14-.031.142-.016.145M264.174 885.106l.007.147.033.14.053.122.075.119.093.09.106.071.117.047.13.024h.13l.127-.03.128-.058.117-.076.11-.093.094-.116.079-.13.058-.146.032-.146.012-.146-.012-.147-.026-.14-.059-.128-.073-.112-.091-.093-.103-.07-.12-.046-.13-.026h-.128l-.132.031-.126.052-.122.077-.106.099-.09.117-.079.128-.057.14-.034.147-.013.152" style="fill:none;stroke:red;stroke-width:.666665;stroke-linecap:round;stroke-linejoin:round;stroke-miterlimit:4;stroke-dasharray:none;stroke-opacity:1;visibility:visible"/><path d="m217.383 882.774-.007.987M388.834 865.072l.073-2.375-171.525 20.075M375.15 864.955l-.344 13.597M378.964 864.504l-3.812.45" style="fill:none;stroke:red;stroke-width:.999997;stroke-linecap:round;stroke-linejoin:round;stroke-miterlimit:4;stroke-dasharray:none;stroke-opacity:1;visibility:visible"/><path d="m214.396 880.839.35.064.322.065.305.074.286.077.265.076.244.088.213.083.204.086.17.092.144.096.118.094.091.092.064.098" style="fill:none;stroke:red;stroke-width:1.99999;stroke-linecap:round;stroke-linejoin:round;stroke-miterlimit:4;stroke-dasharray:none;stroke-opacity:1;visibility:visible"/><path d="m388.42 861.943-.341-.059-.332-.057-.308-.065-.3-.068-.282-.072-.253-.071-.243-.076-.216-.075-.192-.082-.173-.083-.153-.08-.124-.083-.106-.088M217.376 882.64h0M374.806 878.424l2.325-.287M217.36 882.422h0M214.28 880.827l.116.012M385.398 860.985l-.064-.012M385.27 861.003h0" style="fill:none;stroke:red;stroke-width:.999997;stroke-linecap:round;stroke-linejoin:round;stroke-miterlimit:4;stroke-dasharray:none;stroke-opacity:1;visibility:visible"/><path d="m217.172 881.925.035.03.033.04.019.047.025.059.024.064.016.07.019.077.013.076.01.088.01.092.007.102v.103" style="fill:none;stroke:red;stroke-width:1.99999;stroke-linecap:round;stroke-linejoin:round;stroke-miterlimit:4;stroke-dasharray:none;stroke-opacity:1;visibility:visible"/><path d="m388.905 862.697.059-.01.04-.013.032-.009.009-.02M388.905 862.697l-.007-.093-.012-.094-.018-.088-.034-.082-.025-.068-.043-.071-.048-.059-.048-.053-.052-.047-.058-.04-.071-.036-.065-.021M388.42 861.943l.027-.005.018.005M385.398 860.985l.083.01.069.03.064.043M385.328 860.973h.01M214.273 880.833l.01-.005" style="fill:none;stroke:red;stroke-width:.999997;stroke-linecap:round;stroke-linejoin:round;stroke-miterlimit:4;stroke-dasharray:none;stroke-opacity:1;visibility:visible"/><path d="M217.318 882.206h0M214.28 880.827h0M385.334 860.973h0M388.466 861.943h0M385.614 861.067h0M214.28 880.827l171.048-19.855" style="fill:none;stroke:red;stroke-width:1.99999;stroke-linecap:round;stroke-linejoin:round;stroke-miterlimit:4;stroke-dasharray:none;stroke-opacity:1;visibility:visible"/><path d="m248.33 895.464 127.874-15.943" style="fill:none;stroke:red;stroke-width:.999997;stroke-linecap:round;stroke-linejoin:round;stroke-miterlimit:4;stroke-dasharray:none;stroke-opacity:1;visibility:visible"/><path d="m213.725 881.476-.005 1.993M213.725 881.476l.008-.077.013-.075.012-.07.035-.071.03-.064.042-.059.05-.052.053-.047.057-.04.061-.036.064-.029.064-.017.059-.006M389.044 862.645l-.07 2.432M388.466 861.943l.068.012.07.024.057.028.061.036.06.04.059.055.045.056.05.058.037.071.021.047.016.053.02.052v.024l.012.047.005.098M385.614 861.067l.047.04.057.043.075.046.078.047.103.052.105.048.126.05.144.054.154.052.162.052.18.052.18.047.216.054.224.052.236.047.245.047.25.048.273.045M385.334 860.973h.057l.054.005.058.018.047.024.036.022.028.024" style="fill:none;stroke:red;stroke-width:1.99999;stroke-linecap:round;stroke-linejoin:round;stroke-miterlimit:4;stroke-dasharray:none;stroke-opacity:1;visibility:visible"/><path d="m664.842 949.684-4.033-1.28M664.813 950.123l.028-.439M664.82 950.123l-.028-.013-.005-.012.005-.01.028-.006-.008.041M667.01 950.818l-2.19-.695M664.82 950.081h0M662.136 949.461h0M667.04 954.18l.013-3.35M667.05 950.83l-.036-.012M664.474 949.567l-2.133-.147M662.342 949.42h-.076l-.063.005-.049.012-.015.023M662.136 949.461l-.385 5.817M482.536 993.95l-.177.181-.142.206-.125.214-.085.24-.058.246-.026.245.013.257.039.252.078.242.112.232.135.221.164.2.195.181.217.152.23.128.24.094.254.07.261.03h.264l.259-.03.241-.064.242-.094.222-.128.204-.152M478.182 986.327l8.957.65" style="fill:none;stroke:red;stroke-width:.999997;stroke-linecap:round;stroke-linejoin:round;stroke-miterlimit:4;stroke-dasharray:none;stroke-opacity:1;visibility:visible"/><path d="m485.52 995.628-.227.1-.241.07-.241.04-.262.013-.249-.024-.252-.052-.236-.083-.23-.11-.215-.14-.202-.165-.169-.18-.153-.206-.123-.222-.093-.233-.058-.24-.03-.245M485.614 994.413l-.143-.205-.174-.18-.204-.166-.21-.134-.234-.112-.236-.08-.248-.054-.254-.022-.254.006-.242.04-.242.071-.23.097-.216.126-.192.15M479.893 1003.743l5.173.383M493.238 985.907l-19.756-1.427M387.51 872.292l.007.193.028.188.058.18.086.176.096.17.125.146.137.134.155.118.17.099.171.07.188.053.195.022.192.007.19-.024.177-.047.174-.076.164-.093.151-.11.132-.135.11-.147.095-.164.068-.176M388.264 871.083l-.164.1-.14.116-.125.135-.112.152-.09.164-.064.174-.042.183-.014.185M379.15 864.822h-.112l-.027-.013M379.238 864.81l-.085.012M379.01 864.81l-.64-.205M378.395 864.576v.035M378.367 864.605l-.013-.005v-.012l.013-.007.028-.004M379.203 864.482l-.007.333M378.395 864.576l.807-.093M379.203 864.482l.03-.007.01-.005M377.092 865.119l.008.012.025.013.05.004.056.006" style="fill:none;stroke:red;stroke-width:.999997;stroke-linecap:round;stroke-linejoin:round;stroke-miterlimit:4;stroke-dasharray:none;stroke-opacity:1;visibility:visible"/><path d="m390.38 872.877.045-.187.019-.193v-.192l-.036-.188-.052-.187-.079-.181-.1-.17-.13-.151-.139-.14-.161-.118-.168-.093-.184-.076-.191-.047-.188-.022h-.203l-.182.022-.191.052-.176.076" style="fill:none;stroke:red;stroke-width:.999997;stroke-linecap:round;stroke-linejoin:round;stroke-miterlimit:4;stroke-dasharray:none;stroke-opacity:1;visibility:visible"/><path d="m379.238 864.81 2.003-.235 17.202 1.076 1.455.462" style="fill:none;stroke:red;stroke-width:1.86666;stroke-linecap:round;stroke-linejoin:round;stroke-miterlimit:4;stroke-dasharray:none;stroke-opacity:1;visibility:visible"/><path d="m379.243 864.47-.005-.012-.028-.005-.048-.007-1.226-.076M377.933 864.371l-.065-.007-.058.007-.046.005-.024.012-.648.726M377.092 865.114h0v.005M393.609 879.312l7.127.453M400.92 879.594l.601-.748M401.522 878.847v-.008M379.243 864.47l-.005.339M377.092 865.119l-.34 12.944M228.867 882.454v.024M228.867 882.454l.013.012-.008.005-.018.007-.026.004M231.523 882.284l-.037 6.99M225.637 886.862l5.887-4.58M231.523 882.284l.01-.008v-.005M227.202 882.32l-.005.356M227.038 882.301l.015.012.02.005.045.007h.045l.039-.007M228.126 882.214v.356M227.202 882.32l.924-.105M228.27 882.226v.328M228.126 882.214l.04-.005.041.005h.035l.027.012.601.228M228.825 882.482l-1.788.21M226.43 882.769l-3.884 2.988M231.531 882.273l-.012-.013-.02-.012-.045-.004-.052-.006-3.774-.245M227.629 881.991h-.139l-.056.012-.028.012-.36.281M227.044 882.296h0l-.007.005M227.038 882.693l-.607.076M231.531 882.273l-.032 7.01M227.038 882.301v.39M408.618 865.473l.087.025.11.016.123.018.13.012.133.005h.128M411.615 865.871l-.019.05-.041.054-.063.047-.094.046-.116.043-.139.04-.16.033-.177.031-.198.03-.216.023-.228.012-.233.01-.241.006-.256.006-.248-.006-.254-.01-.249-.018-.241-.018-.24-.028-.223-.031-.21-.033-.195-.042-.179-.042-.155-.047-.137-.045-.116-.047-.085-.052-.068-.053-.031-.052-.013-.054" style="fill:none;stroke:red;stroke-width:.999997;stroke-linecap:round;stroke-linejoin:round;stroke-miterlimit:4;stroke-dasharray:none;stroke-opacity:1;visibility:visible"/><path d="m411.17 865.362.028.053.013.046-.02.045-.045.043-.067.046-.101.043-.115.033-.142.036-.155.028-.184.026-.19.016-.207.017-.218.005-.229.008h-.227l-.225-.013-.225-.012-.224-.016-.218-.017-.205-.03-.19-.036-.174-.034-.159-.036-.145-.042-.116-.045-.084-.047-.073-.046-.038-.047-.021-.05.013-.045.034-.046M409.81 865.31l-.09-.023-.106-.017-.124-.019-.13-.01-.133-.007h-.137" style="fill:none;stroke:red;stroke-width:.999997;stroke-linecap:round;stroke-linejoin:round;stroke-miterlimit:4;stroke-dasharray:none;stroke-opacity:1;visibility:visible"/><path d="m409.932 865.468.033-.024.014-.03-.007-.029-.033-.024-.052-.028-.078-.024M409.329 865.549h.139l.118-.01.11-.013.098-.01.078-.026.06-.022M408.495 865.316l-.033.023-.02.03.014.023.027.03.057.029.08.022M409.09 865.233h-.128l-.121.005-.112.012-.095.018-.077.024-.058.024" style="fill:none;stroke:red;stroke-width:.999997;stroke-linecap:round;stroke-linejoin:round;stroke-miterlimit:4;stroke-dasharray:none;stroke-opacity:1;visibility:visible"/><path d="m408.495 865.316.013.064.014.059M409.85 865.497l-.01-.028-.014-.043-.004-.052-.01-.065M409.81 865.31l-.097.059-.096.034-.088.019h-.08l-.084-.019-.084-.034-.091-.059-.1-.076M409.09 865.233l-.081.076-.072.059-.079.034-.07.019h-.062l-.079-.019-.07-.034-.078-.052M409.803 865.508l.01-.199M409.084 865.543l.005-.31M685.861 976.825l-187.932 36.825M209.808 896.523l-.593.087-.587.1-.568.098-.55.106-.527.11-.511.118-.488.117-.476.125-.45.126-.434.136-.399.133-.389.141-.352.14-.341.147-.308.147-.287.15-.261.152-.23.159-.213.156-.179.159-.154.164-.124.164-.104.164-.067.162-.044.164-.013.164.01.17.042.164.069.162.099.166.122.164.154.162.18.163.21.159.235.157.263.159.286.15.307.154.339.146M467.303 1012.241l.701.197.732.194.759.192.761.174.796.176.803.164.824.152.841.148.863.139.86.123.884.124.895.105.902.099.907.088.907.081.926.07.92.06.923.046.928.033.92.031.921.017.927.006.91-.006.905-.017.901-.024.895-.035.88-.052.864-.052.86-.07.844-.078.82-.086.806-.099.79-.112.77-.116.759-.124.723-.139M685.861 976.825l.585-.123.555-.128.53-.136.513-.14.477-.145.448-.159.42-.157.399-.17.361-.175.344-.175.301-.187.274-.188.24-.193.216-.199.18-.202.145-.207.117-.21.086-.21.052-.217.021-.216-.01-.222-.049-.222-.072-.222-.11-.229-.144-.221-.172-.228-.203-.228-.232-.223-.263-.228-.293-.221-.321-.228-.358-.223-.38-.216-.406-.223-.434-.216-.457-.21-.496-.21-.51-.212-.54-.204-.562-.197-.585-.195M521.329 900.89l.11.028.126.025.13.018.15.01.144.011h.147M524.57 901.357l-.017.065-.047.058-.075.058-.1.054-.126.046-.156.046-.174.04-.198.037-.216.028-.24.024-.242.016-.262.007-.268.005-.275-.005-.28-.007-.275-.016-.274-.024-.259-.028-.267-.037-.241-.04-.232-.04-.213-.052-.196-.054-.17-.052-.152-.064-.122-.058-.094-.064-.07-.067-.042-.057-.01-.066" style="fill:none;stroke:red;stroke-width:.999997;stroke-linecap:round;stroke-linejoin:round;stroke-miterlimit:4;stroke-dasharray:none;stroke-opacity:1;visibility:visible"/><path d="m524.08 900.78.041.052.012.059-.012.053-.041.05-.07.053-.1.046-.115.043-.143.041-.164.034-.19.03-.195.016-.223.02-.228.011-.236.005-.245-.005-.244-.005-.254-.014-.236-.021-.244-.03-.221-.029-.213-.037-.202-.04-.177-.047-.164-.052-.144-.052-.116-.053-.085-.052-.068-.059-.038-.058-.005-.052.015-.06.049-.046M522.562 900.685l-.112-.025-.123-.022-.13-.018-.151-.018-.145-.005h-.144" style="fill:none;stroke:red;stroke-width:.999997;stroke-linecap:round;stroke-linejoin:round;stroke-miterlimit:4;stroke-dasharray:none;stroke-opacity:1;visibility:visible"/><path d="m522.755 900.878.028-.03.007-.029-.02-.034-.048-.036-.063-.03-.097-.034M522.135 900.983l.14-.007.128-.006.117-.016.1-.024.075-.024.063-.028M521.141 900.697l-.03.033-.009.031.023.033.045.038.07.029.092.03M521.755 900.597h-.139l-.126.012-.119.016-.096.019-.081.024-.052.029" style="fill:none;stroke:red;stroke-width:.999997;stroke-linecap:round;stroke-linejoin:round;stroke-miterlimit:4;stroke-dasharray:none;stroke-opacity:1;visibility:visible"/><path d="m521.141 900.697.016.076.013.059M522.637 900.93l-.017-.033-.022-.054-.02-.072-.017-.086" style="fill:none;stroke:red;stroke-width:.999997;stroke-linecap:round;stroke-linejoin:round;stroke-miterlimit:4;stroke-dasharray:none;stroke-opacity:1;visibility:visible"/><path d="m522.562 900.685-.117.064-.099.04-.097.019-.096-.007-.095-.019-.096-.038-.097-.059-.108-.088M521.755 900.597l-.084.088-.085.064-.076.043-.067.016-.072.005-.076-.017-.072-.035-.081-.064M522.55 900.948l.015-.263M521.736 900.965l.021-.368M657.834 943.783l.13.033.143.031.158.023.164.012.164.012h.157M661.38 944.35l-.024.076-.053.07-.079.07-.119.059-.144.058-.169.052-.204.047-.22.036-.239.03-.265.022-.279.017-.288.006h-.293l-.313-.011-.31-.017-.305-.024-.3-.035-.3-.04-.288-.048-.273-.052-.259-.059-.232-.062-.217-.072-.188-.071-.163-.075-.14-.077-.101-.081-.075-.076-.044-.076-.013-.076" style="fill:none;stroke:red;stroke-width:.999997;stroke-linecap:round;stroke-linejoin:round;stroke-miterlimit:4;stroke-dasharray:none;stroke-opacity:1;visibility:visible"/><path d="m660.836 943.671.045.07.027.07-.02.064-.037.065-.08.064-.104.052-.136.054-.156.046-.184.035-.215.036-.224.023-.248.018-.255.006h-.272l-.276-.006-.28-.018-.274-.023-.274-.028-.269-.043-.247-.041-.242-.053-.223-.052-.201-.064-.186-.064-.148-.066-.122-.069-.099-.07-.065-.07-.039-.07-.003-.07.027-.065.059-.064M659.095 943.525l-.13-.028-.145-.03-.156-.025-.162-.016-.164-.006h-.159" style="fill:none;stroke:red;stroke-width:.999997;stroke-linecap:round;stroke-linejoin:round;stroke-miterlimit:4;stroke-dasharray:none;stroke-opacity:1;visibility:visible"/><path d="m659.382 943.765.027-.041-.014-.04-.037-.042-.06-.041-.09-.035-.113-.041M658.75 943.894l.152-.007.144-.012.116-.016.1-.03.073-.028.05-.036M657.547 943.549l-.024.035.01.041.04.04.062.041.09.042.111.034M658.177 943.42l-.15.005-.143.012-.116.018-.099.022-.075.036-.048.036" style="fill:none;stroke:red;stroke-width:.999997;stroke-linecap:round;stroke-linejoin:round;stroke-miterlimit:4;stroke-dasharray:none;stroke-opacity:1;visibility:visible"/><path d="m657.547 943.549.019.07.02.058M659.241 943.835l-.03-.028-.04-.065-.015-.042-.027-.046-.016-.059-.015-.07M659.095 943.525l-.135.07-.114.042-.112.017h-.111l-.107-.024-.106-.046-.116-.071-.115-.093" style="fill:none;stroke:red;stroke-width:.999997;stroke-linecap:round;stroke-linejoin:round;stroke-miterlimit:4;stroke-dasharray:none;stroke-opacity:1;visibility:visible"/><path d="m658.177 943.42-.09.1-.086.07-.073.047-.076.023-.079.007-.068-.019-.076-.033-.083-.066M659.072 943.87l.027-.347M658.148 943.853l.03-.433M474.495 1015.448l-.297 7.816M203.475 902.188l-.339-.147-.306-.153-.287-.152-.263-.157-.234-.156-.211-.159-.18-.164-.153-.164-.123-.164-.099-.164-.069-.164-.041-.164-.011-.17.013-.163.044-.163.067-.164.104-.164.124-.164.155-.164.178-.156.214-.157.229-.159.261-.152.287-.15.308-.147.341-.147.352-.14.388-.141.4-.134.434-.136.45-.126.476-.123.488-.117.511-.118.528-.11.55-.106.567-.098.587-.102.593-.086M438.47 1000.399l-234.993-98.21M685.727 968.716l-.096-.019-.101.012M660.813 948.418l-.461 6.963M402.381 880.305l.41-13.633M401.036 879.864l1.348.441" style="fill:none;stroke:red;stroke-width:.999997;stroke-linecap:round;stroke-linejoin:round;stroke-miterlimit:4;stroke-dasharray:none;stroke-opacity:1;visibility:visible"/><path d="m681.21 951.394-.567-.175M675.619 952.084h0M676.373 952.049l.19-.099.214-.094.24-.088.265-.08.286-.083.306-.07.334-.065.353-.058.365-.052.392-.047.407-.036.41-.033.438-.026.445-.017M680.737 950.51l.237.024M393.723 862.27l-.081.012-.088.023-.075.034-.075.043-.057.045-.063.052-.049.067-.045.063-.046.076-.029.076-.024.093-.004.095M676.373 952.049l-.023.017-.013.035-.023.036-.012.04-.01.06-.008.057M681.21 951.394v-.057l-.023-.048-.028-.034-.038-.03-.05-.018-.053-.006" style="fill:none;stroke:red;stroke-width:1.86666;stroke-linecap:round;stroke-linejoin:round;stroke-miterlimit:4;stroke-dasharray:none;stroke-opacity:1;visibility:visible"/><path d="m676.45 951.815-.039.04-.044.059-.033.077-.023.085-.026.106-.011.058-.005.059M681.515 951.318l-.013.024-.04.023-.05.012-.078.01-.083.007M676.269 952.3l-.04.017-.072.018-.085.006-.096.006-.106-.006-.105-.012-.09-.017-.086-.017M393.723 862.27l-.007-.005h-.005M393.694 862.27h0M393.087 862.948l-.03-.013-.023-.012-.007-.015" style="fill:none;stroke:red;stroke-width:1.86666;stroke-linecap:round;stroke-linejoin:round;stroke-miterlimit:4;stroke-dasharray:none;stroke-opacity:1;visibility:visible"/><path d="m439.75 975.75-229.862-91.296M473.352 989.095l-4.239-1.684" style="fill:none;stroke:red;stroke-width:.999997;stroke-linecap:round;stroke-linejoin:round;stroke-miterlimit:4;stroke-dasharray:none;stroke-opacity:1;visibility:visible"/><path d="m473.977 988.043.296-.128.324-.117.352-.112.38-.106.4-.098.43-.088.451-.082.463-.074.487-.06.501-.059.519-.047.536-.034.541-.023M473.393 988.804h0" style="fill:none;stroke:red;stroke-width:1.99999;stroke-linecap:round;stroke-linejoin:round;stroke-miterlimit:4;stroke-dasharray:none;stroke-opacity:1;visibility:visible"/><path d="m473.468 1005.517 5.884 2.416" style="fill:none;stroke:red;stroke-width:.999997;stroke-linecap:round;stroke-linejoin:round;stroke-miterlimit:4;stroke-dasharray:none;stroke-opacity:1;visibility:visible"/><path d="m473.352 989.095.013-.128.019-.13.035-.115.037-.112.041-.099.052-.095.055-.081.061-.076.066-.076.08-.059.078-.046.091-.035M216.061 883.292h0M215.875 883.146l-.235-.024M479.654 987.015l.348.04" style="fill:none;stroke:red;stroke-width:1.99999;stroke-linecap:round;stroke-linejoin:round;stroke-miterlimit:4;stroke-dasharray:none;stroke-opacity:1;visibility:visible"/><path d="m209.844 900.47.008.07.013.065.032.12.058.106.074.088.088.08.06.038.068.028M472.85 1009.762l-.09-.057-.08-.088-.058-.102-.032-.114-.032-.142-.008-.081v-.09" style="fill:none;stroke:red;stroke-width:.999997;stroke-linecap:round;stroke-linejoin:round;stroke-miterlimit:4;stroke-dasharray:none;stroke-opacity:1;visibility:visible"/><path d="m473.335 989.1-.801 19.995M209.885 884.456l-.033-.019-.011-.016M210.575 883.72h0M210.586 883.707h.01v.01M215.547 883.13l.047-.007h.046" style="fill:none;stroke:red;stroke-width:1.99999;stroke-linecap:round;stroke-linejoin:round;stroke-miterlimit:4;stroke-dasharray:none;stroke-opacity:1;visibility:visible"/><path d="m209.844 900.47-.028-.025-.01-.016M473.515 1009.412l-.017.104-.042.093-.058.078-.079.057" style="fill:none;stroke:red;stroke-width:.999997;stroke-linecap:round;stroke-linejoin:round;stroke-miterlimit:4;stroke-dasharray:none;stroke-opacity:1;visibility:visible"/><path d="M215.875 883.146h0" style="fill:none;stroke:red;stroke-width:1.99999;stroke-linecap:round;stroke-linejoin:round;stroke-miterlimit:4;stroke-dasharray:none;stroke-opacity:1;visibility:visible"/><path d="M210.246 901.064h-.004M328.678 928.483l.112.033.127.026.134.024.155.01.16.012h.163M332.313 928.899l-.017.076-.047.068-.079.072-.106.07-.143.065-.17.058-.187.052-.216.054-.238.04-.253.033-.273.03-.282.023-.294.012-.299.007h-.305l-.303-.007-.301-.017-.292-.03-.283-.027-.27-.043-.251-.041-.235-.051-.216-.061-.188-.058-.164-.064-.14-.068-.103-.07-.078-.078-.046-.07-.018-.075" style="fill:none;stroke:red;stroke-width:.999997;stroke-linecap:round;stroke-linejoin:round;stroke-miterlimit:4;stroke-dasharray:none;stroke-opacity:1;visibility:visible"/><path d="m331.752 928.254.052.064.021.073-.006.062-.04.064-.071.065-.099.064-.132.059-.154.053-.184.047-.203.04-.221.036-.243.029-.248.023-.265.012-.271.005h-.273l-.274-.005-.266-.018-.262-.024-.256-.029-.24-.04-.214-.043-.206-.046-.176-.058-.158-.058-.123-.059-.097-.064-.072-.064-.031-.07-.01-.065.027-.069.052-.065" style="fill:none;stroke:red;stroke-width:.999997;stroke-linecap:round;stroke-linejoin:round;stroke-miterlimit:4;stroke-dasharray:none;stroke-opacity:1;visibility:visible"/><path d="m330.175 928.244-.112-.036-.124-.023-.135-.024-.157-.016-.157-.006h-.163M330.274 928.465l.047-.035.032-.041-.006-.035-.033-.041-.057-.035-.079-.036M329.526 928.589l.157-.007.152-.012.135-.017.127-.021.096-.031.082-.036M328.582 928.254l-.047.041-.032.036.006.04.034.042.058.036.077.034M329.328 928.138h-.159l-.148.01-.137.025-.124.022-.096.03-.083.029" style="fill:none;stroke:red;stroke-width:.999997;stroke-linecap:round;stroke-linejoin:round;stroke-miterlimit:4;stroke-dasharray:none;stroke-opacity:1;visibility:visible"/><path d="m328.582 928.254.013.064.006.053.009.082M330.21 928.495l-.01-.041-.007-.052-.011-.07-.003-.088M330.175 928.244l-.123.064-.105.04-.097.019h-.099l-.104-.024-.097-.046-.107-.066-.116-.092" style="fill:none;stroke:red;stroke-width:.999997;stroke-linecap:round;stroke-linejoin:round;stroke-miterlimit:4;stroke-dasharray:none;stroke-opacity:1;visibility:visible"/><path d="m329.328 928.138-.104.093-.093.07-.09.046-.084.024-.093.006-.084-.018-.092-.041-.107-.064M330.169 928.512l.01-.27M329.321 928.589l.01-.45M411.56 865.766l.03.033.02.038.005.033M406.787 865.724l.01-.033.017-.038.025-.028M410.113 866.696l-.23.005-.231.007h-.238l-.241-.007-.24-.005-.236-.019-.235-.016-.226-.022M411.602 866.28l-.019.045-.033.047-.057.048-.079.041-.104.042-.117.04-.146.036-.154.029-.178.03-.188.02-.196.02-.216.018M408.233 866.637l-.208-.028-.203-.03-.182-.035-.176-.043-.154-.04-.141-.041-.119-.047-.098-.047-.08-.046-.055-.047-.035-.053-.008-.047M409.927 865.03l.204.025.196.028.175.035.164.035.137.034.123.047.104.043.086.045.058.04M407.261 865.245l.068-.041.083-.04.106-.042.134-.034.153-.031.175-.023.19-.024.196-.014.215-.014.221-.006h.224l.234.006.226.014.223.009.217.024M411.615 865.871l-.013.41M406.787 865.724l-.013.41M411.17 865.362l.39.404M407.261 865.245l-.419.38M524.507 901.217l.035.047.024.046.008.047M519.278 901.111l.013-.047.022-.046.048-.042M522.889 902.275l-.247.012h-.248l-.256-.007-.26-.005-.264-.019-.25-.016-.251-.03-.245-.028M524.547 901.801l-.01.059-.04.057-.066.053-.09.047-.111.052-.144.041-.152.042-.182.036-.189.029-.21.023-.223.022-.239.012M520.868 902.181l-.235-.035-.222-.042-.204-.047-.194-.045-.173-.052-.153-.054-.126-.058-.11-.059-.086-.057-.064-.06-.032-.059-.009-.059M522.585 900.345l.216.03.204.029.201.041.183.036.161.045.146.047.13.047.111.052.077.053.066.053M519.82 900.58l.073-.053.091-.04.119-.043.133-.04.16-.028.173-.03.191-.023.21-.018.217-.013.228-.005h.226l.244.005.234.013.236.018.229.022M524.57 901.357l-.024.445M519.278 901.111l-.019.444M524.08 900.78l.427.437M519.82 900.58l-.463.397M661.297 944.162l.047.064.033.065.003.059M655.483 943.94l.02-.065.033-.059.056-.052M659.457 945.378l-.265.007-.275-.007-.281-.005-.282-.019-.282-.023-.28-.029-.271-.035-.265-.046M661.35 944.84l-.024.07-.048.066-.072.063-.105.064-.13.053-.15.052-.183.041-.2.042-.223.034-.236.023-.256.02-.266.01M657.253 945.22l-.257-.047-.256-.053-.235-.059-.21-.064-.189-.064-.176-.07-.149-.07-.113-.076-.103-.07-.063-.076-.041-.076-.007-.071M658.978 943.105l.263.033.254.043.236.052.227.052.207.053.184.064.158.064.135.066.112.069.085.07M656.115 943.338l.083-.053.112-.052.138-.047.156-.041.186-.035.196-.03.216-.017.233-.017.248-.007h.248l.267.007.264.012.253.023.263.024M661.38 944.35l-.028.49M655.483 943.94l-.028.484M660.836 943.671l.464.49M656.115 943.338l-.523.427" style="fill:none;stroke:red;stroke-width:.999997;stroke-linecap:round;stroke-linejoin:round;stroke-miterlimit:4;stroke-dasharray:none;stroke-opacity:1;visibility:visible"/><path d="m200.437 900.813-.007 6.232" style="fill:none;stroke:red;stroke-width:1.99999;stroke-linecap:round;stroke-linejoin:round;stroke-miterlimit:4;stroke-dasharray:none;stroke-opacity:1;visibility:visible"/><path d="m692.89 974.223-.503 7.103" style="fill:none;stroke:red;stroke-width:1.86666;stroke-linecap:round;stroke-linejoin:round;stroke-miterlimit:4;stroke-dasharray:none;stroke-opacity:1;visibility:visible"/><path d="m200.437 900.813.008-.164.02-.157.045-.158.052-.157.064-.147.078-.146.092-.135.093-.133.11-.13.151-.157.163-.152.18-.147.193-.138.214-.138.214-.133.236-.13.247-.122.257-.123.278-.116.284-.117.298-.117.315-.111.325-.11.335-.107.357-.099.363-.105.377-.094.386-.097.397-.09.39-.087.4-.082.42-.082.422-.076.433-.076.444-.076.45-.064.28-.042" style="fill:none;stroke:red;stroke-width:1.99999;stroke-linecap:round;stroke-linejoin:round;stroke-miterlimit:4;stroke-dasharray:none;stroke-opacity:1;visibility:visible"/><path d="m685.727 968.716.473.157.462.163.449.164.439.17.42.169.404.177.386.175.376.176.362.178.337.183.321.188.312.187.29.193.28.192.26.2.244.203.221.206.213.21.184.216.17.222.15.228.131.235.092.21.085.211.058.222.033.222.017.228-.005.222M685.727 968.716l-5.293-1.719" style="fill:none;stroke:red;stroke-width:1.86666;stroke-linecap:round;stroke-linejoin:round;stroke-miterlimit:4;stroke-dasharray:none;stroke-opacity:1;visibility:visible"/><path d="m203.183 909.805-.305-.136-.283-.133-.272-.142-.257-.145-.24-.15-.222-.154-.205-.159-.187-.164-.168-.176-.158-.178-.131-.187-.096-.159-.081-.164-.066-.169-.046-.183-.03-.181-.004-.18M438.245 1009.91 203.183 909.805M497.729 1023.249l-.583.11-.604.111-.612.099-.622.095-.648.088-.643.086-.67.071-.673.07-.676.066-.686.057-.699.047-.685.04-.687.035-.703.03-.701.018-.713.017-.71.01h-.718l-.719-.005-.725-.012-.718-.016-.725-.024-.717-.028-.716-.037-.714-.047-.72-.045-.713-.059-.708-.06-.71-.069-.703-.075-.692-.077-.694-.087-.68-.094-.674-.094-.674-.104-.66-.112-.662-.11-.644-.124-.638-.123-.628-.133-.612-.136-.608-.139-.593-.147-.577-.145-.57-.159" style="fill:none;stroke:red;stroke-width:1.99999;stroke-linecap:round;stroke-linejoin:round;stroke-miterlimit:4;stroke-dasharray:none;stroke-opacity:1;visibility:visible"/><path d="m685.482 985.594-187.752 37.653M692.388 981.326l-.023.199-.036.193-.057.187-.068.186-.085.182-.092.176-.111.169-.121.164-.136.157-.14.154-.199.18-.212.176-.22.169-.241.157-.258.158-.273.152-.288.146-.296.146-.316.136-.35.14-.37.134-.38.128-.403.13-.412.116-.434.117-.451.11-.46.106-.475.1M681.515 951.318h0M393.027 862.908h0M475.451 886.027l45.492 14.277M411.61 865.987l30.693 9.633M524.566 901.444l132.608 41.619M661.38 944.384l19.585 6.15" style="fill:none;stroke:red;stroke-width:1.86666;stroke-linecap:round;stroke-linejoin:round;stroke-miterlimit:4;stroke-dasharray:none;stroke-opacity:1;visibility:visible"/><path d="m474.067 905.028 165.777 54.616M397.595 879.836l44.633 14.7" style="fill:none;stroke:red;stroke-width:.999997;stroke-linecap:round;stroke-linejoin:round;stroke-miterlimit:4;stroke-dasharray:none;stroke-opacity:1;visibility:visible"/><path d="m680.972 950.535.083.028.08.041.078.054.064.057.062.065.053.068.044.074.032.08.027.081.02.117v.118l-.23 3.31M393.027 862.908l-.047 1.813" style="fill:none;stroke:red;stroke-width:1.86666;stroke-linecap:round;stroke-linejoin:round;stroke-miterlimit:4;stroke-dasharray:none;stroke-opacity:1;visibility:visible"/><path d="M480 987.055h0" style="fill:none;stroke:red;stroke-width:1.99999;stroke-linecap:round;stroke-linejoin:round;stroke-miterlimit:4;stroke-dasharray:none;stroke-opacity:1;visibility:visible"/><path d="M210.242 901.064h0" style="fill:none;stroke:red;stroke-width:.999997;stroke-linecap:round;stroke-linejoin:round;stroke-miterlimit:4;stroke-dasharray:none;stroke-opacity:1;visibility:visible"/><path d="M215.547 883.13h0" style="fill:none;stroke:red;stroke-width:1.99999;stroke-linecap:round;stroke-linejoin:round;stroke-miterlimit:4;stroke-dasharray:none;stroke-opacity:1;visibility:visible"/><path d="M473.316 1009.744h0" style="fill:none;stroke:red;stroke-width:.999997;stroke-linecap:round;stroke-linejoin:round;stroke-miterlimit:4;stroke-dasharray:none;stroke-opacity:1;visibility:visible"/><path d="M480.55 987.886h0" style="fill:none;stroke:red;stroke-width:1.99999;stroke-linecap:round;stroke-linejoin:round;stroke-miterlimit:4;stroke-dasharray:none;stroke-opacity:1;visibility:visible"/><path d="M478.816 1008.698h-.007" style="fill:none;stroke:red;stroke-width:.999997;stroke-linecap:round;stroke-linejoin:round;stroke-miterlimit:4;stroke-dasharray:none;stroke-opacity:1;visibility:visible"/><path d="m479.994 987.055-10.277-4.043M439.958 971.301l-107.641-42.345M225.34 886.87l-9.465-3.724" style="fill:none;stroke:red;stroke-width:1.99999;stroke-linecap:round;stroke-linejoin:round;stroke-miterlimit:4;stroke-dasharray:none;stroke-opacity:1;visibility:visible"/><path d="M438.893 995.7 210.25 901.064M472.85 1009.755l-5.265-2.18" style="fill:none;stroke:red;stroke-width:.999997;stroke-linecap:round;stroke-linejoin:round;stroke-miterlimit:4;stroke-dasharray:none;stroke-opacity:1;visibility:visible"/><path d="m209.838 884.421.013-.105.02-.107.046-.099.014-.022.006-.018.005-.006.007-.011.025-.03.068-.082.057-.052.066-.05.068-.038.074-.036.08-.028.086-.019.057-.005.057-.005M210.586 883.707l.34-.012.341-.012.339-.012.332-.023.328-.022.317-.024.316-.03.299-.034.301-.028.283-.043.279-.041.273-.042.256-.045.25-.047.245-.053.244-.053.221-.058M209.838 884.421l-.032 16.005M215.547 883.13l.068-.013.065-.006h.058l.046.012.044.007.047.017" style="fill:none;stroke:red;stroke-width:1.99999;stroke-linecap:round;stroke-linejoin:round;stroke-miterlimit:4;stroke-dasharray:none;stroke-opacity:1;visibility:visible"/><path d="m210.242 901.064-.077-.035-.067-.046-.064-.047-.053-.059-.052-.065-.044-.07-.036-.065-.023-.074-.015-.076-.005-.1M473.316 1009.744l-.07.024-.069.023-.073.012h-.075l-.069-.012-.067-.018-.044-.012" style="fill:none;stroke:red;stroke-width:.999997;stroke-linecap:round;stroke-linejoin:round;stroke-miterlimit:4;stroke-dasharray:none;stroke-opacity:1;visibility:visible"/><path d="m480 987.055.095.041.084.052.08.066.07.069.067.077.053.082.036.086.039.088.016.094.01.088v.088" style="fill:none;stroke:red;stroke-width:1.99999;stroke-linecap:round;stroke-linejoin:round;stroke-miterlimit:4;stroke-dasharray:none;stroke-opacity:1;visibility:visible"/><path d="m478.81 1008.698-.405.023-.4.022-.391.036-.385.036-.382.044-.368.048-.358.052-.334.059-.326.059-.315.07-.299.071-.285.075-.275.077-.249.08-.2.07-.179.071-.18.076-.16.076" style="fill:none;stroke:red;stroke-width:.999997;stroke-linecap:round;stroke-linejoin:round;stroke-miterlimit:4;stroke-dasharray:none;stroke-opacity:1;visibility:visible"/><path d="m480.55 987.886-.81 19.928" style="fill:none;stroke:red;stroke-width:1.99999;stroke-linecap:round;stroke-linejoin:round;stroke-miterlimit:4;stroke-dasharray:none;stroke-opacity:1;visibility:visible"/><path d="m479.738 1007.815-.01.092-.018.09-.03.086-.06.13-.018.027-.003.012-.009.019-.04.047-.057.07-.067.064-.084.063-.08.052-.097.05-.098.034-.097.028-.105.017h-.046M332.225 928.717l.052.059.03.058.006.064M326.517 928.799l.015-.064.032-.059.053-.058M330.485 930.008l-.261.019-.274.01-.274.007h-.283l-.275-.007-.273-.017-.272-.017-.263-.028M332.307 929.383l-.017.07-.04.066-.078.07-.093.063-.128.059-.147.057-.176.054-.188.052-.216.04-.228.042-.256.03-.252.022M328.31 929.974l-.259-.035-.25-.042-.227-.047-.216-.045-.19-.06-.17-.059-.15-.065-.12-.063-.097-.063-.069-.072-.041-.07-.011-.071M330.397 927.839l.243.036.229.041.201.047.188.047.164.058.138.058.11.065.086.064" style="fill:none;stroke:red;stroke-width:.999997;stroke-linecap:round;stroke-linejoin:round;stroke-miterlimit:4;stroke-dasharray:none;stroke-opacity:1;visibility:visible"/><path d="m327.107 928.174.088-.065.116-.059.15-.052.171-.052.188-.047.218-.034.232-.038.248-.021.261-.019.267-.012h.276l.273.007.276.012.268.017.261.028M332.313 928.899l-.007.484M326.517 928.799l-.005.484M331.752 928.254l.472.463M327.107 928.174l-.487.444" style="fill:none;stroke:red;stroke-width:.999997;stroke-linecap:round;stroke-linejoin:round;stroke-miterlimit:4;stroke-dasharray:none;stroke-opacity:1;visibility:visible"/><path d="M333.216 928.443c0 1.347-1.759 2.439-3.94 2.439s-3.946-1.092-3.946-2.439c.001-1.348 1.765-2.439 3.945-2.439 2.182 0 3.942 1.091 3.942 2.44" style="fill:none;fill-opacity:1;fill-rule:nonzero;stroke:red;stroke-width:1.33333;visibility:visible"/><path d="m328.569 928.327.4.253.628-.002.289-.243M327.06 928.192l-.442.415M331.32 928.21l.444.42M326.546 928.742v.438M331.829 928.76v.442M327.06 928.192l.075-.052.098-.048.124-.052.142-.042.164-.04.195-.035.204-.03.215-.023.237-.016.239-.02.242-.006h.255l.24.006.251.012.233.018.225.023M330.2 927.887l.201.028.189.03.18.035.148.042.136.041.116.047.085.045.068.053M328.17 929.723l-.233-.025-.222-.032-.21-.036-.193-.036-.169-.047-.16-.045-.123-.048-.11-.052-.092-.054-.065-.058-.034-.052-.013-.059M331.829 929.203l-.012.052-.042.059-.063.052-.085.054-.106.052-.138.048-.153.046-.17.041-.196.04-.21.03-.224.028-.232.025M330.2 929.728l-.249.018-.248.017-.253.007h-.27l-.25-.007-.26-.005-.252-.018-.248-.017M326.546 928.742l.007-.047.022-.041.045-.048M331.764 928.63l.034.04.024.048.01.041" style="fill:none;stroke:red;stroke-width:.666665;stroke-linecap:round;stroke-linejoin:round;stroke-miterlimit:4;stroke-dasharray:none;stroke-opacity:1;visibility:visible"/><path d="M525.796 900.606c0 1.348-1.76 2.44-3.943 2.44-2.18 0-3.943-1.092-3.943-2.44 0-1.347 1.763-2.439 3.943-2.439 2.183 0 3.943 1.093 3.943 2.439" style="fill:none;fill-opacity:1;fill-rule:nonzero;stroke:red;stroke-width:1.33333;visibility:visible"/><path d="m521.148 900.489.4.254.628-.002.29-.244M519.639 900.353l-.446.416M523.897 900.371l.446.42M519.124 900.903v.439M524.408 900.92v.446M519.639 900.353l.07-.053.098-.046.126-.054.143-.04.163-.041.197-.034.201-.03.215-.024.235-.017.242-.017.243-.007h.255l.241.007.25.012.232.017.227.024M522.777 900.05l.204.03.189.026.177.037.148.04.138.043.117.047.085.046.065.052M520.75 901.885l-.235-.025-.222-.034-.21-.036-.191-.035-.17-.045-.161-.048-.125-.047-.109-.052-.091-.053-.065-.06-.035-.05-.012-.059M524.408 901.365l-.012.053-.043.057-.062.055-.086.052-.105.052-.139.046-.154.047-.167.043-.199.039-.21.029-.221.03-.234.024M522.777 901.89l-.245.017-.25.019-.256.004h-.266l-.257-.004-.254-.007-.252-.017-.247-.017M519.124 900.903l.008-.046.021-.04.044-.05M524.343 900.791l.033.042.024.046.01.042" style="fill:none;stroke:red;stroke-width:.666665;stroke-linecap:round;stroke-linejoin:round;stroke-miterlimit:4;stroke-dasharray:none;stroke-opacity:1;visibility:visible"/><path d="M662.369 944.246c-.123 1.342-1.975 2.27-4.147 2.073-2.17-.196-3.828-1.443-3.712-2.785.123-1.342 1.98-2.27 4.152-2.072 2.171.196 3.83 1.442 3.708 2.784" style="fill:none;fill-opacity:1;fill-rule:nonzero;stroke:red;stroke-width:1.33333;visibility:visible"/><path d="m657.745 943.711.372.29.624.053.315-.216M656.257 943.44l-.476.372M660.496 943.842l.408.458M655.694 943.94l-.036.435M660.954 944.434l-.037.442M656.257 943.44l.077-.046.103-.038.125-.042.152-.027.166-.027.192-.016.212-.01.216-.004.233.002.239.006.248.014.246.024.248.028.24.034.231.038.224.044M659.409 943.42l.2.047.184.045.172.051.145.055.134.052.11.058.083.054.059.058M657.225 945.064l-.23-.044-.219-.054-.203-.056-.193-.05-.163-.064-.152-.06-.125-.059-.106-.062-.081-.06-.057-.064-.034-.056-.006-.059M660.914 944.878l-.017.05-.045.053-.07.047-.09.046-.112.044-.138.032-.162.033-.171.027-.196.024-.21.008-.223.01-.238.001M659.242 945.254l-.246-.004-.25-.006-.254-.018-.266-.023-.252-.03-.26-.028-.244-.041-.246-.04M655.694 943.94l.014-.046.024-.038.045-.045M660.901 944.3l.03.044.021.05.001.042" style="fill:none;stroke:red;stroke-width:.666665;stroke-linecap:round;stroke-linejoin:round;stroke-miterlimit:4;stroke-dasharray:none;stroke-opacity:1;visibility:visible"/><path d="M232.88 893.653a.037.037 0 0 0-.035-.038c-.023 0-.039.016-.039.038v.073c0 .019.016.036.04.036.017 0 .034-.017.034-.036v-.073" style="fill:none;fill-opacity:1;fill-rule:nonzero;stroke:red;stroke-width:1.33333;visibility:visible"/><path d="m675.588 952.294-200.51-63.416M442.234 878.491l-49.146-15.544" style="fill:none;stroke:red;stroke-width:.999997;stroke-linecap:round;stroke-linejoin:round;stroke-miterlimit:4;stroke-dasharray:none;stroke-opacity:1;visibility:visible"/><path d="m329.31 927.776-101.361-39.882" style="fill:none;stroke:red;stroke-width:1.99999;stroke-linecap:round;stroke-linejoin:round;stroke-miterlimit:4;stroke-dasharray:none;stroke-opacity:1;visibility:visible"/><path d="M229.335 887.486c0 1.347-1.76 2.439-3.944 2.439-2.18 0-3.945-1.092-3.945-2.44 0-1.346 1.765-2.437 3.945-2.437 2.183-.001 3.944 1.089 3.944 2.438" style="fill:none;fill-opacity:1;fill-rule:nonzero;stroke:red;stroke-width:1.33333;visibility:visible"/><path d="m224.685 887.37.401.253.627-.002.29-.243M223.178 887.234l-.445.415M227.435 887.251l.447.42M222.663 887.783v.438M227.946 887.8v.446M223.178 887.234l.073-.054.096-.046.126-.052.142-.043.165-.039.194-.035.203-.031.216-.021.234-.02.243-.017.241-.005h.256l.243.004.245.012.235.019.227.023M226.315 886.93l.202.028.188.03.178.035.151.042.137.04.116.049.087.044.064.052M224.287 888.766l-.233-.026-.223-.033-.21-.034-.194-.036-.166-.047-.159-.047-.127-.046-.109-.052-.092-.052-.064-.06-.035-.053-.012-.06M227.946 888.245l-.012.053-.04.057-.064.055-.087.052-.105.052-.137.046-.156.047-.17.043-.194.039-.212.029-.222.03-.232.024M226.315 888.77l-.248.017-.247.018-.257.005h-.266l-.255-.005-.255-.006-.254-.017-.246-.017M222.663 887.783l.007-.046.021-.042.044-.048M227.882 887.671l.033.042.023.045.01.042" style="fill:none;stroke:red;stroke-width:.666665;stroke-linecap:round;stroke-linejoin:round;stroke-miterlimit:4;stroke-dasharray:none;stroke-opacity:1;visibility:visible"/><path d="m485.913 988.307-.825 19.941" style="fill:none;stroke:red;stroke-width:1.99999;stroke-linecap:round;stroke-linejoin:round;stroke-miterlimit:4;stroke-dasharray:none;stroke-opacity:1;visibility:visible"/><path d="m398.175 861.774 10.25 3.216M397.916 861.774h0M398.023 861.767l-.055-.007-.052.013M398.175 861.774l-.148-.005M398.023 861.767l-.235.064-.248.059-.274.059-.287.051-.313.049-.322.038-.338.043-.352.035-.367.028-.379.03-.385.017-.396.018-.405.012" style="fill:none;stroke:red;stroke-width:1.86666;stroke-linecap:round;stroke-linejoin:round;stroke-miterlimit:4;stroke-dasharray:none;stroke-opacity:1;visibility:visible"/><path d="m397.916 861.774.042-.012.041-.005h.076l.052.005.043.012" style="fill:none;stroke:red;stroke-width:1.86666;stroke-linecap:round;stroke-linejoin:round;stroke-miterlimit:4;stroke-dasharray:none;stroke-opacity:1;visibility:visible"/><path d="M413.339 865.175c0 1.347-1.76 2.439-3.944 2.439-2.18 0-3.943-1.092-3.943-2.439 0-1.349 1.763-2.438 3.943-2.438 2.184 0 3.944 1.089 3.944 2.438" style="fill:none;fill-opacity:1;fill-rule:nonzero;stroke:red;stroke-width:1.33333;visibility:visible"/><path d="m408.69 865.058.398.255.628-.003.29-.244M407.18 864.923l-.444.415M411.439 864.94l.445.42M406.666 865.473v.437M411.95 865.489v.445M407.18 864.923l.074-.052.096-.046.126-.055.144-.04.163-.041.195-.035.204-.03.216-.021.234-.02.24-.017.242-.005h.254l.243.005.25.012.233.019.225.021M410.319 864.62l.203.026.188.032.18.033.146.042.139.041.116.048.084.045.068.053M408.29 866.454l-.232-.024-.223-.035-.21-.034-.192-.035-.171-.047-.158-.046-.126-.048-.108-.052-.094-.053-.064-.06-.032-.051-.014-.059M411.95 865.934l-.012.052-.042.057-.062.054-.086.053-.106.052-.139.047-.153.046-.171.042-.195.041-.209.028-.221.03-.235.024M410.319 866.46l-.247.017-.25.018-.254.006h-.268l-.256-.006-.253-.005-.253-.017-.248-.019M406.666 865.473l.004-.047.026-.041.044-.048M411.886 865.36l.033.04.024.048.01.042" style="fill:none;stroke:red;stroke-width:.666665;stroke-linecap:round;stroke-linejoin:round;stroke-miterlimit:4;stroke-dasharray:none;stroke-opacity:1;visibility:visible"/><path d="m490.602 1011.095-.609-3.735M497.93 1013.65l-11.297-5.647M232.88 893.653l.22-3.701M374.806 878.424l1.398 1.097" style="fill:none;stroke:red;stroke-width:.999997;stroke-linecap:round;stroke-linejoin:round;stroke-miterlimit:4;stroke-dasharray:none;stroke-opacity:1;visibility:visible"/><path d="m217.383 882.774-3.663.695" style="fill:none;stroke:red;stroke-width:1.99999;stroke-linecap:round;stroke-linejoin:round;stroke-miterlimit:4;stroke-dasharray:none;stroke-opacity:1;visibility:visible"/><path d="m664.841 949.684 2.199 4.496M664.841 949.684l-3.09 5.594M482.535 993.95l2.758 2.923M480.002 987.055l-1.82-.728M473.977 988.043l11.543 7.585M478.816 1008.698l1.077-4.955M478.82 1008.696l6.246-4.57M479.654 987.015l13.584-1.108M480.002 987.055l-6.52-2.575" style="fill:none;stroke:red;stroke-width:.999997;stroke-linecap:round;stroke-linejoin:round;stroke-miterlimit:4;stroke-dasharray:none;stroke-opacity:1;visibility:visible"/><path d="m398.175 861.774 1.723 4.339" style="fill:none;stroke:red;stroke-width:1.86666;stroke-linecap:round;stroke-linejoin:round;stroke-miterlimit:4;stroke-dasharray:none;stroke-opacity:1;visibility:visible"/><path d="m398.023 861.767-4.414 17.545M226.003 887.378l-3.457-1.621M485.863 1009.232l-18.56 3.009M472.534 1009.095l1.961 6.353M472.55 1009.089l1.648 14.175M662.136 949.461l-1.784 5.92M406.666 865.91l-3.876.762M479.994 987.055l-10.88.356M472.85 1009.755l.618-4.238" style="fill:none;stroke:red;stroke-width:.999997;stroke-linecap:round;stroke-linejoin:round;stroke-miterlimit:4;stroke-dasharray:none;stroke-opacity:1;visibility:visible"/><path d="m675.588 952.294 4.846 14.703" style="fill:none;stroke:red;stroke-width:1.86666;stroke-linecap:round;stroke-linejoin:round;stroke-miterlimit:4;stroke-dasharray:none;stroke-opacity:1;visibility:visible"/><path d="m402.384 880.305-4.789-.469" style="fill:none;stroke:red;stroke-width:.999997;stroke-linecap:round;stroke-linejoin:round;stroke-miterlimit:4;stroke-dasharray:none;stroke-opacity:1;visibility:visible"/><path d="m389.044 862.645 3.936 2.076" style="fill:none;stroke:red;stroke-width:1.86666;stroke-linecap:round;stroke-linejoin:round;stroke-miterlimit:4;stroke-dasharray:none;stroke-opacity:1;visibility:visible"/><path d="m473.352 989.095-3.635-6.083" style="fill:none;stroke:red;stroke-width:1.99999;stroke-linecap:round;stroke-linejoin:round;stroke-miterlimit:4;stroke-dasharray:none;stroke-opacity:1;visibility:visible"/><path d="m479.352 1007.933-11.767-.358" style="fill:none;stroke:red;stroke-width:.999997;stroke-linecap:round;stroke-linejoin:round;stroke-miterlimit:4;stroke-dasharray:none;stroke-opacity:1;visibility:visible"/><path d="m332.313 928.898.903-.455M332.313 928.899l.904-.455M524.408 901.366l1.388-.76M524.408 900.92l1.388-.314M229.335 887.486l3.545 6.167M233.1 889.952l-.22 3.701M227.946 888.246l1.389-.76M227.946 887.8l1.389-.314" style="fill:none;fill-opacity:1;fill-rule:nonzero;stroke:red;stroke-width:1.33333;visibility:visible"/><path d="m480.55 987.886 5.363.421" style="fill:none;stroke:red;stroke-width:1.99999;stroke-linecap:round;stroke-linejoin:round;stroke-miterlimit:4;stroke-dasharray:none;stroke-opacity:1;visibility:visible"/><path d="m411.95 865.934 1.389-.759M411.95 865.489l1.389-.314" style="fill:none;fill-opacity:1;fill-rule:nonzero;stroke:red;stroke-width:1.33333;visibility:visible"/><path d="m418.782 503.415-.083-.001-.087.014M418.612 503.428l.008-.185-.018-.085-.015-.084-.012-.068-.017-.068-.016-.051-.012-.05-.054-.071-.032-.034h-.03l-.038.015-.013.017-.003.084v.05l-.002.052.009.134-.001.068-.003.102.015.084-.003.1M419.356 503.347l.004-.185-.014-.086-.016-.066-.011-.086-.019-.05-.016-.052-.029-.052-.035-.067-.033-.035-.03-.001h-.021v.033l-.02.084.015.034v.068l.017.118.014.086v.084l-.003.1.01.1M419.17 503.375l-.083.015-.065-.002" style="fill:none;stroke:#00ff4a;stroke-width:.999997;stroke-linecap:round;stroke-linejoin:round;stroke-miterlimit:4;stroke-dasharray:none;stroke-opacity:1;visibility:visible" visibility="hidden"/><path d="m419.018 503.388-.014-.185-.014-.085-.011-.086-.019-.066-.016-.051-.012-.068-.016-.035-.048-.085-.036-.017-.032-.02-.02.019-.013.033-.001.066-.002.05-.001.052.01.134-.003.086.016.084-.003.1-.003.103M408.143 503.278l.024-.186.001-.084.003-.084.016-.068.001-.066.002-.051v-.05l.004-.086-.016-.033-.014-.018-.037.016-.03.016-.055.083-.019.033-.019.05-.037.135-.019.083v.084l-.018.102-.003.1M407.924 503.255l-.068-.019-.08-.002M407.772 503.234l.008-.186.019-.084.001-.084.016-.066.002-.068.001-.051.001-.05.003-.085.001-.033-.03-.017-.02.016-.032.016-.039.066-.032.05-.021.05-.034.134-.022.084-.002.084-.016.1-.002.086M407.572 503.195l-.217-.023-.2-.038-.184-.04-.15-.037-.139-.037-.116-.037-.08-.036-.067-.035-.036-.034-.013-.035M420.578 503.024l-.018.034-.034.032-.05.033-.088.032-.101.03-.119.032-.133.046-.17.03-.188.012M419.678 503.304l-.012-.17-.016-.099.004-.068-.034-.07-.014-.065-.012-.053-.016-.05-.048-.071-.038-.034h-.012l-.021.016v.018l-.003.084-.001.05.019.05.009.138v.066l.013.1-.002.087-.004.099M419.49 503.332l-.05.016-.084-.002M409.995 503.426l.005-.186.002-.084.004-.085.002-.067.002-.066v-.051l.002-.05-.034-.087-.014-.016-.036-.018-.03-.001-.039.033-.052.066-.015.05-.021.05-.033.134-.023.084-.001.084-.02.084-.002.1M409.692 503.402l-.098-.003-.1-.003M409.49 503.396l.006-.185.002-.084.002-.084.018-.067v-.068l-.012-.05.001-.051-.017-.085-.016-.034-.031-.017-.036.015-.036.033-.052.067-.019.049-.014.05-.04.119-.016.083-.003.1-.021.083-.003.102" style="fill:none;stroke:#00ff4a;stroke-width:.999997;stroke-linecap:round;stroke-linejoin:round;stroke-miterlimit:4;stroke-dasharray:none;stroke-opacity:1;visibility:visible" visibility="hidden"/><path d="m409.203 503.372-.099-.002-.086-.02M409.018 503.35l.006-.183.002-.085.004-.086v-.066l.004-.068v-.05l.002-.05-.018-.068-.016-.035-.014-.017-.037.016-.032.016-.052.066-.02.05-.032.05-.024.134-.02.084-.015.084-.002.1-.004.086M408.748 503.327l-.098-.004-.087-.001M408.563 503.322l.007-.186.002-.084.019-.084v-.134l.003-.068v-.034l.002-.084-.012-.034-.036-.018-.032.016-.036.016-.037.084-.03.032-.023.05-.034.135-.021.083-.003.084-.018.102-.002.1M408.311 503.298l-.083-.02-.085-.001M417.447 503.499l-.368.007-.376.024-.401.008-.408.005-.404.007-.42.006-.438.006-.425-.012-.439.006-.437-.01-.439-.012-.436-.011-.424-.01-.421-.013-.417-.01-.404-.027-.408-.01-.387-.028M412.5 501.095l-.016-.085M415.008 501.262l-2.524-.25M412.484 501.01l-.486.039M411.995 501.05l2.507.25M414.502 501.299l.508-.037M407.552 504.628l.023-1.433M409.995 503.426l-.021 1.416M417.427 504.899l.023-1.399M419.678 503.304l-.02 1.434M418.375 503.439l-.083.015-.102-.004M418.19 503.45l-.014-.183.004-.087-.014-.084-.014-.068-.018-.05-.015-.068-.03-.035-.049-.085-.036-.018-.033-.018-.017.016-.015.034-.02.067-.003.049-.001.053-.005.134.02.083-.003.085-.003.101-.002.102M417.919 503.478l-.083-.002-.102-.004" style="fill:none;stroke:#00ff4a;stroke-width:.999997;stroke-linecap:round;stroke-linejoin:round;stroke-miterlimit:4;stroke-dasharray:none;stroke-opacity:1;visibility:visible" visibility="hidden"/><path d="m417.734 503.474-.014-.187.003-.084-.016-.067-.01-.085-.021-.051-.012-.05-.031-.052-.05-.086-.035-.018-.033-.018-.03.016-.021.034-.018.068-.004.049v.05l-.004.136-.002.083.015.086-.003.1-.002.102" style="fill:none;stroke:#00ff4a;stroke-width:.999997;stroke-linecap:round;stroke-linejoin:round;stroke-miterlimit:4;stroke-dasharray:none;stroke-opacity:1;visibility:visible" visibility="hidden"/><path d="m402.788 858.422.238.073.264.075.289.057.299.075.334.06.336.059.374.061.366.043.387.044.407.044.417.026.425.028.418.028.437.028.439.012.437.011.456-.005.437.009.44-.003.426-.024.418-.006.426-.023.402-.039.388-.024.388-.041.376-.04.354-.057.32-.044.326-.06.286-.06.274-.06.251-.06.221-.079.204-.08.17-.063.156-.08.136-.08.085-.082.07-.085.054-.082.001-.084M406.354 505.288l-.018.016-.001.018M420.531 505.502l.001-.018M406.336 505.322l-1.83 140.754-.142 12.07-2.601 199.559M420.531 505.502l-1.361 100.797-.046 3.101-.552 39.855-.161 12.154-2.687 196.486" style="fill:none;stroke:#00ff4a;stroke-width:1.99999;stroke-linecap:round;stroke-linejoin:round;stroke-miterlimit:4;stroke-dasharray:none;stroke-opacity:1;visibility:visible" visibility="hidden"/><path d="M417.899 504.878h.05l.054-.014.047.002h.069l.05.003M407.552 504.628l-.218-.04-.199-.038-.184-.04-.15-.02-.139-.036-.116-.038-.08-.052-.067-.036-.036-.034-.013-.034M408.544 504.722v.017M408.73 504.759l-.1-.019-.086-.002M408.999 504.767l-.001.017M409.183 504.788l-.099-.002-.088-.002M409.47 504.796l-.002.018M409.672 504.834l-.098-.02-.102-.001M409.974 504.842h0M417.427 504.915v-.017M417.427 504.915l-.368.008-.376.024-.401.007-.408.005-.406.007-.418.006-.438.006-.425.006-.439-.012-.437-.01-.439.005-.437-.012-.423-.01-.421-.012-.417-.027-.407-.011-.405-.027-.388-.026M407.754 504.634v.016M407.906 504.67l-.067-.017-.081-.003M408.292 504.715l-.082-.02-.066-.001M408.14 504.678v.017M418.762 504.832v-.017M418.762 504.832l-.083-.002-.087.014M419.15 504.792v-.017M419.15 504.792l-.083.015-.067-.003M419.47 504.749l.002-.019M419.47 504.748l-.047.016-.088.016M420.559 504.439l-.019.033-.033.034-.05.032-.088.048-.102.032-.12.03-.132.03-.17.03-.188.028M417.9 504.895v-.017M417.899 504.895l-.083-.001-.104.013M418.355 504.855l.001-.017M418.355 504.855l-.083.015-.104-.003M418.356 504.839l.051.001.07.002h.066l.052.003M418.762 504.815l.05-.016.051.001.067.003.07.001" style="fill:none;stroke:#00ff4a;stroke-width:.999997;stroke-linecap:round;stroke-linejoin:round;stroke-miterlimit:4;stroke-dasharray:none;stroke-opacity:1;visibility:visible" visibility="hidden"/><path d="m419.151 504.775.033.001.05.002h.054l.052.002M419.472 504.732l.07.002h.048l.07.005M407.552 504.628l.05.002h.07l.048.003h.034M407.906 504.67l.069.003.05.001.068.002.051.002M408.292 504.715l.071.001.067.002h.065l.05.002M408.73 504.759l.05-.016.07.003h.049l.05.019.049.001M409.183 504.788l.07.002.067.002.064.002h.052l.035.003M409.672 504.834l.051-.015.07.001.05.002h.067l.031.003.038.017M417.427 504.899l.033.001.068.002h.052l.066.003.07.002" style="fill:none;stroke:#00ff4a;stroke-width:.999997;stroke-linecap:round;stroke-linejoin:round;stroke-miterlimit:4;stroke-dasharray:none;stroke-opacity:1;visibility:visible" visibility="hidden"/><path d="m420.534 505.435.024-.81M406.339 505.255l.005-.81M420.523 504.506h0l.019.052.012.066M406.342 504.446l.02-.051.016-.05v-.016M406.346 504.26l.022-1.416M420.559 504.439l.021-1.416M406.366 502.844l.004-.152.037-.15.024-.152.053-.15.052-.134.075-.132.067-.116.09-.116.084-.116.104-.1.104-.079.107-.083.083-.064.102-.066.088-.048.083-.032.119-.048.122-.047.099-.03.203-.047.188-.046.202-.028.207-.03.233-.026.258-.028.266-.026.271-.028.307-.007.301-.027.256-.01.27-.011.288-.008.283-.01.287.006.307-.009.286-.007.3.007.308-.01.3.008.306.008.3-.01.308.01.3.007.286.007.306.025.286.007.271.006.287.026.268.006.266.024.254.007.254.023.236.022.232.023.219.023.22.022.204.023.199.021.184.039.17.021.2.039.203.056.199.056.148.053.168.074.117.053.115.07.117.087.1.07.116.089.084.101.096.104.067.12.078.103.064.137.048.119.047.136.032.153.028.136.013.152-.002.084" style="fill:none;stroke:#00ff4a;stroke-width:1.99999;stroke-linecap:round;stroke-linejoin:round;stroke-miterlimit:4;stroke-dasharray:none;stroke-opacity:1;visibility:visible" visibility="hidden"/><path d="M420.172 571.841c-.062 1.64-3.584 2.972-7.866 2.972-4.283 0-7.708-1.33-7.647-2.97l.115-8.89c-.062 1.639 3.485 2.987 7.768 2.987 4.284.001 7.81-1.329 7.873-2.97l-.243 8.871" style="fill:none;fill-opacity:1;fill-rule:nonzero;stroke:#00ff4a;stroke-width:1.33333;visibility:visible" visibility="hidden"/><path d="M420.172 571.841c-.062 1.64-3.584 2.972-7.866 2.972-4.283 0-7.708-1.33-7.647-2.97l.115-8.89c-.062 1.639 3.485 2.987 7.768 2.987 4.284.001 7.81-1.329 7.873-2.97l-.243 8.871" style="fill:none;stroke:#00ff4a;stroke-width:1.33333;stroke-linecap:butt;stroke-linejoin:miter;stroke-miterlimit:10;stroke-dasharray:none;stroke-opacity:1;visibility:visible" visibility="hidden"/><path d="m415.72 857.894-13.957-.189" style="fill:none;stroke:#00ff4a;stroke-width:1.99999;stroke-linecap:round;stroke-linejoin:round;stroke-miterlimit:4;stroke-dasharray:none;stroke-opacity:1;visibility:visible" visibility="hidden"/><path d="m469.388 592.583-.01-.22-.012-.103-.01-.1-.033-.085-.015-.086-.03-.069-.016-.05-.065-.088-.03-.034-.03-.019-.041.032-.013.034-.003.084-.003.068-.002.066.008.154.012.101-.005.119.013.117-.004.119M469.099 592.623l-.099.013-.1-.004M468.895 592.63l-.008-.22-.014-.1-.009-.103-.014-.084-.035-.086-.009-.067-.036-.053-.066-.086-.03-.035-.03-.019-.038.016-.017.034-.019.1-.005.05-.002.067.013.17-.004.099.014.104-.006.118-.003.134M457.044 592.416l.01-.219.021-.1.003-.102.002-.1.003-.067.003-.068.002-.068-.013-.101-.012-.035-.037-.017-.051.013-.033.033-.072.082-.02.05-.014.067-.057.15-.024.099-.005.118-.018.118-.005.118M456.723 592.388l-.117-.021-.1-.004M456.506 592.361l.012-.236.002-.101.018-.1.004-.084.002-.085.003-.067.003-.068.004-.084-.016-.05-.032-.021-.051.017-.032.033-.056.081-.037.05-.02.066-.053.168-.021.083-.008.117-.021.12-.004.116M456.204 592.317l-.097-.02-.101-.004M456.002 592.293l.012-.236.016-.1.005-.101.02-.084.004-.084.005-.067.002-.051.004-.1-.02-.053-.027-.017-.039.015-.033.033-.053.081-.036.051-.02.067-.055.149-.024.1-.004.117-.017.118-.006.118M455.734 592.248l-.084-.02-.1-.02M455.55 592.208l.013-.219.016-.101.004-.1.02-.084.004-.084.021-.068.004-.067.002-.101-.014-.033-.02-.019-.03.016-.04.032-.051.083-.037.049-.02.067-.056.149-.018.101-.022.101-.006.117-.005.118M455.315 592.165l-.265-.044-.236-.06-.215-.041-.187-.057-.146-.056-.136-.057-.1-.054-.065-.053-.049-.054-.014-.066M471.381 592.05l-.001.052-.051.048-.073.047-.101.047-.135.063-.156.045-.184.043-.22.042-.243.043M470.217 592.479l-.007-.219-.014-.12-.01-.084-.013-.085-.033-.086-.011-.068-.037-.052-.047-.085-.029-.036-.036-.019-.015.018-.02.049-.005.084.02.07-.004.065.024.154-.004.1.014.12-.006.1.013.136" style="fill:none;stroke:#9500ff;stroke-width:.999997;stroke-linecap:round;stroke-linejoin:round;stroke-miterlimit:4;stroke-dasharray:none;stroke-opacity:1;visibility:visible" visibility="hidden"/><path d="m469.997 592.521-.084.014-.085-.003M469.828 592.532l-.01-.22-.012-.101-.01-.102-.013-.085-.034-.085-.012-.069-.034-.051-.064-.087-.032-.035-.03-.017-.023.032-.018.033-.003.085-.002.066.014.068.015.153-.008.1.016.119.01.119-.001.118M469.572 592.572l-.099.013-.086-.004M457.279 592.441l-.117-.004-.118-.022M468.015 592.699l-.118.011-.117-.003M467.78 592.707l-.01-.219-.012-.103-.01-.101-.013-.085-.018-.084-.026-.07-.019-.052-.064-.102-.03-.036-.048-.002-.039.017-.032.031-.024.1-.002.051-.002.068-.007.168-.004.101.013.102-.003.118-.006.118M467.424 592.727l-.456.016-.47.016-.489.016-.506.013-.508-.003-.527.015-.518-.003-.544-.004-.541-.02-.533-.003-.526-.02-.536-.022-.526-.019-.518-.037-.526-.02-.485-.035-.488-.036-.473-.034" style="fill:none;stroke:#9500ff;stroke-width:.999997;stroke-linecap:round;stroke-linejoin:round;stroke-miterlimit:4;stroke-dasharray:none;stroke-opacity:1;visibility:visible" visibility="hidden"/><path d="m458.254 592.547.012-.237.004-.1.004-.101.002-.085.004-.084.002-.067-.014-.068-.034-.085-.012-.052-.052-.019-.035.016-.052.032-.053.083-.034.065-.022.067-.036.15-.024.101-.02.102-.004.116-.004.135M457.883 592.516l-.133-.023-.116-.003M457.63 592.49l.014-.238.003-.1.003-.101.004-.084.016-.083-.011-.068.001-.068-.012-.085-.034-.051-.031-.019-.05.015-.041.032-.052.083-.036.066-.018.051-.058.165-.017.1-.004.103-.024.116-.005.119M461.488 589.565l.007-.134M464.53 589.833l-3.033-.402M461.492 589.43l-.626.046M460.866 589.475l3.037.418M463.906 589.895l.629-.06M455.266 593.917l.049-1.752M458.254 592.547l-.046 1.72M467.394 594.463l.029-1.736M470.217 592.479l-.047 1.753M468.353 592.679l-.007-.22-.014-.119-.01-.101-.012-.086-.018-.068-.028-.068-.014-.067-.067-.087-.048-.036-.035-.002-.035.015-.017.033-.018.084-.023.067-.003.068.012.152-.004.101.015.119-.007.117-.005.119" style="fill:none;stroke:#9500ff;stroke-width:.999997;stroke-linecap:round;stroke-linejoin:round;stroke-miterlimit:4;stroke-dasharray:none;stroke-opacity:1;visibility:visible" visibility="hidden"/><path d="m453.836 594.673-2.856 124.265-.08 4.012-6.951 302.35M471.316 595.085l-10.24 430.615M443.95 1025.302l.016.136.042.117.08.121.114.142.148.122.182.124.214.128.244.11.266.114.3.111.334.113.353.115.364.099.403.082.434.102.436.066.472.086.468.068.489.052.503.07.518.035.526.037.536.039.539.019.543.022.536.004.522.004.544-.014.52-.016.524-.012.509-.031.491-.05.472-.048.475-.051.441-.066.424-.072.408-.065.374-.087.36-.088.343-.09.303-.103.274-.092.24-.11.226-.108.175-.131.152-.11.127-.131.085-.118.056-.129.024-.118M471.316 595.085l.001-.017-.017-.016M453.839 594.64l-.001.017v.016M471.319 595.001l.024-.994M453.839 594.588l.024-.995M471.312 593.87l.028.138M453.86 593.595l.023-.085.017-.066" style="fill:none;stroke:#9500ff;stroke-width:1.99999;stroke-linecap:round;stroke-linejoin:round;stroke-miterlimit:4;stroke-dasharray:none;stroke-opacity:1;visibility:visible" visibility="hidden"/><path d="m467.984 594.419.05.001.052-.015.087.005.064.002.067.003M455.266 593.917l-.25-.06-.232-.042-.217-.059-.184-.057-.15-.056-.134-.056-.097-.055-.086-.053-.03-.052-.016-.052M456.456 594.081v.019M456.692 594.124l-.118-.004-.118-.023M457.012 594.136l-.001.033M457.246 594.196l-.118-.021-.118-.006M457.583 594.208l-.001.016M457.852 594.252l-.136-.005-.13-.023M458.206 594.265l-.002.018M467.392 594.481l.001-.017M467.392 594.481l-.472.016-.475.016-.485.015-.491-.001-.526.013-.523-.003-.52-.002-.54-.005-.525-.002-.536-.021-.543-.02-.538-.022-.52-.018-.523-.022-.505-.034-.506-.038-.484-.033-.476-.036M455.519 593.928l-.001.033M455.702 593.985l-.098-.002-.088-.02M456.172 594.055l-.098-.005-.1-.021M455.972 593.995l-.001.033M469.05 594.357v-.017M469.05 594.357l-.1.014-.1.013M469.523 594.308l.002-.033M469.523 594.308l-.083.013-.104.014M469.949 594.257v-.033M469.948 594.257l-.083.014-.085.014M471.348 593.788l-.018.05-.054.048-.066.064-.107.047-.133.046-.153.045-.19.044-.202.043-.258.057M467.984 594.435v-.018M467.984 594.435l-.12.012-.132.012M468.542 594.405v-.033M468.541 594.405l-.118.012-.119-.004M468.543 594.372l.05.001.087.004.082.003.086.004M469.05 594.341l.073-.014.066.002.081.004.07.003M469.525 594.275l.05.001.07.003.068.001.064.004M469.948 594.223l.07.002.081.003.069.003M455.266 593.917l.07.003.068.003.064.002.05.002M455.702 593.985l.07.005.068.001.063.002.067.003M456.172 594.055l.07.002.081.003.089.003.048.02M456.692 594.124l.07.003.068.002.064.003.066.003.05.001M457.246 594.196l.07-.015.082.004.086.003.067.02.032.001M457.852 594.252l.05.001.073-.013.079.003.069.02.049.001.038.001" style="fill:none;stroke:#9500ff;stroke-width:.999997;stroke-linecap:round;stroke-linejoin:round;stroke-miterlimit:4;stroke-dasharray:none;stroke-opacity:1;visibility:visible" visibility="hidden"/><path d="m467.394 594.463.033-.016.066.002.089.004.079.003.072.003" style="fill:none;stroke:#9500ff;stroke-width:.999997;stroke-linecap:round;stroke-linejoin:round;stroke-miterlimit:4;stroke-dasharray:none;stroke-opacity:1;visibility:visible" visibility="hidden"/><path d="m453.87 593.375.032-1.755M471.348 593.788l.032-1.736M453.902 591.623l.026-.186.022-.184.04-.201.058-.167.075-.182.09-.166.092-.147.107-.149.124-.129.119-.115.123-.113.12-.096.142-.08.118-.079.12-.046.104-.063.14-.045.133-.063.12-.03.14-.044.272-.058.29-.056.299-.056.324-.039.258-.024.237-.025.27-.023.272-.024.267-.023.304-.022.324-.004.322-.023.336-.004.353-.002.355-.02.357-.005.37-.002.368.015.389-.003.388-.003.388.015.372.015.37-.003.37.015.373.03.367.014.358.013.35.03.357.014.335.03.337.03.317.03.306.026.3.047.303.027.286.046.27.027.263.044.239.042.232.043.27.061.247.077.253.06.217.091.233.095.226.127.267.177.128.107.13.14.134.14.112.14.095.138.077.171.076.155.062.189.043.17.03.185.024.188-.007.169" style="fill:none;stroke:#9500ff;stroke-width:1.99999;stroke-linecap:round;stroke-linejoin:round;stroke-miterlimit:4;stroke-dasharray:none;stroke-opacity:1;visibility:visible" visibility="hidden"/><path d="M469.721 678.561c-.073 2.323-4.198 4.207-9.221 4.207-5.021 0-9.03-1.884-8.961-4.208l.175-11.792c-.074 2.324 4.088 4.236 9.104 4.236 5.022 0 9.152-1.884 9.222-4.208l-.319 11.765" style="fill:none;fill-opacity:1;fill-rule:nonzero;stroke:#9500ff;stroke-width:1.33333;visibility:visible" visibility="hidden"/><path d="M469.721 678.561c-.073 2.323-4.198 4.207-9.221 4.207-5.021 0-9.03-1.884-8.961-4.208l.175-11.792c-.074 2.324 4.088 4.236 9.104 4.236 5.022 0 9.152-1.884 9.222-4.208l-.319 11.765" style="fill:none;stroke:#9500ff;stroke-width:1.33333;stroke-linecap:butt;stroke-linejoin:miter;stroke-miterlimit:10;stroke-dasharray:none;stroke-opacity:1;visibility:visible" visibility="hidden"/><path d="m469.717 983.012 15.897 11.401" style="fill:none;stroke:red;stroke-width:.999997;stroke-linecap:round;stroke-linejoin:round;stroke-miterlimit:4;stroke-dasharray:none;stroke-opacity:1;visibility:visible"/><path d="m398.17 861.774 4.618-3.352" style="fill:none;stroke:#00ff4a;stroke-width:1.99999;stroke-linecap:round;stroke-linejoin:round;stroke-miterlimit:4;stroke-dasharray:none;stroke-opacity:1;visibility:visible" visibility="hidden"/></svg>