<svg xmlns="http://www.w3.org/2000/svg" baseProfile="full" height="1122.52" preserveAspectRatio="xMinYMin meet" style="width:912px;height:1303px" width="793.701" xml:space="preserve"><path d="m619.806 395.98.667-.14.633-.149.607-.151.58-.16.545-.168.515-.18.48-.18.452-.192.415-.2.386-.2.348-.214.312-.214.274-.22.248-.226.205-.234.167-.232.133-.24.093-.24.06-.248.026-.246-.012-.254-.054-.252-.086-.254-.128-.26-.16-.253-.192-.26-.234-.26-.266-.255-.3-.258-.334-.254-.366-.26-.407-.253-.433-.248-.468-.252-.492-.248-.526-.239-.56-.24-.589-.24-.613-.233-.639-.227-.667-.22M366.842 435.099l.66.267.686.261.72.253.754.247.78.239.8.226.833.22.859.22.874.2.904.2.923.188.94.174.96.166.98.16.987.139 1.006.14 1.02.12 1.027.113 1.033.1 1.04.094 1.054.081 1.053.065 1.053.054 1.054.04 1.053.033 1.053.02 1.054.008 1.038-.008 1.035-.02 1.025-.025 1.022-.042 1.006-.06.987-.06.976-.08.964-.086.94-.1.92-.114.899-.125.881-.135.86-.14.824-.16M67.182 307.566l-.146.187-.114.186-.079.187-.047.187-.022.186.016.194.046.186.08.187.113.187.141.186.172.187.204.187.244.18.266.18.3.18.326.173.354.173.386.167M619.806 395.98 405.38 437.971" style="fill:none;stroke:red;stroke-width:.999997;stroke-linecap:round;stroke-linejoin:round;stroke-miterlimit:4;stroke-dasharray:none;stroke-opacity:1;visibility:visible"/><path d="m619.426 386.726.667.22.639.227.612.233.59.24.56.24.524.24.492.247.47.252.433.248.407.252.365.261.333.253.302.261.266.252.234.26.19.261.164.254.126.259.088.253.052.253.014.254-.028.246-.06.248-.093.24-.133.24-.167.232-.205.234-.25.226-.272.22-.312.214-.348.213-.386.201-.412.2-.454.192-.482.18-.51.18-.552.168-.577.16-.607.152-.633.148-.667.14M366.842 435.099 69.422 310.866M69.422 310.867l-.386-.166-.356-.174-.324-.173-.3-.18-.268-.18-.239-.18-.208-.187-.17-.186-.143-.187-.112-.187-.079-.186-.05-.187-.009-.193.018-.187.044-.187.082-.186.114-.187.144-.187M378.078 439.212l-.34 8.914" style="fill:none;stroke:red;stroke-width:.999997;stroke-linecap:round;stroke-linejoin:round;stroke-miterlimit:4;stroke-dasharray:none;stroke-opacity:1;visibility:visible"/><path d="m627.253 401.112-.028.228-.039.22-.068.212-.072.214-.098.206-.11.2-.125.194-.14.186-.153.18-.16.174-.227.206-.24.2-.252.194-.273.18-.295.18-.312.173-.328.167-.339.166-.36.154-.403.16-.418.153-.433.147-.46.146-.472.134-.496.133-.512.127-.527.12-.539.113M619.374 405.98l-214.22 42.938M405.154 448.919l-.667.127-.688.126-.697.114-.714.106-.734.1-.742.1-.758.08-.766.08-.773.074-.787.066-.794.054-.78.046-.788.04-.798.034-.801.02-.812.02-.816.013h-.819l-.818-.007-.827-.012-.82-.021-.83-.027-.81-.032-.82-.041-.815-.053-.82-.054-.813-.066-.813-.067-.807-.08-.801-.087-.791-.086-.788-.1-.779-.107-.773-.107-.767-.12-.754-.126-.752-.127-.735-.14-.727-.14-.718-.153-.7-.154-.695-.16-.673-.166-.66-.167-.646-.18-.634-.18-.622-.187-.598-.192-.586-.194-.574-.2-.552-.207-.535-.213-.512-.214M366.055 445.952l-296.969-126.4M69.09 319.554l-.349-.153-.325-.154-.306-.16-.294-.166-.272-.174-.256-.173-.232-.18-.216-.187-.19-.2-.18-.206-.154-.214-.106-.18-.094-.186-.072-.194-.055-.206-.034-.207-.006-.207M619.654 386.733l.537.18.531.186.51.187.501.193.475.194.466.2.44.2.427.2.413.206.387.207.367.213.352.214.334.22.32.22.293.226.281.233.252.234.241.24.213.247.191.253.173.26.15.267.106.239.094.241.065.252.04.254.021.261-.006.252M619.653 386.733l-6.039-1.96M238.142 284.597l-93.832 11.482M65.957 309.3l.007-.185.024-.181.05-.18.057-.18.075-.167.093-.166.1-.154.109-.153.124-.147.173-.18.188-.173.207-.167.216-.16.244-.153.246-.153.267-.147.287-.14.29-.14.316-.133.327-.134.34-.133.36-.127.367-.126.386-.121.404-.113.416-.12.427-.106.44-.114.453-.1.447-.1.46-.093.473-.093.487-.087.493-.087.507-.086.513-.074.32-.046M627.828 393.012l-.576 8.1M65.957 309.3l-.006 7.108" style="fill:none;stroke:red;stroke-width:1.99999;stroke-linecap:round;stroke-linejoin:round;stroke-miterlimit:4;stroke-dasharray:none;stroke-opacity:1;visibility:visible"/><path d="m613.606 384.834 5.82 1.893" style="fill:none;stroke:#00ff4a;stroke-width:.999997;stroke-linecap:round;stroke-linejoin:round;stroke-miterlimit:4;stroke-dasharray:none;stroke-opacity:1;visibility:visible"/><path d="m606.674 388.72 1.414-20.713M608.661 366.933l.247-.12.272-.107.306-.107.334-.099.368-.093.39-.081.415-.08.447-.067.468-.059.486-.046.5-.048.524-.033.543-.02" style="fill:none;stroke:#00ff4a;stroke-width:1.99999;stroke-linecap:round;stroke-linejoin:round;stroke-miterlimit:4;stroke-dasharray:none;stroke-opacity:1;visibility:visible"/><path d="m607.653 385.873 5.419 1.773" style="fill:none;stroke:#00ff4a;stroke-width:.999997;stroke-linecap:round;stroke-linejoin:round;stroke-miterlimit:4;stroke-dasharray:none;stroke-opacity:1;visibility:visible"/><path d="m608.086 368.006.015-.133.025-.134.027-.119.04-.114.039-.107.05-.093.05-.087.054-.073.062-.073.064-.06.074-.047.075-.033M291.569 264.78l-.174-.005M613.961 365.974l.267.028M608.121 367.766h0" style="fill:none;stroke:#00ff4a;stroke-width:1.99999;stroke-linecap:round;stroke-linejoin:round;stroke-miterlimit:4;stroke-dasharray:none;stroke-opacity:1;visibility:visible"/><path d="m606.948 389.446-.054-.02-.04-.034-.042-.04-.03-.045-.055-.108-.039-.127-.008-.072-.012-.088v-.092l.006-.1" style="fill:none;stroke:#00ff4a;stroke-width:.999997;stroke-linecap:round;stroke-linejoin:round;stroke-miterlimit:4;stroke-dasharray:none;stroke-opacity:1;visibility:visible"/><path d="M286.455 265.347h0M286.489 265.347l-.007-.006h-.007M291.395 264.774l-.06-.007-.06.014" style="fill:none;stroke:#00ff4a;stroke-width:1.99999;stroke-linecap:round;stroke-linejoin:round;stroke-miterlimit:4;stroke-dasharray:none;stroke-opacity:1;visibility:visible"/><path d="m285.762 266.12-.039-.015-.021-.012-.007-.02M606.948 389.446h0M606.801 389.334h0" style="fill:none;stroke:#00ff4a;stroke-width:.999997;stroke-linecap:round;stroke-linejoin:round;stroke-miterlimit:4;stroke-dasharray:none;stroke-opacity:1;visibility:visible"/><path d="M614.848 366.893h0" style="fill:none;stroke:#00ff4a;stroke-width:1.99999;stroke-linecap:round;stroke-linejoin:round;stroke-miterlimit:4;stroke-dasharray:none;stroke-opacity:1;visibility:visible"/><path d="M607.388 389.4h0M612.461 388.446h0" style="fill:none;stroke:#00ff4a;stroke-width:.999997;stroke-linecap:round;stroke-linejoin:round;stroke-miterlimit:4;stroke-dasharray:none;stroke-opacity:1;visibility:visible"/><path d="M291.275 264.78h0" style="fill:none;stroke:#00ff4a;stroke-width:1.99999;stroke-linecap:round;stroke-linejoin:round;stroke-miterlimit:4;stroke-dasharray:none;stroke-opacity:1;visibility:visible"/><path d="M285.695 266.074h0" style="fill:none;stroke:#00ff4a;stroke-width:.999997;stroke-linecap:round;stroke-linejoin:round;stroke-miterlimit:4;stroke-dasharray:none;stroke-opacity:1;visibility:visible"/><path d="m591.875 358.986 22.345 7.013M435.775 310.02l151.3 47.46M306.895 269.587l124.747 39.134M291.569 264.78l11.693 3.668" style="fill:none;stroke:#00ff4a;stroke-width:1.99999;stroke-linecap:round;stroke-linejoin:round;stroke-miterlimit:4;stroke-dasharray:none;stroke-opacity:1;visibility:visible"/><path d="m579.505 380.41 27.443 9.036M285.729 283.674l254.631 83.848" style="fill:none;stroke:#00ff4a;stroke-width:.999997;stroke-linecap:round;stroke-linejoin:round;stroke-miterlimit:4;stroke-dasharray:none;stroke-opacity:1;visibility:visible"/><path d="m614.228 366 .09.035.096.045.087.06.073.067.07.074.062.079.048.08.04.094.024.093.03.134v.133l-1.428 20.66" style="fill:none;stroke:#00ff4a;stroke-width:1.99999;stroke-linecap:round;stroke-linejoin:round;stroke-miterlimit:4;stroke-dasharray:none;stroke-opacity:1;visibility:visible"/><path d="m607.388 389.4-.06.032-.06.02-.075.013-.059.008h-.066l-.068-.014-.052-.013M612.461 388.446l-.4.02-.393.02-.388.033-.379.034-.359.04-.354.046-.334.047-.312.053-.3.054-.289.066-.272.061-.253.073-.24.073-.22.073-.16.067-.154.06-.14.066-.128.068M613.42 387.554l-.014.1-.02.093-.033.087-.015.033-.01.027-.008.006-.007.014-.02.04-.08.113-.067.08-.08.067-.081.066-.093.054-.099.04-.1.033-.113.027-.12.013" style="fill:none;stroke:#00ff4a;stroke-width:.999997;stroke-linecap:round;stroke-linejoin:round;stroke-miterlimit:4;stroke-dasharray:none;stroke-opacity:1;visibility:visible"/><path d="m285.695 266.074-.472 16.893M285.695 266.074l.007-.107.033-.113.02-.053.007-.007.008-.013.007-.027.038-.06.067-.087.08-.08.067-.046.074-.048.079-.033.08-.033.087-.02.088-.007h.038M286.475 265.34l.347-.012.348-.007.333-.021.334-.02.326-.02.319-.026.313-.027.295-.026.279-.034.28-.04.266-.04.255-.04.239-.04.233-.046.227-.054.213-.053.195-.053M291.275 264.78l.046-.012.045-.007h.09l.059.006.046.014" style="fill:none;stroke:#00ff4a;stroke-width:1.99999;stroke-linecap:round;stroke-linejoin:round;stroke-miterlimit:4;stroke-dasharray:none;stroke-opacity:1;visibility:visible"/><path d="M608.086 368.006 285.761 266.119M613.072 387.646l.534-2.812M607.653 385.873l11.773.854M606.948 389.446l.705-3.573" style="fill:none;stroke:#00ff4a;stroke-width:.999997;stroke-linecap:round;stroke-linejoin:round;stroke-miterlimit:4;stroke-dasharray:none;stroke-opacity:1;visibility:visible"/><path d="m587.075 357.48 4.8 1.506M431.642 308.721l4.133 1.299M591.875 358.986l-4.8-1.506M303.262 268.448l3.633 1.139M435.775 310.02l-4.133-1.299M306.895 269.587l-3.633-1.139" style="fill:none;stroke:#00ff4a;stroke-width:1.99999;stroke-linecap:round;stroke-linejoin:round;stroke-miterlimit:4;stroke-dasharray:none;stroke-opacity:1;visibility:visible"/><path d="m363.275 399.146-.023.1-.064.106-.102.094-.144.1-.174.086-.213.08-.25.074-.279.06-.297.06-.327.046-.347.034-.363.02-.372.013-.378.007-.387-.014-.387-.02-.38-.032-.368-.04-.358-.054-.348-.06-.319-.067-.293-.079-.274-.088-.242-.092-.206-.094-.166-.107-.134-.099-.1-.108-.054-.106-.018-.107M358.728 398.566l.146.046.166.034.188.033.196.021.204.012h.207" style="fill:none;stroke:#9500ff;stroke-width:.999997;stroke-linecap:round;stroke-linejoin:round;stroke-miterlimit:4;stroke-dasharray:none;stroke-opacity:1;visibility:visible"/><path d="m362.547 398.26.075.1.04.091v.095l-.04.093-.08.087-.115.086-.152.08-.181.074-.219.066-.244.06-.271.048-.29.04-.31.026-.325.02-.333.006h-.35l-.34-.012-.337-.028-.34-.032-.323-.048-.304-.046-.288-.067-.265-.067-.241-.08-.212-.08-.175-.086-.145-.094-.107-.092-.073-.094-.034-.094.007-.092.047-.094.078-.094" style="fill:none;stroke:#9500ff;stroke-width:.999997;stroke-linecap:round;stroke-linejoin:round;stroke-miterlimit:4;stroke-dasharray:none;stroke-opacity:1;visibility:visible"/><path d="m359.402 398.06-.2.011-.187.015-.167.026-.14.04-.114.04-.086.048M358.508 398.24l-.046.054-.02.052.02.061.06.053.086.052.12.055M359.835 398.714l.196-.007.183-.02.166-.027.148-.033.112-.047.082-.046M360.722 398.532l.053-.052.013-.054-.02-.06-.054-.054-.086-.052-.12-.054M360.508 398.206l-.146-.04-.174-.04-.186-.034-.194-.02-.208-.006-.198-.007M359.376 398.694l.027-.634M360.487 398.634l.021-.427" style="fill:none;stroke:#9500ff;stroke-width:.999997;stroke-linecap:round;stroke-linejoin:round;stroke-miterlimit:4;stroke-dasharray:none;stroke-opacity:1;visibility:visible"/><path d="m359.402 398.06-.127.125-.123.094-.106.061-.098.032-.106.014-.107-.02-.107-.047-.12-.079M360.508 398.206l-.16.086-.14.048-.134.026-.132-.007-.128-.033-.132-.054-.136-.086-.144-.127M360.608 398.592l-.028-.046-.025-.08-.023-.114-.01-.066-.014-.08M358.508 398.24l.027.14.02.106" style="fill:none;stroke:#9500ff;stroke-width:.999997;stroke-linecap:round;stroke-linejoin:round;stroke-miterlimit:4;stroke-dasharray:none;stroke-opacity:1;visibility:visible"/><path d="m376.428 432.774.915-22.8" style="fill:none;stroke:#9500ff;stroke-width:1.99999;stroke-linecap:round;stroke-linejoin:round;stroke-miterlimit:4;stroke-dasharray:none;stroke-opacity:1;visibility:visible"/><path d="M377.342 409.974 76.736 290.647" style="fill:none;stroke:#9500ff;stroke-width:.999997;stroke-linecap:round;stroke-linejoin:round;stroke-miterlimit:4;stroke-dasharray:none;stroke-opacity:1;visibility:visible"/><path d="M377.388 409.64h0M378.055 408.774l.333-.147.372-.133.402-.127.432-.12.461-.113.487-.1.513-.094.53-.086.555-.067.574-.067.592-.053.609-.04.616-.027M358.975 397.547l-142.553-56.066" style="fill:none;stroke:#9500ff;stroke-width:1.99999;stroke-linecap:round;stroke-linejoin:round;stroke-miterlimit:4;stroke-dasharray:none;stroke-opacity:1;visibility:visible"/><path d="m383.902 431.706-6.44-2.64" style="fill:none;stroke:#9500ff;stroke-width:.999997;stroke-linecap:round;stroke-linejoin:round;stroke-miterlimit:4;stroke-dasharray:none;stroke-opacity:1;visibility:visible"/><path d="m384.535 407.6.393.045M83.57 289.153l-.269-.027M83.784 289.32h0M377.342 409.974l.013-.147.025-.147.035-.133.047-.127.046-.113.06-.107.06-.093.074-.087.073-.086.087-.067.093-.053.1-.04M77.544 289.807l-.107.014-.115.026-.098.047-.096.053-.079.055-.073.072-.068.073-.054.08-.044.094-.04.099-.029.114-.004.113M83.196 289.134l.053-.007h.053M77.536 289.794h.008v.013M77.522 289.807h0M76.736 290.647l-.04-.02-.014-.02M83.57 289.153h0" style="fill:none;stroke:#9500ff;stroke-width:1.99999;stroke-linecap:round;stroke-linejoin:round;stroke-miterlimit:4;stroke-dasharray:none;stroke-opacity:1;visibility:visible"/><path d="m216.422 341.327-.021.087-.054.08-.092.08-.12.08-.16.073-.193.067-.215.06-.245.06-.272.047-.288.039-.312.034-.321.026-.342.014-.337.007h-.347l-.348-.007-.34-.02-.333-.034-.327-.033-.305-.046-.287-.047-.269-.06-.244-.067-.213-.066-.188-.074-.16-.08-.12-.08-.087-.086-.052-.081-.02-.086M212.277 340.854l.126.04.14.026.158.027.176.014.18.013h.186" style="fill:none;stroke:#9500ff;stroke-width:.999997;stroke-linecap:round;stroke-linejoin:round;stroke-miterlimit:4;stroke-dasharray:none;stroke-opacity:1;visibility:visible"/><path d="m215.782 340.593.06.073.019.08-.006.073-.045.074-.081.073-.114.073-.145.067-.181.06-.207.053-.232.047-.257.04-.274.033-.286.027-.298.013-.309.007h-.31l-.315-.007-.306-.019-.3-.027-.287-.034-.273-.046-.245-.047-.237-.053-.198-.067-.18-.067-.14-.066-.113-.074-.08-.073-.04-.08-.007-.073.026-.08.058-.074" style="fill:none;stroke:#9500ff;stroke-width:.999997;stroke-linecap:round;stroke-linejoin:round;stroke-miterlimit:4;stroke-dasharray:none;stroke-opacity:1;visibility:visible"/><path d="m212.163 340.593-.053.046-.033.041.003.046.037.047.066.04.094.04M213.242 340.974l.18-.007.173-.013.155-.02.137-.027.114-.033.094-.039M214.095 340.834l.055-.04.03-.047-.003-.04-.035-.046-.068-.041-.092-.04M213.982 340.58l-.127-.04-.14-.025-.158-.028-.175-.02-.18-.006h-.188" style="fill:none;stroke:#9500ff;stroke-width:.999997;stroke-linecap:round;stroke-linejoin:round;stroke-miterlimit:4;stroke-dasharray:none;stroke-opacity:1;visibility:visible"/><path d="M213.015 340.46h-.18l-.174.015-.152.025-.14.027-.114.034-.094.033M213.982 340.58l-.139.075-.12.046-.113.019h-.113l-.115-.026-.112-.054-.12-.073-.136-.106M214.022 340.867l-.012-.046-.01-.061-.011-.08-.007-.1" style="fill:none;stroke:#9500ff;stroke-width:.999997;stroke-linecap:round;stroke-linejoin:round;stroke-miterlimit:4;stroke-dasharray:none;stroke-opacity:1;visibility:visible"/><path d="m212.163 340.593.014.073.006.06.01.093M213.009 340.974l.006-.513M213.975 340.887l.007-.306" style="fill:none;stroke:#9500ff;stroke-width:.999997;stroke-linecap:round;stroke-linejoin:round;stroke-miterlimit:4;stroke-dasharray:none;stroke-opacity:1;visibility:visible"/><path d="m213.015 340.46-.12.108-.105.079-.101.054-.1.026-.102.007-.097-.02-.108-.047-.121-.073M356.702 398.032l-.627.54M362.547 398.26l.584.585M355.908 398.86l-.02.614M363.275 399.146l-.023.606M356.702 398.032l.128-.08.158-.08.192-.072.22-.068.263-.06.28-.046.299-.034.321-.026.333-.02.346-.007.346.007.355.02.343.026.333.04M360.622 397.634l.3.046.285.047.268.06.247.067.22.073.193.08.167.08.14.087.104.086M358.195 400.506l-.333-.054-.319-.066-.295-.067-.273-.079-.25-.088-.217-.086-.186-.094-.159-.1-.12-.1-.09-.1-.05-.1-.013-.1M363.255 399.752l-.028.1-.053.1-.092.094-.132.093-.163.087-.199.073-.22.073-.252.068-.28.052-.301.048-.32.04-.34.026M360.876 400.607l-.328.02-.333.007h-.339l-.34-.007-.35-.02-.338-.02-.328-.04-.326-.04M355.908 398.86l.02-.1.06-.093.087-.093M363.135 398.846l.08.1.047.1.012.1" style="fill:none;stroke:#9500ff;stroke-width:.999997;stroke-linecap:round;stroke-linejoin:round;stroke-miterlimit:4;stroke-dasharray:none;stroke-opacity:1;visibility:visible"/><path d="M384.928 407.646h0M83.196 289.134h0M385.555 408.592h0" style="fill:none;stroke:#9500ff;stroke-width:1.99999;stroke-linecap:round;stroke-linejoin:round;stroke-miterlimit:4;stroke-dasharray:none;stroke-opacity:1;visibility:visible"/><path d="M383.575 432.327h-.007" style="fill:none;stroke:#9500ff;stroke-width:.999997;stroke-linecap:round;stroke-linejoin:round;stroke-miterlimit:4;stroke-dasharray:none;stroke-opacity:1;visibility:visible"/><path d="m94.37 293.4-10.803-4.248M212.997 340.047l-115.653-45.48M359.228 397.54l-142.806-56.148M384.922 407.646l-21.646-8.514" style="fill:none;stroke:#9500ff;stroke-width:1.99999;stroke-linecap:round;stroke-linejoin:round;stroke-miterlimit:4;stroke-dasharray:none;stroke-opacity:1;visibility:visible"/><path d="M376.768 433.532 77.148 309.586" style="fill:none;stroke:#9500ff;stroke-width:.999997;stroke-linecap:round;stroke-linejoin:round;stroke-miterlimit:4;stroke-dasharray:none;stroke-opacity:1;visibility:visible"/><path d="m83.196 289.134.074-.013.071-.007h.069l.052.013.054.007.053.02M76.682 290.607l-.04 18.254M77.536 289.794l.386-.013.388-.015.386-.012.38-.027.374-.026.366-.027.358-.033.34-.042.342-.032.324-.046.324-.047.305-.047.295-.053.286-.053.28-.061.274-.06.252-.066M76.682 290.607l.014-.12.026-.12.046-.113.021-.027.007-.02.006-.006.008-.014.026-.033.08-.093.066-.061.074-.06.073-.04.084-.04.097-.033.092-.02.068-.006.066-.007" style="fill:none;stroke:#9500ff;stroke-width:1.99999;stroke-linecap:round;stroke-linejoin:round;stroke-miterlimit:4;stroke-dasharray:none;stroke-opacity:1;visibility:visible"/><path d="m77.142 309.587-.085-.04-.081-.053-.074-.053-.06-.067-.061-.073-.046-.081-.039-.073-.026-.086-.02-.087-.009-.113" style="fill:none;stroke:#9500ff;stroke-width:.999997;stroke-linecap:round;stroke-linejoin:round;stroke-miterlimit:4;stroke-dasharray:none;stroke-opacity:1;visibility:visible"/><path d="m384.928 407.646.107.046.09.06.099.074.078.08.074.086.06.094.046.1.038.1.023.106.013.1v.1" style="fill:none;stroke:#9500ff;stroke-width:1.99999;stroke-linecap:round;stroke-linejoin:round;stroke-miterlimit:4;stroke-dasharray:none;stroke-opacity:1;visibility:visible"/><path d="m383.568 432.327-.46.027-.46.026-.446.04-.44.04-.434.054-.42.053-.406.06-.38.067-.374.066-.36.08-.342.08-.324.087-.314.087-.286.093-.227.08-.207.08-.202.087-.184.086" style="fill:none;stroke:#9500ff;stroke-width:.999997;stroke-linecap:round;stroke-linejoin:round;stroke-miterlimit:4;stroke-dasharray:none;stroke-opacity:1;visibility:visible"/><path d="m385.555 408.592-.927 22.728" style="fill:none;stroke:#9500ff;stroke-width:1.99999;stroke-linecap:round;stroke-linejoin:round;stroke-miterlimit:4;stroke-dasharray:none;stroke-opacity:1;visibility:visible"/><path d="m210.482 340.5-.56.508M215.782 340.593l.538.526M209.809 341.214l-.007.553M216.422 341.327l-.007.554M210.482 340.5l.1-.072.133-.067.167-.061.192-.06.22-.053.25-.04.264-.04.281-.026.301-.021.305-.013h.315l.312.007.313.013.308.02.291.034M214.235 340.12l.275.04.257.045.235.054.21.054.191.066.159.067.128.073.092.074M211.855 342.554l-.3-.04-.281-.047-.26-.053-.244-.054-.22-.066-.195-.067-.165-.073-.141-.073-.109-.074-.078-.08-.047-.08-.013-.08M216.415 341.88l-.02.08-.047.075-.086.079-.107.073-.148.067-.166.066-.199.06-.22.06-.248.047-.259.047-.285.033-.296.027M214.335 342.593l-.302.02-.31.013-.315.007h-.322l-.31-.007-.315-.02-.307-.02-.299-.033M209.809 341.214l.013-.073.04-.067.06-.067M216.322 341.12l.06.065.032.068.008.073M384.628 431.32l-.013.105-.02.101-.033.101-.07.145-.017.034-.007.013-.013.021-.04.052-.067.08-.081.074-.092.073-.093.061-.107.052-.113.04-.114.034-.12.02h-.053" style="fill:none;stroke:#9500ff;stroke-width:.999997;stroke-linecap:round;stroke-linejoin:round;stroke-miterlimit:4;stroke-dasharray:none;stroke-opacity:1;visibility:visible"/><path d="m93.497 293.842.437.375.707-.02.439-.355M91.902 293.814l-.506.473M96.762 293.834l.508.48M91.316 294.44v.5M97.342 294.46v.508M91.902 293.814l.08-.06.114-.053.14-.061.166-.046.188-.047.22-.04.231-.033.249-.027.266-.02.273-.02.281-.006h.286l.28.006.28.014.266.019.26.027M95.482 293.467l.234.034.213.033.199.04.174.047.152.046.136.054.1.053.072.06M93.17 295.56l-.266-.025-.256-.041-.238-.04-.22-.04-.193-.053-.183-.054-.144-.053-.126-.06-.1-.06-.076-.067-.038-.06-.016-.066M97.342 294.967l-.012.06-.048.067-.074.06-.099.06-.123.06-.15.053-.183.054-.19.046-.221.047-.24.033-.254.034-.267.026M95.482 295.566l-.28.02-.286.02-.296.007h-.298l-.292-.007-.296-.006-.284-.02-.28-.02M91.316 294.44l.006-.052.026-.047.05-.054M97.27 294.314l.04.047.026.053.008.047M214.202 342.213l-.28.02-.287.02-.294.006h-.299l-.292-.006-.297-.007-.283-.02-.28-.02M210.035 341.086l.007-.053.025-.047.05-.053M215.99 340.96l.037.045.03.054.006.047M212.217 340.487l.437.375.707-.02.438-.355M210.622 340.46l-.507.472M215.482 340.48l.508.48M210.035 341.086v.5M216.062 341.107v.507M210.622 340.46l.08-.06.113-.055.14-.059.167-.047.188-.046.219-.04.231-.034.249-.026.266-.02.272-.02.283-.007h.285l.28.007.28.013.267.02.26.027M214.202 340.113l.233.033.215.033.197.041.175.046.152.047.136.053.099.053.073.061M211.889 342.206l-.267-.027-.256-.039-.236-.04-.221-.04-.194-.054-.182-.053-.144-.054-.127-.059-.1-.06-.076-.067-.036-.06-.017-.067" style="fill:none;stroke:#9500ff;stroke-width:.666665;stroke-linecap:round;stroke-linejoin:round;stroke-miterlimit:4;stroke-dasharray:none;stroke-opacity:1;visibility:visible"/><path d="m216.062 341.613-.012.06-.048.066-.075.061-.097.06-.124.06-.15.053-.184.053-.189.047-.221.046-.24.034-.254.033-.268.027M360.868 400.714l-.28.02-.286.02-.295.006h-.299l-.293-.006-.295-.007-.284-.02-.28-.02M356.702 399.587l.006-.053.026-.047.05-.053M362.656 399.46l.038.047.03.053.006.047M358.882 398.988l.437.375.707-.02.438-.355M357.288 398.96l-.506.474M362.148 398.98l.508.48M356.702 399.587v.5M362.728 399.607v.507M357.288 398.96l.08-.06.114-.053.14-.06.166-.047.187-.046.22-.04.232-.034.248-.026.267-.02.272-.02.281-.007h.287l.28.007.28.013.266.02.26.027M360.868 398.614l.234.033.213.033.199.04.174.047.152.047.135.053.1.053.073.06M358.555 400.707l-.267-.027-.257-.04-.236-.04-.22-.04-.193-.053-.184-.053-.143-.054-.127-.06-.1-.06-.076-.066-.037-.06-.017-.067" style="fill:none;stroke:#9500ff;stroke-width:.666665;stroke-linecap:round;stroke-linejoin:round;stroke-miterlimit:4;stroke-dasharray:none;stroke-opacity:1;visibility:visible"/><path d="m362.728 400.114-.013.06-.047.066-.074.06-.099.06-.123.06-.15.054-.183.053-.189.047-.222.046-.24.034-.254.033-.267.027" style="fill:none;stroke:#9500ff;stroke-width:.666665;stroke-linecap:round;stroke-linejoin:round;stroke-miterlimit:4;stroke-dasharray:none;stroke-opacity:1;visibility:visible"/><path d="m376.768 433.532.694-4.466" style="fill:none;stroke:#9500ff;stroke-width:.999997;stroke-linecap:round;stroke-linejoin:round;stroke-miterlimit:4;stroke-dasharray:none;stroke-opacity:1;visibility:visible"/><path d="m376.428 432.774 1.65 6.438M384.628 431.32l-6.89 16.806" style="fill:none;stroke:red;stroke-width:.999997;stroke-linecap:round;stroke-linejoin:round;stroke-miterlimit:4;stroke-dasharray:none;stroke-opacity:1;visibility:visible"/><path d="m83.196 289.134-6.546 15.247" style="fill:none;stroke:red;stroke-width:1.99999;stroke-linecap:round;stroke-linejoin:round;stroke-miterlimit:4;stroke-dasharray:none;stroke-opacity:1;visibility:visible"/></svg>