<svg xmlns="http://www.w3.org/2000/svg" baseProfile="full" height="1122.52" preserveAspectRatio="xMinYMin meet" style="width:912px;height:1303px" width="793.701" xml:space="preserve"><path d="M176.48 897.287h-.017l-.013-.017M176.448 897.358v-.088M176.448 897.165h0M176.377 897.182v.157M357.416 869.98v-.033M357.82 869.929v-.035M357.82 870.12v-.192" style="fill:none;stroke:red;stroke-width:.999997;stroke-linecap:round;stroke-linejoin:round;stroke-miterlimit:4;stroke-dasharray:none;stroke-opacity:1;visibility:visible"/><path d="m274.389 890.338.021.156.03.159.075.124.084.122.104.106.107.07.143.052.137.016h.143l.137-.033.144-.072.124-.088.105-.103.104-.142.086-.14.052-.155.04-.161v-.159l-.02-.156-.035-.157-.053-.14-.09-.124-.105-.09-.123-.068-.122-.053-.139-.017h-.143l-.14.033-.138.072-.122.087-.124.106-.088.122-.089.16-.053.14-.031.174-.021.159" style="fill:none;stroke:red;stroke-width:.666665;stroke-linecap:round;stroke-linejoin:round;stroke-miterlimit:4;stroke-dasharray:none;stroke-opacity:1;visibility:visible"/><path d="m504.62 906.08-67.757-21.815M384.616 871.595l-2.842-.93M381.775 870.665v.365M382.616 886.267l2.195.738M384.81 887.003l-.195-15.409M636.098 953.515v-.472M636.098 953.04l-3.544-1.138M632.554 951.9v2.826M419.155 882.038l-42.977-13.918M644.892 955.078l-207.994-67.304M176.8 895.551l.032.034.038.052.014.053.04.055.014.068.016.072.04.085.014.09v.085l.02.105.018.107v.122M177.009 896.094h0M357.82 870.12v-.226M177.026 896.323h0M173.937 894.462l.353.05.334.074.313.069.281.07.283.089.241.085.23.072.196.106.176.086.156.088.124.106.106.105.068.087M194.138 894.654l-4.721.701M189.417 895.357l.02.403M194.349 903.991l-.21-9.336M353.906 885.898l3.421-.528M358.12 870.209v-.369M358.12 869.84l-4.44.686M353.678 870.525l.228 15.372M364.611 868.138l-40.308 6.09-7.461 1.122-83.832 12.671-7.69 1.159-48.277 7.3.019 1.105" style="fill:none;stroke:red;stroke-width:.999997;stroke-linecap:round;stroke-linejoin:round;stroke-miterlimit:4;stroke-dasharray:none;stroke-opacity:1;visibility:visible"/><path d="m380.072 865.962-.26.087-.285.07-.316.071-.316.07-.333.07-.367.069" style="fill:none;stroke:red;stroke-width:1.99999;stroke-linecap:round;stroke-linejoin:round;stroke-miterlimit:4;stroke-dasharray:none;stroke-opacity:1;visibility:visible"/><path d="M382.25 870.823v.14M383.231 886.249l1.581.528" style="fill:none;stroke:red;stroke-width:.999997;stroke-linecap:round;stroke-linejoin:round;stroke-miterlimit:4;stroke-dasharray:none;stroke-opacity:1;visibility:visible"/><path d="M379.967 865.98h0M380.072 865.962h-.052l-.052.017M380.283 865.98l-.21-.019" style="fill:none;stroke:red;stroke-width:1.99999;stroke-linecap:round;stroke-linejoin:round;stroke-miterlimit:4;stroke-dasharray:none;stroke-opacity:1;visibility:visible"/><path d="m420.33 987.72-4.826-1.792M420.366 992.16l-251.094-93.433M382.25 870.823v.14M383.932 871.614l.019-.035.033-.037" style="fill:none;stroke:red;stroke-width:.999997;stroke-linecap:round;stroke-linejoin:round;stroke-miterlimit:4;stroke-dasharray:none;stroke-opacity:1;visibility:visible"/><path d="m412.046 984.648-116.072-42.96" style="fill:none;stroke:red;stroke-width:1.99999;stroke-linecap:round;stroke-linejoin:round;stroke-miterlimit:4;stroke-dasharray:none;stroke-opacity:1;visibility:visible"/><path d="m508.165 907.062-.02.07-.052.071-.066.054-.11.068-.137.07-.157.055-.196.05-.21.053-.231.037-.261.05-.26.019-.283.035-.299.016-.283.02h-.613l-.297-.02-.28-.016-.28-.019-.266-.034-.263-.035-.229-.036-.21-.052-.192-.052-.16-.053-.138-.071-.104-.052-.09-.07-.035-.07-.019-.07M504.567 906.729l.105.018.124.015.156.02.143.017h.315M654.913 980.804l-204.974 37.24M449.936 1018.046l-.773.138-.77.123-.793.123-.802.105-.83.105-.84.09-.841.086-.879.09-.86.068-.876.053-.897.052-.896.053-.895.036-.896.016-.908.019-.896.019h-.916l-.894-.02-.896-.017-.892-.017-.894-.036-.881-.034-.877-.052-.876-.072-.844-.068-.844-.071-.84-.09-.81-.085-.801-.106-.792-.104-.757-.124-.752-.124-.72-.14-.72-.122-.688-.158-.666-.142-.626-.176-.615-.157-.6-.177-.563-.172-.544-.176-.508-.195M416.471 1016.587l-254.574-97.644M424.85 1018.85l.089 7.65M161.898 918.943l-.365-.14-.333-.16-.32-.138-.282-.16-.262-.155-.228-.161-.21-.174-.194-.16-.16-.173-.117-.16-.111-.173-.063-.176-.041-.176-.014-.175M664.038 976.312l-.018.21-.054.21-.066.212-.123.211-.143.192-.158.212-.207.21-.23.191-.263.195-.28.21-.334.193-.352.174-.366.195-.406.176-.438.176-.46.173-.489.176-.509.158-.544.176-.561.141-.581.159-.596.138-.63.142-.652.138-.666.124M174.989 896.954h.02M175.36 896.954h0M175.006 896.954l.054-.019h.053M175.36 896.954l-.247-.019M175.57 897.113h0" style="fill:none;stroke:red;stroke-width:.999997;stroke-linecap:round;stroke-linejoin:round;stroke-miterlimit:4;stroke-dasharray:none;stroke-opacity:1;visibility:visible"/><path d="m507.603 906.447.033.07.019.053v.072l-.052.053-.073.068-.083.052-.144.055-.138.05-.195.037-.19.052-.21.036-.25.034-.245.018-.243.018-.262.018h-.549l-.261-.018-.264-.018-.246-.018-.229-.017-.224-.033-.194-.054-.179-.035-.154-.054-.126-.052-.104-.054-.071-.07-.054-.052v-.052l.018-.07.035-.055" style="fill:none;stroke:red;stroke-width:.999997;stroke-linecap:round;stroke-linejoin:round;stroke-miterlimit:4;stroke-dasharray:none;stroke-opacity:1;visibility:visible"/><path d="m506.007 906.467-.107-.034-.124-.02-.136-.017h-.161l-.159-.016h-.157M505.164 906.378l-.156.017-.144.018-.139.017-.124.019-.085.034-.072.035" style="fill:none;stroke:red;stroke-width:.999997;stroke-linecap:round;stroke-linejoin:round;stroke-miterlimit:4;stroke-dasharray:none;stroke-opacity:1;visibility:visible"/><path d="m504.444 906.518-.052.032-.02.04v.032l.053.035.052.037.09.033M505.41 906.8l.158-.017h.156l.123-.034.125-.02.085-.034.071-.034M506.13 906.66l.05-.036.021-.035v-.035l-.037-.034-.068-.037-.09-.017" style="fill:none;stroke:red;stroke-width:.999997;stroke-linecap:round;stroke-linejoin:round;stroke-miterlimit:4;stroke-dasharray:none;stroke-opacity:1;visibility:visible"/><path d="m506.007 906.467-.107.07-.124.037-.084.032h-.105l-.108-.016-.089-.052-.122-.053-.105-.106M506.059 906.694l-.019-.034v-.053l-.013-.072-.02-.07M504.444 906.518l.02.087v.089M634.185 947.671l-.017.07-.055.069-.067.09-.122.071-.144.05-.175.071-.19.052-.231.056-.246.051-.262.033-.282.036-.296.018-.318.034h-.948l-.295-.017-.32-.017-.293-.034-.282-.037-.262-.035-.248-.052-.23-.053-.189-.052-.177-.07-.143-.072-.123-.067-.068-.072-.052-.07-.02-.086M630.414 947.286l.124.033.138.019.157.017.163.017h.333M505.164 906.8v-.42M506.007 906.713v-.248" style="fill:none;stroke:red;stroke-width:.999997;stroke-linecap:round;stroke-linejoin:round;stroke-miterlimit:4;stroke-dasharray:none;stroke-opacity:1;visibility:visible"/><path d="m505.164 906.378-.104.105-.091.07-.088.054-.084.018-.072.017-.089-.017-.105-.036-.087-.071M633.59 947.004l.05.071.02.068v.07l-.05.074-.073.069-.105.051-.126.053-.174.071-.176.035-.21.053-.244.033-.246.038-.262.014-.266.038h-.858l-.28-.018-.263-.02-.267-.032-.244-.036-.247-.036-.209-.053-.177-.033-.175-.07-.12-.054-.104-.07-.07-.069-.054-.053v-.07l.014-.071.054-.071" style="fill:none;stroke:red;stroke-width:.999997;stroke-linecap:round;stroke-linejoin:round;stroke-miterlimit:4;stroke-dasharray:none;stroke-opacity:1;visibility:visible"/><path d="m630.256 947.056-.054.054-.018.034.018.036.054.035.072.036.084.033M631.326 947.374h.156l.158-.019.144-.035.122-.018.087-.034.072-.034M632.064 947.232l.05-.034.022-.054-.022-.034-.05-.036-.072-.035-.087-.035M631.905 947.004l-.124-.034-.137-.02-.158-.018-.16-.016h-.335" style="fill:none;stroke:red;stroke-width:.999997;stroke-linecap:round;stroke-linejoin:round;stroke-miterlimit:4;stroke-dasharray:none;stroke-opacity:1;visibility:visible"/><path d="m631.976 947.286-.019-.054-.013-.052-.02-.089-.02-.087M630.256 947.056l.018.106.014.09M630.993 946.916l-.157.018-.158.016-.144.018-.122.02-.086.033-.072.035" style="fill:none;stroke:red;stroke-width:.999997;stroke-linecap:round;stroke-linejoin:round;stroke-miterlimit:4;stroke-dasharray:none;stroke-opacity:1;visibility:visible"/><path d="m631.905 947.004-.139.071-.108.052-.105.016h-.105l-.104-.016-.126-.052-.104-.053-.122-.106M378.37 614.592h-.178l-.07.017-.052.035-.054.033-.052.038-.033.052-.05.053-.041.053-.032.07-.054.067-.018.09-.034.087-.032.089-.02.087-.052.194-.02.21-.014.213-.017.192v.21l.017.209.014.211.038.193.034.158.052.14.072.142.068.105.07.105.09.07.105.054.085.031h.106l.124-.013.104-.038.124-.069.105-.07.104-.105.092-.122.085-.143.086-.157.07-.193.052-.194.04-.19.014-.195v-.209l-.034-.212-.033-.194-.039-.123-.032-.105-.038-.088-.052-.104-.034-.09-.053-.086-.052-.07-.071-.088-.053-.069-.07-.053-.054-.053-.065-.052-.07-.052-.055-.02-.071-.033-.052-.018M630.993 947.374v-.458M631.905 947.303v-.3" style="fill:none;stroke:red;stroke-width:.999997;stroke-linecap:round;stroke-linejoin:round;stroke-miterlimit:4;stroke-dasharray:none;stroke-opacity:1;visibility:visible"/><path d="m630.993 946.916-.107.106-.088.07-.088.052-.085.036h-.09l-.085-.018-.092-.035-.104-.07M378.528 617.75l-.085-.07-.09-.07-.072-.107-.053-.12-.053-.124-.052-.123-.015-.157-.037-.16-.015-.139-.02-.157v-.475l.02-.159.015-.158.019-.141.033-.154.039-.144.033-.139.05-.122.055-.124.071-.104.072-.088.085-.052" style="fill:none;stroke:red;stroke-width:.999997;stroke-linecap:round;stroke-linejoin:round;stroke-miterlimit:4;stroke-dasharray:none;stroke-opacity:1;visibility:visible"/><path d="m392.252 612.41-.158 3" style="fill:none;stroke:red;stroke-width:1.99999;stroke-linecap:round;stroke-linejoin:round;stroke-miterlimit:4;stroke-dasharray:none;stroke-opacity:1;visibility:visible"/><path d="m439.198 1011.76 3.138-.56" style="fill:none;stroke:red;stroke-width:.999997;stroke-linecap:round;stroke-linejoin:round;stroke-miterlimit:4;stroke-dasharray:none;stroke-opacity:1;visibility:visible"/><path d="m443.055 994.791.195 19.55" style="fill:none;stroke:red;stroke-width:1.99999;stroke-linecap:round;stroke-linejoin:round;stroke-miterlimit:4;stroke-dasharray:none;stroke-opacity:1;visibility:visible"/><path d="M649.772 958.166 443.059 994.79" style="fill:none;stroke:red;stroke-width:.999997;stroke-linecap:round;stroke-linejoin:round;stroke-miterlimit:4;stroke-dasharray:none;stroke-opacity:1;visibility:visible"/><path d="M443.004 994.318h0M438.827 992.282l.437.086.439.072.405.104.387.09.352.104.348.105.3.124.28.104.247.124.226.121.194.142.157.122.125.142" style="fill:none;stroke:red;stroke-width:1.99999;stroke-linecap:round;stroke-linejoin:round;stroke-miterlimit:4;stroke-dasharray:none;stroke-opacity:1;visibility:visible"/><path d="m442.722 993.72.036.035.052.052.037.07.055.072.014.087.036.087.032.09.02.087.02.122.014.106.017.123v.14" style="fill:none;stroke:red;stroke-width:1.99999;stroke-linecap:round;stroke-linejoin:round;stroke-miterlimit:4;stroke-dasharray:none;stroke-opacity:1;visibility:visible"/><path d="M649.926 958.096v.018l-.03.016-.054.02-.072.017M649.105 957.218l.033-.019h.038M438.634 992.282h.194M645.014 955.884l-.104-.018M443.25 1014.342v.104l-.018.089v.068l-.014.09-.04.104-.031.106-.021.033-.031.038-.04.016-.033.018M649.28 977.699l.072-.035.066-.018.056-.036.052-.051.087-.088.05-.124.036-.07.017-.088.021-.086v-.09M420.944 708.15l.123-.228.125-.245.086-.265.086-.262.071-.28.037-.281.035-.283v-.576l-.035-.3-.056-.3-.066-.28-.091-.281-.105-.279-.124-.282-.138-.264M420.892 703.745l-.124-.195-.124-.192-.118-.176-.143-.176-.139-.176-.157-.138-.144-.158-.157-.122-.142-.126-.157-.122-.159-.086-.136-.088-.145-.07-.137-.07-.143-.055-.137-.033M418.626 701.761l-.176-.035h-.175l-.139.016-.142.036-.104.07-.107.07-.084.103-.073.107-.071.16-.068.157-.055.21-.052.245M417.382 702.902l-.02.228-.032.244M417.487 707.606l.052.247.073.244.07.21.085.193.072.177.085.139.106.142.105.104.123.124.124.087.157.07.176.055M438.616 992.282h.02M443.022 1015.008h0M649.154 957.2h.02M644.91 955.867h0M649.28 977.699h0M442.496 1014.587v.088l.032.07.054.091M438.792 1013.272l.019.106.033.069.052.035.052.036M645.014 955.884l.106.018.09.016" style="fill:none;stroke:red;stroke-width:.999997;stroke-linecap:round;stroke-linejoin:round;stroke-miterlimit:4;stroke-dasharray:none;stroke-opacity:1;visibility:visible"/><path d="m649.91 976.927-.017.017-.035.036-.052.018-.072.016M417.838 701.885h0M417.54 703.165l-.086-.14-.072-.123M418.715 709.396l.195.033h.21l.19-.016.198-.052.175-.07.19-.091.177-.104.177-.122.19-.176.173-.174.18-.23.176-.246M415.504 985.788l-.02.087-.052.07-.066.09-.123.069-.159.088-.174.07-.211.054-.228.068-.25.054-.279.052-.3.036-.295.034-.333.018-.315.017-.333.019h-.334l-.32-.019-.314-.017-.314-.018-.301-.034-.281-.054-.247-.052-.225-.053-.212-.05-.191-.074-.144-.069-.12-.087-.09-.07-.053-.09-.017-.067M411.538 985.455l.124.017.137.035.144.017.176.018h.347M418.626 708.289l.74-.088M417.976 702.973l.74-.105M417.223 707.132l.125.246.138.21.144.192.156.176.157.124.157.105.176.07.176.033h.066" style="fill:none;stroke:red;stroke-width:.999997;stroke-linecap:round;stroke-linejoin:round;stroke-miterlimit:4;stroke-dasharray:none;stroke-opacity:1;visibility:visible"/><path d="m417.976 702.97-.082.02-.164.052-.158.088-.138.123-.124.159-.123.174M414.871 985.104l.053.071.034.07-.014.069-.038.071-.067.088-.107.07-.141.053-.176.07-.19.053-.215.053-.243.052-.261.036-.267.034-.296.036h-.28l-.301.017h-.296l-.299-.017-.281-.02-.283-.016-.26-.035-.25-.053-.206-.034-.197-.052-.172-.071-.143-.054-.105-.069-.071-.07-.052-.088v-.068l.019-.073.07-.07" style="fill:none;stroke:red;stroke-width:.999997;stroke-linecap:round;stroke-linejoin:round;stroke-miterlimit:4;stroke-dasharray:none;stroke-opacity:1;visibility:visible"/><path d="M412.239 985.051h-.176l-.157.019-.156.034-.124.018-.106.033-.086.053M411.432 985.21l-.052.034-.033.036v.052l.032.036.072.052.085.038M412.466 985.543l.177-.017.157-.018.14-.018.142-.032.104-.038.086-.034M413.275 985.384l.052-.052.02-.036v-.034l-.037-.054-.067-.034-.092-.035M413.152 985.139l-.105-.035-.141-.034-.159-.02h-.157l-.176-.016-.176.016" style="fill:none;stroke:red;stroke-width:.999997;stroke-linecap:round;stroke-linejoin:round;stroke-miterlimit:4;stroke-dasharray:none;stroke-opacity:1;visibility:visible"/><path d="m413.152 985.139-.124.07-.105.054-.123.016h-.105l-.105-.017-.104-.052-.124-.071-.124-.088M413.204 985.42l-.018-.053v-.052l-.014-.088-.02-.088M411.432 985.21v.053l.019.07.015.087M295.975 941.528l-.02.072-.032.07-.086.068-.108.072-.14.068-.177.072-.191.07-.213.052-.242.054-.263.034-.281.035-.3.035-.3.036-.295.017h-.947l-.302-.017-.281-.018-.282-.018-.261-.035-.247-.052-.226-.053-.194-.052-.176-.054-.137-.069-.105-.053-.091-.07-.053-.07-.018-.089M292.202 941.231l.104.017.124.035h.14l.159.019h.335M412.239 985.543v-.492M413.152 985.439v-.3" style="fill:none;stroke:red;stroke-width:.999997;stroke-linecap:round;stroke-linejoin:round;stroke-miterlimit:4;stroke-dasharray:none;stroke-opacity:1;visibility:visible"/><path d="m412.239 985.051-.104.104-.103.072-.106.052-.09.035h-.19l-.106-.054-.106-.052M295.378 940.898l.052.052.02.07v.071l-.052.069-.072.052-.087.071-.142.07-.158.054-.176.052-.21.052-.226.035-.249.036-.263.036-.261.017-.281.016-.283.017h-.54l-.28-.017-.264-.016-.248-.037-.23-.034-.188-.034-.198-.054-.155-.052-.142-.054-.107-.054-.068-.068-.036-.07-.017-.052.017-.072.052-.07" style="fill:none;stroke:red;stroke-width:.999997;stroke-linecap:round;stroke-linejoin:round;stroke-miterlimit:4;stroke-dasharray:none;stroke-opacity:1;visibility:visible"/><path d="m292.133 941.002-.073.034-.014.036v.035l.014.053.053.036.092.034M293.06 941.302h.16l.156-.02.144-.034.138-.018.105-.034.09-.034M293.851 941.16l.054-.034.033-.038v-.052l-.033-.034-.055-.036-.083-.036M293.765 940.934l-.106-.019-.125-.035-.137-.018h-.494" style="fill:none;stroke:red;stroke-width:.999997;stroke-linecap:round;stroke-linejoin:round;stroke-miterlimit:4;stroke-dasharray:none;stroke-opacity:1;visibility:visible"/><path d="M293.8 941.178v-.035l-.019-.053v-.07l-.014-.089M292.133 941.002v.122l.02.072M292.905 940.862h-.156l-.159.017-.143.017-.124.036-.103.035-.087.035" style="fill:none;stroke:red;stroke-width:.999997;stroke-linecap:round;stroke-linejoin:round;stroke-miterlimit:4;stroke-dasharray:none;stroke-opacity:1;visibility:visible"/><path d="m293.765 940.934-.106.085-.104.037-.104.016-.106.018-.108-.034-.107-.036-.104-.069-.123-.09M188.466 901.727v.053l-.05.07-.072.072-.106.067-.137.053-.161.07-.191.055-.21.051-.226.052-.251.037-.262.035-.282.033-.281.019-.297.019-.298.014h-.876l-.266-.014-.282-.038-.242-.015-.228-.038-.21-.052-.197-.033-.156-.054-.137-.07-.11-.053-.068-.071-.052-.052-.021-.071M184.87 901.446l.086.017.124.037h.124l.156.017h.302M292.92 941.302l-.017-.439M293.782 941.195l-.019-.263" style="fill:none;stroke:red;stroke-width:.999997;stroke-linecap:round;stroke-linejoin:round;stroke-miterlimit:4;stroke-dasharray:none;stroke-opacity:1;visibility:visible"/><path d="m292.905 940.862-.103.105-.092.07-.105.053-.087.017-.085.017-.091-.017-.104-.035-.105-.07M187.906 901.131l.054.07.018.054-.018.051-.034.07-.072.054-.102.052-.127.053-.156.052-.177.053-.192.053-.212.033-.228.037-.244.035-.248.017-.263.016-.26.02h-.53l-.259-.02-.249-.016-.229-.017-.21-.035-.211-.037-.175-.033-.137-.054-.145-.036-.084-.053-.091-.052-.035-.068-.018-.053.018-.052.052-.071" style="fill:none;stroke:red;stroke-width:.999997;stroke-linecap:round;stroke-linejoin:round;stroke-miterlimit:4;stroke-dasharray:none;stroke-opacity:1;visibility:visible"/><path d="m185.589 901.113-.157.017h-.156l-.143.036-.124.017-.105.034-.087.018M184.816 901.235l-.051.035-.032.036v.034l.013.035.039.036.084.035M185.66 901.517h.157l.157-.018.144-.017.123-.036.107-.017.082-.035M186.432 901.394l.052-.035.034-.037v-.033l-.014-.035-.052-.037-.072-.034M186.378 901.183l-.084-.018-.124-.016-.125-.019-.155-.019h-.3M394.34 870.385l-.02.07-.032.052-.072.073-.106.05-.138.053-.142.07-.191.036-.196.051-.228.037-.228.036-.263.033-.26.035-.282.017-.282.019h-.842l-.282-.019-.261-.017-.261-.035-.251-.017-.208-.036-.208-.053-.177-.034-.158-.053-.125-.053-.103-.053-.072-.067-.052-.055-.02-.07M390.9 870.086l.104.019.126.015.124.019.136.018h.316M185.589 901.517v-.404M186.398 901.411l-.02-.228M185.589 901.113l-.104.104-.105.072-.091.033-.085.037h-.087l-.09-.018-.106-.035-.104-.07M186.378 901.183l-.102.07-.106.054-.09.015h-.086l-.104-.016-.09-.036-.106-.068-.104-.09" style="fill:none;stroke:red;stroke-width:.999997;stroke-linecap:round;stroke-linejoin:round;stroke-miterlimit:4;stroke-dasharray:none;stroke-opacity:1;visibility:visible"/><path d="M186.398 901.394v-.14l-.02-.07M184.816 901.235v.07l.02.054v.071M392.304 869.84l-.084-.016-.125-.018-.144-.019-.136-.017h-.301M393.814 869.823l.032.052.018.052-.018.073-.032.051-.072.054-.107.052-.123.052-.138.034-.176.052-.176.038-.212.033-.227.019-.23.034-.239.019-.252.017h-.749l-.251-.017-.227-.019-.23-.016-.208-.037-.191-.033-.16-.038-.159-.052-.123-.033-.088-.053-.07-.052-.052-.055v-.104l.052-.07" style="fill:none;stroke:red;stroke-width:.999997;stroke-linecap:round;stroke-linejoin:round;stroke-miterlimit:4;stroke-dasharray:none;stroke-opacity:1;visibility:visible"/><path d="m391.515 869.77-.156.017-.145.018-.119.018-.108.018-.107.034-.066.018M390.81 869.894l-.051.033-.02.038v.033l.04.035.052.017.067.037M391.707 870.157l.139-.019.142-.016.124-.017.123-.02.087-.015.085-.037M392.41 870.034l.033-.035.039-.037v-.033l-.039-.019-.052-.035-.087-.035" style="fill:none;stroke:red;stroke-width:.999997;stroke-linecap:round;stroke-linejoin:round;stroke-miterlimit:4;stroke-dasharray:none;stroke-opacity:1;visibility:visible"/><path d="m392.304 869.84-.104.072-.105.051-.09.018h-.085l-.105-.018-.09-.033-.108-.072-.103-.088M392.34 870.051v-.034l-.02-.054v-.05l-.014-.073M390.81 869.894l.02.087v.089M438.002 998.652l.034.018M438.02 998.846l.02.017M438.02 999.039l.034.017M438.02 999.231l.034.017M438.02 999.443l.034.033M438.02 999.67l.034.034M438.02 999.916l.034.034M438.02 1000.162l.034.05M438.072 1002.232l-.018.054M438.02 1000.46l.034.052M438.072 1002.162l-.032.07M438.039 1000.794l.033.07M438.072 1001.951l-.032.14M438.039 1001.214l.033.14M391.515 870.157v-.387M392.304 870.069v-.23" style="fill:none;stroke:red;stroke-width:.999997;stroke-linecap:round;stroke-linejoin:round;stroke-miterlimit:4;stroke-dasharray:none;stroke-opacity:1;visibility:visible"/><path d="m391.515 869.77-.087.105-.108.071-.066.035-.092.017-.086.02-.072-.02-.104-.033-.086-.072" style="fill:none;stroke:red;stroke-width:.999997;stroke-linecap:round;stroke-linejoin:round;stroke-miterlimit:4;stroke-dasharray:none;stroke-opacity:1;visibility:visible"/><path d="m367.011 877.158-.28.28M365.626 878.526l.124-.106.105-.123.139-.123.122-.121.144-.14.138-.143.157-.159.176-.173M364.816 879.315l.088-.085.107-.108.109-.087.083-.105.105-.087.104-.106.108-.107.103-.104M370.135 879.58l-.455-1.618M369.68 877.965l-1.669-.511M369.643 879.737l-.083-.247-.11-.227-.12-.228-.158-.194-.176-.192-.176-.176-.209-.158-.213-.141-.228-.105-.247-.087" style="fill:none;stroke:red;stroke-width:.666665;stroke-linecap:round;stroke-linejoin:round;stroke-miterlimit:4;stroke-dasharray:none;stroke-opacity:1;visibility:visible"/><path d="m367.923 877.982-.245-.052-.246-.035-.246-.018-.242.018-.25.052-.244.068-.226.09-.214.124-.192.14-.195.156M370.586 880.163l.13-.15.121-.183.099-.177.066-.18.05-.203.03-.208.024-.204-.026-.204-.022-.204-.052-.203M371.007 878.246l-.083-.2-.096-.187-.108-.186-.136-.155-.157-.155-.15-.14-.179-.123-.178-.11-.197-.078-.203-.067M369.518 876.845l-.204-.035-.21-.021-.204-.006-.2.023-.206.052-.202.065-.186.083-.17.108-.158.124-.155.137M369.046 882.018l.158-.176.16-.21.121-.211.089-.211.07-.245.051-.247.039-.244-.019-.247-.019-.244-.053-.248M365.082 879.053h0M365.626 878.526l-.156.176-.143.19-.12.215-.11.223-.065.25-.052.227-.02.263v.247l.034.243.052.247M365.046 880.807l.073.247.103.225.138.214.144.209.176.192.19.176.197.157.228.123.225.124.227.07" style="fill:none;stroke:red;stroke-width:.666665;stroke-linecap:round;stroke-linejoin:round;stroke-miterlimit:4;stroke-dasharray:none;stroke-opacity:1;visibility:visible"/><path d="m366.75 882.545.248.07.241.035h.263l.25-.017.245-.036.225-.07.228-.087.214-.123.211-.14.175-.16" style="fill:none;stroke:red;stroke-width:.666665;stroke-linecap:round;stroke-linejoin:round;stroke-miterlimit:4;stroke-dasharray:none;stroke-opacity:1;visibility:visible"/><path d="m431.948 571.361-.018-.228-.015-.105-.02-.105-.019-.088-.033-.07-.02-.07-.03-.071-.055-.088-.038-.035h-.052l-.014.019-.02.035v.225l.021.177.013.106.019.105v.245M431.668 571.413l-.106.018-.088.017M431.474 571.448l-.018-.245-.014-.106-.02-.105-.02-.07-.032-.09-.02-.068-.032-.053-.051-.088-.053-.035-.04-.017-.034.017-.017.053v.227l.017.159v.105l.02.105v.246M358.275 870.227l.195-.034M357.432 869.998l.688.21M356.011 870.682h-.104l-.019-.017-.016-.016M382.786 886.283l-.196-14.462-26.578-.931M383.055 871.578l-.033.017-.052.016h-.144M383.423 871.191l-.365.387M358.12 870.209l.03.017h.124M636.064 953.5l1.948.63M636.098 953.463h0M638.01 957.096v-2.968M638.01 954.13l-1.912 3.3M636.098 953.463h-.033l-.02.017.02.016M636.098 953.515v-.053M192.31 895.462l-6.353 5.317M192.33 895.446v.017h-.02M189.433 895.743h0M187.449 896.077l1.93-.3M189.433 895.76v-.016M189.38 895.78l.035-.02h.038v-.014h-.02M440.022 992.036l-2.074-.086" style="fill:none;stroke:red;stroke-width:.999997;stroke-linecap:round;stroke-linejoin:round;stroke-miterlimit:4;stroke-dasharray:none;stroke-opacity:1;visibility:visible"/><path d="m432.124 571.325-.086.018-.091.017M432.739 571.185l-.02-.228-.015-.105-.018-.105-.02-.088-.013-.07-.038-.069-.015-.055-.072-.104-.037-.017-.015-.019-.02.019-.018.052v.088l.018.07v.069l.035.158.017.106v.105l.02.124v.121M432.528 571.237l-.072.018-.086.017" style="fill:none;stroke:red;stroke-width:.999997;stroke-linecap:round;stroke-linejoin:round;stroke-miterlimit:4;stroke-dasharray:none;stroke-opacity:1;visibility:visible"/><path d="m432.368 571.273-.018-.228-.014-.105-.02-.105-.018-.088-.034-.07-.02-.07-.032-.054-.052-.105-.038-.017-.036-.018-.018.018-.013.053v.157l.013.054.018.174.02.106v.105l.017.124v.123" style="fill:none;stroke:red;stroke-width:.999997;stroke-linecap:round;stroke-linejoin:round;stroke-miterlimit:4;stroke-dasharray:none;stroke-opacity:1;visibility:visible"/><path d="m433.72 570.641-.018.071-.034.07-.086.069-.108.071-.14.071-.175.069-.192.054-.227.069" style="fill:none;stroke:red;stroke-width:1.99999;stroke-linecap:round;stroke-linejoin:round;stroke-miterlimit:4;stroke-dasharray:none;stroke-opacity:1;visibility:visible"/><path d="M417.926 571.572h-.106l-.104-.017M417.715 571.553l.02-.246v-.21l.013-.087v-.07l.018-.071v-.071l-.018-.105v-.033l-.033-.02h-.032l-.04.036-.052.088-.032.052-.02.07-.053.159-.018.105v.105l-.014.122v.124M417.452 571.501l-.312-.053-.282-.052-.268-.07-.209-.072-.191-.051-.158-.07-.122-.07-.092-.071-.052-.07-.016-.088M430.368 571.588v-.228l-.02-.105-.013-.106-.019-.088-.02-.088-.033-.069-.035-.053-.054-.087-.054-.036-.034-.017-.031.017-.04.053-.013.087v.3l.013.104v.23l.02.119M430.035 571.624l-.457.052-.471.036-.492.035-.51.036-.528.034-.525.035-.545.019-.545.017-.544.017h-.542l-.562.018h-.544l-.543-.018h-.548l-.523-.017-.53-.017-.506-.019-.508-.017M420.61 571.835v-.702l-.018-.053-.014-.105-.039-.035-.032-.019h-.053l-.054.036-.05.088-.04.07-.011.07-.041.158-.014.105v.105l-.018.123v.124M420.226 571.8h-.124l-.138-.017M419.963 571.781v-.754l-.035-.088-.018-.052-.054-.019-.032.019-.04.033-.07.09-.014.053-.038.07-.032.155-.02.108-.015.124v.244M419.592 571.764l-.124-.017-.137-.018M419.33 571.73l.02-.23v-.508l-.02-.105-.032-.035-.04-.036-.032.019-.036.034-.07.088-.02.053-.033.07-.037.157-.014.106-.02.124v.245M418.996 571.712l-.124-.017-.122-.018M418.752 571.676v-.228l.019-.105v-.194l.013-.086v-.143l-.013-.087-.039-.052-.032-.017-.034.017-.039.035-.052.088-.032.053-.021.07-.052.157-.02.107-.012.105v.245M418.434 571.641l-.104-.017h-.124" style="fill:none;stroke:red;stroke-width:.999997;stroke-linecap:round;stroke-linejoin:round;stroke-miterlimit:4;stroke-dasharray:none;stroke-opacity:1;visibility:visible"/><path d="m418.207 571.624.019-.245v-.211l.013-.088v-.316l-.013-.035-.039-.017h-.032l-.035.035-.072.088-.018.052-.032.07-.039.159-.013.104-.022.123v.229M397.516 501.848v-.21l-.018-.088v-.087l-.015-.07-.019-.072-.018-.053-.016-.052-.052-.086-.018-.02-.038-.015-.014.015v.21l.014.144v.174l.017.105-.017.105M397.322 501.848h-.139M397.183 501.848l.019-.193-.019-.087v-.088l-.019-.07-.014-.071-.02-.07-.02-.036-.051-.086-.032-.037h-.039l-.013.037v.333l.013.088v.298M396.988 501.866h-.156M396.832 501.866v-.3l-.02-.086-.014-.071-.019-.069-.019-.054-.014-.052-.052-.088-.019-.018-.037-.017-.015.017-.021.018-.018.088v.105l.018.14v.387M396.603 501.866h-.176M396.427 501.866v-.194l-.019-.088v-.086l-.014-.088-.02-.054-.018-.07-.014-.052-.054-.07-.038-.036-.016-.017-.036.017-.018.036-.013.07v.632M423.383 568.447v-.158M426.666 568.641l-3.283-.35M423.383 568.29l-.615.086M422.77 568.377l3.28.351M426.05 568.728l.616-.088M417.471 573.29l-.02-1.788M420.61 571.835l.02 1.754M430.054 573.396l-.02-1.773M432.739 571.185l.019 1.791M430.947 571.519l-.019-.229-.013-.105-.02-.105-.019-.088-.014-.088-.04-.07-.013-.054-.071-.087-.038-.033-.052-.02-.034.036-.02.036-.011.088v.139l.012.158v.106l.019.122v.228M430.614 571.553l-.124.018-.123.017M385.004 501.234l-.072-.018h-.085M384.844 501.215l.022-.193.013-.106v-.086l.017-.071.022-.07v-.054l.014-.052v-.087l-.014-.018-.022-.018h-.03l-.04.036-.052.07-.014.036-.038.068-.034.124-.018.088-.02.088-.014.105-.02.105M384.616 501.182l-.246-.035-.243-.037-.21-.034-.174-.034-.159-.036-.124-.036-.105-.016-.073-.036-.052-.035v-.017" style="fill:none;stroke:red;stroke-width:.999997;stroke-linecap:round;stroke-linejoin:round;stroke-miterlimit:4;stroke-dasharray:none;stroke-opacity:1;visibility:visible"/><path d="m398.376 501.69-.02.034-.033.018-.072.018-.105.018-.123.017-.137.017-.176.018-.195.018M385.916 501.339l-.102-.017-.107-.018M385.706 501.304l.02-.192.014-.088v-.088l.018-.07v-.071l.02-.052v-.053l-.02-.087-.018-.036-.014-.017-.039.017-.033.019-.051.069-.036.053-.017.052-.052.14-.022.088-.016.088-.016.106v.105M385.442 501.286l-.086-.018h-.109M385.25 501.268l.02-.21.013-.088.019-.088v-.07l.02-.07v-.052l.014-.054-.014-.088v-.034l-.039-.018-.033.018-.034.016-.052.07-.02.056-.033.051-.037.14-.019.088-.015.088-.02.105-.017.106M395.199 501.866l-.385-.018h-.406l-.418-.017h-.424l-.439-.019-.439-.017-.457-.017-.452-.035-.477-.019-.456-.017-.471-.035-.459-.017-.458-.036-.454-.035-.454-.034-.44-.018-.423-.034-.419-.036M387.266 501.462l.021-.212v-.087l.013-.088v-.245l-.013-.088-.039-.035-.033-.017-.033.017-.039.017-.052.088-.033.035-.02.053-.032.14-.022.088-.017.087-.013.107v.105M386.952 501.427h-.125l-.105-.017M386.722 501.41l.021-.194v-.174l.015-.088v-.176l-.015-.088-.021-.018-.032-.017h-.039l-.032.035-.053.07-.038.053-.014.053-.052.122-.022.088-.017.106v.088l-.013.105M386.408 501.375h-.105l-.104-.017" style="fill:none;stroke:red;stroke-width:.999997;stroke-linecap:round;stroke-linejoin:round;stroke-miterlimit:4;stroke-dasharray:none;stroke-opacity:1;visibility:visible"/><path d="m386.198 501.356.02-.193v-.088l.012-.087v-.07l.018-.071v-.123l-.017-.07-.013-.034-.04-.018h-.032l-.036.034-.051.07-.02.054-.036.052-.036.14-.016.07-.015.107-.021.105v.105M176.956 895.849h0M389.794 499.286v-.052M392.532 499.53l-2.74-.297M389.794 499.234h-.527M389.266 499.234l2.754.298M392.022 499.53h.512M384.546 502.708l.073-1.526M387.266 501.462l-.084 1.508M395.111 503.375l.087-1.51M397.516 501.848l-.085 1.51M395.972 501.866v-.368l-.018-.088-.015-.054-.02-.07-.017-.052-.055-.07-.03-.036-.041-.017-.032.017-.02.036-.013.07v.632M395.708 501.866h-.208M395.499 501.866v-.3l-.02-.067v-.089l-.015-.071-.018-.053-.019-.052-.053-.088-.032-.018-.038-.017-.036.017-.017.018-.035.088v.245l-.018.088v.299" style="fill:none;stroke:red;stroke-width:.999997;stroke-linecap:round;stroke-linejoin:round;stroke-miterlimit:4;stroke-dasharray:none;stroke-opacity:1;visibility:visible"/><path d="m173.92 894.374 48.245-7.265 8.16-1.23 83.25-12.529 7.986-1.212 41.698-6.284" style="fill:none;stroke:red;stroke-width:1.99999;stroke-linecap:round;stroke-linejoin:round;stroke-miterlimit:4;stroke-dasharray:none;stroke-opacity:1;visibility:visible"/><path d="m246.885 903.715 72.835-11.237 2.65-.401 41.785-6.46" style="fill:none;stroke:red;stroke-width:.999997;stroke-linecap:round;stroke-linejoin:round;stroke-miterlimit:4;stroke-dasharray:none;stroke-opacity:1;visibility:visible"/><path d="m634.185 947.742 15.087 5.065s-3.147.824-3.754 1.941M508.165 907.151l122.356 39.415M436.862 884.195l67.917 21.867M394.34 870.507l24.78 7.984M380.283 865.98l10.9 3.508M379.967 865.98h0" style="fill:none;stroke:red;stroke-width:1.99999;stroke-linecap:round;stroke-linejoin:round;stroke-miterlimit:4;stroke-dasharray:none;stroke-opacity:1;visibility:visible"/><path d="m437.072 905.537 140.772 46.642M378.51 886.126l40.857 13.53" style="fill:none;stroke:red;stroke-width:.999997;stroke-linecap:round;stroke-linejoin:round;stroke-miterlimit:4;stroke-dasharray:none;stroke-opacity:1;visibility:visible"/><path d="m378.212 866.383.28-.053.282-.052.28-.053.244-.07.248-.053.23-.07.189-.052M379.967 865.98l.053-.019.072-.016h.051l.053.017h.034l.052.017" style="fill:none;stroke:red;stroke-width:1.99999;stroke-linecap:round;stroke-linejoin:round;stroke-miterlimit:4;stroke-dasharray:none;stroke-opacity:1;visibility:visible"/><path d="M175.006 896.954h0M384.319 886.617l.49-.088M383.986 871.543l-.036-.018-.016-.016M383.986 871.543l.018-.072.032-.068" style="fill:none;stroke:red;stroke-width:.999997;stroke-linecap:round;stroke-linejoin:round;stroke-miterlimit:4;stroke-dasharray:none;stroke-opacity:1;visibility:visible"/><path d="m185.696 900.797-10.338-3.843M292.991 940.494l-104.525-38.68M412.275 984.648 295.974 941.6M420.31 987.614l-4.803-1.772" style="fill:none;stroke:red;stroke-width:1.99999;stroke-linecap:round;stroke-linejoin:round;stroke-miterlimit:4;stroke-dasharray:none;stroke-opacity:1;visibility:visible"/><path d="m175.006 896.954.054-.019h.249l.051.019M171.32 897.62l.335-.033.355-.037.332-.053.312-.034.334-.053.302-.052.295-.053.264-.052.245-.053.248-.07.23-.053.225-.07.192-.053M420.592 1012.183l-250.5-95.417" style="fill:none;stroke:red;stroke-width:.999997;stroke-linecap:round;stroke-linejoin:round;stroke-miterlimit:4;stroke-dasharray:none;stroke-opacity:1;visibility:visible"/><path d="M661.142 973.048h.02l.314.175.316.176.28.157.28.194.25.176.242.193.229.21.21.211.174.228.177.228.143.247.105.261.084.264.054.263.018.281M159.196 916.663l.157 6.807M664.038 976.312l-.018 7.354" style="fill:none;stroke:red;stroke-width:1.99999;stroke-linecap:round;stroke-linejoin:round;stroke-miterlimit:4;stroke-dasharray:none;stroke-opacity:1;visibility:visible"/><path d="M159.196 916.663v-.177l.02-.176.033-.175.051-.158v-.017" style="fill:none;stroke:red;stroke-width:.999997;stroke-linecap:round;stroke-linejoin:round;stroke-miterlimit:4;stroke-dasharray:none;stroke-opacity:1;visibility:visible"/><path d="m664.021 983.666-.019.21-.034.194-.032.209-.071.193-.092.195-.085.193-.126.175-.122.175-.138.176-.196.194-.21.21-.227.192-.264.176-.26.192-.28.177-.319.157-.316.176-.314.158-.334.14-.352.142-.366.14-.387.14-.407.14-.404.14-.418.123-.438.123-.457.122-.473.123-.476.105-.456.106-.455.088-.476.105-.472.088-204.873 37.539M162.46 926.384l-.331-.138-.316-.143-.301-.14-.282-.14-.26-.159-.248-.157-.23-.157-.209-.176-.191-.176-.173-.175-.145-.212-.118-.175-.092-.174-.084-.193-.054-.194-.052-.21-.02-.195" style="fill:none;stroke:red;stroke-width:1.99999;stroke-linecap:round;stroke-linejoin:round;stroke-miterlimit:4;stroke-dasharray:none;stroke-opacity:1;visibility:visible"/><path d="m449.674 1026.382-.595.104-.615.104-.616.106-.634.09-.647.084-.647.09-.654.07-.667.072-.667.068-.681.054-.685.052-.667.052-.687.054-.68.033-.686.037-.687.016-.7.036-.685.016h-.702l-.686.02H435l-.685-.02-.68-.016-.687-.018-.685-.018-.681-.033-.667-.036-.667-.052-.666-.037-.655-.052-.648-.054-.645-.07-.636-.067-.615-.072-.628-.07-.6-.088-.615-.089-.576-.086-.581-.087-.576-.108-.548-.104-.543-.105-.524-.106-.53-.122-.508-.122-.508-.141-.492-.124-.454-.139-.457-.142-.437-.14-.426-.155-.4-.144-254.518-98.537" style="fill:none;stroke:red;stroke-width:1.99999;stroke-linecap:round;stroke-linejoin:round;stroke-miterlimit:4;stroke-dasharray:none;stroke-opacity:1;visibility:visible"/><path d="m508.165 907.537-.02.069-.032.07-.073.056-.084.068-.124.053-.139.052-.176.052-.197.053-.208.035-.23.053-.228.035-.261.017M506.392 908.151l-.261.034-.282.018h-1.104l-.28-.018-.269-.016M502.425 907.08v-.033l.035-.054.037-.053M508.077 906.905l.051.053.022.052.014.052M383.09 503.498h0l-.02.017M398.216 504.34v-.017M628.728 946.987l-.51.473M633.59 947.004l.507.491M628.132 947.636v.508M634.185 947.671v.509M628.728 946.987l.086-.07.108-.054.14-.051.175-.052.179-.053.208-.036.244-.035.246-.036.248-.017.282-.016.278-.019h.548l.28.02.262.014M632.01 946.583l.248.035.242.036.23.034.194.035.173.055.176.05.123.054.104.07.091.051M630.01 948.83l-.262-.035-.266-.037-.244-.052-.208-.036-.214-.05-.172-.07-.162-.056-.12-.069-.105-.07-.072-.069-.035-.07-.018-.074M634.185 948.18l-.017.071-.035.069-.072.07-.104.073-.124.051-.157.07-.176.052-.21.054-.23.033-.227.053-.263.036-.26.016M632.31 948.83l-.283.033-.281.019h-.874l-.302-.019-.28-.016-.28-.017M628.132 947.636v-.053l.034-.07.052-.053M634.098 947.496l.054.054.032.052v.07M502.97 906.483l-.47.457M507.603 906.447l.472.456M502.425 907.08v.49M508.165 907.062v.473M502.97 906.483l.088-.07.107-.053.14-.051.155-.054.177-.052.21-.036.228-.034.25-.036.239-.018.283-.017h.262l.267-.017.281.017h.263l.26.017M506.181 906.08l.23.033.209.02.195.034.191.035.157.053.144.052.123.036.105.052.065.052" style="fill:none;stroke:red;stroke-width:.999997;stroke-linecap:round;stroke-linejoin:round;stroke-miterlimit:4;stroke-dasharray:none;stroke-opacity:1;visibility:visible"/><path d="m504.199 908.169-.249-.035-.242-.019-.23-.052-.206-.033-.199-.055-.157-.052-.156-.053-.125-.052-.086-.053-.069-.068-.035-.055-.02-.07" style="fill:none;stroke:red;stroke-width:.999997;stroke-linecap:round;stroke-linejoin:round;stroke-miterlimit:4;stroke-dasharray:none;stroke-opacity:1;visibility:visible"/><path d="m383.072 503.515-19.848 362.938M392.092 615.41 378.23 866.381M398.216 504.34l-5.966 108.07" style="fill:none;stroke:red;stroke-width:1.99999;stroke-linecap:round;stroke-linejoin:round;stroke-miterlimit:4;stroke-dasharray:none;stroke-opacity:1;visibility:visible"/><path d="m649.28 977.699-206.256 37.308M442.583 1014.832h0M438.95 1013.516h0M438.178 1012.604h0M649.91 976.927h0M649.172 957.2h0M438.634 992.282h0M644.91 955.867h0M443.11 1014.939h0M159.74 916.24l-.176-.086-.124-.089-.12-.106-.09-.088-.07-.101-.035-.108-.017-.107M170.2 916.802l-.42.053-.44.052-.44.054-.454.036-.441.033" style="fill:none;stroke:red;stroke-width:.999997;stroke-linecap:round;stroke-linejoin:round;stroke-miterlimit:4;stroke-dasharray:none;stroke-opacity:1;visibility:visible"/><path d="m649.172 957.2.086.018.092.036.071.032.084.053.087.055.07.068.072.072.052.07.052.086.02.072.034.07v.016l.02.072.013.086v.09l-.013 18.829M644.91 955.867l-206.275 36.416" style="fill:none;stroke:red;stroke-width:1.99999;stroke-linecap:round;stroke-linejoin:round;stroke-miterlimit:4;stroke-dasharray:none;stroke-opacity:1;visibility:visible"/><path d="M437.986 993.071v-.087l.018-.088.032-.088.02-.088.054-.088.05-.069.052-.07.072-.055.054-.051.12-.053.122-.052h.038M443.022 1015.008h-.14l-.069-.018-.073-.034-.07-.036-.052-.052-.034-.036M442.583 1014.832l-.053-.07-.071-.068-.085-.072-.104-.072-.124-.069-.124-.071-.138-.087-.197-.088-.19-.07-.227-.086-.231-.089-.247-.071-.261-.07-.301-.069-.294-.071-.32-.071-.316-.069-.35-.054M438.95 1013.516l-.086-.016-.09-.037-.086-.035-.09-.05-.068-.072-.07-.052-.074-.088-.051-.088-.052-.088-.033-.071-.02-.052-.02-.017v-.035l-.012-.104-.018-.108M644.91 955.867h.156l.054.017.052.018M649.91 976.927l-.017.123-.035.122-.018.088-.054.071-.032.068-.052.07-.072.054-.07.052-.106.052-.124.053-.052.018M645.77 956.306l.154.07.198.087.19.07.21.072.228.087.25.07.24.072.268.05.261.071.281.052.282.053.298.052.296.055.228.033" style="fill:none;stroke:red;stroke-width:.999997;stroke-linecap:round;stroke-linejoin:round;stroke-miterlimit:4;stroke-dasharray:none;stroke-opacity:1;visibility:visible"/><path d="M415.786 573.923v.034M392.252 612.41l.072.192.067.211.036.228.035.229.018.226.02.247-.02.227M392.479 613.97l-.017.23-.035.227-.032.228-.055.21-.068.195-.092.192-.086.157" style="fill:none;stroke:red;stroke-width:1.99999;stroke-linecap:round;stroke-linejoin:round;stroke-miterlimit:4;stroke-dasharray:none;stroke-opacity:1;visibility:visible"/><path d="m420.61 1014.236.02.139.054.143.084.138.124.142.156.138.198.124.208.142.244.121.298.107.302.12.348.106.35.107.407.105.403.088.44.087.452.07.476.07.492.053.508.054.525.053.53.033.539.018.547.018.545.018h.544l.563-.018.543-.018.544-.034.542-.037.53-.033.522-.054.492-.07.495-.07.47-.069.461-.09.435-.085.421-.106.385-.106.352-.105.355-.123.293-.105.281-.141.247-.124.23-.139.175-.124.158-.139.124-.142.066-.139.052-.141.02-.139M433.755 573.765v-.034" style="fill:none;stroke:red;stroke-width:.999997;stroke-linecap:round;stroke-linejoin:round;stroke-miterlimit:4;stroke-dasharray:none;stroke-opacity:1;visibility:visible"/><path d="m417.223 707.132 3.387 307.103M415.786 573.959l1.404 129.627" style="fill:none;stroke:red;stroke-width:1.99999;stroke-linecap:round;stroke-linejoin:round;stroke-miterlimit:4;stroke-dasharray:none;stroke-opacity:1;visibility:visible"/><path d="m294.045 940.528.248.035.21.037.208.034.176.034.178.055.12.05.108.055.085.069M291.887 942.758l-.261-.018-.267-.036-.225-.034-.228-.05-.197-.039-.175-.051-.159-.052-.122-.07-.106-.073-.065-.049-.056-.072v-.07M295.993 942.02l-.02.07-.03.07-.074.071-.106.07-.122.069-.161.054-.172.07-.191.054-.209.052-.251.034-.245.053-.262.035M294.149 942.722l-.282.017-.28.017-.28.02-.297.015h-.56l-.28-.016-.281-.019M290.01 941.635l.019-.053.013-.052.053-.072M295.887 941.354l.055.053.032.05v.073M409.835 985.158l-.528.49M414.871 985.104l.528.474M409.204 985.859v.528M415.504 985.788l.02.528M409.835 985.158l.087-.072.122-.068.159-.071.175-.07.21-.052.23-.054.266-.035.263-.036.281-.033.294-.019h.896l.3.019.28.017M413.398 984.683l.248.033.242.038.232.034.207.052.176.071.157.053.126.071.084.068M411.186 987.087l-.282-.017-.261-.052-.263-.036-.226-.052-.215-.054-.19-.052-.159-.07-.143-.071-.104-.068-.07-.072-.055-.088-.012-.07M415.522 986.315l-.019.07-.052.09-.068.068-.107.07-.141.071-.156.069-.195.072-.21.051-.23.071-.241.035-.267.053-.281.035M413.555 987.07l-.299.017-.281.036h-.295l-.318.017h-.298l-.298-.017-.282-.02-.296-.016M409.204 985.859l.019-.07.032-.069.052-.072M415.399 985.578l.05.07.036.07.017.07M417.188 703.586l-.104.195-.072.21-.069.226-.053.247-.035.264-.019.262-.013.282M416.82 705.272l.02.28.014.264.052.281.053.28.07.263.091.246.106.247M438.072 1002.232l-.018.054M389.408 869.875l-.457.456M393.814 869.823l.456.438M388.882 870.454v.456M394.34 870.385v.473M389.408 869.875l.072-.053.086-.035.124-.05.138-.055.162-.035.19-.052.196-.018.211-.035.227-.035.244-.017h.246l.243-.02h.496l.241.02.23.017M392.515 869.507l.21.018.195.034.19.019.158.035.162.034.12.055.104.033.09.052.072.036M390.567 871.438l-.23-.019-.243-.016-.214-.037-.19-.033-.175-.053-.159-.037-.142-.052-.119-.053-.092-.052-.07-.053-.033-.053-.02-.07M394.34 870.858v.053l-.034.052-.071.054-.09.069-.119.052-.123.053-.157.035-.196.053-.191.035-.213.036-.226.036-.246.033M392.674 871.42l-.248.016-.264.018-.262.019h-.808l-.264-.019-.261-.017M388.882 870.454v-.035l.033-.052.039-.036M394.27 870.262l.032.033.04.055v.035M183.344 901.254l-.472.472M187.906 901.131l.49.439M182.8 901.867l.02.473M188.466 901.727l.022.473M183.344 901.254l.073-.052.105-.072.123-.052.157-.053.176-.035.21-.052.211-.036.246-.033.241-.035.264-.019.267-.018h.261l.263-.017.264.017h.244l.25.018M186.696 900.814l.229.033.192.02.195.034.156.036.144.053.118.033.106.054.07.052M184.572 902.886l-.246-.017-.245-.036-.227-.018-.21-.034-.175-.052-.179-.036-.137-.053-.123-.053-.092-.052-.066-.07-.052-.051v-.072M188.486 902.2l-.02.052-.033.071-.07.052-.087.07-.123.055-.139.067-.162.054-.19.052-.196.037-.23.052-.239.033-.251.038" style="fill:none;stroke:red;stroke-width:.999997;stroke-linecap:round;stroke-linejoin:round;stroke-miterlimit:4;stroke-dasharray:none;stroke-opacity:1;visibility:visible"/><path d="m186.749 902.833-.261.017-.268.036-.276.017h-1.11l-.262-.017M182.8 901.867v-.053l.034-.052.038-.035M188.398 901.569l.034.053.038.052v.053M290.587 940.986l-.49.473M295.378 940.898l.51.456M290.01 941.635l.019.51M295.975 941.528l.02.492M290.587 940.986l.087-.07.108-.055.12-.051.176-.07.176-.035.21-.053.228-.034.228-.038.26-.033.27-.019.263-.016.28-.017h.542l.262.017.25.016" style="fill:none;stroke:red;stroke-width:.999997;stroke-linecap:round;stroke-linejoin:round;stroke-miterlimit:4;stroke-dasharray:none;stroke-opacity:1;visibility:visible"/><path d="m371.911 880.862.21-.23.176-.226.142-.264.121-.263.104-.281.071-.3.053-.298.02-.297v-.316l-.037-.297-.067-.301-.092-.296-.118-.283-.144-.279-.176-.264-.19-.245-.212-.228-.226-.21-.25-.178-.26-.175-.28-.14-.283-.121-.301-.091-.292-.052-.304-.033-.312-.02-.302.036-.298.053-.28.07-.279.107-.281.121-.248.159-.246.174-.21.195M369.488 881.903l.178.01.297-.033.279-.054.281-.07.281-.104.267-.125.241-.14.231-.174.21-.195M367 876.211l-.197.229-.171.227-.144.244-.137.249-.104.28-.07.281M365.275 878.877l-.033-.018M365.24 878.86l-.159.192M365.292 878.737l.088.033M365.082 879.053h0M366.75 882.545l-.14-.035-.16-.053-.14-.071-.155-.052-.144-.07-.137-.088-.158-.07-.16-.106M368.222 882.809l-.207-.02-.21-.016-.198-.036-.191-.034-.174-.033-.159-.04-.175-.032-.158-.053M369.046 882.018l-.103.104-.103.105-.106.106-.106.089-.108.105-.088.087-.104.105-.104.091M370.154 880.93l-.178.176-.156.157-.138.14-.144.142-.138.122-.122.124-.106.122-.125.105M370.434 880.65l-.282.28M365.082 879.053l-.262.262M365.046 880.807l-.034-.157-.052-.16-.037-.173-.016-.177-.037-.194-.018-.192-.014-.21-.022-.228M365.555 882l-.085-.137-.07-.161-.074-.14-.069-.157-.067-.142-.054-.157-.038-.14-.052-.159M370.434 880.65l-.3-1.072M368.012 877.455l-1-.3M367.011 877.158l-1.843 1.805" style="fill:none;stroke:red;stroke-width:.666665;stroke-linecap:round;stroke-linejoin:round;stroke-miterlimit:4;stroke-dasharray:none;stroke-opacity:1;visibility:visible"/><path d="M431.176 573.239h.072l.067-.019h.09l.085.02M431.684 573.15h.283M432.14 573.081l.074-.017h.176M432.543 572.975h.21M417.471 573.29h.261M417.944 573.361h.227l.053.019M418.452 573.432h.315M419.015 573.484h.3l.052.017M419.61 573.537h.315l.053.018M420.243 573.59h.072l.068-.02h.087l.073.02h.085M430.054 573.396l.032-.017h.3M430.632 573.327l.05-.018h.285M417.471 573.29l-.315-.052-.28-.07-.25-.052-.227-.07-.19-.072-.159-.07-.122-.07-.092-.069-.052-.071-.014-.069M418.767 573.432v.035M419.015 573.484h-.125l-.123-.017M419.364 573.503v.017M419.61 573.537h-.122l-.125-.017M419.978 573.555v.017M420.243 573.59h-.124l-.137-.02M420.63 573.59v.016M430.054 573.415v-.018M430.054 573.415l-.46.053-.469.035-.491.034-.51.035-.53.036-.524.035-.53.017-.54.017-.565.018h-1.103l-.542.018-.544-.018h-.548l-.523-.018-.53-.017-.506-.017-.509-.035M417.732 573.29v.055M417.944 573.361l-.106-.017h-.104M418.452 573.432l-.104-.017-.105-.018M418.223 573.379l.02.017M431.685 573.203v-.053M431.684 573.203l-.104.017-.09.017M432.14 573.116v-.035M432.14 573.116l-.084.017-.09.018M432.543 573.028v-.053M432.543 573.028l-.07.017-.087.018M433.739 572.43l-.02.072-.032.07-.087.07-.11.069-.137.054-.178.07-.19.07-.226.07M430.632 573.344v-.017M430.632 573.344l-.124.017-.122.019M431.194 573.273l-.019-.033M431.195 573.273l-.125.018-.106.017M356.083 885.302l-.21-14.655M358.468 870.191l2.25-.333M355.871 870.647l.543-.544M356.222 885.335h-.054l-.05-.017h-.02l-.015-.018M355.871 870.647h0M383.231 886.249l-.02.017-.052.017h-.137l-26.8-.948M381.775 871.034l.49-.072M382.266 870.963l.28-.052M360.715 869.858l19.339.667 1.564.509M381.616 871.034h.158M633.625 952.92l.019-.02.053-.016h.156l1.967.068M630.378 958.43l3.248-5.512M192.505 903.307l-.176-7.862M192.189 895.41h.051l.053.017.021.016h.016M189.698 895.32l2.49.09M182.625 899.64l4.179-3.476.645-.089M437.932 990.598l8.25.35M438.143 1008.884h-.033M438.039 998.67l-.02-.02h-.013" style="fill:none;stroke:red;stroke-width:.999997;stroke-linecap:round;stroke-linejoin:round;stroke-miterlimit:4;stroke-dasharray:none;stroke-opacity:1;visibility:visible"/><path d="m415.766 572.624-.019-1.79M433.739 572.43l-.02-1.788M415.75 570.835v-.195l.034-.209.038-.192.066-.194.072-.193.071-.176.107-.156.102-.16.126-.14.124-.123.12-.122.141-.106.125-.088.136-.088.144-.069.122-.07.172-.09.177-.069.177-.052.176-.053.282-.087.313-.07.316-.053.333-.07.351-.054.37-.052.316-.034.334-.037.35-.033.349-.036.316-.017.334-.019.35-.035.335-.017.354-.016h.364l.353-.02.386-.017h2.354l.387.017.363.02h.37l.35.016.354.035.334.017.332.019.336.033.313.036.3.036.281.035.243.033.25.037.227.053.227.051.227.036.213.07.208.053.315.123.352.176.352.245.12.088.124.123.105.105.105.14.123.16.105.173.092.194.067.193.052.175.039.175.016.177v.173" style="fill:none;stroke:red;stroke-width:1.99999;stroke-linecap:round;stroke-linejoin:round;stroke-miterlimit:4;stroke-dasharray:none;stroke-opacity:1;visibility:visible"/><path d="M433.72 572.519h0l.02.121M415.766 572.852l.021-.087.013-.053" style="fill:none;stroke:red;stroke-width:.999997;stroke-linecap:round;stroke-linejoin:round;stroke-miterlimit:4;stroke-dasharray:none;stroke-opacity:1;visibility:visible"/><path d="m433.755 573.677-.019-1.034M415.786 573.87l-.02-1.017" style="fill:none;stroke:red;stroke-width:1.99999;stroke-linecap:round;stroke-linejoin:round;stroke-miterlimit:4;stroke-dasharray:none;stroke-opacity:1;visibility:visible"/><path d="M396.078 503.375h.194l.068.017M396.516 503.375h.228M396.903 503.358h.05l.09.017h.067M397.252 503.358h.179M384.546 502.708h.21M384.932 502.743l.052.017h.196M385.355 502.796h.052l.072.018h.156M385.83 502.848h.124l.069.018h.085M386.319 502.9h.21l.071.018h.034M386.864 502.954h.248l.054.016h.013M395.111 503.375h.25l.05.017M395.622 503.375h.208l.073.017M384.546 502.708l-.26-.034-.25-.036-.209-.035-.176-.036-.157-.035-.124-.034-.106-.036-.069-.035-.035-.017-.02-.035M385.634 502.812v.018M385.83 502.848l-.107-.017h-.088M386.108 502.866v.017M386.319 502.9l-.104-.017h-.105M386.635 502.919v.017M386.864 502.954l-.124-.018h-.105M387.179 502.97h0M395.11 503.375h0M395.111 503.375h-.385l-.406-.017h-.404l-.436-.018-.441-.018-.437-.018-.458-.017-.452-.017-.458-.018-.476-.036-.452-.016-.478-.036-.456-.034-.456-.018-.44-.036-.438-.034-.439-.035-.417-.037M384.756 502.708v.018M384.932 502.743h-.085l-.09-.017M385.355 502.796h-.085l-.092-.018M385.178 502.762v.017M396.516 503.392v-.017M396.516 503.392h-.176M396.903 503.375v-.017M396.903 503.375h-.159M397.252 503.375v-.017M397.252 503.375h-.138M398.288 503.216l-.02.019-.032.015-.072.037-.104.017-.125.018-.136.017h-.177l-.195.017M395.622 503.392v-.017M395.622 503.392h-.21M396.078 503.392v-.017M396.078 503.392h-.176" style="fill:none;stroke:red;stroke-width:.999997;stroke-linecap:round;stroke-linejoin:round;stroke-miterlimit:4;stroke-dasharray:none;stroke-opacity:1;visibility:visible"/><path d="m383.143 502.375.087-1.51M398.288 503.216l.087-1.526M383.231 500.864l.02-.157.013-.159.054-.157.052-.141.056-.14.066-.14.092-.123.104-.123.086-.104.124-.106.104-.088.125-.088.104-.071.105-.052.104-.052.106-.036.104-.035.093-.017.083-.017.106-.02.104-.015.091-.019.283-.034.28-.018h.333l.19-.018h1.106l.248.018h.51l.279.018h.264l.28.017h.3l.315.017.313.018h.318l.316.017.314.019.316.017.319.017.313.018.3.036.316.017.299.016.296.019.299.017.281.035.283.017.26.019.262.034.267.018.243.034.228.019.23.035.21.017.196.017.174.036.159.018.156.034.137.018.144.018.124.036.136.034.144.034.138.054.104.034.126.054.086.034.105.07.123.073.105.085.105.088.123.123.092.123.104.122.07.124.053.14.066.123.04.14.032.157.02.159.015.141v.158" style="fill:none;stroke:red;stroke-width:1.99999;stroke-linecap:round;stroke-linejoin:round;stroke-miterlimit:4;stroke-dasharray:none;stroke-opacity:1;visibility:visible"/><path d="m398.236 503.252.019.035.013.053v.07M383.127 502.567l.017-.053.016-.035.018-.035.021-.017" style="fill:none;stroke:red;stroke-width:.999997;stroke-linecap:round;stroke-linejoin:round;stroke-miterlimit:4;stroke-dasharray:none;stroke-opacity:1;visibility:visible"/><path d="m398.236 504.27.032-.86M383.09 503.444l.034-.877" style="fill:none;stroke:red;stroke-width:1.99999;stroke-linecap:round;stroke-linejoin:round;stroke-miterlimit:4;stroke-dasharray:none;stroke-opacity:1;visibility:visible"/><path d="m376.176 868.12.02 1.14v1.122M171.32 897.62l-.03.019h-.092l-.033.015h-.037M169.27 898.726l.103 4.353.092 4.351.104 4.354.107 4.351M169.954 897.867l-.104.018-.091.034-.085.052-.086.052-.072.072-.051.07-.053.07-.054.069-.037.106-.036.09-.016.104v.123M169.673 916.135v.07l.019.071.033.139.073.107.07.087.105.088.053.033.066.037M171.129 897.657l-.365.07-.406.068-.405.07M168.005 917.031l-.472.034-.476.018h-.47l-.479.019h-.455l-.473-.019-.458-.018-.436-.016-.44-.019-.436-.033-.425-.054-.385-.036-.387-.053-.367-.052-.353-.07-.333-.07-.314-.069-.281-.073-.261-.086-.248-.09M160.056 916.347l-.052-.017-.072-.017-.054-.02-.03-.017-.054-.016-.052-.018M357.416 869.98l.02.019M645.206 955.92h-.016v-.018h-.016M649.558 977.523h0" style="fill:none;stroke:red;stroke-width:.999997;stroke-linecap:round;stroke-linejoin:round;stroke-miterlimit:4;stroke-dasharray:none;stroke-opacity:1;visibility:visible"/><path d="m645.77 956.306-.126-.07-.104-.07-.084-.054-.092-.052-.087-.07-.072-.07M364.243 867.26l-.208-.085-.197-.073-.158-.088-.137-.087-.123-.105-.092-.088-.052-.088-.033-.105-.019-.086M364.611 868.138v-.21l-.02-.107-.013-.087-.039-.088-.032-.07-.02-.069-.052-.071-.035-.052-.05-.051-.052-.038-.054-.034M364.506 869.98l.102-1.841M378.212 866.383h0l-.02.018M378.195 866.4l-.052.106-.087.088-.108.105-.138.106-.18.085-.189.107-.225.088-.251.085-.281.091M376.684 867.26l-.07.019-.068.052-.056.052-.052.052-.052.072-.052.054-.035.085-.032.07-.04.107-.015.087-.017.105-.02.107" style="fill:none;stroke:red;stroke-width:.999997;stroke-linecap:round;stroke-linejoin:round;stroke-miterlimit:4;stroke-dasharray:none;stroke-opacity:1;visibility:visible"/><path d="M365.082 879.053h0M365.082 879.053l.086-.088" style="fill:none;stroke:red;stroke-width:.666665;stroke-linecap:round;stroke-linejoin:round;stroke-miterlimit:4;stroke-dasharray:none;stroke-opacity:1;visibility:visible"/><path d="m434.698 703.85 2.632-.325" style="fill:none;stroke:red;stroke-width:3.99999;stroke-linecap:round;stroke-linejoin:round;stroke-miterlimit:4;stroke-dasharray:none;stroke-opacity:1;visibility:visible"/><path d="M434.688 658.604c-.013 2.324-4.09 4.313-9.112 4.445-5.018.131-9.076-1.649-9.065-3.975l-.128-11.793c-.012 2.326 4.19 4.129 9.212 3.999 5.015-.132 9.097-2.121 9.112-4.445l-.019 11.769" style="fill:none;fill-opacity:1;fill-rule:nonzero;stroke:red;stroke-width:1.33333;visibility:visible"/><path d="M434.688 658.604c-.013 2.324-4.09 4.313-9.112 4.445-5.018.131-9.076-1.649-9.065-3.975l-.128-11.793c-.012 2.326 4.19 4.129 9.212 3.999 5.015-.132 9.097-2.121 9.112-4.445l-.019 11.769" style="fill:none;stroke:red;stroke-width:1.33333;stroke-linecap:butt;stroke-linejoin:miter;stroke-miterlimit:10;stroke-dasharray:none;stroke-opacity:1;visibility:visible"/><path d="M395.06 567.83c-.138 1.638-3.724 2.799-8.002 2.594-4.278-.205-7.632-1.697-7.49-3.334l.535-8.874c-.135 1.636 3.341 3.152 7.619 3.357 4.278.204 7.864-.956 8.001-2.592l-.663 8.849" style="fill:none;fill-opacity:1;fill-rule:nonzero;stroke:red;stroke-width:1.33333;visibility:visible"/><path d="M395.06 567.83c-.138 1.638-3.724 2.799-8.002 2.594-4.278-.205-7.632-1.697-7.49-3.334l.535-8.874c-.135 1.636 3.341 3.152 7.619 3.357 4.278.204 7.864-.956 8.001-2.592l-.663 8.849" style="fill:none;stroke:red;stroke-width:1.33333;stroke-linecap:butt;stroke-linejoin:miter;stroke-miterlimit:10;stroke-dasharray:none;stroke-opacity:1;visibility:visible"/><path d="M189.577 901.487c0 1.347-1.763 2.438-3.944 2.438s-3.945-1.091-3.945-2.438c0-1.35 1.764-2.437 3.945-2.437s3.944 1.088 3.944 2.437" style="fill:none;fill-opacity:1;fill-rule:nonzero;stroke:red;stroke-width:1.33333;visibility:visible"/><path d="m184.926 901.37.4.255.626-.003.29-.244M183.418 901.234l-.445.416M187.677 901.253l.447.417M182.905 901.783v.439M188.186 901.802v.444M183.418 901.234l.074-.054.097-.046.124-.052.143-.042.164-.04.194-.035.203-.03.216-.022.236-.018.241-.018.242-.004h.256l.24.004.247.012.235.017.227.023M186.556 900.93l.2.03.19.028.178.035.15.043.138.04.116.047.086.046.063.054M184.528 902.766l-.234-.024-.222-.035-.212-.034-.192-.035-.168-.048-.158-.047-.126-.046-.11-.052-.092-.052-.064-.06-.034-.053-.012-.06M188.186 902.246l-.013.05-.039.061-.066.051-.086.054-.105.052-.137.046-.156.047-.17.043-.194.04-.212.028-.222.03-.232.026M186.556 902.773l-.248.017-.248.016-.255.007h-.268l-.255-.007-.254-.006-.255-.015-.245-.018M182.905 901.783l.005-.046.023-.042.043-.045M188.122 901.673l.034.04.022.045.01.044" style="fill:none;stroke:red;stroke-width:.666665;stroke-linecap:round;stroke-linejoin:round;stroke-miterlimit:4;stroke-dasharray:none;stroke-opacity:1;visibility:visible"/><path d="M296.533 941.398c0 1.346-1.763 2.438-3.944 2.438-2.18 0-3.946-1.092-3.946-2.438 0-1.348 1.767-2.439 3.947-2.439 2.18.001 3.943 1.091 3.943 2.439" style="fill:none;fill-opacity:1;fill-rule:nonzero;stroke:red;stroke-width:1.33333;visibility:visible"/><path d="m291.882 941.282.4.253.628-.003.29-.242M290.375 941.147l-.445.415M294.633 941.163l.446.42M289.86 941.695v.439M295.143 941.714v.444M290.375 941.147l.072-.052.098-.048.124-.052.141-.043.165-.04.195-.034.203-.03.216-.023.236-.018.24-.017.243-.006h.255l.242.006.245.01.236.02.228.021M293.513 940.842l.2.028.191.032.177.032.149.042.14.042.115.046.085.046.065.053M291.483 942.678l-.233-.026-.223-.034-.21-.034-.194-.036-.166-.046-.16-.047-.125-.047-.111-.052-.091-.052-.065-.06-.035-.052-.01-.058M295.143 942.158l-.013.052-.04.06-.065.052-.086.053-.105.052-.136.047-.158.046-.17.042-.193.041-.212.028-.222.03-.232.024M293.513 942.683l-.248.017-.248.018-.255.006h-.268l-.255-.006-.254-.006-.255-.017-.245-.017M289.86 941.695l.008-.047.022-.04.043-.048M295.08 941.584l.03.042.024.044.01.044" style="fill:none;stroke:red;stroke-width:.666665;stroke-linecap:round;stroke-linejoin:round;stroke-miterlimit:4;stroke-dasharray:none;stroke-opacity:1;visibility:visible"/><path d="M395.744 870.08c0 1.348-1.761 2.44-3.944 2.44-2.18 0-3.945-1.094-3.945-2.44 0-1.346 1.765-2.437 3.945-2.437 2.183-.001 3.944 1.089 3.944 2.438" style="fill:none;fill-opacity:1;fill-rule:nonzero;stroke:red;stroke-width:1.33333;visibility:visible"/><path d="m392.726 869.525.2.028.189.03.177.034.151.042.137.042.116.046.087.046.064.053M390.698 871.36l-.235-.024-.223-.034-.209-.035-.195-.036-.166-.046-.16-.047-.126-.047-.109-.051-.092-.053-.065-.06-.034-.052-.012-.058M394.355 870.84l-.012.054-.039.056-.066.053-.086.055-.105.052-.137.047-.158.046-.168.042-.194.04-.212.029-.222.03-.232.024M392.726 871.366l-.25.017-.248.018-.254.006h-.268l-.256-.006-.254-.006-.254-.017-.244-.017M389.072 870.38l.008-.048.02-.042.044-.047M394.292 870.267l.032.043.024.044.008.043M391.094 869.965l.4.253.628-.003.288-.242M389.588 869.83l-.445.415M393.844 869.846l.447.42M389.072 870.38v.436M394.355 870.395v.445" style="fill:none;stroke:red;stroke-width:.666665;stroke-linecap:round;stroke-linejoin:round;stroke-miterlimit:4;stroke-dasharray:none;stroke-opacity:1;visibility:visible"/><path d="m389.588 869.83.072-.053.098-.047.124-.052.142-.043.164-.04.195-.034.203-.031.216-.021.236-.019.241-.019.241-.004h.256l.242.004.246.012.236.019.227.023" style="fill:none;stroke:red;stroke-width:.666665;stroke-linecap:round;stroke-linejoin:round;stroke-miterlimit:4;stroke-dasharray:none;stroke-opacity:1;visibility:visible"/><path d="M416.066 985.662c0 1.346-1.763 2.437-3.944 2.437-2.182 0-3.946-1.09-3.946-2.437 0-1.35 1.764-2.439 3.946-2.439 2.181 0 3.944 1.09 3.944 2.439" style="fill:none;fill-opacity:1;fill-rule:nonzero;stroke:red;stroke-width:1.33333;visibility:visible"/><path d="m411.416 985.544.4.256.628-.004.29-.244M409.91 985.408l-.447.416M414.166 985.427l.448.419M409.394 985.958v.438M414.678 985.976v.444M409.91 985.408l.072-.053.097-.047.124-.052.143-.041.164-.04.194-.036.204-.03.215-.021.236-.018.241-.02.242-.003h.256l.241.004.245.012.236.017.228.023M413.046 985.104l.201.03.19.029.176.035.151.042.138.04.116.047.086.047.064.053M411.018 986.94l-.234-.024-.222-.034-.212-.035-.192-.035-.168-.046-.158-.048-.126-.048-.11-.051-.092-.052-.064-.06-.034-.052-.012-.059M414.678 986.42l-.014.054-.038.056-.067.054-.085.054-.106.05-.136.047-.158.047-.168.042-.196.04-.211.028-.221.031-.232.024M413.046 986.946l-.248.017-.248.017-.255.007h-.268l-.255-.007-.254-.005-.255-.017-.245-.018M409.394 985.958l.006-.048.023-.04.043-.047M414.614 985.847l.032.04.022.045.01.044" style="fill:none;stroke:red;stroke-width:.666665;stroke-linecap:round;stroke-linejoin:round;stroke-miterlimit:4;stroke-dasharray:none;stroke-opacity:1;visibility:visible"/><path d="M509.092 906.473c0 1.346-1.762 2.437-3.944 2.437s-3.947-1.09-3.947-2.437c0-1.35 1.766-2.44 3.947-2.44s3.944 1.091 3.944 2.441" style="fill:none;fill-opacity:1;fill-rule:nonzero;stroke:red;stroke-width:1.33333;visibility:visible"/><path d="m504.443 906.355.4.255.625-.003.29-.244M502.933 906.22l-.445.414M507.193 906.238l.447.419M502.421 906.77v.439M507.703 906.787v.444M502.933 906.22l.074-.055.097-.046.124-.052.143-.041.164-.04.194-.036.203-.03.216-.021.236-.019.241-.02.242-.001h.256l.241.003.246.012.235.016.227.024M506.072 905.915l.201.03.188.029.179.035.15.041.138.041.116.047.086.047.063.053M504.043 907.751l-.234-.024-.222-.034-.21-.035-.195-.035-.166-.046-.159-.048-.126-.047-.111-.052-.09-.052-.066-.06-.033-.052-.012-.059M507.703 907.231l-.014.054-.038.057-.067.053-.084.055-.107.049-.137.047-.156.047-.17.042-.194.04-.212.028-.221.03-.233.026M506.072 907.758l-.248.017-.25.016-.252.007h-.269l-.253-.008-.256-.004-.254-.016-.246-.02M502.421 906.77l.006-.047.022-.04.043-.048M507.639 906.66l.033.04.023.045.01.044" style="fill:none;stroke:red;stroke-width:.666665;stroke-linecap:round;stroke-linejoin:round;stroke-miterlimit:4;stroke-dasharray:none;stroke-opacity:1;visibility:visible"/><path d="M635.326 947.546c0 1.346-1.76 2.437-3.944 2.437-2.18 0-3.945-1.09-3.945-2.437 0-1.35 1.765-2.439 3.945-2.439 2.183 0 3.944 1.09 3.944 2.439" style="fill:none;fill-opacity:1;fill-rule:nonzero;stroke:red;stroke-width:1.33333;visibility:visible"/><path d="m632.31 948.83-.25.017-.248.016-.255.007h-.267l-.256-.007-.254-.005-.255-.016-.244-.019M628.654 947.842l.007-.047.021-.04.044-.048M633.874 947.731l.032.04.024.045.008.044M630.677 947.427l.4.255.628-.003.29-.244M629.17 947.294l-.445.416M633.426 947.311l.447.419M628.654 947.842v.438M633.937 947.86v.444M629.17 947.294l.072-.052.098-.048.124-.052.142-.042.164-.04.195-.036.203-.029.216-.023.236-.017.24-.019.242-.004h.256l.242.004.246.012.235.018.229.024M632.31 946.987l.2.03.187.028.179.035.15.043.138.04.116.047.086.046.064.054M630.28 948.824l-.235-.024-.223-.033-.209-.036-.195-.035-.166-.046-.159-.047-.127-.048-.109-.052-.092-.052-.065-.06-.034-.051-.012-.06" style="fill:none;stroke:red;stroke-width:.666665;stroke-linecap:round;stroke-linejoin:round;stroke-miterlimit:4;stroke-dasharray:none;stroke-opacity:1;visibility:visible"/><path d="m633.937 948.304-.012.054-.039.057-.066.053-.086.054-.104.05-.138.048-.158.046-.168.042-.194.04-.212.028-.222.031-.232.024" style="fill:none;stroke:red;stroke-width:.666665;stroke-linecap:round;stroke-linejoin:round;stroke-miterlimit:4;stroke-dasharray:none;stroke-opacity:1;visibility:visible"/><path d="m169.272 898.726.35 16.824M433.755 573.765l4.407 440.315" style="fill:none;stroke:red;stroke-width:1.99999;stroke-linecap:round;stroke-linejoin:round;stroke-miterlimit:4;stroke-dasharray:none;stroke-opacity:1;visibility:visible"/><path d="m201.077 905.446.043-.117.054-.1.053-.075.057-.05.054-.027h.054l.052.029.049.054.047.07.043.105M201.583 905.335l.034.118.036.133.025.153.023.166.019.172.002.19.004.19-.004.205-.004.197M200.893 903.367l.547.024M201.44 903.39l.08.017.074.048.076.075.07.099.063.129.067.159M201.87 903.917l.052.172.053.193.047.216.04.23.036.255.023.262.017.282.015.283.006.295.002.3-.004.304-.019.305M199.914 906.2l.028-.298.04-.282.032-.278.048-.265.05-.254.058-.241.063-.222.063-.2.069-.185.071-.161.078-.137.069-.114.08-.086.077-.063.081-.034.069-.014M200.875 906.553l.02-.216.022-.202.035-.193.04-.185.037-.162.047-.148M202.473 906.96l3.646.156" style="fill:none;stroke:red;stroke-width:.666665;stroke-linecap:round;stroke-linejoin:round;stroke-miterlimit:4;stroke-dasharray:none;stroke-opacity:1;visibility:visible"/><path d="m661.16 973.048-10.334-4.572M649.274 953.454v2.976" style="fill:none;stroke:red;stroke-width:1.99999;stroke-linecap:round;stroke-linejoin:round;stroke-miterlimit:4;stroke-dasharray:none;stroke-opacity:1;visibility:visible"/><path d="m636.098 953.462-3.544 1.264M436.862 884.195l-17.707-2.157M419.155 882.038l17.743 5.736M189.577 901.487l4.772 2.504M358.275 870.227l-.948 15.143M415.504 985.928l4.862 6.232M420.61 1014.235l4.24 4.615M449.936 1018.046l-10.738-6.286M443.024 1015.007l-.688-3.807M636.098 953.462l1.912 3.634M633.626 952.918l2.472 4.512M438.634 992.282l1.388-.246M353.906 885.898l10.249-.281" style="fill:none;stroke:red;stroke-width:.999997;stroke-linecap:round;stroke-linejoin:round;stroke-miterlimit:4;stroke-dasharray:none;stroke-opacity:1;visibility:visible"/><path d="m436.862 884.195-17.742-5.704" style="fill:none;stroke:red;stroke-width:1.99999;stroke-linecap:round;stroke-linejoin:round;stroke-miterlimit:4;stroke-dasharray:none;stroke-opacity:1;visibility:visible"/><path d="m419.367 899.656 17.705 5.881M384.812 886.777l-6.302-.651M437.072 905.537l-17.705-5.881M416.468 1016.587l4.124-4.404M443.055 994.791l-5.069-1.72M638.01 954.13l-7.632 4.3M189.577 901.487l2.928 1.82M183.418 901.234l-.793-1.594M438.618 992.282l-.686-1.684M438.634 992.282l7.548-1.334M438.006 998.65l.137 10.234M443.022 1015.008l-4.912-6.124M381.775 870.665l-5.579-.283M358.12 869.84l6.386.14" style="fill:none;stroke:red;stroke-width:.999997;stroke-linecap:round;stroke-linejoin:round;stroke-miterlimit:4;stroke-dasharray:none;stroke-opacity:1;visibility:visible"/><path d="m419.366 708.201 15.332-4.351M418.626 708.289l18.704-4.764" style="fill:none;stroke:red;stroke-width:3.99999;stroke-linecap:round;stroke-linejoin:round;stroke-miterlimit:4;stroke-dasharray:none;stroke-opacity:1;visibility:visible"/><path d="m188.47 901.727 1.107-.24M188.466 901.727l1.111-.24M394.342 870.385l1.402-.305M394.355 870.395l1.389-.314M508.165 907.535l.927-1.062M508.165 907.062l.927-.588M634.184 947.672l1.142-.126M634.185 947.671l1.141-.125" style="fill:none;fill-opacity:1;fill-rule:nonzero;stroke:red;stroke-width:1.33333;visibility:visible"/><path d="m200.893 903.367 5.226 3.749" style="fill:none;stroke:red;stroke-width:.666665;stroke-linecap:round;stroke-linejoin:round;stroke-miterlimit:4;stroke-dasharray:none;stroke-opacity:1;visibility:visible"/><path d="m645.172 955.902 5.654 12.574M638.01 957.096l11.264-3.642" style="fill:none;stroke:red;stroke-width:1.99999;stroke-linecap:round;stroke-linejoin:round;stroke-miterlimit:4;stroke-dasharray:none;stroke-opacity:1;visibility:visible"/><path d="m130.085 514.346-.025-.214-.002-.088-.017-.088-.039-.086-.017-.072-.02-.052-.036-.054-.056-.086-.037-.018-.036-.017-.034.019-.018.036.001.089.001.052.002.055.024.158.002.09.019.106.001.104.023.107M129.82 514.387l-.107.021-.104.002M129.606 514.41l-.025-.214-.015-.088-.024-.088-.018-.088-.016-.07-.022-.052-.034-.054-.058-.086-.037-.018-.053-.017-.015.019-.02.036-.013.088.001.052v.056l.004.158.02.088.003.108.02.106.001.104M130.528 514.282l-.026-.212-.001-.09-.037-.087-.019-.087-.019-.072-.021-.052-.033-.052-.056-.088-.038-.016-.036-.018-.017.019-.015.036.002.087.001.054.001.054.02.158.02.088.003.107.021.107v.105" style="fill:none;stroke:#00ff4a;stroke-width:.999997;stroke-linecap:round;stroke-linejoin:round;stroke-miterlimit:4;stroke-dasharray:none;stroke-opacity:1;visibility:visible" visibility="hidden"/><path d="m130.278 514.323-.086.02-.108.003M130.933 514.22l-.024-.213-.017-.105-.022-.088-.02-.071-.036-.07-.02-.053-.017-.053-.075-.087-.018-.036-.035.002-.019.018-.013.036.001.089.002.053.016.053.024.141.02.106v.088l.02.108.002.122M130.702 514.26l-.086.002-.091.02M117.773 514.824l-.007-.213.019-.107-.001-.088-.004-.07.016-.072-.002-.071-.001-.053-.003-.09-.016-.032-.022-.02-.032.019-.035.019-.035.09-.033.054-.017.052-.032.144-.015.089.003.107-.018.106.003.107M117.54 514.794h-.072l-.071-.014M117.398 514.779l-.006-.213-.002-.088.02-.088-.002-.088.014-.074-.001-.053-.001-.052-.003-.105v-.038l-.017.002h-.036l-.036.037-.032.07-.036.056-.015.053-.035.16-.014.09.002.087-.013.107.003.124M117.186 514.766l-.214-.03-.18-.03-.158-.034-.144-.032-.124-.032-.092-.052-.069-.034-.04-.034-.016-.053" style="fill:none;stroke:#00ff4a;stroke-width:.999997;stroke-linecap:round;stroke-linejoin:round;stroke-miterlimit:4;stroke-dasharray:none;stroke-opacity:1;visibility:visible" visibility="hidden"/><path d="M132.268 513.746v.034l-.05.056-.052.035-.105.056-.123.04-.16.056-.177.04-.193.057-.228.04-.249.06M117.949 514.838l-.088-.016-.09.002M118.394 514.862l-.088-.016-.108.002" style="fill:none;stroke:#00ff4a;stroke-width:.999997;stroke-linecap:round;stroke-linejoin:round;stroke-miterlimit:4;stroke-dasharray:none;stroke-opacity:1;visibility:visible" visibility="hidden"/><path d="m118.197 514.85-.005-.212.017-.091-.003-.104-.001-.073.016-.071-.003-.07-.001-.052-.019-.089-.021-.036-.016-.018-.037.02-.032.036-.052.07-.018.056-.017.052-.03.162-.016.088-.015.089.002.107.002.125M119.724 514.903l-.006-.213-.001-.088.017-.09-.001-.088-.003-.072-.02-.052-.002-.07-.018-.088-.038-.035h-.035l-.035.001-.036.038-.052.089-.017.053-.013.052-.034.144-.013.09-.016.106.001.107.003.105" style="fill:none;stroke:#00ff4a;stroke-width:.999997;stroke-linecap:round;stroke-linejoin:round;stroke-miterlimit:4;stroke-dasharray:none;stroke-opacity:1;visibility:visible" visibility="hidden"/><path d="m119.405 514.892-.105.002-.107.002M119.193 514.898l-.007-.212-.002-.108-.002-.088-.002-.07-.002-.072-.001-.07-.001-.051-.019-.089-.017-.038-.038-.016-.034.019-.035.019-.05.088-.038.056-.013.053-.034.161-.014.088.002.088.002.107.001.124M118.889 514.887l-.104-.017-.107.004M118.677 514.874l-.005-.212-.002-.09-.002-.106.017-.07-.001-.072-.002-.07-.002-.054-.022-.088-.016-.036-.037-.016-.035.019-.033.037-.055.07-.014.054-.018.054-.029.16-.017.09-.016.106.002.108.003.105M128.193 514.566l-.441.044-.444.046-.478.03-.46.029-.48.027-.496.03-.496.03-.494.028-.498.029-.474.011-.498.01-.494.015-.482.009-.46.01-.46-.006-.444.009-.442-.005-.428-.012M123.133 512.076l-.02-.122M125.744 512.122l-2.63-.172M123.116 511.952l-.603.086M122.512 512.038l2.608.169M125.122 512.207l.62-.084M117.276 516.36l-.088-1.593M119.724 514.903l.089 1.593M128.266 516.162l-.073-1.594M130.933 514.22l.072 1.595M129.077 514.475l-.007-.212-.02-.09-.016-.086-.022-.089-.018-.071-.037-.052-.019-.053-.074-.087-.036-.035-.035.002-.035.017-.016.037-.017.088.001.054v.052l.004.142.003.108.021.087.003.107.003.124M128.76 514.518h-.107l-.124.025" style="fill:none;stroke:#00ff4a;stroke-width:.999997;stroke-linecap:round;stroke-linejoin:round;stroke-miterlimit:4;stroke-dasharray:none;stroke-opacity:1;visibility:visible" visibility="hidden"/><path d="m128.529 514.54-.024-.212-.003-.106-.016-.088-.022-.07-.035-.072-.021-.07-.018-.05-.073-.072-.037-.035-.035-.015-.035.018-.036.036-.013.088.001.054-.017.072.021.14.002.09.001.106.021.105.003.108" style="fill:none;stroke:#00ff4a;stroke-width:.999997;stroke-linecap:round;stroke-linejoin:round;stroke-miterlimit:4;stroke-dasharray:none;stroke-opacity:1;visibility:visible" visibility="hidden"/><path d="m116.304 517.252 5.589 114.24.208 4.25 13.7 279.368M132.405 516.544l19.21 397.72M151.616 914.265l.002.105-.05.108-.071.107-.103.11-.14.108-.158.095-.188.11-.231.11-.247.097-.264.095-.3.093-.333.098-.35.097-.356.096-.407.08-.402.08-.425.063-.443.082-.44.063-.477.064-.479.048-.48.045-.492.047-.496.028-.494.03-.498.03-.494.011-.496.012-.482.01-.477-.006-.461-.006-.464-.028-.443-.024-.444-.025-.407-.044-.392-.044-.372-.044-.357-.046-.34-.061-.3-.065-.285-.084-.252-.063-.234-.084-.214-.082-.162-.087-.142-.101-.108-.088-.094-.106-.054-.086-.018-.104M116.304 517.252v-.034M132.404 516.508l.001.019v.016" style="fill:none;stroke:#00ff4a;stroke-width:1.99999;stroke-linecap:round;stroke-linejoin:round;stroke-miterlimit:4;stroke-dasharray:none;stroke-opacity:1;visibility:visible" visibility="hidden"/><path d="m129.377 516.046.053-.02h.054l.072-.003.07-.001.055-.002M129.89 515.98l.054-.02h.073l.068-.002.09-.003M130.349 515.9h.053l.074-.002.069-.002.07-.002M130.773 515.836h.053l.054-.02.073-.002.052-.002M117.276 516.36h.072l.069-.002.053-.002M117.632 516.406l.052-.002.073-.001.052-.001.053-.002M118.022 516.43h.072l.07-.002.069-.001.053-.001M118.466 516.475l.086-.02.072-.003.073-.001.053.017M118.962 516.482l.054-.002h.072l.069-.002.07-.002.037-.001M119.493 516.504l.053-.001.074-.001.086-.002h.055l.053-.002M128.266 516.162h.034l.052-.002.053-.02h.07l.075-.002.052-.002M128.849 516.11l.033-.017.071-.003.072-.002.072-.001.068-.001M117.276 516.36l-.212-.03-.199-.013-.16-.051-.141-.03-.108-.033-.106-.035-.054-.033-.04-.052-.016-.035M118.288 516.426l.001.034M118.466 516.475l-.088-.016-.09.001M118.75 516.468l.002.019M118.962 516.482l-.105.002-.105.003M119.262 516.474v.018M119.493 516.504l-.124.003-.107-.017M119.814 516.496l.002.019M128.267 516.178v-.018M128.266 516.178l-.441.045-.444.027-.461.046-.476.03-.482.029-.494.03-.478.026-.493.029-.499.012-.493.03-.497.013-.483.009-.475.01-.478.014-.46-.009-.444.01-.443-.005-.41-.009M117.472 516.356l.001.035M117.632 516.406l-.088-.016h-.071M118.022 516.43l-.088.003-.072-.017M117.861 516.4v.018M129.893 516l-.003-.02M129.893 515.999l-.107.003-.104.02M130.35 515.935v-.035M130.35 515.935l-.085.001-.09.022M130.776 515.854l-.003-.017M130.776 515.855l-.09.02-.068.019M132.36 515.339l-.02.053-.032.036-.071.055-.107.039-.122.054-.139.04-.175.058-.213.04-.23.058-.249.04M128.849 516.11h0M128.849 516.11l-.125.023-.124.002M129.377 516.065v-.019M129.377 516.064l-.103.002-.106.02" style="fill:none;stroke:#00ff4a;stroke-width:.999997;stroke-linecap:round;stroke-linejoin:round;stroke-miterlimit:4;stroke-dasharray:none;stroke-opacity:1;visibility:visible" visibility="hidden"/><path d="m116.24 516.047-.09-1.612M132.36 515.339l-.091-1.593M116.149 514.435l.015-.16.013-.176.012-.179.05-.16.048-.16.069-.162.086-.144.084-.144.104-.127.103-.11.107-.105.104-.091.104-.094.104-.073.104-.055.104-.056.144-.056.138-.056.124-.057.176-.056.192-.058.198-.04.19-.041.228-.059.251-.04.265-.041.284-.041.229-.024.264-.042.265-.024.264-.041.282-.024.303-.025.301-.024.303-.026.336-.024.336-.026.353-.027.354-.027.354-.008.352-.025.338-.008.354-.024.338-.008.337-.008.337-.009.336-.007.319-.007.317-.006.322.009.301-.007.303.01.298.01.284-.006.267.013.268.011.245.01.252.033.228.011.198.014.192.03.201.014.177.03.175.032.163.032.177.048.179.05.198.084.124.052.124.066.146.086.125.104.11.104.126.102.111.122.09.14.072.123.092.139.058.14.057.159.041.177.039.176.004.176M132.4 516.455l-.036-.92M116.282 517.163l-.037-.92M132.326 515.41v.02l.036.105M116.244 516.242l-.002-.054.019-.054.015-.018" style="fill:none;stroke:#00ff4a;stroke-width:1.99999;stroke-linecap:round;stroke-linejoin:round;stroke-miterlimit:4;stroke-dasharray:none;stroke-opacity:1;visibility:visible" visibility="hidden"/><path d="m687.452 536.079.02-.23v-.109l.018-.104.02-.07.019-.091.017-.069.02-.053.035-.105.021-.036-.001-.019-.019.02-.017.014-.039.089-.016.055-.018.069-.038.14-.038.108-.002.107-.016.105-.002.124M687.556 536.15l.022-.232v-.105l.018-.106.02-.07.018-.091.016-.067.022-.055.034-.104v-.036l.002-.019-.016.018-.02.017-.034.09-.038.051-.018.071-.04.141-.016.107-.02.105-.02.107-.002.123M704.913 536.165l-.019-.23.003-.107-.015-.09-.016-.086-.036-.072-.016-.074-.018-.051-.032-.09-.02-.035-.02.001.019.017.001.035.033.09.019.053.017.071.033.16.019.106-.003.107.018.106-.002.124" style="fill:none;stroke:#9500ff;stroke-width:.999997;stroke-linecap:round;stroke-linejoin:round;stroke-miterlimit:4;stroke-dasharray:none;stroke-opacity:1;visibility:visible" visibility="hidden"/><path d="m687.397 535.988.023-.177.016-.178.02-.142.038-.122.039-.088.016-.071.019-.037.018-.036v-.016l-.018.035-.019.019-.016.088-.04.106-.036.122M687.485 536.095l-.019-.018h-.014M687.414 536.024l-.017-.017v-.018M704.848 535.525l-.016-.089-.035-.09-.017-.05-.016-.037v.017l.016.054.037.071.013.071.036.09.014.124.017.142.016.142M704.932 536.13l-.022.017.002.018" style="fill:none;stroke:#9500ff;stroke-width:.999997;stroke-linecap:round;stroke-linejoin:round;stroke-miterlimit:4;stroke-dasharray:none;stroke-opacity:1;visibility:visible" visibility="hidden"/><path d="m693.788 536.881-.515-.021-.497-.027-.496-.023-.475-.04-.463-.025-.444-.04-.408-.04-.404-.041-.373-.039-.353-.041-.32-.039-.3-.057-.283-.038-.23-.057-.209-.053-.198-.04-.142-.053-.124-.057" style="fill:none;stroke:#9500ff;stroke-width:.666665;stroke-linecap:round;stroke-linejoin:round;stroke-miterlimit:4;stroke-dasharray:none;stroke-opacity:1;visibility:visible" visibility="hidden"/><path d="m694.193 536.887.005-.23.002-.107v-.09l.003-.088.001-.088-.02-.07-.018-.054-.033-.09-.035-.034-.052-.019-.053-.002-.039.035-.052.087-.036.073-.02.053-.036.157v.107l-.021.108-.001.122-.002.126M697.848 536.912l.002-.212.002-.108-.02-.105.003-.09-.017-.07-.017-.07-.035-.057-.052-.105-.036-.036h-.052l-.052.017-.036.017-.037.107-.016.052-.02.07-.02.161-.001.089-.004.123v.105l-.003.124M697.438 536.925h-.156l-.16-.005M697.118 536.921l.003-.23.001-.106-.016-.089v-.09l-.016-.069-.017-.071-.017-.072-.051-.089-.053-.038-.035-.017-.053.02-.038.032-.054.088-.018.07-.02.055-.018.16-.003.104-.017.108v.123l-.003.125M696.692 536.935l-.14-.003-.162-.001M696.392 536.93l.002-.23.003-.105-.017-.107v-.088l-.015-.072-.019-.072-.016-.053-.052-.107-.034-.036h-.051l-.055.016-.037.019-.055.105-.016.053-.02.071-.02.159-.017.087-.001.109-.002.121v.127M695.968 536.925h-.16l-.142-.005M695.665 536.921l-.015-.23.002-.106v-.178l-.014-.09-.016-.07-.02-.052-.05-.09-.035-.037-.052-.016-.053.016-.036.016-.056.088-.016.072-.022.07-.034.143-.003.106v.106l-.02.123-.003.124M695.222 536.916l-.14-.003h-.162M694.92 536.913l.005-.23.001-.106.004-.107v-.089l-.018-.07-.02-.071-.013-.054-.037-.106-.032-.036-.056-.019-.053.016-.033.035-.055.09-.037.05-.018.072-.02.16-.02.105-.001.107-.019.105-.001.126" style="fill:none;stroke:#9500ff;stroke-width:.666665;stroke-linecap:round;stroke-linejoin:round;stroke-miterlimit:4;stroke-dasharray:none;stroke-opacity:1;visibility:visible" visibility="hidden"/><path d="M694.496 536.89h-.14l-.163-.004M704.608 536.339l-.16.05-.195.051-.215.052-.248.05-.285.048-.317.03-.323.052-.373.03-.372.032-.407.03-.425.03-.443.032-.465.029-.475.012-.497.03-.516.01-.515.013-.53-.008" style="fill:none;stroke:#9500ff;stroke-width:.666665;stroke-linecap:round;stroke-linejoin:round;stroke-miterlimit:4;stroke-dasharray:none;stroke-opacity:1;visibility:visible" visibility="hidden"/><path d="m704.838 536.235-.016-.23.002-.107-.015-.089-.015-.089-.038-.07-.016-.074-.016-.051-.035-.09-.036-.036-.016.018.016.035.017.09.018.07.014.053.036.16.016.107.016.108-.004.105v.123M704.769 536.268l-.02.017-.035.018M704.714 536.304l-.017-.23-.013-.107-.016-.089-.02-.088-.015-.07-.016-.071-.037-.057-.032-.088-.035-.034h-.02l-.001.016v.037l.018.087.015.07.019.055.032.16V536l.016.108.018.124-.002.108" style="fill:none;stroke:#9500ff;stroke-width:.999997;stroke-linecap:round;stroke-linejoin:round;stroke-miterlimit:4;stroke-dasharray:none;stroke-opacity:1;visibility:visible" visibility="hidden"/><path d="m693.766 538.619.024-1.739M697.848 536.912l-.024 1.755" style="fill:none;stroke:#9500ff;stroke-width:.666665;stroke-linecap:round;stroke-linejoin:round;stroke-miterlimit:4;stroke-dasharray:none;stroke-opacity:1;visibility:visible" visibility="hidden"/><path d="m694.034 533.87.003-.09M698.416 533.852l-4.376-.07M694.038 533.781l-.073.089M693.968 533.87l4.374.07M698.342 533.94l.075-.088" style="fill:none;stroke:#9500ff;stroke-width:.999997;stroke-linecap:round;stroke-linejoin:round;stroke-miterlimit:4;stroke-dasharray:none;stroke-opacity:1;visibility:visible" visibility="hidden"/><path d="m699.053 970.044-.021.124-.054.107-.07.123-.125.121-.146.107-.193.104-.216.12-.234.104-.284.085-.3.103-.324.085-.353.084-.39.084-.392.065-.426.067-.445.065-.48.048-.478.047-.481.03-.512.047-.513.011-.536.028-.53-.005-.53.01-.535-.005-.548-.025-.53-.008-.533-.039-.531-.024-.514-.043-.495-.06-.496-.058-.494-.059-.464-.077-.44-.076-.424-.075-.408-.095-.388-.092-.356-.094-.335-.092M683.529 970.884l-.263-.109-.265-.092-.228-.11-.215-.089-.174-.111-.159-.105-.121-.108-.106-.126-.068-.108-.037-.108-.015-.106M704.876 539.124l-.002.019.02.017M687.36 539.02v-.019l.002-.016M681.988 960.654l.001-.072.02-.068v-.09l.003-.107v-.177l.018-.212.003-.124.001-.122v-.144l.003-.142M682.038 959.396l.003-.124.003-.16.001-.124.001-.14-.016-.25.003-.247.001-.125.002-.124.001-.123.001-.125M681.988 960.654l-.11 9.056M687.36 539.02l-5.32 418.834" style="fill:none;stroke:#9500ff;stroke-width:1.99999;stroke-linecap:round;stroke-linejoin:round;stroke-miterlimit:4;stroke-dasharray:none;stroke-opacity:1;visibility:visible" visibility="hidden"/><path d="m704.892 539.161-1.694 124.059-.03 2.446-4.118 304.381M704.909 537.867l.023-1.738M704.909 537.867l-.019.017v.019M704.748 538.007v-.035M704.748 538.007l-.035.017-.02.017M704.854 537.937v-.034M704.854 537.937l-.018.018-.016.017M704.913 535.97l.003.034.017.019-.001.034v.073M704.913 535.97l.003-.09-.02-.07.003-.07-.017-.073-.014-.07-.02-.073M687.378 537.69h0l-.002.054M687.378 537.69l.022-1.734M687.457 535.493l-.02.071-.016.07-.001.072v.07l-.02.09-.003.086M687.394 537.761h.036l-.004.055M687.465 537.833h.035l.037.02-.001.034" style="fill:none;stroke:#9500ff;stroke-width:1.99999;stroke-linecap:round;stroke-linejoin:round;stroke-miterlimit:4;stroke-dasharray:none;stroke-opacity:1;visibility:visible" visibility="hidden"/><path d="m704.585 538.093-.16.052-.196.032-.213.053-.267.05-.264.049-.319.029-.338.051-.356.029-.372.032-.41.049-.425.03-.441.012-.482.031-.478.03-.48.009-.514.013-.514.012-.531.01M694.176 538.623h0M694.474 538.644l-.14-.001-.162-.02M695.2 538.655l-.14-.003-.162-.001" style="fill:none;stroke:#9500ff;stroke-width:.666665;stroke-linecap:round;stroke-linejoin:round;stroke-miterlimit:4;stroke-dasharray:none;stroke-opacity:1;visibility:visible" visibility="hidden"/><path d="m704.585 538.093.001-.053" style="fill:none;stroke:#9500ff;stroke-width:1.99999;stroke-linecap:round;stroke-linejoin:round;stroke-miterlimit:4;stroke-dasharray:none;stroke-opacity:1;visibility:visible" visibility="hidden"/><path d="m693.766 538.619-.513-.024-.497-.023-.496-.025-.476-.023-.464-.041-.442-.04-.408-.023-.405-.04-.373-.04-.354-.059-.32-.038-.298-.04-.283-.056-.232-.057-.21-.038-.198-.055-.137-.056-.127-.054M695.945 538.663l-.159-.003h-.16M696.673 538.67h-.141l-.162-.003M697.398 538.663l-.14.016-.162-.003" style="fill:none;stroke:#9500ff;stroke-width:.666665;stroke-linecap:round;stroke-linejoin:round;stroke-miterlimit:4;stroke-dasharray:none;stroke-opacity:1;visibility:visible" visibility="hidden"/><path d="M704.588 538.04h.052l.053.001M704.748 537.97h.034l.039.003M687.394 537.761l-.02-.017M687.465 537.833h-.019l-.016-.018" style="fill:none;stroke:#9500ff;stroke-width:1.99999;stroke-linecap:round;stroke-linejoin:round;stroke-miterlimit:4;stroke-dasharray:none;stroke-opacity:1;visibility:visible" visibility="hidden"/><path d="M693.766 538.619h.052l.074-.016h.068l.09.002h.07l.037.017h.019M694.474 538.644l.052-.017.074.001h.069l.09.003.071.001.054.016.016.002M695.2 538.655h.055l.051-.016h.09l.07.001.09.001.054.019h.015M695.945 538.663h.033l.055-.018.07.002h.092l.087.002.054.018.034.001M696.673 538.67l.033-.016.055.001h.069l.093.001.069.001h.072l.033.02M697.398 538.663h.035l.039-.018.068.002h.09l.088.002h.071l.035.021" style="fill:none;stroke:#9500ff;stroke-width:.666665;stroke-linecap:round;stroke-linejoin:round;stroke-miterlimit:4;stroke-dasharray:none;stroke-opacity:1;visibility:visible" visibility="hidden"/><path d="m704.892 539.072.013-1.012M687.362 538.932l.012-.992M704.854 537.901l.02.054.032.105M687.373 537.939l.003-.089.034-.051.02-.036M687.457 535.493l.055-.176.056-.177.089-.176.093-.159.09-.158.106-.123.128-.14.127-.104.123-.107.124-.086.128-.087.104-.052.128-.068.122-.053.11-.034.106-.052.175-.051.179-.05.16-.036.177-.032.267-.05.269-.049.283-.033.32-.03.321-.034.336-.029.353-.03.3-.017.304-.032.32-.013.318-.015.337-.013.319.003.356-.013.337-.013.37.004.372-.013.391.005.374.004.392.004.369.005.372.007.375.003.353.021.372.006.352.021.336.022.339.003.336.021.318.023.32.04.3.021.283.022.305.037.264.021.264.04.25.039.245.039.213.054.266.057.266.057.246.09.196.074.19.073.198.127.208.144.104.09.108.091.124.107.102.125.104.143.09.161.084.16.069.178.05.197M704.854 537.901h.036" style="fill:none;stroke:#9500ff;stroke-width:1.99999;stroke-linecap:round;stroke-linejoin:round;stroke-miterlimit:4;stroke-dasharray:none;stroke-opacity:1;visibility:visible" visibility="hidden"/></svg>