<svg xmlns="http://www.w3.org/2000/svg" baseProfile="full" height="1122.52" preserveAspectRatio="xMinYMin meet" style="width:912px;height:1303px" width="793.701" xml:space="preserve"><path d="m620.364 859.013-.016.203-.033.188-.087.186-.115.186-.138.188-.187.186-.204.186-.239.188-.27.169-.29.187-.337.169-.357.17-.391.17-.41.17-.44.151-.475.155-.49.153-.529.151-.56.153-.56.138-.612.136-.61.117-.645.136-.662.12-.679.101M140.667 806.894l-.341-.136-.322-.136-.289-.136-.25-.152-.242-.135-.22-.154-.188-.135-.152-.153-.119-.154-.101-.152-.083-.153-.037-.152-.017-.153M388.433 896.03l.101 7.453M376.017 893.612l-235.35-86.718M408.255 895.021l-.747.119-.764.101-.781.103-.793.101-.819.085-.815.084-.832.068-.849.068-.85.051-.865.052-.849.05-.883.034-.862.017-.882.018-.87.018h-2.627l-.87-.018-.863-.035-.851-.033-.864-.035-.83-.05-.833-.069-.818-.05-.815-.086-.799-.065-.78-.087-.764-.102-.744-.102-.729-.1-.713-.121-.699-.119-.663-.118-.64-.136-.633-.136-.61-.135-.58-.153-.542-.154-.543-.15-.49-.17-.478-.154M611.028 863.07l-202.773 31.95M384.114 867.417l-8.167-2.887" style="fill:none;stroke:red;stroke-width:.999997;stroke-linecap:round;stroke-linejoin:round;stroke-miterlimit:4;stroke-dasharray:none;stroke-opacity:1;visibility:visible"/><path d="m372.52 863.308-107.226-37.995" style="fill:none;stroke:red;stroke-width:1.99999;stroke-linecap:round;stroke-linejoin:round;stroke-miterlimit:4;stroke-dasharray:none;stroke-opacity:1;visibility:visible"/><path d="m148.34 786.47-.103.017-.1.034-.086.033-.083.053-.07.067-.067.05-.068.086-.052.068-.034.084-.032.103-.018.101-.018.104M154.094 785.928h0M153.908 785.792l-.237-.019M148.017 804.195v.085l.02.068.05.135.049.103.085.101.101.087.068.033.068.033" style="fill:none;stroke:red;stroke-width:.999997;stroke-linecap:round;stroke-linejoin:round;stroke-miterlimit:4;stroke-dasharray:none;stroke-opacity:1;visibility:visible"/><path d="m147.61 787.269-.03-.017v-.016M148.323 786.47h0M148.34 786.47h0M153.568 785.775h.103M148.017 804.195l-.03-.017-.02-.015M148.459 804.84h0M356.646 763.739l.02.152M357.784 778.56h-.052M357.75 778.56h.033M590.265 835.687l.019 2.156M593.575 836.705l-3.307-1.019M593.575 837.146v-.441M359.039 779.408l-.2-14.99M356.867 778.73l2.172.679M356.187 763.604v.356M358.836 764.419l-2.647-.815" style="fill:none;stroke:red;stroke-width:.999997;stroke-linecap:round;stroke-linejoin:round;stroke-miterlimit:4;stroke-dasharray:none;stroke-opacity:1;visibility:visible"/><path d="m470.747 794.79-70.674-21.63" style="fill:none;stroke:red;stroke-width:1.99999;stroke-linecap:round;stroke-linejoin:round;stroke-miterlimit:4;stroke-dasharray:none;stroke-opacity:1;visibility:visible"/><path d="m356.646 763.739.02.152M355.101 759.342h-.2M354.898 759.342h-.084M349.957 759.988h-.017M349.923 759.988h0M349.26 760.75l-.05-.017v-.015M251.17 781.225l.017.153.051.152.05.136.085.119.102.103.119.068.117.05.138.019H252l.138-.036.134-.05.118-.086.12-.1.083-.137.087-.136.05-.152.034-.154.017-.152-.017-.154-.034-.152-.068-.136-.081-.119-.105-.1-.116-.07-.122-.05-.137-.017h-.132l-.156.033-.136.052-.117.084-.12.103-.08.136-.09.134-.05.154-.034.153-.017.152M295.541 775.117l.02.152.048.153.052.136.083.12.104.102.117.068.12.05.136.018h.152l.14-.036.132-.051.119-.084.118-.101.086-.136.085-.138.05-.15.034-.154.017-.153-.017-.153-.033-.152-.068-.136-.083-.119-.105-.101-.115-.068-.12-.051-.137-.017h-.134l-.156.033-.134.052-.12.084-.119.103-.081.136-.09.133-.049.155-.032.153-.02.152M205.904 786.96l.021.15.047.155.052.136.083.119.102.101.119.068.12.051.137.017h.151l.14-.034.132-.051.119-.084.118-.101.086-.138.084-.136.052-.153.033-.152.016-.152-.016-.155-.033-.152-.068-.134-.083-.119-.105-.103-.116-.068-.119-.05-.139-.016h-.132l-.156.032-.136.053-.118.084-.12.101-.08.136-.09.135-.05.153-.03.154-.021.153M188.354 797.998l16.11-2.173 5.535-.746 84.21-11.308 5.36-.713 37.471-5.041M344.797 760.598l-44.633 5.857-7.299.967-82.318 10.815-7.523.985-47.365 6.23.032.967M329.058 763.382l.221 14.973M333.422 762.805l-4.361.577M333.422 763.162v-.359M329.28 778.356l3.564-.492M172.617 792.413l-.188-8.437M167.813 784.587v.39M172.43 783.976l-4.617.61" style="fill:none;stroke:red;stroke-width:.999997;stroke-linecap:round;stroke-linejoin:round;stroke-miterlimit:4;stroke-dasharray:none;stroke-opacity:1;visibility:visible"/><path d="m155.063 783.262 45.09-5.908 97.703-12.801 43.41-5.687" style="fill:none;stroke:red;stroke-width:1.99999;stroke-linecap:round;stroke-linejoin:round;stroke-miterlimit:4;stroke-dasharray:none;stroke-opacity:1;visibility:visible"/><path d="m344.27 759.8-.357-.05-.338-.069M155.656 785.317h0M329.28 778.22l2.817-.373M333.15 763.076v-.237M155.64 785.096h0M341.265 758.867l-.052-.017M341.164 758.883h0M155.656 785.452h-.372l-.087-.017-.05-.018-.032-.017M344.797 760.598l.068-.019h.05l.034-.014.017-.036M344.27 759.8l.017-.017h.032M341.265 758.867h.083l.086.033.07.035.049.07M341.213 758.85h0M333.15 763.076v-.17M333.15 762.907v-.068M332.776 762.958v-.068M605.94 841.833l-204.415 31.323M401.728 892.237l204.231-32.02M401.992 891.575v.187l-.019.085v.068l-.013.068-.02.05-.032.102-.019.033-.034.035-.034.017-.03.018M601.758 839.066l-.103-.019M601.588 839.083h0M605.577 840.236h.052M606.376 841.085l-.017.033-.034.018-.05.017-.07.017M601.758 839.066h.101l.088.032.083.07M401.397 891.54l.085.033h.086l.101.018h.22l.103-.018M605.765 860.235h0M601.656 839.049h0M401.787 892.237h0" style="fill:none;stroke:red;stroke-width:.999997;stroke-linecap:round;stroke-linejoin:round;stroke-miterlimit:4;stroke-dasharray:none;stroke-opacity:1;visibility:visible"/><path d="M618.14 565.805v2.597" style="fill:none;stroke:red;stroke-width:1.99999;stroke-linecap:round;stroke-linejoin:round;stroke-miterlimit:4;stroke-dasharray:none;stroke-opacity:1;visibility:visible"/><path d="M343.71 518.881v-.272l-.03-.272-.053-.255-.068-.27-.069-.255-.085-.256-.116-.236-.106-.256-.136-.237-.136-.238-.134-.221-.151-.22-.156-.204-.17-.204-.17-.204-.168-.203-.188-.186-.17-.171-.187-.17-.17-.17-.182-.152-.19-.153-.188-.152-.184-.136-.188-.119-.17-.119-.186-.102-.168-.084-.169-.086-.172-.085-.155-.05-.152-.051-.132-.035-.14-.016-.133-.017h-.139M343.676 519.543l.019-.119v-.102l.014-.102v-.34M343.777 519.526l-.017.017h-.084M339.55 523.974l.205-.017.207-.051.22-.068.22-.101.22-.086.201-.118.222-.136.202-.154.188-.134.203-.154.188-.17.19-.17.17-.186.17-.204.166-.187.168-.22.157-.237.151-.239.15-.255.14-.272.12-.305.115-.305.086-.323.069-.339M149.443 539.627v-.153l-.017-.152-.014-.171-.02-.17-.032-.203-.036-.187-.032-.237-.037-.238-.033-.238-.031-.271-.037-.255-.034-.288-.034-.256-.012-.27-.022-.272-.016-.272v-.968l.016-.203M339.55 523.974h0" style="fill:none;stroke:red;stroke-width:.999997;stroke-linecap:round;stroke-linejoin:round;stroke-miterlimit:4;stroke-dasharray:none;stroke-opacity:1;visibility:visible"/><path d="m149.052 534.823.021-.272.012-.288.019-.272.016-.272.033-.272.019-.288.033-.272.016-.272.022-.27.012-.255v-.56M608.465 569.914l-.019.017h-.085" style="fill:none;stroke:red;stroke-width:.999997;stroke-linecap:round;stroke-linejoin:round;stroke-miterlimit:4;stroke-dasharray:none;stroke-opacity:1;visibility:visible"/><path d="m603.575 574.463.239-.033.253-.051.204-.068.22-.068.223-.103.202-.101.222-.101.22-.138.204-.134.22-.154.208-.153.218-.17.203-.169.188-.186.201-.204.19-.204.184-.22.169-.222.17-.22.153-.238.157-.255.132-.253.119-.272.118-.272.102-.272.068-.271M608.361 569.93l.07-.29.05-.287.019-.288.014-.29M608.515 568.776v-.255l-.03-.254-.038-.238-.033-.254-.068-.238-.068-.237-.086-.239-.098-.237-.09-.22-.101-.204-.117-.204-.12-.204-.12-.204-.135-.204-.27-.373-.27-.339-.272-.305-.29-.307-.307-.288-.303-.272-.29-.255-.306-.237-.307-.204-.169-.119-.17-.101-.153-.085-.169-.102-.15-.085-.17-.068-.156-.068-.152-.068-.17-.05-.153-.051-.152-.051-.154-.035-.152-.017-.132-.017h-.14l-.119.017M502.359 579.54v-.492l.017-.221.035-.238.017-.204.032-.202.038-.188.05-.187.05-.204.066-.203.086-.204.082-.204M502.833 576.993l.085-.153.086-.136.084-.135.104-.136.102-.12.1-.119.12-.101.122-.103.113-.084.137-.085.139-.084.133-.052.152-.068.156-.033.151-.035.17-.016.17-.017h.17l.171.017.171.016.183.035.17.033.17.052.186.068.174.067.169.085.17.085.169.102.152.102.152.102.152.118.156.136M507.468 576.535l.153.152.152.17M507.774 576.857l.17.22.135.239.136.254.102.255.086.272.05.27.033.273.019.27M508.505 578.911v.204l-.019.204-.033.187-.032.186-.036.154-.068.169-.05.152-.067.17-.086.153-.084.17-.116.17-.122.169M507.485 581.339l-.136.136-.152.136-.153.119-.17.118-.153.119-.17.101-.169.103-.169.084-.17.087-.187.066-.171.068-.184.052-.17.051-.171.033-.171.034-.17.017-.169.017h-.304l-.154-.017-.134-.033-.138-.035-.134-.033-.118-.051-.122-.068-.118-.068-.103-.068-.099-.085-.102-.084-.086-.103-.102-.101-.068-.119" style="fill:none;stroke:red;stroke-width:.999997;stroke-linecap:round;stroke-linejoin:round;stroke-miterlimit:4;stroke-dasharray:none;stroke-opacity:1;visibility:visible"/><path d="m502.868 581.814-.07-.101-.067-.119-.05-.119-.052-.12-.05-.134-.034-.12-.034-.152-.034-.136-.03-.154-.02-.152-.016-.153-.015-.153-.021-.17-.016-.152v-.34M398.07 593.817v-.017" style="fill:none;stroke:red;stroke-width:.999997;stroke-linecap:round;stroke-linejoin:round;stroke-miterlimit:4;stroke-dasharray:none;stroke-opacity:1;visibility:visible"/><path d="M397.832 589.267v-.305l.019-.29.014-.305.018-.305.017-.29.017-.321.016-.307.018-.305.02-.288v-.288l.013-.239v-.237" style="fill:none;stroke:red;stroke-width:1.99999;stroke-linecap:round;stroke-linejoin:round;stroke-miterlimit:4;stroke-dasharray:none;stroke-opacity:1;visibility:visible"/><path d="M603.575 574.463h-.017" style="fill:none;stroke:red;stroke-width:.999997;stroke-linecap:round;stroke-linejoin:round;stroke-miterlimit:4;stroke-dasharray:none;stroke-opacity:1;visibility:visible"/><path d="M398.07 593.8v-.204l-.017-.22-.014-.237-.021-.255-.032-.255-.017-.272-.036-.288-.015-.289-.036-.288-.013-.29-.02-.271-.018-.306v-.288l-.013-.306v-.306l.013-.22v-.237M352.776 515.876l.05 3.276" style="fill:none;stroke:red;stroke-width:1.99999;stroke-linecap:round;stroke-linejoin:round;stroke-miterlimit:4;stroke-dasharray:none;stroke-opacity:1;visibility:visible"/><path d="m394.25 462.518-.017-.239-.014-.101-.02-.101-.017-.086-.015-.068-.037-.068-.016-.05-.064-.102-.037-.017-.052-.017-.016.017-.016.033-.018.103v.119l.018.153v.101l.016.119v.237M394.453 462.484l-.101.017-.099.018M394.725 462.45l-.017-.22-.014-.119-.02-.085-.018-.085-.014-.084-.036-.068-.032-.052-.052-.084-.036-.035-.033-.017-.033.017-.016.052v.203l.016.17.017.102v.101l.016.12v.117" style="fill:none;stroke:red;stroke-width:.999997;stroke-linecap:round;stroke-linejoin:round;stroke-miterlimit:4;stroke-dasharray:none;stroke-opacity:1;visibility:visible"/><path d="m394.911 462.416-.101.017-.086.016M395.15 462.382l-.017-.221-.014-.118-.02-.085-.018-.085-.014-.086-.036-.068-.032-.05-.05-.086-.038-.033h-.033l-.016.017-.017.034v.153l.017.068.016.152v.103l.02.101v.12l.013.117" style="fill:none;stroke:red;stroke-width:.999997;stroke-linecap:round;stroke-linejoin:round;stroke-miterlimit:4;stroke-dasharray:none;stroke-opacity:1;visibility:visible"/><path d="m395.32 462.348-.084.017-.087.016M395.523 462.314l-.019-.237-.012-.102-.021-.085-.016-.085-.015-.084-.037-.068-.016-.052-.065-.084-.036-.035h-.015l-.037.017v.119l.017.068v.068l.02.153.015.102.016.102v.118l.02.12" style="fill:none;stroke:red;stroke-width:.999997;stroke-linecap:round;stroke-linejoin:round;stroke-miterlimit:4;stroke-dasharray:none;stroke-opacity:1;visibility:visible"/><path d="m396.593 461.856-.019.05-.05.069-.083.052-.121.066-.15.051-.189.05-.2.051-.259.068M380.737 462.569l-.272-.05-.255-.035-.221-.051-.203-.05-.153-.051-.15-.052-.106-.051-.084-.05-.03-.051-.02-.051M380.99 462.603v-.237l.019-.103v-.101l.014-.086v-.068l.018-.068v-.169l-.018-.033-.033-.018-.03.018-.038.016-.05.085-.018.068-.035.05-.032.17-.017.085-.019.119v.119l-.012.12M381.177 462.62l-.101-.017h-.086M381.449 462.653l.019-.22v-.221l.016-.086v-.288l-.016-.05-.036-.018-.034.018-.032.033-.053.085-.035.051-.016.068-.052.153-.012.102v.101l-.021.12v.119M381.653 462.67l-.103-.017h-.098M381.958 462.704v-.237l.019-.102v-.188l.014-.066v-.136l-.014-.103-.019-.035-.03-.016-.053.016-.036.035-.05.085-.031.051-.021.068-.031.152-.019.103-.017.101v.12l-.016.119M382.18 462.721l-.101-.017h-.12" style="fill:none;stroke:red;stroke-width:.999997;stroke-linecap:round;stroke-linejoin:round;stroke-miterlimit:4;stroke-dasharray:none;stroke-opacity:1;visibility:visible"/><path d="M382.518 462.738v-.51l.02-.083v-.068l-.02-.051-.016-.103-.015-.033-.037-.017h-.05l-.031.033-.051.085-.037.068-.014.051-.054.17v.102l-.018.101-.016.119v.119M382.758 462.755h-.12l-.12-.017" style="fill:none;stroke:red;stroke-width:.999997;stroke-linecap:round;stroke-linejoin:round;stroke-miterlimit:4;stroke-dasharray:none;stroke-opacity:1;visibility:visible"/><path d="M383.096 462.79v-.237l.019-.103v-.339l-.019-.052-.019-.101-.033-.033-.03-.018-.038.018-.05.033-.051.085-.031.051-.02.068-.033.152-.018.103-.016.101v.237M383.351 462.79h-.252M383.724 462.806v-.663l-.017-.05-.014-.102-.037-.034-.033-.016-.051.016-.035.034-.065.086-.019.05-.034.068-.034.152-.018.102v.102l-.014.119v.119M392.823 462.653l-.44.033-.476.035-.475.033-.492.035-.51.017-.51.016-.524.018-.528.017-.525.017h-2.65l-.507-.017h-.494l-.492-.017-.474-.034M393.164 462.62v-.22l-.019-.103-.012-.101-.021-.085-.03-.068-.02-.068-.034-.068-.052-.086-.05-.033h-.034l-.033.017-.036.034-.016.085v.39l.016.102v.237" style="fill:none;stroke:red;stroke-width:.999997;stroke-linecap:round;stroke-linejoin:round;stroke-miterlimit:4;stroke-dasharray:none;stroke-opacity:1;visibility:visible"/><path d="m393.4 462.603-.119.017h-.118M393.724 462.569v-.22l-.019-.103-.012-.101-.02-.085-.032-.086-.018-.068-.035-.05-.064-.086-.039-.033-.033-.017-.033.017-.035.05-.017.086v.119l.017.169v.101l.017.103v.237M395.523 462.314l.017 1.732M392.84 464.368l-.019-1.715M383.724 462.806l.02 1.732M380.77 464.3l-.03-1.732M389.122 459.971l.612-.068M386.034 459.7l3.088.272M386.643 459.631l-.61.068M389.734 459.903l-3.09-.272M386.643 459.75v-.119" style="fill:none;stroke:red;stroke-width:.999997;stroke-linecap:round;stroke-linejoin:round;stroke-miterlimit:4;stroke-dasharray:none;stroke-opacity:1;visibility:visible"/><path d="M601.503 444.913v-.22l.019-.103.016-.101.016-.068.017-.085.017-.068.018-.051.016-.084.02-.052-.02-.017v.017l-.016.033-.052.07-.016.05-.016.068-.036.136-.014.102-.02.101-.017.103v.118M601.402 444.845l.019-.22v-.103l.014-.101.018-.068.017-.085.017-.068.016-.051.038-.085.013-.051v-.017l-.013.017-.02.033-.034.068-.017.052-.017.068-.032.136-.019.102-.017.101v.103l-.015.118" style="fill:none;stroke:red;stroke-width:1.99999;stroke-linecap:round;stroke-linejoin:round;stroke-miterlimit:4;stroke-dasharray:none;stroke-opacity:1;visibility:visible"/><path d="m601.385 444.488.019-.101.014-.12.035-.084.017-.068.016-.051.018-.068.02-.035.014-.016v-.017.017h-.014l-.02.051-.018.05-.016.069" style="fill:none;stroke:red;stroke-width:1.99999;stroke-linecap:round;stroke-linejoin:round;stroke-miterlimit:4;stroke-dasharray:none;stroke-opacity:1;visibility:visible"/><path d="M618.038 444.726v-.221l-.016-.102-.015-.084-.02-.085-.017-.068-.015-.068-.034-.05-.034-.086-.018-.017v-.016.05l.033.084.019.07.016.05.033.152.017.103.02.101v.222M618.057 444.692v.017l-.019.016" style="fill:none;stroke:red;stroke-width:.999997;stroke-linecap:round;stroke-linejoin:round;stroke-miterlimit:4;stroke-dasharray:none;stroke-opacity:1;visibility:visible"/><path d="m618.038 444.319-.03-.153-.038-.119-.033-.085-.016-.051-.019-.033v-.018.018l.019.033.016.068.033.085.037.119.015.136.037.17v.203M601.367 444.794v-.033M601.435 444.862l-.017-.017h-.014M607.361 445.524l-.493-.017h-.476l-.456-.034-.46-.017-.422-.016-.428-.035-.39-.034-.372-.034-.358-.033-.34-.035-.305-.033-.27-.052-.257-.033-.22-.051-.204-.05-.169-.053-.132-.033-.105-.05" style="fill:none;stroke:red;stroke-width:.999997;stroke-linecap:round;stroke-linejoin:round;stroke-miterlimit:4;stroke-dasharray:none;stroke-opacity:1;visibility:visible"/><path d="M607.75 445.541v-.492l-.017-.085v-.068l-.014-.051-.052-.084-.018-.052h-.102l-.036.035-.065.084-.017.05-.019.068-.033.154v.102l-.016.102v.22M608.04 445.541h-.29M608.447 445.541l-.019-.204v-.288l-.012-.068v-.068l-.021-.05-.05-.102-.034-.035-.052-.017-.05.017-.034.035-.05.084-.018.05-.017.069-.034.153v.101l-.017.102v.221M608.736 445.541h-.29M609.143 445.558l-.016-.22v-.29l-.015-.067-.018-.068-.019-.051-.05-.101-.033-.035h-.086l-.052.035-.05.084-.018.068-.014.05-.02.154-.016.102v.322M609.432 445.558h-.29M609.84 445.541v-.204l-.017-.101v-.187l-.014-.068-.02-.068-.017-.05-.05-.102-.033-.035h-.1l-.038.035-.051.084-.016.068-.016.05-.019.154-.017.101v.34M610.127 445.541h-.288M610.536 445.541v-.323l-.019-.085-.012-.084v-.085l-.021-.051-.016-.068-.068-.084-.033-.035-.052-.017-.051.017-.033.035-.036.084-.016.05-.016.069-.018.153-.018.101v.323M610.824 445.541h-.288M611.231 445.524v-.22l-.017-.103v-.085l-.014-.084-.02-.068-.017-.068-.015-.05-.053-.102-.052-.035h-.083l-.034.035-.052.084-.014.068v.068l-.02.136-.017.101v.34M617.734 444.896l-.152.05-.188.053-.22.05-.253.051-.27.033-.29.051-.322.035-.36.05-.357.035-.39.033-.425.035-.422.033-.44.018-.46.033-.478.017-.474.018-.491.016-.51.017M617.835 444.862l-.017-.22v-.103l-.014-.085-.037-.084-.015-.068-.018-.068-.019-.05-.05-.086-.018-.017-.012-.018-.021.018v.033l.021.085.012.068.019.052.033.152.016.103v.101l.019.103v.117M617.903 444.828l-.03.017-.038.016M617.97 444.794l-.017-.22v-.103l-.032-.085-.019-.085-.015-.067-.018-.068-.018-.052-.05-.084-.019-.017-.012-.018v.018l.012.034.019.086.018.066.015.051.017.153.018.102.018.102.015.102v.118M611.231 445.524v1.664M607.361 447.187v-1.664M611.757 442.689l.07-.084M607.598 442.672l4.159.017M607.666 442.587l-.068.084M611.826 442.604l-4.16-.017M607.666 442.672v-.084M470.8 795.35l.101.017.119.016.139.018h.133l.152.017h.17M474.297 795.69l-.019.05-.049.069-.07.05-.1.051-.135.068-.155.05-.185.035-.203.051-.239.035-.238.033-.254.036-.269.015-.29.017-.291.017h-.864l-.288-.017-.27-.017-.258-.034-.236-.034-.239-.034-.204-.033-.187-.052-.152-.05-.136-.051-.102-.052-.068-.051-.051-.068-.019-.05" style="fill:none;stroke:red;stroke-width:.999997;stroke-linecap:round;stroke-linejoin:round;stroke-miterlimit:4;stroke-dasharray:none;stroke-opacity:1;visibility:visible"/><path d="m473.752 795.113.052.05v.069l-.019.052-.05.049-.084.05-.099.051-.139.051-.153.036-.188.05-.203.033-.221.036-.237.014-.254.019-.256.017-.253.016h-.528l-.272-.016-.235-.017-.238-.019-.222-.032-.204-.034-.186-.034-.17-.05-.136-.052-.101-.034-.084-.052-.05-.066-.02-.051.02-.052.031-.052M472.224 795.113l-.101-.019-.136-.014-.134-.018-.137-.018h-.301" style="fill:none;stroke:red;stroke-width:.999997;stroke-linecap:round;stroke-linejoin:round;stroke-miterlimit:4;stroke-dasharray:none;stroke-opacity:1;visibility:visible"/><path d="m472.326 795.299.033-.032.035-.036-.017-.035-.018-.016-.064-.034-.072-.034" style="fill:none;stroke:red;stroke-width:.999997;stroke-linecap:round;stroke-linejoin:round;stroke-miterlimit:4;stroke-dasharray:none;stroke-opacity:1;visibility:visible"/><path d="m471.614 795.417.139-.017.149-.016.136-.018.117-.017.088-.016.083-.035M470.697 795.163l-.052.032-.032.036.015.016.037.035.05.033.083.035M471.411 795.045l-.152.017h-.153l-.118.015-.12.036-.1.016-.07.035" style="fill:none;stroke:red;stroke-width:.999997;stroke-linecap:round;stroke-linejoin:round;stroke-miterlimit:4;stroke-dasharray:none;stroke-opacity:1;visibility:visible"/><path d="M470.697 795.163v.084l.017.068M472.259 795.316l-.017-.032v-.036l-.015-.068v-.068M472.224 795.113l-.117.068-.103.05-.101.018h-.086l-.101-.017-.101-.035-.103-.067-.097-.086M471.411 795.045l-.104.1-.084.07-.085.033-.086.034h-.084l-.085-.016-.103-.034-.082-.068M472.224 795.333v-.22M471.411 795.417v-.373M588.398 831.357l.119.033.134.019.138.016.152.017h.34M592.081 831.748l-.017.05-.052.069-.082.069-.101.067-.156.052-.153.052-.202.049-.221.05-.239.051-.252.035-.273.035-.287.016-.308.016h-.289l-.323.017-.301-.017h-.31l-.289-.016-.285-.035-.275-.032-.253-.036-.252-.033-.208-.051-.203-.05-.17-.051-.136-.07-.102-.068-.084-.05-.049-.068-.02-.068" style="fill:none;stroke:red;stroke-width:.999997;stroke-linecap:round;stroke-linejoin:round;stroke-miterlimit:4;stroke-dasharray:none;stroke-opacity:1;visibility:visible"/><path d="m591.505 831.12.05.068.02.05-.02.069-.05.05-.068.068-.103.052-.134.051-.17.05-.168.033-.206.036-.222.033-.234.033-.258.018-.27.017-.272.016h-.54l-.272-.016-.258-.017-.253-.018-.239-.033-.221-.033-.2-.036-.19-.05-.153-.05-.137-.051-.101-.05-.068-.053-.052-.068-.016-.05.016-.068.037-.051M589.857 831.12l-.103-.033-.136-.018-.133-.018-.17-.016h-.32" style="fill:none;stroke:red;stroke-width:.999997;stroke-linecap:round;stroke-linejoin:round;stroke-miterlimit:4;stroke-dasharray:none;stroke-opacity:1;visibility:visible"/><path d="m590.01 831.307.033-.033.036-.035-.017-.033-.033-.035-.07-.033-.1-.018M589.28 831.443l.152-.019h.153l.135-.033.12-.017.084-.034.085-.034M588.262 831.171l-.052.017-.016.051.016.035.033.033.068.033.09.018M588.992 831.036l-.153.017h-.152l-.136.034-.119.017-.101.033-.068.035" style="fill:none;stroke:red;stroke-width:.999997;stroke-linecap:round;stroke-linejoin:round;stroke-miterlimit:4;stroke-dasharray:none;stroke-opacity:1;visibility:visible"/><path d="m588.262 831.171.017.084.016.068M589.908 831.357v-.05l-.017-.051-.014-.068-.02-.068M589.857 831.12l-.119.068-.101.05-.103.018h-.098l-.107-.017-.101-.035-.118-.067-.116-.102M588.992 831.036l-.101.101-.087.068-.083.051-.086.033h-.084l-.102-.016-.085-.05-.101-.051M589.874 831.374l-.017-.253M588.992 831.443v-.41M372.095 864.004l.101.017.139.034.15.017.153.016h.34M375.948 864.344l-.016.068-.033.068-.087.085-.115.067-.138.068-.187.052-.185.067-.239.052-.239.05-.272.034-.289.033-.284.035-.325.016-.307.018-.317.016h-.328l-.306-.016h-.322l-.288-.034-.288-.035-.274-.033-.25-.034-.22-.05-.207-.052-.17-.067-.153-.052-.101-.068-.087-.067-.05-.069-.014-.084" style="fill:none;stroke:red;stroke-width:.999997;stroke-linecap:round;stroke-linejoin:round;stroke-miterlimit:4;stroke-dasharray:none;stroke-opacity:1;visibility:visible"/><path d="m375.354 863.698.052.068.017.07-.017.066-.03.05-.09.069-.101.068-.135.05-.168.051-.19.052-.2.05-.24.034-.255.033-.255.035-.272.017-.288.016h-.85l-.271-.016-.254-.017-.256-.035-.234-.033-.208-.033-.183-.051-.172-.052-.137-.05-.118-.069-.064-.05-.053-.068-.017-.067.017-.05.053-.07" style="fill:none;stroke:red;stroke-width:.999997;stroke-linecap:round;stroke-linejoin:round;stroke-miterlimit:4;stroke-dasharray:none;stroke-opacity:1;visibility:visible"/><path d="m373.69 863.732-.101-.032-.136-.019-.154-.017-.15-.015h-.342M373.776 863.954l.05-.033.035-.052v-.035l-.034-.032-.051-.036-.084-.033" style="fill:none;stroke:red;stroke-width:.999997;stroke-linecap:round;stroke-linejoin:round;stroke-miterlimit:4;stroke-dasharray:none;stroke-opacity:1;visibility:visible"/><path d="m372.978 864.089.17-.017.151-.016.154-.018.12-.017.117-.033.09-.035M372.01 863.784l-.052.032-.03.036v.05l.03.033.052.036.084.033" style="fill:none;stroke:red;stroke-width:.999997;stroke-linecap:round;stroke-linejoin:round;stroke-miterlimit:4;stroke-dasharray:none;stroke-opacity:1;visibility:visible"/><path d="m372.807 863.648-.17.017h-.151l-.151.034-.12.017-.12.033-.085.036" style="fill:none;stroke:red;stroke-width:.999997;stroke-linecap:round;stroke-linejoin:round;stroke-miterlimit:4;stroke-dasharray:none;stroke-opacity:1;visibility:visible"/><path d="m372.01 863.784.019.119.014.084M373.724 863.97l-.016-.033v-.119l-.015-.087M373.69 863.732l-.117.068-.103.05-.119.035h-.101l-.101-.034-.1-.034-.122-.068-.12-.1" style="fill:none;stroke:red;stroke-width:.999997;stroke-linecap:round;stroke-linejoin:round;stroke-miterlimit:4;stroke-dasharray:none;stroke-opacity:1;visibility:visible"/><path d="m372.807 863.648-.101.101-.099.086-.105.05-.086.018h-.101l-.084-.018-.103-.033-.118-.067M373.69 863.987v-.253M372.825 864.089l-.019-.441M261.61 824.822l.101.017.12.015.139.019.15.017h.305M265.276 825.127v.068l-.05.07-.086.05-.101.068-.132.067-.174.05-.186.051-.204.052-.239.052-.25.033-.273.034-.289.033-.29.017-.289.018-.304.016h-.308l-.301-.016h-.292l-.27-.018-.271-.033-.258-.017-.238-.051-.22-.035-.186-.05-.17-.05-.136-.05-.103-.052-.08-.07-.052-.066-.02-.052" style="fill:none;stroke:red;stroke-width:.999997;stroke-linecap:round;stroke-linejoin:round;stroke-miterlimit:4;stroke-dasharray:none;stroke-opacity:1;visibility:visible"/><path d="m264.716 824.533.05.068.02.05-.02.051-.05.068-.068.051-.101.05-.136.051-.154.052-.169.051-.204.036-.22.05-.239.015-.237.035-.272.017-.255.018-.27.016h-.271l-.256-.016h-.255l-.254-.018-.236-.034-.222-.018-.188-.033-.186-.05-.154-.035-.132-.051-.105-.05-.064-.051-.052-.051-.019-.07.019-.05.03-.05M263.153 824.567l-.101-.017-.119-.016-.137-.018-.135-.017h-.319" style="fill:none;stroke:red;stroke-width:.999997;stroke-linecap:round;stroke-linejoin:round;stroke-miterlimit:4;stroke-dasharray:none;stroke-opacity:1;visibility:visible"/><path d="m263.206 824.771.07-.035.014-.034.017-.034-.017-.034-.05-.032-.086-.035M262.424 824.89h.17l.153-.019.137-.014.133-.036.102-.016.086-.035M261.559 824.618l-.05.033-.033.035v.033l.014.036.052.034.068.033" style="fill:none;stroke:red;stroke-width:.999997;stroke-linecap:round;stroke-linejoin:round;stroke-miterlimit:4;stroke-dasharray:none;stroke-opacity:1;visibility:visible"/><path d="M262.34 824.5h-.15l-.155.017-.155.016-.117.035-.118.016-.086.035" style="fill:none;stroke:red;stroke-width:.999997;stroke-linecap:round;stroke-linejoin:round;stroke-miterlimit:4;stroke-dasharray:none;stroke-opacity:1;visibility:visible"/><path d="m261.559 824.618.019.101v.086M263.172 824.788v-.085l-.019-.068v-.068M263.153 824.567l-.101.085-.099.034-.105.033h-.102l-.085-.015-.099-.052-.104-.068-.116-.085" style="fill:none;stroke:red;stroke-width:.999997;stroke-linecap:round;stroke-linejoin:round;stroke-miterlimit:4;stroke-dasharray:none;stroke-opacity:1;visibility:visible"/><path d="m262.34 824.5-.103.103-.1.066-.086.051-.103.017h-.08l-.09-.017-.1-.033-.12-.068M263.153 824.788v-.221M262.34 824.89v-.39M162.464 789.645l.085.033.119.018.119.017h.441M165.961 789.934l-.017.05-.032.069-.07.05-.101.068-.137.051-.151.05-.187.053-.205.05-.22.034-.237.034-.255.034-.27.034-.274.016-.288.018-.29.017h-.56l-.289-.017h-.272l-.253-.034-.239-.017-.22-.033-.204-.035-.186-.033-.152-.051-.136-.052-.102-.05-.069-.051-.05-.052-.014-.066" style="fill:none;stroke:red;stroke-width:.999997;stroke-linecap:round;stroke-linejoin:round;stroke-miterlimit:4;stroke-dasharray:none;stroke-opacity:1;visibility:visible"/><path d="m165.435 789.391.033.052.018.05-.018.05-.05.05-.083.051-.1.052-.139.052-.153.051-.188.033-.203.05-.2.036-.241.016-.255.034-.254.016-.252.018h-.767l-.255-.018-.237-.016-.221-.017-.186-.033-.186-.036-.151-.032-.139-.051-.12-.036-.082-.05-.051-.051-.019-.051.019-.05.032-.051M163.959 789.425l-.083-.017-.117-.016-.123-.019h-.136l-.153-.016h-.152" style="fill:none;stroke:red;stroke-width:.999997;stroke-linecap:round;stroke-linejoin:round;stroke-miterlimit:4;stroke-dasharray:none;stroke-opacity:1;visibility:visible"/><path d="m163.975 789.611.068-.032.035-.036v-.033l-.019-.018-.033-.033-.068-.035M163.228 789.714h.152l.153-.019.136-.016.12-.017.102-.033.086-.018M162.448 789.476l-.07.033-.033.018-.017.033.017.035.051.033.07.017M163.194 789.357l-.15.017-.155.015-.136.017-.119.019-.103.016-.084.035M162.448 789.476v.17M163.959 789.611v-.187" style="fill:none;stroke:red;stroke-width:.999997;stroke-linecap:round;stroke-linejoin:round;stroke-miterlimit:4;stroke-dasharray:none;stroke-opacity:1;visibility:visible"/><path d="m163.959 789.425-.101.068-.099.05-.09.02h-.082l-.1-.02-.088-.033-.101-.068-.103-.085M163.194 789.357l-.101.101-.1.07-.087.032-.084.034h-.087l-.082-.016-.1-.034-.106-.068M163.959 789.611v-.187M163.194 789.714v-.359M364.812 762.89l.101.017.12.016.118.018h.424M368.156 763.196l-.016.05-.035.053-.068.068-.102.049-.118.052-.153.033-.17.052-.2.034-.22.032-.223.036-.258.033-.252.017-.27.018-.275.017h-.272l-.272.016-.27-.016h-.271l-.252-.017-.259-.035-.237-.017-.203-.034-.205-.033-.17-.036-.149-.05-.12-.05-.1-.052-.09-.05-.031-.051-.019-.051" style="fill:none;stroke:red;stroke-width:.999997;stroke-linecap:round;stroke-linejoin:round;stroke-miterlimit:4;stroke-dasharray:none;stroke-opacity:1;visibility:visible"/><path d="m367.647 762.67.05.05v.05l-.017.052-.05.035-.086.05-.097.051-.123.05-.149.034-.17.035-.207.034-.204.032-.22.019-.239.017-.236.018-.256.014h-.492l-.255-.014-.237-.018-.221-.017-.204-.019-.203-.032-.17-.034-.153-.035-.136-.033-.101-.051-.068-.035-.052-.05-.033-.051.02-.052.032-.05" style="fill:none;stroke:red;stroke-width:.999997;stroke-linecap:round;stroke-linejoin:round;stroke-miterlimit:4;stroke-dasharray:none;stroke-opacity:1;visibility:visible"/><path d="m366.204 762.687-.083-.033-.118-.019h-.139l-.133-.017h-.29M366.272 762.84l.05-.017.034-.034v-.033l-.033-.017-.051-.036-.068-.015" style="fill:none;stroke:red;stroke-width:.999997;stroke-linecap:round;stroke-linejoin:round;stroke-miterlimit:4;stroke-dasharray:none;stroke-opacity:1;visibility:visible"/><path d="M365.575 762.94h.153l.136-.017.135-.016.104-.018.104-.017.064-.035M364.745 762.72l-.052.032-.016.019v.032l.016.036.052.017.07.033" style="fill:none;stroke:red;stroke-width:.999997;stroke-linecap:round;stroke-linejoin:round;stroke-miterlimit:4;stroke-dasharray:none;stroke-opacity:1;visibility:visible"/><path d="M365.44 762.618h-.136l-.135.017-.136.018-.12.017-.085.033-.083.018" style="fill:none;stroke:red;stroke-width:.999997;stroke-linecap:round;stroke-linejoin:round;stroke-miterlimit:4;stroke-dasharray:none;stroke-opacity:1;visibility:visible"/><path d="m364.745 762.72.019.083v.069M366.221 762.856v-.068l-.017-.05v-.051M366.204 762.687l-.103.068-.098.032-.088.019h-.171l-.101-.051-.102-.05-.1-.087" style="fill:none;stroke:red;stroke-width:.999997;stroke-linecap:round;stroke-linejoin:round;stroke-miterlimit:4;stroke-dasharray:none;stroke-opacity:1;visibility:visible"/><path d="m365.44 762.618-.083.085-.086.068-.083.034-.088.033h-.083l-.086-.016-.083-.033-.103-.068M366.204 762.873v-.187M365.44 762.94v-.323M167.76 784.994l.033-.019h.036v-.014h-.017M167.813 784.977v-.019M165.927 785.231l1.833-.237M167.813 784.96h0M170.63 784.705v.017M170.783 791.767l-.15-7.045-6.37 4.38M593.575 837.146v-.05M593.575 837.096h-.03l-.02.017v.016h.02M595.374 837.69l-2.021 2.632M595.374 840.016v-2.325M593.575 837.096h0M593.54 837.13l1.833.56M333.422 763.162l.033.017h.086l.033-.017M357.784 764.096l-.421.34M357.36 764.436l-.017.017-.051.015h-.153M357.342 778.747l-.201-14.277-25.808-.902M331.333 763.57h-.083l-.036-.019-.017-.016M332.794 762.975l.63.187M333.574 763.162l.24-.019M349.294 409.516l-.016-.204v-.085l-.015-.084-.018-.068-.019-.068-.033-.052-.016-.05-.052-.069-.031-.033-.037-.018-.034.018v.033l-.017.085v.102l.017.136v.085l.019.085v.204M349.465 409.482l-.083.017-.088.018M349.703 409.465v-.187l-.019-.101-.012-.085-.021-.068-.016-.068-.033-.051-.019-.05-.05-.069-.033-.034h-.036l-.013.017-.02.035v.169l.02.136v.084l.013.103v.186M349.872 409.448h-.083l-.086.017M350.075 409.414l-.016-.187-.015-.101v-.068l-.037-.085-.015-.051-.018-.068-.018-.05-.05-.069-.031-.017-.037-.017-.014.017-.02.033v.07l.02.05v.067l.014.12v.084l.017.101v.103l.02.101" style="fill:none;stroke:red;stroke-width:.999997;stroke-linecap:round;stroke-linejoin:round;stroke-miterlimit:4;stroke-dasharray:none;stroke-opacity:1;visibility:visible"/><path d="M350.21 409.397h-.068l-.068.017M350.398 409.363l-.017-.187v-.101l-.014-.07-.02-.083-.032-.051-.018-.068-.018-.035-.05-.084-.031-.017-.021-.017-.016.017-.015.033v.068l.015.052v.068l.016.118.021.085.012.103v.202M351.349 409.023l-.017.035-.034.05-.05.034-.087.034-.1.034-.133.033-.156.052-.171.033-.203.035M337.87 409.567l-.237-.033-.204-.018-.171-.034-.17-.034-.134-.034-.103-.034-.085-.033-.068-.052-.032-.033-.019-.035M338.073 409.6v-.204l.02-.084v-.153l.013-.068v-.22l-.033-.018-.017.018-.032.016-.052.068-.018.05-.017.052-.033.135-.018.085-.014.086v.204M338.226 409.618l-.083-.017h-.069M338.463 409.635v-.288l.02-.085v-.323l-.02-.033-.017-.018-.034.018-.032.016-.036.085-.033.035-.017.066-.031.119-.021.085v.102l-.016.102v.102M338.633 409.652l-.083-.017h-.086M338.888 409.669v-.373l.019-.068v-.17l-.019-.085-.017-.033-.014-.018-.037.018-.033.016-.05.085-.018.035-.019.066-.033.136-.016.086-.015.084v.204M339.075 409.686l-.101-.017h-.087M339.346 409.703v-.373l.019-.068v-.17l-.019-.086-.017-.034-.034-.017-.032.017-.036.018-.05.085-.018.033-.034.068-.016.119-.015.085-.019.102v.204M339.55 409.703h-.2M339.838 409.72v-.61l-.017-.086-.014-.035h-.07l-.035.035-.05.068-.034.05-.017.051-.034.136v.086l-.018.084v.204M340.06 409.737l-.119-.017h-.102" style="fill:none;stroke:red;stroke-width:.999997;stroke-linecap:round;stroke-linejoin:round;stroke-miterlimit:4;stroke-dasharray:none;stroke-opacity:1;visibility:visible"/><path d="M340.364 409.737v-.56l-.016-.05-.015-.069-.037-.034-.033-.018-.035.018-.033.017-.051.085-.017.034-.014.068-.036.136-.018.084v.289M348.073 409.618l-.372.017-.41.034-.407.017-.423.017-.423.034h-.441l-.441.017-.444.017h-.458l-.441.016h-1.783l-.44-.016h-.426l-.407-.017-.39-.017M348.377 409.6l-.016-.204-.015-.084v-.085l-.018-.068-.034-.068-.018-.051-.016-.05-.052-.086-.031-.017-.052-.016-.019.016-.034.034-.016.068v.254l.016.085v.29M348.582 409.584h-.101l-.1.017M348.854 409.55l-.019-.187v-.085l-.012-.084-.021-.068-.016-.068-.033-.068-.019-.035-.05-.084-.031-.034h-.038l-.033.017-.017.035-.016.066v.239l.016.084v.204l.017.101M350.398 409.363l.019 1.46M348.09 411.078l-.017-1.46M340.364 409.737l.021 1.476M337.886 411.044l-.017-1.477M345 407.411l.528-.05M342.42 407.224l2.583.187M342.945 407.156l-.527.068M345.526 407.36l-2.581-.204M342.945 407.258v-.101M144.281 423.386l-.016-.204v-.084l-.015-.085-.018-.068-.034-.068-.018-.068-.016-.051-.07-.068-.033-.033-.03-.018-.038.018-.017.033-.016.085v.051l.016.068v.136l.017.084v.204l.017.101M144.486 423.37l-.103.017h-.1M144.74 423.335l-.016-.187-.015-.101-.018-.085-.019-.068-.015-.068-.018-.068-.035-.051-.05-.068-.034-.033h-.03l-.038.016-.017.017v.204l.017.135v.085l.017.103v.101l.02.101M144.912 423.318l-.083.017h-.089M145.149 423.284l-.019-.204v-.085l-.012-.084-.037-.068-.015-.068-.02-.068-.034-.051-.051-.068-.033-.033h-.031l-.02.016-.017.017v.136l.017.067v.136l.02.085.015.103v.202M145.318 423.267h-.083l-.086.017M145.52 423.233l-.016-.203-.015-.085-.02-.085-.017-.086-.015-.066-.018-.052-.035-.051-.05-.068-.034-.033-.017-.018-.034.018v.169l.019.068.015.136v.084l.017.085v.103l.02.119M146.76 422.826l-.016.033-.035.051-.068.035-.081.033-.123.052-.136.033-.152.051-.188.035-.202.033-.239.05M132.5 423.454l-.221-.035-.187-.033-.152-.035-.153-.033-.099-.05-.104-.035-.053-.034-.05-.034-.014-.051M132.688 423.471v-.204l.017-.085v-.084l.016-.086v-.118l.016-.051v-.085l-.016-.035-.016-.016h-.036l-.012.033-.052.068-.018.051-.019.068-.032.136-.019.085-.017.084v.222M132.84 423.488h-.07l-.08-.017" style="fill:none;stroke:red;stroke-width:.999997;stroke-linecap:round;stroke-linejoin:round;stroke-miterlimit:4;stroke-dasharray:none;stroke-opacity:1;visibility:visible"/><path d="M133.06 423.522v-.305l.021-.086v-.068l.012-.068v-.204l-.012-.033-.021-.017-.03.017-.038.033-.05.068-.018.052-.015.051-.037.136-.012.084-.02.103v.204M133.23 423.539l-.083-.017h-.086" style="fill:none;stroke:red;stroke-width:.999997;stroke-linecap:round;stroke-linejoin:round;stroke-miterlimit:4;stroke-dasharray:none;stroke-opacity:1;visibility:visible"/><path d="M133.468 423.556v-.204l.019-.084v-.237l.014-.07v-.05l-.014-.084-.019-.035h-.05l-.033.035-.053.068-.015.05-.02.051-.032.152-.017.085-.019.086v.22M133.654 423.573l-.083-.017h-.104M133.926 423.59v-.39l.019-.069v-.186l-.019-.084-.017-.035h-.066l-.036.035-.052.066-.016.052-.014.068-.038.135-.012.085-.021.086v.22M134.13 423.607l-.101-.017h-.102M134.418 423.607v-.628l-.017-.085-.014-.034-.037-.017-.033.017-.035.034-.05.068-.034.05-.019.052-.033.135-.016.103v.305M134.623 423.624h-.101l-.1-.017M134.927 423.64v-.373l.021-.086-.021-.068v-.118l-.016-.068-.033-.034-.034-.017h-.036l-.032.035-.049.084-.02.052-.017.05-.034.135-.017.085-.017.102v.204M142.959 423.505l-.41.033-.44.018-.423.033-.459.017-.441.018-.472.017-.462.016-.477.017h-.456l-.476.018h-1.376l-.459-.018h-.865l-.408-.017-.404-.016M143.28 423.488l-.017-.204-.014-.101-.02-.086-.017-.068-.015-.068-.018-.05-.035-.051-.05-.085-.034-.035h-.052l-.033.017-.016.018-.019.085v.05l-.016.069.016.136v.186l.019.102v.102M143.5 423.454l-.117.017-.103.016M143.79 423.437v-.204l-.016-.085-.015-.084-.018-.086-.019-.068-.033-.05-.018-.052-.05-.084-.051-.018-.032-.017-.037.017-.016.034-.016.086v.238l.016.101v.187l.016.102M145.52 423.233l.033 1.528M142.992 425.015l-.03-1.51M134.927 423.64l.033 1.51M132.534 424.965l-.03-1.51M140.038 421.196l.58-.05M137.525 420.992l2.513.204M138.102 420.924l-.577.068M140.615 421.145l-2.513-.22M138.102 421.043v-.119" style="fill:none;stroke:red;stroke-width:.999997;stroke-linecap:round;stroke-linejoin:round;stroke-miterlimit:4;stroke-dasharray:none;stroke-opacity:1;visibility:visible"/><path d="m620.364 859.013.021 7.181M138.306 804.993l.152 6.604M618.327 856.467l.084.033.276.17.233.154.239.171.22.185.221.187.191.204.148.203.153.238.12.238.087.238.052.271.012.255M138.306 804.993v-.17l.02-.153.03-.152.053-.137.049-.152.068-.136.085-.119.086-.136.101-.118.152-.171.17-.152.187-.153.204-.152.239-.154.22-.136.253-.136.256-.136h.02M620.382 866.194l-.019.187-.012.17-.053.186-.053.169-.084.17-.084.171-.103.151-.103.155-.117.136-.17.186-.183.17-.208.169-.22.153-.235.154-.257.15-.254.155-.29.135-.29.136-.322.134-.322.138-.34.134-.357.119-.39.137-.39.119-.39.119-.425.102-.441.119-.441.101-.459.119-.424.085-.425.086-.442.085-.454.084-.479.085-.459.068-202.666 32.238M408.018 903.17l-.592.103-.596.085-.612.084-.612.068-.625.084-.63.068-.642.052-.663.067-.648.052-.661.05-.662.051-.664.036-.642.032-.68.033-.659.035-.663.016-.681.017-.663.018h-2.682l-.663-.018-.661-.017-.662-.016-.646-.017-.662-.034-.645-.034-.645-.034-.628-.052-.628-.05-.63-.051-.61-.05-.611-.069-.595-.068-.593-.068-.579-.068-.573-.085-.561-.067-.546-.085-.544-.1-.524-.087-.51-.102-.51-.102-.492-.101-.492-.119-.477-.12-.455-.118-.442-.119-.426-.119-.424-.136-.39-.136-.37-.134-235.32-87.619M141.227 814.127l-.305-.119-.307-.12-.27-.134-.257-.138-.234-.134-.24-.136-.203-.154-.188-.152-.187-.169-.153-.17-.132-.206-.105-.15-.064-.189-.071-.169-.035-.204-.017-.187" style="fill:none;stroke:red;stroke-width:1.99999;stroke-linecap:round;stroke-linejoin:round;stroke-miterlimit:4;stroke-dasharray:none;stroke-opacity:1;visibility:visible"/><path d="M148.459 804.84h0M153.568 785.775h0" style="fill:none;stroke:red;stroke-width:.999997;stroke-linecap:round;stroke-linejoin:round;stroke-miterlimit:4;stroke-dasharray:none;stroke-opacity:1;visibility:visible"/><path d="m384.114 867.333-8.167-2.887M262.289 824.193l-96.328-34.124" style="fill:none;stroke:red;stroke-width:1.99999;stroke-linecap:round;stroke-linejoin:round;stroke-miterlimit:4;stroke-dasharray:none;stroke-opacity:1;visibility:visible"/><path d="m163.177 789.085-9.27-3.293M384.403 891.133 148.458 804.84M147.576 787.235v-.101l.033-.119.035-.103.017-.034v-.016l.016-.016.051-.07.07-.084.083-.068.067-.05.088-.035.068-.035.117-.017.119-.016M148.34 786.47l.359-.017.353-.015.359-.036.341-.016.337-.035.339-.034.339-.034.324-.05.305-.035.305-.05.288-.035.29-.051.27-.05.271-.051.275-.068.236-.051.237-.067M147.576 787.235l.39 16.925M153.568 785.775h.052l.05-.019h.102l.068.019.068.017M148.459 804.84l-.068-.033-.085-.052-.068-.052-.068-.051-.051-.067-.05-.068-.031-.086-.038-.066-.013-.086-.02-.05v-.069M358.513 764.622l-.068-.103-.068-.117-.064-.136M358.513 764.622l.052-.084.016-.085.033-.103M354.812 759.342h0" style="fill:none;stroke:red;stroke-width:.999997;stroke-linecap:round;stroke-linejoin:round;stroke-miterlimit:4;stroke-dasharray:none;stroke-opacity:1;visibility:visible"/><path d="m355.101 759.342 9.88 3.039M368.156 763.348l14.753 4.516M474.297 795.825l114.101 34.905M592.081 831.868l9.847 3.004" style="fill:none;stroke:red;stroke-width:1.99999;stroke-linecap:round;stroke-linejoin:round;stroke-miterlimit:4;stroke-dasharray:none;stroke-opacity:1;visibility:visible"/><path d="m352.605 778.576 30.559 9.643M400.31 793.635l162.524 51.339M354.812 759.342l.033-.017h.204l.052.017M349.94 759.988l.34-.019.34-.033.34-.017.321-.016.323-.035.323-.033.305-.035.305-.033.288-.034.272-.052.29-.033.253-.05.256-.034.239-.052.236-.052.22-.067.221-.05M349.21 760.717l.033 2.597M349.21 760.717v-.103l.033-.117.016-.052.02-.033v-.018l.014-.034.068-.084.052-.051.05-.068.07-.035.068-.049.069-.035.081-.034.09-.016h.098M341.213 758.85h0M344.32 759.783h0M341.553 759.002h0M344.966 760.53l.033 2.632M344.32 759.783l.07.017.069.016.065.035.068.033.068.051.072.052.048.068.05.05.05.086.021.05.014.051.017.07.02.014v.052l.013.103M341.553 759.002l.035.017.033.034.05.034.053.052.084.032.085.051.101.035.12.05.119.054.152.032.139.05.168.051.168.036.205.05.187.033.218.052.222.033.222.035.236.033.17.017M341.213 758.85h.068l.052.017.07.016.05.018.05.034.033.052.017.015M155.589 784.893h0M601.656 839.049h0M605.63 840.236h0M606.393 859.489h0M602.03 839.167h0" style="fill:none;stroke:red;stroke-width:.999997;stroke-linecap:round;stroke-linejoin:round;stroke-miterlimit:4;stroke-dasharray:none;stroke-opacity:1;visibility:visible"/><path d="m601.656 839.049-200.497 30.627" style="fill:none;stroke:red;stroke-width:1.99999;stroke-linecap:round;stroke-linejoin:round;stroke-miterlimit:4;stroke-dasharray:none;stroke-opacity:1;visibility:visible"/><path d="m605.63 840.236.083.017.086.018.084.033.086.05.069.051.065.068.07.068.05.068.051.086.035.069.017.067.016.033v.017l.017.035.02.068v.101l.014 18.403M602.03 839.167l.07.05.08.051.089.068.12.068.133.068.137.052.171.067.184.068.207.068.221.068.22.068.235.052.272.067.274.05.271.051.303.053.306.05.306.05M606.393 859.489v.119l-.03.118-.038.084-.033.07-.051.068-.048.068-.052.05-.07.051-.069.035-.081.032-.07.036-.086.016" style="fill:none;stroke:red;stroke-width:.999997;stroke-linecap:round;stroke-linejoin:round;stroke-miterlimit:4;stroke-dasharray:none;stroke-opacity:1;visibility:visible"/><path d="M601.656 839.049h.153l.068.017.07.034.049.032.035.036M401.787 892.237h-.137l-.064-.019-.071-.032-.05-.034-.05-.052M601.367 447.663v-.017l.021-.018M618.057 447.527l.017.017v.016M618.327 858.657l-.017.101-.034.12-.085.119-.101.103-.154.1-.152.12-.205.1-.233.101-.259.087-.27.102-.303.084-.342.086-.358.084-.372.068-.391.069-.421.067-.428.052-.443.05-.472.051-.479.033-.473.035-.49.033-.513.018h-.49l-.511.017-.51-.017h-.51l-.492-.018-.508-.033-.492-.035-.473-.033-.479-.033-.457-.052-.443-.068" style="fill:none;stroke:red;stroke-width:.999997;stroke-linecap:round;stroke-linejoin:round;stroke-miterlimit:4;stroke-dasharray:none;stroke-opacity:1;visibility:visible"/><path d="m618.072 447.561.07 118.244M618.14 568.403l.19 290.253M601.367 447.663l.172 114.509M601.554 574.667l.373 264.431M146.813 425.457v.035" style="fill:none;stroke:red;stroke-width:1.99999;stroke-linecap:round;stroke-linejoin:round;stroke-miterlimit:4;stroke-dasharray:none;stroke-opacity:1;visibility:visible"/><path d="M131.531 425.78v-.017l.021-.016M148.408 804.807l-.46.017-.473.015h-.459l-.459-.015h-.454l-.446-.017-.441-.019-.424-.033-.423-.033-.392-.035-.39-.05-.374-.051-.337-.051-.34-.07-.308-.049-.29-.085-.253-.068-.238-.068-.204-.084-.187-.087-.17-.082-.117-.087-.102-.101-.086-.086-.034-.102-.015-.083" style="fill:none;stroke:red;stroke-width:.999997;stroke-linecap:round;stroke-linejoin:round;stroke-miterlimit:4;stroke-dasharray:none;stroke-opacity:1;visibility:visible"/><path d="m146.813 425.491 2.463 106.393M149.443 539.27l5.69 246.962M131.497 424.876l2.616 109.402M134.215 538.218l6.316 265.263M618.14 568.403l.085-.22.054-.256.052-.253.03-.256v-.543l-.03-.288-.052-.272-.054-.255-.085-.254" style="fill:none;stroke:red;stroke-width:1.99999;stroke-linecap:round;stroke-linejoin:round;stroke-miterlimit:4;stroke-dasharray:none;stroke-opacity:1;visibility:visible"/><path d="M149.443 539.627h0M339.55 523.974h0M338.617 513.024h.22l.14.017.132.035.152.033.137.051.17.068.152.068.17.085.17.102.19.101.17.103.182.136.187.136.19.134.2.154.189.169.185.17.204.187.205.22.202.222.204.22.186.237.171.239.204.272.17.288.169.288.136.289.122.288.099.305.07.255.053.255.048.272.016.221.016.22-.016.221v.22l-.035.222" style="fill:none;stroke:red;stroke-width:.999997;stroke-linecap:round;stroke-linejoin:round;stroke-miterlimit:4;stroke-dasharray:none;stroke-opacity:1;visibility:visible"/><path d="m149.206 529.373 189.393-16.35M287.17 528.605l52.38-4.63M149.477 540.764l95.242-8.404" style="fill:none;stroke:red;stroke-width:1.99999;stroke-linecap:round;stroke-linejoin:round;stroke-miterlimit:4;stroke-dasharray:none;stroke-opacity:1;visibility:visible"/><path d="m343.777 519.526-.05.272-.069.272-.082.255-.087.253-.12.239-.117.254-.154.255-.153.237-.17.238-.169.221-.188.221-.202.203-.203.204-.205.187-.204.186-.22.154-.203.152-.205.118-.186.12-.205.102-.203.102-.202.067-.188.068-.154.035-.149.017-.14.016M602.335 562.104h0" style="fill:none;stroke:red;stroke-width:.999997;stroke-linecap:round;stroke-linejoin:round;stroke-miterlimit:4;stroke-dasharray:none;stroke-opacity:1;visibility:visible"/><path d="m603.558 574.463-205.471 21.052M602.335 562.104l-204.385 20.44" style="fill:none;stroke:red;stroke-width:1.99999;stroke-linecap:round;stroke-linejoin:round;stroke-miterlimit:4;stroke-dasharray:none;stroke-opacity:1;visibility:visible"/><path d="M398.07 593.783v.017" style="fill:none;stroke:red;stroke-width:.999997;stroke-linecap:round;stroke-linejoin:round;stroke-miterlimit:4;stroke-dasharray:none;stroke-opacity:1;visibility:visible"/><path d="M353.182 517.59v.22l-.016.221-.035.222-.032.22-.053.186-.064.187-.07.153-.087.152M352.776 515.876l.083.17.086.186.07.221.066.204.034.238.033.221.037.237v.238M379.276 465.047v.05M396.627 464.877v-.017l-.019-.016" style="fill:none;stroke:red;stroke-width:1.99999;stroke-linecap:round;stroke-linejoin:round;stroke-miterlimit:4;stroke-dasharray:none;stroke-opacity:1;visibility:visible"/><path d="m384.42 892.747.019.119.049.134.084.119.12.119.152.12.187.118.202.12.239.102.288.102.293.1.339.102.336.086.39.084.391.086.427.068.439.066.461.051.493.052.472.052.51.033.509.032.525.02.527.016h1.596l.544-.016.527-.034.51-.036.524-.032.492-.051.494-.05.474-.069.46-.069.44-.068.424-.084.391-.087.39-.101.34-.101.323-.102.308-.101.271-.101.235-.12.222-.119.168-.119.155-.12.12-.118.065-.135.051-.119.017-.137" style="fill:none;stroke:red;stroke-width:.999997;stroke-linecap:round;stroke-linejoin:round;stroke-miterlimit:4;stroke-dasharray:none;stroke-opacity:1;visibility:visible"/><path d="m396.627 464.877 1.359 121.35M398.07 593.783l3.344 298.777M379.276 465.098l1.476 123.49M380.804 592.357l3.616 300.389" style="fill:none;stroke:red;stroke-width:1.99999;stroke-linecap:round;stroke-linejoin:round;stroke-miterlimit:4;stroke-dasharray:none;stroke-opacity:1;visibility:visible"/><path d="M351.383 411.587v-.017M336.68 411.757v.033" style="fill:none;stroke:red;stroke-width:.999997;stroke-linecap:round;stroke-linejoin:round;stroke-miterlimit:4;stroke-dasharray:none;stroke-opacity:1;visibility:visible"/><path d="m351.383 411.587 1.596 103.253M352.758 514.653l.02 1.223M353.31 555.605l2.708 204.026M352.825 519.153l.283 21.233M336.68 411.791l1.416 100.512M338.659 552.56l2.895 206.423M338.26 524.093l.19 13.415" style="fill:none;stroke:red;stroke-width:1.99999;stroke-linecap:round;stroke-linejoin:round;stroke-miterlimit:4;stroke-dasharray:none;stroke-opacity:1;visibility:visible"/><path d="M131.516 424.83v-.052l.019-.067h.014M146.76 424.405l.033.136" style="fill:none;stroke:red;stroke-width:.999997;stroke-linecap:round;stroke-linejoin:round;stroke-miterlimit:4;stroke-dasharray:none;stroke-opacity:1;visibility:visible"/><path d="m146.813 425.406-.019-.865" style="fill:none;stroke:red;stroke-width:1.99999;stroke-linecap:round;stroke-linejoin:round;stroke-miterlimit:4;stroke-dasharray:none;stroke-opacity:1;visibility:visible"/><path d="M393.979 464.284v-.035M393.979 464.284h-.12l-.119.017M393.435 464.334l-.016-.017M393.435 464.334l-.119.017h-.133M396.61 463.587l-.016.05-.052.069-.083.05-.12.052-.15.068-.19.051-.201.05-.259.069M395.336 464.08v-.035M395.336 464.08l-.083.017-.086.016M394.93 464.148v-.033M394.93 464.148l-.083.017-.105.016M394.471 464.215v-.033M394.471 464.215l-.101.017h-.1M381.466 464.351v.033M381.687 464.402l-.12-.017h-.101M381.195 464.351l-.083-.017h-.105M381.008 464.3v.033M392.84 464.385v-.017M392.84 464.385l-.441.033-.475.035-.477.033-.492.035-.508.017-.511.016-.524.018-.528.017-.524.016h-2.65l-.509-.016h-.494l-.492-.017-.474-.034M383.742 464.538h0M383.385 464.521h-.137l-.135-.017M383.113 464.487v.017M382.773 464.487h-.119l-.118-.017M382.536 464.453v.017M382.213 464.453l-.12-.017h-.119M381.975 464.402v.033M380.77 464.3l-.29-.052-.254-.05-.22-.034-.187-.05-.17-.051-.132-.052-.12-.051-.07-.05-.052-.051-.017-.068M393.42 464.317l.05-.017h.271M392.84 464.368h.05l.069-.017h.22" style="fill:none;stroke:red;stroke-width:.999997;stroke-linecap:round;stroke-linejoin:round;stroke-miterlimit:4;stroke-dasharray:none;stroke-opacity:1;visibility:visible"/><path d="M383.385 464.521h.321l.039.017M382.773 464.487h.34M382.213 464.453l.068-.017h.135l.068.017h.052M381.687 464.402h.288M381.195 464.351h.27M380.77 464.3l.05-.017h.067l.072.017h.05M395.336 464.045h.203M394.93 464.114h.239M394.471 464.182h.27M393.979 464.25h.05l.089-.017h.149" style="fill:none;stroke:red;stroke-width:.999997;stroke-linecap:round;stroke-linejoin:round;stroke-miterlimit:4;stroke-dasharray:none;stroke-opacity:1;visibility:visible"/><path d="M379.242 462.077v-.204l.019-.187.049-.186.052-.187.07-.17.065-.153.105-.169.1-.136.1-.136.12-.119.121-.118.115-.103.12-.084.119-.068.118-.068.12-.05.135-.069.117-.052.12-.05.12-.034.271-.068.272-.068.288-.05.31-.068.283-.035.327-.05.32-.035.343-.034.302-.033.308-.017.32-.034.339-.017.344-.017.352-.018.359-.016.372-.017.372-.017.378-.018h.37l.39-.017h1.855l.353.017h.356l.343.018.337.017.323.017.321.016.323.018.29.017.303.017.29.034.27.033.258.017.253.034.22.034.272.051.237.05.255.069.29.085.32.136.358.204.101.085.119.084.103.102.118.12.102.117.101.153.105.154.064.153.07.17.05.169.051.186.017.187.022.187M396.61 463.587l-.016-1.73M379.259 463.791l-.017-1.715" style="fill:none;stroke:red;stroke-width:1.99999;stroke-linecap:round;stroke-linejoin:round;stroke-miterlimit:4;stroke-dasharray:none;stroke-opacity:1;visibility:visible"/><path d="m379.259 464.012.019-.068.014-.068M396.575 463.656l.033.153" style="fill:none;stroke:red;stroke-width:.999997;stroke-linecap:round;stroke-linejoin:round;stroke-miterlimit:4;stroke-dasharray:none;stroke-opacity:1;visibility:visible"/><path d="m379.276 465.013-.017-1.001M396.627 464.793l-.019-.984" style="fill:none;stroke:red;stroke-width:1.99999;stroke-linecap:round;stroke-linejoin:round;stroke-miterlimit:4;stroke-dasharray:none;stroke-opacity:1;visibility:visible"/><path d="M601.435 446.526h.068v.033M601.385 446.458h.019v.035M601.367 444.76v-.17l.021-.051v-.051" style="fill:none;stroke:red;stroke-width:.999997;stroke-linecap:round;stroke-linejoin:round;stroke-miterlimit:4;stroke-dasharray:none;stroke-opacity:1;visibility:visible"/><path d="m601.47 444.115-.017.052-.014.067-.02.05-.017.052v.086l-.015.066M601.367 444.76v1.663" style="fill:none;stroke:red;stroke-width:1.99999;stroke-linecap:round;stroke-linejoin:round;stroke-miterlimit:4;stroke-dasharray:none;stroke-opacity:1;visibility:visible"/><path d="M618.057 444.658v-.22l-.019-.068v-.05M618.005 446.424v-.033M618.005 446.424l-.017.017-.014.016M617.903 446.492v-.035M617.903 446.492l-.03.017-.038.016" style="fill:none;stroke:red;stroke-width:.999997;stroke-linecap:round;stroke-linejoin:round;stroke-miterlimit:4;stroke-dasharray:none;stroke-opacity:1;visibility:visible"/><path d="m618.057 444.658.017 1.647" style="fill:none;stroke:red;stroke-width:1.99999;stroke-linecap:round;stroke-linejoin:round;stroke-miterlimit:4;stroke-dasharray:none;stroke-opacity:1;visibility:visible"/><path d="M618.057 446.356v-.052M618.057 446.356v.017M608.736 447.204h-.29M608.04 447.204h-.29M607.75 447.204h0M617.734 446.56v-.033M617.734 446.56l-.152.05-.188.051-.22.051-.239.05-.284.035-.29.051-.322.035-.36.05-.357.035-.39.033-.405.034-.442.034-.44.018-.46.033-.478.017-.474.016-.491.018-.51.017M610.824 447.204h-.288M610.127 447.204h-.288M609.432 447.222h-.29M607.361 447.187l-.493-.017-.476-.016-.456-.018-.46-.017-.422-.033-.428-.018-.39-.033-.372-.035-.358-.033-.34-.035-.305-.05-.27-.034-.257-.05-.22-.035-.204-.05-.169-.053-.132-.05-.105-.051M601.435 446.526l-.017-.017-.014-.016M601.385 446.458l-.019-.017v-.016M617.903 446.458h.07M617.734 446.526h.101M610.824 447.204l.019-.017h.12l.081-.016.085.016h.106M610.127 447.204h.033l.052-.017h.22l.07.017h.037M609.432 447.222l.033-.017h.378M608.736 447.204h.372l.037.017M608.04 447.204h.05l.051-.017h.239l.05.017h.02M607.361 447.187h.117l.07-.017.084.017h.101l.017.017M618.057 446.305h.017M618.005 446.39l.021-.017h.031" style="fill:none;stroke:red;stroke-width:.999997;stroke-linecap:round;stroke-linejoin:round;stroke-miterlimit:4;stroke-dasharray:none;stroke-opacity:1;visibility:visible"/><path d="m601.47 444.115.05-.17.089-.169.081-.153.085-.152.119-.12.104-.119.116-.118.12-.102.119-.085.118-.068.102-.068.12-.05.12-.051.1-.051.118-.035.102-.033.221-.068.204-.052.22-.05.239-.034.258-.052.271-.033.285-.034.288-.034.307-.034.305-.017.306-.033.342-.018.34-.017.354-.016.358-.017.355-.018.356-.017h.356l.376-.017h.73l.354-.016h.357l.356.016h.696l.356.017h.327l.337.017.323.018.321.017.306.016.288.017.289.018.29.033.27.017.255.034.257.017.219.033.22.035.204.033.204.035.186.05.188.051.186.052.186.068.152.067.171.085.17.102.17.136.119.085.101.101.103.119.101.136.084.119.085.153.068.153.051.152.05.171.037.152" style="fill:none;stroke:red;stroke-width:1.99999;stroke-linecap:round;stroke-linejoin:round;stroke-miterlimit:4;stroke-dasharray:none;stroke-opacity:1;visibility:visible"/><path d="M601.367 446.628v-.068l.035-.068v-.017M618.023 446.39l.033.033.016.103" style="fill:none;stroke:red;stroke-width:.999997;stroke-linecap:round;stroke-linejoin:round;stroke-miterlimit:4;stroke-dasharray:none;stroke-opacity:1;visibility:visible"/><path d="M601.367 447.578v-.95M618.072 447.493v-.968" style="fill:none;stroke:red;stroke-width:1.99999;stroke-linecap:round;stroke-linejoin:round;stroke-miterlimit:4;stroke-dasharray:none;stroke-opacity:1;visibility:visible"/><path d="m474.229 795.57.033.032.016.036.019.05M468.726 795.723v-.05l.021-.034.031-.052M472.599 796.69l-.252.017-.275.016-.273.018h-.83l-.271-.018-.274-.016M474.297 796.148l-.019.068-.033.05-.068.051-.083.051-.12.052-.136.05-.17.051-.171.035-.203.05-.221.034-.22.017-.25.034M470.424 796.708l-.237-.032-.235-.019-.207-.033-.204-.035-.185-.05-.153-.035-.152-.05-.1-.051-.106-.051-.064-.052-.037-.05-.015-.069M472.428 794.79l.204.017.205.034.202.034.17.034.152.033.138.035.1.05.085.035.068.05M469.253 795.146l.068-.05.084-.051.12-.052.152-.035.17-.05.17-.034.22-.033.208-.018.233-.034.238-.016.256-.018h.765l.252.018.239.016M474.297 795.69v.459M468.726 795.723v.459M473.752 795.113l.476.459M469.253 795.146l-.473.441M591.997 831.596l.05.052.018.05.017.05M586.19 831.731l.02-.05.013-.051.036-.052M590.265 832.818l-.272.017-.272.015-.288.017h-.592l-.29-.017-.271-.015-.27-.017M592.081 832.24l-.017.052-.052.067-.067.068-.084.05-.137.052-.136.051-.17.05-.2.051-.206.035-.236.052-.24.016-.27.035M588.007 832.818l-.272-.033-.239-.036-.237-.034-.203-.05-.204-.035-.17-.05-.136-.051-.134-.07-.086-.05-.067-.066-.052-.053-.016-.067M590.027 830.747l.241.033.22.018.22.05.184.036.17.032.157.051.115.052.106.05.064.051M586.75 831.12l.085-.07.103-.05.133-.05.172-.051.186-.034.204-.05.238-.034.254-.018.256-.034h.27l.272-.017h.56l.271.017.272.018M592.081 831.748v.492M586.19 831.731v.492M591.505 831.12l.492.473M586.75 831.12l-.492.459M375.864 864.19l.05.052.033.05v.051M369.854 864.412v-.05l.033-.051.036-.051M374.08 865.515l-.27.033-.307.018-.284.017h-.904l-.288-.017-.272-.018M375.966 864.853l-.019.068-.049.07-.068.065-.103.069-.118.067-.154.05-.184.07-.205.05-.221.051-.239.033-.253.035-.272.033M371.755 865.549l-.27-.032-.271-.019-.24-.05-.22-.035-.202-.05-.17-.051-.17-.051-.121-.068-.1-.067-.07-.052-.05-.068-.017-.068M373.962 863.342l.255.017.238.035.204.05.186.035.17.05.139.052.115.068.085.052M370.432 863.766l.083-.068.105-.05.133-.069.171-.05.185-.051.206-.035.237-.05.24-.034.252-.016.27-.018.29-.018.27-.014h.291l.271.014h.272l.253.036M375.948 864.344l.021.51M369.854 864.412v.527M375.354 863.698l.51.492M370.432 863.766l-.51.493M265.208 824.991l.033.05.035.034v.052M259.504 825.247v-.05l.035-.053.036-.034M263.527 826.214l-.272.033-.27.019-.29.016h-1.137l-.272-.016M265.293 825.62l-.017.052-.034.067-.068.05-.101.068-.12.052-.133.051-.168.05-.191.051-.2.052-.24.035-.239.032-.254.035M261.286 826.265l-.252-.017-.24-.035-.221-.032-.22-.035-.187-.034-.17-.051-.131-.05-.123-.051-.099-.052-.07-.066-.052-.052v-.069M263.476 824.227l.221.017.203.034.207.034.17.034.15.034.121.051.1.05.07.053M260.047 824.635l.068-.068.123-.05.116-.051.169-.052.17-.051.205-.033.221-.052.253-.034.238-.017.27-.016.272-.017.272-.018h.271l.272.018h.255l.254.033M265.276 825.127l.02.492M259.504 825.247l.02.473M264.716 824.533l.492.459M260.047 824.635l-.472.475M165.912 789.816l.032.068.017.05M160.478 790.07l.02-.05.03-.069M164.315 790.952l-.252.017-.275.034h-.272l-.272.017h-.814l-.254-.017M165.98 790.393l-.019.05-.033.069-.068.05-.083.052-.118.051-.138.05-.153.051-.17.035-.202.05-.205.034-.236.036-.239.032M162.176 791.003l-.252-.017-.22-.015-.223-.036-.188-.033-.186-.035-.154-.033-.136-.051-.116-.033-.086-.052-.07-.051-.05-.05v-.069M164.297 789.12l.204.017.208.016.17.035.15.033.135.036.118.05.087.033.067.052M160.987 789.51l.068-.05.085-.053.118-.05.14-.051.149-.035.19-.05.2-.034.203-.034.239-.016.241-.018.234-.017.256-.015h.732l.236.015.218.017M165.961 789.934l.021.459M160.478 790.07l.02.459M165.435 789.391l.476.423M160.987 789.51l-.459.441M368.105 763.094l.035.05.016.051M362.876 763.264l.019-.052.032-.05M366.578 764.147l-.252.017-.259.016h-.27l-.272.019h-.527l-.253-.019-.252-.016M368.173 763.637l-.017.05-.034.053-.068.049-.084.05-.102.051-.136.052-.151.035-.17.032-.189.036-.202.033-.22.032-.22.036M364.49 764.163l-.237-.019-.204-.014-.22-.036-.188-.032-.17-.036-.153-.032-.133-.052-.104-.034-.086-.05-.068-.052-.032-.051-.018-.052M366.441 762.38l.204.017.187.034.17.017.152.033.152.036.12.032.084.034.086.05.05.035M363.37 762.72l.068-.05.083-.035.12-.052.137-.034.152-.05.19-.034.2-.034.203-.016.238-.018.24-.016.236-.018.254-.016h.24l.254.016h.238l.22.018M368.156 763.196l.019.441M362.876 763.264v.441M367.647 762.67l.459.423M363.37 762.72l-.443.441M401.159 869.097l2.972.119M160.92 788.27l4.296-2.953.712-.086M167.862 784.587l2.636.084M170.495 784.671l.05.017h.051l.038.016M170.783 791.767l-.15-7.063M587.684 841.188l3.548-4.568M591.232 836.62l.033-.017.051-.015h.157l1.983.065M356.034 763.942l.035.017h.118M335.969 762.856l18.607.644 1.458.441M356.713 763.891l.29-.05M356.187 763.96l.528-.068M358.497 777.915h0v.017l-.935.78M357.562 778.713l-.03.017-.053.015h-.137l-25.788-.915M331.198 763.535h.019M331.555 777.83l-.068-.019h-.033l-.036-.014h-.015M331.215 763.535l.644-.527M333.812 763.145l2.156-.288M331.4 777.796l-.201-14.261M349.057 411.01v-.017M349.057 411.01h-.083l-.105.017M348.599 411.044v-.017M348.599 411.044l-.101.016h-.099M351.366 410.5v.033l-.05.035-.051.035-.086.05-.101.034-.132.034-.157.034-.17.033-.204.035M350.23 410.857v-.017M350.23 410.857l-.068.017-.068.016M349.89 410.908v-.017M349.89 410.908l-.083.017h-.086M349.498 410.959v-.017M349.498 410.959l-.083.017h-.104M338.481 411.078v.017M338.65 411.112h-.083l-.086-.017M338.242 411.078h-.068l-.081-.017M338.091 411.044v.016M348.09 411.095v-.017M348.09 411.095l-.372.017-.41.034-.407.017-.406.017-.441.016-.427.018-.454.017-.444.016h-.899l-.46.017h-.883l-.441-.017h-.848l-.423-.016-.39-.017M340.383 411.213h0M340.078 411.197h-.221M339.857 411.18v.017M339.567 411.18h-.1l-.103-.017M339.363 411.146v.017M339.091 411.146h-.101l-.086-.017M338.905 411.112v.017M337.886 411.044l-.22-.035-.201-.033-.19-.035-.17-.033-.135-.033-.104-.035-.083-.035-.068-.033-.033-.033-.019-.052M348.599 411.027h.27M348.09 411.078l.05-.017h.255M340.078 411.197h.27l.035.017M339.567 411.18h.29M339.091 411.146h.272M338.65 411.112h.255M338.242 411.078h.243M337.886 411.044h.204" style="fill:none;stroke:red;stroke-width:.999997;stroke-linecap:round;stroke-linejoin:round;stroke-miterlimit:4;stroke-dasharray:none;stroke-opacity:1;visibility:visible"/><path d="M350.23 410.84h.068l.05-.017h.07M349.89 410.891h.084l.068-.017.052.017M349.498 410.942h.035l.068-.017h.118M349.057 410.993l.05-.017h.205" style="fill:none;stroke:red;stroke-width:.999997;stroke-linecap:round;stroke-linejoin:round;stroke-miterlimit:4;stroke-dasharray:none;stroke-opacity:1;visibility:visible"/><path d="M336.647 409.227v-.152l.019-.17.032-.154.034-.152.067-.136.052-.136.084-.135.085-.12.086-.118.102-.102.102-.102.101-.084.101-.068.106-.068.082-.052.102-.034.118-.068.119-.033.12-.05.203-.053.204-.05.22-.034.204-.034.221-.034.221-.033.24-.035.222-.017.22-.017.234-.034.255-.017.239-.017.253-.016.272-.018.27-.017.274-.016h.27l.289-.017.308-.018h.302l.323-.017h.628l.323-.016h.917l.307.016h.597l.285.017h.272l.274.018h.27l.252.017.239.016.253.017.222.018.221.016.22.034.208.018.183.033.208.035.2.033.19.035.17.05.184.067.137.052.133.068.086.033.084.068.088.052.1.084.101.086.101.101.088.119.082.102.089.119.048.136.068.136.053.152.031.153.033.17v.169M351.366 410.5l-.017-1.477M336.664 410.687l-.017-1.46" style="fill:none;stroke:red;stroke-width:1.99999;stroke-linecap:round;stroke-linejoin:round;stroke-miterlimit:4;stroke-dasharray:none;stroke-opacity:1;visibility:visible"/><path d="M336.664 410.874v-.05l.019-.053.014-.016M351.332 410.551l.033.119M336.68 411.723l-.017-.85M351.383 411.52l-.017-.85M144.044 424.948v-.017M144.044 424.948h-.101l-.12.017M143.535 424.982v-.017M143.535 424.982l-.119.017h-.101M146.794 424.337l-.017.05-.032.034-.07.052-.081.033-.123.051-.136.033-.153.035-.185.05-.204.035-.239.051M145.352 424.778v-.017M145.352 424.778l-.083.017-.086.018M144.944 424.846v-.033M144.944 424.846h-.083l-.088.017M144.52 424.897v-.017M144.52 424.897h-.101l-.1.017M133.094 425.015v.017M133.263 425.05h-.083l-.086-.017M132.873 425.015l-.068-.017h-.08M132.721 424.965v.033M142.992 425.033v-.017M142.992 425.033l-.41.017-.423.034-.44.017-.459.035-.441.016-.46.017-.474.017h-.458l-.475.018h-.476l-.456.017h-.92l-.459-.017h-.424l-.441-.018h-.407l-.405-.017M134.961 425.152v.017M134.656 425.152h-.101l-.1-.017M134.453 425.118v.017M134.164 425.118h-.201M133.96 425.084v.033M133.688 425.084h-.187M133.501 425.05v.033M132.534 424.965l-.221-.017-.187-.034-.152-.033-.135-.052-.117-.033-.087-.035-.069-.033-.05-.051v-.035M143.535 424.965h.29M142.992 425.015h.033l.052-.017h.238M134.656 425.152h.07l.069-.017h.064l.068.017h.034M134.164 425.118h.29M133.688 425.084h.272M133.263 425.05h.24M132.873 425.015h.221M132.534 424.965h.19M145.352 424.761h.203M144.944 424.812h.241M144.52 424.88l.05-.017h.203M144.044 424.931l.033-.017h.238" style="fill:none;stroke:red;stroke-width:.999997;stroke-linecap:round;stroke-linejoin:round;stroke-miterlimit:4;stroke-dasharray:none;stroke-opacity:1;visibility:visible"/><path d="m131.464 423.115.021-.17.012-.153.019-.169.05-.153.051-.154.068-.134.086-.136.084-.136.085-.119.105-.101.116-.103.106-.084.098-.085.102-.068.101-.051.09-.05.131-.053.138-.05.12-.051.22-.068.234-.05.256-.053.22-.033.222-.033.254-.035.258-.033.234-.018.238-.034.254-.016.255-.035.272-.016.27-.017.29-.018.29-.017.322-.016.321-.017.34-.018.323-.017h.339l.34-.017h.645l.325-.016h.966l.308.016h.59l.307.017h.275l.27.017.272.018.27.017.24.016.252.017.221.018.22.017.188.016.185.035.17.016.169.034.17.034.17.034.153.051.17.05.186.086.12.05.135.069.136.102.101.084.12.102.102.102.101.119.088.119.081.136.07.118.05.154.051.152.05.153.02.17.018.17M146.794 424.337l-.03-1.51M131.516 424.643l-.052-1.528M397.832 589.267v1.205l.019.204v.22l.014.204.035.391.017.357.034.339.033.323.037.34.015.321.017.323.019.305" style="fill:none;stroke:red;stroke-width:1.99999;stroke-linecap:round;stroke-linejoin:round;stroke-miterlimit:4;stroke-dasharray:none;stroke-opacity:1;visibility:visible"/><path d="m332.776 762.958.021.017M505.692 579.172c-.204.981-.964 1.653-1.695 1.5-.727-.152-1.157-1.072-.947-2.053.201-.982.96-1.654 1.69-1.502.73.154 1.156 1.074.952 2.055" style="fill:none;stroke:red;stroke-width:.999997;stroke-linecap:round;stroke-linejoin:round;stroke-miterlimit:4;stroke-dasharray:none;stroke-opacity:1;visibility:visible"/><path d="m248.708 521.556-.22-.053-.2-.022-.208-.018-.181-.02-.191-.003-.221.013" style="fill:none;stroke:red;stroke-width:.666665;stroke-linecap:round;stroke-linejoin:round;stroke-miterlimit:4;stroke-dasharray:1.23066,1.23066;stroke-dashoffset:0;stroke-opacity:1;visibility:visible"/><path d="M247.471 521.454h.019" style="fill:none;stroke:red;stroke-width:.666665;stroke-linecap:round;stroke-linejoin:round;stroke-miterlimit:4;stroke-dasharray:.0173333,.0173333;stroke-dashoffset:0;stroke-opacity:1;visibility:visible"/><path d="m248.707 521.558-.237-.055-.235-.02-.188-.02-.201-.02-.19-.003-.186.015c-3.513-.14-3.89 8.564-1.624 10.678" style="fill:none;stroke:red;stroke-width:.666665;stroke-linecap:round;stroke-linejoin:round;stroke-miterlimit:4;stroke-dasharray:none;stroke-opacity:1;visibility:visible"/><path d="M398.551 552.684c-.019 2.326-4.305 4.32-9.576 4.456-5.27.136-9.528-1.637-9.51-3.963l-.125-11.793c-.017 2.324 4.398 4.123 9.667 3.987 5.27-.138 9.559-2.132 9.575-4.458l-.031 11.771" style="fill:none;fill-opacity:1;fill-rule:nonzero;stroke:red;stroke-width:1.33333;visibility:visible"/><path d="M398.551 552.684c-.019 2.326-4.305 4.32-9.576 4.456-5.27.136-9.528-1.637-9.51-3.963l-.125-11.793c-.017 2.324 4.398 4.123 9.667 3.987 5.27-.138 9.559-2.132 9.575-4.458l-.031 11.771" style="fill:none;stroke:red;stroke-width:.999997;stroke-linecap:butt;stroke-linejoin:miter;stroke-miterlimit:10;stroke-dasharray:none;stroke-opacity:1;visibility:visible"/><path d="M353.136 497.81c-.025 1.643-3.516 3.055-7.798 3.154-4.282.099-7.73-1.151-7.71-2.794l-.088-8.89c-.026 1.64 3.55 2.907 7.832 2.81 4.286-.1 7.774-1.512 7.798-3.154l-.034 8.874" style="fill:none;fill-opacity:1;fill-rule:nonzero;stroke:red;stroke-width:1.33333;visibility:visible"/><path d="M353.136 497.81c-.025 1.643-3.516 3.055-7.798 3.154-4.282.099-7.73-1.151-7.71-2.794l-.088-8.89c-.026 1.64 3.55 2.907 7.832 2.81 4.286-.1 7.774-1.512 7.798-3.154l-.034 8.874" style="fill:none;stroke:red;stroke-width:.999997;stroke-linecap:butt;stroke-linejoin:miter;stroke-miterlimit:10;stroke-dasharray:none;stroke-opacity:1;visibility:visible"/><path d="M166.834 789.865c0 1.345-1.762 2.438-3.944 2.438-2.18 0-3.945-1.092-3.945-2.438 0-1.348 1.765-2.439 3.945-2.439 2.182 0 3.944 1.09 3.944 2.439" style="fill:none;fill-opacity:1;fill-rule:nonzero;stroke:red;stroke-width:1.33333;visibility:visible"/><path d="m162.185 789.749.4.253.628-.002.29-.244M160.677 789.614l-.445.416M164.934 789.63l.447.42M160.162 790.163v.438M165.445 790.18v.443M160.677 789.614l.072-.053.097-.047.124-.052.144-.042.164-.04.194-.034.204-.031.216-.023.234-.018.244-.019.24-.004h.256l.242.005.244.011.237.019.227.024M163.814 789.308l.202.028.188.029.176.035.153.042.137.042.116.046.086.046.062.053M161.786 791.145l-.233-.025-.223-.034-.21-.034-.194-.038-.166-.044-.16-.048-.125-.047-.111-.052-.09-.052-.066-.059-.034-.052-.012-.059M165.445 790.624l-.012.053-.04.057-.065.053-.088.054-.103.052-.137.046-.16.047-.166.042-.194.039-.212.029-.222.031-.232.024M163.814 791.15l-.248.017-.25.018-.251.005h-.269l-.256-.005-.254-.006-.254-.017-.246-.017M160.162 790.163l.006-.046.022-.041.043-.048M165.38 790.052l.035.039.022.049.008.042" style="fill:none;stroke:red;stroke-width:.666665;stroke-linecap:round;stroke-linejoin:round;stroke-miterlimit:4;stroke-dasharray:none;stroke-opacity:1;visibility:visible"/><path d="M266.08 824.72c0 1.345-1.761 2.436-3.942 2.436-2.181.001-3.948-1.089-3.948-2.437.001-1.349 1.767-2.438 3.947-2.438 2.181-.001 3.943 1.089 3.943 2.438" style="fill:none;fill-opacity:1;fill-rule:nonzero;stroke:red;stroke-width:1.33333;visibility:visible"/><path d="m261.431 824.6.399.256.628-.003.29-.244M259.923 824.467l-.445.416M264.182 824.485l.447.418M259.411 825.015v.44M264.693 825.034v.444M259.923 824.467l.072-.053.098-.047.124-.052.143-.04.165-.041.193-.037.204-.029.216-.021.235-.017.242-.02.242-.004h.256l.242.004.243.012.237.018.227.022M263.062 824.16l.201.03.188.03.176.033.154.044.137.04.116.046.085.047.063.053M261.033 825.997l-.234-.024-.222-.035-.211-.035-.193-.033-.167-.048-.159-.048-.126-.047-.111-.052-.09-.052-.066-.06-.033-.052-.011-.058M264.693 825.478l-.013.053-.04.059-.065.05-.085.055-.105.051-.138.047-.157.046-.17.043-.193.04-.212.028-.221.03-.232.026M263.062 826.003l-.248.018-.25.016-.252.006h-.269l-.256-.006-.253-.007-.255-.015-.245-.017M259.411 825.015l.004-.045.025-.041.041-.049M264.629 824.905l.033.04.023.045.008.044" style="fill:none;stroke:red;stroke-width:.666665;stroke-linecap:round;stroke-linejoin:round;stroke-miterlimit:4;stroke-dasharray:none;stroke-opacity:1;visibility:visible"/><path d="M369.587 762.584c0 1.346-1.763 2.438-3.944 2.438-2.18 0-3.945-1.092-3.945-2.438 0-1.348 1.765-2.44 3.945-2.44 2.181.001 3.944 1.093 3.944 2.441" style="fill:none;fill-opacity:1;fill-rule:nonzero;stroke:red;stroke-width:1.33333;visibility:visible"/><path d="m364.938 762.468.398.252.628-.002.291-.242M363.43 762.333l-.446.415M367.688 762.349l.446.42M362.915 762.88v.439M368.2 762.898v.444M363.43 762.333l.07-.053.1-.047.121-.053.146-.042.164-.04.193-.034.204-.031.216-.021.236-.018.242-.02.241-.004h.257l.24.004.244.012.238.019.226.023" style="fill:none;stroke:red;stroke-width:.666665;stroke-linecap:round;stroke-linejoin:round;stroke-miterlimit:4;stroke-dasharray:none;stroke-opacity:1;visibility:visible"/><path d="m366.568 762.028.202.028.188.03.176.034.153.042.137.042.116.046.086.046.064.053M364.54 763.864l-.235-.026-.222-.032-.21-.036-.193-.036-.166-.044-.159-.05-.13-.046-.108-.052-.091-.052-.066-.06-.033-.052-.012-.058M368.2 763.342l-.014.054-.039.057-.065.052-.087.055-.104.052-.137.046-.159.047-.168.041-.193.04-.21.03-.224.029-.232.025M366.568 763.868l-.246.017-.25.017-.255.008h-.267l-.256-.008-.254-.005-.254-.017-.246-.018M362.915 762.88l.005-.045.023-.042.043-.048M368.134 762.77l.033.042.023.045.008.043" style="fill:none;stroke:red;stroke-width:.666665;stroke-linecap:round;stroke-linejoin:round;stroke-miterlimit:4;stroke-dasharray:none;stroke-opacity:1;visibility:visible"/><path d="M475.388 795.11c0 1.347-1.763 2.44-3.944 2.44-2.18-.001-3.944-1.093-3.944-2.44-.001-1.348 1.764-2.439 3.944-2.439 2.181 0 3.944 1.091 3.944 2.44" style="fill:none;fill-opacity:1;fill-rule:nonzero;stroke:red;stroke-width:1.33333;visibility:visible"/><path d="m470.737 794.995.4.255.627-.004.291-.243M469.23 794.86l-.447.413M473.488 794.877l.447.42M468.716 795.409v.438M473.999 795.426v.444M469.23 794.86l.07-.055.1-.045.123-.053.144-.042.163-.04.194-.035.204-.03.216-.023.236-.016.24-.021.243-.005h.256l.241.006.244.012.237.017.227.024M472.368 794.554l.202.028.187.03.176.035.154.043.137.04.116.047.085.045.063.053M470.34 796.39l-.233-.025-.223-.032-.21-.036-.194-.037-.167-.046-.158-.047-.128-.046-.108-.052-.092-.052-.065-.06-.034-.052-.012-.059M473.999 795.87l-.012.053-.04.058-.067.052-.084.054-.105.053-.138.046-.158.047-.168.041-.194.04-.212.03-.22.028-.234.026M472.368 796.395l-.247.018-.25.017-.254.007h-.267l-.257-.007-.253-.005-.255-.018-.245-.017M468.716 795.409l.005-.047.024-.041.042-.048M473.935 795.297l.033.041.023.045.008.043" style="fill:none;stroke:red;stroke-width:.666665;stroke-linecap:round;stroke-linejoin:round;stroke-miterlimit:4;stroke-dasharray:none;stroke-opacity:1;visibility:visible"/><path d="M592.843 831.357c0 1.346-1.763 2.438-3.944 2.438-2.18 0-3.946-1.092-3.946-2.438 0-1.35 1.767-2.439 3.947-2.439s3.943 1.09 3.943 2.439" style="fill:none;fill-opacity:1;fill-rule:nonzero;stroke:red;stroke-width:1.33333;visibility:visible"/><path d="m588.193 831.24.399.256.63-.003.288-.244M586.685 831.105l-.445.415M590.944 831.122l.446.419M586.172 831.654v.439M591.453 831.671v.444M586.685 831.105l.072-.055.098-.045.124-.052.144-.043.164-.039.193-.036.204-.029.216-.023.235-.017.242-.019.243-.005h.255l.24.005.245.013.237.017.227.022M589.824 830.8l.201.03.188.03.177.033.153.044.137.04.116.046.084.047.064.053M587.795 832.635l-.235-.024-.22-.034-.212-.035-.193-.035-.167-.046-.159-.048-.128-.047-.108-.052-.092-.052-.065-.06-.033-.052-.013-.059M591.453 832.115l-.012.055-.04.056-.065.052-.086.055-.105.05-.137.047-.159.047-.168.042-.193.041-.212.027-.221.031-.232.024M589.824 832.64l-.248.019-.25.015-.252.007h-.269l-.255-.007-.254-.004-.256-.017-.244-.018M586.172 831.654l.005-.047.024-.04.042-.047M591.39 831.543l.032.04.023.047.008.043" style="fill:none;stroke:red;stroke-width:.666665;stroke-linecap:round;stroke-linejoin:round;stroke-miterlimit:4;stroke-dasharray:none;stroke-opacity:1;visibility:visible"/><path d="M377.058 863.951c0 1.347-1.764 2.439-3.944 2.439-2.18 0-3.946-1.092-3.946-2.439 0-1.348 1.766-2.438 3.946-2.438s3.944 1.09 3.944 2.437" style="fill:none;fill-opacity:1;fill-rule:nonzero;stroke:red;stroke-width:1.33333;visibility:visible"/><path d="m372.407 863.835.399.255.63-.004.287-.243M370.9 863.7l-.445.416M375.158 863.717l.446.421M370.386 864.25v.439M375.668 864.267v.444M370.9 863.7l.072-.052.098-.047.124-.052.144-.043.164-.04.193-.035.205-.03.215-.022.235-.017.242-.02.242-.004h.254l.243.004.244.012.236.019.229.022M374.04 863.395l.2.028.188.031.176.033.154.043.137.041.116.047.085.047.064.052M372.01 865.231l-.234-.025-.222-.033-.21-.035-.194-.036-.167-.047-.159-.045-.126-.048-.11-.052-.092-.052-.065-.06-.033-.052-.012-.059M375.668 864.711l-.012.054-.04.057-.065.053-.087.055-.104.05-.137.047-.159.047-.168.041-.193.04-.212.03-.221.029-.232.025M374.04 865.237l-.25.017-.249.017-.252.007h-.269l-.256-.007-.253-.005-.255-.017-.245-.019M370.386 864.25l.004-.047.024-.041.042-.048M375.604 864.138l.034.041.022.046.008.042" style="fill:none;stroke:red;stroke-width:.666665;stroke-linecap:round;stroke-linejoin:round;stroke-miterlimit:4;stroke-dasharray:none;stroke-opacity:1;visibility:visible"/><path d="m349.784 760.245 32.987 10.135M601.927 838.471l-201.82-62.066M148.34 786.472l235.808 83.882" style="fill:none;stroke:red;stroke-width:.999997;stroke-linecap:round;stroke-linejoin:round;stroke-miterlimit:4;stroke-dasharray:none;stroke-opacity:1;visibility:visible"/><path d="m342.103 769.684-.28.28M340.716 771.053l.126-.105.104-.123.14-.125.122-.12.144-.14.138-.142.157-.16.176-.173M339.91 771.84l.086-.085.107-.107.108-.088.084-.104.105-.087.104-.107.107-.105.104-.105M345.226 772.106l-.456-1.614M344.771 770.492l-1.667-.51M345.678 772.689l.128-.15.124-.183.097-.178.067-.178.048-.206.033-.206.021-.204-.024-.204-.022-.204-.052-.203M346.098 770.773l-.082-.199-.096-.188-.109-.186-.135-.155-.156-.155-.15-.14-.18-.122-.179-.11-.196-.08-.205-.066M344.61 769.372l-.206-.034-.208-.022-.205-.006-.2.023-.207.052-.2.067-.186.08-.17.11-.158.123-.155.137M344.138 774.545l.158-.176.16-.21.121-.211.089-.209.07-.248.051-.246.039-.245-.02-.246-.018-.244-.053-.246M344.736 772.264l-.084-.247-.11-.227-.12-.228-.158-.192-.176-.194-.176-.176-.208-.158-.214-.14-.226-.105-.248-.088" style="fill:none;stroke:red;stroke-width:.666665;stroke-linecap:round;stroke-linejoin:round;stroke-miterlimit:4;stroke-dasharray:none;stroke-opacity:1;visibility:visible"/><path d="m343.015 770.508-.245-.052-.247-.036-.245-.018-.242.019-.25.052-.243.067-.227.09-.214.123-.192.141-.195.156M345.526 773.176l-.3-1.072M343.104 769.982l-1-.3M342.103 769.684l-1.843 1.805M340.172 771.578h0M340.716 771.053l-.156.176-.14.19-.12.215-.11.224-.067.248-.053.228-.02.262v.248l.036.244.052.246" style="fill:none;stroke:red;stroke-width:.666665;stroke-linecap:round;stroke-linejoin:round;stroke-miterlimit:4;stroke-dasharray:none;stroke-opacity:1;visibility:visible"/><path d="m340.138 773.334.072.247.102.225.14.214.143.209.177.191.19.177.197.157.228.123.224.123.229.07M341.84 775.07l.247.07.243.037h.262l.248-.019.248-.034.224-.071.228-.088.215-.123.208-.138.177-.16M340.172 771.578h0M340.172 771.578l.088-.086M347.003 773.388l.21-.228.177-.23.14-.262.122-.263.104-.281.071-.3.053-.298.018-.296v-.317l-.034-.299-.069-.3-.09-.296-.121-.281-.141-.28-.177-.264-.19-.245-.213-.23-.225-.21-.25-.174-.262-.177-.28-.14-.282-.123-.3-.09-.293-.05-.303-.036-.313-.018-.301.037-.298.052-.28.07-.281.107-.279.12-.248.159-.246.175-.21.194M344.58 774.43l.175.01.301-.033.277-.054.282-.07.281-.103.266-.126.242-.14.23-.174.21-.195M342.088 768.737l-.193.228-.172.228-.143.244-.14.248-.102.28-.074.281M340.366 771.402l-.032-.017M340.331 771.386l-.159.194M340.383 771.264l.088.033M340.172 771.578h0" style="fill:none;stroke:red;stroke-width:.666665;stroke-linecap:round;stroke-linejoin:round;stroke-miterlimit:4;stroke-dasharray:none;stroke-opacity:1;visibility:visible"/><path d="m341.84 775.07-.14-.033-.16-.053-.14-.072-.156-.052-.142-.07-.14-.086-.155-.072-.163-.106M343.314 775.334l-.21-.02-.208-.016-.196-.036-.192-.032-.176-.036-.157-.037-.175-.033-.158-.054M344.138 774.545l-.104.105-.104.104-.104.106-.104.089-.11.105-.089.087-.103.105-.106.09M345.244 773.456l-.176.176-.157.157-.139.14-.142.141-.138.123-.125.124-.104.121-.125.106M345.526 773.176l-.282.28M340.172 771.578l-.26.263M340.138 773.334l-.034-.157-.052-.159-.037-.174-.015-.176-.038-.195-.018-.193-.016-.21-.018-.227M340.646 774.526l-.084-.138-.074-.16-.068-.14-.07-.158-.069-.14-.053-.158-.038-.14-.052-.159" style="fill:none;stroke:red;stroke-width:.666665;stroke-linecap:round;stroke-linejoin:round;stroke-miterlimit:4;stroke-dasharray:none;stroke-opacity:1;visibility:visible"/><path d="M133.018 536.321c-.204-1.401.48-2.664 1.532-2.818 1.051-.154 2.071.857 2.278 2.261.206 1.401-.482 2.664-1.534 2.817-1.052.155-2.07-.857-2.276-2.26" style="fill:none;fill-opacity:1;fill-rule:nonzero;stroke:red;stroke-width:1.33333;visibility:visible"/><path d="M133.018 536.321c-.204-1.401.48-2.664 1.532-2.818 1.051-.154 2.071.857 2.278 2.261.206 1.401-.482 2.664-1.534 2.817-1.052.155-2.07-.857-2.276-2.26" style="fill:none;stroke:red;stroke-width:.999997;stroke-linecap:round;stroke-linejoin:round;stroke-miterlimit:4;stroke-dasharray:none;stroke-opacity:1;visibility:visible"/><path d="m134.785 536.961.261-.876-.521-.797" style="fill:none;stroke:red;stroke-width:.999997;stroke-linecap:round;stroke-linejoin:round;stroke-miterlimit:4;stroke-dasharray:none;stroke-opacity:1;visibility:visible"/><path d="M380.354 591.188c-.204-1.403.48-2.664 1.53-2.819 1.052-.153 2.072.859 2.278 2.261.208 1.402-.48 2.665-1.532 2.818-1.052.153-2.07-.857-2.276-2.26" style="fill:none;fill-opacity:1;fill-rule:nonzero;stroke:red;stroke-width:1.33333;visibility:visible"/><path d="M380.354 591.188c-.204-1.403.48-2.664 1.53-2.819 1.052-.153 2.072.859 2.278 2.261.208 1.402-.48 2.665-1.532 2.818-1.052.153-2.07-.857-2.276-2.26" style="fill:none;stroke:red;stroke-width:.999997;stroke-linecap:round;stroke-linejoin:round;stroke-miterlimit:4;stroke-dasharray:none;stroke-opacity:1;visibility:visible"/><path d="m382.122 591.828.261-.876-.52-.797M384.42 892.746l4.013 3.284M401.992 891.575l-13.458 11.908M593.575 837.095l-3.291.748" style="fill:none;stroke:red;stroke-width:.999997;stroke-linecap:round;stroke-linejoin:round;stroke-miterlimit:4;stroke-dasharray:none;stroke-opacity:1;visibility:visible"/><path d="m382.771 770.38 17.302 2.78" style="fill:none;stroke:red;stroke-width:1.99999;stroke-linecap:round;stroke-linejoin:round;stroke-miterlimit:4;stroke-dasharray:none;stroke-opacity:1;visibility:visible"/><path d="m329.28 778.22 7.76-.203M166.834 789.865l5.783 2.548" style="fill:none;stroke:red;stroke-width:.999997;stroke-linecap:round;stroke-linejoin:round;stroke-miterlimit:4;stroke-dasharray:none;stroke-opacity:1;visibility:visible"/><path d="m148.34 786.47 6.723-3.208" style="fill:none;stroke:red;stroke-width:1.99999;stroke-linecap:round;stroke-linejoin:round;stroke-miterlimit:4;stroke-dasharray:none;stroke-opacity:1;visibility:visible"/><path d="m401.992 891.573-.467-18.417M591.232 836.62l2.12 3.702M593.575 837.095l1.799 2.921M376.016 893.612l8.387-2.479" style="fill:none;stroke:red;stroke-width:.999997;stroke-linecap:round;stroke-linejoin:round;stroke-miterlimit:4;stroke-dasharray:none;stroke-opacity:1;visibility:visible"/><path d="m366.204 762.688 16.705 5.176M593.54 837.13l8.388-2.258" style="fill:none;stroke:red;stroke-width:1.99999;stroke-linecap:round;stroke-linejoin:round;stroke-miterlimit:4;stroke-dasharray:none;stroke-opacity:1;visibility:visible"/><path d="m359.039 779.409-6.434-.833M400.31 793.635l-17.146-5.416M383.164 788.219l17.146 5.416M349.21 760.718l.033 2.596M349.21 760.717l-4.21 2.445" style="fill:none;stroke:red;stroke-width:.999997;stroke-linecap:round;stroke-linejoin:round;stroke-miterlimit:4;stroke-dasharray:none;stroke-opacity:1;visibility:visible"/><path d="m608.515 568.776-6.961 5.891M134.215 538.218l-.102-3.94M134.113 534.278l.102 3.94M247.487 521.453l-2.768 10.907M380.804 592.357l-.052-3.769M380.752 588.588l.052 3.769M353.108 540.386l.202 15.219M353.31 555.605l-.202-15.219M338.45 537.508l.209 15.052M343.71 518.881l-5.45 5.212M338.659 552.56l-.208-15.052" style="fill:none;stroke:red;stroke-width:1.99999;stroke-linecap:round;stroke-linejoin:round;stroke-miterlimit:4;stroke-dasharray:none;stroke-opacity:1;visibility:visible"/><path d="m163.959 789.425-3.039-1.155M595.374 837.69l-7.69 3.498" style="fill:none;stroke:red;stroke-width:.999997;stroke-linecap:round;stroke-linejoin:round;stroke-miterlimit:4;stroke-dasharray:none;stroke-opacity:1;visibility:visible"/><path d="m368.2 763.342 1.387-.758M368.2 762.898l1.387-.313M474.297 796.149l1.091-1.039M474.297 795.69l1.091-.579M375.947 864.343l1.111-.392M375.948 864.344l1.11-.394" style="fill:none;fill-opacity:1;fill-rule:nonzero;stroke:red;stroke-width:1.33333;visibility:visible"/><path d="m368.156 763.348 14.615 7.032M382.771 770.38l17.336 6.025M375.947 864.53l8.201 5.824" style="fill:none;stroke:red;stroke-width:.999997;stroke-linecap:round;stroke-linejoin:round;stroke-miterlimit:4;stroke-dasharray:none;stroke-opacity:1;visibility:visible"/><path d="m287.312 529.059 92.062 17.892M248.708 521.556l38.604 7.503M398.364 550.634l107.017 20.532M245.846 532.135c.216.201.456.342.719.412l132.833 26.63M398.324 562.96l63.587 12.773M398.364 550.634l-18.99-3.683M379.374 546.951l18.99 3.683M398.324 562.96l-18.926-3.783M379.398 559.177l18.926 3.783" style="fill:none;stroke:#00ff4a;stroke-width:1.99999;stroke-linecap:round;stroke-linejoin:round;stroke-miterlimit:4;stroke-dasharray:none;stroke-opacity:1;visibility:visible" visibility="hidden"/></svg>