<svg xmlns="http://www.w3.org/2000/svg" baseProfile="full" height="1122.52" preserveAspectRatio="xMinYMin meet" style="width:912px;height:1303px" width="793.701" xml:space="preserve"><path d="m618.559 844.626-4.607-1.46M618.525 845.126l.032-.5M612.712 861.905l1.573.513M618.471 852.687l-.032-.015-.007-.013.007-.012.032-.007-.007.047M618.533 845.126l-.033-.013-.008-.014.008-.013.033-.007-.008.047M621.033 845.92l-2.5-.795M618.533 845.08h0M615.471 844.373l-.127 8.613M615.471 844.373h0M615.345 852.986l.021.028.052.025.07.014.097.014M615.585 853.066l5.235.361M620.819 853.426h.09l.077-.008.052-.013.021-.026M621.012 852.9l-.06-.013-.076-.007-.059.007-1.005.186" style="fill:none;stroke:red;stroke-width:.999997;stroke-linecap:round;stroke-linejoin:round;stroke-miterlimit:4;stroke-dasharray:none;stroke-opacity:1;visibility:visible" visibility="hidden"/><path d="M619.811 853.073h-.099l-.054-.008-.047-.013-1.14-.366M618.471 852.64l2.584-.473M621.059 852.166l-.047.733M621.059 852.166l.02-6.233M621.078 845.933l-.045-.013M618.138 844.493l-2.433-.167M614.285 862.239h0M615.704 844.326h-.085l-.074.007-.054.013-.02.027M614.285 862.239l-.147 8.933M614.138 871.172l.02.02.047.027.078.02.096.006 5.22.367M619.599 871.612l.09.007.077-.014.053-.013.02-.02M621.059 853.38v-.453M621.059 852.926l-.013-.015-.034-.013M615.471 844.373l-1.188 17.865M621.059 853.38l-1.22 18.193M414.426 896.933v-.233M410.553 895.106l-.2.207-.167.233-.14.247-.1.273-.066.28-.027.28.012.293.048.287.087.273.126.267.16.253.184.227.222.207.248.173.258.147.279.106.29.08.3.034h.298l.293-.034.282-.073.273-.107.253-.146.232-.174.208-.2.174-.233.14-.247.105-.266.068-.28.033-.28M429.059 887.333l.053-.007h.06l.06.007.047.013M429.279 887.345l-.033.687M425.991 887.892l-.847 19.68M405.585 886.413l20.407 1.479 3.065-.56M430.371 887.773v.053M429.279 887.345l1.09.427M430.371 887.773l.032.013v.02l-.01.014-.043.013-1.184.213M429.166 888.046l-.04.013-.013.02.02.02.046.02.067.008M429.245 888.125l1.925.14M431.172 888.266h.1l.095-.007.057-.021.035-.025M432.033 886.672l-.861 19.633M431.459 888.213l.575-1.54M432.033 886.672h.005M429.112 888.08l-.827 18.9" style="fill:none;stroke:red;stroke-width:.999997;stroke-linecap:round;stroke-linejoin:round;stroke-miterlimit:4;stroke-dasharray:none;stroke-opacity:1;visibility:visible" visibility="hidden"/><path d="m414.426 896.7-.04-.28-.075-.273-.106-.267-.14-.248-.167-.233-.199-.207-.228-.187-.24-.153-.268-.125-.272-.095-.281-.06-.29-.025-.287.006-.28.047-.274.079-.262.113-.244.141-.22.174M414.426 896.7l-.221.173-.248.146-.258.113-.273.081-.281.047-.295.013-.285-.028-.286-.06-.273-.092-.263-.128-.244-.16-.226-.186-.196-.207-.174-.233-.137-.252-.108-.267-.065-.273-.04-.28M428.205 906.986l.039-.007h.042M407.538 906.273l17.607 1.3 3.06-.587M428.252 907.76l.021.02.047.019.07.014 1.922.14M430.311 907.952h.1l.088-.007.064-.02.03-.026.58-1.594M431.172 906.306v-.008M432.038 886.672l-.021-.027-.046-.026-.072-.02-.094-.012-31.586-2.282M428.285 906.98l-.033.78M432.038 886.672l-.865 19.627M302.132 756.373l.007.22.032.212.068.207.092.201.113.192.141.167.16.154.174.132.192.114.201.081.213.06.22.025.22.008.214-.026.205-.054.201-.086.186-.107.166-.128.156-.152.124-.167.108-.188.08-.198M302.991 754.993l-.188.113-.159.135-.145.152-.128.173-.099.187-.073.2-.047.207-.022.213M292.593 747.854h-.13l-.03-.015M292.692 747.84l-.099.013M292.433 747.84l-.733-.233M291.732 747.574v.039M291.7 747.606l-.015-.007v-.013l.015-.007.03-.006M292.653 747.467l-.008.379M291.732 747.574l.919-.107M292.653 747.467l.03-.008.017-.007M290.245 748.193l.007.013.033.014.052.005.061.007M290.399 748.233l27.247 1.7M318.533 749.626l-.416 14.22" style="fill:none;stroke:red;stroke-width:.999997;stroke-linecap:round;stroke-linejoin:round;stroke-miterlimit:4;stroke-dasharray:none;stroke-opacity:1;visibility:visible" visibility="hidden"/><path d="m305.405 757.04.053-.213.02-.22v-.22l-.041-.214-.06-.214-.092-.207-.113-.192-.147-.173-.159-.16-.181-.134-.196-.106-.21-.087-.214-.055-.22-.025h-.227l-.213.025-.213.06-.203.088M292.692 747.84l2.287-.267 19.628 1.227 1.66.525M292.7 747.453l-.008-.013-.033-.007-.052-.007-1.402-.086M291.205 747.34l-.075-.007-.065.007-.055.007-.024.013-.742.827M290.245 748.187h0v.007M290.019 763l27.199 1.733M317.433 764.7l.687-.855M318.12 763.846v-.007M292.7 747.453l-.008.387M290.245 748.193l-.387 14.759M121.126 767.96v.028M121.126 767.96l.013.013-.006.007-.02.008-.034.005M124.158 767.766l-.045 7.973M117.44 772.986l6.719-5.22M124.158 767.766l.008-.007v-.006M119.226 767.807l-.007.407M119.039 767.786l.015.013.025.007.045.008h.054l.049-.008M120.28 767.687v.407M119.226 767.807l1.053-.121M120.446 767.7v.372M120.28 767.687l.045-.007.046.007h.042l.034.013.68.26M121.079 767.993l-2.04.24M118.346 768.32l-4.433 3.407M124.166 767.753l-.013-.015-.027-.013-.048-.005-.059-.007-4.306-.28M119.713 767.433h-.16l-.061.013-.032.015-.414.319M119.046 767.78h0l-.008.007M119.039 768.233l-.695.087M124.166 767.753l-.04 7.993M119.039 767.786v.447M326.214 748.597l.1.027.128.018.137.022.15.013.152.005h.145M329.635 749.05l-.023.06-.045.06-.072.053-.11.054-.13.046-.16.046-.18.041-.207.033-.22.032-.246.028-.26.014-.267.012-.28.006-.287.007-.286-.007-.287-.013-.287-.019-.273-.021-.273-.032-.254-.035-.24-.04-.226-.045-.2-.047-.18-.053-.154-.053-.133-.054-.1-.06-.073-.06-.04-.06-.014-.06" style="fill:none;stroke:red;stroke-width:.999997;stroke-linecap:round;stroke-linejoin:round;stroke-miterlimit:4;stroke-dasharray:none;stroke-opacity:1;visibility:visible" visibility="hidden"/><path d="m329.128 748.47.03.06.015.053-.025.054-.048.046-.079.054-.113.046-.135.042-.16.038-.18.034-.205.026-.221.02-.234.02-.245.007-.261.007h-.26l-.259-.014-.26-.013-.255-.02-.245-.02-.233-.033-.22-.04-.2-.04-.18-.04-.163-.047-.13-.052-.1-.053-.08-.054-.047-.053-.022-.055.015-.053.04-.053M327.575 748.41l-.107-.027-.12-.02-.14-.02-.146-.013-.154-.005h-.153" style="fill:none;stroke:red;stroke-width:.999997;stroke-linecap:round;stroke-linejoin:round;stroke-miterlimit:4;stroke-dasharray:none;stroke-opacity:1;visibility:visible" visibility="hidden"/><path d="m327.714 748.59.04-.028.013-.032-.006-.033-.04-.028-.06-.032-.086-.028M327.028 748.683h.153l.14-.013.124-.014.11-.013.093-.027.067-.026M326.075 748.416l-.04.028-.02.033.013.026.034.033.066.033.086.027M326.754 748.324h-.145l-.142.007-.129.013-.107.019-.09.028-.067.025" style="fill:none;stroke:red;stroke-width:.999997;stroke-linecap:round;stroke-linejoin:round;stroke-miterlimit:4;stroke-dasharray:none;stroke-opacity:1;visibility:visible" visibility="hidden"/><path d="m326.075 748.416.013.073.014.067M327.622 748.623l-.013-.033-.015-.047-.005-.059-.014-.074M327.575 748.41l-.113.067-.107.04-.1.02h-.096l-.092-.02-.099-.04-.1-.067-.113-.085" style="fill:none;stroke:red;stroke-width:.999997;stroke-linecap:round;stroke-linejoin:round;stroke-miterlimit:4;stroke-dasharray:none;stroke-opacity:1;visibility:visible" visibility="hidden"/><path d="m326.754 748.324-.093.085-.087.067-.087.041-.08.019h-.072l-.088-.019-.078-.041-.095-.06M327.567 748.636l.008-.227M326.748 748.677l.007-.353M389.575 914.696 92.155 790.463M642.54 875.576l-214.426 41.993M99.381 784.003l-.68.1-.667.113-.646.114-.627.12-.607.126-.58.134-.558.133-.542.14-.512.147-.497.153-.456.153-.441.16-.407.16-.385.167-.355.167-.327.173-.296.173-.264.18-.238.18-.208.18-.175.187-.145.187-.114.186-.08.187-.048.187-.017.186.01.194.049.186.08.187.113.187.14.186.173.187.207.187.239.18.269.18.299.18.325.173.355.173.386.167M389.575 914.696l.659.267.688.261.72.252.753.248.779.239.801.226.833.22.86.22.874.2.905.2.921.187.94.175.96.166.98.159.986.14 1.008.14 1.02.12 1.026.113 1.034.1 1.04.094 1.053.08 1.053.066 1.054.054 1.053.04 1.053.033 1.054.02 1.052.008 1.04-.008 1.034-.02 1.027-.027 1.02-.04 1.007-.06.986-.06.976-.08.964-.086.94-.1.92-.114.899-.126.881-.134.86-.14.826-.16M642.54 875.576l.667-.139.633-.148.607-.153.58-.16.545-.167.515-.18.48-.18.452-.193.414-.2.387-.2.348-.213.312-.214.273-.22.248-.226.206-.234.166-.233.134-.24.093-.24.06-.247.025-.246-.012-.254-.052-.253-.088-.253-.128-.26-.158-.252-.194-.262-.233-.26-.267-.253-.3-.26-.333-.253-.367-.26-.406-.254-.434-.246-.466-.254-.494-.246-.525-.24-.56-.24-.588-.24-.613-.232-.64-.228-.667-.22M454.814 788.984l.128.032.139.028.15.02.167.012.167.013h.166M458.515 789.516l-.023.073-.052.067-.085.067-.113.06-.147.053-.173.053-.203.047-.227.04-.244.033-.273.027-.28.02-.295.007-.305.006-.315-.006-.318-.007-.314-.02-.313-.027-.3-.033-.301-.04-.279-.047-.26-.046-.248-.06-.219-.06-.193-.06-.173-.074-.143-.066-.105-.074-.079-.072-.048-.068-.012-.073" style="fill:none;stroke:red;stroke-width:.999997;stroke-linecap:round;stroke-linejoin:round;stroke-miterlimit:4;stroke-dasharray:none;stroke-opacity:1;visibility:visible" visibility="hidden"/><path d="m457.955 788.856.047.06.013.067-.013.06-.047.061-.083.059-.112.054-.132.046-.166.046-.187.04-.213.035-.227.019-.253.02-.263.014-.265.006-.279-.006-.283-.008-.288-.013-.272-.027-.273-.033-.25-.033-.25-.04-.227-.047-.204-.053-.19-.06-.159-.06-.13-.06-.1-.06-.074-.067-.047-.067-.006-.06.016-.066.056-.054M456.22 788.75l-.128-.027-.137-.026-.155-.02-.167-.02-.166-.007h-.167" style="fill:none;stroke:red;stroke-width:.999997;stroke-linecap:round;stroke-linejoin:round;stroke-miterlimit:4;stroke-dasharray:none;stroke-opacity:1;visibility:visible" visibility="hidden"/><path d="m456.442 788.97.03-.032.009-.035-.026-.04-.054-.04-.074-.033-.106-.04" style="fill:none;stroke:red;stroke-width:.999997;stroke-linecap:round;stroke-linejoin:round;stroke-miterlimit:4;stroke-dasharray:none;stroke-opacity:1;visibility:visible" visibility="hidden"/><path d="m455.733 789.09.161-.008.144-.007.135-.018.115-.028.084-.026.069-.034M454.6 788.764l-.039.039-.008.034.026.04.053.039.081.035.1.033M455.301 788.65h-.16l-.147.013-.133.019-.113.021-.087.027-.06.033" style="fill:none;stroke:red;stroke-width:.999997;stroke-linecap:round;stroke-linejoin:round;stroke-miterlimit:4;stroke-dasharray:none;stroke-opacity:1;visibility:visible" visibility="hidden"/><path d="m454.6 788.764.013.085.019.067M456.308 789.03l-.021-.04-.026-.06-.02-.08-.02-.1M456.22 788.75l-.135.073-.114.047-.112.02-.107-.007-.107-.02-.113-.046-.113-.067-.119-.1" style="fill:none;stroke:red;stroke-width:.999997;stroke-linecap:round;stroke-linejoin:round;stroke-miterlimit:4;stroke-dasharray:none;stroke-opacity:1;visibility:visible" visibility="hidden"/><path d="m455.301 788.65-.1.099-.095.074-.085.047-.081.02-.079.007-.088-.02-.085-.04-.087-.074M456.207 789.05l.013-.301M455.28 789.07l.021-.419M610.561 837.896l.144.04.167.033.181.027.188.013.184.014h.183M614.608 838.544l-.028.085-.059.082-.094.08-.132.065-.167.067-.195.06-.226.053-.252.04-.274.035-.301.025-.319.021-.328.007h-.338l-.355-.015-.352-.02-.348-.025-.347-.04-.34-.048-.326-.053-.312-.059-.295-.067-.265-.073-.248-.081-.214-.079-.189-.088-.157-.085-.122-.094-.078-.088-.052-.085-.015-.088" style="fill:none;stroke:red;stroke-width:.999997;stroke-linecap:round;stroke-linejoin:round;stroke-miterlimit:4;stroke-dasharray:none;stroke-opacity:1;visibility:visible" visibility="hidden"/><path d="m613.987 837.77.053.08.027.08-.02.073-.045.072-.09.074-.12.061-.152.06-.181.053-.213.039-.239.041-.261.027-.28.02-.292.007h-.307l-.313-.007-.32-.02-.314-.027-.312-.034-.309-.046-.284-.046-.277-.06-.251-.06-.233-.075-.207-.072-.173-.073-.14-.082-.112-.078-.075-.082-.04-.078-.005-.082.032-.072.066-.073M612.001 837.603l-.147-.033-.166-.035-.182-.025-.186-.02-.186-.008h-.18" style="fill:none;stroke:red;stroke-width:.999997;stroke-linecap:round;stroke-linejoin:round;stroke-miterlimit:4;stroke-dasharray:none;stroke-opacity:1;visibility:visible" visibility="hidden"/><path d="m612.327 837.877.028-.047-.015-.046-.041-.047-.07-.048-.1-.04-.127-.045" style="fill:none;stroke:red;stroke-width:.999997;stroke-linecap:round;stroke-linejoin:round;stroke-miterlimit:4;stroke-dasharray:none;stroke-opacity:1;visibility:visible" visibility="hidden"/><path d="m611.608 838.023.172-.007.161-.013.134-.02.113-.033.087-.034.052-.04M610.233 837.63l-.028.04.015.047.041.048.073.045.098.047.129.04M610.954 837.484l-.175.007-.158.013-.136.019-.114.028-.084.038-.054.04" style="fill:none;stroke:red;stroke-width:.999997;stroke-linecap:round;stroke-linejoin:round;stroke-miterlimit:4;stroke-dasharray:none;stroke-opacity:1;visibility:visible" visibility="hidden"/><path d="m610.233 837.63.021.081.026.066M612.168 837.956l-.04-.033-.043-.074-.018-.046-.027-.054-.019-.066-.02-.08M612.001 837.603l-.153.08-.135.047-.128.018h-.124l-.121-.025-.12-.053-.135-.082-.13-.106M610.954 837.484l-.107.113-.093.08-.087.054-.086.025-.09.008-.077-.021-.09-.039-.091-.075M611.974 837.997l.027-.393M610.92 837.977l.032-.493M401.38 919.621l-.34 8.913M92.155 790.463l-.387-.167-.354-.173-.326-.173-.298-.18-.27-.18-.238-.18-.208-.187-.172-.187-.14-.186-.114-.187-.08-.187-.048-.186-.01-.192.017-.188.047-.187.081-.187.113-.186.146-.187.174-.187.206-.18.241-.18.265-.18.295-.172.327-.174.354-.167.386-.167.406-.158.442-.162.457-.153.493-.153.515-.147.54-.14.559-.132.581-.135.607-.126.626-.12.647-.114.667-.113.68-.1M389.575 914.696 92.155 790.463M642.387 866.33l-.112-.021-.115.013M613.96 843.183l-1.243 18.74M612.72 861.924l1.244.408M319.1 765.51l.461-15.547M317.564 765.007l1.536.504M319.562 749.963l-3.088-.972" style="fill:none;stroke:red;stroke-width:.999997;stroke-linecap:round;stroke-linejoin:round;stroke-miterlimit:4;stroke-dasharray:none;stroke-opacity:1;visibility:visible" visibility="hidden"/><path d="m314.128 744.37-.267.073-.286.066-.314.066-.328.06-.352.054-.369.046-.387.048-.404.04-.414.032-.432.035-.44.019-.454.021-.462.013M637.233 846.576l-.645-.2" style="fill:none;stroke:red;stroke-width:1.86666;stroke-linecap:round;stroke-linejoin:round;stroke-miterlimit:4;stroke-dasharray:none;stroke-opacity:1;visibility:visible" visibility="hidden"/><path d="m630.387 865.47 5.417 1.773M630.207 868.47l.06.013" style="fill:none;stroke:red;stroke-width:.999997;stroke-linecap:round;stroke-linejoin:round;stroke-miterlimit:4;stroke-dasharray:none;stroke-opacity:1;visibility:visible" visibility="hidden"/><path d="m630.194 868.317 1.413-20.713M630.854 847.363h0M631.713 847.323l.213-.113.247-.107.273-.1.299-.095.33-.093.351-.079.379-.073.401-.067.422-.061.446-.053.459-.039.473-.04.5-.027.508-.021M636.694 845.57l.267.028M314.301 744.377l-.173-.008M309.22 744.943l-.092.013-.103.026-.084.041-.086.047-.067.053-.068.06-.06.072-.052.073-.047.087-.036.088-.024.107-.008.105M631.713 847.323l-.028.02-.017.04-.022.039-.016.046-.009.067-.013.068M637.233 846.576v-.067l-.028-.053-.032-.04-.045-.033-.054-.02-.06-.007" style="fill:none;stroke:red;stroke-width:1.86666;stroke-linecap:round;stroke-linejoin:round;stroke-miterlimit:4;stroke-dasharray:none;stroke-opacity:1;visibility:visible" visibility="hidden"/><path d="M630.194 868.317v.113l.013.032.014.022.02.006.026-.006" style="fill:none;stroke:red;stroke-width:.999997;stroke-linecap:round;stroke-linejoin:round;stroke-miterlimit:4;stroke-dasharray:none;stroke-opacity:1;visibility:visible" visibility="hidden"/><path d="m630.18 868.323-.008.067v.06l.015.1.02.066.025.04.04.02h.028l.019-.006" style="fill:none;stroke:red;stroke-width:.999997;stroke-linecap:round;stroke-linejoin:round;stroke-miterlimit:4;stroke-dasharray:none;stroke-opacity:1;visibility:visible" visibility="hidden"/><path d="m631.8 847.057-.047.047-.046.066-.043.087-.024.1-.03.12-.01.067-.007.066M637.58 846.49l-.016.027-.044.026-.06.014-.087.013-.098.005" style="fill:none;stroke:red;stroke-width:1.86666;stroke-linecap:round;stroke-linejoin:round;stroke-miterlimit:4;stroke-dasharray:none;stroke-opacity:1;visibility:visible" visibility="hidden"/><path d="m636.154 867.15-.021.027-.039.026-.067.02-.085.012-.101.007" style="fill:none;stroke:red;stroke-width:.999997;stroke-linecap:round;stroke-linejoin:round;stroke-miterlimit:4;stroke-dasharray:none;stroke-opacity:1;visibility:visible" visibility="hidden"/><path d="m631.594 847.61-.047.02-.08.019-.1.006-.106.007-.12-.007-.122-.013-.105-.019-.093-.021" style="fill:none;stroke:red;stroke-width:1.86666;stroke-linecap:round;stroke-linejoin:round;stroke-miterlimit:4;stroke-dasharray:none;stroke-opacity:1;visibility:visible" visibility="hidden"/><path d="m630.121 868.997.08-.06.059-.075.048-.092.01-.1" style="fill:none;stroke:red;stroke-width:.999997;stroke-linecap:round;stroke-linejoin:round;stroke-miterlimit:4;stroke-dasharray:none;stroke-opacity:1;visibility:visible" visibility="hidden"/><path d="m314.128 744.37-.061-.007-.06.014M309.22 744.943l-.007-.008h-.006M309.188 744.943h0M308.494 745.717l-.039-.015-.021-.013-.007-.019" style="fill:none;stroke:red;stroke-width:1.86666;stroke-linecap:round;stroke-linejoin:round;stroke-miterlimit:4;stroke-dasharray:none;stroke-opacity:1;visibility:visible" visibility="hidden"/><path d="M630.18 868.47h0M400.075 889.57 99.469 770.244" style="fill:none;stroke:red;stroke-width:.999997;stroke-linecap:round;stroke-linejoin:round;stroke-miterlimit:4;stroke-dasharray:none;stroke-opacity:1;visibility:visible" visibility="hidden"/><path d="m400.788 888.37.333-.147.371-.133.403-.128.43-.12.463-.112.487-.101.513-.092.53-.087.554-.067.575-.066.592-.054.609-.04.617-.026M400.121 889.236h0" style="fill:none;stroke:red;stroke-width:1.99999;stroke-linecap:round;stroke-linejoin:round;stroke-miterlimit:4;stroke-dasharray:none;stroke-opacity:1;visibility:visible" visibility="hidden"/><path d="m400.207 908.296 6.713 2.753" style="fill:none;stroke:red;stroke-width:.999997;stroke-linecap:round;stroke-linejoin:round;stroke-miterlimit:4;stroke-dasharray:none;stroke-opacity:1;visibility:visible" visibility="hidden"/><path d="m400.075 889.57.013-.147.026-.146.034-.134.047-.126.047-.114.06-.106.06-.092.073-.088.072-.087.088-.067.093-.053.1-.039M106.515 768.916h0M106.302 768.75l-.267-.027M407.267 887.196l.393.047" style="fill:none;stroke:red;stroke-width:1.99999;stroke-linecap:round;stroke-linejoin:round;stroke-miterlimit:4;stroke-dasharray:none;stroke-opacity:1;visibility:visible" visibility="hidden"/><path d="m99.421 788.503.007.08.014.073.039.14.067.12.078.1.106.094.069.04.073.033M399.502 913.136l-.107-.067-.088-.1-.065-.113-.044-.133-.03-.16-.007-.094v-.1" style="fill:none;stroke:red;stroke-width:.999997;stroke-linecap:round;stroke-linejoin:round;stroke-miterlimit:4;stroke-dasharray:none;stroke-opacity:1;visibility:visible" visibility="hidden"/><path d="m400.056 889.576-.916 22.8M99.468 770.243l-.04-.02-.013-.02M100.255 769.403h0M100.268 769.39h.008v.013M105.928 768.73l.053-.007h.054" style="fill:none;stroke:red;stroke-width:1.99999;stroke-linecap:round;stroke-linejoin:round;stroke-miterlimit:4;stroke-dasharray:none;stroke-opacity:1;visibility:visible" visibility="hidden"/><path d="m99.421 788.503-.033-.027-.014-.02M400.26 912.736l-.021.12-.046.107-.068.086-.092.067" style="fill:none;stroke:red;stroke-width:.999997;stroke-linecap:round;stroke-linejoin:round;stroke-miterlimit:4;stroke-dasharray:none;stroke-opacity:1;visibility:visible" visibility="hidden"/><path d="M106.302 768.75h0" style="fill:none;stroke:red;stroke-width:1.99999;stroke-linecap:round;stroke-linejoin:round;stroke-miterlimit:4;stroke-dasharray:none;stroke-opacity:1;visibility:visible" visibility="hidden"/><path d="M99.881 789.183h-.007M235.007 820.45l.128.04.14.027.159.026.174.014.18.013h.187M239.154 820.924l-.021.085-.054.082-.092.08-.12.078-.16.075-.193.067-.215.06-.245.058-.273.048-.287.04-.313.032-.322.028-.34.014-.338.005h-.346l-.348-.005-.34-.02-.333-.034-.327-.034-.306-.046-.286-.046-.269-.06-.245-.068-.212-.067-.188-.072-.16-.08-.12-.081-.087-.086-.052-.081-.021-.085" style="fill:none;stroke:red;stroke-width:.999997;stroke-linecap:round;stroke-linejoin:round;stroke-miterlimit:4;stroke-dasharray:none;stroke-opacity:1;visibility:visible" visibility="hidden"/><path d="m238.515 820.19.06.073.02.08-.007.074-.046.073-.08.073-.114.074-.146.066-.18.06-.207.054-.233.046-.256.04-.274.035-.286.025-.298.014-.309.006h-.31l-.314-.006-.307-.02-.3-.027-.286-.033-.274-.047-.246-.047-.236-.053-.198-.067-.181-.066-.139-.066-.113-.074-.081-.074-.039-.08-.007-.073.026-.08.058-.073" style="fill:none;stroke:red;stroke-width:.999997;stroke-linecap:round;stroke-linejoin:round;stroke-miterlimit:4;stroke-dasharray:none;stroke-opacity:1;visibility:visible" visibility="hidden"/><path d="m236.714 820.176-.127-.04-.14-.027-.158-.026-.175-.02-.18-.007h-.188M236.827 820.43l.053-.04.032-.047-.004-.041-.034-.047-.068-.038-.092-.04M235.975 820.57l.18-.007.173-.013.154-.02.138-.027.112-.033.096-.039M234.895 820.19l-.055.047-.033.04.005.046.036.047.067.04.092.04M235.748 820.057h-.181l-.174.013-.152.027-.14.027-.113.033-.095.033" style="fill:none;stroke:red;stroke-width:.999997;stroke-linecap:round;stroke-linejoin:round;stroke-miterlimit:4;stroke-dasharray:none;stroke-opacity:1;visibility:visible" visibility="hidden"/><path d="m234.895 820.19.013.073.007.06.01.094M236.755 820.463l-.013-.047-.01-.06-.01-.08-.007-.1M236.714 820.176l-.139.073-.12.047-.114.02h-.112l-.115-.027-.112-.053-.121-.073-.135-.107" style="fill:none;stroke:red;stroke-width:.999997;stroke-linecap:round;stroke-linejoin:round;stroke-miterlimit:4;stroke-dasharray:none;stroke-opacity:1;visibility:visible" visibility="hidden"/><path d="m235.748 820.057-.12.107-.107.08-.1.053-.1.027-.101.006-.1-.02-.105-.046-.122-.074M236.708 820.484l.007-.307M235.742 820.57l.007-.513M329.575 748.93l.032.039.021.041.007.04M324.128 748.883l.007-.04.02-.041.033-.032M327.921 749.99l-.26.007-.268.006h-.273l-.274-.006-.272-.007-.273-.021-.267-.019-.258-.028M329.622 749.516l-.023.053-.037.054-.07.053-.083.047-.12.046-.136.047-.167.04-.177.033-.2.034-.214.026-.226.02-.247.02M325.775 749.924l-.243-.033-.228-.035-.21-.039-.199-.046-.175-.047-.158-.048-.135-.053-.113-.054-.094-.053-.06-.053-.038-.06-.008-.054M327.708 748.09l.235.027.218.033.2.039.187.04.16.041.139.053.121.047.095.053.064.046M324.669 748.337l.073-.047.099-.046.121-.046.152-.041.175-.033.199-.027.21-.027.228-.02.248-.013.252-.005h.256l.266.005.26.013.254.014.246.026M329.635 749.05l-.013.467M324.128 748.883l-.015.467M329.128 748.47l.447.46M324.669 748.337l-.48.433M458.442 789.356l.039.053.026.054.008.053M452.474 789.236l.013-.053.027-.054.05-.046M456.594 790.563l-.28.013h-.287l-.294-.006-.291-.007-.301-.02-.288-.02-.287-.033-.279-.034M458.487 790.023l-.013.067-.047.066-.075.062-.106.053-.124.059-.163.046-.17.047-.21.04-.219.033-.238.027-.255.028-.273.012M454.288 790.456l-.267-.04-.256-.045-.23-.054-.22-.054-.202-.059-.172-.061-.146-.067-.127-.067-.093-.066-.074-.067-.04-.067-.006-.066M456.248 788.363l.247.033.232.034.226.046.208.04.187.054.167.053.146.053.126.06.094.06.072.06M453.094 788.63l.079-.06.108-.047.133-.046.152-.046.181-.034.2-.034.222-.026.237-.02.248-.014.26-.006h.259l.274.006.267.014.273.02.26.026M458.515 789.516l-.028.507M452.474 789.236l-.021.507M457.955 788.856l.487.5M453.094 788.63l-.528.453M614.514 838.33l.052.073.03.072.01.067M607.88 838.076l.02-.073.041-.066.066-.061M612.414 839.717l-.305.007-.315-.007-.32-.008-.32-.02-.323-.025-.317-.034-.313-.041-.303-.053M614.574 839.103l-.028.08-.055.072-.084.075-.12.073-.146.06-.174.059-.206.048-.227.046-.255.04-.273.027-.288.019-.304.014M609.9 839.537l-.301-.053-.286-.06-.268-.068-.237-.072-.22-.074-.201-.081-.167-.079-.132-.088-.113-.078-.075-.088-.045-.086-.007-.081M611.867 837.123l.301.04.283.047.277.06.259.06.233.06.214.073.18.075.153.072.128.08.092.08M608.6 837.39l.092-.06.128-.06.16-.053.18-.047.207-.04.226-.033.247-.02.268-.02.279-.007h.286l.3.007.302.013.292.027.3.026M614.608 838.544l-.033.56M607.88 838.076l-.032.553M613.987 837.77l.528.56M608.6 837.39l-.593.487" style="fill:none;stroke:red;stroke-width:.999997;stroke-linecap:round;stroke-linejoin:round;stroke-miterlimit:4;stroke-dasharray:none;stroke-opacity:1;visibility:visible" visibility="hidden"/><path d="m88.688 788.896-.007 7.107" style="fill:none;stroke:red;stroke-width:1.99999;stroke-linecap:round;stroke-linejoin:round;stroke-miterlimit:4;stroke-dasharray:none;stroke-opacity:1;visibility:visible" visibility="hidden"/><path d="m650.561 872.61-.576 8.099" style="fill:none;stroke:red;stroke-width:1.86666;stroke-linecap:round;stroke-linejoin:round;stroke-miterlimit:4;stroke-dasharray:none;stroke-opacity:1;visibility:visible" visibility="hidden"/><path d="m88.688 788.896.007-.187.024-.18.049-.18.059-.18.073-.166.093-.167.102-.153.106-.154.126-.146.173-.18.188-.174.207-.166.217-.16.243-.154.246-.153.267-.147.287-.14.29-.14.316-.133.327-.133.34-.134.36-.126.367-.127.386-.12.404-.113.416-.12.427-.107.44-.113.453-.099.447-.101.46-.094.473-.093.487-.087.493-.086.507-.087.513-.073.32-.046" style="fill:none;stroke:red;stroke-width:1.99999;stroke-linecap:round;stroke-linejoin:round;stroke-miterlimit:4;stroke-dasharray:none;stroke-opacity:1;visibility:visible" visibility="hidden"/><path d="m289.154 760.88-153.201 18.599M642.387 866.33l.539.18.529.185.512.188.5.194.475.193.466.199.44.201.427.199.413.208.387.206.367.214.353.212.333.22.319.22.295.226.28.235.253.233.24.239.213.248.191.252.173.261.15.267.106.24.094.239.065.254.04.252.02.262-.005.253M642.387 866.33l-6.039-1.961" style="fill:none;stroke:red;stroke-width:1.86666;stroke-linecap:round;stroke-linejoin:round;stroke-miterlimit:4;stroke-dasharray:none;stroke-opacity:1;visibility:visible" visibility="hidden"/><path d="m91.821 799.15-.347-.153-.326-.154-.306-.161-.294-.167-.272-.172-.256-.173-.231-.18-.216-.188-.192-.199-.18-.206-.153-.215-.106-.179-.094-.186-.072-.195-.055-.207-.035-.205-.005-.207M388.788 925.55 91.819 799.149M427.887 928.516l-.667.127-.688.126-.697.114-.713.106-.735.1-.741.1-.759.08-.765.08-.774.074-.786.066-.795.055-.78.045-.788.04-.799.034-.8.02-.812.02-.817.013h-.817l-.819-.005-.828-.015-.819-.02-.829-.027-.812-.033-.819-.04-.814-.053-.822-.054-.812-.066-.813-.067-.807-.08-.8-.087-.793-.086-.787-.1-.778-.106-.774-.108-.766-.12-.755-.126-.752-.127-.735-.14-.726-.14-.719-.153-.7-.154-.695-.16-.673-.166-.66-.167-.647-.18-.633-.18-.621-.187-.599-.193-.585-.193-.575-.2-.552-.207-.535-.212-.512-.215" style="fill:none;stroke:red;stroke-width:1.99999;stroke-linecap:round;stroke-linejoin:round;stroke-miterlimit:4;stroke-dasharray:none;stroke-opacity:1;visibility:visible" visibility="hidden"/><path d="m642.108 885.576-214.22 42.94M649.987 880.71l-.028.227-.039.22-.068.212-.072.213-.098.208-.111.2-.124.192-.14.187-.153.181-.16.173-.227.207-.24.199-.252.194-.273.18-.295.179-.312.173-.328.167-.339.167-.361.154-.401.16-.419.154-.433.145-.46.148-.472.132-.496.135-.512.126-.527.119-.539.113" style="fill:none;stroke:red;stroke-width:1.86666;stroke-linecap:round;stroke-linejoin:round;stroke-miterlimit:4;stroke-dasharray:none;stroke-opacity:1;visibility:visible" visibility="hidden"/><path d="M629.534 868.93h0M629.68 869.043h0" style="fill:none;stroke:red;stroke-width:.999997;stroke-linecap:round;stroke-linejoin:round;stroke-miterlimit:4;stroke-dasharray:none;stroke-opacity:1;visibility:visible" visibility="hidden"/><path d="M637.58 846.49h0" style="fill:none;stroke:red;stroke-width:1.86666;stroke-linecap:round;stroke-linejoin:round;stroke-miterlimit:4;stroke-dasharray:none;stroke-opacity:1;visibility:visible" visibility="hidden"/><path d="M635.194 868.043h0M630.121 868.997h0" style="fill:none;stroke:red;stroke-width:.999997;stroke-linecap:round;stroke-linejoin:round;stroke-miterlimit:4;stroke-dasharray:none;stroke-opacity:1;visibility:visible" visibility="hidden"/><path d="M314.007 744.377h0M308.428 745.67h0M314.301 744.377l11.693 3.667M329.628 749.183l124.746 39.133M458.507 789.616l151.301 47.46M614.608 838.583l22.347 7.013" style="fill:none;stroke:red;stroke-width:1.86666;stroke-linecap:round;stroke-linejoin:round;stroke-miterlimit:4;stroke-dasharray:none;stroke-opacity:1;visibility:visible" visibility="hidden"/><path d="m313.639 764.975 299.789 98.705M620.357 865.973l9.324 3.07" style="fill:none;stroke:red;stroke-width:.999997;stroke-linecap:round;stroke-linejoin:round;stroke-miterlimit:4;stroke-dasharray:none;stroke-opacity:1;visibility:visible" visibility="hidden"/><path d="m636.96 845.597.09.032.097.048.085.059.075.066.07.075.062.08.048.08.04.092.024.095.029.132v.134l-1.427 20.66" style="fill:none;stroke:red;stroke-width:1.86666;stroke-linecap:round;stroke-linejoin:round;stroke-miterlimit:4;stroke-dasharray:none;stroke-opacity:1;visibility:visible" visibility="hidden"/><path d="m636.154 867.15-.013.099-.019.094-.035.087-.016.032-.009.028-.008.007-.007.013-.02.04-.08.113-.066.079-.082.067-.078.068-.095.053-.099.039-.1.034-.113.026-.12.014M635.194 868.043l-.4.02-.395.019-.385.034-.38.032-.36.04-.353.048-.334.047-.313.053-.3.054-.287.066-.273.059-.253.073-.24.075-.22.073-.16.066-.154.06-.14.068-.128.066M630.121 868.997l-.06.032-.06.021-.075.014-.058.006h-.067l-.068-.013-.052-.015" style="fill:none;stroke:red;stroke-width:.999997;stroke-linecap:round;stroke-linejoin:round;stroke-miterlimit:4;stroke-dasharray:none;stroke-opacity:1;visibility:visible" visibility="hidden"/><path d="m314.007 744.377.047-.015.046-.006h.088l.06.006.047.015M308.428 745.67l-.057 2.07" style="fill:none;stroke:red;stroke-width:1.86666;stroke-linecap:round;stroke-linejoin:round;stroke-miterlimit:4;stroke-dasharray:none;stroke-opacity:1;visibility:visible" visibility="hidden"/><path d="M407.66 887.243h0" style="fill:none;stroke:red;stroke-width:1.99999;stroke-linecap:round;stroke-linejoin:round;stroke-miterlimit:4;stroke-dasharray:none;stroke-opacity:1;visibility:visible" visibility="hidden"/><path d="M99.875 789.183h0" style="fill:none;stroke:red;stroke-width:.999997;stroke-linecap:round;stroke-linejoin:round;stroke-miterlimit:4;stroke-dasharray:none;stroke-opacity:1;visibility:visible" visibility="hidden"/><path d="M105.928 768.73h0" style="fill:none;stroke:red;stroke-width:1.99999;stroke-linecap:round;stroke-linejoin:round;stroke-miterlimit:4;stroke-dasharray:none;stroke-opacity:1;visibility:visible" visibility="hidden"/><path d="M400.034 913.116h0" style="fill:none;stroke:red;stroke-width:.999997;stroke-linecap:round;stroke-linejoin:round;stroke-miterlimit:4;stroke-dasharray:none;stroke-opacity:1;visibility:visible" visibility="hidden"/><path d="M408.288 888.19h0" style="fill:none;stroke:red;stroke-width:1.99999;stroke-linecap:round;stroke-linejoin:round;stroke-miterlimit:4;stroke-dasharray:none;stroke-opacity:1;visibility:visible" visibility="hidden"/><path d="M406.308 911.924h-.007" style="fill:none;stroke:red;stroke-width:.999997;stroke-linecap:round;stroke-linejoin:round;stroke-miterlimit:4;stroke-dasharray:none;stroke-opacity:1;visibility:visible" visibility="hidden"/><path d="m407.654 887.243-21.647-8.513M381.961 877.136l-142.806-56.147M235.729 819.644l-115.653-45.48M117.101 772.997l-10.801-4.248" style="fill:none;stroke:red;stroke-width:1.99999;stroke-linecap:round;stroke-linejoin:round;stroke-miterlimit:4;stroke-dasharray:none;stroke-opacity:1;visibility:visible" visibility="hidden"/><path d="M399.502 913.13 99.882 789.184" style="fill:none;stroke:red;stroke-width:.999997;stroke-linecap:round;stroke-linejoin:round;stroke-miterlimit:4;stroke-dasharray:none;stroke-opacity:1;visibility:visible" visibility="hidden"/><path d="m99.415 770.204.013-.121.027-.12.045-.114.022-.025.006-.021.007-.007.007-.012.025-.035.081-.092.067-.06.073-.06.074-.04.084-.041.096-.032.093-.021.067-.006.066-.006M100.268 769.39l.387-.013.386-.015.387-.012.38-.027.373-.026.367-.027.359-.033.34-.042.341-.032.325-.046.322-.047.306-.045.295-.054.287-.053.278-.06.275-.061.252-.067M99.415 770.204l-.04 18.252M105.928 768.73l.075-.013.07-.007h.068l.054.013.053.007.053.02" style="fill:none;stroke:red;stroke-width:1.99999;stroke-linecap:round;stroke-linejoin:round;stroke-miterlimit:4;stroke-dasharray:none;stroke-opacity:1;visibility:visible" visibility="hidden"/><path d="m99.875 789.183-.085-.04-.082-.053-.073-.054-.061-.066-.06-.074-.046-.08-.04-.073-.026-.087-.02-.086-.007-.114M400.034 913.116l-.083.028-.077.025-.09.014h-.077l-.081-.014-.079-.02-.045-.013" style="fill:none;stroke:red;stroke-width:.999997;stroke-linecap:round;stroke-linejoin:round;stroke-miterlimit:4;stroke-dasharray:none;stroke-opacity:1;visibility:visible" visibility="hidden"/><path d="m407.66 887.243.107.047.092.06.096.073.077.08.076.087.06.093.045.1.039.1.023.107.013.1v.1" style="fill:none;stroke:red;stroke-width:1.99999;stroke-linecap:round;stroke-linejoin:round;stroke-miterlimit:4;stroke-dasharray:none;stroke-opacity:1;visibility:visible" visibility="hidden"/><path d="m406.301 911.924-.461.027-.459.026-.447.039-.44.041-.434.054-.419.053-.408.06-.379.065-.373.067-.36.081-.344.079-.323.088-.313.085-.287.095-.226.079-.207.081-.203.085-.184.088" style="fill:none;stroke:red;stroke-width:.999997;stroke-linecap:round;stroke-linejoin:round;stroke-miterlimit:4;stroke-dasharray:none;stroke-opacity:1;visibility:visible" visibility="hidden"/><path d="m408.288 888.19-.927 22.727" style="fill:none;stroke:red;stroke-width:1.99999;stroke-linecap:round;stroke-linejoin:round;stroke-miterlimit:4;stroke-dasharray:none;stroke-opacity:1;visibility:visible" visibility="hidden"/><path d="m407.361 910.916-.013.107-.02.1-.034.1-.068.146-.018.034-.007.013-.013.02-.04.053-.067.08-.081.075-.092.072-.094.061-.106.052-.114.04-.113.034-.12.02h-.053M239.054 820.717l.06.067.032.066.008.072M232.541 820.81l.013-.075.04-.065.06-.067M237.067 822.19l-.301.02-.311.013-.313.007h-.323l-.312-.007-.312-.02-.308-.02-.299-.033M239.148 821.477l-.021.08-.046.072-.086.081-.107.072-.147.067-.166.065-.2.063-.22.06-.247.044-.26.048-.287.035-.296.025M234.588 822.15l-.301-.04-.282-.047-.257-.053-.245-.055-.222-.065-.193-.067-.167-.074-.14-.072-.109-.074-.077-.081-.047-.079-.013-.081M236.968 819.717l.273.039.258.046.234.054.212.054.19.066.16.066.126.075.094.072M233.214 820.097l.1-.075.133-.065.167-.06.193-.06.219-.053.25-.042.265-.038.28-.027.301-.02.305-.015h.315l.312.008.313.014.307.018.29.035M239.154 820.924l-.007.553M232.541 820.81l-.007.553M238.515 820.19l.537.528M233.214 820.097l-.56.507" style="fill:none;stroke:red;stroke-width:.999997;stroke-linecap:round;stroke-linejoin:round;stroke-miterlimit:4;stroke-dasharray:none;stroke-opacity:1;visibility:visible" visibility="hidden"/><path d="M121.661 773.698c0 1.536-2.013 2.782-4.5 2.782s-4.5-1.246-4.5-2.782c0-1.534 2.013-2.781 4.5-2.781s4.5 1.247 4.5 2.781" style="fill:none;fill-opacity:1;fill-rule:nonzero;stroke:red;stroke-width:1.33333;visibility:visible" visibility="hidden"/><path d="m118.213 773.064.233.033.214.033.198.04.175.047.152.047.135.053.1.053.073.06M115.9 775.158l-.266-.028-.256-.04-.237-.038-.22-.04-.193-.054-.183-.053-.145-.053-.126-.06-.1-.06-.076-.067-.037-.06-.016-.068M120.074 774.564l-.013.06-.047.066-.074.06-.1.062-.122.058-.152.055-.181.053-.19.046-.221.046-.242.034-.251.033-.268.027M118.213 775.165l-.28.02-.287.019-.294.006h-.299l-.293-.006-.296-.007-.284-.019-.28-.02M114.048 774.038l.006-.053.026-.047.049-.053M120.002 773.91l.039.047.027.053.008.047M116.356 773.565l.453.29.715-.001.334-.28M114.634 773.41l-.506.474M119.493 773.432l.508.478M114.048 774.038v.5M120.074 774.057v.507" style="fill:none;stroke:red;stroke-width:.666665;stroke-linecap:round;stroke-linejoin:round;stroke-miterlimit:4;stroke-dasharray:none;stroke-opacity:1;visibility:visible" visibility="hidden"/><path d="m114.634 773.41.08-.06.114-.053.14-.06.166-.047.187-.046.22-.04.232-.034.248-.026.267-.02.272-.02.281-.007h.287l.28.007.28.013.266.02.26.027" style="fill:none;stroke:red;stroke-width:.666665;stroke-linecap:round;stroke-linejoin:round;stroke-miterlimit:4;stroke-dasharray:none;stroke-opacity:1;visibility:visible" visibility="hidden"/><path d="M240.187 820.405c0 1.535-2.013 2.781-4.5 2.781-2.486 0-4.5-1.245-4.5-2.781s2.014-2.782 4.5-2.782c2.487 0 4.5 1.247 4.5 2.782" style="fill:none;fill-opacity:1;fill-rule:nonzero;stroke:red;stroke-width:1.33333;visibility:visible" visibility="hidden"/><path d="m234.883 820.273.454.29.713-.002.336-.279M233.162 820.117l-.507.473M238.02 820.138l.51.479M232.574 820.745v.5M238.602 820.765v.505M233.162 820.117l.08-.06.113-.054.14-.06.167-.046.188-.047.219-.039.231-.034.249-.027.266-.02.272-.02.283-.007h.285l.28.007.28.013.267.02.26.027M236.74 819.771l.235.034.212.033.2.04.173.047.153.045.134.055.1.053.074.06M234.426 821.865l-.265-.028-.256-.04-.238-.039-.22-.04-.193-.053-.183-.055-.145-.052-.125-.06-.101-.06-.075-.067-.038-.06-.016-.068M238.602 821.271l-.012.06-.048.067-.075.06-.097.06-.124.06-.152.055-.181.052-.19.045-.221.048-.242.033-.251.034-.269.025M236.74 821.871l-.28.02-.285.02-.295.005h-.299l-.294-.006-.296-.007-.281-.018-.283-.02M232.574 820.745l.007-.055.025-.045.05-.055M238.529 820.617l.038.046.027.054.008.046" style="fill:none;stroke:red;stroke-width:.666665;stroke-linecap:round;stroke-linejoin:round;stroke-miterlimit:4;stroke-dasharray:none;stroke-opacity:1;visibility:visible" visibility="hidden"/><path d="M331.602 748.257c0 1.535-2.013 2.781-4.5 2.781s-4.5-1.246-4.5-2.781c0-1.537 2.013-2.781 4.5-2.781s4.5 1.244 4.5 2.78" style="fill:none;fill-opacity:1;fill-rule:nonzero;stroke:red;stroke-width:1.33333;visibility:visible" visibility="hidden"/><path d="m328.157 749.72-.28.02-.287.02-.295.009h-.298l-.294-.009-.293-.006-.285-.02-.282-.02M323.99 748.596l.007-.054.023-.046.05-.054M329.943 748.469l.038.045.028.054.008.046M326.298 748.124l.452.29.716-.002.334-.28M324.577 747.969l-.507.471M329.435 747.988l.508.48M323.99 748.596v.5M330.017 748.617v.507M324.577 747.969l.078-.061.115-.052.14-.062.167-.044.186-.048.22-.04.232-.034.248-.026.267-.02.272-.021.281-.007h.287l.28.007.28.013.267.022.258.024M328.157 747.622l.233.032.213.036.199.038.175.046.152.047.134.053.1.054.074.06M325.842 749.716l-.265-.027-.257-.04-.237-.04-.22-.039-.193-.053-.183-.053-.145-.054-.125-.06-.1-.06-.077-.068-.037-.06-.016-.066" style="fill:none;stroke:red;stroke-width:.666665;stroke-linecap:round;stroke-linejoin:round;stroke-miterlimit:4;stroke-dasharray:none;stroke-opacity:1;visibility:visible" visibility="hidden"/><path d="m330.017 749.122-.014.06-.046.068-.075.059-.099.06-.122.059-.152.054-.182.054-.19.046-.22.048-.242.03-.252.036-.268.024" style="fill:none;stroke:red;stroke-width:.666665;stroke-linecap:round;stroke-linejoin:round;stroke-miterlimit:4;stroke-dasharray:none;stroke-opacity:1;visibility:visible" visibility="hidden"/><path d="M459.914 788.66c0 1.536-2.015 2.783-4.5 2.783-2.487-.001-4.5-1.248-4.5-2.782 0-1.536 2.013-2.783 4.5-2.783 2.485 0 4.5 1.247 4.5 2.783" style="fill:none;fill-opacity:1;fill-rule:nonzero;stroke:red;stroke-width:1.33333;visibility:visible" visibility="hidden"/><path d="m454.608 788.528.454.289.714-.001.335-.28M452.887 788.373l-.507.472M457.746 788.391l.508.48M452.3 788.998v.5M458.327 789.02v.505M452.887 788.373l.08-.061.113-.052.14-.062.167-.045.187-.047.22-.04.232-.034.248-.026.266-.02.272-.021.282-.007h.286l.28.007.28.013.267.022.26.025M456.466 788.026l.233.032.213.035.199.04.175.045.152.047.134.053.1.053.074.06M454.152 790.118l-.265-.027-.257-.04-.236-.04-.22-.04-.194-.053-.182-.052-.146-.053-.126-.063-.1-.059-.074-.066-.038-.06-.016-.067M458.327 789.526l-.013.06-.047.067-.077.06-.096.06-.124.057-.151.056-.183.054-.19.046-.219.047-.24.032-.253.034-.268.026M456.466 790.125l-.28.02-.287.02-.295.007h-.298l-.294-.007-.296-.007-.282-.02-.282-.02M452.3 788.998l.007-.053.023-.047.05-.053M458.255 788.873l.037.045.028.053.008.048" style="fill:none;stroke:red;stroke-width:.666665;stroke-linecap:round;stroke-linejoin:round;stroke-miterlimit:4;stroke-dasharray:none;stroke-opacity:1;visibility:visible" visibility="hidden"/><path d="M615.734 838.426c-.138 1.53-2.254 2.587-4.732 2.363-2.477-.224-4.369-1.644-4.232-3.175.14-1.53 2.256-2.59 4.734-2.365 2.476.226 4.37 1.646 4.23 3.177" style="fill:none;fill-opacity:1;fill-rule:nonzero;stroke:red;stroke-width:1.33333;visibility:visible" visibility="hidden"/><path d="m612.17 839.574-.28-.005-.29-.006-.292-.018-.298-.028-.292-.034-.293-.033-.284-.045-.277-.047M608.121 838.077l.012-.054.03-.043.054-.049M614.062 838.487l.034.051.022.056.004.047M610.464 837.814l.422.33.715.061.357-.249M608.762 837.505l-.546.425M613.6 837.963l.462.527M608.121 838.077l-.044.497M614.122 838.64l-.045.506M608.762 837.505l.083-.055.117-.04.148-.048.171-.032.187-.028.222-.021.24-.012.245-.004.271.004.271.005.281.017.286.027.278.032.278.039.264.044.253.049M612.358 837.483l.23.055.21.052.193.06.171.06.148.06.127.065.096.065.067.063M609.865 839.36l-.261-.052-.25-.062-.239-.063-.215-.058-.184-.071-.176-.07-.144-.065-.116-.073-.095-.068-.07-.072-.03-.064-.009-.068" style="fill:none;stroke:red;stroke-width:.666665;stroke-linecap:round;stroke-linejoin:round;stroke-miterlimit:4;stroke-dasharray:none;stroke-opacity:1;visibility:visible" visibility="hidden"/><path d="m614.077 839.145-.02.058-.052.062-.077.053-.104.052-.127.048-.157.04-.186.036-.194.03-.224.026-.243.01-.255.012-.27.002" style="fill:none;stroke:red;stroke-width:.666665;stroke-linecap:round;stroke-linejoin:round;stroke-miterlimit:4;stroke-dasharray:none;stroke-opacity:1;visibility:visible" visibility="hidden"/><path d="M386.703 878.155c0 1.535-2.015 2.782-4.5 2.782-2.487 0-4.5-1.247-4.5-2.782s2.013-2.782 4.5-2.782c2.485 0 4.5 1.246 4.5 2.782" style="fill:none;fill-opacity:1;fill-rule:nonzero;stroke:red;stroke-width:1.33333;visibility:visible" visibility="hidden"/><path d="m381.4 878.023.451.29.716-.001.335-.279M379.676 877.867l-.506.473M384.536 877.887l.508.48M379.09 878.494v.5M385.116 878.515v.507M379.676 877.867l.079-.06.115-.053.14-.061.166-.046.187-.046.22-.041.232-.034.248-.026.267-.02.272-.021.281-.006h.287l.28.006.28.015.266.02.259.025M383.256 877.522l.234.032.213.035.199.038.174.047.152.046.135.054.1.053.073.06M380.942 879.614l-.266-.027-.256-.04-.237-.04-.22-.04-.193-.052-.183-.053-.145-.053-.127-.06-.099-.062-.076-.066-.037-.061-.016-.066M385.116 879.022l-.013.06-.047.067-.076.06-.097.06-.124.058-.15.055-.184.053-.189.047-.22.047-.241.031-.252.035-.268.026M383.256 879.62l-.28.02-.286.02-.295.008h-.299l-.293-.007-.295-.007-.284-.02-.28-.02M379.09 878.494l.006-.054.024-.046.051-.054M385.044 878.369l.038.045.028.053.008.047" style="fill:none;stroke:red;stroke-width:.666665;stroke-linecap:round;stroke-linejoin:round;stroke-miterlimit:4;stroke-dasharray:none;stroke-opacity:1;visibility:visible" visibility="hidden"/><path d="M125.702 780.729a.041.041 0 0 0-.041-.041.04.04 0 0 0-.041.04v.085a.04.04 0 0 0 .04.041.042.042 0 0 0 .042-.042v-.083" style="fill:none;fill-opacity:1;fill-rule:nonzero;stroke:red;stroke-width:1.33333;visibility:visible" visibility="hidden"/><path d="M630.818 847.605 308.493 745.718M429.246 888.032l-3.255-.14M428.285 906.98l-3.14.592M407.66 887.243l-2.075-.83M406.308 911.924l1.23-5.651M407.66 887.243l-7.44-2.938M117.858 773.574l-3.945-1.847M399.14 912.376l2.24 7.245M399.16 912.37l1.88 16.164M629.681 869.042l.706-3.572M399.502 913.13l.705-4.834" style="fill:none;stroke:red;stroke-width:.999997;stroke-linecap:round;stroke-linejoin:round;stroke-miterlimit:4;stroke-dasharray:none;stroke-opacity:1;visibility:visible" visibility="hidden"/><path d="m292.593 747.853-3.439 13.027M118.213 775.165l17.74 4.314M635.804 867.243l.544-2.874" style="fill:none;stroke:red;stroke-width:1.86666;stroke-linecap:round;stroke-linejoin:round;stroke-miterlimit:4;stroke-dasharray:none;stroke-opacity:1;visibility:visible" visibility="hidden"/><path d="m319.1 765.511-5.461-.536M612.72 861.924l.708 1.756M614.285 862.418l6.072 3.555" style="fill:none;stroke:red;stroke-width:.999997;stroke-linecap:round;stroke-linejoin:round;stroke-miterlimit:4;stroke-dasharray:none;stroke-opacity:1;visibility:visible" visibility="hidden"/><path d="m318.533 749.626-10.162-1.885" style="fill:none;stroke:red;stroke-width:1.86666;stroke-linecap:round;stroke-linejoin:round;stroke-miterlimit:4;stroke-dasharray:none;stroke-opacity:1;visibility:visible" visibility="hidden"/><path d="m386.007 878.73-4.046-1.594" style="fill:none;stroke:red;stroke-width:1.99999;stroke-linecap:round;stroke-linejoin:round;stroke-miterlimit:4;stroke-dasharray:none;stroke-opacity:1;visibility:visible" visibility="hidden"/><path d="m120.074 774.564 1.587-.866M120.074 774.057l1.587-.359M239.147 821.477l1.04-1.072M239.154 820.924l1.033-.519M330.017 749.124l1.585-.867M330.017 748.617l1.585-.361M458.327 789.525l1.587-.865M458.327 789.02l1.587-.359M614.575 839.104l1.159-.678M614.608 838.544l1.126-.118M121.661 773.698l4.041 7.031M124.126 775.746l1.576 4.983" style="fill:none;fill-opacity:1;fill-rule:nonzero;stroke:red;stroke-width:1.33333;visibility:visible" visibility="hidden"/><path d="M239.653 730.694v-.053" style="fill:none;stroke:#00ff4a;stroke-width:.999997;stroke-linecap:round;stroke-linejoin:round;stroke-miterlimit:4;stroke-dasharray:none;stroke-opacity:1;visibility:visible" visibility="hidden"/><path d="m111.898 752.286.014.16.033.154.06.14.088.128.099.098.12.08.133.054.14.026h.147l.145-.033.141-.053.132-.087.122-.107.098-.126.088-.14.06-.154.04-.16.014-.166-.014-.16-.04-.147-.06-.14-.081-.127-.105-.1-.116-.08-.131-.053-.14-.027h-.147l-.145.027-.141.06-.135.087-.117.106-.107.12-.081.148-.067.152-.033.16-.014.16M202.546 742.214l.007.154.032.148.052.132.082.12.092.1.107.08.128.052.127.028.137-.008.136-.026.13-.053.128-.081.115-.106.091-.12.08-.133.063-.152.04-.155.013-.16-.006-.153-.034-.147-.06-.133-.073-.121-.094-.1-.113-.08-.12-.052-.136-.028-.13.008-.14.026-.128.054-.126.08-.113.106-.1.12-.08.134-.06.152-.034.154-.013.16M158 747.16l.013.16.033.155.06.133.074.12.1.106.113.076.133.05.132.028h.142l.14-.028.133-.06.13-.08.117-.106.097-.12.09-.14.059-.153.034-.161.02-.16-.014-.152-.033-.154-.06-.133-.08-.121-.1-.106-.113-.08-.128-.044-.132-.03h-.14l-.147.029-.136.059-.125.08-.12.106-.099.12-.08.14-.06.154-.04.152-.013.16" style="fill:none;stroke:#00ff4a;stroke-width:.666665;stroke-linecap:round;stroke-linejoin:round;stroke-miterlimit:4;stroke-dasharray:none;stroke-opacity:1;visibility:visible" visibility="hidden"/><path d="m59.78 749.36.04 17.427" style="fill:none;stroke:#00ff4a;stroke-width:1.99999;stroke-linecap:round;stroke-linejoin:round;stroke-miterlimit:4;stroke-dasharray:none;stroke-opacity:1;visibility:visible" visibility="hidden"/><path d="m77.32 748.22-4.828.523M72.492 748.74l.014 15.84M72.506 764.58l4.82-.545M77.325 764.034l-.005-15.813M235.405 745.994l4.258-.486M239.666 745.508l.294-14.9M239.96 730.608l-4.268.466M235.691 731.074l-.286 14.919M251.066 728.701 59.78 749.36" style="fill:none;stroke:#00ff4a;stroke-width:.999997;stroke-linecap:round;stroke-linejoin:round;stroke-miterlimit:4;stroke-dasharray:none;stroke-opacity:1;visibility:visible" visibility="hidden"/><path d="m56.667 747.308.365.066.348.067.324.079.31.08.279.08.253.088.227.092.204.093.176.095.147.092.117.1.09.1.06.1" style="fill:none;stroke:#00ff4a;stroke-width:1.99999;stroke-linecap:round;stroke-linejoin:round;stroke-miterlimit:4;stroke-dasharray:none;stroke-opacity:1;visibility:visible" visibility="hidden"/><path d="M59.233 766.854h.007" style="fill:none;stroke:#00ff4a;stroke-width:.999997;stroke-linecap:round;stroke-linejoin:round;stroke-miterlimit:4;stroke-dasharray:none;stroke-opacity:1;visibility:visible" visibility="hidden"/><path d="m56.547 747.294.12.014M59.752 748.994h0M59.773 749.22h0" style="fill:none;stroke:#00ff4a;stroke-width:1.99999;stroke-linecap:round;stroke-linejoin:round;stroke-miterlimit:4;stroke-dasharray:none;stroke-opacity:1;visibility:visible" visibility="hidden"/><path d="m250.311 745.548.06-.014.055-.018.052-.028.047-.04.038-.04.043-.046.032-.054.028-.054.025-.066.014-.068.014-.086.007-.08M59.82 766.788v.172l-.008.076-.015.072-.005.06-.012.052-.013.048-.015.032-.019.04-.02.029-.021.019-.025.006M247.245 726.888h0M247.371 726.874l-.066-.014" style="fill:none;stroke:#00ff4a;stroke-width:.999997;stroke-linecap:round;stroke-linejoin:round;stroke-miterlimit:4;stroke-dasharray:none;stroke-opacity:1;visibility:visible" visibility="hidden"/><path d="m55.979 748.04-.032-.013-.007-.019M59.567 748.44l.032.035.028.039.025.054.028.068.02.064.02.074.013.082.014.084.013.094.011.102.009.112v.112" style="fill:none;stroke:#00ff4a;stroke-width:1.99999;stroke-linecap:round;stroke-linejoin:round;stroke-miterlimit:4;stroke-dasharray:none;stroke-opacity:1;visibility:visible" visibility="hidden"/><path d="M250.305 745.548h.005M247.305 726.861h0M247.371 726.874l.092.014.083.032.074.053M250.553 727.881h.046M251.066 728.701l.067-.008.053-.013.033-.02.014-.012M250.725 744.953l.065-.013.055-.014.033-.013.013-.02M59.227 767.006l.006.074.02.066" style="fill:none;stroke:#00ff4a;stroke-width:.999997;stroke-linecap:round;stroke-linejoin:round;stroke-miterlimit:4;stroke-dasharray:none;stroke-opacity:1;visibility:visible" visibility="hidden"/><path d="M56.539 747.294h.008" style="fill:none;stroke:#00ff4a;stroke-width:1.99999;stroke-linecap:round;stroke-linejoin:round;stroke-miterlimit:4;stroke-dasharray:none;stroke-opacity:1;visibility:visible" visibility="hidden"/><path d="m59.159 764.828-2.06.232M59.667 767.393h0" style="fill:none;stroke:#00ff4a;stroke-width:.999997;stroke-linecap:round;stroke-linejoin:round;stroke-miterlimit:4;stroke-dasharray:none;stroke-opacity:1;visibility:visible" visibility="hidden"/><path d="m59.253 767.148-.013-.022-.02-.032-.033-.033-.054-.048-.068-.053-.085-.06-.1-.054-.119-.06-.134-.058-.147-.06-.173-.068-.188-.06-.2-.06-.217-.06-.229-.06-.241-.054-.184-.038-.201-.04-.2-.035M56.645 766.194l-.081-.021-.072-.025-.073-.035-.067-.047-.068-.046-.057-.06-.06-.067-.05-.073-.046-.08-.024-.06-.022-.06-.014-.06-.004-.006v-.02l-.015-.046-.005-.108M55.939 748.006l.049 17.374M55.94 748.006v-.08l.013-.086.027-.08.027-.074.04-.073.046-.06.044-.06.063-.053.059-.047.067-.033.074-.034.07-.02.07-.013M59.667 767.393l190.638-21.847M56.547 747.294l190.756-20.433M247.618 726.974h0M250.6 727.881h0M250.893 744.894h0M59.253 767.148h0M56.645 766.194h0M55.987 765.38h0M247.305 726.861h0M56.547 747.294h0M59.72 748.768h0M247.305 726.861h.065l.063.007.057.02.056.025.039.028.032.033M247.618 726.974l.039.039.043.041.07.04.081.047.087.045.096.047.13.053.135.054.152.053.16.053.174.055.18.047.2.052.213.054.227.047.233.045.247.047.253.041.259.047M250.6 727.881l.072.013.071.027.068.027.069.04.066.046.06.054.053.066.047.067.047.075.02.053.017.052.023.061v.019l.006.013.007.04.007.114M251.231 728.648l-.34 16.246M250.893 744.894l-.014.107-.026.107-.028.066-.032.067-.047.059-.048.054-.055.054-.057.04-.06.04-.067.026-.066.02-.083.014" style="fill:none;stroke:#00ff4a;stroke-width:1.99999;stroke-linecap:round;stroke-linejoin:round;stroke-miterlimit:4;stroke-dasharray:none;stroke-opacity:1;visibility:visible" visibility="hidden"/><path d="M59.667 767.393h-.06l-.07-.007-.06-.02-.06-.026-.052-.04-.045-.04-.033-.047-.02-.033-.017-.034" style="fill:none;stroke:#00ff4a;stroke-width:1.99999;stroke-linecap:round;stroke-linejoin:round;stroke-miterlimit:4;stroke-dasharray:none;stroke-opacity:1;visibility:visible" visibility="hidden"/><path d="m59.667 767.393-.508-2.565M56.54 747.293l.559 17.767" style="fill:none;stroke:#00ff4a;stroke-width:.999997;stroke-linecap:round;stroke-linejoin:round;stroke-miterlimit:4;stroke-dasharray:none;stroke-opacity:1;visibility:visible" visibility="hidden"/><path d="m513.823 927.44-1.313 24.18" style="fill:none;stroke:#9500ff;stroke-width:1.99999;stroke-linecap:round;stroke-linejoin:round;stroke-miterlimit:4;stroke-dasharray:none;stroke-opacity:1;visibility:visible"/><path d="m733.923 881.76-220.1 45.68" style="fill:none;stroke:#9500ff;stroke-width:.999997;stroke-linecap:round;stroke-linejoin:round;stroke-miterlimit:4;stroke-dasharray:none;stroke-opacity:1;visibility:visible"/><path d="m513.332 926.06.08.051.073.075.067.093.06.101.053.1.038.112.042.12.035.128.024.14.015.14.013.16-.008.16M507.484 923.767l.613.133.593.14.567.147.546.161.52.167.494.172.46.18.434.187.393.193.366.2.32.2.293.207.247.206" style="fill:none;stroke:#9500ff;stroke-width:1.99999;stroke-linecap:round;stroke-linejoin:round;stroke-miterlimit:4;stroke-dasharray:none;stroke-opacity:1;visibility:visible"/><path d="m734.05 881.687-.015.027-.045.025-.067.022M733.091 880.594l.028-.015h.018M507.13 923.754l.356.013M726.59 878.774h0M727.044 878.68l-.244-.032M512.51 951.62l-.005.111-.022.101-.039.174-.053.141-.071.107-.084.078-.045.028-.054.02M731.517 904.487l.083-.027.09-.033.138-.093.106-.107.096-.126.068-.161.019-.1.013-.101M727.044 878.68l.12.015.113.039" style="fill:none;stroke:#9500ff;stroke-width:.999997;stroke-linecap:round;stroke-linejoin:round;stroke-miterlimit:4;stroke-dasharray:none;stroke-opacity:1;visibility:visible"/><path d="m732.257 903.667-.017.028-.044.026-.068.019M506.545 947.867l4.895-1.053" style="fill:none;stroke:#9500ff;stroke-width:.999997;stroke-linecap:round;stroke-linejoin:round;stroke-miterlimit:4;stroke-dasharray:none;stroke-opacity:1;visibility:visible"/><path d="m506.332 924.68.008-.113.024-.107.041-.106.071-.146.104-.134.112-.114.14-.093.139-.067.161-.046M512.137 952.38l-.105.011-.107-.005-.1-.02-.097-.04-.091-.054-.082-.066M506.332 924.68l-1.287 24.087M511.557 952.206l-.146-.128-.162-.132-.185-.127-.201-.135-.223-.132-.236-.134-.254-.128-.273-.124-.287-.127-.306-.128-.32-.12-.34-.119-.347-.112-.36-.114-.361-.107-.379-.101-.38-.094-.393-.092-.407-.088M505.999 949.967l-.12-.033-.122-.048-.114-.054-.107-.072-.096-.08-.095-.094-.08-.099-.073-.107-.055-.12-.012-.02-.005-.015-.008-.025-.03-.074-.022-.114-.015-.112v-.133M726.802 878.647l.075-.007.063-.007.076.006.066.015.075.02.059.033.058.026M732.257 903.667l-.024.14-.044.14-.047.087-.052.086-.06.075-.114.106-.13.079-.13.067-.141.04M727.277 878.734l.18.113.207.107.213.113.24.107.25.113.271.107.278.106.3.107.319.107.325.106.35.1.354.094.365.1.377.093.444.1.45.094.463.093.475.086M733.135 880.58l.115.028.112.039.108.047.099.06.099.073.089.079.077.093.068.095.053.106.021.039v.008l.009.007.012.032.025.1.028.148v.153l-1.793 21.979M726.802 878.647 507.13 923.754M731.517 904.487l-219.38 47.893M511.557 952.206h0M505.044 948.766h0M727.277 878.734h0M732.257 903.667h0M733.135 880.58h0M507.13 923.754h0M731.517 904.487h0" style="fill:none;stroke:#9500ff;stroke-width:1.99999;stroke-linecap:round;stroke-linejoin:round;stroke-miterlimit:4;stroke-dasharray:none;stroke-opacity:1;visibility:visible"/><path d="m512.137 952.38-.697-5.566" style="fill:none;stroke:#9500ff;stroke-width:.999997;stroke-linecap:round;stroke-linejoin:round;stroke-miterlimit:4;stroke-dasharray:none;stroke-opacity:1;visibility:visible"/><path d="m119.226 767.807-7.328-15.521" style="fill:none;stroke:#00ff4a;stroke-width:.666665;stroke-linecap:round;stroke-linejoin:round;stroke-miterlimit:4;stroke-dasharray:none;stroke-opacity:1;visibility:visible" visibility="hidden"/></svg>