<svg xmlns="http://www.w3.org/2000/svg" baseProfile="full" height="1122.52" preserveAspectRatio="xMinYMin meet" style="width:765px;height:943px" width="793.701" xml:space="preserve"><path d="m407.226 421.602-129.304-58.343M418.744 417.368l-11.564 4.148-.105 18.868" style="fill:none;stroke:red;stroke-width:.999997;stroke-linecap:round;stroke-linejoin:round;stroke-miterlimit:4;stroke-dasharray:none;stroke-opacity:1;visibility:visible" visibility="hidden"/><path d="m363.447 392.468-66.136-29.603" style="fill:none;stroke:red;stroke-width:1.99999;stroke-linecap:round;stroke-linejoin:round;stroke-miterlimit:4;stroke-dasharray:none;stroke-opacity:1;visibility:visible" visibility="hidden"/><path d="m379.612 399.708-11.578-5.246" style="fill:none;stroke:red;stroke-width:.999997;stroke-linecap:round;stroke-linejoin:round;stroke-miterlimit:4;stroke-dasharray:none;stroke-opacity:1;visibility:visible" visibility="hidden"/><path d="m277.969 363.107.176 18.43 129.415 59.295 11.834-4.316.069-18.966-39.853-17.84" style="fill:none;stroke:red;stroke-width:1.99999;stroke-linecap:round;stroke-linejoin:round;stroke-miterlimit:4;stroke-dasharray:none;stroke-opacity:1;visibility:visible" visibility="hidden"/><path d="M414.519 430.835c-1.005-.433-1.333-2.008-.737-3.524.598-1.513 1.894-2.39 2.9-1.959 1 .432 1.332 2.008.736 3.523-.598 1.516-1.895 2.39-2.899 1.96M360.05 396.831c.014.341-.702.652-1.602.693-.9.042-1.644-.2-1.657-.544-.017-.34.7-.65 1.6-.692.901-.04 1.641.203 1.659.543" style="fill:none;stroke:red;stroke-width:.666665;stroke-linecap:round;stroke-linejoin:round;stroke-miterlimit:4;stroke-dasharray:none;stroke-opacity:1;visibility:visible" visibility="hidden"/><path d="m414.159 428.76.836 1.241 1.432-.677.6-1.924-.841-1.242-1.436.678-.591 1.924" style="fill:none;stroke:red;stroke-width:.666665;stroke-linecap:round;stroke-linejoin:round;stroke-miterlimit:4;stroke-dasharray:none;stroke-opacity:1;visibility:visible" visibility="hidden"/><path d="m366.338 334.567 129.794 55.013" style="fill:none;stroke:red;stroke-width:.999997;stroke-linecap:round;stroke-linejoin:round;stroke-miterlimit:4;stroke-dasharray:none;stroke-opacity:1;visibility:visible" visibility="hidden"/><path d="m378.663 357.685 39.19 16.889M455.607 390.846l40.72 17.55 11.22-4.081.123-18.542-44.83-18.913M457.599 364.649 389.6 335.963M371.706 332.557l-5.61 1.888.059 10.324" style="fill:none;stroke:red;stroke-width:1.99999;stroke-linecap:round;stroke-linejoin:round;stroke-miterlimit:4;stroke-dasharray:none;stroke-opacity:1;visibility:visible" visibility="hidden"/><path d="M498.305 400.316c-.932-.409-1.237-1.9-.682-3.333.552-1.433 1.754-2.263 2.686-1.855.926.41 1.234 1.9.682 3.334-.552 1.433-1.758 2.261-2.686 1.854M453.706 364.402c.016.328-.676.627-1.54.667-.866.04-1.578-.195-1.592-.524-.015-.328.672-.626 1.538-.667.864-.039 1.578.196 1.594.524" style="fill:none;stroke:red;stroke-width:.666665;stroke-linecap:round;stroke-linejoin:round;stroke-miterlimit:4;stroke-dasharray:none;stroke-opacity:1;visibility:visible" visibility="hidden"/><path d="m497.97 398.351.773 1.177 1.328-.642.554-1.818-.778-1.18-1.328.644-.549 1.819" style="fill:none;stroke:red;stroke-width:.666665;stroke-linecap:round;stroke-linejoin:round;stroke-miterlimit:4;stroke-dasharray:none;stroke-opacity:1;visibility:visible" visibility="hidden"/><path d="m506.857 385.66-10.725 3.944-.221 18.394" style="fill:none;stroke:red;stroke-width:.999997;stroke-linecap:round;stroke-linejoin:round;stroke-miterlimit:4;stroke-dasharray:none;stroke-opacity:1;visibility:visible" visibility="hidden"/><path d="m303.355 365.353 62.376-20.704M378.663 357.685l-52.76 17.802" style="fill:none;stroke:red;stroke-width:1.99999;stroke-linecap:round;stroke-linejoin:round;stroke-miterlimit:4;stroke-dasharray:none;stroke-opacity:1;visibility:visible" visibility="hidden"/><path d="M324.097 372.506c-.392 1.014-1.287 1.613-1.992 1.341-.706-.273-.963-1.314-.571-2.33.39-1.011 1.283-1.614 1.99-1.341.708.271.964 1.317.572 2.329l.001.001M366.026 359.183c-.392 1.015-1.286 1.614-1.992 1.342-.706-.275-.964-1.315-.57-2.33.389-1.013 1.281-1.615 1.987-1.342.711.272.967 1.317.575 2.33M310.525 368.246c.502-.248 1.295-.42 2.192-.45 1.538-.046 2.8.354 2.817.894.013.437-.797.835-1.924.995M368.822 351.973c.017.54-1.22 1.017-2.758 1.066-1.54.048-2.8-.353-2.818-.893-.016-.54 1.218-1.017 2.758-1.067 1.54-.046 2.8.354 2.818.894M316.115 371.057l61.772-20.71M365.731 344.649l12.997 5.709-.065 7.327" style="fill:none;stroke:red;stroke-width:.999997;stroke-linecap:round;stroke-linejoin:round;stroke-miterlimit:4;stroke-dasharray:none;stroke-opacity:1;visibility:visible" visibility="hidden"/><path d="m455.13 390.61-53.214 18.91" style="fill:none;stroke:red;stroke-width:1.99999;stroke-linecap:round;stroke-linejoin:round;stroke-miterlimit:4;stroke-dasharray:none;stroke-opacity:1;visibility:visible" visibility="hidden"/><path d="m455.226 372.878-.128 17.445" style="fill:none;stroke:red;stroke-width:.999997;stroke-linecap:round;stroke-linejoin:round;stroke-miterlimit:4;stroke-dasharray:none;stroke-opacity:1;visibility:visible" visibility="hidden"/><path d="m368.334 392.32 72.338-25.039" style="fill:none;stroke:red;stroke-width:1.99999;stroke-linecap:round;stroke-linejoin:round;stroke-miterlimit:4;stroke-dasharray:none;stroke-opacity:1;visibility:visible" visibility="hidden"/><path d="m378.844 398.967 75.603-26.304" style="fill:none;stroke:red;stroke-width:.999997;stroke-linecap:round;stroke-linejoin:round;stroke-miterlimit:4;stroke-dasharray:none;stroke-opacity:1;visibility:visible" visibility="hidden"/><path d="M387.626 402.99c.85-.906 1.98-1.272 2.852-.824.76.39 1.132 1.304 1.052 2.342" style="fill:none;stroke:red;stroke-width:.666665;stroke-linecap:round;stroke-linejoin:round;stroke-miterlimit:4;stroke-dasharray:none;stroke-opacity:1;visibility:visible" visibility="hidden"/><path d="M446.986 385.771c-.623 1.524-1.932 2.43-2.918 2.029-.988-.406-1.282-1.967-.66-3.49.624-1.523 1.93-2.431 2.92-2.028.984.401 1.284 1.964.658 3.488v.001" style="fill:none;stroke:red;stroke-width:.999997;stroke-linecap:round;stroke-linejoin:round;stroke-miterlimit:4;stroke-dasharray:none;stroke-opacity:1;visibility:visible" visibility="hidden"/><path d="m445.178 384.246.038 1.501M444.314 385.29l1.785-.505M365.434 351.742l1.2.633M365.106 352.302l1.856-.487M367.25 387.086c.005.344-.584.633-1.318.644-.732.011-1.33-.256-1.336-.6" style="fill:none;stroke:red;stroke-width:.666665;stroke-linecap:round;stroke-linejoin:round;stroke-miterlimit:4;stroke-dasharray:none;stroke-opacity:1;visibility:visible" visibility="hidden"/><path d="M364.436 390.415c-.002-.223.284-.424.724-.54M365.116 388.646l.044 1.232M367.25 387.086c-.006-.341-.604-.612-1.336-.597-.735.01-1.324.297-1.318.64l.042 1.001c.005.345.588.614 1.3.602.712-.011 1.285-.302 1.284-.642l.028-1.004" style="fill:none;stroke:red;stroke-width:.866664;stroke-linecap:round;stroke-linejoin:round;stroke-miterlimit:4;stroke-dasharray:none;stroke-opacity:1;visibility:visible" visibility="hidden"/><path d="M367.48 390.451c-.098.304-.734.55-1.505.563-.847.013-1.533-.255-1.539-.599" style="fill:none;stroke:red;stroke-width:.666665;stroke-linecap:round;stroke-linejoin:round;stroke-miterlimit:4;stroke-dasharray:none;stroke-opacity:1;visibility:visible" visibility="hidden"/><path d="M367.767 400.26c.008.462-.727.85-1.64.867-.915.02-1.663-.336-1.672-.793 0-.032.003-.066.007-.098M367.492 390.365l.18 9.567M364.436 390.415l-.013 9.548M366.746 388.6l.038 1.261c.44.102.704.279.707.503.003.034-.01.09-.01.09" style="fill:none;stroke:red;stroke-width:.866664;stroke-linecap:round;stroke-linejoin:round;stroke-miterlimit:4;stroke-dasharray:none;stroke-opacity:1;visibility:visible" visibility="hidden"/><path d="m365.911 392.004.143 8.031" style="fill:none;stroke:red;stroke-width:.666665;stroke-linecap:round;stroke-linejoin:round;stroke-miterlimit:4;stroke-dasharray:none;stroke-opacity:1;visibility:visible" visibility="hidden"/><path d="M462.018 368.177c.008.46-.728.849-1.64.866-.915.02-1.663-.336-1.672-.793a.79.79 0 0 1 .006-.097" style="fill:none;stroke:red;stroke-width:.866664;stroke-linecap:round;stroke-linejoin:round;stroke-miterlimit:4;stroke-dasharray:none;stroke-opacity:1;visibility:visible" visibility="hidden"/><path d="m414.519 430.835-7.293-9.233M401.916 409.52l16.828 7.848" style="fill:none;stroke:red;stroke-width:.999997;stroke-linecap:round;stroke-linejoin:round;stroke-miterlimit:4;stroke-dasharray:none;stroke-opacity:1;visibility:visible" visibility="hidden"/><path d="m368.034 394.462-4.587-1.994" style="fill:none;stroke:red;stroke-width:1.99999;stroke-linecap:round;stroke-linejoin:round;stroke-miterlimit:4;stroke-dasharray:none;stroke-opacity:1;visibility:visible" visibility="hidden"/><path d="m363.447 392.468 4.587 1.994" style="fill:none;stroke:red;stroke-width:.999997;stroke-linecap:round;stroke-linejoin:round;stroke-miterlimit:4;stroke-dasharray:none;stroke-opacity:1;visibility:visible" visibility="hidden"/><path d="m407.226 421.602 7.293 9.233M364.423 399.963l-4.373-3.132M365.911 392.004l-5.861 4.827" style="fill:none;stroke:red;stroke-width:.666665;stroke-linecap:round;stroke-linejoin:round;stroke-miterlimit:4;stroke-dasharray:none;stroke-opacity:1;visibility:visible" visibility="hidden"/><path d="m366.634 352.375-.296-17.808M498.305 400.316l-2.173-10.736" style="fill:none;stroke:red;stroke-width:.999997;stroke-linecap:round;stroke-linejoin:round;stroke-miterlimit:4;stroke-dasharray:none;stroke-opacity:1;visibility:visible" visibility="hidden"/><path d="m457.599 364.649 5.241 2.211M462.84 366.86l-5.241-2.211" style="fill:none;stroke:red;stroke-width:1.99999;stroke-linecap:round;stroke-linejoin:round;stroke-miterlimit:4;stroke-dasharray:none;stroke-opacity:1;visibility:visible" visibility="hidden"/><path d="m496.132 389.58 2.173 10.736M455.226 372.878l-1.52-8.476" style="fill:none;stroke:red;stroke-width:.666665;stroke-linecap:round;stroke-linejoin:round;stroke-miterlimit:4;stroke-dasharray:none;stroke-opacity:1;visibility:visible" visibility="hidden"/><path d="m366.155 344.769 2.667 7.204M365.106 352.302l12.781-1.955" style="fill:none;stroke:red;stroke-width:.999997;stroke-linecap:round;stroke-linejoin:round;stroke-miterlimit:4;stroke-dasharray:none;stroke-opacity:1;visibility:visible" visibility="hidden"/><path d="m418.744 417.368-16.828-7.848M365.16 389.875l3.174 2.445M444.314 385.29l-3.642-18.009" style="fill:none;stroke:red;stroke-width:1.99999;stroke-linecap:round;stroke-linejoin:round;stroke-miterlimit:4;stroke-dasharray:none;stroke-opacity:1;visibility:visible" visibility="hidden"/><path d="m365.16 389.875 13.684 9.092M445.178 384.246l1.808 1.525" style="fill:none;stroke:red;stroke-width:.999997;stroke-linecap:round;stroke-linejoin:round;stroke-miterlimit:4;stroke-dasharray:none;stroke-opacity:1;visibility:visible" visibility="hidden"/><path d="m446.986 385.771-1.808-1.525M455.226 372.878l-10.01 12.869M455.13 390.61l-10.816-5.32M367.25 387.086l-2.654.044" style="fill:none;stroke:red;stroke-width:.666665;stroke-linecap:round;stroke-linejoin:round;stroke-miterlimit:4;stroke-dasharray:none;stroke-opacity:1;visibility:visible" visibility="hidden"/><path d="m364.436 390.415.68-1.769M367.25 387.086l-.504 1.514" style="fill:none;stroke:red;stroke-width:.866664;stroke-linecap:round;stroke-linejoin:round;stroke-miterlimit:4;stroke-dasharray:none;stroke-opacity:1;visibility:visible" visibility="hidden"/><path d="m364.436 390.415 1.475 1.589M367.767 400.26l-1.713-.225" style="fill:none;stroke:red;stroke-width:.666665;stroke-linecap:round;stroke-linejoin:round;stroke-miterlimit:4;stroke-dasharray:none;stroke-opacity:1;visibility:visible" visibility="hidden"/><path d="m453.706 364.402 8.312 3.775" style="fill:none;stroke:red;stroke-width:.866664;stroke-linecap:round;stroke-linejoin:round;stroke-miterlimit:4;stroke-dasharray:none;stroke-opacity:1;visibility:visible" visibility="hidden"/><path d="m372.02 76.933 12.957 4.23 4.811-1.216M384.539 337.829l.115-67.169M384.674 258.574l.298-177.374" style="fill:none;stroke:#00ff4a;stroke-width:.999997;stroke-linecap:round;stroke-linejoin:round;stroke-miterlimit:4;stroke-dasharray:none;stroke-opacity:1;visibility:visible" visibility="hidden"/><path d="m390.004 334.589.139-67.896M390.168 253.609l.355-174.62-12.563-4.082-6 1.423M372.02 76.933l-.09 195.058M371.924 283.414l-.018 41.744M371.906 330.695v1.146" style="fill:none;stroke:#00ff4a;stroke-width:1.99999;stroke-linecap:round;stroke-linejoin:round;stroke-miterlimit:4;stroke-dasharray:none;stroke-opacity:1;visibility:visible" visibility="hidden"/><path d="M383.868 92.595c.436 1.57 0 3.077-.998 3.36-.996.285-2.172-.759-2.614-2.331-.454-1.572-.006-3.079.99-3.364 1-.284 2.161.763 2.622 2.335M388.814 102.55c-.375 1.028-1.258 1.652-1.971 1.39-.719-.26-.993-1.304-.621-2.332.373-1.028 1.257-1.65 1.976-1.39.712.262.988 1.304.616 2.33v.002M388.647 210.57c-.375 1.028-1.257 1.652-1.97 1.39-.721-.262-.995-1.304-.623-2.332.374-1.028 1.258-1.651 1.977-1.391.713.264.988 1.305.616 2.333M388.48 316.714c-.374 1.03-1.257 1.653-1.97 1.39-.72-.259-.994-1.302-.622-2.33.374-1.029 1.258-1.652 1.976-1.392.714.264.988 1.305.616 2.332M380.12 322.182c.182-.34.445-.585.775-.688.968-.299 2.136.717 2.62 2.27.483 1.555.087 3.058-.873 3.355-.4.123-.836.022-1.244-.251M371.892 332.515l12.646 5.312 4.812-1.561" style="fill:none;stroke:#00ff4a;stroke-width:.999997;stroke-linecap:round;stroke-linejoin:round;stroke-miterlimit:4;stroke-dasharray:none;stroke-opacity:1;visibility:visible" visibility="hidden"/><path d="M386.026 79.547c0 .26-.726.47-1.622.47-.894 0-1.621-.21-1.621-.47 0-.257.727-.468 1.621-.468.896 0 1.622.211 1.622.468M378.995 76.964c0 .253-.721.459-1.61.459-.892 0-1.612-.206-1.612-.46.001-.25.721-.455 1.611-.455.89-.001 1.611.204 1.611.456" style="fill:none;stroke:#00ff4a;stroke-width:.666665;stroke-linecap:round;stroke-linejoin:round;stroke-miterlimit:4;stroke-dasharray:none;stroke-opacity:1;visibility:visible" visibility="hidden"/><path d="m371.96 76.33 17.828 3.617M371.906 330.695l12.633 7.134M384.674 258.574l-.02 12.086M390.143 266.693l-5.469-8.119M386.026 79.547l-1.054 1.653" style="fill:none;stroke:#00ff4a;stroke-width:.999997;stroke-linecap:round;stroke-linejoin:round;stroke-miterlimit:4;stroke-dasharray:none;stroke-opacity:1;visibility:visible" visibility="hidden"/><path d="m371.906 330.695 18.098 3.894M384.674 258.574l5.469 8.119M390.143 266.693l.025-13.084M371.924 283.414l.006-11.423M371.93 271.991l-.006 11.423M371.906 330.695v-5.537M371.906 325.158v5.537" style="fill:none;stroke:#00ff4a;stroke-width:1.99999;stroke-linecap:round;stroke-linejoin:round;stroke-miterlimit:4;stroke-dasharray:none;stroke-opacity:1;visibility:visible" visibility="hidden"/><path d="m378.995 76.964 7.031 2.583M384.972 81.2l1.054-1.653M386.026 79.547l-7.031-2.583M372.02 76.933l6.975.031" style="fill:none;stroke:#00ff4a;stroke-width:.666665;stroke-linecap:round;stroke-linejoin:round;stroke-miterlimit:4;stroke-dasharray:none;stroke-opacity:1;visibility:visible" visibility="hidden"/><path d="m276.806 100.833 12.645 4.398 5.07-1.271M291.058 368.78l-1.613-263.514" style="fill:none;stroke:#9500ff;stroke-width:.999997;stroke-linecap:round;stroke-linejoin:round;stroke-miterlimit:4;stroke-dasharray:none;stroke-opacity:1;visibility:visible"/><path d="m296.83 366.45-1.557-263.446-12.396-4.294-6.258 1.553M276.643 100.767l1.938 262.33" style="fill:none;stroke:#9500ff;stroke-width:1.99999;stroke-linecap:round;stroke-linejoin:round;stroke-miterlimit:4;stroke-dasharray:none;stroke-opacity:1;visibility:visible"/><path d="M293.834 127.26c-.359 1.093-1.29 1.773-2.084 1.512-.795-.26-1.155-1.36-.792-2.455.356-1.095 1.292-1.773 2.085-1.513.794.262 1.147 1.356.79 2.456h.001M294.453 238.222c-.447 1.026-1.41 1.599-2.16 1.278-.749-.323-1.006-1.418-.563-2.444.439-1.028 1.408-1.602 2.155-1.28.752.324 1 1.414.568 2.446M295.03 347.135c-.445 1.026-1.381 1.61-2.097 1.305-.716-.31-.947-1.393-.504-2.419.44-1.027 1.38-1.614 2.094-1.307.718.312.94 1.39.507 2.421M291.058 368.78l5.208-1.647" style="fill:none;stroke:#9500ff;stroke-width:.999997;stroke-linecap:round;stroke-linejoin:round;stroke-miterlimit:4;stroke-dasharray:none;stroke-opacity:1;visibility:visible"/><path d="M290.886 103.396c0 .267-.744.483-1.66.483-.916 0-1.657-.216-1.657-.483s.74-.481 1.657-.481c.916 0 1.66.214 1.66.48v.001M283.965 101.072c0 .276-.74.503-1.651.503-.91 0-1.65-.227-1.65-.503-.001-.279.739-.503 1.649-.503.911.001 1.651.224 1.651.503h.001" style="fill:none;stroke:#9500ff;stroke-width:.666665;stroke-linecap:round;stroke-linejoin:round;stroke-miterlimit:4;stroke-dasharray:none;stroke-opacity:1;visibility:visible"/><path d="m276.619 100.263 17.902 3.697M290.886 103.396l-1.441 1.87" style="fill:none;stroke:#9500ff;stroke-width:.999997;stroke-linecap:round;stroke-linejoin:round;stroke-miterlimit:4;stroke-dasharray:none;stroke-opacity:1;visibility:visible"/><path d="m289.445 105.266 1.441-1.87M290.886 103.396l-6.921-2.324" style="fill:none;stroke:#9500ff;stroke-width:.666665;stroke-linecap:round;stroke-linejoin:round;stroke-miterlimit:4;stroke-dasharray:none;stroke-opacity:1;visibility:visible"/><path d="m414.519 430.835-.36-2.075" style="fill:none;stroke:red;stroke-width:.666665;stroke-linecap:round;stroke-linejoin:round;stroke-miterlimit:4;stroke-dasharray:none;stroke-opacity:1;visibility:visible" visibility="hidden"/><path d="m296.266 367.133 7.089-1.78" style="fill:none;stroke:red;stroke-width:1.99999;stroke-linecap:round;stroke-linejoin:round;stroke-miterlimit:4;stroke-dasharray:none;stroke-opacity:1;visibility:visible" visibility="hidden"/><path d="m384.539 337.829-3.141-10.961" style="fill:none;stroke:#00ff4a;stroke-width:.999997;stroke-linecap:round;stroke-linejoin:round;stroke-miterlimit:4;stroke-dasharray:none;stroke-opacity:1;visibility:visible" visibility="hidden"/></svg>