<svg xmlns="http://www.w3.org/2000/svg" baseProfile="full" height="1122.52" preserveAspectRatio="xMinYMin meet" style="width:765px;height:943px" width="793.701" xml:space="preserve"><path d="M249.226 448.552c.65.232 1.063.578 1.063.963 0 .703-1.366 1.27-3.049 1.27-1.683.001-3.047-.566-3.047-1.269 0-.366.372-.697.967-.929M171.276 527.625l1.553.548M171.046 528.14l2.014-.483M175.12 527.901c0 .52-1.384.94-3.09.94-1.708-.001-3.092-.421-3.092-.941 0-.516 1.384-.937 3.092-.937 1.706 0 3.09.421 3.09.937v.001M231.89 510.712l1.555.548M231.662 511.228l2.013-.481M235.718 511.004c0 .52-1.384.939-3.09.939-1.708 0-3.09-.419-3.09-.939-.001-.518 1.381-.937 3.091-.937 1.705 0 3.09.419 3.09.937h-.001M171.84 644.704l1.745-.639M172.728 645.488l-.031-2.208M174.79 644.868c.572-1.61.12-3.108-1.01-3.341-1.132-.235-2.512.88-3.087 2.489-.57 1.61-.119 3.11 1.012 3.341 1.13.238 2.512-.877 3.085-2.49v.001M231.813 625.436l1.745-.639M232.7 626.22l-.03-2.205M234.763 625.601c.574-1.61.12-3.106-1.01-3.341-1.13-.235-2.513.88-3.086 2.49-.572 1.608-.117 3.108 1.013 3.34 1.127.239 2.51-.876 3.083-2.488v-.001M447.206 701.074l2.049.698M448.248 700.214l-.033 2.416M450.364 700.87c.522 1.748-.016 3.412-1.193 3.716-1.176.306-2.555-.864-3.075-2.612-.521-1.746.016-3.413 1.192-3.716 1.178-.306 2.555.864 3.076 2.612M265.02 626.26l1.747.639M265.909 625.473l-.031 2.208M267.713 626.075c.442 1.595-.013 3.117-1.016 3.395-1.004.279-2.179-.79-2.622-2.385-.444-1.598.012-3.12 1.016-3.398 1.003-.28 2.179.792 2.622 2.388M447.799 580.736l2.063.693M448.85 579.884l-.036 2.396M450.982 580.535c.524 1.732-.016 3.382-1.2 3.685-1.188.304-2.576-.857-3.103-2.592-.523-1.732.016-3.383 1.204-3.684 1.184-.303 2.572.856 3.099 2.59v.001M264.057 515.764l1.745.639M264.946 514.979l-.03 2.208M266.749 515.579c.441 1.597-.012 3.117-1.016 3.397-1.004.279-2.179-.79-2.623-2.386-.443-1.598.013-3.12 1.017-3.398 1.003-.278 2.178.79 2.623 2.388l-.001-.001" style="fill:none;stroke:red;stroke-width:.666665;stroke-linecap:round;stroke-linejoin:round;stroke-miterlimit:4;stroke-dasharray:none;stroke-opacity:1;visibility:visible"/><path d="m245.17 449.636 1.217.704 2.075-.082.86-.78" style="fill:none;stroke:red;stroke-width:.666665;stroke-linecap:round;stroke-linejoin:round;stroke-miterlimit:4;stroke-dasharray:none;stroke-opacity:1;visibility:visible"/><path d="m384.687 742.78-.06 21.052M372.424 555.419l-.406 213.786" style="fill:none;stroke:red;stroke-width:.999997;stroke-linecap:round;stroke-linejoin:round;stroke-miterlimit:4;stroke-dasharray:none;stroke-opacity:1;visibility:visible"/><path d="m384.992 638.748-.305 104.03" style="fill:none;stroke:red;stroke-width:1.99999;stroke-linecap:round;stroke-linejoin:round;stroke-miterlimit:4;stroke-dasharray:none;stroke-opacity:1;visibility:visible"/><path d="m385.056 616.83-.065 21.917" style="fill:none;stroke:red;stroke-width:.999997;stroke-linecap:round;stroke-linejoin:round;stroke-miterlimit:4;stroke-dasharray:none;stroke-opacity:1;visibility:visible"/><path d="m355.918 614.161.037-64.554 13.41-4.132M376.414 547.967l8.836 3.125-.194 65.738" style="fill:none;stroke:red;stroke-width:1.99999;stroke-linecap:round;stroke-linejoin:round;stroke-miterlimit:4;stroke-dasharray:none;stroke-opacity:1;visibility:visible"/><path d="m355.906 636.501.013-22.341" style="fill:none;stroke:red;stroke-width:.999997;stroke-linecap:round;stroke-linejoin:round;stroke-miterlimit:4;stroke-dasharray:none;stroke-opacity:1;visibility:visible"/><path d="m355.844 740.225.06-103.724" style="fill:none;stroke:red;stroke-width:1.99999;stroke-linecap:round;stroke-linejoin:round;stroke-miterlimit:4;stroke-dasharray:none;stroke-opacity:1;visibility:visible"/><path d="m250.753 639.397 6.21-2.007M250.909 594.403l.346 44.86M249.823 452.97l.558 73.077M355.832 762.214l.012-21.99" style="fill:none;stroke:red;stroke-width:.999997;stroke-linecap:round;stroke-linejoin:round;stroke-miterlimit:4;stroke-dasharray:none;stroke-opacity:1;visibility:visible"/><path d="m237.643 589.14.23 26.39M236.917 505.823l-.503-57.105 7.764-2.031M250.386 446.159l11.067 3.544.387 57.605" style="fill:none;stroke:red;stroke-width:1.99999;stroke-linecap:round;stroke-linejoin:round;stroke-miterlimit:4;stroke-dasharray:none;stroke-opacity:1;visibility:visible"/><path d="m243.01 636.15 7.743 3.246" style="fill:none;stroke:red;stroke-width:.999997;stroke-linecap:round;stroke-linejoin:round;stroke-miterlimit:4;stroke-dasharray:none;stroke-opacity:1;visibility:visible"/><path d="m262.463 598.983.127 18.437" style="fill:none;stroke:red;stroke-width:1.99999;stroke-linecap:round;stroke-linejoin:round;stroke-miterlimit:4;stroke-dasharray:none;stroke-opacity:1;visibility:visible"/><path d="m236.917 505.823 12.478 4.399M167.873 534.015l81.453-22.945" style="fill:none;stroke:red;stroke-width:.999997;stroke-linecap:round;stroke-linejoin:round;stroke-miterlimit:4;stroke-dasharray:none;stroke-opacity:1;visibility:visible"/><path d="m166.858 525.339 70.059-19.516" style="fill:none;stroke:red;stroke-width:1.99999;stroke-linecap:round;stroke-linejoin:round;stroke-miterlimit:4;stroke-dasharray:none;stroke-opacity:1;visibility:visible"/><path d="m386.066 617.252 83.854-28.263" style="fill:none;stroke:red;stroke-width:.999997;stroke-linecap:round;stroke-linejoin:round;stroke-miterlimit:4;stroke-dasharray:none;stroke-opacity:1;visibility:visible"/><path d="m385.092 605.59 69.303-23.042" style="fill:none;stroke:red;stroke-width:1.99999;stroke-linecap:round;stroke-linejoin:round;stroke-miterlimit:4;stroke-dasharray:none;stroke-opacity:1;visibility:visible"/><path d="m469.901 588.02-15.505-5.473" style="fill:none;stroke:red;stroke-width:.999997;stroke-linecap:round;stroke-linejoin:round;stroke-miterlimit:4;stroke-dasharray:none;stroke-opacity:1;visibility:visible"/><path d="m384.999 638.261 84.701-29.213" style="fill:none;stroke:red;stroke-width:1.99999;stroke-linecap:round;stroke-linejoin:round;stroke-miterlimit:4;stroke-dasharray:none;stroke-opacity:1;visibility:visible"/><path d="m237.873 615.53 4.981 2.04M168.525 642.204l74.27-23.764" style="fill:none;stroke:red;stroke-width:.999997;stroke-linecap:round;stroke-linejoin:round;stroke-miterlimit:4;stroke-dasharray:none;stroke-opacity:1;visibility:visible"/><path d="m168.46 637.627 69.413-22.097" style="fill:none;stroke:red;stroke-width:1.99999;stroke-linecap:round;stroke-linejoin:round;stroke-miterlimit:4;stroke-dasharray:none;stroke-opacity:1;visibility:visible"/><path d="m385.687 743.24 83.696-32.227M243.01 636.15l-.156-18.583M179.52 657.176l63.418-20.71" style="fill:none;stroke:red;stroke-width:.999997;stroke-linecap:round;stroke-linejoin:round;stroke-miterlimit:4;stroke-dasharray:none;stroke-opacity:1;visibility:visible"/><path d="m384.708 737.468 77-29.476" style="fill:none;stroke:red;stroke-width:1.99999;stroke-linecap:round;stroke-linejoin:round;stroke-miterlimit:4;stroke-dasharray:none;stroke-opacity:1;visibility:visible"/><path d="m166.974 533.65.06 4.218M152.74 478.032l2.949 192.324M481.195 726.293l-109.723 43.133L143.536 664.78M469.383 710.537l-6.888-2.85" style="fill:none;stroke:red;stroke-width:.999997;stroke-linecap:round;stroke-linejoin:round;stroke-miterlimit:4;stroke-dasharray:none;stroke-opacity:1;visibility:visible"/><path d="m168.668 652.34-1.3-91.06M143.524 663.968l-3.144-190.565 11.969-3.07M159.137 472.091l6.996 2.45.841 59.111" style="fill:none;stroke:red;stroke-width:1.99999;stroke-linecap:round;stroke-linejoin:round;stroke-miterlimit:4;stroke-dasharray:none;stroke-opacity:1;visibility:visible"/><path d="M469.497 730.886 471.5 524.53" style="fill:none;stroke:red;stroke-width:.999997;stroke-linecap:round;stroke-linejoin:round;stroke-miterlimit:4;stroke-dasharray:none;stroke-opacity:1;visibility:visible"/><path d="m385.102 601.908 50.844-16.833M454.115 614.421l-.812 96.79M454.386 582.55l.53-63.374 8.63-2.634M470.503 516.435l12.86 4.052-2.186 205.165" style="fill:none;stroke:red;stroke-width:1.99999;stroke-linecap:round;stroke-linejoin:round;stroke-miterlimit:4;stroke-dasharray:none;stroke-opacity:1;visibility:visible"/><path d="m355.955 565.067-64.964 20.366M441.962 586.684l-5.238-1.867" style="fill:none;stroke:red;stroke-width:.999997;stroke-linecap:round;stroke-linejoin:round;stroke-miterlimit:4;stroke-dasharray:none;stroke-opacity:1;visibility:visible"/><path d="m277.135 580.113 78.36-24.285" style="fill:none;stroke:red;stroke-width:1.99999;stroke-linecap:round;stroke-linejoin:round;stroke-miterlimit:4;stroke-dasharray:none;stroke-opacity:1;visibility:visible"/><path d="m389.93 571.757.01-3.027M355.947 578.641 310.79 593.03M389.482 567.957l-4.284 1.364" style="fill:none;stroke:red;stroke-width:.999997;stroke-linecap:round;stroke-linejoin:round;stroke-miterlimit:4;stroke-dasharray:none;stroke-opacity:1;visibility:visible"/><path d="m296.651 587.605 59.303-18.68" style="fill:none;stroke:red;stroke-width:1.99999;stroke-linecap:round;stroke-linejoin:round;stroke-miterlimit:4;stroke-dasharray:none;stroke-opacity:1;visibility:visible"/><path d="m410.319 579.143.016-3.134M355.938 592.703l-24.945 8.081M409.87 575.228l-24.715 8.008M389.482 567.957l-4.275-1.526" style="fill:none;stroke:red;stroke-width:.999997;stroke-linecap:round;stroke-linejoin:round;stroke-miterlimit:4;stroke-dasharray:none;stroke-opacity:1;visibility:visible"/><path d="m385.19 573.277 9.365-2.997M316.562 595.25l39.382-12.614" style="fill:none;stroke:red;stroke-width:1.99999;stroke-linecap:round;stroke-linejoin:round;stroke-miterlimit:4;stroke-dasharray:none;stroke-opacity:1;visibility:visible"/><path d="m331.097 550.47-.003-2.76M330.657 546.965l-78.088 23.722M409.87 575.228l-14.563-5.19" style="fill:none;stroke:red;stroke-width:.999997;stroke-linecap:round;stroke-linejoin:round;stroke-miterlimit:4;stroke-dasharray:none;stroke-opacity:1;visibility:visible"/><path d="m239.242 565.572 77.352-23.236" style="fill:none;stroke:red;stroke-width:1.99999;stroke-linecap:round;stroke-linejoin:round;stroke-miterlimit:4;stroke-dasharray:none;stroke-opacity:1;visibility:visible"/><path d="m350.33 557.43-.003-2.852M349.887 553.828l-78.3 24.159M330.657 546.965l-13.47-4.805" style="fill:none;stroke:red;stroke-width:.999997;stroke-linecap:round;stroke-linejoin:round;stroke-miterlimit:4;stroke-dasharray:none;stroke-opacity:1;visibility:visible"/><path d="m258.005 572.775 77.765-23.727" style="fill:none;stroke:red;stroke-width:1.99999;stroke-linecap:round;stroke-linejoin:round;stroke-miterlimit:4;stroke-dasharray:none;stroke-opacity:1;visibility:visible"/><path d="m293.709 536.961-.011-2.608M293.28 533.63l-77.658 22.88M349.887 553.828l-13.73-4.898" style="fill:none;stroke:red;stroke-width:.999997;stroke-linecap:round;stroke-linejoin:round;stroke-miterlimit:4;stroke-dasharray:none;stroke-opacity:1;visibility:visible"/><path d="m202.805 551.59 76.958-22.43" style="fill:none;stroke:red;stroke-width:1.99999;stroke-linecap:round;stroke-linejoin:round;stroke-miterlimit:4;stroke-dasharray:none;stroke-opacity:1;visibility:visible"/><path d="m312.223 543.65-.005-2.68M311.791 540.233l-77.88 23.298M293.28 533.63l-12.975-4.632" style="fill:none;stroke:red;stroke-width:.999997;stroke-linecap:round;stroke-linejoin:round;stroke-miterlimit:4;stroke-dasharray:none;stroke-opacity:1;visibility:visible"/><path d="m220.853 558.517 76.86-22.745" style="fill:none;stroke:red;stroke-width:1.99999;stroke-linecap:round;stroke-linejoin:round;stroke-miterlimit:4;stroke-dasharray:none;stroke-opacity:1;visibility:visible"/><path d="m431.112 586.676.024-3.235M355.932 607.272l-4.32 1.424M430.664 582.653l-45.55 15.008M311.791 540.233l-13.218-4.716" style="fill:none;stroke:red;stroke-width:.999997;stroke-linecap:round;stroke-linejoin:round;stroke-miterlimit:4;stroke-dasharray:none;stroke-opacity:1;visibility:visible"/><path d="m385.146 587.335 30.094-9.798M336.888 603.044l19.047-6.2" style="fill:none;stroke:red;stroke-width:1.99999;stroke-linecap:round;stroke-linejoin:round;stroke-miterlimit:4;stroke-dasharray:none;stroke-opacity:1;visibility:visible"/><path d="m275.533 530.388-.011-2.524M275.11 527.148l-77.434 22.48M430.664 582.653l-14.849-5.302" style="fill:none;stroke:red;stroke-width:.999997;stroke-linecap:round;stroke-linejoin:round;stroke-miterlimit:4;stroke-dasharray:none;stroke-opacity:1;visibility:visible"/><path d="m185.11 544.799 76.703-22.035" style="fill:none;stroke:red;stroke-width:1.99999;stroke-linecap:round;stroke-linejoin:round;stroke-miterlimit:4;stroke-dasharray:none;stroke-opacity:1;visibility:visible"/><path d="m275.11 527.148-12.732-4.547" style="fill:none;stroke:red;stroke-width:.999997;stroke-linecap:round;stroke-linejoin:round;stroke-miterlimit:4;stroke-dasharray:none;stroke-opacity:1;visibility:visible"/><path d="m355.924 610.353-194.467-74.629" style="fill:none;stroke:red;stroke-width:1.99999;stroke-linecap:round;stroke-linejoin:round;stroke-miterlimit:4;stroke-dasharray:none;stroke-opacity:1;visibility:visible"/><path d="m355.927 614.793-201.214-77.66M160.72 535.439l-6.006 1.693" style="fill:none;stroke:red;stroke-width:.999997;stroke-linecap:round;stroke-linejoin:round;stroke-miterlimit:4;stroke-dasharray:none;stroke-opacity:1;visibility:visible"/><path d="m155.506 556.577 200.405 79.456" style="fill:none;stroke:red;stroke-width:1.99999;stroke-linecap:round;stroke-linejoin:round;stroke-miterlimit:4;stroke-dasharray:none;stroke-opacity:1;visibility:visible"/><path d="m255.72 508.695 5.592-1.573M255.833 524.481l-.115-15.785M385.244 554.137l69.178 24.271M255.72 508.695l108.98 38.233" style="fill:none;stroke:red;stroke-width:.999997;stroke-linecap:round;stroke-linejoin:round;stroke-miterlimit:4;stroke-dasharray:none;stroke-opacity:1;visibility:visible"/><path d="m262.174 507.424 105.934 36.97M387.415 551.13l67.039 23.398" style="fill:none;stroke:red;stroke-width:1.99999;stroke-linecap:round;stroke-linejoin:round;stroke-miterlimit:4;stroke-dasharray:none;stroke-opacity:1;visibility:visible"/><path d="m156.12 651.384 199.727 89.694" style="fill:none;stroke:red;stroke-width:.999997;stroke-linecap:round;stroke-linejoin:round;stroke-miterlimit:4;stroke-dasharray:none;stroke-opacity:1;visibility:visible"/><path d="m162.826 649.73 193.022 86.067" style="fill:none;stroke:red;stroke-width:1.99999;stroke-linecap:round;stroke-linejoin:round;stroke-miterlimit:4;stroke-dasharray:none;stroke-opacity:1;visibility:visible"/><path d="m256.963 637.39-.13-18.05M355.883 678.7l-98.918-41.31M443.092 715.118l-58.25-24.328M384.898 671.618l68.502 27.967M256.833 619.34l99.065 40.437M161.908 649.321l-5.852 1.875" style="fill:none;stroke:red;stroke-width:.999997;stroke-linecap:round;stroke-linejoin:round;stroke-miterlimit:4;stroke-dasharray:none;stroke-opacity:1;visibility:visible"/><path d="m384.908 667.088 68.532 27.825M261.906 617.145l93.992 38.162" style="fill:none;stroke:red;stroke-width:1.99999;stroke-linecap:round;stroke-linejoin:round;stroke-miterlimit:4;stroke-dasharray:none;stroke-opacity:1;visibility:visible"/><path d="m257.293 618.628 4.614-1.484M455.132 519.538l15.883 5.172 12.117-3.796M356.255 549.981l15.665 5.599 13.147-4.133M236.56 448.982l12.85 4.097 11.915-3.073M140.778 473.802l12.392 4.378 12.838-3.384" style="fill:none;stroke:red;stroke-width:.999997;stroke-linecap:round;stroke-linejoin:round;stroke-miterlimit:4;stroke-dasharray:none;stroke-opacity:1;visibility:visible"/><path d="M157.248 472.766c.65.233 1.06.578 1.06.964.001.702-1.362 1.27-3.045 1.27-1.685 0-3.049-.569-3.049-1.27 0-.367.372-.696.968-.93M388.224 609.308l1.796.755M387.962 610.017l2.322-.664M392.643 609.71c0 .718-1.596 1.294-3.568 1.294-1.973-.001-3.57-.577-3.57-1.294-.001-.713 1.596-1.291 3.569-1.291 1.973 0 3.569.578 3.569 1.291M450.342 588.559l1.794.669M450.079 589.188l2.325-.59M454.76 588.916c0 .636-1.596 1.148-3.568 1.148-1.97 0-3.57-.512-3.57-1.148 0-.633 1.6-1.148 3.57-1.148 1.972 0 3.568.515 3.568 1.148M374.88 548.921c.647.234 1.06.58 1.06.964 0 .702-1.365 1.27-3.046 1.27-1.684 0-3.048-.568-3.048-1.27 0-.368.372-.697.966-.929" style="fill:none;stroke:red;stroke-width:.666665;stroke-linecap:round;stroke-linejoin:round;stroke-miterlimit:4;stroke-dasharray:none;stroke-opacity:1;visibility:visible"/><path d="m153.192 473.851 1.217.703 2.075-.082.86-.781M468.536 519.615c.65.233 1.064.579 1.064.964-.001.703-1.367 1.27-3.048 1.27-1.685-.001-3.05-.568-3.05-1.271.001-.366.374-.696.97-.928M370.823 550.007l1.217.702 2.075-.079.859-.784" style="fill:none;stroke:red;stroke-width:.666665;stroke-linecap:round;stroke-linejoin:round;stroke-miterlimit:4;stroke-dasharray:none;stroke-opacity:1;visibility:visible"/><path d="m464.482 520.7 1.216.703 2.076-.083.858-.778" style="fill:none;stroke:red;stroke-width:.666665;stroke-linecap:round;stroke-linejoin:round;stroke-miterlimit:4;stroke-dasharray:none;stroke-opacity:1;visibility:visible"/><path d="M355.832 655.504a3.427 3.427 0 0 0-1.254.235M354.402 658.413a3.887 3.887 0 0 0 1.408.281M353.883 656.25a1.041 1.041 0 0 0-.232.66M354.578 655.739a1.817 1.817 0 0 0-.695.51M353.76 657.938a1.68 1.68 0 0 0 .64.474M353.644 657.605a.524.524 0 0 0 .116.333M353.65 656.903l-.004.627" style="fill:none;stroke:red;stroke-width:.666665;stroke-linecap:round;stroke-linejoin:round;stroke-miterlimit:2;stroke-dasharray:none;stroke-opacity:1;visibility:visible"/><path d="M177 657.168c0 .492-1.128.894-2.518.894s-2.516-.4-2.516-.894 1.127-.895 2.516-.895c1.39 0 2.518.401 2.518.895M256.5 692.834c0 .494-1.13.896-2.519.896-1.389 0-2.515-.402-2.515-.896 0-.493 1.127-.894 2.516-.894 1.39 0 2.517.4 2.517.894h.001M343.666 732.001c0 .493-1.128.895-2.518.895-1.388 0-2.516-.402-2.516-.896s1.128-.894 2.516-.894c1.39 0 2.518.402 2.518.895M400.499 736.001c0 .493-1.128.895-2.517.895-1.39 0-2.516-.402-2.516-.896s1.126-.894 2.516-.894c1.388 0 2.517.402 2.517.895M452.999 715.668c0 .492-1.129.894-2.517.894-1.39 0-2.516-.401-2.516-.894 0-.494 1.126-.895 2.516-.895 1.388 0 2.517.401 2.517.895M446.332 693.168c0 .492-1.128.894-2.517.894-1.39 0-2.516-.4-2.516-.894s1.127-.895 2.516-.895c1.39 0 2.517.401 2.517.895M277.166 624.335c0 .493-1.127.894-2.517.894s-2.516-.401-2.516-.894c0-.495 1.126-.895 2.516-.895 1.39 0 2.517.4 2.517.895M228 621.668c0 .492-1.128.895-2.519.895-1.389 0-2.515-.403-2.515-.895s1.127-.895 2.516-.895c1.39 0 2.518.402 2.518.895M177.052 638.156c0 .493-1.127.894-2.518.894-1.39 0-2.516-.401-2.516-.894s1.127-.896 2.516-.896c1.39.001 2.518.403 2.518.896M166.974 533.652l8.146-5.751M166.974 533.65l8.146-5.749M236.917 505.823l-1.199 5.181M161.908 649.321l9.932-4.617M168.525 642.204l5.06 1.861M177.052 638.156l-4.324 7.332M174.79 644.868l-2.093-1.588M172.697 643.28l2.093 1.588M237.873 615.53l-6.06 9.906M234.763 625.601l-2.063.619M228 621.668l4.67 2.347M232.7 626.22l2.063-.619M453.4 699.585l-6.194 1.489M462.495 707.687l-13.24-5.915M446.332 693.168l1.916 7.046M446.332 693.168l1.883 9.462M250.753 639.396l14.267-13.136M261.906 617.145l4.861 9.754M262.59 617.42l3.319 8.053M277.166 624.335l-11.288 3.346M454.422 578.408l-6.623 2.328M454.396 582.547l-4.534-1.118M450.982 580.535l-2.132-.651M454.76 588.916l-5.946-6.636M448.85 579.884l2.132.651M249.395 510.222l14.662 5.542M262.378 522.601l3.424-6.198M261.84 507.308l3.106 7.671M255.718 508.696l9.198 8.491" style="fill:none;stroke:red;stroke-width:.666665;stroke-linecap:round;stroke-linejoin:round;stroke-miterlimit:4;stroke-dasharray:none;stroke-opacity:1;visibility:visible"/><path d="m368.108 544.394 8.306 3.573" style="fill:none;stroke:red;stroke-width:1.99999;stroke-linecap:round;stroke-linejoin:round;stroke-miterlimit:4;stroke-dasharray:none;stroke-opacity:1;visibility:visible"/><path d="m255.718 508.696-5.337 17.351" style="fill:none;stroke:red;stroke-width:.999997;stroke-linecap:round;stroke-linejoin:round;stroke-miterlimit:4;stroke-dasharray:none;stroke-opacity:1;visibility:visible"/><path d="m173.06 527.657-6.202-2.318" style="fill:none;stroke:red;stroke-width:1.99999;stroke-linecap:round;stroke-linejoin:round;stroke-miterlimit:4;stroke-dasharray:none;stroke-opacity:1;visibility:visible"/><path d="m390.284 609.353-4.218 7.899" style="fill:none;stroke:red;stroke-width:.999997;stroke-linecap:round;stroke-linejoin:round;stroke-miterlimit:4;stroke-dasharray:none;stroke-opacity:1;visibility:visible"/><path d="m390.284 609.353-5.192-3.763" style="fill:none;stroke:red;stroke-width:1.99999;stroke-linecap:round;stroke-linejoin:round;stroke-miterlimit:4;stroke-dasharray:none;stroke-opacity:1;visibility:visible"/><path d="m173.585 644.065-5.06-1.861" style="fill:none;stroke:red;stroke-width:.999997;stroke-linecap:round;stroke-linejoin:round;stroke-miterlimit:4;stroke-dasharray:none;stroke-opacity:1;visibility:visible"/><path d="m173.585 644.065-5.125-6.438" style="fill:none;stroke:red;stroke-width:1.99999;stroke-linecap:round;stroke-linejoin:round;stroke-miterlimit:4;stroke-dasharray:none;stroke-opacity:1;visibility:visible"/><path d="m173.585 644.065 5.935 13.111M175.12 527.901l-8.086 9.967" style="fill:none;stroke:red;stroke-width:.999997;stroke-linecap:round;stroke-linejoin:round;stroke-miterlimit:4;stroke-dasharray:none;stroke-opacity:1;visibility:visible"/><path d="m177 657.168-8.332-4.828M390.284 609.353l-5.182-7.445M452.999 715.668l.304-4.457" style="fill:none;stroke:red;stroke-width:1.99999;stroke-linecap:round;stroke-linejoin:round;stroke-miterlimit:4;stroke-dasharray:none;stroke-opacity:1;visibility:visible"/><path d="m447.799 580.736-5.837 5.948M394.555 570.28l-9.357-.959M351.612 608.696l4.326-15.993M389.482 567.957l-4.327 15.279" style="fill:none;stroke:red;stroke-width:.999997;stroke-linecap:round;stroke-linejoin:round;stroke-miterlimit:4;stroke-dasharray:none;stroke-opacity:1;visibility:visible"/><path d="m389.482 567.957-4.292 5.32" style="fill:none;stroke:red;stroke-width:1.99999;stroke-linecap:round;stroke-linejoin:round;stroke-miterlimit:4;stroke-dasharray:none;stroke-opacity:1;visibility:visible"/><path d="m350.327 554.578-19.23-4.108M312.218 540.97l-18.509-4.009M331.094 547.71l-18.871-4.06M448.85 579.884l-17.738 6.792M336.888 603.044l19.044 4.228M355.935 596.844l-4.323 11.852M390.284 609.353l-5.17-11.692" style="fill:none;stroke:red;stroke-width:.999997;stroke-linecap:round;stroke-linejoin:round;stroke-miterlimit:4;stroke-dasharray:none;stroke-opacity:1;visibility:visible"/><path d="m394.555 570.28-9.409 17.055M355.932 607.272l-19.044-4.228M351.612 608.696l4.323-11.852" style="fill:none;stroke:red;stroke-width:1.99999;stroke-linecap:round;stroke-linejoin:round;stroke-miterlimit:4;stroke-dasharray:none;stroke-opacity:1;visibility:visible"/><path d="m293.698 534.353-18.165-3.965M264.946 514.979l-9.113 9.502M389.482 567.957l-4.238-13.82M454.396 582.547l.026-4.139M356.255 549.981l8.445-3.053" style="fill:none;stroke:red;stroke-width:.999997;stroke-linecap:round;stroke-linejoin:round;stroke-miterlimit:4;stroke-dasharray:none;stroke-opacity:1;visibility:visible"/><path d="m374.88 548.921-6.772-4.527M389.482 567.957l-2.067-16.827M454.396 582.547l.058-8.019" style="fill:none;stroke:red;stroke-width:1.99999;stroke-linecap:round;stroke-linejoin:round;stroke-miterlimit:4;stroke-dasharray:none;stroke-opacity:1;visibility:visible"/><path d="m447.206 701.074-4.114 14.044M447.206 701.074l6.194-1.489M354.402 658.413l1.496 1.364M168.525 642.204l-6.617 7.117" style="fill:none;stroke:red;stroke-width:.999997;stroke-linecap:round;stroke-linejoin:round;stroke-miterlimit:4;stroke-dasharray:none;stroke-opacity:1;visibility:visible"/><path d="m447.206 701.074 6.234-6.161" style="fill:none;stroke:red;stroke-width:1.99999;stroke-linecap:round;stroke-linejoin:round;stroke-miterlimit:4;stroke-dasharray:none;stroke-opacity:1;visibility:visible"/><path d="m349.887 553.828 6.368-3.847M385.198 569.321l-.131-17.874" style="fill:none;stroke:red;stroke-width:.999997;stroke-linecap:round;stroke-linejoin:round;stroke-miterlimit:4;stroke-dasharray:none;stroke-opacity:1;visibility:visible"/><path d="m385.056 616.83 7.587-7.12M385.056 616.83l7.587-7.12M454.386 582.55l.374 6.366M448.85 579.884l5.91 9.032M168.668 652.34l8.332 4.828M172.697 643.28 177 657.168M355.844 740.225l-12.178-8.224M355.844 740.224l-12.178-8.223M384.687 742.778l15.812-6.777M384.687 742.78l15.812-6.779M453.303 711.211l-.304 4.457M448.248 700.214l4.751 15.454M448.215 702.63l-1.883-9.462M448.248 700.214l-1.916-7.046M265.878 627.681l11.288-3.346M265.909 625.473l11.257-1.138M232.7 626.22l-4.7-4.552M232.67 624.015l-4.67-2.347M174.79 644.868l2.262-6.712M172.697 643.28l4.355-5.124" style="fill:none;stroke:red;stroke-width:.666665;stroke-linecap:round;stroke-linejoin:round;stroke-miterlimit:4;stroke-dasharray:none;stroke-opacity:1;visibility:visible"/><path d="m134.066 664.438 237.178 109.388.016 8.815M491.617 726.314l-120.373 47.514" style="fill:none;stroke:#00ff4a;stroke-width:.999997;stroke-linecap:round;stroke-linejoin:round;stroke-miterlimit:4;stroke-dasharray:none;stroke-opacity:1;visibility:visible" visibility="hidden"/><path d="m143.488 661.39-9.932 3.27.137 7.917 237.531 110.664M481.221 722.017l10.823 4.388v8.773l-120.82 48.063" style="fill:none;stroke:#00ff4a;stroke-width:1.99999;stroke-linecap:round;stroke-linejoin:round;stroke-miterlimit:4;stroke-dasharray:none;stroke-opacity:1;visibility:visible" visibility="hidden"/><path d="m232.7 626.22.858-1.423M448.248 700.214l2.116.656M448.248 700.214l2.116.656M264.916 517.187l1.833-1.608" style="fill:none;stroke:red;stroke-width:.666665;stroke-linecap:round;stroke-linejoin:round;stroke-miterlimit:4;stroke-dasharray:none;stroke-opacity:1;visibility:visible"/><path d="m385.198 569.321-12.774-13.902" style="fill:none;stroke:red;stroke-width:.999997;stroke-linecap:round;stroke-linejoin:round;stroke-miterlimit:4;stroke-dasharray:none;stroke-opacity:1;visibility:visible"/><path d="m356.255 549.981 13.11-4.506" style="fill:none;stroke:red;stroke-width:1.99999;stroke-linecap:round;stroke-linejoin:round;stroke-miterlimit:4;stroke-dasharray:none;stroke-opacity:1;visibility:visible"/><path d="m400.499 736.001-14.812 7.239" style="fill:none;stroke:red;stroke-width:.999997;stroke-linecap:round;stroke-linejoin:round;stroke-miterlimit:4;stroke-dasharray:none;stroke-opacity:1;visibility:visible"/><path d="m400.499 736.001-15.791 1.467" style="fill:none;stroke:red;stroke-width:1.99999;stroke-linecap:round;stroke-linejoin:round;stroke-miterlimit:4;stroke-dasharray:none;stroke-opacity:1;visibility:visible"/><path d="m356.255 549.981-.3 15.086" style="fill:none;stroke:red;stroke-width:.999997;stroke-linecap:round;stroke-linejoin:round;stroke-miterlimit:4;stroke-dasharray:none;stroke-opacity:1;visibility:visible"/><path d="m356.255 549.981-.76 5.847M356.255 549.981l-.301 18.944M173.585 644.065l-10.759 5.665" style="fill:none;stroke:red;stroke-width:1.99999;stroke-linecap:round;stroke-linejoin:round;stroke-miterlimit:4;stroke-dasharray:none;stroke-opacity:1;visibility:visible"/><path d="m356.255 549.981 14.557-1.025M374.88 548.921l-4.057 1.086" style="fill:none;stroke:red;stroke-width:.666665;stroke-linecap:round;stroke-linejoin:round;stroke-miterlimit:4;stroke-dasharray:none;stroke-opacity:1;visibility:visible"/><path d="m156.056 651.196-12.568 10.194M469.383 710.537l11.838 11.48" style="fill:none;stroke:#00ff4a;stroke-width:1.99999;stroke-linecap:round;stroke-linejoin:round;stroke-miterlimit:4;stroke-dasharray:none;stroke-opacity:1;visibility:visible" visibility="hidden"/></svg>