<svg xmlns="http://www.w3.org/2000/svg" baseProfile="full" height="1122.52" preserveAspectRatio="xMinYMin meet" style="width:765px;height:943px" width="793.701" xml:space="preserve"><path d="M303.453 349.803c-.52 1.01-1.54 1.522-2.276 1.144-.738-.38-.914-1.505-.394-2.516.52-1.01 1.539-1.521 2.277-1.141.737.375.914 1.503.393 2.513M286.217 346.522c.452-.415 1.529-.728 2.797-.768 1.687-.052 3.07.405 3.09 1.019.019.57-1.141 1.076-2.652 1.189M386.278 402.594l-131.281-60.97M397.039 397.71l-11.819 4.264-.158 18.69" style="fill:none;stroke:red;stroke-width:.999997;stroke-linecap:round;stroke-linejoin:round;stroke-miterlimit:4;stroke-dasharray:none;stroke-opacity:1;visibility:visible" visibility="hidden"/><path d="m330.802 367.08-56.284-25.834" style="fill:none;stroke:red;stroke-width:1.99999;stroke-linecap:round;stroke-linejoin:round;stroke-miterlimit:4;stroke-dasharray:none;stroke-opacity:1;visibility:visible" visibility="hidden"/><path d="m356.816 379.049-5.358-2.466" style="fill:none;stroke:red;stroke-width:.999997;stroke-linecap:round;stroke-linejoin:round;stroke-miterlimit:4;stroke-dasharray:none;stroke-opacity:1;visibility:visible" visibility="hidden"/><path d="m254.034 340.94.081 18.186 131.435 61.985 11.846-4.41.366-18.811-40.946-18.841" style="fill:none;stroke:red;stroke-width:1.99999;stroke-linecap:round;stroke-linejoin:round;stroke-miterlimit:4;stroke-dasharray:none;stroke-opacity:1;visibility:visible" visibility="hidden"/><path d="m380.956 329.14 3.764 1.628M419.575 345.84l21.919 9.476M455.959 361.571l18.75 8.109" style="fill:none;stroke:red;stroke-width:.999997;stroke-linecap:round;stroke-linejoin:round;stroke-miterlimit:4;stroke-dasharray:none;stroke-opacity:1;visibility:visible" visibility="hidden"/><path d="m396.386 326.813-4.036-1.751" style="fill:none;stroke:red;stroke-width:1.33333;stroke-linecap:round;stroke-linejoin:round;stroke-miterlimit:4;stroke-dasharray:none;stroke-opacity:1;visibility:visible" visibility="hidden"/><path d="m389.299 351.157 6.35 3.049M433.09 370.434l41.63 17.941 11.22-4.08.433-18.425-11.638-5.05M457.65 353.403l-13.008-5.645" style="fill:none;stroke:red;stroke-width:1.99999;stroke-linecap:round;stroke-linejoin:round;stroke-miterlimit:4;stroke-dasharray:none;stroke-opacity:1;visibility:visible" visibility="hidden"/><path d="m358.746 336.486 4.1 1.968" style="fill:none;stroke:red;stroke-width:1.33333;stroke-linecap:round;stroke-linejoin:round;stroke-miterlimit:4;stroke-dasharray:none;stroke-opacity:1;visibility:visible" visibility="hidden"/><path d="M476.54 380.186c-.932-.41-1.237-1.901-.683-3.336.553-1.43 1.756-2.26 2.688-1.852.925.408 1.232 1.9.68 3.332-.552 1.435-1.755 2.263-2.685 1.856" style="fill:none;stroke:red;stroke-width:.666665;stroke-linecap:round;stroke-linejoin:round;stroke-miterlimit:4;stroke-dasharray:none;stroke-opacity:1;visibility:visible" visibility="hidden"/><path d="m476.204 378.22.776 1.177 1.325-.642.555-1.818-.779-1.18-1.328.645-.549 1.818" style="fill:none;stroke:red;stroke-width:.666665;stroke-linecap:round;stroke-linejoin:round;stroke-miterlimit:4;stroke-dasharray:none;stroke-opacity:1;visibility:visible" visibility="hidden"/><path d="m485.561 365.76-10.854 3.942-.403 18.276" style="fill:none;stroke:red;stroke-width:.999997;stroke-linecap:round;stroke-linejoin:round;stroke-miterlimit:4;stroke-dasharray:none;stroke-opacity:1;visibility:visible" visibility="hidden"/><path d="m278.897 343.114 52.163-17.265M330.813 343.535l-29.231 9.895" style="fill:none;stroke:red;stroke-width:1.99999;stroke-linecap:round;stroke-linejoin:round;stroke-miterlimit:4;stroke-dasharray:none;stroke-opacity:1;visibility:visible" visibility="hidden"/><path d="m291.827 348.995 39.107-12.944" style="fill:none;stroke:red;stroke-width:.999997;stroke-linecap:round;stroke-linejoin:round;stroke-miterlimit:4;stroke-dasharray:none;stroke-opacity:1;visibility:visible" visibility="hidden"/><path d="m432.739 369.726-53.905 19.166" style="fill:none;stroke:red;stroke-width:1.99999;stroke-linecap:round;stroke-linejoin:round;stroke-miterlimit:4;stroke-dasharray:none;stroke-opacity:1;visibility:visible" visibility="hidden"/><path d="m432.906 358.547-.198 10.89M350.268 53.576l13.244 4.377 4.811-1.216M363.704 312.914v-3.597M363.686 287.751l-.002-3.711M363.668 261.975l-.002-3.72M363.647 236.194l-.003-3.47M363.626 210.292l-.003-3.72M363.607 184.51l-.003-4.336M363.586 157.985l-.003-3.837M363.566 131.713l-.004-3.843M363.546 105.341l-.038-47.578M424.595 364.885c-.623 1.524-1.932 2.432-2.919 2.028-.988-.404-1.281-1.966-.66-3.488.626-1.526 1.93-2.435 2.92-2.03.984.403 1.284 1.965.659 3.49M356.284 378.333l67.632-23.7" style="fill:none;stroke:red;stroke-width:.999997;stroke-linecap:round;stroke-linejoin:round;stroke-miterlimit:4;stroke-dasharray:none;stroke-opacity:1;visibility:visible" visibility="hidden"/><path d="m369.186 103.41-.024-47.768-12.847-4.23-5.965 1.452M350.268 53.576l.018 52.593" style="fill:none;stroke:red;stroke-width:1.99999;stroke-linecap:round;stroke-linejoin:round;stroke-miterlimit:4;stroke-dasharray:none;stroke-opacity:1;visibility:visible" visibility="hidden"/><path d="M369.292 311.18v-3.97M369.28 285.895l-.003-3.717M369.266 259.991l-.002-3.346M369.252 234.46v-3.72M369.24 208.926v-4.336M369.227 182.526l-.001-3.84M369.212 156.376v-3.596M369.2 130.597l-.003-3.967" style="fill:none;stroke:red;stroke-width:1.33333;stroke-linecap:round;stroke-linejoin:round;stroke-miterlimit:4;stroke-dasharray:none;stroke-opacity:1;visibility:visible" visibility="hidden"/><path d="M362.222 69.647c.436 1.57 0 3.077-.999 3.36-.996.285-2.172-.76-2.613-2.332-.455-1.572-.007-3.079.99-3.363 1-.284 2.16.761 2.621 2.335h.001M367.408 79.699c-.374 1.028-1.257 1.651-1.97 1.389-.719-.261-.994-1.303-.622-2.332.374-1.027 1.258-1.65 1.976-1.39.714.262.988 1.304.616 2.332v.001" style="fill:none;stroke:red;stroke-width:.999997;stroke-linecap:round;stroke-linejoin:round;stroke-miterlimit:4;stroke-dasharray:none;stroke-opacity:1;visibility:visible" visibility="hidden"/><path d="M364.543 55.973c0 .259-.725.47-1.621.47-.895 0-1.622-.211-1.622-.47 0-.257.727-.468 1.622-.468.896 0 1.621.211 1.621.468M357.191 53.601c0 .252-.721.459-1.61.459-.891 0-1.611-.207-1.611-.459s.72-.457 1.61-.457c.89 0 1.611.205 1.611.457" style="fill:none;stroke:red;stroke-width:.666665;stroke-linecap:round;stroke-linejoin:round;stroke-miterlimit:4;stroke-dasharray:none;stroke-opacity:1;visibility:visible" visibility="hidden"/><path d="m253.745 77.736 13.028 4.568 5.07-1.268M268.315 347.231 266.766 82.34" style="fill:none;stroke:red;stroke-width:.999997;stroke-linecap:round;stroke-linejoin:round;stroke-miterlimit:4;stroke-dasharray:none;stroke-opacity:1;visibility:visible" visibility="hidden"/><path d="m274.277 344.907-1.494-264.982-12.778-4.461-6.355 1.483M253.583 77.67l1.064 263.256" style="fill:none;stroke:red;stroke-width:1.99999;stroke-linecap:round;stroke-linejoin:round;stroke-miterlimit:4;stroke-dasharray:none;stroke-opacity:1;visibility:visible" visibility="hidden"/><path d="M271.065 104.57c-.359 1.092-1.291 1.77-2.085 1.51s-1.154-1.36-.791-2.455c.356-1.094 1.291-1.773 2.085-1.513.793.263 1.147 1.358.79 2.457l.001.001M271.243 216.386c-.446 1.024-1.409 1.599-2.158 1.278-.751-.324-1.008-1.42-.566-2.446.442-1.026 1.411-1.6 2.156-1.28.752.328 1.002 1.418.568 2.448M271.673 325.197c-.446 1.026-1.383 1.61-2.098 1.305-.715-.31-.945-1.392-.504-2.42.442-1.025 1.382-1.612 2.095-1.305.717.31.94 1.389.507 2.42M268.315 347.231l5.208-1.646" style="fill:none;stroke:red;stroke-width:.999997;stroke-linecap:round;stroke-linejoin:round;stroke-miterlimit:4;stroke-dasharray:none;stroke-opacity:1;visibility:visible" visibility="hidden"/><path d="m422.786 363.362.038 1.5M421.923 364.405l1.784-.506M268.003 80.232c0 .267-.743.483-1.66.483-.916 0-1.657-.216-1.657-.483s.741-.483 1.657-.483 1.66.216 1.66.483M261.197 77.75c0 .276-.74.501-1.651.501-.91.001-1.65-.224-1.65-.502-.001-.277.739-.501 1.649-.501.911 0 1.651.224 1.651.501l.001.001" style="fill:none;stroke:red;stroke-width:.666665;stroke-linecap:round;stroke-linejoin:round;stroke-miterlimit:4;stroke-dasharray:none;stroke-opacity:1;visibility:visible" visibility="hidden"/><path d="m396.386 326.813-15.43 2.327M392.35 325.062l-7.63 5.706M444.642 347.758l-3.148 7.558M457.65 353.403l-1.691 8.168M474.735 360.82l-.026 8.86" style="fill:none;stroke:red;stroke-width:.999997;stroke-linecap:round;stroke-linejoin:round;stroke-miterlimit:4;stroke-dasharray:none;stroke-opacity:1;visibility:visible" visibility="hidden"/><path d="m380.956 329.14 15.43-2.327M384.72 330.768l7.63-5.706" style="fill:none;stroke:red;stroke-width:1.33333;stroke-linecap:round;stroke-linejoin:round;stroke-miterlimit:4;stroke-dasharray:none;stroke-opacity:1;visibility:visible" visibility="hidden"/><path d="m474.709 369.68.026-8.86M455.959 361.571l1.691-8.168M441.494 355.316l3.148-7.558" style="fill:none;stroke:red;stroke-width:1.99999;stroke-linecap:round;stroke-linejoin:round;stroke-miterlimit:4;stroke-dasharray:none;stroke-opacity:1;visibility:visible" visibility="hidden"/><path d="m474.735 360.82 1.805 19.366M474.709 369.68l1.831 10.506" style="fill:none;stroke:red;stroke-width:.666665;stroke-linecap:round;stroke-linejoin:round;stroke-miterlimit:4;stroke-dasharray:none;stroke-opacity:1;visibility:visible" visibility="hidden"/><path d="m273.523 345.585 5.374-2.471" style="fill:none;stroke:red;stroke-width:1.99999;stroke-linecap:round;stroke-linejoin:round;stroke-miterlimit:4;stroke-dasharray:none;stroke-opacity:1;visibility:visible" visibility="hidden"/><path d="m273.523 345.585 18.304 3.41M422.824 364.862l10.082-6.315M350.35 52.864l17.973 3.873M369.292 307.21l-5.588 5.704M369.292 311.18l-5.588-1.863M369.277 282.178l-5.591 5.573M369.28 285.895l-5.596-1.855M369.264 256.645l-5.596 5.33M369.266 259.991l-5.6-1.736M369.252 230.74l-5.605 5.454M369.252 234.46l-5.608-1.736M369.24 204.59l-5.614 5.702M369.24 208.926l-5.617-2.354M369.226 178.686l-5.619 5.824M369.227 182.526l-5.623-2.352M369.212 152.78l-5.626 5.205M369.212 156.376l-5.629-2.228M369.197 126.63l-5.631 5.083M369.2 130.597l-5.638-2.727M364.543 55.973l-1.035 1.79M421.923 364.405l1.993-9.772" style="fill:none;stroke:red;stroke-width:.999997;stroke-linecap:round;stroke-linejoin:round;stroke-miterlimit:4;stroke-dasharray:none;stroke-opacity:1;visibility:visible" visibility="hidden"/><path d="m363.704 309.317 5.588 1.863M363.704 312.914l5.588-5.704M363.684 284.04l5.596 1.855M363.686 287.751l5.591-5.573M363.666 258.255l5.6 1.736M363.668 261.975l5.596-5.33M363.644 232.724l5.608 1.736M363.647 236.194l5.605-5.454M363.623 206.572l5.617 2.354M363.626 210.292l5.614-5.702M363.604 180.174l5.623 2.352M363.607 184.51l5.619-5.824M363.583 154.148l5.629 2.228M363.586 157.985l5.626-5.205M363.562 127.87l5.638 2.727M363.566 131.713l5.631-5.083" style="fill:none;stroke:red;stroke-width:1.33333;stroke-linecap:round;stroke-linejoin:round;stroke-miterlimit:4;stroke-dasharray:none;stroke-opacity:1;visibility:visible" visibility="hidden"/><path d="m357.191 53.601 7.352 2.372M363.508 57.763l1.035-1.79M364.543 55.973l-7.352-2.372M350.268 53.576l6.923.025" style="fill:none;stroke:red;stroke-width:.666665;stroke-linecap:round;stroke-linejoin:round;stroke-miterlimit:4;stroke-dasharray:none;stroke-opacity:1;visibility:visible" visibility="hidden"/><path d="m253.65 76.947 18.193 4.089M268.003 80.232l-1.237 2.108M278.897 343.114l-5.374 2.471" style="fill:none;stroke:red;stroke-width:.999997;stroke-linecap:round;stroke-linejoin:round;stroke-miterlimit:4;stroke-dasharray:none;stroke-opacity:1;visibility:visible" visibility="hidden"/><path d="m432.708 369.437-9.922-6.075M432.906 358.547l-10.082 6.315M423.916 354.633l-1.993 9.772M266.766 82.34l1.237-2.108M268.003 80.232l-6.806-2.482" style="fill:none;stroke:red;stroke-width:.666665;stroke-linecap:round;stroke-linejoin:round;stroke-miterlimit:4;stroke-dasharray:none;stroke-opacity:1;visibility:visible" visibility="hidden"/><path d="m351.887 369.534 13.413-4.619M380.75 359.594l29.956-10.315" style="fill:none;stroke:#00ff4a;stroke-width:1.99999;stroke-linecap:round;stroke-linejoin:round;stroke-miterlimit:4;stroke-dasharray:none;stroke-opacity:1;visibility:visible"/><path d="m343.792 109.328 1.04 273.106" style="fill:none;stroke:#00ff4a;stroke-width:.999997;stroke-linecap:round;stroke-linejoin:round;stroke-miterlimit:4;stroke-dasharray:none;stroke-opacity:1;visibility:visible"/><path d="m331.631 376.29-1.451-272.03M330.443 103.781l5.953-1.674 14.144 4.948.826 272.105" style="fill:none;stroke:#00ff4a;stroke-width:1.99999;stroke-linecap:round;stroke-linejoin:round;stroke-miterlimit:4;stroke-dasharray:none;stroke-opacity:1;visibility:visible"/><path d="m330.293 104.508 13.5 4.821 5.727-1.518M350.348 380.44l-5.517 1.993" style="fill:none;stroke:#00ff4a;stroke-width:.999997;stroke-linecap:round;stroke-linejoin:round;stroke-miterlimit:4;stroke-dasharray:none;stroke-opacity:1;visibility:visible"/><path d="M345.188 107.49c.003.273-.733.494-1.645.494-.913.001-1.653-.22-1.656-.494-.003-.274.733-.495 1.645-.495s1.654.22 1.656.494v.001M337.46 104.395c.001.272-.735.494-1.647.494-.913.001-1.651-.222-1.655-.494-.003-.275.732-.496 1.645-.496.912 0 1.653.22 1.657.496" style="fill:none;stroke:#00ff4a;stroke-width:.666665;stroke-linecap:round;stroke-linejoin:round;stroke-miterlimit:4;stroke-dasharray:none;stroke-opacity:1;visibility:visible"/><path d="m438.452 349.266 2.155-265.94" style="fill:none;stroke:#00ff4a;stroke-width:.999997;stroke-linecap:round;stroke-linejoin:round;stroke-miterlimit:4;stroke-dasharray:none;stroke-opacity:1;visibility:visible"/><path d="m425.376 315.922.004-.612M425.528 291.254l.01-1.23M425.687 266.367l.012-1.63M425.843 241.486l.013-1.833M426.004 216.006l.016-1.844M426.166 190.5l.008-1.42M426.328 164.813l.008-1.632M426.487 139.321l.012-1.835M426.648 113.628l.014-2.245M426.812 87.523l.056-8.988M427.11 78.003l5.762-1.543 14.155 4.688-2.3 265.898" style="fill:none;stroke:#00ff4a;stroke-width:1.99999;stroke-linecap:round;stroke-linejoin:round;stroke-miterlimit:4;stroke-dasharray:none;stroke-opacity:1;visibility:visible"/><path d="m427.132 78.89 13.475 4.438 5.401-1.424M443.695 347.866l-5.245 1.816-13.25-5.66" style="fill:none;stroke:#00ff4a;stroke-width:.999997;stroke-linecap:round;stroke-linejoin:round;stroke-miterlimit:4;stroke-dasharray:none;stroke-opacity:1;visibility:visible"/><path d="M433.732 78.71c.003.26-.718.47-1.61.47-.892.001-1.615-.209-1.619-.47-.003-.259.717-.473 1.61-.473.889 0 1.615.214 1.619.473M441.888 81.448c.003.26-.718.472-1.61.472-.891 0-1.615-.212-1.619-.472-.002-.26.717-.473 1.61-.473.889 0 1.617.213 1.619.473" style="fill:none;stroke:#00ff4a;stroke-width:.666665;stroke-linecap:round;stroke-linejoin:round;stroke-miterlimit:4;stroke-dasharray:none;stroke-opacity:1;visibility:visible"/><path d="M433.634 333.642c.17-.624.528-1.083 1.029-1.23 1-.293 2.205.775 2.685 2.384.484 1.61.064 3.149-.938 3.444-.414.12-.86.01-1.276-.27M438.156 98.767c-1.062.253-2.262-.872-2.668-2.518-.414-1.645.114-3.188 1.179-3.445 1.06-.257 2.253.87 2.668 2.516.41 1.648-.116 3.19-1.179 3.447" style="fill:none;stroke:#00ff4a;stroke-width:.999997;stroke-linecap:round;stroke-linejoin:round;stroke-miterlimit:4;stroke-dasharray:none;stroke-opacity:1;visibility:visible"/><path d="M425.376 315.922v1.295M425.38 340.82v2.552" style="fill:none;stroke:#00ff4a;stroke-width:1.99999;stroke-linecap:round;stroke-linejoin:round;stroke-miterlimit:4;stroke-dasharray:none;stroke-opacity:1;visibility:visible"/><path d="m430.54 287.029.127-17.783M430.667 269.246l-79.33 25.934" style="fill:none;stroke:#00ff4a;stroke-width:.999997;stroke-linecap:round;stroke-linejoin:round;stroke-miterlimit:4;stroke-dasharray:none;stroke-opacity:1;visibility:visible"/><path d="m425.858 267.14-74.69 24.324" style="fill:none;stroke:#00ff4a;stroke-width:1.99999;stroke-linecap:round;stroke-linejoin:round;stroke-miterlimit:4;stroke-dasharray:none;stroke-opacity:1;visibility:visible"/><path d="m430.256 268.51-4.136-1.672" style="fill:none;stroke:#00ff4a;stroke-width:.999997;stroke-linecap:round;stroke-linejoin:round;stroke-miterlimit:4;stroke-dasharray:none;stroke-opacity:1;visibility:visible"/><path d="m430.123 287.425-78.533 26.124" style="fill:none;stroke:#00ff4a;stroke-width:1.99999;stroke-linecap:round;stroke-linejoin:round;stroke-miterlimit:4;stroke-dasharray:none;stroke-opacity:1;visibility:visible"/><path d="m430.715 262.034.128-17.892M430.843 244.14l-79.367 25.315" style="fill:none;stroke:#00ff4a;stroke-width:.999997;stroke-linecap:round;stroke-linejoin:round;stroke-miterlimit:4;stroke-dasharray:none;stroke-opacity:1;visibility:visible"/><path d="m426.024 242.07-74.912 23.8" style="fill:none;stroke:#00ff4a;stroke-width:1.99999;stroke-linecap:round;stroke-linejoin:round;stroke-miterlimit:4;stroke-dasharray:none;stroke-opacity:1;visibility:visible"/><path d="m430.428 243.405-4.14-1.637" style="fill:none;stroke:#00ff4a;stroke-width:.999997;stroke-linecap:round;stroke-linejoin:round;stroke-miterlimit:4;stroke-dasharray:none;stroke-opacity:1;visibility:visible"/><path d="m430.299 262.438-78.75 25.572" style="fill:none;stroke:#00ff4a;stroke-width:1.99999;stroke-linecap:round;stroke-linejoin:round;stroke-miterlimit:4;stroke-dasharray:none;stroke-opacity:1;visibility:visible"/><path d="m431.246 186.12.128-18.228M431.372 167.892l-80.286 23.66" style="fill:none;stroke:#00ff4a;stroke-width:.999997;stroke-linecap:round;stroke-linejoin:round;stroke-miterlimit:4;stroke-dasharray:none;stroke-opacity:1;visibility:visible"/><path d="m426.439 165.856-75.756 22.237" style="fill:none;stroke:#00ff4a;stroke-width:1.99999;stroke-linecap:round;stroke-linejoin:round;stroke-miterlimit:4;stroke-dasharray:none;stroke-opacity:1;visibility:visible"/><path d="m430.958 167.157-4.18-1.527" style="fill:none;stroke:#00ff4a;stroke-width:.999997;stroke-linecap:round;stroke-linejoin:round;stroke-miterlimit:4;stroke-dasharray:none;stroke-opacity:1;visibility:visible"/><path d="m430.826 186.544-79.81 23.989" style="fill:none;stroke:#00ff4a;stroke-width:1.99999;stroke-linecap:round;stroke-linejoin:round;stroke-miterlimit:4;stroke-dasharray:none;stroke-opacity:1;visibility:visible"/><path d="m431.066 211.58.13-18.111M431.195 193.466l-79.845 24.178" style="fill:none;stroke:#00ff4a;stroke-width:.999997;stroke-linecap:round;stroke-linejoin:round;stroke-miterlimit:4;stroke-dasharray:none;stroke-opacity:1;visibility:visible"/><path d="m426.344 191.468-75.354 22.729" style="fill:none;stroke:#00ff4a;stroke-width:1.99999;stroke-linecap:round;stroke-linejoin:round;stroke-miterlimit:4;stroke-dasharray:none;stroke-opacity:1;visibility:visible"/><path d="m430.782 192.729-4.174-1.564" style="fill:none;stroke:#00ff4a;stroke-width:.999997;stroke-linecap:round;stroke-linejoin:round;stroke-miterlimit:4;stroke-dasharray:none;stroke-opacity:1;visibility:visible"/><path d="m430.65 211.998-79.482 24.534" style="fill:none;stroke:#00ff4a;stroke-width:1.99999;stroke-linecap:round;stroke-linejoin:round;stroke-miterlimit:4;stroke-dasharray:none;stroke-opacity:1;visibility:visible"/><path d="m431.6 134.722.135-18.458M431.735 116.263l-81.125 22.574" style="fill:none;stroke:#00ff4a;stroke-width:.999997;stroke-linecap:round;stroke-linejoin:round;stroke-miterlimit:4;stroke-dasharray:none;stroke-opacity:1;visibility:visible"/><path d="m426.764 114.3-76.176 21.113" style="fill:none;stroke:#00ff4a;stroke-width:1.99999;stroke-linecap:round;stroke-linejoin:round;stroke-miterlimit:4;stroke-dasharray:none;stroke-opacity:1;visibility:visible"/><path d="m431.312 115.527-4.208-1.454" style="fill:none;stroke:#00ff4a;stroke-width:.999997;stroke-linecap:round;stroke-linejoin:round;stroke-miterlimit:4;stroke-dasharray:none;stroke-opacity:1;visibility:visible"/><path d="m431.179 135.16-80.401 22.854" style="fill:none;stroke:#00ff4a;stroke-width:1.99999;stroke-linecap:round;stroke-linejoin:round;stroke-miterlimit:4;stroke-dasharray:none;stroke-opacity:1;visibility:visible"/><path d="m431.422 160.501.13-18.343M431.552 142.157l-80.485 23.063" style="fill:none;stroke:#00ff4a;stroke-width:.999997;stroke-linecap:round;stroke-linejoin:round;stroke-miterlimit:4;stroke-dasharray:none;stroke-opacity:1;visibility:visible"/><path d="m426.599 140.16-75.769 21.62" style="fill:none;stroke:#00ff4a;stroke-width:1.99999;stroke-linecap:round;stroke-linejoin:round;stroke-miterlimit:4;stroke-dasharray:none;stroke-opacity:1;visibility:visible"/><path d="m431.14 141.424-4.2-1.49" style="fill:none;stroke:#00ff4a;stroke-width:.999997;stroke-linecap:round;stroke-linejoin:round;stroke-miterlimit:4;stroke-dasharray:none;stroke-opacity:1;visibility:visible"/><path d="m430.999 160.933-80.189 23.45" style="fill:none;stroke:#00ff4a;stroke-width:1.99999;stroke-linecap:round;stroke-linejoin:round;stroke-miterlimit:4;stroke-dasharray:none;stroke-opacity:1;visibility:visible"/><path d="m430.368 311.869.126-17.672M430.494 294.197l-79.174 26.508" style="fill:none;stroke:#00ff4a;stroke-width:.999997;stroke-linecap:round;stroke-linejoin:round;stroke-miterlimit:4;stroke-dasharray:none;stroke-opacity:1;visibility:visible"/><path d="M425.702 292.054 351.37 316.85" style="fill:none;stroke:#00ff4a;stroke-width:1.99999;stroke-linecap:round;stroke-linejoin:round;stroke-miterlimit:4;stroke-dasharray:none;stroke-opacity:1;visibility:visible"/><path d="m430.086 293.46-4.12-1.71" style="fill:none;stroke:#00ff4a;stroke-width:.999997;stroke-linecap:round;stroke-linejoin:round;stroke-miterlimit:4;stroke-dasharray:none;stroke-opacity:1;visibility:visible"/><path d="m429.948 312.258-78.528 26.744" style="fill:none;stroke:#00ff4a;stroke-width:1.99999;stroke-linecap:round;stroke-linejoin:round;stroke-miterlimit:4;stroke-dasharray:none;stroke-opacity:1;visibility:visible"/><path d="m430.216 333.713.1-14.723M430.316 318.991 351.5 346.005" style="fill:none;stroke:#00ff4a;stroke-width:.999997;stroke-linecap:round;stroke-linejoin:round;stroke-miterlimit:4;stroke-dasharray:none;stroke-opacity:1;visibility:visible"/><path d="m425.54 316.818-74.166 25.323" style="fill:none;stroke:#00ff4a;stroke-width:1.99999;stroke-linecap:round;stroke-linejoin:round;stroke-miterlimit:4;stroke-dasharray:none;stroke-opacity:1;visibility:visible"/><path d="m429.912 318.255-4.108-1.74" style="fill:none;stroke:#00ff4a;stroke-width:.999997;stroke-linecap:round;stroke-linejoin:round;stroke-miterlimit:4;stroke-dasharray:none;stroke-opacity:1;visibility:visible"/><path d="m407.262 344.786-29.97 10.441" style="fill:none;stroke:#00ff4a;stroke-width:1.99999;stroke-linecap:round;stroke-linejoin:round;stroke-miterlimit:4;stroke-dasharray:none;stroke-opacity:1;visibility:visible"/><path d="m430.888 236.886.13-18.004M431.018 218.882l-79.624 24.756" style="fill:none;stroke:#00ff4a;stroke-width:.999997;stroke-linecap:round;stroke-linejoin:round;stroke-miterlimit:4;stroke-dasharray:none;stroke-opacity:1;visibility:visible"/><path d="m426.184 216.848-75.113 23.262" style="fill:none;stroke:#00ff4a;stroke-width:1.99999;stroke-linecap:round;stroke-linejoin:round;stroke-miterlimit:4;stroke-dasharray:none;stroke-opacity:1;visibility:visible"/><path d="m430.603 218.146-4.155-1.601" style="fill:none;stroke:#00ff4a;stroke-width:.999997;stroke-linecap:round;stroke-linejoin:round;stroke-miterlimit:4;stroke-dasharray:none;stroke-opacity:1;visibility:visible"/><path d="m430.474 237.296-79.392 25.142" style="fill:none;stroke:#00ff4a;stroke-width:1.99999;stroke-linecap:round;stroke-linejoin:round;stroke-miterlimit:4;stroke-dasharray:none;stroke-opacity:1;visibility:visible"/><path d="m431.784 108.779.13-18.574M431.915 90.205l-80.992 21.867" style="fill:none;stroke:#00ff4a;stroke-width:.999997;stroke-linecap:round;stroke-linejoin:round;stroke-miterlimit:4;stroke-dasharray:none;stroke-opacity:1;visibility:visible"/><path d="m426.748 88.43-76.064 20.456" style="fill:none;stroke:#00ff4a;stroke-width:1.99999;stroke-linecap:round;stroke-linejoin:round;stroke-miterlimit:4;stroke-dasharray:none;stroke-opacity:1;visibility:visible"/><path d="m431.495 89.47-4.219-1.419" style="fill:none;stroke:#00ff4a;stroke-width:.999997;stroke-linecap:round;stroke-linejoin:round;stroke-miterlimit:4;stroke-dasharray:none;stroke-opacity:1;visibility:visible"/><path d="m431.362 109.225-80.487 22.212M350.348 380.44l1.539-10.906M377.292 355.227l-11.992 9.688M365.3 364.915l15.45-5.321" style="fill:none;stroke:#00ff4a;stroke-width:1.99999;stroke-linecap:round;stroke-linejoin:round;stroke-miterlimit:4;stroke-dasharray:none;stroke-opacity:1;visibility:visible"/><path d="m345.188 107.49-1.396 1.838M350.684 108.886l-1.164-1.075M351.887 369.534l-1.539 10.906" style="fill:none;stroke:#00ff4a;stroke-width:.999997;stroke-linecap:round;stroke-linejoin:round;stroke-miterlimit:4;stroke-dasharray:none;stroke-opacity:1;visibility:visible"/><path d="m337.46 104.395 7.728 3.095M343.792 109.328l1.396-1.838M345.188 107.49l-7.728-3.095M330.18 104.26l7.28.135" style="fill:none;stroke:#00ff4a;stroke-width:.666665;stroke-linecap:round;stroke-linejoin:round;stroke-miterlimit:4;stroke-dasharray:none;stroke-opacity:1;visibility:visible"/><path d="m425.38 340.82 13.072 8.446M441.888 81.448l-1.281 1.878" style="fill:none;stroke:#00ff4a;stroke-width:.999997;stroke-linecap:round;stroke-linejoin:round;stroke-miterlimit:4;stroke-dasharray:none;stroke-opacity:1;visibility:visible"/><path d="m430.54 287.029-5.002 2.995M430.715 262.034l-5.016 2.703M430.888 236.886l-5.032 2.767M431.066 211.58l-5.046 2.582M431.246 186.12l-5.072 2.96M431.422 160.501l-5.086 2.68M431.6 134.722l-5.101 2.764M431.784 108.779l-5.122 2.604" style="fill:none;stroke:#00ff4a;stroke-width:1.99999;stroke-linecap:round;stroke-linejoin:round;stroke-miterlimit:4;stroke-dasharray:none;stroke-opacity:1;visibility:visible"/><path d="m438.156 98.767 7.852-16.863" style="fill:none;stroke:#00ff4a;stroke-width:.999997;stroke-linecap:round;stroke-linejoin:round;stroke-miterlimit:4;stroke-dasharray:none;stroke-opacity:1;visibility:visible"/><path d="m441.888 81.448-8.156-2.738M426.868 78.535l6.864.175M433.732 78.71l8.156 2.738M440.607 83.326l1.281-1.878" style="fill:none;stroke:#00ff4a;stroke-width:.666665;stroke-linecap:round;stroke-linejoin:round;stroke-miterlimit:4;stroke-dasharray:none;stroke-opacity:1;visibility:visible"/><path d="m431.915 90.205 6.241 8.562" style="fill:none;stroke:#00ff4a;stroke-width:.999997;stroke-linecap:round;stroke-linejoin:round;stroke-miterlimit:4;stroke-dasharray:none;stroke-opacity:1;visibility:visible"/><path d="m430.216 333.713-4.836 7.107" style="fill:none;stroke:#00ff4a;stroke-width:1.99999;stroke-linecap:round;stroke-linejoin:round;stroke-miterlimit:4;stroke-dasharray:none;stroke-opacity:1;visibility:visible"/><path d="m425.38 340.82 4.836-7.107" style="fill:none;stroke:#00ff4a;stroke-width:.999997;stroke-linecap:round;stroke-linejoin:round;stroke-miterlimit:4;stroke-dasharray:none;stroke-opacity:1;visibility:visible"/><path d="m365.3 364.915 11.992-9.688" style="fill:none;stroke:#00ff4a;stroke-width:1.99999;stroke-linecap:round;stroke-linejoin:round;stroke-miterlimit:4;stroke-dasharray:none;stroke-opacity:1;visibility:visible"/><path d="m349.52 107.811 1.403 4.261" style="fill:none;stroke:#00ff4a;stroke-width:.999997;stroke-linecap:round;stroke-linejoin:round;stroke-miterlimit:4;stroke-dasharray:none;stroke-opacity:1;visibility:visible"/><path d="m349.52 107.811 1.164 1.075" style="fill:none;stroke:#00ff4a;stroke-width:1.99999;stroke-linecap:round;stroke-linejoin:round;stroke-miterlimit:4;stroke-dasharray:none;stroke-opacity:1;visibility:visible"/><path d="m345.188 107.49 18.358-2.149M441.494 355.316l-16.899 9.569" style="fill:none;stroke:red;stroke-width:.999997;stroke-linecap:round;stroke-linejoin:round;stroke-miterlimit:4;stroke-dasharray:none;stroke-opacity:1;visibility:visible" visibility="hidden"/><path d="m345.188 107.49 5.098-1.321" style="fill:none;stroke:red;stroke-width:1.99999;stroke-linecap:round;stroke-linejoin:round;stroke-miterlimit:4;stroke-dasharray:none;stroke-opacity:1;visibility:visible" visibility="hidden"/><path d="m421.923 364.405-11.217-15.126" style="fill:none;stroke:#00ff4a;stroke-width:1.99999;stroke-linecap:round;stroke-linejoin:round;stroke-miterlimit:4;stroke-dasharray:none;stroke-opacity:1;visibility:visible"/><path d="m438.452 349.266-3.318-11.296" style="fill:none;stroke:#00ff4a;stroke-width:.999997;stroke-linecap:round;stroke-linejoin:round;stroke-miterlimit:4;stroke-dasharray:none;stroke-opacity:1;visibility:visible"/></svg>