<svg xmlns="http://www.w3.org/2000/svg" baseProfile="full" height="1122.52" preserveAspectRatio="xMinYMin meet" style="width:738px;height:965px" width="793.701" xml:space="preserve"><path d="m415.591 985.555 1.384-83.124 3.917-4.36.762-.544.966.34" style="fill:none;stroke:red;stroke-width:1.99999;stroke-linecap:round;stroke-linejoin:round;stroke-miterlimit:4;stroke-dasharray:none;stroke-opacity:1;visibility:visible" visibility="hidden"/><path d="m415.197 1009.32.395-23.765M455.756 977.555l-.895 24.972" style="fill:none;stroke:red;stroke-width:.999997;stroke-linecap:round;stroke-linejoin:round;stroke-miterlimit:4;stroke-dasharray:none;stroke-opacity:1;visibility:visible" visibility="hidden"/><path d="m449.677 893.342.685-.437 7.618 2.605.369.172.297 1.281-2.889 80.592M431.945 901.133l8.208 2.81 5.376-6" style="fill:none;stroke:red;stroke-width:1.99999;stroke-linecap:round;stroke-linejoin:round;stroke-miterlimit:4;stroke-dasharray:none;stroke-opacity:1;visibility:visible" visibility="hidden"/><path d="m423.039 904.862-6.04-2.11M454.125 900.997l-10.013 11.24-18.648-6.527M458.398 896.2l-2.468 2.77M444.112 912.236l-3.084 106.497" style="fill:none;stroke:red;stroke-width:.999997;stroke-linecap:round;stroke-linejoin:round;stroke-miterlimit:4;stroke-dasharray:none;stroke-opacity:1;visibility:visible" visibility="hidden"/><path d="m421.98 900.551.01 2.18M431.2 902.98l.016-2.208" style="fill:none;stroke:red;stroke-width:1.99999;stroke-linecap:round;stroke-linejoin:round;stroke-miterlimit:4;stroke-dasharray:none;stroke-opacity:1;visibility:visible" visibility="hidden"/><path d="M431.215 900.585c-.033 1.508-2.125 2.677-4.667 2.615-2.546-.06-4.576-1.33-4.541-2.837" style="fill:none;stroke:red;stroke-width:.999997;stroke-linecap:round;stroke-linejoin:round;stroke-miterlimit:4;stroke-dasharray:none;stroke-opacity:1;visibility:visible" visibility="hidden"/><path d="M422.007 900.363c.036-1.506 2.128-2.673 4.672-2.613 2.544.06 4.576 1.33 4.536 2.835" style="fill:none;stroke:red;stroke-width:1.99999;stroke-linecap:round;stroke-linejoin:round;stroke-miterlimit:4;stroke-dasharray:none;stroke-opacity:1;visibility:visible" visibility="hidden"/><path d="M421.988 902.76c-.013.546.35 1.013.862 1.484.28.258.537.923 1.488 1.169 1.33.345 2.04-.083 2.194-.076 2.168.052 4.112-.787 4.668-2.357" style="fill:none;stroke:red;stroke-width:.999997;stroke-linecap:round;stroke-linejoin:round;stroke-miterlimit:4;stroke-dasharray:none;stroke-opacity:1;visibility:visible" visibility="hidden"/><path d="m446.023 896.589-.005 2.173M455.177 899.09l.036-2.2" style="fill:none;stroke:red;stroke-width:1.99999;stroke-linecap:round;stroke-linejoin:round;stroke-miterlimit:4;stroke-dasharray:none;stroke-opacity:1;visibility:visible" visibility="hidden"/><path d="M455.218 896.703c-.05 1.502-2.14 2.65-4.672 2.567-2.531-.084-4.544-1.37-4.492-2.87" style="fill:none;stroke:red;stroke-width:.999997;stroke-linecap:round;stroke-linejoin:round;stroke-miterlimit:4;stroke-dasharray:none;stroke-opacity:1;visibility:visible" visibility="hidden"/><path d="M446.052 896.4c.048-1.5 2.139-2.646 4.67-2.562 2.528.081 4.544 1.365 4.494 2.865" style="fill:none;stroke:red;stroke-width:1.99999;stroke-linecap:round;stroke-linejoin:round;stroke-miterlimit:4;stroke-dasharray:none;stroke-opacity:1;visibility:visible" visibility="hidden"/><path d="M446.015 898.789c-.045 1.358 1.972 2.524 4.497 2.608 1.022.03 1.926-.271 2.738-.392.346-.051.854-.172 1.158-.396.503-.375.748-1.014.768-1.519M454.68 1003.163l-.232 6.75" style="fill:none;stroke:red;stroke-width:.999997;stroke-linecap:round;stroke-linejoin:round;stroke-miterlimit:4;stroke-dasharray:none;stroke-opacity:1;visibility:visible" visibility="hidden"/><path d="M414.515 944.983c1.07-.913 1.5-1.841 1.224-2.492" style="fill:none;stroke:red;stroke-width:.666665;stroke-linecap:round;stroke-linejoin:round;stroke-miterlimit:4;stroke-dasharray:none;stroke-opacity:1;visibility:visible" visibility="hidden"/><path d="m416.999 902.751 5.621-4.884" style="fill:none;stroke:red;stroke-width:1.99999;stroke-linecap:round;stroke-linejoin:round;stroke-miterlimit:4;stroke-dasharray:none;stroke-opacity:1;visibility:visible" visibility="hidden"/><path d="m425.464 905.71-2.425-.848M422.62 897.867 417 902.751M455.93 898.97l-1.805 2.027M423.039 904.862l2.425.848M446.018 898.762l-1.906 13.474" style="fill:none;stroke:red;stroke-width:.999997;stroke-linecap:round;stroke-linejoin:round;stroke-miterlimit:4;stroke-dasharray:none;stroke-opacity:1;visibility:visible" visibility="hidden"/><path d="M315.806 782.23v-.905l2.67-2.41 1.979-.959.635-.44.3-.274 2.26-2s.384-.22.715-.281l28.463-4.092s.414-.061.682.041l3.426 1.07 1.712.389 2.807.31 4.397 1.356.022.925M365.942 786.758c.576.145 1.162.548 1.6 1.152.808 1.114.805 2.487-.01 3.073-.429.31-1.004.337-1.565.123M365.88 775.165c.576.144 1.162.548 1.602 1.152.805 1.112.802 2.487-.012 3.073-.428.308-1.003.335-1.566.123M315.909 786.84c-.262.25-.534.363-.775.299-.6-.167-.781-1.407-.4-2.771.246-.879.665-1.595 1.093-1.945M316.146 798.434c-.256.248-.52.361-.75.297-.584-.16-.752-1.38-.376-2.721.24-.873.654-1.58 1.07-1.928" style="fill:none;stroke:#00ff4a;stroke-width:.666665;stroke-linecap:round;stroke-linejoin:round;stroke-miterlimit:4;stroke-dasharray:none;stroke-opacity:1;visibility:visible"/><path d="m345.306 791.074 7.726-1.148 5.946.535 6.542 2.096.455-.41v-1.111l1.075-.989-.023-.697c-1.485-.719-1.467-1.788-1.467-1.788.187.103.374-.082.374-.082l.514-.494M366.388 775.372l-.516.514s-.184.227-.372.062c0 0 .022 1.254 1.467 1.83l.02.698-1.093 1.049.04 7.03M315.392 798.097l.799.236.041 1.13.743.269L321 796.03l4.768-2.056 15.119-2.244M316.087 793.995l-.144-7.215-.924-.293M321.151 793.334c-.244.73-.711 1.233-1.048 1.124-.333-.11-.406-.792-.163-1.525.242-.733.711-1.236 1.046-1.125.334.11.408.793.164 1.525l.001.001M320.88 781.752c-.246.73-.712 1.234-1.048 1.124-.333-.111-.407-.794-.163-1.524.241-.734.71-1.24 1.045-1.128.335.112.41.796.165 1.528h.001" style="fill:none;stroke:#00ff4a;stroke-width:.666665;stroke-linecap:round;stroke-linejoin:round;stroke-miterlimit:4;stroke-dasharray:none;stroke-opacity:1;visibility:visible"/><path d="M316.763 794.651c.454.206.444 1.191-.022 2.196-.276.603-.651 1.073-1.003 1.315M316.514 783.058c.433.196.41 1.175-.056 2.186-.276.596-.643 1.068-.988 1.315M320.608 779.195l1.156-1.048 3.675-1.584 27.41-3.948 3.59.33 2.376.74" style="fill:none;stroke:#00ff4a;stroke-width:.666665;stroke-linecap:round;stroke-linejoin:round;stroke-miterlimit:4;stroke-dasharray:none;stroke-opacity:1;visibility:visible"/><path d="m343.906 786.764 9.068-1.32.556.043 1.548.451c.185.103.472.042.472.042l3.511-.596s1.672.72 3.095-.56c.366-.332.909-1.27.766-2.4-.49-3.84-3.943-4.811-3.943-4.811l-3.489-2.796c-.166-.205-.535-.288-.535-.288l-1.467-.472-.454-.061-28.545 4.11-.539.206-.969.842a1.28 1.28 0 0 0-.269.39l-2.106 3.639s-2.228 2.179-2.29 6.044c-.026 1.735.87 2.271 1.094 2.288a1.808 1.808 0 0 0 1.404-.5l2.146-.287c.145.001.29-.123.29-.123l.907-.803.145-.184 14.114-2.054" style="fill:none;stroke:#00ff4a;stroke-width:.666665;stroke-linecap:round;stroke-linejoin:round;stroke-miterlimit:4;stroke-dasharray:none;stroke-opacity:1;visibility:visible"/><path d="m343.082 785.408 9.89-1.422.846.246 3.756-.596s1.445.576 1.445-.822c.001-1.172-1.465-1.584-1.465-1.584l-3.798-3.02-.929-.27-27.142 3.948-.248.102-.392.35-2.291 3.928s-.827.738-.888 1.91c-.061 1.172.824.803.928.494l2.313-.227.556-.535 12.005-1.724M325.437 781.99l.125 6.003M353.056 778.023l.061 6.003M344.31 788.735l9.015-1.317 5.654 1.808v1.234M321 796.03l-.041-1.253 3.302-3.002.267-.144 14.387-2.106M366.358 790.438c-.432-.025-.93-.272-1.326-.71-.632-.698-.762-1.599-.294-2.021.212-.191.512-.249.836-.193M366.284 778.868c-.432-.024-.929-.272-1.324-.708-.63-.698-.764-1.602-.296-2.024.214-.191.516-.248.836-.192M360.168 775.14c.54.542.654 1.305.25 1.706-.403.399-1.17.279-1.71-.265-.546-.544-.658-1.311-.251-1.707.405-.4 1.171-.281 1.711.266M360.267 786.728c.54.544.659 1.302.264 1.692-.395.39-1.156.265-1.695-.28-.542-.55-.66-1.303-.265-1.694.392-.39 1.155-.264 1.696.282" style="fill:none;stroke:#00ff4a;stroke-width:.666665;stroke-linecap:round;stroke-linejoin:round;stroke-miterlimit:4;stroke-dasharray:none;stroke-opacity:1;visibility:visible"/><path d="m549.435 837.326.55-7.247" style="fill:none;stroke:#00ff4a;stroke-width:.999997;stroke-linecap:round;stroke-linejoin:round;stroke-miterlimit:4;stroke-dasharray:none;stroke-opacity:1;visibility:visible"/><path d="M530.412 831.347c-.372-.16-.735-.4-1.06-.714-1.09-1.058-1.325-2.563-.525-3.36.429-.427 1.072-.564 1.743-.434M530.819 842.366a3.56 3.56 0 0 1-1.059-.713c-.797-.771-1.136-1.783-.952-2.583" style="fill:none;stroke:#00ff4a;stroke-width:.666665;stroke-linecap:round;stroke-linejoin:round;stroke-miterlimit:4;stroke-dasharray:none;stroke-opacity:1;visibility:visible"/><path d="M531.461 830.275c-.371-.16-.734-.4-1.057-.713-.797-.77-1.137-1.781-.953-2.58M529.77 843.48c-.374-.16-.736-.4-1.06-.712-1.092-1.058-1.327-2.562-.527-3.358.431-.43 1.073-.568 1.745-.436M546.38 858.706l-3.705-6.213" style="fill:none;stroke:#00ff4a;stroke-width:.666665;stroke-linecap:round;stroke-linejoin:round;stroke-miterlimit:4;stroke-dasharray:none;stroke-opacity:1;visibility:visible"/><path d="m555.512 848.554-10.419-17.312s-.43-.381-1.029-.716l-3.817-1.136s-1.8-.591-2.787-1.223l-1.587-.885-4.801-1.476-.385.424-.088 1.516s1.76.716 1.845 1.98l-.557-.17-1.072 1.096s-.516.885-.472 1.263l-.43 7.92s1.758.802 1.888 1.938l-.601-.128-1.03 1.138s-.516.759-.47 1.18l-.133 1.22M545.567 852.157l2.781 4.416M536.838 848.199l.279-2.003 3.896 1.215" style="fill:none;stroke:#00ff4a;stroke-width:.666665;stroke-linecap:round;stroke-linejoin:round;stroke-miterlimit:4;stroke-dasharray:none;stroke-opacity:1;visibility:visible"/><path d="m538.062 828.588-.044 1.264 1.801.59 2.66 1.727 9.946 16.639-.47 3.623M546.45 851.84l2.245 3.75M551.139 852.767l-8.919-14.954-.215-.128-.773-.251-4.372.588s-1.416-.588-1.757.592c-.344 1.179 1.453 1.937 1.585 1.895l4.159 3.241.986.38 1.778 2.967M211.149 889.027a.612.612 0 0 1 .256.018c.672.185.9 1.472.512 2.878-.204.738-.538 1.357-.904 1.758M210.633 876.427a.633.633 0 0 1 .26.016c.67.183.897 1.474.51 2.878-.207.737-.539 1.358-.907 1.758M537.261 843.027c.649.518.855 1.323.464 1.796-.393.474-1.24.443-1.885-.076-.652-.516-.855-1.321-.464-1.797.393-.472 1.24-.44 1.885.077M537.932 830.91c.639.512.844 1.31.453 1.785-.395.475-1.237.448-1.874-.065-.644-.51-.842-1.312-.451-1.785.393-.476 1.233-.448 1.872.065" style="fill:none;stroke:#00ff4a;stroke-width:.666665;stroke-linecap:round;stroke-linejoin:round;stroke-miterlimit:4;stroke-dasharray:none;stroke-opacity:1;visibility:visible"/><path d="m543.42 833.77-1.115-.379s-.515-.126-.689-.04l-3.899.587s-3.216-1.011-4.417 1.433c-1.2 2.443 1.201 5.814 3.86 6.782l3.859 2.99s.385.168.597.254l.861.293M205.013 902.56l-4.38-14.68-.15-2.064c.024-1.154.768-1.761.768-1.761l2.542-2.173c1.092-.748 2.072-2.313 2.072-2.313.225-.51.712-1.144.712-1.144l3.2-2.78.832.297-.01 1.543s-1.115.75-1.377 2.993l.768.277s.852.468.84 1.132l.32 8.07s-1.315 1.239-1.375 3.061l.747.316s.768.36.815 1.088l.083 1.163-3.111 2.718" style="fill:none;stroke:#00ff4a;stroke-width:.666665;stroke-linecap:round;stroke-linejoin:round;stroke-miterlimit:4;stroke-dasharray:none;stroke-opacity:1;visibility:visible"/><path d="m213.251 905.745-1.25-1.08-2.365-1.981-5.653-18.506 1.883-4.612" style="fill:none;stroke:#00ff4a;stroke-width:.666665;stroke-linecap:round;stroke-linejoin:round;stroke-miterlimit:4;stroke-dasharray:none;stroke-opacity:1;visibility:visible"/><path d="m205.794 890.033 2.052-.32s.727-.819 1.099-.083c.372.739-.527 2.52-.983 2.68l-.979 1.587M203.343 897.075l-.4.615-.963.813s-.965.838-.813 1.764l.063 1.178M337.254 784.016a.97.97 0 0 1-.06-.126c-.427-1 .208-2.23 1.416-2.744.991-.424 2.061-.23 2.646.4M209.775 893.015s.015.428.052.602c0 0 .536.053.696-.284M209.223 880.48s.034.428.12.537c-.001.001.425.14.649-.263M207.14 894.495a.387.387 0 0 1 .216.022c.327.129.41.716.227 1.392M206.933 883.673c-.326.817-.9 1.354-1.286 1.197-.385-.149-.432-.933-.104-1.75.323-.817.9-1.357 1.284-1.2.384.15.431.937.106 1.753" style="fill:none;stroke:#00ff4a;stroke-width:.666665;stroke-linecap:round;stroke-linejoin:round;stroke-miterlimit:4;stroke-dasharray:none;stroke-opacity:1;visibility:visible"/><path d="m204.546 885.973 1.425-.226s1.096-1.006 2.206-.487c1.106.518.93 2.701.93 2.701l.14.602s.337 1.295-.165 2.614c-.499 1.32-1.109 1.669-1.109 1.669l-.914 1.436" style="fill:none;stroke:#00ff4a;stroke-width:.666665;stroke-linecap:round;stroke-linejoin:round;stroke-miterlimit:4;stroke-dasharray:none;stroke-opacity:1;visibility:visible"/><path d="m319.542 768.956-1.032.803L198.864 875.07" style="fill:none;stroke:#00ff4a;stroke-width:1.99999;stroke-linecap:round;stroke-linejoin:round;stroke-miterlimit:4;stroke-dasharray:none;stroke-opacity:1;visibility:visible"/><path d="m326.05 771.446-.75-.979-5.48-1.729-.28.219" style="fill:none;stroke:#00ff4a;stroke-width:.999997;stroke-linecap:round;stroke-linejoin:round;stroke-miterlimit:4;stroke-dasharray:none;stroke-opacity:1;visibility:visible"/><path d="m574.799 855.467.459.73-.5 5.52L441.32 1026.05l-.98.437-263.728-100.563M415.738 980.625l-214.54-79.43M503.593 810.843l46.667 14.505M352.988 764.03l129.089 40.127M456.216 966.63l102.166-121.788M244.27 893.786l97.468-90.392M226.293 910.459l6.196-5.75M254.516 920.904l117.556-112.61M283.176 931.53 399.05 816.905M312.426 942.362l113.936-116.645M342.197 953.362l111.957-118.688M431.836 899.38l50.527-55.56M372.54 964.582l43.523-47.86M458.773 912.796l46.472-53.03M403.392 975.993l11.808-13.477M456.33 961.12l84.026-99.722" style="fill:none;stroke:#00ff4a;stroke-width:1.99999;stroke-linecap:round;stroke-linejoin:round;stroke-miterlimit:4;stroke-dasharray:none;stroke-opacity:1;visibility:visible"/><path d="m199.572 883.717 126.084-112.73M502.37 815.389l47.521 14.883M349.217 767.425l132.402 41.464M565.84 847.133 455.742 978.597M440.758 1019.904l134.041-164.437M176.56 918.99l264.197 100.914-.167 6.458M208.404 898.81l108.932-98.293M507.338 838.709l30.73 9.8M355.197 790.196l134.669 42.941M226.912 902.135l-6.617 6.103M340.794 797.127l-102.217 94.25M367.217 806.702l-117.868 112.2M394.03 815.342l-116.125 114.23M421.32 824.092 307.01 940.384M448.987 833.03l-112.29 118.292M416.215 908.66l-49.33 53.864M477.153 842.113l-50.099 54.708M415.39 953.805l-17.71 20.075M501.545 856.16l-42.34 47.987M534.882 860.758l-78.192 92.281M415.517 986.404l-218.59-81.374M564.34 868.404l-.563 6.875M523.924 856.054l19.593 6.328M351.149 800.25l145.784 47.085M330.128 793.46l9.29 3M340.794 797.127l.277 5.333 1.223.388M367.238 806.682l.112 4.333 1.388.446M394.03 815.3l.041 4.333 1.647.542M421.32 824.113l-.083 4.333 1.832.584M448.987 833.03l-.104 4.375 2.02.666M477.133 842.175l-.145 4.333 2.228.73M534.882 860.737l-.292 4.437 2 .647" style="fill:none;stroke:#00ff4a;stroke-width:.999997;stroke-linecap:round;stroke-linejoin:round;stroke-miterlimit:4;stroke-dasharray:none;stroke-opacity:1;visibility:visible"/><path d="M395.783 778.512c-.003.86-1.29 1.553-2.875 1.548-1.586-.007-2.868-.707-2.865-1.567.001-.861 1.29-1.555 2.876-1.55 1.585.007 2.865.707 2.864 1.57v-.001M508.819 813.8c-.039.916-1.394 1.603-3.03 1.534-1.641-.067-2.937-.861-2.898-1.777.037-.915 1.394-1.6 3.031-1.534 1.641.068 2.932.862 2.898 1.778l-.001-.001M370.732 965.542c.016 1.202-1.48 2.194-3.346 2.22-1.859.024-3.382-.932-3.399-2.138-.013-1.204 1.485-2.198 3.347-2.22 1.862-.024 3.382.933 3.398 2.137v.001M247.28 919.686c.06 1.076-1.308 2.026-3.06 2.124-1.752.097-3.22-.694-3.28-1.769-.06-1.076 1.314-2.027 3.063-2.123 1.749-.099 3.218.692 3.278 1.768h-.001M299.589 792.407c.02.866-1.254 1.6-2.847 1.636-1.593.038-2.902-.636-2.922-1.5-.017-.871 1.257-1.605 2.85-1.639 1.592-.034 2.899.636 2.919 1.503M226.947 856.483c.083.978-1.22 1.887-2.904 2.024-1.683.14-3.116-.54-3.196-1.517-.082-.98 1.218-1.885 2.904-2.025 1.684-.139 3.115.54 3.196 1.518M547.732 849.135c.232 1.385.076 2.562-.352 2.635-.424.069-.955-.996-1.184-2.381-.23-1.382-.073-2.559.353-2.63.426-.072.954.995 1.183 2.376M481.243 946.747c-.074 1.147-1.604 1.98-3.418 1.865-1.814-.116-3.22-1.132-3.148-2.28.071-1.15 1.598-1.981 3.415-1.866 1.812.116 3.221 1.136 3.15 2.281h.001M543.57 871.966c-.067 1.007-1.515 1.732-3.239 1.623-1.727-.111-3.067-1.012-3.006-2.019.065-1.005 1.515-1.728 3.239-1.619 1.724.11 3.068 1.011 3.005 2.015h.001" style="fill:none;stroke:#00ff4a;stroke-width:.666665;stroke-linecap:round;stroke-linejoin:round;stroke-miterlimit:4;stroke-dasharray:none;stroke-opacity:1;visibility:visible"/><path d="M544.753 851.863a.463.463 0 0 0 .263.047.41.41 0 0 0 .292-.199M544.641 851.787c.035.026.079.051.112.076M545.308 851.711c.128-.221.201-.476.219-.736M545.527 850.974a4.537 4.537 0 0 0-.75-2.752M544.777 848.222a1.64 1.64 0 0 0-.557-.528M544.22 847.698a.41.41 0 0 0-.552.145M543.668 847.845c-.003.008-.008.014-.013.024M542.037 852.257a.408.408 0 0 0 .258.048.392.392 0 0 0 .292-.199M541.923 852.182c.036.027.076.05.114.075M542.587 852.106a1.66 1.66 0 0 0 .221-.735M542.808 851.371a4.578 4.578 0 0 0-.041-.906 4.444 4.444 0 0 0-.708-1.845M542.061 848.62a1.632 1.632 0 0 0-.56-.53M541.501 848.093a.401.401 0 0 0-.551.145M540.95 848.24a.12.12 0 0 0-.012.022M539.319 852.651a.407.407 0 0 0 .551-.149M539.201 852.577a1.088 1.088 0 0 0 .119.073M539.87 852.5c.13-.222.204-.477.22-.733M540.09 851.767a4.528 4.528 0 0 0-.75-2.754M539.341 849.011a1.693 1.693 0 0 0-.561-.528M538.78 848.486a.375.375 0 0 0-.257-.047.397.397 0 0 0-.293.195M538.23 848.634a.108.108 0 0 1-.012.024M535.907 849.206a.341.341 0 0 0-.252-.064.34.34 0 0 0-.222.133M535.433 849.274a1.38 1.38 0 0 0-.262.608M535.524 852.329c.099.198.248.374.423.508M535.95 852.835a.34.34 0 0 0 .248.065.327.327 0 0 0 .222-.134M536.423 852.767a1.36 1.36 0 0 0 .262-.606M536.685 852.16c.076-.413.083-.834.022-1.25a3.839 3.839 0 0 0-.378-1.196M536.332 849.713a1.519 1.519 0 0 0-.424-.508M353.912 809.583a.432.432 0 0 0-.01-.333.421.421 0 0 0-.243-.23M353.658 809.02a1.827 1.827 0 0 0-.826-.114M354.203 810.295c.3-.273.528-.615.675-.994M355.072 808.615a.733.733 0 0 0-.036-.48M354.898 809.243l.175-.628M353.682 805.105l1.355 3.028" style="fill:none;stroke:#00ff4a;stroke-width:.666665;stroke-linecap:round;stroke-linejoin:round;stroke-miterlimit:2;stroke-dasharray:none;stroke-opacity:1;visibility:visible"/><path d="M342.472 799.845c.271.635 1.56.778 3.02.314" style="fill:none;stroke:#00ff4a;stroke-width:.666665;stroke-linecap:round;stroke-linejoin:round;stroke-miterlimit:4;stroke-dasharray:none;stroke-opacity:1;visibility:visible"/><path d="M343.46 787.371a1.43 1.43 0 0 0 .04-.134M343.204 786.748a1.687 1.687 0 0 0-.764-.012M342.44 786.734a4.628 4.628 0 0 0-.863.286 4.508 4.508 0 0 0-1.589 1.18M339.988 788.198a1.69 1.69 0 0 0-.357.686M339.634 788.884a.368.368 0 0 0 .025.26.393.393 0 0 0 .268.226M339.926 789.371l.024.006M341.103 791.454a.353.353 0 0 0 .007.261.345.345 0 0 0 .188.178M341.3 791.891a1.373 1.373 0 0 0 .654.087M344.212 790.978c.168-.15.295-.34.375-.545M344.587 790.433a.347.347 0 0 0-.007-.256.32.32 0 0 0-.188-.182M344.392 789.995a1.367 1.367 0 0 0-.654-.089M343.738 789.905a3.81 3.81 0 0 0-1.21.318 3.888 3.888 0 0 0-1.048.684M341.48 790.908a1.487 1.487 0 0 0-.377.544M341.271 782.218a.448.448 0 0 0-.027-.264.415.415 0 0 0-.269-.228M341.228 782.348l.043-.132M340.975 781.725a1.678 1.678 0 0 0-.768-.012M340.207 781.714a4.473 4.473 0 0 0-2.447 1.467M337.76 783.18a1.653 1.653 0 0 0-.359.677M337.406 783.858a.41.41 0 0 0 .292.492M337.698 784.35c.008 0 .016.003.026.006M342.386 784.726a.387.387 0 0 0-.026-.26.39.39 0 0 0-.269-.23M342.343 784.858c.017-.042.028-.085.041-.132M342.09 784.237a1.673 1.673 0 0 0-.767-.013M341.323 784.225a4.47 4.47 0 0 0-2.447 1.464M338.876 785.688a1.63 1.63 0 0 0-.358.682M338.52 786.37a.392.392 0 0 0 .02.264.407.407 0 0 0 .27.226M338.81 786.86l.026.006" style="fill:none;stroke:#00ff4a;stroke-width:.666665;stroke-linecap:round;stroke-linejoin:round;stroke-miterlimit:2;stroke-dasharray:none;stroke-opacity:1;visibility:visible"/><path d="M343.5 787.238a.413.413 0 0 0-.297-.492" style="fill:none;stroke:#00ff4a;stroke-width:.666665;stroke-linecap:round;stroke-linejoin:round;stroke-miterlimit:2;stroke-dasharray:none;stroke-opacity:1;visibility:visible"/><path d="m342.79 790.209 1.84 4.05M338.518 786.37l-17.367 6.964M337.401 783.857l-16.521-2.105M337.698 784.35l-16.818-2.598M315.827 782.423l4.781-3.228M365.88 775.165l-7.065-1.48M315.806 782.23l9.631-.24M340.794 797.127l-15.232-9.134M365.874 774.96l-12.818 3.063M340.794 797.127l12.323-13.101M343.738 789.905l.572-1.17M353.056 778.023l5.923 12.437M325.437 781.99 321 796.03M360.267 786.728l-.099-11.588M360.267 786.728l-.099-11.588M360.168 775.14l.099 11.588M360.168 775.14l.099 11.588" style="fill:none;stroke:#00ff4a;stroke-width:.666665;stroke-linecap:round;stroke-linejoin:round;stroke-miterlimit:4;stroke-dasharray:none;stroke-opacity:1;visibility:visible"/><path d="m545.527 850.975 3.908-13.649" style="fill:none;stroke:#00ff4a;stroke-width:.999997;stroke-linecap:round;stroke-linejoin:round;stroke-miterlimit:4;stroke-dasharray:none;stroke-opacity:1;visibility:visible"/><path d="m544.753 851.863-13.934-9.497M535.171 849.882l-6.363-10.812M544.753 851.863l-14.983-8.383M545.567 852.157l.813 6.549M546.45 851.84l9.062-3.286M536.685 852.161l-7.118-6.978M546.45 851.84l1.898 4.733M536.685 852.161l.153-3.962M549.435 837.326l-11.373-8.738M545.567 852.157l3.128 3.434M535.907 849.206l1.354-6.179M535.908 849.205l1.353-6.178M537.261 843.027l.671-12.117M537.261 843.027l.671-12.117M206.933 883.673l-1.067-4.107M207.059 894.282l-3.716 2.793M201.23 901.445l8.545-8.43M209.223 880.48l-1.64 15.429M209.223 880.48l-2.29 3.193" style="fill:none;stroke:#00ff4a;stroke-width:.666665;stroke-linecap:round;stroke-linejoin:round;stroke-miterlimit:4;stroke-dasharray:none;stroke-opacity:1;visibility:visible"/><path d="m358.815 773.686-5.827-9.656M232.489 904.71l11.781-10.924M226.912 902.135l-.619 8.324M220.295 908.238l12.194-3.528M354.203 810.295l17.869-2.001M416.215 908.66l15.621-9.28M536.423 852.767l3.933 8.63" style="fill:none;stroke:#00ff4a;stroke-width:1.99999;stroke-linecap:round;stroke-linejoin:round;stroke-miterlimit:4;stroke-dasharray:none;stroke-opacity:1;visibility:visible"/><path d="m358.815 773.686-9.598-6.261M496.933 847.335l10.405-8.626M344.392 789.995l10.805.201M507.338 838.709l-17.472-5.572M226.293 910.459l.619-8.324M232.489 904.71l-12.194 3.528M232.489 904.71l6.088-13.333M427.054 896.82l-10.839 11.84M416.215 908.66l10.84-11.84M536.59 865.821l-12.666-9.767M353.658 809.02l-2.509-8.77M507.338 838.709l-10.405 8.626M339.927 789.37l-9.799 4.09M341.3 791.891l-1.883 4.569M353.659 809.02l15.079 2.44M523.924 856.054l12.666 9.767" style="fill:none;stroke:#00ff4a;stroke-width:.999997;stroke-linecap:round;stroke-linejoin:round;stroke-miterlimit:4;stroke-dasharray:none;stroke-opacity:1;visibility:visible"/><path d="m316.087 793.995-16.498-1.588" style="fill:none;stroke:#00ff4a;stroke-width:.666665;stroke-linecap:round;stroke-linejoin:round;stroke-miterlimit:4;stroke-dasharray:none;stroke-opacity:1;visibility:visible"/><path d="m344.63 794.26 9.052 10.845" style="fill:none;stroke:#00ff4a;stroke-width:.666665;stroke-linecap:round;stroke-linejoin:round;stroke-miterlimit:2;stroke-dasharray:none;stroke-opacity:1;visibility:visible"/><path d="m344.63 794.26-2.158 5.585M342.472 799.845l2.158-5.585" style="fill:none;stroke:#00ff4a;stroke-width:.666665;stroke-linecap:round;stroke-linejoin:round;stroke-miterlimit:4;stroke-dasharray:none;stroke-opacity:1;visibility:visible"/><path d="m549.984 830.081 5.972-78.865 3.276-3.544.984.217M569.385 750.58l13.552 3.896.688.459.479.686-8.714 99.01-.59.835M567.606 762.02l-2.44 2.685-6.29 78.416M572.307 756.846l-.541.596" style="fill:none;stroke:#9500ff;stroke-width:1.99999;stroke-linecap:round;stroke-linejoin:round;stroke-miterlimit:4;stroke-dasharray:none;stroke-opacity:1;visibility:visible" visibility="hidden"/><path d="m575.023 764.726-2.252 2.563-7.584-2.208M583.625 754.934l-6.49 7.387M572.77 767.288l-7.65 99.917M559.718 833.16l-8.721-2.656 7.88 12.617-.132 1.594M556.039 751.778l16.503 4.76" style="fill:none;stroke:#9500ff;stroke-width:.999997;stroke-linecap:round;stroke-linejoin:round;stroke-miterlimit:4;stroke-dasharray:none;stroke-opacity:1;visibility:visible" visibility="hidden"/><path d="m560.528 749.303-.076 1.727M568.44 751.658l.101-1.75" style="fill:none;stroke:#9500ff;stroke-width:1.99999;stroke-linecap:round;stroke-linejoin:round;stroke-miterlimit:4;stroke-dasharray:none;stroke-opacity:1;visibility:visible" visibility="hidden"/><path d="M568.55 749.76c-.09 1.195-1.952 2.023-4.157 1.857-2.206-.169-3.923-1.272-3.831-2.463" style="fill:none;stroke:#9500ff;stroke-width:.999997;stroke-linecap:round;stroke-linejoin:round;stroke-miterlimit:4;stroke-dasharray:none;stroke-opacity:1;visibility:visible" visibility="hidden"/><path d="M560.561 749.156c.09-1.192 1.954-2.022 4.156-1.852 2.207.166 3.926 1.268 3.834 2.458" style="fill:none;stroke:#9500ff;stroke-width:1.99999;stroke-linecap:round;stroke-linejoin:round;stroke-miterlimit:4;stroke-dasharray:none;stroke-opacity:1;visibility:visible" visibility="hidden"/><path d="M560.45 751.053c-.084 1.079 1.637 2.084 3.848 2.252 2.206.167 4.061-.568 4.141-1.645" style="fill:none;stroke:#9500ff;stroke-width:.999997;stroke-linecap:round;stroke-linejoin:round;stroke-miterlimit:4;stroke-dasharray:none;stroke-opacity:1;visibility:visible" visibility="hidden"/><path d="m568.192 760.492-.077 1.763M576.19 762.89l.104-1.785" style="fill:none;stroke:#9500ff;stroke-width:1.99999;stroke-linecap:round;stroke-linejoin:round;stroke-miterlimit:4;stroke-dasharray:none;stroke-opacity:1;visibility:visible" visibility="hidden"/><path d="M576.303 760.954c-.094 1.216-1.976 2.064-4.206 1.896-2.23-.171-3.961-1.293-3.872-2.51" style="fill:none;stroke:#9500ff;stroke-width:.999997;stroke-linecap:round;stroke-linejoin:round;stroke-miterlimit:4;stroke-dasharray:none;stroke-opacity:1;visibility:visible" visibility="hidden"/><path d="M568.228 760.34c.09-1.214 1.972-2.061 4.202-1.891 2.23.168 3.965 1.289 3.874 2.505" style="fill:none;stroke:#9500ff;stroke-width:1.99999;stroke-linecap:round;stroke-linejoin:round;stroke-miterlimit:4;stroke-dasharray:none;stroke-opacity:1;visibility:visible" visibility="hidden"/><path d="M568.113 762.277c-.082 1.101 1.657 2.128 3.888 2.297.954.07 1.842-.024 2.552-.244.358-.11.654.002 1.05-.29.406-.3.554-.755.586-1.148M559.278 844.383l7.07 2.19" style="fill:none;stroke:#9500ff;stroke-width:.999997;stroke-linecap:round;stroke-linejoin:round;stroke-miterlimit:4;stroke-dasharray:none;stroke-opacity:1;visibility:visible" visibility="hidden"/><path d="m556.039 751.778 4.177-3.889M572.542 756.538l-3.157-5.958M567.606 762.02l4.16-4.578" style="fill:none;stroke:#9500ff;stroke-width:1.99999;stroke-linecap:round;stroke-linejoin:round;stroke-miterlimit:4;stroke-dasharray:none;stroke-opacity:1;visibility:visible" visibility="hidden"/><path d="m577.136 762.32-2.113 2.406M572.542 756.538l-7.355 8.543M571.766 757.442l11.859-2.508M575.023 764.726l2.113-2.405M576.19 762.89l-3.42 4.398M559.278 844.383l.44-11.223M560.216 747.89l-4.177 3.888" style="fill:none;stroke:#9500ff;stroke-width:.999997;stroke-linecap:round;stroke-linejoin:round;stroke-miterlimit:4;stroke-dasharray:none;stroke-opacity:1;visibility:visible" visibility="hidden"/><path d="m340.527 684.707-9.51-2.775-5.286 4.136M352.997 763.988l-.925-75.972-3.695-1.056M320.165 690.54l-2.677 2.17 2.054 76.247" style="fill:none;stroke:#ffdf00;stroke-width:1.99999;stroke-linecap:round;stroke-linejoin:round;stroke-miterlimit:4;stroke-dasharray:none;stroke-opacity:1;visibility:visible" visibility="hidden"/><path d="m317.53 692.858 6.736 1.99 9.083-7.526 14.64 4.25 4.082-3.557M324.76 694.39l1.867 80.264M347.405 691.432l1.167 80.056M335.932 763.292l12.25 3.805-21.417 3.028 7.452-6.617 1.715-.216M334.905 763.404l-1.556-76.084M328.156 688.785l-.001-.137" style="fill:none;stroke:#ffdf00;stroke-width:.999997;stroke-linecap:round;stroke-linejoin:round;stroke-miterlimit:4;stroke-dasharray:none;stroke-opacity:1;visibility:visible" visibility="hidden"/><path d="m320.52 688.812.052 1.573M328.186 690.378l-.03-1.593" style="fill:none;stroke:#ffdf00;stroke-width:1.99999;stroke-linecap:round;stroke-linejoin:round;stroke-miterlimit:4;stroke-dasharray:none;stroke-opacity:1;visibility:visible" visibility="hidden"/><path d="M328.154 688.65c0 1.086-1.675 1.97-3.74 1.97-2.065 0-3.875-.856-3.875-1.943" style="fill:none;stroke:#ffdf00;stroke-width:.999997;stroke-linecap:round;stroke-linejoin:round;stroke-miterlimit:4;stroke-dasharray:none;stroke-opacity:1;visibility:visible" visibility="hidden"/><path d="M320.54 688.676c0-1.087 1.806-1.994 3.873-1.994 2.066 0 3.741.88 3.741 1.966" style="fill:none;stroke:#ffdf00;stroke-width:1.99999;stroke-linecap:round;stroke-linejoin:round;stroke-miterlimit:4;stroke-dasharray:none;stroke-opacity:1;visibility:visible" visibility="hidden"/><path d="M320.571 690.405c0 .983 1.809 1.752 3.875 1.752 2.064 0 3.74-.795 3.74-1.78" style="fill:none;stroke:#ffdf00;stroke-width:.999997;stroke-linecap:round;stroke-linejoin:round;stroke-miterlimit:4;stroke-dasharray:none;stroke-opacity:1;visibility:visible" visibility="hidden"/><path d="m340.436 686.162.052 1.556M348.044 687.71l-.028-1.577" style="fill:none;stroke:#ffdf00;stroke-width:1.99999;stroke-linecap:round;stroke-linejoin:round;stroke-miterlimit:4;stroke-dasharray:none;stroke-opacity:1;visibility:visible" visibility="hidden"/><path d="M348.012 686c0 1.077-1.6 1.993-3.666 1.993s-3.89-.888-3.89-1.965" style="fill:none;stroke:#ffdf00;stroke-width:.999997;stroke-linecap:round;stroke-linejoin:round;stroke-miterlimit:4;stroke-dasharray:none;stroke-opacity:1;visibility:visible" visibility="hidden"/><path d="M340.456 686.028c0-1.076 1.824-1.928 3.89-1.928 2.064 0 3.666.824 3.666 1.9" style="fill:none;stroke:#ffdf00;stroke-width:1.99999;stroke-linecap:round;stroke-linejoin:round;stroke-miterlimit:4;stroke-dasharray:none;stroke-opacity:1;visibility:visible" visibility="hidden"/><path d="M340.487 687.738c0 .972 1.824 1.778 3.89 1.778 2.064 0 3.665-.834 3.665-1.806M349.217 767.425l3.77-3.396" style="fill:none;stroke:#ffdf00;stroke-width:.999997;stroke-linecap:round;stroke-linejoin:round;stroke-miterlimit:4;stroke-dasharray:none;stroke-opacity:1;visibility:visible" visibility="hidden"/><path d="m348.377 686.96-7.85-2.253M320.165 690.54l5.566-4.472" style="fill:none;stroke:#ffdf00;stroke-width:1.99999;stroke-linecap:round;stroke-linejoin:round;stroke-miterlimit:4;stroke-dasharray:none;stroke-opacity:1;visibility:visible" visibility="hidden"/><path d="m328.186 690.378-3.426 4.012M348.044 687.71l-.639 3.722M328.154 688.648l5.195-1.328" style="fill:none;stroke:#ffdf00;stroke-width:.999997;stroke-linecap:round;stroke-linejoin:round;stroke-miterlimit:4;stroke-dasharray:none;stroke-opacity:1;visibility:visible" visibility="hidden"/><path d="m182.238 815.154-3.75-1.292M200.978 901.274l-6.864-82.08-3.21-1.081M177.033 806.908l-11.044 8.913 9.817 102.835.755.334-.67.419.503 5.78.22.736M190.815 818.079l-1.245-13.841-4.734-1.623" style="fill:none;stroke:#00d4ff;stroke-width:1.99999;stroke-linecap:round;stroke-linejoin:round;stroke-miterlimit:4;stroke-dasharray:none;stroke-opacity:1;visibility:visible" visibility="hidden"/><path d="m186.446 822.163 2.917 1.012 4.75-3.981M166.926 815.363l13.748 4.8M189.363 823.175l9.227 103.354M178.218 813.592l11.355-9.356M189.506 817.115l.004.05c.094 1.373-1.728 2.617-4.07 2.775-2.343.16-4.462-.797-4.555-2.17" style="fill:none;stroke:#00d4ff;stroke-width:.999997;stroke-linecap:round;stroke-linejoin:round;stroke-miterlimit:4;stroke-dasharray:none;stroke-opacity:1;visibility:visible" visibility="hidden"/><path d="M180.884 817.773c-.094-1.375 1.873-2.644 4.216-2.806 2.314-.157 4.269.803 4.406 2.15M189.676 818.837l-.208-2.036" style="fill:none;stroke:#00d4ff;stroke-width:1.99999;stroke-linecap:round;stroke-linejoin:round;stroke-miterlimit:4;stroke-dasharray:none;stroke-opacity:1;visibility:visible" visibility="hidden"/><path d="M181.03 819.446c.027.39.28.801.5 1.167.272.452.46.694 1.208 1 1.42.577 1.71.034 1.903.004.305-.05.628.02.955-.003 2.348-.16 4.174-1.403 4.08-2.777" style="fill:none;stroke:#00d4ff;stroke-width:.999997;stroke-linecap:round;stroke-linejoin:round;stroke-miterlimit:4;stroke-dasharray:none;stroke-opacity:1;visibility:visible" visibility="hidden"/><path d="m180.883 817.704.147 1.743" style="fill:none;stroke:#00d4ff;stroke-width:1.99999;stroke-linecap:round;stroke-linejoin:round;stroke-miterlimit:4;stroke-dasharray:none;stroke-opacity:1;visibility:visible" visibility="hidden"/><path d="M185.762 804.607c.094 1.353-1.714 2.574-4.038 2.731-2.326.159-4.284-.81-4.376-2.157" style="fill:none;stroke:#00d4ff;stroke-width:.999997;stroke-linecap:round;stroke-linejoin:round;stroke-miterlimit:4;stroke-dasharray:none;stroke-opacity:1;visibility:visible" visibility="hidden"/><path d="M177.349 805.18c-.092-1.35 1.717-2.57 4.041-2.728 2.323-.159 4.283.808 4.374 2.154M185.926 806.252l-.163-1.644" style="fill:none;stroke:#00d4ff;stroke-width:1.99999;stroke-linecap:round;stroke-linejoin:round;stroke-miterlimit:4;stroke-dasharray:none;stroke-opacity:1;visibility:visible" visibility="hidden"/><path d="M177.49 806.827c.094 1.353 2.055 2.316 4.386 2.156 2.328-.156 4.142-1.378 4.05-2.732" style="fill:none;stroke:#00d4ff;stroke-width:.999997;stroke-linecap:round;stroke-linejoin:round;stroke-miterlimit:4;stroke-dasharray:none;stroke-opacity:1;visibility:visible" visibility="hidden"/><path d="m177.343 805.092.147 1.735" style="fill:none;stroke:#00d4ff;stroke-width:1.99999;stroke-linecap:round;stroke-linejoin:round;stroke-miterlimit:4;stroke-dasharray:none;stroke-opacity:1;visibility:visible" visibility="hidden"/><path d="m201.197 901.196-4.27 3.833" style="fill:none;stroke:#00d4ff;stroke-width:.999997;stroke-linecap:round;stroke-linejoin:round;stroke-miterlimit:4;stroke-dasharray:none;stroke-opacity:1;visibility:visible" visibility="hidden"/><path d="m186.446 822.163-4.208-7.009M182.238 815.154l2.598-12.539" style="fill:none;stroke:#00d4ff;stroke-width:1.99999;stroke-linecap:round;stroke-linejoin:round;stroke-miterlimit:4;stroke-dasharray:none;stroke-opacity:1;visibility:visible" visibility="hidden"/><path d="m180.674 820.163 5.772 2M178.218 813.592l15.895 5.602M182.238 815.154l-15.312.209M189.676 818.837l-.313 4.338" style="fill:none;stroke:#00d4ff;stroke-width:.999997;stroke-linecap:round;stroke-linejoin:round;stroke-miterlimit:4;stroke-dasharray:none;stroke-opacity:1;visibility:visible" visibility="hidden"/><path d="m431.836 899.38 17.841-6.038" style="fill:none;stroke:red;stroke-width:1.99999;stroke-linecap:round;stroke-linejoin:round;stroke-miterlimit:4;stroke-dasharray:none;stroke-opacity:1;visibility:visible" visibility="hidden"/><path d="m454.125 900.997 4.273-4.797" style="fill:none;stroke:red;stroke-width:.999997;stroke-linecap:round;stroke-linejoin:round;stroke-miterlimit:4;stroke-dasharray:none;stroke-opacity:1;visibility:visible" visibility="hidden"/><path d="M559.278 844.383 543.42 833.77M559.278 844.383l-16.801 1.307" style="fill:none;stroke:#00ff4a;stroke-width:.666665;stroke-linecap:round;stroke-linejoin:round;stroke-miterlimit:4;stroke-dasharray:none;stroke-opacity:1;visibility:visible"/><path d="m416.215 908.66-.152 8.062M454.125 900.997l4.648 11.799" style="fill:none;stroke:#00ff4a;stroke-width:1.99999;stroke-linecap:round;stroke-linejoin:round;stroke-miterlimit:4;stroke-dasharray:none;stroke-opacity:1;visibility:visible"/><path d="m207.059 894.282-7.487-10.565M454.125 900.997l5.08 3.15M565.12 867.205l-.78 1.199M489.866 833.137l-10.65 14.1" style="fill:none;stroke:#00ff4a;stroke-width:.999997;stroke-linecap:round;stroke-linejoin:round;stroke-miterlimit:4;stroke-dasharray:none;stroke-opacity:1;visibility:visible"/><path d="m546.38 858.706 1.352-9.571M545.567 852.157l2.165-3.022" style="fill:none;stroke:#00ff4a;stroke-width:.666665;stroke-linecap:round;stroke-linejoin:round;stroke-miterlimit:4;stroke-dasharray:none;stroke-opacity:1;visibility:visible"/><path d="m559.718 833.16-.841 9.961" style="fill:none;stroke:#9500ff;stroke-width:1.99999;stroke-linecap:round;stroke-linejoin:round;stroke-miterlimit:4;stroke-dasharray:none;stroke-opacity:1;visibility:visible" visibility="hidden"/><path d="m564.34 868.404.78-1.199" style="fill:none;stroke:#9500ff;stroke-width:.999997;stroke-linecap:round;stroke-linejoin:round;stroke-miterlimit:4;stroke-dasharray:none;stroke-opacity:1;visibility:visible" visibility="hidden"/><path d="m325.437 781.99 1.19-7.336M353.056 778.023l-4.484-6.535M340.975 781.725l-5.043-18.433" style="fill:none;stroke:#ffdf00;stroke-width:.999997;stroke-linecap:round;stroke-linejoin:round;stroke-miterlimit:4;stroke-dasharray:none;stroke-opacity:1;visibility:visible" visibility="hidden"/></svg>