<svg xmlns="http://www.w3.org/2000/svg" baseProfile="full" height="1122.52" preserveAspectRatio="xMinYMin meet" style="width:765px;height:943px" width="793.701" xml:space="preserve"><path d="m350.062 872.73-.25-12.737M349.518 864.067l-.108-24.207-.972-49.763M348.242 780.084l-.618-31.58-16.089-1.975-12.764 3.165" style="fill:none;stroke:red;stroke-width:1.99999;stroke-linecap:round;stroke-linejoin:round;stroke-miterlimit:2.414;stroke-dasharray:none;stroke-opacity:1;visibility:visible" visibility="hidden"/><path d="m347.344 748.452-13.133 4.273-1.219-.73-13.773-2.097M334.202 752.168l1.42 89.062M335.708 867.87l.112 8.37" style="fill:none;stroke:red;stroke-width:.999997;stroke-linecap:round;stroke-linejoin:round;stroke-miterlimit:2.414;stroke-dasharray:none;stroke-opacity:1;visibility:visible" visibility="hidden"/><path d="m321.04 873.2.861 42.168 15.565 3.466 15.256-4.304-.148-9.816" style="fill:none;stroke:red;stroke-width:1.99999;stroke-linecap:round;stroke-linejoin:round;stroke-miterlimit:2.414;stroke-dasharray:none;stroke-opacity:1;visibility:visible" visibility="hidden"/><path d="m337.162 901.614.293 16.672" style="fill:none;stroke:red;stroke-width:.999997;stroke-linecap:round;stroke-linejoin:round;stroke-miterlimit:2.414;stroke-dasharray:none;stroke-opacity:1;visibility:visible" visibility="hidden"/><path d="m319.307 840.473-.61-50.39M318.56 778.676l-.356-29.454M335.708 867.87l14.354 4.86M349.518 864.067l.294-4.074M349.812 859.993l-.294 4.074M348.242 780.084l.196 10.013M348.438 790.097l-.196-10.013" style="fill:none;stroke:red;stroke-width:1.99999;stroke-linecap:round;stroke-linejoin:round;stroke-miterlimit:2.414;stroke-dasharray:none;stroke-opacity:1;visibility:visible" visibility="hidden"/><path d="m349.518 864.067-13.81 3.803M321.04 873.2l14.78 3.04" style="fill:none;stroke:red;stroke-width:.999997;stroke-linecap:round;stroke-linejoin:round;stroke-miterlimit:2.414;stroke-dasharray:none;stroke-opacity:1;visibility:visible" visibility="hidden"/><path d="m335.82 876.24-14.78-3.04M318.56 778.676l.137 11.407M318.697 790.083l-.137-11.407" style="fill:none;stroke:red;stroke-width:1.99999;stroke-linecap:round;stroke-linejoin:round;stroke-miterlimit:2.414;stroke-dasharray:none;stroke-opacity:1;visibility:visible" visibility="hidden"/><path d="m311.849 941.191 20.625-6.53M341.847 931.694l114.759-36.344M489.57 884.409l7.532-2.274 61.266-19.881" style="fill:none;stroke:#00ff4a;stroke-width:1.99999;stroke-linecap:round;stroke-linejoin:round;stroke-miterlimit:2.414;stroke-dasharray:none;stroke-opacity:1;visibility:visible" visibility="hidden"/><path d="m473.33 1005.923-15.772-6.25-131.929-52.359-14.066-5.327M726.184 910.797l-.428.069-121.206 45.826-114.453 42.911-16.767 6.32.286 21.316" style="fill:none;stroke:#00ff4a;stroke-width:.999997;stroke-linecap:round;stroke-linejoin:round;stroke-miterlimit:2.414;stroke-dasharray:none;stroke-opacity:1;visibility:visible" visibility="hidden"/><path d="m311.818 942.24.639 19.891 161.408 65.361 265.002-102.16M589.72 859.74l120.674 37.282M341.847 931.694l-9.373 2.967M332.474 934.661l9.373-2.967" style="fill:none;stroke:#00ff4a;stroke-width:1.99999;stroke-linecap:round;stroke-linejoin:round;stroke-miterlimit:2.414;stroke-dasharray:none;stroke-opacity:1;visibility:visible" visibility="hidden"/><path d="m588.83 849.895.1 9.847" style="fill:none;stroke:#9500ff;stroke-width:1.99999;stroke-linecap:round;stroke-linejoin:round;stroke-miterlimit:2.414;stroke-dasharray:none;stroke-opacity:1;visibility:visible" visibility="hidden"/><path d="m588.6 850.82-.273 9.624-16.058 4.779-12.874-4.336" style="fill:none;stroke:#9500ff;stroke-width:.999997;stroke-linecap:round;stroke-linejoin:round;stroke-miterlimit:2.414;stroke-dasharray:none;stroke-opacity:1;visibility:visible" visibility="hidden"/><path d="m558.603 859.851-1.266-160.906.863-.325 16.168-3.8 13.442 4.638.829 118.742.206 32.873" style="fill:none;stroke:#9500ff;stroke-width:1.99999;stroke-linecap:round;stroke-linejoin:round;stroke-miterlimit:2.414;stroke-dasharray:none;stroke-opacity:1;visibility:visible" visibility="hidden"/><path d="m571.201 703.065 16.532-3.857M571.78 865.07l-.745-162.01-13.083-4.696" style="fill:none;stroke:#9500ff;stroke-width:.999997;stroke-linecap:round;stroke-linejoin:round;stroke-miterlimit:2.414;stroke-dasharray:none;stroke-opacity:1;visibility:visible" visibility="hidden"/><path d="m588.6 850.82.33 8.922" style="fill:none;stroke:#9500ff;stroke-width:1.99999;stroke-linecap:round;stroke-linejoin:round;stroke-miterlimit:2.414;stroke-dasharray:none;stroke-opacity:1;visibility:visible" visibility="hidden"/><path d="m458.13 998.783-1.207-103.06" style="fill:none;stroke:#ffdf00;stroke-width:.666665;stroke-linecap:round;stroke-linejoin:round;stroke-miterlimit:2.414;stroke-dasharray:none;stroke-opacity:1;visibility:visible" visibility="hidden"/><path d="m471.84 829.947 16.623-5.257M473.33 1005.923l-1.49-175.976-15.63-5.257" style="fill:none;stroke:#ffdf00;stroke-width:.999997;stroke-linecap:round;stroke-linejoin:round;stroke-miterlimit:2.414;stroke-dasharray:none;stroke-opacity:1;visibility:visible" visibility="hidden"/><path d="m457.204 998.316-.738-173.374 16.48-4.901 15.772 4.901.567.641 1.347 172.88" style="fill:none;stroke:#ffdf00;stroke-width:1.99999;stroke-linecap:round;stroke-linejoin:round;stroke-miterlimit:2.414;stroke-dasharray:none;stroke-opacity:1;visibility:visible" visibility="hidden"/><path d="m725.756 910.867-15.132-4.83v-8.88" style="fill:none;stroke:#00d4ff;stroke-width:.999997;stroke-linecap:round;stroke-linejoin:round;stroke-miterlimit:2.414;stroke-dasharray:none;stroke-opacity:1;visibility:visible"/><path d="m744.623 749.068-4.756 176.024M710.878 897.409l.355-8.667 3.976-139.674.784-.071c3.91-1.563 8.31-2.63 12.503-4.05l15.627 4.051" style="fill:none;stroke:#00d4ff;stroke-width:1.99999;stroke-linecap:round;stroke-linejoin:round;stroke-miterlimit:2.414;stroke-dasharray:none;stroke-opacity:1;visibility:visible"/><path d="m730.94 752.794-15.201-4.052M743.873 748.742l-12.933 4.052-4.756 158.003c4.26-.992 8.38-3.268 12.929-4.618" style="fill:none;stroke:#00d4ff;stroke-width:.999997;stroke-linecap:round;stroke-linejoin:round;stroke-miterlimit:2.414;stroke-dasharray:none;stroke-opacity:1;visibility:visible"/><path d="m710.749 896.505-.493 9.377M710.624 897.157l-.368 8.725" style="fill:none;stroke:#00d4ff;stroke-width:1.99999;stroke-linecap:round;stroke-linejoin:round;stroke-miterlimit:2.414;stroke-dasharray:none;stroke-opacity:1;visibility:visible"/></svg>