<svg xmlns="http://www.w3.org/2000/svg" baseProfile="full" height="1122.52" preserveAspectRatio="xMinYMin meet" style="width:914px;height:841px" width="793.701" xml:space="preserve"><path d="m585.588 654.245 60.39-16.664" style="fill:none;stroke:red;stroke-width:.999997;stroke-linecap:round;stroke-linejoin:round;stroke-miterlimit:2.414;stroke-dasharray:none;stroke-opacity:1;visibility:visible" visibility="hidden"/><path d="m583.97 889.477 65.643-18.118" style="fill:none;stroke:red;stroke-width:1.99999;stroke-linecap:round;stroke-linejoin:round;stroke-miterlimit:2.414;stroke-dasharray:none;stroke-opacity:1;visibility:visible" visibility="hidden"/><path d="m583.635 911.463 56.195-15.508" style="fill:none;stroke:red;stroke-width:.999997;stroke-linecap:round;stroke-linejoin:round;stroke-miterlimit:2.414;stroke-dasharray:none;stroke-opacity:1;visibility:visible" visibility="hidden"/><path d="M206.057 767.738a.37.37 0 0 0 .245.019" style="fill:none;stroke:red;stroke-width:.999997;stroke-linecap:round;stroke-linejoin:round;stroke-miterlimit:4;stroke-dasharray:none;stroke-opacity:1;visibility:visible" visibility="hidden"/><path d="m543.244 676.428 4.001-1.083" style="fill:none;stroke:red;stroke-width:.666665;stroke-linecap:round;stroke-linejoin:round;stroke-miterlimit:4;stroke-dasharray:none;stroke-opacity:1;visibility:visible" visibility="hidden"/><path d="m210.997 766.476 332.248-90.05" style="fill:none;stroke:red;stroke-width:1.99999;stroke-linecap:round;stroke-linejoin:round;stroke-miterlimit:4;stroke-dasharray:none;stroke-opacity:1;visibility:visible" visibility="hidden"/><path d="M103.17 718.304a.357.357 0 0 0-.268.354M103.298 723.622l102.759 44.118M206.302 767.757l4.695-1.281" style="fill:none;stroke:red;stroke-width:.999997;stroke-linecap:round;stroke-linejoin:round;stroke-miterlimit:4;stroke-dasharray:none;stroke-opacity:1;visibility:visible" visibility="hidden"/><path d="m438.915 636.73-335.746 81.575M102.902 718.658l.183 4.654" style="fill:none;stroke:red;stroke-width:1.99999;stroke-linecap:round;stroke-linejoin:round;stroke-miterlimit:4;stroke-dasharray:none;stroke-opacity:1;visibility:visible" visibility="hidden"/><path d="M103.085 723.312a.347.347 0 0 0 .213.308" style="fill:none;stroke:red;stroke-width:.999997;stroke-linecap:round;stroke-linejoin:round;stroke-miterlimit:4;stroke-dasharray:none;stroke-opacity:1;visibility:visible" visibility="hidden"/><path d="m387.858 746.14.336-27.763M439.079 636.735a.287.287 0 0 0-.164-.006M547.245 675.344a.332.332 0 0 0 .243-.306M547.433 670.366l-108.355-33.633M547.488 675.038l.175-4.352M547.663 670.688a.32.32 0 0 0-.228-.32" style="fill:none;stroke:red;stroke-width:1.99999;stroke-linecap:round;stroke-linejoin:round;stroke-miterlimit:4;stroke-dasharray:none;stroke-opacity:1;visibility:visible" visibility="hidden"/><path d="m540.503 708.21 5.889-1.674M206.786 803a.377.377 0 0 0 .254.017" style="fill:none;stroke:red;stroke-width:.999997;stroke-linecap:round;stroke-linejoin:round;stroke-miterlimit:4;stroke-dasharray:none;stroke-opacity:1;visibility:visible" visibility="hidden"/><path d="m213.622 801.145 326.882-92.935" style="fill:none;stroke:red;stroke-width:1.99999;stroke-linecap:round;stroke-linejoin:round;stroke-miterlimit:4;stroke-dasharray:none;stroke-opacity:1;visibility:visible" visibility="hidden"/><path d="M83.117 742.158a.344.344 0 0 0-.26.35M83.253 747.348l123.533 55.65M207.04 803.017l6.583-1.872" style="fill:none;stroke:red;stroke-width:.999997;stroke-linecap:round;stroke-linejoin:round;stroke-miterlimit:4;stroke-dasharray:none;stroke-opacity:1;visibility:visible" visibility="hidden"/><path d="m82.857 742.508.193 4.54" style="fill:none;stroke:red;stroke-width:1.99999;stroke-linecap:round;stroke-linejoin:round;stroke-miterlimit:4;stroke-dasharray:none;stroke-opacity:1;visibility:visible" visibility="hidden"/><path d="M546.803 701.924a.327.327 0 0 0-.223-.32M83.05 747.049a.35.35 0 0 0 .203.301M83.318 742.108l-.2.049" style="fill:none;stroke:red;stroke-width:.999997;stroke-linecap:round;stroke-linejoin:round;stroke-miterlimit:4;stroke-dasharray:none;stroke-opacity:1;visibility:visible" visibility="hidden"/><path d="m546.63 706.236.172-4.31" style="fill:none;stroke:red;stroke-width:1.99999;stroke-linecap:round;stroke-linejoin:round;stroke-miterlimit:4;stroke-dasharray:none;stroke-opacity:1;visibility:visible" visibility="hidden"/><path d="m546.58 701.604-.221-.071" style="fill:none;stroke:red;stroke-width:.999997;stroke-linecap:round;stroke-linejoin:round;stroke-miterlimit:4;stroke-dasharray:none;stroke-opacity:1;visibility:visible" visibility="hidden"/><path d="M546.393 706.536a.333.333 0 0 0 .237-.3" style="fill:none;stroke:red;stroke-width:1.99999;stroke-linecap:round;stroke-linejoin:round;stroke-miterlimit:4;stroke-dasharray:none;stroke-opacity:1;visibility:visible" visibility="hidden"/><path d="M98.018 952.53a.327.327 0 0 0 .272.028" style="fill:none;stroke:red;stroke-width:.999997;stroke-linecap:round;stroke-linejoin:round;stroke-miterlimit:4;stroke-dasharray:none;stroke-opacity:1;visibility:visible" visibility="hidden"/><path d="M92.642 949.251a.325.325 0 0 0 .164.27M92.592 948.048l.052 1.203M103.256 950.934a.34.34 0 0 0 .232-.334M103.486 950.6l-.049-1.205M92.806 949.522l5.212 3.008M98.29 952.558l4.965-1.626" style="fill:none;stroke:red;stroke-width:1.99999;stroke-linecap:round;stroke-linejoin:round;stroke-miterlimit:4;stroke-dasharray:none;stroke-opacity:1;visibility:visible" visibility="hidden"/><path d="M413.956 849.207a.307.307 0 0 0 .207.011" style="fill:none;stroke:red;stroke-width:.999997;stroke-linecap:round;stroke-linejoin:round;stroke-miterlimit:4;stroke-dasharray:none;stroke-opacity:1;visibility:visible" visibility="hidden"/><path d="m408.407 846.846 5.55 2.361M414.162 849.218l3.898-1.279" style="fill:none;stroke:red;stroke-width:1.99999;stroke-linecap:round;stroke-linejoin:round;stroke-miterlimit:4;stroke-dasharray:none;stroke-opacity:1;visibility:visible" visibility="hidden"/><path d="m418.263 847.667.02-1.09" style="fill:none;stroke:red;stroke-width:.999997;stroke-linecap:round;stroke-linejoin:round;stroke-miterlimit:4;stroke-dasharray:none;stroke-opacity:1;visibility:visible" visibility="hidden"/><path d="M408.228 846.571a.293.293 0 0 0 .179.274M408.246 845.483l-.019 1.088M418.062 847.94a.285.285 0 0 0 .2-.272" style="fill:none;stroke:red;stroke-width:1.99999;stroke-linecap:round;stroke-linejoin:round;stroke-miterlimit:4;stroke-dasharray:none;stroke-opacity:1;visibility:visible" visibility="hidden"/><path d="M533.595 900.114a.332.332 0 0 0 .232.008" style="fill:none;stroke:red;stroke-width:.999997;stroke-linecap:round;stroke-linejoin:round;stroke-miterlimit:4;stroke-dasharray:none;stroke-opacity:1;visibility:visible" visibility="hidden"/><path d="M527.128 897.145a.313.313 0 0 0 .193.3M527.172 895.997l-.044 1.148M537.77 898.678a.312.312 0 0 0 .204-.279M537.973 898.4l.047-1.146M527.321 897.445l6.274 2.669M533.827 900.12l3.943-1.441" style="fill:none;stroke:red;stroke-width:1.99999;stroke-linecap:round;stroke-linejoin:round;stroke-miterlimit:4;stroke-dasharray:none;stroke-opacity:1;visibility:visible" visibility="hidden"/><path d="M211.367 1017.93a.37.37 0 0 0 .3.029" style="fill:none;stroke:red;stroke-width:.999997;stroke-linecap:round;stroke-linejoin:round;stroke-miterlimit:4;stroke-dasharray:none;stroke-opacity:1;visibility:visible" visibility="hidden"/><path d="m528.233 868.249-1.061 27.748M538.019 897.251l7.669-190.518M204.147 966.14 101.86 910.026M96.88 920.749l107.55 59.918M528.725 855.39 418.93 811.015M414.652 820.513l113.605 46.593M526.625 712.156l7.48 2.486M90.19 759.628l110.527 50.44M205.2 1014.174a.348.348 0 0 0 .174.3M205.173 1012.896l.027 1.276M216.773 1016.087a.354.354 0 0 0 .234-.344M217.007 1015.743l-.025-1.279M205.377 1014.472l5.99 3.459M211.666 1017.956l5.107-1.869" style="fill:none;stroke:red;stroke-width:1.99999;stroke-linecap:round;stroke-linejoin:round;stroke-miterlimit:4;stroke-dasharray:none;stroke-opacity:1;visibility:visible" visibility="hidden"/><path d="m528.625 858.03-.39 10.219" style="fill:none;stroke:red;stroke-width:.999997;stroke-linecap:round;stroke-linejoin:round;stroke-miterlimit:4;stroke-dasharray:none;stroke-opacity:1;visibility:visible" visibility="hidden"/><path d="m534.105 714.642-5.481 143.388" style="fill:none;stroke:red;stroke-width:1.99999;stroke-linecap:round;stroke-linejoin:round;stroke-miterlimit:4;stroke-dasharray:none;stroke-opacity:1;visibility:visible" visibility="hidden"/><path d="m534.285 709.976-.178 4.666" style="fill:none;stroke:red;stroke-width:.999997;stroke-linecap:round;stroke-linejoin:round;stroke-miterlimit:4;stroke-dasharray:none;stroke-opacity:1;visibility:visible" visibility="hidden"/><path d="m204.482 981.355.692 31.541M216.983 1014.464l-4.192-213.082" style="fill:none;stroke:red;stroke-width:1.99999;stroke-linecap:round;stroke-linejoin:round;stroke-miterlimit:4;stroke-dasharray:none;stroke-opacity:1;visibility:visible" visibility="hidden"/><path d="m204.24 970.26.241 11.094" style="fill:none;stroke:red;stroke-width:.999997;stroke-linecap:round;stroke-linejoin:round;stroke-miterlimit:4;stroke-dasharray:none;stroke-opacity:1;visibility:visible" visibility="hidden"/><path d="m200.73 810.067 3.51 160.193" style="fill:none;stroke:red;stroke-width:1.99999;stroke-linecap:round;stroke-linejoin:round;stroke-miterlimit:4;stroke-dasharray:none;stroke-opacity:1;visibility:visible" visibility="hidden"/><path d="m200.513 800.174.217 9.893" style="fill:none;stroke:red;stroke-width:.999997;stroke-linecap:round;stroke-linejoin:round;stroke-miterlimit:4;stroke-dasharray:none;stroke-opacity:1;visibility:visible" visibility="hidden"/><path d="m84.036 747.7 8.556 200.348M101.836 910.017l-6.014-147.823M103.437 949.394l-1.04-25.576M408.64 820.887l-.394 24.596M409.852 745.353l-1.036 64.593M418.919 811.01l1.227-68.584M418.283 846.577l.436-24.397M202.133 874.115l-100.488 31.198M408.8 809.947l-194.65 60.438M214.378 882.06l198.062-62.37M110.502 914.77l91.888-28.937M82.134 714.441l1.187 27.752M211.423 796.095l-.59-29.622M546.355 701.604l1.062-26.315" style="fill:none;stroke:red;stroke-width:1.99999;stroke-linecap:round;stroke-linejoin:round;stroke-miterlimit:4;stroke-dasharray:none;stroke-opacity:1;visibility:visible" visibility="hidden"/><path d="M101.86 910.027a.23.23 0 0 0-.176-.01M101.684 910.017l-5.007 1.562M96.677 911.58a.404.404 0 0 0-.265.392M418.93 811.014a.132.132 0 0 0-.103-.003M414.546 820.307a.201.201 0 0 0 .106.206M418.826 811.013l-3.924 1.224M414.9 812.235a.373.373 0 0 0-.222.345M90.046 759.39a.261.261 0 0 0 .144.238M89.67 750.238l-.003.058M200.366 800.169l.004-.063M205.245 1012.99l5.992 3.455M211.734 1016.464l5.11-1.866M216.843 1014.598l.051-.024.041-.026.03-.03.015-.029.003-.025M211.235 1016.443a.672.672 0 0 0 .5.021M527.172 895.997l.007.028.018.024.03.024.04.017M527.267 896.09l6.276 2.667M533.987 898.773l3.943-1.44M537.932 897.333a.108.108 0 0 0 .088-.083M533.543 898.757a.685.685 0 0 0 .444.016M408.246 845.483a.097.097 0 0 0 .076.074M408.323 845.557l5.55 2.36M413.872 847.915a.672.672 0 0 0 .416.015M414.288 847.929l3.9-1.271M418.188 846.658l.039-.019.028-.014.019-.022.008-.021M92.648 948.118l5.214 3.005M97.861 951.123a.644.644 0 0 0 .463.019M98.324 951.142l4.968-1.626M103.292 949.516l.05-.018.042-.023.03-.027.018-.025.005-.027M387.858 746.14a.163.163 0 0 1-.011.028l-.023.018-.036.022-.045.017M383.65 747.226l-42.676-16.081M383.65 747.226a.92.92 0 0 0 .488.014" style="fill:none;stroke:red;stroke-width:.999997;stroke-linecap:round;stroke-linejoin:round;stroke-miterlimit:4;stroke-dasharray:none;stroke-opacity:1;visibility:visible" visibility="hidden"/><path d="m418.283 846.577-.01.028-.017.018-.029.017-.039.018M408.895 809.955a.14.14 0 0 0-.093-.008M412.439 819.689a.196.196 0 0 0 .11-.2M408.895 809.955l3.588 1.456M412.68 811.77l-.131 7.72M412.679 811.77a.392.392 0 0 0-.195-.36M527.267 896.09l-.04-.02-.03-.02-.017-.025-.008-.023" style="fill:none;stroke:red;stroke-width:.999997;stroke-linecap:round;stroke-linejoin:round;stroke-miterlimit:4;stroke-dasharray:none;stroke-opacity:1;visibility:visible" visibility="hidden"/><path d="m86.956 713.189 325.534-77.937" style="fill:none;stroke:red;stroke-width:1.99999;stroke-linecap:round;stroke-linejoin:round;stroke-miterlimit:4;stroke-dasharray:none;stroke-opacity:1;visibility:visible" visibility="hidden"/><path d="m90.29 714.445 325.488-78.166" style="fill:none;stroke:red;stroke-width:.666665;stroke-linecap:round;stroke-linejoin:round;stroke-miterlimit:4;stroke-dasharray:none;stroke-opacity:1;visibility:visible" visibility="hidden"/><path d="m415.778 636.279-.115 5.621" style="fill:none;stroke:red;stroke-width:.999997;stroke-linecap:round;stroke-linejoin:round;stroke-miterlimit:4;stroke-dasharray:none;stroke-opacity:1;visibility:visible" visibility="hidden"/><path d="m547.325 675.352.039-.014.03-.014.017-.019.006-.019-.007-.016-.02-.02-.03-.016-.043-.016M416.204 634.409l14.139 4.402M416.203 634.41a.973.973 0 0 0-.43-.012" style="fill:none;stroke:red;stroke-width:1.99999;stroke-linecap:round;stroke-linejoin:round;stroke-miterlimit:4;stroke-dasharray:none;stroke-opacity:1;visibility:visible" visibility="hidden"/><path d="m412.612 635.27 14.134 4.416" style="fill:none;stroke:red;stroke-width:.666665;stroke-linecap:round;stroke-linejoin:round;stroke-miterlimit:4;stroke-dasharray:none;stroke-opacity:1;visibility:visible" visibility="hidden"/><path d="m412.631 635.153-.04.01-.03.017-.019.012-.009.016.003.019.015.013.025.017.036.014" style="fill:none;stroke:red;stroke-width:.999997;stroke-linecap:round;stroke-linejoin:round;stroke-miterlimit:4;stroke-dasharray:none;stroke-opacity:1;visibility:visible" visibility="hidden"/><path d="m415.772 634.399-3.141.754" style="fill:none;stroke:red;stroke-width:1.99999;stroke-linecap:round;stroke-linejoin:round;stroke-miterlimit:4;stroke-dasharray:none;stroke-opacity:1;visibility:visible" visibility="hidden"/><path d="M86.813 713.39a.89.89 0 0 0-.48-.013M206.609 797.358a.861.861 0 0 0 .518.016M546.355 701.604l-.005.018-.017.015-.029.019-.04.013M542.639 702.548l-42.063-13.694" style="fill:none;stroke:red;stroke-width:.999997;stroke-linecap:round;stroke-linejoin:round;stroke-miterlimit:4;stroke-dasharray:none;stroke-opacity:1;visibility:visible" visibility="hidden"/><path d="m86.813 713.39 16.153 6.912" style="fill:none;stroke:red;stroke-width:1.99999;stroke-linecap:round;stroke-linejoin:round;stroke-miterlimit:4;stroke-dasharray:none;stroke-opacity:1;visibility:visible" visibility="hidden"/><path d="m82.193 714.5 20.959 9.005" style="fill:none;stroke:red;stroke-width:.999997;stroke-linecap:round;stroke-linejoin:round;stroke-miterlimit:4;stroke-dasharray:none;stroke-opacity:1;visibility:visible" visibility="hidden"/><path d="m86.333 713.377-4.043.97M82.29 714.346l-.053.016-.043.018-.033.02-.02.022-.007.018.007.02.019.024.033.016" style="fill:none;stroke:red;stroke-width:1.99999;stroke-linecap:round;stroke-linejoin:round;stroke-miterlimit:4;stroke-dasharray:none;stroke-opacity:1;visibility:visible" visibility="hidden"/><path d="M83.322 742.194a.077.077 0 0 0 .06.058M206.609 797.358l-123.23-55.106M103.085 723.312a.083.083 0 0 0 .061.06M103.242 718.312l-.038-.008h-.034M102.902 718.658a.09.09 0 0 0 .062.06M103.146 723.372a.273.273 0 0 0 .152.248M103.242 718.312l102.85 43.82M103.242 718.312a.407.407 0 0 0-.278.406M206.093 762.132l341.254-91.766M206.213 767.476l-.104-4.912" style="fill:none;stroke:red;stroke-width:.999997;stroke-linecap:round;stroke-linejoin:round;stroke-miterlimit:4;stroke-dasharray:none;stroke-opacity:1;visibility:visible" visibility="hidden"/><path d="M439.079 636.735a.133.133 0 0 0-.085-.003M547.433 670.366a.121.121 0 0 0-.086 0M438.915 636.73l.035-.007.044.009" style="fill:none;stroke:red;stroke-width:1.99999;stroke-linecap:round;stroke-linejoin:round;stroke-miterlimit:4;stroke-dasharray:none;stroke-opacity:1;visibility:visible" visibility="hidden"/><path d="m97.861 951.123-8.39-200.975M413.872 847.915l1.782-104.207M202.203 877.374l-100.422 31.303M412.679 811.77l-198.465 61.861M211.235 1016.443l-4.433-213.437M533.543 898.757l7.521-190.708M204.12 971.4 96.41 911.974M528.465 858.77l-113.787-46.19M211.262 1017.722l-.027-1.28M533.497 899.907l.046-1.15M413.852 849.006l.019-1.09M97.912 952.332l-.05-1.208M546.58 701.604a.252.252 0 0 0-.09 0M83.05 747.049a.075.075 0 0 0 .058.057M83.188 742.166l-.038-.01-.033.002M82.857 742.508a.08.08 0 0 0 .057.057M83.11 747.106a.273.273 0 0 0 .143.244M546.49 701.604l-.132-.042M83.32 742.132l-.13.033M83.188 742.166a.397.397 0 0 0-.274.399M206.831 797.457l339.66-95.855M206.893 802.747l-.103-4.857M383.65 747.226l.313-27.705M206.609 797.358l-.616-29.666M542.639 702.548l1.045-26.348" style="fill:none;stroke:red;stroke-width:.999997;stroke-linecap:round;stroke-linejoin:round;stroke-miterlimit:4;stroke-dasharray:none;stroke-opacity:1;visibility:visible" visibility="hidden"/><path d="m101.86 910.027-4.98 10.722M542.639 702.548l-16.014 9.608" style="fill:none;stroke:red;stroke-width:1.99999;stroke-linecap:round;stroke-linejoin:round;stroke-miterlimit:4;stroke-dasharray:none;stroke-opacity:1;visibility:visible" visibility="hidden"/><path d="m542.639 702.548-8.354 7.428" style="fill:none;stroke:red;stroke-width:.999997;stroke-linecap:round;stroke-linejoin:round;stroke-miterlimit:4;stroke-dasharray:none;stroke-opacity:1;visibility:visible" visibility="hidden"/><path d="m83.05 747.048 12.772 15.146M96.412 911.972l5.985 11.846M412.549 819.49l-3.909 1.397M412.549 819.49l6.17 2.69M214.214 873.631l-12.081.484M101.684 910.017l-.039-4.704M202.133 874.115l12.017-3.73M202.39 885.833l11.988-3.773M101.684 910.017l8.818 4.753M214.378 882.06l-11.988 3.773M206.79 797.89l4.633-1.795" style="fill:none;stroke:red;stroke-width:1.99999;stroke-linecap:round;stroke-linejoin:round;stroke-miterlimit:4;stroke-dasharray:none;stroke-opacity:1;visibility:visible" visibility="hidden"/><path d="m86.333 713.377 3.957 1.068" style="fill:none;stroke:red;stroke-width:.666665;stroke-linecap:round;stroke-linejoin:round;stroke-miterlimit:4;stroke-dasharray:none;stroke-opacity:1;visibility:visible" visibility="hidden"/><path d="m439.078 636.733-8.735 2.078" style="fill:none;stroke:red;stroke-width:1.99999;stroke-linecap:round;stroke-linejoin:round;stroke-miterlimit:4;stroke-dasharray:none;stroke-opacity:1;visibility:visible" visibility="hidden"/><path d="m416.204 634.409 10.542 5.277" style="fill:none;stroke:red;stroke-width:.666665;stroke-linecap:round;stroke-linejoin:round;stroke-miterlimit:4;stroke-dasharray:none;stroke-opacity:1;visibility:visible" visibility="hidden"/><path d="m103.242 718.312-.276 1.99" style="fill:none;stroke:red;stroke-width:1.99999;stroke-linecap:round;stroke-linejoin:round;stroke-miterlimit:4;stroke-dasharray:none;stroke-opacity:1;visibility:visible" visibility="hidden"/><path d="m214.214 873.631-12.011 3.743M101.684 910.017l.097-1.34M202.133 874.115l12.081-.484" style="fill:none;stroke:red;stroke-width:.999997;stroke-linecap:round;stroke-linejoin:round;stroke-miterlimit:4;stroke-dasharray:none;stroke-opacity:1;visibility:visible" visibility="hidden"/><path d="M77.086 623.979a.348.348 0 0 0-.274.356" style="fill:none;stroke:#00ff4a;stroke-width:.999997;stroke-linecap:round;stroke-linejoin:round;stroke-miterlimit:4;stroke-dasharray:none;stroke-opacity:1;visibility:visible"/><path d="M307.295 574.883a17.261 17.261 0 0 0-6.554 4.457M292.462 584.303a16.301 16.301 0 0 0 8.28-4.963M292.462 584.303l-71.772 15.481M204.686 596.768a.24.24 0 0 1-.046.005M209.573 597.38l2.81.95 3.283 1.54M78.473 662.742a.35.35 0 0 0 .219.308M78.692 663.05l2.705 1.105M156.682 647.052l199.174-45.42M366.22 599.265l51.354-11.71M81.606 664.172l69.632-15.88M81.397 664.156a.355.355 0 0 0 .21.016M204.64 596.775 77.084 623.98M76.812 624.333l1.661 38.41" style="fill:none;stroke:#00ff4a;stroke-width:1.99999;stroke-linecap:round;stroke-linejoin:round;stroke-miterlimit:4;stroke-dasharray:none;stroke-opacity:1;visibility:visible"/><path d="m307.338 574.872-.043.01" style="fill:none;stroke:#00ff4a;stroke-width:.999997;stroke-linecap:round;stroke-linejoin:round;stroke-miterlimit:4;stroke-dasharray:none;stroke-opacity:1;visibility:visible"/><path d="M415.256 551.89a.293.293 0 0 0-.144-.001M418.17 552.697l-2.914-.805M417.814 587.257l.58-34.26M418.394 552.997a.307.307 0 0 0-.224-.3M415.111 551.888l-107.774 22.984" style="fill:none;stroke:#00ff4a;stroke-width:1.99999;stroke-linecap:round;stroke-linejoin:round;stroke-miterlimit:4;stroke-dasharray:none;stroke-opacity:1;visibility:visible"/><path d="M417.575 587.555a.308.308 0 0 0 .24-.298" style="fill:none;stroke:#00ff4a;stroke-width:.999997;stroke-linecap:round;stroke-linejoin:round;stroke-miterlimit:4;stroke-dasharray:none;stroke-opacity:1;visibility:visible"/><path d="M215.667 599.87a12.625 12.625 0 0 0 5.088-.083M204.735 596.775l-.04-.006M209.573 597.38a12.333 12.333 0 0 0-4.839-.607" style="fill:none;stroke:#00ff4a;stroke-width:1.99999;stroke-linecap:round;stroke-linejoin:round;stroke-miterlimit:4;stroke-dasharray:none;stroke-opacity:1;visibility:visible"/><path d="m220.755 599.788-.038-.008-.027.003M80.077 625.441l1.644 38.47M79.59 625.43a1.077 1.077 0 0 0 .488.012" style="fill:none;stroke:#00ff4a;stroke-width:.999997;stroke-linecap:round;stroke-linejoin:round;stroke-miterlimit:4;stroke-dasharray:none;stroke-opacity:1;visibility:visible"/><path d="m207.722 598.121-127.644 27.32" style="fill:none;stroke:#00ff4a;stroke-width:.666665;stroke-linecap:round;stroke-linejoin:round;stroke-miterlimit:4;stroke-dasharray:none;stroke-opacity:1;visibility:visible"/><path d="m79.59 625.43-2.72-1.048" style="fill:none;stroke:#00ff4a;stroke-width:.999997;stroke-linecap:round;stroke-linejoin:round;stroke-miterlimit:4;stroke-dasharray:none;stroke-opacity:1;visibility:visible"/><path d="m418.294 553.05-107.82 23.081M310.475 576.13a16.83 16.83 0 0 0-6.433 4.384M295.59 585.581a16.664 16.664 0 0 0 8.452-5.068M295.59 585.581l-71.81 15.544M214.715 599.737a12.435 12.435 0 0 0 9.065 1.388M214.715 599.737a11.95 11.95 0 0 0-6.994-1.614" style="fill:none;stroke:#00ff4a;stroke-width:.666665;stroke-linecap:round;stroke-linejoin:round;stroke-miterlimit:4;stroke-dasharray:none;stroke-opacity:1;visibility:visible"/><path d="m77.15 623.988-.039-.008h-.025M76.812 624.333a.067.067 0 0 0 .057.05" style="fill:none;stroke:#00ff4a;stroke-width:.999997;stroke-linecap:round;stroke-linejoin:round;stroke-miterlimit:4;stroke-dasharray:none;stroke-opacity:1;visibility:visible"/><path d="M204.735 596.775c-.01.002-.02.002-.03.008M204.705 596.781l-.04-.008h-.026M78.473 662.742a.08.08 0 0 0 .059.052" style="fill:none;stroke:#00ff4a;stroke-width:1.99999;stroke-linecap:round;stroke-linejoin:round;stroke-miterlimit:4;stroke-dasharray:none;stroke-opacity:1;visibility:visible"/><path d="m307.338 574.872.027-.003.038.006M307.403 574.875c-.01.002-.02.008-.028.008M307.374 574.883a.132.132 0 0 0-.079 0" style="fill:none;stroke:#00ff4a;stroke-width:.999997;stroke-linecap:round;stroke-linejoin:round;stroke-miterlimit:4;stroke-dasharray:none;stroke-opacity:1;visibility:visible"/><path d="m415.179 551.89.044-.004.033.005M418.394 552.997a.12.12 0 0 1-.01.02l-.018.01-.031.014-.04.009M415.111 551.888l.027-.005.04.007M151.238 648.292l5.444-1.24M366.22 599.265l-10.364 2.367M355.856 601.632l10.364-2.367M156.682 647.052l-5.444 1.24" style="fill:none;stroke:#00ff4a;stroke-width:1.99999;stroke-linecap:round;stroke-linejoin:round;stroke-miterlimit:4;stroke-dasharray:none;stroke-opacity:1;visibility:visible"/></svg>