<svg xmlns="http://www.w3.org/2000/svg" baseProfile="full" height="1122.52" preserveAspectRatio="xMinYMin meet" style="width:914px;height:841px" width="793.701" xml:space="preserve"><path d="M391.658 534.36a.364.364 0 0 0 .305.027" style="fill:none;stroke:red;stroke-width:.999997;stroke-linecap:round;stroke-linejoin:round;stroke-miterlimit:4;stroke-dasharray:none;stroke-opacity:1;visibility:visible" visibility="hidden"/><path d="m391.963 534.384 5.303-1.893M390.773 533.856l.885.501" style="fill:none;stroke:red;stroke-width:1.99999;stroke-linecap:round;stroke-linejoin:round;stroke-miterlimit:4;stroke-dasharray:none;stroke-opacity:1;visibility:visible" visibility="hidden"/><path d="M397.322 522.815a.373.373 0 0 0-.192-.315" style="fill:none;stroke:red;stroke-width:.999997;stroke-linecap:round;stroke-linejoin:round;stroke-miterlimit:4;stroke-dasharray:none;stroke-opacity:1;visibility:visible" visibility="hidden"/><path d="m397.512 532.131-.19-9.319M397.134 522.498l-.892-.495M397.266 532.492a.375.375 0 0 0 .246-.36" style="fill:none;stroke:red;stroke-width:1.99999;stroke-linecap:round;stroke-linejoin:round;stroke-miterlimit:4;stroke-dasharray:none;stroke-opacity:1;visibility:visible" visibility="hidden"/><path d="M722.772 416.202a.324.324 0 0 0 .232.002" style="fill:none;stroke:red;stroke-width:.999997;stroke-linecap:round;stroke-linejoin:round;stroke-miterlimit:4;stroke-dasharray:none;stroke-opacity:1;visibility:visible" visibility="hidden"/><path d="m723.005 416.204 4.01-1.43M721.84 415.82l.93.38" style="fill:none;stroke:red;stroke-width:1.99999;stroke-linecap:round;stroke-linejoin:round;stroke-miterlimit:4;stroke-dasharray:none;stroke-opacity:1;visibility:visible" visibility="hidden"/><path d="M727.585 406.196a.33.33 0 0 0-.201-.314" style="fill:none;stroke:red;stroke-width:.999997;stroke-linecap:round;stroke-linejoin:round;stroke-miterlimit:4;stroke-dasharray:none;stroke-opacity:1;visibility:visible" visibility="hidden"/><path d="m727.226 414.49.361-8.295M727.386 405.88l-.933-.372M727.012 414.775a.316.316 0 0 0 .212-.283M281.376 458.118l78.812-24.692M372.276 429.641l216.68-67.884M583.225 353.889l-211.207 65.296M359.907 422.929l-91.141 28.177M385.06 515.784 698.617 406.44M692.264 397.993 371.582 508.29M589.028 361.702l95.55 38.933M698.69 406.388l23.148 9.433M726.453 405.508 587.451 349.74M260.01 459.916l130.761 73.94M396.242 522.003 265.068 449.05" style="fill:none;stroke:red;stroke-width:1.99999;stroke-linecap:round;stroke-linejoin:round;stroke-miterlimit:4;stroke-dasharray:none;stroke-opacity:1;visibility:visible" visibility="hidden"/><path d="M390.744 523.868a.483.483 0 0 0-.293.44M390.659 533.638l-.205-9.332M390.745 523.866l5.308-1.873" style="fill:none;stroke:red;stroke-width:.666665;stroke-linecap:round;stroke-linejoin:round;stroke-miterlimit:4;stroke-dasharray:none;stroke-opacity:1;visibility:visible" visibility="hidden"/><path d="M396.242 522.004a.233.233 0 0 0-.19-.01M390.658 533.639a.245.245 0 0 0 .114.218" style="fill:none;stroke:red;stroke-width:.999997;stroke-linecap:round;stroke-linejoin:round;stroke-miterlimit:4;stroke-dasharray:none;stroke-opacity:1;visibility:visible" visibility="hidden"/><path d="M722.332 406.926a.432.432 0 0 0-.242.374M721.739 415.603l.355-8.305M722.333 406.924l4.013-1.416" style="fill:none;stroke:red;stroke-width:.666665;stroke-linecap:round;stroke-linejoin:round;stroke-miterlimit:4;stroke-dasharray:none;stroke-opacity:1;visibility:visible" visibility="hidden"/><path d="M589.153 356.535a.387.387 0 0 0-.197-.361M589.155 356.535l-.083 5.021M562.855 367.943l-.044.396-.123.393-.193.364-.245.311-.29.237-.305.147-.307.047-.284-.059-.24-.159-.189-.248-.115-.318-.032-.371.043-.396.123-.395.189-.364.253-.31.286-.235.305-.15.308-.043.28.057.245.159.186.248.116.32.033.369M307.112 447.85l-.032.43-.135.435-.216.407-.292.35-.344.27-.374.173-.378.063-.357-.05-.31-.162-.247-.263-.158-.344-.07-.402.038-.434.128-.433.219-.408.296-.35.341-.271.376-.172.376-.06.36.05.311.163.244.26.159.345.065.403M441.536 405.847l-.037.416-.127.41-.203.387-.272.328-.312.254-.338.156-.34.056-.316-.056-.276-.16-.211-.256-.137-.33-.047-.385.039-.415.129-.412.199-.385.273-.33.313-.253.34-.16.336-.05.322.053.274.161.208.255.139.33.044.386M583.317 353.893l5.639 2.28M698.944 400.954a.419.419 0 0 0-.216-.386" style="fill:none;stroke:red;stroke-width:.999997;stroke-linecap:round;stroke-linejoin:round;stroke-miterlimit:4;stroke-dasharray:none;stroke-opacity:1;visibility:visible" visibility="hidden"/><path d="M441.012 405.798a.937.937 0 0 0-.43-.864M583.316 353.895a.121.121 0 0 0-.092-.004M588.955 361.76a.196.196 0 0 0 .114-.204M698.945 400.952l-.207 5.281M692.378 398l6.35 2.567M583.381 350.96a.377.377 0 0 0-.226.346M692.377 398.002a.167.167 0 0 0-.117-.008M698.614 406.442a.2.2 0 0 0 .122-.206" style="fill:none;stroke:red;stroke-width:.999997;stroke-linecap:round;stroke-linejoin:round;stroke-miterlimit:4;stroke-dasharray:none;stroke-opacity:1;visibility:visible" visibility="hidden"/><path d="m583.156 351.305-.04 2.616M587.345 349.738l-3.964 1.22" style="fill:none;stroke:red;stroke-width:1.99999;stroke-linecap:round;stroke-linejoin:round;stroke-miterlimit:4;stroke-dasharray:none;stroke-opacity:1;visibility:visible" visibility="hidden"/><path d="m587.804 352.456-3.827-1.539M583.978 350.918l-.305.093M583.671 351.011l3.824 1.54M587.496 352.551l.307-.095M587.15 349.939l3.828 1.536M590.978 351.475l.305-.093M587.457 349.847l-.307.092M698.554 397.046l-4.31-1.736M694.243 395.31l-.312.107M693.93 395.417l4.31 1.737M698.242 397.154l.31-.108M697.45 394.212l4.31 1.73M701.762 395.941l.308-.107M697.76 394.103l-.31.11M587.453 350.062l.004-.215M697.75 394.333l.01-.23M587.45 349.742a.15.15 0 0 0-.107-.002M694.235 395.539l.008-.228M583.976 351.136l.001-.219M259.757 450.616a.407.407 0 0 0-.27.399" style="fill:none;stroke:red;stroke-width:.999997;stroke-linecap:round;stroke-linejoin:round;stroke-miterlimit:4;stroke-dasharray:none;stroke-opacity:1;visibility:visible" visibility="hidden"/><path d="m259.487 451.013.408 8.695M264.885 449.036l-5.13 1.58" style="fill:none;stroke:red;stroke-width:1.99999;stroke-linecap:round;stroke-linejoin:round;stroke-miterlimit:4;stroke-dasharray:none;stroke-opacity:1;visibility:visible" visibility="hidden"/><path d="m264.027 452.556-3.57-1.995M260.459 450.562l-.399.121M260.06 450.683l3.57 1.996M263.63 452.679l.397-.123M264.563 449.295l3.572 1.99M268.134 451.286l.399-.124M264.961 449.174l-.399.121M368.277 510.823l-4.092-2.287M364.185 508.536l-.413.143M363.773 508.679l4.093 2.287M367.869 510.966l.41-.143M368.407 507.088l4.093 2.28M372.503 509.367l.413-.141M368.815 506.948l-.41.14" style="fill:none;stroke:red;stroke-width:.999997;stroke-linecap:round;stroke-linejoin:round;stroke-miterlimit:4;stroke-dasharray:none;stroke-opacity:1;visibility:visible" visibility="hidden"/><path d="M259.894 459.71c0 .085.04.162.116.208" style="fill:none;stroke:red;stroke-width:1.99999;stroke-linecap:round;stroke-linejoin:round;stroke-miterlimit:4;stroke-dasharray:none;stroke-opacity:1;visibility:visible" visibility="hidden"/><path d="m368.828 507.322-.013-.375M265.066 449.051a.232.232 0 0 0-.184-.013M364.198 508.913l-.015-.377" style="fill:none;stroke:red;stroke-width:.999997;stroke-linecap:round;stroke-linejoin:round;stroke-miterlimit:4;stroke-dasharray:none;stroke-opacity:1;visibility:visible" visibility="hidden"/><path d="M391.346 524.803a.692.692 0 0 0 .516.02M391.862 524.822l.199 9.337M397.174 522.947l-5.312 1.875M391.346 524.802l-.893-.496" style="fill:none;stroke:red;stroke-width:.666665;stroke-linecap:round;stroke-linejoin:round;stroke-miterlimit:4;stroke-dasharray:none;stroke-opacity:1;visibility:visible" visibility="hidden"/><path d="M397.172 522.948a.178.178 0 0 0 .148-.135" style="fill:none;stroke:red;stroke-width:.999997;stroke-linecap:round;stroke-linejoin:round;stroke-miterlimit:4;stroke-dasharray:none;stroke-opacity:1;visibility:visible" visibility="hidden"/><path d="M723.025 407.678a.744.744 0 0 0 .457.014M723.484 407.69l-.359 8.308M727.5 406.272l-4.017 1.419M723.027 407.676l-.933-.377" style="fill:none;stroke:red;stroke-width:.666665;stroke-linecap:round;stroke-linejoin:round;stroke-miterlimit:4;stroke-dasharray:none;stroke-opacity:1;visibility:visible" visibility="hidden"/><path d="m589.155 356.535-217.02 67.51M360.04 427.808l-85.396 26.565M698.729 400.567 377.683 511.679M722.093 407.299l-138.937-55.993M390.453 524.306l-130.968-73.292" style="fill:none;stroke:red;stroke-width:.999997;stroke-linecap:round;stroke-linejoin:round;stroke-miterlimit:4;stroke-dasharray:none;stroke-opacity:1;visibility:visible" visibility="hidden"/><path d="m268.533 451.162 12.843 6.956M372.276 429.641l-12.088 3.785M360.04 427.808l12.236 1.833M359.907 422.929l12.11-3.744M372.136 424.044l-12.229-1.115M390.744 523.868l-5.684-8.084M372.916 509.226l-1.334-.936M692.378 398l-7.8 2.635" style="fill:none;stroke:red;stroke-width:1.99999;stroke-linecap:round;stroke-linejoin:round;stroke-miterlimit:4;stroke-dasharray:none;stroke-opacity:1;visibility:visible" visibility="hidden"/><path d="m359.907 422.929 12.229 1.115M372.276 429.641l-12.236-1.833M268.533 451.162l6.111 3.211M372.916 509.226l4.767 2.453" style="fill:none;stroke:red;stroke-width:.999997;stroke-linecap:round;stroke-linejoin:round;stroke-miterlimit:4;stroke-dasharray:none;stroke-opacity:1;visibility:visible" visibility="hidden"/><path d="M228.255 473.434v-78.038h-65.197" style="fill:none;stroke:#00ff4a;stroke-width:.999997;stroke-linecap:butt;stroke-linejoin:miter;stroke-miterlimit:4;stroke-dasharray:none;stroke-opacity:1;visibility:visible" visibility="hidden"/><path d="M386.548 294.353a.387.387 0 0 0 .248.017" style="fill:none;stroke:#00ff4a;stroke-width:.999997;stroke-linecap:round;stroke-linejoin:round;stroke-miterlimit:4;stroke-dasharray:none;stroke-opacity:1;visibility:visible" visibility="hidden"/><path d="m386.797 294.368 5.564-1.457M385.622 293.963l.925.387" style="fill:none;stroke:#00ff4a;stroke-width:1.99999;stroke-linecap:round;stroke-linejoin:round;stroke-miterlimit:4;stroke-dasharray:none;stroke-opacity:1;visibility:visible" visibility="hidden"/><path d="M392.439 282.307a.388.388 0 0 0-.241-.35" style="fill:none;stroke:#00ff4a;stroke-width:.999997;stroke-linecap:round;stroke-linejoin:round;stroke-miterlimit:4;stroke-dasharray:none;stroke-opacity:1;visibility:visible" visibility="hidden"/><path d="m392.648 292.53-.208-10.225M392.2 281.954l-.93-.38M392.359 292.913a.387.387 0 0 0 .288-.38M268.973 413.617l-7.572-170.91M249.612 237.363l8.195 174.988M373.25 468.971l-4.513-182.048M356.073 281.756l5.043 185.748M363.126 284.585l22.496 9.379" style="fill:none;stroke:#00ff4a;stroke-width:1.99999;stroke-linecap:round;stroke-linejoin:round;stroke-miterlimit:4;stroke-dasharray:none;stroke-opacity:1;visibility:visible" visibility="hidden"/><path d="m355.23 281.291 7.896 3.293" style="fill:none;stroke:#00ff4a;stroke-width:.999997;stroke-linecap:round;stroke-linejoin:round;stroke-miterlimit:4;stroke-dasharray:none;stroke-opacity:1;visibility:visible" visibility="hidden"/><path d="m256.149 239.977 99.082 41.313" style="fill:none;stroke:#00ff4a;stroke-width:1.99999;stroke-linecap:round;stroke-linejoin:round;stroke-miterlimit:4;stroke-dasharray:none;stroke-opacity:1;visibility:visible" visibility="hidden"/><path d="m249.624 237.257 6.525 2.721" style="fill:none;stroke:#00ff4a;stroke-width:.999997;stroke-linecap:round;stroke-linejoin:round;stroke-miterlimit:4;stroke-dasharray:none;stroke-opacity:1;visibility:visible" visibility="hidden"/><path d="m391.27 281.574-136.446-55.639" style="fill:none;stroke:#00ff4a;stroke-width:1.99999;stroke-linecap:round;stroke-linejoin:round;stroke-miterlimit:4;stroke-dasharray:none;stroke-opacity:1;visibility:visible" visibility="hidden"/><path d="M385.542 283.002a.46.46 0 0 0-.306.448M385.46 293.69l-.221-10.243M385.543 283l5.572-1.432" style="fill:none;stroke:#00ff4a;stroke-width:.666665;stroke-linecap:round;stroke-linejoin:round;stroke-miterlimit:4;stroke-dasharray:none;stroke-opacity:1;visibility:visible" visibility="hidden"/><path d="M263.16 415.248a.707.707 0 0 0 .479.016M391.268 281.575a.265.265 0 0 0-.154-.005" style="fill:none;stroke:#00ff4a;stroke-width:.999997;stroke-linecap:round;stroke-linejoin:round;stroke-miterlimit:4;stroke-dasharray:none;stroke-opacity:1;visibility:visible" visibility="hidden"/><path d="m268.82 413.735-5.179 1.528" style="fill:none;stroke:#00ff4a;stroke-width:1.99999;stroke-linecap:round;stroke-linejoin:round;stroke-miterlimit:4;stroke-dasharray:none;stroke-opacity:1;visibility:visible" visibility="hidden"/><path d="m260.367 269.874-.077-.44-.172-.387-.264-.305-.335-.201-.383-.086-.408.036-.397.158-.372.266-.308.355-.23.425-.138.46-.03.468.073.444.174.386.266.304.333.201.385.084.407-.037.399-.158.368-.265.306-.356.234-.424.137-.459.032-.469M265.557 385.029l-.072-.42-.17-.363-.258-.278-.325-.179-.372-.065-.398.054-.389.168-.36.274-.304.357-.227.419-.133.446-.033.451.07.419.17.362.26.28.329.178.373.065.396-.056.391-.17.357-.271.306-.356.222-.416.138-.45.029-.449" style="fill:none;stroke:#00ff4a;stroke-width:.999997;stroke-linecap:round;stroke-linejoin:round;stroke-miterlimit:4;stroke-dasharray:none;stroke-opacity:1;visibility:visible" visibility="hidden"/><path d="m263.162 415.247-5.3-2.828" style="fill:none;stroke:#00ff4a;stroke-width:1.99999;stroke-linecap:round;stroke-linejoin:round;stroke-miterlimit:4;stroke-dasharray:none;stroke-opacity:1;visibility:visible" visibility="hidden"/><path d="m268.82 413.735.052-.02.039-.02.034-.021.02-.027.007-.024M257.495 269.706l2.139.936M257.807 412.354c.003.03.028.056.056.068" style="fill:none;stroke:#00ff4a;stroke-width:.999997;stroke-linecap:round;stroke-linejoin:round;stroke-miterlimit:4;stroke-dasharray:none;stroke-opacity:1;visibility:visible" visibility="hidden"/><path d="m367.034 479.269-3.901-2.103M362.901 468.505l.232 8.661M367.813 475.618l3.903 2.096M367.034 479.269l.415-.137M367.448 479.131l-.217-8.317M372.125 477.578l-.412.136M371.927 469.484l.196 8.095M263.19 423.26l-3.403-1.835M259.407 413.244l.383 8.181M264.332 420.074l3.408 1.83M263.19 423.26l.403-.121M263.593 423.14l-.361-7.865M268.14 421.784l-.403.119M267.792 414.039l.35 7.745" style="fill:none;stroke:#00ff4a;stroke-width:1.33333;stroke-linecap:round;stroke-linejoin:round;stroke-miterlimit:4;stroke-dasharray:none;stroke-opacity:1;visibility:visible" visibility="hidden"/><path d="M367.26 470.832a.733.733 0 0 0 .511.019M356.155 281.678l-.028.013-.03.02-.02.027-.005.023.014.022.024.023.037.017" style="fill:none;stroke:#00ff4a;stroke-width:.999997;stroke-linecap:round;stroke-linejoin:round;stroke-miterlimit:4;stroke-dasharray:none;stroke-opacity:1;visibility:visible" visibility="hidden"/><path d="m367.773 470.849 5.328-1.75M361.19 467.588l6.07 3.243" style="fill:none;stroke:#00ff4a;stroke-width:1.99999;stroke-linecap:round;stroke-linejoin:round;stroke-miterlimit:4;stroke-dasharray:none;stroke-opacity:1;visibility:visible" visibility="hidden"/><path d="M361.116 467.506a.11.11 0 0 0 .074.084M373.1 469.099a.177.177 0 0 0 .147-.127" style="fill:none;stroke:#00ff4a;stroke-width:.999997;stroke-linecap:round;stroke-linejoin:round;stroke-miterlimit:4;stroke-dasharray:none;stroke-opacity:1;visibility:visible" visibility="hidden"/><path d="M249.302 227.125a.4.4 0 0 0-.287.407M249.016 227.53l.445 9.468M254.675 225.925l-5.372 1.197M254.822 225.938a.244.244 0 0 0-.148-.01M249.46 237a.283.283 0 0 0 .164.258" style="fill:none;stroke:#00ff4a;stroke-width:1.99999;stroke-linecap:round;stroke-linejoin:round;stroke-miterlimit:4;stroke-dasharray:none;stroke-opacity:1;visibility:visible" visibility="hidden"/><path d="M386.166 283.83a1.004 1.004 0 0 0 .544.016M386.71 283.844l.216 10.247M392.285 282.406l-5.576 1.439M386.167 283.828l-.927-.381" style="fill:none;stroke:#00ff4a;stroke-width:.666665;stroke-linecap:round;stroke-linejoin:round;stroke-miterlimit:4;stroke-dasharray:none;stroke-opacity:1;visibility:visible" visibility="hidden"/><path d="m392.44 282.305-.003.017-.025.024-.024.023-.045.021-.058.016M263.64 415.263l-8.028-175.508M367.26 470.83l-4.84-186.39M385.24 283.447 249.016 227.53M227.904 465.08l-51.615 17.532" style="fill:none;stroke:#00ff4a;stroke-width:.999997;stroke-linecap:round;stroke-linejoin:round;stroke-miterlimit:4;stroke-dasharray:none;stroke-opacity:1;visibility:visible" visibility="hidden"/><path d="m228.255 439.65-80.19 27.261M249.461 236.998l11.94 5.709M385.236 283.45l-16.5 3.473" style="fill:none;stroke:#00ff4a;stroke-width:1.99999;stroke-linecap:round;stroke-linejoin:round;stroke-miterlimit:4;stroke-dasharray:none;stroke-opacity:1;visibility:visible" visibility="hidden"/><path d="m361.116 467.504 1.785 1.001M367.034 479.269l.779-3.651M373.25 468.971l-1.323.513M257.807 412.35l1.6.894M263.19 423.26l1.142-3.186M268.973 413.617l-1.181.422" style="fill:none;stroke:#00ff4a;stroke-width:1.33333;stroke-linecap:round;stroke-linejoin:round;stroke-miterlimit:4;stroke-dasharray:none;stroke-opacity:1;visibility:visible" visibility="hidden"/><path d="M731.936 203.936a.3.3 0 0 0 .179.001" style="fill:none;stroke:#9500ff;stroke-width:.999997;stroke-linecap:round;stroke-linejoin:round;stroke-miterlimit:4;stroke-dasharray:none;stroke-opacity:1;visibility:visible"/><path d="m732.118 203.935 4.157-1.085M730.963 203.644l.972.29" style="fill:none;stroke:#9500ff;stroke-width:1.99999;stroke-linecap:round;stroke-linejoin:round;stroke-miterlimit:4;stroke-dasharray:none;stroke-opacity:1;visibility:visible"/><path d="M736.918 193.549a.333.333 0 0 0-.24-.333" style="fill:none;stroke:#9500ff;stroke-width:.999997;stroke-linecap:round;stroke-linejoin:round;stroke-miterlimit:4;stroke-dasharray:none;stroke-opacity:1;visibility:visible"/><path d="m736.524 202.537.396-8.99M736.682 193.214l-.976-.281M736.274 202.852a.339.339 0 0 0 .25-.312M594.106 317.69l2.737-153.778M585.996 160.497l-2.168 156.182M704.807 359.982l6.35-162.205M699.812 194.48l-6.083 164.348M707.831 196.79l23.132 6.855" style="fill:none;stroke:#9500ff;stroke-width:1.99999;stroke-linecap:round;stroke-linejoin:round;stroke-miterlimit:4;stroke-dasharray:none;stroke-opacity:1;visibility:visible"/><path d="m698.897 194.144 8.935 2.645" style="fill:none;stroke:#9500ff;stroke-width:.999997;stroke-linecap:round;stroke-linejoin:round;stroke-miterlimit:4;stroke-dasharray:none;stroke-opacity:1;visibility:visible"/><path d="m593.054 162.787 105.842 31.357" style="fill:none;stroke:#9500ff;stroke-width:1.99999;stroke-linecap:round;stroke-linejoin:round;stroke-miterlimit:4;stroke-dasharray:none;stroke-opacity:1;visibility:visible"/><path d="m586.32 160.791 6.735 1.996" style="fill:none;stroke:#9500ff;stroke-width:.999997;stroke-linecap:round;stroke-linejoin:round;stroke-miterlimit:4;stroke-dasharray:none;stroke-opacity:1;visibility:visible"/><path d="m735.705 192.933-144.972-42.05" style="fill:none;stroke:#9500ff;stroke-width:1.99999;stroke-linecap:round;stroke-linejoin:round;stroke-miterlimit:4;stroke-dasharray:none;stroke-opacity:1;visibility:visible"/><path d="M731.458 194.006a.408.408 0 0 0-.248.382M730.83 203.384l.384-9M731.46 194.004l4.163-1.07" style="fill:none;stroke:#9500ff;stroke-width:.666665;stroke-linecap:round;stroke-linejoin:round;stroke-miterlimit:4;stroke-dasharray:none;stroke-opacity:1;visibility:visible"/><path d="m735.623 192.933.041-.005.042.005" style="fill:none;stroke:#9500ff;stroke-width:.999997;stroke-linecap:round;stroke-linejoin:round;stroke-miterlimit:4;stroke-dasharray:none;stroke-opacity:1;visibility:visible"/><path d="m588.954 326.157-3.65-1.415M585.423 317.33l-.119 7.412M589.302 323.891l3.159 1.22M588.954 326.157l.307-.09M589.263 326.066l.121-7.065M592.77 325.018l-.31.093M592.893 318.092l-.123 6.925M699.31 368.95l-4.105-1.593M695.494 359.552l-.29 7.804M699.712 366.557l3.143 1.215M699.31 368.95l.313-.105M699.626 368.844l.285-7.436M703.171 367.667l-.315.104M703.451 360.473l-.28 7.195" style="fill:none;stroke:#9500ff;stroke-width:1.33333;stroke-linecap:round;stroke-linejoin:round;stroke-miterlimit:4;stroke-dasharray:none;stroke-opacity:1;visibility:visible"/><path d="M589.59 318.931a.76.76 0 0 0 .421.012M586.365 160.804l-.035.013-.018.015-.008.015.002.016.015.016.025.016.039.012" style="fill:none;stroke:#9500ff;stroke-width:.999997;stroke-linecap:round;stroke-linejoin:round;stroke-miterlimit:4;stroke-dasharray:none;stroke-opacity:1;visibility:visible"/><path d="m590.015 318.94 3.99-1.176" style="fill:none;stroke:#9500ff;stroke-width:1.99999;stroke-linecap:round;stroke-linejoin:round;stroke-miterlimit:4;stroke-dasharray:none;stroke-opacity:1;visibility:visible"/><path d="m593.744 189.767.047-.413.128-.406.192-.369.254-.307.288-.222.312-.13.307-.018.28.085.245.192.183.273.11.348.034.396-.047.411-.126.407-.191.365-.255.308-.286.223-.31.129-.306.021-.286-.086-.242-.19-.184-.277-.114-.348-.033-.392M591.966 292.33l.052-.399.12-.394.19-.366.249-.304.285-.232.3-.138.303-.032.28.069.238.17.179.258.11.328.035.376-.048.4-.125.395-.19.364-.245.306-.284.23-.305.137-.303.036-.278-.07-.239-.169-.181-.26-.108-.328-.035-.377" style="fill:none;stroke:#9500ff;stroke-width:.999997;stroke-linecap:round;stroke-linejoin:round;stroke-miterlimit:4;stroke-dasharray:none;stroke-opacity:1;visibility:visible"/><path d="m583.907 316.749 5.684 2.18" style="fill:none;stroke:#9500ff;stroke-width:1.99999;stroke-linecap:round;stroke-linejoin:round;stroke-miterlimit:4;stroke-dasharray:none;stroke-opacity:1;visibility:visible"/><path d="M594.105 317.691a.099.099 0 0 1-.012.024l-.018.022-.03.013-.041.016M583.907 316.749l-.035-.015-.025-.02-.016-.018-.005-.016M700.228 361.37a.753.753 0 0 0 .45.015M706.534 196.514a1.007 1.007 0 0 0 .418.02M699.868 194.431l-.03.017-.02.016-.006.018.007.017.021.019.03.016.04.013" style="fill:none;stroke:#9500ff;stroke-width:.999997;stroke-linecap:round;stroke-linejoin:round;stroke-miterlimit:4;stroke-dasharray:none;stroke-opacity:1;visibility:visible"/><path d="m700.679 361.382 4.035-1.325M693.828 358.913l6.401 2.455" style="fill:none;stroke:#9500ff;stroke-width:1.99999;stroke-linecap:round;stroke-linejoin:round;stroke-miterlimit:4;stroke-dasharray:none;stroke-opacity:1;visibility:visible"/><path d="M704.714 360.06a.115.115 0 0 0 .09-.078M693.828 358.913l-.041-.019-.032-.02-.015-.022-.01-.022" style="fill:none;stroke:#9500ff;stroke-width:.999997;stroke-linecap:round;stroke-linejoin:round;stroke-miterlimit:4;stroke-dasharray:none;stroke-opacity:1;visibility:visible"/><path d="M586.545 151.802a.364.364 0 0 0-.235.351M586.312 152.151l-.136 8.393M590.652 150.881l-4.105.919" style="fill:none;stroke:#9500ff;stroke-width:1.99999;stroke-linecap:round;stroke-linejoin:round;stroke-miterlimit:4;stroke-dasharray:none;stroke-opacity:1;visibility:visible"/><path d="M586.177 160.548a.24.24 0 0 0 .14.246" style="fill:none;stroke:#9500ff;stroke-width:.999997;stroke-linecap:round;stroke-linejoin:round;stroke-miterlimit:4;stroke-dasharray:none;stroke-opacity:1;visibility:visible"/><path d="m590.652 150.881.045-.004.036.005" style="fill:none;stroke:#9500ff;stroke-width:1.99999;stroke-linecap:round;stroke-linejoin:round;stroke-miterlimit:4;stroke-dasharray:none;stroke-opacity:1;visibility:visible"/><path d="M732.19 194.672a1.027 1.027 0 0 0 .472.013M732.666 194.683l-.39 9.001M736.827 193.608l-4.161 1.075M732.192 194.669l-.977-.284" style="fill:none;stroke:#9500ff;stroke-width:.666665;stroke-linecap:round;stroke-linejoin:round;stroke-miterlimit:4;stroke-dasharray:none;stroke-opacity:1;visibility:visible"/><path d="m736.92 193.548-.004.016-.02.017-.028.015-.04.012M592.68 162.675l-2.664 156.265M700.229 361.368l6.305-164.856M731.214 194.385 586.31 152.152" style="fill:none;stroke:#9500ff;stroke-width:.999997;stroke-linecap:round;stroke-linejoin:round;stroke-miterlimit:4;stroke-dasharray:none;stroke-opacity:1;visibility:visible"/><path d="m585.599 185.823 2.7.795M585.599 189.823l2.816.828M586.176 160.544l10.667 3.368" style="fill:none;stroke:#9500ff;stroke-width:1.99999;stroke-linecap:round;stroke-linejoin:round;stroke-miterlimit:4;stroke-dasharray:none;stroke-opacity:1;visibility:visible"/><path d="m583.828 316.68 1.595.65M588.954 326.157l.348-2.266M594.106 317.69l-1.213.402M693.73 358.828l1.764.724M699.31 368.95l.402-2.393M704.807 359.982l-1.356.491" style="fill:none;stroke:#9500ff;stroke-width:1.33333;stroke-linecap:round;stroke-linejoin:round;stroke-miterlimit:4;stroke-dasharray:none;stroke-opacity:1;visibility:visible"/><path d="m588.415 190.651-2.816-4.828M585.599 189.823l2.7-3.205M588.299 186.618l-2.7 3.205M585.599 185.823l2.816 4.828" style="fill:none;stroke:#9500ff;stroke-width:1.99999;stroke-linecap:round;stroke-linejoin:round;stroke-miterlimit:4;stroke-dasharray:none;stroke-opacity:1;visibility:visible"/></svg>