<svg xmlns="http://www.w3.org/2000/svg" baseProfile="full" height="1122.52" preserveAspectRatio="xMinYMin meet" style="width:914px;height:841px" width="793.701" xml:space="preserve"><path d="M372.568 1029.074a.348.348 0 0 0 .336.034" style="fill:none;stroke:red;stroke-width:.999997;stroke-linecap:round;stroke-linejoin:round;stroke-miterlimit:4;stroke-dasharray:none;stroke-opacity:1;visibility:visible"/><path d="m372.905 1029.109 325.14-139.656M274.348 963.054l98.221 66.02M273.984 958.718l.216 4.077M274.2 962.795a.336.336 0 0 0 .144.259M698.234 889.184l.179-2.825M698.045 889.454a.31.31 0 0 0 .188-.268M546.177 949.79l.368-22.468" style="fill:none;stroke:red;stroke-width:1.99999;stroke-linecap:round;stroke-linejoin:round;stroke-miterlimit:4;stroke-dasharray:none;stroke-opacity:1;visibility:visible"/><path d="M371.586 998.102a.35.35 0 0 0 .332.028M695.477 864.47l4.54-1.875" style="fill:none;stroke:red;stroke-width:.999997;stroke-linecap:round;stroke-linejoin:round;stroke-miterlimit:4;stroke-dasharray:none;stroke-opacity:1;visibility:visible"/><path d="m376.61 996.195 318.865-131.724" style="fill:none;stroke:red;stroke-width:1.99999;stroke-linecap:round;stroke-linejoin:round;stroke-miterlimit:4;stroke-dasharray:none;stroke-opacity:1;visibility:visible"/><path d="m371.92 998.13 4.69-1.936M252.124 919.947 371.588 998.1M251.955 915.26a.335.335 0 0 0-.221.335" style="fill:none;stroke:red;stroke-width:.999997;stroke-linecap:round;stroke-linejoin:round;stroke-miterlimit:4;stroke-dasharray:none;stroke-opacity:1;visibility:visible"/><path d="m251.734 915.593.24 4.096" style="fill:none;stroke:red;stroke-width:1.99999;stroke-linecap:round;stroke-linejoin:round;stroke-miterlimit:4;stroke-dasharray:none;stroke-opacity:1;visibility:visible"/><path d="m252.625 915.015-.67.245M700.422 858.407a.307.307 0 0 0-.18-.297M251.973 919.69a.337.337 0 0 0 .147.256" style="fill:none;stroke:red;stroke-width:.999997;stroke-linecap:round;stroke-linejoin:round;stroke-miterlimit:4;stroke-dasharray:none;stroke-opacity:1;visibility:visible"/><path d="m700.21 862.325.213-3.917" style="fill:none;stroke:red;stroke-width:1.99999;stroke-linecap:round;stroke-linejoin:round;stroke-miterlimit:4;stroke-dasharray:none;stroke-opacity:1;visibility:visible"/><path d="m700.245 858.109-.679-.324" style="fill:none;stroke:red;stroke-width:.999997;stroke-linecap:round;stroke-linejoin:round;stroke-miterlimit:4;stroke-dasharray:none;stroke-opacity:1;visibility:visible"/><path d="M700.017 862.597a.316.316 0 0 0 .193-.272M376.94 1022.25l-.71-25.897M252.465 920.171l1.433 24.527M698.458 886.195l1.285-23.488" style="fill:none;stroke:red;stroke-width:1.99999;stroke-linecap:round;stroke-linejoin:round;stroke-miterlimit:4;stroke-dasharray:none;stroke-opacity:1;visibility:visible"/><path d="m519.448 938.519 22.688 12.832M530.508 937.648l.032.487.107.508.177.505.241.475.29.432.325.358.35.271.349.175.345.065.315-.044.274-.15.222-.257.153-.342.081-.415.007-.47-.07-.502-.143-.512-.208-.495-.266-.453-.313-.396-.34-.32-.352-.224-.352-.117-.33-.011-.297.099-.246.204-.187.301-.12.383-.044.445M546.064 949.911a.16.16 0 0 0 .112-.12M670.198 847.911a.185.185 0 0 0 .104-.178M688.763 856.786l6.31 3M699.462 858.182a.11.11 0 0 0 .086-.088M252.642 915.338a.113.113 0 0 0 .057.081M372.324 1024.064a.592.592 0 0 0 .5.024M372.826 1024.088l3.972-1.683M273.906 958.142l98.417 65.92" style="fill:none;stroke:red;stroke-width:.999997;stroke-linecap:round;stroke-linejoin:round;stroke-miterlimit:4;stroke-dasharray:none;stroke-opacity:1;visibility:visible"/><path d="m253.956 944.778 19.95 13.363" style="fill:none;stroke:red;stroke-width:1.99999;stroke-linecap:round;stroke-linejoin:round;stroke-miterlimit:4;stroke-dasharray:none;stroke-opacity:1;visibility:visible"/><path d="M376.8 1022.406a.193.193 0 0 0 .137-.156" style="fill:none;stroke:red;stroke-width:.999997;stroke-linecap:round;stroke-linejoin:round;stroke-miterlimit:4;stroke-dasharray:none;stroke-opacity:1;visibility:visible"/><path d="M253.898 944.698a.121.121 0 0 0 .057.081" style="fill:none;stroke:red;stroke-width:1.99999;stroke-linecap:round;stroke-linejoin:round;stroke-miterlimit:4;stroke-dasharray:none;stroke-opacity:1;visibility:visible"/><path d="m670.322 875.109 24.528 11.833M681.074 873.885l.017.464.094.479.165.473.23.445.285.396.326.328.352.246.359.15.355.05.328-.055.29-.156.232-.25.172-.333.102-.4.025-.448-.056-.473-.133-.481-.196-.462-.263-.424-.307-.364-.344-.29-.356-.198-.36-.098-.344.002-.308.107-.262.207-.208.29-.134.371-.061.424" style="fill:none;stroke:red;stroke-width:.999997;stroke-linecap:round;stroke-linejoin:round;stroke-miterlimit:4;stroke-dasharray:none;stroke-opacity:1;visibility:visible"/><path d="M698.369 886.286a.113.113 0 0 0 .085-.09" style="fill:none;stroke:red;stroke-width:1.99999;stroke-linecap:round;stroke-linejoin:round;stroke-miterlimit:4;stroke-dasharray:none;stroke-opacity:1;visibility:visible"/><path d="m372.484 1028.898-.127-4.257M377.28 1022.234l320.54-136.46M372.483 1028.898a.203.203 0 0 0 .083.176" style="fill:none;stroke:red;stroke-width:.999997;stroke-linecap:round;stroke-linejoin:round;stroke-miterlimit:4;stroke-dasharray:none;stroke-opacity:1;visibility:visible"/><path d="M698.145 889.275a.113.113 0 0 0 .085-.09M698.045 889.454a.187.187 0 0 0 .1-.177" style="fill:none;stroke:red;stroke-width:1.99999;stroke-linecap:round;stroke-linejoin:round;stroke-miterlimit:4;stroke-dasharray:none;stroke-opacity:1;visibility:visible"/><path d="m542.135 951.35.345-22.347M371.497 997.916l-.125-4.333M371.651 993.155l328.471-135.046M700.334 858.497a.421.421 0 0 0-.21-.388M252.052 915.278l119.598 77.877M371.496 997.916a.223.223 0 0 0 .088.186" style="fill:none;stroke:red;stroke-width:.999997;stroke-linecap:round;stroke-linejoin:round;stroke-miterlimit:4;stroke-dasharray:none;stroke-opacity:1;visibility:visible"/><path d="M700.017 862.597a.196.196 0 0 0 .103-.183" style="fill:none;stroke:red;stroke-width:1.99999;stroke-linecap:round;stroke-linejoin:round;stroke-miterlimit:4;stroke-dasharray:none;stroke-opacity:1;visibility:visible"/><path d="M700.334 858.497a.11.11 0 0 0 .087-.09M700.244 858.109a.136.136 0 0 0-.12 0M251.973 919.69a.108.108 0 0 0 .057.08M252.053 915.278a.11.11 0 0 0-.096-.02M252.031 919.77a.213.213 0 0 0 .091.177" style="fill:none;stroke:red;stroke-width:.999997;stroke-linecap:round;stroke-linejoin:round;stroke-miterlimit:4;stroke-dasharray:none;stroke-opacity:1;visibility:visible"/><path d="M700.12 862.414a.115.115 0 0 0 .089-.088" style="fill:none;stroke:red;stroke-width:1.99999;stroke-linecap:round;stroke-linejoin:round;stroke-miterlimit:4;stroke-dasharray:none;stroke-opacity:1;visibility:visible"/><path d="m372.326 1024.064-.747-25.97M694.849 886.942l1.292-22.748" style="fill:none;stroke:red;stroke-width:.999997;stroke-linecap:round;stroke-linejoin:round;stroke-miterlimit:4;stroke-dasharray:none;stroke-opacity:1;visibility:visible"/><path d="m683.227 870.377 10.917 5.516.266-3.975" style="fill:none;stroke:red;stroke-width:.666665;stroke-linecap:round;stroke-linejoin:round;stroke-miterlimit:4;stroke-dasharray:none;stroke-opacity:1;visibility:visible"/><path d="M690.665 871.853c0 .54.068.98.47 1.184l.845.428c.406.204.366-.25.366-.786 0-.539.04-.958-.365-1.161l-.847-.427c-.401-.204-.47.224-.47.762h.001M684.857 869.026h0c0 .795.416 1.644 1.01 1.945l2.146 1.083c.595.3 1.013-.13 1.013-.921 0-.794-.418-1.643-1.014-1.943l-2.144-1.085" style="fill:none;stroke:red;stroke-width:.666665;stroke-linecap:round;stroke-linejoin:round;stroke-miterlimit:4;stroke-dasharray:none;stroke-opacity:1;visibility:visible"/><path d="M692.082 871.649s-.445-.036-.565.336l.021.769c.039.183.462.717.584.78M688.156 867.921l6.963 3.48-.712.517M530.531 934.757l10.917 5.513.268-3.973" style="fill:none;stroke:red;stroke-width:.666665;stroke-linecap:round;stroke-linejoin:round;stroke-miterlimit:4;stroke-dasharray:none;stroke-opacity:1;visibility:visible"/><path d="M537.972 936.231c0 .537.068.98.47 1.185l.845.43c.406.201.365-.254.365-.79 0-.538.041-.956-.364-1.158l-.847-.428c-.401-.204-.469.222-.469.761M532.164 933.406h0c0 .794.416 1.644 1.012 1.944l2.145 1.084c.594.301 1.012-.13 1.012-.924 0-.79-.418-1.64-1.012-1.943l-2.145-1.083" style="fill:none;stroke:red;stroke-width:.666665;stroke-linecap:round;stroke-linejoin:round;stroke-miterlimit:4;stroke-dasharray:none;stroke-opacity:1;visibility:visible"/><path d="M539.39 936.027s-.447-.036-.567.333l.02.771c.041.183.464.719.585.781M535.462 932.301l6.963 3.48-.711.517M531.538 938.195l1.4.84M532.19 937.913v1.587M682.164 874.24l1.399.839M682.818 873.775v1.959" style="fill:none;stroke:red;stroke-width:.666665;stroke-linecap:round;stroke-linejoin:round;stroke-miterlimit:4;stroke-dasharray:none;stroke-opacity:1;visibility:visible"/><path d="m537.972 936.231 8.573-8.909" style="fill:none;stroke:red;stroke-width:1.99999;stroke-linecap:round;stroke-linejoin:round;stroke-miterlimit:4;stroke-dasharray:none;stroke-opacity:1;visibility:visible"/><path d="m532.938 939.035-13.49-.516M532.19 939.5l-1.682-1.852M541.716 936.297l-11.208 1.351M700.244 858.109l-11.481-1.323M699.566 857.785l-4.494 2.001M682.818 875.734l-1.744-1.849M694.41 871.918l-13.336 1.967M537.972 936.231l4.508-7.228" style="fill:none;stroke:red;stroke-width:.999997;stroke-linecap:round;stroke-linejoin:round;stroke-miterlimit:4;stroke-dasharray:none;stroke-opacity:1;visibility:visible"/><path d="m683.563 875.079-.336-4.702M682.818 875.734l7.847-3.881M683.563 875.079l2.305-6.974M690.665 871.853l1.417-.204M688.156 867.921l3.966 5.613M692.122 873.534l-3.966-5.613M532.938 939.035l-2.407-4.278M532.19 939.5l5.782-3.269M541.716 936.297l-3.744-.066M532.938 939.035l.238-6.551M535.462 932.301l3.966 5.611M539.428 937.912l-3.966-5.611" style="fill:none;stroke:red;stroke-width:.666665;stroke-linecap:round;stroke-linejoin:round;stroke-miterlimit:4;stroke-dasharray:none;stroke-opacity:1;visibility:visible"/><path d="M252.45 717.712a.352.352 0 0 0-.192-.292" style="fill:none;stroke:#00ff4a;stroke-width:.999997;stroke-linecap:round;stroke-linejoin:round;stroke-miterlimit:4;stroke-dasharray:none;stroke-opacity:1;visibility:visible" visibility="hidden"/><path d="m252.522 719.007-.073-1.299M252.26 717.418l-5.443-2.832" style="fill:none;stroke:#00ff4a;stroke-width:1.99999;stroke-linecap:round;stroke-linejoin:round;stroke-miterlimit:4;stroke-dasharray:none;stroke-opacity:1;visibility:visible" visibility="hidden"/><path d="M241.286 716.086a.347.347 0 0 0-.25.356" style="fill:none;stroke:#00ff4a;stroke-width:.999997;stroke-linecap:round;stroke-linejoin:round;stroke-miterlimit:4;stroke-dasharray:none;stroke-opacity:1;visibility:visible" visibility="hidden"/><path d="m241.035 716.44.075 1.295M246.555 714.56l-5.268 1.527M246.817 714.588a.353.353 0 0 0-.263-.028" style="fill:none;stroke:#00ff4a;stroke-width:1.99999;stroke-linecap:round;stroke-linejoin:round;stroke-miterlimit:4;stroke-dasharray:none;stroke-opacity:1;visibility:visible" visibility="hidden"/><path d="M583.69 621.296a.307.307 0 0 0-.197-.293" style="fill:none;stroke:#00ff4a;stroke-width:.999997;stroke-linecap:round;stroke-linejoin:round;stroke-miterlimit:4;stroke-dasharray:none;stroke-opacity:1;visibility:visible" visibility="hidden"/><path d="m583.664 622.46.028-1.165M583.492 621.002l-5.823-2.179" style="fill:none;stroke:#00ff4a;stroke-width:1.99999;stroke-linecap:round;stroke-linejoin:round;stroke-miterlimit:4;stroke-dasharray:none;stroke-opacity:1;visibility:visible" visibility="hidden"/><path d="M573.416 619.99a.305.305 0 0 0-.224.29" style="fill:none;stroke:#00ff4a;stroke-width:.999997;stroke-linecap:round;stroke-linejoin:round;stroke-miterlimit:4;stroke-dasharray:none;stroke-opacity:1;visibility:visible" visibility="hidden"/><path d="m573.193 620.278-.025 1.165M577.477 618.814l-4.06 1.175M577.668 618.825a.288.288 0 0 0-.195-.01" style="fill:none;stroke:#00ff4a;stroke-width:1.99999;stroke-linecap:round;stroke-linejoin:round;stroke-miterlimit:4;stroke-dasharray:none;stroke-opacity:1;visibility:visible" visibility="hidden"/><path d="M709.9 668.584a.327.327 0 0 0-.214-.324" style="fill:none;stroke:#00ff4a;stroke-width:.999997;stroke-linecap:round;stroke-linejoin:round;stroke-miterlimit:4;stroke-dasharray:none;stroke-opacity:1;visibility:visible" visibility="hidden"/><path d="m709.833 669.812.068-1.23M709.688 668.26l-6.645-2.49" style="fill:none;stroke:#00ff4a;stroke-width:1.99999;stroke-linecap:round;stroke-linejoin:round;stroke-miterlimit:4;stroke-dasharray:none;stroke-opacity:1;visibility:visible" visibility="hidden"/><path d="M698.712 667.108a.33.33 0 0 0-.228.297" style="fill:none;stroke:#00ff4a;stroke-width:.999997;stroke-linecap:round;stroke-linejoin:round;stroke-miterlimit:4;stroke-dasharray:none;stroke-opacity:1;visibility:visible" visibility="hidden"/><path d="m698.486 667.403-.064 1.23M702.823 665.765l-4.11 1.341M703.04 665.77a.316.316 0 0 0-.22-.005" style="fill:none;stroke:#00ff4a;stroke-width:1.99999;stroke-linecap:round;stroke-linejoin:round;stroke-miterlimit:4;stroke-dasharray:none;stroke-opacity:1;visibility:visible" visibility="hidden"/><path d="M371.578 779.712a.381.381 0 0 0-.203-.326" style="fill:none;stroke:#00ff4a;stroke-width:.999997;stroke-linecap:round;stroke-linejoin:round;stroke-miterlimit:4;stroke-dasharray:none;stroke-opacity:1;visibility:visible" visibility="hidden"/><path d="m371.615 781.085-.036-1.375M371.375 779.385l-6.333-3.296" style="fill:none;stroke:#00ff4a;stroke-width:1.99999;stroke-linecap:round;stroke-linejoin:round;stroke-miterlimit:4;stroke-dasharray:none;stroke-opacity:1;visibility:visible" visibility="hidden"/><path d="M359.314 777.84a.377.377 0 0 0-.26.37" style="fill:none;stroke:#00ff4a;stroke-width:.999997;stroke-linecap:round;stroke-linejoin:round;stroke-miterlimit:4;stroke-dasharray:none;stroke-opacity:1;visibility:visible" visibility="hidden"/><path d="m359.055 778.21.04 1.372M364.751 776.068l-5.436 1.772M365.04 776.092a.395.395 0 0 0-.292-.024" style="fill:none;stroke:#00ff4a;stroke-width:1.99999;stroke-linecap:round;stroke-linejoin:round;stroke-miterlimit:4;stroke-dasharray:none;stroke-opacity:1;visibility:visible" visibility="hidden"/><path d="m376.628 965.718 293.573-117.806" style="fill:none;stroke:#00ff4a;stroke-width:.999997;stroke-linecap:round;stroke-linejoin:round;stroke-miterlimit:4;stroke-dasharray:none;stroke-opacity:1;visibility:visible" visibility="hidden"/><path d="M666.367 837.679 376.272 952.597M364.466 957.275l-15.276 6.053M689.289 844.718 579.572 793.27" style="fill:none;stroke:#00ff4a;stroke-width:1.99999;stroke-linecap:round;stroke-linejoin:round;stroke-miterlimit:4;stroke-dasharray:none;stroke-opacity:1;visibility:visible" visibility="hidden"/><path d="m575.242 802.711 81.562 38.755M670.266 847.861l18.37 8.728" style="fill:none;stroke:#00ff4a;stroke-width:.999997;stroke-linecap:round;stroke-linejoin:round;stroke-miterlimit:4;stroke-dasharray:none;stroke-opacity:1;visibility:visible" visibility="hidden"/><path d="m348.1 962.75-85.014-54.56M364.958 973.567l-10.403-6.672M697.003 696.004l-114.028-44.595M578.529 661.228l117.83 46.823M359.971 808.5l-105.636-57.236M249.279 762.377l111.112 61.227M699.55 858.093l10.283-188.28" style="fill:none;stroke:#00ff4a;stroke-width:1.99999;stroke-linecap:round;stroke-linejoin:round;stroke-miterlimit:4;stroke-dasharray:none;stroke-opacity:1;visibility:visible" visibility="hidden"/><path d="m689.163 847.155-.493 9.524" style="fill:none;stroke:#00ff4a;stroke-width:.999997;stroke-linecap:round;stroke-linejoin:round;stroke-miterlimit:4;stroke-dasharray:none;stroke-opacity:1;visibility:visible" visibility="hidden"/><path d="m696.354 708.5-7.193 138.656" style="fill:none;stroke:#00ff4a;stroke-width:1.99999;stroke-linecap:round;stroke-linejoin:round;stroke-miterlimit:4;stroke-dasharray:none;stroke-opacity:1;visibility:visible" visibility="hidden"/><path d="m696.872 698.504-.52 9.995" style="fill:none;stroke:#00ff4a;stroke-width:.999997;stroke-linecap:round;stroke-linejoin:round;stroke-miterlimit:4;stroke-dasharray:none;stroke-opacity:1;visibility:visible" visibility="hidden"/><path d="m698.422 668.632-1.55 29.872M377.3 990.51l-5.688-209.423" style="fill:none;stroke:#00ff4a;stroke-width:1.99999;stroke-linecap:round;stroke-linejoin:round;stroke-miterlimit:4;stroke-dasharray:none;stroke-opacity:1;visibility:visible" visibility="hidden"/><path d="m365.107 978.407.31 10.33" style="fill:none;stroke:#00ff4a;stroke-width:.999997;stroke-linecap:round;stroke-linejoin:round;stroke-miterlimit:4;stroke-dasharray:none;stroke-opacity:1;visibility:visible" visibility="hidden"/><path d="m360.452 824.429 4.655 153.977" style="fill:none;stroke:#00ff4a;stroke-width:1.99999;stroke-linecap:round;stroke-linejoin:round;stroke-miterlimit:4;stroke-dasharray:none;stroke-opacity:1;visibility:visible" visibility="hidden"/><path d="m360.117 813.322.335 11.107" style="fill:none;stroke:#00ff4a;stroke-width:.999997;stroke-linecap:round;stroke-linejoin:round;stroke-miterlimit:4;stroke-dasharray:none;stroke-opacity:1;visibility:visible" visibility="hidden"/><path d="m359.096 779.583 1.021 33.74" style="fill:none;stroke:#00ff4a;stroke-width:1.99999;stroke-linecap:round;stroke-linejoin:round;stroke-miterlimit:4;stroke-dasharray:none;stroke-opacity:1;visibility:visible" visibility="hidden"/><path d="m269.926 912.577 92.172-33.695M374.151 874.476l198.914-72.716" style="fill:none;stroke:#00ff4a;stroke-width:.999997;stroke-linecap:round;stroke-linejoin:round;stroke-miterlimit:4;stroke-dasharray:none;stroke-opacity:1;visibility:visible" visibility="hidden"/><path d="m569.453 792.038-195.625 70.61M361.74 867.012l-98.997 35.732M263.596 756.278l312.638-95.874M572.531 650.345l-318.478 96.17M579.547 793.262l3.14-130.381M582.966 651.407l.696-28.947M573.17 621.442l-.625 28.9M572.3 661.611l-2.82 130.42M263.043 908.169l-7.93-142.58M254.315 751.25l-1.795-32.244M241.11 717.734l11.532 197.604" style="fill:none;stroke:#00ff4a;stroke-width:1.99999;stroke-linecap:round;stroke-linejoin:round;stroke-miterlimit:4;stroke-dasharray:none;stroke-opacity:1;visibility:visible" visibility="hidden"/><path d="m494.89 892.473.33-.093.37-.046.388.007.367.064.308.108.229.145.127.17.013.177-.104.175-.207.153-.294.112-.356.072-.386.019-.38-.036-.341-.087-.272-.13-.179-.16-.072-.178.047-.175.159-.164.253-.133M246.6 720.649a.747.747 0 0 0 .486.016M252.366 719.124l-5.277 1.539M246.6 720.648l-5.43-2.85M252.522 719.007l-.007.028-.021.028-.03.023-.045.021-.053.017M579.065 623.707a.777.777 0 0 0 .435.012M583.565 622.534l-4.063 1.184M579.068 623.705l-5.817-2.193M583.663 622.461a.487.487 0 0 1-.011.026l-.017.016-.032.014-.04.019M573.25 621.512l-.036-.019-.027-.017-.017-.02-.003-.015M705.164 671.224a.821.821 0 0 0 .468.016M709.742 669.885l-4.11 1.356M705.165 671.223l-6.641-2.503M709.74 669.885a.103.103 0 0 0 .09-.073M698.523 668.72l-.041-.02-.035-.019-.017-.024-.008-.022M365.492 782.988a.767.767 0 0 0 .528.018M371.464 781.213l-5.441 1.792M365.492 782.986l-6.32-3.315M359.095 779.584a.107.107 0 0 0 .076.086M371.463 781.214a.173.173 0 0 0 .15-.13M670.305 847.73l.365-7.792M575.55 794.685l3.904-1.416M257.871 909.995a.417.417 0 0 0-.261.398M579.57 793.27a.141.141 0 0 0-.117 0M262.888 908.176l-5.017 1.819M578.833 652.636a.384.384 0 0 0-.233.354M263.086 908.19a.22.22 0 0 0-.197-.015M582.87 651.407l-4.035 1.227M248.92 752.836a.413.413 0 0 0-.272.408M360.271 823.383a.243.243 0 0 0 .155.238M360.124 813.609a.49.49 0 0 0-.138.341M582.972 651.41a.155.155 0 0 0-.104-.001M254.154 751.247l-5.232 1.587M254.337 751.264a.236.236 0 0 0-.187-.016" style="fill:none;stroke:#00ff4a;stroke-width:.999997;stroke-linecap:round;stroke-linejoin:round;stroke-miterlimit:4;stroke-dasharray:none;stroke-opacity:1;visibility:visible" visibility="hidden"/><path d="m371.464 781.213.055-.023.044-.021.032-.033.014-.027.004-.025M573.33 794.094a.41.41 0 0 0-.196-.361M573.161 801.576l.17-7.483M573.138 793.734l-3.583-1.687M576.535 652.177a.4.4 0 0 0-.2-.366M569.556 792.05a.115.115 0 0 0-.104-.01M573.064 801.76a.178.178 0 0 0 .095-.181M576.354 660.195l.183-8.019M576.336 651.81l-3.71-1.457M572.624 650.352a.14.14 0 0 0-.094-.005M576.235 660.404a.203.203 0 0 0 .118-.208M583.565 622.534l.037-.019.034-.013.017-.019.01-.022M573.17 621.442l.003.016.016.017.025.019.037.02M574.944 802.698a.588.588 0 0 0 .341.032M573.014 801.78l1.93.916M246.6 720.648l-.076-1.297M246.802 718.94l5.279-1.536M241.367 716.095l5.435 2.844M579.327 622.183a.383.383 0 0 0-.232.36M579.068 623.705l.028-1.165M579.328 622.181l4.063-1.18M573.508 619.994l5.82 2.188M583.492 621.003a.147.147 0 0 0-.102 0" style="fill:none;stroke:#00ff4a;stroke-width:.999997;stroke-linecap:round;stroke-linejoin:round;stroke-miterlimit:4;stroke-dasharray:none;stroke-opacity:1;visibility:visible" visibility="hidden"/><path d="M577.668 618.825a.128.128 0 0 0-.101-.004" style="fill:none;stroke:#00ff4a;stroke-width:1.99999;stroke-linecap:round;stroke-linejoin:round;stroke-miterlimit:4;stroke-dasharray:none;stroke-opacity:1;visibility:visible" visibility="hidden"/><path d="M573.505 619.996a.133.133 0 0 0-.09-.006" style="fill:none;stroke:#00ff4a;stroke-width:.999997;stroke-linecap:round;stroke-linejoin:round;stroke-miterlimit:4;stroke-dasharray:none;stroke-opacity:1;visibility:visible" visibility="hidden"/><path d="M577.567 618.821a.113.113 0 0 0-.091-.005" style="fill:none;stroke:#00ff4a;stroke-width:1.99999;stroke-linecap:round;stroke-linejoin:round;stroke-miterlimit:4;stroke-dasharray:none;stroke-opacity:1;visibility:visible" visibility="hidden"/><path d="M705.474 669.612a.433.433 0 0 0-.246.384M705.165 671.223l.067-1.23M705.477 669.611l4.112-1.353M698.83 667.112l6.644 2.499M709.686 668.261a.127.127 0 0 0-.098 0" style="fill:none;stroke:#00ff4a;stroke-width:.999997;stroke-linecap:round;stroke-linejoin:round;stroke-miterlimit:4;stroke-dasharray:none;stroke-opacity:1;visibility:visible" visibility="hidden"/><path d="M703.04 665.77a.133.133 0 0 0-.102 0" style="fill:none;stroke:#00ff4a;stroke-width:1.99999;stroke-linecap:round;stroke-linejoin:round;stroke-miterlimit:4;stroke-dasharray:none;stroke-opacity:1;visibility:visible" visibility="hidden"/><path d="M698.829 667.113a.15.15 0 0 0-.117-.005" style="fill:none;stroke:#00ff4a;stroke-width:.999997;stroke-linecap:round;stroke-linejoin:round;stroke-miterlimit:4;stroke-dasharray:none;stroke-opacity:1;visibility:visible" visibility="hidden"/><path d="M702.938 665.77a.196.196 0 0 0-.117-.005" style="fill:none;stroke:#00ff4a;stroke-width:1.99999;stroke-linecap:round;stroke-linejoin:round;stroke-miterlimit:4;stroke-dasharray:none;stroke-opacity:1;visibility:visible" visibility="hidden"/><path d="M365.746 781.164a.464.464 0 0 0-.296.442M365.492 782.986l-.039-1.38M365.746 781.163l5.444-1.785M359.422 777.856l6.324 3.305M371.374 779.385a.227.227 0 0 0-.187-.007" style="fill:none;stroke:#00ff4a;stroke-width:.999997;stroke-linecap:round;stroke-linejoin:round;stroke-miterlimit:4;stroke-dasharray:none;stroke-opacity:1;visibility:visible" visibility="hidden"/><path d="M365.04 776.092a.227.227 0 0 0-.184-.007" style="fill:none;stroke:#00ff4a;stroke-width:1.99999;stroke-linecap:round;stroke-linejoin:round;stroke-miterlimit:4;stroke-dasharray:none;stroke-opacity:1;visibility:visible" visibility="hidden"/><path d="M359.422 777.857a.123.123 0 0 0-.107-.017" style="fill:none;stroke:#00ff4a;stroke-width:.999997;stroke-linecap:round;stroke-linejoin:round;stroke-miterlimit:4;stroke-dasharray:none;stroke-opacity:1;visibility:visible" visibility="hidden"/><path d="M364.86 776.084a.125.125 0 0 0-.11-.015" style="fill:none;stroke:#00ff4a;stroke-width:1.99999;stroke-linecap:round;stroke-linejoin:round;stroke-miterlimit:4;stroke-dasharray:none;stroke-opacity:1;visibility:visible" visibility="hidden"/><path d="m670.672 839.94-294.28 117.084M364.602 961.718l-10.463 4.161M689.112 848.142 575.55 794.686M365.003 979.715l-107.392-69.322M696.693 699.382l-118.09-46.393M359.987 813.95l-111.338-60.705M695.074 859.786l10.09-188.56M371.507 992.754l-6.016-209.767M262.955 906.572l98.897-35.841M373.93 866.352l199.4-72.258M254.24 749.907l322.295-97.73M574.945 802.697l4.123-178.992M257.912 918.81l-11.31-198.16M364.602 961.718l12.026 4" style="fill:none;stroke:#00ff4a;stroke-width:.999997;stroke-linecap:round;stroke-linejoin:round;stroke-miterlimit:4;stroke-dasharray:none;stroke-opacity:1;visibility:visible" visibility="hidden"/><path d="m364.466 957.275 11.806-4.678M376.391 957.024l-11.925.251M364.602 961.718l-15.412 1.61M670.266 847.861l19.023-3.143" style="fill:none;stroke:#00ff4a;stroke-width:1.99999;stroke-linecap:round;stroke-linejoin:round;stroke-miterlimit:4;stroke-dasharray:none;stroke-opacity:1;visibility:visible" visibility="hidden"/><path d="m670.266 847.861-13.462-6.395" style="fill:none;stroke:#00ff4a;stroke-width:.999997;stroke-linecap:round;stroke-linejoin:round;stroke-miterlimit:4;stroke-dasharray:none;stroke-opacity:1;visibility:visible" visibility="hidden"/><path d="m354.555 966.895-6.455-4.145M348.1 962.75l6.455 4.145M576.336 651.81l2.193 9.418M254.337 751.264l-5.058 11.113M689.163 847.155l10.387 10.938M365.107 978.407 377.3 990.51" style="fill:none;stroke:#00ff4a;stroke-width:1.99999;stroke-linecap:round;stroke-linejoin:round;stroke-miterlimit:4;stroke-dasharray:none;stroke-opacity:1;visibility:visible" visibility="hidden"/><path d="m262.888 908.176 7.038 4.401M374.151 874.476l-12.053 4.406M362.098 878.882l12.053-4.406" style="fill:none;stroke:#00ff4a;stroke-width:.999997;stroke-linecap:round;stroke-linejoin:round;stroke-miterlimit:4;stroke-dasharray:none;stroke-opacity:1;visibility:visible" visibility="hidden"/><path d="m361.74 867.012 12.088-4.365M373.93 866.352l-12.19.66M262.888 908.176l-.145-5.432M254.154 751.247l9.442 5.031M254.154 751.247l-.1-4.733M576.354 660.195l6.333 2.686M576.354 660.195l-4.054 1.416M248.648 753.244l6.466 12.345" style="fill:none;stroke:#00ff4a;stroke-width:1.99999;stroke-linecap:round;stroke-linejoin:round;stroke-miterlimit:4;stroke-dasharray:none;stroke-opacity:1;visibility:visible" visibility="hidden"/><path d="m364.466 957.275 11.925-.251M376.628 965.718l-12.026-4M364.466 957.275l-10.327 8.604M354.555 966.895l10.448 12.82M689.163 847.155l5.911 12.631M365.107 978.407l6.4 14.347M262.888 908.176l.067-1.604M373.93 866.352l-12.078 4.379M361.74 867.012l12.19-.66M254.154 751.247l.086-1.34" style="fill:none;stroke:#00ff4a;stroke-width:.999997;stroke-linecap:round;stroke-linejoin:round;stroke-miterlimit:4;stroke-dasharray:none;stroke-opacity:1;visibility:visible" visibility="hidden"/><path d="m541.716 936.297-2.326-.27" style="fill:none;stroke:red;stroke-width:.666665;stroke-linecap:round;stroke-linejoin:round;stroke-miterlimit:4;stroke-dasharray:none;stroke-opacity:1;visibility:visible"/><path d="m670.198 847.911-3.831-10.232" style="fill:none;stroke:#00ff4a;stroke-width:1.99999;stroke-linecap:round;stroke-linejoin:round;stroke-miterlimit:4;stroke-dasharray:none;stroke-opacity:1;visibility:visible" visibility="hidden"/><path d="m371.372 993.583-5.956-4.847M252.465 920.171l5.447-1.361" style="fill:none;stroke:#00ff4a;stroke-width:.999997;stroke-linecap:round;stroke-linejoin:round;stroke-miterlimit:4;stroke-dasharray:none;stroke-opacity:1;visibility:visible" visibility="hidden"/></svg>