<svg xmlns="http://www.w3.org/2000/svg" baseProfile="full" height="1122.52" preserveAspectRatio="xMinYMin meet" style="width:914px;height:841px" width="793.701" xml:space="preserve"><path d="m550.534 922.75.595-31.535M422.657 830.224l.315 30.047" style="fill:none;stroke:red;stroke-width:1.99999;stroke-linecap:round;stroke-linejoin:round;stroke-miterlimit:4;stroke-dasharray:none;stroke-opacity:1;visibility:visible"/><path d="M329.367 1016.495a.437.437 0 0 0 .406.035" style="fill:none;stroke:red;stroke-width:.999997;stroke-linecap:round;stroke-linejoin:round;stroke-miterlimit:4;stroke-dasharray:none;stroke-opacity:1;visibility:visible"/><path d="m329.774 1016.533 405.803-161.357M210.417 940.271l118.95 76.224M209.902 934.558l.323 5.392M736.113 849.98a.377.377 0 0 0-.228-.375M210.225 939.95a.413.413 0 0 0 .192.32M735.822 854.844l.293-4.865M612.806 795l-3.959-1.756M714.755 840.228l-96.218-42.69M735.887 849.605l-15.775-6.997M735.575 855.178a.387.387 0 0 0 .246-.333" style="fill:none;stroke:red;stroke-width:1.99999;stroke-linecap:round;stroke-linejoin:round;stroke-miterlimit:4;stroke-dasharray:none;stroke-opacity:1;visibility:visible"/><path d="M546.06 892.99a.825.825 0 0 0 .59.024" style="fill:none;stroke:red;stroke-width:.999997;stroke-linecap:round;stroke-linejoin:round;stroke-miterlimit:4;stroke-dasharray:none;stroke-opacity:1;visibility:visible"/><path d="M427.612 828.654a.787.787 0 0 0-.55-.021M551.02 891.089l-123.406-62.435" style="fill:none;stroke:red;stroke-width:1.99999;stroke-linecap:round;stroke-linejoin:round;stroke-miterlimit:4;stroke-dasharray:none;stroke-opacity:1;visibility:visible"/><path d="m550.99 891.35.055-.024.045-.032.025-.033.014-.038-.004-.036-.02-.032-.035-.036-.05-.029M546.65 893.013l4.34-1.664M546.06 892.99l-123.316-62.665" style="fill:none;stroke:red;stroke-width:.999997;stroke-linecap:round;stroke-linejoin:round;stroke-miterlimit:4;stroke-dasharray:none;stroke-opacity:1;visibility:visible"/><path d="m422.803 830.095 4.261-1.461M422.803 830.095l-.055.023-.044.028-.029.029-.015.03-.001.033.015.032.028.026.044.027" style="fill:none;stroke:red;stroke-width:1.99999;stroke-linecap:round;stroke-linejoin:round;stroke-miterlimit:4;stroke-dasharray:none;stroke-opacity:1;visibility:visible"/><path d="m423.058 860.373 122.444 64.195M528.181 906.43l.04.617.133.636.222.634.298.59.363.526.41.434.433.327.441.197.43.062.398-.075.343-.21.276-.334.193-.445.105-.538.01-.596-.09-.634-.176-.636-.262-.618-.334-.562-.389-.484-.423-.38-.445-.263-.437-.13-.415.007-.372.143-.31.279-.238.394-.148.491-.056.568M428.726 854.748l.048.593.133.608.211.596.277.563.334.493.373.402.392.3.4.176.384.046.35-.084.302-.212.24-.33.161-.434.083-.516-.005-.574-.091-.604-.172-.608-.247-.584-.308-.528-.356-.454-.386-.352-.4-.24-.392-.112-.371.022-.327.15-.272.274-.2.385-.122.476-.039.548M422.97 860.273a.125.125 0 0 0 .086.102M550.396 922.887a.177.177 0 0 0 .137-.137" style="fill:none;stroke:red;stroke-width:.999997;stroke-linecap:round;stroke-linejoin:round;stroke-miterlimit:4;stroke-dasharray:none;stroke-opacity:1;visibility:visible"/><path d="m241.274 923.176 20.25-7.163M223.983 929.29l10.004-3.535M210.081 934.209l8.996-3.183M301.855 901.745l121.101-42.833M460.898 845.493l147.774-52.268" style="fill:none;stroke:red;stroke-width:1.99999;stroke-linecap:round;stroke-linejoin:round;stroke-miterlimit:4;stroke-dasharray:none;stroke-opacity:1;visibility:visible"/><path d="m699.238 835.16-.221.123-.098.158.04.164.171.156.287.127.361.083.397.028.382-.028.321-.083.221-.127.1-.156-.042-.164-.174-.158-.282-.123-.364-.083-.395-.028-.38.028-.324.083M631.591 805.092l-.225.117-.104.146.026.153.156.147.268.118.346.078.38.028.37-.028.319-.078.225-.118.102-.147-.027-.153-.157-.146-.266-.117-.344-.083-.38-.024-.372.024-.317.083M237.66 948.959l.319-.156.193-.197.045-.204-.108-.196-.249-.16-.361-.103-.426-.033-.444.033-.406.103-.316.16-.195.196-.045.204.108.197.249.156.36.107.428.033.443-.033.405-.107M301.307 989.41l.321-.17.19-.21.032-.223-.124-.209-.268-.17-.38-.114-.446-.039-.458.039-.414.113-.321.171-.19.21-.034.222.125.21.268.17.38.115.447.032.457-.032.415-.115" style="fill:none;stroke:red;stroke-width:.999997;stroke-linecap:round;stroke-linejoin:round;stroke-miterlimit:4;stroke-dasharray:none;stroke-opacity:1;visibility:visible"/><path d="M608.845 793.243a.235.235 0 0 0-.175-.02" style="fill:none;stroke:red;stroke-width:1.99999;stroke-linecap:round;stroke-linejoin:round;stroke-miterlimit:4;stroke-dasharray:none;stroke-opacity:1;visibility:visible"/><path d="m545.5 924.568.56-31.58M329.458 1010.693l.177 5.472M329.418 1010.255l406.332-160.65" style="fill:none;stroke:red;stroke-width:.999997;stroke-linecap:round;stroke-linejoin:round;stroke-miterlimit:4;stroke-dasharray:none;stroke-opacity:1;visibility:visible"/><path d="M736.011 850.08a.51.51 0 0 0-.261-.473" style="fill:none;stroke:red;stroke-width:1.99999;stroke-linecap:round;stroke-linejoin:round;stroke-miterlimit:4;stroke-dasharray:none;stroke-opacity:1;visibility:visible"/><path d="m210.081 934.209 119.336 76.047" style="fill:none;stroke:red;stroke-width:.999997;stroke-linecap:round;stroke-linejoin:round;stroke-miterlimit:4;stroke-dasharray:none;stroke-opacity:1;visibility:visible"/><path d="M735.714 854.947a.136.136 0 0 0 .107-.101M735.885 849.606a.176.176 0 0 0-.138 0" style="fill:none;stroke:red;stroke-width:1.99999;stroke-linecap:round;stroke-linejoin:round;stroke-miterlimit:4;stroke-dasharray:none;stroke-opacity:1;visibility:visible"/><path d="m440.948 837.248-.273.123-.15.15-.005.16.135.15.261.124.356.08.41.032.41-.032.363-.08.272-.124.146-.15.008-.16-.133-.15-.265-.123-.356-.083-.406-.026-.412.026-.361.083M481.024 857.64l-.275.123-.149.152-.005.158.136.15.261.122.355.083.409.027.412-.027.361-.083.274-.122.145-.15.008-.158-.133-.152-.264-.123-.356-.081-.406-.027-.412.027-.361.081M525.636 880.26l-.273.121-.15.152-.005.16.135.151.261.123.356.081.41.028.41-.028.363-.081.272-.123.146-.15.008-.16-.134-.153-.264-.121-.356-.081-.406-.028-.412.028-.361.081" style="fill:none;stroke:red;stroke-width:.999997;stroke-linecap:round;stroke-linejoin:round;stroke-miterlimit:4;stroke-dasharray:none;stroke-opacity:1;visibility:visible"/><path d="M317.442 991.748v-.31M316.872 991.662v-.27M317.634 991.866l-.503-.307M318.15 991.156l-.707.28M316.355 991.055l.517.336M316.48 991.133l.203-.172M317.947 991.236v-.012a.267.267 0 0 0-.112-.216M317.835 991.008a1.378 1.378 0 0 0-.201-.048M316.026 991.288a1.173 1.173 0 0 0-.161.45M318.26 991.254a.852.852 0 0 0-.11-.096M318.454 992.367l.004-.575M318.457 991.794a1.17 1.17 0 0 0-.168-.506M317.131 991.559l-.65.256M317.634 990.96a2.84 2.84 0 0 0-.475-.04M316.333 991.066a.781.781 0 0 0-.278.188M316.355 991.055l-.022.01" style="fill:none;stroke:red;stroke-width:.666665;stroke-linecap:round;stroke-linejoin:round;stroke-miterlimit:2;stroke-dasharray:none;stroke-opacity:1;visibility:visible"/><path d="M317.16 990.92c-.16 0-.32.015-.478.042M315.866 992.405v-.668M318.42 999.871a.253.253 0 0 0 .073-.187M315.822 999.684c0 .072.027.139.075.187M318.103 1000.087a1.003 1.003 0 0 0 .317-.216M317.702 1000.204c.137-.024.272-.062.401-.117M317.16 1000.252c.181 0 .362-.017.542-.048M316.613 1000.204c.177.031.36.048.544.048M315.895 999.871a1 1 0 0 0 .318.216M316.213 1000.087c.127.055.262.092.4.117M317.16 992.916c.174 0 .352-.014.525-.046M317.685 992.871a1.95 1.95 0 0 0 .389-.115M318.074 992.756a.949.949 0 0 0 .306-.208M318.38 992.547a.257.257 0 0 0 .075-.18M316.243 992.756a1.79 1.79 0 0 0 .879.162M315.937 992.547a1.007 1.007 0 0 0 .306.208M315.866 992.406a.24.24 0 0 0 .07.141M318.495 993.956v5.728M318.103 993.558a1.863 1.863 0 0 0-.372-.112M318.42 993.774a.97.97 0 0 0-.318-.215M316.583 993.446a1.827 1.827 0 0 0-.37.112M315.895 993.774a.267.267 0 0 0-.074.184M318.494 993.956a.273.273 0 0 0-.075-.185M315.822 993.956v5.728M316.213 993.558a.99.99 0 0 0-.318.214M316.585 992.871v1.084M317.732 992.86v1.093M316.606 992.878l.012.012M318.42 994.142a.259.259 0 0 0 .073-.187M318.103 994.358a1.025 1.025 0 0 0 .317-.216M317.702 994.475c.137-.025.272-.064.401-.117M317.16 994.52c.181 0 .362-.016.542-.046M316.213 994.358l.112.041M315.895 994.142a1.023 1.023 0 0 0 .318.216M315.822 993.956c0 .071.027.136.075.186M317.122 992.916h.036M222.036 931.111v-.31M221.467 931.024v-.27M222.228 931.228l-.503-.305M222.743 930.517l-.707.281M220.95 930.417l.517.336M221.073 930.496l.203-.173M222.542 930.6v-.014a.264.264 0 0 0-.112-.214M222.429 930.372a1.225 1.225 0 0 0-.202-.048M220.62 930.65a1.196 1.196 0 0 0-.16.45M222.854 930.615a.876.876 0 0 0-.112-.097M223.048 931.732l.004-.577M223.051 931.156a1.176 1.176 0 0 0-.168-.508M221.725 930.922l-.65.253M222.226 930.323a2.707 2.707 0 0 0-.475-.041M220.926 930.427a.845.845 0 0 0-.276.19M220.949 930.418c-.009.004-.015.008-.023.01" style="fill:none;stroke:red;stroke-width:.666665;stroke-linecap:round;stroke-linejoin:round;stroke-miterlimit:2;stroke-dasharray:none;stroke-opacity:1;visibility:visible"/><path d="M221.753 930.282a2.7 2.7 0 0 0-.476.041M220.46 931.769v-.67M223.013 939.232a.256.256 0 0 0 .076-.184M220.415 939.05a.26.26 0 0 0 .075.182M222.698 939.448a.921.921 0 0 0 .316-.216M222.297 939.566c.137-.026.272-.063.401-.118M221.753 939.615c.182 0 .364-.015.544-.05M221.207 939.566c.18.033.363.05.544.05M220.49 939.232a.92.92 0 0 0 .317.216M220.807 939.448c.128.055.263.094.403.118M221.753 932.28c.176 0 .353-.017.526-.046M222.28 932.232a1.867 1.867 0 0 0 .388-.114M222.667 932.118a.947.947 0 0 0 .307-.208M222.974 931.91a.253.253 0 0 0 .073-.178M220.837 932.118a1.79 1.79 0 0 0 .878.161M220.53 931.91a.968.968 0 0 0 .307.208M220.46 931.768a.23.23 0 0 0 .07.14M223.09 933.32v5.73M222.698 932.92a1.927 1.927 0 0 0-.372-.112M223.013 933.136a.995.995 0 0 0-.316-.216M221.178 932.808a1.915 1.915 0 0 0-.37.112M220.49 933.136a.263.263 0 0 0-.075.184M223.089 933.32a.261.261 0 0 0-.076-.185M220.416 933.32v5.73M220.807 932.92a1.015 1.015 0 0 0-.317.216M221.178 932.235v1.083M222.326 932.224v1.095" style="fill:none;stroke:red;stroke-width:.666665;stroke-linecap:round;stroke-linejoin:round;stroke-miterlimit:2;stroke-dasharray:none;stroke-opacity:1;visibility:visible"/><path d="M221.2 932.24c0 .003.005.01.01.013M223.013 933.504a.264.264 0 0 0 .076-.186M222.698 933.72a.977.977 0 0 0 .316-.214M222.297 933.838c.137-.026.272-.064.401-.119M221.753 933.884a3.1 3.1 0 0 0 .544-.046M220.807 933.72c.036.016.075.028.113.043M220.49 933.504a.975.975 0 0 0 .317.216M220.415 933.32c0 .07.027.135.075.186M221.716 932.279h.036M717.868 835.277v-.31M717.3 835.19v-.27M718.06 835.395l-.503-.305M718.575 834.684l-.707.28M716.782 834.584l.517.336M716.905 834.665l.203-.175M718.373 834.767v-.014a.256.256 0 0 0-.113-.213M718.26 834.54a1.384 1.384 0 0 0-.2-.05M716.452 834.817a1.168 1.168 0 0 0-.162.449M718.685 834.782a.876.876 0 0 0-.112-.097M718.88 835.898l.003-.576M718.882 835.323a1.153 1.153 0 0 0-.168-.506M717.558 835.09l-.65.253M716.758 834.594a.828.828 0 0 0-.277.19M716.78 834.585c-.008.002-.015.008-.023.01M717.584 834.449a2.7 2.7 0 0 0-.476.041M718.058 834.49a2.696 2.696 0 0 0-.474-.041M716.293 835.935v-.67M718.529 843.615a.981.981 0 0 0 .316-.215M718.128 843.734c.137-.025.272-.063.4-.116M717.584 843.782c.182 0 .364-.016.544-.05M717.038 843.734c.179.032.362.05.544.05M716.32 843.4a1 1 0 0 0 .319.218M716.638 843.615a1.733 1.733 0 0 0 .402.116M717.584 836.446c.176 0 .353-.016.526-.046M718.11 836.4c.135-.024.264-.06.39-.112M718.498 836.286a.952.952 0 0 0 .306-.21M718.805 836.077a.25.25 0 0 0 .073-.179M716.668 836.286a1.776 1.776 0 0 0 .878.16M716.36 836.077a.995.995 0 0 0 .309.21M716.292 835.935a.232.232 0 0 0 .07.14M718.845 843.4a.263.263 0 0 0 .075-.185" style="fill:none;stroke:red;stroke-width:.666665;stroke-linecap:round;stroke-linejoin:round;stroke-miterlimit:2;stroke-dasharray:none;stroke-opacity:1;visibility:visible"/><path d="M716.246 843.217a.267.267 0 0 0 .075.185M718.922 837.489v5.727M717.009 836.974a2.012 2.012 0 0 0-.37.112M716.32 837.303a.267.267 0 0 0-.073.187M718.92 837.49a.263.263 0 0 0-.076-.188M718.529 837.089a1.824 1.824 0 0 0-.373-.112" style="fill:none;stroke:red;stroke-width:.666665;stroke-linecap:round;stroke-linejoin:round;stroke-miterlimit:2;stroke-dasharray:none;stroke-opacity:1;visibility:visible"/><path d="M718.845 837.303a1.005 1.005 0 0 0-.316-.213M716.249 837.489v5.727M716.638 837.089a1.027 1.027 0 0 0-.317.214M717.011 836.401v1.085M718.157 836.391v1.097M716.246 837.49a.26.26 0 0 0 .075.181M717.032 836.406l.01.016M718.845 837.67a.256.256 0 0 0 .075-.181M718.529 837.886a.981.981 0 0 0 .316-.216M718.128 838.006a1.93 1.93 0 0 0 .4-.12M717.584 838.051a3.1 3.1 0 0 0 .544-.045M716.638 837.886l.112.045" style="fill:none;stroke:red;stroke-width:.666665;stroke-linecap:round;stroke-linejoin:round;stroke-miterlimit:2;stroke-dasharray:none;stroke-opacity:1;visibility:visible"/><path d="M716.32 837.67a.979.979 0 0 0 .319.216M717.549 836.446h.036" style="fill:none;stroke:red;stroke-width:.666665;stroke-linecap:round;stroke-linejoin:round;stroke-miterlimit:2;stroke-dasharray:none;stroke-opacity:1;visibility:visible"/><path d="m529.259 907.017 1.81 1.103M530.076 906.805v1.776M429.783 855.292l1.632.888M430.6 854.868v1.847" style="fill:none;stroke:red;stroke-width:.666665;stroke-linecap:round;stroke-linejoin:round;stroke-miterlimit:4;stroke-dasharray:none;stroke-opacity:1;visibility:visible"/><path d="M618.537 797.537 612.806 795M716.638 837.886l-1.883 2.342M612.806 795l5.73 2.537M716.639 843.618l3.473-1.01" style="fill:none;stroke:red;stroke-width:1.99999;stroke-linecap:round;stroke-linejoin:round;stroke-miterlimit:4;stroke-dasharray:none;stroke-opacity:1;visibility:visible"/><path d="m530.076 908.581-1.895-2.151M430.6 856.715l-1.874-1.967M430.6 854.868l-1.874-.12" style="fill:none;stroke:red;stroke-width:.999997;stroke-linecap:round;stroke-linejoin:round;stroke-miterlimit:4;stroke-dasharray:none;stroke-opacity:1;visibility:visible"/><path d="m233.987 925.755 7.287-2.579M222.743 930.517l1.24-1.227M241.274 923.176l-7.287 2.58M221.074 931.175l-1.997-.149" style="fill:none;stroke:red;stroke-width:1.99999;stroke-linecap:round;stroke-linejoin:round;stroke-miterlimit:4;stroke-dasharray:none;stroke-opacity:1;visibility:visible"/><path d="m716.78 834.585-17.542.575M222.698 939.448l14.962 9.511M222.297 939.566l15.363 9.393M316.355 991.055l-15.048-1.645M317.685 992.871l-16.378-3.461" style="fill:none;stroke:red;stroke-width:.999997;stroke-linecap:round;stroke-linejoin:round;stroke-miterlimit:4;stroke-dasharray:none;stroke-opacity:1;visibility:visible"/><path d="m528.181 906.43 1.895 2.151" style="fill:none;stroke:red;stroke-width:.666665;stroke-linecap:round;stroke-linejoin:round;stroke-miterlimit:4;stroke-dasharray:none;stroke-opacity:1;visibility:visible"/><path d="m333.305 953.91-1.083-34.337M177.598 834.157l2.12 32.14M738.505 801.581l1.847-30.443" style="fill:none;stroke:#00ff4a;stroke-width:1.99999;stroke-linecap:round;stroke-linejoin:round;stroke-miterlimit:4;stroke-dasharray:none;stroke-opacity:1;visibility:visible" visibility="hidden"/><path d="m577.09 707.72-.001.053M183.232 832.375l3.664 2.144" style="fill:none;stroke:#00ff4a;stroke-width:.999997;stroke-linecap:round;stroke-linejoin:round;stroke-miterlimit:4;stroke-dasharray:none;stroke-opacity:1;visibility:visible" visibility="hidden"/><path d="m183.232 832.375 393.83-124.612" style="fill:none;stroke:#00ff4a;stroke-width:1.99999;stroke-linecap:round;stroke-linejoin:round;stroke-miterlimit:4;stroke-dasharray:none;stroke-opacity:1;visibility:visible" visibility="hidden"/><path d="M186.896 834.521 581.02 709.379M230.47 819.666l.312-.137.188-.166.045-.174-.104-.167-.242-.133-.35-.088-.414-.034-.432.034-.395.088-.31.133-.19.167-.047.174.106.166.241.137.35.088.415.03.431-.03.396-.088M396.7 766.94l.27-.119.151-.149.012-.156-.128-.145-.249-.126-.344-.076-.397-.03-.402.03-.357.076-.272.126-.15.145-.014.156.128.15.25.118.343.081.399.028.4-.028.36-.081M543.648 719.245l-.236.105-.121.132.014.14.146.136.253.108.34.067.38.028.376-.028.325-.067.238-.108.118-.136-.013-.14-.143-.132-.257-.105-.337-.076-.382-.021-.374.021-.327.076M472.955 742.756l.252-.115.136-.14v-.146l-.139-.14-.252-.116-.344-.075-.388-.025-.386.025-.343.075-.253.116-.134.14v.146l.136.14.252.115.344.073.39.026.388-.026.341-.073M314.583 791.8l-.29.128-.169.157-.029.167.116.156.248.13.345.083.408.028.415-.028.375-.084.29-.129.17-.156.03-.167-.117-.157-.25-.128-.345-.083-.405-.026-.417.026-.375.083M581.02 709.378l-.704 28.383" style="fill:none;stroke:#00ff4a;stroke-width:.999997;stroke-linecap:round;stroke-linejoin:round;stroke-miterlimit:4;stroke-dasharray:none;stroke-opacity:1;visibility:visible" visibility="hidden"/><path d="M580.317 737.76 222.422 855.292" style="fill:none;stroke:#00ff4a;stroke-width:1.99999;stroke-linecap:round;stroke-linejoin:round;stroke-miterlimit:4;stroke-dasharray:none;stroke-opacity:1;visibility:visible" visibility="hidden"/><path d="m183.233 832.403-.001-.028M223.417 858.504l.412-.095.45-.036.433.036.365.095.25.145.109.182-.048.193-.2.177-.326.151-.412.096-.45.033-.432-.033-.366-.096-.25-.15-.108-.178.049-.193.2-.182.324-.145M208.153 849.554l.41-.093.446-.038.428.038.357.093.25.143.104.177-.052.19-.199.175-.324.147-.412.092-.445.033-.43-.033-.358-.092-.247-.147-.104-.176.052-.189.2-.177.324-.143M332.037 919.745l.068-.028.053-.033.039-.04.02-.039.005-.04-.013-.041-.03-.035-.046-.036M326.877 921.623l5.16-1.877M326.235 921.598a.841.841 0 0 0 .642.027M326.236 921.597l-148.572-87.354" style="fill:none;stroke:#00ff4a;stroke-width:.999997;stroke-linecap:round;stroke-linejoin:round;stroke-miterlimit:4;stroke-dasharray:none;stroke-opacity:1;visibility:visible" visibility="hidden"/><path d="m177.792 833.998 4.97-1.577M177.792 833.998l-.065.024-.055.028-.04.03-.025.035-.01.032.007.036.021.031.039.03" style="fill:none;stroke:#00ff4a;stroke-width:1.99999;stroke-linecap:round;stroke-linejoin:round;stroke-miterlimit:4;stroke-dasharray:none;stroke-opacity:1;visibility:visible" visibility="hidden"/><path d="M183.346 832.446a.84.84 0 0 0-.584-.025" style="fill:none;stroke:#00ff4a;stroke-width:.999997;stroke-linecap:round;stroke-linejoin:round;stroke-miterlimit:4;stroke-dasharray:none;stroke-opacity:1;visibility:visible" visibility="hidden"/><path d="M332.133 919.452 187.099 834.64" style="fill:none;stroke:#00ff4a;stroke-width:1.99999;stroke-linecap:round;stroke-linejoin:round;stroke-miterlimit:4;stroke-dasharray:none;stroke-opacity:1;visibility:visible" visibility="hidden"/><path d="m295.776 900.934.421-.107.468-.034.455.034.387.107.273.157.127.199-.036.21-.194.194-.326.16-.424.107-.467.036-.455-.036-.388-.107-.272-.16-.126-.193.034-.211.194-.199.329-.157M279.154 891.185l.421-.103.463-.036.45.036.38.103.27.156.123.195-.04.205-.194.193-.328.158-.421.104-.461.033-.451-.033-.381-.104-.27-.158-.122-.193.04-.205.194-.194.327-.157M327.367 955.987a.81.81 0 0 0 .638.027" style="fill:none;stroke:#00ff4a;stroke-width:.999997;stroke-linecap:round;stroke-linejoin:round;stroke-miterlimit:4;stroke-dasharray:none;stroke-opacity:1;visibility:visible" visibility="hidden"/><path d="m328.005 956.013 5.116-1.923M179.784 866.386l147.584 89.601M179.717 866.3a.11.11 0 0 0 .067.084M333.12 954.09a.237.237 0 0 0 .185-.182" style="fill:none;stroke:#00ff4a;stroke-width:1.99999;stroke-linecap:round;stroke-linejoin:round;stroke-miterlimit:4;stroke-dasharray:none;stroke-opacity:1;visibility:visible" visibility="hidden"/><path d="M735.905 772.592a.861.861 0 0 0 .558.02" style="fill:none;stroke:#00ff4a;stroke-width:.999997;stroke-linecap:round;stroke-linejoin:round;stroke-miterlimit:4;stroke-dasharray:none;stroke-opacity:1;visibility:visible" visibility="hidden"/><path d="M734.082 803.073a.852.852 0 0 0 .555.02" style="fill:none;stroke:#00ff4a;stroke-width:1.99999;stroke-linecap:round;stroke-linejoin:round;stroke-miterlimit:4;stroke-dasharray:none;stroke-opacity:1;visibility:visible" visibility="hidden"/><path d="m740.243 771.235.05-.023.031-.028.023-.026.004-.03-.012-.03-.023-.026-.04-.032-.05-.018M736.464 772.61l3.779-1.375M735.905 772.59l-158.717-64.777M577.208 707.627l-.048.02-.035.02-.025.028-.01.021.007.024.018.027.029.025.045.022" style="fill:none;stroke:#00ff4a;stroke-width:.999997;stroke-linecap:round;stroke-linejoin:round;stroke-miterlimit:4;stroke-dasharray:none;stroke-opacity:1;visibility:visible" visibility="hidden"/><path d="m577.208 707.627 3.733-1.179M581.452 706.462a.87.87 0 0 0-.512-.012M740.225 771.021l-158.772-64.559" style="fill:none;stroke:#00ff4a;stroke-width:1.99999;stroke-linecap:round;stroke-linejoin:round;stroke-miterlimit:4;stroke-dasharray:none;stroke-opacity:1;visibility:visible" visibility="hidden"/><path d="m702.73 757.408-.227.119-.096.142.04.156.178.144.29.12.367.078.404.026.387-.026.328-.078.226-.12.099-.144-.043-.156-.177-.142-.29-.119-.367-.075-.402-.028-.39.028-.327.075M609.134 719.284l-.23.104-.106.133.023.144.154.13.264.108.346.072.382.025.375-.025.32-.072.228-.108.107-.13-.023-.144-.153-.133-.266-.104-.344-.073-.382-.023-.374.023-.321.073M685.08 750.22l-.228.113-.099.14.038.158.172.141.284.116.365.076.397.025.387-.025.325-.076.227-.116.101-.141-.04-.158-.172-.14-.284-.113-.365-.079-.397-.026-.384.026-.327.079M625.537 725.964l-.23.11-.107.134.028.144.158.136.27.107.348.07.386.026.375-.026.323-.07.228-.107.108-.136-.028-.144-.159-.135-.27-.109-.346-.075-.387-.021-.377.021-.32.075" style="fill:none;stroke:#00ff4a;stroke-width:.999997;stroke-linecap:round;stroke-linejoin:round;stroke-miterlimit:4;stroke-dasharray:none;stroke-opacity:1;visibility:visible" visibility="hidden"/><path d="m734.639 803.092 3.757-1.412M579.867 737.912l154.217 65.161" style="fill:none;stroke:#00ff4a;stroke-width:1.99999;stroke-linecap:round;stroke-linejoin:round;stroke-miterlimit:4;stroke-dasharray:none;stroke-opacity:1;visibility:visible" visibility="hidden"/><path d="m716.613 786.8.017.593.115.606.205.593.294.55.358.48.411.391.444.284.459.156.448.035.42-.104.369-.224.303-.344.222-.443.13-.524.032-.577-.067-.604-.163-.603-.249-.574-.33-.519-.389-.44-.432-.337-.453-.223-.457-.093-.435.033-.395.167-.338.289-.263.395-.175.486-.081.551M613.85 743.805l.027.568.114.579.199.566.27.52.331.455.379.365.404.258.416.148.404.017.375-.107.328-.226.265-.338.19-.428.106-.504.02-.552-.073-.581-.156-.575-.238-.548-.305-.492-.356-.412-.395-.314-.414-.203-.41-.083-.39.046-.352.172-.299.28-.23.386-.147.471-.063.532" style="fill:none;stroke:#00ff4a;stroke-width:.999997;stroke-linecap:round;stroke-linejoin:round;stroke-miterlimit:4;stroke-dasharray:none;stroke-opacity:1;visibility:visible" visibility="hidden"/><path d="M738.394 801.682a.14.14 0 0 0 .108-.1" style="fill:none;stroke:#00ff4a;stroke-width:1.99999;stroke-linecap:round;stroke-linejoin:round;stroke-miterlimit:4;stroke-dasharray:none;stroke-opacity:1;visibility:visible" visibility="hidden"/><path d="m720.765 788.834-.363-.095-.465-.034-.35.098-.213.191-.096.259.046.309.217.27.335.146.385.04M617.615 745.705l-.052-.012-.113-.019-.112-.012-.114-.008-.11.006-.094.008-.174.044-.08.033-.062.037-.108.088-.042.054-.04.054-.052.122-.018.065-.009.068.013.147.023.072.03.062.04.067.053.064.065.053.063.04.152.067.086.027.084.016.119.01M327.368 955.987l-1.132-34.39M734.084 803.072l1.821-30.481" style="fill:none;stroke:#00ff4a;stroke-width:.999997;stroke-linecap:round;stroke-linejoin:round;stroke-miterlimit:4;stroke-dasharray:none;stroke-opacity:1;visibility:visible" visibility="hidden"/><path d="M128.802 788.809a.427.427 0 0 0 .042-.044M118.426 790.006a13.353 13.353 0 0 0 8.442 0M126.866 790.006a5.008 5.008 0 0 0 1.935-1.196M131.29 786.055l-2.445 2.707M131.23 701.457a1.667 1.667 0 0 0 .06-2.293M128.533 703.124a6.924 6.924 0 0 0 2.696-1.667M128.802 698.101a1.197 1.197 0 0 0 0-1.69M128.802 696.412a4.964 4.964 0 0 0-1.932-1.195M126.866 695.217a13.387 13.387 0 0 0-8.441 0M118.426 695.217a4.92 4.92 0 0 0-1.933 1.195M126.866 699.294a4.88 4.88 0 0 0 1.935-1.194M121.346 699.918a13.317 13.317 0 0 0 5.52-.622M131.23 786.118c.311-.312.486-.738.486-1.177M128.533 787.788a6.912 6.912 0 0 0 2.696-1.668M128.844 696.454l2.445 2.71M131.716 700.28v84.661" style="fill:none;stroke:#00ff4a;stroke-width:.999997;stroke-linecap:round;stroke-linejoin:round;stroke-miterlimit:2;stroke-dasharray:none;stroke-opacity:1;visibility:visible" visibility="hidden"/><path d="M124.653 706.956v78.662M120.61 706.988v78.63M128.694 706.055v78.664" style="fill:none;stroke:#00ff4a;stroke-width:.999997;stroke-linecap:round;stroke-linejoin:round;stroke-miterlimit:4;stroke-dasharray:none;stroke-opacity:1;visibility:visible" visibility="hidden"/><path d="M122.135 693.193v-20.364M517.287 753.784l.3-.287" style="fill:none;stroke:#00ff4a;stroke-width:.666665;stroke-linecap:round;stroke-linejoin:round;stroke-miterlimit:4;stroke-dasharray:none;stroke-opacity:1;visibility:visible" visibility="hidden"/><path d="m126.866 699.296 1.667 3.828M128.801 698.1l-12.308-1.688M126.868 790.006l1.665-2.218M122.135 693.193l9.581 7.087" style="fill:none;stroke:#00ff4a;stroke-width:.999997;stroke-linecap:round;stroke-linejoin:round;stroke-miterlimit:2;stroke-dasharray:none;stroke-opacity:1;visibility:visible" visibility="hidden"/><path d="m122.135 693.193 2.518 13.763M131.716 784.941l-7.063.677M122.135 693.193l-1.525 13.795M131.716 784.941l-11.106.677M122.135 693.193l6.559 12.862M131.716 784.941l-3.022-.222" style="fill:none;stroke:#00ff4a;stroke-width:.999997;stroke-linecap:round;stroke-linejoin:round;stroke-miterlimit:4;stroke-dasharray:none;stroke-opacity:1;visibility:visible" visibility="hidden"/><path d="m131.716 700.28-9.581-7.087" style="fill:none;stroke:#00ff4a;stroke-width:.666665;stroke-linecap:round;stroke-linejoin:round;stroke-miterlimit:4;stroke-dasharray:none;stroke-opacity:1;visibility:visible" visibility="hidden"/><path d="m128.801 698.1-7.455 1.818" style="fill:none;stroke:#00ff4a;stroke-width:.999997;stroke-linecap:round;stroke-linejoin:round;stroke-miterlimit:2;stroke-dasharray:none;stroke-opacity:1;visibility:visible" visibility="hidden"/></svg>