<svg xmlns="http://www.w3.org/2000/svg" baseProfile="full" height="1122.52" preserveAspectRatio="xMinYMin meet" style="width:914px;height:841px" width="793.701" xml:space="preserve"><path d="m605.568 351.933 30.126-6.45v-12.99L629.2 331.1l-192.53 41.29v206.095M589.767 532.908v-177.22M605.54 532.908v-180.93" style="fill:none;stroke:red;stroke-width:1.99999;stroke-linecap:round;stroke-linejoin:round;stroke-miterlimit:4;stroke-dasharray:none;stroke-opacity:1;visibility:visible"/><path d="m595.527 354.082 10.04-2.15" style="fill:none;stroke:red;stroke-width:.999997;stroke-linecap:round;stroke-linejoin:round;stroke-miterlimit:4;stroke-dasharray:none;stroke-opacity:1;visibility:visible"/><path d="m588.421 533.45-135.517 28.67M434.815 566.31 132.8 512.03M451.518 565.383V384.917l144.01-30.835M286.162 294.415l30.816-6.458V275.43l-6.132-1.22-193.356 40.705v65.778" style="fill:none;stroke:red;stroke-width:1.99999;stroke-linecap:round;stroke-linejoin:round;stroke-miterlimit:4;stroke-dasharray:none;stroke-opacity:1;visibility:visible"/><path d="M117.49 395.36v125.95l326.14 58.92 192.063-40.363V525.95l-7.423-.927-21.76 4.602" style="fill:none;stroke:red;stroke-width:1.99999;stroke-linecap:round;stroke-linejoin:round;stroke-miterlimit:4;stroke-dasharray:none;stroke-opacity:1;visibility:visible"/><path d="m276.92 296.353 9.241-1.938" style="fill:none;stroke:red;stroke-width:.999997;stroke-linecap:round;stroke-linejoin:round;stroke-miterlimit:4;stroke-dasharray:none;stroke-opacity:1;visibility:visible"/><path d="M443.63 580.228v-12.177l-6.154-.751M118.282 510.222l6.01 1.126v9.763M119.046 469.59c0-1.103.638-1.998 1.42-1.998.786 0 1.422.895 1.422 1.998 0 1.102-.636 1.996-1.422 1.996-.782 0-1.42-.894-1.42-1.996M119.046 368.895c0-1.102.638-1.997 1.42-1.997.786 0 1.422.895 1.422 1.997 0 1.103-.636 1.996-1.422 1.996-.782 0-1.42-.893-1.42-1.996M117.862 362.107l6.372 1.075 4.148-.23M117.709 374.315l6.296 1.383 3.993-.384M439.743 526.624c0-1.081.464-1.959 1.036-1.959.573 0 1.037.878 1.037 1.96 0 1.079-.464 1.955-1.036 1.955-.573.001-1.037-.875-1.037-1.956M439.743 426.414c0-1.082.464-1.959 1.036-1.959.573 0 1.037.877 1.037 1.959 0 1.081-.464 1.956-1.036 1.956-.573.001-1.037-.875-1.037-1.956M437.055 431.827l5.683.844M436.978 419.464l6.066.922M117.49 314.915l6.554.928v11.083l-5.684-.928M436.67 372.39l6.96 1.392v12.061l-6.96-.926M285.895 475.846V425.88M285.895 410.162v-114.32M271.05 474.455v-51.1M271.05 407.636V299.031M286.823 480.02l148.353 26.7M453.355 509.99l129.915 23.383M277.082 490.69l158.182 28.69M453.243 522.639l97.554 17.691M134.657 505.072l135.996-28.705M286.87 472.943l23.615-4.985 6.03.928v13.918l-4.578.959M276.614 491.162l-117.37 24.582M133.265 507.855v-108.64M133.265 382.657v-56.195l143.656-30.11" style="fill:none;stroke:red;stroke-width:1.99999;stroke-linecap:round;stroke-linejoin:round;stroke-miterlimit:4;stroke-dasharray:none;stroke-opacity:1;visibility:visible"/><path d="m134.046 326.245-9.461 1.774M589.052 533.495l6.8 1.477v-180.05M443.888 566.608V386.261l10.643-2.068M443.888 373.843l190.398-41.093M124.586 316.193l190.695-39.914M132.865 512.503l-7.688 1.479M315.871 469.93l-191.581 40.8V397.495M124.29 381.827v-54.4M286.602 480.278l-9.756 1.774v7.688M574.27 536.156 278.322 482.94M444.184 567.79l190.99-40.8M125.177 514.572l309.842 55.878" style="fill:none;stroke:red;stroke-width:.999997;stroke-linecap:round;stroke-linejoin:round;stroke-miterlimit:4;stroke-dasharray:none;stroke-opacity:1;visibility:visible"/><path d="m437.476 567.3-2.661-.99M119.046 368.895l-1.556 11.798M117.49 380.693v14.667M588.421 533.45l18.089-3.825M434.815 566.31l2.661.99M117.49 380.693l1.556-11.798M443.044 420.386l-5.989 11.441M436.978 419.464l5.76 13.207M442.738 432.671l-5.76-13.207M437.055 431.827l5.989-11.441M285.895 410.162v15.718M285.895 425.88v-15.718M271.05 407.636v15.719M271.05 423.355v-15.719M453.355 509.99l-18.179-3.27M435.176 506.72l18.179 3.27M589.052 533.495l-5.782-.122M453.243 522.639l-17.979-3.259M435.264 519.38l17.979 3.259M132.865 512.503l1.792-7.431M286.87 472.943l-16.217 3.424M286.602 480.278l.268-7.335M315.871 469.93l-3.934 13.833M133.265 382.657v16.558M133.265 399.215v-16.558" style="fill:none;stroke:red;stroke-width:1.99999;stroke-linecap:round;stroke-linejoin:round;stroke-miterlimit:4;stroke-dasharray:none;stroke-opacity:1;visibility:visible"/><path d="m124.586 316.193 9.46 10.052M443.888 373.843l10.643 10.35M454.531 384.193l-10.643-10.35M134.046 326.245l-9.46-10.052M311.937 483.763l3.934-13.833M124.29 381.827v15.668M119.046 368.895l5.244 12.932M589.052 533.495l-14.782 2.661M437.476 567.3l-2.457 3.15" style="fill:none;stroke:red;stroke-width:.999997;stroke-linecap:round;stroke-linejoin:round;stroke-miterlimit:4;stroke-dasharray:none;stroke-opacity:1;visibility:visible"/><path d="m388.515 441.992 4.705.672-2.688 1.12-323.99-58.254 3.359-.673" style="fill:none;stroke:#00ff4a;stroke-width:1.99999;stroke-linecap:round;stroke-linejoin:round;stroke-miterlimit:4;stroke-dasharray:none;stroke-opacity:1;visibility:visible"/><path d="M387.843 442.887V431.46l2.69.448 3.807-1.344L71.245 372.31l-5.601.67 5.153 1.345v10.755" style="fill:none;stroke:#00ff4a;stroke-width:1.99999;stroke-linecap:round;stroke-linejoin:round;stroke-miterlimit:4;stroke-dasharray:none;stroke-opacity:1;visibility:visible"/><path d="M387.843 431.46 70.797 374.325" style="fill:none;stroke:#00ff4a;stroke-width:.999997;stroke-linecap:round;stroke-linejoin:round;stroke-miterlimit:4;stroke-dasharray:none;stroke-opacity:1;visibility:visible"/><path d="m80.866 373.317-1.292.332-.017 1.333" style="fill:none;stroke:#00ff4a;stroke-width:1.33333;stroke-linecap:butt;stroke-linejoin:miter;stroke-miterlimit:10;stroke-dasharray:none;stroke-opacity:1;visibility:visible"/><path d="m387.843 431.46.672 10.532" style="fill:none;stroke:#00ff4a;stroke-width:1.99999;stroke-linecap:round;stroke-linejoin:round;stroke-miterlimit:4;stroke-dasharray:none;stroke-opacity:1;visibility:visible"/><path d="m388.515 441.992-.672-10.532" style="fill:none;stroke:#00ff4a;stroke-width:.999997;stroke-linecap:round;stroke-linejoin:round;stroke-miterlimit:4;stroke-dasharray:none;stroke-opacity:1;visibility:visible"/><path d="m286.87 472.943-.975 2.903M286.87 472.943l-15.82 1.512" style="fill:none;stroke:red;stroke-width:1.99999;stroke-linecap:round;stroke-linejoin:round;stroke-miterlimit:4;stroke-dasharray:none;stroke-opacity:1;visibility:visible"/><path d="M387.843 431.46v11.427" style="fill:none;stroke:#00ff4a;stroke-width:1.99999;stroke-linecap:round;stroke-linejoin:round;stroke-miterlimit:4;stroke-dasharray:none;stroke-opacity:1;visibility:visible"/></svg>