<svg xmlns="http://www.w3.org/2000/svg" baseProfile="full" height="1122.52" preserveAspectRatio="xMinYMin meet" style="width:732px;height:841px" width="793.701" xml:space="preserve"><path d="M696.2 826.158a.376.376 0 0 0-.233-.373M695.914 831.074l.29-4.916M696.094 826.257a.497.497 0 0 0-.257-.47M695.66 831.413a.39.39 0 0 0 .252-.338M695.808 831.172l.288-4.917M285.917 986.182a.447.447 0 0 0 .398.036" style="fill:none;stroke:red;stroke-width:.999997;stroke-linecap:round;stroke-linejoin:round;stroke-miterlimit:4;stroke-dasharray:none;stroke-opacity:1;visibility:visible" visibility="hidden"/><path d="M695.806 831.173a.135.135 0 0 0 .104-.099M696.094 826.257a.132.132 0 0 0 .107-.098M695.968 825.785a.177.177 0 0 0-.134 0M695.66 831.413a.26.26 0 0 0 .146-.24" style="fill:none;stroke:red;stroke-width:.999997;stroke-linecap:round;stroke-linejoin:round;stroke-miterlimit:4;stroke-dasharray:none;stroke-opacity:1;visibility:visible" visibility="hidden"/><path d="m286.315 986.218 409.084-154.454M168.317 912.926l117.6 73.254M167.76 907.138l.361 5.463" style="fill:none;stroke:red;stroke-width:1.99999;stroke-linecap:round;stroke-linejoin:round;stroke-miterlimit:4;stroke-dasharray:none;stroke-opacity:1;visibility:visible" visibility="hidden"/><path d="M168.12 912.6a.419.419 0 0 0 .197.328" style="fill:none;stroke:red;stroke-width:.999997;stroke-linecap:round;stroke-linejoin:round;stroke-miterlimit:4;stroke-dasharray:none;stroke-opacity:1;visibility:visible" visibility="hidden"/><path d="M695.94 826.513a.38.38 0 0 0-.234-.376M695.652 831.428l.29-4.916M573.273 774.444l-3.977-1.681M674.026 816.982l-94.044-39.705M695.708 826.136l-15.045-6.352M695.398 831.765a.387.387 0 0 0 .25-.336M425.286 820.807l143.842-48.059M183.368 901.633l154.066-51.475M167.943 906.786l8.737-2.919" style="fill:none;stroke:red;stroke-width:1.99999;stroke-linecap:round;stroke-linejoin:round;stroke-miterlimit:4;stroke-dasharray:none;stroke-opacity:1;visibility:visible" visibility="hidden"/><path d="m658.817 812.74-.268.147-.12.174.048.187.205.18.34.145.435.092.476.034.456-.034.388-.092.267-.145.114-.18-.046-.187-.207-.174-.339-.147-.434-.09-.472-.035-.458.034-.385.091M591.528 784.273l-.268.133-.13.166.033.178.186.162.318.137.412.088.454.03.446-.03.382-.088.27-.137.126-.162-.032-.178-.188-.166-.316-.133-.414-.09-.454-.027-.445.028-.38.089M195.352 921.001l.39-.18.24-.228.06-.233-.127-.227-.295-.183-.43-.117-.511-.043-.538.043-.488.117-.388.183-.241.227-.063.233.126.228.293.18.43.12.514.04.536-.04.492-.12M258.283 959.849l.392-.199.235-.238.045-.259-.144-.243-.32-.194-.456-.131-.535-.043-.554.043-.502.13-.394.195-.234.243-.048.259.146.238.32.199.456.13.536.043.554-.044.503-.129M569.292 772.764a.244.244 0 0 0-.165-.015M285.957 980.278l.215 5.57M285.929 979.828l409.646-153.69M167.943 906.786l117.985 73.041M168.188 912.691a.293.293 0 0 0 .129.236" style="fill:none;stroke:red;stroke-width:.999997;stroke-linecap:round;stroke-linejoin:round;stroke-miterlimit:4;stroke-dasharray:none;stroke-opacity:1;visibility:visible" visibility="hidden"/><path d="M179.758 903.35v-.31M179.19 903.265v-.27M179.95 903.47l-.503-.305M180.465 902.76l-.707.28M178.671 902.657l.517.336M178.795 902.738l.203-.173M180.264 902.84v-.01a.263.263 0 0 0-.112-.216M180.152 902.614a1.62 1.62 0 0 0-.2-.05M178.344 902.89a1.196 1.196 0 0 0-.162.45M180.577 902.857a.977.977 0 0 0-.112-.098M180.77 903.973l.004-.573M180.773 903.4a1.219 1.219 0 0 0-.168-.508M179.447 903.163l-.65.256M178.649 902.667a.821.821 0 0 0-.277.19M178.67 902.658l-.022.01M179.474 902.523c-.16 0-.32.014-.474.04M179.949 902.565a2.835 2.835 0 0 0-.473-.04M178.183 904.01v-.67M180.736 911.474a.256.256 0 0 0 .076-.184M178.138 911.291c0 .07.027.136.075.184M180.42 911.69a.981.981 0 0 0 .316-.216M180.018 911.807c.139-.024.272-.062.402-.117M179.474 911.857c.184 0 .364-.017.544-.048M178.93 911.807c.18.033.362.048.544.048M178.213 911.474a.96.96 0 0 0 .316.216M178.529 911.69c.13.056.263.095.401.117M179.474 904.52c.176 0 .356-.012.528-.044M180 904.474a1.72 1.72 0 0 0 .39-.115M180.389 904.36a.93.93 0 0 0 .307-.208M180.697 904.151a.253.253 0 0 0 .073-.177M178.56 904.36c.236.11.493.167.752.167.042-.001.084-.004.126-.007M178.253 904.151a.945.945 0 0 0 .305.21M178.182 904.011a.232.232 0 0 0 .07.14M180.812 905.561v5.73M180.42 905.162c-.12-.05-.246-.09-.372-.112M180.736 905.378a.953.953 0 0 0-.316-.216M178.9 905.05a1.901 1.901 0 0 0-.37.112M178.213 905.378a.264.264 0 0 0-.076.184M180.812 905.56a.26.26 0 0 0-.078-.182M178.139 905.561v5.73M178.529 905.162a.947.947 0 0 0-.316.216M178.9 904.475v1.085M180.047 904.465v1.096" style="fill:none;stroke:red;stroke-width:.666665;stroke-linecap:round;stroke-linejoin:round;stroke-miterlimit:2;stroke-dasharray:none;stroke-opacity:1;visibility:visible" visibility="hidden"/><path d="M178.924 904.483a.11.11 0 0 1 .01.012M180.736 905.746a.26.26 0 0 0 .076-.184M180.42 905.96a.977.977 0 0 0 .316-.213M180.018 906.08a2 2 0 0 0 .402-.12M179.474 906.126c.184 0 .364-.016.544-.047M178.529 905.96l.111.046M178.213 905.746a.936.936 0 0 0 .316.214M178.138 905.56c0 .07.027.136.075.186M179.438 904.519h.036M274.128 961.459v-.31M273.559 961.373v-.272M274.32 961.577l-.503-.307M274.835 960.867l-.707.281M273.04 960.766l.519.335M273.164 960.845l.203-.173M274.634 960.948v-.013a.26.26 0 0 0-.112-.213M274.52 960.72a1.41 1.41 0 0 0-.2-.049M272.713 961a1.188 1.188 0 0 0-.163.45M274.946 960.964a.977.977 0 0 0-.112-.097M275.14 962.081l.004-.575M275.143 961.507a1.219 1.219 0 0 0-.168-.507M273.817 961.27l-.65.257M273.04 960.767c-.01.001-.016.008-.024.01M273.843 960.631c-.16 0-.32.015-.473.041M274.32 960.672a2.837 2.837 0 0 0-.475-.04" style="fill:none;stroke:red;stroke-width:.666665;stroke-linecap:round;stroke-linejoin:round;stroke-miterlimit:2;stroke-dasharray:none;stroke-opacity:1;visibility:visible" visibility="hidden"/><path d="M273.018 960.776a.859.859 0 0 0-.277.188M272.552 962.118v-.668M275.106 969.583a.259.259 0 0 0 .076-.185M272.507 969.398c0 .07.027.136.075.185M274.789 969.8a1.021 1.021 0 0 0 .316-.217M274.387 969.916c.139-.024.273-.064.403-.118M273.843 969.963c.183 0 .364-.016.544-.047M273.3 969.916c.177.031.36.047.542.047M272.582 969.583a.956.956 0 0 0 .316.215M272.898 969.8c.128.053.263.093.401.117M273.843 962.627c.177 0 .355-.015.528-.044M274.371 962.583c.135-.023.263-.061.39-.115M274.76 962.467c.113-.05.22-.12.305-.21M275.066 962.26a.253.253 0 0 0 .073-.179M272.927 962.467a1.812 1.812 0 0 0 .879.159M272.622 962.26a.945.945 0 0 0 .305.207M272.551 962.118a.23.23 0 0 0 .071.14M275.181 963.668v5.73M273.269 963.156a1.856 1.856 0 0 0-.371.114M272.582 963.486a.264.264 0 0 0-.076.184M275.18 963.668a.261.261 0 0 0-.076-.184M274.789 963.27c-.12-.05-.246-.09-.371-.114" style="fill:none;stroke:red;stroke-width:.666665;stroke-linecap:round;stroke-linejoin:round;stroke-miterlimit:2;stroke-dasharray:none;stroke-opacity:1;visibility:visible" visibility="hidden"/><path d="M275.106 963.486a.973.973 0 0 0-.316-.216M272.508 963.668v5.73M272.898 963.27a.987.987 0 0 0-.317.216M273.27 962.584v1.084M274.417 962.572v1.096M273.293 962.59a.032.032 0 0 0 .01.012M275.106 963.852a.253.253 0 0 0 .076-.184M274.789 964.07a.985.985 0 0 0 .316-.218M274.387 964.187a1.83 1.83 0 0 0 .403-.119M273.843 964.235a3.1 3.1 0 0 0 .544-.047M272.898 964.07l.112.042M272.582 963.852a.963.963 0 0 0 .316.218M272.507 963.668c0 .072.027.136.075.184M273.808 962.627h.036M576.703 769.472v-.31M576.134 769.385v-.272M576.896 769.59l-.503-.307M577.41 768.88l-.707.281M575.617 768.779l.517.335M575.74 768.858l.201-.173M577.208 768.96v-.01a.265.265 0 0 0-.112-.216M577.096 768.734a1.475 1.475 0 0 0-.201-.05M575.288 769.012a1.21 1.21 0 0 0-.161.45M577.52 768.978a.793.793 0 0 0-.112-.097M577.715 770.093l.004-.575M577.717 769.52a1.183 1.183 0 0 0-.167-.506M576.393 769.283l-.65.257M575.592 768.79a.852.852 0 0 0-.277.188M575.616 768.78c-.008 0-.016.008-.024.01M576.419 768.646c-.16 0-.32.014-.476.04M576.895 768.685a2.84 2.84 0 0 0-.475-.04M575.127 770.13v-.668M577.679 777.597a.26.26 0 0 0 .077-.185M575.081 777.412a.267.267 0 0 0 .076.185M577.364 777.812a.981.981 0 0 0 .315-.216M576.963 777.93a1.8 1.8 0 0 0 .4-.117M576.419 777.977c.181 0 .361-.015.541-.047M575.875 777.93c.178.032.36.047.542.047M575.156 777.597a.979.979 0 0 0 .317.216M575.473 777.812c.128.056.262.094.402.117M576.419 770.64c.176 0 .353-.013.526-.043M576.945 770.597c.136-.024.265-.061.39-.115M577.335 770.48a.91.91 0 0 0 .305-.207M577.64 770.272a.253.253 0 0 0 .073-.178M575.504 770.48a1.78 1.78 0 0 0 .88.161M575.196 770.272a.944.944 0 0 0 .307.208M575.127 770.13a.24.24 0 0 0 .07.142M577.756 771.681v5.73M577.364 771.284a1.867 1.867 0 0 0-.372-.114M577.679 771.498a.963.963 0 0 0-.316-.214M575.845 771.169a1.89 1.89 0 0 0-.37.113M575.156 771.498a.265.265 0 0 0-.076.184M577.755 771.68a.258.258 0 0 0-.076-.182M575.083 771.681v5.73M575.473 771.284a1.004 1.004 0 0 0-.317.214M575.846 770.597v1.084M576.993 770.585v1.096" style="fill:none;stroke:red;stroke-width:.666665;stroke-linecap:round;stroke-linejoin:round;stroke-miterlimit:2;stroke-dasharray:none;stroke-opacity:1;visibility:visible" visibility="hidden"/><path d="M575.867 770.602a.032.032 0 0 0 .01.012M577.679 771.868a.26.26 0 0 0 .077-.186M577.364 772.082a.981.981 0 0 0 .315-.216M576.963 772.2c.137-.022.272-.063.4-.117M576.419 772.248c.181 0 .361-.015.541-.048M575.473 772.082c.035.015.075.03.112.043M575.156 771.868a.979.979 0 0 0 .317.216M575.081 771.68a.267.267 0 0 0 .076.187M576.384 770.64h.035M677.791 812.135v-.31M677.222 812.05v-.27M677.984 812.255l-.503-.308M678.498 811.544l-.707.28M676.705 811.443l.517.336M676.829 811.522l.201-.172M678.296 811.625v-.012a.263.263 0 0 0-.112-.215M678.185 811.398a1.995 1.995 0 0 0-.201-.048M676.376 811.675a1.22 1.22 0 0 0-.162.451M678.609 811.642a.793.793 0 0 0-.112-.097M678.803 812.757l.004-.575M678.805 812.183a1.188 1.188 0 0 0-.168-.508M677.481 811.947l-.65.257M676.68 811.454a.832.832 0 0 0-.278.188M676.704 811.443l-.024.011M677.508 811.307a2.7 2.7 0 0 0-.476.043" style="fill:none;stroke:red;stroke-width:.666665;stroke-linecap:round;stroke-linejoin:round;stroke-miterlimit:2;stroke-dasharray:none;stroke-opacity:1;visibility:visible" visibility="hidden"/><path d="M677.982 811.35a2.708 2.708 0 0 0-.474-.043M676.216 812.795v-.67M678.768 820.26a.257.257 0 0 0 .077-.187M676.17 820.074c0 .07.028.137.076.186M678.452 820.474a.979.979 0 0 0 .314-.214M678.052 820.593c.137-.024.272-.063.401-.119M677.508 820.64c.182 0 .362-.014.542-.046M676.962 820.593c.179.032.362.047.543.047M676.244 820.26a.955.955 0 0 0 .316.213M676.562 820.474a1.72 1.72 0 0 0 .402.119M677.508 813.305c.176 0 .352-.015.526-.046M678.033 813.26c.136-.026.264-.063.39-.116M678.422 813.145a.892.892 0 0 0 .306-.21M678.729 812.935a.256.256 0 0 0 .073-.177M676.592 813.145c.236.108.493.165.75.165.044 0 .086-.003.128-.005M676.284 812.935a.944.944 0 0 0 .306.21M676.214 812.795a.232.232 0 0 0 .071.14M678.845 814.345v5.728M678.452 813.947a1.89 1.89 0 0 0-.372-.112M678.768 814.162a.947.947 0 0 0-.316-.216M676.932 813.834a1.887 1.887 0 0 0-.372.112M676.244 814.162a.263.263 0 0 0-.075.184M678.844 814.346a.26.26 0 0 0-.076-.184M676.171 814.345v5.728M676.562 813.947a1.008 1.008 0 0 0-.317.216M676.935 813.261v1.084M678.082 813.25v1.095" style="fill:none;stroke:red;stroke-width:.666665;stroke-linecap:round;stroke-linejoin:round;stroke-miterlimit:2;stroke-dasharray:none;stroke-opacity:1;visibility:visible" visibility="hidden"/><path d="M676.954 813.267c.003.004.007.011.011.014M678.768 814.53a.26.26 0 0 0 .077-.184M678.452 814.747a.981.981 0 0 0 .314-.216M678.052 814.863c.137-.023.272-.063.401-.117M677.508 814.911c.182 0 .362-.014.542-.048M676.562 814.747l.112.044M676.244 814.53a.959.959 0 0 0 .316.216M676.17 814.346c0 .07.028.135.076.184M677.472 813.304h.035" style="fill:none;stroke:red;stroke-width:.666665;stroke-linecap:round;stroke-linejoin:round;stroke-miterlimit:2;stroke-dasharray:none;stroke-opacity:1;visibility:visible" visibility="hidden"/><path d="m575.473 772.082-2.2 2.362M676.562 814.747l-2.536 2.235M575.473 777.813l4.51-.536M676.56 820.473l4.103-.689M180.465 902.76l2.903-1.127M178.796 903.419l-2.116.448" style="fill:none;stroke:red;stroke-width:1.99999;stroke-linecap:round;stroke-linejoin:round;stroke-miterlimit:4;stroke-dasharray:none;stroke-opacity:1;visibility:visible" visibility="hidden"/><path d="m676.68 811.454-17.863 1.286M676.932 813.834l-18.115-1.094M577.364 777.812l14.164 6.461M576.96 777.93l14.568 6.343M180.42 911.69l14.932 9.311M180.018 911.807l15.334 9.194M273.018 960.776l-14.735-.927M273.016 960.777l-14.733-.928" style="fill:none;stroke:red;stroke-width:.999997;stroke-linecap:round;stroke-linejoin:round;stroke-miterlimit:4;stroke-dasharray:none;stroke-opacity:1;visibility:visible" visibility="hidden"/><path d="m509.638 895.819.505-31.981M382.442 805.89l.347 24.295" style="fill:none;stroke:#00ff4a;stroke-width:1.99999;stroke-linecap:round;stroke-linejoin:round;stroke-miterlimit:4;stroke-dasharray:none;stroke-opacity:1;visibility:visible"/><path d="M505.036 865.53c.188.08.4.085.59.021" style="fill:none;stroke:#00ff4a;stroke-width:.999997;stroke-linecap:round;stroke-linejoin:round;stroke-miterlimit:4;stroke-dasharray:none;stroke-opacity:1;visibility:visible"/><path d="M387.426 804.4a.852.852 0 0 0-.55-.02M510.039 863.719 387.429 804.4" style="fill:none;stroke:#00ff4a;stroke-width:1.99999;stroke-linecap:round;stroke-linejoin:round;stroke-miterlimit:4;stroke-dasharray:none;stroke-opacity:1;visibility:visible"/><path d="m510.004 863.967.057-.027.042-.028.029-.032.01-.034-.002-.034-.02-.034-.033-.032-.05-.027M505.63 865.55l4.372-1.584M505.038 865.53l-122.513-59.547" style="fill:none;stroke:#00ff4a;stroke-width:.999997;stroke-linecap:round;stroke-linejoin:round;stroke-miterlimit:4;stroke-dasharray:none;stroke-opacity:1;visibility:visible"/><path d="m382.589 805.767 4.29-1.387M382.589 805.767l-.055.02-.044.027-.03.029-.014.03-.002.029.012.029.028.027.041.025" style="fill:none;stroke:#00ff4a;stroke-width:1.99999;stroke-linecap:round;stroke-linejoin:round;stroke-miterlimit:4;stroke-dasharray:none;stroke-opacity:1;visibility:visible"/><path d="m482.504 886.453 22.067 11.104M382.961 836.361l93.066 46.833M489.194 883.458l.443.185.424.052.394-.088.343-.224.272-.348.192-.457.101-.543.007-.605-.088-.64-.177-.643-.264-.617-.334-.56-.386-.477-.424-.372-.442-.254-.438-.118-.41.021-.369.159-.308.285-.232.41-.148.502-.055.576M389.912 833.74l.392.288.393.168.38.036.347-.097.295-.226.236-.34.158-.444.08-.526-.006-.58-.092-.607-.175-.61-.244-.582-.307-.525-.353-.446-.384-.345-.399-.23-.389-.1-.363.033-.324.161-.265.287-.197.397-.118.484M382.874 836.265a.123.123 0 0 0 .085.097M509.499 895.95a.168.168 0 0 0 .138-.13M504.57 897.557l.468-32.028" style="fill:none;stroke:#00ff4a;stroke-width:.999997;stroke-linecap:round;stroke-linejoin:round;stroke-miterlimit:4;stroke-dasharray:none;stroke-opacity:1;visibility:visible"/><path d="m401.608 813.309-.273.124-.148.15-.007.16.135.151.262.123.355.08.41.03.41-.03.363-.08.272-.123.146-.15.008-.16-.133-.151-.265-.124-.356-.079-.406-.028-.412.028-.361.079M443.553 833.531l-.273.123-.148.153-.007.159.135.15.262.123.355.081.41.03.41-.03.363-.081.272-.123.146-.15.008-.159-.133-.153-.265-.123-.356-.079-.406-.029-.412.03-.361.078M486.637 854.283l-.273.123-.148.152-.007.158.135.151.262.121.355.082.41.03.41-.03.363-.082.272-.121.146-.15.008-.16-.133-.151-.265-.123-.356-.08-.406-.03-.412.03-.361.08" style="fill:none;stroke:#00ff4a;stroke-width:.666665;stroke-linecap:round;stroke-linejoin:round;stroke-miterlimit:4;stroke-dasharray:none;stroke-opacity:1;visibility:visible"/><path d="m476.027 883.194 6.477 3.259M482.504 886.453l-6.477-3.259M476.027 883.194l13.167.264" style="fill:none;stroke:#00ff4a;stroke-width:.999997;stroke-linecap:round;stroke-linejoin:round;stroke-miterlimit:4;stroke-dasharray:none;stroke-opacity:1;visibility:visible"/></svg>