<svg xmlns="http://www.w3.org/2000/svg" baseProfile="full" height="1122.52" preserveAspectRatio="xMinYMin meet" style="width:914px;height:841px" width="793.701" xml:space="preserve"><path d="m737.704 301.501 1.799-29.953M577.117 206.722l-.767 28.408" style="fill:none;stroke:red;stroke-width:1.99999;stroke-linecap:round;stroke-linejoin:round;stroke-miterlimit:4;stroke-dasharray:none;stroke-opacity:1;visibility:visible"/><path d="M735.105 273.02a.819.819 0 0 0 .55.02" style="fill:none;stroke:red;stroke-width:.999997;stroke-linecap:round;stroke-linejoin:round;stroke-miterlimit:4;stroke-dasharray:none;stroke-opacity:1;visibility:visible"/><path d="M733.327 303.01a.823.823 0 0 0 .548.02" style="fill:none;stroke:red;stroke-width:1.99999;stroke-linecap:round;stroke-linejoin:round;stroke-miterlimit:4;stroke-dasharray:none;stroke-opacity:1;visibility:visible"/><path d="m739.398 271.644.045-.02.035-.027.02-.028.005-.03-.01-.03-.024-.029-.038-.028-.049-.025M735.655 273.038l3.744-1.393M735.105 273.02l-157.889-66.2" style="fill:none;stroke:red;stroke-width:.999997;stroke-linecap:round;stroke-linejoin:round;stroke-miterlimit:4;stroke-dasharray:none;stroke-opacity:1;visibility:visible"/><path d="m577.233 206.625 3.699-1.217M577.233 206.625l-.048.021-.035.023-.024.024-.009.024.005.028.019.028.032.023.043.024M581.444 205.429a.85.85 0 0 0-.512-.017M739.383 271.427l-157.938-66.001" style="fill:none;stroke:red;stroke-width:1.99999;stroke-linecap:round;stroke-linejoin:round;stroke-miterlimit:4;stroke-dasharray:none;stroke-opacity:1;visibility:visible"/><path d="m702.322 257.606-.224.119-.097.149.041.155.175.148.288.12.364.081.398.025.386-.025.324-.081.222-.12.099-.148-.043-.155-.174-.15-.287-.118-.364-.079-.4-.028-.383.028-.325.079M609.19 218.622l-.225.11-.107.135.025.144.155.139.265.108.344.073.379.026.375-.026.316-.073.226-.108.107-.139-.025-.144-.155-.136-.265-.109-.344-.076-.38-.025-.371.025-.32.076M684.83 250.283l-.223.119-.1.145.038.155.17.144.284.117.36.077.396.027.382-.027.322-.077.224-.117.099-.144-.039-.155-.17-.145-.283-.119-.361-.077-.392-.027-.383.027-.324.077M625.579 225.48l-.224.112-.107.139.03.148.157.136.27.112.346.076.384.022.372-.022.321-.076.226-.112.104-.136-.027-.148-.16-.139-.27-.112-.345-.073-.384-.027-.374.027-.319.073" style="fill:none;stroke:red;stroke-width:.999997;stroke-linecap:round;stroke-linejoin:round;stroke-miterlimit:4;stroke-dasharray:none;stroke-opacity:1;visibility:visible"/><path d="m733.877 303.027 3.723-1.427M576.445 235.23l156.884 67.779" style="fill:none;stroke:red;stroke-width:1.99999;stroke-linecap:round;stroke-linejoin:round;stroke-miterlimit:4;stroke-dasharray:none;stroke-opacity:1;visibility:visible"/><path d="m578.038 218.022.033.364.122.359.192.305.237.223.259.11.245-.017.204-.141.137-.248.055-.324-.036-.362-.12-.357-.19-.31-.24-.22-.26-.11-.245.017-.202.139-.136.248-.055.324M577.743 228.714l.037.363.12.358.191.307.237.221.259.111.244-.015.204-.137.136-.248.056-.323-.036-.361-.12-.356-.192-.308-.239-.223-.257-.11-.244.016-.204.138-.137.246-.055.321M716.06 286.785l.017.587.114.598.205.586.288.545.355.48.408.387.44.285.452.163.442.034.415-.094.365-.22.299-.336.219-.432.128-.515.033-.568-.067-.595-.161-.598-.248-.57-.324-.516-.384-.436-.425-.338-.451-.224-.452-.098-.43.03-.391.161-.334.279-.258.388-.175.476-.08.541M613.883 243.014l.027.564.112.577.196.559.272.521.33.452.378.368.405.266.416.149.401.023.376-.098.328-.221.266-.328.192-.424.106-.497.022-.551-.072-.57-.155-.574-.235-.545-.305-.491-.356-.412-.396-.321-.41-.204-.41-.086-.395.039-.353.161-.299.276-.228.379-.149.461-.064.527" style="fill:none;stroke:red;stroke-width:.999997;stroke-linecap:round;stroke-linejoin:round;stroke-miterlimit:4;stroke-dasharray:none;stroke-opacity:1;visibility:visible"/><path d="M737.598 301.603a.141.141 0 0 0 .105-.1" style="fill:none;stroke:red;stroke-width:1.99999;stroke-linecap:round;stroke-linejoin:round;stroke-miterlimit:4;stroke-dasharray:none;stroke-opacity:1;visibility:visible"/><path d="m720.175 288.775-.364-.095-.46-.03-.348.1-.207.192-.097.261.045.31.215.267.33.152.389.038M617.654 244.893l-.085-.024-.45-.03-.342.087-.212.18-.107.243.028.29.188.251.303.138.233.022M733.33 303.008l1.776-29.99" style="fill:none;stroke:red;stroke-width:.999997;stroke-linecap:round;stroke-linejoin:round;stroke-miterlimit:4;stroke-dasharray:none;stroke-opacity:1;visibility:visible"/><path d="m157.882 369.633.137-.205.196-.07.234.078.24.208.218.321.172.388.103.413.024.39-.061.312-.138.202-.197.07-.233-.078" style="fill:none;stroke:#00ff4a;stroke-width:.999997;stroke-linecap:round;stroke-linejoin:round;stroke-miterlimit:4;stroke-dasharray:none;stroke-opacity:1;visibility:visible"/><path d="m156.939 376.765 3.681 2.236M155.77 353.965l-.49-8.397M156.547 367.294l-.233-3.996M157.103 376.85l-.155-2.667" style="fill:none;stroke:#00ff4a;stroke-width:1.99999;stroke-linecap:round;stroke-linejoin:round;stroke-miterlimit:4;stroke-dasharray:none;stroke-opacity:1;visibility:visible"/><path d="m155.28 345.568 3.7 2.188M160.784 379.085l-1.804-31.33M157.19 357.716l.137-.205.196-.071.234.072.24.212.22.32.172.39.104.413.022.392-.061.314-.139.206-.196.069-.233-.073" style="fill:none;stroke:#00ff4a;stroke-width:.999997;stroke-linecap:round;stroke-linejoin:round;stroke-miterlimit:4;stroke-dasharray:none;stroke-opacity:1;visibility:visible"/><path d="m155.28 345.568 392.466-129.145M547.746 216.421l3.956 1.699" style="fill:none;stroke:#00ff4a;stroke-width:1.99999;stroke-linecap:round;stroke-linejoin:round;stroke-miterlimit:4;stroke-dasharray:none;stroke-opacity:1;visibility:visible"/><path d="M158.98 347.755 551.7 218.121M201.801 332.568l.305-.139.184-.169.039-.183-.108-.169-.243-.137-.349-.092-.413-.031-.428.03-.39.093-.305.137-.184.17-.041.182.108.17.242.138.35.09.413.033.428-.032.392-.091M366.575 278.23l.27-.124.149-.153.012-.163-.128-.156-.251-.123-.345-.081-.398-.03-.401.03-.356.081-.27.123-.15.156-.012.163.127.153.252.124.344.083.398.029.402-.03.357-.082M513.981 228.48l-.24.113-.121.138.012.149.141.139.257.113.34.075.383.026.377-.026.33-.075.24-.113.12-.139-.011-.15-.144-.137-.257-.113-.34-.073-.38-.028-.379.028-.328.073M442.856 253.075l.253-.119.134-.145v-.156l-.134-.144-.254-.12-.344-.076-.39-.03-.388.03-.344.076-.253.12-.136.144v.156l.136.145.256.119.341.079.388.026.392-.026.343-.079M284.9 303.935l-.287.133-.165.16-.027.174.119.16.248.134.347.083.404.032.416-.032.373-.083.287-.134.165-.16.025-.174-.117-.16-.248-.133-.347-.087-.406-.026-.414.026-.373.087" style="fill:none;stroke:#00ff4a;stroke-width:.999997;stroke-linecap:round;stroke-linejoin:round;stroke-miterlimit:4;stroke-dasharray:none;stroke-opacity:1;visibility:visible"/><path d="m551.703 218.121-.627 28.35M551.076 246.47 160.785 379.084M158.98 347.754l-3.21 6.211M156.948 374.183l-.401-6.889M155.77 353.965l.544 9.333M160.784 379.085l-3.836-4.902" style="fill:none;stroke:#00ff4a;stroke-width:1.99999;stroke-linecap:round;stroke-linejoin:round;stroke-miterlimit:4;stroke-dasharray:none;stroke-opacity:1;visibility:visible"/><path d="m261.604 482.75-1.204-33.857M106.904 360.774l2.12 31.939" style="fill:none;stroke:#9500ff;stroke-width:1.99999;stroke-linecap:round;stroke-linejoin:round;stroke-miterlimit:4;stroke-dasharray:none;stroke-opacity:1;visibility:visible"/><path d="M254.426 450.967a.808.808 0 0 0 .637.028" style="fill:none;stroke:#9500ff;stroke-width:.999997;stroke-linecap:round;stroke-linejoin:round;stroke-miterlimit:4;stroke-dasharray:none;stroke-opacity:1;visibility:visible"/><path d="M255.678 484.87a.787.787 0 0 0 .63.029" style="fill:none;stroke:#9500ff;stroke-width:1.99999;stroke-linecap:round;stroke-linejoin:round;stroke-miterlimit:4;stroke-dasharray:none;stroke-opacity:1;visibility:visible"/><path d="m152.69 386.058.412-.1.45-.036.433.036.362.1.25.153.108.187-.05.197-.2.192-.325.148-.41.103-.451.032-.432-.032-.364-.103-.251-.148-.107-.192.051-.197.199-.187.325-.153M260.213 449.073l.067-.028.053-.036.039-.04.021-.04.005-.041-.012-.039-.029-.041-.045-.034M255.065 450.992l5.148-1.919M254.428 450.965l-147.457-90.101" style="fill:none;stroke:#9500ff;stroke-width:.999997;stroke-linecap:round;stroke-linejoin:round;stroke-miterlimit:4;stroke-dasharray:none;stroke-opacity:1;visibility:visible"/><path d="m107.098 360.605 4.979-1.639M107.098 360.605l-.065.024-.054.032-.04.035-.026.033-.01.035.007.034.023.036.037.03M112.661 358.991a.817.817 0 0 0-.584-.021M260.311 448.775l-147.65-89.785" style="fill:none;stroke:#9500ff;stroke-width:1.99999;stroke-linecap:round;stroke-linejoin:round;stroke-miterlimit:4;stroke-dasharray:none;stroke-opacity:1;visibility:visible"/><path d="m224.456 429.805.42-.11.465-.037.45.038.385.109.27.164.123.201-.037.216-.193.2-.33.164-.422.111-.464.035-.451-.035-.384-.11-.27-.165-.123-.2.037-.216.196-.201.328-.164M208.028 419.793l.42-.11.46-.034.448.035.379.109.266.157.12.2-.04.211-.196.199-.328.162-.42.107-.46.035-.448-.035-.38-.107-.265-.162-.12-.199.041-.21.196-.2.327-.158" style="fill:none;stroke:#9500ff;stroke-width:.999997;stroke-linecap:round;stroke-linejoin:round;stroke-miterlimit:4;stroke-dasharray:none;stroke-opacity:1;visibility:visible"/><path d="m256.309 484.895 5.112-1.96M171.598 432.061l84.081 52.808M109.09 392.803l43.97 27.615M261.42 482.938a.239.239 0 0 0 .182-.186" style="fill:none;stroke:#9500ff;stroke-width:1.99999;stroke-linecap:round;stroke-linejoin:round;stroke-miterlimit:4;stroke-dasharray:none;stroke-opacity:1;visibility:visible"/><path d="M109.024 392.714a.12.12 0 0 0 .066.09M255.678 484.87l-1.25-33.905" style="fill:none;stroke:#9500ff;stroke-width:.999997;stroke-linecap:round;stroke-linejoin:round;stroke-miterlimit:4;stroke-dasharray:none;stroke-opacity:1;visibility:visible"/></svg>