<svg xmlns="http://www.w3.org/2000/svg" baseProfile="full" height="1122.52" preserveAspectRatio="xMinYMin meet" style="width:914px;height:841px" width="793.701" xml:space="preserve"><path d="m177.864 738.857.32 5.256M178.378 744.44l122.045 76.776M300.827 821.254 709.492 660.49" style="fill:none;stroke:red;stroke-width:1.99999;stroke-linecap:round;stroke-linejoin:round;stroke-miterlimit:4;stroke-dasharray:none;stroke-opacity:1;visibility:visible"/><path d="m178.2 738.414-.051.016" style="fill:none;stroke:red;stroke-width:.999997;stroke-linecap:round;stroke-linejoin:round;stroke-miterlimit:4;stroke-dasharray:none;stroke-opacity:1;visibility:visible"/><path d="m520.899 728.357.541-29.305M709.492 660.49a.39.39 0 0 0 .248-.333M709.74 660.157l.232-3.793M178.184 744.114a.424.424 0 0 0 .194.327" style="fill:none;stroke:red;stroke-width:1.99999;stroke-linecap:round;stroke-linejoin:round;stroke-miterlimit:4;stroke-dasharray:none;stroke-opacity:1;visibility:visible"/><path d="m706.838 628.152 5.323-1.995M299.186 780.933a.47.47 0 0 0 .399.035" style="fill:none;stroke:red;stroke-width:.999997;stroke-linecap:round;stroke-linejoin:round;stroke-miterlimit:4;stroke-dasharray:none;stroke-opacity:1;visibility:visible"/><path d="M712.16 626.157a.392.392 0 0 0 .255-.344M709.992 656.296l1.838-30.017M151.076 691.078l2.108 31.636M306.218 812.671l-1.078-33.789" style="fill:none;stroke:red;stroke-width:1.99999;stroke-linecap:round;stroke-linejoin:round;stroke-miterlimit:4;stroke-dasharray:none;stroke-opacity:1;visibility:visible"/><path d="m503.475 706.148.048.385.146.377.221.315.263.207.267.062.225-.093.155-.225.06-.332-.05-.388-.145-.376-.22-.318-.265-.204-.036-.017M483.199 713.402l32.629 16.744M177.816 738.172l122.482 76.635M520.76 728.49a.17.17 0 0 0 .139-.134M501.15 713.438l.04.626.134.642.224.636.3.594.365.528.412.436.44.321.447.195.433.057.4-.08.347-.217.278-.344.195-.454.106-.542.009-.603-.088-.641-.18-.647-.264-.619-.336-.564-.392-.485-.428-.384-.447-.26-.444-.124-.418.012-.375.155-.313.284-.238.398-.15.5-.057.58" style="fill:none;stroke:red;stroke-width:.999997;stroke-linecap:round;stroke-linejoin:round;stroke-miterlimit:4;stroke-dasharray:none;stroke-opacity:1;visibility:visible"/><path d="m503.555 705.768-.022.048-.058.333" style="fill:none;stroke:red;stroke-width:.999997;stroke-linecap:round;stroke-linejoin:round;stroke-miterlimit:4;stroke-dasharray:none;stroke-opacity:1;visibility:visible"/><path d="M153.184 722.714a.11.11 0 0 0 .066.087M153.25 722.802l24.566 15.368" style="fill:none;stroke:red;stroke-width:1.99999;stroke-linecap:round;stroke-linejoin:round;stroke-miterlimit:4;stroke-dasharray:none;stroke-opacity:1;visibility:visible"/><path d="m688.174 641.441.018.59.114.603.207.589.29.55.357.483.409.392.445.287.456.165.447.036.417-.093.368-.22.302-.336.222-.435.13-.516.033-.57-.069-.601-.16-.602-.25-.573-.326-.522-.388-.44-.431-.343-.452-.224-.456-.101-.433.03-.395.16-.337.281-.263.385-.173.479-.082.545M693.684 635.675l.033.36.136.353.219.289.266.183.274.05.24-.098.17-.22.072-.312-.034-.363-.136-.35-.22-.29-.265-.185-.274-.05-.239.098-.17.22-.071.315M669.538 642.148l36.052 15.68M706.144 657.85l3.742-1.453M705.589 657.828a.839.839 0 0 0 .553.022" style="fill:none;stroke:red;stroke-width:.999997;stroke-linecap:round;stroke-linejoin:round;stroke-miterlimit:4;stroke-dasharray:none;stroke-opacity:1;visibility:visible"/><path d="M709.885 656.399a.14.14 0 0 0 .105-.103" style="fill:none;stroke:red;stroke-width:1.99999;stroke-linecap:round;stroke-linejoin:round;stroke-miterlimit:4;stroke-dasharray:none;stroke-opacity:1;visibility:visible"/><path d="M300.827 814.8 705.39 657.962" style="fill:none;stroke:red;stroke-width:.999997;stroke-linecap:round;stroke-linejoin:round;stroke-miterlimit:4;stroke-dasharray:none;stroke-opacity:1;visibility:visible"/><path d="M178.253 744.209a.285.285 0 0 0 .125.231" style="fill:none;stroke:red;stroke-width:1.99999;stroke-linecap:round;stroke-linejoin:round;stroke-miterlimit:4;stroke-dasharray:none;stroke-opacity:1;visibility:visible"/><path d="M178.184 744.114a.133.133 0 0 0 .07.096" style="fill:none;stroke:red;stroke-width:1.99999;stroke-linecap:round;stroke-linejoin:round;stroke-miterlimit:4;stroke-dasharray:none;stroke-opacity:1;visibility:visible"/><path d="m515.828 730.146.507-29.176M299.474 780.61l-.19-5.662M705.589 657.828l1.801-29.885M300.298 814.807l-1.128-33.883" style="fill:none;stroke:red;stroke-width:.999997;stroke-linecap:round;stroke-linejoin:round;stroke-miterlimit:4;stroke-dasharray:none;stroke-opacity:1;visibility:visible"/><path d="M690.258 641.621v2.086M689.376 641.941l1.604.806M503.252 713.456v2.409M502.368 713.938l2.007 1.042" style="fill:none;stroke:red;stroke-width:.666665;stroke-linecap:round;stroke-linejoin:round;stroke-miterlimit:2;stroke-dasharray:none;stroke-opacity:1;visibility:visible"/><path d="m299.474 780.61 5.666-1.728" style="fill:none;stroke:red;stroke-width:1.99999;stroke-linecap:round;stroke-linejoin:round;stroke-miterlimit:4;stroke-dasharray:none;stroke-opacity:1;visibility:visible"/><path d="m503.252 715.865-2.102-2.427M516.335 700.97l-15.185 12.468M690.258 643.707l-2.084-2.266M501.15 713.438l15.185-12.468" style="fill:none;stroke:red;stroke-width:.999997;stroke-linecap:round;stroke-linejoin:round;stroke-miterlimit:4;stroke-dasharray:none;stroke-opacity:1;visibility:visible"/><path d="m688.174 641.441 2.084 2.266M501.15 713.438l2.102 2.427M504.144 705.541l.231 9.439" style="fill:none;stroke:red;stroke-width:.666665;stroke-linecap:round;stroke-linejoin:round;stroke-miterlimit:2;stroke-dasharray:none;stroke-opacity:1;visibility:visible"/><path d="M305.72 778.665 706.839 628.15" style="fill:none;stroke:#00ff4a;stroke-width:1.99999;stroke-linecap:round;stroke-linejoin:round;stroke-miterlimit:4;stroke-dasharray:none;stroke-opacity:1;visibility:visible" visibility="hidden"/><path d="m150.656 690.826 148.529 90.107M299.585 780.969l6.137-2.305" style="fill:none;stroke:#00ff4a;stroke-width:.999997;stroke-linecap:round;stroke-linejoin:round;stroke-miterlimit:4;stroke-dasharray:none;stroke-opacity:1;visibility:visible" visibility="hidden"/><path d="m712.482 620.425-158.98-66.168M712.414 625.813l.308-5.006M150.456 690.494a.423.423 0 0 0 .2.331M553.25 554.245l-96.653 31.318M447.239 588.597l-296.846 96.188M150.102 685.21l.354 5.285M150.394 684.784a.421.421 0 0 0-.292.424" style="fill:none;stroke:#00ff4a;stroke-width:1.99999;stroke-linecap:round;stroke-linejoin:round;stroke-miterlimit:4;stroke-dasharray:none;stroke-opacity:1;visibility:visible" visibility="hidden"/><path d="M553.501 554.257a.37.37 0 0 0-.25-.012M515.672 567.303l.367-.086.421-.044.439.012.416.058.358.096.267.134.153.158.027.164-.104.157-.227.14-.325.107-.397.061-.435.02-.433-.035-.391-.078-.319-.119-.213-.147-.09-.16.041-.165.169-.15.276-.122M583.01 568.19l.27-.125.156-.148.027-.164-.103-.162-.225-.151-.325-.113-.4-.079-.432-.033-.434.015-.394.066-.317.105-.213.139-.093.159.037.164.165.156.279.133.364.101.423.058.438.005.418-.041.359-.085M268.291 753.005l.476-.128.528-.06.531.013.49.084.399.147.282.199.131.232-.029.245-.181.237-.325.204-.438.16-.505.095-.54.024-.515-.05-.449-.117-.345-.176-.206-.217-.053-.241.108-.242.257-.224.384-.185M180.902 700.458l.464-.113.506-.055.502.01.456.077.369.131.251.178.104.21-.044.222-.193.208-.327.19-.424.138-.492.087-.51.024-.487-.047-.417-.104-.311-.156-.18-.197-.03-.219.124-.22.259-.2.38-.164M676.582 607.213l.268-.138.146-.165.008-.177-.127-.178-.252-.162-.353-.126-.426-.087-.458-.035-.451.018-.404.072-.32.113-.21.15-.077.176.059.178.19.17.305.15.397.107.447.064.46.007.432-.046.366-.09M150.5 684.802l148.722 89.675M299.222 774.477l413.128-154.05" style="fill:none;stroke:#00ff4a;stroke-width:.999997;stroke-linecap:round;stroke-linejoin:round;stroke-miterlimit:4;stroke-dasharray:none;stroke-opacity:1;visibility:visible" visibility="hidden"/><path d="M150.456 690.494a.117.117 0 0 0 .066.088M150.5 684.802a.123.123 0 0 0-.106-.018M150.522 690.584a.301.301 0 0 0 .135.242" style="fill:none;stroke:#00ff4a;stroke-width:1.99999;stroke-linecap:round;stroke-linejoin:round;stroke-miterlimit:4;stroke-dasharray:none;stroke-opacity:1;visibility:visible" visibility="hidden"/><path d="M553.501 554.257a.18.18 0 0 0-.131-.004M553.37 554.255a.187.187 0 0 0-.12-.008" style="fill:none;stroke:#00ff4a;stroke-width:.999997;stroke-linecap:round;stroke-linejoin:round;stroke-miterlimit:4;stroke-dasharray:none;stroke-opacity:1;visibility:visible" visibility="hidden"/><path d="m447.239 588.597 9.358-3.034M456.597 585.563l-9.358 3.034" style="fill:none;stroke:#00ff4a;stroke-width:1.99999;stroke-linecap:round;stroke-linejoin:round;stroke-miterlimit:4;stroke-dasharray:none;stroke-opacity:1;visibility:visible" visibility="hidden"/><path d="m504.375 714.98-1.123-1.524" style="fill:none;stroke:red;stroke-width:.666665;stroke-linecap:round;stroke-linejoin:round;stroke-miterlimit:2;stroke-dasharray:none;stroke-opacity:1;visibility:visible"/></svg>