<svg xmlns="http://www.w3.org/2000/svg" baseProfile="full" height="1122.52" preserveAspectRatio="xMinYMin meet" style="width:765px;height:943px" width="793.701" xml:space="preserve"><path d="m291.89 946.093.019 2.939M270.354 899.786l.039 2.696M270.99 899.126l21.607 46.239M292.597 945.366l1.157.424 1.179.42 1.192.408 1.212.399 1.227.394M286.087 898.41h.124l.117.021.11.043.094.063.083.078.061.096M286.258 898.373l-.055-.005-.057.012-.059.029M275.788 895.728l.059-.028.058-.013.056.006M275.452 895.77l.075-.033.082-.022.09-.004.089.018M270.343 899.738l.004.024.008.025M270.393 902.483l-.008-.025-.004-.024M270.443 902.699l-.036-.104-.013-.112M292.597 945.366l-.139.028-.133.05-.123.071-.108.096-.086.108-.064.119-.042.125-.012.131M291.908 949.032l.015.123.038.114M261.883 911.376l-.183.641-.157.651-.13.648-.105.65-.076.655-.05.655-.024.656.004.661.03.656.058.662.086.66.115.666.14.663.17.663.197.664.225.662.252.663.28.66.308.664.336.657.365.66.394.655.42.66.449.653.477.652.503.647.533.65.56.64.588.643.616.636.644.635.67.63.698.625.727.624.75.617.78.612.807.607.832.604.859.594.885.594.912.582.938.582.962.569.988.568 1.012.56 1.038.552 1.062.544 1.086.541 1.109.528 1.135.524 1.156.514 1.18.504M268.828 901.001h.127l.122.024.115.045.1.068.081.086.062.098M289.155 944.083l-.065-.11-.091-.09-.107-.072-.124-.048-.136-.027-.138.004M268.388 901.12l.073-.056.082-.04.09-.025.095-.01.1.01M288.933 899.976l.02 2.699M289.57 899.317l10.539 20.632M288.933 899.976l.013-.117.035-.116.059-.11.078-.098.098-.084.11-.064.12-.048.126-.023M288.952 902.676l-.008-.028-.004-.025M289.01 902.913l-.03-.076-.02-.079-.009-.082" style="fill:none;stroke:red;stroke-width:.999997;stroke-linecap:round;stroke-linejoin:round;stroke-miterlimit:4;stroke-dasharray:none;stroke-opacity:1;visibility:visible"/><path d="m289.57 899.317.059-.028.057-.013.055.005" style="fill:none;stroke:red;stroke-width:.999997;stroke-linecap:round;stroke-linejoin:round;stroke-miterlimit:4;stroke-dasharray:none;stroke-opacity:1;visibility:visible"/><path d="m313.554 913.845 10.357 18.88" style="fill:none;stroke:red;stroke-width:1.99999;stroke-linecap:round;stroke-linejoin:round;stroke-miterlimit:4;stroke-dasharray:none;stroke-opacity:1;visibility:visible"/><path d="m313.804 909.672 11.639 20.99M329.706 909.77l.116-.001.113.02.106.037.093.056.08.072.065.087M329.869 909.731l-.052-.005-.055.013-.056.03M347.73 988.743l.82-56.63M348.732 919.439l1.697-117.136M350.63 788.501l1.305-90.037M352.232 677.932l.979-67.499M357.492 601.005l4.653-.973" style="fill:none;stroke:red;stroke-width:.999997;stroke-linecap:round;stroke-linejoin:round;stroke-miterlimit:4;stroke-dasharray:none;stroke-opacity:1;visibility:visible"/><path d="m357.202 599.668 4.944.361M352.522 600.637l4.68-.97" style="fill:none;stroke:red;stroke-width:1.99999;stroke-linecap:round;stroke-linejoin:round;stroke-miterlimit:4;stroke-dasharray:none;stroke-opacity:1;visibility:visible"/><path d="m357.492 601.005-.241.065-.24.092-.239.123-.24.148-.233.179-.231.204-.227.23-.222.258-.215.282-.212.303-.201.328-.194.348-.186.37-.176.386-.167.408-.156.423-.147.437-.133.45-.123.465-.108.473-.096.48-.084.49-.069.494-.056.497-.043.499-.028.5-.014.496M347.73 988.743v.376l.013.364.026.35.04.334.049.323.063.304.074.285.087.267.097.248.107.226.121.206.13.184.138.16.147.136.157.114.167.092.172.064M352.367 600.647l.077-.01h.078" style="fill:none;stroke:red;stroke-width:.999997;stroke-linecap:round;stroke-linejoin:round;stroke-miterlimit:4;stroke-dasharray:none;stroke-opacity:1;visibility:visible"/><path d="m357.047 599.678.079-.012h.076M357.202 599.668l.025-.004h.024" style="fill:none;stroke:red;stroke-width:1.99999;stroke-linecap:round;stroke-linejoin:round;stroke-miterlimit:4;stroke-dasharray:none;stroke-opacity:1;visibility:visible"/><path d="m355.964 988.238-.012.1-.028.093-.045.082-.063.065M356.05 988.082l-.012.055-.028.052-.045.049M298.793 1032.216l.096.3.107.277.121.259.133.233.144.211.162.185.166.162.179.132.19.109.197.084M327.613 607.357l-.261-.005-.266.024-.265.056-.263.084-.264.116-.261.144-.26.173-.255.201-.25.231-.246.256-.24.283-.232.308-.225.332-.216.356-.205.377-.198.397-.184.418-.174.434-.163.454-.15.464M322.974 612.817l-5.139-.425M322.974 612.817l-24.201 419.136M317.452 612.342l.012.005.033.01.056.006.078.008.093.011.11.01M298.772 1031.954l-.001.095.008.089.014.076M323.037 612.46l-.03.115-.02.121-.013.124M306.776 1027.082l-.016.056-.036.053-.059.047M348.732 919.439l-37.133 27.063M348.732 919.439l-1.145-.303M349.051 919.806l-.035-.11-.05-.09-.066-.077-.078-.056-.088-.034M311.45 959.643l-.076.15-.088.143-.099.132-.109.114-.115.1M348.952 928.276l.121-8.257M350.63 788.501l-.28-.052M350.89 789.487l.048-.136.035-.139.014-.132-.002-.124-.019-.118-.039-.102-.053-.088-.068-.068-.081-.052-.094-.028M350.89 789.487l-30.161 15.608M350.844 798.838l.143-9.796" style="fill:none;stroke:red;stroke-width:.999997;stroke-linecap:round;stroke-linejoin:round;stroke-miterlimit:4;stroke-dasharray:none;stroke-opacity:1;visibility:visible"/><path d="m341.76 781.09-20.041-3.648" style="fill:none;stroke:red;stroke-width:1.99999;stroke-linecap:round;stroke-linejoin:round;stroke-miterlimit:4;stroke-dasharray:none;stroke-opacity:1;visibility:visible"/><path d="m282.433 896.819.085-.055" style="fill:none;stroke:red;stroke-width:.999997;stroke-linecap:round;stroke-linejoin:round;stroke-miterlimit:4;stroke-dasharray:none;stroke-opacity:1;visibility:visible"/><path d="m301.274 899.312-16.145-4.176" style="fill:none;stroke:red;stroke-width:1.99999;stroke-linecap:round;stroke-linejoin:round;stroke-miterlimit:4;stroke-dasharray:none;stroke-opacity:1;visibility:visible"/><path d="m339.443 912.593-9.05-2.36M289.094 899.471l-2.343-.61M282.36 897.36l-.032-.123-.013-.113.002-.101.02-.086.039-.069.056-.048M282.315 897.043l-.028.299M275.518 965.427l.21-.165.2-.178.186-.189.176-.21.161-.222" style="fill:none;stroke:red;stroke-width:.999997;stroke-linecap:round;stroke-linejoin:round;stroke-miterlimit:4;stroke-dasharray:none;stroke-opacity:1;visibility:visible"/><path d="m278.158 963.531.21-.163.2-.177.186-.192.175-.21.162-.22" style="fill:none;stroke:red;stroke-width:1.99999;stroke-linecap:round;stroke-linejoin:round;stroke-miterlimit:4;stroke-dasharray:none;stroke-opacity:1;visibility:visible"/><path d="m308.2 602.61 2.928-.573M302.354 669.366l5.845-66.755M293.188 774.013l7.165-81.538M282.433 896.819l8.004-92.032M276.526 964.248l1.855-21.181" style="fill:none;stroke:red;stroke-width:.999997;stroke-linecap:round;stroke-linejoin:round;stroke-miterlimit:4;stroke-dasharray:none;stroke-opacity:1;visibility:visible"/><path d="m279.164 962.357 1.59-17.947" style="fill:none;stroke:red;stroke-width:1.99999;stroke-linecap:round;stroke-linejoin:round;stroke-miterlimit:4;stroke-dasharray:none;stroke-opacity:1;visibility:visible"/><path d="m308.167 602.276-.15-.47-.174-.458-.195-.448-.216-.433-.237-.423-.255-.401-.276-.387-.292-.367-.308-.346-.324-.324-.338-.303-.352-.279-.363-.25-.375-.231-.382-.199-.39-.173-.397-.145-.4-.116-.404-.09-.408-.058-.407-.03h-.406l-.403.03-.4.058" style="fill:none;stroke:red;stroke-width:.999997;stroke-linecap:round;stroke-linejoin:round;stroke-miterlimit:4;stroke-dasharray:none;stroke-opacity:1;visibility:visible"/><path d="m279.091 962.57.06-.057.04-.072.02-.086-.005-.092-.026-.098" style="fill:none;stroke:red;stroke-width:1.99999;stroke-linecap:round;stroke-linejoin:round;stroke-miterlimit:4;stroke-dasharray:none;stroke-opacity:1;visibility:visible"/><path d="m279.271 962.194-.016.057-.036.055-.055.05" style="fill:none;stroke:red;stroke-width:1.99999;stroke-linecap:round;stroke-linejoin:round;stroke-miterlimit:4;stroke-dasharray:none;stroke-opacity:1;visibility:visible"/><path d="m311.128 602.037.06-.017.036-.02.016-.022" style="fill:none;stroke:red;stroke-width:.999997;stroke-linecap:round;stroke-linejoin:round;stroke-miterlimit:4;stroke-dasharray:none;stroke-opacity:1;visibility:visible"/><path d="m279.164 962.357-.013.077-.024.072-.036.064" style="fill:none;stroke:red;stroke-width:1.99999;stroke-linecap:round;stroke-linejoin:round;stroke-miterlimit:4;stroke-dasharray:none;stroke-opacity:1;visibility:visible"/><path d="m276.452 964.463.033-.064.028-.073.014-.078M308.2 602.61l.004-.112-.01-.112-.026-.11" style="fill:none;stroke:red;stroke-width:.999997;stroke-linecap:round;stroke-linejoin:round;stroke-miterlimit:4;stroke-dasharray:none;stroke-opacity:1;visibility:visible"/><path d="m353.922 599.427 1.968.144M351.112 600.004l1.973.145M353.922 599.427l-.421-.017-.423.013-.416.04-.415.07M351.112 600.004l-.423-.017-.422.013-.418.04-.417.072M353.542 600.403l-.097-.101-.112-.078-.122-.052-.125-.021M353.972 599.424h-.025l-.024.003M355.89 599.571l.125.024.122.05.11.075.098.1" style="fill:none;stroke:red;stroke-width:1.99999;stroke-linecap:round;stroke-linejoin:round;stroke-miterlimit:4;stroke-dasharray:none;stroke-opacity:1;visibility:visible"/><path d="m352.232 677.932-25.059 8.384M344.227 690.338l-.101.121-.107.096-.11.067-.113.04-.108.008-.105-.02-.101-.052-.094-.08-.082-.105-.076-.132-.062-.155-.048-.175-.034-.192-.022-.205-.004-.215" style="fill:none;stroke:red;stroke-width:.999997;stroke-linecap:round;stroke-linejoin:round;stroke-miterlimit:4;stroke-dasharray:none;stroke-opacity:1;visibility:visible"/><path d="m343.06 689.34.01-.219.023-.221.042-.217.053-.211.065-.2.078-.184.088-.165.096-.148.102-.123.107-.095.11-.068.111-.036.11-.009.104.023.101.05.093.079.084.107.072.134M332.485 694.54l-.112.097-.113.071-.115.04-.113.01-.111-.022-.104-.052-.097-.077-.09-.108-.076-.136-.065-.156-.05-.179-.038-.193-.024-.211-.005-.216M331.371 693.409l.01-.224.025-.224.041-.221.053-.215.067-.203.081-.189.091-.17.1-.149.105-.125.111-.097.115-.07.114-.037.114-.012.11.021.104.052.098.08M352.5 678.876l.047-.115.03-.114.02-.114.007-.106M352.46 688.298l.144-9.86M286.258 898.373l.004.001.007.002.005.001.007.001.005.002.004.002.005.002.006.001.005.003.005.001.006.003h.005l.005.005.006.001.005.003h.004l.005.001.003.003.007.001.005.003.005.003.006.002.004.002.006.002.006.004.005.003.003.003.005.001.004.003.005.002.004.004.006.003.006.001.004.003.004.003.006.006.005.002.005.001.003.003.004.002.004.006.007.002.004.003.004.004.005.003.004.004.003.002.006.003.006.005.004.003.002.003.006.004.002.005.006.003.004.002.002.003.006.005.004.004.005.004.003.003.005.005.004.003.004.003.004.005.003.004.002.004.006.005.001.004.007.003.002.004.004.004.004.004.003.005.004.006.004.002.003.004.004.004.004.006.002.004.004.006.002.004.004.003.002.004.004.005.003.004.004.007.001.004.004.004.003.004.003.005.004.004.002.006.003.006.004.003.003.004.001.007.004.004.003.005.001.005.003.004M275.961 895.692l10.297 2.681" style="fill:none;stroke:red;stroke-width:.999997;stroke-linecap:round;stroke-linejoin:round;stroke-miterlimit:4;stroke-dasharray:none;stroke-opacity:1;visibility:visible"/><path d="m286.677 898.71 13.16 26.073M275.452 895.77l.004-.003.004-.002.005-.003.006-.001.004-.004.005-.002.003-.004.005-.002.005-.003.004-.001.006-.003.004-.003h.006l.004-.002.004-.002.006-.005.004-.001.005-.003.005-.003.006-.001.004-.003.005-.001.004-.001.005-.003.006-.003.005-.001.005-.001.006-.002.004-.002.004-.002.005-.001.005-.003h.006l.005-.002.005-.002h.004l.006-.002.005-.002.005-.001h.006l.004-.003h.005l.005-.001h.004l.007-.003h.016l.005-.001.006-.001.004-.003h.004l.006-.001h.006l.005-.002h.01l.006-.001h.005l.004-.001h.098l.005.001.005.001h.015l.005.002h.006l.006.001.004.003h.006l.005.001.004.001h.012l.004.003h.01l.006.001.005.002.004.001.006.001.006.002M270.589 899.212l.561-.445.576-.44.588-.438.603-.43.613-.431.63-.424.638-.42.654-.415" style="fill:none;stroke:red;stroke-width:1.99999;stroke-linecap:round;stroke-linejoin:round;stroke-miterlimit:4;stroke-dasharray:none;stroke-opacity:1;visibility:visible"/><path d="M270.343 899.738v-.03l.001-.006v-.024l.002-.007v-.006l.001-.006v-.01l.003-.006v-.013l.001-.004v-.007l.003-.008.001-.005v-.007l.003-.004v-.005l.002-.007v-.005l.003-.007v-.005l.003-.007.001-.006.001-.006.003-.004v-.006l.001-.006.002-.005.002-.007v-.005l.004-.004.003-.01.001-.003.002-.007.002-.003.003-.006.003-.007.002-.004.002-.007.002-.004.003-.006.003-.006.002-.006.003-.007.003-.003.002-.005.004-.004.002-.007.004-.005.001-.005.003-.004.002-.006.004-.008.003-.004.004-.006.003-.003.002-.004.004-.007.004-.004.003-.005.004-.005.004-.004.003-.007.004-.005.004-.004.002-.006.003-.001.003-.007.005-.005.004-.004.004-.004.004-.005.004-.004.003-.004.005-.006.004-.005.004-.004.004-.005.005-.003.004-.004.003-.003.005-.005.003-.004.005-.004.006-.005.004-.003.004-.004.005-.004.004-.007.003-.002.006-.004.006-.006M270.343 899.738l.039 2.695M270.443 902.699h-.001l-.002-.004-.001-.003-.001-.002v-.003l-.003-.003v-.002l-.001-.002-.002-.002-.001-.003-.001-.003v-.001l-.002-.003-.001-.001v-.005l-.003-.002v-.004l-.001-.002-.003-.003v-.004l-.001-.003v-.001l-.001-.004-.003-.003v-.01l-.001-.003-.002-.001v-.004l-.001-.002-.001-.002v-.003l-.002-.003-.001-.004v-.005l-.001-.003-.002-.001v-.003l-.001-.004-.001-.001v-.007l-.002-.002-.002-.003v-.01l-.002-.003v-.004l-.001-.003-.001-.003v-.009l-.002-.001v-.004l-.001-.003v-.008l-.001-.003-.002-.002v-.015l-.001-.003v-.001l-.001-.001v-.016l-.002-.003v-.005l-.001-.003v-.039l-.001-.002M298.32 951.71l-.713-.23-1.076-.353-1.062-.362-1.049-.366-1.035-.374-1.021-.379M292.365 949.646l-.005-.003-.006-.001-.005-.001-.005-.004-.006-.003-.005-.001-.004-.003-.005-.003-.006-.002-.005-.003-.005-.001-.006-.003h-.005l-.005-.003-.007-.002-.003-.003-.004-.003-.005-.005-.005-.003-.006-.001-.004-.003-.005-.002-.005-.003-.006-.004-.004-.003-.005-.002-.004-.004-.004-.006-.005-.001-.006-.004-.004-.003h-.004l-.006-.004-.004-.002-.004-.004-.004-.004-.006-.003-.005-.004-.004-.004-.003-.003-.005-.004-.004-.004-.005-.004-.006-.005-.002-.003-.004-.004-.006-.002-.004-.003-.004-.004-.004-.003-.004-.004-.005-.005-.001-.003-.006-.005-.002-.004-.006-.004-.004-.005-.004-.004-.004-.006-.005-.002-.001-.004-.006-.003-.002-.004-.004-.004-.004-.005-.004-.006-.004-.002-.002-.006-.004-.004-.004-.004-.002-.006-.004-.006-.006-.004-.001-.002-.004-.004-.004-.004-.003-.006-.002-.005-.004-.004-.003-.005-.004-.004-.003-.006-.002-.004-.003-.008-.003-.004-.002-.002-.004-.004-.003-.006-.003-.006-.002-.004-.003-.004-.003-.006-.002-.004-.003-.008-.004-.005-.001-.005-.003-.004-.003-.003-.002-.005-.003-.006M260.486 917.125l.053 2.788M269.435 901.324l19.72 42.757M260.486 917.125v-.523l.016-.518.03-.519.047-.52.064-.516.079-.515.095-.516.11-.512.128-.508.142-.508.156-.508.174-.502.19-.502.202-.498.219-.498.232-.493.25-.493.262-.49.277-.486.292-.484.307-.479.32-.479.335-.474.348-.474.364-.466.374-.466.376-.445.387-.444.403-.441.412-.436.426-.432.438-.432.448-.427M289.155 944.083v.001l.003.004.001.003.001.004.002.003.001.002.001.003.002.003.001.004.001.001.002.003v.002l.002.002v.004l.002.004h.001l.001.004v.009h.004v.003l.002.005.001.003v.002l.001.002v.004l.002.004.001.002v.002l.001.004.002.001v.004l.001.001.001.004v.002l.002.004v.008l.002.001.002.005v.003l.001.003v.009l.004.003v.004l.001.004.002.002v.006l.001.004.001.004v.006l.002.003.001.003v.01l.001.002.002.002v.01l.001.004v.001l.001.004v.01l.002.003v.004l.001.002v.016l.001.002v.008h.003v.052M268.388 901.12l.01-.01.009-.009.009-.006.01-.007.01-.008.01-.01.01-.006.01-.005.01-.01.01-.006.011-.006.011-.005.012-.007.01-.006.011-.006.011-.005.012-.007.01-.005.011-.004.012-.007.012-.002.012-.004.012-.003.011-.005.012-.003.013-.004.012-.004.012-.003.011-.002.013-.002.011-.002.015-.002.01-.002.012-.002.014-.001h.013l.012-.003h.073l.014.003h.013l.012.001.01.002.014.002.012.003.012.003.01.002.014.002.01.002.015.004.012.004.011.003.012.004.012.005.012.002.01.004.011.005.014.005.01.006.011.006.01.004.013.007.01.007.011.005.01.005.011.007.01.007.01.008.011.008.01.006.01.008.008.008.01.007.01.008.01.01.009.009.009.009.008.007.01.009.007.008.007.01.01.01.007.01.008.011.007.007.007.01.008.013.006.009.008.01.006.013.008.006.005.014.005.01.007.012.005.011.006.01M289.223 944.384l.021 2.93M288.239 947.996l-.917-.399-.907-.401-.895-.405-.88-.414-.866-.416-.851-.422-.837-.426-.823-.432-.81-.436-.793-.441-.777-.444-.763-.447-.748-.453-.732-.453-.714-.46-.702-.466-.684-.464-.67-.473-.656-.472-.639-.479-.621-.482-.608-.483-.59-.488-.576-.49-.558-.494-.54-.495-.526-.498-.512-.502-.493-.504-.477-.506-.462-.507-.444-.512-.428-.515-.412-.517-.393-.515-.377-.52-.36-.522-.344-.52-.327-.526-.31-.524-.291-.524-.276-.529-.26-.528-.242-.53-.225-.531-.21-.53-.19-.534-.175-.53-.157-.536-.141-.533-.122-.532-.106-.536-.079-.463-.068-.464-.053-.468-.04-.464-.028-.465-.014-.463M289.244 947.315v.059l-.003.013v.015l-.001.014-.003.014-.002.014-.003.015-.003.013-.002.014-.004.014-.004.014-.003.014-.004.014-.005.016-.004.012-.006.014-.005.014-.005.012-.007.013-.005.013-.007.012-.007.015-.008.013-.005.012-.007.011-.008.013-.008.015-.008.01-.009.011-.008.012-.008.012-.01.014-.009.006-.009.014-.01.01-.01.01-.01.013-.01.008-.01.01-.011.01-.01.008-.01.01-.012.01-.012.008-.011.01-.012.007-.01.008-.015.007-.011.008-.01.01-.014.006-.013.007-.014.006-.013.007-.013.005-.012.006-.014.006-.013.007-.012.005-.013.004-.015.003-.016.004-.012.007-.012.001-.015.005-.014.004-.014.002-.014.002-.014.003-.014.001-.014.003-.014.003h-.016l-.014.002h-.085l-.015-.002h-.014l-.014-.003-.013-.003-.016-.002-.013-.002-.014-.002-.014-.003-.014-.003-.017-.005-.01-.003-.014-.005-.015-.005-.013-.003-.013-.004-.014-.007-.014-.005" style="fill:none;stroke:red;stroke-width:1.99999;stroke-linecap:round;stroke-linejoin:round;stroke-miterlimit:4;stroke-dasharray:none;stroke-opacity:1;visibility:visible"/><path d="m289.741 899.281 11.368 2.96" style="fill:none;stroke:red;stroke-width:.999997;stroke-linecap:round;stroke-linejoin:round;stroke-miterlimit:4;stroke-dasharray:none;stroke-opacity:1;visibility:visible"/><path d="m329.869 909.731.004.001.005.002.006.001.006.001.004.002h.004l.006.001.004.004.006.001.006.002.004.002.005.002h.005l.004.002.006.003.005.003.004.001h.005l.006.003.004.001.004.003.005.001.005.004.006.003h.005l.004.002.003.006.006.002.004.003.006.001.004.002.004.002.005.002.005.002.004.004.004.003.006.003.005.002.004.004.004.002.004.001.004.003.004.004.005.002.004.003.003.003.007.005.004.003.004.004.005.002.003.003.005.003.004.002.003.006.005.002.001.004.006.004.004.002.005.004.004.002.004.004.004.003.003.004.004.007.005.001.003.004.005.004.001.003.004.005.004.004.004.003.004.002.003.006.004.001.003.004.004.004.004.004.004.007.002.004.004.004.006.004.001.002.003.006.002.004.004.004.003.005.001.001.006.006.002.004.004.004.003.004.003.008.002.002.003.004.004.006.003.004.002.005.004.003.003.005.003.004" style="fill:none;stroke:red;stroke-width:1.99999;stroke-linecap:round;stroke-linejoin:round;stroke-miterlimit:4;stroke-dasharray:none;stroke-opacity:1;visibility:visible"/><path d="m329.869 909.731-15.821-4.123" style="fill:none;stroke:red;stroke-width:.999997;stroke-linecap:round;stroke-linejoin:round;stroke-miterlimit:4;stroke-dasharray:none;stroke-opacity:1;visibility:visible"/><path d="M337.681 922.548h.001l.002.003v.002l.002.003.002.001v.003l.002.001v.002l.002.002.001.003v.001l.003.003v.001l.001.003h.001v.001l.002.003.001.001v.003h.001l.002.003v.002l.002.002v.002l.002.002v.004h.001v.005l.003.003h.001v.002l.001.002.002.001v.004h.001l.001.003v.001l.002.004.001.003v.002h.001l.002.003v.001l.001.003.001.001v.002l.002.001.001.003v.005l.001.001v.004l.003.002.001.002v.003l.002.001.001.004.001.003.002.001v.004l.001.004h.001v.006l.002.002h.001v.004l.001.003.002.001v.006l.001.002v.007l.003.001.001.002v.005l.001.003v.009l.003.003h.001v.008M337.681 922.548l-7.403-12.508M344.998 991.454l4.32 1.323M347.852 609.949l.01-.392.018-.395.028-.396.037-.394.047-.394.057-.389.064-.387.072-.373.082-.37.088-.367.096-.359.105-.353.11-.344.12-.335.127-.328.134-.32.144-.308.148-.3.156-.287.162-.274.166-.26.178-.255.184-.24.192-.224.198-.208.202-.196.21-.177.213-.159.223-.144.229-.125.233-.104.24-.084.243-.062M343.061 987.129l.652-51.39M343.935 918.306l1.439-113.281M345.594 787.692l1.145-90.145M347.01 676.298l.843-66.35M357.047 599.678l.003-.001h.005l.003-.002h.006l.004-.001h.003l.001-.003h.007l.003-.002h.017l.001-.003h.015l.003-.001h.009l.003-.002h.01l.003-.001h.043l.001-.001h.019l.002.001h.043M344.998 991.454l-.164-.059-.159-.076-.153-.085-.145-.101-.138-.115-.128-.124-.124-.143-.116-.153-.108-.16-.097-.173-.09-.179-.083-.188-.08-.213-.071-.222-.064-.229-.055-.241-.048-.248-.038-.259-.031-.261-.024-.266-.013-.269-.007-.277v-.284M351.723 992.066l-.195.157-.196.139-.198.125-.206.11-.204.093-.208.07-.209.055-.167.03-.166.014-.167.002-.167-.014-.162-.029-.16-.041M362.196 600.027h.013l.011.001.01.002.013.002h.01l.01.003.014.003.008.001.012.003.012.002.012.002.011.004.01.004.011.001.011.003.01.002.013.004.009.006.01.002.01.006.012.005.01.003.01.005.01.007.011.002.011.007.01.003.011.006.008.006.011.004.008.009.012.004.01.008.007.007.011.006.01.006.009.005.009.008.01.007.006.008.01.008.009.008.008.006.009.007.01.008.007.008.007.01.008.007.007.01.009.008.008.008.007.008.008.01.005.01.008.008.008.009.005.008.007.01.007.01.008.01.005.01.007.01.005.009.005.009.004.012.006.01.006.009.006.009.005.01.005.013.006.009.004.012.004.012.004.008.004.012.004.012.004.01.004.011.002.01.004.013.003.01.003.011.004.012.002.01.003.013.001.012.003.012.001.01.003.011.001.014.002.009.001.012.003.01v.083M351.723 992.066l4.092-3.488M361.323 689.548l1.568-88.744M356.05 988.082l-.001.004v.019l-.002.005v.016l-.001.007v.005l-.003.005v.011l-.001.007v.01l-.001.006-.003.005v.007l-.001.005v.005l-.002.007-.001.004-.001.007-.002.005-.001.005-.001.006-.002.005-.001.005-.001.007-.002.004-.002.005v.006l-.002.006-.002.006-.002.005-.001.005-.003.006-.001.005-.001.005-.003.004-.003.006-.001.005-.003.007-.001.006-.003.003-.002.005-.003.006-.003.004-.002.006-.002.004-.002.006-.003.006-.003.006-.002.004-.003.005-.003.004-.001.005-.003.006-.004.004-.004.005-.001.005-.004.004-.001.004-.003.007-.004.005-.004.006-.003.002-.004.004-.001.006-.004.005-.004.003-.003.006-.004.004-.004.004-.002.004-.002.004-.005.006-.003.005-.004.004-.004.004-.001.004-.005.004-.004.005-.004.003-.004.005-.004.004-.004.003-.004.004-.004.005-.003.003-.004.005-.004.004-.004.003-.005.004-.003.004-.005.004-.004.004-.006.003-.004.005M356.05 988.082l5.201-294.45M300.288 1034.168l-4.53-1.544M327.613 607.357l-5.125-.407M317.452 612.342 293.9 1030.106M293.927 1030.358v-.003l-.001-.004-.002-.004v-.002l-.001-.003-.001-.001v-.007l-.002-.003-.001-.001v-.007l-.001-.001-.002-.003v-.005l-.001-.001v-.003l-.001-.004v-.004l-.002-.001v-.007l-.002-.003v-.009l-.003-.004v-.012l-.001-.001v-.011l-.002-.003v-.001l-.001-.003v-.016l-.001-.002v-.006l-.002-.001v-.019l-.001-.002v-.092M317.452 612.342v-.001l.001-.002v-.025l.002-.001v-.006l.001-.001v-.015l.001-.002v-.004l.002-.002v-.014l.001-.003v-.012l.003-.003v-.001l.001-.003v-.009h.001v-.013l.003-.002v-.002l.001-.003v-.007l.002-.001v-.003l.001-.001v-.003l.001-.002v-.003l.002-.003v-.004l.001-.002v-.003l.001-.003v-.002l.002-.002v-.002l.001-.002v-.009l.001-.001v-.004l.002-.003v-.007l.002-.002.002-.002v-.001M295.758 1032.623l-.16-.064-.157-.075-.154-.084-.142-.098-.138-.11-.132-.121-.124-.13-.138-.165-.13-.18-.12-.189-.109-.2-.1-.212-.09-.224-.071-.201-.066-.212M317.487 612.146l.12-.376.13-.368.137-.357.145-.35.155-.336.164-.324.169-.308.175-.297.184-.283.192-.269.196-.253.205-.239.21-.221.215-.207.226-.192.233-.173.239-.156.245-.136.25-.116.255-.094.258-.072.222-.042.226-.026.226-.009.224.01M306.748 1027.24l-.104.352-.112.35-.12.347-.128.343-.135.34-.14.333-.148.327-.146.316-.158.308-.162.303-.166.292-.169.286-.175.278-.18.265-.184.257-.189.247-.19.237-.198.227-.197.212-.202.199-.202.185-.211.177-.215.163-.216.148-.218.132-.222.115-.222.097-.224.08-.219.061-.22.042-.223.022-.22.003-.218-.017-.216-.04-.211-.06M327.613 607.357l.208.027.21.037.206.056.201.073.198.084.192.099.188.112.213.15.205.167.2.184.19.199.181.216.172.227.164.241.153.255.146.265.14.28.129.29.121.303.112.31.102.312.092.32.082.328.078.336.068.342M306.776 1027.082h0v.001l-.001.003v.008l-.002.003v.018l-.001.002v.005l-.001.001v.014l-.002.001v.003l-.001.001v.012l-.001.001v.006l-.002.002v.006l-.001.001v.004l-.001.001v.007l-.002.001v.003l-.001.003v.006l-.001.002v.001l-.002.003v.008h-.001v.001l-.001.001v.008l-.002.002-.002.001v.01h-.002v.005l-.001.001v.003M331.564 612.57v.001l.001.003v.008l.002.001v.003l.001.003v.009l.001.003v.002l.002.003v.013l.001.003v.021l.003.004v.006l.001.001v.03h.001v.071l-.001.003v.01M310.718 961.248l-3.941 65.833" style="fill:none;stroke:red;stroke-width:1.99999;stroke-linecap:round;stroke-linejoin:round;stroke-miterlimit:4;stroke-dasharray:none;stroke-opacity:1;visibility:visible"/><path d="m311.632 945.96-.915 15.288" style="fill:none;stroke:red;stroke-width:.999997;stroke-linecap:round;stroke-linejoin:round;stroke-miterlimit:4;stroke-dasharray:none;stroke-opacity:1;visibility:visible"/><path d="m331.576 612.77-19.944 333.191" style="fill:none;stroke:red;stroke-width:1.99999;stroke-linecap:round;stroke-linejoin:round;stroke-miterlimit:4;stroke-dasharray:none;stroke-opacity:1;visibility:visible"/><path d="m347.586 919.137-3.307-.87" style="fill:none;stroke:red;stroke-width:.999997;stroke-linecap:round;stroke-linejoin:round;stroke-miterlimit:4;stroke-dasharray:none;stroke-opacity:1;visibility:visible"/><path d="m343.776 918.397.104-.065.104-.046.1-.028.103-.006.092.013M310.964 960.281l-.097.065-.099.051M348.9 931.82l-.007.028-.02.025M337.792 922.712l5.984-4.316" style="fill:none;stroke:red;stroke-width:1.99999;stroke-linecap:round;stroke-linejoin:round;stroke-miterlimit:4;stroke-dasharray:none;stroke-opacity:1;visibility:visible"/><path d="m311.905 941.384 25.887-18.67M348.9 931.82l.052-3.544" style="fill:none;stroke:red;stroke-width:.999997;stroke-linecap:round;stroke-linejoin:round;stroke-miterlimit:4;stroke-dasharray:none;stroke-opacity:1;visibility:visible"/><path d="m310.964 960.281 37.91-28.41" style="fill:none;stroke:red;stroke-width:1.99999;stroke-linecap:round;stroke-linejoin:round;stroke-miterlimit:4;stroke-dasharray:none;stroke-opacity:1;visibility:visible"/><path d="m350.35 788.449-4.396-.815" style="fill:none;stroke:red;stroke-width:.999997;stroke-linecap:round;stroke-linejoin:round;stroke-miterlimit:4;stroke-dasharray:none;stroke-opacity:1;visibility:visible"/><path d="m345.565 787.707.1-.044.101-.027.099-.01.09.008M319.285 819.065l-.03.015-.03.013M320.332 800.577l25.233-12.868" style="fill:none;stroke:red;stroke-width:1.99999;stroke-linecap:round;stroke-linejoin:round;stroke-miterlimit:4;stroke-dasharray:none;stroke-opacity:1;visibility:visible"/><path d="m350.798 802.02.045-3.183" style="fill:none;stroke:red;stroke-width:.999997;stroke-linecap:round;stroke-linejoin:round;stroke-miterlimit:4;stroke-dasharray:none;stroke-opacity:1;visibility:visible"/><path d="m319.285 819.065 31.436-16.917" style="fill:none;stroke:red;stroke-width:1.99999;stroke-linecap:round;stroke-linejoin:round;stroke-miterlimit:4;stroke-dasharray:none;stroke-opacity:1;visibility:visible"/><path d="m302.233 669.539.01-.064.027-.05.038-.037.046-.022M293.188 774.013l2.795-1.255" style="fill:none;stroke:red;stroke-width:.999997;stroke-linecap:round;stroke-linejoin:round;stroke-miterlimit:4;stroke-dasharray:none;stroke-opacity:1;visibility:visible"/><path d="m296.138 772.746-.083-.007-.073.019" style="fill:none;stroke:red;stroke-width:1.99999;stroke-linecap:round;stroke-linejoin:round;stroke-miterlimit:4;stroke-dasharray:none;stroke-opacity:1;visibility:visible"/><path d="m293.07 774.21.012-.068.024-.056.036-.043.045-.028" style="fill:none;stroke:red;stroke-width:.999997;stroke-linecap:round;stroke-linejoin:round;stroke-miterlimit:4;stroke-dasharray:none;stroke-opacity:1;visibility:visible"/><path d="m296.138 772.746 12.145 2.208" style="fill:none;stroke:red;stroke-width:1.99999;stroke-linecap:round;stroke-linejoin:round;stroke-miterlimit:4;stroke-dasharray:none;stroke-opacity:1;visibility:visible"/><path d="m293.07 774.21-.019.207M282.518 896.764l2.61-1.628" style="fill:none;stroke:red;stroke-width:.999997;stroke-linecap:round;stroke-linejoin:round;stroke-miterlimit:4;stroke-dasharray:none;stroke-opacity:1;visibility:visible"/><path d="m285.352 895.117-.084-.015-.076.01-.064.025M314.228 902.583l26.081 6.744M275.518 965.427l2.639-1.896M300.315 596.433l2.953-.544M279.16 962.501l-.143.195-.154.189-.163.179-.173.166-.18.156-.19.143M266.024 960.097l2.05-24.805M271.09 898.816l8.124-99.364M289.676 674.034l6.108-73.868M281.32 775.1l7.01-84.053M303.268 595.89l.308-.048.315-.033.313-.014.316.003.316.02.316.039.312.053.308.068.305.088.303.101.3.118.293.133.291.148.284.161.283.18.276.194.266.209.264.223.254.234.244.25.234.261.228.275.218.286.208.299.197.308.185.317.171.326.161.333.135.312.124.316.113.32.102.325M285.224 895.105l7.879-88.986M296.084 772.738l7.247-81.526M305.332 668.51l5.908-66.53M279.271 962.194l-.001.003v.002l-.002.004v.016l-.001.003v.001l-.003.004v.012l-.001.004v.01l-.001.002-.002.004v.006l-.001.004-.001.002v.006l-.002.001-.001.004v.007l-.001.002-.002.003v.004l-.001.004-.001.003v.001l-.002.004-.001.003v.005l-.001.001-.003.004v.008l-.001.002v.002l-.002.004v.003l-.001.003-.001.002-.002.004-.001.004v.003l-.003.003v.002l-.001.003-.001.003-.002.004-.001.004-.001.002-.002.004-.001.003v.003l-.003.002-.001.003-.001.004-.002.003-.001.002-.001.002-.002.005-.001.003-.001.002-.002.003-.002.003v.002l-.003.004-.001.003-.003.003v.002l-.001.006-.004.002v.002l-.002.002-.001.003-.001.003-.002.004-.001.002-.001.002-.003.002v.004l-.003.004-.004.002v.002l-.001.003-.003.003v.002l-.002.003-.003.004-.001.003-.002.004-.002.002-.002.002M266.051 960.345l-.001-.003v-.004l-.002-.002-.001-.003v-.004l-.001-.003-.003-.002v-.007h-.001v-.007l-.002-.002-.002-.002v-.006l-.002-.004v-.007l-.001-.003-.001-.004v-.006l-.002-.003-.001-.003v-.008l-.001-.001-.002-.003v-.01l-.001-.003v-.004l-.001-.001v-.014l-.002-.002v-.002l-.001-.004v-.028l-.003-.001v-.077l.003-.002v-.013M295.784 600.165v-.01l.001-.002v-.004l.002-.003v-.013l.001-.003v-.004l.001-.004v-.01l.002-.002.001-.002v-.011l.001-.003.002-.002v-.008l.001-.003v-.01l.003-.003.001-.003v-.007l.001-.004.002-.001v-.008l.001-.001.001-.003v-.003l.002-.004.001-.002v-.004l.001-.002.002-.001v-.007l.001-.004v-.006l.003-.003v-.003l.001-.002.001-.003v-.003l.002-.004v-.005l.002-.003v-.004l.003-.002.001-.004v-.002l.002-.001.001-.003.001-.005.002-.003v-.002l.001-.003.001-.003.002-.004.001-.002v-.002l.003-.002v-.006l.002-.002.002-.004v-.003l.002-.003.002-.002.001-.004h.001l.002-.004.001-.003.001-.003.002-.004.001-.002.001-.003.002-.003.001-.004.001-.002v-.002l.003-.002.001-.003.002-.003v-.002l.002-.004M311.211 601.695v.003l.001.002.002.004v.002l.001.004.001.001v.008l.002.003.001.001v.005l.001.003.003.003v.009l.001.003v.004l.002.004.001.002v.007l.001.001v.003l.002.004v.007l.001.001v.003l.001.002v.008l.002.003v.004l.001.003v.008l.001.004v.002l.002.003v.015l.001.001v.032l.001.003v.08l-.001.002v.027" style="fill:none;stroke:red;stroke-width:1.99999;stroke-linecap:round;stroke-linejoin:round;stroke-miterlimit:4;stroke-dasharray:none;stroke-opacity:1;visibility:visible"/><path d="m275.518 965.427-.196.135-.205.118-.214.108-.218.099-.224.083-.231.07-.233.059-.236.047-.24.032-.246.02-.245.008-.25-.006-.249-.02-.252-.028-.261-.045-.264-.055-.263-.07-.261-.083-.261-.095-.259-.108-.257-.117-.262-.135-.26-.145-.254-.159-.252-.169-.25-.18-.24-.192-.237-.2-.23-.21-.226-.22-.219-.231-.21-.24-.204-.247-.195-.255-.185-.258-.178-.266-.168-.272-.157-.28-.15-.281-.137-.288-.125-.288-.117-.293-.076-.211-.071-.215M295.87 599.872l.172-.307.185-.301.199-.288.21-.277.223-.264.232-.251.242-.233.248-.218.257-.202.264-.188.275-.176.281-.156.288-.143.29-.125.267-.098.267-.082.272-.074.273-.057M352.248 599.534l-2.813.579M343.722 607.926l-.75 66.306M342.705 697.631l-1.04 92.065M341.465 807.126l-1.287 113.864M339.98 938.536l-.473 41.86M343.722 607.926l.012-.392.027-.392.044-.387.061-.386.076-.382.09-.374.106-.368.12-.354.133-.349.148-.341.162-.334.176-.324.188-.31.2-.302.212-.288.225-.274.236-.267.248-.252.259-.235.265-.224.277-.208.283-.189.29-.175.3-.161.305-.143.312-.126.317-.11.32-.094.319-.072M343.06 987.281l-.028-.023-.259-.209-.252-.217-.245-.23-.239-.237-.226-.244-.22-.256-.211-.263-.204-.268-.192-.277-.181-.285-.171-.29-.16-.289-.15-.297-.137-.304-.125-.303-.113-.31-.1-.309-.09-.309-.074-.312-.056-.277-.046-.278-.034-.278-.024-.275-.016-.273v-.272" style="fill:none;stroke:red;stroke-width:1.99999;stroke-linecap:round;stroke-linejoin:round;stroke-miterlimit:4;stroke-dasharray:none;stroke-opacity:1;visibility:visible"/><path d="m352.232 677.932-4.861-.583M352.604 678.427l-.008-.112-.024-.103-.041-.089-.056-.072-.068-.057-.082-.039-.092-.023" style="fill:none;stroke:red;stroke-width:.999997;stroke-linecap:round;stroke-linejoin:round;stroke-miterlimit:4;stroke-dasharray:none;stroke-opacity:1;visibility:visible"/><path d="m349.46 693.67 1.956-.7M326.235 702.004l15.256-5.475" style="fill:none;stroke:red;stroke-width:1.99999;stroke-linecap:round;stroke-linejoin:round;stroke-miterlimit:4;stroke-dasharray:none;stroke-opacity:1;visibility:visible"/><path d="M362.175 611.945c0 1.05-.417 1.903-.935 1.903-.516 0-.933-.852-.933-1.903 0-1.05.417-1.904.933-1.904.518 0 .935.854.935 1.904" style="fill:none;stroke:red;stroke-width:.666665;stroke-linecap:round;stroke-linejoin:round;stroke-miterlimit:4;stroke-dasharray:none;stroke-opacity:1;visibility:visible"/><path d="m361.564 611.536-.63.441.597.578M359.844 746.136c-.177 1.006-.72 1.752-1.216 1.666-.494-.086-.752-.972-.576-1.981.178-1.007.722-1.755 1.215-1.667.496.088.755.976.577 1.982" style="fill:none;stroke:red;stroke-width:.666665;stroke-linecap:round;stroke-linejoin:round;stroke-miterlimit:4;stroke-dasharray:none;stroke-opacity:1;visibility:visible"/><path d="m359.327 745.64-.677.317.474.655M357.712 868.717c-.177 1.006-.72 1.753-1.216 1.666-.494-.085-.752-.972-.576-1.981.178-1.007.722-1.753 1.215-1.667.496.088.755.975.577 1.982" style="fill:none;stroke:red;stroke-width:.666665;stroke-linecap:round;stroke-linejoin:round;stroke-miterlimit:4;stroke-dasharray:none;stroke-opacity:1;visibility:visible"/><path d="m357.194 868.222-.676.317.475.655M355.795 981.218c-.177 1.006-.72 1.752-1.215 1.666-.496-.086-.752-.974-.576-1.981.178-1.008.722-1.755 1.216-1.667.495.086.752.972.575 1.982" style="fill:none;stroke:red;stroke-width:.666665;stroke-linecap:round;stroke-linejoin:round;stroke-miterlimit:4;stroke-dasharray:none;stroke-opacity:1;visibility:visible"/><path d="m355.279 980.722-.677.316.474.655M339.271 934.435c-.177 1.008-.721 1.752-1.216 1.667-.495-.087-.752-.974-.575-1.98.176-1.008.72-1.756 1.214-1.667.496.085.754.972.576 1.98h.001" style="fill:none;stroke:red;stroke-width:.666665;stroke-linecap:round;stroke-linejoin:round;stroke-miterlimit:4;stroke-dasharray:none;stroke-opacity:1;visibility:visible"/><path d="m338.754 933.94-.677.317.474.655M317.302 950.622c-.177 1.006-.722 1.752-1.217 1.666-.495-.086-.751-.973-.575-1.98.177-1.008.72-1.755 1.215-1.668.497.087.754.974.577 1.982" style="fill:none;stroke:red;stroke-width:.666665;stroke-linecap:round;stroke-linejoin:round;stroke-miterlimit:4;stroke-dasharray:none;stroke-opacity:1;visibility:visible"/><path d="m316.784 950.126-.677.319.474.653" style="fill:none;stroke:red;stroke-width:.666665;stroke-linecap:round;stroke-linejoin:round;stroke-miterlimit:4;stroke-dasharray:none;stroke-opacity:1;visibility:visible"/><path d="m289.45 943.837 2.51 5.433" style="fill:none;stroke:red;stroke-width:1.99999;stroke-linecap:round;stroke-linejoin:round;stroke-miterlimit:4;stroke-dasharray:none;stroke-opacity:1;visibility:visible"/><path d="m306.401 777.731.003 2.112M308.143 777.217l-1.067-.195M307.077 777.023l1.004 1.293M320.68 794.554l2.812 3.627M326.383 780.562l.124.004.119.024.11.047.099.064.084.084M307.077 777.023l.064-.021h.061M306.401 777.731l.013-.13.038-.126.062-.12.083-.107.104-.09.116-.067.128-.048.132-.021M274.162 786.333l.02.439.048.438.075.442.104.441.13.441.16.442.191.441.216.444.245.44.274.44.301.441.33.438.36.437.387.437.415.434.445.433.472.435.502.428.528.426.557.427.585.424.614.417.64.419.668.413.696.414.722.408.748.402.776.402.803.397.83.393.855.388.883.384.905.378.932.377.958.368.984.364 1.004.36 1.032.353 1.053.348 1.077.344 1.1.336 1.124.331 1.144.323 1.168.318 1.187.31M302.41 804.449l.117.025.131.016.139.011h.141l.14-.008.133-.016.12-.023.107-.03.087-.035.064-.041.038-.043.014-.045M282.771 775.38l.105-.047.115-.021.12.005" style="fill:none;stroke:red;stroke-width:.999997;stroke-linecap:round;stroke-linejoin:round;stroke-miterlimit:4;stroke-dasharray:none;stroke-opacity:1;visibility:visible"/><path d="m283.11 775.317.133.004.13.03.118.054.103.079.087.097M303.64 804.261l.001.628M303.503 803.828l.003.004.001.003.004.005.003.004.002.004.003.005.003.003.001.004.003.004.002.003.003.005.001.004.003.003.001.005.003.003.003.002.002.004.002.006.002.004.003.005.001.003.004.004.002.005.001.003.003.004.001.005.003.003.001.005.003.004.001.003.001.005.003.004.003.005v.006l.004.001.001.004.001.007.002.002.001.004.001.006.002.004.002.004.002.004.001.005v.004l.003.004.002.007.002.002.001.003.001.005.002.004.001.007.001.003.002.004.001.004.001.004.002.006.001.004.001.006.002.004v.002l.001.007v.003l.003.005v.008l.002.005.002.003v.007l.001.004.001.005v.005l.003.004v.008l.001.004v.007l.002.003v.008l.001.005v.005l.001.006v.008l.002.004v.009l.001.005v.018l.001.006v.028" style="fill:none;stroke:red;stroke-width:.999997;stroke-linecap:round;stroke-linejoin:round;stroke-miterlimit:4;stroke-dasharray:none;stroke-opacity:1;visibility:visible"/><path d="m284.757 777.114 18.747 26.713" style="fill:none;stroke:red;stroke-width:1.99999;stroke-linecap:round;stroke-linejoin:round;stroke-miterlimit:4;stroke-dasharray:none;stroke-opacity:1;visibility:visible"/><path d="m284.75 774.787.021 2.348M303.352 776.338l-16.361-3M285.417 774.084l21.22 29.841M286.99 773.338l.064-.02.064.003M286.71 773.37l.088-.028.095-.012.097.008M285.418 774.084l-.105-.007-.1.014-.096.033M284.736 774.746l.004.023.01.016M284.75 774.785l.012-.128.036-.125.063-.119.082-.104.1-.09.118-.07.125-.045.132-.019M303.352 776.338l.128.004.123.027.113.052.103.07.084.09M306.348 808.545l.005.083.015.082" style="fill:none;stroke:red;stroke-width:.999997;stroke-linecap:round;stroke-linejoin:round;stroke-miterlimit:4;stroke-dasharray:none;stroke-opacity:1;visibility:visible"/><path d="m306.374 808.575-.015-.015-.012-.013M306.387 779.823l1.499 1.956M320.463 798.186l1.152 1.504M321.615 799.69l.001.001.002.002.001.001v.001l.003.002v.004l.002.001.002.001.001.002.001.001.003.003v.002l.001.003.002.001.001.003h.001l.002.001.001.003.001.001.002.002.001.001v.003l.001.002.002.003h.001l.003.003v.002l.001.002.001.002.002.003.001.001.001.002.002.001v.003l.001.001.001.001.002.002v.002l.001.002.001.001.002.001v.006l.002.001.002.001v.002h.001l.001.002v.003h.002l.001.001.001.002v.002l.002.002.001.002.001.003.002.001v.002l.001.002.001.002v.004l.003.001.001.001v.002l.002.002.001.002v.001l.001.003v.001l.002.001.001.003v.001l.001.002.002.004v.002l.001.002.001.002.002.003.001.001v.002l.001.002v.002l.002.002.001.002v.005l.003.001v.002M340.848 783.648l-13.63-2.501M306.478 777.336l-2.323-.424" style="fill:none;stroke:red;stroke-width:.999997;stroke-linecap:round;stroke-linejoin:round;stroke-miterlimit:4;stroke-dasharray:none;stroke-opacity:1;visibility:visible"/><path d="m326.92 780.785 9.44 11.359M326.507 780.543l.003.001.006.002h.006l.004.001.005.001.004.002.004.001h.005l.006.001.004.002.005.001h.005l.004.001.006.002.004.002h.005l.005.003.003.004.005.001.004.002.006.001h.009l.004.004h.005l.004.003.006.002h.004l.005.002.003.002.005.003.004.003h.005l.004.002.006.002.004.002.004.003.005.001.004.003.004.001.005.003.004.003.004.001.004.001.004.006.004.002.006.003.004.001.002.002.006.001.005.004.004.003.004.001.004.004.004.001.004.003.004.003.004.002.004.003.004.003.004.002.004.003.004.004.004.003.003.001.005.003.004.002.004.007.004.003h.003l.002.005.006.003.004.002.004.003.004.004.004.003.002.002.004.004.004.003.004.004.004.003.003.004.004.001.004.007.003.002.002.004.004.003.004.001.003.006.004.002.003.003.004.004.002.004.004.004.003.003.003.004.004.004.004.004.002.004.004.005M336.36 792.142l.001.001.002.003.001.001.001.002.002.002.002.002.002.001.001.001.001.003.002.001v.002l.002.004v.001l.003.001.001.002.002.001h.001l.001.001.002.003.001.003.001.002v.002l.002.001.001.003.001.001.002.003.001.002h.001v.003l.003.001.001.003.002.001.001.002.001.001.002.003.001.001.001.001v.003l.002.001.001.003.001.001.002.002.001.004v.001l.003.003h.001l.001.002v.002l.003.004h.001l.002.001v.004h.001l.001.004h.002l.001.003.001.001v.001l.002.003.001.001.001.003.002.001v.003l.001.001.001.002.002.002v.004l.001.002.001.002.002.003v.003l.001.001.001.001.002.002v.001l.001.001.001.002.002.004.001.002.001.002v.002l.002.003.001.003h.001v.002l.002.002v.004l.002.002.002.002v.002l.001.002.001.002v.002l.002.002.001.002M306.384 777.687l.003 2.136" style="fill:none;stroke:red;stroke-width:1.99999;stroke-linecap:round;stroke-linejoin:round;stroke-miterlimit:4;stroke-dasharray:none;stroke-opacity:1;visibility:visible"/><path d="m321.572 779.64 4.935.904" style="fill:none;stroke:red;stroke-width:.999997;stroke-linecap:round;stroke-linejoin:round;stroke-miterlimit:4;stroke-dasharray:none;stroke-opacity:1;visibility:visible"/><path d="m274.162 786.333.037 3.059M302.703 808.205l-.932-.245-.92-.251-.907-.253-.894-.259-.882-.264-.868-.267-.852-.268-.84-.276-.825-.278-.81-.279-.798-.287-.777-.286-.766-.292-.748-.295-.734-.296-.719-.301-.703-.304-.688-.304-.673-.311-.657-.312-.642-.316-.624-.317-.608-.32-.593-.324-.575-.324-.56-.33-.544-.33-.529-.334-.512-.334-.495-.339-.478-.34-.463-.345-.445-.346-.427-.345-.412-.35-.393-.35-.376-.353-.359-.354-.343-.356-.324-.36-.309-.358-.292-.364-.273-.367-.255-.368-.24-.368-.221-.372-.2-.372-.186-.372-.166-.376-.147-.375-.13-.38-.111-.377-.08-.327-.068-.329-.054-.328-.04-.33-.024-.327-.013-.328M303.646 807.475v.04l-.001.016-.003.013v.014l-.001.013-.003.013-.001.014-.003.014-.003.012-.001.015-.005.013-.004.015-.003.01-.003.015-.004.014-.004.014-.005.011-.004.013-.005.012-.006.014-.005.012-.007.013-.005.012-.007.013-.005.014-.007.009-.006.012-.008.012-.007.012-.008.012-.008.01-.007.013-.008.01-.01.012-.007.011-.01.01-.009.01-.009.01-.008.011-.01.012-.009.008-.01.01-.011.009-.01.01-.009.009-.01.01-.011.008-.013.008-.01.008-.01.008-.011.008-.012.008-.012.008-.012.006-.01.008-.013.006-.012.007-.013.007-.01.006-.014.007-.012.007-.013.004-.014.004-.012.005-.013.005-.012.004-.015.006-.012.004-.013.004-.013.004-.014.002-.013.004-.015.003-.012.004-.014.003-.012.001-.015.001h-.015l-.012.002-.013.001-.015.001h-.013l-.015.002h-.026l-.015-.002h-.013l-.014-.001-.013-.001-.015-.002h-.026l-.014-.002-.014-.003-.014-.004-.013-.003-.013-.002-.014-.004M303.64 804.89l.005 2.585M274.162 786.333l.004-.361.023-.358.037-.358.055-.355.07-.355.088-.353.104-.352.122-.348.134-.35.154-.342.168-.343.181-.337.199-.339.214-.337.231-.333.244-.334.26-.329.275-.327.289-.322.303-.324.317-.319.332-.317.343-.312.361-.311.37-.308.387-.305.378-.288.388-.284.401-.282.413-.278.424-.278.435-.274.447-.271.458-.268M282.771 775.38l.01-.005.009-.004.009-.006.008-.005.01-.004.009-.004.009-.003.01-.005.009-.005.009-.003.01-.004.01-.004.01-.004.009-.003.008-.002.01-.004.011-.003.01-.003.01-.002.01-.002.009-.002.01-.003h.011l.01-.003h.01l.01-.001.01-.001.01-.002.01-.001.01-.003h.103l.011.003h.01l.009.001.01.002.011.001.01.001h.01l.008.003.012.001.01.002.01.002.01.004.01.003.01.001.011.004.008.002.011.005.01.001.009.004.009.004.008.003.01.005.011.006.01.004.008.002.008.006.01.002.01.006.009.005.01.005.009.004.006.006.01.005.009.007.008.006.008.004.01.006.007.006.008.006.008.006.008.007.008.005.008.008.008.008.007.004.008.008.008.007.007.007.008.008.006.006.008.008.007.01.005.005.006.01.008.006.006.008.007.008.007.01.005.009.007.008M283.681 775.583l1.076 1.53M285.117 774.126l.31-.153.317-.152.317-.152.324-.15.324-.148M284.736 774.746v-.023l.001-.005v-.017l.002-.008v-.015l.001-.01.001-.005v-.006l.002-.01.001-.008.001-.008.002-.008.001-.006.001-.007.002-.007.001-.009.003-.008.001-.007.001-.008.003-.008.003-.006.001-.006.001-.009.003-.007.001-.008.003-.008.003-.006.002-.008.003-.007.003-.005.002-.008.004-.008.003-.007.001-.008.006-.005.002-.008.004-.007.003-.005.004-.008.004-.007.001-.008.004-.007.004-.006.004-.007.004-.005.004-.006.003-.008.005-.006.006-.007.004-.005.004-.007.005-.008.003-.007.006-.005.003-.004.005-.008.004-.005.006-.007.005-.005.005-.007.004-.005.006-.007.005-.005.005-.004.007-.007.004-.005.005-.006.006-.005.005-.005.007-.007.005-.005.005-.006.007-.005.004-.004.008-.003.004-.006.007-.006.004-.004.008-.005.006-.004.007-.005.005-.004.007-.004.007-.006.004-.004.008-.004.006-.002.007-.004.007-.006.006-.004.006-.004.008-.004.006-.004.007-.002.007-.004.006-.003M284.736 774.746l.021 2.368M303.478 776.321h.005l.006.001h.004l.005.002.005.002h.003l.007.002.004.001.005.001.005.003h.006l.005.001.004.002.005.001.006.001.005.002.003.002h.005l.005.003.004.001.006.002.005.001.004.001.005.002.006.001.004.003.005.001.005.003.003.001.005.003.004.002.006.003.005.003.004.001.005.003.004.001.006.003.004.001.005.003.004.002.004.003.004.001.005.003.004.003.004.002.006.003.004.003.005.001.004.003.004.002.005.003.004.003.004.002.003.003.005.004.004.003.004.002.006.003.004.003.004.002.004.004.004.003.004.003.004.002.005.004.004.003.003.003.004.002.004.004.002.003.006.004.004.003.004.005.004.003.004.004.002.004.003.001.005.005.004.003.004.003.004.004.002.004.004.004.004.001.004.004.002.004.004.004.004.004.003.005.004.004.003.003.004.003.004.004.002.004.004.004.003.004.004.005.001.001.003.006.004.004M303.903 776.58l2.484 3.243M303.64 804.89l2.723 3.89M287.663 804.439l2.793-.204M286.994 804.105l-1.335-2.052M287.663 804.439h-.047l-.008.001-.008-.001h-.046l-.008-.001h-.008l-.008-.002-.007-.001h-.008l-.008-.001-.008-.002-.008-.001-.008-.001-.008-.003-.007-.001-.008-.002-.006-.002-.008-.002-.008-.001-.008-.003-.008-.001-.008-.003-.006-.001h-.008l-.008-.004-.008-.003-.008-.002h-.006l-.008-.003-.006-.004-.008-.004-.008-.001-.008-.003-.006-.004-.007-.003-.008-.002-.007-.006-.006-.002-.007-.004-.008-.003-.007-.004-.006-.003-.008-.004-.007-.001-.007-.005-.006-.003-.007-.005-.007-.004-.005-.006-.008-.002-.007-.004-.006-.004-.008-.007-.004-.004-.007-.005-.007-.003-.006-.005-.006-.004-.006-.006-.007-.005-.007-.005-.005-.003-.005-.005-.006-.007-.006-.005-.006-.006-.006-.004-.006-.005-.006-.005-.006-.007-.005-.005-.005-.006-.006-.005-.005-.007-.007-.006-.004-.006-.005-.005-.005-.005-.004-.007-.006-.005-.005-.007-.005-.005-.004-.007-.004-.007-.006-.006-.004-.004-.005-.007-.004-.008-.004-.007-.005-.006" style="fill:none;stroke:red;stroke-width:1.99999;stroke-linecap:round;stroke-linejoin:round;stroke-miterlimit:4;stroke-dasharray:none;stroke-opacity:1;visibility:visible"/><path d="m331.863 682.21.003.001v.002l.004.001.001.001.001.003.003.001.001.002.003.002h.001l.003.004h.001l.002.004h.004v.003l.001.001.001.002.002.001.002.001.002.002.002.001.002.001.001.003.003.001.001.002v.001l.003.001.002.003h.002l.002.004.002.001.002.002.002.001.001.001.003.003h.001l.001.003.002.001.001.001.003.003.001.003h.003l.001.002.001.002.003.004.001.001.002.001v.003l.002.001v.002l.003.001.001.001.002.002.002.002.002.002.001.002.003.002.001.001.001.001.002.003.001.003.003.001.001.003.001.001.004.003.002.001.001.003.001.001.002.004h.001l.003.003.001.001.001.003.002.002h.001l.001.004.002.002.002.002.002.002.001.001v.001l.003.003v.001l.001.003.001.001.002.003.002.001.002.003.001.003.001.001.002.003.001.001.001.001.002.002.001.002v.002l.003.002.001.002.001.004.002.001M342.65 674.462l.115.005.112.023.104.041.097.06" style="fill:none;stroke:red;stroke-width:.999997;stroke-linecap:round;stroke-linejoin:round;stroke-miterlimit:4;stroke-dasharray:none;stroke-opacity:1;visibility:visible"/><path d="m314.265 669.578-8.996-1.057" style="fill:none;stroke:red;stroke-width:1.99999;stroke-linecap:round;stroke-linejoin:round;stroke-miterlimit:4;stroke-dasharray:none;stroke-opacity:1;visibility:visible"/><path d="m342.683 674.448.09-.068.087-.059.079-.048.07-.041M302.278 669.66l-.007-.06.002-.055M347.41 677.357l-20.057 6.636" style="fill:none;stroke:red;stroke-width:.999997;stroke-linecap:round;stroke-linejoin:round;stroke-miterlimit:4;stroke-dasharray:none;stroke-opacity:1;visibility:visible"/><path d="m346.716 677.277-3.639-2.688M342.73 674.454h.004l.004.001h.008l.004.002h.001l.006.001h.002l.004.001h.004l.004.002h.004l.003.001h.004l.004.001h.005l.002.002h.005l.003.001.004.001h.004l.004.002.002.001h.004l.002.001.005.002h.008l.004.001.001.001.006.003h.004l.004.001.002.002.004.001h.01l.004.001.004.002.004.001.002.001.006.002.002.001.004.001.003.002.004.001.003.001.004.002.004.002h.004l.004.003.002.003.003.002h.004l.003.002.004.001.004.001.002.002.004.002.003.002.004.001.004.001.003.003.004.001.004.002.002.001.004.001.003.002.003.002.002.003.004.001.004.002.003.001h.004l.003.003.004.001.002.001.004.003.003.001.003.003.004.003.004.001.002.003.004.004h.003l.001.002.004.003.003.001.004.003.003.001.004.003.002.003.003.001.004.003.001.002.004.002.004.002.003.003.004.001" style="fill:none;stroke:red;stroke-width:1.99999;stroke-linecap:round;stroke-linejoin:round;stroke-miterlimit:4;stroke-dasharray:none;stroke-opacity:1;visibility:visible"/><path d="m302.393 669.372 2.875-.853M302.272 669.545l.012-.061.024-.052.037-.038.048-.022" style="fill:none;stroke:red;stroke-width:.999997;stroke-linecap:round;stroke-linejoin:round;stroke-miterlimit:4;stroke-dasharray:none;stroke-opacity:1;visibility:visible"/><path d="m305.365 668.514-.05-.001-.046.008" style="fill:none;stroke:red;stroke-width:1.99999;stroke-linecap:round;stroke-linejoin:round;stroke-miterlimit:4;stroke-dasharray:none;stroke-opacity:1;visibility:visible"/><path d="m302.272 669.545-.01.112" style="fill:none;stroke:red;stroke-width:.999997;stroke-linecap:round;stroke-linejoin:round;stroke-miterlimit:4;stroke-dasharray:none;stroke-opacity:1;visibility:visible"/><path d="m328.119 671.19 14.905 1.752" style="fill:none;stroke:red;stroke-width:1.99999;stroke-linecap:round;stroke-linejoin:round;stroke-miterlimit:4;stroke-dasharray:none;stroke-opacity:1;visibility:visible"/><path d="M339.183 802.997c-.177 1.006-.721 1.752-1.216 1.666-.495-.085-.752-.973-.576-1.98.177-1.009.721-1.755 1.215-1.669.496.088.754.976.577 1.983M325.85 809.955c-.177 1.007-.721 1.752-1.216 1.667-.495-.087-.752-.972-.576-1.981.177-1.007.721-1.754 1.215-1.667.496.087.754.973.577 1.981" style="fill:none;stroke:red;stroke-width:.666665;stroke-linecap:round;stroke-linejoin:round;stroke-miterlimit:4;stroke-dasharray:none;stroke-opacity:1;visibility:visible"/><path d="m338.666 802.502-.678.318.475.654M325.333 809.46l-.678.317.475.654" style="fill:none;stroke:red;stroke-width:.666665;stroke-linecap:round;stroke-linejoin:round;stroke-miterlimit:4;stroke-dasharray:none;stroke-opacity:1;visibility:visible"/><path d="m292.364 949.646 6.2-2.235M313.554 913.845l-13.445 6.104" style="fill:none;stroke:red;stroke-width:.999997;stroke-linecap:round;stroke-linejoin:round;stroke-miterlimit:4;stroke-dasharray:none;stroke-opacity:1;visibility:visible"/><path d="m300.109 919.949 13.445-6.104" style="fill:none;stroke:red;stroke-width:1.99999;stroke-linecap:round;stroke-linejoin:round;stroke-miterlimit:4;stroke-dasharray:none;stroke-opacity:1;visibility:visible"/><path d="m330.28 910.039-16.476-.367M352.46 688.298l-.525 10.166M325.333 809.46l-4.604-4.365" style="fill:none;stroke:red;stroke-width:.999997;stroke-linecap:round;stroke-linejoin:round;stroke-miterlimit:4;stroke-dasharray:none;stroke-opacity:1;visibility:visible"/><path d="m345.954 787.634-4.194-6.544M326.507 780.544l-4.788-3.102M289.741 899.281l11.533.031" style="fill:none;stroke:red;stroke-width:1.99999;stroke-linecap:round;stroke-linejoin:round;stroke-miterlimit:4;stroke-dasharray:none;stroke-opacity:1;visibility:visible"/><path d="m344.28 918.266-4.837-5.673M291.89 946.094l-13.51-3.027" style="fill:none;stroke:red;stroke-width:.999997;stroke-linecap:round;stroke-linejoin:round;stroke-miterlimit:4;stroke-dasharray:none;stroke-opacity:1;visibility:visible"/><path d="m291.89 946.094-11.135-1.684" style="fill:none;stroke:red;stroke-width:1.99999;stroke-linecap:round;stroke-linejoin:round;stroke-miterlimit:4;stroke-dasharray:none;stroke-opacity:1;visibility:visible"/><path d="m341.491 696.53-14.318-10.214M343.077 674.589l-10.367 17.037M343.06 689.34l9.4-1.042" style="fill:none;stroke:red;stroke-width:.999997;stroke-linecap:round;stroke-linejoin:round;stroke-miterlimit:4;stroke-dasharray:none;stroke-opacity:1;visibility:visible"/><path d="m313.554 913.845-13.717 10.938M292.597 945.366l5.723 6.344" style="fill:none;stroke:red;stroke-width:1.99999;stroke-linecap:round;stroke-linejoin:round;stroke-miterlimit:4;stroke-dasharray:none;stroke-opacity:1;visibility:visible"/><path d="m314.228 902.583-13.119-.342M301.109 902.241l12.939 3.367" style="fill:none;stroke:red;stroke-width:.999997;stroke-linecap:round;stroke-linejoin:round;stroke-miterlimit:4;stroke-dasharray:none;stroke-opacity:1;visibility:visible"/><path d="m348.9 931.82-5.187 3.918M350.798 802.02l-5.424 3.005M343.06 689.34l3.68 8.207M352.604 678.427l-5.594-2.129M361.251 693.632l.072-4.084M361.323 689.548l-.072 4.084" style="fill:none;stroke:red;stroke-width:1.99999;stroke-linecap:round;stroke-linejoin:round;stroke-miterlimit:4;stroke-dasharray:none;stroke-opacity:1;visibility:visible"/><path d="m310.964 960.281.941-18.897" style="fill:none;stroke:red;stroke-width:.999997;stroke-linecap:round;stroke-linejoin:round;stroke-miterlimit:4;stroke-dasharray:none;stroke-opacity:1;visibility:visible"/><path d="m325.333 809.46-5.001-8.883M307.076 777.022l1.207-2.068M301.109 902.241l13.119.342M344.28 918.266l-3.97-8.939M260.486 917.125l7.589 18.167M274.162 786.333l5.052 13.12M302.272 669.545l-12.596 4.489M293.07 774.21l-11.75.89M289.676 674.034l-1.347 17.013M343.06 689.34l-.355 8.291M350.987 789.042l-9.322.654M350.798 802.02l-9.333 5.106M349.073 920.019l-8.895.97M348.9 931.82l-8.92 6.716M341.491 696.53l7.969-2.86M349.46 693.67l-7.969 2.86" style="fill:none;stroke:red;stroke-width:1.99999;stroke-linecap:round;stroke-linejoin:round;stroke-miterlimit:4;stroke-dasharray:none;stroke-opacity:1;visibility:visible"/><path d="m306.387 779.823 1.694-1.507M321.615 799.69l-.935-5.136M320.463 798.186l3.029-.005M303.503 803.828l3.134.097M307.077 777.023l.809 4.756M323.492 798.18l-3.029.006M345.954 787.634l-5.106-3.986M308.143 777.217l13.429 2.423" style="fill:none;stroke:red;stroke-width:.999997;stroke-linecap:round;stroke-linejoin:round;stroke-miterlimit:4;stroke-dasharray:none;stroke-opacity:1;visibility:visible"/><path d="m303.504 803.827-17.845-1.774M328.119 671.19l-13.854-1.612" style="fill:none;stroke:red;stroke-width:1.99999;stroke-linecap:round;stroke-linejoin:round;stroke-miterlimit:4;stroke-dasharray:none;stroke-opacity:1;visibility:visible"/><path d="m341.491 696.53-14.138-12.537" style="fill:none;stroke:red;stroke-width:.999997;stroke-linecap:round;stroke-linejoin:round;stroke-miterlimit:4;stroke-dasharray:none;stroke-opacity:1;visibility:visible"/><path d="m314.265 669.578 13.854 1.612M342.65 674.462l.374-1.52" style="fill:none;stroke:red;stroke-width:1.99999;stroke-linecap:round;stroke-linejoin:round;stroke-miterlimit:4;stroke-dasharray:none;stroke-opacity:1;visibility:visible"/><path d="m299.262 690.3-.008-1.95M296.279 688.2l-.012-.017-.005-.015M296.498 688.716l-.092-.11-.07-.123-.04-.139-.017-.144M299.137 690.911l.028-.016.028-.044.024-.07.019-.094.014-.115.01-.132.002-.14" style="fill:none;stroke:#00ff4a;stroke-width:.999997;stroke-linecap:round;stroke-linejoin:round;stroke-miterlimit:4;stroke-dasharray:none;stroke-opacity:1;visibility:visible" visibility="hidden"/><path d="m314.18 671.088-15.717-1.861" style="fill:none;stroke:#00ff4a;stroke-width:.666665;stroke-linecap:round;stroke-linejoin:round;stroke-miterlimit:4;stroke-dasharray:none;stroke-opacity:1;visibility:visible" visibility="hidden"/><path d="m301.464 671.676 12.088 10.53" style="fill:none;stroke:#00ff4a;stroke-width:.999997;stroke-linecap:round;stroke-linejoin:round;stroke-miterlimit:4;stroke-dasharray:none;stroke-opacity:1;visibility:visible" visibility="hidden"/><path d="m331.863 682.21-4.204-3.361" style="fill:none;stroke:#00ff4a;stroke-width:1.99999;stroke-linecap:round;stroke-linejoin:round;stroke-miterlimit:4;stroke-dasharray:none;stroke-opacity:1;visibility:visible" visibility="hidden"/><path d="m327.804 676.441 6.077 4.799" style="fill:none;stroke:#00ff4a;stroke-width:.999997;stroke-linecap:round;stroke-linejoin:round;stroke-miterlimit:4;stroke-dasharray:none;stroke-opacity:1;visibility:visible" visibility="hidden"/><path d="m342.65 674.462-14.624-1.735" style="fill:none;stroke:#00ff4a;stroke-width:.666665;stroke-linecap:round;stroke-linejoin:round;stroke-miterlimit:4;stroke-dasharray:none;stroke-opacity:1;visibility:visible" visibility="hidden"/><path d="m286.52 678.393.221.27.251.269.279.27.309.271.337.27.368.266.396.268.426.263.456.266.484.263.512.26.542.259.57.26.598.254.627.256.655.251.682.25.71.247.738.246.764.24.792.242.819.235.844.235.87.228.895.228.924.224.944.218.972.218.995.213 1.019.21 1.041.202 1.064.204 1.087.196 1.109.192 1.13.187 1.151.184 1.17.18" style="fill:none;stroke:#00ff4a;stroke-width:.999997;stroke-linecap:round;stroke-linejoin:round;stroke-miterlimit:4;stroke-dasharray:none;stroke-opacity:1;visibility:visible" visibility="hidden"/><path d="m301.358 674.327 12.043 10.563M296.262 688.168l-.003-.717M296.498 688.716l-.004-.005-.005-.004-.004-.004-.004-.004-.004-.006-.006-.004-.002-.002-.006-.006-.002-.004-.004-.005-.006-.005-.004-.006-.004-.004-.004-.004-.004-.005-.004-.005-.004-.004-.004-.006-.002-.001-.006-.007-.001-.006-.004-.006-.004-.004-.003-.005-.005-.004-.003-.005-.002-.006-.004-.005-.004-.005-.003-.006-.005-.005-.003-.005-.003-.006-.002-.004-.003-.006-.004-.004-.003-.006-.001-.006-.004-.004-.003-.006-.002-.005-.003-.007-.003-.005-.002-.004-.003-.007-.003-.006-.002-.004-.003-.006-.003-.006-.002-.004-.003-.007-.003-.007-.001-.005-.003-.005-.002-.007-.004-.005v-.006l-.003-.006-.001-.004-.002-.006-.001-.005-.003-.008-.001-.004-.003-.008-.001-.004-.001-.007-.004-.005v-.007l-.003-.005v-.004l-.001-.01-.002-.003-.001-.008-.001-.004-.002-.007-.001-.007-.001-.006-.002-.006-.001-.006-.001-.006v-.006l-.002-.006-.001-.006-.001-.006v-.005l-.002-.007v-.006l-.001-.004v-.008l-.001-.006v-.013l-.003-.007v-.042M299.136 690.911l9.497-.455M298.577 690.703l-2.08-1.987M299.137 690.911h-.008l-.004.001h-.05l-.006-.001h-.017l-.008-.001h-.011l-.007-.002h-.018l-.007-.002h-.01l-.007-.004-.006-.002-.006-.001h-.007l-.005-.001-.008-.002-.004-.001h-.006l-.006-.003h-.007l-.005-.002-.006-.002-.008-.002-.005-.002-.005-.001h-.007l-.004-.001-.007-.003h-.005l-.007-.003-.006-.002-.004-.002-.007-.001-.005-.003-.008-.001-.004-.003-.006-.004h-.005l-.005-.002-.007-.003-.005-.003-.006-.001-.006-.003-.004-.004-.007-.002-.007-.003-.004-.003-.005-.002-.005-.003-.007-.001-.005-.004-.006-.003-.005-.003-.005-.002-.006-.003-.005-.003-.004-.004-.007-.002-.005-.003-.005-.004-.006-.003-.005-.002-.007-.006-.002-.004-.006-.001-.005-.005-.005-.004-.004-.002-.006-.002-.005-.006-.004-.002-.005-.004-.006-.003-.005-.004-.004-.004-.005-.004-.006-.004-.004-.005-.005-.004-.004-.003-.004-.005-.005-.004-.004-.004-.006-.003-.004-.004-.005-.004M313.046 691.204l-.127-.02-.909-.144-.897-.147-.884-.152-.872-.152-.859-.156-.845-.158-.831-.162-.816-.162-.803-.167-.788-.17-.773-.17-.755-.173-.741-.176-.728-.179-.71-.18-.697-.18-.681-.185-.665-.188-.65-.187-.634-.192-.618-.19-.601-.198-.585-.193-.567-.2-.553-.2-.538-.203-.52-.201-.505-.207-.487-.207-.47-.21-.455-.21-.436-.212-.419-.214-.402-.215-.386-.217-.368-.219-.35-.22-.338-.225-.32-.227-.302-.23-.287-.233" style="fill:none;stroke:#00ff4a;stroke-width:1.99999;stroke-linecap:round;stroke-linejoin:round;stroke-miterlimit:4;stroke-dasharray:none;stroke-opacity:1;visibility:visible" visibility="hidden"/><path d="m296.262 688.168 2.992.183" style="fill:none;stroke:#00ff4a;stroke-width:.999997;stroke-linecap:round;stroke-linejoin:round;stroke-miterlimit:4;stroke-dasharray:none;stroke-opacity:1;visibility:visible" visibility="hidden"/><path d="m328.026 672.727-13.846-1.639" style="fill:none;stroke:#00ff4a;stroke-width:.666665;stroke-linecap:round;stroke-linejoin:round;stroke-miterlimit:4;stroke-dasharray:none;stroke-opacity:1;visibility:visible" visibility="hidden"/><path d="m313.4 684.89-11.936-13.214M327.659 678.849l-14.107 3.358" style="fill:none;stroke:#00ff4a;stroke-width:.999997;stroke-linecap:round;stroke-linejoin:round;stroke-miterlimit:4;stroke-dasharray:none;stroke-opacity:1;visibility:visible" visibility="hidden"/><path d="m327.804 676.441 4.059 5.769M333.881 681.24l-6.222-2.391" style="fill:none;stroke:#00ff4a;stroke-width:1.99999;stroke-linecap:round;stroke-linejoin:round;stroke-miterlimit:4;stroke-dasharray:none;stroke-opacity:1;visibility:visible" visibility="hidden"/><path d="m331.863 682.21-4.059-5.769M327.659 678.849l6.222 2.39" style="fill:none;stroke:#00ff4a;stroke-width:.999997;stroke-linecap:round;stroke-linejoin:round;stroke-miterlimit:4;stroke-dasharray:none;stroke-opacity:1;visibility:visible" visibility="hidden"/><path d="m314.18 671.088 13.846 1.64" style="fill:none;stroke:#00ff4a;stroke-width:.666665;stroke-linecap:round;stroke-linejoin:round;stroke-miterlimit:4;stroke-dasharray:none;stroke-opacity:1;visibility:visible" visibility="hidden"/><path d="m296.279 688.2-9.759-9.807" style="fill:none;stroke:#00ff4a;stroke-width:.999997;stroke-linecap:round;stroke-linejoin:round;stroke-miterlimit:4;stroke-dasharray:none;stroke-opacity:1;visibility:visible" visibility="hidden"/><path d="m313.552 682.207-12.194-7.88M327.659 678.849l-14.258 6.04M298.577 690.703l-10.703-7.33" style="fill:none;stroke:#00ff4a;stroke-width:1.99999;stroke-linecap:round;stroke-linejoin:round;stroke-miterlimit:4;stroke-dasharray:none;stroke-opacity:1;visibility:visible" visibility="hidden"/><path d="m288.33 691.047 12.023 1.428M343.06 689.34l1.45-1.503" style="fill:none;stroke:red;stroke-width:.999997;stroke-linecap:round;stroke-linejoin:round;stroke-miterlimit:4;stroke-dasharray:none;stroke-opacity:1;visibility:visible"/><path d="m288.33 691.047 15 .165M341.491 696.53l9.925-3.56" style="fill:none;stroke:red;stroke-width:1.99999;stroke-linecap:round;stroke-linejoin:round;stroke-miterlimit:4;stroke-dasharray:none;stroke-opacity:1;visibility:visible"/><path d="m314.265 669.578-15.802-.351" style="fill:none;stroke:#00ff4a;stroke-width:.666665;stroke-linecap:round;stroke-linejoin:round;stroke-miterlimit:4;stroke-dasharray:none;stroke-opacity:1;visibility:visible" visibility="hidden"/><path d="m314.18 671.088-.908 16.1" style="fill:none;stroke:#00ff4a;stroke-width:.999997;stroke-linecap:round;stroke-linejoin:round;stroke-miterlimit:4;stroke-dasharray:none;stroke-opacity:1;visibility:visible" visibility="hidden"/></svg>