<svg xmlns="http://www.w3.org/2000/svg" baseProfile="full" height="1122.52" preserveAspectRatio="xMinYMin meet" style="width:765px;height:943px" width="793.701" xml:space="preserve"><path d="m149.068 979.31 74.933-38.257M238.86 933.468l114.702-58.56M365.03 869.052l68.213-34.827M442.853 829.32l38.344-19.577M141.625 1003.987l-1.088-10.479M156.382 994.668l.087-.275.058-.273.027-.267-.005-.25-.039-.236-.072-.212-.1-.192-.13-.162-.155-.13-.18-.098-.2-.064-.219-.028-.232.008-.243.043-.245.081-.25.115-.245.144-.24.177-.225.203-.213.224-.196.245-.17.259-.145.272-.119.276-.089.277-.056.274-.027.264.007.254.039.236.072.212.1.191.133.161.157.13.18.098.202.062.217.026.235-.009.241-.045.244-.079.25-.117M154.836 996.463l.245-.145M290.978 922.72l-.012-.217-.036-.2-.06-.18-.087-.16-.104-.131-.122-.103-.144-.073-.158-.041-.169-.011-.183.023-.182.053-.191.084-.19.113-.185.143-.181.167-.17.19-.158.208-.141.223-.126.235-.105.244-.085.245-.062.244-.034.241-.012.231.012.217.036.202.064.18.084.157.105.13.124.103.145.072.158.042.169.01.181-.024.183-.054.192-.087M289.534 925.197l.19-.115.182-.141M395.702 867.304l-.017-.187-.034-.173-.053-.15-.072-.129-.088-.102-.104-.079-.117-.048-.128-.023-.138.01-.145.036-.148.065-.15.092-.151.117-.146.143-.144.161-.129.183-.123.195-.109.208-.095.217-.078.221-.063.22-.041.219-.024.213-.006.202.019.186.035.172.054.151.072.128.09.103.105.076.117.049.127.02.139-.01.144-.037.149-.065" style="fill:none;stroke:red;stroke-width:.999997;stroke-linecap:round;stroke-linejoin:round;stroke-miterlimit:4;stroke-dasharray:none;stroke-opacity:1;visibility:visible"/><path d="m394.45 869.687.15-.092.15-.119.145-.141M479.59 823.09l-.001-.176-.02-.16-.032-.144-.048-.124-.063-.1-.08-.08-.085-.052-.1-.03h-.108l-.115.025-.12.052-.123.076-.126.101-.119.12-.12.143-.113.161-.106.173-.1.19-.084.193-.076.2-.06.204-.044.2-.03.196-.014.187.002.174.02.16.033.146.048.121.064.103.079.077.086.053.1.027.108.001.115-.026.12-.051M478.478 825.23l.123-.077.122-.1M483.188 809.488l-.221-.063-.232-.034-.24-.01-.246.02-.256.046-.26.07-.266.102-.27.124M149.068 979.31l-.545.295-.543.328-.536.354-.528.387-.517.412-.506.439-.492.462-.476.487-.461.505-.44.527-.424.545-.397.56-.379.574-.35.586-.326.595-.301.604-.271.608-.247.613-.21.614-.187.613-.15.61-.122.603-.088.598-.057.59-.027.578.008.562.041.55M141.625 1003.987l.021.121.044.106.06.092.074.073M155.1 993.754l-.005-.19-.04-.171-.071-.148-.1-.119-.125-.087-.151-.052-.165-.014-.179.02-.188.057-.184.09M153.034 994.287l-.035.201-.002.192.029.176.061.154.091.126.12.096.144.064.161.024.175-.01.181-.046M133.492 855.585l-.544.461-.53.49-.509.518-.486.546-.464.568-.439.592-.415.61-.386.632-.36.644-.328.66-.295.67-.265.68-.23.686-.197.688-.161.691-.128.69-.09.685-.054.681-.019.673.017.662.055.648.087.633.128.616.161.597.195.574.228.549.261.525.295.499.322.468.352.436.383.407.41.37.434.338.46.3M489.5 757.029l-355.592 98.338" style="fill:none;stroke:red;stroke-width:.999997;stroke-linecap:round;stroke-linejoin:round;stroke-miterlimit:4;stroke-dasharray:none;stroke-opacity:1;visibility:visible"/><path d="m489.5 757.029-4.75-1.43" style="fill:none;stroke:red;stroke-width:1.99999;stroke-linecap:round;stroke-linejoin:round;stroke-miterlimit:4;stroke-dasharray:none;stroke-opacity:1;visibility:visible"/><path d="m133.906 855.367-4.9-2.812M129.007 852.555l-.104-.047-.101-.017-.1.01" style="fill:none;stroke:red;stroke-width:.999997;stroke-linecap:round;stroke-linejoin:round;stroke-miterlimit:4;stroke-dasharray:none;stroke-opacity:1;visibility:visible"/><path d="m484.443 755.591.101-.017.103.002.104.022M484.753 755.598l.061-.01.058.01" style="fill:none;stroke:red;stroke-width:1.99999;stroke-linecap:round;stroke-linejoin:round;stroke-miterlimit:4;stroke-dasharray:none;stroke-opacity:1;visibility:visible"/><path d="m133.906 855.367-.141.053-.14.071-.135.095M489.617 757.028l-.056-.01-.061.01M224.001 941.052l-.85-.52M219.971 850.539l4.028 90.513M230.369 910.468l.22-.088.217-.057.21-.022.204.016.185.048.172.084.152.115.13.145.103.175.083.2.05.219.023.241-.002.252-.036.261-.062.268-.088.267-.113.263-.139.257-.157.241-.177.226-.19.204-.204.18-.216.153-.217.121-.22.092-.216.056-.21.023-.202-.013-.188-.048-.172-.082-.152-.113-.13-.147-.107-.174-.079-.198-.055-.221-.022-.241.004-.252.032-.264.061-.268.09-.268.113-.266.138-.256.159-.244.177-.224.192-.205.207-.179.213-.153.219-.124M228.313 858.376l.228-.081.224-.044.22-.01.208.03.195.066.174.099.162.135.132.165.11.192.083.219.055.238.022.258-.005.266-.032.279-.063.28-.09.28-.118.275-.144.262-.164.247-.181.228-.201.203-.21.18-.22.148-.226.114-.227.083-.227.045-.217.01-.21-.028-.194-.064-.179-.1-.157-.134-.136-.164-.11-.19-.085-.219-.056-.24-.022-.256.002-.27.035-.278.063-.281.089-.282.119-.273.144-.265.165-.247.183-.232.2-.201.212-.18.222-.148.227-.115" style="fill:none;stroke:red;stroke-width:.999997;stroke-linecap:round;stroke-linejoin:round;stroke-miterlimit:4;stroke-dasharray:none;stroke-opacity:1;visibility:visible"/><path d="m227.333 859.166.113-.093.119-.079.121-.061" style="fill:none;stroke:red;stroke-width:.999997;stroke-linecap:round;stroke-linejoin:round;stroke-miterlimit:4;stroke-dasharray:none;stroke-opacity:1;visibility:visible"/><path d="m227.686 858.932.17-.055.165-.02.156.018.142.053.124.088.104.119.076.148.05.172.022.189-.008.203-.037.206-.067.208-.092.203-.114.19-.136.169-.151.149-.161.117-.17.087-.168.053-.165.015-.156-.019-.141-.056-.126-.092-.098-.121-.078-.15-.048-.173-.016-.19.008-.206M229.661 910.996l.05-.03.046-.026M229.76 910.94l.167-.063.161-.028.15.006.14.044.12.076.1.109.074.137.045.16.016.18-.009.192-.041.202-.067.2-.096.197-.115.184-.132.167-.152.146-.16.118-.164.086-.164.055-.157.019-.15-.016-.133-.054-.117-.085-.09-.117-.067-.143-.039-.165-.01-.186M224.58 941.02l10.43-5.33M353.564 874.907l-1.59-.74M356.156 810.157l-2.592 64.75M360.625 844.335l.165-.065.163-.034.153-.005.147.028.13.059.122.088.1.116.087.144.065.165.044.185.02.206.001.217-.018.23-.043.237-.063.236-.084.237-.1.23-.117.222-.133.21-.142.189-.154.172-.16.149-.166.123-.166.094-.167.066-.161.034-.158.007-.142-.028-.136-.057-.118-.087-.104-.117-.084-.142-.065-.165-.044-.188-.025-.201-.002-.222.023-.229.04-.236.065-.24.083-.236.1-.232.119-.221.129-.21.148-.192.152-.172.164-.146.164-.124.168-.095M361.814 817.125l.168-.06.164-.032.157.004.148.033.136.066.12.097.104.125.086.151.064.175.046.194.022.214.001.226-.021.236-.046.243-.062.244-.084.241-.102.234-.118.226-.136.211-.144.19-.156.173-.164.146-.168.122-.17.092-.169.06-.164.03-.156-.001-.15-.033-.134-.066-.121-.097-.104-.121-.088-.151-.064-.173-.046-.195-.022-.215-.002-.226.019-.238.047-.241.06-.245.086-.244.103-.235.12-.225.135-.212.146-.194.156-.17.166-.147.166-.12.171-.092M364.837 869.043l.065.061.052.052.038.046.022.038.007.028" style="fill:none;stroke:red;stroke-width:.999997;stroke-linecap:round;stroke-linejoin:round;stroke-miterlimit:4;stroke-dasharray:none;stroke-opacity:1;visibility:visible"/><path d="m361.177 817.628.124-.028.119.004.106.039.094.068.076.098.056.124.034.146.014.162-.01.178-.032.181-.053.184-.075.179-.092.168-.105.154-.116.135-.121.107-.13.08-.128.049-.122.019-.112-.018-.107-.048-.084-.076-.07-.106M360.056 844.78l.117-.017.11.012.098.044.086.072.062.098.051.124.028.142.005.157-.017.17-.033.174-.058.177-.073.171-.09.16-.103.144-.114.13-.121.103-.123.078-.124.048-.117.018-.11-.01-.1-.042-.083-.07-.068-.099M354.117 874.851l7.355-3.757M433.244 834.225l-1.904-.743M437.514 786.034l-4.27 48.192M439.816 814.302l.135-.052.126-.021.123.002.11.036.1.064.086.091.07.116.055.14.038.161.018.178v.193l-.018.204-.038.21-.056.215-.069.212-.088.21-.099.198-.11.188-.124.172-.127.152-.132.132-.139.107-.134.08-.136.053-.127.024-.12-.006-.112-.034-.1-.062-.088-.092-.072-.116-.055-.139-.034-.16-.022-.179v-.192l.02-.205.036-.21.055-.217.072-.213.088-.21.1-.2.112-.189.12-.17.127-.154.137-.13.135-.107.137-.08M441.776 792.896l.137-.048.128-.02.123.012.113.037.1.071.088.095.068.124.055.145.039.167.016.184-.002.2-.016.208-.04.214-.054.219-.07.217-.09.211-.099.203-.113.19-.126.172-.128.154-.134.129-.138.107-.138.076-.135.049-.13.02-.122-.01-.112-.038-.101-.07-.09-.095-.068-.122-.056-.146-.04-.166-.016-.184v-.198l.018-.21.04-.217.054-.22.071-.216.09-.212.1-.204.113-.19.124-.173.128-.153.138-.13.136-.103.139-.079M433.775 834.162l5.737-2.93M136.04 992.075l-.041.021M136.047 992.132l-.027-.017-.021-.019M135.23 993.375l.12.075.143.057.16.039.176.02.184-.002.185-.02" style="fill:none;stroke:red;stroke-width:.999997;stroke-linecap:round;stroke-linejoin:round;stroke-miterlimit:4;stroke-dasharray:none;stroke-opacity:1;visibility:visible"/><path d="m478.613 807.884 4.575 1.604M476.206 808.15l.241-.112.239-.095.245-.078.246-.058.242-.042.243-.02.239.002.182.015.182.03.177.04.172.053M483.188 809.488l.168.067.163.078.156.09.15.102.143.114.135.121.125.13.144.171.127.18.12.192.108.203.1.212.088.223.078.237.068.247.059.257.048.265.041.274.03.28.017.288.01.269v.276l-.007.281-.016.288-.026.291-.029.292M144.103 975.9l75.042-37.908M238.676 928.13l109.993-55.559M365.26 864.19l63.163-31.903M443.281 824.781l32.923-16.632M484.219 823.02l.97-8.104M135.797 989.79l-.036-.448-.016-.463.007-.466.025-.476.048-.479.073-.483.091-.486.11-.484.131-.486.15-.488.168-.488.19-.485.207-.483.223-.476.244-.473.258-.468.278-.465.293-.456.307-.447.322-.436.336-.427.343-.412.363-.401.37-.388.382-.375.392-.361.402-.341.408-.328.435-.324.443-.307.449-.283.453-.265.456-.241M484.219 823.02v.008l-.001.005-.002.01v.005l-.002.007v.008l-.003.005-.001.007-.002.005-.001.01v.006l-.004.005-.001.008-.003.007-.001.008-.002.005-.002.006-.002.008-.001.005-.001.008-.002.005-.002.008-.002.006-.002.008-.003.004-.003.006-.004.008-.001.007-.003.005-.002.007-.004.007-.003.005-.001.007-.006.005-.002.008-.004.005-.003.007-.004.005-.003.007-.001.005-.004.007-.004.007-.003.004-.004.006-.004.006-.002.006-.004.006-.006.006-.002.006-.004.006-.007.006-.003.005-.005.005-.003.007-.002.005-.006.006-.005.005-.003.005-.005.006-.004.005-.004.005-.005.006-.004.005-.007.005-.005.004-.004.008-.004.003-.003.005-.007.006-.004.004-.005.005-.007.005-.005.006-.004.002-.005.006-.008.004-.004.004-.004.006-.004.003-.007.005-.005.004-.006.004-.006.006-.006.004-.005.004-.007.004-.006.002-.003.006-.007.005-.005.001-.007.006-.005.005-.007.001-.006.004-.007.004-.007.004-.004.003-.005.004-.007.004-.006.003M136.135 992.963l-.339-3.173" style="fill:none;stroke:red;stroke-width:1.99999;stroke-linecap:round;stroke-linejoin:round;stroke-miterlimit:4;stroke-dasharray:none;stroke-opacity:1;visibility:visible"/><path d="m136.911 1000.229-.776-7.265" style="fill:none;stroke:red;stroke-width:.999997;stroke-linecap:round;stroke-linejoin:round;stroke-miterlimit:4;stroke-dasharray:none;stroke-opacity:1;visibility:visible"/><path d="m399.572 868.285 79.834-42.363M294.52 924.03l101.564-53.893M159.34 995.764l131.324-69.688M142.95 1004.462l12.477-6.623M137.3 1000.924l-.005-.005-.008-.008-.007-.003-.007-.005-.004-.006-.006-.004-.007-.006-.005-.006-.008-.004-.004-.005-.01-.007-.005-.004-.007-.009-.002-.003-.007-.006-.005-.006-.007-.006-.005-.006-.007-.006-.004-.006-.008-.005-.005-.007-.006-.005-.002-.005-.007-.007-.005-.007-.004-.006-.007-.006-.004-.008-.007-.004-.005-.008-.005-.005-.006-.007-.004-.008-.004-.005-.004-.008-.005-.005-.005-.007-.004-.007-.006-.006-.004-.007-.005-.005-.005-.01-.006-.006-.004-.008-.002-.006-.003-.006-.005-.01-.004-.005-.003-.008-.005-.007-.003-.006-.005-.008-.004-.006-.003-.008-.004-.008-.005-.006-.003-.008-.005-.008-.003-.007-.001-.01-.003-.005-.004-.009-.003-.007-.002-.006-.004-.007-.004-.01-.003-.007-.001-.007-.004-.008-.003-.008-.003-.008-.002-.008-.003-.008-.003-.007-.004-.008-.002-.009-.002-.007-.002-.008-.003-.006-.001-.01-.002-.008-.001-.006-.001-.008-.003-.01-.001-.006-.002-.008-.002-.01-.003-.008v-.006l-.001-.011-.002-.007-.001-.008-.001-.009-.003-.007v-.008l-.003-.008v-.01l-.001-.007v-.007M142.95 1004.462l-.01.004-.013.008-.008.004-.012.005-.01.006-.012.005-.012.005-.01.006-.01.002-.012.006-.012.005-.014.003-.009.004-.01.005-.013.003-.01.004-.015.005-.008.001-.012.004-.012.004-.012.003-.013.003-.01.004-.012.002-.012.003-.013.001-.01.003-.011.003-.012.001-.012.001-.014.002-.01.001-.012.001-.012.003h-.012l-.014.001-.009.003h-.025l-.014.003h-.081l-.01-.003h-.027l-.01-.003h-.012l-.012-.001-.013-.001-.01-.003-.013-.001-.01-.002-.014-.001-.012-.001-.01-.002-.011-.004-.012-.001-.012-.003-.013-.002-.01-.003-.012-.004-.01-.003-.012-.004-.014-.002-.009-.003-.012-.003-.01-.004-.013-.005-.013-.005-.008-.003-.012-.004-.01-.004-.011-.005-.012-.004-.01-.006-.01-.004-.011-.005-.012-.007-.01-.004-.01-.005-.01-.005-.011-.007-.011-.004-.012-.007-.008-.005-.01-.007-.009-.005-.012-.008-.009-.005-.012-.008-.007-.007-.009-.004-.01-.008-.01-.007-.01-.008M137.3 1000.924l4.527 3.455M131.38 875.073l-4.847-2.917M484.441 755.591l-355.738 96.91M128.284 852.714l.004-.001.004-.004.004-.004.003-.003.004-.001.004-.003.004-.005.001-.003.004-.001.004-.003.005-.004.004-.001.004-.003.003-.003.005-.004.004-.002.004-.002.003-.004.005-.002.003-.003.005-.003.002-.001.002-.003.004-.004.006-.002.005-.002.004-.004.004-.002.003-.003.005-.003.004-.001.004-.001.005-.003.003-.003.004-.002.003-.002.002-.002.006-.004.004-.003.005-.001.005-.003.004-.001.004-.003.004-.001.004-.003.004-.003.004-.002.006-.003.004-.001.001-.003h.004l.005-.003.007-.004.003-.002.005-.002.005-.001.003-.001.005-.003.004-.001.004-.003.006-.003.002-.001.003-.001.005-.003.003-.001.008-.003.004-.003.004-.001h.004l.004-.003.005-.002.006-.002.002-.001.006-.003h.002l.004-.002.006-.002.002-.002.007-.002.005-.001.004-.003.004-.001h.006l.004-.003.004-.001.005-.003h.004l.004-.001.003-.001.008-.002.002-.001.006-.001.005-.002.004-.001.004-.001.005-.003.004-.001.006-.002h.004l.002-.001M484.443 755.591h.004l.005-.003h.003l.005-.001h.004l.004-.001h.003l.004-.003h.01l.003-.004h.006l.005-.001.003-.002h.013l.005-.001h.004l.002-.001h.009l.004-.003h.007l.004-.001.004-.002h.013l.004-.001h.016l.004-.003h.113l.004.003h.019l.005.001h.008l.006.002.002.001h.008l.003.003h.01l.005.001h.005l.003.001h.013l.004.002.005.001.002.001.005.003h.01l.005.003h.002l.006.001h.004l.002.001h.006l.005.003.003.001h.005l.001.002.004.001.006.001M126.534 872.155l-.365-.233-.355-.259-.337-.277-.324-.296-.308-.318-.286-.334-.274-.351-.248-.363-.232-.38-.215-.393-.195-.41-.174-.42-.159-.434-.133-.443-.12-.468-.099-.48-.076-.492-.055-.496-.034-.506-.012-.51.012-.514.03-.532.054-.536.08-.539.1-.54.122-.539.14-.538.166-.534.186-.533.208-.53.228-.526.25-.52.266-.51.287-.5.303-.489.32-.476.336-.468.356-.452.366-.44.386-.422.396-.408.409-.39.368-.328.381-.314M489.617 757.028h.004l.003.003h.01l.003.002h.004l.003.003h.001l.001.001.002.003h.006l.003.003h.008l.003.001h.001l.003.003h.001l.003.001h.002l.002.001h.002l.003.003h.001l.003.003h.007l.001.001.001.001h.002l.001.002.001.001h.003l.001.003h.003l.003.001.001.001h.004l.001.002h.003l.003.001.001.001.001.002h.002l.002.001.003.001.003.002h.001l.001.001h.003l.003.003h.004l.002.002v.002l.003.001h.003v.001h.001l.003.002.001.002h.004l.001.002.004.001.003.001v.003h.003l.002.001.002.002.002.002h.003l.003.002.001.002h.003l.002.003h.003l.003.003.001.001h.003l.001.001.003.002.001.001.001.001.002.002v.001l.001.001.003.002M133.645 875.98l-.399-.1-.392-.123-.382-.141-.375-.161-.367-.182-.349-.2M489.818 757.123l.163.117.152.131.146.14.138.152.128.163.12.173.11.18.112.203.099.216.09.224.083.233.074.241.062.251.055.259.05.3.043.312.028.318.019.328.007.336-.004.342-.016.349-.026.35-.037.355-.047.362-.057.364-.07.365-.073.37-.089.367-.092.36-.104.36-.112.359-.12.355-.13.354-.137.351-.144.345-.149.336-.157.332-.164.327-.171.319-.176.313-.184.304-.185.293-.188.278-.192.27-.198.259-.2.25-.206.24-.206.225-.209.216M134.232 875.96l-.005.003h-.006l-.008.001-.006.003-.003.002-.005.002-.006.001-.006.003-.007.001h-.005l-.006.001-.008.002-.005.001-.007.001-.002.003-.007.001h-.005l-.007.003h-.012l-.005.001h-.008l-.006.003h-.004l-.005.001-.007.003h-.005l-.007.003h-.025l-.005.001h-.004l-.006.001h-.006l-.006.002-.006.001h-.012l-.007.001h-.016l-.007.003h-.14l-.004-.003h-.016l-.005-.001h-.013l-.007-.001-.005-.002h-.008l-.006-.001h-.005l-.004-.001h-.019l-.005-.003h-.013l-.007-.003-.005-.001h-.004l-.006-.003h-.006l-.006-.001h-.012l-.006-.003h-.007l-.007-.001-.004-.003-.004-.001M487.654 771.07l-.003.001-.004.004-.001.002-.005.005-.002.001-.004.003-.002.003-.003.002-.003.003-.001.003-.003.001-.004.004-.001.001-.004.003-.003.003-.002.002-.003.003-.004.004h-.001l-.006.003-.001.002-.003.003-.006.003-.003.001-.001.001-.004.004-.004.003-.002.003-.001.001-.004.003-.003.002-.004.003-.002.003h-.003l-.004.002-.003.002-.004.002-.002.003-.004.003-.003.002h-.005l-.003.003-.004.004-.001.001-.006.002v.002l-.004.002-.002.002-.004.003-.003.001h-.003l-.004.004-.004.003-.002.001-.004.002-.004.002-.003.002-.005.001-.003.003-.005.001-.002.003h-.004l-.001.001-.004.001-.003.003-.004.001-.004.003-.002.003-.004.001h-.004l-.003.001-.004.003-.004.001-.005.003-.003.003h-.004l-.004.001-.001.001-.003.002-.004.001-.004.001-.003.003h-.004l-.004.001-.004.002h-.004l-.004.004-.002.001-.004.001-.006.002-.002.001-.004.001-.004.002v.001h-.006l-.004.001-.002.002-.004.001-.006.001-.002.002M219.439 850.695l-85.206 25.265" style="fill:none;stroke:red;stroke-width:1.99999;stroke-linecap:round;stroke-linejoin:round;stroke-miterlimit:4;stroke-dasharray:none;stroke-opacity:1;visibility:visible"/><path d="m236.355 845.68-16.917 5.015" style="fill:none;stroke:red;stroke-width:.999997;stroke-linecap:round;stroke-linejoin:round;stroke-miterlimit:4;stroke-dasharray:none;stroke-opacity:1;visibility:visible"/><path d="m354.939 810.518-118.584 35.163" style="fill:none;stroke:red;stroke-width:1.99999;stroke-linecap:round;stroke-linejoin:round;stroke-miterlimit:4;stroke-dasharray:none;stroke-opacity:1;visibility:visible"/><path d="m368.547 806.483-13.608 4.035" style="fill:none;stroke:red;stroke-width:.999997;stroke-linecap:round;stroke-linejoin:round;stroke-miterlimit:4;stroke-dasharray:none;stroke-opacity:1;visibility:visible"/><path d="m436.5 786.335-67.953 20.148" style="fill:none;stroke:red;stroke-width:1.99999;stroke-linecap:round;stroke-linejoin:round;stroke-miterlimit:4;stroke-dasharray:none;stroke-opacity:1;visibility:visible"/><path d="m447.688 783.017-11.19 3.317" style="fill:none;stroke:red;stroke-width:.999997;stroke-linecap:round;stroke-linejoin:round;stroke-miterlimit:4;stroke-dasharray:none;stroke-opacity:1;visibility:visible"/><path d="m487.324 771.264-39.639 11.753" style="fill:none;stroke:red;stroke-width:1.99999;stroke-linecap:round;stroke-linejoin:round;stroke-miterlimit:4;stroke-dasharray:none;stroke-opacity:1;visibility:visible"/><path d="m223.152 940.533-3.848-2.365" style="fill:none;stroke:red;stroke-width:.999997;stroke-linecap:round;stroke-linejoin:round;stroke-miterlimit:4;stroke-dasharray:none;stroke-opacity:1;visibility:visible"/><path d="m219.07 937.674.021.163.048.138.07.112.096.08M238.867 933.72h0M235.853 846.242l-.019-.145-.04-.128-.068-.103M219.07 937.674l-4.087-85.657M238.867 933.72l-3.016-87.478" style="fill:none;stroke:red;stroke-width:1.99999;stroke-linecap:round;stroke-linejoin:round;stroke-miterlimit:4;stroke-dasharray:none;stroke-opacity:1;visibility:visible"/><path d="m235.01 935.69 3.857-1.97M351.973 874.167l-3.139-1.459" style="fill:none;stroke:red;stroke-width:.999997;stroke-linecap:round;stroke-linejoin:round;stroke-miterlimit:4;stroke-dasharray:none;stroke-opacity:1;visibility:visible"/><path d="m348.564 872.137.004.133.021.119.039.107.053.09.07.072.082.051M365.02 869.268l-.004.01-.012.009M367.95 807.17l-.005-.141-.027-.127-.052-.11-.073-.086M348.564 872.137l2.223-60.388M365.02 869.268l2.928-62.097" style="fill:none;stroke:red;stroke-width:1.99999;stroke-linecap:round;stroke-linejoin:round;stroke-miterlimit:4;stroke-dasharray:none;stroke-opacity:1;visibility:visible"/><path d="m361.471 871.094 3.533-1.807M431.341 833.483l-2.755-1.077" style="fill:none;stroke:red;stroke-width:.999997;stroke-linecap:round;stroke-linejoin:round;stroke-miterlimit:4;stroke-dasharray:none;stroke-opacity:1;visibility:visible"/><path d="m428.306 831.814-.003.139.018.125.04.112.057.093.077.072.091.051M442.836 829.502l-.01.028-.022.02M447.152 783.716l.004-.121-.017-.115-.034-.1-.053-.085-.07-.071M428.306 831.814l3.77-44.17M442.836 829.502l4.315-45.785" style="fill:none;stroke:red;stroke-width:1.99999;stroke-linecap:round;stroke-linejoin:round;stroke-miterlimit:4;stroke-dasharray:none;stroke-opacity:1;visibility:visible"/><path d="m439.512 831.232 3.292-1.681" style="fill:none;stroke:red;stroke-width:.999997;stroke-linecap:round;stroke-linejoin:round;stroke-miterlimit:4;stroke-dasharray:none;stroke-opacity:1;visibility:visible"/><path d="m138.543 980.795-2.135 1.083M136.909 1000.199l-.01.001h-.01l-.008.003-.005.003h-.019l-.01.002h-.009l-.009.003h-.023l-.01.001-.008.002h-.018l-.006.001h-.01l-.008.003h-.053l-.008-.003h-.008l-.01-.001h-.015l-.01-.002-.008-.001h-.028l-.005-.003h-.01l-.007-.002h-.018l-.009-.003-.01-.003-.006-.001h-.008l-.008-.003-.01-.001h-.009l-.008-.001-.006-.003-.01-.004-.008-.001-.008-.003h-.009l-.01-.003-.007-.002-.007-.003-.008-.003-.007-.001-.01-.001-.008-.006-.008-.002-.01-.003-.005-.001-.008-.004-.008-.004-.01-.003-.006-.001-.01-.003-.009-.004-.004-.004-.009-.004-.007-.001-.009-.006-.007-.002-.009-.003-.008-.005-.005-.003-.008-.003-.007-.005-.01-.004-.007-.005-.007-.003-.01-.003-.005-.005-.005-.004-.01-.004-.006-.004-.008-.005-.007-.004-.008-.004-.008-.006-.004-.005-.008-.005-.006-.004-.007-.004-.008-.004-.005-.007-.011-.004-.007-.005-.004-.007" style="fill:none;stroke:red;stroke-width:1.99999;stroke-linecap:round;stroke-linejoin:round;stroke-miterlimit:4;stroke-dasharray:none;stroke-opacity:1;visibility:visible"/><path d="m484.219 823.02-4.629.07M140.537 993.508l14.563.246M155.081 996.318l-1.189-3.177M367.95 807.17l-11.794 2.987M447.152 783.716l-9.638 2.318M443.281 824.781l-3.465-10.479M436.5 786.335l5.276 6.561" style="fill:none;stroke:red;stroke-width:.999997;stroke-linecap:round;stroke-linejoin:round;stroke-miterlimit:4;stroke-dasharray:none;stroke-opacity:1;visibility:visible"/><path d="m238.867 933.72-.191-5.59M365.004 869.287l.256-5.097M442.804 829.55l.477-4.769M396.084 870.137l3.488-1.852M478.478 825.23l.928.692M290.664 926.076l3.856-2.046M394.45 869.687l1.634.45M155.081 996.318l4.259-.554M289.534 925.197l1.13.88M154.836 996.463l.591 1.376M367.95 807.17l-17.163 4.58M447.152 783.716l-15.075 3.929M144.103 975.9l-5.56 4.895M144.102 975.9l-7.694 5.978" style="fill:none;stroke:red;stroke-width:1.99999;stroke-linecap:round;stroke-linejoin:round;stroke-miterlimit:4;stroke-dasharray:none;stroke-opacity:1;visibility:visible"/><path d="m378.617 823.663-.107 1.979M379.744 823.036 417.107 838M390.311 823.9l.107-.041.125-.031.137-.021.151-.01.15.004.151.016.146.027.13.04.119.044.096.055.077.06.048.065.023.065-.007.064-.034.06-.059.056-.087.052-.108.042-.125.032-.137.018-.15.01-.15-.004-.152-.015-.146-.028-.132-.037-.117-.047-.097-.056-.075-.059-.05-.062-.022-.068.005-.063.036-.063.062-.056.085-.049M407.565 830.753l.107-.044.126-.032.138-.021.152-.01.154.004.155.018.145.028.139.038.123.048.101.055.077.064.055.065.024.067-.004.068-.03.063-.06.058-.087.054-.107.041-.125.033-.139.02-.15.01-.155-.006-.158-.013-.145-.03-.139-.04-.12-.047-.102-.058-.079-.06-.052-.066-.027-.068.006-.067.033-.063.06-.058.084-.051M389.185 819.546l-.005-.048-.008-.037-.008-.024-.007-.011M379.744 823.036l-.17.004-.167.019-.163.037-.147.05-.136.062-.114.075-.095.086-.07.094-.045.097-.021.103M385.328 820.84l-6.199 2.29M289.836 856.498l.001 1.664M291.01 855.835l46.76 22.24M323.39 866.807l.11-.065.085-.071.054-.08.027-.081-.004-.086-.035-.081-.064-.079-.09-.073-.118-.064-.137-.053-.155-.044-.165-.03-.175-.013-.176-.003-.17.015-.164.028-.15.04-.132.053-.11.064-.083.071-.056.08-.027.081.003.084.035.083.062.08.095.072.115.064.136.055.153.044.168.03.173.015h.176l.174-.015.164-.026.148-.042.133-.053M303.369 857.378l.11-.06.085-.07.057-.075.03-.079v-.08l-.033-.08-.056-.076-.088-.07-.109-.06-.135-.054-.146-.041-.163-.027-.168-.015h-.173l-.168.012-.162.026-.148.04-.132.05-.109.062-.085.069-.059.076-.032.077v.082l.032.078.06.075.085.072.111.063.133.052.148.038.162.031.169.015h.172l.17-.015.16-.024.147-.04.135-.052M302.053 851.753l.01-.063.006-.048.007-.029.005-.012M291.01 855.835l-.185.005-.178.02-.17.036-.159.052-.137.068-.12.078-.096.092-.071.098-.041.104-.016.11M298.181 853.043l-7.827 2.893M151.186 907.774l.065.708M152.417 907.066l57.081 35.801M199.188 929.73l.144-.083.12-.094.09-.103.057-.108.02-.108-.014-.108-.048-.104-.08-.095-.112-.082-.141-.071-.163-.056-.178-.039-.192-.02-.2-.001-.202.017-.194.036-.186.055-.166.07-.146.082-.12.095-.09.101-.058.107-.018.11.012.107.048.103.078.096.111.084.141.072.163.054.181.04.194.019.2.001.202-.016.194-.038.186-.055.167-.068M165.835 909.08l.143-.076.122-.087.092-.094.059-.099.028-.101-.005-.098-.04-.094-.072-.09-.102-.076-.132-.065-.15-.052-.17-.036-.186-.016-.19-.001-.196.014-.186.034-.182.05-.165.064-.144.076-.119.087-.096.093-.058.098-.03.102.008.098.038.096.072.088.101.077.13.067.151.05.172.035.184.02h.192l.195-.016.19-.033.18-.051.166-.064M152.417 907.066h-.2l-.199.024-.184.039-.166.056-.15.07-.125.087-.096.096-.07.107-.035.112-.007.117M162.47 903.19l-10.767 3.979M69.007 938.112l.861 5.855M58.715 934.386l.068.31.101.302.136.296.174.284.21.277.239.264.276.255.31.239.338.226.37.214.397.194.425.183.452.163.476.148.5.128.517.112.539.092.555.073.573.053.585.035.596.015.606-.007.612-.023.617-.042.62-.064M389.6 819.6l41.043-15.18M366.97 827.97l11.645-4.307M302.522 851.805l47.435-17.543M236.882 876.08l52.955-19.584M166.798 902l49.693-18.377M69.426 938.012l81.758-30.237" style="fill:none;stroke:#00ff4a;stroke-width:.999997;stroke-linecap:round;stroke-linejoin:round;stroke-miterlimit:4;stroke-dasharray:none;stroke-opacity:1;visibility:visible" visibility="hidden"/><path d="m350.29 825.229-113.744 41.153" style="fill:none;stroke:#00ff4a;stroke-width:1.99999;stroke-linecap:round;stroke-linejoin:round;stroke-miterlimit:4;stroke-dasharray:none;stroke-opacity:1;visibility:visible" visibility="hidden"/><path d="m69.869 943.966.024.144.023.119.021.086.017.054.019.016M69.007 938.112l.143-.023.142-.033.132-.044M135.23 993.375l-1.799-1.356M131.411 988.784l.065.4.106.392.145.385.19.375.226.364.267.352.305.339.339.32.378.308M378.51 825.642l-.159 2.924" style="fill:none;stroke:#00ff4a;stroke-width:.999997;stroke-linecap:round;stroke-linejoin:round;stroke-miterlimit:4;stroke-dasharray:none;stroke-opacity:1;visibility:visible" visibility="hidden"/><path d="M389.156 819.426h0-.001M378.835 829.134l-.124-.059-.11-.068-.09-.078-.073-.086-.051-.089-.028-.092-.007-.096M425.55 833.737l-36.395-14.31" style="fill:none;stroke:#00ff4a;stroke-width:1.99999;stroke-linecap:round;stroke-linejoin:round;stroke-miterlimit:4;stroke-dasharray:none;stroke-opacity:1;visibility:visible" visibility="hidden"/><path d="m389.155 819.426-3.827 1.415" style="fill:none;stroke:#00ff4a;stroke-width:.999997;stroke-linecap:round;stroke-linejoin:round;stroke-miterlimit:4;stroke-dasharray:none;stroke-opacity:1;visibility:visible" visibility="hidden"/><path d="m409.753 841.718-30.917-12.584" style="fill:none;stroke:#00ff4a;stroke-width:1.99999;stroke-linecap:round;stroke-linejoin:round;stroke-miterlimit:4;stroke-dasharray:none;stroke-opacity:1;visibility:visible" visibility="hidden"/><path d="m289.837 858.162.003 3.533" style="fill:none;stroke:#00ff4a;stroke-width:.999997;stroke-linecap:round;stroke-linejoin:round;stroke-miterlimit:4;stroke-dasharray:none;stroke-opacity:1;visibility:visible" visibility="hidden"/><path d="m290.297 862.254-.135-.073-.112-.084-.09-.094-.067-.101-.04-.104-.013-.103M302.082 851.6h.003M330.577 881.71l-40.28-19.456M347.943 872.938l-45.86-21.337" style="fill:none;stroke:#00ff4a;stroke-width:1.99999;stroke-linecap:round;stroke-linejoin:round;stroke-miterlimit:4;stroke-dasharray:none;stroke-opacity:1;visibility:visible" visibility="hidden"/><path d="m302.082 851.6-3.903 1.443M151.251 908.482l.447 4.913" style="fill:none;stroke:#00ff4a;stroke-width:.999997;stroke-linecap:round;stroke-linejoin:round;stroke-miterlimit:4;stroke-dasharray:none;stroke-opacity:1;visibility:visible" visibility="hidden"/><path d="m152.076 913.908-.125-.09-.1-.1-.079-.103-.05-.108-.023-.112M166.355 901.754l.025-.003.022.007M202.855 946.222l-50.78-32.315M218.883 933.737l-52.48-31.977" style="fill:none;stroke:#00ff4a;stroke-width:1.99999;stroke-linecap:round;stroke-linejoin:round;stroke-miterlimit:4;stroke-dasharray:none;stroke-opacity:1;visibility:visible" visibility="hidden"/><path d="m166.355 901.754-3.885 1.436" style="fill:none;stroke:#00ff4a;stroke-width:.999997;stroke-linecap:round;stroke-linejoin:round;stroke-miterlimit:4;stroke-dasharray:none;stroke-opacity:1;visibility:visible" visibility="hidden"/><path d="m58.715 934.386.899 5.827M69.973 944.386l-.485.05-.487.04-.483.027-.481.014-.479.001-.466-.013-.463-.026-.45-.037-.44-.05-.434-.06-.424-.077-.413-.086-.402-.099-.388-.112-.38-.124-.366-.136-.355-.152-.337-.163-.323-.174-.305-.186-.286-.198-.269-.211-.252-.225-.23-.236-.211-.248-.19-.26-.162-.27-.139-.278-.088-.216-.072-.218-.057-.224-.044-.226M61.513 929.554l154.502-55.885M367.396 818.914l57.728-20.88M70.207 944.33l81.662-30.59M173.044 905.807l43.724-16.377M237.08 881.822l52.887-19.81M309.074 854.854l40.687-15.241M366.72 833.261l11.733-4.395M396.228 822.208l33.983-12.73" style="fill:none;stroke:#00ff4a;stroke-width:1.99999;stroke-linecap:round;stroke-linejoin:round;stroke-miterlimit:4;stroke-dasharray:none;stroke-opacity:1;visibility:visible" visibility="hidden"/><path d="m70.207 944.33-.003.001h-.008l-.001.002-.003.001h-.004l-.002.001-.003.002h-.001l-.003.001v.001l-.003.002h-.002l-.002.001h-.002l-.003.001h-.004l-.001.003h-.006l-.004.001h-.001l-.001.002-.004.001h-.002l-.002.001-.004.002h-.004l-.003.001h-.007v.003h-.008l-.001.001h-.003l-.002.001-.003.003h-.012l-.003.003h-.004l-.002.001h-.008l-.003.001h-.003l-.002.003h-.007l-.003.001h-.004l-.002.003h-.008l-.003.003h-.01v.001h-.018l-.003.001h-.002l-.003.002-.003.001h-.01l-.003.001h-.003l-.002.003h-.014M61.255 929.692l.001-.001.003-.003.003-.001h.002l.003-.003.001-.003.004-.001h.002l.004-.004.001-.001.003-.003.001-.001v-.002l.003-.001.002-.003.003-.001h.003l.004-.003.002-.001h.002l.002-.001.003-.003.004-.003.001-.001.003-.001.003-.003h.002l.003-.001.003-.002.001-.002.004-.002.001-.001.004-.003.002-.001.002-.003.003-.001.004-.001h.001l.003-.004.004-.002.003-.001h.002l.003-.003h.003l.002-.002h.003l.001-.004h.004l.003-.003h.003l.002-.001.002-.002.004-.001.002-.001.002-.002v-.001l.004-.001.002-.002h.003l.003-.001.002-.003.003-.001.004-.001.003-.002.001-.001.003-.001.004-.002.002-.001h.003l.003-.003.002-.001h.003l.004-.003h.001l.003-.002h.003l.001-.002.001-.001.004-.001h.003l.005-.003.002-.001.002-.002.003-.001h.004l.003-.003h.004l.004-.001.002-.001h.002l.004-.003.002-.001.003-.002.003-.001h.002l.002-.003h.005M425.124 798.034h.007l.002-.003h.003l.001-.002h.006l.002-.003.003-.001h.004v-.002l.001-.001h.004l.003-.001h.004l.003-.002h.008l.001-.002h.005l.003-.003h.005l.002-.001.001-.002h.005l.003-.001h.01l.002-.003h.007l.002-.001h.007l.003-.001h.008v-.002l.002-.001h.01l.001-.001h.001l.003-.002h.013l.003-.001h.013l.002-.001h.004l.001-.002h.005M58.715 934.386l-.028-.25-.01-.255.009-.254.025-.253.044-.257.064-.254.081-.249.115-.293.137-.287.158-.287.182-.278.199-.275.219-.265.234-.26.255-.255.27-.247.285-.241.3-.235M425.297 797.996l.33-.028.335-.021.339-.012.344-.006h.345l.344.006.35.012.337.02.34.026.339.032.336.039.334.044.331.05.327.058.32.061.314.07.315.072.176.044M132.093 994.994l-.683-6.21M131.411 988.784l-.025-.313-.003-.316.021-.319.039-.317.063-.316.082-.314.102-.312.121-.304.139-.306.157-.302.179-.294.196-.292.21-.283.227-.277.265-.299.287-.292.303-.283.324-.277.337-.267.353-.257.367-.247.403-.25.418-.242.434-.228M134.313 998.641l-.313-.253-.296-.268-.272-.282-.255-.293-.225-.305-.204-.316-.18-.324-.139-.31-.119-.316-.096-.322-.072-.327-.049-.332M136.102 1000.007l-1.79-1.365" style="fill:none;stroke:#00ff4a;stroke-width:1.99999;stroke-linecap:round;stroke-linejoin:round;stroke-miterlimit:4;stroke-dasharray:none;stroke-opacity:1;visibility:visible" visibility="hidden"/><path d="m389.155 819.426 1.156 4.474M309.074 854.854l14.316 11.953M302.522 851.805l.847 5.573M162.47 903.19l3.365 5.89M378.453 828.866l-11.483-.896M366.72 833.261l-16.763 1.001" style="fill:none;stroke:#00ff4a;stroke-width:.999997;stroke-linecap:round;stroke-linejoin:round;stroke-miterlimit:4;stroke-dasharray:none;stroke-opacity:1;visibility:visible" visibility="hidden"/><path d="m366.97 827.97-16.68-2.741" style="fill:none;stroke:#00ff4a;stroke-width:1.99999;stroke-linecap:round;stroke-linejoin:round;stroke-miterlimit:4;stroke-dasharray:none;stroke-opacity:1;visibility:visible" visibility="hidden"/><path d="m134.313 998.642.917-5.267" style="fill:none;stroke:#00ff4a;stroke-width:.999997;stroke-linecap:round;stroke-linejoin:round;stroke-miterlimit:4;stroke-dasharray:none;stroke-opacity:1;visibility:visible" visibility="hidden"/><path d="m378.615 823.663-11.219-4.749M166.355 901.754l6.689 4.053M303.369 857.378l5.705-2.524M366.72 833.261l-16.96 6.352M378.615 823.663l-11.895 9.598M389.155 819.426l7.073 2.782M133.431 992.019l2.671 7.988" style="fill:none;stroke:#00ff4a;stroke-width:1.99999;stroke-linecap:round;stroke-linejoin:round;stroke-miterlimit:4;stroke-dasharray:none;stroke-opacity:1;visibility:visible" visibility="hidden"/><path d="m134.313 998.642 18.721-4.355" style="fill:none;stroke:red;stroke-width:.999997;stroke-linecap:round;stroke-linejoin:round;stroke-miterlimit:4;stroke-dasharray:none;stroke-opacity:1;visibility:visible"/><path d="M428.586 832.406 417.106 838M348.834 872.708l-11.064 5.367M219.304 938.168l-9.806 4.7M439.816 814.302l-9.173-9.882" style="fill:none;stroke:#00ff4a;stroke-width:.999997;stroke-linecap:round;stroke-linejoin:round;stroke-miterlimit:4;stroke-dasharray:none;stroke-opacity:1;visibility:visible" visibility="hidden"/><path d="m428.586 832.406-3.036 1.331M219.304 938.168l-16.449 8.054M219.304 938.168l-.421-4.431M227.686 858.932l-11.67 14.737M439.816 814.302l-9.605-4.825" style="fill:none;stroke:#00ff4a;stroke-width:1.99999;stroke-linecap:round;stroke-linejoin:round;stroke-miterlimit:4;stroke-dasharray:none;stroke-opacity:1;visibility:visible" visibility="hidden"/></svg>