<svg xmlns="http://www.w3.org/2000/svg" baseProfile="full" height="1122.52" preserveAspectRatio="xMinYMin meet" style="width:765px;height:943px" width="793.701" xml:space="preserve"><path d="m313.458 792.984 2.812 3.625M319.16 778.99l.123.003.12.025.109.05.099.062.085.083M266.94 784.762l.019.439.049.438.075.442.102.442.132.44.159.442.19.441.217.444.245.441.273.44.302.439.33.44.36.436.388.437.414.434.445.434.472.432.503.43.528.426.557.428.584.423.615.417.64.419.666.413.696.414.724.408.747.402.776.402.805.398.828.392.856.388.882.384.905.378.933.377.958.368.982.364 1.004.361 1.032.352 1.055.348 1.076.344 1.101.336 1.123.331 1.145.323 1.167.318 1.188.311M295.187 802.877l.117.027.131.016.137.009.142.001.14-.008.133-.016.121-.024.106-.029.088-.036.062-.041.039-.042.013-.045M275.549 773.81l.104-.047.115-.021.12.004" style="fill:none;stroke:red;stroke-width:.999997;stroke-linecap:round;stroke-linejoin:round;stroke-miterlimit:4;stroke-dasharray:none;stroke-opacity:1;visibility:visible" visibility="hidden"/><path d="m275.887 773.746.136.005.127.028.12.055.104.08.084.096M296.28 802.257l.003.003.002.004.003.004.003.004.002.005.003.004.003.004v.003l.002.004.003.004.003.004.001.004.003.004.002.004.003.002.003.004.002.004v.004l.003.007.003.003.002.004.003.004.003.004v.004l.002.004.003.004.003.004v.005l.002.004.003.003.003.005v.004l.002.005.003.004.003.003v.004l.002.005.002.004v.004l.002.006v.004l.003.002.003.004v.006l.002.005v.004l.003.005.003.003v.004l.002.005v.004l.003.006v.004l.003.004v.005l.002.003v.005l.003.004v.005l.003.004v.01l.002.004v.005l.003.004v.008l.003.004v.01l.002.006v.004l.003.004v.019l.003.004v.017l.002.007v.021l.003.005v.051" style="fill:none;stroke:red;stroke-width:.999997;stroke-linecap:round;stroke-linejoin:round;stroke-miterlimit:4;stroke-dasharray:none;stroke-opacity:1;visibility:visible" visibility="hidden"/><path d="m277.533 775.543 18.748 26.715" style="fill:none;stroke:red;stroke-width:1.99999;stroke-linecap:round;stroke-linejoin:round;stroke-miterlimit:4;stroke-dasharray:none;stroke-opacity:1;visibility:visible" visibility="hidden"/><path d="m277.528 773.216.021 2.348M296.13 774.767l-16.361-3M278.195 772.513l21.219 29.843M279.768 771.767l.063-.019.065.002M279.49 771.8l.088-.028.092-.01.099.006M278.195 772.513l-.104-.007-.101.015-.095.032M277.513 773.176l.005.023.011.016" style="fill:none;stroke:red;stroke-width:.999997;stroke-linecap:round;stroke-linejoin:round;stroke-miterlimit:4;stroke-dasharray:none;stroke-opacity:1;visibility:visible" visibility="hidden"/><path d="m277.528 773.215.01-.13.04-.125.06-.117.083-.105.102-.091.114-.07.127-.045.13-.018M296.13 774.767l.128.004.121.028.115.05.103.071.082.092M333.624 782.078l-13.628-2.503" style="fill:none;stroke:red;stroke-width:.999997;stroke-linecap:round;stroke-linejoin:round;stroke-miterlimit:4;stroke-dasharray:none;stroke-opacity:1;visibility:visible" visibility="hidden"/><path d="m319.697 779.215 9.44 11.357M319.283 778.973l.005.001.006.002h.005l.003.001.005.001.004.002.005.001h.006l.005.001.003.002.005.001.005.001.006.002h.005l.003.001.005.003h.005l.004.004.006.001.002.001.006.002.005.001h.005l.003.001.005.002.006.001.005.003.003.002h.005l.004.003.005.001.003.003.005.004.006.001.005.002.003.002.005.002.005.002.003.003.005.001.006.003.002.003.004.001.006.001.002.003.006.004.005.003.003.001.005.003h.003l.005.002.005.003.003.003.005.002.003.003.004.003.005.004.003.004.005.001.003.003.005.002.003.003.005.004.003.003.005.002.003.002.005.004.003.004.005.002.002.002.005.002.003.003.005.003.003.005.005.001.003.007.005.001.003.004.002.003.006.004.002.003.003.004.005.001.003.004.004.004.003.004.002.003.006.001.002.004.003.005.003.002.005.005.003.004.002.004.003.003.005.004.003.004.003.004.002.004.006.004M314.35 778.069l4.932.903M295.481 806.635l-.932-.248-.92-.25-.908-.251-.893-.26-.883-.264-.868-.266-.85-.269-.842-.275-.825-.278-.811-.28-.795-.286-.78-.288-.764-.29-.749-.296-.735-.296-.718-.3-.703-.303-.688-.307-.672-.31-.659-.312-.641-.315-.624-.317-.607-.322-.594-.322-.575-.326-.56-.328-.544-.33-.53-.334-.51-.336-.495-.338-.478-.34-.464-.344-.443-.346-.43-.346-.411-.348-.394-.351-.374-.355M296.424 805.905v.039l-.003.016v.014l-.002.012V806l-.003.014-.003.014-.002.014-.003.012v.016l-.005.012-.003.014-.004.012-.003.016-.005.012-.003.013-.005.01-.005.014-.006.013-.005.014-.005.01-.006.014-.005.013-.007.013-.005.012-.008.01-.005.013-.008.012-.008.012-.008.012-.008.01-.007.014-.008.01-.008.011-.008.01-.01.009-.009.013-.01.01-.007.01-.01.011-.009.007-.01.01-.011.011-.01.01-.01.009-.01.009-.011.008-.011.007-.01.01-.013.008-.01.008-.011.008-.013.008-.011.004-.012.008-.01.008-.014.007-.013.007-.01.006-.013.007-.013.005-.014.004-.013.004-.012.007-.013.004-.011.005-.016.007-.012.003-.013.004-.014.004-.013.002-.012.004-.013.003-.014.003-.016.002-.012.002-.013.001-.013.001h-.014l-.014.002-.014.001h-.013l-.016.001h-.025l-.016-.001h-.014l-.012-.001-.013-.002h-.016l-.013-.001h-.012l-.014-.003-.016-.002-.013-.003-.012-.003-.013-.002-.014-.004M296.419 803.319l.005 2.584M266.94 784.762l.003-.361.024-.358.036-.357.054-.355.074-.354.085-.354.104-.352.123-.348.136-.349.15-.343.17-.342.181-.339.199-.339.213-.336.232-.334.244-.332.259-.331.276-.325.289-.324.301-.324.319-.319.33-.317.346-.312.36-.311.372-.31.385-.305.378-.286.388-.284.401-.282.412-.278.424-.278.435-.274.448-.271.458-.267M275.549 773.81l.008-.005.01-.006.009-.005.009-.004.008-.005.01-.003.009-.004.01-.005.01-.004.008-.004.01-.004.011-.004.008-.003.01-.003.01-.002.008-.004.01-.003.011-.003.011-.002.01-.003.007-.001.011-.003.01-.001.011-.002.011-.001.01-.001.01-.002h.01l.009-.004h.021l.01-.002h.062l.01.002h.03l.01.004h.01l.01.002.011.001.011.001.01.002.01.002.01.002.009.002.01.003.011.003.01.002.01.003.008.003.01.004.011.001.008.004.01.005.01.003.008.004.011.007.01.002.009.003.009.005.008.004.01.006.009.005.01.004.008.004.007.005.01.006.009.006.008.007.01.004.008.007.007.005.008.007.008.006.008.006.008.006.008.007.008.008.007.005.008.008.008.007.008.007.008.006.005.008.008.007.008.01.004.006.008.008.005.008.008.007.006.009.008.008.005.01.005.007M276.458 774.012l1.076 1.53M277.895 772.555l.31-.152.315-.153.32-.152.323-.148.325-.15M277.513 773.176v-.024l.003-.005v-.04l.002-.008v-.014l.003-.009v-.008l.003-.007v-.008l.002-.006v-.008l.003-.006v-.01l.003-.008.002-.006V773l.003-.007.003-.006.001-.007.003-.008.002-.008v-.008l.003-.007.003-.006.002-.01.003-.005.003-.008.002-.007.006-.008.002-.006.003-.008.003-.006.002-.008.006-.006.002-.006.003-.008.005-.005.002-.01.002-.005.006-.006.002-.008.006-.006.002-.005.006-.008.002-.005.006-.008.005-.006.003-.008.005-.005.005-.008.006-.004.001-.004.005-.008.006-.005.005-.007.005-.007.006-.006.005-.004.005-.008.003-.004.005-.004.008-.008.004-.006.006-.005.005-.005.005-.006.006-.006.005-.004.005-.006.008-.005.006-.004.005-.004.004-.007.008-.005.005-.004.006-.004.008-.004.005-.007.005-.004.008-.004.006-.005.006-.003.006-.004.008-.002.005-.007.008-.004.005-.003.008-.005.006-.004.006-.003.008-.002.006-.006.008-.002M277.513 773.176l.021 2.367M296.255 774.75l.005.001.006.002h.005l.005.001.006.001.004.002.005.001.003.001.005.002.005.001.006.001.005.002h.005l.006.001.005.001.005.003.002.001.005.002.005.002.006.002h.005l.005.001.003.001.005.002.006.001.005.004h.005l.006.003.001.001.005.003.006.001.005.005.005.003h.003l.005.003.006.001.005.003.003.002.005.003.005.001.004.003.003.001.005.003.006.004.002.003.006.002.005.002.005.001.003.003.005.002.006.003.002.003.004.002.006.004.002.004.006.002.002.004.006.002.005.003.003.003.005.002.003.004.005.002.003.002.005.006.005.002.002.002.005.002.003.004.005.003.003.004.005.003.003.006.005.003.003.003.002.004.006.002.002.004.006.004.002.002.004.005.003.004.003.003.005.001.003.005.002.003.006.005.002.004.003.004.005.006.003.001.003.004.005.004.003.004.002.003.003.005.004.004.003.001.002.006.003.005M296.68 775.01l2.484 3.24M296.419 803.319l2.721 3.89M280.44 802.867l2.795-.203M279.77 802.535l-1.333-2.053M280.44 802.867h-.008l-.008.001h-.03l-.009.002-.008-.002h-.03l-.008-.001h-.024l-.008-.003h-.015l-.008-.002-.008-.002h-.008l-.008-.004-.008-.001-.007-.001h-.008l-.005-.003-.008-.003-.008-.001-.008-.003-.008-.001-.008-.001-.007-.003h-.008l-.008-.004-.008-.001-.005-.003-.008-.001-.008-.003-.007-.004-.008-.004-.008-.001-.005-.003-.008-.003-.008-.004-.008-.002-.005-.006-.007-.002-.008-.004-.008-.003-.005-.003-.008-.004-.008-.002-.006-.004-.008-.003-.004-.004-.008-.005-.008-.004-.005-.004-.008-.003-.005-.005-.008-.006-.006-.005-.006-.004-.006-.005-.008-.002-.005-.006-.005-.003-.008-.005-.006-.006-.008-.005-.005-.004-.004-.005-.005-.006-.008-.006-.006-.006-.005-.004-.005-.005-.008-.005-.006-.007-.005-.004-.005-.005-.004-.007-.006-.007-.005-.006-.005-.006-.006-.004-.005-.006-.005-.006-.006-.006-.005-.006-.005-.005-.003-.01-.004-.003-.005-.008-.006-.004-.005-.007-.003-.007-.005-.006-.005-.007" style="fill:none;stroke:red;stroke-width:1.99999;stroke-linecap:round;stroke-linejoin:round;stroke-miterlimit:4;stroke-dasharray:none;stroke-opacity:1;visibility:visible" visibility="hidden"/><path d="m275.562 773.823.107-.045.114-.02.12.002M275.903 773.76l.133.004.13.03.117.055.104.078.087.098" style="fill:none;stroke:red;stroke-width:.999997;stroke-linecap:round;stroke-linejoin:round;stroke-miterlimit:4;stroke-dasharray:none;stroke-opacity:1;visibility:visible" visibility="hidden"/><path d="m275.562 773.823.01-.004.009-.005.009-.006.008-.004.01-.005.009-.004.01-.003.008-.004.01-.005.01-.004.008-.004.011-.003.01-.004.009-.002.009-.004.01-.002.011-.002.011-.004.008-.003.01-.003.01-.002.01-.002.011-.002h.011l.008-.002.01-.001.01-.001.01-.002h.011l.011-.001.01-.001h.02l.011-.002h.028l.011.002h.01l.011.001h.011l.01.001.01.002.01.001.011.001h.011l.008.002.01.001.01.001.01.004.011.002.011.001.008.003.01.004.01.002.01.003.011.003.008.004.01.004.01.002.008.004.011.004.01.006.009.005.009.001.008.004.01.006.009.004.01.006.008.004.01.006.008.005.008.005.01.006.008.006.008.004.008.006.01.006.008.008.008.006.008.005.008.007.008.006.008.01.006.004.008.006.008.01.006.005.008.008.008.007.008.009.005.007.007.008.005.006.008.008.005.008.008.008.006.008.005.01.008.008M276.473 774.026l1.076 1.532" style="fill:none;stroke:red;stroke-width:1.99999;stroke-linecap:round;stroke-linejoin:round;stroke-miterlimit:4;stroke-dasharray:none;stroke-opacity:1;visibility:visible" visibility="hidden"/><path d="M280.535 775.957c-1.493.173-1.773 1.947-3.545 1.08-1.213-.587-1.361-1.268-.628-2.268" style="fill:none;stroke:red;stroke-width:.666665;stroke-linecap:round;stroke-linejoin:round;stroke-miterlimit:4;stroke-dasharray:none;stroke-opacity:1;visibility:visible" visibility="hidden"/><path d="m329.137 790.572-15.679 2.412M319.697 779.215l-3.427 17.394M296.419 803.319l2.995-.963M319.283 778.973l14.341 3.105" style="fill:none;stroke:red;stroke-width:.999997;stroke-linecap:round;stroke-linejoin:round;stroke-miterlimit:4;stroke-dasharray:none;stroke-opacity:1;visibility:visible" visibility="hidden"/><path d="m313.458 792.984 15.679-2.412M296.13 774.767l18.22 3.302M279.77 802.535l19.37 4.673M296.281 802.258l-17.844-1.776" style="fill:none;stroke:red;stroke-width:1.99999;stroke-linecap:round;stroke-linejoin:round;stroke-miterlimit:4;stroke-dasharray:none;stroke-opacity:1;visibility:visible" visibility="hidden"/><path d="m284.666 944.521.021 2.94M263.132 898.214l.039 2.696M263.768 897.554l21.607 46.24M285.374 943.795l1.159.424 1.177.419 1.192.408 1.212.4 1.227.394M278.864 896.84h.125l.118.021.109.043.096.063.08.078.063.096M279.036 896.803l-.055-.004-.057.01-.06.029M268.565 894.156l.06-.028.057-.013.058.008M268.229 894.199l.076-.033.083-.023.089-.003.088.016M263.12 898.166l.005.025.008.023M263.171 900.91l-.008-.024-.005-.024M263.22 901.128l-.036-.105-.013-.112M285.374 943.795l-.139.027-.134.05-.123.072-.107.095-.088.108-.062.12-.042.125-.013.13M284.687 947.462l.013.121.039.115M254.66 909.804l-.183.643-.158.649-.131.65-.104.649-.075.654-.052.655-.024.657.006.66.03.658.058.661.086.66.115.665.14.663.17.663.195.664.227.662.252.664.279.66.309.663.336.659.365.658.394.656.418.66.451.652.477.654.503.645.533.65.56.642.588.641.615.638.644.634.67.628.7.627.726.623.752.617.779.612.805.608.833.603.859.596.885.592.912.584.938.58.961.57.99.568 1.013.56 1.036.552 1.062.544 1.086.54 1.109.53 1.133.522 1.156.514 1.18.504M261.606 899.43h.128l.121.025.115.044.1.07.08.084.063.1M281.932 942.511l-.065-.108-.088-.09-.11-.074-.122-.048-.136-.025-.14.001M261.166 899.549l.073-.056.08-.04.092-.024.096-.01.099.01M281.71 898.406l.021 2.699M282.348 897.745l10.539 20.632M281.71 898.406l.013-.119.034-.114.06-.111.078-.099.096-.082.112-.064.12-.048.126-.023M281.731 901.105l-.01-.028-.003-.027M281.789 901.342l-.03-.076-.02-.079-.007-.084M282.348 897.745l.057-.028.058-.013.054.006" style="fill:none;stroke:#00ff4a;stroke-width:.999997;stroke-linecap:round;stroke-linejoin:round;stroke-miterlimit:4;stroke-dasharray:none;stroke-opacity:1;visibility:visible"/><path d="m306.33 912.273 10.36 18.88" style="fill:none;stroke:#00ff4a;stroke-width:1.99999;stroke-linecap:round;stroke-linejoin:round;stroke-miterlimit:4;stroke-dasharray:none;stroke-opacity:1;visibility:visible"/><path d="m306.58 908.1 11.639 20.99M322.484 908.199l.117-.001.112.02.104.037.094.056.081.072.065.085M322.645 908.16l-.052-.005-.055.012-.054.03M340.507 987.171l.82-56.628M343.19 801.996l.019-1.264M341.51 917.867l1.472-101.582M343.408 786.93l1.388-95.75M345.01 676.362l.979-67.498M350.27 599.434l4.653-.973" style="fill:none;stroke:#00ff4a;stroke-width:.999997;stroke-linecap:round;stroke-linejoin:round;stroke-miterlimit:4;stroke-dasharray:none;stroke-opacity:1;visibility:visible"/><path d="m349.978 598.097 4.945.363M345.299 599.065l4.68-.97" style="fill:none;stroke:#00ff4a;stroke-width:1.99999;stroke-linecap:round;stroke-linejoin:round;stroke-miterlimit:4;stroke-dasharray:none;stroke-opacity:1;visibility:visible"/><path d="m350.27 599.434-.243.065-.238.094-.24.121-.238.15-.234.178-.231.204-.227.23-.221.258-.216.281-.212.303-.203.328-.192.348-.188.37-.174.387-.167.407-.156.423-.147.438-.134.451-.12.463-.11.473-.096.481-.084.49-.069.493-.057.499-.043.498-.028.5-.013.496M340.507 987.171v.376l.013.364.026.35.04.335.049.322.063.302.074.287.087.267.096.248.11.228.12.204.129.184.138.16.148.138.156.115.166.09.173.065M345.145 599.076l.076-.01h.077" style="fill:none;stroke:#00ff4a;stroke-width:.999997;stroke-linecap:round;stroke-linejoin:round;stroke-miterlimit:4;stroke-dasharray:none;stroke-opacity:1;visibility:visible"/><path d="m349.825 598.107.079-.01h.074M349.978 598.097l.027-.003h.022" style="fill:none;stroke:#00ff4a;stroke-width:1.99999;stroke-linecap:round;stroke-linejoin:round;stroke-miterlimit:4;stroke-dasharray:none;stroke-opacity:1;visibility:visible"/><path d="m348.741 986.666-.013.1-.028.095-.044.08-.063.065M348.827 986.51l-.01.055-.031.052-.044.049M291.572 1030.644l.093.3.107.279.123.257.133.233.145.211.159.187.167.16.18.133.19.11.198.082M320.39 605.787l-.26-.005-.267.022-.262.056-.266.084-.262.118-.262.142-.26.174-.254.202-.251.228-.247.259-.24.283-.232.308-.224.332-.216.354-.205.378-.196.398-.187.418-.174.433-.162.455-.149.462M315.752 611.248l-5.14-.425M315.752 611.248l-24.203 419.134M310.229 610.773l.013.004.034.01.054.007.079.008.093.011.11.01M291.549 1030.382v.095l.008.089.016.077" style="fill:none;stroke:#00ff4a;stroke-width:.999997;stroke-linecap:round;stroke-linejoin:round;stroke-miterlimit:4;stroke-dasharray:none;stroke-opacity:1;visibility:visible"/><path d="m315.814 610.888-.03.115-.022.122-.01.123M299.554 1025.51l-.016.056-.036.053-.057.047M341.51 917.867l-37.133 27.064M341.51 917.867l-1.145-.303M341.827 918.235l-.033-.11-.052-.091-.066-.076-.078-.056-.088-.035M304.229 958.072l-.076.15-.088.142-.099.132-.109.113-.115.102M341.728 926.704l.123-8.257M343.408 786.93l-.279-.052M343.666 787.917l-30.159 15.608M331.442 802.351l-.099.141-.104.12-.109.1-.11.068-.109.046-.108.018-.104-.012-.096-.037-.09-.064-.082-.092-.07-.115-.059-.14-.048-.158-.033-.175-.019-.19-.005-.2M330.197 801.661l.008-.208.023-.21.04-.217.049-.208.063-.204.074-.19.084-.179.091-.164.101-.143.106-.12.106-.097.11-.07.109-.045.11-.016.1.011.1.039.087.066.082.094.07.113.06.139.047.158.016.078M343.666 787.917l.05-.137.033-.138.016-.133-.003-.125-.02-.116-.037-.103-.055-.085-.067-.072-.081-.05-.093-.028M343.622 797.268l.143-9.799" style="fill:none;stroke:#00ff4a;stroke-width:.999997;stroke-linecap:round;stroke-linejoin:round;stroke-miterlimit:4;stroke-dasharray:none;stroke-opacity:1;visibility:visible"/><path d="m335.762 671.383-14.907-1.75M307.002 668l-8.995-1.057" style="fill:none;stroke:#00ff4a;stroke-width:1.99999;stroke-linecap:round;stroke-linejoin:round;stroke-miterlimit:4;stroke-dasharray:none;stroke-opacity:1;visibility:visible"/><path d="m301.393 676.363.01-.144.037-.137.054-.128.076-.108.094-.088.109-.064.117-.039.123-.013.128.017.124.043.117.068.107.09.095.111.074.127.058.138.034.148.012.147-.012.145-.034.14-.058.126-.074.108-.095.088-.107.065-.117.039-.124.01-.125-.016-.126-.042-.117-.068-.11-.09-.09-.11-.079-.127-.054-.14-.036-.148-.011-.148M320.359 677.915l.125-.01.124.018.126.043.117.068.107.089.092.108.077.125.055.139.037.141.015.144-.011.146-.03.138-.053.127-.07.11-.091.093-.101.07-.115.046-.123.02-.128-.004-.122-.03-.122-.057M294.95 668.664l-.921 10.545" style="fill:none;stroke:#00ff4a;stroke-width:.999997;stroke-linecap:round;stroke-linejoin:round;stroke-miterlimit:4;stroke-dasharray:none;stroke-opacity:1;visibility:visible"/><path d="m334.538 779.52-20.041-3.648" style="fill:none;stroke:#00ff4a;stroke-width:1.99999;stroke-linecap:round;stroke-linejoin:round;stroke-miterlimit:4;stroke-dasharray:none;stroke-opacity:1;visibility:visible"/><path d="m275.21 895.247.085-.055" style="fill:none;stroke:#00ff4a;stroke-width:.999997;stroke-linecap:round;stroke-linejoin:round;stroke-miterlimit:4;stroke-dasharray:none;stroke-opacity:1;visibility:visible"/><path d="m294.052 897.742-16.145-4.176" style="fill:none;stroke:#00ff4a;stroke-width:1.99999;stroke-linecap:round;stroke-linejoin:round;stroke-miterlimit:4;stroke-dasharray:none;stroke-opacity:1;visibility:visible"/><path d="m332.22 911.022-9.05-2.359M281.872 897.9l-2.344-.61M275.137 895.787l-.03-.123-.014-.112.003-.102.02-.084.04-.07.054-.049M275.093 895.47l-.027.299M268.296 963.855l.21-.164.2-.176.186-.192.175-.21.161-.22" style="fill:none;stroke:#00ff4a;stroke-width:.999997;stroke-linecap:round;stroke-linejoin:round;stroke-miterlimit:4;stroke-dasharray:none;stroke-opacity:1;visibility:visible"/><path d="m270.934 961.96.21-.164.202-.177.184-.192.177-.208.162-.222" style="fill:none;stroke:#00ff4a;stroke-width:1.99999;stroke-linecap:round;stroke-linejoin:round;stroke-miterlimit:4;stroke-dasharray:none;stroke-opacity:1;visibility:visible"/><path d="m300.979 601.04 2.927-.575M295.132 667.796l5.847-66.755M285.966 772.441l7.937-90.613M275.21 895.247l8.003-92.033M269.304 962.676l1.855-21.18" style="fill:none;stroke:#00ff4a;stroke-width:.999997;stroke-linecap:round;stroke-linejoin:round;stroke-miterlimit:4;stroke-dasharray:none;stroke-opacity:1;visibility:visible"/><path d="m271.942 960.786 1.59-17.947" style="fill:none;stroke:#00ff4a;stroke-width:1.99999;stroke-linecap:round;stroke-linejoin:round;stroke-miterlimit:4;stroke-dasharray:none;stroke-opacity:1;visibility:visible"/><path d="m300.945 600.705-.15-.47-.173-.458-.196-.447-.216-.433-.237-.423-.255-.402-.276-.387-.292-.367-.309-.346-.323-.323-.338-.304-.352-.277-.364-.252-.374-.23-.382-.2-.391-.172-.396-.146-.4-.115-.404-.09-.41-.058-.405-.03h-.406l-.404.03-.399.057" style="fill:none;stroke:#00ff4a;stroke-width:.999997;stroke-linecap:round;stroke-linejoin:round;stroke-miterlimit:4;stroke-dasharray:none;stroke-opacity:1;visibility:visible"/><path d="m271.87 961 .06-.057.039-.074.021-.082-.005-.094-.027-.1" style="fill:none;stroke:#00ff4a;stroke-width:1.99999;stroke-linecap:round;stroke-linejoin:round;stroke-miterlimit:4;stroke-dasharray:none;stroke-opacity:1;visibility:visible"/><path d="m272.049 960.622-.016.059-.036.054-.055.051" style="fill:none;stroke:#00ff4a;stroke-width:1.99999;stroke-linecap:round;stroke-linejoin:round;stroke-miterlimit:4;stroke-dasharray:none;stroke-opacity:1;visibility:visible"/><path d="m303.906 600.467.06-.016.036-.02.016-.021" style="fill:none;stroke:#00ff4a;stroke-width:.999997;stroke-linecap:round;stroke-linejoin:round;stroke-miterlimit:4;stroke-dasharray:none;stroke-opacity:1;visibility:visible"/><path d="m271.942 960.786-.013.077-.026.072-.034.063" style="fill:none;stroke:#00ff4a;stroke-width:1.99999;stroke-linecap:round;stroke-linejoin:round;stroke-miterlimit:4;stroke-dasharray:none;stroke-opacity:1;visibility:visible"/><path d="m269.229 962.892.036-.064.027-.073.013-.079M300.979 601.04l.003-.112-.011-.112-.025-.11" style="fill:none;stroke:#00ff4a;stroke-width:.999997;stroke-linecap:round;stroke-linejoin:round;stroke-miterlimit:4;stroke-dasharray:none;stroke-opacity:1;visibility:visible"/><path d="m346.7 597.856 1.967.144M343.89 598.434l1.973.144M346.7 597.856l-.421-.017-.423.013-.416.041-.415.071M343.89 598.434l-.424-.019-.423.015-.416.04-.417.072M346.32 598.834l-.099-.101-.109-.079-.123-.052-.125-.023M346.75 597.853h-.027l-.022.003M348.666 598l.125.024.123.052.11.076.098.097M340.148 675.777l-20.057 6.639" style="fill:none;stroke:#00ff4a;stroke-width:1.99999;stroke-linecap:round;stroke-linejoin:round;stroke-miterlimit:4;stroke-dasharray:none;stroke-opacity:1;visibility:visible"/><path d="m345.01 676.362-25.06 8.384M335.838 687.77l.01-.219.023-.221.04-.217.055-.211.065-.199.078-.182.086-.168.096-.147.104-.123.107-.094.11-.068.111-.039.11-.008.104.023.101.05.092.08.085.108.074.132.062.155.047.176.033.19.022.205.005.213-.01.219-.025.22-.041.216-.052.212-.065.197-.078.185-.086.167-.096.145-.102.122-.106.096-.112.068-.11.038-.109.01-.107-.022-.1-.052-.093-.078-.083-.106-.076-.133-.062-.155-.047-.174-.036-.192-.019-.204-.005-.215M324.15 691.837l.008-.224.025-.224.04-.221.055-.214.067-.204.081-.188.09-.17.1-.148.105-.127.112-.097.114-.068.115-.04.115-.011.109.021.104.052.096.08.088.11.079.134.062.158.052.177.036.195.022.206.008.22-.011.222-.024.222-.041.222-.055.214-.068.202-.077.19-.092.17-.099.148-.104.125-.112.097-.115.072-.114.039-.112.01-.112-.022-.104-.05-.096-.08-.09-.107-.077-.135-.065-.157-.05-.178-.038-.194-.022-.21-.005-.217M345.278 677.306l.047-.115.032-.116.02-.112.005-.108" style="fill:none;stroke:#00ff4a;stroke-width:.999997;stroke-linecap:round;stroke-linejoin:round;stroke-miterlimit:4;stroke-dasharray:none;stroke-opacity:1;visibility:visible"/><path d="m336.093 686.55.076.023.07.048.062.077.05.103.04.124.022.141.01.15-.007.16-.02.16-.035.155-.047.144-.06.131-.068.112-.074.084-.079.059-.08.032h-.081M324.413 690.589l.079.015.072.041.065.07.055.093.041.116.032.133.016.145v.155l-.013.159-.03.156-.038.148-.055.138-.063.12-.07.1-.078.076-.081.051-.08.023-.079-.007M345.218 688.1l.164-11.23M279.036 896.803l.005.001h.006l.005.003.005.001.006.002.004.002.005.002.005.002.006.002.005.001.005.003.006.001.005.003.005.002.006.002.004.001h.005l.005.003.006.001.005.003.005.004.006.001.005.003.005.002.006.003.005.004.003.003.004.001.005.003.005.002.006.003.005.003.005.002.003.004.005.003.006.003.005.002.005.002.002.002.005.003.005.004.006.004.002.003.006.004.005.005.005.003.003.002.005.003.006.004.002.004.004.003.006.004.002.004.006.004h.002l.006.004.005.005.003.003.005.005.003.004.005.004.003.004.005.003.003.005.004.004.002.004.006.004.002.004.006.003.002.004.003.005.005.003.003.005.003.005.005.006.003.002.002.004.006.006.002.004.003.005.004.005.003.002.002.004.003.005.003.004.005.005.003.007.002.004.003.004.003.005.002.006.003.005.003.004.005.003.003.004.002.005.003.005.003.008.001.004.003.004M268.74 894.12l10.297 2.681" style="fill:none;stroke:#00ff4a;stroke-width:.999997;stroke-linecap:round;stroke-linejoin:round;stroke-miterlimit:4;stroke-dasharray:none;stroke-opacity:1;visibility:visible"/><path d="m279.455 897.14 13.159 26.073M268.229 894.199l.005-.003.006-.002.005-.003.003-.003.005-.002.004-.003.005-.003.006-.002.002-.003.006-.003.005-.001.005-.003.006-.001.002-.001.006-.004.005-.003.005-.001.004-.003.006-.003.005-.002.003-.002.005-.002.005-.002.006-.002.005-.002.005-.002h.006l.005-.003.004-.001.005-.002.003-.001.005-.003.006-.001.005-.001.005-.002.006-.001.005-.001.005-.002.006-.001.004-.001.005-.002h.005l.006-.001h.005l.005-.003h.006l.005-.001h.005l.006-.001h.005l.004-.003.005-.001h.006l.005-.002h.01l.006-.001.005-.001h.016l.004-.002h.076l.006.002h.01l.006.001.005.001h.015l.005.002h.005l.006.004h.01l.006.001h.005l.005.001.004.002.006.001h.005l.005.001h.006l.005.003h.005l.006.001M263.367 897.641l.56-.445.576-.44.588-.438.604-.43.615-.431.628-.424.64-.42.65-.415M263.12 898.166v-.028l.003-.005v-.038l.002-.008v-.009l.003-.008v-.012l.003-.004v-.012l.002-.007v-.008l.003-.002v-.008l.003-.006v-.005l.002-.007v-.004l.003-.006v-.006l.003-.006.001-.006v-.005l.003-.007.002-.005v-.007l.003-.005.003-.005.002-.006v-.006l.003-.006.003-.002.002-.006.003-.008.003-.005.002-.007v-.004l.003-.006.003-.004.002-.006.003-.008.003-.002.002-.006.006-.006.002-.004.002-.007.002-.005.003-.004.003-.006.002-.005.003-.005.005-.007.003-.001.003-.006.002-.006.006-.006.002-.005.003-.005.005-.004.003-.004.003-.006.005-.005.003-.005.001-.003.005-.004.003-.007.005-.005.003-.004.005-.005.003-.004.005-.004.003-.004.005-.006.003-.004.005-.005.006-.004.002-.001.004-.006.006-.005.002-.004.006-.004.005-.005.003-.003.005-.004.005-.004.003-.004.005-.004.006-.004.005-.005M263.12 898.166l.039 2.696M263.22 901.128l-.003-.001v-.003l-.002-.003v-.005l-.003-.003v-.004h-.003v-.004l-.002-.001v-.004l-.003-.003v-.006l-.003-.003v-.004l-.002-.003v-.004l-.003-.002v-.004l-.003-.003v-.005l-.001-.003v-.007l-.003-.001v-.007h-.002v-.005l-.003-.003v-.01l-.003-.002v-.005l-.002-.003v-.008l-.003-.002v-.011l-.003-.003v-.006l-.002-.003v-.013l-.003-.002v-.013l-.003-.003v-.017l-.002-.003v-.018l-.003-.003v-.047l-.003-.002M291.098 950.137l-.713-.23-1.076-.353-1.063-.361-1.047-.365-1.036-.376-1.021-.379M285.143 948.073l-.005-.001-.006-.003-.005-.003-.005-.001-.006-.003-.004-.002h-.005l-.005-.006-.006-.001-.005-.003-.005-.002-.006-.003h-.005l-.005-.001-.006-.003-.004-.003-.005-.004-.005-.004-.006-.004-.002-.001-.006-.003-.005-.002-.005-.003-.006-.004-.005-.003-.005-.002-.003-.002-.004-.005-.005-.003-.006-.004-.005-.002-.003-.002-.005-.002-.005-.003-.006-.004-.002-.005-.006-.004-.005-.003-.005-.004-.002-.003-.005-.002-.005-.006-.003-.001-.005-.005-.006-.006-.002-.001-.006-.005-.005-.002-.003-.004-.005-.002-.003-.006-.005-.004-.001-.004-.006-.005-.002-.003-.006-.005-.005-.004-.003-.003-.005-.006-.003-.003-.002-.003-.006-.004-.002-.004-.006-.005-.002-.007-.006-.004-.002-.002-.002-.006-.005-.002-.003-.006-.002-.005-.006-.005-.002-.003-.003-.005-.005-.003-.003-.004-.003-.007-.002-.004-.006-.005-.002-.005-.003-.004-.003-.006-.002-.004-.003-.006-.004-.004-.003-.004-.002-.003-.003-.005-.003-.007-.002-.005-.003-.004-.003-.006-.002-.005-.003-.004-.003-.008-.002-.004-.003-.005-.003-.002-.002-.005-.003-.008M253.265 915.553l.052 2.788M262.213 899.752l19.719 42.759M253.265 915.553v-.521l.013-.52.031-.519.047-.519.065-.516.079-.516.096-.514.109-.512.128-.51.14-.508.159-.508.172-.502.19-.502.203-.498.219-.498.232-.493.25-.492.26-.49.279-.485.292-.486.307-.478.32-.48.333-.474.35-.472.362-.468.375-.466.377-.445.388-.443.401-.442.411-.436.428-.434.437-.43.448-.427M281.932 942.511l.003.003v.002l.002.003v.004l.003.003v.001l.003.003v.005l.002.004.003.004v.001l.003.003v.007l.002.001v.004l.003.004v.003l.003.002v.007l.001.003v.002l.003.002v.009l.002.003v.004l.003.002v.006l.003.002v.007l.002.005v.004l.003.004v.006l.003.002v.008l.002.003v.007l.003.005v.007l.003.002v.011l.002.004v.01l.003.006v.013l.003.004v.016l.002.003v.025l.003.002v.052M261.166 899.549l.01-.008.009-.01.009-.007.01-.006.009-.009.01-.01.011-.006.01-.005.01-.008.01-.007.011-.007.011-.005.01-.007.01-.006.013-.006.011-.005.01-.005.014-.006.01-.005.01-.005.013-.004.011-.002.013-.005.01-.005.013-.003.013-.004.011-.004.013-.001.012-.003.011-.003.013-.002.014-.002.009-.001.013-.001.014-.002.013-.001.01-.001h.013l.013-.002h.013l.011.002h.025l.014.001.013.001.01.002.013.001.013.003.01.001.014.001.012.003.01.003.014.002.013.004.011.003.012.007.01.002.014.004.01.004.013.003.01.007.014.004.01.005.011.005.01.004.013.007.01.007.011.008.01.004.011.006.01.008.01.007.011.007.01.006.009.008.009.01.01.006.009.01.01.006.008.008.011.01.007.01.01.007.008.01.008.009.008.009.008.01.008.013.007.008.008.009.005.01.008.01.008.012.006.01.008.009.005.012.004.01.008.012.005.014.006.008M282 942.813l.024 2.93M281.018 946.424l-.919-.397-.906-.4-.896-.408-.878-.412-.868-.416-.85-.422-.839-.428-.823-.43-.808-.438-.794-.438-.776-.446-.763-.448-.747-.452-.732-.454-.716-.46-.701-.464-.684-.466-.672-.472-.655-.473-.637-.479-.623-.481-.609-.484-.588-.487-.576-.489-.557-.493-.542-.495-.526-.499-.51-.501-.496-.505-.476-.507-.461-.507-.445-.513-.427-.513-.412-.518-.393-.514-.378-.522-.36-.521-.345-.521-.325-.526-.31-.522-.292-.527-.276-.527-.26-.529-.242-.528-.224-.532-.21-.53-.192-.534-.174-.532-.156-.535-.142-.533-.12-.532-.108-.535-.078-.462-.068-.467-.052-.467-.042-.464-.029-.464-.012-.464M282.023 945.743v.044l-.003.015v.014l-.002.014v.014l-.003.015-.003.015-.002.013-.003.015-.003.013-.005.015-.003.012-.001.016-.005.012-.006.016-.005.012-.005.016-.006.012-.005.013-.005.012-.006.015-.008.012-.004.013-.008.013-.008.012-.005.012-.008.012-.008.015-.008.01-.01.011-.007.012-.008.012-.011.014-.008.006-.01.015-.009.01-.009.01-.01.012-.011.008-.011.01-.01.011-.01.008-.01.01-.014.01-.01.007-.011.01-.012.009-.011.006-.013.008-.014.008-.01.01-.012.005-.014.007-.013.006-.013.008-.012.006-.014.004-.013.008-.013.006-.012.006-.014.002-.016.003-.013.004-.012.007-.013.002-.016.006-.014.002-.012.003-.016.003-.013.001-.016.003-.012.002-.016.002-.013.001-.016.001h-.012l-.016.002h-.014l-.016-.002h-.028l-.013-.001-.016-.001-.012-.002-.013-.002-.016-.004h-.014l-.014-.004-.014-.003-.013-.001-.016-.006-.012-.004-.013-.005-.016-.004-.014-.004-.012-.003-.013-.006-.013-.006" style="fill:none;stroke:#00ff4a;stroke-width:1.99999;stroke-linecap:round;stroke-linejoin:round;stroke-miterlimit:4;stroke-dasharray:none;stroke-opacity:1;visibility:visible"/><path d="m282.518 897.71 11.37 2.96" style="fill:none;stroke:#00ff4a;stroke-width:.999997;stroke-linecap:round;stroke-linejoin:round;stroke-miterlimit:4;stroke-dasharray:none;stroke-opacity:1;visibility:visible"/><path d="M322.645 908.16h.005l.006.001.005.002.005.002h.01l.005.002.005.005h.006l.005.001.003.003.005.001.005.002.006.002.005.003.005.001.004.002.006.001.005.001.003.002.005.004h.005l.006.004.005.002.005.002.003.002.005.004.006.003.004.003.005.001.003.003.005.001.005.001.006.004.002.003.006.003.005.004.005.002.003.003.005.003.004.001.003.003.005.004.006.002.002.003.006.003.005.005.003.003.005.004.005.001.003.003.005.004.003.002.004.004.005.003.003.005.005.003.003.003.005.002.003.003.005.004.003.004.005.004.003.005.005.003.003.003.005.004.002.004.002.004.006.004.002.004.006.002.002.006.003.001.005.003.003.004.003.005.005.005.003.006.002.004.006.002.002.003.003.005.001.004.006.006.002.005.003.001.003.004.002.006.006.004.002.004.003.006.003.004.002.003.003.007.003.002.002.006.006.004.002.004.003.004" style="fill:none;stroke:#00ff4a;stroke-width:1.99999;stroke-linecap:round;stroke-linejoin:round;stroke-miterlimit:4;stroke-dasharray:none;stroke-opacity:1;visibility:visible"/><path d="m322.645 908.16-15.82-4.123" style="fill:none;stroke:#00ff4a;stroke-width:.999997;stroke-linecap:round;stroke-linejoin:round;stroke-miterlimit:4;stroke-dasharray:none;stroke-opacity:1;visibility:visible"/><path d="m330.458 920.976.003.001v.003l.002.001v.004l.003.002v.002l.003.002v.004l.002.001v.001l.003.003v.004h.003v.005h.002v.004l.003.003v.001l.003.002v.004l.001.002v.003l.003.003v.004l.002.001v.004l.003.001v.004l.003.003v.004l.002.003v.004l.003.001v.004l.003.001v.004l.002.003v.005l.003.002v.004l.003.002v.006l.002.002v.004l.003.002v.006l.003.002v.008h.002v.005l.003.001v.008l.003.003v.005l.002.003v.008l.003.003v.008l.003.001v.008M330.458 920.976l-7.401-12.508M337.775 989.883l4.32 1.323M340.63 608.38l.01-.392.018-.396.03-.397.035-.394.047-.392.057-.39.063-.386.073-.374.082-.37.088-.368.096-.357.104-.353.112-.346.117-.333.128-.33.135-.318.144-.31.148-.297.156-.29.162-.271.167-.261.176-.256.185-.238.194-.226.194-.208.203-.194.21-.178.215-.159.222-.144.229-.124.233-.105.24-.086.243-.061M335.838 985.556l.653-51.39M338.085 808.686l.047-3.825M336.713 916.734l1.295-101.885M338.372 786.122l1.183-93.061M339.773 675.85l.857-67.472M349.825 598.107h.005v-.001h.008l.003-.002h.003l.002-.001h.003l.003-.001h.004l.002-.002h.014l.002-.001h.003v-.003h.016l.003-.001h.002l.003-.001h.01l.002-.002h.03v-.001h.02l.002-.001h.019l.002.001h.022l.002.001h.018M337.775 989.883l-.164-.059-.159-.077-.153-.085-.147-.102-.134-.113-.131-.125-.123-.14-.117-.156-.107-.16-.098-.174-.088-.177-.084-.188-.08-.213-.071-.222-.065-.23-.055-.242-.047-.248-.038-.258-.032-.26-.022-.267-.014-.268-.008-.277v-.286M344.5 990.494l-.193.156-.198.141-.197.126-.204.109-.205.092-.208.072-.211.056-.165.027-.167.014-.167.002-.166-.014-.164-.026-.159-.043M354.973 598.456h.013l.011.003h.01l.013.001.01.003.011.001.013.001.01.003.01.003.011.001.013.003.011.005.01.004.01.001.01.003.014.004.01.003.01.004.01.002.011.006.011.005.01.004.01.005.01.004.011.007.011.005.01.003.011.007.007.005.01.005.011.007.011.005.008.007.01.007.01.008.008.004.01.006.009.008.01.007.007.008.008.007.01.006.009.01.008.006.01.008.008.008.007.008.008.01.008.006.008.011.008.007.008.009.005.01.007.007.008.011.008.01.005.007.008.01.006.009.008.01.005.01.005.01.007.009.005.01.006.011.005.01.005.011.006.01.005.009.005.01.006.011.002.011.006.012.004.01.002.009.006.013.002.01.006.013.002.01.003.01.003.012.005.01.003.014.002.01.003.011v.01l.003.013.002.012.003.01v.012l.003.012v.012l.002.011v.024l.002.012v.045M344.5 990.494l4.093-3.488M352.096 801.518l3.573-202.285M348.827 986.51l-.003.005v.039l-.002.008v.02l-.003.008v.01l-.003.005v.012l-.002.005v.007l-.003.005v.004l-.003.008v.004l-.002.005v.007l-.003.004v.005l-.003.007v.005l-.001.006-.003.004v.006l-.002.006-.003.005v.005l-.003.006-.002.006v.006l-.003.004-.003.005-.002.005-.003.004v.008l-.003.003-.002.007-.003.005-.003.003-.002.006-.003.006-.003.005-.002.005-.003.004-.003.004-.002.008-.002.003-.002.007-.003.004-.003.004-.002.006-.003.004-.003.006-.002.004-.003.005-.005.005-.003.006-.003.002-.002.004-.003.006-.005.005-.003.003-.003.006-.005.004-.003.006-.001.004-.003.004-.005.004-.003.006-.005.003-.003.004-.002.004-.006.005-.002.003-.006.004-.002.005-.006.004-.002.004-.006.004-.002.004-.004.004-.003.006-.005.004-.003.001-.005.004-.003.004-.005.004-.006.004-.002.004-.006.004M348.827 986.51l3.143-177.936M293.067 1032.597l-4.53-1.545M320.39 605.787l-5.123-.407M310.229 610.773l-23.552 417.763M286.705 1028.785v-.003l-.003-.002v-.007l-.002-.003v-.008l-.003-.001v-.01l-.003-.003v-.007l-.002-.001v-.011l-.003-.003v-.012l-.003-.002v-.011l-.002-.003v-.016l-.003-.002v-.019l-.003-.003v-.028l-.001-.002v-.091M310.229 610.773v-.003l.003-.001v-.03l.002-.002v-.021l.003-.003v-.019l.003-.001v-.013l.002-.003v-.012l.003-.001v-.014l.003-.001v-.012h.002v-.008l.003-.003v-.009l.003-.003v-.008l.001-.001v-.008l.003-.003v-.008l.002-.002v-.006h.003v-.001M288.536 1031.051l-.161-.063-.156-.073-.152-.088-.146-.097-.137-.11-.13-.121-.126-.127-.137-.165-.131-.181-.12-.191-.11-.2-.098-.212-.09-.221-.071-.204-.066-.212M310.265 610.576l.12-.376.128-.37.137-.355.148-.348.155-.338.161-.324.17-.309.176-.296.182-.283.194-.269.194-.253.207-.238.208-.222.216-.207.227-.192.232-.173.238-.156.246-.136.252-.118.253-.092.257-.073.224-.041.227-.026.224-.009.227.01M299.525 1025.668l-.104.353-.112.348-.12.348-.128.344-.135.339-.141.335-.145.326-.148.315-.158.31-.161.3-.167.294-.169.287-.176.276-.177.265-.186.257-.189.248-.19.238-.2.225-.197.212-.2.199-.204.186-.21.178-.214.162-.216.147-.218.133-.222.115-.224.097-.224.08-.218.062-.219.041-.221.021-.222.003-.218-.017-.216-.04-.21-.059M320.39 605.787l.21.025.209.039.206.056.2.072.199.084.192.099.188.112.213.152.206.166.198.183.19.199.182.216.172.226.164.242.154.254.145.267.139.28.13.29.122.302.112.31.1.311.093.322.083.326.076.338.068.342M299.554 1025.51v.003l-.003.002v.028l-.002.002v.02l-.003.002v.015l-.003.001v.014l-.002.001v.012l-.003.001v.014l-.003.001v.01l-.002.002v.01h-.003v.007l-.003.004v.007h-.001v.003M324.34 611h0l.003.003v.014l.002.002v.013l.003.003v.021h.003v.027h.002v.054l.003.002v.022l-.003.002v.033M303.494 959.678l-3.94 65.833" style="fill:none;stroke:#00ff4a;stroke-width:1.99999;stroke-linecap:round;stroke-linejoin:round;stroke-miterlimit:4;stroke-dasharray:none;stroke-opacity:1;visibility:visible"/><path d="m304.408 944.389-.915 15.288" style="fill:none;stroke:#00ff4a;stroke-width:.999997;stroke-linecap:round;stroke-linejoin:round;stroke-miterlimit:4;stroke-dasharray:none;stroke-opacity:1;visibility:visible"/><path d="m324.353 611.198-19.945 333.19" style="fill:none;stroke:#00ff4a;stroke-width:1.99999;stroke-linecap:round;stroke-linejoin:round;stroke-miterlimit:4;stroke-dasharray:none;stroke-opacity:1;visibility:visible"/><path d="m340.364 917.564-3.307-.87" style="fill:none;stroke:#00ff4a;stroke-width:.999997;stroke-linecap:round;stroke-linejoin:round;stroke-miterlimit:4;stroke-dasharray:none;stroke-opacity:1;visibility:visible"/><path d="m336.554 916.825.104-.063.104-.048.101-.026.1-.006.094.012M303.741 958.709l-.099.065-.098.051M341.676 930.25l-.005.027-.022.025M330.57 921.141l5.984-4.316" style="fill:none;stroke:#00ff4a;stroke-width:1.99999;stroke-linecap:round;stroke-linejoin:round;stroke-miterlimit:4;stroke-dasharray:none;stroke-opacity:1;visibility:visible"/><path d="m304.682 939.813 25.888-18.672M341.676 930.25l.052-3.545" style="fill:none;stroke:#00ff4a;stroke-width:.999997;stroke-linecap:round;stroke-linejoin:round;stroke-miterlimit:4;stroke-dasharray:none;stroke-opacity:1;visibility:visible"/><path d="m303.741 958.709 37.91-28.41" style="fill:none;stroke:#00ff4a;stroke-width:1.99999;stroke-linecap:round;stroke-linejoin:round;stroke-miterlimit:4;stroke-dasharray:none;stroke-opacity:1;visibility:visible"/><path d="m343.13 786.877-4.396-.815" style="fill:none;stroke:#00ff4a;stroke-width:.999997;stroke-linecap:round;stroke-linejoin:round;stroke-miterlimit:4;stroke-dasharray:none;stroke-opacity:1;visibility:visible"/><path d="m338.343 786.137.101-.043.099-.029.1-.01.09.007M312.062 817.493l-.028.016-.032.012M313.111 799.005l25.232-12.87" style="fill:none;stroke:#00ff4a;stroke-width:1.99999;stroke-linecap:round;stroke-linejoin:round;stroke-miterlimit:4;stroke-dasharray:none;stroke-opacity:1;visibility:visible"/><path d="m343.575 800.45.047-3.184" style="fill:none;stroke:#00ff4a;stroke-width:.999997;stroke-linecap:round;stroke-linejoin:round;stroke-miterlimit:4;stroke-dasharray:none;stroke-opacity:1;visibility:visible"/><path d="m342.075 801.343 1.133-.61M329.163 808.291l7.576-4.079M312.062 817.495l11.992-6.455" style="fill:none;stroke:#00ff4a;stroke-width:1.99999;stroke-linecap:round;stroke-linejoin:round;stroke-miterlimit:4;stroke-dasharray:none;stroke-opacity:1;visibility:visible"/><path d="m295.132 667.796 2.875-.853M295.01 667.969l.013-.064.026-.05.037-.038.047-.021" style="fill:none;stroke:#00ff4a;stroke-width:.999997;stroke-linecap:round;stroke-linejoin:round;stroke-miterlimit:4;stroke-dasharray:none;stroke-opacity:1;visibility:visible"/><path d="m293.802 681.781.005.027.026.01M298.103 666.938h-.052l-.044.005" style="fill:none;stroke:#00ff4a;stroke-width:1.99999;stroke-linecap:round;stroke-linejoin:round;stroke-miterlimit:4;stroke-dasharray:none;stroke-opacity:1;visibility:visible"/><path d="m295.01 667.969-.06.695M294.028 679.21l-.227 2.572" style="fill:none;stroke:#00ff4a;stroke-width:.999997;stroke-linecap:round;stroke-linejoin:round;stroke-miterlimit:4;stroke-dasharray:none;stroke-opacity:1;visibility:visible"/><path d="m293.833 681.82 12.305 1.563" style="fill:none;stroke:#00ff4a;stroke-width:1.99999;stroke-linecap:round;stroke-linejoin:round;stroke-miterlimit:4;stroke-dasharray:none;stroke-opacity:1;visibility:visible"/><path d="m285.966 772.441 2.795-1.253" style="fill:none;stroke:#00ff4a;stroke-width:.999997;stroke-linecap:round;stroke-linejoin:round;stroke-miterlimit:4;stroke-dasharray:none;stroke-opacity:1;visibility:visible"/><path d="m288.916 771.174-.083-.005-.073.018" style="fill:none;stroke:#00ff4a;stroke-width:1.99999;stroke-linecap:round;stroke-linejoin:round;stroke-miterlimit:4;stroke-dasharray:none;stroke-opacity:1;visibility:visible"/><path d="m285.848 772.64.01-.068.026-.056.035-.044.046-.028" style="fill:none;stroke:#00ff4a;stroke-width:.999997;stroke-linecap:round;stroke-linejoin:round;stroke-miterlimit:4;stroke-dasharray:none;stroke-opacity:1;visibility:visible"/><path d="m288.916 771.174 12.145 2.21" style="fill:none;stroke:#00ff4a;stroke-width:1.99999;stroke-linecap:round;stroke-linejoin:round;stroke-miterlimit:4;stroke-dasharray:none;stroke-opacity:1;visibility:visible"/><path d="m285.848 772.64-.019.207M275.296 895.193l2.61-1.63" style="fill:none;stroke:#00ff4a;stroke-width:.999997;stroke-linecap:round;stroke-linejoin:round;stroke-miterlimit:4;stroke-dasharray:none;stroke-opacity:1;visibility:visible"/><path d="m278.13 893.545-.085-.013-.076.008-.063.026M307.005 901.011l26.083 6.745M268.296 963.855l2.639-1.895M293.093 594.862l2.953-.544M271.937 960.929l-.143.196-.152.19-.164.177-.172.166-.181.158-.19.144M258.802 958.527l2.05-24.805M263.867 897.244l8.125-99.362M274.098 773.529l14.464-174.933M296.046 594.318l.31-.048.313-.032.312-.015.317.004.316.02.315.039.314.053.306.07.306.085.303.101.3.118.293.133.29.148.284.161.284.18.276.195.268.21.262.222.254.235.244.248.234.26.227.276.219.286.208.3.196.307.185.317.173.327.16.333.135.311.123.316.114.321.102.326M278.002 893.533l7.877-88.986M288.861 771.167l7.896-88.974M298.111 666.94l5.907-66.53M272.049 960.622l-.003.004v.021l-.002.003v.015l-.003.004v.013l-.003.003v.008l-.002.006v.006l-.003.001v.01l-.003.005v.006l-.002.003v.005l-.003.004v.007l-.003.003v.008l-.001.002v.003l-.003.001v.008l-.002.003v.001l-.003.006v.005l-.003.003v.004l-.002.002v.003l-.003.004v.001l-.003.004v.006l-.002.002v.002l-.003.004v.001l-.003.005v.002l-.002.004-.003.006v.002l-.003.002v.004l-.002.003v.003l-.003.002-.003.004v.002l-.002.002v.006l-.003.002v.003l-.003.001-.002.003v.003l-.002.005-.002.001v.002l-.003.004v.002l-.003.004-.002.003v.003l-.003.002-.003.003v.003l-.002.002-.003.004-.003.004v.003l-.002.001-.003.002M258.828 958.774v-.005l-.003-.003v-.008l-.002-.003v-.008l-.003-.001v-.007l-.003-.002v-.007l-.002-.003v-.009l-.003-.003v-.01l-.003-.003v-.01l-.002-.003v-.014l-.003-.001v-.017l-.003-.003v-.025l-.001-.002v-.098h.001v-.004M288.562 598.595v-.017l.003-.002v-.021l.002-.003v-.012l.003-.002v-.015l.003-.003v-.01l.002-.003v-.01l.003-.002v-.01l.003-.002v-.01l.002-.003v-.006l.003-.004v-.004l.003-.002v-.006l.001-.004v-.005l.003-.003v-.006l.002-.003v-.005l.003-.007v-.004l.003-.003v-.004l.002-.002v-.004l.003-.003v-.003l.003-.004v-.005l.002-.003v-.002l.003-.004v-.002l.003-.002v-.006l.002-.004v-.004l.003-.002v-.003l.003-.004v-.001l.002-.002v-.004l.003-.004v-.002l.003-.002v-.002l.002-.003v-.003l.003-.002v-.004l.003-.002v-.002l.002-.003.002-.005v-.002l.002-.004M303.989 600.125v.007l.003.001v.005l.002.003v.01l.003.002v.007l.003.004v.009l.002.003v.008l.003.002v.011l.003.004v.01l.002.002v.016l.003.004v.012l.003.004v.021l.001.003v.043l.003.001v.048l-.003.004v.04M268.296 963.855l-.197.135-.204.118-.214.108-.218.099-.224.083-.232.072-.232.057-.236.047-.24.032-.246.021-.246.007-.248-.006-.25-.02-.253-.028-.26-.044-.263-.056-.264-.07-.262-.083-.26-.095-.26-.106-.256-.119-.263-.133-.257-.147-.256-.156-.252-.172-.248-.18-.242-.192-.237-.2-.232-.21-.224-.22-.219-.231-.21-.239-.204-.247-.195-.254-.185-.26-.178-.264-.169-.274-.156-.278-.148-.283-.139-.287-.126-.288-.115-.293-.079-.21-.07-.215M288.648 598.302l.172-.308.185-.3.198-.288.21-.276.224-.265.232-.252.243-.234.247-.217.256-.204.265-.187.273-.174.282-.158.289-.141.29-.127.267-.096.266-.084.273-.072.273-.057M345.025 597.964l-2.815.576M336.5 606.356l-.803 70.84M335.502 694.516l-1.06 93.61M334.15 813.907l-1.195 105.513M334.244 805.554l-.03 2.797M332.757 936.964l-.473 41.861M336.5 606.356l.01-.392.029-.39.044-.39.06-.384.076-.383.09-.374.107-.37.12-.353.133-.35.148-.34.162-.331.174-.326.191-.312.2-.3.21-.286.225-.278.237-.265.248-.253.257-.235.268-.223.276-.209.282-.188.292-.176.3-.16.304-.145.312-.124.316-.111.32-.095.32-.072M335.838 985.709l-.028-.021-.259-.208-.252-.22-.245-.228-.237-.238-.228-.245-.22-.253-.211-.264-.203-.27-.193-.277-.181-.283-.172-.289-.159-.29-.15-.3-.137-.302-.125-.304-.115-.31-.098-.309-.09-.308-.074-.31-.058-.28-.044-.278-.034-.277-.026-.275-.013-.274-.003-.272" style="fill:none;stroke:#00ff4a;stroke-width:1.99999;stroke-linecap:round;stroke-linejoin:round;stroke-miterlimit:4;stroke-dasharray:none;stroke-opacity:1;visibility:visible"/><path d="m345.01 676.362-4.861-.584" style="fill:none;stroke:#00ff4a;stroke-width:.999997;stroke-linecap:round;stroke-linejoin:round;stroke-miterlimit:4;stroke-dasharray:none;stroke-opacity:1;visibility:visible"/><path d="m339.882 675.811.093-.025.09-.008.082.001" style="fill:none;stroke:#00ff4a;stroke-width:1.99999;stroke-linecap:round;stroke-linejoin:round;stroke-miterlimit:4;stroke-dasharray:none;stroke-opacity:1;visibility:visible"/><path d="m345.382 676.856-.008-.112-.025-.101-.04-.09-.058-.072-.066-.057-.082-.04-.093-.021M345.176 690.883l.041-2.783" style="fill:none;stroke:#00ff4a;stroke-width:.999997;stroke-linecap:round;stroke-linejoin:round;stroke-miterlimit:4;stroke-dasharray:none;stroke-opacity:1;visibility:visible"/><path d="m319.012 700.434 25.18-9.036" style="fill:none;stroke:#00ff4a;stroke-width:1.99999;stroke-linecap:round;stroke-linejoin:round;stroke-miterlimit:4;stroke-dasharray:none;stroke-opacity:1;visibility:visible"/><path d="M354.951 610.375c0 1.05-.416 1.902-.935 1.902-.516 0-.932-.852-.932-1.902 0-1.052.416-1.905.932-1.905.52 0 .935.853.935 1.905" style="fill:none;stroke:#00ff4a;stroke-width:.666665;stroke-linecap:round;stroke-linejoin:round;stroke-miterlimit:4;stroke-dasharray:none;stroke-opacity:1;visibility:visible"/><path d="m354.34 609.965-.628.443.595.577M352.62 744.565c-.177 1.007-.72 1.753-1.216 1.667-.494-.086-.75-.972-.576-1.982.178-1.006.722-1.752 1.216-1.666.496.086.754.973.576 1.98v.001" style="fill:none;stroke:#00ff4a;stroke-width:.666665;stroke-linecap:round;stroke-linejoin:round;stroke-miterlimit:4;stroke-dasharray:none;stroke-opacity:1;visibility:visible"/><path d="m352.103 744.07-.677.317.474.654M350.49 867.146c-.178 1.007-.722 1.752-1.216 1.667-.495-.087-.754-.974-.576-1.983.177-1.005.721-1.752 1.212-1.665.498.085.757.973.58 1.981" style="fill:none;stroke:#00ff4a;stroke-width:.666665;stroke-linecap:round;stroke-linejoin:round;stroke-miterlimit:4;stroke-dasharray:none;stroke-opacity:1;visibility:visible"/><path d="m349.973 866.65-.677.319.474.653M348.574 979.646c-.178 1.006-.722 1.752-1.216 1.666-.495-.085-.754-.972-.576-1.981.177-1.007.721-1.755 1.213-1.665.497.084.756.972.579 1.98" style="fill:none;stroke:#00ff4a;stroke-width:.666665;stroke-linecap:round;stroke-linejoin:round;stroke-miterlimit:4;stroke-dasharray:none;stroke-opacity:1;visibility:visible"/><path d="m348.057 979.151-.677.316.474.655M332.047 932.863c-.177 1.007-.721 1.753-1.216 1.667-.494-.086-.75-.972-.576-1.98.178-1.008.722-1.755 1.216-1.667.495.087.753.973.576 1.98" style="fill:none;stroke:#00ff4a;stroke-width:.666665;stroke-linecap:round;stroke-linejoin:round;stroke-miterlimit:4;stroke-dasharray:none;stroke-opacity:1;visibility:visible"/><path d="m331.53 932.37-.677.317.474.655M310.08 949.05c-.179 1.006-.723 1.753-1.218 1.666-.492-.084-.752-.972-.575-1.978.178-1.01.723-1.756 1.214-1.67.497.087.756.975.578 1.982h.001" style="fill:none;stroke:#00ff4a;stroke-width:.666665;stroke-linecap:round;stroke-linejoin:round;stroke-miterlimit:4;stroke-dasharray:none;stroke-opacity:1;visibility:visible"/><path d="m309.562 948.554-.677.319.474.653" style="fill:none;stroke:#00ff4a;stroke-width:.666665;stroke-linecap:round;stroke-linejoin:round;stroke-miterlimit:4;stroke-dasharray:none;stroke-opacity:1;visibility:visible"/><path d="m282.229 942.265 2.51 5.433" style="fill:none;stroke:#00ff4a;stroke-width:1.99999;stroke-linecap:round;stroke-linejoin:round;stroke-miterlimit:4;stroke-dasharray:none;stroke-opacity:1;visibility:visible"/><path d="m299.18 776.161.003 2.112M300.921 775.647l-1.068-.195M299.853 775.452l1.005 1.295M299.853 775.452l.065-.021.06.001M299.18 776.161l.013-.13.036-.127.063-.119.085-.107.103-.092.116-.066.128-.047.13-.021M296.416 802.69l.003.63M299.124 806.975l.005.083.016.081M299.153 807.005l-.016-.016-.012-.013M299.163 778.251l1.5 1.956M313.239 796.616l1.153 1.504M314.393 798.12h0l.003.003.002.001v.001l.003.003v.004h.003v.003h.002l.003.002v.004l.003.004v.003h.002v.001l.003.002v.001l.003.003.001.001v.005l.003.002v.001l.002.001v.003l.003.003v.002l.003.003.002.001v.004l.003.002v.002h.003v.004l.002.002v.004l.003.004.003.002v.002l.002.001v.004h.003v.004l.003.003v.002l.002.003v.001l.003.003v.003l.003.001v.004h.002v.004l.003.001v.007h.003v.004l.002.001v.004l.002.003v.003l.002.001v.004h.003v.007l.003.001v.004h.002v.007M299.255 775.765l-2.323-.425" style="fill:none;stroke:#00ff4a;stroke-width:.999997;stroke-linecap:round;stroke-linejoin:round;stroke-miterlimit:4;stroke-dasharray:none;stroke-opacity:1;visibility:visible"/><path d="M329.137 790.571v.001l.003.003v.001l.002.002v.002l.003.002.003.001v.001l.002.003v.001l.003.002v.002l.003.002v.001l.002.003.003.001.003.003v.001l.001.001v.004l.003.002v.002l.002.002v.001l.003.003v.004l.003.002.002.002v.002l.003.002v.001l.003.003v.001l.002.001v.004l.003.003v.001l.003.002v.002l.002.002v.002l.003.002v.001l.003.001v.003l.002.003v.002l.003.002v.002l.003.002v.004h.002v.005l.003.001v.003l.003.001v.004l.002.002v.002l.002.002v.004l.002.002v.004l.003.002v.002l.003.002v.001l.002.001v.006l.003.002v.003l.003.001v.003l.002.004v.003l.003.002v.004l.003.002v.004l.002.002v.004l.003.002M299.16 776.117l.003 2.135" style="fill:none;stroke:#00ff4a;stroke-width:1.99999;stroke-linecap:round;stroke-linejoin:round;stroke-miterlimit:4;stroke-dasharray:none;stroke-opacity:1;visibility:visible"/><path d="m318.143 809.407-.104.147-.107.124-.112.1-.114.073-.115.048-.112.02-.11-.012-.1-.035-.095-.068-.086-.089-.076-.116-.062-.143-.05-.16-.036-.178-.021-.191-.005-.207" style="fill:none;stroke:#00ff4a;stroke-width:.999997;stroke-linecap:round;stroke-linejoin:round;stroke-miterlimit:4;stroke-dasharray:none;stroke-opacity:1;visibility:visible"/><path d="m316.838 808.721.008-.212.023-.217.037-.218.052-.214.065-.207.078-.197.086-.183.096-.167.102-.146.109-.124.112-.1.115-.074.114-.046.112-.019.11.012.101.036.095.068.085.092.073.116.063.14.05.16" style="fill:none;stroke:#00ff4a;stroke-width:.999997;stroke-linecap:round;stroke-linejoin:round;stroke-miterlimit:4;stroke-dasharray:none;stroke-opacity:1;visibility:visible"/><path d="M273.082 771.196c-.72.333-1.547.468-2.04 1.2.387-.012.773-.012 1.147-.012M357.702 804.777l-.055-.01M357.295 804.889l.073-.052.072-.04.071-.024.07-.01.067.004M357.702 804.777l.076.028.07.045.063.071.059.089.046.107.035.125.029.141.015.15.003.164-.003.17-.019.173-.028.179-.04.176-.05.175-.056.165-.062.16-.076.147-.078.135-.083.118-.087.1-.085.083-.09.06-.086.044-.087.016-.084-.005" style="fill:none;stroke:#00ff4a;stroke-width:.666665;stroke-linecap:round;stroke-linejoin:round;stroke-miterlimit:4;stroke-dasharray:none;stroke-opacity:1;visibility:visible"/><path d="m357.498 806.687-.39-.62.572-.272" style="fill:none;stroke:#00ff4a;stroke-width:.666665;stroke-linecap:round;stroke-linejoin:round;stroke-miterlimit:4;stroke-dasharray:none;stroke-opacity:1;visibility:visible"/><path d="m285.142 948.073 6.199-2.233M306.33 912.273l-13.443 6.104" style="fill:none;stroke:#00ff4a;stroke-width:.999997;stroke-linecap:round;stroke-linejoin:round;stroke-miterlimit:4;stroke-dasharray:none;stroke-opacity:1;visibility:visible"/><path d="m292.887 918.377 13.443-6.104" style="fill:none;stroke:#00ff4a;stroke-width:1.99999;stroke-linecap:round;stroke-linejoin:round;stroke-miterlimit:4;stroke-dasharray:none;stroke-opacity:1;visibility:visible"/><path d="m323.057 908.467-16.477-.367M343.622 797.266l-.432 4.73M338.085 808.686l4.897 7.599M324.054 811.04l-10.547-7.515" style="fill:none;stroke:#00ff4a;stroke-width:.999997;stroke-linecap:round;stroke-linejoin:round;stroke-miterlimit:4;stroke-dasharray:none;stroke-opacity:1;visibility:visible"/><path d="m340.149 675.778-4.387-4.395M307.002 668l13.853 1.632M320.855 669.632 307.002 668" style="fill:none;stroke:#00ff4a;stroke-width:1.99999;stroke-linecap:round;stroke-linejoin:round;stroke-miterlimit:4;stroke-dasharray:none;stroke-opacity:1;visibility:visible"/><path d="m296.757 682.193 4.636-5.83" style="fill:none;stroke:#00ff4a;stroke-width:.999997;stroke-linecap:round;stroke-linejoin:round;stroke-miterlimit:4;stroke-dasharray:none;stroke-opacity:1;visibility:visible"/><path d="m338.734 786.062-4.196-6.542M300.921 775.647l13.576.225M282.518 897.71l11.534.032" style="fill:none;stroke:#00ff4a;stroke-width:1.99999;stroke-linecap:round;stroke-linejoin:round;stroke-miterlimit:4;stroke-dasharray:none;stroke-opacity:1;visibility:visible"/><path d="m337.057 916.693-4.837-5.671M284.666 944.522l-13.507-3.026" style="fill:none;stroke:#00ff4a;stroke-width:.999997;stroke-linecap:round;stroke-linejoin:round;stroke-miterlimit:4;stroke-dasharray:none;stroke-opacity:1;visibility:visible"/><path d="m284.666 944.522-11.133-1.683" style="fill:none;stroke:#00ff4a;stroke-width:1.99999;stroke-linecap:round;stroke-linejoin:round;stroke-miterlimit:4;stroke-dasharray:none;stroke-opacity:1;visibility:visible"/><path d="m306.138 683.383 18.275 7.206" style="fill:none;stroke:#00ff4a;stroke-width:.999997;stroke-linecap:round;stroke-linejoin:round;stroke-miterlimit:4;stroke-dasharray:none;stroke-opacity:1;visibility:visible"/><path d="m306.33 912.273-13.716 10.94M285.374 943.795l5.724 6.342" style="fill:none;stroke:#00ff4a;stroke-width:1.99999;stroke-linecap:round;stroke-linejoin:round;stroke-miterlimit:4;stroke-dasharray:none;stroke-opacity:1;visibility:visible"/><path d="m307.005 901.011-13.118-.341M293.887 900.67l12.938 3.367" style="fill:none;stroke:#00ff4a;stroke-width:.999997;stroke-linecap:round;stroke-linejoin:round;stroke-miterlimit:4;stroke-dasharray:none;stroke-opacity:1;visibility:visible"/><path d="m341.676 930.25-5.185 3.915M334.244 805.554l3.841 3.132M334.213 808.351l3.919-3.49M338.085 808.686l-.077 6.163M345.176 690.883l-5.621 2.178M351.97 808.574l.126-7.056M352.096 801.518l-.126 7.056" style="fill:none;stroke:#00ff4a;stroke-width:1.99999;stroke-linecap:round;stroke-linejoin:round;stroke-miterlimit:4;stroke-dasharray:none;stroke-opacity:1;visibility:visible"/><path d="m303.741 958.709.941-18.896" style="fill:none;stroke:#00ff4a;stroke-width:.999997;stroke-linecap:round;stroke-linejoin:round;stroke-miterlimit:4;stroke-dasharray:none;stroke-opacity:1;visibility:visible"/><path d="m324.054 811.04-10.943-12.035M336.739 804.212l5.336-2.869M324.054 811.04l5.109-2.749M342.075 801.343l-5.336 2.87M329.163 808.291l-5.109 2.75M298.007 666.943l8.131 16.44M299.853 775.452l1.208-2.069M293.887 900.67l13.118.341M337.057 916.693l-3.97-8.937M253.265 915.553l7.586 18.169M285.848 772.64l-11.75.889M293.801 681.782l2.956.41M345.382 676.87l-9.685.326M335.838 687.77l-.336 6.746M329.137 790.571l5.305-2.445M334.213 808.351l-.063 5.556M341.85 918.447l-8.895.973M338.085 808.686l-3.841-3.132M338.132 804.86l-3.919 3.491M341.676 930.25l-8.919 6.714" style="fill:none;stroke:#00ff4a;stroke-width:1.99999;stroke-linecap:round;stroke-linejoin:round;stroke-miterlimit:4;stroke-dasharray:none;stroke-opacity:1;visibility:visible"/><path d="m299.163 778.251 1.695-1.504M314.486 798.283l-18.07 4.407M299.124 806.975l-2.705-3.656M299.853 775.452l.81 4.755M300.921 775.647l-3.989-.307" style="fill:none;stroke:#00ff4a;stroke-width:.999997;stroke-linecap:round;stroke-linejoin:round;stroke-miterlimit:4;stroke-dasharray:none;stroke-opacity:1;visibility:visible"/><path d="m334.442 788.126-5.305 2.445" style="fill:none;stroke:#00ff4a;stroke-width:1.99999;stroke-linecap:round;stroke-linejoin:round;stroke-miterlimit:4;stroke-dasharray:none;stroke-opacity:1;visibility:visible"/><path d="m285.966 772.441-12.884-1.245" style="fill:none;stroke:#00ff4a;stroke-width:.666665;stroke-linecap:round;stroke-linejoin:round;stroke-miterlimit:4;stroke-dasharray:none;stroke-opacity:1;visibility:visible"/><path d="m274.098 773.529 6.437 2.428" style="fill:none;stroke:red;stroke-width:.666665;stroke-linecap:round;stroke-linejoin:round;stroke-miterlimit:4;stroke-dasharray:none;stroke-opacity:1;visibility:visible" visibility="hidden"/><path d="m324.413 690.589-4.145-11.15M324.413 690.589l11.68-4.039" style="fill:none;stroke:#00ff4a;stroke-width:.999997;stroke-linecap:round;stroke-linejoin:round;stroke-miterlimit:4;stroke-dasharray:none;stroke-opacity:1;visibility:visible"/><path d="m266.94 784.762 5.052 13.12" style="fill:none;stroke:#00ff4a;stroke-width:1.99999;stroke-linecap:round;stroke-linejoin:round;stroke-miterlimit:4;stroke-dasharray:none;stroke-opacity:1;visibility:visible"/><path d="m316.27 796.61-3.031.006" style="fill:none;stroke:#00ff4a;stroke-width:.999997;stroke-linecap:round;stroke-linejoin:round;stroke-miterlimit:4;stroke-dasharray:none;stroke-opacity:1;visibility:visible"/><path d="m274.098 773.529-1.909-1.145" style="fill:none;stroke:#00ff4a;stroke-width:.666665;stroke-linecap:round;stroke-linejoin:round;stroke-miterlimit:4;stroke-dasharray:none;stroke-opacity:1;visibility:visible"/></svg>