<svg xmlns="http://www.w3.org/2000/svg" baseProfile="full" height="1122.52" preserveAspectRatio="xMinYMin meet" style="width:765px;height:943px" width="793.701" xml:space="preserve"><path d="m241.057 933.566.103.237M241.16 933.803l-.001-.165M241.92 934.438l.021-.016.016-.04.015-.065.01-.086M241.16 933.803l.012.11.033.103" style="fill:none;stroke:red;stroke-width:.999997;stroke-linecap:round;stroke-linejoin:round;stroke-miterlimit:4;stroke-dasharray:none;stroke-opacity:1;visibility:visible"/><path d="m241.718 934.045-.133-.017-.124-.027-.107-.039-.09-.046-.065-.054-.04-.058M297.567 903.678l.117-.001.112.02.106.037.093.055.08.073.065.085" style="fill:none;stroke:red;stroke-width:.999997;stroke-linecap:round;stroke-linejoin:round;stroke-miterlimit:4;stroke-dasharray:none;stroke-opacity:1;visibility:visible"/><path d="m297.73 903.639-.052-.005-.055.014-.056.031M253.949 892.317h.124l.117.023.11.041.096.064.081.079.06.096M254.12 892.282l-.055-.005-.057.012-.059.028M282.02 664.67l-11.805-1.397M310.833 668.08l-14.967-1.77M310.846 666.862l-14.907-1.753" style="fill:none;stroke:red;stroke-width:.999997;stroke-linecap:round;stroke-linejoin:round;stroke-miterlimit:4;stroke-dasharray:none;stroke-opacity:1;visibility:visible"/><path d="m282.087 663.48-8.996-1.056" style="fill:none;stroke:red;stroke-width:1.99999;stroke-linecap:round;stroke-linejoin:round;stroke-miterlimit:4;stroke-dasharray:none;stroke-opacity:1;visibility:visible"/><path d="m276.476 671.844.012-.147.035-.137.056-.125.076-.111.093-.087.108-.064.117-.04.124-.012.127.016.124.042.117.068.107.092.095.112.076.125.056.139.034.148.011.148-.01.145-.035.139-.056.125-.076.11-.095.087-.107.063-.117.04-.124.012-.125-.017-.126-.04-.117-.068-.108-.092-.092-.112-.077-.126-.056-.14-.035-.146-.012-.147M295.443 673.394l.124-.01.125.018.124.043.118.068.106.088.094.109.076.125.056.138.037.144.013.144-.01.145-.03.137-.052.128-.072.11-.089.092-.103.07-.114.046-.123.021-.127-.005-.125-.031-.119-.056M270.033 664.143l-.921 10.545" style="fill:none;stroke:red;stroke-width:.999997;stroke-linecap:round;stroke-linejoin:round;stroke-miterlimit:4;stroke-dasharray:none;stroke-opacity:1;visibility:visible"/><path d="m309.622 774.998-20.041-3.648M276.143 768.904l-12.301-2.24" style="fill:none;stroke:red;stroke-width:1.99999;stroke-linecap:round;stroke-linejoin:round;stroke-miterlimit:4;stroke-dasharray:none;stroke-opacity:1;visibility:visible"/><path d="m276.044 770.666-14.995-2.747M309.602 776.81l-20.13-3.684M268.201 776.553l-.012-.145-.033-.144-.052-.14-.074-.131-.09-.119-.103-.1-.116-.082-.121-.062-.127-.036-.125-.009-.122.013-.114.04-.106.062-.086.085-.072.104-.054.12-.032.13-.01.142.013.145.032.146.053.14.074.129.088.119.105.101.112.081.124.06.127.038.126.009.122-.012.112-.04.105-.063.088-.085.073-.103.052-.121.032-.13.011-.142M260.914 768.324l-.861 9.808M250.294 890.727l.084-.055M250.222 891.266l-.032-.123-.013-.113.002-.1.019-.087.041-.068.055-.049M250.177 890.95l-.028.299M244.315 958.372l2.639-1.893M243.38 959.334l.21-.164.2-.177.186-.192.176-.207.161-.221M246.02 957.438l.21-.163.2-.177.186-.192.176-.208.161-.22M270.215 663.273l5.847-66.755M261.049 767.92l7.937-90.612M250.294 890.727l9.625-109.89M244.387 958.155l2.639-1.89M244.387 958.155l1.855-21.18M247.026 956.264l1.59-17.947" style="fill:none;stroke:red;stroke-width:.999997;stroke-linecap:round;stroke-linejoin:round;stroke-miterlimit:4;stroke-dasharray:none;stroke-opacity:1;visibility:visible"/><path d="m252.99 889.045 9.553-107.708" style="fill:none;stroke:red;stroke-width:1.99999;stroke-linecap:round;stroke-linejoin:round;stroke-miterlimit:4;stroke-dasharray:none;stroke-opacity:1;visibility:visible"/><path d="m276.028 596.184-.15-.47-.173-.458-.196-.448-.216-.435-.237-.418-.255-.404-.276-.387-.292-.367-.308-.345-.324-.325-.338-.304-.352-.278-.363-.25-.376-.228-.381-.202-.39-.173-.398-.147-.399-.116-.404-.086-.408-.06-.407-.03h-.406l-.403.03-.4.058M276.028 596.185l2.927-.573M234.156 954.305l.124.361.141.359.162.353.177.348.193.342.211.332.224.322.239.312.25.3.263.287.276.27.284.258.295.24.3.223.31.204.314.185.32.165.321.144.323.124.325.104.323.082.321.058.32.035.315.015.308-.01.302-.032.295-.053.285-.076.276-.099.263-.12.25-.142.24-.162.226-.182.208-.202.193-.22.178-.237M243.51 958.193l1.895-21.72M236.212 929.473l-2.056 24.832M246.953 956.478l.06-.059.04-.07.02-.086-.005-.093-.026-.099M234.156 954.305l-.083-.04-.068-.045-.054-.051-.042-.053-.02-.055-.004-.055" style="fill:none;stroke:red;stroke-width:.999997;stroke-linecap:round;stroke-linejoin:round;stroke-miterlimit:4;stroke-dasharray:none;stroke-opacity:1;visibility:visible"/><path d="m247.132 956.1-.016.057-.036.056-.055.05M247.026 956.264l-.013.079-.024.072-.036.064M233.912 954.252l.017.024.034.017.049.012.065.003.079-.003M244.313 958.372l.035-.064.026-.073.014-.08M243.51 958.193l.095.08.104.067.109.05.112.034.11.017.105-.007.092-.02.077-.041M276.062 596.518l.003-.112-.011-.112-.025-.11" style="fill:none;stroke:red;stroke-width:.999997;stroke-linecap:round;stroke-linejoin:round;stroke-miterlimit:4;stroke-dasharray:none;stroke-opacity:1;visibility:visible"/><path d="m244.387 958.155-.081.047-.095.036-.11.022-.118.012-.124-.004-.121-.013-.119-.025-.11-.038M315.59 982.65l.713-49.28M316.593 913.346l1.696-117.134M318.492 782.408l1.388-95.75" style="fill:none;stroke:red;stroke-width:.999997;stroke-linecap:round;stroke-linejoin:round;stroke-miterlimit:4;stroke-dasharray:none;stroke-opacity:1;visibility:visible"/><path d="m325.063 593.575 4.944.364" style="fill:none;stroke:red;stroke-width:1.99999;stroke-linecap:round;stroke-linejoin:round;stroke-miterlimit:4;stroke-dasharray:none;stroke-opacity:1;visibility:visible"/><path d="m320.383 594.544 4.68-.97M326.005 595.739l-.301.064-.299.093-.3.124-.296.152-.293.183-.284.21-.283.237-.273.264-.266.288-.257.312-.243.334-.234.356-.22.376-.21.396-.192.412-.178.426-.162.441-.146.455-.128.461-.114.472-.093.476-.076.483-.057.484-.035.482-.021.484M326.005 595.739l4.65-.983M315.59 982.65v.377l.013.363.026.35.04.335.049.322.063.302.074.287.087.267.097.248.108.226.12.206.128.184.14.16.148.137.156.115.167.092.17.064M320.229 594.554l.077-.01h.078" style="fill:none;stroke:red;stroke-width:.999997;stroke-linecap:round;stroke-linejoin:round;stroke-miterlimit:4;stroke-dasharray:none;stroke-opacity:1;visibility:visible"/><path d="m324.908 593.586.079-.01h.076M325.063 593.575l.025-.003h.024" style="fill:none;stroke:red;stroke-width:1.99999;stroke-linecap:round;stroke-linejoin:round;stroke-miterlimit:4;stroke-dasharray:none;stroke-opacity:1;visibility:visible"/><path d="m330.656 594.756.052-.013.032-.015.012-.016M266.656 1026.123l-4.543-1.547M266.656 1026.123l.093.3.107.277.123.259.133.233.145.211.159.185.168.162.179.133.19.11.198.08M262.113 1024.577l.095.3.109.279.123.256.134.234.147.21.159.186.169.16.181.136.188.11.202.082M295.475 601.266l-.261-.007-.267.026-.263.054-.264.084-.264.116-.262.144-.259.174-.255.201-.25.23-.246.257-.24.282-.232.31-.225.332-.216.353-.205.38-.196.397-.186.418-.174.434-.163.451-.15.465M290.898 606.368l-5.14-.423M290.835 606.727l-24.201 419.134M266.633 1025.862l-4.543-1.545M267.628 1025.806l.09.29.105.265.118.245.131.219.141.194.156.174.167.145.175.119.186.09.195.068.203.038.21.01.218-.016.222-.045.228-.07.232-.098.238-.123.236-.148.238-.174.24-.2.239-.223.236-.247.235-.266.232-.29.228-.308.222-.328.216-.342.211-.359.201-.375.195-.389.187-.399.174-.409.167-.42.155-.423.142-.429.131-.436M262.09 1024.316l-.097-.039-.083-.044-.07-.05-.045-.056-.028-.055-.006-.056M262.113 1024.577l-.017-.077-.01-.088.003-.095M261.789 1024.265l.032.083.05.072.069.064.081.054.092.039M285.757 605.944l-.127-.004-.108.008-.085.024-.059.035-.03.048M266.633 1025.862l-.001.095.008.088.016.078M267.628 1025.806l-.087.048-.108.036-.122.027-.135.013-.14.003-.141-.014-.135-.022-.127-.035M290.898 606.368l-.03.115-.02.121-.013.124" style="fill:none;stroke:red;stroke-width:.999997;stroke-linecap:round;stroke-linejoin:round;stroke-miterlimit:4;stroke-dasharray:none;stroke-opacity:1;visibility:visible"/><path d="m266.656 1026.123.125.03.135.01.139-.013.137-.034.13-.053.12-.075.105-.084.081-.098M274.637 1020.989l-.016.056-.036.053-.057.048M316.593 913.346l-37.135 27.063M316.593 913.346l-1.145-.303M306.568 929.29l-.099.133-.102.112-.104.09-.106.065-.101.039-.097.013-.092-.012-.087-.037-.076-.066-.068-.088-.056-.11-.044-.135-.032-.148-.019-.168-.004-.18M305.481 928.797l.008-.19.02-.2.037-.198.048-.2.06-.2.071-.19.079-.18.089-.167.093-.152.1-.132.103-.111.103-.09.105-.065.103-.04.097-.012.092.012.087.04.073.066.07.088.057.112.041.13.035.151M284.701 945.45l-.1.159-.107.138-.109.119-.11.095-.113.07-.109.044-.105.018-.103-.008-.09-.039-.083-.063-.075-.089-.061-.112-.05-.137-.036-.154-.021-.169-.008-.187M283.421 945.135l.008-.195.021-.205.039-.207.05-.208.062-.206.072-.198.087-.189.093-.175.099-.158.108-.139.109-.119.112-.094.112-.071.11-.043.105-.017.1.01.092.04.084.062.073.09.06.113.048.134.039.155M279.312 953.551l-.076.152-.088.141-.099.131-.109.115-.115.097M316.674 925.568l.039.047.026.04.018.038.002.034M316.813 922.183l.121-8.259M318.492 782.408l-30.516 15.735M318.492 782.408l-.279-.052M305.28 797.14l.01-.208.02-.212.04-.213.05-.21.064-.202.072-.194.085-.177.092-.163.099-.142.107-.122.108-.097.109-.07.11-.043.107-.018.102.012.098.038.088.066.083.092.07.116.06.136.046.16.033.174.019.192.005.2-.009.206-.025.212-.036.214-.05.209-.062.201-.076.192-.082.179-.092.163-.101.141-.103.121-.108.098-.109.07-.11.046-.107.016-.103-.01-.097-.038-.091-.066-.081-.092-.071-.116-.06-.138-.047-.156-.032-.178-.02-.186-.005-.203M291.92 804.2l.01-.212.02-.219.04-.216.051-.213.066-.208.076-.197.088-.182.094-.166.103-.148.11-.124.111-.1.115-.072.115-.047.112-.02.108.012.102.037.095.067.085.092.074.117.062.14.05.159.036.179.021.193.005.204-.008.212-.024.216-.037.216-.05.215-.066.206-.076.198-.087.181-.096.167-.105.146-.108.123-.112.101-.115.075-.113.047-.112.02-.11-.011-.1-.037-.093-.066-.088-.09-.073-.119-.063-.141-.049-.158-.036-.18-.021-.192-.007-.205M318.799 783.259l.032-.137.017-.134-.002-.125-.019-.117-.039-.103-.053-.085-.07-.07-.08-.052-.093-.028" style="fill:none;stroke:red;stroke-width:.999997;stroke-linecap:round;stroke-linejoin:round;stroke-miterlimit:4;stroke-dasharray:none;stroke-opacity:1;visibility:visible"/><path d="m292.305 802.685.077.019.071.044.061.07.052.094.039.116.024.13.012.147-.004.155-.019.16-.03.158-.046.155-.056.143-.066.13-.075.112-.08.091-.084.067-.083.041-.084.013-.077-.013M305.65 795.671l.075.024.065.052.059.077.048.103.032.121.021.139.004.15-.01.16-.025.16-.037.158-.05.15-.062.14-.07.12-.078.1-.081.078-.086.05-.08.023-.08-.006M318.705 792.747l.141-9.796" style="fill:none;stroke:red;stroke-width:.999997;stroke-linecap:round;stroke-linejoin:round;stroke-miterlimit:4;stroke-dasharray:none;stroke-opacity:1;visibility:visible"/><path d="m315.231 671.258-20.057 6.639" style="fill:none;stroke:red;stroke-width:1.99999;stroke-linecap:round;stroke-linejoin:round;stroke-miterlimit:4;stroke-dasharray:none;stroke-opacity:1;visibility:visible"/><path d="m320.093 671.84-25.059 8.383M310.921 683.249l.01-.219.022-.221.043-.217.053-.212.065-.198.078-.184.088-.168.096-.146.102-.122.107-.094.11-.068.111-.039.11-.01.104.023.1.052.094.08.084.107.074.133.062.155.047.173.035.192.02.206.005.213-.01.219-.026.22-.039.217-.053.21-.065.2-.078.182-.086.167-.096.146-.102.122-.106.094-.111.068-.11.04-.11.01-.105-.022-.103-.05-.092-.079-.083-.107-.076-.134-.061-.155-.048-.173-.035-.192-.02-.206-.005-.213M299.234 687.317l.01-.224.022-.224.043-.221.053-.216.067-.202.081-.189.09-.17.1-.149.106-.125.11-.097.115-.07.115-.04.115-.01.109.021.104.053.097.08.087.108.079.135.064.157.05.178.036.194.023.208.007.218-.011.222-.024.224-.041.222-.054.213-.068.203-.078.189-.091.17-.099.147-.105.126-.112.097-.113.07-.115.04-.113.011-.111-.021-.104-.05-.097-.08-.09-.11-.076-.133-.065-.156-.05-.18-.038-.194-.023-.208-.005-.217M320.361 672.785l.047-.116.032-.115.02-.112.005-.108" style="fill:none;stroke:red;stroke-width:.999997;stroke-linecap:round;stroke-linejoin:round;stroke-miterlimit:4;stroke-dasharray:none;stroke-opacity:1;visibility:visible"/><path d="m311.176 682.03.077.021.067.048.064.079.048.104.041.124.023.139.01.153-.006.159-.02.16-.036.153-.047.147-.06.129-.068.11-.074.086-.079.059-.08.032-.08.001M299.497 686.067l.079.015.072.042.065.07.055.093.042.115.031.132.016.146.001.155-.014.157-.028.158-.04.149-.054.135-.064.122-.07.099-.078.079-.081.049-.08.023-.079-.008M320.301 683.577l.164-11.23" style="fill:none;stroke:red;stroke-width:.999997;stroke-linecap:round;stroke-linejoin:round;stroke-miterlimit:4;stroke-dasharray:none;stroke-opacity:1;visibility:visible"/><path d="m321.783 593.334 1.967.144" style="fill:none;stroke:red;stroke-width:1.99999;stroke-linecap:round;stroke-linejoin:round;stroke-miterlimit:4;stroke-dasharray:none;stroke-opacity:1;visibility:visible"/><path d="m318.973 593.913 1.972.144M321.783 593.334l-.421-.017-.423.014-.416.042-.415.07M318.973 593.913l-.423-.017-.422.012-.418.041-.417.07M321.403 594.311l-.097-.1-.111-.079-.123-.05-.125-.024M321.833 593.332h-.027l-.022.003" style="fill:none;stroke:red;stroke-width:.999997;stroke-linecap:round;stroke-linejoin:round;stroke-miterlimit:4;stroke-dasharray:none;stroke-opacity:1;visibility:visible"/><path d="m241.92 934.438.31-.032M241.205 934.016l-.216-.501M241.92 934.438l-.01.001h-.007l-.011.002h-.016l-.01.001h-.034l-.01-.001h-.018l-.008-.002h-.01l-.007-.001-.008-.003h-.01l-.009-.001h-.008l-.012-.001-.007-.003-.008-.001h-.009l-.008-.003-.01-.003-.009-.002-.009-.002-.005-.002-.01-.003-.009-.003-.008-.002-.01-.003-.009-.001-.006-.003-.008-.004-.008-.003-.01-.002-.008-.004-.009-.004-.01-.003-.005-.004-.008-.003-.008-.005-.008-.004-.008-.003-.008-.005-.009-.005-.005-.003-.008-.004-.008-.005-.008-.006-.008-.004-.007-.005-.01-.004-.006-.005-.005-.006-.008-.005-.007-.007-.007-.004-.008-.005-.006-.005-.008-.007-.007-.005-.005-.006-.007-.006-.007-.007-.006-.005-.007-.006-.007-.006-.005-.007-.008-.007-.004-.006-.005-.007-.007-.005-.007-.008-.005-.007-.005-.005-.006-.008-.006-.007-.007-.007-.005-.008-.003-.006-.005-.008-.006-.008-.004-.006-.005-.008-.005-.008-.006-.009-.004-.007-.004-.006-.005-.008-.005-.008-.004-.007-.003-.01-.003-.007-.005-.008-.003-.008-.005-.008-.003-.008M297.73 903.639l.004.001.005.002h.006l.005.002h.005l.003.003.007.001.005.003.005.001.006.002.004.002h.005l.005.002.004.004.006.001.005.003.003.001.006.001.006.003.004.003.004.001.005.001.005.003.006.004h.005l.004.003.004.002.005.003.003.004.007.001h.004l.004.004.005.003.005.003.004.002.004.003.006.003.005.004.004.002.004.002.003.002.004.003.005.005.005.002.004.002.004.003.006.004.004.003.004.004.005.002.003.002.005.005.004.003.001.004.007.002.003.004.005.004.003.003.005.004.004.003.004.002.004.004.004.004.003.004.005.004.003.003.005.003.001.005.003.004.005.003.004.002.004.006.003.004.004.002.004.004.003.004.004.004.004.006.002.004.004.004.004.004.003.004.003.004.002.004.003.004.004.005.003.003.004.005.002.004.004.005.003.003.003.005.002.004.003.003.004.007.003.004.002.005.004.004.003.004.003.005M305.542 916.455l.001.001.002.003.001.001.001.004h.002v.004l.002.002v.001l.002.003.001.001v.001l.003.003.001.004h.001v.001l.002.003.001.001v.003h.001l.002.003v.002l.002.003v.001l.002.002.001.004v.005l.001.003.002.001v.003h.001l.001.002v.003l.002.001.002.003v.001l.002.002.001.002v.004l.001.002.002.002.001.003.001.001v.003h.002l.001.005v.003l.001.001.002.003v.003h.001l.001.002v.004l.002.002.001.002.001.004h.002v.006l.001.002.001.002v.002l.002.004.001.002v.002l.001.003.002.001v.007l.001.001.001.003v.004l.002.003.001.001v.005l.001.003.002.001v.007l.001.003.001.001v.005M254.12 892.282l.005.001.006.002.005.001.007.001.005.002.003.002.006.002.006.001.005.001.005.002.006.002.005.003.005.003.006.001.005.003h.003l.006.002.004.003.006.003.005.001.005.004h.006l.005.001.005.006.006.001.005.004.003.001.004.003.005.003.005.002.006.003.005.003.005.001.004.005.004.003.006.003.005.002.005.003.002.004.005.003.005.002.006.003.004.004.004.003.005.004.005.002.003.004.005.003.006.004.004.004.002.001.006.006.002.004.006.004.004.001.004.004.005.004.003.004.005.004.003.004.005.004.004.004.004.004.004.004.001.003.003.004.007.005.002.004.006.003.002.005.004.005.004.002.003.005.004.005.004.004.003.004.004.004.004.006.002.004.004.005.002.004.004.004.002.004.004.005.003.004.004.006.003.004.002.005.003.004.003.005.004.006.002.004.003.005.004.004.003.004.002.005.003.007.003.005.001.004.001.004" style="fill:none;stroke:red;stroke-width:1.99999;stroke-linecap:round;stroke-linejoin:round;stroke-miterlimit:4;stroke-dasharray:none;stroke-opacity:1;visibility:visible"/><path d="m270.215 663.273 2.875-.85M270.094 663.447l.012-.063.025-.052.038-.037.046-.023" style="fill:none;stroke:red;stroke-width:.999997;stroke-linecap:round;stroke-linejoin:round;stroke-miterlimit:4;stroke-dasharray:none;stroke-opacity:1;visibility:visible"/><path d="m268.885 677.26.007.025.022.011M273.187 662.417l-.05-.001-.046.006" style="fill:none;stroke:red;stroke-width:1.99999;stroke-linecap:round;stroke-linejoin:round;stroke-miterlimit:4;stroke-dasharray:none;stroke-opacity:1;visibility:visible"/><path d="m270.094 663.447-.061.695M269.111 674.688l-.227 2.572" style="fill:none;stroke:red;stroke-width:.999997;stroke-linecap:round;stroke-linejoin:round;stroke-miterlimit:4;stroke-dasharray:none;stroke-opacity:1;visibility:visible"/><path d="m268.916 677.297 12.305 1.563M295.94 665.093l14.905 1.752" style="fill:none;stroke:red;stroke-width:1.99999;stroke-linecap:round;stroke-linejoin:round;stroke-miterlimit:4;stroke-dasharray:none;stroke-opacity:1;visibility:visible"/><path d="m261.049 767.92 2.795-1.255" style="fill:none;stroke:red;stroke-width:.999997;stroke-linecap:round;stroke-linejoin:round;stroke-miterlimit:4;stroke-dasharray:none;stroke-opacity:1;visibility:visible"/><path d="m264 766.653-.083-.005-.073.017" style="fill:none;stroke:red;stroke-width:1.99999;stroke-linecap:round;stroke-linejoin:round;stroke-miterlimit:4;stroke-dasharray:none;stroke-opacity:1;visibility:visible"/><path d="m260.932 768.12.012-.068.023-.056.037-.044.045-.03" style="fill:none;stroke:red;stroke-width:.999997;stroke-linecap:round;stroke-linejoin:round;stroke-miterlimit:4;stroke-dasharray:none;stroke-opacity:1;visibility:visible"/><path d="m259.82 780.804.003.01.008.005" style="fill:none;stroke:red;stroke-width:1.99999;stroke-linecap:round;stroke-linejoin:round;stroke-miterlimit:4;stroke-dasharray:none;stroke-opacity:1;visibility:visible"/><path d="m260.932 768.12-.019.204M260.054 778.132l-.235 2.672" style="fill:none;stroke:red;stroke-width:.999997;stroke-linecap:round;stroke-linejoin:round;stroke-miterlimit:4;stroke-dasharray:none;stroke-opacity:1;visibility:visible"/><path d="m259.83 780.819 15.472 2.959M288.683 786.334l11.27 2.153" style="fill:none;stroke:red;stroke-width:1.99999;stroke-linecap:round;stroke-linejoin:round;stroke-miterlimit:4;stroke-dasharray:none;stroke-opacity:1;visibility:visible"/><path d="m250.38 890.673 2.61-1.628" style="fill:none;stroke:red;stroke-width:.999997;stroke-linecap:round;stroke-linejoin:round;stroke-miterlimit:4;stroke-dasharray:none;stroke-opacity:1;visibility:visible"/><path d="m253.213 889.024-.084-.012-.076.007-.064.026" style="fill:none;stroke:red;stroke-width:1.99999;stroke-linecap:round;stroke-linejoin:round;stroke-miterlimit:4;stroke-dasharray:none;stroke-opacity:1;visibility:visible"/><path d="m268.708 893.03.645.167" style="fill:none;stroke:red;stroke-width:.666665;stroke-linecap:round;stroke-linejoin:round;stroke-miterlimit:4;stroke-dasharray:none;stroke-opacity:1;visibility:visible"/><path d="m270.697 893.544 10.076 2.605" style="fill:none;stroke:red;stroke-width:.666665;stroke-linecap:round;stroke-linejoin:round;stroke-miterlimit:4;stroke-dasharray:1.388,1.388;stroke-dashoffset:0;stroke-opacity:1;visibility:visible"/><path d="m281.443 896.322.644.167" style="fill:none;stroke:red;stroke-width:.666665;stroke-linecap:round;stroke-linejoin:round;stroke-miterlimit:4;stroke-dasharray:none;stroke-opacity:1;visibility:visible"/><path d="m253.213 889.024 15.495 4.005M282.09 896.489l26.083 6.745M243.38 959.334l2.639-1.896M268.176 590.341l2.953-.545M247.022 956.407l-.143.197-.153.188-.164.179-.173.165-.18.158-.19.144M233.885 954.006l2.05-24.807M238.951 892.723l24.695-298.65M271.13 589.796l.308-.048.315-.03.313-.014.315.003.317.02.316.036.312.054.308.07.304.085.304.101.3.118.293.133.291.15.284.16.283.182.276.193.268.21.262.222.254.236.244.247.234.26.228.276.218.285.206.299.199.308.185.319.171.326.161.334.135.31.124.316.113.322.102.324M247.132 956.1l1.573-17.736M263.945 766.646l7.897-88.974M273.195 662.418l5.907-66.53M247.132 956.1l-.001.004v.003l-.002.004v.013l-.001.003v.002l-.001.004v.01l-.002.005-.001.003v.009l-.001.003-.002.004v.005l-.001.004-.001.003v.004l-.002.001-.001.004v.007l-.001.002-.002.004v.003l-.002.005-.002.002v.002l-.001.004-.001.003v.004l-.002.003-.001.004v.008l-.001.002-.002.004v.003l-.001.003-.001.004-.002.002-.001.006v.001l-.003.003v.004l-.001.002-.001.003-.002.004-.001.003-.001.004-.002.002-.001.003-.001.003-.002.002-.001.003-.001.004-.002.003-.001.002-.001.003-.002.004-.001.003-.001.002-.002.003-.002.004v.003l-.003.002-.001.004-.002.003-.001.003-.001.002-.004.004v.002l-.003.002-.001.003-.002.004v.003l-.001.002-.001.004-.003.003v.003l-.003.002-.002.002v.004l-.003.002-.003.003v.003l-.002.002-.003.004-.001.003-.002.003-.002.002-.002.002M233.912 954.252l-.001-.003v-.002l-.002-.003-.001-.003v-.004l-.001-.002-.002-.002v-.005l-.001-.003-.001-.001v-.005l-.002-.004-.001-.003v-.003l-.001-.002-.002-.003v-.008l-.001-.003-.001-.002v-.007l-.002-.003-.001-.002v-.01l-.003-.001-.001-.003v-.01l-.001-.003v-.003l-.002-.001v-.013l-.001-.003v-.035l-.001-.001v-.076l.001-.003v-.012M263.645 594.073v-.008l.001-.004v-.003l.002-.002v-.016l.001-.003v-.004l.001-.003v-.009l.002-.003.001-.002v-.01l.001-.002.002-.003v-.01l.001-.003.001-.002v-.008l.002-.002.001-.002v-.008l.001-.002.002-.003v-.005l.001-.003.001-.004v-.003l.002-.002.001-.004v-.004l.001-.002.002-.001v-.008l.001-.003v-.006l.001-.003v-.003l.002-.002.001-.003v-.003l.001-.002.003-.003v-.004l.001-.003.002-.002.001-.003.001-.004v-.003l.002-.002.001-.002.001-.002.002-.006v-.002l.001-.002.001-.002.002-.004.001-.004v-.002l.003-.002v-.003l.002-.003v-.002l.002-.004.001-.003.001-.003.002-.002.001-.004.001-.002.002-.004.001-.002.001-.003.002-.003.001-.001.001-.003.002-.002.001-.004.001-.004.002-.002.001-.002.001-.003.002-.003v-.002l.001-.003M279.072 595.603v.003l.001.002.002.003v.004l.001.003.001.002v.007l.002.001.001.003v.005l.001.003.002.003v.006l.001.003.001.003v.004l.002.004.001.002v.007l.001.003v.001l.002.004v.005l.001.002v.004l.001.002v.008l.002.004v.003l.001.004v.007l.001.002v.003l.002.004v.015l.001.002v.048l.001.003v.05l-.001.003v.039" style="fill:none;stroke:red;stroke-width:1.99999;stroke-linecap:round;stroke-linejoin:round;stroke-miterlimit:4;stroke-dasharray:none;stroke-opacity:1;visibility:visible"/><path d="m243.38 959.334-.196.133-.205.12-.214.11-.218.097-.224.083-.231.072-.233.058-.236.046-.24.033-.246.019-.245.008-.25-.006-.249-.018-.252-.03-.261-.044-.263-.056-.265-.07-.26-.083-.261-.095-.259-.105-.257-.12-.262-.135-.258-.144-.256-.158-.252-.171-.248-.18-.242-.19-.237-.202-.23-.21-.226-.22-.219-.231-.21-.239-.204-.248-.195-.253-.185-.26-.178-.267-.169-.27-.156-.28-.148-.283-.14-.284-.124-.291-.116-.292-.077-.213-.072-.214M263.731 593.78l.172-.308.185-.3.199-.29.21-.275.223-.264.232-.251.243-.235.247-.217.257-.203.264-.188.275-.174.281-.158.288-.141.29-.127.267-.097.267-.083.272-.072.273-.057M312.859 985.361l4.32 1.324M315.713 603.858l.01-.393.018-.392.03-.396.035-.395.046-.395.057-.39.065-.384.072-.376.082-.37.088-.366.096-.359.104-.352.112-.345.118-.334.128-.329.134-.32.144-.31.148-.298.154-.288.164-.273.167-.26.177-.255.184-.239.194-.226.196-.21.202-.193.21-.177.214-.16.222-.143.229-.125.233-.104.24-.086.243-.061M310.923 981.037l.315-24.91M311.331 948.738l.199-15.701M311.796 912.211l1.439-113.278M313.455 781.601l1.183-93.06M314.856 671.326l.857-67.468M324.908 593.586h.008l.003-.003h.013l.001-.002h.003l.001-.002h.007l.003-.001h.008l.002-.001h.006l.002-.002h.011l.003-.001H325l.003-.003h.108M312.859 985.361l-.164-.059-.159-.074-.153-.087-.145-.101-.136-.115-.13-.125-.124-.142-.116-.152-.108-.161-.097-.17-.09-.18-.083-.19-.08-.212-.071-.221-.064-.231-.056-.241-.047-.248-.038-.258-.031-.262-.024-.266-.013-.269-.007-.277v-.283M319.584 985.974l-.195.155-.196.14-.198.128-.204.109-.206.09-.208.074-.209.055-.167.028-.166.013-.167.001-.167-.013-.164-.027-.158-.042M330.057 593.935h.013l.011.001.01.003.013.001.01.002.011.001.013.003.01.002.01.002.012.002.012.003.011.003.01.004.011.001.011.004.012.003.01.005.009.003.012.004.01.005.011.003.01.005.009.005.012.006.01.004.011.005.01.004.011.007.008.005.011.007.01.005.01.004.01.008.007.007.011.006.01.006.009.008.009.006.01.008.006.006.01.008.009.008.008.008.009.006.01.008.007.01.006.006.009.01.008.008.008.009.008.007.008.009.007.01.005.009.008.009.008.01.005.007.008.01.006.01.008.01.005.009.007.01.004.009.006.01.006.011.005.01.005.01.006.01.005.011.005.01.006.01.004.012.004.011.002.01.006.01.004.012.004.01.004.013.002.009.004.012.003.01.004.013.003.012.002.009.003.012.001.012.003.012.001.01.003.011.001.012.002.012.001.012.001.011v.012l.002.012v.057M319.584 985.974l4.092-3.49M323.91 981.989l.815-46.161M324.808 931.217l5.944-336.504M323.91 981.989l-.001.005v.018l-.002.005v.016l-.001.007v.005l-.001.007v.01l-.003.006v.01l-.001.006-.002.006v.006l-.002.005v.007l-.002.005-.001.005-.001.006-.002.005-.002.005-.002.006-.001.005-.001.007-.002.004-.001.006v.006l-.001.005-.002.005-.002.006-.002.005-.001.007-.003.004-.001.005-.001.005-.003.004-.003.007-.001.005-.003.006-.001.005-.003.004-.002.005-.003.006-.003.005-.002.007-.002.004-.002.005-.003.005-.003.006-.004.004-.002.005-.002.004-.001.005-.003.006-.004.004-.002.005-.003.005-.003.006-.002.004-.003.005-.004.005-.004.004-.003.004-.002.004-.003.007-.004.004-.004.005-.003.006-.005.002-.003.006-.001.004-.003.004-.005.005-.003.004-.004.004-.004.004-.002.004-.004.004-.004.005-.004.004-.004.004-.004.004-.004.004-.006.004-.004.004-.001.004-.004.004-.004.004-.004.003-.005.004-.003.005-.005.003-.004.004-.004.005-.006.003M268.15 1028.074l-4.53-1.544M295.475 601.266l-5.124-.407M285.313 606.25l-23.552 417.764M261.789 1024.265v-.001l-.001-.003-.002-.004v-.004l-.001-.001-.001-.003v-.007l-.002-.002h-.001v-.008l-.001-.003-.002-.003v-.005l-.001-.001v-.003l-.001-.003v-.005l-.002-.003v-.001l-.001-.004v-.005l-.001-.003v-.004l-.002-.003v-.006l-.002-.003v-.003l-.002-.002v-.01l-.001-.004v-.002l-.001-.002v-.014l-.002-.003v-.005l-.001-.003v-.113M285.313 606.25h0l.001-.004v-.024l.002-.001v-.006h.001v-.016l.001-.002v-.003l.002-.004v-.012l.001-.001v-.002l.001-.002v-.011l.002-.004v-.001l.001-.002v-.009h.001v-.003l.002-.001v-.008l.001-.003v-.001l.001-.001v-.007l.002-.003v-.001l.001-.001v-.006l.001-.002v-.002l.002-.004v-.004l.001-.002v-.002l.001-.002v-.006h.002v-.002l.001-.002v-.013l.001-.003v-.001l.002-.003v-.002l.001-.003.003-.001v-.002M263.62 1026.53l-.16-.061-.157-.075-.154-.087-.142-.097-.138-.11-.132-.12-.124-.129-.138-.166-.13-.179-.12-.19-.109-.202-.1-.21-.09-.223-.071-.204-.066-.212M285.348 606.054l.12-.376.13-.368.137-.357.145-.35.156-.336.163-.324.169-.31.175-.295.184-.283.192-.268.196-.254.205-.239.21-.221.215-.207.226-.19.233-.175.239-.156.245-.136.25-.116.255-.094.258-.072.222-.042.227-.027.225-.008.226.01M274.609 1021.149l-.104.352-.112.35-.12.346-.13.344-.133.337-.14.336-.146.327-.148.315-.159.309-.161.301-.167.295-.17.284-.173.277-.178.266-.186.257-.189.25-.19.235-.2.226-.195.212-.202.198-.202.187-.211.177-.215.162-.216.148-.218.133-.222.115-.222.097-.224.08-.219.06-.22.043-.221.021-.222.004-.218-.019-.216-.04-.21-.06M295.475 601.266l.21.024.206.039.208.056.201.072.198.085.192.099.188.112.213.149.205.168.2.183.19.201.181.213.172.23.164.24.153.253.147.265.139.282.129.292.121.301.111.312.103.31.092.32.082.326.078.339.068.342M274.637 1020.989h0v.001l-.001.004v.008l-.002.002v.018l-.001.002v.006h-.001v.014l-.002.001v.003l-.001.002v.012l-.001.002v.004l-.002.001v.007l-.001.001v.004l-.001.003v.006l-.002.003v.003h-.001v.006l-.001.003v.001l-.002.003v.007l-.002.001v.001l-.002.002v.006l-.001.002-.001.001v.005l-.002.003v.003h-.001v.009M299.425 606.479h0l.001.004v.007l.002.001v.004l.001.003v.01l.001.003v.001l.002.003v.015h.001v.004l.001.002v.016l.002.003v.005l.001.002v.03l.001.002v.022l.002.002v.021l-.002.003v.022l-.001.002v.01M299.437 606.677l-24.801 414.31" style="fill:none;stroke:red;stroke-width:1.99999;stroke-linecap:round;stroke-linejoin:round;stroke-miterlimit:4;stroke-dasharray:none;stroke-opacity:1;visibility:visible"/><path d="m315.447 913.043-3.307-.87" style="fill:none;stroke:red;stroke-width:.999997;stroke-linecap:round;stroke-linejoin:round;stroke-miterlimit:4;stroke-dasharray:none;stroke-opacity:1;visibility:visible"/><path d="m311.637 912.305.104-.065.104-.046.1-.026.103-.01.092.016M278.825 954.187l-.097.065-.099.052M316.761 925.727l-.007.028-.021.024M279.766 935.29l31.87-22.987" style="fill:none;stroke:red;stroke-width:1.99999;stroke-linecap:round;stroke-linejoin:round;stroke-miterlimit:4;stroke-dasharray:none;stroke-opacity:1;visibility:visible"/><path d="m316.761 925.727.052-3.544" style="fill:none;stroke:red;stroke-width:.999997;stroke-linecap:round;stroke-linejoin:round;stroke-miterlimit:4;stroke-dasharray:none;stroke-opacity:1;visibility:visible"/><path d="m314.066 927.78 2.668-2M292.245 944.13l16.927-12.685M278.825 954.187l8.161-6.116" style="fill:none;stroke:red;stroke-width:1.99999;stroke-linecap:round;stroke-linejoin:round;stroke-miterlimit:4;stroke-dasharray:none;stroke-opacity:1;visibility:visible"/><path d="m318.213 782.356-4.396-.815" style="fill:none;stroke:red;stroke-width:.999997;stroke-linecap:round;stroke-linejoin:round;stroke-miterlimit:4;stroke-dasharray:none;stroke-opacity:1;visibility:visible"/><path d="m313.426 781.615.101-.044.099-.028.1-.01.09.007M287.147 812.972l-.03.016-.03.013M318.66 795.93l-.01.05-.025.043-.044.034M288.195 794.484l25.232-12.868" style="fill:none;stroke:red;stroke-width:1.99999;stroke-linecap:round;stroke-linejoin:round;stroke-miterlimit:4;stroke-dasharray:none;stroke-opacity:1;visibility:visible"/><path d="m318.66 795.93.045-3.181" style="fill:none;stroke:red;stroke-width:.999997;stroke-linecap:round;stroke-linejoin:round;stroke-miterlimit:4;stroke-dasharray:none;stroke-opacity:1;visibility:visible"/><path d="m287.147 812.972 31.436-16.916" style="fill:none;stroke:red;stroke-width:1.99999;stroke-linecap:round;stroke-linejoin:round;stroke-miterlimit:4;stroke-dasharray:none;stroke-opacity:1;visibility:visible"/><path d="m320.093 671.84-4.861-.583M314.967 671.29l.092-.024.09-.01.082.002M320.465 672.334l-.008-.112-.024-.101-.041-.09-.056-.072-.068-.057-.082-.04-.092-.021" style="fill:none;stroke:red;stroke-width:.999997;stroke-linecap:round;stroke-linejoin:round;stroke-miterlimit:4;stroke-dasharray:none;stroke-opacity:1;visibility:visible"/><path d="m320.261 686.362-.01.073-.03.062-.048.048-.065.033" style="fill:none;stroke:red;stroke-width:1.99999;stroke-linecap:round;stroke-linejoin:round;stroke-miterlimit:4;stroke-dasharray:none;stroke-opacity:1;visibility:visible"/><path d="m320.261 686.362.04-2.784" style="fill:none;stroke:red;stroke-width:.999997;stroke-linecap:round;stroke-linejoin:round;stroke-miterlimit:4;stroke-dasharray:none;stroke-opacity:1;visibility:visible"/><path d="m294.096 695.912 26.012-9.335M320.109 593.443l-2.813.576M311.583 601.833l-.804 70.842M310.585 689.995l-1.06 93.61M309.327 801.034l-1.288 113.865M307.84 932.443l-.173 15.355M307.588 954.912l-.221 19.39M311.583 601.833l.012-.392.027-.39.044-.389.06-.385.077-.381.09-.375.106-.37.12-.353.133-.349.148-.341.16-.332.178-.323.189-.313.2-.3.21-.287.225-.277.237-.264.248-.252.259-.239.266-.221.276-.207.283-.19.29-.177.3-.16.305-.144.31-.126.319-.111.32-.092.319-.075M310.921 981.187l-.028-.021-.259-.208-.252-.219-.245-.228-.239-.237-.226-.247-.222-.253-.209-.263-.203-.27-.194-.278-.18-.283-.171-.289-.16-.292-.15-.296-.137-.303-.125-.305-.113-.308-.1-.31-.091-.31-.073-.31-.056-.278-.046-.277-.034-.278-.024-.276-.015-.274-.001-.272M320.109 593.443l.34-.063.344-.04.344-.021.35-.004.346.017M323.799 593.475l.005.001h.023l.004.003h.012l.005.003h.007l.005.001h.006l.006.001.006.002.004.001.004.001h.012l.005.002.007.001.005.001.005.003.007.001.005.002.006.001.002.001.007.003h.005l.006.003h.005l.005.002.006.002.005.001.005.004h.006l.004.003.004.001.006.001.006.003.005.001.005.003.006.003.005.001.005.001.006.004.005.002.003.002.005.003.007.001.005.004.005.003.006.001.004.003.005.003.005.001.004.003.006.002.002.004.006.003.006.003.004.002.006.003.004.004.005.003.005.002.006.002.004.005.004.003.005.002.003.003.004.004.006.004.004.003.006.004.004.002.004.003.005.004.005.003.004.004.004.002.006.004.001.004.004.004.007.003.002.004.006.003.004.005.004.004.005.004.003.003.005.005.004.004.004.003.004.004.004.005.001.003.004.002.006.006.004.004.004.002" style="fill:none;stroke:red;stroke-width:1.99999;stroke-linecap:round;stroke-linejoin:round;stroke-miterlimit:4;stroke-dasharray:none;stroke-opacity:1;visibility:visible"/><path d="m272.964 893.47-.57.345" style="fill:none;stroke:red;stroke-width:.666665;stroke-linecap:round;stroke-linejoin:round;stroke-miterlimit:4;stroke-dasharray:none;stroke-opacity:1;visibility:visible"/><path d="m320.093 671.841.977-67.497" style="fill:none;stroke:red;stroke-width:.999997;stroke-linecap:round;stroke-linejoin:round;stroke-miterlimit:4;stroke-dasharray:none;stroke-opacity:1;visibility:visible"/><path d="M330.002 605.748c0 1.05-.417 1.903-.935 1.903-.516-.001-.933-.852-.933-1.903 0-1.052.416-1.903.933-1.903.518 0 .935.851.935 1.903M327.671 739.94c-.177 1.006-.721 1.752-1.216 1.666-.494-.086-.753-.974-.575-1.981.177-1.007.721-1.753 1.213-1.667.496.087.756.974.577 1.982h.001" style="fill:none;stroke:red;stroke-width:.666665;stroke-linecap:round;stroke-linejoin:round;stroke-miterlimit:4;stroke-dasharray:none;stroke-opacity:1;visibility:visible"/><path d="m329.39 605.341-.63.442.598.577M325.54 862.52c-.176 1.008-.72 1.754-1.214 1.668-.496-.087-.756-.975-.577-1.982.177-1.007.72-1.753 1.214-1.667.495.087.755.974.578 1.982l-.001-.001M327.154 739.445l-.677.317.473.654M323.623 975.019c-.177 1.008-.721 1.753-1.216 1.667-.494-.087-.753-.976-.576-1.98.179-1.008.722-1.756 1.215-1.667.494.085.754.973.577 1.98" style="fill:none;stroke:red;stroke-width:.666665;stroke-linecap:round;stroke-linejoin:round;stroke-miterlimit:4;stroke-dasharray:none;stroke-opacity:1;visibility:visible"/><path d="m325.022 862.026-.677.317.474.654M323.106 974.526l-.677.317.474.653" style="fill:none;stroke:red;stroke-width:.666665;stroke-linecap:round;stroke-linejoin:round;stroke-miterlimit:4;stroke-dasharray:none;stroke-opacity:1;visibility:visible"/><path d="m273.091 662.424 8.929 2.246M315.232 671.257l-4.399-3.177M282.02 664.67l13.846 1.64" style="fill:none;stroke:red;stroke-width:.999997;stroke-linecap:round;stroke-linejoin:round;stroke-miterlimit:4;stroke-dasharray:none;stroke-opacity:1;visibility:visible"/><path d="m270.215 663.273 11.872.207" style="fill:none;stroke:red;stroke-width:1.99999;stroke-linecap:round;stroke-linejoin:round;stroke-miterlimit:4;stroke-dasharray:none;stroke-opacity:1;visibility:visible"/><path d="m271.842 677.672 4.634-5.828" style="fill:none;stroke:red;stroke-width:.999997;stroke-linecap:round;stroke-linejoin:round;stroke-miterlimit:4;stroke-dasharray:none;stroke-opacity:1;visibility:visible"/><path d="m313.817 781.541-4.195-6.543M276.044 770.666l13.537.684M289.58 771.35l-13.437-2.446" style="fill:none;stroke:red;stroke-width:1.99999;stroke-linecap:round;stroke-linejoin:round;stroke-miterlimit:4;stroke-dasharray:none;stroke-opacity:1;visibility:visible"/><path d="m263.842 766.664 12.202 4.002M313.817 781.541l-4.215-4.731M276.044 770.666l13.429 2.46M260.053 778.132l8.148-1.579" style="fill:none;stroke:red;stroke-width:.999997;stroke-linecap:round;stroke-linejoin:round;stroke-miterlimit:4;stroke-dasharray:none;stroke-opacity:1;visibility:visible"/><path d="m259.82 780.804 2.723.533" style="fill:none;stroke:red;stroke-width:1.99999;stroke-linecap:round;stroke-linejoin:round;stroke-miterlimit:4;stroke-dasharray:none;stroke-opacity:1;visibility:visible"/><path d="m316.761 925.727-.458 7.643M286.986 948.071l-7.528-7.662M287.147 812.972l.83-14.83M299.952 788.487l-7.647 14.198M281.221 678.86l18.276 7.207" style="fill:none;stroke:red;stroke-width:.999997;stroke-linecap:round;stroke-linejoin:round;stroke-miterlimit:4;stroke-dasharray:none;stroke-opacity:1;visibility:visible"/><path d="m316.934 913.924-11.315 2.72M273.091 662.424l8.13 16.436M288.683 786.334l-13.381-2.556M275.302 783.778l13.381 2.556M313.817 781.541l-13.865 6.946" style="fill:none;stroke:red;stroke-width:1.99999;stroke-linecap:round;stroke-linejoin:round;stroke-miterlimit:4;stroke-dasharray:none;stroke-opacity:1;visibility:visible"/><path d="m269.353 893.197 1.344.347" style="fill:none;stroke:red;stroke-width:.666665;stroke-linecap:round;stroke-linejoin:round;stroke-miterlimit:4;stroke-dasharray:1.388,1.388;stroke-dashoffset:0;stroke-opacity:1;visibility:visible"/><path d="m312.14 912.174-3.967-8.94M250.177 890.95l-11.226 1.773M268.884 677.26l2.958.412M311.331 948.738l-.093 7.39M307.588 954.912l3.743-6.174M305.481 928.797l6.049 4.24M318.66 795.93l-5.425 3.003M320.261 686.362l-5.623 2.18M324.808 931.217l-.083 4.61M324.725 935.828l.083-4.611M286.986 948.071l-7.22-12.781M309.172 931.445l4.894-3.665M286.986 948.071l5.259-3.941M314.066 927.78l-4.894 3.665M292.245 944.13l-5.259 3.941M287.147 812.972l1.048-18.488M320.465 672.348l-9.686.327M310.921 683.249l-.336 6.746M318.846 782.951l-9.321.654M305.28 797.14l4.047 3.894M316.934 913.924l-8.895.975M305.481 928.797l2.359 3.646M307.588 954.912l.079-7.114M307.667 947.798l-.079 7.114" style="fill:none;stroke:red;stroke-width:1.99999;stroke-linecap:round;stroke-linejoin:round;stroke-miterlimit:4;stroke-dasharray:none;stroke-opacity:1;visibility:visible"/><path d="m252.99 889.045 19.405 4.77" style="fill:none;stroke:red;stroke-width:.666665;stroke-linecap:round;stroke-linejoin:round;stroke-miterlimit:4;stroke-dasharray:none;stroke-opacity:1;visibility:visible"/><path d="m281.415 907.752 10.359 18.88" style="fill:none;stroke:#00ff4a;stroke-width:1.99999;stroke-linecap:round;stroke-linejoin:round;stroke-miterlimit:4;stroke-dasharray:none;stroke-opacity:1;visibility:visible" visibility="hidden"/><path d="m281.665 903.579 11.639 20.99M297.567 903.678l-15.664-4.08M259.75 940l.02 2.941M238.216 893.694l.039 2.696M238.851 893.033l21.607 46.24M260.458 939.273l1.159.425 1.177.419 1.192.41 1.212.4 1.227.393M238.204 893.645l.004.027.008.022M260.458 939.273l-.139.027-.133.052-.123.074-.108.092-.086.108-.064.119-.042.127-.012.129M259.77 942.941l.013.121.039.115M256.794 893.885l.021 2.697M268.965 896.229l-11.533-3.003M257.432 893.225l10.539 20.63M256.794 893.885l.013-.12.035-.115.059-.109.078-.099.098-.084.11-.065.12-.045.126-.023M256.815 896.583l-.01-.027-.003-.026M257.432 893.225l.059-.03.057-.011.055.004M228.349 911.031l.027.652.052.656.077.656.104.655.133.656.159.656.185.657.214.656.24.657.268.655.292.656.322.655.347.653.379.65.4.653.433.648.455.646.486.644.511.642.54.638.567.639.592.632.62.63.645.626.673.623.698.618.725.615.755.61.778.605.804.602.828.594.858.59.88.584.906.579.932.573.956.567.979.559 1.005.554 1.03.547 1.052.54 1.074.53 1.1.526 1.12.516 1.146.51 1.166.5M255.861 938.542l.11.037.126.03.135.016.141.002.139-.008.134-.021.124-.03.107-.045.088-.05.065-.056.04-.063.014-.063M307.304 906.5l-9.05-2.359M256.955 893.378l-2.343-.61" style="fill:none;stroke:#00ff4a;stroke-width:.999997;stroke-linecap:round;stroke-linejoin:round;stroke-miterlimit:4;stroke-dasharray:none;stroke-opacity:1;visibility:visible" visibility="hidden"/><path d="m305.542 916.455-7.403-12.507M243.822 889.6l10.297 2.683M254.539 892.62l13.16 26.073M243.313 889.678l.004-.003.005-.002.006-.003.004-.003.004-.002.005-.003.003-.004.006-.003.004-.001.004-.003.006-.001.005-.004.005-.001.004-.003.004-.003.006-.001.005-.003.003-.002.006-.003.006-.001.004-.003h.005l.004-.004h.005l.006-.003.005-.001.005-.001.006-.003.004-.001.004-.002.005-.002.005-.002.006-.001.005-.001.005-.003.004-.001h.006l.005-.002.005-.001.006-.001.002-.002.007-.001h.005l.006-.003.005-.001h.005l.006-.001.005-.002h.005l.006-.001.002-.001h.018l.005-.003h.021l.006-.003h.016l.005-.001h.048l.005.001h.022l.005.003h.019l.006.003h.011l.005.001h.006l.005.001h.005l.006.002.005.001.004.001.004.003h.012l.005.001.006.002.005.001.005.001M238.45 893.122l.561-.445.576-.442.588-.437.603-.433.615-.43.628-.422.64-.419.65-.416M238.204 893.645v-.03l.001-.005v-.024l.002-.005v-.008l.001-.005v-.012l.003-.006v-.012l.002-.005v-.005l.002-.007.001-.005v-.007l.003-.005v-.007l.002-.005v-.007l.003-.005v-.006l.003-.005.001-.008.001-.004.003-.007v-.01l.003-.007.001-.004.001-.008.004-.004.003-.005.001-.007.002-.005.002-.006.003-.004.003-.008.002-.004.003-.005.001-.005.003-.007.003-.005.002-.006.003-.005.003-.005.002-.006.004-.005.003-.007.003-.002v-.007l.002-.004.003-.005.005-.007.003-.004.004-.005.003-.006.002-.004.004-.005.004-.007.003-.004.004-.005.004-.004.003-.005.004-.004.004-.006.002-.005.002-.004.004-.005.004-.004.005-.006.004-.005.004-.004.004-.005.004-.003.004-.004.004-.005.004-.004.004-.006.005-.004.004-.004.002-.004.005-.005.004-.005.005-.002.006-.005.004-.004.004-.003.005-.004.004-.004.004-.005.005-.003.006-.004M266.182 945.617l-.713-.23-1.076-.354-1.062-.36-1.048-.368-1.036-.373-1.021-.379M258.24 939.754l1.583 3.424M260.226 943.553l-.005-.003-.006-.002-.005-.003h-.007l-.005-.001-.003-.004-.005-.002-.005-.002-.006-.003-.005-.003-.005-.001-.006-.003-.005-.001-.005-.004-.007-.003-.003-.001-.004-.003-.005-.004-.005-.002-.004-.003-.006-.003-.005-.002-.005-.003-.006-.005-.004-.002-.006-.002-.004-.003-.003-.003-.005-.004-.006-.004-.004-.001-.004-.003-.005-.005-.005-.003-.004-.002-.004-.004-.006-.003-.006-.004-.004-.004-.002-.003-.005-.004-.004-.004-.004-.002-.005-.003-.004-.005-.004-.004-.006-.003-.004-.004-.004-.005-.004-.002-.005-.004-.005-.004v-.004l-.006-.005-.002-.004-.006-.005-.004-.002-.004-.005-.004-.003-.004-.005-.002-.004-.006-.004-.002-.005-.004-.003-.006-.005-.004-.004-.002-.004-.002-.006-.004-.004-.004-.004-.002-.005-.004-.004-.004-.005-.003-.003-.004-.005-.004-.006-.003-.004-.002-.004-.004-.005-.003-.005-.004-.003-.004-.007-.003-.004-.002-.005-.002-.005-.002-.004-.004-.004-.003-.006-.003-.005-.002-.005-.003-.004-.003-.004-.002-.008-.003-.004-.003-.006-.002-.005-.003-.004-.003-.005-.002-.004-.003-.006M237.296 895.231l19.72 42.757M228.349 911.031v-.52l.015-.523.029-.516.047-.518.065-.519.079-.515.096-.514.109-.511.128-.51.141-.509.156-.506.175-.504.19-.502.202-.498.219-.496.232-.494.25-.492.262-.489.277-.488.292-.484.307-.48.318-.477.335-.476.35-.472.363-.468.375-.464.376-.446.388-.444.401-.441.411-.436.428-.433.437-.431.448-.427M257.016 937.989l.001.003.002.004.001.002.001.004.002.003.001.003.001.002.002.003.001.004.001.001.002.003v.003l.002.004v.002l.002.003.001.004.001.003.002.002v.003l.002.001v.004l.002.004.001.003v.01l.001.002.002.003v.001l.001.004.001.003v.004l.003.002.001.003v.004l.002.003.001.002v.003l.001.001.002.006v.002l.001.003.001.004v.005l.003.003v.005l.001.003.002.004v.005l.001.004.001.003v.007l.002.001.001.005v.01l.001.002.002.003v.008l.001.004v.004l.001.003v.009l.002.003v.002l.001.004v.016l.001.003v.007l.002.001v.032l.001.004v.015M236.25 895.028l.01-.008.009-.008.009-.008.01-.008.01-.008.01-.008.01-.007.01-.008.009-.005.012-.007.01-.008.011-.005.012-.007.008-.005.013-.007.011-.005.012-.005.012-.004.008-.007.013-.004.012-.004.012-.004.012-.004.01-.005.013-.003.013-.003.012-.004.012-.004.012-.002.012-.002.012-.001.014-.003.009-.001.013-.003h.014l.013-.001.012-.001h.073l.014.001.013.001.012.002.01.001.014.001.012.003.012.003.01.002.014.003.012.003.013.002.012.004.011.004.012.004.012.004.012.003.01.005.011.004.014.006.01.005.011.005.01.004.013.008.01.006.011.006.01.007.011.005.01.007.01.008.011.007.01.008.01.006.007.01.012.008.009.006.01.008.009.008.009.011.007.007.01.009.008.01.008.009.008.01.008.01.008.01.006.008.009.011.007.01.006.011.008.01.006.012.008.01.005.01.004.012.008.01.005.012.006.01M257.084 938.29l.023 2.93M256.101 941.903l-.919-.397-.906-.402-.895-.408-.879-.41-.869-.418-.85-.421-.837-.428-.822-.43-.81-.437-.794-.441-.778-.444-.761-.447-.747-.453-.732-.455-.716-.458-.701-.466-.684-.465-.67-.47-.658-.475-.636-.478-.623-.481-.608-.485-.589-.487-.576-.49-.557-.493-.542-.494-.526-.499-.51-.501-.496-.504-.476-.508-.46-.508-.445-.511-.428-.515-.413-.516-.392-.517-.378-.52-.36-.52-.344-.523-.326-.524-.312-.524-.29-.525-.276-.528-.26-.528-.24-.528-.226-.532-.21-.53-.19-.534-.175-.533-.157-.534-.143-.533-.12-.533-.107-.534-.078-.465-.068-.464-.052-.468-.042-.464-.028-.463-.013-.464M257.106 941.222v.044l-.001.015-.002.013-.001.015-.001.013-.003.016-.003.013-.002.015-.003.013-.003.015-.005.013-.004.015v.013l-.005.015-.006.015-.004.012-.005.014-.005.014-.006.013-.006.012-.006.013-.008.014-.004.013-.008.013-.006.014-.007.012-.008.012-.008.012-.008.01-.01.012-.007.012-.008.012-.01.012-.009.01-.01.01-.01.012-.008.011-.01.01-.011.01-.011.01-.01.01-.01.01-.01.009-.013.009-.012.008-.01.01-.012.007-.011.008-.013.008-.012.008-.014.008-.01.007-.014.008-.013.004-.013.008-.012.007-.014.005-.013.007-.013.005-.012.005-.014.004-.014.004-.015.004-.012.006-.013.001-.015.005-.015.006-.012.001-.016.003-.013.002-.015.002-.013.002-.015.002-.014.001-.015.001h-.013l-.015.002h-.015l-.014-.002h-.028l-.015-.001-.016-.001-.012-.002-.013-.002-.016-.003-.014-.001-.013-.004-.015-.003-.013-.003-.017-.005-.011-.001-.013-.006-.015-.005-.015-.004-.012-.004-.013-.007-.013-.004M267.97 913.856l13.445-6.104" style="fill:none;stroke:#00ff4a;stroke-width:1.99999;stroke-linecap:round;stroke-linejoin:round;stroke-miterlimit:4;stroke-dasharray:none;stroke-opacity:1;visibility:visible" visibility="hidden"/><path d="m267.97 913.856 13.695-10.277M268.965 896.229l12.938 3.369M228.349 911.031l9.906-14.641M260.226 943.553l6.199-2.233M281.903 899.598l-12.938-3.369M281.415 907.752l-13.444 6.104" style="fill:none;stroke:#00ff4a;stroke-width:.999997;stroke-linecap:round;stroke-linejoin:round;stroke-miterlimit:4;stroke-dasharray:none;stroke-opacity:1;visibility:visible" visibility="hidden"/><path d="m281.415 907.752-13.716 10.941M260.458 939.273l5.724 6.344M257.016 937.988l1.224 1.766M228.349 911.031l.052 2.79" style="fill:none;stroke:#00ff4a;stroke-width:1.99999;stroke-linecap:round;stroke-linejoin:round;stroke-miterlimit:4;stroke-dasharray:none;stroke-opacity:1;visibility:visible" visibility="hidden"/><path d="m299.497 686.067-4.145-11.149" style="fill:none;stroke:red;stroke-width:.999997;stroke-linecap:round;stroke-linejoin:round;stroke-miterlimit:4;stroke-dasharray:none;stroke-opacity:1;visibility:visible"/><path d="m305.481 928.797-13.707-2.165" style="fill:none;stroke:#00ff4a;stroke-width:1.99999;stroke-linecap:round;stroke-linejoin:round;stroke-miterlimit:4;stroke-dasharray:none;stroke-opacity:1;visibility:visible" visibility="hidden"/><path d="m305.481 928.797-12.177-4.229M312.14 912.174l-4.836-5.674" style="fill:none;stroke:#00ff4a;stroke-width:.999997;stroke-linecap:round;stroke-linejoin:round;stroke-miterlimit:4;stroke-dasharray:none;stroke-opacity:1;visibility:visible" visibility="hidden"/></svg>