<svg xmlns="http://www.w3.org/2000/svg" baseProfile="full" height="1122.52" preserveAspectRatio="xMinYMin meet" style="width:602px;height:832px" width="793.701" xml:space="preserve"><path d="m177.824 939.936.045 7.055 56.177 65.7 400.846-79.796V926" style="fill:none;stroke:red;stroke-width:1.99999;stroke-linecap:round;stroke-linejoin:round;stroke-miterlimit:4;stroke-dasharray:none;stroke-opacity:1;visibility:visible"/><path d="m178.094 940.23 55.92 64.87 400.023-78.936" style="fill:none;stroke:red;stroke-width:.999997;stroke-linecap:round;stroke-linejoin:round;stroke-miterlimit:4;stroke-dasharray:none;stroke-opacity:1;visibility:visible"/><path d="m624.025 918.38-63.27-44.22M227.746 930.936l-39.432 7.094M498.228 882.263l-256.573 46.168M550.847 872.795l-40.294 7.25" style="fill:none;stroke:red;stroke-width:1.99999;stroke-linecap:round;stroke-linejoin:round;stroke-miterlimit:4;stroke-dasharray:none;stroke-opacity:1;visibility:visible"/><path d="m227.742 934.407-39.817 7.193M499.72 885.247l-258.049 46.639M554.552 875.338l-44.012 7.952M624.232 924.376l-69.68-49.038" style="fill:none;stroke:red;stroke-width:.999997;stroke-linecap:round;stroke-linejoin:round;stroke-miterlimit:4;stroke-dasharray:none;stroke-opacity:1;visibility:visible"/><path d="m242.391 999.363 381.84-74.987M232.12 992.263l-44.196-50.664" style="fill:none;stroke:red;stroke-width:1.99999;stroke-linecap:round;stroke-linejoin:round;stroke-miterlimit:4;stroke-dasharray:none;stroke-opacity:1;visibility:visible"/><path d="m554.552 875.338-.03 6.487M234.046 1012.69l-.03-7.587" style="fill:none;stroke:red;stroke-width:.999997;stroke-linecap:round;stroke-linejoin:round;stroke-miterlimit:4;stroke-dasharray:none;stroke-opacity:1;visibility:visible"/><path d="m616.59 925.88-62.07-44.056M201.978 946.115l-8.73 1.592M227.853 941.395l-18.398 3.355M377.738 914.065 241.697 938.87M498.225 892.087 385.04 912.73M539.737 884.52l-29.22 5.33M554.521 881.825l-7.657 1.395" style="fill:none;stroke:red;stroke-width:1.99999;stroke-linecap:round;stroke-linejoin:round;stroke-miterlimit:4;stroke-dasharray:none;stroke-opacity:1;visibility:visible"/><path d="m178.349 939.92-.024-5.975.568-1.749.637-.136 1.84 2.09 4.475-.771" style="fill:none;stroke:red;stroke-width:1.33333;stroke-linecap:round;stroke-linejoin:round;stroke-miterlimit:4;stroke-dasharray:none;stroke-opacity:1;visibility:visible"/><path d="M184.322 933.491v-.545l-.25-1.659.636-.137 1.976 2.317.568 2.068v5.885" style="fill:none;stroke:red;stroke-width:1.33333;stroke-linecap:round;stroke-linejoin:round;stroke-miterlimit:4;stroke-dasharray:none;stroke-opacity:1;visibility:visible"/><path d="m181.053 934.514-.296 2.201.113 5.93 6.203-1.136" style="fill:none;stroke:red;stroke-width:.666665;stroke-linecap:round;stroke-linejoin:round;stroke-miterlimit:4;stroke-dasharray:none;stroke-opacity:1;visibility:visible"/><path d="M184.7 937.967c-.41.44-1.042.516-1.415.17-.372-.347-.34-.983.068-1.423.41-.44 1.041-.514 1.415-.169.372.344.342.983-.068 1.423v-.001" style="fill:none;stroke:red;stroke-width:.666665;stroke-linecap:round;stroke-linejoin:round;stroke-miterlimit:4;stroke-dasharray:none;stroke-opacity:1;visibility:visible"/><path d="m551.519 872.729-.024-5.442.55-1.593.615-.123 2.5 1.804 3.61-.605" style="fill:none;stroke:red;stroke-width:1.33333;stroke-linecap:round;stroke-linejoin:round;stroke-miterlimit:4;stroke-dasharray:none;stroke-opacity:1;visibility:visible"/><path d="M556.527 866.922v-.496l-.195-1.487.613-.122 2.659 1.858.53 2.06v5.36" style="fill:none;stroke:red;stroke-width:1.33333;stroke-linecap:round;stroke-linejoin:round;stroke-miterlimit:4;stroke-dasharray:none;stroke-opacity:1;visibility:visible"/><path d="m554.97 867.76-.17 1.836.027 5.446 5.13-.867M234.933 995.37c.412-.284.932-.291 1.26.014.392.362.361 1.031-.07 1.492a1.22 1.22 0 0 1-.938.407M538.79 881.427l4.603-.825 2.207 1.604.043 1.041s.053.664-2.104.918c-1.419.165-2.896-.626-2.896-.626l-1.853-1.359v-.753M376.791 910.82l4.91-.926 2.006 1.836-.023.988s.056.85-2.144 1.036c-2.325.196-3.077-.655-3.077-.655l-1.672-1.517v-.762M201.185 942.727l5.354-1 1.624 1.917-.02 1s-.125.896-2.333 1.208c-2.208.312-3.188-.729-3.188-.729l-1.437-1.625v-.771" style="fill:none;stroke:red;stroke-width:.666665;stroke-linecap:round;stroke-linejoin:round;stroke-miterlimit:4;stroke-dasharray:none;stroke-opacity:1;visibility:visible"/><path d="M558.265 870.64c-.28.464-.835.663-1.242.448-.403-.214-.506-.761-.227-1.222.281-.461.837-.661 1.244-.447.407.212.507.762.225 1.222v-.001" style="fill:none;stroke:red;stroke-width:.666665;stroke-linecap:round;stroke-linejoin:round;stroke-miterlimit:4;stroke-dasharray:none;stroke-opacity:1;visibility:visible"/><path d="M231.733 1001.698v-6.468l.516-1.851 6.101-1.245 2.428 2.734.517 2.276.03 6.223" style="fill:none;stroke:red;stroke-width:1.33333;stroke-linecap:round;stroke-linejoin:round;stroke-miterlimit:4;stroke-dasharray:none;stroke-opacity:1;visibility:visible"/><path d="m233.129 993.531 2.094 2.399-.302 2.489.089 6.193" style="fill:none;stroke:red;stroke-width:1.33333;stroke-linecap:round;stroke-linejoin:round;stroke-miterlimit:4;stroke-dasharray:none;stroke-opacity:1;visibility:visible"/><path d="M431.308 896.134c0 .236-.466.426-1.041.426-.577 0-1.043-.19-1.043-.426s.467-.427 1.043-.427c.575 0 1.041.19 1.041.427M238.258 1000.696l-.03-6.284-.333-1.822M235.071 1001.272l3.189-.576 2.397 2.794" style="fill:none;stroke:red;stroke-width:.666665;stroke-linecap:round;stroke-linejoin:round;stroke-miterlimit:4;stroke-dasharray:none;stroke-opacity:1;visibility:visible"/><path d="m624.974 924.394.071-5.784.501-1.8 5.054-.979 3.208 2.27.541 1.961-.041 5.665" style="fill:none;stroke:red;stroke-width:1.33333;stroke-linecap:round;stroke-linejoin:round;stroke-miterlimit:4;stroke-dasharray:none;stroke-opacity:1;visibility:visible"/><path d="m626.401 916.96 2.827 2.019-.128 2.124-.042 5.688" style="fill:none;stroke:red;stroke-width:1.33333;stroke-linecap:round;stroke-linejoin:round;stroke-miterlimit:4;stroke-dasharray:none;stroke-opacity:1;visibility:visible"/><path d="m551.543 872.889 3.037 2.126M498.808 951.175c0 .259-.495.47-1.104.47-.61-.001-1.104-.212-1.104-.471s.495-.469 1.104-.469c.61.001 1.104.212 1.104.471v-.001M625.1 924.603l3.437 2.417M630.433 923.457l.045-5.537-.137-1.666M629.204 923.854l1.23-.23 3.227 2.251" style="fill:none;stroke:red;stroke-width:.666665;stroke-linecap:round;stroke-linejoin:round;stroke-miterlimit:4;stroke-dasharray:none;stroke-opacity:1;visibility:visible"/><path d="m626.401 916.96-2.376 1.42M241.671 931.886l-13.925-.95M187.073 941.509l1.241-3.479M510.54 883.29l-12.312-1.027M227.746 930.936l13.909-2.505M499.72 885.247l10.833-5.202" style="fill:none;stroke:red;stroke-width:1.99999;stroke-linecap:round;stroke-linejoin:round;stroke-miterlimit:4;stroke-dasharray:none;stroke-opacity:1;visibility:visible"/><path d="m241.671 931.886-13.929 2.521M510.54 883.29l-10.82 1.957M227.746 930.936l13.925.95M499.72 885.247l10.82-1.957" style="fill:none;stroke:red;stroke-width:.999997;stroke-linecap:round;stroke-linejoin:round;stroke-miterlimit:4;stroke-dasharray:none;stroke-opacity:1;visibility:visible"/><path d="m233.129 993.531-1.009-1.268" style="fill:none;stroke:red;stroke-width:1.99999;stroke-linecap:round;stroke-linejoin:round;stroke-miterlimit:4;stroke-dasharray:none;stroke-opacity:1;visibility:visible"/><path d="m235.01 1004.612-.994.491" style="fill:none;stroke:red;stroke-width:.999997;stroke-linecap:round;stroke-linejoin:round;stroke-miterlimit:4;stroke-dasharray:none;stroke-opacity:1;visibility:visible"/><path d="m625.1 924.603-8.51 1.277M201.185 942.727l.793 3.388M187.073 941.509l6.175 6.198M241.697 938.87l-13.844 2.525M201.978 946.115l7.477-1.365M376.791 910.82l.947 3.245M227.853 941.395l13.844-2.525M510.517 889.85l-12.292 2.237M377.738 914.065l7.302-1.335M538.79 881.427l.947 3.093M499.72 885.247l10.797 4.603M539.737 884.52l7.127-1.3" style="fill:none;stroke:red;stroke-width:1.99999;stroke-linecap:round;stroke-linejoin:round;stroke-miterlimit:4;stroke-dasharray:none;stroke-opacity:1;visibility:visible"/><path d="m188.314 938.03-2.469-4.651M184.7 937.967l-.378-4.476" style="fill:none;stroke:red;stroke-width:1.33333;stroke-linecap:round;stroke-linejoin:round;stroke-miterlimit:4;stroke-dasharray:none;stroke-opacity:1;visibility:visible"/><path d="m187.252 941.42-2.552-3.453" style="fill:none;stroke:red;stroke-width:.666665;stroke-linecap:round;stroke-linejoin:round;stroke-miterlimit:4;stroke-dasharray:none;stroke-opacity:1;visibility:visible"/><path d="m558.265 870.64-1.738-3.718" style="fill:none;stroke:red;stroke-width:1.33333;stroke-linecap:round;stroke-linejoin:round;stroke-miterlimit:4;stroke-dasharray:none;stroke-opacity:1;visibility:visible"/><path d="m539.737 884.52-.947-3.093M551.519 872.729l-12.729 8.698M377.738 914.065l-.947-3.245M201.978 946.115l-.793-3.388M187.252 941.42l13.933 1.307M560.134 874.095l-1.869-3.455" style="fill:none;stroke:red;stroke-width:.666665;stroke-linecap:round;stroke-linejoin:round;stroke-miterlimit:4;stroke-dasharray:none;stroke-opacity:1;visibility:visible"/><path d="m234.016 1005.103-2.283-3.405M232.12 992.263l1.009 1.268M234.016 1005.103l.994-.491" style="fill:none;stroke:red;stroke-width:1.33333;stroke-linecap:round;stroke-linejoin:round;stroke-miterlimit:4;stroke-dasharray:none;stroke-opacity:1;visibility:visible"/><path d="m234.016 1005.103 4.242-4.407" style="fill:none;stroke:red;stroke-width:.666665;stroke-linecap:round;stroke-linejoin:round;stroke-miterlimit:4;stroke-dasharray:none;stroke-opacity:1;visibility:visible"/><path d="m624.025 918.38 2.376-1.42" style="fill:none;stroke:red;stroke-width:1.33333;stroke-linecap:round;stroke-linejoin:round;stroke-miterlimit:4;stroke-dasharray:none;stroke-opacity:1;visibility:visible"/><path d="m634.892 926-4.459-2.543M624.231 924.376l4.973-.522" style="fill:none;stroke:red;stroke-width:.666665;stroke-linecap:round;stroke-linejoin:round;stroke-miterlimit:4;stroke-dasharray:none;stroke-opacity:1;visibility:visible"/><path d="M361.12 541.984c-.597-.46-1.018-1.103-1.165-1.784M359.958 540.2c-.364-1.656-.326-3.308.11-4.819M360.066 535.381a22.955 22.955 0 0 1 3.874-7.709 23.048 23.048 0 0 1 6.47-5.717M383.899 533.515a20.463 20.463 0 0 1-3.45 6.87 20.54 20.54 0 0 1-5.762 5.095M374.686 545.479c-1.442.858-3.136 1.346-4.939 1.425M369.746 546.904c-1.36.057-2.772-.413-3.938-1.307M365.808 545.597c-.6-.462-1.018-1.104-1.166-1.786M364.642 543.81c-.362-1.659-.323-3.307.11-4.82M365.808 545.597l-4.688-3.613M360.64 533.244a1.2 1.2 0 0 1-.709-1.124M380.99 534.268a4.93 4.93 0 0 1-.1.415M380.891 534.681a8.219 8.219 0 0 1-.95 2.324M374.462 542.364a3.125 3.125 0 0 1-1.712.343M372.75 542.708a1.617 1.617 0 0 1-.698-.13M370.983 539.117c.028-.122.057-.245.093-.365M371.078 538.752a12.56 12.56 0 0 1 1.25-2.924M373.256 540.85l1.204 1.515M371.872 536.673l2.294 2.623M376.106 534.65l3.837 2.358M376.302 533.96l2.353 1.388M374.006 535.99l3.096 2.672" style="fill:none;stroke:#00ff4a;stroke-width:.999997;stroke-linecap:round;stroke-linejoin:round;stroke-miterlimit:2;stroke-dasharray:none;stroke-opacity:1;visibility:visible" visibility="hidden"/><path d="M375.67 535.952a14.487 14.487 0 0 1-3.344-.124M374.166 539.296a12.375 12.375 0 0 1-3.183-.179M377.102 538.661a21.823 21.823 0 0 1-1.714 2.572 24.267 24.267 0 0 1-.926 1.131M374.166 539.296a25.233 25.233 0 0 1-2.116 3.28M379.942 537.005a9.419 9.419 0 0 1-2.84 1.656M380.99 534.268a11.395 11.395 0 0 1-2.336 1.08" style="fill:none;stroke:#00ff4a;stroke-width:.999997;stroke-linecap:round;stroke-linejoin:round;stroke-miterlimit:2;stroke-dasharray:none;stroke-opacity:1;visibility:visible" visibility="hidden"/><path d="m556.145 797.878-113.018 18.493-.097 35.249-6.655 1.161" style="fill:none;stroke:#00ff4a;stroke-width:1.99999;stroke-linecap:round;stroke-linejoin:round;stroke-miterlimit:4;stroke-dasharray:none;stroke-opacity:1;visibility:visible" visibility="hidden"/><path d="m433.064 848.595.084-40.377 113.984-18.344" style="fill:none;stroke:#00ff4a;stroke-width:1.99999;stroke-linecap:round;stroke-linejoin:round;stroke-miterlimit:4;stroke-dasharray:none;stroke-opacity:1;visibility:visible" visibility="hidden"/><path d="m436.42 810.705-3.273-2.487M436.358 852.343l.064-41.638 119.98-19.45" style="fill:none;stroke:#00ff4a;stroke-width:.999997;stroke-linecap:round;stroke-linejoin:round;stroke-miterlimit:4;stroke-dasharray:none;stroke-opacity:1;visibility:visible" visibility="hidden"/><path d="m541.45 795.126 4.634-.76 2.246 1.47.019 1.039s-.097.672-1.821.8a7.172 7.172 0 0 1-3.152-.512l-1.859-1.303-.067-.734M447.576 810.377l4.85-.792 2.003 1.513.019 1.172s-.09.685-1.812.815c-1.725.13-3.26-.539-3.26-.539l-1.818-1.372.018-.797" style="fill:none;stroke:#00ff4a;stroke-width:.666665;stroke-linecap:round;stroke-linejoin:round;stroke-miterlimit:4;stroke-dasharray:none;stroke-opacity:1;visibility:visible" visibility="hidden"/><path d="M546.73 796.06c0 .2-.45.363-1.01.363-.559-.001-1.01-.162-1.01-.362 0-.199.45-.362 1.01-.362.559.001 1.01.163 1.01.362v-.001M436.052 852.547l-3.434.627s-1.503.277-3.04-.116c-1.535-.39-1.551-1.03-1.551-1.03l.033-.699c.015-.796 1.534-1.075 1.534-1.075l3.793-.641 2.683 2.093M452.858 811.334c0 .23-.468.416-1.043.416-.573 0-1.04-.187-1.04-.416 0-.23.467-.416 1.04-.416.575 0 1.043.187 1.043.416" style="fill:none;stroke:#00ff4a;stroke-width:.666665;stroke-linecap:round;stroke-linejoin:round;stroke-miterlimit:4;stroke-dasharray:none;stroke-opacity:1;visibility:visible" visibility="hidden"/><path d="M432.443 851.333c0 .274-.563.497-1.257.497-.696 0-1.26-.223-1.26-.497 0-.276.564-.5 1.26-.5.694 0 1.257.224 1.257.5" style="fill:none;stroke:#00ff4a;stroke-width:.666665;stroke-linecap:round;stroke-linejoin:round;stroke-miterlimit:4;stroke-dasharray:none;stroke-opacity:1;visibility:visible" visibility="hidden"/><path d="m628.924 846.04-118.537 21.176-.122 37.574-6.98 1.305" style="fill:none;stroke:#00ff4a;stroke-width:1.99999;stroke-linecap:round;stroke-linejoin:round;stroke-miterlimit:4;stroke-dasharray:none;stroke-opacity:1;visibility:visible" visibility="hidden"/><path d="m499.492 901.871.103-43.513 120.015-21.127" style="fill:none;stroke:#00ff4a;stroke-width:1.99999;stroke-linecap:round;stroke-linejoin:round;stroke-miterlimit:4;stroke-dasharray:none;stroke-opacity:1;visibility:visible" visibility="hidden"/><path d="m503.425 861.24-3.83-2.881M503.23 905.702l.196-44.462 125.578-22.251M625.773 836.349l3.805 2.44M553.319 789.033l3.286 2.125" style="fill:none;stroke:#00ff4a;stroke-width:.999997;stroke-linecap:round;stroke-linejoin:round;stroke-miterlimit:4;stroke-dasharray:none;stroke-opacity:1;visibility:visible" visibility="hidden"/><path d="m502.927 905.843-4.33.847s-.797.212-2.405-.197c-1.604-.41-1.859-1.124-1.859-1.124l-.013-.927c.185-.892 1.344-1.064 1.344-1.064l4.203-.825 3.002 2.393M514.61 855.585s-1.343-1.012-3.867-.655c-1.82.263-1.716 1-1.716 1v.7M612.608 838.394s-1.222-.885-3.616-.705c-1.84.137-1.779.934-1.779.934v.707" style="fill:none;stroke:#00ff4a;stroke-width:.666665;stroke-linecap:round;stroke-linejoin:round;stroke-miterlimit:4;stroke-dasharray:none;stroke-opacity:1;visibility:visible" visibility="hidden"/><path d="M499.01 904.38c0 .27-.558.488-1.24.488-.684.001-1.24-.219-1.24-.489 0-.272.558-.492 1.24-.492.682 0 1.24.22 1.24.493" style="fill:none;stroke:#00ff4a;stroke-width:.666665;stroke-linecap:round;stroke-linejoin:round;stroke-miterlimit:4;stroke-dasharray:none;stroke-opacity:1;visibility:visible" visibility="hidden"/><path d="m626.918 625.843.118-24.391 6.53-.82 4.284 1.883-1.844 278.699-6.6 1.246-4.088-2.825.218-31.978M625.628 835.797l1.157-186.218M563.865 615.893l-.144 29.638M563.657 658.548l-.837 172.489-6.328 1.096-3.579-2.487.183-30.346M553.113 788.388l.564-128.724M553.732 646.77l.344-78.253 6.29-.707 3.694 1.671-.164 35.454 56.954 27.345" style="fill:none;stroke:#00ff4a;stroke-width:1.99999;stroke-linecap:round;stroke-linejoin:round;stroke-miterlimit:4;stroke-dasharray:none;stroke-opacity:1;visibility:visible" visibility="hidden"/><path d="m556.492 832.134.784-172.84M557.332 646.645l.345-76.068M627.17 601.923l4.134 1.824 6.241-.777M563.897 604.935l-6.336.792 61.065 29.483M554.212 569.001l3.498 1.589 6.197-.683" style="fill:none;stroke:#00ff4a;stroke-width:.999997;stroke-linecap:round;stroke-linejoin:round;stroke-miterlimit:4;stroke-dasharray:none;stroke-opacity:1;visibility:visible" visibility="hidden"/><path d="m558.132 612.632 56.63 27.713" style="fill:none;stroke:#00ff4a;stroke-width:1.99999;stroke-linecap:round;stroke-linejoin:round;stroke-miterlimit:4;stroke-dasharray:none;stroke-opacity:1;visibility:visible" visibility="hidden"/><path d="m629.406 882.46 1.546-232.811M631.145 620.653l.112-16.912" style="fill:none;stroke:#00ff4a;stroke-width:.999997;stroke-linecap:round;stroke-linejoin:round;stroke-miterlimit:4;stroke-dasharray:none;stroke-opacity:1;visibility:visible" visibility="hidden"/><path d="M560.456 827.794c-.406.499-1.072.63-1.49.29-.424-.343-.439-1.023-.035-1.521.406-.5 1.076-.629 1.496-.289.418.341.433 1.021.029 1.521v-.001M560.26 568.97c0 .184-.552.33-1.23.33-.68-.001-1.23-.147-1.23-.33 0-.18.55-.325 1.23-.325.677 0 1.23.146 1.23.326v-.001M633.75 601.984c0 .2-.594.364-1.325.364-.728 0-1.319-.164-1.319-.364-.001-.2.59-.364 1.319-.364.732 0 1.325.164 1.325.364" style="fill:none;stroke:#00ff4a;stroke-width:.666665;stroke-linecap:round;stroke-linejoin:round;stroke-miterlimit:4;stroke-dasharray:none;stroke-opacity:1;visibility:visible" visibility="hidden"/><path d="M625.148 837.491a.367.367 0 0 0 .108-.261M621.225 837.233a.364.364 0 0 0 .107.262M621.332 837.497a1.5 1.5 0 0 0 .6.366M624.55 837.86c.224-.074.43-.201.598-.368M623.493 838.067a4.08 4.08 0 0 0 1.057-.205M552.688 789.51l.001 1.01M548.657 789.517l-.002 1.01M552.581 790.782a.363.363 0 0 0 .109-.261M548.655 790.526a.38.38 0 0 0 .112.261M548.767 790.788c.166.166.373.294.597.369M549.364 791.158c.423.139.864.21 1.31.208.444 0 .886-.07 1.31-.212M551.983 791.154a1.51 1.51 0 0 0 .597-.372M552.688 789.51a.728.728 0 0 0-.21-.51M552.476 789a1.633 1.633 0 0 0-.641-.39M551.835 788.61a3.645 3.645 0 0 0-2.331.003M549.504 788.613a1.636 1.636 0 0 0-.639.396M548.865 789.008a.705.705 0 0 0-.208.509M552.579 789.774a.37.37 0 0 0 .108-.263M548.657 789.517a.355.355 0 0 0 .107.262M548.764 789.78c.168.169.373.297.599.369M551.98 790.145c.227-.077.43-.202.599-.37M550.924 790.35c.361-.023.715-.09 1.056-.205M621.933 838.874a4.125 4.125 0 0 0 2.621-.006M624.553 838.867c.224-.073.428-.2.597-.369M625.256 837.227a.709.709 0 0 0-.21-.507M625.045 836.72c-.18-.181-.4-.316-.64-.393M624.405 836.326a3.659 3.659 0 0 0-2.33.004M622.074 836.33a1.619 1.619 0 0 0-.64.395" style="fill:none;stroke:#00ff4a;stroke-width:.666665;stroke-linecap:round;stroke-linejoin:round;stroke-miterlimit:2;stroke-dasharray:none;stroke-opacity:1;visibility:visible" visibility="hidden"/><path d="M621.433 836.725a.712.712 0 0 0-.208.509M625.256 837.227l.001 1.01M621.225 837.233l-.001 1.009M625.15 838.5a.367.367 0 0 0 .106-.263M621.224 838.242a.385.385 0 0 0 .11.261M621.334 838.505c.168.169.376.297.6.369" style="fill:none;stroke:#00ff4a;stroke-width:.666665;stroke-linecap:round;stroke-linejoin:round;stroke-miterlimit:2;stroke-dasharray:none;stroke-opacity:1;visibility:visible" visibility="hidden"/><path d="m239.3 699.214 391.097-50.89M613.821 640.823l-357.68 45.693" style="fill:none;stroke:#00ff4a;stroke-width:1.99999;stroke-linecap:round;stroke-linejoin:round;stroke-miterlimit:4;stroke-dasharray:none;stroke-opacity:1;visibility:visible" visibility="hidden"/><path d="m611.497 643.687-352.255 45.229" style="fill:none;stroke:#00ff4a;stroke-width:.999997;stroke-linecap:round;stroke-linejoin:round;stroke-miterlimit:4;stroke-dasharray:none;stroke-opacity:1;visibility:visible" visibility="hidden"/><path d="m239.233 700.812.97 254.588-7.98 1.504-3.04-3.508-1.129-304.726 8.036-.917 2.949 2.2.085 22.595M186.156 664.916l1.142 230.747-7.552 1.25-2.516-2.924-1.542-284.489 7.534-.77 2.628 1.935.18 38.663 41.397 32.704" style="fill:none;stroke:#00ff4a;stroke-width:1.99999;stroke-linecap:round;stroke-linejoin:round;stroke-miterlimit:4;stroke-dasharray:none;stroke-opacity:1;visibility:visible" visibility="hidden"/><path d="m179.746 896.913-1.465-284.96M186.03 649.328l-7.517.899 48.88 39.213M175.78 610.14l2.502 1.813 7.25-.748M228.24 649.29l2.784 2.15 7.701-.956" style="fill:none;stroke:#00ff4a;stroke-width:.999997;stroke-linecap:round;stroke-linejoin:round;stroke-miterlimit:4;stroke-dasharray:none;stroke-opacity:1;visibility:visible" visibility="hidden"/><path d="m180.062 658.716 47.652 38.702" style="fill:none;stroke:#00ff4a;stroke-width:1.99999;stroke-linecap:round;stroke-linejoin:round;stroke-miterlimit:4;stroke-dasharray:none;stroke-opacity:1;visibility:visible" visibility="hidden"/><path d="m232.223 956.904-1.198-305.464" style="fill:none;stroke:#00ff4a;stroke-width:.999997;stroke-linecap:round;stroke-linejoin:round;stroke-miterlimit:4;stroke-dasharray:none;stroke-opacity:1;visibility:visible" visibility="hidden"/><path d="M182.032 610.15c0 .199-.603.36-1.348.36-.744 0-1.348-.163-1.348-.36 0-.196.604-.357 1.348-.357.745-.001 1.348.16 1.348.357M234.995 649.299c0 .24-.66.433-1.475.433-.815 0-1.478-.193-1.478-.433s.661-.432 1.478-.432c.814 0 1.475.193 1.475.432" style="fill:none;stroke:#00ff4a;stroke-width:.666665;stroke-linecap:round;stroke-linejoin:round;stroke-miterlimit:4;stroke-dasharray:none;stroke-opacity:1;visibility:visible" visibility="hidden"/><path d="M231.382 675.118s1.215-5.872 6.141-2.972l22.547 19.24s2.563 4.251-2.701 5.736M238.862 699.614l-6.061.816s-1.283-.471-1.351-1.349" style="fill:none;stroke:#00ff4a;stroke-width:.999997;stroke-linecap:round;stroke-linejoin:round;stroke-miterlimit:2;stroke-dasharray:none;stroke-opacity:1;visibility:visible" visibility="hidden"/><path d="M614.285 650.2s-4.841-.8-2.05-5.413l19.881-23.412s1.383-1.905 3.989-.8c1.879.801 1.595 2.509 1.595 2.509M637.47 645.984s-.228 1.196-1.366 1.424l-5.282.676" style="fill:none;stroke:#00ff4a;stroke-width:.999997;stroke-linecap:round;stroke-linejoin:round;stroke-miterlimit:4;stroke-dasharray:none;stroke-opacity:1;visibility:visible" visibility="hidden"/><path d="M636.672 624.988c.08.361.072.721-.026 1.05M636.646 626.039a4.203 4.203 0 0 1-.704 1.406 4.237 4.237 0 0 1-1.178 1.039M634.764 628.484a2.147 2.147 0 0 1-1.01.293M633.753 628.777a1.248 1.248 0 0 1-.805-.267M635.794 624.14a.65.65 0 0 1 .416.139M632.95 628.508a.635.635 0 0 1-.24-.364M632.71 628.144a1.997 1.997 0 0 1 .023-.985M634.848 624.415c.277-.165.6-.258.946-.275M633.738 625.327a4.772 4.772 0 0 1 1.11-.914M237.687 674.612l-.957-.74M234.427 678.841l-.957-.739M236.315 673.734a.661.661 0 0 1 .415.138M233.469 678.104a.635.635 0 0 1-.239-.364M233.231 677.738a1.991 1.991 0 0 1 .023-.984M233.253 676.754a4.704 4.704 0 0 1 .793-1.577c.359-.464.805-.86 1.321-1.17M235.367 674.008c.276-.164.603-.258.948-.274M237.687 674.612a1.248 1.248 0 0 1 .464.71M238.15 675.321c.08.361.072.721-.025 1.05M238.126 676.372a4.203 4.203 0 0 1-.704 1.406 4.237 4.237 0 0 1-1.179 1.04M236.243 678.817a2.147 2.147 0 0 1-1.01.293M235.233 679.11a1.248 1.248 0 0 1-.806-.268M237.273 674.473a.65.65 0 0 1 .414.139M234.427 678.841a.635.635 0 0 1-.237-.364M234.19 678.477a1.997 1.997 0 0 1 .023-.985M236.326 674.748c.277-.164.6-.258.947-.274M235.217 675.66a4.772 4.772 0 0 1 1.11-.914M633.545 643.108a4.772 4.772 0 0 1 1.11-.913M636.208 624.279l-.959-.74M632.95 628.508l-.96-.739M634.837 623.401a.661.661 0 0 1 .413.139M631.99 627.77a.635.635 0 0 1-.238-.362M631.752 627.405a1.991 1.991 0 0 1 .022-.984M631.774 626.421c.167-.578.434-1.11.794-1.577.358-.464.805-.86 1.321-1.17M633.89 623.675c.274-.165.6-.258.946-.275" style="fill:none;stroke:#00ff4a;stroke-width:.666665;stroke-linecap:round;stroke-linejoin:round;stroke-miterlimit:2;stroke-dasharray:none;stroke-opacity:1;visibility:visible" visibility="hidden"/><path d="M636.208 624.279a1.244 1.244 0 0 1 .464.71M633.694 641.457c.276-.164.602-.257.948-.273M636.014 642.061a1.239 1.239 0 0 1 .464.709M636.478 642.77a2.107 2.107 0 0 1-.025 1.054M636.452 643.823a4.165 4.165 0 0 1-.704 1.404 4.204 4.204 0 0 1-1.179 1.04M634.57 646.268a2.147 2.147 0 0 1-1.01.292M633.558 646.56a1.248 1.248 0 0 1-.805-.268M635.6 641.924a.636.636 0 0 1 .414.139M632.754 646.29a.64.64 0 0 1-.238-.362M632.517 645.927a1.997 1.997 0 0 1 .023-.987M634.653 642.196c.277-.164.6-.257.947-.272M617.141 643.657c.276-.165.601-.257.949-.273M619.461 644.26a1.237 1.237 0 0 1 .464.71M619.924 644.97a2.1 2.1 0 0 1-.026 1.05M619.9 646.02a4.203 4.203 0 0 1-.704 1.407 4.237 4.237 0 0 1-1.179 1.038M618.017 648.465a2.147 2.147 0 0 1-1.01.295M617.006 648.759a1.253 1.253 0 0 1-.805-.267M619.046 644.121a.644.644 0 0 1 .415.139M616.201 648.492a.645.645 0 0 1-.239-.367M615.964 648.124a1.992 1.992 0 0 1 .022-.984M618.1 644.395c.277-.165.6-.258.946-.275M616.99 645.308a4.772 4.772 0 0 1 1.11-.913M636.014 642.061l-.958-.74M632.754 646.29l-.958-.736M634.642 641.184a.648.648 0 0 1 .414.139M631.797 645.555a.644.644 0 0 1-.239-.365" style="fill:none;stroke:#00ff4a;stroke-width:.666665;stroke-linecap:round;stroke-linejoin:round;stroke-miterlimit:2;stroke-dasharray:none;stroke-opacity:1;visibility:visible" visibility="hidden"/><path d="M631.558 645.19a2.002 2.002 0 0 1 .023-.988M631.581 644.201a4.72 4.72 0 0 1 .793-1.576 4.714 4.714 0 0 1 1.322-1.17M238.262 694.877c.08.361.072.721-.025 1.05M238.238 695.926a4.19 4.19 0 0 1-.704 1.407 4.247 4.247 0 0 1-1.179 1.041M236.355 698.374a2.177 2.177 0 0 1-1.01.292M235.345 698.666a1.256 1.256 0 0 1-.806-.268M237.386 694.03a.627.627 0 0 1 .415.138M234.54 698.397a.64.64 0 0 1-.24-.364M234.302 698.033a1.996 1.996 0 0 1 .023-.985M236.44 694.301c.276-.164.6-.256.945-.27M235.329 695.214a4.777 4.777 0 0 1 1.11-.914M619.461 644.26l-.959-.74M616.201 648.492l-.959-.74M618.09 643.384a.645.645 0 0 1 .411.136M615.244 647.752a.64.64 0 0 1-.239-.364" style="fill:none;stroke:#00ff4a;stroke-width:.666665;stroke-linecap:round;stroke-linejoin:round;stroke-miterlimit:2;stroke-dasharray:none;stroke-opacity:1;visibility:visible" visibility="hidden"/><path d="M615.005 647.388a1.997 1.997 0 0 1 .023-.985M615.028 646.401a4.738 4.738 0 0 1 .792-1.577 4.73 4.73 0 0 1 1.322-1.168M256.135 692.797a2.1 2.1 0 0 1-.025 1.05M256.11 693.848a4.177 4.177 0 0 1-.704 1.404 4.204 4.204 0 0 1-1.179 1.041M254.226 696.294a2.147 2.147 0 0 1-1.01.292M253.217 696.585a1.248 1.248 0 0 1-.807-.268M255.257 691.95a.63.63 0 0 1 .413.14M252.413 696.317a.635.635 0 0 1-.239-.364M252.173 695.952a1.997 1.997 0 0 1 .022-.986M254.31 692.222c.277-.165.6-.257.947-.272M253.2 693.134a4.7 4.7 0 0 1 1.11-.912M237.8 694.168l-.96-.739M234.54 698.397l-.96-.739M236.427 693.29a.648.648 0 0 1 .414.14M233.58 697.66a.644.644 0 0 1-.237-.364M233.343 697.294a1.992 1.992 0 0 1 .023-.984M233.365 696.31a4.72 4.72 0 0 1 .793-1.578 4.73 4.73 0 0 1 1.322-1.168M235.48 693.564a2.02 2.02 0 0 1 .946-.274M237.8 694.168a1.245 1.245 0 0 1 .462.71M255.671 692.088l-.958-.74M252.413 696.317l-.959-.737M254.3 691.21a.648.648 0 0 1 .415.14M251.453 695.58a.648.648 0 0 1-.239-.364M251.215 695.214a1.99 1.99 0 0 1 .023-.984M251.238 694.23a4.707 4.707 0 0 1 .793-1.578 4.714 4.714 0 0 1 1.322-1.17M253.353 691.484c.276-.164.601-.258.947-.274" style="fill:none;stroke:#00ff4a;stroke-width:.666665;stroke-linecap:round;stroke-linejoin:round;stroke-miterlimit:2;stroke-dasharray:none;stroke-opacity:1;visibility:visible" visibility="hidden"/><path d="M255.671 692.088a1.237 1.237 0 0 1 .464.71" style="fill:none;stroke:#00ff4a;stroke-width:.666665;stroke-linecap:round;stroke-linejoin:round;stroke-miterlimit:2;stroke-dasharray:none;stroke-opacity:1;visibility:visible" visibility="hidden"/><path d="m380.89 534.683 3.009-1.168M360.066 535.381l4.686 3.609M372.052 542.578l-11.412-9.334M374.166 539.296l-.91 1.554M365.808 545.597l8.198-9.607M369.747 546.904l5.923-10.952" style="fill:none;stroke:#00ff4a;stroke-width:.999997;stroke-linecap:round;stroke-linejoin:round;stroke-miterlimit:2;stroke-dasharray:none;stroke-opacity:1;visibility:visible" visibility="hidden"/><path d="m541.45 795.126 14.695 2.752M432.443 851.333l.621-2.738M541.45 795.126l5.682-5.252" style="fill:none;stroke:#00ff4a;stroke-width:1.99999;stroke-linecap:round;stroke-linejoin:round;stroke-miterlimit:4;stroke-dasharray:none;stroke-opacity:1;visibility:visible" visibility="hidden"/><path d="m547.132 789.874-5.682 5.252M548.657 789.517l-7.207 5.609M452.858 811.334l-5.282-.957M548.655 790.527l-1.925 5.533M548.655 790.527l-1.925 5.533M447.576 810.377l5.282.957M433.064 848.595l-.621 2.738" style="fill:none;stroke:#00ff4a;stroke-width:.666665;stroke-linecap:round;stroke-linejoin:round;stroke-miterlimit:4;stroke-dasharray:none;stroke-opacity:1;visibility:visible" visibility="hidden"/><path d="m499.01 904.38.482-2.509" style="fill:none;stroke:#00ff4a;stroke-width:1.99999;stroke-linecap:round;stroke-linejoin:round;stroke-miterlimit:4;stroke-dasharray:none;stroke-opacity:1;visibility:visible" visibility="hidden"/><path d="m503.425 861.24 11.185-5.655M629.578 838.789l-16.97-.395M621.224 838.242l-14.011 1.088M499.492 901.871l-.482 2.509" style="fill:none;stroke:#00ff4a;stroke-width:.666665;stroke-linecap:round;stroke-linejoin:round;stroke-miterlimit:4;stroke-dasharray:none;stroke-opacity:1;visibility:visible" visibility="hidden"/><path d="m625.257 838.237.279 9.42M563.657 658.548l.064-13.017M563.721 645.531l-.064 13.017M552.689 790.52l.407 8.78M553.732 646.77l-.055 12.894M553.677 659.664l.055-12.894" style="fill:none;stroke:#00ff4a;stroke-width:1.99999;stroke-linecap:round;stroke-linejoin:round;stroke-miterlimit:4;stroke-dasharray:none;stroke-opacity:1;visibility:visible" visibility="hidden"/><path d="m560.456 827.794-3.964 4.34M557.332 646.645l-.056 12.649M557.276 659.294l.056-12.649M633.75 601.984l-2.605 18.669M633.75 601.984l-2.493 1.757" style="fill:none;stroke:#00ff4a;stroke-width:.999997;stroke-linecap:round;stroke-linejoin:round;stroke-miterlimit:4;stroke-dasharray:none;stroke-opacity:1;visibility:visible" visibility="hidden"/><path d="m556.492 832.134 3.964-4.34M631.145 620.653l2.605-18.669M631.257 603.741l2.493-1.757" style="fill:none;stroke:#00ff4a;stroke-width:.666665;stroke-linecap:round;stroke-linejoin:round;stroke-miterlimit:4;stroke-dasharray:none;stroke-opacity:1;visibility:visible" visibility="hidden"/><path d="m630.822 648.084-17.001-7.261M254.3 691.21l1.841-4.694" style="fill:none;stroke:#00ff4a;stroke-width:1.99999;stroke-linecap:round;stroke-linejoin:round;stroke-miterlimit:4;stroke-dasharray:none;stroke-opacity:1;visibility:visible" visibility="hidden"/><path d="m630.822 648.084-19.325-4.397M255.257 691.95l3.985-3.034" style="fill:none;stroke:#00ff4a;stroke-width:.999997;stroke-linecap:round;stroke-linejoin:round;stroke-miterlimit:4;stroke-dasharray:none;stroke-opacity:1;visibility:visible" visibility="hidden"/><path d="m233.47 678.102-6.043 3.93" style="fill:none;stroke:#00ff4a;stroke-width:1.99999;stroke-linecap:round;stroke-linejoin:round;stroke-miterlimit:4;stroke-dasharray:none;stroke-opacity:1;visibility:visible" visibility="hidden"/><path d="m182.032 610.15-3.751 1.803M236.84 693.429l-9.447-3.989" style="fill:none;stroke:#00ff4a;stroke-width:.999997;stroke-linecap:round;stroke-linejoin:round;stroke-miterlimit:4;stroke-dasharray:none;stroke-opacity:1;visibility:visible" visibility="hidden"/><path d="m233.58 697.658-5.866-.24" style="fill:none;stroke:#00ff4a;stroke-width:1.99999;stroke-linecap:round;stroke-linejoin:round;stroke-miterlimit:4;stroke-dasharray:none;stroke-opacity:1;visibility:visible" visibility="hidden"/><path d="m234.995 649.299-3.97 2.141" style="fill:none;stroke:#00ff4a;stroke-width:.999997;stroke-linecap:round;stroke-linejoin:round;stroke-miterlimit:4;stroke-dasharray:none;stroke-opacity:1;visibility:visible" visibility="hidden"/><path d="m178.281 611.953 3.751-1.803M231.025 651.44l3.97-2.141" style="fill:none;stroke:#00ff4a;stroke-width:.666665;stroke-linecap:round;stroke-linejoin:round;stroke-miterlimit:4;stroke-dasharray:none;stroke-opacity:1;visibility:visible" visibility="hidden"/><path d="m233.254 676.754-1.872-1.636" style="fill:none;stroke:#00ff4a;stroke-width:.999997;stroke-linecap:round;stroke-linejoin:round;stroke-miterlimit:2;stroke-dasharray:none;stroke-opacity:1;visibility:visible" visibility="hidden"/><path d="m636.452 643.823 1.018 2.161" style="fill:none;stroke:#00ff4a;stroke-width:.999997;stroke-linecap:round;stroke-linejoin:round;stroke-miterlimit:4;stroke-dasharray:none;stroke-opacity:1;visibility:visible" visibility="hidden"/><path d="m613.821 640.823 7.029-8.543" style="fill:none;stroke:#00ff4a;stroke-width:1.99999;stroke-linecap:round;stroke-linejoin:round;stroke-miterlimit:4;stroke-dasharray:none;stroke-opacity:1;visibility:visible" visibility="hidden"/><path d="m613.821 640.823 4.805-5.613" style="fill:none;stroke:#00ff4a;stroke-width:.999997;stroke-linecap:round;stroke-linejoin:round;stroke-miterlimit:4;stroke-dasharray:none;stroke-opacity:1;visibility:visible" visibility="hidden"/><path d="m613.821 640.823.941-.478" style="fill:none;stroke:#00ff4a;stroke-width:1.99999;stroke-linecap:round;stroke-linejoin:round;stroke-miterlimit:4;stroke-dasharray:none;stroke-opacity:1;visibility:visible" visibility="hidden"/><path d="m621.224 838.242 2.269-.175" style="fill:none;stroke:#00ff4a;stroke-width:.666665;stroke-linecap:round;stroke-linejoin:round;stroke-miterlimit:2;stroke-dasharray:none;stroke-opacity:1;visibility:visible" visibility="hidden"/><path d="m630.822 648.084-16.537 2.116" style="fill:none;stroke:#00ff4a;stroke-width:.999997;stroke-linecap:round;stroke-linejoin:round;stroke-miterlimit:4;stroke-dasharray:none;stroke-opacity:1;visibility:visible" visibility="hidden"/></svg>