<svg xmlns="http://www.w3.org/2000/svg" baseProfile="full" height="1122.52" preserveAspectRatio="xMinYMin meet" style="width:602px;height:832px" width="793.701" xml:space="preserve"><path d="m299.9 508.668.32-59.844 172.283-30.552 5.709 3.771-.02 9.625-163.14 29.342-.249 51.722-9.648 1.863" style="fill:none;stroke:red;stroke-width:1.99999;stroke-linecap:round;stroke-linejoin:round;stroke-miterlimit:4;stroke-dasharray:none;stroke-opacity:1;visibility:visible" visibility="hidden"/><path d="m305.471 452.815-5.251-3.992M305.186 513.923l.287-61.108 172.53-30.747" style="fill:none;stroke:red;stroke-width:.999997;stroke-linecap:round;stroke-linejoin:round;stroke-miterlimit:4;stroke-dasharray:none;stroke-opacity:1;visibility:visible" visibility="hidden"/><path d="m304.802 514.26-5.087.906s-2.137.396-4.321-.163c-2.184-.557-2.53-1.528-2.53-1.528l-.021-1.261c.256-1.211 1.782-1.52 1.782-1.52l5.885-1.062 4.291 3.466M471.099 421.251c0 .335-.806.607-1.804.607s-1.805-.272-1.805-.608c0-.334.807-.606 1.805-.606.998 0 1.804.272 1.804.607M320.38 444.98s-1.699-1.406-5.127-.917c-2.478.355-2.333 1.356-2.333 1.356v.956M454.567 421.292s-1.661-1.202-4.917-.958c-2.5.188-2.416 1.27-2.416 1.27v.96" style="fill:none;stroke:red;stroke-width:.666665;stroke-linecap:round;stroke-linejoin:round;stroke-miterlimit:4;stroke-dasharray:none;stroke-opacity:1;visibility:visible" visibility="hidden"/><path d="M299.257 512.375c0 .392-.8.71-1.788.71-.99-.001-1.79-.319-1.79-.711.001-.391.801-.707 1.791-.707.987 0 1.787.316 1.787.708" style="fill:none;stroke:red;stroke-width:.666665;stroke-linecap:round;stroke-linejoin:round;stroke-miterlimit:4;stroke-dasharray:none;stroke-opacity:1;visibility:visible" visibility="hidden"/><path d="m299.257 512.375.643-3.707" style="fill:none;stroke:red;stroke-width:1.99999;stroke-linecap:round;stroke-linejoin:round;stroke-miterlimit:4;stroke-dasharray:none;stroke-opacity:1;visibility:visible" visibility="hidden"/><path d="m305.471 452.815 14.909-7.835M299.9 508.668l-.643 3.707" style="fill:none;stroke:red;stroke-width:.666665;stroke-linecap:round;stroke-linejoin:round;stroke-miterlimit:4;stroke-dasharray:none;stroke-opacity:1;visibility:visible" visibility="hidden"/><path d="m405.924 346.533.684-295.26 8.479-.937 5.063 2.23-.044 47.112 88.106 41.046M508.732 146.002l.021-49.98 8.958-1.124 5.729 2.562.043 375.936-8.984 1.69-5.809-3.878.013-44.678M508.708 411.891l.067-251.681" style="fill:none;stroke:#00ff4a;stroke-width:1.99999;stroke-linecap:round;stroke-linejoin:round;stroke-miterlimit:4;stroke-dasharray:none;stroke-opacity:1;visibility:visible" visibility="hidden"/><path d="m420.026 114.127-.604 289.999-8.532 1.462-5.094-3.4.096-42.07" style="fill:none;stroke:#00ff4a;stroke-width:1.99999;stroke-linecap:round;stroke-linejoin:round;stroke-miterlimit:4;stroke-dasharray:none;stroke-opacity:1;visibility:visible" visibility="hidden"/><path d="m410.89 405.588.78-351.498M508.941 96.67l5.667 2.5 8.563-1.064M420.106 99.677l-8.568 1.014 96.729 45.373M406.796 51.94l4.918 2.167 8.228-.958" style="fill:none;stroke:#00ff4a;stroke-width:.999997;stroke-linecap:round;stroke-linejoin:round;stroke-miterlimit:4;stroke-dasharray:none;stroke-opacity:1;visibility:visible" visibility="hidden"/><path d="m412.326 109.91 86.25 40.951" style="fill:none;stroke:#00ff4a;stroke-width:1.99999;stroke-linecap:round;stroke-linejoin:round;stroke-miterlimit:4;stroke-dasharray:none;stroke-opacity:1;visibility:visible" visibility="hidden"/><path d="m514.5 475.086.047-375.922" style="fill:none;stroke:#00ff4a;stroke-width:.999997;stroke-linecap:round;stroke-linejoin:round;stroke-miterlimit:4;stroke-dasharray:none;stroke-opacity:1;visibility:visible" visibility="hidden"/><path d="M416.223 399.72c-.555.683-1.47.862-2.047.395-.576-.467-.594-1.4-.041-2.084.555-.685 1.472-.861 2.047-.395.576.468.596 1.4.041 2.084M519.985 153.91c-.461.568-1.253.687-1.775.266-.522-.423-.573-1.224-.113-1.794.46-.568 1.256-.686 1.778-.265.521.421.57 1.225.11 1.793M519.97 130.284c-.46.57-1.255.688-1.778.265-.52-.423-.571-1.224-.111-1.793.462-.568 1.256-.687 1.779-.264.52.421.569 1.224.109 1.792h.001M415.046 51.97c0 .25-.756.45-1.688.45-.932-.001-1.688-.201-1.688-.45s.756-.447 1.688-.447c.932 0 1.688.2 1.688.447M517.963 96.753c0 .277-.81.5-1.813.5s-1.813-.223-1.813-.5.813-.5 1.814-.5c1.001 0 1.812.223 1.812.5" style="fill:none;stroke:#00ff4a;stroke-width:.666665;stroke-linecap:round;stroke-linejoin:round;stroke-miterlimit:4;stroke-dasharray:none;stroke-opacity:1;visibility:visible" visibility="hidden"/><path d="m509.053 147.11-7.43.973-2.23 1.071-.03 7.129.464.234 2.308.067.928-.186" style="fill:none;stroke:#00ff4a;stroke-width:1.33333;stroke-linecap:round;stroke-linejoin:round;stroke-miterlimit:4;stroke-dasharray:none;stroke-opacity:1;visibility:visible" visibility="hidden"/><path d="m499.905 149.942 3.436 1.672-.009 6.544.505.24 2.803.415 7.43-1.021" style="fill:none;stroke:#00ff4a;stroke-width:1.33333;stroke-linecap:round;stroke-linejoin:round;stroke-miterlimit:4;stroke-dasharray:none;stroke-opacity:1;visibility:visible" visibility="hidden"/><path d="m503.79 151.225 2.776-.723 7.307-.889M507.025 148.938c0 .227-.657.412-1.468.412-.81 0-1.467-.185-1.467-.412 0-.228.657-.413 1.467-.413.811 0 1.468.185 1.468.413M509.519 147.201l4.411 2.137" style="fill:none;stroke:#00ff4a;stroke-width:.666665;stroke-linecap:round;stroke-linejoin:round;stroke-miterlimit:4;stroke-dasharray:none;stroke-opacity:1;visibility:visible" visibility="hidden"/><path d="m508.955 412.835-7.427 1.388-2.23 1.143-.03 7.221.464.248 2.335-.067.928-.198" style="fill:none;stroke:#00ff4a;stroke-width:1.33333;stroke-linecap:round;stroke-linejoin:round;stroke-miterlimit:4;stroke-dasharray:none;stroke-opacity:1;visibility:visible" visibility="hidden"/><path d="m499.87 416.335 3.392 2.167.002 6.676.506.256 2.88.318 7.221-1.332" style="fill:none;stroke:#00ff4a;stroke-width:1.33333;stroke-linecap:round;stroke-linejoin:round;stroke-miterlimit:4;stroke-dasharray:none;stroke-opacity:1;visibility:visible" visibility="hidden"/><path d="m503.721 418.14 2.779-.773 7.316-1.255M506.979 415.348c0 .3-.659.54-1.469.54s-1.467-.24-1.467-.54c0-.298.657-.538 1.467-.538s1.469.24 1.469.538M509.42 412.934l4.45 2.873" style="fill:none;stroke:#00ff4a;stroke-width:.666665;stroke-linecap:round;stroke-linejoin:round;stroke-miterlimit:4;stroke-dasharray:none;stroke-opacity:1;visibility:visible" visibility="hidden"/><path d="m406.086 347.609-7.072 1.164-2.104 1.077-.029 6.744.441.236 2.198-.064.879-.187" style="fill:none;stroke:#00ff4a;stroke-width:1.33333;stroke-linecap:round;stroke-linejoin:round;stroke-miterlimit:4;stroke-dasharray:none;stroke-opacity:1;visibility:visible" visibility="hidden"/><path d="m397.372 350.718 3.05 1.93-.066 6.182.53.316 2.548.264 7.226-1.181" style="fill:none;stroke:#00ff4a;stroke-width:1.33333;stroke-linecap:round;stroke-linejoin:round;stroke-miterlimit:4;stroke-dasharray:none;stroke-opacity:1;visibility:visible" visibility="hidden"/><path d="m400.9 352.309 2.62-.73 6.98-1.157M404.108 349.758c0 .281-.62.51-1.384.51-.764-.001-1.384-.23-1.384-.511s.62-.509 1.384-.509c.764 0 1.384.23 1.384.511v-.001M406.391 347.58l4.199 2.71" style="fill:none;stroke:#00ff4a;stroke-width:.666665;stroke-linecap:round;stroke-linejoin:round;stroke-miterlimit:4;stroke-dasharray:none;stroke-opacity:1;visibility:visible" visibility="hidden"/><path d="m404.108 349.758 1.816-3.225M509.519 147.201l-1.307-6.477M506.979 415.348l1.724 11.182M507.025 148.938l1.75 11.272M405.924 346.533l-.032 13.585" style="fill:none;stroke:#00ff4a;stroke-width:1.99999;stroke-linecap:round;stroke-linejoin:round;stroke-miterlimit:4;stroke-dasharray:none;stroke-opacity:1;visibility:visible" visibility="hidden"/><path d="m415.046 51.97-3.376 2.12" style="fill:none;stroke:#00ff4a;stroke-width:.999997;stroke-linecap:round;stroke-linejoin:round;stroke-miterlimit:4;stroke-dasharray:none;stroke-opacity:1;visibility:visible" visibility="hidden"/><path d="m499.905 149.942-1.329.919" style="fill:none;stroke:#00ff4a;stroke-width:1.99999;stroke-linecap:round;stroke-linejoin:round;stroke-miterlimit:4;stroke-dasharray:none;stroke-opacity:1;visibility:visible" visibility="hidden"/><path d="m517.963 96.753-3.416 2.411" style="fill:none;stroke:#00ff4a;stroke-width:.999997;stroke-linecap:round;stroke-linejoin:round;stroke-miterlimit:4;stroke-dasharray:none;stroke-opacity:1;visibility:visible" visibility="hidden"/><path d="m411.67 54.09 3.376-2.12M514.547 99.164l3.416-2.411" style="fill:none;stroke:#00ff4a;stroke-width:.666665;stroke-linecap:round;stroke-linejoin:round;stroke-miterlimit:4;stroke-dasharray:none;stroke-opacity:1;visibility:visible" visibility="hidden"/><path d="m503.79 151.225-.727 5.173M498.576 150.861l1.329-.919" style="fill:none;stroke:#00ff4a;stroke-width:1.33333;stroke-linecap:round;stroke-linejoin:round;stroke-miterlimit:4;stroke-dasharray:none;stroke-opacity:1;visibility:visible" visibility="hidden"/><path d="m503.063 156.398.727-5.173M508.732 146.002l-1.707 2.936M508.775 160.21l-1.75-11.272" style="fill:none;stroke:#00ff4a;stroke-width:.666665;stroke-linecap:round;stroke-linejoin:round;stroke-miterlimit:4;stroke-dasharray:none;stroke-opacity:1;visibility:visible" visibility="hidden"/><path d="m503.721 418.14-.726 4.43M513.87 415.807l-14 .528" style="fill:none;stroke:#00ff4a;stroke-width:1.33333;stroke-linecap:round;stroke-linejoin:round;stroke-miterlimit:4;stroke-dasharray:none;stroke-opacity:1;visibility:visible" visibility="hidden"/><path d="m502.995 422.57.726-4.43M508.708 411.891l-1.729 3.457M508.703 426.53l-1.724-11.182" style="fill:none;stroke:#00ff4a;stroke-width:.666665;stroke-linecap:round;stroke-linejoin:round;stroke-miterlimit:4;stroke-dasharray:none;stroke-opacity:1;visibility:visible" visibility="hidden"/><path d="m400.9 352.309-.501 4.27M410.59 350.29l-13.218.428" style="fill:none;stroke:#00ff4a;stroke-width:1.33333;stroke-linecap:round;stroke-linejoin:round;stroke-miterlimit:4;stroke-dasharray:none;stroke-opacity:1;visibility:visible" visibility="hidden"/><path d="m400.399 356.579.501-4.27M405.924 346.533l-1.816 3.225M405.924 346.533l-1.816 3.225" style="fill:none;stroke:#00ff4a;stroke-width:.666665;stroke-linecap:round;stroke-linejoin:round;stroke-miterlimit:4;stroke-dasharray:none;stroke-opacity:1;visibility:visible" visibility="hidden"/><path d="m207.234 434.308.387-55.314 163.826-26.657 5.01 3.28-.052 8.992-155.155 25.585-.32 48.253-9.14 1.584" style="fill:none;stroke:#9500ff;stroke-width:1.99999;stroke-linecap:round;stroke-linejoin:round;stroke-miterlimit:4;stroke-dasharray:none;stroke-opacity:1;visibility:visible"/><path d="m212.173 382.4-4.554-3.408M211.817 439.391l.356-56.99 164.082-26.761" style="fill:none;stroke:#9500ff;stroke-width:.999997;stroke-linecap:round;stroke-linejoin:round;stroke-miterlimit:4;stroke-dasharray:none;stroke-opacity:1;visibility:visible"/><path d="m355.668 360.975 6.262-1.028 3.13 2.08.026 1.403s-.25.927-2.58 1.1c-2.33.176-4.232-.8-4.232-.8l-2.63-1.68.024-1.075M369.843 354.915c0 .319-.767.576-1.715.576-.948 0-1.716-.257-1.716-.576 0-.318.768-.577 1.716-.577s1.715.259 1.715.577M227.406 381.966l6.557-1.068 2.835 2.224.025 1.403s-.25.928-2.58 1.102c-2.329.175-4.405-.73-4.405-.73l-2.457-1.853.025-1.078" style="fill:none;stroke:#9500ff;stroke-width:.666665;stroke-linecap:round;stroke-linejoin:round;stroke-miterlimit:4;stroke-dasharray:none;stroke-opacity:1;visibility:visible"/><path d="M362.806 362.24c0 .272-.61.49-1.366.49-.753-.001-1.364-.22-1.364-.49s.611-.487 1.364-.487c.755 0 1.366.217 1.366.487M211.453 439.711l-4.836.861s-2.032.376-4.108-.154c-2.079-.531-2.099-1.391-2.099-1.391l.044-.95c-.067-1.215 2.032-1.57 2.032-1.57l5.256-.86 3.71 2.96M234.543 383.26c0 .312-.63.563-1.406.563-.778-.001-1.407-.251-1.407-.563 0-.307.63-.56 1.407-.56.776 0 1.406.253 1.406.56" style="fill:none;stroke:#9500ff;stroke-width:.666665;stroke-linecap:round;stroke-linejoin:round;stroke-miterlimit:4;stroke-dasharray:none;stroke-opacity:1;visibility:visible"/><path d="M206.394 438.02c0 .372-.761.674-1.7.674-.94 0-1.701-.302-1.701-.674 0-.372.761-.674 1.701-.674.939 0 1.7.302 1.7.674" style="fill:none;stroke:#9500ff;stroke-width:.666665;stroke-linecap:round;stroke-linejoin:round;stroke-miterlimit:4;stroke-dasharray:none;stroke-opacity:1;visibility:visible"/><path d="m206.394 438.02.84-3.712" style="fill:none;stroke:#9500ff;stroke-width:1.99999;stroke-linecap:round;stroke-linejoin:round;stroke-miterlimit:4;stroke-dasharray:none;stroke-opacity:1;visibility:visible"/><path d="m362.806 362.24-7.138-1.265M362.806 362.24l7.037-7.325M362.806 362.24l7.037-7.325M234.543 383.26l-7.137-1.294M369.843 354.915l-7.037 7.325M355.668 360.975l7.138 1.265M227.406 381.966l7.137 1.294M207.234 434.308l-.84 3.712" style="fill:none;stroke:#9500ff;stroke-width:.666665;stroke-linecap:round;stroke-linejoin:round;stroke-miterlimit:4;stroke-dasharray:none;stroke-opacity:1;visibility:visible"/></svg>