<svg xmlns="http://www.w3.org/2000/svg" baseProfile="full" height="1122.52" preserveAspectRatio="xMinYMin meet" style="width:602px;height:832px" width="793.701" xml:space="preserve"><path d="m140.081 160.398 9.063-1.146 3.312 2.624 2.469 345.94-8.968 1.604-3.272-3.8-2.604-345.222M93.83 177.757l2.375 262.557-8.511 1.385-2.862-3.324-3-323.748 8.604-.918 2.874 2.231.376 44.103 45.678 37.731" style="fill:none;stroke:red;stroke-width:1.99999;stroke-linecap:round;stroke-linejoin:round;stroke-miterlimit:4;stroke-dasharray:none;stroke-opacity:1;visibility:visible" visibility="hidden"/><path d="m87.696 441.699-2.964-324.236M93.686 160.042l-8.54 1.023 54.267 45.421M81.977 115.315l2.753 2.148 8.331-.94M140.29 161.106l3.09 2.44 8.828-1.086" style="fill:none;stroke:red;stroke-width:.999997;stroke-linecap:round;stroke-linejoin:round;stroke-miterlimit:4;stroke-dasharray:none;stroke-opacity:1;visibility:visible" visibility="hidden"/><path d="m86.162 170.141 54.348 45.989" style="fill:none;stroke:red;stroke-width:1.99999;stroke-linecap:round;stroke-linejoin:round;stroke-miterlimit:4;stroke-dasharray:none;stroke-opacity:1;visibility:visible" visibility="hidden"/><path d="m145.958 509.419-2.578-345.871" style="fill:none;stroke:red;stroke-width:.999997;stroke-linecap:round;stroke-linejoin:round;stroke-miterlimit:4;stroke-dasharray:none;stroke-opacity:1;visibility:visible" visibility="hidden"/><path d="M158.653 207.266c0 .224-.59.404-1.32.404-.728-.001-1.319-.181-1.319-.404 0-.221.59-.401 1.319-.401.73 0 1.32.18 1.32.401M92.728 436.536c-.603.54-1.472.556-1.94.034-.47-.522-.359-1.384.245-1.926.605-.54 1.472-.556 1.94-.034.467.522.357 1.385-.245 1.926M89.081 115.325c0 .225-.685.407-1.53.407-.848 0-1.534-.183-1.534-.407.001-.225.687-.405 1.533-.405.846 0 1.531.179 1.531.405M149.244 214.65c-.464.548-1.242.65-1.736.232-.495-.42-.519-1.204-.056-1.75.465-.546 1.241-.65 1.734-.232.495.42.522 1.205.058 1.75M149.132 192.65c-.464.548-1.242.651-1.736.232-.496-.421-.519-1.204-.056-1.749.465-.548 1.24-.652 1.734-.233.496.42.522 1.205.058 1.75M147.969 161.114c0 .272-.75.494-1.679.494-.925 0-1.677-.222-1.677-.494s.752-.492 1.677-.492c.928 0 1.68.22 1.68.492h-.001" style="fill:none;stroke:red;stroke-width:.666665;stroke-linecap:round;stroke-linejoin:round;stroke-miterlimit:4;stroke-dasharray:none;stroke-opacity:1;visibility:visible" visibility="hidden"/><path d="m153.041 206.557 4.472-.61 2.695.333 2.444 1.972.084 6.86-2.39 1.001-7.276.973" style="fill:none;stroke:red;stroke-width:1.33333;stroke-linecap:round;stroke-linejoin:round;stroke-miterlimit:4;stroke-dasharray:none;stroke-opacity:1;visibility:visible" visibility="hidden"/><path d="m153.208 209.336 7.11-.834h2.167" style="fill:none;stroke:red;stroke-width:.666665;stroke-linecap:round;stroke-linejoin:round;stroke-miterlimit:4;stroke-dasharray:none;stroke-opacity:1;visibility:visible" visibility="hidden"/><path d="m89.081 115.325-4.349 2.138M140.081 160.398l12.127 2.062" style="fill:none;stroke:red;stroke-width:.999997;stroke-linecap:round;stroke-linejoin:round;stroke-miterlimit:4;stroke-dasharray:none;stroke-opacity:1;visibility:visible" visibility="hidden"/><path d="m84.732 117.463 4.349-2.138" style="fill:none;stroke:red;stroke-width:.666665;stroke-linecap:round;stroke-linejoin:round;stroke-miterlimit:4;stroke-dasharray:none;stroke-opacity:1;visibility:visible" visibility="hidden"/><path d="m628.79 144.71-442.145 56.683.116 8.76 3.403 2.716 443.166-57.66.087-8.144-4.627-2.355" style="fill:none;stroke:#00ff4a;stroke-width:1.99999;stroke-linecap:round;stroke-linejoin:round;stroke-miterlimit:4;stroke-dasharray:none;stroke-opacity:1;visibility:visible"/><path d="m186.645 201.394 3.484 2.731.035 8.744" style="fill:none;stroke:#00ff4a;stroke-width:1.99999;stroke-linecap:round;stroke-linejoin:round;stroke-miterlimit:4;stroke-dasharray:none;stroke-opacity:1;visibility:visible"/><path d="m633.416 147.065-443.287 57.06" style="fill:none;stroke:#00ff4a;stroke-width:.999997;stroke-linecap:round;stroke-linejoin:round;stroke-miterlimit:4;stroke-dasharray:none;stroke-opacity:1;visibility:visible"/><path d="M208.853 206.989c-.464.548-1.243.652-1.736.232-.495-.419-.519-1.203-.057-1.75.466-.545 1.242-.651 1.735-.231.495.42.522 1.204.058 1.749M195.978 202.006c0 .275-.728.498-1.626.498-.9 0-1.626-.224-1.626-.498s.727-.496 1.626-.496c.898-.001 1.626.222 1.626.496M618.852 153.672c-.367.534-1.034.717-1.488.405-.458-.313-.53-1-.162-1.537.368-.535 1.034-.716 1.49-.404.456.312.526 1 .16 1.536M627.457 146.598c0 .254-.665.46-1.485.46-.822-.001-1.487-.207-1.487-.461 0-.252.665-.456 1.487-.456.82 0 1.485.204 1.485.457" style="fill:none;stroke:#00ff4a;stroke-width:.666665;stroke-linecap:round;stroke-linejoin:round;stroke-miterlimit:4;stroke-dasharray:none;stroke-opacity:1;visibility:visible"/><path d="m195.978 202.006-5.814 10.863" style="fill:none;stroke:#00ff4a;stroke-width:1.99999;stroke-linecap:round;stroke-linejoin:round;stroke-miterlimit:4;stroke-dasharray:none;stroke-opacity:1;visibility:visible"/><path d="m190.164 212.869 5.814-10.863" style="fill:none;stroke:#00ff4a;stroke-width:.666665;stroke-linecap:round;stroke-linejoin:round;stroke-miterlimit:4;stroke-dasharray:none;stroke-opacity:1;visibility:visible"/><path d="m577.688 320.543-128.846 21.3-.22 40.197-7.6 1.338" style="fill:none;stroke:#9500ff;stroke-width:1.99999;stroke-linecap:round;stroke-linejoin:round;stroke-miterlimit:4;stroke-dasharray:none;stroke-opacity:1;visibility:visible" visibility="hidden"/><path d="m437.14 378.567.25-45.947 130.127-21.19" style="fill:none;stroke:#9500ff;stroke-width:1.99999;stroke-linecap:round;stroke-linejoin:round;stroke-miterlimit:4;stroke-dasharray:none;stroke-opacity:1;visibility:visible" visibility="hidden"/><path d="m441.263 335.355-3.873-2.735M441.002 382.886l.26-47.53 136.776-22.366" style="fill:none;stroke:#9500ff;stroke-width:.999997;stroke-linecap:round;stroke-linejoin:round;stroke-miterlimit:4;stroke-dasharray:none;stroke-opacity:1;visibility:visible" visibility="hidden"/><path d="m559.588 317.833 5.219-.856 2.609 1.733.021 1.168s-.207.773-2.15.92c-1.943.145-3.528-.668-3.528-.668l-2.194-1.4.023-.897M451.496 335.558l5.467-.89 2.361 1.706.024 1.316s-.21.775-2.15.921c-1.943.144-3.674-.608-3.674-.608l-2.048-1.548.02-.897" style="fill:none;stroke:#9500ff;stroke-width:.666665;stroke-linecap:round;stroke-linejoin:round;stroke-miterlimit:4;stroke-dasharray:none;stroke-opacity:1;visibility:visible" visibility="hidden"/><path d="M565.537 318.886c0 .225-.51.407-1.137.407-.63 0-1.14-.183-1.14-.407.001-.224.511-.407 1.14-.407.628.001 1.137.183 1.137.407M440.656 383.073l-4.518.836s-1.692.313-3.424-.129c-1.731-.442-1.75-1.16-1.75-1.16l.039-.791c.016-.894 1.73-1.207 1.73-1.207l4.919-.907 3.076 2.345M457.448 336.64c0 .257-.526.466-1.174.466-.646.001-1.172-.208-1.172-.466s.526-.469 1.172-.469c.648 0 1.174.211 1.174.469" style="fill:none;stroke:#9500ff;stroke-width:.666665;stroke-linecap:round;stroke-linejoin:round;stroke-miterlimit:4;stroke-dasharray:none;stroke-opacity:1;visibility:visible" visibility="hidden"/><path d="M436.059 381.765c0 .31-.635.56-1.417.56-.783.001-1.42-.249-1.42-.559.001-.311.638-.563 1.421-.563.781 0 1.416.252 1.416.562" style="fill:none;stroke:#9500ff;stroke-width:.666665;stroke-linecap:round;stroke-linejoin:round;stroke-miterlimit:4;stroke-dasharray:none;stroke-opacity:1;visibility:visible" visibility="hidden"/><path d="m661.954 374.282-134.56 24.205-.165 42.859-7.978 1.529" style="fill:none;stroke:#9500ff;stroke-width:1.99999;stroke-linecap:round;stroke-linejoin:round;stroke-miterlimit:4;stroke-dasharray:none;stroke-opacity:1;visibility:visible" visibility="hidden"/><path d="M514.867 438.007 515 388.61l136.458-24.255" style="fill:none;stroke:#9500ff;stroke-width:1.99999;stroke-linecap:round;stroke-linejoin:round;stroke-miterlimit:4;stroke-dasharray:none;stroke-opacity:1;visibility:visible" visibility="hidden"/><path d="m519.388 391.736-4.387-3.126M519.25 442.339l.137-50.603 142.997-25.513M657.833 363.222l4.724 2.978M574.039 310.367l4.168 2.604" style="fill:none;stroke:#9500ff;stroke-width:.999997;stroke-linecap:round;stroke-linejoin:round;stroke-miterlimit:4;stroke-dasharray:none;stroke-opacity:1;visibility:visible" visibility="hidden"/><path d="m518.867 442.491-4.79.993s-1.773.328-3.582-.133c-1.81-.463-2.099-1.268-2.099-1.268l-.013-1.044c.207-1.004 1.513-1.199 1.513-1.199l5.364-1.072 3.633 2.754M532.547 384.775s-1.512-1.141-4.357-.735c-2.053.293-1.933 1.121-1.933 1.121v.793M644.93 364.874s-1.378-.996-4.078-.795c-2.071.156-2.002 1.055-2.002 1.055v.793" style="fill:none;stroke:#9500ff;stroke-width:.666665;stroke-linecap:round;stroke-linejoin:round;stroke-miterlimit:4;stroke-dasharray:none;stroke-opacity:1;visibility:visible" visibility="hidden"/><path d="M513.879 440.886c0 .324-.664.586-1.483.586-.819 0-1.483-.261-1.483-.586 0-.324.664-.587 1.483-.587.819 0 1.484.263 1.484.587h-.001" style="fill:none;stroke:#9500ff;stroke-width:.666665;stroke-linecap:round;stroke-linejoin:round;stroke-miterlimit:4;stroke-dasharray:none;stroke-opacity:1;visibility:visible" visibility="hidden"/><path d="M658.041 141.894v-41.762l7.36-.925 4.827 2.123.136 312.942-7.566 1.42-4.688-3.149.023-36.437M658.105 362.829l-.03-209.332M585.956 115.584l-.05 30.941M585.876 165.344l-.303 192.906-7.217 1.253-4.184-2.793.078-34.563M574.27 309.85l.254-143.317M574.556 148.22l.15-85.213 7.186-.804 4.161 1.882-.123 39.443 71.53 33.71" style="fill:none;stroke:#9500ff;stroke-width:1.99999;stroke-linecap:round;stroke-linejoin:round;stroke-miterlimit:4;stroke-dasharray:none;stroke-opacity:1;visibility:visible" visibility="hidden"/><path d="m578.357 359.505.334-193.481M578.721 147.373l.14-82.052M658.194 100.661l4.656 2.055 7.035-.873M585.93 103.53l-7.04.83 78.604 37.362M574.86 63.555l4.039 1.78 6.984-.771" style="fill:none;stroke:#9500ff;stroke-width:.999997;stroke-linecap:round;stroke-linejoin:round;stroke-miterlimit:4;stroke-dasharray:none;stroke-opacity:1;visibility:visible" visibility="hidden"/><path d="m579.363 112.021 69.846 33.569" style="fill:none;stroke:#9500ff;stroke-width:1.99999;stroke-linecap:round;stroke-linejoin:round;stroke-miterlimit:4;stroke-dasharray:none;stroke-opacity:1;visibility:visible" visibility="hidden"/><path d="M662.798 415.691v-312.98" style="fill:none;stroke:#9500ff;stroke-width:.999997;stroke-linecap:round;stroke-linejoin:round;stroke-miterlimit:4;stroke-dasharray:none;stroke-opacity:1;visibility:visible" visibility="hidden"/><path d="M582.855 354.563c-.456.562-1.208.708-1.682.324-.473-.382-.49-1.15-.033-1.712.455-.561 1.208-.708 1.68-.324.473.383.491 1.15.035 1.712M667.27 148.305c-.378.468-1.03.565-1.458.217-.428-.345-.47-1.004-.092-1.472.378-.466 1.032-.565 1.46-.217.428.345.469 1.005.09 1.472M667.27 128.622c-.378.468-1.03.566-1.458.22-.428-.349-.47-1.007-.092-1.475.378-.467 1.032-.563 1.46-.217.428.347.469 1.004.09 1.472M581.772 63.51c0 .206-.622.37-1.387.37-.765-.001-1.385-.165-1.385-.37s.62-.367 1.385-.367c.766 0 1.387.164 1.387.367M665.606 100.73c0 .225-.668.41-1.489.41-.823 0-1.49-.184-1.49-.41.001-.227.668-.412 1.491-.412.82.001 1.489.186 1.489.411l-.001.001" style="fill:none;stroke:#9500ff;stroke-width:.666665;stroke-linecap:round;stroke-linejoin:round;stroke-miterlimit:4;stroke-dasharray:none;stroke-opacity:1;visibility:visible" visibility="hidden"/><path d="m658.094 142.776-6.104.801-1.831.877-.027 5.86.381.19 1.896.056.764-.152" style="fill:none;stroke:#9500ff;stroke-width:1.33333;stroke-linecap:round;stroke-linejoin:round;stroke-miterlimit:4;stroke-dasharray:none;stroke-opacity:1;visibility:visible" visibility="hidden"/><path d="m650.578 145.104 2.823 1.373-.008 5.377.416.196 2.301.342 6.106-.839" style="fill:none;stroke:#9500ff;stroke-width:1.33333;stroke-linecap:round;stroke-linejoin:round;stroke-miterlimit:4;stroke-dasharray:none;stroke-opacity:1;visibility:visible" visibility="hidden"/><path d="m653.769 146.157 2.283-.593 6.002-.73M656.429 144.278c0 .188-.54.34-1.205.34-.667-.001-1.208-.153-1.208-.341 0-.185.541-.337 1.208-.337.665 0 1.205.152 1.205.338M658.478 142.681l3.624 1.755" style="fill:none;stroke:#9500ff;stroke-width:.666665;stroke-linecap:round;stroke-linejoin:round;stroke-miterlimit:4;stroke-dasharray:none;stroke-opacity:1;visibility:visible" visibility="hidden"/><path d="M656.878 363.811a1.792 1.792 0 0 0-.721-.441M656.156 363.369a4.17 4.17 0 0 0-1.314-.215 4.2 4.2 0 0 0-1.314.216M653.528 363.373a1.832 1.832 0 0 0-.72.445M652.808 363.817a.807.807 0 0 0-.236.573M656.993 364.68a.408.408 0 0 0 .123-.298M652.572 364.391a.415.415 0 0 0 .121.299M652.694 364.687c.19.187.42.33.676.415M656.318 365.098c.254-.085.486-.228.675-.418M655.129 365.33a4.631 4.631 0 0 0 1.19-.233M573.276 311.185l.001 1.138M568.732 311.193l-.002 1.136M573.155 312.617a.413.413 0 0 0 .122-.295M568.732 312.329a.43.43 0 0 0 .125.294M568.857 312.622c.19.19.423.333.675.417M569.532 313.04a4.699 4.699 0 0 0 2.95-.006M572.481 313.037a1.73 1.73 0 0 0 .674-.419M573.276 311.185a.815.815 0 0 0-.239-.575M573.039 310.611a1.817 1.817 0 0 0-.723-.441M572.315 310.169a4.153 4.153 0 0 0-2.628.001M569.688 310.171a1.853 1.853 0 0 0-.719.446M568.97 310.618a.808.808 0 0 0-.238.575M573.153 311.48a.416.416 0 0 0 .123-.294M568.732 311.193a.413.413 0 0 0 .121.296M568.855 311.487a1.72 1.72 0 0 0 .675.415M572.479 311.9a1.733 1.733 0 0 0 .674-.42M571.29 312.13a4.684 4.684 0 0 0 1.19-.23M657.116 364.383l.001 1.139M652.572 364.391l-.002 1.139M656.994 365.815a.41.41 0 0 0 .123-.293M652.572 365.527a.44.44 0 0 0 .124.296M652.694 365.823a1.72 1.72 0 0 0 .676.417M653.372 366.24a4.653 4.653 0 0 0 1.476.234c.5.001.998-.079 1.474-.239M656.321 366.234c.253-.084.484-.23.673-.419" style="fill:none;stroke:#9500ff;stroke-width:.666665;stroke-linecap:round;stroke-linejoin:round;stroke-miterlimit:2;stroke-dasharray:none;stroke-opacity:1;visibility:visible" visibility="hidden"/><path d="M657.116 364.383a.804.804 0 0 0-.239-.572" style="fill:none;stroke:#9500ff;stroke-width:.666665;stroke-linecap:round;stroke-linejoin:round;stroke-miterlimit:2;stroke-dasharray:none;stroke-opacity:1;visibility:visible" visibility="hidden"/><path d="m559.588 317.833 18.1 2.71M436.059 381.765l1.081-3.198M559.588 317.833l7.929-6.403" style="fill:none;stroke:#9500ff;stroke-width:1.99999;stroke-linecap:round;stroke-linejoin:round;stroke-miterlimit:4;stroke-dasharray:none;stroke-opacity:1;visibility:visible" visibility="hidden"/><path d="m567.517 311.43-7.929 6.403M565.537 318.886l-5.949-1.053M457.448 336.64l-5.952-1.082M568.73 312.329l-3.193 6.557M559.588 317.833l5.949 1.053M451.496 335.558l5.952 1.082M437.14 378.567l-1.081 3.198" style="fill:none;stroke:#9500ff;stroke-width:.666665;stroke-linecap:round;stroke-linejoin:round;stroke-miterlimit:4;stroke-dasharray:none;stroke-opacity:1;visibility:visible" visibility="hidden"/><path d="m513.879 440.886.988-2.879" style="fill:none;stroke:#9500ff;stroke-width:1.99999;stroke-linecap:round;stroke-linejoin:round;stroke-miterlimit:4;stroke-dasharray:none;stroke-opacity:1;visibility:visible" visibility="hidden"/><path d="m519.388 391.736 13.159-6.961M662.557 366.2l-17.627-1.326M652.572 365.527l-13.722.4M514.867 438.007l-.988 2.879" style="fill:none;stroke:#9500ff;stroke-width:.666665;stroke-linecap:round;stroke-linejoin:round;stroke-miterlimit:4;stroke-dasharray:none;stroke-opacity:1;visibility:visible" visibility="hidden"/><path d="m657.117 365.522 1.016 10.584M656.429 144.278l1.646 9.219M585.876 165.344l.03-18.819M585.906 146.525l-.03 18.819M565.537 318.886l8.713 3.261M574.556 148.22l-.032 18.313M578.691 166.024l-4.135-17.804M658.478 142.681l-1.018-5.443" style="fill:none;stroke:#9500ff;stroke-width:1.99999;stroke-linecap:round;stroke-linejoin:round;stroke-miterlimit:4;stroke-dasharray:none;stroke-opacity:1;visibility:visible" visibility="hidden"/><path d="m574.556 148.22 4.135 17.804M578.691 166.024l.03-18.651M581.772 63.51l-2.911 1.811" style="fill:none;stroke:#9500ff;stroke-width:.999997;stroke-linecap:round;stroke-linejoin:round;stroke-miterlimit:4;stroke-dasharray:none;stroke-opacity:1;visibility:visible" visibility="hidden"/><path d="m650.578 145.104-1.369.486" style="fill:none;stroke:#9500ff;stroke-width:1.99999;stroke-linecap:round;stroke-linejoin:round;stroke-miterlimit:4;stroke-dasharray:none;stroke-opacity:1;visibility:visible" visibility="hidden"/><path d="M667.27 128.622v19.683M667.27 128.622v19.683M667.27 148.305v-19.683M667.27 148.305v-19.683M578.861 65.321l2.911-1.811" style="fill:none;stroke:#9500ff;stroke-width:.666665;stroke-linecap:round;stroke-linejoin:round;stroke-miterlimit:4;stroke-dasharray:none;stroke-opacity:1;visibility:visible" visibility="hidden"/><path d="m653.769 146.157-.596 4.251M649.209 145.59l1.369-.486" style="fill:none;stroke:#9500ff;stroke-width:1.33333;stroke-linecap:round;stroke-linejoin:round;stroke-miterlimit:4;stroke-dasharray:none;stroke-opacity:1;visibility:visible" visibility="hidden"/><path d="m653.173 150.408.596-4.251M658.041 141.894l-1.612 2.384M658.075 153.497l-1.646-9.219" style="fill:none;stroke:#9500ff;stroke-width:.666665;stroke-linecap:round;stroke-linejoin:round;stroke-miterlimit:4;stroke-dasharray:none;stroke-opacity:1;visibility:visible" visibility="hidden"/><path d="m652.572 365.527 2.557-.197" style="fill:none;stroke:#9500ff;stroke-width:.666665;stroke-linecap:round;stroke-linejoin:round;stroke-miterlimit:2;stroke-dasharray:none;stroke-opacity:1;visibility:visible" visibility="hidden"/></svg>