<svg xmlns="http://www.w3.org/2000/svg" baseProfile="full" height="1122.52" preserveAspectRatio="xMinYMin meet" style="width:602px;height:832px" width="793.701" xml:space="preserve"><path d="m419.35 556.268 244.415-54.97M157.18 827.18l.5 33.376-7.79 1.77-4.042-3.228-5.468-331.87 26.296-5.946M174.96 519.408l186.584-42.19M385.143 471.882l175.842-39.759M569.459 430.207l15.549-3.516 80.238 65.981-1.922 333.67-8.004 1.721-3.88-3.226 1.39-268.472M416.562 544.468l235.07-52.92" style="fill:none;stroke:red;stroke-width:1.99999;stroke-linecap:round;stroke-linejoin:round;stroke-miterlimit:4;stroke-dasharray:none;stroke-opacity:1;visibility:visible" visibility="hidden"/><path d="m141.273 536.152 80.056 64.65 169.806-38.19" style="fill:none;stroke:red;stroke-width:1.99999;stroke-linecap:round;stroke-linejoin:round;stroke-miterlimit:4;stroke-dasharray:none;stroke-opacity:1;visibility:visible" visibility="hidden"/><path d="m153.418 529.521 71.756 58.03 164.898-37.121" style="fill:none;stroke:red;stroke-width:1.99999;stroke-linecap:round;stroke-linejoin:round;stroke-miterlimit:4;stroke-dasharray:none;stroke-opacity:1;visibility:visible" visibility="hidden"/><path d="m665.245 492.672-247.653 55.71M390.736 554.423l-169.514 38.133-80.842-65.328" style="fill:none;stroke:red;stroke-width:.999997;stroke-linecap:round;stroke-linejoin:round;stroke-miterlimit:4;stroke-dasharray:none;stroke-opacity:1;visibility:visible" visibility="hidden"/><path d="m161.386 535.037 217.121-49.083M391.126 483.103l189.782-42.904 48.397 39.704M637.364 486.512l7.124 5.848" style="fill:none;stroke:red;stroke-width:1.99999;stroke-linecap:round;stroke-linejoin:round;stroke-miterlimit:4;stroke-dasharray:none;stroke-opacity:1;visibility:visible" visibility="hidden"/><path d="m152.46 528.695 14.241-3.222M174.938 523.61l186.946-42.27M387.107 475.635l174.17-39.383M569.752 434.336l11.167-2.525 48.28 39.65M636.537 477.486l16.577 13.614" style="fill:none;stroke:red;stroke-width:.999997;stroke-linecap:round;stroke-linejoin:round;stroke-miterlimit:4;stroke-dasharray:none;stroke-opacity:1;visibility:visible" visibility="hidden"/><path d="m576.287 725.666-.057 38.167 3.955 3.2 7.963-1.753.079-33.863M217.34 599.039l4.23 320.488 3.957 3.159 7.847-1.684-4.079-320.492M428.743 475.988l.217 46.196 4.028 3.328M441.583 511.08l135.254-30.518-.005-38.744M505.141 538.632l.075 45.701 4.01 3.315 146.131-32.759M610.968 500.668l-22.232-18.233M652.954 535.095l-30.012-24.61M152.72 546.985l4.162 262.8 62.888 50.292M576.695 573.987l-.378 138.578-35.132 7.76M650.64 764.686l-62.415-50.676.408-142.454" style="fill:none;stroke:red;stroke-width:1.99999;stroke-linecap:round;stroke-linejoin:round;stroke-miterlimit:4;stroke-dasharray:none;stroke-opacity:1;visibility:visible" visibility="hidden"/><path d="m541.73 732.494 38.547-8.524 70.192 56.954" style="fill:none;stroke:red;stroke-width:1.99999;stroke-linecap:round;stroke-linejoin:round;stroke-miterlimit:4;stroke-dasharray:none;stroke-opacity:1;visibility:visible" visibility="hidden"/><path d="m468.022 545.324 37.194 30.321M440.124 522.583l15.894 12.956" style="fill:none;stroke:red;stroke-width:.999997;stroke-linecap:round;stroke-linejoin:round;stroke-miterlimit:4;stroke-dasharray:none;stroke-opacity:1;visibility:visible" visibility="hidden"/><path d="m462.714 546.519 42.506 34.648M440.736 528.605l9.972 8.128" style="fill:none;stroke:red;stroke-width:1.99999;stroke-linecap:round;stroke-linejoin:round;stroke-miterlimit:4;stroke-dasharray:none;stroke-opacity:1;visibility:visible" visibility="hidden"/><path d="m509.228 587.648-.041-51.583" style="fill:none;stroke:red;stroke-width:.999997;stroke-linecap:round;stroke-linejoin:round;stroke-miterlimit:4;stroke-dasharray:none;stroke-opacity:1;visibility:visible" visibility="hidden"/><path d="m517.213 576.585-.023-42.314" style="fill:none;stroke:red;stroke-width:1.99999;stroke-linecap:round;stroke-linejoin:round;stroke-miterlimit:4;stroke-dasharray:none;stroke-opacity:1;visibility:visible" visibility="hidden"/><path d="m517.208 573.416 135.705-30.443M517.213 577.58l139.695-31.33" style="fill:none;stroke:red;stroke-width:.999997;stroke-linecap:round;stroke-linejoin:round;stroke-miterlimit:4;stroke-dasharray:none;stroke-opacity:1;visibility:visible" visibility="hidden"/><path d="m440.943 512.658-.153-40.788" style="fill:none;stroke:red;stroke-width:1.99999;stroke-linecap:round;stroke-linejoin:round;stroke-miterlimit:4;stroke-dasharray:none;stroke-opacity:1;visibility:visible" visibility="hidden"/><path d="m576.27 740.702-15.414-12.445M432.934 512.535l-.162-38.853M442.475 515.048l145.169-32.721" style="fill:none;stroke:red;stroke-width:.999997;stroke-linecap:round;stroke-linejoin:round;stroke-miterlimit:4;stroke-dasharray:none;stroke-opacity:1;visibility:visible" visibility="hidden"/><path d="m219.865 791.705-63.05 14.005M318.63 769.77l-86.948 19.31" style="fill:none;stroke:red;stroke-width:1.99999;stroke-linecap:round;stroke-linejoin:round;stroke-miterlimit:4;stroke-dasharray:none;stroke-opacity:1;visibility:visible" visibility="hidden"/><path d="m219.92 795.785-69.733 15.485M587.595 714.148l-48.552 10.778M321.034 773.334l-89.297 19.83" style="fill:none;stroke:red;stroke-width:.999997;stroke-linecap:round;stroke-linejoin:round;stroke-miterlimit:4;stroke-dasharray:none;stroke-opacity:1;visibility:visible" visibility="hidden"/><path d="m220.026 803.9-55.192 12.246M323.847 780.858l-92.01 20.419" style="fill:none;stroke:red;stroke-width:1.99999;stroke-linecap:round;stroke-linejoin:round;stroke-miterlimit:4;stroke-dasharray:none;stroke-opacity:1;visibility:visible" visibility="hidden"/><path d="m220.886 869.005-71.861-57.475M651.697 773.804l-74.853-60.847M221.226 592.987l4.301 329.699M657.145 502.794 655.38 828.04" style="fill:none;stroke:red;stroke-width:.999997;stroke-linecap:round;stroke-linejoin:round;stroke-miterlimit:4;stroke-dasharray:none;stroke-opacity:1;visibility:visible" visibility="hidden"/><path d="m220.991 877.063-71.02-56.78" style="fill:none;stroke:red;stroke-width:1.99999;stroke-linecap:round;stroke-linejoin:round;stroke-miterlimit:4;stroke-dasharray:none;stroke-opacity:1;visibility:visible" visibility="hidden"/><path d="m580.617 571.645-.432 195.388M580.91 440.198l-.096 42.83" style="fill:none;stroke:red;stroke-width:.999997;stroke-linecap:round;stroke-linejoin:round;stroke-miterlimit:4;stroke-dasharray:none;stroke-opacity:1;visibility:visible" visibility="hidden"/><path d="m588.933 446.788-.09 35.736" style="fill:none;stroke:red;stroke-width:1.99999;stroke-linecap:round;stroke-linejoin:round;stroke-miterlimit:4;stroke-dasharray:none;stroke-opacity:1;visibility:visible" visibility="hidden"/><path d="M577.993 765.893v1.404s.563 1.653 3.932 1.653c3.372 0 4.339-1.248 4.4-1.872l.032-.966M653.198 826.855v1.405s.563 1.655 3.932 1.655c3.372 0 4.34-1.25 4.402-1.872l.03-.966M223.326 921.522v1.404s.561 1.656 3.932 1.656c3.37 0 4.339-1.25 4.402-1.872l.03-.967M147.617 861.085v1.404s.561 1.656 3.932 1.656c3.37 0 4.339-1.251 4.401-1.872l.03-.97M144.589 538.82l5.26 323.45" style="fill:none;stroke:red;stroke-width:.999997;stroke-linecap:round;stroke-linejoin:round;stroke-miterlimit:4;stroke-dasharray:none;stroke-opacity:1;visibility:visible" visibility="hidden"/><path d="m567.533 439.116 1.459 1.211.041 1.5s-1.583 2.25-6.125.5l-2.125-1.79.042-.919 1.975-.46M368.888 482.974l2.46 2.04.039 1.501s-1.581 2.252-6.124.5l-2.125-1.79.042-.918M172.346 527.39l2.459 2.04.041 1.5s-1.582 2.252-6.125.5l-2.125-1.79.042-.917" style="fill:none;stroke:red;stroke-width:.666665;stroke-linecap:round;stroke-linejoin:round;stroke-miterlimit:4;stroke-dasharray:none;stroke-opacity:1;visibility:visible" visibility="hidden"/><path d="M146.796 544.708a1.608 1.608 0 0 1 .018-.793M146.813 543.915a3.747 3.747 0 0 1 1.699-2.21M150.736 543.607a3.357 3.357 0 0 1-1.516 1.97M149.22 545.575a1.779 1.779 0 0 1-.814.235M148.406 545.81a1.013 1.013 0 0 1-.649-.216M147.757 545.593a.532.532 0 0 1-.19-.293M147.566 545.301a1.599 1.599 0 0 1 .02-.794M583.964 446.986l-.77-.596M583.193 446.391a.521.521 0 0 1-.19-.292M583.003 446.099a1.608 1.608 0 0 1 .017-.793M583.021 445.306a3.783 3.783 0 0 1 1.699-2.21M586.943 444.998a3.357 3.357 0 0 1-1.516 1.969M585.427 446.967a1.747 1.747 0 0 1-.814.235M584.612 447.202a1.01 1.01 0 0 1-.65-.216M583.964 446.986a.53.53 0 0 1-.19-.296M583.773 446.692a1.593 1.593 0 0 1 .02-.792M147.757 545.593l-.77-.593" style="fill:none;stroke:red;stroke-width:.666665;stroke-linecap:round;stroke-linejoin:round;stroke-miterlimit:2;stroke-dasharray:none;stroke-opacity:1;visibility:visible" visibility="hidden"/><path d="M146.986 544.999a.513.513 0 0 1-.19-.292" style="fill:none;stroke:red;stroke-width:.666665;stroke-linecap:round;stroke-linejoin:round;stroke-miterlimit:2;stroke-dasharray:none;stroke-opacity:1;visibility:visible" visibility="hidden"/><path d="m576.796 480.58 4.014 3.29M652.914 542.975l3.996 3.277" style="fill:none;stroke:red;stroke-width:.999997;stroke-linecap:round;stroke-linejoin:round;stroke-miterlimit:4;stroke-dasharray:none;stroke-opacity:1;visibility:visible" visibility="hidden"/><path d="m653.118 503.7-.2 38.22" style="fill:none;stroke:red;stroke-width:1.99999;stroke-linecap:round;stroke-linejoin:round;stroke-miterlimit:4;stroke-dasharray:none;stroke-opacity:1;visibility:visible" visibility="hidden"/><path d="m634.928 475.179.65-.159.483-.198.273-.216.062-.162" style="fill:none;stroke:red;stroke-width:.666665;stroke-linecap:round;stroke-linejoin:round;stroke-miterlimit:4;stroke-dasharray:none;stroke-opacity:1;visibility:visible" visibility="hidden"/><path d="m174.96 519.408-8.284 1.874M166.676 521.282l8.284-1.874M378.507 485.954l6.636-14.072M569.459 430.207l-8.474 1.916M560.985 432.123l8.474-1.916M652.918 541.92l-.088 14.445M146.986 544.999l-5.713-8.847M146.986 544.999l6.432-15.478" style="fill:none;stroke:red;stroke-width:1.99999;stroke-linecap:round;stroke-linejoin:round;stroke-miterlimit:4;stroke-dasharray:none;stroke-opacity:1;visibility:visible" visibility="hidden"/><path d="m146.986 544.999-6.606-17.771" style="fill:none;stroke:red;stroke-width:.999997;stroke-linecap:round;stroke-linejoin:round;stroke-miterlimit:4;stroke-dasharray:none;stroke-opacity:1;visibility:visible" visibility="hidden"/><path d="m166.701 525.473-5.315 9.564M391.126 483.103l-12.619 2.851M378.507 485.954l12.619-2.851M636.537 477.486l-7.232 2.417M629.305 479.903l8.059 6.609M636.537 477.486l7.951 14.874" style="fill:none;stroke:red;stroke-width:1.99999;stroke-linecap:round;stroke-linejoin:round;stroke-miterlimit:4;stroke-dasharray:none;stroke-opacity:1;visibility:visible" visibility="hidden"/><path d="m166.676 521.282-14.216 7.413M174.938 523.61l-8.237 1.863M166.701 525.473l8.237-1.863M378.507 485.954l8.6-10.319M569.752 434.336l-8.475 1.916M562.8 439.158l6.952-4.822M636.537 477.486l-7.338-6.025M629.305 479.903l7.232-2.417M637.364 486.512l15.75 4.588" style="fill:none;stroke:red;stroke-width:.999997;stroke-linecap:round;stroke-linejoin:round;stroke-miterlimit:4;stroke-dasharray:none;stroke-opacity:1;visibility:visible" visibility="hidden"/><path d="m440.124 522.583-7.136 2.929M622.942 510.485l-11.974-9.817M652.914 542.975l.04-7.88M610.968 500.668l11.974 9.817" style="fill:none;stroke:red;stroke-width:1.99999;stroke-linecap:round;stroke-linejoin:round;stroke-miterlimit:4;stroke-dasharray:none;stroke-opacity:1;visibility:visible" visibility="hidden"/><path d="m456.018 535.539 12.004 9.785M432.988 525.512l7.136-2.929M462.714 546.519l-6.696-10.98" style="fill:none;stroke:red;stroke-width:.999997;stroke-linecap:round;stroke-linejoin:round;stroke-miterlimit:4;stroke-dasharray:none;stroke-opacity:1;visibility:visible" visibility="hidden"/><path d="m456.018 535.539 6.696 10.98M432.988 525.512l7.748 3.093M462.714 546.519l-12.006-9.786M231.737 793.164l-11.872-1.459M219.865 791.705l11.817-2.625" style="fill:none;stroke:red;stroke-width:1.99999;stroke-linecap:round;stroke-linejoin:round;stroke-miterlimit:4;stroke-dasharray:none;stroke-opacity:1;visibility:visible" visibility="hidden"/><path d="m231.737 793.164-11.817 2.621M219.865 791.705l11.872 1.459" style="fill:none;stroke:red;stroke-width:.999997;stroke-linecap:round;stroke-linejoin:round;stroke-miterlimit:4;stroke-dasharray:none;stroke-opacity:1;visibility:visible" visibility="hidden"/><path d="m231.837 801.277-11.811 2.623M220.026 803.9l11.811-2.623" style="fill:none;stroke:red;stroke-width:1.99999;stroke-linecap:round;stroke-linejoin:round;stroke-miterlimit:4;stroke-dasharray:none;stroke-opacity:1;visibility:visible" visibility="hidden"/><path d="m223.326 921.522 2.201 1.164M653.198 826.855l2.182 1.185M577.993 765.893l2.192 1.14M580.185 767.033l-2.192-1.14M580.185 767.033l6.172-.921M655.38 828.04l-2.182-1.185M655.38 828.04l6.182-.963M225.527 922.686l-2.201-1.164M225.527 922.686l6.163-.943M149.849 862.27l-2.232-1.185M149.849 862.27l6.131-.967M147.617 861.085l2.232 1.185" style="fill:none;stroke:red;stroke-width:.999997;stroke-linecap:round;stroke-linejoin:round;stroke-miterlimit:4;stroke-dasharray:none;stroke-opacity:1;visibility:visible" visibility="hidden"/><path d="m583.193 446.391-15.66-7.275M569.752 434.336l-6.952 4.822" style="fill:none;stroke:red;stroke-width:.666665;stroke-linecap:round;stroke-linejoin:round;stroke-miterlimit:4;stroke-dasharray:none;stroke-opacity:1;visibility:visible" visibility="hidden"/><path d="m149.22 545.577-.708-3.872M146.813 543.915l3.923-.308M585.427 446.967l-.707-3.871M583.021 445.306l3.922-.308" style="fill:none;stroke:red;stroke-width:.666665;stroke-linecap:round;stroke-linejoin:round;stroke-miterlimit:2;stroke-dasharray:none;stroke-opacity:1;visibility:visible" visibility="hidden"/><path d="m652.83 556.365.088-14.445" style="fill:none;stroke:red;stroke-width:1.99999;stroke-linecap:round;stroke-linejoin:round;stroke-miterlimit:4;stroke-dasharray:none;stroke-opacity:1;visibility:visible" visibility="hidden"/><path d="m423.088 340.52 158.09-36.025 72.001 59.376-.021 2.832-428.957 97.312-72.459-58.792-.062-2.853 249.71-56.905" style="fill:none;stroke:#00ff4a;stroke-width:1.99999;stroke-linecap:round;stroke-linejoin:round;stroke-miterlimit:4;stroke-dasharray:none;stroke-opacity:1;visibility:visible"/><path d="m579.772 334.455-65.368 42.715M517.793 353.66l-65.165 42.625M525.363 331.917l-65.245 42.71M366.32 377.682l-64.734 42.5M304.753 396.784l-64.53 42.412M312.1 375.145l-64.61 42.498M224.16 461.203v2.75M151.68 402.37l72.478 58.834 429.02-97.333" style="fill:none;stroke:#00ff4a;stroke-width:.666665;stroke-linecap:round;stroke-linejoin:round;stroke-miterlimit:4;stroke-dasharray:none;stroke-opacity:1;visibility:visible"/><path d="m378.507 485.954-16.963-8.736" style="fill:none;stroke:red;stroke-width:1.99999;stroke-linecap:round;stroke-linejoin:round;stroke-miterlimit:4;stroke-dasharray:none;stroke-opacity:1;visibility:visible" visibility="hidden"/><path d="m378.507 485.954-16.623-4.614" style="fill:none;stroke:red;stroke-width:.999997;stroke-linecap:round;stroke-linejoin:round;stroke-miterlimit:4;stroke-dasharray:none;stroke-opacity:1;visibility:visible" visibility="hidden"/><path d="m636.537 477.486-1.609-2.307" style="fill:none;stroke:red;stroke-width:.666665;stroke-linecap:round;stroke-linejoin:round;stroke-miterlimit:4;stroke-dasharray:none;stroke-opacity:1;visibility:visible" visibility="hidden"/></svg>