<svg xmlns="http://www.w3.org/2000/svg" baseProfile="full" height="1122.52" preserveAspectRatio="xMinYMin meet" style="width:602px;height:832px" width="793.701" xml:space="preserve"><path d="m652.694 414.075-153.67-82.37.692-117.176M499.765 206.029l.02-3.076M357.24 358.573l-.07-141.797" style="fill:none;stroke:red;stroke-width:1.99999;stroke-linecap:round;stroke-linejoin:round;stroke-miterlimit:4;stroke-dasharray:none;stroke-opacity:1;visibility:visible"/><path d="m360.32 361.682-.049-143.325" style="fill:none;stroke:red;stroke-width:.999997;stroke-linecap:round;stroke-linejoin:round;stroke-miterlimit:4;stroke-dasharray:none;stroke-opacity:1;visibility:visible"/><path d="m499.021 332.167-9.98 2.126M480.19 336.175l-95.253 20.27M376.018 358.342l-14.835 3.156M499.765 206.029l-.049 8.5M499.716 214.529l.049-8.5M480.19 336.175l8.851-1.882M489.041 334.293l-8.851 1.882M376.018 358.342l8.919-1.897M384.937 356.445l-8.919 1.897" style="fill:none;stroke:red;stroke-width:1.99999;stroke-linecap:round;stroke-linejoin:round;stroke-miterlimit:4;stroke-dasharray:none;stroke-opacity:1;visibility:visible"/><path d="M235.13 568.681 53.197 417.895 50.8 247.578l428.413-72.15 223.11 98.466" style="fill:none;stroke:#00ff4a;stroke-width:1.99999;stroke-linecap:round;stroke-linejoin:round;stroke-miterlimit:4;stroke-dasharray:none;stroke-opacity:1;visibility:visible" visibility="hidden"/><path d="m694.785 284.269-187.116-84.095-134.195 23.704-28.796-14.654-269.264 45.973" style="fill:none;stroke:#00ff4a;stroke-width:1.99999;stroke-linecap:round;stroke-linejoin:round;stroke-miterlimit:4;stroke-dasharray:none;stroke-opacity:1;visibility:visible" visibility="hidden"/><path d="m353.926 200.889 22.398 11.136 122.881-21.359" style="fill:none;stroke:#00ff4a;stroke-width:1.99999;stroke-linecap:round;stroke-linejoin:round;stroke-miterlimit:4;stroke-dasharray:none;stroke-opacity:1;visibility:visible" visibility="hidden"/><path d="m345.2 201.54 28.277 14.174 133.281-23.288" style="fill:none;stroke:#00ff4a;stroke-width:.999997;stroke-linecap:round;stroke-linejoin:round;stroke-miterlimit:4;stroke-dasharray:none;stroke-opacity:1;visibility:visible" visibility="hidden"/><path d="m669.122 273.589-1.96 148.28 32.604 17.501M63.564 266.073l1.904 144.72 136.44 110.945M641.736 422.38 525.39 359.05M502.788 349.711l-94.708 20.647M397.923 372.573l-24.479 5.337-28.732-17.729-127.34 26.978M227.4 541.121l208.107-52.42M462.695 481.855l197.02-49.628 32.31 17.537M368.504 360.703l7.688 4.647 6.574-1.412M393.18 361.706l94.133-20.187M497.39 339.357l3.326-.714M217.92 528.692l216.323-53.708M458.803 468.888l195.09-48.433L655.82 267.9" style="fill:none;stroke:#00ff4a;stroke-width:1.99999;stroke-linecap:round;stroke-linejoin:round;stroke-miterlimit:4;stroke-dasharray:none;stroke-opacity:1;visibility:visible" visibility="hidden"/><path d="M482.405 177.902 54.643 250.117l2.376 170.517M345.254 352.642l28.19 17.215 16.706-3.607M397.046 364.762l97.838-21.104M501.719 342.183l5.01-1.081-.022 3.263M666.586 422.018l-206.458 51.506M434.874 479.826 208.269 536.36M234.114 547.967l6.581-10.178M373.444 377.911v-8.056M373.475 223.88l.003-8.166" style="fill:none;stroke:#00ff4a;stroke-width:.999997;stroke-linecap:round;stroke-linejoin:round;stroke-miterlimit:4;stroke-dasharray:none;stroke-opacity:1;visibility:visible" visibility="hidden"/><path d="m363.896 205.869 113.132-19.365 11.757 5.333M73.75 417.531l128.013-27.079" style="fill:none;stroke:#00ff4a;stroke-width:1.99999;stroke-linecap:round;stroke-linejoin:round;stroke-miterlimit:4;stroke-dasharray:none;stroke-opacity:1;visibility:visible" visibility="hidden"/><path d="m244.04 373.395 113.196-23.705M216.1 379.247l11.257-2.357M57.061 412.551l144.641-30.288" style="fill:none;stroke:#00ff4a;stroke-width:.999997;stroke-linecap:round;stroke-linejoin:round;stroke-miterlimit:4;stroke-dasharray:none;stroke-opacity:1;visibility:visible" visibility="hidden"/><path d="m283.838 361.309 73.396-15.3M243.409 369.733l31.697-6.604M85.838 402.578l115.836-24.141M65.417 406.834l11.924-2.484" style="fill:none;stroke:#00ff4a;stroke-width:1.99999;stroke-linecap:round;stroke-linejoin:round;stroke-miterlimit:4;stroke-dasharray:none;stroke-opacity:1;visibility:visible" visibility="hidden"/><path d="m51.192 247.838 182.414 123.43M477.064 178.776l217.366 96.502" style="fill:none;stroke:#00ff4a;stroke-width:.999997;stroke-linecap:round;stroke-linejoin:round;stroke-miterlimit:4;stroke-dasharray:none;stroke-opacity:1;visibility:visible" visibility="hidden"/><path d="m55.813 259.466 177.854 121.739M64.192 249.3l178.982 119.975" style="fill:none;stroke:#00ff4a;stroke-width:1.99999;stroke-linecap:round;stroke-linejoin:round;stroke-miterlimit:4;stroke-dasharray:none;stroke-opacity:1;visibility:visible" visibility="hidden"/><path d="m206.546 362.642 1.224 173.843M661.826 269.477l-2.078 162.75" style="fill:none;stroke:#00ff4a;stroke-width:.999997;stroke-linecap:round;stroke-linejoin:round;stroke-miterlimit:4;stroke-dasharray:none;stroke-opacity:1;visibility:visible" visibility="hidden"/><path d="m201.536 359.211 1.25 171.972M216.033 369.135l1.093 165.015" style="fill:none;stroke:#00ff4a;stroke-width:1.99999;stroke-linecap:round;stroke-linejoin:round;stroke-miterlimit:4;stroke-dasharray:none;stroke-opacity:1;visibility:visible" visibility="hidden"/><path d="M56.907 412.586 234.71 558.608M492.657 333.522l199.427 107.557" style="fill:none;stroke:#00ff4a;stroke-width:.999997;stroke-linecap:round;stroke-linejoin:round;stroke-miterlimit:4;stroke-dasharray:none;stroke-opacity:1;visibility:visible" visibility="hidden"/><path d="m217.127 534.15 27.073 22.02" style="fill:none;stroke:#00ff4a;stroke-width:1.99999;stroke-linecap:round;stroke-linejoin:round;stroke-miterlimit:4;stroke-dasharray:none;stroke-opacity:1;visibility:visible" visibility="hidden"/><path d="m476.97 194.566.077-15.621" style="fill:none;stroke:#00ff4a;stroke-width:.999997;stroke-linecap:round;stroke-linejoin:round;stroke-miterlimit:4;stroke-dasharray:none;stroke-opacity:1;visibility:visible" visibility="hidden"/><path d="m472.185 195.402.032-8.072" style="fill:none;stroke:#00ff4a;stroke-width:1.99999;stroke-linecap:round;stroke-linejoin:round;stroke-miterlimit:4;stroke-dasharray:none;stroke-opacity:1;visibility:visible" visibility="hidden"/><path d="M244.278 559.544c1.737 1.397 1.69 4.337-.098 6.561-1.793 2.225-4.654 2.891-6.389 1.492M243.949 556.21l-9.223 2.383.084 9.507M676.709 441.435l-37.596-4.03M507.61 192.336l-.05 7.88" style="fill:none;stroke:#00ff4a;stroke-width:.999997;stroke-linecap:round;stroke-linejoin:round;stroke-miterlimit:4;stroke-dasharray:none;stroke-opacity:1;visibility:visible" visibility="hidden"/><path d="M237.791 567.597c-1.741-1.4-1.696-4.337.096-6.56 1.79-2.226 4.651-2.894 6.391-1.494" style="fill:none;stroke:#00ff4a;stroke-width:.666665;stroke-linecap:round;stroke-linejoin:round;stroke-miterlimit:4;stroke-dasharray:none;stroke-opacity:1;visibility:visible" visibility="hidden"/><path d="M236.791 566.765c-1.741-1.4-1.694-4.338.096-6.562s4.653-2.89 6.391-1.49" style="fill:none;stroke:#00ff4a;stroke-width:.666665;stroke-linecap:round;stroke-linejoin:round;stroke-miterlimit:4;stroke-dasharray:none;stroke-opacity:1;visibility:visible" visibility="hidden"/><path d="M243.234 372.406c1.793 1.464 1.807 4.413.036 6.584-1.776 2.168-4.67 2.739-6.46 1.27M242.617 369.378l-9.04 1.89.083 9.51" style="fill:none;stroke:#00ff4a;stroke-width:.999997;stroke-linecap:round;stroke-linejoin:round;stroke-miterlimit:4;stroke-dasharray:none;stroke-opacity:1;visibility:visible" visibility="hidden"/><path d="M236.81 380.26c-1.8-1.47-1.813-4.418-.037-6.587 1.767-2.169 4.664-2.739 6.46-1.267" style="fill:none;stroke:#00ff4a;stroke-width:.666665;stroke-linecap:round;stroke-linejoin:round;stroke-miterlimit:4;stroke-dasharray:none;stroke-opacity:1;visibility:visible" visibility="hidden"/><path d="M235.66 379.369c-1.721-1.54-1.588-4.489.294-6.59 1.873-2.098 4.792-2.557 6.509-1.019" style="fill:none;stroke:#00ff4a;stroke-width:.666665;stroke-linecap:round;stroke-linejoin:round;stroke-miterlimit:4;stroke-dasharray:none;stroke-opacity:1;visibility:visible" visibility="hidden"/><path d="M699.534 441.492c1.648.82 2.104 3.256 1.022 5.443-1.087 2.184-3.303 3.29-4.948 2.472M699.086 439.266l-7.028 1.813-.138 8.415" style="fill:none;stroke:#00ff4a;stroke-width:.999997;stroke-linecap:round;stroke-linejoin:round;stroke-miterlimit:4;stroke-dasharray:none;stroke-opacity:1;visibility:visible" visibility="hidden"/><path d="M695.608 449.406c-1.654-.822-2.112-3.259-1.028-5.443 1.086-2.185 3.304-3.292 4.954-2.472" style="fill:none;stroke:#00ff4a;stroke-width:.666665;stroke-linecap:round;stroke-linejoin:round;stroke-miterlimit:4;stroke-dasharray:none;stroke-opacity:1;visibility:visible" visibility="hidden"/><path d="M694.462 448.782c-1.69-.84-2.177-3.29-1.088-5.474 1.082-2.184 3.33-3.277 5.02-2.438" style="fill:none;stroke:#00ff4a;stroke-width:.666665;stroke-linecap:round;stroke-linejoin:round;stroke-miterlimit:4;stroke-dasharray:none;stroke-opacity:1;visibility:visible" visibility="hidden"/><path d="M701.854 275.838c1.648.819 2.12 3.227 1.056 5.37-1.068 2.15-3.268 3.224-4.914 2.404M701.516 273.773l-7.07 1.513-.136 8.416" style="fill:none;stroke:#00ff4a;stroke-width:.999997;stroke-linecap:round;stroke-linejoin:round;stroke-miterlimit:4;stroke-dasharray:none;stroke-opacity:1;visibility:visible" visibility="hidden"/><path d="M697.996 283.613c-1.654-.82-2.128-3.227-1.06-5.37 1.064-2.149 3.266-3.223 4.918-2.403M389.071 365.563l-4.296.975-.424-.392-.027-4.232s.327-3.18 2.723-3.417c2.915-.287 3.145 2.418 3.145 2.418M276.535 364.237l-.025-4.232s.335-3.18 2.805-3.416c3.007-.289 3.245 2.416 3.245 2.416l.023 4.39-5.61 1.235-.438-.393M78.2 405.655l-.028-4.472s.361-3.361 3.028-3.61c3.245-.306 3.5 2.553 3.5 2.553l.028 4.64-6.056 1.306-.472-.417M224.455 538.241c-.605.77-1.584 1.009-2.185.534-.607-.472-.608-1.483-.005-2.252.608-.768 1.588-1.01 2.193-.534.603.474.6 1.482-.003 2.252M655.905 429.727c-.399.733-1.17 1.081-1.725.781-.556-.302-.687-1.14-.29-1.872.398-.733 1.171-1.085 1.728-.78.554.3.682 1.138.287 1.871" style="fill:none;stroke:#00ff4a;stroke-width:.666665;stroke-linecap:round;stroke-linejoin:round;stroke-miterlimit:4;stroke-dasharray:none;stroke-opacity:1;visibility:visible" visibility="hidden"/><path d="M696.85 282.986c-1.69-.836-2.193-3.255-1.122-5.403 1.062-2.143 3.294-3.206 4.984-2.368M494.025 342.96l-5.084 1.18-.59-.354-.026-4.156s.315-3.123 2.635-3.355c2.82-.281 3.041 2.372 3.041 2.372M386.916 362.729c-.445-.284-.524-.963-.172-1.519.351-.553.998-.776 1.443-.495M340.587 202.446s-2.944.708-3.084 3.96c-.139 3.252 3.557 3.111 3.557 3.111M345.087 202.072l.028 6.584M82.977 253.88l.007 2.663s-.272 2.66-2.075 3.572M282.034 219.989l.007 2.427s-.336 3.277-2.806 3.52c-3.005.301-3.242-2.49-3.242-2.49l-.006-2.424M462.275 189.328l.005 2.25s-.31 3.039-2.598 3.264c-2.784.276-3.006-2.308-3.006-2.308l-.005-2.248M387.018 225.909c-.454-.287-.531-.972-.178-1.535.358-.56 1.011-.784 1.462-.5M390.319 221.168l.019 3.218M387.587 227.838c-2.945.292-3.18-2.442-3.18-2.442l-.015-3.054M491.553 207.385c-.437-.276-.513-.94-.169-1.479.343-.544.976-.758 1.412-.484M494.744 202.805l.019 3.11M492.105 209.25c-2.845.282-3.073-2.36-3.073-2.36l-.015-2.95M340.754 353.822s-2.944.695-3.084 3.89c-.14 3.193 3.556 3.053 3.556 3.053M345.171 353.322l.029 6.584" style="fill:none;stroke:#00ff4a;stroke-width:.666665;stroke-linecap:round;stroke-linejoin:round;stroke-miterlimit:4;stroke-dasharray:none;stroke-opacity:1;visibility:visible" visibility="hidden"/><path d="M490.832 340.429c-.43-.276-.505-.943-.164-1.49.339-.544.964-.762 1.396-.485" style="fill:none;stroke:#00ff4a;stroke-width:.666665;stroke-linecap:round;stroke-linejoin:round;stroke-miterlimit:4;stroke-dasharray:none;stroke-opacity:1;visibility:visible" visibility="hidden"/><path d="M341.02 356.88c.256-.29.556-.535.894-.736M343.262 205.276a1.68 1.68 0 0 1-.018.846M343.246 206.122a3.357 3.357 0 0 1-1.516 1.97M341.731 208.092a1.756 1.756 0 0 1-.816.234M340.915 208.326a.999.999 0 0 1-.65-.216M342.558 204.593a.539.539 0 0 1 .334.112M340.266 208.109a.524.524 0 0 1-.19-.292M340.076 207.817a1.608 1.608 0 0 1 .02-.793M341.796 204.814a1.62 1.62 0 0 1 .762-.221M340.903 205.549a3.82 3.82 0 0 1 .893-.735M343.01 356.037l-.774-.594M340.383 359.442l-.77-.596M341.903 355.33a.52.52 0 0 1 .333.112M339.612 358.847a.513.513 0 0 1-.19-.292M339.422 358.555a1.63 1.63 0 0 1 .017-.794M339.44 357.76c.133-.464.347-.894.637-1.27a3.852 3.852 0 0 1 1.062-.939M341.14 355.551c.222-.131.485-.21.762-.221M343.01 356.037a.979.979 0 0 1 .37.569M343.38 356.606a1.71 1.71 0 0 1-.018.847M343.362 357.453a3.357 3.357 0 0 1-1.516 1.969M341.847 359.422a1.779 1.779 0 0 1-.813.236M341.032 359.658a1.017 1.017 0 0 1-.649-.215M342.675 355.925a.523.523 0 0 1 .335.112M340.383 359.442a.536.536 0 0 1-.19-.296M340.192 359.147a1.593 1.593 0 0 1 .02-.793" style="fill:none;stroke:#00ff4a;stroke-width:.666665;stroke-linecap:round;stroke-linejoin:round;stroke-miterlimit:2;stroke-dasharray:none;stroke-opacity:1;visibility:visible" visibility="hidden"/><path d="M341.912 356.145c.222-.135.484-.207.762-.22M339.303 207.225a1.613 1.613 0 0 1 .02-.795M339.323 206.429a3.777 3.777 0 0 1 1.699-2.21M341.023 204.218a1.67 1.67 0 0 1 .764-.218M342.892 204.706a.977.977 0 0 1 .37.571M66.12 412.608v1.186M61.399 412.618l-.003 1.182M65.993 414.1a.427.427 0 0 0 .13-.307M61.396 413.8a.447.447 0 0 0 .13.303M61.527 414.106c.193.197.438.346.7.433M62.227 414.54a4.79 4.79 0 0 0 1.533.243 4.731 4.731 0 0 0 1.531-.248M65.293 414.534c.267-.088.503-.239.7-.435M66.12 412.608a.83.83 0 0 0-.25-.593M65.872 412.015a1.879 1.879 0 0 0-.75-.46M65.12 411.555a4.29 4.29 0 0 0-1.364-.225 4.467 4.467 0 0 0-1.366.225M62.39 411.555a1.943 1.943 0 0 0-.746.467M61.643 412.02a.828.828 0 0 0-.246.596M65.993 412.916a.427.427 0 0 0 .127-.308M61.399 412.618a.423.423 0 0 0 .125.308M61.524 412.926c.195.194.436.344.701.43M65.292 413.354c.265-.092.505-.239.701-.438M64.055 413.592a4.864 4.864 0 0 0 1.237-.238M504.663 195.685l-.773-.595M502.035 199.09l-.77-.596M503.556 194.98a.516.516 0 0 1 .335.11M501.265 198.496a.519.519 0 0 1-.19-.291M501.076 198.202a1.597 1.597 0 0 1 .019-.794M501.093 197.409a3.764 3.764 0 0 1 1.7-2.208M502.793 195.201c.224-.133.487-.21.763-.221M504.663 195.685a.98.98 0 0 1 .37.572M505.033 196.257a1.675 1.675 0 0 1-.02.845M505.015 197.102a3.34 3.34 0 0 1-1.515 1.97M503.5 199.07a1.747 1.747 0 0 1-.813.235M502.687 199.305a1.005 1.005 0 0 1-.65-.215M504.328 195.573a.523.523 0 0 1 .335.112M502.035 199.09a.537.537 0 0 1-.19-.293M501.847 198.797a1.598 1.598 0 0 1 .02-.795" style="fill:none;stroke:#00ff4a;stroke-width:.666665;stroke-linecap:round;stroke-linejoin:round;stroke-miterlimit:2;stroke-dasharray:none;stroke-opacity:1;visibility:visible" visibility="hidden"/><path d="M503.567 195.793a1.62 1.62 0 0 1 .761-.22M502.673 196.529c.257-.287.557-.533.894-.735M342.892 204.706l-.772-.596M340.266 208.109l-.77-.593M341.786 204.001a.521.521 0 0 1 .333.11M339.495 207.516a.53.53 0 0 1-.192-.292" style="fill:none;stroke:#00ff4a;stroke-width:.666665;stroke-linecap:round;stroke-linejoin:round;stroke-miterlimit:2;stroke-dasharray:none;stroke-opacity:1;visibility:visible" visibility="hidden"/><path d="m357.236 353.902-4.078-2.47" style="fill:none;stroke:#00ff4a;stroke-width:1.99999;stroke-linecap:round;stroke-linejoin:round;stroke-miterlimit:4;stroke-dasharray:none;stroke-opacity:1;visibility:visible" visibility="hidden"/><path d="m376.071 354.805 7.716 4.805M520.188 357.83a.787.787 0 0 0 .627.092M521.585 357.526a4.25 4.25 0 0 0 1.375-2.303" style="fill:none;stroke:#00ff4a;stroke-width:.666665;stroke-linecap:round;stroke-linejoin:round;stroke-miterlimit:2;stroke-dasharray:none;stroke-opacity:1;visibility:visible" visibility="hidden"/><path d="M520.813 357.922a1.93 1.93 0 0 0 .771-.396M522.959 355.225a1.973 1.973 0 0 0-.011-.87M519.141 354.122a.768.768 0 0 0-.128-.323M519.15 354.185c-.006-.015-.007-.035-.01-.063" style="fill:none;stroke:#00ff4a;stroke-width:.666665;stroke-linecap:round;stroke-linejoin:round;stroke-miterlimit:2;stroke-dasharray:none;stroke-opacity:1;visibility:visible" visibility="hidden"/><path d="M522.95 354.354a.779.779 0 0 0-.383-.507c-1.443-.712-3.524 2.48-2.636 3.787M516.579 354.229a.915.915 0 0 0 .128.321M516.965 354.606c.047-.043.096-.081.136-.13M516.707 354.551a.19.19 0 0 0 .056.059.208.208 0 0 0 .201-.004M517.048 352.695a.695.695 0 0 0-.219.238c-.005.004-.012.01-.013.017M517.305 352.74c-.015-.024-.035-.039-.06-.059a.173.173 0 0 0-.197.013M517.432 353.066a.801.801 0 0 0-.127-.326M517.441 353.13l-.009-.065M518.524 354.009a2.068 2.068 0 0 0-.235 1.278M518.29 355.286a.779.779 0 0 0 .13.323M518.673 355.663a.973.973 0 0 0 .139-.13M518.419 355.609c.016.025.03.044.056.054a.196.196 0 0 0 .198 0M518.761 353.753a.8.8 0 0 0-.224.237c-.004.007-.006.015-.013.017M519.015 353.8c-.015-.023-.038-.04-.052-.055a.205.205 0 0 0-.2.008M478.419 332.146l9.184 5.024M492.145 339.653l20.448 11.185" style="fill:none;stroke:#00ff4a;stroke-width:.666665;stroke-linecap:round;stroke-linejoin:round;stroke-miterlimit:2;stroke-dasharray:none;stroke-opacity:1;visibility:visible" visibility="hidden"/><path d="m521.483 356.651-.253-.85.85-.282M514.972 352.758l-.455-.573M515.1 352.24l-.583-.056M515.043 353.069c.007.01.014.02.029.02.033.027.072.021.101.001M515.172 353.089c.018-.01.028-.019.039-.027M515.41 352.262a.34.34 0 0 0-.053-.139M515.356 352.123c-.01-.01-.019-.021-.03-.03-.032-.019-.07-.011-.106.003M515.22 352.095a.608.608 0 0 0-.112.128l-.008.014M515.1 352.237a1.05 1.05 0 0 0-.123.658" style="fill:none;stroke:#00ff4a;stroke-width:.666665;stroke-linecap:round;stroke-linejoin:round;stroke-miterlimit:2;stroke-dasharray:none;stroke-opacity:1;visibility:visible" visibility="hidden"/><path d="M514.977 352.895a.419.419 0 0 0 .066.172M516.816 352.951a2.044 2.044 0 0 0-.237 1.279" style="fill:none;stroke:#00ff4a;stroke-width:.666665;stroke-linecap:round;stroke-linejoin:round;stroke-miterlimit:2;stroke-dasharray:none;stroke-opacity:1;visibility:visible" visibility="hidden"/><path d="m217.127 534.15-15.219-12.412M512.593 350.838l12.797 8.212M501.719 342.183l1.069 7.528M397.923 372.573l10.157-2.215M397.046 364.762l.877 7.811M227.357 376.89l-9.985 10.269M357.236 353.902l11.268 6.801M393.18 361.706l-10.414 2.232M390.15 366.25l3.03-4.544M497.39 339.357l-10.077 2.162M494.025 342.96l3.365-3.603M501.719 342.183l-1.003-3.54" style="fill:none;stroke:#00ff4a;stroke-width:1.99999;stroke-linecap:round;stroke-linejoin:round;stroke-miterlimit:4;stroke-dasharray:none;stroke-opacity:1;visibility:visible" visibility="hidden"/><path d="m61.396 413.8-4.377 6.834M393.18 361.706l-3.03 4.544M390.15 366.25l6.896-1.488M497.39 339.357l-2.506 4.301M500.716 338.643l1.003 3.54M384.392 222.342l-10.917 1.538M390.338 224.386l-16.86-8.672" style="fill:none;stroke:#00ff4a;stroke-width:.999997;stroke-linecap:round;stroke-linejoin:round;stroke-miterlimit:4;stroke-dasharray:none;stroke-opacity:1;visibility:visible" visibility="hidden"/><path d="m477.064 178.776 11.721 13.061M77.341 404.35l-3.591 13.181M217.372 387.159l-15.609 3.293" style="fill:none;stroke:#00ff4a;stroke-width:1.99999;stroke-linecap:round;stroke-linejoin:round;stroke-miterlimit:4;stroke-dasharray:none;stroke-opacity:1;visibility:visible" visibility="hidden"/><path d="m242.617 369.378 1.423 4.017M201.674 378.437l14.426.81M217.372 387.159l9.985-10.269M216.1 379.247l-14.398 3.016" style="fill:none;stroke:#00ff4a;stroke-width:.999997;stroke-linecap:round;stroke-linejoin:round;stroke-miterlimit:4;stroke-dasharray:none;stroke-opacity:1;visibility:visible" visibility="hidden"/><path d="m275.106 363.129 8.732-1.82M283.838 361.309l-8.732 1.82M77.341 404.35l8.497-1.772M216.1 379.247l-14.426-.81M85.838 402.578l-8.497 1.772" style="fill:none;stroke:#00ff4a;stroke-width:1.99999;stroke-linecap:round;stroke-linejoin:round;stroke-miterlimit:4;stroke-dasharray:none;stroke-opacity:1;visibility:visible" visibility="hidden"/><path d="m701.854 275.838-7.424-.56M237.791 567.597l-3.081-8.989M492.064 338.454l.593-4.932M699.534 441.492l-7.45-.413M472.217 187.33l4.753 7.236" style="fill:none;stroke:#00ff4a;stroke-width:.999997;stroke-linecap:round;stroke-linejoin:round;stroke-miterlimit:4;stroke-dasharray:none;stroke-opacity:1;visibility:visible" visibility="hidden"/><path d="m462.275 189.328 9.91 6.074M476.97 194.566l-4.753-7.236" style="fill:none;stroke:#00ff4a;stroke-width:1.99999;stroke-linecap:round;stroke-linejoin:round;stroke-miterlimit:4;stroke-dasharray:none;stroke-opacity:1;visibility:visible" visibility="hidden"/><path d="m494.744 202.805 12.816-2.589" style="fill:none;stroke:#00ff4a;stroke-width:.999997;stroke-linecap:round;stroke-linejoin:round;stroke-miterlimit:4;stroke-dasharray:none;stroke-opacity:1;visibility:visible" visibility="hidden"/><path d="m237.791 567.597-1-.832M244.278 559.544l-1-.831M236.81 380.26l-1.15-.891M243.234 372.406l-.771-.646M695.608 449.407l-1.146-.625M699.534 441.492l-1.14-.622M393.18 361.706l-4.109 3.857M66.12 412.608l12.08-6.953M65.872 412.015l12.328-6.36M697.996 283.612l-1.146-.626M701.854 275.838l-1.142-.623M497.39 339.357l-3.365 3.603M376.071 354.805l10.845 7.924M376.071 354.805l12.116 5.91M340.915 208.326l.145 1.191M472.185 195.402l-9.91-6.074M472.185 195.402l-15.514-5.116M373.475 223.88l16.844-2.712M384.392 222.342l5.946 2.044M390.338 224.386l-5.946-2.044M504.663 195.685l-13.11 11.7M504.663 195.685l-11.867 9.737M507.56 200.216l-12.816 2.589M489.017 203.94l5.746 1.975M502.687 199.305l-10.582 9.945M494.763 205.915l-5.746-1.975M357.236 349.69l-16.482 4.132M341.032 359.658l.194 1.107M492.145 339.653l-1.313.776M492.145 339.653l-.081-1.199" style="fill:none;stroke:#00ff4a;stroke-width:.666665;stroke-linecap:round;stroke-linejoin:round;stroke-miterlimit:4;stroke-dasharray:none;stroke-opacity:1;visibility:visible" visibility="hidden"/><path d="m345.254 352.642 11.982 1.26" style="fill:none;stroke:#00ff4a;stroke-width:1.99999;stroke-linecap:round;stroke-linejoin:round;stroke-miterlimit:4;stroke-dasharray:none;stroke-opacity:1;visibility:visible" visibility="hidden"/><path d="m386.916 362.729-10.845-7.924M368.504 360.703l15.283-1.093M490.832 340.429l-12.413-8.283M492.145 339.653l-4.542-2.483M492.064 338.454l.081 1.199M520.188 357.83l-7.595-6.992" style="fill:none;stroke:#00ff4a;stroke-width:.666665;stroke-linecap:round;stroke-linejoin:round;stroke-miterlimit:2;stroke-dasharray:none;stroke-opacity:1;visibility:visible" visibility="hidden"/><path d="m494.763 205.915 5.022-2.962M345.171 353.322l12.069 5.251M345.115 208.656l12.055 8.12" style="fill:none;stroke:red;stroke-width:1.99999;stroke-linecap:round;stroke-linejoin:round;stroke-miterlimit:4;stroke-dasharray:none;stroke-opacity:1;visibility:visible"/><path d="m373.475 223.88-13.204-5.523" style="fill:none;stroke:red;stroke-width:.999997;stroke-linecap:round;stroke-linejoin:round;stroke-miterlimit:4;stroke-dasharray:none;stroke-opacity:1;visibility:visible"/><path d="m497.39 339.357 1.631-7.19" style="fill:none;stroke:red;stroke-width:1.99999;stroke-linecap:round;stroke-linejoin:round;stroke-miterlimit:4;stroke-dasharray:none;stroke-opacity:1;visibility:visible"/><path d="m494.744 202.805 4.461-12.139" style="fill:none;stroke:#00ff4a;stroke-width:1.99999;stroke-linecap:round;stroke-linejoin:round;stroke-miterlimit:4;stroke-dasharray:none;stroke-opacity:1;visibility:visible" visibility="hidden"/><path d="m492.064 338.454 14.643 5.911M360.32 361.682l13.124 8.173" style="fill:none;stroke:#00ff4a;stroke-width:.999997;stroke-linecap:round;stroke-linejoin:round;stroke-miterlimit:4;stroke-dasharray:none;stroke-opacity:1;visibility:visible" visibility="hidden"/><path d="m361.183 361.498-3.949-15.489" style="fill:none;stroke:#00ff4a;stroke-width:1.99999;stroke-linecap:round;stroke-linejoin:round;stroke-miterlimit:4;stroke-dasharray:none;stroke-opacity:1;visibility:visible" visibility="hidden"/><path d="m235.66 379.369-2.054-8.101M692.084 441.079l-15.375.356" style="fill:none;stroke:#00ff4a;stroke-width:.999997;stroke-linecap:round;stroke-linejoin:round;stroke-miterlimit:4;stroke-dasharray:none;stroke-opacity:1;visibility:visible" visibility="hidden"/><path d="m397.923 372.573-7.731-11.658M492.145 339.653l1.856-1.006M357.17 216.776l-12.055-8.12M373.478 215.714l14.824 8.16M373.475 223.88l14.112 3.958" style="fill:none;stroke:#00ff4a;stroke-width:.666665;stroke-linecap:round;stroke-linejoin:round;stroke-miterlimit:4;stroke-dasharray:none;stroke-opacity:1;visibility:visible" visibility="hidden"/><path d="m502.687 199.305-.014-2.776" style="fill:none;stroke:#00ff4a;stroke-width:.666665;stroke-linecap:round;stroke-linejoin:round;stroke-miterlimit:2;stroke-dasharray:none;stroke-opacity:1;visibility:visible" visibility="hidden"/><path d="m368.504 360.703-15.346-9.271" style="fill:none;stroke:#00ff4a;stroke-width:1.99999;stroke-linecap:round;stroke-linejoin:round;stroke-miterlimit:4;stroke-dasharray:none;stroke-opacity:1;visibility:visible" visibility="hidden"/></svg>