<svg xmlns="http://www.w3.org/2000/svg" baseProfile="full" height="793.701" preserveAspectRatio="xMinYMin meet" style="width:919px;height:1159px" width="559.371" xml:space="preserve"><path d="m390.911 578.32-.49.814" style="fill:none;stroke:red;stroke-width:.999997;stroke-linecap:round;stroke-linejoin:round;stroke-miterlimit:11.339;stroke-dasharray:none;stroke-opacity:1;visibility:visible"/><path d="m379.084 606.537-.488-.733.244-26.672M390.83 578.074l.08.246-.326 27.485-.49.815M390.095 606.621c-.488.327-.488.409-1.06.654-.815.324-.815.324-1.55.57-.981.08-.981.08-1.958.245h-1.957c-.895-.165-.98-.165-1.876-.327-.816-.244-.816-.244-1.548-.488-.574-.327-.574-.327-1.062-.736" style="fill:none;stroke:red;stroke-width:1.99999;stroke-linecap:round;stroke-linejoin:round;stroke-miterlimit:11.339;stroke-dasharray:none;stroke-opacity:1;visibility:visible"/><path d="m104.698 555.4.326.815M381.286 566.492c.408.163.408.163.814.244.98.164.98.164 1.96.246.978.08.978.08 1.958 0 .976-.083.976-.083 1.874-.246.815-.244.815-.244 1.55-.49l1.144-.651M229.574 587.699h-1.959c-.895-.163-.895-.163-1.874-.325-.163 0-.163 0-.411-.084-.243 0-.243 0-.405-.08-.163.08-.163.08-.246.08M229.574 587.699c1.06-.163 1.06-.163 2.037-.245.9-.244.9-.244 1.715-.571l1.144-.653M183.653 655.23c.487.325.487.325 1.06.733.815.245.815.245 1.63.571.981.166.981.166 1.959.246h2.12c1.06-.08 1.06-.08 2.119-.245.817-.245.817-.245 1.713-.571.652-.325.652-.325 1.224-.735M116.361 542.515c-.325.164-.325.164-.572.408l-.976.49c-.572.162-.572.162-1.225.407l-.652.163M111.793 544.39l-.652.162c-.979 0-.979 0-2.04-.081-.896-.081-.896-.081-1.793-.245-.818-.246-.818-.246-1.55-.49l-.981-.652" style="fill:none;stroke:red;stroke-width:.999997;stroke-linecap:round;stroke-linejoin:round;stroke-miterlimit:11.339;stroke-dasharray:none;stroke-opacity:1;visibility:visible"/><path d="m222.397 590.634-3.264 5.709" style="fill:none;stroke:red;stroke-width:1.99999;stroke-linecap:round;stroke-linejoin:round;stroke-miterlimit:11.339;stroke-dasharray:none;stroke-opacity:1;visibility:visible"/><path d="m111.468 556.542-.248-11.012.33.164 70.518 25.892M195.917 576.67l26.48 9.723" style="fill:none;stroke:red;stroke-width:.999997;stroke-linecap:round;stroke-linejoin:round;stroke-miterlimit:11.339;stroke-dasharray:none;stroke-opacity:1;visibility:visible"/><path d="m113.506 557.358-2.036-.815" style="fill:none;stroke:red;stroke-width:1.99999;stroke-linecap:round;stroke-linejoin:round;stroke-miterlimit:11.339;stroke-dasharray:none;stroke-opacity:1;visibility:visible"/><path d="m183.245 654.333.41.897M195.642 669.013l.572-.897M183.406 668.116l.41.897M116.442 542.515h.082M116.28 542.432l.082.083h.082l.081-.164M112.038 544.226l.083.082.325-.245.49-.083M113.506 557.358l.247.082M111.414 544.694l-.193.836M104.778 543.086l-.326-.736" style="fill:none;stroke:red;stroke-width:.999997;stroke-linecap:round;stroke-linejoin:round;stroke-miterlimit:11.339;stroke-dasharray:none;stroke-opacity:1;visibility:visible"/><path d="m196.133 654.333.081 8.482" style="fill:none;stroke:red;stroke-width:1.99999;stroke-linecap:round;stroke-linejoin:round;stroke-miterlimit:11.339;stroke-dasharray:none;stroke-opacity:1;visibility:visible"/><path d="m222.88 589.879-.159.265v-4.484M227.943 587.699h1.632M234.469 586.23l.57-.735-.082.408h-.163l.083.164-.163.572h.326v.815l146.735-19.74-.081-.567M234.55 599.932l.572-.816M196.453 650.621l34.997-61.618.083 11.257-.49.98M195.48 655.23l.653-.898" style="fill:none;stroke:red;stroke-width:.999997;stroke-linecap:round;stroke-linejoin:round;stroke-miterlimit:11.339;stroke-dasharray:none;stroke-opacity:1;visibility:visible"/><path d="M224.68 587.29v-.082l-.41.328-1.392 2.344M222.722 590.146l-.324.488" style="fill:none;stroke:red;stroke-width:1.99999;stroke-linecap:round;stroke-linejoin:round;stroke-miterlimit:11.339;stroke-dasharray:none;stroke-opacity:1;visibility:visible"/><path d="m390.911 564.044.083.652M379.166 563.964h0M379.084 564.044l-.082.488M380.471 565.84l.57.407h.166M390.586 565.595l.486-.736M379.656 579.052l.164-.081M379.82 578.972l1.791-.246.165-11.01M390.911 577.995l-.49.732M380.471 565.84l-.49-.245-.733-.57-.326-.655v-.242l.08-.164h.082v.406M234.877 598.381l.245.247-.082-11.174M231.042 601.237l-.164.244M229.82 587.699h.57l.327.083.488.324.164.08-.082.084.083.325.08.408" style="fill:none;stroke:red;stroke-width:.999997;stroke-linecap:round;stroke-linejoin:round;stroke-miterlimit:11.339;stroke-dasharray:none;stroke-opacity:1;visibility:visible"/><path d="M107.553 539.987c-.163 0-.163 0-.327.081-.734.243-.734.243-1.469.49l-.977.814" style="fill:none;stroke:red;stroke-width:1.99999;stroke-linecap:round;stroke-linejoin:round;stroke-miterlimit:11.339;stroke-dasharray:none;stroke-opacity:1;visibility:visible"/><path d="M183.406 668.28c.164.407.164.407.41.815l.164.164c.489.408.489.408 1.06.733.733.325.733.325 1.549.573.979.163.979.163 1.957.243.98.084.98.084 2.04 0 .978-.08.978-.08 1.956-.243.898-.248.898-.248 1.714-.573.652-.325.652-.325 1.304-.815" style="fill:none;stroke:red;stroke-width:.999997;stroke-linecap:round;stroke-linejoin:round;stroke-miterlimit:11.339;stroke-dasharray:none;stroke-opacity:1;visibility:visible"/><path d="m230.878 601.48.816-.163c.736-.244.736-.244 1.55-.487l1.141-.655" style="fill:none;stroke:red;stroke-width:1.99999;stroke-linecap:round;stroke-linejoin:round;stroke-miterlimit:11.339;stroke-dasharray:none;stroke-opacity:1;visibility:visible"/><path d="M379.572 579.052c.49.328.49.328.979.57.735.247.735.247 1.55.491.896.162.896.162 1.793.245h1.96c.898-.083.898-.083 1.874-.246l1.47-.49c.569-.323.569-.323 1.061-.65" style="fill:none;stroke:red;stroke-width:.999997;stroke-linecap:round;stroke-linejoin:round;stroke-miterlimit:11.339;stroke-dasharray:none;stroke-opacity:1;visibility:visible"/><path d="m183.49 668.363-.082.244.326 28.872.49.898" style="fill:none;stroke:red;stroke-width:1.99999;stroke-linecap:round;stroke-linejoin:round;stroke-miterlimit:11.339;stroke-dasharray:none;stroke-opacity:1;visibility:visible"/><path d="M184.224 698.377c.57.407.57.407 1.14.734.816.326.816.326 1.714.572.979.164.979.164 1.956.244h2.122c1.06-.163 1.06-.163 2.04-.327.816-.327.816-.327 1.712-.652.57-.328.57-.328 1.142-.733M390.259 578.972l.572-.816.08-.161.083-13.297-.164-.896-.898-.735-1.305-.57-.652-.166M235.12 598.628l144.453-19.576M234.386 600.176l.736-.976v-.571M195.56 669.177l.653-.897v-5.464l34.664-61.335M183.245 654.252l.161 14.028M222.52 581.347l-26.487-9.704M182.169 566.564l-65.645-24.05-.082-.979-.734-.816-1.306-.652-.897-.245M382.02 562.33l-.652.086-1.306.569-.896.816v.163l-143.57 19.199M113.752 557.439l68.444 25.268M196.348 587.932l22.785 8.412-22.756 39.586M104.778 541.371l-.326.979.245 13.049.407.98" style="fill:none;stroke:red;stroke-width:1.99999;stroke-linecap:round;stroke-linejoin:round;stroke-miterlimit:11.339;stroke-dasharray:none;stroke-opacity:1;visibility:visible"/><path d="m196.05 698.213.49-.898-.244-28.955-.083-.16" style="fill:none;stroke:red;stroke-width:1.99999;stroke-linecap:round;stroke-linejoin:round;stroke-miterlimit:11.339;stroke-dasharray:none;stroke-opacity:1;visibility:visible"/><path d="m105.676 557.03-.816-.731-.162-.735M113.996 557.52c-.652.164-.652.164-1.306.246-.978.162-.978.162-1.957.244l-1.957-.163c-.896-.081-.896-.081-1.712-.327-.735-.244-.735-.244-1.387-.49" style="fill:none;stroke:red;stroke-width:.999997;stroke-linecap:round;stroke-linejoin:round;stroke-miterlimit:11.339;stroke-dasharray:none;stroke-opacity:1;visibility:visible"/><path d="m116.361 584.19.816-.733.163-.815-.488-24.06M104.698 555.564l.572 27.322.163.816.813.734M106.246 584.436c.652.244.652.244 1.306.57l1.794.327c.98.081.98.081 1.959.081l1.956-.164c.899-.243.899-.243 1.715-.406.733-.326.733-.326 1.384-.654" style="fill:none;stroke:red;stroke-width:1.99999;stroke-linecap:round;stroke-linejoin:round;stroke-miterlimit:11.339;stroke-dasharray:none;stroke-opacity:1;visibility:visible"/><path d="M113.138 534.844c0 .61-1.205 1.104-2.694 1.104-1.486 0-2.69-.494-2.69-1.104-.001-.61 1.203-1.104 2.689-1.104 1.49-.001 2.695.494 2.695 1.104" style="fill:none;stroke:red;stroke-width:.999997;stroke-linecap:round;stroke-linejoin:round;stroke-miterlimit:11.339;stroke-dasharray:none;stroke-opacity:1;visibility:visible"/><path d="M107.512 535.687s-.503.703.542 1.287c1.044.581 3.858.702 4.862.04 1.004-.664.282-1.024.282-1.024M107.472 539.144s-.503.702.541 1.286c1.045.58 3.86.7 4.863.04 1.004-.664.282-1.026.282-1.026" style="fill:none;stroke:red;stroke-width:.999997;stroke-linecap:round;stroke-linejoin:round;stroke-miterlimit:11.339;stroke-dasharray:none;stroke-opacity:1;visibility:visible"/><path d="M107.492 537.294s-.502.704.542 1.286c1.044.583 3.858.703 4.863.04 1.005-.662.281-1.024.281-1.024M387.978 557.326c0 .63-1.248 1.14-2.783 1.14-1.537.001-2.781-.509-2.781-1.139 0-.632 1.244-1.143 2.781-1.143 1.536 0 2.783.51 2.783 1.142M107.573 540.808s-.503.703.541 1.287c1.044.583 3.858.703 4.863.039 1.004-.662.281-1.024.281-1.024" style="fill:none;stroke:red;stroke-width:.999997;stroke-linecap:round;stroke-linejoin:round;stroke-miterlimit:11.339;stroke-dasharray:none;stroke-opacity:1;visibility:visible"/><path d="M382.163 558.199s-.521.725.56 1.33c1.08.599 3.988.725 5.025.039 1.038-.686.292-1.06.292-1.06M382.122 561.77s-.52.726.56 1.328c1.08.604 3.986.728 5.025.04 1.04-.682.292-1.058.292-1.058" style="fill:none;stroke:red;stroke-width:.999997;stroke-linecap:round;stroke-linejoin:round;stroke-miterlimit:11.339;stroke-dasharray:none;stroke-opacity:1;visibility:visible"/><path d="M382.143 559.86s-.52.727.561 1.33c1.079.6 3.986.725 5.024.04 1.04-.685.292-1.06.292-1.06M382.226 563.492s-.52.728.561 1.328c1.08.604 3.988.73 5.025.043 1.038-.684.291-1.059.291-1.059" style="fill:none;stroke:red;stroke-width:.999997;stroke-linecap:round;stroke-linejoin:round;stroke-miterlimit:11.339;stroke-dasharray:none;stroke-opacity:1;visibility:visible"/><path d="m222.722 590.146-3.589 6.197" style="fill:none;stroke:red;stroke-width:1.99999;stroke-linecap:round;stroke-linejoin:round;stroke-miterlimit:11.339;stroke-dasharray:none;stroke-opacity:1;visibility:visible"/><path d="m196.033 571.643-13.965-.057M182.068 571.586l13.849 5.084M113.198 535.99l-1.977 9.54" style="fill:none;stroke:red;stroke-width:.999997;stroke-linecap:round;stroke-linejoin:round;stroke-miterlimit:11.339;stroke-dasharray:none;stroke-opacity:1;visibility:visible"/><path d="m183.245 654.252 12.969 8.563" style="fill:none;stroke:red;stroke-width:1.99999;stroke-linecap:round;stroke-linejoin:round;stroke-miterlimit:11.339;stroke-dasharray:none;stroke-opacity:1;visibility:visible"/><path d="M229.574 587.699h-1.631M196.214 668.116l.239-17.495M224.68 587.29l10.36.164" style="fill:none;stroke:red;stroke-width:.999997;stroke-linecap:round;stroke-linejoin:round;stroke-miterlimit:11.339;stroke-dasharray:none;stroke-opacity:1;visibility:visible"/><path d="m182.068 571.586 13.965.057M196.033 571.643l-13.864-5.079M195.917 576.67l-13.721 6.037M182.196 582.707l14.152 5.225M111.468 556.542l5.384 2.04" style="fill:none;stroke:red;stroke-width:1.99999;stroke-linecap:round;stroke-linejoin:round;stroke-miterlimit:11.339;stroke-dasharray:none;stroke-opacity:1;visibility:visible"/><path d="m107.492 537.294.02-1.607M113.158 539.444l.04-3.454M113.158 539.444l.02-1.848M382.143 559.86l5.835-2.534M388.02 560.17l-.042-2.844M113.158 539.444l.1 1.666M391.072 564.859l-8.909-6.66M380.471 565.84l7.569-7.332M391.072 564.859l-8.929-4.999M380.471 565.84l7.549-5.67M391.072 564.859l-8.846-1.367M380.471 565.84l7.632-2.036" style="fill:none;stroke:red;stroke-width:.999997;stroke-linecap:round;stroke-linejoin:round;stroke-miterlimit:11.339;stroke-dasharray:none;stroke-opacity:1;visibility:visible"/><path d="m182.04 529.408-.246-.814M194.837 528.267l-.083.815-.814.733M193.94 529.816c-.65.408-.65.408-1.383.734-.979.244-.979.244-1.877.406-1.058.164-1.058.164-2.118.246-1.06-.082-1.06-.082-2.118-.082-.98-.164-.98-.164-1.958-.406-.814-.246-.814-.246-1.548-.572-.49-.326-.49-.326-.897-.734" style="fill:none;stroke:#00ff4a;stroke-width:.999997;stroke-linecap:round;stroke-linejoin:round;stroke-miterlimit:11.339;stroke-dasharray:none;stroke-opacity:1;visibility:visible" visibility="hidden"/><path d="m194.266 527.452.57.815 1.306 125.114M183.073 654.581l-1.413-125.794.606-1.01" style="fill:none;stroke:#00ff4a;stroke-width:1.99999;stroke-linecap:round;stroke-linejoin:round;stroke-miterlimit:11.339;stroke-dasharray:none;stroke-opacity:1;visibility:visible" visibility="hidden"/><path d="M182.285 527.778c.488-.408.488-.408 1.06-.735.815-.325.815-.325 1.71-.57l1.959-.327c1.139-.08 1.139-.08 2.199-.08.979.081.979.081 2.039.244.894.245.894.245 1.71.489l1.304.653" style="fill:none;stroke:#00ff4a;stroke-width:1.99999;stroke-linecap:round;stroke-linejoin:round;stroke-miterlimit:11.339;stroke-dasharray:none;stroke-opacity:1;visibility:visible" visibility="hidden"/><path d="M192.389 528.635c0 .875-1.829 1.583-4.083 1.583-2.254 0-4.082-.708-4.082-1.583s1.828-1.583 4.082-1.583c2.255 0 4.084.708 4.084 1.583h-.001" style="fill:none;stroke:#00ff4a;stroke-width:.999997;stroke-linecap:round;stroke-linejoin:round;stroke-miterlimit:11.339;stroke-dasharray:none;stroke-opacity:1;visibility:visible" visibility="hidden"/><path d="m234.125 465.016.162-.814M221.817 464.283l.162.733.815.734M222.794 465.75c.652.326.652.326 1.386.572l1.794.325c.977.081 1.06.081 2.036.163 1.06-.082 1.06-.082 2.04-.163.895-.163.895-.163 1.792-.407.733-.245.733-.245 1.468-.57l.815-.655" style="fill:none;stroke:#9500ff;stroke-width:.999997;stroke-linecap:round;stroke-linejoin:round;stroke-miterlimit:11.339;stroke-dasharray:none;stroke-opacity:1;visibility:visible" visibility="hidden"/><path d="M233.8 463.468c-.49-.325-.49-.325-1.06-.652-.815-.245-.815-.245-1.632-.488l-1.954-.165c-1.06-.08-1.06-.08-2.039 0-.652.083-.652.083-1.385.165-.244 0-.244 0-.57.08l-1.63.49c-.57.245-.57.245-1.143.652M222.386 463.548l-.57.735.896 120.877" style="fill:none;stroke:#9500ff;stroke-width:1.99999;stroke-linecap:round;stroke-linejoin:round;stroke-miterlimit:11.339;stroke-dasharray:none;stroke-opacity:1;visibility:visible" visibility="hidden"/><path d="m235.02 584.996-.732-120.796-.49-.732" style="fill:none;stroke:#9500ff;stroke-width:1.99999;stroke-linecap:round;stroke-linejoin:round;stroke-miterlimit:11.339;stroke-dasharray:none;stroke-opacity:1;visibility:visible" visibility="hidden"/><path d="m223.133 584.355-.083.163M223.111 586.068s.25.795 1.569 1.222M234.794 585.903v.327M223.049 584.518l-.082.082-.245.815M231.943 464.414c0 .813-1.748 1.472-3.902 1.472-2.155 0-3.903-.659-3.903-1.472 0-.814 1.748-1.472 3.903-1.472 2.154 0 3.902.658 3.902 1.472" style="fill:none;stroke:#9500ff;stroke-width:.999997;stroke-linecap:round;stroke-linejoin:round;stroke-miterlimit:11.339;stroke-dasharray:none;stroke-opacity:1;visibility:visible" visibility="hidden"/><path d="m113.158 539.444-.02-4.6M113.198 535.99l-.06-1.146" style="fill:none;stroke:red;stroke-width:.999997;stroke-linecap:round;stroke-linejoin:round;stroke-miterlimit:11.339;stroke-dasharray:none;stroke-opacity:1;visibility:visible"/></svg>