<svg xmlns="http://www.w3.org/2000/svg" baseProfile="full" height="793.701" preserveAspectRatio="xMinYMin meet" style="width:912px;height:1303px" width="559.371" xml:space="preserve"><path d="m143.44 443.498 1.484-.461 1.362.242M141.996 456.115l-1.259-.59-.916-1.243M139.821 454.282c-.27-.856-.27-.856-.495-1.755l.01-2.037c.23-1.1.23-1.1.504-2.195.402-1.001.402-1.001.893-1.998.616-.86.616-.86 1.233-1.671.694-.587.738-.586 1.475-1.128" style="fill:none;stroke:red;stroke-width:.999997;stroke-linecap:round;stroke-linejoin:round;stroke-miterlimit:11.339;stroke-dasharray:none;stroke-opacity:1;visibility:visible" visibility="hidden"/><path d="m143.464 456.009-1.47.106-25.269-8.655-1.259-.59-.918-1.201M118.122 434.886l1.488-.463 1.362.242 25.314 8.615 1.068.895M147.354 444.175c.407.772.407.772.724 1.542.134.937.134.937.264 1.92-.094 1.061-.094 1.061-.236 2.118-.361 1.092-.361 1.092-.721 2.139-.533.95-.533.95-1.108 1.855-.656.721-.656.721-1.355 1.441l-1.458.82M114.546 445.67c-.265-.9-.265-.9-.492-1.753-.038-1.022-.038-1.022-.034-2.087.23-1.053.23-1.053.502-2.149.402-.999.402-.999.894-1.999.617-.855.617-.855 1.234-1.667.738-.589.738-.589 1.472-1.129" style="fill:none;stroke:red;stroke-width:1.99999;stroke-linecap:round;stroke-linejoin:round;stroke-miterlimit:11.339;stroke-dasharray:none;stroke-opacity:1;visibility:visible" visibility="hidden"/><path d="m74.233 151.06-.356-.09M84.754 141.543l1.51-.62 1.464.133M84.4 153.983h-.043l.043.133 57.666 109.78-9.944-3.01M74.233 151.06l9.721 2.833-.93-.353L82 152.432M71.037 150.087l-1.065-1.107M256.111 214.493c.176-.53.176-.53.399-1.017.133-.31.133-.31.31-.576.223-.267.223-.267.487-.53M256.554 217.238l-.133-.177-.267-.443c-.085-.22-.085-.22-.175-.44M259.486 212.722c.088.4.088.4.177.754v.796c-.089.532-.089.532-.221 1.061-.18.399-.18.399-.356.799-.268.397-.268.397-.533.752-.354.265-.354.265-.666.532M256.953 208.872c-.623.576-.666.576-1.243 1.194-.532.8-.532.844-1.019 1.684-.4.93-.4.93-.711 1.95-.179.971-.179.971-.31 1.988.04.932.04.976.13 1.905.223.752.223.752.535 1.505M151.256 265.312c.086-.354.086-.354.177-.752.087-.975.087-1.019.087-1.994-.178-.884-.178-.884-.4-1.769M94.698 430.558c.044.31.044.31 0 .576-.088.575-.088.575-.177 1.106-.177.399-.177.399-.4.84-.267.4-.267.4-.576.799-.355.309-.355.309-.71.574M89.016 436.402c-.356-.753-.356-.753-.622-1.504-.132-.932-.088-.932-.178-1.904.134-1.019.134-1.019.312-2.081.178-.575.222-.575.444-1.151.132-.443.132-.443.31-.887.534-.884.534-.884 1.11-1.77.621-.662.621-.662 1.332-1.283M87.684 145.748l.178.796v.843c-.09.485-.044.529-.178 1.017-.176.486-.176.486-.4.973-.31.399-.31.399-.666.843-.31.22-.354.22-.665.485M89.328 149.999l-.622 1.238c-.62.796-.62.796-1.288 1.55-.708.486-.708.486-1.42.929M143.665 269.782c-.357-.75-.357-.75-.623-1.549-.088-.928-.088-.973-.132-1.903.132-1.062.132-1.062.31-2.08.312-1.018.357-1.018.71-2.036.534-.886.534-.886 1.11-1.726.62-.62.62-.666 1.288-1.24M83.824 148.316c0-.356 0-.356.042-.664.134-.487.134-.487.312-1.019.267-.398.267-.398.532-.84M82.002 152.433c-.356-.797-.356-.797-.62-1.638-.134-.972-.134-1.018-.179-1.991.134-1.108.134-1.108.311-2.17.356-1.063.356-1.063.756-2.081.532-.884.532-.884 1.11-1.769.664-.621.708-.665 1.373-1.24" style="fill:none;stroke:#00ff4a;stroke-width:.999997;stroke-linecap:round;stroke-linejoin:round;stroke-miterlimit:11.339;stroke-dasharray:none;stroke-opacity:1;visibility:visible"/><path d="m78.317 433.393-.975-.976" style="fill:none;stroke:#00ff4a;stroke-width:1.99999;stroke-linecap:round;stroke-linejoin:round;stroke-miterlimit:11.339;stroke-dasharray:none;stroke-opacity:1;visibility:visible"/><path d="m83.954 149.777.18.266-.181-.266-.175-.444M83.954 153.893l.49.134.665-.134M142.509 263.32l-.444.574M80.981 422.147l9.856 3.323M142.154 269.03l-9.942-3.054M131.589 265.932l.133-.312.088-.043-.088.267.49.132M80.981 422.147l-.355-.132M80.005 421.882l.487-.267.09-.22M91.546 429.982l.624-.663.176-.089M91.37 434.365l.176.088-.22-.133.044.045M90.748 433.347l.177.444.356.486-.356-.487M91.724 425.82l1.42-.705 1.376-.046-2.709-.886-.353.975M89.993 437.375l-.976-.974M85.82 144.907l-.444.222M84.266 150.263l.09.089M84.62 150.573l-.222-.133M86.264 144.773l-.355.088M85.953 150.707l-.267.043-.533.089-.176-.044-.579-.355-.265-.397M86.753 144.82l-.49-.045.624.088.443.266.354.621M85.998 153.716l-.888.177M146.328 259.248l1.42-.666 1.332.046-2.574-.752.088.133-.444.619M142.154 269.03l.446.178-.267.929 2.308.707-.976-1.064M83.824 148.316l-.044.354.044.134M85.376 145.13l-.134.086-.532.577" style="fill:none;stroke:#00ff4a;stroke-width:.999997;stroke-linecap:round;stroke-linejoin:round;stroke-miterlimit:11.339;stroke-dasharray:none;stroke-opacity:1;visibility:visible"/><path d="m83.866 149.6-.042-.796.042.31.088.086M93.854 428.875l.31.179.356.53.178.975M89.681 149.156l-.355.843M91.813 424.183l50.52-154.046M91.546 429.982l-.4.753-.309 1.062M90.792 432.903l-.044-.177M92.834 434.453l-.753.222-.179-.044-.356-.178M92.922 428.875l.223-.088h.356-.09l.133.088M90.836 433.569l-.088-.886.088-.84M256.023 215.91l.044.53M256.509 213.476l-.134.177-.264.84M257.887 217.416l-.665.177-.221-.09-.447-.264M258.333 211.882h.397l.445.31.311.53M253.58 211.837v.09M253.626 219.098v.088l-.667.31M254.335 219.098l.887 1.018 1.197.398M259.53 208.342l-1.287-.088-1.29.618M242.526 209.316l.179-.088M242.705 209.226l.265-.133M151.033 266.197l.223-.887M151.121 260.797l-.753-1.328-.491-.355M149.169 258.716l.708.398 103.704-47.277-9.814-2.833M150.189 259.336l-1.11-.71M146.15 271.2l.578-.134M144.506 254.022l-.133-.22M144.641 270.845l1.243.355M138.869 256.414l7.281 2.214M131.721 260.709v-.045M131.633 260.532l.088.177-.088-.177M131.322 259.956l.311.62.49.31M131.81 265.577l.18.355M131.633 265.844l-.088.221M95.897 425.998l-.179-.221-.22-.134M94.521 425.069l.976.574M146.15 271.2h-.266.044M93.324 428.787h-.09M93.854 428.875l-.133-.044M93.545 428.787l.177.044-.089-.044M93.501 428.787h.133-.133M92.346 429.23l.444-.31M92.79 428.92l.131-.044" style="fill:none;stroke:#00ff4a;stroke-width:.999997;stroke-linecap:round;stroke-linejoin:round;stroke-miterlimit:11.339;stroke-dasharray:none;stroke-opacity:1;visibility:visible"/><path d="M93.41 428.787h-.086l.13.134M260.55 209.05l-.93-.62M258.818 211.926l-.265-.044M258.333 211.882h-.044M257.309 212.37l.441-.31M257.751 212.06l.091-.046M259.218 212.325l-.356-.355M256.023 215.91l-.043-.357.131-1.059M256.154 216.618l.4.62M258.729 211.882h-.53l-.357.134" style="fill:none;stroke:#00ff4a;stroke-width:.999997;stroke-linecap:round;stroke-linejoin:round;stroke-miterlimit:11.339;stroke-dasharray:none;stroke-opacity:1;visibility:visible"/><path d="M131.545 266.065c-.31-.753-.31-.753-.577-1.55-.134-.929-.134-.929-.178-1.902.134-1.064.134-1.064.311-2.081.088-.312.088-.312.221-.576M77.164 432.285c-.31-.71-.31-.71-.622-1.463l-.177-1.947c.133-.973.133-1.015.31-1.992.355-1.017.355-1.017.712-1.992.531-.84.531-.884 1.065-1.725.665-.666.71-.666 1.376-1.284.31-.179.354-.223.665-.353M96.608 427.105c.221.885.221.885.4 1.77 0 .975 0 .975-.09 1.947-.222 1.02-.222 1.02-.488 2.037-.444.931-.444.931-.93 1.859-.582.752-.582.752-1.2 1.507-.666.529-.666.574-1.422 1.062M151.033 266.197c-.044.177-.044.177-.088.397-.444.887-.444.931-.888 1.816-.577.754-.577.754-1.2 1.46-.665.532-.71.532-1.419 1.02M261.438 210.421c.177.885.177.885.31 1.772-.001.973-.001.973-.09 1.903-.22 1.018-.22 1.018-.485 1.992-.4.885-.4.885-.844 1.772-.579.752-.579.752-1.154 1.458-.622.443-.665.488-1.288.887M242.482 209.316c.176-.488.176-.488.356-.974.488-.798.488-.842 1.022-1.594.621-.664.621-.664 1.242-1.239M89.816 143.313c.221.931.221.931.4 1.904 0 1.018 0 1.018-.046 2.038-.22.973-.22.973-.489 1.9M69.84 148.848c-.356-.798-.356-.798-.622-1.593-.133-1.019-.133-1.019-.178-2.038.133-1.062.133-1.062.312-2.124.31-.973.31-1.018.71-1.993.531-.884.531-.884 1.108-1.725.667-.62.712-.665 1.422-1.285" style="fill:none;stroke:#00ff4a;stroke-width:1.99999;stroke-linecap:round;stroke-linejoin:round;stroke-miterlimit:11.339;stroke-dasharray:none;stroke-opacity:1;visibility:visible"/><path d="m70.638 149.732-.8-.885" style="fill:none;stroke:#00ff4a;stroke-width:.999997;stroke-linecap:round;stroke-linejoin:round;stroke-miterlimit:11.339;stroke-dasharray:none;stroke-opacity:1;visibility:visible"/><path d="M131.322 259.956 73.878 150.972l-2.84-.885-.401-.354M80.493 421.529l51.052-155.464M92.878 437.289l-1.465.398-1.42-.31-11.763-4.072-1.066-1.02M147.438 270.889l-.71.177L95.898 426l.71 1.106M257.887 220.205l-1.51.31-3.418-1.021-101.926 46.705M245.102 205.508l1.33-.576 1.423.045 11.675 3.364 1.156.84.752 1.24M89.681 149.156l56.913 108.853M144.373 253.802l98.108-44.488M72.592 138.09l1.51-.62 1.551.132 11.987 3.408 1.332.93.844 1.372" style="fill:none;stroke:#00ff4a;stroke-width:1.99999;stroke-linecap:round;stroke-linejoin:round;stroke-miterlimit:11.339;stroke-dasharray:none;stroke-opacity:1;visibility:visible"/><path d="M94.402 149.655a3.463 3.463 0 0 1-4.249 2.428l-3.18-.868a3.46 3.46 0 1 1 1.82-6.675l3.181.867a3.459 3.459 0 0 1 2.428 4.248" style="fill:none;fill-opacity:1;fill-rule:nonzero;stroke:#00ff4a;stroke-width:1.33333;visibility:visible"/><path d="M94.501 149.837c-.43 1.587-1.565 2.663-2.533 2.396-.968-.262-1.402-1.762-.97-3.35.432-1.588 1.568-2.66 2.534-2.398.968.263 1.401 1.765.97 3.352h-.001" style="fill:none;stroke:#00ff4a;stroke-width:.666665;stroke-linecap:round;stroke-linejoin:round;stroke-miterlimit:11.339;stroke-dasharray:none;stroke-opacity:1;visibility:visible"/><path d="M92.688 145.799c-.084-.023-.55-.474-1.686.273-1.132.748-2.202 2.855-1.638 4.832 0 0 .438 1.092 1.214 1.028" style="fill:none;stroke:#00ff4a;stroke-width:.666665;stroke-linecap:round;stroke-linejoin:round;stroke-miterlimit:11.339;stroke-dasharray:none;stroke-opacity:1;visibility:visible"/><path d="M91.054 145.375c-.084-.025-.55-.475-1.684.273-1.133.747-2.204 2.855-1.64 4.83 0 .001.44 1.094 1.215 1.03" style="fill:none;stroke:#00ff4a;stroke-width:.666665;stroke-linecap:round;stroke-linejoin:round;stroke-miterlimit:11.339;stroke-dasharray:none;stroke-opacity:1;visibility:visible"/><path d="M89.473 144.836c-.083-.024-.55-.476-1.683.273-1.133.747-2.206 2.854-1.64 4.831 0-.001.44 1.092 1.215 1.027M70.422 139.348c-.085-.024-.552-.475-1.685.273-1.132.747-2.204 2.855-1.64 4.83 0-.001.44 1.092 1.216 1.028" style="fill:none;stroke:#00ff4a;stroke-width:.666665;stroke-linecap:round;stroke-linejoin:round;stroke-miterlimit:11.339;stroke-dasharray:none;stroke-opacity:1;visibility:visible"/><path d="M88.068 144.512c-.084-.024-.55-.475-1.686.273-1.132.748-2.202 2.855-1.638 4.831 0 0 .438 1.093 1.214 1.028M68.844 138.893c-.086-.023-.552-.473-1.686.274-1.131.748-2.203 2.853-1.64 4.829.001 0 .441 1.092 1.217 1.028" style="fill:none;stroke:#00ff4a;stroke-width:.666665;stroke-linecap:round;stroke-linejoin:round;stroke-miterlimit:11.339;stroke-dasharray:none;stroke-opacity:1;visibility:visible"/><path d="M101.061 434.515a3.464 3.464 0 0 1-4.403 2.138l-3.116-1.083a3.464 3.464 0 0 1-2.134-4.403 3.457 3.457 0 0 1 4.402-2.134l3.114 1.08a3.456 3.456 0 0 1 2.136 4.403" style="fill:none;fill-opacity:1;fill-rule:nonzero;stroke:#00ff4a;stroke-width:1.33333;visibility:visible"/><path d="M101.146 434.705c-.536 1.555-1.742 2.553-2.69 2.222-.948-.33-1.279-1.856-.739-3.41.537-1.555 1.743-2.548 2.69-2.22.946.326 1.277 1.853.739 3.408" style="fill:none;stroke:#00ff4a;stroke-width:.666665;stroke-linecap:round;stroke-linejoin:round;stroke-miterlimit:11.339;stroke-dasharray:none;stroke-opacity:1;visibility:visible"/><path d="M99.61 430.553c-.083-.03-.518-.511-1.699.157-1.181.671-2.391 2.701-1.962 4.71.001 0 .364 1.122 1.143 1.11" style="fill:none;stroke:#00ff4a;stroke-width:.666665;stroke-linecap:round;stroke-linejoin:round;stroke-miterlimit:11.339;stroke-dasharray:none;stroke-opacity:1;visibility:visible"/><path d="M98.01 430.02c-.082-.03-.518-.512-1.698.157-1.182.671-2.392 2.7-1.963 4.711.001-.001.364 1.122 1.143 1.108" style="fill:none;stroke:#00ff4a;stroke-width:.666665;stroke-linecap:round;stroke-linejoin:round;stroke-miterlimit:11.339;stroke-dasharray:none;stroke-opacity:1;visibility:visible"/><path d="M96.47 429.375c-.085-.03-.519-.51-1.7.159-1.18.67-2.392 2.699-1.962 4.708 0 0 .364 1.118 1.142 1.11M77.83 422.61c-.082-.028-.517-.51-1.697.159-1.183.669-2.393 2.7-1.963 4.706 0 0 .363 1.123 1.142 1.11" style="fill:none;stroke:#00ff4a;stroke-width:.666665;stroke-linecap:round;stroke-linejoin:round;stroke-miterlimit:11.339;stroke-dasharray:none;stroke-opacity:1;visibility:visible"/><path d="M95.09 428.958c-.085-.03-.52-.513-1.7.157s-2.392 2.7-1.962 4.71c0 .001.364 1.121 1.142 1.107M76.288 422.05c-.083-.03-.518-.51-1.698.159s-2.393 2.698-1.964 4.706c0 0 .366 1.12 1.144 1.11" style="fill:none;stroke:#00ff4a;stroke-width:.666665;stroke-linecap:round;stroke-linejoin:round;stroke-miterlimit:11.339;stroke-dasharray:none;stroke-opacity:1;visibility:visible"/><path d="M265.68 216.788a3.321 3.321 0 0 1-4.195 2.112l-3-.992a3.324 3.324 0 0 1-2.111-4.195 3.317 3.317 0 0 1 4.192-2.11l3.001.994a3.316 3.316 0 0 1 2.113 4.191" style="fill:none;fill-opacity:1;fill-rule:nonzero;stroke:#00ff4a;stroke-width:1.33333;visibility:visible"/><path d="M265.765 216.97c-.495 1.497-1.636 2.47-2.548 2.166-.917-.299-1.255-1.759-.759-3.259.495-1.499 1.635-2.467 2.55-2.167.912.3 1.252 1.76.756 3.26h.001" style="fill:none;stroke:#00ff4a;stroke-width:.666665;stroke-linecap:round;stroke-linejoin:round;stroke-miterlimit:11.339;stroke-dasharray:none;stroke-opacity:1;visibility:visible"/><path d="M264.233 213.01c-.08-.03-.504-.485-1.628.174-1.123.66-2.258 2.626-1.816 4.546 0 0 .365 1.071 1.114 1.05" style="fill:none;stroke:#00ff4a;stroke-width:.666665;stroke-linecap:round;stroke-linejoin:round;stroke-miterlimit:11.339;stroke-dasharray:none;stroke-opacity:1;visibility:visible"/><path d="M262.691 212.52c-.081-.027-.506-.482-1.628.176-1.123.658-2.253 2.622-1.816 4.544 0 0 .366 1.072 1.114 1.05" style="fill:none;stroke:#00ff4a;stroke-width:.666665;stroke-linecap:round;stroke-linejoin:round;stroke-miterlimit:11.339;stroke-dasharray:none;stroke-opacity:1;visibility:visible"/><path d="M261.203 211.922c-.082-.026-.502-.48-1.628.178-1.122.657-2.255 2.62-1.814 4.544-.001 0 .365 1.066 1.112 1.046M243.23 205.698c-.08-.028-.503-.482-1.628.176-.975.572-1.956 2.126-1.91 3.782" style="fill:none;stroke:#00ff4a;stroke-width:.666665;stroke-linecap:round;stroke-linejoin:round;stroke-miterlimit:11.339;stroke-dasharray:none;stroke-opacity:1;visibility:visible"/><path d="M259.874 211.542c-.081-.028-.505-.485-1.628.175-1.123.659-2.256 2.623-1.817 4.545 0 0 .366 1.07 1.114 1.046M241.742 205.182c-.079-.026-.502-.482-1.627.178-1.124.657-2.255 2.622-1.815 4.542 0 0 .363 1.068 1.111 1.048" style="fill:none;stroke:#00ff4a;stroke-width:.666665;stroke-linecap:round;stroke-linejoin:round;stroke-miterlimit:11.339;stroke-dasharray:none;stroke-opacity:1;visibility:visible"/><path d="m77.164 432.285 1.153 1.108" style="fill:none;stroke:#00ff4a;stroke-width:1.99999;stroke-linecap:round;stroke-linejoin:round;stroke-miterlimit:11.339;stroke-dasharray:none;stroke-opacity:1;visibility:visible"/><path d="m146.15 258.628-3.641 4.692M77.342 432.417l12.651 4.958M80.582 421.395l11.231 2.788M151.033 266.197l-8.7 3.94M256.067 216.44l-2.487-4.603M256.023 215.91l-2.443-3.983M257.842 212.014l-4.883 7.482M243.767 209.004l12.652 11.51M142.154 269.03l2.487 1.815M132.212 265.976l6.657-9.562M93.544 428.875l.977-3.806M256.554 217.239l3.996-8.189" style="fill:none;stroke:#00ff4a;stroke-width:.999997;stroke-linecap:round;stroke-linejoin:round;stroke-miterlimit:11.339;stroke-dasharray:none;stroke-opacity:1;visibility:visible"/><path d="m83.954 153.893 8.734-8.094M94.501 149.837l-3.923 2.095M83.954 153.893l7.1-8.518M94.501 149.837l-5.556 1.671M83.954 153.893l5.519-9.057M94.501 149.837l-7.136 1.13M73.877 150.97l-3.455-11.622M83.954 153.893l4.114-9.381M73.877 150.97l-5.033-12.077M93.721 428.831l5.889 1.722M93.501 428.787l3.591 7.743M93.721 428.831l4.289 1.189M93.501 428.787l1.991 7.209M93.721 428.831l2.749.544M93.501 428.787l.449 6.565M80.626 422.015l-2.796.595M93.234 428.787l-17.922-.202M93.721 428.831l1.369.127M80.626 422.015l-4.338.035M93.234 428.787l-19.464-.762M258.333 211.882l3.57 6.898M243.767 209.004l18.924 3.516M258.333 211.882l2.028 6.408M243.767 209.004l17.436 2.918M258.333 211.882l.54 5.808M243.767 209.004l-.537-3.306M253.58 211.837l-13.888-2.181M243.767 209.004l16.107 2.538M243.767 209.004l-2.025-3.822M258.289 211.882l-18.878-.932" style="fill:none;stroke:#00ff4a;stroke-width:.666665;stroke-linecap:round;stroke-linejoin:round;stroke-miterlimit:11.339;stroke-dasharray:none;stroke-opacity:1;visibility:visible"/><path d="m136.638 156.232 1.462-.532 1.373.177M135.796 168.903l-1.286-.531-.973-1.197" style="fill:none;stroke:#9500ff;stroke-width:.999997;stroke-linecap:round;stroke-linejoin:round;stroke-miterlimit:11.339;stroke-dasharray:none;stroke-opacity:1;visibility:visible" visibility="hidden"/><path d="M133.537 167.175c-.31-.843-.31-.843-.577-1.728l-.088-2.038c.177-1.108.177-1.108.4-2.216.353-1.018.353-1.018.796-2.038.576-.886.576-.886 1.152-1.728.665-.62.709-.62 1.418-1.197" style="fill:none;stroke:#9500ff;stroke-width:.999997;stroke-linecap:round;stroke-linejoin:round;stroke-miterlimit:11.339;stroke-dasharray:none;stroke-opacity:1;visibility:visible" visibility="hidden"/><path d="m137.258 168.725-1.462.178-25.652-7.444-1.286-.532-.974-1.151M110.941 148.832l1.463-.532 1.373.177 25.696 7.399 1.108.843" style="fill:none;stroke:#9500ff;stroke-width:1.99999;stroke-linecap:round;stroke-linejoin:round;stroke-miterlimit:11.339;stroke-dasharray:none;stroke-opacity:1;visibility:visible" visibility="hidden"/><path d="M140.581 156.719c.443.751.443.751.797 1.506.176.93.176.93.355 1.906-.045 1.062-.045 1.062-.133 2.125-.311 1.108-.311 1.108-.62 2.17-.487.978-.487.978-1.02 1.907-.62.752-.62.752-1.284 1.506l-1.418.886M107.884 159.776c-.31-.887-.31-.887-.576-1.728-.088-1.02-.088-1.02-.132-2.081.177-1.064.177-1.064.398-2.172.354-1.02.354-1.02.798-2.04.576-.883.576-.883 1.152-1.726.71-.62.71-.62 1.416-1.197" style="fill:none;stroke:#9500ff;stroke-width:1.99999;stroke-linecap:round;stroke-linejoin:round;stroke-miterlimit:11.339;stroke-dasharray:none;stroke-opacity:1;visibility:visible" visibility="hidden"/><path d="M304.64 234.15c-.31-.843-.31-.843-.579-1.73l-.087-2.036c.176-1.107.176-1.107.4-2.216.353-1.019.353-1.019.796-2.038.576-.886.576-.886 1.153-1.728.664-.62.708-.62 1.418-1.197" style="fill:none;stroke:#ffdf00;stroke-width:.999997;stroke-linecap:round;stroke-linejoin:round;stroke-miterlimit:11.339;stroke-dasharray:none;stroke-opacity:1;visibility:visible" visibility="hidden"/><path d="m307.74 223.206 1.463-.53 1.372.177M306.898 235.877l-1.285-.53-.974-1.199" style="fill:none;stroke:#ffdf00;stroke-width:.999997;stroke-linecap:round;stroke-linejoin:round;stroke-miterlimit:11.339;stroke-dasharray:none;stroke-opacity:1;visibility:visible" visibility="hidden"/><path d="M278.986 226.75c-.31-.885-.31-.885-.576-1.728-.088-1.018-.088-1.018-.132-2.08.177-1.066.177-1.066.399-2.172.353-1.02.353-1.02.797-2.038.576-.887.576-.887 1.152-1.728.71-.62.71-.62 1.417-1.196" style="fill:none;stroke:#ffdf00;stroke-width:1.99999;stroke-linecap:round;stroke-linejoin:round;stroke-miterlimit:11.339;stroke-dasharray:none;stroke-opacity:1;visibility:visible" visibility="hidden"/><path d="M311.683 223.693c.443.753.443.753.798 1.507.176.93.176.93.354 1.905-.045 1.063-.045 1.063-.133 2.127-.31 1.106-.31 1.106-.62 2.17-.487.975-.487.975-1.019 1.906-.621.752-.621.752-1.285 1.506-.71.442-.71.442-1.418.886" style="fill:none;stroke:#ffdf00;stroke-width:.999997;stroke-linecap:round;stroke-linejoin:round;stroke-miterlimit:11.339;stroke-dasharray:none;stroke-opacity:1;visibility:visible" visibility="hidden"/><path d="m282.043 215.81 1.463-.534 1.373.178 25.696 7.4 1.108.839" style="fill:none;stroke:#ffdf00;stroke-width:1.99999;stroke-linecap:round;stroke-linejoin:round;stroke-miterlimit:11.339;stroke-dasharray:none;stroke-opacity:1;visibility:visible" visibility="hidden"/><path d="m308.36 235.7-1.461.177-25.653-7.444-1.285-.53-.975-1.153" style="fill:none;stroke:#ffdf00;stroke-width:.999997;stroke-linecap:round;stroke-linejoin:round;stroke-miterlimit:11.339;stroke-dasharray:none;stroke-opacity:1;visibility:visible" visibility="hidden"/><path d="m252.959 219.496 3.55-6.02" style="fill:none;stroke:#00ff4a;stroke-width:.999997;stroke-linecap:round;stroke-linejoin:round;stroke-miterlimit:11.339;stroke-dasharray:none;stroke-opacity:1;visibility:visible"/><path d="m87.365 150.967-19.052-5.488" style="fill:none;stroke:#00ff4a;stroke-width:.666665;stroke-linecap:round;stroke-linejoin:round;stroke-miterlimit:11.339;stroke-dasharray:none;stroke-opacity:1;visibility:visible"/></svg>