<svg xmlns="http://www.w3.org/2000/svg" baseProfile="full" height="793.701" preserveAspectRatio="xMinYMin meet" style="width:919px;height:1159px" width="559.371" xml:space="preserve"><path d="m118.464 326.99.61-.603.003-.605M107.558 326.163l.375.611M107.933 326.773c.377.23.377.23.83.534.757.234.757.234 1.437.465.909.082.909.082 1.74.239l1.894.01c.987-.069.987-.069 1.896-.139.76-.221.76-.221 1.594-.368.608-.3.608-.3 1.138-.524" style="fill:none;stroke:red;stroke-width:.999997;stroke-linecap:round;stroke-linejoin:round;stroke-miterlimit:11.339;stroke-dasharray:none;stroke-opacity:1;visibility:visible"/><path d="M107.942 325.483c.382-.3.382-.3.836-.524.76-.224.76-.224 1.443-.446.835-.145.835-.145 1.745-.293.908.008.908.008 1.894-.063l1.817.163c.833.156.833.156 1.59.312.604.233.604.233 1.208.538" style="fill:none;stroke:red;stroke-width:1.99999;stroke-linecap:round;stroke-linejoin:round;stroke-miterlimit:11.339;stroke-dasharray:none;stroke-opacity:1;visibility:visible"/><path d="M121.214 551.266c-.532.3-.532.3-1.14.598-.76.222-.76.222-1.518.37-.91.145-.91.145-1.819.216l-1.895-.012c-.832-.082-.832-.082-1.665-.24l-1.36-.459c-.453-.309-.453-.309-.907-.613" style="fill:none;stroke:red;stroke-width:.999997;stroke-linecap:round;stroke-linejoin:round;stroke-miterlimit:11.339;stroke-dasharray:none;stroke-opacity:1;visibility:visible"/><path d="m110.91 551.124-.298-.76-1.49-111.834M118.474 325.171l.603.61 2.747 224.806-.61.677M109.122 438.529l-1.564-112.365.384-.681" style="fill:none;stroke:red;stroke-width:1.99999;stroke-linecap:round;stroke-linejoin:round;stroke-miterlimit:11.339;stroke-dasharray:none;stroke-opacity:1;visibility:visible"/><path d="M115.946 326.2c0 .53-1.236.959-2.76.959-1.522-.001-2.758-.431-2.758-.958 0-.528 1.236-.957 2.758-.957 1.524 0 2.76.429 2.76.956M119.077 325.782l-3.131.418" style="fill:none;stroke:red;stroke-width:.999997;stroke-linecap:round;stroke-linejoin:round;stroke-miterlimit:11.339;stroke-dasharray:none;stroke-opacity:1;visibility:visible"/><path d="M220.12 363.24c.15.152.15.152.374.304l.456.306 1.36.465 1.816.315c.908.083.908.083 1.894.088.983-.07.983-.07 1.893-.138l1.667-.293c.61-.3.686-.297 1.29-.522" style="fill:none;stroke:#00ff4a;stroke-width:.999997;stroke-linecap:round;stroke-linejoin:round;stroke-miterlimit:11.339;stroke-dasharray:none;stroke-opacity:1;visibility:visible" visibility="hidden"/><path d="m219.897 362.557.222.682" style="fill:none;stroke:#00ff4a;stroke-width:.666665;stroke-linecap:round;stroke-linejoin:round;stroke-miterlimit:11.339;stroke-dasharray:none;stroke-opacity:1;visibility:visible" visibility="hidden"/><path d="m230.871 363.765.687-.679.08-.605" style="fill:none;stroke:#00ff4a;stroke-width:.999997;stroke-linecap:round;stroke-linejoin:round;stroke-miterlimit:11.339;stroke-dasharray:none;stroke-opacity:1;visibility:visible" visibility="hidden"/><path d="M220.28 361.951c.453-.3.453-.3.985-.6l1.518-.444.228.003s2.929-.656 5.683.035l1.208.312 1.133.537.603.686-.067 115.234-.08.684M278.783 507.774c-1.077 1.956-1.077 2.03-2.232 3.91-1.834 1.871-1.836 1.948-3.746 3.743-2.595 1.79-2.595 1.79-5.186 3.503-3.196 1.634-3.272 1.636-6.468 3.192-3.877 1.474-3.877 1.474-7.68 2.798-4.329 1.246-4.329 1.246-8.734 2.34-4.707 1.014-4.707 1.014-9.488 1.882-5.084.708-5.084.708-10.167 1.265-5.232.407-5.232.407-10.464.737-5.38.103-5.38.103-10.761.13-5.303-.198-5.303-.198-10.604-.472-5.153-.502-5.153-.502-10.299-1.075-4.841-.8-4.841-.8-9.684-1.673-4.538-1.024-4.538-1.024-8.998-2.196-4.006-1.244-4.006-1.244-8.01-2.642-3.472-1.462-3.472-1.462-6.869-3.081l-5.577-3.375c-2.106-1.833-2.106-1.833-4.138-3.736-1.42-1.904-1.42-1.904-2.69-3.88" style="fill:none;stroke:#00ff4a;stroke-width:1.99999;stroke-linecap:round;stroke-linejoin:round;stroke-miterlimit:11.339;stroke-dasharray:none;stroke-opacity:1;visibility:visible" visibility="hidden"/><path d="m219.986 477.26-.09-114.703.386-.604" style="fill:none;stroke:#00ff4a;stroke-width:1.99999;stroke-linecap:round;stroke-linejoin:round;stroke-miterlimit:11.339;stroke-dasharray:none;stroke-opacity:1;visibility:visible" visibility="hidden"/><path d="M196.384 536.646c.002-.227.002-.227-.074-.378l.003-.076M196.612 544.804c.038-4.302.038-4.302.002-8.609.002-.303.002-.303.006-.53-.075-.225-.075-.225-.074-.377M183.102 539.016c.45.384.45.384.979.614.679.31.679.31 1.437.542.906.162.906.162 1.739.244.985.01.985.01 1.892.091.988-.141.988-.141 1.897-.207.836-.22.836-.22 1.595-.368.684-.292.684-.292 1.295-.588M141.87 514.023c.996-1.276.996-1.352 2.07-2.55 1.374-1.27 1.374-1.27 2.749-2.468 1.755-1.193 1.755-1.193 3.43-2.389 1.981-1.112 1.981-1.112 4.039-2.152 2.204-1.036 2.204-1.036 4.487-2.074 2.584-.884 2.584-.884 5.092-1.768 2.736-.883 2.736-.883 5.472-1.688 3.037-.727 3.037-.727 6.075-1.38 3.034-.58 3.034-.58 6.072-1.158 3.262-.496 3.262-.496 6.449-.92l6.675-.698c3.413-.192 3.413-.192 6.823-.392l6.898-.087c3.408.031 3.408.031 6.894.139 3.41.18 3.41.18 6.74.362l6.512.66c3.255.41 3.255.41 6.586.892 3.101.632 3.101.632 6.202 1.19 2.875.702 2.875.702 5.823 1.408 2.721.782 2.721.782 5.367 1.637 2.49.853 2.49.853 4.985 1.78a289.488 289.488 0 0 1 4.453 2.005c1.962 1.075 2.037 1.075 3.922 2.23 1.655 1.15 1.73 1.148 3.314 2.292l2.706 2.441c1.05 1.22 1.05 1.295 2.024 2.515" style="fill:none;stroke:#00ff4a;stroke-width:.999997;stroke-linecap:round;stroke-linejoin:round;stroke-miterlimit:11.339;stroke-dasharray:none;stroke-opacity:1;visibility:visible" visibility="hidden"/><path d="m136.988 509.144-1.179-3.938M279.577 503.776l-.792 3.996M229.183 478.022c-1.136-.163-1.136-.163-2.27-.322-1.213-.162-1.213-.162-2.496-.25-1.82-.09-1.82-.09-3.638-.26" style="fill:none;stroke:#00ff4a;stroke-width:1.99999;stroke-linecap:round;stroke-linejoin:round;stroke-miterlimit:11.339;stroke-dasharray:none;stroke-opacity:1;visibility:visible" visibility="hidden"/><path d="m183.11 538.035-.45-.757.08-.303M194.88 534.915l1.518.144-.076.001M231.991 477.82l-.081.526.073.002M228.96 477.566l.15.152.073.302M196.384 536.646l-.455-.079M196.313 536.192l-.076-.001-.077-.001-1.54 2.478M196.612 544.804l-.23.454-1.59-.166M196.546 535.288l-.15-.228M193.936 539.344l.684-.676" style="fill:none;stroke:#00ff4a;stroke-width:.999997;stroke-linecap:round;stroke-linejoin:round;stroke-miterlimit:11.339;stroke-dasharray:none;stroke-opacity:1;visibility:visible" visibility="hidden"/><path d="m182.66 537.276-.007 1.056.449.684" style="fill:none;stroke:#00ff4a;stroke-width:.999997;stroke-linecap:round;stroke-linejoin:round;stroke-miterlimit:11.339;stroke-dasharray:none;stroke-opacity:1;visibility:visible" visibility="hidden"/><path d="m195.053 545.219.104 109.181M183.013 655.428l-.164-117.492M220.275 547.33l.012 43.909M231.72 591.17l.044-45.162M278.778 499.844c.437 1.966.437 1.966.797 3.932-.055 6.274-.055 6.274-.185 12.54-.013 1.436-.013 1.436-.101 2.794l-.162 1.056c-.39 1.433-.39 1.433-.857 2.788-1.001 1.878-1.001 1.878-2.077 3.682-1.148 1.35-1.148 1.35-2.376 2.698-1.448 1.27-1.527 1.269-2.978 2.538l-.762.603c-1.83 1.265-1.83 1.265-3.659 2.456-2.13 1.115-2.13 1.115-4.339 2.227-2.436 1.112-2.436 1.112-4.869 2.149-2.737.955-2.737.955-5.472 1.837-2.963.883-2.963.883-5.925 1.683-3.418.803-3.418.803-6.834 1.53l-6.677 1.145c-3.416.501-3.416.501-6.832.922-3.563.272-3.563.272-7.127.542-3.64.192-3.64.192-7.2.312-3.641.044-3.641.044-7.278.01-3.634-.108-3.634-.108-7.195-.292-.91-.01-.91-.01-1.893-.092M231.983 478.348c2.35.322 2.35.322 4.618.644 4.538.872 4.614.872 9.152 1.82a334.15 334.15 0 0 1 8.317 2.264c3.704 1.32 3.704 1.32 7.403 2.711 3.169 1.539 3.169 1.539 6.262 3.08 2.562 1.684 2.562 1.684 5.046 3.445 1.956 1.828 1.956 1.828 3.757 3.66 1.196 1.898 1.196 1.898 2.24 3.871M136.224 501.207c-.244 1.961-.244 1.961-.415 3.999l.18 14.052c.07.53.07.53.216 1.06.365 1.438.29 1.436.736 2.801.744 1.444.744 1.444 1.565 2.807.224.457.224.457.524.912 1.124 1.294 1.123 1.37 2.249 2.668l3.008 2.593.751.612a103.163 103.163 0 0 0 3.619 2.375c2.11 1.152 2.11 1.152 4.297 2.304 2.416 1.077 2.416 1.077 4.906 2.084l5.44 1.861c2.949.857 2.949.857 5.897 1.64 3.403.784 3.403.784 6.883 1.496 3.254.629 3.254.629 6.585 1.115M220.78 477.188c-1.97-.092-1.97-.092-3.939-.26-5.149-.121-5.149-.121-10.306-.17-5.153.18-5.153.18-10.231.364-5.082.405-5.082.405-10.087.89-4.783.708-4.783.708-9.563 1.498-4.554.94-4.554.94-9.034 1.96-4.103 1.174-4.103 1.174-8.131 2.42-3.649 1.402-3.649 1.402-7.224 2.881-3.045 1.556-3.045 1.556-6.013 3.193-2.443 1.716-2.443 1.716-4.732 3.586-1.756 1.797-1.756 1.797-3.443 3.745-1.001 1.879-1.003 1.955-1.853 3.912M231.909 478.346l-2.726-.326" style="fill:none;stroke:#00ff4a;stroke-width:1.99999;stroke-linecap:round;stroke-linejoin:round;stroke-miterlimit:11.339;stroke-dasharray:none;stroke-opacity:1;visibility:visible" visibility="hidden"/><path d="m376.54 586.022-.464.754M195.048 538.396l.006 6.824" style="fill:none;stroke:#00ff4a;stroke-width:.999997;stroke-linecap:round;stroke-linejoin:round;stroke-miterlimit:11.339;stroke-dasharray:none;stroke-opacity:1;visibility:visible" visibility="hidden"/><path d="m365.368 612.144-.448-.683.402-24.758M376.466 585.796l.076.226-.486 25.522-.46.752M375.595 612.296c-.459.304-.459.376-.99.597-.755.3-.755.3-1.445.523-.906.067-.906.067-1.816.21l-1.82-.012c-.83-.158-.904-.158-1.738-.314-.756-.233-.756-.233-1.439-.467-.527-.305-.527-.305-.979-.689" style="fill:none;stroke:#00ff4a;stroke-width:1.99999;stroke-linecap:round;stroke-linejoin:round;stroke-miterlimit:11.339;stroke-dasharray:none;stroke-opacity:1;visibility:visible" visibility="hidden"/><path d="m110.88 562.814.3.76M367.68 574.984c.38.148.38.148.755.228.911.156.911.156 1.821.244.904.079.904.079 1.815.01.911-.07.911-.07 1.747-.216.757-.216.757-.216 1.437-.443.533-.297.533-.297 1.067-.597M226.645 593.643l-1.822-.013c-.829-.157-.829-.157-1.74-.315-.151 0-.151 0-.378-.08-.229-.001-.229-.001-.378-.077-.154.072-.154.072-.229.072M226.645 593.643c.982-.143.982-.143 1.89-.215.838-.217.838-.217 1.598-.517l1.066-.595M183.546 656.032c.454.31.454.31.982.692.756.23.756.23 1.51.541.907.156.907.156 1.816.24l1.97.015c.985-.07.985-.07 1.972-.215.757-.22.757-.22 1.592-.52.608-.293.608-.293 1.14-.67" style="fill:none;stroke:#00ff4a;stroke-width:.999997;stroke-linecap:round;stroke-linejoin:round;stroke-miterlimit:11.339;stroke-dasharray:none;stroke-opacity:1;visibility:visible" visibility="hidden"/><path d="m219.96 596.32-3.075 5.281" style="fill:none;stroke:#00ff4a;stroke-width:1.99999;stroke-linecap:round;stroke-linejoin:round;stroke-miterlimit:11.339;stroke-dasharray:none;stroke-opacity:1;visibility:visible" visibility="hidden"/><path d="m117.161 563.919-.155-10.225.302.154 65.32 24.516M195.456 583.182l24.53 9.202" style="fill:none;stroke:#00ff4a;stroke-width:.999997;stroke-linecap:round;stroke-linejoin:round;stroke-miterlimit:11.339;stroke-dasharray:none;stroke-opacity:1;visibility:visible" visibility="hidden"/><path d="m119.049 564.69-1.888-.771" style="fill:none;stroke:#00ff4a;stroke-width:1.99999;stroke-linecap:round;stroke-linejoin:round;stroke-miterlimit:11.339;stroke-dasharray:none;stroke-opacity:1;visibility:visible" visibility="hidden"/><path d="m183.174 655.2.37.832M194.589 668.91l.537-.825M183.232 667.997l.373.835M121.874 550.928h.078M121.722 550.848l.076.079.075.001.077-.154M117.773 552.488l.077.075.302-.224.454-.073M220.68 590.498l-.077.15M119.049 564.69l.23.08M117.189 552.918l-.181.776M111.04 551.382l-.3-.687" style="fill:none;stroke:#00ff4a;stroke-width:.999997;stroke-linecap:round;stroke-linejoin:round;stroke-miterlimit:11.339;stroke-dasharray:none;stroke-opacity:1;visibility:visible" visibility="hidden"/><path d="m195.142 655.285.019 7.875" style="fill:none;stroke:#00ff4a;stroke-width:1.99999;stroke-linecap:round;stroke-linejoin:round;stroke-miterlimit:11.339;stroke-dasharray:none;stroke-opacity:1;visibility:visible" visibility="hidden"/><path d="m220.41 595.624-.15.246.032-4.164M225.129 593.635l1.516.01M231.2 592.315l.532-.679-.079.374h-.153l.075.157-.153.525.305.004-.006.756L368.13 576.12l-.076-.533M231.18 605.039l.538-.759M195.464 651.841l32.914-56.976-.003 10.455-.46.903M194.529 656.115l.613-.828" style="fill:none;stroke:#00ff4a;stroke-width:.999997;stroke-linecap:round;stroke-linejoin:round;stroke-miterlimit:11.339;stroke-dasharray:none;stroke-opacity:1;visibility:visible" visibility="hidden"/><path d="M222.098 593.23v-.074l-.378.296-1.31 2.172" style="fill:none;stroke:#00ff4a;stroke-width:1.99999;stroke-linecap:round;stroke-linejoin:round;stroke-miterlimit:11.339;stroke-dasharray:none;stroke-opacity:1;visibility:visible" visibility="hidden"/><path d="M220.653 592.087s.226.739 1.445 1.143" style="fill:none;stroke:#00ff4a;stroke-width:.999997;stroke-linecap:round;stroke-linejoin:round;stroke-miterlimit:11.339;stroke-dasharray:none;stroke-opacity:1;visibility:visible" visibility="hidden"/><path d="m220.26 595.87-.3.45" style="fill:none;stroke:#00ff4a;stroke-width:1.99999;stroke-linecap:round;stroke-linejoin:round;stroke-miterlimit:11.339;stroke-dasharray:none;stroke-opacity:1;visibility:visible" visibility="hidden"/><path d="M183.23 668.15c.15.38.15.38.375.759l.15.154c.453.382.453.382.981.69.677.307.677.307 1.437.54.905.16.905.16 1.816.238.91.085.91.085 1.891.013.91-.067.91-.067 1.822-.207.834-.226.834-.226 1.592-.524.608-.298.608-.298 1.22-.749M376.634 572.775l.073.604M365.728 572.618h0M365.652 572.692l-.082.452M366.926 574.368l.528.382h.152M376.322 574.21l.456-.677M366.084 586.63l.151-.075M366.236 586.555l1.664-.216.23-10.22M376.543 585.72l-.461.68M231.5 592.01v.304M366.926 574.368l-.45-.23-.681-.534-.3-.608v-.228l.079-.152.078.002-.002.38M231.494 603.599l.227.23-.002-10.376M227.914 606.223l-.153.225M226.869 593.647l.528.002.305.081.45.303.154.079-.079.074.076.3.074.381M220.602 590.648l-.075.075-.234.75" style="fill:none;stroke:#00ff4a;stroke-width:.999997;stroke-linecap:round;stroke-linejoin:round;stroke-miterlimit:11.339;stroke-dasharray:none;stroke-opacity:1;visibility:visible" visibility="hidden"/><path d="M227.76 606.448c.38-.07.38-.07.76-.144.684-.221.684-.221 1.442-.444.532-.3.532-.3 1.065-.597" style="fill:none;stroke:#00ff4a;stroke-width:1.99999;stroke-linecap:round;stroke-linejoin:round;stroke-miterlimit:11.339;stroke-dasharray:none;stroke-opacity:1;visibility:visible" visibility="hidden"/><path d="M366.007 586.63c.45.307.45.307.904.537.679.232.679.232 1.44.465.825.155.825.155 1.659.236.912.01.912.01 1.82.015.833-.07.833-.07 1.745-.21l1.367-.451c.532-.296.532-.296.99-.594" style="fill:none;stroke:#00ff4a;stroke-width:.999997;stroke-linecap:round;stroke-linejoin:round;stroke-miterlimit:11.339;stroke-dasharray:none;stroke-opacity:1;visibility:visible" visibility="hidden"/><path d="m368.39 571.123-.607.075-1.216.52-.839.75v.15l-133.463 16.857M119.28 564.768l63.394 23.92M195.78 593.635l21.107 7.965-21.397 36.601M110.741 550.695l.14 12.119.373.91M183.309 668.224l-.08.223.11 26.812.451.84M183.79 696.1c.528.377.528.377 1.054.685.756.31.756.31 1.586.546.91.156.91.156 1.816.239l1.968.014c.99-.144.99-.144 1.9-.29.759-.299.759-.299 1.594-.59.532-.301.532-.301 1.068-.677M375.932 586.628l.534-.754.078-.154.164-12.342-.145-.834-.828-.69-1.212-.535-.603-.156M231.72 603.828l134.285-17.196M231.027 605.264l.69-.908.003-.528M194.514 669.063l.61-.828.039-5.075 32.599-56.712M183.173 655.123l.056 13.027M220.137 587.699l-24.539-9.187M182.757 573.702l-60.805-22.775" style="fill:none;stroke:#00ff4a;stroke-width:1.99999;stroke-linecap:round;stroke-linejoin:round;stroke-miterlimit:11.339;stroke-dasharray:none;stroke-opacity:1;visibility:visible" visibility="hidden"/><path d="m194.776 696.027.46-.832-.037-26.883-.073-.15" style="fill:none;stroke:#00ff4a;stroke-width:1.99999;stroke-linecap:round;stroke-linejoin:round;stroke-miterlimit:11.339;stroke-dasharray:none;stroke-opacity:1;visibility:visible" visibility="hidden"/><path d="M119.5 564.843c-.606.147-.606.147-1.21.219-.913.144-.913.144-1.822.212-.91-.08-.91-.08-1.815-.164-.832-.08-.832-.08-1.588-.314-.683-.232-.683-.232-1.284-.462" style="fill:none;stroke:#00ff4a;stroke-width:.999997;stroke-linecap:round;stroke-linejoin:round;stroke-miterlimit:11.339;stroke-dasharray:none;stroke-opacity:1;visibility:visible" visibility="hidden"/><path d="m111.782 564.335-.752-.688-.149-.681" style="fill:none;stroke:#00ff4a;stroke-width:.999997;stroke-linecap:round;stroke-linejoin:round;stroke-miterlimit:11.339;stroke-dasharray:none;stroke-opacity:1;visibility:visible" visibility="hidden"/><path d="m121.52 589.622.766-.678.154-.753-.292-22.341M110.88 562.964l.348 25.37.148.761.749.687M112.125 589.782c.605.23.605.23 1.21.537l1.665.316c.908.08.908.08 1.818.09.91-.072.91-.072 1.818-.139.836-.22.836-.22 1.594-.369.682-.297.682-.297 1.29-.594" style="fill:none;stroke:#00ff4a;stroke-width:1.99999;stroke-linecap:round;stroke-linejoin:round;stroke-miterlimit:11.339;stroke-dasharray:none;stroke-opacity:1;visibility:visible" visibility="hidden"/><path d="M373.958 566.512c-.008.586-1.17 1.055-2.59 1.044-1.435-.01-2.586-.494-2.581-1.081.004-.587 1.163-1.05 2.593-1.041 1.424.01 2.58.493 2.578 1.078" style="fill:none;stroke:#00ff4a;stroke-width:.999997;stroke-linecap:round;stroke-linejoin:round;stroke-miterlimit:11.339;stroke-dasharray:none;stroke-opacity:1;visibility:visible" visibility="hidden"/><path d="M368.548 567.283s-.484.672.512 1.24c1 .563 3.702.703 4.67.067.965-.63.273-.974.273-.974M368.488 570.6s-.486.672.512 1.238c.994.568 3.696.705 4.67.072.963-.627.273-.98.273-.98" style="fill:none;stroke:#00ff4a;stroke-width:.999997;stroke-linecap:round;stroke-linejoin:round;stroke-miterlimit:11.339;stroke-dasharray:none;stroke-opacity:1;visibility:visible" visibility="hidden"/><path d="M368.52 568.828s-.486.67.51 1.238c.997.568 3.7.7 4.666.072.971-.63.282-.982.282-.982M191.91 531.827c-.833-.075-.833-.075-1.665-.216-.91-.008-.91-.008-1.82-.012-.908.06-.908.06-1.743.192l-1.67.393c-.536.268-.612.27-1.146.538M189.714 538.615l-1.894-.015-1.742-.285-.604-.139M188.577 531.664h-.152M183.764 535.236l-.674-.684-.07-.682M195.146 534.026l-.234.681-.915.608M192.826 538.095c-.682.13-.682.13-1.292.33l-.91.13c-.454-.004-.454-.004-.907.061M193.996 535.315c-.688.264-.688.264-1.448.53-.911.196-.911.196-1.822.326-.985.061-.985.061-1.97.056-.986-.01-.986-.01-1.97-.081-.832-.211-.832-.211-1.738-.422-.606-.21-.606-.21-1.284-.488M368.572 572.199s-.486.673.511 1.241c1.003.566 3.703.7 4.667.072.968-.628.28-.98.28-.98M228.08 362.61c.002.532-1.068.973-2.395.985-1.325.011-2.404-.412-2.409-.944-.002-.533 1.068-.973 2.394-.984 1.327-.012 2.407.411 2.41.943M187.728 533.619l.518.541 1.582.035.665-.504" style="fill:none;stroke:#00ff4a;stroke-width:.999997;stroke-linecap:round;stroke-linejoin:round;stroke-miterlimit:11.339;stroke-dasharray:none;stroke-opacity:1;visibility:visible" visibility="hidden"/><path d="m183.866 532.72-.154.136-.538.675-.15.135-.004.202-.028 2.52.373.684.375.275.905.55.83.279M192.826 538.095l.228-.067 1.146-.537.305-.27.612-.673.028-2.522-.072-.203-.375-.683-.073-.136-.152-.14-.979-.548-1.433-.42-.151-.069" style="fill:none;stroke:#00ff4a;stroke-width:.999997;stroke-linecap:round;stroke-linejoin:round;stroke-miterlimit:11.339;stroke-dasharray:none;stroke-opacity:1;visibility:visible" visibility="hidden"/><path d="m189.714 538.615 5.063 8.289M185.474 538.176l-2.809 7.41M220.26 595.87l-3.375 5.731" style="fill:none;stroke:#00ff4a;stroke-width:1.99999;stroke-linecap:round;stroke-linejoin:round;stroke-miterlimit:11.339;stroke-dasharray:none;stroke-opacity:1;visibility:visible" visibility="hidden"/><path d="m195.598 578.512-12.97-.148M182.628 578.364l12.828 4.818" style="fill:none;stroke:#00ff4a;stroke-width:.999997;stroke-linecap:round;stroke-linejoin:round;stroke-miterlimit:11.339;stroke-dasharray:none;stroke-opacity:1;visibility:visible" visibility="hidden"/><path d="m183.173 655.123 11.988 8.037" style="fill:none;stroke:#00ff4a;stroke-width:1.99999;stroke-linecap:round;stroke-linejoin:round;stroke-miterlimit:11.339;stroke-dasharray:none;stroke-opacity:1;visibility:visible" visibility="hidden"/><path d="m226.645 593.643-1.516-.008M195.126 668.085l.338-16.244M231.5 592.314l.219 1.139" style="fill:none;stroke:#00ff4a;stroke-width:.999997;stroke-linecap:round;stroke-linejoin:round;stroke-miterlimit:11.339;stroke-dasharray:none;stroke-opacity:1;visibility:visible" visibility="hidden"/><path d="m195.456 583.182-12.782 5.506M182.674 588.688l13.106 4.947M182.628 578.364l12.97.148M195.598 578.512l-12.841-4.81M117.161 563.919l4.987 1.931" style="fill:none;stroke:#00ff4a;stroke-width:1.99999;stroke-linecap:round;stroke-linejoin:round;stroke-miterlimit:11.339;stroke-dasharray:none;stroke-opacity:1;visibility:visible" visibility="hidden"/><path d="m365.65 572.998 8.308-6.486M373.943 570.93l.015-4.418M376.778 573.533l-8.23-6.25M366.926 574.368l7.077-6.752M376.778 573.533l-8.258-4.705M366.926 574.368l7.052-5.212M196.322 535.06l-7.745-3.396M189.714 538.615l-1.289-6.951M376.778 573.533l-8.206-1.334M366.926 574.368l7.104-1.836M183.764 535.236l3.964-1.617M193.997 535.315l-3.504-1.624M231.5 592.314l-3.123 2.553M189.714 538.615l-6.694-4.745" style="fill:none;stroke:#00ff4a;stroke-width:.999997;stroke-linecap:round;stroke-linejoin:round;stroke-miterlimit:11.339;stroke-dasharray:none;stroke-opacity:1;visibility:visible" visibility="hidden"/></svg>