<svg xmlns="http://www.w3.org/2000/svg" baseProfile="full" height="793.701" preserveAspectRatio="xMinYMin meet" style="width:919px;height:1159px" width="559.371" xml:space="preserve"><path d="M199.071 270.494c-1 1.616-1.078 1.692-2.153 3.306-1.768 1.614-1.768 1.614-3.614 3.153-2.46 1.537-2.46 1.537-4.998 2.999-3.152 1.46-3.152 1.46-6.38 2.768l-7.536 2.46-8.613 2c-4.765.845-4.765.845-9.457 1.69-5.074.616-5.074.616-10.15 1.154-5.23.385-5.23.385-10.534.693-5.304.153-5.304.153-10.687.23-5.304-.155-5.304-.155-10.687-.386-5.152-.383-5.152-.383-10.38-.767-4.922-.616-4.922-.616-9.841-1.308-4.538-.845-4.538-.845-9.074-1.768l-8.149-2.153c-3.538-1.23-3.538-1.23-7.078-2.537-2.843-1.384-2.843-1.384-5.687-2.846-2.232-1.537-2.232-1.537-4.382-3.076-1.461-1.613-1.461-1.613-2.847-3.305" style="fill:none;stroke:red;stroke-width:1.99999;stroke-linecap:round;stroke-linejoin:round;stroke-miterlimit:11.339;stroke-dasharray:none;stroke-opacity:1;visibility:visible" visibility="hidden"/><path d="M191.768 276.722c-1.386-1.076-1.386-1.076-2.768-2.076-1.694-1-1.694-1-3.383-1.922l-4-1.846c-2.23-.845-2.23-.845-4.537-1.614-2.536-.768-2.536-.768-4.998-1.538-2.768-.692-2.768-.692-5.536-1.308-2.921-.614-2.921-.614-5.844-1.152-3.074-.538-3.074-.538-6.226-1-3.23-.384-3.23-.384-6.459-.692-3.383-.308-3.383-.308-6.69-.538-3.459-.154-3.459-.154-6.842-.308-3.463 0-3.463 0-6.92-.076-3.461.076-3.461.076-6.844.153-3.461.23-3.461.23-6.844.385-3.383.307-3.383.307-6.688.615-3.229.384-3.229.384-6.536.845-2.615.384-2.615.462-5.23.847l-.919.153c-3.002.615-3.002.615-5.924 1.231-2.69.692-2.768.692-5.458 1.46-2.537.77-2.537.77-4.997 1.539-2.308.845-2.308.845-4.537 1.768l-4 1.845c-1.69 1-1.69 1-3.304 1.999l-2.768 2.153-.387.384" style="fill:none;stroke:red;stroke-width:.999997;stroke-linecap:round;stroke-linejoin:round;stroke-miterlimit:11.339;stroke-dasharray:none;stroke-opacity:1;visibility:visible" visibility="hidden"/><path d="m56.825 272.802-1.382-3.306M67.744 255.348l1.768-.846M67.744 255.348l-1.079.538M71.202 253.733l2-.692M73.202 253.041l1.922-.692M198.686 263.805c-1.23-1.692-1.23-1.692-2.461-3.23-1.921-1.613-1.921-1.613-3.919-3.075-2.538-1.462-2.538-1.462-5.153-2.846-3.23-1.382-3.23-1.382-6.459-2.613-3.768-1.153-3.768-1.153-7.534-2.23-4.228-.924-4.228-.924-8.536-1.847-4.536-.769-4.536-.769-9.227-1.46-4.844-.538-4.844-.538-9.765-.999-5.074-.308-5.074-.308-10.148-.537-5.152-.079-5.152-.079-10.304-.079-5.152.155-5.152.155-10.303.385-4.997.384-4.997.384-10.073.846-4.766.616-4.766.616-9.535 1.308-4.457.845-4.457.845-8.919 1.768-4.076.998-4.076 1.076-8.15 2.076l-1.844.616-1.232.46M57.364 288.18c.768 1.153.846 1.153 1.615 2.306 1.153 1.154 1.153 1.154 2.381 2.23.387.384.387.384.77.692l3.075 2.152 3.692 2c2.153 1 2.153 1 4.384 1.924l5.69 1.998c2.689.768 2.689.768 5.457 1.538 2.922.692 2.922.692 5.845 1.306 3.23.616 3.23.616 6.38 1.155 3.307.459 3.307.459 6.615.845 3.457.384 3.536.384 6.997.692l7.072.462 7.305.153c3.615 0 3.615 0 7.228-.077 3.614-.076 3.614-.076 7.229-.307 3.534-.23 3.534-.23 7.149-.539 3.384-.384 3.384-.384 6.842-.77 3.307-.46 3.307-.46 6.615-.997 3.15-.617 3.15-.617 6.227-1.231l5.844-1.384c2.692-.846 2.692-.846 5.382-1.615 2.768-1.076 2.768-1 5.612-2.076 2.078-1 2.154-1 4.23-1.923 1.845-1.076 1.845-1.076 3.614-2.076 1.536-1.076 1.46-1.153 2.998-2.23.385-.306.385-.306.77-.69 1.075-1.078 1.154-1.078 2.23-2.231.768-1.154.768-1.154 1.538-2.384l.462-.923c.46-1.152.46-1.152.768-2.383.152-.537.152-.537.232-1.077 0-7.764.074-7.842 0-15.61-.387-1.688-.387-1.688-.926-3.303" style="fill:none;stroke:red;stroke-width:1.99999;stroke-linecap:round;stroke-linejoin:round;stroke-miterlimit:11.339;stroke-dasharray:none;stroke-opacity:1;visibility:visible" visibility="hidden"/><path d="M55.67 266.113c-.152 1.692-.152 1.692-.228 3.383.075 5.921.153 5.921.229 11.841.078 1.23.078 1.23.078 2.461.154.538.154.538.228 1.076.463 1.154.463 1.154.847 2.383.308.463.308.463.54.923M66.437 255.962l-1.232.615c-2.304 1.461-2.304 1.461-4.612 2.999-1.613 1.538-1.613 1.614-3.23 3.229-.923 1.616-.923 1.616-1.69 3.307M71.202 253.733l-1.69.77M57.364 288.18l-1.921-18.684" style="fill:none;stroke:red;stroke-width:1.99999;stroke-linecap:round;stroke-linejoin:round;stroke-miterlimit:11.339;stroke-dasharray:none;stroke-opacity:1;visibility:visible" visibility="hidden"/><path d="M180.692 359.051c.156.155.156.155.385.309l.461.306 1.383.464 1.844.307c.921.078.921.078 1.921.077.998-.076.998-.076 1.92-.152l1.69-.308c.614-.308.693-.307 1.308-.537" style="fill:none;stroke:#00ff4a;stroke-width:.999997;stroke-linecap:round;stroke-linejoin:round;stroke-miterlimit:11.339;stroke-dasharray:none;stroke-opacity:1;visibility:visible"/><path d="m180.462 358.36.23.69" style="fill:none;stroke:#00ff4a;stroke-width:.666665;stroke-linecap:round;stroke-linejoin:round;stroke-miterlimit:11.339;stroke-dasharray:none;stroke-opacity:1;visibility:visible"/><path d="m191.604 359.515.693-.693.075-.612" style="fill:none;stroke:#00ff4a;stroke-width:.999997;stroke-linecap:round;stroke-linejoin:round;stroke-miterlimit:11.339;stroke-dasharray:none;stroke-opacity:1;visibility:visible"/><path d="M241.1 505.278c-1.08 1.989-1.08 2.066-2.241 3.978-1.849 1.911-1.849 1.99-3.777 3.822-2.617 1.832-2.617 1.832-5.236 3.584-3.232 1.678-3.308 1.68-6.54 3.277-3.924 1.523-3.924 1.523-7.77 2.89-4.386 1.288-4.386 1.288-8.848 2.424-4.765 1.059-4.765 1.059-9.611 1.969-5.15.75-5.15.75-10.304 1.348-5.303.446-5.303.446-10.607.813-5.456.14-5.456.14-10.914.2-5.38-.167-5.38-.167-10.76-.415-5.227-.476-5.227-.476-10.452-1.025-4.912-.78-4.912-.78-9.832-1.636-4.61-1.01-4.61-1.01-9.14-2.172-4.068-1.235-4.068-1.235-8.142-2.628-3.528-1.463-3.528-1.463-6.986-3.08-2.836-1.697-2.836-1.697-5.678-3.39-2.145-1.845-2.145-1.845-4.218-3.762-1.454-1.925-1.454-1.925-2.755-3.92M181.273 474.698l-.81-116.339.39-.616M180.85 357.743c.46-.306.46-.306.998-.613.696-.21.757-.23 1.34-.403M190.27 356.894l.334.084 1.153.539.615.692.653 116.877-.077.696" style="fill:none;stroke:#00ff4a;stroke-width:1.99999;stroke-linecap:round;stroke-linejoin:round;stroke-miterlimit:11.339;stroke-dasharray:none;stroke-opacity:1;visibility:visible"/><path d="M157.705 535.079c.003-.232.003-.232-.079-.383l.004-.076M157.986 543.352c.014-4.364.014-4.364-.052-8.732 0-.306 0-.306.003-.537-.079-.23-.079-.23-.077-.383M144.246 537.568c.462.386.462.386.998.615.693.31.693.31 1.461.541.919.158.919.158 1.765.236.998.004.998.004 1.92.08.999-.149.999-.149 1.924-.22.847-.23.847-.23 1.616-.384.689-.301.689-.301 1.309-.605M102.273 512.475c1.003-1.301 1.003-1.377 2.081-2.6 1.388-1.299 1.388-1.299 2.776-2.52 1.768-1.221 1.768-1.221 3.463-2.444 2-1.14 2-1.14 4.081-2.208 2.23-1.067 2.23-1.067 4.542-2.133 2.612-.91 2.612-.91 5.15-1.824 2.768-.912 2.768-.912 5.54-1.748 3.075-.756 3.075-.756 6.154-1.438l6.15-1.21c3.308-.524 3.308-.524 6.536-.975 3.384-.375 3.384-.375 6.767-.747 3.46-.22 3.46-.22 6.916-.444 3.537-.064 3.537-.064 6.995-.13 3.458.01 3.458.01 6.994.096 3.459.164 3.459.164 6.839.328 3.308.312 3.308.312 6.612.63 3.3.392 3.3.392 6.683.862 3.15.62 3.15.62 6.3 1.165 2.918.697 2.918.697 5.909 1.393 2.766.778 2.766.778 5.457 1.627 2.53.85 2.53.85 5.068 1.775 2.304 1.005 2.304 1.005 4.528 2.005 1.997 1.079 2.073 1.079 3.992 2.236 1.685 1.157 1.761 1.156 3.376 2.305l2.76 2.462c1.07 1.23 1.073 1.304 2.068 2.536" style="fill:none;stroke:#00ff4a;stroke-width:.999997;stroke-linecap:round;stroke-linejoin:round;stroke-miterlimit:11.339;stroke-dasharray:none;stroke-opacity:1;visibility:visible"/><path d="m97.288 507.555-1.219-3.987M241.877 501.22l-.777 4.057M190.604 475.412c-1.151-.158-1.151-.158-2.304-.312-1.23-.16-1.23-.16-2.535-.24-1.847-.08-1.847-.08-3.69-.24" style="fill:none;stroke:#00ff4a;stroke-width:1.99999;stroke-linecap:round;stroke-linejoin:round;stroke-miterlimit:11.339;stroke-dasharray:none;stroke-opacity:1;visibility:visible"/><path d="m193.453 475.19-.081.533.076.003M190.373 474.951l.156.153.073.308M157.705 535.079l-.461-.079M157.629 534.619h-.079l-.077-.003-1.544 2.524M157.986 543.352l-.23.462-1.61-.159M157.86 533.7l-.151-.23M155.24 537.831l.69-.69M143.79 535.806l-.005 1.07.461.691M144.252 536.571l-.462-.765.08-.31M156.17 533.332l1.536.138h-.074" style="fill:none;stroke:#00ff4a;stroke-width:.999997;stroke-linecap:round;stroke-linejoin:round;stroke-miterlimit:11.339;stroke-dasharray:none;stroke-opacity:1;visibility:visible"/><path d="M182.074 474.622c-1.994-.082-1.994-.082-3.994-.242-5.224-.089-5.224-.089-10.454-.105-5.226.213-5.226.213-10.376.43-5.151.445-5.151.445-10.225.968-4.847.749-4.847.749-9.69 1.579-4.614.982-4.614.982-9.152 2.046-4.153 1.216-4.153 1.216-8.231 2.506-3.69 1.444-3.69 1.444-7.307 2.966-3.079 1.598-3.079 1.598-6.081 3.276-2.466 1.754-2.466 1.754-4.774 3.666-1.773 1.835-1.773 1.835-3.473 3.82-1 1.912-1.003 1.99-1.852 3.98M193.372 475.723l-2.768-.31M156.41 543.783l.79 110.737M144.885 655.639l-.899-119.167M182.004 545.766l.289 44.533M193.888 590.16l-.24-45.806M241.043 497.236c.457 1.991.457 1.991.834 3.984-.017 6.363-.017 6.363-.11 12.72-.002 1.455-.002 1.455-.085 2.834-.076.536-.076.536-.157 1.072-.386 1.457-.386 1.457-.85 2.834-1.007 1.911-1.007 1.911-2.085 3.747-1.156 1.376-1.156 1.376-2.393 2.752-1.463 1.296-1.542 1.297-3.003 2.592l-.77.616c-1.851 1.295-1.851 1.295-3.696 2.515-2.154 1.144-2.154 1.144-4.388 2.285-2.461 1.145-2.461 1.145-4.925 2.21-2.77.984-2.77.984-5.538 1.896-3 .915-3 .915-5.998 1.747-3.464.835-3.464.835-6.919 1.592l-6.772 1.206c-3.459.528-3.459.528-6.92.976l-7.224.594c-3.691.219-3.691.219-7.304.36-3.69.07-3.69.07-7.38.056-3.69-.084-3.69-.084-7.298-.249-.925-.004-.925-.004-1.922-.083M193.446 475.726c2.386.312 2.386.312 4.688.624 4.61.857 4.687.856 9.29 1.788 4.231 1.084 4.231 1.084 8.458 2.244 3.758 1.317 3.758 1.317 7.523 2.705a485.673 485.673 0 0 1 6.37 3.085c2.607 1.692 2.607 1.692 5.137 3.463 1.995 1.84 1.995 1.84 3.837 3.687 1.224 1.917 1.224 1.917 2.293 3.914" style="fill:none;stroke:#00ff4a;stroke-width:1.99999;stroke-linecap:round;stroke-linejoin:round;stroke-miterlimit:11.339;stroke-dasharray:none;stroke-opacity:1;visibility:visible"/><path d="M96.466 499.511c-.236 1.99-.236 1.99-.396 4.057l.271 14.252c.073.538.073.538.224 1.074.38 1.456.305 1.454.765 2.836.764 1.46.764 1.46 1.608 2.837.226.463.226.463.534.92 1.15 1.308 1.148 1.385 2.3 2.692l3.064 2.615c.382.304.382.304.766.616a109.725 109.725 0 0 0 3.684 2.385 229.83 229.83 0 0 0 4.375 2.31c2.459 1.077 2.459 1.077 4.99 2.081 2.767.931 2.767.931 5.529 1.854 2.997.854 2.997.854 5.992 1.627 3.456.775 3.456.775 6.988 1.476 3.306.619 3.306.619 6.686 1.088" style="fill:none;stroke:#00ff4a;stroke-width:1.99999;stroke-linecap:round;stroke-linejoin:round;stroke-miterlimit:11.339;stroke-dasharray:none;stroke-opacity:1;visibility:visible"/><path d="m340.74 584.03-.466.77M156.358 536.863l.052 6.92" style="fill:none;stroke:#00ff4a;stroke-width:.999997;stroke-linecap:round;stroke-linejoin:round;stroke-miterlimit:11.339;stroke-dasharray:none;stroke-opacity:1;visibility:visible"/><path d="m329.573 610.595-.46-.69.255-25.115M340.663 583.803l.079.227-.33 25.89-.466.767M339.946 610.688c-.467.308-.464.383-1 .61-.766.307-.766.307-1.464.539-.919.074-.919.074-1.839.226l-1.845-.004c-.844-.154-.923-.152-1.768-.307-.767-.23-.767-.23-1.461-.464-.54-.307-.54-.307-.999-.692" style="fill:none;stroke:#00ff4a;stroke-width:1.99999;stroke-linecap:round;stroke-linejoin:round;stroke-miterlimit:11.339;stroke-dasharray:none;stroke-opacity:1;visibility:visible"/><path d="m71.145 562.155.31.768M331.683 572.892c.385.148.385.148.768.228.925.152.925.152 1.847.235.918.072.918.072 1.844.001.921-.08.921-.08 1.768-.233a22.933 22.933 0 0 0 1.456-.457c.538-.304.538-.304 1.077-.612M188.756 592.7h-1.85c-.842-.156-.842-.156-1.766-.312-.154.002-.154.002-.386-.078-.232 0-.232 0-.382-.076-.154.074-.154.074-.232.076M188.757 592.699c.992-.15.992-.15 1.912-.229.848-.227.848-.227 1.619-.535l1.078-.61M145.432 656.248c.461.31.461.31 1 .695.768.229.768.229 1.533.54.923.15.923.15 1.844.23.997.003.997.003 1.997.003 1-.076 1-.076 1.998-.23.77-.226.77-.226 1.614-.536.612-.302.612-.302 1.152-.69" style="fill:none;stroke:#00ff4a;stroke-width:.999997;stroke-linecap:round;stroke-linejoin:round;stroke-miterlimit:11.339;stroke-dasharray:none;stroke-opacity:1;visibility:visible"/><path d="m181.989 595.455-3.081 5.375" style="fill:none;stroke:#00ff4a;stroke-width:1.99999;stroke-linecap:round;stroke-linejoin:round;stroke-miterlimit:11.339;stroke-dasharray:none;stroke-opacity:1;visibility:visible"/><path d="m77.522 563.236-.22-10.37.305.154 66.407 24.46M157.053 582.282l24.937 9.18" style="fill:none;stroke:#00ff4a;stroke-width:.999997;stroke-linecap:round;stroke-linejoin:round;stroke-miterlimit:11.339;stroke-dasharray:none;stroke-opacity:1;visibility:visible"/><path d="m79.441 564.006-1.919-.77" style="fill:none;stroke:#00ff4a;stroke-width:1.99999;stroke-linecap:round;stroke-linejoin:round;stroke-miterlimit:11.339;stroke-dasharray:none;stroke-opacity:1;visibility:visible"/><path d="m145.049 655.405.383.845M156.713 669.241l.539-.841M145.186 668.385l.386.846M82.221 550.03h.079M82.07 549.95l.074.08h.076l.078-.155M78.072 551.638l.078.076.307-.228.459-.08M182.686 589.546l-.081.153M79.441 564.006l.235.08M77.484 552.078l-.184.788M71.233 550.559l-.307-.693" style="fill:none;stroke:#00ff4a;stroke-width:.999997;stroke-linecap:round;stroke-linejoin:round;stroke-miterlimit:11.339;stroke-dasharray:none;stroke-opacity:1;visibility:visible"/><path d="m157.189 655.417.065 7.988" style="fill:none;stroke:#00ff4a;stroke-width:1.99999;stroke-linecap:round;stroke-linejoin:round;stroke-miterlimit:11.339;stroke-dasharray:none;stroke-opacity:1;visibility:visible"/><path d="m182.442 594.748-.148.25.006-4.224M187.218 592.699h1.539M193.366 591.326l.534-.694-.075.382h-.156l.077.16-.153.533.31.001v.766l138.243-18.434-.08-.537M193.426 604.23l.539-.775M157.492 651.924l33.028-57.996.062 10.603-.462.921M156.569 656.261l.62-.844" style="fill:none;stroke:#00ff4a;stroke-width:.999997;stroke-linecap:round;stroke-linejoin:round;stroke-miterlimit:11.339;stroke-dasharray:none;stroke-opacity:1;visibility:visible"/><path d="M184.14 592.31v-.077l-.383.304-1.315 2.212" style="fill:none;stroke:#00ff4a;stroke-width:1.99999;stroke-linecap:round;stroke-linejoin:round;stroke-miterlimit:11.339;stroke-dasharray:none;stroke-opacity:1;visibility:visible"/><path d="M182.668 591.159s.234.75 1.472 1.15" style="fill:none;stroke:#00ff4a;stroke-width:.999997;stroke-linecap:round;stroke-linejoin:round;stroke-miterlimit:11.339;stroke-dasharray:none;stroke-opacity:1;visibility:visible"/><path d="m182.293 594.997-.305.46" style="fill:none;stroke:#00ff4a;stroke-width:1.99999;stroke-linecap:round;stroke-linejoin:round;stroke-miterlimit:11.339;stroke-dasharray:none;stroke-opacity:1;visibility:visible"/><path d="M145.186 668.541c.154.382.154.382.386.766l.15.156c.462.385.462.385 1 .694.688.307.688.307 1.462.54.92.154.92.154 1.844.228.924.082.924.082 1.918.002.924-.074.924-.074 1.844-.222.847-.234.847-.234 1.612-.541.618-.305.618-.305 1.235-.768M340.751 570.595l.079.613M329.689 570.503h0M329.613 570.582l-.083.46M330.915 572.272l.539.383.154.001M340.443 572.052l.459-.692M330.14 584.714l.15-.076M330.29 584.638l1.688-.23.17-10.368M340.74 583.726l-.464.69M193.668 591.012l.002.31M330.915 572.272l-.461-.232-.69-.537-.306-.615v-.23l.077-.154h.078v.386M193.733 602.767l.232.23-.063-10.524M190.12 605.45l-.154.23M188.984 592.702l.536-.004.308.081.458.303.156.081-.078.074.078.307.078.383M182.606 589.699l-.076.077-.23.764" style="fill:none;stroke:#00ff4a;stroke-width:.999997;stroke-linecap:round;stroke-linejoin:round;stroke-miterlimit:11.339;stroke-dasharray:none;stroke-opacity:1;visibility:visible"/><path d="M189.965 605.68c.385-.072.385-.072.768-.15.696-.23.696-.23 1.461-.46l1.078-.615" style="fill:none;stroke:#00ff4a;stroke-width:1.99999;stroke-linecap:round;stroke-linejoin:round;stroke-miterlimit:11.339;stroke-dasharray:none;stroke-opacity:1;visibility:visible"/><path d="M330.058 584.715c.461.308.461.308.921.539.691.23.691.23 1.464.462.837.154.837.154 1.683.23l1.846.004c.843-.078.843-.078 1.768-.224l1.386-.466c.536-.306.536-.306.997-.61" style="fill:none;stroke:#00ff4a;stroke-width:.999997;stroke-linecap:round;stroke-linejoin:round;stroke-miterlimit:11.339;stroke-dasharray:none;stroke-opacity:1;visibility:visible"/><path d="m332.38 568.97-.616.08-1.23.537-.844.765v.15l-135.261 17.937M79.676 564.086l64.448 23.864M157.449 592.885l21.459 7.947-21.472 37.256M70.926 549.866l.22 12.289.384.92" style="fill:none;stroke:#00ff4a;stroke-width:1.99999;stroke-linecap:round;stroke-linejoin:round;stroke-miterlimit:11.339;stroke-dasharray:none;stroke-opacity:1;visibility:visible"/><path d="M66.68 322.765c.382.23.382.23.846.539.768.23.768.23 1.46.46.919.079.919.079 1.766.232l1.922.002c.998-.078.998-.078 1.92-.156.768-.23.768-.23 1.614-.382.614-.309.614-.309 1.154-.54" style="fill:none;stroke:#00ff4a;stroke-width:.999997;stroke-linecap:round;stroke-linejoin:round;stroke-miterlimit:11.339;stroke-dasharray:none;stroke-opacity:1;visibility:visible"/><path d="M66.68 321.458c.385-.305.385-.305.846-.537.766-.231.766-.231 1.46-.461.844-.152.844-.152 1.767-.307.921.001.921.001 1.919-.076l1.846.153c.847.155.847.155 1.615.308.615.23.615.23 1.23.539" style="fill:none;stroke:#00ff4a;stroke-width:1.99999;stroke-linecap:round;stroke-linejoin:round;stroke-miterlimit:11.339;stroke-dasharray:none;stroke-opacity:1;visibility:visible"/><path d="M81.554 550.378c-.536.305-.536.305-1.15.614-.77.228-.77.228-1.54.383-.922.153-.922.153-1.844.23h-1.922c-.844-.076-.844-.076-1.688-.229l-1.384-.464-.922-.612" style="fill:none;stroke:#00ff4a;stroke-width:.999997;stroke-linecap:round;stroke-linejoin:round;stroke-miterlimit:11.339;stroke-dasharray:none;stroke-opacity:1;visibility:visible"/><path d="m145.266 668.615-.081.225.281 27.196.464.848M145.932 696.885c.533.38.533.38 1.07.69.768.312.768.312 1.615.542.921.154.921.154 1.841.233l1.998.002c1-.155 1-.155 1.924-.308.768-.307.768-.307 1.612-.61.541-.306.541-.306 1.078-.689M340.123 584.65l.537-.767.08-.156.088-12.519-.15-.846-.844-.692-1.235-.54-.615-.154M193.965 602.997l136.093-18.282M193.273 604.456l.695-.924-.002-.536M156.637 669.395l.615-.843.002-5.147 32.71-57.725M145.049 655.328l.139 13.213M182.116 586.71l-24.946-9.161M144.113 572.75l-61.815-22.72M71.104 550.299l-.307-.77-2.212-113.421M77.361 321.076l.615.614 4.192 227.996-.614.69M68.585 436.109l-2.292-113.96.385-.692" style="fill:none;stroke:#00ff4a;stroke-width:1.99999;stroke-linecap:round;stroke-linejoin:round;stroke-miterlimit:11.339;stroke-dasharray:none;stroke-opacity:1;visibility:visible"/><path d="m157.069 696.743.464-.847-.21-27.267-.07-.149" style="fill:none;stroke:#00ff4a;stroke-width:1.99999;stroke-linecap:round;stroke-linejoin:round;stroke-miterlimit:11.339;stroke-dasharray:none;stroke-opacity:1;visibility:visible"/><path d="m72.07 563.69-.77-.69-.155-.693M79.9 564.16c-.612.154-.612.154-1.224.23-.927.152-.927.152-1.847.228l-1.844-.155c-.843-.079-.843-.079-1.612-.31-.695-.232-.695-.232-1.303-.463" style="fill:none;stroke:#00ff4a;stroke-width:.999997;stroke-linecap:round;stroke-linejoin:round;stroke-miterlimit:11.339;stroke-dasharray:none;stroke-opacity:1;visibility:visible"/><path d="m82.106 589.28.771-.693.15-.764-.433-22.659M71.145 562.307l.513 25.732.156.767.763.696" style="fill:none;stroke:#00ff4a;stroke-width:1.99999;stroke-linecap:round;stroke-linejoin:round;stroke-miterlimit:11.339;stroke-dasharray:none;stroke-opacity:1;visibility:visible"/><path d="M72.577 589.502c.615.228.615.228 1.233.536l1.686.31c.922.075.922.075 1.844.079.928-.075.928-.075 1.846-.152.844-.227.844-.227 1.615-.383.69-.305.69-.305 1.304-.612" style="fill:none;stroke:#00ff4a;stroke-width:1.99999;stroke-linecap:round;stroke-linejoin:round;stroke-miterlimit:11.339;stroke-dasharray:none;stroke-opacity:1;visibility:visible"/><path d="M338 564.259c-.007.595-1.18 1.079-2.625 1.077-1.452 0-2.621-.488-2.621-1.082 0-.594 1.172-1.072 2.622-1.07 1.446-.001 2.624.482 2.624 1.076v-.001" style="fill:none;stroke:#00ff4a;stroke-width:.999997;stroke-linecap:round;stroke-linejoin:round;stroke-miterlimit:11.339;stroke-dasharray:none;stroke-opacity:1;visibility:visible"/><path d="M332.517 565.075s-.487.684.526 1.252c1.017.568 3.757.692 4.733.043.984-.646.274-.991.274-.991M332.478 568.44s-.492.686.524 1.25c1.012.573 3.757.694 4.736.049.977-.645.272-.997.272-.997" style="fill:none;stroke:#00ff4a;stroke-width:.999997;stroke-linecap:round;stroke-linejoin:round;stroke-miterlimit:11.339;stroke-dasharray:none;stroke-opacity:1;visibility:visible"/><path d="M332.5 566.643s-.49.683.525 1.25c1.013.569 3.755.687 4.731.045.984-.646.28-.998.28-.998M153.137 530.219c-.847-.072-.847-.072-1.69-.21H149.6c-.922.065-.922.065-1.769.205l-1.688.409c-.542.276-.621.277-1.159.553M150.954 537.116l-1.924-.001-1.766-.277-.616-.138M149.757 530.075l-.153.001M144.894 533.728l-.688-.688-.074-.693M156.432 532.428l-.232.695-.927.621M154.106 536.571c-.693.135-.693.135-1.306.341l-.923.139c-.461-.003-.461-.003-.921.065M155.273 533.744c-.695.272-.695.272-1.464.547-.921.203-.921.203-1.845.341-1 .068-1 .068-2 .068-.998-.004-.998-.004-1.998-.069-.844-.208-.844-.208-1.766-.417-.615-.21-.615-.21-1.304-.487M332.568 570.062s-.486.685.527 1.253c1.023.57 3.763.69 4.733.047.98-.647.282-.998.282-.998M189.328 347.862c0 .63-1.246 1.141-2.782 1.141-1.538 0-2.784-.51-2.784-1.14 0-.633 1.246-1.143 2.784-1.143 1.536 0 2.782.51 2.782 1.142M74.804 322.136c.005.536-1.248.978-2.795.988-1.544.01-2.799-.418-2.804-.954-.003-.536 1.247-.978 2.793-.99 1.546-.007 2.803.42 2.806.957v-.001M148.908 532.063l.526.545 1.607.027.67-.517" style="fill:none;stroke:#00ff4a;stroke-width:.999997;stroke-linecap:round;stroke-linejoin:round;stroke-miterlimit:11.339;stroke-dasharray:none;stroke-opacity:1;visibility:visible"/><path d="m144.984 531.176-.154.139-.54.69-.156.135-.002.206-.012 2.556.382.69.386.276.918.552.842.28M154.106 536.571l.23-.07 1.158-.554.307-.273.617-.688.014-2.558-.076-.205-.383-.69-.077-.139-.151-.14-.999-.55-1.454-.416-.155-.068M183.512 348.735s-.52.726.56 1.33c1.08.601 3.988.725 5.025.04 1.04-.686.292-1.059.292-1.059M183.47 352.307s-.518.727.56 1.328c1.08.605 3.99.728 5.026.042 1.04-.684.292-1.059.292-1.059" style="fill:none;stroke:#00ff4a;stroke-width:.999997;stroke-linecap:round;stroke-linejoin:round;stroke-miterlimit:11.339;stroke-dasharray:none;stroke-opacity:1;visibility:visible"/><path d="M183.492 350.397s-.52.726.562 1.33c1.078.599 3.987.723 5.023.039 1.04-.685.292-1.059.292-1.059M183.574 354.03s-.521.728.56 1.328c1.08.604 3.99.73 5.026.043 1.04-.684.292-1.059.292-1.059" style="fill:none;stroke:#00ff4a;stroke-width:.999997;stroke-linecap:round;stroke-linejoin:round;stroke-miterlimit:11.339;stroke-dasharray:none;stroke-opacity:1;visibility:visible"/><path d="M183.462 355.697s-.518.728.56 1.328c1.08.604 3.99.73 5.026.042 1.04-.684.292-1.057.292-1.057" style="fill:none;stroke:#00ff4a;stroke-width:.999997;stroke-linecap:round;stroke-linejoin:round;stroke-miterlimit:11.339;stroke-dasharray:none;stroke-opacity:1;visibility:visible"/><path d="M183.629 357.418s-.519.728.56 1.328c1.08.604 3.99.73 5.025.044 1.04-.685.292-1.06.292-1.06" style="fill:none;stroke:#00ff4a;stroke-width:.999997;stroke-linecap:round;stroke-linejoin:round;stroke-miterlimit:11.339;stroke-dasharray:none;stroke-opacity:1;visibility:visible"/><path d="m189.452 354.342.818 2.552M150.954 537.116l5.186 8.376M146.648 536.7l-2.802 7.531M182.293 594.997l-3.385 5.833" style="fill:none;stroke:#00ff4a;stroke-width:1.99999;stroke-linecap:round;stroke-linejoin:round;stroke-miterlimit:11.339;stroke-dasharray:none;stroke-opacity:1;visibility:visible"/><path d="m157.17 577.549-13.156-.069M144.014 577.48l13.039 4.802" style="fill:none;stroke:#00ff4a;stroke-width:.999997;stroke-linecap:round;stroke-linejoin:round;stroke-miterlimit:11.339;stroke-dasharray:none;stroke-opacity:1;visibility:visible"/><path d="m145.049 655.328 12.205 8.077" style="fill:none;stroke:#00ff4a;stroke-width:1.99999;stroke-linecap:round;stroke-linejoin:round;stroke-miterlimit:11.339;stroke-dasharray:none;stroke-opacity:1;visibility:visible"/><path d="m188.756 592.7-1.538-.001M157.252 668.4l.24-16.476M193.67 591.322l.232 1.151" style="fill:none;stroke:#00ff4a;stroke-width:.999997;stroke-linecap:round;stroke-linejoin:round;stroke-miterlimit:11.339;stroke-dasharray:none;stroke-opacity:1;visibility:visible"/><path d="m157.053 582.282-12.929 5.668M144.124 587.95l13.325 4.935" style="fill:none;stroke:#00ff4a;stroke-width:1.99999;stroke-linecap:round;stroke-linejoin:round;stroke-miterlimit:11.339;stroke-dasharray:none;stroke-opacity:1;visibility:visible"/><path d="m77.363 321.077-10.683 1.688" style="fill:none;stroke:#00ff4a;stroke-width:.999997;stroke-linecap:round;stroke-linejoin:round;stroke-miterlimit:11.339;stroke-dasharray:none;stroke-opacity:1;visibility:visible"/><path d="m144.014 577.48 13.156.069M157.17 577.549l-13.057-4.799M77.522 563.236l5.072 1.928" style="fill:none;stroke:#00ff4a;stroke-width:1.99999;stroke-linecap:round;stroke-linejoin:round;stroke-miterlimit:11.339;stroke-dasharray:none;stroke-opacity:1;visibility:visible"/><path d="m332.568 570.062 5.432-5.803M332.568 570.062l5.432-5.803M340.902 571.36l-8.385-6.285M330.915 572.272l7.135-6.893M340.902 571.36l-8.402-4.717M330.915 572.272l7.121-5.332M157.632 533.47l-7.875-3.395M150.954 537.116l-1.35-7.04M340.902 571.36l-8.334-1.298M330.915 572.272l7.195-1.908M183.574 354.03l5.754-6.168M144.894 533.728l4.014-1.665M155.273 533.744l-3.562-1.626M180.853 357.743l2.659-9.008M180.853 357.743l2.617-5.436M180.853 357.743l2.639-7.346M180.853 357.743l2.721-3.713M180.853 357.743l2.609-2.046M193.67 591.322l-3.15 2.605M150.954 537.116l-6.822-4.769" style="fill:none;stroke:#00ff4a;stroke-width:.999997;stroke-linecap:round;stroke-linejoin:round;stroke-miterlimit:11.339;stroke-dasharray:none;stroke-opacity:1;visibility:visible"/></svg>