<svg xmlns="http://www.w3.org/2000/svg" baseProfile="full" height="793.701" preserveAspectRatio="xMinYMin meet" style="width:919px;height:1159px" width="559.371" xml:space="preserve"><path d="m265.46 326.582.452.308c.227.154.227.154.454.232.681.31.681.31 1.363.468l1.818.32c.913.084.913.084 1.899.092l1.977-.132 1.672-.29 1.22-.445M265.24 325.973l.221.61M276.316 327.135l.764-.6.083-.683" style="fill:none;stroke:red;stroke-width:.999997;stroke-linecap:round;stroke-linejoin:round;stroke-miterlimit:11.339;stroke-dasharray:none;stroke-opacity:1;visibility:visible" visibility="hidden"/><path d="M276.013 444.689c-.611.3-.611.3-1.296.52-.838.221-.838.221-1.675.366-.91.067-.91.067-1.899.134-.91-.086-.91-.086-1.897-.094-.833-.16-.91-.161-1.745-.32l-1.362-.468c-.453-.307-.453-.307-.829-.614M265.7 325.369c.457-.3.457-.3.99-.599.763-.22.763-.22 1.448-.366.913-.144.913-.144 1.824-.211.988.007.988.007 1.976-.059.985.086.985.086 1.897.246.835.158.835.158 1.59.393.605.233.605.233 1.135.467M265.096 417.556l.143-91.584.461-.602M276.895 408.874l-.11 34.456-.083.683-.688.676M276.56 325.24l.601.612-.202 63.027M265.31 444.212l-.299-.685.084-25.97" style="fill:none;stroke:red;stroke-width:1.99999;stroke-linecap:round;stroke-linejoin:round;stroke-miterlimit:11.339;stroke-dasharray:none;stroke-opacity:1;visibility:visible" visibility="hidden"/><path d="M273.873 326.163c0 .541-1.247.981-2.786.981-1.536-.002-2.784-.442-2.784-.982s1.248-.977 2.784-.977c1.539 0 2.786.438 2.786.978" style="fill:none;stroke:red;stroke-width:.999997;stroke-linecap:round;stroke-linejoin:round;stroke-miterlimit:11.339;stroke-dasharray:none;stroke-opacity:1;visibility:visible" visibility="hidden"/><path d="m265.096 417.556 11.799-8.682M276.895 408.874l.064-19.995" style="fill:none;stroke:red;stroke-width:1.99999;stroke-linecap:round;stroke-linejoin:round;stroke-miterlimit:11.339;stroke-dasharray:none;stroke-opacity:1;visibility:visible" visibility="hidden"/><path d="M323.44 508.34c-1.083 1.967-1.084 2.042-2.24 3.93-1.837 1.88-1.84 1.958-3.753 3.764-2.598 1.798-2.598 1.798-5.197 3.521-3.204 1.643-3.28 1.643-6.484 3.207-3.886 1.485-3.886 1.485-7.696 2.817-4.339 1.25-4.339 1.25-8.753 2.35-4.718 1.019-4.718 1.019-9.51 1.888-5.094.715-5.094.715-10.186 1.275-5.246.41-5.246.41-10.487.742-5.393.102-5.393.102-10.785.13-5.315-.2-5.315-.2-10.629-.476-5.16-.502-5.16-.502-10.317-1.08-4.853-.804-4.853-.804-9.706-1.682-4.547-1.028-4.547-1.028-9.017-2.208-4.013-1.251-4.013-1.251-8.026-2.654-3.478-1.474-3.478-1.474-6.882-3.1l-5.588-3.393c-2.11-1.84-2.11-1.84-4.144-3.757-1.424-1.912-1.424-1.912-2.698-3.899" style="fill:none;stroke:#00ff4a;stroke-width:1.99999;stroke-linecap:round;stroke-linejoin:round;stroke-miterlimit:11.339;stroke-dasharray:none;stroke-opacity:1;visibility:visible"/><path d="M240.858 537.363c.003-.227.003-.227-.073-.38l.001-.076M241.087 545.568c.04-4.328.04-4.328.003-8.657l.005-.532c-.074-.228-.074-.228-.073-.38M227.546 539.75c.452.384.452.384.981.616.683.309.683.309 1.44.544.907.16.907.16 1.743.245.987.008.987.008 1.897.092.99-.143.99-.143 1.903-.21.836-.221.836-.221 1.596-.367.687-.296.687-.296 1.297-.595M186.234 514.62c.999-1.282.999-1.358 2.074-2.564 1.378-1.278 1.378-1.278 2.756-2.48 1.756-1.2 1.756-1.2 3.438-2.4 1.986-1.12 1.986-1.12 4.046-2.165 2.212-1.043 2.212-1.043 4.498-2.085 2.59-.888 2.59-.888 5.104-1.778 2.741-.886 2.741-.886 5.484-1.696 3.044-.732 3.044-.732 6.087-1.388l6.086-1.16c3.27-.5 3.27-.5 6.463-.928l6.69-.7 6.837-.395 6.911-.087c3.419.03 3.419.03 6.911.136 3.416.184 3.416.184 6.754.366l6.526.667c3.261.408 3.261.408 6.599.895 3.107.634 3.107.634 6.216 1.194 2.88.71 2.88.71 5.833 1.42 2.728.784 2.728.784 5.379 1.643 2.497.859 2.497.859 4.996 1.792 2.27 1.008 2.27 1.008 4.461 2.015 1.967 1.08 2.042 1.081 3.93 2.237 1.66 1.156 1.734 1.156 3.32 2.31l2.713 2.453c1.051 1.226 1.051 1.301 2.027 2.525" style="fill:none;stroke:#00ff4a;stroke-width:.999997;stroke-linecap:round;stroke-linejoin:round;stroke-miterlimit:11.339;stroke-dasharray:none;stroke-opacity:1;visibility:visible"/><path d="m273.74 478.427-2.274-.324c-1.216-.163-1.216-.163-2.504-.25-1.823-.095-1.823-.095-3.643-.263M324.237 504.323l-.796 4.017M181.343 509.715l-1.18-3.959" style="fill:none;stroke:#00ff4a;stroke-width:1.99999;stroke-linecap:round;stroke-linejoin:round;stroke-miterlimit:11.339;stroke-dasharray:none;stroke-opacity:1;visibility:visible"/><path d="m239.354 535.624 1.52.145h-.076M227.557 538.762l-.45-.763.08-.302" style="fill:none;stroke:#00ff4a;stroke-width:.999997;stroke-linecap:round;stroke-linejoin:round;stroke-miterlimit:11.339;stroke-dasharray:none;stroke-opacity:1;visibility:visible"/><path d="m227.108 537.999-.01 1.064.45.687M238.404 540.075l.69-.677M241.023 535.999l-.15-.23M241.088 545.568l-.232.453-1.593-.165M240.787 536.908h-.077l-.075-.001-1.543 2.492M240.859 537.363l-.456-.08M273.518 477.97l.15.152.074.305M276.554 478.225l-.081.53h.076" style="fill:none;stroke:#00ff4a;stroke-width:.999997;stroke-linecap:round;stroke-linejoin:round;stroke-miterlimit:11.339;stroke-dasharray:none;stroke-opacity:1;visibility:visible"/><path d="m276.473 478.755-2.732-.328M323.437 500.368c.437 1.978.437 1.978.8 3.956-.058 6.303-.058 6.303-.191 12.604-.013 1.444-.013 1.444-.101 2.808l-.162 1.064c-.392 1.439-.392 1.439-.86 2.802-1.005 1.888-1.005 1.888-2.083 3.701-1.153 1.357-1.153 1.357-2.379 2.712-1.454 1.279-1.531 1.277-2.986 2.555l-.765.602c-1.833 1.274-1.833 1.274-3.667 2.472-2.136 1.12-2.136 1.12-4.35 2.239-2.439 1.117-2.439 1.117-4.879 2.159-2.74.964-2.74.964-5.484 1.848-2.97.886-2.97.886-5.937 1.693-3.426.805-3.426.805-6.85 1.535l-6.692 1.152c-3.421.502-3.421.502-6.844.926l-7.144.544c-3.646.195-3.646.195-7.217.315-3.644.043-3.644.043-7.29.01-3.644-.111-3.644-.111-7.212-.295-.909-.007-.909-.007-1.898-.092M276.549 478.756c2.351.324 2.351.324 4.626.648 4.548.88 4.623.88 9.172 1.831 4.168 1.1 4.168 1.1 8.334 2.276a310.695 310.695 0 0 1 7.417 2.725 494.024 494.024 0 0 1 6.275 3.096c2.566 1.692 2.566 1.692 5.056 3.462 1.958 1.84 1.958 1.84 3.764 3.68 1.197 1.91 1.197 1.91 2.244 3.893M180.58 501.736c-.247 1.972-.247 1.972-.416 4.022l.176 14.125c.07.533.07.533.217 1.065.367 1.447.29 1.446.735 2.816.746 1.451.746 1.451 1.568 2.824.225.458.225.458.525.916 1.127 1.303 1.125 1.378 2.253 2.679l3.015 2.61.752.613a102.56 102.56 0 0 0 3.625 2.388c2.115 1.158 2.115 1.158 4.307 2.316 2.421 1.086 2.421 1.086 4.917 2.096l5.45 1.872c2.956.861 2.956.861 5.91 1.648 3.411.789 3.411.789 6.896 1.504 3.261.637 3.261.637 6.597 1.124M265.32 477.591c-1.975-.091-1.975-.091-3.948-.263-5.162-.122-5.162-.122-10.326-.168-5.165.18-5.165.18-10.255.362-5.091.41-5.091.41-10.109.896-4.79.716-4.79.716-9.581 1.508-4.566.946-4.566.946-9.055 1.97-4.112 1.175-4.112 1.175-8.148 2.43-3.657 1.411-3.657 1.411-7.24 2.898-3.052 1.566-3.052 1.566-6.03 3.211-2.443 1.725-2.443 1.725-4.739 3.603-1.762 1.805-1.762 1.805-3.451 3.765-1.004 1.888-1.005 1.965-1.858 3.932" style="fill:none;stroke:#00ff4a;stroke-width:1.99999;stroke-linecap:round;stroke-linejoin:round;stroke-miterlimit:11.339;stroke-dasharray:none;stroke-opacity:1;visibility:visible"/><path d="m267.91 476.475-.988.219-1.145.522-.458.375M273.532 476.45l.227.079 1.438.392.907.616.45.688-.005.53" style="fill:none;stroke:#00ff4a;stroke-width:.999997;stroke-linecap:round;stroke-linejoin:round;stroke-miterlimit:11.339;stroke-dasharray:none;stroke-opacity:1;visibility:visible"/><path d="m276.032 592.245.005-45.037M264.525 548.54l.052 43.783M227.286 656.366l-.272-117.158M239.237 539.654l.219 115.678" style="fill:none;stroke:#00ff4a;stroke-width:1.99999;stroke-linecap:round;stroke-linejoin:round;stroke-miterlimit:11.339;stroke-dasharray:none;stroke-opacity:1;visibility:visible"/><path d="m421.143 586.97-.463.752" style="fill:none;stroke:#00ff4a;stroke-width:.999997;stroke-linecap:round;stroke-linejoin:round;stroke-miterlimit:11.339;stroke-dasharray:none;stroke-opacity:1;visibility:visible"/><path d="M420.218 613.17c-.456.301-.456.374-.99.597-.758.297-.758.297-1.446.523-.912.066-.912.066-1.82.211l-1.826-.011c-.832-.157-.906-.157-1.742-.31-.758-.233-.758-.233-1.439-.463-.532-.305-.532-.305-.983-.687M421.069 586.743l.075.227-.463 25.449-.463.75M409.973 613.029l-.45-.68.38-24.692" style="fill:none;stroke:#00ff4a;stroke-width:1.99999;stroke-linecap:round;stroke-linejoin:round;stroke-miterlimit:11.339;stroke-dasharray:none;stroke-opacity:1;visibility:visible"/><path d="M412.252 575.968c.379.15.379.15.76.228.91.155.91.155 1.822.24.909.08.909.08 1.821.01.91-.071.91-.071 1.745-.216.762-.22.762-.22 1.443-.444.535-.296.535-.296 1.07-.596M270.95 594.714l-1.827-.01c-.83-.157-.83-.157-1.742-.314-.151 0-.151 0-.379-.078-.23-.001-.23-.001-.379-.077-.153.073-.153.073-.23.073M270.949 594.715c.984-.146.984-.146 1.896-.216.837-.22.837-.22 1.598-.519l1.068-.596M227.82 656.97c.454.304.454.304.984.686.757.231.757.231 1.514.539.908.155.908.155 1.819.238l1.973.012c.988-.069.988-.069 1.975-.214.761-.223.761-.223 1.597-.519.61-.297.61-.297 1.144-.673M165.849 552.22c-.304.15-.304.15-.533.374l-.912.448c-.531.148-.531.148-1.142.372-.304.07-.304.07-.608.145M161.589 553.93l-.609.149c-.911-.009-.911-.009-1.898-.089-.83-.083-.83-.083-1.668-.238-.756-.232-.756-.232-1.441-.462-.45-.306-.45-.306-.904-.607M154.921 564.083l.303.757" style="fill:none;stroke:#00ff4a;stroke-width:.999997;stroke-linecap:round;stroke-linejoin:round;stroke-miterlimit:11.339;stroke-dasharray:none;stroke-opacity:1;visibility:visible"/><path d="m264.252 597.39-3.073 5.267" style="fill:none;stroke:#00ff4a;stroke-width:1.99999;stroke-linecap:round;stroke-linejoin:round;stroke-miterlimit:11.339;stroke-dasharray:none;stroke-opacity:1;visibility:visible"/><path d="m239.687 584.31 24.588 9.153M161.217 565.18l-.165-10.197.302.156 65.475 24.381" style="fill:none;stroke:#00ff4a;stroke-width:.999997;stroke-linecap:round;stroke-linejoin:round;stroke-miterlimit:11.339;stroke-dasharray:none;stroke-opacity:1;visibility:visible"/><path d="m163.108 565.947-1.89-.765" style="fill:none;stroke:#00ff4a;stroke-width:1.99999;stroke-linecap:round;stroke-linejoin:round;stroke-miterlimit:11.339;stroke-dasharray:none;stroke-opacity:1;visibility:visible"/><path d="m155.07 552.683-.3-.685M161.234 554.21l-.183.773M163.108 565.947l.23.079M264.97 591.582l-.08.15M161.819 553.781l.077.076.302-.225.457-.074M165.775 552.143l.075.077.076.002.077-.154M165.927 552.221h.077M227.516 668.9l.375.832M238.898 669.802l.536-.827M227.446 656.138l.375.832" style="fill:none;stroke:#00ff4a;stroke-width:.999997;stroke-linecap:round;stroke-linejoin:round;stroke-miterlimit:11.339;stroke-dasharray:none;stroke-opacity:1;visibility:visible"/><path d="m239.44 656.214.027 7.852" style="fill:none;stroke:#00ff4a;stroke-width:1.99999;stroke-linecap:round;stroke-linejoin:round;stroke-miterlimit:11.339;stroke-dasharray:none;stroke-opacity:1;visibility:visible"/><path d="m238.826 657.04.613-.825M239.757 652.777l32.928-56.847.008 10.426-.461.902M275.506 606.071l.536-.753M275.511 593.384l.533-.677-.077.376-.153-.002.074.156-.153.527.304.001-.004.754L412.704 577.1l-.075-.526M269.43 594.706l1.52.01M264.704 596.695l-.148.245.025-4.154" style="fill:none;stroke:#00ff4a;stroke-width:.999997;stroke-linecap:round;stroke-linejoin:round;stroke-miterlimit:11.339;stroke-dasharray:none;stroke-opacity:1;visibility:visible"/><path d="m266.393 594.309.001-.076-.38.3-1.31 2.163" style="fill:none;stroke:#00ff4a;stroke-width:1.99999;stroke-linecap:round;stroke-linejoin:round;stroke-miterlimit:11.339;stroke-dasharray:none;stroke-opacity:1;visibility:visible"/><path d="M264.943 593.17s.228.734 1.45 1.138" style="fill:none;stroke:#00ff4a;stroke-width:.999997;stroke-linecap:round;stroke-linejoin:round;stroke-miterlimit:11.339;stroke-dasharray:none;stroke-opacity:1;visibility:visible"/><path d="m264.555 596.94-.304.45" style="fill:none;stroke:#00ff4a;stroke-width:1.99999;stroke-linecap:round;stroke-linejoin:round;stroke-miterlimit:11.339;stroke-dasharray:none;stroke-opacity:1;visibility:visible"/><path d="m264.891 591.733-.075.075-.233.75M271.174 594.716l.53.004.305.079.453.302.152.078-.079.074.076.302.075.376M272.233 607.26l-.153.224M275.819 604.638l.227.228-.011-10.348M411.5 575.357l-.453-.23-.683-.53-.299-.608v-.225l.078-.154.078.002-.002.378M275.813 593.082v.304M421.145 586.67l-.461.675M410.816 587.512l1.67-.217.218-10.194M410.666 587.586l.15-.075M420.914 575.19l.459-.677M411.5 575.357l.528.38.152.003M410.22 573.687l-.083.45M410.296 573.613h0M421.226 573.757l.073.604" style="fill:none;stroke:#00ff4a;stroke-width:.999997;stroke-linecap:round;stroke-linejoin:round;stroke-miterlimit:11.339;stroke-dasharray:none;stroke-opacity:1;visibility:visible"/><path d="M157.669 549.828c-.153 0-.153 0-.305.074l-1.371.445-.913.748" style="fill:none;stroke:#00ff4a;stroke-width:1.99999;stroke-linecap:round;stroke-linejoin:round;stroke-miterlimit:11.339;stroke-dasharray:none;stroke-opacity:1;visibility:visible"/><path d="M227.514 669.052c.15.379.15.379.376.756l.15.153c.456.382.456.382.986.687.677.305.677.305 1.437.54.91.156.91.156 1.82.232.914.085.914.085 1.898.012.912-.067.912-.067 1.822-.21.837-.222.837-.222 1.597-.522.61-.296.61-.296 1.221-.748" style="fill:none;stroke:#00ff4a;stroke-width:.999997;stroke-linecap:round;stroke-linejoin:round;stroke-miterlimit:11.339;stroke-dasharray:none;stroke-opacity:1;visibility:visible"/><path d="M272.08 607.483c.38-.07.38-.07.76-.146.688-.22.688-.22 1.447-.442l1.064-.6" style="fill:none;stroke:#00ff4a;stroke-width:1.99999;stroke-linecap:round;stroke-linejoin:round;stroke-miterlimit:11.339;stroke-dasharray:none;stroke-opacity:1;visibility:visible"/><path d="M410.587 587.586c.453.304.453.304.908.532.679.232.679.232 1.44.464.83.154.83.154 1.664.234l1.824.012c.835-.07.835-.07 1.747-.213l1.372-.447c.53-.297.53-.297.988-.596" style="fill:none;stroke:#00ff4a;stroke-width:.999997;stroke-linecap:round;stroke-linejoin:round;stroke-miterlimit:11.339;stroke-dasharray:none;stroke-opacity:1;visibility:visible"/><path d="m155.08 551.095-.31.904.151 12.084.375.91M240.023 594.736l21.156 7.921-21.405 36.519M163.338 566.025l63.545 23.795M412.963 572.119l-.61.075-1.218.518-.839.752v.15l-133.72 16.937M226.954 574.872l-60.95-22.65-.071-.909-.679-.757-1.212-.612-.833-.232M264.421 588.793l-24.597-9.137M227.446 656.061l.07 12.99M238.822 669.952l.612-.825.03-5.062 32.614-56.582M275.351 606.295l.692-.903.003-.526M276.045 604.866l134.542-17.28M420.532 587.573l.535-.753.078-.15.154-12.309-.147-.83-.832-.689-1.212-.533-.605-.156M228.102 696.921c.528.379.528.379 1.056.684.757.308.757.308 1.59.54.915.158.915.158 1.821.239l1.973.01c.988-.142.988-.142 1.901-.289.76-.3.76-.3 1.597-.595.534-.3.534-.3 1.07-.671M227.593 669.128l-.08.223.137 26.736.452.836" style="fill:none;stroke:#00ff4a;stroke-width:1.99999;stroke-linecap:round;stroke-linejoin:round;stroke-miterlimit:11.339;stroke-dasharray:none;stroke-opacity:1;visibility:visible"/><path d="m239.109 696.84.463-.83-.064-26.809-.074-.148" style="fill:none;stroke:#00ff4a;stroke-width:1.99999;stroke-linecap:round;stroke-linejoin:round;stroke-miterlimit:11.339;stroke-dasharray:none;stroke-opacity:1;visibility:visible"/><path d="M163.56 566.102c-.606.148-.606.148-1.211.218-.916.146-.916.146-1.827.214l-1.82-.16c-.832-.08-.832-.08-1.59-.314-.684-.23-.684-.23-1.288-.46M155.825 565.597l-.755-.684-.149-.677" style="fill:none;stroke:#00ff4a;stroke-width:.999997;stroke-linecap:round;stroke-linejoin:round;stroke-miterlimit:11.339;stroke-dasharray:none;stroke-opacity:1;visibility:visible"/><path d="M156.193 590.975c.607.23.607.23 1.213.535.834.158.834.158 1.667.31.912.082.912.082 1.823.089l1.822-.138c.836-.221.836-.221 1.598-.371.682-.293.682-.293 1.292-.592M154.921 564.236l.372 25.299.15.756.75.685M165.608 590.807l.767-.676.153-.752-.313-22.279" style="fill:none;stroke:#00ff4a;stroke-width:1.99999;stroke-linecap:round;stroke-linejoin:round;stroke-miterlimit:11.339;stroke-dasharray:none;stroke-opacity:1;visibility:visible"/><path d="M162.896 545.102c-.004.564-1.13 1.014-2.516 1.005-1.382-.01-2.5-.475-2.496-1.037.002-.567 1.128-1.018 2.51-1.008 1.386.008 2.506.473 2.502 1.04" style="fill:none;stroke:#00ff4a;stroke-width:.999997;stroke-linecap:round;stroke-linejoin:round;stroke-miterlimit:11.339;stroke-dasharray:none;stroke-opacity:1;visibility:visible"/><path d="M157.657 545.848s-.473.648.497 1.195c.967.545 3.584.672 4.523.064.937-.608.268-.947.268-.947M157.598 549.05s-.472.647.498 1.194c.969.543 3.586.669 4.522.064.939-.61.27-.95.27-.95" style="fill:none;stroke:#00ff4a;stroke-width:.999997;stroke-linecap:round;stroke-linejoin:round;stroke-miterlimit:11.339;stroke-dasharray:none;stroke-opacity:1;visibility:visible"/><path d="M157.626 547.336s-.472.65.5 1.195c.966.547 3.584.672 4.524.065.938-.61.267-.948.267-.948M418.535 567.519c-.005.584-1.17 1.05-2.596 1.043-1.432-.008-2.587-.49-2.584-1.074.003-.586 1.164-1.052 2.597-1.042 1.428.008 2.586.488 2.583 1.073M157.682 550.59s-.472.649.496 1.195c.97.547 3.587.675 4.524.065.94-.607.27-.946.27-.946" style="fill:none;stroke:#00ff4a;stroke-width:.999997;stroke-linecap:round;stroke-linejoin:round;stroke-miterlimit:11.339;stroke-dasharray:none;stroke-opacity:1;visibility:visible"/><path d="M413.119 568.294s-.487.669.513 1.232c1 .564 3.708.697 4.678.068.968-.63.276-.976.276-.976M413.059 571.598s-.487.67.513 1.234c1 .566 3.708.698 4.679.068.968-.628.275-.98.275-.98" style="fill:none;stroke:#00ff4a;stroke-width:.999997;stroke-linecap:round;stroke-linejoin:round;stroke-miterlimit:11.339;stroke-dasharray:none;stroke-opacity:1;visibility:visible"/><path d="M413.09 569.83s-.487.67.513 1.235c1 .565 3.705.695 4.677.069.971-.63.28-.982.28-.982M236.966 539.254c-.685.145-.685.145-1.295.368l-.911.145c-.457-.005-.457-.005-.913.068M238.134 536.152c-.688.298-.688.298-1.45.594-.91.218-.91.218-1.824.364-.989.066-.989.066-1.977.058-.986-.01-.986-.01-1.973-.094-.833-.235-.833-.235-1.743-.471-.605-.235-.605-.235-1.285-.544M413.144 573.195s-.486.67.514 1.235c1.004.565 3.709.696 4.678.069.967-.629.278-.979.278-.979M239.286 534.719l-.235.757-.916.676M227.882 536.059l-.676-.765-.07-.762M232.703 532.077h-.15" style="fill:none;stroke:#00ff4a;stroke-width:.999997;stroke-linecap:round;stroke-linejoin:round;stroke-miterlimit:11.339;stroke-dasharray:none;stroke-opacity:1;visibility:visible"/><path d="m233.848 539.835-1.899-.019-1.744-.318-.606-.158M236.043 532.259c-.836-.083-.836-.083-1.669-.243l-1.823-.014c-.911.066-.911.066-1.748.21l-1.673.44c-.536.3-.613.3-1.147.598M236.967 539.254l.228-.073 1.145-.598.307-.301.613-.753.026-2.81-.072-.228-.375-.764-.073-.152-.152-.153-.982-.616-1.437-.468-.15-.079M227.984 533.25l-.153.15-.539.755-.152.151-.003.227-.025 2.809.372.764.377.307.907.616.832.31M231.854 534.257l.521.604 1.583.041.667-.562M273.637 471.72c0 .581-1.197 1.051-2.677 1.051-1.477.001-2.675-.469-2.675-1.051s1.198-1.054 2.675-1.054c1.48 0 2.677.47 2.677 1.053v.001" style="fill:none;stroke:#00ff4a;stroke-width:.999997;stroke-linecap:round;stroke-linejoin:round;stroke-miterlimit:11.339;stroke-dasharray:none;stroke-opacity:1;visibility:visible"/><path d="M268.046 472.524s-.499.671.539 1.226c1.04.556 3.834.67 4.833.037.999-.63.28-.975.28-.975M268.006 475.818s-.499.67.539 1.225c1.04.555 3.834.67 4.834.037.998-.63.279-.976.279-.976" style="fill:none;stroke:#00ff4a;stroke-width:.999997;stroke-linecap:round;stroke-linejoin:round;stroke-miterlimit:11.339;stroke-dasharray:none;stroke-opacity:1;visibility:visible"/><path d="M268.026 474.056s-.499.67.539 1.226c1.04.556 3.834.67 4.832.037 1-.632.28-.976.28-.976M240.859 537.363l-1.596 8.493" style="fill:none;stroke:#00ff4a;stroke-width:.999997;stroke-linecap:round;stroke-linejoin:round;stroke-miterlimit:11.339;stroke-dasharray:none;stroke-opacity:1;visibility:visible"/><path d="m233.848 539.835 5.398 7.843M239.263 545.856l-12.156.498M264.555 596.94l-3.376 5.717" style="fill:none;stroke:#00ff4a;stroke-width:1.99999;stroke-linecap:round;stroke-linejoin:round;stroke-miterlimit:11.339;stroke-dasharray:none;stroke-opacity:1;visibility:visible"/><path d="m226.829 579.52 12.858 4.79M239.824 579.656l-12.995-.136" style="fill:none;stroke:#00ff4a;stroke-width:.999997;stroke-linecap:round;stroke-linejoin:round;stroke-miterlimit:11.339;stroke-dasharray:none;stroke-opacity:1;visibility:visible"/><path d="m227.446 656.061 12.02 8.005" style="fill:none;stroke:#00ff4a;stroke-width:1.99999;stroke-linecap:round;stroke-linejoin:round;stroke-miterlimit:11.339;stroke-dasharray:none;stroke-opacity:1;visibility:visible"/><path d="m239.434 668.975.323-16.198M270.95 594.714l-1.52-.008M275.813 593.386l.222 1.132" style="fill:none;stroke:#00ff4a;stroke-width:.999997;stroke-linecap:round;stroke-linejoin:round;stroke-miterlimit:11.339;stroke-dasharray:none;stroke-opacity:1;visibility:visible"/><path d="m226.883 589.82 13.14 4.916M239.687 584.31l-12.804 5.51M239.824 579.656l-12.87-4.784M226.829 579.52l12.995.136M161.217 565.18l4.998 1.92" style="fill:none;stroke:#00ff4a;stroke-width:1.99999;stroke-linecap:round;stroke-linejoin:round;stroke-miterlimit:11.339;stroke-dasharray:none;stroke-opacity:1;visibility:visible"/><path d="m162.945 546.16-.049-1.058M162.917 547.648l.028-1.488M163.108 565.947l-.191-18.299M418.526 571.92l.009-4.401M418.56 570.152l-.025-2.633M162.917 547.648l.055 3.256M413.09 569.83l.029-1.536M411.5 575.357l7.086-6.739M421.373 574.513l-8.283-4.683M411.5 575.357l7.06-5.205M413.09 569.83l.054 3.365M411.5 575.357l7.114-1.837M240.798 535.77l-8.095-3.693M233.848 539.835l-1.296-7.758M227.882 536.059l3.972-1.802M238.135 536.152l-3.51-1.812M276.55 478.755l-2.913-7.035M273.677 474.343l-.04-2.623M275.813 593.386l-3.127 2.545M233.848 539.835l-6.711-5.303" style="fill:none;stroke:#00ff4a;stroke-width:.999997;stroke-linecap:round;stroke-linejoin:round;stroke-miterlimit:11.339;stroke-dasharray:none;stroke-opacity:1;visibility:visible"/></svg>