<svg xmlns="http://www.w3.org/2000/svg" baseProfile="full" height="793.701" preserveAspectRatio="xMinYMin meet" style="width:919px;height:1159px" width="559.371" xml:space="preserve"><path d="M158.756 480.008c1.388 2.004 1.388 2.004 2.776 3.855 2.158 1.927 2.158 1.927 4.317 3.7 2.851 1.773 2.851 1.773 5.707 3.393a471.653 471.653 0 0 0 7.014 3.006c4.086 1.388 4.086 1.388 8.248 2.622 3.315.847 3.315.771 6.708 1.62 1.234.229 1.234.229 2.467.539 4.934.77 4.934.77 9.945 1.54 5.242.541 5.242.541 10.484 1.004 5.398.23 5.398.23 10.795.385l10.946-.154c5.398-.386 5.398-.386 10.717-.848 5.165-.618 5.165-.618 10.33-1.388 4.856-.924 4.856-.924 9.713-1.927 4.395-1.155 4.395-1.155 8.867-2.468 3.853-1.387 3.853-1.387 7.785-2.852 3.316-1.619 3.316-1.619 6.555-3.237 2.697-1.774 2.697-1.774 5.24-3.624 1.928-1.85 2.005-1.85 3.857-3.778 1.156-1.926 1.156-1.926 2.234-3.932" style="fill:none;stroke:red;stroke-width:1.99999;stroke-linecap:round;stroke-linejoin:round;stroke-miterlimit:11.339;stroke-dasharray:none;stroke-opacity:1;visibility:visible" visibility="hidden"/><path d="m163.768 485.174 2.158-2.622 2.775-2.466c1.773-1.234 1.773-1.234 3.469-2.39 2.007-1.156 2.007-1.156 4.088-2.236 2.314-1.08 2.314-1.08 4.626-2.082 2.544-.924 2.544-.924 5.164-1.85 2.776-.926 2.776-.848 5.552-1.697 3.005-.77 3.005-.77 6.013-1.463l6.32-1.234c3.314-.539 3.314-.539 6.63-1.004 3.394-.384 3.394-.384 6.787-.69l6.937-.465c3.546-.077 3.546-.077 7.015-.232 3.548.079 3.548.079 7.016.079 3.47.153 3.47.153 6.937.384l6.785.617c3.314.385 3.314.385 6.554.85 3.16.537 3.16.537 6.32 1.154.31.001.31.001.617.077 2.699.618 2.699.618 5.32 1.236 2.776.77 2.776.77 5.551 1.616 2.544.85 2.544.85 5.088 1.774l4.625 2.005c2.006 1.001 2.006 1.001 4.01 2.159 1.697 1.078 1.697 1.078 3.393 2.312a76.495 76.495 0 0 1 2.775 2.39 65.735 65.735 0 0 1 1.849 2.39M157.6 476l1.156 4.008" style="fill:none;stroke:red;stroke-width:.999997;stroke-linecap:round;stroke-linejoin:round;stroke-miterlimit:11.339;stroke-dasharray:none;stroke-opacity:1;visibility:visible" visibility="hidden"/><path d="m303.462 477.464.77-4.008M157.6 476c.078 7.246.078 7.246.232 14.494.153.538.153.538.232 1.08.385 1.388.385 1.388.846 2.773 1.003 1.93 1.003 1.93 2.083 3.701 1.156 1.388 1.156 1.388 2.39 2.7 1.849 1.617 1.927 1.617 3.854 3.237 1.849 1.157 1.849 1.157 3.701 2.39 2.159 1.156 2.235 1.156 4.394 2.236 2.466 1.001 2.544 1.001 5.012 2.08 2.774.927 2.774.927 5.55 1.773 3.316.926 3.316.926 6.707 1.776 3.159.692 3.159.692 6.399 1.386 3.39.54 3.39.54 6.706 1.002 3.547.463 3.547.463 7.094.848l7.246.464c3.624.152 3.624.152 7.324.229 3.701.001 3.701.001 7.401-.076 3.7-.153 3.7-.153 7.402-.386 3.546-.307 3.546-.307 7.169-.616 3.548-.463 3.548-.463 7.015-.925l6.783-1.234c3.162-.692 3.162-.692 6.4-1.464l6.63-1.85c2.776-1.003 2.776-1.003 5.552-1.928l4.933-2.16c2.236-1.155 2.236-1.155 4.395-2.311l3.7-2.468c1.928-1.619 1.928-1.619 3.855-3.315 1.155-1.31 1.234-1.31 2.312-2.696 1.08-1.85 1.156-1.85 2.158-3.702.465-1.388.386-1.388.85-2.852l.153-1.08c.079-1.388.079-1.388.079-2.852 0-6.398.076-6.398.076-12.798-.386-2.005-.386-2.005-.848-4.01M244.1 447.167c-2.083-.154-2.083-.154-4.164-.23-5.243-.08-5.243-.08-10.486-.08-5.24.157-5.24.157-10.484.387l-10.175 1.079c-4.934.695-4.934.695-9.79 1.543-4.627 1.001-4.627 1.001-9.175 2.004-4.164 1.233-4.164 1.233-8.326 2.544l-7.247 2.928c-3.084 1.62-3.161 1.62-6.168 3.316-2.467 1.772-2.467 1.772-4.856 3.546l-3.392 3.854c-1.003 1.93-1.003 1.93-1.928 3.932" style="fill:none;stroke:red;stroke-width:1.99999;stroke-linecap:round;stroke-linejoin:round;stroke-miterlimit:11.339;stroke-dasharray:none;stroke-opacity:1;visibility:visible" visibility="hidden"/><path d="M303.386 469.447c-1.156-1.927-1.156-1.927-2.39-3.855-1.85-1.849-1.85-1.849-3.777-3.622-2.545-1.772-2.545-1.772-5.165-3.392-3.239-1.62-3.239-1.62-6.476-3.084-3.778-1.387-3.778-1.387-7.555-2.697-4.24-1.158-4.24-1.158-8.557-2.238-4.627-.924-4.627-.846-9.33-1.696-2.312-.308-2.312-.308-4.701-.616M157.91 471.99l-.31 4.01M255.435 448.247l-11.335-1.08M244.1 447.167l11.335 1.08" style="fill:none;stroke:red;stroke-width:1.99999;stroke-linecap:round;stroke-linejoin:round;stroke-miterlimit:11.339;stroke-dasharray:none;stroke-opacity:1;visibility:visible" visibility="hidden"/><path d="m256.281 587.467-.405-66.59M244.172 523.147l.477 64.473" style="fill:none;stroke:#00ff4a;stroke-width:1.99999;stroke-linecap:round;stroke-linejoin:round;stroke-miterlimit:11.339;stroke-dasharray:none;stroke-opacity:1;visibility:visible"/><path d="M217.455 535.316c-.615.386-.615.386-1.308.692-.925.232-.925.232-1.774.387-1 .152-1 .152-2.003.23-.999-.077-.999-.077-1.999-.077-.926-.153-.926-.153-1.85-.384-.771-.23-.771-.23-1.464-.54-.463-.308-.463-.308-.848-.694M218.303 533.852l-.077.77-.771.694M206.21 534.93l-.232-.77" style="fill:none;stroke:#00ff4a;stroke-width:.999997;stroke-linecap:round;stroke-linejoin:round;stroke-miterlimit:11.339;stroke-dasharray:none;stroke-opacity:1;visibility:visible"/><path d="M206.44 533.39c.463-.386.463-.386 1.003-.695.769-.308.769-.308 1.615-.539l1.852-.306c1.076-.078 1.076-.078 2.077-.078.926.078.926.078 1.926.231.847.232.847.232 1.617.461l1.233.619M207.186 653.23l-1.336-118.886.572-.954M217.764 533.083l.539.77 1.234 118.243" style="fill:none;stroke:#00ff4a;stroke-width:1.99999;stroke-linecap:round;stroke-linejoin:round;stroke-miterlimit:11.339;stroke-dasharray:none;stroke-opacity:1;visibility:visible"/><path d="m403.612 581.156-.464.77" style="fill:none;stroke:#00ff4a;stroke-width:.999997;stroke-linecap:round;stroke-linejoin:round;stroke-miterlimit:11.339;stroke-dasharray:none;stroke-opacity:1;visibility:visible"/><path d="M402.839 607.903c-.461.31-.461.386-1.001.617-.77.308-.77.308-1.468.541-.924.074-.924.074-1.846.229h-1.852c-.846-.155-.924-.155-1.772-.307-.771-.23-.771-.23-1.464-.463-.541-.308-.541-.308-1.002-.695M403.535 580.924l.077.232-.309 25.979-.463.768" style="fill:none;stroke:#00ff4a;stroke-width:1.99999;stroke-linecap:round;stroke-linejoin:round;stroke-miterlimit:11.339;stroke-dasharray:none;stroke-opacity:1;visibility:visible"/><path d="m392.435 607.826-.463-.692.231-25.208" style="fill:none;stroke:#00ff4a;stroke-width:1.99999;stroke-linecap:round;stroke-linejoin:round;stroke-miterlimit:11.339;stroke-dasharray:none;stroke-opacity:1;visibility:visible"/><path d="M394.514 569.98c.385.152.385.152.772.23.924.153.924.153 1.85.233.926.075.926.075 1.85 0 .924-.08.924-.08 1.773-.233.77-.23.77-.23 1.463-.463.541-.305.541-.305 1.081-.617M251.133 590.022h-1.853c-.845-.154-.845-.154-1.771-.308-.154 0-.154 0-.386-.078-.233 0-.233 0-.385-.076-.155.076-.155.076-.232.076M251.133 590.022c1-.154 1-.154 1.924-.232.85-.231.85-.231 1.621-.54l1.08-.616M207.733 653.843c.461.309.461.309 1.001.696.77.229.77.229 1.541.54.926.153.926.153 1.851.23h2.004c1.003-.077 1.003-.077 2.003-.229.773-.233.773-.233 1.62-.541.616-.31.616-.31 1.156-.696M144.136 547.316c-.307.156-.307.156-.539.386l-.924.46c-.54.158-.54.158-1.157.39l-.618.152M139.818 549.088l-.616.156c-.924 0-.924 0-1.926-.078-.848-.078-.848-.078-1.698-.231-.77-.232-.77-.232-1.464-.463l-.924-.616M133.113 559.495l.308.772" style="fill:none;stroke:#00ff4a;stroke-width:.999997;stroke-linecap:round;stroke-linejoin:round;stroke-miterlimit:11.339;stroke-dasharray:none;stroke-opacity:1;visibility:visible"/><path d="m244.352 592.794-3.085 5.396" style="fill:none;stroke:#00ff4a;stroke-width:1.99999;stroke-linecap:round;stroke-linejoin:round;stroke-miterlimit:11.339;stroke-dasharray:none;stroke-opacity:1;visibility:visible"/><path d="m219.324 579.6 25.028 9.185M139.512 560.575l-.232-10.408.31.157 66.646 24.471" style="fill:none;stroke:#00ff4a;stroke-width:.999997;stroke-linecap:round;stroke-linejoin:round;stroke-miterlimit:11.339;stroke-dasharray:none;stroke-opacity:1;visibility:visible"/><path d="m141.437 561.346-1.925-.77" style="fill:none;stroke:#00ff4a;stroke-width:1.99999;stroke-linecap:round;stroke-linejoin:round;stroke-miterlimit:11.339;stroke-dasharray:none;stroke-opacity:1;visibility:visible"/><path d="m133.19 547.857-.308-.695M139.46 549.378l-.181.79M141.437 561.346l.233.079M245.044 586.86l-.08.153M140.05 548.936l.079.077.306-.232.463-.077M144.06 547.24l.076.077h.077l.078-.154M144.214 547.316h.077M207.501 666.023l.387.848M219.065 666.87l.54-.848M207.348 652.997l.387.847" style="fill:none;stroke:#00ff4a;stroke-width:.999997;stroke-linecap:round;stroke-linejoin:round;stroke-miterlimit:11.339;stroke-dasharray:none;stroke-opacity:1;visibility:visible"/><path d="m219.529 652.997.077 8.016" style="fill:none;stroke:#00ff4a;stroke-width:1.99999;stroke-linecap:round;stroke-linejoin:round;stroke-miterlimit:11.339;stroke-dasharray:none;stroke-opacity:1;visibility:visible"/><path d="m218.91 653.843.619-.847M219.83 649.486l33.079-58.235.074 10.642-.461.924M255.836 601.584l.54-.773M255.76 588.632l.539-.693-.076.385h-.156l.078.155-.154.54h.308v.77l138.68-18.654-.08-.539M249.592 590.02h1.541M244.806 592.081l-.15.252v-4.24" style="fill:none;stroke:#00ff4a;stroke-width:.999997;stroke-linecap:round;stroke-linejoin:round;stroke-miterlimit:11.339;stroke-dasharray:none;stroke-opacity:1;visibility:visible"/><path d="M246.508 589.635v-.077l-.385.309-1.316 2.215" style="fill:none;stroke:#00ff4a;stroke-width:1.99999;stroke-linecap:round;stroke-linejoin:round;stroke-miterlimit:11.339;stroke-dasharray:none;stroke-opacity:1;visibility:visible"/><path d="M245.026 588.48s.237.75 1.481 1.155" style="fill:none;stroke:#00ff4a;stroke-width:.999997;stroke-linecap:round;stroke-linejoin:round;stroke-miterlimit:11.339;stroke-dasharray:none;stroke-opacity:1;visibility:visible"/><path d="m244.656 592.333-.305.461" style="fill:none;stroke:#00ff4a;stroke-width:1.99999;stroke-linecap:round;stroke-linejoin:round;stroke-miterlimit:11.339;stroke-dasharray:none;stroke-opacity:1;visibility:visible"/><path d="m244.965 587.014-.076.079-.232.769M251.365 590.02h.539l.309.079.461.305.156.079-.078.076.078.308.078.385M252.52 602.816l-.155.228M256.145 600.118l.232.232-.079-10.561M393.745 569.363l-.463-.232-.694-.539-.308-.618v-.228l.077-.156h.079v.384M256.066 588.324v.308M403.612 580.848l-.464.693M393.128 581.773l1.695-.232.156-10.407M392.975 581.85l.152-.077M403.303 569.13l.461-.695M393.745 569.363l.539.384h.156M392.435 567.667l-.079.461M392.512 567.59h0M403.612 567.667l.077.615" style="fill:none;stroke:#00ff4a;stroke-width:.999997;stroke-linecap:round;stroke-linejoin:round;stroke-miterlimit:11.339;stroke-dasharray:none;stroke-opacity:1;visibility:visible"/><path d="M135.81 544.928c-.154 0-.154 0-.309.078l-1.387.461-.924.77" style="fill:none;stroke:#00ff4a;stroke-width:1.99999;stroke-linecap:round;stroke-linejoin:round;stroke-miterlimit:11.339;stroke-dasharray:none;stroke-opacity:1;visibility:visible"/><path d="M207.5 666.179c.155.384.155.384.388.77l.153.154c.464.386.464.386 1.002.693.694.308.694.308 1.467.543.923.153.923.153 1.849.228.926.08.926.08 1.927 0 .924-.075.924-.075 1.848-.228.848-.235.848-.235 1.619-.543.616-.307.616-.307 1.233-.77" style="fill:none;stroke:#00ff4a;stroke-width:.999997;stroke-linecap:round;stroke-linejoin:round;stroke-miterlimit:11.339;stroke-dasharray:none;stroke-opacity:1;visibility:visible"/><path d="m252.365 603.045.77-.152c.696-.23.696-.23 1.466-.46l1.078-.621" style="fill:none;stroke:#00ff4a;stroke-width:1.99999;stroke-linecap:round;stroke-linejoin:round;stroke-miterlimit:11.339;stroke-dasharray:none;stroke-opacity:1;visibility:visible"/><path d="M392.895 581.85c.464.31.464.31.925.54.694.232.694.232 1.466.46.846.158.846.158 1.693.233h1.852c.85-.076.85-.076 1.772-.233l1.388-.46c.54-.31.54-.31 1.004-.616" style="fill:none;stroke:#00ff4a;stroke-width:.999997;stroke-linecap:round;stroke-linejoin:round;stroke-miterlimit:11.339;stroke-dasharray:none;stroke-opacity:1;visibility:visible"/><path d="m133.19 546.236-.308.925.23 12.334.386.926M219.73 590.24l21.535 7.95-21.507 37.411M141.67 561.424l64.685 23.88M395.21 566.046l-.617.081-1.234.538-.846.77v.154l-135.688 18.146M206.33 570.047l-62.04-22.73-.077-.926-.694-.77-1.234-.617-.848-.23M244.467 584.018l-25.035-9.17M207.348 652.919l.153 13.26M218.987 667.025l.619-.847v-5.166l32.76-57.967M255.68 601.813l.695-.924v-.539M256.376 600.35l136.52-18.5M402.996 581.773l.539-.77.077-.154.077-12.567-.154-.846-.848-.695-1.234-.54-.617-.155M208.273 694.621c.537.384.537.384 1.077.692.772.308.772.308 1.62.542.927.154.927.154 1.849.23h2.004c1.003-.154 1.003-.154 1.927-.31.772-.307.772-.307 1.62-.615.54-.31.54-.31 1.08-.693" style="fill:none;stroke:#00ff4a;stroke-width:1.99999;stroke-linecap:round;stroke-linejoin:round;stroke-miterlimit:11.339;stroke-dasharray:none;stroke-opacity:1;visibility:visible"/><path d="m207.58 666.255-.079.23.31 27.287.464.85M219.45 694.468l.464-.85-.233-27.363-.076-.152" style="fill:none;stroke:#00ff4a;stroke-width:1.99999;stroke-linecap:round;stroke-linejoin:round;stroke-miterlimit:11.339;stroke-dasharray:none;stroke-opacity:1;visibility:visible"/><path d="M141.9 561.498c-.616.156-.616.156-1.232.232-.926.154-.926.154-1.852.23l-1.848-.152c-.848-.078-.848-.078-1.619-.311-.695-.228-.695-.228-1.31-.461M134.04 561.036l-.772-.693-.153-.692" style="fill:none;stroke:#00ff4a;stroke-width:.999997;stroke-linecap:round;stroke-linejoin:round;stroke-miterlimit:11.339;stroke-dasharray:none;stroke-opacity:1;visibility:visible"/><path d="M134.577 586.938c.617.232.617.232 1.235.54l1.694.309c.926.076.926.076 1.852.076l1.85-.153c.848-.231.848-.231 1.618-.386.694-.31.694-.31 1.31-.617M133.113 559.65l.539 25.823.156.769.769.695M144.135 586.706l.773-.695.152-.769-.46-22.74" style="fill:none;stroke:#00ff4a;stroke-width:1.99999;stroke-linecap:round;stroke-linejoin:round;stroke-miterlimit:11.339;stroke-dasharray:none;stroke-opacity:1;visibility:visible"/><path d="M141.09 540.068c0 .576-1.14 1.044-2.546 1.044-1.404 0-2.544-.468-2.544-1.044.001-.577 1.14-1.044 2.544-1.044 1.406 0 2.546.467 2.546 1.044" style="fill:none;stroke:#00ff4a;stroke-width:.999997;stroke-linecap:round;stroke-linejoin:round;stroke-miterlimit:11.339;stroke-dasharray:none;stroke-opacity:1;visibility:visible"/><path d="M135.773 540.866s-.475.664.513 1.214c.987.551 3.644.666 4.594.038.948-.626.266-.968.266-.968M135.736 544.132s-.476.663.512 1.214c.988.55 3.646.664 4.592.038.951-.626.269-.969.269-.969" style="fill:none;stroke:#00ff4a;stroke-width:.999997;stroke-linecap:round;stroke-linejoin:round;stroke-miterlimit:11.339;stroke-dasharray:none;stroke-opacity:1;visibility:visible"/><path d="M135.753 542.384s-.473.666.513 1.216c.987.55 3.644.664 4.595.038.95-.626.265-.97.265-.97M400.838 561.316c0 .596-1.178 1.079-2.63 1.079-1.453 0-2.628-.483-2.628-1.079s1.175-1.08 2.628-1.08c1.452 0 2.63.484 2.63 1.08M135.832 545.707s-.476.663.512 1.216c.986.55 3.644.664 4.593.036.95-.625.267-.967.267-.967" style="fill:none;stroke:#00ff4a;stroke-width:.999997;stroke-linecap:round;stroke-linejoin:round;stroke-miterlimit:11.339;stroke-dasharray:none;stroke-opacity:1;visibility:visible"/><path d="M395.344 562.14s-.492.687.528 1.256c1.022.568 3.771.688 4.751.039.979-.648.275-.999.275-.999M395.306 565.515s-.491.688.528 1.255c1.021.572 3.769.689 4.75.04.982-.647.276-1 .276-1" style="fill:none;stroke:#00ff4a;stroke-width:.999997;stroke-linecap:round;stroke-linejoin:round;stroke-miterlimit:11.339;stroke-dasharray:none;stroke-opacity:1;visibility:visible"/><path d="M395.324 563.71s-.49.687.53 1.258c1.02.569 3.768.686 4.749.038.983-.648.276-1 .276-1M215.989 534.202c0 .828-1.729 1.497-3.859 1.497s-3.859-.67-3.859-1.497c0-.828 1.729-1.496 3.86-1.496 2.129 0 3.857.668 3.857 1.496h.001M395.402 567.144s-.49.687.528 1.256c1.024.57 3.771.689 4.753.039.977-.647.273-1 .273-1" style="fill:none;stroke:#00ff4a;stroke-width:.999997;stroke-linecap:round;stroke-linejoin:round;stroke-miterlimit:11.339;stroke-dasharray:none;stroke-opacity:1;visibility:visible"/><path d="m244.656 592.333-3.39 5.857" style="fill:none;stroke:#00ff4a;stroke-width:1.99999;stroke-linecap:round;stroke-linejoin:round;stroke-miterlimit:11.339;stroke-dasharray:none;stroke-opacity:1;visibility:visible"/><path d="m206.236 574.795 13.088 4.805M219.432 574.847l-13.196-.052" style="fill:none;stroke:#00ff4a;stroke-width:.999997;stroke-linecap:round;stroke-linejoin:round;stroke-miterlimit:11.339;stroke-dasharray:none;stroke-opacity:1;visibility:visible"/><path d="m207.348 652.919 12.258 8.094" style="fill:none;stroke:#00ff4a;stroke-width:1.99999;stroke-linecap:round;stroke-linejoin:round;stroke-miterlimit:11.339;stroke-dasharray:none;stroke-opacity:1;visibility:visible"/><path d="m219.605 666.022.225-16.536M251.133 590.022l-1.541-.002M256.066 588.632l.232 1.157" style="fill:none;stroke:#00ff4a;stroke-width:.999997;stroke-linecap:round;stroke-linejoin:round;stroke-miterlimit:11.339;stroke-dasharray:none;stroke-opacity:1;visibility:visible"/><path d="m206.355 585.304 13.375 4.936M219.324 579.6l-12.969 5.704M219.432 574.847l-13.102-4.8M206.236 574.795l13.196.052M139.512 560.575l5.088 1.927" style="fill:none;stroke:#00ff4a;stroke-width:1.99999;stroke-linecap:round;stroke-linejoin:round;stroke-miterlimit:11.339;stroke-dasharray:none;stroke-opacity:1;visibility:visible"/><path d="m141.126 542.668.02-1.518M141.146 541.15l-5.393 1.234M141.437 561.346l-.311-18.678M392.436 567.974l8.402-6.658M395.306 565.515l5.532-4.199M141.126 542.668l.078 3.324M403.764 568.435l-8.42-6.295M400.879 564.006l.019-1.57M403.764 568.435l-8.44-4.725M395.402 567.144l5.477-3.138M403.764 568.435l-8.362-1.291M400.879 564.006l.077 3.433M256.066 588.632l-3.158 2.62M141.126 542.668l-.036-2.6M141.146 541.15l-.056-1.082" style="fill:none;stroke:#00ff4a;stroke-width:.999997;stroke-linecap:round;stroke-linejoin:round;stroke-miterlimit:11.339;stroke-dasharray:none;stroke-opacity:1;visibility:visible"/></svg>