<svg xmlns="http://www.w3.org/2000/svg" baseProfile="full" height="793.701" preserveAspectRatio="xMinYMin meet" style="width:919px;height:1159px" width="559.371" xml:space="preserve"><path d="M233.373 325.147c-.6-.149-.6-.149-1.274-.373-.824-.076-.824-.076-1.573-.15-.899-.076-.899-.076-1.724-.076-.822.076-.822.076-1.645.226-.75.15-.75.15-1.423.299M233.895 327.994l.898-.524.226-.673M223.634 326.72l.076.6.299.3.3.297M224.309 327.918l1.197.45c.825.222.825.222 1.574.373.973.001.973.001 1.871.076.9 0 .975 0 1.872-.075.824-.15.9-.15 1.723-.299l1.348-.45M346.072 366.86c-.522.3-.522.3-.972.522l-1.498.451c-.823.074-.823.074-1.723.224h-1.797l-1.798-.15c-.746-.224-.746-.224-1.496-.374-2.248-.674-2.248-.748-4.493-1.423l-.15-.075M331.02 374.798c0-4.195 0-4.195-.073-8.463-.001-.149-.001-.149.073-.373.078-.225.078-.225.15-.45" style="fill:none;stroke:red;stroke-width:.999997;stroke-linecap:round;stroke-linejoin:round;stroke-miterlimit:11.339;stroke-dasharray:none;stroke-opacity:1;visibility:visible"/><path d="m225.733 325.074-.15.076-1.048.449-.15.148-.599.601-.076.149-.075.223v2.622M235.018 327.918v-1.273l-.45-.825-.149-.073-.899-.524-.149-.076" style="fill:none;stroke:red;stroke-width:.999997;stroke-linecap:round;stroke-linejoin:round;stroke-miterlimit:11.339;stroke-dasharray:none;stroke-opacity:1;visibility:visible"/><path d="M215.847 349.411c1.35 1.647 1.35 1.647 2.771 3.295l4.195 3.145c2.77 1.423 2.77 1.423 5.616 2.846 3.37 1.348 3.37 1.348 6.814 2.546 3.894 1.198 3.894 1.198 7.862 2.247 4.344.9 4.344.9 8.764 1.723 4.791.75 4.791.75 9.509 1.347 5.017.449 5.017.449 10.036.823l10.335.3c5.166-.073 5.166-.073 10.333-.223l10.183-.75c4.944-.6 4.944-.6 9.812-1.199 4.569-.821 4.569-.821 9.136-1.72 4.117-1.051 4.117-1.051 8.313-2.101 2.433-.793 3.253-1.093 4.578-1.577" style="fill:none;stroke:red;stroke-width:1.99999;stroke-linecap:round;stroke-linejoin:round;stroke-miterlimit:11.339;stroke-dasharray:none;stroke-opacity:1;visibility:visible"/><path d="m333.378 344.937-1.233-.468c-2.471-.824-2.471-.824-4.868-1.572-2.695-.675-2.695-.675-5.317-1.348-2.845-.599-2.845-.599-5.69-1.123-2.996-.524-2.996-.524-5.99-.975l-6.292-.748c-3.219-.225-3.219-.225-6.439-.523-3.296-.15-3.296-.15-6.591-.226-3.37-.074-3.37-.074-6.665-.074h-1.648l-5.092.15-6.591.449-6.439.597c-3.145.451-3.145.374-6.289.826l-5.992 1.048c-2.847.673-2.847.673-5.69 1.272-2.622.75-2.622.75-5.319 1.499-2.395.748-2.395.748-4.869 1.572l-4.342 1.797c-1.872.973-1.947.973-3.82 1.948-1.645.973-1.645.973-3.219 2.022-1.349 1.047-1.349 1.123-2.62 2.171-.525.524-.525.524-.975 1.049" style="fill:none;stroke:red;stroke-width:.999997;stroke-linecap:round;stroke-linejoin:round;stroke-miterlimit:11.339;stroke-dasharray:none;stroke-opacity:1;visibility:visible"/><path d="M353.338 346.64c-.972 1.724-.972 1.724-2.022 3.372-1.722 1.646-1.722 1.646-3.52 3.294" style="fill:none;stroke:red;stroke-width:1.99999;stroke-linecap:round;stroke-linejoin:round;stroke-miterlimit:11.339;stroke-dasharray:none;stroke-opacity:1;visibility:visible"/><path d="m332.146 366.035-.148.075-.15.076-.076.224v.224M331.847 375.098l-.825-.3M346.598 365.287v.974l-.526.599M331.171 365.511l.302-.3.374-.149" style="fill:none;stroke:red;stroke-width:.999997;stroke-linecap:round;stroke-linejoin:round;stroke-miterlimit:11.339;stroke-dasharray:none;stroke-opacity:1;visibility:visible"/><path d="m233.82 328.369-3.447 1.273M225.6 331.974l2.904-1.433M214.574 345.967l1.272 3.444" style="fill:none;stroke:red;stroke-width:1.99999;stroke-linecap:round;stroke-linejoin:round;stroke-miterlimit:11.339;stroke-dasharray:none;stroke-opacity:1;visibility:visible"/><path d="m353.936 343.195-.598 3.445M334.394 364.163l-2.547.9M331.771 366.635l1.049-.373M331.847 375.098l3.144-1.124" style="fill:none;stroke:red;stroke-width:.999997;stroke-linecap:round;stroke-linejoin:round;stroke-miterlimit:11.339;stroke-dasharray:none;stroke-opacity:1;visibility:visible"/><path d="M352.963 339.826c-1.123-1.648-1.123-1.723-2.321-3.296l-3.744-3.144M333.837 327.346c-2.047-.664-2.604-.826-5.51-1.673-4.12-.975-4.12-.975-8.237-1.873-4.42-.824-4.42-.824-8.913-1.498-4.718-.524-4.718-.524-9.435-.972-4.942-.301-4.942-.301-9.884-.525-4.943-.075-4.943-.075-9.961-.075-4.942.15-4.942.15-9.96.374-4.867.449-4.867.449-9.66.973-4.643.6-4.643.6-9.287 1.35-4.344.821-4.344.821-8.61 1.794-3.97 1.051-3.898 1.051-7.866 2.173l-1.796.599c-.45.15-.45.15-.898.376M346.598 369.182c.75-.599.75-.599 1.498-1.122.374-.3.374-.3.748-.675l2.172-2.322c.748-1.198.748-1.198 1.424-2.396.298-.449.298-.449.523-.897l.75-2.397.148-1.05M214.723 342.522l-.148 3.445c.075 5.616.075 5.616.225 11.308 0 1.198 0 1.198.074 2.396.073.524.073.524.15 1.049.45 1.2.45 1.2.824 2.471l.599.9c.747 1.121.747 1.195 1.497 2.319 1.123 1.2 1.123 1.2 2.321 2.323l.75.597c1.498 1.125 1.422 1.125 2.92 2.173l3.595 2.098c2.097.973 2.097.973 4.269 1.872 2.321.897 2.396.897 4.791 1.797 2.921.899 2.921.899 5.917 1.721 2.846.75 2.919.75 5.766 1.349 2.996.6 2.996.6 6.065 1.198l6.441.899c3.371.3 3.371.3 6.741.673 3.443.225 3.443.225 6.89.376 3.517.148 3.517.148 6.963.224 3.52-.076 3.52-.076 7.04-.076 3.517-.148 3.517-.148 7.037-.373 3.445-.226 3.445-.226 6.815-.524 3.372-.45 3.372-.45 6.665-.824l6.441-1.05c2.995-.673 2.995-.673 5.99-1.272a584.932 584.932 0 0 0 5.618-1.498c2.995-.899 2.995-.899 5.916-1.873 1.047-.374 1.047-.374 2.172-.822M225.506 332.038c-.75.375-.823.375-1.496.75-2.248 1.496-2.323 1.496-4.493 3.068-1.574 1.573-1.574 1.649-3.147 3.294-.824 1.65-.897 1.65-1.648 3.372M353.862 355.851h0" style="fill:none;stroke:red;stroke-width:1.99999;stroke-linecap:round;stroke-linejoin:round;stroke-miterlimit:11.339;stroke-dasharray:none;stroke-opacity:1;visibility:visible"/><path d="M223.709 329.491v1.5l.6.522 1.198.525" style="fill:none;stroke:red;stroke-width:.999997;stroke-linecap:round;stroke-linejoin:round;stroke-miterlimit:11.339;stroke-dasharray:none;stroke-opacity:1;visibility:visible"/><path d="M394.239 508.915c-1.055 1.941-1.053 2.016-2.188 3.883-1.803 1.865-1.804 1.941-3.683 3.728-2.554 1.79-2.554 1.79-5.112 3.5-3.156 1.637-3.229 1.638-6.38 3.197-3.832 1.485-3.832 1.485-7.586 2.82-4.282 1.259-4.282 1.259-8.632 2.367-4.652 1.033-4.652 1.033-9.382 1.92-5.026.733-5.026.733-10.056 1.316-5.176.436-5.176.436-10.35.794-5.326.136-5.326.136-10.652.195-5.251-.164-5.251-.164-10.501-.405-5.102-.464-5.102-.464-10.2-1-4.797-.76-4.797-.76-9.597-1.598-4.497-.984-4.497-.984-8.921-2.118-3.969-1.206-3.969-1.206-7.942-2.566-3.447-1.428-3.447-1.428-6.82-3.005-2.767-1.656-2.767-1.656-5.539-3.308-2.096-1.803-2.096-1.803-4.116-3.673-1.42-1.879-1.42-1.879-2.69-3.824M335.846 479.071l-.774-111.346M346.598 366.262l.72 113.201-.075.667M353.862 358.323l.074-15.126-.973-3.37M230.374 329.64l-.673.3-1.198.6" style="fill:none;stroke:red;stroke-width:1.99999;stroke-linecap:round;stroke-linejoin:round;stroke-miterlimit:11.339;stroke-dasharray:none;stroke-opacity:1;visibility:visible"/><path d="M312.853 537.999c.002-.227.002-.227-.076-.375l.002-.074M313.126 546.072c.014-4.258.014-4.258-.05-8.522.001-.298.001-.298.004-.523-.077-.224-.077-.224-.077-.373M299.72 540.428c.448.376.448.376.97.6.677.303.677.303 1.43.528.897.154.897.154 1.722.231.973.003.973.003 1.872.077.976-.144.976-.144 1.876-.213.828-.227.828-.227 1.58-.376.673-.295.673-.295 1.276-.59M258.754 515.94c.979-1.269.979-1.345 2.032-2.537 1.355-1.268 1.355-1.268 2.708-2.46 1.73-1.192 1.73-1.192 3.38-2.385 1.955-1.112 1.955-1.112 3.984-2.155 2.176-1.041 2.176-1.041 4.43-2.081 2.552-.89 2.552-.89 5.031-1.78 2.7-.89 2.7-.89 5.406-1.707 3-.737 3-.737 6.002-1.401l6.003-1.184c3.228-.51 3.228-.51 6.38-.949 3.3-.37 3.3-.37 6.603-.731 3.377-.214 3.377-.214 6.75-.432 3.45-.062 3.45-.062 6.827-.128 3.375.01 3.375.01 6.825.096 3.376.158 3.376.158 6.673.318 3.228.306 3.228.306 6.452.614 3.222.384 3.222.384 6.523.842 3.075.607 3.075.607 6.147 1.138 2.85.68 2.85.68 5.77 1.36 2.7.758 2.7.758 5.324 1.588 2.471.828 2.471.828 4.947 1.73 2.249.982 2.249.982 4.42 1.958 1.949 1.053 2.021 1.053 3.895 2.182 1.644 1.13 1.718 1.128 3.294 2.25l2.694 2.401c1.044 1.2 1.046 1.273 2.016 2.476" style="fill:none;stroke:red;stroke-width:.999997;stroke-linecap:round;stroke-linejoin:round;stroke-miterlimit:11.339;stroke-dasharray:none;stroke-opacity:1;visibility:visible"/><path d="m253.893 511.138-1.193-3.89M394.999 504.955l-.759 3.961M344.96 479.768c-1.126-.154-1.126-.154-2.25-.305-1.202-.155-1.202-.155-2.472-.233-1.806-.078-1.806-.078-3.602-.235" style="fill:none;stroke:red;stroke-width:1.99999;stroke-linecap:round;stroke-linejoin:round;stroke-miterlimit:11.339;stroke-dasharray:none;stroke-opacity:1;visibility:visible"/><path d="m299.723 539.455-.45-.748.077-.3M311.355 536.295l1.5.133-.073.002M347.74 479.552l-.08.522.075.002M344.736 479.32l.152.15.072.3M312.853 537.999l-.45-.077M312.78 537.551h-.079l-.074-.003-1.507 2.463M313.126 546.072l-.221.451-1.575-.155M313.005 536.654l-.148-.224M310.446 540.684l.673-.673" style="fill:none;stroke:red;stroke-width:.999997;stroke-linecap:round;stroke-linejoin:round;stroke-miterlimit:11.339;stroke-dasharray:none;stroke-opacity:1;visibility:visible"/><path d="m299.274 538.708-.004 1.046.45.674" style="fill:none;stroke:red;stroke-width:.999997;stroke-linecap:round;stroke-linejoin:round;stroke-miterlimit:11.339;stroke-dasharray:none;stroke-opacity:1;visibility:visible"/><path d="m311.59 546.494.77 108.069M300.343 655.656l-.878-116.297M336.568 548.428l.282 43.462M348.163 591.752l-.232-44.701M394.186 501.068c.442 1.943.442 1.943.812 3.887-.016 6.21-.016 6.21-.11 12.415-.002 1.42-.002 1.42-.081 2.765l-.153 1.045c-.378 1.423-.378 1.423-.83 2.767-.981 1.865-.981 1.865-2.036 3.656-1.126 1.344-1.126 1.344-2.334 2.688-1.427 1.264-1.506 1.265-2.931 2.528l-.752.601c-1.804 1.264-1.804 1.264-3.607 2.455-2.101 1.116-2.101 1.116-4.282 2.23-2.399 1.117-2.399 1.117-4.806 2.156-2.702.962-2.702.962-5.404 1.853-2.929.892-2.929.892-5.852 1.704-3.382.812-3.382.812-6.757 1.552l-6.603 1.178c-3.378.515-3.378.515-6.757.952l-7.05.58c-3.603.212-3.603.212-7.127.352-3.601.068-3.601.068-7.201.055-3.6-.085-3.6-.085-7.125-.244-.902-.005-.902-.005-1.874-.08" style="fill:none;stroke:red;stroke-width:1.99999;stroke-linecap:round;stroke-linejoin:round;stroke-miterlimit:11.339;stroke-dasharray:none;stroke-opacity:1;visibility:visible"/><path d="M347.734 480.075c2.326.305 2.326.305 4.573.61 4.5.838 4.576.835 9.068 1.745a344.015 344.015 0 0 1 8.252 2.19 303.455 303.455 0 0 1 7.343 2.64 466.826 466.826 0 0 1 6.218 3.011c2.546 1.65 2.546 1.65 5.014 3.379 1.948 1.794 1.948 1.794 3.741 3.598 1.196 1.872 1.196 1.872 2.243 3.82M253.087 503.288c-.229 1.942-.229 1.942-.386 3.959l.264 13.91c.073.523.073.523.221 1.046.37 1.421.296 1.42.745 2.769.747 1.424.747 1.424 1.57 2.768.219.452.219.452.521.9 1.121 1.275 1.119 1.349 2.243 2.626l2.992 2.55.746.602c1.8 1.2 1.8 1.2 3.598 2.329a214.676 214.676 0 0 0 4.269 2.255c2.4 1.05 2.4 1.05 4.868 2.03l5.395 1.811c2.926.832 2.926.832 5.85 1.587 3.372.754 3.372.754 6.82 1.438 3.227.604 3.227.604 6.524 1.063M336.636 478.996c-1.948-.078-1.948-.078-3.898-.234-5.099-.088-5.099-.088-10.203-.103-5.1.208-5.1.208-10.125.421-5.028.431-5.028.431-9.981.943-4.727.73-4.727.73-9.454 1.54-4.502.959-4.502.959-8.933 1.997-4.053 1.186-4.053 1.186-8.032 2.446-3.603 1.41-3.603 1.41-7.13 2.894-3.007 1.56-3.007 1.56-5.938 3.2-2.404 1.71-2.404 1.71-4.657 3.575-1.731 1.792-1.731 1.792-3.39 3.729-.977 1.867-.978 1.942-1.808 3.884M347.66 480.074l-2.7-.304" style="fill:none;stroke:red;stroke-width:1.99999;stroke-linecap:round;stroke-linejoin:round;stroke-miterlimit:11.339;stroke-dasharray:none;stroke-opacity:1;visibility:visible"/><path d="m491.48 585.772-.455.752M311.54 539.74l.05 6.754" style="fill:none;stroke:red;stroke-width:.999997;stroke-linecap:round;stroke-linejoin:round;stroke-miterlimit:11.339;stroke-dasharray:none;stroke-opacity:1;visibility:visible"/><path d="M490.707 611.787c-.457.302-.455.373-.978.593-.748.301-.748.301-1.428.528-.897.072-.897.072-1.794.22-.903 0-.903 0-1.803-.003-.821-.15-.897-.148-1.724-.3-.748-.225-.748-.225-1.425-.452-.527-.3-.527-.3-.975-.676M480.58 611.697l-.448-.673.248-24.51" style="fill:none;stroke:red;stroke-width:1.99999;stroke-linecap:round;stroke-linejoin:round;stroke-miterlimit:11.339;stroke-dasharray:none;stroke-opacity:1;visibility:visible"/><path d="m491.403 585.55.077.222-.324 25.265-.45.751" style="fill:none;stroke:red;stroke-width:1.99999;stroke-linecap:round;stroke-linejoin:round;stroke-miterlimit:11.339;stroke-dasharray:none;stroke-opacity:1;visibility:visible"/><path d="m228.377 564.422.305.75M343.156 594.23l-1.805.004c-.821-.155-.821-.155-1.723-.307-.15 0-.15 0-.377-.077-.225 0-.225 0-.375-.074-.149.075-.149.075-.225.075M343.156 594.23c.97-.145.97-.145 1.866-.222.83-.221.83-.221 1.581-.525.524-.293.524-.293 1.052-.593M300.875 656.25c.452.304.452.304.975.679.75.224.75.224 1.499.527.898.147.898.147 1.797.223l1.95.001c.976-.069.976-.069 1.952-.22.749-.223.749-.223 1.574-.524.597-.296.597-.296 1.124-.672" style="fill:none;stroke:red;stroke-width:.999997;stroke-linecap:round;stroke-linejoin:round;stroke-miterlimit:11.339;stroke-dasharray:none;stroke-opacity:1;visibility:visible"/><path d="m336.552 596.921-3.007 5.249" style="fill:none;stroke:red;stroke-width:1.99999;stroke-linecap:round;stroke-linejoin:round;stroke-miterlimit:11.339;stroke-dasharray:none;stroke-opacity:1;visibility:visible"/><path d="m234.603 565.479-.216-10.121.298.15 64.809 23.87M312.218 584.066l24.337 8.958" style="fill:none;stroke:red;stroke-width:.999997;stroke-linecap:round;stroke-linejoin:round;stroke-miterlimit:11.339;stroke-dasharray:none;stroke-opacity:1;visibility:visible"/><path d="m236.475 566.23-1.872-.751" style="fill:none;stroke:red;stroke-width:1.99999;stroke-linecap:round;stroke-linejoin:round;stroke-miterlimit:11.339;stroke-dasharray:none;stroke-opacity:1;visibility:visible"/><path d="m300.502 655.427.373.823M311.885 668.928l.525-.82M300.637 668.093l.373.827M239.186 552.592l.077-.002M239.04 552.512l.074.078.073.002.078-.156M235.137 554.16l.078.075.298-.225.45-.076M337.234 591.155l-.082.148M236.475 566.23l.228.077M234.565 554.588l-.178.77M228.466 553.106l-.3-.676" style="fill:none;stroke:red;stroke-width:.999997;stroke-linecap:round;stroke-linejoin:round;stroke-miterlimit:11.339;stroke-dasharray:none;stroke-opacity:1;visibility:visible"/><path d="m312.349 655.44.064 7.795" style="fill:none;stroke:red;stroke-width:1.99999;stroke-linecap:round;stroke-linejoin:round;stroke-miterlimit:11.339;stroke-dasharray:none;stroke-opacity:1;visibility:visible"/><path d="m336.995 596.23-.145.244.005-4.121M341.655 594.23h1.501M347.655 592.892l.523-.677-.075.372h-.152l.075.157-.15.52h.304v.747l134.913-17.991-.077-.521M347.715 605.484l.527-.754M312.646 652.03l32.23-56.597.064 10.347-.453.896M311.746 656.264l.603-.824" style="fill:none;stroke:red;stroke-width:.999997;stroke-linecap:round;stroke-linejoin:round;stroke-miterlimit:11.339;stroke-dasharray:none;stroke-opacity:1;visibility:visible"/><path d="M338.651 593.85v-.073l-.373.297-1.283 2.156" style="fill:none;stroke:red;stroke-width:1.99999;stroke-linecap:round;stroke-linejoin:round;stroke-miterlimit:11.339;stroke-dasharray:none;stroke-opacity:1;visibility:visible"/><path d="M337.215 592.728s.228.73 1.436 1.124" style="fill:none;stroke:red;stroke-width:.999997;stroke-linecap:round;stroke-linejoin:round;stroke-miterlimit:11.339;stroke-dasharray:none;stroke-opacity:1;visibility:visible"/><path d="m336.848 596.473-.297.448" style="fill:none;stroke:red;stroke-width:1.99999;stroke-linecap:round;stroke-linejoin:round;stroke-miterlimit:11.339;stroke-dasharray:none;stroke-opacity:1;visibility:visible"/><path d="M300.637 668.248c.149.372.149.372.376.748l.147.153c.449.375.449.375.977.678.669.297.669.297 1.423.525.897.15.897.15 1.8.223.902.077.902.077 1.874 0 .899-.072.899-.072 1.799-.215.826-.23.826-.23 1.575-.53.599-.296.599-.296 1.202-.746M480.695 572.57h0M480.621 572.644l-.078.45M481.892 574.296l.528.372.149.003M491.19 574.083l.448-.675M481.133 586.438l.148-.074M481.283 586.364l1.646-.222.164-10.122M491.481 585.475l-.453.675M347.951 592.586l.004.303M481.892 574.296l-.45-.226-.672-.524-.3-.602v-.224l.074-.15h.077v.377M348.015 604.056l.227.224-.063-10.271M344.487 606.676l-.15.224M343.376 594.235l.527-.001.297.076.45.294.15.08-.076.076.076.296.076.375M337.152 591.303l-.072.075-.226.742" style="fill:none;stroke:red;stroke-width:.999997;stroke-linecap:round;stroke-linejoin:round;stroke-miterlimit:11.339;stroke-dasharray:none;stroke-opacity:1;visibility:visible"/><path d="M344.338 606.899c.374-.07.374-.07.75-.146.677-.223.677-.223 1.423-.449.525-.3.525-.3 1.053-.599" style="fill:none;stroke:red;stroke-width:1.99999;stroke-linecap:round;stroke-linejoin:round;stroke-miterlimit:11.339;stroke-dasharray:none;stroke-opacity:1;visibility:visible"/><path d="M481.056 586.44c.45.3.45.3.899.527.674.223.674.223 1.43.45.815.149.815.149 1.642.223l1.801.006c.823-.078.823-.078 1.727-.222.677-.224.677-.224 1.35-.454.522-.296.522-.296.973-.592" style="fill:none;stroke:red;stroke-width:.999997;stroke-linecap:round;stroke-linejoin:round;stroke-miterlimit:11.339;stroke-dasharray:none;stroke-opacity:1;visibility:visible"/><path d="M479.976 572.52v.144l-131.285 17.408M236.703 566.307l62.898 23.29M312.603 594.412l20.942 7.756-20.955 36.36M228.166 552.43l.21 11.993.378.899" style="fill:none;stroke:red;stroke-width:1.99999;stroke-linecap:round;stroke-linejoin:round;stroke-miterlimit:11.339;stroke-dasharray:none;stroke-opacity:1;visibility:visible"/><path d="M238.535 552.928c-.524.3-.524.3-1.124.6-.749.223-.749.223-1.5.375-.901.15-.901.15-1.801.223h-1.873c-.827-.074-.827-.074-1.65-.223l-1.35-.45-.899-.601" style="fill:none;stroke:red;stroke-width:.999997;stroke-linecap:round;stroke-linejoin:round;stroke-miterlimit:11.339;stroke-dasharray:none;stroke-opacity:1;visibility:visible"/><path d="m300.715 668.319-.078.221.273 26.54.451.83M301.362 695.91c.523.366.523.366 1.045.67.75.303.75.303 1.578.53.897.151.897.151 1.795.225l1.95.002c.976-.147.976-.147 1.877-.297.75-.303.75-.303 1.574-.596.529-.301.529-.301 1.052-.674M490.879 586.378l.524-.751.077-.152.088-12.217M348.24 604.28l132.815-17.84M347.564 605.707l.678-.904v-.523M311.81 669.081l.6-.824.003-5.024 31.925-56.333M300.502 655.352l.136 12.895M336.676 588.386l-24.345-8.942M299.59 574.763l-60.327-22.173M228.338 552.854l-.3-.755-2.158-110.686M235.92 377.329l3.218 174.923-.603.675M225.88 441.414l-1.379-68.488" style="fill:none;stroke:red;stroke-width:1.99999;stroke-linecap:round;stroke-linejoin:round;stroke-miterlimit:11.339;stroke-dasharray:none;stroke-opacity:1;visibility:visible"/><path d="m312.234 695.77.452-.824-.203-26.611-.072-.148" style="fill:none;stroke:red;stroke-width:1.99999;stroke-linecap:round;stroke-linejoin:round;stroke-miterlimit:11.339;stroke-dasharray:none;stroke-opacity:1;visibility:visible"/><path d="m229.28 565.923-.75-.676-.15-.677M236.922 566.379c-.597.151-.597.151-1.195.224-.904.147-.904.147-1.802.223-.9-.078-.9-.078-1.799-.151-.823-.077-.823-.077-1.573-.305-.678-.224-.678-.224-1.274-.447" style="fill:none;stroke:red;stroke-width:.999997;stroke-linecap:round;stroke-linejoin:round;stroke-miterlimit:11.339;stroke-dasharray:none;stroke-opacity:1;visibility:visible"/><path d="m239.074 590.892.753-.674.148-.748-.425-22.111M228.38 564.57l.5 25.112.15.748.745.68M229.775 591.11c.6.225.6.225 1.202.526l1.648.3c.901.072.901.072 1.801.077l1.8-.148c.824-.222.824-.222 1.576-.375.672-.296.672-.296 1.273-.598" style="fill:none;stroke:red;stroke-width:1.99999;stroke-linecap:round;stroke-linejoin:round;stroke-miterlimit:11.339;stroke-dasharray:none;stroke-opacity:1;visibility:visible"/><path d="m311.611 535.412-.228.678-.902.608M309.34 539.455c-.673.13-.673.13-1.274.333l-.901.136c-.45-.002-.45-.002-.9.063M310.48 536.696c-.68.266-.68.266-1.43.534-.9.198-.9.198-1.8.333-.976.065-.976.065-1.952.064-.975-.003-.975-.003-1.95-.065-.822-.203-.822-.203-1.722-.408-.601-.204-.601-.204-1.276-.475" style="fill:none;stroke:red;stroke-width:.999997;stroke-linecap:round;stroke-linejoin:round;stroke-miterlimit:11.339;stroke-dasharray:none;stroke-opacity:1;visibility:visible"/><path d="m309.34 539.455.227-.068 1.129-.54.301-.268.603-.672.011-2.496-.076-.199-.37-.674-.076-.134-.149-.138-.974-.536-1.421-.406-.148-.068M308.397 533.256c-.828-.069-.828-.069-1.65-.205h-1.802c-.9.064-.9.064-1.727.201l-1.648.398c-.53.27-.605.272-1.13.54M306.265 539.988l-1.876-.001-1.723-.27-.603-.136M305.097 533.115l-.15.001M300.351 536.68l-.67-.672-.075-.676M227.653 326.35l.636.697h1.394l.577-.552M304.267 535.056l.516.532 1.567.026.653-.504" style="fill:none;stroke:red;stroke-width:.999997;stroke-linecap:round;stroke-linejoin:round;stroke-miterlimit:11.339;stroke-dasharray:none;stroke-opacity:1;visibility:visible"/><path d="m300.44 534.191-.152.135-.529.673-.149.132-.003.2-.012 2.496.372.672.378.27.897.539.821.272M335.56 365.369c.523.298.523.298 1.122.597.751.15.751.15 1.498.374.974.073.974.073 1.874.147H342c.9-.147.9-.147 1.798-.224.75-.222.75-.222 1.424-.446l1.048-.598M345.522 248.662l.45-.597M334.212 248.213l.524.523M334.736 248.736c.526.298.526.298 1.125.522.747.224.747.224 1.572.372.899.076.899.076 1.873.15h1.948c.898-.074.898-.074 1.796-.223a11.427 11.427 0 0 0 1.498-.373c.524-.224.524-.224.975-.524" style="fill:none;stroke:red;stroke-width:.999997;stroke-linecap:round;stroke-linejoin:round;stroke-miterlimit:11.339;stroke-dasharray:none;stroke-opacity:1;visibility:visible"/><path d="M345.746 247.466c-.376-.298-.376-.298-.823-.522l-1.35-.447c-.897-.15-.897-.15-1.721-.299-.974 0-.974 0-1.948-.074l-1.948.149-1.648.299c-.673.224-.673.224-1.273.448l-.75.596" style="fill:none;stroke:red;stroke-width:1.99999;stroke-linecap:round;stroke-linejoin:round;stroke-miterlimit:11.339;stroke-dasharray:none;stroke-opacity:1;visibility:visible"/><path d="m335.035 364.773.525.597" style="fill:none;stroke:red;stroke-width:.999997;stroke-linecap:round;stroke-linejoin:round;stroke-miterlimit:11.339;stroke-dasharray:none;stroke-opacity:1;visibility:visible"/><path d="m334.287 247.616-.075.597.824 116.56M346.271 365.22l.373-.596-.673-116.561-.225-.596" style="fill:none;stroke:red;stroke-width:1.99999;stroke-linecap:round;stroke-linejoin:round;stroke-miterlimit:11.339;stroke-dasharray:none;stroke-opacity:1;visibility:visible"/><path d="m494.641 234.516.151-.6M483.257 233.84l.226.525M483.483 234.365l.75.599c.671.225.671.225 1.271.45.899.147.899.147 1.724.299.973.074.973.074 1.872.074.973.001.973.001 1.872-.074.824-.075.824-.075 1.65-.225.67-.224.67-.224 1.27-.45.451-.224.451-.224.749-.524" style="fill:none;stroke:red;stroke-width:.999997;stroke-linecap:round;stroke-linejoin:round;stroke-miterlimit:11.339;stroke-dasharray:none;stroke-opacity:1;visibility:visible"/><path d="m483.707 233.241 1.05-.45a11.227 11.227 0 0 1 1.495-.373l1.801-.151h1.87c.9.076.9.076 1.798.226.824.149.824.149 1.572.373.527.226.527.226 1.05.524" style="fill:none;stroke:red;stroke-width:1.99999;stroke-linecap:round;stroke-linejoin:round;stroke-miterlimit:11.339;stroke-dasharray:none;stroke-opacity:1;visibility:visible"/><path d="M490.373 573.948c-.598.302-.598.302-1.197.527-.825.223-.825.223-1.65.373l-1.794.15-1.8-.15c-.824-.15-.824-.15-1.647-.373-.6-.225-.6-.225-1.2-.527-.149-.074-.149-.074-.225-.148" style="fill:none;stroke:red;stroke-width:.999997;stroke-linecap:round;stroke-linejoin:round;stroke-miterlimit:11.339;stroke-dasharray:none;stroke-opacity:1;visibility:visible"/><path d="m480.113 572.527 3.144-338.687.45-.6" style="fill:none;stroke:red;stroke-width:1.99999;stroke-linecap:round;stroke-linejoin:round;stroke-miterlimit:11.339;stroke-dasharray:none;stroke-opacity:1;visibility:visible"/><path d="m480.86 573.8-.524-.525-.224-.748" style="fill:none;stroke:red;stroke-width:.999997;stroke-linecap:round;stroke-linejoin:round;stroke-miterlimit:11.339;stroke-dasharray:none;stroke-opacity:1;visibility:visible"/><path d="m494.343 233.39.45.524-3.52 338.453" style="fill:none;stroke:red;stroke-width:1.99999;stroke-linecap:round;stroke-linejoin:round;stroke-miterlimit:11.339;stroke-dasharray:none;stroke-opacity:1;visibility:visible"/><path d="M492.67 234.025c0 .633-1.597 1.145-3.572 1.145-1.974 0-3.573-.512-3.573-1.145s1.6-1.145 3.572-1.145c1.975 0 3.574.512 3.574 1.145h-.001M343.795 247.994c0 .639-1.655 1.156-3.697 1.156-2.043 0-3.699-.517-3.699-1.156.001-.638 1.656-1.156 3.699-1.156 2.041 0 3.697.518 3.697 1.156M223.709 329.491l11.309-1.573" style="fill:none;stroke:red;stroke-width:.999997;stroke-linecap:round;stroke-linejoin:round;stroke-miterlimit:11.339;stroke-dasharray:none;stroke-opacity:1;visibility:visible"/><path d="m331.847 365.063 2.257-4.95" style="fill:none;stroke:red;stroke-width:1.99999;stroke-linecap:round;stroke-linejoin:round;stroke-miterlimit:11.339;stroke-dasharray:none;stroke-opacity:1;visibility:visible"/><path d="m331.771 366.635 3.22 7.339" style="fill:none;stroke:red;stroke-width:.999997;stroke-linecap:round;stroke-linejoin:round;stroke-miterlimit:11.339;stroke-dasharray:none;stroke-opacity:1;visibility:visible"/><path d="m331.847 375.098 3.22.3M335.036 364.773l.036 2.952M306.265 539.988l5.061 8.175M302.063 539.581l-2.736 7.35M336.848 596.473l-3.303 5.697" style="fill:none;stroke:red;stroke-width:1.99999;stroke-linecap:round;stroke-linejoin:round;stroke-miterlimit:11.339;stroke-dasharray:none;stroke-opacity:1;visibility:visible"/><path d="m312.331 579.444-12.837-.066M299.494 579.378l12.724 4.688" style="fill:none;stroke:red;stroke-width:.999997;stroke-linecap:round;stroke-linejoin:round;stroke-miterlimit:11.339;stroke-dasharray:none;stroke-opacity:1;visibility:visible"/><path d="m300.502 655.352 11.911 7.883" style="fill:none;stroke:red;stroke-width:1.99999;stroke-linecap:round;stroke-linejoin:round;stroke-miterlimit:11.339;stroke-dasharray:none;stroke-opacity:1;visibility:visible"/><path d="M343.156 594.23h-1.501M312.41 668.108l.236-16.078M347.955 592.889l.224 1.12" style="fill:none;stroke:red;stroke-width:.999997;stroke-linecap:round;stroke-linejoin:round;stroke-miterlimit:11.339;stroke-dasharray:none;stroke-opacity:1;visibility:visible"/><path d="m312.218 584.066-12.617 5.531M299.601 589.597l13.002 4.815M299.494 579.378l12.837.066M312.331 579.444l-12.741-4.681M234.603 565.479l4.947 1.88" style="fill:none;stroke:red;stroke-width:1.99999;stroke-linecap:round;stroke-linejoin:round;stroke-miterlimit:11.339;stroke-dasharray:none;stroke-opacity:1;visibility:visible"/><path d="m312.782 536.43-7.685-3.315M306.265 539.988l-1.318-6.872M224.309 327.917l3.344-1.567M300.351 536.68l3.916-1.624M310.481 536.698l-3.478-1.588" style="fill:none;stroke:red;stroke-width:.999997;stroke-linecap:round;stroke-linejoin:round;stroke-miterlimit:11.339;stroke-dasharray:none;stroke-opacity:1;visibility:visible"/><path d="M485.43 192.197c-1.048 1.499-1.124 1.573-2.246 2.996-1.799 1.497-1.799 1.497-3.671 2.845-2.472 1.35-2.546 1.35-5.093 2.698-3.145 1.197-3.145 1.197-6.365 2.396-3.747 1.05-3.747 1.05-7.565 2.097-4.27.899-4.27.899-8.538 1.723l-7.641 1.05c-.823.148-.823.148-1.723.298-5.018.45-5.018.45-9.961.898-5.243.224-5.243.224-10.41.45-5.317 0-5.317 0-10.559-.075-5.247-.15-5.247-.15-10.488-.45l-10.186-.897c-4.793-.676-4.793-.676-9.586-1.424-4.495-.825-4.495-.825-8.914-1.722-3.97-1.05-3.97-1.05-7.862-2.172-3.446-1.199-3.446-1.199-6.818-2.398l-5.542-2.696c-2.096-1.422-2.096-1.422-4.119-2.92-1.423-1.424-1.423-1.501-2.696-2.998" style="fill:none;stroke:#00ff4a;stroke-width:1.99999;stroke-linecap:round;stroke-linejoin:round;stroke-miterlimit:11.339;stroke-dasharray:none;stroke-opacity:1;visibility:visible" visibility="hidden"/><path d="M344.323 201.11h0M346.946 208.9l1.348 1.124M348.218 201.26l-.75-.674h.3l.226.15.15.15.073.224v.15M348.443 199.688l.075.074-.6-.524M477.64 198.638c-1.124-.824-1.124-.824-2.32-1.648l-3.297-1.797c-1.947-.899-1.947-.899-3.895-1.723-2.246-.823-2.246-.823-4.493-1.57-2.472-.751-2.472-.751-4.945-1.425l-5.391-1.348c-2.92-.524-2.92-.524-5.843-1.124-2.996-.448-2.996-.448-6.065-.898-3.221-.45-3.221-.45-6.367-.825-3.296-.224-3.296-.224-6.59-.524-3.372-.224-3.372-.224-6.742-.373-3.37-.076-3.37-.076-6.816-.151-3.37 0-3.37 0-6.74.075-3.37.076-3.37.076-6.742.225-3.294.224-3.294.224-6.591.524-3.144.3-3.144.3-6.365.599-2.995.45-2.995.45-6.068.9-2.92.524-2.92.524-5.766 1.048l-5.392 1.197-4.944 1.35c-2.248.823-2.248.823-4.42 1.572l-3.894 1.648-3.295 1.797c-1.048.673-1.048.673-2.023 1.423" style="fill:none;stroke:#00ff4a;stroke-width:.999997;stroke-linecap:round;stroke-linejoin:round;stroke-miterlimit:11.339;stroke-dasharray:none;stroke-opacity:1;visibility:visible" visibility="hidden"/><path d="m347.468 200.586-2.696.224M344.772 200.81l.076 3.52-.448-.973" style="fill:none;stroke:#00ff4a;stroke-width:1.99999;stroke-linecap:round;stroke-linejoin:round;stroke-miterlimit:11.339;stroke-dasharray:none;stroke-opacity:1;visibility:visible" visibility="hidden"/><path d="m344.772 200.81-.449.075M344.323 196.166h.3l.524.224.45.45 1.348 1.573M347.543 198.937l-.972-.824M348.218 199.462l-.675-.525 1.35 1.124-.376-.299M344.848 204.33v.6" style="fill:none;stroke:#00ff4a;stroke-width:.999997;stroke-linecap:round;stroke-linejoin:round;stroke-miterlimit:11.339;stroke-dasharray:none;stroke-opacity:1;visibility:visible" visibility="hidden"/><path d="m345.447 191.899-1.197-3.071" style="fill:none;stroke:#00ff4a;stroke-width:1.99999;stroke-linecap:round;stroke-linejoin:round;stroke-miterlimit:11.339;stroke-dasharray:none;stroke-opacity:1;visibility:visible" visibility="hidden"/><path d="m349.342 209.948-1.048.074M349.342 209.948v-8.838l-.15-.524-.3-.525M348.892 194.97l.15-.15" style="fill:none;stroke:#00ff4a;stroke-width:.999997;stroke-linecap:round;stroke-linejoin:round;stroke-miterlimit:11.339;stroke-dasharray:none;stroke-opacity:1;visibility:visible" visibility="hidden"/><path d="m483.632 183.884 1.648 2.172.599 2.321M483.632 183.884c-.3-.375-.3-.375-.599-.824-.373-.375-.373-.375-.823-.675-1.425-1.122-1.425-1.122-2.847-2.17-2.547-1.35-2.547-1.35-5.019-2.698-3.144-1.272-3.144-1.272-6.29-2.47-3.672-1.124-3.672-1.124-7.341-2.172-4.118-.975-4.118-.9-8.238-1.8-4.492-.822-4.492-.822-8.986-1.495-4.795-.601-4.795-.601-9.589-1.125-5.018-.375-5.018-.375-10.036-.675-5.018-.149-5.018-.149-10.11-.224l-10.112.15c-4.943.301-4.943.301-9.887.674-4.793.45-4.793.45-9.512.973-4.419.75-4.419.75-8.839 1.423-3.968.9-3.968.9-8.013 1.799-3.52 1.048-3.52 1.048-7.04 2.172-2.996 1.197-2.996 1.197-5.917 2.47-2.396 1.275-2.396 1.275-4.719 2.623-1.648 1.423-1.648 1.423-3.295 2.92-.974 1.424-.974 1.424-1.798 2.996M344.848 206.578c.75.9.75.9 1.498 1.723l.6.599c.298.374.298.374.597.824 1.575 1.424 1.575 1.424 3.072 2.77 1.499 1.05 1.499 1.05 2.996 2.024 1.873.974 1.873.974 3.67 1.872 2.17.9 2.17.9 4.269 1.798.45.15.45.15.825.3l4.792 1.646 5.393 1.5c2.846.597 2.846.597 5.767 1.271 3.07.601 3.07.601 6.216 1.125l6.592.898c3.37.374 3.37.374 6.815.75l7.04.447 7.116.301h7.114c3.598-.074 3.598-.074 7.116-.15l7.04-.448 6.742-.6c3.296-.375 3.296-.375 6.517-.824l6.14-1.048c2.847-.6 2.847-.6 5.768-1.199 2.62-.675 2.62-.675 5.243-1.423 2.32-.749 2.32-.749 4.718-1.573.373-.15.373-.15.823-.3 2.098-.824 2.098-.824 4.196-1.723 1.721-.897 1.721-.897 3.52-1.872 1.497-.898 1.422-.898 2.92-1.946.374-.3.374-.3.75-.675 1.121-.973 1.121-.973 2.245-2.023.751-1.048.751-1.048 1.422-2.097.301-.524.301-.524.527-.973.45-1.048.45-1.048.748-2.172.15-.524.15-.524.224-1.048.151-7.566.151-7.64.225-15.204-.073-.375-.073-.375-.224-.75M344.323 200.885c.077 1.197.077 1.197.077 2.472.072.524.15.524.223 1.048.075.3.075.3.225.525M344.623 185.756l-.373 3.07.073 7.341-.299-.075M344.848 204.93v1.646" style="fill:none;stroke:#00ff4a;stroke-width:1.99999;stroke-linecap:round;stroke-linejoin:round;stroke-miterlimit:11.339;stroke-dasharray:none;stroke-opacity:1;visibility:visible" visibility="hidden"/><path d="m348.218 201.26-1.272 7.64M348.517 199.762l-.299 1.498M344.772 200.81l3.445.45" style="fill:none;stroke:#00ff4a;stroke-width:.999997;stroke-linecap:round;stroke-linejoin:round;stroke-miterlimit:11.339;stroke-dasharray:none;stroke-opacity:1;visibility:visible" visibility="hidden"/><path d="m344.323 200.885 3.145-.299M345.447 191.899l-1.047 11.458" style="fill:none;stroke:#00ff4a;stroke-width:1.99999;stroke-linecap:round;stroke-linejoin:round;stroke-miterlimit:11.339;stroke-dasharray:none;stroke-opacity:1;visibility:visible" visibility="hidden"/><path d="m347.955 592.889-3.079 2.542M306.265 539.988l-6.659-4.656" style="fill:none;stroke:red;stroke-width:.999997;stroke-linecap:round;stroke-linejoin:round;stroke-miterlimit:11.339;stroke-dasharray:none;stroke-opacity:1;visibility:visible"/></svg>