<svg xmlns="http://www.w3.org/2000/svg" baseProfile="full" height="793.701" preserveAspectRatio="xMinYMin meet" style="width:919px;height:1159px" width="559.371" xml:space="preserve"><path d="m300.5 198.476.459-.608M288.873 197.944l.53.532M289.403 198.476c.608.304.608.304 1.14.532.837.152.837.152 1.598.304.986.152.986.152 1.976.228h.683c.685 0 .685 0 1.293-.076l1.824-.152c.76-.152.837-.152 1.596-.38.456-.228.456-.228.987-.456" style="fill:none;stroke:red;stroke-width:.999997;stroke-linecap:round;stroke-linejoin:round;stroke-miterlimit:11.339;stroke-dasharray:none;stroke-opacity:1;visibility:visible" visibility="hidden"/><path d="m289.023 197.336-.15.608.91 120.785M301.26 319.26l.38-.606-.184-32.714M301.34 265.302l-.383-67.432-.229-.533M289.783 318.729l.532.608M300.729 197.336c-.456-.304-.456-.304-.836-.532-.684-.228-.76-.228-1.444-.456-.836-.152-.836-.152-1.749-.228l-1.977-.152-1.973.152-1.675.304c-.684.152-.684.152-1.368.38-.38.304-.38.304-.684.532M290.317 319.337c.53.303.53.303 1.138.532.762.228.762.228 1.522.38.988.076.988.076 1.9.228.988 0 .988 0 1.976-.077.913-.075.913-.075 1.825-.227.76-.153.76-.153 1.52-.38.532-.228.532-.228 1.064-.533" style="fill:none;stroke:red;stroke-width:1.99999;stroke-linecap:round;stroke-linejoin:round;stroke-miterlimit:11.339;stroke-dasharray:none;stroke-opacity:1;visibility:visible" visibility="hidden"/><path d="M298.549 197.81c0 .55-1.651 1-3.689 1-2.035 0-3.686-.45-3.686-1 0-.554 1.65-1 3.686-1s3.689.446 3.689 1" style="fill:none;stroke:red;stroke-width:.999997;stroke-linecap:round;stroke-linejoin:round;stroke-miterlimit:11.339;stroke-dasharray:none;stroke-opacity:1;visibility:visible" visibility="hidden"/><path d="M186.104 320.984c-.61-.152-.61-.152-1.294-.38-.836-.076-.836-.076-1.596-.152-.912-.076-.912-.076-1.75-.076-.834.076-.834.076-1.669.228-.762.152-.762.152-1.445.304M186.636 323.873l.912-.533.228-.683M176.22 322.58l.078.61.302.303.306.304M176.906 323.796l1.216.456c.836.228.836.228 1.596.38.988 0 .988 0 1.9.077.914 0 .988 0 1.9-.077.838-.152.914-.152 1.75-.304l1.368-.456M300.502 363.323c-.53.304-.53.304-.987.532l-1.521.456c-.836.076-.836.076-1.748.229h-1.826l-1.823-.153c-.76-.227-.76-.227-1.52-.38-2.279-.684-2.279-.76-4.559-1.444l-.155-.076M285.223 371.382c0-4.256 0-4.256-.076-8.59 0-.15 0-.15.076-.379l.152-.455" style="fill:none;stroke:#00ff4a;stroke-width:.999997;stroke-linecap:round;stroke-linejoin:round;stroke-miterlimit:11.339;stroke-dasharray:none;stroke-opacity:1;visibility:visible" visibility="hidden"/><path d="m178.35 320.908-.152.076-1.064.456-.152.152-.608.608-.077.152-.077.228v2.66M187.776 323.796v-1.292l-.456-.836-.152-.076-.914-.532-.15-.076" style="fill:none;stroke:#00ff4a;stroke-width:.999997;stroke-linecap:round;stroke-linejoin:round;stroke-miterlimit:11.339;stroke-dasharray:none;stroke-opacity:1;visibility:visible" visibility="hidden"/><path d="M168.316 345.613a109.4 109.4 0 0 0 2.812 3.344l4.257 3.193c2.812 1.444 2.812 1.444 5.7 2.888 3.423 1.368 3.423 1.368 6.919 2.584 3.95 1.216 3.95 1.216 7.98 2.281 4.409.912 4.409.912 8.894 1.748 4.864.76 4.864.76 9.653 1.369 5.092.455 5.092.455 10.187.835l10.49.305c5.244-.077 5.244-.077 10.488-.229l10.338-.76c5.017-.608 5.017-.608 9.959-1.216 4.636-.835 4.636-.835 9.273-1.748 4.181-1.065 4.181-1.065 8.437-2.129 3.727-1.216 3.727-1.292 7.374-2.584l1.063-.456" style="fill:none;stroke:#00ff4a;stroke-width:1.99999;stroke-linecap:round;stroke-linejoin:round;stroke-miterlimit:11.339;stroke-dasharray:none;stroke-opacity:1;visibility:visible" visibility="hidden"/><path d="m297.994 361.803-.456.304c-.38.153-.38.153-.76.228l-.912.152h-1.673c-.153-.076-.153-.076-.303-.076-.38-.076-.38-.076-.836-.151l-.61-.305M301.795 349.413c-.532-.533-.532-.608-1.064-1.14l-2.737-2.128c-1.596-.988-1.596-.988-3.268-1.978-1.976-.987-1.976-.987-3.953-1.9l-4.408-1.672c-2.508-.835-2.508-.835-4.94-1.595-2.738-.685-2.738-.685-5.398-1.369-2.889-.608-2.889-.608-5.777-1.14-3.04-.531-3.04-.531-6.081-.989l-6.386-.76c-3.268-.228-3.268-.228-6.536-.532-3.345-.152-3.345-.152-6.69-.228-3.42-.076-3.42-.076-6.767-.076h-1.67l-5.17.152-6.688.456-6.537.608c-3.192.458-3.192.38-6.386.838l-6.079 1.063c-2.89.684-2.89.684-5.778 1.292-2.66.76-2.66.76-5.397 1.52-2.432.76-2.432.76-4.941 1.596l-4.41 1.824c-1.9.99-1.974.99-3.876 1.978-1.672.987-1.672.987-3.268 2.052-1.37 1.064-1.37 1.14-2.66 2.204-.532.531-.532.531-.99 1.064" style="fill:none;stroke:#00ff4a;stroke-width:.999997;stroke-linecap:round;stroke-linejoin:round;stroke-miterlimit:11.339;stroke-dasharray:none;stroke-opacity:1;visibility:visible" visibility="hidden"/><path d="M307.875 342.8c-.988 1.748-.988 1.748-2.052 3.42-1.75 1.674-1.75 1.674-3.573 3.346-2.052 1.367-2.052 1.367-4.256 2.659" style="fill:none;stroke:#00ff4a;stroke-width:1.99999;stroke-linecap:round;stroke-linejoin:round;stroke-miterlimit:11.339;stroke-dasharray:none;stroke-opacity:1;visibility:visible" visibility="hidden"/><path d="m286.365 362.487-.151.076-.154.077-.075.227v.228M286.06 371.685l-.836-.305M301.035 361.727v.988l-.532.608M285.375 361.955l.306-.304.379-.151" style="fill:none;stroke:#00ff4a;stroke-width:.999997;stroke-linecap:round;stroke-linejoin:round;stroke-miterlimit:11.339;stroke-dasharray:none;stroke-opacity:1;visibility:visible" visibility="hidden"/><path d="m186.56 324.253-3.498 1.292M178.216 327.913l2.946-1.455M167.025 342.115l1.292 3.498" style="fill:none;stroke:#00ff4a;stroke-width:1.99999;stroke-linecap:round;stroke-linejoin:round;stroke-miterlimit:11.339;stroke-dasharray:none;stroke-opacity:1;visibility:visible" visibility="hidden"/><path d="m292.445 361.955-.305-.304v-.38h.077M297.92 361.043l.074.077.153.38-.152.303M292.217 359.218l-2.28.912-3.877 1.368M285.983 363.095l1.067-.38M286.06 371.685l3.194-1.14" style="fill:none;stroke:#00ff4a;stroke-width:.999997;stroke-linecap:round;stroke-linejoin:round;stroke-miterlimit:11.339;stroke-dasharray:none;stroke-opacity:1;visibility:visible" visibility="hidden"/><path d="m301.035 361.727-.075-.684-.609-.532-1.14-.533-1.216-.378" style="fill:none;stroke:#00ff4a;stroke-width:1.99999;stroke-linecap:round;stroke-linejoin:round;stroke-miterlimit:11.339;stroke-dasharray:none;stroke-opacity:1;visibility:visible" visibility="hidden"/><path d="m308.483 339.303-.608 3.497" style="fill:none;stroke:#00ff4a;stroke-width:.999997;stroke-linecap:round;stroke-linejoin:round;stroke-miterlimit:11.339;stroke-dasharray:none;stroke-opacity:1;visibility:visible" visibility="hidden"/><path d="M307.495 335.883c-1.138-1.672-1.138-1.749-2.355-3.345l-3.8-3.192c-2.586-1.52-2.586-1.52-5.17-2.888-3.115-1.37-3.115-1.37-6.308-2.661-3.727-1.217-3.727-1.217-7.375-2.28-4.181-.988-4.181-.988-8.36-1.9-4.486-.837-4.486-.837-9.047-1.52-4.789-.533-4.789-.533-9.578-.99-5.016-.302-5.016-.302-10.033-.529-5.016-.078-5.016-.078-10.11-.078-5.017.152-5.017.152-10.111.38-4.939.457-4.939.457-9.805.989-4.712.608-4.712.608-9.425 1.368-4.41.836-4.41.836-8.741 1.823-4.03 1.065-3.953 1.065-7.981 2.205l-1.826.608c-.454.152-.454.152-.91.38M301.035 365.68c.76-.61.76-.61 1.522-1.14.378-.306.378-.306.758-.686l2.206-2.354c.759-1.218.759-1.218 1.442-2.434.307-.456.307-.456.534-.912l.76-2.432.152-1.064M167.176 338.62l-.151 3.496c.075 5.701.075 5.701.228 11.478 0 1.216 0 1.216.075 2.432l.152 1.065c.456 1.216.456 1.216.836 2.509l.609.911c.76 1.14.76 1.216 1.52 2.356 1.14 1.216 1.14 1.216 2.355 2.358l.76.608c1.522 1.14 1.445 1.14 2.966 2.204l3.648 2.128c2.13.988 2.13.988 4.334 1.9 2.356.913 2.432.913 4.864 1.825 2.964.912 2.964.912 6.005 1.748 2.888.76 2.963.76 5.853 1.368 3.04.608 3.04.608 6.156 1.216l6.539.912c3.42.304 3.42.304 6.84.684 3.495.228 3.495.228 6.993.381 3.572.151 3.572.151 7.07.227 3.572-.076 3.572-.076 7.144-.076 3.573-.15 3.573-.15 7.146-.38 3.496-.228 3.496-.228 6.917-.532 3.42-.456 3.42-.456 6.766-.836l6.537-1.064c3.039-.684 3.039-.684 6.081-1.292 2.888-.76 2.888-.76 5.701-1.52 3.04-.912 3.04-.912 6.005-1.901 1.064-.38 1.064-.38 2.204-.836M178.122 327.977c-.76.38-.836.38-1.521.76-2.281 1.52-2.356 1.52-4.561 3.117-1.595 1.596-1.595 1.672-3.191 3.344-.837 1.672-.913 1.672-1.673 3.42M308.409 352.15h0" style="fill:none;stroke:#00ff4a;stroke-width:1.99999;stroke-linecap:round;stroke-linejoin:round;stroke-miterlimit:11.339;stroke-dasharray:none;stroke-opacity:1;visibility:visible" visibility="hidden"/><path d="M176.297 325.393v1.521l.61.532 1.214.53" style="fill:none;stroke:#00ff4a;stroke-width:.999997;stroke-linecap:round;stroke-linejoin:round;stroke-miterlimit:11.339;stroke-dasharray:none;stroke-opacity:1;visibility:visible" visibility="hidden"/><path d="M349.392 507.518c-1.07 1.97-1.069 2.046-2.22 3.941-1.83 1.892-1.832 1.97-3.74 3.784-2.592 1.817-2.592 1.817-5.188 3.552-3.202 1.663-3.277 1.664-6.477 3.247-3.887 1.506-3.887 1.506-7.697 2.861-4.347 1.277-4.347 1.277-8.763 2.403-4.722 1.049-4.722 1.049-9.522 1.949-5.103.744-5.103.744-10.208 1.336-5.254.441-5.254.441-10.507.805-5.407.139-5.407.139-10.813.198-5.33-.166-5.33-.166-10.659-.41-5.177-.472-5.177-.472-10.352-1.016-4.87-.772-4.87-.772-9.741-1.621-4.566-1-4.566-1-9.055-2.15-4.03-1.226-4.03-1.226-8.063-2.604-3.497-1.45-3.497-1.45-6.922-3.053-2.808-1.68-2.808-1.68-5.623-3.357-2.127-1.828-2.127-1.828-4.179-3.727-1.44-1.906-1.44-1.906-2.729-3.882M290.12 477.223l-.787-113.022M301.035 362.715l.73 114.905-.075.678M308.409 354.658l.076-15.355-.99-3.42M183.062 325.545l-.684.304-1.216.608" style="fill:none;stroke:#00ff4a;stroke-width:1.99999;stroke-linecap:round;stroke-linejoin:round;stroke-miterlimit:11.339;stroke-dasharray:none;stroke-opacity:1;visibility:visible" visibility="hidden"/><path d="M266.78 537.038c.004-.23.004-.23-.076-.38l.002-.076M267.06 545.234c.013-4.324.013-4.324-.052-8.651.001-.303.001-.303.005-.532-.079-.227-.079-.227-.078-.379M253.45 539.503c.456.381.456.381.987.61.686.305.686.305 1.449.534.91.157.91.157 1.75.235.986.004.986.004 1.897.08.994-.15.994-.15 1.908-.218.838-.23.838-.23 1.599-.381.686-.3.686-.3 1.298-.6M211.87 514.646c.993-1.288.993-1.364 2.063-2.576 1.374-1.286 1.374-1.286 2.747-2.496 1.755-1.21 1.755-1.21 3.433-2.422a70.346 70.346 0 0 1 4.042-2.186c2.21-1.058 2.21-1.058 4.5-2.114 2.586-.902 2.586-.902 5.102-1.806 2.744-.904 2.744-.904 5.488-1.734 3.045-.748 3.045-.748 6.095-1.42l6.093-1.201c3.276-.52 3.276-.52 6.474-.966 3.351-.373 3.351-.373 6.703-.739 3.428-.218 3.428-.218 6.852-.44 3.503-.063 3.503-.063 6.93-.13 3.424.01 3.424.01 6.928.096 3.426.162 3.426.162 6.774.324 3.276.31 3.276.31 6.55.624 3.268.39 3.268.39 6.619.854 3.12.616 3.12.616 6.24 1.154 2.891.692 2.891.692 5.857 1.38 2.74.772 2.74.772 5.403 1.612 2.51.842 2.51.842 5.023 1.758 2.28.996 2.28.996 4.484 1.986 1.978 1.07 2.053 1.07 3.954 2.216 1.671 1.146 1.745 1.144 3.344 2.283l2.735 2.439c1.06 1.217 1.061 1.292 2.047 2.512" style="fill:none;stroke:#00ff4a;stroke-width:.999997;stroke-linecap:round;stroke-linejoin:round;stroke-miterlimit:11.339;stroke-dasharray:none;stroke-opacity:1;visibility:visible" visibility="hidden"/><path d="m206.934 509.774-1.21-3.95M350.163 503.496l-.77 4.022M299.373 477.932c-1.14-.157-1.14-.157-2.283-.309-1.22-.157-1.22-.157-2.51-.237-1.832-.079-1.832-.079-3.658-.238" style="fill:none;stroke:#00ff4a;stroke-width:1.99999;stroke-linecap:round;stroke-linejoin:round;stroke-miterlimit:11.339;stroke-dasharray:none;stroke-opacity:1;visibility:visible" visibility="hidden"/><path d="m253.454 538.515-.456-.759.077-.305M265.26 535.308l1.526.136-.076.002M302.193 477.711l-.08.53h.076M299.145 477.475l.154.152.074.304M266.78 537.038l-.454-.078M266.706 536.582h-.079l-.076-.003-1.53 2.5M267.06 545.234l-.227.456-1.596-.156M266.935 535.671l-.15-.228M264.338 539.763l.684-.684" style="fill:none;stroke:#00ff4a;stroke-width:.999997;stroke-linecap:round;stroke-linejoin:round;stroke-miterlimit:11.339;stroke-dasharray:none;stroke-opacity:1;visibility:visible" visibility="hidden"/><path d="m253 537.758-.006 1.06.457.685" style="fill:none;stroke:#00ff4a;stroke-width:.999997;stroke-linecap:round;stroke-linejoin:round;stroke-miterlimit:11.339;stroke-dasharray:none;stroke-opacity:1;visibility:visible" visibility="hidden"/><path d="m265.5 545.662.78 109.694M254.083 656.464l-.892-118.046M290.853 547.623l.285 44.115M302.623 591.6l-.236-45.376M349.338 499.551c.45 1.972.45 1.972.825 3.945-.017 6.304-.017 6.304-.11 12.602-.003 1.441-.003 1.441-.083 2.808l-.158 1.061c-.38 1.443-.38 1.443-.84 2.807-.997 1.893-.997 1.893-2.067 3.712-1.143 1.364-1.143 1.364-2.369 2.726-1.45 1.283-1.529 1.284-2.976 2.568-.38.303-.38.303-.76.61-1.834 1.282-1.834 1.282-3.663 2.492-2.133 1.133-2.133 1.133-4.347 2.262-2.436 1.136-2.436 1.136-4.877 2.19-2.744.976-2.744.976-5.487 1.88-2.973.905-2.973.905-5.941 1.729-3.432.827-3.432.827-6.858 1.577l-6.704 1.195c-3.428.521-3.428.521-6.857.965-3.577.296-3.577.296-7.156.59-3.656.217-3.656.217-7.233.357-3.657.068-3.657.068-7.311.056-3.655-.085-3.655-.085-7.23-.248-.919-.005-.919-.005-1.904-.081M302.189 478.242c2.36.31 2.36.31 4.64.62 4.57.848 4.647.846 9.209 1.77a351.365 351.365 0 0 1 8.372 2.221 316.047 316.047 0 0 1 7.455 2.682 435.12 435.12 0 0 1 6.31 3.056c2.585 1.675 2.585 1.675 5.09 3.43 1.978 1.821 1.978 1.821 3.799 3.65 1.211 1.901 1.211 1.901 2.274 3.879M206.117 501.804c-.234 1.971-.234 1.971-.392 4.02l.268 14.117c.074.533.074.533.224 1.063.376 1.443.301 1.442.757 2.81.757 1.446.757 1.446 1.592 2.81.224.459.224.459.53.912 1.137 1.296 1.134 1.372 2.274 2.667l3.04 2.59c.377.301.377.301.756.609a112.572 112.572 0 0 0 3.652 2.364 216.942 216.942 0 0 0 4.333 2.288c2.439 1.068 2.439 1.068 4.942 2.062 2.741.922 2.741.922 5.477 1.838 2.97.845 2.97.845 5.937 1.61 3.423.768 3.423.768 6.923 1.462 3.273.612 3.273.612 6.621 1.078M290.923 477.147c-1.976-.08-1.976-.08-3.957-.239-5.176-.088-5.176-.088-10.356-.104-5.176.211-5.176.211-10.277.427-5.104.439-5.104.439-10.131.957-4.8.742-4.8.742-9.597 1.564-4.57.974-4.57.974-9.067 2.028-4.115 1.203-4.115 1.203-8.152 2.482-3.656 1.43-3.656 1.43-7.24 2.938-3.05 1.583-3.05 1.583-6.024 3.246-2.442 1.737-2.442 1.737-4.728 3.632-1.757 1.817-1.757 1.817-3.441 3.784-.993 1.894-.994 1.97-1.835 3.942M302.113 478.24l-2.743-.308" style="fill:none;stroke:#00ff4a;stroke-width:1.99999;stroke-linecap:round;stroke-linejoin:round;stroke-miterlimit:11.339;stroke-dasharray:none;stroke-opacity:1;visibility:visible" visibility="hidden"/><path d="m448.096 585.528-.461.763M265.449 538.804l.05 6.856" style="fill:none;stroke:#00ff4a;stroke-width:.999997;stroke-linecap:round;stroke-linejoin:round;stroke-miterlimit:11.339;stroke-dasharray:none;stroke-opacity:1;visibility:visible" visibility="hidden"/><path d="m437.034 611.845-.455-.682.251-24.88M448.019 585.304l.079.226-.328 25.645-.458.762M447.312 611.936c-.462.305-.461.379-.992.604-.758.304-.758.304-1.45.535-.91.072-.91.072-1.82.222-.918 0-.918 0-1.83-.002-.834-.155-.912-.152-1.75-.306-.76-.228-.76-.228-1.448-.458-.534-.304-.534-.304-.988-.686" style="fill:none;stroke:#00ff4a;stroke-width:1.99999;stroke-linecap:round;stroke-linejoin:round;stroke-miterlimit:11.339;stroke-dasharray:none;stroke-opacity:1;visibility:visible" visibility="hidden"/><path d="m181.036 563.859.308.761M439.124 574.495c.383.147.383.147.763.224.916.151.916.151 1.827.233.912.072.912.072 1.828.002.913-.08.913-.08 1.75-.231.76-.22.76-.22 1.443-.453.535-.302.535-.302 1.068-.606M297.541 594.114l-1.834.003c-.833-.155-.833-.155-1.75-.311-.15.003-.15.003-.379-.076-.231 0-.231 0-.381-.076-.152.075-.152.075-.23.076M297.54 594.115c.984-.15.984-.15 1.896-.227.841-.225.841-.225 1.604-.53l1.067-.605M254.623 657.07c.459.305.459.305.991.686.76.229.76.229 1.521.536.911.15.911.15 1.825.228l1.978.003c.99-.075.99-.075 1.981-.227.762-.224.762-.224 1.598-.532.606-.299.606-.299 1.141-.683" style="fill:none;stroke:#00ff4a;stroke-width:.999997;stroke-linecap:round;stroke-linejoin:round;stroke-miterlimit:11.339;stroke-dasharray:none;stroke-opacity:1;visibility:visible" visibility="hidden"/><path d="m290.84 596.847-3.055 5.325" style="fill:none;stroke:#00ff4a;stroke-width:1.99999;stroke-linecap:round;stroke-linejoin:round;stroke-miterlimit:11.339;stroke-dasharray:none;stroke-opacity:1;visibility:visible" visibility="hidden"/><path d="m187.354 564.93-.218-10.273.3.153 65.786 24.229M266.137 583.798l24.703 9.094" style="fill:none;stroke:#00ff4a;stroke-width:.999997;stroke-linecap:round;stroke-linejoin:round;stroke-miterlimit:11.339;stroke-dasharray:none;stroke-opacity:1;visibility:visible" visibility="hidden"/><path d="m189.256 565.694-1.902-.762" style="fill:none;stroke:#00ff4a;stroke-width:1.99999;stroke-linecap:round;stroke-linejoin:round;stroke-miterlimit:11.339;stroke-dasharray:none;stroke-opacity:1;visibility:visible" visibility="hidden"/><path d="m254.245 656.233.378.837M265.8 669.939l.532-.835M254.38 669.09l.383.836M192.008 551.848l.077-.001M191.857 551.77l.077.078.074.002.077-.156M187.897 553.44l.079.076.302-.226.456-.078M291.529 590.992l-.082.15M189.256 565.694l.232.078M187.316 553.876l-.18.78M181.125 552.37l-.305-.685" style="fill:none;stroke:#00ff4a;stroke-width:.999997;stroke-linecap:round;stroke-linejoin:round;stroke-miterlimit:11.339;stroke-dasharray:none;stroke-opacity:1;visibility:visible" visibility="hidden"/><path d="m266.27 656.244.065 7.913" style="fill:none;stroke:#00ff4a;stroke-width:1.99999;stroke-linecap:round;stroke-linejoin:round;stroke-miterlimit:11.339;stroke-dasharray:none;stroke-opacity:1;visibility:visible" visibility="hidden"/><path d="m291.287 596.145-.147.247.005-4.182M296.017 594.115h1.525M302.107 592.755l.53-.687-.075.378h-.155l.076.158-.15.528.305.002v.758l136.945-18.261-.079-.532M302.167 605.537l.535-.765M266.571 652.784l32.716-57.45.064 10.501-.46.915M265.658 657.08l.612-.836" style="fill:none;stroke:#00ff4a;stroke-width:.999997;stroke-linecap:round;stroke-linejoin:round;stroke-miterlimit:11.339;stroke-dasharray:none;stroke-opacity:1;visibility:visible" visibility="hidden"/><path d="M292.969 593.73v-.074l-.38.3-1.301 2.19" style="fill:none;stroke:#00ff4a;stroke-width:1.99999;stroke-linecap:round;stroke-linejoin:round;stroke-miterlimit:11.339;stroke-dasharray:none;stroke-opacity:1;visibility:visible" visibility="hidden"/><path d="M291.51 592.59s.232.742 1.459 1.14" style="fill:none;stroke:#00ff4a;stroke-width:.999997;stroke-linecap:round;stroke-linejoin:round;stroke-miterlimit:11.339;stroke-dasharray:none;stroke-opacity:1;visibility:visible" visibility="hidden"/><path d="m291.14 596.392-.303.455" style="fill:none;stroke:#00ff4a;stroke-width:1.99999;stroke-linecap:round;stroke-linejoin:round;stroke-miterlimit:11.339;stroke-dasharray:none;stroke-opacity:1;visibility:visible" visibility="hidden"/><path d="M254.38 669.244c.154.377.154.377.384.759l.149.156c.456.381.456.381.992.686.678.305.678.305 1.445.536.91.152.91.152 1.828.224.913.08.913.08 1.899.002.913-.072.913-.072 1.829-.219.836-.232.836-.232 1.596-.536.61-.303.61-.303 1.221-.761M448.108 572.219l.078.608M437.15 572.128h0M437.074 572.204l-.08.456M438.364 573.88l.534.38.152.002M447.803 573.664l.455-.684M437.595 586.204l.15-.074M437.746 586.13l1.672-.225.166-10.273M448.098 585.228l-.46.684M302.407 592.446l.004.306M438.364 573.88l-.456-.23-.682-.53-.306-.611v-.226l.078-.153h.076v.38M302.473 604.088l.23.228-.063-10.424M298.893 606.75l-.153.225M297.765 594.12l.532-.003.303.08.457.299.153.08-.08.075.08.304.077.378M291.447 591.143l-.073.077-.23.755" style="fill:none;stroke:#00ff4a;stroke-width:.999997;stroke-linecap:round;stroke-linejoin:round;stroke-miterlimit:11.339;stroke-dasharray:none;stroke-opacity:1;visibility:visible" visibility="hidden"/><path d="M298.74 606.975c.38-.07.38-.07.76-.15.69-.225.69-.225 1.448-.455l1.067-.607" style="fill:none;stroke:#00ff4a;stroke-width:1.99999;stroke-linecap:round;stroke-linejoin:round;stroke-miterlimit:11.339;stroke-dasharray:none;stroke-opacity:1;visibility:visible" visibility="hidden"/><path d="M437.516 586.206c.456.304.456.304.912.534.684.228.684.228 1.45.458.83.152.83.152 1.668.228l1.829.004c.835-.078.835-.078 1.752-.223l1.37-.461c.533-.303.533-.303.989-.603" style="fill:none;stroke:#00ff4a;stroke-width:.999997;stroke-linecap:round;stroke-linejoin:round;stroke-miterlimit:11.339;stroke-dasharray:none;stroke-opacity:1;visibility:visible" visibility="hidden"/><path d="m439.814 570.61-.61.08-1.218.53-.838.76v.149L303.16 589.896M189.486 565.77l63.844 23.643M266.529 594.3l21.256 7.872-21.27 36.908M180.82 551.686l.214 12.173.382.911" style="fill:none;stroke:#00ff4a;stroke-width:1.99999;stroke-linecap:round;stroke-linejoin:round;stroke-miterlimit:11.339;stroke-dasharray:none;stroke-opacity:1;visibility:visible" visibility="hidden"/><path d="M191.346 552.192c-.53.304-.53.304-1.14.61-.762.225-.762.225-1.524.378-.914.152-.914.152-1.826.228h-1.903c-.837-.076-.837-.076-1.676-.228l-1.368-.458-.915-.607" style="fill:none;stroke:#00ff4a;stroke-width:.999997;stroke-linecap:round;stroke-linejoin:round;stroke-miterlimit:11.339;stroke-dasharray:none;stroke-opacity:1;visibility:visible" visibility="hidden"/><path d="m254.46 669.319-.08.224.28 26.94.459.84M255.12 697.323c.528.376.528.376 1.06.682.763.308.763.308 1.6.538.914.152.914.152 1.826.229l1.977.003c.991-.152.991-.152 1.904-.306.763-.304.763-.304 1.6-.602.535-.307.535-.307 1.067-.684M447.486 586.143l.53-.763.082-.153.086-12.4-.15-.839-.836-.686-1.222-.534-.608-.153M302.703 604.316l134.813-18.11M302.015 605.763l.688-.916v-.53M265.723 670.09l.61-.833.002-5.1 32.405-57.182M254.245 656.156l.137 13.088M290.963 588.184l-24.71-9.077M253.32 574.355l-61.236-22.507M180.994 552.115l-.304-.765-2.19-112.351M188.693 373.95l3.264 177.556-.61.684M178.5 438.998l-1.4-69.519" style="fill:none;stroke:#00ff4a;stroke-width:1.99999;stroke-linecap:round;stroke-linejoin:round;stroke-miterlimit:11.339;stroke-dasharray:none;stroke-opacity:1;visibility:visible" visibility="hidden"/><path d="m266.153 697.181.457-.838-.205-27.011-.072-.15" style="fill:none;stroke:#00ff4a;stroke-width:1.99999;stroke-linecap:round;stroke-linejoin:round;stroke-miterlimit:11.339;stroke-dasharray:none;stroke-opacity:1;visibility:visible" visibility="hidden"/><path d="m181.95 565.382-.76-.686-.154-.685M189.708 565.846c-.606.152-.606.152-1.212.226-.92.15-.92.15-1.83.228-.914-.08-.914-.08-1.825-.154-.836-.08-.836-.08-1.599-.308-.686-.23-.686-.23-1.292-.458" style="fill:none;stroke:#00ff4a;stroke-width:.999997;stroke-linecap:round;stroke-linejoin:round;stroke-miterlimit:11.339;stroke-dasharray:none;stroke-opacity:1;visibility:visible" visibility="hidden"/><path d="m191.893 590.728.765-.686.15-.756-.431-22.446M181.037 564.008l.508 25.49.153.76.756.689M182.454 590.948c.608.227.608.227 1.22.53l1.672.31c.914.072.914.072 1.828.076.918-.073.918-.073 1.827-.15.836-.226.836-.226 1.599-.381.684-.3.684-.3 1.293-.604" style="fill:none;stroke:#00ff4a;stroke-width:1.99999;stroke-linecap:round;stroke-linejoin:round;stroke-miterlimit:11.339;stroke-dasharray:none;stroke-opacity:1;visibility:visible" visibility="hidden"/><path d="M445.382 565.943c-.007.59-1.172 1.067-2.6 1.067-1.439 0-2.597-.483-2.594-1.072-.004-.588 1.159-1.062 2.595-1.06 1.43.001 2.597.478 2.599 1.066v-.001" style="fill:none;stroke:#00ff4a;stroke-width:.999997;stroke-linecap:round;stroke-linejoin:round;stroke-miterlimit:11.339;stroke-dasharray:none;stroke-opacity:1;visibility:visible" visibility="hidden"/><path d="M439.95 566.75s-.482.679.52 1.243c1.01.562 3.726.683 4.693.042.971-.641.269-.983.269-.983M439.91 570.084s-.483.679.523 1.24c1.002.566 3.721.684 4.689.046.968-.64.273-.987.273-.987" style="fill:none;stroke:#00ff4a;stroke-width:.999997;stroke-linecap:round;stroke-linejoin:round;stroke-miterlimit:11.339;stroke-dasharray:none;stroke-opacity:1;visibility:visible" visibility="hidden"/><path d="M439.932 568.304s-.482.676.522 1.238c1.004.566 3.72.68 4.688.045.972-.64.276-.988.276-.988M265.52 534.412l-.232.688-.915.616M263.215 538.515c-.685.133-.685.133-1.294.337l-.914.139c-.456-.003-.456-.003-.913.064M264.373 535.715c-.691.27-.691.27-1.453.541-.911.202-.911.202-1.826.339-.99.067-.99.067-1.981.065-.99-.002-.99-.002-1.979-.066-.837-.207-.837-.207-1.75-.415-.606-.207-.606-.207-1.292-.481M440.003 571.692s-.484.679.521 1.243c1.012.563 3.727.681 4.688.045.972-.64.279-.988.279-.988M262.258 532.224c-.84-.07-.84-.07-1.675-.209h-1.828c-.914.067-.914.067-1.752.205l-1.673.404c-.54.274-.616.276-1.15.548M260.094 539.056l-1.905-.001-1.749-.275-.611-.137M258.909 532.08l-.152.002" style="fill:none;stroke:#00ff4a;stroke-width:.999997;stroke-linecap:round;stroke-linejoin:round;stroke-miterlimit:11.339;stroke-dasharray:none;stroke-opacity:1;visibility:visible" visibility="hidden"/><path d="m254.093 535.699-.683-.683-.072-.685M298.106 351.582c0 .624-1.233 1.13-2.756 1.13-1.524.001-2.757-.505-2.757-1.129 0-.625 1.233-1.133 2.757-1.133 1.523 0 2.756.508 2.756 1.132M258.067 534.051l.523.54 1.59.027.662-.512" style="fill:none;stroke:#00ff4a;stroke-width:.999997;stroke-linecap:round;stroke-linejoin:round;stroke-miterlimit:11.339;stroke-dasharray:none;stroke-opacity:1;visibility:visible" visibility="hidden"/><path d="m254.18 533.172-.152.138-.537.682-.153.135-.001.204-.014 2.532.38.683.382.273.91.548.835.277M263.215 538.515l.23-.07 1.145-.545.307-.274.612-.682.011-2.533-.075-.203-.378-.685-.077-.135-.15-.141-.99-.544-1.44-.41-.153-.071M292.346 352.446s-.516.719.554 1.317c1.07.597 3.95.72 4.978.04 1.03-.68.29-1.049.29-1.049M292.305 355.985s-.515.72.555 1.314c1.07.601 3.95.722 4.978.043 1.032-.679.29-1.05.29-1.05" style="fill:none;stroke:#00ff4a;stroke-width:.999997;stroke-linecap:round;stroke-linejoin:round;stroke-miterlimit:11.339;stroke-dasharray:none;stroke-opacity:1;visibility:visible" visibility="hidden"/><path d="M292.325 354.091s-.515.72.557 1.319c1.07.595 3.95.716 4.976.04 1.03-.68.29-1.05.29-1.05M292.409 357.69s-.516.721.554 1.316c1.07.599 3.952.721 4.978.044 1.029-.68.289-1.051.289-1.051M180.3 322.204l.645.708h1.417l.583-.563" style="fill:none;stroke:#00ff4a;stroke-width:.999997;stroke-linecap:round;stroke-linejoin:round;stroke-miterlimit:11.339;stroke-dasharray:none;stroke-opacity:1;visibility:visible" visibility="hidden"/><path d="M292.298 359.342s-.515.721.555 1.315c1.072.6 3.952.722 4.977.043 1.031-.678.291-1.05.291-1.05M176.297 325.393l11.479-1.597M297.92 361.043l3.875-11.63M285.983 363.095l3.271 7.45" style="fill:none;stroke:#00ff4a;stroke-width:.999997;stroke-linecap:round;stroke-linejoin:round;stroke-miterlimit:11.339;stroke-dasharray:none;stroke-opacity:1;visibility:visible" visibility="hidden"/><path d="m286.06 371.685 3.269.304M285.985 363.095l3.348 1.106M260.094 539.056l5.138 8.298M255.829 538.643l-2.778 7.461M291.14 596.392l-3.355 5.78" style="fill:none;stroke:#00ff4a;stroke-width:1.99999;stroke-linecap:round;stroke-linejoin:round;stroke-miterlimit:11.339;stroke-dasharray:none;stroke-opacity:1;visibility:visible" visibility="hidden"/><path d="m266.253 579.107-13.031-.068M253.222 579.039l12.915 4.759" style="fill:none;stroke:#00ff4a;stroke-width:.999997;stroke-linecap:round;stroke-linejoin:round;stroke-miterlimit:11.339;stroke-dasharray:none;stroke-opacity:1;visibility:visible" visibility="hidden"/><path d="m254.245 656.156 12.09 8.001" style="fill:none;stroke:#00ff4a;stroke-width:1.99999;stroke-linecap:round;stroke-linejoin:round;stroke-miterlimit:11.339;stroke-dasharray:none;stroke-opacity:1;visibility:visible" visibility="hidden"/><path d="m297.541 594.114-1.524.001M266.332 669.104l.239-16.32M302.411 592.752l.229 1.14" style="fill:none;stroke:#00ff4a;stroke-width:.999997;stroke-linecap:round;stroke-linejoin:round;stroke-miterlimit:11.339;stroke-dasharray:none;stroke-opacity:1;visibility:visible" visibility="hidden"/><path d="m266.137 583.798-12.807 5.615M253.33 589.413l13.199 4.887M253.222 579.039l13.031.068M266.253 579.107l-12.933-4.752M187.354 564.93l5.023 1.91" style="fill:none;stroke:#00ff4a;stroke-width:1.99999;stroke-linecap:round;stroke-linejoin:round;stroke-miterlimit:11.339;stroke-dasharray:none;stroke-opacity:1;visibility:visible" visibility="hidden"/><path d="m445.432 567.052-.05-1.109M445.432 567.052l-.05-1.109M448.258 572.98l-8.308-6.23M438.364 573.88l7.068-6.828M448.258 572.98l-8.326-4.676M438.364 573.88l7.054-5.281M448.258 572.98l-8.255-1.288M438.364 573.88l7.127-1.888M266.71 535.446l-7.801-3.366M260.094 539.056l-1.337-6.974M254.093 535.699l3.974-1.648M264.373 535.716l-3.531-1.61M176.906 323.797l3.394-1.593" style="fill:none;stroke:#00ff4a;stroke-width:.999997;stroke-linecap:round;stroke-linejoin:round;stroke-miterlimit:11.339;stroke-dasharray:none;stroke-opacity:1;visibility:visible" visibility="hidden"/><path d="m449.675 198.437-.757.46c-.684.233-.684.233-1.291.463-.835.156-.835.156-1.748.237-.91.081-.91.081-1.899.087-.913-.072-.913-.072-1.9-.067-.837-.147-.837-.147-1.75-.295-.684-.224-.684-.224-1.448-.524-.304-.226-.304-.226-.686-.453" style="fill:none;stroke:#9500ff;stroke-width:.999997;stroke-linecap:round;stroke-linejoin:round;stroke-miterlimit:11.339;stroke-dasharray:none;stroke-opacity:1;visibility:visible"/><path d="m438.494 197.204-.454.534-1.36 347.772.076.532M447.099 546.899l.756-.689.15-.684.876-167.96M448.992 356.52l.83-158.691-.533-.531M436.756 546.042l.079.228.763.68M449.288 197.298c-.533-.3-.533-.3-1.066-.526-.762-.148-.762-.148-1.522-.372-.913-.07-.99-.07-1.9-.142-.914-.07-.914-.07-1.902-.066-.912.081-.912.081-1.823.237l-1.519.313-1.062.462M437.599 546.948c.61.226.61.226 1.295.526.836.148.836.148 1.598.296.988.07.988.07 1.902.14l1.822-.16 1.67-.312c.609-.232.609-.308 1.214-.539M438.196 198.345l-.154-.608M449.823 197.828l-.148.61" style="fill:none;stroke:#9500ff;stroke-width:1.99999;stroke-linecap:round;stroke-linejoin:round;stroke-miterlimit:11.339;stroke-dasharray:none;stroke-opacity:1;visibility:visible"/><path d="M447.61 198.013c0 .597-1.6 1.083-3.572 1.083-1.971 0-3.57-.486-3.57-1.083s1.599-1.081 3.57-1.081c1.972 0 3.572.484 3.572 1.081" style="fill:none;stroke:#9500ff;stroke-width:.999997;stroke-linecap:round;stroke-linejoin:round;stroke-miterlimit:11.339;stroke-dasharray:none;stroke-opacity:1;visibility:visible"/><path d="m302.411 592.752-3.124 2.581M260.094 539.056l-6.756-4.725" style="fill:none;stroke:#00ff4a;stroke-width:.999997;stroke-linecap:round;stroke-linejoin:round;stroke-miterlimit:11.339;stroke-dasharray:none;stroke-opacity:1;visibility:visible" visibility="hidden"/></svg>