<svg xmlns="http://www.w3.org/2000/svg" baseProfile="full" height="1122.52" preserveAspectRatio="xMinYMin meet" style="width:602px;height:832px" width="793.701" xml:space="preserve"><path d="M377.401 649.643c.899.285 1.523.916 1.515 1.633-.014.96-1.15 1.71-2.538 1.679-1.388-.031-2.506-.835-2.492-1.792.01-.673.572-1.243 1.384-1.511M366.994 662.902c.9.283 1.525.914 1.516 1.631-.012.873-.955 1.573-2.17 1.667" style="fill:none;stroke:red;stroke-width:.999997;stroke-linecap:round;stroke-linejoin:round;stroke-miterlimit:2.414;stroke-dasharray:none;stroke-opacity:1;visibility:visible"/><path d="M470.01 1024.394s9.58-41.682 7.022-60.92c-2.552-19.236-5.747-144.281-5.747-144.281s-2.395-35.428-11.977-42.48" style="fill:none;stroke:red;stroke-width:1.99999;stroke-linecap:round;stroke-linejoin:round;stroke-miterlimit:2.414;stroke-dasharray:none;stroke-opacity:1;visibility:visible"/><path d="M479.588 1027.6s10.222-37.19 8.307-55.149c-1.918-17.955-1.918-145.56-1.918-145.56s0-39.759-7.666-46.811" style="fill:none;stroke:red;stroke-width:.999997;stroke-linecap:round;stroke-linejoin:round;stroke-miterlimit:2.414;stroke-dasharray:none;stroke-opacity:1;visibility:visible"/><path d="m639.288 754.429-6.388 17.955-26.829 139.149s-2.553 31.423 16.611 42.323M469.883 1023.692l9.677 3.75 3.225-3.408s9.167-32.887 7.808-47.368M488.725 822.291l2.038 154.716M482.25 780.913s6.476 13.601 6.476 41.377" style="fill:none;stroke:red;stroke-width:1.99999;stroke-linecap:round;stroke-linejoin:round;stroke-miterlimit:2.414;stroke-dasharray:none;stroke-opacity:1;visibility:visible"/><path d="m643.121 752.505-7.665 20.521-26.83 137.867s-1.916 30.137 18.527 42.323" style="fill:none;stroke:red;stroke-width:.999997;stroke-linecap:round;stroke-linejoin:round;stroke-miterlimit:2.414;stroke-dasharray:none;stroke-opacity:1;visibility:visible"/><path d="m649.984 746.772-11.334 28.177-26.19 134.021s-1.916 24.366 16.61 35.266M543.227 616.525l-4.987 36.392-4.312 81.09M533.095 749.65l-.215 4.042" style="fill:none;stroke:red;stroke-width:1.99999;stroke-linecap:round;stroke-linejoin:round;stroke-miterlimit:2.414;stroke-dasharray:none;stroke-opacity:1;visibility:visible"/><path d="m622.521 953.532 4.47-.32 1.597-9.296" style="fill:none;stroke:red;stroke-width:1.99999;stroke-linecap:round;stroke-linejoin:round;stroke-miterlimit:2.414;stroke-dasharray:none;stroke-opacity:1;visibility:visible"/><path d="m540.49 764.466-.63 9.164M552.555 617.715l-4.565 36.197-.191 2.817-5.249 76.456M541.396 750.01l-.385 5.6" style="fill:none;stroke:red;stroke-width:.999997;stroke-linecap:round;stroke-linejoin:round;stroke-miterlimit:2.414;stroke-dasharray:none;stroke-opacity:1;visibility:visible"/><path d="m530.816 780.113-.576 16.58M530.161 798.923l-.037 1.114M530.017 803.097l-.349 10.02M529.564 816.174l-.05 1.39M529.417 820.347l-.085 2.498s-.187 1.735-.304 4.184M528.943 830.366c-.024 5.268.22 11.004 3.017 11.847M542.573 763.845l-.653 8.835M554.703 617.896l-5.078 38.003-.02.311M543.204 755.698l.363-5.643M544.653 733.185l4.972-77.286" style="fill:none;stroke:red;stroke-width:1.99999;stroke-linecap:round;stroke-linejoin:round;stroke-miterlimit:2.414;stroke-dasharray:none;stroke-opacity:1;visibility:visible"/><path d="m539.651 778.068-.394 5.392M538.998 788.604l-.611 8.974M538.144 800.315l-1.236 16.959M536.682 820.342l-.744 10.203M535.928 833.703c.16 3.004 1.139 7.244 3.304 8.487" style="fill:none;stroke:red;stroke-width:.999997;stroke-linecap:round;stroke-linejoin:round;stroke-miterlimit:2.414;stroke-dasharray:none;stroke-opacity:1;visibility:visible"/><path d="m531.96 842.213 7.517-.171.744-3.3M541.705 778.068l-.502 6.53M540.905 790.013l-.534 6.96M540.112 800.315l-1.307 16.961M538.57 820.355l-.749 9.73M537.541 833.686l-.041.585s.493 4.471 2.72 4.471" style="fill:none;stroke:red;stroke-width:1.99999;stroke-linecap:round;stroke-linejoin:round;stroke-miterlimit:2.414;stroke-dasharray:none;stroke-opacity:1;visibility:visible"/><path d="m414.264 863.242.422 4.993s6.133 22.46-12.63 28.618M411.104 832.028l1.084 10.022M373.294 667.708c3.646 5.746 9.616 16.598 15.416 29.26M397.768 720.88a128.542 128.542 0 0 1 1.527 5.736M401.631 739.961l7.37 77.484" style="fill:none;stroke:red;stroke-width:.999997;stroke-linecap:round;stroke-linejoin:round;stroke-miterlimit:2.414;stroke-dasharray:none;stroke-opacity:1;visibility:visible"/><path d="m416.552 809.381.84 9.328M417.69 821.995l.802 8.932M418.82 834.544l.25 2.782M419.394 840.941l1.028 11.413M420.723 855.694l.928 10.301M379.591 657.752c3.767 6.255 15.305 26.312 23.413 48.764M410.499 734.723c.55 3.665.887 7.269.961 10.762l4.28 56.391M404.22 899.025s15.474-6.428 17.647-24.522M412.36 859.712l1.714 22.986M371.98 669.232c2.72 4.432 7.936 13.894 13.132 25.13M395.182 719.641a132.618 132.618 0 0 1 2.197 7.528M399.726 740.508l.92 11.82 7.401 74.367M402.416 891.78l-1.442 6.158M401.335 897.578l3.248 1.082M402.779 892.142s13.35-1.087 12.627-18.472M436.768 786.784a122.341 122.341 0 0 1 11.35-8.08M543.116 755.675c9.353 2.006 20.448 5.486 28.54 9.285 8.603 4.034 14.584 8.402 14.584 8.402 19.781 13.714 33.12 33.608 33.12 54.479 0 41.332-47.452 75.038-105.636 75.038-7.724.001-16.667-.772-23.928-1.897M532.233 753.78c-5.816-.707-12.416-.973-18.509-.973-9.173-.001-19.03 1.219-28.424 3.258M480.637 757.155c-6.853 1.715-13.342 3.847-18.99 6.235" style="fill:none;stroke:red;stroke-width:1.99999;stroke-linecap:round;stroke-linejoin:round;stroke-miterlimit:2.414;stroke-dasharray:none;stroke-opacity:1;visibility:visible"/><path d="M447.675 770.76c-23.785 14.667-39.585 36.596-39.585 57.08M473.728 897.14c-37.89-11.414-65.772-33.133-65.772-69.3M595.673 789.574a87.676 87.676 0 0 1 8.005 8.16M605.433 799.85a74.208 74.208 0 0 1 3.568 4.841M611.15 808.08a62.699 62.699 0 0 1 3.938 7.785M616.579 819.819c1.729 5.184 2.661 10.543 2.661 15.987.001 41.33-47.452 75.039-105.635 75.039-7.725 0-16.14-.596-23.405-1.722M541.128 763.585c2.5.527 8.325 1.644 11.59 2.627M557.56 767.774c10.777 3.704 17.925 7.674 17.925 7.674 6.205 3.365 11.988 7.248 17.19 11.544M512.884 760.772c-9.299.074-19.116 1.482-27.97 3.537M480.448 765.422a145.896 145.896 0 0 0-6.278 1.826M516.5 760.826c4.468.158 9.348.636 13.63 1.126" style="fill:none;stroke:red;stroke-width:1.99999;stroke-linecap:round;stroke-linejoin:round;stroke-miterlimit:2.414;stroke-dasharray:none;stroke-opacity:1;visibility:visible"/><path d="M473.608 905.283c-37.89-11.417-65.636-33.313-65.637-69.477 0-16.35 10.1-33.16 26.381-47.02" style="fill:none;stroke:red;stroke-width:1.99999;stroke-linecap:round;stroke-linejoin:round;stroke-miterlimit:2.414;stroke-dasharray:none;stroke-opacity:1;visibility:visible"/><path d="m532.13 754.27 12.01 2.115" style="fill:none;stroke:red;stroke-width:.999997;stroke-linecap:round;stroke-linejoin:round;stroke-miterlimit:2.414;stroke-dasharray:none;stroke-opacity:1;visibility:visible"/><path d="m533.465 762.54 3.935.554" style="fill:none;stroke:red;stroke-width:1.99999;stroke-linecap:round;stroke-linejoin:round;stroke-miterlimit:2.414;stroke-dasharray:none;stroke-opacity:1;visibility:visible"/><path d="M603.622 865.006c9.91-17.737-36.966-9.848-36.966-9.848s28.292 25.37 36.966 9.848M591.929 836.983c-16.579-9.042-25.273 18.175-25.273 18.175s42.624-8.707 25.273-18.175" style="fill:none;stroke:red;stroke-width:1.33333;stroke-linecap:round;stroke-linejoin:round;stroke-miterlimit:2.414;stroke-dasharray:none;stroke-opacity:1;visibility:visible"/><path d="M552.924 829.062c16.453-10.45 13.732 26.096 13.732 26.096s-32.216-14.356-13.732-26.096M567.788 784.353c15.987-6.36 11.316 23.474 11.316 23.474s-31.307-15.524-11.316-23.474" style="fill:none;stroke:red;stroke-width:1.33333;stroke-linecap:round;stroke-linejoin:round;stroke-miterlimit:2.414;stroke-dasharray:none;stroke-opacity:1;visibility:visible"/><path d="M583.252 883.935c-22.647 16.343-16.596-28.777-16.596-28.777s28.668 20.07 16.596 28.777" style="fill:none;stroke:red;stroke-width:1.33333;stroke-linecap:round;stroke-linejoin:round;stroke-miterlimit:2.414;stroke-dasharray:none;stroke-opacity:1;visibility:visible"/><path d="M539.496 878.635c-19.24-14.925 27.16-23.477 27.16-23.477s-10.561 36.35-27.16 23.477" style="fill:none;stroke:red;stroke-width:1.33333;stroke-linecap:round;stroke-linejoin:round;stroke-miterlimit:2.414;stroke-dasharray:none;stroke-opacity:1;visibility:visible"/><path d="M527.427 847.963c7.062-11.52 39.229 7.195 39.229 7.195s-48.281 7.575-39.23-7.195h.001M616.069 810.478c7.188 20.839-36.965-2.65-36.965-2.65s33.57-7.192 36.965 2.649v.001M592.683 833.578c-18.773 3.139-13.58-25.75-13.58-25.75s31.687 22.719 13.581 25.749l-.001.001" style="fill:none;stroke:red;stroke-width:1.33333;stroke-linecap:round;stroke-linejoin:round;stroke-miterlimit:2.414;stroke-dasharray:none;stroke-opacity:1;visibility:visible"/><path d="M554.208 825.625c-15.825-7.788 24.896-17.798 24.896-17.798s-5.659 27.263-24.896 17.798" style="fill:none;stroke:red;stroke-width:1.33333;stroke-linecap:round;stroke-linejoin:round;stroke-miterlimit:2.414;stroke-dasharray:none;stroke-opacity:1;visibility:visible"/><path d="M543.645 800.637c8.65-8.957 35.459 7.19 35.459 7.19s-47.527 5.303-35.459-7.19M524.03 850.614c-10.585-15.747-31.305 19.313-31.305 19.313s41.491-4.166 31.306-19.313h-.001M602.49 790.03c-13.462-10.133-23.386 17.797-23.386 17.797s38.474-6.436 23.386-17.797" style="fill:none;stroke:red;stroke-width:1.33333;stroke-linecap:round;stroke-linejoin:round;stroke-miterlimit:2.414;stroke-dasharray:none;stroke-opacity:1;visibility:visible"/><path d="M522.523 846.451c-19.236.379-8.296-25.748-8.296-25.748l14.597 7.874c3.999 2.036 6.485 3.726 9.54 3.106 27.121-5.493.379-13.253.379-13.253-3.734-.488-24.896 2.273-24.896 2.273" style="fill:none;stroke:red;stroke-width:1.33333;stroke-linecap:round;stroke-linejoin:round;stroke-miterlimit:2.414;stroke-dasharray:none;stroke-opacity:1;visibility:visible"/><path d="M529.692 801.014c-6.792.377-15.845 19.69-15.845 19.69s11.569-1.814 15.718-5.599M502.532 795.71c17.211-8.26 11.315 24.615 11.315 24.615s-28.667-16.283-11.317-24.615h.002M473.863 893.783s-6.787 4.923-12.07-5.303M471.978 877.878s-12.825 4.165-9.806 10.601M472.73 871.442s-17.226 2.073-16.972-7.953" style="fill:none;stroke:red;stroke-width:1.33333;stroke-linecap:round;stroke-linejoin:round;stroke-miterlimit:2.414;stroke-dasharray:none;stroke-opacity:1;visibility:visible"/><path d="M471.98 856.675s-16.222-4.924-16.222 6.815M488.951 842.285c16.219 3.029 3.773 27.642 3.773 27.642s-3.019-4.921-3.019-9.467" style="fill:none;stroke:red;stroke-width:1.33333;stroke-linecap:round;stroke-linejoin:round;stroke-miterlimit:2.414;stroke-dasharray:none;stroke-opacity:1;visibility:visible"/><path d="M501.776 901.733c24.021-3.593-9.052-31.806-9.052-31.806s-8.676 34.456 9.052 31.806" style="fill:none;stroke:red;stroke-width:1.33333;stroke-linecap:round;stroke-linejoin:round;stroke-miterlimit:2.414;stroke-dasharray:none;stroke-opacity:1;visibility:visible"/><path d="M534.592 879.394c8.55-17.16-41.868-9.467-41.868-9.467s33.192 26.883 41.868 9.467M522.523 846.451c20.745-.378-8.676-25.748-8.676-25.748s-24.142 4.164-24.897 6.437M438.028 807.07c18.11-6.77 6.587 24.028 6.587 24.028s-25.823-16.833-6.587-24.028M513.847 820.703l-24.142 1.137" style="fill:none;stroke:red;stroke-width:1.33333;stroke-linecap:round;stroke-linejoin:round;stroke-miterlimit:2.414;stroke-dasharray:none;stroke-opacity:1;visibility:visible"/><path d="M489.33 840.391c8.676 7.572 24.516-19.688 24.516-19.688s-19.613-11.74-25.271-11.74M411.25 823.354c6.509-10.893 33.565 7.744 33.565 7.744s-42.62 7.4-33.565-7.744" style="fill:none;stroke:red;stroke-width:1.33333;stroke-linecap:round;stroke-linejoin:round;stroke-miterlimit:2.414;stroke-dasharray:none;stroke-opacity:1;visibility:visible"/><path d="M455.004 858.189c-23.354 6.84-10.186-27.263-10.186-27.263s28.291 21.964 10.186 27.264v-.001M413.136 848.722c-7.538-10.223 31.479-17.624 31.479-17.624s-17.525 36.556-31.479 17.624" style="fill:none;stroke:red;stroke-width:1.33333;stroke-linecap:round;stroke-linejoin:round;stroke-miterlimit:2.414;stroke-dasharray:none;stroke-opacity:1;visibility:visible"/><path d="M470.847 813.51c-8.677-7.95-26.232 17.588-26.232 17.588s22.835-2.82 26.61-7.367M435.389 780.568c9.642-12.178 29.897 7.344 29.897 7.344s-41.59 7.42-29.899-7.345l.002.001" style="fill:none;stroke:red;stroke-width:1.33333;stroke-linecap:round;stroke-linejoin:round;stroke-miterlimit:2.414;stroke-dasharray:none;stroke-opacity:1;visibility:visible"/><path d="M471.601 830.926h-26.783s21.125 18.175 27.16 13.632M484.816 786.462c5.664-.842 16.87-1.32 16.584 5.843M486.387 796.937c4.9 1.33 14.731 3.036 15.013-4.632M465.287 787.911s-6.511 21.809 2.919 23.327M443.31 804.8c-17.134-11.47 21.977-16.889 21.977-16.889s-9.53 25.219-21.977 16.888v.001M527.7 777.736s-25.277-23.697-6.31-23.674M527.7 777.737s-8.847-5.845-13.113-8.69c-7.56-5.039-15.415-3.69-18.847-.977-.857.68-1.339 1.54-1.477 2.476M497.49 776.417a12.395 12.395 0 0 0 3.827 1.793c9.44 2.664 26.383-.473 26.383-.473M562.508 785.867c2.264-5.301-2.643-7.952-2.643-7.952-5.464-3.022-32.165-.179-32.165-.179M562.508 786.246c-4.632 8.554-23.908-1.716-23.908-1.716-3.945-2.634-10.9-6.793-10.9-6.793M540.744 787.853s8.94 8.237-.493 11.266M527.7 778.21s-3.67 18.26 1.992 19.393M527.7 778.21s-5.933 21.075-19.133 16.152" style="fill:none;stroke:red;stroke-width:1.33333;stroke-linecap:round;stroke-linejoin:round;stroke-miterlimit:2.414;stroke-dasharray:none;stroke-opacity:1;visibility:visible"/><path d="M508.567 794.362c-17.728-5.302 10.561-14.172 10.561-14.172l8.572-2.453M549.684 760.12c-12.347-1.5-21.984 17.617-21.984 17.617" style="fill:none;stroke:red;stroke-width:1.33333;stroke-linecap:round;stroke-linejoin:round;stroke-miterlimit:2.414;stroke-dasharray:none;stroke-opacity:1;visibility:visible"/><path d="M521.39 754.06c15.088.379 9.628 14.673 9.628 14.673l-3.318 9.004M529.565 797.791s7.175 1.966 10.686 1.329M529.565 815.106s14.055-10.903.64-13.466M549.684 760.12c11.559 2.897 4.892 7.469 4.892 7.469-5.073 3.987-11.236 8.568-26.876 10.148l13.044 10.116" style="fill:none;stroke:red;stroke-width:1.33333;stroke-linecap:round;stroke-linejoin:round;stroke-miterlimit:2.414;stroke-dasharray:none;stroke-opacity:1;visibility:visible"/><path d="M642.754 742.587c1.442.031 2.6.866 2.587 1.859-.013.995-1.195 1.776-2.633 1.74-1.446-.03-2.603-.864-2.59-1.86.014-.994 1.194-1.774 2.636-1.74v.001M656.48 730.215c1.442.034 2.601.867 2.586 1.861-.014.994-1.193 1.777-2.633 1.74-1.443-.031-2.6-.866-2.588-1.858.012-.993 1.193-1.776 2.636-1.742l-.001-.001M462.075 769.681c.679.357 1.104.875 1.095 1.439-.018 1.04-1.48 1.85-3.266 1.816-1.786-.034-3.224-.904-3.206-1.94.01-.667.622-1.241 1.534-1.556M484.76 773.904c.761.356 1.241.902 1.231 1.509-.015 1.033-1.478 1.847-3.264 1.81-1.787-.028-3.223-.899-3.207-1.936.01-.655.601-1.222 1.488-1.541" style="fill:none;stroke:red;stroke-width:.999997;stroke-linecap:round;stroke-linejoin:round;stroke-miterlimit:2.414;stroke-dasharray:none;stroke-opacity:1;visibility:visible"/><path d="M450.683 771.577c.02.713.621 1.301 2.035 1.572l33.454 6.547c3.868.553 8.376-2.808 8.35-4.803" style="fill:none;stroke:red;stroke-width:.999997;stroke-linecap:round;stroke-linejoin:round;stroke-miterlimit:2.414;stroke-dasharray:none;stroke-opacity:1;visibility:visible"/><path d="M457.163 767.042c-3.359.494-6.528 2.858-6.48 4.535l.003 2.013c.024.71.624 1.295 2.032 1.564l33.454 6.548c3.832.548 8.299-2.752 8.35-4.75v-2.06c-.01-.583-.408-1.049-1.327-1.265l-8.238-1.613M480.843 771.208l-18.075-3.538" style="fill:none;stroke:red;stroke-width:1.99999;stroke-linecap:round;stroke-linejoin:round;stroke-miterlimit:2.414;stroke-dasharray:none;stroke-opacity:1;visibility:visible"/><path d="M633.44 744.765c-1.642 3.45 6.822 9.492 10.698 6.172l21.12-18.088c.272-.233.486-.477.644-.727" style="fill:none;stroke:red;stroke-width:.999997;stroke-linecap:round;stroke-linejoin:round;stroke-miterlimit:2.414;stroke-dasharray:none;stroke-opacity:1;visibility:visible"/><path d="m665.902 732.122-1.481 2.118a3.49 3.49 0 0 1-.57.622l-21.119 18.088c-4.067 3.482-13.18-3.334-10.387-6.656l1.095-1.53M665.902 732.122c1.598-2.528-2.216-5.805-5.854-6.87M655.404 725.709l-8.446 7.235" style="fill:none;stroke:red;stroke-width:1.99999;stroke-linecap:round;stroke-linejoin:round;stroke-miterlimit:2.414;stroke-dasharray:none;stroke-opacity:1;visibility:visible"/><path d="m642.104 737.098-7.82 6.699a2.56 2.56 0 0 0-.844.968" style="fill:none;stroke:red;stroke-width:1.99999;stroke-linecap:round;stroke-linejoin:round;stroke-miterlimit:2.414;stroke-dasharray:none;stroke-opacity:1;visibility:visible"/><path d="M382.503 648.399c.076.551-.052 1.14-.443 1.74l-13.806 20.111" style="fill:none;stroke:red;stroke-width:.999997;stroke-linecap:round;stroke-linejoin:round;stroke-miterlimit:2.414;stroke-dasharray:none;stroke-opacity:1;visibility:visible"/><path d="m369.047 672.64 13.807-20.11c.488-.755.564-1.488.349-2.154l-.341-1.655c-.228-1.711-2.398-3.076-4.652-3.445" style="fill:none;stroke:red;stroke-width:1.99999;stroke-linecap:round;stroke-linejoin:round;stroke-miterlimit:2.414;stroke-dasharray:none;stroke-opacity:1;visibility:visible"/><path d="m497.515 773.048.017-.02M497.084 773.042a.337.337 0 0 0 .166.088.321.321 0 0 0 .265-.082M501.453 771.092l1.751-1.612M501.077 773.24l1.103 2.112M501.453 771.092a.94.94 0 0 0-.14.194M501.313 771.287a2.821 2.821 0 0 0-.3 1.723M501.013 773.01a.91.91 0 0 0 .064.229M502.18 775.352a.853.853 0 0 0 .477.254.8.8 0 0 0 .536-.08M503.193 775.526c.374-.2.678-.473.884-.793M504.077 774.732a5.258 5.258 0 0 0 .763-1.939c.12-.688.1-1.39-.057-2.088M504.783 770.705a2.42 2.42 0 0 0-.563-1.05M504.22 769.654a.85.85 0 0 0-.477-.252.82.82 0 0 0-.539.078" style="fill:none;stroke:red;stroke-width:.999997;stroke-linecap:round;stroke-linejoin:round;stroke-miterlimit:2;stroke-dasharray:none;stroke-opacity:1;visibility:visible"/><path d="M496.8 770.397a3.423 3.423 0 0 0-.016 2.15M496.784 772.548a1.243 1.243 0 0 0 .3.494" style="fill:none;stroke:red;stroke-width:.666665;stroke-linecap:round;stroke-linejoin:round;stroke-miterlimit:2;stroke-dasharray:none;stroke-opacity:1;visibility:visible"/><path d="M497.536 769.908a.297.297 0 0 0-.428-.003" style="fill:none;stroke:red;stroke-width:.999997;stroke-linecap:round;stroke-linejoin:round;stroke-miterlimit:2;stroke-dasharray:none;stroke-opacity:1;visibility:visible"/><path d="M497.108 769.905a1.24 1.24 0 0 0-.31.492" style="fill:none;stroke:red;stroke-width:.666665;stroke-linecap:round;stroke-linejoin:round;stroke-miterlimit:2;stroke-dasharray:none;stroke-opacity:1;visibility:visible"/><path d="M498.721 773.256c.007-.004.012-.012.02-.018M498.291 773.253a.307.307 0 0 0 .429.003M497.632 770.018a1.056 1.056 0 0 0-.096-.11" style="fill:none;stroke:red;stroke-width:.999997;stroke-linecap:round;stroke-linejoin:round;stroke-miterlimit:2;stroke-dasharray:none;stroke-opacity:1;visibility:visible"/><path d="M498.005 770.606a3.784 3.784 0 0 0-.133.51 3.41 3.41 0 0 0 .119 1.641M497.993 772.757a1.224 1.224 0 0 0 .298.496" style="fill:none;stroke:red;stroke-width:.666665;stroke-linecap:round;stroke-linejoin:round;stroke-miterlimit:2;stroke-dasharray:none;stroke-opacity:1;visibility:visible"/><path d="M498.744 770.12a.317.317 0 0 0-.164-.087.304.304 0 0 0-.268.083" style="fill:none;stroke:red;stroke-width:.999997;stroke-linecap:round;stroke-linejoin:round;stroke-miterlimit:2;stroke-dasharray:none;stroke-opacity:1;visibility:visible"/><path d="M498.312 770.116a1.273 1.273 0 0 0-.307.49" style="fill:none;stroke:red;stroke-width:.666665;stroke-linecap:round;stroke-linejoin:round;stroke-miterlimit:2;stroke-dasharray:none;stroke-opacity:1;visibility:visible"/><path d="M499.928 773.465a.07.07 0 0 0 .017-.017M499.5 773.462a.281.281 0 0 0 .16.086.297.297 0 0 0 .268-.083M498.84 770.228a1.573 1.573 0 0 0-.096-.108" style="fill:none;stroke:red;stroke-width:.999997;stroke-linecap:round;stroke-linejoin:round;stroke-miterlimit:2;stroke-dasharray:none;stroke-opacity:1;visibility:visible"/><path d="M499.21 770.818a3.421 3.421 0 0 0-.015 2.15M499.196 772.968a1.24 1.24 0 0 0 .304.494" style="fill:none;stroke:red;stroke-width:.666665;stroke-linecap:round;stroke-linejoin:round;stroke-miterlimit:2;stroke-dasharray:none;stroke-opacity:1;visibility:visible"/><path d="M499.95 770.329a.317.317 0 0 0-.166-.085.293.293 0 0 0-.264.082" style="fill:none;stroke:red;stroke-width:.999997;stroke-linecap:round;stroke-linejoin:round;stroke-miterlimit:2;stroke-dasharray:none;stroke-opacity:1;visibility:visible"/><path d="M499.52 770.326a1.264 1.264 0 0 0-.31.492" style="fill:none;stroke:red;stroke-width:.666665;stroke-linecap:round;stroke-linejoin:round;stroke-miterlimit:2;stroke-dasharray:none;stroke-opacity:1;visibility:visible"/><path d="M501.135 773.677c.004-.004.012-.01.015-.017M500.705 773.675a.307.307 0 0 0 .43.002M500.045 770.438l-.094-.11" style="fill:none;stroke:red;stroke-width:.999997;stroke-linecap:round;stroke-linejoin:round;stroke-miterlimit:2;stroke-dasharray:none;stroke-opacity:1;visibility:visible"/><path d="M500.417 771.03a3.427 3.427 0 0 0-.014 2.149" style="fill:none;stroke:red;stroke-width:.666665;stroke-linecap:round;stroke-linejoin:round;stroke-miterlimit:2;stroke-dasharray:none;stroke-opacity:1;visibility:visible"/><path d="M500.403 773.178a1.295 1.295 0 0 0 .302.496" style="fill:none;stroke:red;stroke-width:.666665;stroke-linecap:round;stroke-linejoin:round;stroke-miterlimit:2;stroke-dasharray:none;stroke-opacity:1;visibility:visible"/><path d="M501.157 770.54a.303.303 0 0 0-.429-.003" style="fill:none;stroke:red;stroke-width:.999997;stroke-linecap:round;stroke-linejoin:round;stroke-miterlimit:2;stroke-dasharray:none;stroke-opacity:1;visibility:visible"/><path d="M500.728 770.537a1.213 1.213 0 0 0-.31.492" style="fill:none;stroke:red;stroke-width:.666665;stroke-linecap:round;stroke-linejoin:round;stroke-miterlimit:2;stroke-dasharray:none;stroke-opacity:1;visibility:visible"/><path d="M496.11 772.558a.36.36 0 0 0 .214.115.45.45 0 0 0 .14.001M496.157 770.385a2.125 2.125 0 0 0-.3 1.723M495.857 772.109a.961.961 0 0 0 .253.449M501.253 770.649c-.033-.036-.06-.072-.096-.11" style="fill:none;stroke:red;stroke-width:.999997;stroke-linecap:round;stroke-linejoin:round;stroke-miterlimit:2;stroke-dasharray:none;stroke-opacity:1;visibility:visible"/><path d="m503.779 771.293-.562 1.144.56.923" style="fill:none;stroke:red;stroke-width:.666665;stroke-linecap:round;stroke-linejoin:round;stroke-miterlimit:2;stroke-dasharray:none;stroke-opacity:1;visibility:visible"/><path d="m496.11 772.558-17.799 7.522" style="fill:none;stroke:red;stroke-width:.999997;stroke-linecap:round;stroke-linejoin:round;stroke-miterlimit:2.414;stroke-dasharray:none;stroke-opacity:1;visibility:visible"/><path d="m633.44 744.765 16.544 2.007M533.095 749.65l.833-15.643M541.011 755.61l-7.916-5.96" style="fill:none;stroke:red;stroke-width:1.99999;stroke-linecap:round;stroke-linejoin:round;stroke-miterlimit:2.414;stroke-dasharray:none;stroke-opacity:1;visibility:visible"/><path d="m541.92 772.68-1.43-8.214M539.651 778.068l.209-4.438M541.396 750.01l1.154-16.825M543.204 755.698l-1.808-5.688M543.567 750.055l-2.556 5.555" style="fill:none;stroke:red;stroke-width:.999997;stroke-linecap:round;stroke-linejoin:round;stroke-miterlimit:2.414;stroke-dasharray:none;stroke-opacity:1;visibility:visible"/><path d="m539.257 783.46-8.441-3.347M530.161 798.923l.079-2.23M530.24 796.693l-.079 2.23M530.017 803.097l.107-3.06M530.124 800.037l-.107 3.06M529.564 816.174l.104-3.057M529.668 813.117l-.104 3.057M529.417 820.347l.097-2.783M529.514 817.564l-.097 2.783M528.943 830.366l.085-3.337M529.028 827.029l-.085 3.337M543.204 755.698l-.631 8.147M541.705 778.068l.215-5.388M541.011 755.61l2.556-5.555M543.567 750.055l1.086-16.87" style="fill:none;stroke:red;stroke-width:1.99999;stroke-linecap:round;stroke-linejoin:round;stroke-miterlimit:2.414;stroke-dasharray:none;stroke-opacity:1;visibility:visible"/><path d="m539.86 773.63-.209 4.438M538.998 788.604l.259-5.144M541.203 784.598l-2.205 4.006M538.144 800.315l.243-2.737M538.387 797.578l-.243 2.737M536.682 820.342l.226-3.068M536.908 817.274l-.226 3.068M537.541 833.686l-1.603-3.141" style="fill:none;stroke:red;stroke-width:.999997;stroke-linecap:round;stroke-linejoin:round;stroke-miterlimit:2.414;stroke-dasharray:none;stroke-opacity:1;visibility:visible"/><path d="m539.86 773.63 1.845 4.438M538.998 788.604l2.205-4.006M541.203 784.598l-.298 5.415M540.112 800.315l.259-3.342M538.387 797.578l1.725 2.737M538.57 820.355l.235-3.079M538.805 817.276l-.235 3.079M537.541 833.686l.28-3.601M535.938 830.545l1.603 3.141" style="fill:none;stroke:red;stroke-width:1.99999;stroke-linecap:round;stroke-linejoin:round;stroke-miterlimit:2.414;stroke-dasharray:none;stroke-opacity:1;visibility:visible"/><path d="m421.651 865.995-7.387-2.753M408.047 826.695l3.057 5.333M419.394 840.941l-7.206 1.109M397.379 727.169l.389-6.289M395.182 719.641l4.113 6.975M417.69 821.995l-8.689-4.55" style="fill:none;stroke:red;stroke-width:.999997;stroke-linecap:round;stroke-linejoin:round;stroke-miterlimit:2.414;stroke-dasharray:none;stroke-opacity:1;visibility:visible"/><path d="m415.74 801.876.812 7.505M417.69 821.995l-.298-3.286M417.392 818.709l.298 3.286M418.82 834.544l-.328-3.617M418.492 830.927l.328 3.617M419.394 840.941l-.324-3.615M419.07 837.326l.324 3.615M420.723 855.694l-.301-3.34M420.422 852.354l.301 3.34M414.264 863.242l7.387 2.753M395.182 719.641l7.822-13.125M416.552 809.381l-.812-7.505M420.422 852.354l-8.062 7.358M415.406 873.67l-1.332 9.028M399.295 726.616l-4.113-6.975M397.768 720.88l-.389 6.289M411.104 832.028l-3.057-5.333M414.074 882.698l1.332-9.028M434.352 788.786l2.416-2.002M473.863 893.783l15.933 7.199M480.637 757.155l4.663-1.09M485.3 756.065l-4.663 1.09M458.232 769.44l3.415-6.05M592.675 786.992l2.998 2.582M605.433 799.85l-1.755-2.116M603.678 797.734l1.755 2.116M611.15 808.08l-2.149-3.389M609.001 804.691l2.149 3.389M616.579 819.819l-1.491-3.954M615.088 815.865l1.491 3.954M537.4 763.094l3.728.491M557.56 767.774l-4.842-1.562M552.718 766.212l4.842 1.562M595.673 789.574l-2.998-2.582M516.5 760.826l-3.616-.054M480.448 765.422l4.466-1.113M484.914 764.309l-4.466 1.113M481.008 773.746l-6.838-6.498M512.884 760.772l3.616.054M533.465 762.54l-3.335-.588M436.768 786.784l-2.416 2.002" style="fill:none;stroke:red;stroke-width:1.99999;stroke-linecap:round;stroke-linejoin:round;stroke-miterlimit:2.414;stroke-dasharray:none;stroke-opacity:1;visibility:visible"/><path d="m543.116 755.675 1.024.71" style="fill:none;stroke:red;stroke-width:.999997;stroke-linecap:round;stroke-linejoin:round;stroke-miterlimit:2.414;stroke-dasharray:none;stroke-opacity:1;visibility:visible"/><path d="m530.13 761.952 3.335.588M541.128 763.585l-3.728-.491" style="fill:none;stroke:red;stroke-width:1.99999;stroke-linecap:round;stroke-linejoin:round;stroke-miterlimit:2.414;stroke-dasharray:none;stroke-opacity:1;visibility:visible"/><path d="m524.03 850.614 3.397-2.651M615.088 815.865l.981-5.387M529.565 797.791l14.08 2.846M527.427 847.963l-3.397 2.651M595.673 789.574l6.817.456M592.675 786.992l9.815 3.038M488.575 808.963l13.957-13.253M502.532 795.71l-13.957 13.253M455.758 863.49l-.754-5.301M496.464 772.674l-11.648 13.788" style="fill:none;stroke:red;stroke-width:1.33333;stroke-linecap:round;stroke-linejoin:round;stroke-miterlimit:2.414;stroke-dasharray:none;stroke-opacity:1;visibility:visible"/><path d="m461.647 763.39-3.415 6.05M482.25 780.913l2.51-7.009M474.17 767.248l6.838 6.498M501.4 792.305l-6.878-17.412" style="fill:none;stroke:red;stroke-width:.999997;stroke-linecap:round;stroke-linejoin:round;stroke-miterlimit:2.414;stroke-dasharray:none;stroke-opacity:1;visibility:visible"/><path d="m480.843 771.208 4.114.806M484.957 772.014l-4.114-.806M642.104 737.098l4.854-4.154M646.958 732.944l-4.854 4.154" style="fill:none;stroke:red;stroke-width:1.99999;stroke-linecap:round;stroke-linejoin:round;stroke-miterlimit:2.414;stroke-dasharray:none;stroke-opacity:1;visibility:visible"/><path d="m501.313 771.286 2.466.007M501.077 773.24l2.7.12" style="fill:none;stroke:red;stroke-width:.666665;stroke-linecap:round;stroke-linejoin:round;stroke-miterlimit:2;stroke-dasharray:none;stroke-opacity:1;visibility:visible"/><path d="M368.078 621.97a83.55 83.55 0 0 1 6.474-6.69M378.583 611.75c29.363-24.323 82.008-40.002 141.797-38.971a316.62 316.62 0 0 1 18.419.846M542.967 573.967c4.273.378 8.493.842 12.652 1.388M559.875 575.943c71.867 10.473 124.778 45.264 124.071 85.64l.034 1.006c-.836 48.193-74.716 86.543-166.293 84.957-36.317-.63-69.79-7.389-96.904-18.316M408.467 723.768c-34.065-16.594-55.313-40.342-54.863-66.298l.33-1.561c.178-10.154 3.725-19.839 10.085-28.773" style="fill:none;stroke:#00ff4a;stroke-width:1.99999;stroke-linecap:round;stroke-linejoin:round;stroke-miterlimit:2.414;stroke-dasharray:none;stroke-opacity:1;visibility:visible"/><path d="M683.817 661.584c-.83 47.476-75.348 84.694-166.441 83.126-34.995-.6-67.345-6.84-93.87-16.986M411.95 722.89c-35.89-16.392-58.48-40.485-58.016-66.982" style="fill:none;stroke:#00ff4a;stroke-width:.999997;stroke-linecap:round;stroke-linejoin:round;stroke-miterlimit:2.414;stroke-dasharray:none;stroke-opacity:1;visibility:visible"/><path d="M648.916 702.358c-27.886 21.512-76.596 35.287-131.77 34.364a302.921 302.921 0 0 1-31.881-2.197M480.46 733.896a274.009 274.009 0 0 1-18.493-3.228M457.75 729.742c-8.608-1.964-16.812-4.304-24.532-6.978M423.635 719.174c-36.988-14.964-60.625-38.038-60.165-63.554.78-43.365 70.848-77.356 156.5-75.924 82.572 1.381 149.489 35.18 153.493 76.46M671.541 673.05a47.193 47.193 0 0 1-3.372 7.746M662.868 688.786c-2.606 3.311-5.65 6.506-9.098 9.564M378.583 611.75l-4.031 3.53M374.552 615.28l4.031-3.53M542.967 573.967l-4.168-.342M538.799 573.625l4.168.342M559.875 575.943l-4.256-.588M555.619 575.355l4.256.588M423.635 719.174l-2.852 10.056M420.783 729.23l-12.316-5.462" style="fill:none;stroke:#00ff4a;stroke-width:1.99999;stroke-linecap:round;stroke-linejoin:round;stroke-miterlimit:2.414;stroke-dasharray:none;stroke-opacity:1;visibility:visible"/><path d="m423.635 719.174-.129 8.55M420.783 729.23l-8.833-6.34" style="fill:none;stroke:#00ff4a;stroke-width:.999997;stroke-linecap:round;stroke-linejoin:round;stroke-miterlimit:2.414;stroke-dasharray:none;stroke-opacity:1;visibility:visible"/><path d="m653.77 698.35-4.854 4.008M480.46 733.896l4.805.629M485.265 734.525l-4.805-.629M457.75 729.742l4.217.926M461.967 730.668l-4.217-.926M423.635 719.174l9.583 3.59M423.506 727.724l.129-8.55M648.916 702.358l4.854-4.008" style="fill:none;stroke:#00ff4a;stroke-width:1.99999;stroke-linecap:round;stroke-linejoin:round;stroke-miterlimit:2.414;stroke-dasharray:none;stroke-opacity:1;visibility:visible"/><path d="m528.943 830.366 6.985 3.337" style="fill:none;stroke:red;stroke-width:.999997;stroke-linecap:round;stroke-linejoin:round;stroke-miterlimit:2.414;stroke-dasharray:none;stroke-opacity:1;visibility:visible"/><path d="m414.074 882.698 7.793-8.195M642.104 737.098l13.3-11.389" style="fill:none;stroke:red;stroke-width:1.99999;stroke-linecap:round;stroke-linejoin:round;stroke-miterlimit:2.414;stroke-dasharray:none;stroke-opacity:1;visibility:visible"/></svg>