<svg xmlns="http://www.w3.org/2000/svg" baseProfile="full" height="1122.52" preserveAspectRatio="xMinYMin meet" style="width:602px;height:832px" width="793.701" xml:space="preserve"><path d="M294.325 641.14c17.57-30.01 64.3-53 122.997-60.379M432.923 579.195a335.607 335.607 0 0 1 31.103-.895 334.149 334.149 0 0 1 36.111 2.563M505.366 581.57a303.257 303.257 0 0 1 20.81 3.717M531.59 586.507c46.88 11.053 83.23 32.286 98.605 58.046" style="fill:none;stroke:red;stroke-width:1.33333;stroke-linecap:round;stroke-linejoin:round;stroke-miterlimit:2.414;stroke-dasharray:none;stroke-opacity:1;visibility:visible"/><path d="M634.041 652.108c2.83 6.692 4.267 13.64 4.143 20.748l.034 1.066c-.888 51.319-79.554 92.15-177.063 90.462-97.385-1.69-175.588-44.774-174.7-95.91l.35-1.664c.112-6.318 1.448-12.466 3.89-18.385" style="fill:none;stroke:red;stroke-width:1.99999;stroke-linecap:round;stroke-linejoin:round;stroke-miterlimit:2.414;stroke-dasharray:none;stroke-opacity:1;visibility:visible"/><path d="M638.045 672.856c-.884 50.552-80.225 90.178-177.218 88.509-96.993-1.668-174.905-44.003-174.022-94.555" style="fill:none;stroke:red;stroke-width:.999997;stroke-linecap:round;stroke-linejoin:round;stroke-miterlimit:2.414;stroke-dasharray:none;stroke-opacity:1;visibility:visible"/><path d="M300.586 649.788c12.807-30.268 58.244-53.959 116.73-61.576M433.18 586.572a323.693 323.693 0 0 1 30.409-.904 325.887 325.887 0 0 1 26.111 1.476M494.592 587.66a308.933 308.933 0 0 1 8.532 1.087M507.301 589.368c3.17.495 6.302 1.035 9.391 1.62M521.881 592.02c52.294 10.921 91.595 34.77 102.38 63.356" style="fill:none;stroke:red;stroke-width:1.33333;stroke-linecap:round;stroke-linejoin:round;stroke-miterlimit:2.414;stroke-dasharray:none;stroke-opacity:1;visibility:visible"/><path d="M410.394 1024.528s10.2-44.378 7.481-64.86c-2.721-20.486-6.123-153.626-6.123-153.626s-2.55-37.721-12.75-45.23M626.241 662.07a43.577 43.577 0 0 1 .975 9.954c-.83 46.169-75.436 82.36-166.633 80.837-91.199-1.524-164.456-40.188-163.625-86.357.05-2.698.35-5.364.892-7.99" style="fill:none;stroke:red;stroke-width:1.99999;stroke-linecap:round;stroke-linejoin:round;stroke-miterlimit:2.414;stroke-dasharray:none;stroke-opacity:1;visibility:visible"/><path d="M420.595 1027.943s10.883-39.6 8.843-58.719c-2.04-19.117-2.04-154.986-2.04-154.986s0-42.332-8.163-49.841" style="fill:none;stroke:red;stroke-width:.999997;stroke-linecap:round;stroke-linejoin:round;stroke-miterlimit:2.414;stroke-dasharray:none;stroke-opacity:1;visibility:visible"/><path d="M392.879 756.2s-1.02 2.56.341 3.075c1.36.513 29.247 6.145 33.156 5.633 3.912-.512.68-2.902.68-2.902M590.635 737.086l-6.802 19.118-28.566 148.158s-2.722 33.456 17.683 45.062M410.262 1023.784l10.302 3.99 3.434-3.627s9.758-35.015 8.312-50.437M430.322 809.342l2.17 164.734" style="fill:none;stroke:red;stroke-width:1.99999;stroke-linecap:round;stroke-linejoin:round;stroke-miterlimit:2.414;stroke-dasharray:none;stroke-opacity:1;visibility:visible"/><path d="M423.335 764.914s6.987 14.852 6.987 44.428" style="fill:none;stroke:red;stroke-width:1.99999;stroke-linecap:round;stroke-linejoin:round;stroke-miterlimit:2.414;stroke-dasharray:none;stroke-opacity:1;visibility:visible"/><path d="m594.715 735.037-8.16 21.85-28.567 146.793s-2.04 32.088 19.724 45.063" style="fill:none;stroke:red;stroke-width:.999997;stroke-linecap:round;stroke-linejoin:round;stroke-miterlimit:2.414;stroke-dasharray:none;stroke-opacity:1;visibility:visible"/><path d="m601.456 730.406-11.501 28.528-27.886 142.7s-2.041 25.942 17.683 37.55M478.29 718.4l-.953 17.9" style="fill:none;stroke:red;stroke-width:1.99999;stroke-linecap:round;stroke-linejoin:round;stroke-miterlimit:2.414;stroke-dasharray:none;stroke-opacity:1;visibility:visible"/><path d="m572.781 949.083 4.76-.343 1.702-9.898" style="fill:none;stroke:red;stroke-width:1.99999;stroke-linecap:round;stroke-linejoin:round;stroke-miterlimit:2.414;stroke-dasharray:none;stroke-opacity:1;visibility:visible"/><path d="m488.167 591.301-.802 5.894M486.731 601.865l-.922 6.775M485.127 613.663 483.043 629l-.516 9.717-1.403 26.377-2.399 45.104" style="fill:none;stroke:red;stroke-width:1.33333;stroke-linecap:round;stroke-linejoin:round;stroke-miterlimit:2.414;stroke-dasharray:none;stroke-opacity:1;visibility:visible"/><path d="m487.639 717.99-1.302 20.355" style="fill:none;stroke:red;stroke-width:.999997;stroke-linecap:round;stroke-linejoin:round;stroke-miterlimit:2.414;stroke-dasharray:none;stroke-opacity:1;visibility:visible"/><path d="m486.119 746.789-.44 4.947M498.12 595.099l-1.053 7.788M496.468 607.313l-3.075 22.747-.206 3-1.698 24.737-3.324 51.973" style="fill:none;stroke:red;stroke-width:.666665;stroke-linecap:round;stroke-linejoin:round;stroke-miterlimit:2.414;stroke-dasharray:none;stroke-opacity:1;visibility:visible"/><path d="m489.588 718.874-1.258 19.564" style="fill:none;stroke:red;stroke-width:1.99999;stroke-linecap:round;stroke-linejoin:round;stroke-miterlimit:2.414;stroke-dasharray:none;stroke-opacity:1;visibility:visible"/><path d="m500.284 593.885-1.027 7.663M498.693 605.764l-3.528 26.412-.02.333-1.63 25.302-3.309 51.447" style="fill:none;stroke:red;stroke-width:1.33333;stroke-linecap:round;stroke-linejoin:round;stroke-miterlimit:2.414;stroke-dasharray:none;stroke-opacity:1;visibility:visible"/><path d="m475.14 764.433-.615 17.652M474.441 784.462l-.04 1.184M474.288 788.906l-.372 10.668M473.804 802.83l-.053 1.476M473.649 807.27l-.089 2.661s-.201 1.847-.324 4.454M473.14 817.941c-.02 5.606.237 11.716 3.22 12.612M487.657 747.11l-.397 5.156" style="fill:none;stroke:red;stroke-width:1.99999;stroke-linecap:round;stroke-linejoin:round;stroke-miterlimit:2.414;stroke-dasharray:none;stroke-opacity:1;visibility:visible"/><path d="m484.89 763.905-.419 5.744M484.192 773.473l-.65 9.555M483.284 785.941 481.967 804M481.728 807.266l-.792 10.865M480.964 821.494c.17 3.2.83 7.71 3.133 9.036" style="fill:none;stroke:red;stroke-width:.999997;stroke-linecap:round;stroke-linejoin:round;stroke-miterlimit:2.414;stroke-dasharray:none;stroke-opacity:1;visibility:visible"/><path d="m476.359 830.553 8.001-.183.792-3.512M486.733 763.906l-.533 6.954M485.88 774.973l-.57 7.41M485.037 785.94l-1.391 18.063M483.395 807.281l-.798 10.359M482.301 821.474l-.05.623s.529 4.761 2.901 4.761" style="fill:none;stroke:red;stroke-width:1.99999;stroke-linecap:round;stroke-linejoin:round;stroke-miterlimit:2.414;stroke-dasharray:none;stroke-opacity:1;visibility:visible"/><path d="M306.453 644.116c3.073 4.796 9.71 15.517 16.01 28.09M328.09 684.264c5.728 13.346 9.91 27.286 8.628 37.732" style="fill:none;stroke:red;stroke-width:.666665;stroke-linecap:round;stroke-linejoin:round;stroke-miterlimit:2.414;stroke-dasharray:none;stroke-opacity:1;visibility:visible"/><path d="M341.062 691.46c4.045 12.132 6.942 24.677 7.182 36.106" style="fill:none;stroke:red;stroke-width:1.99999;stroke-linecap:round;stroke-linejoin:round;stroke-miterlimit:2.414;stroke-dasharray:none;stroke-opacity:1;visibility:visible"/><path d="M314.026 633.983c3.676 6.097 14.99 25.56 23.613 47.962" style="fill:none;stroke:red;stroke-width:1.33333;stroke-linecap:round;stroke-linejoin:round;stroke-miterlimit:2.414;stroke-dasharray:none;stroke-opacity:1;visibility:visible"/><path d="M325.243 682.913c5.632 12.94 10.195 26.812 10.195 37.797" style="fill:none;stroke:red;stroke-width:1.99999;stroke-linecap:round;stroke-linejoin:round;stroke-miterlimit:2.414;stroke-dasharray:none;stroke-opacity:1;visibility:visible"/><path d="M305.206 645.053c2.207 3.544 8.012 13.117 13.954 24.928" style="fill:none;stroke:red;stroke-width:1.33333;stroke-linecap:round;stroke-linejoin:round;stroke-miterlimit:2.414;stroke-dasharray:none;stroke-opacity:1;visibility:visible"/><path d="m351.04 852.943.448 5.318s6.532 23.912-13.446 30.469M347.676 819.71l1.154 10.67M338.042 736.006l7.396 68.176" style="fill:none;stroke:red;stroke-width:.999997;stroke-linecap:round;stroke-linejoin:round;stroke-miterlimit:2.414;stroke-dasharray:none;stroke-opacity:1;visibility:visible"/><path d="m353.476 795.597.895 9.93M354.686 809.027l.857 9.513M355.89 822.39l.268 2.963M356.502 829.198l1.096 12.153M357.918 844.907l.99 10.967M348.8 741.022l3.81 46.583M340.347 891.042s16.473-6.842 18.79-26.108M349.012 849.186l1.088 15.244M336.12 734.85l8.302 79.18M338.427 883.33l-1.537 6.556M337.274 889.5l3.456 1.158M338.811 883.714s12.056-.772 11.289-19.284" style="fill:none;stroke:red;stroke-width:1.99999;stroke-linecap:round;stroke-linejoin:round;stroke-miterlimit:2.414;stroke-dasharray:none;stroke-opacity:1;visibility:visible"/><path d="m506.568 589.423-.33 1.66-1.552-.18M499.925 590.344l-8.664-1.017M486.715 588.796l-5.782-.677v-1.662M314.066 633.3l2.451-3.28-.204-1.229M314.067 633.3l-10.821 14.347-1.43-.207" style="fill:none;stroke:red;stroke-width:1.33333;stroke-linecap:round;stroke-linejoin:round;stroke-miterlimit:2.414;stroke-dasharray:none;stroke-opacity:1;visibility:visible"/><path d="M375.002 771.537a130.026 130.026 0 0 1 12.084-8.603M389.675 761.345c.881-.532 1.775-1.053 2.675-1.568M534.152 757.244c21.06 14.604 35.264 35.783 35.264 58.006 0 44.008-50.526 79.897-112.474 79.897-8.228 0-17.748-.821-25.482-2.017M488.237 738.413c9.955 2.135 21.711 5.963 30.386 9.887M401.783 746.184c15.525-6.308 36.488-10.826 55.159-10.826 6.488 0 13.514.282 19.705 1.036M344.468 815.25c0-21.81 16.823-45.16 42.147-60.776M414.356 889.04c-40.345-12.158-70.033-35.286-70.033-73.79" style="fill:none;stroke:red;stroke-width:1.99999;stroke-linecap:round;stroke-linejoin:round;stroke-miterlimit:2.414;stroke-dasharray:none;stroke-opacity:1;visibility:visible"/><path d="M522.697 759.465c6.607 3.584 12.768 7.715 18.304 12.292M544.195 774.506a93.378 93.378 0 0 1 8.524 8.69M554.587 785.45a79.898 79.898 0 0 1 3.798 5.152M560.675 794.21a66.592 66.592 0 0 1 4.192 8.289M566.452 806.71c1.844 5.523 2.836 11.223 2.836 17.023 0 44.005-50.528 79.896-112.476 79.896-8.226 0-17.185-.634-24.92-1.834M486.119 746.834c2.66.563 8.836 1.847 12.338 2.8M419.87 749.236c10.96-2.912 23.971-5.298 36.176-5.394M459.898 743.896c4.754.169 9.95.68 14.512 1.198M414.227 897.707c-40.344-12.157-69.885-35.469-69.887-73.974 0-17.41 10.751-35.31 28.088-50.067" style="fill:none;stroke:red;stroke-width:1.99999;stroke-linecap:round;stroke-linejoin:round;stroke-miterlimit:2.414;stroke-dasharray:none;stroke-opacity:1;visibility:visible"/><path d="m476.537 736.306 12.787 2.366" style="fill:none;stroke:red;stroke-width:.999997;stroke-linecap:round;stroke-linejoin:round;stroke-miterlimit:2.414;stroke-dasharray:none;stroke-opacity:1;visibility:visible"/><path d="m477.96 745.722 4.187.59" style="fill:none;stroke:red;stroke-width:.666665;stroke-linecap:round;stroke-linejoin:round;stroke-miterlimit:2.414;stroke-dasharray:none;stroke-opacity:1;visibility:visible"/><path d="M552.658 854.82c10.552-18.882-39.358-10.481-39.358-10.481s30.12 27.012 39.36 10.482l-.002-.001M540.208 824.985c-17.653-9.627-26.908 19.354-26.908 19.354s45.383-9.273 26.908-19.354" style="fill:none;stroke:red;stroke-width:1.33333;stroke-linecap:round;stroke-linejoin:round;stroke-miterlimit:2.414;stroke-dasharray:none;stroke-opacity:1;visibility:visible"/><path d="M498.677 816.55c17.519-11.127 14.623 27.79 14.623 27.79s-34.303-15.29-14.623-27.79M514.504 768.946c17.023-6.77 12.05 24.996 12.05 24.996s-33.338-16.53-12.051-24.996h.001M530.971 874.979C506.857 892.375 513.3 844.34 513.3 844.34s30.522 21.363 17.67 30.64l.001-.001" style="fill:none;stroke:red;stroke-width:1.33333;stroke-linecap:round;stroke-linejoin:round;stroke-miterlimit:2.414;stroke-dasharray:none;stroke-opacity:1;visibility:visible"/><path d="M484.38 869.334c-20.484-15.89 28.921-24.995 28.921-24.995s-11.249 38.702-28.921 24.995M471.53 836.678c7.52-12.268 41.77 7.661 41.77 7.661s-51.408 8.063-41.77-7.661M565.91 796.763c7.655 22.188-39.356-2.82-39.356-2.82s35.743-7.661 39.358 2.819l-.002.001" style="fill:none;stroke:red;stroke-width:1.33333;stroke-linecap:round;stroke-linejoin:round;stroke-miterlimit:2.414;stroke-dasharray:none;stroke-opacity:1;visibility:visible"/><path d="M541.011 821.357c-19.987 3.344-14.458-27.415-14.458-27.415s33.737 24.192 14.458 27.416v-.001M500.045 812.892c-16.852-8.295 26.508-18.951 26.508-18.951s-6.025 29.029-26.508 18.951" style="fill:none;stroke:red;stroke-width:1.33333;stroke-linecap:round;stroke-linejoin:round;stroke-miterlimit:2.414;stroke-dasharray:none;stroke-opacity:1;visibility:visible"/><path d="M488.8 786.282c9.21-9.532 37.753 7.66 37.753 7.66s-50.606 5.644-37.753-7.66M467.915 839.5c-11.273-16.765-33.335 20.563-33.335 20.563s44.177-4.436 33.335-20.563M551.455 774.994c-14.335-10.792-24.902 18.948-24.902 18.948s40.967-6.852 24.902-18.948" style="fill:none;stroke:red;stroke-width:1.33333;stroke-linecap:round;stroke-linejoin:round;stroke-miterlimit:2.414;stroke-dasharray:none;stroke-opacity:1;visibility:visible"/><path d="M466.308 835.066c-20.482.404-8.836-27.415-8.836-27.415l15.548 8.382c4.256 2.167 6.904 3.967 10.157 3.31 28.875-5.853.403-14.113.403-14.113-3.976-.52-26.508 2.421-26.508 2.421M473.94 786.686c-7.23.404-16.868 20.965-16.868 20.965s12.316-1.929 16.733-5.96M445.023 781.041c18.325-8.797 12.05 26.208 12.05 26.208s-30.527-17.337-12.051-26.209l.001.001M414.5 885.462s-7.231 5.241-12.853-5.647M412.49 868.529s-13.655 4.433-10.442 11.286M413.296 861.675s-18.344 2.208-18.074-8.465M412.49 845.952s-17.269-5.244-17.269 7.256M430.564 830.63c17.27 3.225 4.016 29.433 4.016 29.433s-3.213-5.242-3.213-10.081M444.22 893.926c25.573-3.823-9.64-33.863-9.64-33.863s-9.237 36.687 9.64 33.862v.001" style="fill:none;stroke:red;stroke-width:1.33333;stroke-linecap:round;stroke-linejoin:round;stroke-miterlimit:2.414;stroke-dasharray:none;stroke-opacity:1;visibility:visible"/><path d="M479.16 870.14c9.101-18.27-44.58-10.076-44.58-10.076s35.341 28.622 44.58 10.077v-.001M466.308 835.066c22.09-.404-9.236-27.415-9.236-27.415s-25.705 4.432-26.508 6.852M376.344 793.137c19.283-7.212 7.012 25.582 7.012 25.582s-27.496-17.919-7.012-25.582M457.073 807.651l-25.706 1.21" style="fill:none;stroke:red;stroke-width:1.33333;stroke-linecap:round;stroke-linejoin:round;stroke-miterlimit:2.414;stroke-dasharray:none;stroke-opacity:1;visibility:visible"/><path d="M430.966 828.613c9.236 8.065 26.106-20.963 26.106-20.963s-20.885-12.499-26.91-12.499M347.83 810.473c6.932-11.599 35.74 8.246 35.74 8.246s-45.38 7.881-35.74-8.246" style="fill:none;stroke:red;stroke-width:1.33333;stroke-linecap:round;stroke-linejoin:round;stroke-miterlimit:2.414;stroke-dasharray:none;stroke-opacity:1;visibility:visible"/><path d="M394.418 847.563c-24.868 7.282-10.846-29.026-10.846-29.026s30.124 23.382 10.846 29.026M349.838 837.483c-8.024-10.883 33.518-18.763 33.518-18.763s-18.658 38.922-33.518 18.763" style="fill:none;stroke:red;stroke-width:1.33333;stroke-linecap:round;stroke-linejoin:round;stroke-miterlimit:2.414;stroke-dasharray:none;stroke-opacity:1;visibility:visible"/><path d="M411.286 799.99c-9.238-8.465-27.93 18.73-27.93 18.73s24.315-3.007 28.331-7.846M373.532 764.916c10.268-12.964 31.832 7.82 31.832 7.82s-44.28 7.904-31.832-7.82" style="fill:none;stroke:red;stroke-width:1.33333;stroke-linecap:round;stroke-linejoin:round;stroke-miterlimit:2.414;stroke-dasharray:none;stroke-opacity:1;visibility:visible"/><path d="M412.09 818.537h-28.518s22.492 19.349 28.919 14.513M426.162 771.194c6.028-.897 18.36-1.808 18.058 5.818M427.835 782.345c5.213 1.419 15.683 3.233 15.984-4.93M405.364 772.736s-6.93 23.222 3.111 24.834M381.967 790.717c-18.245-12.21 23.397-17.981 23.397-17.981s-10.142 26.85-23.397 17.98v.001M500.435 751.097s7.1-4.87-5.207-7.953M479.563 752.417s6.024-10.483 15.665-9.273M474.744 752.014s6.424-14.918-9.641-15.32M465.95 752.923s-19.068-16.026-.847-16.229M437.794 751.61s12.048-5.644 18.876 1.21M424.941 768.542s10.041-.402 12.854-5.238M506.07 762.092s5.221 2.823 2.811 8.467M486.79 767.737s18.075 11.288 22.09 3.225M485.707 772.673s9.521 8.773-.52 11.997M472.733 764.512s-4.817 17.336 1.208 18.544M470.725 764.512s-5.22 20.562-19.277 15.32" style="fill:none;stroke:red;stroke-width:1.33333;stroke-linecap:round;stroke-linejoin:round;stroke-miterlimit:2.414;stroke-dasharray:none;stroke-opacity:1;visibility:visible"/><path d="M462.694 764.512s-30.122 9.676-11.246 15.32M485.707 772.673l-8.772-8.2M473.805 783.255s7.642 2.095 11.382 1.415M473.805 801.691s14.965-11.608.682-14.34" style="fill:none;stroke:red;stroke-width:1.33333;stroke-linecap:round;stroke-linejoin:round;stroke-miterlimit:2.414;stroke-dasharray:none;stroke-opacity:1;visibility:visible"/><path d="m309.277 624.885 5.353 2.108s-10.544 9.408-14.112 18.167l-5.028-1.46s5.028-11.03 13.787-18.815" style="fill:none;fill-opacity:1;fill-rule:evenodd;stroke:red;stroke-width:1.33333;visibility:visible"/><path d="M498.726 586.103c2.401.274 4.638.554 6.398.816M507.543 585.576l.431-1.89s-1.971-.308-4.859-.726M496.637 582.068c-5.485-.715-11.506-1.379-14.453-1.301l-.974 3.568s4.697.42 10.22.982M309.277 624.885l5.353 2.108s-10.544 9.408-14.112 18.167l-5.028-1.46s5.028-11.03 13.787-18.815" style="fill:none;stroke:red;stroke-width:.999997;stroke-linecap:round;stroke-linejoin:round;stroke-miterlimit:2.414;stroke-dasharray:none;stroke-opacity:1;visibility:visible"/><path d="m600.787 720.022 5.087 2.656s10.466-8.058 14.383-13.276l-5.752-2.434s-7.524 8.629-13.718 13.054" style="fill:none;fill-opacity:1;fill-rule:evenodd;stroke:red;stroke-width:1.33333;visibility:visible"/><path d="m600.787 720.022 5.087 2.656s10.466-8.058 14.383-13.276l-5.752-2.434s-7.524 8.629-13.718 13.054" style="fill:none;stroke:red;stroke-width:.999997;stroke-linecap:round;stroke-linejoin:round;stroke-miterlimit:2.414;stroke-dasharray:none;stroke-opacity:1;visibility:visible"/><path d="m397.434 747.14-3.191 4.31s16.91 4.627 33.025 6.223l1.756-4.47s-17.869-1.753-31.59-6.061" style="fill:none;fill-opacity:1;fill-rule:evenodd;stroke:red;stroke-width:1.33333;visibility:visible"/><path d="m397.434 747.14-3.191 4.31s16.91 4.627 33.025 6.223l1.756-4.47s-17.869-1.753-31.59-6.061v-.002" style="fill:none;stroke:red;stroke-width:.999997;stroke-linecap:round;stroke-linejoin:round;stroke-miterlimit:2.414;stroke-dasharray:none;stroke-opacity:1;visibility:visible"/><path d="m432.923 579.195-15.601 1.566M417.322 580.761l15.601-1.566M503.115 582.96l-2.978-2.097M500.137 580.863l5.229.707M531.59 586.507l-5.414-1.22M526.176 585.287l5.414 1.22" style="fill:none;stroke:red;stroke-width:1.33333;stroke-linecap:round;stroke-linejoin:round;stroke-miterlimit:2.414;stroke-dasharray:none;stroke-opacity:1;visibility:visible"/><path d="m624.261 655.376 9.78-3.268M300.586 649.788l-9.891-1.363" style="fill:none;stroke:red;stroke-width:1.99999;stroke-linecap:round;stroke-linejoin:round;stroke-miterlimit:2.414;stroke-dasharray:none;stroke-opacity:1;visibility:visible"/><path d="m290.695 648.425 9.891 1.363M433.18 586.572l-15.864 1.64M417.316 588.212l15.864-1.64M491.261 589.327l-1.561-2.183M491.43 585.317l3.162 2.343M504.686 590.903l-1.562-2.156M521.881 592.02l-5.189-1.032M516.692 590.988l5.189 1.032M634.041 652.108l-9.78 3.268" style="fill:none;stroke:red;stroke-width:1.33333;stroke-linecap:round;stroke-linejoin:round;stroke-miterlimit:2.414;stroke-dasharray:none;stroke-opacity:1;visibility:visible"/><path d="m410.394 1024.528 10.201 3.415" style="fill:none;stroke:red;stroke-width:.999997;stroke-linecap:round;stroke-linejoin:round;stroke-miterlimit:2.414;stroke-dasharray:none;stroke-opacity:1;visibility:visible"/><path d="m478.725 710.198-.435 8.202" style="fill:none;stroke:red;stroke-width:1.99999;stroke-linecap:round;stroke-linejoin:round;stroke-miterlimit:2.414;stroke-dasharray:none;stroke-opacity:1;visibility:visible"/><path d="m497.067 602.887-8.9-11.586M486.731 601.865l.634-4.67M487.365 597.195l-.634 4.67M485.127 613.663l.682-5.023M485.809 608.64l-.682 5.023M478.29 718.4l.435-8.202" style="fill:none;stroke:red;stroke-width:1.33333;stroke-linecap:round;stroke-linejoin:round;stroke-miterlimit:2.414;stroke-dasharray:none;stroke-opacity:1;visibility:visible"/><path d="m488.165 709.77-.526 8.22M486.119 746.789l.218-8.444" style="fill:none;stroke:red;stroke-width:.999997;stroke-linecap:round;stroke-linejoin:round;stroke-miterlimit:2.414;stroke-dasharray:none;stroke-opacity:1;visibility:visible"/><path d="m487.657 747.11-1.978 4.626M499.257 601.548l-1.137-6.449M498.693 605.764l-1.626-2.877M497.067 602.887l-.599 4.426M487.639 717.99l.526-8.22" style="fill:none;stroke:red;stroke-width:.666665;stroke-linecap:round;stroke-linejoin:round;stroke-miterlimit:2.414;stroke-dasharray:none;stroke-opacity:1;visibility:visible"/><path d="m488.165 709.77 1.423 9.104" style="fill:none;stroke:red;stroke-width:1.99999;stroke-linecap:round;stroke-linejoin:round;stroke-miterlimit:2.414;stroke-dasharray:none;stroke-opacity:1;visibility:visible"/><path d="m497.067 602.887 3.217-9.002M498.693 605.764l.564-4.216M497.067 602.887l1.626 2.877M487.639 717.99l2.567-8.732" style="fill:none;stroke:red;stroke-width:1.33333;stroke-linecap:round;stroke-linejoin:round;stroke-miterlimit:2.414;stroke-dasharray:none;stroke-opacity:1;visibility:visible"/><path d="m484.471 769.649-9.331-5.216M474.441 784.462l.084-2.377M474.525 782.085l-.084 2.377M474.288 788.906l.113-3.26M474.401 785.646l-.113 3.26M473.804 802.83l.112-3.256M473.916 799.574l-.112 3.256M473.649 807.27l.102-2.964M473.751 804.306l-.102 2.964M473.14 817.941l.096-3.556M473.236 814.385l-.096 3.556M485.679 751.736l1.978-4.626M486.119 746.789l1.141 5.477" style="fill:none;stroke:red;stroke-width:1.99999;stroke-linecap:round;stroke-linejoin:round;stroke-miterlimit:2.414;stroke-dasharray:none;stroke-opacity:1;visibility:visible"/><path d="m486.2 770.86-1.31-6.955M485.707 772.673l-1.236-3.024M486.2 770.86l-2.008 2.613M483.284 785.941l.258-2.913M483.542 783.028l-.258 2.913M481.728 807.266l.239-3.266M481.967 804l-.239 3.266M482.301 821.474l-1.365-3.343" style="fill:none;stroke:red;stroke-width:.999997;stroke-linecap:round;stroke-linejoin:round;stroke-miterlimit:2.414;stroke-dasharray:none;stroke-opacity:1;visibility:visible"/><path d="m484.471 769.649 2.262-5.743M485.707 772.673l.493-1.813M486.2 770.86l-.32 4.113M485.037 785.94l.273-3.557M483.542 783.028l1.495 2.912M483.395 807.281l.251-3.278M483.646 804.003l-.251 3.278M482.301 821.474l.296-3.834M480.936 818.131l1.365 3.343" style="fill:none;stroke:red;stroke-width:1.99999;stroke-linecap:round;stroke-linejoin:round;stroke-miterlimit:2.414;stroke-dasharray:none;stroke-opacity:1;visibility:visible"/><path d="m325.243 682.913-2.78-10.707M337.639 681.945l-9.549 2.319" style="fill:none;stroke:red;stroke-width:.666665;stroke-linecap:round;stroke-linejoin:round;stroke-miterlimit:2.414;stroke-dasharray:none;stroke-opacity:1;visibility:visible"/><path d="m337.639 681.945 3.423 9.515M338.042 736.006l10.202-8.44" style="fill:none;stroke:red;stroke-width:1.99999;stroke-linecap:round;stroke-linejoin:round;stroke-miterlimit:2.414;stroke-dasharray:none;stroke-opacity:1;visibility:visible"/><path d="m328.09 684.264 9.549-2.319" style="fill:none;stroke:red;stroke-width:1.33333;stroke-linecap:round;stroke-linejoin:round;stroke-miterlimit:2.414;stroke-dasharray:none;stroke-opacity:1;visibility:visible"/><path d="m322.463 672.206 2.78 10.707" style="fill:none;stroke:red;stroke-width:1.99999;stroke-linecap:round;stroke-linejoin:round;stroke-miterlimit:2.414;stroke-dasharray:none;stroke-opacity:1;visibility:visible"/><path d="m325.243 682.913-6.083-12.932" style="fill:none;stroke:red;stroke-width:1.33333;stroke-linecap:round;stroke-linejoin:round;stroke-miterlimit:2.414;stroke-dasharray:none;stroke-opacity:1;visibility:visible"/><path d="m358.908 855.874-7.868-2.931M344.422 814.03l3.254 5.68M356.502 829.198l-7.672 1.182M348.244 727.566l-10.202 8.44M354.686 809.027l-9.248-4.845" style="fill:none;stroke:red;stroke-width:.999997;stroke-linecap:round;stroke-linejoin:round;stroke-miterlimit:2.414;stroke-dasharray:none;stroke-opacity:1;visibility:visible"/><path d="m352.61 787.605.866 7.992M354.686 809.027l-.315-3.5M354.371 805.527l.315 3.5M355.89 822.39l-.347-3.85M355.543 818.54l.347 3.85M356.502 829.198l-.344-3.845M356.158 825.353l.344 3.845M357.918 844.907l-.32-3.556M357.598 841.351l.32 3.556M351.04 852.943l7.868 2.931M348.244 727.566l.556 13.456M353.476 795.597l-.866-7.992M357.598 841.351l-8.586 7.835M348.244 727.566l-12.124 7.284M347.676 819.71l-3.254-5.68" style="fill:none;stroke:red;stroke-width:1.99999;stroke-linecap:round;stroke-linejoin:round;stroke-miterlimit:2.414;stroke-dasharray:none;stroke-opacity:1;visibility:visible"/><path d="m503.124 588.747 1.562 2.156M498.726 586.103l1.199 4.241M489.7 587.144l1.561 2.183M491.261 589.327l-4.546-.531" style="fill:none;stroke:red;stroke-width:1.33333;stroke-linecap:round;stroke-linejoin:round;stroke-miterlimit:2.414;stroke-dasharray:none;stroke-opacity:1;visibility:visible"/><path d="m372.428 773.666 2.574-2.129M389.675 761.345l-2.589 1.589M387.086 762.934l2.589-1.589M541.001 771.757l-6.849-14.513M522.697 759.465l-4.074-11.165M389.675 761.345l-3.06-6.871M518.623 748.3l4.074 11.165M544.195 774.506l-3.194-2.749M541.001 771.757l3.194 2.749M554.587 785.45l-1.868-2.254M552.719 783.196l1.868 2.254M560.675 794.21l-2.29-3.608M558.385 790.602l2.29 3.608M566.452 806.71l-1.585-4.211M564.867 802.499l1.585 4.211M495.228 743.144l3.229 6.49M424.941 768.542l-5.071-19.306M459.898 743.896l-3.852-.054M456.046 743.842l3.852.054M477.96 745.722l-3.55-.628M375.002 771.537l-2.574 2.129" style="fill:none;stroke:red;stroke-width:1.99999;stroke-linecap:round;stroke-linejoin:round;stroke-miterlimit:2.414;stroke-dasharray:none;stroke-opacity:1;visibility:visible"/><path d="m488.237 738.413 1.087.259" style="fill:none;stroke:red;stroke-width:.999997;stroke-linecap:round;stroke-linejoin:round;stroke-miterlimit:2.414;stroke-dasharray:none;stroke-opacity:1;visibility:visible"/><path d="m474.41 745.094 3.55.628M486.119 746.834l-3.972-.522" style="fill:none;stroke:red;stroke-width:.666665;stroke-linecap:round;stroke-linejoin:round;stroke-miterlimit:2.414;stroke-dasharray:none;stroke-opacity:1;visibility:visible"/><path d="m564.867 802.499 1.043-5.736M544.195 774.506l7.26.488M541.001 771.757l10.454 3.237M518.623 748.3l-12.553 13.792M470.725 764.512h2.008M472.733 764.512h-2.008M465.95 752.923l-3.256 11.589" style="fill:none;stroke:red;stroke-width:1.33333;stroke-linecap:round;stroke-linejoin:round;stroke-miterlimit:2.414;stroke-dasharray:none;stroke-opacity:1;visibility:visible"/><path d="m499.925 590.344-1.199-4.241M507.301 589.368l-2.177-2.449M506.568 589.423l.975-3.847M500.137 580.863l2.978 2.097M498.726 586.103l-2.089-4.035M494.592 587.66l-3.162-2.343" style="fill:none;stroke:red;stroke-width:.999997;stroke-linecap:round;stroke-linejoin:round;stroke-miterlimit:2.414;stroke-dasharray:none;stroke-opacity:1;visibility:visible"/><path d="M638.218 625.396c-.888 51.316-79.554 92.148-177.063 90.46-97.385-1.691-175.588-44.772-174.7-95.908l.35-1.665c.884-50.553 80.225-90.179 177.22-88.51 96.991 1.67 175.044 44.003 174.16 94.555l.033 1.068" style="fill:none;stroke:#00ff4a;stroke-width:1.99999;stroke-linecap:round;stroke-linejoin:round;stroke-miterlimit:2.414;stroke-dasharray:none;stroke-opacity:1;visibility:visible"/><path d="M638.045 624.328c-.884 50.552-80.225 90.178-177.218 88.509-96.993-1.667-174.905-44.003-174.022-94.554" style="fill:none;stroke:#00ff4a;stroke-width:.999997;stroke-linecap:round;stroke-linejoin:round;stroke-miterlimit:2.414;stroke-dasharray:none;stroke-opacity:1;visibility:visible"/><path d="m529.92 585.545-120.396 69.508M513.595 584.179l-80.675 46.576M519.036 571.89l-114.269 65.972" style="fill:none;stroke:#00ff4a;stroke-width:.666665;stroke-linecap:round;stroke-linejoin:round;stroke-miterlimit:2.414;stroke-dasharray:none;stroke-opacity:1;visibility:visible"/><path d="m638.045 624.328.173 1.068" style="fill:none;stroke:#00ff4a;stroke-width:1.99999;stroke-linecap:round;stroke-linejoin:round;stroke-miterlimit:2.414;stroke-dasharray:none;stroke-opacity:1;visibility:visible"/><path d="m638.218 625.396-.173-1.068" style="fill:none;stroke:#00ff4a;stroke-width:.999997;stroke-linecap:round;stroke-linejoin:round;stroke-miterlimit:2.414;stroke-dasharray:none;stroke-opacity:1;visibility:visible"/><path d="m473.14 817.941 7.824 3.553" style="fill:none;stroke:red;stroke-width:.999997;stroke-linecap:round;stroke-linejoin:round;stroke-miterlimit:2.414;stroke-dasharray:none;stroke-opacity:1;visibility:visible"/><path d="m348.244 727.566-12.806-6.856" style="fill:none;stroke:red;stroke-width:1.99999;stroke-linecap:round;stroke-linejoin:round;stroke-miterlimit:2.414;stroke-dasharray:none;stroke-opacity:1;visibility:visible"/><path d="m300.586 649.788 1.23-2.348" style="fill:none;stroke:red;stroke-width:1.33333;stroke-linecap:round;stroke-linejoin:round;stroke-miterlimit:2.414;stroke-dasharray:none;stroke-opacity:1;visibility:visible"/><path d="m387.086 762.934 5.264-3.157" style="fill:none;stroke:red;stroke-width:1.99999;stroke-linecap:round;stroke-linejoin:round;stroke-miterlimit:2.414;stroke-dasharray:none;stroke-opacity:1;visibility:visible"/><path d="m487.657 747.11-12.913 4.904M484.471 769.649l2.319-1.912" style="fill:none;stroke:red;stroke-width:1.33333;stroke-linecap:round;stroke-linejoin:round;stroke-miterlimit:2.414;stroke-dasharray:none;stroke-opacity:1;visibility:visible"/></svg>