<svg xmlns="http://www.w3.org/2000/svg" baseProfile="full" height="1122.52" preserveAspectRatio="xMinYMin meet" style="width:602px;height:832px" width="793.701" xml:space="preserve"><path d="m500.733 145.901 4.39-9.296-6.615-1.95" style="fill:none;stroke:red;stroke-width:1.99999;stroke-linecap:round;stroke-linejoin:round;stroke-miterlimit:2.414;stroke-dasharray:none;stroke-opacity:1;visibility:visible" visibility="hidden"/><path d="m498.508 134.656-6.016 9.774 8.241 1.471" style="fill:none;stroke:red;stroke-width:.999997;stroke-linecap:round;stroke-linejoin:round;stroke-miterlimit:2.414;stroke-dasharray:none;stroke-opacity:1;visibility:visible" visibility="hidden"/><path d="M498.509 134.656s-36.557 18.746-45.863 65.66M449.487 216.004l-.203 1.005-25.262 141.794s-5.48 33.485 12.66 56.768" style="fill:none;stroke:red;stroke-width:1.99999;stroke-linecap:round;stroke-linejoin:round;stroke-miterlimit:2.414;stroke-dasharray:none;stroke-opacity:1;visibility:visible" visibility="hidden"/><path d="M430.771 357.04s-8.391 29.178 10.989 58.351M492.492 144.43s-28.657 15.152-39.988 56.692" style="fill:none;stroke:red;stroke-width:.999997;stroke-linecap:round;stroke-linejoin:round;stroke-miterlimit:2.414;stroke-dasharray:none;stroke-opacity:1;visibility:visible" visibility="hidden"/><path d="M441.46 405.783s-16.785-22.632-9.825-55.02l23.967-133.45M459.152 201.356c12.218-41.906 41.581-55.456 41.581-55.456" style="fill:none;stroke:red;stroke-width:1.99999;stroke-linecap:round;stroke-linejoin:round;stroke-miterlimit:2.414;stroke-dasharray:none;stroke-opacity:1;visibility:visible" visibility="hidden"/><path d="M437.854 417.81c.582-.384 1.356-.266 1.73.264.374.53.206 1.27-.378 1.656-.586.385-1.358.265-1.732-.264-.372-.53-.204-1.27.38-1.656M437.524 415.912l3.974-.52" style="fill:none;stroke:red;stroke-width:.999997;stroke-linecap:round;stroke-linejoin:round;stroke-miterlimit:2.414;stroke-dasharray:none;stroke-opacity:1;visibility:visible" visibility="hidden"/><path d="M435.358 414.343v6.668c-.075 1.925 6.74 1.925 6.666-.519v-19.76c0-1.084-1.822-1.66-3.561-1.564M525.96 244.98a809.509 809.509 0 0 1 21.453 2.465s2.402.281 6.242.785" style="fill:none;stroke:red;stroke-width:1.99999;stroke-linecap:round;stroke-linejoin:round;stroke-miterlimit:2.414;stroke-dasharray:none;stroke-opacity:1;visibility:visible" visibility="hidden"/><path d="M551.508 270.217c.556.316 1.528.073 1.861-.51.332-.586.047-1.547-.509-1.865-.666-.379-1.52-.128-1.88.501a1.395 1.395 0 0 0 .528 1.874M547.253 275.354l-.522-.936.893-1.567 6.987 3.984-.474.835-6.19-3.531-.694 1.215M545.576 201.374h-1.828v3.962h-2.087v-3.962h-8.18v-1.944l8.474-11.157h1.793v11.156h1.828v1.945" style="fill:none;fill-opacity:1;fill-rule:nonzero;stroke:red;stroke-width:1.33333;visibility:visible" visibility="hidden"/><path d="M541.661 199.429v-7.605l-5.753 7.605h5.753" style="fill:none;fill-opacity:1;fill-rule:nonzero;stroke:red;stroke-width:1.33333;visibility:visible" visibility="hidden"/><path d="M531.968 221.072a75.656 75.656 0 0 1 8.06-13.206" style="fill:none;stroke:red;stroke-width:.999997;stroke-linecap:round;stroke-linejoin:round;stroke-miterlimit:2.414;stroke-dasharray:none;stroke-opacity:1;visibility:visible" visibility="hidden"/><path d="M549.257 309s-13.04 2.875-15.533 2.395c-2.492-.465-10.681-17.475-6.545-20.425 4.134-2.967 15.36-4.752 16.697-3.333 1.332 1.413 15.841 6.765 5.381 21.362V309" style="fill:none;stroke:red;stroke-width:.666665;stroke-linecap:round;stroke-linejoin:round;stroke-miterlimit:4;stroke-dasharray:none;stroke-opacity:1;visibility:visible" visibility="hidden"/><path d="m452.504 201.122-3.017 14.882M441.76 415.391l-.3-9.608M452.646 200.316l2.956 16.997M449.487 216.004l9.665-14.648M441.498 415.392l-3.035-16.224" style="fill:none;stroke:red;stroke-width:1.99999;stroke-linecap:round;stroke-linejoin:round;stroke-miterlimit:2.414;stroke-dasharray:none;stroke-opacity:1;visibility:visible" visibility="hidden"/><path d="M221.463 227.336a131.642 131.642 0 0 1 9.924-4.507s8.395-3.39 17.748-6.044a150.109 150.109 0 0 1 10.91-2.659M263.43 213.472c3.308-.603 6.67-1.108 10.09-1.522M277.398 211.525a201.76 201.76 0 0 1 11.419-.797M292.838 210.594c1.939-.046 3.9-.07 5.884-.07 1.724.001 3.443.023 5.15.066M307.586 210.72c5.496.244 10.892.71 16.164 1.389M329.12 212.877c8.355 1.32 16.36 3.168 23.892 5.483M356.187 219.373a148.42 148.42 0 0 1 9.47 3.487M369.203 224.364a128.925 128.925 0 0 1 6.913 3.293M380.168 229.838a106.852 106.852 0 0 1 7.372 4.55M390.983 236.823c15.395 11.412 24.804 25.747 25.29 41.389.547 17.521-10.896 34.33-29.081 46.77l-9.634 5.615c-20.944 11.003-49.232 18.068-79.51 18.22-14.206.075-26.114-1.019-38.739-3.782-.002-.001-3.792-.751-9.785-2.378M245.708 341.581a214.804 214.804 0 0 1-3.515-1.056c-1.45-.45-2.883-.916-4.294-1.402M215.543 329.087c-22.386-12.892-35.837-31.125-35.031-50.876.604-14.757 9.014-28.34 22.86-39.397" style="fill:none;stroke:#00ff4a;stroke-width:1.99999;stroke-linecap:round;stroke-linejoin:round;stroke-miterlimit:2.414;stroke-dasharray:none;stroke-opacity:1;visibility:visible" visibility="hidden"/><path d="M201.548 235.033a75.477 75.477 0 0 0-2.244 1.952l-6.284 6.737c-7.558 8.81-11.856 18.465-12.284 28.953-.802 19.6 12.374 37.542 34.443 50.412M218.866 223.513a133.802 133.802 0 0 1 10.648-5.09c9.627-3.953 18.056-6.341 18.056-6.341 15.501-4.397 32.873-6.866 51.176-6.866 9.924 0 19.601.641 28.848 2.002l4.726.556 6.027 1.102c44.385 9.402 76.841 34.502 77.753 63.8.582 18.699-12.244 36.304-32.791 49.045l-10.292 5.411c-20.241 9.553-47.007 15.908-74.941 15.908-14.344 0-26.371-1.365-39.092-4.133l-10.259-2.177-6.75-1.953a161.551 161.551 0 0 1-4.41-1.474" style="fill:none;stroke:#00ff4a;stroke-width:1.99999;stroke-linecap:round;stroke-linejoin:round;stroke-miterlimit:2.414;stroke-dasharray:none;stroke-opacity:1;visibility:visible" visibility="hidden"/><path d="M250.075 338.637c.822.469 1.171 1.413.78 2.105-.389.693-1.37.876-2.192.408-.82-.47-1.169-1.412-.778-2.105.392-.691 1.372-.876 2.19-.408M329.233 208.648c.82.469 1.17 1.412.78 2.104-.39.694-1.371.877-2.193.408-.82-.469-1.17-1.411-.78-2.104.395-.692 1.376-.876 2.194-.408h-.001" style="fill:none;stroke:#00ff4a;stroke-width:.999997;stroke-linecap:round;stroke-linejoin:round;stroke-miterlimit:2.414;stroke-dasharray:none;stroke-opacity:1;visibility:visible" visibility="hidden"/><path d="M302.055 207.268c-13.634-7.672-14.92 19.82-14.92 19.82s29.442-11.648 14.92-19.82M263.627 210.894c9.626-10.844 23.258 16.423 23.258 16.423s-34.583-3.664-23.258-16.423" style="fill:none;stroke:#00ff4a;stroke-width:1.33333;stroke-linecap:round;stroke-linejoin:round;stroke-miterlimit:2.414;stroke-dasharray:none;stroke-opacity:1;visibility:visible" visibility="hidden"/><path d="M251.847 234.44c-2.234-12.64 35.038-7.122 35.038-7.122s-32.791 19.838-35.038 7.122" style="fill:none;stroke:#00ff4a;stroke-width:1.33333;stroke-linecap:round;stroke-linejoin:round;stroke-miterlimit:2.414;stroke-dasharray:none;stroke-opacity:1;visibility:visible" visibility="hidden"/><path d="M313.62 242.06c-12.14 10.982-26.736-14.743-26.736-14.743s35.666 6.663 26.735 14.743h.001" style="fill:none;stroke:#00ff4a;stroke-width:1.33333;stroke-linecap:round;stroke-linejoin:round;stroke-miterlimit:2.414;stroke-dasharray:none;stroke-opacity:1;visibility:visible" visibility="hidden"/><path d="M273.24 249.248c-16.116-6.134 13.644-21.931 13.644-21.931s2.259 27.987-13.645 21.93l.001.001" style="fill:none;stroke:#00ff4a;stroke-width:1.33333;stroke-linecap:round;stroke-linejoin:round;stroke-miterlimit:2.414;stroke-dasharray:none;stroke-opacity:1;visibility:visible" visibility="hidden"/><path d="M276.958 250.877c17.852-5.745 21.863 17.07 21.863 17.07s-41.422-10.776-21.863-17.07M316.22 217.95c-10.542-.676-29.334 9.367-29.334 9.367s30.992 7.513 35.677-.672" style="fill:none;stroke:#00ff4a;stroke-width:1.33333;stroke-linecap:round;stroke-linejoin:round;stroke-miterlimit:2.414;stroke-dasharray:none;stroke-opacity:1;visibility:visible" visibility="hidden"/><path d="M258.631 272.894c-5.141-14.207 40.44-4.947 40.44-4.947s-35.385 18.918-40.44 4.947" style="fill:none;stroke:#00ff4a;stroke-width:1.33333;stroke-linecap:round;stroke-linejoin:round;stroke-miterlimit:2.414;stroke-dasharray:none;stroke-opacity:1;visibility:visible" visibility="hidden"/><path d="M314.86 246.463c-17.792-8.863-16.037 21.487-16.037 21.487s30.514-14.28 16.037-21.488v.001M281.78 292.823c-19.24-3.872 17.043-24.873 17.043-24.873s3.149 28.94-17.043 24.873" style="fill:none;stroke:#00ff4a;stroke-width:1.33333;stroke-linecap:round;stroke-linejoin:round;stroke-miterlimit:2.414;stroke-dasharray:none;stroke-opacity:1;visibility:visible" visibility="hidden"/><path d="M334.646 264.66c-2.088-14.494-35.824 3.29-35.824 3.29s36.641 7.1 35.824-3.29M363.172 218.878c-16.029-8.856-9.52 21.078-9.52 21.078s23.671-13.258 9.52-21.078M325.865 225.461c13.94-11.556 27.34 14.703 27.34 14.703s-39.811-4.364-27.339-14.704l-.001.001" style="fill:none;stroke:#00ff4a;stroke-width:1.33333;stroke-linecap:round;stroke-linejoin:round;stroke-miterlimit:2.414;stroke-dasharray:none;stroke-opacity:1;visibility:visible" visibility="hidden"/><path d="M328.475 285.678c12.332-11.773-29.653-17.728-29.653-17.728s14.53 31.81 29.653 17.728M316.527 245.788c-5.347-11.191 37.127-5.625 37.127-5.625s-29.912 20.724-37.127 5.627v-.002M388.387 233.108c-6.484-13.324-34.96 6.846-34.96 6.846s42.964 9.598 34.96-6.846" style="fill:none;stroke:#00ff4a;stroke-width:1.33333;stroke-linecap:round;stroke-linejoin:round;stroke-miterlimit:2.414;stroke-dasharray:none;stroke-opacity:1;visibility:visible" visibility="hidden"/><path d="M380.626 257.521c-15.326 7.898-26.972-17.359-26.972-17.359s48.928 6.044 26.972 17.359M339.524 264.051c-18.269-4.88 14.134-23.68 14.134-23.68s4.861 28.756-14.134 23.681v-.001" style="fill:none;stroke:#00ff4a;stroke-width:1.33333;stroke-linecap:round;stroke-linejoin:round;stroke-miterlimit:2.414;stroke-dasharray:none;stroke-opacity:1;visibility:visible" visibility="hidden"/><path d="M344.5 266.057c14.971-11.432 29.327 17.018 29.327 17.018s-44.854-6.308-29.327-17.018" style="fill:none;stroke:#00ff4a;stroke-width:1.33333;stroke-linecap:round;stroke-linejoin:round;stroke-miterlimit:2.414;stroke-dasharray:none;stroke-opacity:1;visibility:visible" visibility="hidden"/><path d="M373.827 283.074s-45.427-7.833-41.577 6.936M413.299 279.81c-1.217-18.076-39.476 3.072-39.476 3.072s40.593 13.509 39.477-3.072h-.001M387.8 261.223c-1.096-.629-2.625-1.12-4.676-1.432-23.809-3.625-9.306 22.9-9.306 22.9s8.072-5.484 12.841-11.13" style="fill:none;stroke:#00ff4a;stroke-width:1.33333;stroke-linecap:round;stroke-linejoin:round;stroke-miterlimit:2.414;stroke-dasharray:none;stroke-opacity:1;visibility:visible" visibility="hidden"/><path d="M332.046 289.623c4.21 18.63 41.781-6.548 41.781-6.548s-33.91 20.112-14.296 28.696" style="fill:none;stroke:#00ff4a;stroke-width:1.33333;stroke-linecap:round;stroke-linejoin:round;stroke-miterlimit:2.414;stroke-dasharray:none;stroke-opacity:1;visibility:visible" visibility="hidden"/><path d="M359.12 311.771c23.416 8.039 14.703-28.888 14.703-28.888s10.477 32.607 31.137 19.722M230.853 252.817s12.032 1.873 14.894 11.61c1.763 4.481-2.862 10.497-9.254 5.905-4.374-2.777-5.486-17.209-5.486-17.209M211.107 276.834h0c-5.364-2.52-4.289-6.287-.707-10.08M209.407 263.08c-9.542 3.338-17.957 4.27-15.109-4.445 1.472-4.504 6.923-6.454 13.215-7.123M373.823 282.883s42 12.591 31.137 19.722M229.919 236.018c.356-2.744 1.148-5.076 2.664-6.265 4.957-3.884 14.12-4.075 15.647 2.987.213.993.03 2.109-.441 3.293" style="fill:none;stroke:#00ff4a;stroke-width:1.33333;stroke-linecap:round;stroke-linejoin:round;stroke-miterlimit:2.414;stroke-dasharray:none;stroke-opacity:1;visibility:visible" visibility="hidden"/><path d="M240.307 245.548c-4.464 4.229-9.134 7.576-9.134 7.576M261.221 328.633c4.142-1.276 11.664-4.643 5.524-11.143a30.053 30.053 0 0 0-1.276-1.2M262.795 314.087c-9.805-7.573-26.937-16.402-26.937-16.402M235.858 297.685s-.27 2.378-.998 5.7M215.053 322.53a19.913 19.913 0 0 1-2.323-1.263c-3.373-2.116-2-5.404 1.352-8.861M213.737 309.626c-8.282 3.257-15.701 4.113-15.612-3.336.078-6.503 6.895-9.033 14.714-9.795M212.82 292.799c-7.506-2.848-11.99-7.096-3.57-13.139a19.84 19.84 0 0 1 2.307-1.435" style="fill:none;stroke:#00ff4a;stroke-width:1.33333;stroke-linecap:round;stroke-linejoin:round;stroke-miterlimit:2.414;stroke-dasharray:none;stroke-opacity:1;visibility:visible" visibility="hidden"/><path d="M270.013 250.22c1.32 11.486-15.867 7.527-15.867 7.527-7.063-1.337-23.133-4.777-23.133-4.777M270.013 250.22c-.354-9.883-16.744-5.482-16.744-5.482-12.866 1.936-22.256 8.231-22.256 8.231s-1.335-6.539-1.334-12.799M272.217 303.49c2.84-1.425 5.093-3.824 5.485-7.812M235.858 297.685s-3.812-17.155 2.707-22.606c5.73-5.525 11.954-5.882 16.298-4.065 12.347 6.97.887 16.776.887 16.776-4.276 3.167-19.892 9.895-19.892 9.895l4.92 24.773c.465 2.185 3.507 4.25 7.92 5.517" style="fill:none;stroke:#00ff4a;stroke-width:1.33333;stroke-linecap:round;stroke-linejoin:round;stroke-miterlimit:2.414;stroke-dasharray:none;stroke-opacity:1;visibility:visible" visibility="hidden"/><path d="M286.485 294.51c17.666-9.42 27.314 21.857 27.314 21.857s-49.246-10.157-27.313-21.857h-.001M277.551 295.818c1.944-14.48-41.693 1.867-41.693 1.867s12.423 7.589 22.488 7.589c0 0 1.75.235 4.199.2M334.373 338.753c-14.543 3.387-20.575-22.386-20.575-22.386s45.73 16.528 20.575 22.386M298.343 342.514c-21.788-2.375 15.455-26.147 15.455-26.147s6.132 28.503-15.455 26.147" style="fill:none;stroke:#00ff4a;stroke-width:1.33333;stroke-linecap:round;stroke-linejoin:round;stroke-miterlimit:2.414;stroke-dasharray:none;stroke-opacity:1;visibility:visible" visibility="hidden"/><path d="M269.41 323.798c-.433-14.957 44.388-7.43 44.388-7.43s-43.888 24.734-44.388 7.429v.001M356.11 314.054c-.462-17.293-42.312 2.083-42.312 2.083s42.777 15.357 42.312-2.083M328.042 289.487c-21.952-4.327-14.487 26.419-14.487 26.419s30.688-23.225 14.487-26.419" style="fill:none;stroke:#00ff4a;stroke-width:1.33333;stroke-linecap:round;stroke-linejoin:round;stroke-miterlimit:2.414;stroke-dasharray:none;stroke-opacity:1;visibility:visible" visibility="hidden"/><path d="m328.898 209.152-3.788 5.988" style="fill:none;stroke:#00ff4a;stroke-width:.666665;stroke-linecap:round;stroke-linejoin:round;stroke-miterlimit:2.414;stroke-dasharray:none;stroke-opacity:1;visibility:visible" visibility="hidden"/><path d="M322.305 216.578a.05.05 0 0 0 .012.024M322.462 216.179a.307.307 0 0 0-.157.399M322.731 220.954l.884 2.21M320.858 219.838l-2.368.279M322.73 220.954a.97.97 0 0 0-.132-.197M322.598 220.757a2.736 2.736 0 0 0-.68-.568 2.737 2.737 0 0 0-.824-.327M321.094 219.863a.947.947 0 0 0-.236-.025M318.49 220.117a.85.85 0 0 0-.407.357.787.787 0 0 0-.116.53M317.967 221.004c.055.421.2.803.427 1.11M318.394 222.112a5.293 5.293 0 0 0 1.543 1.406 5.293 5.293 0 0 0 1.972.686M321.91 224.204c.379.052.783 0 1.179-.152M323.089 224.052a.83.83 0 0 0 .406-.356.833.833 0 0 0 .12-.531" style="fill:none;stroke:#00ff4a;stroke-width:.999997;stroke-linecap:round;stroke-linejoin:round;stroke-miterlimit:2;stroke-dasharray:none;stroke-opacity:1;visibility:visible" visibility="hidden"/><path d="M325.035 216.852a3.417 3.417 0 0 0-2.005-.78M323.03 216.073a1.223 1.223 0 0 0-.568.105" style="fill:none;stroke:#00ff4a;stroke-width:.666665;stroke-linecap:round;stroke-linejoin:round;stroke-miterlimit:2;stroke-dasharray:none;stroke-opacity:1;visibility:visible" visibility="hidden"/><path d="M325.23 217.716a.32.32 0 0 0 .139-.124.297.297 0 0 0 .016-.276" style="fill:none;stroke:#00ff4a;stroke-width:.999997;stroke-linecap:round;stroke-linejoin:round;stroke-miterlimit:2;stroke-dasharray:none;stroke-opacity:1;visibility:visible" visibility="hidden"/><path d="M325.385 217.316a1.236 1.236 0 0 0-.35-.464" style="fill:none;stroke:#00ff4a;stroke-width:.666665;stroke-linecap:round;stroke-linejoin:round;stroke-miterlimit:2;stroke-dasharray:none;stroke-opacity:1;visibility:visible" visibility="hidden"/><path d="M321.68 217.633c.001.007.007.016.01.024M321.835 217.232a.303.303 0 0 0-.155.4M325.093 217.766c.045-.014.092-.03.137-.05" style="fill:none;stroke:#00ff4a;stroke-width:.999997;stroke-linecap:round;stroke-linejoin:round;stroke-miterlimit:2;stroke-dasharray:none;stroke-opacity:1;visibility:visible" visibility="hidden"/><path d="M324.41 217.905a3.407 3.407 0 0 0-2.003-.777M322.405 217.128a1.219 1.219 0 0 0-.57.104" style="fill:none;stroke:#00ff4a;stroke-width:.666665;stroke-linecap:round;stroke-linejoin:round;stroke-miterlimit:2;stroke-dasharray:none;stroke-opacity:1;visibility:visible" visibility="hidden"/><path d="M324.602 218.768a.304.304 0 0 0 .157-.402" style="fill:none;stroke:#00ff4a;stroke-width:.999997;stroke-linecap:round;stroke-linejoin:round;stroke-miterlimit:2;stroke-dasharray:none;stroke-opacity:1;visibility:visible" visibility="hidden"/><path d="M324.76 218.366a1.263 1.263 0 0 0-.35-.461" style="fill:none;stroke:#00ff4a;stroke-width:.666665;stroke-linecap:round;stroke-linejoin:round;stroke-miterlimit:2;stroke-dasharray:none;stroke-opacity:1;visibility:visible" visibility="hidden"/><path d="M321.054 218.685a.173.173 0 0 0 .012.023M321.21 218.285a.28.28 0 0 0-.137.123.293.293 0 0 0-.02.277M324.469 218.818a.922.922 0 0 0 .133-.05" style="fill:none;stroke:#00ff4a;stroke-width:.999997;stroke-linecap:round;stroke-linejoin:round;stroke-miterlimit:2;stroke-dasharray:none;stroke-opacity:1;visibility:visible" visibility="hidden"/><path d="M323.783 218.957a3.432 3.432 0 0 0-2.002-.779M321.78 218.18a1.224 1.224 0 0 0-.57.105" style="fill:none;stroke:#00ff4a;stroke-width:.666665;stroke-linecap:round;stroke-linejoin:round;stroke-miterlimit:2;stroke-dasharray:none;stroke-opacity:1;visibility:visible" visibility="hidden"/><path d="M323.977 219.822a.356.356 0 0 0 .14-.125.304.304 0 0 0 .018-.277" style="fill:none;stroke:#00ff4a;stroke-width:.999997;stroke-linecap:round;stroke-linejoin:round;stroke-miterlimit:2;stroke-dasharray:none;stroke-opacity:1;visibility:visible" visibility="hidden"/><path d="M324.134 219.42a1.275 1.275 0 0 0-.35-.463" style="fill:none;stroke:#00ff4a;stroke-width:.666665;stroke-linecap:round;stroke-linejoin:round;stroke-miterlimit:2;stroke-dasharray:none;stroke-opacity:1;visibility:visible" visibility="hidden"/><path d="M320.427 219.737a.07.07 0 0 0 .01.023M320.583 219.337a.304.304 0 0 0-.156.4M323.842 219.872l.135-.05" style="fill:none;stroke:#00ff4a;stroke-width:.999997;stroke-linecap:round;stroke-linejoin:round;stroke-miterlimit:2;stroke-dasharray:none;stroke-opacity:1;visibility:visible" visibility="hidden"/><path d="M323.157 220.01a3.401 3.401 0 0 0-.431-.306 3.419 3.419 0 0 0-1.573-.472M321.153 219.232a1.241 1.241 0 0 0-.57.105" style="fill:none;stroke:#00ff4a;stroke-width:.666665;stroke-linecap:round;stroke-linejoin:round;stroke-miterlimit:2;stroke-dasharray:none;stroke-opacity:1;visibility:visible" visibility="hidden"/><path d="M323.353 220.874a.347.347 0 0 0 .137-.124.307.307 0 0 0 .017-.276" style="fill:none;stroke:#00ff4a;stroke-width:.999997;stroke-linecap:round;stroke-linejoin:round;stroke-miterlimit:2;stroke-dasharray:none;stroke-opacity:1;visibility:visible" visibility="hidden"/><path d="M323.507 220.474a1.232 1.232 0 0 0-.35-.464" style="fill:none;stroke:#00ff4a;stroke-width:.666665;stroke-linecap:round;stroke-linejoin:round;stroke-miterlimit:2;stroke-dasharray:none;stroke-opacity:1;visibility:visible" visibility="hidden"/><path d="M323.26 215.441a.36.36 0 0 0-.183.159.412.412 0 0 0-.051.129M325.273 216.257a2.136 2.136 0 0 0-.655-.61 2.173 2.173 0 0 0-.848-.286M323.77 215.361a.965.965 0 0 0-.51.08M323.215 220.925l.138-.05" style="fill:none;stroke:#00ff4a;stroke-width:.999997;stroke-linecap:round;stroke-linejoin:round;stroke-miterlimit:2;stroke-dasharray:none;stroke-opacity:1;visibility:visible" visibility="hidden"/><path d="m321.715 223.057-.87-.93-1.059.193" style="fill:none;stroke:#00ff4a;stroke-width:.666665;stroke-linecap:round;stroke-linejoin:round;stroke-miterlimit:2;stroke-dasharray:none;stroke-opacity:1;visibility:visible" visibility="hidden"/><path d="m263.43 213.472-3.385.654M260.045 214.126l3.385-.654M277.398 211.525l-3.878.425M273.52 211.95l3.878-.425M292.838 210.594l-4.021.134M288.817 210.728l4.021-.134M307.586 210.72l-3.714-.13M303.872 210.59l3.714.13M323.77 215.361l-.02-3.252M323.75 212.109l5.37.768M356.187 219.373l-3.175-1.013M353.012 218.36l3.175 1.013M369.203 224.364l-3.546-1.504M365.657 222.86l3.546 1.504M380.168 229.838l-4.052-2.181M376.116 227.657l4.052 2.181M390.983 236.823l-3.443-2.435M387.54 234.388l3.443 2.435M245.708 341.581l3.816 1.076M249.524 342.657l-3.816-1.076M248.698 327.975l-10.799 11.148M245.708 341.581l-8.143-8.278" style="fill:none;stroke:#00ff4a;stroke-width:1.99999;stroke-linecap:round;stroke-linejoin:round;stroke-miterlimit:2.414;stroke-dasharray:none;stroke-opacity:1;visibility:visible" visibility="hidden"/><path d="m320.858 219.838-4.638-1.888M325.11 215.14l-2.547 11.505M316.527 245.788l-1.667.675M376.116 227.657l-12.944-8.779M314.86 246.463l1.667-.675M262.795 314.087l2.674 2.203M265.469 316.29l-2.674-2.203M237.565 333.303l11.133-5.328" style="fill:none;stroke:#00ff4a;stroke-width:1.33333;stroke-linecap:round;stroke-linejoin:round;stroke-miterlimit:2.414;stroke-dasharray:none;stroke-opacity:1;visibility:visible" visibility="hidden"/><path d="m322.563 226.645 2.547-11.505" style="fill:none;stroke:#00ff4a;stroke-width:.666665;stroke-linecap:round;stroke-linejoin:round;stroke-miterlimit:2.414;stroke-dasharray:none;stroke-opacity:1;visibility:visible" visibility="hidden"/><path d="m322.598 220.757-.883 2.3M320.858 219.838l-1.072 2.482" style="fill:none;stroke:#00ff4a;stroke-width:.666665;stroke-linecap:round;stroke-linejoin:round;stroke-miterlimit:2;stroke-dasharray:none;stroke-opacity:1;visibility:visible" visibility="hidden"/><path d="m347.475 208.336.945-18.107 6.227-97.926s1.564-32.068 7.144-39.288M353.968 51.517l7.82 1.22 2.214-1.169M344.347 183.644c.761.562.996 1.542.528 2.184-.47.642-1.464.708-2.225.144-.76-.563-.994-1.543-.526-2.184.471-.642 1.466-.708 2.223-.144" style="fill:none;stroke:#9500ff;stroke-width:.999997;stroke-linecap:round;stroke-linejoin:round;stroke-miterlimit:2.414;stroke-dasharray:none;stroke-opacity:1;visibility:visible" visibility="hidden"/><path d="m349.932 208.73 1.126-17.29 5.992-102.543s1.732-27.546 6.064-33.664l.89-3.665-6.593-1.159-3.443 1.108c-6.854 7.214-8.882 39.083-8.882 39.083l-5.75 97.577" style="fill:none;stroke:#9500ff;stroke-width:1.99999;stroke-linecap:round;stroke-linejoin:round;stroke-miterlimit:2.414;stroke-dasharray:none;stroke-opacity:1;visibility:visible" visibility="hidden"/><path d="M211.826 219.825h0l-4.801 3.228-16.4-2.17" style="fill:none;stroke:#ffdf00;stroke-width:.999997;stroke-linecap:round;stroke-linejoin:round;stroke-miterlimit:2.414;stroke-dasharray:none;stroke-opacity:1;visibility:visible" visibility="hidden"/><path d="m213.385 273.97 13.388 164.558M211.826 219.825s16.79 12.248 19.556 52.43M190.625 220.885s20.214 8.652 22.76 53.085" style="fill:none;stroke:#ffdf00;stroke-width:1.99999;stroke-linecap:round;stroke-linejoin:round;stroke-miterlimit:2.414;stroke-dasharray:none;stroke-opacity:1;visibility:visible" visibility="hidden"/><path d="m190.625 220.884 6.419-3.44 14.782 2.381" style="fill:none;stroke:#ffdf00;stroke-width:1.99999;stroke-linecap:round;stroke-linejoin:round;stroke-miterlimit:2.414;stroke-dasharray:none;stroke-opacity:1;visibility:visible" visibility="hidden"/><path d="m239.447 437.8-11.289-166.388s-2.43-34.895-21.133-48.359" style="fill:none;stroke:#ffdf00;stroke-width:.999997;stroke-linecap:round;stroke-linejoin:round;stroke-miterlimit:2.414;stroke-dasharray:none;stroke-opacity:1;visibility:visible" visibility="hidden"/><path d="M219.939 510.063s10.011-39.497 6.834-71.535M231.382 272.254l11.01 170.5" style="fill:none;stroke:#ffdf00;stroke-width:1.99999;stroke-linecap:round;stroke-linejoin:round;stroke-miterlimit:2.414;stroke-dasharray:none;stroke-opacity:1;visibility:visible" visibility="hidden"/><path d="M231.378 515.11s11.683-41.21 8.07-77.31" style="fill:none;stroke:#ffdf00;stroke-width:.999997;stroke-linecap:round;stroke-linejoin:round;stroke-miterlimit:2.414;stroke-dasharray:none;stroke-opacity:1;visibility:visible" visibility="hidden"/><path d="M234.62 510.663s9.959-31.956 7.774-67.91" style="fill:none;stroke:#ffdf00;stroke-width:1.99999;stroke-linecap:round;stroke-linejoin:round;stroke-miterlimit:2.414;stroke-dasharray:none;stroke-opacity:1;visibility:visible" visibility="hidden"/><path d="M218.05 504.3c1.34.354 2.227 1.338 1.98 2.195-.25.86-1.54 1.268-2.883.915-1.342-.355-2.229-1.336-1.98-2.195.25-.857 1.54-1.268 2.883-.915M238.589 512.572c1.341.352 2.228 1.338 1.98 2.194-.249.86-1.54 1.268-2.882.914-1.342-.353-2.229-1.334-1.98-2.194.25-.856 1.54-1.267 2.883-.914h-.001M235.038 510.987l-3.473 3.763" style="fill:none;stroke:#ffdf00;stroke-width:.999997;stroke-linecap:round;stroke-linejoin:round;stroke-miterlimit:2.414;stroke-dasharray:none;stroke-opacity:1;visibility:visible" visibility="hidden"/><path d="m220.45 503.572-2.699-1.09c-3.16-1.314-9.116 3.866-5.669 5.207l26.535 10.687c2.788 1.068 6.785-4.74 4.461-5.67l-7.456-3.009" style="fill:none;stroke:#ffdf00;stroke-width:1.99999;stroke-linecap:round;stroke-linejoin:round;stroke-miterlimit:2.414;stroke-dasharray:none;stroke-opacity:1;visibility:visible" visibility="hidden"/><path d="m193.098 580.396-13.084 20.607M190.332 578.276l-15.34 26.21M197.084 569.326a30.12 30.12 0 0 1-3.987 11.068M193.287 567.688c-.287 3.293-1.067 7.202-2.956 10.588" style="fill:none;stroke:#ffdf00;stroke-width:1.33333;stroke-linecap:round;stroke-linejoin:round;stroke-miterlimit:2.414;stroke-dasharray:none;stroke-opacity:1;visibility:visible" visibility="hidden"/><path d="M175.47 226.812c.576.112.842.872.596 1.69-.245.823-.91 1.398-1.485 1.284-.575-.113-.841-.872-.595-1.694.244-.82.91-1.395 1.484-1.28" style="fill:none;stroke:#00d4ff;stroke-width:.999997;stroke-linecap:round;stroke-linejoin:round;stroke-miterlimit:2.414;stroke-dasharray:none;stroke-opacity:1;visibility:visible" visibility="hidden"/><path d="M125.234 95.132s24.323 22.288 29.59 49.61" style="fill:none;stroke:#00d4ff;stroke-width:1.99999;stroke-linecap:round;stroke-linejoin:round;stroke-miterlimit:2.414;stroke-dasharray:none;stroke-opacity:1;visibility:visible" visibility="hidden"/><path d="M130.481 95.132s23.52 19.398 28.719 51.118" style="fill:none;stroke:#00d4ff;stroke-width:.999997;stroke-linecap:round;stroke-linejoin:round;stroke-miterlimit:2.414;stroke-dasharray:none;stroke-opacity:1;visibility:visible" visibility="hidden"/><path d="m125.234 95.132 7.492-5.085 4.85.333M137.576 90.38s22.648 18.15 28.37 53.862" style="fill:none;stroke:#00d4ff;stroke-width:1.99999;stroke-linecap:round;stroke-linejoin:round;stroke-miterlimit:2.414;stroke-dasharray:none;stroke-opacity:1;visibility:visible" visibility="hidden"/><path d="m137.576 90.38-7.096 4.752h-5.246" style="fill:none;stroke:#00d4ff;stroke-width:.999997;stroke-linecap:round;stroke-linejoin:round;stroke-miterlimit:2.414;stroke-dasharray:none;stroke-opacity:1;visibility:visible" visibility="hidden"/><path d="m154.824 144.742 17.005 101.008 6.423 53.525c1.034 10.415 1.034 33.555-9.92 50.676M165.946 144.242l11.358 82.94M177.79 230.73l4.314 31.509M182.758 267.019l3.97 29.002M187.384 303.643a78.39 78.39 0 0 1 .03 3.982 55.804 55.804 0 0 1-.208 3.92l-.998 6.309c-3.066 17.752-8.612 25.844-8.612 25.844" style="fill:none;stroke:#00d4ff;stroke-width:1.99999;stroke-linecap:round;stroke-linejoin:round;stroke-miterlimit:2.414;stroke-dasharray:none;stroke-opacity:1;visibility:visible" visibility="hidden"/><path d="M170.956 351.649s10.333-15.426 10.057-38.451c.027-8.223.001-10.605-.383-13.923l-6.92-56.463-14.511-96.562" style="fill:none;stroke:#00d4ff;stroke-width:.999997;stroke-linecap:round;stroke-linejoin:round;stroke-miterlimit:2.414;stroke-dasharray:none;stroke-opacity:1;visibility:visible" visibility="hidden"/><path d="m171.6 351.554 5.997-7.856" style="fill:none;stroke:#00d4ff;stroke-width:1.99999;stroke-linecap:round;stroke-linejoin:round;stroke-miterlimit:2.414;stroke-dasharray:none;stroke-opacity:1;visibility:visible" visibility="hidden"/><path d="M168.314 352.23c.648.133 1.074.62.956 1.087-.121.466-.742.74-1.39.608-.647-.132-1.074-.62-.952-1.088.12-.467.74-.738 1.386-.607M167.769 350.215l3.757 1.919" style="fill:none;stroke:#00d4ff;stroke-width:.999997;stroke-linecap:round;stroke-linejoin:round;stroke-miterlimit:2.414;stroke-dasharray:none;stroke-opacity:1;visibility:visible" visibility="hidden"/><path d="m175.508 347.648-6.216 7.902c-1.243 1.51-5.416-.623-4.263-2.31l6.128-8.166M177.79 230.73l-.486-3.548M177.304 227.182l.486 3.548M182.758 267.019l-.654-4.78M182.104 262.239l.654 4.78M171.6 351.554l3.908-3.906M168.332 349.951l2.825-4.877" style="fill:none;stroke:#00d4ff;stroke-width:1.99999;stroke-linecap:round;stroke-linejoin:round;stroke-miterlimit:2.414;stroke-dasharray:none;stroke-opacity:1;visibility:visible" visibility="hidden"/><path d="m441.76 415.391-6.402-1.048" style="fill:none;stroke:red;stroke-width:1.99999;stroke-linecap:round;stroke-linejoin:round;stroke-miterlimit:2.414;stroke-dasharray:none;stroke-opacity:1;visibility:visible" visibility="hidden"/><path d="m190.625 220.885-15.155 5.927M190.625 220.883l-15.155 5.929" style="fill:none;stroke:#00d4ff;stroke-width:.999997;stroke-linecap:round;stroke-linejoin:round;stroke-miterlimit:2.414;stroke-dasharray:none;stroke-opacity:1;visibility:visible" visibility="hidden"/></svg>