<svg xmlns="http://www.w3.org/2000/svg" baseProfile="full" height="1122.52" preserveAspectRatio="xMinYMin meet" style="width:912px;height:1246px" width="793.701" xml:space="preserve"><path d="m303.832 811.521 306.51-138.084" style="fill:none;stroke:red;stroke-width:.666665;stroke-linecap:round;stroke-linejoin:round;stroke-miterlimit:2;stroke-dasharray:none;stroke-opacity:1;visibility:visible"/><path d="m303.611 672.014 161.573-58.492M303.554 804.063l299.758-133.601M486.067 614.11l115.221 46.656" style="fill:none;stroke:red;stroke-width:1.33333;stroke-linecap:round;stroke-linejoin:round;stroke-miterlimit:2;stroke-dasharray:none;stroke-opacity:1;visibility:visible"/><path d="m479.62 616.503 121.576 49.724M175.856 724.252l91.117-33.304M305.873 676.727l165.224-60.39" style="fill:none;stroke:red;stroke-width:.666665;stroke-linecap:round;stroke-linejoin:round;stroke-miterlimit:2;stroke-dasharray:none;stroke-opacity:1;visibility:visible"/><path d="m268.172 797.464-96.566-67.821" style="fill:none;stroke:red;stroke-width:1.33333;stroke-linecap:round;stroke-linejoin:round;stroke-miterlimit:2;stroke-dasharray:none;stroke-opacity:1;visibility:visible"/><path d="m164.267 732.421 103.8 74.06" style="fill:none;stroke:red;stroke-width:.666665;stroke-linecap:round;stroke-linejoin:round;stroke-miterlimit:2;stroke-dasharray:none;stroke-opacity:1;visibility:visible"/><path d="m479.51 616.388 6.383-2.347" style="fill:none;stroke:red;stroke-width:1.33333;stroke-linecap:round;stroke-linejoin:round;stroke-miterlimit:2;stroke-dasharray:none;stroke-opacity:1;visibility:visible"/><path d="m171.392 729.568-7.412 2.71v23.649" style="fill:none;stroke:red;stroke-width:.999997;stroke-linecap:round;stroke-linejoin:round;stroke-miterlimit:2;stroke-dasharray:none;stroke-opacity:1;visibility:visible"/><path d="m465.344 613.55 5.936 2.443v5.15" style="fill:none;stroke:red;stroke-width:1.33333;stroke-linecap:round;stroke-linejoin:round;stroke-miterlimit:2;stroke-dasharray:none;stroke-opacity:1;visibility:visible"/><path d="m610.248 673.243-6.663-2.767" style="fill:none;stroke:red;stroke-width:.999997;stroke-linecap:round;stroke-linejoin:round;stroke-miterlimit:2;stroke-dasharray:none;stroke-opacity:1;visibility:visible"/><path d="M479.537 616.492v4.765" style="fill:none;stroke:red;stroke-width:1.33333;stroke-linecap:round;stroke-linejoin:round;stroke-miterlimit:2;stroke-dasharray:none;stroke-opacity:1;visibility:visible"/><path d="M610.245 673.393v22.705" style="fill:none;stroke:red;stroke-width:.999997;stroke-linecap:round;stroke-linejoin:round;stroke-miterlimit:2;stroke-dasharray:none;stroke-opacity:1;visibility:visible"/><path d="m303.767 839.462 306.32-143.42M268.162 833.222l-104.273-77.317M282.153 869.835l370.455-178.502M576.98 681l-4.193-1.803M572.787 679.197l-70.435-30.254M502.352 648.943l-22.438-9.64M192.87 744.581l25.033-9.543M217.903 735.038l30.228-11.514M258.859 719.434l9.154-3.489M303.605 702.383l28.78-10.971M332.385 691.412l3.132-1.193M335.517 690.219l63.616-24.24M410.273 661.735l32.36-12.331M442.633 649.404l28.317-10.79" style="fill:none;stroke:red;stroke-width:.666665;stroke-linecap:round;stroke-linejoin:round;stroke-miterlimit:2;stroke-dasharray:none;stroke-opacity:1;visibility:visible"/><path d="m631.56 682.487 21.717 8.761v7.416M282.019 880.145l371.074-181.244" style="fill:none;stroke:red;stroke-width:1.33333;stroke-linecap:round;stroke-linejoin:round;stroke-miterlimit:2;stroke-dasharray:none;stroke-opacity:1;visibility:visible"/><path d="M282.153 869.836 124.196 748.271" style="fill:none;stroke:red;stroke-width:.666665;stroke-linecap:round;stroke-linejoin:round;stroke-miterlimit:2;stroke-dasharray:none;stroke-opacity:1;visibility:visible"/><path d="m145.086 739.719-21.67 8.008v8.732M281.672 880.145l-158.04-122.976" style="fill:none;stroke:red;stroke-width:1.33333;stroke-linecap:round;stroke-linejoin:round;stroke-miterlimit:2;stroke-dasharray:none;stroke-opacity:1;visibility:visible"/><path d="M281.903 870.183v8.69" style="fill:none;stroke:red;stroke-width:.666665;stroke-linecap:round;stroke-linejoin:round;stroke-miterlimit:2;stroke-dasharray:none;stroke-opacity:1;visibility:visible"/><path d="M602.273 662.029c0 .753-1.237 1.363-2.761 1.363s-2.762-.61-2.762-1.363c0-.752 1.238-1.359 2.76-1.359 1.527 0 2.764.607 2.764 1.36l-.001-.001M491.66 617.784c0 .753-1.237 1.363-2.76 1.363-1.523 0-2.763-.61-2.763-1.364 0-.751 1.238-1.358 2.763-1.358s2.76.607 2.76 1.358v.001M603.326 675.195c0 .758-1.236 1.367-2.76 1.367-1.526-.001-2.763-.611-2.763-1.366.001-.75 1.237-1.356 2.762-1.356s2.761.606 2.761 1.356v-.001M313.627 804.246c0 .752-1.237 1.361-2.762 1.361-1.523 0-2.762-.609-2.762-1.36 0-.755 1.239-1.361 2.762-1.361 1.525 0 2.762.606 2.762 1.36M267.802 799.506c-.002.752-1.237 1.361-2.763 1.361-1.522 0-2.761-.609-2.761-1.36 0-.755 1.239-1.361 2.761-1.361 1.526 0 2.762.606 2.762 1.36h.001M175.095 734.192c.001.752-1.233 1.364-2.759 1.364-1.523 0-2.76-.612-2.76-1.364-.002-.754 1.235-1.36 2.758-1.36 1.528 0 2.762.606 2.762 1.36h-.001M465.323 617.256c0 .756-1.236 1.364-2.76 1.364-1.525.001-2.761-.609-2.761-1.364 0-.75 1.236-1.359 2.76-1.359 1.526 0 2.761.61 2.761 1.359" style="fill:none;stroke:red;stroke-width:.999997;stroke-linecap:round;stroke-linejoin:round;stroke-miterlimit:2;stroke-dasharray:none;stroke-opacity:1;visibility:visible"/><path d="M458.85 634.373s-1.051.319-1.204 1.508c-.151 1.179.482 1.689 1.184 1.61M457.81 628.283l1.02.333s.326.3.346.519" style="fill:none;stroke:red;stroke-width:.666665;stroke-linecap:round;stroke-linejoin:round;stroke-miterlimit:4;stroke-dasharray:none;stroke-opacity:1;visibility:visible"/><path d="m457.888 636.601 1.028.404s.315.188.316.56M491.104 638.384l-3.336-1.15-3.484-.518-7.308.007" style="fill:none;stroke:red;stroke-width:.666665;stroke-linecap:round;stroke-linejoin:round;stroke-miterlimit:4;stroke-dasharray:none;stroke-opacity:1;visibility:visible"/><path d="m472.748 636.723-6.384.002-3.604.492-3.468 1.173-.06-.81s.99-.216 1.134-1.515c.126-1.121-.163-1.751-1.142-1.575l-.05-5.213s1.079-.544 1.153-1.62c.072-1.082-.201-1.596-1.183-1.55l.004-.725M458.788 625.21l2.464-.81 2.279-.341 2.276-.716 18.898-.02 2.396.783 1.9.242 2.511.872-.019.75s.883.23 1.142 1.66c.155 1.868-1.114 1.51-1.114 1.51l.007 5.22c.284.175 1.15.69 1.123 2.027-.026 1.193-.812 1.185-1.081 1.1l-.031.877M458.822 629.092s-1.467.56-1.194-1.716c.239-.87 1.196-1.41 1.196-1.41" style="fill:none;stroke:red;stroke-width:.666665;stroke-linecap:round;stroke-linejoin:round;stroke-miterlimit:4;stroke-dasharray:none;stroke-opacity:1;visibility:visible"/><path d="M491.125 637.632s-.96-.488-1.174-1.863c.069-1.445 1.062-1.388 1.186-1.262l-.033-5.303s-.919-.268-1.144-1.739c-.205-1.3.907-1.488 1.144-1.328l-.021-.75M472.94 633.863l-7.197-.004-1.026.36-2.034-.667s-2.021.767-2.117-2.319c.34-2.833 2.028-3.27 2.028-3.27l2.01-1.998 1.126-.368 19.11.016 1.04.387 1.99 1.999s1.837.797 1.897 3.254c.051 2.074-1.275 2.68-1.889 2.303l-1.966.661-1.103-.344-7.976-.008M463 635.247c-.196.437-.594.678-.908.546-.31-.143-.401-.613-.21-1.052.193-.434.598-.688.906-.545.311.139.406.608.212 1.05v.001M462.918 626.908c-.208.465-.618.73-.931.582-.304-.137-.39-.625-.19-1.09.207-.461.621-.721.93-.58.307.143.389.63.191 1.088" style="fill:none;stroke:red;stroke-width:.666665;stroke-linecap:round;stroke-linejoin:round;stroke-miterlimit:4;stroke-dasharray:none;stroke-opacity:1;visibility:visible"/><path d="M473.745 630.353c-.08-.77.535-1.461 1.367-1.546.835-.087 1.576.465 1.653 1.233a1.296 1.296 0 0 1-.06.552M488.599 634.764c.178.476.074.948-.232 1.07-.304.116-.695-.165-.872-.632-.18-.469-.076-.951.23-1.071.305-.115.695.169.873.634l.001-.001M488.56 626.436c.167.45.057.912-.248 1.034-.304.114-.692-.154-.859-.607-.169-.45-.068-.911.244-1.036.303-.118.69.158.863.609M492.497 636.647l-.906.292s-.487.196-.451.56M491.104 629.204s.047-.38.316-.524l1.06-.376" style="fill:none;stroke:red;stroke-width:.666665;stroke-linecap:round;stroke-linejoin:round;stroke-miterlimit:4;stroke-dasharray:none;stroke-opacity:1;visibility:visible"/><path d="m595.905 672.917-.093-2.364s.27-1.019-1.143-1.492l-1.604-.745-1.31-.752-.975-.866-2.753-1.273-.331.193-.073.867s1.48.841 1.349 2.435c.02 1.258-.933 1.114-1.265 1.013" style="fill:none;stroke:red;stroke-width:.666665;stroke-linecap:round;stroke-linejoin:round;stroke-miterlimit:500;stroke-dasharray:none;stroke-opacity:1;visibility:visible"/><path d="m593.717 673.77-.134-3.794-1.9-1.816M591.895 669.626c.258.504.218 1.04-.103 1.208-.32.167-.793-.104-1.056-.606-.264-.5-.213-1.044.104-1.208.317-.172.79.104 1.055.606M588.716 668.782c-.317.183-.887.31-1.116.894l-.077 5.77s.497.25.897.768" style="fill:none;stroke:red;stroke-width:.666665;stroke-linecap:round;stroke-linejoin:round;stroke-miterlimit:500;stroke-dasharray:none;stroke-opacity:1;visibility:visible"/><path d="m593.57 671.16-2.007.314s-1.693-.822-2.403 1.216c-.357 1.022.015 2.332.63 3.338M176.374 731.25l.502-1.068s.348-.701 1.293-.898l2.393-.784s1.423-.467 1.978-.875c.522-.388 1.312-.93 1.312-.93l4.112-1.372.494.258-.065 1.083s-1.933.708-1.927 2.541c.38 1.983 2.042 1.204 2.042 1.204" style="fill:none;stroke:red;stroke-width:.666665;stroke-linecap:round;stroke-linejoin:round;stroke-miterlimit:500;stroke-dasharray:none;stroke-opacity:1;visibility:visible"/><path d="M589.16 672.69c-.307.933-.036 2.053.467 2.971M184.024 730.792c-.411.565-1.08.773-1.49.462-.42-.314-.42-1.028-.01-1.596.418-.573 1.086-.781 1.506-.468.409.31.41 1.026-.006 1.602M188.7 736.312s2.017-.239 1.529 1.808c-.356 1.494-1.497 1.798-1.497 1.798M188.685 726.177s1.69.039 1.317 1.79c-.34 1.396-1.268 1.679-1.268 1.679M178.36 732.904s.174.196.385.468M185.034 737.573a4.387 4.387 0 0 0 1.27-2.743c.191-2.073-1.214-3.336-3.565-2.742l-2.991-.479M182.54 727.625l-3.303 2.39-1.15 2.455" style="fill:none;stroke:red;stroke-width:.666665;stroke-linecap:round;stroke-linejoin:round;stroke-miterlimit:500;stroke-dasharray:none;stroke-opacity:1;visibility:visible"/><path d="m187.392 738.645 1.34 1.273-.006.379M187.19 728.757s1.255.581 1.258 1.368l.196 6.547s-1.522.448-1.874 2.14" style="fill:none;stroke:red;stroke-width:.666665;stroke-linecap:round;stroke-linejoin:round;stroke-miterlimit:500;stroke-dasharray:none;stroke-opacity:1;visibility:visible"/><path d="m603.585 670.476-2.297-9.71" style="fill:none;stroke:red;stroke-width:1.33333;stroke-linecap:round;stroke-linejoin:round;stroke-miterlimit:2;stroke-dasharray:none;stroke-opacity:1;visibility:visible"/><path d="m603.585 670.476-2.389-4.249M171.392 729.568l4.464-5.316M479.51 616.388l-8.413-.052" style="fill:none;stroke:red;stroke-width:.666665;stroke-linecap:round;stroke-linejoin:round;stroke-miterlimit:2;stroke-dasharray:none;stroke-opacity:1;visibility:visible"/><path d="m465.323 617.256 5.957 3.887M491.083 625.387l-11.546-4.13" style="fill:none;stroke:red;stroke-width:1.33333;stroke-linecap:round;stroke-linejoin:round;stroke-miterlimit:2;stroke-dasharray:none;stroke-opacity:1;visibility:visible"/><path d="m491.104 638.384-11.19.919M258.859 719.434l-10.728 4.09M248.13 723.524l10.729-4.09M410.273 661.735l-11.14 4.244M399.133 665.979l11.14-4.244M458.788 625.21l12.162 13.405" style="fill:none;stroke:red;stroke-width:.666665;stroke-linecap:round;stroke-linejoin:round;stroke-miterlimit:2;stroke-dasharray:none;stroke-opacity:1;visibility:visible"/><path d="m595.905 672.917 6.368-10.888M479.537 621.257l12.123-3.473M491.083 625.387l.577-7.603M595.905 672.917l7.421 2.278M595.905 672.917l7.421 2.278M188.726 740.297l-13.631-6.105M471.28 621.143l-5.957-3.887M459.148 625.382l6.175-8.126" style="fill:none;stroke:red;stroke-width:.999997;stroke-linecap:round;stroke-linejoin:round;stroke-miterlimit:2;stroke-dasharray:none;stroke-opacity:1;visibility:visible"/><path d="m470.95 638.615-12.1-4.242M472.748 636.723h4.228M476.976 636.723h-4.228M491.66 617.784l-.577 7.603M476.976 636.723l-4.036-2.86M472.748 636.723l4.085-2.858M462.918 626.908l.082 8.339M459.148 625.382l3.852 9.865M463 635.247l-.082-8.339M491.083 625.387l-17.338 4.966M488.56 626.436l.039 8.328M488.599 634.764l-.039-8.328M479.51 616.388l12.97 11.916" style="fill:none;stroke:red;stroke-width:.666665;stroke-linecap:round;stroke-linejoin:round;stroke-miterlimit:4;stroke-dasharray:none;stroke-opacity:1;visibility:visible"/><path d="m603.326 675.195-7.421-2.278M603.326 675.195l-9.609-1.425M589.627 675.661l2.268-6.035M188.7 736.312l-4.676-5.52M188.7 736.312l-3.666 1.261" style="fill:none;stroke:red;stroke-width:.666665;stroke-linecap:round;stroke-linejoin:round;stroke-miterlimit:500;stroke-dasharray:none;stroke-opacity:1;visibility:visible"/><path d="m156.73 758.404-10.857-8.156" style="fill:none;stroke:#00ff4a;stroke-width:.999997;stroke-linecap:round;stroke-linejoin:round;stroke-miterlimit:2;stroke-dasharray:none;stroke-opacity:1;visibility:visible" visibility="hidden"/><path d="m174.683 501.941-12.05-5.08" style="fill:none;stroke:#00ff4a;stroke-width:1.33333;stroke-linecap:round;stroke-linejoin:round;stroke-miterlimit:2;stroke-dasharray:none;stroke-opacity:1;visibility:visible" visibility="hidden"/><path d="m157.304 758.352 6.508-2.483" style="fill:none;stroke:#00ff4a;stroke-width:.999997;stroke-linecap:round;stroke-linejoin:round;stroke-miterlimit:2;stroke-dasharray:none;stroke-opacity:1;visibility:visible" visibility="hidden"/><path d="M157.008 757.467V505.97" style="fill:none;stroke:#00ff4a;stroke-width:.666665;stroke-linecap:round;stroke-linejoin:round;stroke-miterlimit:2;stroke-dasharray:none;stroke-opacity:1;visibility:visible" visibility="hidden"/><path d="M175.013 731.002V502.106M145.928 749.585V500.639" style="fill:none;stroke:#00ff4a;stroke-width:1.33333;stroke-linecap:round;stroke-linejoin:round;stroke-miterlimit:2;stroke-dasharray:none;stroke-opacity:1;visibility:visible" visibility="hidden"/><path d="m156.727 505.679-10.167-4.507" style="fill:none;stroke:#00ff4a;stroke-width:.666665;stroke-linecap:round;stroke-linejoin:round;stroke-miterlimit:2;stroke-dasharray:none;stroke-opacity:1;visibility:visible" visibility="hidden"/><path d="m146.133 500.497 16.036-3.624" style="fill:none;stroke:#00ff4a;stroke-width:1.33333;stroke-linecap:round;stroke-linejoin:round;stroke-miterlimit:2;stroke-dasharray:none;stroke-opacity:1;visibility:visible" visibility="hidden"/><path d="m157.363 505.91 16.15-3.724" style="fill:none;stroke:#00ff4a;stroke-width:.666665;stroke-linecap:round;stroke-linejoin:round;stroke-miterlimit:2;stroke-dasharray:none;stroke-opacity:1;visibility:visible" visibility="hidden"/><path d="m489.855 396.232-12.433-2.978M464.257 396.168l12.85-2.958M490.062 396.41v207.885" style="fill:none;stroke:#9500ff;stroke-width:1.33333;stroke-linecap:round;stroke-linejoin:round;stroke-miterlimit:2;stroke-dasharray:none;stroke-opacity:1;visibility:visible" visibility="hidden"/><path d="M476.585 399.913v190.855M476.765 399.872l13.068-3.07M476.313 399.872l-12.319-3.043" style="fill:none;stroke:#9500ff;stroke-width:.666665;stroke-linecap:round;stroke-linejoin:round;stroke-miterlimit:2;stroke-dasharray:none;stroke-opacity:1;visibility:visible" visibility="hidden"/><path d="m479.87 608.177 9.56-3.67M471.359 606.934l-7.33-3.17M463.668 556.717v46.774M463.668 396.272v86.714" style="fill:none;stroke:#9500ff;stroke-width:1.33333;stroke-linecap:round;stroke-linejoin:round;stroke-miterlimit:2;stroke-dasharray:none;stroke-opacity:1;visibility:visible" visibility="hidden"/><path d="m284.418 854.115 18.28-8.643M284.479 854.096l-15.424-11.59" style="fill:none;stroke:#ffdf00;stroke-width:.999997;stroke-linecap:round;stroke-linejoin:round;stroke-miterlimit:2;stroke-dasharray:none;stroke-opacity:1;visibility:visible" visibility="hidden"/><path d="m302.745 554.812-15.415-6.593" style="fill:none;stroke:#ffdf00;stroke-width:1.33333;stroke-linecap:round;stroke-linejoin:round;stroke-miterlimit:2;stroke-dasharray:none;stroke-opacity:1;visibility:visible" visibility="hidden"/><path d="M284.25 850.937v-290.77" style="fill:none;stroke:#ffdf00;stroke-width:.666665;stroke-linecap:round;stroke-linejoin:round;stroke-miterlimit:2;stroke-dasharray:none;stroke-opacity:1;visibility:visible" visibility="hidden"/><path d="M302.946 845.103V554.98M269.017 842.39V553.012" style="fill:none;stroke:#ffdf00;stroke-width:1.33333;stroke-linecap:round;stroke-linejoin:round;stroke-miterlimit:2;stroke-dasharray:none;stroke-opacity:1;visibility:visible" visibility="hidden"/><path d="m284.503 560.244 18.255-5.016M283.943 560.025l-14.084-6.136" style="fill:none;stroke:#ffdf00;stroke-width:.666665;stroke-linecap:round;stroke-linejoin:round;stroke-miterlimit:2;stroke-dasharray:none;stroke-opacity:1;visibility:visible" visibility="hidden"/><path d="m269.516 553.01 17.501-4.79" style="fill:none;stroke:#ffdf00;stroke-width:1.33333;stroke-linecap:round;stroke-linejoin:round;stroke-miterlimit:2;stroke-dasharray:none;stroke-opacity:1;visibility:visible" visibility="hidden"/><path d="m616.152 698.973-6.005-2.58M616.535 698.997l14.201-6.713" style="fill:none;stroke:#00d4ff;stroke-width:1.33333;stroke-linecap:round;stroke-linejoin:round;stroke-miterlimit:2;stroke-dasharray:none;stroke-opacity:1;visibility:visible" visibility="hidden"/><path d="M616.639 698.707V467.512M617.687 466.568l12.844-3.713" style="fill:none;stroke:#00d4ff;stroke-width:.666665;stroke-linecap:round;stroke-linejoin:round;stroke-miterlimit:2;stroke-dasharray:none;stroke-opacity:1;visibility:visible" visibility="hidden"/><path d="m630.565 462.394-15.208-3.69M602.172 670.623v-207.75M630.616 692.448V462.595" style="fill:none;stroke:#00d4ff;stroke-width:1.33333;stroke-linecap:round;stroke-linejoin:round;stroke-miterlimit:2;stroke-dasharray:none;stroke-opacity:1;visibility:visible" visibility="hidden"/><path d="m615.861 466.717-13.388-3.415" style="fill:none;stroke:#00d4ff;stroke-width:.666665;stroke-linecap:round;stroke-linejoin:round;stroke-miterlimit:2;stroke-dasharray:none;stroke-opacity:1;visibility:visible" visibility="hidden"/><path d="m602.219 462.543 13.408-3.841" style="fill:none;stroke:#00d4ff;stroke-width:1.33333;stroke-linecap:round;stroke-linejoin:round;stroke-miterlimit:2;stroke-dasharray:none;stroke-opacity:1;visibility:visible" visibility="hidden"/><path d="m615.627 458.702 2.06 7.866M615.357 458.705l.504 8.012" style="fill:none;stroke:#00d4ff;stroke-width:.666665;stroke-linecap:round;stroke-linejoin:round;stroke-miterlimit:2;stroke-dasharray:none;stroke-opacity:1;visibility:visible" visibility="hidden"/><path d="m302.698 845.472 1.069-6.01M269.055 842.505l-.893-9.283M188.7 736.312l4.17 8.27" style="fill:none;stroke:red;stroke-width:.666665;stroke-linecap:round;stroke-linejoin:round;stroke-miterlimit:2;stroke-dasharray:none;stroke-opacity:1;visibility:visible"/><path d="m470.95 638.615-13.14-10.332M470.95 638.615l-13.062-2.014M473.745 630.353l18.752 6.294M491.66 617.784l-.556 11.42" style="fill:none;stroke:red;stroke-width:.666665;stroke-linecap:round;stroke-linejoin:round;stroke-miterlimit:4;stroke-dasharray:none;stroke-opacity:1;visibility:visible"/><path d="m603.326 675.195-15.619-5.262M589.627 675.661l-.467-2.971M184.024 730.792l-5.279 2.58M188.726 740.297l-1.536-11.54" style="fill:none;stroke:red;stroke-width:.666665;stroke-linecap:round;stroke-linejoin:round;stroke-miterlimit:500;stroke-dasharray:none;stroke-opacity:1;visibility:visible"/><path d="m175.095 734.192-.082-3.19" style="fill:none;stroke:#00ff4a;stroke-width:1.33333;stroke-linecap:round;stroke-linejoin:round;stroke-miterlimit:2;stroke-dasharray:none;stroke-opacity:1;visibility:visible" visibility="hidden"/><path d="m485.893 614.041-6.022-5.864M465.344 613.55l6.015-6.616" style="fill:none;stroke:#9500ff;stroke-width:1.33333;stroke-linecap:round;stroke-linejoin:round;stroke-miterlimit:2;stroke-dasharray:none;stroke-opacity:1;visibility:visible" visibility="hidden"/><path d="m281.903 870.183 2.347-19.246" style="fill:none;stroke:#ffdf00;stroke-width:.666665;stroke-linecap:round;stroke-linejoin:round;stroke-miterlimit:2;stroke-dasharray:none;stroke-opacity:1;visibility:visible" visibility="hidden"/><path d="m615.861 466.717.778.795" style="fill:none;stroke:#00d4ff;stroke-width:.666665;stroke-linecap:round;stroke-linejoin:round;stroke-miterlimit:2;stroke-dasharray:none;stroke-opacity:1;visibility:visible" visibility="hidden"/><path d="m603.326 675.195-1.154-4.572" style="fill:none;stroke:#00d4ff;stroke-width:1.33333;stroke-linecap:round;stroke-linejoin:round;stroke-miterlimit:2;stroke-dasharray:none;stroke-opacity:1;visibility:visible" visibility="hidden"/></svg>