<svg xmlns="http://www.w3.org/2000/svg" baseProfile="full" height="1122.52" preserveAspectRatio="xMinYMin meet" style="width:912px;height:1246px" width="793.701" xml:space="preserve"><path d="m574.62 589.092-21.88-9.653M546.355 576.62l-40.05-17.673M499.919 556.13l-13.299-5.867M233.806 647.933l98.624-37.613M341.2 606.895l129.084-50.366M478.005 553.515l8.375-3.268" style="fill:none;stroke:red;stroke-width:1.33333;stroke-linecap:round;stroke-linejoin:round;stroke-miterlimit:2;stroke-dasharray:none;stroke-opacity:1;visibility:visible" visibility="hidden"/><path d="M311.89 812.913 662.092 628.28" style="fill:none;stroke:red;stroke-width:.666665;stroke-linecap:round;stroke-linejoin:round;stroke-miterlimit:2;stroke-dasharray:none;stroke-opacity:1;visibility:visible" visibility="hidden"/><path d="m620.605 609.07 42.187 19.125v7.725M311.749 823.657l350.848-187.49" style="fill:none;stroke:red;stroke-width:1.33333;stroke-linecap:round;stroke-linejoin:round;stroke-miterlimit:2;stroke-dasharray:none;stroke-opacity:1;visibility:visible" visibility="hidden"/><path d="m311.889 812.913-166-130.945" style="fill:none;stroke:red;stroke-width:.666665;stroke-linecap:round;stroke-linejoin:round;stroke-miterlimit:2;stroke-dasharray:none;stroke-opacity:1;visibility:visible" visibility="hidden"/><path d="m184.576 667.564-39.503 13.838v9.096M311.385 823.657 145.302 691.24" style="fill:none;stroke:red;stroke-width:1.33333;stroke-linecap:round;stroke-linejoin:round;stroke-miterlimit:2;stroke-dasharray:none;stroke-opacity:1;visibility:visible" visibility="hidden"/><path d="M311.626 813.274v9.052" style="fill:none;stroke:red;stroke-width:.666665;stroke-linecap:round;stroke-linejoin:round;stroke-miterlimit:2;stroke-dasharray:none;stroke-opacity:1;visibility:visible" visibility="hidden"/><path d="m546.355 576.62 6.385 2.819M552.74 579.439l-6.385-2.819M499.919 556.13l6.386 2.817M506.305 558.947l-6.386-2.817M341.2 606.895l-8.77 3.425M332.43 610.32l8.77-3.425M478.005 553.515l-7.721 3.014M470.284 556.529l7.721-3.014" style="fill:none;stroke:red;stroke-width:1.33333;stroke-linecap:round;stroke-linejoin:round;stroke-miterlimit:2;stroke-dasharray:none;stroke-opacity:1;visibility:visible" visibility="hidden"/><path d="m322.882 712.665 306.03-138.156" style="fill:none;stroke:#00ff4a;stroke-width:.666665;stroke-linecap:round;stroke-linejoin:round;stroke-miterlimit:2;stroke-dasharray:none;stroke-opacity:1;visibility:visible"/><path d="m185.735 616.35 3.101-1.122M192.606 613.861l2.039-.737M198.154 611.856l279.498-99.78M316.43 707.613l8.077-3.601M329.071 701.977l288.01-128.564M499.417 512.69l112.837 45.687M621.308 562.043l7.168 2.904v5.993" style="fill:none;stroke:#00ff4a;stroke-width:1.33333;stroke-linecap:round;stroke-linejoin:round;stroke-miterlimit:2;stroke-dasharray:none;stroke-opacity:1;visibility:visible"/><path d="m492.703 515.18 125.167 51.195M620.88 567.604l1.098.452v1.47M192.588 620.119l291.227-105.11" style="fill:none;stroke:#00ff4a;stroke-width:.666665;stroke-linecap:round;stroke-linejoin:round;stroke-miterlimit:2;stroke-dasharray:none;stroke-opacity:1;visibility:visible"/><path d="m308.163 707.025-9.05-6.357M295.953 698.446l-103.608-72.762" style="fill:none;stroke:#00ff4a;stroke-width:1.33333;stroke-linecap:round;stroke-linejoin:round;stroke-miterlimit:2;stroke-dasharray:none;stroke-opacity:1;visibility:visible"/><path d="m183.313 627.605 116.57 83.175v27.434" style="fill:none;stroke:#00ff4a;stroke-width:.666665;stroke-linecap:round;stroke-linejoin:round;stroke-miterlimit:2;stroke-dasharray:none;stroke-opacity:1;visibility:visible"/><path d="m189.272 625.168-6.256 2.29v24.639M492.583 515.063l6.65-2.445" style="fill:none;stroke:#00ff4a;stroke-width:1.33333;stroke-linecap:round;stroke-linejoin:round;stroke-miterlimit:2;stroke-dasharray:none;stroke-opacity:1;visibility:visible"/><path d="m300.273 710.618 7.472-3.312M622.021 567.87l5.937-2.63" style="fill:none;stroke:#00ff4a;stroke-width:.666665;stroke-linecap:round;stroke-linejoin:round;stroke-miterlimit:2;stroke-dasharray:none;stroke-opacity:1;visibility:visible"/><path d="m628.81 574.305-6.94-2.884M477.819 512.108l6.19 2.544v5.368" style="fill:none;stroke:#00ff4a;stroke-width:1.33333;stroke-linecap:round;stroke-linejoin:round;stroke-miterlimit:2;stroke-dasharray:none;stroke-opacity:1;visibility:visible"/><path d="m322.882 712.665-6.642-4.68M188.92 618.957l-3.35-2.341" style="fill:none;stroke:#00ff4a;stroke-width:.666665;stroke-linecap:round;stroke-linejoin:round;stroke-miterlimit:2;stroke-dasharray:none;stroke-opacity:1;visibility:visible"/><path d="M316.24 707.988v29M308.089 707.233v28.017" style="fill:none;stroke:#00ff4a;stroke-width:1.33333;stroke-linecap:round;stroke-linejoin:round;stroke-miterlimit:2;stroke-dasharray:none;stroke-opacity:1;visibility:visible"/><path d="M323.033 712.97v28.276" style="fill:none;stroke:#00ff4a;stroke-width:.666665;stroke-linecap:round;stroke-linejoin:round;stroke-miterlimit:2;stroke-dasharray:none;stroke-opacity:1;visibility:visible"/><path d="m594.148 582.388-101.535-43.261M213.118 640.28l267.965-101.913M300.155 738.982l7.762-3.626M322.909 741.782l-6.334-4.604M323.3 741.654l305.344-143.593M299.85 738.777l-116.932-86.7M628.807 574.46v23.66M492.614 515.171v4.968M185.364 616.616v9.041" style="fill:none;stroke:#00ff4a;stroke-width:1.33333;stroke-linecap:round;stroke-linejoin:round;stroke-miterlimit:2;stroke-dasharray:none;stroke-opacity:1;visibility:visible"/><path d="m309.07 731.17 6.58.75M308.895 712.064l6.766.773" style="fill:none;stroke:#00ff4a;stroke-width:.999997;stroke-linecap:round;stroke-linejoin:round;stroke-miterlimit:2;stroke-dasharray:none;stroke-opacity:1;visibility:visible"/><path d="M313.871 722.837c0 1.143-.716 2.068-1.6 2.068-.881 0-1.597-.925-1.597-2.068s.715-2.068 1.596-2.068c.885 0 1.601.925 1.601 2.068M473.439 526.996a1.237 1.237 0 0 1 .086-.63M502.427 526.93a1.256 1.256 0 0 0-.088-.63" style="fill:none;stroke:#00ff4a;stroke-width:.666665;stroke-linecap:round;stroke-linejoin:round;stroke-miterlimit:2;stroke-dasharray:none;stroke-opacity:1;visibility:visible"/><path d="M505.459 516.951c0 .719-1.21 1.304-2.71 1.304-1.492 0-2.705-.585-2.705-1.305 0-.723 1.213-1.307 2.706-1.307 1.5 0 2.71.584 2.71 1.307l-.001.001M299.83 704.345c0 .721-1.212 1.305-2.71 1.305-1.49-.001-2.702-.584-2.702-1.305-.001-.724 1.211-1.308 2.702-1.308 1.498 0 2.71.584 2.71 1.308M193.465 628.724c0 .719-1.213 1.304-2.71 1.304-1.492 0-2.704-.584-2.704-1.305.001-.724 1.213-1.307 2.703-1.307 1.498 0 2.71.583 2.71 1.307l.001.001M328.733 707.077c0 .721-1.213 1.304-2.71 1.304-1.493 0-2.705-.583-2.705-1.304 0-.724 1.212-1.308 2.705-1.308 1.498 0 2.71.584 2.71 1.308M476.783 516.563c0 .72-1.21 1.304-2.71 1.304-1.49 0-2.703-.584-2.703-1.304 0-.724 1.213-1.31 2.703-1.31 1.5.001 2.71.587 2.71 1.311v-.001M198.92 615.859c0 .718-1.212 1.304-2.71 1.304-1.492 0-2.702-.586-2.702-1.304 0-.724 1.21-1.309 2.702-1.309 1.498 0 2.71.585 2.71 1.309" style="fill:none;stroke:#00ff4a;stroke-width:.999997;stroke-linecap:round;stroke-linejoin:round;stroke-miterlimit:2;stroke-dasharray:none;stroke-opacity:1;visibility:visible"/><path d="m308.829 713.644 6.581.75" style="fill:none;stroke:#00ff4a;stroke-width:.666665;stroke-linecap:round;stroke-linejoin:round;stroke-miterlimit:2;stroke-dasharray:none;stroke-opacity:1;visibility:visible"/><path d="m505.936 526.439.034-.756-2.883-1.539-1.89-.476-3.243-1.641-20.602-.65-3.292 1.346-2.448.517-3.084 1.38-.138 1.66c.01.155-.03 1.093-.91 1.515M468.97 539.561l4.423-1.925 2.358-.45 7.757-.197 12.303.243 5.849 1.448 3.585 2.008.543-.23.01-.651.141-.299 1.093-.47.003-.607s-1.142-.754-.83-2.071M505.81 536.055l.081-5.918 1.24-.52.019-.63s-1.12-.596-.84-1.929" style="fill:none;stroke:#00ff4a;stroke-width:.666665;stroke-linecap:round;stroke-linejoin:round;stroke-miterlimit:500;stroke-dasharray:none;stroke-opacity:1;visibility:visible"/><path d="M502.916 529.521c.55.502.747 1.472.887 2.549.202 2.7-1.583 2.762-2.387 2.293l-2.213.234-1.368-.704-4.51-.168-10.37-.285-5.786-.191-1.399.613-2.427-.377s-2.453 1.105-2.688-2.075c.325-3.118 2.677-4.295 2.677-4.295l2.44-2.52 1.478-.687 19.413.645 1.666.807s1.461 2.481 1.935 2.727c.479.243 2.136.963 2.652 1.433v.001M468.988 535.176s1.52-.61 1.484 1.259c-.022 1.222-1.301 2.234-1.477 2.25M469.063 525.732s1.64-.488 1.385 1.353c-.073 1.488-1.398 2.18-1.398 2.18M468.467 525.545s-1.035.395-1.421 1.75c-.402 1.605.72 2.052 1.406 1.758M473.644 535.504c-.264.536-.773.824-1.124.646-.359-.178-.432-.757-.164-1.29.267-.536.776-.828 1.135-.645.349.175.422.758.153 1.29v-.001M500.868 536.332c-.237-.535-.132-1.099.233-1.264.369-.165.847.217 1.09.75.239.534.132 1.099-.235 1.261-.366.167-.85-.215-1.088-.746v-.001M501.161 527.003c-.237-.53-.131-1.096.235-1.263.367-.164.847.22 1.085.753.244.53.136 1.097-.231 1.26-.367.164-.85-.216-1.089-.75M473.659 526.077c-.263.523-.767.798-1.127.62-.36-.181-.368-.794-.108-1.317.26-.524.767-.799 1.126-.617.36.177.37.793.11 1.314h-.001" style="fill:none;stroke:#00ff4a;stroke-width:.666665;stroke-linecap:round;stroke-linejoin:round;stroke-miterlimit:500;stroke-dasharray:none;stroke-opacity:1;visibility:visible"/><path d="M489.516 529.856c-.033.91-.884 1.625-1.895 1.588-1.014-.037-1.809-.804-1.77-1.721.034-.913.878-1.628 1.894-1.59 1.01.034 1.802.805 1.771 1.722v.001M467.428 528.433l1.087.618-.007 5.802s.122 1.811-1.072 2.371M505.439 526.828s-1.3-.685-1.412 1.055c.168 1.87 1.333 2.457 1.333 2.457M506.001 530.212s1.292.58 1.296-1.235a3.033 3.033 0 0 0-1.285-2.337M505.896 536.108s1.225.815 1.254 2.17c.105 1.27-.579 1.627-1.203 1.356M505.324 536.292s-1.516-.817-1.364 1.43c.436 1.826 1.328 2.059 1.328 2.059M468.512 539.303l.003-.735" style="fill:none;stroke:#00ff4a;stroke-width:.666665;stroke-linecap:round;stroke-linejoin:round;stroke-miterlimit:500;stroke-dasharray:none;stroke-opacity:1;visibility:visible"/><path d="m467.438 537.87 1.06.554c-.698.428-1.77-.141-1.498-1.464.253-1.253 1.472-2 1.472-2" style="fill:none;stroke:#00ff4a;stroke-width:.666665;stroke-linecap:round;stroke-linejoin:round;stroke-miterlimit:500;stroke-dasharray:none;stroke-opacity:1;visibility:visible"/><path d="m192.606 613.861-3.77 1.367M188.836 615.228l3.77-1.367M198.154 611.856l-3.509 1.268M194.645 613.124l3.509-1.268M329.071 701.977l-4.564 2.035M324.507 704.012l4.564-2.035M622.021 567.87l-4.94 5.543M621.308 562.043l-9.054-3.666M617.87 566.375l3.438-4.332M628.807 574.46l-.331-3.52" style="fill:none;stroke:#00ff4a;stroke-width:1.33333;stroke-linecap:round;stroke-linejoin:round;stroke-miterlimit:2;stroke-dasharray:none;stroke-opacity:1;visibility:visible"/><path d="m620.88 567.604-3.01-1.229M617.87 566.375l3.01 1.229M628.807 574.46l-6.829-4.934M189.272 625.168l3.316-5.049M492.583 515.063l-8.768-.054" style="fill:none;stroke:#00ff4a;stroke-width:.666665;stroke-linecap:round;stroke-linejoin:round;stroke-miterlimit:2;stroke-dasharray:none;stroke-opacity:1;visibility:visible"/><path d="m295.953 698.446 3.16 2.222M299.113 700.668l-3.16-2.222M188.92 618.957l3.425 6.727" style="fill:none;stroke:#00ff4a;stroke-width:1.33333;stroke-linecap:round;stroke-linejoin:round;stroke-miterlimit:2;stroke-dasharray:none;stroke-opacity:1;visibility:visible"/><path d="m188.92 618.957-5.607 8.648" style="fill:none;stroke:#00ff4a;stroke-width:.666665;stroke-linecap:round;stroke-linejoin:round;stroke-miterlimit:2;stroke-dasharray:none;stroke-opacity:1;visibility:visible"/><path d="m192.588 620.119-3.316 5.049" style="fill:none;stroke:#00ff4a;stroke-width:1.33333;stroke-linecap:round;stroke-linejoin:round;stroke-miterlimit:2;stroke-dasharray:none;stroke-opacity:1;visibility:visible"/><path d="m617.081 573.413 4.94-5.543" style="fill:none;stroke:#00ff4a;stroke-width:.666665;stroke-linecap:round;stroke-linejoin:round;stroke-miterlimit:2;stroke-dasharray:none;stroke-opacity:1;visibility:visible"/><path d="m617.87 566.375 4 5.046M476.783 516.563l7.226 3.457" style="fill:none;stroke:#00ff4a;stroke-width:1.33333;stroke-linecap:round;stroke-linejoin:round;stroke-miterlimit:2;stroke-dasharray:none;stroke-opacity:1;visibility:visible"/><path d="m192.345 625.684-3.425-6.727" style="fill:none;stroke:#00ff4a;stroke-width:.666665;stroke-linecap:round;stroke-linejoin:round;stroke-miterlimit:2;stroke-dasharray:none;stroke-opacity:1;visibility:visible"/><path d="m468.97 539.561 12.113-1.194M489.516 529.856l3.098-9.717M193.465 628.724l-8.101-3.067" style="fill:none;stroke:#00ff4a;stroke-width:1.33333;stroke-linecap:round;stroke-linejoin:round;stroke-miterlimit:2;stroke-dasharray:none;stroke-opacity:1;visibility:visible"/><path d="m315.41 714.394-6.34 16.776M308.829 713.644l6.821 18.276M315.41 714.394l-6.515-2.33M308.829 713.644l6.832-.807" style="fill:none;stroke:#00ff4a;stroke-width:.999997;stroke-linecap:round;stroke-linejoin:round;stroke-miterlimit:2;stroke-dasharray:none;stroke-opacity:1;visibility:visible"/><path d="m308.089 735.25 5.782-12.413M323.033 712.97l-9.162 9.867M505.439 526.828l-3.012.102M501.161 527.003l1.178-.703" style="fill:none;stroke:#00ff4a;stroke-width:.666665;stroke-linecap:round;stroke-linejoin:round;stroke-miterlimit:2;stroke-dasharray:none;stroke-opacity:1;visibility:visible"/><path d="m505.936 526.439-.477-9.488M505.36 530.34l.099-13.389M308.089 707.233l-8.259-2.888M185.364 625.657l8.101 3.067M323.033 712.97l5.7-5.893M484.009 520.02l-7.226-3.457M484.009 520.02l-7.226-3.457M185.364 625.657l13.556-9.798M185.364 616.616l13.556-.757" style="fill:none;stroke:#00ff4a;stroke-width:.999997;stroke-linecap:round;stroke-linejoin:round;stroke-miterlimit:2;stroke-dasharray:none;stroke-opacity:1;visibility:visible"/><path d="m315.661 712.837-6.832.807M308.895 712.064l6.515 2.33" style="fill:none;stroke:#00ff4a;stroke-width:.666665;stroke-linecap:round;stroke-linejoin:round;stroke-miterlimit:2;stroke-dasharray:none;stroke-opacity:1;visibility:visible"/><path d="m500.868 536.332 2.048-6.811M468.512 539.303l5.132-3.799M501.161 527.003l-.293 9.329M505.81 536.055l-4.942.277M502.339 526.3l-1.178.703M500.868 536.332l.293-9.329M492.614 520.139l-3.098 9.717M500.868 536.332l-11.352-6.476" style="fill:none;stroke:#00ff4a;stroke-width:.666665;stroke-linecap:round;stroke-linejoin:round;stroke-miterlimit:500;stroke-dasharray:none;stroke-opacity:1;visibility:visible"/><path d="m499.919 556.13-7.306-17.003" style="fill:none;stroke:#00ff4a;stroke-width:1.33333;stroke-linecap:round;stroke-linejoin:round;stroke-miterlimit:2;stroke-dasharray:none;stroke-opacity:1;visibility:visible"/></svg>