<svg xmlns="http://www.w3.org/2000/svg" baseProfile="full" height="1122.52" preserveAspectRatio="xMinYMin meet" style="width:1370px;height:1303px" width="793.701" xml:space="preserve"><path d="m551.07 484.215-61.668-14.641-101.596 94.01 115.449 31.996 97.309-99.616-44.299-10.738-7.678 10.474c0-1.953 2.125-10.32 2.482-11.485" style="fill:none;fill-opacity:1;fill-rule:nonzero;stroke:red;stroke-width:1.33333;visibility:visible"/><path d="m450.075 580.528 99.718-96.128" style="fill:none;stroke:red;stroke-width:.999997;stroke-linecap:round;stroke-linejoin:round;stroke-miterlimit:500;stroke-dasharray:none;stroke-opacity:1;visibility:visible"/><path d="m600.597 495.695-43.101-10.287M549.633 483.535l-11.062-2.641" style="fill:none;stroke:red;stroke-width:1.73466;stroke-linecap:round;stroke-linejoin:round;stroke-miterlimit:500;stroke-dasharray:none;stroke-opacity:1;visibility:visible"/><path d="m503.865 595.028 96.733-99.334" style="fill:none;stroke:red;stroke-width:.666665;stroke-linecap:round;stroke-linejoin:round;stroke-miterlimit:500;stroke-dasharray:none;stroke-opacity:1;visibility:visible"/><path d="m386.972 563.628 42.69 11.47 74.202 19.929" style="fill:none;stroke:red;stroke-width:.999997;stroke-linecap:round;stroke-linejoin:round;stroke-miterlimit:500;stroke-dasharray:none;stroke-opacity:1;visibility:visible"/><path d="m503.865 595.993 96.712-99.38" style="fill:none;stroke:red;stroke-width:.666665;stroke-linecap:round;stroke-linejoin:round;stroke-miterlimit:500;stroke-dasharray:none;stroke-opacity:1;visibility:visible"/><path d="m486.459 471.168-99.23 91.308" style="fill:none;stroke:red;stroke-width:.999997;stroke-linecap:round;stroke-linejoin:round;stroke-miterlimit:500;stroke-dasharray:none;stroke-opacity:1;visibility:visible"/><path d="m557.496 485.408-6.426-1.193" style="fill:none;fill-opacity:1;fill-rule:nonzero;stroke:red;stroke-width:1.33333;visibility:visible"/><path d="m551.07 484.215 6.426 1.193M551.07 484.215l-12.499-3.321" style="fill:none;stroke:red;stroke-width:1.73466;stroke-linecap:round;stroke-linejoin:round;stroke-miterlimit:500;stroke-dasharray:none;stroke-opacity:1;visibility:visible"/><path d="m547.997 605.841-42.593-11.426" style="fill:none;stroke:#00ff4a;stroke-width:.999997;stroke-linecap:round;stroke-linejoin:round;stroke-miterlimit:500;stroke-dasharray:none;stroke-opacity:1;visibility:visible"/><path d="m387.811 562.855-194.847-52.29" style="fill:none;stroke:#00ff4a;stroke-width:1.73466;stroke-linecap:round;stroke-linejoin:round;stroke-miterlimit:500;stroke-dasharray:none;stroke-opacity:1;visibility:visible"/><path d="m524.892 621.788 20.608 5.642" style="fill:none;stroke:#00ff4a;stroke-width:.999997;stroke-linecap:round;stroke-linejoin:round;stroke-miterlimit:500;stroke-dasharray:none;stroke-opacity:1;visibility:visible"/><path d="m191.809 530.604 333.083 91.186" style="fill:none;stroke:#00ff4a;stroke-width:1.73466;stroke-linecap:round;stroke-linejoin:round;stroke-miterlimit:500;stroke-dasharray:none;stroke-opacity:1;visibility:visible"/><path d="m639.545 561.068-.59-.15" style="fill:none;stroke:#00ff4a;stroke-width:.999997;stroke-linecap:round;stroke-linejoin:round;stroke-miterlimit:500;stroke-dasharray:none;stroke-opacity:1;visibility:visible"/><path d="m641.512 505.65-40.917-9.763M597.703 570.83l39.283 10.09M387.766 516.919l38.284 9.833M304.557 495.552l14.649 3.762M336.623 484.755l-30.692-7.735M442.662 511.468l-54.115-13.634M618.478 555.761l-19.066-4.804M387.479 464.718l83.802 20.417M301.727 443.823l64.93 15.82" style="fill:none;stroke:#00ff4a;stroke-width:1.73466;stroke-linecap:round;stroke-linejoin:round;stroke-miterlimit:500;stroke-dasharray:none;stroke-opacity:1;visibility:visible"/><path d="m619.318 521.206 19.6 4.774" style="fill:none;stroke:#00ff4a;stroke-width:.999997;stroke-linecap:round;stroke-linejoin:round;stroke-miterlimit:500;stroke-dasharray:none;stroke-opacity:1;visibility:visible"/><path d="m600.256 516.562 19.064 4.645" style="fill:none;stroke:#00ff4a;stroke-width:1.73466;stroke-linecap:round;stroke-linejoin:round;stroke-miterlimit:500;stroke-dasharray:none;stroke-opacity:1;visibility:visible"/><path d="m547.38 663.998-.672-.188" style="fill:none;stroke:#00ff4a;stroke-width:.999997;stroke-linecap:round;stroke-linejoin:round;stroke-miterlimit:500;stroke-dasharray:none;stroke-opacity:1;visibility:visible"/><path d="m196.449 584.767 348.463 100.275M524.903 657.652l-327.286-92.457" style="fill:none;stroke:#00ff4a;stroke-width:1.73466;stroke-linecap:round;stroke-linejoin:round;stroke-miterlimit:500;stroke-dasharray:none;stroke-opacity:1;visibility:visible"/><path d="m303.102 424.875-14.775-3.527" style="fill:none;stroke:#00ff4a;stroke-width:.999997;stroke-linecap:round;stroke-linejoin:round;stroke-miterlimit:500;stroke-dasharray:none;stroke-opacity:1;visibility:visible"/><path d="m290.523 491.948 14.034 3.603M305.933 477.02l-15.031-3.785M289.013 440.723l12.713 3.099M165.046 410.518l7.784 1.898M192.853 398.562l-26.876-6.416" style="fill:none;stroke:#00ff4a;stroke-width:1.73466;stroke-linecap:round;stroke-linejoin:round;stroke-miterlimit:500;stroke-dasharray:none;stroke-opacity:1;visibility:visible"/><path d="m192.964 510.563-14.674-3.939" style="fill:none;stroke:#00ff4a;stroke-width:.999997;stroke-linecap:round;stroke-linejoin:round;stroke-miterlimit:500;stroke-dasharray:none;stroke-opacity:1;visibility:visible"/><path d="m81.364 500.368 110.445 30.235M78.254 479.778l-27.873-7.482" style="fill:none;stroke:#00ff4a;stroke-width:1.73466;stroke-linecap:round;stroke-linejoin:round;stroke-miterlimit:500;stroke-dasharray:none;stroke-opacity:1;visibility:visible"/><path d="m65.072 495.908 16.293 4.462" style="fill:none;stroke:#00ff4a;stroke-width:.999997;stroke-linecap:round;stroke-linejoin:round;stroke-miterlimit:500;stroke-dasharray:none;stroke-opacity:1;visibility:visible"/><path d="m56.179 544.404 140.27 40.363M69.474 528.993l-12.593-3.557M197.617 565.195l-109.9-31.048M49.705 491.7l15.367 4.207" style="fill:none;stroke:#00ff4a;stroke-width:1.73466;stroke-linecap:round;stroke-linejoin:round;stroke-miterlimit:500;stroke-dasharray:none;stroke-opacity:1;visibility:visible"/><path d="m546.705 664.121.405-38.345" style="fill:none;stroke:#00ff4a;stroke-width:.999997;stroke-linecap:round;stroke-linejoin:round;stroke-miterlimit:500;stroke-dasharray:none;stroke-opacity:1;visibility:visible"/><path d="m525.065 621.836-.172 38.49" style="fill:none;stroke:#00ff4a;stroke-width:1.73466;stroke-linecap:round;stroke-linejoin:round;stroke-miterlimit:500;stroke-dasharray:none;stroke-opacity:1;visibility:visible"/><path d="m638.942 561.181 1.295-36.566" style="fill:none;stroke:#00ff4a;stroke-width:.999997;stroke-linecap:round;stroke-linejoin:round;stroke-miterlimit:500;stroke-dasharray:none;stroke-opacity:1;visibility:visible"/><path d="m619.505 521.252-1.095 36.725" style="fill:none;stroke:#00ff4a;stroke-width:1.73466;stroke-linecap:round;stroke-linejoin:round;stroke-miterlimit:500;stroke-dasharray:none;stroke-opacity:1;visibility:visible"/><path d="m519.247 656.054 5.69-6.184M65.559 496.042l4.214 35.485" style="fill:none;stroke:#00ff4a;stroke-width:.999997;stroke-linecap:round;stroke-linejoin:round;stroke-miterlimit:500;stroke-dasharray:none;stroke-opacity:1;visibility:visible"/><path d="m249.19 525.652 42.583-34.724M199.904 565.841l30.315-24.72M406.963 624.335l27.847-27.206M348.074 552.188l40.914-36.352M300.674 594.308l29.166-25.913M104.237 538.815l31.317-23.612M547.11 625.785l51.733-56.197" style="fill:none;stroke:#00ff4a;stroke-width:1.73466;stroke-linecap:round;stroke-linejoin:round;stroke-miterlimit:500;stroke-dasharray:none;stroke-opacity:1;visibility:visible"/><path d="m176.44 507.078 111.877-85.908M489.535 469.19 386.97 563.63M386.972 563.628l.031.943M131.445 495.867l45.076 12.119M131.354 494.964l.091.902M288.317 421.171l.052.863M600.597 495.695l-.021.915M503.865 595.028v.964M548.101 606.123l-.005-.086-.01-.076-.024-.06-.032-.041-.035-.02h-.045l-.046.025-.048.045M545.839 608.067a1.267 1.267 0 0 0-.255.753M190.434 512.442a.837.837 0 0 0-.254.686M545.585 608.821 190.18 513.13M77.41 481.339l54.036 14.528M131.354 494.964l.091.902M77.31 480.448l.1.89M387.003 564.572l116.861 31.421" style="fill:none;stroke:#00ff4a;stroke-width:.999997;stroke-linecap:round;stroke-linejoin:round;stroke-miterlimit:500;stroke-dasharray:none;stroke-opacity:1;visibility:visible"/><path d="m547.903 624.436.197-18.313" style="fill:none;stroke:#00ff4a;stroke-width:1.73466;stroke-linecap:round;stroke-linejoin:round;stroke-miterlimit:500;stroke-dasharray:none;stroke-opacity:1;visibility:visible"/><path d="M191.653 530.336a.285.285 0 0 0 .156.267M192.789 510.612l-2.356 1.83M387.199 574.881l.37.044.337-.068.266-.176.18-.273.074-.341-.042-.38-.152-.388-.244-.354-.32-.297-.365-.208-.38-.101-.357.01-.304.127-.227.227-.125.313-.016.364.094.39.2.37.287.33.347.255.377.156M278.51 545.38l.352.043.312-.07.248-.179.159-.269.057-.335-.052-.374-.152-.379-.239-.344-.31-.286-.348-.2-.358-.098-.336.015-.283.124-.206.228-.107.305-.005.36.101.375.198.368.278.32.334.25.357.146M502.185 606.095l.395.049.357-.065.298-.182.198-.276.091-.344-.033-.387-.151-.398-.245-.365-.335-.304-.38-.216-.403-.107-.382.005-.33.125-.25.231-.142.314-.032.373.09.396.199.383.295.338.365.266.395.164M190.178 513.13l1.475 17.206M547.856 605.908l-2.017 2.157M545.585 608.821l-.185 18.334M545.399 627.156l.005.084.01.08.024.055.032.038.038.019h.041l.047-.027.05-.044M545.647 627.361l2.001-2.176M547.648 625.187a1.257 1.257 0 0 0 .255-.75" style="fill:none;stroke:#00ff4a;stroke-width:.999997;stroke-linecap:round;stroke-linejoin:round;stroke-miterlimit:500;stroke-dasharray:none;stroke-opacity:1;visibility:visible"/><path d="m636.905 580.657.003.083.008.065.017.058.021.037.032.017h.036l.04-.017.038-.04" style="fill:none;stroke:#00ff4a;stroke-width:1.73466;stroke-linecap:round;stroke-linejoin:round;stroke-miterlimit:500;stroke-dasharray:none;stroke-opacity:1;visibility:visible"/><path d="M639.628 561.337v-.082l-.008-.07-.02-.059-.024-.036-.03-.021-.033.002-.041.017-.042.039M639.43 561.127l-1.703 1.903M637.728 563.03a1.23 1.23 0 0 0-.23.684M637.498 563.715l-.593 16.942" style="fill:none;stroke:#00ff4a;stroke-width:.999997;stroke-linecap:round;stroke-linejoin:round;stroke-miterlimit:500;stroke-dasharray:none;stroke-opacity:1;visibility:visible"/><path d="m637.101 580.861 1.696-1.92M638.797 578.941c.143-.2.221-.437.23-.681M639.025 578.259l.601-16.922" style="fill:none;stroke:#00ff4a;stroke-width:1.73466;stroke-linecap:round;stroke-linejoin:round;stroke-miterlimit:500;stroke-dasharray:none;stroke-opacity:1;visibility:visible"/><path d="M641.6 505.935v-.085l-.01-.072-.018-.062-.022-.038-.032-.024-.036-.004-.038.018-.042.038M641.402 505.706l-1.73 1.85M639.672 507.555a1.227 1.227 0 0 0-.23.693M639.442 508.248l-.612 17.456M638.83 525.704v.083l.011.073.017.06.024.039.031.021h.035l.041-.016.041-.037M639.03 525.927l1.718-1.868M640.748 524.059c.145-.2.226-.44.232-.69M304.557 495.552h-.003l-.039-.021-.034-.037-.026-.054-.021-.066-.008-.078M305.794 477.064l-2.015 1.64M313.355 491.79l.438.066.412-.037.365-.141.308-.231.228-.312.144-.38.044-.433-.044-.458-.144-.472-.228-.454-.304-.42-.37-.365-.408-.291-.441-.212-.44-.111-.43-.01-.389.087-.341.187-.265.273-.188.35-.093.408v.448l.093.466.188.464.268.44.337.396.39.328.429.254.441.16M303.549 479.332l.877 15.964M303.78 478.704a.835.835 0 0 0-.234.628" style="fill:none;stroke:#00ff4a;stroke-width:.999997;stroke-linecap:round;stroke-linejoin:round;stroke-miterlimit:500;stroke-dasharray:none;stroke-opacity:1;visibility:visible"/><path d="m640.98 523.37.62-17.435" style="fill:none;stroke:#00ff4a;stroke-width:1.73466;stroke-linecap:round;stroke-linejoin:round;stroke-miterlimit:500;stroke-dasharray:none;stroke-opacity:1;visibility:visible"/><path d="m547.473 664.268-.005-.086-.01-.072-.024-.056-.031-.038-.034-.014h-.044l-.045.026-.047.046M547.233 664.073l-1.985 2.212M545.248 666.285a1.285 1.285 0 0 0-.25.748M301.727 443.823l-.005-.001-.042-.026-.035-.041-.027-.055-.021-.068-.008-.078M302.967 424.916l-2.047 1.592M310.63 439.792l.445.056.415-.046.372-.148.31-.242.234-.326.139-.396.051-.443-.049-.473-.142-.48-.232-.464-.311-.426-.372-.37-.417-.295-.443-.208-.448-.108-.435-.005-.396.1-.341.197-.272.287-.19.362-.098.422.004.46.096.478.19.476.272.448.342.4.396.332.435.252.445.16M300.69 427.142l.899 16.412M300.92 426.508a.81.81 0 0 0-.23.634" style="fill:none;stroke:#00ff4a;stroke-width:.999997;stroke-linecap:round;stroke-linejoin:round;stroke-miterlimit:500;stroke-dasharray:none;stroke-opacity:1;visibility:visible"/><path d="m547.285 681.996.188-17.73" style="fill:none;stroke:#00ff4a;stroke-width:1.73466;stroke-linecap:round;stroke-linejoin:round;stroke-miterlimit:500;stroke-dasharray:none;stroke-opacity:1;visibility:visible"/><path d="M547.03 682.741a1.295 1.295 0 0 0 .256-.745" style="fill:none;stroke:#00ff4a;stroke-width:.999997;stroke-linecap:round;stroke-linejoin:round;stroke-miterlimit:500;stroke-dasharray:none;stroke-opacity:1;visibility:visible"/><path d="m545.06 684.97 1.97-2.23" style="fill:none;stroke:#00ff4a;stroke-width:1.73466;stroke-linecap:round;stroke-linejoin:round;stroke-miterlimit:500;stroke-dasharray:none;stroke-opacity:1;visibility:visible"/><path d="m302.967 424.916-2.047 1.592M300.92 426.508a.81.81 0 0 0-.23.634M300.69 427.142l.899 16.412M301.589 443.554l.008.08.02.066.026.055.037.043.042.024.005.001M196.306 584.513a.264.264 0 0 0 .144.252M197.437 565.247l-2.313 1.883M281.994 601.001l.352.151.328.245.273.315.195.36.101.365-.006.35-.107.292-.204.216-.279.114-.33.011-.351-.103-.344-.202-.305-.285-.235-.335-.15-.368-.051-.363.058-.325.156-.259.246-.163.306-.062.347.045M502.293 663.917l.388.164.36.26.286.336.198.376.086.384-.026.359-.144.302-.246.216-.326.116-.376.002-.393-.112-.38-.22-.323-.299-.246-.356-.144-.388-.03-.375.086-.336.197-.262.288-.167.352-.057.393.057M194.87 567.808l1.435 16.705M195.124 567.13a.85.85 0 0 0-.252.679M544.999 667.033l-350.127-99.225M544.999 667.033l-.18 17.748M544.819 684.781l.005.089.01.067.024.057.029.036.036.014.041-.006.048-.022.05-.047" style="fill:none;stroke:#00ff4a;stroke-width:.999997;stroke-linecap:round;stroke-linejoin:round;stroke-miterlimit:500;stroke-dasharray:none;stroke-opacity:1;visibility:visible"/><path d="M164.888 410.251a.267.267 0 0 0 .158.267M165.834 392.18l-2.154 1.492M163.448 394.282l1.44 15.97M163.68 393.672a.73.73 0 0 0-.232.611" style="fill:none;stroke:#00ff4a;stroke-width:1.73466;stroke-linecap:round;stroke-linejoin:round;stroke-miterlimit:500;stroke-dasharray:none;stroke-opacity:1;visibility:visible"/><path d="m192.789 510.612-2.356 1.83M190.178 513.13l1.475 17.206M191.653 530.336a.27.27 0 0 0 .156.267M190.434 512.442a.837.837 0 0 0-.254.686M47.73 474.05a.737.737 0 0 0-.253.658M190.178 513.13 47.475 474.707M303.549 479.332l.877 15.964M304.426 495.295l.008.079.02.065.026.053.034.039.04.019h.003M305.794 477.064l-2.015 1.64M303.78 478.704a.835.835 0 0 0-.234.628" style="fill:none;stroke:#00ff4a;stroke-width:.999997;stroke-linecap:round;stroke-linejoin:round;stroke-miterlimit:500;stroke-dasharray:none;stroke-opacity:1;visibility:visible"/><path d="m47.475 474.707 2.058 16.73" style="fill:none;stroke:#00ff4a;stroke-width:1.73466;stroke-linecap:round;stroke-linejoin:round;stroke-miterlimit:500;stroke-dasharray:none;stroke-opacity:1;visibility:visible"/><path d="m175.404 515.043.34.144.321.239.272.312.197.354.107.375.005.35-.094.299-.187.224-.261.127-.315.017-.339-.09-.333-.195-.299-.279-.234-.336-.156-.37-.058-.365.044-.329.14-.266.23-.178.289-.07.33.037M77.8 488.61l.325.139.308.231.263.302.197.35.11.36.014.35-.079.296-.166.22-.243.125-.297.021-.32-.088-.32-.19-.29-.266-.232-.33-.156-.361-.064-.357.034-.324.121-.262.212-.176.27-.074.313.035" style="fill:none;stroke:#00ff4a;stroke-width:.999997;stroke-linecap:round;stroke-linejoin:round;stroke-miterlimit:500;stroke-dasharray:none;stroke-opacity:1;visibility:visible"/><path d="m50.197 472.342-2.467 1.708" style="fill:none;stroke:#00ff4a;stroke-width:1.73466;stroke-linecap:round;stroke-linejoin:round;stroke-miterlimit:500;stroke-dasharray:none;stroke-opacity:1;visibility:visible"/><path d="m194.87 567.808 1.435 16.705M196.306 584.513a.25.25 0 0 0 .144.252M197.437 565.247l-2.313 1.883M195.124 567.13a.85.85 0 0 0-.252.679M54.267 527.241a.747.747 0 0 0-.25.65M194.87 567.808 54.016 527.891M49.533 491.436c0 .115.068.22.172.264" style="fill:none;stroke:#00ff4a;stroke-width:.999997;stroke-linecap:round;stroke-linejoin:round;stroke-miterlimit:500;stroke-dasharray:none;stroke-opacity:1;visibility:visible"/><path d="m54.017 527.89 2.003 16.26" style="fill:none;stroke:#00ff4a;stroke-width:1.73466;stroke-linecap:round;stroke-linejoin:round;stroke-miterlimit:500;stroke-dasharray:none;stroke-opacity:1;visibility:visible"/><path d="m180.733 574.355.327.044.288-.066.224-.166.14-.252.045-.318-.057-.354-.152-.363-.232-.332-.296-.276-.326-.192-.336-.096-.31.012-.26.115-.183.214-.093.288.005.343.107.36.193.348.268.305.312.241.336.145M84.514 546.819l.307.038.272-.066.205-.167.126-.25.03-.312-.064-.349-.15-.35-.232-.326-.283-.269-.315-.184-.317-.093-.292.016-.24.116-.167.212-.08.284.016.337.11.352.191.339.261.302.305.228.317.143" style="fill:none;stroke:#00ff4a;stroke-width:.999997;stroke-linecap:round;stroke-linejoin:round;stroke-miterlimit:500;stroke-dasharray:none;stroke-opacity:1;visibility:visible"/><path d="M56.017 544.15a.272.272 0 0 0 .163.254M56.69 525.481l-2.424 1.76" style="fill:none;stroke:#00ff4a;stroke-width:1.73466;stroke-linecap:round;stroke-linejoin:round;stroke-miterlimit:500;stroke-dasharray:none;stroke-opacity:1;visibility:visible"/><path d="m600.698 498.51-93.43 96.174M87.644 534.536l-1.802 1.339M85.14 535.985a.884.884 0 0 0 .702-.109M618.41 557.976a.335.335 0 0 0 .305.25M637.618 562.71l1.28-1.422M636.926 562.827a.764.764 0 0 0 .694-.117M524.892 660.326a.35.35 0 0 0 .31.282M546.648 664.256l-1.488 1.657M544.404 666.044a.79.79 0 0 0 .755-.13" style="fill:none;stroke:#00ff4a;stroke-width:.999997;stroke-linecap:round;stroke-linejoin:round;stroke-miterlimit:500;stroke-dasharray:none;stroke-opacity:1;visibility:visible"/><path d="m598.96 569.288 1.738-70.778" style="fill:none;stroke:#00ff4a;stroke-width:1.73466;stroke-linecap:round;stroke-linejoin:round;stroke-miterlimit:500;stroke-dasharray:none;stroke-opacity:1;visibility:visible"/><path d="m507.267 594.681-1.687-.453M600.698 498.51l-1.6-.38M507.279 616.967l.016 35.71" style="fill:none;stroke:#00ff4a;stroke-width:.999997;stroke-linecap:round;stroke-linejoin:round;stroke-miterlimit:500;stroke-dasharray:none;stroke-opacity:1;visibility:visible"/><path d="m502.26 615.593.065 35.68" style="fill:none;stroke:#00ff4a;stroke-width:1.73466;stroke-linecap:round;stroke-linejoin:round;stroke-miterlimit:500;stroke-dasharray:none;stroke-opacity:1;visibility:visible"/><path d="M598.844 569.588a.443.443 0 0 0 .116-.3" style="fill:none;stroke:#00ff4a;stroke-width:.999997;stroke-linecap:round;stroke-linejoin:round;stroke-miterlimit:500;stroke-dasharray:none;stroke-opacity:1;visibility:visible"/><path d="m84.5 501.227 3.766 33.076" style="fill:none;stroke:#00ff4a;stroke-width:1.73466;stroke-linecap:round;stroke-linejoin:round;stroke-miterlimit:500;stroke-dasharray:none;stroke-opacity:1;visibility:visible"/><path d="m78.462 479.63-.364-.098M190.38 400.316l-.353-.085M386.916 447.348 283.05 534.521" style="fill:none;stroke:#00ff4a;stroke-width:.999997;stroke-linecap:round;stroke-linejoin:round;stroke-miterlimit:500;stroke-dasharray:none;stroke-opacity:1;visibility:visible"/><path d="m389.122 515.495-2.204-68.145" style="fill:none;stroke:#00ff4a;stroke-width:1.73466;stroke-linecap:round;stroke-linejoin:round;stroke-miterlimit:500;stroke-dasharray:none;stroke-opacity:1;visibility:visible"/><path d="m283.049 534.521-4.511-1.209M284.36 555.94l2.101 34.352" style="fill:none;stroke:#00ff4a;stroke-width:.999997;stroke-linecap:round;stroke-linejoin:round;stroke-miterlimit:500;stroke-dasharray:none;stroke-opacity:1;visibility:visible"/><path d="m279.873 554.712 2.144 34.324M382.599 446.316l-104.061 86.996" style="fill:none;stroke:#00ff4a;stroke-width:1.73466;stroke-linecap:round;stroke-linejoin:round;stroke-miterlimit:500;stroke-dasharray:none;stroke-opacity:1;visibility:visible"/><path d="m388 562.681-.773-.204M487.196 471.346l-.736-.178M392.695 585.597l.977 34.306M388.988 515.838a.436.436 0 0 0 .134-.344" style="fill:none;stroke:#00ff4a;stroke-width:.999997;stroke-linecap:round;stroke-linejoin:round;stroke-miterlimit:500;stroke-dasharray:none;stroke-opacity:1;visibility:visible"/><path d="m387.951 584.3.873 33.399" style="fill:none;stroke:#00ff4a;stroke-width:1.73466;stroke-linecap:round;stroke-linejoin:round;stroke-miterlimit:500;stroke-dasharray:none;stroke-opacity:1;visibility:visible"/><path d="M288.023 423.68 179.92 506.85" style="fill:none;stroke:#00ff4a;stroke-width:.999997;stroke-linecap:round;stroke-linejoin:round;stroke-miterlimit:500;stroke-dasharray:none;stroke-opacity:1;visibility:visible"/><path d="m291.907 490.575-3.884-66.896" style="fill:none;stroke:#00ff4a;stroke-width:1.73466;stroke-linecap:round;stroke-linejoin:round;stroke-miterlimit:500;stroke-dasharray:none;stroke-opacity:1;visibility:visible"/><path d="M291.773 490.928a.396.396 0 0 0 .136-.352M177.526 526.695l3.018 33.675M179.92 506.85l-1.424-.38M288.023 423.68l-1.37-.329M181.776 527.859l2.982 33.701" style="fill:none;stroke:#00ff4a;stroke-width:.999997;stroke-linecap:round;stroke-linejoin:round;stroke-miterlimit:500;stroke-dasharray:none;stroke-opacity:1;visibility:visible"/><path d="m547.856 605.908-42.53-11.417" style="fill:none;stroke:#00ff4a;stroke-width:1.73466;stroke-linecap:round;stroke-linejoin:round;stroke-miterlimit:500;stroke-dasharray:none;stroke-opacity:1;visibility:visible"/><path d="M382.194 446.655 300.69 427.14M486.07 471.527l-99.139-23.736M639.442 508.248l-38.754-9.28M639.43 561.127l-.483-.123M333.927 487.008l-30.377-7.676M440.09 513.832l-51.445-12.996M637.498 563.715l-38.162-9.643" style="fill:none;stroke:#00ff4a;stroke-width:.999997;stroke-linecap:round;stroke-linejoin:round;stroke-miterlimit:500;stroke-dasharray:none;stroke-opacity:1;visibility:visible"/><path d="m538.57 480.894-235.603-55.976" style="fill:none;stroke:#00ff4a;stroke-width:1.73466;stroke-linecap:round;stroke-linejoin:round;stroke-miterlimit:500;stroke-dasharray:none;stroke-opacity:1;visibility:visible"/><path d="m189.586 400.54-26.14-6.257M300.69 427.142l-12.644-3.03M547.233 664.073l-.526-.148" style="fill:none;stroke:#00ff4a;stroke-width:.999997;stroke-linecap:round;stroke-linejoin:round;stroke-miterlimit:500;stroke-dasharray:none;stroke-opacity:1;visibility:visible"/><path d="m233.19 408.148-67.356-15.968M288.333 421.422l14.634 3.494" style="fill:none;stroke:#00ff4a;stroke-width:1.73466;stroke-linecap:round;stroke-linejoin:round;stroke-miterlimit:500;stroke-dasharray:none;stroke-opacity:1;visibility:visible"/><path d="m303.549 479.332-12.475-3.152" style="fill:none;stroke:#00ff4a;stroke-width:.999997;stroke-linecap:round;stroke-linejoin:round;stroke-miterlimit:500;stroke-dasharray:none;stroke-opacity:1;visibility:visible"/><path d="m69.488 529.099-12.798-3.616M50.197 472.342l27.961 7.504M192.789 510.612l-14.59-3.917" style="fill:none;stroke:#00ff4a;stroke-width:1.73466;stroke-linecap:round;stroke-linejoin:round;stroke-miterlimit:500;stroke-dasharray:none;stroke-opacity:1;visibility:visible"/><path d="m544.404 666.044.385-38.804" style="fill:none;stroke:#00ff4a;stroke-width:.999997;stroke-linecap:round;stroke-linejoin:round;stroke-miterlimit:500;stroke-dasharray:none;stroke-opacity:1;visibility:visible"/><path d="m546.648 664.256.404-38.419" style="fill:none;stroke:#00ff4a;stroke-width:1.73466;stroke-linecap:round;stroke-linejoin:round;stroke-miterlimit:500;stroke-dasharray:none;stroke-opacity:1;visibility:visible"/><path d="m636.926 562.827 1.29-37.015" style="fill:none;stroke:#00ff4a;stroke-width:.999997;stroke-linecap:round;stroke-linejoin:round;stroke-miterlimit:500;stroke-dasharray:none;stroke-opacity:1;visibility:visible"/><path d="m638.898 561.285 1.298-36.624" style="fill:none;stroke:#00ff4a;stroke-width:1.73466;stroke-linecap:round;stroke-linejoin:round;stroke-miterlimit:500;stroke-dasharray:none;stroke-opacity:1;visibility:visible"/><path d="m85.14 535.985-4.098-35.705" style="fill:none;stroke:#00ff4a;stroke-width:.999997;stroke-linecap:round;stroke-linejoin:round;stroke-miterlimit:500;stroke-dasharray:none;stroke-opacity:1;visibility:visible"/><path d="m519.108 656.014 5.83-6.334M65.741 496.09l4.23 35.598" style="fill:none;stroke:#00ff4a;stroke-width:1.73466;stroke-linecap:round;stroke-linejoin:round;stroke-miterlimit:500;stroke-dasharray:none;stroke-opacity:1;visibility:visible"/><path d="m311.94 489.454 2.44.589M309.394 437.368l2.439.65M229.578 464.28v-18.345" style="fill:none;stroke:#00ff4a;stroke-width:.666665;stroke-linecap:round;stroke-linejoin:round;stroke-miterlimit:4;stroke-dasharray:none;stroke-opacity:1;visibility:visible"/><path d="M230.906 424.734c0 .358-.595.646-1.33.646-.734 0-1.329-.288-1.329-.646-.001-.358.594-.648 1.329-.648.736 0 1.331.29 1.331.648h-.001M230.23 425.324v17.926M228.925 425.324v17.926M229.578 444.746l-.652-1.496M230.23 443.251l-.652 1.495" style="fill:none;stroke:#00ff4a;stroke-width:.799998;stroke-linecap:round;stroke-linejoin:round;stroke-miterlimit:2;stroke-dasharray:none;stroke-opacity:1;visibility:visible"/><path d="m311.94 489.454 7.266 9.86M599.336 554.072l19.142 1.689M382.194 446.655l5.285 18.063M600.698 498.51l-.442 18.052M303.549 479.332l-13.026 12.616M303.549 479.332l-12.647-6.097M301.727 443.823l-12.714-3.1M190.027 400.231l2.826-1.669M197.437 565.247l2.467.594M87.644 534.536l16.593 4.279" style="fill:none;stroke:#00ff4a;stroke-width:1.73466;stroke-linecap:round;stroke-linejoin:round;stroke-miterlimit:500;stroke-dasharray:none;stroke-opacity:1;visibility:visible"/><path d="m301.727 443.823 8.903-4.031M309.394 437.368l1.236 2.424" style="fill:none;stroke:#00ff4a;stroke-width:.999997;stroke-linecap:round;stroke-linejoin:round;stroke-miterlimit:500;stroke-dasharray:none;stroke-opacity:1;visibility:visible"/><path d="m503.865 595.992-1.605 19.601M387.003 564.571l.948 19.729" style="fill:none;stroke:#00ff4a;stroke-width:1.73466;stroke-linecap:round;stroke-linejoin:round;stroke-miterlimit:500;stroke-dasharray:none;stroke-opacity:1;visibility:visible"/><path d="m191.653 530.336-14.127-3.641M194.87 567.808l-14.326-7.438M300.69 427.142l-14.037-3.791M191.653 530.336l-9.877-2.477M194.87 567.808l-10.112-6.248M618.478 555.761l-19.142-1.689M305.933 477.02l-14.859-.84" style="fill:none;stroke:#00ff4a;stroke-width:.999997;stroke-linecap:round;stroke-linejoin:round;stroke-miterlimit:500;stroke-dasharray:none;stroke-opacity:1;visibility:visible"/><path d="m304.557 495.551 7.383-6.097M304.557 495.552l9.823-5.509M310.63 439.792l-1.236-2.424M301.727 443.823l10.106-5.805M230.23 443.25l-.652 2.685" style="fill:none;stroke:#00ff4a;stroke-width:.666665;stroke-linecap:round;stroke-linejoin:round;stroke-miterlimit:4;stroke-dasharray:none;stroke-opacity:1;visibility:visible"/><path d="m230.23 443.25-1.305-17.926" style="fill:none;stroke:#00ff4a;stroke-width:.799998;stroke-linecap:round;stroke-linejoin:round;stroke-miterlimit:2;stroke-dasharray:none;stroke-opacity:1;visibility:visible"/><path d="m77.737 479.8 114.793-80.816 33.916 7.902 2.917.784 2.654.511 56.829 13.236-112.481 85.761L77.737 479.8" style="fill:none;fill-opacity:1;fill-rule:nonzero;stroke:#9500ff;stroke-width:1.33333;visibility:visible"/><path d="M234.505 408.734 120.833 492.86M131.354 494.964l45.087 12.112" style="fill:none;stroke:#9500ff;stroke-width:.999997;stroke-linecap:round;stroke-linejoin:round;stroke-miterlimit:500;stroke-dasharray:none;stroke-opacity:1;visibility:visible"/><path d="m288.317 421.171-43.291-10.333" style="fill:none;stroke:#9500ff;stroke-width:1.73466;stroke-linecap:round;stroke-linejoin:round;stroke-miterlimit:500;stroke-dasharray:none;stroke-opacity:1;visibility:visible"/><path d="m176.52 507.986 111.85-85.952M77.31 480.449l54.045 14.517" style="fill:none;stroke:#9500ff;stroke-width:.999997;stroke-linecap:round;stroke-linejoin:round;stroke-miterlimit:500;stroke-dasharray:none;stroke-opacity:1;visibility:visible"/><path d="m191.949 399.046-113.85 80.486M245.026 410.838l-11.899-2.804" style="fill:none;stroke:#9500ff;stroke-width:1.73466;stroke-linecap:round;stroke-linejoin:round;stroke-miterlimit:500;stroke-dasharray:none;stroke-opacity:1;visibility:visible"/><path d="m180.544 560.37.189 13.985M600.597 495.695l-1.499 2.435M502.26 615.593l5.019 1.374M387.951 584.3l4.744 1.297" style="fill:none;stroke:#00ff4a;stroke-width:.999997;stroke-linecap:round;stroke-linejoin:round;stroke-miterlimit:500;stroke-dasharray:none;stroke-opacity:1;visibility:visible"/><path d="m190.027 400.231 1.922-1.185" style="fill:none;stroke:#9500ff;stroke-width:1.73466;stroke-linecap:round;stroke-linejoin:round;stroke-miterlimit:500;stroke-dasharray:none;stroke-opacity:1;visibility:visible"/></svg>