<svg xmlns="http://www.w3.org/2000/svg" baseProfile="full" height="1122.52" preserveAspectRatio="xMinYMin meet" style="width:1370px;height:1303px" width="793.701" xml:space="preserve"><path d="m546.532 778.278-322.62-89.93M546.912 831.223l-.636-.185M228.578 738.417l-101.136-29.485M223.913 688.348 92.78 651.795M546.28 831.322l-.252-34.937M127.466 709.138l-3.641-30.488M546.632 778.53l-.001-.082-.018-.066-.02-.054-.032-.036-.038-.015-.039.001-.047.023-.047.039M544.453 780.352a1.09 1.09 0 0 0-.238.692M221.533 690.13a.783.783 0 0 0-.24.634M544.215 781.042l-322.922-90.28" style="fill:none;stroke:red;stroke-width:.999997;stroke-linecap:round;stroke-linejoin:round;stroke-miterlimit:500;stroke-dasharray:none;stroke-opacity:1;visibility:visible"/><path d="m546.75 795.183-.119-16.653" style="fill:none;stroke:red;stroke-width:1.73466;stroke-linecap:round;stroke-linejoin:round;stroke-miterlimit:500;stroke-dasharray:none;stroke-opacity:1;visibility:visible"/><path d="m526.145 792.305 18.05 5.118M546.39 778.34l-1.938 2.012M544.215 781.042l.125 16.67M544.341 797.713l.006.081.018.067.018.052.034.034.034.015.045-.001.043-.024.048-.039M544.587 797.898l1.926-2.025M546.513 795.874a1.113 1.113 0 0 0 .237-.69" style="fill:none;stroke:red;stroke-width:.999997;stroke-linecap:round;stroke-linejoin:round;stroke-miterlimit:500;stroke-dasharray:none;stroke-opacity:1;visibility:visible"/><path d="m222.775 706.517 66.096 18.745M296.271 727.36l92.999 26.374M396.146 755.685l98.05 27.81M501.065 785.44l25.226 7.155" style="fill:none;stroke:red;stroke-width:1.73466;stroke-linecap:round;stroke-linejoin:round;stroke-miterlimit:500;stroke-dasharray:none;stroke-opacity:1;visibility:visible"/><path d="m221.293 690.764 1.48 15.753" style="fill:none;stroke:red;stroke-width:.999997;stroke-linecap:round;stroke-linejoin:round;stroke-miterlimit:500;stroke-dasharray:none;stroke-opacity:1;visibility:visible"/><path d="m546.39 778.34-322.648-89.946" style="fill:none;stroke:red;stroke-width:1.73466;stroke-linecap:round;stroke-linejoin:round;stroke-miterlimit:500;stroke-dasharray:none;stroke-opacity:1;visibility:visible"/><path d="M222.775 706.517a.256.256 0 0 0 .14.241M223.745 688.394l-2.21 1.736M547.007 831.462l-.007-.08-.015-.064-.022-.05-.028-.035-.038-.012-.041.004-.044.025-.045.041M546.767 831.291l-1.911 2.055M544.857 833.346a1.123 1.123 0 0 0-.234.687" style="fill:none;stroke:red;stroke-width:.999997;stroke-linecap:round;stroke-linejoin:round;stroke-miterlimit:500;stroke-dasharray:none;stroke-opacity:1;visibility:visible"/><path d="m547.12 847.635-.113-16.174" style="fill:none;stroke:red;stroke-width:1.73466;stroke-linecap:round;stroke-linejoin:round;stroke-miterlimit:500;stroke-dasharray:none;stroke-opacity:1;visibility:visible"/><path d="M546.884 848.318a1.11 1.11 0 0 0 .236-.683" style="fill:none;stroke:red;stroke-width:.999997;stroke-linecap:round;stroke-linejoin:round;stroke-miterlimit:500;stroke-dasharray:none;stroke-opacity:1;visibility:visible"/><path d="m544.748 850.222.004.079.015.064.022.05.032.035.034.009.041-.004.047-.025.046-.041M544.99 850.387l1.894-2.07" style="fill:none;stroke:red;stroke-width:1.73466;stroke-linecap:round;stroke-linejoin:round;stroke-miterlimit:500;stroke-dasharray:none;stroke-opacity:1;visibility:visible"/><path d="M226.23 740.244a.79.79 0 0 0-.235.628M544.623 834.032l-318.628-93.161M544.623 834.031l.125 16.191" style="fill:none;stroke:red;stroke-width:.999997;stroke-linecap:round;stroke-linejoin:round;stroke-miterlimit:500;stroke-dasharray:none;stroke-opacity:1;visibility:visible"/><path d="m227.434 756.205 69.504 20.593M302.146 778.34l92.468 27.398M400.778 807.566l96.949 28.724M503.192 837.91l41.555 12.31" style="fill:none;stroke:red;stroke-width:1.73466;stroke-linecap:round;stroke-linejoin:round;stroke-miterlimit:500;stroke-dasharray:none;stroke-opacity:1;visibility:visible"/><path d="M227.434 756.205a.245.245 0 0 0 .136.23M228.405 738.468l-2.175 1.777M225.995 740.872l1.44 15.332M221.293 690.764 90.06 654.074M223.745 688.394l-2.21 1.736M221.533 690.13a.783.783 0 0 0-.24.634M221.293 690.764l1.48 15.753M222.775 706.517a.24.24 0 0 0 .14.241" style="fill:none;stroke:red;stroke-width:.999997;stroke-linecap:round;stroke-linejoin:round;stroke-miterlimit:500;stroke-dasharray:none;stroke-opacity:1;visibility:visible"/><path d="m121.348 677.752 72.72 20.624M202.295 700.708l20.48 5.808M90.3 653.465a.696.696 0 0 0-.24.61" style="fill:none;stroke:red;stroke-width:1.73466;stroke-linecap:round;stroke-linejoin:round;stroke-miterlimit:500;stroke-dasharray:none;stroke-opacity:1;visibility:visible"/><path d="m106.736 673.404 14.613 4.144" style="fill:none;stroke:red;stroke-width:.999997;stroke-linecap:round;stroke-linejoin:round;stroke-miterlimit:500;stroke-dasharray:none;stroke-opacity:1;visibility:visible"/><path d="m90.061 654.074 1.964 15.362M92.025 669.436l14.71 4.17" style="fill:none;stroke:red;stroke-width:1.73466;stroke-linecap:round;stroke-linejoin:round;stroke-miterlimit:500;stroke-dasharray:none;stroke-opacity:1;visibility:visible"/><path d="m118.029 666.932.357.158.344.258.291.337.221.385.123.404.02.378-.088.325-.185.24-.268.136-.324.019-.355-.1-.357-.21-.32-.302-.258-.368-.173-.395-.073-.395.033-.357.137-.285.231-.192.3-.078.344.042" style="fill:none;stroke:red;stroke-width:.999997;stroke-linecap:round;stroke-linejoin:round;stroke-miterlimit:500;stroke-dasharray:none;stroke-opacity:1;visibility:visible"/><path d="M223.745 688.394 92.6 651.84M92.6 651.839l-2.302 1.626" style="fill:none;stroke:red;stroke-width:1.73466;stroke-linecap:round;stroke-linejoin:round;stroke-miterlimit:500;stroke-dasharray:none;stroke-opacity:1;visibility:visible"/><path d="m225.995 740.872 1.44 15.332M227.434 756.205a.237.237 0 0 0 .136.23M228.405 738.468l-2.175 1.777M226.23 740.244a.79.79 0 0 0-.235.628M96.533 702.344a.693.693 0 0 0-.233.605M225.995 740.872 96.301 702.949M92.025 669.436a.267.267 0 0 0 .156.24" style="fill:none;stroke:red;stroke-width:.999997;stroke-linecap:round;stroke-linejoin:round;stroke-miterlimit:500;stroke-dasharray:none;stroke-opacity:1;visibility:visible"/><path d="m96.301 702.95 1.912 14.967M98.213 717.916l105.178 31.164M209.305 750.833l18.13 5.372" style="fill:none;stroke:red;stroke-width:1.73466;stroke-linecap:round;stroke-linejoin:round;stroke-miterlimit:500;stroke-dasharray:none;stroke-opacity:1;visibility:visible"/><path d="m124.532 720.84.338.048.3-.07.227-.181.135-.276.034-.344-.07-.385-.17-.387-.258-.363-.316-.296-.348-.212-.351-.104-.321.015-.266.127-.185.228-.085.316.016.366.125.392.216.379.29.332.333.259.356.156" style="fill:none;stroke:red;stroke-width:.999997;stroke-linecap:round;stroke-linejoin:round;stroke-miterlimit:500;stroke-dasharray:none;stroke-opacity:1;visibility:visible"/><path d="m98.798 700.678-2.264 1.666" style="fill:none;stroke:red;stroke-width:1.73466;stroke-linecap:round;stroke-linejoin:round;stroke-miterlimit:500;stroke-dasharray:none;stroke-opacity:1;visibility:visible"/><path d="M98.213 717.916a.253.253 0 0 0 .148.229M546.223 831.458l-1.431 1.54M544.096 833.123a.737.737 0 0 0 .696-.125M127.373 709.302l-1.683 1.268M125.038 710.674a.807.807 0 0 0 .652-.104M546.767 831.291l-.487-.141" style="fill:none;stroke:red;stroke-width:.999997;stroke-linecap:round;stroke-linejoin:round;stroke-miterlimit:500;stroke-dasharray:none;stroke-opacity:1;visibility:visible"/><path d="m526.452 825.369-298.049-86.901M110.568 704.11l-11.77-3.43M228.405 738.468l-100.95-29.435" style="fill:none;stroke:red;stroke-width:1.73466;stroke-linecap:round;stroke-linejoin:round;stroke-miterlimit:500;stroke-dasharray:none;stroke-opacity:1;visibility:visible"/><path d="m125.038 710.674-3.94-32.797" style="fill:none;stroke:red;stroke-width:.999997;stroke-linecap:round;stroke-linejoin:round;stroke-miterlimit:500;stroke-dasharray:none;stroke-opacity:1;visibility:visible"/><path d="m106.986 673.873 4.051 32.71" style="fill:none;stroke:red;stroke-width:1.73466;stroke-linecap:round;stroke-linejoin:round;stroke-miterlimit:500;stroke-dasharray:none;stroke-opacity:1;visibility:visible"/><path d="m544.096 833.123-.277-35.338M127.373 709.302l-3.665-30.686" style="fill:none;stroke:red;stroke-width:.999997;stroke-linecap:round;stroke-linejoin:round;stroke-miterlimit:500;stroke-dasharray:none;stroke-opacity:1;visibility:visible"/><path d="m546.223 831.458-.203-34.576M526.312 792.82l.443 35.237M296.271 727.36l-7.4-2.098M288.871 725.262l7.4 2.098M396.146 755.685l-6.876-1.951M389.27 753.734l6.876 1.951M501.065 785.44l-6.869-1.945M494.196 783.495l6.869 1.945M302.146 778.34l-5.208-1.542M296.938 776.798l5.208 1.542M400.778 807.566l-6.164-1.828M394.614 805.738l6.164 1.828M503.192 837.91l-5.465-1.62M497.727 836.29l5.465 1.62M202.295 700.708l-8.227-2.332M194.068 698.376l8.227 2.332M209.305 750.833l-5.914-1.753M203.391 749.08l5.914 1.753M544.096 833.123l-17.644-7.754M96.301 702.949l14.267 1.161M96.301 702.95l14.736 3.633M544.623 834.031l-17.868-5.974" style="fill:none;stroke:red;stroke-width:1.73466;stroke-linecap:round;stroke-linejoin:round;stroke-miterlimit:500;stroke-dasharray:none;stroke-opacity:1;visibility:visible"/><path d="m142.472 713.313 28.08-21.407M227.111 583.788l-105.038 75.98" style="fill:none;stroke:#00ff4a;stroke-width:.999997;stroke-linecap:round;stroke-linejoin:round;stroke-miterlimit:500;stroke-dasharray:none;stroke-opacity:1;visibility:visible" visibility="hidden"/><path d="m232.549 644.41-5.439-60.624" style="fill:none;stroke:#00ff4a;stroke-width:1.73466;stroke-linecap:round;stroke-linejoin:round;stroke-miterlimit:500;stroke-dasharray:none;stroke-opacity:1;visibility:visible" visibility="hidden"/><path d="m124.344 678.797 3.612 30.284" style="fill:none;stroke:#00ff4a;stroke-width:.999997;stroke-linecap:round;stroke-linejoin:round;stroke-miterlimit:500;stroke-dasharray:none;stroke-opacity:1;visibility:visible" visibility="hidden"/><path d="m227.111 583.788-3.613-.907" style="fill:none;stroke:#00ff4a;stroke-width:1.73466;stroke-linecap:round;stroke-linejoin:round;stroke-miterlimit:500;stroke-dasharray:none;stroke-opacity:1;visibility:visible" visibility="hidden"/><path d="m122.073 659.766-3.736-1.04" style="fill:none;stroke:#00ff4a;stroke-width:.999997;stroke-linecap:round;stroke-linejoin:round;stroke-miterlimit:500;stroke-dasharray:none;stroke-opacity:1;visibility:visible" visibility="hidden"/><path d="m223.498 582.881-105.161 75.845M188.02 678.346l44.53-33.935M142.23 713.241l28.086-21.404" style="fill:none;stroke:#00ff4a;stroke-width:1.73466;stroke-linecap:round;stroke-linejoin:round;stroke-miterlimit:500;stroke-dasharray:none;stroke-opacity:1;visibility:visible" visibility="hidden"/><path d="m313.946 605.588-101.996 79.23" style="fill:none;stroke:#9500ff;stroke-width:.999997;stroke-linecap:round;stroke-linejoin:round;stroke-miterlimit:500;stroke-dasharray:none;stroke-opacity:1;visibility:visible" visibility="hidden"/><path d="m318.107 667.221-4.16-61.631" style="fill:none;stroke:#9500ff;stroke-width:1.73466;stroke-linecap:round;stroke-linejoin:round;stroke-miterlimit:500;stroke-dasharray:none;stroke-opacity:1;visibility:visible" visibility="hidden"/><path d="m213.813 704.174 2.96 30.798" style="fill:none;stroke:#9500ff;stroke-width:.999997;stroke-linecap:round;stroke-linejoin:round;stroke-miterlimit:500;stroke-dasharray:none;stroke-opacity:1;visibility:visible" visibility="hidden"/><path d="m313.946 605.588-3.779-.948" style="fill:none;stroke:#9500ff;stroke-width:1.73466;stroke-linecap:round;stroke-linejoin:round;stroke-miterlimit:500;stroke-dasharray:none;stroke-opacity:1;visibility:visible" visibility="hidden"/><path d="m211.951 684.817-3.92-1.093" style="fill:none;stroke:#9500ff;stroke-width:.999997;stroke-linecap:round;stroke-linejoin:round;stroke-miterlimit:500;stroke-dasharray:none;stroke-opacity:1;visibility:visible" visibility="hidden"/><path d="m209.914 703.07 2.988 30.775M310.169 604.641 208.03 683.724M274.895 702.561l43.215-35.339M230.402 738.948l27.295-22.32" style="fill:none;stroke:#9500ff;stroke-width:1.73466;stroke-linecap:round;stroke-linejoin:round;stroke-miterlimit:500;stroke-dasharray:none;stroke-opacity:1;visibility:visible" visibility="hidden"/><path d="m302.475 721.121.285-.064.223-.159.143-.245.05-.304-.05-.341-.143-.344-.222-.322-.283-.262-.32-.188-.328-.092-.307.011-.252.114M404.835 628.41l-98.538 82.7" style="fill:none;stroke:#ffdf00;stroke-width:.999997;stroke-linecap:round;stroke-linejoin:round;stroke-miterlimit:500;stroke-dasharray:none;stroke-opacity:1;visibility:visible" visibility="hidden"/><path d="m407.594 691.077-2.759-62.667" style="fill:none;stroke:#ffdf00;stroke-width:1.73466;stroke-linecap:round;stroke-linejoin:round;stroke-miterlimit:500;stroke-dasharray:none;stroke-opacity:1;visibility:visible" visibility="hidden"/><path d="m307.706 730.81 2.237 31.327" style="fill:none;stroke:#ffdf00;stroke-width:.999997;stroke-linecap:round;stroke-linejoin:round;stroke-miterlimit:500;stroke-dasharray:none;stroke-opacity:1;visibility:visible" visibility="hidden"/><path d="m404.835 628.41-3.959-.993" style="fill:none;stroke:#ffdf00;stroke-width:1.73466;stroke-linecap:round;stroke-linejoin:round;stroke-miterlimit:500;stroke-dasharray:none;stroke-opacity:1;visibility:visible" visibility="hidden"/><path d="m306.297 711.11-4.114-1.145" style="fill:none;stroke:#ffdf00;stroke-width:.999997;stroke-linecap:round;stroke-linejoin:round;stroke-miterlimit:500;stroke-dasharray:none;stroke-opacity:1;visibility:visible" visibility="hidden"/><path d="m303.61 729.649 2.272 31.304M400.876 627.415l-98.693 82.549M365.866 727.918l41.728-36.84M322.849 765.898l26.397-23.304" style="fill:none;stroke:#ffdf00;stroke-width:1.73466;stroke-linecap:round;stroke-linejoin:round;stroke-miterlimit:500;stroke-dasharray:none;stroke-opacity:1;visibility:visible" visibility="hidden"/><path d="m500.06 652.319-94.605 86.426" style="fill:none;stroke:#00d4ff;stroke-width:.999997;stroke-linecap:round;stroke-linejoin:round;stroke-miterlimit:500;stroke-dasharray:none;stroke-opacity:1;visibility:visible" visibility="hidden"/><path d="m501.281 716.054-1.22-63.734" style="fill:none;stroke:#00d4ff;stroke-width:1.73466;stroke-linecap:round;stroke-linejoin:round;stroke-miterlimit:500;stroke-dasharray:none;stroke-opacity:1;visibility:visible" visibility="hidden"/><path d="m406.36 758.794 1.44 31.872" style="fill:none;stroke:#00d4ff;stroke-width:.999997;stroke-linecap:round;stroke-linejoin:round;stroke-miterlimit:500;stroke-dasharray:none;stroke-opacity:1;visibility:visible" visibility="hidden"/><path d="m500.06 652.319-4.15-1.044" style="fill:none;stroke:#00d4ff;stroke-width:1.73466;stroke-linecap:round;stroke-linejoin:round;stroke-miterlimit:500;stroke-dasharray:none;stroke-opacity:1;visibility:visible" visibility="hidden"/><path d="m405.455 738.745-4.328-1.205" style="fill:none;stroke:#00d4ff;stroke-width:.999997;stroke-linecap:round;stroke-linejoin:round;stroke-miterlimit:500;stroke-dasharray:none;stroke-opacity:1;visibility:visible" visibility="hidden"/><path d="m402.052 757.572 1.479 31.848M495.91 651.273l-94.784 86.265M461.23 754.5l40.05-38.446M419.886 794.187l25.374-24.357" style="fill:none;stroke:#00d4ff;stroke-width:1.73466;stroke-linecap:round;stroke-linejoin:round;stroke-miterlimit:500;stroke-dasharray:none;stroke-opacity:1;visibility:visible" visibility="hidden"/><path d="m599.945 677.393-90.148 90.433" style="fill:none;stroke:#ff008a;stroke-width:.999997;stroke-linecap:round;stroke-linejoin:round;stroke-miterlimit:500;stroke-dasharray:none;stroke-opacity:1;visibility:visible" visibility="hidden"/><path d="m599.47 742.229.474-64.835" style="fill:none;stroke:#ff008a;stroke-width:1.73466;stroke-linecap:round;stroke-linejoin:round;stroke-miterlimit:500;stroke-dasharray:none;stroke-opacity:1;visibility:visible" visibility="hidden"/><path d="m510.145 788.236.558 32.429" style="fill:none;stroke:#ff008a;stroke-width:.999997;stroke-linecap:round;stroke-linejoin:round;stroke-miterlimit:500;stroke-dasharray:none;stroke-opacity:1;visibility:visible" visibility="hidden"/><path d="m599.945 677.393-4.358-1.092" style="fill:none;stroke:#ff008a;stroke-width:1.73466;stroke-linecap:round;stroke-linejoin:round;stroke-miterlimit:500;stroke-dasharray:none;stroke-opacity:1;visibility:visible" visibility="hidden"/><path d="m509.797 767.828-4.556-1.271" style="fill:none;stroke:#ff008a;stroke-width:.999997;stroke-linecap:round;stroke-linejoin:round;stroke-miterlimit:500;stroke-dasharray:none;stroke-opacity:1;visibility:visible" visibility="hidden"/><path d="m505.616 786.95.59 32.405M595.588 676.301l-90.348 90.255M546.041 798.474l53.427-56.244M521.865 823.92l4.507-4.742" style="fill:none;stroke:#ff008a;stroke-width:1.73466;stroke-linecap:round;stroke-linejoin:round;stroke-miterlimit:500;stroke-dasharray:none;stroke-opacity:1;visibility:visible" visibility="hidden"/><path d="m222.773 706.517-8.96-2.343M225.995 740.872l-9.222-5.9" style="fill:none;stroke:#9500ff;stroke-width:.999997;stroke-linecap:round;stroke-linejoin:round;stroke-miterlimit:500;stroke-dasharray:none;stroke-opacity:1;visibility:visible" visibility="hidden"/><path d="m222.773 706.517-12.859-3.447M225.995 740.872l-13.093-7.027M228.405 738.468l1.997.48" style="fill:none;stroke:#9500ff;stroke-width:1.73466;stroke-linecap:round;stroke-linejoin:round;stroke-miterlimit:500;stroke-dasharray:none;stroke-opacity:1;visibility:visible" visibility="hidden"/><path d="m546.513 795.873-.472 2.601" style="fill:none;stroke:#ff008a;stroke-width:1.73466;stroke-linecap:round;stroke-linejoin:round;stroke-miterlimit:500;stroke-dasharray:none;stroke-opacity:1;visibility:visible" visibility="hidden"/></svg>