<svg xmlns="http://www.w3.org/2000/svg" baseProfile="full" height="1122.52" preserveAspectRatio="xMinYMin meet" style="width:1370px;height:1303px" width="793.701" xml:space="preserve"><path d="m189.769 927.168 342.311 98.45M541.91 1010.43l-341.227-96.698M51.127 887.29l138.6 39.864M200.69 913.727l-138.304-39.19" style="fill:none;stroke:red;stroke-width:1.73466;stroke-linecap:round;stroke-linejoin:round;stroke-miterlimit:500;stroke-dasharray:none;stroke-opacity:1;visibility:visible" visibility="hidden"/><path d="M532.196 1020.955a1.196 1.196 0 0 0-.243.735M541.76 1010.5l-9.561 10.456" style="fill:none;stroke:red;stroke-width:.999997;stroke-linecap:round;stroke-linejoin:round;stroke-miterlimit:500;stroke-dasharray:none;stroke-opacity:1;visibility:visible" visibility="hidden"/><path d="m542.023 1014.348-.016-3.665M541.779 1015.074a1.13 1.13 0 0 0 .241-.726M532.237 1025.545l9.543-10.473" style="fill:none;stroke:red;stroke-width:1.73466;stroke-linecap:round;stroke-linejoin:round;stroke-miterlimit:500;stroke-dasharray:none;stroke-opacity:1;visibility:visible" visibility="hidden"/><path d="m531.955 1021.69.027 3.672M189.526 922.774a.864.864 0 0 0-.248.678M189.526 922.773l342.671 98.182M189.28 923.452l.344 3.473M200.503 913.79l-10.977 8.983M495.373 1003.96l.35.141.254.192.144.227.017.245-.114.23-.232.205-.334.16-.4.103-.428.026-.429-.037-.387-.115-.309-.168-.199-.209-.082-.233.052-.242.169-.224.29-.182.373-.136.418-.064.431.009.416.072M279.826 942.536l.307.13.214.175.102.203-.019.216-.14.215-.25.188-.334.146-.388.094-.413.025-.399-.036-.345-.099-.266-.154-.158-.194-.046-.212.084-.22.198-.198.294-.174.366-.118.404-.054h.409l.38.067M384.77 972.438l.333.141.235.176.12.22-.003.232-.128.223-.237.196-.336.156-.396.092-.421.028-.412-.043-.366-.101-.286-.153-.183-.204-.057-.228.065-.228.188-.219.29-.17.367-.127.415-.06h.421l.391.069" style="fill:none;stroke:red;stroke-width:.999997;stroke-linecap:round;stroke-linejoin:round;stroke-miterlimit:500;stroke-dasharray:none;stroke-opacity:1;visibility:visible" visibility="hidden"/><path d="m203.077 922.157.484.1.532.041.55-.018.545-.083.51-.141.462-.192.377-.232.287-.263.176-.283.062-.285-.057-.279-.172-.258-.281-.227-.378-.179-.453-.13-.507-.07-.542-.014-.551.054-.528.118-.49.157-.42.221-.333.244-.237.279-.119.281-.005.284.115.276.228.242.329.208.416.149" style="fill:none;stroke:red;stroke-width:.666665;stroke-linecap:round;stroke-linejoin:round;stroke-miterlimit:500;stroke-dasharray:none;stroke-opacity:1;visibility:visible" visibility="hidden"/><path d="m200.513 913.78-10.979 8.99" style="fill:none;stroke:red;stroke-width:.999997;stroke-linecap:round;stroke-linejoin:round;stroke-miterlimit:500;stroke-dasharray:none;stroke-opacity:1;visibility:visible" visibility="hidden"/><path d="M50.755 883.01a.73.73 0 0 0-.246.643" style="fill:none;stroke:red;stroke-width:1.73466;stroke-linecap:round;stroke-linejoin:round;stroke-miterlimit:500;stroke-dasharray:none;stroke-opacity:1;visibility:visible" visibility="hidden"/><path d="m50.754 883.01 138.78 39.761" style="fill:none;stroke:red;stroke-width:.999997;stroke-linecap:round;stroke-linejoin:round;stroke-miterlimit:500;stroke-dasharray:none;stroke-opacity:1;visibility:visible" visibility="hidden"/><path d="m50.51 883.653.45 3.385M62.197 874.583l-11.443 8.427" style="fill:none;stroke:red;stroke-width:1.73466;stroke-linecap:round;stroke-linejoin:round;stroke-miterlimit:500;stroke-dasharray:none;stroke-opacity:1;visibility:visible" visibility="hidden"/><path d="m83.636 888.275.347.065h.385l.393-.056.363-.108.3-.152.213-.186.11-.202-.011-.192-.127-.182-.229-.134-.315-.089-.369-.032-.393.028-.383.084-.336.13-.257.174-.163.192-.05.196.069.195.18.156.273.113M178.558 915.366l.36.067.397.006.399-.064.367-.112.298-.16.207-.197.09-.21-.023-.2-.143-.186-.245-.139-.332-.1-.383-.034-.401.032-.383.082-.336.14-.255.182-.156.202-.032.214.084.194.198.164.289.119" style="fill:none;stroke:red;stroke-width:.999997;stroke-linecap:round;stroke-linejoin:round;stroke-miterlimit:500;stroke-dasharray:none;stroke-opacity:1;visibility:visible" visibility="hidden"/><path d="m203.487 920.96 2.036.321M205.523 921.281l-2.446.876M200.683 913.732l2.394 8.425M203.077 922.157l2.446-.876" style="fill:none;stroke:red;stroke-width:.666665;stroke-linecap:round;stroke-linejoin:round;stroke-miterlimit:500;stroke-dasharray:none;stroke-opacity:1;visibility:visible" visibility="hidden"/><path d="m117.283 863.947 23.65-17.879M125.308 838.747l-23.784 17.723" style="fill:none;stroke:#00ff4a;stroke-width:1.73466;stroke-linecap:round;stroke-linejoin:round;stroke-miterlimit:500;stroke-dasharray:none;stroke-opacity:1;visibility:visible"/><path d="m116.632 860.605 23.677-17.853M101.766 856.441l14.867 4.163M117.075 861.139l.3 2.533" style="fill:none;stroke:#00ff4a;stroke-width:.999997;stroke-linecap:round;stroke-linejoin:round;stroke-miterlimit:500;stroke-dasharray:none;stroke-opacity:1;visibility:visible"/><path d="m113.515 862.994 3.519.99M105.37 860.704l4.732 1.33M102.185 859.807l.255.073M101.43 856.755l.312 2.528" style="fill:none;stroke:#00ff4a;stroke-width:1.73466;stroke-linecap:round;stroke-linejoin:round;stroke-miterlimit:500;stroke-dasharray:none;stroke-opacity:1;visibility:visible"/><path d="m105.327 859.88.263.023.213-.079.147-.177.057-.247-.032-.292-.127-.3-.204-.277-.252-.208-.27-.127-.267-.027-.213.082-.123.149M113.667 862.22l.263.025.216-.081.146-.175.063-.249-.037-.295-.124-.297-.204-.27-.252-.22-.274-.126-.261-.02-.221.079" style="fill:none;stroke:#00ff4a;stroke-width:.666665;stroke-linecap:round;stroke-linejoin:round;stroke-miterlimit:500;stroke-dasharray:none;stroke-opacity:1;visibility:visible"/><path d="m140.31 842.751-14.761-4.039M140.747 843.284l.287 2.507M113.515 862.994l-3.413-.96" style="fill:none;stroke:#00ff4a;stroke-width:1.73466;stroke-linecap:round;stroke-linejoin:round;stroke-miterlimit:500;stroke-dasharray:none;stroke-opacity:1;visibility:visible"/><path d="m271.877 854.602 334.536 90.736M615.575 931.023l-333.482-89.15M135.811 817.69l136.026 36.899M282.098 841.863 146.372 805.58" style="fill:none;stroke:#9500ff;stroke-width:1.73466;stroke-linecap:round;stroke-linejoin:round;stroke-miterlimit:500;stroke-dasharray:none;stroke-opacity:1;visibility:visible" visibility="hidden"/><path d="m606.344 941.487-.019 3.599M606.58 940.783a1.193 1.193 0 0 0-.238.704M615.447 931.092l-8.865 9.69" style="fill:none;stroke:#9500ff;stroke-width:.999997;stroke-linecap:round;stroke-linejoin:round;stroke-miterlimit:500;stroke-dasharray:none;stroke-opacity:1;visibility:visible" visibility="hidden"/><path d="m615.64 934.858.028-3.572M615.401 935.563c.15-.2.237-.45.237-.703M606.552 945.274l8.85-9.71" style="fill:none;stroke:#9500ff;stroke-width:1.73466;stroke-linecap:round;stroke-linejoin:round;stroke-miterlimit:500;stroke-dasharray:none;stroke-opacity:1;visibility:visible" visibility="hidden"/><path d="M271.691 850.311a.83.83 0 0 0-.234.644M271.692 850.31l334.889 90.47M271.457 850.956l.279 3.4" style="fill:none;stroke:#9500ff;stroke-width:.999997;stroke-linecap:round;stroke-linejoin:round;stroke-miterlimit:500;stroke-dasharray:none;stroke-opacity:1;visibility:visible" visibility="hidden"/><path d="m591.29 940.109.323.032.292-.076.216-.179.114-.261.003-.31-.117-.329-.214-.292-.292-.234-.322-.143-.328-.037-.29.081-.21.179-.112.264-.003.31.112.328.208.294.292.234.328.139M601.519 942.877l.323.04.292-.076.216-.187.114-.256.006-.318-.11-.322-.218-.292-.287-.241-.33-.136-.326-.04-.295.081-.208.182-.125.26v.316l.115.318.213.296.292.24.328.135" style="fill:none;stroke:#9500ff;stroke-width:.666665;stroke-linecap:round;stroke-linejoin:round;stroke-miterlimit:500;stroke-dasharray:none;stroke-opacity:1;visibility:visible" visibility="hidden"/><path d="m281.934 841.922-10.243 8.39M570.62 924.952l.393.07.419.005.404-.06.353-.124.274-.171.158-.203.039-.222-.09-.223-.2-.193-.309-.158-.37-.1-.418-.032-.413.031-.383.085-.316.156-.216.184-.096.216.019.226.145.206.263.18.344.127M360.056 868.373l.367.067h.398l.388-.055.354-.113.276-.159.18-.192.072-.197-.052-.204-.162-.175-.262-.141-.34-.088-.388-.035-.396.028-.372.087-.318.133-.232.173-.128.199-.008.204.11.192.21.156.303.12M462.673 895.952l.39.063.402.001.401-.052.347-.121.276-.164.17-.194.054-.214-.067-.212-.18-.183-.284-.15-.356-.097-.404-.03-.4.022-.382.099-.316.135-.222.181-.117.205.01.212.123.207.235.16.32.132" style="fill:none;stroke:#9500ff;stroke-width:.999997;stroke-linecap:round;stroke-linejoin:round;stroke-miterlimit:500;stroke-dasharray:none;stroke-opacity:1;visibility:visible" visibility="hidden"/><path d="m284.784 849.71.473.093.514.038.53-.023.523-.077.492-.135.433-.175.359-.21.265-.25.163-.265.047-.264-.068-.265-.18-.238-.282-.212-.369-.166-.448-.119-.492-.068-.528-.008-.528.055-.51.102-.462.158-.399.198-.314.234-.216.257-.104.26.01.265.122.252.229.23.33.19.41.143" style="fill:none;stroke:#9500ff;stroke-width:.666665;stroke-linecap:round;stroke-linejoin:round;stroke-miterlimit:500;stroke-dasharray:none;stroke-opacity:1;visibility:visible" visibility="hidden"/><path d="m135.501 813.507 136.201 36.799" style="fill:none;stroke:#9500ff;stroke-width:.999997;stroke-linecap:round;stroke-linejoin:round;stroke-miterlimit:500;stroke-dasharray:none;stroke-opacity:1;visibility:visible" visibility="hidden"/><path d="m135.264 814.131.385 3.312" style="fill:none;stroke:#9500ff;stroke-width:1.73466;stroke-linecap:round;stroke-linejoin:round;stroke-miterlimit:500;stroke-dasharray:none;stroke-opacity:1;visibility:visible" visibility="hidden"/><path d="m162.235 823.84.26.023.216-.082.147-.166.062-.248-.032-.288-.12-.302-.2-.265-.248-.205-.268-.131-.262-.02-.216.083-.148.18-.06.245.033.288.117.299.198.265.253.208.268.116M153.987 821.611l.255.019.218-.079.147-.18.06-.244-.032-.284-.121-.3-.194-.27-.25-.2-.271-.125-.257-.022-.216.08-.146.181-.062.245.033.288.12.294.197.266.251.206.268.125" style="fill:none;stroke:#9500ff;stroke-width:.999997;stroke-linecap:round;stroke-linejoin:round;stroke-miterlimit:500;stroke-dasharray:none;stroke-opacity:1;visibility:visible" visibility="hidden"/><path d="m146.197 805.625-10.696 7.883" style="fill:none;stroke:#9500ff;stroke-width:1.73466;stroke-linecap:round;stroke-linejoin:round;stroke-miterlimit:500;stroke-dasharray:none;stroke-opacity:1;visibility:visible" visibility="hidden"/><path d="m170.778 815.979.268.11.183.145.073.17-.037.19-.148.182-.243.156-.32.127-.364.084-.381.019-.359-.026-.31-.085-.227-.133-.128-.155-.022-.185.098-.183.197-.175.281-.141.348-.105.378-.052.372.002.341.055M263.826 840.947l.287.11.197.157.09.18-.025.194-.137.191-.237.167-.318.128-.373.088-.385.025-.372-.037-.327-.083-.243-.14-.145-.165-.035-.191.084-.193.19-.18.284-.148.345-.11.385-.052h.38l.355.059" style="fill:none;stroke:#9500ff;stroke-width:.999997;stroke-linecap:round;stroke-linejoin:round;stroke-miterlimit:500;stroke-dasharray:none;stroke-opacity:1;visibility:visible" visibility="hidden"/><path d="m285.08 848.483 2.036.321M287.116 848.804l-2.332.906M282.093 841.874l2.691 7.836" style="fill:none;stroke:#9500ff;stroke-width:.666665;stroke-linecap:round;stroke-linejoin:round;stroke-miterlimit:500;stroke-dasharray:none;stroke-opacity:1;visibility:visible" visibility="hidden"/><path d="m170.778 815.979-8.543 7.861M170.778 815.979l-8.543 7.861M170.778 815.979l-16.791 5.632M170.778 815.979l-16.791 5.632M162.235 823.84l8.543-7.861M162.235 823.84l8.543-7.861" style="fill:none;stroke:#9500ff;stroke-width:.999997;stroke-linecap:round;stroke-linejoin:round;stroke-miterlimit:500;stroke-dasharray:none;stroke-opacity:1;visibility:visible" visibility="hidden"/><path d="m284.784 849.71 2.332-.906" style="fill:none;stroke:#9500ff;stroke-width:.666665;stroke-linecap:round;stroke-linejoin:round;stroke-miterlimit:500;stroke-dasharray:none;stroke-opacity:1;visibility:visible" visibility="hidden"/><path d="m565.379 989.67 19.859-21.765M566.113 959.449l-20.064 21.553" style="fill:none;stroke:#ffdf00;stroke-width:1.73466;stroke-linecap:round;stroke-linejoin:round;stroke-miterlimit:500;stroke-dasharray:none;stroke-opacity:1;visibility:visible" visibility="hidden"/><path d="m564.967 986.115 19.879-21.73" style="fill:none;stroke:#ffdf00;stroke-width:.999997;stroke-linecap:round;stroke-linejoin:round;stroke-miterlimit:500;stroke-dasharray:none;stroke-opacity:1;visibility:visible" visibility="hidden"/><path d="M585.321 964.968a.65.65 0 0 0-.476-.582" style="fill:none;stroke:#ffdf00;stroke-width:1.73466;stroke-linecap:round;stroke-linejoin:round;stroke-miterlimit:500;stroke-dasharray:none;stroke-opacity:1;visibility:visible" visibility="hidden"/><path d="M565.452 986.707a.667.667 0 0 0-.487-.592M546.443 980.923l18.524 5.192M565.454 986.707l.005 2.73" style="fill:none;stroke:#ffdf00;stroke-width:.999997;stroke-linecap:round;stroke-linejoin:round;stroke-miterlimit:500;stroke-dasharray:none;stroke-opacity:1;visibility:visible" visibility="hidden"/><path d="m561.538 988.794 3.439.967M550.908 985.805l6.401 1.801M546.466 984.555l1.167.328M545.98 983.966a.661.661 0 0 0 .484.589M545.963 981.24l.019 2.725" style="fill:none;stroke:#ffdf00;stroke-width:1.73466;stroke-linecap:round;stroke-linejoin:round;stroke-miterlimit:500;stroke-dasharray:none;stroke-opacity:1;visibility:visible" visibility="hidden"/><path d="M551.46 984.304v-.319l-.12-.325-.219-.304-.289-.237-.336-.152-.333-.039-.287.075-.217.182-.115.266.003.31M550.51 984.786l.328.04.292-.076.219-.176.112-.27M560.902 987.704l.328.036.297-.076.216-.175.115-.27.003-.314-.123-.332-.213-.305-.298-.236-.333-.152-.339-.037-.286.073-.216.184" style="fill:none;stroke:#ffdf00;stroke-width:.999997;stroke-linecap:round;stroke-linejoin:round;stroke-miterlimit:500;stroke-dasharray:none;stroke-opacity:1;visibility:visible" visibility="hidden"/><path d="m584.846 964.384-18.339-5.027M585.323 964.968l-.008 2.71M564.967 986.115l-3.429 2.679M547.633 984.883l3.275.922M561.538 988.794l-4.229-1.188M550.908 985.805l-3.275-.922" style="fill:none;stroke:#ffdf00;stroke-width:1.73466;stroke-linecap:round;stroke-linejoin:round;stroke-miterlimit:500;stroke-dasharray:none;stroke-opacity:1;visibility:visible" visibility="hidden"/><path d="m545.98 983.966 3.567-.205" style="fill:none;stroke:#ffdf00;stroke-width:.999997;stroke-linecap:round;stroke-linejoin:round;stroke-miterlimit:500;stroke-dasharray:none;stroke-opacity:1;visibility:visible" visibility="hidden"/><path d="m686.803 832.399 17.24-18.905M685.904 805.94l-17.432 18.733" style="fill:none;stroke:#00d4ff;stroke-width:1.73466;stroke-linecap:round;stroke-linejoin:round;stroke-miterlimit:500;stroke-dasharray:none;stroke-opacity:1;visibility:visible" visibility="hidden"/><path d="m686.488 829.005 17.26-18.87M668.855 824.58l17.633 4.425M686.941 829.558l-.057 2.619" style="fill:none;stroke:#00d4ff;stroke-width:.999997;stroke-linecap:round;stroke-linejoin:round;stroke-miterlimit:500;stroke-dasharray:none;stroke-opacity:1;visibility:visible" visibility="hidden"/><path d="m683.277 831.71 3.128.788M673.094 829.142l6.159 1.553M668.795 828.058l.468.119M668.378 824.9l-.039 2.605" style="fill:none;stroke:#00d4ff;stroke-width:1.73466;stroke-linecap:round;stroke-linejoin:round;stroke-miterlimit:500;stroke-dasharray:none;stroke-opacity:1;visibility:visible" visibility="hidden"/><path d="m672.656 828.161.317.028.282-.083.208-.18.114-.261.014-.297-.107-.316-.203-.28-.27-.22-.319-.136-.323-.024-.273.082-.21.175-.12.257-.003.307M682.554 830.644l.312.03.281-.085.219-.178.115-.251.01-.303-.104-.312-.205-.289-.279-.22-.313-.135-.32-.026-.281.085-.216.177-.118.254-.005.309" style="fill:none;stroke:#00d4ff;stroke-width:.999997;stroke-linecap:round;stroke-linejoin:round;stroke-miterlimit:500;stroke-dasharray:none;stroke-opacity:1;visibility:visible" visibility="hidden"/><path d="m703.748 810.135-17.459-4.285M704.196 810.678l-.073 2.595M679.253 830.695l4.024 1.015M669.263 828.177l3.831.965M683.277 831.71l-4.024-1.015M668.855 824.58l.408 3.597" style="fill:none;stroke:#00d4ff;stroke-width:1.73466;stroke-linecap:round;stroke-linejoin:round;stroke-miterlimit:500;stroke-dasharray:none;stroke-opacity:1;visibility:visible" visibility="hidden"/><path d="m668.378 824.9 3.385 2.313M686.941 829.558l-5.291.142" style="fill:none;stroke:#00d4ff;stroke-width:.999997;stroke-linecap:round;stroke-linejoin:round;stroke-miterlimit:500;stroke-dasharray:none;stroke-opacity:1;visibility:visible" visibility="hidden"/><path d="m731.967 782.754-.104 3.44M732.18 782.1a1.117 1.117 0 0 0-.215.654M739.9 773.665l-7.72 8.433" style="fill:none;stroke:#ff008a;stroke-width:.999997;stroke-linecap:round;stroke-linejoin:round;stroke-miterlimit:500;stroke-dasharray:none;stroke-opacity:1;visibility:visible" visibility="hidden"/><path d="m739.976 777.298.11-3.432M739.763 777.942a1.135 1.135 0 0 0 .211-.642M732.058 786.397l7.707-8.456" style="fill:none;stroke:#ff008a;stroke-width:1.73466;stroke-linecap:round;stroke-linejoin:round;stroke-miterlimit:500;stroke-dasharray:none;stroke-opacity:1;visibility:visible" visibility="hidden"/><path d="m731.967 782.527-320.546-77.786" style="fill:none;stroke:#ff008a;stroke-width:.999997;stroke-linecap:round;stroke-linejoin:round;stroke-miterlimit:500;stroke-dasharray:none;stroke-opacity:1;visibility:visible" visibility="hidden"/><path d="m411.593 708.218 320.27 77.976" style="fill:none;stroke:#ff008a;stroke-width:1.73466;stroke-linecap:round;stroke-linejoin:round;stroke-miterlimit:500;stroke-dasharray:none;stroke-opacity:1;visibility:visible" visibility="hidden"/><path d="m411.42 704.967.172 3.252" style="fill:none;stroke:#ff008a;stroke-width:.999997;stroke-linecap:round;stroke-linejoin:round;stroke-miterlimit:500;stroke-dasharray:none;stroke-opacity:1;visibility:visible" visibility="hidden"/><path d="m717.565 781.848.312.028.279-.084.209-.176.115-.255.009-.302-.104-.304-.192-.274-.276-.221-.308-.128-.312-.021-.279.08-.208.184-.114.25-.014.299.104.303.196.28.274.209.309.132M727.309 784.222l.31.025.28-.084.215-.178.114-.252.008-.303-.096-.305-.203-.282-.267-.212-.312-.132-.317-.026-.273.085-.214.175-.12.256-.01.304.104.305.196.28.273.21.312.134" style="fill:none;stroke:#ff008a;stroke-width:.666665;stroke-linecap:round;stroke-linejoin:round;stroke-miterlimit:500;stroke-dasharray:none;stroke-opacity:1;visibility:visible" visibility="hidden"/><path d="m739.9 773.665-319.26-76.681" style="fill:none;stroke:#ff008a;stroke-width:1.73466;stroke-linecap:round;stroke-linejoin:round;stroke-miterlimit:500;stroke-dasharray:none;stroke-opacity:1;visibility:visible" visibility="hidden"/><path d="m420.641 696.984-9.01 7.379M697.537 768.483l.377.057h.394l.372-.052.329-.104.236-.154.14-.178.025-.197-.098-.181-.199-.172-.297-.131-.355-.088-.39-.033-.394.026-.345.083-.282.13-.193.17-.083.183.036.192.148.185.254.15.325.114M496.121 719.882l.352.048.375.004.358-.055.322-.09.25-.147.156-.164.055-.176-.061-.17-.167-.158-.265-.123-.318-.073-.362-.033-.38.025-.342.077-.285.122-.207.154-.101.171-.003.176.115.164.216.141.292.107M594.448 743.61l.367.055.381-.002.372-.049.32-.101.244-.147.15-.177.034-.18-.072-.18-.185-.163-.278-.124-.336-.083-.385-.032-.372.024-.35.082-.286.126-.197.156-.098.182.024.184.128.169.23.148.309.112" style="fill:none;stroke:#ff008a;stroke-width:.999997;stroke-linecap:round;stroke-linejoin:round;stroke-miterlimit:500;stroke-dasharray:none;stroke-opacity:1;visibility:visible" visibility="hidden"/><path d="m423.913 703.797.453.084.49.025.494-.018.491-.072.453-.112.394-.162.32-.192.232-.212.13-.234.026-.23-.083-.229-.185-.213-.282-.183-.361-.137-.425-.11-.474-.057-.501-.001-.492.045-.467.092-.429.14-.363.17-.276.205-.184.228-.078.232.032.234.132.224.232.191.322.164.399.128" style="fill:none;stroke:#ff008a;stroke-width:.666665;stroke-linecap:round;stroke-linejoin:round;stroke-miterlimit:500;stroke-dasharray:none;stroke-opacity:1;visibility:visible" visibility="hidden"/><path d="m280.298 672.517 131.333 31.845" style="fill:none;stroke:#ff008a;stroke-width:.999997;stroke-linecap:round;stroke-linejoin:round;stroke-miterlimit:500;stroke-dasharray:none;stroke-opacity:1;visibility:visible" visibility="hidden"/><path d="m280.36 676.273 131.232 31.944M280.087 673.1l.273 3.173" style="fill:none;stroke:#ff008a;stroke-width:1.73466;stroke-linecap:round;stroke-linejoin:round;stroke-miterlimit:500;stroke-dasharray:none;stroke-opacity:1;visibility:visible" visibility="hidden"/><path d="m306.062 681.747.25.013.214-.08.153-.17.066-.238-.022-.281-.109-.284-.183-.248-.236-.19-.261-.115-.255-.019-.21.088-.15.17-.069.24.025.28.107.28.185.251.235.192.26.111M298.095 679.811l.252.01.212-.08.153-.17.066-.237-.024-.282-.11-.28-.185-.253-.233-.192-.262-.11-.246-.014-.216.085-.15.174-.066.234.025.276.11.286.182.246.237.194.255.113" style="fill:none;stroke:#ff008a;stroke-width:.999997;stroke-linecap:round;stroke-linejoin:round;stroke-miterlimit:500;stroke-dasharray:none;stroke-opacity:1;visibility:visible" visibility="hidden"/><path d="m289.753 665.55-9.455 6.967M420.641 696.984l-130.888-31.433" style="fill:none;stroke:#ff008a;stroke-width:1.73466;stroke-linecap:round;stroke-linejoin:round;stroke-miterlimit:500;stroke-dasharray:none;stroke-opacity:1;visibility:visible" visibility="hidden"/><path d="m313.797 674.579.265.09.18.13.086.153-.018.16-.122.162-.219.142-.295.11-.336.066-.356.027-.341-.024-.299-.073-.224-.11-.137-.141-.03-.164.074-.159.175-.152.256-.132.317-.09.352-.044h.352l.32.049M403.5 696.195l.284.095.195.133.1.157-.008.171-.118.168-.21.144-.287.116-.344.076-.364.023-.352-.03-.31-.069-.24-.12-.153-.15-.046-.16.062-.171.167-.159.25-.133.325-.098.356-.044h.362l.331.051" style="fill:none;stroke:#ff008a;stroke-width:.999997;stroke-linecap:round;stroke-linejoin:round;stroke-miterlimit:500;stroke-dasharray:none;stroke-opacity:1;visibility:visible" visibility="hidden"/><path d="m424.035 702.639 2.036.321M426.071 702.96l-2.158.837M420.64 696.984l3.273 6.813" style="fill:none;stroke:#ff008a;stroke-width:.666665;stroke-linecap:round;stroke-linejoin:round;stroke-miterlimit:500;stroke-dasharray:none;stroke-opacity:1;visibility:visible" visibility="hidden"/><path d="m313.797 674.579-7.735 7.168M306.062 681.747l7.735-7.168M411.631 704.362l-8.131-8.167M411.421 704.74l-7.921-8.545" style="fill:none;stroke:#ff008a;stroke-width:.999997;stroke-linecap:round;stroke-linejoin:round;stroke-miterlimit:500;stroke-dasharray:none;stroke-opacity:1;visibility:visible" visibility="hidden"/><path d="m420.641 696.984 3.394 5.655M423.913 703.797l2.158-.837" style="fill:none;stroke:#ff008a;stroke-width:.666665;stroke-linecap:round;stroke-linejoin:round;stroke-miterlimit:500;stroke-dasharray:none;stroke-opacity:1;visibility:visible" visibility="hidden"/><path d="m326.078 784.593 327.535 84.216M662.207 855.24l-326.505-82.77M192.362 750.217l133.714 34.377" style="fill:none;stroke:#40ff00;stroke-width:1.73466;stroke-linecap:round;stroke-linejoin:round;stroke-miterlimit:500;stroke-dasharray:none;stroke-opacity:1;visibility:visible" visibility="hidden"/><path d="m653.583 864.656-327.865-84.014M653.809 864.355a1.181 1.181 0 0 0-.227.679M662.09 855.305l-8.28 9.05" style="fill:none;stroke:#40ff00;stroke-width:.999997;stroke-linecap:round;stroke-linejoin:round;stroke-miterlimit:500;stroke-dasharray:none;stroke-opacity:1;visibility:visible" visibility="hidden"/><path d="m662.22 859.004.081-3.499M661.997 859.685a1.128 1.128 0 0 0 .221-.68M653.73 868.756l8.27-9.072" style="fill:none;stroke:#40ff00;stroke-width:1.73466;stroke-linecap:round;stroke-linejoin:round;stroke-miterlimit:500;stroke-dasharray:none;stroke-opacity:1;visibility:visible" visibility="hidden"/><path d="m653.583 865.034-.065 3.523M325.718 781.019l.221 3.324M335.556 772.515l-9.613 7.872M618.338 849.812l.336.119.252.169.152.193.025.208-.09.198-.203.185-.303.139-.362.086-.408.027-.404-.033-.362-.096-.296-.142-.205-.182-.092-.203.037-.208.148-.19.25-.165.342-.12.383-.05.41.004.39.061M412.24 797.295l.303.105.218.154.107.178-.005.187-.11.192-.221.159-.303.125-.358.087-.383.025-.379-.032-.334-.083-.255-.134-.167-.164-.057-.183.063-.196.169-.176.26-.143.335-.104.377-.06h.385l.355.063M512.77 822.911l.315.113.234.159.131.188.013.196-.108.197-.21.168-.296.135-.368.08-.391.03-.39-.03-.347-.092-.279-.137-.185-.172-.076-.198.049-.197.157-.183.26-.158.343-.106.38-.058.399.004.369.061" style="fill:none;stroke:#40ff00;stroke-width:.999997;stroke-linecap:round;stroke-linejoin:round;stroke-miterlimit:500;stroke-dasharray:none;stroke-opacity:1;visibility:visible" visibility="hidden"/><path d="m338.628 779.806.464.09.503.03.516-.02.502-.072.472-.127.416-.168.336-.201.251-.233.143-.24.038-.252-.074-.244-.18-.227-.287-.197-.367-.154-.434-.114-.486-.055-.508-.008-.513.047-.492.094-.44.154-.384.186-.293.216-.202.242-.09.246.021.248.127.24.232.214.325.173.404.132" style="fill:none;stroke:#40ff00;stroke-width:.666665;stroke-linecap:round;stroke-linejoin:round;stroke-miterlimit:500;stroke-dasharray:none;stroke-opacity:1;visibility:visible" visibility="hidden"/><path d="m325.718 781.019.221 3.324M335.556 772.515l-9.613 7.872M192.107 746.117l133.834 34.27" style="fill:none;stroke:#40ff00;stroke-width:.999997;stroke-linecap:round;stroke-linejoin:round;stroke-miterlimit:500;stroke-dasharray:none;stroke-opacity:1;visibility:visible" visibility="hidden"/><path d="m191.883 746.719.328 3.25M335.556 772.515l-133.378-33.81M202.177 738.705l-10.07 7.413" style="fill:none;stroke:#40ff00;stroke-width:1.73466;stroke-linecap:round;stroke-linejoin:round;stroke-miterlimit:500;stroke-dasharray:none;stroke-opacity:1;visibility:visible" visibility="hidden"/><path d="m223.53 750.62.328.052.365.004.364-.055.328-.098.275-.138.188-.16.08-.173-.023-.175-.133-.15-.227-.116-.305-.082-.352-.024-.364.023-.355.076-.305.119-.228.154-.136.166-.033.173.08.164.185.14.268.1M315.044 773.97l.347.059.374.001.367-.053.33-.106.274-.138.176-.17.07-.18-.035-.181-.147-.155-.244-.125-.319-.083-.362-.029-.378.025-.354.078-.304.124-.227.156-.123.177-.018.184.094.17.198.143.281.103" style="fill:none;stroke:#40ff00;stroke-width:.999997;stroke-linecap:round;stroke-linejoin:round;stroke-miterlimit:500;stroke-dasharray:none;stroke-opacity:1;visibility:visible" visibility="hidden"/><path d="m339.045 778.649 2.036.321M341.081 778.97l-2.453.836M335.702 772.47l2.926 7.336" style="fill:none;stroke:#40ff00;stroke-width:.666665;stroke-linecap:round;stroke-linejoin:round;stroke-miterlimit:500;stroke-dasharray:none;stroke-opacity:1;visibility:visible" visibility="hidden"/><path d="m325.941 780.386-10.897-6.416" style="fill:none;stroke:#40ff00;stroke-width:.999997;stroke-linecap:round;stroke-linejoin:round;stroke-miterlimit:500;stroke-dasharray:none;stroke-opacity:1;visibility:visible" visibility="hidden"/><path d="m338.628 779.806 2.453-.836" style="fill:none;stroke:#40ff00;stroke-width:.666665;stroke-linecap:round;stroke-linejoin:round;stroke-miterlimit:500;stroke-dasharray:none;stroke-opacity:1;visibility:visible" visibility="hidden"/><path d="m259.147 724.866 20.837-15.75M264.988 702.482l-20.96 15.62" style="fill:none;stroke:#0b00ff;stroke-width:1.73466;stroke-linecap:round;stroke-linejoin:round;stroke-miterlimit:500;stroke-dasharray:none;stroke-opacity:1;visibility:visible" visibility="hidden"/><path d="m258.62 721.668 20.856-15.728M244.268 718.068l14.353 3.6" style="fill:none;stroke:#0b00ff;stroke-width:.999997;stroke-linecap:round;stroke-linejoin:round;stroke-miterlimit:500;stroke-dasharray:none;stroke-opacity:1;visibility:visible" visibility="hidden"/><path d="m255.722 724.104 3.183.801M247.931 722.145l4.275 1.075M244.562 721.298l.541.136M243.927 718.376l.224 2.421" style="fill:none;stroke:#0b00ff;stroke-width:1.73466;stroke-linecap:round;stroke-linejoin:round;stroke-miterlimit:500;stroke-dasharray:none;stroke-opacity:1;visibility:visible" visibility="hidden"/><path d="m247.626 721.273.252.019.215-.08.148-.178.068-.237-.027-.281-.117-.288-.184-.256-.243-.198-.26-.113-.256-.017-.21.082-.149.178-.068.236.026.28M255.68 723.307l.255.013.217-.08.148-.176.065-.242-.024-.28-.114-.286-.186-.262-.241-.192-.263-.12-.253-.011-.216.083-.148.174" style="fill:none;stroke:#0b00ff;stroke-width:.666665;stroke-linecap:round;stroke-linejoin:round;stroke-miterlimit:500;stroke-dasharray:none;stroke-opacity:1;visibility:visible" visibility="hidden"/><path d="m279.477 705.94-14.255-3.501M279.891 706.44l.197 2.405M255.722 724.104l-3.516-.884M247.931 722.145l-2.828-.711" style="fill:none;stroke:#0b00ff;stroke-width:1.73466;stroke-linecap:round;stroke-linejoin:round;stroke-miterlimit:500;stroke-dasharray:none;stroke-opacity:1;visibility:visible" visibility="hidden"/><path d="m243.927 718.376 2.894 2.044" style="fill:none;stroke:#0b00ff;stroke-width:.666665;stroke-linecap:round;stroke-linejoin:round;stroke-miterlimit:500;stroke-dasharray:none;stroke-opacity:1;visibility:visible" visibility="hidden"/><path d="m564.967 986.115-4.914-.015" style="fill:none;stroke:#ffdf00;stroke-width:.999997;stroke-linecap:round;stroke-linejoin:round;stroke-miterlimit:500;stroke-dasharray:none;stroke-opacity:1;visibility:visible" visibility="hidden"/></svg>