<svg xmlns="http://www.w3.org/2000/svg" baseProfile="full" height="1122.52" preserveAspectRatio="xMinYMin meet" style="width:1370px;height:1303px" width="793.701" xml:space="preserve"><path d="m257.244 495.497 353.772 100.778M621.042 580.646l-347.003-97.354" style="fill:none;stroke:red;stroke-width:1.73466;stroke-linecap:round;stroke-linejoin:round;stroke-miterlimit:500;stroke-dasharray:none;stroke-opacity:1;visibility:visible"/><path d="m257 490.968 354.16 100.484M611.158 591.453a1.285 1.285 0 0 0-.254.759M620.889 580.72l-9.728 10.732" style="fill:none;stroke:red;stroke-width:.999997;stroke-linecap:round;stroke-linejoin:round;stroke-miterlimit:500;stroke-dasharray:none;stroke-opacity:1;visibility:visible"/><path d="m621.144 580.912-.005-.085-.014-.071-.022-.059-.035-.036-.036-.014-.044.001-.05.027-.049.045M621.141 584.696l.003-3.784M620.886 585.45a1.24 1.24 0 0 0 .252-.75M611.173 596.203l9.715-10.755" style="fill:none;stroke:red;stroke-width:1.73466;stroke-linecap:round;stroke-linejoin:round;stroke-miterlimit:500;stroke-dasharray:none;stroke-opacity:1;visibility:visible"/><path d="m610.915 596.011.003.084.018.076.023.055.032.036.036.016.047-.007.049-.025.05-.043M610.905 592.211l.01 3.8M256.744 491.657l.347 3.58M268.246 481.776l-11.248 9.192M572.934 574.022l.361.141.27.198.15.233.019.244-.115.241-.237.215-.339.164-.412.103-.446.03-.442-.041-.398-.113-.322-.175-.21-.215-.083-.245.047-.245.177-.23.288-.189.383-.133.432-.067.453.007.424.077M350.107 511.145l.32.128.221.179.107.208-.017.226-.144.215-.252.192-.344.15-.404.097-.422.028-.409-.038-.36-.101-.273-.156-.167-.199-.045-.218.084-.22.2-.21.302-.172.379-.124.417-.061.419.005.388.071M458.514 541.733l.341.137.244.187.128.219v.237l-.13.228-.247.203-.341.156-.407.1-.435.029-.426-.041-.379-.106-.295-.165-.188-.207-.061-.23.064-.234.19-.217.298-.179.381-.132.424-.065.435.007.404.073" style="fill:none;stroke:red;stroke-width:.999997;stroke-linecap:round;stroke-linejoin:round;stroke-miterlimit:500;stroke-dasharray:none;stroke-opacity:1;visibility:visible"/><path d="m269.927 482.138-1.496-.419M114.449 454.813l142.75 40.663M268.437 481.71l-142.429-39.955" style="fill:none;stroke:#00ff4a;stroke-width:1.73466;stroke-linecap:round;stroke-linejoin:round;stroke-miterlimit:500;stroke-dasharray:none;stroke-opacity:1;visibility:visible"/><path d="M257 490.97a.844.844 0 0 0-.256.689M257.09 495.239a.272.272 0 0 0 .153.26" style="fill:none;stroke:#00ff4a;stroke-width:.999997;stroke-linecap:round;stroke-linejoin:round;stroke-miterlimit:500;stroke-dasharray:none;stroke-opacity:1;visibility:visible"/><path d="M114.066 450.406a.76.76 0 0 0-.252.664" style="fill:none;stroke:#00ff4a;stroke-width:1.73466;stroke-linecap:round;stroke-linejoin:round;stroke-miterlimit:500;stroke-dasharray:none;stroke-opacity:1;visibility:visible"/><path d="m114.066 450.404 142.941 40.555" style="fill:none;stroke:#00ff4a;stroke-width:.999997;stroke-linecap:round;stroke-linejoin:round;stroke-miterlimit:500;stroke-dasharray:none;stroke-opacity:1;visibility:visible"/><path d="m113.813 451.068.467 3.488M125.81 441.8l-11.745 8.603" style="fill:none;stroke:#00ff4a;stroke-width:1.73466;stroke-linecap:round;stroke-linejoin:round;stroke-miterlimit:500;stroke-dasharray:none;stroke-opacity:1;visibility:visible"/><path d="m147.897 455.765.357.063.395.002.404-.057.373-.113.311-.158.219-.192.109-.2-.013-.201-.127-.175-.237-.144-.323-.09-.383-.035-.402.028-.391.087-.347.138-.265.174-.167.198-.049.204.07.19.182.161.284.12M245.67 483.395l.37.068.406.004.412-.061.376-.116.307-.167.209-.199.096-.212-.027-.206-.145-.191-.257-.147-.338-.093-.396-.037-.414.028-.396.089-.343.147-.264.181-.153.205-.036.215.088.2.202.168.303.124" style="fill:none;stroke:#00ff4a;stroke-width:.999997;stroke-linecap:round;stroke-linejoin:round;stroke-miterlimit:500;stroke-dasharray:none;stroke-opacity:1;visibility:visible"/><path d="M114.28 454.558a.28.28 0 0 0 .169.256" style="fill:none;stroke:#00ff4a;stroke-width:1.73466;stroke-linecap:round;stroke-linejoin:round;stroke-miterlimit:500;stroke-dasharray:none;stroke-opacity:1;visibility:visible"/><path d="m151.594 427.517 141.169 38.812M303.562 453.004l-140.849-38.145M151.253 423.167a.747.747 0 0 0-.245.648" style="fill:none;stroke:#9500ff;stroke-width:1.73466;stroke-linecap:round;stroke-linejoin:round;stroke-miterlimit:500;stroke-dasharray:none;stroke-opacity:1;visibility:visible"/><path d="m151.252 423.166 141.349 38.708" style="fill:none;stroke:#9500ff;stroke-width:.999997;stroke-linecap:round;stroke-linejoin:round;stroke-miterlimit:500;stroke-dasharray:none;stroke-opacity:1;visibility:visible"/><path d="m151.007 423.815.421 3.444" style="fill:none;stroke:#9500ff;stroke-width:1.73466;stroke-linecap:round;stroke-linejoin:round;stroke-miterlimit:500;stroke-dasharray:none;stroke-opacity:1;visibility:visible"/><path d="m178.979 433.995.268.023.224-.083.153-.183.063-.256-.033-.3-.131-.308-.205-.28-.258-.217-.281-.127-.27-.025-.223.087-.154.18-.062.254.034.304.127.306.21.278.257.218.281.129M170.428 431.646l.265.024.222-.084.152-.183.061-.254-.033-.3-.128-.307-.206-.28-.26-.217-.278-.127-.268-.024-.222.084-.152.183-.062.254.037.302.127.308.206.276.258.217.281.128" style="fill:none;stroke:#9500ff;stroke-width:.999997;stroke-linecap:round;stroke-linejoin:round;stroke-miterlimit:500;stroke-dasharray:none;stroke-opacity:1;visibility:visible"/><path d="m162.53 414.903-11.279 8.263" style="fill:none;stroke:#9500ff;stroke-width:1.73466;stroke-linecap:round;stroke-linejoin:round;stroke-miterlimit:500;stroke-dasharray:none;stroke-opacity:1;visibility:visible"/><path d="m187.944 425.77.279.115.188.153.074.183-.044.192-.156.19-.258.168-.332.134-.384.081-.394.027-.374-.031-.322-.087-.234-.136-.132-.17-.016-.187.101-.199.208-.18.3-.15.363-.107.393-.056.388.001.352.059M284.52 452.03l.297.116.203.161.093.194-.028.204-.146.197-.252.173-.334.14-.385.087-.404.027-.388-.035-.337-.088-.255-.143-.148-.176-.032-.201.088-.204.204-.19.295-.158.362-.112.402-.055h.401l.364.063" style="fill:none;stroke:#9500ff;stroke-width:.999997;stroke-linecap:round;stroke-linejoin:round;stroke-miterlimit:500;stroke-dasharray:none;stroke-opacity:1;visibility:visible"/><path d="M151.429 427.26c0 .11.063.212.164.258" style="fill:none;stroke:#9500ff;stroke-width:1.73466;stroke-linecap:round;stroke-linejoin:round;stroke-miterlimit:500;stroke-dasharray:none;stroke-opacity:1;visibility:visible"/><path d="m187.944 425.77-8.965 8.225M187.944 425.77l-8.965 8.225M187.944 425.77l-17.516 5.876M187.944 425.77l-17.516 5.876M178.979 433.995l8.965-8.225M178.979 433.995l8.965-8.225" style="fill:none;stroke:#9500ff;stroke-width:.999997;stroke-linecap:round;stroke-linejoin:round;stroke-miterlimit:500;stroke-dasharray:none;stroke-opacity:1;visibility:visible"/><path d="m292.802 466.348 348.936 95.938M306.048 453.686l-2.49-.675M651.345 547.21l-341.71-92.552" style="fill:none;stroke:#ffdf00;stroke-width:1.73466;stroke-linecap:round;stroke-linejoin:round;stroke-miterlimit:500;stroke-dasharray:none;stroke-opacity:1;visibility:visible"/><path d="m641.64 562.023.003.085.013.072.02.056.032.036.036.018.044-.004.045-.022.05-.046M641.659 558.275l-.019 3.748M641.908 557.532a1.283 1.283 0 0 0-.25.744M651.205 547.28l-9.296 10.252" style="fill:none;stroke:#ffdf00;stroke-width:.999997;stroke-linecap:round;stroke-linejoin:round;stroke-miterlimit:500;stroke-dasharray:none;stroke-opacity:1;visibility:visible"/><path d="m651.444 547.478-.003-.085-.016-.075-.02-.053-.029-.038-.036-.018-.044.004-.045.024-.047.044M651.413 551.21l.03-3.732M651.164 551.944a1.239 1.239 0 0 0 .248-.732M641.883 562.218l9.283-10.276" style="fill:none;stroke:#ffdf00;stroke-width:1.73466;stroke-linecap:round;stroke-linejoin:round;stroke-miterlimit:500;stroke-dasharray:none;stroke-opacity:1;visibility:visible"/><path d="m641.47 557.592-348.315-95.441M292.349 462.554l.305 3.537M625.904 556.764l.344.037.299-.08.224-.185.12-.273v-.327l-.118-.337-.224-.31-.298-.249-.344-.145-.342-.042-.301.083-.227.188-.114.27-.003.325.117.34.227.306.299.247.341.152M636.61 559.705l.341.036.304-.081.224-.186.12-.273.006-.324-.12-.339-.222-.314-.304-.243-.344-.15-.344-.038-.301.08-.227.187-.12.274v.323l.118.339.224.312.301.244.344.153M303.385 453.062l-10.79 8.816M604.29 540.762l.419.075.438.004.424-.064.368-.13.282-.182.169-.218.04-.234-.09-.23-.21-.208-.317-.164-.392-.109-.434-.041-.437.032-.399.097-.328.16-.226.201-.11.228.024.238.156.221.266.187.357.137M384.584 480.93l.383.067.412.005.405-.063.37-.114.291-.168.19-.198.073-.214-.047-.206-.169-.19-.273-.146-.354-.096-.401-.037-.413.028-.391.09-.333.145-.246.181-.133.21-.012.214.11.199.223.173.315.12M491.54 510.055l.396.07.43.007.411-.062.371-.126.287-.173.18-.208.06-.223-.071-.218-.19-.198-.294-.156-.372-.098-.413-.04-.428.029-.395.095-.33.149-.235.193-.123.219.008.223.127.212.245.176.336.129M306.212 459.117l-.416.208-.332.248-.228.267-.112.282.005.279.124.263.238.237.341.2.424.155M306.256 461.255l.492.099.536.037.556-.023.545-.082.512-.136.456-.191.378-.225.278-.259.17-.273.054-.283-.064-.277-.185-.252-.29-.219-.385-.176" style="fill:none;stroke:#ffdf00;stroke-width:.999997;stroke-linecap:round;stroke-linejoin:round;stroke-miterlimit:500;stroke-dasharray:none;stroke-opacity:1;visibility:visible"/><path d="M306.695 461.319c.016-.267.003.087.008-.176-.133-.452.08.13-.106-.293-.287-.348.112.097-.2-.222-.417-.225.153.04-.283-.128-.468-.011.152-.044-.312.016-.38.212.107-.12-.243.164-.145.223.043-.084-.093.154" style="fill:none;stroke:#ffdf00;stroke-width:.999997;stroke-linecap:round;stroke-linejoin:round;stroke-miterlimit:500;stroke-dasharray:none;stroke-opacity:1;visibility:visible"/><path d="m309.635 454.658-3.587-.972M306.048 453.686l3.587.972" style="fill:none;stroke:#ffdf00;stroke-width:1.73466;stroke-linecap:round;stroke-linejoin:round;stroke-miterlimit:500;stroke-dasharray:none;stroke-opacity:1;visibility:visible"/><path d="m306.256 461.256 3.053-2.261" style="fill:none;stroke:#ffdf00;stroke-width:.999997;stroke-linecap:round;stroke-linejoin:round;stroke-miterlimit:500;stroke-dasharray:none;stroke-opacity:1;visibility:visible"/><path d="m232.868 367.791 137.564 34.93M380.264 390.321l-137.204-34.33M232.607 363.575a.728.728 0 0 0-.229.616" style="fill:none;stroke:#00d4ff;stroke-width:1.73466;stroke-linecap:round;stroke-linejoin:round;stroke-miterlimit:500;stroke-dasharray:none;stroke-opacity:1;visibility:visible"/><path d="m232.608 363.574 137.694 34.812" style="fill:none;stroke:#00d4ff;stroke-width:.999997;stroke-linecap:round;stroke-linejoin:round;stroke-miterlimit:500;stroke-dasharray:none;stroke-opacity:1;visibility:visible"/><path d="m232.378 364.19.333 3.341M242.91 356.025l-10.303 7.55" style="fill:none;stroke:#00d4ff;stroke-width:1.73466;stroke-linecap:round;stroke-linejoin:round;stroke-miterlimit:500;stroke-dasharray:none;stroke-opacity:1;visibility:visible"/><path d="m264.893 368.134.341.055.372.004.375-.051.339-.103.28-.138.188-.164.085-.179-.025-.173-.139-.155-.233-.121-.315-.079-.359-.03-.378.026-.362.077-.312.119-.234.155-.139.174-.03.178.082.164.188.141.276.1M359.054 391.857l.352.055.385.004.378-.054.345-.105.273-.144.183-.172.072-.185-.044-.18-.15-.163-.251-.128-.33-.083-.372-.03-.385.026-.365.079-.312.128-.232.159-.128.181-.015.187.099.174.202.146.295.105" style="fill:none;stroke:#00d4ff;stroke-width:.999997;stroke-linecap:round;stroke-linejoin:round;stroke-miterlimit:500;stroke-dasharray:none;stroke-opacity:1;visibility:visible"/><path d="M232.711 367.534a.259.259 0 0 0 .156.259" style="fill:none;stroke:#00d4ff;stroke-width:1.73466;stroke-linecap:round;stroke-linejoin:round;stroke-miterlimit:500;stroke-dasharray:none;stroke-opacity:1;visibility:visible"/><path d="m370.432 402.72 337.97 85.81M382.587 390.902l-2.323-.581M717.139 474.618l-330.258-82.642" style="fill:none;stroke:#ff008a;stroke-width:1.73466;stroke-linecap:round;stroke-linejoin:round;stroke-miterlimit:500;stroke-dasharray:none;stroke-opacity:1;visibility:visible"/><path d="M708.628 483.935a1.237 1.237 0 0 0-.235.699M717.021 474.678l-8.392 9.253" style="fill:none;stroke:#ff008a;stroke-width:.999997;stroke-linecap:round;stroke-linejoin:round;stroke-miterlimit:500;stroke-dasharray:none;stroke-opacity:1;visibility:visible"/><path d="m717.227 474.886-.003-.081-.01-.072-.015-.055-.03-.039-.027-.021-.04.001-.039.018-.041.041M717.136 478.504l.09-3.617M716.902 479.199c.146-.2.228-.443.232-.693M708.523 488.473l8.381-9.276" style="fill:none;stroke:#ff008a;stroke-width:1.73466;stroke-linecap:round;stroke-linejoin:round;stroke-miterlimit:500;stroke-dasharray:none;stroke-opacity:1;visibility:visible"/><path d="m708.312 488.265.003.083.008.073.02.055.024.038.033.019.04-.003.041-.017.042-.04M708.395 484.632l-.083 3.633M370.3 398.388a.843.843 0 0 0-.232.642M370.301 398.386l338.327 85.546M370.07 399.028l.221 3.428M380.118 390.365l-9.816 8.021M671.876 469.087l.35.12.262.17.153.198.038.213-.092.207-.208.183-.308.141-.375.09-.416.03-.415-.033-.381-.098-.307-.145-.212-.19-.096-.205.03-.213.15-.199.26-.164.346-.117.401-.061.419.006.401.067M459.163 415.574l.31.11.22.154.115.18.003.195-.12.188-.221.168-.31.13-.369.084-.396.027-.385-.03-.343-.087-.27-.135-.17-.17-.06-.187.06-.198.175-.178.268-.151.348-.105.382-.058.394.004.369.059M562.849 441.657l.325.116.246.16.132.19.016.205-.104.196-.216.173-.308.139-.372.085-.407.028-.4-.035-.361-.088-.287-.14-.192-.18-.076-.197.047-.203.161-.188.267-.16.344-.109.393-.059h.407l.385.067M383.17 395.851l-.388.19-.303.225-.202.241-.094.255.023.252.136.242.24.215.339.183.413.134" style="fill:none;stroke:#ff008a;stroke-width:.999997;stroke-linecap:round;stroke-linejoin:round;stroke-miterlimit:500;stroke-dasharray:none;stroke-opacity:1;visibility:visible"/><path d="m383.333 397.788.479.09.513.034.53-.023.518-.074.483-.126.424-.173.346-.207.255-.236.148-.25.035-.256-.079-.248-.19-.227-.291-.201M370.432 402.72h0l-.044-.023-.037-.04-.028-.053-.022-.067-.009-.08" style="fill:none;stroke:#ff008a;stroke-width:.999997;stroke-linecap:round;stroke-linejoin:round;stroke-miterlimit:500;stroke-dasharray:none;stroke-opacity:1;visibility:visible"/><path d="M383.591 397.822c0-.004.003.004 0-.004-.021-.126.01.044-.016-.082-.067-.21.03.067-.047-.14-.104-.19.039.062-.07-.125-.138-.167.048.052-.094-.11-.164-.141.058.037-.112-.091-.197-.109.068.031-.132-.066-.108-.033.036.01-.071-.024-.109-.018.038.006-.072-.01-.105-.008.035-.002-.069-.004-.104.01.035-.004-.068.008-.104.021.032-.012-.069.016-.101.038.03-.015-.068.026-.139.09.044-.03-.09.064M370.291 402.457l.01.081.02.066.03.053.036.041.044.022M370.07 399.028l.221 3.428M370.3 398.388a.843.843 0 0 0-.232.642" style="fill:none;stroke:#ff008a;stroke-width:.999997;stroke-linecap:round;stroke-linejoin:round;stroke-miterlimit:500;stroke-dasharray:none;stroke-opacity:1;visibility:visible"/><path d="m386.881 391.976-4.294-1.074M382.587 390.902l4.294 1.074" style="fill:none;stroke:#ff008a;stroke-width:1.73466;stroke-linecap:round;stroke-linejoin:round;stroke-miterlimit:500;stroke-dasharray:none;stroke-opacity:1;visibility:visible"/><path d="m401.5 377.249 333.43 81.932M428.838 369.545l-11.065-2.679M743.333 445.72 434.6 370.94" style="fill:none;stroke:#40ff00;stroke-width:1.73466;stroke-linecap:round;stroke-linejoin:round;stroke-miterlimit:500;stroke-dasharray:none;stroke-opacity:1;visibility:visible"/><path d="M734.845 458.913v.083l.01.07.018.055.024.039.03.02h.035l.042-.018.038-.037M734.952 455.328l-.107 3.585M735.177 454.647a1.237 1.237 0 0 0-.227.683M743.224 445.771l-8.045 8.873" style="fill:none;stroke:#40ff00;stroke-width:.999997;stroke-linecap:round;stroke-linejoin:round;stroke-miterlimit:500;stroke-dasharray:none;stroke-opacity:1;visibility:visible"/><path d="m743.419 445.986-.003-.083-.008-.069-.016-.057-.022-.039-.032-.017h-.036l-.039.013-.039.037M743.304 449.555l.115-3.57M743.078 450.236a1.228 1.228 0 0 0 .224-.678M735.043 459.125l8.037-8.89" style="fill:none;stroke:#40ff00;stroke-width:1.73466;stroke-linecap:round;stroke-linejoin:round;stroke-miterlimit:500;stroke-dasharray:none;stroke-opacity:1;visibility:visible"/><path d="m401.4 372.977 333.78 81.668M719.91 454.347l.328.025.29-.085.218-.19.12-.26.008-.31-.103-.321-.208-.291-.284-.224-.32-.136-.328-.025-.292.084-.216.189-.12.264-.009.31.104.32.208.291.281.223.323.136M730.085 456.843l.328.028.295-.088.218-.187.123-.261.01-.312-.107-.319-.206-.289-.284-.228-.325-.133-.328-.028-.292.084-.219.189-.122.263-.01.309.107.32.205.29.284.225.323.137M699.003 440.31l.399.063.408.004.39-.059.338-.113.25-.155.143-.19.024-.202-.099-.201-.213-.176-.304-.14-.372-.091-.41-.035-.406.028-.367.086-.292.136-.202.178-.084.196.037.204.156.191.263.16.341.116M489.208 389.244l.364.056h.385l.382-.055.33-.101.264-.143.164-.174.055-.184-.063-.184-.172-.159-.266-.13-.339-.08-.38-.031-.385.026-.363.078-.299.125-.213.163-.112.178.003.188.117.174.223.145.305.108M591.526 414.149l.377.061h.399l.385-.054.334-.107.258-.152.155-.179.039-.194-.082-.192-.189-.168-.285-.136-.358-.083-.39-.033-.398.029-.36.08-.301.132-.207.167-.098.189.018.193.138.183.24.153.325.111M413.973 370.53l-.377.183-.292.212-.192.236-.084.244.026.244.138.232.242.205.336.173.411.132" style="fill:none;stroke:#40ff00;stroke-width:.999997;stroke-linecap:round;stroke-linejoin:round;stroke-miterlimit:500;stroke-dasharray:none;stroke-opacity:1;visibility:visible"/><path d="m414.181 372.391.472.083.504.032.519-.022.509-.072.47-.121.413-.167.336-.201.242-.225.138-.24.029-.246-.084-.237-.19-.221-.291-.19-.375-.152" style="fill:none;stroke:#40ff00;stroke-width:.999997;stroke-linecap:round;stroke-linejoin:round;stroke-miterlimit:500;stroke-dasharray:none;stroke-opacity:1;visibility:visible"/><path d="M414.346 372.414c-.096-.335.041.103-.071-.219-.241-.342.107.088-.175-.214-.369-.231.134.039-.249-.141-.412-.022.135-.026-.273.007-.342.169.085-.114-.214.142l-.004.006" style="fill:none;stroke:#40ff00;stroke-width:.999997;stroke-linecap:round;stroke-linejoin:round;stroke-miterlimit:500;stroke-dasharray:none;stroke-opacity:1;visibility:visible"/><path d="M414.181 372.391 401.5 377.25M434.6 370.94l-5.762-1.395M414.181 372.391l3.592-5.525M428.838 369.545l5.762 1.395" style="fill:none;stroke:#40ff00;stroke-width:1.73466;stroke-linecap:round;stroke-linejoin:round;stroke-miterlimit:500;stroke-dasharray:none;stroke-opacity:1;visibility:visible"/><path d="m414.181 372.391-12.781.586M414.181 372.391l2.692-1.979" style="fill:none;stroke:#40ff00;stroke-width:.999997;stroke-linecap:round;stroke-linejoin:round;stroke-miterlimit:500;stroke-dasharray:none;stroke-opacity:1;visibility:visible"/><path d="m412.493 365.588-1.52-.368M265.474 343.827 401.5 377.25M338.027 347.552l-62.719-15.19M410.974 365.22l-54.423-13.181" style="fill:none;stroke:#0b00ff;stroke-width:1.73466;stroke-linecap:round;stroke-linejoin:round;stroke-miterlimit:500;stroke-dasharray:none;stroke-opacity:1;visibility:visible"/><path d="M401.399 372.98a.835.835 0 0 0-.227.628M401.173 373.606l.193 3.381M410.84 365.263l-9.441 7.715M401.5 377.249h-.005l-.042-.02-.034-.039-.028-.054-.019-.07-.008-.077" style="fill:none;stroke:#0b00ff;stroke-width:.999997;stroke-linecap:round;stroke-linejoin:round;stroke-miterlimit:500;stroke-dasharray:none;stroke-opacity:1;visibility:visible"/><path d="m401.365 376.988.008.079.019.068.028.054.033.04.043.019h.005M401.173 373.606l.193 3.381M401.399 372.98a.835.835 0 0 0-.227.628" style="fill:none;stroke:#0b00ff;stroke-width:.999997;stroke-linecap:round;stroke-linejoin:round;stroke-miterlimit:500;stroke-dasharray:none;stroke-opacity:1;visibility:visible"/><path d="M265.247 339.669a.72.72 0 0 0-.226.601" style="fill:none;stroke:#0b00ff;stroke-width:1.73466;stroke-linecap:round;stroke-linejoin:round;stroke-miterlimit:500;stroke-dasharray:none;stroke-opacity:1;visibility:visible"/><path d="m265.248 339.666 136.15 33.312" style="fill:none;stroke:#0b00ff;stroke-width:.999997;stroke-linecap:round;stroke-linejoin:round;stroke-miterlimit:500;stroke-dasharray:none;stroke-opacity:1;visibility:visible"/><path d="m265.02 340.268.303 3.304" style="fill:none;stroke:#0b00ff;stroke-width:1.73466;stroke-linecap:round;stroke-linejoin:round;stroke-miterlimit:500;stroke-dasharray:none;stroke-opacity:1;visibility:visible"/><path d="m291.934 349.294.26.017.221-.086.155-.179.072-.248-.025-.288-.115-.292-.193-.263-.244-.202-.27-.118-.26-.012-.221.088-.156.175-.068.25.024.287.115.295.192.263.245.2.268.113M283.683 347.274l.26.013.221-.086.152-.178.07-.25-.023-.287-.117-.292-.191-.263-.244-.2-.268-.116-.261-.013-.219.087-.153.177-.071.247.027.29.114.291.192.263.246.196.265.121" style="fill:none;stroke:#0b00ff;stroke-width:.999997;stroke-linecap:round;stroke-linejoin:round;stroke-miterlimit:500;stroke-dasharray:none;stroke-opacity:1;visibility:visible"/><path d="m275.166 332.402-9.919 7.264" style="fill:none;stroke:#0b00ff;stroke-width:1.73466;stroke-linecap:round;stroke-linejoin:round;stroke-miterlimit:500;stroke-dasharray:none;stroke-opacity:1;visibility:visible"/><path d="m300.021 341.826.273.095.191.137.083.156-.023.172-.13.168-.23.145-.303.116-.35.074-.372.025-.352-.025-.31-.075-.233-.119-.141-.148-.028-.165.077-.172.18-.156.27-.136.333-.093.365-.052h.367l.333.053M393.023 364.432l.29.101.205.14.098.168-.008.175-.121.173-.221.156-.303.118-.356.077-.381.027-.364-.027-.324-.08-.251-.121-.153-.156-.047-.172.068-.179.173-.164.268-.141.331-.1.372-.05h.375l.349.055" style="fill:none;stroke:#0b00ff;stroke-width:.999997;stroke-linecap:round;stroke-linejoin:round;stroke-miterlimit:500;stroke-dasharray:none;stroke-opacity:1;visibility:visible"/><path d="M265.322 343.574a.253.253 0 0 0 .15.255M356.551 352.039l-18.524-4.487M338.027 347.552l18.524 4.487" style="fill:none;stroke:#0b00ff;stroke-width:1.73466;stroke-linecap:round;stroke-linejoin:round;stroke-miterlimit:500;stroke-dasharray:none;stroke-opacity:1;visibility:visible"/><path d="m300.021 341.826-8.087 7.468M291.934 349.294l8.087-7.468M410.973 365.22l-17.95-.788" style="fill:none;stroke:#0b00ff;stroke-width:.999997;stroke-linecap:round;stroke-linejoin:round;stroke-miterlimit:500;stroke-dasharray:none;stroke-opacity:1;visibility:visible"/><path d="m269.927 482.138 4.112 1.154" style="fill:none;stroke:red;stroke-width:1.73466;stroke-linecap:round;stroke-linejoin:round;stroke-miterlimit:500;stroke-dasharray:none;stroke-opacity:1;visibility:visible"/><path d="m274.039 483.292-4.112-1.154" style="fill:none;stroke:#00ff4a;stroke-width:1.73466;stroke-linecap:round;stroke-linejoin:round;stroke-miterlimit:500;stroke-dasharray:none;stroke-opacity:1;visibility:visible"/><path d="m401.5 377.249 12.473-6.719" style="fill:none;stroke:#40ff00;stroke-width:.999997;stroke-linecap:round;stroke-linejoin:round;stroke-miterlimit:500;stroke-dasharray:none;stroke-opacity:1;visibility:visible"/><path d="m417.773 366.866-5.28-1.278" style="fill:none;stroke:#0b00ff;stroke-width:1.73466;stroke-linecap:round;stroke-linejoin:round;stroke-miterlimit:500;stroke-dasharray:none;stroke-opacity:1;visibility:visible"/></svg>