<svg xmlns="http://www.w3.org/2000/svg" baseProfile="full" height="1122.52" preserveAspectRatio="xMinYMin meet" style="width:1370px;height:1303px" width="793.701" xml:space="preserve"><path d="m730.98 457.136-.59-.148" style="fill:none;stroke:red;stroke-width:.999997;stroke-linecap:round;stroke-linejoin:round;stroke-miterlimit:500;stroke-dasharray:none;stroke-opacity:1;visibility:visible" visibility="hidden"/><path d="m709.908 451.829-19.067-4.804M646.006 435.737l-63.339-15.952M534.05 407.545l-54.096-13.624M395.952 391.651l14.616 3.747M479.17 413.009l38.257 9.817M581.442 439.26l48.872 12.544M689.13 466.903l39.292 10.088M732.947 401.705l-338.451-80.75M393.122 339.905l64.926 15.813M478.882 360.793l83.806 20.408M582.505 386.031l90.514 22.043" style="fill:none;stroke:red;stroke-width:1.73466;stroke-linecap:round;stroke-linejoin:round;stroke-miterlimit:500;stroke-dasharray:none;stroke-opacity:1;visibility:visible" visibility="hidden"/><path d="m710.754 417.26 19.603 4.775" style="fill:none;stroke:red;stroke-width:.999997;stroke-linecap:round;stroke-linejoin:round;stroke-miterlimit:500;stroke-dasharray:none;stroke-opacity:1;visibility:visible" visibility="hidden"/><path d="m691.689 412.618 19.067 4.643" style="fill:none;stroke:red;stroke-width:1.73466;stroke-linecap:round;stroke-linejoin:round;stroke-miterlimit:500;stroke-dasharray:none;stroke-opacity:1;visibility:visible" visibility="hidden"/><path d="m397.327 373.113-15.033-3.784" style="fill:none;stroke:red;stroke-width:.999997;stroke-linecap:round;stroke-linejoin:round;stroke-miterlimit:500;stroke-dasharray:none;stroke-opacity:1;visibility:visible" visibility="hidden"/><path d="m289.316 364.278 19.945 5.117M381.914 388.043l14.037 3.608" style="fill:none;stroke:red;stroke-width:1.73466;stroke-linecap:round;stroke-linejoin:round;stroke-miterlimit:500;stroke-dasharray:none;stroke-opacity:1;visibility:visible" visibility="hidden"/><path d="m394.495 320.956-137.134-32.713" style="fill:none;stroke:red;stroke-width:.999997;stroke-linecap:round;stroke-linejoin:round;stroke-miterlimit:500;stroke-dasharray:none;stroke-opacity:1;visibility:visible" visibility="hidden"/><path d="m256.43 306.615 7.77 1.893M286.697 313.987l71.99 17.533M380.405 336.81l12.716 3.093" style="fill:none;stroke:red;stroke-width:1.73466;stroke-linecap:round;stroke-linejoin:round;stroke-miterlimit:500;stroke-dasharray:none;stroke-opacity:1;visibility:visible" visibility="hidden"/><path d="m291.709 346.697-2.627-32.13M730.38 457.248l1.295-36.58" style="fill:none;stroke:red;stroke-width:.999997;stroke-linecap:round;stroke-linejoin:round;stroke-miterlimit:500;stroke-dasharray:none;stroke-opacity:1;visibility:visible" visibility="hidden"/><path d="m710.937 417.305-1.097 36.737" style="fill:none;stroke:red;stroke-width:1.73466;stroke-linecap:round;stroke-linejoin:round;stroke-miterlimit:500;stroke-dasharray:none;stroke-opacity:1;visibility:visible" visibility="hidden"/><path d="M728.34 476.727v.081l.008.067.019.055.022.042.03.018.036-.004.038-.018.042-.038M728.932 459.783l-.59 16.944M729.162 459.098a1.237 1.237 0 0 0-.232.686M730.865 457.193l-1.701 1.904M731.063 457.407l-.003-.085-.008-.07-.016-.058-.025-.036-.03-.022h-.035l-.036.022-.044.036" style="fill:none;stroke:red;stroke-width:.999997;stroke-linecap:round;stroke-linejoin:round;stroke-miterlimit:500;stroke-dasharray:none;stroke-opacity:1;visibility:visible" visibility="hidden"/><path d="m730.459 474.327.604-16.921M730.233 475.008a1.24 1.24 0 0 0 .224-.68M728.536 476.93l1.699-1.923" style="fill:none;stroke:red;stroke-width:1.73466;stroke-linecap:round;stroke-linejoin:round;stroke-miterlimit:500;stroke-dasharray:none;stroke-opacity:1;visibility:visible" visibility="hidden"/><path d="M395.172 374.802a.793.793 0 0 0-.226.621M394.946 375.421l.875 15.97M404.75 387.888l.437.057.412-.034.367-.138.307-.234.228-.311.141-.38.05-.432-.047-.457-.144-.472-.227-.455-.308-.419-.364-.369-.415-.287-.434-.21-.446-.111-.424-.015-.39.09-.34.182-.268.279-.188.347-.094.408v.45l.096.462.186.466.268.443.337.39.393.334.424.25.443.166M397.19 373.16l-2.017 1.64M732.182 420.12a1.196 1.196 0 0 0 .232-.69" style="fill:none;stroke:red;stroke-width:.999997;stroke-linecap:round;stroke-linejoin:round;stroke-miterlimit:500;stroke-dasharray:none;stroke-opacity:1;visibility:visible" visibility="hidden"/><path d="m730.464 421.985 1.719-1.868" style="fill:none;stroke:red;stroke-width:1.73466;stroke-linecap:round;stroke-linejoin:round;stroke-miterlimit:500;stroke-dasharray:none;stroke-opacity:1;visibility:visible" visibility="hidden"/><path d="M730.269 421.759v.084l.008.073.019.058.022.04.032.022.034.004.041-.024.039-.03M730.881 404.299l-.612 17.46M731.109 403.607a1.196 1.196 0 0 0-.23.693M732.838 401.756l-1.728 1.85" style="fill:none;stroke:red;stroke-width:.999997;stroke-linecap:round;stroke-linejoin:round;stroke-miterlimit:500;stroke-dasharray:none;stroke-opacity:1;visibility:visible" visibility="hidden"/><path d="m733.038 401.984-.005-.087-.008-.068-.015-.062-.024-.039-.03-.021-.038-.006-.039.019-.041.036M732.415 419.428l.623-17.444" style="fill:none;stroke:red;stroke-width:1.73466;stroke-linecap:round;stroke-linejoin:round;stroke-miterlimit:500;stroke-dasharray:none;stroke-opacity:1;visibility:visible" visibility="hidden"/><path d="M392.314 322.593a.805.805 0 0 0-.232.63M392.083 323.221l.901 16.413M402.025 335.874l.443.055.417-.047.372-.15.308-.24.235-.326.142-.392.051-.444-.05-.477-.146-.48-.232-.466-.31-.426-.37-.367-.417-.295-.443-.208-.45-.105-.435-.008-.394.099-.342.2-.271.284-.19.365-.097.417.003.466.096.477.19.472.269.452.345.399.396.332.43.253.45.16M394.362 320.996l-2.048 1.595M393.122 339.905l-.008-.004-.041-.021-.034-.036-.026-.058-.019-.066-.01-.086M395.172 374.802a.793.793 0 0 0-.226.621M397.19 373.16l-2.017 1.64M394.946 375.421l.875 15.97" style="fill:none;stroke:red;stroke-width:.999997;stroke-linecap:round;stroke-linejoin:round;stroke-miterlimit:500;stroke-dasharray:none;stroke-opacity:1;visibility:visible" visibility="hidden"/><path d="m392.984 339.634.01.085.018.067.027.057.033.038.043.02.008.004M392.314 322.593a.805.805 0 0 0-.232.63" style="fill:none;stroke:red;stroke-width:.999997;stroke-linecap:round;stroke-linejoin:round;stroke-miterlimit:500;stroke-dasharray:none;stroke-opacity:1;visibility:visible" visibility="hidden"/><path d="M255.06 289.766a.725.725 0 0 0-.23.61M254.83 290.375l1.44 15.972M257.215 288.274l-2.153 1.49M394.362 320.996l-137.148-32.721M256.27 306.349a.264.264 0 0 0 .159.268" style="fill:none;stroke:red;stroke-width:1.73466;stroke-linecap:round;stroke-linejoin:round;stroke-miterlimit:500;stroke-dasharray:none;stroke-opacity:1;visibility:visible" visibility="hidden"/><path d="m290.057 348.002 1.573-1.168M728.358 458.892a.772.772 0 0 0 .695-.116M728.932 459.783l-38.165-9.643M643.58 438.22l-60.897-15.377M531.479 409.908l-51.428-12.99M425.298 383.091l-30.353-7.67M730.865 457.193l-.481-.123" style="fill:none;stroke:red;stroke-width:.999997;stroke-linecap:round;stroke-linejoin:round;stroke-miterlimit:500;stroke-dasharray:none;stroke-opacity:1;visibility:visible" visibility="hidden"/><path d="m427.922 380.896-30.733-7.737" style="fill:none;stroke:red;stroke-width:1.73466;stroke-linecap:round;stroke-linejoin:round;stroke-miterlimit:500;stroke-dasharray:none;stroke-opacity:1;visibility:visible" visibility="hidden"/><path d="m730.881 404.299-38.764-9.276M686.97 393.79l-104.545-25.019M577.485 367.59l-99.15-23.725M473.595 342.729l-81.512-19.508M394.946 375.421l-12.477-3.147M324.585 357.654l-35.019-8.845" style="fill:none;stroke:red;stroke-width:.999997;stroke-linecap:round;stroke-linejoin:round;stroke-miterlimit:500;stroke-dasharray:none;stroke-opacity:1;visibility:visible" visibility="hidden"/><path d="m397.19 373.16-14.89-3.752M327.315 355.56l-35.613-8.968" style="fill:none;stroke:red;stroke-width:1.73466;stroke-linecap:round;stroke-linejoin:round;stroke-miterlimit:500;stroke-dasharray:none;stroke-opacity:1;visibility:visible" visibility="hidden"/><path d="m392.083 323.221-12.644-3.025M374.887 319.107l-89.533-21.427M280.972 296.63l-26.143-6.255" style="fill:none;stroke:red;stroke-width:.999997;stroke-linecap:round;stroke-linejoin:round;stroke-miterlimit:500;stroke-dasharray:none;stroke-opacity:1;visibility:visible" visibility="hidden"/><path d="m256.27 306.346 8.17 1.992M291.63 346.834l-2.641-32.29" style="fill:none;stroke:red;stroke-width:1.73466;stroke-linecap:round;stroke-linejoin:round;stroke-miterlimit:500;stroke-dasharray:none;stroke-opacity:1;visibility:visible" visibility="hidden"/><path d="m728.359 458.89 1.292-37.027" style="fill:none;stroke:red;stroke-width:.999997;stroke-linecap:round;stroke-linejoin:round;stroke-miterlimit:500;stroke-dasharray:none;stroke-opacity:1;visibility:visible" visibility="hidden"/><path d="m730.334 457.352 1.295-36.637" style="fill:none;stroke:red;stroke-width:1.73466;stroke-linecap:round;stroke-linejoin:round;stroke-miterlimit:500;stroke-dasharray:none;stroke-opacity:1;visibility:visible" visibility="hidden"/><path d="m403.354 385.615 2.668.583M400.535 333.527l2.588.748" style="fill:none;stroke:red;stroke-width:.666665;stroke-linecap:round;stroke-linejoin:round;stroke-miterlimit:500;stroke-dasharray:none;stroke-opacity:1;visibility:visible" visibility="hidden"/><path d="m690.767 450.14 19.141 1.689M403.354 385.615l7.214 9.783M473.595 342.729l5.287 18.064M577.485 367.59l5.02 18.441M691.689 412.618l-18.67-4.544M673.02 408.074l18.669 4.544M394.946 375.421l-13.032 12.622M280.972 296.63l5.725 17.357M392.083 323.221l-11.678 13.589M728.932 459.783l-19.092-5.74" style="fill:none;stroke:red;stroke-width:1.73466;stroke-linecap:round;stroke-linejoin:round;stroke-miterlimit:500;stroke-dasharray:none;stroke-opacity:1;visibility:visible" visibility="hidden"/><path d="m406.022 386.198-1.272 1.69M400.535 333.527l1.49 2.347M709.908 451.829l-19.141-1.689M686.97 393.79l5.147 1.233M692.117 395.023l-5.147-1.233M577.485 367.59l4.94 1.181M582.425 368.771l-4.94-1.181M473.595 342.729l4.74 1.136M478.336 343.865l-4.741-1.136M397.19 373.16l-14.721-.886M374.887 319.107l4.552 1.089M379.439 320.196l-4.552-1.089M280.972 296.63l4.382 1.05M285.354 297.68l-4.382-1.05" style="fill:none;stroke:red;stroke-width:.999997;stroke-linecap:round;stroke-linejoin:round;stroke-miterlimit:500;stroke-dasharray:none;stroke-opacity:1;visibility:visible" visibility="hidden"/><path d="m395.951 391.651 7.403-6.036M404.75 387.888l1.272-1.69M402.025 335.874l-1.49-2.347M393.122 339.905l10.001-5.63" style="fill:none;stroke:red;stroke-width:.666665;stroke-linecap:round;stroke-linejoin:round;stroke-miterlimit:500;stroke-dasharray:none;stroke-opacity:1;visibility:visible" visibility="hidden"/><path d="m639.425 501.873-355.087-95.254" style="fill:none;stroke:#00ff4a;stroke-width:1.73466;stroke-linecap:round;stroke-linejoin:round;stroke-miterlimit:500;stroke-dasharray:none;stroke-opacity:1;visibility:visible"/><path d="m616.51 517.877 20.419 5.588" style="fill:none;stroke:#00ff4a;stroke-width:.999997;stroke-linecap:round;stroke-linejoin:round;stroke-miterlimit:500;stroke-dasharray:none;stroke-opacity:1;visibility:visible"/><path d="m283.185 426.669 333.323 91.21" style="fill:none;stroke:#00ff4a;stroke-width:1.73466;stroke-linecap:round;stroke-linejoin:round;stroke-miterlimit:500;stroke-dasharray:none;stroke-opacity:1;visibility:visible"/><path d="m638.807 560.047-.672-.19" style="fill:none;stroke:#00ff4a;stroke-width:.999997;stroke-linecap:round;stroke-linejoin:round;stroke-miterlimit:500;stroke-dasharray:none;stroke-opacity:1;visibility:visible"/><path d="m616.325 553.701-327.331-92.437M288.993 461.264l-109.906-31.036M160.84 425.078l-12.595-3.557M147.544 440.489l140.286 40.355M284.337 406.618l-142.592-38.25M173.074 396.536l110.11 30.132" style="fill:none;stroke:#00ff4a;stroke-width:1.73466;stroke-linecap:round;stroke-linejoin:round;stroke-miterlimit:500;stroke-dasharray:none;stroke-opacity:1;visibility:visible"/><path d="m156.773 392.075 16.301 4.463" style="fill:none;stroke:#00ff4a;stroke-width:.999997;stroke-linecap:round;stroke-linejoin:round;stroke-miterlimit:500;stroke-dasharray:none;stroke-opacity:1;visibility:visible"/><path d="m141.07 387.778 15.703 4.297" style="fill:none;stroke:#00ff4a;stroke-width:1.73466;stroke-linecap:round;stroke-linejoin:round;stroke-miterlimit:500;stroke-dasharray:none;stroke-opacity:1;visibility:visible"/><path d="m638.132 560.168.404-38.359" style="fill:none;stroke:#00ff4a;stroke-width:.999997;stroke-linecap:round;stroke-linejoin:round;stroke-miterlimit:500;stroke-dasharray:none;stroke-opacity:1;visibility:visible"/><path d="m616.487 517.87-.175 38.501" style="fill:none;stroke:#00ff4a;stroke-width:1.73466;stroke-linecap:round;stroke-linejoin:round;stroke-miterlimit:500;stroke-dasharray:none;stroke-opacity:1;visibility:visible"/><path d="m156.924 392.112 4.216 35.493M610.67 552.103l5.693-6.18" style="fill:none;stroke:#00ff4a;stroke-width:.999997;stroke-linecap:round;stroke-linejoin:round;stroke-miterlimit:500;stroke-dasharray:none;stroke-opacity:1;visibility:visible"/><path d="m638.536 521.843 51.737-56.181" style="fill:none;stroke:#00ff4a;stroke-width:1.73466;stroke-linecap:round;stroke-linejoin:round;stroke-miterlimit:500;stroke-dasharray:none;stroke-opacity:1;visibility:visible"/><path d="m498.378 520.392 27.863-27.213M543.643 476.179l38.983-38.07" style="fill:none;stroke:#00ff4a;stroke-width:.999997;stroke-linecap:round;stroke-linejoin:round;stroke-miterlimit:500;stroke-dasharray:none;stroke-opacity:1;visibility:visible"/><path d="m392.07 490.373 29.185-25.924M439.503 448.242l40.887-36.319" style="fill:none;stroke:#00ff4a;stroke-width:1.73466;stroke-linecap:round;stroke-linejoin:round;stroke-miterlimit:500;stroke-dasharray:none;stroke-opacity:1;visibility:visible"/><path d="m195.619 434.898 31.335-23.621" style="fill:none;stroke:#00ff4a;stroke-width:.999997;stroke-linecap:round;stroke-linejoin:round;stroke-miterlimit:500;stroke-dasharray:none;stroke-opacity:1;visibility:visible"/><path d="m246.573 396.488 44.019-33.172M291.29 461.913l30.339-24.73" style="fill:none;stroke:#00ff4a;stroke-width:1.73466;stroke-linecap:round;stroke-linejoin:round;stroke-miterlimit:500;stroke-dasharray:none;stroke-opacity:1;visibility:visible"/><path d="m340.609 421.716 42.559-34.688M637.012 504.852l-355.458-95.664M637.265 504.098a1.273 1.273 0 0 0-.255.754M281.807 408.504a.84.84 0 0 0-.254.686M639.526 502.158v-.09l-.013-.078-.023-.06-.032-.039-.036-.018-.041.002-.048.02-.05.046" style="fill:none;stroke:#00ff4a;stroke-width:.999997;stroke-linecap:round;stroke-linejoin:round;stroke-miterlimit:500;stroke-dasharray:none;stroke-opacity:1;visibility:visible"/><path d="m639.328 520.475.197-18.316" style="fill:none;stroke:#00ff4a;stroke-width:1.73466;stroke-linecap:round;stroke-linejoin:round;stroke-miterlimit:500;stroke-dasharray:none;stroke-opacity:1;visibility:visible"/><path d="M639.074 521.224a1.236 1.236 0 0 0 .252-.748M637.077 523.4l1.999-2.179M636.83 523.19v.09l.016.071.02.06.032.04.036.018h.044l.047-.028.053-.04M637.012 504.852l-.183 18.337M639.284 501.94l-2.017 2.156M281.553 409.188l1.477 17.208M593.605 502.386l.475.061.428-.084.356-.213.237-.336.108-.41-.033-.47-.178-.472-.304-.439-.394-.366-.464-.258-.479-.132-.459.012-.396.15-.298.276-.176.374-.038.452.11.471.242.465.35.403.438.321.475.195M369.913 441.678l.42.052.376-.085.297-.216.19-.323.069-.4-.061-.45-.182-.45-.289-.416-.368-.347-.421-.237-.431-.117-.403.017-.336.15-.252.27-.126.368-.008.43.124.455.24.438.333.385.4.293.428.183M478.608 471.172l.448.061.4-.089.324-.213.216-.323.084-.41-.05-.457-.177-.465-.297-.424-.385-.36-.434-.25-.457-.118-.427.013-.37.151-.27.276-.153.372-.019.432.112.47.247.451.344.394.41.305.454.184M284.166 406.672l-2.359 1.83M283.03 426.398a.287.287 0 0 0 .155.272M395.952 391.651h0l-.041-.025-.035-.036-.028-.056-.019-.068-.008-.076M636.677 562.335a1.264 1.264 0 0 0-.252.745M638.661 560.12l-1.983 2.212M638.901 560.31l-.003-.083-.013-.072-.023-.056-.029-.037-.033-.015-.044.003-.05.023-.045.048" style="fill:none;stroke:#00ff4a;stroke-width:.999997;stroke-linecap:round;stroke-linejoin:round;stroke-miterlimit:500;stroke-dasharray:none;stroke-opacity:1;visibility:visible"/><path d="m638.708 578.048.193-17.739M638.457 578.792c.159-.213.248-.476.25-.743M636.486 581.021l1.973-2.23" style="fill:none;stroke:#00ff4a;stroke-width:1.73466;stroke-linecap:round;stroke-linejoin:round;stroke-miterlimit:500;stroke-dasharray:none;stroke-opacity:1;visibility:visible"/><path d="m636.246 580.836.003.085.013.071.02.052.032.037.036.012.041-.005.048-.023.047-.044M636.426 563.078l-350.174-99.197M636.426 563.078l-.18 17.759M286.5 463.204a.847.847 0 0 0-.25.678" style="fill:none;stroke:#00ff4a;stroke-width:.999997;stroke-linecap:round;stroke-linejoin:round;stroke-miterlimit:500;stroke-dasharray:none;stroke-opacity:1;visibility:visible"/><path d="m287.683 480.587 348.562 100.25" style="fill:none;stroke:#00ff4a;stroke-width:1.73466;stroke-linecap:round;stroke-linejoin:round;stroke-miterlimit:500;stroke-dasharray:none;stroke-opacity:1;visibility:visible"/><path d="m286.25 463.88 1.432 16.707M593.713 559.723l.465.197.431.314.344.396.24.454.101.462-.03.433-.174.357-.294.263-.39.136-.453.005-.475-.137-.45-.261-.391-.362-.297-.43-.175-.454-.032-.457.104-.399.235-.317.344-.2.428-.072.469.072M373.367 496.834l.424.179.392.292.327.382.236.428.122.438-.006.417-.131.359-.243.254-.332.14-.398.007-.424-.123-.415-.241-.36-.337-.285-.406-.18-.444-.058-.433.068-.387.188-.309.29-.199.372-.078.413.061M480.484 527.404l.444.19.41.302.337.392.237.437.113.452-.014.426-.156.357-.266.256-.361.139-.423.004-.45-.126-.431-.25-.375-.351-.288-.417-.181-.451-.048-.445.085-.394.214-.308.318-.202.394-.072.441.061M288.817 461.32l-2.315 1.883M287.682 480.588a.263.263 0 0 0 .147.256M286.25 463.88l-140.868-39.905" style="fill:none;stroke:#00ff4a;stroke-width:.999997;stroke-linecap:round;stroke-linejoin:round;stroke-miterlimit:500;stroke-dasharray:none;stroke-opacity:1;visibility:visible"/><path d="M145.634 423.328a.732.732 0 0 0-.25.648" style="fill:none;stroke:#00ff4a;stroke-width:1.73466;stroke-linecap:round;stroke-linejoin:round;stroke-miterlimit:500;stroke-dasharray:none;stroke-opacity:1;visibility:visible"/><path d="M286.5 463.204a.847.847 0 0 0-.25.678M288.817 461.32l-2.315 1.883M287.682 480.588a.256.256 0 0 0 .147.256" style="fill:none;stroke:#00ff4a;stroke-width:.999997;stroke-linecap:round;stroke-linejoin:round;stroke-miterlimit:500;stroke-dasharray:none;stroke-opacity:1;visibility:visible"/><path d="m145.383 423.975 2.001 16.261" style="fill:none;stroke:#00ff4a;stroke-width:1.73466;stroke-linecap:round;stroke-linejoin:round;stroke-miterlimit:500;stroke-dasharray:none;stroke-opacity:1;visibility:visible"/><path d="m175.908 443.133.37.043.325-.079.248-.197.145-.302.04-.378-.075-.414-.185-.424-.273-.39-.339-.32-.379-.226-.384-.106-.348.016-.29.14-.202.25-.092.346.019.404.13.424.233.408.308.358.365.276.384.171M272.132 470.667l.39.05.346-.077.267-.204.169-.3.056-.384-.07-.425-.18-.432-.282-.399-.35-.328-.394-.233-.404-.117-.37.012-.313.145-.22.25-.116.346.01.41.126.437.234.418.321.367.375.29.405.174" style="fill:none;stroke:#00ff4a;stroke-width:.999997;stroke-linecap:round;stroke-linejoin:round;stroke-miterlimit:500;stroke-dasharray:none;stroke-opacity:1;visibility:visible"/><path d="m148.056 421.566-2.421 1.76" style="fill:none;stroke:#00ff4a;stroke-width:1.73466;stroke-linecap:round;stroke-linejoin:round;stroke-miterlimit:500;stroke-dasharray:none;stroke-opacity:1;visibility:visible"/><path d="M147.384 440.238a.268.268 0 0 0 .16.252M395.821 391.39l.008.077.019.067.028.056.033.037.043.024M281.553 409.188l-142.714-38.41" style="fill:none;stroke:#00ff4a;stroke-width:.999997;stroke-linecap:round;stroke-linejoin:round;stroke-miterlimit:500;stroke-dasharray:none;stroke-opacity:1;visibility:visible"/><path d="M139.092 370.122a.748.748 0 0 0-.254.658" style="fill:none;stroke:#00ff4a;stroke-width:1.73466;stroke-linecap:round;stroke-linejoin:round;stroke-miterlimit:500;stroke-dasharray:none;stroke-opacity:1;visibility:visible"/><path d="M283.03 426.398a.283.283 0 0 0 .155.272M281.807 408.504a.84.84 0 0 0-.254.686M281.553 409.188l1.477 17.208M284.166 406.672l-2.359 1.83" style="fill:none;stroke:#00ff4a;stroke-width:.999997;stroke-linecap:round;stroke-linejoin:round;stroke-miterlimit:500;stroke-dasharray:none;stroke-opacity:1;visibility:visible"/><path d="m138.837 370.778 2.059 16.733" style="fill:none;stroke:#00ff4a;stroke-width:1.73466;stroke-linecap:round;stroke-linejoin:round;stroke-miterlimit:500;stroke-dasharray:none;stroke-opacity:1;visibility:visible"/><path d="m169.141 384.446.39.163.367.278.319.364.233.42.135.434.02.417-.099.356-.202.264-.294.153-.352.022-.385-.104-.383-.224-.348-.328-.277-.395-.187-.432-.078-.427.038-.386.151-.318.25-.21.326-.09.376.043M266.757 410.86l.412.176.383.285.324.379.24.425.126.442.007.422-.112.362-.225.27-.314.151-.378.021-.407-.109-.4-.233-.357-.335-.283-.404-.187-.443-.066-.437.05-.399.171-.316.272-.213.347-.088.397.044" style="fill:none;stroke:#00ff4a;stroke-width:.999997;stroke-linecap:round;stroke-linejoin:round;stroke-miterlimit:500;stroke-dasharray:none;stroke-opacity:1;visibility:visible"/><path d="m141.559 368.41-2.468 1.71" style="fill:none;stroke:#00ff4a;stroke-width:1.73466;stroke-linecap:round;stroke-linejoin:round;stroke-miterlimit:500;stroke-dasharray:none;stroke-opacity:1;visibility:visible"/><path d="M140.896 387.512a.299.299 0 0 0 .174.268M289.507 348.118a.83.83 0 0 0 .548-.113M635.83 562.093a.792.792 0 0 0 .755-.133M638.073 560.303l-1.485 1.656M176.51 432.068a.885.885 0 0 0 .7-.108M616.31 556.375a.36.36 0 0 0 .312.282M179.012 430.617l-1.803 1.34M692.129 394.567l-93.441 96.15" style="fill:none;stroke:#00ff4a;stroke-width:.999997;stroke-linecap:round;stroke-linejoin:round;stroke-miterlimit:500;stroke-dasharray:none;stroke-opacity:1;visibility:visible"/><path d="m690.39 465.361 1.739-69.825" style="fill:none;stroke:#00ff4a;stroke-width:1.73466;stroke-linecap:round;stroke-linejoin:round;stroke-miterlimit:500;stroke-dasharray:none;stroke-opacity:1;visibility:visible"/><path d="m598.697 513.005.019 35.721M692.129 394.567l-4.795-1.148M598.687 490.718l-5.05-1.356" style="fill:none;stroke:#00ff4a;stroke-width:.999997;stroke-linecap:round;stroke-linejoin:round;stroke-miterlimit:500;stroke-dasharray:none;stroke-opacity:1;visibility:visible"/><path d="m687.335 393.418-93.696 95.944M593.68 511.634l.068 35.687" style="fill:none;stroke:#00ff4a;stroke-width:1.73466;stroke-linecap:round;stroke-linejoin:round;stroke-miterlimit:500;stroke-dasharray:none;stroke-opacity:1;visibility:visible"/><path d="M690.272 465.663a.472.472 0 0 0 .117-.3M582.422 368.323l-99.021 91.474" style="fill:none;stroke:#00ff4a;stroke-width:.999997;stroke-linecap:round;stroke-linejoin:round;stroke-miterlimit:500;stroke-dasharray:none;stroke-opacity:1;visibility:visible"/><path d="m582.755 437.777-.333-68.587" style="fill:none;stroke:#00ff4a;stroke-width:1.73466;stroke-linecap:round;stroke-linejoin:round;stroke-miterlimit:500;stroke-dasharray:none;stroke-opacity:1;visibility:visible"/><path d="m484.098 481.643 1.12 35.032M582.422 368.323l-4.552-1.09M483.4 459.797l-4.768-1.277" style="fill:none;stroke:#00ff4a;stroke-width:.999997;stroke-linecap:round;stroke-linejoin:round;stroke-miterlimit:500;stroke-dasharray:none;stroke-opacity:1;visibility:visible"/><path d="m577.268 367.856-98.636 90.662M479.356 480.348l1.164 35.001" style="fill:none;stroke:#00ff4a;stroke-width:1.73466;stroke-linecap:round;stroke-linejoin:round;stroke-miterlimit:500;stroke-dasharray:none;stroke-opacity:1;visibility:visible"/><path d="M582.624 438.108a.45.45 0 0 0 .13-.33M478.322 343.422l-103.884 87.15" style="fill:none;stroke:#00ff4a;stroke-width:.999997;stroke-linecap:round;stroke-linejoin:round;stroke-miterlimit:500;stroke-dasharray:none;stroke-opacity:1;visibility:visible"/><path d="m480.526 411.582-1.955-67.341" style="fill:none;stroke:#00ff4a;stroke-width:1.73466;stroke-linecap:round;stroke-linejoin:round;stroke-miterlimit:500;stroke-dasharray:none;stroke-opacity:1;visibility:visible"/><path d="m375.75 451.997 2.103 34.363M478.322 343.422l-4.317-1.036M374.437 430.573l-4.512-1.208" style="fill:none;stroke:#00ff4a;stroke-width:.999997;stroke-linecap:round;stroke-linejoin:round;stroke-miterlimit:500;stroke-dasharray:none;stroke-opacity:1;visibility:visible"/><path d="m473.532 342.8-103.605 86.564M371.264 450.771l2.141 34.33" style="fill:none;stroke:#00ff4a;stroke-width:1.73466;stroke-linecap:round;stroke-linejoin:round;stroke-miterlimit:500;stroke-dasharray:none;stroke-opacity:1;visibility:visible"/><path d="M480.39 411.927a.434.434 0 0 0 .134-.343M285.32 297.255l-111.802 79.434" style="fill:none;stroke:#00ff4a;stroke-width:.999997;stroke-linecap:round;stroke-linejoin:round;stroke-miterlimit:500;stroke-dasharray:none;stroke-opacity:1;visibility:visible"/><path d="m290.73 362.95-5.164-65.041M175.866 397.298l3.768 33.087" style="fill:none;stroke:#00ff4a;stroke-width:1.73466;stroke-linecap:round;stroke-linejoin:round;stroke-miterlimit:500;stroke-dasharray:none;stroke-opacity:1;visibility:visible"/><path d="m285.32 297.255-3.91-.935M173.519 376.688l-4.055-1.088" style="fill:none;stroke:#00ff4a;stroke-width:.999997;stroke-linecap:round;stroke-linejoin:round;stroke-miterlimit:500;stroke-dasharray:none;stroke-opacity:1;visibility:visible"/><path d="m280.765 296.947-111.302 78.652" style="fill:none;stroke:#00ff4a;stroke-width:1.73466;stroke-linecap:round;stroke-linejoin:round;stroke-miterlimit:500;stroke-dasharray:none;stroke-opacity:1;visibility:visible"/><path d="M290.591 363.317a.406.406 0 0 0 .139-.364M379.413 319.764 271.295 402.91" style="fill:none;stroke:#00ff4a;stroke-width:.999997;stroke-linecap:round;stroke-linejoin:round;stroke-miterlimit:500;stroke-dasharray:none;stroke-opacity:1;visibility:visible"/><path d="m383.3 386.67-3.632-65.956" style="fill:none;stroke:#00ff4a;stroke-width:1.73466;stroke-linecap:round;stroke-linejoin:round;stroke-miterlimit:500;stroke-dasharray:none;stroke-opacity:1;visibility:visible"/><path d="m273.152 423.92 2.984 33.716M379.413 319.764l-4.104-.984M271.294 402.91l-4.27-1.147" style="fill:none;stroke:#00ff4a;stroke-width:.999997;stroke-linecap:round;stroke-linejoin:round;stroke-miterlimit:500;stroke-dasharray:none;stroke-opacity:1;visibility:visible"/><path d="m374.387 319.274-107.362 82.49M268.901 422.755l3.019 33.688" style="fill:none;stroke:#00ff4a;stroke-width:1.73466;stroke-linecap:round;stroke-linejoin:round;stroke-miterlimit:500;stroke-dasharray:none;stroke-opacity:1;visibility:visible"/><path d="M383.166 387.029a.41.41 0 0 0 .133-.36M638.661 560.12l-.528-.148M635.832 562.092l.383-38.819" style="fill:none;stroke:#00ff4a;stroke-width:.999997;stroke-linecap:round;stroke-linejoin:round;stroke-miterlimit:500;stroke-dasharray:none;stroke-opacity:1;visibility:visible"/><path d="m638.073 560.303.407-38.435" style="fill:none;stroke:#00ff4a;stroke-width:1.73466;stroke-linecap:round;stroke-linejoin:round;stroke-miterlimit:500;stroke-dasharray:none;stroke-opacity:1;visibility:visible"/><path d="m173.155 396.558 4.055 35.399" style="fill:none;stroke:#00ff4a;stroke-width:.999997;stroke-linecap:round;stroke-linejoin:round;stroke-miterlimit:500;stroke-dasharray:none;stroke-opacity:1;visibility:visible"/><path d="m157.106 392.163 4.23 35.61M610.531 552.065l5.83-6.328M498.206 520.345l27.865-27.213M543.48 476.133l39.276-38.356M340.378 421.653l42.921-34.984M145.382 423.975l15.458 1.103" style="fill:none;stroke:#00ff4a;stroke-width:1.73466;stroke-linecap:round;stroke-linejoin:round;stroke-miterlimit:500;stroke-dasharray:none;stroke-opacity:1;visibility:visible"/><path d="m179.012 430.617 16.607 4.281" style="fill:none;stroke:#00ff4a;stroke-width:.999997;stroke-linecap:round;stroke-linejoin:round;stroke-miterlimit:500;stroke-dasharray:none;stroke-opacity:1;visibility:visible"/><path d="m288.817 461.32 2.473.593" style="fill:none;stroke:#00ff4a;stroke-width:1.73466;stroke-linecap:round;stroke-linejoin:round;stroke-miterlimit:500;stroke-dasharray:none;stroke-opacity:1;visibility:visible"/><path d="m283.03 426.396-9.878-2.476M286.25 463.88l-10.114-6.244" style="fill:none;stroke:#00ff4a;stroke-width:.999997;stroke-linecap:round;stroke-linejoin:round;stroke-miterlimit:500;stroke-dasharray:none;stroke-opacity:1;visibility:visible"/><path d="m283.03 426.396-14.129-3.641M286.25 463.88l-14.33-7.437" style="fill:none;stroke:#00ff4a;stroke-width:1.73466;stroke-linecap:round;stroke-linejoin:round;stroke-miterlimit:500;stroke-dasharray:none;stroke-opacity:1;visibility:visible"/><path d="m271.92 456.443.212 14.224" style="fill:none;stroke:#00ff4a;stroke-width:.999997;stroke-linecap:round;stroke-linejoin:round;stroke-miterlimit:500;stroke-dasharray:none;stroke-opacity:1;visibility:visible"/></svg>