<svg xmlns="http://www.w3.org/2000/svg" baseProfile="full" height="1122.52" preserveAspectRatio="xMinYMin meet" style="width:912px;height:1303px" width="793.701" xml:space="preserve"><path d="m650.372 820.994-346.62 193.357M303.895 1020.206l-.142-5.856M303.751 1014.35l-120.7-71.858" style="fill:none;stroke:red;stroke-width:.999997;stroke-linecap:round;stroke-linejoin:round;stroke-miterlimit:4;stroke-dasharray:none;stroke-opacity:1;visibility:visible"/><path d="m650.021 826.13-346.124 194.076M650.021 826.129l.352-5.135M183.049 942.491 445.05 813.29M445.052 813.289l86.992-42.901 118.329 50.606M303.895 1020.206l-120.517-72.084M183.38 948.12l-.331-5.629" style="fill:none;stroke:red;stroke-width:1.99999;stroke-linecap:round;stroke-linejoin:round;stroke-miterlimit:4;stroke-dasharray:none;stroke-opacity:1;visibility:visible"/><path d="m415.227 501.906-6.319-222.865" style="fill:none;stroke:#00ff4a;stroke-width:.999997;stroke-linecap:round;stroke-linejoin:round;stroke-miterlimit:4;stroke-dasharray:none;stroke-opacity:1;visibility:visible" visibility="hidden"/><path d="M409.357 498.602 402.7 276.256l1.056-.408M421.797 498.553l-2.101-79.386M421.797 498.553l-6.57 3.353M415.227 501.906l-5.868-3.304" style="fill:none;stroke:#00ff4a;stroke-width:1.99999;stroke-linecap:round;stroke-linejoin:round;stroke-miterlimit:4;stroke-dasharray:none;stroke-opacity:1;visibility:visible" visibility="hidden"/><path d="m374.235 682.414-4.895 2.002M369.34 684.414v.962M186.93 758.956l-5.874 2.396M181.056 761.352l.064 1.03M531.496 618.155l-4.132 1.692M527.367 619.845l-.038.89M537.899 613.775 173.373 762.382M537.899 613.775l-.3 8.032" style="fill:none;stroke:#00ff4a;stroke-width:.999997;stroke-linecap:round;stroke-linejoin:round;stroke-miterlimit:4;stroke-dasharray:none;stroke-opacity:1;visibility:visible" visibility="hidden"/><path d="m492.73 737.246 5.997-2.788M310.173 821.827l6.992-3.253" style="fill:none;stroke:#00ff4a;stroke-width:1.99999;stroke-linecap:round;stroke-linejoin:round;stroke-miterlimit:4;stroke-dasharray:none;stroke-opacity:1;visibility:visible" visibility="hidden"/><path d="M669.425 660.854 531.54 611.591" style="fill:none;stroke:#00ff4a;stroke-width:.999997;stroke-linecap:round;stroke-linejoin:round;stroke-miterlimit:4;stroke-dasharray:none;stroke-opacity:1;visibility:visible" visibility="hidden"/><path d="m648.748 664.748 13.497-6.26" style="fill:none;stroke:#00ff4a;stroke-width:1.99999;stroke-linecap:round;stroke-linejoin:round;stroke-miterlimit:4;stroke-dasharray:none;stroke-opacity:1;visibility:visible" visibility="hidden"/><path d="m536.793 620.62-.029.9M379.482 685.188v.06M379.482 685.25v.9M192.04 762.068l.052 1.032M168.332 760.777l.16.13.161.092.194.045h.185l.193-.031.173-.091.167-.13.153-.16.12-.194.104-.218.082-.234.026-.252.014-.262-.022-.246-.057-.241-.07-.223-.121-.196-.135-.166-.149-.131-.176-.089-.182-.056-.182.005-.192.039-.178.089-.162.117-.154.17-.134.186-.102.227-.066.235-.048.252-.008.26.024.246.049.246.091.22.103.198.139.163M187.117 762.744l-.143-.091-.106-.09-.06-.116-.02-.111.02-.12.072-.107.114-.109.146-.1.184-.083.206-.073.226-.062.25-.03.259-.022h.245l.247.022.23.03.204.062.177.073.144.083.104.1.073.109.01.108-.021.119-.074.112-.104.104-.152.1-.175.093-.219.073-.226.05-.25.045-.256.017h-.246l-.25-.018-.226-.043-.208-.05-.175-.076M191.184 761.073l.226.135.208.144.166.156.124.156.08.172.032.126M191.184 761.073l-4.254-2.117M190.71 764.512l.28-.134.255-.136.23-.145.195-.153.155-.164.124-.166.081-.174.052-.164.01-.176M185.362 764.512l-4.245-2.128M185.362 764.512l.268.125.3.103.32.092.34.073.372.05.372.043.39.009h.393l.403-.009.393-.042.392-.051.372-.083.361-.082.34-.103.323-.125M190.7 764.512h.01M378.458 687.161l.226-.103.21-.114.173-.112.143-.135.113-.133.084-.135.053-.133.022-.146M373.595 687.161l.27.104.288.081.311.084.328.062.343.042.35.032.35.02h.361l.362-.02.352-.032.34-.042.33-.063.31-.072.29-.092.27-.093M378.45 687.172l.008-.01M373.595 687.161l-4.253-1.785M375.104 685.581l-.144-.07-.116-.084-.073-.095-.04-.09v-.092l.04-.094.084-.096.113-.082.156-.072.176-.06.195-.041.217-.042.228-.009h.236l.228.019.206.031.208.041.176.061.142.072.112.083.075.095.043.094v.091l-.043.103-.081.084-.115.082-.157.071-.172.061-.196.054-.218.03-.226.02h-.239l-.219-.02-.214-.03-.207-.054-.175-.06M378.488 684.198l.24.104.203.123.176.136.148.133.112.136.073.155.031.143M378.488 684.198l-4.252-1.784M535.988 622.272l.195-.09.166-.096.143-.102.115-.112.083-.116.05-.112.023-.124M531.54 622.264l.257.08.275.085.303.062.308.052.321.042.332.018.32.02h.33l.328-.007.322-.031.299-.042.288-.043.281-.07.245-.074.227-.084M535.976 622.272h.013M531.54 622.264l-4.21-1.528M532.85 620.839l-.146-.063-.123-.073-.081-.073-.055-.082-.02-.084.035-.07.049-.084.091-.061.125-.065.155-.048.177-.041.195-.032.205-.008h.207l.208.008.207.032.186.04.175.05.145.064.126.074.077.07.053.083.012.083-.021.084-.05.07-.094.072-.127.062-.154.053-.175.04-.196.02-.207.023h-.205l-.217-.023-.197-.03-.195-.04-.166-.05M535.709 619.671l.235.092.208.105.184.102.156.125.128.113.088.125.055.122.021.09M535.71 619.67l-4.215-1.516M492.968 735.006l-.177-.073-.155-.083-.115-.092-.08-.09-.043-.108-.013-.102.046-.104.073-.092.101-.09.14-.078M492.745 734.094l.191-.07.207-.05.227-.042.237-.012h.248l.245.02.228.045.217.048.198.073.164.084.125.102.09.106.043.103v.11l-.042.104-.08.103-.126.084-.166.082-.187.061M648.926 662.806l-.125-.032-.113-.038M648.689 662.734l-.164-.074-.137-.072-.1-.082-.068-.093-.027-.095.012-.08.05-.082.081-.083.123-.061.155-.063.18-.041.196-.03.215-.022h.219l.224.022.217.03.21.041.182.063.167.07.132.074.096.092.07.081.022.093-.012.084-.048.092-.084.074-.124.072-.156.05-.172.043-.2.028M647.034 661.352l.25-.083.278-.072.3-.064.311-.041.33-.03.339-.022h.354l.351.01.348.03.339.045.344.06.316.073.312.083.291.093M651.497 661.434l2.47.886M310.626 819.234l-.176-.083-.135-.105-.104-.103-.058-.12-.023-.117.023-.123.057-.125.105-.113.136-.103.175-.092M310.626 818.15l.208-.083.236-.06.257-.053.26-.019h.27l.257.019.248.041.227.059.194.084.167.095.132.112.083.122.042.127-.01.123-.051.122-.093.128-.146.114-.173.099M298.371 834.926l-141.39-71.912M298.61 844.722l-.24-9.797M298.371 834.926 675.38 658.378" style="fill:none;stroke:#00ff4a;stroke-width:.999997;stroke-linecap:round;stroke-linejoin:round;stroke-miterlimit:4;stroke-dasharray:none;stroke-opacity:1;visibility:visible" visibility="hidden"/><path d="m289.929 822.61-116.875-58.805M298.609 844.722 157.56 772.306M298.61 844.722l376.159-177.973M647.034 661.352 537.6 621.808M675.664 650.313l-.896 16.437M661.41 653.405l-116.706-41.53M530.84 611.641 173.373 756.377M156.81 751.98l.31 11.676M157.12 763.656l.439 8.65M579.772 696.805l68.973-32.057M498.728 734.457l81.044-37.652M409.834 775.765l82.895-38.519M307 823.627l102.834-47.862M537.6 621.808 182.21 768.24" style="fill:none;stroke:#00ff4a;stroke-width:1.99999;stroke-linecap:round;stroke-linejoin:round;stroke-miterlimit:4;stroke-dasharray:none;stroke-opacity:1;visibility:visible" visibility="hidden"/><path d="m307.695 819.862.028.199.075.196.102.186.157.184.196.18.226.159.268.148M312.733 819.18l-.196.084-.227.061-.24.052-.255.023-.26.007-.257-.006-.239-.046-.226-.048-.208-.073M308.975 817.314l.319-.134.35-.117.372-.1.394-.085.39-.058.417-.046.42-.016h.417l.409.017.403.031.392.064.372.08.364.104.316.113.303.135M314.61 817.303l2.552 1.271M307.673 818.78l.022-.196.052-.207.114-.195.142-.187.188-.188.227-.173.256-.167.29-.144M308.963 817.323l.014-.009M308.747 821.114l1.423.712M307.673 818.78l.022 1.083M490.159 734.436l-.024 1.001M646.15 662.164l-.063.94M490.136 735.438l.012.166.064.165.09.164.138.167.163.144.21.156.242.134.271.123M494.564 735.045l-.214.052-.227.03-.239.013-.237-.012-.248-.022-.227-.038-.204-.063M491.108 733.405l.267-.113.29-.092.32-.082.328-.074.362-.054.361-.029.372-.02h.383l.373.02.367.03.376.052.35.075.328.083.325.09.283.115M496.196 733.405l2.53 1.053M490.159 734.436l.028-.166.062-.165.094-.152.133-.148.179-.144.202-.133.243-.123M491.099 733.405h.01M491.325 736.656l1.405.589M649.948 662.866l-.195.024h-.217l-.207-.01-.204-.033-.2-.041M646.85 661.424l.083-.044.103-.029M646.15 662.164l.02-.132.072-.135.092-.135.134-.112.177-.114.195-.102M646.84 661.434l.01-.01M646.088 663.104l.01.136.039.144.084.133.113.136.146.133.176.126.217.122.237.112.256.106M647.366 664.253l1.38.495" style="fill:none;stroke:#00ff4a;stroke-width:.999997;stroke-linecap:round;stroke-linejoin:round;stroke-miterlimit:4;stroke-dasharray:none;stroke-opacity:1;visibility:visible" visibility="hidden"/><path d="M310.626 819.234h.01l.012-.01" style="fill:none;stroke:#00ff4a;stroke-width:.999997;stroke-linecap:round;stroke-linejoin:round;stroke-miterlimit:4;stroke-dasharray:none;stroke-opacity:1;visibility:visible" visibility="hidden"/><path d="M165.777 748.948v5.774" style="fill:none;stroke:#00ff4a;stroke-width:1.99999;stroke-linecap:round;stroke-linejoin:round;stroke-miterlimit:4;stroke-dasharray:none;stroke-opacity:1;visibility:visible" visibility="hidden"/><path d="m172.773 756.537-.15 6.477M172.62 763.014l-8.081 3.43-.042-11.242" style="fill:none;stroke:#00ff4a;stroke-width:.999997;stroke-linecap:round;stroke-linejoin:round;stroke-miterlimit:4;stroke-dasharray:none;stroke-opacity:1;visibility:visible" visibility="hidden"/><path d="m172.874 752.646-.101 3.89" style="fill:none;stroke:#00ff4a;stroke-width:1.99999;stroke-linecap:round;stroke-linejoin:round;stroke-miterlimit:4;stroke-dasharray:none;stroke-opacity:1;visibility:visible" visibility="hidden"/><path d="m166.125 754.592 6.155-2.304" style="fill:none;stroke:#00ff4a;stroke-width:.999997;stroke-linecap:round;stroke-linejoin:round;stroke-miterlimit:4;stroke-dasharray:none;stroke-opacity:1;visibility:visible" visibility="hidden"/><path d="M290.947 820.555v10.091M165.777 748.658l6.75 3.5M156.81 751.69l7.688 3.51M164.498 755.2l1.628-.607" style="fill:none;stroke:#00ff4a;stroke-width:1.99999;stroke-linecap:round;stroke-linejoin:round;stroke-miterlimit:4;stroke-dasharray:none;stroke-opacity:1;visibility:visible" visibility="hidden"/><path d="m299.629 828.46 6.401 2.62M299.5 818.15v9.996" style="fill:none;stroke:#00ff4a;stroke-width:.999997;stroke-linecap:round;stroke-linejoin:round;stroke-miterlimit:4;stroke-dasharray:none;stroke-opacity:1;visibility:visible" visibility="hidden"/><path d="m299.595 818.247 6.44 3.34M290.947 820.555l7.334 3.075M290.947 820.555l8.554-2.404M306.035 821.587l-.004 9.495M298.371 834.729l-.09-11.102" style="fill:none;stroke:#00ff4a;stroke-width:1.99999;stroke-linecap:round;stroke-linejoin:round;stroke-miterlimit:4;stroke-dasharray:none;stroke-opacity:1;visibility:visible" visibility="hidden"/><path d="M662.245 653.37v5.117" style="fill:none;stroke:#00ff4a;stroke-width:.999997;stroke-linecap:round;stroke-linejoin:round;stroke-miterlimit:4;stroke-dasharray:none;stroke-opacity:1;visibility:visible" visibility="hidden"/><path d="M662.245 650.112v3.257" style="fill:none;stroke:#00ff4a;stroke-width:1.99999;stroke-linecap:round;stroke-linejoin:round;stroke-miterlimit:4;stroke-dasharray:none;stroke-opacity:1;visibility:visible" visibility="hidden"/><path d="m669.425 655.855 5.792 2.5M669.345 648.116l.079 7.923" style="fill:none;stroke:#00ff4a;stroke-width:.999997;stroke-linecap:round;stroke-linejoin:round;stroke-miterlimit:4;stroke-dasharray:none;stroke-opacity:1;visibility:visible" visibility="hidden"/><path d="m669.425 648.195 6.24 2.118M662.245 650.112l7.18 2.508M662.245 650.112l7.101-1.996M669.345 660.564l.079-7.944" style="fill:none;stroke:#00ff4a;stroke-width:1.99999;stroke-linecap:round;stroke-linejoin:round;stroke-miterlimit:4;stroke-dasharray:none;stroke-opacity:1;visibility:visible" visibility="hidden"/><path d="m540.07 609.487.134.109.136.076.16.037.155.003.162-.03.146-.075.137-.109.13-.13.1-.165.09-.183.065-.196.023-.21.012-.219-.019-.206-.048-.202-.06-.187-.098-.165-.115-.139-.124-.108-.147-.075-.152-.048-.154.005-.16.031-.148.076-.139.099-.127.141-.109.156-.09.19-.053.196-.04.213-.006.216.018.205.043.207.076.184.085.166.117.137" style="fill:none;stroke:#00ff4a;stroke-width:.999997;stroke-linecap:round;stroke-linejoin:round;stroke-miterlimit:4;stroke-dasharray:none;stroke-opacity:1;visibility:visible" visibility="hidden"/><path d="m537.75 599.98.184 4.439M531.432 603.245l.435 8.156" style="fill:none;stroke:#00ff4a;stroke-width:1.99999;stroke-linecap:round;stroke-linejoin:round;stroke-miterlimit:4;stroke-dasharray:none;stroke-opacity:1;visibility:visible" visibility="hidden"/><path d="m543.661 611.36-6.766 2.872M536.895 614.232l-.035-9.413" style="fill:none;stroke:#00ff4a;stroke-width:.999997;stroke-linecap:round;stroke-linejoin:round;stroke-miterlimit:4;stroke-dasharray:none;stroke-opacity:1;visibility:visible" visibility="hidden"/><path d="m543.873 602.272-.21 9.087" style="fill:none;stroke:#00ff4a;stroke-width:1.99999;stroke-linecap:round;stroke-linejoin:round;stroke-miterlimit:4;stroke-dasharray:none;stroke-opacity:1;visibility:visible" visibility="hidden"/><path d="m538.403 604.241 4.972-1.861" style="fill:none;stroke:#00ff4a;stroke-width:.999997;stroke-linecap:round;stroke-linejoin:round;stroke-miterlimit:4;stroke-dasharray:none;stroke-opacity:1;visibility:visible" visibility="hidden"/><path d="m537.75 599.98 5.834 2.292M531.432 602.759l5.428 2.058M536.861 604.819l1.286-.482" style="fill:none;stroke:#00ff4a;stroke-width:1.99999;stroke-linecap:round;stroke-linejoin:round;stroke-miterlimit:4;stroke-dasharray:none;stroke-opacity:1;visibility:visible" visibility="hidden"/><path d="m191.184 761.073-4.067 1.671M185.362 764.512l1.755-1.769M373.595 687.161l1.509-1.58M373.595 687.161l1.509-1.579M531.495 618.154l1.355 2.685M531.54 622.264l1.309-1.424M648.688 662.736l5.279-.416" style="fill:none;stroke:#00ff4a;stroke-width:.999997;stroke-linecap:round;stroke-linejoin:round;stroke-miterlimit:4;stroke-dasharray:none;stroke-opacity:1;visibility:visible" visibility="hidden"/><path d="m290.947 820.555-1.018 2.055M543.584 602.272l1.12 9.603M310.626 818.15 307 823.627M190.701 764.512l-8.491 3.728M298.37 834.925l-7.423-4.279" style="fill:none;stroke:#00ff4a;stroke-width:1.99999;stroke-linecap:round;stroke-linejoin:round;stroke-miterlimit:4;stroke-dasharray:none;stroke-opacity:1;visibility:visible" visibility="hidden"/></svg>