<svg xmlns="http://www.w3.org/2000/svg" baseProfile="full" height="1122.52" preserveAspectRatio="xMinYMin meet" style="width:912px;height:1303px" width="793.701" xml:space="preserve"><path d="m391.096 430.642-.247.064-.222.075-.191.094-.17.106-.135.106-.096.13-.066.117-.017.127.017.125.052.117.099.116.136.104.161.1.19.084.222.063.243.055.255.028.265.021h.276l.276-.021.263-.028M392.378 431.65h.01M392.131 431.512l.247.139M391.817 431.436h.061l.066.01.053.015.04.01.055.02.038.021" style="fill:none;stroke:red;stroke-width:.666665;stroke-linecap:round;stroke-linejoin:round;stroke-miterlimit:4;stroke-dasharray:none;stroke-opacity:1;visibility:visible"/><path d="m391.444 431.524.055-.032.052-.02.052-.01.054-.015.055-.01h.072M391.127 431.63l.316-.107M390.829 431.48l.299.15M391.233 431.173l-.01.03-.022.035-.035.028-.028.026-.042.028-.023.013-.03.01-.031.02-.183.115M391.115 431.026l.03.01.034.02.021.023.022.02.01.02v.034M390.925 430.94l.19.084M391.298 430.781l-.076.024-.065.03-.052.02-.052.02-.064.034-.063.03M391.541 430.834l-.244-.053M391.856 430.886l-.06-.01h-.063l-.054-.013-.043-.006-.055-.011-.04-.012M392.23 430.834l-.053.01-.054.02h-.052l-.053.013h-.064l-.063.009M392.365 430.805l-.136.028" style="fill:none;stroke:red;stroke-width:.666665;stroke-linecap:round;stroke-linejoin:round;stroke-miterlimit:4;stroke-dasharray:none;stroke-opacity:1;visibility:visible"/><path d="m616.948 331.696 8.312 3.299M640.899 341.198l82.385 32.636" style="fill:none;stroke:red;stroke-width:.999997;stroke-linecap:round;stroke-linejoin:round;stroke-miterlimit:4;stroke-dasharray:none;stroke-opacity:1;visibility:visible"/><path d="m395.21 525.774-.267-.015h-.276l-.276.026-.262.041-.256.063-.234.076-.214.094-.18.108-.147.126-.115.124-.076.14-.041.137v.14l.053.128.083.139.116.113.161.108.19.092.212.076.246.065.254.04.262.023h.279l.276-.023.265-.04M395.23 526.973h.01M394.998 526.833l.232.139" style="fill:none;stroke:red;stroke-width:.666665;stroke-linecap:round;stroke-linejoin:round;stroke-miterlimit:4;stroke-dasharray:none;stroke-opacity:1;visibility:visible"/><path d="M394.678 526.749h.065l.066.012.049.008.044.008.052.025.044.031M394.317 526.833l.056-.03.05-.026.054-.01.052-.007.055-.011h.065M394.011 526.95l.305-.115M393.725 526.779l.287.17M394.105 526.462l-.008.03-.024.034-.02.028-.041.036-.043.032-.01.008-.033.012-.032.023-.169.112M393.989 526.292l.044.023.03.02.022.021.013.02.007.035.013.028M393.81 526.207l.179.083M394.168 526.04l-.063.019-.061.033-.055.02-.053.032-.064.035-.063.028M394.412 526.102l-.245-.063M394.722 526.154l-.065-.01h-.063l-.041-.013-.055-.005-.041-.015-.044-.009M395.084 526.102l-.056.01-.056.014-.04.007-.053.01h-.062l-.065.011M395.22 526.059l-.136.043M394.118 526.736v-.02M394.118 526.716h0" style="fill:none;stroke:red;stroke-width:.666665;stroke-linecap:round;stroke-linejoin:round;stroke-miterlimit:4;stroke-dasharray:none;stroke-opacity:1;visibility:visible"/><path d="m618.94 251.231 108.596 39.113M391.906 436.271l.632.31M282.607 382.549l109.3 53.723M275.896 336.098l-.161-.087-.14-.096-.104-.094-.075-.107-.05-.116-.023-.105M278.481 337.305l-2.585-1.207M282.138 337.317l-.252.085-.277.076-.299.048-.305.044-.31.031-.316.021h-.309l-.307-.021-.297-.03-.275-.045-.266-.061-.231-.072-.213-.09M285.403 336.11l-3.265 1.205M286.378 335.205l-.01.128-.04.116-.086.125-.107.118-.137.12-.18.104-.19.094-.225.1M282.584 336.15l-.275.093-.296.075-.306.065-.331.051-.33.033-.338.011h-.328l-.33-.023-.307-.029-.296-.043-.276-.065-.254-.085-.222-.083-.194-.105-.16-.12-.116-.114-.085-.13-.041-.135v-.14l.041-.127.076-.134.116-.139.159-.128.181-.117.224-.118.253-.094.267-.095.295-.076.32-.061.317-.055.33-.032.337-.01h.328l.33.01.308.041.295.046.277.061.255.076.223.095.19.105.158.107.12.128.085.125.04.13v.135l-.04.138-.077.14-.116.124-.15.13-.189.128-.227.106-.241.105M459.9 268.331l-.193-.083-.159-.097-.13-.104-.094-.105-.05-.11-.022-.113M462.495 269.352l-2.596-1.023M465.831 269.363l-.219.075-.234.064-.252.05-.28.032-.275.032-.284.008h-.288l-.272-.017-.279-.023-.269-.041-.25-.053-.234-.062-.2-.077M468.58 268.355l-2.75 1.008M469.313 267.686l-.021.108-.044.107-.072.092-.12.106-.126.087-.169.084-.18.085M466.003 268.387l-.221.073-.255.066-.276.05-.284.044-.3.028-.304.012h-.3l-.305-.018-.286-.022-.292-.044-.262-.05-.24-.076-.224-.075-.192-.084-.167-.096-.13-.108-.098-.103-.07-.118-.022-.116.01-.106.042-.118.075-.115.117-.107.147-.108.181-.094.21-.084.235-.075.255-.064.265-.05.286-.043.296-.023.31-.012h.295l.299.012.297.032.276.044.263.053.242.063.222.072.205.085.159.1.136.102.096.104.064.12.032.114-.012.122-.04.105-.072.115-.123.104-.144.106-.184.098-.212.085M615.72 210.94l-.18-.079-.161-.068-.128-.089-.107-.08-.072-.1-.043-.081-.022-.096M618.295 211.818l-2.576-.879M621.377 211.83l-.187.064-.214.053-.222.042-.244.033-.254.02-.256.01h-.266l-.262-.01-.254-.03-.26-.034-.229-.043-.224-.052-.21-.066M623.71 210.973l-2.333.857M624.277 210.473l-.024.083-.052.097-.075.084-.105.085-.15.072-.16.079M621.36 210.989l-.204.067-.221.056-.244.049-.252.03-.267.023-.276.012h-.276l-.287-.012-.276-.029-.265-.033-.252-.054-.235-.052-.21-.064-.204-.074-.17-.086-.137-.082-.115-.098-.076-.094-.054-.098-.01-.104.02-.094.055-.098.085-.094.116-.087.148-.085.182-.063.198-.072.227-.053.232-.046.255-.028.273-.024.273-.009h.279l.276.01.279.023.261.04.255.043.233.053.224.075.19.073.173.076.133.096.12.096.083.091.042.099.01.093-.019.096-.056.096-.084.097-.115.082-.148.086-.169.071M287.483 336.287l-7.327 2.716M292.71 561.81l-12.553-222.806M466.587 479.472l-.72-60.641M615.019 409.17l1.421-57.13M616.782 338.692v-.05M625.144 211.247l-5.248 1.941M618.94 251.231l.956-38.043M470.714 309.1l-.047-4.612M470.714 309.1l148.226-57.87M470.298 268.587l-6.17 2.281M464.605 311.486l-.476-40.619M289.858 379.717l174.748-68.232" style="fill:none;stroke:red;stroke-width:.999997;stroke-linecap:round;stroke-linejoin:round;stroke-miterlimit:4;stroke-dasharray:none;stroke-opacity:1;visibility:visible"/><path d="m289.858 379.717-.275-4.95" style="fill:none;stroke:red;stroke-width:1.99999;stroke-linecap:round;stroke-linejoin:round;stroke-miterlimit:4;stroke-dasharray:none;stroke-opacity:1;visibility:visible"/><path d="m471.592 394.614 103.05-44.596M587.268 344.549l29.68-12.855" style="fill:none;stroke:red;stroke-width:.999997;stroke-linecap:round;stroke-linejoin:round;stroke-miterlimit:4;stroke-dasharray:none;stroke-opacity:1;visibility:visible"/><path d="m471.592 394.614-.052-4.992M612.93 260.743l5.841-2.304" style="fill:none;stroke:red;stroke-width:1.99999;stroke-linecap:round;stroke-linejoin:round;stroke-miterlimit:4;stroke-dasharray:none;stroke-opacity:1;visibility:visible"/><path d="m616.948 331.696 1.823-73.254M465.472 312.864l.01.861M469.886 311.139l-4.415 1.725M607.399 340.05l-.027.776M611.128 338.43l-3.73 1.62M302.887 472.537l.044.865M307.926 470.34l-5.039 2.195M466.503 401.348l.01.825M470.808 399.47l-4.305 1.877M297.947 378.412l.044.912M303.112 376.399l-5.165 2.013M609.271 256.605l-.01.805M613.079 255.113l-3.807 1.492M294.534 555.779l.01.083.011.086M296.919 553.767l-.137-.11-.16-.065-.171-.04-.19-.009-.19.03-.201.062-.19.107-.204.128-.178.149-.171.18-.157.201-.14.226-.106.221-.096.243-.052.233-.03.235-.012.221M294.873 556.552l.147.096.16.065.181.031.179-.012M294.84 471.114l80.242-34.723M391.433 429.308l.87-.373M405.94 423.029l59.672-25.83" style="fill:none;stroke:red;stroke-width:.999997;stroke-linecap:round;stroke-linejoin:round;stroke-miterlimit:4;stroke-dasharray:none;stroke-opacity:1;visibility:visible"/><path d="m294.84 471.114-.296-5.321M458.985 321.431l5.713-2.257" style="fill:none;stroke:red;stroke-width:1.99999;stroke-linecap:round;stroke-linejoin:round;stroke-miterlimit:4;stroke-dasharray:none;stroke-opacity:1;visibility:visible"/><path d="m465.613 397.2-5.672-2.585M465.613 397.2l-.915-78.026M280.157 339.002l-5.81-2.724M464.605 311.486l-5.79-2.407M616.948 331.696l-5.63-2.23M464.128 270.868l-5.841-2.31M618.94 251.231l-5.737-2.072M619.896 213.188l-5.803-1.983M616.769 256.449l.21.092.191.088.159.104.14.107.105.108.062.116.045.117M616.769 256.449l-3.69-1.336M615.662 257.486l-.136.053-.156.032-.172.022-.192.009h-.188l-.183-.01-.178-.02-.17-.046-.146-.04-.142-.052-.094-.064-.076-.065-.039-.074-.013-.074.033-.062.052-.077.087-.061.114-.054.14-.044.159-.029.177-.035.183-.009h.19l.182.02.18.024.167.03.161.05.125.056.096.067.076.062.042.072.01.064-.021.074-.065.065-.083.064-.12.052M612.94 258.747l.243.084.254.064.276.067.295.04.299.032.31.022.307.008h.305l.31-.008.294-.032.276-.041.274-.055.248-.06.23-.076.202-.086.181-.088.15-.106.114-.102.085-.108.055-.114.017-.117M612.94 258.747l-3.68-1.336M473.597 312.675l.21.104.193.11.16.115.114.116.096.128.052.135.014.073M473.597 312.675l-3.71-1.536M472.21 313.885l-.16.05-.183.034-.189.03-.203.013h-.21l-.202-.014-.192-.029-.166-.047-.152-.052-.138-.064-.096-.061-.065-.084-.032-.076.013-.083.034-.086.085-.074.105-.073.126-.065.158-.054.183-.029.19-.033.197-.011h.214l.203.01.18.034.179.041.149.054.125.064.11.062.065.084.028.076-.008.083-.044.09-.073.07-.107.076-.124.064M469.196 315.262l.245.093.266.076.272.064.308.054.31.041.328.033.328.01.328-.01.328-.012.32-.032.319-.044.296-.064.273-.07.267-.086.244-.085.213-.107.18-.114.148-.12.126-.126.085-.128.053-.125.012-.139M469.196 315.262l-3.713-1.537M301.692 381.128l-3.701-1.805M301.692 381.128l.241.092.267.099.297.073.306.065.33.039.35.036.349.01h.361l.35-.022.36-.032.349-.055.34-.07.319-.087.297-.093.285-.11.256-.114.222-.13.192-.137.157-.15.128-.147.095-.159.044-.147.012-.16M306.813 378.18l.21.117.18.127.14.139.105.138.076.148.01.058M306.813 378.18l-3.701-1.781M305.042 379.59l-.193.064-.199.041-.212.034-.225.018h-.22l-.224-.018-.2-.034-.182-.041-.148-.064-.128-.076-.094-.083-.055-.094-.01-.1.02-.092.065-.095.096-.088.126-.084.17-.072.181-.065.201-.04.223-.034.224-.021h.21l.225.021.2.034.178.04.151.065.125.072.095.084.056.088.008.095-.017.092-.067.1-.095.094-.126.083-.159.076M609.651 341.748l-2.279-.923M614.391 339.736l-3.263-1.305M474.03 400.946l-3.221-1.475M468.878 403.256l-2.365-1.083M305.222 474.625l-2.29-1.221M311.138 472.05l-3.212-1.71M307.598 379.929l-.044-.912M474.445 314.372v-.861M617.667 258.071l.024-.805M287.768 474.18 395.4 532.059M399.744 392.368l-.264.093-.276.086-.304.065-.321.05-.316.034-.34.019h-.331l-.328-.019-.308-.033-.305-.051-.288-.065-.252-.086-.234-.093M403.024 390.998l-3.28 1.368M403.934 390.065l-.02.147-.055.152-.093.138-.141.135-.168.128-.202.127-.232.105M392.962 390.998l-.204-.105-.17-.116-.125-.13-.106-.125-.054-.139-.032-.146M395.877 392.368l-2.915-1.37M396.173 389.25l.276-.105.297-.088.328-.072.331-.054.348-.042.35-.022h.351l.339.022.34.042.316.054.31.072.275.088.24.092.224.117.183.128.148.139.107.146.061.15.024.146-.024.159-.061.153-.107.158-.139.137-.18.14-.222.124-.244.117-.275.107-.307.087-.318.072-.331.052-.35.041-.349.013h-.35l-.351-.013-.339-.041-.318-.052-.307-.072-.276-.087-.245-.107-.22-.117-.179-.124-.15-.14-.094-.137-.065-.158-.02-.153.02-.159.065-.146.093-.15.151-.146.179-.139.22-.128.245-.104M583.391 315.803l-.216.076-.243.07-.264.055-.274.043-.298.03-.297.011h-.296l-.3-.012-.296-.029-.285-.043-.262-.062-.258-.063-.235-.085M586.115 314.658l-2.724 1.143M586.792 313.991l-.024.127-.061.112-.095.118-.127.118-.169.108-.201.084M576.974 314.649l-.2-.088-.173-.096-.148-.105-.104-.112-.086-.111-.052-.117-.012-.116M579.867 315.793l-2.892-1.144M579.573 313.185l.232-.087.255-.074.273-.051.3-.055.307-.032.321-.008h.312l.32.016.307.036.308.043.289.063.263.074.245.086.221.096.192.101.148.117.126.119.089.13.05.123.01.13-.032.125-.063.13-.106.113-.139.117-.179.105-.202.098-.232.084-.256.073-.283.065-.29.044-.305.028-.32.012h-.317l-.317-.012-.319-.028-.296-.044-.287-.065-.276-.073-.242-.084-.216-.098-.188-.116-.162-.106-.124-.126-.084-.128-.044-.13-.01-.124.03-.128.063-.127.104-.117.141-.118.18-.104.203-.093M574.536 357.13l-2.31 1.01M410.997 428.521l-4.856 2.121M574.536 357.13l.03-2.501M719.656 293.791l-4.82 2.099M573.135 446.283l-4.136 1.99M410.308 524.86l-1.653.795M712.376 379.092l-3.68 1.77M725.268 456.675l3.839-73.182M723.284 373.834l6.205 2.448 3.999-76.15M727.536 290.344l6.341 2.277 2.08-39.6-6.408-2.197M741.14 250.861l-5.183 2.16M729.107 383.493l-6.479 3.168M733.878 292.623l-146.832 64.523" style="fill:none;stroke:red;stroke-width:.999997;stroke-linecap:round;stroke-linejoin:round;stroke-miterlimit:4;stroke-dasharray:none;stroke-opacity:1;visibility:visible"/><path d="m585.469 446.23.108-5.945M587.047 357.145l.105-5.517" style="fill:none;stroke:red;stroke-width:1.99999;stroke-linecap:round;stroke-linejoin:round;stroke-miterlimit:4;stroke-dasharray:none;stroke-opacity:1;visibility:visible"/><path d="m587.805 314.857-6.133 2.567M580.988 359.817 406.3 436.561l-.204-7.287M580.988 359.817l.684-42.393M406.096 429.029l-.053-1.937M405.091 391.127l-7.37 3.073M404.316 626.745 397.723 394.2" style="fill:none;stroke:red;stroke-width:.999997;stroke-linecap:round;stroke-linejoin:round;stroke-miterlimit:4;stroke-dasharray:none;stroke-opacity:1;visibility:visible"/><path d="m579.404 456.79-6.384 3.128" style="fill:none;stroke:red;stroke-width:1.99999;stroke-linecap:round;stroke-linejoin:round;stroke-miterlimit:4;stroke-dasharray:none;stroke-opacity:1;visibility:visible"/><path d="m578.128 534.637 1.276-77.848M729.49 376.283l-144.021 69.946M733.488 300.13l-6.597 2.924M579.519 449.114l-170.696 82.904M579.519 449.114l1.325-81.284" style="fill:none;stroke:red;stroke-width:.999997;stroke-linecap:round;stroke-linejoin:round;stroke-miterlimit:4;stroke-dasharray:none;stroke-opacity:1;visibility:visible"/><path d="m408.823 532.018-.192-7.245M580.844 367.83l-6.51 2.887" style="fill:none;stroke:red;stroke-width:1.99999;stroke-linecap:round;stroke-linejoin:round;stroke-miterlimit:4;stroke-dasharray:none;stroke-opacity:1;visibility:visible"/><path d="m573.221 446.239 6.297 2.875M574.536 357.13l6.452 2.687M581.672 317.424l-6.521-2.584M397.722 394.2l-6.543-3.073M406.066 428.078l.244-.024h.23l.235.024.226.03.2.053.17.076.135.085.11.093.071.098.023.116-.013.104-.063.105-.095.11-.138.08-.168.087M572.563 355.524l.159-.065.189-.043.193-.03.211-.023.212.01.216.012.212.031.176.043.17.065.142.075.112.069M574.547 356.137l-.085.053-.108.064-.131.04-.13.04M572.805 356.317l-.177-.052-.139-.075-.127-.074-.073-.084-.055-.098-.008-.086.03-.094.076-.084.098-.086.132-.06M714.906 293.568l.153-.052.159-.043.18-.02.19-.024.198.012.192.012.201.03.183.033.161.052.132.065.118.063.086.072.051.085.015.076-.024.076-.052.07-.083.076-.121.053-.135.056-.157.03-.195.031M715.376 294.278l-.177-.041-.155-.052-.137-.055-.115-.073-.073-.066-.052-.084-.015-.074.023-.074.044-.073.086-.064.102-.053M569.235 448.17l-.093-.139-.076-.138-.046-.138-.009-.137M709.016 380.714l-.11-.116-.07-.11-.068-.115-.03-.127v-.116M737.45 251.568l-.19.065-.214.063-.235.045-.241.042-.256.021-.27.01h-.28l-.275-.01-.279-.035-.263-.028-.258-.057-.239-.05-.232-.077M739.75 250.605l-2.3.964M740.264 250.118l-.021.087-.044.094-.074.084-.093.084-.133.074-.148.062M731.376 250.584l-.19-.077-.17-.072-.15-.087-.123-.092-.1-.097-.063-.095-.044-.093-.007-.098M734.219 251.558l-2.843-.973M733.506 249.342l.193-.073.223-.054.253-.056.256-.038.275-.024.287-.006h.294l.298.006.288.034.284.028.278.056.252.063.231.077.227.083.192.087.156.105.138.093.099.106.07.118.023.11v.101l-.046.107-.071.106-.108.096-.136.098-.17.074-.205.072-.217.062-.245.052-.264.037-.279.03-.284.01h-.3l-.292-.02-.288-.02-.287-.047-.277-.049-.255-.063-.244-.074-.212-.078-.189-.096-.17-.093-.129-.105-.094-.11-.076-.106-.018-.116v-.103l.042-.11.073-.106.107-.093.148-.087.169-.084M615.019 409.17l-.055 2.505" style="fill:none;stroke:red;stroke-width:.999997;stroke-linecap:round;stroke-linejoin:round;stroke-miterlimit:4;stroke-dasharray:none;stroke-opacity:1;visibility:visible"/><path d="m392.356 430.558-.253-.01h-.256l-.255.01-.255.03-.241.054M390.565 433.688l.245.064.254.053.262.03.276.021h.29l.285-.021.275-.03M390.087 433.453l-.128-.108-.127-.116-.114-.137-.096-.138-.086-.178-.053-.182-.041-.194v-.156l.009-.158.032-.153.043-.144.064-.148.073-.13.095-.126.118-.127.115-.106.15-.116.169-.106.18-.086.19-.084.204-.064.212-.052M390.087 433.453l.137.083.172.076.168.074" style="fill:none;stroke:red;stroke-width:.666665;stroke-linecap:round;stroke-linejoin:round;stroke-miterlimit:4;stroke-dasharray:none;stroke-opacity:1;visibility:visible"/><path d="m616.782 338.641.167-6.945 5.122-2.216" style="fill:none;stroke:red;stroke-width:.999997;stroke-linecap:round;stroke-linejoin:round;stroke-miterlimit:4;stroke-dasharray:none;stroke-opacity:1;visibility:visible"/><path d="m616.782 338.641.057.021M632.503 344.917l82.458 32.921M622.07 329.48l8.3 3.276M646.01 338.925l77.497 30.559" style="fill:none;stroke:red;stroke-width:1.99999;stroke-linecap:round;stroke-linejoin:round;stroke-miterlimit:4;stroke-dasharray:none;stroke-opacity:1;visibility:visible"/><path d="m393.49 528.965.235.063.245.052.253.046.275.008h.265l.275-.024.265-.03M393.087 528.775l-.137-.108-.139-.116-.115-.128-.109-.15-.07-.127-.066-.135-.055-.152-.018-.145-.022-.168.01-.16.024-.158.042-.161.062-.15.073-.138.099-.139.104-.124.118-.117.147-.128.17-.104.18-.099.16-.073.18-.064.178-.052.195-.053.189-.031.201-.021.202-.015.201-.01.18.01.139.015M393.087 528.775l.193.104.21.087" style="fill:none;stroke:red;stroke-width:.666665;stroke-linecap:round;stroke-linejoin:round;stroke-miterlimit:4;stroke-dasharray:none;stroke-opacity:1;visibility:visible"/><path d="m618.771 258.44.17-7.21 5.218-2.037" style="fill:none;stroke:red;stroke-width:.999997;stroke-linecap:round;stroke-linejoin:round;stroke-miterlimit:4;stroke-dasharray:none;stroke-opacity:1;visibility:visible"/><path d="m618.771 258.44 94.994 34.525M624.16 249.196l1.779.635M626.852 250.158l99.581 35.701" style="fill:none;stroke:red;stroke-width:1.99999;stroke-linecap:round;stroke-linejoin:round;stroke-miterlimit:4;stroke-dasharray:none;stroke-opacity:1;visibility:visible"/><path d="m282.607 382.549 7.25-2.832" style="fill:none;stroke:red;stroke-width:.999997;stroke-linecap:round;stroke-linejoin:round;stroke-miterlimit:4;stroke-dasharray:none;stroke-opacity:1;visibility:visible"/><path d="m283.072 390.776 109.721 54.393M289.858 379.717l102.478 50.037M279.584 333.394l.253-.085.29-.072.284-.068.306-.04.31-.035.316-.01h.308l.306.01.29.035.273.052.265.056.234.072.212.085M276.33 334.59l3.255-1.196M275.343 335.493l.01-.125.042-.12.075-.123.117-.12.148-.117.17-.107.2-.104.225-.087M285.817 334.6l.16.087.137.093.107.097.085.107.054.115.017.105M283.231 333.394l2.585 1.207M286.433 336.139l-.055-.933M275.395 336.426l-.052-.933M462.727 266.053l.221-.075.231-.062.27-.054.262-.032.279-.03.284-.01h.289l.273.016.276.024.266.044.242.051.235.068.2.06M459.993 267.062l2.735-1.01M459.25 267.72l.01-.108.055-.093.074-.107.116-.097.137-.092.157-.086.194-.074M468.652 267.081l.195.083.169.098.128.095.087.108.061.116.021.104M466.055 266.053l2.596 1.028M469.324 268.557l-.01-.87M459.261 268.587l-.01-.867M617.911 208.988l.193-.064.214-.05.221-.045.243-.032.244-.018.262-.012h.255l.267.022.256.019.256.035.23.04.224.052.212.062M615.58 209.847l2.33-.86M615.006 210.346l.024-.093.055-.088.082-.094.107-.076.139-.084.168-.064M623.553 209.878l.19.063.16.085.129.075.104.096.076.085.049.096.016.095M620.988 208.998l2.564.881M624.253 211.291l.024-.819M615 211.162l.005-.816" style="fill:none;stroke:red;stroke-width:1.99999;stroke-linecap:round;stroke-linejoin:round;stroke-miterlimit:4;stroke-dasharray:none;stroke-opacity:1;visibility:visible"/><path d="m298.598 559.024-5.888 2.787" style="fill:none;stroke:red;stroke-width:.999997;stroke-linecap:round;stroke-linejoin:round;stroke-miterlimit:4;stroke-dasharray:none;stroke-opacity:1;visibility:visible"/><path d="m299.368 554.272-3.71-68.197M303.121 475.546l2.1-.92M311.138 472.05l72.248-31.545M472.398 472.55l-.583-56.361M620.198 401.306l1.341-51.523M622.07 329.48l1.799-69.185M624.16 249.196l.984-37.95M470.667 304.489l-.37-35.903M289.584 374.766l-2.101-38.48M471.54 389.621l-.755-72.844 142.145-56.036" style="fill:none;stroke:red;stroke-width:1.99999;stroke-linecap:round;stroke-linejoin:round;stroke-miterlimit:4;stroke-dasharray:none;stroke-opacity:1;visibility:visible"/><path d="m294.555 555.948.04.181.075.16.097.144.107.119" style="fill:none;stroke:red;stroke-width:.999997;stroke-linecap:round;stroke-linejoin:round;stroke-miterlimit:4;stroke-dasharray:none;stroke-opacity:1;visibility:visible"/><path d="m294.545 465.793-3.881-71.25M299.357 384.352l159.629-62.92M461.019 476.711l-.719-55.412M459.94 394.614l-.956-73.184M286.41 335.791l1.072.496M274.345 336.278l1.019-.383M287.164 558.589l-12.819-222.31M289.584 374.766l169.232-65.685-.528-40.525.973-.35M470.667 304.489l142.536-55.33.892-37.954.905-.342M609.5 406.786l1.233-52.207M294.545 465.793l74.866-32.21M385.761 426.54l6.395-2.75M405.8 417.918l54.141-23.305M471.54 389.621l103.17-44.397M587.354 339.787l23.964-10.321 1.612-68.724M469.313 268.206l.985.38M624.26 210.94l.883.305M609.727 341.769l-.076-.021M474.105 400.977l-.076-.03M306.558 475.336l-1.336-.71M306.558 475.336l.232.104.267.105.288.075.305.064.319.056.338.028.339.013h.35l.35-.024.348-.041.341-.052.33-.076.316-.097.297-.104.267-.116.254-.128.211-.135.19-.159.16-.149.117-.17.084-.165.053-.164.01-.172M311.55 472.26l-.412-.21M312.251 473.003l.032.157M311.55 472.26l.215.127.168.137.146.15.108.158.064.17M312.325 474.029l-.041-.868M288.213 482.047l107.428 58.196M294.84 471.114l100.336 53.61M403.235 389.303l.21.105.17.116.13.127.105.128.064.15.02.137M400.329 387.946l2.907 1.359M396.469 387.946l.265-.095.278-.085.306-.065.304-.052.332-.034.331-.018h.328l.328.018.307.034.306.052.278.065.264.085.233.095M393.194 389.303l3.276-1.357M392.272 390.236l.02-.15.056-.149.093-.136.138-.141.18-.136.204-.116.23-.105M392.303 391.211l-.03-.975M403.956 391.04l-.021-.975M586.008 313.236l.203.093.172.099.144.107.116.105.086.119.039.113.024.119M583.115 312.1l2.893 1.136M579.601 312.092l.227-.076.232-.073.265-.054.273-.044.29-.028.297-.012h.307l.297.024.287.016.284.044.265.066.255.061.234.085M576.876 313.227l2.725-1.137M576.2 313.905l.021-.128.055-.127.104-.116.128-.106.17-.106.198-.097M576.18 314.805l.021-.901M586.769 314.903l.024-.912M729.55 250.825l.945-.39M719.193 454.055l3.435-67.393M571.972 531.591l1.05-71.673M392.501 435.244l-1.321-44.117 1.112-.455" style="fill:none;stroke:red;stroke-width:1.99999;stroke-linecap:round;stroke-linejoin:round;stroke-miterlimit:4;stroke-dasharray:none;stroke-opacity:1;visibility:visible"/><path d="m392.806 445.4-.304-10.156" style="fill:none;stroke:red;stroke-width:.999997;stroke-linecap:round;stroke-linejoin:round;stroke-miterlimit:4;stroke-dasharray:none;stroke-opacity:1;visibility:visible"/><path d="m395.374 531.19-2.568-85.79" style="fill:none;stroke:red;stroke-width:1.99999;stroke-linecap:round;stroke-linejoin:round;stroke-miterlimit:4;stroke-dasharray:none;stroke-opacity:1;visibility:visible"/><path d="m395.663 540.83-.29-9.639" style="fill:none;stroke:red;stroke-width:.999997;stroke-linecap:round;stroke-linejoin:round;stroke-miterlimit:4;stroke-dasharray:none;stroke-opacity:1;visibility:visible"/><path d="m398.126 623.138-2.463-82.308M572.227 358.141l-161.23 70.381M574.566 354.63l.585-39.792 1.04-.421M727.536 290.344l-7.88 3.445M714.836 295.891 587.151 351.63M727.536 290.344l2.013-39.52M573.221 446.239l-.085.043M569 448.275l-158.692 76.584M573.221 446.239l1.112-75.524M723.284 373.834l-10.908 5.257M708.695 380.861l-123.12 59.421M723.284 373.834l3.607-70.777" style="fill:none;stroke:red;stroke-width:1.99999;stroke-linecap:round;stroke-linejoin:round;stroke-miterlimit:4;stroke-dasharray:none;stroke-opacity:1;visibility:visible"/><path d="m725.268 456.675-6.075-2.619" style="fill:none;stroke:red;stroke-width:.999997;stroke-linecap:round;stroke-linejoin:round;stroke-miterlimit:4;stroke-dasharray:none;stroke-opacity:1;visibility:visible"/><path d="m583.948 531.55 1.383-77.665M585.576 440.284l1.335-75.145" style="fill:none;stroke:red;stroke-width:1.99999;stroke-linecap:round;stroke-linejoin:round;stroke-miterlimit:4;stroke-dasharray:none;stroke-opacity:1;visibility:visible"/><path d="m730.232 454.035-4.964 2.639" style="fill:none;stroke:red;stroke-width:.999997;stroke-linecap:round;stroke-linejoin:round;stroke-miterlimit:4;stroke-dasharray:none;stroke-opacity:1;visibility:visible"/><path d="m740.243 250.553.899.307M722.628 386.662l-137.297 67.224M730.232 454.035l10.91-203.174M587.151 351.63l.653-36.772M406.096 429.274v-.247M406.043 427.091l-.952-35.967M411.243 623.078l-2.199-82.876M573.02 459.918l-163.976 80.285M726.89 303.057 586.912 365.14M408.631 524.775l-2.11-79.626M574.333 370.717l-167.812 74.432M586.782 314.456l1.024.4M403.946 390.597l1.145.528M406.043 427.091l.364-.013h.359l.349.024.35.029.34.056.315.059.311.09.276.096.255.104 2.034.984M407.233 429.117l-.159.05-.181.054-.188.033-.204.018-.2.013-.205-.013" style="fill:none;stroke:red;stroke-width:1.99999;stroke-linecap:round;stroke-linejoin:round;stroke-miterlimit:4;stroke-dasharray:none;stroke-opacity:1;visibility:visible"/><path d="m571.247 357.728.98.413M570.261 355.84l.027-.135.058-.152.087-.136.13-.132.157-.126.189-.116.221-.104.246-.106.265-.085.297-.064.307-.061.319-.044.326-.034.34-.009h.34l.342.02.336.035.318.038M574.094 356.336l-.183.033-.181.032h-.384l-.19-.009-.18-.032-.171-.044M570.253 356.73l.021.139.042.14.082.137.11.123.149.13.17.115.189.116.232.099M713.87 295.542l.967.35M712.8 294.573l.01.119.03.118.075.116.094.116.12.108.151.103.177.107.19.081.224.101M712.839 293.748l.024-.127.05-.118.087-.115.128-.107.151-.108.177-.092.2-.085.235-.076.253-.063.268-.052.284-.042.296-.034.314-.009h.312l.32.01.305.022.31.043.307.054.284.06.268.076.255.072 1.99.732M716.159 294.322l-.19.007h-.2l-.203-.02-.19-.032" style="fill:none;stroke:red;stroke-width:.999997;stroke-linecap:round;stroke-linejoin:round;stroke-miterlimit:4;stroke-dasharray:none;stroke-opacity:1;visibility:visible"/><path d="m408.631 524.775.352-.008h.341l.338.008.326.032.32.052M569.011 447.619l.021-.16.052-.148.086-.152.117-.132.161-.139.18-.129.198-.115.237-.108.26-.082.279-.084.284-.063.31-.056.316-.03.33-.022h.333l.315.008.328.032.317.044M708.737 380.13l.024-.128.052-.125.08-.128.123-.115.145-.117.18-.094.205-.098.219-.086.243-.072.265-.053.287-.043.284-.03.3-.022h.309l.308.01.307.029.308.035M708.695 380.861l.041-.733M569 448.275l.01-.656" style="fill:none;stroke:red;stroke-width:1.99999;stroke-linecap:round;stroke-linejoin:round;stroke-miterlimit:4;stroke-dasharray:none;stroke-opacity:1;visibility:visible"/><path d="m712.8 294.573.04-.825M570.253 356.73l.008-.89" style="fill:none;stroke:red;stroke-width:.999997;stroke-linecap:round;stroke-linejoin:round;stroke-miterlimit:4;stroke-dasharray:none;stroke-opacity:1;visibility:visible"/><path d="m739.412 249.4.193.07.171.086.141.085.134.083.093.099.063.096.044.104.013.096M736.557 248.433l2.855.967M733.35 248.424l.19-.064.198-.065.235-.044.246-.043.267-.019.263-.009h.272l.28.01.276.033.262.028.256.056.242.053.221.073M731.047 249.376l2.303-.95M730.529 249.873l.019-.095.046-.086.071-.084.104-.086.13-.07.147-.076M730.488 250.722l.041-.85M740.219 250.965l.045-.85M287.164 558.589l.435 7.517" style="fill:none;stroke:red;stroke-width:1.99999;stroke-linecap:round;stroke-linejoin:round;stroke-miterlimit:4;stroke-dasharray:none;stroke-opacity:1;visibility:visible"/><path d="m229.418 487.17-.773.5-1.483.759-1.661.74-1.784.606-1.844.444-2.018.37-2.014.225-2.075.079-2.03-.079-1.938-.225-1.784-.37-1.707-.444-1.569-.606-1.416-.74-1.119-.759-.882-.872-.688-.976-.435-1.056-.077-1.025.077-1.056.435-1.03.688-1.049.882-.964 1.12-.883" style="fill:none;stroke:red;stroke-width:.666665;stroke-linecap:round;stroke-linejoin:round;stroke-miterlimit:4;stroke-dasharray:none;stroke-opacity:1;visibility:visible"/><path d="M216.062 481.577v.53l.053.5v1.053l.086.529.07.579M217.096 481.577v-.239l-.223-.133-.213-.073-.295.073-.25.133-.052.239" style="fill:none;stroke:red;stroke-width:.666665;stroke-linecap:round;stroke-linejoin:round;stroke-miterlimit:4;stroke-dasharray:none;stroke-opacity:1;visibility:visible"/><path d="m216.27 484.766.152-.576.152-.608.147-.45.152-.525.085-.5.137-.53M218.295 475.318v-.672l-.068-.077M217.247 475.318l.073.067.139.077h.525l.243-.077.068-.067" style="fill:none;stroke:red;stroke-width:.666665;stroke-linecap:round;stroke-linejoin:round;stroke-miterlimit:4;stroke-dasharray:none;stroke-opacity:1;visibility:visible"/><path d="m218.227 474.57-.164.077-.223.162-.146.05-.148.156-.148.166-.151.138M223.13 478.664l.743.145.688.159.598.161.587.131.592.155.745.224M223.217 478.155h-.53l-.078.141.079.146.146.158.296.063" style="fill:none;stroke:red;stroke-width:.666665;stroke-linecap:round;stroke-linejoin:round;stroke-miterlimit:4;stroke-dasharray:none;stroke-opacity:1;visibility:visible"/><path d="m227.083 479.64-.672-.304-.664-.287-.528-.238-.601-.211-.663-.239-.739-.206M215.38 475.835l.284.08.397.075.738.066h1.566l.746-.066.448-.075.361-.08 1.656-.212M223.5 476.73l-1.401.365M223.5 476.73l-.955-.607-.968-.5M222.097 477.097l-.383.083-.217.156-.384.289-.137.367v.452l.218.45.156.302.296.22 1.123 1.266M220.375 481.707l-1.41-1.025M220.375 481.707l1.201-.501 1.192-.524M218.965 480.684l-.301-.224-.368-.223-.751-.238h-.747l-.824.076-.745.237-.433.148-.298.224-1.645 1.119M218.723 480.526l1.199-4.693M221.577 475.623l-1.944 5.583M220.375 481.707h0M215.38 475.835l1.195 4.165M221.646 479.417l-.532 2.004M216.27 484.714l-.21-3.137M223.288 478.76l-.07-.605M218.295 475.384l-.068-.37v-.445M217.247 475.384v-.068M224.025 490.22l-.98.304-1.172.29-1.185.225-1.207.156-1.253.149-1.203.065h-2.452l-1.201-.065-1.186-.15-.98-.155M220.375 481.707l.065-.368.148-1.104.163-1.108.225-1.136" style="fill:none;stroke:red;stroke-width:.666665;stroke-linecap:round;stroke-linejoin:round;stroke-miterlimit:4;stroke-dasharray:none;stroke-opacity:1;visibility:visible"/><path d="m216.84 445.752-78.052 36.963M227.428 471.188l-17.639-10.113M228.897 492.856l-1.137.412-2.172.592-2.232.524-2.242.37-2.3.238-2.39.13h-2.307l-2.319-.066-2.226-.21-2.09-.38-2.082-.531-1.87-.575-1.778-.69-1.563-.813M228.276 476.811l.223.075.213.129.23.081M228.572 488.274l-1.197.684-1.038.45-1.045.445-1.041.366h-.227M229.195 487.877l-.623.397" style="fill:none;stroke:red;stroke-width:.999997;stroke-linecap:round;stroke-linejoin:round;stroke-miterlimit:4;stroke-dasharray:none;stroke-opacity:1;visibility:visible"/><path d="m217.694 465.556 6.912-3.283" style="fill:none;stroke:red;stroke-width:1.99999;stroke-linecap:round;stroke-linejoin:round;stroke-miterlimit:4;stroke-dasharray:none;stroke-opacity:1;visibility:visible"/><path d="m227.434 535.855-42.868-24.359" style="fill:none;stroke:red;stroke-width:.666665;stroke-linecap:round;stroke-linejoin:round;stroke-miterlimit:10;stroke-dasharray:none;stroke-opacity:1;visibility:visible"/><path d="m291.379 381.089-.159-.076-.181-.053-.19-.052-.2-.031" style="fill:none;stroke:red;stroke-width:.666665;stroke-linecap:round;stroke-linejoin:round;stroke-miterlimit:4;stroke-dasharray:none;stroke-opacity:1;visibility:visible"/><path d="m289.247 380.961-.232.073-.213.087-.18.09-.158.109-.128.117-.074.116-.052.13v.117l.032.117.072.115.117.104.15.1.178.072.201.073.235.043.256.042.253.012h.264l.278-.021.254-.043.254-.054.232-.075.214-.083.179-.106.15-.107.117-.119.085-.114.03-.128v-.118l-.03-.113-.085-.121-.118-.104-.149-.083" style="fill:none;stroke:red;stroke-width:.666665;stroke-linecap:round;stroke-linejoin:round;stroke-miterlimit:4;stroke-dasharray:none;stroke-opacity:1;visibility:visible"/><path d="m290.543 381.417.021-.02.008-.033.035-.024.02-.008.043-.02.042-.011M290.636 381.597l-.03-.03-.034-.022-.008-.033-.021-.02v-.052M290.807 381.736l-.17-.139M290.447 381.895l.063-.032.062-.033.055-.019.052-.023.065-.022.063-.03M290.224 381.767l.223.128M289.927 381.683l.064.008h.05l.055.015.043.017.043.013.042.03M289.578 381.767l.052-.023.041-.02.054-.02.053-.016h.053l.064-.005M289.27 381.862l.308-.095M289.002 381.724l.267.139M289.406 381.44l-.02.028-.02.035-.035.02-.029.033-.043.019-.021.01-.023.012-.03.024-.183.104M289.312 381.3l.03.012.03.019.015.022.018.022v.041M289.142 381.227l.17.073M289.513 381.068l-.075.028-.052.025-.062.02-.055.019-.053.036-.074.03M289.725 381.12l-.212-.053M290.023 381.174l-.064-.013h-.05l-.055-.011-.044-.008-.042-.01-.042-.011M290.381 381.12l-.052.021-.052.01h-.053l-.055.01h-.053l-.063.012M290.647 381.068l-.267.053M290.935 381.227l-.053-.03-.044-.035-.051-.02-.043-.022-.044-.024-.052-.028M290.712 381.3l.223-.073M290.543 381.417v.023M290.647 380.877l-.232-.023-.235-.01-.232.01-.245.023-.233.03-.223.053M288.836 383.822l.221.055.246.042.254.03.275.014.265-.014.276-.019.264-.043.255-.052.232-.074.223-.084M288.379 383.621l.128.075.157.064.172.061M291.347 383.676l.17-.084.149-.087.137-.097" style="fill:none;stroke:red;stroke-width:.666665;stroke-linecap:round;stroke-linejoin:round;stroke-miterlimit:4;stroke-dasharray:none;stroke-opacity:1;visibility:visible"/><path d="m288.379 383.621-.127-.095-.128-.12-.106-.114-.096-.139-.083-.159-.052-.17-.043-.178-.012-.15.012-.138.031-.148.032-.137.064-.136.063-.125.084-.123.106-.117.106-.104.149-.116.148-.092.17-.099.17-.072.19-.076.19-.053M290.647 380.877l.17.03.18.034.169.05.16.054.16.076.148.084.146.095.128.116.108.118.094.127.085.15.064.155.043.168.021.154v.145l-.021.15-.031.14-.055.137-.065.126-.084.128-.095.116-.096.107-.073.07M296.472 472.724l-.159-.076-.181-.052-.19-.052-.2-.032M294.34 472.597l-.232.073-.213.086-.18.092-.158.108-.128.117-.076.117-.05.128v.116l.032.118.072.116.117.102.15.1.178.074.201.073.235.043.256.041.253.013h.264l.278-.022.254-.042.254-.054.232-.072.214-.086.179-.106.15-.107.117-.119.085-.114.03-.13v-.116l-.03-.112-.085-.121-.118-.105-.149-.083" style="fill:none;stroke:red;stroke-width:.666665;stroke-linecap:round;stroke-linejoin:round;stroke-miterlimit:4;stroke-dasharray:none;stroke-opacity:1;visibility:visible"/><path d="m295.636 473.052.021-.02.008-.033.034-.024.021-.008.043-.02.042-.012M295.73 473.232l-.03-.03-.034-.023-.008-.032-.021-.02v-.054M295.9 473.371l-.17-.139M295.54 473.53l.063-.032.062-.035.055-.017.052-.023.065-.021.063-.03M295.318 473.403l.223.127M295.02 473.318l.064.007h.05l.055.014.043.019.043.013.042.031M294.672 473.403l.052-.023.041-.021.054-.02.053-.015h.053l.064-.005M294.363 473.498l.308-.095M294.096 473.36l.267.139M294.5 473.075l-.019.028-.021.036-.035.019-.029.033-.041.019-.023.01-.021.014-.031.022-.183.104M294.406 472.934l.03.012.03.02.015.023.018.018v.044M294.236 472.86l.17.073M294.607 472.703l-.075.03-.052.022-.062.021-.055.019-.053.036-.074.03M294.819 472.755l-.212-.052M295.116 472.809l-.064-.013h-.05l-.055-.01-.044-.009-.042-.01-.042-.011M295.475 472.755l-.052.021-.052.01h-.053l-.055.009h-.053l-.063.013M295.741 472.703l-.267.052M296.028 472.86l-.053-.03-.044-.035-.051-.019-.043-.021-.044-.023-.052-.03M295.806 472.934l.223-.073M295.636 473.052v.023M295.741 472.512l-.232-.024-.235-.01-.232.01-.245.024-.233.032-.223.052M293.93 475.459l.221.053.246.042.254.032.275.012.265-.012.276-.019.264-.043.255-.052.232-.076.223-.084M293.472 475.257l.127.076.158.063.172.061M296.44 475.311l.17-.084.149-.087.137-.097" style="fill:none;stroke:red;stroke-width:.666665;stroke-linecap:round;stroke-linejoin:round;stroke-miterlimit:4;stroke-dasharray:none;stroke-opacity:1;visibility:visible"/><path d="m293.472 475.257-.127-.093-.128-.12-.106-.115-.096-.14-.083-.16-.052-.17-.043-.175-.012-.154.012-.134.031-.151.032-.135.064-.138.063-.126.084-.121.106-.116.106-.105.149-.115.148-.093.17-.1.17-.071.19-.076.19-.052M295.741 472.512l.17.032.18.03.169.053.16.052.16.077.148.084.146.093.128.119.108.116.094.127.085.15.064.156.043.168.021.155v.144l-.021.15-.031.138-.055.14-.065.125-.084.127-.095.116-.096.108-.073.07M624.295 249.943l-.136.061-.117.063-.086.076-.053.073-.02.086.02.085.044.072.085.076.106.075.146.073.162.053.192.054.198.042.224.031.222.01.224.013.233-.012.21-.022.213-.02.192-.042.16-.054.148-.065.116-.061.085-.075.048-.076.024-.084-.008-.073-.055-.086-.085-.073-.103-.076-.14-.063" style="fill:none;stroke:red;stroke-width:.666665;stroke-linecap:round;stroke-linejoin:round;stroke-miterlimit:4;stroke-dasharray:none;stroke-opacity:1;visibility:visible"/><path d="m625.896 250.122.012-.023.01-.009.007-.01.024-.02h.023l.03-.014M626.205 250.356l-.18-.117M625.94 250.451l.05-.024.045-.019.041-.01.044-.011.041-.021.043-.01M625.728 250.356l.212.095M625.454 250.301h.103l.042.013.044.008.042.01.044.025M625.165 250.356l.041-.023.034-.009.041-.01.045-.014h.106M624.922 250.43l.243-.073M624.657 250.334l.265.093M624.932 250.131l-.01.024-.011.017-.019.014-.023.021-.033.021-.012.011h-.017l-.024.021-.127.072M624.793 250.037l.043.01.033.014.023.005.008.012.022.023v.019M624.613 249.994l.18.041M624.892 249.9l-.056.01-.043.018-.04.015-.041.018-.045.012-.054.019M625.103 249.92l-.21-.021M625.377 249.953h-.108l-.04-.008h-.041l-.044-.016-.042-.008M625.665 249.93h-.043l-.033.013h-.04l-.043.01h-.106M625.862 249.9l-.197.028M626.162 250.006l-.05-.023-.057-.021-.044-.01-.04-.023-.053-.008-.056-.02M626.002 250.046l.16-.041M624.922 250.131v-.01M626.43 249.962l-.139-.052-.162-.03-.168-.033-.179-.022M625.072 249.803l-.224.023-.203.033-.181.028-.17.056M626.545 250.006l-.056-.023-.059-.021M624.295 252.051l.193.053.202.042.221.032.224.021.233.01h.222l.233-.01.212-.021.21-.032.186-.042M623.786 251.787l.097.073.118.074.137.064.157.053M626.43 252.103l.168-.053.135-.054.116-.062.109-.064M625.072 249.803l.135-.01h.149l.137.01h.15l.138.023M623.786 251.787l-.105-.107-.082-.116-.074-.137-.054-.13-.033-.126-.013-.127.013-.117.01-.107.03-.116.035-.106.052-.096.064-.095.074-.085.075-.084.085-.064.107-.074.115-.062.116-.054.094-.041M626.545 250.006l.147.063.14.084.126.096.106.108.073.082.075.106.054.116.052.118.023.127.007.119v.116l-.018.114-.024.108-.04.106-.054.106-.062.083-.064.097-.086.072-.042.042M622.214 330.456l-.136.061-.117.063-.084.076-.055.073-.02.086.02.085.044.072.087.075.102.076.148.074.162.052.192.054.198.042.224.031.222.01.224.013.233-.012.21-.02.213-.022.193-.042.159-.054.148-.065.116-.061.085-.076.05-.075.022-.084-.008-.073-.056-.086-.084-.073-.103-.076-.14-.063" style="fill:none;stroke:red;stroke-width:.666665;stroke-linecap:round;stroke-linejoin:round;stroke-miterlimit:4;stroke-dasharray:none;stroke-opacity:1;visibility:visible"/><path d="m623.816 330.635.012-.023.01-.01.007-.008.024-.02h.022l.032-.015M624.123 330.87l-.18-.117M623.86 330.964l.05-.024.045-.019.041-.01.045-.011.04-.021.043-.01M623.648 330.87l.212.093M623.373 330.814h.103l.042.012.044.012.042.007.044.024M623.085 330.87l.04-.024.035-.007.04-.012.045-.012h.105M622.842 330.942l.244-.075M622.576 330.847l.265.093M622.852 330.644l-.01.024-.013.019-.018.013-.023.02-.033.021-.012.011h-.018l-.024.019-.125.074M622.713 330.55l.043.01.032.014.024.005.008.012.022.023v.019M622.533 330.507l.18.041M622.811 330.413l-.056.01-.043.018-.04.015-.04.018-.045.012-.053.019M623.023 330.433l-.212-.02M623.297 330.465h-.11l-.038-.008h-.043l-.044-.016-.04-.008M623.584 330.443h-.041l-.035.013h-.04l-.044.01h-.105M623.782 330.413l-.197.028M624.081 330.519l-.05-.021-.055-.023-.044-.01-.042-.023-.053-.008-.056-.02M623.922 330.56l.159-.041M622.842 330.644v-.01M624.35 330.475l-.14-.052-.161-.03-.168-.033-.179-.022M622.99 330.316l-.224.024-.201.032-.183.028-.17.056M624.464 330.519l-.055-.021-.06-.023M622.214 332.564l.193.053.202.04.221.034.225.02.234.012h.22l.233-.012.213-.02.21-.034.185-.04M621.705 332.3l.097.072.118.076.136.063.158.053M624.35 332.618l.168-.053.135-.054.116-.062.108-.067M622.99 330.316l.135-.01h.149l.137.01h.15l.14.024M621.705 332.3l-.104-.107-.084-.116-.073-.138-.055-.128-.032-.127-.013-.127.013-.117.01-.107.031-.116.034-.106.052-.096.064-.095.074-.083.075-.086.085-.064.106-.074.114-.062.119-.054.093-.041M624.464 330.519l.147.063.14.084.125.096.107.108.073.084.076.102.053.118.052.118.023.127.008.119v.116l-.019.114-.024.108-.04.107-.053.105-.063.083-.064.097-.085.072-.044.042M720.572 369.265l-.136.068-.117.07-.086.082-.053.08-.02.09.02.095.044.079.085.083.106.08.146.081.162.059.19.057.2.048.224.032.222.015.224.01.233-.01.21-.026.213-.021.193-.048.159-.057.148-.071.116-.07.085-.08.048-.082.024-.092-.01-.081-.053-.091-.085-.08-.103-.083-.14-.069" style="fill:none;stroke:red;stroke-width:.666665;stroke-linecap:round;stroke-linejoin:round;stroke-miterlimit:4;stroke-dasharray:none;stroke-opacity:1;visibility:visible"/><path d="m722.173 369.46.012-.024.01-.01.007-.01.024-.023h.023l.03-.016M722.482 369.714l-.18-.127M722.218 369.82l.05-.027.045-.02.041-.012.045-.01.04-.024.043-.012M722.006 369.714l.212.105M721.73 369.655h.103l.042.013.044.014.042.01.044.022M721.443 369.714l.04-.021.035-.011.041-.013.044-.014h.107M721.2 369.795l.244-.081M720.934 369.693l.265.101M721.21 369.47l-.01.025-.011.022-.019.012-.023.024-.033.022-.012.012h-.017l-.024.022-.127.084M721.07 369.368l.043.01.033.017.023.006.008.015.022.021v.023M720.89 369.32l.18.047M721.17 369.218l-.056.01-.043.022-.04.016-.041.02-.045.013-.054.023M721.38 369.24l-.21-.024M721.655 369.275h-.108l-.04-.01h-.041l-.044-.015-.042-.01M721.942 369.252h-.043l-.033.013h-.04l-.043.011h-.106M722.14 369.218l-.197.032M722.439 369.334l-.05-.025-.057-.023-.044-.01-.04-.025-.053-.01-.056-.023M722.28 369.378l.16-.045M721.2 369.47v-.01M722.707 369.286l-.139-.057-.162-.034-.168-.037-.18-.019M721.35 369.112l-.224.027-.203.032-.181.033-.17.06M722.822 369.334l-.056-.025-.059-.023M720.572 371.565l.193.057.202.047.221.035.224.024.233.008h.222l.233-.008.212-.024.21-.035.186-.047M720.063 371.276l.097.081.118.082.137.066.157.06M722.707 371.624l.168-.057.135-.06.116-.07.109-.069M721.35 369.112l.135-.012h.149l.137.012h.15l.138.027M720.063 371.276l-.105-.115-.082-.128-.074-.15-.054-.139-.033-.14-.013-.136.013-.13.01-.115.03-.128.035-.116.052-.104.064-.103.074-.092.075-.093.085-.071.107-.08.115-.07.116-.057.094-.045M722.822 369.334l.147.068.14.093.126.103.106.117M724.823 285.961l-.136.068-.119.067-.084.081-.053.079-.021.092.021.089.044.081.085.082.106.08.148.081.162.056.192.056.2.047.227.032.223.012.224.013.233-.013.213-.024.214-.02.193-.047.16-.056.148-.07.119-.067.084-.08.049-.082.023-.09-.01-.08-.053-.092-.085-.079-.104-.081-.139-.067" style="fill:none;stroke:red;stroke-width:.666665;stroke-linecap:round;stroke-linejoin:round;stroke-miterlimit:4;stroke-dasharray:none;stroke-opacity:1;visibility:visible"/><path d="m726.433 286.154.012-.025.01-.01.009-.01.024-.02h.021l.033-.018M726.743 286.407l-.179-.128M726.478 286.508l.05-.025.047-.02.04-.012.046-.014.04-.021.042-.01M726.265 286.407l.212.101M725.988 286.347h.105l.042.013.044.012.041.008.045.026M725.699 286.407l.041-.027.034-.008.042-.01.046-.014h.105M725.454 286.485l.245-.08M725.188 286.38l.267.104M725.465 286.163l-.01.025-.013.022-.018.012-.023.024-.033.022-.012.012h-.018l-.022.022-.128.08M725.326 286.063l.043.01.032.015.024.006.008.014.021.023v.021M725.144 286.017l.181.045M725.424 285.915l-.056.01-.043.02-.041.017-.04.021-.045.012-.055.023M725.637 285.935l-.213-.021M725.913 285.97h-.108l-.041-.01h-.043l-.044-.015-.04-.01M726.2 285.947h-.041l-.034.015h-.04l-.045.009h-.107M726.4 285.915l-.2.03M726.7 286.03l-.05-.025-.055-.022-.044-.012-.043-.024-.053-.01-.056-.022M726.543 286.073l.159-.044M725.454 286.163v-.01M726.97 285.982l-.139-.057-.164-.034-.169-.037-.179-.019M725.606 285.81l-.225.025-.204.034-.183.033-.17.059M727.086 286.03l-.055-.025-.061-.022M724.823 288.234l.195.057.202.044.223.035.227.021.234.012h.222l.234-.012.215-.021.21-.035.186-.044M724.311 287.948l.099.079.117.081.139.067.156.058M727.392 288.109l.11-.072" style="fill:none;stroke:red;stroke-width:.666665;stroke-linecap:round;stroke-linejoin:round;stroke-miterlimit:4;stroke-dasharray:none;stroke-opacity:1;visibility:visible"/><path d="m726.97 288.291.17-.057.134-.059.117-.068M725.606 285.81l.135-.01h.149l.139.01h.15l.142.025M724.311 287.948l-.104-.113-.084-.128-.075-.148-.053-.139-.033-.136-.012-.136.012-.125.01-.116.03-.127.034-.113.054-.104.064-.1.074-.094.075-.089.085-.072.108-.077.116-.068.116-.058.094-.044M727.086 286.03l.147.067.141.092.127.1.061.072" style="fill:none;stroke:red;stroke-width:.666665;stroke-linecap:round;stroke-linejoin:round;stroke-miterlimit:4;stroke-dasharray:none;stroke-opacity:1;visibility:visible"/><path d="M229.637 484.67a85.164 85.164 0 0 0-1.918-15.138M218.877 529.581a84.472 84.472 0 0 0 9.41-26.05M623.648 330.87l1.612 4.125M630.37 332.756l10.529 8.442M282.138 337.315l.446-1.165M282.138 337.317l.446-1.167M466.512 402.173l-.645 16.658M616.782 338.692l-.342 13.349M572.563 355.524l2.078-5.506M574.71 345.224l12.558-.675M385.761 426.54l-10.679 9.851M391.443 431.523l-.01-2.215M410.997 428.521l-5.057-5.492M469.196 315.262l-10.38-6.183M614.391 339.736l-3.074-10.27M616.769 256.449l-3.566-7.29M612.93 260.743l2.732-3.257M618.771 258.439l-3.109-.953M470.714 309.1l1.496 4.785M297.947 378.412l7.095 1.178M303.112 376.399l1.93 3.191M616.782 338.641l-2.391 1.095M470.809 399.471l-1.931 3.785M294.363 473.499l-6.595.681M396.47 387.946l-.297 1.304M396.469 387.946l-.296 1.304M579.601 312.09l-.028 1.095M576.876 313.227l2.697-.042M392.302 428.935l13.839 1.707M737.45 251.568l-1.493 1.453M726.478 286.508l7.4 6.115M722.218 369.82l7.272 6.463M576.974 314.649l-1.823.191M392.962 390.998l-1.783.129" style="fill:none;stroke:red;stroke-width:.999997;stroke-linecap:round;stroke-linejoin:round;stroke-miterlimit:4;stroke-dasharray:none;stroke-opacity:1;visibility:visible"/><path d="m391.891 430.886.56 2.92" style="fill:none;stroke:red;stroke-width:.666665;stroke-linecap:round;stroke-linejoin:round;stroke-miterlimit:4;stroke-dasharray:none;stroke-opacity:1;visibility:visible"/><path d="m625.26 334.995 7.243 9.922M723.284 373.834l-8.323 4.004M624.464 330.519l5.906 2.237M630.37 332.756l15.64 6.169" style="fill:none;stroke:red;stroke-width:1.99999;stroke-linecap:round;stroke-linejoin:round;stroke-miterlimit:4;stroke-dasharray:none;stroke-opacity:1;visibility:visible"/><path d="m394.752 526.154.551 2.926" style="fill:none;stroke:red;stroke-width:.666665;stroke-linecap:round;stroke-linejoin:round;stroke-miterlimit:4;stroke-dasharray:none;stroke-opacity:1;visibility:visible"/><path d="m713.87 295.542-.105-2.577M289.269 381.863l-6.197 8.913M294.534 555.779l4.834-1.507M295.636 473.075l.021 13M296.44 475.312l6.681.234M391.127 431.63l-7.741 8.875M466.512 402.173l5.303 14.016M615.019 409.17l5.179-7.864M616.782 338.692l4.757 11.091M618.771 258.44l5.098 1.855M290.543 381.44l.12 13.103M305.042 379.59l-5.685 4.762M615.019 409.17l-5.519-2.384M607.372 340.826l3.361 13.753M385.761 426.54l-16.35 7.042M392.302 428.935l-6.541-2.395M391.433 429.308l.723-5.517M410.997 428.521l-5.197-10.603M572.563 355.524l2.146-10.3M574.71 345.224l12.644-5.437M294.363 473.499l-6.15 8.548M393.989 526.292l1.187-1.569M294.534 555.779l-6.935 10.327" style="fill:none;stroke:red;stroke-width:1.99999;stroke-linecap:round;stroke-linejoin:round;stroke-miterlimit:4;stroke-dasharray:none;stroke-opacity:1;visibility:visible"/><path d="m212.853 481.803-7.53-3.044M205.322 478.76l7.531 3.043M219.633 481.206l.289-5.373M227.719 469.532 216.575 480M220.375 481.707l1.271-2.29M223.13 478.663l-11.924 12.376M218.723 480.526l2.253-2.535" style="fill:none;stroke:red;stroke-width:.666665;stroke-linecap:round;stroke-linejoin:round;stroke-miterlimit:4;stroke-dasharray:none;stroke-opacity:1;visibility:visible"/><path d="m217.694 465.556-.854-19.804M221.577 475.623l5.851-4.435M220.375 481.707l8.522 11.149M227.083 479.639l1.193-2.828M223.216 478.155l5.725-1.059" style="fill:none;stroke:red;stroke-width:.999997;stroke-linecap:round;stroke-linejoin:round;stroke-miterlimit:4;stroke-dasharray:none;stroke-opacity:1;visibility:visible"/><path d="m218.227 474.57-.533-9.014M220.375 481.707l4.231-19.434" style="fill:none;stroke:red;stroke-width:1.99999;stroke-linecap:round;stroke-linejoin:round;stroke-miterlimit:4;stroke-dasharray:none;stroke-opacity:1;visibility:visible"/><path d="m223.217 478.155 6.42 6.515M218.295 475.384l9.424-5.852" style="fill:none;stroke:red;stroke-width:.999997;stroke-linecap:round;stroke-linejoin:round;stroke-miterlimit:4;stroke-dasharray:none;stroke-opacity:1;visibility:visible"/><path d="m615.019 409.17-29.139 13.797M471.23 477.265l-63.065 29.87M573.477 428.84l-97 45.94M394.84 513.441l-11.017 5.217M368.872 525.742l-61.93 29.328" style="fill:none;stroke:#00ff4a;stroke-width:.999997;stroke-linecap:round;stroke-linejoin:round;stroke-miterlimit:4;stroke-dasharray:none;stroke-opacity:1;visibility:visible" visibility="hidden"/><path d="m411.063 616.322 5.012-2.639" style="fill:none;stroke:#00ff4a;stroke-width:1.99999;stroke-linecap:round;stroke-linejoin:round;stroke-miterlimit:4;stroke-dasharray:none;stroke-opacity:1;visibility:visible" visibility="hidden"/><path d="m719.193 454.055-71.38-30.759" style="fill:none;stroke:#00ff4a;stroke-width:.999997;stroke-linecap:round;stroke-linejoin:round;stroke-miterlimit:4;stroke-dasharray:none;stroke-opacity:1;visibility:visible" visibility="hidden"/><path d="m707.552 460.185 11.64-6.13" style="fill:none;stroke:#00ff4a;stroke-width:1.99999;stroke-linecap:round;stroke-linejoin:round;stroke-miterlimit:4;stroke-dasharray:none;stroke-opacity:1;visibility:visible" visibility="hidden"/><path d="m633.532 417.146-18.513-7.976M570.895 538.471l159.337-84.437M404.316 626.745l155.148-82.216M404.54 634.566l-.224-7.821M404.316 626.745l-117.152-68.156M620.055 406.786l-5.036 2.384M615.019 409.17l-5.519-2.384" style="fill:none;stroke:#00ff4a;stroke-width:.999997;stroke-linecap:round;stroke-linejoin:round;stroke-miterlimit:4;stroke-dasharray:none;stroke-opacity:1;visibility:visible" visibility="hidden"/><path d="m313.354 554.91 58.275-27.675M386.59 520.133l8.33-4.083M408.24 509.847l59.492-28.247M479.93 475.805l64.467-30.62M544.053 445.35l29.39-13.956M585.84 425.512l20.145-9.576M610.48 413.805l4.52-2.14 15.764 6.807M645.043 424.642l71.413 30.856M416.075 613.684l82.818-43.612M562.755 536.439l7.605-4.005M498.894 570.072l55.46-29.208M584.067 525.211l62.144-32.72M646.211 492.491l61.341-32.305M609.5 406.786l-23.524 11.092M573.55 423.72l-101.161 47.647M461.019 476.711l-53.003 24.961M394.678 507.961l-16.412 7.728M363.317 522.73l-64.021 30.14M696.211 439.446l-43.383-18.608M625.205 408.995l-5.15-2.21M730.232 454.035l-.37 6.912M581.088 540.345l148.774-79.4M404.54 634.566l-116.941-68.461M404.54 634.566l164.893-88M374.97 602.108l-59.575-34.435" style="fill:none;stroke:#00ff4a;stroke-width:1.99999;stroke-linecap:round;stroke-linejoin:round;stroke-miterlimit:4;stroke-dasharray:none;stroke-opacity:1;visibility:visible" visibility="hidden"/><path d="m573.55 423.72 12.33-.753M476.477 474.78l-5.247 2.485M394.678 507.961l13.487-.825M585.84 425.512l-12.363 3.328M471.23 477.265l5.247-2.485M386.59 520.133l8.25-6.692M394.92 516.05l-11.097 2.608M378.266 515.689l-9.394 10.053M633.532 417.146l14.281 6.15M645.043 424.642l-11.511-7.496M570.36 532.434l.535 6.037M562.755 536.439l-3.291 8.09" style="fill:none;stroke:#00ff4a;stroke-width:.999997;stroke-linecap:round;stroke-linejoin:round;stroke-miterlimit:4;stroke-dasharray:none;stroke-opacity:1;visibility:visible" visibility="hidden"/><path d="m378.266 515.689-6.637 11.546M394.84 513.441l-8.25 6.692M383.823 518.658l11.098-2.608M394.678 507.961l13.562 1.886M476.477 474.78l-8.745 6.82M471.23 477.265l8.7-1.46M585.84 425.512l-12.396 5.882M573.55 423.72l12.29 1.792M610.48 413.805l-4.495 2.131M605.985 415.936l4.495-2.131M645.043 424.642l-14.279-6.17M633.532 417.146l11.511 7.496M559.464 544.53l3.291-8.091M570.895 538.471l-.535-6.037M562.755 536.439l-8.401 4.425M570.36 532.434l13.707-7.223M573.55 423.72l12.426-5.842M585.88 422.967l-12.33.753M471.23 477.265l1.159-5.898M472.389 471.367l-11.37 5.344M394.678 507.961l13.338-6.289M408.165 507.136l-13.487.825M371.629 527.235l6.637-11.546M378.266 515.689l-14.949 7.041M633.532 417.146l19.296 3.692M615.019 409.17l10.186-.175M569.433 546.566l11.655-6.221M570.895 538.471l-1.462 8.095" style="fill:none;stroke:#00ff4a;stroke-width:1.99999;stroke-linecap:round;stroke-linejoin:round;stroke-miterlimit:4;stroke-dasharray:none;stroke-opacity:1;visibility:visible" visibility="hidden"/><path d="m299.296 552.87-.698 6.154" style="fill:none;stroke:red;stroke-width:.999997;stroke-linecap:round;stroke-linejoin:round;stroke-miterlimit:4;stroke-dasharray:none;stroke-opacity:1;visibility:visible"/><path d="m465.867 418.83-5.567 2.47M404.316 626.745l-6.19-3.607M404.316 626.745l6.927-3.667" style="fill:none;stroke:red;stroke-width:1.99999;stroke-linecap:round;stroke-linejoin:round;stroke-miterlimit:4;stroke-dasharray:none;stroke-opacity:1;visibility:visible"/><path d="m298.598 559.024 8.345-3.954" style="fill:none;stroke:#00ff4a;stroke-width:.999997;stroke-linecap:round;stroke-linejoin:round;stroke-miterlimit:4;stroke-dasharray:none;stroke-opacity:1;visibility:visible" visibility="hidden"/><path d="m298.598 559.024 14.756-4.114M719.193 454.056l-2.737 1.442M298.598 559.024l.698-6.154" style="fill:none;stroke:#00ff4a;stroke-width:1.99999;stroke-linecap:round;stroke-linejoin:round;stroke-miterlimit:4;stroke-dasharray:none;stroke-opacity:1;visibility:visible" visibility="hidden"/></svg>