<svg xmlns="http://www.w3.org/2000/svg" baseProfile="full" height="1122.52" preserveAspectRatio="xMinYMin meet" style="width:912px;height:1303px" width="793.701" xml:space="preserve"><path d="m294.904 826.432.012.933M376.891 834.898l.01 1.377M400.072 833.992l148.175-14.594M376.902 836.275l10.026-.985" style="fill:none;stroke:red;stroke-width:.666665;stroke-linecap:round;stroke-linejoin:round;stroke-miterlimit:4;stroke-dasharray:none;stroke-opacity:1;visibility:visible"/><path d="m296.15 760.651-.458 1.755" style="fill:none;stroke:red;stroke-width:1.33333;stroke-linecap:round;stroke-linejoin:round;stroke-miterlimit:4;stroke-dasharray:none;stroke-opacity:1;visibility:visible"/><path d="m434.445 820.569 5.616 5.093M460.618 818.063l6.928 6.393" style="fill:none;stroke:red;stroke-width:.666665;stroke-linecap:round;stroke-linejoin:round;stroke-miterlimit:4;stroke-dasharray:none;stroke-opacity:1;visibility:visible"/><path d="M92.244 999.443h0M102.274 999.015h.015M92.634 999.243l.028.072.052.077.1.064.137.064.167.06.213.07.242.048.264.048.305.038.327.042.345.036.365.022.391.016.407.011.406.015h.414l.43-.015.418-.01.417-.025.417-.029.396-.033.392-.042.364-.053.343-.047.328-.049.29-.065.28-.063.23-.063.21-.077.166-.075.128-.065.1-.072.05-.08.025-.073M101.556 1001.939l.01-.015M92.89 999.52v-.016h-.013l-.039-.01M93.458 999.687h-.013l-.023-.015h-.04M94.28 999.824l-.025-.01h-.076M95.306 999.9h-.115M96.455 999.939l-.025-.012h-.088" style="fill:none;stroke:red;stroke-width:.999997;stroke-linecap:round;stroke-linejoin:round;stroke-miterlimit:4;stroke-dasharray:none;stroke-opacity:1;visibility:visible"/><path d="M97.673 999.9h-.09l-.038.012M98.846 999.824h-.085l-.03.013M99.91 999.698h-.037l-.039.01h-.027M100.783 999.532h-.064l-.013.01M101.428 999.33l-.039.015h-.024v.012M101.77 999.118l-.027.01-.01.017h.01M102.25 999.026h.027v-.01M102.289 999.015h0M101.807 998.914h-.027l.014.01h.013M101.872 998.887l-.065.028M92.358 999.165l.292-.047M92.13 999.213l.012.016h.015M92.61 999.315h.013v-.01H92.6M92.256 999.43h-.012v.012M92.6 999.33v-.027M101.807 998.924v-.01M102.15 998.824l.013.165M101.77 999.154v-.033M101.428 999.393v-.063M99.332 999.866l.05 2.47M95.142 999.98l.052 2.468M92.838 999.543v-.047M92.634 999.243v-.1l.028-.092.01-.036M101.77 998.914l.012.075M192.846 855.014l-100.298-13.89M206.418 853.682l.015 1.379M208 960.698l.028 1.935M393.229 836.657l-5.972-.695M392.96 744.492l.268 92.166M393.505 936.487l-5.932-.973M393.252 845.498l.252 90.99" style="fill:none;stroke:red;stroke-width:.999997;stroke-linecap:round;stroke-linejoin:round;stroke-miterlimit:4;stroke-dasharray:none;stroke-opacity:1;visibility:visible"/><path d="m206.474 855.675 186.796-18.403" style="fill:none;stroke:red;stroke-width:.666665;stroke-linecap:round;stroke-linejoin:round;stroke-miterlimit:4;stroke-dasharray:none;stroke-opacity:1;visibility:visible"/><path d="m197.21 756.103 4.073 266.06M393.53 945.214l.128 45.401M559.316 921.22l-.328 42.277M560.798 734.536l-.685 85.677" style="fill:none;stroke:red;stroke-width:.999997;stroke-linecap:round;stroke-linejoin:round;stroke-miterlimit:4;stroke-dasharray:none;stroke-opacity:1;visibility:visible"/><path d="m399.835 836.626 160.32-15.799" style="fill:none;stroke:red;stroke-width:.666665;stroke-linecap:round;stroke-linejoin:round;stroke-miterlimit:4;stroke-dasharray:none;stroke-opacity:1;visibility:visible"/><path d="M399.794 834.731v1.28M208.026 962.633l185.477-26.144M400.033 933.769v1.797M560.048 828.436l-.67 84.664" style="fill:none;stroke:red;stroke-width:.999997;stroke-linecap:round;stroke-linejoin:round;stroke-miterlimit:4;stroke-dasharray:none;stroke-opacity:1;visibility:visible"/><path d="m553.371 922.081 5.945-.861M387.598 946.063l5.932-.85M387.28 846.106l5.972-.608M554.066 829.044l5.981-.608" style="fill:none;stroke:red;stroke-width:1.99999;stroke-linecap:round;stroke-linejoin:round;stroke-miterlimit:4;stroke-dasharray:none;stroke-opacity:1;visibility:visible"/><path d="m400.033 935.565 159.344-22.467M560.113 820.214l-5.972-.61M559.378 913.1l-5.93-.852M192.846 865.575h.016M192.846 865.575h0-.013.013M99.974 852.214h0-.015M99.96 852.214h.028M100.923 852.152h-.065l-.015.015M100.897 852.152h.028" style="fill:none;stroke:red;stroke-width:.999997;stroke-linecap:round;stroke-linejoin:round;stroke-miterlimit:4;stroke-dasharray:none;stroke-opacity:1;visibility:visible"/><path d="m553.447 912.248-101.994-14.43" style="fill:none;stroke:red;stroke-width:.666665;stroke-linecap:round;stroke-linejoin:round;stroke-miterlimit:4;stroke-dasharray:none;stroke-opacity:1;visibility:visible"/><path d="m194.54 962.583-99.728-19.23M451.606 741.014l-.007 5.253" style="fill:none;stroke:red;stroke-width:.999997;stroke-linecap:round;stroke-linejoin:round;stroke-miterlimit:4;stroke-dasharray:none;stroke-opacity:1;visibility:visible"/><path d="m353.27 818.526-67.825 6.043" style="fill:none;stroke:red;stroke-width:.666665;stroke-linecap:round;stroke-linejoin:round;stroke-miterlimit:4;stroke-dasharray:none;stroke-opacity:1;visibility:visible"/><path d="m284.362 750.943.483 49.321M284.845 800.264l.23 23.717M285.075 824.93l-78.996 7.035" style="fill:none;stroke:red;stroke-width:.999997;stroke-linecap:round;stroke-linejoin:round;stroke-miterlimit:4;stroke-dasharray:none;stroke-opacity:1;visibility:visible"/><path d="m192.533 832.83-92.354 8.224" style="fill:none;stroke:red;stroke-width:.666665;stroke-linecap:round;stroke-linejoin:round;stroke-miterlimit:4;stroke-dasharray:none;stroke-opacity:1;visibility:visible"/><path d="m100.112 839.247.028 1.195M90.46 746.695l5.58 252.08M286.404 960.709l.101 9.759M451.416 936.83v9.121M285.148 832.382l.14 13.576M285.148 832.382l-5.373.49M285.39 856.527l.607 62.417M102.312 940.724l.039 1.67M113.99 841.72l-2.796.237M285.997 826.231l.013.937M290.716 825.804l-4.719.427M451.504 839.54l-.052 58.279" style="fill:none;stroke:red;stroke-width:.999997;stroke-linecap:round;stroke-linejoin:round;stroke-miterlimit:4;stroke-dasharray:none;stroke-opacity:1;visibility:visible"/><path d="m285.997 919.308-78.465 10.015M194.034 931.046l-91.684 11.713M451.452 898.184l-51.497 6.576M387.47 906.353l-94.984 12.117" style="fill:none;stroke:red;stroke-width:.666665;stroke-linecap:round;stroke-linejoin:round;stroke-miterlimit:4;stroke-dasharray:none;stroke-opacity:1;visibility:visible"/><path d="m292.474 916.564.013 1.541M446.051 897.046l5.401.773M279.673 823.347l5.403.636M280.635 918.07l5.361.872M117.391 842.173l-3.403-.453M117.391 842.173l.192.036.15.027.129.04.086.036.036.036.015.038-.025.04-.064.039-.103.037-.137.039-.179.036-.201.027-.24.04-.254.018-.29.028M289.474 827.574l.219.028.252.024.264.012.278.015.304.009.318.013h.972l.313-.013h.32l.315-.01.294-.026.276-.01.255-.03.24-.023.2-.026.18-.027.15-.036.113-.027.089-.034.052-.027.023-.041M289.474 827.574l-3.464-.405M294.182 826.208l.2.039.167.025.138.027M294.182 826.208l-3.467-.404M294.888 826.412l.013.932M118.011 842.907l-.012-.53" style="fill:none;stroke:red;stroke-width:.999997;stroke-linecap:round;stroke-linejoin:round;stroke-miterlimit:4;stroke-dasharray:none;stroke-opacity:1;visibility:visible"/><path d="M95.583 753.245h.101l.05.016.042.012.036.021.036.027M95.316 753.448l.039-.05.041-.04.035-.04.037-.023.043-.024.048-.01M95.127 753.689l.19-.241M94.797 753.42l.067.053.049.039.05.047.053.04.049.04.063.049M94.95 753.159l-.153.261M95.027 752.814l.013.064-.013.064v.05l-.027.051-.012.05-.038.065M94.863 752.51l.036.037.041.042.023.036.025.05.027.05.012.066M94.673 752.247l.192.263M94.888 751.893l-.215.355M95.394 752.131l-.05.013-.066-.013-.048-.012-.037-.015-.05-.022-.029-.015-.025-.021-.024-.027-.178-.127M95.648 751.941l-.027.052-.038.036-.038.028-.025.037-.052.011-.05.028M95.785 751.689l-.137.252M96.115 751.956l-.065-.053-.051-.036-.048-.039-.052-.037-.05-.054-.065-.048M96.013 752.232l.103-.276M95.951 752.564v-.116l.012-.05.015-.053.01-.061.024-.052M96.103 752.878l-.039-.037-.026-.039-.023-.05-.025-.038-.014-.05-.012-.063M96.28 753.07l-.179-.193M96.05 753.458l.052-.061.036-.066.027-.061.037-.061.041-.064.038-.076M95.849 753.319l.201.139M95.394 752.131h.027M92.99 753.738h0l-.087-.225-.077-.231-.052-.239-.025-.193-.011-.173.01-.188.013-.194.04-.19.05-.176.052-.178.074-.176.09-.162.1-.151.036-.053" style="fill:none;stroke:red;stroke-width:.666665;stroke-linecap:round;stroke-linejoin:round;stroke-miterlimit:4;stroke-dasharray:none;stroke-opacity:1;visibility:visible"/><path d="M451.619 719.47v.039M197.21 756.103l-.15-9.688M566.564 725.896l-369.504 20.52M84.96 737.08l112.1 9.336" style="fill:none;stroke:red;stroke-width:.999997;stroke-linecap:round;stroke-linejoin:round;stroke-miterlimit:4;stroke-dasharray:none;stroke-opacity:1;visibility:visible"/><path d="M92.295 1001.894h0M92.75 1002.113h0M102.097 1001.707h.013M102.337 1001.469h0M92.13 999.213h0M92.737 1001.948l-.39-.037M92.295 1001.894h0M92.295 1001.894l.027.016h.024M92.295 1001.697l-.077-.016M92.18 1001.67l.015.01h.024M102.337 1001.469h0M102.3 1001.493l-.19.028M102.3 1001.493l.028-.015.008-.01M102.11 1001.707v-.01M102.06 1001.719l-.305.043M102.06 1001.719h.027l.009-.012M92.85 1002.113h-.035M92.75 1002.113h.064M92.737 1002.101h0l.013.01M102.289 999.015l-.015-.016h-.024M102.173 998.99l.079.012M92.169 999.203h-.028l-.01.01M92.169 999.203l.19-.037M92.13 999.213h0M101.756 1001.762l-.035.047-.052.076-.052.054-.077.074-.088.061-.087.053-.153.078-.175.073-.18.048-.202.068-.19.05-.201.038-.227.047-.23.038-.239.04-.252.023-.267.043-.253.021-.279.027-.277.026-.279.012-.265.015-.279.01h-.278l-.264.01h-.544l-.268-.01h-.251l-.253-.01-.254-.015-.228-.026-.238-.012-.218-.027-.214-.021-.19-.043-.204-.023-.174-.04-.166-.038-.165-.047-.14-.053-.19-.076-.163-.102-.114-.088-.052-.05M92.18 1001.67l-.05-2.456M92.295 1001.894v-.196M102.337 1001.469l-.048-2.453M102.173 998.99v-.177M102.11 1001.697v-.177M92.737 1002.101v-.153" style="fill:none;stroke:red;stroke-width:1.99999;stroke-linecap:round;stroke-linejoin:round;stroke-miterlimit:4;stroke-dasharray:none;stroke-opacity:1;visibility:visible"/><path d="m100.139 840.44-7.59.681" style="fill:none;stroke:red;stroke-width:.999997;stroke-linecap:round;stroke-linejoin:round;stroke-miterlimit:4;stroke-dasharray:none;stroke-opacity:1;visibility:visible"/><path d="m192.995 864.537-100.246-14.37M192.822 853.19l-92.684-12.75" style="fill:none;stroke:red;stroke-width:1.99999;stroke-linecap:round;stroke-linejoin:round;stroke-miterlimit:4;stroke-dasharray:none;stroke-opacity:1;visibility:visible"/><path d="m499.877 821.595-39.07-5.753M384.833 822.737l-16.805 1.844M443.342 816.313l-41.515 4.556M385.09 814.998l-23.681 2.599M443.142 808.731l-41.583 4.46M385.06 813.289l-25.74 2.825M443.142 806.83l-41.627 4.652M544.305 816.946l-83.017-11.243M541.385 818.44l-80.537-10.908" style="fill:none;stroke:red;stroke-width:.666665;stroke-linecap:round;stroke-linejoin:round;stroke-miterlimit:4;stroke-dasharray:none;stroke-opacity:1;visibility:visible"/><path d="m191.288 755.586 4.163 265.283M206.418 853.682l180.838-17.719M386.966 744.846l.292 91.117M399.794 834.731l154.348-15.127M554.775 734.892l-.633 84.713M553.371 922.081l-.305 40.45M387.598 946.063l.139 43.44M400.033 933.769l153.414-21.521M554.066 829.044l-.62 83.204M208 960.698l179.574-25.187M387.28 846.106l.292 89.406M204.965 755.65l1.453 98.03M206.57 864.587l1.43 96.112M208.163 972.034l179.434-25.972M208.163 972.034l.721 48.89M400.057 944.266l153.313-22.185M400.057 944.266l.101 45.29M566.49 734.194l-1.884 228.389M399.578 744.099l.216 90.634" style="fill:none;stroke:red;stroke-width:1.99999;stroke-linecap:round;stroke-linejoin:round;stroke-miterlimit:4;stroke-dasharray:none;stroke-opacity:1;visibility:visible"/><path d="m445.96 753.937.233 73M457.26 751.415l.17 71.333M451.515 752.648l.17 71.333" style="fill:none;stroke:red;stroke-width:.666665;stroke-linecap:round;stroke-linejoin:round;stroke-miterlimit:4;stroke-dasharray:none;stroke-opacity:1;visibility:visible"/><path d="m206.57 864.587 180.71-18.479M399.815 844.826l154.25-15.783M399.815 844.826l.219 88.942M192.973 972.435l-.05-.01-.051-.026M194.692 972.664h-.377l-.264-.012-.271-.037-.276-.035-.265-.067-.266-.078M192.872 972.399l-.101-.064-.115-.075-.103-.085-.073-.081-.061-.1-.066-.102-.052-.1-.033-.114-.016-.112-.013-.063M104.018 954.07l-.023.013-.037.012M100.694 954.17l-.039-.012-.037-.027M102.731 954.36h-.039M102.843 954.35h-.024l-.013.012h-.075M103.958 954.094l-.215.076-.228.063-.216.054-.228.036-.228.026M102.692 954.36l-.228.028h-.443l-.214-.013-.228-.015-.294-.048-.3-.065-.292-.079M100.618 954.13l-.101-.048-.1-.064-.091-.079-.073-.07-.064-.09-.048-.086-.052-.106-.042-.098-.022-.112-.014-.104M191.19 865.31l-.035-.016-.016-.01M192.29 865.536h-.128M192.419 865.545h-.117l-.011-.01M192.861 865.575h0M192.861 865.575h0-.016M192.163 865.536l-.203-.039-.189-.021-.203-.052-.189-.05-.188-.063M192.846 865.575h-.087l-.089-.013h-.165l-.084-.015M193.01 865.575h-.15M191.139 865.284l-.127-.077-.112-.088-.117-.118-.085-.112-.052-.102-.036-.099-.04-.113-.026-.112v-.283M101.884 851.886l-.027.016-.012.01M98.392 851.963l-.015-.015h-.024M99.43 852.177h-.113M99.569 852.205l-.027-.013h-.088l-.024-.015M99.987 852.214h.012M99.987 852.214h0-.013M100.528 852.193l-.19.012M100.843 852.166l.053-.015M100.843 852.166h-.112l-.037.01h-.1l-.064.018M101.845 851.91l-.19.064-.191.063-.187.037-.19.053-.19.026M99.316 852.177l-.19-.025-.177-.038-.19-.038-.178-.048-.188-.064M99.974 852.214h-.077l-.09-.01h-.238M100.34 852.205h-.076l-.063.01H100M102.261 851.532l-.012.016-.061.085-.066.08-.074.07-.09.054-.074.05M98.353 851.949l-.112-.075-.115-.074-.102-.1-.087-.131-.076-.137-.05-.15-.013-.101-.013-.117v-.1l.013-.064M451.452 897.818v.076" style="fill:none;stroke:red;stroke-width:1.99999;stroke-linecap:round;stroke-linejoin:round;stroke-miterlimit:4;stroke-dasharray:none;stroke-opacity:1;visibility:visible"/><path d="m457.096 897.098-5.641.72" style="fill:none;stroke:red;stroke-width:.999997;stroke-linecap:round;stroke-linejoin:round;stroke-miterlimit:4;stroke-dasharray:none;stroke-opacity:1;visibility:visible"/><path d="m553.46 910.668-96.362-13.57" style="fill:none;stroke:red;stroke-width:1.99999;stroke-linecap:round;stroke-linejoin:round;stroke-miterlimit:4;stroke-dasharray:none;stroke-opacity:1;visibility:visible"/><path d="m102.351 942.393-7.536.961" style="fill:none;stroke:red;stroke-width:.999997;stroke-linecap:round;stroke-linejoin:round;stroke-miterlimit:4;stroke-dasharray:none;stroke-opacity:1;visibility:visible"/><path d="m194.679 971.98-99.664-19.695M194.503 960.042l-92.152-17.648M457.299 740.672l-.007 6.207M457.171 838.958l-.076 58.14M457.043 936.019v9.095M290.92 750.55l.453 49.195M291.309 799.746l.217 22.34M98.126 747.376l1.985 91.87" style="fill:none;stroke:red;stroke-width:1.99999;stroke-linecap:round;stroke-linejoin:round;stroke-miterlimit:4;stroke-dasharray:none;stroke-opacity:1;visibility:visible"/><path d="m96.037 998.775 7.503-1.113" style="fill:none;stroke:red;stroke-width:.999997;stroke-linecap:round;stroke-linejoin:round;stroke-miterlimit:4;stroke-dasharray:none;stroke-opacity:1;visibility:visible"/><path d="m102.604 954.375.936 43.287M292.865 959.775l.101 9.728M279.775 832.872l-73.573 6.805M192.632 840.932l-53.17 4.923M100.392 852.205l1.92 88.52M359.27 825.528l-67.593 6.248.123 13.532M291.904 855.86l.57 60.704M446.142 741.342l-.003 4.925M446.086 840.098l-.033 56.947M446.028 937.612v7.452M352.316 816.91l-60.728 5.375M281.077 961.48l.079 7.973M85.159 746.237l5.656 251.387M279.673 823.347l-73.61 6.517M192.48 831.065l-92.366 8.183M278.952 751.262l.492 49.419M279.444 800.682l.23 22.667M446.051 897.046l-46.096 5.857M387.47 904.497l-94.997 12.068M279.775 832.872l.14 13.601M280.013 857.087l.623 60.983-73.13 9.283M194.01 929.075l-91.697 11.65" style="fill:none;stroke:red;stroke-width:1.99999;stroke-linecap:round;stroke-linejoin:round;stroke-miterlimit:4;stroke-dasharray:none;stroke-opacity:1;visibility:visible"/><path d="m90.815 997.625 5.223 1.15" style="fill:none;stroke:red;stroke-width:.999997;stroke-linecap:round;stroke-linejoin:round;stroke-miterlimit:4;stroke-dasharray:none;stroke-opacity:1;visibility:visible"/><path d="m91.826 998.685.028.05.05.051.086.05.128.05.557.118" style="fill:none;stroke:red;stroke-width:1.99999;stroke-linecap:round;stroke-linejoin:round;stroke-miterlimit:4;stroke-dasharray:none;stroke-opacity:1;visibility:visible"/><path d="m101.72 998.914.215-.037.189-.051.15-.05.127-.053.091-.049.061-.053.014-.063" style="fill:none;stroke:red;stroke-width:.999997;stroke-linecap:round;stroke-linejoin:round;stroke-miterlimit:4;stroke-dasharray:none;stroke-opacity:1;visibility:visible"/><path d="m91.813 997.838.013.847M102.553 997.812l.013.747" style="fill:none;stroke:red;stroke-width:1.99999;stroke-linecap:round;stroke-linejoin:round;stroke-miterlimit:4;stroke-dasharray:none;stroke-opacity:1;visibility:visible"/><path d="M196.933 1022.836h0M207.506 1022.373h.016M197.342 1022.62l.03.079.053.081.109.07.144.07.176.063.225.074.254.051.278.052.322.043.345.041.364.041.385.027.411.013.43.012.425.016h.44l.453-.016.439-.012.441-.026.439-.03.417-.036.412-.044.385-.057.362-.052.345-.052.307-.07.294-.069.24-.068.226-.08.172-.081.136-.07.105-.078.053-.087.026-.08M206.748 1025.515l.01-.013M197.612 1022.918v-.017h-.013l-.043-.011M198.211 1023.097h-.013l-.026-.019h-.041M199.079 1023.243l-.027-.01h-.078M200.16 1023.325h-.121" style="fill:none;stroke:red;stroke-width:.999997;stroke-linecap:round;stroke-linejoin:round;stroke-miterlimit:4;stroke-dasharray:none;stroke-opacity:1;visibility:visible"/><path d="m201.37 1023.367-.027-.015h-.092M202.654 1023.325h-.097l-.038.012M203.89 1023.243h-.09l-.029.015M205.013 1023.108h-.04l-.041.01h-.028M205.934 1022.93h-.068l-.015.01M206.612 1022.713l-.04.016h-.025v.012M206.973 1022.483l-.028.012-.012.016h.012M207.48 1022.387h.028v-.013M207.521 1022.373h0M207.013 1022.265h-.028l.013.012h.015M207.081 1022.235l-.068.03M197.051 1022.535l.308-.052M196.813 1022.587l.012.019h.015M197.318 1022.696h.013v-.01h-.024M196.944 1022.821h-.012v.013M197.308 1022.713v-.028M207.013 1022.278v-.013M207.373 1022.17l.015.177M206.973 1022.523v-.04M206.612 1022.78v-.067M204.404 1023.287l.052 2.653M199.986 1023.41l.055 2.653M197.556 1022.941v-.052M197.342 1022.62v-.108l.03-.097.011-.042M206.973 1022.265l.012.081" style="fill:none;stroke:red;stroke-width:.999997;stroke-linecap:round;stroke-linejoin:round;stroke-miterlimit:4;stroke-dasharray:none;stroke-opacity:1;visibility:visible"/><path d="M196.985 1025.47h0M197.463 1025.703h0M207.318 1025.268h.015M207.57 1025.013h0M196.813 1022.587h0M197.45 1025.527l-.412-.041M196.985 1025.47h0M196.985 1025.47l.028.016h.027M196.985 1025.258l-.081-.017M196.865 1025.228l.013.013h.026M207.57 1025.013h0M207.533 1025.037l-.199.028M207.533 1025.037l.028-.016.01-.01M207.332 1025.268v-.01M207.28 1025.28l-.321.045M207.28 1025.28h.028l.01-.012M197.57 1025.703h-.039M197.463 1025.703h.07M197.45 1025.691h0l.012.012M207.521 1022.373l-.016-.016h-.025M207.397 1022.346l.083.012M196.852 1022.577h-.028l-.01.01M196.852 1022.577l.199-.041M196.813 1022.587h0M206.959 1025.325l-.037.05-.056.083-.051.059-.084.079-.092.066-.092.058-.161.08-.186.081-.188.052-.214.073-.199.052-.213.043-.236.05-.246.04-.25.045-.268.024-.282.045-.265.023-.295.029-.29.027-.295.013-.279.019-.294.009h-.294l-.277.01h-.577l-.279-.01h-.265l-.268-.01-.267-.018-.239-.028-.257-.012-.225-.03-.227-.022-.2-.045-.215-.024-.185-.044-.173-.042-.174-.049-.148-.059-.196-.078-.174-.111-.12-.097-.055-.054M196.865 1025.228l-.052-2.639M196.985 1025.47v-.213M207.57 1025.013l-.05-2.639M207.397 1022.346v-.19M207.332 1025.258v-.192M197.45 1025.691v-.164" style="fill:none;stroke:red;stroke-width:1.99999;stroke-linecap:round;stroke-linejoin:round;stroke-miterlimit:4;stroke-dasharray:none;stroke-opacity:1;visibility:visible"/><path d="m200.93 1022.116 7.91-1.196M195.424 1020.88l5.507 1.236" style="fill:none;stroke:red;stroke-width:.999997;stroke-linecap:round;stroke-linejoin:round;stroke-miterlimit:4;stroke-dasharray:none;stroke-opacity:1;visibility:visible"/><path d="m196.491 1022.02.028.052.053.057.092.052.134.055.588.127M206.92 1022.265l.225-.04.2-.057.159-.052.135-.056.093-.051.065-.057.015-.071M196.477 1021.108l.015.913M207.799 1021.083l.015.799" style="fill:none;stroke:red;stroke-width:1.99999;stroke-linecap:round;stroke-linejoin:round;stroke-miterlimit:4;stroke-dasharray:none;stroke-opacity:1;visibility:visible"/><path d="M282.529 971.167h0M291.798 970.77h.015M282.888 970.98l.028.068.047.072.092.059.128.058.153.056.196.064.223.046.244.048.282.033.302.036.321.037.34.022.356.012.375.012.378.014h.384l.399-.014.384-.012.388-.024.38-.024.368-.032.364-.038.337-.049.315-.045.301-.046.274-.058.253-.06.21-.06.203-.071.148-.068.122-.064.09-.064.047-.075.021-.069M291.134 973.484l.01-.012M283.126 971.238v-.013h-.012l-.036-.011M283.651 971.396h-.013l-.02-.017h-.038M284.411 971.52l-.024-.01h-.068M285.355 971.591h-.105" style="fill:none;stroke:red;stroke-width:.999997;stroke-linecap:round;stroke-linejoin:round;stroke-miterlimit:4;stroke-dasharray:none;stroke-opacity:1;visibility:visible"/><path d="m286.418 971.626-.024-.01h-.079M287.547 971.591h-.084l-.036.012M288.63 971.52h-.081l-.023.012M289.612 971.404h-.032l-.036.01h-.024M290.418 971.25h-.056l-.013.01M291.016 971.063l-.037.013h-.02v.011M291.33 970.863l-.024.01-.008.017h.008M291.775 970.78h.025v-.01M291.813 970.77h0M291.367 970.676h-.027l.014.01h.013M291.427 970.65l-.06.028M282.633 970.909l.27-.045M282.423 970.953l.01.015h.014M282.866 971.048h.013v-.01h-.021M282.54 971.155h-.01v.012M282.858 971.063v-.025M291.367 970.685v-.01M291.682 970.591l.013.153M291.33 970.897v-.032M291.016 971.121v-.059M289.078 971.559l.047 2.295M285.206 971.665l.047 2.295M283.078 971.26v-.045M282.888 970.98v-.092l.028-.085.01-.034M291.33 970.676l.01.068" style="fill:none;stroke:red;stroke-width:.999997;stroke-linecap:round;stroke-linejoin:round;stroke-miterlimit:4;stroke-dasharray:none;stroke-opacity:1;visibility:visible"/><path d="M282.575 973.444h0M282.995 973.647h0M291.635 973.272h.01M291.857 973.048h0M282.423 970.953h0M282.984 973.493l-.361-.033M282.575 973.444h0M282.575 973.444l.025.015h.022M282.575 973.26l-.07-.015M282.471 973.236l.01.01h.023M291.857 973.048h0M291.824 973.072l-.18.027M291.824 973.072l.023-.012.009-.012M291.645 973.272v-.012M291.6 973.281l-.28.039M291.6 973.281h.023l.012-.01M283.087 973.647h-.03M282.995 973.647h.06M282.984 973.638h0l.01.01M291.813 970.77l-.015-.016h-.021M291.703 970.745l.072.012M282.46 970.945h-.027l-.008.008M282.46 970.945l.173-.036M282.423 970.953h0M291.32 973.32l-.033.044-.05.07-.045.05-.07.07-.083.057-.08.05-.142.071-.161.068-.165.047-.19.06-.174.049-.187.032-.207.045-.216.036-.221.036-.23.023-.249.039-.234.018-.258.027-.256.024-.257.01-.243.017-.261.008h-.256l-.245.009h-.506l-.244-.01h-.232l-.234-.007-.236-.018-.207-.024-.224-.009-.197-.027-.202-.018-.174-.039-.187-.023-.165-.036-.151-.036-.153-.045-.127-.05-.172-.067-.156-.095-.104-.084-.05-.045M282.471 973.236l-.048-2.281M282.575 973.444v-.184M291.857 973.048l-.044-2.277M291.703 970.745v-.163M291.645 973.26v-.164M282.984 973.638v-.144" style="fill:none;stroke:red;stroke-width:1.99999;stroke-linecap:round;stroke-linejoin:round;stroke-miterlimit:4;stroke-dasharray:none;stroke-opacity:1;visibility:visible"/><path d="m286.465 970.483 6.504-.972M281.208 969.48l5.256 1.004" style="fill:none;stroke:red;stroke-width:.999997;stroke-linecap:round;stroke-linejoin:round;stroke-miterlimit:4;stroke-dasharray:none;stroke-opacity:1;visibility:visible"/><path d="m282.142 970.462.027.045.044.048.082.047.116.048.516.11M291.285 970.676l.199-.033.174-.05.14-.046.12-.05.079-.045.06-.05.01-.06M282.129 969.675l.013.788M292.057 969.652l.01.692" style="fill:none;stroke:red;stroke-width:1.99999;stroke-linecap:round;stroke-linejoin:round;stroke-miterlimit:4;stroke-dasharray:none;stroke-opacity:1;visibility:visible"/><path d="M389.163 991.316h0M398.942 990.902h.012M389.541 991.124l.03.068.05.076.097.061.132.063.164.057.207.067.236.05.259.045.296.037.318.039.339.036.356.024.38.013.395.01.394.017h.41l.416-.016.406-.011.41-.024.402-.028.388-.03.383-.04.355-.053.333-.046.32-.048.284-.062.27-.061.222-.064.212-.072.159-.072.126-.064.098-.07.049-.077.023-.073M398.24 993.733l.01-.012M389.794 991.392v-.016h-.013l-.039-.01M390.346 991.553h-.013l-.023-.016h-.037M391.148 991.686l-.024-.01h-.075M392.148 991.76h-.115" style="fill:none;stroke:red;stroke-width:.999997;stroke-linecap:round;stroke-linejoin:round;stroke-miterlimit:4;stroke-dasharray:none;stroke-opacity:1;visibility:visible"/><path d="m393.266 991.796-.025-.01h-.083M394.455 991.76h-.09l-.037.012M395.598 991.686h-.085l-.023.012M396.635 991.564h-.036l-.037.01h-.026M397.486 991.402h-.064l-.012.012M398.117 991.207l-.041.015h-.022v.01M398.447 991.001l-.025.008-.007.017h.007M398.919 990.913h.025v-.01M398.954 990.902h0M398.486 990.803h-.027l.011.01h.016M398.549 990.777l-.063.028M389.273 991.048l.283-.047M389.052 991.095l.01.015h.015M389.52 991.191h.01v-.01h-.022M389.173 991.303h-.01v.013M389.509 991.207v-.025M398.486 990.814v-.01M398.82 990.717l.01.159M398.447 991.037v-.035M398.117 991.268v-.061M396.072 991.727l.047 2.392M391.986 991.836l.05 2.393M389.742 991.414v-.047M389.541 991.124v-.099l.03-.088.009-.034M398.447 990.803l.013.073" style="fill:none;stroke:red;stroke-width:.999997;stroke-linecap:round;stroke-linejoin:round;stroke-miterlimit:4;stroke-dasharray:none;stroke-opacity:1;visibility:visible"/><path d="M389.213 993.693h0M389.653 993.902h0M398.768 993.512h.013M399.002 993.28h0M389.052 991.095h0M389.643 993.743l-.38-.035M389.213 993.693h0M389.213 993.693l.025.015h.024M389.213 993.5l-.076-.015M389.101 993.474l.013.012h.023M399.002 993.28h0M398.966 993.303l-.185.028M398.966 993.303l.028-.013.008-.011M398.78 993.512v-.012M398.73 993.523l-.293.039M398.73 993.523h.025l.012-.012M389.75 993.902h-.03M389.653 993.902h.065M389.643 993.892h0l.01.01M398.954 990.902l-.012-.016h-.021M398.84 990.876l.08.01M389.09 991.083h-.028l-.008.012M389.09 991.083l.184-.035M389.052 991.095h0M398.437 993.562l-.037.045-.05.074-.049.052-.075.074-.086.06-.086.052-.146.072-.17.072-.178.047-.199.065-.181.047-.199.037-.221.05-.224.034-.235.038-.244.024-.259.041-.249.02-.27.027-.269.024-.272.014-.26.015-.273.007h-.272l-.256.01h-.535l-.258-.01h-.244l-.246-.007-.246-.015-.222-.029-.237-.01-.208-.026-.21-.02-.187-.041-.196-.024-.172-.038-.16-.034-.162-.05-.137-.052-.181-.07-.163-.099-.11-.087-.053-.05M389.101 993.474l-.05-2.379M389.213 993.693v-.193M399.002 993.28l-.048-2.379M398.84 990.876v-.17M398.78 993.5v-.17M389.643 993.892v-.148" style="fill:none;stroke:red;stroke-width:1.99999;stroke-linecap:round;stroke-linejoin:round;stroke-miterlimit:4;stroke-dasharray:none;stroke-opacity:1;visibility:visible"/><path d="m393.653 990.647 6.523-1.056M387.77 989.553l5.883 1.093" style="fill:none;stroke:red;stroke-width:.999997;stroke-linecap:round;stroke-linejoin:round;stroke-miterlimit:4;stroke-dasharray:none;stroke-opacity:1;visibility:visible"/><path d="m388.753 990.582.028.047.048.05.087.05.122.048.544.113M398.4 990.803l.212-.035.183-.049.148-.052.122-.05.086-.046.062-.052.014-.063M388.742 989.76l.012.823M399.213 989.736l.013.721" style="fill:none;stroke:red;stroke-width:1.99999;stroke-linecap:round;stroke-linejoin:round;stroke-miterlimit:4;stroke-dasharray:none;stroke-opacity:1;visibility:visible"/><path d="M447.252 946.645h0M455.951 946.281h.015M447.588 946.475l.028.06.04.067.09.053.117.055.146.05.186.059.21.041.227.042.263.032.286.034.3.034.316.017.34.012.354.012.349.013h.363l.37-.013.36-.012.366-.019.36-.024.345-.029.336-.033.323-.047.292-.041.284-.042.257-.054.237-.055.199-.052.19-.067.14-.062.113-.058.082-.057.047-.07.019-.065M455.33 948.765l.008-.01M447.812 946.71v-.013h-.012l-.032-.01M448.305 946.852h-.012l-.021-.013h-.034M449.017 946.969l-.023-.01h-.064M449.908 947.031h-.101" style="fill:none;stroke:red;stroke-width:.999997;stroke-linecap:round;stroke-linejoin:round;stroke-miterlimit:4;stroke-dasharray:none;stroke-opacity:1;visibility:visible"/><path d="m450.903 947.065-.021-.01h-.075M451.963 947.031h-.081l-.031.012M452.977 946.969h-.075l-.022.01M453.9 946.86h-.032l-.033.01h-.022M454.658 946.72h-.055l-.013.01M455.218 946.548l-.036.013h-.016v.008M455.515 946.367l-.024.01-.008.014h.008M455.931 946.29h.021v-.01M455.965 946.281h0M455.549 946.194h-.027l.014.01h.013M455.603 946.17l-.055.025M447.348 946.408l.255-.04M447.153 946.45l.01.013h.011M447.57 946.535h.01v-.007h-.018M447.262 946.636h-.01v.01M447.562 946.548v-.02M455.549 946.205v-.01M455.843 946.119l.013.139M455.515 946.397v-.028M455.218 946.602v-.053M453.4 947.004l.041 2.097M449.765 947.102l.044 2.097M447.767 946.73v-.041M447.588 946.475v-.084l.028-.08.008-.03M455.515 946.194l.008.063" style="fill:none;stroke:red;stroke-width:.999997;stroke-linecap:round;stroke-linejoin:round;stroke-miterlimit:4;stroke-dasharray:none;stroke-opacity:1;visibility:visible"/><path d="M447.296 948.73h0M447.69 948.913h0M455.797 948.57h.012M456.007 948.367h0M447.153 946.45h0M447.679 948.774l-.339-.03M447.296 948.73h0M447.296 948.73l.023.012h.021M447.296 948.559l-.065-.012M447.196 948.537l.012.01h.023M456.007 948.367h0M455.973 948.387l-.164.024M455.973 948.387l.025-.012.008-.008M455.81 948.57v-.01M455.767 948.58l-.265.033M455.767 948.58h.021l.008-.012M447.774 948.913h-.028M447.69 948.913h.057M447.679 948.904h0l.01.01M455.965 946.281l-.015-.015h-.017M455.863 946.258l.07.01M447.187 946.44h-.024l-.008.01M447.187 946.44l.161-.03M447.153 946.45h0M455.502 948.613l-.03.043-.046.064-.044.044-.068.062-.075.056-.073.043-.136.065-.15.063-.157.041-.174.058-.164.044-.178.029-.194.041-.202.032-.208.036-.218.019-.232.037-.22.018-.239.022-.241.022-.24.01-.232.012-.242.01h-.24l-.229.009h-.476l-.23-.01h-.218l-.219-.009-.218-.012-.199-.024-.21-.008-.186-.022-.187-.018-.164-.037-.177-.019-.153-.036-.142-.032-.142-.041-.123-.045-.163-.062-.142-.088-.098-.076-.049-.04M447.196 948.537l-.043-2.085M447.296 948.73v-.17M456.007 948.367l-.041-2.085M455.863 946.258v-.15M455.81 948.559v-.15M447.679 948.904v-.13" style="fill:none;stroke:red;stroke-width:1.99999;stroke-linecap:round;stroke-linejoin:round;stroke-miterlimit:4;stroke-dasharray:none;stroke-opacity:1;visibility:visible"/><path d="m451.382 945.92 5.667-.792M446.012 945.098l5.37.823" style="fill:none;stroke:red;stroke-width:.999997;stroke-linecap:round;stroke-linejoin:round;stroke-miterlimit:4;stroke-dasharray:none;stroke-opacity:1;visibility:visible"/><path d="m446.889 945.999.024.041.041.046.079.045.107.04.485.1M455.47 946.194l.19-.03.165-.046.125-.043.11-.042.08-.04.054-.048.01-.054M446.877 945.28l.012.719M456.195 945.258l.01.635" style="fill:none;stroke:red;stroke-width:1.99999;stroke-linecap:round;stroke-linejoin:round;stroke-miterlimit:4;stroke-dasharray:none;stroke-opacity:1;visibility:visible"/><path d="M554.34 964.2h0M563.478 963.815h.013M554.694 964.02l.028.065.043.072.093.058.125.054.15.056.198.062.219.046.24.042.276.032.3.04.315.032.333.024.355.009.369.012.372.013h.381l.392-.013.376-.012.379-.021.381-.026.359-.029.357-.037.334-.047.314-.045.298-.044.265-.059.252-.057.21-.058.197-.068.146-.068.118-.061.09-.061.047-.074.021-.069M562.824 966.455l.008-.01M554.928 964.27v-.012h-.013l-.034-.012M555.443 964.42h-.01l-.02-.015h-.035M556.194 964.544l-.021-.01h-.068M557.129 964.612h-.107" style="fill:none;stroke:red;stroke-width:.999997;stroke-linecap:round;stroke-linejoin:round;stroke-miterlimit:4;stroke-dasharray:none;stroke-opacity:1;visibility:visible"/><path d="m558.174 964.647-.023-.01h-.08M559.284 964.612h-.083l-.033.01M560.355 964.544h-.081l-.023.012M561.324 964.431h-.036l-.035.01h-.022M562.118 964.281h-.057l-.014.01M562.707 964.098l-.036.013h-.021v.012M563.017 963.905l-.024.01-.01.015h.01M563.457 963.824h.023v-.01M563.49 963.815h0M563.053 963.721h-.027l.014.01h.013M563.11 963.697l-.057.027M554.44 963.95l.267-.045M554.236 963.992l.01.015h.013M554.673 964.085h.01v-.01h-.02M554.35 964.19h-.01v.01M554.663 964.098v-.024M563.053 963.73v-.01M563.363 963.64l.015.148M563.017 963.939v-.033M562.707 964.155v-.057M560.794 964.582l.047 2.23M556.977 964.684l.048 2.232M554.881 964.29v-.044M554.694 964.02v-.09l.028-.083.007-.032M563.017 963.721l.01.067" style="fill:none;stroke:red;stroke-width:.999997;stroke-linecap:round;stroke-linejoin:round;stroke-miterlimit:4;stroke-dasharray:none;stroke-opacity:1;visibility:visible"/><path d="M554.384 966.417h0M554.798 966.612h0M563.316 966.246h.01M563.535 966.03h0M554.236 963.992h0M554.788 966.465l-.357-.033M554.384 966.417h0M554.384 966.417l.025.013h.022M554.384 966.236l-.068-.013M554.283 966.214l.01.01h.023M563.535 966.03h0M563.501 966.054l-.175.025M563.501 966.054l.025-.013.008-.011M563.327 966.246v-.01M563.283 966.258l-.276.037M563.283 966.258h.025l.008-.012M554.888 966.612h-.028M554.798 966.612h.06M554.788 966.603h0l.01.01M563.49 963.815l-.013-.016h-.019M563.384 963.788l.073.012M554.27 963.983h-.024l-.008.01M554.27 963.983l.17-.03M554.236 963.992h0M563.007 966.296l-.033.041-.048.07-.047.048-.068.068-.083.056-.078.048-.14.068-.159.069-.164.043-.187.061-.168.044-.185.033-.208.046-.208.033-.219.036-.229.021-.245.038-.227.018-.255.026-.252.024-.256.01-.24.015-.254.008h-.255l-.24.01h-.497l-.243-.01h-.228l-.232-.008-.23-.015-.206-.025-.221-.01-.196-.025-.195-.018-.173-.038-.187-.021-.16-.036-.147-.033-.153-.046-.128-.048-.17-.068-.153-.09-.101-.08-.05-.047M554.283 966.214l-.047-2.221M554.384 966.417v-.181M563.535 966.03l-.044-2.216M563.384 963.788v-.159M563.327 966.236v-.157M554.788 966.603v-.139" style="fill:none;stroke:red;stroke-width:1.99999;stroke-linecap:round;stroke-linejoin:round;stroke-miterlimit:4;stroke-dasharray:none;stroke-opacity:1;visibility:visible"/><path d="m559.04 963.526 5.59-.935M553.038 962.556l6.003.97" style="fill:none;stroke:red;stroke-width:.999997;stroke-linecap:round;stroke-linejoin:round;stroke-miterlimit:4;stroke-dasharray:none;stroke-opacity:1;visibility:visible"/><path d="m553.957 963.515.028.044.043.047.08.046.113.046.508.106M562.971 963.721l.196-.032.172-.05.139-.043.114-.047.083-.045.056-.047.012-.059M553.947 962.749l.01.765M563.732 962.725l.012.673" style="fill:none;stroke:red;stroke-width:1.99999;stroke-linecap:round;stroke-linejoin:round;stroke-miterlimit:4;stroke-dasharray:none;stroke-opacity:1;visibility:visible"/><path d="m96.912 752.83-.013.185-.039.192-.05.178-.077.174-.072.178-.09.164-.103.154-.115.138-.126.138-.123.127-.153.101-.154.103-.149.075-.168.065-.164.061-.163.026-.213.024h-.228l-.216-.011-.204-.053-.201-.074-.204-.089-.174-.115-.181-.124-.148-.153-.155-.179-.125-.188-.112-.19" style="fill:none;stroke:red;stroke-width:.666665;stroke-linecap:round;stroke-linejoin:round;stroke-miterlimit:4;stroke-dasharray:none;stroke-opacity:1;visibility:visible"/><path d="m93.204 751.208.08-.1.112-.139.136-.126.143-.111.138-.105.163-.076.152-.078.164-.049.164-.052.177-.025.216-.012.216.012.215.041.2.063.204.086.19.1.177.13.165.137.15.152.142.19.113.189.102.216.088.228.064.226.037.242.012.24-.012.244" style="fill:none;stroke:red;stroke-width:.666665;stroke-linecap:round;stroke-linejoin:round;stroke-miterlimit:4;stroke-dasharray:none;stroke-opacity:1;visibility:visible"/><path d="M554.197 725.846v.037" style="fill:none;stroke:red;stroke-width:1.99999;stroke-linecap:round;stroke-linejoin:round;stroke-miterlimit:4;stroke-dasharray:none;stroke-opacity:1;visibility:visible"/><path d="m205.907 755.587-8.695.516" style="fill:none;stroke:red;stroke-width:.999997;stroke-linecap:round;stroke-linejoin:round;stroke-miterlimit:4;stroke-dasharray:none;stroke-opacity:1;visibility:visible"/><path d="m392.013 744.545-186.105 11.041" style="fill:none;stroke:red;stroke-width:1.99999;stroke-linecap:round;stroke-linejoin:round;stroke-miterlimit:4;stroke-dasharray:none;stroke-opacity:1;visibility:visible"/><path d="m400.134 744.064-8.121.481" style="fill:none;stroke:red;stroke-width:.999997;stroke-linecap:round;stroke-linejoin:round;stroke-miterlimit:4;stroke-dasharray:none;stroke-opacity:1;visibility:visible"/><path d="m560.378 734.557-160.244 9.507" style="fill:none;stroke:red;stroke-width:1.99999;stroke-linecap:round;stroke-linejoin:round;stroke-miterlimit:4;stroke-dasharray:none;stroke-opacity:1;visibility:visible"/><path d="m566.49 734.194-6.112.363" style="fill:none;stroke:red;stroke-width:.999997;stroke-linecap:round;stroke-linejoin:round;stroke-miterlimit:4;stroke-dasharray:none;stroke-opacity:1;visibility:visible"/><path d="m566.564 725.896-.075 8.299M451.859 718.85l114.705 7.047M84.96 737.08l366.9-18.23M84.96 737.08l.199 9.157" style="fill:none;stroke:red;stroke-width:1.99999;stroke-linecap:round;stroke-linejoin:round;stroke-miterlimit:4;stroke-dasharray:none;stroke-opacity:1;visibility:visible"/><path d="m190.084 755.475 7.127.628" style="fill:none;stroke:red;stroke-width:.999997;stroke-linecap:round;stroke-linejoin:round;stroke-miterlimit:4;stroke-dasharray:none;stroke-opacity:1;visibility:visible"/><path d="m90.793 746.733 99.292 8.744" style="fill:none;stroke:red;stroke-width:1.99999;stroke-linecap:round;stroke-linejoin:round;stroke-miterlimit:4;stroke-dasharray:none;stroke-opacity:1;visibility:visible"/><path d="m85.159 746.237 5.636.497" style="fill:none;stroke:red;stroke-width:.999997;stroke-linecap:round;stroke-linejoin:round;stroke-miterlimit:4;stroke-dasharray:none;stroke-opacity:1;visibility:visible"/><path d="m387.258 835.963-10.367-1.065M554.066 829.044l-5.82-9.646" style="fill:none;stroke:red;stroke-width:.666665;stroke-linecap:round;stroke-linejoin:round;stroke-miterlimit:4;stroke-dasharray:none;stroke-opacity:1;visibility:visible"/><path d="m95.306 999.9 1.036.027M96.342 999.927l1.331-.027M101.428 999.33l-3.883.582M102.11 1001.696l-2.729.64M92.737 1001.948l2.457.5M192.42 865.547l.426-10.533M446.14 746.267l5.466-5.253M451.515 752.648l.084-6.38" style="fill:none;stroke:red;stroke-width:.999997;stroke-linecap:round;stroke-linejoin:round;stroke-miterlimit:4;stroke-dasharray:none;stroke-opacity:1;visibility:visible"/><path d="m359.32 816.114-6.05 2.412" style="fill:none;stroke:red;stroke-width:.666665;stroke-linecap:round;stroke-linejoin:round;stroke-miterlimit:4;stroke-dasharray:none;stroke-opacity:1;visibility:visible"/><path d="m192.533 832.83 13.546-.865" style="fill:none;stroke:red;stroke-width:.999997;stroke-linecap:round;stroke-linejoin:round;stroke-miterlimit:4;stroke-dasharray:none;stroke-opacity:1;visibility:visible"/><path d="m206.08 831.965-13.547.865" style="fill:none;stroke:red;stroke-width:.666665;stroke-linecap:round;stroke-linejoin:round;stroke-miterlimit:4;stroke-dasharray:none;stroke-opacity:1;visibility:visible"/><path d="m281.156 969.453 5.248-8.744M446.028 945.064l5.388-8.234M285.39 856.527l-.102-10.569M285.288 845.958l.102 10.569M100.139 840.44l11.055 1.517M446.193 826.937l5.311 12.603" style="fill:none;stroke:red;stroke-width:.999997;stroke-linecap:round;stroke-linejoin:round;stroke-miterlimit:4;stroke-dasharray:none;stroke-opacity:1;visibility:visible"/><path d="m194.01 929.075 13.522.248M207.532 929.323l-13.498 1.723M387.47 904.497l12.485.263M399.955 904.76l-12.485 1.593" style="fill:none;stroke:red;stroke-width:.666665;stroke-linecap:round;stroke-linejoin:round;stroke-miterlimit:4;stroke-dasharray:none;stroke-opacity:1;visibility:visible"/><path d="m113.99 841.72 2.516.97" style="fill:none;stroke:red;stroke-width:.999997;stroke-linecap:round;stroke-linejoin:round;stroke-miterlimit:4;stroke-dasharray:none;stroke-opacity:1;visibility:visible"/><path d="m192.42 865.547.575-1.01M99.316 852.177l-6.567-2.01M192.42 865.547l.402-12.357" style="fill:none;stroke:red;stroke-width:1.99999;stroke-linecap:round;stroke-linejoin:round;stroke-miterlimit:4;stroke-dasharray:none;stroke-opacity:1;visibility:visible"/><path d="m376.902 836.275 7.931-13.538M359.27 825.528l8.758-.947M384.833 822.737l16.994-1.868M401.56 813.191l-16.47 1.807M353.27 818.526l8.139-.93M385.06 813.289l16.5-.098M401.56 813.191l-16.5.098M353.27 818.526l6.05-2.412M385.06 813.289l16.455-1.807M554.141 819.605l-9.836-2.659M554.141 819.605l-12.756-1.165" style="fill:none;stroke:red;stroke-width:.666665;stroke-linecap:round;stroke-linejoin:round;stroke-miterlimit:4;stroke-dasharray:none;stroke-opacity:1;visibility:visible"/><path d="m197.21 756.103-5.922-.517M554.197 725.883l.578 9.009" style="fill:none;stroke:red;stroke-width:1.99999;stroke-linecap:round;stroke-linejoin:round;stroke-miterlimit:4;stroke-dasharray:none;stroke-opacity:1;visibility:visible"/><path d="m446.14 746.267-.18 7.67M446.086 840.098l.107-13.161M457.292 746.879l-.032 4.536M457.171 838.958l.258-16.21M451.6 746.267l-.085 6.381M451.504 839.54l.18-15.559" style="fill:none;stroke:red;stroke-width:.666665;stroke-linecap:round;stroke-linejoin:round;stroke-miterlimit:4;stroke-dasharray:none;stroke-opacity:1;visibility:visible"/><path d="m206.433 855.06-15.889 9.12M553.447 912.248l.013-1.58M451.6 746.267l5.699-5.595M457.26 751.415l.032-4.536M451.684 823.981l5.487 14.977M456.206 945.893l.837-9.874M96.912 752.83l1.214-5.454M292.068 970.344l.797-10.569M192.632 840.932l13.57-1.255M206.202 839.677l-13.57 1.255M361.409 817.597l-2.139 7.931M291.904 855.86l-.104-10.552M291.8 845.308l.104 10.552M451.6 746.267l-5.458-4.925M451.606 741.014l-5.467 5.253M446.193 826.937l-.107 13.161M446.889 945.999l-.861-8.387M359.32 816.114l-7.004.796M282.142 970.463l-1.065-8.983M192.48 831.065l13.584-1.2M206.08 831.965l-13.6-.9M387.47 904.497l12.485-1.594M399.955 904.76l-12.485-.263M280.013 857.087l-.098-10.614M279.915 846.473l.098 10.614M194.01 929.075l13.497-1.722M207.532 929.323l-13.522-.248" style="fill:none;stroke:red;stroke-width:1.99999;stroke-linecap:round;stroke-linejoin:round;stroke-miterlimit:4;stroke-dasharray:none;stroke-opacity:1;visibility:visible"/><path d="m196.985 1025.47 4.385-2.103M200.16 1023.325l1.091.027M201.251 1023.352l1.403-.027M206.612 1022.713l-4.093.624M207.332 1025.257l-2.876.683M197.45 1025.527l2.59.536M291.016 971.063l-3.589.54M291.645 973.26l-2.52.594M282.984 973.494l2.269.466M392.148 991.76l1.01.025M393.158 991.785l1.297-.025M398.117 991.207l-3.789.565M398.78 993.5l-2.661.619M389.643 993.744l2.392.485M455.81 948.56l-2.369.541M447.679 948.773l2.13.426M563.327 966.235l-2.486.578M554.788 966.464l2.237.452" style="fill:none;stroke:red;stroke-width:.999997;stroke-linecap:round;stroke-linejoin:round;stroke-miterlimit:4;stroke-dasharray:none;stroke-opacity:1;visibility:visible"/><path d="m566.49 734.195-12.293-8.349M554.775 734.892l-.578-9.009" style="fill:none;stroke:red;stroke-width:1.99999;stroke-linecap:round;stroke-linejoin:round;stroke-miterlimit:4;stroke-dasharray:none;stroke-opacity:1;visibility:visible"/><path d="m570.264 817.227 154.35-15.216M724.614 801.733v-.92M296.146 760.65l80.745 74.248" style="fill:none;stroke:#00ff4a;stroke-width:.666665;stroke-linecap:round;stroke-linejoin:round;stroke-miterlimit:4;stroke-dasharray:none;stroke-opacity:1;visibility:visible"/><path d="m405.205 832.122 144.609-14.17M376.889 834.897l6.645-.652M570.264 815.946l154.35-15.13M295.692 762.406l81.21 73.87M381.58 754.495l-85.374 6.036M550.631 742.54l-146.52 10.389M724.232 800.858l-88.177-64.363-66.683 4.715" style="fill:none;stroke:#00ff4a;stroke-width:1.33333;stroke-linecap:round;stroke-linejoin:round;stroke-miterlimit:4;stroke-dasharray:none;stroke-opacity:1;visibility:visible"/><path d="m342.672 782.604 29.935 27.627M416.902 804.562l2.472 2.247M403.93 792.794l12.972 11.77M369.05 761.15l13.08 11.863M418.74 779.412l22.341 20.62M415.511 762.842l26.44 24.4M466.2 758.842l3.38 2.948M513.55 802.96l10.467 9.659M606.617 762.152l22.548 19.51M596.388 784.11l22.068 21.339M497.13 754.803l48.805 45.043M667.989 775.04l24.403 20.641M343.413 759.828l28.777 24.11M606.617 749.469l51.21 43.48M570.026 767.362l35.827 36.993" style="fill:none;stroke:#00ff4a;stroke-width:.666665;stroke-linecap:round;stroke-linejoin:round;stroke-miterlimit:4;stroke-dasharray:none;stroke-opacity:1;visibility:visible"/><path d="m486.359 784.66 5.684 5.48-24.713-6.475 7.427-10.201 5.746 5.566 29.005-1.986 5.823 5.62-28.972 1.996" style="fill:none;fill-opacity:1;fill-rule:nonzero;stroke:#00ff4a;stroke-width:1.33333;visibility:visible"/><path d="m486.359 784.66 5.684 5.48-24.713-6.475 7.427-10.201 5.746 5.566 29.005-1.986 5.823 5.62-28.972 1.996" style="fill:none;stroke:#00ff4a;stroke-width:.999997;stroke-linecap:round;stroke-linejoin:round;stroke-miterlimit:10;stroke-dasharray:none;stroke-opacity:1;visibility:visible"/><path d="m569.372 741.21-18.74 1.33M550.631 742.54l18.741-1.33" style="fill:none;stroke:#00ff4a;stroke-width:1.33333;stroke-linecap:round;stroke-linejoin:round;stroke-miterlimit:4;stroke-dasharray:none;stroke-opacity:1;visibility:visible"/><path d="m560.155 820.827 10.109-3.6" style="fill:none;stroke:#00ff4a;stroke-width:.666665;stroke-linecap:round;stroke-linejoin:round;stroke-miterlimit:4;stroke-dasharray:none;stroke-opacity:1;visibility:visible"/><path d="m401.827 820.869 3.378 11.253M554.066 829.044l-4.252-11.093M376.902 836.275l6.632-2.03M560.155 820.827l10.11-4.881M392.013 744.545l-10.432 9.95M400.134 744.064l3.976 8.865" style="fill:none;stroke:#00ff4a;stroke-width:1.33333;stroke-linecap:round;stroke-linejoin:round;stroke-miterlimit:4;stroke-dasharray:none;stroke-opacity:1;visibility:visible"/><path d="m451.6 746.267 14.6 12.575" style="fill:none;stroke:#00ff4a;stroke-width:.666665;stroke-linecap:round;stroke-linejoin:round;stroke-miterlimit:4;stroke-dasharray:none;stroke-opacity:1;visibility:visible"/></svg>