<svg xmlns="http://www.w3.org/2000/svg" baseProfile="full" height="1122.52" preserveAspectRatio="xMinYMin meet" style="width:912px;height:1303px" width="793.701" xml:space="preserve"><path d="m185.013 520.41-6.916 2.28M192.72 730.986 178.1 522.689" style="fill:none;stroke:red;stroke-width:.999997;stroke-linecap:round;stroke-linejoin:round;stroke-miterlimit:10;stroke-dasharray:none;stroke-opacity:1;visibility:visible" visibility="hidden"/><path d="m350.41 592.146 4.955-1.953" style="fill:none;stroke:red;stroke-width:1.99999;stroke-linecap:round;stroke-linejoin:round;stroke-miterlimit:10;stroke-dasharray:none;stroke-opacity:1;visibility:visible" visibility="hidden"/><path d="m357.175 660.227-1.81-70.033M496.535 534.553l2.167-.857M497.985 599.638l.716-65.942M504.985 414.847l-5.01 1.652M499.597 452.03l.379-35.53M358.908 501.181l140.689-49.15" style="fill:none;stroke:red;stroke-width:.999997;stroke-linecap:round;stroke-linejoin:round;stroke-miterlimit:10;stroke-dasharray:none;stroke-opacity:1;visibility:visible" visibility="hidden"/><path d="m358.908 501.181-.099-3.81" style="fill:none;stroke:red;stroke-width:1.99999;stroke-linecap:round;stroke-linejoin:round;stroke-miterlimit:10;stroke-dasharray:none;stroke-opacity:1;visibility:visible" visibility="hidden"/><path d="m357.981 463.343-5.84 1.933M353.114 503.201l-.972-37.925M187.79 560.964l165.324-57.763" style="fill:none;stroke:red;stroke-width:.999997;stroke-linecap:round;stroke-linejoin:round;stroke-miterlimit:10;stroke-dasharray:none;stroke-opacity:1;visibility:visible" visibility="hidden"/><path d="m187.79 560.964-.277-4.081" style="fill:none;stroke:red;stroke-width:1.99999;stroke-linecap:round;stroke-linejoin:round;stroke-miterlimit:10;stroke-dasharray:none;stroke-opacity:1;visibility:visible" visibility="hidden"/><path d="m360.848 581.086 137.924-53.877" style="fill:none;stroke:red;stroke-width:.999997;stroke-linecap:round;stroke-linejoin:round;stroke-miterlimit:10;stroke-dasharray:none;stroke-opacity:1;visibility:visible" visibility="hidden"/><path d="m360.848 581.086-.101-4.148" style="fill:none;stroke:red;stroke-width:1.99999;stroke-linecap:round;stroke-linejoin:round;stroke-miterlimit:10;stroke-dasharray:none;stroke-opacity:1;visibility:visible" visibility="hidden"/><path d="m494.345 460.589 5.175-1.833M498.773 527.208l.748-68.452M353.959 504.515l.03.799M358.141 503.054l-4.183 1.461M489.757 534.702l-.01.725M493.298 533.308l-3.54 1.393M201.297 647.995l.059.817M356.08 587.208l.02.756M360.17 585.595l-4.09 1.612M195.455 560.027l.061.859M200.331 558.317l-4.877 1.71M490.425 456.726v.756M494.048 455.464l-3.623 1.263M194.378 725.424l.023.139.026.126.042.122" style="fill:none;stroke:red;stroke-width:.999997;stroke-linecap:round;stroke-linejoin:round;stroke-miterlimit:10;stroke-dasharray:none;stroke-opacity:1;visibility:visible" visibility="hidden"/><path d="m194.737 726.18.15.087.16.06.18.03.177-.009.19-.04.199-.081.19-.098.175-.13.172-.16.151-.178.137-.2.11-.208.089-.22.059-.229.041-.219v-.209l-.021-.21-.05-.187-.078-.159-.11-.15-.13-.109-.138-.09-.169-.051-.18-.017-.179.008-.201.05-.187.08-.189.11-.18.129-.157.168-.162.18-.129.2-.11.219-.08.217-.058.22-.032.217v.223M358.756 655.07l.024.19.036.169.063.148.086.141.1.108.131.081.13.051.151.019.158-.011.157-.039.159-.07.161-.099.147-.119.152-.152.128-.157.109-.179.099-.2.08-.2.052-.209.028-.196.01-.2-.01-.188-.051-.172-.056-.16-.08-.128-.11-.108-.12-.08-.14-.05-.15-.03-.145.01-.162.04-.168.069-.162.1-.148.12-.136.149-.132.168-.12.18-.099.19-.07.207-.06.199-.031.212-.011.196M499.5 594.83l.01.181.03.168.05.139.06.13.087.11.1.08.119.048.121.03.126-.01.141-.03.14-.058.139-.079.129-.112.132-.137.119-.15.1-.17.089-.179.07-.189.047-.19.043-.189.01-.189-.01-.177-.033-.162-.047-.146-.072-.132-.077-.098-.099-.078-.12-.062-.12-.021h-.13l-.14.032-.137.059-.142.092-.128.108-.132.128-.116.149-.1.17-.09.178-.073.19-.05.191-.037.196-.009.179M193.634 646.404l73.116-28.57M299.488 605.055l55.697-21.756" style="fill:none;stroke:red;stroke-width:.999997;stroke-linecap:round;stroke-linejoin:round;stroke-miterlimit:10;stroke-dasharray:none;stroke-opacity:1;visibility:visible" visibility="hidden"/><path d="m193.634 646.404-.301-4.428M348.25 512.167l5.053-1.779" style="fill:none;stroke:red;stroke-width:1.99999;stroke-linecap:round;stroke-linejoin:round;stroke-miterlimit:10;stroke-dasharray:none;stroke-opacity:1;visibility:visible" visibility="hidden"/><path d="m355.185 583.299-5.076-2.23M355.185 583.299l-1.883-72.91M178.098 522.69l-5.175-2.319M353.114 503.201l-5.175-2.05M498.773 527.208l-5.053-1.921M352.141 465.276l-5.225-1.972M499.597 452.03l-5.15-1.781M499.976 416.5l-5.195-1.701M497.351 456.608l.192.079.17.081.134.077.12.091.093.099.056.1M497.351 456.608l-3.304-1.144M496.264 457.492l-.125.041-.151.028-.168.022-.172.009h-.179l-.169-.01-.172-.02-.145-.029-.132-.041-.116-.048-.094-.061-.06-.05-.036-.06v-.068l.027-.06.06-.052.081-.058.11-.042.133-.036.145-.032.168-.02.172-.008h.171l.179.008.158.02.159.032.128.036.117.052.094.048.058.062.03.058.01.06-.032.06-.057.06-.08.051-.112.048M493.729 458.636l.207.061.23.059.239.048.25.045.269.028.265.019.283.01h.278l.267-.01.268-.019.26-.028.247-.045.242-.048.219-.059.199-.061.168-.079.16-.081.128-.077.096-.091.073-.088.05-.101.014-.088M493.729 458.636l-3.304-1.153M361.464 504.367l.19.09.157.09.14.1.109.108.07.099.043.121M361.464 504.367l-3.324-1.312M360.103 505.393l-.152.039-.17.04-.177.018-.192.01h-.185l-.19-.01-.171-.018-.156-.04-.142-.051-.109-.05-.09-.06-.049-.07-.022-.067.012-.07.04-.072.068-.056.11-.062.119-.06.161-.038.156-.04.191-.018.181-.013h.187l.19.013.17.018.157.04.142.049.109.05.09.06.05.07.028.07-.01.067-.049.068-.072.06-.097.062-.128.061M357.303 506.636l.221.08.24.07.256.047.279.052.288.039.312.019.296.012.308-.012.31-.007.309-.032.289-.039.277-.061.27-.059.25-.068.228-.092.199-.089.168-.097.139-.103.118-.11.082-.107.049-.119.01-.11M357.303 506.636l-3.31-1.321M359.264 505.5h.241M198.806 562.408l-3.29-1.524M198.806 562.408l.213.087.247.081.268.07.29.049.307.041.318.03.329.009.328-.01.339-.021.338-.028.32-.05.316-.058.31-.07.277-.082.272-.099.237-.1.208-.117.182-.121.157-.13.108-.128.09-.129.042-.13.01-.129M203.625 559.849l.19.09.158.109.121.12.088.12.06.129.008.056M203.625 559.849l-3.295-1.53M201.915 561.034l-.181.05-.188.04-.199.03-.208.02-.2-.01-.2-.01-.188-.03-.161-.04-.139-.05-.11-.07-.08-.07-.038-.07-.01-.089.031-.081.059-.079.099-.069.121-.08.148-.059.18-.05.185-.04.202-.028.21-.012h.196l.2.012.182.028.168.04.141.05.107.068.081.071.04.08.01.08-.033.079-.06.08-.1.08-.117.069-.148.06M493.61 536.849l.25.053.253.028.272.031.278.01h.266l.272-.01.27-.021.258-.03.246-.048.242-.054.205-.059.201-.077.179-.079.15-.08.13-.101.1-.1.077-.099.043-.1.02-.108M492.057 536.31l-2.307-.884M496.545 534.553l.19.079.171.089.139.1.11.099.086.1.052.101.03.108M496.545 534.553l-3.248-1.245M363.416 587.017l-3.247-1.421M359.355 589.397l.2.083.22.066.227.063.248.047.27.04.267.03.28.01M359.355 589.397l-3.253-1.433M203.657 649.995l-2.301-1.183M497.323 535.278v.727M362.184 505.169l-.003-.115M362.2 505.849l-.016-.68M498.139 458.03l.005-.757M496.222 414.511l-.144-.063-.14-.057-.112-.07-.097-.071-.059-.068-.04-.08-.013-.068M498.545 415.266l-2.323-.755M501.382 415.276l-.181.05-.198.05-.21.03-.23.029-.228.021-.241.008h-.245l-.242-.008-.238-.021-.228-.03-.21-.038-.209-.05-.177-.05M503.597 414.55l-2.215.727M504.157 414.102l-.01.07-.04.069-.06.07-.078.059-.1.068-.128.05-.144.06M501.432 414.561l-.19.057-.21.052-.228.038-.239.021-.249.019-.259.01h-.26l-.249-.01-.255-.019-.238-.03-.232-.04-.219-.05-.2-.06-.167-.06-.149-.07-.13-.08-.089-.078-.074-.08-.035-.09v-.08l.03-.09.05-.08.085-.079.123-.068.137-.072.172-.057.188-.061.208-.039.219-.041.241-.03.247-.018.26-.011h.256l.25.019.26.021.24.03.23.04.215.049.192.049.178.07.147.07.119.07.102.08.07.087.03.083.007.077-.028.09-.05.08-.09.081-.107.07-.149.069-.16.061M506.623 454.955l2.38-.835M509.44 453.373l-.437.747M508.826 452.556l-.06-.01-.06.01M506.329 457.732l.028-2.33M505.925 454.964l.432.44M504.655 454.358h0M504.655 454.358l-.07 5.503M499.907 452.715l4.75 1.643M508.707 452.556h0M508.707 452.556l-3.775 1.324M504.832 453.014l-.119-.05-.086-.05-.063-.06-.03-.059-.007-.058.03-.06.047-.051.09-.05.11-.05.128-.039.153-.029.159-.023.17-.008h.167l.176.008.163.032.15.027.137.043.122.038.087.062.06.049.028.059.015.06-.034.06-.046.06-.091.05-.108.048-.13.04-.153.03-.154.021h-.34l-.18-.01-.159-.02-.159-.03-.133-.04M508.967 452.736l-.023-.021M504.972 454.477l-.119-.05-.1-.04-.097-.03M504.972 454.477l.953.487M508.945 452.715l-.072-.059-.076-.058-.09-.042M504.932 453.88l-.079.039-.06.061-.058.08-.052.097-.019.102-.01.098M505.063 454.517v-.12M505.32 454.308h.012M505.063 454.397l.256-.088M505.483 454.379l1.14.576M505.332 454.308l.07.028.08.043M509.135 452.955l.07.03M505.68 530.21l2.33-.924M507.847 527.713l-.068-.019-.07.019M505.391 532.611l.024-1.961M504.994 530.252l.419.399M503.742 529.636h0M503.742 529.636l-.063 5.304M499.079 527.864l4.663 1.772M507.72 527.713l-3.701 1.453M507.71 527.713h.01M503.92 528.222l-.113-.05-.083-.06-.073-.06-.032-.06v-.069l.02-.069.058-.059.084-.052.111-.057.124-.043.141-.029.159-.019.17-.01h.169l.168.01.162.019.147.041.143.039.104.05.09.058.063.061.028.06.01.068-.029.06-.049.072-.092.05-.1.049-.128.048-.15.032-.16.017-.167.011h-.17l-.168-.01-.16-.018-.149-.041-.128-.039M507.979 527.914l-.023-.03M504.048 529.764l-.11-.05-.1-.04-.095-.038M504.048 529.764l.947.488M504.01 529.167l-.072.041-.06.059-.059.08-.04.1-.026.09-.011.1M504.135 529.804v-.148M504.394 529.558h0M504.135 529.656l.259-.097M504.557 529.623l1.123.587M504.394 529.558l.083.027.08.038M508.108 528.084l.099.04M504.039 529.217l-.028-.05M174.297 520.142l-.161-.08-.127-.09-.103-.098-.057-.113-.021-.099M176.594 521.175l-2.299-1.032M179.959 521.175l-.239.08-.258.059-.278.053-.281.037-.288.02-.296.011h-.29l-.28-.01-.266-.029-.25-.041-.24-.05-.209-.06-.189-.07M183.034 520.161l-3.076 1.013M184 519.383l-.01.1-.049.113-.07.111-.111.096-.139.099-.168.1-.201.078-.219.082M180.438 520.201l-.26.08-.268.057-.3.051-.3.04-.307.028-.308.021-.298-.008-.298-.013-.29-.028-.268-.04-.25-.06-.226-.06-.202-.08-.169-.088-.139-.092-.098-.108-.07-.11-.03-.109.009-.109.052-.119.079-.12.109-.108.159-.109.178-.1.211-.09.228-.091.256-.08.28-.062.29-.046.298-.052.31-.019.31-.02.305.01.3.01.279.03.268.04.248.06.228.06.201.08.167.09.141.09.099.109.07.1.031.117-.012.11-.04.122-.077.107-.121.121-.148.099-.18.108-.21.09-.237.091M194.427 652.763l3.207-1.264M198.172 650.624l-.537.875M197.753 649.566l-.08-.017h-.08l-.09.017M194.162 654.196l-.059-.905M193.463 652.872l.639.417M192.09 652.124l.41 6.023M192.081 652.115l.01.01M187.453 649.718l4.628 2.396M197.516 649.566l-5.085 2.001M197.504 649.566h.01M192.778 650.273l-.11-.068-.08-.08-.04-.08-.011-.088.032-.092.061-.09.097-.078.134-.081.145-.068.17-.058.189-.042.198-.028.208-.022h.202l.189.022.179.028.157.042.141.058.11.068.069.081.041.087.008.081-.03.092-.068.088-.091.087-.13.081-.149.06-.178.061-.19.048-.2.031-.196.01h-.212l-.189-.02-.179-.03-.158-.05M192.799 650.284h-.01l-.011-.01M198.172 650.624l-.428-.839M192.41 652.287l.268.137M192.916 652.564l.547.308M192.41 652.287l-.12-.061-.108-.05-.09-.053" style="fill:none;stroke:red;stroke-width:.999997;stroke-linecap:round;stroke-linejoin:round;stroke-miterlimit:10;stroke-dasharray:none;stroke-opacity:1;visibility:visible" visibility="hidden"/><path d="m197.744 649.784-.072-.087-.077-.07-.079-.062M192.43 651.568l-.099.052-.092.067-.066.1-.052.112-.03.106-.009.11M193.006 651.966h0M193.175 652.055l1.252.708M193.006 651.966l.081.039.088.049M197.853 649.895l.05-.059M197.822 649.936l.03-.041M192.47 651.609l-.039-.041M193.006 651.966l-.536-.357M192.14 652.137l.27.15M192.081 652.115l.059.023M188.568 567.027l3.284-1.156M192.41 564.975l-.556.896M191.972 563.96l-.081-.021-.079-.01-.081.019M188.328 568.995l-.088-1.433M187.581 567.095l.659.467M186.18 566.349l.427 6.287M186.168 566.349h.01M181.45 564.119l4.717 2.23M191.744 563.948l-5.216 1.833M191.73 563.948h.012M186.886 564.597l-.11-.07-.07-.069-.05-.08v-.082l.033-.076.058-.08.099-.08.13-.071.15-.068.18-.05.197-.04.198-.029.212-.01h.205l.2.02.18.018.16.05.14.05.108.068.08.071.039.081v.08l-.028.078-.059.08-.104.08-.128.069-.159.07-.178.049-.2.04-.198.03-.209.01h-.21l-.189-.02-.188-.03-.158-.038" style="fill:none;stroke:red;stroke-width:.999997;stroke-linecap:round;stroke-linejoin:round;stroke-miterlimit:10;stroke-dasharray:none;stroke-opacity:1;visibility:visible" visibility="hidden"/><path d="m186.994 564.638-.047-.02-.061-.021M192.41 564.975l-.437-.816M186.508 566.497l.27.15M187.025 566.786l.556.31M186.508 566.497l-.117-.048-.111-.05-.1-.05M191.972 564.159l-.072-.079-.077-.072-.079-.06M186.528 565.781l-.1.05-.09.078-.08.09-.05.118-.028.113-.012.119M187.293 566.319l1.275.708M187.125 566.237l.08.032.088.05M192.09 564.308l.05-.059M192.072 564.338l.019-.03M186.567 565.84l-.037-.06M187.125 566.23l-.557-.39M186.168 566.349l.059.019M348.346 463.036l-.165-.07-.134-.08-.109-.078-.076-.081-.05-.088-.02-.1M350.666 463.912l-2.32-.876M353.74 463.922l-.195.06-.23.05-.242.038-.248.041-.258.02-.27.01h-.257l-.259-.022-.26-.017-.237-.032-.219-.05-.21-.047-.19-.06M356.34 463.064l-2.6.857M357.066 462.479l-.01.09-.05.1-.079.089-.098.081-.142.079-.156.077-.19.07M353.97 463.086l-.217.07-.24.049-.25.052-.269.026-.275.031-.28.01h-.28l-.28-.02-.258-.02-.258-.038-.238-.05-.22-.05-.198-.07-.18-.069-.141-.082-.116-.086-.093-.102-.047-.088-.013-.102.013-.098.047-.091.082-.097.119-.091.141-.09.178-.078.188-.068.22-.072.238-.05.26-.049.267-.03.27-.019.277-.012h.278l.282.012.266.028.25.03.237.05.228.059.201.062.171.078.147.08.11.084.088.096.05.086.022.1-.022.102-.05.1-.077.089-.11.09-.153.089-.165.078-.2.071" style="fill:none;stroke:red;stroke-width:.999997;stroke-linecap:round;stroke-linejoin:round;stroke-miterlimit:10;stroke-dasharray:none;stroke-opacity:1;visibility:visible" visibility="hidden"/><path d="m199.227 728.19-4.796-70.186M199.227 728.19l-6.508 2.796M198.619 651.977l5.036-1.981M209.278 647.777l64.097-25.273M305.669 609.782l44.741-17.637M362.717 657.838l-1.648-68.101M362.717 657.838l-5.541 2.39M363.416 587.017l128.64-50.707M502.767 597.576l.765-62.696M502.767 597.576l-4.781 2.061M503.632 526.111l.805-66.3M504.535 451.083l.45-36.236M358.81 497.37l-.828-34.027M187.513 556.883l-2.5-36.473M360.747 576.937l-1.67-68.588 135.267-47.76" style="fill:none;stroke:red;stroke-width:1.99999;stroke-linecap:round;stroke-linejoin:round;stroke-miterlimit:4;stroke-dasharray:none;stroke-opacity:1;visibility:visible" visibility="hidden"/><path d="m194.47 725.81.068.139.092.132.11.1M188.582 572.588l-.245-3.581" style="fill:none;stroke:red;stroke-width:.999997;stroke-linecap:round;stroke-linejoin:round;stroke-miterlimit:4;stroke-dasharray:none;stroke-opacity:1;visibility:visible" visibility="hidden"/><path d="m193.334 641.975-4.75-69.388M192.916 567.015l155.334-54.848M352.19 657.846l-1.781-65.7M357.175 660.227l-4.984-2.381M350.11 581.069l-1.861-68.901M184.04 519.972l.972.437M192.72 730.986l-4.937-2.777M172.923 520.37l.924-.299M187.782 728.208l-14.86-207.837M187.513 556.883l160.425-55.73-1.024-37.848.897-.296M358.81 497.37l135.637-47.121.335-35.45.83-.269M493.032 597.576l.58-60.727M193.334 641.975l68.176-26.483M295.364 602.34l54.747-21.272M360.747 576.937l132.972-51.65.625-64.698M497.985 599.638l-4.953-2.061M357.076 463.007l.905.336M504.157 414.578l.828.268M492.992 536.672l-.935-.361M492.992 536.672l.19.07.207.06.222.047" style="fill:none;stroke:red;stroke-width:1.99999;stroke-linecap:round;stroke-linejoin:round;stroke-miterlimit:4;stroke-dasharray:none;stroke-opacity:1;visibility:visible" visibility="hidden"/><path d="m363.425 587.03-.01-.013M364.12 587.693l.013.072M363.425 587.03l.18.077.157.1.131.1.099.11.08.109.038.119.01.048M361.067 589.736h.29l.289-.01.285-.02.29-.042.277-.048.262-.06.248-.07.23-.078.208-.09.178-.1.16-.1.13-.11.108-.119.07-.118.051-.119.008-.123M364.15 588.53l-.019-.765" style="fill:none;stroke:red;stroke-width:.999997;stroke-linecap:round;stroke-linejoin:round;stroke-miterlimit:4;stroke-dasharray:none;stroke-opacity:1;visibility:visible" visibility="hidden"/><path d="m498.405 412.858.168-.059.2-.042.212-.038.228-.021.225-.019.242-.01h.252l.234.01.228.019.23.03.218.04.203.05.184.05M496.175 413.585l2.23-.727M495.617 414.033l.012-.083.041-.066.059-.06.08-.071.099-.059.126-.06.142-.049M503.541 413.622l.156.05.143.07.109.059.09.072.069.077.04.068.009.083M501.229 412.867l2.312.756M496.563 415.386l-.341-.119M504.148 414.858l.01-.755M495.61 414.79l.007-.756" style="fill:none;stroke:red;stroke-width:1.99999;stroke-linecap:round;stroke-linejoin:round;stroke-miterlimit:4;stroke-dasharray:none;stroke-opacity:1;visibility:visible" visibility="hidden"/><path d="m509.641 458.408.06-4.777M509.204 458.558l.437-.15M508.967 452.736l-.03-.08-.053-.07-.056-.03M503.957 450.936l.06-.023.063.011M499.838 458.22l.01-.747M499.858 456.726v-.11l.023-2.03M499.889 453.84v-.1l.02-1.027M499.907 452.715l.01-.099.02-.1.05-.089.06-.079.06-.06.079-.04M500.576 452.108l.15-.05M500.186 452.248l.39-.14M502.726 451.36l.15-.048M501.273 451.87l1.453-.51M503.423 451.114l.533-.179M506.329 457.732l2.156.744M506.304 459.583l.027-1.85M505.867 459.741l.437-.159M504.905 459.881l.964-.14M508.604 458.517l.053.019h.038M508.485 458.476l.03.01.02.013h.023l.01.008.02.01h.016M499.838 458.22l4.75 1.64M509.073 452.877l-.105-.14M509.701 453.63l-.497-.647M508.695 458.536l.51.021M504.585 459.86l.096.03h.11l.113-.01M509.204 452.984l-.06-.059-.072-.049M504.079 450.924l4.75 1.632M508.635 533.388l.06-4.599M508.207 533.556l.428-.168M507.979 527.914l-.023-.07-.024-.058-.041-.05-.044-.022M503.063 525.955l.07-.021.063.009M499.023 533.156l.01-.716M499.041 531.713v-.11l.024-1.94M499.07 528.948v-.11l.01-.974M499.079 527.864l.013-.1.031-.1.039-.088.06-.081.06-.059.069-.04M499.738 527.249l.14-.063M499.351 527.396l.387-.148M501.847 526.42l.14-.059M500.425 526.978l1.421-.557M502.535 526.151l.528-.196M505.391 532.611l2.123.815M505.363 534.68l.028-2.068M504.932 534.85l.43-.17M503.988 534.969l.944-.117M507.62 533.467l.05.019.04.01M507.514 533.427l.02.01h.016l.023.01.021.01.007.01h.018M499.023 533.156l4.656 1.783M508.041 527.992l-.063-.079M508.695 528.789l-.488-.665M507.71 533.497l.496.059M503.68 534.94l.09.03.109.009.109-.01M508.207 528.123l-.081-.072-.084-.06M503.195 525.943l4.652 1.77" style="fill:none;stroke:red;stroke-width:.999997;stroke-linecap:round;stroke-linejoin:round;stroke-miterlimit:4;stroke-dasharray:none;stroke-opacity:1;visibility:visible" visibility="hidden"/><path d="m177.869 517.86.239-.07.258-.058.279-.05.28-.04.288-.02.288-.02h.288l.279.02.27.02.25.04.237.05.21.07.187.069M174.795 518.867l3.075-1.005M173.83 519.662l.01-.107.04-.112.08-.109.109-.099.138-.1.172-.1.196-.09.22-.079M183.521 518.898l.161.079.127.088.1.101.059.11.032.106M181.222 517.872l2.301 1.027M184.059 520.252l-.059-.87M173.887 520.53l-.057-.867" style="fill:none;stroke:red;stroke-width:1.99999;stroke-linecap:round;stroke-linejoin:round;stroke-miterlimit:4;stroke-dasharray:none;stroke-opacity:1;visibility:visible" visibility="hidden"/><path d="m198.9 656.087-.35-5.216M198.31 656.316l.59-.23M197.903 649.836l-.012-.088-.028-.07-.05-.062-.06-.05M192.867 647.178l.088-.021h.092l.068.021M187.453 649.718v-.11l.028-.11.05-.11.082-.098.08-.072.097-.05M188.387 648.93l.133-.05M187.79 649.167l.597-.237M191.275 647.807l.139-.061M189.256 648.591l2.02-.784M192.15 647.456l.717-.277M192.887 650.234l.01.09M193.006 651.966l.01.059M194.162 654.196l3.6 1.859M194.41 657.868l-.248-3.672" style="fill:none;stroke:red;stroke-width:.999997;stroke-linecap:round;stroke-linejoin:round;stroke-miterlimit:4;stroke-dasharray:none;stroke-opacity:1;visibility:visible" visibility="hidden"/><path d="m193.822 658.097.587-.228" style="fill:none;stroke:red;stroke-width:1.99999;stroke-linecap:round;stroke-linejoin:round;stroke-miterlimit:4;stroke-dasharray:none;stroke-opacity:1;visibility:visible" visibility="hidden"/><path d="m192.815 658.196 1.005-.099M197.862 656.127l.04.028.032.023M197.762 656.055l.021.021.019.011.019.01.014.007.018.014.009.009M197.903 649.836h.01M187.871 655.727l4.63 2.419M198.55 650.87l-.427-.836M192.677 652.424l.239.14M197.933 656.177l.377.139M192.5 658.146l.096.028.113.023h.106M198.121 650.034l-.059-.077-.07-.071-.08-.05M193.115 647.178l4.639 2.388M193.166 570.708l-.367-5.456M192.558 570.917l.608-.21M192.14 564.249l-.021-.099-.03-.081-.058-.07-.059-.038M187.006 561.741l.09-.021h.08l.069.03M181.45 564.119v-.11l.039-.12.05-.109.071-.088.09-.08.1-.05M182.408 563.352l.139-.05M181.8 563.562l.608-.21M185.371 562.317l.14-.05M183.302 563.034l2.07-.716M186.269 562l.739-.259M187.016 564.627v.02M187.154 566.685l.01.11M187.125 566.237l.028.448M188.328 568.995l3.673 1.73M187.961 572.56l.599-.221M186.935 572.69l1.027-.13M192.112 570.786l.028.021.04.019M192.002 570.726l.019.013.018.008.022.008.021.01.008.012.023.009M192.14 564.249h.01M181.89 570.408l4.717 2.228M187.016 564.647h-.01l-.014-.01M192.799 565.252l-.439-.813M186.776 566.647l.25.139M192.181 570.827l.376.09M186.607 572.636l.099.041.109.012h.12M192.36 564.439l-.059-.072-.074-.07-.076-.049M186.776 566.647l-.021-.29M187.125 566.23v.007M186.756 566.358l.37-.128" style="fill:none;stroke:red;stroke-width:.999997;stroke-linecap:round;stroke-linejoin:round;stroke-miterlimit:4;stroke-dasharray:none;stroke-opacity:1;visibility:visible" visibility="hidden"/><path d="M186.994 564.638h.012l.01-.01M187.125 566.237h0M187.244 561.75l4.728 2.21" style="fill:none;stroke:red;stroke-width:.999997;stroke-linecap:round;stroke-linejoin:round;stroke-miterlimit:4;stroke-dasharray:none;stroke-opacity:1;visibility:visible" visibility="hidden"/><path d="m351.127 461.104.196-.059.23-.05.238-.05.25-.028.258-.02.259-.012h.258l.258.022.26.02.238.03.219.048.21.05.189.06M348.528 461.951l2.599-.848M347.79 462.539l.02-.09.039-.091.08-.088.11-.086.13-.084.168-.08.19-.068M356.51 461.992l.16.057.139.082.109.08.079.088.049.09.02.09M354.19 461.114l2.319.877M357.084 463.294l-.019-.815M347.81 463.355l-.02-.816" style="fill:none;stroke:red;stroke-width:1.99999;stroke-linecap:round;stroke-linejoin:round;stroke-miterlimit:4;stroke-dasharray:none;stroke-opacity:1;visibility:visible" visibility="hidden"/><path d="m502.767 597.576-3.267-2.746M357.303 506.636l-9.364-5.486M496.545 534.553l-2.825-9.266M497.351 456.608l-2.905-6.36M494.345 460.589l1.919-3.097M494.048 455.464l2.216 2.028M195.454 560.026l6.461 1.008M200.331 558.317l1.584 2.717M179.958 521.174l.48-.973M179.959 521.175l.479-.974" style="fill:none;stroke:red;stroke-width:.999997;stroke-linecap:round;stroke-linejoin:round;stroke-miterlimit:10;stroke-dasharray:none;stroke-opacity:1;visibility:visible" visibility="hidden"/><path d="m197.634 651.499.985.478M203.655 649.996l5.623-2.219M191.852 565.871l1.064 1.144" style="fill:none;stroke:red;stroke-width:1.99999;stroke-linecap:round;stroke-linejoin:round;stroke-miterlimit:4;stroke-dasharray:none;stroke-opacity:1;visibility:visible" visibility="hidden"/><path d="m192.081 652.114-4.21 3.613M186.167 566.348l-4.277 4.06" style="fill:none;stroke:red;stroke-width:.999997;stroke-linecap:round;stroke-linejoin:round;stroke-miterlimit:4;stroke-dasharray:none;stroke-opacity:1;visibility:visible" visibility="hidden"/><path d="m653.867 593.24.347-6.867 4.789-2.21M570.353 554.455l17.837 6.787M617.442 572.375l36.77 13.997M653.64 583.358l-.183-.059-.185-.052-.21-.042-.22-.015-.218-.012h-.219l-.209.019-.199.029-.192.041-.156.059-.141.06-.11.07-.077.08-.062.089-.016.089.016.09.04.089.078.09.11.08.133.079.159.072.178.059.2.05.207.038.223.022.214.007h.219l.21-.02.2-.028.18-.04.169-.06.136-.057.112-.072.08-.079.05-.09.019-.09-.01-.09-.053-.09-.065-.09-.11-.078-.14-.081-.158-.067M654.273 589.22l4.172 1.593" style="fill:none;stroke:#00ff4a;stroke-width:.999997;stroke-linecap:round;stroke-linejoin:round;stroke-miterlimit:10;stroke-dasharray:none;stroke-opacity:1;visibility:visible" visibility="hidden"/><path d="m658.644 591.01-4.777 2.23M659.001 584.163l-.357 6.847M570.282 561.16l10.343 3.968M610.855 576.735l43.012 16.504M571.375 550.971l21.057 7.973M622.752 570.435l36.25 13.728" style="fill:none;stroke:#00ff4a;stroke-width:1.99999;stroke-linecap:round;stroke-linejoin:round;stroke-miterlimit:4;stroke-dasharray:none;stroke-opacity:1;visibility:visible" visibility="hidden"/><path d="m580.625 565.128-10.272-10.673M570.282 561.16l17.908.082M654.273 589.22l-.06-2.848M654.273 589.22l-.633-5.862M654.213 586.372l-.573-3.014M654.213 586.372l.06 2.848" style="fill:none;stroke:#00ff4a;stroke-width:.999997;stroke-linecap:round;stroke-linejoin:round;stroke-miterlimit:10;stroke-dasharray:none;stroke-opacity:1;visibility:visible" visibility="hidden"/><path d="m588.19 561.242-17.908-.082M570.353 554.455l10.272 10.673M580.625 565.128l-9.25-14.157" style="fill:none;stroke:#00ff4a;stroke-width:1.99999;stroke-linecap:round;stroke-linejoin:round;stroke-miterlimit:4;stroke-dasharray:none;stroke-opacity:1;visibility:visible" visibility="hidden"/><path d="m343.81 737.96-.23-7.841 6.726-3.115M241.623 677.314l101.956 52.805M249.872 677.234l-.17-.08-.195-.06-.219-.037-.243-.034-.246-.018-.251.012-.248.017-.25.04-.229.06-.218.07-.188.08-.17.089-.138.112-.111.109-.07.108-.026.119.008.11.04.108" style="fill:none;stroke:#9500ff;stroke-width:.999997;stroke-linecap:round;stroke-linejoin:round;stroke-miterlimit:10;stroke-dasharray:none;stroke-opacity:1;visibility:visible" visibility="hidden"/><path d="M248.25 678.538h.239l.237-.01.241-.029.218-.052.22-.057.2-.07.176-.08.152-.1.128-.1.09-.097.06-.109.03-.113-.012-.108-.036-.11-.082-.101-.101-.088-.139-.08M344.278 725.899l-.19-.077-.209-.068-.228-.051-.249-.032-.259-.019-.26.011-.258.017-.258.051-.237.059-.219.072-.192.088-.169.1-.136.12-.101.12-.062.117-.029.13.01.13.05.12.088.119.13.109.16.09.189.089.21.062.239.048.237.039.26.01.267-.01.259-.019.249-.04.24-.061.219-.079.201-.092.157-.097.14-.119.099-.117.07-.121.02-.132-.011-.127-.048-.121-.091-.119-.128-.1-.16-.1M343.919 731.352l6.31 3.265" style="fill:none;stroke:#9500ff;stroke-width:.999997;stroke-linecap:round;stroke-linejoin:round;stroke-miterlimit:10;stroke-dasharray:none;stroke-opacity:1;visibility:visible" visibility="hidden"/><path d="m242.05 684.847-.425-7.533 6.704-2.776M350.54 734.827l-6.728 3.135M350.307 727.005l.233 7.821M242.05 684.847l101.76 53.113M248.33 674.538l101.974 52.468M246.947 678.04l.07.101.109.088.128.09.161.07.188.058.2.042.219.028.229.022" style="fill:none;stroke:#9500ff;stroke-width:1.99999;stroke-linecap:round;stroke-linejoin:round;stroke-miterlimit:4;stroke-dasharray:none;stroke-opacity:1;visibility:visible" visibility="hidden"/><path d="m249.872 677.234-8.249.08M343.919 731.352l-.34-1.233M343.579 730.12l.699-4.221M343.579 730.12l.34 1.232" style="fill:none;stroke:#9500ff;stroke-width:.999997;stroke-linecap:round;stroke-linejoin:round;stroke-miterlimit:10;stroke-dasharray:none;stroke-opacity:1;visibility:visible" visibility="hidden"/><path d="m341.083 646.842-.25-8.241 6.917-2.867M236.684 589.586l104.148 49.015M245.115 589.527l-.159-.07-.201-.049-.207-.049-.23-.03-.235-.011h-.25l-.24.02-.25.029-.228.041-.219.058-.209.061-.17.083-.158.085-.12.092-.09.099-.06.098-.02.108.02.102.053.098M243.454 590.732h.239l.248-.01.24-.033.238-.037.219-.06.21-.059.18-.08.149-.09.129-.09.099-.098.06-.102.028-.097-.011-.101-.037-.098-.08-.09-.11-.091-.138-.07M341.57 634.699l-.19-.07-.22-.069-.235-.04-.263-.04-.256-.009-.27.01-.267.02-.26.038-.239.05-.228.07-.2.09-.17.087-.138.102-.11.121-.06.108-.031.12.01.119.063.11.088.108.128.1.16.091.19.079.218.06.241.049.246.03.269.01h.27l.27-.03.259-.04.237-.049.23-.072.2-.076.166-.102.141-.1.108-.119.06-.108.031-.121-.01-.118-.058-.112-.09-.106-.13-.102-.16-.089M341.211 640.67l6.448 3.037" style="fill:none;stroke:#ffdf00;stroke-width:.999997;stroke-linecap:round;stroke-linejoin:round;stroke-miterlimit:10;stroke-dasharray:none;stroke-opacity:1;visibility:visible" visibility="hidden"/><path d="m237.123 597.467-.439-7.881 6.879-2.548M347.98 643.945l-6.897 2.896M347.75 635.734l.23 8.21M237.123 597.467l103.961 49.375M243.563 587.038l104.188 48.696" style="fill:none;stroke:#ffdf00;stroke-width:1.99999;stroke-linecap:round;stroke-linejoin:round;stroke-miterlimit:4;stroke-dasharray:none;stroke-opacity:1;visibility:visible" visibility="hidden"/><path d="m242.141 590.292.08.081.108.079.13.081.17.058.177.052.2.04.218.029.228.02" style="fill:none;stroke:#ffdf00;stroke-width:.999997;stroke-linecap:round;stroke-linejoin:round;stroke-miterlimit:4;stroke-dasharray:none;stroke-opacity:1;visibility:visible" visibility="hidden"/><path d="m245.115 589.527-8.431.059M341.211 640.67l-.38-2.07M340.832 638.6l.738-3.901M340.832 638.6l.379 2.07" style="fill:none;stroke:#ffdf00;stroke-width:.999997;stroke-linecap:round;stroke-linejoin:round;stroke-miterlimit:10;stroke-dasharray:none;stroke-opacity:1;visibility:visible" visibility="hidden"/><path d="m657.92 513.774.355-7.147 4.876-2.03M555.398 471.226l102.874 35.4M562.467 471.196l-.17-.05-.187-.038-.2-.032-.212-.019-.204-.01h-.223l-.199.021-.197.017-.19.043-.16.04-.147.05-.12.07-.092.059-.059.078-.03.068.011.08.028.072.072.079.091.07.125.06.143.06.168.05.19.05.198.029.21.02.217.009.208-.01.209-.01.201-.019.19-.041.157-.037.15-.06.109-.062.1-.069.06-.068.02-.07v-.08l-.03-.08-.069-.07-.1-.07-.119-.071-.149-.059M657.676 503.849l-.188-.05-.199-.049-.209-.029-.219-.032-.228-.01-.218.01-.218.013-.202.028-.186.039-.161.052-.15.05-.106.069-.09.078-.049.07-.024.089.024.081.036.078.082.092.11.069.136.07.168.069.183.05.196.051.221.028.216.03.219.01.23-.01.21-.009.21-.03.178-.038.168-.053.139-.061.122-.058.078-.078.052-.08.016-.08-.006-.082-.053-.086-.076-.082-.11-.069-.14-.081-.162-.059M658.314 510.03l4.259 1.472" style="fill:none;stroke:#00d4ff;stroke-width:.999997;stroke-linecap:round;stroke-linejoin:round;stroke-miterlimit:10;stroke-dasharray:none;stroke-opacity:1;visibility:visible" visibility="hidden"/><path d="m555.229 478.104.17-6.877 4.94-1.831M662.773 511.73l-4.853 2.044M663.15 504.597l-.377 7.133M555.229 478.104l102.693 35.67M560.338 469.396l102.812 35.2" style="fill:none;stroke:#00d4ff;stroke-width:1.99999;stroke-linecap:round;stroke-linejoin:round;stroke-miterlimit:4;stroke-dasharray:none;stroke-opacity:1;visibility:visible" visibility="hidden"/><path d="m562.467 471.196-7.069.03M657.676 503.849l.596 2.777M560.338 469.396l2.129 1.8M658.314 510.03l-.638-6.181M658.272 506.626l-.596-2.777M658.272 506.626l.042 3.404" style="fill:none;stroke:#00d4ff;stroke-width:.999997;stroke-linecap:round;stroke-linejoin:round;stroke-miterlimit:10;stroke-dasharray:none;stroke-opacity:1;visibility:visible" visibility="hidden"/><path d="M376.9 747.885v-.012M377.13 747.367l.072-.06.067-.041M382.154 750.611l-5.253-2.727M377.269 747.266l-.01-.008M382.088 747.347l-.192.05-.197.04-.22.02-.219.007-.21-.017-.2-.03-.189-.05M380.303 747.197l-.097-.088-.06-.112-.034-.099v-.11l.054-.099.066-.11.112-.09.14-.08.17-.077.178-.059.21-.041.208-.019.208-.013.22.013.198.028.188.04M376.63 747.734l.07.041.09.047.11.063M691.195 601.039l-4.607-1.76M690.858 598.157l.132.056.116.07.083.071.046.08.034.08-.024.078-.036.069-.07.072-.104.059-.128.05-.146.039-.172.03-.179.009h-.177l-.19-.01-.18-.029-.172-.039-.156-.05-.137-.059-.113-.072-.076-.07-.064-.077-.019-.08.01-.08.04-.07.078-.071.1-.056.13-.05.151-.043.17-.028.168-.01h.189l.19.01.178.028.168.042.16.051M706.823 482.246l-.181.068-.2.048-.219.05-.235.03-.25.02-.259.01h-.272l-.265-.01-.26-.02-.259-.04-.259-.048-.228-.05-.229-.07M708.979 481.358l-2.156.888M709.448 480.91l-.023.08-.036.079-.073.08-.087.07-.109.072-.141.067M700.923 481.33l-.201-.072-.171-.08-.15-.079-.12-.092-.1-.086-.066-.091-.043-.088-.009-.1M703.707 482.234l-2.784-.904M702.9 480.173l.193-.07.204-.058.234-.04.253-.041.26-.019.275-.01h.281l.277.01.292.03.268.03.268.05.248.06.242.07.209.079.19.077.169.09.128.102.1.096.069.1.04.1v.11l-.03.1-.073.09-.097.09-.132.089-.156.068-.188.069-.212.063-.225.05-.262.027-.258.019-.276.022-.282-.009-.286-.013-.279-.019-.281-.04-.268-.047-.248-.061-.239-.07-.212-.078-.187-.081-.158-.091-.142-.099-.1-.098-.069-.1-.027-.1v-.108l.027-.1.07-.09.1-.088.131-.09.159-.071M561.71 542.205l-.21.068-.231.073-.247.048-.27.039-.277.03-.288.011h-.285l-.292-.01-.288-.031-.281-.039-.255-.06-.252-.061-.23-.077M564.276 541.14l-2.565 1.065M564.894 540.53l-.021.112-.047.11-.09.111-.12.098-.16.089-.18.09M555.463 541.12l-.212-.09-.17-.091-.146-.098-.12-.11-.08-.108-.053-.11-.007-.117M558.304 542.196l-2.841-1.076M557.89 539.745l.219-.077.252-.06.266-.062.28-.038.298-.03.294-.01h.312l.307.01.3.03.296.038.281.062.259.069.239.079.218.089.188.1.159.11.119.12.09.109.05.121.022.124-.022.123-.059.11-.087.118-.132.11-.172.099-.186.09-.218.08-.249.058-.261.063-.288.037-.298.03-.296.02h-.31l-.308-.02-.298-.03-.298-.037-.282-.063-.269-.07-.235-.077-.209-.09-.19-.1-.16-.11-.12-.12-.089-.108-.058-.128-.015-.118.021-.123.06-.119.106-.109.125-.11.16-.1.188-.09M387.829 614.039l-.24.087-.281.081-.286.07-.298.04-.316.04-.323.01h-.315l-.321-.01-.31-.04-.286-.05-.279-.06-.256-.081-.233-.087M390.942 612.755l-3.113 1.284M391.787 611.91l-.019.127-.049.129-.09.141-.129.119-.16.12-.178.108-.22.1M381.212 612.755l-.21-.11-.169-.109-.142-.13-.096-.13-.062-.129-.029-.14M384.087 614.039l-2.875-1.284M384.235 611.103l.27-.097.28-.082.306-.07.328-.05.33-.038.338-.011h.339l.337.01.328.04.308.049.299.07.269.082.25.097.209.108.189.12.139.13.109.129.07.15.029.139-.01.15-.06.138-.089.141-.14.139-.17.13-.195.117-.242.11-.257.1-.29.08-.31.071-.317.047-.34.041-.335.012h-.339l-.34-.012-.328-.041-.305-.047-.303-.07-.268-.08-.249-.1-.207-.111-.189-.118-.139-.129-.112-.139-.07-.141-.031-.139.023-.149.049-.15.1-.14.128-.127.17-.131.211-.12.227-.108M695.963 520.23l-4.585-1.572M695.733 517.585l.14.048.11.07.09.058.06.081.021.071-.01.07-.04.066-.078.059-.101.062-.13.04-.16.039-.167.02-.183.01h-.188l-.187-.01-.19-.03-.17-.029-.158-.052-.139-.05-.12-.066-.083-.07-.058-.071-.018-.068.01-.072.04-.068.08-.06.1-.06.128-.04.156-.037.172-.022.178-.021.194.01.185.011.177.022.183.037.156.052M374.94 655.24h0M375.09 654.815l.07-.083.08-.069.078-.05M380.313 657.777l-5.372-2.536M375.317 654.611h-.01M380.253 654.693l-.19.059-.207.029-.219.021-.23.014-.218-.02-.2-.032-.197-.042M378.493 654.592l-.119-.08-.08-.096-.05-.093-.008-.107.029-.099.068-.098.11-.092.138-.082.17-.077.19-.05.212-.05.219-.021.226-.01.228.01.208.032.199.038M374.66 655.111l.083.04.085.039.112.05M552.635 582.41l-2.35 1.027M397.712 649.627l-4.19 1.821M552.635 582.41l.06-2.248M689.267 523.136l-4.585 2.001M550.157 669.052l-3.923 1.9M396.06 743.375l-1.035.5M681.363 605.78l-3.49 1.681M693.097 680.777 697.516 610M691.874 600.713l6.083 2.308 4.606-73.744M696.791 519.874l6.219 2.137 2.397-38.376-6.281-2.06M710.285 481.617l-4.877 2.019" style="fill:none;stroke:#ff008a;stroke-width:.999997;stroke-linecap:round;stroke-linejoin:round;stroke-miterlimit:10;stroke-dasharray:none;stroke-opacity:1;visibility:visible"/><path d="m697.517 609.999-6.4 3.127" style="fill:none;stroke:#ff008a;stroke-width:1.99999;stroke-linecap:round;stroke-linejoin:round;stroke-miterlimit:10;stroke-dasharray:none;stroke-opacity:1;visibility:visible"/><path d="m703.01 522.01-138.293 60.42M565.86 541.358l-5.79 2.4M558.985 584.94l-165.376 72.23M558.985 584.94l1.084-41.181M393.498 650.125l-.028-1.852M392.894 612.904l-6.996 2.899M389.998 842.031l-4.1-226.229M556.485 679.055l-6.328 3.107M554.485 754.522l2-75.466M697.954 603.021l-135.656 65.863" style="fill:none;stroke:#ff008a;stroke-width:.999997;stroke-linecap:round;stroke-linejoin:round;stroke-miterlimit:10;stroke-dasharray:none;stroke-opacity:1;visibility:visible"/><path d="m702.561 529.277-6.52 2.877" style="fill:none;stroke:#ff008a;stroke-width:1.99999;stroke-linecap:round;stroke-linejoin:round;stroke-miterlimit:10;stroke-dasharray:none;stroke-opacity:1;visibility:visible"/><path d="m556.682 671.611-161.56 78.441M556.682 671.611l2.09-78.89" style="fill:none;stroke:#ff008a;stroke-width:.999997;stroke-linecap:round;stroke-linejoin:round;stroke-miterlimit:10;stroke-dasharray:none;stroke-opacity:1;visibility:visible"/><path d="m562.298 668.885.159-5.763M564.717 582.431l.145-5.316M393.61 657.17l-.11-6.836M395.122 750.053l-.108-6.765" style="fill:none;stroke:#ff008a;stroke-width:1.99999;stroke-linecap:round;stroke-linejoin:round;stroke-miterlimit:10;stroke-dasharray:none;stroke-opacity:1;visibility:visible"/><path d="m558.773 592.72-6.457 2.857M550.485 668.896l6.196 2.716M552.635 582.41l6.352 2.53M560.07 543.758l-6.413-2.43M385.9 615.802l-6.472-2.899M393.481 649.202l.228.016.208.041.19.062.158.068.132.078.087.099.06.103.013.097-.02.1-.072.099-.1.101-.136.08-.17.068M550.563 580.948l.15-.05.18-.04.187-.03.199-.019h.208l.203.019.198.03.178.04.169.06.14.057.11.081.078.081.05.079v.09l-.02.078-.06.081-.098.08-.127.06-.154.06-.17.039" style="fill:none;stroke:#ff008a;stroke-width:.999997;stroke-linecap:round;stroke-linejoin:round;stroke-miterlimit:10;stroke-dasharray:none;stroke-opacity:1;visibility:visible"/><path d="m550.87 581.713-.163-.05-.142-.049-.118-.069-.093-.07-.067-.08-.029-.078v-.08l.03-.083.066-.078.093-.068.118-.06M684.707 522.936l.133-.047.148-.04.17-.022.188-.008h.189l.188.008.179.03.18.032.156.047.138.059.116.062.087.071.056.068.023.068-.01.083-.037.066-.081.062-.1.061-.139.037-.15.042-.171.017-.175.024M685.282 523.623l-.165-.028-.16-.04-.142-.052-.116-.06-.098-.059-.07-.066-.053-.072-.01-.068.01-.071.053-.061.076-.06.099-.051" style="fill:none;stroke:#ff008a;stroke-width:.999997;stroke-linecap:round;stroke-linejoin:round;stroke-miterlimit:10;stroke-dasharray:none;stroke-opacity:1;visibility:visible"/><path d="m376.432 746.908.608.417M376.432 746.908l4.41-2.11M376.205 753.128l-.12-5.62M376.9 747.872l.01-.107.03-.112.048-.109.059-.097.082-.08M382.283 757.11l-5.253-2.736M377.03 754.372l-.1-.07-.09-.09-.08-.11M380.66 747.367l-.139-.05-.117-.06-.103-.06M382.027 744.719l-1.187.08M376.084 747.509l.547.225M376.205 753.128l.555.975M382.027 744.719h.008M377.04 747.326l.09.041M685.932 598.592l.379.41M685.932 598.592l3.113-1.503M685.374 603.836l.281-4.765M686.588 599.28h-.01M686.588 599.28l.01-.072.014-.079.023-.08M690.501 597.03h-.01M690.142 596.98l-1.095.11M685.655 599.07l.643.112M690.142 596.98h.119l.124.021.109.03M686.298 599.183l.08.025.101.032.1.04M690.501 597.03l.056-.02.063.01M686.311 599.001l.324.048M692.064 597.567l-1.444-.548M708.582 480.222l.2.072.17.079.15.078.127.09.102.088.067.092.043.098.006.09M705.798 479.32l2.784.903M702.702 479.308l.177-.059.2-.058.21-.043.241-.03.248-.017.257-.02.266.008.262.012.267.016.259.04.249.042.239.058.221.063M700.53 480.201l2.172-.893M700.064 480.642l.024-.081.036-.079.073-.08.083-.068.112-.07.14-.063M701.01 482.194l-.141-.048M700.014 481.466l.05-.825M709.39 481.736l.059-.827M564.097 539.806l.213.09.178.09.137.097.123.111.089.11.048.118.01.107M561.254 538.741l2.844 1.065M557.87 538.733l.207-.081.228-.059.254-.05.258-.04.276-.03.286-.01h.294l.284.01.281.03.276.04.261.058.248.061.231.079M555.291 539.786l2.58-1.053M554.675 540.396l.021-.112.048-.11.087-.11.132-.097.15-.092.178-.09M554.642 541.278l.033-.883M564.873 541.417l.023-.888M391.074 611.151l.208.11.177.111.142.13.101.126.059.14.026.142M388.206 609.88l2.867 1.272M384.475 609.88l.239-.1.268-.07.29-.071.304-.04.312-.038.319-.009h.319l.318.01.298.037.298.04.28.07.247.08.24.091M381.36 611.151l3.115-1.272M380.503 612.008l.017-.137.054-.131.086-.128.132-.132.159-.119.19-.109.22-.1M380.52 612.964l-.017-.956M391.799 612.853l-.012-.943M690.707 518.02l.39.448M690.707 518.02l3.179-1.373M690.182 522.748l.25-4.241M691.376 518.658h0M691.376 518.658l.01-.081.018-.078M695.358 516.548h0M694.999 516.507l-1.113.139M690.43 518.507l.656.06M694.999 516.507l.128-.008.11.017.123.031" style="fill:none;stroke:#ff008a;stroke-width:1.99999;stroke-linecap:round;stroke-linejoin:round;stroke-miterlimit:4;stroke-dasharray:none;stroke-opacity:1;visibility:visible"/><path d="m691.086 518.567.09.021.093.031.108.039M695.358 516.548l.068-.019.047.008M691.097 518.468l.307.03M696.967 517.045l-1.495-.508M374.463 654.346l.627.47M374.463 654.346l4.527-1.964M374.232 660.844l-.13-5.903M374.94 655.24l.01-.11.029-.11.041-.11.068-.095M380.454 664.604l-5.373-2.547M375.08 662.058l-.1-.068-.1-.083-.067-.106M378.792 654.722l-.161-.059-.139-.07M380.205 652.273l-1.216.11M374.103 654.94l.557.17M374.232 660.844l.581.957M380.205 652.273h.01M374.94 655.24l-.28-.13M699.126 481.576l.907-.368M687.157 678.308l3.96-65.183M548.436 751.627l1.721-69.465M383.887 838.586l-4.46-225.682 1.085-.447M550.285 583.436l-152.573 66.19M552.695 580.161l.964-38.833.996-.408M696.791 519.874l-7.525 3.261M684.68 525.138l-119.814 51.977M696.791 519.874l2.335-38.299M550.485 668.896l-.328.156M546.233 670.952 396.06 743.374M550.485 668.896l1.83-73.318M691.874 600.713l-10.51 5.067M677.874 607.461l-115.417 55.661M691.874 600.713l4.168-68.558M693.097 680.777l-5.94-2.47M559.988 751.594l2.1-75.276M562.457 663.122l2.041-72.93M697.764 678.299l-4.667 2.477M709.42 481.34l.864.277M691.117 613.125l-129.028 63.193M697.764 678.299l12.523-196.68M564.863 577.116l.997-35.757M393.498 650.335v-.21M393.47 648.273l-.577-35.37M396.566 838.527l-1.313-80.513M396.566 838.527l-6.568 3.504M550.157 682.161l-154.905 75.852M559.988 751.594l-5.503 2.928M696.041 532.153 564.5 590.192M395.014 743.288l-1.264-77.757M552.316 595.577l-158.568 69.952M554.485 754.522l-6.05-2.895M564.885 540.99l.975.367M389.998 842.031l-6.11-3.445M391.787 612.416l1.107.488M393.47 648.273l.359.01.358.029.35.052.326.058.306.08.292.099.258.11 1.992.915M394.058 650.213l-.17.06-.189.041-.201.02M393.498 650.125l.201.007.178.045.181.036M549.338 583.058l.947.379M548.367 581.226l.017-.14.063-.137.088-.131.137-.13.162-.118.198-.11.216-.1.255-.09.275-.077.298-.062.311-.05.32-.03.335-.018h.337l.34.009.33.03.327.04.319.049M551.985 581.744l-.179.03-.185.009h-.199l-.192-.01-.189-.017-.172-.043M548.342 582.084l.012.137.05.13.08.129.107.132.151.117.172.12.196.11.228.098M683.742 524.81l.937.328M682.667 523.883l.01.108.043.12.066.11.09.109.132.1.147.112.168.088.205.1.216.08M685.282 523.623h.17l.174.01.17.022M682.72 523.076l.02-.11.045-.109.091-.109.11-.1.15-.088.167-.092.201-.077.219-.071.242-.05.255-.047.272-.043.275-.019.3-.009.3-.012.297.021.301.019.292.043.291.037.272.06.265.07.242.078 1.94.668M395.014 743.288l.359.007.346.03.34.05M546.244 670.277l.021-.148.059-.148.099-.14.124-.14.154-.13.199-.118.219-.112.238-.099.271-.077.288-.072.299-.059.32-.038.316-.02h.33l.338.009.316.03.324.038M677.92 606.724l.023-.12.049-.119.087-.12.112-.11.14-.1.169-.086.188-.094.21-.066.225-.07.253-.05.268-.04.279-.03.278-.01.299-.01.284.02.292.021.287.04M677.874 607.461l.047-.737M546.233 670.952l.012-.675M682.667 523.883l.053-.807M548.342 582.084l.027-.857" style="fill:none;stroke:#ff008a;stroke-width:1.99999;stroke-linecap:round;stroke-linejoin:round;stroke-miterlimit:4;stroke-dasharray:none;stroke-opacity:1;visibility:visible"/><path d="m380.301 747.198 1.853 3.413M380.661 747.367l1.403-1.086M692.064 597.567l-1.206.59M690.62 597.019l.238 1.138M557.871 538.733l.019 1.012M557.87 538.733l.02 1.012M384.475 609.879l-.24 1.224M384.475 609.88l-.24 1.223M696.967 517.045l-1.234.54M695.472 516.537l.261 1.048M378.492 654.593l1.821 3.184M394.058 650.213l-.537 1.235M706.823 482.246l-1.415 1.39M696.041 532.154l6.969-10.144M691.117 613.126l6.837-10.105M381.212 612.755l-1.784.148" style="fill:none;stroke:#ff008a;stroke-width:.999997;stroke-linecap:round;stroke-linejoin:round;stroke-miterlimit:10;stroke-dasharray:none;stroke-opacity:1;visibility:visible"/><path d="m380.301 747.198 1.982 9.912M677.92 606.724l7.454-2.888M690.858 598.157l1.206-.59M695.733 517.585l1.234-.54M378.492 654.593l1.962 10.011" style="fill:none;stroke:#ff008a;stroke-width:1.99999;stroke-linecap:round;stroke-linejoin:round;stroke-miterlimit:4;stroke-dasharray:none;stroke-opacity:1;visibility:visible"/><path d="m374.103 654.941-15.347.129" style="fill:none;stroke:red;stroke-width:.999997;stroke-linecap:round;stroke-linejoin:round;stroke-miterlimit:10;stroke-dasharray:none;stroke-opacity:1;visibility:visible" visibility="hidden"/></svg>