<svg xmlns="http://www.w3.org/2000/svg" baseProfile="full" height="1122.52" preserveAspectRatio="xMinYMin meet" style="width:912px;height:1303px" width="793.701" xml:space="preserve"><path d="M567.845 913.614h0l.013-.013M568.337 912.483v-.013l.008-.014M575.701 912.242l-.35-.077M575.701 912.242h.01M575.308 911.415l-.424.067M575.308 911.415h.021M574.884 911.481l-.03-.012-.025-.012v-.032l-.01-.227M574.723 910.828l-.437.207M574.723 910.828l.021-.01h.02M571.415 911.406l.024-.033.02-.023M570.317 919.137l-.01-.021-.014-.032M570.381 919.15h-.033l-.022-.015M571.046 919.454l-.01-.01-.014-.018M571.337 919.26l.185-.164M571.522 919.096l.033-.013h.024l.022.013.238.37M571.863 919.478h-.016l-.008-.013M572.412 918.976l.307.216M572.72 919.192h0M569.826 917.822l-.123-.283-.085-.302-.065-.33-.032-.348-.012-.358.012-.356.045-.383.065-.383.096-.38.11-.369.14-.37.164-.367.185-.352.208-.336.216-.315.24-.293.25-.282.26-.24.26-.229.285-.185.273-.164.281-.119.282-.096.284-.059.27-.017.274.01.25.054.239.075M570.88 918.91l-.216-.108-.205-.141-.183-.174-.177-.196-.14-.217-.131-.25M568.14 917.192v.021M567.88 916.32l-.044.132M567.858 916.225l.021.02.01.043-.01.032M567.77 916.17l.088.055M567.813 915.333l-.11.195M567.824 915.222l.01.033-.01.034-.01.044M567.718 915.072l.107.148M567.954 914.265l-.172.228M567.988 914.156v.033l-.01.032-.023.044M567.845 913.678v-.064M567.845 913.678l.143.477M567.858 913.602l.01-.033.02-.02M568.303 913.199l-.415.35M568.345 913.09v.032l-.021.047-.02.029M568.324 912.548v-.032l.013-.035M568.324 912.548l.021.541M568.345 912.458l.027-.021.017-.02M568.826 912.199l-.437.217M568.891 912.111l-.013.032-.02.033-.032.02M568.923 911.829l-.03.283M569.488 911.35l-.183.032M569.553 911.274l-.01.03-.034.034-.021.01M569.631 911.067l-.079.207M570.24 910.699l-.099-.023M570.326 910.641l-.033.033-.019.024h-.033M570.381 910.533l-.055.108M575.298 912.08l.404.163M574.884 911.481l-.041-.024M574.819 911.21l.49.205M574.285 911.036l-.065-.025M569.748 910.699l1.667.707M569.53 915.24l-1.664-.708M570.274 918.553l-.123-.056M570.88 918.954l-.073-.023M571.35 919.248l.49.219M571.6 919.096l-.044-.013M572.296 919.008l.424.183M567.782 914.484l.01-.025.042-.259.068-.27.01-.025M568.087 913.384l.085-.24.11-.248.054-.096M568.597 912.32l.088-.133.141-.228.052-.064M574.199 911.046l.164.076.161.099.154.108.13.12.131.128.153.174.138.199.048.096M575.298 912.08l.041.075.11.228.078.208.055.209.008.01M575.647 913.09l.03.15.025.24.01.242M575.701 914.19v.053l-.024.26-.044.264M575.503 915.353l-.055.207-.085.262-.024.042M575.079 916.463l-.055.11-.13.238-.064.119M574.493 917.42l-.044.067-.164.193-.161.187M573.798 918.183l-.057.043-.183.161-.197.143-.076.044M573.048 918.714l-.099.055-.208.085-.206.088-.208.053-.031.014" style="fill:none;stroke:red;stroke-width:.999997;stroke-linecap:round;stroke-linejoin:round;stroke-miterlimit:4;stroke-dasharray:none;stroke-opacity:1;visibility:visible"/><path d="m572.285 919.008-.175.041-.205.024-.219.01-.208-.02-.204-.035-.194-.043-.202-.077M732.3 719.92v-.01M732.584 718.779v-.013M733.04 717.703h0l.01-.013M739.412 716.995l-.347.024M739.412 716.995h.013M738.998 716.94v-.079M738.923 716.353l-.38.163M738.923 716.353l.013-.01.02.01M735.464 724.544l-.021-.024-.012-.02M735.474 724.544h0-.01M736.17 724.642l-.008-.01-.013-.013M736.477 724.316l.085-.124M736.563 724.194h0l.01-.007M736.639 724.174h0l.27.261M736.923 724.447h0l-.013-.012M737.409 723.881l.263.097M737.682 723.98h-.01M734.45 722.794l-.083-.296-.081-.316-.041-.336-.022-.348.008-.359.026-.372.053-.368.064-.37.1-.372.119-.367.141-.36.153-.333.175-.342.193-.305.208-.293.216-.271.23-.237.238-.218.24-.196.251-.153.25-.12.25-.087.25-.054.25-.022.239.011.226.053M735.693 724.142l-.208-.077-.183-.108-.177-.134-.172-.161-.153-.187-.131-.202-.119-.231-.1-.248M732.722 722.336l-.019.11M732.69 722.26l.021.012.01.03v.034M732.602 722.228l.088.03M732.516 721.466l-.076.205M732.506 721.368l.01.023v.074M732.375 721.249l.13.12M732.495 720.475l-.143.272M732.495 720.367l.01.03v.046l-.01.033M732.3 719.987l-.01-.032.01-.035M732.3 719.987l.195.379M732.3 719.91l.01-.033.011-.034M732.643 719.432l-.323.413M732.678 719.323v.043l-.008.033-.025.033M732.57 718.845v-.033l.013-.035M732.57 718.845l.107.476M732.584 718.766l.01-.03.02-.023M732.985 718.409l-.37.304M733.029 718.311v.03l-.024.047-.02.019M733.016 717.766l.013-.03.011-.034M733.016 717.766l.013.544M733.05 717.69v-.01M733.472 717.486l-.216.084M733.529 717.387l-.013.043-.02.034-.024.022M733.57 717.116l-.041.272M734.073 716.7l-.153.01M734.136 716.637l-.021.028-.02.027-.022.009M734.203 716.45l-.068.187M734.823 716.093l-.01.008-.023.023M734.854 716.017l-.03.076M738.998 716.863l.415.132M738.542 716.516l-.052-.012M738.423 716.202l.5.15M734.32 716.082l1.719.51M734.375 719.954l-1.732-.524M736.477 724.305l.432.132M736.639 724.174h0M737.389 723.892l.284.087M732.365 720.3l.021-.161M732.44 719.693l.03-.163.066-.253.065-.26h.014M732.745 718.605l.03-.079.098-.237.112-.239.044-.068M738.104 716.363l.156.056.15.064.142.076.143.097.13.11.143.14.139.176.133.173.107.196.033.087M739.48 717.766l.03.056.055.205.055.21.021.073M739.706 718.747l.021.173.01.24v.088M739.706 719.855l-.013.065-.028.262-.024.11M739.48 720.974l-.079.219-.061.184M739.055 722.01l-.068.13-.127.218-.024.043M738.511 722.871l-.068.093-.161.175-.11.135M737.89 723.531l-.11.088-.174.13-.185.12-.034.011M737.227 723.966l-.175.09-.194.062-.199.056-.195.035-.196.009h-.194l-.196-.03-.184-.046M625.837 825.567l5.503-94.237M632.006 719.987l1.487-25.65M721.595 863.238v-.012l.01-.012M722.05 862.184v-.016M728.59 862.053l-.26-.068M728.59 862.053v.008M728.274 861.267l-.357.056M728.274 861.267h.021M727.918 861.323h0M727.873 861.278v-.161M727.795 860.704l-.37.184M727.795 860.704l.021-.013h.01M723.261 863.912v-.023l.008-.03M724.412 868.708l-.01-.01-.011-.02M724.62 868.558l.216-.176M724.836 868.382l.021-.024h.02l.022.024.197.348M725.107 868.742h-.01v-.013M725.456 868.352l.03-.033M725.586 868.285l.252.205M725.847 868.502h0l-.008-.012M723.423 867.143l-.088-.283-.065-.284-.042-.313-.021-.33v-.334l.021-.35.055-.36.064-.346.097-.363.11-.353.132-.35.161-.338.164-.324.185-.308.206-.292.206-.272.23-.252.225-.228.24-.196.253-.163.239-.128.248-.11.24-.078.25-.032.229-.01.232.02.216.068M724.433 868.252l-.183-.085-.177-.11-.15-.142-.151-.162-.131-.186-.123-.207-.096-.217M721.745 866.578l-.008.085M721.745 866.554v.024M721.54 865.773l-.052.184M721.531 865.684l.008.024.01.03-.01.033M721.423 865.587l.11.097M721.516 864.835l-.14.261M721.531 864.738v.065l-.016.031M721.409 864.533l.123.204M721.331 864.28l.013-.012.011-.012M721.673 863.846l-.317.413M721.703 863.74v.03l-.01.046-.02.03M721.595 863.291v-.053M721.595 863.291l.11.448" style="fill:none;stroke:red;stroke-width:.999997;stroke-linecap:round;stroke-linejoin:round;stroke-miterlimit:4;stroke-dasharray:none;stroke-opacity:1;visibility:visible"/><path d="m721.604 863.216.013-.024.02-.03M721.995 862.847l-.357.312M722.04 862.748l-.01.04-.009.035-.025.022M722.029 862.246v-.03l.021-.031M722.029 862.246l.01.503M722.05 862.17l.024-.03.023-.013M722.467 861.932l-.37.195M722.531 861.843l-.013.032-.02.035-.032.021M722.573 861.53l-.041.313M723.052 861.148l-.185.032M723.12 861.084l-.016.03-.017.023-.035.011M723.193 860.855l-.073.23M723.717 860.562l-.099-.033M723.792 860.509l-.021.028-.02.025h-.035M723.847 860.397l-.055.112M728.318 861.957l.27.096M727.918 861.323v-.01M727.873 861.117l.401.15M727.425 860.889l-.055-.025M723.867 860.517l1.661.621M721.595 863.291l1.667.621M724.63 868.558l.467.172M724.899 868.382l-.041-.024M725.456 868.352l.383.139M721.464 864.118l.01-.03.042-.254.068-.245.041-.158M721.745 863.073l.079-.205.096-.239.109-.216M722.224 862.053l.057-.087.066-.109M727.209 860.833l.139.067.142.064.131.086.119.096.12.11.133.156.117.17.11.174.033.057M728.318 861.957l.063.17.068.195.054.187M728.565 862.89v.041l.024.23.01.206M728.565 863.945l-.019.173-.033.24M728.352 865.032l-.024.076-.075.239-.024.045M727.948 866.066l-.11.195-.087.144M727.404 866.936l-.11.14-.153.173-.032.034M726.781 867.612l-.13.11-.173.129-.118.088M726.13 868.066l-.01.012-.185.087-.185.077-.185.055-.184.029-.196.035h-.186l-.197-.023-.183-.03-.186-.055" style="fill:none;stroke:red;stroke-width:.999997;stroke-linecap:round;stroke-linejoin:round;stroke-miterlimit:4;stroke-dasharray:none;stroke-opacity:1;visibility:visible"/><path d="m298.705 777.944-.044.043-.043.036-.033.03-.043.02-.042.023-.055.012M298.802 777.595l.013.057-.013.066-.01.042-.02.055-.023.04-.032.055M298.802 777.291v.304M299.174 777.204l-.065.01-.055.02-.065.013-.056.013-.054.007-.077.022M299.229 777.499l-.055-.295M299.336 777.77l-.032-.032-.021-.048-.024-.037-.02-.046-.011-.056v-.053M299.588 777.847h-.044l-.044.008-.032-.008-.044-.013-.033-.019-.044-.023M299.814 777.879l-.227-.03M299.793 778.282l.021-.404M299.358 778.52l.044-.053.041-.044.034-.024.044-.032.044-.023h.022l.02-.01.032-.009.154-.045M299.229 778.857l.01-.063.011-.054.01-.044.024-.058.021-.041.032-.053M299.174 779.14l.055-.284M298.802 779.226l.079-.021.064-.01.054-.012.055-.01.055-.024.065-.008M298.802 778.954v.272M298.715 778.685l.032.04.024.036.021.043.008.044v.106M298.445 778.608l.055-.012h.042l.043.012.044.01.032.02.044.033M298.17 778.618l.273-.01M298.17 778.183v.433M298.445 778.108l-.273.076M298.715 778.685l-.021-.015M298.802 777.291l.372-.087M296.367 778.476l-.013-.217v-.239l.034-.23.032-.182.044-.188.066-.173.077-.164.087-.162.097-.162.11-.152.12-.144.12-.13.14-.121.045-.032M702.709 718.9l-.021.043-.031.032-.033.021-.035.021-.03.015-.043.007M702.808 718.596v.053l-.01.04-.011.056-.012.046-.019.042-.024.043M702.818 718.323l-.01.273M703.092 718.255l-.055.012-.044.015-.032.005-.044.01-.044.014-.054.012M703.115 718.518l-.024-.263M703.178 718.766l-.019-.03-.014-.045-.008-.033-.011-.043v-.042l-.01-.055M703.362 718.833l-.03.012h-.035l-.031-.012-.021-.01-.023-.013-.035-.032M703.503 718.866l-.14-.032M703.472 719.225l.03-.361M703.144 719.432l.033-.045.035-.032.033-.032.032-.026.034-.008h.01l.02-.01.022-.01.109-.044M703.037 719.736l.01-.053.014-.056.01-.043.02-.043.025-.045.02-.04M702.974 719.987l.063-.25M702.688 720.053l.055-.013.054-.012.031-.01.045-.009.044-.012.058-.01M702.722 719.815l-.033.239M702.678 719.573l.024.03.007.037.013.028.01.045v.047l-.01.056M702.482 719.486h.076l.03.012.025.01.03.02.024.023M702.276 719.497l.205-.013M702.308 719.107l-.01.075v.117l-.014.067v.054l-.007.078M702.516 719.04l-.208.068M702.688 718.866l.044.01M702.678 719.573l-.01-.008M702.342 719.094h0M702.342 719.094l-.024.013-.01.008M701.209 717.54l.044-.043M700.59 719.583l-.01-.041M360.155 948.597l.01.24.043.216.078.207.097.176.13.15.153.12.164.086.184.046.196.008.206-.03.208-.067.206-.099.194-.129.186-.163.174-.196.151-.205.132-.241.11-.24.074-.248.044-.252.021-.25-.01-.24-.043-.217-.076-.205-.099-.175-.13-.153-.14-.118-.175-.09-.184-.042-.196-.012-.208.024-.208.064-.207.11-.193.129-.187.163-.173.186-.152.216-.13.23-.11.252-.075.249-.044.25-.021.25" style="fill:none;stroke:red;stroke-width:.666665;stroke-linecap:round;stroke-linejoin:round;stroke-miterlimit:4;stroke-dasharray:none;stroke-opacity:1;visibility:visible"/><path d="m361.383 947.989-.032.043-.044.04-.043.026-.033.031-.055.02-.042.012M361.494 947.637v.055l-.013.054-.011.058-.01.052-.022.042-.032.056M361.494 947.334v.304M361.851 947.214l-.064.023-.053.021-.055.01-.055.022-.065.023-.065.021M361.905 947.51l-.055-.297M362.004 947.77l-.023-.032-.032-.048-.01-.028-.02-.044-.014-.056v-.052M362.254 947.814l-.044.019h-.075l-.033-.011-.043-.008-.034-.025M362.471 947.822l-.217-.008M362.46 948.227l.012-.405M362.025 948.5l.033-.055.044-.045.043-.033.044-.022.044-.032h.021l.02-.009.022-.012.164-.065M361.895 948.837v-.055l.024-.053.008-.043.023-.056.022-.042.032-.058M361.841 949.12l.053-.284M361.47 949.226l.065-.021.067-.01.053-.021.055-.013.065-.019.066-.023M361.47 948.964v.261M361.395 948.715l.03.03.022.047.013.031.011.043.01.044-.01.054M361.123 948.652h.053l.044-.012.044.012.044.008.032.015.043.02M360.861 948.685l.261-.033M360.861 948.258v.425M361.135 948.16l-.273.096M361.395 948.715l-.024-.01M361.101 948.174l.044.03M359.002 948.304v-.196l.021-.228.044-.243.055-.184.065-.173.064-.173.09-.175.096-.161.108-.155.12-.141.132-.143.13-.128.151-.11.057-.045" style="fill:none;stroke:red;stroke-width:.666665;stroke-linecap:round;stroke-linejoin:round;stroke-miterlimit:4;stroke-dasharray:none;stroke-opacity:1;visibility:visible"/><path d="m294.331 788.518-.01-15.6" style="fill:none;stroke:red;stroke-width:.999997;stroke-linecap:round;stroke-linejoin:round;stroke-miterlimit:4;stroke-dasharray:none;stroke-opacity:1;visibility:visible"/><path d="m629.613 820.216-.024.03-.033.037-.028.029-.038.012-.03.021-.044.011M629.706 819.922l-.01.053v.043l-.009.044-.012.045-.021.044-.021.04M629.706 819.673v.25M629.983 819.595l-.057.01-.044.014-.032.008-.044.01-.042.013-.057.024M630.003 819.833l-.021-.24M630.076 820.063l-.019-.032-.02-.032-.013-.033-.01-.035v-.04l-.011-.059M630.253 820.117l-.033.012h-.055l-.032-.012-.023-.012-.018-.02M630.394 820.14l-.14-.025M630.373 820.476l.021-.336M630.058 820.682l.019-.041.033-.036.033-.019.035-.023.03-.022h.011l.024-.01.02-.012.11-.042M629.935 820.965l.013-.044.011-.043.023-.044.008-.042.024-.046.022-.041M629.88 821.205l.055-.241M629.613 821.28l.055-.012.038-.01.047-.009.045-.013.042-.01.041-.023M629.634 821.052l-.021.23M629.59 820.834l.024.032.007.033.013.032.01.035v.043l-.01.042M629.394 820.77h.11l.023.01.028.022.024.021M629.198 820.791l.195-.023M629.22 820.422l-.01.065v.175l-.011.064v.065M629.415 820.358l-.195.064M629.579 820.183l.055.01M629.59 820.834h-.01M629.22 820.497h-.01M629.209 820.487l.01.01M628.228 818.888l.099-.11M627.6 820.738l-.013-.133M636.78 698.763l-.033.043-.032.034-.031.02-.035.012-.03.023-.034.008M636.879 698.208l-.013.26M637.15 698.143l-.055.01-.041.013-.047.008-.029.013-.047.012-.052.01M637.173 698.393l-.024-.25M637.248 698.647l-.024-.035-.02-.046-.01-.03-.014-.046v-.043l-.008-.053M637.42 698.71l-.03.01h-.035l-.02-.01-.024-.01-.031-.013-.021-.032M637.573 698.754l-.153-.044M637.54 699.103l.033-.35M637.225 699.287l.033-.033.032-.044.02-.023.035-.02.033-.012.011-.01h.024l.02-.013.107-.029M637.107 699.58l.01-.053.011-.046.01-.042.021-.044.021-.043.023-.043M637.053 699.83l.055-.25M636.78 699.896l.044-.015.055-.009.034-.01.042-.01.044-.012.054-.01M636.803 699.654l-.024.241M636.758 699.417l.013.03.018.034.013.045v.128M636.553 699.341l.041-.013.035.013h.03l.025.021.03.008.024.035M636.345 699.341h.208M636.365 698.96v.141l-.008.054v.12l-.013.065M636.585 698.905l-.219.055M636.745 698.73l.044.015M636.758 699.417l-.021-.013M636.365 699.145h0M636.365 699.145h0M636.464 698.971l-.055-.025M636.464 698.971l-.021.01-.034.018M636.464 698.939v.03M636.879 698.208l.27-.065M635.225 697.578l.096-.12.055-.045M634.735 699.45v-.032l-.021-.185M363.004 804.53l-.043.041-.044.043-.033.021-.044.035-.041.02-.056.01M363.113 804.17v.064l-.01.059-.014.05-.02.058-.021.042-.034.051M363.113 803.855v.315M363.484 803.756l-.065.024-.067.01-.053.02-.055.01-.065.012-.064.023M363.538 804.06l-.055-.305M363.637 804.343l-.024-.03-.033-.047-.022-.043-.009-.041-.01-.055v-.067M363.897 804.41l-.043.01-.044.009-.042-.01-.034-.009-.032-.01-.044-.034M364.113 804.444l-.217-.033M364.103 804.867l.01-.423M363.658 805.117l.03-.055.046-.044.044-.033.044-.02.041-.021.022-.012h.022l.034-.01.162-.054M363.516 805.465l.012-.053.01-.067.02-.043.022-.053.023-.055.034-.053M363.462 805.759l.055-.296M363.09 805.856l.068-.024.065-.007.054-.01.054-.026.066-.012.064-.018M363.09 805.574v.283M363.015 805.302l.024.033.03.043.011.044.011.043v.109M362.734 805.212h.14l.044.025.033.011.043.032M362.46 805.237l.273-.025M362.46 804.778v.459M362.742 804.703l-.283.076M363.015 805.302l-.021-.013M362.874 804.682l-.033-.021M362.874 804.682l-.033.01-.034.02M360.567 805.073l-.01-.205v-.254l.035-.237.03-.184.057-.196.064-.176.076-.181.085-.164.1-.175.107-.152.13-.152.131-.132.143-.13.055-.04" style="fill:none;stroke:red;stroke-width:.666665;stroke-linecap:round;stroke-linejoin:round;stroke-miterlimit:4;stroke-dasharray:none;stroke-opacity:1;visibility:visible"/><path d="m356.934 954.373 1.633-155.022M689.962 849.291l9.464-134.938M725.274 859.723l.15-.043.153-.012.153.012.14.043M724.313 860.04l.372-.119M725.056 859.789l.219-.067M570.895 910.134l.456-.155M571.74 909.848l.35-.108M720.834 860.704l5.208-1.696M565.563 803.257l47.372 17.532M616.884 822.25l3.503 1.292-3.634 1.068M612.316 825.905l-2.817.828M333.093 942.426l54.148 27.133 7.125-2.33" style="fill:none;stroke:red;stroke-width:.999997;stroke-linecap:round;stroke-linejoin:round;stroke-miterlimit:4;stroke-dasharray:none;stroke-opacity:1;visibility:visible"/><path d="m364.038 952.13 10.17 5.07" style="fill:none;stroke:red;stroke-width:1.99999;stroke-linecap:round;stroke-linejoin:round;stroke-miterlimit:4;stroke-dasharray:none;stroke-opacity:1;visibility:visible"/><path d="m536.235 897.795 30.805 13.085 6.059-1.966M536.235 897.795l-172.197 54.336" style="fill:none;stroke:red;stroke-width:.999997;stroke-linecap:round;stroke-linejoin:round;stroke-miterlimit:4;stroke-dasharray:none;stroke-opacity:1;visibility:visible"/><path d="m542.285 895.891 10.344 4.373" style="fill:none;stroke:red;stroke-width:1.99999;stroke-linecap:round;stroke-linejoin:round;stroke-miterlimit:4;stroke-dasharray:none;stroke-opacity:1;visibility:visible"/><path d="m689.962 849.291 30.872 11.413M689.962 849.291 542.285 895.89M512.813 887.85l17.636 7.485-10.672 3.354M535.136 896.708l.653.281 4.363-1.381M612.857 827.155l3.81-1.119M612.262 826.928l.596.227M679.029 851.849l3.807-1.196M678.389 851.609l.64.24M369.966 948.728l.641.312 5.058-1.597M625.837 825.567l53.315 19.723M625.837 825.567l-91.314 26.864M683.107 846.747l1.047.39-1.102.35" style="fill:none;stroke:red;stroke-width:.999997;stroke-linecap:round;stroke-linejoin:round;stroke-miterlimit:4;stroke-dasharray:none;stroke-opacity:1;visibility:visible"/><path d="m678.57 848.889-5.297 1.664" style="fill:none;stroke:red;stroke-width:1.99999;stroke-linecap:round;stroke-linejoin:round;stroke-miterlimit:4;stroke-dasharray:none;stroke-opacity:1;visibility:visible"/><path d="m625.837 825.567-.415 7.115M689.962 849.291l-.51 7.308M720.269 868.109l.565-7.405M536.235 897.795l-.336 7.8M566.66 918.79l.38-7.91M387.111 978.032l.13-8.472M370.01 945.65l-.043 3.08M375.72 943.853l-.055 3.588M373.404 941.732h.161l.154.03.13.078.122.096.085.144.076.153.044.172.013.196-.024.208-.042.207-.067.193-.097.199-.122.185-.129.151-.152.14-.164.108-.164.079-.173.032-.163.01-.15-.032-.143-.053-.12-.101-.098-.128M535.298 892.947l-.161 3.76M540.303 892.25l-.15 3.36M538.272 890.216l.139-.025.142.012.131.053.11.079.095.12.066.129.054.163.023.186-.01.186-.034.194-.055.198-.076.192-.098.177-.118.161-.142.143-.142.11-.142.074-.154.043-.141.013-.14-.023-.123-.054-.104-.099-.088-.116M678.704 846.91l-.315 4.697M681.597 843.656l-.185-.043-.184-.021-.196.01-.195.045-.207.073-.208.1-.194.13-.199.151-.195.19-.174.204-.172.217-.164.25-.142.249-.132.274-.109.28-.087.284-.074.295-.043.283-.033.282M682.316 843.93l.161.095.151.122.132.15.121.173.096.21.087.218.057.25.034.249.021.282-.013.284-.326 4.69M681.323 845.528l.133-.024.119.01.108.035.099.075.088.099.052.12.044.141.021.163v.176l-.021.184-.044.186-.063.174-.09.176-.094.15-.11.132-.12.106-.133.089-.129.052-.12.021h-.12l-.12-.041-.085-.065-.087-.099-.068-.117-.041-.156-.022-.163v-.172l.022-.175.054-.185.063-.173.079-.178.098-.149.118-.133.121-.119.117-.073.131-.067M612.512 822.37l-.25 4.559M615.373 819.248l-.188-.056-.181-.023-.199.012-.205.035-.196.072-.208.088-.195.13-.196.142-.195.175-.174.194-.162.219-.164.24-.144.247-.12.266-.106.26-.088.283-.066.284-.052.27-.022.283M616.045 819.497l.175.087.153.117.141.157.119.171.1.199.085.216.055.238.044.262.021.26-.01.274-.26 4.556M615.373 819.248l.607.219M681.597 843.656l.643.243M392.19 808.24l-1.695-.696M390.788 806.228v-.012h.01M391.343 804.953v-.01M393.04 805.65v-.021l-1.696-.684M399.968 804.944l-.456-.121M399.968 804.944h.01M399.446 803.963l-.512.043M399.446 803.963h.032M398.934 804.007h-.03l-.035-.023-.011-.044-.023-.228M398.705 803.257l.024-.015h.033M397.869 802.843h.01M397.79 802.855l.033-.013h.034" style="fill:none;stroke:red;stroke-width:.999997;stroke-linecap:round;stroke-linejoin:round;stroke-miterlimit:4;stroke-dasharray:none;stroke-opacity:1;visibility:visible"/><path d="M393.018 805.726v-.044l.023-.035M393.67 812.471l-.023-.025-.009-.043" style="fill:none;stroke:red;stroke-width:.999997;stroke-linecap:round;stroke-linejoin:round;stroke-miterlimit:4;stroke-dasharray:none;stroke-opacity:1;visibility:visible"/><path d="M393.736 812.481h-.033l-.034-.012M394.562 812.883l-.01-.012-.023-.03M394.899 812.678l.24-.173M395.138 812.504l.032-.023.035.012.03.011.306.435M395.562 812.96l-.01-.01-.011-.013M396.062 812.46l.033-.032M396.096 812.427v-.012M396.193 812.405l.403.283M396.606 812.687h0-.01M393.007 810.937l-.153-.336-.12-.352-.087-.368-.064-.39-.033-.406v-.412l.033-.427.064-.421.097-.424.123-.425.15-.411.185-.403.206-.382.23-.371.25-.347.27-.325.294-.31.295-.257.325-.237.328-.207.327-.164.335-.134.338-.095.336-.055.338-.022.326.022.315.066.295.098M394.41 812.276l-.284-.143-.272-.173-.25-.208-.227-.25-.196-.271-.175-.294M391.298 810.315v.01M390.94 809.325l-.033.077M390.905 809.208l.024.03.01.046v.041M390.853 809.164l.052.043M390.82 808.186l-.085.139M390.82 808.065l.01.032v.043l-.01.046M390.734 807.946l.085.119M390.95 806.978l-.283.324M390.982 806.849v.04l-.01.044-.022.045M390.788 806.304l-.012-.033.012-.046M390.788 806.304l.195.543M390.797 806.217l.012-.047.032-.022M391.332 805.78l-.49.368M391.374 805.662v.041l-.023.044-.018.032M391.32 805.03v-.033l.023-.046M391.32 805.03l.053.632M391.343 804.944l.03-.035.025-.018M391.93 804.672l-.53.219M391.993 804.573l-.01.041-.02.035-.035.021M392.014 804.367l-.021.204M392.702 803.746l-.13.01M392.79 803.66l-.023.041-.033.035-.03.008M392.832 803.518l-.043.14M393.593 803.05l-.055-.021M393.691 802.997l-.023.033-.042.02h-.034M393.724 802.93l-.032.068M399.457 804.737l.51.205M398.934 804.007l-.055-.01M398.848 803.715l.597.25M398.184 803.463l-.076-.035M393.584 811.786l-.153-.055M394.343 812.297l-.096-.033M394.91 812.678l.63.259M395.236 812.504l-.065-.023M396.062 812.46l.533.228M398.01 803.442l.208.096.196.11.195.13.174.143.172.152.154.16.141.186.143.195.053.1M399.457 804.737l.055.085.096.21.11.236.075.252.032.11M399.892 805.876l.03.153.046.263.021.283.011.138M400 807.096v.067l-.023.293-.03.293-.024.152M399.826 808.37l-.076.27-.097.297-.076.184M399.38 809.599l-.096.173-.141.272-.154.24M398.718 810.664l-.099.12-.197.23-.193.206-.055.055M397.912 811.514l-.121.085-.228.172-.228.156-.118.062M397.02 812.099l-.161.076-.254.1-.249.085-.24.056-.25.044-.25.022h-.25l-.25-.022-.239-.044-.24-.065-.226-.076M388.087 972.517h0l.012-.013M388.621 971.286l.013-.01M397.01 970.905l-.47-.085M397.01 970.905h.01M396.54 970.82h0M396.499 970.754v-.012l.01-.096M396.499 970.027h.03M395.78 969.418l.032-.013.023.013M390.885 978.477l-.021-.021-.01-.032M390.897 978.477h0M391.048 978.435l.413-.207M391.462 978.228h.032l.035.01.008.022.185.499M391.756 978.793l-.023-.01-.01-.022M392.18 978.5l.13-.108M392.309 978.392l.023-.013.021-.012M392.374 978.369l.021.012.012.012.306.379M392.723 978.784l-.01-.015M393.366 978.228l.37.219M393.736 978.447h0M390.242 977.086l-.152-.305-.119-.328-.088-.347-.054-.357-.032-.38.009-.395.033-.403.066-.412.088-.414.118-.403.154-.401.184-.391.196-.383.23-.37.248-.348.274-.327.281-.303.295-.269.314-.253.316-.206.327-.186.335-.14.328-.11.325-.076.328-.032h.315l.316.043.282.079.283.117M391.264 978.097l-.239-.14-.229-.175-.204-.208-.188-.241-.163-.247M388.23 975.422l-.02.064M388.21 975.322l.02.023.01.032-.01.044M388.155 975.29l.055.03M388.121 974.355l-.076.14M388.121 974.247l.01.03v.037l-.01.041M388.033 974.137l.088.11M388.252 973.215l-.14.161M388.274 973.093l.012.03-.012.047-.023.046M388.087 972.594l-.01-.032.01-.047M388.087 972.594l.187.499M388.1 972.506l.012-.03.033-.037M388.613 972.06l-.468.38M388.665 971.94v.041l-.023.044-.03.032M388.613 971.364v-.041l.01-.038M388.613 971.364l.053.577M388.635 971.277l.021-.032.034-.021M389.198 970.973l-.51.25M389.264 970.874l-.012.043-.019.033-.036.021M389.34 970.243v-.01l.01-.023M389.34 970.243l-.076.632M389.947 970.037l-.172.033M390.025 969.95l-.024.04-.02.036-.035.01M390.09 969.765l-.065.185M390.82 969.317l-.107-.02M390.905 969.254l-.021.03-.031.023-.033.01M390.971 969.145l-.067.11M391.843 968.818l-.01.012-.014.01M391.863 968.796l-.021.021M396.54 970.82h0M396.508 970.658l.501.248M391.235 968.736l1.641.813M390.254 972.875l-1.641-.817M391.059 978.424l.663.337M391.535 978.262l-.063-.033M392.18 978.5l.533.27M392.408 978.392l-.043-.025M393.332 978.239l.404.207M388.164 973.073l.023-.088.022-.076M388.426 972.21l.021-.072.119-.285.077-.151M388.99 971.07h0l.164-.25.141-.187M395.443 969.787l.185.097.174.12.173.128.152.155.141.161.132.164.12.184.11.198.096.209.086.204.055.172M396.92 971.788l.024.084.044.252.03.261.011.184M397.042 972.93l-.012.27-.03.283-.034.196M396.868 974.16l-.043.175-.089.281-.085.228M396.431 975.356l-.044.085-.13.275-.151.25-.011.02M395.79 976.431l-.021.024-.184.228-.199.219-.075.084M394.986 977.292v.012l-.217.183-.23.165-.162.11M394.115 977.912l-.032.021-.24.119-.237.099-.24.076-.034.012M393.213 978.273l-.088.021-.237.042-.252.032h-.24l-.228-.012-.239-.03-.228-.053-.217-.08-.219-.095M575.092 760.234v-.012l.01-.01M575.386 758.995v-.012M575.884 757.83h.013v-.013M583.446 757.918l-.35-.108M583.446 757.918h0M583.032 756.992l-.435.032M583.032 756.992h.01l.011.012M582.597 757.026h0M582.553 756.982l-.01-.01v-.151M582.436 756.319l-.437.195M582.436 756.319h.041M581.998 756.514h-.03l-.025-.01-.021-.034-.099-.377M581.748 755.927h0M581.684 755.939l-.415.323M581.684 755.939l.03-.025h.025M581.27 756.263l-.03.023-.035-.01-.02-.021-.24-.405M580.9 755.83h.024l.02.023M580.837 755.862l-.37.457M580.837 755.862l.019-.025.033-.007M578.67 765.172l-.021-.01-.012-.034M579.509 765.26h-.024l-.01-.023M579.89 764.867l.065-.084M579.954 764.782h0l.01-.013M580.04 764.759l.339.273M580.39 765.041l-.01-.01M577.418 763.325l-.117-.307-.088-.336-.066-.346-.044-.363-.01-.38.02-.393.045-.39.065-.392.099-.393.11-.39.15-.382.161-.367.188-.362.208-.336.227-.316.24-.3.25-.266.27-.237.273-.217.282-.174.284-.157.294-.105.282-.078.284-.042h.284l.27.033.26.077M578.757 764.695l-.24-.11-.227-.131-.205-.175-.197-.195-.186-.228-.153-.249-.13-.281M575.689 762.8l-.01.067M575.679 762.747l.01.023v.03M575.407 761.877l-.044.141M575.395 761.77l.021.03v.035l-.008.044M575.298 761.693l.096.077M575.352 760.811l-.123.207M575.352 760.703l.01.03v.045l-.01.034M575.102 760.3l.03.043M575.243 760.529l.11.175" style="fill:none;stroke:red;stroke-width:.999997;stroke-linecap:round;stroke-linejoin:round;stroke-miterlimit:4;stroke-dasharray:none;stroke-opacity:1;visibility:visible"/><path d="m575.102 760.3-.01-.033v-.034M575.102 760.212l.01-.03.014-.034M575.493 759.691l-.367.457M575.527 759.583v.03l-.01.046-.023.032M575.386 759.071l-.013-.033.013-.046M575.386 759.071l.14.512M575.386 758.984l.021-.033.02-.022M575.852 758.594l-.424.336M575.897 758.483v.041l-.021.035-.023.035M575.876 757.907v-.043l.008-.036M575.876 757.907l.021.576M575.897 757.819l.021-.033.023-.01M576.39 757.58l-.448.195M576.451 757.483l-.01.043-.023.033-.03.02M576.483 757.243l-.03.24M577.061 756.733l-.143.01M577.136 756.656l-.013.043-.031.022-.032.012M577.19 756.493l-.055.163M577.842 756.112l-.065-.021M577.92 756.057l-.024.033-.03.022h-.025M577.962 755.992l-.041.065M583.097 757.798l.35.12M582.597 757.026h-.01M582.542 756.83l.49.161M581.998 756.514l-.065-.023M581.824 756.112l.612.207M581.27 756.263l-.096-.03M580.467 756.319l-.185-.064M576.537 756.875l1.719.593M575.046 761.355l1.732.597M578.495 764.63l-.088-.033M578.89 765.041l.585.197M579.235 764.834l-.065-.021M579.89 764.86l.49.173M575.319 759.91l.033-.132.055-.273.043-.175M575.647 758.756l.021-.068.107-.259.11-.22M576.189 757.668l.024-.041M581.64 756.406l.175.064.172.087.166.098.162.111.142.127.172.176.154.196.141.218.099.164M583.097 757.798l.044.11.087.217.064.226.034.132M583.404 758.82l.028.25.013.26.011.154M583.446 759.987l-.024.161-.03.271-.022.175M583.228 761.18l-.01.068-.086.27-.09.227M582.806 762.302l-.133.24-.14.236-.032.056M582.204 763.258l-.139.185-.186.196-.107.111M581.498 763.999l-.185.152-.195.144-.196.117M580.738 764.51l-.033.023-.219.082-.217.079-.219.065-.219.031-.216.024h-.216l-.218-.024-.216-.041-.208-.055" style="fill:none;stroke:red;stroke-width:.999997;stroke-linecap:round;stroke-linejoin:round;stroke-miterlimit:4;stroke-dasharray:none;stroke-opacity:1;visibility:visible"/><path d="m687.524 717.322 4.568-1.143M542.412 753.514l3.875 1.348" style="fill:none;stroke:red;stroke-width:1.99999;stroke-linecap:round;stroke-linejoin:round;stroke-miterlimit:4;stroke-dasharray:none;stroke-opacity:1;visibility:visible"/><path d="m541.238 753.806 1.175-.293" style="fill:none;stroke:red;stroke-width:.999997;stroke-linecap:round;stroke-linejoin:round;stroke-miterlimit:4;stroke-dasharray:none;stroke-opacity:1;visibility:visible"/><path d="m619.495 697.578 4.524-1.044M473.577 731.385l3.232-.75 1.817.631M301.545 762.682l13.467 5.44" style="fill:none;stroke:red;stroke-width:1.99999;stroke-linecap:round;stroke-linejoin:round;stroke-miterlimit:4;stroke-dasharray:none;stroke-opacity:1;visibility:visible"/><path d="m415.676 701.516 55.812 19.21M476.808 730.637l.25-7.984L536.8 743.21" style="fill:none;stroke:red;stroke-width:.999997;stroke-linecap:round;stroke-linejoin:round;stroke-miterlimit:4;stroke-dasharray:none;stroke-opacity:1;visibility:visible"/><path d="m365.963 788.694 13.5 5.447" style="fill:none;stroke:red;stroke-width:1.99999;stroke-linecap:round;stroke-linejoin:round;stroke-miterlimit:4;stroke-dasharray:none;stroke-opacity:1;visibility:visible"/><path d="m389.919 803.191 7.33-1.87M389.763 812.2l.155-9.01" style="fill:none;stroke:red;stroke-width:.999997;stroke-linecap:round;stroke-linejoin:round;stroke-miterlimit:4;stroke-dasharray:none;stroke-opacity:1;visibility:visible"/><path d="m457.49 723.901 13.997-3.175" style="fill:none;stroke:red;stroke-width:1.99999;stroke-linecap:round;stroke-linejoin:round;stroke-miterlimit:4;stroke-dasharray:none;stroke-opacity:1;visibility:visible"/><path d="m234.536 740.035 155.382 63.155M365.963 788.694l176.809-43.428 31.782 10.944 6.204-1.575" style="fill:none;stroke:red;stroke-width:.999997;stroke-linecap:round;stroke-linejoin:round;stroke-miterlimit:4;stroke-dasharray:none;stroke-opacity:1;visibility:visible"/><path d="m548.975 743.743 13.724 4.71" style="fill:none;stroke:red;stroke-width:1.99999;stroke-linecap:round;stroke-linejoin:round;stroke-miterlimit:4;stroke-dasharray:none;stroke-opacity:1;visibility:visible"/><path d="m548.975 743.743 150.994-37.073 31.818 9.541 5.32-1.361M571.949 668.284l56.367 16.905" style="fill:none;stroke:red;stroke-width:.999997;stroke-linecap:round;stroke-linejoin:round;stroke-miterlimit:4;stroke-dasharray:none;stroke-opacity:1;visibility:visible"/><path d="m614.024 688.418 14.292-3.228" style="fill:none;stroke:red;stroke-width:1.99999;stroke-linecap:round;stroke-linejoin:round;stroke-miterlimit:4;stroke-dasharray:none;stroke-opacity:1;visibility:visible"/><path d="m301.545 762.682 175.514-40.03" style="fill:none;stroke:red;stroke-width:.999997;stroke-linecap:round;stroke-linejoin:round;stroke-miterlimit:4;stroke-dasharray:none;stroke-opacity:1;visibility:visible"/><path d="m522.735 746.648 14.065-3.439M483.225 721.238l13.787 4.72" style="fill:none;stroke:red;stroke-width:1.99999;stroke-linecap:round;stroke-linejoin:round;stroke-miterlimit:4;stroke-dasharray:none;stroke-opacity:1;visibility:visible"/><path d="m483.225 721.238 150.705-34.372 60.053 18.01" style="fill:none;stroke:red;stroke-width:.999997;stroke-linecap:round;stroke-linejoin:round;stroke-miterlimit:4;stroke-dasharray:none;stroke-opacity:1;visibility:visible"/><path d="m679.683 708.358 14.303-3.481" style="fill:none;stroke:red;stroke-width:1.99999;stroke-linecap:round;stroke-linejoin:round;stroke-miterlimit:4;stroke-dasharray:none;stroke-opacity:1;visibility:visible"/><path d="m542.412 753.514.36-8.25M633.493 694.336l.437-7.472M574.145 764.577l.412-8.367M699.425 714.353l.544-7.684M731.198 724.001l.588-7.792M689.8 721.904l-.133.012-.119-.012-.12-.057-.097-.087-.086-.108M689.834 719.8l.128-.041.13-.014.12.024.109.054.098.073.076.112.066.141.044.151.021.175-.01.174-.025.194-.041.186-.065.175-.088.172-.11.153-.106.132-.12.111-.134.072-.126.059M543.912 758.656l-.15.01-.142-.01-.13-.043-.12-.088-.098-.109" style="fill:none;stroke:red;stroke-width:.999997;stroke-linecap:round;stroke-linejoin:round;stroke-miterlimit:4;stroke-dasharray:none;stroke-opacity:1;visibility:visible"/><path d="m543.99 756.384.15-.032.142.01.132.054.12.077.11.11.075.14.066.164.033.182v.198l-.01.194-.055.208-.068.196-.096.186-.107.174-.132.14-.141.12-.14.087-.158.065M736.323 715.439l.175-.03h.161l.164.03M735.518 715.646l.15-.043M736.268 715.45l.055-.013M579.725 755.308l.188-.033.161-.011.175.021.164.043M578.66 755.58l.248-.067M579.54 755.362l.185-.053M395.89 802.116l.25-.045h.247l.23.02.229.078M394.474 802.475l.37-.087M395.508 802.212l.381-.097" style="fill:none;stroke:red;stroke-width:.999997;stroke-linecap:round;stroke-linejoin:round;stroke-miterlimit:4;stroke-dasharray:none;stroke-opacity:1;visibility:visible"/><path d="m417.655 713.982.013-.053v-.043l-.034-.09-.044-.063-.055-.056-.085-.023-.044-.008h-.292M417.121 713.275l.24-.055M417.121 713.275v.183l-.008.188M417.361 713.221l.055-.015.044-.017.086-.056.064-.076.046-.085.03-.102v-.118l-.018-.262M417.96 712.426l.065.25" style="fill:none;stroke:red;stroke-width:.666665;stroke-linecap:round;stroke-linejoin:round;stroke-miterlimit:4;stroke-dasharray:none;stroke-opacity:1;visibility:visible"/><path d="m417.96 712.426-.14.023-.152.044M418.025 712.677l.01.053.014.055.041.095.052.066.058.043.065.024h.033l.032-.012.154-.019M418.47 713.35l-.14.084" style="fill:none;stroke:red;stroke-width:.666665;stroke-linecap:round;stroke-linejoin:round;stroke-miterlimit:4;stroke-dasharray:none;stroke-opacity:1;visibility:visible"/><path d="m418.47 713.35.013-.185v-.183M418.33 713.436l-.044.013-.035.032-.061.052-.065.079-.058.087-.042.098-.01.055-.013.053-.076.227M417.635 714.2l.021-.217M417.635 714.2l.15-.024.142-.043M415.807 713.55v-.07l.01-.165.02-.148.025-.153.044-.163.041-.152.055-.153.068-.14.076-.144.076-.14.085-.132.076-.096M417.121 713.384l.01.041M557.85 801.472l-.11.175-.13.14-.13.142-.14.108-.154.1-.15.075-.155.053M557.251 801.31v-.099l-.008-.074-.044-.055-.047-.035-.076-.032h-.085l-.21.012M556.796 800.687l.219-.053M556.796 800.687v.165l-.013.174M557.014 800.634l.041-.01.044-.02.076-.055.055-.068.044-.086.021-.085.011-.056-.01-.056-.011-.247M557.546 799.884l.041.23M557.546 799.884l-.13.032-.13.036M557.587 800.113l.01.053.014.056.03.076.045.054.044.044.052.021.034-.01h.034l.117-.045M557.96 800.7l-.133.087M557.96 800.7l.008-.164v-.172M557.826 800.787l-.03.025-.022.016-.065.058-.055.074-.044.076-.041.087-.014.055-.01.046-.076.203M557.21 801.506l.041-.196" style="fill:none;stroke:red;stroke-width:.666665;stroke-linecap:round;stroke-linejoin:round;stroke-miterlimit:4;stroke-dasharray:none;stroke-opacity:1;visibility:visible"/><path d="m557.21 801.506.14-.033.12-.047M557.046 800.625l.065.032M555.608 800.886v-.033l.013-.146.02-.137.032-.156.034-.139.041-.14.057-.13.066-.144.065-.128.065-.123.086-.119.076-.109M556.796 800.863l.01.013M563.503 682.238l-.096.22-.13.196-.131.172-.151.155-.156.141-.161.105-.175.078-.172.056M562.712 682.317v-.099l-.013-.078-.039-.064-.057-.042-.066-.034-.044-.01-.041.01h-.219M562.246 681.642l.216-.043M562.246 681.642v.173l-.013.184M562.462 681.6l.055-.012.044-.019.076-.056.052-.068.046-.086.019-.088.013-.063-.013-.053-.008-.242M563.007 680.848l.052.24M563.007 680.848l-.13.03-.13.035M563.058 681.087l.013.053.011.055.033.087.042.065.044.044.054.023h.035l.03-.014.12-.021M563.429 681.74l-.13.076M563.429 681.74l.013-.185v-.176M563.298 681.815l-.03.013-.033.018-.054.056-.058.078-.041.075-.044.084-.021.056-.011.055-.075.218M562.67 682.525l.041-.208M562.67 682.525l.14-.025.12-.03M561.027 681.99v-.085l.01-.155.011-.14.034-.15.03-.16.032-.135.055-.144.055-.142.068-.13.062-.128.075-.131.055-.067" style="fill:none;stroke:red;stroke-width:.666665;stroke-linecap:round;stroke-linejoin:round;stroke-miterlimit:4;stroke-dasharray:none;stroke-opacity:1;visibility:visible"/><path d="m577.517 677.649-.195-.02-.185-.023-.164-.033-.161-.033-.142-.043" style="fill:none;stroke:red;stroke-width:.999997;stroke-linecap:round;stroke-linejoin:round;stroke-miterlimit:4;stroke-dasharray:none;stroke-opacity:1;visibility:visible"/><path d="m578.509 677.64-.188.021-.195.008h-.196l-.205-.008-.208-.012" style="fill:none;stroke:red;stroke-width:.999997;stroke-linecap:round;stroke-linejoin:round;stroke-miterlimit:4;stroke-dasharray:none;stroke-opacity:1;visibility:visible"/><path d="m573.069 802.593-.055-.068-.088-.065-.117-.062M572.056 802.517l.033-.013.032-.011h.044l.034-.007h.042l.044.007M571.99 802.617v-.057l.013-.012.02-.011.022-.02M572.014 802.734l-.024-.117M571.645 802.734h.37M571.579 802.626l.065.11M571.425 802.527l.041.012.035.019.02.012.024.013.02.021.013.02M571.141 802.517l.044-.013h.13l.045.013.054.01M570.88 802.517h.263M570.826 802.407l.052.11M572.446 802.386l-.24-.035M572.524 802.517l-.01-.03-.014-.025-.01-.012-.01-.02-.01-.022-.025-.022M572.285 802.495l.24.023M572.056 802.517v.01M571.99 802.734v-.117M571.404 802.539l.01-.013M572.175 802.495l.03-.141M572.404 802.495l.041-.108M571.067 802.289h0M571.98 802.734l.01-.14" style="fill:none;stroke:red;stroke-width:.666665;stroke-linecap:round;stroke-linejoin:round;stroke-miterlimit:4;stroke-dasharray:none;stroke-opacity:1;visibility:visible"/><path d="m563.257 802.407 2.307.85M533.48 812.092l32.083-8.835M554.793 805.487l3.797-1.044M554.218 805.27l.576.219" style="fill:none;stroke:red;stroke-width:.999997;stroke-linecap:round;stroke-linejoin:round;stroke-miterlimit:4;stroke-dasharray:none;stroke-opacity:1;visibility:visible"/><path d="m571.61 675.55-5.396 1.163M564.464 677.083l-4.472.97" style="fill:none;stroke:red;stroke-width:1.99999;stroke-linecap:round;stroke-linejoin:round;stroke-miterlimit:4;stroke-dasharray:none;stroke-opacity:1;visibility:visible"/><path d="m415.525 709.27-.916.195M234.536 740.035l-5.057-2.057M234.536 740.035l.721 62.344M577.274 667.151l-342.738 72.884M571.61 675.55l-1.076 22.735M570.022 709.043l-1.25 26.37M568.214 747.073l-.15 3.22M567.498 762.258l-1.935 41M554.324 803.04l-.107 2.23M558.71 801.832l-.12 2.61M575.733 912.274v.012h.01M575.907 913.31v.01M575.852 914.46h0v.013M575.571 915.637v.01M575.079 916.769v.021M574.429 917.79h-.013v.012M573.634 918.606v.01h-.01M572.774 919.184l-.01.008M571.895 919.478h0-.013M571.067 919.465h-.01M568.662 918.432h0l-.01-.01M568.076 917.822h0M567.684 916.975v-.013M567.509 915.951v-.024M567.563 914.799v-.012h.01M569.001 911.46h0l.01-.012M569.796 910.634h.01M570.652 910.067l.01-.01M571.535 909.773h.01M572.373 909.796h0M574.764 910.828h.01M575.352 911.425v.012M575.59 912.81l.143-.447M575.743 912.287v.03l-.01.046M575.712 912.242l.01.025.011.007M575.287 912.046l.076-.543M575.352 911.437l.01.032v.035M575.329 911.415l.01.01h.014M574.819 911.197l-.021-.316M574.774 910.828l.01.023.014.032M574.764 910.818h0v.01M571.056 919.465h-.01v-.012M571.108 919.445l.23-.187M571.108 919.445l-.019.021h-.022M571.881 919.478h-.019M571.949 919.445l.336-.436M571.949 919.445l-.024.021-.03.011M572.764 919.192h-.044M572.817 919.137l.232-.423M572.817 919.137l-.019.032-.022.013M573.285 918.573l.295.065M573.623 918.617l-.021.023h-.023M573.679 918.553l.12-.37M573.679 918.553l-.024.03-.02.023M574.123 917.867l.24-.033M574.415 917.803l-.019.02-.033.008M574.449 917.726l.044-.305M574.449 917.726l-.01.03-.011.034M574.829 916.93l.195-.099M575.079 916.79l-.021.023-.034.018M575.102 916.702l-.01-.24M575.102 916.702l-.01.032-.014.035M575.34 915.864l.188-.152M575.571 915.646l-.024.03-.02.037M575.571 915.57l-.068-.217M575.571 915.57l.01.032-.01.035M575.634 914.766l.185-.23M575.852 914.473l-.01.03-.023.034M575.842 914.398l-.13-.21M575.842 914.398l.01.019v.042M575.712 913.722l.185-.325M575.907 913.321v.041l-.01.035M575.884 913.265l-.237-.175M575.884 913.265l.013.021.011.023M569.38 918.748l-.01-.012-.011-.012M568.673 918.432h-.01M568.652 918.421l-.01-.01-.011-.034M568.618 918.062l.013.315M568.097 917.846l-.01-.015-.011-.009M568.076 917.822l-.013-.03v-.034M568.14 917.213l-.076.544M567.718 917.008l-.024-.012-.01-.023M567.684 916.963v-.065M567.835 916.452l-.15.444M567.532 915.995l-.013-.025-.011-.019M567.532 915.995l.237.175M567.509 915.929l.01-.03.014-.034M567.704 915.527l-.172.337M567.574 914.864l-.01-.035v-.03M567.574 914.864l.143.208M567.574 914.787v-.03l.021-.035M567.782 914.494l-.188.228M568.968 911.525l.01-.032.023-.036M568.968 911.525l-.044.304M569.012 911.449l.021-.025.02-.008M569.306 911.384l-.252.03M569.748 910.699l.024-.033.023-.032M569.748 910.699l-.117.368M569.806 910.634l.021-.023h.02M570.141 910.677l-.295-.067M570.61 910.11l.019-.032.022-.01M570.61 910.11l-.23.423M570.662 910.057h.044M571.478 909.805l.033-.024.024-.008M571.478 909.805l-.336.436M571.546 909.773h.021M572.319 909.805l.019-.01h.036M572.319 909.805l-.23.196M572.373 909.796h.008M568.14 917.213l-.01-.023M567.835 916.452v-.01l-.052-.23-.013-.044M567.704 915.527v-.27l.013-.186M568.88 911.894l.044-.067M569.306 911.384l.019-.033.184-.174.122-.109M570.141 910.677l.15-.087.09-.056M575.277 912.046l.021.032M575.59 912.81l.044.203.013.078M575.712 913.722v.259l-.01.209M575.634 914.766h0l-.044.261-.063.271-.024.055M575.34 915.864l-.085.219-.108.252-.067.128M574.829 916.93l-.076.12-.137.216-.123.152M574.123 917.867l-.013.01-.182.185-.13.121M573.285 918.573l-.13.076-.107.063M572.296 919.008h-.01M574.764 910.818l-.685-.284M572.09 910.003l-.524-.232M571.141 910.242l-.435-.185M568.13 917.192l-.412-.184M568.618 918.062l-.521-.216M571.046 919.454l-1.667-.707M569.358 918.726l-.685-.295M572.72 919.192l-.424-.184M739.761 717.898h0v.01M739.87 718.93v.013M739.781 720.062v.01M739.5 721.204v.01M739.042 722.283h0v.01M738.443 723.217l-.01.01M737.727 723.957h0l-.01.01M736.967 724.447h-.013M736.193 724.642h0-.013M733.756 724.022h-.01M733.125 723.63h0-.01M732.636 722.977v-.01M732.331 722.096l-.01-.01M732.214 721.052v-.01M733.646 716.766v-.01h.01M734.354 716.027h.013v-.012M735.125 715.538h.013M735.899 715.343h.01M738.969 716.353v.01h.008M739.445 717.018h.01v.01M739.64 718.311l.12-.337M739.761 717.909v.064M739.727 717.855l-.248-.09M739.727 717.855l.024.01.01.033M739.39 717.54l.065-.457M739.456 717.027v.056" style="fill:none;stroke:red;stroke-width:.999997;stroke-linecap:round;stroke-linejoin:round;stroke-miterlimit:4;stroke-dasharray:none;stroke-opacity:1;visibility:visible"/><path d="m739.425 716.995.01.012.011.012M738.998 716.863l-.01-.444M738.977 716.363l.01.023v.033M738.956 716.353h.013M735.518 724.535l.076-.07M735.518 724.535l-.024.01h-.02M736.18 724.642h0-.01M736.237 724.608l.24-.292M736.237 724.608l-.024.025-.02.008M736.953 724.447h-.03M737.008 724.405l.219-.439M737.008 724.405l-.021.019-.02.021M737.717 723.966l-.021.015h-.012M737.768 723.901l.123-.37M737.768 723.901l-.019.032-.022.024M738.173 723.273l.216-.015M738.432 723.227l-.021.024-.023.008M738.467 723.151l.044-.273M738.467 723.151l-.01.032-.014.035M738.836 722.401l.161-.067M739.042 722.293l-.021.024-.023.017M739.065 722.216l-.01-.207M739.065 722.216l-.01.032-.014.035M739.34 721.376l.128-.107M739.5 721.215l-.013.032-.02.024M739.511 721.14l-.03-.165M739.511 721.14v.032l-.01.033M739.64 720.293l.12-.153M739.781 720.073l-.01.032-.011.035M739.781 719.999l-.076-.143M739.781 719.999l.01.028-.01.036M739.737 719.249l.12-.232M739.87 718.943v.043l-.013.033M739.857 718.887l-.15-.139M739.857 718.887l.013.024v.017M733.756 724.022h0M733.745 724.022l-.024-.023-.007-.018M733.68 723.805l.033.176M733.136 723.64h0l-.01-.012M733.115 723.63l-.013-.023v-.03M733.091 723.131l.01.445M732.659 722.999l-.016-.01-.008-.013M732.636 722.966l-.01-.033v-.03M732.703 722.445l-.079.457M732.352 722.14l-.01-.024-.011-.02M732.352 722.14l.25.085M732.32 722.087v-.033l.01-.034M732.44 721.672l-.11.35M732.222 721.105l-.008-.02v-.033M732.222 721.105l.153.141M732.214 721.042v-.033l.008-.035M732.352 720.747l-.13.227M733.05 717.681l.021-.024.01-.01M733.256 717.572l-.175.076M733.615 716.82l.01-.03.02-.025M733.615 716.82l-.044.295M733.656 716.755l.024-.021.02-.012M733.92 716.71l-.219.01M734.32 716.082l.013-.033.02-.022M734.32 716.082l-.117.367M734.367 716.017l.021-.013h.02M735.084 715.58l.021-.021.02-.022M735.084 715.58l-.23.436M735.139 715.538h.021M735.854 715.376l.024-.027.02-.006M735.854 715.376l-.24.293M735.909 715.343h.01M736.573 715.462l.024-.013h.02M736.573 715.462l-.076.055M732.703 722.445l-.044-.11-.057-.109M732.44 721.672l-.024-.141-.03-.238-.011-.044M732.352 720.747v-.195l.013-.252M733.256 717.572l.11-.176.14-.204.065-.077M733.92 716.71l.055-.055.174-.162.055-.044M734.703 716.093l.15-.077M739.38 717.54l.055.097.044.13M739.64 718.311l.024.13.041.24v.066M739.737 719.249l-.01.16-.011.259-.01.189M739.64 720.293l-.03.139-.058.262-.073.25v.03M739.34 721.376l-.024.067-.099.241-.109.23-.052.097M738.836 722.401l-.11.175-.14.194-.075.102M738.173 723.273l-.041.04-.178.161-.062.056M737.389 723.881l-.15.083h-.011M739.425 716.995l-.427-.133M736.498 715.517l-.579-.173M738.334 715.963l-1.716-.515M735.615 715.67l-.456-.133M734.703 716.093l-.295-.087M733.091 723.131l-.432-.135M733.68 723.805l-.544-.164M736.17 724.642l-.576-.175M735.474 724.544l-1.719-.523M631.058 824.023l-5.221 1.543-5.451-2.023" style="fill:none;stroke:red;stroke-width:.999997;stroke-linecap:round;stroke-linejoin:round;stroke-miterlimit:4;stroke-dasharray:none;stroke-opacity:1;visibility:visible"/><path d="m631.058 824.023 5.581-94.008M637.303 718.703l1.36-22.801M620.386 823.543l5.21-90.776M626.251 721.402l1.47-25.728" style="fill:none;stroke:red;stroke-width:1.99999;stroke-linecap:round;stroke-linejoin:round;stroke-miterlimit:4;stroke-dasharray:none;stroke-opacity:1;visibility:visible"/><path d="M728.623 862.096h0v.012M728.732 863.062h0v.01M728.654 864.13v.019M728.38 865.24h-.01v.01M727.928 866.282v.01M727.34 867.218v.012h-.01M726.64 867.968v.013h-.01M725.89 868.492h0l-.01.01M725.14 868.742h-.01M724.423 868.708h0M722.149 867.763h-.01M721.673 867.186h0l-.013-.01M721.354 866.381v-.013M721.245 865.415v-.015M721.323 864.337v-.015M722.64 861.248l.008-.013M723.334 860.485h.013M724.084 859.973h.016M724.85 859.723h.008M725.556 859.765h.01M727.84 860.704h0M728.318 861.291h0M728.503 862.507l.12-.347M728.623 862.108v.053M728.59 862.062l.021.012.012.02M728.253 861.815l.076-.461M728.318 861.291l.01.03v.034M728.295 861.267l.01.01.014.015M727.873 861.117l-.013-.361M727.84 860.704l.021.019v.033M727.826 860.69v.013h.013M724.423 868.708h0-.01M724.477 868.699l.143-.14M724.477 868.699l-.033.01h-.022M725.13 868.742h-.024M725.185 868.708l.27-.356M725.185 868.708l-.024.021-.02.012M725.88 868.502h-.033M725.935 868.447l.195-.381M725.935 868.447l-.021.023-.023.02M726.36 867.938l.23.053M726.63 867.981l-.021.01h-.02M726.675 867.915l.107-.305M726.675 867.915l-.01.032-.023.021M727.11 867.282l.175-.02M727.328 867.23l-.024.02-.02.013M727.36 867.165l.044-.23M727.36 867.165l-.013.033-.008.02M727.75 866.405l.133-.07M727.928 866.293l-.024.032-.02.01M727.948 866.218v-.152M727.948 866.218l-.013.03-.008.034M728.23 865.391l.11-.085M728.37 865.25l-.008.03-.023.026M728.38 865.175l-.028-.132M728.38 865.175v.064M728.513 864.358l.11-.152M728.654 864.15l-.013.03-.018.026M728.64 864.076l-.076-.133M728.64 864.076l.013.032v.023M728.6 863.37l.12-.232M728.732 863.073v.032l-.013.035M728.719 863.02l-.153-.13M728.719 863.02l.013.01v.031M722.75 868.078l-.013-.013-.014-.019M722.703 867.981l.021.064M722.162 867.773h-.013v-.012M722.139 867.763l-.01-.024-.014-.019M722.115 867.36v.36M721.693 867.208l-.013-.01-.008-.013M721.659 867.175v-.055M721.737 866.664l-.079.457M721.389 866.415l-.024-.01-.01-.025M721.354 866.37v-.033l.01-.031M721.487 865.957l-.123.35M721.258 865.458l-.013-.025v-.018M721.258 865.458l.164.13M721.245 865.4v-.032l.013-.03M721.375 865.099l-.117.24M721.331 864.393l-.008-.024v-.032M721.331 864.393l.079.14M721.323 864.323l.008-.019v-.024M722.617 861.302l.01-.035.014-.018M722.617 861.302l-.044.228M722.649 861.237l.021-.023.026-.01M722.867 861.182l-.172.021M723.3 860.552l.016-.032.017-.036M723.3 860.552l-.107.304M723.347 860.485l.021-.01.02-.013M723.617 860.528l-.23-.065M724.056 860.017l.01-.023.018-.02M724.056 860.017l-.208.379M724.1 859.973l.019-.012h.009M724.802 859.756l.021-.023.026-.009M724.802 859.756l-.27.36M724.857 859.723h.013M725.511 859.778l.021-.013h.023M725.511 859.778l-.14.13M725.565 859.765h0M721.737 866.664l-.065-.143M721.487 865.957l-.013-.024-.031-.193-.021-.152M721.375 865.099v-.033l.013-.239.011-.252.01-.041M722.347 861.855l.063-.084.142-.21.022-.033M722.867 861.182l.143-.15.162-.154.02-.023M723.617 860.528l.076-.043.153-.09M728.253 861.815l.065.14M728.503 862.507v.012l.03.195.033.176M728.6 863.37v.02l-.01.239-.011.25-.012.067M728.513 864.358v.013l-.055.236-.054.252-.052.174M728.23 865.391l-.065.195-.11.226-.106.23v.024M727.75 866.405l-.041.073-.131.21-.143.192-.032.054M727.11 867.282l-.117.133-.167.163-.044.033M726.36 867.938l-.055.028-.174.1M728.59 862.062l-.27-.105M728.295 861.267l-.421-.15M727.23 860.388l-1.664-.623M727.826 860.69l-.552-.195M725.37 859.908l-.5-.185M724.531 860.115l-.404-.152M721.673 866.52l-.284-.105M722.115 867.36l-.421-.152M724.412 868.708l-1.661-.63M722.703 867.981l-.541-.208M725.847 868.502l-.39-.15" style="fill:none;stroke:red;stroke-width:.999997;stroke-linecap:round;stroke-linejoin:round;stroke-miterlimit:4;stroke-dasharray:none;stroke-opacity:1;visibility:visible"/><path d="m300.152 778.695-.077.172-.086.164-.109.164-.107.14-.133.143-.128.132-.132.117-.15.099-.155.097-.164.077-.163.064-.163.046-.174.032-.162.01h-.166l-.16-.01-.207-.043-.185-.056-.195-.088-.163-.096-.153-.123-.141-.138-.132-.154-.108-.164-.087-.172-.088-.196-.053-.206-.044-.219v-.01" style="fill:none;stroke:red;stroke-width:.666665;stroke-linecap:round;stroke-linejoin:round;stroke-miterlimit:4;stroke-dasharray:none;stroke-opacity:1;visibility:visible"/><path d="m297.325 776.182.096-.079.164-.098.152-.086.164-.064.164-.052.172-.037.164-.017.163-.015.164.015.162.017.196.056.186.077.185.088.152.116.152.12.13.144.122.164.107.172.074.184.076.21.046.205.03.217.012.242-.021.236-.03.229-.047.165-.042.152-.066.152M700.568 719.094v.23l.01.218M701.209 717.54l-.13.164-.11.163-.107.185-.088.193-.076.21-.065.217-.044.205-.02.218M701.253 717.496l.065-.068.132-.107.131-.098.13-.076.138-.066.144-.045.14-.041.15-.023h.178l.161.023.175.03.141.056.132.078.131.086.12.099.096.108.099.12.086.141.066.151.064.153.045.196.033.184.008.198-.008.162-.013.163-.02.172-.035.163-.052.154-.054.164-.066.154-.068.14-.085.142-.085.128-.1.134-.107.109-.112.104-.127.1-.13.099-.134.064-.14.064-.141.046-.14.031-.153.013h-.164l-.172-.022-.164-.046-.144-.05-.13-.082-.117-.084-.123-.108-.096-.109-.089-.119-.085-.153-.066-.155-.054-.16-.031-.13-.024-.102M362.7 948.739l-.087.173-.108.154-.11.158-.131.144-.128.13-.13.122-.155.118-.151.098-.164.079-.164.072-.161.056-.175.033-.164.023-.173.01-.163-.01-.161-.023-.186-.053-.186-.077-.174-.099-.153-.11-.141-.117-.132-.141-.108-.165-.098-.163-.076-.187-.054-.196-.044-.216-.02-.206v-.042" style="fill:none;stroke:red;stroke-width:.666665;stroke-linecap:round;stroke-linejoin:round;stroke-miterlimit:4;stroke-dasharray:none;stroke-opacity:1;visibility:visible"/><path d="m360.135 946.049.085-.064.164-.087.163-.076.164-.065.173-.044.172-.033.164-.01.164.01.166.01.15.036.195.063.175.088.164.093.15.123.131.132.12.152.099.163.088.177.073.181.045.208.032.216.023.218-.01.23-.034.239-.056.24-.055.161-.064.167-.076.163" style="fill:none;stroke:red;stroke-width:.666665;stroke-linecap:round;stroke-linejoin:round;stroke-miterlimit:4;stroke-dasharray:none;stroke-opacity:1;visibility:visible"/><path d="M301.535 786.785v-10.896M288.93 789.48l-.036-18.805" style="fill:none;stroke:red;stroke-width:1.99999;stroke-linecap:round;stroke-linejoin:round;stroke-miterlimit:4;stroke-dasharray:none;stroke-opacity:1;visibility:visible"/><path d="m627.6 820.377-.013.119v.109M628.228 818.888l-.128.141-.12.176-.099.171-.098.2-.074.195-.057.204-.041.208-.011.194M628.326 818.78h.013l.12-.097.116-.09.131-.074.133-.066.14-.041.144-.036.138-.019h.164l.164.007.164.048.141.055.13.062.12.088.109.095.097.099.088.121.085.13.066.154.054.141.047.174.019.185.013.184-.013.152-.011.15-.023.157-.042.15-.044.154-.055.142-.063.151-.077.13-.076.13-.085.13-.1.12-.096.109-.112.1-.12.084-.13.089-.13.064-.131.055-.13.045-.14.03-.143.013h-.162l-.166-.031-.162-.048-.13-.053-.131-.075-.117-.076-.11-.107-.098-.109-.075-.123-.09-.128-.051-.156-.058-.15-.03-.134-.022-.126M634.714 698.96l-.013.141.013.131M635.225 697.578l-.12.175-.11.17-.085.198-.078.206-.055.208-.041.208-.022.216M635.376 697.414l.068-.064.117-.099.12-.097.13-.076.144-.053.129-.054.152-.034.121-.022.142-.014.129.014.13.022.142.034.153.062.128.065.122.087.117.097.101.121.098.12.072.14.068.155.065.163.044.184.021.184.011.15v.156l-.01.164-.033.152-.033.154-.044.161-.055.152-.052.141-.078.14-.074.143-.088.13-.098.118-.11.11-.106.11-.12.099-.134.074-.128.079-.132.053-.141.042-.14.034-.175.008-.174-.008-.175-.022-.14-.042-.141-.065-.132-.079-.12-.088-.11-.106-.096-.119-.097-.133-.077-.14-.066-.152-.052-.164-.033-.154M364.43 805.28l-.075.184-.098.165-.098.174-.12.15-.13.139-.13.135-.141.13-.153.108-.164.099-.162.076-.164.063-.186.054-.163.034-.173.01-.163.011-.173-.021-.208-.034-.194-.064-.185-.089-.177-.105-.151-.123-.144-.14-.127-.15-.109-.175-.099-.176-.076-.206-.053-.206-.045-.219v-.032M361.57 802.694l.085-.079.164-.1.154-.085.173-.079.173-.05.175-.035.164-.024.172-.01.164.01.164.024.207.055.184.066.185.099.163.108.152.128.133.153.117.166.11.176.076.178.074.21.044.216.035.229.01.241-.022.25-.032.236-.044.176-.055.162-.065.164" style="fill:none;stroke:red;stroke-width:.666665;stroke-linecap:round;stroke-linejoin:round;stroke-miterlimit:4;stroke-dasharray:none;stroke-opacity:1;visibility:visible"/><path d="m364.038 952.13 1.761-149.801M351.257 951.534l1.459-154.586" style="fill:none;stroke:red;stroke-width:1.99999;stroke-linecap:round;stroke-linejoin:round;stroke-miterlimit:4;stroke-dasharray:none;stroke-opacity:1;visibility:visible"/><path d="m695.185 847.639-5.224 1.65-5.807-2.151" style="fill:none;stroke:red;stroke-width:.999997;stroke-linecap:round;stroke-linejoin:round;stroke-miterlimit:4;stroke-dasharray:none;stroke-opacity:1;visibility:visible"/><path d="m695.185 847.639 9.361-131.733M684.154 847.138l9.06-131.232" style="fill:none;stroke:red;stroke-width:1.99999;stroke-linecap:round;stroke-linejoin:round;stroke-miterlimit:4;stroke-dasharray:none;stroke-opacity:1;visibility:visible"/><path d="m722.389 867.882-.164.04-.161.016-.154-.016-.141-.04M722.409 867.87l-.021.012M725.87 859.723l.153.065.128.11.12.129M721.104 867.631l.664.25M568.936 918.54l-.195.043-.198.012-.186-.031-.17-.055M567.52 918.226l.667.281M389.504 977.77l-.24.032-.23-.008-.218-.047-.204-.085M394.158 968.254l.185.107.164.141.152.172.122.21M387.957 977.334l.655.328M393.507 967.916l.65.339" style="fill:none;stroke:red;stroke-width:.999997;stroke-linecap:round;stroke-linejoin:round;stroke-miterlimit:4;stroke-dasharray:none;stroke-opacity:1;visibility:visible"/><path d="m570.772 801.82.904.337" style="fill:none;stroke:red;stroke-width:.666665;stroke-linecap:round;stroke-linejoin:round;stroke-miterlimit:4;stroke-dasharray:none;stroke-opacity:1;visibility:visible"/><path d="m573.264 802.747 47.32 17.424M631.058 824.023l53.336 19.643M695.185 847.639l30.857 11.367" style="fill:none;stroke:red;stroke-width:1.99999;stroke-linecap:round;stroke-linejoin:round;stroke-miterlimit:4;stroke-dasharray:none;stroke-opacity:1;visibility:visible"/><path d="m565.563 803.257 5.208-1.437" style="fill:none;stroke:red;stroke-width:.999997;stroke-linecap:round;stroke-linejoin:round;stroke-miterlimit:4;stroke-dasharray:none;stroke-opacity:1;visibility:visible"/><path d="m609.498 826.731-75.278 22.024M374.209 957.2l20.157 10.028M552.63 900.265l20.472 8.648M519.778 898.69l-144.057 45.164M370.01 945.65l-5.916 1.861M341.03 940.69l10.281 5.113M673.274 850.553l-132.972 41.695M520.863 886.845l14.435 6.101" style="fill:none;stroke:red;stroke-width:1.99999;stroke-linecap:round;stroke-linejoin:round;stroke-miterlimit:4;stroke-dasharray:none;stroke-opacity:1;visibility:visible"/><path d="m565.223 810.185.341-6.927" style="fill:none;stroke:red;stroke-width:.999997;stroke-linecap:round;stroke-linejoin:round;stroke-miterlimit:4;stroke-dasharray:none;stroke-opacity:1;visibility:visible"/><path d="m565.223 810.185 44.276 16.548M625.423 832.682l47.852 17.87M689.45 856.6l30.817 11.51M721.389 867.74l-1.12.368M726.042 859.007l-.052.772M689.45 856.6l-136.822 43.665M567.902 918.389l-1.243.403M535.9 905.595l-161.692 51.607M535.9 905.595l30.76 13.195M388.457 977.586l-1.347.445M323.757 946.007l63.355 32.025M625.423 832.682l-90.768 27.013M502.155 891.13l17.623 7.559M573.1 908.913l-.044.924M394.366 967.23l-.024 1.13M370.043 943.408l-.033 2.241M374.655 939.982l.216.128.199.152.172.197.153.228.13.239.097.275.065.292.044.316.01.313-.02 1.73M373.229 941.765l.088-.023.088-.009M372.382 943.799l-.076-.15-.055-.185-.01-.197.01-.208.044-.219.064-.202.099-.208.13-.186.14-.164.154-.142.173-.107.174-.065M374.013 939.667l-.23-.088-.249-.053-.262-.023-.259.01-.272.055-.272.083-.27.123-.274.152-.263.184-.249.218-.24.242-.216.27-.197.283-.186.301-.152.319-.128.327-.11.336-.076.338-.055.327-.01.337" style="fill:none;stroke:red;stroke-width:1.99999;stroke-linecap:round;stroke-linejoin:round;stroke-miterlimit:4;stroke-dasharray:none;stroke-opacity:1;visibility:visible"/><path d="m535.353 891.723-.055 1.224M539.358 888.518l.185.096.172.123.164.161.143.185.11.207.095.239.076.249.044.275.022.28v.294l-.066 1.623M538.238 890.225h.01l.023-.01M537.465 892.13l-.065-.135-.034-.152-.021-.174.01-.183.025-.185.052-.186.074-.173.09-.173.109-.154.117-.129.132-.12.142-.088.142-.056M538.718 888.245l.64.272M538.718 888.245l-.219-.077-.218-.031h-.227l-.24.041-.239.067-.24.11-.229.13-.237.164-.219.193-.219.219-.194.248-.186.264-.164.283-.15.305-.12.304-.107.315-.079.317-.057.313-.02.311" style="fill:none;stroke:red;stroke-width:.999997;stroke-linecap:round;stroke-linejoin:round;stroke-miterlimit:4;stroke-dasharray:none;stroke-opacity:1;visibility:visible"/><path d="m374.013 939.667.641.313" style="fill:none;stroke:red;stroke-width:1.99999;stroke-linecap:round;stroke-linejoin:round;stroke-miterlimit:4;stroke-dasharray:none;stroke-opacity:1;visibility:visible"/><path d="M400.012 804.985h0v.012M400.26 806.17v.013M400.238 807.479v.01M399.947 808.804v.023M399.392 810.078h0v.01M398.63 811.186v.012h-.01M397.703 812.078h-.01v.01M396.67 812.678l-.01.01M395.606 812.96h0-.01M394.584 812.883h0-.012M391.984 811.773h-.01M391.243 811.057v-.013h-.01M390.734 810.056h-.013v-.012M390.473 808.87v-.025M390.493 807.565v-.023M392.103 803.832h.01v-.012M393.04 802.953l.01-.01M394.072 802.342h.01M395.138 802.07h.012M396.159 802.147l.013.012M398.77 803.257h0v.012M399.499 803.985v.012h.013M399.837 805.63l.175-.557M400.012 804.997l.01.033-.01.042M399.979 804.944l.023.01.01.031M399.446 804.715l.075-.64M399.512 803.997l.008.032v.044" style="fill:none;stroke:red;stroke-width:.999997;stroke-linecap:round;stroke-linejoin:round;stroke-miterlimit:4;stroke-dasharray:none;stroke-opacity:1;visibility:visible"/><path d="m399.479 803.963.013.01.008.013M398.835 803.715l-.03-.395M398.77 803.27l.023.021.009.03M398.762 803.245v.013h.01M397.923 802.909l-.01-.021M397.88 802.843l.024.012.008.032M394.572 812.883h0-.01M394.649 812.872l.25-.195M394.649 812.872l-.032.01h-.033M395.596 812.96h-.033M395.67 812.927l.39-.47M395.67 812.927l-.03.024-.035.007M396.66 812.687h-.055M396.725 812.633l.295-.533M396.725 812.633l-.023.03-.032.014M397.216 812.004l.413.095M397.695 812.088l-.03.01h-.035M397.749 812.015l.163-.501M397.749 812.015l-.021.03-.024.033M398.174 811.274l.39-.044M398.619 811.199l-.024.021-.03.01M398.663 811.11l.055-.445M398.663 811.11l-.013.04-.02.036M398.988 810.285l.348-.143M399.392 810.088l-.023.032-.033.023M399.413 809.99l-.033-.39M399.413 809.99v.043l-.021.045M399.587 809.12l.305-.23M399.947 808.827l-.024.03-.03.035M399.947 808.728l-.121-.36M399.947 808.728l.01.043-.01.034M399.924 807.903l.284-.34M400.238 807.488l-.01.044-.02.033M400.23 807.4l-.23-.305M400.23 807.4l.01.032v.047M400 806.715l.25-.457M400.26 806.183v.043l-.01.033M400.238 806.12l-.347-.244M400.238 806.12l.013.02.01.03M392.876 812.19l-.024-.016-.01-.03M392.832 812.133l.01.01M391.993 811.786h-.01v-.015M391.973 811.773l-.024-.021-.01-.032M391.908 811.34l.03.381M391.264 811.067h-.01l-.011-.012M391.234 811.044l-.012-.03v-.043M391.298 810.327l-.077.643M390.766 810.099l-.023-.01-.009-.033M390.72 810.044v-.076M390.905 809.402l-.185.567M390.504 808.923l-.021-.021-.01-.032M390.504 808.923l.35.24M390.473 808.847v-.033l.01-.044M390.734 808.323l-.25.448M390.504 807.63l-.01-.032v-.033M390.504 807.63l.23.315M390.493 807.543l.01-.035.02-.042M390.667 807.303l-.141.164M392.07 803.909l.01-.03.023-.047M392.07 803.909l-.055.457M392.113 803.82l.033-.02.032-.008M392.572 803.756l-.393.033M392.996 803.017l.021-.043.022-.021M392.996 803.017l-.164.501M393.05 802.942l.032-.025h.033M393.538 803.03l-.423-.112M394.018 802.398l.033-.032.022-.024M394.018 802.398l-.293.53M394.082 802.342l.032-.01.023.01M395.085 802.116l.02-.032.033-.013M395.085 802.116l-.393.444M395.15 802.07h.021l.01.013M396.096 802.168l.03-.021h.034M396.096 802.168l-.24.184M396.173 802.159h.01M391.298 810.327v-.012M390.905 809.402l-.041-.163-.011-.077M391.973 804.43l.041-.063M392.572 803.756l.185-.172.075-.068M393.538 803.03l.143-.079.044-.022M399.446 804.715l.012.023M399.826 805.63l.043.14.024.107M400 806.715v.38M399.924 807.903l-.03.139-.067.305v.023M399.576 809.12l-.032.096-.12.284-.044.097M398.988 810.285l-.01.021-.175.236-.086.122M398.174 811.274l-.164.15-.097.089M397.216 811.99l-.12.068-.076.041M398.762 803.245l-.84-.335M395.856 802.353l-.675-.27M394.691 802.56l-.555-.217M391.298 810.315l-.532-.216M394.562 812.883l-1.685-.695M392.832 812.133l-.839-.347M397.052 970.94v.01M397.29 972.037v.012M397.27 973.269v.01M396.988 974.54v.01h-.013M396.455 975.77l-.01.012v.01M395.702 976.877v.01M394.801 977.793h0l-.012.01M393.798 978.447h0-.01M392.768 978.784h0-.01M391.778 978.793h0-.013M389.253 977.651h-.01v-.01M388.535 977.02h0l-.01-.01M388.033 976.13h0l-.01-.012M387.785 975.028v-.012M387.807 973.8v-.01M389.374 970.178v-.01h.01M390.275 969.263h.01v-.01M391.288 968.623v-.013h.01M392.32 968.286v-.012h.01M393.312 968.274h.01M395.835 969.418h.01M396.551 970.047h0l.01.01M396.868 971.58l.185-.552M397.052 970.95v.079M397.02 970.905l.023.013.009.019M396.508 970.646l.064-.533M396.562 970.058l.01.023v.032M396.53 970.027l.01.01.011.011M395.9 969.709l-.024-.236M395.846 969.418l.021.02.01.035M395.835 969.418h0M390.95 978.477l.099-.041M390.95 978.477l-.03.012-.023-.012M391.764 978.793h-.01M391.843 978.771l.336-.27M391.843 978.771l-.033.023h-.032M392.757 978.784h-.033M392.832 978.75l.38-.477M392.832 978.75l-.033.021-.032.011M393.788 978.447l-.019.01-.033-.01M393.854 978.392l.26-.48M393.854 978.392l-.023.03-.033.025M394.376 977.76l.36.064M394.79 977.804l-.021.01-.032.011M394.846 977.727l.14-.435M394.846 977.727l-.012.032-.032.035M395.312 976.986l.328-.055M395.702 976.889l-.03.033-.033.01M395.736 976.816l.055-.384M395.736 976.816l-.01.028-.023.033M396.096 975.986l.292-.14M396.445 975.792l-.024.03-.033.023M396.465 975.705l-.033-.35M396.465 975.705v.032l-.01.033M396.66 974.843l.273-.228M396.975 974.55l-.01.044-.031.021M396.988 974.464l-.121-.305M396.988 974.464v.076M396.966 973.681l.27-.328M397.27 973.278l-.01.043-.023.033M397.26 973.2l-.217-.27M397.26 973.2l.01.033v.035M397.03 972.57l.25-.445M397.29 972.05v.041l-.01.034M397.26 971.982l-.339-.204M397.26 971.982l.023.025.008.031M389.253 977.651h0M389.243 977.641l-.024-.015-.01-.03M389.186 977.36l.024.236M388.557 977.042l-.012-.013-.012-.01M388.525 977.01l-.012-.025v-.031M388.58 976.422l-.067.532M388.057 976.162l-.01-.013-.014-.019M388.023 976.118v-.032l.01-.045M388.21 975.486l-.177.555M387.817 975.085l-.021-.024-.01-.033M387.817 975.085l.339.204M387.785 975.017v-.043l.01-.034M388.046 974.497l-.25.445M387.817 973.866l-.01-.032v-.035M387.817 973.866l.216.27M387.807 973.79l.01-.044.023-.033M388.111 973.375l-.27.336M389.35 970.209l.01-.02.014-.01M389.385 970.167l.021-.033.032-.011M389.775 970.07l-.337.053M390.232 969.33l.023-.03.02-.037M390.232 969.33l-.141.435M390.285 969.254l.033-.012.032-.013M390.713 969.297l-.361-.067" style="fill:none;stroke:red;stroke-width:.999997;stroke-linecap:round;stroke-linejoin:round;stroke-miterlimit:4;stroke-dasharray:none;stroke-opacity:1;visibility:visible"/><path d="m391.234 968.675.021-.028.034-.025M391.234 968.675l-.261.47M391.298 968.611l.023-.012.03.012M392.256 968.32l.032-.025.033-.008M392.256 968.32l-.392.476M392.33 968.274h.01l.023.012M393.245 968.296l.032-.023h.035M393.245 968.296l-.327.26M393.322 968.274h.01M394.137 968.59l-.085.043M388.21 975.486l-.024-.087-.03-.109M388.111 973.375l.021-.108.032-.195M389.775 970.07l.143-.141.172-.164M390.713 969.297l.084-.055.175-.098M391.764 968.818l.099-.023M396.868 971.58l.021.057.032.15M397.03 972.57l.012.079v.282M396.966 973.681l-.012.084-.055.284-.032.108M396.65 974.843l-.01.057-.12.271-.089.185M396.096 975.986l-.15.23-.155.215M395.312 976.986l-.12.12-.205.185M394.376 977.76l-.067.041-.194.108M393.332 978.239l-.12.032M396.53 970.027l-.63-.317M395.738 969.38l-.63-.316M394.051 968.633l-.719-.36M392.919 968.558l-.553-.272M391.764 968.818l-.413-.207M388.58 976.422l-.524-.26M389.186 977.36l-.63-.317M391.756 978.793l-.707-.36M390.897 978.477l-1.643-.825M392.723 978.784l-.544-.284M393.736 978.447l-.404-.208M583.478 757.952v.02M583.65 759.06v.021M583.587 760.279h0v.012M583.303 761.508h0l-.01.01M582.806 762.67h-.013v.012M582.118 763.68v.015M581.313 764.487v.012h-.013M580.434 765.032h0-.01M579.53 765.26h0l-.01.01M578.68 765.172h-.01M576.212 764.173h-.01M575.613 763.487v-.01M575.21 762.55v-.01M575.037 761.443v-.01M576.569 756.808v-.012M577.376 756.004h.01v-.013M578.267 755.47h0l.013-.01M579.16 755.242h.01M580.017 755.328h.013M582.488 756.33h.013M583.076 757.026h.008M583.326 758.483l.15-.444M583.478 757.971l.01.03-.01.037M583.446 757.918l.021.01.01.022M583.022 757.634l.076-.543M583.085 757.026l.013.032v.033M583.053 757.004h.01l.014.023M582.542 756.82l-.021-.437M582.501 756.33l.01.023.011.032M582.478 756.319h0l.01.01M581.824 756.092l-.041-.136M581.748 755.927l.024.012.01.017M578.67 765.172h0M578.735 765.163l.143-.121M578.735 765.163l-.033.01h-.022M579.52 765.27v-.01h-.01M579.585 765.24l.305-.372M579.585 765.24l-.024.021h-.03M580.423 765.032l-.024.01h-.01M580.478 764.987l.26-.476M580.478 764.987l-.027.024-.017.02M580.923 764.411l.336.099M581.3 764.499l-.021.012h-.02M581.355 764.432l.143-.435M581.355 764.432l-.019.035-.022.02M581.772 763.749l.295-.021M582.118 763.695l-.03.02-.022.01M582.152 763.618l.052-.361M582.152 763.618l-.01.033-.023.03M582.501 762.836l.248-.112M582.792 762.682l-.021.023-.023.017M582.816 762.595l-.01-.295M582.816 762.595v.032l-.01.044M583.042 761.746l.216-.175M583.292 761.518l-.01.033-.023.02M583.303 761.432l-.065-.25M583.303 761.432v.076M583.37 760.594l.195-.24M583.587 760.29l-.013.028-.008.036M583.574 760.212l-.128-.225M583.574 760.212l.013.023v.042M583.456 759.484l.172-.339M583.65 759.08v.032l-.021.033M583.629 759.004l-.224-.184M583.629 759.004l.013.024.008.032M576.954 764.577l-.027-.013-.009-.032M576.886 764.411l.03.12M576.223 764.183h-.01v-.012M576.201 764.173l-.013-.023-.011-.032M576.16 763.68l.019.436M575.634 763.51l-.01-.015-.011-.009M575.613 763.478l-.01-.033v-.035M575.679 762.867l-.076.541M575.243 762.595l-.021-.024-.012-.02M575.21 762.541v-.065M575.363 762.02l-.153.457M575.058 761.496l-.013-.024-.008-.03M575.058 761.496l.24.195M575.037 761.432v-.043l.008-.036M575.23 761.018l-.185.337M575.134 760.342l.11.185M576.537 756.875l.013-.033.018-.032M576.537 756.875l-.055.367M576.569 756.797l.033-.023.024-.008M576.918 756.742l-.292.024M577.342 756.066l.013-.041.02-.023M577.342 756.066l-.15.425M577.386 755.992l.03-.01h.025M577.777 756.092l-.336-.11M578.214 755.514l.021-.033.031-.011M578.214 755.514l-.252.476M578.28 755.46h.03M579.115 755.275l.021-.032h.023M579.115 755.275l-.305.359M579.17 755.242h.021M579.964 755.341l.024-.015h.028M579.964 755.341l-.14.12M580.03 755.328h0M575.679 762.867l-.044-.087-.032-.065M575.363 762.02l-.033-.12-.032-.207M575.23 761.018v-.141l.013-.272v-.076M576.212 757.626l.11-.156.16-.227M576.918 756.742l.085-.079.188-.17M577.777 756.092l.033-.028.152-.072M583.022 757.647l.03.052.046.097M583.326 758.483l.021.097.058.24M583.456 759.484v.119l-.01.273v.11M583.37 760.594l-.024.095-.064.284-.055.206M583.042 761.746l-.01.032-.11.261-.117.263M582.501 762.836l-.112.172-.161.219-.024.029M581.772 763.749l-.068.075-.195.164-.01.01M580.923 764.411l-.013.012-.172.087M583.446 757.918l-.35-.121M579.824 755.46l-.633-.219M578.811 755.633l-.5-.172M575.602 762.715l-.36-.121M576.16 763.68l-.527-.17M578.67 765.172l-1.716-.595M576.886 764.411l-.664-.228" style="fill:none;stroke:red;stroke-width:.999997;stroke-linecap:round;stroke-linejoin:round;stroke-miterlimit:4;stroke-dasharray:none;stroke-opacity:1;visibility:visible"/><path d="m391.288 811.807-1.525.393M359.488 799.738l30.275 12.463" style="fill:none;stroke:red;stroke-width:1.99999;stroke-linecap:round;stroke-linejoin:round;stroke-miterlimit:4;stroke-dasharray:none;stroke-opacity:1;visibility:visible"/><path d="m351.749 796.553 7.74 3.185" style="fill:none;stroke:red;stroke-width:.999997;stroke-linecap:round;stroke-linejoin:round;stroke-miterlimit:4;stroke-dasharray:none;stroke-opacity:1;visibility:visible"/><path d="m294.705 773.071 57.044 23.48" style="fill:none;stroke:red;stroke-width:1.99999;stroke-linecap:round;stroke-linejoin:round;stroke-miterlimit:4;stroke-dasharray:none;stroke-opacity:1;visibility:visible"/><path d="m288.008 770.315 6.697 2.756" style="fill:none;stroke:red;stroke-width:.999997;stroke-linecap:round;stroke-linejoin:round;stroke-miterlimit:4;stroke-dasharray:none;stroke-opacity:1;visibility:visible"/><path d="m234.635 748.345 53.372 21.972M415.525 709.27l41.967 14.63M571.61 675.55l42.415 12.865M732.406 723.682l-1.208.317M699.425 714.353 731.198 724M562.699 748.453l124.825-31.133M692.092 716.178l7.333-1.825M575.503 764.217l-1.36.36M546.287 754.862l27.857 9.713M379.463 794.14l161.776-40.335M497.012 725.958l122.484-28.38M624.019 696.534l9.473-2.197 46.19 14.021M315.011 768.12l158.566-36.736M478.626 731.266l44.11 15.383M241.685 738.512l54.412 21.972M315.011 768.12l45.079 18.199" style="fill:none;stroke:red;stroke-width:1.99999;stroke-linecap:round;stroke-linejoin:round;stroke-miterlimit:4;stroke-dasharray:none;stroke-opacity:1;visibility:visible"/><path d="m415.525 709.27.15-7.755" style="fill:none;stroke:red;stroke-width:.999997;stroke-linecap:round;stroke-linejoin:round;stroke-miterlimit:4;stroke-dasharray:none;stroke-opacity:1;visibility:visible"/><path d="m379.463 794.14 17.787 7.181-.022 1.076M296.096 760.484l161.396-36.583M562.699 748.453l18.06 6.181M577.274 667.151l159.833 47.697" style="fill:none;stroke:red;stroke-width:1.99999;stroke-linecap:round;stroke-linejoin:round;stroke-miterlimit:4;stroke-dasharray:none;stroke-opacity:1;visibility:visible"/><path d="m571.949 668.284 5.325-1.135" style="fill:none;stroke:red;stroke-width:.999997;stroke-linecap:round;stroke-linejoin:round;stroke-miterlimit:4;stroke-dasharray:none;stroke-opacity:1;visibility:visible"/><path d="m477.655 719.333 136.369-30.916M421.809 700.21l55.847 19.123M360.09 786.32l162.646-39.672M497.012 725.958l45.99 15.741 136.682-33.341" style="fill:none;stroke:red;stroke-width:1.99999;stroke-linecap:round;stroke-linejoin:round;stroke-miterlimit:4;stroke-dasharray:none;stroke-opacity:1;visibility:visible"/><path d="m571.61 675.55.339-7.267" style="fill:none;stroke:red;stroke-width:.999997;stroke-linecap:round;stroke-linejoin:round;stroke-miterlimit:4;stroke-dasharray:none;stroke-opacity:1;visibility:visible"/><path d="m580.759 754.634-.044.86M737.107 714.85l-.055.695" style="fill:none;stroke:red;stroke-width:1.99999;stroke-linecap:round;stroke-linejoin:round;stroke-miterlimit:4;stroke-dasharray:none;stroke-opacity:1;visibility:visible"/><path d="m691.81 720.346-.03.304-.058.293-.076.306-.096.293-.11.292-.13.272-.15.27-.165.242-.185.23-.185.193-.195.174-.205.155-.21.107-.208.088-.216.065-.205.021-.196-.01-.197-.043M691.81 720.346l.281-4.168M689.245 721.651l-.055-.132-.044-.163-.024-.174v-.184l.035-.186.044-.186.063-.183.088-.172.109-.155.12-.129.12-.11.132-.078M687.263 721.116l-.01.296.023.29.028.286.068.263.076.236.11.217.117.2.143.161.15.139.175.11.185.077M687.263 721.116l.26-3.796M546.199 756.95l-.03.336-.055.328-.076.337-.11.324-.13.316-.154.304-.172.284-.197.272-.207.24-.216.219-.241.181-.24.164-.24.119-.247.087-.253.045-.237.023-.239-.023-.23-.067M546.199 756.95l.088-2.088M543.272 758.417l-.076-.14-.052-.165-.033-.17-.011-.2.021-.196.044-.204.076-.197.088-.172.11-.176.117-.14.143-.12.141-.099.15-.053M541.067 757.842v.304l.021.292.044.293.075.262.1.253.107.227.142.208.151.173.175.152.185.121.205.084M541.067 757.842l.172-4.036M619.352 700.146l.143-2.568M619.352 700.146l-.01.293.023.283.042.272.054.261.088.227.11.219.128.194.144.167.161.127.175.109.184.077M623.857 699.438l-.03.293-.058.292-.065.294-.096.286-.111.282-.13.26-.143.262-.164.226-.17.22-.2.197-.193.163-.197.142-.206.108-.206.086-.219.056-.208.022-.192-.012-.196-.042M623.857 699.438l.161-2.904M478.562 733.3l-.024.315-.055.326-.074.315-.107.317-.12.304-.153.292-.162.284-.196.25-.208.241-.218.207-.227.174-.243.15-.237.109-.252.09-.237.042-.239.01-.24-.022-.23-.064M478.562 733.3l.065-2.033M473.49 734.117v.295l.033.289.052.276.068.261.099.238.12.226.141.198.151.174.172.14.197.12.199.088.617.22M473.49 734.117l.085-2.733M621.073 702.572l-.623-.196M542.272 760.212l.653.228M688.328 723.39l.664.208M736.823 715.439l.153.065.142.086M733.365 723.823l-.175.036h-.174l-.162-.036M733.57 723.772l-.205.052M732.168 723.62l.688.203M580.412 755.328l.161.067.151.098.13.13M576.558 764.37l-.17.03h-.187l-.164-.01-.162-.044M576.67 764.334l-.112.033M579.725 755.09l.688.239M575.189 764.108l.688.24M396.846 802.168l.185.088.164.12.164.14.13.179M392.43 811.971l-.24.03h-.227l-.228-.03-.218-.068" style="fill:none;stroke:red;stroke-width:.999997;stroke-linecap:round;stroke-linejoin:round;stroke-miterlimit:4;stroke-dasharray:none;stroke-opacity:1;visibility:visible"/><path d="m418.754 713.646-.068.15-.065.153-.075.141-.087.14-.085.121-.099.12-.097.123-.112.093-.107.1-.12.079-.118.073-.12.054-.12.056-.131.029-.12.025-.13.011h-.12l-.12-.01-.12-.037-.109-.029-.14-.08-.13-.084-.12-.11-.11-.13-.085-.141-.079-.162-.054-.121-.042-.141-.034-.14-.02-.142-.011-.156v-.081M416.381 711.893l.024-.024.096-.117.11-.098.106-.097.123-.088.12-.079.118-.064.118-.042.12-.044.133-.022.12-.021h.127l.122.008.107.025.123.04.106.044.131.09.117.098.122.118.097.132.088.152.065.174.044.128.035.144.03.14.011.152v.306l-.021.15-.02.167-.045.193-.055.186M558.253 800.416l-.013.013v.066l-.011.008v.045l-.01.008v.048l-.007.007v.034l-.016.014v.029l-.011.012v.033l-.01.01v.022l-.01.012v.023l-.013.01v.03l-.008.013v.023l-.011.01v.018l-.013.013v.023l-.01.01v.01l-.01.012v.023l-.011.009v.023l-.013.01v.011l-.011.01v.025l-.01.008v.013l-.01.008v.01l-.01.014v.02l-.011.013v.008l-.014.012v.011l-.009.01v.013h-.008v.008l-.01.014v.008l-.017.012v.011l-.008.012v.01l-.01.011v.012l-.012.01v.01l-.011.014-.01.009v.01l-.011.011v.012l-.012.01v.01l-.011.011v.01l-.01.011-.011.011-.011.012" style="fill:none;stroke:red;stroke-width:.666665;stroke-linecap:round;stroke-linejoin:round;stroke-miterlimit:4;stroke-dasharray:none;stroke-opacity:1;visibility:visible"/><path d="m557.85 801.472-.076.121-.088.116-.099.102-.097.094-.096.09-.099.073-.109.07-.096.054-.11.05-.109.034-.109.024-.11.01h-.097l-.109-.01-.096-.024-.101-.035-.107-.062-.11-.074-.097-.102-.088-.116-.076-.122-.064-.14-.034-.121-.031-.119-.021-.132-.014-.13-.009-.128.01-.108M556.162 799.383h.013l.086-.105.089-.099.096-.088.11-.076.095-.077.11-.052.109-.054.11-.033.109-.033.109-.014h.097l.107.014.099.021.096.019.089.046.11.075.109.088.088.11.073.12.077.127.052.152.035.119.023.133.008.134.013.128v.118l-.013.132-.008.127M563.636 681.892h0v.024l-.01.007v.025l-.014.01v.02l-.007.01v.036h-.01v.02l-.014.01v.023l-.01.01v.024l-.011.01v.011l-.01.01v.022h-.013v.023l-.01.01v.02h-.008v.022h-.016M563.701 681.61h0v.053h-.008v.042l-.013.014v.04h-.01v.046h-.01v.034l-.014.01v.02M563.503 682.238l-.063.141-.076.132-.074.132-.09.106-.085.113-.099.097-.098.095-.098.077-.109.067-.11.063-.109.054-.106.034-.112.022-.107.02h-.107l-.098-.01-.11-.02-.097-.035-.088-.043-.099-.068-.109-.084-.096-.108-.09-.118-.075-.142-.062-.153-.048-.165-.033-.128-.019-.131-.009-.143v-.054M561.514 680.425l.033-.055.09-.11.096-.096.098-.088.098-.087.109-.079.099-.065.109-.043.117-.042.11-.031.109-.012.107-.01.098.01.11.02.098.032.098.033.088.055.085.067.1.097.096.12.076.13.075.142.057.163.041.174.024.128.011.143v.28l-.01.156-.034.153" style="fill:none;stroke:red;stroke-width:.666665;stroke-linecap:round;stroke-linejoin:round;stroke-miterlimit:4;stroke-dasharray:none;stroke-opacity:1;visibility:visible"/><path d="m569.509 675.997-1.063 22.756M567.934 709.52l-1.24 26.401M566.15 747.595l-.096 2.001M565.485 761.552l-1.915 40.768-4.937 1.359M554.238 804.89l-20.847 5.727M576.67 677.497l-.12-.044-.099-.043M578.517 677.64l-.205.03-.24.011h-.238l-.241-.012-.237-.02-.232-.034-.227-.054-.227-.062M576.451 677.41l-.12-.077-.11-.072-.077-.082-.073-.085-.055-.1-.057-.097-.008-.031" style="fill:none;stroke:red;stroke-width:1.99999;stroke-linecap:round;stroke-linejoin:round;stroke-miterlimit:4;stroke-dasharray:none;stroke-opacity:1;visibility:visible"/><path d="m572.808 802.398-.123-.056-.14-.043-.164-.041M570.98 802.192l-.164.02-.141.03-.13.045M570.652 804.182l.175.052.194.032.199.036.205.019.208.012h.207l.205-.012.195-.008.188-.02.172-.034M570.09 803.922l.073.052.099.057.107.052.133.052.15.046M572.6 804.259l.164-.033.133-.055.118-.053.085-.056M570.98 802.192l.24-.033h.487l.249.02.243.033.182.044M570.09 803.922l-.09-.101-.066-.106-.063-.121-.044-.108-.021-.11-.01-.118.01-.099.01-.108.022-.098.041-.087.044-.099.055-.073.068-.09.063-.065.077-.062.097-.071.099-.055.096-.04.068-.024M572.808 802.398l.14.079.128.082.099.088.089.099.055.075.054.088.044.106.031.111.01.11.011.106-.01.1-.023.108-.032.088-.03.096-.055.085-.066.09-.068.076-.085.076" style="fill:none;stroke:red;stroke-width:.666665;stroke-linecap:round;stroke-linejoin:round;stroke-miterlimit:4;stroke-dasharray:none;stroke-opacity:1;visibility:visible"/><path d="m566.214 676.712-1.75.37M559.993 678.052l-65.563 14.164M494.98 692.098l-59.375 12.835M414.608 709.466l-75.057 16.219M339.552 725.685l-84.456 18.245M533.978 818.902l31.245-8.717M229.48 737.978l.817 65.944M241.814 751.305l.51 49.533M572.003 665.576l-342.524 72.401M572.003 665.576l5.27 1.575M576.777 677.53l-.945 19.548M575.308 707.815l-1.273 26.31M573.483 745.767l-.307 6.264M572.6 764.031l-1.828 37.79" style="fill:none;stroke:red;stroke-width:1.99999;stroke-linecap:round;stroke-linejoin:round;stroke-miterlimit:4;stroke-dasharray:none;stroke-opacity:1;visibility:visible"/><path d="m564.28 681.12.185-4.036M562.233 684.154h-.01M564.28 681.12l-.021.27-.044.282-.066.275-.077.269-.107.265-.12.26-.144.24-.15.218-.164.205-.178.184-.181.173-.196.132-.195.123-.206.083-.198.054M562.223 684.154l-.175.032h-.174l-.172-.008-.164-.047M559.819 681.781v.285l.024.271.041.259.075.253.09.228.106.217.12.183.153.165.162.128.174.111.188.077M559.819 681.781l.175-3.73M419.535 712.665l.044-1.98M417.275 715.918l-.01.012M419.535 712.665l-.021.283-.044.301-.063.3-.088.281-.107.286-.13.268-.154.261-.164.239-.185.217-.195.205-.206.176-.219.154-.23.128-.227.09-.227.062M417.264 715.93l-.23.032h-.229l-.229-.02-.216-.067M414.533 713.417l.013.293.031.272.044.271.087.25.098.24.12.215.14.199.152.164.175.15.195.11.194.097M414.533 713.417l.076-3.95M556.446 797.785h-.01M557.251 797.808l-.15-.047-.165-.021-.164-.01-.161.022-.165.032M554.423 800.819l-.099 2.221M556.436 797.785l-.195.065-.198.099-.195.119-.196.15-.185.163-.174.187-.152.209-.15.227-.143.24-.11.248-.107.262-.078.262-.062.272-.047.27-.021.259M558.798 799.995l-.088 1.837M557.817 798.023l.177.07.151.105.141.122.119.151.11.175.1.185.071.205.055.219.045.239.012.25v.251M557.251 797.808l.565.215M415.783 715.678l.579.196M560.951 683.958l.585.173" style="fill:none;stroke:red;stroke-width:.999997;stroke-linecap:round;stroke-linejoin:round;stroke-miterlimit:4;stroke-dasharray:none;stroke-opacity:1;visibility:visible"/><path d="m693.884 843.71-.021.043-.031.03-.033.022-.035.021-.03.012-.043.01M693.982 843.414v.053l-.01.038-.011.054-.012.044-.022.043-.021.043M693.993 843.145l-.01.267M694.263 843.079l-.055.013-.044.012-.032.007-.044.01-.041.013-.055.012M694.287 843.337l-.024-.257M694.35 843.58l-.021-.03-.012-.046-.011-.03-.01-.042v-.044l-.009-.053M694.532 843.645l-.03.01h-.033l-.03-.01-.024-.008-.023-.016-.032-.03M694.673 843.677l-.14-.03M694.64 844.027l.03-.352M694.315 844.231l.033-.044.035-.032.03-.03.035-.027.031-.006h.01l.02-.012.022-.008.11-.045M694.209 844.528l.01-.052.014-.055.01-.044.02-.041.025-.043.017-.04M694.146 844.774l.063-.248M693.862 844.84l.052-.015.057-.012.031-.006.045-.01.042-.01.057-.014M693.894 844.605l-.03.235M693.852 844.37l.021.03.01.034.01.03.014.045v.044l-.014.053M693.657 844.283h.076l.03.012.025.01.03.02.024.022M693.454 844.295l.203-.013M693.485 843.912l-.013.073v.114l-.011.065v.056l-.007.075M693.69 843.846l-.205.067M693.862 843.677l.044.012M693.852 844.37l-.01-.01M693.516 843.9h0M693.516 843.9l-.021.013-.01.008M692.394 842.377l.044-.043M691.776 844.377l-.01-.04M691.756 843.9v.225l.01.214M692.394 842.377l-.13.16-.11.16-.107.18-.085.195-.079.2-.062.212-.044.204-.022.212" style="fill:none;stroke:red;stroke-width:.666665;stroke-linecap:round;stroke-linejoin:round;stroke-miterlimit:4;stroke-dasharray:none;stroke-opacity:1;visibility:visible"/><path d="m692.438 842.335.063-.064.132-.105.128-.098.13-.074.138-.066.141-.041.14-.041.152-.023h.173l.163.023.173.029.139.053.133.078.127.084.12.097.096.105.097.118.088.138.063.148.065.151.044.19.034.18.008.197-.008.157-.012.159-.022.169-.033.16-.053.147-.052.161-.067.152-.065.137-.087.14-.085.126-.096.129-.11.105-.109.104-.128.1-.13.095-.13.064-.141.063-.14.044-.139.028-.153.014h-.162l-.172-.024-.164-.044-.141-.049-.127-.077-.117-.083-.123-.107-.096-.106-.086-.116-.088-.15-.066-.152-.052-.156-.032-.13-.022-.098" style="fill:none;stroke:red;stroke-width:.666665;stroke-linecap:round;stroke-linejoin:round;stroke-miterlimit:4;stroke-dasharray:none;stroke-opacity:1;visibility:visible"/><path d="M396.202 805.475v4.222M580.532 758.1v4.22M737.198 718.1v4.22M725.865 862.32v4.224M572.755 912.543v4.223M393.423 972.019v4.221M567.718 917.008l1.812-1.768M735.92 715.344l.119 1.247M732.602 722.228l1.773-2.274M626.251 721.402l5.089 9.928M636.64 730.015l-4.634-10.028M725.566 859.765l-.038 1.373M296.367 778.476l-2.036 10.042M359.003 948.304l-2.069 6.069M615.373 819.248l-2.438 1.541M615.98 819.467l.904 2.783M616.666 826.036l.087-1.426M612.857 827.155l-.541-1.25M351.311 945.803l-18.218-3.377M519.778 898.689l-6.965-10.839M681.597 843.656l-2.445 1.634M682.24 843.899l.867 2.848M682.836 850.653l.216-3.166" style="fill:none;stroke:red;stroke-width:.999997;stroke-linecap:round;stroke-linejoin:round;stroke-miterlimit:4;stroke-dasharray:none;stroke-opacity:1;visibility:visible"/><path d="m679.029 851.849-.459-2.96" style="fill:none;stroke:red;stroke-width:1.99999;stroke-linecap:round;stroke-linejoin:round;stroke-miterlimit:4;stroke-dasharray:none;stroke-opacity:1;visibility:visible"/><path d="m568.337 912.483-1.297-1.604M389.34 970.243l-2.098-.683M694.146 844.773l-12.823.755M390.766 810.099l1.424-1.859M388.155 975.29l2.099-2.415M577.777 756.09l.479 1.378M575.242 762.594l1.536-.642M478.627 731.267l-1.819-.63M477.655 719.333l-.596 3.32M546.199 756.95l-3.427-11.685M636.866 698.468l-2.936-11.604M576.569 756.808l-2.012-.598M702.807 718.596l-2.838-11.927M733.646 716.766l-1.86-.557M557.816 798.023l5.441 4.384M575.308 707.815l-4.774-9.53M568.446 698.753l1.576 10.29M573.483 745.767l-4.71-10.355M566.054 749.596l2.16-2.523M566.15 747.595l1.913 2.698M574.145 764.577l-6.647-2.319" style="fill:none;stroke:red;stroke-width:.999997;stroke-linecap:round;stroke-linejoin:round;stroke-miterlimit:4;stroke-dasharray:none;stroke-opacity:1;visibility:visible"/><path d="m632.006 719.987 4.633 10.028M636.64 730.015l.663-11.312M636.866 698.468l1.797-2.566M626.251 721.402l-.654 11.365M631.34 731.33l-5.089-9.928M623.857 699.438l3.863-3.764M298.802 778.954l2.733 7.831M299.793 778.282l1.742-2.393M296.367 778.476l-7.437 11.004M364.103 804.867l1.696-2.538M359.003 948.304l-7.746 3.23M360.567 805.073l-7.851-8.125M702.807 718.596l1.74-2.69M691.81 720.346l1.404-4.44M620.386 823.543l.198-3.372M681.597 843.656l2.797.01M362.46 948.227l1.634-.716M361.371 948.704l-10.06-2.9M519.778 898.689l1.085-11.844M234.536 740.035l.099 8.31M234.536 740.035l7.149-1.523M416.362 715.874l5.447-15.664M571.61 675.55l-2.101.447M570.022 709.043l-1.576-10.29M568.446 698.753l-.512 10.767M568.214 747.073l-1.52-11.152M568.063 750.293l-1.913-2.698M568.214 747.073l-2.16 2.523M574.145 764.577l-8.66-3.025M417.96 712.426l17.645-7.493M575.308 707.815l.524-10.737M570.534 698.285l4.774 9.53M573.483 745.767l.552-11.641M568.063 750.293l5.42-4.526M574.557 756.21l-1.38-4.179M574.145 764.577l-1.545-.546" style="fill:none;stroke:red;stroke-width:1.99999;stroke-linecap:round;stroke-linejoin:round;stroke-miterlimit:4;stroke-dasharray:none;stroke-opacity:1;visibility:visible"/><path d="m418.47 713.35 1.109-2.665M393.04 805.65l3.162-.175M396.096 812.415l.106-2.718M582.542 756.82l-2.01 1.28M582.118 763.68l-1.586-1.36M738.998 716.94l-1.8 1.16M739.054 722.01l-1.856.31M727.873 861.278l-2.008 1.042M726.64 867.968l-.775-1.424M574.819 911.197l-2.064 1.346M573.634 918.606l-.879-1.84M396.499 970.754l-3.076 1.265M394.986 977.292l-1.563-1.052" style="fill:none;stroke:red;stroke-width:.999997;stroke-linecap:round;stroke-linejoin:round;stroke-miterlimit:4;stroke-dasharray:none;stroke-opacity:1;visibility:visible"/><path d="m152.029 898.265-5.984-68.021M160.643 996.176l-5.435-61.775M142.476 829.145l3.568 1.099 176.448-42.47M352.636 780.52l152.556-36.725" style="fill:none;stroke:#00ff4a;stroke-width:.999997;stroke-linecap:round;stroke-linejoin:round;stroke-miterlimit:4;stroke-dasharray:none;stroke-opacity:1;visibility:visible" visibility="hidden"/><path d="m528.056 760.411 4.427 121.384-13.63 4.2M518.853 885.994l-150.425 46.263M350.314 937.43l-189.672 58.747M157.117 994.709l3.527 1.468M148.641 898.872l-6.165-69.726 177.674-42.622M157.117 994.709l-5.216-58.981M350.17 779.318l153.446-36.805M350.314 937.43l18.114-5.173M368.428 932.257l-18.114 5.173" style="fill:none;stroke:#00ff4a;stroke-width:1.99999;stroke-linecap:round;stroke-linejoin:round;stroke-miterlimit:4;stroke-dasharray:none;stroke-opacity:1;visibility:visible" visibility="hidden"/><path d="m241.685 738.512 13.411 5.418M234.635 748.345l7.179 2.96" style="fill:none;stroke:red;stroke-width:1.99999;stroke-linecap:round;stroke-linejoin:round;stroke-miterlimit:4;stroke-dasharray:none;stroke-opacity:1;visibility:visible"/><path d="m522.735 746.648-17.543-2.853" style="fill:none;stroke:#00ff4a;stroke-width:.999997;stroke-linecap:round;stroke-linejoin:round;stroke-miterlimit:4;stroke-dasharray:none;stroke-opacity:1;visibility:visible" visibility="hidden"/><path d="m541.067 757.842-13.011 2.569M315.011 768.12l5.139 18.404M497.012 725.958l6.604 16.555" style="fill:none;stroke:#00ff4a;stroke-width:1.99999;stroke-linecap:round;stroke-linejoin:round;stroke-miterlimit:4;stroke-dasharray:none;stroke-opacity:1;visibility:visible" visibility="hidden"/></svg>