<svg xmlns="http://www.w3.org/2000/svg" baseProfile="full" height="1122.52" preserveAspectRatio="xMinYMin meet" style="width:919px;height:1159px" width="793.701" xml:space="preserve"><path d="M567.358 390.327 268.848 530.98l-12.352-5.208-.277-15.888 350.574-163.322 12.517 4.404-.187 3.15 75.661 26.799M397.958 569.901l86.947-55.055s1.595.164 2.888-.576c1.295-.74.15-1.35.15-1.35l211.363-133.833 12.932 4.598-.512 15.385-300.272 192.823-13.352-5.637-.144-16.355" style="fill:none;stroke:red;stroke-width:1.99999;stroke-linecap:round;stroke-linejoin:round;stroke-miterlimit:2;stroke-dasharray:none;stroke-opacity:1;visibility:visible"/><path d="m256.96 509.978 11.867 5.019.133 15.585M380.685 462.634l238.623-111.67M269.009 514.9l102.965-48.188M398.308 569.94l13.164 5.417.143 16.294M411.474 575.356l300.763-191.672M618.502 353.989l-7.27 3.404.195 9.284M611.475 357.545l77.382 27.536" style="fill:none;stroke:red;stroke-width:.999997;stroke-linecap:round;stroke-linejoin:round;stroke-miterlimit:2;stroke-dasharray:none;stroke-opacity:1;visibility:visible"/><path d="m655.078 405.429-81.908-29.412M639.635 415.723l-73.494-26.917" style="fill:none;stroke:red;stroke-width:1.99999;stroke-linecap:round;stroke-linejoin:round;stroke-miterlimit:2;stroke-dasharray:none;stroke-opacity:1;visibility:visible"/><path d="m572.298 375.545-7.425 3.497.406 9.372M565.14 379.176l84.018 30.497" style="fill:none;stroke:red;stroke-width:.999997;stroke-linecap:round;stroke-linejoin:round;stroke-miterlimit:2;stroke-dasharray:none;stroke-opacity:1;visibility:visible"/><path d="m632.484 372.52-27.033 14.55M591.5 382.108l31.857-17.09" style="fill:none;stroke:red;stroke-width:1.99999;stroke-linecap:round;stroke-linejoin:round;stroke-miterlimit:2;stroke-dasharray:none;stroke-opacity:1;visibility:visible"/><path d="m624.312 364.637 8.916 3.18.075 4.19M600.539 385.4l32.227-17.352" style="fill:none;stroke:red;stroke-width:.999997;stroke-linecap:round;stroke-linejoin:round;stroke-miterlimit:2;stroke-dasharray:none;stroke-opacity:1;visibility:visible"/><path d="m655.676 380.413-27.59 15.047M614.53 390.244l31.916-17.407" style="fill:none;stroke:red;stroke-width:1.99999;stroke-linecap:round;stroke-linejoin:round;stroke-miterlimit:2;stroke-dasharray:none;stroke-opacity:1;visibility:visible"/><path d="m646.911 372.585 9.212 3.317.033 3.98M623.186 393.795l32.377-17.74" style="fill:none;stroke:red;stroke-width:.999997;stroke-linecap:round;stroke-linejoin:round;stroke-miterlimit:2;stroke-dasharray:none;stroke-opacity:1;visibility:visible"/><path d="m678.93 388.514-27.787 15.325M637.666 398.394l31.472-17.235" style="fill:none;stroke:red;stroke-width:1.99999;stroke-linecap:round;stroke-linejoin:round;stroke-miterlimit:2;stroke-dasharray:none;stroke-opacity:1;visibility:visible"/><path d="m669.708 380.85 9.45 3.263.082 4.158M646.342 402.092l32.497-17.89" style="fill:none;stroke:red;stroke-width:.999997;stroke-linecap:round;stroke-linejoin:round;stroke-miterlimit:2;stroke-dasharray:none;stroke-opacity:1;visibility:visible"/><path d="m612.08 367.025 3.615 1.312M631.22 373.858l7.46 2.596M654.254 382.103l7.093 2.461M676.696 390.048l3.099 1.073" style="fill:none;stroke:red;stroke-width:1.99999;stroke-linecap:round;stroke-linejoin:round;stroke-miterlimit:2;stroke-dasharray:none;stroke-opacity:1;visibility:visible"/><path d="M665.193 408.188c.04.498-.843.976-1.972 1.068-1.13.096-2.083-.226-2.121-.726-.044-.495.84-.972 1.969-1.068 1.135-.09 2.08.232 2.124.726M704.356 383.345c.038.484-.834.953-1.951 1.049-1.117.09-2.055-.227-2.095-.708-.04-.481.83-.953 1.95-1.044 1.119-.095 2.059.218 2.097.703h-.001M611.006 350.435c.038.495-.853.972-1.994 1.068-1.143.097-2.102-.226-2.143-.721-.041-.495.851-.972 1.995-1.068 1.138-.094 2.098.226 2.142.721M565.023 371.938c.046.536-.92 1.052-2.158 1.159-1.241.1-2.278-.247-2.32-.784-.05-.534.918-1.053 2.156-1.156 1.239-.102 2.279.248 2.322.78v.001" style="fill:none;stroke:red;stroke-width:.666665;stroke-linecap:round;stroke-linejoin:round;stroke-miterlimit:4;stroke-dasharray:none;stroke-opacity:1;visibility:visible"/><path d="M619.492 365.562c.336.628.294 1.305-.088 1.508-.386.205-.97-.136-1.307-.763-.333-.625-.295-1.3.09-1.505.388-.207.972.135 1.306.76h-.001" style="fill:none;stroke:red;stroke-width:.666665;stroke-linecap:round;stroke-linejoin:round;stroke-miterlimit:2;stroke-dasharray:none;stroke-opacity:1;visibility:visible"/><path d="m587.661 380.689 26.25-12.333" style="fill:none;stroke:red;stroke-width:1.99999;stroke-linecap:round;stroke-linejoin:round;stroke-miterlimit:2;stroke-dasharray:none;stroke-opacity:1;visibility:visible"/><path d="m669.536 370.913 4.13-3.432M675.326 369.429a3.025 3.025 0 0 0-.894-1.727M674.433 367.702a1.265 1.265 0 0 0-.457-.27M675.282 369.965c.003-.003.006-.003.008-.011" style="fill:none;stroke:red;stroke-width:.999997;stroke-linecap:round;stroke-linejoin:round;stroke-miterlimit:2;stroke-dasharray:none;stroke-opacity:1;visibility:visible"/><path d="M675.29 369.954a1.11 1.11 0 0 0 .035-.527M673.979 367.429h-.012M674.992 370.751l.292-.79M673.152 367.215l.815.213M673.169 367.222a.385.385 0 0 0-.295.024M674.806 370.962a.419.419 0 0 0 .192-.224M672.43 372.205l2.379-1.245M666.969 370.335l5.91-3.09M488.63 513.74c.05.082.113.31.113.31M479.816 502.956a2.243 2.243 0 0 0-.636.378c-.387.356-.67.92-.288 2.182.383 1.264 3.276 5.414 4.355 6.37.32.278 1.598 1.106 2.356 1.846" style="fill:none;stroke:red;stroke-width:.999997;stroke-linecap:round;stroke-linejoin:round;stroke-miterlimit:2;stroke-dasharray:none;stroke-opacity:1;visibility:visible"/><path d="M479.459 503.12s1.148-.776 1.877-.45c.388.174.697.44 1.221 1.008.575.62 1.396 1.69 2.367 3.357.37.64.768 1.49 1.172 2.361.385.828.779 2.36.877 2.844.06.298-.183.315.047.826" style="fill:none;stroke:red;stroke-width:.999997;stroke-linecap:round;stroke-linejoin:round;stroke-miterlimit:2;stroke-dasharray:none;stroke-opacity:1;visibility:visible"/><path d="M481.968 507.335c-.516-.136-.976-.147-1.585-1.501-.268-.602-.06-.944.11-1.055.55-.364.902.016 1.031.144.136.127.261-.479 1.072 1.057.495.946-.046 1.508-.628 1.355M372.191 465.758c.041.122.09.248.145.364M373.27 463.964s.382-.669.43-.71l1.765-2.334 1.365-1.489 1.208-.904c.729-.557 1.961-.607 2.761.43l.41.649c.648 1.121.184 2.202-.461 2.905l-.804.713-1.661 1.131-2.339 1.355s-1.004.492-1.89.89" style="fill:none;stroke:red;stroke-width:.999997;stroke-linecap:round;stroke-linejoin:round;stroke-miterlimit:2;stroke-dasharray:none;stroke-opacity:1;visibility:visible"/><path d="M373.27 463.964c-.227.306-1.104 1.719-1.08 1.796M372.211 465.415a.23.23 0 0 0-.175.273" style="fill:none;stroke:red;stroke-width:.999997;stroke-linecap:round;stroke-linejoin:round;stroke-miterlimit:2;stroke-dasharray:none;stroke-opacity:1;visibility:visible"/><path d="M372.036 465.688a.936.936 0 0 0 .186.399M373.564 466.975a.9.9 0 0 0 .43.01M372.22 466.086a2.525 2.525 0 0 0 1.344.888M379.556 461.642c-.398.364-1.196.32-1.628-.434-.428-.748.167-.973.568-1.334.396-.36.92-.538 1.35.213.429.752.104 1.19-.29 1.555M371.974 466.712l8.711-4.078M615.695 368.337l-4.22-10.792M676.696 390.048l12.161-4.967M615.695 368.337l8.617-3.7M666.969 370.335l-11.406 5.72M672.43 372.205l6.41 11.996" style="fill:none;stroke:red;stroke-width:.999997;stroke-linecap:round;stroke-linejoin:round;stroke-miterlimit:2;stroke-dasharray:none;stroke-opacity:1;visibility:visible"/><path d="m624.312 364.637-8.617 3.7M615.695 368.337l15.525 5.521M646.911 372.585l-8.231 3.869M638.68 376.454l15.574 5.649M669.708 380.85l-8.36 3.714M688.857 385.08l-12.161 4.968M669.708 380.85l10.087 10.271" style="fill:none;stroke:red;stroke-width:1.99999;stroke-linecap:round;stroke-linejoin:round;stroke-miterlimit:2;stroke-dasharray:none;stroke-opacity:1;visibility:visible"/><path d="m611.427 366.677-.421-16.242M565.28 388.414l-.257-16.476" style="fill:none;stroke:red;stroke-width:.666665;stroke-linecap:round;stroke-linejoin:round;stroke-miterlimit:4;stroke-dasharray:none;stroke-opacity:1;visibility:visible"/><path d="m572.298 375.545 15.363 5.144" style="fill:none;stroke:red;stroke-width:1.99999;stroke-linecap:round;stroke-linejoin:round;stroke-miterlimit:2;stroke-dasharray:none;stroke-opacity:1;visibility:visible"/><path d="m672.878 367.244-.448 4.961M674.809 370.96l-7.84-.625" style="fill:none;stroke:red;stroke-width:.999997;stroke-linecap:round;stroke-linejoin:round;stroke-miterlimit:2;stroke-dasharray:none;stroke-opacity:1;visibility:visible"/><path d="m662.108 214.832-4.079 1.161-2.486 113.036 8.746 2.459 6.607-3.672 2.776-111.508-4.192-1.052" style="fill:none;stroke:#00ff4a;stroke-width:1.99999;stroke-linecap:round;stroke-linejoin:round;stroke-miterlimit:4;stroke-dasharray:none;stroke-opacity:1;visibility:visible"/><path d="m658.03 215.994 8.94 2.357 6.7-2.042M666.97 218.35l-2.683 113.138" style="fill:none;stroke:#00ff4a;stroke-width:.999997;stroke-linecap:round;stroke-linejoin:round;stroke-miterlimit:4;stroke-dasharray:none;stroke-opacity:1;visibility:visible"/><path d="m710.68 203.655 3.543.85-3.284 100.898-6.246 3.486-8.708-2.333.738-25.495M698.057 236.535l.916-32.39 4.124-1.131M699.169 265.366l-26.52 11.372M672.553 291.14l30.284-13.255" style="fill:none;stroke:#00ff4a;stroke-width:1.99999;stroke-linecap:round;stroke-linejoin:round;stroke-miterlimit:4;stroke-dasharray:none;stroke-opacity:1;visibility:visible"/><path d="m703.195 277.756.333-11.557-3.888-.998M673.002 279.355l30.527-13.156" style="fill:none;stroke:#00ff4a;stroke-width:.999997;stroke-linecap:round;stroke-linejoin:round;stroke-miterlimit:4;stroke-dasharray:none;stroke-opacity:1;visibility:visible"/><path d="m700.028 236.285-26.9 11.148M673.258 261.767l30.412-12.844" style="fill:none;stroke:#00ff4a;stroke-width:1.99999;stroke-linecap:round;stroke-linejoin:round;stroke-miterlimit:4;stroke-dasharray:none;stroke-opacity:1;visibility:visible"/><path d="m704.057 248.788.361-11.643-3.952-1.005M673.353 250.05l30.812-12.803" style="fill:none;stroke:#00ff4a;stroke-width:.999997;stroke-linecap:round;stroke-linejoin:round;stroke-miterlimit:4;stroke-dasharray:none;stroke-opacity:1;visibility:visible"/><path d="m697.557 252.09-.388 13.667" style="fill:none;stroke:#00ff4a;stroke-width:1.99999;stroke-linecap:round;stroke-linejoin:round;stroke-miterlimit:4;stroke-dasharray:none;stroke-opacity:1;visibility:visible"/><path d="m698.974 204.144 8.887 2.305 6.364-1.945M707.862 206.45l-3.17 102.44" style="fill:none;stroke:#00ff4a;stroke-width:.999997;stroke-linecap:round;stroke-linejoin:round;stroke-miterlimit:4;stroke-dasharray:none;stroke-opacity:1;visibility:visible"/><path d="M708.778 204.504c-.013.414-1.005.705-2.216.653-1.206-.052-2.177-.432-2.162-.847M667.988 216.322c-.015.412-.995.706-2.195.654-1.193-.052-2.153-.432-2.139-.847" style="fill:none;stroke:#00ff4a;stroke-width:.666665;stroke-linecap:round;stroke-linejoin:round;stroke-miterlimit:4;stroke-dasharray:none;stroke-opacity:1;visibility:visible"/><path d="m703.195 277.756-6.472 3.305M697.557 252.09l.5-15.555M704.057 248.788l-6.5 3.302M696.723 281.061l.446-15.304" style="fill:none;stroke:#00ff4a;stroke-width:1.99999;stroke-linecap:round;stroke-linejoin:round;stroke-miterlimit:4;stroke-dasharray:none;stroke-opacity:1;visibility:visible"/><path d="m558.866 187.07-4.227.784-.378 109.2 7.244 2.745 7.64-3.084.684-108.069-4.427-1.36" style="fill:none;stroke:#9500ff;stroke-width:1.99999;stroke-linecap:round;stroke-linejoin:round;stroke-miterlimit:4;stroke-dasharray:none;stroke-opacity:1;visibility:visible"/><path d="m554.64 187.853 7.355 2.355 7.833-1.563M561.993 190.207l-.488 109.59" style="fill:none;stroke:#9500ff;stroke-width:.999997;stroke-linecap:round;stroke-linejoin:round;stroke-miterlimit:4;stroke-dasharray:none;stroke-opacity:1;visibility:visible"/><path d="m614.113 178.533 3.57 1.07-1.449 98.028-7.445 3.016-7.255-2.609.355-25.435M602.411 209.936l.373-31.125 3.916-.71M603.53 238.142l-33.472 10.044M570.312 261.572l36.412-11.133" style="fill:none;stroke:#9500ff;stroke-width:1.99999;stroke-linecap:round;stroke-linejoin:round;stroke-miterlimit:4;stroke-dasharray:none;stroke-opacity:1;visibility:visible"/><path d="m607.14 250.311.188-11.208-3.25-1.125M570.455 250.202l36.87-11.099" style="fill:none;stroke:#9500ff;stroke-width:.999997;stroke-linecap:round;stroke-linejoin:round;stroke-miterlimit:4;stroke-dasharray:none;stroke-opacity:1;visibility:visible"/><path d="m603.881 209.936-33.483 9.693M570.247 233.155l36.857-10.836" style="fill:none;stroke:#9500ff;stroke-width:1.99999;stroke-linecap:round;stroke-linejoin:round;stroke-miterlimit:4;stroke-dasharray:none;stroke-opacity:1;visibility:visible"/><path d="m607.557 222.186.125-11.333-3.292-1.063M570.622 221.613l36.767-10.656" style="fill:none;stroke:#9500ff;stroke-width:.999997;stroke-linecap:round;stroke-linejoin:round;stroke-miterlimit:4;stroke-dasharray:none;stroke-opacity:1;visibility:visible"/><path d="m602.245 224.415-.195 13.708" style="fill:none;stroke:#9500ff;stroke-width:1.99999;stroke-linecap:round;stroke-linejoin:round;stroke-miterlimit:4;stroke-dasharray:none;stroke-opacity:1;visibility:visible"/><path d="m602.786 178.811 7.373 2.292 7.523-1.5M610.161 181.103l-1.372 99.544" style="fill:none;stroke:#9500ff;stroke-width:.999997;stroke-linecap:round;stroke-linejoin:round;stroke-miterlimit:4;stroke-dasharray:none;stroke-opacity:1;visibility:visible"/><path d="M612.468 179.356c-.016.414-1.008.71-2.212.666-1.208-.046-2.176-.421-2.159-.836M564.428 188.397c-.018.415-1.01.71-2.216.667-1.205-.047-2.172-.422-2.156-.836" style="fill:none;stroke:#9500ff;stroke-width:.666665;stroke-linecap:round;stroke-linejoin:round;stroke-miterlimit:4;stroke-dasharray:none;stroke-opacity:1;visibility:visible"/><path d="m607.14 250.311-5.251 2.292M602.245 224.415l.166-14.479M607.557 222.186l-5.312 2.229M601.889 252.603l.161-14.48" style="fill:none;stroke:#9500ff;stroke-width:1.99999;stroke-linecap:round;stroke-linejoin:round;stroke-miterlimit:4;stroke-dasharray:none;stroke-opacity:1;visibility:visible"/><path d="m615.695 368.337 3.613-17.372M615.695 368.337l2.807-14.348" style="fill:none;stroke:red;stroke-width:.999997;stroke-linecap:round;stroke-linejoin:round;stroke-miterlimit:2;stroke-dasharray:none;stroke-opacity:1;visibility:visible"/><path d="m615.695 368.337 7.662-3.32" style="fill:none;stroke:red;stroke-width:1.99999;stroke-linecap:round;stroke-linejoin:round;stroke-miterlimit:2;stroke-dasharray:none;stroke-opacity:1;visibility:visible"/><path d="m638.68 376.454-5.914-8.406" style="fill:none;stroke:red;stroke-width:.999997;stroke-linecap:round;stroke-linejoin:round;stroke-miterlimit:2;stroke-dasharray:none;stroke-opacity:1;visibility:visible"/><path d="m615.695 368.337-1.785.019" style="fill:none;stroke:red;stroke-width:1.99999;stroke-linecap:round;stroke-linejoin:round;stroke-miterlimit:2;stroke-dasharray:none;stroke-opacity:1;visibility:visible"/><path d="m697.557 252.09 5.972 14.109M697.557 252.09l6.608-14.843" style="fill:none;stroke:#00ff4a;stroke-width:.999997;stroke-linecap:round;stroke-linejoin:round;stroke-miterlimit:4;stroke-dasharray:none;stroke-opacity:1;visibility:visible"/></svg>