<svg xmlns="http://www.w3.org/2000/svg" baseProfile="full" height="1122.52" preserveAspectRatio="xMinYMin meet" style="width:919px;height:1159px" width="793.701" xml:space="preserve"><path d="m403.014 529.73-106.69-38.735M290.92 658.238l-4.601-141.602" style="fill:none;stroke:red;stroke-width:1.99999;stroke-linecap:round;stroke-linejoin:round;stroke-miterlimit:4;stroke-dasharray:none;stroke-opacity:1;visibility:visible" visibility="hidden"/><path d="m290.069 494.253 105.082 38.393M426.573 717.22l-1.057-162.249" style="fill:none;stroke:red;stroke-width:.999997;stroke-linecap:round;stroke-linejoin:round;stroke-miterlimit:4;stroke-dasharray:none;stroke-opacity:1;visibility:visible" visibility="hidden"/><path d="m296.953 668.465 101.942 44.645M433.674 713.878l-.827-161.572" style="fill:none;stroke:red;stroke-width:1.99999;stroke-linecap:round;stroke-linejoin:round;stroke-miterlimit:4;stroke-dasharray:none;stroke-opacity:1;visibility:visible" visibility="hidden"/><path d="m290.92 658.238 3.267 1.42M420.14 714.425l6.43 2.796s4.295-.148 6.129-2.315M290.325 502.472l-.256-8.217s1.489-3.225 5.153-3.39M296.868 665.768l.084 2.696" style="fill:none;stroke:red;stroke-width:.999997;stroke-linecap:round;stroke-linejoin:round;stroke-miterlimit:4;stroke-dasharray:none;stroke-opacity:1;visibility:visible" visibility="hidden"/><path d="m290.325 502.472-4.006 14.164" style="fill:none;stroke:red;stroke-width:1.99999;stroke-linecap:round;stroke-linejoin:round;stroke-miterlimit:4;stroke-dasharray:none;stroke-opacity:1;visibility:visible" visibility="hidden"/><path d="m296.953 668.465-2.766-8.807M286.319 516.636l4.006-14.164M290.92 658.238l5.948 7.53" style="fill:none;stroke:red;stroke-width:.999997;stroke-linecap:round;stroke-linejoin:round;stroke-miterlimit:4;stroke-dasharray:none;stroke-opacity:1;visibility:visible" visibility="hidden"/><path d="m634.936 556.187 21.496 7.73M575.245 531.3l1.799.62-.104 3.416 37.242 13.39" style="fill:none;stroke:#00ff4a;stroke-width:.999997;stroke-linecap:round;stroke-linejoin:round;stroke-miterlimit:2;stroke-dasharray:none;stroke-opacity:1;visibility:visible"/><path d="m526.414 544.793 30.353-14.073M435.066 587.15l72.388-33.567M307.653 674.974l-121.318 57.401-12.654-6.341-.801-17.315 116.201-53.88M521.8 573.65l-86.646 40.999M632.182 581.013l22.81-14.747M436.372 707.584l176.85-114.314M674.652 583.396 336.339 807.01l-14.352-7.047-.481-18.13 98.109-63.415s2.476.279 2.263-.658" style="fill:none;stroke:#00ff4a;stroke-width:1.99999;stroke-linecap:round;stroke-linejoin:round;stroke-miterlimit:2;stroke-dasharray:none;stroke-opacity:1;visibility:visible"/><path d="m673.364 566.448 1.864.643-.575 16.304M173.49 708.896l12.172 6.053.795 16.979M435.293 598.204l141.75-66.285M185.863 714.841l84.808-39.657M321.924 781.832l14.061 6.917.528 17.988M335.985 788.75l339.244-221.658M576.377 535.094l-7.799 3.63.264 9.827M632.897 562.042l17.959 6.49M568.853 538.896l45.368 16.397" style="fill:none;stroke:#00ff4a;stroke-width:.999997;stroke-linecap:round;stroke-linejoin:round;stroke-miterlimit:2;stroke-dasharray:none;stroke-opacity:1;visibility:visible"/><path d="m613.892 590.668-85.798-32.081M598.613 602.008l-78.205-29.752" style="fill:none;stroke:#00ff4a;stroke-width:1.99999;stroke-linecap:round;stroke-linejoin:round;stroke-miterlimit:2;stroke-dasharray:none;stroke-opacity:1;visibility:visible"/><path d="m526.99 558.179-7.953 3.75.424 9.889M519.333 562.076l88.888 33.492" style="fill:none;stroke:#00ff4a;stroke-width:.999997;stroke-linecap:round;stroke-linejoin:round;stroke-miterlimit:2;stroke-dasharray:none;stroke-opacity:1;visibility:visible"/><path d="m590.703 554.78-29.072 15.819M547.17 565.122l33.916-18.252" style="fill:none;stroke:#00ff4a;stroke-width:1.99999;stroke-linecap:round;stroke-linejoin:round;stroke-miterlimit:2;stroke-dasharray:none;stroke-opacity:1;visibility:visible"/><path d="m582.086 546.344 9.437 3.453.13 4.406M556.634 568.725l34.57-18.728" style="fill:none;stroke:#00ff4a;stroke-width:.999997;stroke-linecap:round;stroke-linejoin:round;stroke-miterlimit:2;stroke-dasharray:none;stroke-opacity:1;visibility:visible"/><path d="m614.965 563.392-29.477 16.288M571.025 574.13l34.355-18.835" style="fill:none;stroke:#00ff4a;stroke-width:1.99999;stroke-linecap:round;stroke-linejoin:round;stroke-miterlimit:2;stroke-dasharray:none;stroke-opacity:1;visibility:visible"/><path d="m605.892 555.01 9.675 3.504M580.587 577.758l34.523-18.979" style="fill:none;stroke:#00ff4a;stroke-width:.999997;stroke-linecap:round;stroke-linejoin:round;stroke-miterlimit:2;stroke-dasharray:none;stroke-opacity:1;visibility:visible"/><path d="m613.71 586.72-3.84 2.161M639.578 572.14l-7.376 4.156M595.264 583.26l19.436-10.835" style="fill:none;stroke:#00ff4a;stroke-width:1.99999;stroke-linecap:round;stroke-linejoin:round;stroke-miterlimit:2;stroke-dasharray:none;stroke-opacity:1;visibility:visible"/><path d="m632.26 564.593 7.712 2.81.039 4.413M632.196 571.742l7.521-4.217M604.97 587.007l8.933-5.01" style="fill:none;stroke:#00ff4a;stroke-width:.999997;stroke-linecap:round;stroke-linejoin:round;stroke-miterlimit:2;stroke-dasharray:none;stroke-opacity:1;visibility:visible"/><path d="m569.637 548.866 3.984 1.475M589.52 556.143l8.125 2.945M637.691 573.77l3.22 1.173" style="fill:none;stroke:#00ff4a;stroke-width:1.99999;stroke-linecap:round;stroke-linejoin:round;stroke-miterlimit:2;stroke-dasharray:none;stroke-opacity:1;visibility:visible"/><path d="M577.23 547.24c.37.704.326 1.465-.097 1.695-.426.23-1.069-.156-1.438-.859-.368-.701-.326-1.461.1-1.692.422-.228 1.068.153 1.435.856" style="fill:none;stroke:#00ff4a;stroke-width:.666665;stroke-linecap:round;stroke-linejoin:round;stroke-miterlimit:2;stroke-dasharray:none;stroke-opacity:1;visibility:visible"/><path d="m542.893 563.657 28.788-13.61" style="fill:none;stroke:#00ff4a;stroke-width:1.99999;stroke-linecap:round;stroke-linejoin:round;stroke-miterlimit:2;stroke-dasharray:none;stroke-opacity:1;visibility:visible"/><path d="m630.86 593.032 3.548-113.984M617.73 486.119l-3.101 107.917" style="fill:none;stroke:#00ff4a;stroke-width:1.99999;stroke-linecap:round;stroke-linejoin:round;stroke-miterlimit:4;stroke-dasharray:none;stroke-opacity:1;visibility:visible"/><path d="m614.603 594.934 9.396 3.004 6.845-4.396M627.543 481.869l-3.544 116.069" style="fill:none;stroke:#00ff4a;stroke-width:.999997;stroke-linecap:round;stroke-linejoin:round;stroke-miterlimit:4;stroke-dasharray:none;stroke-opacity:1;visibility:visible"/><path d="m656.742 566.83.864-24.039" style="fill:none;stroke:#00ff4a;stroke-width:1.99999;stroke-linecap:round;stroke-linejoin:round;stroke-miterlimit:4;stroke-dasharray:none;stroke-opacity:1;visibility:visible"/><path d="m676.476 465.374-3.879 100.948M672.597 566.322l-6.585 4.281-9.295-2.96" style="fill:none;stroke:#00ff4a;stroke-width:.999997;stroke-linecap:round;stroke-linejoin:round;stroke-miterlimit:4;stroke-dasharray:none;stroke-opacity:1;visibility:visible"/><path d="m659.254 496.02.916-24.765M660.308 525.48l-27.152 14.272M632.509 555.54l31.588-16.983" style="fill:none;stroke:#00ff4a;stroke-width:1.99999;stroke-linecap:round;stroke-linejoin:round;stroke-miterlimit:4;stroke-dasharray:none;stroke-opacity:1;visibility:visible"/><path d="m664.466 538.426.615-11.817-4.287-1.296M633.255 543.339l31.824-16.73" style="fill:none;stroke:#00ff4a;stroke-width:.999997;stroke-linecap:round;stroke-linejoin:round;stroke-miterlimit:4;stroke-dasharray:none;stroke-opacity:1;visibility:visible"/><path d="m661.592 495.582-27.392 13.99M633.754 525.214l31.57-16.295" style="fill:none;stroke:#00ff4a;stroke-width:1.99999;stroke-linecap:round;stroke-linejoin:round;stroke-miterlimit:4;stroke-dasharray:none;stroke-opacity:1;visibility:visible"/><path d="m665.725 508.78.372-12.032-4.057-1.317M634.004 513.11l31.833-16.253" style="fill:none;stroke:#00ff4a;stroke-width:.999997;stroke-linecap:round;stroke-linejoin:round;stroke-miterlimit:4;stroke-dasharray:none;stroke-opacity:1;visibility:visible"/><path d="m658.653 513.458-.417 12.565" style="fill:none;stroke:#00ff4a;stroke-width:1.99999;stroke-linecap:round;stroke-linejoin:round;stroke-miterlimit:4;stroke-dasharray:none;stroke-opacity:1;visibility:visible"/><path d="m669.92 467.68-3.91 102.922" style="fill:none;stroke:#00ff4a;stroke-width:.999997;stroke-linecap:round;stroke-linejoin:round;stroke-miterlimit:4;stroke-dasharray:none;stroke-opacity:1;visibility:visible"/><path d="m525.58 487.412.467-37.67M524.764 553.665l.42-34.223M509.275 525.08l-.268 28.836M509.953 453.073l-.373 39.727" style="fill:none;stroke:#00ff4a;stroke-width:1.99999;stroke-linecap:round;stroke-linejoin:round;stroke-miterlimit:4;stroke-dasharray:none;stroke-opacity:1;visibility:visible"/><path d="m508.995 554.849 7.739 3.33 8.02-3.773M517.104 522.266l-.37 35.913M517.847 451.28l-.408 38.95" style="fill:none;stroke:#00ff4a;stroke-width:.999997;stroke-linecap:round;stroke-linejoin:round;stroke-miterlimit:4;stroke-dasharray:none;stroke-opacity:1;visibility:visible"/><path d="m558.595 530.721.395-24.385" style="fill:none;stroke:#00ff4a;stroke-width:1.99999;stroke-linecap:round;stroke-linejoin:round;stroke-miterlimit:4;stroke-dasharray:none;stroke-opacity:1;visibility:visible"/><path d="m574.648 501.506-.612 29.47M575.437 463.58l-.137 6.663M574.026 531.417l-7.7 3.581-7.745-3.197" style="fill:none;stroke:#00ff4a;stroke-width:.999997;stroke-linecap:round;stroke-linejoin:round;stroke-miterlimit:4;stroke-dasharray:none;stroke-opacity:1;visibility:visible"/><path d="m559.804 461.964.057-3.001M525.655 518.026l38.595-14.201M561.465 461.899l-35.268 12.413" style="fill:none;stroke:#00ff4a;stroke-width:1.99999;stroke-linecap:round;stroke-linejoin:round;stroke-miterlimit:4;stroke-dasharray:none;stroke-opacity:1;visibility:visible"/><path d="m565.235 474.743.24-11.675-3.485-1.321M526.196 476.98l38.975-13.803M566.92 504.837l-.595 30.16M567.784 461.018l-.237 12.032" style="fill:none;stroke:#00ff4a;stroke-width:.999997;stroke-linecap:round;stroke-linejoin:round;stroke-miterlimit:4;stroke-dasharray:none;stroke-opacity:1;visibility:visible"/><path d="m565.764 414.206 13.4 3.572v3.161l81.314 21.678" style="fill:none;stroke:#00ff4a;stroke-width:.999997;stroke-linecap:round;stroke-linejoin:round;stroke-miterlimit:2;stroke-dasharray:none;stroke-opacity:1;visibility:visible"/><path d="m245.676 487.383 320.086-73.177M244.674 514.348l-75.96 18.07-13.26-4.71-1.25-19.41 77.35-17.686M286.648 504.362l-32.297 7.683M522.583 448.237 319.112 496.64M680.78 462.473 326.549 588.726l-15.084-5.381-.433-20.419 356.124-121.8" style="fill:none;stroke:#00ff4a;stroke-width:1.99999;stroke-linecap:round;stroke-linejoin:round;stroke-miterlimit:2;stroke-dasharray:none;stroke-opacity:1;visibility:visible"/><path d="m667.159 441.126 14.364 3.699-.74 17.648M155.025 508.452l12.825 4.457 1.011 19.047M247.114 494.54l331.944-76.694M168.058 512.805l67.452-15.584M311.416 562.993l14.895 5.17.43 20.291M326.31 568.164l355.022-123.097M578.922 420.836l-7.921 1.877-.647 10.03M571.578 422.982l82.512 22.036" style="fill:none;stroke:#00ff4a;stroke-width:.999997;stroke-linecap:round;stroke-linejoin:round;stroke-miterlimit:2;stroke-dasharray:none;stroke-opacity:1;visibility:visible"/><path d="m617.745 457.453-89.57-24.687M591.942 466.369l-72.194-20.15" style="fill:none;stroke:#00ff4a;stroke-width:1.99999;stroke-linecap:round;stroke-linejoin:round;stroke-miterlimit:2;stroke-dasharray:none;stroke-opacity:1;visibility:visible"/><path d="m527.966 432.767-8.264 1.873-.593 10.974M519.942 434.736l90.93 25.18" style="fill:none;stroke:#00ff4a;stroke-width:.999997;stroke-linecap:round;stroke-linejoin:round;stroke-miterlimit:2;stroke-dasharray:none;stroke-opacity:1;visibility:visible"/><path d="m593.48 437.447-22.635 6.356M551.97 438.526l31.904-8.685" style="fill:none;stroke:#00ff4a;stroke-width:1.99999;stroke-linecap:round;stroke-linejoin:round;stroke-miterlimit:2;stroke-dasharray:none;stroke-opacity:1;visibility:visible"/><path d="m584.823 429.642 9.72 2.592-.28 4.967M561.847 441.31l32.143-8.853" style="fill:none;stroke:#00ff4a;stroke-width:.999997;stroke-linecap:round;stroke-linejoin:round;stroke-miterlimit:2;stroke-dasharray:none;stroke-opacity:1;visibility:visible"/><path d="m618.347 444.258-22.96 6.556M576.338 445.645l32.479-9.144" style="fill:none;stroke:#00ff4a;stroke-width:1.99999;stroke-linecap:round;stroke-linejoin:round;stroke-miterlimit:2;stroke-dasharray:none;stroke-opacity:1;visibility:visible"/><path d="m609.764 436.263 9.863 2.679-.432 5.028M586.532 448.392l32.43-9.263" style="fill:none;stroke:#00ff4a;stroke-width:.999997;stroke-linecap:round;stroke-linejoin:round;stroke-miterlimit:2;stroke-dasharray:none;stroke-opacity:1;visibility:visible"/><path d="m601.958 452.466 32.092-9.208" style="fill:none;stroke:#00ff4a;stroke-width:1.99999;stroke-linecap:round;stroke-linejoin:round;stroke-miterlimit:2;stroke-dasharray:none;stroke-opacity:1;visibility:visible"/><path d="m634.92 443.049 10.163 2.707-.219 2.386M612.43 455.253l31.712-9.225" style="fill:none;stroke:#00ff4a;stroke-width:.999997;stroke-linecap:round;stroke-linejoin:round;stroke-miterlimit:2;stroke-dasharray:none;stroke-opacity:1;visibility:visible"/><path d="m589.497 439.043 4.463 1.217M614.315 445.783l4.95 1.316" style="fill:none;stroke:#00ff4a;stroke-width:1.99999;stroke-linecap:round;stroke-linejoin:round;stroke-miterlimit:2;stroke-dasharray:none;stroke-opacity:1;visibility:visible"/><path d="M579.685 428.986c.2.75-.073 1.496-.605 1.654-.535.166-1.133-.317-1.33-1.069-.204-.751.066-1.497.604-1.657.535-.164 1.133.318 1.331 1.072" style="fill:none;stroke:#00ff4a;stroke-width:.666665;stroke-linecap:round;stroke-linejoin:round;stroke-miterlimit:2;stroke-dasharray:none;stroke-opacity:1;visibility:visible"/><path d="M286.718 504.986c0 .033 0 .066-.003.1l-.005.068M286.71 505.154l-.004.054c0 .03 0 .066.003.096a.915.915 0 0 0 .016.1l.017.099.035.096.037.088M286.798 504.54c-.004.02-.048.207-.048.227l-.03.117-.002.07v.03M286.951 504.187c-.02.027-.03.055-.041.083-.017.03-.028.06-.041.094a1.715 1.715 0 0 0-.071.186" style="fill:none;stroke:#00ff4a;stroke-width:.666665;stroke-linecap:round;stroke-linejoin:round;stroke-miterlimit:4;stroke-dasharray:none;stroke-opacity:1;visibility:visible"/><path d="M286.798 504.55s0 .002-.004.005M286.952 504.185h0M287.257 503.922a.21.21 0 0 0-.24.14M287.018 504.063a.612.612 0 0 1-.07.124M286.793 504.552c0-.002 0-.004.002-.006M286.794 504.545l.004.004M286.793 504.552l.002.002" style="fill:none;stroke:#00ff4a;stroke-width:.666665;stroke-linecap:round;stroke-linejoin:round;stroke-miterlimit:4;stroke-dasharray:none;stroke-opacity:1;visibility:visible"/><path d="m545.937 416.848.519-32.07s.353-4.376 5.399-2.356l159.89 42.874-8.957 194.22s-.382 4.176-5.726 2.279l-44.486-15.92M545.316 455.42l-.203 11.567M544.372 512.54l-.319 22.723" style="fill:none;stroke:#00ff4a;stroke-width:1.99999;stroke-linecap:round;stroke-linejoin:round;stroke-miterlimit:4;stroke-dasharray:none;stroke-opacity:1;visibility:visible"/><path d="m547.564 385.281 158.262 42.715-8.764 193.796M705.998 428.112s2.3-2.184 5.75-2.816" style="fill:none;stroke:#00ff4a;stroke-width:.999997;stroke-linecap:round;stroke-linejoin:round;stroke-miterlimit:4;stroke-dasharray:none;stroke-opacity:1;visibility:visible"/><path d="m615.567 558.514 19.369-2.327M656.717 567.643l-.285-3.725M573.621 550.34l1.624-19.04M605.892 555.01l8.29-6.283" style="fill:none;stroke:#00ff4a;stroke-width:.999997;stroke-linecap:round;stroke-linejoin:round;stroke-miterlimit:2;stroke-dasharray:none;stroke-opacity:1;visibility:visible"/><path d="m524.754 554.406 1.66-9.613M639.578 572.14l-7.396 8.873M609.87 588.881l3.352 4.389" style="fill:none;stroke:#00ff4a;stroke-width:1.99999;stroke-linecap:round;stroke-linejoin:round;stroke-miterlimit:2;stroke-dasharray:none;stroke-opacity:1;visibility:visible"/><path d="m640.911 574.943-8.014-12.901M656.717 567.643l-5.861.89M573.621 550.34l-4.768-11.444M605.892 555.01l8.329.283" style="fill:none;stroke:#00ff4a;stroke-width:.999997;stroke-linecap:round;stroke-linejoin:round;stroke-miterlimit:2;stroke-dasharray:none;stroke-opacity:1;visibility:visible"/><path d="m614.603 594.934-.711-4.266M614.603 594.934l-15.99 7.074" style="fill:none;stroke:#00ff4a;stroke-width:1.99999;stroke-linecap:round;stroke-linejoin:round;stroke-miterlimit:2;stroke-dasharray:none;stroke-opacity:1;visibility:visible"/><path d="m526.414 544.793.576 13.386M614.603 594.934l-6.382.634M573.621 550.34l8.465-3.996" style="fill:none;stroke:#00ff4a;stroke-width:.999997;stroke-linecap:round;stroke-linejoin:round;stroke-miterlimit:2;stroke-dasharray:none;stroke-opacity:1;visibility:visible"/><path d="m632.196 571.742-17.231-8.35M604.97 587.007l8.74-.287M613.222 593.27l-3.352-4.389M639.717 567.525l-7.515 8.771M613.903 581.998l-18.639 1.262M609.87 588.881l4.83-16.456" style="fill:none;stroke:#00ff4a;stroke-width:1.99999;stroke-linecap:round;stroke-linejoin:round;stroke-miterlimit:2;stroke-dasharray:none;stroke-opacity:1;visibility:visible"/><path d="m640.911 574.943-8.651-10.35M639.578 572.14l-7.382-.398M632.202 576.296l7.515-8.771M613.71 586.72l-8.74.287M609.87 588.881l4.033-6.883" style="fill:none;stroke:#00ff4a;stroke-width:.999997;stroke-linecap:round;stroke-linejoin:round;stroke-miterlimit:2;stroke-dasharray:none;stroke-opacity:1;visibility:visible"/><path d="m582.086 546.344-8.465 3.997M573.621 550.34l15.899 5.803M605.892 555.01l-8.247 4.078M650.856 568.533l-13.165 5.237M632.26 564.593l8.651 10.35M526.99 558.179l15.903 5.478" style="fill:none;stroke:#00ff4a;stroke-width:1.99999;stroke-linecap:round;stroke-linejoin:round;stroke-miterlimit:2;stroke-dasharray:none;stroke-opacity:1;visibility:visible"/><path d="m664.466 538.426-6.86 4.365" style="fill:none;stroke:#00ff4a;stroke-width:1.99999;stroke-linecap:round;stroke-linejoin:round;stroke-miterlimit:4;stroke-dasharray:none;stroke-opacity:1;visibility:visible"/><path d="m680.783 462.473-4.307 2.901" style="fill:none;stroke:#00ff4a;stroke-width:.999997;stroke-linecap:round;stroke-linejoin:round;stroke-miterlimit:4;stroke-dasharray:none;stroke-opacity:1;visibility:visible"/><path d="m658.653 513.458.601-17.438M639.717 567.525l-7.208-11.985M665.725 508.78l-7.072 4.678M657.606 542.791l.63-16.768" style="fill:none;stroke:#00ff4a;stroke-width:1.99999;stroke-linecap:round;stroke-linejoin:round;stroke-miterlimit:4;stroke-dasharray:none;stroke-opacity:1;visibility:visible"/><path d="m680.783 462.473-10.863 5.207" style="fill:none;stroke:#00ff4a;stroke-width:.999997;stroke-linecap:round;stroke-linejoin:round;stroke-miterlimit:4;stroke-dasharray:none;stroke-opacity:1;visibility:visible"/><path d="m519.109 445.614 6.938 4.129M519.109 445.614l-9.156 7.459" style="fill:none;stroke:#00ff4a;stroke-width:1.99999;stroke-linecap:round;stroke-linejoin:round;stroke-miterlimit:4;stroke-dasharray:none;stroke-opacity:1;visibility:visible"/><path d="m519.109 445.614-1.262 5.666M567.547 473.05l7.89-9.47M567.784 461.018l7.516 9.225" style="fill:none;stroke:#00ff4a;stroke-width:.999997;stroke-linecap:round;stroke-linejoin:round;stroke-miterlimit:4;stroke-dasharray:none;stroke-opacity:1;visibility:visible"/><path d="m567.784 461.018-7.98.946M567.547 473.05l-7.686-14.087" style="fill:none;stroke:#00ff4a;stroke-width:1.99999;stroke-linecap:round;stroke-linejoin:round;stroke-miterlimit:4;stroke-dasharray:none;stroke-opacity:1;visibility:visible"/><path d="m567.784 461.018-2.549 13.725M559.804 461.964l7.98-.946M575.437 463.58l-7.89 9.47" style="fill:none;stroke:#00ff4a;stroke-width:.999997;stroke-linecap:round;stroke-linejoin:round;stroke-miterlimit:4;stroke-dasharray:none;stroke-opacity:1;visibility:visible"/><path d="m667.159 441.126-6.68 1.49" style="fill:none;stroke:#00ff4a;stroke-width:.999997;stroke-linecap:round;stroke-linejoin:round;stroke-miterlimit:2;stroke-dasharray:none;stroke-opacity:1;visibility:visible"/><path d="m235.51 497.221 10.166-9.838M254.35 512.045l-9.676 2.303M245.676 487.383l-14.122 3.23M244.674 514.348l9.677-2.303" style="fill:none;stroke:#00ff4a;stroke-width:1.99999;stroke-linecap:round;stroke-linejoin:round;stroke-miterlimit:2;stroke-dasharray:none;stroke-opacity:1;visibility:visible"/><path d="m235.51 497.221 11.604-2.681M247.114 494.54l-11.604 2.681M667.159 441.126l-13.07 3.892" style="fill:none;stroke:#00ff4a;stroke-width:.999997;stroke-linecap:round;stroke-linejoin:round;stroke-miterlimit:2;stroke-dasharray:none;stroke-opacity:1;visibility:visible"/><path d="m614.315 445.783 3.43 11.67" style="fill:none;stroke:#00ff4a;stroke-width:1.99999;stroke-linecap:round;stroke-linejoin:round;stroke-miterlimit:2;stroke-dasharray:none;stroke-opacity:1;visibility:visible"/><path d="m614.315 445.783-3.444 14.133" style="fill:none;stroke:#00ff4a;stroke-width:.999997;stroke-linecap:round;stroke-linejoin:round;stroke-miterlimit:2;stroke-dasharray:none;stroke-opacity:1;visibility:visible"/><path d="m583.874 429.84-13.029 13.963" style="fill:none;stroke:#00ff4a;stroke-width:1.99999;stroke-linecap:round;stroke-linejoin:round;stroke-miterlimit:2;stroke-dasharray:none;stroke-opacity:1;visibility:visible"/><path d="m586.532 448.392 7.458-15.935" style="fill:none;stroke:#00ff4a;stroke-width:.999997;stroke-linecap:round;stroke-linejoin:round;stroke-miterlimit:2;stroke-dasharray:none;stroke-opacity:1;visibility:visible"/><path d="m593.48 437.447 1.907 13.367M583.874 429.84l-7.536 15.805" style="fill:none;stroke:#00ff4a;stroke-width:1.99999;stroke-linecap:round;stroke-linejoin:round;stroke-miterlimit:2;stroke-dasharray:none;stroke-opacity:1;visibility:visible"/><path d="m593.48 437.447-6.948 10.945M612.43 455.253l6.533-16.124" style="fill:none;stroke:#00ff4a;stroke-width:.999997;stroke-linecap:round;stroke-linejoin:round;stroke-miterlimit:2;stroke-dasharray:none;stroke-opacity:1;visibility:visible"/><path d="m593.48 437.447 8.478 15.019" style="fill:none;stroke:#00ff4a;stroke-width:1.99999;stroke-linecap:round;stroke-linejoin:round;stroke-miterlimit:2;stroke-dasharray:none;stroke-opacity:1;visibility:visible"/><path d="m618.347 444.258-5.917 10.995" style="fill:none;stroke:#00ff4a;stroke-width:.999997;stroke-linecap:round;stroke-linejoin:round;stroke-miterlimit:2;stroke-dasharray:none;stroke-opacity:1;visibility:visible"/><path d="m584.823 429.642 9.137 10.618M617.745 457.453l-3.43-11.67M609.764 436.263l9.5 10.836" style="fill:none;stroke:#00ff4a;stroke-width:1.99999;stroke-linecap:round;stroke-linejoin:round;stroke-miterlimit:2;stroke-dasharray:none;stroke-opacity:1;visibility:visible"/><path d="m559.804 461.964-14.488-6.544M559.861 458.963l-14.748 8.024" style="fill:none;stroke:#00ff4a;stroke-width:1.99999;stroke-linecap:round;stroke-linejoin:round;stroke-miterlimit:4;stroke-dasharray:none;stroke-opacity:1;visibility:visible"/><path d="m573.621 550.34 3.422-18.421M573.621 550.34l2.756-15.246" style="fill:none;stroke:#00ff4a;stroke-width:.999997;stroke-linecap:round;stroke-linejoin:round;stroke-miterlimit:2;stroke-dasharray:none;stroke-opacity:1;visibility:visible"/><path d="m542.893 563.657-14.8-5.07M597.645 559.088l-6.942-4.308M573.621 550.34l7.465-3.47" style="fill:none;stroke:#00ff4a;stroke-width:1.99999;stroke-linecap:round;stroke-linejoin:round;stroke-miterlimit:2;stroke-dasharray:none;stroke-opacity:1;visibility:visible"/><path d="m597.645 559.088-6.44-9.091" style="fill:none;stroke:#00ff4a;stroke-width:.999997;stroke-linecap:round;stroke-linejoin:round;stroke-miterlimit:2;stroke-dasharray:none;stroke-opacity:1;visibility:visible"/><path d="m568.853 538.896 8.377 8.344" style="fill:none;stroke:#00ff4a;stroke-width:.666665;stroke-linecap:round;stroke-linejoin:round;stroke-miterlimit:2;stroke-dasharray:none;stroke-opacity:1;visibility:visible"/><path d="m573.621 550.34-1.94-.292" style="fill:none;stroke:#00ff4a;stroke-width:1.99999;stroke-linecap:round;stroke-linejoin:round;stroke-miterlimit:2;stroke-dasharray:none;stroke-opacity:1;visibility:visible"/><path d="m657.606 542.791 7.473-16.183M526.414 544.793l-9.68 13.386" style="fill:none;stroke:#00ff4a;stroke-width:.999997;stroke-linecap:round;stroke-linejoin:round;stroke-miterlimit:4;stroke-dasharray:none;stroke-opacity:1;visibility:visible"/><path d="m575.245 531.3-16.65-.579" style="fill:none;stroke:#00ff4a;stroke-width:1.99999;stroke-linecap:round;stroke-linejoin:round;stroke-miterlimit:4;stroke-dasharray:none;stroke-opacity:1;visibility:visible"/><path d="m575.245 531.3-8.92 3.697" style="fill:none;stroke:#00ff4a;stroke-width:.999997;stroke-linecap:round;stroke-linejoin:round;stroke-miterlimit:4;stroke-dasharray:none;stroke-opacity:1;visibility:visible"/><path d="m654.09 445.018-9.948 1.01" style="fill:none;stroke:#00ff4a;stroke-width:.999997;stroke-linecap:round;stroke-linejoin:round;stroke-miterlimit:2;stroke-dasharray:none;stroke-opacity:1;visibility:visible"/></svg>