<svg xmlns="http://www.w3.org/2000/svg" baseProfile="full" height="1122.52" preserveAspectRatio="xMinYMin meet" style="width:919px;height:1159px" width="793.701" xml:space="preserve"><path d="M523.575 953.49c0 .153-.396.278-.886.278-.489 0-.884-.125-.884-.278" style="fill:none;stroke:red;stroke-width:.666665;stroke-linecap:round;stroke-linejoin:round;stroke-miterlimit:2;stroke-dasharray:none;stroke-opacity:1;visibility:visible"/><path d="m414.895 929.4 14.956 3.598 2.336-.848 93.57 22.228" style="fill:none;stroke:red;stroke-width:.999997;stroke-linecap:round;stroke-linejoin:round;stroke-miterlimit:2;stroke-dasharray:none;stroke-opacity:1;visibility:visible"/><path d="m434.352 842.589-3.99-46.812-1.21-14.185-33.57-393.69-15.368-1.367-12.799 1.243 32.673 372.707 1.576 17.997 6.382 72.748M411.728 893.257l3.167 36.143" style="fill:none;stroke:red;stroke-width:1.99999;stroke-linecap:round;stroke-linejoin:round;stroke-miterlimit:2;stroke-dasharray:none;stroke-opacity:1;visibility:visible"/><path d="m553.916 955.298-11.496 4.537-15.885-3.795" style="fill:none;stroke:red;stroke-width:.999997;stroke-linecap:round;stroke-linejoin:round;stroke-miterlimit:2;stroke-dasharray:none;stroke-opacity:1;visibility:visible"/><path d="m526.535 956.038 19.744-553.03 12.333-1.225 16.833 1.391-21.53 552.122" style="fill:none;stroke:red;stroke-width:1.99999;stroke-linecap:round;stroke-linejoin:round;stroke-miterlimit:2;stroke-dasharray:none;stroke-opacity:1;visibility:visible"/><path d="m563.388 404.562-20.97 554.94M546.279 403.007l17.11 1.556 12.056-1.39M382.866 389.103l32.984 381.822 1.264 14.613 7.086 82.039M427.008 900.071 429.851 933M367.415 387.778l15.45 1.325 12.718-1.2" style="fill:none;stroke:red;stroke-width:.999997;stroke-linecap:round;stroke-linejoin:round;stroke-miterlimit:2;stroke-dasharray:none;stroke-opacity:1;visibility:visible"/><path d="m634.074 923.944 66.842-534.02-16.376-1.376-10.876 1.167-55.46 450.372" style="fill:none;stroke:red;stroke-width:1.99999;stroke-linecap:round;stroke-linejoin:round;stroke-miterlimit:2;stroke-dasharray:none;stroke-opacity:1;visibility:visible"/><path d="m555.25 941.422 66.286-25.372M526.413 942.874l-94.749-22.23M690.165 391.132 623.23 928.108M554.499 953.131l65.874-25.653 2.857.63 10.844-4.164" style="fill:none;stroke:red;stroke-width:.999997;stroke-linecap:round;stroke-linejoin:round;stroke-miterlimit:2;stroke-dasharray:none;stroke-opacity:1;visibility:visible"/><path d="m498.665 816.485 1.668-440.532 11-1 15.055 1.222-1.903 438.445M524.404 833.48l-.116 26.892" style="fill:none;stroke:red;stroke-width:1.99999;stroke-linecap:round;stroke-linejoin:round;stroke-miterlimit:2;stroke-dasharray:none;stroke-opacity:1;visibility:visible"/><path d="m612.416 912.798 9.541 2.917-1.375 11.583M438.359 916.978l-7.444 3.361 1.055 11.667M515.333 377.453l-.59 137.91M514.716 521.226l-1.456 339.106M500.333 375.953l15 1.277 11.055-1.055" style="fill:none;stroke:red;stroke-width:.999997;stroke-linecap:round;stroke-linejoin:round;stroke-miterlimit:2;stroke-dasharray:none;stroke-opacity:1;visibility:visible"/><path d="m434.768 837.18 65.462-20.34" style="fill:none;stroke:red;stroke-width:1.99999;stroke-linecap:round;stroke-linejoin:round;stroke-miterlimit:2;stroke-dasharray:none;stroke-opacity:1;visibility:visible"/><path d="m434.768 841.374 75.205-23.632" style="fill:none;stroke:red;stroke-width:.999997;stroke-linecap:round;stroke-linejoin:round;stroke-miterlimit:2;stroke-dasharray:none;stroke-opacity:1;visibility:visible"/><path d="m453.074 847.646 56.509-17.973" style="fill:none;stroke:red;stroke-width:1.99999;stroke-linecap:round;stroke-linejoin:round;stroke-miterlimit:2;stroke-dasharray:none;stroke-opacity:1;visibility:visible"/><path d="m501.537 816.475 9.224 1.07-.085 11.641" style="fill:none;stroke:red;stroke-width:.999997;stroke-linecap:round;stroke-linejoin:round;stroke-miterlimit:2;stroke-dasharray:none;stroke-opacity:1;visibility:visible"/><path d="m484.165 838.173.667 15.75M498.583 833.922l-.084 22.959" style="fill:none;stroke:red;stroke-width:1.99999;stroke-linecap:round;stroke-linejoin:round;stroke-miterlimit:2;stroke-dasharray:none;stroke-opacity:1;visibility:visible"/><path d="m476.11 841.006.388 11.444" style="fill:none;stroke:red;stroke-width:.999997;stroke-linecap:round;stroke-linejoin:round;stroke-miterlimit:2;stroke-dasharray:none;stroke-opacity:1;visibility:visible"/><path d="m432.972 843.783 2.322.494 8.08 1.718 72.07 15.331 7.524 1.6 5.921 1.26M463.75 844.643l.138 5.195M471.888 842.033l.362 9.612" style="fill:none;stroke:red;stroke-width:1.99999;stroke-linecap:round;stroke-linejoin:round;stroke-miterlimit:2;stroke-dasharray:none;stroke-opacity:1;visibility:visible"/><path d="m425.362 847.227 10.276 2.204 7.748 1.662 72.38 15.524 7.237 1.553 5.664 1.213" style="fill:none;stroke:red;stroke-width:.999997;stroke-linecap:round;stroke-linejoin:round;stroke-miterlimit:2;stroke-dasharray:none;stroke-opacity:1;visibility:visible"/><path d="m426.806 858.867 9.154 1.99 7.24 1.573 73.167 15.91 7.125 1.55 4.641 1.007" style="fill:none;stroke:red;stroke-width:1.99999;stroke-linecap:round;stroke-linejoin:round;stroke-miterlimit:2;stroke-dasharray:none;stroke-opacity:1;visibility:visible"/><path d="m431.959 843.673-7.333 3.041 1.04 11.75" style="fill:none;stroke:red;stroke-width:.999997;stroke-linecap:round;stroke-linejoin:round;stroke-miterlimit:2;stroke-dasharray:none;stroke-opacity:1;visibility:visible"/><path d="m461.208 867.34 1.542 55.457M446.708 864.38l1.708 57.543M523.665 936.84l3.126.75M491.832 929.34l10.333 2.5M463.999 922.84l10.708 2.582M444.635 918.403l3.03.728M435.999 862.34l.75 8.637" style="fill:none;stroke:red;stroke-width:1.99999;stroke-linecap:round;stroke-linejoin:round;stroke-miterlimit:2;stroke-dasharray:none;stroke-opacity:1;visibility:visible"/><path d="m457.666 866.34 1.708 58.624" style="fill:none;stroke:red;stroke-width:.999997;stroke-linecap:round;stroke-linejoin:round;stroke-miterlimit:2;stroke-dasharray:none;stroke-opacity:1;visibility:visible"/><path d="m474.25 870.131 1.54 57.75" style="fill:none;stroke:red;stroke-width:1.99999;stroke-linecap:round;stroke-linejoin:round;stroke-miterlimit:2;stroke-dasharray:none;stroke-opacity:1;visibility:visible"/><path d="m485.375 872.798 1.541 58.625" style="fill:none;stroke:red;stroke-width:.999997;stroke-linecap:round;stroke-linejoin:round;stroke-miterlimit:2;stroke-dasharray:none;stroke-opacity:1;visibility:visible"/><path d="m502.263 876.169 1.404 58.253M488.875 873.506l1.415 55.833" style="fill:none;stroke:red;stroke-width:1.99999;stroke-linecap:round;stroke-linejoin:round;stroke-miterlimit:2;stroke-dasharray:none;stroke-opacity:1;visibility:visible"/><path d="m513.585 878.587.267 11.486M514.643 924.231l.313 13.65" style="fill:none;stroke:red;stroke-width:.999997;stroke-linecap:round;stroke-linejoin:round;stroke-miterlimit:2;stroke-dasharray:none;stroke-opacity:1;visibility:visible"/><path d="m490.473 908.98 11.78-4.224M463.25 918.631l11.207-3.958" style="fill:none;stroke:red;stroke-width:1.99999;stroke-linecap:round;stroke-linejoin:round;stroke-miterlimit:2;stroke-dasharray:none;stroke-opacity:1;visibility:visible"/><path d="m490.381 897.337 11.36-3.94M462.856 906.954l12-4.221" style="fill:none;stroke:red;stroke-width:.999997;stroke-linecap:round;stroke-linejoin:round;stroke-miterlimit:2;stroke-dasharray:none;stroke-opacity:1;visibility:visible"/><path d="m498.444 875.56-.059 13.77M490.59 892.6l10.27-3.561M466.723 900.923l6.893-2.422M464.626 867.922l1.437 35.55" style="fill:none;stroke:red;stroke-width:1.99999;stroke-linecap:round;stroke-linejoin:round;stroke-miterlimit:2;stroke-dasharray:none;stroke-opacity:1;visibility:visible"/><path d="m528.416 893.007-7.139-1.612" style="fill:none;stroke:red;stroke-width:.999997;stroke-linecap:round;stroke-linejoin:round;stroke-miterlimit:2;stroke-dasharray:none;stroke-opacity:1;visibility:visible"/><path d="m523.97 880.907-.081 7.295M528.025 889.785l-5.5-1.195" style="fill:none;stroke:red;stroke-width:1.99999;stroke-linecap:round;stroke-linejoin:round;stroke-miterlimit:2;stroke-dasharray:none;stroke-opacity:1;visibility:visible"/><path d="m503.79 935.922 11.128 2.638 3.247-1.554M476.041 929.464l10.875 2.5 3.334-1.5M448.542 922.965l10.833 2.583 3.25-1.5M516.232 817.86l14.5 2.876M523.11 816.227l6.668 1.334" style="fill:none;stroke:red;stroke-width:.999997;stroke-linecap:round;stroke-linejoin:round;stroke-miterlimit:2;stroke-dasharray:none;stroke-opacity:1;visibility:visible"/><path d="m559.11 861.117 60.597-20.778" style="fill:none;stroke:red;stroke-width:1.99999;stroke-linecap:round;stroke-linejoin:round;stroke-miterlimit:2;stroke-dasharray:none;stroke-opacity:1;visibility:visible"/><path d="m559.839 867.278 70.66-24.397" style="fill:none;stroke:red;stroke-width:.999997;stroke-linecap:round;stroke-linejoin:round;stroke-miterlimit:2;stroke-dasharray:none;stroke-opacity:1;visibility:visible"/><path d="M557.625 879.777 628 854.965" style="fill:none;stroke:red;stroke-width:1.99999;stroke-linecap:round;stroke-linejoin:round;stroke-miterlimit:2;stroke-dasharray:none;stroke-opacity:1;visibility:visible"/><path d="m621.374 839.798 9.75 2.75-1.458 11.626" style="fill:none;stroke:red;stroke-width:.999997;stroke-linecap:round;stroke-linejoin:round;stroke-miterlimit:2;stroke-dasharray:none;stroke-opacity:1;visibility:visible"/><path d="m590.667 869.34-4.447 54.442M615.554 861.56l-6.336 51.39" style="fill:none;stroke:red;stroke-width:1.99999;stroke-linecap:round;stroke-linejoin:round;stroke-miterlimit:2;stroke-dasharray:none;stroke-opacity:1;visibility:visible"/><path d="m595.499 867.478-4.783 57.49" style="fill:none;stroke:red;stroke-width:.999997;stroke-linecap:round;stroke-linejoin:round;stroke-miterlimit:2;stroke-dasharray:none;stroke-opacity:1;visibility:visible"/><path d="m583.499 871.423-4.711 57.237M603.388 864.951l-4.72 56.515" style="fill:none;stroke:red;stroke-width:1.99999;stroke-linecap:round;stroke-linejoin:round;stroke-miterlimit:2;stroke-dasharray:none;stroke-opacity:1;visibility:visible"/><path d="m575.395 874.214-4.751 58.656" style="fill:none;stroke:red;stroke-width:.999997;stroke-linecap:round;stroke-linejoin:round;stroke-miterlimit:2;stroke-dasharray:none;stroke-opacity:1;visibility:visible"/><path d="m560.332 823.673 57.001 11.444M570.625 875.734l-4.425 54.77" style="fill:none;stroke:red;stroke-width:1.99999;stroke-linecap:round;stroke-linejoin:round;stroke-miterlimit:2;stroke-dasharray:none;stroke-opacity:1;visibility:visible"/><path d="m560.292 826.631 57.25 11.5" style="fill:none;stroke:red;stroke-width:.999997;stroke-linecap:round;stroke-linejoin:round;stroke-miterlimit:2;stroke-dasharray:none;stroke-opacity:1;visibility:visible"/><path d="m590.083 845.214-.306 5.013M516.503 829.637l12.221 2.472M559.468 838.33l40.407 8.176" style="fill:none;stroke:red;stroke-width:1.99999;stroke-linecap:round;stroke-linejoin:round;stroke-miterlimit:2;stroke-dasharray:none;stroke-opacity:1;visibility:visible"/><path d="m573.555 841.769-.806 14.028" style="fill:none;stroke:red;stroke-width:.999997;stroke-linecap:round;stroke-linejoin:round;stroke-miterlimit:2;stroke-dasharray:none;stroke-opacity:1;visibility:visible"/><path d="m560.208 879.465-1.181 18.542M562.612 840.118l-1.11 19.333M576.583 842.798l-.708 11.541" style="fill:none;stroke:red;stroke-width:1.99999;stroke-linecap:round;stroke-linejoin:round;stroke-miterlimit:2;stroke-dasharray:none;stroke-opacity:1;visibility:visible"/><path d="m556.812 899.254 11.098 2.444M521.77 816.214l-6.382 1.241" style="fill:none;stroke:red;stroke-width:.999997;stroke-linecap:round;stroke-linejoin:round;stroke-miterlimit:2;stroke-dasharray:none;stroke-opacity:1;visibility:visible"/><path d="m556.712 911.131 9.913 2.223" style="fill:none;stroke:red;stroke-width:1.99999;stroke-linecap:round;stroke-linejoin:round;stroke-miterlimit:2;stroke-dasharray:none;stroke-opacity:1;visibility:visible"/><path d="m581.555 904.673 5.469 1.217" style="fill:none;stroke:red;stroke-width:.999997;stroke-linecap:round;stroke-linejoin:round;stroke-miterlimit:2;stroke-dasharray:none;stroke-opacity:1;visibility:visible"/><path d="m558.872 897.02 7.676 1.572M582.088 901.767l4.016.823M581.012 916.542l4.97 1.137" style="fill:none;stroke:red;stroke-width:1.99999;stroke-linecap:round;stroke-linejoin:round;stroke-miterlimit:2;stroke-dasharray:none;stroke-opacity:1;visibility:visible"/><path d="m600.604 908.925 7.84 1.748" style="fill:none;stroke:red;stroke-width:.999997;stroke-linecap:round;stroke-linejoin:round;stroke-miterlimit:2;stroke-dasharray:none;stroke-opacity:1;visibility:visible"/><path d="m599.852 917.489 11.038-4.15M580.112 925.063l5.19-2.073M555.647 934.243l9.688-3.572" style="fill:none;stroke:red;stroke-width:1.99999;stroke-linecap:round;stroke-linejoin:round;stroke-miterlimit:2;stroke-dasharray:none;stroke-opacity:1;visibility:visible"/><path d="m586.599 924.636 4.07 1.184 7.716-2.934M566.245 932.162l4.355 1.325 7.904-2.981" style="fill:none;stroke:red;stroke-width:.999997;stroke-linecap:round;stroke-linejoin:round;stroke-miterlimit:2;stroke-dasharray:none;stroke-opacity:1;visibility:visible"/><path d="m528.55 889.945.904-2.17" style="fill:none;stroke:red;stroke-width:.666665;stroke-linecap:round;stroke-linejoin:round;stroke-miterlimit:4;stroke-dasharray:none;stroke-opacity:1;visibility:visible"/><path d="M655.9 532.339s-6.918-1.299-12.862-.486c-1.256.172-1.128.428-1.128 1.124 0 .698 2.127 1.828 4.56 2.088 1.037.111 8.153.178 9.197-.52M408.128 532.783s6.916-1.298 12.862-.486c1.256.173 1.128.428 1.128 1.124 0 .699-3.383 2.112-4.428 2.112-1.046 0-8.286.154-9.33-.543" style="fill:none;stroke:red;stroke-width:.999997;stroke-linecap:round;stroke-linejoin:round;stroke-miterlimit:4;stroke-dasharray:none;stroke-opacity:1;visibility:visible"/><path d="M648.69 532.85c.296.472-.685.696-1.885.623-1.199-.073-2.152-.453-2.128-.848.024-.394 1.016-.654 2.213-.58 1.203.07 1.366.11 1.8.805M513.345 515.954s-1.662 1.873-2.301 3.152c-.177.36-.003.978.399 1.153 2.224.973 4.286.807 5.766 0 .356-.192.546-.703.342-1.275-.519-1.464-1.907-2.904-2.358-3.304M415.242 533.24c.217.62.781.75 1.98.676 1.201-.073 2.154-.452 2.128-.846-.024-.395-1.014-.553-2.214-.58-1.864-.05-2.076.233-1.894.75" style="fill:none;stroke:red;stroke-width:.999997;stroke-linecap:round;stroke-linejoin:round;stroke-miterlimit:4;stroke-dasharray:none;stroke-opacity:1;visibility:visible"/><path d="M515.95 518.583c0 .267-.71.752-1.579.752-.864 0-1.56-.485-1.56-.752-.001-.27.673-1.019 1.542-1.019.867 0 1.597.75 1.597 1.019" style="fill:none;stroke:red;stroke-width:.999997;stroke-linecap:round;stroke-linejoin:round;stroke-miterlimit:4;stroke-dasharray:none;stroke-opacity:1;visibility:visible"/><path d="M442.855 920.435c.01.205-.632.395-1.425.42-.795.027-1.444-.117-1.452-.321M522.367 939.028c.009.204-.632.394-1.427.42-.793.027-1.443-.117-1.45-.32M526.535 956.038l-2.96-2.548M526.535 956.038l-4.73-2.548" style="fill:none;stroke:red;stroke-width:.666665;stroke-linecap:round;stroke-linejoin:round;stroke-miterlimit:2;stroke-dasharray:none;stroke-opacity:1;visibility:visible"/><path d="m526.535 956.04-.778-1.662" style="fill:none;stroke:red;stroke-width:.999997;stroke-linecap:round;stroke-linejoin:round;stroke-miterlimit:2;stroke-dasharray:none;stroke-opacity:1;visibility:visible"/><path d="m435.999 862.34-1.647-19.751" style="fill:none;stroke:red;stroke-width:1.99999;stroke-linecap:round;stroke-linejoin:round;stroke-miterlimit:2;stroke-dasharray:none;stroke-opacity:1;visibility:visible"/><path d="m523.575 953.49 18.843 6.012M435.999 862.34l-11.799 5.237M439.978 920.534 429.851 933M553.916 955.298l1.334-13.876M523.665 936.84l2.748 6.034M447.665 919.131l-16.001 1.513M553.916 955.298l.583-2.167" style="fill:none;stroke:red;stroke-width:.999997;stroke-linecap:round;stroke-linejoin:round;stroke-miterlimit:2;stroke-dasharray:none;stroke-opacity:1;visibility:visible"/><path d="m498.583 833.922.082-17.437M524.404 833.48l.081-18.86M510.676 829.186l13.728 4.294" style="fill:none;stroke:red;stroke-width:1.99999;stroke-linecap:round;stroke-linejoin:round;stroke-miterlimit:2;stroke-dasharray:none;stroke-opacity:1;visibility:visible"/><path d="m608.444 910.673 3.972 2.125M439.978 920.534l-8.008 11.472M515.95 518.583l-1.234 2.643M513.585 878.587l-.325-18.255M498.583 833.922l12.093-4.736" style="fill:none;stroke:red;stroke-width:.999997;stroke-linecap:round;stroke-linejoin:round;stroke-miterlimit:2;stroke-dasharray:none;stroke-opacity:1;visibility:visible"/><path d="m476.498 852.45 7.667-14.277M476.11 841.006l8.722 12.917M510.676 829.186l-12.093 4.736M498.444 875.56l.055-18.679" style="fill:none;stroke:red;stroke-width:1.99999;stroke-linecap:round;stroke-linejoin:round;stroke-miterlimit:2;stroke-dasharray:none;stroke-opacity:1;visibility:visible"/><path d="m472.25 851.645 3.86-10.639M471.888 842.033l4.61 10.417" style="fill:none;stroke:red;stroke-width:.999997;stroke-linecap:round;stroke-linejoin:round;stroke-miterlimit:2;stroke-dasharray:none;stroke-opacity:1;visibility:visible"/><path d="m472.25 851.645-8.5-7.002M471.888 842.033l-8 7.805M463.888 849.838l8-7.805M463.75 844.643l8.5 7.002M522.525 888.59l5.608-7.693" style="fill:none;stroke:red;stroke-width:1.99999;stroke-linecap:round;stroke-linejoin:round;stroke-miterlimit:2;stroke-dasharray:none;stroke-opacity:1;visibility:visible"/><path d="m435.999 862.34-10.333-3.876" style="fill:none;stroke:red;stroke-width:.999997;stroke-linecap:round;stroke-linejoin:round;stroke-miterlimit:2;stroke-dasharray:none;stroke-opacity:1;visibility:visible"/><path d="m463.888 849.838-2.68 17.502M436.749 870.977l9.959-6.597M442.855 920.435l5.561 1.488M526.413 942.874l-2.748-6.034M526.535 956.04l.256-18.45M474.707 925.422l17.125 3.918M503.79 935.922l-1.625-4.082M447.665 919.131l16.334 3.709M476.041 929.464l-1.334-4.042M448.542 922.965l-.877-3.834M425.666 858.464l10.333 3.876M446.708 864.38l-9.959 6.597" style="fill:none;stroke:red;stroke-width:1.99999;stroke-linecap:round;stroke-linejoin:round;stroke-miterlimit:2;stroke-dasharray:none;stroke-opacity:1;visibility:visible"/><path d="m463.888 849.838-6.222 16.502M442.855 920.435l16.519 4.529" style="fill:none;stroke:red;stroke-width:.999997;stroke-linecap:round;stroke-linejoin:round;stroke-miterlimit:2;stroke-dasharray:none;stroke-opacity:1;visibility:visible"/><path d="m476.498 852.45-2.248 17.681" style="fill:none;stroke:red;stroke-width:1.99999;stroke-linecap:round;stroke-linejoin:round;stroke-miterlimit:2;stroke-dasharray:none;stroke-opacity:1;visibility:visible"/><path d="m484.832 853.923.543 18.875" style="fill:none;stroke:red;stroke-width:.999997;stroke-linecap:round;stroke-linejoin:round;stroke-miterlimit:2;stroke-dasharray:none;stroke-opacity:1;visibility:visible"/><path d="m498.385 889.33 3.878-13.161M514.643 924.231l-10.976 10.191M498.385 889.33l-9.51-15.824" style="fill:none;stroke:red;stroke-width:1.99999;stroke-linecap:round;stroke-linejoin:round;stroke-miterlimit:2;stroke-dasharray:none;stroke-opacity:1;visibility:visible"/><path d="m523.889 888.202-10.304-9.615M523.97 880.907l-10.118 9.166M503.667 934.422l10.976-10.191M519.49 939.128l-4.534-1.247" style="fill:none;stroke:red;stroke-width:.999997;stroke-linecap:round;stroke-linejoin:round;stroke-miterlimit:2;stroke-dasharray:none;stroke-opacity:1;visibility:visible"/><path d="m474.856 902.733 15.617 6.247M490.381 897.337l11.872 7.419M474.856 902.733l-11.606 15.898M462.856 906.954l11.601 7.719" style="fill:none;stroke:red;stroke-width:1.99999;stroke-linecap:round;stroke-linejoin:round;stroke-miterlimit:2;stroke-dasharray:none;stroke-opacity:1;visibility:visible"/><path d="m500.86 889.039-10.479 8.298M490.59 892.6l11.151.797M473.616 898.501l-10.76 8.453M466.723 900.923l8.133 1.81" style="fill:none;stroke:red;stroke-width:.999997;stroke-linecap:round;stroke-linejoin:round;stroke-miterlimit:2;stroke-dasharray:none;stroke-opacity:1;visibility:visible"/><path d="m498.499 856.881-.055 18.679M502.263 876.169l-3.878 13.161M501.741 893.397l-11.151-.797M490.381 897.337l10.479-8.298M474.856 902.733l-8.133-1.81M462.856 906.954l10.76-8.453M472.25 851.645l-7.624 16.277" style="fill:none;stroke:red;stroke-width:1.99999;stroke-linecap:round;stroke-linejoin:round;stroke-miterlimit:2;stroke-dasharray:none;stroke-opacity:1;visibility:visible"/><path d="m522.525 888.59 5.891 4.417M528.025 889.785l-6.748 1.61" style="fill:none;stroke:red;stroke-width:.999997;stroke-linecap:round;stroke-linejoin:round;stroke-miterlimit:2;stroke-dasharray:none;stroke-opacity:1;visibility:visible"/><path d="m513.852 890.073 10.118-9.166M513.585 878.587l10.304 9.615M528.416 893.007l-5.891-4.417" style="fill:none;stroke:red;stroke-width:1.99999;stroke-linecap:round;stroke-linejoin:round;stroke-miterlimit:2;stroke-dasharray:none;stroke-opacity:1;visibility:visible"/><path d="m502.165 931.84 1.625 4.082M474.707 925.422l1.334 4.042M447.665 919.131l.877 3.834M523.11 816.227l7.622 4.509M530.732 820.736l-7.622-4.509M516.232 817.86l13.546-.299M617.542 838.131l3.832 1.667M615.554 861.56l14.112-7.386" style="fill:none;stroke:red;stroke-width:.999997;stroke-linecap:round;stroke-linejoin:round;stroke-miterlimit:2;stroke-dasharray:none;stroke-opacity:1;visibility:visible"/><path d="m589.777 850.227.89 19.113M629.666 854.174l-14.112 7.386" style="fill:none;stroke:red;stroke-width:1.99999;stroke-linecap:round;stroke-linejoin:round;stroke-miterlimit:2;stroke-dasharray:none;stroke-opacity:1;visibility:visible"/><path d="m589.777 850.227 5.722 17.251" style="fill:none;stroke:red;stroke-width:.999997;stroke-linecap:round;stroke-linejoin:round;stroke-miterlimit:2;stroke-dasharray:none;stroke-opacity:1;visibility:visible"/><path d="m575.875 854.339 7.624 17.084" style="fill:none;stroke:red;stroke-width:1.99999;stroke-linecap:round;stroke-linejoin:round;stroke-miterlimit:2;stroke-dasharray:none;stroke-opacity:1;visibility:visible"/><path d="m572.749 855.797 2.646 18.417" style="fill:none;stroke:red;stroke-width:.999997;stroke-linecap:round;stroke-linejoin:round;stroke-miterlimit:2;stroke-dasharray:none;stroke-opacity:1;visibility:visible"/><path d="m621.374 839.798-4.041-4.681M561.502 859.451l9.123 16.283" style="fill:none;stroke:red;stroke-width:1.99999;stroke-linecap:round;stroke-linejoin:round;stroke-miterlimit:2;stroke-dasharray:none;stroke-opacity:1;visibility:visible"/><path d="m621.374 839.798-3.832-1.667" style="fill:none;stroke:red;stroke-width:.999997;stroke-linecap:round;stroke-linejoin:round;stroke-miterlimit:2;stroke-dasharray:none;stroke-opacity:1;visibility:visible"/><path d="m575.875 854.339 14.208-9.125M576.583 842.798l13.194 7.429M530.732 820.736l-14.229 8.901M523.11 816.227l5.614 15.882" style="fill:none;stroke:red;stroke-width:1.99999;stroke-linecap:round;stroke-linejoin:round;stroke-miterlimit:2;stroke-dasharray:none;stroke-opacity:1;visibility:visible"/><path d="m575.875 854.339-2.32-12.57M576.583 842.798l-3.834 12.999" style="fill:none;stroke:red;stroke-width:.999997;stroke-linecap:round;stroke-linejoin:round;stroke-miterlimit:2;stroke-dasharray:none;stroke-opacity:1;visibility:visible"/><path d="m572.749 855.797-10.137-15.679M570.625 875.734l-9.123-16.283M572.749 855.797l3.834-12.999M573.555 841.769l2.32 12.57" style="fill:none;stroke:red;stroke-width:1.99999;stroke-linecap:round;stroke-linejoin:round;stroke-miterlimit:2;stroke-dasharray:none;stroke-opacity:1;visibility:visible"/><path d="m566.548 898.592-9.736.662M558.872 897.02l9.038 4.678" style="fill:none;stroke:red;stroke-width:.999997;stroke-linecap:round;stroke-linejoin:round;stroke-miterlimit:2;stroke-dasharray:none;stroke-opacity:1;visibility:visible"/><path d="m567.91 901.698-11.198 9.433M581.012 916.542l-14.387-3.188" style="fill:none;stroke:red;stroke-width:1.99999;stroke-linecap:round;stroke-linejoin:round;stroke-miterlimit:2;stroke-dasharray:none;stroke-opacity:1;visibility:visible"/><path d="m586.104 902.59-4.549 2.083M582.088 901.767l4.936 4.123" style="fill:none;stroke:red;stroke-width:.999997;stroke-linecap:round;stroke-linejoin:round;stroke-miterlimit:2;stroke-dasharray:none;stroke-opacity:1;visibility:visible"/><path d="m556.812 899.254 9.736-.662M587.024 905.89l-4.936-4.123M581.555 904.673l4.549-2.083M587.024 905.89l-6.012 10.652M586.599 924.636l-.617-6.957" style="fill:none;stroke:red;stroke-width:1.99999;stroke-linecap:round;stroke-linejoin:round;stroke-miterlimit:2;stroke-dasharray:none;stroke-opacity:1;visibility:visible"/><path d="m587.024 905.89 13.58 3.035M612.416 912.798l-3.972-2.125" style="fill:none;stroke:red;stroke-width:.999997;stroke-linecap:round;stroke-linejoin:round;stroke-miterlimit:2;stroke-dasharray:none;stroke-opacity:1;visibility:visible"/><path d="m598.385 922.886 1.467-5.397M578.504 930.506l1.608-5.443M599.852 917.489l-14.55 5.501" style="fill:none;stroke:red;stroke-width:1.99999;stroke-linecap:round;stroke-linejoin:round;stroke-miterlimit:2;stroke-dasharray:none;stroke-opacity:1;visibility:visible"/><path d="m599.852 917.489-1.467 5.397M566.625 913.354l-.38 18.808M580.112 925.063l-1.608 5.443" style="fill:none;stroke:red;stroke-width:.999997;stroke-linecap:round;stroke-linejoin:round;stroke-miterlimit:2;stroke-dasharray:none;stroke-opacity:1;visibility:visible"/><path d="m514.743 515.363 1.207 3.22M514.716 521.226l1.234-2.643" style="fill:none;stroke:red;stroke-width:.999997;stroke-linecap:round;stroke-linejoin:round;stroke-miterlimit:4;stroke-dasharray:none;stroke-opacity:1;visibility:visible"/><path d="m448.416 921.923-5.561-1.488M448.416 921.923l-8.438-1.389M514.956 937.881l7.411 1.147M514.956 937.881l4.534 1.247" style="fill:none;stroke:red;stroke-width:.666665;stroke-linecap:round;stroke-linejoin:round;stroke-miterlimit:2;stroke-dasharray:none;stroke-opacity:1;visibility:visible"/><path d="M413.999 917.755 376.496 933.1s-5.416 5.694.667 9.444l163.322 40.33 130.016-52.998s5.277-4.472-.39-8.694l-33.597-8.563" style="fill:none;stroke:#00ff4a;stroke-width:1.99999;stroke-linecap:round;stroke-linejoin:round;stroke-miterlimit:2;stroke-dasharray:none;stroke-opacity:1;visibility:visible" visibility="hidden"/><path d="M540.676 973.452s1.353 6.671-.115 9.116M376.496 933.1l164.181 40.352 129.435-52.269" style="fill:none;stroke:#00ff4a;stroke-width:.999997;stroke-linecap:round;stroke-linejoin:round;stroke-miterlimit:2;stroke-dasharray:none;stroke-opacity:1;visibility:visible" visibility="hidden"/><path d="m513.26 860.332 11.028.04M498.583 833.922l1.647-17.082" style="fill:none;stroke:red;stroke-width:1.99999;stroke-linecap:round;stroke-linejoin:round;stroke-miterlimit:2;stroke-dasharray:none;stroke-opacity:1;visibility:visible"/><path d="m498.583 833.922 11.39-16.18" style="fill:none;stroke:red;stroke-width:.999997;stroke-linecap:round;stroke-linejoin:round;stroke-miterlimit:2;stroke-dasharray:none;stroke-opacity:1;visibility:visible"/><path d="m498.583 833.922 11-4.249M448.416 921.923l-3.781-3.52M566.625 913.354l12.163 15.306" style="fill:none;stroke:red;stroke-width:1.99999;stroke-linecap:round;stroke-linejoin:round;stroke-miterlimit:2;stroke-dasharray:none;stroke-opacity:1;visibility:visible"/><path d="m555.25 941.422 15.394-8.552" style="fill:none;stroke:red;stroke-width:.999997;stroke-linecap:round;stroke-linejoin:round;stroke-miterlimit:2;stroke-dasharray:none;stroke-opacity:1;visibility:visible"/></svg>