<svg xmlns="http://www.w3.org/2000/svg" baseProfile="full" height="1122.52" preserveAspectRatio="xMinYMin meet" style="width:919px;height:1159px" width="793.701" xml:space="preserve"><path d="M210.558 712.82s.005-.955-1.138-.71c-1.143.244-1.053 1.19-1.053 1.19l-88.334 19.369-10.348-3.9-.95-15.05 321.196-67.601 10.501 3.039-.037 2.438 63.15 18M395.735 672.218l-183.74 40.287M231.108 758.655l277.914-90.076 11.248 3.188-.599 13.688-276.451 93.45-11.773-4.389-.339-15.861" style="fill:none;stroke:red;stroke-width:1.99999;stroke-linecap:round;stroke-linejoin:round;stroke-miterlimit:2;stroke-dasharray:none;stroke-opacity:1;visibility:visible" visibility="hidden"/><path d="m109.372 713.83 9.963 3.588.812 14.912M119.496 717.343l320.937-68.188M231.407 758.704l11.664 4.19.301 15.811M243.071 762.892l277.198-91.125M439.87 651.667l-5.81 1.275-.563 8.026M434.659 653.167l63.975 18.261" style="fill:none;stroke:red;stroke-width:.999997;stroke-linecap:round;stroke-linejoin:round;stroke-miterlimit:2;stroke-dasharray:none;stroke-opacity:1;visibility:visible" visibility="hidden"/><path d="m470.397 680.58-68.761-20.164M450.259 687.218l-56-16.7" style="fill:none;stroke:red;stroke-width:1.99999;stroke-linecap:round;stroke-linejoin:round;stroke-miterlimit:2;stroke-dasharray:none;stroke-opacity:1;visibility:visible" visibility="hidden"/><path d="m400.086 660.166-6.148 1.25-.401 8.726M394.16 661.54l70.724 20.915" style="fill:none;stroke:red;stroke-width:.999997;stroke-linecap:round;stroke-linejoin:round;stroke-miterlimit:2;stroke-dasharray:none;stroke-opacity:1;visibility:visible" visibility="hidden"/><path d="m451.499 664.748-17.665 4.657M419.02 665.017l24.904-6.365" style="fill:none;stroke:red;stroke-width:1.99999;stroke-linecap:round;stroke-linejoin:round;stroke-miterlimit:2;stroke-dasharray:none;stroke-opacity:1;visibility:visible" visibility="hidden"/><path d="m444.821 658.455 7.612 2.175-.225 3.788M426.782 667.304l25.088-6.487" style="fill:none;stroke:red;stroke-width:.999997;stroke-linecap:round;stroke-linejoin:round;stroke-miterlimit:2;stroke-dasharray:none;stroke-opacity:1;visibility:visible" visibility="hidden"/><path d="m471.067 670.338-17.92 4.805M438.147 670.83l25.35-6.7" style="fill:none;stroke:red;stroke-width:1.99999;stroke-linecap:round;stroke-linejoin:round;stroke-miterlimit:2;stroke-dasharray:none;stroke-opacity:1;visibility:visible" visibility="hidden"/><path d="m464.208 664.004 7.725 2.213-.261 3.899M446.208 673.116l25.312-6.787" style="fill:none;stroke:red;stroke-width:.999997;stroke-linecap:round;stroke-linejoin:round;stroke-miterlimit:2;stroke-dasharray:none;stroke-opacity:1;visibility:visible" visibility="hidden"/><path d="m458.186 676.568 24.885-6.713" style="fill:none;stroke:red;stroke-width:1.99999;stroke-linecap:round;stroke-linejoin:round;stroke-miterlimit:2;stroke-dasharray:none;stroke-opacity:1;visibility:visible" visibility="hidden"/><path d="m483.862 669.667 7.948 2.27-.127 2.03M466.234 678.919l25.161-6.852" style="fill:none;stroke:red;stroke-width:.999997;stroke-linecap:round;stroke-linejoin:round;stroke-miterlimit:2;stroke-dasharray:none;stroke-opacity:1;visibility:visible" visibility="hidden"/><path d="m448.497 665.917 3.563 1.012M467.92 671.504l4.088 1.2" style="fill:none;stroke:red;stroke-width:1.99999;stroke-linecap:round;stroke-linejoin:round;stroke-miterlimit:2;stroke-dasharray:none;stroke-opacity:1;visibility:visible" visibility="hidden"/><path d="M440.732 657.9c.176.61.008 1.197-.374 1.305-.384.112-.836-.295-1.014-.907-.176-.61-.01-1.2.374-1.308.385-.109.837.298 1.014.91" style="fill:none;stroke:red;stroke-width:.666665;stroke-linecap:round;stroke-linejoin:round;stroke-miterlimit:2;stroke-dasharray:none;stroke-opacity:1;visibility:visible" visibility="hidden"/><path d="m479.719 662.723 4.196-2.579M485.145 662.092a2.877 2.877 0 0 0-.152-.875 2.779 2.779 0 0 0-.423-.779M484.57 660.437a1.148 1.148 0 0 0-.368-.299M484.2 660.14l-.01-.002M485.036 662.562c.005 0 .008 0 .01-.008" style="fill:none;stroke:red;stroke-width:.999997;stroke-linecap:round;stroke-linejoin:round;stroke-miterlimit:2;stroke-dasharray:none;stroke-opacity:1;visibility:visible" visibility="hidden"/><path d="M485.045 662.554a.981.981 0 0 0 .1-.464M484.68 663.228l.36-.667M483.492 659.843l.699.295M483.508 659.852a.353.353 0 0 0-.268-.019M484.487 663.392a.361.361 0 0 0 .197-.175M482.467 664.106l2.023-.716M477.892 661.726l5.35-1.893" style="fill:none;stroke:red;stroke-width:.999997;stroke-linecap:round;stroke-linejoin:round;stroke-miterlimit:2;stroke-dasharray:none;stroke-opacity:1;visibility:visible" visibility="hidden"/><path d="M208.59 712.487h0" style="fill:none;stroke:red;stroke-width:.999997;stroke-linecap:round;stroke-linejoin:round;stroke-miterlimit:4;stroke-dasharray:none;stroke-opacity:1;visibility:visible" visibility="hidden"/><path d="M215.735 722.524a1.979 1.979 0 0 1-.54.388c-.433.19-.997.218-1.905-.552-.9-.771-3.276-4.655-3.672-5.894-.115-.361-.336-1.716-.672-2.606" style="fill:none;stroke:red;stroke-width:.999997;stroke-linecap:round;stroke-linejoin:round;stroke-miterlimit:2;stroke-dasharray:none;stroke-opacity:1;visibility:visible" visibility="hidden"/><path d="M215.469 722.758s1.057-.664 1.051-1.382c-.003-.383-.111-.734-.39-1.37-.299-.696-.888-1.764-1.91-3.162-.393-.539-.949-1.174-1.52-1.822-.54-.616-1.665-1.496-2.03-1.75" style="fill:none;stroke:red;stroke-width:.999997;stroke-linecap:round;stroke-linejoin:round;stroke-miterlimit:2;stroke-dasharray:none;stroke-opacity:1;visibility:visible" visibility="hidden"/><path d="M212.74 719.112c-.074.444-.038.861.81 1.8.375.414.71.368.856.274.472-.305.296-.71.24-.856-.052-.144.279-.092-.639-1.246-.566-.71-1.185-.479-1.267.028" style="fill:none;stroke:red;stroke-width:.999997;stroke-linecap:round;stroke-linejoin:round;stroke-miterlimit:2;stroke-dasharray:none;stroke-opacity:1;visibility:visible" visibility="hidden"/><path d="m483.862 669.667 19.683-.072M215.469 722.758l-3.475-10.253" style="fill:none;stroke:red;stroke-width:1.99999;stroke-linecap:round;stroke-linejoin:round;stroke-miterlimit:2;stroke-dasharray:none;stroke-opacity:1;visibility:visible" visibility="hidden"/><path d="m433.834 669.405 6.036-17.738M483.862 669.667l14.772 1.761" style="fill:none;stroke:red;stroke-width:.999997;stroke-linecap:round;stroke-linejoin:round;stroke-miterlimit:2;stroke-dasharray:none;stroke-opacity:1;visibility:visible" visibility="hidden"/><path d="m467.92 671.504 2.477 9.076" style="fill:none;stroke:red;stroke-width:1.99999;stroke-linecap:round;stroke-linejoin:round;stroke-miterlimit:2;stroke-dasharray:none;stroke-opacity:1;visibility:visible" visibility="hidden"/><path d="m419.02 665.017-18.934-4.851M467.92 671.504l-3.036 10.95" style="fill:none;stroke:red;stroke-width:.999997;stroke-linecap:round;stroke-linejoin:round;stroke-miterlimit:2;stroke-dasharray:none;stroke-opacity:1;visibility:visible" visibility="hidden"/><path d="m443.924 658.652-10.09 10.753M400.086 660.166l18.934 4.851" style="fill:none;stroke:red;stroke-width:1.99999;stroke-linecap:round;stroke-linejoin:round;stroke-miterlimit:2;stroke-dasharray:none;stroke-opacity:1;visibility:visible" visibility="hidden"/><path d="m443.924 658.652-17.142 8.652M446.208 673.116l5.662-12.299" style="fill:none;stroke:red;stroke-width:.999997;stroke-linecap:round;stroke-linejoin:round;stroke-miterlimit:2;stroke-dasharray:none;stroke-opacity:1;visibility:visible" visibility="hidden"/><path d="m451.499 664.748 1.648 10.395M443.924 658.652l-5.777 12.178" style="fill:none;stroke:red;stroke-width:1.99999;stroke-linecap:round;stroke-linejoin:round;stroke-miterlimit:2;stroke-dasharray:none;stroke-opacity:1;visibility:visible" visibility="hidden"/><path d="m451.499 664.748-5.291 8.368M477.892 661.726l-6.372 4.603" style="fill:none;stroke:red;stroke-width:.999997;stroke-linecap:round;stroke-linejoin:round;stroke-miterlimit:2;stroke-dasharray:none;stroke-opacity:1;visibility:visible" visibility="hidden"/><path d="m463.498 664.13-5.312 12.438" style="fill:none;stroke:red;stroke-width:1.99999;stroke-linecap:round;stroke-linejoin:round;stroke-miterlimit:2;stroke-dasharray:none;stroke-opacity:1;visibility:visible" visibility="hidden"/><path d="m471.067 670.338-4.833 8.581M484.487 663.392l6.908 8.675" style="fill:none;stroke:red;stroke-width:.999997;stroke-linecap:round;stroke-linejoin:round;stroke-miterlimit:2;stroke-dasharray:none;stroke-opacity:1;visibility:visible" visibility="hidden"/><path d="m444.821 658.455 7.239 8.474M470.397 680.58l-2.477-9.076M464.208 664.004l7.8 8.7" style="fill:none;stroke:red;stroke-width:1.99999;stroke-linecap:round;stroke-linejoin:round;stroke-miterlimit:2;stroke-dasharray:none;stroke-opacity:1;visibility:visible" visibility="hidden"/><path d="m483.243 659.833-.776 4.273M484.49 663.39l-6.598-1.664" style="fill:none;stroke:red;stroke-width:.999997;stroke-linecap:round;stroke-linejoin:round;stroke-miterlimit:2;stroke-dasharray:none;stroke-opacity:1;visibility:visible" visibility="hidden"/><path d="m482.086 833.357 16.775 6.032M435.497 813.931l1.404.484-.085 2.667 29.07 10.45M397.388 824.463l23.688-10.981M393.782 846.986 131.96 970.868l-9.873-4.95-.627-13.514 261.127-121.08M479.936 852.734l17.805-11.51M512.079 841.367l1.453.5-.45 12.726-264.051 174.526-11.201-5.501-.372-14.15 77.87-50.334s1.322.102 1.976-.387c.653-.49.062-.927.062-.927l147.77-95.522" style="fill:none;stroke:#00ff4a;stroke-width:1.99999;stroke-linecap:round;stroke-linejoin:round;stroke-miterlimit:2;stroke-dasharray:none;stroke-opacity:1;visibility:visible"/><path d="m121.935 952.543 9.499 4.724.622 13.252M228.578 911.83l208.32-97.414M131.59 957.184l86.31-40.36M237.782 1009.468l10.976 5.401.415 14.038M248.759 1014.87l264.773-173.002M436.381 816.895l-6.085 2.832.205 7.67M480.493 837.926l14.017 5.065M430.508 819.861l35.41 12.797" style="fill:none;stroke:#00ff4a;stroke-width:.999997;stroke-linecap:round;stroke-linejoin:round;stroke-miterlimit:2;stroke-dasharray:none;stroke-opacity:1;visibility:visible"/><path d="m465.659 860.267-66.962-25.037M453.734 869.118l-61.036-23.22" style="fill:none;stroke:#00ff4a;stroke-width:1.99999;stroke-linecap:round;stroke-linejoin:round;stroke-miterlimit:2;stroke-dasharray:none;stroke-opacity:1;visibility:visible"/><path d="m397.834 834.91-6.207 2.924.328 7.72M391.858 837.952l69.374 26.14" style="fill:none;stroke:#00ff4a;stroke-width:.999997;stroke-linecap:round;stroke-linejoin:round;stroke-miterlimit:2;stroke-dasharray:none;stroke-opacity:1;visibility:visible"/><path d="m447.564 832.257-22.693 12.348M413.584 840.33l26.473-14.245" style="fill:none;stroke:#00ff4a;stroke-width:1.99999;stroke-linecap:round;stroke-linejoin:round;stroke-miterlimit:2;stroke-dasharray:none;stroke-opacity:1;visibility:visible"/><path d="m440.837 825.674 7.363 2.695.102 3.438M420.97 843.142l26.981-14.617" style="fill:none;stroke:#00ff4a;stroke-width:.999997;stroke-linecap:round;stroke-linejoin:round;stroke-miterlimit:2;stroke-dasharray:none;stroke-opacity:1;visibility:visible"/><path d="m466.497 838.98-23.008 12.712M432.203 847.361l26.81-14.7" style="fill:none;stroke:#00ff4a;stroke-width:1.99999;stroke-linecap:round;stroke-linejoin:round;stroke-miterlimit:2;stroke-dasharray:none;stroke-opacity:1;visibility:visible"/><path d="m459.415 832.438 7.55 2.736M439.665 850.192l26.943-14.812" style="fill:none;stroke:#00ff4a;stroke-width:.999997;stroke-linecap:round;stroke-linejoin:round;stroke-miterlimit:2;stroke-dasharray:none;stroke-opacity:1;visibility:visible"/><path d="m465.52 857.187-2.997 1.688M485.708 845.81l-5.755 3.243M451.12 854.486l15.17-8.456" style="fill:none;stroke:#00ff4a;stroke-width:1.99999;stroke-linecap:round;stroke-linejoin:round;stroke-miterlimit:2;stroke-dasharray:none;stroke-opacity:1;visibility:visible"/><path d="m479.997 839.917 6.019 2.195.029 3.442M479.945 845.498l5.87-3.293M458.696 857.41l6.972-3.91" style="fill:none;stroke:#00ff4a;stroke-width:.999997;stroke-linecap:round;stroke-linejoin:round;stroke-miterlimit:2;stroke-dasharray:none;stroke-opacity:1;visibility:visible"/><path d="m431.12 827.642 3.11 1.15M446.64 833.322l6.339 2.3M484.234 847.08l2.516.915" style="fill:none;stroke:#00ff4a;stroke-width:1.99999;stroke-linecap:round;stroke-linejoin:round;stroke-miterlimit:2;stroke-dasharray:none;stroke-opacity:1;visibility:visible"/><path d="M437.046 826.374c.289.55.252 1.141-.078 1.321-.33.18-.833-.12-1.121-.67-.285-.547-.257-1.139.077-1.319.33-.18.834.12 1.122.668" style="fill:none;stroke:#00ff4a;stroke-width:.666665;stroke-linecap:round;stroke-linejoin:round;stroke-miterlimit:2;stroke-dasharray:none;stroke-opacity:1;visibility:visible"/><path d="m410.247 839.187 22.47-10.623" style="fill:none;stroke:#00ff4a;stroke-width:1.99999;stroke-linecap:round;stroke-linejoin:round;stroke-miterlimit:2;stroke-dasharray:none;stroke-opacity:1;visibility:visible"/><path d="m478.903 862.113 2.767-88.962-3.391-.982M471.941 771.812l-3.125 1.219-2.579 89.865" style="fill:none;stroke:#00ff4a;stroke-width:1.99999;stroke-linecap:round;stroke-linejoin:round;stroke-miterlimit:4;stroke-dasharray:none;stroke-opacity:1;visibility:visible"/><path d="m466.215 863.598 7.33 2.344 5.345-3.43M468.817 773.03l7.5 2.323 5.355-2.203M476.317 775.353l-2.77 90.588" style="fill:none;stroke:#00ff4a;stroke-width:.999997;stroke-linecap:round;stroke-linejoin:round;stroke-miterlimit:4;stroke-dasharray:none;stroke-opacity:1;visibility:visible"/><path d="m499.108 841.665.673-18.763M511.557 759.47l3.032.855-3.112 80.942" style="fill:none;stroke:#00ff4a;stroke-width:1.99999;stroke-linecap:round;stroke-linejoin:round;stroke-miterlimit:4;stroke-dasharray:none;stroke-opacity:1;visibility:visible"/><path d="m511.479 841.267-5.139 3.341-7.257-2.31" style="fill:none;stroke:#00ff4a;stroke-width:.999997;stroke-linecap:round;stroke-linejoin:round;stroke-miterlimit:4;stroke-dasharray:none;stroke-opacity:1;visibility:visible"/><path d="m501.064 786.399.97-26.23 3.54-1.32M501.887 809.391l-21.193 11.139M480.191 832.852l24.653-13.255" style="fill:none;stroke:#00ff4a;stroke-width:1.99999;stroke-linecap:round;stroke-linejoin:round;stroke-miterlimit:4;stroke-dasharray:none;stroke-opacity:1;visibility:visible"/><path d="m505.131 819.494.479-9.223-3.34-1.012M480.775 823.327l24.836-13.056" style="fill:none;stroke:#00ff4a;stroke-width:.999997;stroke-linecap:round;stroke-linejoin:round;stroke-miterlimit:4;stroke-dasharray:none;stroke-opacity:1;visibility:visible"/><path d="m502.887 786.055-21.376 10.92M481.16 809.181l24.64-12.716" style="fill:none;stroke:#00ff4a;stroke-width:1.99999;stroke-linecap:round;stroke-linejoin:round;stroke-miterlimit:4;stroke-dasharray:none;stroke-opacity:1;visibility:visible"/><path d="m506.114 796.356.292-9.39-3.167-1.027M481.357 799.736l24.85-12.688" style="fill:none;stroke:#00ff4a;stroke-width:.999997;stroke-linecap:round;stroke-linejoin:round;stroke-miterlimit:4;stroke-dasharray:none;stroke-opacity:1;visibility:visible"/><path d="m500.597 800.007-.325 9.807" style="fill:none;stroke:#00ff4a;stroke-width:1.99999;stroke-linecap:round;stroke-linejoin:round;stroke-miterlimit:4;stroke-dasharray:none;stroke-opacity:1;visibility:visible"/><path d="m502.42 760.403 7.036 2.06 5.016-2.021M509.458 762.463l-3.119 82.145" style="fill:none;stroke:#00ff4a;stroke-width:.999997;stroke-linecap:round;stroke-linejoin:round;stroke-miterlimit:4;stroke-dasharray:none;stroke-opacity:1;visibility:visible"/><path d="M510.017 760.418c-.01.332-.809.57-1.786.527-.975-.045-1.756-.35-1.744-.681M476.847 773.294c-.01.334-.803.57-1.767.528-.965-.042-1.736-.348-1.728-.681" style="fill:none;stroke:#00ff4a;stroke-width:.666665;stroke-linecap:round;stroke-linejoin:round;stroke-miterlimit:4;stroke-dasharray:none;stroke-opacity:1;visibility:visible"/><path d="m396.097 831.389 1.061-86.121-3.598-1.33M388.047 743.73l-3.43.805-.82 87.05" style="fill:none;stroke:#00ff4a;stroke-width:1.99999;stroke-linecap:round;stroke-linejoin:round;stroke-miterlimit:4;stroke-dasharray:none;stroke-opacity:1;visibility:visible"/><path d="m383.791 832.313 6.035 2.597 6.265-2.942M384.614 744.536l6.133 2.419 6.41-1.687M390.747 746.955l-.919 87.956" style="fill:none;stroke:#00ff4a;stroke-width:.999997;stroke-linecap:round;stroke-linejoin:round;stroke-miterlimit:4;stroke-dasharray:none;stroke-opacity:1;visibility:visible"/><path d="m422.504 813.482.305-19.033M433.086 734.192l3.097 1.1-1.628 78.385" style="fill:none;stroke:#00ff4a;stroke-width:1.99999;stroke-linecap:round;stroke-linejoin:round;stroke-miterlimit:4;stroke-dasharray:none;stroke-opacity:1;visibility:visible"/><path d="m434.547 814.023-6.013 2.796-6.044-2.495" style="fill:none;stroke:#00ff4a;stroke-width:.999997;stroke-linecap:round;stroke-linejoin:round;stroke-miterlimit:4;stroke-dasharray:none;stroke-opacity:1;visibility:visible"/><path d="m423.446 759.817.473-25.143 2.992-.78M424.259 782.413l-27.361 9.953M396.793 803.572l30.125-11.084" style="fill:none;stroke:#00ff4a;stroke-width:1.99999;stroke-linecap:round;stroke-linejoin:round;stroke-miterlimit:4;stroke-dasharray:none;stroke-opacity:1;visibility:visible"/><path d="m427.252 792.386.17-9.02-2.72-1.085M396.915 794.486l30.507-11.12" style="fill:none;stroke:#00ff4a;stroke-width:.999997;stroke-linecap:round;stroke-linejoin:round;stroke-miterlimit:4;stroke-dasharray:none;stroke-opacity:1;visibility:visible"/><path d="m424.742 759.767-27.528 9.688M397.064 780.76l30.253-10.861" style="fill:none;stroke:#00ff4a;stroke-width:1.99999;stroke-linecap:round;stroke-linejoin:round;stroke-miterlimit:4;stroke-dasharray:none;stroke-opacity:1;visibility:visible"/><path d="m427.685 769.792.188-9.113-2.719-1.031M397.215 771.536l30.421-10.77" style="fill:none;stroke:#00ff4a;stroke-width:.999997;stroke-linecap:round;stroke-linejoin:round;stroke-miterlimit:4;stroke-dasharray:none;stroke-opacity:1;visibility:visible"/><path d="m423.203 771.799-.143 10.6" style="fill:none;stroke:#00ff4a;stroke-width:1.99999;stroke-linecap:round;stroke-linejoin:round;stroke-miterlimit:4;stroke-dasharray:none;stroke-opacity:1;visibility:visible"/><path d="m423.92 734.674 6.19 2.293 6.073-1.674M430.108 736.967l-1.575 79.852" style="fill:none;stroke:#00ff4a;stroke-width:.999997;stroke-linecap:round;stroke-linejoin:round;stroke-miterlimit:4;stroke-dasharray:none;stroke-opacity:1;visibility:visible"/><path d="M431.768 735.114c-.016.334-.817.576-1.797.539-.975-.039-1.761-.341-1.743-.676M392.542 744.977c-.012.333-.814.576-1.795.539-.975-.04-1.756-.343-1.745-.678" style="fill:none;stroke:#00ff4a;stroke-width:.666665;stroke-linecap:round;stroke-linejoin:round;stroke-miterlimit:4;stroke-dasharray:none;stroke-opacity:1;visibility:visible"/><path d="m474.67 768.489.825 4.528M477.207 768.104a.387.387 0 0 0 .112-.244.375.375 0 0 0-.084-.234M473.645 767.502a.357.357 0 0 0-.008.475M473.639 767.978a1.4 1.4 0 0 0 .557.368M474.195 768.348a3.88 3.88 0 0 0 1.21.242c.416.01.831-.042 1.225-.158M476.63 768.43a1.467 1.467 0 0 0 .579-.326M476.737 767.04a1.076 1.076 0 0 0-.393-.263M476.345 766.776a2.803 2.803 0 0 0-.872-.176 2.896 2.896 0 0 0-.88.116M474.59 766.717a1.07 1.07 0 0 0-.41.235M474.18 766.958l-.53.544M476.746 767.047l.49.577M473.552 767.73l-.161 5.188M477.319 767.86l-.16 5.256M507.571 755.141l.825 4.53M510.105 754.757a.344.344 0 0 0 .112-.243.38.38 0 0 0-.08-.234M506.547 754.157a.373.373 0 0 0-.095.23.347.347 0 0 0 .09.244M506.541 754.632c.155.168.347.288.556.368M507.097 755c.383.147.796.227 1.21.245.416.008.83-.045 1.225-.161M509.533 755.084c.22-.066.414-.178.575-.327M509.639 753.694a1.059 1.059 0 0 0-.395-.264M509.245 753.43a2.795 2.795 0 0 0-.872-.174 2.884 2.884 0 0 0-.878.114M507.495 753.37a1.03 1.03 0 0 0-.41.235M507.08 753.611l-.53.544M509.647 753.701l.492.577M506.453 754.385l-.159 5.187M510.22 754.514l-.161 5.256M429.475 730.442l.823 4.528M432.008 730.058a.362.362 0 0 0 .114-.242.367.367 0 0 0-.086-.236M428.448 729.456a.352.352 0 0 0-.006.476M428.442 729.933c.157.168.346.29.558.368M429.002 730.301c.378.144.794.225 1.206.244a4 4 0 0 0 1.227-.161M431.435 730.384a1.48 1.48 0 0 0 .575-.326M431.54 728.998a1.055 1.055 0 0 0-.394-.268M431.146 728.729a2.81 2.81 0 0 0-.871-.175 2.899 2.899 0 0 0-.88.116M429.395 728.669a1.083 1.083 0 0 0-.41.236M428.982 728.911l-.53.544M431.548 729.002l.49.576M428.353 729.684l-.161 5.188M432.123 729.814l-.163 5.256M390.303 740.27l.824 4.528M392.839 739.884a.38.38 0 0 0 .113-.244.376.376 0 0 0-.085-.234M389.279 739.284a.352.352 0 0 0-.008.474M389.272 739.76c.155.168.344.289.558.368M389.83 740.128c.38.145.794.225 1.206.242a4 4 0 0 0 1.227-.158M392.263 740.212a1.46 1.46 0 0 0 .576-.327M392.368 738.824a1.059 1.059 0 0 0-.394-.266M391.974 738.558a2.764 2.764 0 0 0-.87-.174 2.901 2.901 0 0 0-.881.114M390.223 738.498a1.076 1.076 0 0 0-.41.235M389.812 738.739l-.532.544M392.376 738.829l.49.577M389.182 739.512l-.16 5.188M392.953 739.641l-.161 5.256M308.96 949.532a1.952 1.952 0 0 0-.523.411c-.3.364-.487.897.001 1.981.49 1.083 3.557 4.444 4.637 5.17.315.21 1.556.801 2.316 1.37" style="fill:none;stroke:#00ff4a;stroke-width:.999997;stroke-linecap:round;stroke-linejoin:round;stroke-miterlimit:2;stroke-dasharray:none;stroke-opacity:1;visibility:visible"/><path d="M308.662 949.72s.932-.829 1.621-.624c.367.111.672.312 1.207.756.587.484 1.445 1.343 2.507 2.716.409.528.86 1.236 1.323 1.968.44.695.974 2.014 1.118 2.435.09.259-.124.303.14.732M220.027 914.245s.344-.605.384-.642l1.592-2.098 1.228-1.342 1.091-.813c.653-.501 1.761-.545 2.483.387l.368.586c.584 1.007.164 1.98-.413 2.612l-.726.643-1.496 1.019-2.103 1.218s-.905.443-1.704.8M220.026 914.245c-.203.272-.99 1.545-.97 1.614M219.058 915.86c.037.108.084.22.132.325" style="fill:none;stroke:#00ff4a;stroke-width:.999997;stroke-linecap:round;stroke-linejoin:round;stroke-miterlimit:2;stroke-dasharray:none;stroke-opacity:1;visibility:visible"/><path d="M311.089 953.19c-.472-.058-.575-.024-1.276-1.158-.311-.502-.167-.829-.028-.949.448-.388.804-.092.938.01.13.097-.133-.45.767.819.552.784.135 1.347-.401 1.278M219.073 915.547a.185.185 0 0 0-.079.036.208.208 0 0 0-.076.21M218.917 915.794a.861.861 0 0 0 .166.36M220.291 916.953a.832.832 0 0 0 .389.01M219.083 916.154c.307.392.734.675 1.207.8M225.683 912.153c-.358.327-.949.706-1.337.032-.383-.678.024-1.298.384-1.623.357-.323.827-.484 1.215.19.385.678.095 1.074-.262 1.401" style="fill:none;stroke:#00ff4a;stroke-width:.999997;stroke-linecap:round;stroke-linejoin:round;stroke-miterlimit:2;stroke-dasharray:none;stroke-opacity:1;visibility:visible"/><path d="m466.964 835.174 15.122-1.817M499.083 842.298l-.222-2.909M459.415 832.438l6.471-4.906M396.091 831.968l1.297-7.505M410.247 839.187l-16.465 7.799M397.388 824.463l-14.8 6.862M485.708 845.81l-5.772 6.924M479.945 845.498l17.796-4.275M462.523 858.875l2.613 3.423" style="fill:none;stroke:#00ff4a;stroke-width:1.99999;stroke-linecap:round;stroke-linejoin:round;stroke-miterlimit:2;stroke-dasharray:none;stroke-opacity:1;visibility:visible"/><path d="m217.9 916.824 10.678-4.994M220.731 916.615l-2.832.21M486.75 847.995l-6.257-10.069M499.083 842.298l-4.573.693M434.23 828.793l-3.722-8.932M459.415 832.438l6.504.22" style="fill:none;stroke:#00ff4a;stroke-width:.999997;stroke-linecap:round;stroke-linejoin:round;stroke-miterlimit:2;stroke-dasharray:none;stroke-opacity:1;visibility:visible"/><path d="m466.215 863.598-.556-3.331M466.215 863.598l-12.481 5.52" style="fill:none;stroke:#00ff4a;stroke-width:1.99999;stroke-linecap:round;stroke-linejoin:round;stroke-miterlimit:2;stroke-dasharray:none;stroke-opacity:1;visibility:visible"/><path d="m466.215 863.598-4.983.494" style="fill:none;stroke:#00ff4a;stroke-width:.999997;stroke-linecap:round;stroke-linejoin:round;stroke-miterlimit:2;stroke-dasharray:none;stroke-opacity:1;visibility:visible"/><path d="m432.716 828.564-7.845 16.041M397.834 834.91l15.75 5.42" style="fill:none;stroke:#00ff4a;stroke-width:1.99999;stroke-linecap:round;stroke-linejoin:round;stroke-miterlimit:2;stroke-dasharray:none;stroke-opacity:1;visibility:visible"/><path d="m432.716 828.564-11.746 14.578" style="fill:none;stroke:#00ff4a;stroke-width:.999997;stroke-linecap:round;stroke-linejoin:round;stroke-miterlimit:2;stroke-dasharray:none;stroke-opacity:1;visibility:visible"/><path d="m479.945 845.498-13.448-6.518M447.564 832.257l-4.075 19.435M432.716 828.564l-.513 18.797" style="fill:none;stroke:#00ff4a;stroke-width:1.99999;stroke-linecap:round;stroke-linejoin:round;stroke-miterlimit:2;stroke-dasharray:none;stroke-opacity:1;visibility:visible"/><path d="m447.564 832.257-7.899 17.935" style="fill:none;stroke:#00ff4a;stroke-width:.999997;stroke-linecap:round;stroke-linejoin:round;stroke-miterlimit:2;stroke-dasharray:none;stroke-opacity:1;visibility:visible"/><path d="m458.696 857.41 6.824-.223M465.136 862.298l-2.613-3.423M485.814 842.205l-5.86 6.848M465.668 853.5l-14.548.986M462.523 858.875l3.766-12.845" style="fill:none;stroke:#00ff4a;stroke-width:1.99999;stroke-linecap:round;stroke-linejoin:round;stroke-miterlimit:2;stroke-dasharray:none;stroke-opacity:1;visibility:visible"/><path d="m486.75 847.995-6.753-8.078M485.708 845.81l-5.763-.312M479.953 849.053l5.861-6.848M465.52 857.187l-6.824.223M462.523 858.875l3.145-5.374" style="fill:none;stroke:#00ff4a;stroke-width:.999997;stroke-linecap:round;stroke-linejoin:round;stroke-miterlimit:2;stroke-dasharray:none;stroke-opacity:1;visibility:visible"/><path d="m440.837 825.674-6.606 3.119M434.23 828.793l12.41 4.529M459.415 832.438l-6.436 3.184M494.51 842.991l-10.276 4.089M479.997 839.917l6.753 8.078M397.834 834.91l12.413 4.277M424.87 844.605l7.846-16.04" style="fill:none;stroke:#00ff4a;stroke-width:1.99999;stroke-linecap:round;stroke-linejoin:round;stroke-miterlimit:2;stroke-dasharray:none;stroke-opacity:1;visibility:visible"/><path d="m474.196 768.346 4.083 3.823M474.593 766.716l-2.652 5.096" style="fill:none;stroke:#00ff4a;stroke-width:1.99999;stroke-linecap:round;stroke-linejoin:round;stroke-miterlimit:4;stroke-dasharray:none;stroke-opacity:1;visibility:visible"/><path d="m474.196 768.346-5.379 4.684M477.159 773.116l-.842 2.237" style="fill:none;stroke:#00ff4a;stroke-width:.999997;stroke-linecap:round;stroke-linejoin:round;stroke-miterlimit:4;stroke-dasharray:none;stroke-opacity:1;visibility:visible"/><path d="m505.131 819.494-5.35 3.408M509.245 753.43l2.312 6.04M500.597 800.007l.467-13.608M509.533 755.084l-3.96 3.764M485.814 842.205l-5.623-9.353" style="fill:none;stroke:#00ff4a;stroke-width:1.99999;stroke-linecap:round;stroke-linejoin:round;stroke-miterlimit:4;stroke-dasharray:none;stroke-opacity:1;visibility:visible"/><path d="m466.608 835.38 14.167-12.053" style="fill:none;stroke:#00ff4a;stroke-width:.999997;stroke-linecap:round;stroke-linejoin:round;stroke-miterlimit:4;stroke-dasharray:none;stroke-opacity:1;visibility:visible"/><path d="m506.114 796.356-5.517 3.651M499.781 822.902l.49-13.088" style="fill:none;stroke:#00ff4a;stroke-width:1.99999;stroke-linecap:round;stroke-linejoin:round;stroke-miterlimit:4;stroke-dasharray:none;stroke-opacity:1;visibility:visible"/><path d="m507.097 755-4.677 5.403M510.059 759.77l-.601 2.693" style="fill:none;stroke:#00ff4a;stroke-width:.999997;stroke-linecap:round;stroke-linejoin:round;stroke-miterlimit:4;stroke-dasharray:none;stroke-opacity:1;visibility:visible"/><path d="m389.83 740.128 3.73 3.81M392.263 740.212l-4.216 3.518" style="fill:none;stroke:#00ff4a;stroke-width:1.99999;stroke-linecap:round;stroke-linejoin:round;stroke-miterlimit:4;stroke-dasharray:none;stroke-opacity:1;visibility:visible"/><path d="m389.83 740.128-5.216 4.408M392.263 740.212l4.894 5.056M389.022 744.7l1.725 2.255" style="fill:none;stroke:#00ff4a;stroke-width:.999997;stroke-linecap:round;stroke-linejoin:round;stroke-miterlimit:4;stroke-dasharray:none;stroke-opacity:1;visibility:visible"/><path d="m427.252 792.386-4.443 2.063M429 730.301l4.086 3.891M423.203 771.799l.243-11.982M431.435 730.384l-4.524 3.51M427.685 769.792l-4.482 2.007M422.81 794.449l.25-12.05" style="fill:none;stroke:#00ff4a;stroke-width:1.99999;stroke-linecap:round;stroke-linejoin:round;stroke-miterlimit:4;stroke-dasharray:none;stroke-opacity:1;visibility:visible"/><path d="m429 730.301-5.08 4.373M431.435 730.384l4.748 4.909M431.96 735.07l-1.852 1.897" style="fill:none;stroke:#00ff4a;stroke-width:.999997;stroke-linecap:round;stroke-linejoin:round;stroke-miterlimit:4;stroke-dasharray:none;stroke-opacity:1;visibility:visible"/><path d="m419.02 665.017 15.639-11.85" style="fill:none;stroke:red;stroke-width:.999997;stroke-linecap:round;stroke-linejoin:round;stroke-miterlimit:2;stroke-dasharray:none;stroke-opacity:1;visibility:visible" visibility="hidden"/><path d="m419.02 665.017-17.384-4.601" style="fill:none;stroke:red;stroke-width:1.99999;stroke-linecap:round;stroke-linejoin:round;stroke-miterlimit:2;stroke-dasharray:none;stroke-opacity:1;visibility:visible" visibility="hidden"/><path d="m477.892 661.726 1.827.997M215.469 722.758l-6.523-8.898" style="fill:none;stroke:red;stroke-width:.999997;stroke-linecap:round;stroke-linejoin:round;stroke-miterlimit:2;stroke-dasharray:none;stroke-opacity:1;visibility:visible" visibility="hidden"/><path d="m422.81 794.449-1.734 19.033" style="fill:none;stroke:#00ff4a;stroke-width:1.99999;stroke-linecap:round;stroke-linejoin:round;stroke-miterlimit:2;stroke-dasharray:none;stroke-opacity:1;visibility:visible"/><path d="m434.23 828.793 2.669-14.377M434.23 828.793l2.151-11.898M410.247 839.187l-18.389-1.235M452.979 835.622l-5.028-7.097" style="fill:none;stroke:#00ff4a;stroke-width:.999997;stroke-linecap:round;stroke-linejoin:round;stroke-miterlimit:2;stroke-dasharray:none;stroke-opacity:1;visibility:visible"/><path d="m499.781 822.902 5.83-12.631M422.81 794.449l4.612-11.083M423.203 771.799l4.433-11.034M432.716 828.564l-4.183-11.745" style="fill:none;stroke:#00ff4a;stroke-width:.999997;stroke-linecap:round;stroke-linejoin:round;stroke-miterlimit:4;stroke-dasharray:none;stroke-opacity:1;visibility:visible"/></svg>