<svg xmlns="http://www.w3.org/2000/svg" baseProfile="full" height="1122.52" preserveAspectRatio="xMinYMin meet" style="width:765px;height:943px" width="793.701" xml:space="preserve"><path d="m639.594 459.04-20.75-13.87M574.24 433.442l21.564 14.716M532.877 404.204l-12.066 4.543M502.99 415.456l-24.05 9.051M492.385 434.31l10.745-4.114M506.651 428.847l26.193-10.033M612.362 154.216l-7.905 289.847M618.832 445.642l9.36-290.218M533.46 175.579l-.744 297.761M547.455 475.007l2.284-298.137M519.672 415.311l-.29-284.28" style="fill:none;stroke:red;stroke-width:1.99999;stroke-linecap:round;stroke-linejoin:round;stroke-miterlimit:500;stroke-dasharray:none;stroke-opacity:1;visibility:visible"/><path d="M548.237 397.975a.139.139 0 0 0-.134-.015" style="fill:none;stroke:red;stroke-width:.999997;stroke-linecap:round;stroke-linejoin:round;stroke-miterlimit:500;stroke-dasharray:none;stroke-opacity:1;visibility:visible"/><path d="M478.527 424.204a.164.164 0 0 0-.147-.02M478.38 424.183l-8.619 3.243M469.66 427.574l.175 8.974M532.737 463.74l-25.507-18.602M503.073 442.108l-24.546-17.904M567.84 489.336l-20.38-14.858" style="fill:none;stroke:red;stroke-width:1.99999;stroke-linecap:round;stroke-linejoin:round;stroke-miterlimit:500;stroke-dasharray:none;stroke-opacity:1;visibility:visible"/><path d="m511.104 132.96 1.036 285.884M510.867 132.95a.424.424 0 0 0 .237.01" style="fill:none;stroke:red;stroke-width:.999997;stroke-linecap:round;stroke-linejoin:round;stroke-miterlimit:500;stroke-dasharray:none;stroke-opacity:1;visibility:visible"/><path d="m515.44 129.301 3.91 1.699M511.29 128.312l.812-.186" style="fill:none;stroke:red;stroke-width:1.99999;stroke-linecap:round;stroke-linejoin:round;stroke-miterlimit:500;stroke-dasharray:none;stroke-opacity:1;visibility:visible"/><path d="m510.867 132.95-2.33-1.025M519.31 131.074l-8.205 1.886" style="fill:none;stroke:red;stroke-width:.999997;stroke-linecap:round;stroke-linejoin:round;stroke-miterlimit:500;stroke-dasharray:none;stroke-opacity:1;visibility:visible"/><path d="m508.69 130.098-.181-.114-.072-.126.05-.125.165-.115.265-.096M510.855 129.597l.128.053.13.12.009.127-.106.125-.216.104-.31.084-.37.047-.397.013-.396-.024-.355-.06-.281-.088" style="fill:none;stroke:red;stroke-width:.666665;stroke-linecap:round;stroke-linejoin:round;stroke-miterlimit:500;stroke-dasharray:none;stroke-opacity:1;visibility:visible"/><path d="M539.365 478.275a.259.259 0 0 0 .228.015M541.061 179.276l-1.468 299.014M540.81 179.26a.424.424 0 0 0 .252.017M511.924 418.827l-5.244-3.547M514.317 177.157l.05.345.152.282.23.185.283.079.31-.048.303-.169.259-.259.188-.336.101-.369-.001-.361-.105-.318-.188-.238-.262-.132-.302-.016-.31.108-.284.218-.228.302-.149.356-.047.371M514.9 378.843l.05.298.137.229.217.143.267.034.289-.073.279-.175.245-.257.176-.313.093-.334v-.314l-.093-.268-.181-.194-.243-.085-.283.016-.29.13-.266.214-.214.293-.136.326-.047.33M514.6 281.111l.053.32.144.255.223.161.275.055.298-.062.292-.17.251-.26.18-.325.1-.35-.001-.338-.099-.29-.187-.214-.252-.111-.289.005-.301.118-.275.218-.217.298-.145.338-.05.352" style="fill:none;stroke:red;stroke-width:.999997;stroke-linecap:round;stroke-linejoin:round;stroke-miterlimit:500;stroke-dasharray:none;stroke-opacity:1;visibility:visible"/><path d="m538.295 175.473-.205-.14-.08-.157.043-.154.17-.142.274-.12.363-.084.409-.036.424.008.407.046.344.099.255.123.145.148.017.16-.106.15-.223.13-.321.105-.391.061-.423.02-.421-.034-.38-.074-.301-.109" style="fill:none;stroke:red;stroke-width:.666665;stroke-linecap:round;stroke-linejoin:round;stroke-miterlimit:500;stroke-dasharray:none;stroke-opacity:1;visibility:visible"/><path d="m542.363 173.224 7.337 3.604M542.364 173.224a.37.37 0 0 0-.25-.019M533.53 175.528l8.584-2.323" style="fill:none;stroke:red;stroke-width:1.99999;stroke-linecap:round;stroke-linejoin:round;stroke-miterlimit:500;stroke-dasharray:none;stroke-opacity:1;visibility:visible"/><path d="m540.811 179.26-7.316-3.64M549.667 176.921l-8.607 2.355" style="fill:none;stroke:red;stroke-width:.999997;stroke-linecap:round;stroke-linejoin:round;stroke-miterlimit:500;stroke-dasharray:none;stroke-opacity:1;visibility:visible"/><path d="m540.587 176.5-.19-.14-.06-.149.075-.151.203-.131.305-.096.383-.057.413-.008.396.038.343.091.248.12.127.147-.006.15-.139.143-.261.115-.348.084-.401.03-.412-.016-.376-.066-.3-.104" style="fill:none;stroke:red;stroke-width:.666665;stroke-linecap:round;stroke-linejoin:round;stroke-miterlimit:500;stroke-dasharray:none;stroke-opacity:1;visibility:visible"/><path d="M611.26 448.683a.25.25 0 0 0 .22.019M620.137 157.653l-8.656 291.049M619.893 157.64a.435.435 0 0 0 .244.014M547.392 475.08l-7.799 3.209M543.8 190.202l.055-.469.152-.463.241-.428.312-.364.364-.276.387-.169.388-.047.361.075.31.19.234.299.148.379.05.437-.058.464-.149.466-.242.424-.312.365-.361.276-.39.17-.385.045-.364-.072-.309-.19-.236-.294-.145-.378-.051-.44" style="fill:none;stroke:red;stroke-width:.999997;stroke-linecap:round;stroke-linejoin:round;stroke-miterlimit:500;stroke-dasharray:none;stroke-opacity:1;visibility:visible"/><path d="m617.002 154.116-.212-.13-.097-.144.024-.145.143-.13.252-.111.336-.076.39-.04.412.005.392.05.344.085.264.124.156.134.038.144-.084.143-.198.123-.297.092-.368.058-.407.02-.408-.028-.374-.066-.306-.108" style="fill:none;stroke:red;stroke-width:.666665;stroke-linecap:round;stroke-linejoin:round;stroke-miterlimit:500;stroke-dasharray:none;stroke-opacity:1;visibility:visible"/><path d="m620.64 152.022 7.51 3.36M620.64 152.021a.439.439 0 0 0-.24-.011M612.425 154.17l7.975-2.16" style="fill:none;stroke:red;stroke-width:1.99999;stroke-linecap:round;stroke-linejoin:round;stroke-miterlimit:500;stroke-dasharray:none;stroke-opacity:1;visibility:visible"/><path d="m619.893 157.64-7.492-3.388M628.13 155.468l-7.993 2.185" style="fill:none;stroke:red;stroke-width:.999997;stroke-linecap:round;stroke-linejoin:round;stroke-miterlimit:500;stroke-dasharray:none;stroke-opacity:1;visibility:visible"/><path d="m619.338 155.072-.2-.127-.078-.141.053-.138.18-.122.284-.095.36-.052.395-.007.39.042.338.08.254.114.143.134.01.142-.117.131-.234.11-.327.074-.383.033-.398-.02-.37-.06-.3-.098" style="fill:none;stroke:red;stroke-width:.666665;stroke-linecap:round;stroke-linejoin:round;stroke-miterlimit:500;stroke-dasharray:none;stroke-opacity:1;visibility:visible"/><path d="m618.773 445.699-7.292 3.003M622.398 168.288l.063-.451.152-.45.23-.413.297-.353.344-.263.361-.156.36-.044.33.078.281.19.211.292.125.37.034.424-.06.45-.153.448-.232.412-.296.348-.341.264-.362.16-.36.042-.329-.075-.281-.187-.212-.289-.126-.372-.036-.425" style="fill:none;stroke:red;stroke-width:.999997;stroke-linecap:round;stroke-linejoin:round;stroke-miterlimit:500;stroke-dasharray:none;stroke-opacity:1;visibility:visible"/><path d="m531.46 414.475-.275.153-.245.24-.191.29-.112.32-.024.304.068.264.154.197.217.097h.267l.278-.11.264-.197.219-.266.153-.31.071-.316-.024-.291-.11-.232-.19-.15-.244-.048-.276.055M500.003 426.454l-.283.158-.25.243-.192.297-.113.323-.024.31.075.265.157.193.231.101.273-.008.286-.106.27-.206.224-.27.156-.312.068-.322-.026-.29-.118-.238-.197-.148-.252-.048-.285.058" style="fill:none;stroke:red;stroke-width:.666665;stroke-linecap:round;stroke-linejoin:round;stroke-miterlimit:500;stroke-dasharray:none;stroke-opacity:1;visibility:visible"/><path d="m639.512 459.04-8.31 3.506M631.074 462.732l-.332 9.212" style="fill:none;stroke:red;stroke-width:.999997;stroke-linecap:round;stroke-linejoin:round;stroke-miterlimit:500;stroke-dasharray:none;stroke-opacity:1;visibility:visible"/><path d="m639.25 468.426-8.284 3.53M639.608 459.243l-.359 9.183" style="fill:none;stroke:red;stroke-width:1.99999;stroke-linecap:round;stroke-linejoin:round;stroke-miterlimit:500;stroke-dasharray:none;stroke-opacity:1;visibility:visible"/><path d="m469.815 427.44 89.037 65.65M558.852 493.09l8.893-3.758M558.612 502.71l.107-9.428M560.52 466.342l-.383-.224-.457-.174-.512-.117-.544-.063-.555.003-.541.068-.5.127-.439.18-.359.226-.266.263-.159.29-.044.299.072.298.184.288.29.26.386.224.455.174.515.12.546.063.555-.003.54-.068.503-.13.44-.179.361-.227.264-.262.155-.292.042-.3-.073-.299-.187-.287-.289-.258M596.215 451.704l-.383-.213-.459-.172-.506-.117-.54-.055-.542.005-.529.063-.487.12-.425.173-.344.219-.252.256-.145.279-.031.288.083.294.194.276.294.254.385.213.455.172.513.115.539.06.545-.006.53-.065.484-.12.429-.172.344-.221.25-.26.143-.276.03-.29-.082-.292-.196-.278-.297-.25M578.517 458.959l-.384-.219-.456-.172-.512-.114-.538-.064-.552.006-.532.066-.495.125-.43.177-.356.222-.255.26-.152.284-.04.297.08.293.188.28.292.26.385.22.456.171.512.117.544.059.55-.003.535-.069.496-.12.43-.177.354-.224.258-.264.149-.28.035-.298-.079-.296-.189-.278-.294-.259M610.618 457.666l.234-8.043M610.852 449.623a.248.248 0 0 0-.096-.2M525.223 441.087l-.363-.21-.439-.166-.494-.111-.527-.057-.54.005-.525.063-.491.116-.436.172-.36.212-.268.25-.164.269-.055.288.059.284.169.273.272.243.363.212.44.168.495.112.528.054.541-.002.53-.063.489-.117.438-.172.359-.216.265-.25.164-.272.054-.285-.062-.284-.169-.27-.273-.247M560.52 427.254l-.367-.204-.437-.16-.49-.106-.519-.057-.533.003-.517.057-.477.117-.421.164-.344.21-.255.238-.15.266-.043.276.071.274.173.26.281.243.364.203.44.158.49.115.521.052.533-.003.519-.06.48-.114.418-.17.346-.205.256-.24.146-.268.042-.276-.072-.273-.178-.264-.277-.236M574.723 433.186l.132-7.888M574.855 425.298a.247.247 0 0 0-.095-.195M573.79 421.53l-.28-.235-.183-.257-.074-.268.035-.27.148-.263.247-.235.336-.207.414-.161.178-.044" style="fill:none;stroke:red;stroke-width:.999997;stroke-linecap:round;stroke-linejoin:round;stroke-miterlimit:500;stroke-dasharray:none;stroke-opacity:1;visibility:visible"/><path d="m576.95 419.62.434.158.369.2.282.234.18.258.078.27-.037.268-.143.267-.246.233-.34.207-.411.165-.476.111-.509.057-.528.003-.52-.051-.491-.109-.437-.159-.366-.202" style="fill:none;stroke:red;stroke-width:.999997;stroke-linecap:round;stroke-linejoin:round;stroke-miterlimit:500;stroke-dasharray:none;stroke-opacity:1;visibility:visible"/><path d="m469.86 436.592 88.751 66.118M558.841 502.73l8.866-3.786M567.707 498.944l.138-9.396" style="fill:none;stroke:red;stroke-width:1.99999;stroke-linecap:round;stroke-linejoin:round;stroke-miterlimit:500;stroke-dasharray:none;stroke-opacity:1;visibility:visible"/><path d="m547.968 406.602 83.106 56.131M532.861 410.948l-26.606 10.1M503.306 422.167l-18.139 6.884M507.135 447.639l-.363-.213-.439-.17-.157-.034M503.932 447.224l-.201.048-.441.172-.37.216-.273.258-.174.276-.058.286.053.29.165.273.27.255.361.21.439.17.497.114.535.06.544-.005.531-.065.5-.122.445-.172.364-.216.277-.256.168-.276.061-.289-.054-.288-.167-.276-.27-.248" style="fill:none;stroke:red;stroke-width:.999997;stroke-linecap:round;stroke-linejoin:round;stroke-miterlimit:500;stroke-dasharray:none;stroke-opacity:1;visibility:visible"/><path d="m560.308 423.882-12.405-8.47M630.742 471.944l-20.564-14.037" style="fill:none;stroke:red;stroke-width:1.99999;stroke-linecap:round;stroke-linejoin:round;stroke-miterlimit:500;stroke-dasharray:none;stroke-opacity:1;visibility:visible"/><path d="m548.03 398.016.127-.044" style="fill:none;stroke:red;stroke-width:.999997;stroke-linecap:round;stroke-linejoin:round;stroke-miterlimit:500;stroke-dasharray:none;stroke-opacity:1;visibility:visible"/><path d="m548.157 397.972 26.102 17.448M577.393 417.514l27.29 18.242" style="fill:none;stroke:red;stroke-width:1.99999;stroke-linecap:round;stroke-linejoin:round;stroke-miterlimit:500;stroke-dasharray:none;stroke-opacity:1;visibility:visible"/><path d="m532.791 441.855-19.526 7.683M547.75 435.73l27.01-10.627" style="fill:none;stroke:red;stroke-width:.999997;stroke-linecap:round;stroke-linejoin:round;stroke-miterlimit:500;stroke-dasharray:none;stroke-opacity:1;visibility:visible"/><path d="m547.688 443.926 27.035-10.74M520.42 454.756l12.348-4.904" style="fill:none;stroke:red;stroke-width:1.99999;stroke-linecap:round;stroke-linejoin:round;stroke-miterlimit:500;stroke-dasharray:none;stroke-opacity:1;visibility:visible"/><path d="m568.359 420.775-20.555 8.017" style="fill:none;stroke:red;stroke-width:.999997;stroke-linecap:round;stroke-linejoin:round;stroke-miterlimit:500;stroke-dasharray:none;stroke-opacity:1;visibility:visible"/><path d="m532.805 434.647-26.028 10.161" style="fill:none;stroke:red;stroke-width:1.99999;stroke-linecap:round;stroke-linejoin:round;stroke-miterlimit:500;stroke-dasharray:none;stroke-opacity:1;visibility:visible"/><path d="m610.852 449.623-62.285 25.656" style="fill:none;stroke:red;stroke-width:.999997;stroke-linecap:round;stroke-linejoin:round;stroke-miterlimit:500;stroke-dasharray:none;stroke-opacity:1;visibility:visible"/><path d="m603.992 444.85-56.483 23.062M555.708 480.49l54.91-22.823" style="fill:none;stroke:red;stroke-width:1.99999;stroke-linecap:round;stroke-linejoin:round;stroke-miterlimit:500;stroke-dasharray:none;stroke-opacity:1;visibility:visible"/><path d="m510.824 126.176.059 3.57M508.616 126.212l.056 3.497M510.467 125.718l.302.322M508.96 125.738l-.296.334M510.767 126.32a.203.203 0 0 0 .002-.28M508.664 126.072a.22.22 0 0 0-.048.14.2.2 0 0 0 .064.144M508.678 126.356a.835.835 0 0 0 .334.193M509.012 126.55a2.204 2.204 0 0 0 1.43-.023M510.441 126.528a.813.813 0 0 0 .326-.208M510.461 125.712a.66.66 0 0 0-.236-.143M510.225 125.569a1.596 1.596 0 0 0-1.032.019M509.193 125.588a.592.592 0 0 0-.229.148M509.295 126.622l.621 3.398" style="fill:none;stroke:red;stroke-width:.999997;stroke-linecap:round;stroke-linejoin:round;stroke-miterlimit:2;stroke-dasharray:none;stroke-opacity:1;visibility:visible"/><path d="m512.577 131.446-.181-.113-.072-.125.05-.126.164-.114.266-.096M514.741 130.946l.129.054.13.118.009.128-.106.126-.218.104-.308.082-.369.048-.398.012-.397-.022-.353-.06-.283-.09" style="fill:none;stroke:red;stroke-width:.666665;stroke-linecap:round;stroke-linejoin:round;stroke-miterlimit:500;stroke-dasharray:none;stroke-opacity:1;visibility:visible"/><path d="m514.71 127.524.059 3.571M512.503 127.56l.056 3.5M514.353 127.066l.303.324M512.846 127.088l-.294.332M514.653 127.67a.195.195 0 0 0 .058-.145.196.196 0 0 0-.055-.135M512.55 127.421a.217.217 0 0 0-.047.139.203.203 0 0 0 .062.145M512.565 127.705a.832.832 0 0 0 .335.192M512.9 127.897a2.204 2.204 0 0 0 1.428-.02M514.328 127.878a.813.813 0 0 0 .325-.21M514.347 127.06a.656.656 0 0 0-.235-.142M514.112 126.918a1.597 1.597 0 0 0-1.03.02M513.081 126.937a.596.596 0 0 0-.23.148M513.181 127.972l.623 3.397" style="fill:none;stroke:red;stroke-width:.999997;stroke-linecap:round;stroke-linejoin:round;stroke-miterlimit:2;stroke-dasharray:none;stroke-opacity:1;visibility:visible"/><path d="m614.141 438.29.035.352.117.288.193.211.26.119.304.015.328-.087.334-.185.313-.265.272-.334.213-.377.138-.393.052-.384-.029-.35-.118-.289-.193-.211-.258-.118-.306-.018-.33.086-.33.185-.316.265-.272.334-.214.38-.137.393-.056.383" style="fill:none;stroke:red;stroke-width:.999997;stroke-linecap:round;stroke-linejoin:round;stroke-miterlimit:500;stroke-dasharray:none;stroke-opacity:1;visibility:visible"/><path d="M615.378 436.662v2.526" style="fill:none;stroke:red;stroke-width:.666665;stroke-linecap:round;stroke-linejoin:round;stroke-miterlimit:500;stroke-dasharray:none;stroke-opacity:1;visibility:visible"/><path d="m541.959 467.68.033.352.117.29.195.21.259.118.304.016.328-.087.333-.185.313-.266.272-.333.214-.377.138-.394.055-.382-.033-.352-.117-.288-.194-.212-.257-.118-.307-.017-.33.085-.329.186-.316.264-.273.334-.213.38-.136.394-.056.382" style="fill:none;stroke:red;stroke-width:.999997;stroke-linecap:round;stroke-linejoin:round;stroke-miterlimit:500;stroke-dasharray:none;stroke-opacity:1;visibility:visible"/><path d="M543.195 466.052v2.528" style="fill:none;stroke:red;stroke-width:.666665;stroke-linecap:round;stroke-linejoin:round;stroke-miterlimit:500;stroke-dasharray:none;stroke-opacity:1;visibility:visible"/><path d="m610.756 449.423-14.952-1.265M548.03 398.016l-15.153 6.188M532.861 410.948l-12.05-2.201M506.255 421.048l-3.265-5.592M503.306 422.167l-10.921 12.143M506.651 428.847l-3.521 1.349M503.13 430.196l3.521-1.349M520.811 408.747l12.033 10.067M543.195 466.052l-10.479 7.288M547.46 474.478l-14.723-10.738M507.23 445.138l-4.157-3.03M510.867 132.95l4.573-3.649M511.104 132.96l.186-4.648" style="fill:none;stroke:red;stroke-width:1.99999;stroke-linecap:round;stroke-linejoin:round;stroke-miterlimit:500;stroke-dasharray:none;stroke-opacity:1;visibility:visible"/><path d="m519.35 131-10.813.925" style="fill:none;stroke:red;stroke-width:.999997;stroke-linecap:round;stroke-linejoin:round;stroke-miterlimit:500;stroke-dasharray:none;stroke-opacity:1;visibility:visible"/><path d="m542.364 173.224-4.069 2.249M620.64 152.021l-3.638 2.095M620.64 152.021l-1.302 3.051" style="fill:none;stroke:red;stroke-width:.666665;stroke-linecap:round;stroke-linejoin:round;stroke-miterlimit:500;stroke-dasharray:none;stroke-opacity:1;visibility:visible"/><path d="m611.26 448.683-15.045 3.021M573.789 421.53l-13.269 5.724M573.79 421.53l-13.27 5.724M548.237 397.975l-.269 8.627M520.811 408.747l12.05 2.201M503.306 422.167l2.949-1.119M506.255 421.048l-2.949 1.119M478.38 424.183l6.787 4.868" style="fill:none;stroke:red;stroke-width:.999997;stroke-linecap:round;stroke-linejoin:round;stroke-miterlimit:500;stroke-dasharray:none;stroke-opacity:1;visibility:visible"/><path d="m574.76 425.103-14.452-1.221M548.237 397.975l-.334 17.437M577.393 417.514l-3.134-2.094M574.259 415.42l3.134 2.094M611.26 448.683l-6.577-12.927" style="fill:none;stroke:red;stroke-width:1.99999;stroke-linecap:round;stroke-linejoin:round;stroke-miterlimit:500;stroke-dasharray:none;stroke-opacity:1;visibility:visible"/><path d="m547.688 443.926-14.897-2.071M532.768 449.852l-19.503-.314M532.805 434.647l14.945 1.083" style="fill:none;stroke:red;stroke-width:.999997;stroke-linecap:round;stroke-linejoin:round;stroke-miterlimit:500;stroke-dasharray:none;stroke-opacity:1;visibility:visible"/><path d="m532.791 441.855 14.897 2.071M532.791 441.855l-12.371 12.901M547.688 443.926l-14.92 5.926" style="fill:none;stroke:red;stroke-width:1.99999;stroke-linecap:round;stroke-linejoin:round;stroke-miterlimit:500;stroke-dasharray:none;stroke-opacity:1;visibility:visible"/><path d="m532.805 434.647 14.999-5.855" style="fill:none;stroke:red;stroke-width:.999997;stroke-linecap:round;stroke-linejoin:round;stroke-miterlimit:500;stroke-dasharray:none;stroke-opacity:1;visibility:visible"/><path d="m547.75 435.73-14.945-1.083" style="fill:none;stroke:red;stroke-width:1.99999;stroke-linecap:round;stroke-linejoin:round;stroke-miterlimit:500;stroke-dasharray:none;stroke-opacity:1;visibility:visible"/><path d="m547.392 475.08 1.175.199" style="fill:none;stroke:red;stroke-width:.999997;stroke-linecap:round;stroke-linejoin:round;stroke-miterlimit:500;stroke-dasharray:none;stroke-opacity:1;visibility:visible"/><path d="m547.392 475.08.117-7.168M547.392 475.08l8.316 5.41" style="fill:none;stroke:red;stroke-width:1.99999;stroke-linecap:round;stroke-linejoin:round;stroke-miterlimit:500;stroke-dasharray:none;stroke-opacity:1;visibility:visible"/><path d="m513.181 127.972-3.265 2.048M509.295 126.622l4.509 4.747" style="fill:none;stroke:red;stroke-width:.999997;stroke-linecap:round;stroke-linejoin:round;stroke-miterlimit:2;stroke-dasharray:none;stroke-opacity:1;visibility:visible"/><path d="m618.832 445.642-3.454-8.98M610.852 449.623l4.526-10.435M547.455 475.007l-4.26-8.955" style="fill:none;stroke:red;stroke-width:.666665;stroke-linecap:round;stroke-linejoin:round;stroke-miterlimit:500;stroke-dasharray:none;stroke-opacity:1;visibility:visible"/><path d="m499.964 91.85 2.299 314.69M507.38 406.494l-1.776-314.658M502.263 406.54l.007.102.106.277.22.256.324.227.41.186.485.135.53.08.552.017.55-.042.52-.103.462-.157.391-.203.297-.241.188-.266.075-.28v-.034" style="fill:none;stroke:#00ff4a;stroke-width:1.99999;stroke-linecap:round;stroke-linejoin:round;stroke-miterlimit:500;stroke-dasharray:none;stroke-opacity:1;visibility:visible"/><path d="m500.79 91.19-.384.159-.269.179-.15.196-.014.2.112.195.243.185.356.161.456.135.532.097.581.058.611.015.607-.03.569-.069.515-.111.43-.14.328-.172.211-.19.077-.198-.048-.2-.182-.19-.301-.174-.41-.148-.49-.116-.563-.077-.599-.036-.608.008-.592.049-.545.088-.474.126" style="fill:none;stroke:#00ff4a;stroke-width:.999997;stroke-linecap:round;stroke-linejoin:round;stroke-miterlimit:500;stroke-dasharray:none;stroke-opacity:1;visibility:visible"/><path d="m578.877 73.05-4.865 306.571M578.968 379.71l5.352-306.58M574.012 379.622l.016.161.124.26.233.242.335.214.41.174.479.126.521.075.535.016.528-.04.495-.096.44-.145.359-.192.268-.227.162-.25.05-.23" style="fill:none;stroke:#9500ff;stroke-width:1.99999;stroke-linecap:round;stroke-linejoin:round;stroke-miterlimit:500;stroke-dasharray:none;stroke-opacity:1;visibility:visible"/><path d="m579.587 72.479-.347.148-.236.166-.116.183.01.188.138.183.256.17.365.154.456.124.527.092.572.053.59.015.578-.026.54-.066.485-.103.396-.133.292-.159.178-.177.049-.184-.073-.188-.202-.179-.312-.16-.413-.14-.496-.107-.55-.073-.579-.035-.589.006-.566.048-.512.081-.441.12" style="fill:none;stroke:#9500ff;stroke-width:.999997;stroke-linecap:round;stroke-linejoin:round;stroke-miterlimit:500;stroke-dasharray:none;stroke-opacity:1;visibility:visible"/><path d="m507.38 406.494 12.292 8.817" style="fill:none;stroke:red;stroke-width:1.99999;stroke-linecap:round;stroke-linejoin:round;stroke-miterlimit:500;stroke-dasharray:none;stroke-opacity:1;visibility:visible"/><path d="m547.392 475.08 13.128-8.738M560.52 427.254l7.839-6.479" style="fill:none;stroke:red;stroke-width:.999997;stroke-linecap:round;stroke-linejoin:round;stroke-miterlimit:500;stroke-dasharray:none;stroke-opacity:1;visibility:visible"/><path d="m547.509 467.912-4.314.668" style="fill:none;stroke:red;stroke-width:.666665;stroke-linecap:round;stroke-linejoin:round;stroke-miterlimit:500;stroke-dasharray:none;stroke-opacity:1;visibility:visible"/></svg>