<svg xmlns="http://www.w3.org/2000/svg" baseProfile="full" height="1122.52" preserveAspectRatio="xMinYMin meet" style="width:729px;height:902px" width="793.701" xml:space="preserve"><path d="m255.587 691.205.054 68.323M255.634 749.474l-26.01-17.304M178.522 640.477l2.186 68.819M195.914 710.293l-1.52-59.75" style="fill:none;stroke:red;stroke-width:1.99999;stroke-linecap:round;stroke-linejoin:round;stroke-miterlimit:500;stroke-dasharray:none;stroke-opacity:1;visibility:visible"/><path d="M287.3 709.47a.179.179 0 0 0 .179.007" style="fill:none;stroke:red;stroke-width:.999997;stroke-linecap:round;stroke-linejoin:round;stroke-miterlimit:500;stroke-dasharray:none;stroke-opacity:1;visibility:visible"/><path d="m287.478 709.477 8.97-4.7M186.712 626.004l-8.95 4.136M296.447 704.777a.18.18 0 0 0 .095-.156M296.542 704.621l.16-10.008" style="fill:none;stroke:red;stroke-width:1.99999;stroke-linecap:round;stroke-linejoin:round;stroke-miterlimit:500;stroke-dasharray:none;stroke-opacity:1;visibility:visible"/><path d="m192.488 695.258-.058-.288-.146-.204-.224-.106-.274.008-.296.12-.284.218-.242.295-.175.339-.09.345.009.316.105.25.187.157.253.052.29-.065.295-.169.267-.263.21-.323.135-.346.038-.336M191.538 659.728l-.057-.298-.151-.218-.224-.112h-.278l-.3.114-.29.222-.248.297-.177.347-.087.35.007.326.105.258.192.17.256.056.294-.056.298-.172.27-.263.214-.327.135-.352.041-.342" style="fill:none;stroke:red;stroke-width:.666665;stroke-linecap:round;stroke-linejoin:round;stroke-miterlimit:500;stroke-dasharray:none;stroke-opacity:1;visibility:visible"/><path d="m295.225 775.884-8.707 4.86M180.237 709.746l106.152 71.206M286.389 780.952l-.116 9.371" style="fill:none;stroke:red;stroke-width:.999997;stroke-linecap:round;stroke-linejoin:round;stroke-miterlimit:500;stroke-dasharray:none;stroke-opacity:1;visibility:visible"/><path d="m180.528 718.878-.291-9.132M286.273 790.323l-29.243-19.755M253.242 768.006l-72.714-49.128" style="fill:none;stroke:red;stroke-width:1.99999;stroke-linecap:round;stroke-linejoin:round;stroke-miterlimit:500;stroke-dasharray:none;stroke-opacity:1;visibility:visible"/><path d="m259.074 769.025-.11-.09M257.673 766.716l-.033-.176v-.414l.082-.35.163-.259.23-.155.288-.046.327.073.347.185.343.284.33.362.285.432.232.468.163.477.08.461v.419l-.08.343-.164.264-.233.152-.286.044-.327-.074-.346-.181M217.514 741.006l-.333-.273-.315-.357-.279-.419-.226-.456-.162-.472-.086-.45-.008-.413.073-.345.15-.26.216-.159.271-.052.31.066.332.17.33.275.315.356.28.42.228.457.163.47.085.456.005.41-.072.347-.149.26-.216.161-.272.048-.31-.068-.329-.172" style="fill:none;stroke:red;stroke-width:.999997;stroke-linecap:round;stroke-linejoin:round;stroke-miterlimit:500;stroke-dasharray:none;stroke-opacity:1;visibility:visible"/><path d="m295.193 785.449-8.674 4.883M295.34 776.1l-.146 9.349" style="fill:none;stroke:red;stroke-width:1.99999;stroke-linecap:round;stroke-linejoin:round;stroke-miterlimit:500;stroke-dasharray:none;stroke-opacity:1;visibility:visible"/><path d="m287.522 699.141 9.004-4.68M177.829 630.152l109.693 68.99M287.265 709.389l.12-10.033M287.266 709.39a.29.29 0 0 0 .252.007M287.64 699.366a.276.276 0 0 0-.12-.226M287.52 699.14a.261.261 0 0 0-.133.216" style="fill:none;stroke:red;stroke-width:.999997;stroke-linecap:round;stroke-linejoin:round;stroke-miterlimit:500;stroke-dasharray:none;stroke-opacity:1;visibility:visible"/><path d="M287.386 699.356a.273.273 0 0 0 .254.01M263.757 764.853l7.677-4.183M263.513 764.845a.243.243 0 0 0 .244.008M221.913 736.801l7.66-3.993M221.673 736.793a.263.263 0 0 0 .24.008" style="fill:none;stroke:red;stroke-width:.999997;stroke-linecap:round;stroke-linejoin:round;stroke-miterlimit:500;stroke-dasharray:none;stroke-opacity:1;visibility:visible"/><path d="m177.701 630.356.313 9.741M178.015 640.097l74.511 47.261M256.735 690.028l30.53 19.361" style="fill:none;stroke:red;stroke-width:1.99999;stroke-linecap:round;stroke-linejoin:round;stroke-miterlimit:500;stroke-dasharray:none;stroke-opacity:1;visibility:visible"/><path d="m259.125 684.722-.359-.174-.337-.052-.295.062-.237.186-.17.288-.086.376v.448M258.658 688.017l.108.117.359.28.357.171.337.056.296-.064.242-.18.168-.29.088-.379v-.44l-.087-.489-.167-.501-.241-.482-.296-.446-.339-.366-.358-.282M216.114 657.595l-.341-.165-.32-.046-.278.07-.225.186-.152.29-.076.374.008.44.089.476.166.492.235.474.287.427.326.361.344.27.34.166.32.047.28-.073.223-.184.155-.284.076-.379-.008-.437-.089-.48-.167-.489-.234-.476-.288-.43-.327-.363-.344-.267" style="fill:none;stroke:red;stroke-width:.999997;stroke-linecap:round;stroke-linejoin:round;stroke-miterlimit:500;stroke-dasharray:none;stroke-opacity:1;visibility:visible"/><path d="m296.526 694.462-109.746-68.45" style="fill:none;stroke:red;stroke-width:1.99999;stroke-linecap:round;stroke-linejoin:round;stroke-miterlimit:500;stroke-dasharray:none;stroke-opacity:1;visibility:visible"/><path d="m186.236 645.368 1.974 68.844" style="fill:none;stroke:red;stroke-width:.999997;stroke-linecap:round;stroke-linejoin:round;stroke-miterlimit:500;stroke-dasharray:none;stroke-opacity:1;visibility:visible"/><path d="m271.495 760.094 23.73 15.79M195.902 709.806l18.058 12.01" style="fill:none;stroke:red;stroke-width:1.99999;stroke-linecap:round;stroke-linejoin:round;stroke-miterlimit:500;stroke-dasharray:none;stroke-opacity:1;visibility:visible"/><path d="m221.673 736.793-.403-26.757M221.14 701.205l-.51-34.021" style="fill:none;stroke:red;stroke-width:.999997;stroke-linecap:round;stroke-linejoin:round;stroke-miterlimit:500;stroke-dasharray:none;stroke-opacity:1;visibility:visible"/><path d="m229.573 732.808-.316-27.023M229.158 697.285l-.292-24.875M212.92 662.293l.78 42.992M213.862 714.368l.316 17.401" style="fill:none;stroke:red;stroke-width:1.99999;stroke-linecap:round;stroke-linejoin:round;stroke-miterlimit:500;stroke-dasharray:none;stroke-opacity:1;visibility:visible"/><path d="m263.937 694.654-.18 70.199" style="fill:none;stroke:red;stroke-width:.999997;stroke-linecap:round;stroke-linejoin:round;stroke-miterlimit:500;stroke-dasharray:none;stroke-opacity:1;visibility:visible"/><path d="m271.434 760.67.356-61.038" style="fill:none;stroke:red;stroke-width:1.99999;stroke-linecap:round;stroke-linejoin:round;stroke-miterlimit:500;stroke-dasharray:none;stroke-opacity:1;visibility:visible"/><path d="m188.21 714.212 7.704-3.919" style="fill:none;stroke:red;stroke-width:.999997;stroke-linecap:round;stroke-linejoin:round;stroke-miterlimit:500;stroke-dasharray:none;stroke-opacity:1;visibility:visible"/><path d="m257.641 685.856-2.054 5.349M263.513 764.845l-7.879-15.371M178.014 640.097l16.38 10.446M253.242 768.006l3.788 2.562M257.03 770.568l-3.788-2.562M256.735 690.028l-4.209-2.67M252.526 687.358l4.209 2.67" style="fill:none;stroke:red;stroke-width:1.99999;stroke-linecap:round;stroke-linejoin:round;stroke-miterlimit:500;stroke-dasharray:none;stroke-opacity:1;visibility:visible"/><path d="m255.587 691.205 2.054-5.349M178.014 640.097l8.222 5.271" style="fill:none;stroke:red;stroke-width:.999997;stroke-linecap:round;stroke-linejoin:round;stroke-miterlimit:500;stroke-dasharray:none;stroke-opacity:1;visibility:visible"/><path d="m221.673 736.793-7.713-14.977" style="fill:none;stroke:red;stroke-width:1.99999;stroke-linecap:round;stroke-linejoin:round;stroke-miterlimit:500;stroke-dasharray:none;stroke-opacity:1;visibility:visible"/><path d="m221.14 701.205.13 8.831M221.27 710.036l-.13-8.831" style="fill:none;stroke:red;stroke-width:.999997;stroke-linecap:round;stroke-linejoin:round;stroke-miterlimit:500;stroke-dasharray:none;stroke-opacity:1;visibility:visible"/><path d="m229.158 697.285.099 8.5M229.257 705.785l-.099-8.5M221.27 710.036l-7.57-4.751M213.7 705.285l.162 9.083" style="fill:none;stroke:red;stroke-width:1.99999;stroke-linecap:round;stroke-linejoin:round;stroke-miterlimit:500;stroke-dasharray:none;stroke-opacity:1;visibility:visible"/><path d="m257.641 685.856 6.296 8.798" style="fill:none;stroke:red;stroke-width:.999997;stroke-linecap:round;stroke-linejoin:round;stroke-miterlimit:500;stroke-dasharray:none;stroke-opacity:1;visibility:visible"/><path d="m287.387 699.356-15.597.276" style="fill:none;stroke:red;stroke-width:1.99999;stroke-linecap:round;stroke-linejoin:round;stroke-miterlimit:500;stroke-dasharray:none;stroke-opacity:1;visibility:visible"/><path d="m496.916 568.983.281-.099.251.008.205.118.15.205.077.289.003.356-.074.389-.139.403-.204.385-.249.344-.281.276-.291.196-.278.097-.25-.009-.209-.111-.147-.209-.077-.289-.004-.355.072-.39.141-.4.204-.388.25-.344.28-.279.29-.193" style="fill:none;stroke:#00ff4a;stroke-width:.999997;stroke-linecap:round;stroke-linejoin:round;stroke-miterlimit:500;stroke-dasharray:none;stroke-opacity:1;visibility:visible"/><path d="m504.38 562.403-8.059-4.063M503.7 570.783l.787-8.183" style="fill:none;stroke:#00ff4a;stroke-width:1.99999;stroke-linecap:round;stroke-linejoin:round;stroke-miterlimit:500;stroke-dasharray:none;stroke-opacity:1;visibility:visible"/><path d="M504.487 562.6 273.135 679.81" style="fill:none;stroke:#00ff4a;stroke-width:.999997;stroke-linecap:round;stroke-linejoin:round;stroke-miterlimit:500;stroke-dasharray:none;stroke-opacity:1;visibility:visible"/><path d="M496.321 558.34 264.79 674.608M280.845 684.618l4.229-2.158M289.114 680.397 503.7 570.783" style="fill:none;stroke:#00ff4a;stroke-width:1.99999;stroke-linecap:round;stroke-linejoin:round;stroke-miterlimit:500;stroke-dasharray:none;stroke-opacity:1;visibility:visible"/><path d="m285.074 682.46-11.939-2.65" style="fill:none;stroke:#00ff4a;stroke-width:.999997;stroke-linecap:round;stroke-linejoin:round;stroke-miterlimit:500;stroke-dasharray:none;stroke-opacity:1;visibility:visible"/><path d="m289.114 680.397-4.04 2.063M285.074 682.46l4.04-2.063" style="fill:none;stroke:#00ff4a;stroke-width:1.99999;stroke-linecap:round;stroke-linejoin:round;stroke-miterlimit:500;stroke-dasharray:none;stroke-opacity:1;visibility:visible"/><path d="M497.216 638.293a.208.208 0 0 0-.101-.19" style="fill:none;stroke:#9500ff;stroke-width:1.99999;stroke-linecap:round;stroke-linejoin:round;stroke-miterlimit:500;stroke-dasharray:none;stroke-opacity:1;visibility:visible"/><path d="m281.298 758.424-.344.236-.321.318-.279.379-.215.41-.132.421-.05.397.043.344.129.273.208.18.272.079.316-.031.342-.138M282.606 759.136l-.041-.347-.128-.273-.208-.183-.272-.079-.319.032-.34.138M489.848 644.699l.273-.104.246-.008.203.093.143.188.078.27.004.324-.07.375-.141.383-.193.372-.243.336-.27.276-.283.199-.272.106-.246.006-.202-.092-.145-.187-.077-.268-.002-.328.068-.37.136-.387.198-.376.24-.337.272-.275.283-.196" style="fill:none;stroke:#9500ff;stroke-width:.999997;stroke-linecap:round;stroke-linejoin:round;stroke-miterlimit:500;stroke-dasharray:none;stroke-opacity:1;visibility:visible"/><path d="m497.115 638.103-7.798-4.214M496.475 646.001l.741-7.708" style="fill:none;stroke:#9500ff;stroke-width:1.99999;stroke-linecap:round;stroke-linejoin:round;stroke-miterlimit:500;stroke-dasharray:none;stroke-opacity:1;visibility:visible"/><path d="m497.216 638.293-224.65 122.448" style="fill:none;stroke:#9500ff;stroke-width:.999997;stroke-linecap:round;stroke-linejoin:round;stroke-miterlimit:500;stroke-dasharray:none;stroke-opacity:1;visibility:visible"/><path d="M489.317 633.889 271.543 751.58M279.302 765.222l3.704-2.032M287.091 760.946l209.384-114.945" style="fill:none;stroke:#9500ff;stroke-width:1.99999;stroke-linecap:round;stroke-linejoin:round;stroke-miterlimit:500;stroke-dasharray:none;stroke-opacity:1;visibility:visible"/><path d="m281.298 758.424-.031 2.868M283.006 763.19l-10.44-2.449" style="fill:none;stroke:#9500ff;stroke-width:.999997;stroke-linecap:round;stroke-linejoin:round;stroke-miterlimit:500;stroke-dasharray:none;stroke-opacity:1;visibility:visible"/><path d="m283.006 763.19-11.463-11.61M287.091 760.946l-4.085 2.244M283.006 763.19l4.085-2.244" style="fill:none;stroke:#9500ff;stroke-width:1.99999;stroke-linecap:round;stroke-linejoin:round;stroke-miterlimit:500;stroke-dasharray:none;stroke-opacity:1;visibility:visible"/><path d="m289.114 680.397-8.269 4.221" style="fill:none;stroke:#00ff4a;stroke-width:1.99999;stroke-linecap:round;stroke-linejoin:round;stroke-miterlimit:500;stroke-dasharray:none;stroke-opacity:1;visibility:visible"/><path d="m287.091 760.946-7.789 4.276" style="fill:none;stroke:#9500ff;stroke-width:1.99999;stroke-linecap:round;stroke-linejoin:round;stroke-miterlimit:500;stroke-dasharray:none;stroke-opacity:1;visibility:visible"/></svg>