<svg xmlns="http://www.w3.org/2000/svg" baseProfile="full" height="1122.52" preserveAspectRatio="xMinYMin meet" style="width:765px;height:943px" width="793.701" xml:space="preserve"><path d="m407.636 668.658-102.511 22.268M407.636 668.658l.246-7.197" style="fill:none;stroke:red;stroke-width:1.99999;stroke-linecap:round;stroke-linejoin:round;stroke-miterlimit:500;stroke-dasharray:none;stroke-opacity:1;visibility:visible" visibility="hidden"/><path d="m407.883 661.461-102.657 22.02M305.125 690.926l.1-7.445" style="fill:none;stroke:red;stroke-width:.999997;stroke-linecap:round;stroke-linejoin:round;stroke-miterlimit:500;stroke-dasharray:none;stroke-opacity:1;visibility:visible" visibility="hidden"/><path d="m341.2 623.2 66.682 38.26M229.895 559.253l31.763 18.242M265.071 579.455l31.504 18.088" style="fill:none;stroke:red;stroke-width:1.99999;stroke-linecap:round;stroke-linejoin:round;stroke-miterlimit:500;stroke-dasharray:none;stroke-opacity:1;visibility:visible" visibility="hidden"/><path d="M305.226 683.481 140.08 574.048" style="fill:none;stroke:red;stroke-width:.999997;stroke-linecap:round;stroke-linejoin:round;stroke-miterlimit:500;stroke-dasharray:none;stroke-opacity:1;visibility:visible" visibility="hidden"/><path d="m140.079 574.048 30.366-5.001M173.643 568.52l30.805-5.073M207.733 562.905l1.51-.249M212.91 562.053l16.984-2.8M140.201 580.288l-.121-6.24M305.125 690.926 140.2 580.288" style="fill:none;stroke:red;stroke-width:1.99999;stroke-linecap:round;stroke-linejoin:round;stroke-miterlimit:500;stroke-dasharray:none;stroke-opacity:1;visibility:visible" visibility="hidden"/><path d="m331.974 673.328.243.097.315.063.348.012.32-.04.246-.084.137-.116.001-.129-.129-.122M331.88 673.044l-.032.03-.004.126.13.128" style="fill:none;stroke:red;stroke-width:.666665;stroke-linecap:round;stroke-linejoin:round;stroke-miterlimit:500;stroke-dasharray:none;stroke-opacity:1;visibility:visible" visibility="hidden"/><path d="m265.071 579.455-3.413-1.96M261.658 577.495l3.413 1.96M173.643 568.52l-3.198.527M170.445 569.047l3.198-.527M207.733 562.905l-3.285.542M204.448 563.447l3.285-.542M212.91 562.053l-3.667.603M209.243 562.656l3.667-.603" style="fill:none;stroke:red;stroke-width:1.99999;stroke-linecap:round;stroke-linejoin:round;stroke-miterlimit:500;stroke-dasharray:none;stroke-opacity:1;visibility:visible" visibility="hidden"/><path d="m331.974 673.328 1.481-.319" style="fill:none;stroke:red;stroke-width:.666665;stroke-linecap:round;stroke-linejoin:round;stroke-miterlimit:500;stroke-dasharray:none;stroke-opacity:1;visibility:visible" visibility="hidden"/><path d="m202.747 475.786 10.673-1.456M183.17 478.452l11.03-1.502M163.32 481.154l11.398-1.551M391.604 476.928l-71.322 10.436M320.023 503.504l77.387-11.781M388.564 565.244l-.837 28.15M390.724 492.74l-1.437 48.248M143.409 526.304l4.341 2.63M147.856 528.955l9.348-1.423M156.539 477.55l-.719-44.952M157.331 527.38l-.701-44.19M388.121 593.319l-13.649 2.591M371.16 596.541l-35.49 6.739M332.584 603.863l-14.209 2.697M318.109 623.028l75.688-14.828M202.129 507.699l-28.98 4.273M169.87 512.454l-12.745 1.881M219.81 505.094l-6.23.92M212.457 518.947l8.226-1.25M157.33 527.32l29.534-4.485M319.434 540.3l18.612 9.413M188.953 474.295l112.876 57.097M347.606 548.085l-28.072-14.01M302.519 476.15 170.9 417.584M325.878 486.546l-5.544-2.467M320.438 477.582l16.704 7.316M188.538 419.818l114.062 49.95M302.675 463.728l-112.204-48.393M348.057 483.302l-27.521-11.87M169.525 476.89l36.999 19.308M213.394 499.783l45.81 23.903M266.386 527.432l35.26 18.399M301.726 539.483 171.76 472.58M325.69 551.817l-6.387-3.287M319.655 526.48l39.877 19.574M208.121 471.73l93.877 46.081M302.071 511.91l-91.851-44.49M369.175 544.415l-49.424-23.941M320.631 465.483l38.22 16.237M207.91 417.59l94.836 40.294M305.283 453.08l-95.503-39.96M369.875 480.107l-49.15-20.565M391.358 471.457l-158.623-63.584M302.427 483.51l-147.443-66.803M146.601 428.234l155.596 73.645M301.346 569.961l-36.296-19.905M261.631 548.18l-48.888-26.812M208.786 519.198l-13.812-7.574M318.518 597.624l11.757 6.677M186.88 522.847l114.244 64.896M319.863 513.458l60.817 28.997M227.31 469.332l74.847 35.684M389.307 540.284l-69.35-32.63M150.086 479.663l58.036 31.267M212.911 513.51l47.835 25.773M265.81 542.011l35.645 19.204M301.536 554.613l-35.268-18.745M260.622 532.868l-46.996-24.978M208.038 504.92l-55.637-29.57" style="fill:none;stroke:#00ff4a;stroke-width:1.99999;stroke-linecap:round;stroke-linejoin:round;stroke-miterlimit:500;stroke-dasharray:none;stroke-opacity:1;visibility:visible"/><path d="m222.058 473.154 1.813-.246" style="fill:none;stroke:#00ff4a;stroke-width:.999997;stroke-linecap:round;stroke-linejoin:round;stroke-miterlimit:500;stroke-dasharray:none;stroke-opacity:1;visibility:visible"/><path d="m389.69 540.921-70.456 11.995M216.395 461.267l-59.99 7.904" style="fill:none;stroke:#00ff4a;stroke-width:1.99999;stroke-linecap:round;stroke-linejoin:round;stroke-miterlimit:500;stroke-dasharray:none;stroke-opacity:1;visibility:visible"/><path d="m204.309 421.304 9.671-1.132M184.478 423.627l10.067-1.179M173.178 424.951l1.662-.196" style="fill:none;stroke:#00ff4a;stroke-width:.999997;stroke-linecap:round;stroke-linejoin:round;stroke-miterlimit:500;stroke-dasharray:none;stroke-opacity:1;visibility:visible"/><path d="m233.358 478.627-.007-6.417M233.37 491.07l-.008-6.95M233.393 515.83l-.006-5.615M219.46 407.002l-63.93 7.205" style="fill:none;stroke:#00ff4a;stroke-width:1.99999;stroke-linecap:round;stroke-linejoin:round;stroke-miterlimit:500;stroke-dasharray:none;stroke-opacity:1;visibility:visible"/><path d="m233.333 452.204-.003-1.017" style="fill:none;stroke:#00ff4a;stroke-width:.999997;stroke-linecap:round;stroke-linejoin:round;stroke-miterlimit:500;stroke-dasharray:none;stroke-opacity:1;visibility:visible"/><path d="m219.278 433.281.02 5.839M219.24 422.403l.02 5.348M233.313 433.814l-.006-5.43M233.325 445.363l-.007-5.935" style="fill:none;stroke:#00ff4a;stroke-width:1.99999;stroke-linecap:round;stroke-linejoin:round;stroke-miterlimit:500;stroke-dasharray:none;stroke-opacity:1;visibility:visible"/><path d="m219.32 444.856.007 1.004" style="fill:none;stroke:#00ff4a;stroke-width:.999997;stroke-linecap:round;stroke-linejoin:round;stroke-miterlimit:500;stroke-dasharray:none;stroke-opacity:1;visibility:visible"/><path d="m307.275 625.45 10.687-2.092M233.269 515.975a.145.145 0 0 0 .124-.145M229.822 516.499l3.448-.524M219.534 502.986l.008 2.149M219.487 489.74l.027 7.42M219.44 477.287l.027 6.843" style="fill:none;stroke:#00ff4a;stroke-width:1.99999;stroke-linecap:round;stroke-linejoin:round;stroke-miterlimit:500;stroke-dasharray:none;stroke-opacity:1;visibility:visible"/><path d="m394.122 596.45-5.962-3.125M219.833 505.1l4.116 2.155M224.583 418.965a.128.128 0 0 0 .075.123M232.679 407.867l-7.989.908M387.763 473.335l.325.103.412.08.468.052.494.018.484-.01.442-.046.37-.072.272-.097.16-.116.032-.124-.099-.125-.219-.118-.324-.1-.413-.081-.467-.053-.492-.018-.482.012-.443.044-.37.074-.274.097-.159.115-.032.124.096.124.219.117M232.255 410.486l-.145-.083-.039-.09.067-.088.172-.082.264-.068.339-.05.387-.034.413-.008.41.015.378.037.319.056.245.073.145.086.041.088-.068.088-.17.081-.263.07-.339.052-.388.031-.413.01-.413-.017-.378-.035-.319-.059-.245-.073M146.526 428.11a.133.133 0 0 0 .075.124M154.917 416.696l-8.435.958M302.401 485.458l-.195-.034-.473-.057-.503-.02-.503.013-.467.048-.4.078-.306.102-.192.123-.059.133.07.13.2.129" style="fill:none;stroke:#00ff4a;stroke-width:.999997;stroke-linecap:round;stroke-linejoin:round;stroke-miterlimit:500;stroke-dasharray:none;stroke-opacity:1;visibility:visible"/><path d="M299.573 486.102a5.824 5.824 0 0 0 2.817.186M153.857 419.46l-.13-.089-.021-.093.091-.094.196-.086.288-.07.36-.057.407-.033.428-.01.418.018.38.037.316.06.232.077.13.088.021.095-.088.092-.196.087-.29.072-.359.054-.406.034-.431.01-.416-.017-.381-.039-.318-.061-.231-.075M146.344 417.822l.182 10.288M146.482 417.654a.167.167 0 0 0-.138.168M186.724 512.97l.098 9.767M186.857 512.807a.163.163 0 0 0-.133.163" style="fill:none;stroke:#00ff4a;stroke-width:.999997;stroke-linecap:round;stroke-linejoin:round;stroke-miterlimit:500;stroke-dasharray:none;stroke-opacity:1;visibility:visible"/><path d="m371.707 598.13-.083.048-.069.135.07.138.195.128.304.101.38.067.411.021.401-.023.345-.065.255-.101.131-.129v-.138l-.135-.133" style="fill:none;stroke:#00ff4a;stroke-width:.666665;stroke-linecap:round;stroke-linejoin:round;stroke-miterlimit:500;stroke-dasharray:none;stroke-opacity:1;visibility:visible"/><path d="m140.721 385.491 4.45 1.87M151.04 480.178l-.422-.146-.393-.246-.327-.336-.248-.408-.156-.466-.06-.501.042-.515.14-.505.233-.473.315-.423.381-.352.435-.268.468-.17.48-.061.47.042.44.15.394.248.126.112M145.376 387.372l9.62-.99M145.17 387.36l2.524 141.466" style="fill:none;stroke:#00ff4a;stroke-width:.999997;stroke-linecap:round;stroke-linejoin:round;stroke-miterlimit:500;stroke-dasharray:none;stroke-opacity:1;visibility:visible"/><path d="m140.86 385.323 9.576-.978M150.436 384.345l4.49 1.855M143.35 526.196l-2.629-140.705" style="fill:none;stroke:#00ff4a;stroke-width:1.99999;stroke-linecap:round;stroke-linejoin:round;stroke-miterlimit:500;stroke-dasharray:none;stroke-opacity:1;visibility:visible"/><path d="m399.525 444.302 10.326-1.388M399.269 444.284l-3.521 113.02M395.491 565.54l-1.332 42.701" style="fill:none;stroke:#00ff4a;stroke-width:.999997;stroke-linecap:round;stroke-linejoin:round;stroke-miterlimit:500;stroke-dasharray:none;stroke-opacity:1;visibility:visible"/><path d="m404.427 606.302-10.02 1.963M409.851 442.913l-3.785 114.041M405.708 567.688l-1.281 38.615" style="fill:none;stroke:#00ff4a;stroke-width:1.99999;stroke-linecap:round;stroke-linejoin:round;stroke-miterlimit:500;stroke-dasharray:none;stroke-opacity:1;visibility:visible"/><path d="m392.275 441.691 6.993 2.593M405.262 484.708l-.072.539-.178.523-.272.477-.356.403-.413.31-.447.192-.458.07-.44-.06-.399-.187-.332-.3-.247-.4-.145-.473-.039-.522.072-.538.179-.523.275-.477.354-.406.414-.308.449-.196.457-.068.44.062.398.188.332.3.245.401.147.475.036.518" style="fill:none;stroke:#00ff4a;stroke-width:.999997;stroke-linecap:round;stroke-linejoin:round;stroke-miterlimit:500;stroke-dasharray:none;stroke-opacity:1;visibility:visible"/><path d="m402.715 440.126 7.037 2.57M392.432 441.494l10.283-1.368" style="fill:none;stroke:#00ff4a;stroke-width:1.99999;stroke-linecap:round;stroke-linejoin:round;stroke-miterlimit:500;stroke-dasharray:none;stroke-opacity:1;visibility:visible"/><path d="m223.87 379.25-4.78-1.775M227.006 466.29a2.813 2.813 0 0 0-.38 1.404M226.627 467.694a1.981 1.981 0 0 0 1.611 2.08M233.181 378.322l-9.104.938M219.475 407.004l4.196 1.703M210.762 413.53l-.32-.21-.425-.16-.457-.054-.465.052-.454.158-.424.258-.375.344-.31.416-.228.47-.143.503-.046.515M207.115 415.822a2.083 2.083 0 0 0 1.772 2.186M171.896 418.028l-.378-.248-.438-.162-.47-.054-.477.056-.467.16-.433.26-.383.35-.317.42-.23.478-.143.51-.043.52" style="fill:none;stroke:#00ff4a;stroke-width:.999997;stroke-linecap:round;stroke-linejoin:round;stroke-miterlimit:500;stroke-dasharray:none;stroke-opacity:1;visibility:visible"/><path d="M168.117 420.318a2.143 2.143 0 0 0 1.779 2.205M191.461 415.762l-.351-.23-.428-.157-.464-.055-.47.054-.46.158-.43.262-.381.346-.31.416-.232.474-.142.506-.043.518M187.75 418.054a2.11 2.11 0 0 0 1.776 2.196M395.49 555.637l-.002.033-.006.03-.012.024-.011.02-.017.013-.019.007h-.001M395.758 543.767l-6.032-2.842M211.155 467.874l-.049-.044-.373-.246-.423-.146-.45-.044-.46.061-.45.164-.419.26-.371.345-.305.414-.228.465-.14.493-.045.506M207.442 470.102a2.01 2.01 0 0 0 1.615 2.088M172.712 473.068l-.1-.088-.385-.246-.434-.148-.465-.046-.471.064-.464.168-.428.263-.379.35-.312.421-.232.47-.137.502-.045.51M168.861 475.289a2.06 2.06 0 0 0 1.609 2.096M192.062 470.453l-.072-.065-.381-.246-.429-.148-.455-.044-.468.062-.453.168-.426.26-.374.347-.31.416-.23.468-.139.5-.042.508M188.282 472.679a2.03 2.03 0 0 0 1.614 2.09M397.482 491.584l-.003.036-.007.028-.009.027-.013.021-.018.016-.016.008-.006.003M397.758 479.419l-6.12-2.484M397.855 479.638a.236.236 0 0 0-.097-.22" style="fill:none;stroke:#00ff4a;stroke-width:.999997;stroke-linecap:round;stroke-linejoin:round;stroke-miterlimit:500;stroke-dasharray:none;stroke-opacity:1;visibility:visible"/><path d="m228.291 376.387-9.068.927M233.109 378.147l-4.819-1.76" style="fill:none;stroke:#00ff4a;stroke-width:1.99999;stroke-linecap:round;stroke-linejoin:round;stroke-miterlimit:500;stroke-dasharray:none;stroke-opacity:1;visibility:visible"/><path d="m320.71 454.897-11.037 1.486M309.673 456.382l-2.34 168.945" style="fill:none;stroke:#00ff4a;stroke-width:.999997;stroke-linecap:round;stroke-linejoin:round;stroke-miterlimit:500;stroke-dasharray:none;stroke-opacity:1;visibility:visible"/><path d="m318.02 623.233 2.69-168.335" style="fill:none;stroke:#00ff4a;stroke-width:1.99999;stroke-linecap:round;stroke-linejoin:round;stroke-miterlimit:500;stroke-dasharray:none;stroke-opacity:1;visibility:visible"/><path d="m309.413 456.363-6.586-2.767" style="fill:none;stroke:#00ff4a;stroke-width:.999997;stroke-linecap:round;stroke-linejoin:round;stroke-miterlimit:500;stroke-dasharray:none;stroke-opacity:1;visibility:visible"/><path d="m320.615 454.674-6.638-2.744M313.977 451.93l-10.987 1.46M300.729 621.455l6.353 3.848M302.827 453.596l-2.097 167.859" style="fill:none;stroke:#00ff4a;stroke-width:1.99999;stroke-linecap:round;stroke-linejoin:round;stroke-miterlimit:500;stroke-dasharray:none;stroke-opacity:1;visibility:visible"/><path d="m318.702 586.044 13.063 7.257M335.96 595.633l10.108 5.614M301.262 576.63l-114.538-63.66" style="fill:none;stroke:#00ff4a;stroke-width:.999997;stroke-linecap:round;stroke-linejoin:round;stroke-miterlimit:500;stroke-dasharray:none;stroke-opacity:1;visibility:visible"/><path d="m355.178 599.517-17.98-9.861M331.712 586.647l-12.906-7.078" style="fill:none;stroke:#00ff4a;stroke-width:1.99999;stroke-linecap:round;stroke-linejoin:round;stroke-miterlimit:500;stroke-dasharray:none;stroke-opacity:1;visibility:visible"/><path d="m394.215 596.669-75.914 14.544M214.946 508.59l9.004-1.335M157.169 517.166l49.025-7.276M391.204 476.6l-166.647-67.662M302.353 489.542l-156.01-71.72" style="fill:none;stroke:#00ff4a;stroke-width:.999997;stroke-linecap:round;stroke-linejoin:round;stroke-miterlimit:500;stroke-dasharray:none;stroke-opacity:1;visibility:visible"/><path d="m391.224 476.983 1.051-35.292M154.996 386.38l.488 30.555" style="fill:none;stroke:#00ff4a;stroke-width:1.99999;stroke-linecap:round;stroke-linejoin:round;stroke-miterlimit:500;stroke-dasharray:none;stroke-opacity:1;visibility:visible"/><path d="m319.169 556.921 76.589-13.155M156.446 471.735l64.099-8.504M320.225 490.863l77.533-11.444" style="fill:none;stroke:#00ff4a;stroke-width:.999997;stroke-linecap:round;stroke-linejoin:round;stroke-miterlimit:500;stroke-dasharray:none;stroke-opacity:1;visibility:visible"/><path d="m318.974 569.12 76.516-13.483" style="fill:none;stroke:#00ff4a;stroke-width:1.99999;stroke-linecap:round;stroke-linejoin:round;stroke-miterlimit:500;stroke-dasharray:none;stroke-opacity:1;visibility:visible"/><path d="m224.419 505.536.023 8.104M224.198 424.512l.015 5.378M224.076 379.261l.11 39.883M224.04 441.232l-.014-5.872M224.06 448.004l-.003-1.008M224.132 474.16l-.025-9.242M224.167 486.475l-.02-6.879M224.202 499.575l-.019-7.46M223.743 408.884l-68.177 7.742" style="fill:none;stroke:#00ff4a;stroke-width:.999997;stroke-linecap:round;stroke-linejoin:round;stroke-miterlimit:500;stroke-dasharray:none;stroke-opacity:1;visibility:visible"/><path d="m219.09 377.475.107 29.555M233.209 408.067l-.029-29.745M233.305 504.26l-.008-7.534" style="fill:none;stroke:#00ff4a;stroke-width:1.99999;stroke-linecap:round;stroke-linejoin:round;stroke-miterlimit:500;stroke-dasharray:none;stroke-opacity:1;visibility:visible"/><path d="m403.192 548.75-.072.537-.178.522-.274.478-.354.403-.412.31-.448.192-.459.069-.44-.06-.399-.185-.332-.301-.244-.4-.148-.475-.038-.519.073-.541.177-.52.276-.48.354-.404.414-.308.45-.196.456-.067.44.06.396.188.333.303.245.399.147.474.037.521M403.35 485.878l-.532-1.035 1.124-.475M315.55 564.076l-.072.537-.178.524-.273.476-.354.404-.414.31-.448.193-.457.068-.44-.058-.399-.187-.332-.303-.246-.399-.147-.473-.039-.521.074-.539.178-.523.275-.477.355-.405.413-.308.45-.196.456-.067.441.061.397.187.332.303.244.4.148.473.036.52" style="fill:none;stroke:#00ff4a;stroke-width:.999997;stroke-linecap:round;stroke-linejoin:round;stroke-miterlimit:500;stroke-dasharray:none;stroke-opacity:1;visibility:visible"/><path d="m401.279 549.917-.53-1.034 1.121-.474M316.383 497.91l-.072.537-.177.523-.274.477-.354.403-.413.31-.448.193-.458.069-.44-.06-.397-.185-.333-.302-.247-.4-.145-.473-.04-.522.073-.538.179-.523.273-.477.356-.406.413-.308.451-.196.456-.066.44.06.397.189.332.301.245.4.147.474.036.52M313.638 565.245l-.532-1.035 1.124-.474" style="fill:none;stroke:#00ff4a;stroke-width:.999997;stroke-linecap:round;stroke-linejoin:round;stroke-miterlimit:500;stroke-dasharray:none;stroke-opacity:1;visibility:visible"/><path d="m314.471 499.079-.531-1.036 1.123-.473" style="fill:none;stroke:#00ff4a;stroke-width:.999997;stroke-linecap:round;stroke-linejoin:round;stroke-miterlimit:500;stroke-dasharray:none;stroke-opacity:1;visibility:visible"/><path d="m322.37 585.188-.08.048-.065.13.068.136.19.125.295.098.365.065.402.022.385-.024.335-.063.245-.098.128-.127-.001-.135-.132-.129M170.757 513.294l-.072.04-.056.118.064.119.172.109.265.092.328.056.356.022.346-.022.296-.057.217-.091.11-.108-.006-.122-.119-.116" style="fill:none;stroke:#00ff4a;stroke-width:.666665;stroke-linecap:round;stroke-linejoin:round;stroke-miterlimit:500;stroke-dasharray:none;stroke-opacity:1;visibility:visible"/><path d="m194.2 476.95 8.547-1.164M222.058 473.154l-8.638 1.176M174.718 479.603l8.452-1.151M202.747 475.786l-8.547 1.164M183.17 478.452l-8.452 1.151M302.39 486.288l17.892 1.076M395.748 557.304l-7.184 7.94M391.224 476.983l-.5 15.757M156.63 483.19l-.091-5.64M146.526 428.11l9.294 4.488M156.539 477.55l.091 5.64M371.16 596.541l3.312-.631M374.472 595.91l-3.312.631M332.584 603.863l3.086-.583M335.67 603.28l-3.086.583M317.962 623.358l.413-16.798M213.58 506.014l-11.451 1.685M169.87 512.454l3.279-.482M173.149 511.972l-3.279.482M157.204 527.532l-.079-13.197M206.194 509.89l7.386-3.876M206.194 509.89l6.263 9.057M229.822 516.499l-9.139 1.198M325.69 551.817l-6.256-11.517M319.303 548.53l18.743 1.183M319.534 534.075l-17.705-2.683M301.829 531.392l17.705 2.683M320.438 477.582l-17.919-1.432M320.438 477.582l5.44 8.964M337.142 484.898l-16.808-.819M325.878 486.546l-5.44-8.964M320.334 484.079l16.808.819M302.827 453.596l-.227 16.172M302.827 453.596l-.152 10.132M325.878 486.546l-5.342-15.114M213.394 499.783l-6.87-3.585M208.038 504.92l5.356-5.137M266.386 527.432l-7.182-3.746M260.622 532.868l5.764-5.436M319.303 548.53l-17.657-2.699M319.434 540.3l-17.708-.817M319.434 540.3l6.256 11.517M301.646 545.831l17.657 2.699M301.829 531.392l17.826-4.912M319.751 520.474l-17.753-2.663M319.863 513.458l-17.792-1.548M301.998 517.811l17.753 2.663M320.615 454.674l.016 10.809M224.658 419.088l-16.748-1.498M302.827 453.596l-.081 4.288M302.827 453.596l2.456-.516M223.671 408.707l-13.891 4.413M320.615 454.674l.11 4.868M387.763 473.335l3.595-1.878M320.334 484.079l-17.907-.569M319.957 507.654l-17.76-5.775M318.806 579.569l-17.46-9.608M261.631 548.18l3.419 1.876M265.05 550.056l-3.419-1.876M208.786 519.198l3.957 2.17M212.743 521.368l-3.957-2.17M208.122 510.93l-13.148.694M331.765 593.301l-13.247 4.323M335.96 595.633l-5.685 8.668M318.702 586.044l-17.578 1.699M302.071 511.91l17.792 1.548M389.726 540.925l-9.046 1.53M319.957 507.654l-17.8-2.638M302.157 505.016l17.8 2.638M212.911 513.51l-4.789-2.58M208.122 510.93l4.789 2.58M265.81 542.011l-5.064-2.728M260.746 539.283l5.064 2.728M319.303 548.53l-17.767 6.083M260.622 532.868l5.646 3M266.268 535.868l-5.646-3M208.122 510.93l5.504-3.04M213.626 507.89l-5.588-2.97" style="fill:none;stroke:#00ff4a;stroke-width:1.99999;stroke-linecap:round;stroke-linejoin:round;stroke-miterlimit:500;stroke-dasharray:none;stroke-opacity:1;visibility:visible"/><path d="m213.42 474.33 8.638-1.176" style="fill:none;stroke:#00ff4a;stroke-width:.999997;stroke-linecap:round;stroke-linejoin:round;stroke-miterlimit:500;stroke-dasharray:none;stroke-opacity:1;visibility:visible"/><path d="m222.058 473.154-5.663-11.887" style="fill:none;stroke:#00ff4a;stroke-width:1.99999;stroke-linecap:round;stroke-linejoin:round;stroke-miterlimit:500;stroke-dasharray:none;stroke-opacity:1;visibility:visible"/><path d="m194.545 422.448 9.764-1.144M224.69 408.775l-10.71 11.397M174.84 424.755l9.638-1.128M204.309 421.304l-9.764 1.144M184.478 423.627l-9.638 1.128" style="fill:none;stroke:#00ff4a;stroke-width:.999997;stroke-linecap:round;stroke-linejoin:round;stroke-miterlimit:500;stroke-dasharray:none;stroke-opacity:1;visibility:visible"/><path d="m233.362 484.12-.004-5.493M226.626 467.694l6.725 4.516M233.297 496.726l.073-5.656M233.358 478.627l.004 5.493M233.305 504.26l.082 5.955M154.917 416.696l.613-2.489" style="fill:none;stroke:#00ff4a;stroke-width:1.99999;stroke-linecap:round;stroke-linejoin:round;stroke-miterlimit:500;stroke-dasharray:none;stroke-opacity:1;visibility:visible"/><path d="m224.057 446.996 9.276 5.208M233.325 445.363l.005 5.824" style="fill:none;stroke:#00ff4a;stroke-width:.999997;stroke-linecap:round;stroke-linejoin:round;stroke-miterlimit:500;stroke-dasharray:none;stroke-opacity:1;visibility:visible"/><path d="m219.26 427.751.018 5.53M219.32 444.856l-.022-5.736M224.186 419.144l-4.946 3.259M219.278 433.281l-.018-5.53M233.318 439.428l-.005-5.614M224.213 429.89l9.094-1.506M233.33 451.187l-.005-5.824M233.313 433.814l.005 5.614" style="fill:none;stroke:#00ff4a;stroke-width:1.99999;stroke-linecap:round;stroke-linejoin:round;stroke-miterlimit:500;stroke-dasharray:none;stroke-opacity:1;visibility:visible"/><path d="m224.06 448.004-4.74-3.148M224.057 446.996l-4.73-1.136" style="fill:none;stroke:#00ff4a;stroke-width:.999997;stroke-linecap:round;stroke-linejoin:round;stroke-miterlimit:500;stroke-dasharray:none;stroke-opacity:1;visibility:visible"/><path d="m220.683 517.697 9.139-1.198M224.202 499.575l-4.668 3.411M219.467 484.13l.02 5.61M219.534 502.986l-.02-5.826M224.132 474.16l-4.692 3.127M219.487 489.74l-.02-5.61" style="fill:none;stroke:#00ff4a;stroke-width:1.99999;stroke-linecap:round;stroke-linejoin:round;stroke-miterlimit:500;stroke-dasharray:none;stroke-opacity:1;visibility:visible"/><path d="m391.358 471.457-3.595 1.878M395.49 555.637l.258 1.667M395.748 557.304l-.257 8.236" style="fill:none;stroke:#00ff4a;stroke-width:.999997;stroke-linecap:round;stroke-linejoin:round;stroke-miterlimit:500;stroke-dasharray:none;stroke-opacity:1;visibility:visible"/><path d="m395.49 555.637 10.576 1.317M406.066 556.954l-.358 10.734" style="fill:none;stroke:#00ff4a;stroke-width:1.99999;stroke-linecap:round;stroke-linejoin:round;stroke-miterlimit:500;stroke-dasharray:none;stroke-opacity:1;visibility:visible"/><path d="m397.855 479.638 7.407 5.07M331.712 586.647l-13.01-.603M335.96 595.633l-4.195-2.332M331.765 593.301l4.195 2.332M337.198 589.656l8.87 11.591M318.806 579.569l-17.544-2.939" style="fill:none;stroke:#00ff4a;stroke-width:.999997;stroke-linecap:round;stroke-linejoin:round;stroke-miterlimit:500;stroke-dasharray:none;stroke-opacity:1;visibility:visible"/><path d="m335.96 595.633 19.218 3.884M331.712 586.647l5.486 3.009M337.198 589.656l-5.486-3.009M301.262 576.63l17.544 2.939" style="fill:none;stroke:#00ff4a;stroke-width:1.99999;stroke-linecap:round;stroke-linejoin:round;stroke-miterlimit:500;stroke-dasharray:none;stroke-opacity:1;visibility:visible"/><path d="m317.962 623.358.339-12.145M219.81 505.094l-4.864 3.496M157.204 527.532l-.035-10.366M213.58 506.014l-7.386 3.876M320.334 484.079l-17.981 5.463M174.718 479.603l-18.272-7.868M222.058 473.154l-1.513-9.923M302.39 486.288l17.835 4.575M219.542 505.135l4.877.401M233.393 515.83l-8.951-2.19M224.186 419.144l.012 5.368M224.026 435.36l.187-5.47M224.057 446.996l-.017-5.764M224.213 429.89l-.187 5.47M219.32 444.856l4.74 3.148M219.327 445.86l4.73 1.136M224.147 479.596l-.015-5.436M226.626 467.694l-2.519-2.776M224.183 492.115l-.016-5.64M224.132 474.16l.015 5.436M219.534 502.986l4.668-3.411M224.167 486.475l.016 5.64" style="fill:none;stroke:#00ff4a;stroke-width:.999997;stroke-linecap:round;stroke-linejoin:round;stroke-miterlimit:500;stroke-dasharray:none;stroke-opacity:1;visibility:visible"/><path d="m233.387 510.215-.082-5.955M233.37 491.07l-.073 5.656" style="fill:none;stroke:#00ff4a;stroke-width:1.99999;stroke-linecap:round;stroke-linejoin:round;stroke-miterlimit:500;stroke-dasharray:none;stroke-opacity:1;visibility:visible"/><path d="m397.41 491.723 6.532-7.355" style="fill:none;stroke:#00ff4a;stroke-width:.999997;stroke-linecap:round;stroke-linejoin:round;stroke-miterlimit:500;stroke-dasharray:none;stroke-opacity:1;visibility:visible"/><path d="m174.718 479.603 14.235-5.308M174.718 479.603l-5.193-2.713M174.718 479.603l-2.958-7.023M233.333 452.204l-6.023 17.128M301.346 569.961l.109-8.746" style="fill:none;stroke:#00ff4a;stroke-width:1.99999;stroke-linecap:round;stroke-linejoin:round;stroke-miterlimit:500;stroke-dasharray:none;stroke-opacity:1;visibility:visible"/><path d="m213.42 474.33 10.451-1.422M184.478 423.627l-11.3 1.324M156.446 471.735l-5.406 8.443M207.91 417.59l.977.418M207.91 417.59l-18.384 2.66" style="fill:none;stroke:#00ff4a;stroke-width:.999997;stroke-linecap:round;stroke-linejoin:round;stroke-miterlimit:500;stroke-dasharray:none;stroke-opacity:1;visibility:visible"/><path d="m318.702 586.044.272-16.924" style="fill:none;stroke:#00ff4a;stroke-width:1.99999;stroke-linecap:round;stroke-linejoin:round;stroke-miterlimit:500;stroke-dasharray:none;stroke-opacity:1;visibility:visible"/><path d="m395.49 555.637 7.702-6.887M301.536 554.613l12.694 9.123" style="fill:none;stroke:#00ff4a;stroke-width:.999997;stroke-linecap:round;stroke-linejoin:round;stroke-miterlimit:500;stroke-dasharray:none;stroke-opacity:1;visibility:visible"/></svg>