<svg xmlns="http://www.w3.org/2000/svg" baseProfile="full" height="1122.52" preserveAspectRatio="xMinYMin meet" style="width:765px;height:943px" width="793.701" xml:space="preserve"><path d="m390.236 915.027 7.244-2.793M372.06 922.035l13.143-5.065M356.895 927.882l10.101-3.893M404.335 644.745l-.048 9.346M409.69 653.561l.062-9.833M384.976 665.032l.246 270.855M390.227 935.875l.15-267.955M443.014 662.402l-.306 18.866-.042 3.281-4.276 269.233M443.487 953.874l4.741-270.962.016-1.555.362-20.193M423.178 683.962l-.028 2.642-.208 3.756-2.56 270.13M425.51 961.253l3.213-272.596.01-1.993.047-3.84M462.339 657.243l-.4 17.837-.055 3.808-5.754 267.595M461.186 946.61l6.226-269.35.019-2.064.464-19.19M423.492 640.075l-.061 9.702M428.794 648.64l.074-9.704M412.019 968.662l2.161-288.724M368.744 631.633l.026 4.72M383.7 632.687l-.006-4.557M365.161 656.684l.111 15.532.015 4.308 1.837 265.968M372.168 942.444l-1.39-262.986-.028-7.264-.07-13.069M442.218 637.02l-.13 8.144M447.419 643.965l.081-4.604" style="fill:none;stroke:red;stroke-width:1.99999;stroke-linecap:round;stroke-linejoin:round;stroke-miterlimit:500;stroke-dasharray:none;stroke-opacity:1;visibility:visible"/><path d="m385.188 902.24-1.097.412" style="fill:none;stroke:red;stroke-width:.999997;stroke-linecap:round;stroke-linejoin:round;stroke-miterlimit:500;stroke-dasharray:none;stroke-opacity:1;visibility:visible"/><path d="m438.005 908.296-11.779-7.936M456.679 920.872l-12.47-8.4M469.177 929.29l-7.476-5.037M503.948 952.711l-20.621-13.891M503.681 962.007l.34-9.156M474.616 951.57l20.524 14.093M443.892 930.478l12.4 8.509M412.467 908.897l8.212 5.641M495.296 965.68l8.288-3.533M495.14 965.663a.17.17 0 0 0 .156.017" style="fill:none;stroke:red;stroke-width:1.99999;stroke-linecap:round;stroke-linejoin:round;stroke-miterlimit:500;stroke-dasharray:none;stroke-opacity:1;visibility:visible"/><path d="M412.8 891.315a.153.153 0 0 0-.136-.015" style="fill:none;stroke:red;stroke-width:.999997;stroke-linecap:round;stroke-linejoin:round;stroke-miterlimit:500;stroke-dasharray:none;stroke-opacity:1;visibility:visible"/><path d="m420.632 919.101-8.268 3.244M432.882 914.295l-6.852 2.688M425.854 932.171 438.816 927M412.25 937.595l8.398-3.348M385.055 948.44l12.34-4.92" style="fill:none;stroke:red;stroke-width:1.99999;stroke-linecap:round;stroke-linejoin:round;stroke-miterlimit:500;stroke-dasharray:none;stroke-opacity:1;visibility:visible"/><path d="m397.436 928.2-7.206 2.83" style="fill:none;stroke:red;stroke-width:.999997;stroke-linecap:round;stroke-linejoin:round;stroke-miterlimit:500;stroke-dasharray:none;stroke-opacity:1;visibility:visible"/><path d="m367.074 935.312-24.03-17.542M397.356 957.422l-25.209-18.404M420.404 958.132l-8.332 3.408M438.44 950.755l-12.87 5.265M456.194 943.491l-12.618 5.163M468.432 938.486l-7.128 2.917M420.288 974.166l54.776-22.784M385.22 932.996l-13.076 5.128" style="fill:none;stroke:red;stroke-width:1.99999;stroke-linecap:round;stroke-linejoin:round;stroke-miterlimit:500;stroke-dasharray:none;stroke-opacity:1;visibility:visible"/><path d="M475.732 942.343a.256.256 0 0 0 .223.017M483.951 654.665l-7.996 287.695M376.443 912.19l-4.452-3.152M379.382 872.658l.046.29.139.222.21.13.266.026.284-.076.277-.177.24-.259.176-.31.094-.324-.004-.31-.092-.259-.178-.177-.24-.083-.278.026-.286.13-.264.22-.21.288-.136.322-.044.321M379.096 683.256l.05.308.142.242.218.152.272.044.297-.068.285-.173.244-.26.183-.317.095-.344-.002-.327-.096-.28-.18-.201-.251-.098-.285.012-.296.124-.269.22-.217.292-.14.335-.05.339M379.096 775.286l.05.307.142.244.218.15.272.046.297-.068.285-.173.244-.262.183-.317.095-.343-.002-.328-.096-.28-.18-.2-.251-.097-.285.01-.296.124-.269.219-.217.294-.14.336-.05.338M376.443 912.19a.24.24 0 0 0 .213.015" style="fill:none;stroke:red;stroke-width:.999997;stroke-linecap:round;stroke-linejoin:round;stroke-miterlimit:500;stroke-dasharray:none;stroke-opacity:1;visibility:visible"/><path d="m483.253 939.351 8.45-280.767" style="fill:none;stroke:red;stroke-width:1.99999;stroke-linecap:round;stroke-linejoin:round;stroke-miterlimit:500;stroke-dasharray:none;stroke-opacity:1;visibility:visible"/><path d="m411.955 968.734-7.767 3.2M403.96 971.916a.25.25 0 0 0 .228.018M405.666 674.741l-1.478 297.193M405.418 674.726l-7.234-3.749M405.418 674.726a.405.405 0 0 0 .248.015M483.253 939.351l-7.298 3.009" style="fill:none;stroke:red;stroke-width:.999997;stroke-linecap:round;stroke-linejoin:round;stroke-miterlimit:500;stroke-dasharray:none;stroke-opacity:1;visibility:visible"/><path d="m398.18 672.201-.82 294.85" style="fill:none;stroke:red;stroke-width:1.99999;stroke-linecap:round;stroke-linejoin:round;stroke-miterlimit:500;stroke-dasharray:none;stroke-opacity:1;visibility:visible"/><path d="m395.99 907.939-.275.155-.247.239-.188.294-.114.318-.024.305.068.265.152.19.221.101.265-.002.279-.109.264-.198.22-.268.153-.311.07-.318-.024-.291-.111-.229-.187-.15-.245-.045-.276.054M364.526 920.009l-.282.158-.253.24-.191.298-.114.32-.023.314.073.264.16.192.227.1.272-.005.288-.112.27-.203.222-.272.157-.313.07-.322-.027-.291-.117-.232-.196-.148-.255-.047-.281.059" style="fill:none;stroke:red;stroke-width:.999997;stroke-linecap:round;stroke-linejoin:round;stroke-miterlimit:500;stroke-dasharray:none;stroke-opacity:1;visibility:visible"/><path d="M495.107 965.583a.268.268 0 0 0 .228.017" style="fill:none;stroke:red;stroke-width:1.99999;stroke-linecap:round;stroke-linejoin:round;stroke-miterlimit:500;stroke-dasharray:none;stroke-opacity:1;visibility:visible"/><path d="m385.222 935.218-.024.057-.054.285.06.286.168.27.275.246.363.212.437.168.496.114.528.055.543-.003.525-.062.49-.12.439-.172.356-.216.267-.25.161-.274.052-.286-.06-.284-.016-.04M503.865 952.708l-8.317 3.507M495.421 956.403l-.314 9.18M334.35 921.024l89.006 65.643M423.356 986.668l8.854-3.734M423.12 996.242l.103-9.38M420.384 960.49l-.041.094-.044.3.07.303.184.285.29.26.383.224.454.176.512.118.548.058.552-.002.538-.067.5-.127.44-.18.36-.228.265-.262.155-.29.042-.298-.072-.3-.004-.006M456.143 945.798l-.05.126-.035.292.082.291.192.279.295.252.383.216.454.17.508.116.538.058.546-.003.528-.065.488-.122.426-.174.345-.222.25-.257.144-.28.031-.29-.07-.261M438.403 953.086l-.047.113-.04.295.079.296.187.282.29.258.383.218.455.172.51.118.543.058.55-.002.532-.066.495-.125.432-.177.352-.224.258-.259.15-.285.038-.295-.074-.281M475.103 951.306l.222-8.023M475.325 943.283a.256.256 0 0 0-.094-.203" style="fill:none;stroke:red;stroke-width:.999997;stroke-linecap:round;stroke-linejoin:round;stroke-miterlimit:500;stroke-dasharray:none;stroke-opacity:1;visibility:visible"/><path d="m334.226 921.202.154 8.964M334.38 930.166l88.74 66.076M423.35 996.262l8.825-3.76M432.175 992.502l.133-9.356" style="fill:none;stroke:red;stroke-width:1.99999;stroke-linecap:round;stroke-linejoin:round;stroke-miterlimit:500;stroke-dasharray:none;stroke-opacity:1;visibility:visible"/><path d="m367.12 941.815-.02.039-.06.288.056.29.166.274.27.251.362.216.44.167.496.118.532.057.545-.005.533-.063.498-.12.44-.175.368-.217.272-.255.17-.277.055-.292-.052-.29-.028-.056" style="fill:none;stroke:red;stroke-width:.999997;stroke-linecap:round;stroke-linejoin:round;stroke-miterlimit:500;stroke-dasharray:none;stroke-opacity:1;visibility:visible"/><path d="m342.952 917.762-8.6 3.261" style="fill:none;stroke:red;stroke-width:1.99999;stroke-linecap:round;stroke-linejoin:round;stroke-miterlimit:500;stroke-dasharray:none;stroke-opacity:1;visibility:visible"/><path d="m375.582 630.14.017 4.435M375.703 661.575l.02 4.979-.175 15 .895 230.636" style="fill:none;stroke:red;stroke-width:.999997;stroke-linecap:round;stroke-linejoin:round;stroke-miterlimit:500;stroke-dasharray:none;stroke-opacity:1;visibility:visible"/><path d="m476.19 654.564-.397 15.556-.082 4.694-6.714 262.95" style="fill:none;stroke:red;stroke-width:1.99999;stroke-linecap:round;stroke-linejoin:round;stroke-miterlimit:500;stroke-dasharray:none;stroke-opacity:1;visibility:visible"/><path d="m366.942 916.05-17.23 6.588M385.194 909.075l-13.175 5.035M397.504 904.369l-7.262 2.776" style="fill:none;stroke:red;stroke-width:.999997;stroke-linecap:round;stroke-linejoin:round;stroke-miterlimit:500;stroke-dasharray:none;stroke-opacity:1;visibility:visible"/><path d="m366.892 909.21-23.406 8.88M397.523 897.59l-7.279 2.763" style="fill:none;stroke:red;stroke-width:1.99999;stroke-linecap:round;stroke-linejoin:round;stroke-miterlimit:500;stroke-dasharray:none;stroke-opacity:1;visibility:visible"/><path d="m461.49 933.326 33.93 23.077M426.12 909.273l12.84 8.73M420.772 905.374l-8.237-5.6M456.49 929.66l-12.433-8.454" style="fill:none;stroke:red;stroke-width:.999997;stroke-linecap:round;stroke-linejoin:round;stroke-miterlimit:500;stroke-dasharray:none;stroke-opacity:1;visibility:visible"/><path d="m461.7 924.306 7.476 5.034M412.718 891.31l8.14 5.483" style="fill:none;stroke:red;stroke-width:1.99999;stroke-linecap:round;stroke-linejoin:round;stroke-miterlimit:500;stroke-dasharray:none;stroke-opacity:1;visibility:visible"/><path d="m412.904 968.774 62.327-25.694M397.416 935.473l-19.542 7.724M420.73 926.252l-8.42 3.33M438.942 919.053l-12.996 5.14" style="fill:none;stroke:red;stroke-width:.999997;stroke-linecap:round;stroke-linejoin:round;stroke-miterlimit:500;stroke-dasharray:none;stroke-opacity:1;visibility:visible"/><path d="m432.21 982.934-20.187-14.739" style="fill:none;stroke:red;stroke-width:1.99999;stroke-linecap:round;stroke-linejoin:round;stroke-miterlimit:500;stroke-dasharray:none;stroke-opacity:1;visibility:visible"/><path d="m406.844 961.22.034.352.117.29.195.21.258.118.304.014.33-.084.333-.186.312-.266.272-.333.213-.377.139-.394.053-.382-.032-.352-.116-.29-.194-.21-.258-.118-.306-.017-.33.085-.33.186-.315.264-.273.334-.214.38-.136.394-.056.382" style="fill:none;stroke:red;stroke-width:.999997;stroke-linecap:round;stroke-linejoin:round;stroke-miterlimit:500;stroke-dasharray:none;stroke-opacity:1;visibility:visible"/><path d="M408.082 959.59v2.53" style="fill:none;stroke:red;stroke-width:.666665;stroke-linecap:round;stroke-linejoin:round;stroke-miterlimit:500;stroke-dasharray:none;stroke-opacity:1;visibility:visible"/><path d="m478.603 931.968.034.352.116.29.195.208.259.118.305.016.328-.086.333-.184.312-.266.272-.333.214-.379.138-.393.054-.383-.03-.35-.118-.29-.195-.21-.256-.118-.308-.018-.33.086-.329.184-.316.266-.271.332-.214.382-.136.392-.057.384" style="fill:none;stroke:red;stroke-width:.999997;stroke-linecap:round;stroke-linejoin:round;stroke-miterlimit:500;stroke-dasharray:none;stroke-opacity:1;visibility:visible"/><path d="M479.84 930.338v2.528" style="fill:none;stroke:red;stroke-width:.666665;stroke-linecap:round;stroke-linejoin:round;stroke-miterlimit:500;stroke-dasharray:none;stroke-opacity:1;visibility:visible"/><path d="m408.332 685.79.052-.46.151-.456.237-.424.311-.362.356-.276.385-.17.386-.052.357.068.304.184.232.288.147.37.049.425-.055.459-.152.456-.238.422-.308.362-.356.276-.384.17-.386.051-.356-.065-.304-.184-.234-.284-.147-.37-.047-.43" style="fill:none;stroke:red;stroke-width:.999997;stroke-linecap:round;stroke-linejoin:round;stroke-miterlimit:500;stroke-dasharray:none;stroke-opacity:1;visibility:visible"/><path d="M409.844 684.162v2.53" style="fill:none;stroke:red;stroke-width:.666665;stroke-linecap:round;stroke-linejoin:round;stroke-miterlimit:500;stroke-dasharray:none;stroke-opacity:1;visibility:visible"/><path d="m486.132 662.797.052-.459.15-.456.239-.425.309-.361.356-.276.386-.17.386-.052.355.068.306.184.232.287.145.37.05.426-.056.459-.149.456-.241.422-.308.362-.356.276-.383.17-.385.052-.357-.066-.304-.184-.235-.284-.144-.37-.048-.43" style="fill:none;stroke:red;stroke-width:.999997;stroke-linecap:round;stroke-linejoin:round;stroke-miterlimit:500;stroke-dasharray:none;stroke-opacity:1;visibility:visible"/><path d="M487.643 661.17v2.528" style="fill:none;stroke:red;stroke-width:.666665;stroke-linecap:round;stroke-linejoin:round;stroke-miterlimit:500;stroke-dasharray:none;stroke-opacity:1;visibility:visible"/><path d="m385.203 916.97 5.033-1.943M390.242 907.145l7.238 5.089M366.996 923.989l5.064-1.954M390.236 915.027l-5.033 1.943M366.942 916.05l-10.047 11.832M372.06 922.035l-5.064 1.954M409.69 653.561l-5.355-8.816M409.752 643.728l-5.465 10.363M404.335 644.745l5.355 8.816M404.287 654.091l5.465-10.363M404.287 654.091l-13.91 13.829M442.088 645.164l.926 17.238M447.419 643.965l1.187 17.199M409.844 686.692l13.334-2.73M409.844 686.692l18.936-3.868M447.419 643.965l14.92 13.278M428.794 648.64l-5.302-8.565M428.868 638.936l-5.437 10.841M423.492 640.075l5.302 8.565M423.431 649.777l5.437-10.841M409.844 686.692l4.336-6.754M375.599 634.575l-6.855-2.942M375.582 630.14l-6.812 6.213M375.582 630.14l8.118 2.547M375.599 634.575l8.095-6.445M447.419 643.965l-5.201-6.945M447.5 639.361l-5.412 5.803M442.218 637.02l5.201 6.945M442.088 645.164l5.412-5.803" style="fill:none;stroke:red;stroke-width:1.99999;stroke-linecap:round;stroke-linejoin:round;stroke-miterlimit:500;stroke-dasharray:none;stroke-opacity:1;visibility:visible"/><path d="m390.244 900.353-5.056 1.887M385.194 909.075l-1.103-6.423" style="fill:none;stroke:red;stroke-width:.999997;stroke-linecap:round;stroke-linejoin:round;stroke-miterlimit:500;stroke-dasharray:none;stroke-opacity:1;visibility:visible"/><path d="m444.209 912.472-6.204-4.176M420.858 896.793l5.368 3.567M461.701 924.253l-5.022-3.381M438.005 908.296l6.204 4.176M456.49 929.66l-12.598.818M461.49 933.326l-5.198 5.661M420.772 905.374l-8.305 3.523M426.12 909.273l-5.441 5.265M426.03 916.983l-5.398 2.118M420.73 926.252l-8.366-3.907M425.946 924.193l6.936-9.898M420.632 919.101l5.398-2.118M420.648 934.247l5.206-2.076M425.946 924.193l12.87 2.807M420.73 926.252l-8.48 11.343M425.854 932.171l-5.206 2.076M385.22 932.996l-.165 15.444M390.23 931.03l7.165 12.49" style="fill:none;stroke:red;stroke-width:1.99999;stroke-linecap:round;stroke-linejoin:round;stroke-miterlimit:500;stroke-dasharray:none;stroke-opacity:1;visibility:visible"/><path d="m412.31 929.582-14.874-1.382M385.22 932.996l5.01-1.966" style="fill:none;stroke:red;stroke-width:.999997;stroke-linecap:round;stroke-linejoin:round;stroke-miterlimit:500;stroke-dasharray:none;stroke-opacity:1;visibility:visible"/><path d="m372.147 939.018-5.073-3.706M403.96 971.916l-6.604-14.494M425.57 956.02l-5.166 2.112M411.955 968.734l.117-7.194M443.576 948.654l-5.136 2.101M420.404 958.132l5.166-2.112M461.304 941.403l-5.11 2.088M438.44 950.755l5.136-2.101M456.194 943.491l5.11-2.088M411.955 968.734l8.333 5.432M390.23 931.03l-5.01 1.966" style="fill:none;stroke:red;stroke-width:1.99999;stroke-linecap:round;stroke-linejoin:round;stroke-miterlimit:500;stroke-dasharray:none;stroke-opacity:1;visibility:visible"/><path d="m486.132 662.797-2.181-8.132" style="fill:none;stroke:red;stroke-width:.999997;stroke-linecap:round;stroke-linejoin:round;stroke-miterlimit:500;stroke-dasharray:none;stroke-opacity:1;visibility:visible"/><path d="m487.643 663.698 4.06-5.114M409.844 686.692l-11.664-14.491M408.082 959.59l-10.722 7.461" style="fill:none;stroke:red;stroke-width:1.99999;stroke-linecap:round;stroke-linejoin:round;stroke-miterlimit:500;stroke-dasharray:none;stroke-opacity:1;visibility:visible"/><path d="m383.7 632.687-8.118-2.547M368.744 631.633l6.855 2.942" style="fill:none;stroke:red;stroke-width:.999997;stroke-linecap:round;stroke-linejoin:round;stroke-miterlimit:500;stroke-dasharray:none;stroke-opacity:1;visibility:visible"/><path d="m487.643 663.698-11.453-9.134" style="fill:none;stroke:red;stroke-width:1.99999;stroke-linecap:round;stroke-linejoin:round;stroke-miterlimit:500;stroke-dasharray:none;stroke-opacity:1;visibility:visible"/><path d="m372.019 914.11-5.077 1.94M342.952 917.762l6.76 4.876M390.242 907.145l-5.048 1.93M376.656 912.205l-4.637 1.905M390.244 900.353l7.26 4.016M385.194 909.075l5.048-1.93" style="fill:none;stroke:red;stroke-width:.999997;stroke-linecap:round;stroke-linejoin:round;stroke-miterlimit:500;stroke-dasharray:none;stroke-opacity:1;visibility:visible"/><path d="m372.019 914.11-5.127-4.9M390.242 907.145l7.281-9.555M385.188 902.24l5.056-1.887" style="fill:none;stroke:red;stroke-width:1.99999;stroke-linecap:round;stroke-linejoin:round;stroke-miterlimit:500;stroke-dasharray:none;stroke-opacity:1;visibility:visible"/><path d="m456.49 929.66 5 3.666M420.772 905.374l5.348 3.899M444.057 921.206l-5.097-3.203M426.12 909.273l-5.348-3.899M412.8 891.315l-.265 8.459M461.49 933.326l-5-3.666M438.96 918.003l5.097 3.203" style="fill:none;stroke:red;stroke-width:.999997;stroke-linecap:round;stroke-linejoin:round;stroke-miterlimit:500;stroke-dasharray:none;stroke-opacity:1;visibility:visible"/><path d="m426.226 900.36-5.368-3.567" style="fill:none;stroke:red;stroke-width:1.99999;stroke-linecap:round;stroke-linejoin:round;stroke-miterlimit:500;stroke-dasharray:none;stroke-opacity:1;visibility:visible"/><path d="m390.23 931.03 7.186 4.443M385.22 932.996l-7.346 10.201M425.946 924.193l-5.216 2.059M420.648 934.247l-8.338-4.665M426.03 916.983l12.912 2.07M420.73 926.252l5.216-2.059" style="fill:none;stroke:red;stroke-width:.999997;stroke-linecap:round;stroke-linejoin:round;stroke-miterlimit:500;stroke-dasharray:none;stroke-opacity:1;visibility:visible"/><path d="m412.019 968.662-3.937-9.072M483.253 939.351l-3.413-9.013M475.325 943.283l4.515-10.417M414.18 679.938l-4.336 6.754" style="fill:none;stroke:red;stroke-width:.666665;stroke-linecap:round;stroke-linejoin:round;stroke-miterlimit:500;stroke-dasharray:none;stroke-opacity:1;visibility:visible"/><path d="m491.703 658.584-5.571 4.213" style="fill:none;stroke:red;stroke-width:.999997;stroke-linecap:round;stroke-linejoin:round;stroke-miterlimit:500;stroke-dasharray:none;stroke-opacity:1;visibility:visible"/><path d="m491.703 658.584-4.06 5.114" style="fill:none;stroke:red;stroke-width:.666665;stroke-linecap:round;stroke-linejoin:round;stroke-miterlimit:500;stroke-dasharray:none;stroke-opacity:1;visibility:visible"/><path d="m402.746 608.109-66.97 15.603M357.162 633.476l52.342-12.568M334.763 623.289l-9.533 2.184M433.796 668.464l-98.928-45.165M423.756 683.217l9.82-2.592M480.053 652.08l23.374 10.056M440.278 634.964l17.18 7.392M408.622 621.115l9.637 4.249M503.54 662.142l9.153-2.416M473.667 638.304l-68.443 17.116M427.49 665.583l53.466-13.737M434.179 621.616l-67.65 16.137M388.306 647.696l52.864-12.95" style="fill:none;stroke:#00ff4a;stroke-width:1.99999;stroke-linecap:round;stroke-linejoin:round;stroke-miterlimit:500;stroke-dasharray:none;stroke-opacity:1;visibility:visible" visibility="hidden"/><path d="m325.125 625.676 98.603 45.544M433.723 668.46l-9.853 2.55M423.728 671.221l-.158 11.856M358.654 629.267l.312-.135.278-.243.216-.329.123-.371.023-.382-.079-.347-.176-.273-.251-.174-.3-.052-.322.075-.299.193-.247.291-.172.352-.073.384.025.37.13.312.216.226.281.115.315-.012M393.399 620.905l.304-.134.272-.241.21-.321.122-.368.029-.374-.076-.343-.165-.272-.241-.17-.292-.055-.308.073-.292.188-.247.287-.17.35-.073.376.019.366.125.312.207.224.27.112.307-.01M409.654 611.179l-.087 9.608" style="fill:none;stroke:#00ff4a;stroke-width:.999997;stroke-linecap:round;stroke-linejoin:round;stroke-miterlimit:500;stroke-dasharray:none;stroke-opacity:1;visibility:visible" visibility="hidden"/><path d="m325.294 636.825-.17-11.15M423.57 683.114l-98.276-46.251M433.835 668.685l-.193 11.813" style="fill:none;stroke:#00ff4a;stroke-width:1.99999;stroke-linecap:round;stroke-linejoin:round;stroke-miterlimit:500;stroke-dasharray:none;stroke-opacity:1;visibility:visible" visibility="hidden"/><path d="m401.224 658.354-.274-.164-.151-.18-.024-.186.112-.181.237-.17.344-.14.435-.108.503-.075.536-.022.545.016.519.061.461.101.379.136.272.166.152.179.025.184-.11.183-.232.167-.347.141-.436.114-.506.068-.534.026-.547-.017-.521-.061-.458-.103-.38-.135M362.406 640.496l-.256-.156-.135-.168-.01-.176.121-.172.238-.156.34-.136.434-.102.492-.066.526-.024.528.016.498.059.444.097.358.128.256.153.136.17.011.177-.117.169-.24.161-.343.131-.432.103-.49.066-.525.027-.533-.017-.499-.061-.442-.094-.36-.129" style="fill:none;stroke:#00ff4a;stroke-width:.999997;stroke-linecap:round;stroke-linejoin:round;stroke-miterlimit:500;stroke-dasharray:none;stroke-opacity:1;visibility:visible" visibility="hidden"/><path d="M403.764 658.618a2.99 2.99 0 0 0-1.484-.008M441.415 624.826l-.179 9.797M441.415 624.825a.235.235 0 0 0-.105-.21" style="fill:none;stroke:#00ff4a;stroke-width:.999997;stroke-linecap:round;stroke-linejoin:round;stroke-miterlimit:500;stroke-dasharray:none;stroke-opacity:1;visibility:visible" visibility="hidden"/><path d="M441.17 634.745a.124.124 0 0 0 .067-.122" style="fill:none;stroke:#00ff4a;stroke-width:1.99999;stroke-linecap:round;stroke-linejoin:round;stroke-miterlimit:500;stroke-dasharray:none;stroke-opacity:1;visibility:visible" visibility="hidden"/><path d="M480.958 651.845a.123.123 0 0 0 .069-.124M481.323 641.693l-.295 10.028M481.323 641.693a.228.228 0 0 0-.107-.213M503.777 650.493l-100.993-42.86M503.92 650.287l9.18-2.375M503.36 662.005l.417-11.512" style="fill:none;stroke:#00ff4a;stroke-width:.999997;stroke-linecap:round;stroke-linejoin:round;stroke-miterlimit:500;stroke-dasharray:none;stroke-opacity:1;visibility:visible" visibility="hidden"/><path d="m411.851 605.393-8.93 2.05M513.1 647.912l-101.249-42.519M512.761 659.602l.446-11.474" style="fill:none;stroke:#00ff4a;stroke-width:1.99999;stroke-linecap:round;stroke-linejoin:round;stroke-miterlimit:500;stroke-dasharray:none;stroke-opacity:1;visibility:visible" visibility="hidden"/><path d="m483.867 637.615-.382-.127-.46-.095-.504-.058-.529-.018-.515.027-.477.064-.408.102-.315.13-.204.16-.083.169.043.174.17.166.284.155.382.125.461.099.506.057.527.016.521-.024.476-.066.404-.102.317-.134.203-.155.081-.17-.044-.173-.17-.171-.284-.15M444.092 620.95l-.361-.123-.441-.089-.491-.056-.512-.015-.505.023-.466.06-.401.099-.317.124-.206.15-.097.157.032.168.153.157.27.145.36.12.44.09.49.056.514.014.505-.022.468-.063.401-.095.318-.126.212-.148.086-.16-.03-.166-.155-.16-.267-.141M342.418 626.747l67.138-15.772M481.323 641.693l-68.364 17.259M441.414 624.825l-67.575 16.267" style="fill:none;stroke:#00ff4a;stroke-width:.999997;stroke-linecap:round;stroke-linejoin:round;stroke-miterlimit:500;stroke-dasharray:none;stroke-opacity:1;visibility:visible" visibility="hidden"/><path d="m402.784 607.633-.002.479M433.723 668.46l-6.233-2.877" style="fill:none;stroke:#00ff4a;stroke-width:1.99999;stroke-linecap:round;stroke-linejoin:round;stroke-miterlimit:500;stroke-dasharray:none;stroke-opacity:1;visibility:visible" visibility="hidden"/><path d="m403.764 658.618-2.54-.264M401.224 658.354l2.54.264M480.053 652.08l3.814-14.465M440.278 634.964l3.814-14.014M334.763 623.289l7.655 3.458" style="fill:none;stroke:#00ff4a;stroke-width:.999997;stroke-linecap:round;stroke-linejoin:round;stroke-miterlimit:500;stroke-dasharray:none;stroke-opacity:1;visibility:visible" visibility="hidden"/><path d="m481.028 651.721-13.133 4.285" style="fill:none;stroke:red;stroke-width:1.99999;stroke-linecap:round;stroke-linejoin:round;stroke-miterlimit:500;stroke-dasharray:none;stroke-opacity:1;visibility:visible"/><path d="m401.224 658.354-3.04 12.623" style="fill:none;stroke:red;stroke-width:.999997;stroke-linecap:round;stroke-linejoin:round;stroke-miterlimit:500;stroke-dasharray:none;stroke-opacity:1;visibility:visible"/><path d="m412.072 961.54-3.99.58M423.57 683.077l-13.726 1.085M481.028 651.721l6.615 9.449" style="fill:none;stroke:red;stroke-width:.666665;stroke-linecap:round;stroke-linejoin:round;stroke-miterlimit:500;stroke-dasharray:none;stroke-opacity:1;visibility:visible"/><path d="m405.666 674.741-.442-19.321" style="fill:none;stroke:#00ff4a;stroke-width:1.99999;stroke-linecap:round;stroke-linejoin:round;stroke-miterlimit:500;stroke-dasharray:none;stroke-opacity:1;visibility:visible" visibility="hidden"/><path d="m375.599 634.575-13.193 5.921M405.666 674.741l-3.386-16.131M405.666 674.741l7.293-15.789" style="fill:none;stroke:#00ff4a;stroke-width:.999997;stroke-linecap:round;stroke-linejoin:round;stroke-miterlimit:500;stroke-dasharray:none;stroke-opacity:1;visibility:visible" visibility="hidden"/></svg>