<svg xmlns="http://www.w3.org/2000/svg" baseProfile="full" height="1122.52" preserveAspectRatio="xMinYMin meet" style="width:765px;height:943px" width="793.701" xml:space="preserve"><path d="m467.166 746.022-20.747-13.87M401.813 720.422l21.562 14.718M360.451 691.186l-53.938 20.304M319.959 721.293l40.457-15.497M439.899 439.308l-7.869 291.737M446.406 732.624l9.32-292.106M360.995 460.673l-.705 299.649M375.027 761.99l2.247-300.027" style="fill:none;stroke:red;stroke-width:1.99999;stroke-linecap:round;stroke-linejoin:round;stroke-miterlimit:500;stroke-dasharray:none;stroke-opacity:1;visibility:visible"/><path d="M375.81 684.957a.133.133 0 0 0-.134-.016" style="fill:none;stroke:red;stroke-width:.999997;stroke-linecap:round;stroke-linejoin:round;stroke-miterlimit:500;stroke-dasharray:none;stroke-opacity:1;visibility:visible"/><path d="M306.1 711.186a.157.157 0 0 0-.146-.021M305.954 711.165l-8.619 3.243M297.233 714.556l.176 8.973M360.31 750.722l-54.21-39.536M395.414 776.318l-20.38-14.858" style="fill:none;stroke:red;stroke-width:1.99999;stroke-linecap:round;stroke-linejoin:round;stroke-miterlimit:500;stroke-dasharray:none;stroke-opacity:1;visibility:visible"/><path d="M366.94 765.256a.253.253 0 0 0 .227.016M368.596 464.368l-1.43 300.904M368.347 464.354a.41.41 0 0 0 .25.014" style="fill:none;stroke:red;stroke-width:.999997;stroke-linecap:round;stroke-linejoin:round;stroke-miterlimit:500;stroke-dasharray:none;stroke-opacity:1;visibility:visible"/><path d="m365.83 460.567-.203-.141-.081-.156.042-.154.17-.142.274-.12.362-.084.41-.036.426.008.405.046.345.099.255.123.145.148.018.158-.108.152-.222.13-.32.104-.393.062-.423.019-.42-.033-.38-.074-.302-.109" style="fill:none;stroke:red;stroke-width:.666665;stroke-linecap:round;stroke-linejoin:round;stroke-miterlimit:500;stroke-dasharray:none;stroke-opacity:1;visibility:visible"/><path d="m369.9 458.316 7.336 3.604M369.9 458.316a.381.381 0 0 0-.252-.016M361.067 460.622l8.581-2.323" style="fill:none;stroke:red;stroke-width:1.99999;stroke-linecap:round;stroke-linejoin:round;stroke-miterlimit:500;stroke-dasharray:none;stroke-opacity:1;visibility:visible"/><path d="m368.347 464.354-7.317-3.639M377.202 462.015l-8.606 2.353" style="fill:none;stroke:red;stroke-width:.999997;stroke-linecap:round;stroke-linejoin:round;stroke-miterlimit:500;stroke-dasharray:none;stroke-opacity:1;visibility:visible"/><path d="m368.123 461.592-.19-.137-.061-.15.074-.151.204-.131.308-.097.38-.058.412-.006.397.038.343.091.25.12.125.145-.005.152-.14.143-.26.115-.349.084-.401.03-.41-.016-.379-.068-.298-.104" style="fill:none;stroke:red;stroke-width:.666665;stroke-linecap:round;stroke-linejoin:round;stroke-miterlimit:500;stroke-dasharray:none;stroke-opacity:1;visibility:visible"/><path d="M438.835 735.665a.25.25 0 0 0 .219.019M447.674 442.747l-8.62 292.937M447.428 442.735a.452.452 0 0 0 .246.012M374.966 762.06l-7.799 3.21M369.762 754.572l.044.356.136.294.216.21.281.117.331.011.352-.095.354-.193.331-.282.285-.346.222-.388.136-.406.051-.396-.044-.354-.135-.294-.216-.216-.282-.116-.329-.01-.353.095-.355.194-.332.279-.285.346-.22.39-.139.409-.048.395M371.335 475.296l.055-.469.152-.464.241-.427.312-.364.365-.276.387-.169.388-.047.36.075.31.19.235.298.148.379.048.438-.056.463-.149.467-.243.424-.31.365-.363.276-.39.17-.385.045-.362-.072-.31-.19-.238-.294-.144-.378-.05-.44" style="fill:none;stroke:red;stroke-width:.999997;stroke-linecap:round;stroke-linejoin:round;stroke-miterlimit:500;stroke-dasharray:none;stroke-opacity:1;visibility:visible"/><path d="m444.538 439.21-.212-.13-.096-.144.022-.145.144-.13.25-.111.338-.076.389-.04.412.005.395.05.343.085.263.122.156.136.037.143-.083.144-.198.123-.296.093-.37.057-.405.019-.41-.027-.372-.068-.307-.106" style="fill:none;stroke:red;stroke-width:.666665;stroke-linecap:round;stroke-linejoin:round;stroke-miterlimit:500;stroke-dasharray:none;stroke-opacity:1;visibility:visible"/><path d="m448.178 437.116 7.508 3.359M448.178 437.116a.42.42 0 0 0-.243-.013M439.962 439.262l7.973-2.159" style="fill:none;stroke:red;stroke-width:1.99999;stroke-linecap:round;stroke-linejoin:round;stroke-miterlimit:500;stroke-dasharray:none;stroke-opacity:1;visibility:visible"/><path d="m447.428 442.734-7.492-3.388M455.666 440.562l-7.992 2.185" style="fill:none;stroke:red;stroke-width:.999997;stroke-linecap:round;stroke-linejoin:round;stroke-miterlimit:500;stroke-dasharray:none;stroke-opacity:1;visibility:visible"/><path d="m446.874 440.166-.2-.128-.08-.14.055-.139.179-.121.284-.095.36-.052.395-.008.39.043.337.08.256.114.142.134.01.142-.117.131-.234.11-.327.073-.382.033-.4-.019-.366-.06-.302-.098" style="fill:none;stroke:red;stroke-width:.666665;stroke-linecap:round;stroke-linejoin:round;stroke-miterlimit:500;stroke-dasharray:none;stroke-opacity:1;visibility:visible"/><path d="m446.347 732.68-7.292 3.004M441.714 725.272l.036.352.116.289.194.21.26.119.304.014.328-.086.334-.185.312-.265.272-.334.213-.376.139-.394.053-.383-.03-.352-.118-.29-.195-.209-.256-.118-.308-.018-.33.086-.329.185-.315.265-.272.334-.214.38-.137.393-.056.383M449.934 453.382l.062-.452.152-.449.23-.415.299-.351.343-.263.36-.156.362-.045.33.079.28.19.21.291.126.37.034.426-.06.449-.152.448-.234.412-.296.348-.34.264-.362.159-.36.044-.33-.076-.281-.187-.212-.288-.125-.373-.036-.425" style="fill:none;stroke:red;stroke-width:.999997;stroke-linecap:round;stroke-linejoin:round;stroke-miterlimit:500;stroke-dasharray:none;stroke-opacity:1;visibility:visible"/><path d="m342.691 702.696-.255-.132-.32-.084-.356-.036-.357.026-.333.072-.278.126-.197.152-.093.184.01.185.115.176.215.15.29.108.339.063.363.006.351-.052.31-.098.237-.142.148-.17.042-.185-.064-.184-.168-.165M339.84 700.698l-.257-.132-.317-.084-.354-.032-.36.02-.332.075-.276.12-.194.159-.098.176.008.186.12.176.207.15.291.106.341.063.361.005.351-.046.307-.1.238-.143.15-.17.041-.184-.063-.181-.164-.164M359.032 701.457l-.274.153-.246.24-.189.29-.113.32-.023.304.067.264.154.197.218.096h.266l.28-.11.262-.196.218-.265.154-.31.072-.317-.024-.291-.11-.232-.19-.15-.246-.049-.276.056M327.577 713.436l-.283.158-.25.243-.194.297-.11.323-.025.31.075.264.157.194.23.101.275-.008.285-.106.27-.206.224-.27.156-.314.068-.32-.028-.292-.117-.236-.196-.149-.254-.047-.283.058" style="fill:none;stroke:red;stroke-width:.666665;stroke-linecap:round;stroke-linejoin:round;stroke-miterlimit:500;stroke-dasharray:none;stroke-opacity:1;visibility:visible"/><path d="m467.085 746.023-8.311 3.505M458.647 749.714l-.332 9.21" style="fill:none;stroke:red;stroke-width:.999997;stroke-linecap:round;stroke-linejoin:round;stroke-miterlimit:500;stroke-dasharray:none;stroke-opacity:1;visibility:visible"/><path d="m466.822 755.408-8.284 3.53M467.182 746.225l-.36 9.183" style="fill:none;stroke:red;stroke-width:1.99999;stroke-linecap:round;stroke-linejoin:round;stroke-miterlimit:500;stroke-dasharray:none;stroke-opacity:1;visibility:visible"/><path d="m297.388 714.42 89.037 65.652M386.424 780.072l8.894-3.76M386.183 789.692l.109-9.428M388.092 753.324l-.382-.224-.458-.175-.51-.117-.546-.062-.554.004-.54.066-.5.128-.439.18-.36.226-.267.263-.156.29-.045.297.072.3.183.288.292.26.382.224.458.174.514.12.547.064.555-.004.54-.068.502-.13.44-.18.362-.225.262-.265.156-.29.042-.3-.072-.3-.187-.286-.29-.258M423.788 738.686l-.382-.213-.46-.172-.506-.117-.538-.055-.544.005-.528.062-.487.12-.427.174-.342.22-.254.255-.144.279-.032.288.084.294.194.276.294.254.386.213.454.171.514.116.538.06.544-.006.53-.065.487-.12.426-.172.345-.221.25-.26.145-.276.028-.29-.083-.292-.196-.278-.296-.25M406.09 745.941l-.384-.219-.456-.172-.511-.114-.54-.063-.552.005-.53.066-.496.125-.431.177-.354.222-.256.26-.153.284-.039.296.08.294.187.279.293.259.386.22.456.17.512.12.544.059.55-.003.532-.07.498-.119.432-.177.35-.224.26-.263.15-.281.032-.298-.075-.297-.19-.279-.295-.257M438.192 744.646l.232-8.041M438.424 736.605a.247.247 0 0 0-.094-.2M352.796 728.069l-.364-.21-.437-.166-.495-.111-.528-.057-.538.004-.526.063-.492.117-.436.172-.358.21-.268.252-.164.27-.055.287.057.284.17.273.273.241.363.215.44.167.492.112.531.054.539-.002.53-.064.492-.116.437-.172.357-.216.267-.251.164-.27.053-.288-.06-.283-.17-.271-.274-.244M388.092 714.236l-.365-.204-.437-.162-.49-.104-.52-.056-.531.002-.519.057-.478.117-.42.164-.345.208-.253.24-.151.266-.043.276.071.273.175.261.28.242.362.204.44.158.492.115.522.052.532-.003.516-.06.482-.114.419-.17.345-.205.255-.24.148-.268.041-.276-.072-.273-.178-.263-.278-.237M402.296 720.168l.131-7.888M402.427 712.28a.248.248 0 0 0-.092-.196M401.362 708.512l-.279-.235-.183-.257-.073-.27.033-.27.15-.26.245-.238.336-.205.416-.161.472-.112.512-.058.525-.005.516.055.491.106.436.156.368.202.281.234.182.258.074.27-.034.268-.143.266-.247.234-.338.206-.414.164-.473.113-.512.056-.527.003-.52-.052-.49-.107-.438-.159-.366-.202" style="fill:none;stroke:red;stroke-width:.999997;stroke-linecap:round;stroke-linejoin:round;stroke-miterlimit:500;stroke-dasharray:none;stroke-opacity:1;visibility:visible"/><path d="m297.435 723.575 88.75 66.115M386.415 789.712l8.865-3.788M395.28 785.925l.138-9.396" style="fill:none;stroke:red;stroke-width:1.99999;stroke-linecap:round;stroke-linejoin:round;stroke-miterlimit:500;stroke-dasharray:none;stroke-opacity:1;visibility:visible"/><path d="m375.54 693.585 83.107 56.129M360.435 697.931l-47.693 18.099M334.707 734.621l-.363-.213-.437-.17-.496-.112-.531-.056-.545.002-.533.062-.497.119-.442.172-.368.216-.274.259-.174.276-.06.286.054.288.165.275.27.255.361.21.44.17.497.114.533.06.546-.004.531-.066.501-.124.445-.169.362-.219.278-.254.168-.276.06-.289-.055-.29-.166-.274-.27-.249" style="fill:none;stroke:red;stroke-width:.999997;stroke-linecap:round;stroke-linejoin:round;stroke-miterlimit:500;stroke-dasharray:none;stroke-opacity:1;visibility:visible"/><path d="m387.88 710.862-12.404-8.468M458.315 758.925l-20.565-14.036" style="fill:none;stroke:red;stroke-width:1.99999;stroke-linecap:round;stroke-linejoin:round;stroke-miterlimit:500;stroke-dasharray:none;stroke-opacity:1;visibility:visible"/><path d="m375.604 684.998.126-.044" style="fill:none;stroke:red;stroke-width:.999997;stroke-linecap:round;stroke-linejoin:round;stroke-miterlimit:500;stroke-dasharray:none;stroke-opacity:1;visibility:visible"/><path d="m375.73 684.954 56.526 37.784" style="fill:none;stroke:red;stroke-width:1.99999;stroke-linecap:round;stroke-linejoin:round;stroke-miterlimit:500;stroke-dasharray:none;stroke-opacity:1;visibility:visible"/><path d="m360.363 728.837-19.523 7.683M375.322 722.712l27.013-10.628" style="fill:none;stroke:red;stroke-width:.999997;stroke-linecap:round;stroke-linejoin:round;stroke-miterlimit:500;stroke-dasharray:none;stroke-opacity:1;visibility:visible"/><path d="m375.26 730.908 27.036-10.74M347.994 741.738l12.348-4.904" style="fill:none;stroke:red;stroke-width:1.99999;stroke-linecap:round;stroke-linejoin:round;stroke-miterlimit:500;stroke-dasharray:none;stroke-opacity:1;visibility:visible"/><path d="m395.931 707.756-20.555 8.018" style="fill:none;stroke:red;stroke-width:.999997;stroke-linecap:round;stroke-linejoin:round;stroke-miterlimit:500;stroke-dasharray:none;stroke-opacity:1;visibility:visible"/><path d="m360.38 721.629-26.03 10.161" style="fill:none;stroke:red;stroke-width:1.99999;stroke-linecap:round;stroke-linejoin:round;stroke-miterlimit:500;stroke-dasharray:none;stroke-opacity:1;visibility:visible"/><path d="m438.424 736.605-62.284 25.656" style="fill:none;stroke:red;stroke-width:.999997;stroke-linecap:round;stroke-linejoin:round;stroke-miterlimit:500;stroke-dasharray:none;stroke-opacity:1;visibility:visible"/><path d="m431.566 731.832-56.483 23.062M383.282 767.473l54.91-22.827" style="fill:none;stroke:red;stroke-width:1.99999;stroke-linecap:round;stroke-linejoin:round;stroke-miterlimit:500;stroke-dasharray:none;stroke-opacity:1;visibility:visible"/><path d="M442.953 723.642v2.528M371.123 752.937v2.528" style="fill:none;stroke:red;stroke-width:.666665;stroke-linecap:round;stroke-linejoin:round;stroke-miterlimit:500;stroke-dasharray:none;stroke-opacity:1;visibility:visible"/><path d="m438.33 736.405-14.955-1.265M375.604 684.998l-15.153 6.188M305.954 711.165l14.005 10.128M375.376 715.774l-14.96-9.978M371.123 752.937l-10.833 7.385M375.034 761.46l-14.724-10.738" style="fill:none;stroke:red;stroke-width:1.99999;stroke-linecap:round;stroke-linejoin:round;stroke-miterlimit:500;stroke-dasharray:none;stroke-opacity:1;visibility:visible"/><path d="m369.9 458.316-4.07 2.251M369.9 458.316l-1.777 3.276M448.178 437.116l-3.64 2.094M448.178 437.116l-1.304 3.05" style="fill:none;stroke:red;stroke-width:.666665;stroke-linecap:round;stroke-linejoin:round;stroke-miterlimit:500;stroke-dasharray:none;stroke-opacity:1;visibility:visible"/><path d="m438.835 735.665-15.047 3.021M401.362 708.512l-13.27 5.724M401.362 708.512l-13.27 5.724M402.335 712.084l-.973-3.572M388.092 714.236l13.27-5.724M375.81 684.957l-.27 8.628M375.604 684.998l-15.169 12.933M305.954 711.165l6.788 4.865" style="fill:none;stroke:red;stroke-width:.999997;stroke-linecap:round;stroke-linejoin:round;stroke-miterlimit:500;stroke-dasharray:none;stroke-opacity:1;visibility:visible"/><path d="m402.335 712.084-14.455-1.222M375.81 684.957l-.334 17.437M438.835 735.665l-6.579-12.927" style="fill:none;stroke:red;stroke-width:1.99999;stroke-linecap:round;stroke-linejoin:round;stroke-miterlimit:500;stroke-dasharray:none;stroke-opacity:1;visibility:visible"/><path d="m375.26 730.908-14.897-2.071M360.342 736.834l-19.502-.314M360.38 721.629l14.942 1.083" style="fill:none;stroke:red;stroke-width:.999997;stroke-linecap:round;stroke-linejoin:round;stroke-miterlimit:500;stroke-dasharray:none;stroke-opacity:1;visibility:visible"/><path d="m360.363 728.837 14.897 2.071M360.363 728.837l-12.369 12.901M375.26 730.908l-14.918 5.926" style="fill:none;stroke:red;stroke-width:1.99999;stroke-linecap:round;stroke-linejoin:round;stroke-miterlimit:500;stroke-dasharray:none;stroke-opacity:1;visibility:visible"/><path d="m360.38 721.629 14.996-5.855" style="fill:none;stroke:red;stroke-width:.999997;stroke-linecap:round;stroke-linejoin:round;stroke-miterlimit:500;stroke-dasharray:none;stroke-opacity:1;visibility:visible"/><path d="m375.322 722.712-14.942-1.083" style="fill:none;stroke:red;stroke-width:1.99999;stroke-linecap:round;stroke-linejoin:round;stroke-miterlimit:500;stroke-dasharray:none;stroke-opacity:1;visibility:visible"/><path d="m374.966 762.06 1.174.201" style="fill:none;stroke:red;stroke-width:.999997;stroke-linecap:round;stroke-linejoin:round;stroke-miterlimit:500;stroke-dasharray:none;stroke-opacity:1;visibility:visible"/><path d="m374.966 762.06.117-7.166M374.966 762.06l8.316 5.413" style="fill:none;stroke:red;stroke-width:1.99999;stroke-linecap:round;stroke-linejoin:round;stroke-miterlimit:500;stroke-dasharray:none;stroke-opacity:1;visibility:visible"/><path d="m446.406 732.624-3.453-8.982M438.424 736.605l4.529-10.435M375.027 761.99l-3.904-9.053" style="fill:none;stroke:red;stroke-width:.666665;stroke-linecap:round;stroke-linejoin:round;stroke-miterlimit:500;stroke-dasharray:none;stroke-opacity:1;visibility:visible"/><path d="m331.186 374.162 1.03 150.9M332.328 541.717l.852 124.743M347.08 667.881l-.633-292.661" style="fill:none;stroke:#00ff4a;stroke-width:1.99999;stroke-linecap:round;stroke-linejoin:round;stroke-miterlimit:500;stroke-dasharray:none;stroke-opacity:1;visibility:visible" visibility="hidden"/><path d="m338.171 377.149 1.375 293.511M337.934 377.138a.423.423 0 0 0 .236.01" style="fill:none;stroke:#00ff4a;stroke-width:.999997;stroke-linecap:round;stroke-linejoin:round;stroke-miterlimit:500;stroke-dasharray:none;stroke-opacity:1;visibility:visible" visibility="hidden"/><path d="M339.331 670.641a.264.264 0 0 0 .215.019" style="fill:none;stroke:#00ff4a;stroke-width:1.99999;stroke-linecap:round;stroke-linejoin:round;stroke-miterlimit:500;stroke-dasharray:none;stroke-opacity:1;visibility:visible" visibility="hidden"/><path d="m339.642 375.633-.186-.114-.072-.126.05-.124.162-.119M341.754 375.105l.18.077.13.123.011.125-.105.125-.22.11-.306.08-.369.049-.401.016-.396-.027-.356-.061-.28-.09" style="fill:none;stroke:#00ff4a;stroke-width:.666665;stroke-linecap:round;stroke-linejoin:round;stroke-miterlimit:500;stroke-dasharray:none;stroke-opacity:1;visibility:visible" visibility="hidden"/><path d="m342.507 373.49 3.91 1.697M331.255 374.117l3.965-.902M338.356 372.5l.814-.184" style="fill:none;stroke:#00ff4a;stroke-width:1.99999;stroke-linecap:round;stroke-linejoin:round;stroke-miterlimit:500;stroke-dasharray:none;stroke-opacity:1;visibility:visible" visibility="hidden"/><path d="m337.934 377.138-6.717-2.948M346.378 375.263l-8.208 1.887" style="fill:none;stroke:#00ff4a;stroke-width:.999997;stroke-linecap:round;stroke-linejoin:round;stroke-miterlimit:500;stroke-dasharray:none;stroke-opacity:1;visibility:visible" visibility="hidden"/><path d="m335.756 374.287-.18-.114-.072-.124.05-.126.165-.113.265-.097" style="fill:none;stroke:#00ff4a;stroke-width:.666665;stroke-linecap:round;stroke-linejoin:round;stroke-miterlimit:500;stroke-dasharray:none;stroke-opacity:1;visibility:visible" visibility="hidden"/><path d="m337.92 373.786.13.053.13.121.01.127-.107.126-.219.104-.306.082-.37.047-.398.013-.396-.022-.355-.06-.283-.09" style="fill:none;stroke:#00ff4a;stroke-width:.666665;stroke-linecap:round;stroke-linejoin:round;stroke-miterlimit:500;stroke-dasharray:none;stroke-opacity:1;visibility:visible" visibility="hidden"/><path d="m347.015 667.944-7.47 2.716" style="fill:none;stroke:#00ff4a;stroke-width:1.99999;stroke-linecap:round;stroke-linejoin:round;stroke-miterlimit:500;stroke-dasharray:none;stroke-opacity:1;visibility:visible" visibility="hidden"/><path d="m341.498 422.743.05.345.149.282.231.185.284.077.311-.046.301-.17.26-.26.187-.333.101-.37v-.363l-.106-.316-.186-.238-.264-.133-.3-.015-.313.107-.283.219-.226.301-.15.357-.046.37M342.268 630.168l.05.297.14.23.216.142.265.034.291-.072.278-.175.243-.259.177-.312.095-.333v-.315l-.096-.268-.179-.193-.244-.085-.282.014-.29.13-.267.217-.215.292-.135.325-.047.33M341.894 529.905l.053.32.143.255.222.161.275.055.3-.061.293-.17.25-.26.178-.327.102-.349-.004-.337-.096-.292-.188-.21-.25-.114-.291.007-.301.116-.276.218-.217.298-.143.338-.05.352" style="fill:none;stroke:#00ff4a;stroke-width:.999997;stroke-linecap:round;stroke-linejoin:round;stroke-miterlimit:500;stroke-dasharray:none;stroke-opacity:1;visibility:visible" visibility="hidden"/><path d="m339.331 670.641-6.121-4.14M332.328 541.717l-.112-16.655M332.216 525.062l.112 16.655" style="fill:none;stroke:#00ff4a;stroke-width:1.99999;stroke-linecap:round;stroke-linejoin:round;stroke-miterlimit:500;stroke-dasharray:none;stroke-opacity:1;visibility:visible" visibility="hidden"/><path d="m337.934 377.138 3.82-2.033" style="fill:none;stroke:#00ff4a;stroke-width:.666665;stroke-linecap:round;stroke-linejoin:round;stroke-miterlimit:500;stroke-dasharray:none;stroke-opacity:1;visibility:visible" visibility="hidden"/><path d="m337.934 377.138 4.573-3.648M335.22 373.215l3.136-.715M338.17 377.15l1-4.834" style="fill:none;stroke:#00ff4a;stroke-width:1.99999;stroke-linecap:round;stroke-linejoin:round;stroke-miterlimit:500;stroke-dasharray:none;stroke-opacity:1;visibility:visible" visibility="hidden"/><path d="m337.934 377.138-.014-3.352" style="fill:none;stroke:#00ff4a;stroke-width:.666665;stroke-linecap:round;stroke-linejoin:round;stroke-miterlimit:500;stroke-dasharray:none;stroke-opacity:1;visibility:visible" visibility="hidden"/><path d="m374.966 762.06 13.126-8.736M388.092 714.236l7.839-6.48" style="fill:none;stroke:red;stroke-width:.999997;stroke-linecap:round;stroke-linejoin:round;stroke-miterlimit:500;stroke-dasharray:none;stroke-opacity:1;visibility:visible"/><path d="m375.083 754.894-3.96.571" style="fill:none;stroke:red;stroke-width:.666665;stroke-linecap:round;stroke-linejoin:round;stroke-miterlimit:500;stroke-dasharray:none;stroke-opacity:1;visibility:visible"/></svg>