<svg xmlns="http://www.w3.org/2000/svg" baseProfile="full" height="1122.52" preserveAspectRatio="xMinYMin meet" style="width:765px;height:943px" width="793.701" xml:space="preserve"><path d="m255.755 656.996 1.147 308.026M262.055 964.995l-.672-308.002" style="fill:none;stroke:red;stroke-width:1.99999;stroke-linecap:round;stroke-linejoin:round;stroke-miterlimit:500;stroke-dasharray:none;stroke-opacity:1;visibility:visible"/><path d="m256.567 656.312-.376.165-.269.188-.139.205-.013.21.119.206.241.191.36.17.456.141.532.102.584.06.608.015.604-.03.57-.075.511-.114.424-.15.324-.179.203-.197.077-.208-.053-.21-.185-.2-.305-.182-.41-.156-.496-.12-.561-.08-.595-.036-.608.004-.59.054-.541.094-.471.132M256.899 964.362l-.019.048-.059.28.058.28.172.268.279.242.37.208.45.166.51.112.544.056.558-.003.543-.061.508-.119.447-.168.374-.211.277-.249.17-.268.056-.281-.062-.282-.02-.044" style="fill:none;stroke:red;stroke-width:.999997;stroke-linecap:round;stroke-linejoin:round;stroke-miterlimit:500;stroke-dasharray:none;stroke-opacity:1;visibility:visible"/><path d="m396.654 974.368-21.196-13.684M338.164 954.708l9.636 6.355M287.78 920.474l-6.463 2.421M255.474 932.576l-22.519 8.435M246.633 950.662l9.169-3.492M262.934 944.455l12.256-4.665M284.555 936.222l3.206-1.219M368.647 660.997l-7.875 298.673M375.446 961.154l9.418-299.134M289.265 682.77l-1.576 306.416M302.689 990.763l3.2-306.89M258.703 639.179l.087 16.229" style="fill:none;stroke:red;stroke-width:1.99999;stroke-linecap:round;stroke-linejoin:round;stroke-miterlimit:500;stroke-dasharray:none;stroke-opacity:1;visibility:visible"/><path d="M303.417 914.17a.144.144 0 0 0-.138-.013" style="fill:none;stroke:red;stroke-width:.999997;stroke-linecap:round;stroke-linejoin:round;stroke-miterlimit:500;stroke-dasharray:none;stroke-opacity:1;visibility:visible"/><path d="M232.535 940.711a.168.168 0 0 0-.149-.019M232.386 940.692l-8.745 3.275M223.538 944.116l.195 8.905M287.697 979.651l-24.84-17.535M255.63 957.016l-23.095-16.306M323.455 1004.891l-20.762-14.655" style="fill:none;stroke:red;stroke-width:1.99999;stroke-linecap:round;stroke-linejoin:round;stroke-miterlimit:500;stroke-dasharray:none;stroke-opacity:1;visibility:visible"/><path d="m265.835 642.08.858 293.09M265.593 642.072a.453.453 0 0 0 .242.008" style="fill:none;stroke:red;stroke-width:.999997;stroke-linecap:round;stroke-linejoin:round;stroke-miterlimit:500;stroke-dasharray:none;stroke-opacity:1;visibility:visible"/><path d="m270.254 638.365 2.275.942M258.775 639.135l4.042-.955M266.018 637.428l.83-.195" style="fill:none;stroke:red;stroke-width:1.99999;stroke-linecap:round;stroke-linejoin:round;stroke-miterlimit:500;stroke-dasharray:none;stroke-opacity:1;visibility:visible"/><path d="m265.593 642.072-6.858-2.865M272.4 640.523l-6.564 1.557" style="fill:none;stroke:red;stroke-width:.999997;stroke-linecap:round;stroke-linejoin:round;stroke-miterlimit:500;stroke-dasharray:none;stroke-opacity:1;visibility:visible"/><path d="m263.367 639.247-.182-.112-.075-.126.05-.125.17-.117.27-.1" style="fill:none;stroke:red;stroke-width:.666665;stroke-linecap:round;stroke-linejoin:round;stroke-miterlimit:500;stroke-dasharray:none;stroke-opacity:1;visibility:visible"/><path d="m265.575 638.719.131.053.133.116.011.13-.11.122-.22.11-.315.086-.376.05-.407.021-.404-.022-.363-.052-.288-.086" style="fill:none;stroke:red;stroke-width:.666665;stroke-linecap:round;stroke-linejoin:round;stroke-miterlimit:500;stroke-dasharray:none;stroke-opacity:1;visibility:visible"/><path d="M294.458 994.052a.279.279 0 0 0 .23.014M297.029 686.38l-2.34 307.686M296.774 686.365a.417.417 0 0 0 .255.015M266.473 935.151l-3.679-2.403M269.17 686.23l.05.347.153.279.236.181.291.076.315-.052.308-.171.267-.264.188-.336.105-.372-.002-.36-.108-.317-.193-.235-.266-.13-.31-.01-.314.107-.292.225-.232.303-.15.36-.046.37M269.45 894.241l.052.293.141.226.219.14.272.034.293-.074.284-.177.25-.258.178-.312.096-.333-.001-.313-.096-.266-.185-.191-.247-.083-.288.018-.295.132-.27.216-.218.29-.137.327-.047.33M269.06 793.198l.058.319.144.253.228.16.279.05.306-.062.295-.171.256-.266.183-.324.1-.35-.002-.337-.1-.29-.19-.206-.257-.111-.293.007-.309.12-.281.22-.219.3-.145.337-.053.351" style="fill:none;stroke:red;stroke-width:.999997;stroke-linecap:round;stroke-linejoin:round;stroke-miterlimit:500;stroke-dasharray:none;stroke-opacity:1;visibility:visible"/><path d="m294.2 682.61-.205-.14-.082-.156.042-.152.175-.145.277-.123.368-.088.422-.042.432.004.413.04.353.097.26.12.15.145.018.16-.11.151-.226.132-.329.11-.4.067-.432.023-.43-.03-.386-.068-.31-.105" style="fill:none;stroke:red;stroke-width:.666665;stroke-linecap:round;stroke-linejoin:round;stroke-miterlimit:500;stroke-dasharray:none;stroke-opacity:1;visibility:visible"/><path d="m298.355 680.313 7.496 3.52M298.355 680.313a.387.387 0 0 0-.257-.016M289.338 682.717l8.76-2.42" style="fill:none;stroke:red;stroke-width:1.99999;stroke-linecap:round;stroke-linejoin:round;stroke-miterlimit:500;stroke-dasharray:none;stroke-opacity:1;visibility:visible"/><path d="m296.774 686.365-7.472-3.552M305.814 683.926l-8.785 2.454" style="fill:none;stroke:red;stroke-width:.999997;stroke-linecap:round;stroke-linejoin:round;stroke-miterlimit:500;stroke-dasharray:none;stroke-opacity:1;visibility:visible"/><path d="m296.542 683.608-.192-.135-.061-.15.074-.151.21-.135.31-.099.388-.062.423-.012.405.036.351.085.256.117.128.146-.007.152-.144.144-.265.116-.353.09-.411.034-.419-.011-.385-.063-.308-.102" style="fill:none;stroke:red;stroke-width:.666665;stroke-linecap:round;stroke-linejoin:round;stroke-miterlimit:500;stroke-dasharray:none;stroke-opacity:1;visibility:visible"/><path d="M367.714 964.227a.273.273 0 0 0 .228.016M376.615 664.35l-8.673 299.893M376.364 664.338a.483.483 0 0 0 .251.012M302.623 990.834l-7.933 3.232M299.837 697.272l.053-.468.156-.466.247-.428.317-.369.371-.28.398-.175.396-.05.366.072.318.186.241.296.15.378.052.436-.057.462-.155.47-.245.424-.32.371-.367.281-.398.171-.395.051-.37-.068-.315-.186-.243-.294-.148-.374-.052-.44" style="fill:none;stroke:red;stroke-width:.999997;stroke-linecap:round;stroke-linejoin:round;stroke-miterlimit:500;stroke-dasharray:none;stroke-opacity:1;visibility:visible"/><path d="m373.4 660.842-.217-.128-.099-.14.024-.15.148-.131.258-.112.345-.081.397-.044h.422l.405.044.35.082.271.122.16.132.038.144-.086.144-.2.125-.306.096-.378.063-.414.021-.42-.019-.384-.064-.314-.104" style="fill:none;stroke:red;stroke-width:.666665;stroke-linecap:round;stroke-linejoin:round;stroke-miterlimit:500;stroke-dasharray:none;stroke-opacity:1;visibility:visible"/><path d="m377.13 658.702 7.693 3.274M377.13 658.702a.432.432 0 0 0-.247-.011M368.714 660.95l8.17-2.259" style="fill:none;stroke:red;stroke-width:1.99999;stroke-linecap:round;stroke-linejoin:round;stroke-miterlimit:500;stroke-dasharray:none;stroke-opacity:1;visibility:visible"/><path d="m376.365 664.338-7.678-3.306M384.803 662.065l-8.188 2.285" style="fill:none;stroke:red;stroke-width:.999997;stroke-linecap:round;stroke-linejoin:round;stroke-miterlimit:500;stroke-dasharray:none;stroke-opacity:1;visibility:visible"/><path d="m375.795 661.773-.205-.127-.08-.138.054-.14.184-.124.29-.098.372-.056.402-.013.398.039.35.076.26.112.143.13.013.142-.12.134-.241.111-.333.081-.394.035-.408-.015-.378-.054-.307-.095" style="fill:none;stroke:red;stroke-width:.666665;stroke-linecap:round;stroke-linejoin:round;stroke-miterlimit:500;stroke-dasharray:none;stroke-opacity:1;visibility:visible"/><path d="m375.386 961.21-7.444 3.033M378.93 674.977l.062-.452.156-.453.236-.418.306-.354.352-.27.37-.16.37-.049.338.076.287.187.217.29.126.369.037.425-.061.452-.156.45-.242.413-.301.354-.348.268-.372.165-.367.047-.34-.07-.289-.187-.216-.286-.13-.372-.035-.425" style="fill:none;stroke:red;stroke-width:.999997;stroke-linecap:round;stroke-linejoin:round;stroke-miterlimit:500;stroke-dasharray:none;stroke-opacity:1;visibility:visible"/><path d="m286.347 930.698-.28.154-.25.24-.192.288-.115.32-.025.303.07.261.158.196.22.094.272-.002.284-.11.269-.198.219-.268.16-.308.069-.312-.023-.29-.113-.23-.193-.148-.248-.048-.282.058M254.36 942.808l-.284.16-.256.243-.195.296-.115.321-.02.308.073.264.163.19.235.1.277-.01.29-.108.274-.206.228-.27.159-.312.068-.317-.03-.292-.12-.235-.197-.145-.257-.045-.293.058" style="fill:none;stroke:red;stroke-width:.666665;stroke-linecap:round;stroke-linejoin:round;stroke-miterlimit:500;stroke-dasharray:none;stroke-opacity:1;visibility:visible"/><path d="m396.571 974.37-8.492 3.536M387.95 978.091l-.342 9.17" style="fill:none;stroke:red;stroke-width:.999997;stroke-linecap:round;stroke-linejoin:round;stroke-miterlimit:500;stroke-dasharray:none;stroke-opacity:1;visibility:visible"/><path d="m396.299 983.712-8.461 3.56M396.668 974.571l-.368 9.141" style="fill:none;stroke:red;stroke-width:1.99999;stroke-linecap:round;stroke-linejoin:round;stroke-miterlimit:500;stroke-dasharray:none;stroke-opacity:1;visibility:visible"/><path d="m223.694 943.979 90.61 64.685M314.305 1008.665l9.053-3.781M314.067 1018.218l.103-9.363M334.317 974.64l-.392-.216-.231-.084M349.226 966.877l-.322.081-.438.178-.362.224-.26.26-.156.281-.04.297.08.292.192.276.3.258.391.216.465.167.524.113.554.056.56-.005.542-.071.51-.125.437-.179.36-.224.263-.264.153-.278.035-.296-.082-.295-.192-.276-.3-.256M312.732 981.675l-.322.08-.44.179-.36.222-.26.26-.156.284-.04.295.08.293.192.276.299.256.393.216.464.168.523.114.554.057.561-.008.542-.07.51-.121.436-.181.361-.224.261-.263.155-.281.034-.296-.081-.293-.192-.276-.3-.255" style="fill:none;stroke:red;stroke-width:.999997;stroke-linecap:round;stroke-linejoin:round;stroke-miterlimit:500;stroke-dasharray:none;stroke-opacity:1;visibility:visible"/><path d="m331.102 974.208-.322.082-.44.177-.358.224-.262.26-.155.283-.04.294.081.292.192.276.297.259.395.216.463.167.522.112.555.058.56-.006.544-.072.508-.123.438-.179.36-.222.261-.266.155-.28.034-.296-.082-.294-.192-.276-.3-.255M367.062 973.167l.236-8.003M367.297 965.163a.239.239 0 0 0-.094-.197M276.146 957.027l-.365.213-.274.25-.164.269-.056.285.059.282.175.27.276.24.369.208.45.164.503.108.536.051.55-.005.54-.064.498-.12.444-.175.366-.216.267-.25.169-.271.054-.284-.062-.282-.175-.268-.279-.24" style="fill:none;stroke:red;stroke-width:.999997;stroke-linecap:round;stroke-linejoin:round;stroke-miterlimit:500;stroke-dasharray:none;stroke-opacity:1;visibility:visible"/><path d="m223.758 953.066 90.31 65.152M314.299 1018.238l9.027-3.804M323.326 1014.434l.134-9.335" style="fill:none;stroke:red;stroke-width:1.99999;stroke-linecap:round;stroke-linejoin:round;stroke-miterlimit:500;stroke-dasharray:none;stroke-opacity:1;visibility:visible"/><path d="m303.15 922.755 5.755 3.756M320.146 933.846l7.29 4.756M338.386 945.748l10.014 6.535M352.89 955.212l35.06 22.879M287.77 927.182l-6.316 2.384M274.351 932.248l-11.321 4.274M255.467 939.375l-16.177 6.107" style="fill:none;stroke:red;stroke-width:.999997;stroke-linecap:round;stroke-linejoin:round;stroke-miterlimit:500;stroke-dasharray:none;stroke-opacity:1;visibility:visible"/><path d="m308.786 935.276-5.696-3.754M387.608 987.26l-20.996-13.848" style="fill:none;stroke:red;stroke-width:1.99999;stroke-linecap:round;stroke-linejoin:round;stroke-miterlimit:500;stroke-dasharray:none;stroke-opacity:1;visibility:visible"/><path d="m303.207 914.214.127-.045" style="fill:none;stroke:red;stroke-width:.999997;stroke-linecap:round;stroke-linejoin:round;stroke-miterlimit:500;stroke-dasharray:none;stroke-opacity:1;visibility:visible"/><path d="m303.334 914.17 5.593 3.61M320.908 925.514l6.629 4.281M338.796 937.066l6.662 4.298M356.587 948.552 361 951.4" style="fill:none;stroke:red;stroke-width:1.99999;stroke-linecap:round;stroke-linejoin:round;stroke-miterlimit:500;stroke-dasharray:none;stroke-opacity:1;visibility:visible"/><path d="m287.73 957.906-19.855 7.751M302.951 951.726l5.356-2.089M320.465 944.892l6.558-2.56" style="fill:none;stroke:red;stroke-width:.999997;stroke-linecap:round;stroke-linejoin:round;stroke-miterlimit:500;stroke-dasharray:none;stroke-opacity:1;visibility:visible"/><path d="m302.897 959.875 4.978-1.96M320.77 952.836l5.747-2.262M275.16 970.8l12.554-4.945" style="fill:none;stroke:red;stroke-width:1.99999;stroke-linecap:round;stroke-linejoin:round;stroke-miterlimit:500;stroke-dasharray:none;stroke-opacity:1;visibility:visible"/><path d="m323.939 936.722-3.245 1.257M307.793 942.974l-4.791 1.856" style="fill:none;stroke:red;stroke-width:.999997;stroke-linecap:round;stroke-linejoin:round;stroke-miterlimit:500;stroke-dasharray:none;stroke-opacity:1;visibility:visible"/><path d="m287.739 950.743-7.509 2.908M275.74 955.392 263 960.328" style="fill:none;stroke:red;stroke-width:1.99999;stroke-linecap:round;stroke-linejoin:round;stroke-miterlimit:500;stroke-dasharray:none;stroke-opacity:1;visibility:visible"/><path d="m367.298 965.164-63.479 25.863" style="fill:none;stroke:red;stroke-width:.999997;stroke-linecap:round;stroke-linejoin:round;stroke-miterlimit:500;stroke-dasharray:none;stroke-opacity:1;visibility:visible"/><path d="m360.295 960.454-7.868 3.18M348.658 965.156l-14.536 5.875M330.722 972.407l-15.296 6.177M312.366 979.822l-9.63 3.892M311.094 996.166l55.968-22.999" style="fill:none;stroke:red;stroke-width:1.99999;stroke-linecap:round;stroke-linejoin:round;stroke-miterlimit:500;stroke-dasharray:none;stroke-opacity:1;visibility:visible"/><path d="m265.539 635.297.066 3.568M263.287 635.36l.063 3.5M265.175 634.843l.308.317M263.638 634.883l-.303.337M265.48 635.44a.187.187 0 0 0 .06-.143.192.192 0 0 0-.057-.137M263.335 635.22a.213.213 0 0 0-.048.14.196.196 0 0 0 .064.144M263.351 635.504a.847.847 0 0 0 .342.188M263.692 635.691a2.268 2.268 0 0 0 1.458-.039M265.15 635.652a.8.8 0 0 0 .33-.21M265.17 634.837a.679.679 0 0 0-.241-.141M264.929 634.697a1.684 1.684 0 0 0-1.054.032M263.874 634.73a.601.601 0 0 0-.233.15M263.98 635.763l.64 3.39" style="fill:none;stroke:red;stroke-width:.999997;stroke-linecap:round;stroke-linejoin:round;stroke-miterlimit:2;stroke-dasharray:none;stroke-opacity:1;visibility:visible"/><path d="m267.334 640.548-.184-.112-.072-.126.05-.123.17-.118.271-.098M269.543 640.021l.132.05.131.121.01.124-.106.128-.224.106-.312.089-.377.05-.407.018-.405-.018-.36-.054-.291-.087" style="fill:none;stroke:red;stroke-width:.666665;stroke-linecap:round;stroke-linejoin:round;stroke-miterlimit:500;stroke-dasharray:none;stroke-opacity:1;visibility:visible"/><path d="m269.507 636.597.066 3.57M267.255 636.66l.06 3.5M269.142 636.144l.31.319M267.603 636.183l-.298.339M269.45 636.744a.209.209 0 0 0 .057-.147.19.19 0 0 0-.054-.134M267.305 636.521a.215.215 0 0 0-.051.139.217.217 0 0 0 .065.147M267.32 636.808a.864.864 0 0 0 .34.185M267.66 636.994a2.253 2.253 0 0 0 .73.099c.245-.006.496-.057.73-.14M269.12 636.955a.827.827 0 0 0 .33-.211M269.138 636.14a.68.68 0 0 0-.243-.141M268.895 636a1.655 1.655 0 0 0-1.052.029M267.843 636.03a.62.62 0 0 0-.233.151M267.947 637.064l.639 3.39" style="fill:none;stroke:red;stroke-width:.999997;stroke-linecap:round;stroke-linejoin:round;stroke-miterlimit:2;stroke-dasharray:none;stroke-opacity:1;visibility:visible"/><path d="m297.83 983.21.033.352.118.288.194.211.259.119.305.015.328-.087.334-.185.312-.265.272-.334.213-.377.139-.393.053-.384-.03-.351-.118-.29-.195-.209-.256-.118-.308-.018-.33.086-.329.185-.314.265-.273.334-.214.38-.137.393-.056.383" style="fill:none;stroke:red;stroke-width:.999997;stroke-linecap:round;stroke-linejoin:round;stroke-miterlimit:500;stroke-dasharray:none;stroke-opacity:1;visibility:visible"/><path d="M299.067 981.58v2.528" style="fill:none;stroke:red;stroke-width:.666665;stroke-linecap:round;stroke-linejoin:round;stroke-miterlimit:500;stroke-dasharray:none;stroke-opacity:1;visibility:visible"/><path d="m370.348 953.94.034.35.117.291.195.209.258.118.304.015.328-.085.334-.186.312-.265.273-.333.213-.378.14-.393.051-.383-.031-.352-.116-.288-.194-.21-.258-.12-.306-.016-.33.085-.33.185-.315.266-.273.333-.214.38-.136.393-.056.384" style="fill:none;stroke:red;stroke-width:.999997;stroke-linecap:round;stroke-linejoin:round;stroke-miterlimit:500;stroke-dasharray:none;stroke-opacity:1;visibility:visible"/><path d="M371.584 952.308v2.53" style="fill:none;stroke:red;stroke-width:.666665;stroke-linecap:round;stroke-linejoin:round;stroke-miterlimit:500;stroke-dasharray:none;stroke-opacity:1;visibility:visible"/><path d="m258.79 655.408-3.035 1.588M258.79 655.408l2.593 1.585" style="fill:none;stroke:red;stroke-width:1.99999;stroke-linecap:round;stroke-linejoin:round;stroke-miterlimit:500;stroke-dasharray:none;stroke-opacity:1;visibility:visible"/><path d="m265.835 642.08-9.267 14.232" style="fill:none;stroke:red;stroke-width:.999997;stroke-linecap:round;stroke-linejoin:round;stroke-miterlimit:500;stroke-dasharray:none;stroke-opacity:1;visibility:visible"/><path d="m348.4 952.283-10.236 2.425M352.89 955.212l-5.09 5.851M281.454 929.566l6.326-9.092M287.77 927.182l-6.453-4.287M263.03 936.522l-7.556-3.946M255.467 939.375l-8.834 11.287M262.934 944.455l-7.132 2.715M255.802 947.17l7.132-2.715M284.555 936.222l-9.365 3.568M287.77 927.182l-3.215 9.04M281.454 929.566l6.307 5.437M299.067 981.58l-11.378 7.606M261.383 656.993l-2.593-1.585M302.693 990.236l-14.996-10.585M255.63 957.016l7.227 5.1M262.857 962.116l-7.227-5.1M265.593 642.072l4.661-3.707M269.543 640.021l2.986-.714M262.817 638.18l3.201-.752" style="fill:none;stroke:red;stroke-width:1.99999;stroke-linecap:round;stroke-linejoin:round;stroke-miterlimit:500;stroke-dasharray:none;stroke-opacity:1;visibility:visible"/><path d="m266.018 637.428 6.382 3.095" style="fill:none;stroke:red;stroke-width:.999997;stroke-linecap:round;stroke-linejoin:round;stroke-miterlimit:500;stroke-dasharray:none;stroke-opacity:1;visibility:visible"/><path d="m298.355 680.313-4.155 2.297M298.355 680.313l-1.813 3.295M377.13 658.702l-3.73 2.14M377.13 658.702l-1.335 3.071" style="fill:none;stroke:red;stroke-width:.666665;stroke-linecap:round;stroke-linejoin:round;stroke-miterlimit:500;stroke-dasharray:none;stroke-opacity:1;visibility:visible"/><path d="m308.927 917.78-5.777 4.975M303.09 931.522l5.815-5.011M327.537 929.795l-7.391 4.051M338.796 937.066l-11.36 1.536M345.458 941.364l-7.072 4.384M352.89 955.212l-4.49-2.929M348.4 952.283l4.49 2.929M281.317 922.895l6.453 4.287M274.351 932.248l7.103-2.682M281.454 929.566l-7.103 2.682M255.467 939.375l7.563-2.853M263.03 936.522l-7.563 2.853M232.386 940.692l6.904 4.79" style="fill:none;stroke:red;stroke-width:.999997;stroke-linecap:round;stroke-linejoin:round;stroke-miterlimit:500;stroke-dasharray:none;stroke-opacity:1;visibility:visible"/><path d="m320.146 933.846-11.36 1.43M308.905 926.511l-5.815 5.011M303.15 922.755l5.777-4.975M308.905 926.511l12.003-.997M320.146 933.846l7.391-4.051M327.436 938.602l11.36-1.536M338.386 945.748l7.072-4.384M348.4 952.283l8.187-3.731M352.89 955.212 361 951.4" style="fill:none;stroke:red;stroke-width:1.99999;stroke-linecap:round;stroke-linejoin:round;stroke-miterlimit:500;stroke-dasharray:none;stroke-opacity:1;visibility:visible"/><path d="m280.23 953.651 7.5 4.255M275.74 955.392l-7.865 10.265M307.875 957.915l-4.924-6.189M303.002 944.83l5.305 4.807M326.517 950.574l-6.052-5.682M320.694 937.979l6.329 4.353" style="fill:none;stroke:red;stroke-width:.999997;stroke-linecap:round;stroke-linejoin:round;stroke-miterlimit:500;stroke-dasharray:none;stroke-opacity:1;visibility:visible"/><path d="m308.307 949.637-5.41 10.238M302.951 951.726l4.924 6.189M327.023 942.332l-6.253 10.504M320.465 944.892l6.052 5.682M275.74 955.392l-.58 15.408M280.23 953.651l7.484 12.204" style="fill:none;stroke:red;stroke-width:1.99999;stroke-linecap:round;stroke-linejoin:round;stroke-miterlimit:500;stroke-dasharray:none;stroke-opacity:1;visibility:visible"/><path d="m320.465 944.892 3.474-8.17M327.023 942.332l-6.329-4.353M302.951 951.726l4.842-8.752M308.307 949.637l-5.305-4.807" style="fill:none;stroke:red;stroke-width:.999997;stroke-linecap:round;stroke-linejoin:round;stroke-miterlimit:500;stroke-dasharray:none;stroke-opacity:1;visibility:visible"/><path d="m284.555 936.222 3.184 14.521M275.74 955.392l4.49-1.741M280.23 953.651l-4.49 1.741M255.802 947.17 263 960.328" style="fill:none;stroke:red;stroke-width:1.99999;stroke-linecap:round;stroke-linejoin:round;stroke-miterlimit:500;stroke-dasharray:none;stroke-opacity:1;visibility:visible"/><path d="m302.623 990.834 1.196.193" style="fill:none;stroke:red;stroke-width:.999997;stroke-linecap:round;stroke-linejoin:round;stroke-miterlimit:500;stroke-dasharray:none;stroke-opacity:1;visibility:visible"/><path d="m348.658 965.156 3.769-1.522M352.427 963.634l-3.769 1.522M330.722 972.407l3.4-1.376M334.122 971.031l-3.4 1.376M312.366 979.822l3.06-1.238M315.426 978.584l-3.06 1.238M302.623 990.834l.113-7.12M302.623 990.834l8.471 5.332" style="fill:none;stroke:red;stroke-width:1.99999;stroke-linecap:round;stroke-linejoin:round;stroke-miterlimit:500;stroke-dasharray:none;stroke-opacity:1;visibility:visible"/><path d="m267.947 637.064-3.327 2.089M263.98 635.763l4.606 4.691" style="fill:none;stroke:red;stroke-width:.999997;stroke-linecap:round;stroke-linejoin:round;stroke-miterlimit:2;stroke-dasharray:none;stroke-opacity:1;visibility:visible"/><path d="m302.689 990.763-3.622-9.183M375.446 961.154l-3.862-8.846M367.298 965.164l4.286-10.326" style="fill:none;stroke:red;stroke-width:.666665;stroke-linecap:round;stroke-linejoin:round;stroke-miterlimit:500;stroke-dasharray:none;stroke-opacity:1;visibility:visible"/><path d="m275.925 618.545-.562 317.387M280.513 935.942l1.045-317.372M275.363 935.932l.012.126.116.27.229.252.334.22.419.18.492.131.535.076.557.016.55-.04.523-.1.459-.15.388-.201.29-.232.183-.258.063-.274v-.006" style="fill:none;stroke:#00ff4a;stroke-width:1.99999;stroke-linecap:round;stroke-linejoin:round;stroke-miterlimit:500;stroke-dasharray:none;stroke-opacity:1;visibility:visible" visibility="hidden"/><path d="m276.717 617.916-.372.153-.262.178-.137.192-.005.198.125.194.25.182.367.16.458.13.537.097.587.059.608.014.601-.03.57-.069.504-.107.422-.14.321-.168.199-.187.068-.196-.061-.197-.191-.189-.31-.17-.416-.147-.5-.116-.563-.074-.599-.038-.608.007-.588.05-.537.088-.468.126" style="fill:none;stroke:#00ff4a;stroke-width:.999997;stroke-linecap:round;stroke-linejoin:round;stroke-miterlimit:500;stroke-dasharray:none;stroke-opacity:1;visibility:visible" visibility="hidden"/><path d="m295.896 613.788-.457 63.281M300.93 677.181l.55-63.35" style="fill:none;stroke:#9500ff;stroke-width:1.99999;stroke-linecap:round;stroke-linejoin:round;stroke-miterlimit:500;stroke-dasharray:none;stroke-opacity:1;visibility:visible" visibility="hidden"/><path d="m296.657 613.175-.363.155-.255.173-.128.19v.194l.13.19.257.179.364.159.463.129.533.096.584.055.603.014.597-.026.561-.071.5-.105.414-.14.309-.164.19-.183.064-.193-.066-.194-.195-.185-.314-.17-.42-.142-.495-.113-.563-.076-.596-.035-.601.005-.581.05-.532.086-.46.123" style="fill:none;stroke:#9500ff;stroke-width:.999997;stroke-linecap:round;stroke-linejoin:round;stroke-miterlimit:500;stroke-dasharray:none;stroke-opacity:1;visibility:visible" visibility="hidden"/><path d="m315.545 609.103-.288 23.196M320.767 631.813l.318-22.642" style="fill:none;stroke:#ffdf00;stroke-width:1.99999;stroke-linecap:round;stroke-linejoin:round;stroke-miterlimit:500;stroke-dasharray:none;stroke-opacity:1;visibility:visible" visibility="hidden"/><path d="m316.279 608.512-.356.15-.245.174-.123.184.01.192.133.19.259.174.368.157.462.127.533.092.58.055.598.016.59-.03.556-.065.493-.105.405-.136.303-.162.182-.181.058-.19-.075-.192-.2-.182-.315-.165-.417-.142-.499-.11-.558-.075-.594-.036-.594.007-.578.048-.522.085-.454.12" style="fill:none;stroke:#ffdf00;stroke-width:.999997;stroke-linecap:round;stroke-linejoin:round;stroke-miterlimit:500;stroke-dasharray:none;stroke-opacity:1;visibility:visible" visibility="hidden"/><path d="m315.85 636.122-4.089 323.953M317.04 960.15l4.597-323.958M311.76 960.076l.019.167.127.281.244.263.352.233.437.19.511.138.552.078.571.021.56-.044.53-.103.471-.16.386-.209.29-.247.175-.272.054-.262" style="fill:none;stroke:#00d4ff;stroke-width:1.99999;stroke-linecap:round;stroke-linejoin:round;stroke-miterlimit:500;stroke-dasharray:none;stroke-opacity:1;visibility:visible" visibility="hidden"/><path d="m316.618 635.475-.372.165-.256.187-.128.203.007.21.141.204.27.193.385.17.482.138.558.102.605.06.627.013.617-.029.58-.071.512-.115.424-.15.316-.177.19-.198.061-.207-.077-.208-.207-.198-.33-.183-.438-.154-.522-.121-.583-.079-.619-.038-.623.005-.6.054-.548.094-.472.13" style="fill:none;stroke:#00d4ff;stroke-width:.999997;stroke-linecap:round;stroke-linejoin:round;stroke-miterlimit:500;stroke-dasharray:none;stroke-opacity:1;visibility:visible" visibility="hidden"/><path d="m355.903 626.127-7.497 319.957M353.607 946.222l7.99-319.978M348.406 946.084l.024.192.136.276.253.255.352.225.441.186.503.134.548.078.563.017.553-.041.516-.1.456-.158.375-.202.274-.238.162-.265.045-.221" style="fill:none;stroke:#ff008a;stroke-width:1.99999;stroke-linecap:round;stroke-linejoin:round;stroke-miterlimit:500;stroke-dasharray:none;stroke-opacity:1;visibility:visible" visibility="hidden"/><path d="m356.62 625.528-.359.159-.235.18-.116.198.021.202.152.198.277.186.39.162.483.137.553.098.598.057.616.016.607-.03.564-.069.499-.111.406-.144.3-.172.174-.191.045-.204-.087-.199-.217-.193-.336-.173-.439-.152-.52-.118-.581-.077-.609-.038-.61.009-.59.049-.534.09-.452.131" style="fill:none;stroke:#ff008a;stroke-width:.999997;stroke-linecap:round;stroke-linejoin:round;stroke-miterlimit:500;stroke-dasharray:none;stroke-opacity:1;visibility:visible" visibility="hidden"/><path d="m356.832 625.592-.33.15-.218.168-.093.185.033.189.16.184.282.17.384.148.472.117.532.08.564.04h.576l.55-.044.502-.084.426-.118.328-.15.218-.169.092-.186-.038-.188-.16-.184-.282-.17-.384-.145-.47-.117-.53-.081-.567-.04h-.569l-.551.045-.501.081-.426.119" style="fill:none;stroke:#ff008a;stroke-width:.999997;stroke-linecap:round;stroke-linejoin:round;stroke-miterlimit:500;stroke-dasharray:none;stroke-opacity:1;visibility:visible" visibility="hidden"/><path d="m336.04 631.083-5.82 321.945M335.463 953.134l6.32-321.957M330.22 953.028l.024.18.133.277.248.261.349.228.441.188.507.136.548.077.568.02.556-.043.524-.104.462-.16.382-.202.281-.243.17-.268.051-.241" style="fill:none;stroke:#40ff00;stroke-width:1.99999;stroke-linecap:round;stroke-linejoin:round;stroke-miterlimit:500;stroke-dasharray:none;stroke-opacity:1;visibility:visible" visibility="hidden"/><path d="m336.784 630.46-.366.16-.246.187-.12.2.013.205.149.203.27.188.388.165.484.137.555.102.603.06.622.013.611-.029.57-.074.507-.112.416-.145.304-.176.186-.192.052-.205-.084-.207-.212-.193-.332-.178-.438-.153-.52-.119-.583-.08-.614-.036-.619.006-.59.052-.542.09-.464.131M330.437 949.028l.128-7.848M330.565 941.18a.245.245 0 0 0-.095-.194" style="fill:none;stroke:#40ff00;stroke-width:.999997;stroke-linecap:round;stroke-linejoin:round;stroke-miterlimit:500;stroke-dasharray:none;stroke-opacity:1;visibility:visible" visibility="hidden"/><path d="m338.164 954.708 11.062 12.169" style="fill:none;stroke:red;stroke-width:.999997;stroke-linecap:round;stroke-linejoin:round;stroke-miterlimit:500;stroke-dasharray:none;stroke-opacity:1;visibility:visible"/><path d="m302.736 983.714-3.669.394" style="fill:none;stroke:red;stroke-width:.666665;stroke-linecap:round;stroke-linejoin:round;stroke-miterlimit:500;stroke-dasharray:none;stroke-opacity:1;visibility:visible"/><path d="m353.607 946.222 16.741 7.718" style="fill:none;stroke:red;stroke-width:.999997;stroke-linecap:round;stroke-linejoin:round;stroke-miterlimit:500;stroke-dasharray:none;stroke-opacity:1;visibility:visible"/><path d="m289.265 682.77 6.174-5.701M305.889 683.873l-4.959-6.692" style="fill:none;stroke:#9500ff;stroke-width:1.99999;stroke-linecap:round;stroke-linejoin:round;stroke-miterlimit:500;stroke-dasharray:none;stroke-opacity:1;visibility:visible" visibility="hidden"/><path d="m315.85 636.122-.593-3.823M321.637 636.192l-.87-4.379" style="fill:none;stroke:#ffdf00;stroke-width:1.99999;stroke-linecap:round;stroke-linejoin:round;stroke-miterlimit:500;stroke-dasharray:none;stroke-opacity:1;visibility:visible" visibility="hidden"/><path d="m315.257 632.299.593 3.823M320.767 631.813l.87 4.379" style="fill:none;stroke:#00d4ff;stroke-width:1.99999;stroke-linecap:round;stroke-linejoin:round;stroke-miterlimit:500;stroke-dasharray:none;stroke-opacity:1;visibility:visible" visibility="hidden"/></svg>