<svg xmlns="http://www.w3.org/2000/svg" baseProfile="full" height="1122.52" preserveAspectRatio="xMinYMin meet" style="width:912px;height:1303px" width="793.701" xml:space="preserve"><path d="m591.444 635.288-.013-.005-.012-.014-.018-.018-.013-.031-.007-.037-.012-.044-.006-.05-.012-.056-.006-.124-.006-.144v-.161l.006-.173.012-.174.019-.181.019-.185.024-.187.032-.18.03-.18.038-.175.037-.168.043-.166.05-.15.05-.137.054-.112.027-.056.03-.05.031-.037.024-.03.032-.026.024-.018.032-.007.024-.005M154.682 627.103l-.044-.012-.043-.013-.038-.026-.043-.03-.037-.036-.032-.051-.036-.05-.032-.062-.05-.124-.037-.143-.03-.161-.02-.175v-.173l.007-.175.012-.18.031-.186.03-.174.051-.18.05-.168.062-.161.08-.156.082-.143.093-.13.092-.106.056-.049.056-.044.056-.037.056-.026.056-.024.056-.012.056-.006.056.006M153.402 626.989l-.044-.012-.043-.013-.038-.026-.043-.03-.037-.036-.032-.051-.036-.05-.032-.062-.05-.124-.037-.143-.03-.161-.02-.175v-.173l.007-.175.012-.18.031-.186.03-.174.051-.18.05-.168.062-.161.08-.156.082-.143.093-.13.092-.106.056-.049.056-.044.056-.037.056-.026.056-.024.056-.012.056-.006.056.006M152.131 626.843l-.044-.012-.043-.013-.038-.026-.043-.03-.037-.036-.032-.051-.036-.05-.032-.062-.05-.124-.037-.143-.03-.161-.02-.175v-.173l.007-.175.012-.18.031-.186.03-.174.051-.18.05-.168.062-.161.08-.156.082-.143.093-.13.092-.106.056-.049.056-.044.056-.037.056-.026.056-.024.056-.012.056-.006.056.006M156.074 626.99l.068.019.073-.007.082-.024.076-.05.073-.062" style="fill:none;stroke:red;stroke-width:.999997;stroke-linecap:round;stroke-linejoin:round;stroke-miterlimit:4;stroke-dasharray:none;stroke-opacity:1;visibility:visible"/><path d="m156.074 626.99.005.007h.007l.013.005h.024M155.65 625.326l.05-.187.062-.18.068-.161.08-.143.081-.13.087-.106.095-.086.092-.063" style="fill:none;stroke:red;stroke-width:.999997;stroke-linecap:round;stroke-linejoin:round;stroke-miterlimit:4;stroke-dasharray:none;stroke-opacity:1;visibility:visible"/><path d="m155.67 625.338-.03.175-.02.186-.011.167.005.163.007.142.018.136.026.131.018.063.018.066.025.076.03.075.04.068.042.063.05.054.062.044.056.031.07.013M156.446 626.867l.075-.093.073-.106.063-.124.062-.142.05-.15.042-.162.039-.167" style="fill:none;stroke:red;stroke-width:.999997;stroke-linecap:round;stroke-linejoin:round;stroke-miterlimit:4;stroke-dasharray:none;stroke-opacity:1;visibility:visible"/><path d="m156.85 625.923.025-.143.018-.144.013-.142.007-.143v-.13l-.014-.125-.012-.117-.018-.107-.026-.086-.018-.075-.056-.13-.056-.106-.067-.087-.076-.074-.085-.044-.051-.012-.044-.006h-.044l-.036.006M482.536 574.64l.014.012.017.019.013.013.007.012.018.019.015.012M480.71 574.528l.005-.005.008-.007.006-.007.007-.006.004-.006.007-.006M482.641 574.733l-.005-.012-.006-.013-.007-.005-.01-.007-.009-.012-.004-.007M480.785 574.484l-.018.012-.012.013-.015.006-.017.013-.014.007-.009.012M482.405 574.708l-.055-.05-.057-.044-.049-.037-.05-.037-.054-.037-.064-.038M480.99 574.46l-.05.012-.037.013-.038.012-.037.019-.036.019-.045.018M482.121 574.684l-.111-.076-.106-.055-.1-.042-.099-.032-.105-.031-.124-.025M481.741 574.645l-.156-.055-.142-.038-.13-.017-.133-.007-.135.012-.155.024M142.956 624.716l-.256-.03-.267-.021-.273-.009h-.28l-.286.004-.29.019-.28.025-.286.03-.273.046-.261.048-.248.056" style="fill:none;stroke:red;stroke-width:.999997;stroke-linecap:round;stroke-linejoin:round;stroke-miterlimit:4;stroke-dasharray:none;stroke-opacity:1;visibility:visible"/><path d="m480.928 574.572.13-.019.124-.006h.119l.115.018.127.032.13.043M481.375 574.428l.13.019.125.025.111.03.106.046.112.055.117.074M480.76 574.553l.05-.025.048-.017.051-.019.047-.013.054-.012.06-.014M482.01 574.453l.066.038.064.037.056.037.056.038.056.049.063.056M480.697 574.548l.02-.012.01-.007.02-.012.013-.013.02-.007.016-.012M197.02 683.037l-65.336-64.354M142.229 624.853l.279-.042.268-.051.254-.061.236-.069.212-.075.192-.075.168-.087.142-.086.112-.088.081-.092.056-.094.02-.093-.007-.087-.038-.086-.074-.087-.098-.081-.126-.075-.154-.068-.182-.063-.204-.056-.23-.042-.243-.046-.26-.024-.273-.024-.28-.008-.292-.005-.299.012-.29.02-.294.024-.292.036-.28.045-.267.05-.249.062-.235.068-.212.075-.192.075-.168.085-.142.088-.112.088-.087.092-.056.095-.02.085.007.095.038.086.067.087.101.081.13.074.154.069.18.063.207.054.224.05.241.038.26.031.275.019.285.012h.292l.299-.007.297-.02.292-.029.288-.038M497.001 574.18l-.237-.025-.241-.019-.25-.012-.248-.007-.248.007-.242.005-.243.021M483.823 569.197l110.609 56.227" style="fill:none;stroke:red;stroke-width:.999997;stroke-linecap:round;stroke-linejoin:round;stroke-miterlimit:4;stroke-dasharray:none;stroke-opacity:1;visibility:visible"/><path d="m494.907 572.863-.224.03-.206.044-.193.05-.167.056-.142.062-.126.062-.092.069-.074.068-.044.075-.012.068.012.073.037.076.068.075.093.068.12.068.143.069.167.056.185.055.205.056.22.044.233.037.25.032.254.024.266.013.263.012h.266l.262-.005.261-.02.248-.019.236-.03.224-.038.204-.043.188-.05.168-.05.148-.061.119-.062.098-.07.068-.067.044-.075.014-.075-.014-.075-.037-.074-.068-.068-.092-.075-.125-.068-.143-.063-.162-.061-.186-.056-.204-.05-.225-.044-.236-.037-.249-.032-.254-.024-.261-.013-.262-.012h-.266l-.262.007-.254.012-.248.025-.236.03M441.004 574.05l-.242-.027-.243-.011-.25-.012h-.252l-.251.005-.239.015-.244.017M318.8 591.204l-.222-.025-.238-.019-.235-.005-.25-.007h-.242l-.243.012-.24.013-.237.024-.231.033M316.663 591.228l-.056.007-.056.005" style="fill:none;stroke:red;stroke-width:.999997;stroke-linecap:round;stroke-linejoin:round;stroke-miterlimit:4;stroke-dasharray:none;stroke-opacity:1;visibility:visible"/><path d="m438.978 572.745-.231.031-.21.044-.195.05-.172.054-.156.057-.13.07-.104.059-.076.077-.056.068-.025.074v.075l.032.075.055.074.086.068.112.069.132.062.162.063.173.054.199.051.216.044.23.043.243.03.255.019.262.019.26.005.267.007.261-.012.255-.012.255-.019.242-.03.224-.039.21-.043.201-.05.172-.054.15-.058.131-.062.104-.07.082-.072.049-.069.025-.074-.005-.075-.033-.075-.055-.073-.087-.07-.105-.067-.137-.063-.162-.061-.174-.056-.198-.051-.217-.043-.23-.037-.244-.032-.247-.024-.262-.012-.261-.013h-.267l-.26.006-.256.013-.254.025-.236.03M184.825 608.284l-.255.044-.25.042-.227.057-.219.062-.192.062-.181.068-.155.076-.13.08-.106.081-.08.08-.057.081M184.88 609.705l-.262.045-.25.05M316.645 589.85l-.25.036-.228.05-.217.05-.2.063-.175.06-.148.071-.132.073-.105.075-.073.075-.044.081-.024.08.011.081.038.075.068.08.093.07.118.072.149.063.168.063.186.056.21.043.231.043.243.03.256.032.26.013.273.012h.273l.273-.006.268-.019.267-.019.261-.037.243-.036.235-.044.212-.057.198-.056.174-.067.156-.07.13-.066.099-.076.076-.08.042-.081.019-.083-.005-.072-.045-.081-.062-.075-.093-.075-.124-.069-.143-.067-.174-.056-.186-.055-.212-.05-.23-.037-.235-.039-.256-.024-.267-.019-.266-.006h-.274l-.273.005-.267.013-.267.027-.255.029M196.512 679.005l-.038-.061-.012-.064M182.992 642.815l.042.149.076.136.1.12M123.632 587.303l.044.137.068.124.086.105M122.701 587.055l-.168.062-.155.087-.148.124-.138.15-.138.172-.116.206-.112.236-.108.261-.092.292-.08.316-.074.343-.07.367-.049.397-.05.416-.029.441-.026.472-.014.491-.004.51.004.533.014.561.03.57.032.598.05.615.056.633.061.647.075.665.088.683.092.696.098.708.112.72.126.733.13.74.136.752.151.764.155.764.16.776.174.784.182.783M122.36 580.772l-.248-.217-.243-.195-.236-.167-.23-.142-.223-.118-.218-.086-.21-.07-.206-.037-.2-.019-.192.014-.186.037M199.25 682.614l-.13-.944-.144-.957-.154-.97-.168-.979-.173-1.002-.193-1.007-.2-1.018-.209-1.025-.218-1.032-.237-1.044-.236-1.044-.254-1.056-.262-1.056-.267-1.056-.28-1.056-.292-1.063-.29-1.055-.307-1.057-.309-1.056-.324-1.05-.323-1.046-.335-1.036-.341-1.03-.342-1.027-.354-1.012-.354-1-.368-.988-.366-.981-.367-.963-.379-.95-.372-.934-.385-.919-.379-.894-.385-.883-.393-.864-.384-.837-.391-.823-.392-.8-.39-.776-.393-.752-.385-.727-.39-.702-.387-.676-.384-.654-.386-.621-.38-.596-.378-.572-.372-.54-.374-.51-.366-.477-.36-.454-.362-.423-.348-.385-.346-.36-.343-.33M199.25 682.614h0M123.056 606.121l9.108 39.266M211.385 606.599l268.512-37.706M184.526 610.37l2.615-.365M141.906 616.353l10.947-1.533M186.906 608.247l-.25-.027-.246-.01-.261-.007h-.269l-.266.006-.268.019-.26.024-.261.032" style="fill:none;stroke:red;stroke-width:.999997;stroke-linecap:round;stroke-linejoin:round;stroke-miterlimit:4;stroke-dasharray:none;stroke-opacity:1;visibility:visible"/><path d="m183.732 609.681.21.05.224.037.244.03.254.027.266.018.274.005h.28l.278-.01.28-.021.28-.023.268-.038.26-.044.248-.05M123.832 587.668l-.132-.119-.122-.105-.125-.093-.112-.081-.112-.07-.092-.048-.095-.043-.08-.032-.068-.017-.056-.013h-.112l-.025.006" style="fill:none;stroke:red;stroke-width:.999997;stroke-linecap:round;stroke-linejoin:round;stroke-miterlimit:4;stroke-dasharray:none;stroke-opacity:1;visibility:visible"/><path d="m138.452 601.343-14.62-13.675" style="fill:none;stroke:red;stroke-width:1.99999;stroke-linecap:round;stroke-linejoin:round;stroke-miterlimit:4;stroke-dasharray:none;stroke-opacity:1;visibility:visible"/><path d="m482.536 555.044.05-.733.063-.734.075-.726.086-.727.105-.714.112-.709.132-.701.141-.697.156-.683.167-.67.174-.66.194-.652.204-.634.212-.621.23-.603.235-.59.248-.579.256-.551.274-.541.273-.516.292-.498.292-.484.31-.453.311-.441.324-.41.33-.399.333-.366.342-.341.348-.323.355-.298.36-.267.361-.25.366-.217.372-.199.38-.16.38-.145.377-.111.38-.086.384-.063.385-.032.386-.005M495.895 530.192l-.416-.18-.423-.15-.421-.122-.425-.107-.427-.073-.428-.051-.425-.025M601.688 615.267l.219-.89.203-.9.18-.913.168-.927.156-.93.136-.939.112-.944.1-.956.088-.964.06-.964.05-.968.032-.97.013-.974-.007-.969-.025-.976-.043-.97-.057-.969-.075-.963-.092-.961-.112-.952-.13-.95-.144-.941-.16-.937-.182-.92-.19-.912-.214-.901-.226-.888-.245-.879-.26-.86-.274-.852-.285-.827-.306-.82-.316-.794-.335-.778-.349-.764-.352-.74-.376-.72-.383-.695-.4-.678-.407-.659-.417-.626-.435-.61-.441-.584-.448-.558-.46-.528-.472-.511-.48-.479-.482-.452-.491-.429-.504-.399-.503-.372-.517-.341-.514-.31-.523-.288-.528-.253M601.688 615.267h.317M481.45 574.428l1.085-19.384M479.456 593.204l-.036.615M480.356 593.907l.036-.61M481.45 574.428h-.075l-.087.007-.081.005-.087.007-.075.006-.073.007-.07.005-.066.015-.076.01-.068.013-.068.017-.063.015M481.45 574.428l.192-.005.187.005.181.025M591.843 635.577l.005.006.012.006h.025l.032-.006h.036l.057-.006M592.01 635.577l.136-.025.137-.037.125-.056.124-.075.117-.087" style="fill:none;stroke:red;stroke-width:.999997;stroke-linecap:round;stroke-linejoin:round;stroke-miterlimit:4;stroke-dasharray:none;stroke-opacity:1;visibility:visible"/><path d="m495.353 536.959-.253-.112-.263-.1-.253-.082-.261-.073-.263-.05-.253-.042-.26-.027-.257-.017" style="fill:none;stroke:red;stroke-width:.999997;stroke-linecap:round;stroke-linejoin:round;stroke-miterlimit:4;stroke-dasharray:none;stroke-opacity:1;visibility:visible"/><path d="m495.353 536.959 5.107 2.361" style="fill:none;stroke:red;stroke-width:1.99999;stroke-linecap:round;stroke-linejoin:round;stroke-miterlimit:4;stroke-dasharray:none;stroke-opacity:1;visibility:visible"/><path d="m62.981 364.48-.011-.012-.007-.013" style="fill:none;stroke:red;stroke-width:.999997;stroke-linecap:round;stroke-linejoin:round;stroke-miterlimit:4;stroke-dasharray:none;stroke-opacity:1;visibility:visible"/><path d="m62.981 364.48 64.343 276.75" style="fill:none;stroke:red;stroke-width:1.99999;stroke-linecap:round;stroke-linejoin:round;stroke-miterlimit:4;stroke-dasharray:none;stroke-opacity:1;visibility:visible"/><path d="M71.954 364.915v.007M62.981 364.48l1.722.915M75.041 364.717l-.063-.027-.092-.024-.118-.024-.138-.019-.16-.012-.18-.013-.193-.005h-.417l-.218.005-.21.007-.21.018-.207.019-.186.018-.173.026-.156.024-.138.025-.105.03-.087.034-.049.029-.025.032v.03l.038.026M175.984 416.818l-.107-.038-.137-.037-.167-.03-.193-.027-.21-.018-.237-.018-.249-.006h-.52l-.264.012-.26.02-.247.017-.236.031-.217.032-.2.036-.168.038-.136.044-.112.05-.075.043-.036.05-.007.043.03.05.069.037M66.437 366.314l.055.016.081.02.107.013.13.007.142.005h.311l.154-.012 16.055-1.057M66.437 366.313l-1.734-.92M84.074 365.175l-.013.026-.036.018-.07.024-.09.019-.113.018-.138.013-.142.012M75.048 364.81l.03-.032-.005-.03-.032-.032M187.365 417.502l-.012.03-.044.031-.075.032-.104.03-.126.027-.148.023-.162.019M186.694 417.695l-19.11 1.721M166.346 419.34l-2.672-1.416M208.222 724.453l-40.638-305.038M167.584 419.415l-.188.012-.191.013h-.193l-.18-.013-.163-.012-.136-.019-.105-.025-.082-.03M175.977 417.048l.075-.05.03-.043.008-.043-.038-.05-.068-.036" style="fill:none;stroke:red;stroke-width:.999997;stroke-linecap:round;stroke-linejoin:round;stroke-miterlimit:4;stroke-dasharray:none;stroke-opacity:1;visibility:visible"/><path d="m75.048 364.81-.008-.05v-.044" style="fill:none;stroke:red;stroke-width:.999997;stroke-linecap:round;stroke-linejoin:round;stroke-miterlimit:4;stroke-dasharray:none;stroke-opacity:1;visibility:visible"/><path d="m160.986 416.476.014.026.036.017" style="fill:none;stroke:red;stroke-width:1.99999;stroke-linecap:round;stroke-linejoin:round;stroke-miterlimit:4;stroke-dasharray:none;stroke-opacity:1;visibility:visible"/><path d="m187.273 610.695-.037-.056-.012-.055M190.18 615.185l.133 1.087.117 1.076.106 1.056.092 1.03.08 1.021.07.987.055.975.037.95.03.921.02.908v.874l-.006.85-.024.821-.031.803-.051.77-.055.739-.076.714-.085.691-.102.65-.105.629-.123.59-.13.566-.15.534-.156.497-.173.472-.18.434-.193.405-.2.365-.215.337-.225.304-.236.274-.244.235-.26.199-.26.175-.28.13-.286.101M172.306 417.154v-.007M175.984 416.818l-.007.118v.111M181.86 628.152l.337.292.328.261.323.23.318.198.31.168.304.136.298.1.286.075.28.043.28.005.26-.024.26-.056M121.061 572.85l60.801 55.304M107.926 540.928l.224.932.224.937.236.94.242.93.242.94.256.932.26.931.262.926.273.925.272.914.28.913.287.902.285.901.292.881.297.876.3.87.302.858.306.839.311.832.31.813.312.803.315.79.32.767.314.753.317.74.319.713.322.703.316.678.316.658.324.64.318.615.316.596.312.572.316.553.31.522.306.504.309.472.299.453.297.423.299.397.293.373.285.342.286.317.28.29.272.256M67.418 366.363l40.508 174.565M163.676 417.924l-2.64-1.404" style="fill:none;stroke:red;stroke-width:.999997;stroke-linecap:round;stroke-linejoin:round;stroke-miterlimit:4;stroke-dasharray:none;stroke-opacity:1;visibility:visible"/><path d="m185.446 629.581.142-.05.138-.068.142-.094.15-.124.148-.142.15-.18.149-.218.119-.185.112-.207.112-.23.105-.247.105-.276.106-.289.093-.306.092-.33.088-.346.08-.369.075-.384.068-.397.062-.416.058-.435.049-.448.043-.497.037-.523.031-.533.025-.552.019-.572.006-.584v-.61l-.006-.614-.014-.64-.024-.647-.032-.664-.036-.677-.044-.64-.05-.652-.047-.66-.064-.675-.075-.685-.042-.442" style="fill:none;stroke:red;stroke-width:1.99999;stroke-linecap:round;stroke-linejoin:round;stroke-miterlimit:4;stroke-dasharray:none;stroke-opacity:1;visibility:visible"/><path d="m507.425 335.926-.005.012-.03.013-.05.019-.07.012-.086.005-.094.013M498.665 335.758l.082-.025.056-.019.037-.024.007-.025-.014-.019-.036-.025-.062-.018-.082-.025M493.845 336.858l-3.12-.701M618.13 551.024l-.269 1.013-.291 1.007-.298.987-.323.982-.329.957-.356.943-.359.927-.379.907-.392.893-.41.872-.422.85-.428.828-.448.806-.46.79-.473.764-.483.739-.49.721-.507.69-.513.67-.528.64-.535.623-.547.589-.546.559-.566.54-.566.509-.576.479-.586.454-.582.429-.598.398-.602.366-.603.336-.61.31-.613.281-.616.249-.62.216-.623.192-.62.156-.629.13-.626.101-.628.067-.621.036-.629.007M597.415 567.221l-.542-.025-.545-.05-.543-.079-.533-.105-.54-.138-.53-.161-.525-.193-.531-.218M496.353 523.072l-.433-.205-.43-.237-.43-.26-.415-.286-.415-.317-.405-.335-.404-.36-.391-.392-.39-.41-.38-.435-.368-.453-.365-.484-.355-.504-.342-.522-.335-.548-.323-.564-.317-.59-.305-.603-.297-.628-.28-.64-.273-.664-.26-.677-.256-.696-.236-.708-.224-.728-.217-.74-.199-.75-.187-.766-.18-.775-.163-.79-.148-.799-.137-.811-.123-.819-.11-.826-.096-.832-.087-.846-.067-.845-.057-.85-.037-.859-.032-.863-.01-.863v-.864l.009-.864.033-.87.044-.862M507.092 336l-12.296.894M614.146 548.073v.044l.02.043.041.05.063.05M658.686 374.149l-.069-.02-.056-.017-.024-.019-.005-.02M593.127 566.252l-96.774-43.18M494.796 336.895l-.125.006h-.403l-.13-.006-.114-.012-.104-.013-.075-.012M485.959 494.33l8.836-157.434M487.63 335.454l-.048-.013-.032-.018-.013-.013M490.725 336.155l-3.093-.701M490.725 336.155 477.753 567.8M498.647 335.578l-.107-.019-.129-.018-.143-.014-.161-.01-.174-.014-.18-.006-.189-.007h-.371l-.18.007-.173.013-.163.012-.149.013-.13.018-.107.02-.086.017-.069.025-.036.019-.013.025.013.026.036.024.056.018.088.026M498.66 335.758l-.007-.093-.006-.087" style="fill:none;stroke:red;stroke-width:.999997;stroke-linecap:round;stroke-linejoin:round;stroke-miterlimit:4;stroke-dasharray:none;stroke-opacity:1;visibility:visible"/><path d="m597.415 567.221.434-.005.428-.02.436-.043.435-.062.434-.075.435-.099.428-.117.436-.144.435-.156.428-.173.43-.199.427-.212.423-.23.416-.246.291-.193M508.824 523.476l-.093-.03-.101-.015" style="fill:none;stroke:red;stroke-width:1.99999;stroke-linecap:round;stroke-linejoin:round;stroke-miterlimit:4;stroke-dasharray:none;stroke-opacity:1;visibility:visible"/><path d="m165.68 628.724-.314.086-.318.057-7.003 1.018M167.2 628.239l-1.518.485M157.468 619.137l.212 4.878 4.342-.622M150.298 628.519l2.574-1.622M158.754 626.344l-6.468 4.1M171.36 632.135l-.147.235-.175.218-.2.205-.21.18-.231.162-.241.137-.256.112-.26.08-.267.056-.267.03-.27-.004-.259-.026-.254-.063-.243-.08-.23-.112-.21-.142-.194-.163-.173-.18-.156-.204-.124-.219-.105-.234-.068-.25-.05-.261-.02-.26.014-.268.042-.267.07-.266.092-.255.125-.256.141-.236.176-.224.186-.204.21-.186.23-.167M158.866 626.313l-.062.007-.05.024M159.02 626.263l-.027.013-.028.012-.025.005-.024.007-.026.007-.024.006M159.202 626.208l-.092.019-.09.037" style="fill:none;stroke:red;stroke-width:.999997;stroke-linecap:round;stroke-linejoin:round;stroke-miterlimit:4;stroke-dasharray:none;stroke-opacity:1;visibility:visible"/><path d="m157.5 624.057.086-.025.095-.019M157.345 624.101l.075-.025.08-.019M157.978 635.956l.106-.026.105-.02M146.994 625.319l10.258-6.387M164.246 625.481l-5.044.727M157.934 629.953l.256 5.959 14.88-2.182M489.781 576.521l-.118-.041-.135-.04-.157-.03-.162-.025-.178-.018M489.781 576.521l7.12 2.859M467.041 574.39l-5.777.588M489.03 576.367l-21.083-1.982M454.995 584.339l-.056.018-.043.038-.032.054-.012.063.012.063.032.042.044.026.055.006M454.995 584.649v.001M454.995 584.65v-.312M461.587 582.723l-1.188.297-1.105.275-1.012.248-1 .242-1.082.262-1.205.285v.007M462.084 582.63l-.044.005-.042.013M467.332 581.879l-5.25.75M461.524 574.95l-8.35 1.18.006-.824M460.63 580.685l.266-.074.274-.051 5.958-.856M454.492 582.735l.79-.268 1.782-.597 1.784-.595 1.783-.591M460.587 586.01l-1.777-.083-1.778-.079-1.782-.088-.778-.036M461.122 585.979l-.267.025-.267.005M453.056 592.701l13.968-2.05M467.079 585.115l-5.959.862M453.056 592.701l-.005.82M490.18 587.284l-22.58-2.175-.055 5.531 22.56 2.204M490.179 587.284l-.075 5.56M490.315 576.74l-.068 5.101M478.764 580.752l11.483 1.088M467.7 574.372l-.05 5.325 8.867.839M488.955 583.884l-21.099-2.019M489.515 586.923l.062.012M453.182 575.305l-.232-.124M453.182 575.305l-1.834.255M452.95 575.18l-1.825.255.223.124M496.865 588.37h0M454.472 585.724l-.18.005-.174-.012-.168-.044-.155-.061-.148-.087-.13-.112-.121-.13-.091-.143-.082-.168-.056-.175-.03-.185-.007-.187.013-.198.03-.194.064-.192.074-.186.099-.175.118-.16.138-.151.148-.129.156-.112.168-.087.172-.068.182-.037M494.69 592.148l.004-.236.025-.236.038-.217.05-.199.062-.187.074-.168.081-.148.093-.117.1-.101.111-.075.119-.043.118-.025.125.007.123.036.13.061.125.083.124.11.125.138.113.156.11.18.1.192.092.211.088.23.073.237.063.243.05.253.03.25.025.254.014.254-.007.244-.017.234-.026.224-.044.211-.056.199-.068.174-.08.155-.089.137-.097.112-.106.082-.112.061-.118.03-.125.008-.125-.019-.129-.05-.125-.073-.124-.1-.124-.125-.119-.143-.112-.168-.105-.187-.099-.205-.087-.217-.08-.23-.065-.242-.055-.248-.041-.255-.031-.25-.021-.252v-.25M494.839 581.487l.013-.243.018-.23.04-.216.046-.206.064-.187.073-.173.082-.143.098-.125.1-.099.111-.074.112-.051.125-.024.124.007.126.03.129.063.123.08.127.112.117.137.118.155.112.175.1.192.091.21.088.231.075.236.062.243.05.253.032.25.024.254.011.255-.006.241-.012.243-.03.224-.044.212-.055.198-.07.18-.08.156-.089.137-.097.111-.107.087-.11.063-.125.029-.118.007-.13-.018-.126-.044-.129-.074-.126-.099-.116-.119-.125-.148-.112-.162-.106-.187-.093-.205-.093-.218-.075-.229-.068-.243-.056-.248-.044-.248-.03-.255-.014-.254-.004-.25M455.567 589.359l.013-.243.036-.241.064-.243.08-.243.106-.229.122-.217.144-.213.162-.191.18-.175.186-.155.206-.136.212-.112.216-.088.224-.068.217-.037.224-.012.224.012.21.037.207.068.19.088.182.112.168.137.148.154.138.175.112.191.086.213.068.217.044.23.026.241v.244l-.032.241-.043.243-.077.241-.091.237-.119.224-.13.211-.155.199-.168.186-.185.168-.194.143-.212.124-.21.105-.218.076-.224.05-.222.03h-.224l-.22-.03-.202-.05-.206-.076-.187-.097-.175-.125-.161-.15-.137-.168-.123-.18-.1-.2-.081-.216-.056-.224-.036-.236-.007-.241M455.64 578.765l.02-.242.036-.248.056-.243.088-.236.106-.236.122-.217.144-.213.162-.191.18-.175.186-.155.206-.137.212-.112.217-.087.223-.062.224-.036.224-.015.217.015.217.035.204.07.194.087.18.118.166.136.15.156.138.174.111.198.087.206.069.224.044.229.024.236v.243l-.03.248-.044.242-.075.243-.092.236-.12.224-.129.217-.157.199-.166.187-.187.161-.199.15-.205.122-.219.1-.217.075-.223.056-.224.025h-.224l-.21-.032-.211-.05-.199-.08-.193-.1-.175-.122-.161-.151-.137-.167-.123-.187-.099-.199-.082-.217-.062-.224-.03-.235-.014-.243M598.781 646.133l69.436-269.823-4.535-1.032" style="fill:none;stroke:red;stroke-width:.999997;stroke-linecap:round;stroke-linejoin:round;stroke-miterlimit:4;stroke-dasharray:none;stroke-opacity:1;visibility:visible"/><path d="m158.12 629.853-.043.023-.04.016-.032.021-.027.018-.022.009-.011.007-3.719 2.373M158.24 636.204l-.026-.094-.01-.1-.014-.1M494.341 583.903l1.007.864 1.007.869 1.013.87.447.387M494.043 583.692l.15.093.147.118M490.67 581.94l3.372 1.752M495.665 578.884l3.031 1.553M498.696 580.436l.014-.839M450.074 592.801l.242.139M467.502 581.879l-.087-.007-.082.007M467.682 581.879l-.038.005h-.112l-.032-.005M467.855 581.867h-.086l-.086.012M467.601 585.108l-.086-.007-.095-.011M467.023 590.65l.124-.01.13-.008h.136l.133.007M467.247 585.096l-.087.012-.08.007" style="fill:none;stroke:red;stroke-width:.999997;stroke-linecap:round;stroke-linejoin:round;stroke-miterlimit:4;stroke-dasharray:none;stroke-opacity:1;visibility:visible"/><path d="M467.42 585.09h-.087l-.086.005M467.476 579.69h.087l.087.008M467.296 579.69h.18M467.13 579.703l.08-.006.089-.006M467.95 574.385l-.18-.013-.188-.005h-.179l-.187.005-.175.019M490.52 592.944l-.08-.03-.095-.034-.117-.023-.124-.013M490.279 587.29h-.05l-.049-.008M490.559 581.903l.061.017.05.02M490.415 581.872l.074.019.068.012M490.247 581.841l.086.012.082.019M496.865 588.37l-.764-.47-.714-.448-.654-.41-.64-.412-.689-.434-.77-.496-.021-.013M492.384 585.561l-.024-.018-.025-.013-2.965-1.547M493.521 588.805h0M493.715 588.843h0M498.45 597.168l-.014.832M498.45 597.168l-7.93-4.224M494.267 589.265l-.148-.044-.159-.066-.756-.399M497.77 589.912l-.445-.081-1.025-.186-1.013-.185-1.02-.195M497.815 586.892l.098.075.1.086.093.118.094.137.081.155.074.167.062.18.055.194.038.199.031.205.02.199v.198l-.007.192-.025.183-.029.165-.051.156-.057.131-.068.117-.081.087-.087.07-.088.041-.098.014-.099-.013-.101-.036M493.732 588.843h0M493.124 588.737l-.056-.017-.056-.02-.056-.019-.056-.018-.05-.024M492.85 588.639l-.024-.007-.025-.012-.025-.012-.016-.013-.027-.012M489.77 587.023l2.963 1.56M489.77 587.023l-.028-.013-.023-.013-.03-.012-.039-.018-.042-.019-.044-.019M489.57 586.93h-.015M451.119 575.435h.005M452.95 575.18h-.005M466.452 573.484l-.05-.019-.047-.005M468.558 573.441l.029-.018.026-.006M489.39 575.39l.025-.017.025-.008M491.068 575.788l.105-.005.1.01.099.038M499.305 579.623h.012M500.176 580.07h.014l.005.005M490.179 587.284v-.044M461.998 582.648l-.188.03-.186.039M493.185 588.75l-.03-.007-.032-.006M493.217 588.756l-.017-.007h-.013M492.615 585.687l-.119-.068-.112-.056M489.557 586.93h-.012l-.005-.007h-.025M489.123 583.928l-.083-.03-.085-.015M489.265 583.96h-.025l-.024-.007h-.02l-.023-.006-.026-.012-.024-.006" style="fill:none;stroke:red;stroke-width:.999997;stroke-linecap:round;stroke-linejoin:round;stroke-miterlimit:4;stroke-dasharray:none;stroke-opacity:1;visibility:visible"/><path d="m489.372 583.984-.05-.019-.054-.005M480.723 574.51l-.014.017M480.685 574.548h.006l.006-.007v-.005h.007v-.007h.006M480.747 574.49l-.007.007h-.005v.006h-.007v.006h-.007" style="fill:none;stroke:red;stroke-width:.999997;stroke-linecap:round;stroke-linejoin:round;stroke-miterlimit:4;stroke-dasharray:none;stroke-opacity:1;visibility:visible"/><path d="M195.225 672.002 139.11 617.69M201.32 714.822 134.053 645.2l-2.37-26.516" style="fill:none;stroke:red;stroke-width:1.99999;stroke-linecap:round;stroke-linejoin:round;stroke-miterlimit:4;stroke-dasharray:none;stroke-opacity:1;visibility:visible"/><path d="m489.75 568.315-5.928.882M483.823 569.197l.366 5.679M131.684 618.684l7.425-.995" style="fill:none;stroke:red;stroke-width:.999997;stroke-linecap:round;stroke-linejoin:round;stroke-miterlimit:4;stroke-dasharray:none;stroke-opacity:1;visibility:visible"/><path d="m486.699 593.919 62.705 33.62M489.75 568.315l105.67 53.225" style="fill:none;stroke:red;stroke-width:1.99999;stroke-linecap:round;stroke-linejoin:round;stroke-miterlimit:4;stroke-dasharray:none;stroke-opacity:1;visibility:visible"/><path d="m161.022 638.9 15.179-2.236" style="fill:none;stroke:red;stroke-width:.999997;stroke-linecap:round;stroke-linejoin:round;stroke-miterlimit:4;stroke-dasharray:none;stroke-opacity:1;visibility:visible"/><path d="m214.485 631.016 259.763-38.321" style="fill:none;stroke:red;stroke-width:1.99999;stroke-linecap:round;stroke-linejoin:round;stroke-miterlimit:4;stroke-dasharray:none;stroke-opacity:1;visibility:visible"/><path d="m182.184 608.332 4.646-.652M141.37 614.036l9.264-1.292" style="fill:none;stroke:red;stroke-width:.999997;stroke-linecap:round;stroke-linejoin:round;stroke-miterlimit:4;stroke-dasharray:none;stroke-opacity:1;visibility:visible"/><path d="M211.093 604.295 476.56 567.19" style="fill:none;stroke:red;stroke-width:1.99999;stroke-linecap:round;stroke-linejoin:round;stroke-miterlimit:4;stroke-dasharray:none;stroke-opacity:1;visibility:visible"/><path d="m479.145 574.404.752-5.51M477.752 567.799l2.144 1.094" style="fill:none;stroke:red;stroke-width:.999997;stroke-linecap:round;stroke-linejoin:round;stroke-miterlimit:4;stroke-dasharray:none;stroke-opacity:1;visibility:visible"/><path d="m134.046 645.12-1.882.267" style="fill:none;stroke:red;stroke-width:1.99999;stroke-linecap:round;stroke-linejoin:round;stroke-miterlimit:4;stroke-dasharray:none;stroke-opacity:1;visibility:visible"/><path d="M204.489 721.588h0" style="fill:none;stroke:red;stroke-width:.999997;stroke-linecap:round;stroke-linejoin:round;stroke-miterlimit:4;stroke-dasharray:none;stroke-opacity:1;visibility:visible"/><path d="m143.105 621.561-4.567-19.831M201.905 718.898l-.03-.044-.021-.049M132.164 645.388l-.15.012-.156.007h-.148l-.142-.012-.126-.02-.105-.029-.081-.039-.062-.043M131.194 645.263l-1.944-2.026M119.966 579.772l-.193.068-.185.099-.174.125-.168.155-.161.186-.15.218-.136.242-.131.267-.123.305-.107.323-.106.353-.092.38-.08.41-.07.434-.06.46-.057.486-.044.502-.032.535-.017.559-.014.578-.005.603.012.621.019.639.025.665.036.685.05.701.056.721.069.739.081.752.087.776.092.784.106.801.118.813.124.827.132.839.141.85.156.864.156.87.168.876.179.889.188.895.192.9.198.908.211.905M204.489 721.588l-2.584-2.691" style="fill:none;stroke:red;stroke-width:1.99999;stroke-linecap:round;stroke-linejoin:round;stroke-miterlimit:4;stroke-dasharray:none;stroke-opacity:1;visibility:visible"/><path d="m120.937 579.51-.97.263" style="fill:none;stroke:red;stroke-width:.999997;stroke-linecap:round;stroke-linejoin:round;stroke-miterlimit:4;stroke-dasharray:none;stroke-opacity:1;visibility:visible"/><path d="m201.853 718.805-5.393-39.924M196.46 678.881l-.085-.603-.095-.616-.092-.626-.106-.634-.112-.64-.118-.646-.12-.652-.129-.659-.137-.664-.142-.665-.144-.67-.15-.679-.171-.727-.175-.732-.18-.734-.186-.74-.2-.738-.198-.74-.206-.739-.204-.739-.218-.733-.218-.733-.224-.727-.21-.665-.211-.666-.219-.664-.222-.658-.223-.652-.23-.647-.232-.647-.229-.633-.237-.626-.237-.624-.234-.607-.242-.603-.244-.597-.24-.584-.243-.57-.248-.574-.25-.552-.246-.547-.251-.533-.248-.523-.25-.51-.246-.495-.249-.485-.25-.474-.265-.489-.269-.48-.267-.465-.266-.442-.262-.43-.26-.407-.261-.392-.256-.374-.248-.354-.25-.336-.239-.309-.232-.281-.229-.26-.219-.242-.216-.224-.211-.205M183.209 643.219l-44.757-41.876M138.452 601.343l.086.385" style="fill:none;stroke:red;stroke-width:1.99999;stroke-linecap:round;stroke-linejoin:round;stroke-miterlimit:4;stroke-dasharray:none;stroke-opacity:1;visibility:visible"/><path d="m479.417 593.819.075.03.1.032.118.024.123.015.131.01h.137l.13-.005.125-.02 2.41-.372M482.01 574.453l.185.044.18.063.162.08.15.093M592.772 632.581l-.036-.056-.026-.061-.02-.05-.01-.054v-.052l.005-.056M592.65 635.297l.11-.11.107-.127.088-.14.08-.151.06-.166.053-.175.029-.188.019-.185v-.192l-.013-.194-.031-.192-.05-.193-.062-.185-.075-.182-.092-.173-.1-.164" style="fill:none;stroke:red;stroke-width:.999997;stroke-linecap:round;stroke-linejoin:round;stroke-miterlimit:4;stroke-dasharray:none;stroke-opacity:1;visibility:visible"/><path d="M492.93 529.484h-.44l-.44.03-.443.058-.434.08-.44.112-.438.13-.427.163-.435.191-.422.21-.431.246-.415.259-.415.292-.41.31-.404.342-.399.36-.397.392-.385.41-.379.428-.379.46-.367.48-.353.494-.354.524-.343.534-.336.566-.323.577-.316.598-.305.614-.29.633-.288.653-.278.67-.263.684-.253.696-.243.715-.229.721-.224.739-.205.752-.199.763-.187.778-.168.782-.16.79-.15.807-.131.808-.124.814-.105.826-.094.825-.086.833-.068.84" style="fill:none;stroke:red;stroke-width:1.99999;stroke-linecap:round;stroke-linejoin:round;stroke-miterlimit:4;stroke-dasharray:none;stroke-opacity:1;visibility:visible"/><path d="m479.417 593.819-1.392-.751" style="fill:none;stroke:red;stroke-width:.999997;stroke-linecap:round;stroke-linejoin:round;stroke-miterlimit:4;stroke-dasharray:none;stroke-opacity:1;visibility:visible"/><path d="m591.843 635.577-2.083 8.164M597.837 612.085l-5.15 20.167M611.276 579.088l-.416-.572-.43-.547-.434-.528-.447-.501-.455-.48-.464-.455-.468-.434-.477-.403" style="fill:none;stroke:red;stroke-width:1.99999;stroke-linecap:round;stroke-linejoin:round;stroke-miterlimit:4;stroke-dasharray:none;stroke-opacity:1;visibility:visible"/><path d="m492.93 529.484 1.2.03" style="fill:none;stroke:red;stroke-width:.999997;stroke-linecap:round;stroke-linejoin:round;stroke-miterlimit:4;stroke-dasharray:none;stroke-opacity:1;visibility:visible"/><path d="m500.46 539.319-.18.205-.248.292-.25.31-.234.319-.236.327-.237.35-.23.359-.224.379-.224.392-.217.398-.21.415-.207.423-.198.442-.192.446-.18.454-.18.466-.175.472-.168.484-.154.498-.156.503-.144.51-.136.521-.13.528-.126.535-.111.533-.105.548-.1.547-.092.552-.075.522-.076.528-.06.528-.055.535-.05.535-.04.533-.036.542M495.025 555.25l-.862 15.282M597.837 612.085l.138-.565.129-.572.118-.584.12-.584.098-.596.098-.596.082-.603.08-.609.063-.61.062-.613.043-.611.045-.619.024-.662.025-.668.006-.665v-.672l-.019-.67-.025-.666-.03-.67-.051-.666-.055-.657-.068-.659-.08-.653-.088-.652-.1-.646-.11-.64-.127-.64-.129-.627-.144-.622-.154-.615-.162-.609-.168-.596-.186-.59-.185-.578-.2-.559-.211-.56-.217-.54-.224-.534-.236-.522-.243-.509-.256-.497-.253-.486-.268-.465-.274-.455-.28-.433-.278-.424-.291-.403-.293-.392-.306-.373-.302-.36-.318-.341-.317-.323-.316-.31-.324-.288-.329-.273-.327-.253-.331-.244-.336-.217-.334-.206-.343-.18-.336-.166M500.46 539.319l88.883 41.166" style="fill:none;stroke:red;stroke-width:1.99999;stroke-linecap:round;stroke-linejoin:round;stroke-miterlimit:4;stroke-dasharray:none;stroke-opacity:1;visibility:visible"/><path d="m62.963 364.455.006-.018.043-.027.07-.016.09-.02.12-.019.13-.017.151-.013" style="fill:none;stroke:red;stroke-width:.999997;stroke-linecap:round;stroke-linejoin:round;stroke-miterlimit:4;stroke-dasharray:none;stroke-opacity:1;visibility:visible"/><path d="m129.249 643.237-1.925-2.006M80.458 363.337l-.048-.02-.082-.01-.106-.014-.125-.013-.143-.005H79.8l-.155.006-.155.006-15.918 1.038M82.248 364.245l-1.79-.907M127.298 641.18l.006.025.02.026" style="fill:none;stroke:red;stroke-width:1.99999;stroke-linecap:round;stroke-linejoin:round;stroke-miterlimit:4;stroke-dasharray:none;stroke-opacity:1;visibility:visible"/><path d="m187.316 417.452.03.026.019.024M207.093 724.304l.074.056.106.05.125.036.148.026.161.012.175.006.175-.013.166-.024M175.984 416.824v.112l-.007.111M172.312 417.154l.098.036.138.038.168.032.192.024.217.024.235.012.25.007.26.007.266-.007.269-.012.261-.012.255-.025.236-.03.217-.034.192-.034.168-.045.138-.044.105-.044M82.248 364.245h0" style="fill:none;stroke:red;stroke-width:.999997;stroke-linecap:round;stroke-linejoin:round;stroke-miterlimit:4;stroke-dasharray:none;stroke-opacity:1;visibility:visible"/><path d="m190.474 617.343 8.628 64.191M208.222 724.453l17.11-3.13M184.552 416.055l2.764 1.397" style="fill:none;stroke:red;stroke-width:1.99999;stroke-linecap:round;stroke-linejoin:round;stroke-miterlimit:4;stroke-dasharray:none;stroke-opacity:1;visibility:visible"/><path d="m163.676 417.924 26.8 199.419" style="fill:none;stroke:red;stroke-width:.999997;stroke-linecap:round;stroke-linejoin:round;stroke-miterlimit:4;stroke-dasharray:none;stroke-opacity:1;visibility:visible"/><path d="m187.365 417.502 38.552 303.458M204.489 721.588l2.601 2.714" style="fill:none;stroke:red;stroke-width:1.99999;stroke-linecap:round;stroke-linejoin:round;stroke-miterlimit:4;stroke-dasharray:none;stroke-opacity:1;visibility:visible"/><path d="m84.05 365.158.02.012.005.007M75.048 364.81l-.008-.05v-.044M71.954 364.922l.062.025.086.024.12.019.135.019.163.011.18.013.192.006.205.007.213-.007.21-.006.218-.006.204-.013.206-.017.185-.02.175-.023.154-.027.138-.03.112-.031.08-.026.056-.03" style="fill:none;stroke:red;stroke-width:.999997;stroke-linecap:round;stroke-linejoin:round;stroke-miterlimit:4;stroke-dasharray:none;stroke-opacity:1;visibility:visible"/><path d="m180.593 414.594.187-.012.185-.007h.188l.18.007.161.012.136.018.106.026.076.03" style="fill:none;stroke:red;stroke-width:1.99999;stroke-linecap:round;stroke-linejoin:round;stroke-miterlimit:4;stroke-dasharray:none;stroke-opacity:1;visibility:visible"/><path d="m84.05 365.158-1.802-.913" style="fill:none;stroke:red;stroke-width:.999997;stroke-linecap:round;stroke-linejoin:round;stroke-miterlimit:4;stroke-dasharray:none;stroke-opacity:1;visibility:visible"/><path d="m161.669 416.284-.169.02-.147.017-.125.031-.106.024-.074.032-.05.038-.013.032M180.593 414.594l-18.924 1.69M184.545 416.055l-2.733-1.387" style="fill:none;stroke:red;stroke-width:1.99999;stroke-linecap:round;stroke-linejoin:round;stroke-miterlimit:4;stroke-dasharray:none;stroke-opacity:1;visibility:visible"/><path d="m187.073 638.355-.273.068-.292.03-.292.007-.304-.03-.312-.058-.316-.085-.324-.12-.33-.148-.333-.18-.343-.211-.35-.238-.351-.266-.361-.297-.367-.324-60.795-56.178M184.545 416.055h.007" style="fill:none;stroke:red;stroke-width:.999997;stroke-linecap:round;stroke-linejoin:round;stroke-miterlimit:4;stroke-dasharray:none;stroke-opacity:1;visibility:visible"/><path d="m501.052 334.485 3.125.694M487.887 335.335l12.226-.882M500.113 334.453l.12-.006.129-.006h.267l.131.006.11.013.102.011.08.012M123.589 536.784l.168.733.18.734.18.738.18.734.193.737.192.741.2.74.198.731.205.735.205.726.212.728.216.72.218.722.217.707.219.702.222.703.231.695.23.69.236.688.229.679.242.672.238.664.242.657.242.653.242.64.248.628.243.62.25.616.246.603.251.596.253.584.25.58.253.564.254.552.25.541.254.528.248.516.255.503.25.484.246.479.251.46.248.448.248.434.248.423.244.404.248.39.241.381.237.358.236.342.236.331.23.309.23.298.206.255.204.243.205.23.193.211.198.199.188.18.185.167M187.516 612.975l-.031-.255-.081-.703-.087-.713-.093-.721M187.224 610.583l-26.24-194.105M193.064 636.62l-5.99 1.733M187.516 612.975l-50.562-44.063M123.589 536.784 84.074 365.175M121.732 580.324l-.304-.292-.304-.316-.311-.348-.317-.367-.316-.398-.323-.423-.33-.452-.33-.472-.327-.497-.337-.529-.341-.546-.343-.572-.341-.59-.343-.622-.348-.64-.347-.659-.348-.681-.354-.704-.348-.727-.348-.739-.355-.765-.347-.775-.354-.8-.348-.818-.348-.831-.348-.845-.342-.864-.348-.881-.34-.888-.345-.908-.335-.919-.334-.933-.33-.938-.328-.955-.324-.965-.322-.969-.318-.981-.316-.988-.31-1-.307-1-.297-1.007-.292-1.013-.292-1.019-.286-1.025-.28-1.026-.273-1.025-.267-1.024-.26-1.032-.256-1.025-.248-1.031-.242-1.026" style="fill:none;stroke:red;stroke-width:1.99999;stroke-linecap:round;stroke-linejoin:round;stroke-miterlimit:4;stroke-dasharray:none;stroke-opacity:1;visibility:visible"/><path d="m487.537 335.41.014-.019.029-.011.057-.014.068-.012.087-.012.095-.007M493.248 528.993l-.03.498" style="fill:none;stroke:red;stroke-width:.999997;stroke-linecap:round;stroke-linejoin:round;stroke-miterlimit:4;stroke-dasharray:none;stroke-opacity:1;visibility:visible"/><path d="m487.537 335.41-12.966 232.06" style="fill:none;stroke:red;stroke-width:1.99999;stroke-linecap:round;stroke-linejoin:round;stroke-miterlimit:4;stroke-dasharray:none;stroke-opacity:1;visibility:visible"/><path d="m658.532 374.074.018-.025.05-.02.073-.017.101-.019.118-.013" style="fill:none;stroke:red;stroke-width:.999997;stroke-linecap:round;stroke-linejoin:round;stroke-miterlimit:4;stroke-dasharray:none;stroke-opacity:1;visibility:visible"/><path d="m658.892 373.98 14.333-1.15" style="fill:none;stroke:red;stroke-width:1.99999;stroke-linecap:round;stroke-linejoin:round;stroke-miterlimit:4;stroke-dasharray:none;stroke-opacity:1;visibility:visible"/><path d="m596.83 575.037-.62-.025-.623-.05-.615-.079-.613-.115-.611-.141-.608-.168-.603-.199-.602-.23-.596-.253-96.526-43.921M612.276 575.2l-.436.012h-.44M498.665 335.758l-.005-.093-.007-.087" style="fill:none;stroke:red;stroke-width:.999997;stroke-linecap:round;stroke-linejoin:round;stroke-miterlimit:4;stroke-dasharray:none;stroke-opacity:1;visibility:visible"/><path d="m507.332 335.875-3.15-.695M494.813 529.856l-.477-.23-.48-.259-.465-.282-.466-.309-.46-.329-.449-.362-.446-.378-.44-.41-.438-.429-.419-.453-.419-.472-.409-.504-.404-.515-.397-.546-.379-.56-.378-.584-.368-.609-.359-.621-.35-.647-.333-.657-.331-.684-.316-.696-.306-.72-.296-.734-.287-.746-.273-.764-.261-.782-.248-.796-.236-.808-.23-.82-.213-.832-.204-.851-.193-.859-.174-.87-.168-.874-.149-.889-.137-.895-.13-.906-.112-.914-.098-.92-.088-.926-.075-.931-.061-.939-.044-.938-.038-.944-.018-.952-.006-.943.006-.957.018-.951.038-.95.043-.949" style="fill:none;stroke:red;stroke-width:1.99999;stroke-linecap:round;stroke-linejoin:round;stroke-miterlimit:4;stroke-dasharray:none;stroke-opacity:1;visibility:visible"/><path d="m507.332 335.875.056.015.03.016.007.02M496.287 335.753l.105.017.13.02.151.019.167.011.173.007.187.007.185.005h.195l.184-.005.188-.007.173-.006.162-.012.142-.014.131-.017.105-.02" style="fill:none;stroke:red;stroke-width:.999997;stroke-linecap:round;stroke-linejoin:round;stroke-miterlimit:4;stroke-dasharray:none;stroke-opacity:1;visibility:visible"/><path d="m603.732 565.247.118-.075.416-.287.404-.304.411-.321.403-.344.396-.36.393-.372.39-.397.387-.41.378-.431.374-.439.366-.46.348-.467.35-.484.345-.496.337-.511.33-.528.322-.546.317-.555.304-.57.299-.585.292-.595.286-.603.272-.622.268-.628.248-.607.236-.615.223-.628.225-.634.21-.646.207-.652.191-.659.187-.665.181-.678M507.425 335.926l-8.972 158.884M498.455 494.81l-.036.67-.027.678-.019.677-.005.677v.678l.012.677.012.677.028.67.035.673.044.663.05.666.061.658.069.658.074.64.08.64.094.64.1.635.112.627.111.62.123.616.138.609.137.596.15.597.153.584.162.578.168.565.18.553.182.554.192.54.198.528.207.52.209.513.218.501.223.49.23.481.243.464.242.455.248.44.248.429.263.41.26.403.273.392.274.374.279.366.28.348.293.335.292.317.29.31.306.285.297.28.305.262.311.242.279.209.28.202.285.178.287.174.285.164.293.139.291.14M508.824 523.476l94.91 41.77M596.83 575.037l14.57.174M658.532 374.074l-44.386 174" style="fill:none;stroke:red;stroke-width:1.99999;stroke-linecap:round;stroke-linejoin:round;stroke-miterlimit:4;stroke-dasharray:none;stroke-opacity:1;visibility:visible"/><path d="m145.757 624.127 10.245-6.362M159.946 637.18l-.154.03-.144.039-.13.041-.118.046M159.946 637.18l13.986-2.64M150.989 623.51l-.107.076-.104.098-.1.125-.093.155-.08.168-.076.187-.068.198-.056.213-.037.222-.031.224-.012.217v.224l.012.204.025.2.043.186.05.168.068.142.075.126.08.092M150.578 626.735l.082.06.086.045.086.019.094-.007.094-.024.092-.05.094-.068" style="fill:none;stroke:red;stroke-width:.999997;stroke-linecap:round;stroke-linejoin:round;stroke-miterlimit:4;stroke-dasharray:none;stroke-opacity:1;visibility:visible"/><path d="m151.604 623.704-.068-.1-.08-.074-.088-.05-.094-.03h-.092l-.101.017-.092.043" style="fill:none;stroke:red;stroke-width:.999997;stroke-linecap:round;stroke-linejoin:round;stroke-miterlimit:4;stroke-dasharray:none;stroke-opacity:1;visibility:visible"/><path d="m614.034 643.535 70.027-268.512" style="fill:none;stroke:red;stroke-width:1.99999;stroke-linecap:round;stroke-linejoin:round;stroke-miterlimit:4;stroke-dasharray:none;stroke-opacity:1;visibility:visible"/><path d="m618.45 551.107 45.078-175.91" style="fill:none;stroke:red;stroke-width:.999997;stroke-linecap:round;stroke-linejoin:round;stroke-miterlimit:4;stroke-dasharray:none;stroke-opacity:1;visibility:visible"/><path d="m603.138 610.86 15.312-59.753" style="fill:none;stroke:red;stroke-width:1.99999;stroke-linecap:round;stroke-linejoin:round;stroke-miterlimit:4;stroke-dasharray:none;stroke-opacity:1;visibility:visible"/><path d="m489.546 594.285-.121-.044-.133-.037-.152-.037-.167-.024-.173-.019-21.02-2.063M489.545 594.285l8.891 3.715M450.179 576.553l.895-1.086M450.179 576.553l-.105 16.247M450.95 593.628l-.874-.827M499.903 598.49l-.428.064-1.039-.554M451.224 593.795l-.224-.131M451.224 593.795l1.827-.275M457.87 576.69l.12.136.092.154.076.176.056.18.03.192.012.2-.012.199-.037.205-.057.197-.08.194-.1.18-.11.174-.137.163-.15.135-.163.125-.167.099-.179.081-.18.056-.188.03-.18.008-.178-.019M457.803 587.277l.112.143.092.156.075.173.05.181.032.191.004.199-.01.2-.04.199-.059.198-.081.194-.1.178-.12.175-.129.155-.149.137-.16.124-.176.1-.174.075-.187.054-.179.032-.186.006-.175-.019M593.885 646.972l9.253-36.11M452.945 575.18l-1.825.255M452.944 575.18l1.027-.143 1.024-.137 1.032-.136 1.037-.13 1.038-.126 1.037-.128 1.044-.125 1.037-.126 1.03-.129 1.04-.13 1.023-.132 1.02-.138 1.02-.14M466.352 573.459l.194-.026.197-.017.205-.019.21-.013.214-.005.204-.007h.21l.213.007.211.011.204.013.198.013M489.44 575.367l-20.828-1.951M489.439 575.367l.197.018.194.026.186.029.187.032.173.032.181.043.167.043.161.05.156.05.143.063.093.036.093.043M491.372 575.832l.635.324.646.31.658.318.665.309.67.312.674.311.676.31.677.318.671.316.666.316.663.324.647.323M499.319 579.623l.876.453M499.945 598.46l-.005.012-.013.007-.01.006-.015.006M450.999 593.664l-.012-.007-.019-.017-.018-.013M451.074 575.467l.013-.012.017-.015.014-.004M500.193 580.076l.02.012.01.019M493.732 588.843h0M500.225 580.108l.491 1.236-.248 16.421-.523.696" style="fill:none;stroke:red;stroke-width:.999997;stroke-linecap:round;stroke-linejoin:round;stroke-miterlimit:4;stroke-dasharray:none;stroke-opacity:1;visibility:visible"/><path d="m467.781 592.061-.18-.011-.185-.007h-.181l-.187.006-.175.018-13.822 1.453M477.752 567.799h0M477.752 567.799l-1.192-.609M199.25 682.614l-.075-.54-.073-.54M204.489 721.588l-5.239-38.974" style="fill:none;stroke:red;stroke-width:.999997;stroke-linecap:round;stroke-linejoin:round;stroke-miterlimit:4;stroke-dasharray:none;stroke-opacity:1;visibility:visible"/><path d="m247.34 330.28-1.321-.175M499.152 582.417l.036.05.056.1.05.105.045.105.042.119.043.11.032.126.03.124.02.124.018.117.019.125.006.124v.243l-.006.119-.012.11-.019.112-.012.063" style="fill:none;stroke:red;stroke-width:.666665;stroke-linecap:round;stroke-linejoin:round;stroke-miterlimit:4;stroke-dasharray:none;stroke-opacity:1;visibility:visible"/><path d="M498.469 581.995h.081l.08.005.082.026.08.037.081.05.073.062.088.081.08.099.039.063M499.5 584.393l-.007.043-.03.1-.031.093-.037.087-.044.086-.05.075-.056.07-.062.055-.075.048-.087.038-.086.026M498.742 585.145l.193-.03M498.742 585.145l-.087.007-.088-.007-.086-.019-.088-.03-.08-.038-.075-.044-.087-.068-.081-.074-.075-.087-.08-.119-.081-.13-.068-.142-.044-.118-.043-.119-.037-.124-.032-.13-.024-.125-.019-.124-.013-.124-.005-.118v-.162l.005-.156.02-.148.025-.149.036-.143.05-.13.05-.094.056-.088.062-.086.074-.068.075-.056.081-.05.092-.037.095-.019.199-.03" style="fill:none;stroke:red;stroke-width:.666665;stroke-linecap:round;stroke-linejoin:round;stroke-miterlimit:4;stroke-dasharray:none;stroke-opacity:1;visibility:visible"/><path d="m497.932 583.292.27.25-.125.438M499.18 593.16l.036.05.056.1.05.105.045.105.042.119.043.11.032.126.03.124.02.124.018.118.019.124.006.124v.243l-.006.119-.012.11-.019.112-.012.063M498.496 592.738h.081l.08.005.082.026.08.037.081.05.073.062.088.081.08.099.039.063M499.527 595.136l-.007.043-.03.1-.031.093-.037.087-.044.086-.05.075-.056.07-.062.055-.075.048-.087.038-.086.026M498.77 595.887l.193-.03" style="fill:none;stroke:red;stroke-width:.666665;stroke-linecap:round;stroke-linejoin:round;stroke-miterlimit:4;stroke-dasharray:none;stroke-opacity:1;visibility:visible"/><path d="m498.77 595.887-.087.007-.088-.007-.086-.019-.088-.03-.08-.036-.075-.044-.087-.068-.081-.076-.075-.087-.08-.117-.081-.131-.068-.143-.044-.118-.043-.119-.037-.123-.032-.132-.024-.122-.019-.126-.013-.124-.005-.117v-.161l.005-.156.02-.15.025-.149.036-.143.05-.13.05-.094.056-.086.062-.087.074-.068.075-.057.081-.048.092-.039.095-.017.199-.032" style="fill:none;stroke:red;stroke-width:.666665;stroke-linecap:round;stroke-linejoin:round;stroke-miterlimit:4;stroke-dasharray:none;stroke-opacity:1;visibility:visible"/><path d="m497.96 594.035.27.25-.125.438M451.485 590.258l-.007-.043-.012-.156v-.117l.007-.125.019-.118.024-.118.032-.124.042-.112.056-.118.056-.112.07-.106.074-.099.074-.093.088-.087.093-.087.099-.076.098-.061.106-.061.106-.051h.006" style="fill:none;stroke:red;stroke-width:.666665;stroke-linecap:round;stroke-linejoin:round;stroke-miterlimit:4;stroke-dasharray:none;stroke-opacity:1;visibility:visible"/><path d="m452.101 591.159-.093-.056-.088-.068-.08-.075-.068-.074-.087-.119-.075-.124-.056-.136-.044-.143-.025-.106M452.517 588.394l.105-.037.112-.031.112-.019.112-.012h.112l.106.006.112.018.105.026.105.044.106.049M453.704 588.493l-.1-.056M453.704 588.493l.124.075.112.093.099.105.086.112.075.124.063.131.049.143.03.149.02.155.006.156-.012.161-.03.161-.033.119-.037.117-.05.119-.055.112-.068.105-.075.106-.081.1-.086.086-.088.087-.1.075-.105.069-.105.061-.112.05-.112.037-.111.03-.119.026-.112.007-.118.005-.112-.012-.111-.019-.112-.03-.112-.044-.112-.05-.099-.056" style="fill:none;stroke:red;stroke-width:.666665;stroke-linecap:round;stroke-linejoin:round;stroke-miterlimit:4;stroke-dasharray:none;stroke-opacity:1;visibility:visible"/><path d="m453.58 589.64-.556.195.056.666M451.332 579.65l-.007-.043-.012-.156v-.118l.007-.124.019-.118.024-.12.032-.122.042-.112.056-.118.056-.112.07-.106.074-.099.074-.093.088-.087.093-.087.099-.076.098-.061.106-.061.106-.051h.006" style="fill:none;stroke:red;stroke-width:.666665;stroke-linecap:round;stroke-linejoin:round;stroke-miterlimit:4;stroke-dasharray:none;stroke-opacity:1;visibility:visible"/><path d="m451.948 580.55-.093-.056-.088-.068-.08-.075-.068-.076-.087-.117-.075-.124-.056-.136-.044-.143-.025-.106M452.363 577.785l.105-.037.112-.031.112-.019.112-.012h.112l.106.006.112.018.105.026.105.044.106.049M453.55 577.885l-.1-.056" style="fill:none;stroke:red;stroke-width:.666665;stroke-linecap:round;stroke-linejoin:round;stroke-miterlimit:4;stroke-dasharray:none;stroke-opacity:1;visibility:visible"/><path d="m453.55 577.885.124.075.112.093.099.105.086.112.075.124.063.131.049.143.03.149.02.153.006.158-.012.161-.03.161-.033.119-.037.117-.05.118-.055.113-.068.105-.075.106-.081.1-.086.086-.088.087-.1.075-.105.069-.105.061-.112.05-.112.036-.111.032-.119.024-.112.008-.118.005-.112-.013-.111-.018-.112-.03-.112-.044-.112-.05-.099-.056" style="fill:none;stroke:red;stroke-width:.666665;stroke-linecap:round;stroke-linejoin:round;stroke-miterlimit:4;stroke-dasharray:none;stroke-opacity:1;visibility:visible"/><path d="m453.425 579.031-.556.195.056.666M477.276 577.863l.063-.056.068-.056.073-.05.083-.043.078-.031.088-.032.087-.024.088-.019.175-.013.172.007.168.032.168.056.156.068.136.08.137.106.117.118.107.124.092.137.076.15.056.147.043.175.024.173v.168l-.024.174-.026.094-.024.087-.038.087-.036.086-.051.082-.05.074-.062.074-.061.069M479.437 579.628l.15-.05.15-.067.13-.082.123-.1.112-.112M477.922 576.999l-.112.107-.099.117-.088.13-.073.145-.05.148" style="fill:none;stroke:red;stroke-width:.666665;stroke-linecap:round;stroke-linejoin:round;stroke-miterlimit:4;stroke-dasharray:none;stroke-opacity:1;visibility:visible"/><path d="m480.103 579.217.112-.15.087-.16.068-.18.049-.187.02-.186-.007-.2-.037-.192-.056-.192-.081-.181-.099-.173-.125-.162-.142-.149-.154-.125-.175-.106-.187-.086-.186-.063-.192-.03-.2-.013-.192.012-.187.044-.179.063-.162.087-.156.11M476.655 578.807l-.119.1-.092.117-.082.131-.055.143-.037.156-.014.154.014.163.03.155.056.156.075.148.093.13M478.487 579.087l.087.155.062.168.044.174.019.174v.174l-.024.174-.05.161-.069.155M476.525 580.36l.085.117.095.1.112.094.119.08.112.062.116.05.118.037.111.019.095.013.093.007.173-.014.168-.037.156-.061.082-.038.08-.05.074-.05.062-.056.062-.061.05-.056.037-.056.03-.039M478.462 579.099l-.099-.13-.124-.111-.118-.094-.131-.081-.13-.061-.131-.044-.13-.032-.068-.012-.081-.006h-.187l-.1.018-.105.025-.112.037-.105.056-.099.063-.087.08M477.183 588.182l.063-.056.068-.056.073-.05.083-.043.078-.031.088-.032.087-.024.088-.019.175-.013.172.007.168.032.168.056.156.068.136.08.137.106.117.118.107.124.092.137.076.15.056.147.043.175.024.173v.168l-.024.174-.026.094-.024.087-.038.087-.036.086-.051.082-.05.074-.062.074-.061.069M479.345 589.946l.15-.05.15-.067.13-.082.123-.1.112-.112M477.83 587.317l-.112.107-.099.117-.088.13-.073.145-.05.148" style="fill:none;stroke:red;stroke-width:.666665;stroke-linecap:round;stroke-linejoin:round;stroke-miterlimit:4;stroke-dasharray:none;stroke-opacity:1;visibility:visible"/><path d="m480.01 589.536.112-.15.087-.16.068-.18.049-.187.02-.186-.007-.2-.037-.192-.056-.192-.081-.181-.099-.173-.125-.162-.142-.149-.154-.125-.175-.106-.187-.086-.186-.063-.192-.03-.2-.013-.192.012-.187.044-.179.063-.162.087-.156.11M476.562 589.126l-.119.1-.092.117-.082.131-.055.143-.037.156-.014.154.014.163.03.155.056.156.075.148.093.13M478.394 589.406l.087.155.062.168.044.174.019.174v.174l-.024.174-.05.161-.069.155M476.432 590.68l.085.117.095.1.112.094.119.08.112.062.116.05.118.037.111.019.095.013.093.007.173-.014.168-.037.156-.061.082-.038.08-.05.074-.05.062-.056.062-.061.05-.056.037-.056.03-.039M478.37 589.417l-.099-.13-.124-.111-.118-.094-.131-.081-.13-.061-.131-.044-.13-.032-.068-.012-.081-.006h-.187l-.1.018-.105.025-.112.037-.105.056-.099.063-.087.08M556.692 635.279l5.064 2.919" style="fill:none;stroke:red;stroke-width:.666665;stroke-linecap:round;stroke-linejoin:round;stroke-miterlimit:4;stroke-dasharray:none;stroke-opacity:1;visibility:visible"/><path d="m156.074 626.99-1.392.113M150.634 612.744l-10.678 12.14M489.439 575.367l7.562-1.187M494.907 572.863l.385 1.287M495.292 574.15l-.385-1.287M489.75 568.315l5.157 4.547M456.338 579.555l-15.334-5.505M438.978 572.745l.305 1.292M439.283 574.037l-.305-1.292M452.945 575.18l-13.967-2.435M316.662 591.23l-.017-1.38M316.663 591.228l-.018-1.379M181.862 628.154l-.213 7.391M139.109 617.689l2.797-1.336M156.31 624.258l-3.457-9.438M494.813 529.856l1.082.336M593.127 566.252l-3.082 6.761M190.476 617.343l-.296-2.158M159.02 626.264l8.18 1.975M159.202 626.208l2.82-2.815M151.206 626.71l-.908 1.809M152.872 626.897l-.586 3.547M154.226 632.32l13.81-3.297M150.989 623.51l-3.995 1.809M158.045 629.885l6.201-4.404M161.022 638.9l12.048-5.17M492.384 585.563l4.517-6.183M498.45 597.168l-3.76-5.02M490.104 592.844l4.584-.696M498.71 579.597l-3.871 1.89M498.696 580.436l-3.856 1.05M453.056 592.701l2.511-3.342M453.08 590.501l2.487-1.141M453.18 575.306l2.46 3.459M452.925 579.892l2.715-1.127M591.843 635.577l6.938 10.556M152.872 626.897l1.354 5.423M499.32 579.623l-3.655-.739" style="fill:none;stroke:red;stroke-width:.999997;stroke-linecap:round;stroke-linejoin:round;stroke-miterlimit:4;stroke-dasharray:none;stroke-opacity:1;visibility:visible"/><path d="m201.905 718.897-.585-4.075" style="fill:none;stroke:red;stroke-width:1.99999;stroke-linecap:round;stroke-linejoin:round;stroke-miterlimit:4;stroke-dasharray:none;stroke-opacity:1;visibility:visible"/><path d="m490.315 576.74-6.126-1.864" style="fill:none;stroke:red;stroke-width:.999997;stroke-linecap:round;stroke-linejoin:round;stroke-miterlimit:4;stroke-dasharray:none;stroke-opacity:1;visibility:visible"/><path d="m479.417 593.819 7.282.1M556.692 635.279l-7.288-7.74" style="fill:none;stroke:red;stroke-width:1.99999;stroke-linecap:round;stroke-linejoin:round;stroke-miterlimit:4;stroke-dasharray:none;stroke-opacity:1;visibility:visible"/><path d="m159.946 637.18 1.076 1.72M159.946 637.18l16.255-.516" style="fill:none;stroke:red;stroke-width:.999997;stroke-linecap:round;stroke-linejoin:round;stroke-miterlimit:4;stroke-dasharray:none;stroke-opacity:1;visibility:visible"/><path d="m467.023 590.65 7.225 2.045" style="fill:none;stroke:red;stroke-width:1.99999;stroke-linecap:round;stroke-linejoin:round;stroke-miterlimit:4;stroke-dasharray:none;stroke-opacity:1;visibility:visible"/><path d="m184.825 608.284-2.641.048M139.109 617.689l2.261-3.653M141.906 616.353l8.728-3.609M479.456 593.204l-.311-18.8" style="fill:none;stroke:red;stroke-width:.999997;stroke-linecap:round;stroke-linejoin:round;stroke-miterlimit:4;stroke-dasharray:none;stroke-opacity:1;visibility:visible"/><path d="m123.056 606.121-2.599-.741" style="fill:none;stroke:red;stroke-width:1.99999;stroke-linecap:round;stroke-linejoin:round;stroke-miterlimit:4;stroke-dasharray:none;stroke-opacity:1;visibility:visible"/><path d="m119.968 579.772.969-.262M467.023 590.65l15.743 2.883" style="fill:none;stroke:red;stroke-width:.999997;stroke-linecap:round;stroke-linejoin:round;stroke-miterlimit:4;stroke-dasharray:none;stroke-opacity:1;visibility:visible"/><path d="m482.535 555.044-3.98-1.571" style="fill:none;stroke:red;stroke-width:1.99999;stroke-linecap:round;stroke-linejoin:round;stroke-miterlimit:4;stroke-dasharray:none;stroke-opacity:1;visibility:visible"/><path d="m489.77 587.023-11.745 6.045" style="fill:none;stroke:red;stroke-width:.999997;stroke-linecap:round;stroke-linejoin:round;stroke-miterlimit:4;stroke-dasharray:none;stroke-opacity:1;visibility:visible"/><path d="m490.315 576.74 3.848-6.208M187.074 638.355l5.99-1.735M107.926 540.928l-2.546-.454M479.897 568.894l-5.326-1.424M485.959 494.33l-4.069-.37" style="fill:none;stroke:red;stroke-width:1.99999;stroke-linecap:round;stroke-linejoin:round;stroke-miterlimit:4;stroke-dasharray:none;stroke-opacity:1;visibility:visible"/><path d="m150.989 623.51-5.232.617M146.994 625.319l9.008-7.554M161.022 638.9l12.91-4.36M454.995 584.649l1.343-5.094M476.431 590.68l-18.628-3.403M454.995 584.649l1.248 5.479M591.843 635.577l2.042 11.395" style="fill:none;stroke:red;stroke-width:.999997;stroke-linecap:round;stroke-linejoin:round;stroke-miterlimit:4;stroke-dasharray:none;stroke-opacity:1;visibility:visible"/><path d="m497.815 586.893.117-3.601M497.815 586.893l.145 7.142M452.517 588.394l1.063 1.246M455.567 589.36l-2.487 1.141M452.363 577.785l1.062 1.246M455.64 578.765l-2.715 1.127M549.404 627.539l7.288 7.74" style="fill:none;stroke:red;stroke-width:.666665;stroke-linecap:round;stroke-linejoin:round;stroke-miterlimit:4;stroke-dasharray:none;stroke-opacity:1;visibility:visible"/><path d="m626.987 642.984-3.647-1.497-386.672 66.4 4.804 30.155 3.403 1.86 378.555-68.198 3.557-28.72" style="fill:none;fill-opacity:1;fill-rule:nonzero;stroke:#00ff4a;stroke-width:1.33333;visibility:visible" visibility="hidden"/><path d="m293.315 701.142-.254-.074-.274-.062-.297-.05-.307-.043-.322-.03-.331-.015-.333-.004-.343.012-.335.018-.329.038-.316.044-.311.056-.292.068-.268.08-.253.086" style="fill:none;stroke:#00ff4a;stroke-width:.999997;stroke-linecap:round;stroke-linejoin:round;stroke-miterlimit:4;stroke-dasharray:none;stroke-opacity:1;visibility:visible" visibility="hidden"/><path d="m292.24 701.428.31-.062.292-.069.273-.081.25-.092.224-.1.19-.106.171-.112.129-.116.099-.12.062-.124.03-.124-.01-.117-.039-.125-.081-.12-.111-.109-.143-.115-.18-.098-.206-.093-.23-.081-.26-.074-.28-.069-.297-.05-.311-.041-.324-.026-.335-.012-.342-.007-.335.012-.343.025-.33.031-.321.05-.311.063-.285.067-.274.081-.25.094-.222.092-.2.106-.16.112-.137.12-.1.115-.063.125-.029.124.006.124.043.12.073.122.112.113.145.105.174.107.204.092.236.081.255.075.28.069.298.049.316.042.33.025.336.019h.334l.343-.01.341-.021.33-.037.322-.049M445.284 675.16l-.25-.075-.271-.063-.285-.049-.3-.043-.309-.032-.318-.024-.323-.006h-.322l-.318.012-.31.025-.3.036-.29.05-.268.058-.254.061" style="fill:none;stroke:#00ff4a;stroke-width:.999997;stroke-linecap:round;stroke-linejoin:round;stroke-miterlimit:4;stroke-dasharray:none;stroke-opacity:1;visibility:visible" visibility="hidden"/><path d="m291.47 701.521-.212-.013h-.218l-.217.012-.217.025M444.682 675.296l.28-.056.26-.062.244-.076.21-.08.194-.092.154-.1.13-.1.094-.105.062-.112.03-.112-.005-.111-.037-.113-.075-.112-.105-.105-.136-.106-.162-.1-.2-.086-.217-.088-.25-.074-.265-.068-.281-.056-.304-.05-.305-.036-.323-.026-.323-.012-.322-.006-.323.012-.317.018-.311.038-.292.044-.28.05-.26.066-.243.076-.218.081-.186.087-.162.1-.123.098-.1.106-.061.112-.032.112v.112l.037.112.075.112.105.105.137.105.162.1.198.092.218.083.249.08.26.068.285.056.306.05.31.036.316.026.33.012h.322l.324-.005.324-.026.303-.03.299-.044M244.873 739.905l-5.07-29.001" style="fill:none;stroke:#00ff4a;stroke-width:.999997;stroke-linecap:round;stroke-linejoin:round;stroke-miterlimit:4;stroke-dasharray:none;stroke-opacity:1;visibility:visible" visibility="hidden"/><path d="m627.734 644.35-387.93 66.551-3.139-3.011" style="fill:none;stroke:#00ff4a;stroke-width:.999997;stroke-linecap:round;stroke-linejoin:round;stroke-miterlimit:4;stroke-dasharray:none;stroke-opacity:1;visibility:visible" visibility="hidden"/><path d="m623.428 671.706 4.305-27.356M623.428 671.705l-378.555 68.2-3.144-3.15" style="fill:none;stroke:#00ff4a;stroke-width:1.99999;stroke-linecap:round;stroke-linejoin:round;stroke-miterlimit:4;stroke-dasharray:none;stroke-opacity:1;visibility:visible" visibility="hidden"/><path d="m584.133 651.387.255-.05.236-.055.21-.068.187-.076.156-.086.13-.088.094-.093.068-.099.03-.1v-.098l-.03-.106-.068-.1-.093-.1-.131-.098-.156-.1-.187-.087-.21-.087-.231-.074-.253-.07-.274-.061-.286-.056-.299-.044-.304-.03-.316-.026-.312-.012h-.316l-.304.007-.299.024-.285.025-.273.044-.256.05-.235.055-.212.068-.185.075-.156.087-.131.088-.099.092-.069.093-.032.105v.1l.032.106.063.1.093.1.13.098.155.1.187.087.205.087.236.074.255.075.273.063.286.049.298.043.311.032.31.024.318.013.31.005.311-.012.298-.018.292-.031.273-.044" style="fill:none;stroke:#00ff4a;stroke-width:.999997;stroke-linecap:round;stroke-linejoin:round;stroke-miterlimit:4;stroke-dasharray:none;stroke-opacity:1;visibility:visible" visibility="hidden"/><path d="m241.729 736.754-5.063-28.865M627.735 644.348l-4.63-2.361-386.438 65.9" style="fill:none;stroke:#00ff4a;stroke-width:1.99999;stroke-linecap:round;stroke-linejoin:round;stroke-miterlimit:4;stroke-dasharray:none;stroke-opacity:1;visibility:visible" visibility="hidden"/><path d="m292.239 701.428-1.633.117" style="fill:none;stroke:#00ff4a;stroke-width:.999997;stroke-linecap:round;stroke-linejoin:round;stroke-miterlimit:4;stroke-dasharray:none;stroke-opacity:1;visibility:visible" visibility="hidden"/><path d="m152.872 626.897-9.767-5.336" style="fill:none;stroke:red;stroke-width:1.99999;stroke-linecap:round;stroke-linejoin:round;stroke-miterlimit:4;stroke-dasharray:none;stroke-opacity:1;visibility:visible"/><path d="m453.425 579.031 4.445-2.341" style="fill:none;stroke:red;stroke-width:.999997;stroke-linecap:round;stroke-linejoin:round;stroke-miterlimit:4;stroke-dasharray:none;stroke-opacity:1;visibility:visible"/><path d="m225.917 720.96 13.886-10.056M592.01 635.577l-7.877 15.81M592.01 635.577l-7.877 15.81" style="fill:none;stroke:#00ff4a;stroke-width:.999997;stroke-linecap:round;stroke-linejoin:round;stroke-miterlimit:4;stroke-dasharray:none;stroke-opacity:1;visibility:visible" visibility="hidden"/></svg>