<svg xmlns="http://www.w3.org/2000/svg" baseProfile="full" height="1122.52" preserveAspectRatio="xMinYMin meet" style="width:912px;height:1303px" width="793.701" xml:space="preserve"><path d="m160.346 705.468-61.215 18.027M197.09 698.675l.008-.025.008-.018.008-.017.008-.01.008-.009h.008M205.896 692.636l-.007.29-.024.291-.057.3-.068.284-.1.286-.119.277-.136.26-.153.253-.17.227-.182.203-.199.186-.206.16-.21.136-.226.102-.219.076-.22.041-.221.008-.215-.019-.207-.052-.198-.078-.192-.112-.175-.139-.15-.165-.145-.192-.118-.218-.102-.234-.076-.246-.052-.27-.036-.28-.01-.282.016-.298.04-.292.068-.292.082-.294.102-.276.128-.269.144-.261.17-.236.172-.219.198-.195.198-.177.208-.144.218-.119.228-.084.22-.06.22-.024h.222l.206.036.206.07.192.096.183.129.168.148.143.183.134.2.102.226.093.244.07.263.034.272.028.28M207.355 700.014l.092-.037.093-.046M207.221 700.309l.076-.267M207.132 696.79l.17-.03.17-.007.17.028.157.054.148.08.132.115.124.132.098.159.084.176.067.194.041.211.026.221-.011.223M208.18 699.456l-.105.175-.123.158-.132.14-.14.124-.15.108-.15.082-.16.065M210.045 686.897l-1.807.524M209.657 686.782l-1.807.532.388.107M208.263 688.4l-5.757 1.685M208.263 688.4l-.025-.98M197.172 698.288l3.284-.967M200.455 697.322l.27-.07.263-.034M200.99 697.217l1.787-.13 1.786-.122 1.787-.123.783-.053M207.221 700.309l-.77.41-.82.44M198.87 699.083l2.552-.704M201.939 698.276l2.792-.396 1.401-.201 1.408-.195M207.54 697.483h-.008" style="fill:none;stroke:red;stroke-width:.999997;stroke-linecap:round;stroke-linejoin:round;stroke-miterlimit:4;stroke-dasharray:none;stroke-opacity:1;visibility:visible"/><path d="m207.532 697.483.144-.03.136-.005.13.03.12.056.114.081.097.107.082.125M207.775 699.795l-.084.045-.093.03M195.213 698.127l.99-5.604M196.61 692.22l-.135.056-.109.055-.083.062-.057.062-.024.069M196.61 692.22l6.052-2.156M207.022 697.552h0M201.422 698.38l.068-.01.059-.02M201.549 698.349l.177-.041.171-.031M201.896 698.277l.025-.001h.018M207.85 687.314h0-.008M195.205 691.313l-.103-.013-.102.012M207.775 699.795l-.235.136M208.355 697.847l-.128-.235M207.607 699.869l-1.07.6-1.08.619-.025.017M208.355 697.847l.064.135.048.142.03.144.023.144.004.154-.02.145-.029.155-.037.146-.063.147-.072.14-.097.123-.099.122-.099.098-.117.08-.116.073M698.66 399.336l-.11-.013-.087-.015-.07-.023-.052-.016-.025-.024-.01-.017M636.403 679.855l68.312-279.783-6.055-.735M715.28 398.013l-10.564 2.057M704.156 398.453l.179-.024.161-.021.135-.023.11-.03.084-.027.051-.028.016-.035-.01-.033-.035-.034-.078-.032-.096-.038-.128-.03-.154-.02-.172-.028" style="fill:none;stroke:red;stroke-width:.999997;stroke-linecap:round;stroke-linejoin:round;stroke-miterlimit:4;stroke-dasharray:none;stroke-opacity:1;visibility:visible"/><path d="m704.22 398.05-.188-.019-.197-.018-.214-.01-.213-.009-.223-.01-.213.007-.213-.001-.195.016-.188.005-.17.024-.153.023-.126.02-.102.03-.076.029-.041.026-.016.035.01.033.043.034.07.032.102.03.122.03.145.029.172.028M704.22 398.05l-.036.197-.036.206M702.355 398.414h0M456.294 533.756l-4.136-164.372M452.158 369.384l-.103.02-.118.005-.127.012-.145.006-.136-.004-.147-.003-.128-.013-.11-.004M602.93 587.59l-127.249-25.452M612.817 590.468l9.023 1.807M691.954 398.53l-.104-.023-.093-.013-.07-.015-.052-.022-.025-.018-.001-.025M697.983 399.257l-6.03-.728M461.663 367.79l-9.505 1.595M475.682 562.137l-.696-.155-.688-.181-.681-.207-.683-.24-.673-.266-.668-.292-.668-.318-.652-.344-.644-.37-.636-.395-.628-.423-.614-.448-.605-.473-.597-.49-.58-.518-.566-.543-.557-.569-.55-.577-.523-.614-.518-.629-.5-.648-.484-.665-.466-.684-.452-.71-.434-.717-.409-.736-.403-.755-.385-.77-.359-.78-.344-.799-.326-.816-.302-.816-.285-.836-.268-.843-.244-.861-.225-.863-.202-.872-.184-.872-.168-.889-.14-.89-.118-.891-.099-.902-.075-.9-.057-.904-.032-.91M631.594 590.75l.524.101.523.084M655.715 572.934l-.27 1.041-.289 1.026-.314 1.017-.34 1.01-.358.985-.384.977-.409.97-.428.945-.453.928-.472.92-.498.897-.514.87-.534.863-.558.839-.578.821-.594.798-.614.772-.629.754-.65.731-.665.705-.676.69-.701.656-.71.638-.731.606-.739.58-.756.556-.767.529-.776.496-.793.48-.803.445-.813.414-.823.386-.832.362-.841.328-.841.302-.854.268-.86.244-.872.21-.864.182-.88.15-.876.125-.884.09M655.715 572.934l.315-.019M451.144 369.403l-4.95-.603M621.839 592.275l.79.143.789.118.788.083.794.05.794.022.793-.001.792-.036.79-.071.79-.096.79-.121.78-.155.777-.19.777-.206M452.376 368.072l.136-.013.11-.02.093-.03.077-.02.041-.026.024-.027-.001-.025-.035-.024-.052-.024-.068-.024-.104-.022-.11-.022-.139-.02M461.832 367.724l-.008.017-.033.019-.051.019-.076.01M631.663 590.755l-.033-.008-.035.003" style="fill:none;stroke:red;stroke-width:.999997;stroke-linecap:round;stroke-linejoin:round;stroke-miterlimit:4;stroke-dasharray:none;stroke-opacity:1;visibility:visible"/><path d="M465.978 533.375h-.008l-.035.001-.05.002-.076.004" style="fill:none;stroke:red;stroke-width:1.99999;stroke-linecap:round;stroke-linejoin:round;stroke-miterlimit:4;stroke-dasharray:none;stroke-opacity:1;visibility:visible"/><path d="m452.376 368.072-.013-.144-.023-.153M452.34 367.774l-.155-.02-.178-.01-.18-.011-.196-.003-.196-.001-.188-.002-.196.006-.187.008-.17.014-.162.014-.144.022-.128.022-.101.02-.084.028-.06.02-.024.026.001.034.017.025.054.024.077.023.103.03.12.022.137.012M446.184 368.8l-4.925-.595M446.184 368.8l6.125 242.58M441.259 368.204l-.085-.013-.07-.016-.05-.015-.036-.016-.008-.017M437.015 624.505l.008-.256.025-.265.051-.258.059-.266.085-.251.093-.243.112-.233.128-.219.139-.192.147-.184.165-.16.167-.133.165-.117.177-.083.176-.057.179-.031.17-.007.163.028.164.055.156.08.14.105.134.132.124.15.1.176.092.192.076.22.05.228.043.237.017.247v.256l-.025.265-.033.265-.059.259-.068.257-.093.243-.103.243-.12.217-.13.21-.146.191-.156.168-.157.151-.167.125-.175.1-.177.075-.177.039-.171.014-.17-.001-.173-.045-.156-.064-.148-.088-.14-.123-.124-.141-.117-.166-.092-.185-.084-.201-.067-.22-.042-.238-.026-.246-.009-.255M437.014 635.711l.008-.264.033-.257.042-.266.068-.258.077-.251.103-.243.11-.233.12-.217.138-.202.157-.176.156-.158.165-.143.167-.108.176-.092.177-.057.178-.032.17-.006.172.028.155.046.156.081.141.105.132.132.124.15.102.174.09.194.078.21.049.23.033.237.027.255.001.256-.026.256-.032.265-.06.259-.068.257-.094.243-.102.242-.12.226-.13.201-.146.193-.148.175-.166.143-.166.125-.175.1-.177.075-.178.048-.169.014-.17-.002-.165-.038-.164-.07-.149-.088-.13-.115-.134-.141-.108-.167-.1-.184-.084-.201-.059-.22-.052-.238-.025-.246-.008-.247M478.155 622.923l.008-.256.035-.25.06-.23.068-.225.096-.208.112-.183.13-.176.15-.141.157-.124.176-.102.185-.065.186-.05.204-.015.197.01.207.044.197.062.199.094.201.114.184.146.176.166.168.181.153.208.135.216.119.236.102.243.087.253.06.263.043.253.017.264.001.256-.025.256-.043.241-.069.224-.077.216-.104.2-.131.184-.13.15-.158.142-.167.107-.176.083-.194.058-.195.032-.196-.001-.205-.027-.199-.053-.199-.079-.2-.102-.192-.131-.184-.156-.168-.172-.161-.192-.144-.215-.127-.226-.112-.244-.093-.244-.068-.254-.052-.262-.035-.264-.009-.255M478.101 634.097l.017-.256.026-.24.06-.24.069-.217.095-.208.113-.191.13-.167.149-.141.157-.125.176-.1.185-.067.186-.04.205-.016.196.01.207.035.197.071.2.095.192.113.192.147.177.164.159.182.153.208.144.216.119.235.103.244.077.253.068.262.035.256.026.262-.008.256-.017.248-.043.24-.068.234-.086.216-.104.19-.123.184-.139.159-.149.133-.167.108-.185.083-.185.057-.195.024-.196.008-.205-.028-.199-.052-.208-.086-.19-.104-.193-.131-.184-.156-.168-.172-.161-.2-.144-.208-.127-.225-.112-.244-.093-.244-.068-.262-.052-.254-.035-.263-.009-.256M436.132 631.955l-.144.023-.136-.004-.13-.03-.13-.056-.113-.081-.106-.099-.09-.133-.072-.143-.067-.168-.04-.177-.032-.195-.007-.205.01-.204.026-.205.044-.216.062-.198.078-.19.087-.183.105-.175.115-.148.132-.124.124-.116.141-.081.143-.056M482.237 629.654h0M434.665 620.962l-1.436.416.379.09M435.052 621.05l-.387-.088M435.052 621.05l-1.444.417M470.324 626.309l-22.819.37M446.55 618.9v5.595l11.013-.18M460.743 624.264l10.255-.163M471.013 618.447l-.016 5.655M470.975 629.817l-24.43.392-.009 5.852 12.163-.204M470.975 629.817l-.027 5.844M459.893 635.842l11.056-.181M435.054 639.447l.005.87M446.053 630.278l-4.684 1.4M435.054 639.447l10.99-3.327M441.368 631.679l-.212.05-.204.023M440.953 631.752l-1.405.059-1.398.057-1.405.057-.613.03M436.133 628.791l.619-.347 1.397-.773 1.407-.773 1.397-.774M440.952 626.124l.21-.101.21-.076 4.685-1.383M440.815 620.235l-5.767 1.693.004-.878M484.85 620.224l-.775-.177-.781-.162-.781-.168-.8-.16-1.606-.328-1.614-.31-1.607-.319-1.597-.32-.791-.168-.79-.16-.774-.17-.764-.169M447.004 626.74l-4.119 1.227M442.885 627.967l-.033.01-.035.009M442.488 628.108l-1 .419-.924.382-.85.354-.833.345-.908.372-1.009.41M470.33 618.42l-22.793.361M446.661 618.88l-9.273 2.15" style="fill:none;stroke:red;stroke-width:.999997;stroke-linecap:round;stroke-linejoin:round;stroke-miterlimit:4;stroke-dasharray:none;stroke-opacity:1;visibility:visible"/><path d="m435.049 621.93.007-.043.033-.036.05-.044.066-.045.092-.053.101-.047.126-.056.134-.056.151-.064.17-.057.177-.058.185-.058.203-.058.202-.058.211-.059.212-.059.22-.05M471.253 618.481l-.17-.02-.18-.019-.189-.018-.188-.003-.196-.001M471.253 618.481l5.908.99M447.536 618.78l-.196.007-.187.014-.178.016-.162.031-.152.03M446.058 624.564l.059-.02.077-.01M446.193 624.533l.085-.01.084-.013M446.363 624.51l.093-.012.094-.003M446.358 630.217l-.085.01-.084.013M446.188 630.239l-.076.02-.06.02M446.043 636.121l.101-.021.12-.02.135-.015.137-.004M446.545 630.21l-.093.003-.095.004M447.505 626.68l-.093.003-.094.02M447.318 626.703l-.033.01-.026.009-.025.001-.027.01h-.033l-.025-.007M447.148 626.726l-.077.003-.067.01M432.492 639.827l.405.096M484.25 621.132l.003-.87M476.78 619.465l7.47 1.667M471.52 624.152l5.408 1.219M476.927 625.37l.241.068.242.095M477.41 625.533l1.612.719 1.62.729 1.612.728.719.324M482.973 628.034l.156.055.156.07.157.106.14.124.134.148.125.166.1.176.092.192.067.203.049.204.033.203.008.213-.01.196-.036.197-.054.182-.07.164-.09.148-.106.132-.115.114-.143.082-.142.056-.152.04-.154.005-.162-.02M482.955 631.19h-.716l-1.621-.012-1.612-.012-1.622-.012M477.385 631.154l-.24-.017-.248-.043-5.4-1.236M484.153 638.637l-.004.87M484.153 638.637l-12.673-2.935M485.81 639.892l.84-.856M475.686 627.453l-.033-.008-.044-.007-4.763-1.088M482.237 629.654l-1.113-.37-1.044-.347-.95-.326-.932-.317-1.01-.348-1.123-.388-.033-.007M470.998 624.102l.093.005.095.006M471.186 624.112l.085.005.094.006M471.365 624.123l.077.015.078.014M471.497 629.859l-.077-.015-.078-.014M471.342 629.83l-.085-.013-.095-.006" style="fill:none;stroke:red;stroke-width:.999997;stroke-linecap:round;stroke-linejoin:round;stroke-miterlimit:4;stroke-dasharray:none;stroke-opacity:1;visibility:visible"/><path d="m471.163 629.811-.093.003-.095.004M471.48 635.702l-.12-.021-.13-.014-.135-.012-.146.006M470.846 626.35l-.07-.007-.083.004M470.692 626.347l-.035.001-.025.002h-.025l-.035-.007-.025.001-.035-.016M470.513 626.328l-.095-.013-.094-.006M486.65 639.036l.347-.107M471.297 624.117h0M476.03 627.551l-.172-.053-.173-.046M442.817 627.986l-.143.056-.161.05M486.242 620.533h.01M484.85 620.224l.008-.01v.01M472.17 617.614l.076-.012.077.007M470.065 617.43l-.01-.017-.007-.008M447.536 617.791v-.017l-.01-.008M445.557 618.04l-.103-.004-.101.012M434.665 620.962h0-.008M433.213 621.379h.017M209.26 690.089l-.137-.021-.136-.012-.144.013-.146.03M207.444 692.787l-.01-.017-.04-.17-.03-.134-.013-.136-.006-.146.004-.136.012-.145.022-.145.029-.147.036-.147.048-.137.055-.139.062-.13.074-.131.072-.121.089-.115.09-.105.09-.106.1-.088.008-.009M345.933 745.88l-172.289-50.385M475.276 614.23l-.168.056-.144.056-.117.064-.092.064-.066.07-.04.07-.006.068.028.076.045.067.08.065.104.065.139.063.154.063.174.053.206.044.215.044.24.043.248.025.257.025.266.026.273.008.281-.003h.274l.272-.01.264-.018.254-.025.238-.035.229-.041.203-.042.194-.049.16-.057.143-.064.117-.056.092-.071.066-.07.032-.07.005-.07-.019-.066-.053-.067-.079-.074-.106-.064-.13-.064-.154-.054-.182-.053-.198-.053-.223-.044-.23-.034-.25-.034-.257-.026-.274-.016-.272-.008-.274-.006-.272.009-.274.01-.262.017-.247.026-.247.034-.22.042-.212.042-.185.049M480.08 634.105l.032.187.057.193.059.185.083.178M480.135 622.956l.05.228.069.237.084.218M459.957 612.035l49.916 11.101M511.807 623.564l118.793 26.41M165.187 682.655l10.588 41.865M351.903 778.833l.345-40.653M352.248 738.18l-.008-.98-.027-.99-.06-.994-.078-1.012-.112-1.012-.13-1.027-.154-1.026-.182-1.043-.216-1.041-.232-1.042-.25-1.049-.284-1.047-.31-1.048-.326-1.045-.352-1.045-.378-1.044-.394-1.036-.42-1.035-.446-1.025-.461-1.024-.487-1.006-.505-1.006-.521-.988-.546-.979-.562-.97-.587-.953-.597-.942-.612-.926-.636-.906-.647-.89-.661-.873-.679-.855-.693-.837-.702-.812-.718-.793-.727-.768-.735-.75-.75-.725-.758-.699-.765-.672-.773-.648-.78-.62-.79-.594-.786-.57-.796-.536-.802-.509-.802-.484-.808-.45-.808-.414-.807-.39-.807-.365-.804-.329-.804-.297-.793-.262-.801-.228M352.248 738.18h0M175.72 653.587l-.663-.164-.661-.14-.661-.112-.651-.09-.641-.054-.64-.019-.623.004-.623.03-.612.065-.601.08-.585.123-.583.149-.565.172-.556.199-.538.232M170.545 661.444l-.47.237-.451.255-.442.297-.424.314-.414.346-.388.372-.379.398-.36.421-.335.455-.324.472-.306.497-.282.521-.261.547-.245.572-.226.588-.201.612-.183.63-.165.645-.147.67-.113.678-.103.704-.077.718-.06.727-.033.744-.008.759.009.766.027.776.054.791.07.79.097.807.112.808.14.822.157.821.182.821.19.83M176.742 660.605l.03.127.047.118.063.099.07.084.089.056.094.04" style="fill:none;stroke:red;stroke-width:.999997;stroke-linecap:round;stroke-linejoin:round;stroke-miterlimit:4;stroke-dasharray:none;stroke-opacity:1;visibility:visible"/><path d="m177.135 661.128-.43-.113-.422-.087-.42-.08-.42-.061-.419-.046-.402-.029-.41-.01-.392.005-.392.013-.382.039-.383.048-.372.072-.364.081-.355.097-.346.115-.344.132-.336.14M103.135 423.893l.117-.03.094-.037.066-.037.034-.035.016-.034-.019-.034-.052-.033-.07-.03-.103-.031-.13-.03M114.61 423.51l-.007.025-.042.028-.067.028-.093.02-.111.022M99.03 425.811l.128.012.147.012.153.012.17.003.18-.007.169-.015.153-.013.153-.015 14.006-2.168M99.03 425.811l-5.001-.85M363.176 467.376l-.215-.027-.222-.025-.239-.017-.256-.008h-.52l-.256.009-.255.017-.238.018-.22.033-.204.032-.17.032-.152.04-.118.047-.084.045-.048.053-.016.043.018.05.062.049.086.049.122.037.154.038.18.037M347.855 468.006l.01.033.035.026.068.03.079.024.112.022M354.507 469.215l-6.35-1.075M100.285 425.801l47.313 187.197M147.599 612.998l.265.997.283 1.004.308.998.324.994.341.986.359.993.384.977.401.975.418.975.434.957.459.956.468.94.485.928.502.921.526.912.526.894.55.877.568.867.576.85.583.823.608.816.608.797.624.78.641.762.64.737.656.71.664.694.671.675.68.65.688.624.693.599.703.572.701.548.71.52.708.496.716.47.714.445.723.408.712.386.721.358.719.324.719.3.717.265.707.23.714.206M173.517 645.195l150.696 40.47M363.176 467.376l-.033.275-.034.265M360.586 467.928h0M352.829 667.351l-.008.01M352.82 667.36l-.02 1.127-.047 1.118-.072 1.103-.106 1.087-.126 1.07-.15 1.055-.176 1.039-.214 1.013-.228.997-.248.982-.281.956-.301.94-.335.916-.352.89-.37.867-.406.85-.415.815-.45.792-.468.767-.486.743-.512.717-.53.684-.558.659-.565.633-.595.593-.61.575-.638.543-.648.509-.665.475-.684.45-.693.416-.72.384M346.773 664.654l-.104-.056-.079-.057-.062-.066-.036-.066-.011-.078M458.9 638.154l-.024-.903M457.862 637.27l.024.903M458.386 617.591l-.51-20.221M639.875 638.103l.207-.912.182-.91.163-.926.139-.927.104-.941.085-.941.07-.942.035-.956.01-.948-.008-.954-.034-.954-.066-.953-.086-.952-.109-.95-.127-.943-.161-.951-.187-.93-.202-.933-.228-.921-.255-.92-.279-.903-.296-.894-.32-.894-.346-.865-.363-.867-.388-.846-.412-.83-.43-.822-.446-.803-.47-.785-.489-.768-.504-.75-.528-.733-.537-.705-.561-.698-.578-.66-.594-.654-.602-.628-.626-.6-.634-.575-.652-.557-.657-.524-.683-.504-.682-.48-.698-.452-.705-.42-.713-.402-.73-.366-.729-.35-.744-.316-.744-.28-.75-.256-.76-.229-.757-.204-.764-.17M639.875 638.103l.297-.036M457.876 597.37l-.01-.759.009-.758.041-.762.05-.752.077-.745.093-.745.119-.746.137-.73.153-.722.18-.713.198-.707.213-.698.241-.683.259-.665.275-.658.293-.641.31-.635.33-.608.345-.6.363-.576.373-.558.399-.543.41-.517.425-.502.444-.485.453-.459.461-.434.482-.408.489-.394.508-.366.508-.343.525-.316.536-.292.538-.267.553-.24.556-.216.565-.19.566-.156.574-.14.578-.106.585-.08.587-.045M475.95 576.636l-.472-.085-.472-.07-.47-.052-.471-.034-.47-.008-.469-.002-.46.024M181.979 691.877l51.892-15.11M278.687 663.723l52.805-15.37M373.648 636.073l30.868-8.988M403.74 627.313l52.052-15.15M93.932 424.896l-4.965-.799-.062-.022-.042-.016-.01-.026" style="fill:none;stroke:red;stroke-width:.999997;stroke-linecap:round;stroke-linejoin:round;stroke-miterlimit:4;stroke-dasharray:none;stroke-opacity:1;visibility:visible"/><path d="m103.089 423.563-.163-.02-.18-.02-.196-.019-.213-.009-.223-.001h-.238l-.231.008-.237.009-.222.016-.221.016-.204.024-.177.032-.17.032-.136.03-.109.038-.084.036-.05.045-.025.035.019.033.044.042.07.032.103.03.138.028M94.03 424.962l65 256.457M100.383 423.98h0" style="fill:none;stroke:red;stroke-width:.999997;stroke-linecap:round;stroke-linejoin:round;stroke-miterlimit:4;stroke-dasharray:none;stroke-opacity:1;visibility:visible"/><path d="m103.135 423.902-.023-.17-.024-.169M363.118 467.917l.187-.032.152-.04.134-.039.102-.046.074-.046.034-.044.006-.05-.026-.042-.062-.049-.096-.04-.12-.037-.146-.039-.182-.036M362.263 470.283l-.136.021-.17.023-.178.016-.187.007-.189-.003-.187-.01-.172-.011-.145-.02M359.087 780.62l3.176-310.335M360.899 470.305l-6.384-1.09M375.64 467.428l-13.376 2.856M375.89 467.3l-.016.035-.05.036-.075.028-.11.029M404.59 733.503l-.292-.05-.299-.04-.317-.031-.333-.015-.324-.015-.334.004-.332.011-.322.03-.323.027-.297.044-.298.054" style="fill:none;stroke:red;stroke-width:.999997;stroke-linecap:round;stroke-linejoin:round;stroke-miterlimit:4;stroke-dasharray:none;stroke-opacity:1;visibility:visible"/><path d="m405.215 733.336.219-.084.185-.084.15-.099.123-.098.083-.096.056-.104.021-.104-.02-.102-.046-.109-.088-.099-.115-.098-.148-.09-.183-.086-.216-.078-.233-.077-.257-.06-.275-.059-.3-.048-.317-.032-.316-.032-.334-.014-.333-.006-.332.012-.332.012-.324.028-.313.038-.298.052-.288.053-.253.068-.244.077-.212.075-.184.092-.15.09-.125.1-.089.105-.057.096-.022.11.02.103.047.1.09.1.113.097.149.098.181.088.208.077.242.07.258.067.275.058.3.049.308.032.325.032.334.013.332.006.341-.011.332-.012.323-.03.314-.035.298-.054.278-.052.263-.068.236-.077M638.635 652.893l-266.442 92.462M197.033 697.5l.019.041-.008.044M197.078 697.575l-.01-.016-.015.008-.008.019M197.08 698.599l.059-.001M197.08 698.599h0-.008M197.174 698.622l.036.059.019.033M203.27 691.235l.108.159.09.176.077.202.05.219.034.221.008.239-.018.239-.034.24-.06.241-.086.233-.094.226-.12.208-.139.201-.147.176-.157.15-.175.134-.174.1-.186.075M210.045 686.897l-.388-.115M211.386 702.833l-.405-15.03-.936-.906M209.657 686.782h-.008M207.842 687.314l1.807-.532M195 691.311l1.097-.32 1.08-.336 1.072-.328 1.072-.344 1.054-.336 1.062-.344 1.055-.335 1.064-.336 1.053-.334 1.072-.336 1.071-.328 1.09-.32M193.332 692.657l.023-.112.037-.112.048-.104.057-.096.088-.121.099-.115.108-.099.132-.106.133-.09.152-.082.151-.074.201-.084.211-.076.227-.076M698.307 399.229l.025-.025.05-.02.076-.02M704.22 398.05l-.028.197-.035.206" style="fill:none;stroke:red;stroke-width:.999997;stroke-linecap:round;stroke-linejoin:round;stroke-miterlimit:4;stroke-dasharray:none;stroke-opacity:1;visibility:visible"/><path d="m647.039 676.182 68.241-278.169" style="fill:none;stroke:red;stroke-width:1.99999;stroke-linecap:round;stroke-linejoin:round;stroke-miterlimit:4;stroke-dasharray:none;stroke-opacity:1;visibility:visible"/><path d="m635.775 679.706.628.15 10.636-3.674M709.233 397.295l6.047.719M702.364 398.414l.18.019.188.01.205.019.204.01h.215l.213.002.204-.007.196-.008.187-.005M708.099 397.3l.103-.012.126-.013.146-.014.153.003.153-.005.163.012.153.002.138.022M655.756 574.052l42.552-174.824" style="fill:none;stroke:red;stroke-width:.999997;stroke-linecap:round;stroke-linejoin:round;stroke-miterlimit:4;stroke-dasharray:none;stroke-opacity:1;visibility:visible"/><path d="m640.368 637.27 15.388-63.219" style="fill:none;stroke:red;stroke-width:1.99999;stroke-linecap:round;stroke-linejoin:round;stroke-miterlimit:4;stroke-dasharray:none;stroke-opacity:1;visibility:visible"/><path d="m636.674 652.45 3.695-15.179M691.609 398.414l.016-.017.05-.019.077-.02" style="fill:none;stroke:red;stroke-width:.999997;stroke-linecap:round;stroke-linejoin:round;stroke-miterlimit:4;stroke-dasharray:none;stroke-opacity:1;visibility:visible"/><path d="m708.556 397.208-6.012-.72M701.41 396.502l.101-.02.128-.013.144-.004.155-.007.153.004.162.003.154.01.138.014M691.752 398.358l9.659-1.856" style="fill:none;stroke:red;stroke-width:1.99999;stroke-linecap:round;stroke-linejoin:round;stroke-miterlimit:4;stroke-dasharray:none;stroke-opacity:1;visibility:visible"/><path d="m452.376 368.072-.013-.144-.015-.153M708.556 397.208l-.007.05" style="fill:none;stroke:red;stroke-width:.999997;stroke-linecap:round;stroke-linejoin:round;stroke-miterlimit:4;stroke-dasharray:none;stroke-opacity:1;visibility:visible"/><path d="m650.786 594.471-.759.47-.769.445-.779.412-.788.393-.798.361-.807.343-.808.31-.817.277-.827.258-.837.226-.828.2-.847.174-.84.14-.85.115-.849.09" style="fill:none;stroke:red;stroke-width:1.99999;stroke-linecap:round;stroke-linejoin:round;stroke-miterlimit:4;stroke-dasharray:none;stroke-opacity:1;visibility:visible"/><path d="m628.472 599.54-.816.055-.819.028-.818.002-.82-.021-.82-.05-.814-.073-.821-.098-.807-.126-.816-.15-146.586-29.783" style="fill:none;stroke:red;stroke-width:.999997;stroke-linecap:round;stroke-linejoin:round;stroke-miterlimit:4;stroke-dasharray:none;stroke-opacity:1;visibility:visible"/><path d="m474.535 569.325-.765-.17-.766-.194-.749-.221-.76-.255-.744-.281-.744-.299-.727-.332-.729-.359-.721-.376-.714-.409-.697-.437-.699-.452-.682-.48-.674-.506-.658-.532-.651-.548-.643-.574-.626-.602-.619-.617-.603-.636-.585-.661-.57-.68-.562-.706-.544-.714-.53-.74-.513-.759-.496-.776-.488-.784-.464-.812-.445-.82-.43-.837-.414-.856-.397-.864-.372-.883-.363-.892-.339-.9-.314-.919-.304-.92-.282-.936-.262-.946-.239-.955-.22-.957-.204-.964-.18-.975-.161-.976-.138-.984-.12-.993-.102-.987-.078-.995-.052-.996-.042-.996M461.573 367.648l-4.941-.587" style="fill:none;stroke:red;stroke-width:1.99999;stroke-linecap:round;stroke-linejoin:round;stroke-miterlimit:4;stroke-dasharray:none;stroke-opacity:1;visibility:visible"/><path d="m450.509 368.078.145.02.163.012.18.01.179.002.178.003.188.002.188-.006.179-.007.17-.005.153-.015.144-.021M461.573 367.648l.095.013.069.015.05.016.035.016.01.016" style="fill:none;stroke:red;stroke-width:.999997;stroke-linecap:round;stroke-linejoin:round;stroke-miterlimit:4;stroke-dasharray:none;stroke-opacity:1;visibility:visible"/><path d="m691.609 398.414-41.768 172.158M628.472 599.54l10.11-.856" style="fill:none;stroke:red;stroke-width:1.99999;stroke-linecap:round;stroke-linejoin:round;stroke-miterlimit:4;stroke-dasharray:none;stroke-opacity:1;visibility:visible"/><path d="m631.663 590.755.627.115.369.054" style="fill:none;stroke:red;stroke-width:.999997;stroke-linecap:round;stroke-linejoin:round;stroke-miterlimit:4;stroke-dasharray:none;stroke-opacity:1;visibility:visible"/><path d="m485.242 561.608 117.886 23.464M613.597 587.154l18.065 3.601M465.978 533.375l.025.699.032.706.059.706.059.697.076.705.092.696.101.696.119.696.126.695.144.685.151.678.17.676.183.668.187.658.2.65.22.649.219.641.244.631.252.63.26.623.269.604.284.604.295.596.301.587.319.568.326.57.336.55.342.543.36.533.36.525.376.507.384.499.401.489.4.48.41.455.423.454.426.438.432.42.441.41.448.394.45.377.465.368.472.35.472.34.481.326.488.307.496.289.496.281.504.256.503.247.512.23.51.211.518.195.528.187.525.16.525.153.534.127.533.118M461.832 367.724l4.147 165.65M632.658 590.925l.287-.096.589-.208.59-.224.589-.244.57-.257.57-.276.561-.292.552-.311.544-.335.541-.342.534-.359.533-.377.515-.394.514-.418.506-.419.488-.444.486-.46.471-.47.468-.485.452-.501.443-.51.425-.527.424-.544.416-.551.399-.568.389-.577.37-.592.373-.611.345-.61.344-.625.32-.642.319-.643.277-.607.268-.622.25-.623.251-.64.234-.64.216-.656.208-.655.198-.656.182-.67.172-.672M450.7 366.484l.101-.02.12-.005.127-.012.137-.006.146.004.136.003.128.013.11.006M441.177 368.062l9.523-1.577M451.706 366.466l4.925.596M461.52 562.043l.279 11.139" style="fill:none;stroke:red;stroke-width:1.99999;stroke-linecap:round;stroke-linejoin:round;stroke-miterlimit:4;stroke-dasharray:none;stroke-opacity:1;visibility:visible"/><path d="m441.009 368.127.008-.017.033-.018.051-.02.076-.01" style="fill:none;stroke:red;stroke-width:.999997;stroke-linecap:round;stroke-linejoin:round;stroke-miterlimit:4;stroke-dasharray:none;stroke-opacity:1;visibility:visible"/><path d="m441.009 368.127 6.167 243.749" style="fill:none;stroke:red;stroke-width:1.99999;stroke-linecap:round;stroke-linejoin:round;stroke-miterlimit:4;stroke-dasharray:none;stroke-opacity:1;visibility:visible"/><path d="m480.424 632.711-.115.15-.086.165-.072.181-.052.197-.036.207-.01.213.016.222.034.22.06.22.074.21.092.202.119.192.125.174.142.158.158.13.158.115.173.079.172.062M480.485 621.528l-.105.14-.09.156-.07.165-.062.19-.028.188-.017.205-.001.215.024.202.049.212.059.203.084.201.092.194.117.174.124.158.133.141.15.123.157.105.156.08.164.053M433.616 640.75l-.379-.09M433.616 640.75l1.444-.433M486.14 639.796l-.33.097-1.66-.386M433.186 640.63l-.695-.803M432.48 622.642l.699-1.228M432.48 622.642l.01 17.185M471.18 637.136l-.17-.028-.173-.019-.188-.01-.196-.011-.188-.001-22.75.376M471.18 637.136l12.97 2.37M447.514 637.443l-.188.007-.187.014-.178.015-.17.032-.152.03-11.58 2.777M486.295 620.566l.801 1.2-.1 17.164-.808.83M486.251 620.533h.017l.01.016.017.016M433.18 621.414l.008-.017.017-.008.008-.01M433.238 640.662l-.017-.008-.018-.008-.017-.016M486.189 639.76l-.017.01-.008.009-.016.008-.008.009M484.858 620.224l1.393.31M470.047 617.406l-22.521.36M470.047 617.406l.213.001.214.002.205.009.204.01.205.01.206.019.205.018.197.027.188.028.182.028.128.03.129.02M445.353 618.047l.195-.05.202-.05.22-.041.23-.034.237-.033.213-.025.212-.016.222-.016.221-.008.221-.008M434.657 620.962l-1.444.417M434.657 620.962l.81-.233.811-.232.828-.226.828-.225.836-.217.838-.216.836-.226.828-.217.837-.225.82-.216.819-.226.812-.224.793-.232M208.232 693.62l-.137-.047-.123-.072-.123-.081-.105-.107-.097-.108-.082-.133-.073-.143-.048-.142M208.137 690.383l.1-.072.108-.072.11-.055.107-.054.119-.039.11-.021.12-.012.118-.004.12.012.112.022M209.441 690.142l-.181-.053M209.441 690.142l.13.047.13.064.123.089.114.09.098.107.089.126.073.141.074.152.048.16.04.177.024.187.006.188-.012.145-.012.146-.029.154-.037.138-.038.146-.054.139-.064.139-.064.129-.082.123-.08.121-.09.105-.099.107-.107.097-.108.082-.108.08-.126.056-.118.054-.118.039-.127.03-.127.013-.128-.004-.129-.012-.128-.031-.173-.045M345.723 775.517l-168.205-51.399-3.873-28.623" style="fill:none;stroke:red;stroke-width:.999997;stroke-linecap:round;stroke-linejoin:round;stroke-miterlimit:4;stroke-dasharray:none;stroke-opacity:1;visibility:visible"/><path d="m345.958 741.956-165.953-48.244" style="fill:none;stroke:red;stroke-width:1.99999;stroke-linecap:round;stroke-linejoin:round;stroke-miterlimit:4;stroke-dasharray:none;stroke-opacity:1;visibility:visible"/><path d="m173.644 695.494 6.36-1.783M459.957 612.035l.645 5.521M464.532 610.647l-4.575 1.388M463.659 637.178l125.552 29.195" style="fill:none;stroke:red;stroke-width:.999997;stroke-linecap:round;stroke-linejoin:round;stroke-miterlimit:4;stroke-dasharray:none;stroke-opacity:1;visibility:visible"/><path d="m464.532 610.647 45.359 10.041M511.944 621.137l119.245 26.396" style="fill:none;stroke:red;stroke-width:1.99999;stroke-linecap:round;stroke-linejoin:round;stroke-miterlimit:4;stroke-dasharray:none;stroke-opacity:1;visibility:visible"/><path d="m177.498 724.017-1.723.504M159.308 682.561l10.248 40.445M351.903 778.833h0" style="fill:none;stroke:red;stroke-width:.999997;stroke-linecap:round;stroke-linejoin:round;stroke-miterlimit:4;stroke-dasharray:none;stroke-opacity:1;visibility:visible"/><path d="m352.578 697.058-.7-.75-.708-.735-.724-.708-.732-.692-.739-.656-.748-.648-.754-.614-.755-.586-.77-.571-.77-.536" style="fill:none;stroke:red;stroke-width:1.99999;stroke-linecap:round;stroke-linejoin:round;stroke-miterlimit:4;stroke-dasharray:none;stroke-opacity:1;visibility:visible"/><path d="m351.903 778.833-5.905-1.807M322.58 693.569l-146.858-39.983" style="fill:none;stroke:red;stroke-width:.999997;stroke-linecap:round;stroke-linejoin:round;stroke-miterlimit:4;stroke-dasharray:none;stroke-opacity:1;visibility:visible"/><path d="m166.517 654.061-.561.267-.536.3-.526.325-.508.36-.498.392-.472.41-.462.442-.444.476-.418.492-.408.525-.39.552-.364.575-.346.601-.328.616-.31.651-.284.667-.265.692-.248.716-.221.733-.206.75-.177.773-.16.79-.133.815-.116.823-.091.84-.072.854-.047.872-.029.879-.003.896.015.912.041.912.067.927.084.944.11.942.126.95.153.96.17.957.196.967.213.973.239.972" style="fill:none;stroke:red;stroke-width:1.99999;stroke-linecap:round;stroke-linejoin:round;stroke-miterlimit:4;stroke-dasharray:none;stroke-opacity:1;visibility:visible"/><path d="m174.573 724.537-5.017-1.53M175.775 724.52l-.135.03-.153.031-.161.015-.17.005-.162-.002-.155-.012-.145-.02-.12-.031M345.997 777.026l-.095-.03-.078-.04-.062-.05-.036-.05-.009-.05" style="fill:none;stroke:red;stroke-width:.999997;stroke-linecap:round;stroke-linejoin:round;stroke-miterlimit:4;stroke-dasharray:none;stroke-opacity:1;visibility:visible"/><path d="m182.624 694.472-4.508-17.95M170.74 652.15l-4.223 1.912M178.272 661.438l-.077.216-.155.457-.145.466-.138.482-.12.491-.11.499-.1.532-.092.549-.075.557-.065.566-.048.572-.031.589-.021.599-.006.597.004.613.023.614.03.621.046.596.055.587.072.602.081.603.09.61.097.611.116.611.132.61.132.618.149.616M323.865 701.575l-145.593-40.137M346.006 735.02l.003-.623-.022-.622-.03-.63-.039-.638-.056-.646-.075-.646-.082-.654-.1-.662-.116-.652-.126-.67-.142-.66-.152-.66-.178-.718-.196-.719-.204-.717-.23-.718-.238-.717-.256-.715-.262-.708-.282-.714-.298-.706-.306-.698-.322-.696-.331-.688-.348-.687-.365-.687-.374-.678-.381-.668-.399-.662-.406-.65-.423-.642-.432-.625-.43-.624-.449-.607-.454-.59-.474-.588-.472-.572-.48-.564-.496-.546-.496-.528-.505-.52-.512-.502-.52-.494-.52-.468-.528-.45-.527-.443-.526-.416-.543-.407-.535-.382-.549-.374-.541-.348-.55-.33-.548-.314-.538-.297-.547-.279-.547-.253-.545-.23-.536-.22-.536-.194-.535-.177-.534-.15M345.717 776.805l.29-41.785" style="fill:none;stroke:red;stroke-width:1.99999;stroke-linecap:round;stroke-linejoin:round;stroke-miterlimit:4;stroke-dasharray:none;stroke-opacity:1;visibility:visible"/><path d="m100.383 423.98.155.021.178.019.19.019.204.01h.444l.221.002.23-.008.222-.016.212-.016.204-.024.179-.032.169-.023.144-.04" style="fill:none;stroke:red;stroke-width:.999997;stroke-linecap:round;stroke-linejoin:round;stroke-miterlimit:4;stroke-dasharray:none;stroke-opacity:1;visibility:visible"/><path d="m103.135 423.893-.023-.161-.024-.17M114.411 423.431l.077.024.062.015.042.024.018.016" style="fill:none;stroke:red;stroke-width:.999997;stroke-linecap:round;stroke-linejoin:round;stroke-miterlimit:4;stroke-dasharray:none;stroke-opacity:1;visibility:visible"/><path d="m361.509 465.055.136-.021.161-.023.179-.007.188-.006.187.001.178.004.172.019.146.02M114.411 423.431l-5.01-.84M369.196 466.1l-6.34-1.057M361.509 465.055l-13.395 2.823" style="fill:none;stroke:red;stroke-width:1.99999;stroke-linecap:round;stroke-linejoin:round;stroke-miterlimit:4;stroke-dasharray:none;stroke-opacity:1;visibility:visible"/><path d="m348.114 467.878-.11.03-.085.027-.049.036-.016.035M369.196 466.1h0" style="fill:none;stroke:red;stroke-width:.999997;stroke-linecap:round;stroke-linejoin:round;stroke-miterlimit:4;stroke-dasharray:none;stroke-opacity:1;visibility:visible"/><path d="m174.021 653.288-.784-.228-.776-.255-.796-.288-.787-.313-.788-.348-.789-.373-.799-.399-.79-.424-.784-.459-.794-.484-.784-.51-.786-.544-.779-.56-.78-.588-.772-.614-.765-.645-.764-.657-.75-.69-.749-.708-.743-.733-.734-.759-.727-.776-.717-.794-.704-.819-.702-.837-.688-.855-.669-.881-.67-.888-.647-.907-.646-.924-.62-.943-.614-.96-.607-.968-.58-.985-.572-.996-.555-1.013-.548-1.022-.522-1.03-.506-1.04-.497-1.058-.472-1.057-.464-1.067-.437-1.068-.422-1.077-.405-1.085-.387-1.088-.362-1.096-.346-1.096-.329-1.098-.31-1.098-.286-1.099M160.737 607.243 114.609 423.51M337.31 679.203l-150.69-39.797M352.67 686.744l-12.52 6.382s-7.247 3.327-14.368 1.56M346.48 664.332l1.375-196.326M160.737 607.243l.207.777.214.778.223.777.241.776.248.776.266.775.274.776.292.765.299.765.31.767.323.756.326.756.341.739.35.738.366.73.367.72.382.72.392.712.4.702.408.694.418.693.424.676.441.667.44.658.45.65.458.64.465.624.474.614.473.607.49.596.489.59.497.57.505.553.515.546.512.536.523.52.52.5.529.486.528.476.536.459.536.443.535.424.544.416.55.398.543.383.55.364.549.348.557.33.55.322.547.296.547.28.555.261.485.223.493.204.494.188.484.179.482.162.492.154.474.128" style="fill:none;stroke:red;stroke-width:1.99999;stroke-linecap:round;stroke-linejoin:round;stroke-miterlimit:4;stroke-dasharray:none;stroke-opacity:1;visibility:visible"/><path d="m457.885 638.173.12.021.13.022.135.004.146.002.136-.004.128-.013.118-.021.102-.03 2.968-.948" style="fill:none;stroke:red;stroke-width:.999997;stroke-linecap:round;stroke-linejoin:round;stroke-miterlimit:4;stroke-dasharray:none;stroke-opacity:1;visibility:visible"/><path d="m471.852 569.197-.69.059-.686.082-.68.108-.676.144-.668.168-.667.195-.666.228-.656.253-.639.278-.645.305-.63.328-.618.355-.61.388-.6.404-.59.438-.572.456-.571.48-.547.506-.544.53-.517.547-.51.572-.5.597-.48.615-.465.63-.446.655-.428.672-.42.687-.392.715-.376.72-.367.738-.34.763-.324.77-.305.778-.279.803-.261.802-.246.819-.225.836-.201.843-.184.85-.167.859-.14.857-.115.875-.097.873-.08.882-.055.888-.037.889-.01.887" style="fill:none;stroke:red;stroke-width:1.99999;stroke-linecap:round;stroke-linejoin:round;stroke-miterlimit:4;stroke-dasharray:none;stroke-opacity:1;visibility:visible"/><path d="m457.885 638.173-3.604-.847" style="fill:none;stroke:red;stroke-width:.999997;stroke-linecap:round;stroke-linejoin:round;stroke-miterlimit:4;stroke-dasharray:none;stroke-opacity:1;visibility:visible"/><path d="m646.655 611.46-.455-.803-.47-.785-.496-.768-.504-.75-.528-.731-.546-.715-.57-.688-.578-.663-.594-.652-.61-.618-.626-.602-.643-.574-.659-.548-.666-.531-.675-.497-.69-.479-.707-.444-.714-.419-.721-.401-.73-.359-.737-.341M634.09 635.592l-4.056 16.697" style="fill:none;stroke:red;stroke-width:1.99999;stroke-linecap:round;stroke-linejoin:round;stroke-miterlimit:4;stroke-dasharray:none;stroke-opacity:1;visibility:visible"/><path d="m471.852 569.197 1.677-.101" style="fill:none;stroke:red;stroke-width:.999997;stroke-linecap:round;stroke-linejoin:round;stroke-miterlimit:4;stroke-dasharray:none;stroke-opacity:1;visibility:visible"/><path d="m477.608 576.979 141.208 29.1M634.09 635.592l.125-.576.124-.584.108-.592.099-.592.072-.6.073-.599.056-.608.038-.606.03-.607.014-.607-.004-.613-.014-.605-.022-.656-.048-.655-.058-.655-.074-.654-.091-.644-.108-.654-.125-.644-.134-.644-.149-.634-.167-.626-.176-.624-.192-.625-.209-.607-.225-.606-.235-.606-.25-.588-.269-.588-.274-.569-.294-.57-.301-.553-.317-.544-.326-.525-.333-.525-.35-.51-.367-.489-.376-.49-.384-.473-.391-.456-.408-.446-.407-.43-.424-.41-.432-.403-.44-.387-.448-.368-.454-.35-.464-.342-.472-.317-.472-.307-.487-.29-.488-.272-.495-.248-.494-.239-.503-.213-.51-.203-.466-.164-.467-.153-.473-.138-.473-.12-.474-.11M467.539 596.631l.37 14.76M477.608 576.979l-.15.081-.411.203-.384.217-.394.228-.376.243-.382.261-.367.268-.365.287-.364.303-.347.31-.348.327-.337.336-.33.344-.329.361-.335.404-.326.412-.318.43-.317.437-.3.455-.29.47-.274.479-.273.487-.256.496-.246.51-.23.512-.22.519-.203.536-.195.536-.185.552-.177.552-.16.57-.142.567-.133.576-.117.575-.107.584-.099.592-.074.565-.064.575-.058.581-.04.582-.03.581-.014.58-.005.58.003.59" style="fill:none;stroke:red;stroke-width:1.99999;stroke-linecap:round;stroke-linejoin:round;stroke-miterlimit:4;stroke-dasharray:none;stroke-opacity:1;visibility:visible"/><path d="m224.698 706.7 55.996-17.027M373.307 661.502l28.12-8.556M403.866 652.213l48.83-14.857" style="fill:none;stroke:red;stroke-width:.999997;stroke-linecap:round;stroke-linejoin:round;stroke-miterlimit:4;stroke-dasharray:none;stroke-opacity:1;visibility:visible"/><path d="m181.227 688.91 47.15-13.655M273.195 662.269l57.101-16.533M373.682 633.164l31.323-9.067M403.725 624.464l46.641-13.51" style="fill:none;stroke:red;stroke-width:1.99999;stroke-linecap:round;stroke-linejoin:round;stroke-miterlimit:4;stroke-dasharray:none;stroke-opacity:1;visibility:visible"/><path d="m452.31 611.381 3.481.783M455.275 617.65l.516-5.485M88.854 424.034l.008-.025.032-.028.076-.019.093-.03.119-.02M164.372 721.337l.027.041.036.042.069.032.077.022" style="fill:none;stroke:red;stroke-width:.999997;stroke-linecap:round;stroke-linejoin:round;stroke-miterlimit:4;stroke-dasharray:none;stroke-opacity:1;visibility:visible"/><path d="m109.392 422.592-4.984-.832M104.408 421.76l-.12-.013-.145-.012-.154-.012-.17-.002-.171.006-.17.014-.153.014-.145.014-13.997 2.143" style="fill:none;stroke:red;stroke-width:1.99999;stroke-linecap:round;stroke-linejoin:round;stroke-miterlimit:4;stroke-dasharray:none;stroke-opacity:1;visibility:visible"/><path d="m169.556 723.007-4.975-1.532M109.392 422.592h0M166.632 650.023l.892 3.577" style="fill:none;stroke:red;stroke-width:.999997;stroke-linecap:round;stroke-linejoin:round;stroke-miterlimit:4;stroke-dasharray:none;stroke-opacity:1;visibility:visible"/><path d="m88.854 424.034 75.518 297.302" style="fill:none;stroke:red;stroke-width:1.99999;stroke-linecap:round;stroke-linejoin:round;stroke-miterlimit:4;stroke-dasharray:none;stroke-opacity:1;visibility:visible"/><path d="m360.594 467.928.197.028.215.025.23.01.24.017h.494l.247-.01.248-.007.229-.018.221-.024.203-.032M363.176 467.376l-.024.275-.033.265M357.817 780.647l.137.03.163.027.172.012.17.002.178-.006.17-.024.153-.03.126-.039M375.579 467.165l.112.021.085.032.062.023.044.033.009.026" style="fill:none;stroke:red;stroke-width:.999997;stroke-linecap:round;stroke-linejoin:round;stroke-miterlimit:4;stroke-dasharray:none;stroke-opacity:1;visibility:visible"/><path d="m369.204 466.1 6.375 1.065" style="fill:none;stroke:red;stroke-width:1.99999;stroke-linecap:round;stroke-linejoin:round;stroke-miterlimit:4;stroke-dasharray:none;stroke-opacity:1;visibility:visible"/><path d="m359.087 780.62 12.467-4.725" style="fill:none;stroke:red;stroke-width:.999997;stroke-linecap:round;stroke-linejoin:round;stroke-miterlimit:4;stroke-dasharray:none;stroke-opacity:1;visibility:visible"/><path d="m352.79 671.795-.556 65.259" style="fill:none;stroke:red;stroke-width:1.99999;stroke-linecap:round;stroke-linejoin:round;stroke-miterlimit:4;stroke-dasharray:none;stroke-opacity:1;visibility:visible"/><path d="m354.515 469.215-1.725 202.58M351.903 778.833l5.915 1.815M371.553 775.895l.101-.039.075-.053.05-.052.014-.061" style="fill:none;stroke:red;stroke-width:.999997;stroke-linecap:round;stroke-linejoin:round;stroke-miterlimit:4;stroke-dasharray:none;stroke-opacity:1;visibility:visible"/><path d="m375.89 467.3-4.097 308.39" style="fill:none;stroke:red;stroke-width:1.99999;stroke-linecap:round;stroke-linejoin:round;stroke-miterlimit:4;stroke-dasharray:none;stroke-opacity:1;visibility:visible"/><path d="m635.775 679.706-263.983 95.66" style="fill:none;stroke:red;stroke-width:.999997;stroke-linecap:round;stroke-linejoin:round;stroke-miterlimit:4;stroke-dasharray:none;stroke-opacity:1;visibility:visible"/><path d="M632.35 651.492 372.252 741.2" style="fill:none;stroke:red;stroke-width:1.99999;stroke-linecap:round;stroke-linejoin:round;stroke-miterlimit:4;stroke-dasharray:none;stroke-opacity:1;visibility:visible"/><path d="m636.984 652.524-4.633-1.032M196.884 697.386l-1.543.028M196.884 697.386l.061.03.035.026.035.032.018.025M197.191 698.612l-.008-.213-.015-.187-.014-.17-.014-.145-.012-.118-.02-.094-.012-.068-.018-.041M197.2 698.655v-.027l-.01-.016M197.078 697.575l-.045-.075M352.248 738.18l-.003-.563-.01-.562M452.31 611.381h0M452.31 611.381l-1.943-.427M635.775 679.706l2.86-26.813-1.617-.362" style="fill:none;stroke:red;stroke-width:.999997;stroke-linecap:round;stroke-linejoin:round;stroke-miterlimit:4;stroke-dasharray:none;stroke-opacity:1;visibility:visible"/><path d="m637.018 652.532-.017-.008-.016.001M197.071 698.599l-.017.017-.007.044M458.42 622.247l-.123.124-.106.13-.08.149-.063.165-.037.163-.011.162.013.171.032.16.066.15.081.153.107.132" style="fill:none;stroke:red;stroke-width:.999997;stroke-linecap:round;stroke-linejoin:round;stroke-miterlimit:4;stroke-dasharray:none;stroke-opacity:1;visibility:visible"/><path d="m458.42 622.247-.09.08-.082.097-.065.087-.058.096-.038.087-.04.094-.022.095-.022.095-.006.112-.004.101.012.12.03.11M460.411 622.331l.072.125.065.135.047.135M460.411 622.331l-.01-.008M458.3 623.906l.097.108.107.099.113.081.123.072.112.048.13.037.111.022.12.013.111.004.11-.012.12-.013.109-.028M460.411 622.331l-.033.019M460.377 622.35l-.115-.124-.124-.107-.138-.089-.14-.063-.138-.046-.137-.039-.145-.012-.078-.005-.085.002-.095.004-.101.02-.11.03-.118.038-.116.056-.117.063-.1.081-.1.088M460.402 622.323l-.025.027M458.036 623.446l-.001-.025M457.19 623.894l.168.173.184.155.193.13.218.12.224.086.233.07.24.042.248.017h.239l.246-.034M461.658 621.895l-.115-.132-.116-.124-.106-.116-.107-.116-.097-.116-.098-.116-.205-.23" style="fill:none;stroke:red;stroke-width:.999997;stroke-linecap:round;stroke-linejoin:round;stroke-miterlimit:4;stroke-dasharray:none;stroke-opacity:1;visibility:visible"/><path d="m456.806 621.664-.07.224-.051.232-.026.24v.239l.034.237.05.23.076.218.102.217.126.202.144.192M458.621 620.185l-.236.06-.236.076-.228.101-.208.127-.2.144-.181.16-.166.184-.137.193-.121.21-.103.224M460.814 620.944l-.167-.165-.177-.156-.201-.138-.216-.112-.226-.094-.233-.068-.24-.044-.239-.016-.246.008-.248.025M461.2 623.182l.07-.232.05-.232.027-.232v-.239l-.035-.237-.05-.23-.077-.226-.1-.219-.128-.2-.142-.19M460.586 622.708v-.016l-.001-.01-.008-.007-.002-.008v-.01M460.556 622.59v-.01l-.01-.007v-.026l-.009-.008M460.519 622.48v-.017l-.001-.008-.008-.008v-.008l-.002-.01M460.49 622.37l.01.017v.016l.009.01v.016M460.527 622.489v.017l.01.008V622.54" style="fill:none;stroke:red;stroke-width:.999997;stroke-linecap:round;stroke-linejoin:round;stroke-miterlimit:4;stroke-dasharray:none;stroke-opacity:1;visibility:visible"/><path d="m460.557 622.607.01.01v.033l.009.008M460.595 622.726l.032.17.015.17-.003.17-.028.163-.055.172-.062.156M460.489 622.363v.008M460.519 622.48l.008.008M460.556 622.59v.016M460.586 622.708l.008.017M456.203 622.264l-.043-.253-.009-.264M456.657 620.091l.172-.203.099-.097.1-.09.106-.087.108-.082.118-.072.117-.072.125-.056.127-.064.252-.085.263-.07.262-.042.171-.005.17-.007.171.01.171.02.172.029.172.045.164.053.164.064.164.071.157.079.148.097.14.097.132.116.123.115.116.115.107.124.098.142.09.134.082.15.074.159.065.16.05.17.038.169.032.169M456.151 621.746l-.001-.043.006-.034-.001-.043-.001-.043M457.19 623.894l.195.232.108.115.097.108.105.124.107.116.116.124.115.124M458.034 624.836l.187-.024.186-.015.171-.022.17-.023.16-.023.162-.022.313-.055M456.317 622.84l-.137-.499M456.317 622.84l.125.157.116.142.116.141.107.132.107.124.097.125.205.232M461.658 621.895l-.145-.497M461.2 623.182l.11-.293.054-.147.055-.156.053-.164.063-.164.061-.181.063-.182M460.703 624.36l.07-.156.065-.156.07-.147.055-.146.064-.148.055-.139.117-.285" style="fill:none;stroke:red;stroke-width:.999997;stroke-linecap:round;stroke-linejoin:round;stroke-miterlimit:4;stroke-dasharray:none;stroke-opacity:1;visibility:visible"/><path d="M461.45 621.305v.01l-.008.007v.008l.001.01M461.45 621.305l.063.092M459.703 619.404v.017M456.657 620.091l-.081.121-.082.123-.118.243-.086.233-.069.233-.043.25-.02.145-.002.144M458.402 633.455l-.123.124-.106.13-.08.149-.063.165-.037.163-.011.162.013.171.032.16.066.15.081.153.107.132" style="fill:none;stroke:red;stroke-width:.999997;stroke-linecap:round;stroke-linejoin:round;stroke-miterlimit:4;stroke-dasharray:none;stroke-opacity:1;visibility:visible"/><path d="m458.402 633.455-.09.08-.082.097-.065.087-.058.096-.038.087-.04.094-.022.095-.022.095-.006.112-.004.101.012.12.03.11M460.393 633.54l.072.125.065.135.047.135M460.393 633.54l-.01-.008M458.28 635.114l.097.108.107.099.113.081.123.072.112.048.13.037.111.022.12.013.111.004.11-.012.12-.013.109-.028M460.393 633.54l-.033.019M460.36 633.558l-.115-.124-.124-.107-.138-.089-.14-.063-.138-.046-.137-.039-.145-.012-.078-.005-.085.002-.095.004-.101.02-.11.03-.118.038-.116.056-.117.063-.1.081-.1.088M460.384 633.53l-.025.027M458.018 634.654l-.001-.025M457.172 635.102l.168.173.184.156.193.13.218.12.224.085.233.07.24.042.248.017h.239l.246-.034M461.64 633.103l-.115-.132-.116-.124-.106-.116-.107-.116-.097-.116-.098-.116-.205-.23M456.787 632.872l-.07.224-.051.232-.026.24v.239l.034.237.05.23.076.218.102.217.126.202.144.192M458.603 631.393l-.236.06-.236.076-.228.101-.208.127-.2.144-.181.16-.166.184-.137.193-.121.21-.103.224M460.796 632.152l-.167-.165-.177-.156-.201-.138-.216-.112-.226-.094-.233-.068-.24-.044-.239-.016-.246.008-.248.025" style="fill:none;stroke:red;stroke-width:.999997;stroke-linecap:round;stroke-linejoin:round;stroke-miterlimit:4;stroke-dasharray:none;stroke-opacity:1;visibility:visible"/><path d="m461.181 634.39.07-.232.05-.232.027-.232v-.239l-.035-.237-.05-.23-.077-.226-.1-.219-.128-.2-.142-.19" style="fill:none;stroke:red;stroke-width:.999997;stroke-linecap:round;stroke-linejoin:round;stroke-miterlimit:4;stroke-dasharray:none;stroke-opacity:1;visibility:visible"/><path d="m459.365 635.86.237-.05.235-.086.228-.101.208-.119.2-.152.183-.16.164-.176.137-.201.121-.208.103-.218M460.568 633.917v-.017l-.001-.008-.008-.008-.002-.008v-.01M460.538 633.799v-.01l-.01-.007v-.026l-.009-.008M460.5 633.689v-.017l-.001-.008-.008-.008v-.008l-.002-.01M460.471 633.579l.01.017v.016l.009.01v.016M460.509 633.697v.017l.01.008V633.748M460.539 633.815l.01.008v.035l.009.008M460.577 633.934l.032.17.015.17-.003.17-.028.163-.055.172-.062.156" style="fill:none;stroke:red;stroke-width:.999997;stroke-linecap:round;stroke-linejoin:round;stroke-miterlimit:4;stroke-dasharray:none;stroke-opacity:1;visibility:visible"/><path d="m459.644 635.544.101-.03.1-.037.094-.046.092-.054.149-.108.065-.062.059-.054.057-.061.04-.061.042-.052.033-.044M460.47 633.57v.008M460.5 633.689l.008.008M460.538 633.799v.016M460.568 633.917l.008.017M456.185 633.472l-.043-.253-.009-.264M456.638 631.3l.172-.203.099-.097.1-.09.106-.087.108-.082.118-.072.117-.072.125-.056.127-.064.252-.085.263-.07.262-.042.171-.007.17-.005.171.01.171.02.172.029.172.045.164.053.164.064.164.071.157.079.148.097.14.097.132.116.123.115.116.115.107.125.098.141.09.134.082.15.074.159.065.16.05.17.038.169.032.169M456.133 632.954l-.001-.043.006-.034-.001-.043-.001-.043M457.172 635.102l.195.232.108.115.097.108.105.124.107.116.116.124.115.124M458.015 636.044l.187-.024.186-.015.171-.022.17-.023.16-.023.162-.022.313-.055M456.3 634.049l-.137-.499M456.3 634.049l.125.157.116.142.116.141.107.132.107.125.097.124.205.232M459.365 635.86l.313-.053.152-.04.162-.031.16-.04.169-.04.179-.04.185-.05M461.64 633.103l-.145-.497M461.181 634.39l.11-.293.054-.147.055-.156.053-.164.063-.164.061-.181.063-.182M460.685 635.567l.07-.156.065-.155.07-.148.055-.146.064-.148.055-.139.117-.285" style="fill:none;stroke:red;stroke-width:.999997;stroke-linecap:round;stroke-linejoin:round;stroke-miterlimit:4;stroke-dasharray:none;stroke-opacity:1;visibility:visible"/><path d="M461.431 632.513v.01l-.008.007v.008l.001.01M461.431 632.513l.063.092M459.685 630.612v.017M456.638 631.3l-.081.121-.082.123-.118.243-.086.233-.069.233-.043.248-.02.147-.002.144M209.703 691.708l-.479.292.146.52M435.1 623.633l.127-.021.12-.004.118.012M433.879 626.047l-.03-.11-.02-.12-.022-.117-.004-.128-.005-.128.005-.128.012-.129.021-.128.022-.128.037-.13.039-.12.046-.13.047-.112.056-.113.065-.106.074-.104.064-.097.082-.088.034-.027M434.56 626.764l-.112-.03-.104-.047-.096-.064-.088-.083-.08-.09-.072-.11-.064-.125-.048-.135-.019-.033" style="fill:none;stroke:red;stroke-width:.999997;stroke-linecap:round;stroke-linejoin:round;stroke-miterlimit:4;stroke-dasharray:none;stroke-opacity:1;visibility:visible"/><path d="m434.4 623.904.05-.052.083-.072.083-.061.09-.055.094-.037.101-.039.092-.02.103-.004.095-.003.102.022M435.466 623.62l-.172-.037M435.466 623.62l.112.03.104.047.104.066.088.073.09.09.07.091.072.118.064.125.048.136.04.152.03.16.015.17.004.129-.012.137-.013.128-.02.137-.03.13-.038.128-.037.121-.056.121-.056.114-.064.113-.066.104-.073.096-.081.097-.083.079-.09.08-.1.064-.093.063-.109.046-.101.03-.11.029-.11.004-.12-.005-.112-.014-.172-.045" style="fill:none;stroke:red;stroke-width:.999997;stroke-linecap:round;stroke-linejoin:round;stroke-miterlimit:4;stroke-dasharray:none;stroke-opacity:1;visibility:visible"/><path d="m435.745 624.937-.312.25.167.52M435.107 634.946l.127-.021.12-.004.118.012M433.886 637.36l-.03-.11-.02-.118-.022-.119-.004-.128-.005-.128.005-.128.012-.128.021-.128.022-.129.037-.13.039-.12.046-.13.047-.112.056-.113.065-.104.074-.106.064-.096.082-.088.034-.026" style="fill:none;stroke:red;stroke-width:.999997;stroke-linecap:round;stroke-linejoin:round;stroke-miterlimit:4;stroke-dasharray:none;stroke-opacity:1;visibility:visible"/><path d="m434.568 638.077-.112-.03-.104-.047-.096-.066-.088-.081-.08-.092-.072-.108-.064-.125-.048-.135-.019-.035M434.408 635.217l.05-.053.083-.071.083-.063.09-.054.094-.038.101-.037.092-.02.103-.004.095-.003.102.022M435.473 634.933l-.172-.037M435.473 634.933l.112.03.104.049.104.064.088.073.09.09.07.091.072.118.064.125.048.136.04.152.03.16.015.17.004.129-.012.137-.013.128-.02.137-.03.128-.038.13-.037.121-.056.121-.056.112-.064.114-.066.105-.073.096-.081.097-.083.079-.09.08-.1.064-.093.063-.109.046-.101.03-.11.029-.11.003-.12-.004-.112-.014-.172-.045" style="fill:none;stroke:red;stroke-width:.999997;stroke-linecap:round;stroke-linejoin:round;stroke-miterlimit:4;stroke-dasharray:none;stroke-opacity:1;visibility:visible"/><path d="m435.752 636.25-.312.25.167.52M484.887 634.244l.017.017.115.098.09.09.08.1.07.1.072.108.056.11.063.117.048.125.038.127.039.127.021.128.022.126.004.128.004.128-.004.128-.02.12-.022.12-.03.12-.008.01M483.864 634.016l.127-.03.128-.005.136.004.129.022.137.037.131.055.121.073.114.072M485.541 636.37l-.03.103-.049.104-.056.097-.064.095-.065.08-.075.078-.082.063-.092.063-.102.046-.1.038M484.683 637.185l.143-.047" style="fill:none;stroke:red;stroke-width:.999997;stroke-linecap:round;stroke-linejoin:round;stroke-miterlimit:4;stroke-dasharray:none;stroke-opacity:1;visibility:visible"/><path d="m484.683 637.185-.136.03-.127.013-.137-.003-.128-.013-.139-.038-.129-.046-.13-.064-.122-.082-.123-.097-.114-.107-.107-.133-.099-.133-.072-.116-.056-.118-.054-.117-.048-.127-.038-.126-.022-.136-.022-.128-.013-.127-.004-.136.004-.128.02-.128.021-.12.031-.121.048-.112.047-.114.056-.104.073-.097.073-.087.075-.08.09-.07.1-.064.1-.055.111-.037.152-.048" style="fill:none;stroke:red;stroke-width:.999997;stroke-linecap:round;stroke-linejoin:round;stroke-miterlimit:4;stroke-dasharray:none;stroke-opacity:1;visibility:visible"/><path d="m483.578 635.375.416.333-.145.438M484.91 623.18l.017.016.115.099.09.09.08.1.07.099.072.11.056.109.063.117.048.127.038.125.039.127.021.128.022.126.004.128.004.128-.004.128-.02.12-.022.12-.03.12-.008.01M483.887 622.953l.127-.03.128-.005.136.004.129.02.137.039.131.055.121.073.114.072M485.564 625.308l-.03.103-.049.104-.056.097-.064.095-.065.08-.075.078-.082.063-.092.064-.102.045-.1.038M484.706 626.122l.143-.048M484.706 626.122l-.136.03-.127.013-.137-.003-.128-.013-.139-.039-.129-.045-.13-.064-.122-.082-.123-.098-.114-.106-.107-.133-.099-.133-.072-.116-.056-.119-.054-.117-.048-.127-.038-.125-.022-.136-.022-.128-.013-.127-.004-.137.004-.127.02-.13.021-.12.031-.12.048-.113.047-.113.056-.103.073-.097.073-.088.075-.079.09-.072.1-.062.1-.055.111-.039.152-.046" style="fill:none;stroke:red;stroke-width:.999997;stroke-linecap:round;stroke-linejoin:round;stroke-miterlimit:4;stroke-dasharray:none;stroke-opacity:1;visibility:visible"/><path d="m483.6 624.312.416.333-.145.438M173.644 695.494l-13.298 9.974M208.263 688.4l-2.367 4.236M208.238 687.42l-2.342 5.216M200.456 697.321l-1.586 1.762M701.41 396.502l3.306 3.568M612.817 590.468l-9.887-2.878M602.93 587.59l9.887 2.878M632.658 590.925l-.575.89M435.052 621.05l1.963 3.455M437.014 635.711l.001-11.206M435.054 639.447l1.96-3.736M435.06 640.316l1.954-4.605M484.253 620.261l-6.098 2.662M484.25 621.132l-6.095 1.791M484.153 638.637l-6.052-4.54M470.948 635.661l7.153-1.564M437.388 621.03l3.427-.795M436.132 628.791l.832 1.6M483.887 622.953l-8.611-8.723M464.532 610.647l10.744 3.583M461.458 632.556l18.622 1.549M460.568 633.917l19.743.93M461.658 621.895l18.477 1.061M461.513 621.398l18.825 2.24M511.807 623.564l-1.934-.428M509.873 623.136l1.934.428M632.35 651.492l-1.75-1.517M322.579 693.57l1.634-7.906M352.67 686.744l-12.52 6.381M457.862 637.27l1.038.884M457.886 638.173l.99-.922M459.703 619.404l-1.317-1.813M621.84 592.275l-2.604 6.275M477.608 576.979l-1.658-.343M180.004 693.711l1.975-1.834M159.308 682.561l-.278-1.142M208.355 697.847l-5.085-6.612M201.549 698.35l.698-3.676M205.896 692.636l5.49 10.197M196.202 692.523l-2.87.134" style="fill:none;stroke:red;stroke-width:.999997;stroke-linecap:round;stroke-linejoin:round;stroke-miterlimit:4;stroke-dasharray:none;stroke-opacity:1;visibility:visible"/><path d="m456.294 533.756-5.94.106M613.597 587.154l-10.469-2.082M621.84 592.275l-8.243-5.121M446.55 618.9l.626-7.024" style="fill:none;stroke:red;stroke-width:1.99999;stroke-linecap:round;stroke-linejoin:round;stroke-miterlimit:4;stroke-dasharray:none;stroke-opacity:1;visibility:visible"/><path d="m485.542 636.37-5.118-3.659M482.973 628.034l-1.597 7.774M484.85 620.224l-4.365 1.304M482.973 628.034l-1.552-3.4M345.998 777.026l-.275-1.509M460.508 622.43l.094-4.874M457.885 638.173l5.774-.995" style="fill:none;stroke:red;stroke-width:.999997;stroke-linecap:round;stroke-linejoin:round;stroke-miterlimit:4;stroke-dasharray:none;stroke-opacity:1;visibility:visible"/><path d="m511.944 621.137-2.053-.449M509.89 620.688l2.054.449M632.35 651.492l-1.161-3.96M166.517 654.062l4.223-1.912M175.722 653.586l-1.701-.298M147.598 612.998l-5.88.086M325.782 694.686l11.528-15.483M340.15 693.125l12.52-6.381M322.58 693.569l3.202 1.117" style="fill:none;stroke:red;stroke-width:1.99999;stroke-linecap:round;stroke-linejoin:round;stroke-miterlimit:4;stroke-dasharray:none;stroke-opacity:1;visibility:visible"/><path d="m459.644 635.544 2.224 1.662" style="fill:none;stroke:red;stroke-width:.999997;stroke-linecap:round;stroke-linejoin:round;stroke-miterlimit:4;stroke-dasharray:none;stroke-opacity:1;visibility:visible"/><path d="m457.877 597.37-5.948-1.046" style="fill:none;stroke:red;stroke-width:1.99999;stroke-linecap:round;stroke-linejoin:round;stroke-miterlimit:4;stroke-dasharray:none;stroke-opacity:1;visibility:visible"/><path d="m471.18 637.136-16.899.19" style="fill:none;stroke:red;stroke-width:.999997;stroke-linecap:round;stroke-linejoin:round;stroke-miterlimit:4;stroke-dasharray:none;stroke-opacity:1;visibility:visible"/><path d="m640.369 637.271-10.335 15.018" style="fill:none;stroke:red;stroke-width:1.99999;stroke-linecap:round;stroke-linejoin:round;stroke-miterlimit:4;stroke-dasharray:none;stroke-opacity:1;visibility:visible"/><path d="m472.666 576.41.863-7.314" style="fill:none;stroke:red;stroke-width:.999997;stroke-linecap:round;stroke-linejoin:round;stroke-miterlimit:4;stroke-dasharray:none;stroke-opacity:1;visibility:visible"/><path d="m471.013 618.447-3.103-7.056" style="fill:none;stroke:red;stroke-width:1.99999;stroke-linecap:round;stroke-linejoin:round;stroke-miterlimit:4;stroke-dasharray:none;stroke-opacity:1;visibility:visible"/><path d="m403.866 652.213-2.44.733M401.427 652.946l2.439-.733M459.365 635.86l-6.668 1.496" style="fill:none;stroke:red;stroke-width:.999997;stroke-linecap:round;stroke-linejoin:round;stroke-miterlimit:4;stroke-dasharray:none;stroke-opacity:1;visibility:visible"/><path d="m180.004 693.711 1.223-4.801M403.725 624.464l1.28-.367M405.005 624.097l-1.28.367" style="fill:none;stroke:red;stroke-width:1.99999;stroke-linecap:round;stroke-linejoin:round;stroke-miterlimit:4;stroke-dasharray:none;stroke-opacity:1;visibility:visible"/><path d="m176.742 660.605-9.218-7.005M458.386 617.591l1.317 1.813M461.45 621.305l-1.747-1.884M460.47 633.578l-.785-2.966M461.431 632.513l-1.746-1.884M208.137 690.383l1.566 1.325M207.444 692.787l1.926-.267M486.295 620.565l-2.717 14.81M485.541 636.37l-1.692-.224M486.295 620.565l-2.695 3.747M485.564 625.308l-1.693-.225" style="fill:none;stroke:red;stroke-width:.999997;stroke-linecap:round;stroke-linejoin:round;stroke-miterlimit:4;stroke-dasharray:none;stroke-opacity:1;visibility:visible"/><path d="m705.797 674.284.859-.33.824-.334.806-.336.774-.343.754-.349.722-.35.696-.357.661-.365.644-.363.61-.37.575-.371.558-.377.524-.386.498-.374.466-.392.437-.391.404-.39.379-.397.353-.396.319-.394.293-.403.259-.41.233-.4.199-.409.173-.406.139-.414.114-.413.079-.413.053-.411.02-.41-.005-.418-.04-.417-.067-.415-.09-.415-.126-.413-.16-.412-.176-.421-.218-.41-.238-.418-.269-.41-.296-.406-.33-.416-.355-.404-.382-.414-.406-.404-.44-.402-.466-.402-.493-.4-.516-.4-.55-.392-.57-.397-.601-.388-.62-.388-.652-.387-.671-.377-.704-.376-.721-.376-.747-.375-.77-.365-.8-.365-.822-.355-.84-.363-.865-.353-.891-.345-.907-.343-.933-.343-.95-.334-.975-.323-.992-.332-1.01-.316-1.033-.313-1.052-.312-1.068-.304-1.093-.303" style="fill:none;stroke:#00ff4a;stroke-width:.999997;stroke-linecap:round;stroke-linejoin:round;stroke-miterlimit:4;stroke-dasharray:none;stroke-opacity:1;visibility:visible" visibility="hidden"/><path d="m693.31 646.207-2.928-.785-2.935-.784-2.944-.776-2.944-.775" style="fill:none;stroke:#00ff4a;stroke-width:1.99999;stroke-linecap:round;stroke-linejoin:round;stroke-miterlimit:4;stroke-dasharray:none;stroke-opacity:1;visibility:visible" visibility="hidden"/><path d="m99.132 723.495-1.283.387-1.257.393-1.24.393-1.223.402-1.196.416-1.18.417-1.153.424-1.137.423-1.11.44-1.085.438-1.06.447-1.041.455-1.008.452-.99.461-.965.47-.939.475-.904.475-.888.484-.86.481-.828.49-.8.497-.777.496-.743.504-.714.51-.69.502-.656.517-.63.518-.596.516-.57.522-.537.523-.501.528-.478.52-.44.536-.41.527-.382.533-.348.532-.314.54-.279.539-.255.537-.21.536-.187.536-.152.533-.117.542-.084.541-.05.53-.014.538.017.536.053.536.087.525.121.534.147.532.19.522.222.53.256.52.292.518.325.518.35.517.393.505.428.506.46.504.496.504.52.493.563.492.588.483.632.48.656.48.69.472.724.469.76.46.782.45.817.449.852.448.885.438.911.428M80.067 759.82l2.939 1.339 2.98 1.337 3.032 1.336 3.057 1.335 3.108 1.333 3.15 1.321 3.195 1.331 3.227 1.32 3.279 1.319 3.312 1.317 3.356 1.316 3.397 1.305 3.44 1.312 3.483 1.295 3.525 1.301 3.568 1.3 3.61 1.29 3.645 1.28 3.686 1.286 3.737 1.278 3.772 1.276 3.814 1.265 3.856 1.264 3.89 1.263 3.943 1.252 3.975 1.252 4.018 1.24 4.06 1.24 4.095 1.232 4.145 1.228 4.18 1.218 4.22 1.218 4.256 1.208 4.307 1.204 4.34 1.197 4.375 1.195 4.417 1.185 4.459 1.175 4.501 1.164 4.536 1.164M229.952 810.512l1.463.367 1.48.357 1.512.34 1.53.33 1.555.322 1.572.312 1.597.301 1.622.286 1.638.274 1.655.267 1.673.257 1.698.239 1.713.23 1.721.222 1.748.203 1.755.194 1.772.178 1.788.168 1.797.158 1.814.142 1.82.133 1.829.124 1.847.105 1.845.09 1.861.08 1.863.07 1.879.055 1.877.037 1.877.027 1.894.02 1.885.003 1.893-.007 1.894-.023 1.9-.042 1.892-.048 1.892-.058 1.89-.074 1.89-.092 1.89-.1 1.881-.108 1.871-.126 1.872-.141 1.863-.152 1.862-.167 1.844-.174 1.844-.184 1.827-.2 1.819-.218 1.808-.225 1.8-.233 1.782-.25 1.766-.258 1.756-.275 1.746-.283 1.722-.29 1.704-.306 1.694-.316 1.668-.332 1.66-.338 1.635-.347 1.608-.355 1.599-.372 1.573-.378 1.547-.395 1.53-.395 1.503-.41 1.479-.419 1.46-.427 1.436-.433 1.408-.45 1.374-.449 1.358-.466 1.322-.464 1.306-.48 349.195-130.859M93.953 724.683l5.179-1.188M693.31 646.207l4.82 1.256" style="fill:none;stroke:#00ff4a;stroke-width:.999997;stroke-linecap:round;stroke-linejoin:round;stroke-miterlimit:4;stroke-dasharray:none;stroke-opacity:1;visibility:visible" visibility="hidden"/><path d="m681.56 643.087-3.09-.796-3.09-.796-3.105-.788-3.107-.779-3.107-.777-3.122-.761-3.123-.762-3.13-.76M634.716 631.776l-3.49-.775-3.49-.764-3.507-.765-3.505-.748-3.507-.747-3.522-.738-3.522-.73-3.54-.72-3.529-.721-3.548-.713-3.547-.695-3.556-.695-3.564-.693-3.57-.677-3.572-.678-3.58-.66-3.58-.66-3.588-.658-3.595-.642-3.605-.633-3.604-.635-3.613-.624-3.612-.616-3.63-.614M549.34 615.174l-1.201-.196-1.218-.188-1.225-.188-1.244-.177-1.26-.179-1.259-.16-1.277-.161-1.284-.16-1.293-.142-1.31-.142-1.31-.134-1.327-.132-1.325-.116-1.335-.116-1.343-.106-1.35-.107-1.36-.097-1.359-.08-1.368-.08-1.367-.08-1.376-.064-1.376-.063-1.382-.053-1.384-.046-1.39-.037-1.384-.037-1.392-.028-1.39-.019M509.734 612.07l-1.33.004-1.331.004-1.33.012-1.329.021-1.321.028-1.331.03-1.31.038-1.322.046-1.312.054-1.303.063-1.302.063-1.294.07-1.293.079-1.285.079-1.276.088-1.268.096-1.267.104-1.25.11-1.25.112-1.233.12-1.232.128-1.215.128-1.215.146-1.197.144M363.448 816.11l-1.372.517-1.39.5-1.423.503-1.459.485-1.476.478-1.501.47-1.528.463-1.563.447-1.579.446-1.597.434-1.632.422-1.648.407-1.675.408-1.692.392-1.717.376-1.728.376-1.761.36-1.77.343-1.789.336-1.813.326-1.823.312-1.841.303-1.858.295-1.874.278-1.884.263-1.903.255-1.91.245-1.929.23-1.928.211-1.945.204-1.956.198-1.963.178-1.973.164-1.973.154-1.983.137-1.992.13-1.99.111-2.002.104-2.001.088-2.001.068-2.003.063-2.012.045-2.003.035-2.002.02-2.004.01-1.996-.007-1.998-.026-1.997-.03-1.98-.043-1.98-.059-1.983-.076-1.964-.085-1.957-.103-1.948-.11-1.94-.128-1.932-.138-1.916-.154-1.908-.164-1.89-.182-1.885-.19-1.865-.199-1.85-.217-1.834-.226-1.816-.244-1.8-.252-1.784-.27-1.757-.271-1.751-.297-1.716-.299-1.71-.316-1.682-.324-1.657-.335-1.642-.344-1.606-.362-1.591-.371-1.567-.38-1.54-.39M224.14 822.11l-4.476-1.165-4.433-1.176-4.4-1.186-4.358-1.186-4.322-1.188-4.282-1.207-4.246-1.199-4.204-1.218-4.17-1.22-4.129-1.22-4.087-1.23-4.052-1.241-4.008-1.233-3.976-1.251-3.924-1.253-3.898-1.255-3.848-1.255-3.815-1.274-3.77-1.267-3.74-1.277-3.694-1.279-3.653-1.279-3.61-1.29-3.575-1.29-3.534-1.302-3.492-1.294-3.448-1.304-3.414-1.305-3.372-1.315-3.33-1.317-3.296-1.31-3.253-1.326-3.21-1.321-3.169-1.323-3.125-1.332-3.09-1.333-3.05-1.335-3.015-1.336-2.964-1.339-2.929-1.338-2.887-1.342M58.323 749.928l-.01-.563.03-.564.057-.573.091-.567.125-.566.168-.57.194-.56.218-.57.263-.564.295-.566.33-.565.355-.567.39-.56.425-.561.449-.56.492-.555.517-.556.544-.556.587-.549.604-.55.645-.543.672-.544.698-.535.732-.539.758-.528.783-.532.817-.522.844-.524.878-.518.894-.508.93-.51.953-.502.981-.496 1.007-.496 1.023-.486 1.058-.482 1.083-.481 1.11-.473 1.126-.467 1.153-.457 1.178-.451 1.196-.452 1.22-.443 1.24-.436 1.264-.428 1.29-.42 1.299-.42 1.324-.404 1.35-.406M58.554 755.105l.045.561.071.552.113.551.138.55.173.547.199.548.24.546.266.545.31.535.333.534.368.534.395.532.436.53.47.52.496.52.53.52.564.508.589.508.63.507.66.497.68.498.726.486.75.486.785.476.81.474.843.466.877.456.903.453.937.453M93.953 724.683l66.313-19.519M686.268 644.313l2.97.783 2.97.784 2.97.792 2.953.793M698.13 647.464l1.155.317 1.136.319 1.121.336 1.095.328 1.077.339 1.053.346 1.035.348 1.019.348.994.366.976.358.951.368.925.368.9.379.884.379.858.388.841.388.807.389.781.4.764.392.739.408.705.403.688.41.663.412.629.414.603.421.586.415.552.424.519.425.5.427.467.426.442.436.416.431.382.439.356.43.33.44.298.434.27.442.238.435.212.445.177.438.152.446.117.44.092.44.059.44.032.443-.001.444M711.972 683.092 363.448 816.11M711.972 683.092l.9-.347.867-.354.84-.363.814-.36.79-.37.762-.375.73-.376.712-.383.676-.39.644-.39.625-.396.592-.396.557-.403.54-.404.498-.409.481-.41.445-.415.412-.424.395-.415.352-.421.327-.43.3-.429.266-.427.242-.426.205-.434.181-.433.148-.44.12-.43.088-.438.062-.437.026-.444M58.554 755.105l-.232-5.177M726.57 670.522l.155-4.595M681.56 643.087l4.708 1.225M509.734 612.07l2.517.016M512.25 612.086l-2.516-.016" style="fill:none;stroke:#00ff4a;stroke-width:1.99999;stroke-linecap:round;stroke-linejoin:round;stroke-miterlimit:4;stroke-dasharray:none;stroke-opacity:1;visibility:visible" visibility="hidden"/><path d="m460.602 617.556-5.327.094" style="fill:none;stroke:red;stroke-width:.999997;stroke-linecap:round;stroke-linejoin:round;stroke-miterlimit:4;stroke-dasharray:none;stroke-opacity:1;visibility:visible"/><path d="m632.35 651.492 2.366-19.716M470.692 626.347l8.246-12.51" style="fill:none;stroke:#00ff4a;stroke-width:1.99999;stroke-linecap:round;stroke-linejoin:round;stroke-miterlimit:4;stroke-dasharray:none;stroke-opacity:1;visibility:visible" visibility="hidden"/></svg>