<svg xmlns="http://www.w3.org/2000/svg" baseProfile="full" height="1122.52" preserveAspectRatio="xMinYMin meet" style="width:912px;height:1303px" width="793.701" xml:space="preserve"><path d="m224.369 897.031 21.361-2.336" style="fill:none;stroke:red;stroke-width:.666665;stroke-linecap:round;stroke-linejoin:round;stroke-miterlimit:4;stroke-dasharray:2.86533,2.86533;stroke-dashoffset:0;stroke-opacity:1;visibility:visible" visibility="hidden"/><path d="m159.72 904.105 34.385-3.762" style="fill:none;stroke:red;stroke-width:.666665;stroke-linecap:round;stroke-linejoin:round;stroke-miterlimit:4;stroke-dasharray:2.56266,2.56266;stroke-dashoffset:0;stroke-opacity:1;visibility:visible" visibility="hidden"/><path d="m119.796 906.177 1.108.74" style="fill:none;stroke:red;stroke-width:.666665;stroke-linecap:round;stroke-linejoin:round;stroke-miterlimit:4;stroke-dasharray:none;stroke-opacity:1;visibility:visible" visibility="hidden"/><path d="m123.208 908.1 9.322-1.02" style="fill:none;stroke:red;stroke-width:.666665;stroke-linecap:round;stroke-linejoin:round;stroke-miterlimit:4;stroke-dasharray:2.67999,2.67999;stroke-dashoffset:0;stroke-opacity:1;visibility:visible" visibility="hidden"/><path d="m126.449 935.036-.183-1.32M133.862 906.934l1.326-.145" style="fill:none;stroke:red;stroke-width:.666665;stroke-linecap:round;stroke-linejoin:round;stroke-miterlimit:4;stroke-dasharray:none;stroke-opacity:1;visibility:visible" visibility="hidden"/><path d="m125.897 931.023-2.781-20.203" style="fill:none;stroke:red;stroke-width:.666665;stroke-linecap:round;stroke-linejoin:round;stroke-miterlimit:4;stroke-dasharray:2.71866,2.71866;stroke-dashoffset:0;stroke-opacity:1;visibility:visible" visibility="hidden"/><path d="m122.93 909.471-.182-1.321" style="fill:none;stroke:red;stroke-width:.666665;stroke-linecap:round;stroke-linejoin:round;stroke-miterlimit:4;stroke-dasharray:none;stroke-opacity:1;visibility:visible" visibility="hidden"/><path d="m194.738 926.95 52.41-6.207" style="fill:none;stroke:red;stroke-width:.666665;stroke-linecap:round;stroke-linejoin:round;stroke-miterlimit:4;stroke-dasharray:2.70666,2.70666;stroke-dashoffset:0;stroke-opacity:1;visibility:visible" visibility="hidden"/><path d="m126.606 935.018 22.992-2.723" style="fill:none;stroke:red;stroke-width:.666665;stroke-linecap:round;stroke-linejoin:round;stroke-miterlimit:4;stroke-dasharray:2.43733,2.43733;stroke-dashoffset:0;stroke-opacity:1;visibility:visible" visibility="hidden"/><path d="m219.829 895.309 1.325-.144" style="fill:none;stroke:red;stroke-width:.666665;stroke-linecap:round;stroke-linejoin:round;stroke-miterlimit:4;stroke-dasharray:none;stroke-opacity:1;visibility:visible" visibility="hidden"/><path d="m223.989 894.858 21.249-2.308" style="fill:none;stroke:red;stroke-width:.666665;stroke-linecap:round;stroke-linejoin:round;stroke-miterlimit:4;stroke-dasharray:2.84933,2.84933;stroke-dashoffset:0;stroke-opacity:1;visibility:visible" visibility="hidden"/><path d="m156.434 902.197 34.952-3.8" style="fill:none;stroke:red;stroke-width:.666665;stroke-linecap:round;stroke-linejoin:round;stroke-miterlimit:4;stroke-dasharray:2.60399,2.60399;stroke-dashoffset:0;stroke-opacity:1;visibility:visible" visibility="hidden"/><path d="m119.796 906.177 1.324-.144" style="fill:none;stroke:red;stroke-width:.666665;stroke-linecap:round;stroke-linejoin:round;stroke-miterlimit:4;stroke-dasharray:none;stroke-opacity:1;visibility:visible" visibility="hidden"/><path d="m123.362 905.79 7.844-.852" style="fill:none;stroke:red;stroke-width:.666665;stroke-linecap:round;stroke-linejoin:round;stroke-miterlimit:4;stroke-dasharray:2.25466,2.25466;stroke-dashoffset:0;stroke-opacity:1;visibility:visible" visibility="hidden"/><path d="m132.326 904.815 1.326-.144M119.978 907.498l-.182-1.32" style="fill:none;stroke:red;stroke-width:.666665;stroke-linecap:round;stroke-linejoin:round;stroke-miterlimit:4;stroke-dasharray:none;stroke-opacity:1;visibility:visible" visibility="hidden"/><path d="m427.13 873.063-.227.033-.213.034-.187.04-.166.046-.147.054-.12.053-.085.06-.068.06-.034.067-.005.066.019.067.053.067.08.066.107.067.133.067.153.06.187.06.2.053.22.047.233.046.254.04.26.034.273.026.275.014.278.013.275.007h.273l.266-.007.253-.02.24-.02.233-.027.207-.04.187-.04.174-.046.139-.054.12-.053.087-.06.066-.06.035-.067.005-.066-.026-.067-.054-.067-.08-.066-.106-.067-.132-.067-.155-.06-.179-.06-.208-.053-.22-.047-.233-.046-.253-.034-.259-.033-.267-.027-.274-.02-.28-.013-.274-.007h-.273l-.267.014-.253.013-.24.02M140.568 906.2l9.836-1.075M247.642 894.49l221.033-24.187" style="fill:none;stroke:red;stroke-width:.999997;stroke-linecap:round;stroke-linejoin:round;stroke-miterlimit:4;stroke-dasharray:none;stroke-opacity:1;visibility:visible" visibility="hidden"/><path d="m248.823 920.543 208.24-24.656M139.961 903.984l7.57-.821M200.187 897.442l13.485-1.465M247.543 892.296l217.22-23.6 3.913 1.607M466.443 883.75l2.233-13.447" style="fill:none;stroke:red;stroke-width:1.99999;stroke-linecap:round;stroke-linejoin:round;stroke-miterlimit:4;stroke-dasharray:none;stroke-opacity:1;visibility:visible" visibility="hidden"/><path d="m221.154 895.165 3.215 1.866M247.642 894.49l-1.912.205" style="fill:none;stroke:red;stroke-width:.666665;stroke-linecap:round;stroke-linejoin:round;stroke-miterlimit:4;stroke-dasharray:2.86533,2.86533;stroke-dashoffset:0;stroke-opacity:1;visibility:visible" visibility="hidden"/><path d="m150.404 905.125 9.316-1.02M200.187 897.442l-6.082 2.901" style="fill:none;stroke:red;stroke-width:.666665;stroke-linecap:round;stroke-linejoin:round;stroke-miterlimit:4;stroke-dasharray:2.56266,2.56266;stroke-dashoffset:0;stroke-opacity:1;visibility:visible" visibility="hidden"/><path d="m133.862 906.934-1.332.146" style="fill:none;stroke:red;stroke-width:.666665;stroke-linecap:round;stroke-linejoin:round;stroke-miterlimit:4;stroke-dasharray:2.67999,2.67999;stroke-dashoffset:0;stroke-opacity:1;visibility:visible" visibility="hidden"/><path d="m125.897 931.023.369 2.693M132.53 907.08l1.332-.146M132.326 904.815l2.862 1.974" style="fill:none;stroke:red;stroke-width:.666665;stroke-linecap:round;stroke-linejoin:round;stroke-miterlimit:4;stroke-dasharray:none;stroke-opacity:1;visibility:visible" visibility="hidden"/><path d="m126.266 933.716-.369-2.693M122.93 909.471l.186 1.349" style="fill:none;stroke:red;stroke-width:.666665;stroke-linecap:round;stroke-linejoin:round;stroke-miterlimit:4;stroke-dasharray:2.71866,2.71866;stroke-dashoffset:0;stroke-opacity:1;visibility:visible" visibility="hidden"/><path d="m123.116 910.82-.186-1.349" style="fill:none;stroke:red;stroke-width:.666665;stroke-linecap:round;stroke-linejoin:round;stroke-miterlimit:4;stroke-dasharray:none;stroke-opacity:1;visibility:visible" visibility="hidden"/><path d="m248.823 920.543-1.675.2" style="fill:none;stroke:red;stroke-width:.666665;stroke-linecap:round;stroke-linejoin:round;stroke-miterlimit:4;stroke-dasharray:2.70666,2.70666;stroke-dashoffset:0;stroke-opacity:1;visibility:visible" visibility="hidden"/><path d="m213.672 895.977 6.157-.668M223.989 894.858l-2.835.307" style="fill:none;stroke:red;stroke-width:.666665;stroke-linecap:round;stroke-linejoin:round;stroke-miterlimit:4;stroke-dasharray:none;stroke-opacity:1;visibility:visible" visibility="hidden"/><path d="m221.154 895.165 2.835-.307M247.543 892.296l-2.305.254" style="fill:none;stroke:red;stroke-width:.666665;stroke-linecap:round;stroke-linejoin:round;stroke-miterlimit:4;stroke-dasharray:2.84933,2.84933;stroke-dashoffset:0;stroke-opacity:1;visibility:visible" visibility="hidden"/><path d="m150.404 905.125 6.03-2.928M200.187 897.442l-8.801.955" style="fill:none;stroke:red;stroke-width:.666665;stroke-linecap:round;stroke-linejoin:round;stroke-miterlimit:4;stroke-dasharray:2.60399,2.60399;stroke-dashoffset:0;stroke-opacity:1;visibility:visible" visibility="hidden"/><path d="m121.12 906.033 2.242-.243M132.326 904.815l-1.12.123" style="fill:none;stroke:red;stroke-width:.666665;stroke-linecap:round;stroke-linejoin:round;stroke-miterlimit:4;stroke-dasharray:2.25466,2.25466;stroke-dashoffset:0;stroke-opacity:1;visibility:visible" visibility="hidden"/><path d="m131.206 904.938 1.12-.123M133.862 906.934l-.21-2.263M122.748 908.15l-2.77-.652" style="fill:none;stroke:red;stroke-width:.666665;stroke-linecap:round;stroke-linejoin:round;stroke-miterlimit:4;stroke-dasharray:none;stroke-opacity:1;visibility:visible" visibility="hidden"/><path d="m135.188 906.789 5.38-.589M156.434 902.197l-6.03 2.928M245.73 894.695l1.912-.205" style="fill:none;stroke:red;stroke-width:.999997;stroke-linecap:round;stroke-linejoin:round;stroke-miterlimit:4;stroke-dasharray:none;stroke-opacity:1;visibility:visible" visibility="hidden"/><path d="m247.148 920.743 1.675-.2M135.188 906.789l4.773-2.805M140.568 906.2l6.962-3.037M194.105 900.343l6.082-2.901M219.829 895.309l-6.157.668M245.238 892.55l2.305-.254" style="fill:none;stroke:red;stroke-width:1.99999;stroke-linecap:round;stroke-linejoin:round;stroke-miterlimit:4;stroke-dasharray:none;stroke-opacity:1;visibility:visible" visibility="hidden"/><path d="m167.349 901.317-.273.033-.26.04-.246.053-.221.054-.199.06-.102.038" style="fill:none;stroke:#00ff4a;stroke-width:.666665;stroke-linecap:round;stroke-linejoin:round;stroke-miterlimit:4;stroke-dasharray:none;stroke-opacity:1;visibility:visible" visibility="hidden"/><path d="m167.95 902.763.152.007.308.007.306-.007.306-.007.294-.02.293-.026.273-.034.26-.046.248-.047.219-.053.193-.06.174-.067.146-.073.114-.074.086-.073.054-.08.026-.08-.012-.08-.041-.08-.073-.073-.107-.074-.135-.073-.158-.067-.187-.066-.213-.054-.154-.033" style="fill:none;stroke:#00ff4a;stroke-width:.666665;stroke-linecap:round;stroke-linejoin:round;stroke-miterlimit:4;stroke-dasharray:3.30799,3.30799;stroke-dashoffset:0;stroke-opacity:1;visibility:visible" visibility="hidden"/><path d="m220.195 897.489 1.326-.146M168.68 901.26l-.137-.004-.307.007-.3.007-.3.02-.287.027M247.155 894.54l1.326-.147M195.378 900.203l1.326-.145M123.496 932.956l1.089.768M248.493 920.585l1.324-.158M150.809 932.152l1.324-.157M246.653 892.395l1.325-.144M192.68 898.258l1.325-.144M123.496 932.956l-.183-1.32" style="fill:none;stroke:#00ff4a;stroke-width:.666665;stroke-linecap:round;stroke-linejoin:round;stroke-miterlimit:4;stroke-dasharray:none;stroke-opacity:1;visibility:visible" visibility="hidden"/><path d="m122.942 928.954-2.778-20.115" style="fill:none;stroke:#00ff4a;stroke-width:.666665;stroke-linecap:round;stroke-linejoin:round;stroke-miterlimit:4;stroke-dasharray:2.70799,2.70799;stroke-dashoffset:0;stroke-opacity:1;visibility:visible" visibility="hidden"/><path d="m155.516 928.743.033-.167.02-.166.021-.174.006-.166.006-.154-.006-.146-.014-.134-.012-.113-.021-.1-.02-.08-.04-.147-.053-.126-.067-.094-.033-.04-.04-.033-.04-.027-.039-.013-.041-.007h-.074l-.02.007M155.042 929.81l.074-.067.064-.093.076-.107.066-.133.054-.147.053-.167.045-.173.04-.18M154.502 927.976l-.032.194-.021.2-.02.186v.34l.007.154.02.14.006.073.012.073.022.087.026.08.028.08.039.073.04.074.047.053.053.04.053.02M154.496 927.963l.053-.2.06-.187.067-.173.072-.153.08-.134.081-.113.088-.08.083-.06M154.782 929.843l.06.02.068.007.066-.02.066-.04M148.458 927.983l.027-.2.04-.193.047-.194.053-.18.06-.18.073-.173.079-.16.088-.14.093-.12.047-.053.052-.047.053-.04.047-.033.053-.027.054-.013.053-.007h.048M149.869 928.918l-.007-.188v-.186l.014-.193.021-.2.025-.2.04-.193.048-.194.054-.18.058-.18.074-.173.08-.16.086-.14.094-.12.048-.053.052-.048.053-.039.047-.033.053-.028.053-.012.054-.008h.046M151.693 929.802l-.039-.007-.034-.02-.032-.027-.034-.033-.034-.04-.032-.047-.028-.053-.02-.067-.04-.133-.034-.16-.02-.173-.006-.187v-.187l.013-.193.021-.2.026-.2.04-.193.049-.194.051-.18.061-.18.072-.173.08-.16.087-.14.094-.12.047-.053.052-.047.053-.04.047-.033.053-.027.054-.013.053-.007h.047M153.194 929.927l-.038-.007-.036-.02-.031-.026-.033-.034-.036-.04-.031-.046-.029-.054-.018-.066-.041-.134-.033-.16-.02-.173-.008-.187v-.186l.014-.194.022-.2.024-.2.042-.193.048-.193.052-.18.06-.18.072-.174.08-.16.087-.14.095-.12.046-.053.052-.047.054-.04.046-.033.054-.027.052-.013.054-.007h.047" style="fill:none;stroke:#00ff4a;stroke-width:.999997;stroke-linecap:round;stroke-linejoin:round;stroke-miterlimit:4;stroke-dasharray:none;stroke-opacity:1;visibility:visible" visibility="hidden"/><path d="m224.163 908.363 3.727 71.713" style="fill:none;stroke:#00ff4a;stroke-width:1.99999;stroke-linecap:round;stroke-linejoin:round;stroke-miterlimit:4;stroke-dasharray:none;stroke-opacity:1;visibility:visible" visibility="hidden"/><path d="m212.662 686.918 11.501 221.445M169.023 935.01l-.013.287-.047.293-.079.287-.101.28-.132.273-.155.26-.178.247-.208.22-.22.206-.239.187-.255.153-.26.134-.273.1-.28.073-.28.04-.28.007-.273-.02-.266-.047-.261-.08-.239-.113-.228-.14-.212-.167-.188-.187-.166-.213-.139-.233-.113-.247-.088-.267-.06-.273-.026-.287.007-.286.025-.294.067-.293.087-.287.12-.273.141-.267.173-.253.192-.24.207-.213.233-.194.247-.166.26-.147.267-.113.28-.087.28-.06.28-.027.273.007.273.04.262.067.252.093.234.127.219.153.2.173.18.207.147.22.126.24.1.26.074.267.04.28.013.293M169.123 922.383l-.013.293-.047.294-.079.286-.101.28-.133.274-.155.26-.179.246-.206.22-.22.207-.24.18-.254.16-.266.127-.267.1-.28.073-.28.04-.28.013-.273-.026-.274-.054-.253-.08-.247-.113-.226-.14-.214-.167-.186-.186-.167-.22-.14-.234-.113-.246-.087-.267-.06-.28-.027-.287v-.286l.034-.294.06-.293.093-.287.12-.273.14-.267.173-.253.187-.24.213-.213.234-.194.246-.166.26-.147.267-.113.28-.087.28-.053.28-.027.28.007.273.04.26.066.254.1.233.127.22.153.2.18.173.2.154.227.133.24.093.26.074.273.046.28.007.287M170.463 930.316l-.007-.073.007-.06.007-.047.006-.04.02-.04.02-.027" style="fill:none;stroke:#00ff4a;stroke-width:.999997;stroke-linecap:round;stroke-linejoin:round;stroke-miterlimit:4;stroke-dasharray:none;stroke-opacity:1;visibility:visible" visibility="hidden"/><path d="m170.49 926.757.227-.007.212.02.206.054.202.086.18.107.166.133.147.154.12.18.093.193.067.213.04.22.013.227-.013.233-.047.234-.074.226-.1.214-.12.206-.146.194-.166.173-.188.153-.199.127-.207.1-.22.073-.221.047M173.83 921.837l-.013-.193-.04-.18-.067-.174-.1-.16-.113-.133-.14-.12-.155-.087" style="fill:none;stroke:#00ff4a;stroke-width:.999997;stroke-linecap:round;stroke-linejoin:round;stroke-miterlimit:4;stroke-dasharray:none;stroke-opacity:1;visibility:visible" visibility="hidden"/><path d="m171.743 923.016.147.107.166.08.174.046.186.02.194-.006.193-.047.181-.067.179-.1.161-.126.146-.147.121-.167.099-.18.081-.193.039-.2.02-.2M173.723 934.443l-.013-.193-.04-.18-.067-.167-.093-.16-.114-.133-.134-.114-.152-.086M171.623 935.617l.147.107.166.08.174.053.186.02.194-.007.193-.046.187-.067.18-.1.16-.127.146-.146.128-.167.099-.18.073-.193.047-.2.02-.2M174.15 917.096l-2.1.24.227.147M155.369 932.697l.493-.333M172.262 918.47l-10.205 1.167M172.262 918.47l.015-.987M154.636 921.53l-.032 5.28M155.43 927.063l6.712-.787M162.142 926.277l.341-.02h.34M162.823 926.257l2.233.147 2.234.14 2.226.146.974.067M170.463 930.316l-.979.3-2.234.667-2.24.673-2.234.667M162.776 932.623l-.34.08-.34.06-5.633.667M164.83 939.057l7.273-.887-.014.987M155.582 928.31l.14-.04.155-.033.152-.02 6.64-.78M163.33 927.403l3.68.04 1.84.02 1.845.027M170.696 927.49v-.007M170.676 929.91h.007M170.676 929.91l-.16.12M170.516 930.03h0M170.696 927.483l.181-.007.18.027.172.053.155.08.139.107.113.133.093.147.074.167.04.18.013.186-.013.194-.047.193-.072.18-.095.173-.12.16-.146.14-.152.12-.175.094-.173.06-.187.04M146.563 926.777l9.365-6.087M156.657 920.47l-.188.033-.167.04-.152.04-.121.054-.1.053M156.657 920.47l6.159-.943M162.67 927.436l.08-.007.08-.006M162.83 927.423l.22-.013.22-.007M163.27 927.403h.06M155.717 932.93l.06-.133.047-.14.032-.147.006-.147M172.05 917.337h0-.007M155.763 919.43l-.047-.02-.046-.007M164.657 936.537l.067.073.1.094.113.08M75.73 640.75l.047-.02.026-.02v-.027l-.026-.02-.054-.02M86.11 641.337l-.013.013-.034.02-.066.014-.087.006-.113.014-.127.006h-.141M67.33 641.656l.073.02.1.013.127.014.153.013.16.007.174.006h.34l17.072-.32M67.33 641.656l-2.613-.813M221.543 686.55l-8.88.367M225.323 686.397l-.14-.04-.18-.033-.201-.027-.232-.027-.247-.026-.267-.02-.28-.014-.28-.006-.286-.007h-.282l-.272.007-.26.006-.233.02-.213.02-.187.02-.16.034-.12.026-.087.034-.046.04-.007.033.025.04.075.033.1.04M234.13 686.03l-8.805.367M208.642 685.637l.015.02.025.02.053.013M212.663 686.917l-3.927-1.227M68.456 641.73l36.78 192.42M105.236 834.15l.2 1.033.215 1.034.225 1.033.233 1.027.24 1.033.26 1.027.26 1.02.274 1.02.288 1.006.292 1.007.3.993.306.987.322.98.318.967.334.953.34.94.346.933.354.914.36.9.366.88.367.866.381.854.379.826.387.814.386.793.394.767.401.753.399.727.4.7.406.68.407.653.407.633.406.607.414.573.406.554.414.526.413.494.407.466.408.44.405.407.407.38.4.347.401.32.399.286.393.26M121.056 868.563l87.44 53.64M208.497 922.203l.467.267.458.24.462.213.453.173.453.14.447.114.433.073.434.047.425.013.421-.027.412-.053.402-.093M225.323 686.397l-.007.12-.014.127M221.543 686.55h0M223.976 904.77v.007M223.976 904.777l.053 1.213.04 1.2.02 1.18.008 1.16-.014 1.147-.02 1.12-.047 1.1-.06 1.08-.072 1.06-.095 1.033-.106 1.007-.126.987-.134.96-.16.933-.166.9-.188.88-.198.847-.214.813-.234.793-.247.754-.26.726-.272.7-.288.66-.3.634-.313.593-.326.567-.341.526-.353.5-.367.46-.372.427-.387.393-.401.354-.413.326-.42.28-.426.254-.44.213-.453.18-.461.14M220.157 901.356l-.053-.06-.034-.053-.013-.06" style="fill:none;stroke:#00ff4a;stroke-width:.999997;stroke-linecap:round;stroke-linejoin:round;stroke-miterlimit:4;stroke-dasharray:none;stroke-opacity:1;visibility:visible" visibility="hidden"/><path d="m213.763 923.31.3-.087.292-.113.287-.14.286-.167.288-.186.28-.214.274-.246.273-.267.265-.293.26-.327.262-.347.245-.38.248-.4.199-.373.201-.393.185-.407.188-.433.18-.454.174-.473.166-.487.154-.513.153-.527.14-.54.132-.566.128-.574.113-.593.107-.607" style="fill:none;stroke:#00ff4a;stroke-width:1.99999;stroke-linecap:round;stroke-linejoin:round;stroke-miterlimit:4;stroke-dasharray:none;stroke-opacity:1;visibility:visible" visibility="hidden"/><path d="m225.309 686.643.107-.033.081-.034.032-.033.007-.04-.032-.033-.074-.04-.1-.034M218.036 688.25h-.613l-.199-.013-.188-.02-.167-.02-.133-.02-.107-.027M235.196 1027.716l-17.16-339.466M216.63 688.15l-3.967-1.233M237.676 687.43l-19.64.82M238.276 687.316l-.02.027-.055.02-.085.026-.127.014-.146.02-.167.006M62.123 640.037l-.033-.013-.014-.014M75.717 640.643l7.667-.147M75.717 640.643l-.087-.027-.12-.026-.141-.02-.173-.02-.186-.014-.208-.02-.22-.006-.232-.014-.233-.006h-.467l-.228.006-.212.007-.193.007-.173.013-.155.02-.125.02-.1.02-.074.02-.034.027-.006.02.027.026.053.027M62.123 640.037l2.593.807 7.714-.14M64.717 640.843l50.453 263.56M72.43 640.703h0" style="fill:none;stroke:#00ff4a;stroke-width:.999997;stroke-linecap:round;stroke-linejoin:round;stroke-miterlimit:4;stroke-dasharray:none;stroke-opacity:1;visibility:visible" visibility="hidden"/><path d="M75.723 640.75v-.053l-.007-.054M118.997 906.21l8.305 43.447M230.223 1024.89l-2.26-43.607M227.963 981.283h0" style="fill:none;stroke:#00ff4a;stroke-width:.999997;stroke-linecap:round;stroke-linejoin:round;stroke-miterlimit:4;stroke-dasharray:none;stroke-opacity:1;visibility:visible" visibility="hidden"/><path d="m208.49 938.543.425.287.435.326.44.354.44.393.44.427.447.46.446.493.447.52.447.553.446.587.44.62.447.64.44.68.44.7.433.727.432.753.427.78.421.8.412.82.415.847.4.866.393.887.394.907.373.92.372.933.361.953.347.96.339.974.333.986.315 1 .305 1 .295 1.007.28 1.013.273 1.02.252 1.02.241 1.02.227 1.027.213 1.013.194 1.02.185 1.014.167 1 .154 1 .132.993.128.973.1.974.092.953.075.94.052.927 2.368 44.633" style="fill:none;stroke:#00ff4a;stroke-width:1.99999;stroke-linecap:round;stroke-linejoin:round;stroke-miterlimit:4;stroke-dasharray:none;stroke-opacity:1;visibility:visible" visibility="hidden"/><path d="m227.963 981.283-.067-1.047-.072-1.073-.101-1.08-.107-1.093-.125-1.107-.148-1.113-.153-1.127-.174-1.14-.192-1.14-.201-1.153-.22-1.154-.233-1.153-.246-1.16-.266-1.167-.275-1.16-.293-1.16-.3-1.16-.32-1.153-.327-1.153-.34-1.14-.353-1.14-.367-1.127-.38-1.12-.385-1.113-.394-1.094-.408-1.086-.418-1.067-.428-1.053-.434-1.04-.446-1.02-.447-1.007-.46-.98-.467-.967-.466-.94-.48-.92-.479-.9-.488-.866-.493-.847-.494-.827-.5-.793-.5-.767-.506-.74-.507-.706-.507-.68-.505-.654-.507-.62-.508-.586-.506-.554-.5-.526-.507-.487-.5-.46-.493-.42-.5-.387-.486-.36-.488-.32M122.29 877.243l-.38-.227-.373-.186-.367-.16-.367-.134-.353-.093-.353-.067-.34-.033h-.34l-.327.027-.327.066M121.516 884.477l-.273.087-.259.113-.255.147-.24.173-.24.207-.226.24-.214.266-.206.294-.194.326-.186.354-.174.38-.16.406-.153.434-.139.466-.128.487-.12.513-.106.54-.092.56-.082.58-.066.607-.06.627-.047.653-.027.667-.026.686-.007.707.007.72.02.74.026.753.042.767.053.78.065.793.08.8.087.82.101.82.114.834.125.84.133.846.147.847.16.853M208.49 938.543l.027.14.053.133.072.114.088.106.107.08M224.202 977.61l-.045-.06-.035-.06-.012-.067M123.61 885.016l-.207-.127-.213-.113-.2-.093-.193-.08-.187-.067-.173-.047-.174-.033-.16-.02-.16-.007-.146.007-.14.013-.14.027" style="fill:none;stroke:#00ff4a;stroke-width:.999997;stroke-linecap:round;stroke-linejoin:round;stroke-miterlimit:4;stroke-dasharray:none;stroke-opacity:1;visibility:visible" visibility="hidden"/><path d="m134.39 891.856-10.78-6.84" style="fill:none;stroke:#00ff4a;stroke-width:1.99999;stroke-linecap:round;stroke-linejoin:round;stroke-miterlimit:4;stroke-dasharray:none;stroke-opacity:1;visibility:visible" visibility="hidden"/><path d="m141.15 926.463-.295-.02-.292-.013h-.3l-.301.006-.292.014-.293.02" style="fill:none;stroke:#00ff4a;stroke-width:.999997;stroke-linecap:round;stroke-linejoin:round;stroke-miterlimit:4;stroke-dasharray:none;stroke-opacity:1;visibility:visible" visibility="hidden"/><path d="m141.416 926.43.295-.033.28-.054.258-.053.242-.06.212-.067.186-.073.162-.08.125-.08.095-.087.065-.086.027-.094-.007-.086-.039-.087-.068-.087-.106-.08-.14-.08-.16-.073-.2-.073-.22-.06-.24-.06-.267-.047-.28-.04-.3-.033-.307-.027-.318-.013-.322-.007-.326.007-.32.013-.312.02-.308.027-.292.04-.28.046-.262.054-.238.066-.215.067-.185.073-.16.08-.128.08-.099.087-.061.087-.034.086.007.087.035.087.072.086.106.087.134.08.166.073.195.067.22.067.239.053.268.053.285.04.293.034.314.026.321.014.319.006.326-.006.32-.014.322-.02.305-.033M224.45 983.763l-.34.02-.327.033-.32.04-.3.054" style="fill:none;stroke:#00ff4a;stroke-width:.999997;stroke-linecap:round;stroke-linejoin:round;stroke-miterlimit:4;stroke-dasharray:none;stroke-opacity:1;visibility:visible" visibility="hidden"/><path d="m224.35 981.97-.34.027-.333.033-.32.047-.3.06-.28.066-.26.074-.227.08-.2.093-.173.093-.14.1-.1.107-.067.107-.033.113.006.107.04.106.08.114.115.1.145.1.18.1.207.086.241.08.266.074.286.066.307.06.327.04.34.04.346.02M224.576 986.25l-96.833-65.966M173.202 920.79l-.173-.06-.18-.033h-.186l-.188.026-.186.054-.179.086-.167.107-.154.133-.132.154-.114.173-.088.187-.058.186-.035.2-.007.194.028.193.047.18.079.167.108.153.125.127M173.11 933.41l-.173-.067-.182-.033-.178-.007-.194.027-.181.053-.179.087-.173.107-.155.133-.132.153-.113.167-.088.18-.065.193-.035.194-.013.2.021.186.053.18.074.174.1.146.126.134M165.523 924.003l-.193.013-.194-.006-.186-.034-.179-.046M166.956 920.63l.14.18.12.2.087.213.066.234.034.24v.24l-.027.246-.059.247-.088.24-.106.233-.139.214-.167.2-.181.18-.2.16-.213.126-.227.107-.233.073-.24.04M165.43 936.617l-.2.013-.201-.013-.186-.027-.186-.053M166.877 933.27l.139.18.113.2.088.213.06.227.025.24v.24l-.025.247-.06.24-.088.24-.113.226-.139.214-.16.2-.188.173-.192.153-.22.134-.22.1-.233.073-.234.047M172.089 939.156l2.267-.273M174.356 938.883l1.153-1.32M166.356 940.083l5.733-.927M172.043 917.337l2.107-.24M155.67 919.403l1.28-.147 1.273-.153 1.267-.16 1.26-.167 1.253-.16 1.254-.166 1.246-.167 1.252-.16 1.255-.167 1.252-.16 1.255-.16 1.26-.153 1.266-.147M153.497 920.023l.173-.1.18-.087.194-.08.205-.066.22-.067.221-.053.234-.054.24-.04.252-.04.254-.033M144.843 925.617l8.653-5.593M72.437 640.703l.092.02.121.027.152.02.174.02.194.02.214.013.233.013.233.007.239.007h.481l.227-.007.213-.007.192-.013.167-.013.148-.02.119-.02.094-.02M75.73 640.75l-.007-.053v-.054M86.056 641.31l.04.013.013.014" style="fill:none;stroke:#00ff4a;stroke-width:.999997;stroke-linecap:round;stroke-linejoin:round;stroke-miterlimit:4;stroke-dasharray:none;stroke-opacity:1;visibility:visible" visibility="hidden"/><path d="m228.743 684.73.195-.007h.198l.207.007.193.013.187.014.167.02.133.02.107.026M86.056 641.31l-2.673-.813M234.13 686.03l-4-1.207M228.743 684.73l-19.48.787" style="fill:none;stroke:#00ff4a;stroke-width:1.99999;stroke-linecap:round;stroke-linejoin:round;stroke-miterlimit:4;stroke-dasharray:none;stroke-opacity:1;visibility:visible" visibility="hidden"/><path d="m209.262 685.516-.18.013-.145.014-.128.02-.092.02-.054.026-.021.027M234.13 686.03v.007M208.73 931.43l-87.366-54.607" style="fill:none;stroke:#00ff4a;stroke-width:.999997;stroke-linecap:round;stroke-linejoin:round;stroke-miterlimit:4;stroke-dasharray:none;stroke-opacity:1;visibility:visible" visibility="hidden"/><path d="m215.422 932.876-.472.107-.481.073-.486.033h-.5l-.508-.04-.506-.08-.519-.113-.528-.147-.527-.186-.54-.22-.538-.254-.54-.293-.548-.327" style="fill:none;stroke:#00ff4a;stroke-width:1.99999;stroke-linecap:round;stroke-linejoin:round;stroke-miterlimit:4;stroke-dasharray:none;stroke-opacity:1;visibility:visible" visibility="hidden"/><path d="m104.336 845.137-.307-1.107-.3-1.12-.293-1.12-.28-1.126-.273-1.127-.267-1.133-.253-1.134-.24-1.133-.234-1.133-.22-1.134" style="fill:none;stroke:#00ff4a;stroke-width:.999997;stroke-linecap:round;stroke-linejoin:round;stroke-miterlimit:4;stroke-dasharray:none;stroke-opacity:1;visibility:visible" visibility="hidden"/><path d="m121.362 876.823-.432-.287-.433-.313-.44-.347-.442-.373-.446-.407-.446-.433-.446-.46-.454-.493-.446-.514-.454-.546-.448-.574-.453-.6-.453-.626-.447-.654-.453-.673-.446-.707-.446-.72-.447-.753-.44-.767-.441-.793-.44-.82-.434-.833-.425-.86-.427-.874-.428-.9-.412-.913-.414-.933-.412-.947-.4-.967-.4-.98-.388-1-.386-1.006-.38-1.027-.374-1.033-.36-1.054-.36-1.06-.352-1.066-.34-1.08-.334-1.094-.326-1.093-.322-1.107M121.93 830.257l-35.82-188.92M219.543 913.203l-81.666-48.48M225.302 930.23l-9.88 2.647M220.056 901.183l-11.415-215.546M219.543 913.203v-.007l.107-.633.092-.66.081-.667.08-.693.059-.7.06-.72.048-.727.04-.746.025-.76.021-.774.007-.78v-.793l-.013-.8-.022-.84-.025-.86-.047-.86M121.93 830.257l.152.807.167.806.166.814.182.806.18.814.192.806.194.807.206.807.206.8.215.8.22.793.225.787.227.78.233.773.242.767.245.76.248.76.259.753.261.74.26.74.265.727.274.72.28.713.28.7.281.693.287.68.293.667.292.66.293.647.302.64.305.626.301.62.312.6.308.587.314.58.312.56.314.547.312.533.32.52.315.5.32.487.319.466.314.46.32.44.32.42.319.407.32.393.315.374.312.353.314.333.314.32.305.3.287.254.273.246.28.227.273.207.274.2.268.18.26.16" style="fill:none;stroke:#00ff4a;stroke-width:1.99999;stroke-linecap:round;stroke-linejoin:round;stroke-miterlimit:4;stroke-dasharray:none;stroke-opacity:1;visibility:visible" visibility="hidden"/><path d="m221.55 686.55.145.04.174.033.208.027.24.027.253.026.273.02.28.014.292.006.287.007h.288l.272-.007.26-.013.241-.013.212-.02.182-.027.152-.027M225.33 686.397l-.013.12-.008.127M233.91 1027.557l.093.06.127.047.153.04.174.026.18.014h.193l.187-.007.18-.02M238.17 687.257l.06.02.032.02.015.02" style="fill:none;stroke:#00ff4a;stroke-width:.999997;stroke-linecap:round;stroke-linejoin:round;stroke-miterlimit:4;stroke-dasharray:none;stroke-opacity:1;visibility:visible" visibility="hidden"/><path d="m234.13 686.037 4.04 1.22M235.196 1027.716l17.795-2.913M230.223 1024.89l3.687 2.667" style="fill:none;stroke:#00ff4a;stroke-width:1.99999;stroke-linecap:round;stroke-linejoin:round;stroke-miterlimit:4;stroke-dasharray:none;stroke-opacity:1;visibility:visible" visibility="hidden"/><path d="m62.076 640.01.013-.02.04-.013.067-.014.087-.013.113-.007.127-.006.146-.007" style="fill:none;stroke:#00ff4a;stroke-width:.999997;stroke-linecap:round;stroke-linejoin:round;stroke-miterlimit:4;stroke-dasharray:none;stroke-opacity:1;visibility:visible" visibility="hidden"/><path d="m120.616 945.45.013.04.04.033M83.383 640.496l-2.653-.8M80.73 639.697l-.067-.013-.106-.02-.127-.014-.147-.006-.16-.014-.166-.006h-.34l-16.947.306M123.416 947.51l-2.747-1.987" style="fill:none;stroke:#00ff4a;stroke-width:1.99999;stroke-linecap:round;stroke-linejoin:round;stroke-miterlimit:4;stroke-dasharray:none;stroke-opacity:1;visibility:visible" visibility="hidden"/><path d="M83.383 640.496h0" style="fill:none;stroke:#00ff4a;stroke-width:.999997;stroke-linecap:round;stroke-linejoin:round;stroke-miterlimit:4;stroke-dasharray:none;stroke-opacity:1;visibility:visible" visibility="hidden"/><path d="m62.076 640.01 58.54 305.44M129.336 949.417l-2.033.24" style="fill:none;stroke:#00ff4a;stroke-width:1.99999;stroke-linecap:round;stroke-linejoin:round;stroke-miterlimit:4;stroke-dasharray:none;stroke-opacity:1;visibility:visible" visibility="hidden"/><path d="m115.396 905.623 8.02 41.887M230.223 1024.89h0" style="fill:none;stroke:#00ff4a;stroke-width:.999997;stroke-linecap:round;stroke-linejoin:round;stroke-miterlimit:4;stroke-dasharray:none;stroke-opacity:1;visibility:visible" visibility="hidden"/><path d="m230.223 1024.89-3.653-2.647M118.763 876.436l-.313.093-.308.12-.299.16-.287.187-.28.22-.273.247-.261.28-.252.313-.242.34-.226.367-.22.4-.212.426-.194.46-.186.48-.182.514-.16.533-.152.567-.141.586-.125.614-.12.64-.107.66-.088.68-.079.706-.073.727-.053.753-.04.767-.035.787-.019.806v.827l.007.84.012.86.035.873.046.887.054.9.073.913.079.927.093.94.101.947.12.953.126.967.141.973.153.98.159.98.175.993.186.994M126.19 949.523l-2.773-2.013M127.302 949.656l-.167.013-.166.007-.167-.007-.16-.013-.145-.027-.128-.026-.106-.04-.074-.04M226.57 1022.243l-.053-.047-.027-.04-.013-.046M139.29 921.883l-3.78-19.933M120.283 876.063l-1.52.373M134.39 891.856l.007.413.02.58.033.614.033.613.046.633.054.634.059.64.068.653.073.653.086.66.088.667.1.673.106.667.107.66.12.667.12.666M208.836 939.117l-74.446-47.26" style="fill:none;stroke:#00ff4a;stroke-width:1.99999;stroke-linecap:round;stroke-linejoin:round;stroke-miterlimit:4;stroke-dasharray:none;stroke-opacity:1;visibility:visible" visibility="hidden"/><path d="m224.11 977.423-.04-.667-.047-.68-.06-.693-.066-.7-.074-.707-.08-.713-.093-.713-.1-.727-.113-.727-.114-.733-.128-.733-.132-.74-.153-.794-.161-.8-.172-.8-.18-.806-.195-.807-.192-.807-.207-.8-.213-.8-.228-.8-.225-.793-.24-.787-.247-.786-.253-.787-.26-.773-.268-.774-.279-.766-.281-.76-.286-.747-.293-.74-.3-.727-.307-.713-.306-.707-.314-.686-.313-.68-.328-.667-.319-.653-.333-.64-.333-.627-.334-.607-.341-.593-.34-.573-.339-.56-.346-.534-.34-.52-.34-.5-.347-.48-.341-.46-.346-.446-.34-.42-.346-.407-.34-.38-.334-.36-.34-.34-.326-.313-.274-.247-.273-.233-.267-.22-.266-.2-.26-.187-.26-.167" style="fill:none;stroke:#00ff4a;stroke-width:.999997;stroke-linecap:round;stroke-linejoin:round;stroke-miterlimit:4;stroke-dasharray:none;stroke-opacity:1;visibility:visible" visibility="hidden"/><path d="m226.476 1022.11-2.365-44.687M226.336 1019.456l-96.993-69.953-1.6-29.22" style="fill:none;stroke:#00ff4a;stroke-width:1.99999;stroke-linecap:round;stroke-linejoin:round;stroke-miterlimit:4;stroke-dasharray:none;stroke-opacity:1;visibility:visible" visibility="hidden"/><path d="m224.19 978.977-88.532-59.54M127.743 920.283l7.915-.847M227.963 981.283l-.033-.6-.04-.607" style="fill:none;stroke:#00ff4a;stroke-width:.999997;stroke-linecap:round;stroke-linejoin:round;stroke-miterlimit:4;stroke-dasharray:none;stroke-opacity:1;visibility:visible" visibility="hidden"/><path d="m248.16 887.973 2.062 39.87" style="fill:none;stroke:#00ff4a;stroke-width:3.99999;stroke-linecap:round;stroke-linejoin:round;stroke-miterlimit:4;stroke-dasharray:none;stroke-opacity:1;visibility:visible" visibility="hidden"/><path d="m238.275 687.317 15.247 337.186" style="fill:none;stroke:#00ff4a;stroke-width:1.99999;stroke-linecap:round;stroke-linejoin:round;stroke-miterlimit:4;stroke-dasharray:none;stroke-opacity:1;visibility:visible" visibility="hidden"/><path d="m168.68 901.26-.73 1.503" style="fill:none;stroke:#00ff4a;stroke-width:.666665;stroke-linecap:round;stroke-linejoin:round;stroke-miterlimit:4;stroke-dasharray:3.30799,3.30799;stroke-dashoffset:0;stroke-opacity:1;visibility:visible" visibility="hidden"/><path d="m167.95 902.763.73-1.503M247.978 892.251l-.823 2.289M246.653 892.395l1.828 1.998M194.005 898.114l1.373 2.089M192.68 898.258l4.024 1.8M120.67 945.523l3.915-11.799M141.416 926.43l9.393 5.722M156.463 933.43l-4.33-1.435M248.481 894.393l-1.828-1.998M247.155 894.54l.823-2.289M196.704 900.058l-4.024-1.8M195.378 900.203l-1.373-2.089M122.942 928.954l.371 2.682" style="fill:none;stroke:#00ff4a;stroke-width:.666665;stroke-linecap:round;stroke-linejoin:round;stroke-miterlimit:4;stroke-dasharray:none;stroke-opacity:1;visibility:visible" visibility="hidden"/><path d="m123.313 931.636-.371-2.682M118.996 906.21l1.168 2.629" style="fill:none;stroke:#00ff4a;stroke-width:.666665;stroke-linecap:round;stroke-linejoin:round;stroke-miterlimit:4;stroke-dasharray:2.70799,2.70799;stroke-dashoffset:0;stroke-opacity:1;visibility:visible" visibility="hidden"/><path d="m154.502 927.976-6.044.007M139.377 926.47l10.048-.247M155.862 932.363l-5.993-3.445M162.142 926.277l-11.28.113M155.67 919.403l-3.977 10.399M162.142 926.277l-9.802.238M155.67 919.403l-2.476 10.524M172.089 939.157l-3.066-4.147M170.696 927.483l-1.673 7.527M172.262 918.47l-3.139 3.913M170.696 927.483l-1.573-5.1M149.869 928.918l4.767-7.388M165.43 936.617l-.6 2.44M155.08 926.863l-8.517-.086M75.73 640.75l-7.274.98M115.396 905.623l-.226-1.22M208.73 931.43l-1.234-.954M121.364 876.823l.926.42M141.416 926.43l-2.04.04M174.356 938.883l-8 1.2M155.08 926.863l-10.237-1.246M105.236 834.15l-3.567-.28" style="fill:none;stroke:#00ff4a;stroke-width:.999997;stroke-linecap:round;stroke-linejoin:round;stroke-miterlimit:4;stroke-dasharray:none;stroke-opacity:1;visibility:visible" visibility="hidden"/><path d="m215.423 932.877 9.879-2.647M123.313 931.636l15.977-9.753M118.763 876.436l1.52-.373M226.57 1022.243l-.234-2.787" style="fill:none;stroke:#00ff4a;stroke-width:1.99999;stroke-linecap:round;stroke-linejoin:round;stroke-miterlimit:4;stroke-dasharray:none;stroke-opacity:1;visibility:visible" visibility="hidden"/><path d="M616.274 940.143v-.147l-.014-.12-.006-.093-.02-.067-.02-.033h-.02l-.027.02-.027.06-.026.087-.034.106-.032.14-.034.16-.026.187-.034.2-.033.213-.027.227-.028.233-.018.24-.02.234-.022.233M615.808 942.023l-.014.22-.006.213-.008.194v.333l.008.133.006.107.014.08.021.053.019.027.02-.007.026-.033.034-.067.026-.093M624.757 944.234l-.007-.007-.006-.013v-.087l-.007-.047.007-.053v-.053l.006-.134.007-.146.013-.174.02-.186.02-.18.02-.194.027-.193.027-.193.033-.2.027-.187.033-.187.033-.18.04-.173.04-.167.04-.14.04-.126.02-.06.02-.047.02-.047.02-.033.02-.027.02-.02.013-.013h.021M623.214 943.942l-.006-.007-.008-.013v-.087l-.006-.047.007-.053v-.053l.007-.134.006-.146.014-.174.018-.186.022-.18.02-.194.026-.193.027-.193.033-.2.027-.187.033-.187.034-.18.04-.173.04-.167.04-.14.04-.126.02-.06.02-.047.018-.047.022-.033.02-.027.018-.02.015-.013h.02M621.652 943.775l-.007-.007-.007-.013v-.087l-.006-.046.006-.054v-.053l.007-.133.007-.147.013-.173.019-.187.021-.18.02-.193.027-.194.026-.193.034-.2.026-.187.034-.186.033-.18.04-.174.04-.166.04-.14.04-.127.02-.06.02-.047.019-.046.021-.034.02-.026.019-.02.014-.014h.02M620.11 943.587l-.006-.007-.007-.013v-.087l-.007-.046.007-.054v-.053l.007-.133.006-.147.014-.173.018-.187.022-.18.02-.193.026-.194.027-.193.033-.2.027-.187.033-.186.034-.18.04-.174.04-.166.04-.14.04-.127.02-.06.02-.047.018-.046.022-.034.02-.026.018-.02.015-.014h.02M618.548 943.4l-.008-.006-.006-.014v-.086l-.006-.047.006-.053v-.054l.007-.133.007-.147.012-.173.02-.187.02-.18.021-.193.027-.193.026-.194.034-.2.026-.186.034-.187.032-.18.041-.173.04-.167.04-.14.04-.127.02-.06.02-.046.019-.047.02-.033.021-.027.019-.02.014-.013h.02M617.001 943.296l-.007-.006-.006-.014v-.086l-.008-.047.008-.053v-.054l.006-.133.007-.147.013-.173.02-.187.019-.18.021-.193.027-.193.027-.194.032-.2.028-.186.032-.187.034-.18.04-.173.04-.167.04-.14.04-.127.02-.06.02-.046.02-.047.019-.033.021-.027.02-.02.013-.013h.021M615.43 952.796v-.14l-.017-.12-.012-.086-.011-.06-.022-.027-.026-.007-.02.034-.032.06-.029.086-.031.114-.029.14-.031.16-.036.186-.024.2-.036.214-.024.226-.029.234-.025.24-.022.233-.013.227M614.961 954.71l-.013.22-.008.213-.006.193-.006.174.006.153.007.133.007.107.012.08.022.047.02.026.019-.006.026-.04.027-.06.034-.094M621.278 953.183l-.04.06-.034.087-.039.106-.04.134-.035.14-.04.153-.032.167-.034.173-.026.173-.028.174-.025.18-.028.173-.025.173-.02.167-.022.167-.012.16-.013.153-.013.147-.008.133-.007.113-.007.107v.147l.007.026M619.716 953.016l-.04.06-.036.087-.038.107-.04.133-.034.14-.04.153-.032.167-.036.173-.024.174-.028.173-.026.18-.028.173-.024.174-.02.166-.022.167-.012.16-.014.153-.012.147-.009.133-.007.114-.006.106v.147l.006.027M618.216 952.787l-.04.06-.036.087-.038.106-.04.134-.034.14-.04.153-.032.167-.036.173-.024.173-.028.174-.026.18-.028.173-.024.173-.02.167-.022.167-.012.16-.014.153-.012.147-.009.133-.007.113-.006.107v.147l.006.026M616.674 952.703l-.04.06-.034.087-.04.106-.039.134-.035.14-.04.153-.032.167-.034.173-.026.173-.028.174-.025.18-.028.173-.025.173-.02.167-.022.167-.012.16-.013.153-.013.147-.008.133-.007.113-.007.107v.147l.007.026M506.13 891.503l.021-.26.039-.253.053-.24.067-.22.08-.207.101-.18.106-.167.12-.133.133-.113.141-.087.146-.06.146-.027h.154l.154.027.159.06.153.08.147.113.147.14.133.16.133.187.12.2.107.227.093.233.08.253.067.26.055.267.032.273.02.274.008.266-.022.267-.026.253-.047.247-.06.233-.08.214-.087.193-.106.173-.114.154-.125.12-.135.1-.145.073-.148.04-.153.013-.154-.013-.152-.04-.154-.073-.154-.1-.146-.127-.14-.147-.132-.173-.128-.2-.114-.213-.1-.227-.086-.247-.074-.253-.06-.267-.045-.266-.028-.274-.007-.266.007-.267M505.53 902.977l.021-.26.04-.247.052-.24.068-.22.086-.206.094-.18.112-.16.12-.14.127-.107.141-.087.146-.053.146-.027h.154l.154.027.16.06.146.087.153.113.147.14.133.16.127.187.12.206.106.22.1.24.08.254.068.26.047.266.039.274.021.266v.274l-.015.26-.032.26-.041.24-.067.233-.072.207-.094.193-.1.173-.12.154-.119.12-.141.1-.139.066-.148.04-.153.014-.152-.014-.154-.046-.154-.074-.154-.1-.145-.126-.141-.154-.132-.173-.12-.193-.115-.22-.105-.227-.088-.247-.072-.253-.06-.267-.042-.266-.026-.274-.014-.266.007-.267" style="fill:none;stroke:#9500ff;stroke-width:.999997;stroke-linecap:round;stroke-linejoin:round;stroke-miterlimit:4;stroke-dasharray:none;stroke-opacity:1;visibility:visible"/><path d="m489.636 889.083.113-.18.087-.187.053-.2.035-.213.005-.213-.026-.207-.054-.213-.078-.2-.102-.187-.133-.18-.147-.16-.166-.14-.187-.113-.2-.094-.207-.066-.213-.04-.213-.014-.212.014-.208.046-.2.067-.187.1-.167.12-.153.14" style="fill:none;stroke:#9500ff;stroke-width:.666665;stroke-linecap:round;stroke-linejoin:round;stroke-miterlimit:4;stroke-dasharray:none;stroke-opacity:1;visibility:visible"/><path d="m486.642 887.77.068-.073.067-.067.078-.06.082-.053.078-.054.095-.046.085-.034.1-.033.18-.04.188-.013.186.013.186.033.175.054.159.073.153.093.141.107.126.12.113.14.095.147.078.16.06.173.04.187.02.186-.006.18-.014.107-.018.1-.035.1-.033.093-.046.094-.046.093-.054.08-.066.087M486.383 888.537l-.135.107-.106.126-.092.14-.067.154-.047.166-.021.167v.173l.035.174.053.166.073.16.1.147" style="fill:none;stroke:#9500ff;stroke-width:.666665;stroke-linecap:round;stroke-linejoin:round;stroke-miterlimit:4;stroke-dasharray:none;stroke-opacity:1;visibility:visible"/><path d="m488.369 888.85.087.167.066.186.042.18.012.194-.012.186-.035.18-.06.18-.079.16M486.176 890.216l.085.12.102.113.113.1.127.087.126.067.127.053.127.04.12.027.1.006.1.007.193-.013.18-.04.173-.06.094-.047.086-.047.08-.06.074-.06.074-.06.052-.066.047-.054.033-.046M488.343 888.863l-.107-.14-.126-.127-.127-.1-.14-.086-.14-.067-.14-.047-.14-.033-.073-.013-.088-.007-.099-.007-.107.007-.106.013-.114.027-.126.047-.119.053-.108.073-.1.08M489.303 900.39l.113-.18.087-.187.053-.2.035-.213.005-.213-.026-.207-.054-.213-.078-.2-.102-.187-.133-.18-.147-.16-.166-.14-.187-.113-.2-.094-.207-.066-.213-.04-.213-.014-.212.014-.208.046-.2.067-.187.1-.167.12-.153.14" style="fill:none;stroke:#9500ff;stroke-width:.666665;stroke-linecap:round;stroke-linejoin:round;stroke-miterlimit:4;stroke-dasharray:none;stroke-opacity:1;visibility:visible"/><path d="m486.309 899.076.068-.073.067-.067.078-.06.082-.053.078-.054.095-.046.085-.034.1-.033.18-.04.188-.013.186.013.186.033.175.054.159.073.153.093.141.107.126.12.113.14.095.147.078.16.06.173.04.187.02.186-.006.18-.014.107-.018.1-.035.1-.033.093-.046.094-.046.093-.054.08-.066.087M486.05 899.843l-.135.107-.106.126-.092.14-.067.154-.047.166-.021.167v.173l.035.174.053.166.073.16.1.147" style="fill:none;stroke:#9500ff;stroke-width:.666665;stroke-linecap:round;stroke-linejoin:round;stroke-miterlimit:4;stroke-dasharray:none;stroke-opacity:1;visibility:visible"/><path d="m488.036 900.156.087.167.066.186.042.18.012.194-.012.186-.035.18-.06.18-.079.16M485.843 901.523l.085.12.102.113.113.1.127.087.126.067.127.053.127.04.12.027.1.006.1.007.193-.013.18-.04.173-.06.094-.047.086-.047.08-.06.074-.06.074-.06.052-.066.047-.054.033-.046M488.01 900.17l-.107-.14-.126-.127-.127-.1-.14-.086-.14-.067-.14-.047-.14-.033-.073-.013-.088-.007-.099-.007-.107.007-.106.013-.114.027-.126.047-.119.053-.108.073-.1.08" style="fill:none;stroke:#9500ff;stroke-width:.666665;stroke-linecap:round;stroke-linejoin:round;stroke-miterlimit:4;stroke-dasharray:none;stroke-opacity:1;visibility:visible"/><path d="m488.326 890.89 12.15 1.199M500.77 886.403l-.295 5.687M500.176 897.95l-14.89-1.49M500.176 897.95l-.307 5.987M499.817 885.137l-22.628-2.213M499.576 886.117l-22.907-2.247M500.416 886.283l-.139-.04-.154-.04-.174-.033-.185-.027-.188-.027M500.416 886.283l5.948 2.01M510.937 890.183l.047-.9M506.163 888.21l4.773 1.973M500.95 892.197l4.107 1.72M505.056 893.917l.187.087.178.12M505.422 894.123l1.207.88 1.213.88 1.22.893.533.394" style="fill:none;stroke:#9500ff;stroke-width:.999997;stroke-linecap:round;stroke-linejoin:round;stroke-miterlimit:4;stroke-dasharray:none;stroke-opacity:1;visibility:visible"/><path d="m509.595 897.17.121.067.12.1.114.113.106.147.094.16.085.18.073.193.06.2.04.213.028.214.014.22v.213l-.02.207-.034.193-.053.187-.06.166-.081.147-.086.12-.101.1-.107.08-.118.047-.12.02-.12-.007-.128-.033" style="fill:none;stroke:#9500ff;stroke-width:.999997;stroke-linecap:round;stroke-linejoin:round;stroke-miterlimit:4;stroke-dasharray:none;stroke-opacity:1;visibility:visible"/><path d="m509.422 900.417-.545-.067-1.255-.146-1.253-.154-1.247-.16M505.123 899.89l-.187-.033-.186-.067-4.099-1.74M509.983 908.183l-.047.9M509.983 908.183l-9.64-4.147M509.27 900.117h0M500.476 892.09l.093.013.095.02M500.663 892.123l.08.02.08.013M500.823 892.156l.067.02.06.02M500.65 898.05l-.06-.027-.068-.02M500.523 898.003l-.08-.02-.08-.013M500.362 897.97l-.092-.013-.095-.007M500.343 904.037l-.093-.033-.114-.027-.126-.027-.14-.013M512.683 889.757h.013M511.616 889.316h.013M499.817 885.137l.02-.013.012-.007M602.73 961.843l-.06.007-.053.006M604.13 958.363l.12.167.093.186.067.2.053.22.028.227v.233l-.028.247-.046.24-.074.24-.093.227-.113.226-.134.207-.146.193-.167.174-.18.146-.185.127-.195.107-.2.073-.2.04M603.57 949.023l-.053.007h-.054M604.956 945.516l.12.167.093.186.08.2.047.22.027.234.006.233-.026.247-.046.24-.068.24-.093.233-.112.227-.135.213-.153.193-.167.174-.173.153-.193.127-.194.1-.2.073-.2.047M610.776 935.05l-.033.28-.048.273-.066.26-.086.24-.1.214-.12.2-.134.173-.146.14-.154.12-.166.087-.18.053-.182.027-.178-.007-.187-.04-.188-.067-.185-.1-.174-.133-.173-.153-.167-.187-.153-.207-.14-.226-.127-.247-.108-.26-.098-.28-.074-.287-.06-.293-.041-.293-.019-.3v-.294l.019-.286.035-.274.06-.266.072-.247.094-.233.114-.207.125-.187.141-.153.147-.133.165-.1.168-.074.18-.04.18-.013.186.02.188.053.186.087.179.113.173.147.175.167.152.193.148.22.14.24.113.253.106.274.088.28.066.293.054.293.026.3.014.294-.007.293M603.756 944.143l.241-.02.232.013.227.04.22.067.208.1.192.127.181.146.159.18.141.2.119.22" style="fill:none;stroke:#9500ff;stroke-width:.999997;stroke-linecap:round;stroke-linejoin:round;stroke-miterlimit:4;stroke-dasharray:none;stroke-opacity:1;visibility:visible"/><path d="m603.75 949.763-.247.06-.24.04-.24.007-.233-.027-.227-.053-.213-.087-.207-.113-.186-.14-.167-.167-.153-.193-.134-.214-.106-.233-.087-.253-.06-.267-.039-.273-.014-.287.014-.293.039-.3.06-.294.087-.293.113-.287.127-.273.153-.267.173-.246.188-.227.199-.213.22-.187.227-.16.233-.14.241-.107.239-.08.247-.053M604.016 957.703l-.193-.067-.2-.04-.214-.013-.213.02M602.916 956.983l.241-.02.239.007.227.04.22.073.213.1.193.127.182.153.16.18.138.2.12.22M602.883 962.59l-.248.06-.252.033-.248.007-.232-.033-.233-.06-.214-.1-.208-.12-.185-.154-.167-.18-.148-.206-.125-.227-.101-.247-.079-.26-.053-.28-.022-.293v-.293l.028-.307.054-.3.078-.3.107-.3.128-.287.152-.273.167-.26.194-.24.207-.22.212-.2.233-.167.242-.146.245-.114.248-.086.252-.054M605.396 940.716l-.028-.013-.025-.014M597.523 948.917l.135.087.145.053.16.033.167-.006.166-.034.167-.066.16-.094.153-.12.14-.146.12-.167.107-.18.08-.193.06-.2.035-.207.012-.2-.02-.193-.047-.18-.067-.167-.086-.147-.114-.126-.126-.094-.147-.066-.153-.04M596.683 961.763l.135.087.145.06.16.026h.167l.166-.033.167-.067.16-.093.153-.12.14-.14.12-.167.107-.18.087-.193.06-.2.034-.2.012-.2-.02-.193-.04-.187-.066-.167-.087-.146-.107-.12-.132-.1-.141-.067-.153-.04" style="fill:none;stroke:#9500ff;stroke-width:.999997;stroke-linecap:round;stroke-linejoin:round;stroke-miterlimit:4;stroke-dasharray:none;stroke-opacity:1;visibility:visible"/><path d="m604.576 949.87.227-.053.226-.08.228-.114.212-.14.207-.16.193-.193.18-.213.162-.234.138-.246.12-.267.094-.267.073-.273.04-.28.02-.273-.007-.274-.032-.26-.061-.246-.087-.234-.113-.213-.133-.187-.154-.166-.172-.14-.188-.107-.2-.08-.213-.047-.22-.013-.227.013-.232.047-.226.087-.228.106-.212.14-.208.167-.192.193-.182.214-.16.233-.14.247-.118.26-.095.273-.072.273-.041.28-.019.274.007.273.032.26.066.247.087.233.107.213.133.187.153.167.174.14.188.106.205.08.213.047.22.013.227-.013M603.736 962.703l.227-.053.226-.08.227-.114.213-.14.207-.166.193-.194.18-.213.16-.233.14-.247.12-.26.094-.267.066-.28.047-.273.02-.273-.013-.274-.034-.26-.06-.246-.086-.227-.107-.213-.133-.187-.154-.167-.172-.133-.188-.107-.2-.08-.213-.046-.227-.014-.226.02-.226.047-.226.08-.228.113-.212.14-.208.167-.194.193-.18.214-.16.233-.14.247-.118.26-.095.273-.067.273-.046.28-.019.274.012.266.033.26.06.247.087.233.113.214.127.186.153.16.174.14.193.107.2.08.213.04.22.013.227-.013M598.823 943.083l-.361-.153M605.99 928.197l-1.493-.613M611.823 962.21l.453-6.76-5.946.887" style="fill:none;stroke:#9500ff;stroke-width:.999997;stroke-linecap:round;stroke-linejoin:round;stroke-miterlimit:4;stroke-dasharray:none;stroke-opacity:1;visibility:visible"/><path d="m606.33 956.337-1.248-.073-1.153-.074-1.06-.066-1.046-.074-1.128-.08-1.258-.093M599.437 955.876h-.2l-.187-.033-.188-.06-.166-.094-.152-.113-.135-.147-.119-.166-.094-.187-.072-.207-.048-.226-.019-.234v-.24l.025-.24.054-.246.081-.24.1-.234.12-.22.139-.206.161-.187.172-.167.18-.14.195-.12.2-.086.2-.06M599.683 952.023l1.287-.467 1.186-.433 1.094-.387 1.08-.386 1.154-.407 1.292-.453 5.954-.874.446-6.78" style="fill:none;stroke:#9500ff;stroke-width:.999997;stroke-linecap:round;stroke-linejoin:round;stroke-miterlimit:4;stroke-dasharray:none;stroke-opacity:1;visibility:visible"/><path d="m613.176 941.837-.893.12-.894.1-.886.093-.894.08-1.786.134-1.787.12-1.793.12-1.794.133-.893.08-.9.093-.907.107-.9.12M613.07 955.236h0M616.563 952.763l.333-4.98-3.053 6.993M615.29 946.156l-3.1 7.013M615.283 945.95l.02.073v.074l-.013.06M617.796 934.383l-3.047 6.8M613.976 941.663h0M613.663 941.75h0M612.756 955.35h0M611.817 953.397l-.14.06-.155.04-.166.033-5.934.88M614.763 932.956l.099.06.081.06.047.06.02.06-.014.06-3.12 6.86M611.877 940.117l-.047.053-.066.054-.1.046-.128.047-.146.033-9.06 1.807M599.19 952.943h0M605.422 954.41v-.007h-.007" style="fill:none;stroke:#9500ff;stroke-width:.999997;stroke-linecap:round;stroke-linejoin:round;stroke-miterlimit:4;stroke-dasharray:none;stroke-opacity:1;visibility:visible"/><path d="m605.416 954.403-3.145.04-1.588.02-1.594.013M599.089 954.477h0v.007M599.089 954.483h-.105l-.107-.02-.1-.04-.088-.067-.072-.08-.055-.106M599.082 952.97l.053-.013.054-.014M614.836 933.61l-.053-.033-.06-.034-5.298-2.668M613.71 941.736h0M613.85 941.703h0M612.03 953.31l-.027.013-.033.014-.025.013-.042.013-.04.02-.045.014M606.11 941.403l-.267-.187M605.843 941.216l-.133-.073-.127-.1-.127-.12-.12-.147-.106-.16M604.916 938.57l.053-.193.082-.18.092-.16.106-.14.12-.107.128-.08.139-.047.147-.02.146.014.147.04M606.076 937.697l.653.093 1.5.214 1.5.22 1.507.22M611.236 938.443l.227.047.226.08.747.313M605.476 929.236l.068-.973M605.476 929.236l4.181 1.727M615.976 946.096l-.092-.047-.113-.053-.142-.06-.153-.073-.152-.06M615.276 945.917v.02h.007v.013M616.097 946.216l-.061-.073-.06-.047M614.75 941.183l-.06.093-.085.087-.12.087-.154.08-.18.08-.206.066-.234.06-.254.054-.28.046M612.73 948.617l.233-.033.227-.04.207-.034.186-.04.167-.033M613.75 948.436l.04-.013.035-.02M613.823 948.403l.139-.093.12-.094.094-.086.072-.087.047-.087M613.843 954.777l-.047.08-.073.073-.093.067-.114.053-.14.04M613.377 955.09l-.033.013-.042.02M613.303 955.123l-.173.087-.187.08-.207.066-.226.054-.234.04M616.924 947.67l-.008.06-.02.053M617.73 934.01h0M617.823 934.277l-.007.053-.021.054" style="fill:none;stroke:#9500ff;stroke-width:.999997;stroke-linecap:round;stroke-linejoin:round;stroke-miterlimit:4;stroke-dasharray:none;stroke-opacity:1;visibility:visible"/><path d="m616.142 946.17-.08-.04-.087-.033M615.476 945.863l.033.013.035.014M616.663 946.663l-.081-.113-.099-.107-.121-.093-.126-.074-.14-.06M614.202 948.337l.047-.12.034-.133.012-.127M615.19 946.103l.053.027.047.026M615.262 945.943h.015l.006.007M605.836 941.063l.007.153M613.336 961.777l.04-.12.013-.127M597.41 965.176h.007l.006-.013.008-.014M595.403 965.456l.007.013.006.007v.007M598.823 943.083l.013.013.014.02v.02M605.99 928.197h.007l.006.007M605.343 940.69l-.12-.08-.113-.093-.1-.1-.094-.114-.08-.126-.066-.127-.054-.147-.04-.146-.026-.154-.014-.153.007-.16.02-.153.04-.154.053-.146.074-.14.08-.114.086-.113M603.763 949.77l-.855-.367M605.69 945.223l-.853-.367M602.903 962.596l-.847-.373M604.869 958.076l-.853-.373M604.997 938.47l.233-.247M605.343 940.69l.067.04M616.924 947.656v.013M614.202 948.337l1.128-2.54M599.13 952.943l-.032.02-.048.027-.04.033-.073.06-.067.067-.067.08-.06.093-.053.1-.047.107-.04.106-.026.114-.02.106-.007.1v.094l.007.08.006.053.014.047" style="fill:none;stroke:#9500ff;stroke-width:.999997;stroke-linecap:round;stroke-linejoin:round;stroke-miterlimit:4;stroke-dasharray:none;stroke-opacity:1;visibility:visible"/><path d="m606.236 941.376-.06-.047-.84-.653M617.823 934.263v.013M720.33 667.796l-.167-.027-.194-.026-.206-.02-.228-.027-.233-.02-.239-.013-.24-.014-.233-.006-.233-.007h-.42l-.182.007-.16.006-.132.014-.106.02-.08.02-.04.02-.014.026.02.027.054.027.086.026.114.034.145.026M720.33 667.796l-.028.127-.019.12M717.642 667.89h0M496.77 799.016l12.532-166.6M509.303 632.417h-.259l-.148-.007-.14-.006-.14-.007-.132-.013-.114-.014-.094-.013M626.103 870.93l-116.961-41.8M706.003 667.163l-.093-.02-.074-.02-.04-.02-.013-.013M711.33 668.103l-5.327-.94M521.57 632.117l-12.267.3M509.142 829.13l-.527-.207-.526-.233-.514-.26-.506-.287-.507-.313-.493-.347-.487-.366-.472-.4-.468-.42-.46-.447-.447-.473-.44-.494-.426-.52-.414-.546-.405-.567-.387-.587-.381-.613-.367-.633-.353-.647-.339-.673-.328-.694-.313-.713-.293-.727-.286-.74-.268-.766-.252-.774-.234-.793-.227-.807-.205-.82-.188-.826-.174-.847-.16-.853-.138-.867-.128-.873-.106-.88-.093-.894-.075-.893-.06-.9-.038-.913-.022-.907-.006-.92.006-.913.028-.92.047-.92.06-.92M630.136 871.757l-.58-.047-.587-.066-.58-.094-.58-.12-.573-.14-.567-.166-.565-.194M656.43 853.776l-.333 1.08-.355 1.067-.365 1.053-.387 1.04-.408 1.02-.425 1.007-.44.986-.46.974-.474.953-.493.927-.513.913-.52.893-.54.867-.554.847-.573.826-.58.8-.601.775-.607.752-.62.727-.632.7-.648.673-.653.648-.667.619-.673.586-.686.567-.694.533-.699.5-.707.48-.714.44-.727.42-.725.38-.727.354-.74.326-.741.295-.746.259-.746.226-.747.2-.755.167-.752.133-.754.1-.746.074-.754.04-.752.006-.748-.02M508.276 632.356l-3.78-.667M512.422 631.656l.107-.013.081-.014.053-.013.026-.02v-.013l-.026-.02-.06-.02-.081-.02-.107-.02M521.877 632.076l-.015.013-.038.007-.06.013-.087.007h-.107M521.543 830.03l-.068-.02-.06-.007M630.136 871.757l.528.02h.519l.528-.02.525-.04.528-.06.532-.08.528-.107.525-.12.528-.14.526-.16.526-.186.427-.167" style="fill:none;stroke:#9500ff;stroke-width:.999997;stroke-linecap:round;stroke-linejoin:round;stroke-miterlimit:4;stroke-dasharray:none;stroke-opacity:1;visibility:visible"/><path d="m512.422 631.656-.007-.08v-.073" style="fill:none;stroke:#9500ff;stroke-width:.999997;stroke-linecap:round;stroke-linejoin:round;stroke-miterlimit:4;stroke-dasharray:none;stroke-opacity:1;visibility:visible"/><path d="m512.416 631.503-.127-.02-.153-.02-.16-.02-.18-.013-.185-.014-.195-.013-.199-.007-.201-.006-.192-.007h-.528l-.139.007-.128.013-.1.007-.08.02-.046.013-.026.013v.02l.032.02.054.02.081.02.107.02M504.497 631.69l-3.753-.66M504.497 631.69l-18.961 252.026M500.743 631.03l-.06-.013-.04-.014-.02-.006-.013-.014M711.929 668.203l-.099-.02-.074-.02-.039-.013-.015-.02M629.003 966.71l88.3-297.56-5.375-.946M732.61 668.63l-15.307.52M720.29 668.043l.147-.007.12-.013.094-.02.066-.02.033-.02.007-.027-.027-.026-.053-.027-.086-.027-.114-.026-.14-.034M620.676 956.73l.187-.02.186-.033.174-.054.166-.08.16-.1.147-.113.133-.133.12-.147.1-.167M624.336 944.303l.173-.027.167-.053.167-.073.153-.087.14-.1M488.763 905.203l.073-.953M487.817 904.143l-.075.953M490.343 884.19l1.547-20.507M636.176 922.337l.267-.953.253-.96.228-.974.212-.986.187-.994.173-1 .147-1.006.126-1.014.107-1.02.087-1.026.066-1.027.04-1.027.02-1.026.007-1.034-.02-1.026-.047-1.02-.06-1.027-.086-1.013-.1-1.014-.127-1.006-.147-.994-.166-.993-.194-.973-.206-.974-.227-.953-.247-.947-.266-.926-.287-.914-.307-.9-.32-.886-.346-.867-.36-.847-.374-.833-.393-.807-.413-.786-.427-.767-.44-.747-.46-.72-.473-.7-.487-.673-.5-.653-.513-.62-.527-.6-.54-.567-.553-.547-.559-.513-.568-.487-.587-.46-.586-.426-.6-.4-.607-.374-.62-.34-.62-.306-.627-.28M636.176 922.337l.34.013M507.702 836.363l-.472-.113-.475-.087-.478-.073-.482-.04M491.89 863.683l.067-.793.086-.787.099-.78.12-.78.135-.767.153-.766.167-.754.18-.753.2-.733.212-.727.226-.713.248-.7.252-.687.274-.673.286-.654.302-.64.313-.62.325-.606.342-.587.346-.56.36-.547.374-.52.38-.5.393-.48.4-.453.405-.427.422-.406.426-.38.434-.347.44-.333.445-.3.448-.267.46-.247.46-.22.459-.186.468-.16.473-.134.467-.1.473-.073.473-.04.474-.013.466.013M507.877 843.93l-.341-.12-.34-.1-.34-.08-.34-.067-.346-.046-.346-.034" style="fill:none;stroke:#9500ff;stroke-width:.999997;stroke-linecap:round;stroke-linejoin:round;stroke-miterlimit:4;stroke-dasharray:none;stroke-opacity:1;visibility:visible"/><path d="m507.877 843.93 5.067 1.88" style="fill:none;stroke:#9500ff;stroke-width:1.99999;stroke-linecap:round;stroke-linejoin:round;stroke-miterlimit:4;stroke-dasharray:none;stroke-opacity:1;visibility:visible"/><path d="m618.65 929.263-.267-.027-.273-.026-.273-.014" style="fill:none;stroke:#9500ff;stroke-width:.999997;stroke-linecap:round;stroke-linejoin:round;stroke-miterlimit:4;stroke-dasharray:none;stroke-opacity:1;visibility:visible"/><path d="m616.443 927.69-.233.033-.214.047-.188.053-.158.06-.127.067-.101.073-.072.074-.034.08-.008.086.028.087.067.087.087.08.126.086.154.087.18.08.206.08.234.073.246.067.274.06.28.053.3.054.306.04.314.026.312.027.308.013.313.007.293-.007.294-.006.273-.027.253-.027.234-.04.213-.046.187-.054.16-.06.132-.066.101-.074.065-.073.035-.08.007-.087-.034-.08-.061-.086-.092-.087-.128-.087-.152-.086-.181-.08-.206-.074-.234-.073-.246-.067-.273-.066-.28-.054-.3-.046-.307-.04-.306-.034-.314-.02-.314-.013-.306-.007h-.294l-.287.014-.273.02-.259.033M505.73 882.516l-.22.033-.207.034-.186.046-.154.047-.14.053-.106.06-.08.06-.054.067-.02.067.007.066.033.074.067.073.093.067.12.066.147.067.172.067.195.06.213.053.233.053.254.047.26.04.266.033.28.027.28.02.287.013.28.007h.273l.267-.013.253-.014.24-.026.227-.027.2-.04.187-.04.16-.053.133-.054.107-.053.08-.067.052-.06.021-.073-.007-.067-.04-.073-.066-.067-.094-.073-.12-.067-.146-.066-.174-.06-.193-.06-.22-.06-.227-.047-.253-.047-.26-.04-.267-.033-.28-.027-.28-.02-.28-.013-.28-.007h-.273l-.267.007-.253.02-.24.02M492.862 878.856l134.326 55M605.55 931.31l.1.127.067.113.066.12.06.127.06.133.047.133.04.14.032.147.028.147.02.146.007.14.005.147-.005.147-.007.14-.02.133-.028.133-.032.127-.04.127-.007.006M612.03 939.73l-.02.007-.012.006-.041.04-.027.067-.039.08-.034.113-.02.067-.027.08M610.247 939.055l-.032.053-.035.074-.032.086-.034.107-.034.107-.026.12-.034.126-.025.134-.035.153-.025.167-.035.18-.025.193M612.03 939.73h.021M511.63 909.576l-.427.053-1.266-.546M499.437 905.403l-.14-.047-.155-.04-.173-.033-.179-.027-.194-.026-22.847-2.307M499.437 905.403l10.5 3.68M512.73 889.796l.56 1.3-.933 17.667-.674.78M512.696 889.757l.015.007.013.013.005.02M511.683 909.543l-.007.013-.013.007-.02.007-.013.006M511.63 889.316l1.067.44M501.956 885.576l.713.287.727.286.74.287.74.287.753.286.76.28.754.287.76.287.76.286.753.287.747.293.74.294.726.293M499.85 885.117l.213.027.207.026.2.027.2.033.187.034.193.04.187.04.173.046.173.054.16.046.107.04.107.047M597.157 947.93v.2l.027.193.046.174.079.16.095.14.118.12M598.57 946.463l-.16-.007-.16.02-.167.054-.158.08-.148.106-.147.127-.127.153-.113.167-.093.18-.067.193-.053.194-.02.2M596.323 960.79v.193l.027.194.053.173.072.16.095.133.113.12M597.75 959.323l-.159-.007-.168.02-.16.054-.158.08-.155.1-.14.133-.133.147-.114.173-.093.18-.067.193-.053.194-.025.2M596.47 943.216l1.993-.287M604.497 927.583l-.453.06M595.41 965.477l-.36-.16M594.123 964.27l1.267-19.7 1.08-1.353M595.05 965.316l-.927-1.047M602.33 942.156l.887-13.653M602.33 942.156l-3.867.773M604.043 927.643l-.827.86M616.663 946.663h0M595.416 965.483h-.007v-.007M604.503 927.583h0-.007M617.823 934.27l-.387 5.807M615.543 945.89l-.213-.093M615.543 945.89l.127.053.12.054.106.046.1.054.092.046.054.027M616.142 946.17l.128.073.107.087.106.093.067.08.06.08.053.08M616.663 946.663l.08.147.065.146.054.16.034.134.019.133.013.14-.005.133M615.33 945.796l1.127-2.56M615.95 955.703l-2.613 6.073M613.336 961.777l-.053.107-.06.093-.074.093-.073.08-.12.114-.133.093-.14.08-.174.087-.193.08-.2.06-.213.06-.22.046-.24.04" style="fill:none;stroke:#9500ff;stroke-width:.999997;stroke-linecap:round;stroke-linejoin:round;stroke-miterlimit:4;stroke-dasharray:none;stroke-opacity:1;visibility:visible"/><path d="m611.443 962.81-1.181.187-1.174.186-1.165.2-1.16.2-1.153.2-1.16.207-1.16.207-1.16.2-1.167.206-1.173.194-1.187.193-1.193.187-1.995.306M616.595 932.837l.2.087.18.093.175.1.158.12.148.127.1.113.086.127.081.14.047.12.032.133.021.14v.127M606.003 928.203l-1.5-.62M606.003 928.203l.9.373.887.38.88.387.873.387.873.386.867.394.873.393.867.387.88.393.887.387.9.386.905.38M705.783 667.09l.02-.02.04-.007.067-.013.08-.007.106-.006" style="fill:none;stroke:#9500ff;stroke-width:.999997;stroke-linecap:round;stroke-linejoin:round;stroke-miterlimit:4;stroke-dasharray:none;stroke-opacity:1;visibility:visible"/><path d="m726.595 667.59-5.353-.933M719.976 666.576h.301l.172.007.174.006.173.014.167.02.148.013.132.02M706.097 667.037l13.879-.46" style="fill:none;stroke:#9500ff;stroke-width:1.99999;stroke-linecap:round;stroke-linejoin:round;stroke-miterlimit:4;stroke-dasharray:none;stroke-opacity:1;visibility:visible"/><path d="M512.422 631.656v-.08l-.007-.073M726.595 667.59l-.005.04" style="fill:none;stroke:#9500ff;stroke-width:.999997;stroke-linecap:round;stroke-linejoin:round;stroke-miterlimit:4;stroke-dasharray:none;stroke-opacity:1;visibility:visible"/><path d="m648.983 880.21-.688.153-.685.134-.687.106-.688.087-.685.053-.695.027h-.679l-.686-.02" style="fill:none;stroke:#9500ff;stroke-width:1.99999;stroke-linecap:round;stroke-linejoin:round;stroke-miterlimit:4;stroke-dasharray:none;stroke-opacity:1;visibility:visible"/><path d="m629.25 879.99-.759-.06-.754-.087-.752-.126-.748-.154-.739-.186-.733-.214-.735-.253-116.712-42.567" style="fill:none;stroke:#9500ff;stroke-width:.999997;stroke-linecap:round;stroke-linejoin:round;stroke-miterlimit:4;stroke-dasharray:none;stroke-opacity:1;visibility:visible"/><path d="m507.317 836.343-.581-.227-.579-.253-.567-.28-.568-.313-.553-.334-.545-.36-.547-.386-.533-.414-.52-.44-.515-.466-.507-.487-.5-.513-.478-.54-.48-.56-.46-.58-.455-.607-.445-.633-.427-.647-.421-.667-.406-.693-.393-.713-.381-.727-.367-.753-.353-.767-.334-.78-.326-.807-.312-.82-.302-.833-.28-.847-.266-.866-.252-.874-.242-.893-.22-.907-.205-.913-.195-.927-.173-.94-.16-.946-.145-.96-.128-.96-.114-.974-.092-.98-.081-.986-.06-.994-.047-1-.032-1-.014-1.006v-1.007l.021-1.007.04-1.013.045-1.013.075-1.007M521.743 632.03l-3.805-.66" style="fill:none;stroke:#9500ff;stroke-width:1.99999;stroke-linecap:round;stroke-linejoin:round;stroke-miterlimit:4;stroke-dasharray:none;stroke-opacity:1;visibility:visible"/><path d="m510.05 631.557.127.02.146.02.167.013.173.02.187.014.193.006.2.014.194.006.193.007h.367l.16-.007.14-.006.125-.007M521.743 632.03l.06.013.04.007.027.013.008.014" style="fill:none;stroke:#9500ff;stroke-width:.999997;stroke-linecap:round;stroke-linejoin:round;stroke-miterlimit:4;stroke-dasharray:none;stroke-opacity:1;visibility:visible"/><path d="m705.783 667.09-54.147 183.733M629.25 879.99l14.241.76M521.543 830.03l114.812 40.673M509.243 800.057l-.053.713-.032.72-.035.72-.013.714-.006.72v.713l.012.72.027.707.033.713.047.707.053.7.067.693.073.693.087.68.093.674.107.673.115.667.125.66.133.653.14.647.154.64.166.626.175.627.179.613.193.6.2.594.208.586.22.574.219.566.24.554.24.546.253.534.261.52.266.513.28.493.28.487.294.473.292.454.307.446.307.427.321.413.32.407.333.387.334.373.338.36.347.347.353.326.362.314.358.3.367.28.373.266.374.247.393.247.393.22.402.206.405.194.407.173.414.153M521.877 632.076l-12.635 167.98M636.356 870.697l.093-.033.52-.22.515-.24.507-.26.505-.274.507-.3.5-.313.493-.34.495-.353.493-.374.479-.386.48-.414.473-.426.461-.447.459-.46.447-.473.44-.487.44-.507.426-.52.42-.54.415-.553.4-.573.399-.58.386-.6.382-.614.365-.626.361-.634.346-.653.326-.64.322-.66.312-.667.301-.68.292-.693.28-.7.273-.713.26-.714.247-.726.233-.734.227-.746M513.142 630.656l.12-.007.14.007h.141l.139.007.141.013.126.007.113.013.095.013M500.924 630.943l12.219-.287M514.157 630.71l3.772.66" style="fill:none;stroke:#9500ff;stroke-width:1.99999;stroke-linecap:round;stroke-linejoin:round;stroke-miterlimit:4;stroke-dasharray:none;stroke-opacity:1;visibility:visible"/><path d="m502.717 833.663-.207 2.693M500.61 630.983l.02-.013.04-.007.06-.013.093-.007h.1" style="fill:none;stroke:#9500ff;stroke-width:.999997;stroke-linecap:round;stroke-linejoin:round;stroke-miterlimit:4;stroke-dasharray:none;stroke-opacity:1;visibility:visible"/><path d="m500.61 630.983-18.98 252.353" style="fill:none;stroke:#9500ff;stroke-width:1.99999;stroke-linecap:round;stroke-linejoin:round;stroke-miterlimit:4;stroke-dasharray:none;stroke-opacity:1;visibility:visible"/><path d="M624.07 964.45v.047l.033.046.06.047.08.04M711.702 668.13l.021-.013.04-.014.067-.013.079-.007.106-.006M720.336 667.796l-.028.127-.019.12" style="fill:none;stroke:#9500ff;stroke-width:.999997;stroke-linecap:round;stroke-linejoin:round;stroke-miterlimit:4;stroke-dasharray:none;stroke-opacity:1;visibility:visible"/><path d="m624.243 964.63 4.76 2.08 15.033-2.173L732.61 668.63M727.202 667.697l5.408.933" style="fill:none;stroke:#9500ff;stroke-width:1.99999;stroke-linecap:round;stroke-linejoin:round;stroke-miterlimit:4;stroke-dasharray:none;stroke-opacity:1;visibility:visible"/><path d="m717.65 667.89.173.027.192.026.22.027.227.027.248.013.245.02.247.013.248.007.232.007h.22l.208-.007.179-.007M725.929 667.61h.301l.172.007.18.013.174.008.168.019.145.02.133.02M656.77 853.874l54.932-185.744" style="fill:none;stroke:#9500ff;stroke-width:.999997;stroke-linecap:round;stroke-linejoin:round;stroke-miterlimit:4;stroke-dasharray:none;stroke-opacity:1;visibility:visible"/><path d="m636.776 921.481 19.993-67.608" style="fill:none;stroke:#9500ff;stroke-width:1.99999;stroke-linecap:round;stroke-linejoin:round;stroke-miterlimit:4;stroke-dasharray:none;stroke-opacity:1;visibility:visible"/><path d="m624.07 964.45 12.707-42.97M622.05 955.883l.085-.18.067-.187.047-.193.034-.207.007-.206-.013-.207-.034-.213-.054-.2-.066-.207-.094-.193-.106-.18-.121-.174-.139-.16M621.663 953.376l-.053-.06-.04-.06-.027-.053-.015-.054-.005-.046.005-.047M625.136 943.963l.135-.127.125-.14.107-.153.093-.167.073-.18.054-.186.041-.194.019-.2v-.2l-.019-.2-.035-.206-.053-.194-.072-.193-.095-.187-.106-.173-.12-.167M487.743 905.096l.093.033.114.034.126.02.14.02.14.013h.147l.133-.007.128-.006" style="fill:none;stroke:#9500ff;stroke-width:.999997;stroke-linecap:round;stroke-linejoin:round;stroke-miterlimit:4;stroke-dasharray:none;stroke-opacity:1;visibility:visible"/><path d="M618.843 962.176v.04l.033.047.06.046.08.04" style="fill:none;stroke:#9500ff;stroke-width:1.99999;stroke-linecap:round;stroke-linejoin:round;stroke-miterlimit:4;stroke-dasharray:none;stroke-opacity:1;visibility:visible"/><path d="m488.763 905.203 4.127-.547" style="fill:none;stroke:#9500ff;stroke-width:.999997;stroke-linecap:round;stroke-linejoin:round;stroke-miterlimit:4;stroke-dasharray:none;stroke-opacity:1;visibility:visible"/><path d="m624.097 964.356-.361.053-4.72-2.06M505.796 836.05l-.539-.027-.541.007-.547.04-.54.067-.546.093-.539.12-.541.153-.534.18-.533.207-.533.24-.526.26-.521.293-.52.32-.512.347-.507.367-.5.4-.488.426-.486.447-.48.473-.467.5-.46.52-.452.547-.44.567-.435.586-.42.607-.406.633-.4.654-.387.666-.38.694-.359.706-.354.727-.334.74-.326.76-.307.773-.3.787-.28.8-.267.813-.253.827-.24.84-.219.847-.208.86-.193.866-.18.874-.16.886-.14.887-.127.893-.112.9-.1.9" style="fill:none;stroke:#9500ff;stroke-width:1.99999;stroke-linecap:round;stroke-linejoin:round;stroke-miterlimit:4;stroke-dasharray:none;stroke-opacity:1;visibility:visible"/><path d="m487.743 905.096-2.873-1.253" style="fill:none;stroke:#9500ff;stroke-width:.999997;stroke-linecap:round;stroke-linejoin:round;stroke-miterlimit:4;stroke-dasharray:none;stroke-opacity:1;visibility:visible"/><path d="m646.756 887.73-.447-.7-.466-.673-.474-.654-.492-.626-.508-.607-.513-.58-.525-.553-.542-.534-.546-.5-.56-.48-.566-.446-.581-.42-.58-.4M631.523 919.137l-6.36 21.587" style="fill:none;stroke:#9500ff;stroke-width:1.99999;stroke-linecap:round;stroke-linejoin:round;stroke-miterlimit:4;stroke-dasharray:none;stroke-opacity:1;visibility:visible"/><path d="m624.103 944.316-2.575 8.74" style="fill:none;stroke:#9500ff;stroke-width:.999997;stroke-linecap:round;stroke-linejoin:round;stroke-miterlimit:4;stroke-dasharray:none;stroke-opacity:1;visibility:visible"/><path d="m620.463 956.683-1.62 5.493" style="fill:none;stroke:#9500ff;stroke-width:1.99999;stroke-linecap:round;stroke-linejoin:round;stroke-miterlimit:4;stroke-dasharray:none;stroke-opacity:1;visibility:visible"/><path d="m505.796 836.05.927.06" style="fill:none;stroke:#9500ff;stroke-width:.999997;stroke-linecap:round;stroke-linejoin:round;stroke-miterlimit:4;stroke-dasharray:none;stroke-opacity:1;visibility:visible"/><path d="m512.943 845.81 108.592 40.347M631.523 919.137l.173-.607.16-.613.154-.62.141-.627.132-.626.12-.64.107-.64.094-.647.086-.653.074-.647.06-.653.054-.654.038-.7.027-.706.02-.707v-.707l-.013-.706-.02-.707-.04-.7-.054-.7-.06-.7-.08-.687-.086-.686-.107-.68-.113-.68-.132-.674-.142-.666-.153-.654-.167-.653-.18-.64-.193-.633-.2-.62-.213-.614-.227-.6-.232-.586-.248-.574-.259-.566-.268-.554-.28-.533-.285-.527-.301-.513-.306-.5-.314-.48-.327-.46-.333-.453-.334-.427-.346-.42-.359-.4-.361-.38-.367-.367-.379-.346-.38-.334-.386-.313-.388-.293-.392-.274-.402-.253-.393-.233-.4-.214-.4-.2-.4-.173-.407-.16M504.39 864.383l-1.173 15.527M512.943 845.81l-.033.02-.328.233-.32.24-.319.26-.32.274-.307.293-.313.3-.301.32-.299.327-.3.346-.3.367-.293.387-.294.4-.288.42-.272.426-.273.44-.267.454-.254.466-.252.474-.242.486-.232.5-.226.5-.215.52-.205.52-.2.54-.194.54-.186.554-.174.56-.16.566-.154.574-.146.573-.134.587-.119.553-.113.56-.102.56-.092.567-.08.566-.08.574-.066.573-.054.58-.046.573" style="fill:none;stroke:#9500ff;stroke-width:1.99999;stroke-linecap:round;stroke-linejoin:round;stroke-miterlimit:4;stroke-dasharray:none;stroke-opacity:1;visibility:visible"/><path d="m492.862 878.856.213 5.6M498.843 878.13l-5.98.727" style="fill:none;stroke:#9500ff;stroke-width:.999997;stroke-linecap:round;stroke-linejoin:round;stroke-miterlimit:4;stroke-dasharray:none;stroke-opacity:1;visibility:visible"/><path d="m494.283 904.796 100.853 43.687M615.296 957.216l4.44 1.927M498.843 878.13l129.28 52.553" style="fill:none;stroke:#9500ff;stroke-width:1.99999;stroke-linecap:round;stroke-linejoin:round;stroke-miterlimit:4;stroke-dasharray:none;stroke-opacity:1;visibility:visible"/><path d="m604.616 930.856.12-.007.127.014.12.026.113.047.12.067.107.08.113.1.113.12v.006M605.943 933.743l-.04.107-.06.106-.06.1-.067.094-.074.08-.086.073-.086.06-.094.053-.106.04-.107.02M604.963 934.503l.2-.027M604.963 934.503l-.127.013-.125-.006-.128-.027-.12-.04-.113-.053-.114-.067-.12-.087-.106-.106-.107-.114-.107-.146-.093-.16-.08-.167-.06-.133-.047-.14-.04-.147-.033-.147-.02-.146-.02-.147-.007-.147v-.146l.007-.14.02-.14.027-.14.026-.127.047-.133.047-.12.06-.12.066-.107.074-.1.086-.093.094-.08.1-.074.113-.06.12-.04.127-.033.206-.027M611.896 939.436h.007l.013.007.008.013.012.007.007.013.013.02M608.456 940.936l.007-.127.013-.126.013-.114.007-.113.027-.193.02-.174.02-.153.02-.147.026-.14.02-.12.027-.12.02-.093.013-.04.007-.033.007-.027.006-.02M608.803 939.11h-.027M611.956 939.496l.028.06.019.06.026.053.027.047M510.855 895.217l.2-.02M510.855 895.217l-.107.006-.107-.006-.106-.027-.099-.033-.101-.054-.095-.053-.099-.087-.091-.093-.089-.1-.066-.1-.067-.107-.058-.113-.049-.12-.046-.12-.047-.133-.033-.134-.027-.133-.018-.133-.015-.14v-.267l.008-.127.012-.126.02-.127.028-.12.037-.12.041-.113.047-.107.06-.1.067-.093.073-.087.08-.073.095-.067.106-.06.114-.04.117-.027.195-.02M511.755 894.477l-.015.04-.039.106-.045.1-.053.087-.06.087-.068.073-.075.067-.07.06-.089.046-.091.034-.094.02" style="fill:none;stroke:#9500ff;stroke-width:.999997;stroke-linecap:round;stroke-linejoin:round;stroke-miterlimit:4;stroke-dasharray:none;stroke-opacity:1;visibility:visible"/><path d="m510.635 891.863.105-.006.101.013.107.027.102.046.091.06.094.074.094.093.092.113.009.007M511.43 892.29l.08.113.057.107.056.113.053.114.047.126.032.127.034.127.027.133.027.133.012.134.005.133v.26l-.012.133-.012.127-.028.12-.025.113-.028.074M510.216 906.725l.2-.02M510.216 906.725l-.106.005-.107-.005-.107-.027-.099-.033-.1-.055-.095-.052-.099-.088-.093-.092-.087-.1-.067-.1-.066-.108-.059-.112-.048-.12-.047-.12-.046-.133-.034-.135-.026-.132-.019-.133-.015-.14v-.267l.008-.128.012-.125.02-.127.028-.12.039-.12.04-.113.046-.107.061-.1.066-.093.074-.087.08-.073.094-.067.107-.06.113-.04.119-.028.193-.019M511.116 905.985l-.013.04-.04.105-.046.101-.053.087-.06.087-.068.073-.073.067-.073.06-.087.045-.093.035-.093.02M509.996 903.371l.107-.006.1.013.106.027.102.045.092.061.093.074.095.093.092.112.007.008M510.79 903.798l.08.112.06.108.053.112.054.115.047.125.032.128.035.127.026.133.027.132.012.135.007.133v.26l-.014.132-.012.128-.027.12-.026.112-.028.075M510.07 893.273l.314.249-.147.5" style="fill:none;stroke:#9500ff;stroke-width:.999997;stroke-linecap:round;stroke-linejoin:round;stroke-miterlimit:4;stroke-dasharray:none;stroke-opacity:1;visibility:visible"/><path d="m509.432 904.78.312.248-.144.501" style="fill:none;stroke:#9500ff;stroke-width:.999997;stroke-linecap:round;stroke-linejoin:round;stroke-miterlimit:4;stroke-dasharray:none;stroke-opacity:1;visibility:visible"/><path d="m482.435 908.871-.552.17.19.569M482.947 896.498l-.149-.055M482.948 896.498l.127.052.118.068.107.088.096.096.09.107.076.125.07.133.053.147.038.146.03.165.004.168v.177l-.017.131-.023.138-.032.131-.034.125-.051.131-.06.119-.06.118-.077.12-.078.104-.078.104-.1.089-.088.09-.109.072-.101.073-.109.058-.112.047-.115.034-.113.024-.117.016-.118.006-.12-.01-.115-.025-.114-.035-.15-.047" style="fill:none;stroke:#9500ff;stroke-width:.666665;stroke-linecap:round;stroke-linejoin:round;stroke-miterlimit:4;stroke-dasharray:none;stroke-opacity:1;visibility:visible"/><path d="m482.981 897.722-.551.172.19.566" style="fill:none;stroke:#9500ff;stroke-width:.666665;stroke-linecap:round;stroke-linejoin:round;stroke-miterlimit:4;stroke-dasharray:none;stroke-opacity:1;visibility:visible"/><path d="m615.808 942.023.466-1.88M615.262 945.943l8.519-5.268M621.663 953.376l-.011-9.601M615.262 945.943l6.956-5.435M625.283 941.096l-5.173 2.491M615.262 945.943l5.415-5.623M615.976 946.096l2.572-2.696M615.262 945.943l3.852-5.809M614.961 954.71l.469-1.914M615.283 945.95l3.911 10.28M615.283 945.95l2.411 10.05M510.984 889.283l-4.854 2.22M510.937 890.183l-4.807 1.32M509.983 908.183l-4.453-5.206M499.87 903.937l5.66-.96M500.362 897.97l-15.075-1.51M609.875 940.555l.901-5.505M617.823 934.27l-7.047.78M613.176 941.837l-.446 6.78M595.416 965.483l1.994-.307M500.77 886.403l-15.234-2.687M620.463 956.683l8.54 10.027M720.289 668.043l-2.986 1.107M500.77 886.403l-10.427-2.213M621.535 886.157l1.574-7.753M606.076 937.697l12.574-8.434M617.568 940.03l.269-10.834M604.616 930.856l11.827-3.166M604.497 927.583l11.946.107M492.863 878.857l12.867 3.659M498.843 878.13l6.887 4.386M616.595 932.837l10.593 1.019M613.176 941.836l-3.301-1.281" style="fill:none;stroke:#9500ff;stroke-width:.999997;stroke-linecap:round;stroke-linejoin:round;stroke-miterlimit:4;stroke-dasharray:none;stroke-opacity:1;visibility:visible"/><path d="m496.77 799.016-4.833-.293M500.77 886.403l-19.14-3.067" style="fill:none;stroke:#9500ff;stroke-width:1.99999;stroke-linecap:round;stroke-linejoin:round;stroke-miterlimit:4;stroke-dasharray:none;stroke-opacity:1;visibility:visible"/><path d="m509.996 903.371-17.106 1.285" style="fill:none;stroke:#9500ff;stroke-width:.999997;stroke-linecap:round;stroke-linejoin:round;stroke-miterlimit:4;stroke-dasharray:none;stroke-opacity:1;visibility:visible"/><path d="m491.89 863.683-4.733-1.56" style="fill:none;stroke:#9500ff;stroke-width:1.99999;stroke-linecap:round;stroke-linejoin:round;stroke-miterlimit:4;stroke-dasharray:none;stroke-opacity:1;visibility:visible"/><path d="m482.947 896.498 1.923 7.345" style="fill:none;stroke:#9500ff;stroke-width:.999997;stroke-linecap:round;stroke-linejoin:round;stroke-miterlimit:4;stroke-dasharray:none;stroke-opacity:1;visibility:visible"/><path d="m500.77 886.403 2.447-6.493" style="fill:none;stroke:#9500ff;stroke-width:1.99999;stroke-linecap:round;stroke-linejoin:round;stroke-miterlimit:4;stroke-dasharray:none;stroke-opacity:1;visibility:visible"/><path d="m506.13 891.503-13.055-7.047" style="fill:none;stroke:#9500ff;stroke-width:.999997;stroke-linecap:round;stroke-linejoin:round;stroke-miterlimit:4;stroke-dasharray:none;stroke-opacity:1;visibility:visible"/><path d="m499.437 905.403-5.154-.607M598.462 942.93l-3.326 5.553M619.016 962.35l-3.72-5.134M619.016 962.35l.72-3.207M616.595 932.837l11.528-2.154" style="fill:none;stroke:#9500ff;stroke-width:1.99999;stroke-linecap:round;stroke-linejoin:round;stroke-miterlimit:4;stroke-dasharray:none;stroke-opacity:1;visibility:visible"/><path d="m613.176 941.836-4.72-.9M511.43 892.29l-1.36.983M511.755 894.477l-1.518-.455M509.595 897.17l-.163 7.61M511.116 905.985l-1.516-.456" style="fill:none;stroke:#9500ff;stroke-width:.999997;stroke-linecap:round;stroke-linejoin:round;stroke-miterlimit:4;stroke-dasharray:none;stroke-opacity:1;visibility:visible"/><path d="m482.947 896.498-1.281 3.085" style="fill:none;stroke:#9500ff;stroke-width:.666665;stroke-linecap:round;stroke-linejoin:round;stroke-miterlimit:4;stroke-dasharray:none;stroke-opacity:1;visibility:visible"/><path d="m150.809 932.152-1.211.143" style="fill:none;stroke:red;stroke-width:.666665;stroke-linecap:round;stroke-linejoin:round;stroke-miterlimit:4;stroke-dasharray:2.43733,2.43733;stroke-dashoffset:0;stroke-opacity:1;visibility:visible" visibility="hidden"/><path d="m147.53 903.163 18.518-1.568M219.829 895.309l.366 2.18M221.154 895.165l.367 2.178M248.823 920.543l.994-.116" style="fill:none;stroke:#00ff4a;stroke-width:.666665;stroke-linecap:round;stroke-linejoin:round;stroke-miterlimit:4;stroke-dasharray:none;stroke-opacity:1;visibility:visible" visibility="hidden"/><path d="m172.089 939.157-5.133-18.527M172.089 939.157l-5.212-5.887M169.123 922.383l6.386 15.18" style="fill:none;stroke:#00ff4a;stroke-width:.999997;stroke-linecap:round;stroke-linejoin:round;stroke-miterlimit:4;stroke-dasharray:none;stroke-opacity:1;visibility:visible" visibility="hidden"/><path d="m126.606 935.018 2.73 14.399" style="fill:none;stroke:#00ff4a;stroke-width:1.99999;stroke-linecap:round;stroke-linejoin:round;stroke-miterlimit:4;stroke-dasharray:none;stroke-opacity:1;visibility:visible" visibility="hidden"/><path d="m615.262 945.943 4.454 7.073M615.262 945.943l2.954 6.844M615.262 945.943l-5.015-6.888" style="fill:none;stroke:#9500ff;stroke-width:.999997;stroke-linecap:round;stroke-linejoin:round;stroke-miterlimit:4;stroke-dasharray:none;stroke-opacity:1;visibility:visible"/><path d="m482.947 896.498-.874 13.112M482.947 896.498l-.327 1.962" style="fill:none;stroke:#9500ff;stroke-width:.666665;stroke-linecap:round;stroke-linejoin:round;stroke-miterlimit:4;stroke-dasharray:none;stroke-opacity:1;visibility:visible"/></svg>