<svg xmlns="http://www.w3.org/2000/svg" baseProfile="full" height="1122.52" preserveAspectRatio="xMinYMin meet" style="width:729px;height:902px" width="793.701" xml:space="preserve"><path d="m488.825 431.868-252.838 81.124M415.354 594.641l-.015.434M403.839 585.564l-3.899-1.424M403.839 585.564l.412.19c3.541 1.816 5.845 6.494 6.05 10.35l.023.553M410.499 613.01l-.007-.608-.17-15.745M666.57 493.855l-.809 14.127 4.496-1.883M489.008 432.223l13.273 4.035M508.847 438.255l151.627 46.105M660.721 484.47l.415.14c3.348 1.329 5.493 5.24 5.448 8.753l-.014.49M647.245 514.468l.361-.15.367-.15c.6-.248 6.392-2.7 3.735-3.733l-.099-.032-.103-.027c-2.83-.602-7.113.812-9.71 1.792l-.39.15-.374.149M428.383 598.256l212.649-85.792" style="fill:none;stroke:red;stroke-width:.999997;stroke-linecap:round;stroke-linejoin:round;stroke-miterlimit:4;stroke-dasharray:none;stroke-opacity:1;visibility:visible" visibility="hidden"/><path d="m401.895 609.532 8.577 3.803s1.943 1.093 3.563 1c1.67-.1 4.847-1.571 4.847-1.571L668.42 510.778c.574-.286 7.342-2.662 1.836-4.13" style="fill:none;stroke:red;stroke-width:.999997;stroke-linecap:round;stroke-linejoin:round;stroke-miterlimit:4;stroke-dasharray:none;stroke-opacity:1;visibility:visible" visibility="hidden"/><path d="m434.666 600.84-.474.197-.494.186c-2.804 1.077-8.876 3.256-11.935 2.31l-.097-.033-.088-.048c-2.396-1.39 5.294-4.584 5.852-4.805l.474-.207.479-.183M434.666 600.84l212.58-86.372" style="fill:none;stroke:red;stroke-width:.999997;stroke-linecap:round;stroke-linejoin:round;stroke-miterlimit:4;stroke-dasharray:none;stroke-opacity:1;visibility:visible" visibility="hidden"/><path d="m662.478 481.78 1.586.787" style="fill:none;stroke:red;stroke-width:1.99866;stroke-linecap:round;stroke-linejoin:round;stroke-miterlimit:4;stroke-dasharray:none;stroke-opacity:1;visibility:visible" visibility="hidden"/><path d="m488.684 429.171 174.436 53.06" style="fill:none;stroke:red;stroke-width:.999997;stroke-linecap:round;stroke-linejoin:round;stroke-miterlimit:4;stroke-dasharray:none;stroke-opacity:1;visibility:visible" visibility="hidden"/><path d="m670.377 492.696-.845 13.802M485.728 430.108l2.956-.936" style="fill:none;stroke:red;stroke-width:1.99866;stroke-linecap:round;stroke-linejoin:round;stroke-miterlimit:4;stroke-dasharray:none;stroke-opacity:1;visibility:visible" visibility="hidden"/><path d="m665.545 507.798-175.76-55.786" style="fill:none;stroke:red;stroke-width:.999997;stroke-linecap:round;stroke-linejoin:round;stroke-miterlimit:4;stroke-dasharray:none;stroke-opacity:1;visibility:visible" visibility="hidden"/><path d="m411.431 585.324-.345-.33M408.336 583.113l.404.182a8.864 8.864 0 0 1 1.971 1.345l.376.353M411.431 585.324l.375.385c2.152 2.339 3.514 5.754 3.546 8.931l-.105 15.015M387.439 574.827 255.102 520.71M253.667 521.367l-7.866-3.212M245.909 517.028l-10.6-4.317M408.336 583.113l-11.929-4.861M485.728 430.108l-.517.355M664.065 482.568l.43.147c3.639 1.42 5.955 5.67 5.899 9.472l-.018.51" style="fill:none;stroke:red;stroke-width:1.99866;stroke-linecap:round;stroke-linejoin:round;stroke-miterlimit:4;stroke-dasharray:none;stroke-opacity:1;visibility:visible" visibility="hidden"/><path d="m488.625 452.047.2-20.177" style="fill:none;stroke:red;stroke-width:.999997;stroke-linecap:round;stroke-linejoin:round;stroke-miterlimit:4;stroke-dasharray:none;stroke-opacity:1;visibility:visible" visibility="hidden"/><path d="m484.919 430.372-252.205 80.506" style="fill:none;stroke:red;stroke-width:1.99866;stroke-linecap:round;stroke-linejoin:round;stroke-miterlimit:4;stroke-dasharray:none;stroke-opacity:1;visibility:visible" visibility="hidden"/><path d="m488.008 431.318.816.552M267.495 525.573l221.13-73.525M488.008 431.318l-3.09-.944" style="fill:none;stroke:red;stroke-width:.999997;stroke-linecap:round;stroke-linejoin:round;stroke-miterlimit:4;stroke-dasharray:none;stroke-opacity:1;visibility:visible" visibility="hidden"/><path d="m236.27 513.492-.15-.128M402.398 615.985l8.312 3.596s2.408 1 3.832 1c2.14 0 3.844-.85 3.844-.85l252.79-104.363c2.936-1.01 2.569-2.478 2.569-2.478 0-.574 0-4.131-.46-4.59-.46-.457-3.67-1.65-3.67-1.65M232.573 510.97l.141-.093" style="fill:none;stroke:red;stroke-width:1.99866;stroke-linecap:round;stroke-linejoin:round;stroke-miterlimit:4;stroke-dasharray:none;stroke-opacity:1;visibility:visible" visibility="hidden"/><path d="m392.683 785.184-.49-.32M311.129 722.774l-.023-.317-.046-.321c-.246-2.468-3.722-5.703-4.303-2.086l-.017.292.017.31c-.024 2.502 3.553 6.302 4.349 2.704l.023-.282v-.3M389.803 756.472l-.647-.334M384.815 753.902l-10.59-5.452M332.346 726.892l-97.456-50.167M399.686 581.415l-.01-.019-.014-.008M393.492 583.79l-.172.078-.173.072M398.986 580.721l.337.334.339.333M399.663 581.388v.52M393.492 583.79l.362.116.366.117M394.22 584.021l5.442-2.114M398.679 734.941l-.037-.3c-.17-2.075-3.143-4.836-3.859-1.921l-.024.27M396.872 736.753l.226.076c1.085.29 1.608-.636 1.589-1.595l-.008-.293M240.542 518.184l-.016.006-.023.008M219.34 512.022l.488-.138c5.552-1.272 11.025 3.53 14.093 7.622l.504.664M235.06 520.444l5.37-1.736M227.647 651.947l.18.053c.74.097 1.036-.575 1.087-1.199l.008-.25-.008-.268c.016-1.834-2.548-4.86-3.18-2.094l-.012.242M234.649 743.064l-.547-222.79M378.37 614.679l-24.048 9.653M323.431 636.728l-82.829 33.25M248.882 558.444l-.017.186-.036.186c-.159.812-1.439 1.684-1.823.547l-.03-.17v-.19l.029-.187c.064-.364.342-.781.646-.992l.159-.084.164-.068c.285-.099.647.004.787.284l.068.141.044.164.009.183M248.767 549.199l-8.21 2.805M526.079 585.884l121.243 46.49M662.497 479.522l.148-.068.152-.07M644.73 475.819l.011.097.024.098M662.797 479.384l.299.099.308.105M667.354 478.058l-3.95 1.53M644.765 476.014l.585-.279c5.715-2.5 11.912-.541 16.531 3.263l.616.525M662.497 479.522l.028 1.726M663.125 520.49l2.843 185.516M487.072 632.917l-.12-.05-.13-.053M488.361 426.571h.009v.095l-.009.104M508.072 431.876l-4.007 1.3M488.361 426.771l.532-.144c5.327-1.281 10.523 1.905 13.88 5.817l.477.571M489.416 601.256l-2.593 31.557M384.226 684.493l-22.516 9.927M330.595 708.141l-12.405 5.47M569.172 602.947l-162.208 71.52" style="fill:none;stroke:red;stroke-width:.999997;stroke-linecap:round;stroke-linejoin:round;stroke-miterlimit:4;stroke-dasharray:none;stroke-opacity:1;visibility:visible" visibility="hidden"/><path d="m248.293 586.712-.007.367c-.147 2.256-1.675 4.657-3.743 5.614l-.318.131M244.226 592.824l-2.055.765-.33.107-.323.07-.323.054-.313.015-.31-.016M248.243 574.732l.051 11.98" style="fill:none;stroke:red;stroke-width:1.99866;stroke-linecap:round;stroke-linejoin:round;stroke-miterlimit:4;stroke-dasharray:none;stroke-opacity:1;visibility:visible" visibility="hidden"/><path d="m568.415 625.53.758-22.584M568.745 602.241l.427.706" style="fill:none;stroke:red;stroke-width:.999997;stroke-linecap:round;stroke-linejoin:round;stroke-miterlimit:4;stroke-dasharray:none;stroke-opacity:1;visibility:visible" visibility="hidden"/><path d="M508.079 431.455v.207l-.007.214M488.336 426.578l.017-.008h.008M492.836 425.143l.036-.008.04-.012M494.06 599.308l-2.66 31.797M491.399 631.105l-3.796 1.656M474.333 607.588l-1.35 17.452M488.336 426.578l-.15 1.97M475 627.821l-.417-.437-.416-.448-.407-.467-.387-.469-.389-.496M386.239 708.49l-23.459 10.67M567.965 625.879l-159.14 72.346M383.82 679.654l-22.82 10M330.254 703.13l-13.676 5.99M564.345 600.553 406.59 669.69M568.415 625.53l-.45.348M648.217 658.334l.813 41.872M475 627.821l.07.074M492.836 425.143l-4.475 1.428M472.985 625.504l-.008-.016v-.012M472.975 625.475v-.22l.008-.215M487.603 632.761l-.26.082-.27.074-.498.068c-4.135.443-8.12-1.845-11.019-4.61l-.486-.482" style="fill:none;stroke:red;stroke-width:1.99866;stroke-linecap:round;stroke-linejoin:round;stroke-miterlimit:4;stroke-dasharray:none;stroke-opacity:1;visibility:visible" visibility="hidden"/><path d="m492.912 425.124.519-.15c5.449-1.352 10.746 1.896 14.176 5.912l.472.57" style="fill:none;stroke:red;stroke-width:1.99866;stroke-linecap:round;stroke-linejoin:round;stroke-miterlimit:4;stroke-dasharray:none;stroke-opacity:1;visibility:visible" visibility="hidden"/><path d="m647.71 632.268.505 26.07" style="fill:none;stroke:red;stroke-width:.999997;stroke-linecap:round;stroke-linejoin:round;stroke-miterlimit:4;stroke-dasharray:none;stroke-opacity:1;visibility:visible" visibility="hidden"/><path d="m402.47 616.985 17.277 220.872M236.262 513.508l-.152-.13M228.337 741.245l.17.107M219.357 512.015l5.982-1.901M240.594 740.712l.016-.128.02-.135M219.303 512.268l.022-.13.015-.118M240.529 740.826l.03-.054.036-.06M235.54 743.006l-.29.088-.3.084-.459.036c-1.925.07-3.809-.61-5.461-1.55l-.521-.31M225.34 510.115l.036-.013.044-.015M225.42 510.087l.48-.13c3.46-.837 7.012.853 9.663 2.973l.547.449M219.357 512.015l-.008.007h-.009M235.54 743.006l4.988-2.18M228.337 741.245l-.519-.339c-2.533-1.696-4.67-4.041-6.463-6.492l-.449-.642M219.303 512.268l.74 81.567M220.08 597.939l.45 49.328M220.355 657.384l.052 7.23M220.443 669.614l.467 64.156M236.262 513.508l.563.494c1.164 1.046 2.254 2.278 3.214 3.514l.503.667M240.618 704.488l.013 35.96M240.56 545.681l.044 128.276M240.542 518.184v.572M380.14 635.775l-23.825 9.849M325.706 658.274l-64.023 26.456M377.987 610.137 354 619.7M323.03 632.053l-82.427 32.872M281.162 563.07l-40.595 14.38M567.719 625.993l80.489 31.901M497.14 598.019l38.325 15.191M530.967 583.827l116.665 44.489M508.072 431.876l140.354 42.439M650.538 473.516l-4.481 1.71M650.538 473.516l.6-.216c5.507-1.777 11.239.267 15.54 3.838l.595.512M667.272 477.65l.037.2.045.21M644.73 475.819l.433-.217.441-.196.453-.18M644.67 475.884l.026-.036.034-.03M667.354 478.058l.064 4.472M667.929 518.438l2.637 185.411M645.83 535.644l1.868 96.043" style="fill:none;stroke:red;stroke-width:1.99866;stroke-linecap:round;stroke-linejoin:round;stroke-miterlimit:4;stroke-dasharray:none;stroke-opacity:1;visibility:visible" visibility="hidden"/><path d="m399.902 584.19 2.565 32.796" style="fill:none;stroke:red;stroke-width:.999997;stroke-linecap:round;stroke-linejoin:round;stroke-miterlimit:4;stroke-dasharray:none;stroke-opacity:1;visibility:visible" visibility="hidden"/><path d="m392.719 785.6 4.019 47.884M399.106 580.841l.292.284.288.292M399.686 581.415l.217 2.775" style="fill:none;stroke:red;stroke-width:1.99866;stroke-linecap:round;stroke-linejoin:round;stroke-miterlimit:4;stroke-dasharray:none;stroke-opacity:1;visibility:visible" visibility="hidden"/><path d="m390.199 755.948 2.52 29.65" style="fill:none;stroke:red;stroke-width:.999997;stroke-linecap:round;stroke-linejoin:round;stroke-miterlimit:4;stroke-dasharray:none;stroke-opacity:1;visibility:visible" visibility="hidden"/><path d="m377.495 604.319 5.61 64.761M383.436 672.912l5.14 59.33M389.108 742.618l.634 8.298" style="fill:none;stroke:red;stroke-width:1.99866;stroke-linecap:round;stroke-linejoin:round;stroke-miterlimit:4;stroke-dasharray:none;stroke-opacity:1;visibility:visible" visibility="hidden"/><path d="m375.34 578.681 2.151 25.636" style="fill:none;stroke:red;stroke-width:.999997;stroke-linecap:round;stroke-linejoin:round;stroke-miterlimit:4;stroke-dasharray:none;stroke-opacity:1;visibility:visible" visibility="hidden"/><path d="m414.656 840.927-.314.139-.323.137M382.779 575.49l.599-.2c5.382-1.667 11.038 1.254 14.949 4.82l.659.614M375.35 578.43l.412-.217.421-.198.432-.17M414.656 840.927l5.064-2.707M402.884 838.798l-.637-.419a29.13 29.13 0 0 1-4.925-4.259l-.586-.638" style="fill:none;stroke:red;stroke-width:1.99866;stroke-linecap:round;stroke-linejoin:round;stroke-miterlimit:4;stroke-dasharray:none;stroke-opacity:1;visibility:visible" visibility="hidden"/><path d="m376.614 577.845.57-.202c5.772-1.751 11.644 1.593 15.676 5.517l.631.63M413.676 841.105l-20.53-257.165" style="fill:none;stroke:red;stroke-width:.999997;stroke-linecap:round;stroke-linejoin:round;stroke-miterlimit:4;stroke-dasharray:none;stroke-opacity:1;visibility:visible" visibility="hidden"/><path d="m399.106 580.841-.12-.118M402.884 838.798l.159.099M376.614 577.845l6.164-2.354M419.746 838.138v-.281M375.34 578.681l.007-.133v-.116M419.719 838.22l.015-.046.013-.036M414.02 841.203l-.54.151c-3.328.795-6.931-.372-9.791-2.065l-.646-.392" style="fill:none;stroke:red;stroke-width:1.99866;stroke-linecap:round;stroke-linejoin:round;stroke-miterlimit:4;stroke-dasharray:none;stroke-opacity:1;visibility:visible" visibility="hidden"/><path d="m380.642 576.305-140.213-57.597" style="fill:none;stroke:red;stroke-width:.999997;stroke-linecap:round;stroke-linejoin:round;stroke-miterlimit:4;stroke-dasharray:none;stroke-opacity:1;visibility:visible" visibility="hidden"/><path d="m234.95 701.41.501.334M377.502 604.319 235.114 543.35" style="fill:none;stroke:red;stroke-width:1.99866;stroke-linecap:round;stroke-linejoin:round;stroke-miterlimit:4;stroke-dasharray:none;stroke-opacity:1;visibility:visible" visibility="hidden"/><path d="m235.399 675.96 5.101-2.055M235.4 675.96l-.512.765" style="fill:none;stroke:red;stroke-width:.999997;stroke-linecap:round;stroke-linejoin:round;stroke-miterlimit:4;stroke-dasharray:none;stroke-opacity:1;visibility:visible" visibility="hidden"/><path d="m392.684 785.196-24.888-13.214M334.74 754.44l-99.288-52.693M389.744 750.185l-8.68-4.44M372.972 741.614l-8.357-4.278M331.707 720.521l-16.481-8.427M305.863 707.31l-65.365-33.406" style="fill:none;stroke:red;stroke-width:1.99866;stroke-linecap:round;stroke-linejoin:round;stroke-miterlimit:4;stroke-dasharray:none;stroke-opacity:1;visibility:visible" visibility="hidden"/><path d="m657.473 530.48-.13-7.805" style="fill:none;stroke:red;stroke-width:.999997;stroke-linecap:round;stroke-linejoin:round;stroke-miterlimit:4;stroke-dasharray:none;stroke-opacity:1;visibility:visible" visibility="hidden"/><path d="m657.473 530.48-.487.49L404.04 637.071" style="fill:none;stroke:red;stroke-width:1.99866;stroke-linecap:round;stroke-linejoin:round;stroke-miterlimit:4;stroke-dasharray:none;stroke-opacity:1;visibility:visible" visibility="hidden"/><path d="m308.369 720.87.893.771-.383 1.21" style="fill:none;stroke:red;stroke-width:.666665;stroke-linecap:round;stroke-linejoin:round;stroke-miterlimit:4;stroke-dasharray:none;stroke-opacity:1;visibility:visible" visibility="hidden"/><path d="m374.912 579.365-140.382-58.12" style="fill:none;stroke:red;stroke-width:.999997;stroke-linecap:round;stroke-linejoin:round;stroke-miterlimit:4;stroke-dasharray:none;stroke-opacity:1;visibility:visible" visibility="hidden"/><path d="M648.821 496.767c-.327.117-.47.635-.403 1.308M650.469 501.104l.336-.122c.505-.18.595-1.314.125-2.507-.465-1.192-1.308-1.993-1.813-1.815l-.296.104" style="fill:none;stroke:red;stroke-width:.666665;stroke-linecap:round;stroke-linejoin:round;stroke-miterlimit:4;stroke-dasharray:none;stroke-opacity:1;visibility:visible" visibility="hidden"/><path d="M649.268 500.303c.421.585.904.905 1.244.787" style="fill:none;stroke:red;stroke-width:.666665;stroke-linecap:round;stroke-linejoin:round;stroke-miterlimit:4;stroke-dasharray:none;stroke-opacity:1;visibility:visible" visibility="hidden"/><path d="M648.909 497.083c-.504.177-.621 1.173-.22 2.199.401 1.026 1.167 1.692 1.667 1.513" style="fill:none;stroke:red;stroke-width:.666665;stroke-linecap:round;stroke-linejoin:round;stroke-miterlimit:4;stroke-dasharray:none;stroke-opacity:1;visibility:visible" visibility="hidden"/><path d="m649.2 498.628.665.555-.11.875M228.94 562.268l-.018-.31-.029-.321c-.143-2.434-3.324-5.725-4.018-2.126l-.015.286v.304c-.12 2.44 3.141 6.326 4.041 2.747l.029-.283.01-.297M224.853 592.537l-.015-.304.012-.286.037-.268c.54-2.032 2.383-.559 2.87.729l.133.312.104.32c.49 1.367-.032 3.52-1.744 2.279l-.212-.187-.198-.217M225.029 628.148l.01-.281.039-.267c.756-2.479 3.172.387 3.212 2.043l.032.305v.288c-.379 2.95-3.032.504-3.241-1.479l-.042-.31-.009-.299M225.226 663.676l-.019-.292.01-.279.037-.255c.55-1.96 2.37-.369 2.827.836l.124.304.104.314c.471 1.374-.05 3.38-1.719 2.112l-.203-.188-.197-.219M225.391 697.964l.011-.27.038-.254.061-.226c.212-.568.666-.792 1.237-.56l.204.1.208.133c.672.503 1.235 1.541 1.383 2.358l.057.305.03.291-.003.281c-.354 2.842-3.004.311-3.172-1.572l-.042-.3-.012-.286M225.565 731.908l.012-.263.04-.248.058-.221c.202-.558.678-.766 1.222-.526l.205.104.205.14c.676.508 1.216 1.524 1.376 2.342l.057.3.026.288-.001.276c-.35 2.784-2.979.231-3.145-1.611l-.041-.297-.014-.284M228.263 679.826l-.013-.262-.044-.276c-.1-1.339-2.093-3.552-2.623-1.49l-.025.234.003.261.026.268c.12.75.45 1.484 1.004 2.015l.19.162.186.124c.474.282.978.183 1.183-.36l.067-.201.033-.227.013-.248M225.223 718.089l.011-.29.04-.266c.852-2.808 3.653.639 3.676 2.475l.03.316-.003.296c-.429 3.324-3.524.272-3.697-1.903l-.039-.323-.018-.304M225.046 683.894l.01-.294.041-.276c.845-2.862 3.675.53 3.707 2.436l.031.325v.305c-.43 3.384-3.559.366-3.733-1.857l-.039-.327-.018-.312" style="fill:none;stroke:red;stroke-width:.666665;stroke-linecap:round;stroke-linejoin:round;stroke-miterlimit:4;stroke-dasharray:none;stroke-opacity:1;visibility:visible" visibility="hidden"/><path d="m226.409 560.619.885.754-.38 1.203M391.484 634.857l-.046-.354-.063-.348c-.513-3.038-4.423-5.547-4.837-1.428v.33l.029.353c-.019 2.601 4.13 6.56 4.917 2.122l.016-.333-.016-.342M387.739 603.808l.407-.161M385.524 598.196l.407-.161M387.09 598.525a2.264 2.264 0 0 0-.714-.485.605.605 0 0 0-.448-.005M387.672 599.27a4.195 4.195 0 0 0-.581-.747M388.658 602.493a4.288 4.288 0 0 0-.083-.94 7.333 7.333 0 0 0-.9-2.283M388.146 603.647a.587.587 0 0 0 .322-.307c.118-.27.186-.555.192-.847M385.524 598.195a1.663 1.663 0 0 0-.918.888M384.606 599.083a2.637 2.637 0 0 0-.214 1.186M384.391 600.27a4.824 4.824 0 0 0 1.103 2.796M385.495 603.067c.263.309.593.557.967.72M386.464 603.787c.404.177.863.182 1.276.022M385.31 599.63a10.813 10.813 0 0 0 .557.278 4.59 4.59 0 0 0-.352 1.425 2.248 2.248 0 0 0 2.141.552M227.557 731.118l-.068-.016c-.435-.092-.69.284-.716.672l-.013.219" style="fill:none;stroke:red;stroke-width:.666665;stroke-linecap:round;stroke-linejoin:round;stroke-miterlimit:4;stroke-dasharray:none;stroke-opacity:1;visibility:visible" visibility="hidden"/><path d="m226.76 731.993.014.23.039.242a3.147 3.147 0 0 0 .53 1.176l.158.185.162.156c.243.211.618.396.922.194l.11-.102.075-.112M227.44 697.157l-.112-.03c-.465-.072-.669.299-.722.701l-.01.222M226.595 698.05l.01.235.041.247c.08.404.29.86.544 1.185l.155.183.165.158c.261.214.61.388.927.172l.11-.106.076-.112M228.26 680.066l-.048.031c-1.042.48-2.205-2.25-1.202-2.733l.137-.032M227.327 662.556l-.154-.039c-.459-.087-.695.336-.736.73l-.012.224M227.177 665.34l.17.153c.3.261.764.412 1.048.047l.078-.118M227.213 627.3l-.038-.016c-.554-.195-.852.213-.912.719l-.01.229M226.253 628.233l.017.248c-.017.79 1.135 2.714 1.972 1.819l.078-.124M227.095 591.368l-.089-.036c-.556-.19-.861.255-.916.755l-.016.237M226.077 592.324l.018.25M226.853 594.232l.17.152c.327.265.777.383 1.067-.005l.072-.127M403.14 828.298l-.006-.315.021-.293c.613-2.821 3.46-.19 3.697 1.723l.056.333.03.324c-.214 3.444-3.408.827-3.683-1.108l-.073-.339-.042-.325M399.923 788.764l-.017-.318.024-.303.052-.278c.148-.648.641-1.105 1.332-.963l.236.064.245.107c.857.464 1.501 1.477 1.767 2.393l.088.341.057.341.027.32c-.199 3.492-3.396.978-3.702-1.035l-.072-.336-.037-.333M396.766 749.302l-.076-.344-.043-.338-.015-.32.02-.307c.391-2.27 2.462-1.235 3.228.255l.171.322.14.334c.63 1.34.325 3.953-1.73 2.89l-.246-.166-.239-.203M393.322 707.86l-.008-.328.014-.312c.67-3.118 3.616-.276 3.764 1.533l.064.344.026.339c-.174 3.56-3.39 1.276-3.743-.888l-.073-.344-.044-.344M389.992 666.805l-.045-.344-.015-.333.022-.32c.445-2.57 2.766-1.208 3.436.424l.146.344.118.346c.693 2.094-.624 4.148-2.592 2.138l-.216-.266-.203-.292M401.53 812.255l-.012-.34.02-.325c.648-3.373 4.041-.387 4.341 1.977l.056.36.03.35c-.225 4.101-4.037 1-4.312-1.307l-.081-.359-.042-.357M398.283 772.488l-.015-.35.022-.33c.665-3.46 4.085-.471 4.365 1.906l.061.364.026.352c-.208 4.146-4.018 1.172-4.342-1.22l-.072-.365-.045-.357M388.182 633.248l.885.757-.38 1.202" style="fill:none;stroke:red;stroke-width:.666665;stroke-linecap:round;stroke-linejoin:round;stroke-miterlimit:4;stroke-dasharray:none;stroke-opacity:1;visibility:visible" visibility="hidden"/><path d="m404.443 828.25.035.268.069.27c.148.521.481 1.075.896 1.421l.195.14.202.107c.387.154.726.106.964-.255l.087-.181.024-.093M402.471 787.583l-.115-.051c-.712-.28-1.113.256-1.134.923l.004.262M401.226 788.717l.041.27c.081 1.058 1.716 2.97 2.423 1.475l.026-.1M399.274 747.42l-.171-.08c-.733-.26-1.119.289-1.143.97l.004.26M397.964 748.572l.04.276M398.787 750.376l.196.174c.525.432 1.201.46 1.459-.265l.026-.097M396.022 706.638l-.028-.018c-.794-.438-1.324.104-1.35.922l.01.268M394.652 707.81l.034.28c.117 1.136 1.756 2.969 2.458 1.4l.03-.1M392.723 665.22l-.087-.055c-.666-.364-1.225-.003-1.329.719l-.03.252M391.278 666.136l.01.276M391.932 668.028l.188.205c.542.568 1.378.697 1.674-.177l.03-.099M507.628 439.263l-.041 1.936M502.599 436.148l6.54 2.052M509.14 438.2l-1.09.387M508.048 438.586l-.418.676M500.781 439.148l.006.398c-.072 4.248 5.71 8.121 6.78 2.137l.02-.392.038-1.759.003-.269M500.812 437.39l-.03 1.756" style="fill:none;stroke:red;stroke-width:.666665;stroke-linecap:round;stroke-linejoin:round;stroke-miterlimit:4;stroke-dasharray:none;stroke-opacity:1;visibility:visible" visibility="hidden"/><path d="m405.612 827.134-.042-.021c-.707-.284-1.102.21-1.132.881l.005.257M507.585 441.198v.092M501.088 437.21l.422-.675M501.088 437.21l-.276.18M506.464 443.971l-.133-.007c-2.241-.22-3.696-2.906-3.774-4.964l-.006-.394.049-2.459" style="fill:none;stroke:red;stroke-width:.666665;stroke-linecap:round;stroke-linejoin:round;stroke-miterlimit:4;stroke-dasharray:none;stroke-opacity:1;visibility:visible" visibility="hidden"/><path d="m410.492 612.401 5.148-1.964" style="fill:none;stroke:red;stroke-width:.999997;stroke-linecap:round;stroke-linejoin:round;stroke-miterlimit:4;stroke-dasharray:none;stroke-opacity:1;visibility:visible" visibility="hidden"/><path d="m658.398 608.173.188-.078.195-.045.208-.015.216.015.219.045.218.068.21.097.21.13.2.15.198.161.172.196.164.216.152.224.125.236.105.247.082.256.06.256.038.26.015.253-.007.247-.036.243-.062.224-.074.208-.104.198-.128.175-.145.148-.156.13-.18.095M671.369 604.657l-12.53 5.908M660.48 612.512l-.135.06-.15.044-.141.03-.157.021h-.15l-.152-.007-.147-.015-.152-.037-.158-.044-.157-.06-.15-.075-.149-.084-.151-.098-.139-.112-.147-.135-.125-.13-.13-.155-.112-.156-.104-.167-.09-.17-.084-.176-.074-.182-.052-.19-.046-.188-.035-.194-.017-.187-.007-.188.015-.187.022-.19.038-.167.052-.181.068-.167.074-.149.098-.15.104-.136.114-.12.136-.111.149-.104.159-.082" style="fill:none;stroke:red;stroke-width:.666665;stroke-linecap:round;stroke-linejoin:round;stroke-miterlimit:4;stroke-dasharray:2.66533,2.66533;stroke-dashoffset:0;stroke-opacity:1;visibility:visible" visibility="hidden"/><path d="m410.324 596.657 5.03-2.016M410.322 596.657l5.017-1.582M386.462 603.787l15.433 5.745M670.256 506.648l-4.711 1.15" style="fill:none;stroke:red;stroke-width:.999997;stroke-linecap:round;stroke-linejoin:round;stroke-miterlimit:4;stroke-dasharray:none;stroke-opacity:1;visibility:visible" visibility="hidden"/><path d="m396.407 578.252-8.968-3.425M253.667 521.367l1.435-.657M255.102 520.71l-1.435.657M245.909 517.028l-.108 1.127M245.801 518.155l.108-1.127M394.22 584.023l2.187-5.771" style="fill:none;stroke:red;stroke-width:1.99866;stroke-linecap:round;stroke-linejoin:round;stroke-miterlimit:4;stroke-dasharray:none;stroke-opacity:1;visibility:visible" visibility="hidden"/><path d="m384.815 753.902 4.341 2.236M389.156 756.138l-4.341-2.236M372.972 741.614l1.253 6.836M227.327 662.556l.32-10.609M220.355 657.384l5.367-8.953M387.739 603.808l-9.369 10.871M240.5 673.905l.102-3.927M240.56 545.681l8.322 12.763M657.473 530.48l5.652-9.99M316.578 709.12l14.017-.979M330.254 703.13l-12.064 10.481" style="fill:none;stroke:red;stroke-width:.999997;stroke-linecap:round;stroke-linejoin:round;stroke-miterlimit:4;stroke-dasharray:none;stroke-opacity:1;visibility:visible" visibility="hidden"/><path d="m248.882 558.444-.639 16.288M472.975 625.475l1.358-17.887M318.19 713.611l12.064-10.481M330.595 708.141l-14.017.979M220.08 597.939l-.037-4.104M220.043 593.835l.037 4.104M220.355 657.384l.175-10.117M225.226 663.676l-4.871-6.292M220.443 669.614l-.036-5M220.407 664.614l.036 5M226.596 698.05l14.022 6.438M248.882 558.444l-8.322-12.763M387.739 603.808l-9.752 6.329M240.5 673.905l.103-8.98M244.226 592.824l-3.659-15.374M662.797 479.384l-14.371-5.069M662.497 479.522l4.921 3.008M669.615 506.65l-1.686 11.788M657.473 530.48l-11.643 5.164M383.436 672.912l-.331-3.832M383.105 669.08l.331 3.832M389.108 742.618l-.532-10.376M388.576 732.242l.532 10.376" style="fill:none;stroke:red;stroke-width:1.99866;stroke-linecap:round;stroke-linejoin:round;stroke-miterlimit:4;stroke-dasharray:none;stroke-opacity:1;visibility:visible" visibility="hidden"/><path d="m393.492 583.79-12.85-7.485" style="fill:none;stroke:red;stroke-width:.999997;stroke-linecap:round;stroke-linejoin:round;stroke-miterlimit:4;stroke-dasharray:none;stroke-opacity:1;visibility:visible" visibility="hidden"/><path d="m384.815 753.902-3.751-8.157M374.225 748.45l-1.253-6.836M305.863 707.31l9.363 4.784M315.226 712.094l-9.363-4.784" style="fill:none;stroke:red;stroke-width:1.99866;stroke-linecap:round;stroke-linejoin:round;stroke-miterlimit:4;stroke-dasharray:none;stroke-opacity:1;visibility:visible" visibility="hidden"/><path d="m226.077 592.324-1.224.213M226.253 628.232l-1.223-.084M220.443 669.614l4.783-5.938M226.595 698.05l-1.204-.086M226.596 698.05l-1.205-.086M220.91 733.77l4.655-1.862M225.565 731.908l-.342-13.819M220.91 733.77l4.313-15.68M228.263 679.826l-3.217 4.068M228.263 679.826l-3.218 4.068M240.529 740.826l-11.759-6.864M227.647 651.947l-.32 10.609M220.443 669.614l5.982-6.143M234.888 676.725l-6.415-11.303M419.746 837.857l-16.606-9.559M396.738 833.484l6.402-5.186M392.719 785.6l7.204 3.164M392.719 785.598l7.204 3.166M397.964 748.572l-1.198.73M383.436 672.912l6.556-6.107M392.719 785.6l5.564-13.112M392.719 785.598l5.564-13.11M419.719 838.22l-12.804-8.293M389.156 756.138l10.118-8.718M403.043 838.897l2.569-11.763" style="fill:none;stroke:red;stroke-width:.666665;stroke-linecap:round;stroke-linejoin:round;stroke-miterlimit:4;stroke-dasharray:none;stroke-opacity:1;visibility:visible" visibility="hidden"/><path d="m660.481 612.513 10.888-7.856M658.398 608.173l.441 2.392" style="fill:none;stroke:red;stroke-width:.666665;stroke-linecap:round;stroke-linejoin:round;stroke-miterlimit:4;stroke-dasharray:2.66533,2.66533;stroke-dashoffset:0;stroke-opacity:1;visibility:visible" visibility="hidden"/><path d="m176.986 611.972.164.057c.398.071.586-.269.626-.612l.013-.232-.02-.245-.047-.261-.074-.254-.104-.26-.124-.229-.143-.219-.157-.18-.162-.147c-.228-.173-.506-.26-.742-.047l-.1.134-.069.163M178.858 684.633l-.017-.24-.047-.252a2.597 2.597 0 0 0-.592-1.139l-.161-.145-.164-.104c-.248-.133-.517-.107-.664.15l-.07.163-.043.195M177.744 685.108l.16.148c.473.36.86.17.944-.403l.01-.219" style="fill:none;stroke:#00ff4a;stroke-width:.666665;stroke-linecap:round;stroke-linejoin:round;stroke-miterlimit:4;stroke-dasharray:none;stroke-opacity:1;visibility:visible" visibility="hidden"/><path d="m190.053 534.61-.024.012-.03.008M183.597 536.707l-.157.053-.166.045M187.586 763.688l.148.057.158.06M183.597 536.707l.337.148.33.138M189.912 535.155l-5.646 1.838M193.34 665.868l2.493-1.024M195.556 664.966l.18-.052c.569-.248.77-.898.78-1.469l.003-.275-.029-.289c-.098-1.199-1.332-3.384-2.777-3.048l-.173.079" style="fill:none;stroke:#00ff4a;stroke-width:.999997;stroke-linecap:round;stroke-linejoin:round;stroke-miterlimit:4;stroke-dasharray:none;stroke-opacity:1;visibility:visible" visibility="hidden"/><path d="m184.852 529.036.546.439c1.56 1.321 2.939 2.844 4.167 4.475l.488.662M190.053 534.61l3.801 226.337" style="fill:none;stroke:#00ff4a;stroke-width:1.99866;stroke-linecap:round;stroke-linejoin:round;stroke-miterlimit:4;stroke-dasharray:none;stroke-opacity:1;visibility:visible" visibility="hidden"/><path d="m168.618 528.19.472-.126c5.503-1.264 11.044 3.909 14.004 7.953l.503.688M187.586 763.688l-4.31-226.884" style="fill:none;stroke:#00ff4a;stroke-width:.999997;stroke-linecap:round;stroke-linejoin:round;stroke-miterlimit:4;stroke-dasharray:none;stroke-opacity:1;visibility:visible" visibility="hidden"/><path d="m168.566 528.445.024-.128.029-.126M193.72 761.34l.045-.06.044-.058M188.5 763.626l-.307.09-.3.091-.435.023c-1.613.054-3.32-.516-4.722-1.28l-.503-.276M174.924 526.192l.036-.019.046-.013M175.006 526.159l.48-.129c3.072-.721 6.192.659 8.636 2.438l.563.43M168.626 528.184l-.008.008M193.72 761.34l-5.22 2.286M182.048 762.16l-.526-.312c-2.865-1.871-5.164-4.4-7.138-7.17l-.464-.674M168.566 528.445l1.964 82.779M170.626 615.181l1.624 68.473M172.377 688.985l1.543 65.019M184.852 529.036l-.167-.139M182.048 762.16l.188.112M174.924 526.192l-6.298 1.99" style="fill:none;stroke:#00ff4a;stroke-width:1.99866;stroke-linecap:round;stroke-linejoin:round;stroke-miterlimit:4;stroke-dasharray:none;stroke-opacity:1;visibility:visible" visibility="hidden"/><path d="m193.808 761.225.022-.139.023-.134" style="fill:none;stroke:#00ff4a;stroke-width:1.99866;stroke-linecap:round;stroke-linejoin:round;stroke-miterlimit:4;stroke-dasharray:none;stroke-opacity:1;visibility:visible" visibility="hidden"/><path d="m195.833 664.844-2.293-4.932" style="fill:none;stroke:#00ff4a;stroke-width:.999997;stroke-linecap:round;stroke-linejoin:round;stroke-miterlimit:4;stroke-dasharray:none;stroke-opacity:1;visibility:visible" visibility="hidden"/><path d="m170.626 615.181-.096-3.957M170.53 611.224l.096 3.957M172.377 688.985l-.127-5.331M172.25 683.654l.127 5.331" style="fill:none;stroke:#00ff4a;stroke-width:1.99866;stroke-linecap:round;stroke-linejoin:round;stroke-miterlimit:4;stroke-dasharray:none;stroke-opacity:1;visibility:visible" visibility="hidden"/><path d="M261.866 523.388h-.405" style="fill:none;stroke:#9500ff;stroke-width:.999997;stroke-linecap:round;stroke-linejoin:round;stroke-miterlimit:4;stroke-dasharray:none;stroke-opacity:1;visibility:visible" visibility="hidden"/><path d="m339.988 691.941.198.167c.673.486 1.224.106 1.257-.672l-.008-.268-.045-.284c-.127-1.036-1.65-2.555-2.108-1.022l-.028.246M347.284 774.662l.194.17c.636.486 1.216.18 1.25-.604l-.008-.266-.045-.272c-.115-1.001-1.635-2.556-2.088-1.077l-.027.24" style="fill:none;stroke:#9500ff;stroke-width:.666665;stroke-linecap:round;stroke-linejoin:round;stroke-miterlimit:4;stroke-dasharray:none;stroke-opacity:1;visibility:visible" visibility="hidden"/><path d="m366.31 750.313-.04-.303c-.142-1.257-1.509-3.506-3.018-3.11l-.18.089M365.36 752.233l.185-.063c.585-.268.783-.968.773-1.562l-.008-.294M348.332 601.376l-.014-.008-.023-.005M341.763 603.892l-.17.077-.175.082M365.746 866.805l.172.052.172.053M341.763 603.892l.383.121.366.123M348.28 601.9l-5.767 2.236M363.06 753.256l2.586-1.162" style="fill:none;stroke:#9500ff;stroke-width:.999997;stroke-linecap:round;stroke-linejoin:round;stroke-miterlimit:4;stroke-dasharray:none;stroke-opacity:1;visibility:visible" visibility="hidden"/><path d="m366.752 866.627-.33.139-.33.145M331.48 595.084l.576-.203c4.776-1.437 9.681.846 13.361 3.809l.673.571M323.713 598.144l.412-.208.413-.197.42-.175M372.083 863.769l-5.33 2.86M346.24 599.381l.531.472.525.491.518.508.516.524M348.332 601.376l23.81 262.01" style="fill:none;stroke:#9500ff;stroke-width:1.99866;stroke-linecap:round;stroke-linejoin:round;stroke-miterlimit:4;stroke-dasharray:none;stroke-opacity:1;visibility:visible" visibility="hidden"/><path d="m324.957 597.565.569-.194c5.734-1.738 11.712 1.941 15.608 5.873l.63.65M365.746 866.805l-24.327-262.752" style="fill:none;stroke:#9500ff;stroke-width:.999997;stroke-linecap:round;stroke-linejoin:round;stroke-miterlimit:4;stroke-dasharray:none;stroke-opacity:1;visibility:visible" visibility="hidden"/><path d="m346.24 599.381-.15-.121M356.16 864.943l.186.107M331.48 595.084l-6.523 2.48M372.132 863.68v-.15l.008-.144M323.706 598.415v-.138l.007-.132M372.083 863.769l.021-.044.031-.045M366.092 866.911l-.532.14c-2.934.659-5.973-.257-8.56-1.631l-.653-.369M356.16 864.943l-.625-.373c-2.275-1.427-4.273-3.233-6.087-5.205l-.577-.659M323.706 598.415l9.061 93.733M333.188 696.49l7.564 78.252M341.172 779.076l7.7 79.633" style="fill:none;stroke:#9500ff;stroke-width:1.99866;stroke-linecap:round;stroke-linejoin:round;stroke-miterlimit:4;stroke-dasharray:none;stroke-opacity:1;visibility:visible" visibility="hidden"/><path d="m365.646 752.094-2.574-5.105" style="fill:none;stroke:#9500ff;stroke-width:.999997;stroke-linecap:round;stroke-linejoin:round;stroke-miterlimit:4;stroke-dasharray:none;stroke-opacity:1;visibility:visible" visibility="hidden"/><path d="m333.188 696.49-.421-4.342M332.767 692.148l.421 4.342M341.172 779.076l-.42-4.334M340.752 774.742l.42 4.334" style="fill:none;stroke:#9500ff;stroke-width:1.99866;stroke-linecap:round;stroke-linejoin:round;stroke-miterlimit:4;stroke-dasharray:none;stroke-opacity:1;visibility:visible" visibility="hidden"/><path d="m670.566 703.85-3.745 2.003" style="fill:none;stroke:#ffdf00;stroke-width:1.99866;stroke-linecap:round;stroke-linejoin:round;stroke-miterlimit:4;stroke-dasharray:none;stroke-opacity:1;visibility:visible" visibility="hidden"/><path d="m690.562 536.575.028-.128.084-.187M690.674 536.261l.112-.158c1.43-1.187 2.754 2.35.882 2.337l-.191-.05M691.472 607.772l.112-.152c1.414-1.121 2.729 2.373.872 2.313l-.19-.052M685.245 681.665l.015.01h.02M700.905 464.659l-.15.067-.142.069M702.044 686.733l.14.044.136.039M701.489 464.86l-.292-.1-.292-.102M700.905 464.659l-.592-.496c-4.31-3.51-10.016-5.424-15.467-3.644l-.6.212M701.489 464.86l3.764-1.456M702.044 686.733l-1.432-221.938" style="fill:none;stroke:#ffdf00;stroke-width:.999997;stroke-linecap:round;stroke-linejoin:round;stroke-miterlimit:4;stroke-dasharray:none;stroke-opacity:1;visibility:visible" visibility="hidden"/><path d="m684.248 460.731-.451.177-.443.198-.433.214M682.92 461.32l-.04.04-.036.04M702.876 686.574l3.568-1.912-1.192-221.256-.046-.203-.045-.196-.591-.493c-4.258-3.495-10.06-5.398-15.45-3.619l-.6.208M685.17 681.241l-.702-66.476M684.422 610.565l-.074-7.11M684.629 594.47l-.673-50.285M683.88 538.685l-1.035-77.285" style="fill:none;stroke:#ffdf00;stroke-width:1.99866;stroke-linecap:round;stroke-linejoin:round;stroke-miterlimit:4;stroke-dasharray:none;stroke-opacity:1;visibility:visible" visibility="hidden"/><path d="m702.32 686.816.279-.118.278-.125M684.248 460.731l4.272-1.628M685.169 681.241l.036.219.04.205" style="fill:none;stroke:#ffdf00;stroke-width:1.99866;stroke-linecap:round;stroke-linejoin:round;stroke-miterlimit:4;stroke-dasharray:none;stroke-opacity:1;visibility:visible" visibility="hidden"/><path d="m685.245 681.665.555.521c4.234 3.82 10.23 6.471 15.96 4.818l.562-.188" style="fill:none;stroke:#ffdf00;stroke-width:1.99866;stroke-linecap:round;stroke-linejoin:round;stroke-miterlimit:4;stroke-dasharray:none;stroke-opacity:1;visibility:visible" visibility="hidden"/><path d="m694.577 596.121-.097.175-.12.145-.136.139-.147.112-.167.088M691.825 592.444l.172-.065.19-.047.185-.016h.197l.2.033M692.772 592.348l.208.06c1.32.45 2.169 2.201 1.688 3.512l-.091.2M689.26 593.655l.19-.079c2.103-.513 3.812 3.001 2.076 4.321l-.181.099M691.344 597.996l2.565-1.216" style="fill:none;stroke:#ffdf00;stroke-width:.999997;stroke-linecap:round;stroke-linejoin:round;stroke-miterlimit:4;stroke-dasharray:none;stroke-opacity:1;visibility:visible" visibility="hidden"/><path d="m691.345 597.996-.136.057c-2.363.774-4.215-3.208-1.947-4.398l2.562-1.211M732.849 513.882a.373.373 0 0 0-.022-.027l-.014-.02a.133.133 0 0 1-.014-.015l-.009-.01a.036.036 0 0 0-.01-.01l-.008-.01-.008-.012a.063.063 0 0 1-.014-.014l-.012-.012a.032.032 0 0 0-.01-.012.205.205 0 0 0-.016-.017l-.024-.024-.023-.024-.017-.017-.008-.008-.007-.007a.016.016 0 0 0-.007-.007l-.008-.008-.016-.014a.141.141 0 0 0-.02-.02l-.026-.024M732.559 513.569l-.103-.096M723.555 519.35l-.312.141M731.987 513.095l-.02-.013-.014-.012-.016-.007-.008-.007-.01-.005-.018-.012-.021-.012-.011-.005-.01-.007-.011-.007a.037.037 0 0 1-.018-.01.027.027 0 0 1-.013-.006l-.015-.008-.01-.004-.013-.01-.015-.007-.02-.008a.032.032 0 0 0-.017-.01l-.021-.009-.019-.009-.014-.008-.023-.01-.022-.009a.13.13 0 0 0-.02-.008l-.013-.005-.018-.008a.07.07 0 0 0-.02-.007.117.117 0 0 0-.02-.006l-.017-.008c-.004-.002-.007-.002-.012-.006l-.024-.006-.024-.008-.026-.01-.022-.006-.026-.007-.026-.008-.026-.007-.021-.005-.019-.005-.02-.004c-.008 0-.014-.003-.023-.006l-.039-.008-.038-.008a.385.385 0 0 0-.038-.004c-.011-.004-.025-.004-.036-.008a.137.137 0 0 1-.031-.004.61.61 0 0 1-.03-.004l-.041-.004-.042-.005-.047-.003-.049-.001a.488.488 0 0 0-.044-.003h-.09l-.061.002-.061.002-.066.004-.065.006a.339.339 0 0 1-.039.005l-.038.005-.036.004a.255.255 0 0 0-.03.006h-.017a.079.079 0 0 1-.019.005l-.02.003-.023.004-.037.006-.04.008a.488.488 0 0 0-.043.01l-.041.009-.047.01c-.028.011-.059.016-.089.026l-.096.027a1.09 1.09 0 0 0-.093.03l-.097.034-.083.032-.085.033c-.011.005-.02.01-.032.013a.136.136 0 0 1-.028.014l-.026.012-.018.009a.05.05 0 0 0-.02.007l-.011.006-.011.006-.008.004a.168.168 0 0 1-.013.004l-.03.014-.033.018-.036.017a.559.559 0 0 0-.04.02l-.04.021-.042.022-.072.04-.075.044a.953.953 0 0 0-.079.048.62.62 0 0 0-.082.052 1.017 1.017 0 0 0-.086.054l-.09.06a5.5 5.5 0 0 1-.09.067 1.961 1.961 0 0 0-.105.079 2.797 2.797 0 0 0-.105.082l-.102.088a1.67 1.67 0 0 0-.101.089l-.1.089-.11.106c-.035.038-.068.076-.105.11l-.104.112-.101.116c-.033.037-.065.078-.096.117l-.079.101c-.026.035-.052.067-.077.103a2.77 2.77 0 0 0-.073.101l-.07.104a4.403 4.403 0 0 0-.067.102l-.059.098-.062.106-.056.1a1.347 1.347 0 0 0-.05.099l-.046.091-.04.087-.037.081a.446.446 0 0 1-.023.05l-.018.05-.016.04c-.004.015-.012.026-.016.039a.06.06 0 0 0-.007.023.077.077 0 0 0-.01.024l-.012.026-.011.034-.012.037-.034.1c-.01.035-.022.07-.033.104l-.027.11-.028.114-.024.117-.02.123-.006.041-.006.042-.004.04-.004.037-.002.03-.003.027-.001.023-.003.02v.017l-.001.014-.002.016v.024l-.002.046-.002.05v.034l.002.029v.067l.002.024.002.03v.034l.006.035.002.037a1.48 1.48 0 0 1 .004.036l.005.038.004.036.005.034.007.03c0 .009.003.016.004.026a.127.127 0 0 0 .005.024l.003.02.003.018a.088.088 0 0 0 .005.02l.004.022.007.022.006.028.008.036.012.034a.153.153 0 0 0 .01.032l.008.038.01.03a.207.207 0 0 1 .012.03.24.24 0 0 1 .008.03c.008.003.008.006.008.009l.006.01a.04.04 0 0 0 .002.011l.004.011.004.013.01.02a.11.11 0 0 0 .008.02c.005.011.006.021.012.029M732.318 520.335l-.004-.053-.002-.047-.004-.039v-.038l-.002-.028-.001-.02v-.018l-.001-.01v-.022l-.002-.012v-.03l-.001-.022v-.024l-.002-.026v-.242l.002-.064.001-.06.003-.056.001-.052.004-.046.002-.043v-.039l.005-.032v-.03l.003-.023.001-.021.001-.016.001-.012v-.007l.005-.04.002-.035.004-.04a.525.525 0 0 1 .006-.045l.006-.053c0-.016.004-.035.005-.054l.007-.058.01-.064.009-.071.011-.073.019-.091.017-.096.019-.097.024-.106.026-.106.033-.115.022-.073c.005-.024.015-.047.019-.071l.023-.068.021-.064c.009-.02.014-.041.02-.061l.011-.032a.212.212 0 0 0 .01-.027l.007-.02.005-.016.004-.008a.032.032 0 0 0 .002-.01l.008-.016.005-.019.027-.066.026-.076a1.333 1.333 0 0 1 .029-.077c.011-.028.025-.055.033-.081l.034-.086a1.1 1.1 0 0 0 .034-.09 2.64 2.64 0 0 0 .078-.181l.036-.086.033-.083a1.01 1.01 0 0 1 .024-.056l.021-.054c.008-.018.01-.034.018-.051a.077.077 0 0 0 .006-.019l.008-.017.009-.021c-.001-.01.004-.018.006-.026a.363.363 0 0 1 .016-.033.324.324 0 0 1 .012-.041M732.43 513.45l-.105-.093M725.798 520.215l-.028.021-.024.012-.02.01-.014.007-.012.003h-.01c-.002.003-.005.003-.006.003h-.006M726.664 518.127a.067.067 0 0 1 .01.023l.01.018.006.014.003.008.003.009.004.007.004.008.004.009.002.007.003.008c.001 0 .003.004.003.009l.004.008.002.01.006.008v.007l.006.01.002.01.008.026.005.029a1.257 1.257 0 0 1 .008.033l.003.03.008.03.002.028.004.027.002.03.002.034c0 .013 0 .023.003.036v.072c-.003.005-.003.013-.004.021v.019l-.003.023-.001.026-.003.03-.004.032-.005.034-.011.053-.007.05-.013.053c-.008.016-.011.032-.017.05l-.015.046-.013.042-.013.033-.014.03a.293.293 0 0 1-.012.026l-.012.031-.014.029-.014.025-.014.028-.016.032a.36.36 0 0 1-.022.039l-.024.041-.031.05a.376.376 0 0 0-.036.052l-.034.046-.033.047-.042.05-.046.055-.05.053c-.014.02-.034.036-.053.058a1.136 1.136 0 0 1-.057.054.53.53 0 0 1-.064.06c-.022.019-.047.039-.068.059l-.078.06-.076.061-.061.042M733.131 516.432c.011-.03.02-.06.029-.09l.028-.083.019-.081.022-.075.016-.07.014-.067.011-.058a.379.379 0 0 1 .01-.056l.01-.052a.659.659 0 0 0 .007-.05l.006-.048.007-.042.003-.034.003-.026a.121.121 0 0 0 0-.022.07.07 0 0 0 .003-.018l.001-.016a.033.033 0 0 0 .001-.012.045.045 0 0 0 .001-.012l.001-.02.002-.022v-.028l.001-.031v-.036l.001-.035v-.118l-.003-.043v-.039l-.002-.038-.004-.043-.004-.041-.004-.04a.53.53 0 0 1-.011-.064l-.004-.026-.003-.022a.447.447 0 0 0-.005-.024l-.003-.022a.078.078 0 0 0-.006-.021l-.005-.027a.19.19 0 0 1-.005-.026l-.006-.026-.006-.025a.076.076 0 0 0-.006-.019.11.11 0 0 0-.005-.02l-.005-.02-.01-.036-.013-.036-.01-.032a.147.147 0 0 0-.01-.032c-.005-.006-.007-.014-.01-.02l-.004-.021-.006-.015-.01-.017c.001-.005-.004-.013-.007-.021a.237.237 0 0 0-.011-.031l-.014-.028a.179.179 0 0 0-.015-.032.047.047 0 0 0-.014-.023l-.005-.02-.011-.017a.036.036 0 0 0-.007-.013.021.021 0 0 0-.003-.012.035.035 0 0 1-.007-.012l-.01-.018-.01-.016-.007-.012c0-.004-.001-.005-.004-.008l-.004-.008c0-.004-.003-.006-.006-.01l-.007-.01-.007-.016-.014-.021-.011-.015-.008-.017a.076.076 0 0 1-.01-.017l-.014-.018-.013-.02a.041.041 0 0 1-.011-.016.123.123 0 0 0-.007-.01l-.01-.014-.01-.014a.117.117 0 0 1-.01-.014l-.006-.01-.008-.005c-.004-.006-.004-.011-.008-.014l-.013-.017-.016-.023" style="fill:none;stroke:#ffdf00;stroke-width:.999997;stroke-linecap:round;stroke-linejoin:round;stroke-miterlimit:4;stroke-dasharray:none;stroke-opacity:1;visibility:visible" visibility="hidden"/><path d="M732.849 513.882c-.007-.008-.014-.018-.023-.024a.056.056 0 0 0-.014-.02.04.04 0 0 0-.014-.016l-.008-.012a.031.031 0 0 0-.01-.01.087.087 0 0 1-.008-.008l-.008-.012-.015-.017a.059.059 0 0 1-.01-.012l-.013-.011-.014-.015-.022-.023-.025-.024c-.007-.006-.01-.015-.017-.02l-.011-.01a.067.067 0 0 0-.01-.01l-.008-.01-.013-.01c-.005-.003-.006-.008-.012-.01l-.017-.018a.087.087 0 0 0-.021-.018M732.85 513.88l-.001-.001M731.99 513.094h0M725.8 520.215l.001-.001M726.017 520.083c.077-.05.152-.101.23-.148l.114-.072a1.59 1.59 0 0 1 .127-.067M730.088 519.83l.005.188M726.486 519.798a36.835 36.835 0 0 1 1.139-.542c.183-.082.365-.156.549-.225.182-.068.364-.125.547-.171.184-.046.369-.077.549-.077a1.047 1.047 0 0 1 .26.031.607.607 0 0 1 .396.286.864.864 0 0 1 .092.224c.023.08.038.163.05.248.009.086.014.172.019.259M732.867 514.575a1.356 1.356 0 0 0-.557-.51 1.737 1.737 0 0 0-.245-.095 1.96 1.96 0 0 0-.863-.047 2.976 2.976 0 0 0-.636.167 3.488 3.488 0 0 0-.326.14 4.38 4.38 0 0 0-.942.629 4.893 4.893 0 0 0-.796.864 4.792 4.792 0 0 0-.404.653 4.056 4.056 0 0 0-.266.67 3.075 3.075 0 0 0-.122.657 2.185 2.185 0 0 0 .036.596c.038.187.1.357.19.507M730.093 520.019c0 .088 0 .177-.005.27a1.968 1.968 0 0 1-.111.569 1.515 1.515 0 0 1-.148.299 2.119 2.119 0 0 1-.213.276 2.676 2.676 0 0 1-.254.24 5.772 5.772 0 0 1-.537.404 13.968 13.968 0 0 1-1.665.966 27.807 27.807 0 0 1-.572.257M700.613 464.795l4.64-1.391" style="fill:none;stroke:#ffdf00;stroke-width:.999997;stroke-linecap:round;stroke-linejoin:round;stroke-miterlimit:4;stroke-dasharray:none;stroke-opacity:1;visibility:visible" visibility="hidden"/><path d="m684.422 610.565.046 4.2M684.468 614.765l-.046-4.2M684.629 594.47l-.281 8.985M684.348 603.455l.281-8.985M683.88 538.685l.076 5.5M683.956 544.185l-.076-5.5" style="fill:none;stroke:#ffdf00;stroke-width:1.99866;stroke-linecap:round;stroke-linejoin:round;stroke-miterlimit:4;stroke-dasharray:none;stroke-opacity:1;visibility:visible" visibility="hidden"/><path d="m691.824 592.444-2.564 1.211M726.486 519.798l-2.931-.448M726.488 519.796l-3.245-.305M730.093 520.019l2.225.316M726.664 518.127l1.272.679M726.488 519.796l.1 3.504" style="fill:none;stroke:#ffdf00;stroke-width:.999997;stroke-linecap:round;stroke-linejoin:round;stroke-miterlimit:4;stroke-dasharray:none;stroke-opacity:1;visibility:visible" visibility="hidden"/><path d="m523.5 616.824.13.055.12.051M542.76 420.682l-.253-.128-.264-.119M542.244 420.435l-.467-.55c-3.445-3.982-8.729-7.076-14.137-5.715l-.525.148M527.115 414.318h-.01M542.76 420.682l3.823-1.243M539.977 441.598l1.988-21.07M523.5 616.824l.757-7.99M527.115 414.518v-.2" style="fill:none;stroke:#00d4ff;stroke-width:.999997;stroke-linecap:round;stroke-linejoin:round;stroke-miterlimit:4;stroke-dasharray:none;stroke-opacity:1;visibility:visible"/><path d="m542.244 420.435-.143.045-.134.047" style="fill:none;stroke:#00d4ff;stroke-width:.999997;stroke-linecap:round;stroke-linejoin:round;stroke-miterlimit:4;stroke-dasharray:none;stroke-opacity:1;visibility:visible"/><path d="m510.553 610.827.054.06M527.105 414.318l4.283-1.36M509.685 609.337v.208l-.008.211.016.016.007.015M510.605 610.887l.451.502c3.045 3.307 7.53 6.148 12.204 5.607l.488-.066M523.75 616.93l.26-.081.266-.077M527.105 414.318l-.014.005-.014.008M544.343 442.915l2.241-23.477v-.206l-.007-.2-.466-.552c-3.463-3.99-8.711-7.04-14.132-5.694l-.523.15-.03.014-.039.008M524.273 616.772l3.628-1.588.451-4.73M525.044 437.075l2.032-22.745M509.685 609.337l.54-6.062M509.699 609.787l.421.525.432.515" style="fill:none;stroke:#00d4ff;stroke-width:1.99866;stroke-linecap:round;stroke-linejoin:round;stroke-miterlimit:4;stroke-dasharray:none;stroke-opacity:1;visibility:visible"/><path d="m541.967 420.527 4.616-1.088M509.685 609.337l14.572-.503" style="fill:none;stroke:#00d4ff;stroke-width:.999997;stroke-linecap:round;stroke-linejoin:round;stroke-miterlimit:4;stroke-dasharray:none;stroke-opacity:1;visibility:visible"/><path d="m523.5 616.824 4.852-6.37M523.5 616.824l-13.275-13.549" style="fill:none;stroke:#00d4ff;stroke-width:1.99866;stroke-linecap:round;stroke-linejoin:round;stroke-miterlimit:4;stroke-dasharray:none;stroke-opacity:1;visibility:visible"/><path d="m401.895 609.532.503 6.453M509.685 609.337l-15.625-10.029M348.28 601.9l5.72 17.8M523.5 616.824l11.965-3.614" style="fill:none;stroke:red;stroke-width:1.99866;stroke-linecap:round;stroke-linejoin:round;stroke-miterlimit:4;stroke-dasharray:none;stroke-opacity:1;visibility:visible" visibility="hidden"/><path d="m225.226 663.676.964 2.333M225.046 683.894l3.577 16.118M392.719 785.6l9.752 1.983" style="fill:none;stroke:red;stroke-width:.666665;stroke-linecap:round;stroke-linejoin:round;stroke-miterlimit:4;stroke-dasharray:none;stroke-opacity:1;visibility:visible" visibility="hidden"/><path d="m507.628 439.263 17.416-2.188" style="fill:none;stroke:#00d4ff;stroke-width:1.99866;stroke-linecap:round;stroke-linejoin:round;stroke-miterlimit:4;stroke-dasharray:none;stroke-opacity:1;visibility:visible"/></svg>