<svg xmlns="http://www.w3.org/2000/svg" baseProfile="full" height="1122.52" preserveAspectRatio="xMinYMin meet" style="width:729px;height:902px" width="793.701" xml:space="preserve"><path d="m346.307 893.24.059-4.39M155.992 935.458l-.096.097-.1.097M313.974 1012.038l-.014-.024-.021-.024M313.537 1006.77l-.014 4.97M313.998 1006.071l.735-.147.726-.172.704-.185.699-.201.683-.207.668-.23.645-.237.63-.251.608-.269.587-.276.57-.285.55-.299.517-.312.506-.328.477-.324.45-.342.423-.348.401-.363.372-.365.35-.372.318-.378.29-.384.259-.394.23-.394.207-.4.171-.401.148-.408M155.992 935.458l158.006 70.612M307.575 867.73l-.09.083-.087.082M439.794 942.747l-.024-.03-.02-.037M439.362 942.404l.198-4.637M424.742 923.85l.14.064.164.053.176.05.186.033.186.02.192.016.193-.007.193-.016.178-.03.164-.038.148-.048.133-.067.11-.07.091-.08.067-.083.036-.09.016-.087-.023-.098-.038-.086-.072-.09-.09-.08-.121-.086-.131-.065-.158-.058-.16-.052-.187-.047-.185-.028-.194-.015h-.193l-.185.008-.186.024-.17.035-.162.044-.144.054-.116.065-.105.073-.075.083-.05.089-.03.09.007.09.03.094.053.09.08.088.105.082.127.076M440.036 937.18l.692-.073.688-.083.675-.097.669-.104.653-.117.647-.142.62-.14.618-.166.6-.16.578-.186.564-.192.55-.204.528-.212.5-.23.492-.23.46-.246.446-.252.423-.266.401-.266.37-.284.349-.289.327-.289.296-.305.274-.304.252-.31.215-.319.2-.328M307.575 867.73l132.463 69.45M433.866 928.302l.128.058.138.044.15.031.162.02.164.01h.163l.147-.024.148-.027.128-.047.112-.052.088-.057.06-.068.045-.075.005-.081-.013-.075-.044-.073-.075-.076-.096-.066-.112-.057-.134-.055-.147-.036-.156-.029-.164-.015-.156-.009-.164.017-.148.02-.132.038-.12.052-.103.053-.073.064-.052.077-.023.072v.074l.03.082.058.075.083.067.103.068M417.122 919.767l.132.061.149.052.17.038.169.03.181.019h.176l.179-.005.17-.022.162-.032.15-.044.126-.058.112-.06.081-.076.06-.074.036-.089.008-.08-.013-.082-.046-.09-.073-.081-.09-.074-.121-.067-.132-.06-.154-.049-.166-.044-.168-.033-.18-.014-.176-.007-.178.007-.171.022-.163.036-.148.047-.128.05-.102.07-.09.062-.06.083-.038.083-.007.08.017.09.044.081.074.083.088.076.12.072M326.745 997.334l112.463-60.227M327.153 1002.947l.036-4.924M216.15 948.814l55.027-25.664M295.807 911.665l50.236-23.428" style="fill:none;stroke:red;stroke-width:.999997;stroke-linecap:round;stroke-linejoin:round;stroke-miterlimit:4;stroke-dasharray:none;stroke-opacity:1;visibility:visible" visibility="hidden"/><path d="m345.974 893.505-50.101 23.548M271.026 928.73l-49 23.028M331.58 880.646l-34.712 15.844M265.263 910.915l-54.089 24.688" style="fill:none;stroke:red;stroke-width:1.99999;stroke-linecap:round;stroke-linejoin:round;stroke-miterlimit:4;stroke-dasharray:none;stroke-opacity:1;visibility:visible" visibility="hidden"/><path d="m346.042 888.237.324.61" style="fill:none;stroke:red;stroke-width:.999997;stroke-linecap:round;stroke-linejoin:round;stroke-miterlimit:4;stroke-dasharray:none;stroke-opacity:1;visibility:visible" visibility="hidden"/><path d="m311.15 990.494-.341.236M345.974 893.505l.333-.266" style="fill:none;stroke:red;stroke-width:1.99999;stroke-linecap:round;stroke-linejoin:round;stroke-miterlimit:4;stroke-dasharray:none;stroke-opacity:1;visibility:visible" visibility="hidden"/><path d="m439.362 942.404.198-4.637" style="fill:none;stroke:red;stroke-width:.999997;stroke-linecap:round;stroke-linejoin:round;stroke-miterlimit:4;stroke-dasharray:none;stroke-opacity:1;visibility:visible" visibility="hidden"/><path d="m438.963 942.671-111.818 60.337M426.002 930.175 311.15 990.492" style="fill:none;stroke:red;stroke-width:1.99999;stroke-linecap:round;stroke-linejoin:round;stroke-miterlimit:4;stroke-dasharray:none;stroke-opacity:1;visibility:visible" visibility="hidden"/><path d="m439.207 937.107.355.66" style="fill:none;stroke:red;stroke-width:.999997;stroke-linecap:round;stroke-linejoin:round;stroke-miterlimit:4;stroke-dasharray:none;stroke-opacity:1;visibility:visible" visibility="hidden"/><path d="m188.842 937.192-19.562-8.586M450.112 939.664l.148-.094M308.693 866.665l-.14.11M453.124 931.387l.09.075.096.066M307.389 872.74l.088.067.089.067M308.553 866.777l-.26.213-.253.224-.23.223-.213.229-.2.23M307.397 867.895l-.068.218-.06.221M307.389 872.74l-.06-.06-.06-.067M453.31 931.528l.042.056.039.06M453.059 936.75l.059-.25.05-.25M450.26 939.57l.38-.26.354-.262.336-.262.318-.278.29-.28.265-.284.253-.297.224-.296.2-.295.18-.306M453.168 936.251l.223-4.607M307.27 872.614v-4.28M439.794 942.747l.682-.076.682-.083.668-.094.66-.104.654-.12.628-.134.624-.15.608-.154.595-.169.579-.179.556-.192.54-.202.529-.216.504-.222.481-.229.47-.245.436-.252.422-.262M326.595 882.925l-19.03-10.052M420.994 932.811l-74.768-39.513M439.794 942.747l-.522-.277M320.369 863.014l-.629.05-.63.068-.616.074-.616.09-.6.094-.595.115-.585.109-.573.125-.563.143-.548.141-.541.157-.53.161-.501.177-.499.179-.473.193-.468.193-.439.208-.43.207-.409.224-.384.23-.373.23-.347.236-.329.245M453.124 931.387l-23.873-12.294M422.292 915.507 320.37 863.014M438.963 942.671l.4-.267" style="fill:none;stroke:red;stroke-width:1.99999;stroke-linecap:round;stroke-linejoin:round;stroke-miterlimit:4;stroke-dasharray:none;stroke-opacity:1;visibility:visible" visibility="hidden"/><path d="m216.023 949.122-4.18-1.835" style="fill:none;stroke:red;stroke-width:.999997;stroke-linecap:round;stroke-linejoin:round;stroke-miterlimit:4;stroke-dasharray:none;stroke-opacity:1;visibility:visible" visibility="hidden"/><path d="m309.973 990.36-13.913-6.105M271.59 973.514l-55.568-24.39" style="fill:none;stroke:red;stroke-width:1.99999;stroke-linecap:round;stroke-linejoin:round;stroke-miterlimit:4;stroke-dasharray:none;stroke-opacity:1;visibility:visible" visibility="hidden"/><path d="m326.922 997.8-16.95-7.44" style="fill:none;stroke:red;stroke-width:.999997;stroke-linecap:round;stroke-linejoin:round;stroke-miterlimit:4;stroke-dasharray:none;stroke-opacity:1;visibility:visible" visibility="hidden"/><path d="m155.93 940.78-.22-4.625M313.974 1012.038l.726-.156.707-.163.699-.189.688-.191.668-.207.65-.224.643-.238.614-.246.6-.256.58-.274.564-.284.54-.298.521-.302.496-.311M313.974 1012.038l-157.716-71.023M169.28 928.606l-.686.124-.674.134-.668.148-.66.156-.643.178-.641.178-.622.194-.614.206-.595.216-.579.223-.564.237-.55.244-.531.254-.513.26-.498.274-.474.275-.454.288-.43.297-.414.296-.386.314" style="fill:none;stroke:red;stroke-width:1.99999;stroke-linecap:round;stroke-linejoin:round;stroke-miterlimit:4;stroke-dasharray:none;stroke-opacity:1;visibility:visible" visibility="hidden"/><path d="m327.153 1002.947.036-4.924" style="fill:none;stroke:red;stroke-width:.999997;stroke-linecap:round;stroke-linejoin:round;stroke-miterlimit:4;stroke-dasharray:none;stroke-opacity:1;visibility:visible" visibility="hidden"/><path d="m327.086 1003.514.028-.284.039-.282M322.82 1008.592l.465-.314.441-.331.423-.33.391-.344.37-.355.344-.358.325-.362.288-.37.276-.381.237-.377.215-.386.195-.386.163-.392.133-.394" style="fill:none;stroke:red;stroke-width:1.99999;stroke-linecap:round;stroke-linejoin:round;stroke-miterlimit:4;stroke-dasharray:none;stroke-opacity:1;visibility:visible" visibility="hidden"/><path d="m327.122 997.924.037.047.031.052" style="fill:none;stroke:red;stroke-width:.999997;stroke-linecap:round;stroke-linejoin:round;stroke-miterlimit:4;stroke-dasharray:none;stroke-opacity:1;visibility:visible" visibility="hidden"/><path d="m156.06 940.891.093.065.105.06M157.942 933.22l-.34.287-.32.293-.305.302-.273.305-.262.304-.236.313-.214.31-.194.318M155.798 935.652l-.044.251-.044.253M156.06 940.891l-.068-.053-.062-.059" style="fill:none;stroke:red;stroke-width:1.99999;stroke-linecap:round;stroke-linejoin:round;stroke-miterlimit:4;stroke-dasharray:none;stroke-opacity:1;visibility:visible" visibility="hidden"/><path d="m326.922 997.8.095.06.103.066" style="fill:none;stroke:red;stroke-width:.999997;stroke-linecap:round;stroke-linejoin:round;stroke-miterlimit:4;stroke-dasharray:none;stroke-opacity:1;visibility:visible" visibility="hidden"/><path d="m322.67 1008.7.15-.106M158.084 933.1l-.14.12" style="fill:none;stroke:red;stroke-width:1.99999;stroke-linecap:round;stroke-linejoin:round;stroke-miterlimit:4;stroke-dasharray:none;stroke-opacity:1;visibility:visible" visibility="hidden"/><path d="M186.52 648.93a2.247 2.247 0 0 0-.74-.11c-.251 0-.495.045-.734.128M185.044 648.948a.807.807 0 0 0-.335.212" style="fill:none;stroke:red;stroke-width:.999997;stroke-linecap:round;stroke-linejoin:round;stroke-miterlimit:2;stroke-dasharray:none;stroke-opacity:1;visibility:visible" visibility="hidden"/><path d="M186.858 649.139a.848.848 0 0 0-.34-.209" style="fill:none;stroke:red;stroke-width:.999997;stroke-linecap:round;stroke-linejoin:round;stroke-miterlimit:2;stroke-dasharray:none;stroke-opacity:1;visibility:visible" visibility="hidden"/><path d="M187.293 650.007a.278.278 0 0 0 .083-.204.304.304 0 0 0-.08-.195M184.284 649.645a.261.261 0 0 0-.078.195.32.32 0 0 0 .086.205M184.292 650.045a1.208 1.208 0 0 0 .477.285M184.769 650.33c.335.11.681.157 1.03.157a3.293 3.293 0 0 0 1.027-.179M186.826 650.308a1.204 1.204 0 0 0 .47-.301" style="fill:none;stroke:red;stroke-width:.666665;stroke-linecap:round;stroke-linejoin:round;stroke-miterlimit:2;stroke-dasharray:none;stroke-opacity:1;visibility:visible" visibility="hidden"/><path d="m187.376 649.804.064 5.659M184.206 649.839l.066 5.697M186.866 649.143l.43.466M184.697 649.167l-.415.48" style="fill:none;stroke:red;stroke-width:.999997;stroke-linecap:round;stroke-linejoin:round;stroke-miterlimit:2;stroke-dasharray:none;stroke-opacity:1;visibility:visible" visibility="hidden"/><path d="m185.814 651.612.05 4.144" style="fill:none;stroke:red;stroke-width:.666665;stroke-linecap:round;stroke-linejoin:round;stroke-miterlimit:4;stroke-dasharray:none;stroke-opacity:1;visibility:visible" visibility="hidden"/><path d="M269.933 626.237a2.187 2.187 0 0 0-.704-.104 2.12 2.12 0 0 0-.706.122M268.523 626.255a.804.804 0 0 0-.318.202" style="fill:none;stroke:red;stroke-width:.999997;stroke-linecap:round;stroke-linejoin:round;stroke-miterlimit:2;stroke-dasharray:none;stroke-opacity:1;visibility:visible" visibility="hidden"/><path d="M270.255 626.437a.827.827 0 0 0-.324-.2" style="fill:none;stroke:red;stroke-width:.999997;stroke-linecap:round;stroke-linejoin:round;stroke-miterlimit:2;stroke-dasharray:none;stroke-opacity:1;visibility:visible" visibility="hidden"/><path d="M268.26 627.575a3.083 3.083 0 0 0 1.964-.022M270.223 627.553a1.159 1.159 0 0 0 .448-.286M270.671 627.268a.26.26 0 0 0 .079-.195.283.283 0 0 0-.076-.186M267.798 626.921a.247.247 0 0 0-.073.186.299.299 0 0 0 .081.193" style="fill:none;stroke:red;stroke-width:.666665;stroke-linecap:round;stroke-linejoin:round;stroke-miterlimit:2;stroke-dasharray:none;stroke-opacity:1;visibility:visible" visibility="hidden"/><path d="M267.806 627.303a1.13 1.13 0 0 0 .456.272" style="fill:none;stroke:red;stroke-width:.666665;stroke-linecap:round;stroke-linejoin:round;stroke-miterlimit:2;stroke-dasharray:none;stroke-opacity:1;visibility:visible" visibility="hidden"/><path d="m270.75 627.072.063 5.401M267.725 627.108l.061 5.437M270.263 626.441l.411.446M268.193 626.464l-.396.456" style="fill:none;stroke:red;stroke-width:.999997;stroke-linecap:round;stroke-linejoin:round;stroke-miterlimit:2;stroke-dasharray:none;stroke-opacity:1;visibility:visible" visibility="hidden"/><path d="m269.26 628.797.045 3.958" style="fill:none;stroke:red;stroke-width:.666665;stroke-linecap:round;stroke-linejoin:round;stroke-miterlimit:4;stroke-dasharray:none;stroke-opacity:1;visibility:visible" visibility="hidden"/><path d="M277.667 673.465a.872.872 0 0 0-.334-.207" style="fill:none;stroke:red;stroke-width:.999997;stroke-linecap:round;stroke-linejoin:round;stroke-miterlimit:2;stroke-dasharray:none;stroke-opacity:1;visibility:visible" visibility="hidden"/><path d="M277.333 673.258a2.325 2.325 0 0 0-1.454.02M275.88 673.278a.816.816 0 0 0-.33.208" style="fill:none;stroke:red;stroke-width:.999997;stroke-linecap:round;stroke-linejoin:round;stroke-miterlimit:2;stroke-dasharray:none;stroke-opacity:1;visibility:visible" visibility="hidden"/><path d="M275.609 674.638a3.17 3.17 0 0 0 2.025-.022M277.634 674.617a1.16 1.16 0 0 0 .463-.296M278.095 674.321a.268.268 0 0 0 .082-.2.299.299 0 0 0-.079-.193M275.131 673.966a.25.25 0 0 0-.074.19.307.307 0 0 0 .083.202" style="fill:none;stroke:red;stroke-width:.666665;stroke-linecap:round;stroke-linejoin:round;stroke-miterlimit:2;stroke-dasharray:none;stroke-opacity:1;visibility:visible" visibility="hidden"/><path d="M275.14 674.358c.139.134.295.227.47.28" style="fill:none;stroke:red;stroke-width:.666665;stroke-linecap:round;stroke-linejoin:round;stroke-miterlimit:2;stroke-dasharray:none;stroke-opacity:1;visibility:visible" visibility="hidden"/><path d="m278.177 674.121.063 5.572M275.057 674.156l.062 5.61M277.675 673.47l.423.458M275.54 673.494l-.41.472" style="fill:none;stroke:red;stroke-width:.999997;stroke-linecap:round;stroke-linejoin:round;stroke-miterlimit:2;stroke-dasharray:none;stroke-opacity:1;visibility:visible" visibility="hidden"/><path d="m276.64 675.9.046 4.084" style="fill:none;stroke:red;stroke-width:.666665;stroke-linecap:round;stroke-linejoin:round;stroke-miterlimit:4;stroke-dasharray:none;stroke-opacity:1;visibility:visible" visibility="hidden"/><path d="m262.806 632.112 16.419 4.735M280.01 636.846h-.784M284.04 635.725l.007-.223M284.04 635.725l-4.03 1.121M276.76 635.184l.135.037.148.022.154.014.172.015h.178l.17-.005.163-.016.157-.023.139-.03.12-.035.097-.046.074-.044.044-.044.016-.052-.016-.044-.044-.053-.074-.045-.097-.038-.12-.036-.139-.022-.157-.022-.17-.016-.171-.006-.17.006-.172.008-.161.023-.141.021-.135.038-.11.038-.083.044-.059.044-.03.044v.052l.03.052.059.043.082.039.111.037M267.844 632.72l.05.053.09.051.105.052.132.044M268.221 632.92l.15.037.169.031.185.02.203.023.198.009h.207l.21-.01.2-.013.193-.022.178-.031.16-.036.143-.044.124-.044.099-.055.074-.05.046-.06.012-.059M279.543 679.074l-.317-42.227M290.175 684.734l4.057-1.507M293.49 922.546l-.008-.11-.03-.09-.045-.075-.057-.05-.075-.015-.074.007-.09.029-.082.059-.08.082-.067.104-.06.118-.044.12-.03.126-.007.118.006.105.031.095.044.076.06.044.073.021.082-.007.081-.037.083-.059.081-.082.068-.106.057-.11.044-.124.031-.119.008-.12M292.897 761.623l-.01.135-.027.133-.046.127-.065.117-.075.097-.082.08-.088.052-.09.026-.081-.01-.073-.029-.068-.068-.044-.08-.031-.112-.015-.117.015-.136.023-.131.052-.128.058-.119.075-.097.09-.081.08-.052.09-.022.09.007.074.03.06.067.05.088.029.104.009.119M290.73 991.06l-1.439-306.3M283.922 975.71l-.136-.044-.132-.016-.121.007-.111.038-.093.066-.076.09-.059.104-.039.132-.014.142v.156l.032.162.052.166.072.161.089.155.104.141.119.125.125.106.127.081.134.06.131.03.128.006.119-.021.102-.051.084-.076.074-.104.042-.119.031-.14.01-.149-.023-.155-.038-.162-.068-.166-.072-.162-.097-.148-.113-.135-.126-.11-.126-.098-.131-.072M281.992 697.643l-.141-.052-.143-.09-.132-.111-.125-.134-.106-.154-.09-.171-.067-.179-.044-.192-.013-.186v-.176l.028-.171.052-.157.076-.134.096-.112.112-.078.133-.063.133-.02.142.007.146.042.143.068.14.104.128.119.116.15.097.16.075.18.059.185.03.185.007.187-.016.177-.043.164-.068.143-.081.124-.104.097-.125.073-.124.039-.143.005-.148-.029M269.23 679.141l.053.267M289.292 684.758l.883-.024M287.43 682.24l-.156-.035-.17-.032-.186-.014-.193-.007-.192.007-.192.014-.179.023-.164.03-.143.045-.117.044-.096.058-.06.054-.03.058v.066l.038.061.06.05.095.054.128.052.148.036.162.03.179.02.192.01.192.008.193-.017.186-.012.17-.031.158-.037.132-.046.104-.05.082-.06.044-.051.016-.068-.024-.06-.05-.057-.083-.054-.103-.05-.141-.039M275.047 679.895l.03.079.066.064.097.066.126.059.149.053.179.046.192.042.209.024.22.023.224.005.23.007.229-.012.224-.023.216-.024.192-.042.185-.046.155-.053.134-.059.104-.066.075-.064.044-.068.013-.076M178.988 655.258l17.937 4.801M197.764 660.038l-.839.021M201.897 658.686l-4.133 1.352M194.129 658.286l.14.039.165.02.168.016.18.008.186-.008.186-.016.17-.015.165-.03.14-.037.125-.044.098-.05.066-.055.043-.05.008-.053-.023-.052-.05-.05-.082-.054-.105-.037-.13-.036-.149-.03-.172-.014-.178-.015h-.179l-.187.007-.176.023-.169.021-.15.037-.133.039-.113.044-.09.05-.051.053-.031.05.01.06.037.052.066.044.095.048.12.035M184.358 655.734l.039.06.066.059.088.058.119.052.15.046M184.82 656.009l.163.039.185.028.2.021.208.016.215.007.224-.007.216-.016.213-.021.201-.028.186-.039.169-.045.147-.052.12-.05.104-.061.068-.067.044-.066.008-.06M206.408 953.602l-9.481-293.543M271.738 913.407l-5.453-2.635" style="fill:none;stroke:red;stroke-width:.999997;stroke-linecap:round;stroke-linejoin:round;stroke-miterlimit:4;stroke-dasharray:none;stroke-opacity:1;visibility:visible" visibility="hidden"/><path d="m271.546 631.926 12.501 3.576M266.855 630.808l-4.02 1.088M262.806 632.112l.03-.216M284.047 635.502l.281 44.839M262.806 632.112l3.479 278.66" style="fill:none;stroke:red;stroke-width:1.99999;stroke-linecap:round;stroke-linejoin:round;stroke-miterlimit:4;stroke-dasharray:none;stroke-opacity:1;visibility:visible" visibility="hidden"/><path d="m291.531 991.022 3.679-2.27" style="fill:none;stroke:red;stroke-width:.999997;stroke-linecap:round;stroke-linejoin:round;stroke-miterlimit:4;stroke-dasharray:none;stroke-opacity:1;visibility:visible" visibility="hidden"/><path d="m295.21 988.753-.977-305.525" style="fill:none;stroke:red;stroke-width:1.99999;stroke-linecap:round;stroke-linejoin:round;stroke-miterlimit:4;stroke-dasharray:none;stroke-opacity:1;visibility:visible" visibility="hidden"/><path d="m272.531 982.98 18.199 8.079" style="fill:none;stroke:red;stroke-width:.999997;stroke-linecap:round;stroke-linejoin:round;stroke-miterlimit:4;stroke-dasharray:none;stroke-opacity:1;visibility:visible" visibility="hidden"/><path d="m294.158 682.953-15.096-4.005" style="fill:none;stroke:red;stroke-width:1.99999;stroke-linecap:round;stroke-linejoin:round;stroke-miterlimit:4;stroke-dasharray:none;stroke-opacity:1;visibility:visible" visibility="hidden"/><path d="m291.531 991.022-.801.037" style="fill:none;stroke:red;stroke-width:.999997;stroke-linecap:round;stroke-linejoin:round;stroke-miterlimit:4;stroke-dasharray:none;stroke-opacity:1;visibility:visible" visibility="hidden"/><path d="m272.531 982.98-.05-.415M273.303 677.671l.868-.023M269.23 679.141l4.073-1.47M294.158 682.953l.075.275M272.48 982.566l-3.25-303.423" style="fill:none;stroke:red;stroke-width:1.99999;stroke-linecap:round;stroke-linejoin:round;stroke-miterlimit:4;stroke-dasharray:none;stroke-opacity:1;visibility:visible" visibility="hidden"/><path d="m210.91 951.519-3.739 2.053M206.408 953.602l-16.47-7.316M206.408 953.602l.764-.03" style="fill:none;stroke:red;stroke-width:.999997;stroke-linecap:round;stroke-linejoin:round;stroke-miterlimit:4;stroke-dasharray:none;stroke-opacity:1;visibility:visible" visibility="hidden"/><path d="m201.897 658.686-.016-.244M188.354 654.848l13.528 3.593M183.126 653.702l-4.139 1.312M178.988 655.258v-.244M210.91 951.519l-9.013-292.833M178.988 655.258l10.95 291.027" style="fill:none;stroke:red;stroke-width:1.99999;stroke-linecap:round;stroke-linejoin:round;stroke-miterlimit:4;stroke-dasharray:none;stroke-opacity:1;visibility:visible" visibility="hidden"/><path d="m289.292 684.758-20.008-5.35M422.292 915.507l2.45 8.343M429.251 919.093l-4.509 4.757M440.038 937.18l-6.172-8.878M422.292 915.507l-5.17 4.26M429.251 919.093l-12.129.675" style="fill:none;stroke:red;stroke-width:.999997;stroke-linecap:round;stroke-linejoin:round;stroke-miterlimit:4;stroke-dasharray:none;stroke-opacity:1;visibility:visible" visibility="hidden"/><path d="m210.91 951.519 11.116.239M210.91 951.519l.264-15.916M189.937 946.286l-1.095-9.094M424.742 923.85l-3.748 8.961M424.742 923.85l4.509-4.757M417.122 919.767l5.17-4.26" style="fill:none;stroke:red;stroke-width:1.99999;stroke-linecap:round;stroke-linejoin:round;stroke-miterlimit:4;stroke-dasharray:none;stroke-opacity:1;visibility:visible" visibility="hidden"/><path d="m206.408 953.602 5.435-6.315" style="fill:none;stroke:red;stroke-width:.999997;stroke-linecap:round;stroke-linejoin:round;stroke-miterlimit:4;stroke-dasharray:none;stroke-opacity:1;visibility:visible" visibility="hidden"/><path d="m290.73 991.059 5.33-6.804M272.531 982.98l-.941-9.466" style="fill:none;stroke:red;stroke-width:1.99999;stroke-linecap:round;stroke-linejoin:round;stroke-miterlimit:4;stroke-dasharray:none;stroke-opacity:1;visibility:visible" visibility="hidden"/><path d="m187.44 655.463-1.626-3.851M187.376 649.804l-1.512 5.952M270.813 632.473l-1.553-3.676M270.75 627.072l-1.445 5.683M278.24 679.693l-1.6-3.793M278.177 674.121l-1.491 5.863" style="fill:none;stroke:red;stroke-width:.666665;stroke-linecap:round;stroke-linejoin:round;stroke-miterlimit:4;stroke-dasharray:none;stroke-opacity:1;visibility:visible" visibility="hidden"/><path d="m279.225 636.847-2.465-1.663M271.546 631.926l5.214 3.258M290.73 991.059l-6.808-15.349M287.43 682.24l-5.438 15.403M289.292 684.758l-7.3 12.885M279.062 678.948l8.368 3.292M289.292 684.758l-1.862-2.518M196.925 660.06l-2.796-1.774M188.354 654.848l5.775 3.438" style="fill:none;stroke:red;stroke-width:.999997;stroke-linecap:round;stroke-linejoin:round;stroke-miterlimit:4;stroke-dasharray:none;stroke-opacity:1;visibility:visible" visibility="hidden"/><path d="m270.223 627.553-3.368 3.255M289.291 684.76l-4.963-4.42M184.82 656.009l3.534-1.161M186.826 650.308l-3.7 3.394" style="fill:none;stroke:red;stroke-width:1.99999;stroke-linecap:round;stroke-linejoin:round;stroke-miterlimit:4;stroke-dasharray:none;stroke-opacity:1;visibility:visible" visibility="hidden"/><path d="m423.811 599.625 14.272 4M438.893 603.638l-.81-.013M442.944 602.69l-4.05.948M423.811 599.625l.005-.207M428.974 600.203l.133.037.158.023.162.023.171.014h.355l.17-.008.156-.022.142-.023.117-.028.097-.036.075-.044.037-.039.015-.044-.023-.053-.044-.044-.074-.039-.106-.044-.125-.029-.14-.03-.163-.02-.17-.025-.178-.008h-.18l-.169.008-.167.016-.145.022-.133.022-.104.036-.083.04-.057.042-.032.046.009.044.03.046.067.044.088.036.111.037M436.978 602.23l-.088.05-.052.054-.023.052v.057l.039.054.059.052.089.053.117.05.142.045" style="fill:none;stroke:#00ff4a;stroke-width:.999997;stroke-linecap:round;stroke-linejoin:round;stroke-miterlimit:4;stroke-dasharray:none;stroke-opacity:1;visibility:visible"/><path d="m437.26 602.697.164.037.177.036.192.03.21.014.208.016.213.008h.217l.2-.014.202-.016.184-.023.162-.03.143-.035.125-.046.096-.044.068-.052.044-.052.006-.06-.023-.052-.044-.05-.08-.06M426.719 893.57l11.364-289.943" style="fill:none;stroke:#00ff4a;stroke-width:.999997;stroke-linecap:round;stroke-linejoin:round;stroke-miterlimit:4;stroke-dasharray:none;stroke-opacity:1;visibility:visible"/><path d="m431.193 892.062-3.733 1.536M426.719 893.57l-12.961-6.44M426.719 893.57l.741.028M413.773 886.794l-.016.335M442.944 602.69v-.216M428.661 598.503l-.801-.013-4.044.929M428.661 598.503l5.88 1.636M431.193 892.062l11.75-289.371M413.773 886.794l10.043-287.375" style="fill:none;stroke:#00ff4a;stroke-width:1.99999;stroke-linecap:round;stroke-linejoin:round;stroke-miterlimit:4;stroke-dasharray:none;stroke-opacity:1;visibility:visible"/><path d="m434.541 600.139-5.567.064M428.661 598.503l.313 1.7" style="fill:none;stroke:#00ff4a;stroke-width:.999997;stroke-linecap:round;stroke-linejoin:round;stroke-miterlimit:4;stroke-dasharray:none;stroke-opacity:1;visibility:visible"/><path d="m437.26 602.697-2.719-2.558" style="fill:none;stroke:#00ff4a;stroke-width:1.99999;stroke-linecap:round;stroke-linejoin:round;stroke-miterlimit:4;stroke-dasharray:none;stroke-opacity:1;visibility:visible"/></svg>