<svg xmlns="http://www.w3.org/2000/svg" baseProfile="full" height="1122.52" preserveAspectRatio="xMinYMin meet" style="width:729px;height:902px" width="793.701" xml:space="preserve"><path d="m403.052 440.179 11.13-283.773M413.37 155.397l.162.044.171.039.193.028.21.024.208.014.205.007h.21l.205-.013.193-.015.188-.03.163-.034.14-.033.118-.052.098-.052.065-.052.047-.06.004-.059M412.932 155.122l.028.058.068.06.09.061.11.05.142.044M405.186 152.696l.134.03.148.031.163.021.172.014.179.01.168-.011.173-.006.156-.021.132-.03.117-.03.099-.038.073-.045.036-.043.015-.052-.021-.053-.044-.043-.076-.053-.102-.036-.117-.039-.15-.037-.159-.021-.169-.016-.17-.015h-.177l-.171.01-.157.012-.148.022-.132.03-.106.039-.081.044-.059.044-.022.046v.05l.03.052.066.044.082.046.118.044M400.086 152.065l.004-.23M418.994 155.39l-4.012 1.035M414.982 156.43l-.803-.023M400.086 152.065l14.094 4.341M403.052 440.179l-12.806-6.679M403.052 440.179l.743.028M407.487 438.611l-3.695 1.596" style="fill:none;stroke:red;stroke-width:.999997;stroke-linecap:round;stroke-linejoin:round;stroke-miterlimit:4;stroke-dasharray:none;stroke-opacity:1;visibility:visible" visibility="hidden"/><path d="m390.252 433.16 9.838-281.324M407.487 438.611l11.507-283.222M404.882 150.842l-.792-.024-4 1.02M404.882 150.842l7.056 2.162M416.974 154.545l2.01.615M418.994 155.39l-.01-.233M390.252 433.16l-.009.34" style="fill:none;stroke:red;stroke-width:1.99999;stroke-linecap:round;stroke-linejoin:round;stroke-miterlimit:4;stroke-dasharray:none;stroke-opacity:1;visibility:visible" visibility="hidden"/><path d="M415.66 148.973a.85.85 0 0 0-.314-.215M415.346 148.758a2.183 2.183 0 0 0-.699-.137 2.179 2.179 0 0 0-.71.09M413.936 148.71a.815.815 0 0 0-.328.187" style="fill:none;stroke:red;stroke-width:.999997;stroke-linecap:round;stroke-linejoin:round;stroke-miterlimit:2;stroke-dasharray:none;stroke-opacity:1;visibility:visible" visibility="hidden"/><path d="M413.171 149.722a1.179 1.179 0 0 0 .443.295M413.612 150.017a3.065 3.065 0 0 0 1.962.07M415.575 150.086c.17-.053.33-.14.461-.265M416.035 149.821a.26.26 0 0 0 .087-.19.29.29 0 0 0-.066-.191" style="fill:none;stroke:red;stroke-width:.666665;stroke-linecap:round;stroke-linejoin:round;stroke-miterlimit:2;stroke-dasharray:none;stroke-opacity:1;visibility:visible" visibility="hidden"/><path d="M413.182 149.342a.244.244 0 0 0-.082.183.297.297 0 0 0 .071.199" style="fill:none;stroke:red;stroke-width:.666665;stroke-linecap:round;stroke-linejoin:round;stroke-miterlimit:2;stroke-dasharray:none;stroke-opacity:1;visibility:visible" visibility="hidden"/><path d="m416.123 149.632-.19 5.397M413.1 149.524l-.194 5.433M415.667 148.977l.39.463M413.599 148.902l-.416.44" style="fill:none;stroke:red;stroke-width:.999997;stroke-linecap:round;stroke-linejoin:round;stroke-miterlimit:2;stroke-dasharray:none;stroke-opacity:1;visibility:visible" visibility="hidden"/><path d="m414.554 151.282-.139 3.958" style="fill:none;stroke:red;stroke-width:.666665;stroke-linecap:round;stroke-linejoin:round;stroke-miterlimit:4;stroke-dasharray:none;stroke-opacity:1;visibility:visible" visibility="hidden"/><path d="m323.933 407.982.057-4.392M133.617 450.202l-.096.097-.099.097M291.6 526.779l-.015-.022-.02-.022M291.162 521.515l-.013 4.968M291.623 520.815l.735-.148.727-.17.704-.187.698-.2.683-.208.668-.228.645-.24.63-.25.609-.27.587-.274.57-.288.548-.296.519-.312.504-.328.48-.325.449-.341.422-.348.399-.364.375-.364.349-.372.319-.378.289-.384.261-.394.228-.396.206-.4.173-.4.147-.408M133.617 450.202l158.006 70.613M285.2 382.474l-.09.084-.09.081M417.419 457.488l-.023-.03-.021-.038M416.987 457.148l.199-4.638M417.662 451.922l.692-.072.688-.083.674-.096.67-.104.653-.12.647-.14.62-.141.617-.164.6-.163.579-.185.564-.192.549-.202.528-.214.501-.231.49-.23.463-.245.443-.252.424-.265.402-.267.369-.282.35-.29.325-.29.297-.304.275-.303.252-.312.214-.32.2-.324M285.2 382.474l132.461 69.448M411.49 443.043l.128.059.138.045.15.03.162.021.164.008h.163l.147-.022.148-.03.128-.044.112-.052.088-.059.06-.067.045-.074.005-.082-.013-.076-.044-.073-.075-.073-.096-.067-.112-.057-.134-.054-.147-.038-.156-.03-.164-.014-.156-.008-.164.016-.148.02-.132.038-.12.052-.103.052-.073.066-.052.076-.023.073v.075l.03.081.058.075.083.065.103.068M304.369 512.076l112.463-60.225M304.778 517.69l.036-4.923M193.776 463.556l55.026-25.662M273.431 426.408l50.236-23.428" style="fill:none;stroke:red;stroke-width:.999997;stroke-linecap:round;stroke-linejoin:round;stroke-miterlimit:4;stroke-dasharray:none;stroke-opacity:1;visibility:visible" visibility="hidden"/><path d="m323.6 408.248-50.103 23.55M248.653 443.472l-49 23.03M309.205 395.39l-34.711 15.844M242.889 425.66l-54.09 24.685" style="fill:none;stroke:red;stroke-width:1.99999;stroke-linecap:round;stroke-linejoin:round;stroke-miterlimit:4;stroke-dasharray:none;stroke-opacity:1;visibility:visible" visibility="hidden"/><path d="m323.667 402.98.324.61" style="fill:none;stroke:red;stroke-width:.999997;stroke-linecap:round;stroke-linejoin:round;stroke-miterlimit:4;stroke-dasharray:none;stroke-opacity:1;visibility:visible" visibility="hidden"/><path d="m288.775 505.235-.341.237M323.6 408.248l.332-.268" style="fill:none;stroke:red;stroke-width:1.99999;stroke-linecap:round;stroke-linejoin:round;stroke-miterlimit:4;stroke-dasharray:none;stroke-opacity:1;visibility:visible" visibility="hidden"/><path d="m416.987 457.148.199-4.638" style="fill:none;stroke:red;stroke-width:.999997;stroke-linecap:round;stroke-linejoin:round;stroke-miterlimit:4;stroke-dasharray:none;stroke-opacity:1;visibility:visible" visibility="hidden"/><path d="m416.587 457.415-111.818 60.336M403.626 444.919l-114.852 60.316" style="fill:none;stroke:red;stroke-width:1.99999;stroke-linecap:round;stroke-linejoin:round;stroke-miterlimit:4;stroke-dasharray:none;stroke-opacity:1;visibility:visible" visibility="hidden"/><path d="m416.832 451.851.355.659" style="fill:none;stroke:red;stroke-width:.999997;stroke-linecap:round;stroke-linejoin:round;stroke-miterlimit:4;stroke-dasharray:none;stroke-opacity:1;visibility:visible" visibility="hidden"/><path d="m166.466 451.935-19.562-8.588M427.738 454.408l.148-.096M286.317 381.409l-.139.11M430.75 446.131l.089.072.097.067M285.013 387.483l.087.067.09.066M286.178 381.518l-.26.215-.252.224-.23.222-.213.228-.201.233M285.022 382.64l-.068.213-.059.222M285.013 387.483l-.06-.061-.059-.064M430.935 446.271l.043.059.038.06M430.684 451.494l.059-.252.05-.247M427.886 454.311l.378-.259.356-.261.335-.264.319-.276.289-.281.265-.282.254-.298.222-.298.202-.294.178-.304M430.794 450.995l.222-4.607M284.895 387.358v-4.281M417.419 457.488l.683-.074.681-.084.668-.095.661-.104.654-.119.628-.134.624-.148.608-.154.594-.17.58-.18.555-.194.541-.2.527-.216.505-.222.482-.228.469-.244.437-.254.422-.261M304.22 397.668l-19.028-10.051M398.619 447.554l-74.768-39.514M417.419 457.488l-.521-.276M297.994 377.758l-.628.05-.63.068-.618.074-.615.09-.6.094-.593.113-.587.11-.573.127-.563.143-.547.139-.542.157-.53.163-.499.177-.502.178-.472.193-.468.193-.437.208-.431.207-.409.223-.385.23-.372.23-.348.238-.328.247M430.75 446.131l-22.54-11.61M390.11 425.2l-92.116-47.444M416.587 457.415l.4-.267" style="fill:none;stroke:red;stroke-width:1.99999;stroke-linecap:round;stroke-linejoin:round;stroke-miterlimit:4;stroke-dasharray:none;stroke-opacity:1;visibility:visible" visibility="hidden"/><path d="m193.648 463.864-4.18-1.834" style="fill:none;stroke:red;stroke-width:.999997;stroke-linecap:round;stroke-linejoin:round;stroke-miterlimit:4;stroke-dasharray:none;stroke-opacity:1;visibility:visible" visibility="hidden"/><path d="m287.6 505.104-13.914-6.106M249.215 488.258l-55.567-24.392" style="fill:none;stroke:red;stroke-width:1.99999;stroke-linecap:round;stroke-linejoin:round;stroke-miterlimit:4;stroke-dasharray:none;stroke-opacity:1;visibility:visible" visibility="hidden"/><path d="m304.547 512.542-16.95-7.438" style="fill:none;stroke:red;stroke-width:.999997;stroke-linecap:round;stroke-linejoin:round;stroke-miterlimit:4;stroke-dasharray:none;stroke-opacity:1;visibility:visible" visibility="hidden"/><path d="m133.556 455.522-.222-4.62M291.599 526.779l.727-.155.707-.164.697-.185.69-.192.667-.21.65-.22.643-.241.614-.244.6-.256.58-.276.564-.283.541-.297.521-.304.494-.31M291.6 526.779l-157.717-71.02M146.905 443.348l-.685.126-.675.134-.668.148-.659.156-.645.178-.64.178-.621.194-.615.206-.595.216-.578.223-.564.237-.55.246-.533.25-.512.26-.497.275-.475.275-.453.29-.431.296-.413.298-.387.31" style="fill:none;stroke:red;stroke-width:1.99999;stroke-linecap:round;stroke-linejoin:round;stroke-miterlimit:4;stroke-dasharray:none;stroke-opacity:1;visibility:visible" visibility="hidden"/><path d="m304.778 517.69.036-4.923" style="fill:none;stroke:red;stroke-width:.999997;stroke-linecap:round;stroke-linejoin:round;stroke-miterlimit:4;stroke-dasharray:none;stroke-opacity:1;visibility:visible" visibility="hidden"/><path d="m304.711 518.255.029-.281.038-.284M300.445 523.337l.465-.317.441-.328.423-.332.392-.342.37-.356.344-.356.325-.363.288-.373.276-.378.236-.378.215-.386.194-.385.164-.395.132-.393" style="fill:none;stroke:red;stroke-width:1.99999;stroke-linecap:round;stroke-linejoin:round;stroke-miterlimit:4;stroke-dasharray:none;stroke-opacity:1;visibility:visible" visibility="hidden"/><path d="m304.746 512.668.037.047.03.05" style="fill:none;stroke:red;stroke-width:.999997;stroke-linecap:round;stroke-linejoin:round;stroke-miterlimit:4;stroke-dasharray:none;stroke-opacity:1;visibility:visible" visibility="hidden"/><path d="m133.685 455.634.093.065.106.06M135.568 447.963l-.34.288-.32.29-.306.302-.272.307-.262.304-.236.312-.215.31-.193.32M133.422 450.396l-.044.251-.044.253M133.685 455.634l-.068-.054-.061-.06" style="fill:none;stroke:red;stroke-width:1.99999;stroke-linecap:round;stroke-linejoin:round;stroke-miterlimit:4;stroke-dasharray:none;stroke-opacity:1;visibility:visible" visibility="hidden"/><path d="m304.547 512.542.095.06.104.066" style="fill:none;stroke:red;stroke-width:.999997;stroke-linecap:round;stroke-linejoin:round;stroke-miterlimit:4;stroke-dasharray:none;stroke-opacity:1;visibility:visible" visibility="hidden"/><path d="m300.295 523.442.15-.105M135.708 447.842l-.14.12" style="fill:none;stroke:red;stroke-width:1.99999;stroke-linecap:round;stroke-linejoin:round;stroke-miterlimit:4;stroke-dasharray:none;stroke-opacity:1;visibility:visible" visibility="hidden"/><path d="M164.484 163.88a.88.88 0 0 0-.34-.208M164.144 163.672a2.319 2.319 0 0 0-1.475.018M162.669 163.69a.832.832 0 0 0-.335.211" style="fill:none;stroke:red;stroke-width:.999997;stroke-linecap:round;stroke-linejoin:round;stroke-miterlimit:2;stroke-dasharray:none;stroke-opacity:1;visibility:visible" visibility="hidden"/><path d="M164.92 164.75a.278.278 0 0 0 .082-.205.293.293 0 0 0-.08-.193M161.909 164.39a.259.259 0 0 0-.077.193.307.307 0 0 0 .085.203M161.917 164.788a1.196 1.196 0 0 0 .477.285M162.394 165.073a3.23 3.23 0 0 0 2.056-.021M164.45 165.05a1.219 1.219 0 0 0 .47-.3" style="fill:none;stroke:red;stroke-width:.666665;stroke-linecap:round;stroke-linejoin:round;stroke-miterlimit:2;stroke-dasharray:none;stroke-opacity:1;visibility:visible" visibility="hidden"/><path d="m165 164.545.067 5.659M161.832 164.584l.065 5.694M164.493 163.885l.43.467M162.322 163.91l-.414.48" style="fill:none;stroke:red;stroke-width:.999997;stroke-linecap:round;stroke-linejoin:round;stroke-miterlimit:2;stroke-dasharray:none;stroke-opacity:1;visibility:visible" visibility="hidden"/><path d="m163.44 166.353.049 4.147" style="fill:none;stroke:red;stroke-width:.666665;stroke-linecap:round;stroke-linejoin:round;stroke-miterlimit:4;stroke-dasharray:none;stroke-opacity:1;visibility:visible" visibility="hidden"/><path d="M247.88 141.18a.824.824 0 0 0-.322-.2M247.557 140.981a2.19 2.19 0 0 0-.704-.105c-.243 0-.476.044-.706.124M246.147 141a.799.799 0 0 0-.317.2" style="fill:none;stroke:red;stroke-width:.999997;stroke-linecap:round;stroke-linejoin:round;stroke-miterlimit:2;stroke-dasharray:none;stroke-opacity:1;visibility:visible" visibility="hidden"/><path d="M248.297 142.01a.258.258 0 0 0 .078-.194.29.29 0 0 0-.075-.188M245.422 141.665a.243.243 0 0 0-.072.185.303.303 0 0 0 .08.195M245.43 142.045a1.163 1.163 0 0 0 .456.273M245.886 142.318a3.083 3.083 0 0 0 1.964-.022M247.849 142.296a1.17 1.17 0 0 0 .448-.286" style="fill:none;stroke:red;stroke-width:.666665;stroke-linecap:round;stroke-linejoin:round;stroke-miterlimit:2;stroke-dasharray:none;stroke-opacity:1;visibility:visible" visibility="hidden"/><path d="m248.374 141.816.063 5.401M245.35 141.85l.061 5.44M247.889 141.184l.41.444M245.818 141.206l-.396.46" style="fill:none;stroke:red;stroke-width:.999997;stroke-linecap:round;stroke-linejoin:round;stroke-miterlimit:2;stroke-dasharray:none;stroke-opacity:1;visibility:visible" visibility="hidden"/><path d="m246.885 143.541.045 3.959" style="fill:none;stroke:red;stroke-width:.666665;stroke-linecap:round;stroke-linejoin:round;stroke-miterlimit:4;stroke-dasharray:none;stroke-opacity:1;visibility:visible" visibility="hidden"/><path d="M255.293 188.208a.853.853 0 0 0-.335-.206M254.958 188.002a2.287 2.287 0 0 0-1.453.019M253.505 188.022a.801.801 0 0 0-.33.208" style="fill:none;stroke:red;stroke-width:.999997;stroke-linecap:round;stroke-linejoin:round;stroke-miterlimit:2;stroke-dasharray:none;stroke-opacity:1;visibility:visible" visibility="hidden"/><path d="M255.72 189.065a.277.277 0 0 0 .083-.2.29.29 0 0 0-.08-.192M252.755 188.709a.247.247 0 0 0-.074.19.305.305 0 0 0 .084.199M252.765 189.101a1.17 1.17 0 0 0 .469.28M253.234 189.382c.33.108.67.158 1.016.156a3.2 3.2 0 0 0 1.01-.177M255.258 189.361c.173-.061.333-.16.463-.296" style="fill:none;stroke:red;stroke-width:.666665;stroke-linecap:round;stroke-linejoin:round;stroke-miterlimit:2;stroke-dasharray:none;stroke-opacity:1;visibility:visible" visibility="hidden"/><path d="m255.802 188.864.064 5.57M252.682 188.9l.063 5.61M255.3 188.213l.424.46M253.165 188.236l-.41.473" style="fill:none;stroke:red;stroke-width:.999997;stroke-linecap:round;stroke-linejoin:round;stroke-miterlimit:2;stroke-dasharray:none;stroke-opacity:1;visibility:visible" visibility="hidden"/><path d="m254.266 190.642.048 4.084" style="fill:none;stroke:red;stroke-width:.666665;stroke-linecap:round;stroke-linejoin:round;stroke-miterlimit:4;stroke-dasharray:none;stroke-opacity:1;visibility:visible" visibility="hidden"/><path d="m249.363 428.15-5.453-2.635M184.032 468.346l-9.482-293.544M162.444 170.753l.162.037.186.03.2.02.208.017.214.007.224-.007.216-.017.214-.02.2-.03.187-.037.169-.045.146-.054.12-.049.104-.061.068-.067.044-.067.008-.06M161.982 170.477l.039.06.067.059.088.058.118.054.15.045M171.753 173.03l.14.038.165.021.168.015.18.008.186-.008.186-.015.17-.016.165-.03.14-.036.125-.045.098-.05.066-.054.043-.05.008-.051-.023-.055-.05-.05-.082-.054-.105-.036-.13-.037-.15-.03-.171-.013-.178-.016h-.18l-.185.008-.177.022-.17.021-.147.04-.135.036-.113.045-.09.05-.05.052-.032.052.01.06.036.052.067.044.095.046.12.036M179.522 173.43l-4.132 1.351M175.389 174.781l-.839.021M156.613 170.002l17.937 4.8M252.671 194.64l.03.077.066.067.098.065.125.057.15.054.177.045.193.044.21.024.22.021.222.006.231.008.229-.014.224-.021.216-.024.192-.044.185-.045.155-.054.135-.056.104-.066.074-.067.044-.068.014-.076M265.054 196.986l-.156-.034-.17-.032-.187-.016-.192-.006-.192.006-.192.016-.179.02-.164.033-.143.041-.117.046-.096.06-.06.051-.03.061v.064l.039.061.059.052.095.052.128.053.148.036.162.029.179.023.192.007.192.01.193-.019.187-.012.169-.03.158-.04.132-.042.104-.052.082-.06.045-.05.015-.068-.024-.061-.05-.059-.083-.053-.103-.048-.141-.039M266.917 199.501l.882-.023M246.855 193.885l.055.268M259.617 212.388l-.142-.052-.142-.09-.133-.112-.125-.132-.105-.156-.09-.17-.068-.179-.043-.192-.014-.188v-.176l.028-.171.052-.157.076-.132.096-.112.113-.08.133-.06.133-.021.141.006.147.043.143.068.14.105.128.116.115.15.098.164.075.178.057.186.032.184.007.186-.016.178-.043.164-.068.14-.081.127-.104.097-.127.073-.123.039-.142.006-.148-.03M261.546 490.455l-.136-.043-.132-.014-.121.005-.111.037-.093.066-.076.092-.059.102-.039.134-.014.14v.156l.032.162.052.166.071.16.09.158.104.14.119.126.125.105.127.08.134.06.131.03.128.008.119-.022.102-.053.084-.074.074-.105.042-.117.031-.14.01-.15-.024-.154-.037-.164-.068-.164-.071-.164-.098-.148-.113-.134-.126-.112-.126-.096-.131-.073M268.355 505.804l-1.438-306.302M270.522 276.366l-.01.135-.026.134-.047.126-.065.117-.075.099-.082.08-.088.052-.09.024-.081-.01-.073-.028-.068-.069-.044-.08-.031-.112-.015-.117.015-.134.023-.133.052-.128.058-.117.075-.098.09-.08.08-.054.09-.02.09.005.073.03.061.066.05.091.03.104.008.117M271.115 437.29l-.008-.111-.03-.09-.044-.074-.058-.052-.074-.013-.075.006-.09.03-.081.058-.081.082-.067.104-.06.117-.044.121-.03.127-.007.117.007.106.03.094.044.075.06.045.074.022.081-.008.081-.036.083-.06.081-.082.068-.105.058-.11.044-.127.03-.116.008-.12M267.8 199.478l4.056-1.506M257.167 193.818l-.317-42.226M245.846 147.666l.15.036.168.031.186.021.203.023.197.007h.208l.21-.007.199-.016.193-.021.179-.032.161-.036.142-.044.124-.044.099-.054.074-.05.046-.06.012-.058M245.469 147.466l.05.051.091.053.104.051.132.045M254.386 149.93l.135.034.148.022.154.016.172.015h.178l.17-.007.163-.014.157-.024.139-.028.12-.039.097-.043.074-.044.044-.045.016-.053-.016-.043-.044-.053-.074-.044-.097-.04-.12-.034-.139-.024-.157-.02-.17-.017-.172-.005-.169.006-.172.007-.161.023-.141.022-.135.04-.11.034-.084.046-.058.043-.03.045v.052l.031.052.058.042.082.04.111.037M261.664 150.47l.008-.225M261.665 150.47l-4.031 1.12M257.634 151.59h-.784M240.43 146.857l16.42 4.733" style="fill:none;stroke:red;stroke-width:.999997;stroke-linecap:round;stroke-linejoin:round;stroke-miterlimit:4;stroke-dasharray:none;stroke-opacity:1;visibility:visible" visibility="hidden"/><path d="m240.43 146.857 3.48 278.658M261.671 150.246l.282 44.839M240.43 146.857l.03-.216M244.48 145.553l-4.02 1.09M249.17 146.67l12.501 3.575" style="fill:none;stroke:red;stroke-width:1.99999;stroke-linecap:round;stroke-linejoin:round;stroke-miterlimit:4;stroke-dasharray:none;stroke-opacity:1;visibility:visible" visibility="hidden"/><path d="m269.155 505.766 3.679-2.27" style="fill:none;stroke:red;stroke-width:.999997;stroke-linecap:round;stroke-linejoin:round;stroke-miterlimit:4;stroke-dasharray:none;stroke-opacity:1;visibility:visible" visibility="hidden"/><path d="m272.834 503.496-.977-305.524" style="fill:none;stroke:red;stroke-width:1.99999;stroke-linecap:round;stroke-linejoin:round;stroke-miterlimit:4;stroke-dasharray:none;stroke-opacity:1;visibility:visible" visibility="hidden"/><path d="m250.155 497.724 18.199 8.079" style="fill:none;stroke:red;stroke-width:.999997;stroke-linecap:round;stroke-linejoin:round;stroke-miterlimit:4;stroke-dasharray:none;stroke-opacity:1;visibility:visible" visibility="hidden"/><path d="m271.782 197.697-15.096-4.007" style="fill:none;stroke:red;stroke-width:1.99999;stroke-linecap:round;stroke-linejoin:round;stroke-miterlimit:4;stroke-dasharray:none;stroke-opacity:1;visibility:visible" visibility="hidden"/><path d="m269.155 505.766-.801.038" style="fill:none;stroke:red;stroke-width:.999997;stroke-linecap:round;stroke-linejoin:round;stroke-miterlimit:4;stroke-dasharray:none;stroke-opacity:1;visibility:visible" visibility="hidden"/><path d="m250.106 497.308-3.25-303.423M271.782 197.697l.075.275M246.855 193.885l4.075-1.47M250.927 192.416l.868-.022M250.155 497.724l-.05-.416" style="fill:none;stroke:red;stroke-width:1.99999;stroke-linecap:round;stroke-linejoin:round;stroke-miterlimit:4;stroke-dasharray:none;stroke-opacity:1;visibility:visible" visibility="hidden"/><path d="m184.032 468.346-16.472-7.316M184.032 468.346l.764-.03M188.534 466.262l-3.738 2.054" style="fill:none;stroke:red;stroke-width:.999997;stroke-linecap:round;stroke-linejoin:round;stroke-miterlimit:4;stroke-dasharray:none;stroke-opacity:1;visibility:visible" visibility="hidden"/><path d="m156.613 170.002 10.95 291.028M188.534 466.262l-9.013-292.832M156.613 170.002v-.244M160.752 168.445l-4.14 1.315M165.978 169.592l13.528 3.593M179.522 173.43l-.016-.245" style="fill:none;stroke:red;stroke-width:1.99999;stroke-linecap:round;stroke-linejoin:round;stroke-miterlimit:4;stroke-dasharray:none;stroke-opacity:1;visibility:visible" visibility="hidden"/><path d="m266.917 199.501-20.008-5.35M411.938 153.004l-6.752-.308M404.882 150.842l.304 1.854" style="fill:none;stroke:red;stroke-width:.999997;stroke-linecap:round;stroke-linejoin:round;stroke-miterlimit:4;stroke-dasharray:none;stroke-opacity:1;visibility:visible" visibility="hidden"/><path d="m413.37 155.397-1.432-2.393M414.18 156.406l2.794-1.861" style="fill:none;stroke:red;stroke-width:1.99999;stroke-linecap:round;stroke-linejoin:round;stroke-miterlimit:4;stroke-dasharray:none;stroke-opacity:1;visibility:visible" visibility="hidden"/><path d="m415.933 155.029-1.379-3.747M414.182 156.406l.233-1.166" style="fill:none;stroke:red;stroke-width:.666665;stroke-linecap:round;stroke-linejoin:round;stroke-miterlimit:4;stroke-dasharray:none;stroke-opacity:1;visibility:visible" visibility="hidden"/><path d="m403.052 440.179 8.438 2.864" style="fill:none;stroke:red;stroke-width:.999997;stroke-linecap:round;stroke-linejoin:round;stroke-miterlimit:4;stroke-dasharray:none;stroke-opacity:1;visibility:visible" visibility="hidden"/><path d="m188.534 466.262 11.119.24M188.534 466.262l.265-15.917M403.792 440.207l-.166 4.712M167.56 461.03l-1.094-9.095M411.49 443.043l-12.871 4.511M403.052 440.179l5.158-5.658M390.246 433.5l-.136-8.3" style="fill:none;stroke:red;stroke-width:1.99999;stroke-linecap:round;stroke-linejoin:round;stroke-miterlimit:4;stroke-dasharray:none;stroke-opacity:1;visibility:visible" visibility="hidden"/><path d="m184.032 468.346 5.436-6.316" style="fill:none;stroke:red;stroke-width:.999997;stroke-linecap:round;stroke-linejoin:round;stroke-miterlimit:4;stroke-dasharray:none;stroke-opacity:1;visibility:visible" visibility="hidden"/><path d="m268.354 505.803 5.332-6.805M250.155 497.724l-.94-9.466" style="fill:none;stroke:red;stroke-width:1.99999;stroke-linecap:round;stroke-linejoin:round;stroke-miterlimit:4;stroke-dasharray:none;stroke-opacity:1;visibility:visible" visibility="hidden"/><path d="m165.067 170.204-1.627-3.851M161.832 164.584l1.657 5.916M248.437 147.217l-1.552-3.676M248.374 141.816l-1.444 5.684M255.866 194.434l-1.6-3.792M255.802 188.864l-1.488 5.862" style="fill:none;stroke:red;stroke-width:.666665;stroke-linecap:round;stroke-linejoin:round;stroke-miterlimit:4;stroke-dasharray:none;stroke-opacity:1;visibility:visible" visibility="hidden"/><path d="m174.55 174.802-2.797-1.772M165.978 169.592l5.775 3.438M256.686 193.69l8.368 3.296M266.917 199.501l-1.863-2.515M265.054 196.986l-5.437 15.402M266.917 199.501l-7.3 12.887M256.85 151.59l-2.464-1.66M249.17 146.67l5.216 3.259" style="fill:none;stroke:red;stroke-width:.999997;stroke-linecap:round;stroke-linejoin:round;stroke-miterlimit:4;stroke-dasharray:none;stroke-opacity:1;visibility:visible" visibility="hidden"/><path d="m266.917 199.502-4.964-4.417M247.849 142.296l-3.369 3.257M164.45 165.05l-3.698 3.395M162.444 170.753l3.534-1.161" style="fill:none;stroke:red;stroke-width:1.99999;stroke-linecap:round;stroke-linejoin:round;stroke-miterlimit:4;stroke-dasharray:none;stroke-opacity:1;visibility:visible" visibility="hidden"/><path d="M77.784 78.227h-7.12l7.039-11.6h.081v11.6" style="fill:none;fill-opacity:1;fill-rule:nonzero;stroke:#00ff4a;stroke-width:1.33333;visibility:visible"/><path d="M85.064 78.227v-17.92h-10.28l-11.64 18.919v5.001h14.64v6.24h7.28v-6.24h3.639v-6h-3.639" style="fill:none;fill-opacity:1;fill-rule:nonzero;stroke:#00ff4a;stroke-width:1.33333;visibility:visible"/><path d="M328.129 63.59 183.097 96.847M255.469 78.843l.118.037.095.03M432.659 90.372l-125.49 33.598M307.674 124.712l-.052 6.277M433.062 91.061l-.255 5.786M433.586 90.408l.772-.036.764-.047.758-.05.74-.067.727-.068.72-.075.699-.073.682-.088.66-.097.644-.098.626-.109.606-.111.579-.119.563-.127.534-.127.52-.13.489-.144.461-.149.437-.148.409-.155.387-.155.353-.165.33-.163.296-.171.266-.17.236-.176.21-.179M433.586 90.408 285.462 52.475M292.273 129.656l-.023 6.35M292.793 128.904l.829-.082.817-.096.807-.104.79-.11.761-.126.757-.128.728-.133.712-.141.69-.148.668-.164.635-.163.618-.161.593-.18.567-.183.533-.188.51-.192.484-.195.445-.2.422-.208.386-.212.364-.21.325-.223.29-.215.261-.224.228-.228.193-.23.164-.223M292.793 128.904 116.074 89.459" style="fill:none;stroke:#00ff4a;stroke-width:.999997;stroke-linecap:round;stroke-linejoin:round;stroke-miterlimit:4;stroke-dasharray:none;stroke-opacity:1;visibility:visible"/><path d="m256.557 77.848.193.045.171.059.142.058.119.059.08.068.059.067.032.066v.067l-.033.066-.066.069-.088.065-.119.068-.147.059-.173.05-.193.055-.213.049-.238.041-.253.033-.265.031-.285.023-.281.014-.297.016h-.585l-.288-.017-.283-.022-.267-.021-.259-.028-.246-.039-.223-.045-.2-.05-.185-.054-.155-.05-.128-.067-.103-.06-.066-.066-.045-.067-.016-.069.024-.073.043-.068.077-.065.109-.06.135-.059.156-.06.183-.056.207-.048.224-.044.244-.036.259-.039.276-.02.283-.023.287-.015.29-.007.297.007.29.008.282.016.274.02.266.021.252.04.232.036.214.052" style="fill:none;stroke:#00ff4a;stroke-width:.999997;stroke-linecap:round;stroke-linejoin:round;stroke-miterlimit:4;stroke-dasharray:none;stroke-opacity:1;visibility:visible"/><path d="m116.409 96.395 176.36 40.127M292.77 136.522l.823-.08.816-.099.8-.109.781-.112.763-.118.747-.135.73-.133.703-.148.684-.148.669-.155.637-.172.617-.17.585-.179.562-.178.535-.193.505-.192.483-.2.444-.208.423-.208.386-.208.364-.221.327-.218.296-.22.26-.233" style="fill:none;stroke:#00ff4a;stroke-width:1.99999;stroke-linecap:round;stroke-linejoin:round;stroke-miterlimit:4;stroke-dasharray:none;stroke-opacity:1;visibility:visible"/><path d="m287.6 119.912 19.77 4.325" style="fill:none;stroke:#00ff4a;stroke-width:.999997;stroke-linecap:round;stroke-linejoin:round;stroke-miterlimit:4;stroke-dasharray:none;stroke-opacity:1;visibility:visible"/><path d="M182.862 97 287.6 119.912" style="fill:none;stroke:#00ff4a;stroke-width:1.99999;stroke-linecap:round;stroke-linejoin:round;stroke-miterlimit:4;stroke-dasharray:none;stroke-opacity:1;visibility:visible"/><path d="M161.389 92.304 182.86 97" style="fill:none;stroke:#00ff4a;stroke-width:.999997;stroke-linecap:round;stroke-linejoin:round;stroke-miterlimit:4;stroke-dasharray:none;stroke-opacity:1;visibility:visible"/><path d="m115.748 90.164.282 5.776M131.097 85.675l-.772.065-.764.083-.757.08-.74.091-.735.097-.72.096-.705.11-.69.113-.674.117-.662.126-.644.132-.617.135-.608.143-.579.146-.564.151-.532.155-.52.162-.49.164-.47.162-.444.18-.414.169-.394.178-.364.178-.334.185-.304.187-.282.184-.245.195M131.097 85.675l31.901 6.992" style="fill:none;stroke:#00ff4a;stroke-width:1.99999;stroke-linecap:round;stroke-linejoin:round;stroke-miterlimit:4;stroke-dasharray:none;stroke-opacity:1;visibility:visible"/><path d="m307.674 124.712-.052 6.277" style="fill:none;stroke:#00ff4a;stroke-width:.999997;stroke-linecap:round;stroke-linejoin:round;stroke-miterlimit:4;stroke-dasharray:none;stroke-opacity:1;visibility:visible"/><path d="m307.547 131.546.036-.276.039-.28M306.92 132.296l.192-.184.163-.188.147-.19.127-.189" style="fill:none;stroke:#00ff4a;stroke-width:1.99999;stroke-linecap:round;stroke-linejoin:round;stroke-miterlimit:4;stroke-dasharray:none;stroke-opacity:1;visibility:visible"/><path d="m307.6 124.422.038.142.036.148" style="fill:none;stroke:#00ff4a;stroke-width:.999997;stroke-linecap:round;stroke-linejoin:round;stroke-miterlimit:4;stroke-dasharray:none;stroke-opacity:1;visibility:visible"/><path d="m115.859 89.674.104-.11.111-.105M115.858 89.675l-.05.244-.059.245M116.178 96.217l-.073-.136-.073-.14" style="fill:none;stroke:#00ff4a;stroke-width:1.99999;stroke-linecap:round;stroke-linejoin:round;stroke-miterlimit:4;stroke-dasharray:none;stroke-opacity:1;visibility:visible"/><path d="m307.6 124.422-.112-.093-.118-.091" style="fill:none;stroke:#00ff4a;stroke-width:.999997;stroke-linecap:round;stroke-linejoin:round;stroke-miterlimit:4;stroke-dasharray:none;stroke-opacity:1;visibility:visible"/><path d="m289.554 120.121-.168.179M447.639 94.184l.193-.17M285.453 58.75l-.104-.08-.096-.083M448.26 87.397l-.102-.09-.103-.095M285.261 52.662l.096-.091.105-.095M285.26 52.661l-.073.215-.065.216M285.253 58.59l-.067-.135-.066-.132M448.26 87.397l.046.139.044.143M447.95 93.91l.06-.247.058-.243M447.83 94.015l.06-.052.06-.053M448.35 87.679l-.281 5.741M285.122 53.092v5.23M299.587 49.93l-.697.03-.7.037-.68.038-.683.053-.667.05-.66.061-.646.06-.637.063-.624.077-.616.081-.594.083-.578.087-.565.097-.55.096-.524.104-.513.112-.49.111-.476.113-.45.117-.423.127-.41.125-.385.133-.362.135-.335.133-.312.142-.29.14-.257.141M299.587 49.93l148.468 37.28M432.512 97.159l.762.2M328.173 69.91l76.65 20.014M285.453 58.75l13.754 3.594M433.274 97.36l.765-.037.75-.046.739-.057.729-.06.719-.068.706-.065.68-.083.678-.087.65-.09.64-.104.617-.104.6-.112.572-.118.555-.125.536-.127.51-.134.49-.14.46-.143.439-.147.409-.156.385-.156.355-.156.334-.17.306-.163.272-.17.245-.179.223-.178M306.71 132.486l.208-.192M116.409 96.395l-.119-.088-.112-.09" style="fill:none;stroke:#00ff4a;stroke-width:1.99999;stroke-linecap:round;stroke-linejoin:round;stroke-miterlimit:4;stroke-dasharray:none;stroke-opacity:1;visibility:visible"/><path d="m433.062 91.061-.255 5.786" style="fill:none;stroke:#00ff4a;stroke-width:.999997;stroke-linecap:round;stroke-linejoin:round;stroke-miterlimit:4;stroke-dasharray:none;stroke-opacity:1;visibility:visible"/><path d="m289.554 120.121 128.186-33.58M307.57 131.382l124.786-34.066" style="fill:none;stroke:#00ff4a;stroke-width:1.99999;stroke-linecap:round;stroke-linejoin:round;stroke-miterlimit:4;stroke-dasharray:none;stroke-opacity:1;visibility:visible"/><path d="m432.659 90.372.403.69" style="fill:none;stroke:#00ff4a;stroke-width:.999997;stroke-linecap:round;stroke-linejoin:round;stroke-miterlimit:4;stroke-dasharray:none;stroke-opacity:1;visibility:visible"/><path d="m163.874 92.64-.141.172M432.356 97.316l.45-.468" style="fill:none;stroke:#00ff4a;stroke-width:1.99999;stroke-linecap:round;stroke-linejoin:round;stroke-miterlimit:4;stroke-dasharray:none;stroke-opacity:1;visibility:visible"/><path d="m328.493 64.22-.075 5.4" style="fill:none;stroke:#00ff4a;stroke-width:.999997;stroke-linecap:round;stroke-linejoin:round;stroke-miterlimit:4;stroke-dasharray:none;stroke-opacity:1;visibility:visible"/><path d="M163.874 92.64 312.05 59.472M198.358 100.387l129.69-30.33" style="fill:none;stroke:#00ff4a;stroke-width:1.99999;stroke-linecap:round;stroke-linejoin:round;stroke-miterlimit:4;stroke-dasharray:none;stroke-opacity:1;visibility:visible"/><path d="m328.129 63.59.361.63" style="fill:none;stroke:#00ff4a;stroke-width:.999997;stroke-linecap:round;stroke-linejoin:round;stroke-miterlimit:4;stroke-dasharray:none;stroke-opacity:1;visibility:visible"/><path d="m328.046 70.057.37-.437" style="fill:none;stroke:#00ff4a;stroke-width:1.99999;stroke-linecap:round;stroke-linejoin:round;stroke-miterlimit:4;stroke-dasharray:none;stroke-opacity:1;visibility:visible"/><path d="m236.427 113.419.288.056.311.045.328.036.356.027.356.013.364.001.363-.01.352-.015.345-.033.324-.04.3-.052.276-.06.236-.067.208-.075.167-.081.125-.085.081-.09.031-.089-.012-.09-.052-.09-.101-.085-.147-.082-.184-.08-.221-.07-.256-.063-.283-.055-.312-.045-.333-.035-.348-.025-.359-.015-.36-.001-.364.006-.352.02-.344.03-.32.043-.305.049-.27.06-.242.07-.207.072-.165.081-.126.085-.08.088-.034.09.009.089.048.091.104.086.141.083.187.077.22.073.257.063M207.382 107.04l.28.053.303.044.325.036.343.024.354.015h.36l.356-.008.352-.019.34-.03.321-.04.301-.049.277-.059.236-.067.208-.073.168-.077.127-.082.086-.085.041-.088-.008-.088-.052-.087-.09-.084-.133-.08-.179-.076-.216-.068-.244-.063-.281-.052-.308-.047-.324-.033-.345-.024-.35-.013-.353-.003-.359.008-.35.019-.336.03-.326.039-.301.049-.27.058-.243.067-.206.07-.17.079-.129.084-.085.087-.039.085.007.088.045.087.092.086.136.08.174.075.217.068.248.064M179.124 100.83l.274.054.295.041.321.035.339.025.347.01.353.003.353-.006.344-.017.335-.031.323-.039.3-.05.276-.053.238-.066.21-.07.172-.078.13-.08.088-.081.046-.087.002-.085-.048-.085-.085-.083-.132-.077-.165-.073-.208-.07-.244-.057-.27-.05-.298-.045-.318-.035-.34-.02-.341-.016-.352-.004-.353.01-.347.018-.336.028-.32.04-.301.05-.272.054-.243.065-.205.068-.175.079-.13.078-.09.085-.044.085v.084l.043.085.084.083.129.077.171.075.206.068.238.057M151.629 94.79l.261.052.296.041.312.032.33.024.34.011.35.005.349-.01.343-.017.336-.028.318-.04.296-.047.274-.053.244-.061.208-.072.17-.072.138-.08.09-.081.051-.084.005-.08-.036-.082-.082-.081-.122-.078-.164-.069-.2-.065-.232-.06-.27-.05-.29-.042-.311-.034-.333-.021-.335-.012-.348-.004-.35.008-.343.017-.334.028-.316.039-.3.046-.272.057-.242.06-.211.07-.173.073-.134.079-.097.082-.045.079-.006.086.032.079.084.08.122.079.16.071.201.066.236.059M124.856 88.908l.261.05.283.042.31.032.323.021.337.014.343.002.343-.008.341-.017.33-.028.319-.037.295-.047.276-.053.239-.06.213-.07.175-.069.138-.08.094-.077.054-.083.008-.079-.032-.078-.072-.08-.117-.073-.159-.07-.193-.063-.23-.057-.255-.05-.284-.04-.31-.033-.322-.022-.336-.011-.342-.004-.344.008-.34.019-.33.026-.318.038-.294.046-.272.053-.248.061-.206.068-.177.07-.139.076-.092.079-.061.081-.007.08.03.082.072.076.121.076.156.066.192.067.227.056M171.026 97.347l.216.053.18.063.143.066.105.072.058.074.02.074-.025.078-.065.073-.113.073-.152.07-.183.064-.22.057-.25.053-.274.039-.296.032-.306.022-.311.014-.321.003-.32-.008-.3-.019-.292-.029-.271-.037-.245-.044-.212-.055-.182-.062-.144-.068-.101-.07-.063-.076-.018-.074.026-.077.07-.073.11-.076.15-.069.187-.062.221-.056.248-.053.274-.042.294-.03.308-.023.314-.014.316-.002.316.01.306.016.29.029.268.037.244.047M265.943 118.123l.238.06.202.065.162.072.125.077.083.083.037.084-.01.084-.058.081-.096.079-.143.079-.18.069-.217.063-.253.054-.275.047-.3.035-.317.024-.331.016h-.333l-.331-.007-.321-.021-.312-.031-.291-.043-.27-.05-.229-.06-.206-.066-.167-.074-.12-.078-.081-.08-.036-.084.006-.085.063-.081.097-.082.141-.073.182-.07.219-.063.249-.052.275-.048.298-.037.32-.023.327-.012.335-.005.328.009.324.02.309.03.29.041.268.053M135.268 91.35l.28.054.31.047.33.036.349.028.363.015.372.007.374-.004.372-.01.364-.023.356-.037.34-.04.316-.051.291-.06.27-.067.222-.073.196-.079.159-.08.113-.088.073-.085.028-.088-.01-.088-.059-.087-.097-.085-.14-.079-.18-.076-.218-.07-.246-.057-.284-.057-.306-.045-.332-.036-.349-.028-.357-.017-.371-.007-.373.003-.374.013-.366.023-.351.031-.34.045-.316.053-.293.057-.26.066-.232.072-.195.077-.156.084-.115.085-.076.087-.033.09.015.088.056.086.098.084.136.079.184.074.212.07.25.063M162.332 97.296l.288.053.313.051.337.036.36.03.366.017.376.007.378-.005.38-.013.364-.024.363-.033.341-.042.316-.053.29-.064.266-.067.227-.076.193-.08.154-.085.109-.088.07-.09.026-.088-.017-.091-.068-.089-.102-.086-.15-.083-.183-.077-.229-.07-.251-.064-.29-.055-.314-.047-.337-.037-.356-.028-.363-.02-.38-.006-.377.003-.376.015-.37.023-.353.034-.344.044-.313.052-.296.06-.26.067-.231.077-.193.08-.156.085-.111.086-.069.092-.024.09.014.09.064.089.106.084.142.084.19.076.223.071.257.066M190.133 103.408l.296.056.321.048.348.04.359.028.376.02.383.005h.384l.38-.017.373-.023.364-.035.34-.045.32-.055.29-.06.263-.073.227-.077.188-.083.153-.085.107-.09.061-.095.02-.092-.025-.092-.071-.091-.105-.09-.157-.082-.194-.081-.236-.071-.261-.068-.297-.055-.322-.048-.341-.04-.363-.027-.37-.019-.384-.008-.38.004-.383.013-.372.027-.359.033-.341.045-.32.055-.293.06-.26.071-.226.078-.193.083-.15.085-.111.093-.062.091-.022.094.028.092.064.09.11.088.153.085.195.08.232.073.263.065M294.673 52.592l.213.048.243.044.268.032.282.03.299.016.31.011.31.004.316-.007.306-.014.294-.024.284-.032.262-.04.238-.044.212-.05.183-.057.149-.062.108-.064.075-.066.038-.067-.005-.067-.048-.07-.079-.065-.116-.063-.154-.057-.188-.055-.216-.048-.248-.044-.26-.029-.286-.03-.298-.017-.307-.011-.312-.002-.312.005-.305.016-.299.023-.28.028-.263.041-.237.045-.21.051-.183.059-.151.059-.108.065-.08.065-.03.068v.067l.039.068.085.067.118.061.153.059.19.053M316.893 58.223l.225.05.25.042.269.037.293.028.304.019.312.013h.32l.314-.005.31-.018.304-.022.288-.032.258-.04.246-.046.21-.052.179-.057.151-.064.104-.067.075-.066.033-.073-.01-.067-.051-.07-.08-.066-.13-.067-.157-.059-.195-.057-.224-.048-.246-.043-.27-.036-.292-.027-.306-.022-.311-.01h-.316l-.319.004-.31.017-.295.021-.286.033-.266.042-.239.044-.213.054-.179.059-.145.061-.113.064-.075.07-.029.068.009.072.043.068.087.068.12.066.163.059.19.055M339.776 64.023l.231.05.261.047.272.035.296.029.312.02.32.01h.322l.322-.001.312-.018.31-.026.285-.032.263-.041.24-.048.216-.055.177-.058.147-.066.108-.066.068-.07.028-.072-.014-.073-.049-.07-.093-.071-.13-.067-.164-.06-.198-.056-.228-.05-.254-.047-.278-.035-.3-.028-.308-.023-.316-.009-.324-.003-.323.008-.312.014-.303.024-.286.034-.268.041-.24.046-.21.055-.181.058-.147.064-.106.067-.072.072-.027.073.01.072.05.068.092.072.128.067.165.06.196.059M363.346 69.99l.237.055.257.046.29.037.3.03.316.022.326.01.326.006.328-.011.317-.015.308-.027.29-.033.271-.041.239-.048.213-.058.178-.059.146-.068.103-.07.069-.07.026-.076-.019-.073-.056-.077-.099-.067-.137-.07-.168-.065-.205-.056-.238-.055-.258-.044-.288-.038-.302-.028-.313-.023-.328-.01-.324-.006-.325.012-.319.013-.304.024-.29.035-.266.043-.244.049-.212.053-.181.063-.143.065-.107.07-.068.073-.02.075.01.072.056.073.094.073.138.067.17.064.206.059M387.634 76.144l.242.052.271.05.29.036.308.033.323.02.33.013.332.002.333-.007.321-.016.312-.027.292-.035.268-.042.242-.051.217-.056.177-.064.143-.067.1-.072.064-.076.023-.074-.023-.076-.06-.077-.101-.073-.144-.072-.176-.065-.212-.06-.242-.055-.27-.045-.291-.04-.312-.032-.32-.019-.33-.013-.336-.004-.326.008-.323.017-.309.026-.29.034-.268.044-.245.05-.212.054-.18.067-.141.067-.105.071-.067.075-.02.076.019.075.061.075.107.074.138.07.178.069.212.059M426.576 86.01l.255.058.283.047.3.044.321.03.331.026.34.012.344.002.338-.008.327-.016.319-.028.296-.036.268-.045.248-.056.214-.057.175-.066.141-.072.096-.074.059-.078.015-.08-.031-.08-.068-.08-.112-.078-.153-.072-.192-.07-.218-.061-.256-.057-.28-.051-.301-.04-.316-.035-.332-.019-.34-.014-.344-.003-.335.008-.33.016-.316.027-.295.036-.272.045-.243.055-.212.057-.18.067-.136.072-.101.073-.057.079-.016.08.024.08.074.08.11.077.149.072.188.07.221.065M303.258 54.912l.235.053.264.045.288.041.3.029.325.025.332.015.337.008.341-.004.335-.01.332-.016.318-.03.304-.033.286-.045.255-.047.232-.059.203-.059.165-.064.131-.071.097-.07.052-.076.02-.073-.027-.075-.061-.07-.103-.074-.137-.067-.17-.064-.206-.057-.236-.053-.261-.047-.287-.04-.303-.03-.322-.024-.334-.015-.333-.007-.341.001-.336.011-.333.02-.315.025-.3.036-.283.042-.264.049-.228.056-.201.06-.169.065-.131.07-.099.073-.052.073-.015.075.023.073.056.073.1.071.14.067.17.064.207.06M325.743 60.608l.247.055.267.047.293.039.315.034.324.024.338.017.343.008.347-.001.34-.011.337-.021.321-.027.307-.037.285-.045.258-.05.234-.056.199-.063.162-.066.134-.072.09-.075.053-.075.011-.077-.028-.077-.066-.075-.105-.07-.143-.074-.18-.063-.21-.061-.241-.052-.271-.048-.294-.041-.31-.032-.325-.024-.338-.016-.344-.007-.344.001-.343.01-.332.021-.32.027-.308.035-.286.043-.26.051-.226.059-.204.061-.167.065-.13.071-.09.075-.053.075-.013.079.025.075.065.075.108.074.139.07.181.065.208.06M348.903 66.477l.248.056.275.051.301.041.317.035.332.027.346.013.348.008.353-.003.345-.008.34-.022.323-.027.315-.036.284-.047.26-.053.23-.057.2-.066.165-.069.129-.073.09-.075.047-.079.009-.081-.034-.077-.07-.075-.113-.077-.15-.073-.187-.066-.218-.06-.252-.057-.274-.051-.295-.04-.319-.033-.336-.024-.34-.019-.351-.007-.349.002-.346.012-.338.02-.326.026-.31.038-.28.045-.261.053-.238.058-.194.063-.165.07-.13.072-.091.077-.047.079-.012.079.032.077.072.079.112.076.15.069.182.068.221.061M411.375 80.503l.195.056.162.06.124.067.086.069.048.07.002.07-.04.073-.077.068-.12.061-.153.06-.19.054-.221.046-.248.039-.268.033-.287.021-.302.014h-.304l-.303-.005-.3-.02-.292-.023-.272-.036-.252-.041-.223-.051-.2-.056-.158-.063-.128-.065-.084-.068-.044-.072-.003-.072.04-.068.077-.07.12-.061.156-.061.191-.053.221-.047.247-.04.267-.03.284-.022.302-.01.306-.007.298.009.302.018.292.026.272.033.25.042.227.052" style="fill:none;stroke:#00ff4a;stroke-width:.866664;stroke-linecap:round;stroke-linejoin:round;stroke-miterlimit:4;stroke-dasharray:none;stroke-opacity:1;visibility:visible"/><path d="M85.064 78.227h-7.28M77.784 78.227h7.28" style="fill:none;fill-opacity:1;fill-rule:nonzero;stroke:#00ff4a;stroke-width:1.33333;visibility:visible"/><path d="m256.557 77.848-1.088.995M256.557 77.848l-.875 1.062M255.682 78.91l.875-1.062M255.469 78.843l1.088-.995M162.998 92.667l-1.609-.363" style="fill:none;stroke:#00ff4a;stroke-width:.999997;stroke-linecap:round;stroke-linejoin:round;stroke-miterlimit:4;stroke-dasharray:none;stroke-opacity:1;visibility:visible"/><path d="m411.375 80.503-6.552 9.421M303.258 54.912l-4.051 7.432" style="fill:none;stroke:#00ff4a;stroke-width:1.99999;stroke-linecap:round;stroke-linejoin:round;stroke-miterlimit:4;stroke-dasharray:none;stroke-opacity:1;visibility:visible"/><path d="m190.133 103.408 17.249 3.632M190.133 103.408l17.249 3.632M182.86 97l-3.736 3.83M182.862 97l-3.738 3.829M162.332 97.297l-10.703-2.507M161.389 92.304l-9.76 2.486M135.268 91.35l-10.412-2.442M131.097 85.675l-6.241 3.233M162.332 97.297l8.694.05M162.332 97.296l8.694.051M124.856 88.908l10.412 2.442M131.097 85.675l4.171 5.675M162.998 92.667l-.666 4.629M161.389 92.304l.943 4.993M182.86 97l7.273 6.408M182.862 97l7.271 6.408M303.259 54.912l-8.586-2.32M299.587 49.93l-4.914 2.662M325.743 60.608l-8.85-2.385M325.743 60.608l-8.85-2.385M348.903 66.477l-9.127-2.454M348.903 66.477l-9.127-2.454M348.903 66.477l14.443 3.513M348.903 66.477l14.443 3.514M433.586 90.408l-7.01-4.398M432.512 97.159l-5.936-11.147M299.207 62.344l4.051-7.432M299.587 49.93l3.672 4.982M316.893 58.223l8.85 2.385M316.893 58.223l8.85 2.385M339.776 64.023l9.127 2.454M339.776 64.023l9.127 2.454M404.823 89.924l6.552-9.421M426.576 86.01l-15.201-5.507" style="fill:none;stroke:#00ff4a;stroke-width:.866664;stroke-linecap:round;stroke-linejoin:round;stroke-miterlimit:4;stroke-dasharray:none;stroke-opacity:1;visibility:visible"/></svg>