<svg xmlns="http://www.w3.org/2000/svg" baseProfile="full" height="1122.52" preserveAspectRatio="xMinYMin meet" style="width:729px;height:902px" width="793.701" xml:space="preserve"><path d="m463.66 870.515.136.053.148.044.164.038.17.022.177.008h.177l.179-.021.164-.023.161-.046.15-.043.126-.06.11-.068.083-.08.058-.075.038-.082.014-.09-.022-.081-.036-.08-.076-.073-.088-.078-.112-.065-.133-.053-.156-.043-.156-.037-.177-.023-.172-.008h-.178l-.178.023-.17.024-.156.041-.149.045-.124.062-.112.065-.09.083-.06.073-.035.083-.008.088.016.081.044.083.065.072.099.076.109.065M400.905 903.723l129.89-60.577M455.999 866.932l.139.06.156.052.172.037.176.024.188.012.193.01.184-.018.185-.022.178-.035.164-.047.148-.05.133-.068.112-.074.088-.081.068-.081.044-.09.016-.09-.016-.088-.036-.082-.068-.089-.088-.073-.112-.075-.125-.059-.151-.052-.163-.044-.176-.029-.185-.023-.188-.009h-.181l-.196.024-.178.03-.172.037-.153.05-.143.06-.125.068-.099.082-.078.08-.055.082-.03.09v.088l.022.088.052.085.076.08.104.073.12.067M511.908 957.857l.036-4.925M511.499 952.243l112.464-60.227M601.876 874.678l.13.06.151.052.17.039.169.028.18.021h.176l.18-.007.17-.02.16-.033.153-.043.124-.058.112-.062.081-.073.06-.075.036-.089.008-.08-.013-.084-.044-.088-.074-.081-.09-.075-.12-.067-.134-.058-.153-.054-.167-.042-.169-.031-.177-.015-.176-.008-.18.008-.17.022-.164.038-.148.044-.128.052-.101.068-.09.064-.06.083-.038.083-.008.08.019.089.041.081.076.083.088.075.12.073M618.619 883.21l.128.06.14.044.148.03.163.02.164.01h.164l.145-.021.148-.032.128-.044.112-.051.088-.061.06-.066.045-.074.007-.083-.015-.075-.044-.073-.073-.073-.096-.067-.112-.056-.136-.056-.145-.037-.158-.028-.164-.016-.156-.008-.164.016-.148.02-.13.038-.12.052-.104.052-.072.066-.052.077-.024.072v.073l.03.083.058.075.084.066.101.067M492.33 822.64l132.461 69.448M624.79 892.088l.693-.072.687-.083.675-.097.669-.103.653-.12.647-.14.621-.141.618-.164.598-.163.579-.185.565-.192.55-.201.526-.215.502-.23.49-.23.463-.244.443-.253.425-.266.401-.268.37-.281.349-.29.325-.29.296-.304.276-.304.251-.31.216-.32.2-.326M609.496 878.759l.14.065.163.054.176.05.188.031.185.023.192.013.193-.007.192-.016.178-.029.164-.037.148-.051.133-.067.112-.068.088-.081.068-.08.037-.09.015-.09-.023-.097-.037-.088-.072-.087-.09-.083-.122-.082-.13-.067-.158-.057-.161-.054-.186-.045-.185-.03-.195-.014h-.193l-.184.008-.185.023-.172.037-.162.043-.144.052-.116.066-.105.075-.075.083-.049.088-.03.089.006.09.03.095.054.09.08.089.104.08.128.076M624.116 897.314l.2-4.637M624.548 897.655l-.024-.03-.02-.038M492.33 822.64l-.09.084-.09.081M472.236 943.117l.167.059.169.045.185.037.192.018h.202l.192-.01.193-.032.184-.044.164-.052.15-.064.126-.085.11-.085.075-.098.052-.097.022-.104-.008-.103-.035-.098-.067-.095-.089-.097-.123-.082-.14-.066-.156-.06-.174-.052-.188-.03-.192-.021h-.194l-.2.015-.188.03-.184.035-.162.061-.151.066-.13.073-.105.09-.074.097-.05.097-.024.103.008.104.036.104.06.098.098.088.116.08.133.075M388.374 905.927l.148.059.164.037.17.03.187.02h.186l.184-.013.185-.022.18-.038.161-.053.148-.059.136-.073.104-.083.088-.08.06-.089.03-.096v-.088l-.024-.099-.052-.08-.082-.09-.096-.074-.128-.058-.145-.062-.156-.036-.18-.029-.177-.023h-.192l-.186.015-.186.023-.17.036-.172.053-.149.059-.124.072-.112.082-.081.084-.06.088-.036.098v.088l.02.096.054.081.079.083.107.081.117.06M340.746 890.368l158.005 70.613M498.751 960.98l.735-.147.726-.172.706-.185.697-.2.683-.208.669-.23.644-.24.63-.247.609-.27.586-.274.572-.288.548-.296.518-.314.505-.326.477-.326.452-.341.42-.35.402-.363.372-.364.352-.372.317-.378.29-.384.26-.394.229-.392.205-.402.172-.401.148-.408M463.022 939.155l.164.068.185.052.192.037.211.022.207.008.208-.008.208-.022.201-.037.181-.052.175-.068.147-.073.132-.083.112-.095.081-.105.052-.104.023-.103v-.11l-.031-.106-.068-.102-.088-.104-.11-.09-.133-.081-.164-.067-.169-.06-.192-.044-.204-.03-.208-.015h-.205l-.21.015-.2.03-.192.044-.18.06-.161.067-.141.081-.12.09-.096.096-.068.102-.044.114-.006.101.014.112.044.104.076.105.104.086.128.092.145.073M380.02 902.343l.148.06.172.044.177.037.194.023.2.005.2-.005.193-.023.192-.037.188-.044.17-.06.155-.068.134-.075.112-.088.088-.088.06-.097.036-.096.008-.097-.02-.096-.046-.096-.074-.087-.096-.084-.126-.073-.144-.058-.164-.053-.176-.047-.185-.021-.193-.015h-.198l-.202.015-.194.021-.185.047-.179.053-.162.058-.14.073-.128.084-.102.087-.074.09-.046.094-.022.105v.096l.036.097.06.088.088.088.112.075.133.068M498.29 961.68l-.013 4.97M498.728 966.946l-.013-.021-.02-.023M340.746 890.368l-.096.097-.099.098" style="fill:none;stroke:red;stroke-width:.999997;stroke-linecap:round;stroke-linejoin:round;stroke-miterlimit:4;stroke-dasharray:none;stroke-opacity:1;visibility:visible" visibility="hidden"/><path d="m383.61 896.132-.29.237" style="fill:none;stroke:red;stroke-width:1.99999;stroke-linecap:round;stroke-linejoin:round;stroke-miterlimit:4;stroke-dasharray:none;stroke-opacity:1;visibility:visible" visibility="hidden"/><path d="m531.061 848.148.06-4.392" style="fill:none;stroke:red;stroke-width:.999997;stroke-linecap:round;stroke-linejoin:round;stroke-miterlimit:4;stroke-dasharray:none;stroke-opacity:1;visibility:visible" visibility="hidden"/><path d="m516.335 835.557-132.724 60.576M530.728 848.415 406.78 906.668" style="fill:none;stroke:red;stroke-width:1.99999;stroke-linecap:round;stroke-linejoin:round;stroke-miterlimit:4;stroke-dasharray:none;stroke-opacity:1;visibility:visible" visibility="hidden"/><path d="m530.796 843.146.325.61" style="fill:none;stroke:red;stroke-width:.999997;stroke-linecap:round;stroke-linejoin:round;stroke-miterlimit:4;stroke-dasharray:none;stroke-opacity:1;visibility:visible" visibility="hidden"/><path d="m530.728 848.415.333-.267M495.905 945.402l-.341.237" style="fill:none;stroke:red;stroke-width:1.99999;stroke-linecap:round;stroke-linejoin:round;stroke-miterlimit:4;stroke-dasharray:none;stroke-opacity:1;visibility:visible" visibility="hidden"/><path d="m624.116 897.314.2-4.637" style="fill:none;stroke:red;stroke-width:.999997;stroke-linecap:round;stroke-linejoin:round;stroke-miterlimit:4;stroke-dasharray:none;stroke-opacity:1;visibility:visible" visibility="hidden"/><path d="m610.757 885.086-114.852 60.316M623.717 897.58l-111.82 60.336" style="fill:none;stroke:red;stroke-width:1.99999;stroke-linecap:round;stroke-linejoin:round;stroke-miterlimit:4;stroke-dasharray:none;stroke-opacity:1;visibility:visible" visibility="hidden"/><path d="m623.962 892.016.355.66" style="fill:none;stroke:red;stroke-width:.999997;stroke-linecap:round;stroke-linejoin:round;stroke-miterlimit:4;stroke-dasharray:none;stroke-opacity:1;visibility:visible" visibility="hidden"/><path d="m623.717 897.58.399-.267M637.879 886.297l-132.754-68.372M505.124 817.924l-.628.05-.632.067-.615.074-.617.09-.599.096-.594.112-.586.111-.573.125-.563.143-.549.14-.541.157-.53.163-.5.177-.5.178-.473.193-.467.193-.44.207-.429.208-.41.223-.385.229-.372.23-.346.24-.328.243M624.548 897.655l-.521-.277M605.749 887.72l-74.768-39.512M511.35 837.835l-19.03-10.052M624.548 897.655l.683-.076.681-.081.667-.096.662-.104.654-.119.626-.135.626-.149.606-.153.595-.171.58-.179.555-.193.541-.2.527-.216.505-.223.481-.228.47-.245.437-.253.421-.262M492.025 827.524v-4.281M637.923 891.161l.221-4.607M635.014 894.478l.38-.259.355-.261.336-.265.317-.275.29-.281.265-.282.254-.298.222-.296.201-.296.18-.306M637.814 891.66l.057-.252.052-.247M638.064 886.437l.044.059.037.058M492.142 827.65l-.06-.06-.057-.065M492.15 822.806l-.068.215-.057.222M493.306 821.684l-.26.215-.25.224-.23.224-.216.226-.2.232M492.142 827.65l.088.067.09.068M637.879 886.297l.088.073.097.067M493.447 821.573l-.14.11M634.866 894.573l.148-.096M382.41 895.97l-28.377-12.456" style="fill:none;stroke:red;stroke-width:1.99999;stroke-linecap:round;stroke-linejoin:round;stroke-miterlimit:4;stroke-dasharray:none;stroke-opacity:1;visibility:visible" visibility="hidden"/><path d="m400.777 904.032-18.367-8.061" style="fill:none;stroke:red;stroke-width:.999997;stroke-linecap:round;stroke-linejoin:round;stroke-miterlimit:4;stroke-dasharray:none;stroke-opacity:1;visibility:visible" visibility="hidden"/><path d="m494.728 945.27-93.95-41.239" style="fill:none;stroke:red;stroke-width:1.99999;stroke-linecap:round;stroke-linejoin:round;stroke-miterlimit:4;stroke-dasharray:none;stroke-opacity:1;visibility:visible" visibility="hidden"/><path d="m511.676 952.709-16.948-7.439" style="fill:none;stroke:red;stroke-width:.999997;stroke-linecap:round;stroke-linejoin:round;stroke-miterlimit:4;stroke-dasharray:none;stroke-opacity:1;visibility:visible" visibility="hidden"/><path d="m354.033 883.514-.685.125-.675.135-.667.148-.658.155-.646.178-.641.179-.621.192-.615.208-.595.215-.577.222-.565.238-.55.245-.532.253-.512.258-.497.276-.475.274-.453.29-.432.297-.413.296-.386.312M498.728 966.946l.727-.155.708-.164.698-.185.687-.192.67-.208.65-.223.641-.238.615-.246.599-.256.581-.276.563-.282.541-.298.52-.304.495-.31M498.728 966.946l-157.716-71.021M340.684 895.687l-.221-4.62" style="fill:none;stroke:red;stroke-width:1.99999;stroke-linecap:round;stroke-linejoin:round;stroke-miterlimit:4;stroke-dasharray:none;stroke-opacity:1;visibility:visible" visibility="hidden"/><path d="m511.908 957.857.036-4.925" style="fill:none;stroke:red;stroke-width:.999997;stroke-linecap:round;stroke-linejoin:round;stroke-miterlimit:4;stroke-dasharray:none;stroke-opacity:1;visibility:visible" visibility="hidden"/><path d="m507.574 963.503.467-.316.44-.328.421-.333.393-.342.37-.356.344-.358.325-.362.287-.37.276-.38.237-.378.216-.385.193-.387.164-.393.132-.392M511.84 958.423l.028-.283.04-.282" style="fill:none;stroke:red;stroke-width:1.99999;stroke-linecap:round;stroke-linejoin:round;stroke-miterlimit:4;stroke-dasharray:none;stroke-opacity:1;visibility:visible" visibility="hidden"/><path d="m511.876 952.836.036.045.032.051" style="fill:none;stroke:red;stroke-width:.999997;stroke-linecap:round;stroke-linejoin:round;stroke-miterlimit:4;stroke-dasharray:none;stroke-opacity:1;visibility:visible" visibility="hidden"/><path d="m340.814 895.8-.068-.053-.063-.06M340.55 890.562l-.044.25-.044.254M342.697 888.13l-.341.287-.32.292-.306.301-.273.305-.26.304-.237.314-.214.309-.194.32M340.814 895.8l.093.065.104.059" style="fill:none;stroke:red;stroke-width:1.99999;stroke-linecap:round;stroke-linejoin:round;stroke-miterlimit:4;stroke-dasharray:none;stroke-opacity:1;visibility:visible" visibility="hidden"/><path d="m511.676 952.709.096.06.104.067" style="fill:none;stroke:red;stroke-width:.999997;stroke-linecap:round;stroke-linejoin:round;stroke-miterlimit:4;stroke-dasharray:none;stroke-opacity:1;visibility:visible" visibility="hidden"/><path d="m342.837 888.01-.14.121M507.423 963.609l.15-.105" style="fill:none;stroke:red;stroke-width:1.99999;stroke-linecap:round;stroke-linejoin:round;stroke-miterlimit:4;stroke-dasharray:none;stroke-opacity:1;visibility:visible" visibility="hidden"/><path d="m605.749 887.72-3.873-13.042M624.791 892.088l-6.172-8.878M605.749 887.72l3.747-8.961M382.41 895.97l5.964 9.957M382.41 895.97l5.964 9.957M382.41 895.97l-2.39 6.373M382.41 895.97l-2.39 6.373" style="fill:none;stroke:red;stroke-width:.999997;stroke-linecap:round;stroke-linejoin:round;stroke-miterlimit:4;stroke-dasharray:none;stroke-opacity:1;visibility:visible" visibility="hidden"/><path d="m609.496 878.759-3.747 8.961" style="fill:none;stroke:red;stroke-width:1.99999;stroke-linecap:round;stroke-linejoin:round;stroke-miterlimit:4;stroke-dasharray:none;stroke-opacity:1;visibility:visible" visibility="hidden"/><path d="m361.712 556.312 18.213 4.272M380.78 560.562l-.855.021M384.978 559.368l-4.197 1.195M377.085 559.013l.148.02.164.023.172.013.183.01.188-.01.184-.005.177-.023.161-.024.151-.036.125-.037.096-.043.074-.047.038-.044.014-.05-.02-.046-.052-.045-.09-.044-.104-.036-.133-.03-.156-.03-.172-.015-.176-.008h-.188l-.185.008-.184.015-.17.021-.157.032-.132.036-.112.036-.09.047-.051.05-.031.046.008.05.039.046.068.044.093.036.12.04M367.337 556.512l-.09.05-.05.06-.032.053.008.058.028.059.068.053.096.044.128.051.139.039" style="fill:none;stroke:#00ff4a;stroke-width:.999997;stroke-linecap:round;stroke-linejoin:round;stroke-miterlimit:4;stroke-dasharray:none;stroke-opacity:1;visibility:visible"/><path d="m367.631 556.978.172.037.185.022.2.024.216.006.222.007.224-.007.221-.006.208-.024.207-.022.194-.037.172-.037.148-.044.126-.052.104-.054.068-.058.041-.054.008-.056-.013-.061-.055-.05-.08-.054M389.704 863.318l-9.779-302.734" style="fill:none;stroke:#00ff4a;stroke-width:.999997;stroke-linecap:round;stroke-linejoin:round;stroke-miterlimit:4;stroke-dasharray:none;stroke-opacity:1;visibility:visible"/><path d="m394.272 861.331-3.797 1.957M389.704 863.318l-16.7-6.968M389.704 863.318l.77-.03M384.978 559.368l-.013-.223M372.486 556.239l12.479 2.905M365.928 554.922l-4.216 1.173M361.712 556.312v-.216M394.272 861.331l-9.295-301.963M361.712 556.312l11.292 300.038M367.632 556.979l4.854-.74M380.78 560.563l-14.852-5.641" style="fill:none;stroke:#00ff4a;stroke-width:1.99999;stroke-linecap:round;stroke-linejoin:round;stroke-miterlimit:4;stroke-dasharray:none;stroke-opacity:1;visibility:visible"/><path d="m446.918 535.737 16.656 4.199M464.381 539.937h-.807M468.47 538.943l.008-.192M468.47 538.943l-4.088.993M461.08 538.468l.136.021.148.024.161.014.18.014h.172l.179-.005.167-.016.157-.023.143-.021.117-.037.104-.038.065-.037.047-.044.013-.037-.013-.044-.047-.046-.073-.036-.096-.038-.117-.028-.151-.024-.153-.022-.172-.014h-.35l-.172.014-.161.016-.148.02-.136.03-.11.038-.08.036-.06.038-.031.044v.045l.032.045.058.039.082.036.109.036M452.098 536.071l-.06.053-.028.044-.01.051.03.053.057.051.084.047.112.042.132.038M452.415 536.45l.148.037.18.022.185.022.198.015.21.007.21.009.205-.01.208-.013.193-.024.184-.021.164-.036.15-.037.125-.036.096-.054.075-.044.045-.053.015-.05-.015-.054-.037-.044-.072-.052M465.785 829.495l-2.21-289.558" style="fill:none;stroke:#9500ff;stroke-width:.999997;stroke-linecap:round;stroke-linejoin:round;stroke-miterlimit:4;stroke-dasharray:none;stroke-opacity:1;visibility:visible" visibility="hidden"/><path d="m470.26 827.863-3.74 1.632M465.785 829.495l-15.284-6.921M465.785 829.495h.735M457.24 535.933l11.237 2.819M451.027 534.573l-4.085.964M446.918 535.737l.024-.2M468.478 538.751l1.787 288.785M446.918 535.737l3.584 286.835" style="fill:none;stroke:#9500ff;stroke-width:1.99999;stroke-linecap:round;stroke-linejoin:round;stroke-miterlimit:4;stroke-dasharray:none;stroke-opacity:1;visibility:visible" visibility="hidden"/><path d="m457.24 535.933 3.84 2.535" style="fill:none;stroke:#9500ff;stroke-width:.999997;stroke-linecap:round;stroke-linejoin:round;stroke-miterlimit:4;stroke-dasharray:none;stroke-opacity:1;visibility:visible" visibility="hidden"/><path d="m461.08 538.468-3.84-2.535M464.382 539.936l-13.355-5.363" style="fill:none;stroke:#9500ff;stroke-width:1.99999;stroke-linecap:round;stroke-linejoin:round;stroke-miterlimit:4;stroke-dasharray:none;stroke-opacity:1;visibility:visible" visibility="hidden"/><path d="m365.928 554.922 11.157 4.091" style="fill:none;stroke:#00ff4a;stroke-width:.999997;stroke-linecap:round;stroke-linejoin:round;stroke-miterlimit:4;stroke-dasharray:none;stroke-opacity:1;visibility:visible"/><path d="m461.08 538.468-6.198-2.434" style="fill:none;stroke:#9500ff;stroke-width:.999997;stroke-linecap:round;stroke-linejoin:round;stroke-miterlimit:4;stroke-dasharray:none;stroke-opacity:1;visibility:visible" visibility="hidden"/></svg>