<svg xmlns="http://www.w3.org/2000/svg" baseProfile="full" height="1122.52" preserveAspectRatio="xMinYMin meet" style="width:729px;height:902px" width="793.701" xml:space="preserve"><path d="m188.254 393.954-.096.096-.098.097M346.238 470.531l-.014-.021-.02-.023M345.8 465.266l-.015 4.969M310.533 442.742l.164.068.185.049.192.039.21.021.206.007.208-.007.208-.021.201-.039.183-.05.173-.066.148-.075.132-.082.11-.098.083-.104.054-.102.019-.104v-.111l-.027-.104-.069-.104-.088-.105-.111-.09-.134-.078-.163-.068-.17-.06-.192-.044-.202-.03-.208-.017h-.207l-.208.017-.2.03-.192.044-.18.06-.161.068-.143.078-.119.09-.095.096-.069.104-.044.113-.006.103.014.112.045.102.075.104.103.088.128.092.147.074M346.26 464.567l.735-.147.727-.172.704-.186.698-.199.683-.21.668-.226.645-.24.63-.25.61-.27.585-.275.571-.288.548-.294.52-.314.503-.326.479-.328.45-.339.422-.35.401-.363.372-.364.35-.372.319-.379.29-.384.26-.395.228-.393.206-.399.172-.402.148-.408M188.254 393.954l158.006 70.613M319.746 446.702l.164.06.171.045.186.037.193.016h.201l.192-.009.192-.03.185-.046.164-.051.15-.064.124-.084.11-.088.076-.097.052-.097.023-.104-.009-.103-.035-.097-.067-.095-.09-.097-.119-.082-.142-.066-.157-.062-.175-.052-.185-.028-.193-.022h-.194l-.201.014-.187.032-.184.035-.161.06-.152.068-.13.073-.106.088-.072.098-.052.096-.023.104.007.104.037.104.059.096.097.089.118.083.133.072M339.838 326.227l-.09.083-.088.083M472.056 401.242l-.023-.03-.02-.038M471.625 400.9l.2-4.64M457.004 382.345l.14.065.164.055.176.049.187.03.185.024.192.013.194-.007.193-.015.177-.029.164-.038.148-.051.134-.068.11-.067.09-.08.068-.083.036-.09.016-.087-.023-.097-.039-.089-.072-.09-.09-.08-.119-.083-.132-.065-.157-.06-.162-.052-.186-.044-.186-.03-.192-.018h-.194l-.186.012-.185.02-.17.04-.163.04-.143.053-.116.068-.105.074-.075.08-.05.091-.029.089.006.089.029.095.053.09.08.088.106.083.126.075M472.3 395.674l.692-.07.688-.084.675-.098.67-.103.651-.119.648-.14.62-.14.617-.166.6-.164.58-.184.562-.192.551-.202.526-.214.503-.23.49-.231.462-.245.444-.25.424-.266.401-.268.37-.282.348-.29.327-.289.296-.304.275-.303.252-.313.215-.32.2-.325M339.838 326.227 472.3 395.675M466.128 386.797l.128.058.139.046.15.028.161.024.164.006h.164l.146-.022.148-.03.128-.044.112-.052.088-.06.06-.065.046-.076.005-.08-.014-.076-.043-.074-.075-.073-.096-.066-.112-.061-.135-.05-.146-.04-.156-.029-.165-.013-.155-.011-.165.018-.147.02-.132.039-.12.05-.104.055-.072.064-.053.077-.021.073v.073l.029.083.057.074.084.067.101.067M449.386 378.265l.132.058.149.054.17.038.169.027.181.023h.176l.179-.007.17-.023.162-.032.15-.042.126-.058.112-.061.08-.073.061-.075.037-.09.007-.079-.013-.085-.046-.087-.073-.083-.09-.075-.121-.065-.132-.06-.154-.052-.166-.043-.17-.032-.177-.013-.177-.01-.178.01-.171.02-.163.04-.148.043-.128.053-.102.068-.09.065-.06.082-.038.079-.007.084.017.089.043.082.075.082.088.073.12.075M359.007 455.828l112.464-60.225M359.416 461.444l.036-4.924M248.413 407.308l52.674-24.563M330.586 368.986l47.718-22.256M378.571 351.734l.059-4.392" style="fill:none;stroke:red;stroke-width:.999997;stroke-linecap:round;stroke-linejoin:round;stroke-miterlimit:4;stroke-dasharray:none;stroke-opacity:1;visibility:visible"/><path d="M378.238 352.002 331.09 374.16M300.989 388.308l-46.699 21.947M363.843 339.143l-32.973 15.05M297.526 369.413l-54.09 24.686" style="fill:none;stroke:red;stroke-width:1.99999;stroke-linecap:round;stroke-linejoin:round;stroke-miterlimit:4;stroke-dasharray:none;stroke-opacity:1;visibility:visible"/><path d="m378.306 346.731.324.61" style="fill:none;stroke:red;stroke-width:.999997;stroke-linecap:round;stroke-linejoin:round;stroke-miterlimit:4;stroke-dasharray:none;stroke-opacity:1;visibility:visible"/><path d="m343.412 448.988-.34.238M378.238 352.002l.332-.268" style="fill:none;stroke:red;stroke-width:1.99999;stroke-linecap:round;stroke-linejoin:round;stroke-miterlimit:4;stroke-dasharray:none;stroke-opacity:1;visibility:visible"/><path d="m471.625 400.9.2-4.64" style="fill:none;stroke:red;stroke-width:.999997;stroke-linecap:round;stroke-linejoin:round;stroke-miterlimit:4;stroke-dasharray:none;stroke-opacity:1;visibility:visible"/><path d="m471.225 401.167-111.818 60.336M458.266 388.671l-114.852 60.316" style="fill:none;stroke:red;stroke-width:1.99999;stroke-linecap:round;stroke-linejoin:round;stroke-miterlimit:4;stroke-dasharray:none;stroke-opacity:1;visibility:visible"/><path d="m471.47 395.603.353.659" style="fill:none;stroke:red;stroke-width:.999997;stroke-linecap:round;stroke-linejoin:round;stroke-miterlimit:4;stroke-dasharray:none;stroke-opacity:1;visibility:visible"/><path d="m221.106 395.688-19.563-8.587M482.375 398.162l.148-.098M340.955 325.16l-.139.112M485.387 389.882l.09.073.095.067M339.652 331.235l.088.067.09.067M340.815 325.271l-.26.215-.252.224-.23.221-.213.231-.2.23M339.66 326.393l-.07.214-.058.223M339.652 331.235l-.06-.06-.058-.065M485.572 390.023l.043.059.038.06M485.321 395.247l.06-.253.049-.246M482.524 398.063l.379-.259.354-.26.336-.264.32-.276.287-.282.267-.282.253-.297.223-.299.201-.294.179-.304M485.43 394.748l.224-4.606M339.532 331.11v-4.281M472.056 401.242l.684-.074.68-.082.668-.096.662-.106.653-.117.627-.136.625-.148.608-.153.594-.17.58-.18.554-.195.542-.198.527-.217.505-.223.482-.227.47-.245.435-.253.423-.26M358.858 341.42l-19.03-10.05M453.256 391.306l-74.768-39.512M472.056 401.242l-.521-.276M352.632 321.509l-.628.05-.63.068-.616.074-.616.089-.6.097-.595.113-.585.11-.574.124-.562.145-.548.139-.542.156-.529.163-.501.177-.499.179-.475.193-.466.193-.439.207-.43.208-.409.223-.385.23-.372.228-.348.239-.328.245M485.387 389.882l-132.755-68.373M471.225 401.167l.4-.267" style="fill:none;stroke:red;stroke-width:1.99999;stroke-linecap:round;stroke-linejoin:round;stroke-miterlimit:4;stroke-dasharray:none;stroke-opacity:1;visibility:visible"/><path d="m248.286 407.618-4.18-1.835" style="fill:none;stroke:red;stroke-width:.999997;stroke-linecap:round;stroke-linejoin:round;stroke-miterlimit:4;stroke-dasharray:none;stroke-opacity:1;visibility:visible"/><path d="m342.236 448.858-93.95-41.239" style="fill:none;stroke:red;stroke-width:1.99999;stroke-linecap:round;stroke-linejoin:round;stroke-miterlimit:4;stroke-dasharray:none;stroke-opacity:1;visibility:visible"/><path d="m359.186 456.295-16.95-7.437" style="fill:none;stroke:red;stroke-width:.999997;stroke-linecap:round;stroke-linejoin:round;stroke-miterlimit:4;stroke-dasharray:none;stroke-opacity:1;visibility:visible"/><path d="m188.193 399.274-.221-4.62M346.238 470.531l.726-.155.707-.162.699-.186.688-.192.668-.21.65-.223.642-.236.614-.247.6-.256.58-.276.564-.282.542-.298.52-.302.494-.312M346.238 470.531l-157.716-71.02M201.542 387.1l-.685.127-.675.132-.668.151-.659.154-.645.179-.64.177-.62.194-.616.206-.594.217-.58.22-.562.241-.551.244-.532.25-.513.26-.497.275-.475.274-.453.291-.43.296-.415.296-.386.311" style="fill:none;stroke:red;stroke-width:1.99999;stroke-linecap:round;stroke-linejoin:round;stroke-miterlimit:4;stroke-dasharray:none;stroke-opacity:1;visibility:visible"/><path d="m359.416 461.444.036-4.924" style="fill:none;stroke:red;stroke-width:.999997;stroke-linecap:round;stroke-linejoin:round;stroke-miterlimit:4;stroke-dasharray:none;stroke-opacity:1;visibility:visible"/><path d="m359.35 462.007.028-.281.038-.283M355.083 467.09l.467-.32.44-.327.422-.332.392-.341.371-.356.343-.356.325-.363.288-.372.276-.38.236-.377.217-.386.192-.385.164-.396.134-.392" style="fill:none;stroke:red;stroke-width:1.99999;stroke-linecap:round;stroke-linejoin:round;stroke-miterlimit:4;stroke-dasharray:none;stroke-opacity:1;visibility:visible"/><path d="m359.386 456.422.037.046.03.052" style="fill:none;stroke:red;stroke-width:.999997;stroke-linecap:round;stroke-linejoin:round;stroke-miterlimit:4;stroke-dasharray:none;stroke-opacity:1;visibility:visible"/><path d="m188.322 399.386.094.066.104.06M190.205 391.715l-.34.288-.32.29-.305.306-.274.303-.261.302-.236.314-.215.31-.193.32M188.06 394.148l-.042.252-.045.254M188.322 399.386l-.068-.054-.061-.058" style="fill:none;stroke:red;stroke-width:1.99999;stroke-linecap:round;stroke-linejoin:round;stroke-miterlimit:4;stroke-dasharray:none;stroke-opacity:1;visibility:visible"/><path d="m359.186 456.295.094.06.104.067" style="fill:none;stroke:red;stroke-width:.999997;stroke-linecap:round;stroke-linejoin:round;stroke-miterlimit:4;stroke-dasharray:none;stroke-opacity:1;visibility:visible"/><path d="m354.932 467.194.15-.104M190.346 391.595l-.14.12" style="fill:none;stroke:red;stroke-width:1.99999;stroke-linecap:round;stroke-linejoin:round;stroke-miterlimit:4;stroke-dasharray:none;stroke-opacity:1;visibility:visible"/><path d="m300.98 370.474-2.446-1.18M238.655 412.122l-9.478-293.543M217.066 114.53l.164.033.185.031.2.024.206.015.217.007.222-.007.215-.016.215-.022.201-.031.186-.035.17-.045.148-.052.118-.052.105-.06.067-.067.044-.066.008-.06M216.607 114.253l.036.059.068.061.09.059.118.052.148.045M226.378 116.807l.14.037.163.021.169.015.181.008.183-.008.187-.015.169-.014.165-.031.14-.037.127-.043.098-.052.066-.05.044-.055.007-.053-.023-.051-.052-.052-.08-.051-.104-.037-.133-.039-.148-.029-.17-.013-.181-.015h-.176l-.188.007-.176.02-.17.024-.151.037-.131.036-.112.046-.09.054-.05.049-.032.052.01.06.035.052.067.044.096.045.12.038M234.146 117.208l-4.133 1.35M230.013 118.559l-.838.02M211.237 113.78l17.94 4.8M300.47 91.443l.155.036.17.028.187.023M295.055 90.632l3.342.965" style="fill:none;stroke:red;stroke-width:.999997;stroke-linecap:round;stroke-linejoin:round;stroke-miterlimit:4;stroke-dasharray:none;stroke-opacity:1;visibility:visible"/><path d="m295.056 90.632 3.477 278.662M295.055 90.632l.03-.215M298.503 89.488l-3.417.93" style="fill:none;stroke:red;stroke-width:1.99999;stroke-linecap:round;stroke-linejoin:round;stroke-miterlimit:4;stroke-dasharray:none;stroke-opacity:1;visibility:visible"/><path d="m238.655 412.122-16.47-7.315M238.655 412.122l.766-.032M243.16 410.035l-3.739 2.055" style="fill:none;stroke:red;stroke-width:.999997;stroke-linecap:round;stroke-linejoin:round;stroke-miterlimit:4;stroke-dasharray:none;stroke-opacity:1;visibility:visible"/><path d="m211.237 113.78 10.95 291.027M243.16 410.035l-9.014-292.828M211.237 113.78v-.245M215.375 112.223l-4.138 1.312M220.72 113.4l13.41 3.56M234.146 117.208l-.016-.248" style="fill:none;stroke:red;stroke-width:1.99999;stroke-linecap:round;stroke-linejoin:round;stroke-miterlimit:4;stroke-dasharray:none;stroke-opacity:1;visibility:visible"/><path d="M219.146 107.604a.867.867 0 0 0-.34-.21M218.806 107.395a2.32 2.32 0 0 0-1.475.018M217.33 107.413a.82.82 0 0 0-.335.212" style="fill:none;stroke:red;stroke-width:.999997;stroke-linecap:round;stroke-linejoin:round;stroke-miterlimit:2;stroke-dasharray:none;stroke-opacity:1;visibility:visible"/><path d="M216.57 108.112a.259.259 0 0 0-.077.193.313.313 0 0 0 .085.206M216.578 108.51a1.227 1.227 0 0 0 .477.287M217.055 108.797a3.228 3.228 0 0 0 2.056-.024M219.111 108.773a1.19 1.19 0 0 0 .47-.301" style="fill:none;stroke:red;stroke-width:.666665;stroke-linecap:round;stroke-linejoin:round;stroke-miterlimit:2;stroke-dasharray:none;stroke-opacity:1;visibility:visible"/><path d="M219.58 108.473a.278.278 0 0 0 .081-.203.3.3 0 0 0-.079-.195" style="fill:none;stroke:red;stroke-width:.666665;stroke-linecap:round;stroke-linejoin:round;stroke-miterlimit:2;stroke-dasharray:none;stroke-opacity:1;visibility:visible"/><path d="m219.662 108.27.065 5.657M216.493 108.305l.065 5.698M219.153 107.608l.43.467M216.983 107.632l-.413.48" style="fill:none;stroke:red;stroke-width:.999997;stroke-linecap:round;stroke-linejoin:round;stroke-miterlimit:2;stroke-dasharray:none;stroke-opacity:1;visibility:visible"/><path d="m218.1 110.077.05 4.147" style="fill:none;stroke:red;stroke-width:.666665;stroke-linecap:round;stroke-linejoin:round;stroke-miterlimit:4;stroke-dasharray:none;stroke-opacity:1;visibility:visible"/><path d="m453.256 391.306 3.748-8.961M472.3 395.675l-6.172-8.878M453.256 391.306l-3.87-13.041" style="fill:none;stroke:red;stroke-width:.999997;stroke-linecap:round;stroke-linejoin:round;stroke-miterlimit:4;stroke-dasharray:none;stroke-opacity:1;visibility:visible"/><path d="m243.16 410.035 11.13.22M243.16 410.035l.276-15.936M222.185 404.807l-1.079-9.119M457.004 382.345l-3.748 8.961" style="fill:none;stroke:red;stroke-width:1.99999;stroke-linecap:round;stroke-linejoin:round;stroke-miterlimit:4;stroke-dasharray:none;stroke-opacity:1;visibility:visible"/><path d="m238.655 412.122 5.451-6.339M229.177 118.58l-2.799-1.773M220.72 113.4l5.658 3.407M298.397 91.597l2.073-.154M300.47 91.443l-2.073.154" style="fill:none;stroke:red;stroke-width:.999997;stroke-linecap:round;stroke-linejoin:round;stroke-miterlimit:4;stroke-dasharray:none;stroke-opacity:1;visibility:visible"/><path d="m219.111 108.773-3.736 3.45M217.067 114.529l3.653-1.129" style="fill:none;stroke:red;stroke-width:1.99999;stroke-linecap:round;stroke-linejoin:round;stroke-miterlimit:4;stroke-dasharray:none;stroke-opacity:1;visibility:visible"/><path d="m219.727 113.927-1.627-3.85M219.662 108.27l-1.512 5.954" style="fill:none;stroke:red;stroke-width:.666665;stroke-linecap:round;stroke-linejoin:round;stroke-miterlimit:4;stroke-dasharray:none;stroke-opacity:1;visibility:visible"/><path d="m307.251 83.14-.148.052-.126.052-.088.06-.06.065-.03.061v.066l.038.067.063.06.1.057.125.051.155.047.178.043.195.03.214.029.223.016.232.016h.235l.232-.016.228-.016.216-.028.2-.03.177-.046.165-.044.132-.05.104-.061.082-.058.044-.066.016-.068-.023-.059-.05-.066-.083-.06-.119-.052-.143-.052-.162-.045M319.389 85.587l-.156-.03-.18-.022-.185-.015-.198-.007h-.195l-.19.015-.188.021-.164.031-.148.036-.12.044-.093.045-.061.052-.037.053.008.058.03.052.064.052.106.045.118.044.149.03.171.029.186.023.192.007h.192l.2-.007.187-.015.177-.03.156-.028.131-.046.114-.044.075-.053.05-.051.018-.05-.024-.055-.052-.051-.082-.05-.111-.047-.14-.036M321.28 87.843l.894-.024M300.885 82.813l.06.244M313.862 101.435l-.15-.055-.139-.08-.133-.111-.129-.134-.11-.155-.088-.18-.066-.184-.046-.186-.014-.191v-.195l.03-.17.057-.164.075-.139.097-.121.11-.094.134-.061.133-.029.15.006.149.037.147.068.14.098.127.117.119.148.098.17.08.18.052.184.038.193.007.193-.023.187-.037.17-.067.148-.09.132-.103.106-.125.073-.135.044-.14.016-.148-.021M315.849 388.389l-.132-.046-.134-.013-.128.013-.11.047-.095.064-.076.097-.059.119-.044.135-.017.145.01.164.032.165.049.171.073.162.09.157.102.141.121.124.126.106.14.08.135.054.133.03h.125l.12-.031.103-.053.09-.08.067-.107.05-.123.032-.148v-.15l-.017-.17-.044-.163-.058-.169-.083-.16-.095-.146-.112-.134-.128-.12-.13-.095-.136-.065M322.763 403.984l-1.482-316.141M321.28 87.843l-20.338-4.786M324.951 167.394l-.005.134-.028.132-.053.136-.062.11-.081.104-.082.074-.09.053-.087.023-.09-.016-.073-.036-.067-.068-.044-.096-.031-.112-.013-.126.013-.133.03-.133.046-.135.065-.12.075-.095.081-.074.09-.05.089-.025.088.016.077.036.066.067.044.097.029.113.012.124M325.567 333.458l-.014-.11-.03-.096-.042-.082-.062-.045-.074-.03-.08.007-.082.03-.09.059-.079.082-.068.097-.059.119-.045.117-.03.133-.01.121.009.11.03.097.047.08.058.053.073.023.081-.009.083-.027.087-.062.084-.082.065-.093.067-.12.044-.117.023-.136.014-.119M322.177 87.819l4.128-1.342" style="fill:none;stroke:#00ff4a;stroke-width:.999997;stroke-linecap:round;stroke-linejoin:round;stroke-miterlimit:4;stroke-dasharray:none;stroke-opacity:1;visibility:visible"/><path d="m304.246 395.874-3.361-313.06M326.229 86.225l.076.252M300.885 82.813l4.148-1.313M304.3 396.26l-.055-.387M323.573 403.946l-.808.038M326.229 86.225l-13.871-3.244M304.3 396.26l18.464 7.723M323.573 403.946l3.737-2.166-.737-231.014M326.55 163.57l-.247-77.093" style="fill:none;stroke:#00ff4a;stroke-width:1.99999;stroke-linecap:round;stroke-linejoin:round;stroke-miterlimit:4;stroke-dasharray:none;stroke-opacity:1;visibility:visible"/><path d="m300.885 82.813 6.366.327M319.389 85.587l-9.816-2.492M312.358 82.981l7.031 2.606M321.28 87.843l-1.891-2.256M309.573 83.095l4.289 18.34M319.389 85.587l-5.527 15.848M304.3 396.26l11.549-7.871M322.764 403.983l-6.915-15.593M326.55 163.57l-1.599 3.824" style="fill:none;stroke:#00ff4a;stroke-width:.999997;stroke-linecap:round;stroke-linejoin:round;stroke-miterlimit:4;stroke-dasharray:none;stroke-opacity:1;visibility:visible"/><path d="M322.177 87.819 305.033 81.5M319.389 85.587l-7.031-2.606M326.55 163.57l.023 7.196M324.951 167.394l1.599-3.824" style="fill:none;stroke:#00ff4a;stroke-width:1.99999;stroke-linecap:round;stroke-linejoin:round;stroke-miterlimit:4;stroke-dasharray:none;stroke-opacity:1;visibility:visible"/><path d="m300.885 82.813-2.382 6.675" style="fill:none;stroke:red;stroke-width:1.99999;stroke-linecap:round;stroke-linejoin:round;stroke-miterlimit:4;stroke-dasharray:none;stroke-opacity:1;visibility:visible"/></svg>