<svg xmlns="http://www.w3.org/2000/svg" baseProfile="full" height="1122.52" preserveAspectRatio="xMinYMin meet" style="width:729px;height:902px" width="793.701" xml:space="preserve"><path d="M359.562 274.46c-.23.11-.459.223-.69.33a38.283 38.283 0 0 1-.705.323l-.717.314-.732.308c-.248.1-.5.203-.755.3a39.787 39.787 0 0 1-1.57.57 23.92 23.92 0 0 1-1.592.472 17.859 17.859 0 0 1-.797.192c-.153.031-.309.068-.469.093a12.604 12.604 0 0 1-.475.084c-.165.021-.33.045-.498.065a12.69 12.69 0 0 1-.51.042 7.01 7.01 0 0 1-.818.005c-.068-.008-.135-.012-.2-.016l-.199-.027c-.068-.008-.135-.02-.197-.03-.066-.018-.13-.03-.19-.048a2.013 2.013 0 0 1-.391-.142 1.73 1.73 0 0 1-.189-.115.985.985 0 0 1-.148-.135.824.824 0 0 1-.117-.17.797.797 0 0 1-.015-.618 1.88 1.88 0 0 1 .212-.424 3.659 3.659 0 0 1 .447-.544 7.667 7.667 0 0 1 .77-.679 14.367 14.367 0 0 1 1.131-.793c.2-.13.404-.257.614-.383.212-.128.428-.25.648-.377a36.889 36.889 0 0 1 2.053-1.087l.55-.268M359.563 274.46l189.546-91.886M549.108 182.576l.525-.259.511-.265c.17-.088.335-.18.497-.272.164-.089.327-.182.484-.275.159-.093.315-.185.466-.283.153-.092.299-.192.445-.288.144-.101.284-.198.419-.301a7.8 7.8 0 0 0 .385-.308 3.557 3.557 0 0 0 .572-.585c.048-.056.088-.112.123-.174.04-.061.07-.12.1-.181a.964.964 0 0 0 .095-.377.644.644 0 0 0-.182-.458.713.713 0 0 0-.079-.076c-.029-.022-.061-.048-.097-.072a1.533 1.533 0 0 0-.292-.149 3.68 3.68 0 0 0-.477-.128 3.795 3.795 0 0 0-.315-.047 8.96 8.96 0 0 0-.33-.026c-.088 0-.172-.006-.258-.006-.084 0-.17 0-.255.006a4.15 4.15 0 0 0-.255.01c-.087.008-.17.012-.254.02a11.87 11.87 0 0 0-.95.128c-.154.024-.306.058-.459.089a11.423 11.423 0 0 0-.445.096 20.37 20.37 0 0 0-2.014.597 24.659 24.659 0 0 0-.628.226c-.21.079-.416.16-.62.24-.203.082-.404.166-.603.248-.397.17-.786.34-1.164.516-.145.072-.29.138-.433.208M571.647 176.211l-.639-.575" style="fill:none;stroke:red;stroke-width:.666665;stroke-linecap:round;stroke-linejoin:round;stroke-miterlimit:4;stroke-dasharray:none;stroke-opacity:1;visibility:visible" visibility="hidden"/><path d="m571.937 180.935.108-3.941M570.732 182.159l.701-.487" style="fill:none;stroke:red;stroke-width:1.99999;stroke-linecap:round;stroke-linejoin:round;stroke-miterlimit:4;stroke-dasharray:none;stroke-opacity:1;visibility:visible" visibility="hidden"/><path d="M359.562 273.791c-.23.11-.459.222-.69.329a31.067 31.067 0 0 1-.705.323l-.717.317a81.501 81.501 0 0 1-.732.306c-.248.1-.5.204-.755.301a39.787 39.787 0 0 1-1.57.568 23.92 23.92 0 0 1-.827.26 21.353 21.353 0 0 1-1.562.403 8.268 8.268 0 0 1-.469.096 16.03 16.03 0 0 1-.475.083c-.165.022-.33.046-.498.063a10.627 10.627 0 0 1-.51.045 6.941 6.941 0 0 1-.818.004l-.2-.016-.199-.026a3.384 3.384 0 0 1-.197-.032c-.066-.015-.13-.029-.19-.048a2.013 2.013 0 0 1-.391-.14 1.396 1.396 0 0 1-.189-.117.867.867 0 0 1-.148-.136M339.254 287.558a6.168 6.168 0 0 0 4.976 0M359.563 273.79l189.546-91.885" style="fill:none;stroke:red;stroke-width:.666665;stroke-linecap:round;stroke-linejoin:round;stroke-miterlimit:4;stroke-dasharray:none;stroke-opacity:1;visibility:visible" visibility="hidden"/><path d="M359.562 274.46c-.23.11-.459.223-.69.33a38.283 38.283 0 0 1-.705.323l-.717.314-.732.308c-.248.1-.5.203-.755.3a39.787 39.787 0 0 1-1.57.57 23.92 23.92 0 0 1-1.592.472 17.859 17.859 0 0 1-.797.192c-.153.031-.309.068-.469.093a12.604 12.604 0 0 1-.475.084c-.165.021-.33.045-.498.065a12.69 12.69 0 0 1-.51.042 7.01 7.01 0 0 1-.818.005c-.068-.008-.135-.012-.2-.016l-.199-.027c-.068-.008-.135-.02-.197-.03-.066-.018-.13-.03-.19-.048a2.013 2.013 0 0 1-.391-.142 1.73 1.73 0 0 1-.189-.115.985.985 0 0 1-.148-.135.824.824 0 0 1-.117-.17.797.797 0 0 1-.015-.618 1.88 1.88 0 0 1 .212-.424 3.659 3.659 0 0 1 .447-.544 7.667 7.667 0 0 1 .77-.679 14.367 14.367 0 0 1 1.131-.793c.2-.13.404-.257.614-.383.212-.128.428-.25.648-.377a36.889 36.889 0 0 1 2.053-1.087l.55-.268M549.108 181.906l.525-.26c.172-.088.343-.176.511-.265.17-.088.335-.18.497-.27.164-.089.327-.182.484-.274.159-.097.315-.187.466-.284a11.156 11.156 0 0 0 1.249-.899 3.721 3.721 0 0 0 .572-.584c.048-.057.088-.113.123-.174M359.563 274.46l189.546-91.886" style="fill:none;stroke:red;stroke-width:.666665;stroke-linecap:round;stroke-linejoin:round;stroke-miterlimit:4;stroke-dasharray:none;stroke-opacity:1;visibility:visible" visibility="hidden"/><path d="m549.108 182.576.525-.259.511-.265c.17-.088.335-.18.497-.272.164-.089.327-.182.484-.275.159-.093.315-.185.466-.283.153-.092.299-.192.445-.288.144-.101.284-.198.419-.301a7.8 7.8 0 0 0 .385-.308 3.557 3.557 0 0 0 .572-.585c.048-.056.088-.112.123-.174.04-.061.07-.12.1-.181a.964.964 0 0 0 .095-.377.644.644 0 0 0-.182-.458.713.713 0 0 0-.079-.076c-.029-.022-.061-.048-.097-.072a1.533 1.533 0 0 0-.292-.149 3.68 3.68 0 0 0-.477-.128 3.795 3.795 0 0 0-.315-.047 8.96 8.96 0 0 0-.33-.026c-.088 0-.172-.006-.258-.006-.084 0-.17 0-.255.006a4.15 4.15 0 0 0-.255.01c-.087.008-.17.012-.254.02a11.87 11.87 0 0 0-.95.128c-.154.024-.306.058-.459.089a11.423 11.423 0 0 0-.445.096 20.37 20.37 0 0 0-2.014.597 24.659 24.659 0 0 0-.628.226c-.21.079-.416.16-.62.24-.203.082-.404.166-.603.248-.397.17-.786.34-1.164.516-.145.072-.29.138-.433.208M543.62 180.427 354.014 271.7M558.41 172.083l-.121.05-.14.04-.156.03-.167.016-.175.007-.18-.007-.177-.016-.17-.03-.16-.04-.147-.05-.131-.056-.11-.063-.083-.069-.062-.073-.034-.076-.007-.075.024-.073.05-.071.073-.064.101-.056.123-.048.138-.041.155-.028.168-.019.175-.004.178.004.176.019.171.028.161.041.146.048.13.056.11.064.085.07.061.074.034.075.008.076-.023.073-.05.07-.074.062-.1.056M419.008 118.696l-.12.043-.137.032-.15.024-.157.014-.163.007-.161-.007-.161-.014-.151-.024-.141-.032-.128-.043-.107-.05-.088-.054-.067-.06-.041-.06-.017-.064.008-.064.036-.063.057-.056.083-.056.102-.049.12-.041.138-.036.149-.02.157-.018.163-.004.161.004.159.018.152.02.141.036.127.041.11.05.087.055.066.056.042.063.018.064-.01.064-.034.06-.058.06-.081.055-.104.049M452.013 131.336l-.137.05-.152.042-.167.033-.177.024-.182.012-.189.004-.19-.006-.183-.016-.182-.026-.17-.037-.159-.043-.143-.052-.126-.058-.106-.062-.085-.069-.061-.075-.036-.076-.011-.073.013-.075.039-.073.063-.068.086-.065.108-.062.126-.054.146-.043.159-.041.172-.027.18-.019.185-.009h.19l.186.012.183.023.177.032.164.037.151.048.136.056.117.06.095.068.073.072.048.072.024.075-.001.074-.025.075-.05.073-.076.067-.096.063-.117.057M331.245 281.24l.139-.076.11-.088.086-.093.053-.099.024-.1-.01-.103-.042-.097-.073-.092-.102-.088-.129-.077-.152-.066-.172-.054-.187-.04-.197-.023-.205-.007-.206.007-.2.023-.192.04-.178.054-.162.066-.136.077-.113.088-.087.092-.052.097-.022.103.01.1.042.099.07.093.103.088.128.076.153.067.171.053.188.04.2.024.203.01.205-.01.201-.024.192-.04.179-.053.16-.067M258.292 243.99l.139-.07.113-.078.09-.087.06-.088.03-.092v-.092l-.03-.089-.062-.087-.09-.077-.115-.072-.14-.059-.159-.046-.175-.035-.186-.023-.194-.008-.196.008-.193.023-.187.035-.174.046-.159.059-.137.072-.115.077-.09.087-.06.09-.03.091v.092l.032.088.059.087.09.077.116.071.138.059.158.05.176.035.187.021.192.006.199-.006.193-.021.187-.035.174-.05.159-.059M191.95 210.115l.139-.063.113-.072.095-.078.065-.08.036-.084.007-.084-.023-.082-.05-.078-.08-.071-.105-.064-.126-.053-.148-.047-.164-.03-.175-.02-.185-.007-.188.008-.186.018-.181.031-.17.047-.157.053-.138.064-.116.07-.094.08-.065.08-.036.085-.008.084.023.08.05.078.079.072.104.063.128.055.147.045.164.035.177.017.185.004.188-.004.186-.017.181-.035.172-.045.156-.055M294.167 262.307l.159-.081.136-.091.109-.101.083-.103.053-.105.024-.114-.007-.108-.037-.106-.067-.104-.094-.096-.122-.088-.148-.083-.168-.07-.186-.057-.204-.042-.214-.032-.222-.016-.228-.002-.227.012-.223.027-.214.04-.203.056-.19.068-.17.075-.147.088-.124.097-.096.1-.069.105-.039.111-.009.108.023.11.052.106.078.1.11.092.134.088.158.073.178.063.195.05.21.04.22.025.226.008.228-.006.225-.02.222-.032.209-.052.196-.058.18-.075M224.61 226.793l.159-.077.137-.08.115-.091.086-.095.062-.097.03-.101.003-.099-.025-.097-.055-.095-.083-.088-.108-.081-.132-.072-.154-.066-.174-.05-.189-.04-.201-.027-.212-.016-.216-.003-.219.011-.215.028-.208.036-.2.048-.184.06-.168.07-.149.082-.125.084-.103.095-.073.094-.047.102-.019.098.012.102.039.093.07.092.094.084.121.079.144.068.164.058.183.046.196.034.208.023.213.007.219-.006.216-.016.213-.03.206-.043.192-.06.177-.064M521.647 158.006l-.137.055-.154.042-.169.039-.181.024-.19.016-.196.003-.197-.007-.196-.017-.19-.031-.183-.036-.17-.045-.154-.06-.138-.062-.118-.069-.096-.075-.071-.08-.047-.078-.021-.084.007-.082.03-.077.059-.079.083-.072.105-.064.125-.056.146-.05.162-.039.176-.033.186-.019.192-.01.197.002.196.012.193.021.187.034.177.044.162.049.146.06.13.07.106.07.086.077.058.08.034.082.008.081-.019.083-.044.078-.07.072-.094.068-.116.063M485.842 144.293l-.121.045-.14.035-.152.028-.163.015-.168.006-.17-.006-.169-.015-.16-.028-.149-.035-.136-.045-.119-.052-.1-.06-.073-.065-.05-.067-.026-.068.003-.067.029-.069.055-.065.078-.058.102-.054.121-.043.137-.037.154-.027.161-.016.17-.004.169.004.166.016.162.027.15.037.136.043.119.054.097.058.076.065.051.07.024.066-.001.068-.028.067-.055.065-.079.06-.101.052M259.322 175.04l.144-.063.124-.073.101-.08.078-.08.052-.087.026-.085-.002-.084-.03-.085-.054-.082-.08-.072-.106-.07-.125-.064-.147-.055-.164-.047-.177-.033-.188-.025-.197-.012-.202-.004-.2.012-.2.02-.192.034-.182.043-.171.05-.152.06-.135.07-.113.075-.09.078-.065.086-.038.084-.014.086.016.087.042.081.068.079.09.075.116.066.138.058.156.05.17.042.183.029.195.02.198.005.203-.001.201-.02.196-.027.188-.034.176-.048.163-.059M346.467 140.36l.13-.057.107-.066.087-.07.064-.072.037-.078.015-.078-.012-.078-.037-.074-.063-.072-.084-.067-.107-.065-.129-.058-.145-.049-.162-.04-.173-.03-.181-.023-.19-.012h-.189l-.19.005-.187.021-.178.031-.168.039-.156.046-.137.055-.12.06-.097.067-.076.073-.051.073-.028.078v.08l.023.077.05.073.075.071.096.068.117.059.138.053.153.044.168.039.179.025.185.016.19.008.19-.005.19-.012.183-.027.175-.033.161-.043.147-.052M211.885 193.7l.135-.063.112-.066.086-.074.062-.078.033-.08.005-.08-.024-.078-.052-.076-.078-.066-.104-.062-.127-.05-.144-.044-.161-.03-.174-.02-.18-.006-.184.006-.181.02-.176.03-.165.044-.152.05-.132.062-.112.066-.09.076-.06.078-.033.08-.007.08.026.078.052.074.077.066.104.063.125.052.147.041.161.031.172.019.18.005.184-.005.183-.019.176-.03.165-.042.151-.052M303.79 157.139l.12-.056.096-.06.075-.068.048-.07.022-.071-.006-.074-.032-.068-.059-.068-.083-.06-.105-.056-.128-.044-.143-.04-.156-.028-.168-.016-.17-.004-.172.004-.17.016-.164.028-.15.04-.136.044-.12.056-.096.06-.075.068-.048.068-.023.074.006.07.032.071.057.068.084.06.107.056.125.047.143.037.156.028.166.016.172.004.174-.004.17-.016.163-.028.15-.037.138-.047M386.534 124.218l.107-.05.086-.055.06-.062.039-.062.013-.064-.014-.066-.042-.061-.061-.061-.087-.055-.106-.05-.127-.04-.139-.037-.152-.022-.16-.016-.165-.006-.163.006-.16.016-.15.022-.14.036-.126.042-.104.049-.086.055-.063.061-.037.061-.012.066.013.064.039.062.062.062.088.056.107.049.125.043.139.034.153.023.16.015.164.005.163-.005.16-.015.153-.023.139-.034.124-.043" style="fill:none;stroke:red;stroke-width:.666665;stroke-linecap:round;stroke-linejoin:round;stroke-miterlimit:4;stroke-dasharray:none;stroke-opacity:1;visibility:visible" visibility="hidden"/><path d="M570.164 175.155 408.235 113.27" style="fill:none;stroke:red;stroke-width:1.99999;stroke-linecap:round;stroke-linejoin:round;stroke-miterlimit:4;stroke-dasharray:none;stroke-opacity:1;visibility:visible" visibility="hidden"/><path d="m344.232 287.556 226.447-110.57M177.493 204.724l161.76 82.832" style="fill:none;stroke:red;stroke-width:.666665;stroke-linecap:round;stroke-linejoin:round;stroke-miterlimit:4;stroke-dasharray:none;stroke-opacity:1;visibility:visible" visibility="hidden"/><path d="m408.234 113.27-165.266 65.503M214.7 189.978l-37.207 14.747M339.338 293.674a6.09 6.09 0 0 0 4.965 0" style="fill:none;stroke:red;stroke-width:1.99999;stroke-linecap:round;stroke-linejoin:round;stroke-miterlimit:4;stroke-dasharray:none;stroke-opacity:1;visibility:visible" visibility="hidden"/><path d="m177.493 204.724-.095 1.204" style="fill:none;stroke:red;stroke-width:.666665;stroke-linecap:round;stroke-linejoin:round;stroke-miterlimit:4;stroke-dasharray:none;stroke-opacity:1;visibility:visible" visibility="hidden"/><path d="m177.68 210.153 161.01 83.065M177.398 205.928l.281 4.224" style="fill:none;stroke:red;stroke-width:1.99999;stroke-linecap:round;stroke-linejoin:round;stroke-miterlimit:4;stroke-dasharray:none;stroke-opacity:1;visibility:visible" visibility="hidden"/><path d="m178.353 210.604-.673-.45" style="fill:none;stroke:red;stroke-width:.666665;stroke-linecap:round;stroke-linejoin:round;stroke-miterlimit:4;stroke-dasharray:none;stroke-opacity:1;visibility:visible" visibility="hidden"/><path d="M570.486 182.3 344.452 293.524M570.164 175.155l1.608 1.179.11.138.083.14.055.14.025.142-.004.14M571.127 181.853a1.21 1.21 0 0 0 .809-.916M570.732 182.159l-.22.195-.173.093M339.339 293.671l-.648-.453" style="fill:none;stroke:red;stroke-width:1.99999;stroke-linecap:round;stroke-linejoin:round;stroke-miterlimit:4;stroke-dasharray:none;stroke-opacity:1;visibility:visible" visibility="hidden"/><path d="m344.303 293.671.599-.453" style="fill:none;stroke:red;stroke-width:.666665;stroke-linecap:round;stroke-linejoin:round;stroke-miterlimit:4;stroke-dasharray:none;stroke-opacity:1;visibility:visible" visibility="hidden"/><path d="m570.339 182.447.79-.596" style="fill:none;stroke:red;stroke-width:1.99999;stroke-linecap:round;stroke-linejoin:round;stroke-miterlimit:4;stroke-dasharray:none;stroke-opacity:1;visibility:visible" visibility="hidden"/><path d="m549.108 181.906 9.302-9.823M570.68 176.987l-12.27-4.904M408.234 113.27l10.774 5.426M344.23 287.558l-12.985-6.318M344.232 287.556l-12.987-6.316M177.493 204.725l14.457 5.39M242.968 178.773l16.354-3.733M214.7 189.978l-2.815 3.722M570.339 182.447l.34-5.46" style="fill:none;stroke:red;stroke-width:.666665;stroke-linecap:round;stroke-linejoin:round;stroke-miterlimit:4;stroke-dasharray:none;stroke-opacity:1;visibility:visible" visibility="hidden"/><path d="m259.322 175.04-16.354 3.733M211.885 193.7l2.815-3.722" style="fill:none;stroke:red;stroke-width:1.99999;stroke-linecap:round;stroke-linejoin:round;stroke-miterlimit:4;stroke-dasharray:none;stroke-opacity:1;visibility:visible" visibility="hidden"/><path d="m409.975 65.123-3.392 1.243" style="fill:none;stroke:#00ff4a;stroke-width:1.99999;stroke-linecap:round;stroke-linejoin:round;stroke-miterlimit:4;stroke-dasharray:none;stroke-opacity:1;visibility:visible"/><path d="m338.896 224.381-.501-.403" style="fill:none;stroke:#00ff4a;stroke-width:.666665;stroke-linecap:round;stroke-linejoin:round;stroke-miterlimit:4;stroke-dasharray:none;stroke-opacity:1;visibility:visible"/><path d="m174.184 152.362-.163.721M179.634 149.388l-4.472 1.636M405.612 66.72l-224.703 82.202" style="fill:none;stroke:#00ff4a;stroke-width:1.99999;stroke-linecap:round;stroke-linejoin:round;stroke-miterlimit:4;stroke-dasharray:none;stroke-opacity:1;visibility:visible"/><path d="m563.513 122.486.341.135.339.16.335.181.329.204.323.228.314.248.306.272.294.29.283.306.272.324.256.341.243.358.225.366.208.38.192.391.173.4.155.401.135.411.114.415.094.418.072.416.052.416.029.414.01.406-.014.402" style="fill:none;stroke:#00ff4a;stroke-width:.666665;stroke-linecap:round;stroke-linejoin:round;stroke-miterlimit:4;stroke-dasharray:none;stroke-opacity:1;visibility:visible"/><path d="m567.38 120.073.364.143.363.165.356.192.353.213.345.24.339.26.328.282.319.305.306.32.294.34.281.356.264.372.25.387.233.396.214.41.196.422.176.426.159.435.139.439.116.442.094.444.074.443.052.444.028.439.005.434-.013.428" style="fill:none;stroke:#00ff4a;stroke-width:1.99999;stroke-linecap:round;stroke-linejoin:round;stroke-miterlimit:4;stroke-dasharray:none;stroke-opacity:1;visibility:visible"/><path d="m553.404 134.407-.001-.157-.024-.16-.043-.162-.065-.156-.08-.145-.096-.136-.11-.117-.12-.102-.128-.074-.133-.056-.13-.026-.129-.005-.124.023-.112.048-.101.07-.085.098-.068.113-.051.13-.03.145-.009.153.014.157.034.163.054.159.07.15.09.142.104.128.114.106.126.09.128.066.133.042.13.017.126-.012.117-.035.11-.058.094-.084.076-.103.06-.127.04-.136.019-.149M419.867 71.66l-.021 1.643M419.846 73.303l.005.319.023.321.043.327.062.326.078.324.096.324.114.316.13.312.144.304.161.294.172.28.187.268.198.253.208.235.218.218.225.198.233.177.236.156.243.136.244.112.244.09.245.06.243.04.24.014.235-.01.23-.038.223-.063.213-.085.203-.108.193-.133.18-.155.168-.177.152-.198.138-.218.122-.235.104-.25.09-.267.068-.284.052-.292.033-.304.015-.314M426.257 75.576l.025-1.648M426.281 73.928l137.232 48.557M568.592 130.77l-.755 12.445M409.33 67.93l10.536 3.73M568.096 143.388h.812M568.096 143.388l-.259-.173" style="fill:none;stroke:#00ff4a;stroke-width:.666665;stroke-linecap:round;stroke-linejoin:round;stroke-miterlimit:4;stroke-dasharray:none;stroke-opacity:1;visibility:visible"/><path d="m573.014 129.251-.781 12.597M568.909 143.388l3.324-1.54" style="fill:none;stroke:#00ff4a;stroke-width:1.99999;stroke-linecap:round;stroke-linejoin:round;stroke-miterlimit:4;stroke-dasharray:none;stroke-opacity:1;visibility:visible"/><path d="m426.281 73.928-.005-.256M426.647 73.04l-.37.632M421.458 70.503l-.97.363" style="fill:none;stroke:#00ff4a;stroke-width:.666665;stroke-linecap:round;stroke-linejoin:round;stroke-miterlimit:4;stroke-dasharray:none;stroke-opacity:1;visibility:visible"/><path d="m411.198 65.142 156.182 54.932" style="fill:none;stroke:#00ff4a;stroke-width:1.99999;stroke-linecap:round;stroke-linejoin:round;stroke-miterlimit:4;stroke-dasharray:none;stroke-opacity:1;visibility:visible"/><path d="m427.617 72.675-.97.364M421.458 70.503l6.159 2.172" style="fill:none;stroke:#00ff4a;stroke-width:.666665;stroke-linecap:round;stroke-linejoin:round;stroke-miterlimit:4;stroke-dasharray:none;stroke-opacity:1;visibility:visible"/><path d="m409.167 85.423 158.929 57.965" style="fill:none;stroke:#00ff4a;stroke-width:1.99999;stroke-linecap:round;stroke-linejoin:round;stroke-miterlimit:4;stroke-dasharray:none;stroke-opacity:1;visibility:visible"/><path d="m426.276 73.671-.028 1.815M425.28 77.987l-.119-.003-.237-.024-.239-.046-.242-.076-.242-.098-.237-.122-.236-.147-.23-.165-.227-.188-.216-.206-.207-.228-.2-.24-.184-.261-.175-.273-.16-.284-.148-.298-.128-.304-.113-.312-.099-.316-.078-.321-.062-.32-.042-.32-.026-.317-.006-.314M421.427 72.804l.03-2.301M420.117 71.494l.372-.628M420.117 71.494l-.25.167" style="fill:none;stroke:#00ff4a;stroke-width:.666665;stroke-linecap:round;stroke-linejoin:round;stroke-miterlimit:4;stroke-dasharray:none;stroke-opacity:1;visibility:visible"/><path d="M411.196 65.144a1.8 1.8 0 0 0-1.222-.019" style="fill:none;stroke:#00ff4a;stroke-width:1.99999;stroke-linecap:round;stroke-linejoin:round;stroke-miterlimit:4;stroke-dasharray:none;stroke-opacity:1;visibility:visible"/><path d="m337.29 235.878-.019-.452-.038-.464-.06-.47-.083-.474-.103-.476-.124-.479-.146-.478-.162-.474-.182-.473-.202-.464-.218-.459-.236-.446-.25-.435-.265-.423-.28-.405-.29-.388-.305-.372-.312-.35-.321-.331-.33-.306-.337-.285-.338-.259-.344-.232-.347-.206-.347-.18" style="fill:none;stroke:#00ff4a;stroke-width:.666665;stroke-linecap:round;stroke-linejoin:round;stroke-miterlimit:4;stroke-dasharray:none;stroke-opacity:1;visibility:visible"/><path d="m343.086 233.818-.017-.483-.04-.492-.062-.501-.082-.504-.106-.51-.128-.509-.148-.508-.168-.508-.188-.505-.206-.5-.227-.49-.243-.48-.26-.469-.273-.457-.292-.443-.304-.425-.316-.407-.325-.389-.339-.368-.344-.343-.353-.324-.36-.297-.364-.27-.368-.247-.37-.216-.37-.191" style="fill:none;stroke:#00ff4a;stroke-width:1.99999;stroke-linecap:round;stroke-linejoin:round;stroke-miterlimit:4;stroke-dasharray:none;stroke-opacity:1;visibility:visible"/><path d="M331.651 226.097 175.738 152.1M337.484 249.885l-.195-14.007M175.05 170.582l162.433 79.304" style="fill:none;stroke:#00ff4a;stroke-width:.666665;stroke-linecap:round;stroke-linejoin:round;stroke-miterlimit:4;stroke-dasharray:none;stroke-opacity:1;visibility:visible"/><path d="m173.956 154.082 1.095 16.5" style="fill:none;stroke:#00ff4a;stroke-width:1.99999;stroke-linecap:round;stroke-linejoin:round;stroke-miterlimit:4;stroke-dasharray:none;stroke-opacity:1;visibility:visible"/><path d="m322.604 238.752-.013-.175-.036-.185-.055-.184-.075-.181-.089-.172-.107-.16-.116-.143-.126-.123-.131-.094-.133-.074-.132-.045-.127-.012-.119.016-.108.043-.094.074-.076.1-.059.123-.04.145-.017.159.004.173.024.182.044.185.065.181.084.178.099.168.109.15.123.132.129.11.132.086.133.058.128.028.124-.002.114-.029.101-.059.087-.088.068-.112.049-.132.028-.153.008-.168" style="fill:none;stroke:#00ff4a;stroke-width:.666665;stroke-linecap:round;stroke-linejoin:round;stroke-miterlimit:4;stroke-dasharray:none;stroke-opacity:1;visibility:visible"/><path d="M338.747 250.083h-.945" style="fill:none;stroke:#00ff4a;stroke-width:1.99999;stroke-linecap:round;stroke-linejoin:round;stroke-miterlimit:4;stroke-dasharray:none;stroke-opacity:1;visibility:visible"/><path d="m337.484 249.885.317.197" style="fill:none;stroke:#00ff4a;stroke-width:.666665;stroke-linecap:round;stroke-linejoin:round;stroke-miterlimit:4;stroke-dasharray:none;stroke-opacity:1;visibility:visible"/><path d="m343.257 247.992-4.51 2.09M343.257 247.992l-.17-14.173M343.114 233.234a12.152 12.152 0 0 0-4.219-8.85" style="fill:none;stroke:#00ff4a;stroke-width:1.99999;stroke-linecap:round;stroke-linejoin:round;stroke-miterlimit:4;stroke-dasharray:none;stroke-opacity:1;visibility:visible"/><path d="m198.107 158.727 1.28-.477" style="fill:none;stroke:#00ff4a;stroke-width:.666665;stroke-linecap:round;stroke-linejoin:round;stroke-miterlimit:4;stroke-dasharray:none;stroke-opacity:1;visibility:visible"/><path d="M336.832 222.982 199.387 158.25M193.306 155.383l-12.501-5.888" style="fill:none;stroke:#00ff4a;stroke-width:1.99999;stroke-linecap:round;stroke-linejoin:round;stroke-miterlimit:4;stroke-dasharray:none;stroke-opacity:1;visibility:visible"/><path d="m192.027 155.86 1.279-.477" style="fill:none;stroke:#00ff4a;stroke-width:.666665;stroke-linecap:round;stroke-linejoin:round;stroke-miterlimit:4;stroke-dasharray:none;stroke-opacity:1;visibility:visible"/><path d="m192.027 155.86 6.08 2.867M343.279 247.545l-.023.447M343.279 247.545l.005-.343M343.115 233.232l.17 13.97" style="fill:none;stroke:#00ff4a;stroke-width:1.99999;stroke-linecap:round;stroke-linejoin:round;stroke-miterlimit:4;stroke-dasharray:none;stroke-opacity:1;visibility:visible"/><path d="m175.099 170.643-.048-.061" style="fill:none;stroke:#00ff4a;stroke-width:.666665;stroke-linecap:round;stroke-linejoin:round;stroke-miterlimit:4;stroke-dasharray:none;stroke-opacity:1;visibility:visible"/><path d="M337.802 250.083 175.1 170.643" style="fill:none;stroke:#00ff4a;stroke-width:1.99999;stroke-linecap:round;stroke-linejoin:round;stroke-miterlimit:4;stroke-dasharray:none;stroke-opacity:1;visibility:visible"/><path d="m193.818 155.755-.512-.373M193.876 156.733l-.059-.977M193.818 155.755l.044.067M193.862 155.822l.056.93" style="fill:none;stroke:#00ff4a;stroke-width:.666665;stroke-linecap:round;stroke-linejoin:round;stroke-miterlimit:4;stroke-dasharray:none;stroke-opacity:1;visibility:visible"/><path d="M180.804 149.496a1.51 1.51 0 0 0-1.171-.107M175.114 151.08a1.47 1.47 0 0 0-.93 1.284" style="fill:none;stroke:#00ff4a;stroke-width:1.99999;stroke-linecap:round;stroke-linejoin:round;stroke-miterlimit:4;stroke-dasharray:none;stroke-opacity:1;visibility:visible"/><path d="m406.21 66.677 3.12 1.252M409.33 67.93l-225.647 82.92" style="fill:none;stroke:#00ff4a;stroke-width:.666665;stroke-linecap:round;stroke-linejoin:round;stroke-miterlimit:4;stroke-dasharray:none;stroke-opacity:1;visibility:visible"/><path d="m207.292 161.971 201.873-76.457" style="fill:none;stroke:#00ff4a;stroke-width:1.99999;stroke-linecap:round;stroke-linejoin:round;stroke-miterlimit:4;stroke-dasharray:none;stroke-opacity:1;visibility:visible"/><path d="m409.165 85.514.165-17.584" style="fill:none;stroke:#00ff4a;stroke-width:.666665;stroke-linecap:round;stroke-linejoin:round;stroke-miterlimit:4;stroke-dasharray:none;stroke-opacity:1;visibility:visible"/><path d="M182.08 149.03a1.363 1.363 0 0 0-1.736.308" style="fill:none;stroke:#00ff4a;stroke-width:1.99999;stroke-linecap:round;stroke-linejoin:round;stroke-miterlimit:4;stroke-dasharray:none;stroke-opacity:1;visibility:visible"/><path d="m426.247 75.487.01.09" style="fill:none;stroke:#00ff4a;stroke-width:.666665;stroke-linecap:round;stroke-linejoin:round;stroke-miterlimit:4;stroke-dasharray:none;stroke-opacity:1;visibility:visible"/><path d="m343.086 233.818.028-.585" style="fill:none;stroke:#00ff4a;stroke-width:1.99999;stroke-linecap:round;stroke-linejoin:round;stroke-miterlimit:4;stroke-dasharray:none;stroke-opacity:1;visibility:visible"/><path d="m182.08 149.028-.507.83" style="fill:none;stroke:#00ff4a;stroke-width:.666665;stroke-linecap:round;stroke-linejoin:round;stroke-miterlimit:4;stroke-dasharray:none;stroke-opacity:1;visibility:visible"/><path d="M449.882 106.352c0-.002 0-.007-.006-.007M451.814 106.373c0 .002-.006.007-.006.008M451.808 106.381a.767.767 0 0 1-.306.179M451.502 106.56a1.82 1.82 0 0 1-.66.097 2.036 2.036 0 0 1-.66-.117" style="fill:none;stroke:#00ff4a;stroke-width:.999997;stroke-linecap:round;stroke-linejoin:round;stroke-miterlimit:2;stroke-dasharray:none;stroke-opacity:1;visibility:visible"/><path d="M450.182 106.541a.801.801 0 0 1-.3-.19M452.203 105.952l-.388.419M449.505 105.91l.372.432M449.512 105.925a.247.247 0 0 1-.074-.184M452.275 105.781a.27.27 0 0 1-.083.183M452.31 100.82l-.033 4.959M449.49 99.616l-.05 6.123" style="fill:none;stroke:#00ff4a;stroke-width:.999997;stroke-linecap:round;stroke-linejoin:round;stroke-miterlimit:2;stroke-dasharray:none;stroke-opacity:1;visibility:visible"/><path d="m450.896 100.191-.036 5.159" style="fill:none;stroke:#00ff4a;stroke-width:.666665;stroke-linecap:round;stroke-linejoin:round;stroke-miterlimit:4;stroke-dasharray:none;stroke-opacity:1;visibility:visible"/><path d="M521.275 131.833a1.856 1.856 0 0 1-.662.097 2.023 2.023 0 0 1-.658-.117M519.955 131.813a.781.781 0 0 1-.3-.19M519.655 131.625c0-.003-.002-.007-.006-.007M521.587 131.645c0 .003-.008.008-.008.01" style="fill:none;stroke:#00ff4a;stroke-width:.999997;stroke-linecap:round;stroke-linejoin:round;stroke-miterlimit:2;stroke-dasharray:none;stroke-opacity:1;visibility:visible"/><path d="M521.579 131.654a.768.768 0 0 1-.306.18M521.977 131.223l-.388.42M519.277 131.182l.373.433M519.284 131.197a.25.25 0 0 1-.075-.184M522.048 131.056a.283.283 0 0 1-.083.182M522.082 126.093l-.032 4.959M519.262 124.888l-.05 6.123" style="fill:none;stroke:#00ff4a;stroke-width:.999997;stroke-linecap:round;stroke-linejoin:round;stroke-miterlimit:2;stroke-dasharray:none;stroke-opacity:1;visibility:visible"/><path d="m520.67 125.464-.036 5.159" style="fill:none;stroke:#00ff4a;stroke-width:.666665;stroke-linecap:round;stroke-linejoin:round;stroke-miterlimit:4;stroke-dasharray:none;stroke-opacity:1;visibility:visible"/><path d="M292.086 234.993c-.001-.003-.001-.007-.006-.007M294.018 235.014c.002.003-.005.008-.005.008M294.013 235.022a.767.767 0 0 1-.307.179M293.706 235.202a1.847 1.847 0 0 1-.659.098 2.03 2.03 0 0 1-.66-.118M292.386 235.182a.781.781 0 0 1-.3-.19M294.406 234.592l-.388.419M291.708 234.55l.373.433M291.715 234.566a.248.248 0 0 1-.073-.184M294.48 234.424a.264.264 0 0 1-.084.182M294.513 229.462l-.033 4.959M291.693 228.256l-.05 6.123" style="fill:none;stroke:#00ff4a;stroke-width:.999997;stroke-linecap:round;stroke-linejoin:round;stroke-miterlimit:2;stroke-dasharray:none;stroke-opacity:1;visibility:visible"/><path d="m293.099 228.832-.035 5.159" style="fill:none;stroke:#00ff4a;stroke-width:.666665;stroke-linecap:round;stroke-linejoin:round;stroke-miterlimit:4;stroke-dasharray:none;stroke-opacity:1;visibility:visible"/><path d="M258.973 149.542a1.817 1.817 0 0 1-.659.098 2.064 2.064 0 0 1-.66-.116M257.654 149.522a.797.797 0 0 1-.3-.189" style="fill:none;stroke:#00ff4a;stroke-width:.999997;stroke-linecap:round;stroke-linejoin:round;stroke-miterlimit:2;stroke-dasharray:none;stroke-opacity:1;visibility:visible"/><path d="M257.355 149.336c-.001-.003-.001-.007-.005-.007M259.286 149.356c.003.001-.005.006-.005.008M259.28 149.364a.781.781 0 0 1-.308.178M259.675 148.934l-.388.419M256.977 148.891l.373.435M256.983 148.906a.25.25 0 0 1-.073-.184M259.746 148.764a.26.26 0 0 1-.083.182M259.781 141.893l-.033 6.868M256.96 142.598l-.05 6.123" style="fill:none;stroke:#00ff4a;stroke-width:.999997;stroke-linecap:round;stroke-linejoin:round;stroke-miterlimit:2;stroke-dasharray:none;stroke-opacity:1;visibility:visible"/><path d="m258.367 143.173-.035 5.159" style="fill:none;stroke:#00ff4a;stroke-width:.666665;stroke-linecap:round;stroke-linejoin:round;stroke-miterlimit:4;stroke-dasharray:none;stroke-opacity:1;visibility:visible"/><path d="M344.406 115.103c0-.003 0-.007-.004-.007M346.338 115.123c.002.002-.006.007-.006.009M346.332 115.132a.781.781 0 0 1-.306.178M346.026 115.31a1.847 1.847 0 0 1-.659.099 2.03 2.03 0 0 1-.66-.119M344.706 115.292a.78.78 0 0 1-.302-.19M346.727 114.701l-.388.419M344.029 114.66l.373.433M344.035 114.676a.243.243 0 0 1-.073-.184M346.8 114.532a.26.26 0 0 1-.085.183M346.833 109.571l-.033 4.959M344.013 109.83l-.05 4.66" style="fill:none;stroke:#00ff4a;stroke-width:.999997;stroke-linecap:round;stroke-linejoin:round;stroke-miterlimit:2;stroke-dasharray:none;stroke-opacity:1;visibility:visible"/><path d="m345.42 108.943-.036 5.157M568.592 130.77l-15.188 3.637M567.837 143.215l-14.433-8.808M180.804 149.496l-5.066 2.604M337.29 235.878l-14.686 2.874M337.484 249.885l-14.88-11.133M179.634 149.388l4.049 1.462" style="fill:none;stroke:#00ff4a;stroke-width:.666665;stroke-linecap:round;stroke-linejoin:round;stroke-miterlimit:4;stroke-dasharray:none;stroke-opacity:1;visibility:visible"/><path d="m199.387 158.25 7.905 3.721" style="fill:none;stroke:#00ff4a;stroke-width:1.99999;stroke-linecap:round;stroke-linejoin:round;stroke-miterlimit:4;stroke-dasharray:none;stroke-opacity:1;visibility:visible"/><path d="m450.86 105.35 1.45-4.53M450.86 105.35l-1.37-5.734" style="fill:none;stroke:#00ff4a;stroke-width:.999997;stroke-linecap:round;stroke-linejoin:round;stroke-miterlimit:2;stroke-dasharray:none;stroke-opacity:1;visibility:visible"/><path d="m449.44 105.739 1.456-5.548M451.814 106.373l-.954-1.023" style="fill:none;stroke:#00ff4a;stroke-width:.666665;stroke-linecap:round;stroke-linejoin:round;stroke-miterlimit:4;stroke-dasharray:none;stroke-opacity:1;visibility:visible"/><path d="m520.634 130.623 1.448-4.53M520.634 130.623l-1.372-5.735" style="fill:none;stroke:#00ff4a;stroke-width:.999997;stroke-linecap:round;stroke-linejoin:round;stroke-miterlimit:2;stroke-dasharray:none;stroke-opacity:1;visibility:visible"/><path d="m519.211 131.01 1.459-5.546M521.587 131.645l-.953-1.022" style="fill:none;stroke:#00ff4a;stroke-width:.666665;stroke-linecap:round;stroke-linejoin:round;stroke-miterlimit:4;stroke-dasharray:none;stroke-opacity:1;visibility:visible"/><path d="m293.064 233.99 1.449-4.528M293.064 233.99l-1.371-5.734" style="fill:none;stroke:#00ff4a;stroke-width:.999997;stroke-linecap:round;stroke-linejoin:round;stroke-miterlimit:2;stroke-dasharray:none;stroke-opacity:1;visibility:visible"/><path d="m291.644 234.379 1.455-5.547M291.642 234.382l1.422-.391" style="fill:none;stroke:#00ff4a;stroke-width:.666665;stroke-linecap:round;stroke-linejoin:round;stroke-miterlimit:4;stroke-dasharray:none;stroke-opacity:1;visibility:visible"/><path d="m258.332 148.332 1.449-6.439M258.332 148.332l-1.372-5.734" style="fill:none;stroke:#00ff4a;stroke-width:.999997;stroke-linecap:round;stroke-linejoin:round;stroke-miterlimit:2;stroke-dasharray:none;stroke-opacity:1;visibility:visible"/><path d="m256.91 148.72 1.457-5.547M256.91 148.722l1.422-.39" style="fill:none;stroke:#00ff4a;stroke-width:.666665;stroke-linecap:round;stroke-linejoin:round;stroke-miterlimit:4;stroke-dasharray:none;stroke-opacity:1;visibility:visible"/><path d="m345.384 114.1 1.449-4.529M345.384 114.1l-1.371-4.27" style="fill:none;stroke:#00ff4a;stroke-width:.999997;stroke-linecap:round;stroke-linejoin:round;stroke-miterlimit:2;stroke-dasharray:none;stroke-opacity:1;visibility:visible"/><path d="m343.964 114.49 1.456-5.547M343.962 114.492l1.422-.392" style="fill:none;stroke:#00ff4a;stroke-width:.666665;stroke-linecap:round;stroke-linejoin:round;stroke-miterlimit:4;stroke-dasharray:none;stroke-opacity:1;visibility:visible"/></svg>