<svg xmlns="http://www.w3.org/2000/svg" baseProfile="full" height="1122.52" preserveAspectRatio="xMinYMin meet" style="width:729px;height:902px" width="793.701" xml:space="preserve"><path d="m161.108 496.707 138.658 56.961 5.188-1.456s8.12-.16 13.612 7.008l2.687 33.51 12.174 5.439 256.096-105.813.44-5.016" style="fill:none;fill-opacity:1;fill-rule:nonzero;stroke:red;stroke-width:1.33333;visibility:visible" visibility="hidden"/><path d="M181.946 501.5h-.401" style="fill:none;stroke:red;stroke-width:.999997;stroke-linecap:round;stroke-linejoin:round;stroke-miterlimit:4;stroke-dasharray:none;stroke-opacity:1;visibility:visible" visibility="hidden"/><path d="m156.618 491.707-.148-.127M589.27 492.538l.543-.428M152.96 489.21l.14-.091" style="fill:none;stroke:red;stroke-width:1.99999;stroke-linecap:round;stroke-linejoin:round;stroke-miterlimit:4;stroke-dasharray:none;stroke-opacity:1;visibility:visible" visibility="hidden"/><path d="M486.046 580.224 325.533 651M303.03 660.92l-65.346 28.813M407.124 578.554l-2.565 31.227M406.08 405.888l.527-.141.533-.119.541-.08.55-.059.554-.024h.558l.565.036.565.062.568.096.572.118.579.156.57.178.573.208.57.244.571.269.565.288.566.325.554.351.55.377.549.402.533.43.527.452.52.475.51.504.5.52.49.548.475.564M425.585 410.938l-3.967 1.285M406.08 405.688h.008M406.087 405.688v.096l-.008.104M404.803 609.884l-.12-.05-.125-.054M579.02 498.63l2.81 183.58M578.397 458.087l.027 1.71M560.85 454.615l.581-.275.602-.244.606-.216.615-.185.632-.156.647-.127.642-.089.662-.059.661-.029.667.01.674.035.675.067.675.103.682.134.684.162.675.202.683.222.674.26.678.288.666.328.662.348.658.378.646.41.638.436.63.461.622.49.61.518M583.204 456.64l-3.912 1.516M578.694 457.953l.295.096.304.107M560.814 454.422l.013.096.023.097M565.168 676.923l-.013-.007-.015-.008M578.397 458.087l.148-.068.15-.067M443.402 563.339l119.978 46.005M168.986 527.038l-8.123 2.776M169.098 536.188l-.016.184-.036.184-.068.193-.088.18-.112.171-.125.156-.148.124-.15.112-.164.075-.153.044-.156.022-.148-.022-.141-.044-.12-.083-.096-.104-.084-.132-.05-.148-.03-.17v-.187l.03-.187.05-.193.084-.183.104-.18.117-.163.136-.141.148-.119.156-.088.161-.068.156-.029h.158l.14.03.125.067.112.088.088.127.068.143.044.162.008.179M297.236 591.835l-136.328 54.721M155.017 718.882l-.541-220.466M155.423 498.587l5.312-1.72M139.866 490.249l.484-.135.497-.102.495-.068.513-.036h.519l.528.029.527.057.541.099.541.125.55.156.548.192.557.224.557.254.558.288.561.32.555.34.557.378.557.407.558.432.548.467.544.489.538.52.536.541.527.572.519.591.512.619.502.644.498.66M160.848 496.347l-.016.005-.023.008M332.173 815.9l-20.315-254.482M312.92 561.499l5.385-2.092M295.499 555.386l.565-.201.586-.164.594-.124.607-.098.617-.058.622-.03.638.007.64.045.644.08.662.112.658.151.662.183.666.216.67.252.674.281.667.319.67.356.674.38.659.416.669.452.659.474.653.511.647.535.645.572.628.593.624.624M312.2 561.27l.357.112.364.116M318.306 558.896v.51M317.637 558.235l.336.328.333.333M312.2 561.27l-.17.075-.171.072M318.33 558.918l-.01-.013-.014-.008M308.55 732.15l-153.297-78.914M230.697 698.8l-.021-.31-.047-.32-.072-.318-.09-.328-.111-.317-.126-.32-.158-.312-.162-.298-.177-.281-.195-.265-.198-.247-.216-.221-.216-.192-.224-.172-.23-.132-.221-.112-.216-.078-.213-.042-.208-.008-.202.022-.176.06-.172.09-.154.118-.143.147-.117.187-.096.2-.084.23-.052.26-.028.267-.016.29.016.303.036.314.06.317.076.328.101.319.12.318.14.31.156.304.172.29.183.274.202.262.21.228.213.208.221.186.224.157.222.117.224.098.216.06.208.02h.205l.185-.044.18-.067.162-.104.148-.139.136-.165.101-.192.088-.217.068-.243.047-.26.021-.283v-.297M311.4 760.563l-.484-.319" style="fill:none;stroke:red;stroke-width:.999997;stroke-linecap:round;stroke-linejoin:round;stroke-miterlimit:4;stroke-dasharray:none;stroke-opacity:1;visibility:visible" visibility="hidden"/><path d="m168.467 552.307.05 11.855M164.49 570.21l-2.033.757M162.457 570.967l-.325.103-.32.073-.319.052-.312.015-.305-.015M168.517 564.162l-.005.364-.039.37-.057.373-.09.38-.104.369-.134.37-.154.373-.172.362-.201.358-.216.34-.23.326-.251.312-.262.295-.273.284-.288.252-.297.237-.311.208-.315.184-.309.163-.319.128" style="fill:none;stroke:red;stroke-width:1.99999;stroke-linecap:round;stroke-linejoin:round;stroke-miterlimit:4;stroke-dasharray:none;stroke-opacity:1;visibility:visible" visibility="hidden"/><path d="m485.624 579.527.421.697M485.296 602.571l.75-22.347" style="fill:none;stroke:red;stroke-width:.999997;stroke-linecap:round;stroke-linejoin:round;stroke-miterlimit:4;stroke-dasharray:none;stroke-opacity:1;visibility:visible" visibility="hidden"/><path d="m485.296 602.571-.445.348M481.27 577.858l-156.109 68.41M302.629 656.133l-70.36 30.833M484.85 602.92l-157.478 71.59M305.025 684.667l-40.883 18.592M392.858 604.84l-.415-.432-.41-.445-.402-.459-.382-.468-.386-.49M406.056 405.695l-.15 1.95M392.2 584.817l-1.336 17.27M409.085 608.09l-3.755 1.64M411.717 576.628l-2.633 31.463M410.51 404.278l.036-.007.037-.014M406.056 405.695l.016-.007h.008M425.59 410.522v.203l-.005.213" style="fill:none;stroke:red;stroke-width:1.99999;stroke-linecap:round;stroke-linejoin:round;stroke-miterlimit:4;stroke-dasharray:none;stroke-opacity:1;visibility:visible" visibility="hidden"/><path d="m410.582 404.256.513-.148.526-.112.526-.097.539-.059.544-.037h.55l.557.022.554.054.558.082.562.103.566.14.562.164.566.192.562.216.558.25.564.277.55.296.547.326.55.358.54.377.53.399.525.433.519.445.51.472.5.499.49.519.473.534.467.562M405.33 609.73l-.26.08-.267.073M404.803 609.884l-.49.068-.505.043-.502.016-.516-.016-.518-.043-.518-.068-.527-.088-.533-.119-.53-.149-.533-.17-.533-.2-.538-.223-.522-.251-.538-.275-.525-.298-.527-.319-.517-.348-.521-.365-.503-.392-.505-.416-.506-.428-.489-.454-.481-.476M390.855 602.519v-.215l.008-.216M390.863 602.548l-.008-.015v-.014M410.51 404.278l-4.43 1.41M392.858 604.84l.068.073M564.267 635.036l.805 41.435" style="fill:none;stroke:red;stroke-width:1.99999;stroke-linecap:round;stroke-linejoin:round;stroke-miterlimit:4;stroke-dasharray:none;stroke-opacity:1;visibility:visible" visibility="hidden"/><path d="m563.764 609.24.503 25.797" style="fill:none;stroke:red;stroke-width:.999997;stroke-linecap:round;stroke-linejoin:round;stroke-miterlimit:4;stroke-dasharray:none;stroke-opacity:1;visibility:visible" visibility="hidden"/><path d="m561.905 513.625 1.85 95.04M586.381 680.076l-3.705 1.98M583.772 496.6l2.61 183.476M583.204 456.64l.063 4.427M560.754 454.49l.028-.036.032-.03M560.814 454.422l.432-.213.435-.195.448-.177M583.124 456.233l.036.2.045.207M566.564 452.145l.593-.213.61-.18.606-.148.626-.126.63-.089.638-.068.646-.03h.651l.653.03.654.053.66.088.661.119.667.15.661.177.659.208.661.237.653.265.652.291.654.327.637.349.639.37.628.407.616.431.614.455.603.481.588.504M582.676 682.056l-.273.127-.282.117M582.121 682.3l-.557.179-.563.149-.58.117-.587.098-.59.058-.61.036-.609.008-.612-.02-.625-.053-.623-.073-.632-.106-.63-.133-.631-.163-.638-.193-.633-.216-.635-.236-.63-.275-.631-.297-.624-.319-.623-.341-.614-.37-.61-.402-.609-.416-.595-.444-.585-.46-.576-.483-.572-.51-.557-.527" style="fill:none;stroke:red;stroke-width:1.99999;stroke-linecap:round;stroke-linejoin:round;stroke-miterlimit:4;stroke-dasharray:none;stroke-opacity:1;visibility:visible" visibility="hidden"/><path d="m565.14 676.908-.028-.216-.04-.221M566.564 452.145l-4.435 1.692M425.585 410.938l138.888 41.999M448.238 561.306l115.448 44.021M414.767 575.35l37.924 15.03M484.608 603.03l79.648 31.568M201.043 540.763l-40.172 14.23M296.858 587.34l-135.95 54.217M298.988 612.713 181.77 661.157M160.848 496.347v.564M160.863 523.56l.044 126.936M160.923 680.707l.013 35.587M156.61 491.716l.557.49.55.511.541.544.535.571.525.595.521.614.511.646.497.66M139.83 490.493l1.588 219.19M148.77 717.08l-.513-.333-.511-.358-.512-.374-.51-.411-.509-.428-.5-.455-.497-.482-.5-.496-.497-.522-.479-.54-.485-.564-.466-.577-.469-.603-.461-.614-.443-.639M155.897 718.825l4.935-2.16M139.881 490.241l-.008.008h-.008M145.884 488.335l.476-.127.48-.104.497-.066.498-.038.513-.006.517.021.53.059.525.09.535.118.541.149.541.185.547.21.552.242.548.276.55.304.546.334.55.357.549.392.541.416.543.445M145.803 488.363l.036-.012.045-.016M155.897 718.825l-.287.088-.296.08M155.314 718.993l-.453.039h-.459l-.476-.023-.476-.06-.48-.08-.49-.112-.497-.141-.497-.171-.505-.192-.506-.232-.51-.25-.511-.275-.515-.311M160.832 716.666l.03-.053.038-.059M139.83 490.493l.021-.125.015-.119M160.9 716.554l.013-.127.023-.132M139.881 490.241l5.921-1.879M148.77 717.08l.17.105M156.61 491.716l-.148-.124M321.082 594.12l17.099 218.56" style="fill:none;stroke:red;stroke-width:1.99999;stroke-linecap:round;stroke-linejoin:round;stroke-miterlimit:4;stroke-dasharray:none;stroke-opacity:1;visibility:visible" visibility="hidden"/><path d="m318.543 561.666 2.539 32.453" style="fill:none;stroke:red;stroke-width:.999997;stroke-linecap:round;stroke-linejoin:round;stroke-miterlimit:4;stroke-dasharray:none;stroke-opacity:1;visibility:visible" visibility="hidden"/><path d="m318.33 558.918.213 2.75M317.757 558.347l.29.28.283.29M311.434 760.97l3.979 47.384" style="fill:none;stroke:red;stroke-width:1.99999;stroke-linecap:round;stroke-linejoin:round;stroke-miterlimit:4;stroke-dasharray:none;stroke-opacity:1;visibility:visible" visibility="hidden"/><path d="m308.941 731.283 2.492 29.688" style="fill:none;stroke:red;stroke-width:.999997;stroke-linecap:round;stroke-linejoin:round;stroke-miterlimit:4;stroke-dasharray:none;stroke-opacity:1;visibility:visible" visibility="hidden"/><path d="m296.788 586.563 12.153 144.72" style="fill:none;stroke:red;stroke-width:1.99999;stroke-linecap:round;stroke-linejoin:round;stroke-miterlimit:4;stroke-dasharray:none;stroke-opacity:1;visibility:visible" visibility="hidden"/><path d="m294.238 556.21 1.997 23.784" style="fill:none;stroke:red;stroke-width:.999997;stroke-linecap:round;stroke-linejoin:round;stroke-miterlimit:4;stroke-dasharray:none;stroke-opacity:1;visibility:visible" visibility="hidden"/><path d="m321.496 813.615-.63-.416-.622-.436-.625-.47-.623-.487-.617-.512-.607-.543-.601-.564-.594-.592-.586-.608-.578-.633M333.145 815.722l5.008-2.677M294.246 555.965l.407-.216.418-.193.427-.17M301.6 553.056l.593-.201.607-.168.615-.136.638-.088.638-.06.654-.022.659.016.672.059.679.09.682.131.683.166.692.206.699.239.694.28.696.313.698.348.69.386.698.414.69.454.683.489.681.52.678.548.666.585.651.61M333.145 815.722l-.312.14-.319.136M332.514 815.997l-.536.148-.543.11-.557.083-.559.044-.581.015-.585-.015-.603-.052-.599-.081-.609-.12-.623-.139-.621-.178-.625-.208-.631-.238-.64-.274-.636-.296-.637-.334-.639-.358-.637-.391M338.152 813.044l.013-.044.015-.039M294.238 556.21l.008-.127v-.117M338.18 812.962v-.281M295.499 555.386l6.101-2.33M321.496 813.615l.156.097M317.757 558.347l-.12-.112M294.178 580.64l-138.702-59.388M155.314 677.657l.495.333" style="fill:none;stroke:red;stroke-width:1.99999;stroke-linecap:round;stroke-linejoin:round;stroke-miterlimit:4;stroke-dasharray:none;stroke-opacity:1;visibility:visible" visibility="hidden"/><path d="m155.76 652.477 5.047-2.033M155.76 652.477l-.505.757" style="fill:none;stroke:red;stroke-width:.999997;stroke-linecap:round;stroke-linejoin:round;stroke-miterlimit:4;stroke-dasharray:none;stroke-opacity:1;visibility:visible" visibility="hidden"/><path d="m308.49 725.925-147.685-75.481M311.4 760.57l-155.59-82.58" style="fill:none;stroke:red;stroke-width:1.99999;stroke-linecap:round;stroke-linejoin:round;stroke-miterlimit:4;stroke-dasharray:none;stroke-opacity:1;visibility:visible" visibility="hidden"/><path d="m573.426 508.513-.128-7.723" style="fill:none;stroke:red;stroke-width:.999997;stroke-linecap:round;stroke-linejoin:round;stroke-miterlimit:4;stroke-dasharray:none;stroke-opacity:1;visibility:visible" visibility="hidden"/><path d="m573.426 508.513-.481.481M572.944 508.994l-250.305 105" style="fill:none;stroke:red;stroke-width:1.99999;stroke-linecap:round;stroke-linejoin:round;stroke-miterlimit:4;stroke-dasharray:none;stroke-opacity:1;visibility:visible" visibility="hidden"/><path d="m227.965 696.923.885.757-.38 1.202" style="fill:none;stroke:red;stroke-width:.666665;stroke-linecap:round;stroke-linejoin:round;stroke-miterlimit:4;stroke-dasharray:none;stroke-opacity:1;visibility:visible" visibility="hidden"/><path d="m293.816 556.893-138.918-57.519M148.876 539.437l-.017-.31-.034-.32-.05-.326-.087-.324-.097-.32-.114-.324-.134-.313-.151-.295-.165-.29-.172-.265-.186-.254-.202-.22-.2-.2-.21-.17-.208-.141-.216-.112-.209-.08-.2-.047-.199-.013-.192.021-.18.052-.162.088-.156.123-.14.144-.119.177-.1.211-.081.227-.056.254-.044.274-.014.289.002.303.022.31.046.327.07.317.086.326.112.325.12.312.142.31.159.29.17.281.18.252.195.238.195.213.21.185.206.155.208.13.217.094.21.067.197.029h.193l.184-.036.171-.076.164-.104.148-.133.124-.163.112-.185.095-.222.072-.236.049-.265.03-.283.006-.297" style="fill:none;stroke:red;stroke-width:.999997;stroke-linecap:round;stroke-linejoin:round;stroke-miterlimit:4;stroke-dasharray:none;stroke-opacity:1;visibility:visible" visibility="hidden"/><path d="m146.336 537.79.89.756-.373 1.197M145.292 626.094l.012-.301.039-.28.06-.256.09-.23.111-.198.133-.163.156-.13.176-.09.196-.05.202-.01.212.03.222.067.226.107.229.147.223.18.225.209.213.244.196.267.19.293.17.31.152.325.128.334.11.336.082.339.059.333.03.324v.311l-.026.292-.05.27-.071.243-.106.216-.126.179-.147.147-.164.108-.184.07-.199.03-.205-.01-.219-.05-.228-.088-.225-.128-.227-.162-.221-.197-.217-.23-.206-.255-.198-.28-.179-.299-.16-.319-.133-.328-.126-.336-.093-.34-.075-.334-.037-.328-.02-.319M145.677 660.882l.01-.293.037-.275.061-.252.085-.223.115-.19.137-.159.155-.123.172-.084.19-.045.197-.007.214.034.222.073.217.107.233.15.224.183.211.213.216.244.201.268.187.29.165.308.146.322.134.327.106.337.078.334.059.328.03.318.002.307-.024.285-.052.262-.076.236-.093.208-.13.177-.144.139-.164.102-.181.064-.197.026-.207-.016-.22-.054-.224-.092-.219-.13-.228-.166-.217-.197-.213-.228-.207-.256-.195-.28-.173-.299-.163-.316-.134-.322-.122-.332-.092-.336-.068-.332-.044-.322-.017-.313M146.05 695.027l.01-.287.038-.269.067-.245.084-.218.105-.185.136-.152.157-.115.166-.081.188-.04.205-.001.208.04.219.072.222.113.22.15.222.183.217.216.21.243.198.27.18.285.17.309.147.319.131.325.103.332.08.328.057.327.03.31v.299l-.023.281-.051.258-.076.23-.095.203-.126.168-.142.132-.161.097-.184.06-.193.022-.202-.022-.22-.054-.218-.098-.219-.134-.223-.164-.222-.202-.214-.228-.2-.254-.194-.28-.172-.296-.158-.312-.138-.324-.115-.33-.093-.329-.071-.327-.04-.32-.02-.305M148.874 656.82l-.015-.261-.045-.278-.061-.278-.098-.283-.11-.276-.135-.268-.148-.25-.167-.229-.178-.204-.184-.172-.191-.141-.19-.11-.182-.069-.181-.029-.17.008-.156.047-.136.084-.125.122-.096.156-.075.19-.05.214-.023.238.003.258.029.268.057.28.075.282.104.28.123.27.14.258.16.24.177.216.18.189.19.16.187.123.183.09.187.052.173.01.167-.026.149-.066.13-.104.107-.139.086-.175.065-.2.033-.226.011-.251M146.471 708.823l.01-.263.04-.245.057-.221.086-.19.112-.16.132-.122.147-.088.167-.048.185-.014.193.028.198.07.205.102.207.142.205.174.199.203.192.232.18.255.158.277.148.288.127.299.105.302.075.307.057.297.03.291v.276l-.019.253-.052.236-.073.203-.096.173-.128.143-.136.107-.164.068-.175.026-.185-.009-.199-.048-.2-.084-.212-.124-.203-.157-.204-.191-.194-.216-.179-.244-.173-.267-.155-.281-.132-.293-.115-.303-.093-.303-.068-.3-.044-.298-.016-.283M146.104 674.931l.01-.27.035-.251.06-.226.088-.194.115-.166.125-.129.155-.093.17-.055.182-.013.193.022.206.066.205.1.21.138.206.175.205.203.183.23.18.254.167.278.148.292.129.303.103.307.076.309.058.304.031.293.001.28-.021.263-.05.239-.073.205-.104.184-.118.145-.147.112-.157.074-.179.034-.188-.005-.2-.047-.208-.084-.205-.12-.207-.154-.205-.187-.196-.219-.188-.245-.167-.267-.16-.282-.133-.296-.115-.308-.095-.306-.069-.306-.043-.298-.013-.289M145.721 640.403l.008-.277.037-.256.068-.231.087-.204.112-.168.132-.136.155-.096.17-.059.184-.021.199.021.203.06.204.099.214.135.214.172.197.2.19.233.185.256.165.277.152.296.127.306.105.31.081.312.058.308.029.3-.001.284-.022.268-.053.243-.075.216-.1.184-.122.155-.144.116-.16.078-.18.04h-.19l-.204-.042-.204-.08-.212-.119-.206-.153-.206-.19-.197-.216-.19-.242-.173-.268-.161-.287-.13-.297-.126-.308-.09-.315-.071-.31-.039-.302-.02-.292M145.34 605.218l.008-.283.039-.261.06-.236.09-.208.112-.175.139-.142.153-.103.172-.065.188-.023.198.015.202.057.212.095.21.134.213.168.204.202.197.233.183.256.17.28.149.297.13.306.106.314.081.316.056.315.033.305.002.29-.027.273-.048.248-.077.221-.103.195-.128.159-.141.121-.162.081-.184.047-.189.003-.21-.038-.203-.076-.215-.114-.208-.155-.21-.185-.197-.216-.193-.244-.17-.27-.16-.286-.143-.303-.114-.31-.097-.315-.072-.315-.043-.308-.013-.3M144.947 569.359l.01-.285.035-.268.064-.244.096-.215.11-.18.136-.15.158-.107.174-.07.189-.03.2.013.207.05.212.094.213.132.21.17.206.197.199.233.185.256.168.281.15.298.134.31.105.32.087.319.057.319.031.31.001.298-.021.276-.055.256-.077.228-.103.201-.126.164-.147.127-.165.089-.176.05-.2.006-.206-.032-.21-.076-.211-.11-.212-.15-.212-.183-.2-.218-.19-.246-.183-.268-.158-.289-.141-.304-.117-.312-.092-.321-.072-.319-.047-.316-.016-.304" style="fill:none;stroke:red;stroke-width:.666665;stroke-linecap:round;stroke-linejoin:round;stroke-miterlimit:4;stroke-dasharray:none;stroke-opacity:1;visibility:visible" visibility="hidden"/><path d="m146.184 569.448.02.25.041.258.072.261.094.258.11.248.135.233.155.21.162.186.17.152.173.12.17.077.171.044h.16l.148-.044.135-.08.112-.121.07-.125M147.2 568.496l-.09-.036-.17-.041h-.161l-.151.044-.125.084-.115.116-.09.156-.06.186-.04.208-.014.235M146.568 605.304l.019.247.036.256.07.257.094.253.116.246.132.233.146.21.162.185.17.153.174.121.174.083.164.043.162.002.141-.037.13-.076.111-.113.076-.123" style="fill:none;stroke:red;stroke-width:.666665;stroke-linecap:round;stroke-linejoin:round;stroke-miterlimit:4;stroke-dasharray:none;stroke-opacity:1;visibility:visible" visibility="hidden"/><path d="m147.522 604.374-.039-.015-.169-.044-.161-.002-.144.036-.134.078-.108.115-.089.148-.061.18-.04.208-.01.227M146.939 640.49l.013.24.048.25.066.257.094.252.11.245.13.228.148.207.156.186.172.155.168.124.172.083.171.05.156.003.144-.032.128-.07.11-.111.077-.12M147.837 639.576l-.156-.041-.159-.008-.146.034-.127.072-.11.11-.089.146-.062.175-.039.201-.01.224M148.871 657.062l-.05.032-.129.05-.145.009-.15-.03-.162-.07-.159-.106-.162-.144-.147-.174-.139-.196-.124-.223-.106-.23-.074-.238-.06-.24-.032-.23v-.218l.023-.2.053-.173.076-.142.099-.109.12-.068.14-.032M147.309 675.02l.01.235.045.245.066.253.091.248.113.244.131.228.148.21.156.185.165.153.17.123.165.09.165.05.158.01.142-.03.131-.07.11-.103.075-.115M148.147 674.125l-.11-.03-.151-.007-.151.029-.124.068-.108.107-.084.138-.064.171-.036.196-.01.221M147.668 708.91l.013.23.042.245.065.248.092.246.113.242.124.228.143.206.157.187.166.155.169.125.168.09.163.05.156.015.142-.026.126-.062.109-.102.076-.11M148.46 708.037l-.07-.016-.153-.013-.14.026-.129.063-.11.103-.085.133-.065.165-.03.194-.011.217" style="fill:none;stroke:red;stroke-width:.666665;stroke-linecap:round;stroke-linejoin:round;stroke-miterlimit:4;stroke-dasharray:none;stroke-opacity:1;visibility:visible" visibility="hidden"/><path d="M303.485 577.819a10.813 10.813 0 0 0 .557.276M304.553 576.224a.612.612 0 0 0-.448-.004M305.266 576.71a2.245 2.245 0 0 0-.713-.485M305.85 577.455a4.207 4.207 0 0 0-.583-.745" style="fill:none;stroke:red;stroke-width:.999997;stroke-linecap:round;stroke-linejoin:round;stroke-miterlimit:2;stroke-dasharray:none;stroke-opacity:1;visibility:visible" visibility="hidden"/><path d="M306.4 578.559a7.279 7.279 0 0 0-.55-1.104M306.751 579.741a7.122 7.122 0 0 0-.351-1.181M306.834 580.681a4.286 4.286 0 0 0-.084-.941M306.643 581.525a2.2 2.2 0 0 0 .19-.844M306.32 581.835a.59.59 0 0 0 .324-.308M303.698 576.381a1.656 1.656 0 0 0-.919.887M302.78 577.268a2.648 2.648 0 0 0-.215 1.187M302.566 578.455a4.787 4.787 0 0 0 1.104 2.797M303.67 581.252c.263.312.593.559.967.723M304.64 581.975a1.66 1.66 0 0 0 1.274.02M303.691 579.521a2.245 2.245 0 0 0 2.143.551M304.042 578.093a4.59 4.59 0 0 0-.352 1.428M303.7 576.38l.407-.161M305.915 581.993l.407-.16" style="fill:none;stroke:red;stroke-width:.999997;stroke-linecap:round;stroke-linejoin:round;stroke-miterlimit:2;stroke-dasharray:none;stroke-opacity:1;visibility:visible" visibility="hidden"/><path d="m309.663 613.055-.047-.35-.062-.351-.088-.367-.123-.35-.141-.347-.156-.343-.183-.325-.195-.306-.216-.288-.229-.256-.237-.238-.244-.21-.254-.18-.257-.138-.256-.114-.252-.073-.25-.037h-.237l-.232.029-.224.075-.198.112-.184.14-.164.17-.15.207-.126.239-.095.258-.075.284-.049.311-.024.319v.334l.03.35.051.356.083.354.101.358.128.349.148.341.17.334.193.31.2.296.224.275.23.252.247.223.244.192.259.16.252.13.25.09.253.06.245.021.236-.021.224-.054.213-.088.196-.12.178-.162.156-.184.14-.224.112-.246.089-.273.06-.297.036-.31.016-.334-.016-.343" style="fill:none;stroke:red;stroke-width:.999997;stroke-linecap:round;stroke-linejoin:round;stroke-miterlimit:4;stroke-dasharray:none;stroke-opacity:1;visibility:visible" visibility="hidden"/><path d="m306.358 611.447.885.759-.38 1.198M313.165 710.34l-.012-.35.02-.34.047-.311.081-.29.108-.26.141-.224.16-.189.191-.147.208-.109.225-.067.247-.017.25.023.26.065.269.11.266.157.262.189.258.227.244.261.235.293.219.316.194.336.176.358.143.365.123.372.086.373.062.37.033.358-.003.348-.04.326-.061.301-.096.275-.123.244-.15.208-.178.165-.204.13-.213.083-.235.043-.254-.003-.252-.046-.267-.09-.267-.133-.264-.17-.262-.211-.255-.247-.239-.276-.221-.305-.203-.326-.186-.346-.158-.36-.137-.371-.1-.373-.08-.368-.048-.367M316.465 750.746l-.015-.348.022-.33.052-.31.08-.28.106-.252.136-.216.162-.183.189-.141.207-.101.222-.06.246-.015.246.032.263.072.264.115.267.156.261.196.253.232.251.26.228.292.215.316.193.338.177.351.143.364.119.37.086.367.063.367.025.355-.002.337-.032.321-.064.296-.095.266-.127.234-.145.199-.179.163-.198.118-.216.082-.238.034-.242-.009-.258-.052-.264-.095-.264-.136-.266-.174-.258-.216-.249-.243-.239-.279-.222-.304-.204-.33-.184-.343-.156-.356-.131-.365-.11-.372-.073-.364-.045-.359M319.712 790.533l-.012-.341.021-.324.044-.303.079-.272.11-.247.135-.212.166-.174.185-.134.205-.094.223-.051.243-.01.249.037.26.077.257.119.267.158.263.2.253.231.241.265.23.292.216.315.189.339.172.35.143.362.118.366.095.363.056.36.03.35-.002.331-.039.315-.061.288-.097.261-.12.228-.151.194-.176.152-.196.117-.22.07-.23.026-.249-.01-.254-.06-.255-.1-.267-.14-.264-.18-.257-.215-.247-.246-.233-.277-.221-.31-.204-.325-.187-.341-.156-.355-.127-.365-.101-.365-.08-.362-.044-.353M308.124 644.675l-.015-.333.022-.322.049-.298.085-.268.114-.24.138-.206.166-.165.185-.127.21-.084.22-.037.234.007.245.053.255.095.247.14.249.18.237.216.226.25.213.282.193.304.171.326.147.339.117.35.093.353.055.348.027.344-.002.328-.036.309-.07.284-.099.256-.125.224-.148.184-.183.147-.197.104-.218.057-.229.017-.239-.03-.246-.076-.248-.118-.256-.161-.239-.197-.232-.234-.217-.268-.203-.29-.184-.318-.155-.333-.133-.345-.107-.348-.072-.354-.045-.345M311.5 686.09l-.008-.328.015-.31.052-.294.082-.263.114-.233.137-.2.167-.159.186-.117.206-.077.224-.031.237.012.236.057.252.102.247.141.245.18.233.221.23.252.213.282.188.304.168.322.148.339.115.345.085.35.064.344.025.338v.323l-.038.301-.068.278-.096.249-.13.216-.15.177-.178.14-.197.096-.215.054-.226.008-.242-.035-.242-.081-.255-.12-.245-.163-.24-.201-.227-.238-.221-.264-.2-.292-.179-.314-.157-.331-.134-.344-.104-.345-.073-.347-.044-.344M314.827 726.87l-.015-.323.02-.306.054-.286.084-.257.112-.225.138-.192.16-.15.186-.114.208-.07.218-.024.235.015.241.064.247.104.247.147.244.186.234.22.224.251.207.281.19.304.171.324.14.335.122.344.088.345.053.339.033.333-.01.316-.032.296-.07.271-.097.241-.124.212-.15.172-.178.132-.197.087-.216.048-.223.004-.236-.04-.244-.085-.248-.124-.248-.168-.239-.203-.23-.237-.216-.267-.198-.293-.184-.315-.15-.327-.135-.341-.097-.343-.075-.342-.044-.339M318.105 767.03l-.017-.319.024-.301.052-.279.078-.25.108-.218.144-.186.159-.144.19-.108.202-.063.217-.019.235.024.236.066.245.106.248.154.238.186.238.223.222.252.209.281.187.306.165.321.148.33.11.34.09.343.057.336.027.327-.004.312-.036.29-.072.263-.095.238-.121.202-.153.164-.178.126-.188.085-.214.039-.228-.002-.236-.045-.246-.088-.245-.13-.239-.17-.238-.207-.232-.236-.214-.27-.198-.292-.175-.312-.156-.328-.13-.334-.105-.341-.072-.34-.037-.332M321.324 806.58l-.007-.313.022-.295.053-.27.079-.249.109-.212.139-.177.161-.139.18-.101.205-.057.219-.015.235.027.234.076.244.112.24.152.246.188.233.226.22.254.203.285.188.301.165.319.143.332.121.335.081.336.056.333.03.325-.008.304-.038.286-.066.258-.092.23-.132.194-.143.159-.179.121-.194.076-.206.038-.226-.011-.236-.05-.247-.095-.24-.13-.245-.177-.234-.205-.224-.24-.217-.268-.197-.291-.174-.313-.158-.326-.128-.333-.1-.336-.074-.336-.041-.328" style="fill:none;stroke:red;stroke-width:.666665;stroke-linecap:round;stroke-linejoin:round;stroke-miterlimit:4;stroke-dasharray:none;stroke-opacity:1;visibility:visible" visibility="hidden"/><path d="m309.466 644.625.033.283.071.286.099.284.129.274.145.257.167.232.188.207.192.172.205.132.202.093.2.048.194.004.179-.043.16-.085.137-.13.12-.166.086-.203.03-.098M310.901 643.433l-.087-.053-.205-.092-.201-.047-.188-.003-.179.044-.16.088-.145.124-.11.17-.089.201-.052.232-.03.252.011.276M312.832 686.04l.035.28.07.283.099.281.123.273.15.258.164.233.183.205.196.175.204.136.199.095.198.053.192.005.18-.036.16-.081.142-.121.109-.163.09-.195.029-.1" style="fill:none;stroke:red;stroke-width:.666665;stroke-linecap:round;stroke-linejoin:round;stroke-miterlimit:4;stroke-dasharray:none;stroke-opacity:1;visibility:visible" visibility="hidden"/><path d="m314.202 684.87-.028-.016-.2-.096-.197-.05-.194-.009-.178.039-.164.079-.138.124-.109.16-.09.196-.053.225-.028.25.01.269M316.145 726.823l.04.275.07.281.095.279.12.272.147.253.168.236.184.21.196.171.2.138.199.1.197.056.19.01.177-.032.158-.073.14-.117.112-.158.087-.188.027-.1" style="fill:none;stroke:red;stroke-width:.666665;stroke-linecap:round;stroke-linejoin:round;stroke-miterlimit:4;stroke-dasharray:none;stroke-opacity:1;visibility:visible" visibility="hidden"/><path d="m317.454 725.668-.17-.079-.2-.053-.187-.012-.18.03-.158.075-.137.119-.116.156-.087.19-.049.22-.03.245.005.264M319.409 766.983l.043.27.061.277.099.281.122.265.147.256.168.234.177.208.191.177.199.141.202.102.199.06.188.016.17-.027.162-.07.136-.111.115-.151.086-.184.028-.099M320.655 765.852l-.115-.055-.196-.057-.189-.016-.173.027-.156.07-.142.114-.113.149-.081.184-.062.216-.024.24.004.259M322.628 806.533l.035.268.069.273.096.276.12.267.148.253.163.234.176.209.193.18.195.141.201.106.195.061.192.023.173-.023.156-.065.135-.106.116-.145.085-.179.024-.094M323.796 805.416l-.043-.019-.198-.062-.19-.023-.166.024-.159.068-.14.105-.11.144-.083.179-.058.21-.026.234.005.257" style="fill:none;stroke:red;stroke-width:.666665;stroke-linecap:round;stroke-linejoin:round;stroke-miterlimit:4;stroke-dasharray:none;stroke-opacity:1;visibility:visible" visibility="hidden"/><path d="m573.426 508.513 5.594-9.883M583.204 456.64l-4.78 3.158M160.863 523.56l8.235 12.628M305.915 581.993l-8.679 9.842M160.807 650.444l.101-3.888" style="fill:none;stroke:red;stroke-width:.999997;stroke-linecap:round;stroke-linejoin:round;stroke-miterlimit:4;stroke-dasharray:none;stroke-opacity:1;visibility:visible" visibility="hidden"/><path d="m169.098 536.188-.631 16.119M406.087 405.688l-.182 1.956M390.855 602.519l1.345-17.702M573.426 508.513l-11.521 5.112M573.426 508.513l10.346-11.913M578.397 458.087l4.87 2.98M578.694 457.953l-14.221-5.016M164.49 570.21l-3.619-15.218M160.807 650.444l.1-8.887M169.098 536.188l-8.235-12.628M147.308 675.018l13.615 5.689" style="fill:none;stroke:red;stroke-width:1.99999;stroke-linecap:round;stroke-linejoin:round;stroke-miterlimit:4;stroke-dasharray:none;stroke-opacity:1;visibility:visible" visibility="hidden"/><path d="m302.566 578.455-6.33 1.539" style="fill:none;stroke:red;stroke-width:.999997;stroke-linecap:round;stroke-linejoin:round;stroke-miterlimit:4;stroke-dasharray:none;stroke-opacity:1;visibility:visible" visibility="hidden"/><path d="m303.485 577.819-9.307 2.821" style="fill:none;stroke:red;stroke-width:1.99999;stroke-linecap:round;stroke-linejoin:round;stroke-miterlimit:4;stroke-dasharray:none;stroke-opacity:1;visibility:visible" visibility="hidden"/><path d="m160.863 523.56-11.987 15.877" style="fill:none;stroke:red;stroke-width:.999997;stroke-linecap:round;stroke-linejoin:round;stroke-miterlimit:4;stroke-dasharray:none;stroke-opacity:1;visibility:visible" visibility="hidden"/><path d="m148.874 656.82-3.197 4.062M148.874 656.82l-3.197 4.062M141.418 709.683l4.632-14.656M141.418 709.683l5.053-.86M147.309 675.02l-1.205-.089M145.677 660.882l.427 14.049M146.939 640.49l-1.218-.087M148.874 656.82l-3.153-16.417M146.567 605.305l-1.227-.087M155.255 653.234l-6.253-10.797M160.832 716.666l-11.14-5.79M314.827 726.87l-1.662-16.53M311.434 760.97l5.031-10.224M311.433 760.97l5.032-10.224M315.413 808.354l4.299-17.821M309.466 644.625l-1.342.05M308.941 731.283l5.886-4.413M308.941 731.283l5.886-4.413M311.434 760.97l6.671 6.06M311.433 760.97l6.672 6.06M338.18 812.68l-16.856-6.1M315.413 808.354l5.911-1.774M338.152 813.044l-13.052-4.832" style="fill:none;stroke:red;stroke-width:.666665;stroke-linecap:round;stroke-linejoin:round;stroke-miterlimit:4;stroke-dasharray:none;stroke-opacity:1;visibility:visible" visibility="hidden"/><path d="m589.963 487.338-3.438-3.288 1.895-12.555s.08-8.105-6.248-10.024l-176.025-53.228-252.794 80.697s7.036 4.57 7.755 7.766" style="fill:none;fill-opacity:1;fill-rule:nonzero;stroke:#00ff4a;stroke-width:1.33333;visibility:visible"/><path d="m406.536 410.935-250.2 80.276M334.182 571.877l-.014.431M322.789 562.899l-4.04-1.41M322.789 562.899l.406.186.415.222.408.261.401.29.398.319.388.357.385.376.365.407.355.44.34.45.33.486.3.498.294.516.264.536.245.542.224.555.2.563.178.57.155.571.129.575.096.577.073.564.044.563.023.549M329.205 573.873l.122 16.014 5.104-2.507M566.828 477.579v-.177l-.028-.178-.055-.173-.073-.168-.093-.148-.112-.132-.128-.121-.134-.08-.148-.068-.141-.03-.14.01-.136.029-.124.059-.104.092-.09.109-.072.141-.045.147-.022.172.006.17.031.179.05.176.077.164.085.158.12.132.128.113.132.088.141.059.14.026h.142l.134-.026.126-.067.112-.092.088-.11.065-.133.047-.157.02-.164M583.303 472.228l-.86 14.27M423 416.234l154.517 46.712M406.536 410.935l9.188 2.785M577.517 462.946l.41.137.4.172.393.201.393.228.378.26.373.29.36.313.343.34.333.356.312.387.297.4.284.421.258.439.237.453.212.467.19.476.171.482.139.495.119.497.089.5.067.496.037.496.007.491-.015.484M563.305 492.67l.358-.147.36-.15.366-.156.356-.162.358-.16.345-.172.352-.173.333-.178.295-.161.29-.163.274-.168.253-.165.238-.175.224-.16.192-.178.169-.172.076-.082.065-.08.061-.09.051-.098.036-.09.033-.086.011-.089v-.092l-.011-.088-.033-.096-.06-.087-.08-.088-.105-.084-.056-.046-.076-.042-.081-.04-.091-.034-.088-.038-.097-.03-.103-.03-.11-.02-.123-.033-.118-.01-.124-.027-.117-.01-.248-.025-.252-.015-.259-.008-.252.008-.245.009-.239.006-.233.025-.247.02-.246.023-.238.027-.229.03-.22.035-.21.031-.445.082-.43.088-.429.098-.425.104-.421.106-.415.118-.41.108-.399.129-.444.14-.442.141-.422.148-.413.147-.41.15-.393.15-.385.145-.37.15M346.727 575.588l210.429-84.897" style="fill:none;stroke:#00ff4a;stroke-width:.999997;stroke-linecap:round;stroke-linejoin:round;stroke-miterlimit:4;stroke-dasharray:none;stroke-opacity:1;visibility:visible"/><path d="M320.514 586.744s8.844 3.784 10.196 4.339c1.356.553 2.42.327 4.79-.411 2.37-.737 254.527-104.204 254.527-104.204" style="fill:none;stroke:#00ff4a;stroke-width:.999997;stroke-linecap:round;stroke-linejoin:round;stroke-miterlimit:4;stroke-dasharray:none;stroke-opacity:1;visibility:visible"/><path d="m352.944 578.144-.471.195-.488.181-.498.195-.51.192-.527.193-.54.184-.543.19-.555.182-.528.164-.529.157-.53.154-.538.152-.541.132-.55.133-.546.117-.55.106-.265.042-.275.047-.282.044-.3.036-.288.032-.289.03-.291.019-.272.017-.29.01-.297-.01-.304-.01-.281-.027-.268-.029-.134-.032-.133-.019-.127-.038-.117-.038-.112-.035-.095-.039-.09-.044-.082-.052-.082-.051-.068-.053-.05-.054-.046-.057-.074-.104-.036-.119-.016-.126.008-.121.03-.11.044-.119.06-.111.074-.119.09-.121.096-.107.104-.119.112-.107.11-.107.266-.218.291-.213.312-.219.334-.212.345-.216.374-.207.384-.209.394-.207.456-.224.458-.221.474-.221.474-.218.474-.205.484-.208.466-.201.477-.183M352.943 578.144l210.36-85.473" style="fill:none;stroke:#00ff4a;stroke-width:.999997;stroke-linecap:round;stroke-linejoin:round;stroke-miterlimit:4;stroke-dasharray:none;stroke-opacity:1;visibility:visible"/><path d="m575.07 459.308 5.753 1.752" style="fill:none;stroke:#00ff4a;stroke-width:1.99999;stroke-linecap:round;stroke-linejoin:round;stroke-miterlimit:4;stroke-dasharray:none;stroke-opacity:1;visibility:visible"/><path d="m406.396 408.267 172.615 52.504" style="fill:none;stroke:#00ff4a;stroke-width:.999997;stroke-linecap:round;stroke-linejoin:round;stroke-miterlimit:4;stroke-dasharray:none;stroke-opacity:1;visibility:visible"/><path d="m587.072 471.083-.819 12.695M403.471 409.192l2.924-.925" style="fill:none;stroke:#00ff4a;stroke-width:1.99999;stroke-linecap:round;stroke-linejoin:round;stroke-miterlimit:4;stroke-dasharray:none;stroke-opacity:1;visibility:visible"/><path d="m406.784 430.822 175.66 55.677 3.535-1.36" style="fill:none;stroke:#00ff4a;stroke-width:.999997;stroke-linecap:round;stroke-linejoin:round;stroke-miterlimit:4;stroke-dasharray:none;stroke-opacity:1;visibility:visible"/><path d="m330.302 562.656-.342-.33M327.24 560.473l.397.178.397.212.4.234.386.267.393.297.377.32.371.347M330.302 562.656l.372.384.356.412.348.428.336.45.31.478.296.497.282.51.26.52.245.541.216.55.19.548.172.566.147.56.12.567.096.565.076.555.044.549.015.54.155 15.132M306.213 552.401l-131.57-53.72M173.376 499.158l-7.846-3.202M166.798 495.482l-11.13-4.544M327.24 560.473l-12.22-4.476M403.471 409.192l-.51.354M580.825 461.06l.427.147.412.173.41.204.408.239.401.261.384.288.377.322.366.341.347.372.335.383.31.406.299.432.28.446.256.456.233.477.217.483.185.494.17.508.141.511.113.52.087.512.06.516.041.513.004.516-.015.504" style="fill:none;stroke:#00ff4a;stroke-width:1.99999;stroke-linecap:round;stroke-linejoin:round;stroke-miterlimit:4;stroke-dasharray:none;stroke-opacity:1;visibility:visible"/><path d="m406.339 430.902.197-19.966" style="fill:none;stroke:#00ff4a;stroke-width:.999997;stroke-linecap:round;stroke-linejoin:round;stroke-miterlimit:4;stroke-dasharray:none;stroke-opacity:1;visibility:visible"/><path d="M402.672 409.455 153.1 489.12" style="fill:none;stroke:#00ff4a;stroke-width:1.99999;stroke-linecap:round;stroke-linejoin:round;stroke-miterlimit:4;stroke-dasharray:none;stroke-opacity:1;visibility:visible"/><path d="m405.73 410.388.806.547M187.517 503.659l218.822-72.757M405.73 410.388l-3.058-.936" style="fill:none;stroke:#00ff4a;stroke-width:.999997;stroke-linecap:round;stroke-linejoin:round;stroke-miterlimit:4;stroke-dasharray:none;stroke-opacity:1;visibility:visible"/><path d="m589.812 492.11.29-4.727-.078-.915-3.229-1.874M589.27 492.538S338.652 596.08 336.172 597.108a7.643 7.643 0 0 1-5.562.14c-.943-.35-9.6-4.121-9.6-4.121" style="fill:none;stroke:#00ff4a;stroke-width:1.99999;stroke-linecap:round;stroke-linejoin:round;stroke-miterlimit:4;stroke-dasharray:none;stroke-opacity:1;visibility:visible"/><path d="m299.486 553.864-138.75-56.997" style="fill:none;stroke:#00ff4a;stroke-width:.999997;stroke-linecap:round;stroke-linejoin:round;stroke-miterlimit:4;stroke-dasharray:none;stroke-opacity:1;visibility:visible"/><path d="m415.533 414.732-.032 1.759M415.5 416.491l.005.396.031.404.063.405.086.406.112.398.138.394.16.382.186.367.204.35.226.333.241.31.257.284.272.259.282.23.293.195.299.167.302.13.307.098.303.063.304.022.294-.01.291-.048.28-.084.265-.119.254-.155.236-.185.217-.22.196-.245.175-.278.153-.302.13-.326.1-.345.077-.364.05-.379.02-.39M422.31 418.634l.037-1.76M422.348 416.873l.003-.27M422.772 415.93l-.421.675M417.32 413.49l-1.09.388M423.863 415.542l-1.09.388M417.32 413.49l6.543 2.053M422.35 416.605l-.04 1.937" style="fill:none;stroke:#00ff4a;stroke-width:.666665;stroke-linecap:round;stroke-linejoin:round;stroke-miterlimit:4;stroke-dasharray:none;stroke-opacity:1;visibility:visible"/><path d="m421.185 421.317-.132-.007-.3-.04-.303-.076-.3-.114-.297-.148-.293-.183-.283-.212-.273-.245-.259-.275-.245-.297-.227-.322-.207-.341-.186-.361-.166-.375-.138-.387-.114-.394-.088-.398-.061-.4-.036-.4-.005-.393M417.272 415.949l.048-2.46M415.809 414.551l.421-.675M415.809 414.551l-.276.181M422.31 418.542v.092" style="fill:none;stroke:#00ff4a;stroke-width:.666665;stroke-linecap:round;stroke-linejoin:round;stroke-miterlimit:4;stroke-dasharray:none;stroke-opacity:1;visibility:visible"/><path d="m329.205 573.872 4.977-1.995M329.205 573.873l4.963-1.565M327.24 560.473l-8.491 1.016M583.303 472.228l-16.475 5.351M582.443 486.498l-15.616-8.919M587.072 471.083l-4.629 15.415" style="fill:none;stroke:#00ff4a;stroke-width:.999997;stroke-linecap:round;stroke-linejoin:round;stroke-miterlimit:4;stroke-dasharray:none;stroke-opacity:1;visibility:visible"/><path d="m579.011 460.771-3.941-1.463" style="fill:none;stroke:#00ff4a;stroke-width:1.99999;stroke-linecap:round;stroke-linejoin:round;stroke-miterlimit:4;stroke-dasharray:none;stroke-opacity:1;visibility:visible"/><path d="m580.825 461.06-1.814-.289" style="fill:none;stroke:#00ff4a;stroke-width:.999997;stroke-linecap:round;stroke-linejoin:round;stroke-miterlimit:4;stroke-dasharray:none;stroke-opacity:1;visibility:visible"/><path d="m315.02 555.997-8.807-3.596M173.376 499.158l1.267-.477M174.643 498.681l-1.267.477M166.798 495.482l-1.268.474M165.53 495.956l1.268-.474M306.213 552.401l8.807 3.596" style="fill:none;stroke:#00ff4a;stroke-width:1.99999;stroke-linecap:round;stroke-linejoin:round;stroke-miterlimit:4;stroke-dasharray:none;stroke-opacity:1;visibility:visible"/><path d="m315.02 555.997-15.534-2.133" style="fill:none;stroke:#00ff4a;stroke-width:.999997;stroke-linecap:round;stroke-linejoin:round;stroke-miterlimit:4;stroke-dasharray:none;stroke-opacity:1;visibility:visible"/><path d="m582.443 486.498-9.145 14.292" style="fill:none;stroke:red;stroke-width:.999997;stroke-linecap:round;stroke-linejoin:round;stroke-miterlimit:4;stroke-dasharray:none;stroke-opacity:1;visibility:visible" visibility="hidden"/><path d="m321.324 806.58 2.472-1.164" style="fill:none;stroke:red;stroke-width:.666665;stroke-linecap:round;stroke-linejoin:round;stroke-miterlimit:4;stroke-dasharray:none;stroke-opacity:1;visibility:visible" visibility="hidden"/><path d="m304.637 581.975 15.877 4.769M174.643 498.681l12.874 4.978" style="fill:none;stroke:#00ff4a;stroke-width:.999997;stroke-linecap:round;stroke-linejoin:round;stroke-miterlimit:4;stroke-dasharray:none;stroke-opacity:1;visibility:visible"/></svg>