<svg xmlns="http://www.w3.org/2000/svg" baseProfile="full" height="1122.52" preserveAspectRatio="xMinYMin meet" style="width:765px;height:943px" width="793.701" xml:space="preserve"><path d="M49.958 750.18 435.43 596.94M133.186 806.831l389.112-162.106M141.072 986.438 517.82 814.82M109.148 811.203a7.553 7.553 0 0 0 3.608 8.554M115.292 817.406l-.039.943-.194.776-.342.565-.465.33-.573.08-.651-.178-.23-.116M109.155 811.165l.096-.296.337-.57.468-.334.572-.081.65.174.692.422.705.649.675.843.617.997.528 1.093.407 1.146.272 1.133.118 1.064" style="fill:none;stroke:red;stroke-width:.999997;stroke-linecap:round;stroke-linejoin:round;stroke-miterlimit:4;stroke-dasharray:none;stroke-opacity:1;visibility:visible"/><path d="m110.493 817.59-.143-.15-.148-.174-.136-.19-.133-.207-.127-.219-.121-.23-.104-.24-.096-.242-.085-.247-.068-.241-.058-.239-.04-.234-.025-.222-.008-.206.008-.195.025-.176.035-.152.057-.135.068-.106.086-.083.094-.056.108-.03.116-.005.132.027.13.052.136.08.148.105.141.127.145.15.143.171.139.192.133.206.127.22.116.229.109.24.096.243.085.244.068.245.058.239.04.233.022.221.008.208-.008.194-.022.174-.04.155-.055.13-.068.107-.085.087-.09.055-.109.029-.119.004-.13-.025-.134-.054-.136-.077-.14-.105-.145-.127" style="fill:none;stroke:red;stroke-width:.666665;stroke-linecap:round;stroke-linejoin:round;stroke-miterlimit:4;stroke-dasharray:none;stroke-opacity:1;visibility:visible"/><path d="m297.78 574.297-.2-.113M294.426 579.741l.2.115" style="fill:none;stroke:red;stroke-width:.999997;stroke-linecap:round;stroke-linejoin:round;stroke-miterlimit:4;stroke-dasharray:none;stroke-opacity:1;visibility:visible"/><path d="m158.346 1027.834 1.907 1.432M175.646 1008.603l-1.916-1.416M150.97 847.88l1.968 1.359M167.99 827.387l-1.974-1.342" style="fill:none;stroke:red;stroke-width:1.99999;stroke-linecap:round;stroke-linejoin:round;stroke-miterlimit:4;stroke-dasharray:none;stroke-opacity:1;visibility:visible"/><path d="M54.71 920.818h-.001M347.376 547.137 48.655 660.253M297.58 578.961l54.034-20.616M48.947 673.818l245.958-93.837" style="fill:none;stroke:red;stroke-width:.999997;stroke-linecap:round;stroke-linejoin:round;stroke-miterlimit:4;stroke-dasharray:none;stroke-opacity:1;visibility:visible"/><path d="m446.412 664.534.648-58.914M67.128 931.744l49.332-21.558" style="fill:none;stroke:red;stroke-width:1.99999;stroke-linecap:round;stroke-linejoin:round;stroke-miterlimit:4;stroke-dasharray:none;stroke-opacity:1;visibility:visible"/><path d="m445.386 758.293.78-71.113" style="fill:none;stroke:red;stroke-width:.666665;stroke-linecap:round;stroke-linejoin:round;stroke-miterlimit:4;stroke-dasharray:2.66666,2.66666;stroke-dashoffset:0;stroke-opacity:1;visibility:visible"/><path d="m127.185 985.091-7.704-157.857" style="fill:none;stroke:red;stroke-width:.999997;stroke-linecap:round;stroke-linejoin:round;stroke-miterlimit:4;stroke-dasharray:none;stroke-opacity:1;visibility:visible"/><path d="m529.972 800.446 3.799-147.053M147.877 991.584 517.485 822.57M514.567 638.672 125.633 799.869M112.076 822.698l7.9 157.638" style="fill:none;stroke:red;stroke-width:1.99999;stroke-linecap:round;stroke-linejoin:round;stroke-miterlimit:4;stroke-dasharray:none;stroke-opacity:1;visibility:visible"/><path d="m139.982 811.882 380.995-159.365" style="fill:none;stroke:red;stroke-width:.999997;stroke-linecap:round;stroke-linejoin:round;stroke-miterlimit:4;stroke-dasharray:none;stroke-opacity:1;visibility:visible"/><path d="m167.724 1006.291-32.382-23.996M354.19 527.945a2.189 2.189 0 0 0-1.938-.124M361.387 617.519l-.385-84.352M359.786 530.953l-5.59-3.033M361.002 533.168a2.28 2.28 0 0 0-1.224-2.192" style="fill:none;stroke:red;stroke-width:1.99999;stroke-linecap:round;stroke-linejoin:round;stroke-miterlimit:4;stroke-dasharray:none;stroke-opacity:1;visibility:visible"/><path d="m48.37 917.842-.848-.627" style="fill:none;stroke:red;stroke-width:.999997;stroke-linecap:round;stroke-linejoin:round;stroke-miterlimit:4;stroke-dasharray:none;stroke-opacity:1;visibility:visible"/><path d="m123.888 998.424 31.882 23.9M49.13 942.384l69.005 51.73M119.484 970.544l-71.115-52.7" style="fill:none;stroke:red;stroke-width:1.99999;stroke-linecap:round;stroke-linejoin:round;stroke-miterlimit:4;stroke-dasharray:none;stroke-opacity:1;visibility:visible"/><path d="m123.392 983.331.022.433" style="fill:none;stroke:red;stroke-width:.999997;stroke-linecap:round;stroke-linejoin:round;stroke-miterlimit:4;stroke-dasharray:none;stroke-opacity:1;visibility:visible"/><path d="m131.55 902.049-3.474-73.535M114.817 819.373l33.09 22.814M48.564 773.694l60.694 41.846M159.593 825.234l-110.61-75.31M135.38 983.094l-3.83-81.045" style="fill:none;stroke:red;stroke-width:1.99999;stroke-linecap:round;stroke-linejoin:round;stroke-miterlimit:4;stroke-dasharray:none;stroke-opacity:1;visibility:visible"/><path d="m115.292 819.7.233 4.704M296.707 575.712l-1.15.51M295.054 577.59l.648.854M295.557 576.223l-.503 1.365M294.14 579.425l-.301-.585-.129-.72.06-.795.237-.813.404-.77.535-.674.63-.521.674-.338.672-.119.62.098.52.315.381.504.217.657.033.763-.151.81-.323.799-.474.728-.586.604-.657.432-.679.232-.653.013-.573-.208-.457-.412M294.426 579.741l-.03-.017" style="fill:none;stroke:red;stroke-width:.999997;stroke-linecap:round;stroke-linejoin:round;stroke-miterlimit:4;stroke-dasharray:none;stroke-opacity:1;visibility:visible"/><path d="m154.024 849.629.1.048 1.239.426 1.343.192 1.424-.053 1.474-.292 1.493-.525 1.481-.748 1.443-.958 1.373-1.144 1.276-1.308 1.156-1.449 1.007-1.559.841-1.633.658-1.681.462-1.69.256-1.668.044-1.61-.168-1.523-.376-1.401-.58-1.25-.46-.698" style="fill:none;stroke:red;stroke-width:1.99999;stroke-linecap:round;stroke-linejoin:round;stroke-miterlimit:4;stroke-dasharray:none;stroke-opacity:1;visibility:visible"/><path d="m167.164 827.18-.008-.001-1.234-.439-1.341-.2-1.424.041-1.475.285-1.5.52-1.49.744-1.45.957-1.384 1.147-1.282 1.313-1.163 1.456-1.015 1.567-.846 1.645-.659 1.691-.461 1.7-.252 1.676-.04 1.616" style="fill:none;stroke:red;stroke-width:.999997;stroke-linecap:round;stroke-linejoin:round;stroke-miterlimit:4;stroke-dasharray:none;stroke-opacity:1;visibility:visible"/><path d="m161.717 1029.88.097.04 1.196.34 1.295.109 1.375-.117 1.42-.348 1.443-.566 1.429-.776 1.395-.971 1.327-1.139 1.234-1.292 1.116-1.416.974-1.51.814-1.571.636-1.611.448-1.608.25-1.576.044-1.51-.16-1.42-.362-1.293-.558-1.145-.44-.628M166.016 826.043l-.698-.412-1.21-.468-1.32-.238-1.399-.007-1.461.232-1.486.463-1.486.682-1.458.895-1.397 1.084-1.312 1.256-1.199 1.4-1.064 1.521-.91 1.609-.731 1.665-.547 1.689-.345 1.681-.139 1.639.068 1.564.276 1.461.476 1.327.668 1.17.848.985.78.638" style="fill:none;stroke:red;stroke-width:1.99999;stroke-linecap:round;stroke-linejoin:round;stroke-miterlimit:4;stroke-dasharray:none;stroke-opacity:1;visibility:visible"/><path d="m175.994 1009.147-.516-.397-1.06-.57-1.19-.348-1.293-.121-1.375.112-1.426.34-1.444.563-1.44.772-1.4.969-1.336 1.144-1.241 1.297-1.123 1.422-.98 1.518-.818 1.586-.64 1.616-.447 1.617-.245 1.583-.042 1.517" style="fill:none;stroke:red;stroke-width:.999997;stroke-linecap:round;stroke-linejoin:round;stroke-miterlimit:4;stroke-dasharray:none;stroke-opacity:1;visibility:visible"/><path d="m173.732 1007.187-.06-.044-1.036-.593-1.167-.378-1.272-.158-1.353.065-1.41.29-1.434.506-1.435.717-1.407.911-1.35 1.085-1.266 1.242-1.16 1.374-1.028 1.476-.877 1.555-.712 1.596-.528 1.61-.337 1.595-.136 1.542.064 1.462.265 1.356.457 1.222.644 1.062.816.882.336.272" style="fill:none;stroke:red;stroke-width:1.99999;stroke-linecap:round;stroke-linejoin:round;stroke-miterlimit:4;stroke-dasharray:none;stroke-opacity:1;visibility:visible"/><path d="M350.04 547.188a2.823 2.823 0 0 0-2.658-.041M54.539 922.1l.02.332M48.89 748.88l-.684.457M48.208 749.397l-.003-.063" style="fill:none;stroke:red;stroke-width:.999997;stroke-linecap:round;stroke-linejoin:round;stroke-miterlimit:4;stroke-dasharray:none;stroke-opacity:1;visibility:visible"/><path d="m351.592 558.287.252-.134.236-.889.067-1.224-.01-1.608-.079-1.676-.178-1.776-.416-1.85-.68-1.312-.747-.631" style="fill:none;stroke:red;stroke-width:.999997;stroke-linecap:round;stroke-linejoin:round;stroke-miterlimit:4;stroke-dasharray:none;stroke-opacity:1;visibility:visible"/><path d="M435.43 596.94a3.665 3.665 0 0 0-1.586-3.061" style="fill:none;stroke:red;stroke-width:1.99999;stroke-linecap:round;stroke-linejoin:round;stroke-miterlimit:4;stroke-dasharray:none;stroke-opacity:1;visibility:visible"/><path d="m48.313 747.317-.03-.485M49.959 750.18a4.75 4.75 0 0 0-1.675-3.347M49.636 749.96l.027.429M49.959 750.18l.026.43" style="fill:none;stroke:red;stroke-width:.999997;stroke-linecap:round;stroke-linejoin:round;stroke-miterlimit:4;stroke-dasharray:none;stroke-opacity:1;visibility:visible"/><path d="M49.636 749.961a3.747 3.747 0 0 0-1.321-2.643M49.636 749.96l.323.223" style="fill:none;stroke:red;stroke-width:.999997;stroke-linecap:round;stroke-linejoin:round;stroke-miterlimit:4;stroke-dasharray:none;stroke-opacity:1;visibility:visible"/><path d="m435.379 603.347.051-6.407" style="fill:none;stroke:red;stroke-width:1.99999;stroke-linecap:round;stroke-linejoin:round;stroke-miterlimit:4;stroke-dasharray:none;stroke-opacity:1;visibility:visible"/><path d="m56.012 754.71 379.367-151.363" style="fill:none;stroke:red;stroke-width:.999997;stroke-linecap:round;stroke-linejoin:round;stroke-miterlimit:4;stroke-dasharray:none;stroke-opacity:1;visibility:visible"/><path d="m441.22 602.308 5.706 3.141M441.22 602.308a4.477 4.477 0 0 0-3.448-.143M429.035 591.235a1.048 1.048 0 0 0-.919-.112M433.843 593.879l-4.807-2.643M48.187 741.473l380.127-150.405" style="fill:none;stroke:red;stroke-width:1.99999;stroke-linecap:round;stroke-linejoin:round;stroke-miterlimit:4;stroke-dasharray:none;stroke-opacity:1;visibility:visible"/><path d="m437.772 602.165-2.392.955" style="fill:none;stroke:red;stroke-width:.999997;stroke-linecap:round;stroke-linejoin:round;stroke-miterlimit:4;stroke-dasharray:none;stroke-opacity:1;visibility:visible"/><path d="M522.299 644.727a3.705 3.705 0 0 0-1.643-3.151" style="fill:none;stroke:red;stroke-width:1.99999;stroke-linecap:round;stroke-linejoin:round;stroke-miterlimit:4;stroke-dasharray:none;stroke-opacity:1;visibility:visible"/><path d="m118.362 827.477.178.08.225.033.24-.01.22-.063.165-.1.084-.123-.01-.124M133.186 806.833a4.808 4.808 0 0 0-1.736-3.456" style="fill:none;stroke:red;stroke-width:.999997;stroke-linecap:round;stroke-linejoin:round;stroke-miterlimit:4;stroke-dasharray:none;stroke-opacity:1;visibility:visible"/><path d="m127.185 985.091-.008.063-.08.129-.16.104-.213.065-.234.015-.22-.039-.17-.082" style="fill:none;stroke:red;stroke-width:1.99999;stroke-linecap:round;stroke-linejoin:round;stroke-miterlimit:4;stroke-dasharray:none;stroke-opacity:1;visibility:visible"/><path d="m118.362 827.477-5.765-3.987" style="fill:none;stroke:red;stroke-width:.999997;stroke-linecap:round;stroke-linejoin:round;stroke-miterlimit:4;stroke-dasharray:none;stroke-opacity:1;visibility:visible"/><path d="m115.333 820.555-2.115.885M113.218 821.44l-.405.204-.327.239-.238.263-.139.281-.033.286.072.28.174.261.274.237M120.482 981.166l5.616 4.181" style="fill:none;stroke:red;stroke-width:1.99999;stroke-linecap:round;stroke-linejoin:round;stroke-miterlimit:4;stroke-dasharray:none;stroke-opacity:1;visibility:visible"/><path d="m133.186 806.833.02.437M114.994 824.56l.004.068" style="fill:none;stroke:red;stroke-width:.999997;stroke-linecap:round;stroke-linejoin:round;stroke-miterlimit:4;stroke-dasharray:none;stroke-opacity:1;visibility:visible"/><path d="m522.145 651.253.155-6.526" style="fill:none;stroke:red;stroke-width:1.99999;stroke-linecap:round;stroke-linejoin:round;stroke-miterlimit:4;stroke-dasharray:none;stroke-opacity:1;visibility:visible"/><path d="m524.408 649.935-3.593 148.754" style="fill:none;stroke:red;stroke-width:.999997;stroke-linecap:round;stroke-linejoin:round;stroke-miterlimit:4;stroke-dasharray:none;stroke-opacity:1;visibility:visible"/><path d="m517.752 800.071 3.063-1.384" style="fill:none;stroke:red;stroke-width:1.99999;stroke-linecap:round;stroke-linejoin:round;stroke-miterlimit:4;stroke-dasharray:none;stroke-opacity:1;visibility:visible"/><path d="m126.578 800.063 4.872 3.312M126.577 800.063l-.313-.169-.299-.074-.27.026-.23.125-.187.219-.128.3-.073.38-.01.436M125.066 801.306l.022.435" style="fill:none;stroke:red;stroke-width:.999997;stroke-linecap:round;stroke-linejoin:round;stroke-miterlimit:4;stroke-dasharray:none;stroke-opacity:1;visibility:visible"/><path d="m524.053 649.736-1.893.792M527.6 649.887l6.021 3.317M527.6 649.887a4.528 4.528 0 0 0-3.547-.15M515.579 638.788a1.137 1.137 0 0 0-1.014-.116M119.974 980.336a1.09 1.09 0 0 0 .508.83M520.655 641.576l-5.076-2.79" style="fill:none;stroke:red;stroke-width:1.99999;stroke-linecap:round;stroke-linejoin:round;stroke-miterlimit:4;stroke-dasharray:none;stroke-opacity:1;visibility:visible"/><path d="M49.576 750.329a4.744 4.744 0 0 0-.373-1.437M49.201 748.892a4.71 4.71 0 0 0-1.285-1.728M47.947 747.648l-.03-.486M49.253 750.108a3.752 3.752 0 0 0-1.305-2.46" style="fill:none;stroke:red;stroke-width:.999997;stroke-linecap:round;stroke-linejoin:round;stroke-miterlimit:4;stroke-dasharray:none;stroke-opacity:1;visibility:visible"/><path d="M520.977 652.517a1.35 1.35 0 0 0 .691-1.065" style="fill:none;stroke:red;stroke-width:1.99999;stroke-linecap:round;stroke-linejoin:round;stroke-miterlimit:4;stroke-dasharray:none;stroke-opacity:1;visibility:visible"/><path d="m53.277 913.857 61.868-26.732M53.13 913.791l.315.23M53.405 918.227l-.274-4.436M58.68 923.758l-3.996-2.959M59.97 926.44l-.01-.105M60.28 926.672l-.005-.105M58.68 923.758l-.027-.455M59.96 926.337a3.8 3.8 0 0 0-1.281-2.581M59.96 926.336l.315.231" style="fill:none;stroke:red;stroke-width:.999997;stroke-linecap:round;stroke-linejoin:round;stroke-miterlimit:4;stroke-dasharray:none;stroke-opacity:1;visibility:visible"/><path d="m159.43 869 269.504-113.557" style="fill:none;stroke:red;stroke-width:.666665;stroke-linecap:round;stroke-linejoin:round;stroke-miterlimit:4;stroke-dasharray:2.66666,2.66666;stroke-dashoffset:0;stroke-opacity:1;visibility:visible"/><path d="m140.74 986.192.332.248M141.072 986.439a4.867 4.867 0 0 0-1.682-3.364M53.405 918.227a3.81 3.81 0 0 0 1.279 2.574" style="fill:none;stroke:red;stroke-width:.999997;stroke-linecap:round;stroke-linejoin:round;stroke-miterlimit:4;stroke-dasharray:none;stroke-opacity:1;visibility:visible"/><path d="m517.813 815.022.007-.201" style="fill:none;stroke:red;stroke-width:1.99999;stroke-linecap:round;stroke-linejoin:round;stroke-miterlimit:4;stroke-dasharray:none;stroke-opacity:1;visibility:visible"/><path d="m140.745 986.298-.005-.106M141.077 986.544l-.005-.104" style="fill:none;stroke:red;stroke-width:.999997;stroke-linecap:round;stroke-linejoin:round;stroke-miterlimit:4;stroke-dasharray:none;stroke-opacity:1;visibility:visible"/><path d="m516.225 811.745-4.398-2.65M517.819 814.82a3.748 3.748 0 0 0-1.594-3.074M523.54 798.813a3.237 3.237 0 0 0-2.727-.126M525.023 799.697l-1.483-.884M527.628 801.703l-2.616-1.56M517.485 822.57a1.268 1.268 0 0 0 .618-1.237M518.25 815.193l-.348-.21M517.752 800.071a13.777 13.777 0 0 0-6.737 8.03" style="fill:none;stroke:red;stroke-width:1.99999;stroke-linecap:round;stroke-linejoin:round;stroke-miterlimit:4;stroke-dasharray:none;stroke-opacity:1;visibility:visible"/><path d="m435.026 765.574-3.386-2.04M436.252 767.942a2.88 2.88 0 0 0-1.226-2.368M440.656 755.617a2.501 2.501 0 0 0-2.098-.097M441.798 756.298l-1.14-.681M444.834 758.458l-3.046-1.818M435.995 773.908a.973.973 0 0 0 .475-.954M436.583 768.226l-.265-.162M436.47 772.953l.112-4.727M436.199 756.586a10.612 10.612 0 0 0-5.187 6.184" style="fill:none;stroke:red;stroke-width:.666665;stroke-linecap:round;stroke-linejoin:round;stroke-miterlimit:4;stroke-dasharray:2.66666,2.66666;stroke-dashoffset:0;stroke-opacity:1;visibility:visible"/><path d="M360.546 533.607a1.07 1.07 0 0 0-1.462-1.138M510.908 807.317a2.164 2.164 0 0 0 .919 1.777M134.888 972.675l375.77-169.849M511.004 803.034l-.347-.207M510.908 807.317l.096-4.284M139.39 983.074l-4.156-3.08" style="fill:none;stroke:red;stroke-width:.999997;stroke-linecap:round;stroke-linejoin:round;stroke-miterlimit:4;stroke-dasharray:none;stroke-opacity:1;visibility:visible"/><path d="M352.684 527.876 48.351 641.948" style="fill:none;stroke:red;stroke-width:1.99999;stroke-linecap:round;stroke-linejoin:round;stroke-miterlimit:4;stroke-dasharray:none;stroke-opacity:1;visibility:visible"/><path d="m123.453 983.758.33 1.484.771.946 1.129.508 1.354.071 1.776-.317 2.112-.68 1.852-.762 1.296-.636.859-.549.43-.545-.054-.178M521.843 641.672l.024.096-.508.377-.019.008" style="fill:none;stroke:red;stroke-width:.999997;stroke-linecap:round;stroke-linejoin:round;stroke-miterlimit:4;stroke-dasharray:none;stroke-opacity:1;visibility:visible"/><path d="M152.678 848.686c.408.36.858.676 1.346.944" style="fill:none;stroke:red;stroke-width:1.99999;stroke-linecap:round;stroke-linejoin:round;stroke-miterlimit:4;stroke-dasharray:none;stroke-opacity:1;visibility:visible"/><path d="M150.141 842.898a7.492 7.492 0 0 0 2.537 5.787" style="fill:none;stroke:red;stroke-width:.999997;stroke-linecap:round;stroke-linejoin:round;stroke-miterlimit:4;stroke-dasharray:none;stroke-opacity:1;visibility:visible"/><path d="M160.426 1029.067c.392.316.824.59 1.292.813M169.51 829.107a6.305 6.305 0 0 0-2.346-1.925" style="fill:none;stroke:red;stroke-width:1.99999;stroke-linecap:round;stroke-linejoin:round;stroke-miterlimit:4;stroke-dasharray:none;stroke-opacity:1;visibility:visible"/><path d="M157.978 1023.767a6.57 6.57 0 0 0 2.447 5.299" style="fill:none;stroke:red;stroke-width:.999997;stroke-linecap:round;stroke-linejoin:round;stroke-miterlimit:4;stroke-dasharray:none;stroke-opacity:1;visibility:visible"/><path d="m176.689 1009.87-.299-.341-.396-.382" style="fill:none;stroke:red;stroke-width:1.99999;stroke-linecap:round;stroke-linejoin:round;stroke-miterlimit:4;stroke-dasharray:none;stroke-opacity:1;visibility:visible"/><path d="m438.108 602.35-.158 66.17" style="fill:none;stroke:red;stroke-width:.999997;stroke-linecap:round;stroke-linejoin:round;stroke-miterlimit:4;stroke-dasharray:none;stroke-opacity:1;visibility:visible"/><path d="M435.163 774.293 162.689 889.779M438.108 688.574l-.158 66.17" style="fill:none;stroke:red;stroke-width:.666665;stroke-linecap:round;stroke-linejoin:round;stroke-miterlimit:4;stroke-dasharray:2.66666,2.66666;stroke-dashoffset:0;stroke-opacity:1;visibility:visible"/><path d="m135.229 979.91 376.598-170.815M114.021 892.347l1.513-.654M58.653 923.304l57.217-24.86M131.05 803.703l.11-.045M47.917 747.164l.11-.044M434.932 603.564l.058.03" style="fill:none;stroke:red;stroke-width:.999997;stroke-linecap:round;stroke-linejoin:round;stroke-miterlimit:4;stroke-dasharray:none;stroke-opacity:1;visibility:visible"/><path d="m360.936 699.078-.145-61.868" style="fill:none;stroke:red;stroke-width:.666665;stroke-linecap:round;stroke-linejoin:round;stroke-miterlimit:4;stroke-dasharray:2.66666,2.66666;stroke-dashoffset:0;stroke-opacity:1;visibility:visible"/><path d="M354.195 527.92a1.793 1.793 0 0 0-1.51-.044M352.684 527.876a.513.513 0 0 0-.432-.055" style="fill:none;stroke:red;stroke-width:1.99999;stroke-linecap:round;stroke-linejoin:round;stroke-miterlimit:4;stroke-dasharray:none;stroke-opacity:1;visibility:visible"/><path d="M82.712 882.32c-.023-.587-.516-.854-1.096-.59-.584.263-1.039.95-1.008 1.539.045 1.186-.056 1.209-1.11 1.688-.585.26-1.037.953-1.013 1.54.025.589.515.848 1.099.589 1.152-.521 1.16-.368 1.201.659.025.589.512.849 1.095.589.582-.264 1.034-.954 1.014-1.544-.057-1.09.058-1.256 1.108-1.7.583-.247 1.035-.95 1.012-1.537-.024-.591-.517-.856-1.1-.593-1.098.494-1.154.47-1.202-.641v.001M97.141 875.818c-.023-.583-.508-.848-1.081-.588-.58.261-1.032.95-1.01 1.531.045 1.187-.058 1.209-1.097 1.681-.577.261-1.029.944-1.007 1.527.024.591.507.85 1.086.593 1.142-.517 1.15-.364 1.185.658.025.586.513.85 1.09.587.576-.26 1.028-.942 1.001-1.526-.058-1.086.062-1.255 1.106-1.696.574-.246 1.02-.948.999-1.535-.02-.581-.503-.847-1.08-.585-1.09.489-1.148.464-1.192-.647M89.577 871.818c-.023-.584-.513-.853-1.09-.593-.585.26-1.039.949-1.012 1.537.042 1.188-.061 1.21-1.105 1.684-.58.256-1.036.948-1.017 1.534.024.589.521.855 1.1.595 1.148-.518 1.153-.357 1.195.666.02.588.514.848 1.097.585.575-.259 1.032-.944 1.007-1.53-.058-1.094.057-1.258 1.105-1.701.579-.243 1.03-.943 1.01-1.532-.027-.588-.516-.856-1.095-.594-1.096.49-1.151.457-1.195-.651M104.662 866.23c-.63.243-.676.068-.708-.852-.024-.58-.502-.853-1.082-.597-.574.257-1.019.944-1.002 1.532.046 1.18-.052 1.201-1.096 1.673-.577.259-1.024.941-1 1.527.021.589.501.857 1.079.593 1.141-.51 1.145-.356 1.184.667.024.585.504.852 1.077.592.578-.256 1.024-.942 1.002-1.527-.027-.544-.01-.859.142-1.09M82.122 867.494c-.02-.587-.517-.856-1.097-.6-.588.259-1.041.948-1.015 1.543.046 1.192-.056 1.218-1.11 1.683-.585.263-1.04.957-1.015 1.54.02.597.509.865 1.099.602 1.156-.513 1.166-.361 1.208.67.02.588.513.858 1.097.596.581-.258 1.041-.946 1.015-1.538-.06-1.1.058-1.268 1.112-1.704.578-.245 1.034-.947 1.012-1.54-.02-.592-.51-.861-1.099-.601-1.104.489-1.161.468-1.207-.651M96.586 861.051c-.024-.585-.508-.858-1.082-.601-.584.263-1.038.952-1.01 1.537.042 1.184-.061 1.211-1.103 1.679-.582.255-1.037.945-1.009 1.532.022.59.508.857 1.088.6 1.143-.516 1.152-.357 1.192.667.02.588.508.853 1.084.6.58-.262 1.03-.945 1.007-1.539-.052-1.088.061-1.25 1.11-1.692.574-.236 1.022-.943 1.002-1.53-.025-.584-.511-.854-1.083-.601-1.096.491-1.157.462-1.196-.653v.001M88.998 856.989c-.018-.59-.513-.859-1.09-.603-.583.252-1.043.945-1.014 1.539.042 1.193-.06 1.212-1.108 1.681-.585.256-1.04.952-1.018 1.541.026.593.52.859 1.104.6 1.15-.507 1.157-.356 1.197.678.021.59.513.855 1.093.602.582-.265 1.035-.952 1.015-1.545-.061-1.09.057-1.26 1.107-1.697.578-.239 1.036-.946 1.014-1.536-.02-.591-.516-.859-1.096-.603-1.1.488-1.162.463-1.204-.657M104.302 851.391c-.797.334-.852.212-.884-.781-.024-.592-.506-.871-1.085-.615-.579.258-1.027.947-1.005 1.536.046 1.187-.055 1.207-1.1 1.671-.576.256-1.028.944-1.003 1.528.019.595.505.867 1.085.605 1.14-.505 1.144-.352 1.182.672.02.593.51.858 1.08.607.581-.261 1.032-.944 1.006-1.53-.054-1.094.062-1.259 1.102-1.691M81.537 852.774c-.024-.593-.521-.861-1.11-.608-.584.26-1.036.95-1.014 1.544.048 1.196-.051 1.221-1.112 1.692-.585.256-1.045.948-1.017 1.541.025.595.516.863 1.102.607 1.16-.513 1.167-.352 1.212.676.02.593.515.865 1.098.608.586-.26 1.042-.953 1.02-1.545-.058-1.1.06-1.266 1.11-1.704.587-.242 1.042-.946 1.02-1.538-.02-.594-.518-.865-1.104-.609-1.1.484-1.164.46-1.205-.664M96.04 846.39c-.026-.593-.516-.867-1.095-.613-.577.258-1.037.949-1.01 1.537.045 1.193-.057 1.213-1.102 1.675-.587.26-1.035.941-1.016 1.54.027.59.51.864 1.096.604 1.147-.51 1.155-.35 1.195.677.02.595.51.864 1.092.604.577-.25 1.032-.944 1.005-1.528-.057-1.1.06-1.265 1.107-1.696.578-.236 1.034-.941 1.012-1.532-.027-.593-.512-.86-1.09-.61-1.1.487-1.157.456-1.194-.658M88.426 842.267c-.018-.596-.513-.87-1.09-.616-.587.256-1.043.95-1.016 1.54.038 1.203-.058 1.22-1.11 1.68-.588.256-1.042.951-1.02 1.542.02.597.515.866 1.102.612 1.156-.507 1.161-.351 1.201.685.023.592.517.864 1.099.604.585-.253 1.038-.94 1.017-1.533-.063-1.104.056-1.271 1.112-1.701.579-.238 1.035-.946 1.01-1.535-.023-.596-.518-.87-1.101-.611-1.093.481-1.15.448-1.203-.667h-.001M103.754 836.734c-.784.321-.837.19-.873-.803-.021-.596-.505-.869-1.084-.617-.579.255-1.032.943-1.012 1.533.047 1.194-.059 1.213-1.101 1.675-.578.25-1.03.936-1.012 1.533.026.592.514.863 1.092.611 1.144-.499 1.15-.348 1.184.684.026.59.512.863 1.092.61.578-.255 1.022-.938 1.002-1.532-.054-1.094.063-1.259 1.108-1.686M80.936 837.787c-.022-.596-.52-.872-1.104-.617-.59.252-1.047.948-1.022 1.543.047 1.201-.052 1.224-1.118 1.687-.582.258-1.039.95-1.016 1.542.024.596.517.876 1.104.62 1.162-.508 1.171-.352 1.211.69.029.592.521.868 1.107.61.587-.252 1.046-.944 1.022-1.544-.066-1.101.058-1.27 1.116-1.699.584-.241 1.041-.949 1.021-1.548-.027-.59-.519-.87-1.113-.614-1.104.486-1.164.457-1.208-.67M95.474 831.454c-.022-.599-.509-.876-1.096-.619-.577.251-1.033.945-1.008 1.531.044 1.201-.06 1.23-1.11 1.685-.582.252-1.036.94-1.016 1.536.028.591.516.868 1.101.616 1.15-.506 1.156-.343 1.196.688.02.595.512.87 1.095.615.574-.255 1.033-.939 1.01-1.536-.058-1.1.06-1.267 1.108-1.696.583-.24 1.036-.937 1.011-1.528-.021-.599-.51-.875-1.095-.624-1.096.48-1.157.455-1.196-.668M87.85 827.267c-.025-.597-.517-.873-1.102-.62-.588.25-1.043.943-1.023 1.537.05 1.205-.052 1.226-1.108 1.686-.581.256-1.047.945-1.021 1.541.022.6.517.88 1.106.622 1.156-.503 1.16-.347 1.204.693.027.596.52.874 1.1.621.584-.256 1.042-.946 1.02-1.544-.065-1.102.059-1.273 1.115-1.696.579-.24 1.036-.946 1.015-1.542-.023-.596-.519-.87-1.098-.616-1.106.473-1.165.445-1.208-.682M103.185 821.814c-.76.306-.812.17-.85-.824-.021-.591-.506-.873-1.089-.623-.578.251-1.031.935-1.008 1.531.042 1.202-.057 1.223-1.108 1.682-.577.246-1.029.934-1.009 1.526.024.597.513.875 1.09.624 1.154-.499 1.161-.345 1.192.693.027.595.51.87 1.089.62.58-.257 1.032-.936 1.01-1.533-.051-.987.039-1.224.815-1.568M80.346 822.923c-.026-.592-.528-.876-1.112-.623-.59.251-1.044.946-1.024 1.546.054 1.212-.05 1.232-1.114 1.687-.592.254-1.05.946-1.024 1.546.025.598.522.881 1.106.631 1.17-.507 1.18-.351 1.216.693.024.603.523.88 1.104.632.59-.26 1.052-.95 1.027-1.552-.059-1.109.061-1.278 1.121-1.703.587-.239 1.044-.947 1.024-1.55-.024-.593-.522-.872-1.109-.62-1.113.48-1.17.45-1.215-.687M94.92 816.65c-.026-.596-.515-.88-1.1-.63-.58.256-1.035.946-1.014 1.543.044 1.202-.058 1.223-1.11 1.679-.584.252-1.036.936-1.014 1.536.02.6.51.877 1.1.623 1.15-.496 1.158-.338 1.191.701.028.595.523.879 1.103.625.58-.252 1.034-.937 1.012-1.536-.055-1.108.062-1.271 1.112-1.694.584-.237 1.038-.947 1.016-1.54-.022-.592-.51-.877-1.096-.624-1.103.477-1.159.446-1.2-.683M87.27 812.405c-.02-.602-.517-.887-1.104-.635-.582.25-1.042.945-1.02 1.541.044 1.214-.056 1.229-1.114 1.684-.59.248-1.05.947-1.023 1.542.023.602.517.885 1.111.63 1.155-.5 1.158-.337 1.201.707.027.601.524.88 1.109.628.584-.252 1.043-.94 1.02-1.544-.06-1.113.058-1.275 1.118-1.704.582-.23 1.037-.937 1.016-1.533-.02-.598-.52-.882-1.099-.631-1.11.471-1.167.442-1.215-.686v.001M425.087 667.716c.008-.55-.363-.83-.825-.632-.468.196-.852.805-.86 1.353-.014 1.096-.096 1.116-.934 1.473-.466.202-.85.806-.854 1.352-.01.548.364.828.829.63.92-.398.917-.258.907.696-.008.546.358.826.829.624.461-.198.845-.8.851-1.348.004-1.012.1-1.159.94-1.494.468-.185.849-.8.856-1.344.004-.546-.364-.829-.828-.629-.88.375-.924.348-.911-.681M79.742 807.925c-.02-.6-.52-.887-1.112-.635-.588.25-1.046.943-1.02 1.547.047 1.21-.058 1.232-1.125 1.69-.591.253-1.048.943-1.025 1.547.028.599.524.888 1.116.63 1.166-.497 1.173-.337 1.217.714.025.6.521.882 1.11.632.588-.25 1.05-.947 1.027-1.547-.062-1.12.058-1.28 1.124-1.709.586-.233 1.046-.94 1.02-1.543-.022-.598-.524-.885-1.113-.637-1.115.479-1.167.447-1.219-.69v.001M425.276 654.052c.014-.553-.361-.833-.828-.64-.466.197-.85.803-.862 1.35-.01 1.108-.094 1.124-.938 1.481-.464.199-.848.805-.856 1.349-.002.553.368.83.834.636.922-.392.92-.248.904.708-.004.55.369.83.834.636.464-.202.847-.807.856-1.354.007-1.017.102-1.16.94-1.493.466-.187.852-.804.86-1.35.006-.542-.364-.829-.831-.63-.881.372-.922.339-.912-.693h-.001M407.927 654.553c.003-.553-.375-.837-.845-.639-.472.196-.859.807-.863 1.356-.013 1.116-.092 1.134-.952 1.49-.47.2-.86.807-.867 1.364-.005.55.371.834.848.636.932-.394.934-.248.922.716-.004.552.373.836.845.634.467-.196.856-.808.863-1.36.002-1.025.105-1.173.956-1.503.468-.181.853-.805.861-1.359.008-.55-.37-.839-.841-.639-.891.375-.938.347-.927-.696M419.63 649.624c.006-.544-.37-.835-.834-.64-.471.2-.857.805-.861 1.36-.015 1.106-.095 1.12-.945 1.475-.466.2-.856.805-.86 1.354-.007.552.366.84.837.639.927-.39.928-.244.915.715-.007.547.365.837.834.635.466-.192.848-.797.859-1.349.001-1.024.1-1.168.947-1.498.468-.182.848-.8.858-1.352.008-.548-.364-.836-.832-.638-.888.375-.934.34-.917-.701h-.001M402.036 650.201c.008-.556-.372-.838-.849-.644-.47.2-.865.815-.87 1.36-.011 1.119-.09 1.134-.951 1.496-.474.2-.866.81-.869 1.36-.007.557.376.847.852.648.935-.391.938-.247.929.72-.01.549.376.84.845.64.477-.2.867-.81.87-1.365-.001-1.028.097-1.176.959-1.507.469-.181.858-.805.868-1.365.006-.55-.372-.841-.85-.64-.894.376-.944.344-.934-.704v.001M413.803 645.279c.008-.552-.37-.842-.84-.643-.473.196-.863.804-.87 1.357-.006 1.115-.09 1.123-.943 1.48-.471.203-.855.81-.866 1.367-.004.545.37.837.844.636.932-.39.932-.246.922.717-.008.555.369.84.836.644.47-.197.86-.806.866-1.357-.004-1.027.099-1.175.946-1.5.472-.184.856-.808.864-1.356.01-.554-.368-.841-.839-.644-.89.372-.932.337-.92-.701M425.468 640.401c.007-.556-.366-.84-.832-.65-.466.201-.854.807-.864 1.359-.008 1.106-.096 1.122-.936 1.474-.47.199-.85.799-.86 1.352-.01.553.364.84.832.64.922-.387.92-.24.91.717-.003.555.367.839.834.644.464-.197.848-.802.858-1.353.004-1.024.098-1.165.942-1.494.466-.18.852-.802.858-1.347.008-.55-.366-.84-.832-.64-.88.367-.924.34-.91-.703v.001M408.083 640.612c.003-.552-.375-.844-.845-.645-.475.197-.86.805-.87 1.358-.01 1.118-.09 1.135-.948 1.487-.477.201-.865.812-.871 1.363-.004.553.373.845.845.648.94-.388.941-.243.929.722-.004.556.372.846.844.648.475-.202.861-.812.87-1.362-.001-1.031.097-1.181.95-1.504.473-.184.86-.807.868-1.36.005-.552-.37-.844-.847-.647-.892.367-.938.339-.925-.708M419.807 635.737c.01-.55-.367-.844-.839-.647-.465.191-.854.802-.856 1.351-.014 1.119-.098 1.13-.944 1.482-.472.197-.861.805-.868 1.357-.006.556.371.845.84.645.928-.384.93-.241.92.722-.011.552.362.84.832.649.468-.199.855-.801.858-1.356.005-1.028.104-1.173.95-1.5.471-.18.851-.797.862-1.35.005-.554-.367-.843-.836-.65-.883.373-.932.343-.92-.703h.001M390.292 641.121c.008-.558-.377-.856-.861-.654-.48.197-.873.817-.876 1.372-.012 1.129-.093 1.144-.957 1.497-.484.201-.879.817-.883 1.372-.003.561.383.852.864.65.95-.388.95-.244.94.735-.005.554.385.846.86.649.481-.201.87-.816.88-1.375-.005-1.039.09-1.18.961-1.517.482-.181.87-.81.875-1.366.005-.555-.379-.848-.857-.652-.908.377-.956.348-.946-.71v-.001M402.182 636.204c.006-.554-.378-.847-.852-.65-.475.196-.869.809-.871 1.366-.01 1.119-.092 1.132-.953 1.495-.476.192-.87.81-.876 1.365-.004.555.378.847.854.648.943-.39.944-.244.934.728-.008.553.374.847.85.647.475-.196.863-.807.872-1.363-.005-1.032.1-1.183.954-1.509.474-.179.865-.807.87-1.365.003-.551-.37-.845-.849-.651-.9.377-.948.345-.933-.71v-.001M413.972 631.332c.006-.547-.369-.844-.844-.65-.468.196-.856.804-.866 1.361-.014 1.117-.095 1.133-.947 1.485-.473.192-.864.804-.864 1.356-.01.555.37.845.843.653.933-.39.929-.244.921.723-.01.559.368.848.84.653.47-.198.861-.805.864-1.357-.003-1.036.101-1.18.95-1.504.468-.182.859-.8.871-1.357.004-.556-.374-.846-.846-.647-.888.364-.935.332-.922-.716M425.659 626.503c.003-.55-.363-.843-.837-.654-.468.196-.85.802-.858 1.354-.014 1.117-.094 1.125-.944 1.477-.465.195-.85.803-.857 1.353-.008.552.365.844.832.652.924-.388.925-.24.912.725-.005.55.363.843.83.647.47-.19.856-.8.866-1.35-.001-1.024.095-1.172.947-1.495.46-.176.848-.797.854-1.348.01-.55-.364-.847-.833-.65-.883.366-.928.339-.912-.712v.001M384.435 636.581c.001-.558-.384-.851-.867-.656-.482.195-.878.815-.88 1.372-.012 1.134-.093 1.146-.965 1.504-.483.2-.876.819-.881 1.379-.003.56.384.853.868.65.953-.391.954-.242.944.74-.006.56.385.854.865.657.487-.202.876-.82.881-1.384 0-1.034.098-1.186.967-1.516.483-.183.875-.811.88-1.374.003-.56-.381-.852-.864-.65-.91.367-.957.337-.948-.723v.001M396.386 631.672c.004-.56-.378-.855-.856-.659-.478.198-.871.81-.878 1.372-.008 1.127-.09 1.139-.96 1.492-.474.203-.87.81-.869 1.374-.008.559.376.853.85.654.952-.393.952-.244.944.73-.005.56.379.853.858.657.472-.199.868-.812.873-1.372 0-1.036.1-1.184.96-1.51.479-.18.87-.81.879-1.37.001-.557-.385-.852-.857-.653-.908.37-.955.34-.944-.715M408.236 626.801c.007-.553-.37-.846-.842-.654-.479.196-.867.805-.874 1.36-.012 1.123-.089 1.136-.95 1.489-.48.194-.863.808-.871 1.36-.008.56.37.856.847.654.941-.386.938-.235.928.735-.007.556.373.85.845.656.473-.194.867-.806.87-1.364.001-1.033.101-1.177.956-1.505.474-.179.861-.805.865-1.359.009-.558-.367-.85-.84-.657-.896.368-.944.34-.934-.716v.001M419.988 621.976c.007-.556-.372-.85-.838-.656-.472.191-.858.796-.866 1.353-.016 1.119-.096 1.134-.948 1.482-.466.194-.856.798-.862 1.357-.011.555.368.847.836.655.93-.383.93-.24.922.73-.01.55.364.846.836.653.467-.194.856-.799.864-1.355.006-1.031.1-1.182.948-1.5.472-.18.855-.798.862-1.351.008-.555-.367-.847-.834-.657-.888.368-.934.333-.92-.711M378.388 632.116c.007-.563-.382-.86-.868-.663-.485.198-.88.812-.884 1.378-.008 1.134-.088 1.153-.972 1.508-.484.204-.88.818-.882 1.38-.006.565.388.86.87.661.966-.393.966-.243.955.735-.003.565.387.858.873.66.484-.195.88-.815.88-1.38-.002-1.045.1-1.193.98-1.519.48-.184.878-.817.882-1.377.001-.562-.392-.86-.872-.666-.92.375-.968.35-.962-.717M390.41 627.204c.002-.557-.38-.855-.862-.657-.482.192-.874.81-.882 1.373-.006 1.125-.092 1.145-.962 1.497-.478.198-.874.814-.878 1.375 0 .561.384.856.862.66.954-.39.954-.239.946.737-.004.558.382.854.86.656.482-.195.874-.81.88-1.372-.004-1.043.1-1.188.962-1.516.484-.182.876-.812.884-1.374.002-.553-.382-.853-.865-.656-.912.372-.956.34-.945-.723M402.323 622.343c.005-.56-.375-.856-.85-.663-.481.19-.872.808-.881 1.37-.012 1.126-.088 1.14-.952 1.492-.473.193-.868.809-.874 1.368-.007.557.377.85.856.658.941-.384.941-.241.93.73-.008.562.379.853.858.657.472-.195.864-.8.87-1.359 0-1.04.102-1.19.956-1.51.479-.177.87-.804.875-1.361.004-.562-.373-.861-.85-.665-.903.37-.955.339-.939-.717h.001M414.136 617.516c.008-.557-.37-.85-.842-.656-.471.19-.864.8-.87 1.357-.012 1.12-.094 1.136-.95 1.488-.476.195-.864.802-.87 1.359-.004.556.37.85.848.656.935-.383.932-.233.924.733-.008.558.371.852.842.659.472-.199.862-.8.865-1.357.001-1.035.104-1.182.955-1.506.472-.172.86-.796.868-1.353.002-.552-.371-.85-.846-.66-.888.364-.937.334-.924-.72M425.852 612.732c.006-.553-.37-.845-.84-.657-.465.192-.852.794-.862 1.354-.016 1.118-.095 1.132-.946 1.478-.468.19-.852.798-.86 1.352-.004.56.367.854.836.66.927-.38.926-.234.912.731-.008.555.368.853.836.658.468-.19.858-.8.863-1.355.001-1.028.099-1.173.949-1.492.466-.177.853-.797.86-1.353.008-.55-.367-.845-.832-.656-.889.361-.931.335-.916-.72M146.556 950.142c-.014-.575-.502-.823-1.09-.55-.592.276-1.058.963-1.045 1.544.025 1.166-.077 1.188-1.144 1.687-.588.272-1.057.964-1.044 1.543.013.577.5.82 1.088.55 1.167-.546 1.17-.394 1.193.614.012.58.499.822 1.084.552.594-.276 1.062-.967 1.05-1.548-.036-1.07.084-1.236 1.145-1.7.59-.26 1.057-.964 1.047-1.542-.014-.578-.5-.825-1.091-.55-1.112.513-1.17.492-1.193-.6M161.185 943.346c-.01-.572-.495-.82-1.077-.548-.588.272-1.058.964-1.046 1.536.023 1.165-.082 1.19-1.136 1.682-.59.275-1.056.96-1.045 1.536.009.58.493.823 1.079.552 1.158-.54 1.165-.386 1.18.618.016.576.498.824 1.088.545.58-.27 1.045-.957 1.036-1.532-.036-1.068.086-1.235 1.145-1.7.584-.257 1.048-.961 1.037-1.539-.01-.572-.492-.818-1.076-.545-1.105.51-1.165.489-1.185-.605M175.72 936.596c-.006-.574-.486-.824-1.07-.554-.584.27-1.048.958-1.038 1.53.02 1.164-.082 1.19-1.135 1.68-.581.266-1.048.955-1.039 1.532.01.572.486.822 1.07.551 1.157-.539 1.162-.388 1.177.615.008.578.485.822 1.064.552.584-.27 1.051-.956 1.045-1.532-.034-1.067.087-1.234 1.138-1.695.58-.253 1.045-.955 1.034-1.53-.005-.57-.486-.817-1.068-.549-1.098.509-1.161.487-1.177-.6h-.001M190.168 929.883c-.003-.576-.48-.82-1.06-.556-.576.27-1.04.959-1.031 1.53.015 1.161-.084 1.181-1.133 1.672-.582.267-1.042.955-1.034 1.527.007.575.483.82 1.063.552 1.143-.533 1.15-.384 1.165.62.002.573.482.817 1.054.552.582-.273 1.044-.954 1.037-1.528-.029-1.068.09-1.232 1.136-1.689.577-.253 1.04-.95 1.03-1.523-.005-.576-.479-.826-1.056-.556-1.095.508-1.155.486-1.171-.6v-.001M204.53 923.218c-.005-.573-.48-.825-1.053-.559-.577.267-1.03.951-1.03 1.525.01 1.152-.087 1.178-1.127 1.664-.58.268-1.034.952-1.03 1.52.006.572.477.819 1.051.553 1.141-.527 1.145-.379 1.153.621.008.57.477.821 1.05.554.574-.268 1.038-.95 1.033-1.522-.029-1.064.093-1.227 1.134-1.679.57-.253 1.03-.948 1.027-1.523-.008-.571-.477-.822-1.05-.552-1.088.5-1.148.48-1.158-.602M218.802 916.586c-.002-.573-.47-.824-1.042-.561-.577.272-1.033.952-1.027 1.522.012 1.15-.088 1.178-1.124 1.663-.567.259-1.03.94-1.024 1.51.004.574.47.824 1.042.558 1.135-.528 1.136-.378 1.146.622.001.57.467.818 1.037.553.576-.268 1.032-.944 1.028-1.519-.023-1.057.096-1.223 1.127-1.674.573-.25 1.034-.947 1.03-1.518-.005-.57-.469-.819-1.044-.555-1.08.504-1.138.479-1.149-.601M232.987 909.998c-.005-.572-.469-.823-1.037-.558-.56.263-1.02.945-1.02 1.509.007 1.154-.09 1.178-1.116 1.651-.572.269-1.03.947-1.028 1.519.004.571.467.821 1.044.555 1.115-.524 1.12-.37 1.125.623.005.572.467.818 1.038.553.565-.269 1.022-.94 1.02-1.512-.024-1.06.1-1.221 1.125-1.673.564-.246 1.02-.935 1.019-1.507-.004-.573-.47-.821-1.03-.559-1.072.501-1.136.476-1.14-.601M247.086 903.446c-.003-.57-.465-.82-1.025-.557-.563.261-1.022.938-1.021 1.508.005 1.149-.09 1.168-1.114 1.648-.564.26-1.019.94-1.02 1.51.004.566.464.818 1.03.555 1.114-.523 1.119-.372 1.119.62.004.571.465.82 1.029.556.562-.261 1.018-.933 1.013-1.504-.012-1.057.103-1.223 1.123-1.667.562-.245 1.023-.941 1.015-1.505.003-.573-.461-.82-1.021-.56-1.065.493-1.127.473-1.128-.604M153.654 939.62c-.01-.577-.497-.827-1.084-.557-.59.273-1.06.967-1.046 1.548.02 1.165-.084 1.19-1.146 1.685-.585.268-1.054.964-1.048 1.54.012.577.504.825 1.091.554 1.164-.544 1.167-.386 1.188.62.01.577.499.822 1.09.548.582-.27 1.054-.959 1.039-1.536-.032-1.074.087-1.24 1.149-1.704.585-.255 1.054-.959 1.043-1.539-.013-.579-.5-.827-1.085-.552-1.112.513-1.167.484-1.19-.607h-.001M168.254 932.862c-.01-.576-.488-.83-1.077-.559-.585.27-1.05.96-1.039 1.537.022 1.163-.08 1.191-1.137 1.686-.591.27-1.055.954-1.044 1.532.012.58.49.83 1.077.556 1.159-.536 1.16-.386 1.18.62.012.576.492.826 1.076.553.584-.27 1.049-.957 1.039-1.533-.032-1.074.088-1.24 1.148-1.699.576-.252 1.043-.955 1.035-1.535-.012-.573-.49-.822-1.08-.553-1.099.507-1.157.487-1.177-.605h-.001M182.769 926.142c-.012-.574-.484-.827-1.069-.558-.58.27-1.047.956-1.042 1.536.02 1.16-.082 1.184-1.133 1.67-.58.27-1.045.96-1.033 1.53.006.582.485.83 1.065.56 1.15-.536 1.155-.38 1.168.622.01.574.49.82 1.07.554.579-.272 1.041-.956 1.032-1.53-.027-1.074.093-1.234 1.141-1.694.581-.252 1.046-.952 1.039-1.528-.009-.576-.487-.824-1.066-.558-1.101.512-1.161.488-1.172-.604M197.189 919.467c-.005-.576-.479-.824-1.057-.56-.58.27-1.04.955-1.034 1.53.015 1.156-.088 1.186-1.13 1.669-.58.266-1.043.952-1.036 1.524.006.577.48.826 1.058.557 1.147-.53 1.147-.377 1.162.623.008.573.482.825 1.06.557.575-.27 1.041-.956 1.031-1.527-.027-1.062.089-1.23 1.135-1.688.574-.249 1.039-.95 1.03-1.519-.01-.576-.48-.831-1.056-.562-1.089.506-1.147.485-1.163-.605v.001M211.523 912.83c-.005-.576-.473-.827-1.045-.56-.573.263-1.037.952-1.032 1.52.014 1.16-.088 1.181-1.13 1.664-.569.27-1.033.953-1.028 1.524.006.575.477.824 1.049.555 1.136-.523 1.141-.375 1.152.626.006.568.478.824 1.05.554.571-.263 1.031-.946 1.023-1.518-.019-1.061.099-1.225 1.138-1.681.57-.25 1.026-.947 1.025-1.519-.006-.574-.475-.825-1.047-.557-1.084.501-1.143.476-1.155-.608M225.766 906.234c.004-.57-.468-.824-1.036-.56-.573.261-1.028.945-1.028 1.515.01 1.158-.084 1.178-1.124 1.66-.57.267-1.025.943-1.025 1.517.005.572.473.819 1.042.557 1.132-.52 1.135-.373 1.142.627.005.57.466.824 1.04.557.57-.266 1.028-.945 1.022-1.516-.019-1.061.096-1.226 1.128-1.676.576-.245 1.03-.944 1.027-1.517-.004-.568-.47-.819-1.039-.558-1.08.5-1.135.474-1.149-.606M239.93 899.674c-.005-.57-.468-.82-1.03-.555-.57.262-1.026.941-1.023 1.511.006 1.149-.089 1.178-1.119 1.653-.572.263-1.023.936-1.023 1.511.006.572.465.824 1.035.556 1.121-.517 1.121-.364 1.13.63.001.57.46.82 1.025.556.568-.259 1.025-.937 1.021-1.509-.016-1.057.105-1.225 1.124-1.672.568-.244 1.024-.934 1.024-1.51-.004-.566-.464-.82-1.034-.558-1.065.495-1.127.473-1.13-.613M146.256 935.58c-.012-.58-.504-.829-1.091-.56-.595.27-1.063.962-1.05 1.543.025 1.173-.079 1.201-1.146 1.693-.593.274-1.063.968-1.049 1.544.013.582.497.835 1.092.558 1.168-.538 1.176-.39 1.197.625.01.577.499.827 1.088.553.59-.269 1.063-.96 1.05-1.544-.039-1.077.083-1.246 1.15-1.706.588-.256 1.059-.962 1.045-1.544-.01-.58-.496-.83-1.09-.559-1.116.515-1.174.493-1.196-.603M160.92 928.81c-.011-.576-.495-.83-1.082-.558-.586.272-1.058.968-1.044 1.543.022 1.165-.084 1.195-1.141 1.685-.595.27-1.06.96-1.045 1.54.006.58.489.83 1.08.56 1.161-.54 1.167-.388 1.187.62.009.58.495.827 1.081.558.586-.27 1.052-.958 1.042-1.542-.032-1.073.086-1.236 1.148-1.7.587-.25 1.052-.96 1.044-1.536-.013-.577-.496-.829-1.078-.564-1.114.518-1.174.492-1.192-.606M175.493 922.087c-.003-.58-.49-.83-1.073-.561-.582.268-1.046.959-1.038 1.536.019 1.165-.08 1.192-1.141 1.68-.585.267-1.047.958-1.041 1.536.013.578.49.828 1.076.557 1.154-.53 1.162-.377 1.174.63.01.573.49.825 1.07.553.587-.267 1.053-.955 1.045-1.531-.032-1.073.087-1.241 1.143-1.696.58-.255 1.048-.957 1.04-1.536-.009-.574-.489-.83-1.071-.558-1.105.505-1.163.485-1.184-.61M189.977 915.405c-.005-.576-.479-.828-1.06-.566-.583.268-1.044.958-1.037 1.538.014 1.16-.083 1.188-1.135 1.668-.581.272-1.045.957-1.04 1.534.012.576.49.826 1.07.559 1.147-.532 1.148-.378 1.164.627.009.575.487.825 1.062.557.579-.265 1.045-.952 1.039-1.53-.03-1.068.09-1.232 1.136-1.689.577-.253 1.044-.953 1.036-1.528-.01-.573-.483-.83-1.058-.564-1.101.506-1.158.489-1.177-.606M204.377 908.762c-.008-.576-.48-.83-1.055-.563-.577.266-1.039.951-1.032 1.524.01 1.167-.09 1.188-1.132 1.67-.577.267-1.037.95-1.032 1.525.007.575.476.828 1.056.559 1.14-.523 1.144-.371 1.158.633.007.572.474.825 1.05.559.573-.267 1.04-.952 1.032-1.529-.025-1.065.098-1.231 1.139-1.685.573-.245 1.033-.948 1.025-1.521-.005-.576-.473-.828-1.046-.56-1.094.501-1.153.476-1.163-.612M218.686 902.158c-.005-.575-.472-.824-1.048-.559-.573.262-1.035.948-1.027 1.518.006 1.162-.089 1.185-1.13 1.662-.572.268-1.032.951-1.031 1.522.01.574.481.829 1.048.562 1.14-.525 1.14-.372 1.15.63.007.577.468.827 1.046.559.575-.265 1.029-.945 1.025-1.517-.019-1.068.096-1.233 1.134-1.678.574-.254 1.032-.947 1.026-1.52-.005-.575-.472-.832-1.044-.567-1.084.503-1.138.476-1.149-.612M153.368 925.035c-.008-.58-.499-.832-1.083-.563-.592.268-1.065.964-1.052 1.548.02 1.172-.081 1.195-1.147 1.687-.589.27-1.062.965-1.05 1.547.013.582.504.83 1.096.558 1.165-.534 1.17-.385 1.188.631.011.58.5.83 1.089.561.588-.277 1.057-.966 1.047-1.55-.039-1.074.086-1.244 1.152-1.704.584-.252 1.057-.962 1.045-1.543-.01-.583-.499-.832-1.088-.561-1.115.513-1.176.49-1.197-.61v-.001M168.01 918.307c-.012-.582-.49-.84-1.082-.57-.586.271-1.052.966-1.043 1.546.023 1.167-.077 1.191-1.14 1.682-.588.269-1.055.96-1.043 1.537.01.584.492.837 1.08.563 1.159-.535 1.162-.381 1.179.628.009.582.496.831 1.077.564.592-.275 1.058-.961 1.046-1.541-.035-1.073.088-1.24 1.145-1.698.587-.252 1.048-.956 1.041-1.535-.006-.583-.488-.84-1.073-.565-1.108.507-1.17.484-1.187-.61v-.001M182.556 911.617c-.008-.58-.483-.838-1.067-.57-.584.27-1.05.959-1.043 1.538.019 1.168-.084 1.19-1.141 1.677-.58.268-1.043.956-1.032 1.535.007.578.484.828 1.07.562 1.147-.532 1.152-.379 1.168.631.011.579.491.833 1.073.56.584-.267 1.044-.953 1.036-1.532-.027-1.073.09-1.243 1.145-1.699.579-.248 1.048-.949 1.04-1.533-.008-.573-.492-.827-1.07-.559-1.104.504-1.161.48-1.181-.61h.002M197.016 904.966c0-.58-.483-.833-1.058-.57-.58.266-1.042.956-1.038 1.532.017 1.162-.086 1.192-1.135 1.677-.577.262-1.043.95-1.036 1.525.011.579.485.832 1.063.564 1.146-.53 1.15-.375 1.16.636.01.57.486.827 1.065.559.575-.262 1.043-.951 1.035-1.53-.028-1.076.093-1.238 1.137-1.689.579-.25 1.04-.946 1.035-1.524-.008-.579-.482-.832-1.06-.568-1.094.505-1.147.479-1.167-.612h-.001M145.957 921.109c-.01-.58-.503-.831-1.1-.563-.59.272-1.057.968-1.047 1.55.024 1.174-.076 1.201-1.15 1.694-.591.271-1.064.966-1.05 1.55.014.582.5.832 1.095.563 1.17-.537 1.175-.383 1.2.63.008.583.501.835 1.09.566.595-.275 1.067-.969 1.055-1.551-.038-1.085.082-1.25 1.149-1.713.591-.253 1.061-.959 1.054-1.542-.013-.587-.503-.838-1.099-.567-1.114.51-1.174.49-1.197-.617M160.66 914.374c-.012-.584-.5-.837-1.088-.57-.588.276-1.06.966-1.047 1.548.02 1.174-.085 1.198-1.145 1.685-.592.272-1.056.96-1.05 1.546.016.583.497.837 1.09.562 1.164-.535 1.169-.381 1.186.633.012.585.499.836 1.088.562.588-.267 1.059-.961 1.043-1.54-.037-1.08.09-1.245 1.152-1.704.585-.251 1.056-.959 1.045-1.543-.01-.583-.496-.831-1.084-.566-1.116.514-1.172.484-1.19-.613M175.27 907.677c-.01-.583-.492-.835-1.076-.567-.586.268-1.053.956-1.041 1.537.019 1.175-.085 1.198-1.145 1.684-.588.27-1.054.959-1.043 1.539.01.579.49.833 1.08.565 1.153-.53 1.159-.377 1.18.63.007.585.488.837 1.07.57.584-.271 1.052-.956 1.044-1.54-.031-1.078.089-1.241 1.146-1.704.587-.244 1.052-.95 1.041-1.53-.01-.575-.49-.833-1.073-.567-1.104.506-1.165.483-1.183-.617M189.79 901.025c-.002-.585-.484-.84-1.065-.572-.585.266-1.047.954-1.037 1.53.014 1.174-.084 1.198-1.143 1.68-.579.267-1.047.957-1.036 1.538.01.576.488.833 1.07.564 1.151-.528 1.155-.375 1.167.633.009.581.484.832 1.069.565.576-.263 1.041-.948 1.035-1.53-.026-1.075.088-1.243 1.14-1.696.582-.252 1.049-.951 1.038-1.53-.006-.581-.484-.832-1.063-.566-1.101.499-1.156.473-1.175-.616M153.086 910.55c-.008-.587-.5-.841-1.086-.573-.595.27-1.066.968-1.052 1.55.017 1.183-.082 1.203-1.148 1.69-.595.27-1.067.969-1.055 1.549.01.587.5.839 1.096.568 1.168-.534 1.169-.38 1.193.639.012.582.502.837 1.091.562.595-.268 1.063-.96 1.052-1.545-.04-1.083.083-1.252 1.15-1.708.592-.253 1.063-.965 1.051-1.545-.011-.588-.504-.838-1.093-.568-1.115.509-1.172.48-1.199-.62v.001M167.765 903.845c-.01-.587-.493-.843-1.08-.576-.588.271-1.059.965-1.05 1.546.021 1.176-.081 1.198-1.144 1.69-.589.265-1.057.954-1.047 1.542.012.584.496.835 1.085.568 1.161-.53 1.164-.381 1.179.638.014.582.5.836 1.086.567.59-.267 1.054-.955 1.043-1.54-.035-1.081.088-1.25 1.15-1.703.588-.257 1.056-.957 1.047-1.54-.009-.587-.494-.842-1.08-.574-1.11.507-1.17.48-1.19-.618h.001M182.346 897.183c-.005-.582-.484-.843-1.07-.572-.583.263-1.052.952-1.044 1.539.02 1.175-.08 1.196-1.14 1.676-.582.267-1.049.959-1.039 1.54.004.584.487.836 1.072.572 1.15-.53 1.159-.378 1.172.637.01.585.49.838 1.076.57.581-.267 1.047-.955 1.041-1.533-.03-1.086.088-1.251 1.14-1.706.587-.248 1.056-.953 1.048-1.53-.01-.583-.492-.844-1.076-.576-1.101.507-1.156.48-1.18-.617M145.653 906.377c-.01-.588-.507-.843-1.097-.574-.598.268-1.068.964-1.056 1.55.025 1.183-.076 1.21-1.154 1.699-.589.269-1.06.968-1.052 1.548.012.586.503.847 1.1.575 1.176-.537 1.179-.382 1.199.64.016.585.504.84 1.099.568.592-.268 1.068-.963 1.053-1.552-.043-1.084.084-1.254 1.156-1.71.59-.255 1.064-.967 1.055-1.554-.014-.581-.504-.842-1.106-.57-1.116.515-1.174.486-1.197-.619v-.001M160.392 899.667c-.01-.587-.496-.846-1.092-.576-.584.267-1.06.967-1.046 1.546.02 1.18-.084 1.21-1.15 1.693-.589.27-1.059.964-1.049 1.55.015.581.497.84 1.091.57 1.166-.535 1.172-.376 1.19.64.011.587.499.843 1.09.572.586-.27 1.059-.959 1.049-1.548-.039-1.084.085-1.25 1.148-1.707.591-.256 1.063-.96 1.05-1.542-.01-.588-.496-.845-1.088-.578-1.115.51-1.175.487-1.193-.62M152.804 895.787c-.011-.585-.502-.845-1.094-.573-.594.265-1.068.963-1.057 1.548.024 1.184-.08 1.21-1.15 1.697-.589.271-1.069.967-1.054 1.552.011.59.5.849 1.099.575 1.17-.53 1.172-.379 1.194.644.015.587.503.843 1.095.577.59-.27 1.065-.966 1.052-1.554-.04-1.086.088-1.258 1.16-1.71.585-.253 1.06-.963 1.05-1.553-.015-.585-.506-.84-1.095-.57-1.119.506-1.178.479-1.2-.632v-.001M145.35 891.758c-.013-.584-.51-.845-1.1-.578-.598.27-1.072.967-1.06 1.555.03 1.192-.076 1.218-1.152 1.702-.598.269-1.072.965-1.056 1.556.012.587.508.847 1.098.58 1.18-.533 1.188-.379 1.208.647.009.593.504.847 1.094.583.596-.273 1.072-.968 1.06-1.558-.038-1.095.086-1.265 1.158-1.72.594-.253 1.068-.963 1.057-1.555-.01-.587-.505-.845-1.099-.577-1.128.509-1.184.482-1.208-.635M152.517 881.155c-.01-.59-.501-.855-1.095-.588-.594.27-1.072.97-1.056 1.554.02 1.196-.084 1.216-1.154 1.699-.596.267-1.074.968-1.059 1.558.012.588.503.852 1.101.581 1.178-.534 1.176-.372 1.198.655.01.59.505.85 1.098.581.594-.27 1.068-.961 1.056-1.554-.036-1.095.084-1.261 1.159-1.721.592-.245 1.064-.958 1.055-1.546-.01-.588-.506-.854-1.095-.587-1.124.507-1.181.479-1.208-.632M145.044 877c-.012-.586-.51-.852-1.106-.582-.594.264-1.07.964-1.056 1.556.024 1.193-.082 1.216-1.16 1.703-.6.269-1.072.969-1.06 1.562.016.588.508.854 1.108.581 1.179-.53 1.184-.374 1.206.661.014.589.504.853 1.1.586.598-.27 1.073-.97 1.062-1.562-.041-1.098.084-1.265 1.163-1.722.593-.25 1.07-.963 1.057-1.556-.01-.587-.51-.853-1.105-.587-1.128.51-1.184.481-1.21-.639l.001-.001M502.295 716.636c.021-.564-.375-.832-.883-.608-.51.232-.941.874-.961 1.437-.047 1.13-.132 1.15-1.061 1.567-.507.23-.942.873-.96 1.436-.021.56.373.832.886.602 1.01-.456 1.005-.308.968.672-.023.563.373.835.883.603.508-.232.938-.868.961-1.435.033-1.04.139-1.194 1.06-1.578.512-.215.939-.874.963-1.435.018-.563-.371-.836-.878-.608-.969.437-1.017.405-.978-.653M496.123 712.541c.021-.57-.375-.837-.89-.607-.512.226-.943.871-.965 1.434-.044 1.141-.13 1.158-1.06 1.572-.513.229-.943.874-.964 1.44-.023.565.377.837.892.602 1.014-.452 1.005-.302.97.678-.019.569.378.838.89.606.509-.224.941-.869.967-1.434.024-1.046.133-1.202 1.057-1.59.515-.212.945-.872.97-1.432.02-.565-.378-.838-.89-.611-.967.434-1.016.404-.977-.657v-.001M508.841 706.852c.026-.567-.371-.836-.881-.61-.511.228-.94.868-.968 1.434-.041 1.137-.13 1.156-1.055 1.569-.507.227-.937.872-.96 1.432-.02.568.375.835.884.607 1.009-.454 1.004-.304.96.676-.018.566.376.836.884.609.511-.23.943-.873.965-1.432.031-1.048.14-1.201 1.054-1.587.512-.216.945-.872.968-1.433.021-.559-.372-.832-.881-.604-.967.43-1.011.4-.971-.661h.001M144.741 862.246c-.01-.597-.51-.865-1.107-.596-.602.264-1.078.968-1.062 1.557.024 1.204-.079 1.228-1.162 1.71-.6.27-1.076.969-1.062 1.563.014.595.506.863 1.108.593 1.178-.526 1.189-.367 1.21.666.011.595.51.862 1.104.592.599-.264 1.078-.966 1.063-1.561-.041-1.104.083-1.27 1.164-1.721.599-.254 1.072-.969 1.063-1.563-.014-.595-.511-.861-1.108-.593-1.132.504-1.192.477-1.212-.647h.001M477.235 714.034c.02-.568-.386-.838-.905-.61-.511.228-.955.881-.974 1.446-.036 1.144-.125 1.167-1.061 1.582-.522.228-.958.881-.978 1.446-.017.572.384.839.904.608 1.023-.456 1.02-.305.987.682-.023.569.384.841.902.605.52-.23.954-.877.971-1.439.023-1.057.136-1.21 1.072-1.604.514-.211.95-.873.97-1.444.022-.561-.383-.832-.903-.61-.976.442-1.027.41-.985-.662M490.073 708.31c.02-.566-.38-.84-.893-.608-.512.224-.948.875-.968 1.438-.042 1.144-.128 1.16-1.061 1.576-.515.229-.951.874-.971 1.444-.022.564.38.834.896.608 1.016-.455 1.014-.306.976.681-.019.565.381.837.896.608.508-.228.944-.877.967-1.443.028-1.048.142-1.206 1.068-1.59.51-.211.942-.872.965-1.439.024-.567-.377-.844-.892-.61-.97.431-1.02.407-.983-.665M502.841 702.617c.022-.56-.377-.837-.884-.612-.512.23-.945.875-.967 1.441-.04 1.136-.13 1.156-1.058 1.566-.51.23-.948.874-.967 1.438-.02.568.378.842.89.608 1.013-.45 1.01-.3.97.683-.022.567.375.84.886.608.508-.221.939-.865.964-1.433.028-1.048.138-1.202 1.061-1.586.515-.214.941-.869.967-1.436.022-.564-.375-.838-.886-.61-.97.433-1.02.402-.976-.667M470.94 709.897c.02-.568-.385-.844-.906-.612-.515.232-.959.881-.976 1.452-.041 1.145-.128 1.164-1.066 1.581-.519.232-.96.882-.972 1.45-.02.569.384.844.907.612 1.026-.456 1.021-.306.986.686-.016.57.387.844.907.61.523-.234.956-.882.973-1.447.022-1.059.137-1.213 1.077-1.601.514-.215.953-.878.97-1.45.019-.566-.384-.841-.903-.614-.985.438-1.029.413-.997-.667M483.836 704.172c.02-.568-.38-.843-.899-.614-.516.23-.954.883-.973 1.443-.037 1.145-.127 1.165-1.06 1.58-.519.233-.956.879-.974 1.444-.02.57.383.843.901.613 1.018-.45 1.014-.301.981.687-.02.567.384.844.898.61.517-.228.951-.873.973-1.442.021-1.055.133-1.211 1.07-1.596.507-.216.943-.875.97-1.448.02-.564-.382-.841-.9-.608-.973.433-1.026.404-.987-.67v.001M496.656 698.477c.025-.567-.375-.84-.89-.612-.516.227-.949.87-.97 1.441-.041 1.142-.129 1.156-1.061 1.571-.512.23-.943.879-.968 1.445-.023.564.376.844.893.61 1.017-.452 1.013-.303.975.684-.02.568.378.842.888.614.514-.229.947-.874.972-1.438.022-1.052.137-1.21 1.058-1.594.518-.214.95-.873.97-1.44.024-.564-.378-.84-.888-.61-.97.43-1.018.397-.979-.67v-.001M509.403 692.818c.022-.568-.374-.84-.886-.618-.509.23-.944.874-.97 1.44-.039 1.14-.13 1.16-1.052 1.57-.512.227-.942.866-.966 1.435-.024.57.374.841.886.61 1.01-.45 1.004-.299.965.686-.02.571.376.841.884.615.512-.23.943-.87.966-1.436.031-1.05.141-1.206 1.06-1.587.51-.21.945-.87.965-1.433.021-.566-.375-.843-.885-.614-.961.43-1.01.404-.967-.668M477.732 699.708c.016-.57-.39-.848-.905-.619-.518.231-.958.883-.978 1.451-.038 1.149-.129 1.17-1.068 1.582-.52.231-.953.886-.977 1.454-.013.564.388.841.907.612 1.029-.456 1.019-.303.988.689-.023.57.39.844.908.617.516-.236.95-.878.968-1.45.03-1.059.14-1.216 1.075-1.6.518-.215.955-.88.974-1.45.024-.566-.384-.844-.9-.616-.98.436-1.034.406-.992-.67M490.601 694.01c.022-.569-.381-.844-.893-.616-.521.227-.95.876-.973 1.443-.043 1.144-.128 1.165-1.063 1.577-.52.234-.952.878-.975 1.447-.017.567.38.845.9.616 1.019-.452 1.014-.303.977.688-.018.57.382.847.895.616.518-.23.951-.877.974-1.444.025-1.055.137-1.215 1.067-1.595.513-.214.946-.874.969-1.44.021-.571-.379-.849-.896-.618-.97.426-1.023.402-.983-.674h.001M503.397 688.348c.026-.568-.374-.846-.889-.619-.51.227-.945.872-.964 1.437-.044 1.147-.134 1.167-1.06 1.575-.514.23-.95.876-.97 1.443-.024.568.376.844.888.616 1.017-.45 1.013-.304.977.686-.024.57.37.844.881.62.513-.229.945-.869.967-1.44.032-1.054.142-1.21 1.065-1.593.516-.212.943-.868.968-1.436.021-.567-.375-.844-.888-.62-.965.433-1.016.405-.975-.67v.001M458.426 701.256c.02-.57-.391-.85-.916-.62-.522.232-.962.884-.983 1.457-.032 1.155-.121 1.173-1.07 1.592-.527.23-.967.885-.983 1.455-.018.577.396.852.918.62 1.036-.456 1.03-.306 1 .693-.018.575.394.852.914.619.524-.232.964-.884.98-1.458.023-1.062.134-1.218 1.083-1.608.518-.214.961-.885.975-1.456.022-.569-.388-.848-.91-.62-.987.436-1.044.408-1.008-.674M471.425 695.524c.023-.57-.385-.852-.905-.62-.521.228-.961.882-.98 1.452-.039 1.156-.128 1.176-1.068 1.586-.521.232-.961.883-.977 1.451-.02.575.387.853.908.62 1.03-.452 1.026-.303.993.697-.02.57.39.846.907.615.522-.232.956-.879.981-1.45.019-1.064.128-1.214 1.07-1.607.521-.214.958-.878.979-1.448.017-.569-.389-.849-.908-.62-.985.436-1.035.406-1-.676M484.35 689.825c.02-.57-.382-.847-.9-.621-.516.23-.957.88-.974 1.45-.041 1.15-.129 1.167-1.067 1.584-.517.226-.956.878-.976 1.447-.018.57.387.848.9.619 1.027-.455 1.024-.304.988.692-.02.57.383.848.9.614.519-.226.954-.874.974-1.44.021-1.06.138-1.22 1.068-1.605.517-.211.953-.873.974-1.445.02-.567-.377-.847-.897-.62-.98.434-1.031.405-.99-.675M497.2 684.157c.021-.563-.377-.844-.895-.62-.514.228-.948.875-.969 1.443-.045 1.15-.135 1.17-1.063 1.58-.517.225-.95.874-.97 1.441-.023.57.377.849.894.623 1.023-.452 1.011-.302.976.69-.025.574.38.847.888.622.516-.23.955-.874.972-1.442.027-1.06.14-1.213 1.067-1.597.513-.212.949-.87.973-1.441.018-.57-.38-.848-.893-.618-.971.423-1.021.396-.98-.68v-.001M509.973 678.526c.02-.562-.373-.844-.888-.618-.513.225-.944.868-.965 1.436-.048 1.15-.135 1.162-1.061 1.574-.51.224-.946.872-.967 1.44-.022.567.378.842.888.62 1.009-.45 1.005-.297.967.692-.023.567.373.846.881.62.517-.226.95-.874.973-1.439.03-1.053.136-1.209 1.063-1.589.508-.209.94-.869.964-1.436.025-.565-.37-.848-.884-.62-.964.425-1.014.399-.97-.681l-.001.001M465.248 691.204c.019-.57-.39-.85-.914-.622-.522.23-.96.883-.978 1.454-.04 1.16-.13 1.177-1.074 1.59-.522.234-.96.886-.98 1.46-.017.574.39.851.915.62 1.034-.459 1.029-.305.995.699-.018.575.394.852.914.622.524-.229.958-.882.978-1.461.022-1.058.136-1.218 1.079-1.604.52-.216.961-.88.98-1.454.017-.572-.39-.852-.913-.622-.986.431-1.036.404-1.002-.682M478.224 685.505c.019-.573-.384-.855-.907-.625-.52.23-.957.878-.976 1.454-.04 1.152-.128 1.171-1.071 1.582-.519.232-.96.878-.973 1.454-.02.575.383.852.9.624 1.031-.457 1.026-.302.996.694-.02.572.387.852.904.622.515-.226.958-.88.976-1.45.028-1.06.138-1.22 1.074-1.606.517-.209.953-.873.978-1.444.018-.576-.388-.857-.905-.626-.984.43-1.035.402-.996-.679M491.123 679.836c.021-.568-.38-.85-.895-.626-.52.232-.953.876-.975 1.448-.04 1.152-.126 1.172-1.062 1.58-.524.228-.955.88-.978 1.447-.022.575.38.852.898.623 1.028-.45 1.021-.296.984.697-.022.573.38.852.894.627.516-.227.954-.876.975-1.448.027-1.062.139-1.216 1.07-1.599.515-.21.951-.875.971-1.445.023-.574-.378-.85-.893-.623-.976.428-1.028.401-.99-.681h.001M503.95 674.205c.023-.57-.38-.853-.89-.627-.516.224-.95.872-.971 1.442-.045 1.15-.132 1.166-1.062 1.574-.514.227-.948.872-.97 1.444-.025.572.376.848.888.624 1.018-.448 1.015-.298.978.7-.024.563.373.845.885.619.513-.223.95-.871.972-1.441.032-1.056.14-1.218 1.064-1.592.516-.215.947-.874.968-1.44.024-.57-.37-.852-.882-.628-.97.43-1.023.4-.979-.675h-.001M458.875 686.977c.021-.573-.39-.856-.916-.627-.525.23-.964.88-.983 1.458-.038 1.161-.125 1.184-1.076 1.597-.528.236-.968.885-.984 1.459-.02.578.392.858.918.628 1.04-.459 1.036-.303 1.005.696-.019.577.39.86.916.625.527-.227.965-.88.98-1.456.023-1.07.137-1.227 1.09-1.612.516-.212.959-.883.977-1.457.018-.574-.396-.855-.916-.63-.992.435-1.046.412-1.011-.68v-.001M471.91 681.27c.014-.57-.39-.854-.91-.624-.525.228-.964.884-.984 1.458-.036 1.153-.132 1.178-1.073 1.586-.52.23-.959.883-.976 1.458-.02.574.388.852.91.625 1.031-.452 1.026-.297.993.7-.016.575.39.855.906.625.527-.228.965-.88.985-1.453.023-1.07.135-1.223 1.074-1.61.522-.212.962-.879.984-1.453.016-.569-.389-.852-.912-.628-.99.436-1.039.407-.998-.684h.001M484.86 675.604c.02-.574-.383-.854-.9-.63-.523.227-.96.88-.981 1.456-.042 1.155-.13 1.172-1.066 1.584-.517.223-.957.88-.978 1.451-.023.572.385.848.902.628 1.028-.45 1.024-.301.99.693-.024.578.383.855.902.627.516-.227.955-.872.975-1.445.026-1.068.137-1.226 1.07-1.604.521-.21.958-.875.978-1.45.02-.572-.382-.857-.903-.628-.978.43-1.029.404-.989-.682M497.737 669.966c.023-.574-.377-.852-.893-.625-.516.224-.954.872-.976 1.445-.04 1.151-.13 1.171-1.063 1.582-.52.225-.953.872-.975 1.446-.019.571.38.851.897.624 1.021-.448 1.013-.292.98.7-.022.572.38.852.893.623.517-.227.952-.869.97-1.441.03-1.062.143-1.216 1.072-1.6.514-.206.95-.868.973-1.44.015-.567-.38-.854-.896-.63-.97.427-1.022.4-.982-.684M510.54 664.361c.023-.57-.377-.85-.89-.63-.51.229-.946.872-.97 1.446-.048 1.151-.133 1.169-1.063 1.576-.513.224-.946.872-.966 1.44-.022.573.372.855.886.628 1.016-.445 1.01-.296.971.7-.024.57.375.852.887.627.513-.226.95-.87.972-1.444.03-1.058.141-1.214 1.062-1.59.514-.21.948-.868.971-1.44.023-.567-.377-.85-.887-.63-.969.428-1.016.4-.973-.683" style="fill:none;stroke:red;stroke-width:.533332;stroke-linecap:round;stroke-linejoin:round;stroke-miterlimit:4;stroke-dasharray:none;stroke-opacity:1;visibility:visible"/><path d="M118.144 990.427a7.553 7.553 0 0 0 3.608 8.553M124.288 996.628l-.039.943-.194.774-.342.567-.465.33-.573.08-.651-.178-.23-.116M118.151 990.388l.096-.297.337-.568.468-.334.572-.082.65.173.692.421.705.651.675.843.617.997.528 1.093.407 1.146.272 1.132.118 1.065" style="fill:none;stroke:red;stroke-width:.999997;stroke-linecap:round;stroke-linejoin:round;stroke-miterlimit:4;stroke-dasharray:none;stroke-opacity:1;visibility:visible"/><path d="m119.49 996.813-.143-.152-.148-.173-.136-.188-.133-.208-.127-.219-.121-.23-.104-.24-.096-.242-.085-.247-.068-.241-.058-.239-.04-.236-.025-.218-.008-.208.008-.194.025-.177.035-.152.057-.133.068-.108.086-.083.094-.056.108-.03.116-.003.132.026.13.051.136.08.148.105.141.127.145.15.143.171.139.192.133.206.127.22.116.229.109.24.096.243.085.242.068.246.058.24.04.232.022.222.008.208-.008.194-.022.174-.04.155-.055.13-.068.107-.085.087-.09.055-.109.029-.119.004-.13-.025-.134-.054-.136-.077-.14-.105-.145-.127" style="fill:none;stroke:red;stroke-width:.666665;stroke-linecap:round;stroke-linejoin:round;stroke-miterlimit:4;stroke-dasharray:none;stroke-opacity:1;visibility:visible"/><path d="M359.086 532.469 48.228 649.47" style="fill:none;stroke:red;stroke-width:.999997;stroke-linecap:round;stroke-linejoin:round;stroke-miterlimit:4;stroke-dasharray:none;stroke-opacity:1;visibility:visible"/><path d="m448.497 747.625 66.784-25.31M112.596 823.491l-2.103-5.901" style="fill:none;stroke:red;stroke-width:.666665;stroke-linecap:round;stroke-linejoin:round;stroke-miterlimit:4;stroke-dasharray:none;stroke-opacity:1;visibility:visible"/><path d="m294.426 579.741 3.354-5.444M294.426 579.741l3.154-5.557M294.905 579.981l2.675-1.02" style="fill:none;stroke:red;stroke-width:.999997;stroke-linecap:round;stroke-linejoin:round;stroke-miterlimit:4;stroke-dasharray:none;stroke-opacity:1;visibility:visible"/><path d="m114.021 892.347 2.439 17.839" style="fill:none;stroke:red;stroke-width:1.99999;stroke-linecap:round;stroke-linejoin:round;stroke-miterlimit:4;stroke-dasharray:none;stroke-opacity:1;visibility:visible"/><path d="m458.875 686.977-12.709.203" style="fill:none;stroke:red;stroke-width:.666665;stroke-linecap:round;stroke-linejoin:round;stroke-miterlimit:4;stroke-dasharray:2.66666,2.66666;stroke-dashoffset:0;stroke-opacity:1;visibility:visible"/><path d="m517.82 814.821 12.152-14.375" style="fill:none;stroke:red;stroke-width:1.99999;stroke-linecap:round;stroke-linejoin:round;stroke-miterlimit:4;stroke-dasharray:none;stroke-opacity:1;visibility:visible"/><path d="m131.16 803.658 8.822 8.224" style="fill:none;stroke:red;stroke-width:.999997;stroke-linecap:round;stroke-linejoin:round;stroke-miterlimit:4;stroke-dasharray:none;stroke-opacity:1;visibility:visible"/><path d="m173.73 1007.187-6.006-.896M360.791 637.21l.596-19.691" style="fill:none;stroke:red;stroke-width:1.99999;stroke-linecap:round;stroke-linejoin:round;stroke-miterlimit:4;stroke-dasharray:none;stroke-opacity:1;visibility:visible"/><path d="m53.445 914.021-5.923 3.194" style="fill:none;stroke:red;stroke-width:.999997;stroke-linecap:round;stroke-linejoin:round;stroke-miterlimit:4;stroke-dasharray:none;stroke-opacity:1;visibility:visible"/><path d="m118.135 994.114 5.753 4.31M158.346 1027.834l-2.576-5.51M60.275 926.567 49.13 942.384M119.49 996.813l-1.355-2.699M120.482 981.166l-.998-10.622M115.525 824.404l12.551 4.11M150.97 847.88l-3.063-5.693M114.817 819.373l-5.559-3.833M166.016 826.045l-6.423-.811" style="fill:none;stroke:red;stroke-width:1.99999;stroke-linecap:round;stroke-linejoin:round;stroke-miterlimit:4;stroke-dasharray:none;stroke-opacity:1;visibility:visible"/><path d="m297.58 578.961-.873-3.249M53.405 918.227l1.134 3.873M58.653 923.303l-4.094-.871M48.027 747.12l7.985 7.59" style="fill:none;stroke:red;stroke-width:.999997;stroke-linecap:round;stroke-linejoin:round;stroke-miterlimit:4;stroke-dasharray:none;stroke-opacity:1;visibility:visible"/><path d="m48.027 747.12.16-5.647" style="fill:none;stroke:red;stroke-width:1.99999;stroke-linecap:round;stroke-linejoin:round;stroke-miterlimit:4;stroke-dasharray:none;stroke-opacity:1;visibility:visible"/><path d="m114.021 892.347 1.124-5.222" style="fill:none;stroke:red;stroke-width:.999997;stroke-linecap:round;stroke-linejoin:round;stroke-miterlimit:4;stroke-dasharray:none;stroke-opacity:1;visibility:visible"/><path d="m438.558 755.52-9.624-.077" style="fill:none;stroke:red;stroke-width:.666665;stroke-linecap:round;stroke-linejoin:round;stroke-miterlimit:4;stroke-dasharray:2.66666,2.66666;stroke-dashoffset:0;stroke-opacity:1;visibility:visible"/><path d="m523.54 798.813 4.088 2.89" style="fill:none;stroke:red;stroke-width:1.99999;stroke-linecap:round;stroke-linejoin:round;stroke-miterlimit:4;stroke-dasharray:none;stroke-opacity:1;visibility:visible"/><path d="m435.995 773.908.204-17.322" style="fill:none;stroke:red;stroke-width:.666665;stroke-linecap:round;stroke-linejoin:round;stroke-miterlimit:4;stroke-dasharray:2.66666,2.66666;stroke-dashoffset:0;stroke-opacity:1;visibility:visible"/><path d="m425.087 667.716 12.863.804M115.145 887.125l-1.124 5.222M114.021 892.347l1.849 6.097" style="fill:none;stroke:red;stroke-width:.999997;stroke-linecap:round;stroke-linejoin:round;stroke-miterlimit:4;stroke-dasharray:none;stroke-opacity:1;visibility:visible"/><path d="m378.388 632.116-17.597 5.094" style="fill:none;stroke:red;stroke-width:.666665;stroke-linecap:round;stroke-linejoin:round;stroke-miterlimit:4;stroke-dasharray:2.66666,2.66666;stroke-dashoffset:0;stroke-opacity:1;visibility:visible"/><path d="m89.577 871.818-6.865 10.502M89.577 871.818l-6.865 10.502M89.577 871.818l7.564 4M89.577 871.818l7.564 4M97.141 875.818l-7.564-4M97.141 875.818l-7.564-4M89.577 871.818l-7.455-4.324M89.577 871.818l-7.455-4.324M88.998 856.989l7.588 4.062M88.998 856.989l7.588 4.062M81.537 852.774l7.461 4.215M81.537 852.774l7.461 4.215M88.998 856.989l-7.461-4.215M88.998 856.989l-7.461-4.215M88.998 856.989l7.042-10.599M88.426 842.267l7.614 4.123M96.04 846.39l-7.614-4.123M113.218 821.44l-9.464 15.294M113.218 821.44l-9.068 17.302M87.85 827.267l-6.914 10.52M88.426 842.267l-7.49-4.48M87.85 827.267l7.624 4.187M87.85 827.267l7.624 4.187M80.346 822.923l7.504 4.344M80.346 822.923l7.504 4.344M113.218 821.44l-10.033.374M113.218 821.44l-9.901 2.502M87.85 827.267l-7.504-4.344M87.85 827.267l-7.504-4.344M87.85 827.267l7.07-10.617M87.27 812.405l7.65 4.245M94.92 816.65l-7.65-4.245M94.92 816.65l-7.65-4.245M437.95 668.52l-12.863-.804M80.346 822.923l-.604-14.998M80.346 822.923l-.604-14.998M425.087 667.716l.189-13.664M419.807 635.737l5.469 18.315M413.803 645.279l-5.876 9.274M402.036 650.201l5.891 4.352M413.803 645.279l5.827 4.345M419.807 635.737l-.177 13.887M407.927 654.553l-5.891-4.352M407.927 654.553l-5.891-4.352M408.083 640.612l5.72 4.667M419.63 649.624l-5.827-4.345M413.803 645.279l11.665-4.878M413.803 645.279l11.665-4.878M402.182 636.204l5.901 4.408M402.182 636.204l5.901 4.408M413.972 631.332l5.835 4.405M419.63 649.624l.177-13.887M396.386 631.672l-6.094 9.449M384.435 636.581l5.857 4.54M396.386 631.672l5.796 4.532M396.386 631.672l5.796 4.532M408.083 640.612l5.889-9.28M408.236 626.801l5.736 4.531M419.988 621.976l5.671 4.527M419.988 621.976l5.671 4.527M390.292 641.121l-5.857-4.54M390.292 641.121l-5.857-4.54M402.182 636.204l-5.796-4.532M402.182 636.204l-5.796-4.532M413.972 631.332l-5.736-4.531M413.972 631.332l-5.736-4.531M414.136 617.516l5.852 4.46M425.659 626.503l-5.671-4.527M390.41 627.204l-12.022 4.912M384.435 636.581l-6.047-4.465M396.386 631.672l-5.976-4.468M396.386 631.672l-5.976-4.468M396.386 631.672l5.937-9.329M419.988 621.976l-5.852-4.46M419.988 621.976l-5.852-4.46M419.988 621.976l5.864-9.244M419.988 621.976l5.864-9.244M146.256 935.58l.3 14.562M153.654 939.62l-7.098 10.522M160.92 928.81l.265 14.536M153.654 939.62l7.531 3.726M182.769 926.142l-7.049 10.454M182.769 926.142l7.399 3.741M182.769 926.142l7.399 3.741M211.523 912.83l-6.993 10.388M197.189 919.467l7.341 3.751M211.523 912.83l7.279 3.756M211.523 912.83l7.279 3.756M225.766 906.234l7.221 3.764M225.766 906.234l7.221 3.764M239.93 899.674l7.156 3.772M239.93 899.674l7.156 3.772M161.185 943.346l-7.531-3.726M160.92 928.81l7.334 4.052M190.168 929.883l-7.399-3.741M190.168 929.883l-7.399-3.741M204.53 923.218l-7.341-3.751M204.53 923.218l-7.341-3.751M218.802 916.586l-7.279-3.756M218.802 916.586l-7.279-3.756M232.987 909.998l-7.221-3.764M232.987 909.998l-7.221-3.764M247.086 903.446l-7.156-3.772M247.086 903.446l-7.156-3.772M153.368 925.035l-7.112 10.545M153.654 939.62l-7.398-4.04M153.368 925.035l7.552 3.775M168.254 932.862l-7.334-4.052M182.769 926.142l-7.276-4.055M182.769 926.142l-7.276-4.055M182.769 926.142l7.208-10.737M197.189 919.467l-7.212-4.062M211.523 912.83l-7.146-4.068M211.523 912.83l-7.146-4.068M225.766 906.234l-7.08-4.076M225.766 906.234l-7.08-4.076M145.957 921.109l7.411 3.926M145.957 921.109l7.411 3.926M160.66 914.374l7.35 3.933M160.66 914.374l7.35 3.933M175.27 907.677l7.286 3.94M197.016 904.966l-14.46 6.651M189.79 901.025l7.226 3.941M182.556 911.617l14.46-6.651M153.368 925.035l-7.411-3.926M153.368 925.035l-7.411-3.926M168.01 918.307l-7.35-3.933M168.01 918.307l-7.35-3.933M182.346 897.183l-7.076 10.494M182.556 911.617l-7.286-3.94M182.346 897.183l7.444 3.842M197.016 904.966l-7.226-3.941M160.66 914.374l-7.574-3.824M160.66 914.374l-7.574-3.824M175.27 907.677l-7.505-3.832M189.79 901.025l-7.444-3.842M189.79 901.025l-7.444-3.842M152.804 895.787l-7.151 10.59M153.086 910.55l-7.433-4.173M152.804 895.787l7.588 3.88M167.765 903.845l-7.373-4.178M145.35 891.758l7.454 4.029M145.35 891.758l7.454 4.029M152.804 895.787l-7.454-4.029M152.804 895.787l-7.454-4.029M145.35 891.758l7.167-10.603M145.044 877l7.473 4.155M152.517 881.155 145.044 877M496.123 712.541l6.172 4.095M496.123 712.541l6.172 4.095M490.073 708.31l6.05 4.231M490.073 708.31l6.05 4.231M502.841 702.617l6 4.235M470.94 709.897l6.295 4.137M470.94 709.897l6.295 4.137M496.123 712.541l-6.05-4.231M496.123 712.541l-6.05-4.231M496.656 698.477l6.185 4.14M508.841 706.852l-6-4.235M477.235 714.034l-6.295-4.137M477.235 714.034l-6.295-4.137M490.073 708.31l-6.237-4.138M490.073 708.31l-6.237-4.138M502.841 702.617l-6.185-4.14M502.841 702.617l-6.185-4.14M502.841 702.617l6.562-9.799M503.397 688.348l6.006 4.47M471.425 695.524l6.307 4.184M483.836 704.172l-6.104-4.464M484.35 689.825l6.251 4.185M497.2 684.157l6.197 4.191M497.2 684.157l6.197 4.191M465.248 691.204l-6.822 10.052M465.248 691.204l-6.822 10.052M465.248 691.204l6.177 4.32M465.248 691.204l6.177 4.32M478.224 685.505l6.126 4.32M478.224 685.505l6.126 4.32M484.35 689.825l12.85-5.668M491.123 679.836l6.077 4.321M497.2 684.157l12.773-5.631M471.425 695.524l-6.177-4.32M471.425 695.524l-6.177-4.32M484.35 689.825l-6.126-4.32M484.35 689.825l-6.126-4.32M497.2 684.157l-6.077-4.321M503.95 674.205l-12.827 5.631M497.737 669.966l6.213 4.239M491.123 679.836l12.827-5.631M465.248 691.204l-6.373-4.227M465.248 691.204l-6.373-4.227M478.224 685.505l-6.314-4.235M478.224 685.505l6.636-9.901M491.123 679.836l-6.263-4.232M510.54 664.361l-12.803 5.605M503.95 674.205l-6.213-4.239M497.737 669.966l12.803-5.605M503.95 674.205l6.59-9.844" style="fill:none;stroke:red;stroke-width:.533332;stroke-linecap:round;stroke-linejoin:round;stroke-miterlimit:4;stroke-dasharray:none;stroke-opacity:1;visibility:visible"/><path d="m118.135 994.114 1.355 2.699" style="fill:none;stroke:red;stroke-width:.666665;stroke-linecap:round;stroke-linejoin:round;stroke-miterlimit:4;stroke-dasharray:none;stroke-opacity:1;visibility:visible"/><path d="m724.524 604.364 2.068 1.048M737.193 584.648l-2.078-1.033M714.394 770.054l2.003 1.114M727.378 751.444l-2.008-1.102M685.868 581.919l35.88 18.141M516.077 496.068l169.3 85.604M511.452 493.73l4.188 2.116M729.977 583.94 519.092 478.542M684.608 581.281l-3.952 76.313M691.372 658.14l3.838-71.497M687.372 732.628l4-74.488M680.656 657.595l-3.859 74.48M539.055 669.881l172.9 95.953M677.078 726.681l-151.38-83.137M720.48 750.517l-33.094-18.175M515.052 495.548l-1.617 73.822M523.6 569.583l1.633-68.885M522.07 634.253l1.53-64.67M513.433 569.37l-1.408 64.32M718.149 771.56l.115.01 1.02-.017 1.078-.224 1.112-.424 1.123-.619 1.11-.8 1.074-.961 1.021-1.107.946-1.23.849-1.324.735-1.4.608-1.437.466-1.453.322-1.437.164-1.39.002-1.319-.157-1.216-.312-1.092-.465-.944-.6-.78-.422-.376" style="fill:none;stroke:#00ff4a;stroke-width:1.99999;stroke-linecap:round;stroke-linejoin:round;stroke-miterlimit:4;stroke-dasharray:none;stroke-opacity:1;visibility:visible"/><path d="m727.438 751.692-.658-.292-.943-.196-1.024.01-1.077.218-1.116.422-1.127.616-1.115.798-1.08.964-1.03 1.112-.946 1.234-.856 1.334-.736 1.402-.613 1.447-.468 1.459-.317 1.442-.16 1.395" style="fill:none;stroke:#00ff4a;stroke-width:.999997;stroke-linecap:round;stroke-linejoin:round;stroke-miterlimit:4;stroke-dasharray:none;stroke-opacity:1;visibility:visible"/><path d="m725.372 750.342-.514-.234-.924-.232-1.002-.028-1.063.17-1.101.374-1.12.56-1.115.747-1.085.909-1.043 1.061-.97 1.189-.887 1.289-.782 1.372-.66 1.425-.526 1.448-.386 1.445-.234 1.41-.078 1.355.078 1.267.232 1.153.382 1.023.524.868.659.7.639.443M725.402 604.128l.15.207.761.669.816.445" style="fill:none;stroke:#00ff4a;stroke-width:1.99999;stroke-linecap:round;stroke-linejoin:round;stroke-miterlimit:4;stroke-dasharray:none;stroke-opacity:1;visibility:visible"/><path d="m723.968 598.561-.003 1.404.161 1.305.324 1.18.482 1.027.47.651" style="fill:none;stroke:#00ff4a;stroke-width:.999997;stroke-linecap:round;stroke-linejoin:round;stroke-miterlimit:4;stroke-dasharray:none;stroke-opacity:1;visibility:visible"/><path d="m728.033 605.708.119.019 1.048.04 1.108-.177 1.14-.39 1.155-.592 1.139-.785 1.108-.964 1.05-1.119.973-1.255.87-1.361.76-1.444.627-1.497.485-1.519.331-1.51.17-1.469.004-1.401-.157-1.304-.317-1.183-.475-1.03-.616-.864-.434-.424" style="fill:none;stroke:#00ff4a;stroke-width:1.99999;stroke-linecap:round;stroke-linejoin:round;stroke-miterlimit:4;stroke-dasharray:none;stroke-opacity:1;visibility:visible"/><path d="m737.5 585.032-.566-.279-.253-.069M736.68 584.684l-.712-.195-1.05-.048-1.107.171-1.144.383-1.157.59-1.148.786-1.112.965-1.056 1.124-.977 1.259-.88 1.369-.76 1.452-.63 1.504-.486 1.527-.327 1.516-.166 1.476" style="fill:none;stroke:#00ff4a;stroke-width:.999997;stroke-linecap:round;stroke-linejoin:round;stroke-miterlimit:4;stroke-dasharray:none;stroke-opacity:1;visibility:visible"/><path d="m735.117 583.615-.165-.08-.948-.298-1.031-.089-1.093.123-1.13.332-1.15.534-1.146.728-1.117.907-1.07 1.067-1.004 1.208-.91 1.323-.803 1.415-.682 1.476-.546 1.514-.397 1.515-.241 1.49-.084 1.435.076 1.35.237 1.245.39 1.11.537.952.674.783.798.594.213.115M511.452 493.73l-.279-.158-.716-.57-.587-.752-.45-.91-.3-1.04-.137-1.153.026-1.23.188-1.277.346-1.29.497-1.27.63-1.214.755-1.132.849-1.018.934-.874.984-.712 1.01-.53 1.016-.334.986-.129.941.081.865.282.082.04" style="fill:none;stroke:#00ff4a;stroke-width:1.99999;stroke-linecap:round;stroke-linejoin:round;stroke-miterlimit:4;stroke-dasharray:none;stroke-opacity:1;visibility:visible"/><path d="m511.405 489.766.131-.674.334-.528.491-.326.579-.066.553.215.459.452.355.641.233.784.108.812-.024.716-.14.55-.261.361-.394.129-.502-.122-.542-.34-.53-.51-.465-.662-.303-.763-.082-.67M594.537 531.7l.143-.685.357-.535.523-.327.607-.058.583.23.48.466.374.662.243.807.102.829-.034.727-.16.557-.285.36-.425.123-.53-.135-.567-.35-.553-.528-.475-.683-.31-.777-.074-.683M682.022 575.828l.162-.695.378-.541.554-.328.644-.052.614.244.506.487.388.684.252.825.098.85-.046.741-.18.563-.315.359-.453.116-.566-.146-.596-.37-.572-.544-.491-.7-.309-.797-.068-.696M687.16 582.57l-.678-.342-.257-.132M686.225 582.095l-.713-.359" style="fill:none;stroke:#00ff4a;stroke-width:.999997;stroke-linecap:round;stroke-linejoin:round;stroke-miterlimit:4;stroke-dasharray:none;stroke-opacity:1;visibility:visible"/><path d="m512.583 488.212-.136.07-.398.504-.185.673.057.728.266.72.445.673.563.563.524.347M513.719 492.49l.494.158.058-.01M595.732 530.137l-.107.051-.424.51-.201.684.047.742.269.736.457.69.582.58.545.36M596.903 534.49l.524.17.113-.016M683.236 574.255l-.076.033-.451.516-.221.693.042.756.268.752.468.71.606.598.572.377M684.444 578.69l.554.181.178-.019" style="fill:none;stroke:#00ff4a;stroke-width:.999997;stroke-linecap:round;stroke-linejoin:round;stroke-miterlimit:4;stroke-dasharray:none;stroke-opacity:1;visibility:visible"/><path d="m517.25 496.659-.627-.316-.231-.12M516.392 496.223l-.63-.316" style="fill:none;stroke:#00ff4a;stroke-width:1.99999;stroke-linecap:round;stroke-linejoin:round;stroke-miterlimit:4;stroke-dasharray:none;stroke-opacity:1;visibility:visible"/><path d="m588.732 693.894.09.72.304.714.469.661.571.544.564.348.478.13.385-.092.278-.337.149-.56.02-.702-.108-.76-.239-.762-.382-.676-.503-.476-.56-.212-.555.047-.497.3-.347.527-.117.586M673.556 740.88l.082.73.308.731.484.679.595.562.588.368.507.142.414-.087.306-.333.169-.567.028-.713-.107-.776-.244-.783-.401-.697-.53-.494-.586-.228-.587.04-.528.3-.368.53-.13.598M687.34 732.628l.026.048-.444.446-1.014.534-1.259.53-1.427.508-1.648.439-1.813.163-1.244-.274-.25-.121M676.857 732.078a2.787 2.787 0 0 0 1.41 2.823" style="fill:none;stroke:#00ff4a;stroke-width:.999997;stroke-linecap:round;stroke-linejoin:round;stroke-miterlimit:4;stroke-dasharray:none;stroke-opacity:1;visibility:visible"/><path d="m591.695 696.798-.418-.082-.546-.31-.547-.475-.495-.618-.366-.73-.147-.748.097-.657.304-.52.266-.19M676.652 743.876l-.486-.102-.576-.326-.565-.491-.512-.637-.373-.747-.14-.76.109-.67.328-.526.255-.171" style="fill:none;stroke:#00ff4a;stroke-width:.999997;stroke-linecap:round;stroke-linejoin:round;stroke-miterlimit:4;stroke-dasharray:none;stroke-opacity:1;visibility:visible"/><path d="m716.682 771.085.635.293.833.18" style="fill:none;stroke:#00ff4a;stroke-width:1.99999;stroke-linecap:round;stroke-linejoin:round;stroke-miterlimit:4;stroke-dasharray:none;stroke-opacity:1;visibility:visible"/><path d="M714.172 765.057v1.32l.16 1.216.318 1.092.469.94.611.772.736.59.215.097" style="fill:none;stroke:#00ff4a;stroke-width:.999997;stroke-linecap:round;stroke-linejoin:round;stroke-miterlimit:4;stroke-dasharray:none;stroke-opacity:1;visibility:visible"/><path d="m727.938 752.018-.312-.217-.188-.111M738.122 585.479l-.316-.251-.306-.196M727.129 605.45l.051.023.854.236M724.524 604.364l-2.776-4.304M735.115 583.615l-5.138.325M714.394 770.054l-2.439-4.22M678.267 734.901l-1.189-8.22M725.37 750.342l-4.89.175" style="fill:none;stroke:#00ff4a;stroke-width:1.99999;stroke-linecap:round;stroke-linejoin:round;stroke-miterlimit:4;stroke-dasharray:none;stroke-opacity:1;visibility:visible"/><path d="m685.868 581.919 1.292.651M676.857 732.078l-3.301 8.804" style="fill:none;stroke:#00ff4a;stroke-width:.999997;stroke-linecap:round;stroke-linejoin:round;stroke-miterlimit:4;stroke-dasharray:none;stroke-opacity:1;visibility:visible"/><path d="m88.998 856.989 15.26 11.759" style="fill:none;stroke:red;stroke-width:.533332;stroke-linecap:round;stroke-linejoin:round;stroke-miterlimit:4;stroke-dasharray:none;stroke-opacity:1;visibility:visible"/><path d="m533.621 653.204 5.434 16.677M520.655 641.576l5.043 1.968M522.3 644.727l-.23-10.474M522.3 644.727l-10.275-11.037" style="fill:none;stroke:#00ff4a;stroke-width:1.99999;stroke-linecap:round;stroke-linejoin:round;stroke-miterlimit:4;stroke-dasharray:none;stroke-opacity:1;visibility:visible"/></svg>