<svg xmlns="http://www.w3.org/2000/svg" baseProfile="full" height="1122.52" preserveAspectRatio="xMinYMin meet" style="width:765px;height:943px" width="793.701" xml:space="preserve"><path d="M200.93 145.985 201 149M226.078 148.565l-.06-3.015M359.089 184.533l.016 3.125M385.193 187.581l-.008-3.127M362.013 190.096l1.54 329.962M383.078 519.98l-.779-329.943M290.456 232.335l71.844 18.792M362.24 238.495l-68.784-17.772M293.437 491.986l70.092 23.019M363.471 502.519l-66.405-21.597M203.837 151.207l7.184 318.749M229.603 458.98l-4.957-243.86M224.396 202.879l-1.057-52.01M293.456 220.723l-70.346-18.176M220.17 213.95l70.286 18.385M297.066 480.921l-68.456-22.264M225.029 469.52l68.41 22.467" style="fill:none;stroke:red;stroke-width:1.99999;stroke-linecap:round;stroke-linejoin:round;stroke-miterlimit:4;stroke-dasharray:none;stroke-opacity:1;visibility:visible" visibility="hidden"/><path d="m204.997 148.173 1.365.287 1.512.228 1.628.165 1.708.097 1.756.026 1.767-.042 1.739-.113 1.678-.177 1.582-.243 1.453-.299 1.293-.352 1.11-.396.902-.43.678-.46.438-.479.155-.327" style="fill:none;stroke:red;stroke-width:.999997;stroke-linecap:round;stroke-linejoin:round;stroke-miterlimit:4;stroke-dasharray:none;stroke-opacity:1;visibility:visible" visibility="hidden"/><path d="m225.622 144.79-.195-.25-.553-.45-.783-.423-.997-.382-1.193-.338-1.364-.284-1.506-.225-1.617-.161-1.699-.094-1.741-.028-1.753.043-1.73.11-1.666.175-1.575.24-1.448.295-1.295.347-1.112.393-.91.43-.686.457-.45.477-.139.256" style="fill:none;stroke:red;stroke-width:1.99999;stroke-linecap:round;stroke-linejoin:round;stroke-miterlimit:4;stroke-dasharray:none;stroke-opacity:1;visibility:visible" visibility="hidden"/><path d="m201.134 145.742.059.35.3.475.541.452.776.427.995.387 1.192.34" style="fill:none;stroke:red;stroke-width:.999997;stroke-linecap:round;stroke-linejoin:round;stroke-miterlimit:4;stroke-dasharray:none;stroke-opacity:1;visibility:visible" visibility="hidden"/><path d="m200.999 149 .012.132.2.48.44.461.672.439.89.404 1.095.363 1.275.312 1.433.26 1.559.198 1.657.136 1.722.067h1.753l1.75-.067 1.713-.136 1.64-.198 1.537-.26 1.403-.312 1.242-.363 1.058-.404.85-.439.628-.461.395-.48.155-.487v-.08" style="fill:none;stroke:red;stroke-width:1.99999;stroke-linecap:round;stroke-linejoin:round;stroke-miterlimit:4;stroke-dasharray:none;stroke-opacity:1;visibility:visible" visibility="hidden"/><path d="m363.773 187.112 1.473.312 1.618.248 1.725.177 1.799.104 1.833.032 1.832-.048 1.793-.122 1.716-.192 1.604-.263 1.462-.325 1.285-.382 1.085-.429.863-.47.623-.498.372-.519.094-.304" style="fill:none;stroke:red;stroke-width:.999997;stroke-linecap:round;stroke-linejoin:round;stroke-miterlimit:4;stroke-dasharray:none;stroke-opacity:1;visibility:visible" visibility="hidden"/><path d="m384.687 183.48-.277-.31-.656-.49-.892-.457-1.11-.416-1.302-.367-1.471-.308-1.608-.243-1.715-.176-1.784-.102-1.821-.03-1.817.046-1.782.12-1.705.189-1.596.261-1.457.32-1.287.378-1.09.426-.87.466-.633.497-.384.515-.09.237" style="fill:none;stroke:red;stroke-width:1.99999;stroke-linecap:round;stroke-linejoin:round;stroke-miterlimit:4;stroke-dasharray:none;stroke-opacity:1;visibility:visible" visibility="hidden"/><path d="M359.305 184.301v.025l.136.527.393.515.647.493.884.461 1.105.42 1.304.37" style="fill:none;stroke:red;stroke-width:.999997;stroke-linecap:round;stroke-linejoin:round;stroke-miterlimit:4;stroke-dasharray:none;stroke-opacity:1;visibility:visible" visibility="hidden"/><path d="m359.104 187.658.055.341.292.519.541.501.777.476 1.002.44 1.202.392 1.386.342 1.537.281 1.661.215 1.75.148 1.808.073h1.825l1.812-.073 1.76-.148 1.673-.215 1.556-.281 1.406-.342 1.23-.392 1.03-.44.806-.476.574-.501.325-.519.08-.418M366.96 522.921l-1.11-.43-.914-.495-.695-.547-.461-.584-.213-.605-.015-.202M383.078 519.98l-.003.077-.156.611-.406.59-.644.56-.868.514-1.067.455-1.24.382-1.38.298-1.485.213-1.551.113-1.575.018-1.56-.083-1.502-.18-1.407-.27-1.273-.355" style="fill:none;stroke:red;stroke-width:1.99999;stroke-linecap:round;stroke-linejoin:round;stroke-miterlimit:4;stroke-dasharray:none;stroke-opacity:1;visibility:visible" visibility="hidden"/><path d="m363.883 249.484.083-.847.261-.673.441-.448.616-.172.716.13.727.39.676.617.54.816.29.931-.017.903-.294.786-.53.618-.706.362-.762.028-.692-.292-.573-.566-.435-.796-.265-.948-.076-.839M364.49 384.626l.083-.815.254-.636.435-.41.607-.138.704.155.717.401.667.616.529.804.285.908-.016.876-.289.755-.521.587-.698.33-.746.004-.683-.312-.565-.576-.428-.797-.262-.935-.073-.817" style="fill:none;stroke:red;stroke-width:.999997;stroke-linecap:round;stroke-linejoin:round;stroke-miterlimit:4;stroke-dasharray:none;stroke-opacity:1;visibility:visible" visibility="hidden"/><path d="m365.575 382.694-.344.41-.216.714-.033.864.129.892.297.867.479.756.641.518.712.195.486-.077M364.987 247.477l-.35.444-.22.752-.034.895.132.912.303.872.486.754.652.504.722.174.632-.124" style="fill:none;stroke:red;stroke-width:.999997;stroke-linecap:round;stroke-linejoin:round;stroke-miterlimit:4;stroke-dasharray:none;stroke-opacity:1;visibility:visible" visibility="hidden"/><path d="m213.982 472.419 1.185.328 1.32.252 1.424.164 1.49.077 1.517-.016 1.503-.106 1.452-.195 1.36-.277 1.234-.352 1.078-.42.893-.475.683-.517.014-.014M211.02 469.958l.139.562.375.54.607.504.822.458 1.02.398" style="fill:none;stroke:red;stroke-width:1.99999;stroke-linecap:round;stroke-linejoin:round;stroke-miterlimit:4;stroke-dasharray:none;stroke-opacity:1;visibility:visible" visibility="hidden"/><path d="m210.432 209.424-.157-.876-.403-.817-.597-.698-.707-.501-.685-.233-.582.041-.454.305-.308.568-.138.784.031.878.18.877.34.81.505.66.631.383.672.07.648-.23.557-.51.371-.748.096-.763M213.294 339.98l-.153-.85-.396-.8-.59-.694-.694-.507-.678-.252-.573.015-.448.27-.304.534-.136.75.03.85.178.863.335.809.497.663.623.401.662.09.639-.205.55-.481.365-.717.093-.739" style="fill:none;stroke:red;stroke-width:.999997;stroke-linecap:round;stroke-linejoin:round;stroke-miterlimit:4;stroke-dasharray:none;stroke-opacity:1;visibility:visible" visibility="hidden"/><path d="m212.52 341.844-.659.104-.652-.208-.549-.472-.43-.701-.29-.872-.128-.911.027-.805.173-.644.208-.279M209.536 211.42l-.557.105-.662-.186-.557-.46-.435-.698-.294-.881-.132-.93.028-.833.176-.676.342-.488.115-.052M220.168 213.9l-.988-.341-1.381-1.048-1.114-1.695-.321-1.512.227-1.557.693-1.447 1.213-1.492 1.643-1.339 1.516-.77 1.092-.2.328.1M225.029 469.462l-.49-.139-1.34-.936-1.08-1.569-.309-1.419.219-1.472.673-1.381 1.179-1.448 1.593-1.345 1.471-.84 1.056-.306.588.083" style="fill:none;stroke:red;stroke-width:.999997;stroke-linecap:round;stroke-linejoin:round;stroke-miterlimit:4;stroke-dasharray:none;stroke-opacity:1;visibility:visible" visibility="hidden"/><path d="M225.76 145.66a1.027 1.027 0 0 0-.137-.868" style="fill:none;stroke:red;stroke-width:1.99999;stroke-linecap:round;stroke-linejoin:round;stroke-miterlimit:4;stroke-dasharray:none;stroke-opacity:1;visibility:visible" visibility="hidden"/><path d="m201.21 145.378-.065.227-.012.137" style="fill:none;stroke:red;stroke-width:.999997;stroke-linecap:round;stroke-linejoin:round;stroke-miterlimit:4;stroke-dasharray:none;stroke-opacity:1;visibility:visible" visibility="hidden"/><path d="M384.95 184.436a1.24 1.24 0 0 0-.263-.956M359.341 184.036l-.036.265M359.105 187.658l2.908 2.438M385.193 187.581l-2.894 2.456M366.96 522.923l-3.431-7.918M201 149l2.837 2.207M224.396 202.879l.25 12.242M224.646 215.12l-.25-12.241M226.078 148.565l-2.74 2.303" style="fill:none;stroke:red;stroke-width:1.99999;stroke-linecap:round;stroke-linejoin:round;stroke-miterlimit:4;stroke-dasharray:none;stroke-opacity:1;visibility:visible" visibility="hidden"/><path d="m677.358 381.887.11-.039.31-.104M678.17 381.783l.007-.187M487.016 469.296l.101-.035.284-.092M488.008 469.18l.003-.261M529.742 341.551l.107-.041.296-.111M530.51 341.436l.003-.19M439.794 490.343l280.737-128.861" style="fill:none;stroke:#00ff4a;stroke-width:.999997;stroke-linecap:round;stroke-linejoin:round;stroke-miterlimit:4;stroke-dasharray:none;stroke-opacity:1;visibility:visible"/><path d="m715.656 350.897-36.672 16.643M674.544 369.555 488.531 453.98M483.708 456.169l-49.276 22.365" style="fill:none;stroke:#00ff4a;stroke-width:1.99999;stroke-linecap:round;stroke-linejoin:round;stroke-miterlimit:4;stroke-dasharray:none;stroke-opacity:1;visibility:visible"/><path d="m287.233 442.383 72.474-30.336M387.746 400.307l185.48-77.644" style="fill:none;stroke:#00ff4a;stroke-width:.999997;stroke-linecap:round;stroke-linejoin:round;stroke-miterlimit:4;stroke-dasharray:none;stroke-opacity:1;visibility:visible"/><path d="m568.895 312.281-36.383 15.061M526.272 329.927l-139.486 57.747M358.936 399.203l-20.465 8.472M331.971 410.366l-49.508 20.496M433.263 511.982a5.665 5.665 0 0 0 3.897-.16M393.555 499.197l39.71 12.784M437.161 511.821l302.637-141.129M346.367 484.005l12.781 4.113M386.721 496.997l4.49 1.445M300.286 469.169l43.792 14.1M260.96 456.507l37.09 11.943M259.323 449.499l.088 5.26M741.129 361.277a1.983 1.983 0 0 0-1.71-1.792M259.434 454.763a1.895 1.895 0 0 0 1.527 1.745M740.823 369.3l.315-8.04M739.42 359.482l-16.028-4.227M712.427 352.36l-136.404-35.987M739.795 370.694a1.61 1.61 0 0 0 1.018-1.379" style="fill:none;stroke:#00ff4a;stroke-width:1.99999;stroke-linecap:round;stroke-linejoin:round;stroke-miterlimit:4;stroke-dasharray:none;stroke-opacity:1;visibility:visible"/><path d="m677.753 381.733.395-.119.505-.316.199-.365-.095-.275" style="fill:none;stroke:#00ff4a;stroke-width:.999997;stroke-linecap:round;stroke-linejoin:round;stroke-miterlimit:4;stroke-dasharray:none;stroke-opacity:1;visibility:visible"/><path d="m334.599 410.33-.847-.08-.749-.157-.599-.224-.401-.278-.175-.305.063-.312.299-.297.508-.258.685-.201.807-.13.87-.046.87.036.805.121.679.191.505.252.292.293.059.312-.182.307-.405.281-.603.231-.752.168-.849.09-.88.006M333.573 409.124l.557.488M334.13 409.613l1.477.064M335.608 409.677l.917-.425" style="fill:none;stroke:#00ff4a;stroke-width:.666665;stroke-linecap:round;stroke-linejoin:round;stroke-miterlimit:4;stroke-dasharray:none;stroke-opacity:1;visibility:visible"/><path d="m487.378 469.155.49-.15.58-.355.262-.416-.067-.312M530.12 341.39l.287-.083.513-.297.227-.344-.092-.35" style="fill:none;stroke:#00ff4a;stroke-width:.999997;stroke-linecap:round;stroke-linejoin:round;stroke-miterlimit:4;stroke-dasharray:none;stroke-opacity:1;visibility:visible"/><path d="m439.409 490.463-1.19-.028-1.505-.479-1.537-.801-1.577-1.145-1.527-1.616-.881-1.691-.206-1.324" style="fill:none;stroke:#00ff4a;stroke-width:1.99999;stroke-linecap:round;stroke-linejoin:round;stroke-miterlimit:4;stroke-dasharray:none;stroke-opacity:1;visibility:visible"/><path d="m434.815 478.378 1.041-.263 1.8.167 1.292.787.951 1.261.67 1.812.225 1.16.134 1.205.072 1.724-.045 1.539-.161 1.161-.424.964-.962.568" style="fill:none;stroke:#00ff4a;stroke-width:.999997;stroke-linecap:round;stroke-linejoin:round;stroke-miterlimit:4;stroke-dasharray:none;stroke-opacity:1;visibility:visible"/><path d="m430.986 483.378.363-1.728.938-1.493 1.528-1.296 1-.483M723.66 355.855l-.583-1.304-1.124-1.363-1.738-1.326-1.526-.752-1.449-.382-1.13.023-.427.199" style="fill:none;stroke:#00ff4a;stroke-width:1.99999;stroke-linecap:round;stroke-linejoin:round;stroke-miterlimit:4;stroke-dasharray:none;stroke-opacity:1;visibility:visible"/><path d="m720.527 361.473.075-.024 1.497-1.016.7-.765.563-.91.418-1.433-.12-1.47M437.499 489.622a3.347 3.347 0 0 0 2.44-.095M437.5 489.62l-.93-.413-.887-.627-.808-.817-.691-.97-.545-1.078-.379-1.146-.19-1.157.006-1.123.197-1.034.383-.907.553-.736.699-.533.217-.111" style="fill:none;stroke:#00ff4a;stroke-width:.999997;stroke-linecap:round;stroke-linejoin:round;stroke-miterlimit:4;stroke-dasharray:none;stroke-opacity:1;visibility:visible"/><path d="m436.206 483.837.097.636.283.603.427.476.502.28.506.037.43-.207.286-.422.105-.572-.1-.638-.284-.601-.425-.479-.504-.278-.506-.038-.426.207-.29.424-.101.572" style="fill:none;stroke:#00ff4a;stroke-width:.999997;stroke-linecap:round;stroke-linejoin:round;stroke-miterlimit:4;stroke-dasharray:none;stroke-opacity:1;visibility:visible"/><path d="m286.624 442.45-.679-.001-1.396-.443-1.449-.764-1.508-1.097-1.485-1.56-.874-1.635-.221-1.283" style="fill:none;stroke:#00ff4a;stroke-width:1.99999;stroke-linecap:round;stroke-linejoin:round;stroke-miterlimit:4;stroke-dasharray:none;stroke-opacity:1;visibility:visible"/><path d="m283.548 430.555 1.673.141 1.19.74.865 1.199.601 1.73.2 1.11.122 1.159.077 1.664-.004 1.49-.103 1.134-.328.952-.825.577-.392-.001" style="fill:none;stroke:#00ff4a;stroke-width:.999997;stroke-linecap:round;stroke-linejoin:round;stroke-miterlimit:4;stroke-dasharray:none;stroke-opacity:1;visibility:visible"/><path d="m279.012 435.667.319-1.672.876-1.447 1.432-1.258.937-.472.972-.263M576.357 317.097l-.583-1.264-1.101-1.321-1.673-1.28-1.448-.72-1.351-.355-1.032.039-.252.132" style="fill:none;stroke:#00ff4a;stroke-width:1.99999;stroke-linecap:round;stroke-linejoin:round;stroke-miterlimit:4;stroke-dasharray:none;stroke-opacity:1;visibility:visible"/><path d="m573.214 322.628.305-.099 1.411-.992.661-.742.527-.882.383-1.392-.144-1.424" style="fill:none;stroke:#00ff4a;stroke-width:.999997;stroke-linecap:round;stroke-linejoin:round;stroke-miterlimit:4;stroke-dasharray:none;stroke-opacity:1;visibility:visible"/><path d="m337.083 410.37.005.05-.226.371-.448.242-.58.086-.686-.034-.758-.134-.724-.181-.559-.17-.363-.142-.156-.13.014-.023" style="fill:none;stroke:#00ff4a;stroke-width:.666665;stroke-linecap:round;stroke-linejoin:round;stroke-miterlimit:4;stroke-dasharray:none;stroke-opacity:1;visibility:visible"/><path d="M285.271 441.672a2.964 2.964 0 0 0 2.08-.048M285.272 441.67l-.863-.387-.829-.596-.757-.778-.652-.931-.522-1.036-.365-1.103-.196-1.118-.015-1.084.166-1.007.337-.88.497-.72.632-.525.363-.183" style="fill:none;stroke:#00ff4a;stroke-width:.999997;stroke-linecap:round;stroke-linejoin:round;stroke-miterlimit:4;stroke-dasharray:none;stroke-opacity:1;visibility:visible"/><path d="m283.982 436.093.1.613.272.58.399.455.469.264.465.03.391-.206.259-.412.084-.557-.1-.614-.272-.578-.4-.458-.47-.262-.465-.031-.39.207-.26.413-.082.556M437.676 502.036a1.72 1.72 0 0 0-1.056-1.61M433.719 500.526a4.53 4.53 0 0 0 2.9-.098M437.677 502.035l-.036 8.881" style="fill:none;stroke:#00ff4a;stroke-width:.999997;stroke-linecap:round;stroke-linejoin:round;stroke-miterlimit:4;stroke-dasharray:none;stroke-opacity:1;visibility:visible"/><path d="m739.634 360.396.173-.1.108-.113.038-.12-.031-.124-.101-.122-.168-.112-.227-.104-.277-.086" style="fill:none;stroke:#00ff4a;stroke-width:1.99999;stroke-linecap:round;stroke-linejoin:round;stroke-miterlimit:4;stroke-dasharray:none;stroke-opacity:1;visibility:visible"/><path d="m436.62 500.426 303.014-140.029M679.255 380.428l.27.233.11.28-.112.271-.323.248-.51.203-.662.141-.762.072-.808-.005-.302-.022M531.495 340.132l.06.035.276.246.072.26-.141.256-.343.23-.517.188-.656.132-.744.066-.779-.004-.496-.04M489.234 467.65l.25.27.067.322-.166.316-.391.287-.584.232-.736.165-.833.083-.867-.006-.321-.025" style="fill:none;stroke:#00ff4a;stroke-width:.999997;stroke-linecap:round;stroke-linejoin:round;stroke-miterlimit:4;stroke-dasharray:none;stroke-opacity:1;visibility:visible"/><path d="m337.86 421.191.055.04.252.283.029.3-.197.293-.41.263-.59.217-.728.152-.812.076-.835-.004-.524-.047" style="fill:none;stroke:#00ff4a;stroke-width:.666665;stroke-linecap:round;stroke-linejoin:round;stroke-miterlimit:4;stroke-dasharray:none;stroke-opacity:1;visibility:visible"/><path d="m344.5 482.665.252-.23M298.689 467.617l.25.388M298.445 467.846l.244-.23M391.922 497.609l.26.397M391.664 497.84l.257-.23M344.753 482.435l.255.392M392.182 498.008a2.832 2.832 0 0 0 1.372 1.19M391.505 498.364l.703-.319M391.664 497.84l-.167.153-.136.138-.098.118-.06.091-.019.064.021.036.063.007.099-.028.138-.055M345.007 482.828a2.792 2.792 0 0 0 1.36 1.178M344.378 483.193l.675-.297M344.5 482.665l-.16.153-.13.138-.093.116-.056.092-.014.065.025.037.065.004.103-.022.137-.055M298.94 468.007a2.747 2.747 0 0 0 1.345 1.164M298.355 468.378l.648-.277M298.445 467.846l-.156.152-.124.137-.088.116-.05.092-.011.066.028.037.068.008.104-.023.14-.053" style="fill:none;stroke:#00ff4a;stroke-width:1.99999;stroke-linecap:round;stroke-linejoin:round;stroke-miterlimit:4;stroke-dasharray:none;stroke-opacity:1;visibility:visible"/><path d="m264.908 446.664 95.418 30.443M386.264 485.382l47.456 15.141" style="fill:none;stroke:#00ff4a;stroke-width:.999997;stroke-linecap:round;stroke-linejoin:round;stroke-miterlimit:4;stroke-dasharray:none;stroke-opacity:1;visibility:visible"/><path d="M739.417 359.483a.388.388 0 0 0-.27.032M437.159 511.823a.936.936 0 0 0 .48-.905" style="fill:none;stroke:#00ff4a;stroke-width:1.99999;stroke-linecap:round;stroke-linejoin:round;stroke-miterlimit:4;stroke-dasharray:none;stroke-opacity:1;visibility:visible"/><path d="m531.19 329.86.007.05-.217.34-.428.223-.556.081-.655-.032-.724-.124-.69-.167-.537-.157-.345-.13-.149-.123.013-.02M529.781 329.22l.876-.39M528.368 329.16l1.413.06M527.836 328.709l.532.45M528.816 329.822l-.808-.073-.717-.146-.572-.206-.383-.257-.167-.281.061-.289.285-.273.485-.239.655-.188.77-.119.831-.044.832.035.768.112.65.177.481.234.28.269.056.288-.173.284-.39.259-.573.214-.719.155-.81.083-.843.005M679.016 369.742l.004.045-.22.338-.438.218-.565.08-.67-.032-.737-.121-.706-.165-.546-.155-.354-.128-.151-.119.012-.021M677.577 369.111l.895-.386M676.136 369.053l1.441.057M675.592 368.609l.542.444M676.592 369.703l-.826-.072-.73-.144-.584-.204-.392-.25-.17-.278.062-.285.29-.268.495-.236.668-.183.788-.117.848-.044.85.033.782.11.665.177.492.228.284.265.058.283-.178.28-.396.255-.586.212-.734.153-.828.081-.858.004M488.588 456.33l.007.05-.236.371-.466.241-.603.088-.71-.036-.79-.133-.75-.181-.584-.17-.375-.142-.16-.131.011-.023M487.057 455.636l.954-.425M485.521 455.572l1.536.064M484.943 455.084l.577.488M486.008 456.288l-.878-.08-.779-.156-.623-.225-.416-.276-.181-.305.065-.312.31-.298.53-.256.709-.204.84-.128.901-.048.904.036.837.122.705.192.525.252.303.292.061.312-.188.306-.422.282-.624.232-.782.168-.88.09-.918.004" style="fill:none;stroke:#00ff4a;stroke-width:.666665;stroke-linecap:round;stroke-linejoin:round;stroke-miterlimit:4;stroke-dasharray:none;stroke-opacity:1;visibility:visible"/><path d="m678.472 368.725.512-1.185M488.011 455.211l.52-1.23M530.657 328.83l1.855-1.488M336.525 409.252l1.946-1.577M393.554 499.198l-6.833-2.201M723.392 355.255l-10.965-2.895" style="fill:none;stroke:#00ff4a;stroke-width:1.99999;stroke-linecap:round;stroke-linejoin:round;stroke-miterlimit:4;stroke-dasharray:none;stroke-opacity:1;visibility:visible"/><path d="m338.47 407.675-1.945 1.577" style="fill:none;stroke:#00ff4a;stroke-width:.666665;stroke-linecap:round;stroke-linejoin:round;stroke-miterlimit:4;stroke-dasharray:none;stroke-opacity:1;visibility:visible"/><path d="m676.592 369.703-.436 12.146M528.816 329.822l-.589 11.68M486.008 456.288l-.355 13.006" style="fill:none;stroke:#00ff4a;stroke-width:.999997;stroke-linecap:round;stroke-linejoin:round;stroke-miterlimit:4;stroke-dasharray:none;stroke-opacity:1;visibility:visible"/><path d="m334.599 410.33-.499 12.434" style="fill:none;stroke:#00ff4a;stroke-width:.666665;stroke-linecap:round;stroke-linejoin:round;stroke-miterlimit:4;stroke-dasharray:none;stroke-opacity:1;visibility:visible"/><path d="m346.367 484.005 13.96-6.898M391.212 498.442l-4.948-13.06" style="fill:none;stroke:#00ff4a;stroke-width:.999997;stroke-linecap:round;stroke-linejoin:round;stroke-miterlimit:4;stroke-dasharray:none;stroke-opacity:1;visibility:visible"/><path d="m488.531 453.98-.52 1.231" style="fill:none;stroke:#00ff4a;stroke-width:.666665;stroke-linecap:round;stroke-linejoin:round;stroke-miterlimit:4;stroke-dasharray:none;stroke-opacity:1;visibility:visible"/></svg>