<svg xmlns="http://www.w3.org/2000/svg" baseProfile="full" height="1122.52" preserveAspectRatio="xMinYMin meet" style="width:765px;height:943px" width="793.701" xml:space="preserve"><path d="m341.762 624.917 298.34-131.83M635.39 482.404 336.235 612.16M341.175 625.003l-.913-.035-1.548-.521-1.611-.867-1.679-1.228-1.653-1.729-.98-1.807-.25-1.417" style="fill:none;stroke:red;stroke-width:1.99999;stroke-linecap:round;stroke-linejoin:round;stroke-miterlimit:4;stroke-dasharray:none;stroke-opacity:1;visibility:visible" visibility="hidden"/><path d="m336.475 612.062 1.1-.283 1.859.184 1.318.852.96 1.36.668 1.952.219 1.228.137 1.318.087 1.85-.001 1.647-.108 1.235-.359 1.017-.91.59-.271-.009" style="fill:none;stroke:red;stroke-width:.999997;stroke-linecap:round;stroke-linejoin:round;stroke-miterlimit:4;stroke-dasharray:none;stroke-opacity:1;visibility:visible" visibility="hidden"/><path d="m332.541 617.4.352-1.847.97-1.598 1.591-1.384 1.022-.508M640.096 493.063l.181-.057 1.506-1.031.704-.773.568-.918.424-1.445-.118-1.484-.581-1.316-1.125-1.373-1.743-1.328-1.535-.744-1.461-.363-1.14.05-.361.175" style="fill:none;stroke:red;stroke-width:1.99999;stroke-linecap:round;stroke-linejoin:round;stroke-miterlimit:4;stroke-dasharray:none;stroke-opacity:1;visibility:visible" visibility="hidden"/><path d="M339.512 624.092a3.277 3.277 0 0 0 2.412-.045M339.514 624.091l-.957-.447-.919-.678-.84-.878-.727-1.04-.578-1.16-.408-1.225-.219-1.237-.02-1.2.18-1.107.37-.968.549-.783.701-.566.308-.156" style="fill:none;stroke:red;stroke-width:.999997;stroke-linecap:round;stroke-linejoin:round;stroke-miterlimit:4;stroke-dasharray:none;stroke-opacity:1;visibility:visible" visibility="hidden"/><path d="m338.07 617.9.113.681.302.647.445.513.52.3.516.047.433-.22.284-.45.094-.611-.114-.683-.302-.645-.446-.514-.518-.302-.518-.043-.432.219-.285.449-.092.612" style="fill:none;stroke:red;stroke-width:.999997;stroke-linecap:round;stroke-linejoin:round;stroke-miterlimit:4;stroke-dasharray:none;stroke-opacity:1;visibility:visible" visibility="hidden"/><path d="M334.335 685.014a5.832 5.832 0 0 0 4.239-.166M293.939 670.376l40.397 14.639M338.575 684.847l319.509-151.209M246.673 653.25l44.964 16.292M201.236 636.786l43.224 15.663M163.037 622.945l36.07 13.07M162.686 610.461a2.05 2.05 0 0 0-1.514 1.943M161.159 612.414l.432 8.83M491.814 480.118 162.688 610.46M659.418 524.279a1.981 1.981 0 0 0-1.718-1.79M161.604 621.239a1.836 1.836 0 0 0 1.433 1.708M659.089 532.266l.343-7.997M657.703 522.488l-52.893-13.805M586.077 503.794l-91.141-23.788M494.935 480.007a5.357 5.357 0 0 0-3.122.112M658.082 533.64a1.58 1.58 0 0 0 .994-1.36" style="fill:none;stroke:#00ff4a;stroke-width:1.99999;stroke-linecap:round;stroke-linejoin:round;stroke-miterlimit:4;stroke-dasharray:none;stroke-opacity:1;visibility:visible"/><path d="M338.886 674.516a1.92 1.92 0 0 0-1.11-1.732M334.658 672.894a4.624 4.624 0 0 0 3.118-.11M338.886 674.515l.15 9.395M163.027 611.565l171.632 61.33" style="fill:none;stroke:#00ff4a;stroke-width:.999997;stroke-linecap:round;stroke-linejoin:round;stroke-miterlimit:4;stroke-dasharray:none;stroke-opacity:1;visibility:visible"/><path d="m163.13 610.464-.268.127-.203.141-.132.148-.053.155.025.15.103.142.179.128.245.109M657.947 523.394l.17-.101.105-.112.034-.118-.036-.122-.105-.12-.168-.114-.23-.1-.278-.086" style="fill:none;stroke:#00ff4a;stroke-width:1.99999;stroke-linecap:round;stroke-linejoin:round;stroke-miterlimit:4;stroke-dasharray:none;stroke-opacity:1;visibility:visible"/><path d="m337.777 672.783 320.17-149.389" style="fill:none;stroke:#00ff4a;stroke-width:.999997;stroke-linecap:round;stroke-linejoin:round;stroke-miterlimit:4;stroke-dasharray:none;stroke-opacity:1;visibility:visible"/><path d="m244.805 651.86.241-.235M199.639 635.193l.255.407M199.41 635.426l.228-.233M292.281 668.72l.27.425M292.027 668.956l.253-.236M245.046 651.626l.263.416M292.55 669.148a2.927 2.927 0 0 0 1.388 1.23M292.01 669.445l.568-.256M292.027 668.956l-.161.157-.126.139-.086.115-.046.088-.001.061.04.03.083-.003.122-.034.158-.064M245.307 652.043a2.86 2.86 0 0 0 1.364 1.209M244.844 652.36l.523-.227M244.805 651.86l-.152.156-.117.136-.078.117-.038.091.005.06.047.03h.086l.127-.029.159-.061M199.893 635.601c.305.534.777.95 1.341 1.187M199.5 635.934l.483-.201M199.41 635.426l-.144.153-.108.139-.07.115-.031.09.012.062.052.034.092.003.126-.03.16-.058" style="fill:none;stroke:#00ff4a;stroke-width:1.99999;stroke-linecap:round;stroke-linejoin:round;stroke-miterlimit:4;stroke-dasharray:none;stroke-opacity:1;visibility:visible"/><path d="M338.574 684.848a.979.979 0 0 0 .462-.938" style="fill:none;stroke:#00ff4a;stroke-width:.999997;stroke-linecap:round;stroke-linejoin:round;stroke-miterlimit:4;stroke-dasharray:none;stroke-opacity:1;visibility:visible"/><path d="M657.701 522.49a.373.373 0 0 0-.263.03M586.077 503.794l18.733 4.889M604.81 508.683l-18.733-4.889" style="fill:none;stroke:#00ff4a;stroke-width:1.99999;stroke-linecap:round;stroke-linejoin:round;stroke-miterlimit:4;stroke-dasharray:none;stroke-opacity:1;visibility:visible"/><path d="m188.885 573.76 305.586-117.026M490.545 446.395 184.242 561.577M188.794 573.788l-.992-.003-1.36-.457-1.463-.796-1.561-1.147-1.575-1.63-.962-1.708-.272-1.344" style="fill:none;stroke:#9500ff;stroke-width:1.99999;stroke-linecap:round;stroke-linejoin:round;stroke-miterlimit:4;stroke-dasharray:none;stroke-opacity:1;visibility:visible" visibility="hidden"/><path d="m183.797 561.795.303-.161.984-.282 1.644.142 1.149.769.817 1.248.554 1.805.178 1.142.116 1.23.098 1.74.058 1.564-.012 1.188-.205 1-.687.608" style="fill:none;stroke:#9500ff;stroke-width:.999997;stroke-linecap:round;stroke-linejoin:round;stroke-miterlimit:4;stroke-dasharray:none;stroke-opacity:1;visibility:visible" visibility="hidden"/><path d="m180.61 566.703.281-1.748.862-1.515 1.432-1.317.613-.328M494.456 456.686l.501-.172 1.376-.99.642-.738.512-.876.366-1.377-.149-1.415-.581-1.255-1.088-1.305-1.644-1.257-1.412-.692-1.312-.326-.988.067-.122.073" style="fill:none;stroke:#9500ff;stroke-width:1.99999;stroke-linecap:round;stroke-linejoin:round;stroke-miterlimit:4;stroke-dasharray:none;stroke-opacity:1;visibility:visible" visibility="hidden"/><path d="M187.133 572.976a2.677 2.677 0 0 0 1.859.008M187.134 572.975l-.845-.401-.819-.62-.755-.814-.661-.969-.536-1.084-.388-1.15-.225-1.17-.05-1.135.126-1.052.296-.924.456-.753.593-.553.499-.258" style="fill:none;stroke:#9500ff;stroke-width:.999997;stroke-linecap:round;stroke-linejoin:round;stroke-miterlimit:4;stroke-dasharray:none;stroke-opacity:1;visibility:visible" visibility="hidden"/><path d="m185.707 567.145.117.641.28.606.402.476.46.274.45.031.371-.219.236-.43.064-.583-.117-.641-.282-.607-.401-.476-.461-.275-.45-.028-.37.218-.235.432-.064.581" style="fill:none;stroke:#9500ff;stroke-width:.999997;stroke-linecap:round;stroke-linejoin:round;stroke-miterlimit:4;stroke-dasharray:none;stroke-opacity:1;visibility:visible" visibility="hidden"/></svg>