<svg xmlns="http://www.w3.org/2000/svg" baseProfile="full" height="1122.52" preserveAspectRatio="xMinYMin meet" style="width:912px;height:1246px" width="793.701" xml:space="preserve"><path d="M331.403 829.157c-.581.25-1.42-.282-1.88-1.184-.458-.9-.36-1.833.224-2.083.578-.247 1.419.283 1.88 1.184.456.903.359 1.836-.224 2.083" style="fill:none;fill-opacity:1;fill-rule:nonzero;stroke:red;stroke-width:1.33333;visibility:visible"/><path d="M331.8 828.218a2.743 2.743 0 0 0-.271-1.103 3.039 3.039 0 0 0-.702-.918M330.825 826.197a1.413 1.413 0 0 0-.607-.307" style="fill:none;stroke:red;stroke-width:.666665;stroke-linecap:round;stroke-linejoin:round;stroke-miterlimit:2;stroke-dasharray:none;stroke-opacity:1;visibility:visible"/><path d="M330.218 825.89a.493.493 0 0 0-.308.027M329.453 826.209a1.215 1.215 0 0 0-.155.618M329.298 826.827c.012.386.105.758.272 1.103.167.343.405.653.706.92M330.278 828.849c.161.141.37.248.604.305M330.915 827.997l-.372-.159M330.291 827.289l.123-.334M330.543 827.837l-.25-.548M331.418 829.033a.442.442 0 0 0 .228-.195M331.646 828.838c.11-.2.163-.416.154-.621M331.418 829.033l-.23.096M329.907 825.917l-.225.096M330.882 829.157a.49.49 0 0 0 .307-.028" style="fill:none;stroke:red;stroke-width:.666665;stroke-linecap:round;stroke-linejoin:round;stroke-miterlimit:2;stroke-dasharray:none;stroke-opacity:1;visibility:visible"/><path d="M329.682 826.014a.45.45 0 0 0-.23.196" style="fill:none;stroke:red;stroke-width:.666665;stroke-linecap:round;stroke-linejoin:round;stroke-miterlimit:2;stroke-dasharray:none;stroke-opacity:1;visibility:visible"/><path d="m320.295 833.705-.352-.162" style="fill:none;stroke:red;stroke-width:1.99999;stroke-linecap:round;stroke-linejoin:round;stroke-miterlimit:4;stroke-dasharray:none;stroke-opacity:1;visibility:visible"/><path d="m326.983 830.23-.03-.007h-.041l-.022.007M327.617 829.929l-.04-.019h-.04l-.032.02M327.817 828.817l-.042-.027-.032-.019-.008-.035M327.975 830.089l-.36-.16" style="fill:none;stroke:red;stroke-width:.999997;stroke-linecap:round;stroke-linejoin:round;stroke-miterlimit:4;stroke-dasharray:none;stroke-opacity:1;visibility:visible"/><path d="m320.295 833.705-.04.017-.032.03-.032.049M319.945 833.545l-.031-.007h-.041l-.033.007M320.295 833.705l.008.008.008.01M319.72 833.697v.04l.016.033" style="fill:none;stroke:red;stroke-width:1.99999;stroke-linecap:round;stroke-linejoin:round;stroke-miterlimit:4;stroke-dasharray:none;stroke-opacity:1;visibility:visible"/><path d="m319.8 833.737.017-.047.031-.048.027-.041.038-.032.032-.026" style="fill:none;stroke:red;stroke-width:1.99999;stroke-linecap:round;stroke-linejoin:round;stroke-miterlimit:4;stroke-dasharray:none;stroke-opacity:1;visibility:visible"/><path d="m193.784 1013.574 3.016-1.56M197.712 1018.75l8.807-4.575M193.497 1023.974l.008-9.919M194.146 1024.71h0M327.975 830.089l.016.008.01.008" style="fill:none;stroke:red;stroke-width:.999997;stroke-linecap:round;stroke-linejoin:round;stroke-miterlimit:4;stroke-dasharray:none;stroke-opacity:1;visibility:visible"/><path d="m196.169 1018.466-.081.044-.08.076-.07.077-.074.087-.055.097-.05.112-.03.104-.025.105-.007.104.007.098.024.076.032.074.049.056.055.038.064.028h.08l.081-.02.079-.029.082-.058.078-.065.072-.08.074-.087.056-.101.048-.106.03-.104.027-.112.006-.097-.007-.095-.024-.08-.031-.072-.049-.056-.056-.04-.074-.024h-.072l-.078.015-.08.035M202.617 1018.703l-.08.055-.082.066-.072.078-.072.09-.055.104-.047.106-.032.102-.024.104-.008.103.008.099.024.077.032.07.047.061.054.036.065.028h.072l.083-.018.08-.032.089-.056.068-.064.081-.084.066-.084.055-.101.048-.107.038-.106.018-.102.007-.101-.007-.099-.018-.082-.038-.068-.039-.056-.065-.043-.064-.013-.073-.008-.079.014-.08.03" style="fill:none;stroke:red;stroke-width:.666665;stroke-linecap:round;stroke-linejoin:round;stroke-miterlimit:4;stroke-dasharray:none;stroke-opacity:1;visibility:visible"/><path d="m193.864 1024.736-.082-.05-.07-.061-.064-.082-.056-.087-.04-.106-.032-.12-.016-.12-.007-.133M194.184 1024.783h0" style="fill:none;stroke:red;stroke-width:.999997;stroke-linecap:round;stroke-linejoin:round;stroke-miterlimit:4;stroke-dasharray:none;stroke-opacity:1;visibility:visible"/><path d="m196.8 1012.016.049-.016.056-.01h.048l.041.018" style="fill:none;stroke:red;stroke-width:1.99999;stroke-linecap:round;stroke-linejoin:round;stroke-miterlimit:4;stroke-dasharray:none;stroke-opacity:1;visibility:visible"/><path d="m206.52 1014.174.046-.024.057-.006.048.007.042.019M193.505 1014.055l.008-.072.017-.088.04-.083.039-.066.055-.076.056-.055.064-.04" style="fill:none;stroke:red;stroke-width:.999997;stroke-linecap:round;stroke-linejoin:round;stroke-miterlimit:4;stroke-dasharray:none;stroke-opacity:1;visibility:visible"/><path d="M196.8 1012.016h-.024" style="fill:none;stroke:red;stroke-width:1.99999;stroke-linecap:round;stroke-linejoin:round;stroke-miterlimit:4;stroke-dasharray:none;stroke-opacity:1;visibility:visible"/><path d="m193.497 1023.974-.017-.006v-.012M206.497 1014.17h.008l.017.004M193.505 1014.055l-.016-.008v-.008M193.784 1013.574l-.008-.006-.016.006" style="fill:none;stroke:red;stroke-width:.999997;stroke-linecap:round;stroke-linejoin:round;stroke-miterlimit:4;stroke-dasharray:none;stroke-opacity:1;visibility:visible"/><path d="m197.72 1014.902-.008 4.577" style="fill:none;stroke:red;stroke-width:1.99999;stroke-linecap:round;stroke-linejoin:round;stroke-miterlimit:4;stroke-dasharray:none;stroke-opacity:1;visibility:visible"/><path d="m205.617 1014.624-7.905 4.111M194.432 1025l-.016-.008" style="fill:none;stroke:red;stroke-width:.999997;stroke-linecap:round;stroke-linejoin:round;stroke-miterlimit:4;stroke-dasharray:none;stroke-opacity:1;visibility:visible"/><path d="m88.353 953.418.859-.408M89.21 953.011l.07-.041.066-.047.055-.05.03-.058.018-.057v-.054l-.009-.057-.032-.055M83.53 950.808l.102-.062.121-.067.137-.055.143-.049.152-.039.152-.033.168-.023.168-.006h.337l.16.016.16.02.152.042.135.04.136.05.121.056.103.06.087.072.074.071.055.084.032.085.025.082-.009.088-.016.082-.04.088-.057.08-.07.068-.09.084-.103.061M81.36 949.446l-.104.042-.103.032M80.582 948.147l.091.005.168.016.159.022.146.034.144.047.127.045.121.055.103.065.087.071.072.073.057.078.04.076.016.081v.085l-.016.08-.04.086-.057.081-.072.07-.088.077-.102.066" style="fill:none;stroke:red;stroke-width:.666665;stroke-linecap:round;stroke-linejoin:round;stroke-miterlimit:4;stroke-dasharray:none;stroke-opacity:1;visibility:visible"/><path d="m67.648 945.722 125.849 68.228" style="fill:none;stroke:red;stroke-width:.999997;stroke-linecap:round;stroke-linejoin:round;stroke-miterlimit:4;stroke-dasharray:none;stroke-opacity:1;visibility:visible"/><path d="m85.49 951.864 111.261 60.16M80.664 949.264 84 951.066" style="fill:none;stroke:red;stroke-width:1.99999;stroke-linecap:round;stroke-linejoin:round;stroke-miterlimit:4;stroke-dasharray:none;stroke-opacity:1;visibility:visible"/><path d="m88.281 952.384.087-.033.088-.024.097-.025.095-.006h.185l.08.015.087.016.08.024.081.04.08.039.065.058.056.046.048.056M88.281 952.384l-.975.462" style="fill:none;stroke:red;stroke-width:.666665;stroke-linecap:round;stroke-linejoin:round;stroke-miterlimit:4;stroke-dasharray:none;stroke-opacity:1;visibility:visible"/><path d="m320.767 840.49-.056-.032-.03-.035-.017-.03v-.034l.018-.029.03-.035.046-.022.059-.026.072-.007.073-.006.077.005.072.008.067.019.056.024.039.032.022.03.008.033-.008.038-.022.035-.04.023-.054.024-.069.014-.07.008h-.073l-.07-.007-.072-.015-.058-.015M320.983 841.214l-.136-.007-.136-.017-.128-.013-.121-.034-.11-.032-.114-.046M321.863 840.465l.057.048.047.045.04.05.024.053.016.051M320.24 841.063l-.087-.04-.074-.053-.072-.05-.047-.054-.03-.057-.027-.064-.008-.058.016-.064.024-.056.04-.056.056-.048.066-.046M324.631 838.658l-.048-.032-.032-.025-.024-.039v-.035l.019-.029.03-.033.046-.023.065-.019.064-.013.08-.008.072.007.072.006.065.027.055.023.042.025.022.03.016.043-.008.029-.03.035-.042.019-.048.027-.064.016-.072.008h-.08l-.071-.008-.065-.009-.064-.022M324.855 839.386l-.137-.008-.135-.017-.13-.016-.117-.031-.119-.033-.107-.048M325.727 838.64l.064.04.05.046.032.052.024.055.016.046M324.111 839.233l-.085-.043-.081-.045-.065-.056-.047-.059-.043-.053-.015-.064-.008-.058.008-.054.026-.064.039-.047.057-.056.073-.048" style="fill:none;stroke:red;stroke-width:.999997;stroke-linecap:round;stroke-linejoin:round;stroke-miterlimit:4;stroke-dasharray:none;stroke-opacity:1;visibility:visible"/><path d="m91.57 949.303.085.057.073.064.056.066.041.062.025.072v.071M89.8 950.12l-.095-.057-.08-.063-.055-.072-.04-.07-.025-.074-.008-.08.016-.074.04-.078.05-.07.069-.062.089-.069" style="fill:none;stroke:red;stroke-width:.666665;stroke-linecap:round;stroke-linejoin:round;stroke-miterlimit:4;stroke-dasharray:none;stroke-opacity:1;visibility:visible"/><path d="m90.577 950.294-.143-.007-.144-.017-.134-.026-.13-.036-.121-.04-.105-.05" style="fill:none;stroke:red;stroke-width:.999997;stroke-linecap:round;stroke-linejoin:round;stroke-miterlimit:4;stroke-dasharray:none;stroke-opacity:1;visibility:visible"/><path d="m94.432 947.927-.095-.056-.081-.064-.064-.073-.039-.072-.027-.07v-.074l.02-.078.031-.072.057-.073.07-.072.08-.065M90.4 949.464l-.04-.033-.032-.04-.014-.041.006-.038.025-.04.039-.031.064-.031.065-.026.081-.016h.16l.079.016.063.026.057.018.039.043.025.041v.038l-.017.04-.03.041-.05.033-.063.026-.081.022-.079.008h-.08l-.079-.008-.074-.017-.064-.03" style="fill:none;stroke:red;stroke-width:.666665;stroke-linecap:round;stroke-linejoin:round;stroke-miterlimit:4;stroke-dasharray:none;stroke-opacity:1;visibility:visible"/><path d="m96.2 947.12.082.055.07.055.056.066.041.074.024.06v.074" style="fill:none;stroke:red;stroke-width:.999997;stroke-linecap:round;stroke-linejoin:round;stroke-miterlimit:4;stroke-dasharray:none;stroke-opacity:1;visibility:visible"/><path d="m95.033 947.28-.048-.03-.032-.042-.005-.038v-.04l.03-.042.039-.04.055-.033.074-.015.072-.016.087-.008.08.008.07.008.075.024.047.031.04.037.024.036.009.04-.017.041-.04.039-.047.034-.064.022-.072.026-.08.006h-.08l-.078-.006-.075-.016-.064-.026M95.21 948.103l-.147-.007-.143-.018-.136-.02-.128-.036-.119-.048-.105-.046" style="fill:none;stroke:red;stroke-width:.666665;stroke-linecap:round;stroke-linejoin:round;stroke-miterlimit:4;stroke-dasharray:none;stroke-opacity:1;visibility:visible"/><path d="m89.4 950.914 239.31-113.305" style="fill:none;stroke:red;stroke-width:1.99999;stroke-linecap:round;stroke-linejoin:round;stroke-miterlimit:4;stroke-dasharray:none;stroke-opacity:1;visibility:visible"/><path d="m324.473 832.329.054.008.048.022M86.337 949.256l-.664-.36M86.49 949.446l-.034-.063-.032-.048-.04-.048-.047-.032M86.337 949.256l239.31-113.023M86.49 949.456v-.009M89.4 950.914l-.04-.019h-.04l-.03.019-.033.03v.006" style="fill:none;stroke:red;stroke-width:.999997;stroke-linecap:round;stroke-linejoin:round;stroke-miterlimit:4;stroke-dasharray:none;stroke-opacity:1;visibility:visible"/><path d="m276.111 855.913-.08.046-.078.064-.08.075-.073.085-.063.107-.057.1-.046.113-.043.112-.021.112-.01.113v.103l.018.098.021.088.041.081.05.056.056.045.07.034.074.008h.08l.077-.024.08-.04.09-.059.08-.07.07-.08.073-.096.065-.102.048-.105.037-.114.035-.12.014-.109.008-.105-.007-.106-.015-.086-.042-.087-.038-.065-.056-.056-.066-.034-.07-.022h-.073l-.081.01-.088.03M141.857 919.12l-.096.056-.088.065-.088.088-.072.089-.072.112-.063.115-.048.109-.041.119-.024.12-.008.112.008.11.016.107.032.088.048.072.056.063.065.048.079.024.08.013.096-.004.09-.033.095-.04.087-.063.088-.072.08-.09.08-.099.065-.108.056-.111.039-.121.03-.119.018-.12v-.113l-.009-.107-.022-.093-.042-.078-.047-.073-.064-.056-.07-.04-.082-.02h-.089l-.087.02-.096.03M206.513 888.68l-.087.058-.09.062-.077.079-.082.091-.067.099-.055.109-.055.117-.03.115-.025.117-.008.115v.103l.016.1.032.091.04.074.055.059.067.051.07.025.072.013.086-.005.088-.024.09-.04.087-.066.079-.072.081-.077.074-.1.063-.11.053-.114.044-.109.03-.122.016-.109.01-.113-.018-.107-.017-.095-.038-.077-.048-.073-.056-.047-.073-.043-.073-.015-.077-.01-.091.018-.086.033M214.96 884.705l-.087.048-.091.064-.077.08-.075.097-.07.095-.057.111-.049.114-.039.116-.025.113-.008.114v.113l.016.095.033.089.042.076.054.059.064.046.071.038.073.004.088-.004.088-.028.087-.042.082-.056.087-.07.08-.09.074-.094.061-.103.05-.115.049-.11.022-.12.024-.115v-.109l-.007-.107-.025-.09-.033-.083-.047-.071-.055-.05-.073-.04-.072-.022h-.078l-.09.015-.089.032M317.303 836.52l-.08.05-.078.056-.075.081-.072.086-.06.097-.058.103-.05.106-.032.112-.023.111-.015.112v.105l.015.095.023.087.032.073.051.064.057.039.06.033.072.016.083-.01.077-.022.081-.034.079-.054.072-.073.083-.08.064-.088.061-.106.05-.102.04-.11.03-.112.02-.112.007-.105-.008-.105-.02-.087-.029-.081-.04-.071-.055-.05-.056-.039-.072-.023h-.075l-.077.008-.082.031M233.52 875.97l-.088.047-.082.063-.079.079-.08.088-.065.104-.055.104-.048.116-.04.119-.023.112-.009.112v.101l.016.105.024.09.04.069.056.064.066.048.062.027.08.013.08-.005.087-.027.09-.039.079-.057.086-.073.073-.085.073-.098.064-.104.056-.112.04-.111.031-.11.017-.123.009-.101-.009-.107-.024-.094-.04-.08-.04-.075-.056-.045-.071-.042-.07-.022h-.083l-.08.017-.087.032M187.553 897.609l-.09.048-.086.07-.081.08-.079.088-.063.105-.066.111-.048.115-.04.119-.016.113-.014.117.006.105.016.103.033.088.039.072.056.067.065.045.07.026.083.005h.086l.089-.03.087-.041.09-.058.086-.069.082-.088.07-.1.064-.11.056-.112.04-.11.032-.121.017-.113v-.111l-.01-.103-.022-.094-.032-.08-.056-.076-.057-.055-.071-.032-.072-.025h-.09l-.087.017-.087.035M94.513 941.418l-.096.046-.09.072-.085.088-.089.1-.072.102-.064.111-.047.121-.04.115-.017.122-.016.121.008.111.025.104.031.092.049.077.063.055.065.047.08.026.086.018.096-.018.097-.026.097-.047.096-.055.086-.077.09-.092.071-.104.073-.11.054-.123.04-.12.034-.118.015-.118v-.11l-.005-.106-.036-.098-.039-.088-.056-.072-.064-.046-.072-.044-.09-.015h-.084l-.097.015-.097.044" style="fill:none;stroke:red;stroke-width:.666665;stroke-linecap:round;stroke-linejoin:round;stroke-miterlimit:4;stroke-dasharray:none;stroke-opacity:1;visibility:visible"/><path d="m457.168 877.951-.513-.254-2.43 1.253M80.69 946.208l-.04-.008-.034-.009-.031.009M85.233 948.447l-.008.056-.015.04-.025.03-.032.019h-.041l-.039-.018M85.073 948.574l.152-.08M85.673 944.408l-.096.112-.096.127-.081.127-.072.148-.055.141-.048.147-.03.14-.019.145-.006.133M85.17 945.627l.062 2.819M85.673 944.408l.072-.064.08-.056.08-.042.073-.032.086-.03.096-.033M324.063 832.223l-.023.015-.015.01-.016.008-.019.015-.012.016-.018.018M86.256 944.21l-.096-.058M324.055 832.345l-.094-.042M324.473 832.329l-.058-.007-.064-.01h-.071l-.062.009-.081.009-.08.016" style="fill:none;stroke:red;stroke-width:.999997;stroke-linecap:round;stroke-linejoin:round;stroke-miterlimit:4;stroke-dasharray:none;stroke-opacity:1;visibility:visible"/><path d="m456.056 883.513.064-.034.066-.008.056.009.046.025.05.037.03.057.023.063.009.084.011.084-.02.099-.023.094-.03.099-.04.092-.048.09-.056.079-.064.075-.067.055-.073.037-.062.025-.065.01h-.053l-.051-.027-.047-.039-.03-.054-.026-.072-.01-.08v-.083l.011-.093.025-.097.03-.097.042-.097.049-.088.056-.078.06-.073.065-.056.072-.038M450.626 889.575l.072-.03.064-.007.057.007.045.025.05.037.03.056.026.064.017.083v.087l-.017.093-.016.1-.04.095-.04.094-.047.091-.057.078-.066.065-.062.062-.072.039-.066.028-.062.005h-.058l-.046-.021-.05-.04-.03-.059-.026-.07-.016-.071v-.089l.016-.097.016-.097.034-.093.046-.097.048-.088.055-.08.067-.073.062-.057.066-.04" style="fill:none;stroke:red;stroke-width:.666665;stroke-linecap:round;stroke-linejoin:round;stroke-miterlimit:4;stroke-dasharray:none;stroke-opacity:1;visibility:visible"/><path d="m453.615 885.625.01.004.005.018M453.959 879.369v.005l.016.013M454.226 878.951h-.026M445.488 893.527v.064l.016.05.016.039.024.04.04.018M445.912 889.758l-.05.032-.045.051-.047.059-.043.07-.03.072-.017.077-.017.074M456.79 877.691l-.036-.02-.051.01-.048.016M454.226 878.951l-.05.032-.056.05-.036.062-.044.063-.03.081-.026.074-.008.072M453.554 885.793l.03-.024.026-.04.016-.039.008-.043M445.472 893.513l.01.007.006.007M445.647 890.17l.01.013.005.01M445.888 889.758l.016-.005.01.005M453.528 885.783h.01l.017.008" style="fill:none;stroke:red;stroke-width:.999997;stroke-linecap:round;stroke-linejoin:round;stroke-miterlimit:4;stroke-dasharray:none;stroke-opacity:1;visibility:visible"/><path d="m456.656 877.697-.016-.007-.01.007" style="fill:none;stroke:red;stroke-width:.999997;stroke-linecap:round;stroke-linejoin:round;stroke-miterlimit:4;stroke-dasharray:none;stroke-opacity:1;visibility:visible"/><path d="M457.538 878.37h0" style="fill:none;stroke:red;stroke-width:1.99999;stroke-linecap:round;stroke-linejoin:round;stroke-miterlimit:4;stroke-dasharray:none;stroke-opacity:1;visibility:visible"/><path d="m332.56 825.649 121.407 53.654M445.512 892.758l.136-2.588M445.647 890.17l.01-.05.005-.059.025-.054.025-.056.026-.05.032-.035.03-.041.042-.035.02-.02.027-.013M445.888 889.758l7.64-3.973M453.528 885.783l.016-.01.016-.015.024-.031.007-.025.019-.03.005-.016v-.033M453.615 885.625l.344-6.256M453.959 879.369l.01-.056.005-.055.025-.058.016-.047.03-.047.038-.048.029-.043.042-.03.02-.015.026-.017" style="fill:none;stroke:red;stroke-width:.999997;stroke-linecap:round;stroke-linejoin:round;stroke-miterlimit:4;stroke-dasharray:none;stroke-opacity:1;visibility:visible"/><path d="m338.272 833.538.082.015h.076l.074-.015.064-.041.056-.05.048-.062.031-.072.024-.087.01-.096M338.824 830.105l-.088 3.025M338.824 830.105V830l-.016-.103-.033-.103-.039-.104-.056-.097-.056-.088-.072-.082-.08-.072-.08-.053-.081-.032-.08-.025-.079-.011-.072.017-.07.026-.059.047-.045.055-.043.075M334.94 828.3l-.12-.04-.114-.021-.111-.019-.104.01-.104.023-.096.041-.088.056-.07.07-.073.086-.057.099-.048.112-.032.12-.013.128-.01.135v.145l.024.142.031.155.04.144.056.141.065.146.08.134.086.123.098.12.095.101.112.099.103.079.12.07.113.051.112.029.112.026h.113l.102-.016.1-.03.093-.049.08-.064.072-.084.065-.084.055-.112.033-.113.031-.13.019-.128v-.142l-.02-.143-.023-.147-.04-.15-.047-.144-.065-.143-.072-.136-.08-.128-.088-.13-.095-.112-.105-.095-.112-.087-.112-.075-.111-.063" style="fill:none;stroke:red;stroke-width:.666665;stroke-linecap:round;stroke-linejoin:round;stroke-miterlimit:4;stroke-dasharray:none;stroke-opacity:1;visibility:visible"/><path d="m324.817 835.72 120.993 54.095M320.327 833.713l.29.136M328.009 830.105l125.421 55.737" style="fill:none;stroke:red;stroke-width:.999997;stroke-linecap:round;stroke-linejoin:round;stroke-miterlimit:4;stroke-dasharray:none;stroke-opacity:1;visibility:visible"/><path d="m338.272 833.538-.064-.027-.072-.03-.056-.041-.062-.047-.056-.05-.05-.053-.05-.075-.046-.07-.033-.075-.032-.077-.015-.08-.016-.08v-.104M337.808 829.697l-.088 3.03M337.808 829.697l.008-.048.008-.056.01-.048.013-.048.016-.05M331.344 837.303l.041-.046.045-.047.044-.033.038-.023.034-.024.039-.017M331.583 837.113l4.608-2.186M336.191 834.929l.072-.03.08-.027.088-.017.08-.009h.169l.08.019.071.008.072.025.072.03.072.034.063.037.057.048.05.059.039.054" style="fill:none;stroke:red;stroke-width:.666665;stroke-linecap:round;stroke-linejoin:round;stroke-miterlimit:4;stroke-dasharray:none;stroke-opacity:1;visibility:visible"/><path d="m332.497 837.64-.082.032-.088.025-.094.016-.106.014h-.11l-.104-.006-.113-.008-.105-.023-.087-.024-.086-.032-.075-.043-.056-.048-.038-.046-.034-.05-.008-.046.009-.051.024-.047M337.255 835.16l.027.05.005.037-.005.051-.027.039-.03.049-.055.03-.058.041-4.615 2.184M330.08 835.24l-.12-.046-.136-.039-.137-.034-.142-.032-.155-.015-.16-.017h-.303l-.153.017-.15.016-.136.03-.138.035-.119.047-.105.048-.096.048-.079.063-.064.064-.047.065-.03.07-.021.065.01.071.018.074.038.07.056.067.072.069.088.058.104.056.112.055.128.04.136.04.144.032.152.023.15.017.157.008h.156l.151-.008.155-.017.135-.023.136-.032.128-.04.122-.047.093-.047.09-.058.07-.063.065-.064.033-.065.024-.071.008-.073-.017-.071-.03-.073-.05-.063-.063-.073-.08-.057-.097-.062-.103-.057M325.855 834.169l.088-.05.08-.062.057-.058.046-.062.034-.067.015-.068v-.065l-.022-.067-.035-.07-.048-.065-.063-.062-.07-.055-.097-.058-.105-.057M325.737 833.303l-.104-.037-.113-.041-.121-.035-.118-.023-.127-.024-.137-.013-.137-.011" style="fill:none;stroke:red;stroke-width:.666665;stroke-linecap:round;stroke-linejoin:round;stroke-miterlimit:4;stroke-dasharray:none;stroke-opacity:1;visibility:visible"/><path d="m80.664 946.384-.352-.186" style="fill:none;stroke:red;stroke-width:.999997;stroke-linecap:round;stroke-linejoin:round;stroke-miterlimit:4;stroke-dasharray:none;stroke-opacity:1;visibility:visible"/><path d="m67.345 945.464.008.048.023.04.041.039.057.033M67.61 945.703l-.138-.08" style="fill:none;stroke:red;stroke-width:1.99999;stroke-linecap:round;stroke-linejoin:round;stroke-miterlimit:4;stroke-dasharray:none;stroke-opacity:1;visibility:visible"/><path d="m80.664 946.384.04-.016h.042l.038.016M80.44 946.191l-.04-.008h-.04l-.048.015M80.312 946.2l-.03-.018-.034-.009-.03.011" style="fill:none;stroke:red;stroke-width:.999997;stroke-linecap:round;stroke-linejoin:round;stroke-miterlimit:4;stroke-dasharray:none;stroke-opacity:1;visibility:visible"/><path d="M67.648 945.711h-.024l-.015-.01" style="fill:none;stroke:red;stroke-width:1.99999;stroke-linecap:round;stroke-linejoin:round;stroke-miterlimit:4;stroke-dasharray:none;stroke-opacity:1;visibility:visible"/><path d="m80.664 946.384.01.007.006.019" style="fill:none;stroke:red;stroke-width:.999997;stroke-linecap:round;stroke-linejoin:round;stroke-miterlimit:4;stroke-dasharray:none;stroke-opacity:1;visibility:visible"/><path d="m327.505 829.929.008-.007.007-.01.017-.011.016-.011.024-.025.013-.023.027-.032.016-.024.014-.04.008-.01v-.016l.018-.015.007-.03.009-.035.009-.042v-.037M327.695 829.558l.016-.158.01-.17.005-.16.01-.167v-.166M327.746 828.737l.136-4.56M68.104 955.871h0" style="fill:none;stroke:red;stroke-width:1.99999;stroke-linecap:round;stroke-linejoin:round;stroke-miterlimit:4;stroke-dasharray:none;stroke-opacity:1;visibility:visible"/><path d="m326.889 830.23.12-.06.129-.06.117-.064.128-.055.122-.064" style="fill:none;stroke:red;stroke-width:.999997;stroke-linecap:round;stroke-linejoin:round;stroke-miterlimit:4;stroke-dasharray:none;stroke-opacity:1;visibility:visible"/><path d="m319.703 833.783.017-.086M319.72 833.697v-.018h.006v-.019h.011v-.02h.009v-.017h.004v-.008h.01v-.005l.007-.008v-.01h.008v-.006h.008v-.008h.008v-.01h.01l.008-.009h.008v-.006h.016v-.008h.007M326.889 830.23l-7.049 3.313" style="fill:none;stroke:red;stroke-width:1.99999;stroke-linecap:round;stroke-linejoin:round;stroke-miterlimit:4;stroke-dasharray:none;stroke-opacity:1;visibility:visible"/><path d="m194.416 1024.99-.543-.251M207.431 1018.374h0M193.873 1024.736h-.01" style="fill:none;stroke:red;stroke-width:.999997;stroke-linecap:round;stroke-linejoin:round;stroke-miterlimit:4;stroke-dasharray:none;stroke-opacity:1;visibility:visible"/><path d="m197.505 1012.327-.513-.319" style="fill:none;stroke:red;stroke-width:1.99999;stroke-linecap:round;stroke-linejoin:round;stroke-miterlimit:4;stroke-dasharray:none;stroke-opacity:1;visibility:visible"/><path d="m207.225 1014.488-.515-.318" style="fill:none;stroke:red;stroke-width:.999997;stroke-linecap:round;stroke-linejoin:round;stroke-miterlimit:4;stroke-dasharray:none;stroke-opacity:1;visibility:visible"/><path d="m196.776 1012.016.033-.016.031-.01.033-.004h.064l.023.014.03.008M195.304 1024.943l-.104.047-.095.036-.107.03-.102.014h-.192l-.104-.014-.088-.025-.08-.032M197.505 1012.327l.055.048.057.047.039.066.033.063.023.073.008.07.008.056M207.217 1018.727l-11.913 6.216M197.728 1012.752l-.008 2.15M207.431 1018.374l-.008.066-.016.063-.024.055-.032.056-.048.05-.048.038-.038.025" style="fill:none;stroke:red;stroke-width:1.99999;stroke-linecap:round;stroke-linejoin:round;stroke-miterlimit:4;stroke-dasharray:none;stroke-opacity:1;visibility:visible"/><path d="m207.225 1014.488.055.038.047.046.048.068.035.06.02.076.01.07v.056l-.009 3.472" style="fill:none;stroke:red;stroke-width:1.99999;stroke-linecap:round;stroke-linejoin:round;stroke-miterlimit:4;stroke-dasharray:none;stroke-opacity:1;visibility:visible"/><path d="m206.497 1014.17.03-.012.034-.015h.029l.035-.007.03.007.026.007.029.02M193.48 1023.95v.009M206.497 1014.17l-.88.454M196.776 1012.016l-.88.455" style="fill:none;stroke:red;stroke-width:.999997;stroke-linecap:round;stroke-linejoin:round;stroke-miterlimit:4;stroke-dasharray:none;stroke-opacity:1;visibility:visible"/><path d="m193.849 1024.727-.039-.024-.065-.048-.048-.048-.047-.057-.04-.062-.041-.065-.03-.08-.025-.079-.017-.094-.013-.107v-.105" style="fill:none;stroke:red;stroke-width:1.99999;stroke-linecap:round;stroke-linejoin:round;stroke-miterlimit:4;stroke-dasharray:none;stroke-opacity:1;visibility:visible"/><path d="m81.537 949.36-.09.05-.087.036" style="fill:none;stroke:red;stroke-width:.666665;stroke-linecap:round;stroke-linejoin:round;stroke-miterlimit:4;stroke-dasharray:none;stroke-opacity:1;visibility:visible"/><path d="m80.697 946.4.04-.016h.047l.034.016M194.112 1024.646h0M85.864 951.703l-.112.068-.128.045-.135.048" style="fill:none;stroke:red;stroke-width:.999997;stroke-linecap:round;stroke-linejoin:round;stroke-miterlimit:4;stroke-dasharray:none;stroke-opacity:1;visibility:visible"/><path d="m86.268 949.34 120.205 64.843M84 951.063l1.49.801M68.225 955.936l125.345 68.487" style="fill:none;stroke:red;stroke-width:1.99999;stroke-linecap:round;stroke-linejoin:round;stroke-miterlimit:4;stroke-dasharray:none;stroke-opacity:1;visibility:visible"/><path d="m320.095 840.415.016-.014.015-.011.019-.003.015-.01.018-.01.021-.007.018-.015.017-.01.013-.005.016-.008.018-.01.014-.01h.016l.016-.007.024-.005.016-.011.016-.005.018-.008h.014l.025-.01.017-.01.016-.008h.016l.021-.005.017-.01h.018l.017-.006h.021l.017-.007h.018l.012-.01h.025l.019-.008h.036l.02-.009h.037l.018-.006h.294l.024.006h.058l.017.008h.039l.017.01h.013l.016.009h.027l.013.007h.017l.025.006h.014l.016.01.016.005h.024l.016.01.016.006.015.012h.018l.026.008.013.005.018.011.016.005.014.008h.016l.027.008.013.011.017.007.015.006.019.015.013.01.016.006.017.011.015.01.016.004.016.01.018.014.013.008.019.011.016.008.014.015.016.008M321.863 840.465l.048.038.04.032.04.04.024.05.025.037.007.043v.008M323.967 838.586l.016-.008.015-.017.017-.008.016-.008.019-.01.012-.005.017-.008.016-.01.015-.008.016-.004.019-.01.022-.011.016-.006.017-.007.017-.008.013-.01.017-.007h.026l.014-.009.016-.008.017-.007h.015l.025-.008.015-.009h.015l.017-.01h.026l.013-.004h.016l.028-.01h.013l.017-.008h.017l.022-.009h.032l.024-.006h.072l.016-.008h.208l.016.008h.08l.016.006h.039l.017.011h.016l.023.005h.019l.016.011h.014l.024.005h.019l.013.01h.017l.023.008.017.008.015.006h.016l.024.01.016.009.016.005h.016l.015.011.025.008.017.007.014.006.019.011.017.009.013.004.017.01.017.009.013.007.025.006.016.01.016.008.016.016.017.009.017.008.013.005.017.02.016.003.01.01.013.018M325.727 838.64l.048.03.042.041.04.04.023.04.025.042.008.046h.009" style="fill:none;stroke:red;stroke-width:.999997;stroke-linecap:round;stroke-linejoin:round;stroke-miterlimit:4;stroke-dasharray:none;stroke-opacity:1;visibility:visible"/><path d="m89.76 949.35.016-.015.014-.008.02-.007.014-.008.018-.009.014-.015.017-.008.025-.009.014-.005.016-.01.017-.009.015-.007.016-.012.016-.004.024-.01.016-.004.016-.01.017-.01.015-.006h.024l.016-.008.017-.008.016-.01h.023l.016-.004.017-.01.023-.01h.016l.016-.006h.016l.024-.008h.016l.017-.008h.023l.016-.009h.016l.024-.005h.032l.025-.01h.039l.016-.01h.072l.024-.008h.152l.014.01h.1l.013.007h.042l.015.01H91l.024.007h.016l.016.009h.024l.016.005h.016l.014.012h.027l.017.004.014.009h.025l.016.01.015.006.016.009h.024l.016.008.016.008.016.007.024.009h.016l.016.01.014.005.018.009.016.004.022.012.02.007.014.01.018.008.014.014.017.011.016.004.015.009M91.57 949.303l.062.041.058.04.047.04.039.047.036.05.021.046.017.048.007.05v.025" style="fill:none;stroke:red;stroke-width:.666665;stroke-linecap:round;stroke-linejoin:round;stroke-miterlimit:4;stroke-dasharray:none;stroke-opacity:1;visibility:visible"/><path d="m96.2 947.12.056.032.056.051.048.037.038.05.034.038.022.047.02.056.006.05v.022" style="fill:none;stroke:red;stroke-width:.999997;stroke-linecap:round;stroke-linejoin:round;stroke-miterlimit:4;stroke-dasharray:none;stroke-opacity:1;visibility:visible"/><path d="m94.384 947.158.016-.008.024-.007.016-.013.016-.01.017-.009.017-.007.015-.009.017-.008.015-.007.016-.016.017-.01.022-.008.017-.007.016-.008.015-.007h.016l.017-.008.023-.008.016-.01.016-.008.017-.007h.023l.016-.008.016-.005.017-.01h.024l.015-.01.017-.007h.024l.015-.008h.016l.025-.008h.015l.016-.007h.025l.015-.008h.016l.024-.009h.032l.024-.007h.057l.015-.01h.264l.024.01h.057l.016.007h.039l.017.01h.039l.016.005h.025l.015.009h.016l.025.008h.015l.016.008.016.008h.025l.016.009.017.01h.014l.025.006.017.007.014.008.017.007h.025l.014.01.016.008.017.008.015.007.024.009.016.006.016.008.016.01.016.007.017.01.016.005.025.009.016.016.014.01" style="fill:none;stroke:red;stroke-width:.666665;stroke-linecap:round;stroke-linejoin:round;stroke-miterlimit:4;stroke-dasharray:none;stroke-opacity:1;visibility:visible"/><path d="m326.247 837.425-.037-.026-.043-.038-.041-.048-.021-.055-.323-.859M327.655 838.057l-1.408-.635M328.711 837.609l-.03-.011-.041-.008-.03.019M329.545 838.135l-.018-.055-.022-.057-.032-.048-.05-.037-.04-.036-.672-.292M329.489 841.105l.056-.306.045-.309.036-.321.013-.329.008-.326-.007-.336-.023-.347-.034-.341-.038-.355M329.36 841.289l.037-.032.043-.043.033-.047.016-.064M324.303 832.238l-.048-.024-.045-.004M324.209 832.21l-.031-.008h-.025l-.027.008h-.016l-.023.005-.024.01M324.575 832.36l.072.04.066.058.056.061.04.082.038.096.026.102.007.115.007.117M324.975 835.938l-.048-.025-.037-.04-.035-.048-.021-.055-.017-.059v-.054l.073-2.624" style="fill:none;stroke:red;stroke-width:.999997;stroke-linecap:round;stroke-linejoin:round;stroke-miterlimit:4;stroke-dasharray:none;stroke-opacity:1;visibility:visible"/><path d="m325.783 836.4-.023-.054-.033-.051-.037-.032-.043-.03-.67-.296" style="fill:none;stroke:red;stroke-width:.999997;stroke-linecap:round;stroke-linejoin:round;stroke-miterlimit:4;stroke-dasharray:none;stroke-opacity:1;visibility:visible"/><path d="m319.975 833.705-.03-.015h-.033l-.031.007M320.462 833.92l-.487-.216" style="fill:none;stroke:red;stroke-width:1.99999;stroke-linecap:round;stroke-linejoin:round;stroke-miterlimit:4;stroke-dasharray:none;stroke-opacity:1;visibility:visible"/><path d="m80.585 946.2-.024.017-.015.031" style="fill:none;stroke:red;stroke-width:.999997;stroke-linecap:round;stroke-linejoin:round;stroke-miterlimit:4;stroke-dasharray:none;stroke-opacity:1;visibility:visible"/><path d="M93.6 953.296 329.36 841.29" style="fill:none;stroke:red;stroke-width:1.99999;stroke-linecap:round;stroke-linejoin:round;stroke-miterlimit:4;stroke-dasharray:none;stroke-opacity:1;visibility:visible"/><path d="m320.462 833.92 3.6-1.696M327.655 838.057l.955-.448" style="fill:none;stroke:red;stroke-width:.999997;stroke-linecap:round;stroke-linejoin:round;stroke-miterlimit:4;stroke-dasharray:none;stroke-opacity:1;visibility:visible"/><path d="m80.585 946.2 239.297-112.504" style="fill:none;stroke:red;stroke-width:1.99999;stroke-linecap:round;stroke-linejoin:round;stroke-miterlimit:4;stroke-dasharray:none;stroke-opacity:1;visibility:visible"/><path d="m324.303 832.238.272.122" style="fill:none;stroke:red;stroke-width:.999997;stroke-linecap:round;stroke-linejoin:round;stroke-miterlimit:4;stroke-dasharray:none;stroke-opacity:1;visibility:visible"/><path d="m446.119 893.945-.533-.208M457.296 877.945l-.506-.255" style="fill:none;stroke:red;stroke-width:1.99999;stroke-linecap:round;stroke-linejoin:round;stroke-miterlimit:4;stroke-dasharray:none;stroke-opacity:1;visibility:visible"/><path d="M446.498 893.92h0l-.056.016-.052.021-.052.012h-.106l-.046-.012-.067-.012" style="fill:none;stroke:red;stroke-width:.999997;stroke-linecap:round;stroke-linejoin:round;stroke-miterlimit:4;stroke-dasharray:none;stroke-opacity:1;visibility:visible"/><path d="m457.296 877.945.064.038.049.043.038.054.043.055.022.056.016.07.01.049v.057M457.03 887.456l.509-9.086M457.03 887.457l-.014.1-.014.113-.027.105-.03.112-.032.098-.041.105-.046.093-.05.097-.056.078-.056.09-.064.079-.062.071-.082.073-.081.066-.079.063-.086.046M446.498 893.92l9.712-5.074" style="fill:none;stroke:red;stroke-width:1.99999;stroke-linecap:round;stroke-linejoin:round;stroke-miterlimit:4;stroke-dasharray:none;stroke-opacity:1;visibility:visible"/><path d="m445.575 893.737-.023-.015-.024-.027-.025-.024-.013-.03-.008-.039-.01-.044v-.045M445.472 893.513l.04-.755M456.63 877.697l.029-.018.028-.008h.056l.027.009h.014" style="fill:none;stroke:red;stroke-width:.999997;stroke-linecap:round;stroke-linejoin:round;stroke-miterlimit:4;stroke-dasharray:none;stroke-opacity:1;visibility:visible"/><path d="m324.849 834.37.141-.01.148-.008.135-.014.136-.017.12-.034.12-.029.114-.04.094-.048" style="fill:none;stroke:red;stroke-width:.666665;stroke-linecap:round;stroke-linejoin:round;stroke-miterlimit:4;stroke-dasharray:none;stroke-opacity:1;visibility:visible"/><path d="m320.327 833.713-.037.026-.035.031-.03.04" style="fill:none;stroke:red;stroke-width:1.99999;stroke-linecap:round;stroke-linejoin:round;stroke-miterlimit:4;stroke-dasharray:none;stroke-opacity:1;visibility:visible"/><path d="m325.855 834.169.04-.05.025-.038.018-.051" style="fill:none;stroke:red;stroke-width:.666665;stroke-linecap:round;stroke-linejoin:round;stroke-miterlimit:4;stroke-dasharray:none;stroke-opacity:1;visibility:visible"/><path d="m67.345 945.464.008-.046.008-.06.023-.046.025-.046.039-.042.05-.04M68.104 955.871l-.08-.047-.079-.068-.064-.06-.064-.081-.057-.082-.04-.093-.032-.082-.032-.086-.016-.097-.015-.095M67.625 955.08l-.015-.168-.016-.168-.009-.17-.008-.167-.007-.161M67.57 954.247l-.226-8.781M68.104 955.871l.082.049M340.2 826.4l116.384 51.319M329.153 841.385l116.32 52.174" style="fill:none;stroke:red;stroke-width:1.99999;stroke-linecap:round;stroke-linejoin:round;stroke-miterlimit:4;stroke-dasharray:none;stroke-opacity:1;visibility:visible"/><path d="M80.217 946.183h.016v-.01h.023v-.003h.042l.006-.012h.033l.008.012h.039v.004h.026v.01h.014l.008.006h.008M80.44 946.191l.344.195" style="fill:none;stroke:red;stroke-width:.999997;stroke-linecap:round;stroke-linejoin:round;stroke-miterlimit:4;stroke-dasharray:none;stroke-opacity:1;visibility:visible"/><path d="m68.21 955.927-.027-.007" style="fill:none;stroke:red;stroke-width:1.99999;stroke-linecap:round;stroke-linejoin:round;stroke-miterlimit:4;stroke-dasharray:none;stroke-opacity:1;visibility:visible"/><path d="m80.817 946.4 5.45 2.94M80.784 946.384l.016.007" style="fill:none;stroke:red;stroke-width:.999997;stroke-linecap:round;stroke-linejoin:round;stroke-miterlimit:4;stroke-dasharray:none;stroke-opacity:1;visibility:visible"/><path d="M330.978 835.525c0 .485-.815.881-1.821.881-1.007 0-1.82-.395-1.82-.881 0-.487.813-.882 1.82-.882 1.006 0 1.82.395 1.82.882" style="fill:none;fill-opacity:1;fill-rule:nonzero;stroke:red;stroke-width:1.33333;visibility:visible"/><path d="M328.04 834.889a1.305 1.305 0 0 0-.52.309M327.52 835.2a.321.321 0 0 0-.098.221M330.87 835.471l-.001.191M327.423 835.422l-.001.19M330.773 835.885a.313.313 0 0 0 .096-.223M327.422 835.61a.32.32 0 0 0 .09.227M327.513 835.837a1.324 1.324 0 0 0 .506.322M328.018 836.16a3.547 3.547 0 0 0 2.236.034M330.254 836.193a1.303 1.303 0 0 0 .519-.308M329.723 835.454l-.29.201M328.831 835.64l-.257-.203M329.433 835.654l-.603-.016M330.87 835.471a.31.31 0 0 0-.087-.225M330.782 835.246a1.323 1.323 0 0 0-.508-.324" style="fill:none;stroke:red;stroke-width:.666665;stroke-linecap:round;stroke-linejoin:round;stroke-miterlimit:2;stroke-dasharray:none;stroke-opacity:1;visibility:visible"/><path d="M330.274 834.923a3.405 3.405 0 0 0-1.117-.197 3.493 3.493 0 0 0-1.12.164" style="fill:none;stroke:red;stroke-width:.666665;stroke-linecap:round;stroke-linejoin:round;stroke-miterlimit:2;stroke-dasharray:none;stroke-opacity:1;visibility:visible"/><path d="M335.684 831.17c-.58.25-1.42-.28-1.88-1.184-.458-.9-.36-1.833.224-2.083.578-.246 1.42.282 1.88 1.184.456.903.36 1.835-.224 2.083" style="fill:none;fill-opacity:1;fill-rule:nonzero;stroke:red;stroke-width:1.33333;visibility:visible"/><path d="m335.7 831.047-.229.095M334.19 827.931l-.226.095M335.164 831.169a.48.48 0 0 0 .307-.029M333.964 828.026a.467.467 0 0 0-.228.196M333.736 828.222a1.207 1.207 0 0 0-.154.618M333.58 828.84a2.7 2.7 0 0 0 .274 1.103c.165.343.404.654.705.92M334.56 830.862c.16.143.367.25.602.305M335.2 830.009l-.374-.159M334.572 829.303l.123-.333M334.826 829.851l-.25-.548M335.7 831.047a.448.448 0 0 0 .228-.194M335.928 830.851a1.188 1.188 0 0 0 .155-.62M336.083 830.23a2.737 2.737 0 0 0-.272-1.1 3.006 3.006 0 0 0-.701-.92M335.106 828.211a1.421 1.421 0 0 0-.607-.306M334.5 827.903a.493.493 0 0 0-.308.028" style="fill:none;stroke:red;stroke-width:.666665;stroke-linecap:round;stroke-linejoin:round;stroke-miterlimit:2;stroke-dasharray:none;stroke-opacity:1;visibility:visible"/><path d="m329.923 823.803-.016-.033v-.031" style="fill:none;stroke:red;stroke-width:.999997;stroke-linecap:round;stroke-linejoin:round;stroke-miterlimit:4;stroke-dasharray:none;stroke-opacity:1;visibility:visible"/><path d="m336.132 822.402.103.056.096.064.095.078.094.1.084.102.071.119.073.119.044.13.048.126.038.134.012.133.006.127-.014.12-.015.11-.032.106-.05.096-.055.079-.069.062-.084.05-.081.04-.093.017h-.096l-.095-.017-.106-.034-.103-.048-.096-.061-.103-.071-.089-.099-.09-.103-.07-.114M336.282 817.338l.104.055.094.062.1.082.095.096.079.112.082.11.063.123.055.128.041.134.033.13.014.127.01.126-.018.13-.014.113-.04.101-.049.09-.054.082-.07.068-.075.05-.088.032-.094.017-.1.007-.095-.024-.101-.032-.108-.05-.106-.062-.093-.082-.084-.096-.093-.096-.076-.118" style="fill:none;stroke:red;stroke-width:.666665;stroke-linecap:round;stroke-linejoin:round;stroke-miterlimit:4;stroke-dasharray:none;stroke-opacity:1;visibility:visible"/><path d="m335.86 823.193.047.032.056.041.04.065.037.062.026.064.016.073v.073l-.007.057-.023.06-.042.03-.04.028-.047.005-.056-.005-.057-.027-.058-.033-.045-.058-.041-.057-.03-.073-.018-.073-.007-.064v-.068l.024-.059.027-.041.036-.032.05-.016h.056l.056.016M335.386 823.48l-.04-.13-.024-.124-.008-.13v-.128l.018-.11.024-.113.039-.098.047-.085.067-.07.071-.068.08-.039.08-.035.094-.007h.099l.101.027.101.03M340.923 662.748l.103.05.094.062.108.07.086.096.09.104.076.114.068.126.056.128.047.136.03.136.016.138.011.128-.011.133-.017.121-.04.111-.036.107-.056.086-.073.08-.08.066-.088.045-.085.028-.107.015-.095-.01-.106-.023-.11-.042-.097-.055-.103-.073-.097-.075-.087-.108-.08-.104-.073-.118-.064-.127-.057-.14-.03-.133-.035-.138-.006-.134v-.13l.016-.128.024-.12.037-.105.051-.095.064-.088.073-.069.086-.048.086-.043.1-.02h.1l.106.013.105.033M331.205 816.233l.005.065v.064l-.02.048-.02.048-.037.03-.043.027M336.01 818.13l.048.03.055.04.037.066.045.063.025.065.015.072v.07l-.01.058-.019.053-.043.043-.041.023-.047.007-.057-.007-.055-.024-.056-.042-.046-.054-.042-.056-.035-.07-.014-.074-.008-.063v-.065l.022-.065.027-.04.04-.03.047-.017h.056l.056.017M335.536 818.425l-.028-.13-.033-.125-.01-.13v-.127l.015-.113.028-.11.04-.097.046-.087.066-.081.062-.056.082-.047.09-.032.092-.01h.096l.102.017.1.042M340.754 668.13l.106.048.103.063.103.081.088.094.088.106.072.112.072.118.057.137.05.128.029.135.018.138.01.135-.012.125-.027.123-.03.121-.048.096-.055.094-.064.073-.079.064-.088.047-.087.026-.108.016-.1-.009-.105-.023-.105-.04-.103-.058-.096-.07-.096-.078-.087-.107-.08-.104-.073-.119-.067-.13-.054-.134-.032-.137-.03-.136-.014-.128v-.135l.013-.13.03-.11.041-.117.046-.092.067-.081.073-.07.087-.057.087-.039.096-.015h.098l.103.006.103.033" style="fill:none;stroke:red;stroke-width:.666665;stroke-linecap:round;stroke-linejoin:round;stroke-miterlimit:4;stroke-dasharray:none;stroke-opacity:1;visibility:visible"/><path d="m340.635 663.562.056.032.057.038.036.06.042.068.024.073.017.072v.073l-.007.062-.025.056-.043.05-.038.021-.056.017-.056-.007-.056-.016-.054-.04-.052-.048-.04-.065-.03-.07-.024-.074-.007-.071.007-.072.017-.063.032-.05.041-.04.044-.016.058-.007.057.017M340.476 668.953l.056.027.046.046.048.055.042.067.023.07.016.072v.075l-.01.068-.021.057-.041.042-.05.03-.045.008h-.06l-.054-.024-.056-.04-.047-.049-.041-.063-.04-.064-.015-.08-.005-.073.005-.072.015-.055.036-.048.036-.04.05-.024h.054l.058.015" style="fill:none;stroke:red;stroke-width:.666665;stroke-linecap:round;stroke-linejoin:round;stroke-miterlimit:4;stroke-dasharray:none;stroke-opacity:1;visibility:visible"/><path d="m76.116 769.4-.252.15-.276.147-.288.143-.303.14-.312.125-.328.128-.344.119-.352.114-.36.104M76.164 769.329l-.008.024-.016.025-.024.022M73.885 768.984l.048.026.064.006.063.008.074-.008.95-.103M73.797 768.952l.088.03M63.197 766.12l-.05-.027-.047-.035-.024-.041-.008-.037M72.644 770.537l-9.447-4.417M76.877 950.344l-4.233-179.807M73.301 770.569l-.095.016-.098.013h-.104l-.104-.005-.095-.008-.087-.023-.073-.025" style="fill:none;stroke:red;stroke-width:.999997;stroke-linecap:round;stroke-linejoin:round;stroke-miterlimit:4;stroke-dasharray:none;stroke-opacity:1;visibility:visible"/><path d="m336.476 655.995-.082-.043-.08-.055-.072-.064-.07-.085-.066-.088-.046-.108-.042-.104-.024-.108-.015-.106v-.104l.015-.105.024-.087.042-.08.047-.072.064-.054.064-.032.079-.027h.08l.082.017.076.025.09.049.07.064.072.08.076.085.054.097.038.103.034.107.022.112.012.101-.01.104-.025.1-.033.086-.038.07-.054.065-.068.047-.068.024-.082.016-.079-.005-.087-.025" style="fill:none;stroke:red;stroke-width:.666665;stroke-linecap:round;stroke-linejoin:round;stroke-miterlimit:4;stroke-dasharray:none;stroke-opacity:1;visibility:visible"/><path d="m335.466 651.939.776.286" style="fill:none;stroke:red;stroke-width:1.99999;stroke-linecap:round;stroke-linejoin:round;stroke-miterlimit:4;stroke-dasharray:none;stroke-opacity:1;visibility:visible"/><path d="m342.26 660.793.18-6.056M339.666 660.001l.184-6.233M337.81 653.001l-.08.039M338.152 653.05l.032-.025.011-.024M338.152 653.05l-.014.01M338.138 653.059l-.018.017v.013l.012.016.02.016M338.152 653.121l.032.01" style="fill:none;stroke:red;stroke-width:.999997;stroke-linecap:round;stroke-linejoin:round;stroke-miterlimit:4;stroke-dasharray:none;stroke-opacity:1;visibility:visible"/><path d="m340.98 657.69-.085-.043-.077-.055-.08-.063-.063-.088-.063-.09-.049-.102-.043-.103-.022-.111-.018-.107v-.101l.018-.106.022-.086.043-.085.05-.07.061-.055.064-.03.08-.025h.078l.084.01.086.03.081.048.081.066.07.076.065.09.057.094.04.106.038.105.012.111.013.106-.012.104-.013.094-.032.086-.047.074-.056.064-.065.048-.07.023-.08.017-.083-.006-.086-.026" style="fill:none;stroke:red;stroke-width:.666665;stroke-linecap:round;stroke-linejoin:round;stroke-miterlimit:4;stroke-dasharray:none;stroke-opacity:1;visibility:visible"/><path d="m335.907 651.748-.083-.019h-.076l-.082.019-.087.03M335.298 651.69l.281.09M335.06 651.873v.032l.023.04.029.035.052.023.063.032" style="fill:none;stroke:red;stroke-width:1.99999;stroke-linecap:round;stroke-linejoin:round;stroke-miterlimit:4;stroke-dasharray:none;stroke-opacity:1;visibility:visible"/><path d="M334.738 658.017h.13l.054.01.05.014M337.507 659.521l.193-6.431M338.152 653.121v-.071M338.138 653.105v-.047" style="fill:none;stroke:red;stroke-width:.999997;stroke-linecap:round;stroke-linejoin:round;stroke-miterlimit:4;stroke-dasharray:none;stroke-opacity:1;visibility:visible"/><path d="m332.763 657.905.007.028.023.019.043.026M345.22 660.752l.04-.024.023-.032.01-.03" style="fill:none;stroke:red;stroke-width:1.99999;stroke-linecap:round;stroke-linejoin:round;stroke-miterlimit:4;stroke-dasharray:none;stroke-opacity:1;visibility:visible"/><path d="m337.404 659.825-2.058.833M335.346 660.658l-.094.048-.098.064-.095.071-.095.097-.079.104-.08.122-.072.116-.066.137-.046.136M337.395 659.697l.03.021.038.02.004.022-.005.024-.02.025-.038.016M336.692 659.434l.703.263M337.395 659.697l-.01.137M336.626 659.348l-.007.022.007.024.033.024.032.015M336.754 658.905l.038.015.034.026.01.022-.01.024-.2.354M334.883 658.194l1.87.711M336.754 658.905v.216M334.66 658.17h.12l.055.007.048.021M333.752 658.257l.908-.087M334.66 658.17l-4.76 165.567M333.523 658.233l.045.017.067.007.056.005.062-.005M332.837 657.98l.687.252" style="fill:none;stroke:red;stroke-width:.999997;stroke-linecap:round;stroke-linejoin:round;stroke-miterlimit:4;stroke-dasharray:none;stroke-opacity:1;visibility:visible"/><path d="M329.858 826.145v-.038l.01-.036.008-.03.004-.039.01-.032.008-.037" style="fill:none;stroke:red;stroke-width:1.99999;stroke-linecap:round;stroke-linejoin:round;stroke-miterlimit:4;stroke-dasharray:none;stroke-opacity:1;visibility:visible"/><path d="m334.62 661.553-.024.088-.016.097v.076l.007.092.008.091.016.093" style="fill:none;stroke:red;stroke-width:.999997;stroke-linecap:round;stroke-linejoin:round;stroke-miterlimit:4;stroke-dasharray:none;stroke-opacity:1;visibility:visible"/><path d="m330.393 826.689-.06-.03-.056-.051-.05-.055-.041-.063-.039-.075" style="fill:none;stroke:red;stroke-width:1.99999;stroke-linecap:round;stroke-linejoin:round;stroke-miterlimit:4;stroke-dasharray:none;stroke-opacity:1;visibility:visible"/><path d="m337.68 659.93-4.86 165.791" style="fill:none;stroke:red;stroke-width:.999997;stroke-linecap:round;stroke-linejoin:round;stroke-miterlimit:4;stroke-dasharray:none;stroke-opacity:1;visibility:visible"/><path d="m333.122 745.12.012-.11.02-.113.032-.12.041-.112.056-.103.065-.098.072-.088.073-.078.077-.065.08-.05.083-.033.08-.004h.079l.062.024.066.03.056.057.038.072.038.081.018.088.008.1v.114l-.014.112-.024.113-.042.112-.048.113-.064.102-.06.098-.074.079-.082.072-.077.057-.083.04-.075.015-.084.01-.073-.011-.061-.031-.057-.05-.05-.054-.041-.079-.032-.09-.015-.092v-.108M331.051 816.77l.009-.112.022-.11.03-.115.042-.111.056-.104.065-.095.065-.089.08-.081.073-.063.077-.05.08-.03.083-.015h.072l.072.015.062.041.047.046.05.065.03.079.025.089.007.095-.008.105-.012.11-.028.114-.039.111-.045.112-.056.096-.068.096-.072.078-.08.075-.079.056-.078.05-.083.019-.07.01-.073-.015-.065-.025-.062-.039-.045-.056-.037-.075-.03-.084-.018-.097v-.096M335.26 671.348l.007-.112.017-.122.038-.112.041-.112.057-.113.061-.096.074-.087.08-.078.079-.067.08-.037.083-.035.077-.005h.081l.072.025.057.044.057.057.046.072.03.08.027.102.009.108v.11l-.02.112-.029.122-.042.112-.047.11-.057.106-.072.097-.072.079-.084.072-.075.053-.082.033-.087.024h-.072l-.082-.016-.06-.032-.055-.048-.057-.062-.042-.083-.023-.084-.014-.107v-.11" style="fill:none;stroke:red;stroke-width:.666665;stroke-linecap:round;stroke-linejoin:round;stroke-miterlimit:4;stroke-dasharray:none;stroke-opacity:1;visibility:visible"/><path d="m67.597 764.073.095.007.097-.007.081-.03.078-.043.065-.063.057-.081.046-.094.03-.114.026-.118.008-.13-.008-.133-.016-.146-.03-.143-.051-.138-.057-.142-.06-.13-.08-.128-.083-.118-.087-.097-.096-.087-.098-.074-.102-.056-.096-.04-.098-.016h-.093l-.09.016-.076.04-.074.056-.057.074M68.852 768.508l-.19-7.946M71.077 761.433l-.16-.07M341.82 661.33l-4.994 165.401M342.883 661.674l.304-.082.305-.086.286-.089.272-.097.264-.104.25-.112.231-.112.227-.12.198-.12M342.586 661.668l.056.014.056.01h.128l.057-.016M341.9 661.401l.686.264M341.826 661.316l-.006.024.006.022.032.016.041.023M341.955 660.868l.039.025.026.013.018.024-.01.023-.203.364M340.075 660.152l1.879.714M341.955 660.868l-.008.222M340.075 660.152l-4.942 165.827" style="fill:none;stroke:red;stroke-width:.999997;stroke-linecap:round;stroke-linejoin:round;stroke-miterlimit:4;stroke-dasharray:none;stroke-opacity:1;visibility:visible"/><path d="M73.213 762.784v-.111" style="fill:none;stroke:red;stroke-width:1.99999;stroke-linecap:round;stroke-linejoin:round;stroke-miterlimit:4;stroke-dasharray:none;stroke-opacity:1;visibility:visible"/><path d="m70.546 761.297-.038.032-.016.023v.033l.025.032.04.023M70.546 761.297l.028-.017M70.573 761.28l.027-.014.004-.017-.015-.021-.024-.02M72.172 764.28l-.095-.08-.097-.062-.095-.057-.097-.031-.094-.018-.089.008-.077.02-.084.037-.072.053-.056.076M72.093 766.16l.055.009h.056" style="fill:none;stroke:red;stroke-width:.999997;stroke-linecap:round;stroke-linejoin:round;stroke-miterlimit:4;stroke-dasharray:none;stroke-opacity:1;visibility:visible"/><path d="m73.506 762.553-.294.12" style="fill:none;stroke:red;stroke-width:1.99999;stroke-linecap:round;stroke-linejoin:round;stroke-miterlimit:4;stroke-dasharray:none;stroke-opacity:1;visibility:visible"/><path d="m71.013 761.306.03-.026.027-.023v-.024M70.917 761.362l.096-.056" style="fill:none;stroke:red;stroke-width:.999997;stroke-linecap:round;stroke-linejoin:round;stroke-miterlimit:4;stroke-dasharray:none;stroke-opacity:1;visibility:visible"/><path d="m73.205 762.784.03-.016.027-.023v-.023l-.018-.022-.03-.027M66.308 759.217l-.296.123" style="fill:none;stroke:red;stroke-width:1.99999;stroke-linecap:round;stroke-linejoin:round;stroke-miterlimit:4;stroke-dasharray:none;stroke-opacity:1;visibility:visible"/><path d="m67.14 764.249.624-.249M66.364 762.32l.622-.247M71.637 766.345l.567-.23M70.862 764.41l.623-.25M66.78 764.226l.097.039.088.015.087-.006M66.333 762.338l-.072.058-.064.062-.05.079-.039.105-.028.106-.011.125v.13l.011.137.028.134.04.138.05.134.062.128.073.13.072.112.087.102.096.088.097.064.095.056M71.27 766.32l.093.03.095.02h.092M70.725 764.505l-.04.04-.048.08-.04.103-.024.112-.016.122v.126l.008.14.032.134.04.134.048.138.067.132.068.124.08.112.086.103.091.09.095.066.097.059M70.573 761.289l-.008-.081M71.021 761.4l-.008-.093M64.677 766.56v-.062M72.164 764.473l.008-.153.017-.143.024-.152.047-.152.048-.144.064-.145.08-.142.081-.13.088-.11.104-.106.093-.096.115-.071.103-.064M73.205 762.784l-.17.082M72.301 770.058l-.137-5.585M72.301 770.12v-.061" style="fill:none;stroke:red;stroke-width:.999997;stroke-linecap:round;stroke-linejoin:round;stroke-miterlimit:4;stroke-dasharray:none;stroke-opacity:1;visibility:visible"/><path d="M335.692 818.751v-.005l-.01-.008v-.008h-.006v-.007l-.009-.01v-.008l-.004-.007v-.01h-.01v-.014h-.011v-.017h-.006v-.01l-.009-.009v-.013h-.007v-.015h-.009v-.019h-.004v-.013h-.012v-.017l-.008-.007v-.019h-.007v-.013l-.01-.008v-.008l-.006-.006v-.02l-.009-.007v-.015h-.004v-.025h-.013v-.01M335.555 823.825h-.007v-.007l-.012-.008v-.007h-.004v-.008l-.006-.01v-.006l-.012-.009v-.01h-.006v-.013h-.01v-.017h-.006v-.01l-.012-.002v-.011l-.005-.011v-.006l-.007-.008v-.008l-.01-.01v-.016h-.008v-.015h-.009v-.016h-.006v-.015l-.009-.007v-.012l-.007-.005v-.015l-.007-.012v-.013h-.009v-.024h-.008v-.016l-.01-.008v-.01" style="fill:none;stroke:red;stroke-width:.666665;stroke-linecap:round;stroke-linejoin:round;stroke-miterlimit:4;stroke-dasharray:none;stroke-opacity:1;visibility:visible"/><path d="m73.724 765.868.088-.034M63.172 765.84l.232-.125.24-.129.25-.121.252-.112.274-.11M63.07 765.98l.006-.034.019-.041.038-.032.039-.033" style="fill:none;stroke:red;stroke-width:.999997;stroke-linecap:round;stroke-linejoin:round;stroke-miterlimit:4;stroke-dasharray:none;stroke-opacity:1;visibility:visible"/><path d="m74.67 765.952.085.056.089.072.074.088.06.096M74.978 766.265l.02.041.007.032.007.032.008.034.008.032v.037M74.388 765.825l-.103-.04-.113-.016h-.12l-.119.027-.121.037" style="fill:none;stroke:red;stroke-width:1.99999;stroke-linecap:round;stroke-linejoin:round;stroke-miterlimit:4;stroke-dasharray:none;stroke-opacity:1;visibility:visible"/><path d="m80.221 949.072-.25.168-.262.168-.275.162-.294.152-.304.144-.31.142-.329.13-.345.126-.344.114M76.1 769.258l.032.023.024.027.008.022M75.164 768.905h.13l.063.017.056.015.687.32M75.085 768.914l.081-.008" style="fill:none;stroke:red;stroke-width:.999997;stroke-linecap:round;stroke-linejoin:round;stroke-miterlimit:4;stroke-dasharray:none;stroke-opacity:1;visibility:visible"/><path d="m74.67 765.952-.283-.128M80.27 948.991 76.163 769.33M75.085 768.914l-.055-2.441M67.63 945.24l-4.56-179.262" style="fill:none;stroke:red;stroke-width:1.99999;stroke-linecap:round;stroke-linejoin:round;stroke-miterlimit:4;stroke-dasharray:none;stroke-opacity:1;visibility:visible"/><path d="m329.923 823.818-.153-.067" style="fill:none;stroke:red;stroke-width:.999997;stroke-linecap:round;stroke-linejoin:round;stroke-miterlimit:4;stroke-dasharray:none;stroke-opacity:1;visibility:visible"/><path d="m335.907 651.748-.281-.088M343.523 654.612l.24.101M334.883 658.017l.177-6.142M343.763 654.715l.079.037.07.058.066.07.057.084.04.086.032.1.025.108.014.122v.119M343.082 654.593l.085-.025.1-.005h.085l.091.014.08.035M342.914 654.648l.168-.055M344.146 655.499l-.152 5.136M344.106 661.05l-.04-.08-.032-.08-.024-.088-.018-.088v-.08M344.106 661.05l.016.04M342.914 654.648l-.038.019h-.105l-.05-.008-.039-.011M335.626 651.66l-.079-.02h-.081l-.082.02-.086.03M336.242 652.227l-.023-.104-.034-.09-.048-.086-.047-.074-.055-.056-.065-.036-.063-.031M335.298 651.69l-.135.063M335.164 651.752l-.051.032-.031.025-.015.031-.007.034M338.195 653.001l-.01-.025-.021-.024-.051-.024M338.186 653.13l1.352.504M339.536 653.635l.032.013h.083l.03-.008M339.68 653.641l.032-.006M340.018 653.648l-.055-.015-.065-.016h-.064l-.066.008-.056.008M336.242 652.227l1.87.702M340.018 653.648l2.662 1" style="fill:none;stroke:red;stroke-width:1.99999;stroke-linecap:round;stroke-linejoin:round;stroke-miterlimit:4;stroke-dasharray:none;stroke-opacity:1;visibility:visible"/><path d="m338.195 653.001-.01.13" style="fill:none;stroke:red;stroke-width:.999997;stroke-linecap:round;stroke-linejoin:round;stroke-miterlimit:4;stroke-dasharray:none;stroke-opacity:1;visibility:visible"/><path d="m332.793 657.868-.024.012-.005.025M334.907 656.97l-.281.08-.272.088-.255.088-.248.096-.241.095-.226.113-.204.104-.2.112-.187.122M345.292 660.666l-.009-.03-.02-.036-.027-.019-.05-.03-.052-.028-1.124-.425M340.106 826.647l.03-.027.027-.035.005-.039" style="fill:none;stroke:red;stroke-width:1.99999;stroke-linecap:round;stroke-linejoin:round;stroke-miterlimit:4;stroke-dasharray:none;stroke-opacity:1;visibility:visible"/><path d="M329.9 823.737h.014l.011-.008" style="fill:none;stroke:red;stroke-width:.999997;stroke-linecap:round;stroke-linejoin:round;stroke-miterlimit:4;stroke-dasharray:none;stroke-opacity:1;visibility:visible"/><path d="m330.826 826.658 1.992-.935M330.826 826.658l-.093.04-.091.016-.09.01-.074-.011-.085-.026M329.88 826.298l-.005-.027-.01-.021-.007-.025v-.08M329.88 826.3l.032.07.05.064.048.057.056.047.064.03" style="fill:none;stroke:red;stroke-width:1.99999;stroke-linecap:round;stroke-linejoin:round;stroke-miterlimit:4;stroke-dasharray:none;stroke-opacity:1;visibility:visible"/><path d="m337.84 827.69.298-.088.286-.099.282-.103.264-.11.256-.121.24-.119.233-.13.208-.136.199-.137M337.555 827.671l.05.027.061.007h.12l.056-.016M336.808 827.305l.01.025.021.03.052.02.665.29M333.81 826.026l.048.015.056.008.065.01.056-.011.872-.103M332.818 825.722l.05-.019.054-.008h.113l.056.008.046.027.673.296" style="fill:none;stroke:red;stroke-width:.999997;stroke-linecap:round;stroke-linejoin:round;stroke-miterlimit:4;stroke-dasharray:none;stroke-opacity:1;visibility:visible"/><path d="M332.763 657.905 328.07 823.44M345.292 660.666l-5.122 165.88" style="fill:none;stroke:red;stroke-width:1.99999;stroke-linecap:round;stroke-linejoin:round;stroke-miterlimit:4;stroke-dasharray:none;stroke-opacity:1;visibility:visible"/><path d="m336.826 826.73-.018.576M329.923 823.729l-.065 2.416" style="fill:none;stroke:red;stroke-width:.999997;stroke-linecap:round;stroke-linejoin:round;stroke-miterlimit:4;stroke-dasharray:none;stroke-opacity:1;visibility:visible"/><path d="m65.527 759.2.085-.025.107-.025.101-.005h.115l.102.005.104.02.089.023.08.023M73.653 762.722l-.008-.05-.032-.037-.045-.045-.058-.037M69.341 760.396l-.056-.028-.064-.006h-.144l-.064.014-.128.034-2.574-1.194" style="fill:none;stroke:red;stroke-width:1.99999;stroke-linecap:round;stroke-linejoin:round;stroke-miterlimit:4;stroke-dasharray:none;stroke-opacity:1;visibility:visible"/><path d="m71.07 761.233-.01-.025-.016-.023-.039-.023-1.664-.766M73.506 762.553l-2.43-1.12M330.393 826.689l-.26-.122" style="fill:none;stroke:red;stroke-width:1.99999;stroke-linecap:round;stroke-linejoin:round;stroke-miterlimit:4;stroke-dasharray:none;stroke-opacity:1;visibility:visible"/><path d="M64.444 766.448v-.08" style="fill:none;stroke:red;stroke-width:.999997;stroke-linecap:round;stroke-linejoin:round;stroke-miterlimit:4;stroke-dasharray:none;stroke-opacity:1;visibility:visible"/><path d="m73.716 765.388-.064-2.664M65.325 759.266l-.128.059-.121.061-.119.079-.113.105-.11.106-.099.118-.086.136-.073.135-.064.145-.048.142-.03.156-.027.142v.144M65.325 759.266l.2-.064M64.308 760.793l.137 5.577" style="fill:none;stroke:red;stroke-width:1.99999;stroke-linecap:round;stroke-linejoin:round;stroke-miterlimit:4;stroke-dasharray:none;stroke-opacity:1;visibility:visible"/><path d="m71.077 761.433-.007-.199M73.813 769.481v.064l.008.07.009.075.022.07.018.08.026.072.03.082.03.078.042.073M73.813 769.48l-.096-4.093M335.266 826.026l1.07.484" style="fill:none;stroke:red;stroke-width:.999997;stroke-linecap:round;stroke-linejoin:round;stroke-miterlimit:4;stroke-dasharray:none;stroke-opacity:1;visibility:visible"/><path d="m197.712 1018.735-1.543-.269M196.776 1012.016l-.606 6.45M207.217 1018.727l-4.6-.024M195.304 1024.943l7.313-6.241M89.212 953.01l-1.906-.164M325.855 834.169l-8.552 2.351M319.882 833.696l-2.579 2.825M94.384 947.158l.129-5.74M85.225 948.494l9.288-7.076M453.528 885.785l2.528-2.272M453.528 885.783l2.528-2.27M445.889 889.757l4.737-.182M445.888 889.758l4.738-.183" style="fill:none;stroke:red;stroke-width:.666665;stroke-linecap:round;stroke-linejoin:round;stroke-miterlimit:4;stroke-dasharray:none;stroke-opacity:1;visibility:visible"/><path d="m89.212 953.01 4.388.286" style="fill:none;stroke:red;stroke-width:1.99999;stroke-linecap:round;stroke-linejoin:round;stroke-miterlimit:4;stroke-dasharray:none;stroke-opacity:1;visibility:visible"/><path d="m325.922 838.879-1.073-4.509M338.113 652.928l-1.637 3.067M334.972 658.041l1.504-2.046M343.523 654.612l-2.543 3.078M341.954 660.866l-.975-3.176M337.68 659.93l-2.42 11.418M337.385 659.834l-2.124 11.514" style="fill:none;stroke:red;stroke-width:.666665;stroke-linecap:round;stroke-linejoin:round;stroke-miterlimit:4;stroke-dasharray:none;stroke-opacity:1;visibility:visible"/><path d="m72.301 770.059-3.449-1.551M67.14 764.249l-2.72.994" style="fill:none;stroke:red;stroke-width:.999997;stroke-linecap:round;stroke-linejoin:round;stroke-miterlimit:4;stroke-dasharray:none;stroke-opacity:1;visibility:visible"/><path d="m335.579 651.778-.672 5.192" style="fill:none;stroke:red;stroke-width:1.99999;stroke-linecap:round;stroke-linejoin:round;stroke-miterlimit:4;stroke-dasharray:none;stroke-opacity:1;visibility:visible"/><path d="m85.388 725.905 249.848-97.198" style="fill:none;stroke:#00ff4a;stroke-width:.999997;stroke-linecap:round;stroke-linejoin:round;stroke-miterlimit:4;stroke-dasharray:none;stroke-opacity:1;visibility:visible"/><path d="m90.444 728.161 239.793-93.664" style="fill:none;stroke:#00ff4a;stroke-width:1.99999;stroke-linecap:round;stroke-linejoin:round;stroke-miterlimit:4;stroke-dasharray:none;stroke-opacity:1;visibility:visible"/><path d="m63.044 726.416 131.6 59.274" style="fill:none;stroke:#00ff4a;stroke-width:.999997;stroke-linecap:round;stroke-linejoin:round;stroke-miterlimit:4;stroke-dasharray:none;stroke-opacity:1;visibility:visible"/><path d="M208.186 781.2h0" style="fill:none;stroke:#00ff4a;stroke-width:1.99999;stroke-linecap:round;stroke-linejoin:round;stroke-miterlimit:4;stroke-dasharray:none;stroke-opacity:1;visibility:visible"/><path d="m196.492 792.65-.086.024-.081.007-.081-.016-.072-.026-.056-.054-.047-.065-.041-.08-.023-.095-.008-.106.008-.109.023-.113.04-.12.049-.104.055-.103.072-.095.08-.075.083-.063.085-.048.085-.03.083-.011.08.018.07.03.06.048.046.068.04.085.024.1.006.101-.006.104-.023.119-.041.109-.047.116-.057.096-.072.095-.08.081-.083.063-.085.049M203.269 785.769l-.09.025-.079.007-.082-.007-.061-.032-.064-.048-.05-.073-.039-.081-.016-.096-.008-.102.007-.114.024-.11.033-.114.05-.111.063-.104.07-.085.072-.084.087-.06.084-.051.086-.021.078-.01.083.01.07.03.057.055.047.065.042.082.023.096v.214l-.023.114-.043.11-.047.112-.063.104-.063.087-.083.083-.078.064-.087.045" style="fill:none;stroke:#00ff4a;stroke-width:.666665;stroke-linecap:round;stroke-linejoin:round;stroke-miterlimit:4;stroke-dasharray:none;stroke-opacity:1;visibility:visible"/><path d="m194.786 785.625-.118.065-.123.072-.119.094-.112.106-.102.118-.106.137-.086.135-.08.153-.07.151-.068.161-.04.162-.04.169-.016.158-.005.151" style="fill:none;stroke:#00ff4a;stroke-width:.999997;stroke-linecap:round;stroke-linejoin:round;stroke-miterlimit:4;stroke-dasharray:none;stroke-opacity:1;visibility:visible"/><path d="m208.155 784.873.016.081-.008.07-.017.066-.03.049-.046.029M208.155 784.873l.066-.007.038-.016.035-.016.021-.024.01-.024M207.54 780.233l-.048-.016h-.065l-.064.016M208.083 780.514l-.056-.017h-.064l-.063.017M193.693 798.351v.072l.016.067.031.045.04.042.04.023" style="fill:none;stroke:#00ff4a;stroke-width:1.99999;stroke-linecap:round;stroke-linejoin:round;stroke-miterlimit:4;stroke-dasharray:none;stroke-opacity:1;visibility:visible"/><path d="m198.444 789.057-.009.088-.018.081-.037.072-.047.055-.056.032" style="fill:none;stroke:#00ff4a;stroke-width:.999997;stroke-linecap:round;stroke-linejoin:round;stroke-miterlimit:4;stroke-dasharray:none;stroke-opacity:1;visibility:visible"/><path d="m193.693 798.351-.016-.006-.008-.008M195.028 798.44l-.03.107-.034.089-.056.077-.066.057-.064.039M197.94 797.185l.008.081v.072l-.015.063-.033.049-.047.02M197.94 797.185l.058-.016.046-.007.034-.024.022-.017.008-.021" style="fill:none;stroke:#00ff4a;stroke-width:1.99999;stroke-linecap:round;stroke-linejoin:round;stroke-miterlimit:4;stroke-dasharray:none;stroke-opacity:1;visibility:visible"/><path d="M194.786 785.625h-.024M193.7 787.457l-.016-.01v-.007" style="fill:none;stroke:#00ff4a;stroke-width:.999997;stroke-linecap:round;stroke-linejoin:round;stroke-miterlimit:4;stroke-dasharray:none;stroke-opacity:1;visibility:visible"/><path d="M207.363 780.233h-.023" style="fill:none;stroke:#00ff4a;stroke-width:1.99999;stroke-linecap:round;stroke-linejoin:round;stroke-miterlimit:4;stroke-dasharray:none;stroke-opacity:1;visibility:visible"/><path d="M193.684 787.44v-.11l.008-.12.022-.113.026-.117.029-.115.043-.119.038-.11.05-.111.056-.11.064-.101.064-.104.072-.094.072-.09.08-.081.078-.077.09-.066.088-.072.104-.056.097-.046 11.558-4.955M193.669 797.529l.016-10.087M198.277 789.386h0M325.564 625.164l-.039-.012-.042.012-.031.013-.032.033-.015.038M325.565 625.164l.149.053" style="fill:none;stroke:#00ff4a;stroke-width:.999997;stroke-linecap:round;stroke-linejoin:round;stroke-miterlimit:4;stroke-dasharray:none;stroke-opacity:1;visibility:visible"/><path d="m335.84 620.939.051-.01.047.011.046.013M336.426 620.963h0M335.986 620.953l.09-.023.075-.015h.085l.071.01.079.023" style="fill:none;stroke:#00ff4a;stroke-width:1.99999;stroke-linecap:round;stroke-linejoin:round;stroke-miterlimit:4;stroke-dasharray:none;stroke-opacity:1;visibility:visible"/><path d="m325.714 625.217.019.01h.013M325.369 625.259l-.029-.031-.02-.043v-.033" style="fill:none;stroke:#00ff4a;stroke-width:.999997;stroke-linecap:round;stroke-linejoin:round;stroke-miterlimit:4;stroke-dasharray:none;stroke-opacity:1;visibility:visible"/><path d="M336.386 620.948h0" style="fill:none;stroke:#00ff4a;stroke-width:1.99999;stroke-linecap:round;stroke-linejoin:round;stroke-miterlimit:4;stroke-dasharray:none;stroke-opacity:1;visibility:visible"/><path d="m464.817 680.836.351-6.412" style="fill:none;stroke:#00ff4a;stroke-width:.999997;stroke-linecap:round;stroke-linejoin:round;stroke-miterlimit:4;stroke-dasharray:none;stroke-opacity:1;visibility:visible"/><path d="m467.507 675.648.061-.039.075-.056.063-.063.054-.08.06-.097.04-.096.03-.103.02-.104.02-.093v-.101l-.02-.084-.02-.084-.03-.063-.05-.048-.057-.03-.056-.014-.062.005-.072.015-.067.04-.072.059-.06.062-.057.08-.057.094-.042.1-.041.102-.015.102-.014.097v.096l.013.09.029.076.029.066.049.05.049.033.061.016h.064l.075-.028M462.26 674.361l.063-.04.07-.057.067-.064.052-.08.056-.094.054-.094.028-.106.026-.104.004-.106v-.096l-.013-.089-.025-.068-.032-.066-.044-.05-.054-.028-.06-.018h-.066l-.074.025-.061.031-.073.059-.064.07-.054.078-.054.09-.051.106-.032.1-.024.097-.005.107v.094l.013.088.025.08.03.062.05.049.048.033.06.016h.065l.075-.025" style="fill:none;stroke:#00ff4a;stroke-width:.666665;stroke-linecap:round;stroke-linejoin:round;stroke-miterlimit:4;stroke-dasharray:none;stroke-opacity:1;visibility:visible"/><path d="M468.226 668.873h0M467.563 668.69l.096-.033.09-.023h.082l.08.006.081.032" style="fill:none;stroke:#00ff4a;stroke-width:.999997;stroke-linecap:round;stroke-linejoin:round;stroke-miterlimit:4;stroke-dasharray:none;stroke-opacity:1;visibility:visible"/><path d="m464.932 681.081-.04-.024-.032-.04-.024-.047-.019-.064v-.073M468.896 669.697h0" style="fill:none;stroke:#00ff4a;stroke-width:1.99999;stroke-linecap:round;stroke-linejoin:round;stroke-miterlimit:4;stroke-dasharray:none;stroke-opacity:1;visibility:visible"/><path d="m466.075 673.802-.01.088-.024.074-.038.062-.05.054-.061.034M457.154 673.482l.01-.072.02-.08.036-.08.04-.074.047-.055.056-.048.047-.032M457.075 677.38l-.043-.028-.03-.035-.023-.05-.016-.067v-.069" style="fill:none;stroke:#00ff4a;stroke-width:.999997;stroke-linecap:round;stroke-linejoin:round;stroke-miterlimit:4;stroke-dasharray:none;stroke-opacity:1;visibility:visible"/><path d="M464.804 680.816v.01l.014.01" style="fill:none;stroke:#00ff4a;stroke-width:1.99999;stroke-linecap:round;stroke-linejoin:round;stroke-miterlimit:4;stroke-dasharray:none;stroke-opacity:1;visibility:visible"/><path d="m457.41 673.041-.007-.005-.019.004M457.136 673.464v.008l.018.01M467.563 668.69l-.01-.009-.005.009M456.946 677.114v.008l.017.01" style="fill:none;stroke:#00ff4a;stroke-width:.999997;stroke-linecap:round;stroke-linejoin:round;stroke-miterlimit:4;stroke-dasharray:none;stroke-opacity:1;visibility:visible"/><path d="m468.532 668.896.008.01M465.892 674.116l-4.928 2.117" style="fill:none;stroke:#00ff4a;stroke-width:1.99999;stroke-linecap:round;stroke-linejoin:round;stroke-miterlimit:4;stroke-dasharray:none;stroke-opacity:1;visibility:visible"/><path d="m75.397 721.505.144.064M325.746 625.233l131.39 48.184M467.164 668.85l-9.778 4.191M457.136 673.464l-.156 2.962" style="fill:none;stroke:#00ff4a;stroke-width:.999997;stroke-linecap:round;stroke-linejoin:round;stroke-miterlimit:4;stroke-dasharray:none;stroke-opacity:1;visibility:visible"/><path d="m62.685 726.361.066-.024h.072l.077.015M62.044 738.21l.008.04.032.04.043.031.053.03M62.325 738.416l-.145-.064M63.573 726.064l-.13.05-.117.047-.106.048-.095.041-.104.046-.12.056" style="fill:none;stroke:#00ff4a;stroke-width:1.99999;stroke-linecap:round;stroke-linejoin:round;stroke-miterlimit:4;stroke-dasharray:none;stroke-opacity:1;visibility:visible"/><path d="m75.397 721.505-.064-.024h-.057l-.058.008M63.397 726.049l.047-.008h.064l.065.025" style="fill:none;stroke:#00ff4a;stroke-width:.999997;stroke-linecap:round;stroke-linejoin:round;stroke-miterlimit:4;stroke-dasharray:none;stroke-opacity:1;visibility:visible"/><path d="m62.27 738.514-.04-.024-.026-.044-.024-.036v-.058M62.325 738.416l.008.057.018.05.019.03.042.025" style="fill:none;stroke:#00ff4a;stroke-width:1.99999;stroke-linecap:round;stroke-linejoin:round;stroke-miterlimit:4;stroke-dasharray:none;stroke-opacity:1;visibility:visible"/><path d="m75.653 721.57-.03-.02h-.041l-.04.02M75.506 721.497l-.038-.007h-.035l-.037.016" style="fill:none;stroke:#00ff4a;stroke-width:.999997;stroke-linecap:round;stroke-linejoin:round;stroke-miterlimit:4;stroke-dasharray:none;stroke-opacity:1;visibility:visible"/><path d="M62.357 738.425h-.016l-.013-.008M63.013 726.402l.008.008.019.015" style="fill:none;stroke:#00ff4a;stroke-width:1.99999;stroke-linecap:round;stroke-linejoin:round;stroke-miterlimit:4;stroke-dasharray:none;stroke-opacity:1;visibility:visible"/><path d="m75.541 721.57.016.008.01.006M335.442 632.385l.067-.325.055-.343.041-.347.022-.35.015-.36v-.361l-.015-.366-.023-.372-.04-.373M325.682 625.21l-.055-.016h-.062l-.056.015" style="fill:none;stroke:#00ff4a;stroke-width:.999997;stroke-linecap:round;stroke-linejoin:round;stroke-miterlimit:4;stroke-dasharray:none;stroke-opacity:1;visibility:visible"/><path d="m85.346 725.894 121.928 54.363M62.357 738.436l.008.056.018.044.03.034.03.023M330.237 634.5l5.117-2M75.764 721.617l249.745-96.408" style="fill:none;stroke:#00ff4a;stroke-width:1.99999;stroke-linecap:round;stroke-linejoin:round;stroke-miterlimit:4;stroke-dasharray:none;stroke-opacity:1;visibility:visible"/><path d="m75.685 721.584 9.663 4.309" style="fill:none;stroke:#00ff4a;stroke-width:.999997;stroke-linecap:round;stroke-linejoin:round;stroke-miterlimit:4;stroke-dasharray:none;stroke-opacity:1;visibility:visible"/><path d="m208.325 784.784.015-3.824M198.277 789.386l9.792-4.216M208.325 784.784l-.01.073-.015.065-.023.06-.04.058-.04.049-.058.041-.032.02-.037.02M208.083 780.514l-.542-.281M194.397 798.827l-.577-.226M197.85 797.471h0M198.106 797.1h0M208.069 785.17h0M208.325 784.784h0M62.444 738.593l131.233 59.792" style="fill:none;stroke:#00ff4a;stroke-width:1.99999;stroke-linecap:round;stroke-linejoin:round;stroke-miterlimit:4;stroke-dasharray:none;stroke-opacity:1;visibility:visible"/><path d="M198.277 789.386v.008h-.008l-.017.018-.015.005-.017.025-.007.016-.016.023-.019.025-.014.024-.008.03-.016.023-.006.034-.01.023v.028l-.007.024v.022" style="fill:none;stroke:#00ff4a;stroke-width:.999997;stroke-linecap:round;stroke-linejoin:round;stroke-miterlimit:4;stroke-dasharray:none;stroke-opacity:1;visibility:visible"/><path d="m194.78 798.81-.055.025-.065.015-.063.009h-.057l-.056-.011-.056-.013-.031-.008M194.78 798.809l3.07-1.339M198.106 797.101l-.008.062-.016.064-.032.063-.03.057-.05.047-.048.047-.03.017-.04.013M198.106 797.1l.008-7.385M208.083 780.514l.063.038.056.048.05.064.03.064.033.072.018.074.006.087" style="fill:none;stroke:#00ff4a;stroke-width:1.99999;stroke-linecap:round;stroke-linejoin:round;stroke-miterlimit:4;stroke-dasharray:none;stroke-opacity:1;visibility:visible"/><path d="m206.325 780.673 1.015-.44M193.813 798.6l-.03-.016-.036-.031-.021-.03-.025-.045-.016-.044-.008-.056-.005-.04v-.81" style="fill:none;stroke:#00ff4a;stroke-width:.999997;stroke-linecap:round;stroke-linejoin:round;stroke-miterlimit:4;stroke-dasharray:none;stroke-opacity:1;visibility:visible"/><path d="m207.34 780.233.04-.016.032-.008h.066l.037.008.026.016M335.84 620.939l.091-.024.087-.016h.177l.096.016.093.032M336.386 620.948l.09.03M336.386 620.948h0M335.204 621.152l-9.654 3.73" style="fill:none;stroke:#00ff4a;stroke-width:1.99999;stroke-linecap:round;stroke-linejoin:round;stroke-miterlimit:4;stroke-dasharray:none;stroke-opacity:1;visibility:visible"/><path d="m335.204 621.152.118-.037.13-.05.128-.05.127-.035.136-.041" style="fill:none;stroke:#00ff4a;stroke-width:1.99999;stroke-linecap:round;stroke-linejoin:round;stroke-miterlimit:4;stroke-dasharray:none;stroke-opacity:1;visibility:visible"/><path d="m325.322 625.152.017-.047.014-.045.025-.044.032-.032.032-.036.033-.024.039-.027.035-.016M325.293 625.29l.029-.14" style="fill:none;stroke:#00ff4a;stroke-width:.999997;stroke-linecap:round;stroke-linejoin:round;stroke-miterlimit:4;stroke-dasharray:none;stroke-opacity:1;visibility:visible"/><path d="m336.476 620.979.016.005" style="fill:none;stroke:#00ff4a;stroke-width:1.99999;stroke-linecap:round;stroke-linejoin:round;stroke-miterlimit:4;stroke-dasharray:none;stroke-opacity:1;visibility:visible"/><path d="M467.993 668.674h0" style="fill:none;stroke:#00ff4a;stroke-width:.999997;stroke-linecap:round;stroke-linejoin:round;stroke-miterlimit:4;stroke-dasharray:none;stroke-opacity:1;visibility:visible"/><path d="m464.932 681.073-.032-.01-.024-.019-.025-.029-.026-.031-.017-.038-.004-.05v-.08M468.512 679.834l-.005.063-.017.056-.025.057-.038.05-.043.038-.053.04-.041.026M469.065 669.946l-.553 9.888M468.292 680.161l-2.466 1.065M468.539 668.905l.083.041.075.046.073.065.067.073.057.08.045.08.046.094.035.106.02.103.021.12.005.11v.123M465.825 681.228l-.055.022-.056.016h-.161l-.054-.016M460.963 676.233l-2.993 1.297M457.97 677.53h0l-.056.014-.056.016-.056.01h-.05l-.054-.01-.058-.015M457.64 677.546l-.565-.166M465.498 681.248l-.566-.168M468.532 668.896l-.539-.223M468.292 680.161h0" style="fill:none;stroke:#00ff4a;stroke-width:1.99999;stroke-linecap:round;stroke-linejoin:round;stroke-miterlimit:4;stroke-dasharray:none;stroke-opacity:1;visibility:visible"/><path d="m467.548 668.69-.384.16M456.979 676.426l-.03.688M467.548 668.69l.072-.033.063-.017.07-.006h.071l.059.006.056.01.03.008M457.075 677.38l-.033-.018-.023-.022-.025-.023-.024-.036-.018-.04-.006-.047-.008-.042.008-.038M464.835 680.137l-.03.677" style="fill:none;stroke:#00ff4a;stroke-width:.999997;stroke-linecap:round;stroke-linejoin:round;stroke-miterlimit:4;stroke-dasharray:none;stroke-opacity:1;visibility:visible"/><path d="m62.269 738.514-.039-.017-.043-.024-.031-.027-.024-.03-.04-.046-.032-.064-.008-.049-.008-.048M62.27 738.514l.141.064M62.685 726.361l.138-.065.134-.063.144-.065.144-.054.152-.064 11.821-4.56M61.813 727.737l.017-.105.014-.102.026-.105.03-.101.035-.108.045-.096.01-.023.018-.033.055-.104.062-.103.075-.09.07-.093.07-.074.073-.063.08-.064.088-.057.104-.056M61.804 728.625l-.007-.185v-.176l.007-.172v-.179l.01-.176M61.804 728.625l.241 9.584M334.418 632.868l130.386 48.03M336.507 620.984l131.103 47.674" style="fill:none;stroke:#00ff4a;stroke-width:1.99999;stroke-linecap:round;stroke-linejoin:round;stroke-miterlimit:4;stroke-dasharray:none;stroke-opacity:1;visibility:visible"/><path d="m75.653 721.57-.143-.074M75.218 721.49l.034-.008.042-.01.047-.008h.039l.04.008.032.01.056.015" style="fill:none;stroke:#00ff4a;stroke-width:.999997;stroke-linecap:round;stroke-linejoin:round;stroke-miterlimit:4;stroke-dasharray:none;stroke-opacity:1;visibility:visible"/><path d="m62.428 738.585-.016-.007" style="fill:none;stroke:#00ff4a;stroke-width:1.99999;stroke-linecap:round;stroke-linejoin:round;stroke-miterlimit:4;stroke-dasharray:none;stroke-opacity:1;visibility:visible"/><path d="m75.653 721.57.017.008" style="fill:none;stroke:#00ff4a;stroke-width:.999997;stroke-linecap:round;stroke-linejoin:round;stroke-miterlimit:4;stroke-dasharray:none;stroke-opacity:1;visibility:visible"/><path d="m75.218 721.49 15.226 6.671" style="fill:none;stroke:#00ff4a;stroke-width:1.99999;stroke-linecap:round;stroke-linejoin:round;stroke-miterlimit:4;stroke-dasharray:none;stroke-opacity:1;visibility:visible"/><path d="m197.94 797.185-1.448-4.535M194.786 785.625l1.706 7.025M207.363 780.233l-4.094 5.536M208.069 785.17l-4.8.599M457.41 673.041l10.097 2.607M465.826 681.226l1.681-5.578M457.41 673.041l4.85 1.32M460.964 676.233l1.296-1.872" style="fill:none;stroke:#00ff4a;stroke-width:.666665;stroke-linecap:round;stroke-linejoin:round;stroke-miterlimit:4;stroke-dasharray:none;stroke-opacity:1;visibility:visible"/><path d="m325.714 625.217 8.704 7.651" style="fill:none;stroke:#00ff4a;stroke-width:1.99999;stroke-linecap:round;stroke-linejoin:round;stroke-miterlimit:4;stroke-dasharray:none;stroke-opacity:1;visibility:visible"/></svg>