<svg xmlns="http://www.w3.org/2000/svg" baseProfile="full" height="1122.52" preserveAspectRatio="xMinYMin meet" style="width:912px;height:1303px" width="793.701" xml:space="preserve"><path d="m679.418 416.391-25.09-1.74M148.202 366.225l16.75 1.161M180.143 384.29l.02.112.039.105.06.094.08.085.09.06.106.045.109.02" style="fill:none;stroke:red;stroke-width:.666665;stroke-linecap:round;stroke-linejoin:round;stroke-miterlimit:4;stroke-dasharray:none;stroke-opacity:1;visibility:visible"/><path d="m180.647 384.846-.016.115-.039.109-.065.095-.084.08-.105.05-.115.03-.12-.004-.12-.031-.11-.055-.095-.076-.08-.1-.055-.109-.024-.119v-.121l.024-.113.055-.107.08-.084.094-.065.111-.04.12-.011.12.016.115.04.105.07.084.083.065.106.039.116.016.125M181.298 383.286l.05.04.109.095.1.105.09.11.046.06M171.003 372.685l.016.11.039.105.061.096.079.08.096.064.104.045.105.021" style="fill:none;stroke:red;stroke-width:.666665;stroke-linecap:round;stroke-linejoin:round;stroke-miterlimit:4;stroke-dasharray:none;stroke-opacity:1;visibility:visible"/><path d="m171.507 373.236-.013.119-.042.11-.07.095-.083.075-.105.056-.116.025h-.12l-.12-.03-.11-.055-.096-.076-.074-.1-.055-.11-.03-.12v-.12l.03-.114.055-.106.074-.085.096-.064.11-.041.12-.015.12.015.116.045.105.065.083.091.07.104.042.116.013.12M172.152 371.68l.055.04.106.095.099.1.095.114.041.062M180.143 373.321l.02.11.039.105.06.094.08.08.09.066.106.044.109.02" style="fill:none;stroke:red;stroke-width:.666665;stroke-linecap:round;stroke-linejoin:round;stroke-miterlimit:4;stroke-dasharray:none;stroke-opacity:1;visibility:visible"/><path d="m180.647 373.87-.016.121-.039.11-.065.094-.084.076-.105.055-.115.025h-.12l-.12-.03-.11-.055-.095-.08-.08-.095-.055-.11-.024-.119v-.121l.024-.115.055-.105.08-.084.094-.066.111-.04.12-.016.12.016.115.044.105.066.084.09.065.104.039.115.016.12M181.298 372.316l.05.04.109.096.1.1.09.11.046.06M165.682 385.596l-.095-.01M165.608 370.36h-.021M677.168 418.761l.02.11.04.103.06.096.079.08.096.066.1.045.109.019" style="fill:none;stroke:red;stroke-width:.666665;stroke-linecap:round;stroke-linejoin:round;stroke-miterlimit:4;stroke-dasharray:none;stroke-opacity:1;visibility:visible"/><path d="m677.672 419.31-.01.12-.045.11-.064.095-.085.075-.104.056-.115.024h-.122l-.119-.03-.11-.055-.094-.08-.081-.094-.051-.112-.03-.118v-.122l.03-.114.05-.104.082-.086.095-.065.109-.04.119-.015.122.015.115.047.104.065.085.088.064.105.046.116.009.119M678.322 417.756l.055.04.106.096.099.1.097.115.039.053M668.027 418.125l.016.11.039.106.06.095.08.084.097.061.103.044.105.021" style="fill:none;stroke:red;stroke-width:.666665;stroke-linecap:round;stroke-linejoin:round;stroke-miterlimit:4;stroke-dasharray:none;stroke-opacity:1;visibility:visible"/><path d="m668.533 418.676-.016.12-.039.11-.07.094-.086.081-.104.05-.114.025h-.12l-.12-.03-.112-.055-.094-.075-.076-.1-.054-.11-.028-.12v-.12l.028-.115.054-.106.076-.084.094-.064.112-.041.12-.01.12.015.114.039.104.07.086.086.07.105.039.114.016.121M669.178 417.121l.055.039.104.097.1.104.096.11.038.06M677.168 407.785l.02.11.04.105.06.1.079.08.096.065.1.044.109.021" style="fill:none;stroke:red;stroke-width:.666665;stroke-linecap:round;stroke-linejoin:round;stroke-miterlimit:4;stroke-dasharray:none;stroke-opacity:1;visibility:visible"/><path d="m677.672 408.341-.01.12-.045.11-.064.095-.085.075-.104.055-.115.024h-.122l-.119-.03-.11-.054-.094-.08-.081-.095-.051-.116-.03-.115v-.12l.03-.116.05-.102.082-.087.095-.064.109-.04.119-.016.122.016.115.045.104.066.085.088.064.106.046.115.009.12M678.322 406.78l.055.04.106.096.099.105.097.11.039.061M668.027 407.156l.016.11.039.106.06.093.08.08.097.066.103.045.105.02" style="fill:none;stroke:red;stroke-width:.666665;stroke-linecap:round;stroke-linejoin:round;stroke-miterlimit:4;stroke-dasharray:none;stroke-opacity:1;visibility:visible"/><path d="m668.533 407.706-.016.12-.039.11-.07.095-.086.075-.104.055-.114.025h-.12l-.12-.03-.112-.055-.094-.08-.076-.094-.054-.112-.028-.12v-.12l.028-.114.054-.106.076-.084.094-.065.112-.04.12-.015.12.015.114.045.104.066.086.089.07.107.039.113.016.12M669.178 406.151l.055.035.104.1.1.1.096.109.038.06M390.82 381.92l-224.067-15.54M683.538 402.221l-14.227-.987M389.788 383.394l-224.47-15.568M682.457 403.69l-15.483-1.073M682.467 403.676l-.005.01-.006.005" style="fill:none;stroke:red;stroke-width:.666665;stroke-linecap:round;stroke-linejoin:round;stroke-miterlimit:4;stroke-dasharray:none;stroke-opacity:1;visibility:visible"/><path d="m682.457 403.69-.024.059-.02.077-.015.093-.012.102-.004.1M682.383 404.121v1.46M682.383 405.581l.004.09.012.078.013.061.022.04M682.434 405.85l.033.041M682.467 406.5l-18.49-1.283M386.062 385.943l-220.38-15.283M682.467 410.471l-19.825-1.375M381.473 389.96l-215.84-14.97M682.467 411.815l-.033.11M682.283 414.225l-21.97-1.524M378.495 393.157l-213.351-14.796M682.383 413.766l-.007.095-.009.1-.013.089-.022.075-.02.061-.029.039M372.663 394.11l.195.01h.194l.195-.005.192-.016.18-.018.164-.031.144-.03.125-.04.1-.045.076-.05.04-.05.015-.05-.015-.05-.045-.05-.076-.046-.104-.044-.125-.041-.15-.035-.165-.024-.18-.021-.19-.013-.195-.007-.2.007-.191.01-.184.015-.175.024-.156.03-.134.04-.116.04-.083.046-.055.05-.032.05v.048l.032.05.058.051.092.046.113.038.14.042.155.029.176.024.185.016M181.753 380.87l.195.012h.196l.193-.007.19-.013.18-.021.166-.03.145-.03.126-.04.1-.046.07-.049.044-.05.015-.05-.015-.05-.05-.05-.075-.044-.101-.045-.126-.042-.148-.034-.165-.024-.181-.02-.188-.015-.196-.007-.2.007-.19.008-.185.016-.175.025-.154.03-.136.041-.115.039-.085.045-.06.05-.026.05v.05l.031.05.06.05.09.045.115.04.135.04.16.032.175.022.185.015M277.207 387.49l.195.01h.196l.194-.006.191-.015.18-.018.164-.031.145-.03.126-.04.1-.045.07-.05.046-.051.013-.05-.013-.049-.052-.05-.07-.046-.105-.045-.125-.04-.148-.035-.167-.024-.18-.021-.19-.015-.195-.004-.2.004-.19.011-.185.015-.175.025-.154.03-.135.04-.116.04-.084.046-.06.048-.027.05v.05l.032.05.059.051.092.044.113.04.136.04.159.031.175.024.185.016M679.538 416.395l-.15-.004-.146-.021-.133-.03-.131-.04-.14-.044-.144-.056M681.012 416.041l1.27-1.23M679.538 416.395l.23-.015.22-.024.206-.03.19-.036.175-.04.148-.044.126-.055.105-.056.073-.055M663.999 414.221l-.167-.021-.173-.014-.18-.006h-.185l-.18.006-.175.014-.17.021" style="fill:none;stroke:red;stroke-width:.666665;stroke-linecap:round;stroke-linejoin:round;stroke-miterlimit:4;stroke-dasharray:none;stroke-opacity:1;visibility:visible"/><path d="m373.613 394.08-.17-.021-.175-.008-.182-.011h-.184l-.18.01-.174.009-.171.021M278.158 387.46l-.17-.02-.174-.01-.183-.011h-.182l-.18.012-.176.009-.17.02M682.383 415.08l-.356-.027M682.283 414.811l.03-.015.02.015.02.039.014.061.01.08.006.09M682.383 416.551l-2.564-.176M682.467 421.44l-32.31-2.241M371.48 399.873l-205.797-14.272M370.499 401.268l-205.205-14.232M682.467 422.785l-.033.115M682.434 422.9l-.021.075-.014.09-.012.1-.004.1M682.383 423.265v.395M376.479 395.386l-211.234-14.65M682.374 667.77l-.016.027.01.029.031.025.055.024.073.024.091.015.105.01M682.374 667.77l.093-.09M698.258 672.116l-.02.03.01.029.035.025.055.025.075.02.089.015.101.012M698.258 672.116l.09-.09M709.363 668.424l.05-.059.02-.065-.011-.059-.035-.061-.065-.06M682.303 667.921h0M698.187 672.265h0M709.462 669.43l-.01.045-.023.039-.038.045M709.398 668.195h0M709.508 668.37l-.01.047-.02.044-.04.045M682.913 669.56h0M698.793 673.905h0M709.392 669.56l-.019.13-.041.125-.059.116-.085.096M698.258 672.116l-.03.005-.025.015M709.437 668.505l-.004-.03-.016-.025-.025-.02-.03-.006M682.374 667.77h-.027l-.025.015M704.413 674.342h0M698.163 672.225h0M682.283 667.88h0M709.508 668.366v.004M700.447 405.801l-17.697-1.23M689.447 411.68l.156-.17.14-.19.116-.205.088-.215.065-.225.035-.235.016-.24M704.947 409.256l-.039.024-.06.02-.081.015-.088.01-.096.006-.1-.006V672.65M682.749 404.57l-.09-.01-.08-.014-.062-.02-.033-.027-.016-.025M698.347 435.426V668.98M171.003 383.655l.016.11.039.105.061.094.079.086.096.065.104.04.105.025" style="fill:none;stroke:red;stroke-width:.666665;stroke-linecap:round;stroke-linejoin:round;stroke-miterlimit:4;stroke-dasharray:none;stroke-opacity:1;visibility:visible"/><path d="m171.507 384.21-.013.115-.042.11-.07.099-.083.076-.105.05-.116.03-.12-.005-.12-.026-.11-.054-.096-.08-.074-.1-.055-.11-.03-.121v-.119l.03-.114.055-.1.074-.092.096-.064.11-.04.12-.011.12.016.116.04.105.07.083.085.07.105.042.12.013.12M172.152 382.652l.055.039.106.094.099.107.095.108.041.06M146.128 367.46v12.725M146.128 476.566v154.218M143.189 369.447v10.417M143.189 476.36v157.265M144.402 376.36l-.06-.02-.06-.04-.055-.07-.05-.094-.046-.121-.038-.139-.042-.165-.029-.18-.02-.2-.019-.211-.01-.225v-.235M143.952 392.59l-.044.01-.044-.02-.041-.049-.035-.07-.03-.1-.025-.126-.021-.141-.01-.153-.003-.171v-.175l.008-.18.021-.18.025-.176.03-.16.034-.15.036-.13.044-.109.046-.085.045-.056M145.457 388.95l.045-.03.04-.005.035.015M145.457 388.95l-1.47 1.419M164.878 368.655v9.965M164.878 380.71V455M164.878 477.865v154.114M146.587 384.265v69.47M149.993 388.471l-.176.003-.165.025-.159.055-.145.081-.131.105-.115.12-.09.146-.064.15-.04.166-.015.169.015.175.04.169.064.164.09.152.115.139.13.12.146.1.159.08.165.049.176.027M160.962 389.23l-10.97-.759M160.962 391.426h.17l.17-.03.16-.055.145-.08.131-.1.115-.124.089-.14.064-.156.041-.166.016-.169-.016-.17-.041-.17-.064-.165-.09-.155-.114-.14-.13-.12-.146-.1-.16-.075-.17-.05-.17-.031M149.993 390.667l10.97.759M166.908 389.25v65.89M142.723 385.16v.047M142.723 388v.661M142.723 391.07v62.395M141.807 385.2v-.03M145.827 390.535l-.013.14-.042.13-.065.12-.084.106M144.152 392.451l-.03.024-.035.032-.039.028-.045.025-.051.03M145.622 391.03l-1.47 1.42" style="fill:none;stroke:red;stroke-width:.666665;stroke-linecap:round;stroke-linejoin:round;stroke-miterlimit:4;stroke-dasharray:none;stroke-opacity:1;visibility:visible"/><path d="m145.577 388.93.067.05.054.05.04.045.05.064.036.062.029.049.033.08.027.072.015.064.024.13.016.12.005.12.005.109-.005.105-.01.105-.011.094-.014.097-.02.095-.032.12-.038.12-.066.138-.065.096-.095.115M701.383 404.991h0M701.033 405.23v-.264M706.457 403.451l-22.093-1.53M706.457 403.451l-.219.015-.226.034-.224.055-.226.076-.225.099-.224.12M698.658 407.625l.565-.065.574-.04.577-.01.573.01.58.04.576.06.576.09.572.115.571.136.565.164M705.113 403.85l-.567.156-.564.17-.564.18-.56.19-.561.203-.559.212-.554.22M704.947 409.186v-.31M709.258 405.02l-4.31 4.165M709.322 404.891l-.003.044-.025.039-.036.046M709.228 404.551h0M701.624 404.75l-.221.225-.219.206M707.847 403.625l-.35-.056-.345-.05-.344-.04-.352-.029M701.313 405.06h0M701.262 404.996l-.028-.01-.037-.011-.034-.004-.037-.006h-.093M707.847 403.625h.01M706.457 403.451h.005M706.467 403.451h0v.004M684.367 401.92h0-.004M704.947 409.186l-.039.02-.06.019-.081.017-.088.008-.096.007-.1-.007M698.658 407.625l-.07.015-.065.03-.056.046M700.992 405.271l.055-.041.066-.03.071-.02M701.383 404.861l.07-.06.08-.035.091-.017M684.319 401.92h.044M709.238 405.066l.013-.02.007-.025M704.928 409.23l.016-.019.003-.025M709.322 404.68v.004M698.347 408.241v-.256M698.347 407.986v-.01h.005v-.049h.006v-.026h.005v-.019h.004v-.016h.007v-.01l.001-.006v-.01l.007-.003v-.011h.004v-.005l.005-.006v-.004l.007-.005v-.004h.004v-.01l.005-.006v-.005h.005v-.004l.006-.007v-.004h.004v-.004h.006v-.005l.004-.007.004-.004.007-.005v-.004h.003v-.007h.006v-.004h.004v-.005h.006v-.004h.005" style="fill:none;stroke:red;stroke-width:.666665;stroke-linecap:round;stroke-linejoin:round;stroke-miterlimit:4;stroke-dasharray:none;stroke-opacity:1;visibility:visible"/><path d="m700.992 405.271.08-.077.076-.079.08-.08.075-.085.08-.09M700.992 405.271l-2.525 2.444M704.928 409.23l-.027.02-.018.01-.036.017-.035.009-.045.01-.044.01-.044.005h-.196M166.923 630.296l.06.025.039.024.01.03-.021.032M136.593 633.07l-.095.09M136.843 633.316l-.099-.01-.092-.017-.074-.024-.055-.024-.035-.025-.005-.03.015-.026M136.427 633.31h0M167.043 631.54l.044-1.055M164.798 633.14l.028-1.033M146.283 631.905l.025-1.036M167.087 630.486l.016-.016.005-.019M167.043 631.54l.015-.015.006-.014M164.807 633.67v-.01l-.005-.04v-.24l-.004-.115v-.126M166.823 632.02l.09-.1.065-.121.044-.124.021-.135M146.077 632.375l.081-.097.064-.118.04-.124.02-.13M137.033 634.95h0M146.233 630.79l.028.005.027.022.014.022.006.03M136.443 633.175l.025-.015h.03M164.848 632.012l-.01.015-.006.02-.005.03v.03" style="fill:none;stroke:red;stroke-width:.666665;stroke-linecap:round;stroke-linejoin:round;stroke-miterlimit:4;stroke-dasharray:none;stroke-opacity:1;visibility:visible"/><path d="m167.012 630.406.03.01.026.015.015.03.005.025M164.807 633.67h0M145.997 632.451l.08-.076M142.652 635.38h0M136.402 633.271v-.005M167.108 630.451h0M164.878 368.585l.104-.661M166.493 366.006l-.156.021-.15.05-.155.074-.155.099-.155.125-.154.156-.051.28-.152.203-.257.123-.156.249M144.397 364.471l22.096 1.535M145.423 366.64l-2.53 2.441M142.893 369.08l-.567-.139-.573-.121-.576-.09-.575-.07-.58-.04-.574-.02-.58.01-.57.035-.57.055-.566.084M146.128 367.386v-.801M142.723 369.531v.035M137.223 369.23l-.033.007-.038.009M137.152 369.245l-.084.027-.07.044-.06.058-.04.076-.026.086M145.798 366.2l-.19.23-.185.21M146.693 366.066l-.1-.01-.104-.005h-.096l-.1.004-.08.006-.081.01-.075.015-.063.015-.066.021-.05.024-.05.025-.03.03M148.202 366.225l-.75-.07-.76-.09M141.507 364.68l.061-.025.079-.031.092-.02.11-.024.114-.02.12-.02.13-.021.135-.014.155-.016.155-.016.169-.008.17-.01M142.997 364.455l.35-.01h.35l.35.01.35.016M137.163 368.785l-.13.041-.12.059-.106.08M141.507 364.68l-.113.025-.106.05M142.997 364.455h.005M144.397 364.471h.005M166.497 366.006h-.004M136.832 369.575l-.08-.01-.07-.014-.05-.02-.03-.021-.01-.024M136.593 369.796v.01" style="fill:none;stroke:red;stroke-width:.666665;stroke-linecap:round;stroke-linejoin:round;stroke-miterlimit:4;stroke-dasharray:none;stroke-opacity:1;visibility:visible"/><path d="m137.152 369.245-.021-.1-.008-.095-.004-.089.008-.076.016-.059.02-.041M142.723 369.531l.021-.095.028-.096.031-.09.03-.075.035-.06.026-.035" style="fill:none;stroke:red;stroke-width:.666665;stroke-linecap:round;stroke-linejoin:round;stroke-miterlimit:4;stroke-dasharray:none;stroke-opacity:1;visibility:visible"/><path d="m143.189 369.46-.041.025-.06.02-.082.014-.088.012h-.196" style="fill:none;stroke:red;stroke-width:.666665;stroke-linecap:round;stroke-linejoin:round;stroke-miterlimit:4;stroke-dasharray:none;stroke-opacity:1;visibility:visible"/><path d="m142.893 369.08.095.04.08.065.064.08.041.095.016.1M146.128 366.585l-.015-.09-.03-.085-.05-.074-.07-.059-.082-.048-.082-.03M164.982 367.924l.004-.105.012-.099-.09-.2.02-.08.025-.055M166.832 366.386l-.01-.096-.034-.09-.055-.075-.07-.059-.08-.04-.09-.02M164.878 368.585v.03l.004.02.012.005M146.108 367.436l.015-.027.005-.024M142.802 369.59 65.148 444.6M65.193 444.885l.05.076.026.08.008.084M142.908 377.811l-72.694 70.216M143.452 380l-70.61 68.207M143.552 384.98l.035-.05.01-.049-.024-.049-.046-.052-.079-.045-.1-.04-.125-.04-.146-.03-.16-.025-.178-.019-.187-.016-.19-.005h-.189l-.19.01-.18.015-.171.026-.155.029-.134.035-.115.036-.096.045-.064.05-.036.043-.01.051.02.05.045.05.076.045.105.04.119.039.145.036.16.025" style="fill:none;stroke:red;stroke-width:.666665;stroke-linecap:round;stroke-linejoin:round;stroke-miterlimit:4;stroke-dasharray:none;stroke-opacity:1;visibility:visible"/><path d="m142.927 385.186.145-.027.13-.029.121-.03.095-.04.08-.04.054-.04M109.452 417.92l.036-.05.005-.05-.025-.053-.05-.046-.086-.05-.104-.039-.136-.041-.15-.031-.17-.024-.184-.02-.19-.01-.2-.005-.195.004-.19.011-.185.02-.17.024-.15.036-.13.036-.105.044-.08.045-.05.05-.024.049.008.056.041.05.07.045.094.045.121.04.14.035.164.03.176.024.191.015.195.005h.194l.194-.009.192-.015.173-.02.161-.03.14-.035.12-.044.088-.047.071-.045M149.613 380.85l-.005.045-.006.046-.01.04-.01.04-.014.045-.02.05M149.548 381.116v.215M149.613 381.346h-.01l-.011-.005h-.01l-.014-.004-.02-.006" style="fill:none;stroke:red;stroke-width:.666665;stroke-linecap:round;stroke-linejoin:round;stroke-miterlimit:4;stroke-dasharray:none;stroke-opacity:1;visibility:visible"/><path d="m108.823 418.125-.165-.019-.18-.014-.18-.007h-.184l-.182.007-.176.014-.164.019M141.443 373.165l-76.25 73.652M142.314 388.395l-62.427 60.3M596.624 750.601l-.096.09M596.878 750.844l-.103-.01-.092-.014-.074-.024-.055-.024-.03-.027-.011-.029.014-.025M626.954 747.826l.064.025.035.026.01.029-.016.03M627.073 749.07l.05-1.056M620.233 753.594l.028-1.033M596.457 750.842h0M627.124 748.015l.01-.015.003-.021M627.073 749.07l.016-.016.004-.016M597.07 752.48h0M620.233 753.594l.005.132.011.116.019.1.02.085.026.059.028.041.035.014M626.858 749.555l.085-.104.068-.119.047-.125.015-.136M627.124 748.015l-.005-.024-.022-.03-.017-.015-.032-.011M620.262 752.56v-.03l.007-.025.006-.025.003-.013M596.527 750.69h-.025l-.023.015M627.137 747.98h0M596.439 750.8h0M620.307 545.98v206.46M620.307 489.116v18.45M626.944 484.605l.01-.015v-.009M65.358 446.655l.028.025.027.031M67.807 444.29l.03.027.026.029M68.369 445.95l-.005.127-.011.122-.015.116-.024.104-.03.091-.031.06-.03.04-.034.01-.025-.02-.032-.046-.018-.075-.016-.088-.005-.112v-.12l.005-.124.016-.12.018-.114.032-.096.025-.074.035-.056.029-.021.03.007.031.029.024.061.015.084.01.1.006.115M67.113 446.92v-.028l-.01-.125-.006-.135v-.276l.005-.14.006-.139.01-.146.014-.14.014-.139.016-.136.027-.135.017-.13.027-.126.005-.018M140.228 374.336l.028.025.027.031M140.788 376l-.005.125-.011.12-.015.12-.024.107-.03.083-.03.065-.029.041-.036.01-.03-.019-.026-.052-.019-.07-.014-.094-.007-.11v-.12l.007-.12.014-.125.019-.11.025-.095.031-.08.036-.05.03-.025.029.004.03.035.024.061.015.079.01.105.006.115M139.533 376.965l-.005-.024-.006-.13-.004-.13v-.275l.004-.141.006-.144.01-.141.015-.14.015-.139.014-.141.027-.13.019-.13.025-.126.005-.018M137.777 376.706l.03.02.025.036M138.337 378.366l-.005.125-.01.126-.014.114-.026.106-.029.089-.03.06-.03.041-.036.008-.03-.02-.025-.044-.02-.076-.014-.089-.004-.11v-.12l.004-.125.014-.12.02-.116.026-.094.029-.075.036-.055.03-.02h.03l.03.035.025.06.014.085.01.099.005.116M137.082 379.336v-.03l-.01-.126-.005-.133v-.276l.006-.139.004-.141.01-.146.016-.138.015-.142.013-.134.027-.135.019-.13.025-.126.005-.02M81.168 713.327l.021-.03-.012-.031-.04-.026-.06-.024M54.177 712.67l.045-.039M54.682 713.271h0M54.119 713.035h0M81.217 714.43l-.005.015-.015.014M81.262 713.372l-.005.017-.014.016M80.978 714.946l.09-.104.063-.121.046-.127.021-.133M54.128 712.69l.025-.015.024-.005" style="fill:none;stroke:red;stroke-width:.666665;stroke-linecap:round;stroke-linejoin:round;stroke-miterlimit:4;stroke-dasharray:none;stroke-opacity:1;visibility:visible"/><path d="m81.168 713.327.03.008.025.016.016.03.005.025M78.983 715.027v-.03l.005-.029.006-.022.009-.015M78.962 716.592h0M81.262 713.372h0M54.038 712.89v-.007M65.182 445.646v2.03M79.033 451.575v263.326M65.193 445.62v.015l-.01.01M81.064 472.05v241.27M620.307 488.805v.236M618.999 488.64l-22.096-1.528M618.999 488.64l.24.021.219.02.201.024.2.031.215.03.233.04M620.65 482.97l.568-.065.575-.036.576-.014.576.014.58.036.573.065.576.084.575.116.57.14.566.161M626.944 484.531v-.31M622.983 488.045l3.961-3.824M622.628 488.46l.067-.085.058-.075.051-.064.055-.06.06-.067.065-.065M620.307 488.805l.187.027.184.014.185.01h.365l.18-.01.174-.014.166-.022.154-.03.146-.031.134-.039.121-.04.105-.045.091-.055.073-.05.055-.059M616.848 485.9h.21l.095-.005.096-.004.083-.01.081-.012.075-.008.065-.016.06-.02.055-.014.045-.02.036-.026" style="fill:none;stroke:red;stroke-width:.666665;stroke-linecap:round;stroke-linejoin:round;stroke-miterlimit:4;stroke-dasharray:none;stroke-opacity:1;visibility:visible"/><path d="m615.339 485.831.753.044.756.025M626.384 483.472l.128.055.121.078.106.096.084.119.064.125.041.136.016.14M626.954 484.195v.016l-.01.01M626.944 484.531l.01-.01v-.015M626.409 483.46h-.01l-.015.01M620.673 482.961h-.01l-.014.01M620.65 482.97l-.068.015-.064.036-.055.038M617.832 485.69h0M617.538 485.846h0M617.57 485.826l.083-.041.097-.019M616.878 485.9h0" style="fill:none;stroke:red;stroke-width:.666665;stroke-linecap:round;stroke-linejoin:round;stroke-miterlimit:4;stroke-dasharray:none;stroke-opacity:1;visibility:visible"/><path d="M616.863 485.895h-.005l-.011.005M615.348 485.831h-.01M598.598 484.667h-.01M598.589 484.667h-.045l-.05.01M596.624 487.015l.013.025.036.026.06.018.082.015.088.012M620.307 489.04l.007.03.005.02.004.009M626.918 484.581l.021-.027.006-.024M617.564 485.826h.01v-.005M57.527 447.676h0M56.668 447.736h0M55.413 449.64h0M81.064 449.195v-.039M79.033 451.195v.31M56.939 449.666l-.241-.015-.22-.012-.2-.004h-.2l-.215.004-.24.007M56.939 449.666l22.093 1.528M79.182 450.341l.15-.27.151-.245.154-.225.156-.196.154-.175.155-.145.155-.124.156-.096.15-.07.154-.046M63.967 447.59l16.75 1.159M58.432 447.67l.796-.045.793-.03.796-.025.791-.01h.79l.785.01.784.02M62.358 446.87l2.528-2.439M64.887 444.43l-.57-.145-.569-.115-.574-.095-.582-.07-.573-.04-.58-.015-.576.005-.57.035-.57.06-.565.085" style="fill:none;stroke:red;stroke-width:.666665;stroke-linecap:round;stroke-linejoin:round;stroke-miterlimit:4;stroke-dasharray:none;stroke-opacity:1;visibility:visible"/><path d="m55.198 447.961.53-.1.534-.081.54-.055.545-.04.54-.015h.546M55.762 447.855h0M55.369 447.926h0M65.182 444.805v.765M55.622 449.646h-.175l-.17-.01-.159-.015-.156-.02-.14-.026-.13-.029-.115-.036-.099-.037-.085-.047-.071-.05-.05-.05-.034-.05-.01-.034-.006-.041M63.967 447.59l-.76-.059-.768-.08M62.439 447.451l-.101-.01-.091-.015-.084-.02-.07-.015-.06-.02-.05-.02-.035-.02-.03-.02-.02-.021-.004-.024.004-.024.025-.02M61.923 447.221l.22-.167.215-.185M59.158 444.136l-.13.035-.12.058-.106.087M55.198 447.961l-.13.033-.12.06-.106.086M79.033 451.195v-.14l.016-.144.015-.14.024-.13.026-.12.034-.1.034-.08M59.177 444.125h-.01l-.01.01M64.918 444.416l-.016.004-.015.01M65.193 445.546v.015l-.01.009M65.182 444.805l.01-.01v-.015" style="fill:none;stroke:red;stroke-width:.666665;stroke-linecap:round;stroke-linejoin:round;stroke-miterlimit:4;stroke-dasharray:none;stroke-opacity:1;visibility:visible"/><path d="m64.887 444.43.096.04.081.06.064.085.04.09.015.1M62.182 447.401l-.05-.065-.065-.056-.07-.039-.074-.02M62.467 447.455h0M62.452 447.451h-.013M63.973 447.59h-.005M80.723 448.75h0-.005M81.064 449.156l.01-.016.003-.01" style="fill:none;stroke:red;stroke-width:.666665;stroke-linecap:round;stroke-linejoin:round;stroke-miterlimit:4;stroke-dasharray:none;stroke-opacity:1;visibility:visible"/><path d="m80.717 448.75.096.021.084.047.07.065.055.083.035.09.007.1M79.033 451.506v.03l.005.02.011.005M65.163 445.62l.015-.02.005-.03M54.223 449.2v-.005M62.137 447.401h0M62.103 447.375h.005l.011.005.017.006.027.009.035.01.041.011.055.01.064.01.094.015M596.624 487.241 79.494 451.38M597.793 485.027l-516.71-35.835M382.341 438.694l-30.319 29.287M144.564 371.895l-.067.076-.065.105-.063.13-.066.154-.055.175-.055.2-.049.21-.047.23-.04.245-.029.251-.025.255-.02.26-.01.254v.251l.006.244.009.236.019.22.026.199.035.186.04.166.044.134.05.11.06.085M144.788 373.265l-.23.2M144.443 374.295l.105.64M144.557 373.466l-.115.83M686.767 417.59l-.175.095-.164.116-.15.134M688.684 417.575l-.09-.04-.095-.04M686.962 407.991l-.19.085-.174.1-.164.114-.157.136M689.437 411.69l.165-.18.14-.195.115-.216.09-.23.065-.238.034-.25.007-.251-.027-.255-.054-.25-.08-.244-.104-.236-.136-.226-.154-.202-.18-.192-.194-.175-.216-.144-.224-.127-.24-.094-.248-.071-.252-.045-.251-.008-.25.014-.247.044-.234.072M689.947 409.486l-.033-.1-.04-.096M688.332 409.426l-.84-.145M688.678 410.221l-.347-.796M688.184 410.87l.495-.648M158.902 380.855l-.2.085-.196.106-.175.118-.164.146M161.783 382.23l-.105-.224-.13-.215-.15-.2-.17-.185-.19-.164-.206-.147-.218-.124-.232-.101M161.832 382.37l-.025-.07-.024-.07M160.243 382.325l-.841-.17M160.564 383.13l-.32-.805M160.052 383.761l.512-.63M161.823 372.82l-.09-.215-.11-.21-.135-.2-.145-.18-.17-.168-.18-.152-.2-.135-.206-.11-.215-.09M160.228 372.805l-.841-.15M160.568 373.6l-.34-.796M160.068 374.245l.5-.644M159.132 373.066l.31-.399M182.043 384.761l-.005.139-.02.136-.024.136-.042.129-.049.125-.06.126-.065.114-.08.11-.09.1-.096.094-.1.086-.11.08-.12.065-.118.056-.132.05-.13.034-.134.025-.136.015-.138.005-.142-.012-.133-.018-.141-.031-.135-.039-.136-.05-.125-.059-.124-.07-.12-.086-.11-.085-.109-.1-.097-.106-.09-.113-.08-.116-.074-.127-.06-.129-.055-.13-.04-.14-.03-.134-.02-.14-.009-.14.004-.141.014-.134.026-.136.035-.134.045-.124.055-.126.07-.114.074-.116.085-.1.092-.1.104-.086.104-.078.115-.072.125-.059.124-.05.132-.04.135-.031.135-.015.136-.005.14.005.138.015.14.026.136.039.13.045.13.062.131.068.119.076.06.05" style="fill:none;stroke:red;stroke-width:.666665;stroke-linecap:round;stroke-linejoin:round;stroke-miterlimit:4;stroke-dasharray:none;stroke-opacity:1;visibility:visible"/><path d="m181.693 383.695.04.055.075.126.065.124.055.136.045.135.033.136.027.175.01.18M172.897 373.156l-.004.133-.016.142-.03.136-.04.128-.046.125-.059.125-.07.115-.08.11-.084.1-.096.095-.104.086-.111.074-.115.071-.124.056-.125.048-.136.036-.135.025-.136.015h-.138l-.135-.007-.14-.02-.141-.029-.134-.039-.13-.05-.13-.06-.124-.076-.121-.079-.11-.09-.105-.097-.101-.104-.09-.113-.08-.117-.07-.126-.064-.129-.05-.135-.04-.133-.035-.136-.022-.141-.002-.139v-.139l.014-.136.024-.136.035-.136.045-.124.06-.125.066-.119.076-.11.082-.106.098-.096.098-.084.11-.078.116-.072.121-.059.124-.05.13-.04.134-.03.136-.016.14-.005h.14l.135.021.14.024.134.04.135.045.13.062.126.068.119.076.06.05M172.548 372.091l.044.055.07.125.066.124.055.13.044.135.036.14.024.175.01.181M182.043 373.785l-.005.141-.02.139-.024.13-.042.135-.049.124-.06.122-.065.12-.08.105-.09.104-.096.095-.1.085-.11.075-.12.069-.118.056-.132.045-.13.042-.134.024-.136.014h-.138l-.142-.005-.133-.019-.141-.03-.135-.04-.136-.051-.125-.064-.124-.07-.12-.08-.11-.09-.109-.096-.097-.104-.09-.115-.08-.12-.074-.12-.06-.129-.055-.136-.04-.135-.03-.137-.02-.14-.009-.139.004-.138.014-.142.026-.136.035-.128.045-.13.055-.12.07-.12.074-.11.085-.105.092-.095.104-.089.104-.083.115-.064.125-.06.124-.049.132-.041.135-.03.135-.014.136-.01.14.004.138.015.14.03.136.037.13.048.13.061.131.065.119.079.06.05M181.693 372.72l.04.059.075.121.065.13.055.13.045.135.033.141.027.173.01.175M679.069 419.23l-.007.136-.02.14-.025.135-.039.129-.049.125-.061.126-.064.116-.082.109-.085.1-.099.095-.101.085-.11.075-.12.07-.12.055-.13.05-.13.035-.133.026-.136.013h-.14l-.141-.004-.135-.02-.141-.03-.133-.04-.13-.05-.13-.06-.124-.076-.12-.079-.112-.09-.103-.095-.103-.105-.089-.115-.081-.115-.072-.125-.062-.13-.048-.134-.045-.136-.032-.135-.02-.14-.01-.14.006-.14.015-.134.025-.136.035-.135.044-.125.054-.124.071-.12.076-.111.085-.105.095-.095.101-.09.103-.075.121-.071.12-.06.124-.05.131-.04.136-.029.133-.016.142-.009.133.005.141.02.139.026.135.038.134.046.131.06.125.07.12.075.059.05M678.717 418.16l.04.061.075.12.066.13.055.129.045.136.034.14.026.175.011.178M669.922 418.596l-.004.135-.016.138-.028.136-.041.131-.046.124-.06.125-.069.115-.08.11-.085.1-.095.095-.105.086-.11.074-.114.071-.124.055-.126.049-.136.037-.129.023-.141.015-.135.006-.141-.01-.138-.02-.141-.031-.135-.039-.13-.05-.131-.059-.124-.07-.115-.087-.114-.086-.107-.098-.1-.104-.09-.116-.08-.115-.069-.125-.065-.131-.05-.13-.04-.14-.035-.134-.016-.141-.008-.14v-.139l.014-.135.026-.136.036-.136.044-.124.058-.125.067-.115.073-.113.086-.101.094-.1.1-.086.111-.08.116-.07.119-.06.124-.05.132-.04.134-.029.135-.016.141-.005.138.005.136.016.14.024.136.04.133.045.132.062.125.069.118.075.061.05M669.572 417.531l.045.055.078.125.057.125.057.135.044.135.034.136.026.174.01.18M679.069 408.256l-.007.139-.02.136-.025.136-.039.129-.049.13-.061.12-.064.114-.082.11-.085.105-.099.09-.101.09-.11.076-.12.064-.12.061-.13.045-.13.035-.133.03-.136.01-.14.005-.141-.005-.135-.021-.141-.03-.133-.041-.13-.055-.13-.058-.124-.071-.12-.08-.112-.09-.103-.1-.103-.105-.089-.109-.081-.12-.072-.127-.062-.124-.048-.134-.045-.136-.032-.139-.02-.141-.01-.135.006-.14.015-.14.025-.135.035-.129.044-.13.054-.12.071-.12.076-.111.085-.106.095-.093.101-.09.103-.08.121-.07.12-.061.124-.05.131-.034.136-.031.133-.02.142-.005.133.005.141.016.139.03.135.034.134.05.131.06.125.065.12.08.059.045" style="fill:none;stroke:red;stroke-width:.666665;stroke-linecap:round;stroke-linejoin:round;stroke-miterlimit:4;stroke-dasharray:none;stroke-opacity:1;visibility:visible"/><path d="m678.717 407.191.04.059.075.121.066.13.055.13.045.135.034.134.026.18.011.176M669.922 407.62l-.004.14-.016.14-.028.13-.041.135-.046.124-.06.12-.069.122-.08.104-.085.105-.095.096-.105.084-.11.076-.114.07-.124.054-.126.045-.136.04-.129.024-.141.016h-.135l-.141-.004-.138-.02-.141-.03-.135-.04-.13-.051-.131-.064-.124-.07-.115-.08-.114-.09-.107-.096-.1-.104-.09-.116-.08-.12-.069-.119-.065-.13-.05-.136-.04-.135-.035-.139-.016-.136-.008-.14v-.14l.014-.14.026-.136.036-.128.044-.132.058-.118.067-.122.073-.109.086-.105.094-.095.1-.09.111-.08.116-.065.119-.06.124-.05.132-.04.134-.03.135-.016.141-.009.138.005.136.015.14.03.136.035.133.05.132.06.125.065.118.08.061.05M669.572 406.555l.045.061.078.12.057.13.057.13.044.135.034.141.026.174.01.174M166.762 366.38h-.01M165.243 369.716l.004.09.01.08.014.06.021.04.339.409M165.143 378.36l-1.27 1.23M163.807 379.716l.007-.04.018-.044.04-.041M164.462 380.67l.016.005.015.006h.013l.016.004h.035M163.807 380.3l.01.06.046.059.07.061.094.05.125.054.14.047.17.038M165.682 385.6l-.005.1-.01.095-.014.089-.022.08-.338 1.07M165.293 387.036l-.021.076-.015.095-.01.094-.003.1v1.455M165.243 388.855l.004.095.01.076.014.058.021.04.022.015M165.243 380.736l-.687-.05M681.093 424.91l-34.623-2.401M367.294 403.146l-201.98-14.007M163.807 380.3v-.584M709.508 668.37h0M704.908 674.16h0M709.462 669.43l.045-1.061M698.212 673.271l-.05-1.047M682.328 668.924l-.045-1.044M683.023 669.61l-.085-.01-.086-.025-.085-.029-.08-.036-.07-.05-.065-.055-.054-.055-.052-.065-.039-.07-.044-.105-.027-.11-.008-.077M698.347 670.67l-15.32-1.06M698.902 673.956l-.083-.01-.086-.02-.084-.029-.078-.041-.073-.047-.065-.053-.058-.061-.048-.064-.04-.064-.045-.107-.025-.11-.006-.078M709.462 669.435l-.01.096-.018.095-.036.09-.04.083-.05.08-.057.076-.064.07M704.413 674.342l-5.505-.387M709.187 670.027l-4.28 4.133M704.908 674.16l-.055.047-.06.038-.065.035-.095.036-.105.019-.055.006h-.06M698.163 672.225v-.015l.005-.018.004-.018.012-.014.01-.015.009-.01M698.347 671.995l-.144.14M682.283 667.88v-.019l.005-.017.006-.013.01-.016.008-.015.01-.015M709.322 668.1l.045.03.062.05.044.06.02.039.016.045v.041M682.467 667.646l-.145.139M698.347 668.98l-15.599-1.084M709.322 668.29l-.003.041-.025.044-.036.042M709.319 404.93l.003.02v.015M709.258 668.416l-4.31 4.165M704.947 672.581l-.039.024-.06.02-.081.015-.088.012-.096.004-.1-.004-5.85-.407M698.633 672.245l-.095-.01-.076-.015-.06-.02-.038-.026-.016-.024M682.749 667.896l-.09-.01-.08-.017-.062-.018-.033-.026-.016-.025M682.467 404.475l.005-.008.011-.016M709.322 404.965v263.323M698.347 668.98v3.17M682.467 404.475v19.107M682.467 450.767V667.8M172.897 384.125l-.004.14-.016.137-.03.134-.04.13-.046.13-.059.12-.07.114-.08.11-.084.101-.096.095-.104.084-.111.081-.115.065-.124.059-.125.045-.136.036-.135.024-.136.016-.138.003-.135-.008-.14-.016-.141-.03-.134-.043-.13-.051-.13-.06-.124-.07-.121-.08-.11-.09-.105-.1-.101-.105-.09-.11-.08-.121-.07-.124-.064-.13-.05-.13-.04-.135-.035-.14-.022-.14-.002-.14v-.134l.014-.14.024-.136.035-.13.045-.129.06-.127.066-.114.076-.111.082-.104.098-.1.098-.084.11-.081.116-.07.121-.06.124-.05.13-.04.134-.026.136-.02.14-.005.14.005.135.016.14.024.134.04.135.052.13.054.126.07.119.079.06.047M172.548 383.06l.044.056.07.125.066.124.055.136.044.135.036.135.024.18.01.174M143.189 633.625l2.939-2.84M146.587 630.717l18.29 1.264M166.908 630.4l.01-.015.006-.012M136.593 633.191l.01.025.04.026.06.018.075.016.095.01 5.85.405M142.723 633.69l.1.004.095-.004.089-.01.08-.015.06-.02.043-.02M146.128 630.785l.035-.024.06-.02.08-.016.09-.008.1-.007.095.007M164.878 631.98l.095.005.1-.005.09-.01.08-.015.059-.02.041-.02 1.564-1.515M166.923 478.006v152.369M136.593 396.991v56.05M136.593 475.9v157.29M709.322 404.685v.205M709.322 404.685h0M707.858 403.625l.15.03.145.035.14.03.129.041.125.04.116.045.114.048.106.062.115.074.105.1.05.06.044.066.045.08.035.084.026.09.016.086.003.085M706.462 403.451l-22.095-1.53M706.462 403.451l.28.024.281.03.28.035.279.042.276.044M682.467 403.64v-.039l.005-.005v-.03h.006v-.02l.005-.006v-.013h.005v-.016h.004v-.01l.006-.005v-.01h.002v-.011h.007v-.008h.004v-.012h.005v-.004M682.467 403.64v.767M684.319 401.92l-.14.016-.141.035-.135.045-.13.061-.131.068-.119.084-.12.096-.12.106-.115.116-.109.129-.112.135-.11.145-.109.156-.104.165-.108.174M684.367 401.92h-.048" style="fill:none;stroke:red;stroke-width:.666665;stroke-linecap:round;stroke-linejoin:round;stroke-miterlimit:4;stroke-dasharray:none;stroke-opacity:1;visibility:visible"/><path d="m682.762 404.555-.039-.003-.04-.005-.034-.007-.035-.005-.06-.024-.052-.03-.019-.026-.016-.044v-.004M683.217 404.585l-.456-.03M167.108 630.451h0M165.302 633.49h0M143.147 635.2h0M136.452 634.316l-.05-1.044M167.064 631.51l.044-1.06M165.302 633.49l-.055.05-.058.04-.067.035-.095.036-.104.019h-.116M146.658 632.41l18.15 1.26M165.302 633.49l1.521-1.47M146.658 632.41l-.09-.004h-.186l-.093.004-.091.012-.079.003-.066.016-.05.01h-.005M167.064 631.51l-.016.115-.036.109-.044.105-.065.095-.039.045-.041.04M143.147 635.2l-.055.05-.06.04-.06.035-.1.035-.104.02h-.116M143.147 635.2l2.85-2.75M137.147 635l5.505.381M137.143 635l-.08-.008-.09-.024-.086-.032-.073-.036-.076-.05-.066-.053-.054-.056-.051-.065-.04-.07-.044-.106-.027-.11-.005-.074M136.402 633.265v-.016l.005-.013.006-.015.01-.015.008-.016.011-.016.15-.138M166.923 630.286l.033.015.055.02.047.03.034.039.011.032.005.03M704.277 429.701l.085-.105.066-.122.04-.129.014-.139v-20.012M698.547 408.13l-.064.02-.061.03-.055.04M140.768 365.14l.1-.09.095-.085.105-.074.105-.071.115-.064M140.768 365.14l-3.961 3.825M141.288 364.756l.07-.035.066-.03.07-.024.169-.047.19-.039.14-.026.151-.023.15-.021.154-.015.16-.016.099-.008.101-.005.1-.006.095-.006M136.593 369.486l.005-.115.03-.11.046-.11.059-.097.075-.09M136.593 369.486v.31M166.497 366.006l.067.01.058.02.055.025.045.034.046.042.034.04.035.053.021.048.023.063.012.045M136.593 369.805v-.01M143.087 371.426l-.01.09-.034.085-.055.074M141.443 373.165v3.487M141.443 376.652l.015.095.036.089.054.08.08.065 1.28.831M148.207 380.33l.225.02.211.024.2.036.179.04.16.04.141.05.11.055.085.056.058.059M143.452 380l4.755.33M141.693 385.186l.17.02.175.01.18.009h.184l.18-.01.175-.009.17-.02M149.577 380.71l.01.021.011.018.006.02.004.021.005.03v.029M149.613 381.346h0M142.927 385.186l-.17-.021-.175-.014-.18-.006h-.184l-.18.006-.175.014-.17.021M142.314 388.395l.593.385M142.908 388.78l.076.067.055.08.038.089.011.096v1.455M143.087 390.566l-.01.095-.034.085-.055.07M137.077 369.34l-77.333 74.7M142.988 371.676l-1.545 1.49M149.613 381.346l-7.3 7.05M142.988 390.817l-60.536 58.47M149.613 380.85v.496M627.137 747.98h0M627.093 749.039l.044-1.06M596.483 751.844l-.044-1.044M597.178 752.531l-.085-.01-.084-.026-.086-.028-.081-.036-.068-.05-.068-.054-.055-.056-.048-.065-.04-.07-.045-.105-.025-.11-.01-.077M597.182 752.531l23.195 1.61M622.58 753.685l4.279-4.13M622.58 753.685l-.081.07-.086.06-.082.05-.112.056-.12.045-.119.039-.16.041-.167.035-.18.028-.185.021-.16.01-.164.01h-.327l-.128-.005-.13-.005M627.093 749.039l-.013.117-.031.11-.05.106-.065.095-.034.044-.042.044M626.954 747.815l.039.017.054.019.046.03.034.04.01.031v.027M596.48 750.706l.144-.139M596.439 750.8v-.02l.005-.015.004-.014.01-.016.009-.015.012-.015M596.624 750.72l.013.027.036.025.06.019.082.014.088.012M596.637 487.372l-.01.015-.003.009M596.902 750.817l23.405 1.624M620.307 752.44l.227.01.228.006h.232l.224-.012.221-.013.21-.026.193-.03.185-.034.167-.041.144-.044.118-.05.1-.055.071-.058 4.317-4.164M626.944 747.93l.01-.016v-.01M626.954 484.581v-.015l-.01-.012M622.064 488.746h0M596.624 576.787V750.72M596.624 487.395v42.992M626.954 536.473v211.431M626.954 484.581v15.759M65.358 446.655l.01.01.045.046M67.628 447.761l-.045.04-.044.025-.042.01M67.432 447.831l-.039-.02-.045-.036-.035-.045-.036-.055-.03-.065-.03-.079-.025-.09-.019-.095-.021-.1-.021-.11-.008-.121-.01-.096M67.238 445.106l.024-.1.03-.11.03-.105.015-.045M67.807 444.286l.01.01.046.05" style="fill:none;stroke:red;stroke-width:.666665;stroke-linecap:round;stroke-linejoin:round;stroke-miterlimit:4;stroke-dasharray:none;stroke-opacity:1;visibility:visible"/><path d="m67.863 444.346.019.03.02.03.025.03.02.03.02.035.021.03.014.03.02.036.021.029.015.035.018.03.016.035.016.036.019.03.016.034.015.036.014.035.01.033.016.036.014.035.011.036.015.034.009.035.01.035.011.034.01.036.009.035.01.04.01.036.007.033.009.036.004.04.01.035.005.035.005.04.005.034.006.042v.034l.005.035.005.04v.036l.004.04v.219l-.004.04v.034l-.005.042v.034l-.005.036-.006.039-.005.035-.005.036-.006.04-.009.034-.004.035-.01.04-.006.035-.01.034-.01.035-.01.041-.009.035-.012.035-.009.036-.01.033-.01.036-.015.035-.014.034-.01.036-.016.036-.014.035-.015.035-.016.03-.015.034-.014.034-.022.03-.013.036-.02.034-.016.031-.021.035-.018.029-.021.032-.02.033-.02.031-.02.03-.02.03-.024.03-.021.03-.024.03-.02.031-.026.03-.025.024-.02.03-.025.03-.026.025-.024.03-.025.026M140.043 377.811l-.04.035-.05.024-.046.016-.05-.004-.05-.02-.039-.036-.034-.046-.036-.054-.03-.071-.032-.073-.022-.091-.022-.096-.02-.105-.02-.11-.009-.114-.01-.1M139.658 375.156l.025-.101.03-.114.03-.105.014-.045M140.228 374.336l.01.01.045.046" style="fill:none;stroke:red;stroke-width:.666665;stroke-linecap:round;stroke-linejoin:round;stroke-miterlimit:4;stroke-dasharray:none;stroke-opacity:1;visibility:visible"/><path d="m140.283 374.391.02.028.02.036.025.03.02.031.019.03.021.036.015.029.02.03.02.034.015.03.02.035.014.036.016.03.02.034.016.035.014.036.014.035.011.028.016.036.013.036.012.034.014.035.01.036.01.04.012.033.009.036.008.035.01.036.011.035.006.04.01.034.004.034.006.042.008.035.006.035.004.04.006.034v.04l.005.035.005.035v.041l.006.035v.225l-.006.035v.038l-.005.036-.005.042v.034l-.006.034-.004.041-.006.035-.006.036-.008.038-.004.034-.01.036-.006.041-.01.035-.011.034-.008.035-.01.036-.011.04-.01.036-.01.033-.014.035-.012.035-.013.036-.01.036-.017.032-.014.032-.014.034-.016.036-.016.035-.02.03-.014.034-.015.036-.02.03-.015.035-.021.03-.019.034-.021.031-.019.03-.02.03-.021.035-.019.029-.025.03-.021.03-.023.03-.021.026-.024.03-.026.029-.021.03-.024.024-.025.031-.024.025-.031.031M137.593 380.177l-.04.039-.05.025-.046.008-.05-.004-.049-.02-.04-.033-.034-.047-.036-.053-.03-.071-.029-.076-.025-.09-.02-.094-.022-.1-.018-.115-.011-.116-.01-.094M137.207 377.52l.027-.1.028-.11.03-.11.015-.04M137.777 376.7l.01.01.045.05" style="fill:none;stroke:red;stroke-width:.666665;stroke-linecap:round;stroke-linejoin:round;stroke-miterlimit:4;stroke-dasharray:none;stroke-opacity:1;visibility:visible"/><path d="m137.832 376.761.021.03.019.029.025.03.02.032.022.034.018.03.015.028.021.036.019.031.015.035.021.03.016.034.013.036.02.03.016.035.015.036.015.033.009.035.016.036.015.035.01.036.014.034.01.034.011.034.01.036.01.035.008.036.012.04.01.035.005.034.01.035.006.041.004.035.01.035.004.04.006.036.004.034v.04l.005.034.005.041v.036l.006.033v.226l-.006.038v.036l-.005.036-.005.039v.036l-.004.04-.006.035-.004.036-.006.038-.008.035-.006.036-.01.041-.006.034-.009.034-.012.035-.008.041-.01.034-.01.034-.01.036-.011.035-.014.036-.01.035-.015.036-.01.033-.015.036-.015.033-.015.036-.016.031-.016.033-.013.036-.02.03-.016.036-.02.034-.015.03-.02.03-.02.035-.018.03-.022.031-.02.035-.02.03-.018.03-.027.03-.019.029-.025.03-.02.031-.024.03-.027.025-.02.03-.024.028-.026.027-.024.03-.031.026M54.082 713.935h0M81.262 713.372h0M79.457 716.41h0M54.082 713.935l-.044-1.047M81.217 714.43l-.016.115-.033.109-.046.107-.065.093-.039.048-.041.043-1.52 1.464M81.217 714.43l.044-1.059M79.457 716.41l-.055.05-.06.04-.065.034-.095.037-.105.022h-.115M78.962 716.592l-23.195-1.613M55.768 714.98l-.137-.01-.134-.013-.129-.014-.121-.027-.128-.025-.122-.03-.116-.034-.109-.042-.136-.058-.13-.074-.109-.086-.104-.106-.054-.073-.051-.081-.045-.088-.035-.103-.021-.104-.006-.07M54.223 712.601l-.095.09M81.077 713.206l.036.013.055.02.045.032.035.039.009.032.005.03M54.038 712.882v-.027l.005-.034.015-.036.015-.03.025-.03.03-.035M79.493 714.835l-.036.021-.06.02-.08.014-.09.013-.1.003-.095-.003-23.41-1.623M55.622 713.28l-.21-.02-.206-.024-.188-.03-.176-.035-.16-.044-.135-.044-.116-.052-.089-.055-.07-.055-.04-.056-.01-.06M54.223 449.48v-.015l.005-.014M65.182 445.596l.01.01v.014M81.077 713.297l-.004.008-.01.017M56.533 447.75h0M81.064 713.321l-1.57 1.513M54.223 449.48v263.325M65.193 445.62v2.056M81.077 472.05v241.246M626.954 484.195v.312M620.464 483.06h0l.004-.005.005-.004.007-.004.004-.006h.005v-.005h.004v-.005h.01v-.004h.006v-.006h.003l.007-.005h.006v-.007h.01v-.004h.004l.005-.005h.004v-.004h.01l.006-.004h.005l.004-.007h.007l.003-.005h.01l.006-.005h.009l.005-.004h.015v-.006h.023l.002-.004h.02M617.932 485.506l2.53-2.445M617.57 485.826l.055-.047.081-.064.072-.069.077-.07.078-.07M615.348 485.831l-16.75-1.165M598.493 484.676l-.136.035-.135.05-.13.059-.126.076-.124.09-.12.095-.114.111-.115.113-.11.131-.109.14-.112.145-.109.16-.105.164-.1.176-.104.19M598.493 484.676h.005v-.005h.028l.007-.004h.064M596.743 486.41l-.03.061-.02.055-.015.059-.016.061-.012.06-.014.061-.002.059-.007.065-.004.059v.065M596.624 487.325v-.31M626.954 484.506v.02l-.007.013-.009.015-.01.016-.01.01M54.223 449.2v.205M54.843 448.14l3.96-3.825M54.402 448.655l.085-.115.086-.109.089-.101.09-.1.09-.09M54.223 449.195l.005-.095.016-.104.028-.096.035-.089.047-.08.049-.075M59.177 444.125l-.08.016-.079.03-.08.04-.069.046-.067.059M65.193 445.546v-.767M64.918 444.416v.004h.015l.006.005h.008l.004.006h.011l.005.005h.006l.005.005.005.004h.011l.004.006h.004l.004.004h.005v.006h.007l.004.006h.005l.006.005v.003h.005l.005.005h.006l.004.007v.004h.004l.006.005.004.004.006.007.004.004h.005v.005l.005.004h.006v.007l.005.004.005.004.006.005.004.007v.005h.005v.003l.004.005v.007l.005.004h.004v.005l.006.005v.004l.006.006v.005h.004v.004l.006.005v.006l.005.005v.01l.005.006v.004h.004v.01l.006.006v.01l.004.005v.014l.005.004v.015l.007.005v.02l.004.006v.049M81.077 449.13v.06M80.723 448.75h.005l.006.007h.028l.006.005h.026l.005.005h.008l.007.004h.009l.004.006h.005l.006.004h.005l.005.005h.006l.009.005h.005l.004.006h.006l.004.005h.005l.007.004.004.005.005.007h.005l.006.003h.004l.005.006.004.006.005.004h.007l.004.004.005.006.004.004.006.006.005.005.005.004h.004v.004l.006.007.005.006.005.003v.005l.006.006h.004v.004l.005.005.004.005v.006l.005.004.007.006v.004l.004.006v.005l.005.004.004.005v.006l.006.005v.004l.005.005v.004l.005.006v.012l.004.004V449l.006.005v.01l.006.011v.015l.004.005v.014l.006.005v.035l.004.006v.024M65.193 445.546v.02l-.004.019-.012.016-.01.009-.003.01M79.493 471.386l.004.135.01.118.014.107.027.085.025.064.03.04.033.02M81.087 449.191h0-.005M596.624 507.805l-516.985-35.85M597.793 485.027 81.089 449.192M386.295 445.254l-24.247 23.421M357.846 437.044l-30.273 29.241M144.717 371.826l-.05.005-.054.024-.05.04M144.262 376.27l.045.05.046.025.049.014M144.717 371.826l.039.005M144.402 376.36h.04M144.443 376.36h.06l.061-.025.05-.03.054-.056.055-.058.045-.076.05-.088.045-.108.045-.115.044-.124.042-.14.038-.145.036-.15.03-.161.03-.165.024-.164.026-.174.02-.176.014-.181.016-.173.006-.182.005-.176.005-.173-.005-.17-.005-.165-.011-.158-.016-.158-.015-.145-.018-.14-.027-.13-.028-.114-.032-.11-.035-.1-.04-.085-.044-.072-.041-.054-.05-.043-.06-.03-.06-.015M688.499 417.495l-.237-.07-.238-.045-.241-.025-.236.01-.235.03-.229.056-.22.084-.205.104-.19.13-.174.15-.016.016M686.277 417.935l-.115.12-.104.136-.096.139-.086.15-.068.155-.058.161-.044.168-.028.171-.016.175v.176l.01.174.024.175.042.176.055.17.055.134M689.447 411.68l-.01.01M686.293 408.416l-.016.01M686.277 408.426l-.115.12-.104.135-.096.14-.086.15-.068.154-.058.165-.044.165-.028.171-.016.176v.173l.01.176.024.175.042.175.055.17.065.17.079.16.095.156.101.149.116.14.124.136.135.12.144.113.152.1.158.091.162.075.169.065.17.05.174.034.175.02.176.01.174-.003.175-.02.17-.036.165-.05.16-.06.156-.076.16-.089.149-.11.14-.125M160.382 380.87l-.23-.07-.24-.043-.238-.022-.241.006-.235.029-.225.056-.22.085-.204.104-.195.131-.176.15M161.332 384.566l-.01.01M161.332 384.566l.161-.17.135-.19.116-.207.088-.214.065-.224.042-.236.013-.24-.013-.239-.042-.241-.065-.235M158.177 381.295l-.01.015M158.168 381.31l-.12.12-.105.136-.095.139-.08.15-.07.156-.055.16-.046.17-.029.169-.016.175-.004.176.016.174.023.176.041.175.055.168.065.167.079.164.092.156.104.15.114.139.124.136.136.119.14.11.156.106.155.084.164.08.165.061.176.05.175.04.173.02.176.009.175-.006.176-.018.165-.036.171-.05.159-.061.154-.075.155-.094.15-.106.14-.124M159.993 371.256l-.25-.03h-.25l-.247.023-.24.056-.229.086-.213.109-.202.13-.185.16M161.332 375.055l.161-.172.139-.192.116-.21.09-.22.065-.23.036-.24.013-.239-.02-.246-.039-.246-.07-.24M160.372 371.36l-.19-.06-.189-.044M161.332 375.055l-.01.01M158.177 371.791l-.01.01M158.168 371.801l-.12.119-.105.134-.095.14-.08.151-.07.155-.055.166-.046.166-.029.168-.016.174-.004.176.016.175.023.176.041.175.055.169.065.17.079.16.092.155.104.151.114.139.124.136.136.12.14.114.156.099.155.092.164.073.165.066.176.05.175.035.173.02.176.01.175-.003.176-.022.165-.034.171-.046.159-.064.154-.072.155-.093.15-.11.14-.126M621.041 482.916l77.324-74.694M626.953 504.388l77.323-74.685M626.946 484.092l77.535-74.896M663.999 414.221l-9.67.43M682.457 403.69l-13.146-2.456M663.999 414.221l2.975-11.604M663.999 414.221l-.021-9.004M372.663 394.11l13.399-8.167M682.027 415.053l.44-4.582M663.999 414.221l-1.357-5.125M372.663 394.11l8.81-4.15M165.608 370.36l.024 4.63M682.434 422.9l.033-11.085M682.467 422.785l-.033-10.86M663.999 414.221l-3.685-1.52M372.663 394.11l5.832-.953M165.243 380.736l16.51.134M165.245 380.735l16.508.135M660.314 412.701l3.685 1.52M682.027 415.053l.356 1.498M679.819 416.375l2.648 5.065M663.999 414.221l-13.841 4.978M372.663 394.11l-1.183 5.763M372.663 394.11l-2.164 7.158M372.663 394.11l3.816 1.276M682.467 423.582l15.88 11.844M149.548 381.116l-3.42-.93M142.723 385.207l3.864-.942M165.244 388.856l1.664.394M67.628 447.761l2.586.266M67.628 447.761l5.215.445M620.307 488.805v18.762M67.113 446.92l1.256-.97M67.113 446.919l1.256-.969M137.082 379.336l1.255-.97M137.082 379.336l1.255-.97M679.819 416.375l1.274 8.535M663.999 414.221l-17.529 8.288M372.663 394.11l-5.369 9.036M698.634 672.245l-.287-1.575M143.088 390.567l-6.495 6.424M67.628 447.761l14.824 1.525M620.307 489.116l6.647 11.224M688.331 409.425l-2.483 10.89M622.627 488.461l4.326 15.927" style="fill:none;stroke:red;stroke-width:.666665;stroke-linecap:round;stroke-linejoin:round;stroke-miterlimit:4;stroke-dasharray:none;stroke-opacity:1;visibility:visible"/><path d="M704.626 403.881h0M704.483 409.25v-.304M704.387 408.125l.13.056.12.076.106.099.085.116.064.128.042.136.013.14" style="fill:none;stroke:#00ff4a;stroke-width:.666665;stroke-linecap:round;stroke-linejoin:round;stroke-miterlimit:4;stroke-dasharray:none;stroke-opacity:1;visibility:visible"/><path d="M704.483 408.946h.195l.089-.01.08-.017.06-.024.04-.02M704.499 409.31l-.01-.01-.006-.02v-.03" style="fill:none;stroke:#00ff4a;stroke-width:.666665;stroke-linecap:round;stroke-linejoin:round;stroke-miterlimit:4;stroke-dasharray:none;stroke-opacity:1;visibility:visible"/><path d="m699.065 367.693.977-.944M698.964 368.153l.005-.095.01-.1.016-.088.018-.081.027-.062.025-.034M698.964 369.053v-.9M698.918 369.402l.023-.077.012-.087.01-.09v-.094M698.713 370.111l.204-.71M698.668 370.462l.006-.095.01-.09.009-.084.02-.083M698.668 371.913v-1.451M698.745 372.193l-.027-.011-.018-.039-.016-.061-.01-.08-.006-.088" style="fill:none;stroke:#00ff4a;stroke-width:.999997;stroke-linecap:round;stroke-linejoin:round;stroke-miterlimit:4;stroke-dasharray:none;stroke-opacity:1;visibility:visible"/><path d="m354.204 423.307.08-.055.09-.03.094-.004M700.042 366.749l.01-.011.016-.005" style="fill:none;stroke:#00ff4a;stroke-width:1.66666;stroke-linecap:round;stroke-linejoin:round;stroke-miterlimit:4;stroke-dasharray:none;stroke-opacity:1;visibility:visible"/><path d="m617.038 447.287.004-.1.01-.095.014-.09.022-.08.025-.059.025-.036M617.038 448.188v-.9M616.994 448.532l.02-.076.016-.085.01-.088v-.096M616.79 449.247l.203-.715M616.744 449.598l.004-.095.01-.09.01-.091.021-.075M355.036 430.63l261.634 18.148M616.744 451.048v-1.45M616.818 451.327l-.025-.016-.02-.035-.015-.064-.01-.076-.004-.088M616.888 450.807l.026.005M616.013 446.788l-.01.095-.034.081-.061.074M616.013 441.668v5.119M615.648 441.276l.094.022.086.038.08.064.054.08.042.092.01.096M699.338 360.437l-83.69 80.84M588.95 439.426l26.697 1.85M588.69 439.518l.073-.056.091-.03.094-.006M594.008 440.218l-4.805 4.64M586.633 444.802l-.01.09-.035.086-.059.07M586.633 439.682v5.118M586.268 439.291l.096.016.085.045.075.066.06.078.036.091.013.095M670.052 358.357l-83.785 80.933M567.979 438.022l18.289 1.268M567.719 438.118l.074-.056.09-.035.096-.004M586.425 441.748l-3.288 3.175M576.425 438.86l-5.408 5.223M573.043 438.812l-4.806 4.64M565.713 443.352l-.01.09-.034.084-.06.072M565.713 438.231v5.121M565.348 437.836l.096.02.085.044.081.062.054.08.036.094.013.095M649.132 356.909l-83.785 80.929M547.065 436.575l18.283 1.263M546.799 436.663l.074-.056.09-.03.101-.001M544.844 441.852l-.016.091-.035.084-.053.07M544.844 436.731v5.12M544.479 436.343l.096.019.084.038.076.068.058.079.037.09.014.096M628.168 355.503l-83.69 80.84M517.779 434.492l26.698 1.851M517.513 434.582l.082-.056.089-.03.095-.004M515.463 439.868l-.014.088-.036.086-.053.068M515.463 434.748v5.122M515.097 434.352l.096.02.087.045.073.059.06.08.037.095.013.096M598.883 353.422l-83.786 80.93M496.808 433.087l18.29 1.265M496.55 433.182l.072-.059.091-.03.097-.007M494.543 438.418l-.014.089-.036.085-.053.071M494.543 433.298v5.12M494.177 432.902l.096.021.087.044.073.06.062.08.034.093.014.098M577.963 351.973l-83.786 80.929M475.888 431.638l18.29 1.264M475.63 431.727l.073-.055.091-.03.093-.004M473.673 436.916l-.016.091-.036.085-.053.071M473.673 431.798v5.118M473.308 431.407l.09.015.089.045.077.065.057.08.036.091.016.095M556.995 350.566l-83.686 80.841M446.61 429.554l26.698 1.854M446.344 429.647l.08-.056.09-.03.096-.008M444.292 434.932l-.012.091-.037.084-.055.07M444.292 429.811v5.12M443.923 429.418l.095.02.092.042.073.062.061.08.036.09.012.1M527.713 348.486l-83.789 80.932M425.639 428.152l18.284 1.266M425.379 428.242l.075-.056.089-.028.096-.008M423.372 433.476l-.012.096-.037.084-.056.07M423.372 428.356v5.12M423.004 427.967l.094.02.092.039.074.066.06.08.036.09.014.094M506.793 347.038l-83.789 80.93M404.719 426.702l18.285 1.265M404.459 426.792l.075-.056.089-.028.096-.005M402.504 431.98l-.016.092-.034.086-.055.07M402.504 426.863v5.117M402.132 426.471l.096.015.09.044.074.066.06.08.036.09.015.096M485.825 345.633l-83.691 80.837M375.44 424.618l26.693 1.852M375.172 424.712l.076-.056.09-.034.1-.004M373.12 429.992l-.01.095-.036.085-.055.07M373.12 424.871v5.121M372.754 424.482l.094.021.092.044.074.06.06.08.036.09.01.095M456.543 343.554l-83.79 80.928M354.468 423.216l18.286 1.264" style="fill:none;stroke:#00ff4a;stroke-width:.999997;stroke-linecap:round;stroke-linejoin:round;stroke-miterlimit:4;stroke-dasharray:none;stroke-opacity:1;visibility:visible"/><path d="m353.814 428.562.29.02" style="fill:none;stroke:#00ff4a;stroke-width:1.66666;stroke-linecap:round;stroke-linejoin:round;stroke-miterlimit:4;stroke-dasharray:none;stroke-opacity:1;visibility:visible"/><path d="m593.593 444.155 6.97.49M606.633 445.071l6.857.481M616.193 446.762l.945.064.98-.95M565.944 443.276l1.67.115M545.024 441.827l1.67.115M515.693 439.792l1.722.122M494.773 438.343l1.67.113M473.853 436.887l1.67.12M444.524 434.856l1.722.115M423.604 433.402l1.67.121M402.684 431.952l1.67.114M373.355 429.916l1.72.12" style="fill:none;stroke:#00ff4a;stroke-width:.999997;stroke-linecap:round;stroke-linejoin:round;stroke-miterlimit:4;stroke-dasharray:none;stroke-opacity:1;visibility:visible"/><path d="m456.543 343.554.096.02.084.039.076.065.06.08.033.09.016.094v1.011M437.995 342.378l.073-.055.09-.033.098-.007 18.289 1.27M354.106 423.556l.01-.094.034-.086.056-.069M693.748 371.846l4.997.347M700.068 366.731l.026.016.019.04.016.059.01.08v.99s.179.25.248.581l.021.04.018.06.007.077v1.533M698.769 372.182l-.016.01h-.01M700.433 370.209l-.007.1-.002.093-.02.09-.022.083-.02.058-.024.034-1.57 1.515M618.118 445.878l.01-.008.014-.002" style="fill:none;stroke:#00ff4a;stroke-width:1.66666;stroke-linecap:round;stroke-linejoin:round;stroke-miterlimit:4;stroke-dasharray:none;stroke-opacity:1;visibility:visible"/><path d="m373.02 430.242-.077.054-.088.03-.101.01" style="fill:none;stroke:#00ff4a;stroke-width:.999997;stroke-linecap:round;stroke-linejoin:round;stroke-miterlimit:4;stroke-dasharray:none;stroke-opacity:1;visibility:visible"/><path d="m437.995 342.378-83.79 80.93M354.106 428.582v-5.026" style="fill:none;stroke:#00ff4a;stroke-width:1.66666;stroke-linecap:round;stroke-linejoin:round;stroke-miterlimit:4;stroke-dasharray:none;stroke-opacity:1;visibility:visible"/><path d="m375.074 424.958.01-.09.034-.085.056-.07M375.074 428.258l-2.056 1.984" style="fill:none;stroke:#00ff4a;stroke-width:.999997;stroke-linecap:round;stroke-linejoin:round;stroke-miterlimit:4;stroke-dasharray:none;stroke-opacity:1;visibility:visible"/><path d="m485.825 345.633.095.017.089.041.076.066.06.08.033.089.011.096v1.125M458.864 343.871l.076-.054.09-.03.1-.004 26.695 1.85" style="fill:none;stroke:#00ff4a;stroke-width:1.66666;stroke-linecap:round;stroke-linejoin:round;stroke-miterlimit:4;stroke-dasharray:none;stroke-opacity:1;visibility:visible"/><path d="m404.354 427.042.009-.095.036-.085.06-.07M404.354 430.338l-1.955 1.89M458.864 343.871l-83.69 80.841M375.44 430.471l-.098-.019-.089-.044-.073-.062-.06-.079-.037-.095-.01-.096v-5.12M402.399 432.227l-.075.056-.089.035-.101.005" style="fill:none;stroke:#00ff4a;stroke-width:.999997;stroke-linecap:round;stroke-linejoin:round;stroke-miterlimit:4;stroke-dasharray:none;stroke-opacity:1;visibility:visible"/><path d="m506.793 347.038.095.02.09.039.076.068.056.078.04.09.01.094v.818M488.244 345.862l.076-.055.089-.034.099-.006 18.284 1.27" style="fill:none;stroke:#00ff4a;stroke-width:1.66666;stroke-linecap:round;stroke-linejoin:round;stroke-miterlimit:4;stroke-dasharray:none;stroke-opacity:1;visibility:visible"/><path d="m425.274 428.492.009-.096.036-.078.06-.075M425.274 431.792l-2.006 1.935M488.244 345.862l-83.784 80.93M404.719 432.552l-.096-.02-.084-.038-.08-.067-.055-.08-.036-.087-.014-.097v-5.12M423.268 433.727l-.074.056-.091.028-.099.005" style="fill:none;stroke:#00ff4a;stroke-width:.999997;stroke-linecap:round;stroke-linejoin:round;stroke-miterlimit:4;stroke-dasharray:none;stroke-opacity:1;visibility:visible"/><path d="m527.713 348.486.097.021.083.04.08.066.057.077.038.091.01.098v1.063M509.164 347.311l.076-.054.089-.035.099-.005 18.284 1.269" style="fill:none;stroke:#00ff4a;stroke-width:1.66666;stroke-linecap:round;stroke-linejoin:round;stroke-miterlimit:4;stroke-dasharray:none;stroke-opacity:1;visibility:visible"/><path d="m446.244 429.892.01-.09.036-.083.054-.072M446.244 433.192l-2.056 1.986M509.164 347.311l-83.784 80.93M425.639 434.002l-.096-.022-.084-.038-.08-.064-.055-.08-.041-.091-.01-.095v-5.12M444.19 435.176l-.076.055-.09.03-.1.011" style="fill:none;stroke:#00ff4a;stroke-width:.999997;stroke-linecap:round;stroke-linejoin:round;stroke-miterlimit:4;stroke-dasharray:none;stroke-opacity:1;visibility:visible"/><path d="m556.995 350.566.093.021.09.04.076.064.061.08.033.092.016.094v.78M530.032 348.813l.077-.06.091-.031.099-.005 26.694 1.849" style="fill:none;stroke:#00ff4a;stroke-width:1.66666;stroke-linecap:round;stroke-linejoin:round;stroke-miterlimit:4;stroke-dasharray:none;stroke-opacity:1;visibility:visible"/><path d="m475.524 431.976.016-.094.035-.08.054-.075M475.524 435.276l-1.954 1.888M530.032 348.813l-83.69 80.834M446.61 435.407l-.096-.02-.09-.045-.076-.06-.054-.08-.04-.092-.01-.099v-5.119M473.568 437.163l-.075.053-.089.035-.096.005" style="fill:none;stroke:#00ff4a;stroke-width:.999997;stroke-linecap:round;stroke-linejoin:round;stroke-miterlimit:4;stroke-dasharray:none;stroke-opacity:1;visibility:visible"/><path d="m577.963 351.973.096.02.089.04.075.064.056.08.04.09.009.095v1.273M559.415 350.798l.08-.056.084-.035.1-.005 18.285 1.27" style="fill:none;stroke:#00ff4a;stroke-width:1.66666;stroke-linecap:round;stroke-linejoin:round;stroke-miterlimit:4;stroke-dasharray:none;stroke-opacity:1;visibility:visible"/><path d="m496.444 433.426.016-.09.035-.084.054-.07M496.444 436.727l-2.004 1.936M559.415 350.798l-83.786 80.93M475.888 437.486l-.095-.019-.083-.041-.077-.064-.058-.08-.036-.092-.015-.094v-5.12M494.439 438.663l-.076.055-.09.03-.098.01" style="fill:none;stroke:#00ff4a;stroke-width:.999997;stroke-linecap:round;stroke-linejoin:round;stroke-miterlimit:4;stroke-dasharray:none;stroke-opacity:1;visibility:visible"/><path d="m598.883 353.422.096.02.089.038.075.067.054.08.041.09.009.095v.921M580.333 352.247l.075-.054.09-.03.101-.01 18.283 1.269" style="fill:none;stroke:#00ff4a;stroke-width:1.66666;stroke-linecap:round;stroke-linejoin:round;stroke-miterlimit:4;stroke-dasharray:none;stroke-opacity:1;visibility:visible"/><path d="m517.415 434.832.009-.096.036-.085.053-.068M517.415 438.127l-2.055 1.984M580.333 352.247l-83.783 80.935M496.808 438.936l-.096-.02-.084-.038-.076-.066-.059-.081-.033-.09-.017-.093v-5.122M515.359 440.111l-.076.056-.091.035-.095.005" style="fill:none;stroke:#00ff4a;stroke-width:.999997;stroke-linecap:round;stroke-linejoin:round;stroke-miterlimit:4;stroke-dasharray:none;stroke-opacity:1;visibility:visible"/><path d="m628.168 355.503.09.019.089.044.077.061.06.08.036.09.013.101v1.131" style="fill:none;stroke:#00ff4a;stroke-width:1.66666;stroke-linecap:round;stroke-linejoin:round;stroke-miterlimit:4;stroke-dasharray:none;stroke-opacity:1;visibility:visible"/><path d="m601.202 353.749.081-.056.09-.035.095-.005 26.7 1.85" style="fill:none;stroke:#00ff4a;stroke-width:1.66666;stroke-linecap:round;stroke-linejoin:round;stroke-miterlimit:4;stroke-dasharray:none;stroke-opacity:1;visibility:visible"/><path d="m546.693 436.912.017-.09.034-.086.055-.074M546.693 440.212l-1.953 1.886M601.202 353.749l-83.689 80.834M517.779 440.343l-.095-.02-.09-.04-.078-.065-.053-.08-.039-.091-.01-.095v-5.12" style="fill:none;stroke:#00ff4a;stroke-width:.999997;stroke-linecap:round;stroke-linejoin:round;stroke-miterlimit:4;stroke-dasharray:none;stroke-opacity:1;visibility:visible"/><path d="m649.132 356.909.096.018.089.043.076.064.059.079.036.09.009.095v1.03M630.584 355.731l.08-.054.09-.03.093-.01 18.286 1.27" style="fill:none;stroke:#00ff4a;stroke-width:1.66666;stroke-linecap:round;stroke-linejoin:round;stroke-miterlimit:4;stroke-dasharray:none;stroke-opacity:1;visibility:visible"/><path d="m567.613 438.362.017-.088.034-.087.055-.07M567.613 441.663l-2.003 1.935M630.584 355.731l-83.785 80.93M547.065 442.423l-.095-.023-.09-.038-.077-.066-.059-.08-.033-.089-.016-.095v-5.12M565.61 443.598l-.078.054-.089.035-.095.005" style="fill:none;stroke:#00ff4a;stroke-width:.999997;stroke-linecap:round;stroke-linejoin:round;stroke-miterlimit:4;stroke-dasharray:none;stroke-opacity:1;visibility:visible"/><path d="m670.052 358.357.096.02.089.041.076.065.059.079.036.09.009.094v.677M651.504 357.182l.08-.053.089-.032.096-.004 18.284 1.264" style="fill:none;stroke:#00ff4a;stroke-width:1.66666;stroke-linecap:round;stroke-linejoin:round;stroke-miterlimit:4;stroke-dasharray:none;stroke-opacity:1;visibility:visible"/><path d="m588.584 439.767.01-.095.034-.08.062-.074M588.584 443.066l-2.055 1.982M651.504 357.182l-83.785 80.936M567.979 443.871l-.091-.02-.09-.04-.074-.064-.061-.079-.033-.092-.017-.096v-5.118M586.53 445.048l-.078.054-.089.034-.095.006-3.13-.218M571.017 444.082l-3.037-.212" style="fill:none;stroke:#00ff4a;stroke-width:.999997;stroke-linecap:round;stroke-linejoin:round;stroke-miterlimit:4;stroke-dasharray:none;stroke-opacity:1;visibility:visible"/><path d="m699.338 360.437.095.02.087.046.073.059.06.08.037.095.012.096v5.12M672.372 358.682l.08-.055.088-.034.097-.006 26.7 1.85" style="fill:none;stroke:#00ff4a;stroke-width:1.66666;stroke-linecap:round;stroke-linejoin:round;stroke-miterlimit:4;stroke-dasharray:none;stroke-opacity:1;visibility:visible"/><path d="m615.908 447.038-.075.056-.09.029-.096.005" style="fill:none;stroke:#00ff4a;stroke-width:.999997;stroke-linecap:round;stroke-linejoin:round;stroke-miterlimit:4;stroke-dasharray:none;stroke-opacity:1;visibility:visible"/><path d="m699.702 365.953-.012.09-.037.084-.056.07" style="fill:none;stroke:#00ff4a;stroke-width:1.66666;stroke-linecap:round;stroke-linejoin:round;stroke-miterlimit:4;stroke-dasharray:none;stroke-opacity:1;visibility:visible"/><path d="m617.286 445.706-1.378 1.332M672.372 358.682l-83.684 80.836M588.95 445.276l-.098-.02-.085-.038-.078-.066-.056-.08-.036-.092-.013-.093v-5.12M615.648 447.128l-3.255-.225M605.097 446.396l-5.526-.382M592.019 445.49l-3.07-.214" style="fill:none;stroke:#00ff4a;stroke-width:.999997;stroke-linecap:round;stroke-linejoin:round;stroke-miterlimit:4;stroke-dasharray:none;stroke-opacity:1;visibility:visible"/><path d="m656.109 408.206-38.823 37.5M697.565 368.162l-39 37.673" style="fill:none;stroke:#00ff4a;stroke-width:1.66666;stroke-linecap:round;stroke-linejoin:round;stroke-miterlimit:4;stroke-dasharray:none;stroke-opacity:1;visibility:visible"/><path d="m699.522 365.82-2.032 1.962" style="fill:none;stroke:#00ff4a;stroke-width:.999997;stroke-linecap:round;stroke-linejoin:round;stroke-miterlimit:4;stroke-dasharray:none;stroke-opacity:1;visibility:visible"/><path d="m618.212 447.051.006.085.01.075.01.06.02.04.203.316M618.142 445.868l.026.014.021.04.013.058.01.082v.988M353.714 429.027l.004-.1.012-.099.013-.09.02-.075.025-.06.026-.04.29-.28M353.668 430.272l.02-.076.015-.085.01-.095v-.99M353.42 431.332l.002-.089.011-.096.012-.085.019-.075.204-.713M353.494 433.066l-.026-.016-.02-.039-.014-.059-.01-.08-.006-.091v-1.449M616.844 451.318l-.016.009h-.01M618.508 449.342l-.004.094-.01.1-.016.091-.02.08-.018.055-.032.04-1.564 1.514M353.494 433.066l263.324 18.261" style="fill:none;stroke:#00ff4a;stroke-width:1.66666;stroke-linecap:round;stroke-linejoin:round;stroke-miterlimit:4;stroke-dasharray:none;stroke-opacity:1;visibility:visible"/><path d="m618.462 447.628.022.046.013.054.007.08.004.086v1.449" style="fill:none;stroke:#00ff4a;stroke-width:1.66666;stroke-linecap:round;stroke-linejoin:round;stroke-miterlimit:4;stroke-dasharray:none;stroke-opacity:1;visibility:visible"/><path d="m597.499 440.198-5.48 5.292M615.944 443.474l-3.55 3.429M602.168 443.506l-2.596 2.508M610.276 441.395l-5.179 5.001M607.438 440.999l-4.976 4.807M602.461 440.687v5.119M522.839 435.28l-4.805 4.64M535.464 440.133l6.856.481M522.424 439.217l6.97.49M520.849 440.551l-3.07-.213M533.928 441.459l-5.527-.384M544.48 442.19l-3.255-.225M531.292 435.75v5.119M536.269 436.061l-4.976 4.807M539.107 436.457l-5.179 5.001M530.998 438.568l-2.596 2.508M544.775 438.535l-3.55 3.43M526.328 435.26l-5.479 5.292M451.67 430.344l-4.805 4.64M464.295 435.198l6.856.481M451.255 434.282l6.97.49M449.68 435.616l-3.07-.213M462.76 436.523l-5.527-.383M473.31 437.255l-3.255-.225M460.123 430.814v5.119M465.1 431.126l-4.976 4.807M467.938 431.521l-5.179 5.001M459.829 433.633l-2.596 2.508M473.605 433.6l-3.55 3.43M455.159 430.324l-5.479 5.292M380.493 425.41l-4.805 4.64M393.12 430.264l6.856.481M380.079 429.348l6.97.49M378.504 430.682l-3.07-.213M391.583 431.59l-5.527-.383M402.134 432.321l-3.255-.225M388.947 425.88v5.119M393.924 426.192l-4.976 4.807M396.762 426.587l-5.179 5.001M388.653 428.699l-2.596 2.508M402.43 428.666l-3.55 3.43M383.983 425.39l-5.479 5.292M552.124 437.361l-4.805 4.64M555.507 437.408l-5.408 5.223M565.508 440.298l-3.288 3.175M550.098 442.63l-3.039-.21M565.349 443.69l-3.13-.217M501.874 433.877l-4.805 4.64M505.257 433.924l-5.408 5.223M515.258 436.814l-3.288 3.175M499.848 439.147l-3.039-.21M515.099 440.206l-3.13-.217M480.954 432.426l-4.805 4.64M484.336 432.473l-5.408 5.223M494.337 435.363l-3.288 3.175M478.928 437.696l-3.039-.21M494.178 438.755l-3.13-.217M430.7 428.941l-4.805 4.64M434.082 428.988l-5.408 5.223M444.083 431.878l-3.288 3.175M428.674 434.21l-3.039-.21M443.925 435.27l-3.13-.217M409.78 427.486l-4.805 4.64M413.163 427.533l-5.408 5.223M423.164 430.423l-3.288 3.175M407.755 432.756l-3.039-.21M423.005 433.815l-3.13-.217M359.53 424.007l-4.805 4.64M362.912 424.054l-5.408 5.223M372.913 426.944l-3.288 3.175M357.504 429.277l-3.039-.21M372.755 430.336l-3.13-.217M359.745 427.848l10.683.75M409.912 431.348l10.683.75M430.729 432.81l10.683.75M480.106 436.279l10.683.75M501.417 437.775l10.683.75M551.768 441.312l10.683.75M572.629 442.777l10.683.75M354.104 428.582l.932 2.048M588.688 439.518l5.32.7M586.267 439.29l.158 2.458M567.719 438.118l8.706.742M567.719 438.118l5.324.694M592.019 445.49l1.574-1.335M599.571 446.014l.992-1.369M605.097 446.396l1.536-1.325M612.393 446.903l1.097-1.351" style="fill:none;stroke:#00ff4a;stroke-width:.999997;stroke-linecap:round;stroke-linejoin:round;stroke-miterlimit:4;stroke-dasharray:none;stroke-opacity:1;visibility:visible"/><path d="m699.337 360.437-5.589 11.409" style="fill:none;stroke:#00ff4a;stroke-width:1.66666;stroke-linecap:round;stroke-linejoin:round;stroke-miterlimit:4;stroke-dasharray:none;stroke-opacity:1;visibility:visible"/><path d="m375.688 430.05-.614-1.792M404.975 432.126l-.621-1.788M425.895 433.581l-.621-1.789M446.865 434.984l-.621-1.792M476.149 437.066l-.625-1.79M497.069 438.517l-.625-1.79M518.034 439.92l-.619-1.793M547.319 442.001l-.626-1.789M568.237 443.452l-.624-1.789M589.203 444.858l-.619-1.792" style="fill:none;stroke:#00ff4a;stroke-width:.999997;stroke-linecap:round;stroke-linejoin:round;stroke-miterlimit:4;stroke-dasharray:none;stroke-opacity:1;visibility:visible"/><path d="m658.565 405.835-2.456 2.371M656.109 408.206l2.456-2.371" style="fill:none;stroke:#00ff4a;stroke-width:1.66666;stroke-linecap:round;stroke-linejoin:round;stroke-miterlimit:4;stroke-dasharray:none;stroke-opacity:1;visibility:visible"/><path d="m599.572 446.014-2.073-5.816M615.648 441.277l.296 2.197M602.462 445.806l-.294-2.3M615.648 441.277l-5.372.118M605.097 446.396l2.341-5.397M616.013 446.787l-13.552-6.1M517.513 434.583l5.326.697M533.928 441.459l1.536-1.326M541.225 441.965l1.095-1.35M520.849 440.551l1.575-1.334M528.401 441.075l.992-1.369M544.844 441.851l-13.552-6.101M533.928 441.458l2.341-5.397M544.478 436.343l-5.371.114M531.293 440.868l-.295-2.3M544.478 436.343l.297 2.192M528.402 441.076l-2.074-5.816M446.342 429.647l5.328.697M462.76 436.523l1.535-1.325M470.055 437.03l1.096-1.35M449.68 435.616l1.575-1.334M457.233 436.14l.991-1.369M473.673 436.916l-13.55-6.102M462.76 436.522l2.34-5.396M473.309 431.407l-5.371.114M460.124 435.933l-.295-2.3M473.309 431.407l.296 2.193M457.233 436.141l-2.074-5.817M375.174 424.712l5.319.698M391.583 431.59l1.537-1.326M398.88 432.096l1.096-1.35M378.504 430.682l1.575-1.334M386.056 431.207l.992-1.37M402.504 431.98l-13.557-6.1M391.583 431.588l2.341-5.396M402.134 426.47l-5.372.117M388.948 430.999l-.295-2.3M402.134 426.47l.296 2.196M386.057 431.207l-2.074-5.817M546.799 436.661l5.325.7M546.799 436.661l8.708.747M565.347 437.838l.161 2.46M496.55 433.182l5.324.695M496.55 433.182l8.707.742M515.097 434.352l.161 2.462M475.629 431.728l5.325.698M475.629 431.728l8.707.745M494.177 432.902l.16 2.461M425.38 428.241l5.32.7M425.38 428.241l8.702.747M443.924 429.418l.159 2.46M404.46 426.792l5.32.694M404.46 426.792l8.703.741M423.004 427.968l.16 2.455M354.205 423.308l5.325.699M354.205 423.308l8.707.746M372.753 424.482l.16 2.462M357.504 429.277l2.241-1.429M369.626 430.119l.802-1.52M407.755 432.756l2.157-1.408M419.876 433.598l.719-1.5M428.674 434.21l2.055-1.4M440.796 435.053l.616-1.492M478.928 437.696l1.178-1.417M491.049 438.538l-.26-1.508M499.848 439.147l1.569-1.372M511.97 439.989l.13-1.463M550.098 442.63l1.67-1.318M562.22 443.473l.23-1.41M571.017 444.082l1.612-1.305M583.138 444.924l.174-1.396" style="fill:none;stroke:#00ff4a;stroke-width:.999997;stroke-linecap:round;stroke-linejoin:round;stroke-miterlimit:4;stroke-dasharray:none;stroke-opacity:1;visibility:visible"/><path d="M663.999 414.221h-1.23M386.057 431.207l-3.716 7.487M386.057 431.207l.238 14.047M357.504 429.277l.342 7.767" style="fill:none;stroke:red;stroke-width:.666665;stroke-linecap:round;stroke-linejoin:round;stroke-miterlimit:4;stroke-dasharray:none;stroke-opacity:1;visibility:visible"/></svg>