<svg xmlns="http://www.w3.org/2000/svg" baseProfile="full" height="1122.52" preserveAspectRatio="xMinYMin meet" style="width:912px;height:1246px" width="793.701" xml:space="preserve"><path d="M191.02 950.205h0M190.372 949.468l.01-9.919M194.587 944.244l8.808-4.577M190.658 939.068l3.017-1.559" style="fill:none;stroke:red;stroke-width:.999997;stroke-linecap:round;stroke-linejoin:round;stroke-miterlimit:4;stroke-dasharray:none;stroke-opacity:1;visibility:visible" visibility="hidden"/><path d="m199.492 944.196-.08.055-.08.066-.073.078-.072.09-.056.104-.047.106-.03.101-.026.107-.008.102.008.096.025.079.031.07.047.06.056.04.064.025h.072l.082-.018.079-.033.09-.056.069-.063.082-.082.064-.086.056-.102.048-.104.038-.107.018-.103.008-.102-.008-.099-.018-.08-.038-.068-.04-.057-.064-.043-.064-.015-.074-.008-.078.016-.081.031M193.044 943.957l-.081.047-.078.073-.073.08-.073.085-.055.098-.05.11-.03.107-.025.104-.007.104.007.097.025.076.03.075.05.055.055.038.064.027h.082l.078-.016.081-.03.081-.06.078-.063.073-.08.073-.088.056-.102.048-.104.031-.105.025-.113.007-.096-.007-.095-.025-.079-.03-.073-.049-.055-.056-.041-.073-.025h-.073l-.078.016-.081.033" style="fill:none;stroke:red;stroke-width:.666665;stroke-linecap:round;stroke-linejoin:round;stroke-miterlimit:4;stroke-dasharray:none;stroke-opacity:1;visibility:visible" visibility="hidden"/><path d="M191.06 950.276h0M190.74 950.23l-.083-.048-.069-.064-.064-.081-.056-.087-.039-.107-.034-.12-.016-.118-.006-.135" style="fill:none;stroke:red;stroke-width:.999997;stroke-linecap:round;stroke-linejoin:round;stroke-miterlimit:4;stroke-dasharray:none;stroke-opacity:1;visibility:visible" visibility="hidden"/><path d="m193.675 937.51.048-.016.056-.01h.048l.041.018" style="fill:none;stroke:red;stroke-width:1.99999;stroke-linecap:round;stroke-linejoin:round;stroke-miterlimit:4;stroke-dasharray:none;stroke-opacity:1;visibility:visible" visibility="hidden"/><path d="m190.38 939.549.008-.072.016-.088.04-.081.039-.07.054-.073.056-.056.066-.04M203.397 939.668l.047-.025.056-.006.048.006.041.021M192.18 950.437l.039-.03.033-.042.03-.056.018-.07v-.075" style="fill:none;stroke:red;stroke-width:.999997;stroke-linecap:round;stroke-linejoin:round;stroke-miterlimit:4;stroke-dasharray:none;stroke-opacity:1;visibility:visible" visibility="hidden"/><path d="M193.675 937.51h-.025" style="fill:none;stroke:red;stroke-width:1.99999;stroke-linecap:round;stroke-linejoin:round;stroke-miterlimit:4;stroke-dasharray:none;stroke-opacity:1;visibility:visible" visibility="hidden"/><path d="m190.658 939.068-.008-.005-.016.005M190.38 939.549l-.017-.01v-.005M203.372 939.663h.01l.015.004M190.372 949.468l-.016-.007v-.01" style="fill:none;stroke:red;stroke-width:.999997;stroke-linecap:round;stroke-linejoin:round;stroke-miterlimit:4;stroke-dasharray:none;stroke-opacity:1;visibility:visible" visibility="hidden"/><path d="m194.596 940.395-.01 4.579" style="fill:none;stroke:red;stroke-width:1.99999;stroke-linecap:round;stroke-linejoin:round;stroke-miterlimit:4;stroke-dasharray:none;stroke-opacity:1;visibility:visible" visibility="hidden"/><path d="m191.308 950.494-.017-.01M202.492 940.118l-7.905 4.11" style="fill:none;stroke:red;stroke-width:.999997;stroke-linecap:round;stroke-linejoin:round;stroke-miterlimit:4;stroke-dasharray:none;stroke-opacity:1;visibility:visible" visibility="hidden"/><path d="m80.403 876.301.104-.063.12-.066.137-.055.144-.05.151-.038.152-.033.168-.023.168-.007h.336l.16.016.161.022.154.041.133.04.136.05.123.055.102.06.086.074.074.07.055.083.032.085.024.083-.008.087-.016.082-.04.087-.057.08-.071.07-.088.083-.103.062M85.229 878.91l.857-.408" style="fill:none;stroke:red;stroke-width:.666665;stroke-linecap:round;stroke-linejoin:round;stroke-miterlimit:4;stroke-dasharray:none;stroke-opacity:1;visibility:visible" visibility="hidden"/><path d="m64.524 871.214 125.849 68.23" style="fill:none;stroke:red;stroke-width:.999997;stroke-linecap:round;stroke-linejoin:round;stroke-miterlimit:4;stroke-dasharray:none;stroke-opacity:1;visibility:visible" visibility="hidden"/><path d="m82.364 877.357 111.262 60.16M64.485 871.196l-.137-.08M67.324 869.301l.344.184M64.22 870.957l.01.048.02.039.043.041.058.032M67.324 869.301l-.025-.017-.023-.008h-.025" style="fill:none;stroke:red;stroke-width:1.99999;stroke-linecap:round;stroke-linejoin:round;stroke-miterlimit:4;stroke-dasharray:none;stroke-opacity:1;visibility:visible" visibility="hidden"/><path d="m67.453 869.292-.039-.008h-.042l-.05.016M67.666 869.485l.05-.017h.04l.04.017M64.524 871.205h-.025l-.014-.01" style="fill:none;stroke:red;stroke-width:1.99999;stroke-linecap:round;stroke-linejoin:round;stroke-miterlimit:4;stroke-dasharray:none;stroke-opacity:1;visibility:visible" visibility="hidden"/><path d="m67.692 869.51-.008-.016-.019-.01M64.98 881.365h0" style="fill:none;stroke:red;stroke-width:1.99999;stroke-linecap:round;stroke-linejoin:round;stroke-miterlimit:4;stroke-dasharray:none;stroke-opacity:1;visibility:visible" visibility="hidden"/><path d="M190.748 950.23h-.01M191.291 950.485l-.541-.253" style="fill:none;stroke:red;stroke-width:.999997;stroke-linecap:round;stroke-linejoin:round;stroke-miterlimit:4;stroke-dasharray:none;stroke-opacity:1;visibility:visible" visibility="hidden"/><path d="m194.38 937.82-.515-.319" style="fill:none;stroke:red;stroke-width:1.99999;stroke-linecap:round;stroke-linejoin:round;stroke-miterlimit:4;stroke-dasharray:none;stroke-opacity:1;visibility:visible" visibility="hidden"/><path d="m204.1 939.982-.515-.319" style="fill:none;stroke:red;stroke-width:.999997;stroke-linecap:round;stroke-linejoin:round;stroke-miterlimit:4;stroke-dasharray:none;stroke-opacity:1;visibility:visible" visibility="hidden"/><path d="m204.1 939.982.055.037.046.047.048.068.035.063.021.073.008.07v.055l-.008 3.472M204.308 943.868l-.01.067-.015.062-.023.055-.033.056-.048.05-.048.04-.038.023M194.602 938.245l-.008 2.15M204.092 944.22l-11.913 6.217M194.38 937.82l.056.048.056.048.037.065.035.063.021.073.008.071.01.055M192.18 950.437l-.104.048-.096.035-.105.03-.104.015h-.191l-.104-.015-.09-.026-.078-.03M193.652 937.51l.032-.016.033-.01.031-.005h.064l.025.015.03.008" style="fill:none;stroke:red;stroke-width:1.99999;stroke-linecap:round;stroke-linejoin:round;stroke-miterlimit:4;stroke-dasharray:none;stroke-opacity:1;visibility:visible" visibility="hidden"/><path d="m193.652 937.51-.879.455M203.372 939.663l-.879.455M190.357 949.446v.005M203.372 939.663l.03-.012.035-.015h.03l.034-.006.03.006.026.008.03.019" style="fill:none;stroke:red;stroke-width:.999997;stroke-linecap:round;stroke-linejoin:round;stroke-miterlimit:4;stroke-dasharray:none;stroke-opacity:1;visibility:visible" visibility="hidden"/><path d="m190.725 950.22-.039-.025-.065-.047-.048-.047-.048-.057-.041-.064-.04-.064-.03-.079-.026-.081-.016-.093-.014-.106v-.106" style="fill:none;stroke:red;stroke-width:1.99999;stroke-linecap:round;stroke-linejoin:round;stroke-miterlimit:4;stroke-dasharray:none;stroke-opacity:1;visibility:visible" visibility="hidden"/><path d="M190.986 950.14h0" style="fill:none;stroke:red;stroke-width:.999997;stroke-linecap:round;stroke-linejoin:round;stroke-miterlimit:4;stroke-dasharray:none;stroke-opacity:1;visibility:visible" visibility="hidden"/><path d="m67.701 869.51.047-.016h.038l.043.008M65.101 881.43l125.344 68.487M67.83 869.502l6.896 3.727M80.876 876.558l1.488.8M83.143 874.834l120.205 64.843M64.98 881.365l.081.048M64.444 879.739l-.224-8.781M64.5 880.575l-.016-.168-.015-.168-.008-.17-.008-.167-.009-.162M64.98 881.365l-.081-.047-.078-.068-.064-.061-.065-.081-.057-.079-.039-.093-.032-.084-.033-.086-.016-.098-.014-.094M64.22 870.957l.01-.047.007-.058.022-.046.026-.049.038-.041.049-.038M64.373 870.677l.192-.143.208-.14.215-.128.225-.134.232-.12.247-.12.248-.12.254-.111.264-.104.259-.096.27-.096.263-.088M67.797 869.485l-.345-.193M67.252 869.278h.016l.008-.01h.113v.01h.023v.007h.025v.008h.014M65.086 881.421l-.027-.008M67.797 869.485l.017.01" style="fill:none;stroke:red;stroke-width:1.99999;stroke-linecap:round;stroke-linejoin:round;stroke-miterlimit:4;stroke-dasharray:none;stroke-opacity:1;visibility:visible" visibility="hidden"/><path d="m204.093 944.221-4.601-.025M192.18 950.437l7.312-6.241M194.587 944.229l-1.543-.272M192.18 950.437l.864-6.48" style="fill:none;stroke:red;stroke-width:.666665;stroke-linecap:round;stroke-linejoin:round;stroke-miterlimit:4;stroke-dasharray:none;stroke-opacity:1;visibility:visible" visibility="hidden"/><path d="m80.876 876.558-6.15-3.33M82.364 877.358l.779-2.524" style="fill:none;stroke:red;stroke-width:1.99999;stroke-linecap:round;stroke-linejoin:round;stroke-miterlimit:4;stroke-dasharray:none;stroke-opacity:1;visibility:visible" visibility="hidden"/><path d="m317.171 759.197-.352-.16" style="fill:none;stroke:#00ff4a;stroke-width:1.99999;stroke-linecap:round;stroke-linejoin:round;stroke-miterlimit:4;stroke-dasharray:none;stroke-opacity:1;visibility:visible" visibility="hidden"/><path d="m323.859 755.725-.03-.007h-.042l-.021.007" style="fill:none;stroke:#00ff4a;stroke-width:.999997;stroke-linecap:round;stroke-linejoin:round;stroke-miterlimit:4;stroke-dasharray:none;stroke-opacity:1;visibility:visible" visibility="hidden"/><path d="m316.82 759.037-.03-.007h-.042l-.03.007M317.171 759.197l-.039.019-.033.028-.03.049M316.675 759.23l.019-.045.029-.051.027-.04.038-.032.031-.025M316.596 759.19v.04l.017.032M317.171 759.197l.01.008.007.01" style="fill:none;stroke:#00ff4a;stroke-width:1.99999;stroke-linecap:round;stroke-linejoin:round;stroke-miterlimit:4;stroke-dasharray:none;stroke-opacity:1;visibility:visible" visibility="hidden"/><path d="m76.075 873.964.112-.072.112-.055.137-.057.144-.045.151-.042.152-.032.168-.025.168-.007.168-.008.16.008.168.015.161.024.144.033.143.047.128.048.123.055.101.066.088.074.07.072.058.077.04.08.016.08v.088l-.016.079-.04.09-.057.079-.071.073-.088.08-.101.063M78.237 874.94l-.104.041-.103.034M86.086 878.503l.072-.041.064-.046.055-.052.032-.056.016-.057v-.053l-.008-.056-.034-.055" style="fill:none;stroke:#00ff4a;stroke-width:.666665;stroke-linecap:round;stroke-linejoin:round;stroke-miterlimit:4;stroke-dasharray:none;stroke-opacity:1;visibility:visible" visibility="hidden"/><path d="m75.731 874.323.04.028.025.03v.033l-.009.029-.03.035-.042.025M73.748 875.429l-.056.024-.065.008-.064.008-.064-.008-.062-.017-.05-.015M73.748 875.429l1.97-.924M75.74 874.485l-.01-.161" style="fill:none;stroke:#00ff4a;stroke-width:.999997;stroke-linecap:round;stroke-linejoin:round;stroke-miterlimit:4;stroke-dasharray:none;stroke-opacity:1;visibility:visible" visibility="hidden"/><path d="m74.725 873.228 1.823.984M77.54 874.757l3.336 1.801" style="fill:none;stroke:#00ff4a;stroke-width:1.99999;stroke-linecap:round;stroke-linejoin:round;stroke-miterlimit:4;stroke-dasharray:none;stroke-opacity:1;visibility:visible" visibility="hidden"/><path d="m85.157 877.878.085-.035.09-.022.096-.026.094-.005h.186l.081.015.085.016.083.022.079.042.081.037.064.06.056.045.048.058M85.157 877.878l-.976.463" style="fill:none;stroke:#00ff4a;stroke-width:.666665;stroke-linecap:round;stroke-linejoin:round;stroke-miterlimit:4;stroke-dasharray:none;stroke-opacity:1;visibility:visible" visibility="hidden"/><path d="m320.986 764.726-.085-.041-.082-.047-.064-.056-.048-.057-.04-.055-.017-.064-.008-.057.008-.055.025-.065.042-.047.056-.056.072-.047M322.602 764.133l.065.039.048.046.032.052.026.055.016.047" style="fill:none;stroke:#00ff4a;stroke-width:.999997;stroke-linecap:round;stroke-linejoin:round;stroke-miterlimit:4;stroke-dasharray:none;stroke-opacity:1;visibility:visible" visibility="hidden"/><path d="m321.73 764.878-.137-.008-.134-.017-.13-.016-.119-.031-.119-.033-.106-.048M321.508 764.15l-.048-.033-.033-.023-.023-.039v-.036l.017-.029.031-.033.047-.023.065-.017.064-.016.079-.007.072.007.073.006.064.027.056.023.041.025.023.03.015.043-.008.031-.03.03-.041.025-.048.022-.064.018-.072.008h-.081l-.071-.008-.064-.008-.064-.023M317.115 766.558l-.085-.04-.074-.056-.073-.05-.048-.054-.03-.056-.026-.064-.008-.056.017-.065.023-.056.041-.056.056-.047.064-.05M318.74 765.958l.056.048.047.045.04.05.025.054.016.051M317.859 766.708l-.136-.007-.135-.017-.129-.013-.121-.034-.111-.03-.112-.048M317.642 765.981l-.056-.03-.03-.034-.017-.03v-.035l.018-.032.029-.031.048-.024.057-.025.074-.008.072-.006.077.006.073.008.066.018.056.024.04.032.021.028.008.035-.008.04-.021.033-.04.022-.056.026-.066.014-.073.008h-.072l-.07-.008-.071-.014-.059-.017" style="fill:none;stroke:#00ff4a;stroke-width:.999997;stroke-linecap:round;stroke-linejoin:round;stroke-miterlimit:4;stroke-dasharray:none;stroke-opacity:1;visibility:visible" visibility="hidden"/><path d="m86.675 875.614-.095-.057-.081-.064-.056-.072-.039-.071-.025-.072-.008-.081.016-.074.04-.078.05-.071.07-.063.09-.068M88.444 874.796l.087.056.072.065.056.066.041.062.025.072v.071" style="fill:none;stroke:#00ff4a;stroke-width:.666665;stroke-linecap:round;stroke-linejoin:round;stroke-miterlimit:4;stroke-dasharray:none;stroke-opacity:1;visibility:visible" visibility="hidden"/><path d="m87.453 875.79-.144-.008-.145-.017-.134-.026-.129-.037-.121-.039-.104-.049" style="fill:none;stroke:#00ff4a;stroke-width:.999997;stroke-linecap:round;stroke-linejoin:round;stroke-miterlimit:4;stroke-dasharray:none;stroke-opacity:1;visibility:visible" visibility="hidden"/><path d="m87.276 874.957-.039-.033-.034-.04-.014-.04.006-.038.026-.044.038-.028.064-.033.066-.023.08-.017h.16l.079.017.064.023.056.02.039.041.026.044v.038l-.018.04-.03.04-.048.033-.064.024-.082.024-.078.008h-.081l-.077-.008-.075-.019-.064-.029M91.308 873.421l-.095-.056-.082-.064-.064-.073-.038-.072-.026-.071v-.072l.017-.079.033-.072.056-.073.07-.072.081-.065" style="fill:none;stroke:#00ff4a;stroke-width:.666665;stroke-linecap:round;stroke-linejoin:round;stroke-miterlimit:4;stroke-dasharray:none;stroke-opacity:1;visibility:visible" visibility="hidden"/><path d="m93.075 872.614.083.055.069.054.056.067.041.073.024.059v.076" style="fill:none;stroke:#00ff4a;stroke-width:.999997;stroke-linecap:round;stroke-linejoin:round;stroke-miterlimit:4;stroke-dasharray:none;stroke-opacity:1;visibility:visible" visibility="hidden"/><path d="m92.086 873.597-.145-.008-.146-.017-.134-.022-.128-.034-.12-.048-.104-.046M91.909 872.773l-.048-.03-.033-.042-.006-.039v-.041l.031-.04.039-.041.056-.031.074-.016.072-.016.086-.008.081.008.07.008.073.024.048.03.04.037.024.037.009.039-.017.042-.039.039-.047.033-.064.023-.074.025-.079.008h-.081l-.078-.008-.073-.016-.064-.025" style="fill:none;stroke:#00ff4a;stroke-width:.666665;stroke-linecap:round;stroke-linejoin:round;stroke-miterlimit:4;stroke-dasharray:none;stroke-opacity:1;visibility:visible" visibility="hidden"/><path d="m86.276 876.405 239.31-113.304" style="fill:none;stroke:#00ff4a;stroke-width:1.99999;stroke-linecap:round;stroke-linejoin:round;stroke-miterlimit:4;stroke-dasharray:none;stroke-opacity:1;visibility:visible" visibility="hidden"/><path d="m86.276 876.405-.039-.017h-.042l-.03.017-.032.03v.009M83.364 874.948v-.01M83.213 874.75l239.309-113.024M83.364 874.94l-.032-.063-.033-.048-.039-.048-.047-.032M83.213 874.75l-.664-.361M321.348 757.821l.055.008.048.023" style="fill:none;stroke:#00ff4a;stroke-width:.999997;stroke-linecap:round;stroke-linejoin:round;stroke-miterlimit:4;stroke-dasharray:none;stroke-opacity:1;visibility:visible" visibility="hidden"/><path d="m91.388 866.91-.095.045-.09.075-.086.085-.089.099-.07.104-.065.11-.048.12-.04.118-.016.121-.017.122.01.112.023.101.032.092.047.08.065.055.066.045.077.027.09.016.093-.016.097-.027.097-.045.096-.055.086-.08.09-.092.071-.101.072-.112.055-.122.04-.121.036-.117.013-.12v-.111l-.005-.104-.036-.099-.038-.085-.056-.075-.065-.045-.072-.043-.09-.016h-.085l-.097.016-.096.043M184.43 823.102l-.09.048-.089.07-.077.08-.081.089-.064.104-.066.112-.048.114-.038.119-.018.113-.013.118.005.104.016.104.035.086.039.074.056.065.065.047.07.025.082.005h.085l.091-.03.085-.039.091-.059.087-.07.081-.087.07-.099.063-.11.056-.112.04-.112.034-.122.016-.11v-.112l-.008-.103-.026-.095-.029-.081-.056-.073-.056-.056-.072-.032-.073-.026h-.088l-.09.018-.085.033M230.397 801.461l-.088.048-.08.063-.081.081-.079.085-.067.104-.054.107-.047.113-.04.119-.025.112-.008.112v.101l.017.107.024.088.04.07.056.065.065.048.062.025.08.013.081-.005.085-.025.09-.042.081-.054.085-.075.072-.085.075-.095.064-.105.056-.114.04-.11.03-.112.017-.122.009-.101-.01-.105-.022-.095-.041-.08-.039-.075-.056-.046-.073-.039-.071-.025h-.08l-.081.018-.087.031M314.18 762.012l-.081.048-.078.056-.074.08-.072.088-.062.097-.056.103-.049.107-.035.112-.021.11-.016.112v.104l.016.096.021.087.035.072.05.065.055.039.062.035.072.014.082-.009.078-.024.081-.032.077-.055.072-.073.084-.08.064-.088.062-.104.049-.103.04-.112.03-.112.02-.112.007-.105-.008-.104-.02-.087-.029-.081-.04-.07-.056-.05-.055-.04-.072-.024h-.076l-.077.01-.08.03M211.837 810.197l-.087.048-.092.064-.077.08-.072.096-.073.096-.056.112-.05.115-.037.116-.027.113-.008.113v.112l.016.095.035.088.041.079.055.057.064.047.07.036.073.005.088-.005.089-.027.085-.04.083-.057.087-.071.081-.088.072-.097.061-.099.051-.119.05-.11.02-.12.026-.114v-.109l-.008-.107-.025-.09-.032-.082-.047-.072-.056-.049-.073-.04-.072-.024h-.078l-.092.015-.085.033M203.387 814.174l-.087.056-.089.064-.079.079-.081.089-.065.101-.056.107-.056.119-.03.113-.025.119-.008.113v.104l.016.101.032.09.041.073.056.061.066.051.069.024.072.013.087-.005.089-.025.088-.039.09-.065.077-.072.081-.079.073-.099.063-.11.055-.111.042-.112.03-.121.018-.111.008-.112-.016-.105-.018-.096-.038-.079-.048-.072-.056-.048-.073-.041-.073-.016-.078-.01-.09.019-.087.032M138.731 844.614l-.095.055-.089.065-.087.087-.073.088-.072.112-.063.114-.049.11-.04.118-.023.12-.008.112.008.112.015.106.033.089.048.07.056.065.066.049.077.024.081.015.095-.007.09-.032.095-.043.087-.062.09-.072.078-.09.081-.1.064-.104.056-.113.04-.121.03-.118.016-.122v-.112l-.008-.107-.022-.092-.042-.079-.047-.073-.064-.056-.07-.04-.083-.019h-.086l-.089.019-.096.032M272.986 781.405l-.08.048-.077.063-.082.073-.072.088-.062.104-.056.103-.048.112-.043.112-.021.112-.008.113v.103l.016.096.021.089.04.08.05.055.057.048.07.032.072.009h.082l.077-.024.081-.04.088-.057.082-.071.069-.081.072-.092.067-.106.046-.105.039-.113.035-.122.013-.109.008-.104-.008-.105-.013-.087-.043-.087-.039-.066-.056-.055-.065-.033-.07-.024h-.071l-.083.012-.088.029" style="fill:none;stroke:#00ff4a;stroke-width:.666665;stroke-linecap:round;stroke-linejoin:round;stroke-miterlimit:4;stroke-dasharray:none;stroke-opacity:1;visibility:visible" visibility="hidden"/><path d="m321.348 757.821-.057-.007-.064-.01h-.072l-.062.01-.081.007-.08.017M320.93 757.838l-.093-.041M83.131 869.702l-.093-.057M320.94 757.717l-.025.015-.014.01-.016.007-.018.017-.014.015-.016.017M82.548 869.901l.073-.064.079-.056.081-.043.072-.032.086-.029.097-.032M82.044 871.123l.065 2.817M82.548 869.901l-.095.11-.097.129-.08.125-.073.15-.055.142-.048.144-.03.143-.017.142-.009.136M81.947 874.068l.152-.08M82.109 873.94l-.01.056-.015.04-.023.03-.033.018h-.042l-.037-.017M77.565 871.7l-.04-.01-.033-.007-.031.008M317.202 759.205l.29.136" style="fill:none;stroke:#00ff4a;stroke-width:.999997;stroke-linecap:round;stroke-linejoin:round;stroke-miterlimit:4;stroke-dasharray:none;stroke-opacity:1;visibility:visible" visibility="hidden"/><path d="m322.613 758.796-.104-.04-.112-.039-.123-.033-.118-.024-.126-.024-.137-.015-.137-.008M322.73 759.662l.088-.05.08-.062.056-.057.047-.064.034-.064.015-.07v-.065l-.021-.065-.036-.071-.047-.064-.064-.064-.07-.055-.098-.057-.104-.056" style="fill:none;stroke:#00ff4a;stroke-width:.666665;stroke-linecap:round;stroke-linejoin:round;stroke-miterlimit:4;stroke-dasharray:none;stroke-opacity:1;visibility:visible" visibility="hidden"/><path d="m77.54 871.878-.353-.188M77.187 871.692l-.03-.016-.034-.01-.03.01M77.315 871.684l-.039-.007h-.041l-.048.014M77.54 871.878l.039-.017h.042l.039.017M77.54 871.878l.01.007.007.017" style="fill:none;stroke:#00ff4a;stroke-width:.999997;stroke-linecap:round;stroke-linejoin:round;stroke-miterlimit:4;stroke-dasharray:none;stroke-opacity:1;visibility:visible" visibility="hidden"/><path d="M316.596 759.19v-.017h.008v-.022h.01v-.016h.007v-.018h.006v-.008h.008v-.006l.008-.008v-.009h.009v-.008h.008v-.01h.008v-.006h.008l.008-.01h.008v-.005h.017v-.009h.008M316.58 759.277l.016-.087" style="fill:none;stroke:#00ff4a;stroke-width:1.99999;stroke-linecap:round;stroke-linejoin:round;stroke-miterlimit:4;stroke-dasharray:none;stroke-opacity:1;visibility:visible" visibility="hidden"/><path d="m78.414 874.852-.09.05-.089.037" style="fill:none;stroke:#00ff4a;stroke-width:.666665;stroke-linecap:round;stroke-linejoin:round;stroke-miterlimit:4;stroke-dasharray:none;stroke-opacity:1;visibility:visible" visibility="hidden"/><path d="m82.74 877.196-.113.07-.128.043-.134.048M77.571 871.894l.04-.016h.047l.036.016" style="fill:none;stroke:#00ff4a;stroke-width:.999997;stroke-linecap:round;stroke-linejoin:round;stroke-miterlimit:4;stroke-dasharray:none;stroke-opacity:1;visibility:visible" visibility="hidden"/><path d="m76.548 874.213.99.543" style="fill:none;stroke:#00ff4a;stroke-width:1.99999;stroke-linecap:round;stroke-linejoin:round;stroke-miterlimit:4;stroke-dasharray:none;stroke-opacity:1;visibility:visible" visibility="hidden"/><path d="m322.602 764.133.048.03.041.04.042.04.022.04.026.042.008.047h.008M320.843 764.079l.017-.008.014-.017.017-.008.017-.008.016-.008.014-.008.017-.007.017-.01.014-.009.016-.005.02-.008.021-.01.016-.006.017-.008.016-.008.015-.01.017-.006h.024l.015-.008.017-.01.016-.007h.015l.025-.01.016-.006h.014l.017-.01h.025l.014-.005h.016l.028-.01h.013l.016-.006h.019l.021-.01h.033l.023-.009h.072l.017-.008h.207l.017.008h.079l.016.01h.039l.017.009h.017l.022.007h.02l.016.009h.013l.025.005h.018l.013.01h.016l.025.006.015.01.016.008h.017l.023.009.016.008.017.005h.015l.015.011.026.008.015.008.015.007.02.009.016.008.013.005.016.008.019.011.013.007.024.008.017.008.015.008.016.016.017.009.016.008.015.007.016.018.017.003.008.01.014.017M318.74 765.958l.047.039.04.032.041.04.023.049.025.037.008.043v.008M316.97 765.908l.017-.016.014-.008.018-.005.018-.01.016-.009.021-.008.019-.016.016-.008.013-.007.017-.006.018-.011.013-.007h.016l.017-.008.023-.009.016-.008.017-.005.016-.008h.015l.025-.01.016-.008.016-.009h.018l.021-.008.016-.008h.019l.016-.008h.021l.017-.005h.018l.013-.01h.025l.018-.008h.038l.016-.008h.04l.016-.009h.295l.025.01h.058l.016.007h.04l.016.008h.013l.017.01h.026l.013.005h.017l.024.008h.015l.017.008.016.008h.023l.017.01.016.007.014.01h.018l.026.008.013.005.017.008.018.01.013.007h.016l.027.007.013.01.016.007.017.007.018.016.013.008.016.008.017.01.015.009.016.005.017.008.016.016.014.01.018.007.018.01.013.013.016.01" style="fill:none;stroke:#00ff4a;stroke-width:.999997;stroke-linecap:round;stroke-linejoin:round;stroke-miterlimit:4;stroke-dasharray:none;stroke-opacity:1;visibility:visible" visibility="hidden"/><path d="m88.444 874.796.065.04.056.041.048.04.038.047.036.05.021.047.017.047.008.05v.026M86.636 874.843l.016-.015.013-.006.019-.008.017-.006.016-.012.014-.014.018-.01.024-.008.014-.006.017-.008.017-.01.014-.006.016-.012.017-.004.023-.011.016-.004.017-.012.016-.007.015-.006h.025l.016-.008.016-.008.017-.011h.023l.015-.005.018-.01.023-.008h.015l.017-.008h.017l.022-.006h.017l.017-.008h.022l.017-.008h.016l.023-.007h.033l.024-.01h.039l.016-.009h.073l.023-.009h.153l.013.01h.1l.014.007h.042l.014.011h.041l.023.007h.017l.016.008h.023l.017.008h.016l.013.006h.028l.016.008.014.008h.026l.016.01.014.005.016.01h.026l.014.009.016.008.017.006.023.007h.016l.017.012.015.004.016.01.017.005.023.012.017.006.017.01.016.008.014.014.018.01.016.006.014.008" style="fill:none;stroke:#00ff4a;stroke-width:.666665;stroke-linecap:round;stroke-linejoin:round;stroke-miterlimit:4;stroke-dasharray:none;stroke-opacity:1;visibility:visible" visibility="hidden"/><path d="m93.075 872.614.056.03.056.051.048.039.039.05.034.037.022.046.018.055.01.05v.026" style="fill:none;stroke:#00ff4a;stroke-width:.999997;stroke-linecap:round;stroke-linejoin:round;stroke-miterlimit:4;stroke-dasharray:none;stroke-opacity:1;visibility:visible" visibility="hidden"/><path d="m91.259 872.651.017-.007.023-.008.016-.014.017-.01.016-.006.016-.01.018-.008.016-.008.014-.006.018-.018.016-.009.021-.008.019-.007.016-.009.013-.005h.016l.019-.008.021-.01.016-.009.017-.007.016-.008h.023l.017-.008.015-.005.017-.01h.026l.013-.01.017-.007h.026l.013-.008h.016l.027-.008h.013l.016-.008h.027l.013-.008h.016l.025-.008h.031l.025-.009h.058l.013-.008h.265l.024.008h.056l.018.01h.037l.019.007h.037l.016.008h.025l.015.008h.017l.024.008h.015l.017.008.016.007h.024l.018.01.016.01h.013l.027.005.016.008.013.008.017.007h.026l.013.01.016.009.019.008.013.005.024.01.017.006.015.008.016.01.017.007.016.01.016.006.026.008.016.018.013.006" style="fill:none;stroke:#00ff4a;stroke-width:.666665;stroke-linecap:round;stroke-linejoin:round;stroke-miterlimit:4;stroke-dasharray:none;stroke-opacity:1;visibility:visible" visibility="hidden"/><path d="m326.236 766.782.037-.032.043-.043.033-.045.016-.065M326.364 766.598l.056-.305.047-.311.034-.32.014-.33.008-.327-.008-.335-.022-.345-.034-.343-.039-.355M323.124 762.917l-.039-.025-.042-.04-.042-.048-.021-.055-.323-.857" style="fill:none;stroke:#00ff4a;stroke-width:.999997;stroke-linecap:round;stroke-linejoin:round;stroke-miterlimit:4;stroke-dasharray:none;stroke-opacity:1;visibility:visible" visibility="hidden"/><path d="m322.658 761.893-.024-.056-.032-.048-.037-.03-.043-.033-.67-.296M321.852 761.43l-.048-.025-.039-.04-.034-.047-.022-.056-.016-.059v-.053l.072-2.627M321.452 757.852l.072.04.064.057.056.063.041.083.038.094.026.103.008.113.006.119M321.085 757.703l-.032-.008h-.024l-.027.008h-.014l-.026.005-.022.01M321.18 757.731l-.048-.024-.047-.004" style="fill:none;stroke:#00ff4a;stroke-width:.999997;stroke-linecap:round;stroke-linejoin:round;stroke-miterlimit:4;stroke-dasharray:none;stroke-opacity:1;visibility:visible" visibility="hidden"/><path d="m317.338 759.415-.485-.217M316.852 759.197l-.03-.013h-.035l-.03.005" style="fill:none;stroke:#00ff4a;stroke-width:1.99999;stroke-linecap:round;stroke-linejoin:round;stroke-miterlimit:4;stroke-dasharray:none;stroke-opacity:1;visibility:visible" visibility="hidden"/><path d="m77.46 871.692-.024.019-.013.029" style="fill:none;stroke:#00ff4a;stroke-width:.999997;stroke-linecap:round;stroke-linejoin:round;stroke-miterlimit:4;stroke-dasharray:none;stroke-opacity:1;visibility:visible" visibility="hidden"/><path d="m90.475 878.79 235.76-112.008M77.46 871.692 316.758 759.19" style="fill:none;stroke:#00ff4a;stroke-width:1.99999;stroke-linecap:round;stroke-linejoin:round;stroke-miterlimit:4;stroke-dasharray:none;stroke-opacity:1;visibility:visible" visibility="hidden"/><path d="m321.18 757.731.27.121" style="fill:none;stroke:#00ff4a;stroke-width:.999997;stroke-linecap:round;stroke-linejoin:round;stroke-miterlimit:4;stroke-dasharray:none;stroke-opacity:1;visibility:visible" visibility="hidden"/><path d="m321.725 759.863.141-.01.148-.009.134-.013.137-.017.12-.034.12-.028.112-.041.096-.048" style="fill:none;stroke:#00ff4a;stroke-width:.666665;stroke-linecap:round;stroke-linejoin:round;stroke-miterlimit:4;stroke-dasharray:none;stroke-opacity:1;visibility:visible" visibility="hidden"/><path d="m317.202 759.205-.037.027-.035.029-.03.041" style="fill:none;stroke:#00ff4a;stroke-width:1.99999;stroke-linecap:round;stroke-linejoin:round;stroke-miterlimit:4;stroke-dasharray:none;stroke-opacity:1;visibility:visible" visibility="hidden"/><path d="m322.73 759.662.04-.05.025-.038.018-.05" style="fill:none;stroke:#00ff4a;stroke-width:.666665;stroke-linecap:round;stroke-linejoin:round;stroke-miterlimit:4;stroke-dasharray:none;stroke-opacity:1;visibility:visible" visibility="hidden"/><path d="m74.293 872.997 2.801-1.32" style="fill:none;stroke:#00ff4a;stroke-width:1.99999;stroke-linecap:round;stroke-linejoin:round;stroke-miterlimit:4;stroke-dasharray:none;stroke-opacity:1;visibility:visible" visibility="hidden"/><path d="m77.315 871.684.345.195M77.092 871.677h.017v-.01h.022v-.005h.042l.006-.012h.034l.008.012h.038v.004h.026v.011h.014l.008.007h.008M77.659 871.878l.017.007M77.693 871.894l5.452 2.94M321.348 757.821l2.511-2.096" style="fill:none;stroke:#00ff4a;stroke-width:.999997;stroke-linecap:round;stroke-linejoin:round;stroke-miterlimit:4;stroke-dasharray:none;stroke-opacity:1;visibility:visible" visibility="hidden"/><path d="m81.949 874.067-1.073 2.491" style="fill:none;stroke:#00ff4a;stroke-width:1.99999;stroke-linecap:round;stroke-linejoin:round;stroke-miterlimit:4;stroke-dasharray:none;stroke-opacity:1;visibility:visible" visibility="hidden"/><path d="m82.099 873.988 2.082 4.353M91.259 872.651l.129-5.741M82.099 873.988l9.289-7.078M322.73 759.662l-8.55 2.35" style="fill:none;stroke:#00ff4a;stroke-width:.666665;stroke-linecap:round;stroke-linejoin:round;stroke-miterlimit:4;stroke-dasharray:none;stroke-opacity:1;visibility:visible" visibility="hidden"/><path d="m81.947 874.068.793 3.128M78.237 874.94l4.128 2.417M322.602 764.133l.522-1.216" style="fill:none;stroke:#00ff4a;stroke-width:.999997;stroke-linecap:round;stroke-linejoin:round;stroke-miterlimit:4;stroke-dasharray:none;stroke-opacity:1;visibility:visible" visibility="hidden"/><path d="m85.157 877.878 5.318.912" style="fill:none;stroke:#00ff4a;stroke-width:1.99999;stroke-linecap:round;stroke-linejoin:round;stroke-miterlimit:4;stroke-dasharray:none;stroke-opacity:1;visibility:visible" visibility="hidden"/><path d="m322.797 764.372-1.072-4.509" style="fill:none;stroke:#00ff4a;stroke-width:.666665;stroke-linecap:round;stroke-linejoin:round;stroke-miterlimit:4;stroke-dasharray:none;stroke-opacity:1;visibility:visible" visibility="hidden"/><path d="m324.852 755.581-.361-.16" style="fill:none;stroke:#9500ff;stroke-width:.999997;stroke-linecap:round;stroke-linejoin:round;stroke-miterlimit:4;stroke-dasharray:none;stroke-opacity:1;visibility:visible"/><path d="m324.836 749.107.352.153M327.372 747.766l.057-.01.064-.006.056.005.055.011.048.015M327.885 747.838l-.032-.007-.025.007-.031.008M327.652 747.78l.032-.007h.033l.022.007" style="fill:none;stroke:#9500ff;stroke-width:1.99999;stroke-linecap:round;stroke-linejoin:round;stroke-miterlimit:4;stroke-dasharray:none;stroke-opacity:1;visibility:visible"/><path d="m327.372 747.766-.032-.016h-.033" style="fill:none;stroke:#9500ff;stroke-width:.999997;stroke-linecap:round;stroke-linejoin:round;stroke-miterlimit:4;stroke-dasharray:none;stroke-opacity:1;visibility:visible"/><path d="m324.994 748.837-.045-.008-.048.008-.048.017" style="fill:none;stroke:#9500ff;stroke-width:1.99999;stroke-linecap:round;stroke-linejoin:round;stroke-miterlimit:4;stroke-dasharray:none;stroke-opacity:1;visibility:visible"/><path d="m324.836 749.107.008-.056.016-.055.023-.046.033-.048.04-.042.037-.024M324.764 749.028l.01.032.02.025.043.024" style="fill:none;stroke:#9500ff;stroke-width:1.99999;stroke-linecap:round;stroke-linejoin:round;stroke-miterlimit:4;stroke-dasharray:none;stroke-opacity:1;visibility:visible"/><path d="m324.692 754.31-.04-.025-.033-.022-.008-.033M324.491 755.421l-.039-.017h-.041l-.032.017" style="fill:none;stroke:#9500ff;stroke-width:.999997;stroke-linecap:round;stroke-linejoin:round;stroke-miterlimit:4;stroke-dasharray:none;stroke-opacity:1;visibility:visible"/><path d="m327.82 747.863-.017-.01-.008-.009" style="fill:none;stroke:#9500ff;stroke-width:1.99999;stroke-linecap:round;stroke-linejoin:round;stroke-miterlimit:4;stroke-dasharray:none;stroke-opacity:1;visibility:visible"/><path d="M325.22 749.269h-.017l-.014-.007M324.852 755.581l.016.008.008.008M454.046 803.445l-.515-.255-2.429 1.255" style="fill:none;stroke:#9500ff;stroke-width:.999997;stroke-linecap:round;stroke-linejoin:round;stroke-miterlimit:4;stroke-dasharray:none;stroke-opacity:1;visibility:visible"/><path d="m447.502 815.068.072-.03.063-.007.057.006.047.026.049.037.03.056.026.063.016.084v.084l-.016.097-.017.097-.039.096-.04.095-.05.09-.055.078-.064.065-.063.063-.073.039-.066.028-.062.005h-.058l-.046-.021-.05-.04-.029-.059-.027-.068-.016-.076v-.087l.016-.097.018-.096.032-.096.046-.095.05-.088.054-.08.066-.073.062-.056.067-.04M452.931 809.006l.064-.033.067-.008.056.008.046.025.05.039.029.056.023.062.01.083.011.085-.021.099-.023.095-.03.1-.04.09-.049.09-.056.08-.062.073-.067.056-.073.037-.063.026-.065.01h-.054l-.05-.029-.047-.037-.03-.055-.026-.072-.01-.08v-.081l.01-.095.027-.096.029-.096.041-.099.05-.088.056-.078.06-.072.065-.056.072-.039" style="fill:none;stroke:#9500ff;stroke-width:.666665;stroke-linecap:round;stroke-linejoin:round;stroke-miterlimit:4;stroke-dasharray:none;stroke-opacity:1;visibility:visible"/><path d="m450.43 811.284.03-.023.026-.041.016-.036.007-.043M451.102 804.445l-.05.032-.057.048-.036.064-.044.063-.029.082-.027.072-.006.072M453.666 803.184l-.035-.02-.05.008-.05.016M442.788 815.25l-.048.033-.047.05-.046.061-.044.067-.03.073-.017.077-.017.072M442.363 819.02v.065l.017.048.014.039.025.043.04.014M451.102 804.445h-.027M450.836 804.861v.007l.016.01M450.491 811.118l.01.005.007.018M453.533 803.19l-.017-.004-.01.004M450.405 811.277h.01l.015.008M442.763 815.25l.017-.005.01.005M442.524 815.663l.01.013.006.01M442.348 819.006l.01.008.007.007" style="fill:none;stroke:#9500ff;stroke-width:.999997;stroke-linecap:round;stroke-linejoin:round;stroke-miterlimit:4;stroke-dasharray:none;stroke-opacity:1;visibility:visible"/><path d="M454.413 803.863h0" style="fill:none;stroke:#9500ff;stroke-width:1.99999;stroke-linecap:round;stroke-linejoin:round;stroke-miterlimit:4;stroke-dasharray:none;stroke-opacity:1;visibility:visible"/><path d="m450.836 804.861.01-.055.006-.056.023-.058.017-.048.03-.047.037-.047.029-.041.043-.032.02-.013.026-.019M450.491 811.118l.345-6.256M450.405 811.277l.016-.01.013-.017.026-.029.008-.025.018-.031.004-.015v-.033M442.763 815.25l7.64-3.973M442.524 815.663l.01-.05.006-.058.023-.055.026-.057.024-.048.034-.037.029-.04.043-.034.02-.022.026-.012M442.39 818.25l.135-2.587M325.22 749.278l125.626 55.519" style="fill:none;stroke:#9500ff;stroke-width:.999997;stroke-linecap:round;stroke-linejoin:round;stroke-miterlimit:4;stroke-dasharray:none;stroke-opacity:1;visibility:visible"/><path d="m327.508 751.927-.121-.041-.114-.034-.11-.008-.104.008-.103.027-.088.04-.09.056-.077.07-.073.087-.056.098-.04.112-.033.118-.023.131-.008.136.008.144.015.141.033.146.048.154.056.143.065.136.078.136.081.125.095.122.104.104.104.097.11.08.114.063.112.049.11.039.114.017h.112l.102-.017.1-.032.095-.048.079-.063.07-.081.064-.088.05-.103.04-.121.033-.12.008-.136v-.144l-.008-.144-.025-.146-.039-.142-.047-.142-.066-.144-.072-.137-.079-.136-.09-.121-.105-.115-.102-.101-.103-.086-.112-.073-.112-.056M331.852 753.843l-.121-.039-.112-.022-.112-.016-.104.006-.103.024-.096.042-.09.054-.069.072-.073.087-.056.097-.048.114-.033.12-.014.125-.008.139v.142l.022.146.033.153.04.143.056.141.065.145.078.138.089.12.095.12.096.102.112.096.104.08.12.071.112.05.112.031.112.024h.112l.102-.014.1-.034.095-.045.079-.065.072-.083.066-.087.054-.112.032-.112.033-.128.017-.129v-.144l-.017-.14-.025-.147-.04-.152-.046-.142-.066-.144-.072-.136-.079-.128-.09-.127-.095-.115-.103-.097-.112-.085-.112-.075-.112-.064M335.7 755.597l-.088 3.025M335.7 755.597v-.104l-.017-.104-.032-.104-.039-.101-.056-.098-.056-.089-.072-.08-.081-.073-.08-.054-.082-.033-.077-.023-.081-.009-.074.015-.069.025-.056.048-.048.056-.043.072M335.148 759.03l.081.016h.078l.074-.016.064-.041.056-.05.048-.062.03-.072.025-.087.01-.099" style="fill:none;stroke:#9500ff;stroke-width:.666665;stroke-linecap:round;stroke-linejoin:round;stroke-miterlimit:4;stroke-dasharray:none;stroke-opacity:1;visibility:visible"/><path d="m324.885 755.597 125.421 55.737M321.692 761.213l120.993 54.095" style="fill:none;stroke:#9500ff;stroke-width:.999997;stroke-linecap:round;stroke-linejoin:round;stroke-miterlimit:4;stroke-dasharray:none;stroke-opacity:1;visibility:visible"/><path d="m326.955 760.734-.12-.05-.133-.038-.139-.033-.141-.031-.156-.015-.159-.018h-.303l-.154.018-.151.015-.133.03-.139.034-.12.05-.105.046-.094.048-.081.064-.064.064-.048.065-.03.068-.02.067.009.072.02.072.037.07.056.067.073.071.087.056.104.057.112.055.13.04.134.039.145.033.151.023.15.017.157.007h.158l.15-.007.153-.017.137-.023.135-.033.128-.039.123-.048.093-.047.09-.057.069-.064.064-.063.036-.068.021-.069.008-.072-.016-.072-.03-.073-.049-.062-.064-.074-.081-.055-.096-.064-.104-.056M334.13 760.653l.027.05.005.037-.005.05-.027.039-.03.05-.055.029-.058.042-4.614 2.183M329.372 763.135l-.081.03-.088.025-.094.016-.105.014h-.11l-.105-.006-.113-.008-.105-.02-.086-.028-.088-.031-.073-.041-.056-.048-.039-.048-.034-.05-.008-.048.008-.049.026-.045" style="fill:none;stroke:#9500ff;stroke-width:.666665;stroke-linecap:round;stroke-linejoin:round;stroke-miterlimit:4;stroke-dasharray:none;stroke-opacity:1;visibility:visible"/><path d="m336.213 751.838-1.61.759M336.213 751.838l.03-.027.023-.021v-.025l-.008-.034-.021-.021-.043-.017M334.284 752.59l.045.017.058.015h.121l.047-.007.046-.017M336.196 751.846v-.153" style="fill:none;stroke:#9500ff;stroke-width:.999997;stroke-linecap:round;stroke-linejoin:round;stroke-miterlimit:4;stroke-dasharray:none;stroke-opacity:1;visibility:visible"/><path d="m333.068 760.421.072-.032.079-.024.089-.017.079-.01h.168l.081.019.07.008.073.024.073.032.072.03.061.042.058.047.05.058.039.055M328.459 762.606l4.608-2.185M328.22 762.796l.039-.047.048-.048.044-.032.037-.025.032-.023.041-.016M334.685 755.19l-.09 3.03M334.685 755.19l.008-.048.008-.056.008-.048.013-.048.016-.05M335.148 759.03l-.064-.027-.072-.029-.057-.04-.062-.05-.056-.049-.05-.054-.048-.074-.047-.07-.032-.075-.033-.077-.014-.079-.017-.081v-.104" style="fill:none;stroke:#9500ff;stroke-width:.666665;stroke-linecap:round;stroke-linejoin:round;stroke-miterlimit:4;stroke-dasharray:none;stroke-opacity:1;visibility:visible"/><path d="m327.74 747.78.143.056M327.308 747.75l.048-.012.056-.008.055-.007h.048l.048.007.05.008.06.017.066.024M324.852 748.854l.17-.112.166-.11.185-.107.19-.103.202-.096.199-.096.215-.096.224-.088.224-.079.225-.082.224-.071.232-.063M324.764 749.028v-.04h.01v-.024h.007v-.021h.008v-.019h.006v-.007h.008v-.014h.009v-.008h.008v-.008h.01v-.008h.007v-.01h.008v-.008h.006v-.008M324.613 754.23l.15-5.2M324.57 755.051l.017-.159.008-.169.006-.16.009-.167v-.166M324.38 755.421l.008-.007.008-.01.015-.01.016-.012.025-.025.013-.024.027-.03.016-.025.013-.041.008-.008v-.017l.019-.015.008-.03.008-.033.008-.044v-.037" style="fill:none;stroke:#9500ff;stroke-width:1.99999;stroke-linecap:round;stroke-linejoin:round;stroke-miterlimit:4;stroke-dasharray:none;stroke-opacity:1;visibility:visible"/><path d="m323.764 755.725.121-.061.128-.058.118-.066.128-.056.122-.063" style="fill:none;stroke:#9500ff;stroke-width:.999997;stroke-linecap:round;stroke-linejoin:round;stroke-miterlimit:4;stroke-dasharray:none;stroke-opacity:1;visibility:visible"/><path d="m323.764 755.725-7.047 3.312M327.885 747.838l.016.015" style="fill:none;stroke:#9500ff;stroke-width:1.99999;stroke-linecap:round;stroke-linejoin:round;stroke-miterlimit:4;stroke-dasharray:none;stroke-opacity:1;visibility:visible"/><path d="m326.42 763.628-.017-.056-.022-.056-.033-.048-.05-.037-.038-.036-.673-.294M325.586 763.102l-.03-.01-.042-.007-.03.017M324.53 763.55l-1.408-.633M324.53 763.55l.955-.448M317.338 759.415l3.6-1.696" style="fill:none;stroke:#9500ff;stroke-width:.999997;stroke-linecap:round;stroke-linejoin:round;stroke-miterlimit:4;stroke-dasharray:none;stroke-opacity:1;visibility:visible"/><path d="m454.173 803.438-.508-.252M442.994 819.438l-.532-.208" style="fill:none;stroke:#9500ff;stroke-width:1.99999;stroke-linecap:round;stroke-linejoin:round;stroke-miterlimit:4;stroke-dasharray:none;stroke-opacity:1;visibility:visible"/><path d="M443.374 819.415h0l-.057.016-.05.02-.053.01h-.105l-.047-.01-.067-.01" style="fill:none;stroke:#9500ff;stroke-width:.999997;stroke-linecap:round;stroke-linejoin:round;stroke-miterlimit:4;stroke-dasharray:none;stroke-opacity:1;visibility:visible"/><path d="m443.374 819.415 9.71-5.075M453.908 812.95l.507-9.087M453.908 812.95l-.017.101-.014.112-.026.106-.03.112-.033.097-.039.107-.046.092-.051.096-.056.078-.056.09-.063.08-.062.072-.083.07-.08.067-.08.064-.085.045M454.173 803.438l.063.04.05.043.035.053.044.056.023.056.017.07.01.049v.057" style="fill:none;stroke:#9500ff;stroke-width:1.99999;stroke-linecap:round;stroke-linejoin:round;stroke-miterlimit:4;stroke-dasharray:none;stroke-opacity:1;visibility:visible"/><path d="m453.508 803.19.025-.017.031-.008h.056l.027.008h.013M442.348 819.006l.04-.755M442.452 819.23l-.024-.016-.023-.025-.026-.024-.014-.031-.006-.04-.01-.043v-.045" style="fill:none;stroke:#9500ff;stroke-width:.999997;stroke-linecap:round;stroke-linejoin:round;stroke-miterlimit:4;stroke-dasharray:none;stroke-opacity:1;visibility:visible"/><path d="m326.03 766.877 116.318 52.175M327.915 747.852l125.545 55.361" style="fill:none;stroke:#9500ff;stroke-width:1.99999;stroke-linecap:round;stroke-linejoin:round;stroke-miterlimit:4;stroke-dasharray:none;stroke-opacity:1;visibility:visible"/><path d="m442.765 815.25 4.737-.182M442.763 815.25l4.739-.182M450.403 811.277l2.528-2.271M450.405 811.277l2.526-2.271M324.836 749.107l2.672 2.82M325.188 749.26l2.32 2.667M334.284 752.59l-2.432 1.253M324.692 754.31l7.16-.467" style="fill:none;stroke:#9500ff;stroke-width:.666665;stroke-linecap:round;stroke-linejoin:round;stroke-miterlimit:4;stroke-dasharray:none;stroke-opacity:1;visibility:visible"/><path d="m324.53 763.55-2.838-2.337" style="fill:none;stroke:#9500ff;stroke-width:.999997;stroke-linecap:round;stroke-linejoin:round;stroke-miterlimit:4;stroke-dasharray:none;stroke-opacity:1;visibility:visible"/><path d="m325.587 763.101 1.368-2.367M324.53 763.55l2.425-2.816" style="fill:none;stroke:#9500ff;stroke-width:.666665;stroke-linecap:round;stroke-linejoin:round;stroke-miterlimit:4;stroke-dasharray:none;stroke-opacity:1;visibility:visible"/><path d="m325.586 763.102-2.464-.185M323.764 755.725l-2.826 1.994" style="fill:none;stroke:#9500ff;stroke-width:.999997;stroke-linecap:round;stroke-linejoin:round;stroke-miterlimit:4;stroke-dasharray:none;stroke-opacity:1;visibility:visible"/><path d="m324.53 763.55 1.5 3.327" style="fill:none;stroke:#9500ff;stroke-width:1.99999;stroke-linecap:round;stroke-linejoin:round;stroke-miterlimit:4;stroke-dasharray:none;stroke-opacity:1;visibility:visible"/></svg>