<svg xmlns="http://www.w3.org/2000/svg" baseProfile="full" height="1122.52" preserveAspectRatio="xMinYMin meet" style="width:912px;height:1246px" width="793.701" xml:space="preserve"><path d="m422.901 717.843.057.05.035.047.037.05.014.046M422.076 718.503l-.13-.01-.125-.017-.118-.014-.123-.026-.112-.03-.103-.042-.09-.04-.087-.045-.065-.05-.056-.047-.036-.058-.038-.057-.002-.055.002-.056.02-.056.038-.046.052-.048.06-.048M422.236 717.622l.05.024.035.03.016.031.012.034-.017.025-.03.03-.04.025-.057.017-.065.005-.073.01h-.074l-.069-.015-.063-.017-.046-.024-.051-.024-.024-.032-.017-.034.009-.032.027-.021.029-.032.047-.017.065-.014.064-.008h.073l.07.008.072.014.057.017" style="fill:none;stroke:red;stroke-width:.666665;stroke-linecap:round;stroke-linejoin:round;stroke-miterlimit:4;stroke-dasharray:none;stroke-opacity:1;visibility:visible"/><path d="m413.524 718.109-.136-.008-.136-.016-.13-.016-.118-.033-.113-.031-.103-.039-.095-.049-.08-.048-.064-.055-.049-.056-.032-.056-.017-.065v-.055l.017-.056.032-.056.056-.049.063-.056M413.692 717.229l.047.025.04.031.016.032.009.033-.016.031-.03.025-.04.024-.055.016-.067.016h-.145l-.063-.009-.064-.023-.056-.017-.048-.032-.025-.03-.007-.034v-.024l.027-.032.029-.025.057-.023.056-.016.074-.008h.069l.072.008.063.016.057.016" style="fill:none;stroke:red;stroke-width:.999997;stroke-linecap:round;stroke-linejoin:round;stroke-miterlimit:4;stroke-dasharray:none;stroke-opacity:1;visibility:visible"/><path d="m598.158 634.893.036.041.036.032.02.039M597.42 635.405l-.119-.01-.122-.006-.119-.016-.112-.023-.104-.03-.105-.035-.094-.03-.082-.042-.07-.04-.056-.047-.046-.049-.034-.047-.02-.046v-.05l.02-.049.024-.041.039-.047.056-.03M597.501 634.622l.045.024.04.024.016.023.012.032-.012.025-.016.023-.04.017-.045.015-.057.016h-.138l-.061-.007-.065-.017-.047-.024-.048-.023-.035-.025-.016-.023v-.032l.016-.024.035-.016.048-.024.047-.01.065-.006h.061l.072.007.066.009.057.016" style="fill:none;stroke:red;stroke-width:.666665;stroke-linecap:round;stroke-linejoin:round;stroke-miterlimit:4;stroke-dasharray:none;stroke-opacity:1;visibility:visible"/><path d="m601.195 633.454.039.037.026.043.024.04" style="fill:none;stroke:red;stroke-width:.999997;stroke-linecap:round;stroke-linejoin:round;stroke-miterlimit:4;stroke-dasharray:none;stroke-opacity:1;visibility:visible"/><path d="m600.452 633.964-.12-.007-.12-.008-.112-.014-.112-.027-.113-.024-.096-.032-.092-.037-.084-.043-.07-.041-.056-.047-.049-.048-.033-.047-.016-.046-.007-.051.016-.039.027-.048.046-.041.047-.039M600.533 633.19l.045.015.04.024.028.033.006.023-.006.028-.028.018-.04.027-.045.015-.057.009h-.128l-.063-.01-.064-.014-.056-.017-.043-.023-.029-.033-.017-.023v-.027l.017-.021.03-.024.042-.017.056-.015.056-.008h.07l.066.008.063.005.057.027" style="fill:none;stroke:red;stroke-width:.666665;stroke-linecap:round;stroke-linejoin:round;stroke-miterlimit:4;stroke-dasharray:none;stroke-opacity:1;visibility:visible"/><path d="m413.739 718.653-.167.081" style="fill:none;stroke:red;stroke-width:.999997;stroke-linecap:round;stroke-linejoin:round;stroke-miterlimit:4;stroke-dasharray:none;stroke-opacity:1;visibility:visible"/><path d="m413.572 718.734.041.007h.039l.041-.016.023-.032.023-.042.01-.045.112-2.552M414.308 714.981l-.08.096-.07.107-.071.118-.067.119-.045.119-.042.137-.033.128-.023.128-.017.123" style="fill:none;stroke:red;stroke-width:1.99999;stroke-linecap:round;stroke-linejoin:round;stroke-miterlimit:4;stroke-dasharray:none;stroke-opacity:1;visibility:visible"/><path d="m414.308 714.981.057-.056.066-.039.062-.044.064-.021.072-.032.08-.015M599.467 627.757l-.017.01-.007.007-.013.007-.01.007-.006.008-.02.017M414.707 714.773l.096.04M599.396 627.813l.095.03" style="fill:none;stroke:red;stroke-width:.999997;stroke-linecap:round;stroke-linejoin:round;stroke-miterlimit:4;stroke-dasharray:none;stroke-opacity:1;visibility:visible"/><path d="m594.163 631.244.056-.024.068-.004.052.004.05.024.046.04.033.048.034.063.016.073.006.088v.088l-.006.107-.027.094-.023.106-.04.094-.04.095-.056.088-.057.08-.056.063-.063.066-.065.04-.063.032-.064.014h-.056l-.056-.014-.049-.032-.04-.049-.03-.057-.026-.071-.007-.08-.009-.087.01-.096.015-.097.024-.103.032-.094.04-.099.047-.095.056-.081.057-.08.063-.056.065-.056.063-.032M528.66 662.109l.073-.024.063-.005.056.005.056.024.05.04.035.048.035.065.016.079.017.088v.09l-.009.102-.024.103-.023.098-.041.103-.05.097-.055.095-.056.08-.063.073-.063.056-.074.046-.066.034-.062.015h-.063l-.056-.015-.056-.024-.041-.05-.03-.056-.036-.071-.013-.077-.007-.098.007-.096.013-.105.027-.096.03-.103.042-.105.057-.088.056-.084.056-.083.06-.065.072-.056.067-.04M492.947 678.94l.068-.023.063-.005.062.005.056.023.05.033.046.058.03.064.028.078.009.088v.096l-.01.096-.017.103-.029.107-.044.104-.04.102-.056.091-.063.085-.065.072-.06.056-.073.047-.074.033-.065.023h-.063l-.064-.015-.049-.032-.05-.045-.037-.056-.025-.073-.013-.082-.01-.094v-.098l.016-.104.023-.102.033-.106.04-.097.056-.096.058-.09.062-.077.066-.072.069-.056.072-.041M421.108 712.799l.072-.027.07-.013.071.008.058.023.056.038.049.048.033.074.02.072.02.094.007.098-.007.104-.026.104-.023.104-.04.112-.05.093-.055.097-.06.09-.074.078-.073.064-.072.048-.07.032-.077.026h-.072l-.062-.016-.056-.024-.047-.047-.05-.065-.02-.074-.027-.08-.01-.093v-.099l.022-.112.021-.104.03-.101.05-.107.047-.104.066-.089.063-.085.072-.064.07-.066.074-.037M507.66 672.013l.064-.03.065-.009.063.01.056.022.05.038.035.05.035.07.024.074.01.086v.098l-.01.096-.017.104-.03.104-.033.103-.05.097-.057.095-.062.08-.063.073-.063.063-.074.05-.066.031-.062.014h-.063l-.063-.014-.049-.032-.05-.041-.03-.064-.032-.073-.015-.079-.009-.088.01-.096.006-.103.023-.104.041-.104.043-.105.046-.095.056-.089.063-.07.065-.073.07-.048.073-.041M514.219 668.917l.073-.023.066-.008.056.008.054.014.05.041.04.055.029.065.028.07.016.089v.097l-.01.104-.027.096-.02.104-.043.101-.047.1-.056.094-.056.08-.066.074-.07.063-.062.048-.074.032-.065.016h-.063l-.057-.016-.056-.032-.04-.04-.039-.064-.024-.073-.016-.079-.006-.09.006-.094.007-.105.025-.103.04-.101.04-.107.05-.088.057-.088.063-.081.062-.072.072-.047.063-.04M561.901 646.445l.063-.024.057-.008.065.008.047.024.047.04.038.047.027.076.02.068.01.088v.089l-.01.104-.02.096-.027.104-.038.096-.047.097-.047.095-.056.08-.066.07-.063.058-.067.047-.062.025-.066.019h-.06l-.057-.019-.05-.025-.04-.047-.031-.057-.024-.071-.015-.08-.008-.087.008-.097.005-.104.027-.104.039-.096.04-.104.049-.09.057-.087.056-.068.06-.068.066-.055.073-.04M457.587 695.605l.064-.024.073-.007.063.007.056.016.056.039.04.056.04.065.024.08.01.09.006.094-.007.107-.022.101-.028.104-.039.104-.047.103-.056.092-.062.085-.067.073-.073.064-.07.05-.073.037-.072.016h-.065l-.062-.016-.056-.03-.049-.04-.033-.065-.03-.073-.016-.08-.008-.097v-.094l.018-.105.02-.104.036-.113.036-.095.056-.104.056-.087.068-.082.072-.062.069-.056.072-.049" style="fill:none;stroke:red;stroke-width:.666665;stroke-linecap:round;stroke-linejoin:round;stroke-miterlimit:4;stroke-dasharray:none;stroke-opacity:1;visibility:visible"/><path d="m600.717 631.382-185.88 87.878M417.758 720.557l.023-.025.033-.014h.036l.043.014" style="fill:none;stroke:red;stroke-width:.999997;stroke-linecap:round;stroke-linejoin:round;stroke-miterlimit:4;stroke-dasharray:none;stroke-opacity:1;visibility:visible"/><path d="m602.646 632.925-184.858 87.598" style="fill:none;stroke:red;stroke-width:1.99999;stroke-linecap:round;stroke-linejoin:round;stroke-miterlimit:4;stroke-dasharray:none;stroke-opacity:1;visibility:visible"/><path d="m609.814 630.34.045-.016.047-.008h.056l.05.017M419.348 719.524l.056.05.04.046.033.047.014.056M418.517 720.182h-.139l-.126-.019-.13-.022-.129-.024-.11-.04-.111-.038-.086-.042-.084-.056-.069-.056-.047-.055-.036-.059-.016-.054v-.063l.016-.056.036-.056.054-.05.062-.054M418.685 719.303l.047.028.033.027.023.029v.035l-.01.03-.029.026-.04.022-.057.024-.072.01-.064.006-.072-.006-.07-.01-.066-.017-.056-.021-.039-.034-.035-.022-.006-.035v-.03l.024-.034.038-.021.051-.026.052-.013.077-.01h.072l.07.01.062.013.067.019" style="fill:none;stroke:red;stroke-width:.666665;stroke-linecap:round;stroke-linejoin:round;stroke-miterlimit:4;stroke-dasharray:none;stroke-opacity:1;visibility:visible"/><path d="m410.203 717.981.04.025.024.022.019.025-.01.025-.017.023-.03.017M408.718 718.829l-.04.016-.047.01-.066.005-.056-.006-.056-.009-.047-.016M408.718 718.829l1.512-.712M410.196 718.133l.01-.152" style="fill:none;stroke:red;stroke-width:.999997;stroke-linecap:round;stroke-linejoin:round;stroke-miterlimit:4;stroke-dasharray:none;stroke-opacity:1;visibility:visible"/><path d="m601.124 626.415-.037-.01h-.043l-.03.01M600.635 626.653l-.04-.008h-.033l-.03.008" style="fill:none;stroke:red;stroke-width:1.99999;stroke-linecap:round;stroke-linejoin:round;stroke-miterlimit:4;stroke-dasharray:none;stroke-opacity:1;visibility:visible"/><path d="m595.102 629.261-.04-.008h-.033l-.034.008M594.98 629.421l.016-.041.024-.042.027-.037.02-.023.036-.017M594.886 629.389v.025l.007.015.016.025" style="fill:none;stroke:red;stroke-width:.999997;stroke-linecap:round;stroke-linejoin:round;stroke-miterlimit:4;stroke-dasharray:none;stroke-opacity:1;visibility:visible"/><path d="m422.901 717.843.036.032.043.043.034.038.023.04.013.032v.008M421.163 717.759l.017-.01.014-.009.018-.009.018-.013.016-.01.013-.005.016-.008.017-.01.014-.009.016-.005.017-.008.019-.008.021-.01h.017l.016-.007.016-.008.016-.008.018-.006h.022l.018-.01.016-.007h.013l.016-.008.027-.007h.013l.016-.012h.017l.024-.008h.016l.018-.005h.013l.025-.008h.031l.025-.01h.047l.027-.006h.254l.018.007h.056l.016.009h.04l.016.008h.02l.021.005h.015l.014.008h.023l.019.012h.014l.016.007.024.008h.016l.016.007.018.01.013.006h.027l.016.008.013.008.016.008.017.009.015.008.015.008.021.005h.02l.015.019.016.008.021.005.013.01.016.009.018.004.013.01.016.009.017.009.016.015.016.009.016.005.018.008.006.019.014.007.018.008.018.013" style="fill:none;stroke:red;stroke-width:.666665;stroke-linecap:round;stroke-linejoin:round;stroke-miterlimit:4;stroke-dasharray:none;stroke-opacity:1;visibility:visible"/><path d="M412.619 717.365h.012l.016-.008.003-.008.01-.01h.016l.011-.006.015-.008.005-.008h.01l.017-.005.006-.011h.01l.013-.01.01-.007h.015l.008-.006.01-.009h.013l.01-.008.017-.008h.006l.01-.007h.013l.01-.012h.017l.006-.006h.016l.007-.007h.016l.012-.008h.016l.005-.01h.014l.01-.007h.027l.013-.007h.007l.017-.01h.023l.01-.007h.023l.016-.008h.032l.018-.007h.046l.01-.008h.062l.014-.008h.212l.004.008h.081l.012.008h.035l.01.007h.04l.007.008h.027l.013.008h.025l.008.009h.018" style="fill:none;stroke:red;stroke-width:.999997;stroke-linecap:round;stroke-linejoin:round;stroke-miterlimit:4;stroke-dasharray:none;stroke-opacity:1;visibility:visible"/><path d="m598.158 634.893.036.032.027.032.022.032.007.016" style="fill:none;stroke:red;stroke-width:.666665;stroke-linecap:round;stroke-linejoin:round;stroke-miterlimit:4;stroke-dasharray:none;stroke-opacity:1;visibility:visible"/><path d="m596.475 634.765.017-.016.014-.01.016-.005.017-.009.019-.007.013-.009.016-.007.017-.01.014-.008.016-.008.017-.006.016-.009h.017l.018-.008.016-.008.013-.01.027-.007h.016l.013-.006.016-.008h.017l.016-.008.014-.008h.026l.015-.008h.015l.017-.01h.039l.016-.008h.017l.017-.008h.054l.018-.006h.29l.02.006h.036l.016.008h.04l.016.008h.013l.016.01h.027l.013.008h.016l.017.008h.014l.016.008.028.008h.013l.016.006.017.008.016.009h.014l.02.008.016.008.02.01.02.005.016.008.013.008.016.01.017.007.015.01.015.006.017.01.016.005.017.009.016.008.006.008.017.008.017.017.016.006.018.008.013.009.016.016.01.008.017.007.013.016.016.009.017.016.01.008" style="fill:none;stroke:red;stroke-width:.666665;stroke-linecap:round;stroke-linejoin:round;stroke-miterlimit:4;stroke-dasharray:none;stroke-opacity:1;visibility:visible"/><path d="m601.195 633.454.032.03.033.042.016.032.008.008" style="fill:none;stroke:red;stroke-width:.999997;stroke-linecap:round;stroke-linejoin:round;stroke-miterlimit:4;stroke-dasharray:none;stroke-opacity:1;visibility:visible"/><path d="m599.508 633.325.016-.007.013-.008.019-.01.017-.015.016-.007.014-.009.017-.007.016-.01.013-.008h.016l.022-.007.016-.008.02-.008.017-.008.017-.01h.015l.017-.009.016-.006.014-.007h.016l.026-.008.014-.008h.016l.017-.008h.016l.023-.007h.017l.016-.01h.035l.021-.007h.032l.019-.007h.053l.016-.008h.216l.023.008h.049l.017.007h.039l.017.007h.016l.023.01h.017l.016.007h.014l.017.008h.027l.013.008h.017l.016.008.014.007h.016l.017.006.023.01.016.009.017.008h.017l.015.008.017.008.016.007.014.008.016.01.017.007.016.01.013.006.022.008.016.007.013.01.016.008.017.015.015.01.015.007.017.006.01.016.013.009.016.008.017.01.016.013.007.009.016.017.017.008.016.008" style="fill:none;stroke:red;stroke-width:.666665;stroke-linecap:round;stroke-linejoin:round;stroke-miterlimit:4;stroke-dasharray:none;stroke-opacity:1;visibility:visible"/><path d="m604.332 635.59-.027.065-.03.047-.03.037-.052.028M599.587 627.757l-.01-.005h-.006M599.572 627.75l-.025-.012h-.047l-.013.012-.019.005M599.908 630.9v.05l.016.047.023.05.033.041.033.03.047.025.656.24M600.717 631.382l.039.013.04.034.033.048.023.046.281.762M601.131 632.285l.017.05.03.037.04.034.042.023 1.386.496M603.619 632.46l.03-.007h.045l.029.007.656.235M604.38 632.695l.039.024.042.032.031.048.025.044.004.052M604.523 632.895l.032.317.016.314v.302l-.01.304-.022.304-.033.296-.047.299-.056.285-.072.274" style="fill:none;stroke:red;stroke-width:.999997;stroke-linecap:round;stroke-linejoin:round;stroke-miterlimit:4;stroke-dasharray:none;stroke-opacity:1;visibility:visible"/><path d="m604.195 635.766-182.102 86.598M595.061 629.381l-185.97 87.528" style="fill:none;stroke:red;stroke-width:1.99999;stroke-linecap:round;stroke-linejoin:round;stroke-miterlimit:4;stroke-dasharray:none;stroke-opacity:1;visibility:visible"/><path d="m603.619 632.46-.972.465M599.587 627.757l.263.087" style="fill:none;stroke:red;stroke-width:.999997;stroke-linecap:round;stroke-linejoin:round;stroke-miterlimit:4;stroke-dasharray:none;stroke-opacity:1;visibility:visible"/><path d="m419.348 719.524.04.039.043.034.02.039.026.04.014.041h.009M417.603 719.438l.017-.01.014-.007.016-.007.017-.008.019-.01.014-.009.024-.005.016-.01.016-.007.016-.008.018-.006.013-.012.016-.008.017-.005.016-.01.023-.007h.017l.016-.007.014-.007.016-.01h.021l.019-.01.016-.005h.021l.013-.01h.024l.016-.007.016-.01h.04l.014-.004h.018l.018-.009h.038l.018-.01h.076l.016-.006h.186l.014.007h.072l.026.009h.03l.028.01h.013l.016.003h.017l.023.01h.016l.017.008h.016l.023.009h.017l.016.005.014.01h.026l.016.01.014.007.016.007h.021l.013.008.022.009.021.005.013.008.016.012.018.006.013.008.016.006.017.011.016.005.014.008.018.011.018.008.013.007.016.017.017.005.016.01.014.01.016.006.021.016.013.008.016.008.018.017.016.005" style="fill:none;stroke:red;stroke-width:.666665;stroke-linecap:round;stroke-linejoin:round;stroke-miterlimit:4;stroke-dasharray:none;stroke-opacity:1;visibility:visible"/><path d="m408.858 717.068.195.083M601.26 625.333l.385-4.725M601.18 626.093l.016-.152.016-.152.016-.152.017-.153.016-.152M601.013 626.415h.008l.01-.01.006-.009.013-.012.016-.018.02-.026.014-.022.016-.024.017-.03.007-.044.009-.006v-.008l.007-.016.006-.032.01-.034.006-.03M600.533 626.653l-5.537 2.61M600.533 626.653l.096-.039.096-.05.096-.047.095-.05.097-.053" style="fill:none;stroke:red;stroke-width:1.99999;stroke-linecap:round;stroke-linejoin:round;stroke-miterlimit:4;stroke-dasharray:none;stroke-opacity:1;visibility:visible"/><path d="M594.886 629.389h.007v-.025h.009v-.014h.007v-.017h.006v-.008h.007v-.008l.01-.007v-.008h.006l.01-.009h.011v-.008h.006v-.007h.008v-.009h.016v-.008h.005M594.86 629.477l.025-.088M409.053 717.15l4.717 1.965" style="fill:none;stroke:red;stroke-width:.999997;stroke-linecap:round;stroke-linejoin:round;stroke-miterlimit:4;stroke-dasharray:none;stroke-opacity:1;visibility:visible"/><path d="m595.061 629.381-.898 1.863M594.996 629.262l-.833 1.982M410.23 718.117l10.878-5.318M421.163 717.759l-.055-4.96" style="fill:none;stroke:red;stroke-width:.666665;stroke-linecap:round;stroke-linejoin:round;stroke-miterlimit:4;stroke-dasharray:none;stroke-opacity:1;visibility:visible"/><path d="m413.739 718.653 1.097.607" style="fill:none;stroke:red;stroke-width:.999997;stroke-linecap:round;stroke-linejoin:round;stroke-miterlimit:4;stroke-dasharray:none;stroke-opacity:1;visibility:visible"/><path d="m600.717 631.382 9.296-1.049" style="fill:none;stroke:red;stroke-width:.666665;stroke-linecap:round;stroke-linejoin:round;stroke-miterlimit:4;stroke-dasharray:none;stroke-opacity:1;visibility:visible"/><path d="m413.739 718.653 8.354 3.711M601.18 626.093l.465-5.485" style="fill:none;stroke:red;stroke-width:1.99999;stroke-linecap:round;stroke-linejoin:round;stroke-miterlimit:4;stroke-dasharray:none;stroke-opacity:1;visibility:visible"/><path d="M599.836 627.846h.016M599.836 627.846l-.047-.016h-.056l-.056-.01-.057.01-.056.008-.073.008M602.102 620.812l122.456 43.536" style="fill:none;stroke:#00ff4a;stroke-width:.999997;stroke-linecap:round;stroke-linejoin:round;stroke-miterlimit:4;stroke-dasharray:none;stroke-opacity:1;visibility:visible"/><path d="m604.267 623.095-.11-.032-.111-.016-.115-.008-.101.013-.106.024-.096.05-.09.048-.076.07-.072.083-.068.096-.046.1-.04.112-.022.116-.02.128v.127l.009.126.027.139.037.125.05.127.063.13.066.114.076.11.093.106.092.087.105.081.103.07.113.049.11.042.112.031.113.007.112-.007.103-.017.1-.034.096-.048.085-.064.072-.077.075-.09.056-.095.038-.103.031-.119.027-.122.006-.127-.006-.13-.02-.127-.03-.134-.04-.129-.053-.13-.067-.12-.082-.113-.076-.102-.099-.106-.097-.078-.102-.072-.112-.064-.113-.047M608.523 624.606l-.11-.03-.111-.02h-.114l-.102.01-.107.032-.095.039-.097.057-.079.064-.073.085-.064.091-.048.103-.037.112-.027.12-.016.118v.131l.016.136.027.127.029.136.047.128.066.121.074.119.076.112.089.106.095.086.104.08.105.064.113.057.11.039.112.025.112.013.113-.008.103-.016.098-.04.098-.046.085-.056.073-.08.072-.088.058-.096.04-.104.029-.12.027-.12.006-.127-.006-.13-.02-.134-.03-.128-.041-.13-.056-.127-.063-.122-.082-.118-.076-.106-.1-.096-.096-.085-.102-.073-.113-.064-.112-.047M612.302 625.99l-.243 2.76M612.302 625.99v-.088l-.017-.088-.018-.088-.04-.09-.04-.086-.056-.075-.056-.069-.072-.056-.07-.05-.072-.038-.083-.019-.076-.006-.073.006-.074.019-.062.03-.056.05-.05.056-.029.07-.035.074M611.486 629.108l.079.028.069.013h.075l.065-.013.072-.028.056-.03.047-.05.046-.061.034-.064.024-.074.009-.078" style="fill:none;stroke:#00ff4a;stroke-width:.666665;stroke-linecap:round;stroke-linejoin:round;stroke-miterlimit:4;stroke-dasharray:none;stroke-opacity:1;visibility:visible"/><path d="m601.517 626.55 122.248 43.72M599.923 630.99l117.92 42.375M600.18 629.076l-.056-.025-.064-.014" style="fill:none;stroke:#00ff4a;stroke-width:.999997;stroke-linecap:round;stroke-linejoin:round;stroke-miterlimit:4;stroke-dasharray:none;stroke-opacity:1;visibility:visible"/><path d="m600.413 629.782.08-.041.063-.047.057-.05.033-.047.019-.056.01-.058-.013-.054-.028-.055-.038-.057-.056-.056-.074-.05-.085-.046-.096-.047-.107-.041M604.43 630.599l-.113-.035-.13-.04-.125-.02-.14-.026-.132-.016-.145-.007h-.271l-.139.007-.117.016-.123.026-.109.02-.096.04-.09.035-.071.047-.058.038-.049.056-.02.051-.016.056.007.053.016.058.029.057.05.056.062.048.084.055.096.048.092.041.113.047.123.03.13.032.131.024.139.019.143.016.136.008h.136l.136-.008.126-.016.122-.019.118-.024.103-.032.09-.038.08-.039.065-.041.053-.048.036-.055.02-.048.01-.056-.017-.057-.022-.058-.043-.053-.06-.056-.072-.05-.084-.057-.096-.038-.108-.047M610.803 630.582l.017.03v.034l-.017.03-.025.033-.031.033-.045.024-3.616 1.72M607.086 632.485l-.067.025-.072.023-.08.007-.086.009-.096.007-.096-.007-.087-.01-.099-.015-.085-.014-.084-.025-.07-.03-.062-.034-.05-.033-.04-.04-.022-.039-.01-.033v-.039l.023-.041" style="fill:none;stroke:#00ff4a;stroke-width:.666665;stroke-linecap:round;stroke-linejoin:round;stroke-miterlimit:4;stroke-dasharray:none;stroke-opacity:1;visibility:visible"/><path d="m612.435 622.804-1.261.59M612.435 622.804l.027-.015.013-.025v-.015l-.013-.025-.027-.016-.039-.016M610.89 623.395l.047.021.05.007h.103l.05-.007.033-.021M612.38 622.829l.016-.137M600.046 629.317h0" style="fill:none;stroke:#00ff4a;stroke-width:.999997;stroke-linecap:round;stroke-linejoin:round;stroke-miterlimit:4;stroke-dasharray:none;stroke-opacity:1;visibility:visible"/><path d="m609.814 630.34.052-.03.067-.02.073-.011.07-.01h.154l.06.01.073.012.067.018.063.015.056.027.056.03.062.042.058.046.049.055.03.057M606.189 632.055l3.625-1.715M606.004 632.196l.027-.024.02-.032.036-.024.029-.023.03-.017.043-.02M611.307 625.655l-.232 2.75M611.307 625.655v-.025l.01-.024v-.015l.006-.024v-.024M611.486 629.108l-.057-.03-.066-.04-.057-.04-.047-.057-.038-.045-.04-.067-.043-.062-.02-.066-.027-.069-.016-.076v-.148" style="fill:none;stroke:#00ff4a;stroke-width:.666665;stroke-linecap:round;stroke-linejoin:round;stroke-miterlimit:4;stroke-dasharray:none;stroke-opacity:1;visibility:visible"/><path d="m721.702 673.35.045-.017.047-.008.05.008.033.032.029.033.027.056.016.063v.153l-.016.09-.027.078-.02.088-.043.079-.04.081-.045.07-.056.057-.05.052-.057.029-.046.025h-.047l-.043-.01-.04-.024-.029-.04-.027-.048-.006-.064-.01-.072v-.078l.016-.09.027-.088.03-.088.033-.08.049-.079.047-.067.046-.06.05-.05.057-.031M726.108 668.196l.048-.015.047-.009.042.017.042.027.029.037.017.048.016.063.008.073-.008.08-.01.091-.023.084-.03.083-.04.086-.043.072-.047.071-.048.056-.057.05-.046.04-.057.015-.04.007-.05-.016-.029-.021-.033-.042-.024-.048-.016-.064v-.15l.016-.09.024-.089.023-.081.04-.086.042-.072.047-.073.057-.063.046-.04.057-.041M723.89 670.213l.027-.017.013-.032.016-.039.012-.03M724.78 664.037l-.04.027-.04.038-.04.047-.03.065-.027.062-.023.065-.007.072M717.946 673.312l-.039.021-.042.039-.038.059-.032.054-.024.066-.022.07-.01.063M724.78 664.037l-.017-.008-.007.008" style="fill:none;stroke:#00ff4a;stroke-width:.999997;stroke-linecap:round;stroke-linejoin:round;stroke-miterlimit:4;stroke-dasharray:none;stroke-opacity:1;visibility:visible"/><path d="m724.547 664.389.01.007.007.01.01.008M723.939 670.079h0l.01.007.01.008M723.86 670.213h.03M717.923 673.312l.01-.012.015.012M717.717 673.67h.007v.005l.016.01M724.547 664.389l.01-.048.017-.047.013-.049.016-.043.027-.037.03-.039.026-.041.03-.023.018-.018.022-.007M723.939 670.079l.608-5.692M724.757 664.037l1.063-.553M723.86 670.213h.016l.01-.017.013-.024.006-.008.01-.007.008-.016.009-.032v-.024l.007-.008M717.923 673.312l5.936-3.099M717.717 673.67l.007-.048.016-.048.016-.048.016-.05.024-.037.033-.041.023-.033.032-.032.017-.016.02-.007M717.452 676.14l.264-2.47M601.486 626.54l-.361-.125" style="fill:none;stroke:#00ff4a;stroke-width:.999997;stroke-linecap:round;stroke-linejoin:round;stroke-miterlimit:4;stroke-dasharray:none;stroke-opacity:1;visibility:visible"/><path d="m601.733 620.678.333.121" style="fill:none;stroke:#00ff4a;stroke-width:1.99999;stroke-linecap:round;stroke-linejoin:round;stroke-miterlimit:4;stroke-dasharray:none;stroke-opacity:1;visibility:visible"/><path d="m603.747 619.597.04-.008.056-.01.056.01.047.008.049.017M604.189 619.655h-.027l-.03.008" style="fill:none;stroke:#00ff4a;stroke-width:.999997;stroke-linecap:round;stroke-linejoin:round;stroke-miterlimit:4;stroke-dasharray:none;stroke-opacity:1;visibility:visible"/><path d="m603.993 619.614.035-.008h.024M603.747 619.597l-.039-.017-.033.009" style="fill:none;stroke:#00ff4a;stroke-width:.999997;stroke-linecap:round;stroke-linejoin:round;stroke-miterlimit:4;stroke-dasharray:none;stroke-opacity:1;visibility:visible"/><path d="M601.866 620.437h-.052l-.05.008-.04.023" style="fill:none;stroke:#00ff4a;stroke-width:1.99999;stroke-linecap:round;stroke-linejoin:round;stroke-miterlimit:4;stroke-dasharray:none;stroke-opacity:1;visibility:visible"/><path d="m601.733 620.678.007-.048.018-.048.014-.048.033-.043.03-.03.033-.026M601.646 620.606l.005.025.016.014.024.017.04.015M601.337 625.406l-.035-.017-.028-.016-.016-.016v-.024" style="fill:none;stroke:#00ff4a;stroke-width:1.99999;stroke-linecap:round;stroke-linejoin:round;stroke-miterlimit:4;stroke-dasharray:none;stroke-opacity:1;visibility:visible"/><path d="m599.993 629.815.05.024.033.03M604.158 619.678l-.01-.016h-.017" style="fill:none;stroke:#00ff4a;stroke-width:.999997;stroke-linecap:round;stroke-linejoin:round;stroke-miterlimit:4;stroke-dasharray:none;stroke-opacity:1;visibility:visible"/><path d="M602.108 620.807h-.024l-.016-.008" style="fill:none;stroke:#00ff4a;stroke-width:1.99999;stroke-linecap:round;stroke-linejoin:round;stroke-miterlimit:4;stroke-dasharray:none;stroke-opacity:1;visibility:visible"/><path d="M601.486 626.54h.007l.009.019M600.108 628.51l-.2 2.39M599.852 627.846l.056.03.056.042.04.056.043.064.03.08.016.087.014.097v.208M600.035 629.406h0" style="fill:none;stroke:#00ff4a;stroke-width:.999997;stroke-linecap:round;stroke-linejoin:round;stroke-miterlimit:4;stroke-dasharray:none;stroke-opacity:1;visibility:visible"/><path d="m603.963 635.878 113.43 40.895M604.219 619.662l122.361 43.432M718.013 677.07l-.528-.152M718.332 677.037l7.552-3.944M718.332 677.037h0l-.045.025-.051.014-.047.009-.052.008-.046-.008h-.047l-.03-.016M726.587 671.893l.899-8.23M726.587 671.893l-.01.097-.015.088-.023.095-.033.097-.031.079-.03.088-.042.083-.04.078-.045.072-.051.071-.047.073-.056.056-.062.071-.074.056-.072.055-.07.041M727.251 663.253l.055.024.05.04.038.04.042.047.023.057.016.055.01.065v.083" style="fill:none;stroke:#00ff4a;stroke-width:1.99999;stroke-linecap:round;stroke-linejoin:round;stroke-miterlimit:4;stroke-dasharray:none;stroke-opacity:1;visibility:visible"/><path d="m725.819 663.485.83-.433" style="fill:none;stroke:#00ff4a;stroke-width:.999997;stroke-linecap:round;stroke-linejoin:round;stroke-miterlimit:4;stroke-dasharray:none;stroke-opacity:1;visibility:visible"/><path d="m726.65 663.052.017-.005h.018l.016-.01h.037l.019.01" style="fill:none;stroke:#00ff4a;stroke-width:1.99999;stroke-linecap:round;stroke-linejoin:round;stroke-miterlimit:4;stroke-dasharray:none;stroke-opacity:1;visibility:visible"/><path d="m717.394 676.692.057-.552M717.485 676.917l-.027-.015-.013-.016-.017-.017-.016-.027-.01-.032-.006-.028v-.09M604.052 619.605l.137.05" style="fill:none;stroke:#00ff4a;stroke-width:.999997;stroke-linecap:round;stroke-linejoin:round;stroke-miterlimit:4;stroke-dasharray:none;stroke-opacity:1;visibility:visible"/><path d="m603.676 619.59.047-.017h.049l.056-.01.04.01h.05l.04.009.046.008.047.016" style="fill:none;stroke:#00ff4a;stroke-width:1.99999;stroke-linecap:round;stroke-linejoin:round;stroke-miterlimit:4;stroke-dasharray:none;stroke-opacity:1;visibility:visible"/><path d="m601.724 620.47.121-.097.132-.088.14-.088.148-.08.154-.079.168-.07.169-.082.181-.064.187-.064.179-.065.181-.056.193-.047" style="fill:none;stroke:#00ff4a;stroke-width:1.99999;stroke-linecap:round;stroke-linejoin:round;stroke-miterlimit:4;stroke-dasharray:none;stroke-opacity:1;visibility:visible"/><path d="M601.646 620.606v-.008h.005v-.035h.011v-.021h.005v-.019h.008v-.014h.01v-.01h.006v-.006h.011v-.008h.007v-.008h.009v-.008h.007" style="fill:none;stroke:#00ff4a;stroke-width:1.99999;stroke-linecap:round;stroke-linejoin:round;stroke-miterlimit:4;stroke-dasharray:none;stroke-opacity:1;visibility:visible"/><path d="m604.189 619.655.016.008" style="fill:none;stroke:#00ff4a;stroke-width:.999997;stroke-linecap:round;stroke-linejoin:round;stroke-miterlimit:4;stroke-dasharray:none;stroke-opacity:1;visibility:visible"/><path d="m602.102 620.812 2.165 2.283M602.066 620.8l2.201 2.295M611.486 629.108l-2.963-4.502M604.205 619.663l4.318 4.943M600.178 629.077l4.252 1.522M600.18 629.076l4.25 1.523" style="fill:none;stroke:#00ff4a;stroke-width:.666665;stroke-linecap:round;stroke-linejoin:round;stroke-miterlimit:4;stroke-dasharray:none;stroke-opacity:1;visibility:visible"/><path d="m717.921 673.31 3.781.04M717.923 673.312l3.779.038M724.756 664.037l1.352 4.159M723.89 670.213l2.218-2.017" style="fill:none;stroke:#00ff4a;stroke-width:.999997;stroke-linecap:round;stroke-linejoin:round;stroke-miterlimit:4;stroke-dasharray:none;stroke-opacity:1;visibility:visible"/><path d="m599.852 627.846 1.485-2.44M600.107 628.51l1.151-3.177M604.43 630.599l-.467 5.279" style="fill:none;stroke:#00ff4a;stroke-width:1.99999;stroke-linecap:round;stroke-linejoin:round;stroke-miterlimit:4;stroke-dasharray:none;stroke-opacity:1;visibility:visible"/><path d="m399.614 715.622 125.036 52.176" style="fill:none;stroke:#9500ff;stroke-width:.999997;stroke-linecap:round;stroke-linejoin:round;stroke-miterlimit:4;stroke-dasharray:none;stroke-opacity:1;visibility:visible"/><path d="m413.77 719.114 113.33 47.188M527.691 766.518l-.513-.239" style="fill:none;stroke:#9500ff;stroke-width:1.99999;stroke-linecap:round;stroke-linejoin:round;stroke-miterlimit:4;stroke-dasharray:none;stroke-opacity:1;visibility:visible"/><path d="m524.901 767.454 2.279-1.175" style="fill:none;stroke:#9500ff;stroke-width:.999997;stroke-linecap:round;stroke-linejoin:round;stroke-miterlimit:4;stroke-dasharray:none;stroke-opacity:1;visibility:visible"/><path d="m531.251 772.614-.064.037-.056.05-.065.073-.054.07-.05.089-.039.088-.033.097-.014.093-.017.091v.087l.008.073.023.07.033.051.039.039.041.021.056.01.056-.01.063-.021.065-.039.057-.05.064-.071.056-.073.046-.087.04-.09.033-.094.017-.097.015-.088v-.09l-.01-.069-.022-.073-.033-.05-.04-.037-.036-.025-.056-.007-.056.007-.067.025M526.587 771.91l-.065.041-.063.054-.056.066-.056.08-.047.079-.04.096-.033.088-.023.096-.01.096v.08l.01.081.023.062.033.056.04.041.038.024.056.008.056-.008.065-.024.063-.041.068-.056.056-.062.056-.081.045-.087.04-.089.033-.096.023-.088.007-.096v-.079l-.007-.08-.023-.066-.026-.054-.036-.041-.05-.025-.056-.006-.057.006-.064.025" style="fill:none;stroke:#9500ff;stroke-width:.666665;stroke-linecap:round;stroke-linejoin:round;stroke-miterlimit:4;stroke-dasharray:none;stroke-opacity:1;visibility:visible"/><path d="m527.18 766.28.048-.017.037-.01.038.019M527.691 766.518l.04-.015h.043l.04.004" style="fill:none;stroke:#9500ff;stroke-width:1.99999;stroke-linecap:round;stroke-linejoin:round;stroke-miterlimit:4;stroke-dasharray:none;stroke-opacity:1;visibility:visible"/><path d="m524.665 767.87.012-.073.023-.071.024-.07.038-.066.042-.055.048-.049.049-.032" style="fill:none;stroke:#9500ff;stroke-width:.999997;stroke-linecap:round;stroke-linejoin:round;stroke-miterlimit:4;stroke-dasharray:none;stroke-opacity:1;visibility:visible"/><path d="m534.108 768.94.039-.016h.042l.04.01M534.613 769.19l.036-.017.044-.01.04.019M534.651 772.766v.063l-.007.056-.024.04-.025.038-.037.026M534.651 772.766l.033-.008.034-.008.016-.016.004-.024M527.18 766.28l-.008-.008-.016.008" style="fill:none;stroke:#9500ff;stroke-width:1.99999;stroke-linecap:round;stroke-linejoin:round;stroke-miterlimit:4;stroke-dasharray:none;stroke-opacity:1;visibility:visible"/><path d="M524.901 767.454h-.027M524.665 767.87l-.016-.007-.005-.01" style="fill:none;stroke:#9500ff;stroke-width:.999997;stroke-linecap:round;stroke-linejoin:round;stroke-miterlimit:4;stroke-dasharray:none;stroke-opacity:1;visibility:visible"/><path d="M534.086 768.94h.023M527.908 768.822l-.29 4.167M526.29 766.725l-1.416.73" style="fill:none;stroke:#9500ff;stroke-width:1.99999;stroke-linecap:round;stroke-linejoin:round;stroke-miterlimit:4;stroke-dasharray:none;stroke-opacity:1;visibility:visible"/><path d="m524.646 767.852.005-.056.016-.045.018-.059.024-.048.022-.047.034-.041.029-.04.036-.03.02-.018.027-.015" style="fill:none;stroke:#9500ff;stroke-width:.999997;stroke-linecap:round;stroke-linejoin:round;stroke-miterlimit:4;stroke-dasharray:none;stroke-opacity:1;visibility:visible"/><path d="m533.219 769.389-5.553 2.89" style="fill:none;stroke:#9500ff;stroke-width:1.99999;stroke-linecap:round;stroke-linejoin:round;stroke-miterlimit:4;stroke-dasharray:none;stroke-opacity:1;visibility:visible"/><path d="m524.646 767.852-.617 8.945" style="fill:none;stroke:#9500ff;stroke-width:.999997;stroke-linecap:round;stroke-linejoin:round;stroke-miterlimit:4;stroke-dasharray:none;stroke-opacity:1;visibility:visible"/><path d="m398.947 723.333.345-7.944M398.947 724.093v-.16l-.01-.15v-.306l.01-.145M399.42 724.885l-.072-.03-.063-.049-.057-.048-.056-.048-.05-.065-.037-.064-.038-.081-.034-.087-.022-.088-.018-.072-.016-.08-.009-.08M399.396 715.19l.141-.112.156-.105.159-.104.17-.103.174-.097.192-.095.192-.088.199-.09.209-.078.208-.072.21-.072.214-.072M401.619 714.1h.03v-.008h.067v.008h.034v.008h.013M399.533 724.934l124.584 52.421M402.147 714.27l6.71 2.8M534.738 772.71h0M527.814 766.507l-.513-.237M534.733 769.18l.055.032.046.041.05.047.033.056.02.056.021.065.006.064v.056M534.733 769.18l-.505-.247M534.964 769.598l-.225 3.112M534.738 772.71l-.007.056-.016.056-.022.048-.034.047-.046.041-.042.03h-.016M528.046 766.934l-.139 1.888M534.557 772.989l-9.033 4.72M527.814 766.507l.052.032.05.05.04.049.034.046.03.067.017.061.009.056v.066M527.158 766.28l.023-.017.033-.01h.045l.028.01h.014M534.086 768.94l.023-.007.022-.009.034-.008h.013l.027.008.016.01M534.086 768.94l-.865.447M524.332 777.566l-.027-.008-.046-.032-.04-.035-.039-.046-.033-.039-.03-.056-.026-.057-.023-.063-.017-.075-.016-.076-.007-.082-.007-.071M408.858 717.07l4.912 2.044" style="fill:none;stroke:#9500ff;stroke-width:1.99999;stroke-linecap:round;stroke-linejoin:round;stroke-miterlimit:4;stroke-dasharray:none;stroke-opacity:1;visibility:visible"/><path d="m534.558 772.989-3.307-.375M527.666 772.278l-1.079-.368" style="fill:none;stroke:#9500ff;stroke-width:.666665;stroke-linecap:round;stroke-linejoin:round;stroke-miterlimit:4;stroke-dasharray:none;stroke-opacity:1;visibility:visible"/><path d="m413.77 719.114-4.912-2.044M526.587 771.91l-1.063 5.799" style="fill:none;stroke:#9500ff;stroke-width:1.99999;stroke-linecap:round;stroke-linejoin:round;stroke-miterlimit:4;stroke-dasharray:none;stroke-opacity:1;visibility:visible"/></svg>