<svg xmlns="http://www.w3.org/2000/svg" baseProfile="full" height="1122.52" preserveAspectRatio="xMinYMin meet" style="width:912px;height:1303px" width="793.701" xml:space="preserve"><path d="m162.969 485.908-.012-.014-.055-.095-.004-.01a.333.333 0 0 1 .196-.431.333.333 0 0 1 .428.197l.004.01-.312.119.259-.214.012.016a.334.334 0 0 1-.516.422" style="fill:none;fill-opacity:1;fill-rule:nonzero;stroke:red;stroke-width:1.33333;visibility:visible"/><path d="m162.953 485.908-.015-.026-.038-.124-.003-.024a.332.332 0 0 1 .295-.368.333.333 0 0 1 .368.294v.024l-.33.036.292-.16.015.027a.333.333 0 0 1-.584.321" style="fill:none;fill-opacity:1;fill-rule:nonzero;stroke:red;stroke-width:1.33333;visibility:visible"/><path d="m162.969 485.983-.012-.015-.064-.124-.004-.014a.333.333 0 1 1 .643-.175l.005.015-.323.088.259-.212.012.014a.334.334 0 0 1-.516.423" style="fill:none;fill-opacity:1;fill-rule:nonzero;stroke:red;stroke-width:1.33333;visibility:visible"/><path d="M544.075 377.371v-1.824M523.105 378.771v-1.82M541.755 375.291l.1.006.09.036.076.054M502.184 380.223v-1.822M520.835 376.743l.098.01.092.03.075.055M472.905 382.309v-1.827M499.964 378.242l.1.004.09.036.076.055M470.585 380.227l.1.01.09.031.076.055" style="fill:none;stroke:red;stroke-width:.999997;stroke-linecap:round;stroke-linejoin:round;stroke-miterlimit:4;stroke-dasharray:none;stroke-opacity:1;visibility:visible"/><path d="m162.994 485.967-.01-.01-.046-.072-.002-.005h-.002l-.037-.091-.004-.018-.004-.015-.004-.02a.333.333 0 0 1 .653-.13l.003.013.003.008-.324.08.286-.17.007.013.013.02.008.018-.298.149.25-.221.01.013a.333.333 0 0 1-.502.438" style="fill:none;fill-opacity:1;fill-rule:nonzero;stroke:red;stroke-width:1.33333;visibility:visible"/><path d="m162.898 485.626.004-.011.064-.105.012-.015a.336.336 0 0 1 .472-.025.333.333 0 0 1 .024.47l-.012.016-.248-.224.312.118-.004.01a.333.333 0 0 1-.43.195.333.333 0 0 1-.193-.43" style="fill:none;fill-opacity:1;fill-rule:nonzero;stroke:red;stroke-width:1.33333;visibility:visible"/><path d="M169.856 566.665v186.94M169.856 490.28v45.052M643.576 367.675l-.77.085-.766.06-16.75 1.166" style="fill:none;stroke:red;stroke-width:.666665;stroke-linecap:round;stroke-linejoin:round;stroke-miterlimit:4;stroke-dasharray:none;stroke-opacity:1;visibility:visible"/><path d="m644.04 367.746-.017-.016-.027-.013-.059-.027-.076-.015-.08-.009h-.094l-.056.004-.055.005M647.36 370.755l77.661 75.01M122.67 419.77l-.013.12-.042.116-.064.104-.089.09-.105.066-.116.044-.12.016-.115-.016-.11-.039-.1-.065-.075-.085-.054-.106-.025-.116v-.117l.025-.121.054-.11.074-.096.102-.08.109-.053.115-.032h.12l.116.025.105.055.09.076.063.095.042.109.013.12M120.59 418.69l.061-.08.094-.105.1-.106.11-.093.031-.02M113.527 409.43l-.016.121-.04.119-.064.104-.085.087-.106.069-.114.04-.122.016-.118-.01-.112-.042-.094-.064-.08-.088-.054-.101-.027-.116v-.119l.027-.121.054-.11.08-.1.094-.074.112-.062.118-.024.122-.005.114.03.106.05.085.081.064.095.04.11.016.114M111.445 408.355l.06-.08.096-.11.099-.1.11-.094.03-.024M122.67 408.8l-.013.12-.042.116-.064.104-.089.085-.105.071-.116.039-.12.02-.115-.015-.11-.04-.1-.064-.075-.085-.054-.104-.025-.116v-.12l.025-.122.054-.109.074-.1.102-.073.109-.056.115-.03h.12l.116.024.105.05.09.08.063.097.042.108.013.12M120.59 407.72l.061-.08.094-.11.1-.1.11-.095.031-.026M126.386 402.01l-19.76 1.37M107.695 404.84l.005.004.006.01M624.845 368.99l-229.866 15.944M127.88 403.455l-20.175 1.4M130.595 406.075l-22.9 1.59M131.47 409.986l-23.775 1.645M137.615 412.861l-29.833 2.063M127.115 415.416l.185-.021.176-.026.154-.029.141-.035.115-.04.084-.049.065-.045.03-.05v-.05l-.03-.056-.055-.044-.089-.047-.11-.044-.135-.036-.156-.033-.175-.02-.185-.02-.195-.01h-.196l-.195.004-.189.011-.181.02-.17.03-.142.035-.127.039-.105.041-.074.05-.045.05-.016.05.016.049.039.05.074.046.103.044.124.041.144.034.165.03.179.02.193.015.195.004.192-.004.196-.004M109.156 417.206l-1.276-1.236M109.156 417.206l.075.055.1.054.13.051.15.05.174.04.192.034.204.03.22.02.224.015" style="fill:none;stroke:red;stroke-width:.666665;stroke-linecap:round;stroke-linejoin:round;stroke-miterlimit:4;stroke-dasharray:none;stroke-opacity:1;visibility:visible"/><path d="m127.396 415.385-.165-.02-.175-.015-.181-.005h-.184l-.18.005-.18.015-.164.02M107.88 415.97l-.025-.01-.024.014-.02.04-.016.061-.01.075-.004.095M108.136 416.221l-.353.024v1.472M107.782 417.717v.088l-.01.08-.017.061-.02.04M145.027 420.015l-37.332 2.59M107.695 423.95l.04.113M107.736 424.064l.02.077.016.088.01.102v.093M140.352 415.505l-29.601 2.05M710.671 452.545l-517.125 35.861M709.666 450.381l-517.227 35.872M107.79 668.935l-.095-.095M80.8 669.59l4.31 4.161M80.8 669.59l-.045-.064-.019-.06.004-.061.041-.06.064-.06M85.716 673.84l5.845-.405M85.716 673.84l-.11.004h-.111l-.104-.01-.096-.014-.079-.02-.064-.019-.04-.029M91.91 673.28l-.095-.09M91.91 673.28l.013.03-.008.025-.03.03-.055.024-.076.022-.09.013-.105.01M91.816 670.171l15.63-1.08M107.79 668.935l.016.027-.007.029-.033.024-.056.027-.075.018-.092.02-.098.011M107.861 669.085h0M91.98 673.43h0M85.761 674.97l-.025-1.035M80.766 669.355h0M80.656 669.536l.01.045.023.044.042.046M107.255 670.725h0M91.37 675.07h0M85.75 675.505l.005-.015v-.096l.006-.084v-.34M91.91 673.28l.03.005.02.015M85.736 673.935l-.005-.03v-.025l-.011-.025-.004-.015" style="fill:none;stroke:red;stroke-width:.666665;stroke-linecap:round;stroke-linejoin:round;stroke-miterlimit:4;stroke-dasharray:none;stroke-opacity:1;visibility:visible"/><path d="M80.73 669.67v-.03l.02-.025.021-.02.028-.005M107.79 668.935h.03l.025.016M85.75 675.505h0M92 673.39h0M107.886 669.04v.005M80.656 669.536l.004-.01" style="fill:none;stroke:red;stroke-width:.666665;stroke-linecap:round;stroke-linejoin:round;stroke-miterlimit:4;stroke-dasharray:none;stroke-opacity:1;visibility:visible"/><path d="m431.032 434.63 33.487 32.344M402.102 385.025l83.253 80.417M431.38 382.947l83.714 80.858M452.3 381.495l83.716 80.86M473.272 380.091l83.665 80.814M502.55 378.01l83.716 80.86M523.47 376.56l83.716 80.86M544.44 375.156l83.666 80.813M573.719 373.077l83.717 80.858M594.64 371.625l83.716 80.861M615.61 370.221l83.666 80.814" style="fill:none;stroke:red;stroke-width:.999997;stroke-linecap:round;stroke-linejoin:round;stroke-miterlimit:4;stroke-dasharray:none;stroke-opacity:1;visibility:visible"/><path d="m101.681 418.655-.1.04-.1.045M102.84 420.045l-.01-.004M102.845 420.06l-.005-.015M100.125 411.135l-.01.24.01.241.041.234.064.225.091.22.113.2.136.19.16.17M101.685 409.145l-.224.096-.21.113-.2.136-.186.155-.17.176-.15.188-.13.201-.109.214-.086.225M101.486 411.206l.34.75M101.986 410.49l-.5.716M102.826 410.525l-.84-.033M171.17 489.805l-.239.02-.22.019-.205.025-.195.025-.216.036-.238.04M171.17 489.805l22.092-1.53M174.826 486.99l16.75-1.159" style="fill:none;stroke:red;stroke-width:.666665;stroke-linecap:round;stroke-linejoin:round;stroke-miterlimit:4;stroke-dasharray:none;stroke-opacity:1;visibility:visible"/><path d="M162.893 485.698v-.311a.334.334 0 0 1 .667 0v.31a.334.334 0 0 1-.667.001" style="fill:none;fill-opacity:1;fill-rule:nonzero;stroke:red;stroke-width:1.33333;visibility:visible"/><path d="m167.258 489.814-.048-.072-.052-.063-.05-.061-.051-.06-.048-.049-.057-.058-3.956-3.824a.333.333 0 1 1 .462-.479l3.958 3.824.004.004.065.066.008.008.056.06.008.008.056.064.007.008.054.066.062.075.018.025.058.086a.334.334 0 1 1-.554.372" style="fill:none;fill-opacity:1;fill-rule:nonzero;stroke:red;stroke-width:1.33333;visibility:visible"/><path d="m88.906 406.162.028-.01.031-.011.035-.005.04-.005h.091M88.852 406.227h0M82.32 404.792l.345-.054.35-.05.345-.041.35-.027M80.845 406.058l.007.044.018.041.036.039M80.845 405.852v.028l.025.034.036.034M80.934 405.72h0M85.685 410.418v-.31M80.906 405.948l.064.04.062.039.054.034.05.047.06.05.064.06M81.261 406.216l3.959 3.826M91.51 408.788l-.57-.06-.57-.04-.578-.015-.578.014-.574.036-.58.065-.575.092-.575.11-.566.138-.564.165M85.056 405.011l.564.161.565.17.56.18.565.19.56.204.553.211.557.219M83.71 404.617l.22.013.22.037.224.055.227.076.23.1.224.112M83.71 404.618l22.095-1.53M89.13 406.396v-.265M89.13 406.132l.771-.024.765-.046M90.666 406.062l16.751-1.164M85.54 405.048h0M88.782 406.158h0M724.884 447.754l.01.08.028.08.048.062M172.589 486.988h0l.005.006h.007M169.856 490.208v.03l-.004.02-.012.01M193.544 488.182l-.012.026-.043.023-.059.021-.076.015-.093.01M191.576 485.834h.049l.044.002M191.57 485.834h.004M174.82 486.992h.006M173.3 487.062h.01l.006.004M173.285 487.066h0M172.625 487.01h0M169.516 484.138l.069.014.065.03.055.046M169.494 484.127h.01l.013.01M163.76 484.628h.01l.014.01M163.21 485.362l.004.014.012.01M174.826 486.992l-.75.046-.759.028M169.856 489.97l-.182.027-.184.014-.184.009h-.37l-.176-.008-.174-.016-.166-.025-.154-.024-.146-.03-.134-.041-.121-.04-.105-.05-.091-.049-.073-.056-.06-.054M89.17 406.436l2.53 2.446M91.7 408.882h.005v.005h.005v.005h.004v.006l.006.004h.006v.005l.004.005v.004h.004v.006h.004v.004l.006.006v.004h.005v.006l.005.006v.004h.006v.006l.005.005v.004h.005v.01l.006.003v.007h.004v.01h.004v.011l.005.003v.01h.004v.018h.007v.011l.005.008v.014l.005.006v.024l.004.004v.046M91.816 409.407v-.255M80.845 405.852v-.005M85.67 410.476l.003-.009.008-.02.004-.03M105.852 403.087h-.046M107.34 404.468l.094.004.087.026.073.05.051.072M107.696 404.807l-.01.025-.041.02-.059.02-.074.014-.095.011M89.17 406.436l-.057-.04-.063-.034-.07-.015M91.51 408.788l.07.02.065.03.055.045M85.685 410.108l-.099.004-.1-.004-.09-.01-.08-.015-.06-.021-.036-.019M105.794 403.087h.012M83.696 404.618h0M83.71 404.618h-.01M82.32 404.792h-.015" style="fill:none;stroke:red;stroke-width:.666665;stroke-linecap:round;stroke-linejoin:round;stroke-miterlimit:4;stroke-dasharray:none;stroke-opacity:1;visibility:visible"/><path d="m85.782 409.291-.136.056-.118.075-.108.1-.083.114-.065.127-.036.139-.016.14M653.721 634.343l-.027-.016-.024-.004M647.493 634.98l-.003-.028v-.03l-.009-.026-.008-.009M653.129 636.117h0M623.342 633.188l-.089-.1-.07-.12-.044-.125-.017-.135M625.356 634.836l.002-.016v-.033l.007-.062v-.417M623.078 631.653l-.014-.016-.006-.017M623.124 632.708l-.015-.016-.004-.015M625.365 634.308l-.025-1.036M623.124 632.708l-.044-1.055M653.74 634.476h0M623.244 631.456l-.066.024-.033.032-.01.03.015.029M653.574 634.23l.096.094M653.318 634.48l.104-.009.091-.017.076-.022.055-.024.028-.028.012-.029-.015-.027M653.318 634.481l-5.845.406M643.928 631.957l-.034-.021-.054-.013-.071-.01-.081-.006h-.083M624.716 633.087l.044.026.06.024.08.02.093.01.107.009.11.004.11-.004M624.716 633.087l-1.566-1.515M647.444 477.492v157.364M625.288 479.032v154.115M644.038 477.73v154.219M111.445 419.327l.06-.08.096-.11.099-.101.11-.093.03-.021M113.526 420.408l-.016.118-.04.116-.064.105-.085.09-.105.064-.116.047-.12.015-.12-.015-.11-.04-.094-.067-.08-.085-.056-.105-.026-.115v-.118l.027-.12.055-.11.08-.097.093-.079.112-.055.119-.031h.12l.116.026.104.055.086.075.064.094.04.111.016.121M85.67 410.476l.014-.005M88.782 406.027l.08.09.08.087.074.079.08.08.074.075M193.544 751.76l.09.097M722.74 445.827l.02.055.018.054M722.314 445.492l.019-.021.023-.019M724.765 447.858l.02-.02.019-.015M652.77 378.238l.018.06.022.055M652.349 377.909l.016-.02.019-.02M623.06 631.617h0M653.758 634.432v.004M647.51 636.548h0M644.17 633.617l-.08-.076M625.356 634.836h0M623.15 631.572l-.033.01-.019.014-.02.025v.032" style="fill:none;stroke:red;stroke-width:.666665;stroke-linecap:round;stroke-linejoin:round;stroke-miterlimit:4;stroke-dasharray:none;stroke-opacity:1;visibility:visible"/><path d="m625.318 633.176.01.01.004.026.006.031v.027" style="fill:none;stroke:red;stroke-width:.666665;stroke-linecap:round;stroke-linejoin:round;stroke-miterlimit:4;stroke-dasharray:none;stroke-opacity:1;visibility:visible"/><path d="m163.357 749.286-.04.02-.021.014-.186-.278.32.102-.011.029-.319-.101.282-.18.019.031a.334.334 0 0 1-.563.358l-.018-.031-.036-.28.009-.027.132-.178.04-.027.039-.021.06-.03a.334.334 0 1 1 .293.601" style="fill:none;fill-opacity:1;fill-rule:nonzero;stroke:red;stroke-width:1.33333;visibility:visible"/><path d="m167.2 753.506-4.311-4.165a.334.334 0 1 1 .463-.481l4.31 4.166a.333.333 0 1 1-.462.48" style="fill:none;fill-opacity:1;fill-rule:nonzero;stroke:red;stroke-width:1.33333;visibility:visible"/><path d="m163.089 750.237-.01-.015-.009-.014M193.706 752.006h0M169.93 754.76l-.025-1.034M193.29 752.01l.1-.01.09-.02.077-.02.055-.023.034-.025.01-.032-.02-.024M193.29 752.01l-23.405 1.622M167.43 753.268l.075.06.105.054.128.055.152.043.175.048.195.038.209.032.225.024.23.015.24.01.241.008.245-.007.235-.015" style="fill:none;stroke:red;stroke-width:.666665;stroke-linecap:round;stroke-linejoin:round;stroke-miterlimit:4;stroke-dasharray:none;stroke-opacity:1;visibility:visible"/><path d="m162.786 749.393-.012-.015-.064-.125-.005-.02a.333.333 0 0 1 .644-.173l.005.02-.322.088.258-.212.012.014a.334.334 0 0 1-.516.423" style="fill:none;fill-opacity:1;fill-rule:nonzero;stroke:red;stroke-width:1.33333;visibility:visible"/><path d="m163.31 750.717-.09-.099-.064-.121-.044-.125-.023-.135M169.93 754.76l-.006.13-.008.116-.016.099-.02.08-.03.065-.03.036-.03.015M193.1 753.646h0" style="fill:none;stroke:red;stroke-width:.666665;stroke-linecap:round;stroke-linejoin:round;stroke-miterlimit:4;stroke-dasharray:none;stroke-opacity:1;visibility:visible"/><path d="m162.716 749.12.004-.027.05-.127.019-.024.103-.098.022-.015.054-.027.03-.012a.333.333 0 1 1 .243.62l-.031.014-.122-.311.176.284-.026.015-.173-.284.277.185-.016.023-.276-.184.327.06-.005.028a.333.333 0 1 1-.656-.12" style="fill:none;fill-opacity:1;fill-rule:nonzero;stroke:red;stroke-width:1.33333;visibility:visible"/><path d="M193.636 751.857h.03l.024.015M169.906 753.726v-.03l-.005-.023-.005-.027-.011-.014" style="fill:none;stroke:red;stroke-width:.666665;stroke-linecap:round;stroke-linejoin:round;stroke-miterlimit:4;stroke-dasharray:none;stroke-opacity:1;visibility:visible"/><path d="m163.026 748.813.236.097.098.236-.098.236-.236.098-.236-.098-.097-.236.097-.236.236-.097" style="fill:none;fill-opacity:1;fill-rule:nonzero;stroke:red;stroke-width:1.33333;visibility:visible"/><path d="m731.009 445.303.13.035.119.06.1.08M734.971 449.128l.129.035.12.059.1.08M728.244 448.388l-.22-.17-.219-.18M734.537 450.812l.183-.005.163-.005.165-.015.155-.021.14-.03.13-.029.116-.035.098-.041.087-.04.07-.05.049-.048.029-.051.016-.042.005-.033M734.404 449.022h0M734.794 449.092h0M725.274 445.592l.57-.138.574-.122.575-.089.576-.07.58-.039.573-.022.576.012.575.034.57.06.565.085M734.971 449.128l-.534-.102-.537-.078-.54-.061-.54-.036-.542-.019-.546.004M727.804 448.038l-2.528-2.446M731.731 448.836l-.794-.045-.798-.035-.789-.02-.796-.01h-.79l-.782.01-.782.02-16.75 1.16M710.982 451.507l-.15-.27-.154-.249-.153-.221-.152-.193-.153-.178-.156-.144-.155-.125-.156-.095-.155-.07-.15-.044M733.23 450.827l-22.097 1.535v.31M733.23 450.827l.235-.01.218-.011.207-.004h.409l.237.01M709.098 450.362v-.039M733.498 448.902h0M734.754 450.807h0M732.638 448.842h0M193.73 751.96v.007M736.038 713.857l-.023-.015-.032-.005M711.198 717.756l.006-.016v-.034l.004-.06v-.42M709.189 716.108l-.09-.1-.069-.122-.046-.124-.014-.134M708.949 715.597l.005.015.016.014M708.905 714.536l.005.02.014.017M711.209 717.226l-.024-1.034M735.482 714.436h0M736.043 714.197h0M708.993 714.492l-.013-.032.009-.029.036-.028.064-.026M735.983 713.836l-.04-.039M735.982 713.836l.052.06.019.064-.01.061-.04.064-.065.06-.095.056-.123.056-.147.05-.164.046-.19.037-.205.035-.216.027-.23.018M711.162 716.096l23.408-1.626M711.162 716.096l-.11.004-.107-.004-.105-.01-.096-.01-.082-.019-.057-.025-.041-.026M708.993 714.492l1.57 1.514M726.189 448.756l-.469.031M735.945 450.362v.005M711.134 452.672l-.004.026-.006.02-.006.009M709.449 449.916l-.093.02-.086.044-.076.067-.054.08-.031.095-.01.101M709.098 450.323l-.004-.015-.004-.012M709.438 449.916h.01M726.189 448.756h.01M727.709 448.612l.011.006h.004M727.694 448.622h0M725.274 445.592l-.09.04-.086.066-.061.078-.04.095-.015.101M724.982 445.971l-.01-.01-.002-.013M725.249 445.582h.01l.018.008M730.982 445.287l.016.004.01.01" style="fill:none;stroke:red;stroke-width:.666665;stroke-linecap:round;stroke-linejoin:round;stroke-miterlimit:4;stroke-dasharray:none;stroke-opacity:1;visibility:visible"/><path d="m711.134 452.362-.004-.146-.011-.14-.014-.14-.025-.134-.031-.116-.029-.1-.036-.08M623.33 367.549l.011-.091.032-.09.055-.074.07-.061.084-.044.091-.015M625.288 368.989l-.003-.106-.01-.1-.015-.096-.027-.08-.023-.054M653.014 370.409l.02-.099.01-.093v-.09l-.007-.08-.012-.054-.021-.04M653.333 370.743l.08-.01.068-.015.047-.02.036-.025.01-.02M653.574 370.963v.004l-.004.006M623.67 367.173h.001M645.77 365.638h-.005M647.162 365.622h0-.002M648.654 365.842l.116.03.108.049M649.038 366.127l.136.035.114.061.108.087" style="fill:none;stroke:red;stroke-width:.666665;stroke-linecap:round;stroke-linejoin:round;stroke-miterlimit:4;stroke-dasharray:none;stroke-opacity:1;visibility:visible"/><path d="m653.004 369.953.13.034.116.06.106.086M649.038 366.127l-.093-.084-.095-.076-.1-.065-.096-.06M647.162 365.622l-.348-.01h-.346l-.35.007-.348.018M648.654 365.842l-.056-.025-.078-.027-.096-.024-.11-.019-.109-.02-.125-.02-.13-.021-.137-.013-.151-.016-.152-.015-.177-.01-.17-.009M652.938 370.397l.043.003.033.009M653.014 370.409l.08.024.076.044.06.065.04.076.018.084M623.673 367.173l.15.017.159.053.148.074.155.1.153.126.155.155.157.172.154.203.156.229.15.25M91.816 436.587v233.56M85.685 410.492v263.324M80.845 406.132l.007.042.018.044.036.041M100.72 412.846l-.16-.17-.136-.189-.114-.205-.09-.216-.064-.23-.042-.23-.013-.239M711.134 452.743v263.323M736.129 714.046v.004M708.905 714.536h0M711.198 717.756h0M711.185 716.192v-.03l-.007-.03-.005-.024-.01-.012M708.993 714.492l-.028.01-.021.014-.016.024-.006.033" style="fill:none;stroke:red;stroke-width:.666665;stroke-linecap:round;stroke-linejoin:round;stroke-miterlimit:4;stroke-dasharray:none;stroke-opacity:1;visibility:visible"/><path d="m404.33 436.488 33.46 32.316" style="fill:none;stroke:red;stroke-width:.999997;stroke-linecap:round;stroke-linejoin:round;stroke-miterlimit:4;stroke-dasharray:none;stroke-opacity:1;visibility:visible"/><path d="m107.696 668.812.15.138M80.661 669.526l.005-.05.02-.056.034-.049.046-.05.064-.044.015-.01M107.845 668.952l.01.014.011.012.004.014.01.016.005.02v.014M91.816 673.162l.144.14M91.96 673.302l.01.01.01.016.008.014.005.015.005.02v.015M85.75 675.506l-.104-.004-.105-.016-.1-.034-.09-.056-.049-.034-.046-.036M80.981 671.19l4.275 4.136M85.75 675.506l5.506-.384M80.981 671.19l-.08-.085-.07-.095-.053-.104-.038-.1-.024-.106-.01-.099M91.956 674.436l-.016.11-.03.111-.049.099-.061.096-.08.08-.09.07-.098.054-.112.04-.08.017-.08.01M91.816 671.836l15.324-1.059M107.835 670.086l-.009.115-.036.107-.045.104-.064.09-.08.08-.085.071-.106.053-.104.042-.086.018-.075.011M107.836 670.086l.05-1.038M91.956 674.436 92 673.39M80.706 670.597l-.049-1.06M85.254 675.326h0M80.656 669.537h0M710.525 473.118l-516.981 35.854M709.074 450.356h.006M710.669 472.551l-.007.13-.01.126-.013.105-.022.086-.028.062-.03.042-.035.014M148.466 423.342l-39.389 2.734M126.386 402.011l-19.76 1.37M623.398 367.542l-229.923 15.945M623.398 367.542h.012l.002.005M120.986 407.311l.086-.059.118-.076.127-.07.13-.056.133-.043.141-.04.135-.025.14-.01.14-.007.141.011.135.02.128.031.131.039.122.056.124.06.116.07.108.083.099.087.092.098.085.107.07.116.063.113.056.126.046.13.033.13.027.174.008.175M123.72 408.552l-.004.14-.022.14-.024.136-.04.14-.049.129-.06.131-.065.126-.082.118-.089.115-.095.11-.1.101-.113.09-.116.084-.125.071-.126.064-.13.056-.135.044-.14.03-.14.026-.135.011h-.14l-.14-.012-.134-.024-.131-.035-.13-.045-.125-.05-.114-.066-.116-.074-.106-.085-.1-.09-.084-.101-.084-.109-.07-.116-.06-.119-.056-.125-.04-.13-.028-.131-.023-.138-.01-.136.007-.14.015-.141.024-.137.036-.136.044-.136.053-.13.072-.125.075-.125.024-.036M111.84 407.948l.084-.06.12-.081.13-.065.132-.055.134-.05.136-.033.14-.026.136-.012.137-.004.141.01.136.02.135.03.13.041.126.05.12.062.113.071.104.08.1.09.091.102.087.105.073.11.065.119.055.125.04.131.035.129.025.173.01.177M114.576 409.188l-.004.14-.016.14-.03.136-.036.136-.05.132-.06.131-.069.125-.081.12-.085.115-.095.11-.105.093-.11.097-.119.081-.12.074-.13.065-.131.055-.133.044-.141.03-.136.028-.14.01h-.139l-.134-.015-.136-.023-.136-.032-.128-.046-.122-.055-.12-.065-.114-.07-.104-.084-.096-.097-.09-.1-.081-.105-.075-.114-.06-.12-.049-.126-.04-.128-.036-.138-.013-.132-.01-.137v-.139l.014-.14.024-.141.034-.135.046-.136.062-.129.063-.13.075-.119.025-.037M120.986 418.287l.086-.064.118-.076.127-.065.13-.06.133-.046.141-.034.135-.026.14-.016h.14l.141.007.135.019.128.03.131.046.122.05.124.059.116.076.108.08.099.09.092.094.085.111.07.11.063.12.056.123.046.127.033.134.027.17.008.176M123.72 419.522l-.004.14-.022.14-.024.14-.04.136-.049.134-.06.131-.065.124-.082.12-.089.115-.095.105-.1.1-.113.09-.116.086-.125.075-.126.064-.13.05-.135.045-.14.035-.14.02-.135.009h-.14l-.14-.009-.134-.026-.131-.029-.13-.045-.125-.056-.114-.064-.116-.074-.106-.086-.1-.09-.084-.1-.084-.104-.07-.116-.06-.12-.056-.124-.04-.13-.028-.136-.023-.136-.01-.138.007-.14.015-.14.024-.136.036-.139.044-.137.053-.128.072-.126.075-.12.024-.041" style="fill:none;stroke:red;stroke-width:.666665;stroke-linecap:round;stroke-linejoin:round;stroke-miterlimit:4;stroke-dasharray:none;stroke-opacity:1;visibility:visible"/><path d="m613.19 370.453 83.603 80.754M594.276 373.837v-1.82M612.928 370.357l.097.005.09.035.072.056M592.27 371.902l83.61 80.756M573.356 375.287v-1.82M592.01 371.807l.094.004.089.035.077.056M571.399 373.397l83.558 80.715M571.14 373.307l.093.004.092.03.075.057M542.02 375.387l83.604 80.756M521.1 376.837l83.604 80.76M500.23 378.338l83.554 80.71M470.85 380.323l83.606 80.759M451.934 383.709v-1.82M449.93 381.771l83.603 80.76M449.666 381.677l.1.009.089.032.075.052M429.06 383.271l83.555 80.71M399.415 385.163l.095.01.09.029.08.053 83.444 80.605" style="fill:none;stroke:red;stroke-width:.999997;stroke-linecap:round;stroke-linejoin:round;stroke-miterlimit:4;stroke-dasharray:none;stroke-opacity:1;visibility:visible"/><path d="m642.31 368.371.093.006.091.032.074.053" style="fill:none;stroke:red;stroke-width:.666665;stroke-linecap:round;stroke-linejoin:round;stroke-miterlimit:4;stroke-dasharray:none;stroke-opacity:1;visibility:visible"/><path d="m642.57 368.462 82.861 80.038M615.244 372.433v-1.82" style="fill:none;stroke:red;stroke-width:.999997;stroke-linecap:round;stroke-linejoin:round;stroke-miterlimit:4;stroke-dasharray:none;stroke-opacity:1;visibility:visible"/><path d="m100.73 412.856.126.115.133.101.147.091.154.073.155.066.167.05.17.04.168.023.175.011.175-.004.177-.022.173-.029.175-.044.165-.06.166-.076.16-.085.154-.096.146-.109.134-.121.13-.128.114-.136.111-.149.096-.156.084-.16.07-.165.055-.168.046-.176.03-.175.014-.176.005-.175-.015-.174-.025-.176-.04-.164-.05-.166-.07-.16-.077-.15-.103-.156-.11-.149-.129-.131M100.72 412.846l.01.01M103.874 409.578l.011.014M103.874 409.578l-.16-.136-.17-.118-.184-.106-.195-.08-.205-.059-.21-.047-.217-.014M102.534 409.016h-.214l-.215.027-.215.039-.206.065M104.32 421.482l.034-.084.056-.17.044-.176.031-.172.013-.177.006-.176-.016-.173-.024-.176-.04-.17-.05-.16-.069-.161-.079-.15-.102-.159-.11-.146-.13-.134M103.874 419.088l.011.009M103.874 419.087l-.174-.15-.19-.131-.205-.104-.22-.08-.224-.06-.236-.03-.24-.01-.235.02-.24.045-.23.07" style="fill:none;stroke:red;stroke-width:.666665;stroke-linecap:round;stroke-linejoin:round;stroke-miterlimit:4;stroke-dasharray:none;stroke-opacity:1;visibility:visible"/><path d="M163.544 485.362v.308a.334.334 0 0 1-.667 0v-.31a.334.334 0 0 1 .667.002" style="fill:none;fill-opacity:1;fill-rule:nonzero;stroke:red;stroke-width:1.33333;visibility:visible"/><path d="m722.829 445.912.016.044.02.06M722.314 445.492l.026-.025.016-.015M724.765 447.858l.023-.024.016-.011M652.858 378.327l.015.044.021.062M652.349 377.909l.02-.026.015-.013M91.616 409.298l.064.02.065.03.056.039M85.89 430.863l-.09-.1-.064-.121-.04-.135-.01-.136v-20.008M623.06 631.617v-.026l.01-.026.01-.024.013-.014.025-.02.032-.02.054-.02.04-.015M653.72 634.342l-.146-.139M653.721 634.343l.01.009.009.016.009.012.005.017.006.02v.015M653.716 635.476l-.016.114-.03.107-.052.104-.064.09-.073.081-.092.068-.101.056-.11.04-.078.021-.08.01M653.014 636.167l-5.504.38M647.51 636.548h-.107l-.105-.02-.1-.035-.09-.05-.048-.034-.046-.041M647.014 636.367l-2.844-2.75M623.342 633.188l-.064-.064-.048-.072-.046-.073-.035-.08-.027-.082-.014-.077-.003-.063M644.17 633.617h-.009l-.028-.012-.041-.002-.048-.013-.064-.003-.068-.011-.083-.004h-.179l-.097.004h-.043M624.858 634.657l-1.516-1.47M643.51 633.576l-18.157 1.26M625.356 634.836h-.107l-.104-.02-.1-.036-.09-.049-.051-.034-.046-.041M623.105 632.676l-.045-1.059M653.716 635.476l.044-1.04M647.014 636.367h0M624.858 634.657h0M623.06 631.617h0M653.574 477.066v157.29M623.244 479.172v152.364M644.038 631.948l-.038-.023-.06-.018-.074-.015-.096-.01-.096-.006-.1.005M647.444 634.857l-.102.006-.098-.006-.09-.01-.08-.015-.06-.019-.033-.025M623.254 631.561l-.004-.01-.006-.014M643.574 631.881l-18.286 1.266M646.981 634.788l-2.944-2.839M111.84 418.922l.084-.066.12-.074.13-.07.132-.056.134-.044.136-.036.14-.025.136-.015.137-.004.141.01.136.02.135.03.13.039.126.054.12.062.113.075.104.078.1.092.091.095.087.104.073.116.065.119.055.121.04.13.035.133.025.171.01.176M114.576 420.158l-.004.138-.016.14-.03.14-.036.136-.05.13-.06.13-.069.13-.081.12-.085.11-.095.11-.105.1-.11.09-.119.086-.12.074-.13.06-.131.055-.133.045-.141.035-.136.02-.14.01h-.139l-.134-.011-.136-.026-.136-.032-.128-.04-.122-.057-.12-.064-.114-.075-.104-.085-.096-.09-.09-.099-.081-.112-.075-.114-.06-.12-.049-.125-.04-.13-.036-.131-.013-.14-.01-.134v-.14l.014-.141.024-.135.034-.138.046-.136.062-.13.063-.125.075-.125.025-.035M105.852 403.087h-.058M107.645 404.617l-.105-.174-.106-.167-.104-.154-.11-.146-.11-.14-.116-.124-.114-.116-.115-.104-.12-.096-.124-.085-.125-.068-.13-.061-.138-.05-.138-.031-.14-.014M107.645 404.618h.005v.01h.006v.002l.004.006v.011h.005v.01h.005v.009l.003.006v.01h.007v.016l.004.004v.014l.005.006v.02l.005.005v.06M107.696 404.807v.765M80.845 405.846l.007-.083.013-.09.02-.087.035-.079.04-.076.045-.064.056-.065.055-.059.058-.052.098-.063.093-.056.112-.05.113-.044.126-.048.13-.032.142-.035.158-.036.16-.036M80.845 405.852v.206M80.845 405.852h0M730.422 445.208l-77.332-74.705M653.089 370.503l-.085-.066-.092-.055-.099-.039-.11-.02M193.544 488.492v-.31M193.544 488.182l-.004-.064v-.06l-.006-.066-.008-.06-.01-.064-.011-.061-.016-.053-.012-.064-.027-.054-.026-.064M193.425 487.572l-.105-.185-.104-.177-.104-.167-.106-.156-.11-.15-.109-.134-.111-.133-.116-.114-.12-.11-.12-.093-.12-.091-.124-.075-.13-.061-.134-.048-.142-.042M191.57 485.834h.075v.002h.024M172.6 486.992h.006l.019.01.025.005.034.01.046.008.055.013.07.005.079.007.08.008.096.004h.19M172.236 486.672l.074.07.075.071.08.069.075.06.06.051M172.236 486.672l-2.53-2.445M169.494 484.127h.027v.003h.019v.006h.016l.004.007h.01l.006.004h.009v.005h.01l.005.006h.005l.005.004h.004l.006.005h.005l.005.005h.004v.004h.01v.006h.006l.006.005.004.005h.005v.006h.004l.005.004h.007v.006h.004v.003h.004v.005h.005l.006.007.005.004M169.494 484.127l-.38-.05-.384-.031-.378-.024-.387-.012h-.385l-.386.01-.384.024-.386.032-.384.047-.384.053-.38.07-.386.081-.38.086-.376.099-.373.115M163.76 484.628l-.095.035-.085.045-.082.056-.07.07-.063.069-.056.085-.039.086-.032.094-.02.095-.01.1" style="fill:none;stroke:red;stroke-width:.666665;stroke-linecap:round;stroke-linejoin:round;stroke-miterlimit:4;stroke-dasharray:none;stroke-opacity:1;visibility:visible"/><path d="m163.026 748.813.236.097.098.236-.098.236-.236.098-.236-.098-.097-.236.097-.236.236-.097" style="fill:none;fill-opacity:1;fill-rule:nonzero;stroke:red;stroke-width:1.33333;visibility:visible"/><path d="m162.737 750.22-.044-1.06a.334.334 0 0 1 .667-.028l.042 1.06a.333.333 0 1 1-.665.03" style="fill:none;fill-opacity:1;fill-rule:nonzero;stroke:red;stroke-width:1.33333;visibility:visible"/><path d="m163.31 750.717-.06-.064-.054-.07-.046-.078-.03-.073-.026-.08-.013-.083-.011-.061M169.79 755.302l-.138.01-.147.005h-.285l-.14-.01-.134-.006-.136-.013-.13-.016-.123-.02-.127-.02-.12-.03-.114-.03-.13-.039-.121-.051-.12-.06-.115-.07-.058-.05-.062-.05-4.28-4.135M192.986 753.697l-23.194 1.605M193.679 753.01l-.01.11-.035.107-.044.105-.065.088-.076.082-.09.07-.104.054-.105.042-.085.017-.077.012M193.68 753.01l.049-1.044" style="fill:none;stroke:red;stroke-width:.666665;stroke-linecap:round;stroke-linejoin:round;stroke-miterlimit:4;stroke-dasharray:none;stroke-opacity:1;visibility:visible"/><path d="m162.7 749.074.003-.004v-.008l.087-.192.015-.017.245.225-.274-.188.014-.02.062-.07.024-.02-.002.002.026-.021.12-.065.03-.008.007-.004a.333.333 0 0 1 .307.592l-.036.018-.062.024-.06.018-.092-.32.216.254-.026.022h-.002l-.024.021-.213-.255.275.189-.015.019-.03.04-.015.016-.246-.226.332.033-.002.027-.007.04-.005.024a.334.334 0 0 1-.652-.146" style="fill:none;fill-opacity:1;fill-rule:nonzero;stroke:red;stroke-width:1.33333;visibility:visible"/><path d="m193.532 488.536.008.015.004.009M193.544 751.886l-.012.027-.043.023-.059.02-.076.014-.093.01M193.69 751.87l.01.016.013.01.003.016.012.013.002.023v.012M193.69 751.87l-.145-.14" style="fill:none;stroke:red;stroke-width:.666665;stroke-linecap:round;stroke-linejoin:round;stroke-miterlimit:4;stroke-dasharray:none;stroke-opacity:1;visibility:visible"/><path d="m162.969 749.308-.012-.015-.065-.13-.004-.018a.333.333 0 1 1 .646-.16l.004.015-.324.082.259-.212.012.015a.334.334 0 0 1-.516.423" style="fill:none;fill-opacity:1;fill-rule:nonzero;stroke:red;stroke-width:1.33333;visibility:visible"/><path d="M653.574 370.963v.01M623.27 367.554l.024-.076.031-.07.055-.082.05-.057.06-.042.08-.034.048-.015.052-.004M653.356 370.133l.08.085.058.1.044.107.027.113.01.115M653.574 370.651v.312M645.765 365.638l-22.095 1.536M645.765 365.638l.279-.015.28-.01.281-.006.273.006.282.01M647.16 365.622l.105.005.077.006.08.004.142.01.14.015.138.01.139.021.124.013.125.021.12.027.114.023.111.025.097.032.102.036.104.051M648.878 365.922l.112.058.103.078.105.072.1.087.096.092M649.394 366.309l3.962 3.824M107.696 451.932v217.034M107.696 405.642v19.106M91.816 670.146v3.171M80.845 406.132v263.325M107.696 405.642v-.01l-.01-.014M107.416 669.061l.094-.01.075-.013.06-.022.04-.024.01-.026M91.534 673.412l.09-.01.081-.016.06-.02.035-.025.014-.024M80.845 406.096v.035M80.845 669.456l.007.04.018.044.036.041M709.089 473.218v241.239M724.972 445.942v2.116M735.945 450.647V713.97M733.629 448.916h0M709.089 714.456l.005.014.004.011M735.945 450.647v-.016l-.006-.019M736.038 713.857l.032.035.025.034.02.042.008.044.007.036M708.905 714.536v-.026l.008-.024.01-.02.017-.02.026-.021.028-.017.056-.022.04-.016M735.945 713.761l.093.095M736.083 715.105l-.009.092-.024.093-.03.095-.04.085-.051.082-.055.074-.064.064-.07.062-.07.053-.09.056-.098.05-.097.046-.17.053-.185.05-.2.036-.14.02-.145.02-.146.009M711.198 717.756l23.2-1.611M711.198 717.756h-.104l-.104-.02-.101-.034-.09-.05-.052-.035-.043-.041M709.189 716.108l1.516 1.469M708.949 715.597l-.045-1.06M736.083 715.096l.047-1.046M710.705 717.576h0M708.905 714.536h0M736.083 715.096h0M709.089 450.298v.058M731.358 445.476l-.064-.054-.07-.046-.076-.04-.079-.029-.087-.02M735.758 449.823l.05.075.047.08.032.089.031.09.015.107.01.099M735.318 449.303l.093.095.091.1.092.1.083.11.081.115M735.318 449.303l-3.961-3.825M735.945 450.367v.207M163.21 485.743v38.924M163.21 556.999v192.066M193.544 488.562v78.77M193.544 605.668v146.22M168.1 489.912h0" style="fill:none;stroke:red;stroke-width:.666665;stroke-linecap:round;stroke-linejoin:round;stroke-miterlimit:4;stroke-dasharray:none;stroke-opacity:1;visibility:visible"/><path d="m403.759 446.312 23.697 22.89" style="fill:none;stroke:red;stroke-width:1.66666;stroke-linecap:round;stroke-linejoin:round;stroke-miterlimit:4;stroke-dasharray:none;stroke-opacity:1;visibility:visible"/><path d="m428.782 434.792 33.506 32.364" style="fill:none;stroke:red;stroke-width:.999997;stroke-linecap:round;stroke-linejoin:round;stroke-miterlimit:4;stroke-dasharray:none;stroke-opacity:1;visibility:visible"/><path d="m644.101 367.749.349.431 2.531 2.446M647.514 370.135s3.879-.782 5.279-.164M643.642 632.125l.022 1.27" style="fill:none;stroke:red;stroke-width:.666665;stroke-linecap:round;stroke-linejoin:round;stroke-miterlimit:4;stroke-dasharray:none;stroke-opacity:1;visibility:visible"/><path d="M136.922 412.351v-.081M131.506 406.547l2.456 2.373" style="fill:none;stroke:red;stroke-width:.999997;stroke-linecap:round;stroke-linejoin:round;stroke-miterlimit:4;stroke-dasharray:none;stroke-opacity:1;visibility:visible"/><path d="M135.954 412.542s-.214-.03-.488.121a3.329 3.329 0 0 1-.576.244l-1.431.03s-.364.061-.486-.061c-.124-.122-1.553-1.462-1.553-1.462v-4.216" style="fill:none;stroke:red;stroke-width:1.66666;stroke-linecap:round;stroke-linejoin:round;stroke-miterlimit:4;stroke-dasharray:none;stroke-opacity:1;visibility:visible"/><path d="m133.52 408.624-.028 3.947" style="fill:none;stroke:red;stroke-width:.999997;stroke-linecap:round;stroke-linejoin:round;stroke-miterlimit:4;stroke-dasharray:none;stroke-opacity:1;visibility:visible"/><path d="m91.8 409.387 77.325 74.695M85.89 430.863l77.32 74.69M85.685 410.362l77.535 74.894M107.781 416.245l14.889 3.525M100.101 411.367l13.426-1.937M107.781 416.245l14.889-7.445M127.115 415.416l.765-11.961M127.115 415.416l3.48-9.341M107.417 404.898l.278 2.768M127.115 415.416l4.355-5.43M108.136 416.221l-.44-4.59M108.136 416.221l-.354-1.297M127.115 415.416l17.912 4.599M108.136 416.221l-.44 6.383M127.115 415.416l13.237.089M100.101 411.367l13.425 9.041M107.696 424.748l-15.88 11.839M91.561 673.435l.255-1.599M108.136 416.221l.941 9.855M107.696 404.807l-3.376 16.675" style="fill:none;stroke:red;stroke-width:.666665;stroke-linecap:round;stroke-linejoin:round;stroke-miterlimit:4;stroke-dasharray:none;stroke-opacity:1;visibility:visible"/><path d="m136.922 412.27-3.43.301" style="fill:none;stroke:red;stroke-width:.999997;stroke-linecap:round;stroke-linejoin:round;stroke-miterlimit:4;stroke-dasharray:none;stroke-opacity:1;visibility:visible"/><path d="m167.536 489.627-4.326 15.926" style="fill:none;stroke:red;stroke-width:.666665;stroke-linecap:round;stroke-linejoin:round;stroke-miterlimit:4;stroke-dasharray:none;stroke-opacity:1;visibility:visible"/><path d="M431.015 385.163v-1.826M401.73 387.243v-1.821M428.794 383.177l.1.005.086.035.08.053" style="fill:none;stroke:#00ff4a;stroke-width:.999997;stroke-linecap:round;stroke-linejoin:round;stroke-miterlimit:4;stroke-dasharray:none;stroke-opacity:1;visibility:visible"/><path d="m90.028 367.953-.008-.011-.016-.005" style="fill:none;stroke:#00ff4a;stroke-width:1.66666;stroke-linecap:round;stroke-linejoin:round;stroke-miterlimit:4;stroke-dasharray:none;stroke-opacity:1;visibility:visible"/><path d="m90.733 361.642 83.69 80.84M120.02 359.562l83.783 80.936M140.938 358.111l83.784 80.93M161.902 356.709l83.69 80.84M191.189 354.627l83.784 80.93M212.107 353.177l83.787 80.927M233.077 351.771l83.683 80.841M262.358 349.691l83.79 80.93M283.278 348.242l83.788 80.93M304.246 346.837l83.693 80.838M333.527 344.757l83.79 80.929" style="fill:none;stroke:#00ff4a;stroke-width:.999997;stroke-linecap:round;stroke-linejoin:round;stroke-miterlimit:4;stroke-dasharray:none;stroke-opacity:1;visibility:visible"/><path d="m331.206 345.077-.076-.055-.089-.028-.099-.005-26.697 1.849M352.076 343.582l83.79 80.93M333.527 344.757l-.094.02-.087.04-.075.063-.06.08-.033.09-.016.096v1.01M352.076 343.582l-.073-.055-.092-.036-.096-.005-18.288 1.27M96.324 373.051l-4.998.346M90.005 367.937l-.027.016-.02.04-.017.057-.007.08v.991s-.182.249-.25.579l-.02.042-.016.06-.01.076v1.532M89.637 371.413l.008.1.003.094.02.09.021.081.019.06.025.035 1.568 1.514" style="fill:none;stroke:#00ff4a;stroke-width:1.66666;stroke-linecap:round;stroke-linejoin:round;stroke-miterlimit:4;stroke-dasharray:none;stroke-opacity:1;visibility:visible"/><path d="m304.246 346.837-.093.018-.09.04-.073.066-.061.079-.035.09-.012.096v1.124" style="fill:none;stroke:#00ff4a;stroke-width:1.66666;stroke-linecap:round;stroke-linejoin:round;stroke-miterlimit:4;stroke-dasharray:none;stroke-opacity:1;visibility:visible"/><path d="m331.206 345.077 83.69 80.84" style="fill:none;stroke:#00ff4a;stroke-width:.999997;stroke-linecap:round;stroke-linejoin:round;stroke-miterlimit:4;stroke-dasharray:none;stroke-opacity:1;visibility:visible"/><path d="m283.278 348.242-.095.02-.09.038-.074.067-.057.08-.039.09-.01.093v.819M301.826 347.067l-.073-.056-.093-.034-.1-.007-18.282 1.273" style="fill:none;stroke:#00ff4a;stroke-width:1.66666;stroke-linecap:round;stroke-linejoin:round;stroke-miterlimit:4;stroke-dasharray:none;stroke-opacity:1;visibility:visible"/><path d="m301.826 347.067 83.784 80.93" style="fill:none;stroke:#00ff4a;stroke-width:.999997;stroke-linecap:round;stroke-linejoin:round;stroke-miterlimit:4;stroke-dasharray:none;stroke-opacity:1;visibility:visible"/><path d="m280.906 348.517-.075-.055-.089-.035-.099-.005-18.286 1.27" style="fill:none;stroke:#00ff4a;stroke-width:1.66666;stroke-linecap:round;stroke-linejoin:round;stroke-miterlimit:4;stroke-dasharray:none;stroke-opacity:1;visibility:visible"/><path d="m262.358 349.691-.096.02-.084.04-.08.066-.055.08-.038.09-.011.095v1.064" style="fill:none;stroke:#00ff4a;stroke-width:1.66666;stroke-linecap:round;stroke-linejoin:round;stroke-miterlimit:4;stroke-dasharray:none;stroke-opacity:1;visibility:visible"/><path d="m280.906 348.517 83.784 80.93" style="fill:none;stroke:#00ff4a;stroke-width:.999997;stroke-linecap:round;stroke-linejoin:round;stroke-miterlimit:4;stroke-dasharray:none;stroke-opacity:1;visibility:visible"/><path d="m260.038 350.017-.076-.06-.09-.03-.101-.005-26.695 1.85" style="fill:none;stroke:#00ff4a;stroke-width:1.66666;stroke-linecap:round;stroke-linejoin:round;stroke-miterlimit:4;stroke-dasharray:none;stroke-opacity:1;visibility:visible"/><path d="m233.077 351.771-.095.022-.088.037-.079.067-.06.08-.033.09-.016.095v.78" style="fill:none;stroke:#00ff4a;stroke-width:1.66666;stroke-linecap:round;stroke-linejoin:round;stroke-miterlimit:4;stroke-dasharray:none;stroke-opacity:1;visibility:visible"/><path d="m260.038 350.017 83.69 80.833" style="fill:none;stroke:#00ff4a;stroke-width:.999997;stroke-linecap:round;stroke-linejoin:round;stroke-miterlimit:4;stroke-dasharray:none;stroke-opacity:1;visibility:visible"/><path d="m212.107 353.177-.096.02-.089.04-.075.065-.054.08-.039.09-.01.093v1.274M230.657 352.002l-.08-.056-.084-.036-.099-.003-18.287 1.27" style="fill:none;stroke:#00ff4a;stroke-width:1.66666;stroke-linecap:round;stroke-linejoin:round;stroke-miterlimit:4;stroke-dasharray:none;stroke-opacity:1;visibility:visible"/><path d="m230.657 352.002 83.783 80.93" style="fill:none;stroke:#00ff4a;stroke-width:.999997;stroke-linecap:round;stroke-linejoin:round;stroke-miterlimit:4;stroke-dasharray:none;stroke-opacity:1;visibility:visible"/><path d="m191.189 354.627-.096.02-.088.039-.076.067-.057.08-.04.09-.006.094v.92M209.738 353.453l-.076-.056-.09-.028-.099-.012-18.286 1.27" style="fill:none;stroke:#00ff4a;stroke-width:1.66666;stroke-linecap:round;stroke-linejoin:round;stroke-miterlimit:4;stroke-dasharray:none;stroke-opacity:1;visibility:visible"/><path d="m209.738 353.453 83.783 80.934" style="fill:none;stroke:#00ff4a;stroke-width:.999997;stroke-linecap:round;stroke-linejoin:round;stroke-miterlimit:4;stroke-dasharray:none;stroke-opacity:1;visibility:visible"/><path d="m161.902 356.709-.088.02-.092.041-.074.063-.06.08-.038.091-.012.099v1.13M188.868 354.953l-.08-.056-.088-.034-.098-.006-26.701 1.85" style="fill:none;stroke:#00ff4a;stroke-width:1.66666;stroke-linecap:round;stroke-linejoin:round;stroke-miterlimit:4;stroke-dasharray:none;stroke-opacity:1;visibility:visible"/><path d="m188.868 354.953 83.69 80.834" style="fill:none;stroke:#00ff4a;stroke-width:.999997;stroke-linecap:round;stroke-linejoin:round;stroke-miterlimit:4;stroke-dasharray:none;stroke-opacity:1;visibility:visible"/><path d="m140.938 358.111-.096.02-.088.04-.078.066-.058.078-.036.09-.008.097v1.028M159.489 356.937l-.081-.057-.091-.027-.095-.011-18.284 1.27" style="fill:none;stroke:#00ff4a;stroke-width:1.66666;stroke-linecap:round;stroke-linejoin:round;stroke-miterlimit:4;stroke-dasharray:none;stroke-opacity:1;visibility:visible"/><path d="m159.489 356.937 83.781 80.93" style="fill:none;stroke:#00ff4a;stroke-width:.999997;stroke-linecap:round;stroke-linejoin:round;stroke-miterlimit:4;stroke-dasharray:none;stroke-opacity:1;visibility:visible"/><path d="m120.02 359.562-.096.021-.091.04-.076.064-.057.08-.038.09-.009.097v.675M138.566 358.387l-.076-.054-.093-.031-.096-.004-18.281 1.264" style="fill:none;stroke:#00ff4a;stroke-width:1.66666;stroke-linecap:round;stroke-linejoin:round;stroke-miterlimit:4;stroke-dasharray:none;stroke-opacity:1;visibility:visible"/><path d="m138.566 358.387 83.787 80.936" style="fill:none;stroke:#00ff4a;stroke-width:.999997;stroke-linecap:round;stroke-linejoin:round;stroke-miterlimit:4;stroke-dasharray:none;stroke-opacity:1;visibility:visible"/><path d="m90.368 367.157.012.09.037.084.055.072M90.733 361.642l-.096.02-.087.045-.072.06-.06.079-.036.096-.012.095v5.12M117.7 359.887l-.082-.054-.09-.035-.095-.005-26.7 1.849" style="fill:none;stroke:#00ff4a;stroke-width:1.66666;stroke-linecap:round;stroke-linejoin:round;stroke-miterlimit:4;stroke-dasharray:none;stroke-opacity:1;visibility:visible"/><path d="m117.7 359.887 83.682 80.835" style="fill:none;stroke:#00ff4a;stroke-width:.999997;stroke-linecap:round;stroke-linejoin:round;stroke-miterlimit:4;stroke-dasharray:none;stroke-opacity:1;visibility:visible"/><path d="m133.962 409.411 40.2 38.832" style="fill:none;stroke:#00ff4a;stroke-width:1.66666;stroke-linecap:round;stroke-linejoin:round;stroke-miterlimit:4;stroke-dasharray:none;stroke-opacity:1;visibility:visible"/><path d="m90.473 366.949 2.033 1.961" style="fill:none;stroke:#00ff4a;stroke-width:.999997;stroke-linecap:round;stroke-linejoin:round;stroke-miterlimit:4;stroke-dasharray:none;stroke-opacity:1;visibility:visible"/><path d="m435.869 424.51-.08-.055-.09-.03-.094-.004" style="fill:none;stroke:#00ff4a;stroke-width:1.66666;stroke-linecap:round;stroke-linejoin:round;stroke-miterlimit:4;stroke-dasharray:none;stroke-opacity:1;visibility:visible"/><path d="m435.605 424.42-18.285 1.264M417.32 425.684l-.095.021-.09.044-.074.06-.061.08-.036.091-.008.093M416.955 426.074v5.121M416.955 431.195l.01.095.035.085.055.07M414.9 425.915l-.076-.056-.09-.035-.1-.004M414.634 425.82l-26.695 1.853M387.94 427.674l-.096.015-.09.045-.074.065-.061.08-.035.09-.016.096M387.569 428.066v5.117M387.569 433.183l.016.092.035.085.054.07M385.613 427.995l-.073-.056-.09-.028-.096-.005M385.354 427.905l-18.285 1.265M367.069 429.17l-.093.02-.091.039-.076.066-.06.08-.036.09-.012.094M366.7 429.56v5.12M366.7 434.68l.013.096.036.084.056.07M364.694 429.445l-.075-.056-.09-.028-.095-.007M364.434 429.355l-18.284 1.265M346.15 430.62l-.095.02-.092.043-.073.061-.061.08-.035.09-.015.1M345.78 431.014v5.12M345.78 436.135l.015.09.034.085.056.07M343.73 430.85l-.08-.056-.09-.03-.097-.009M343.463 430.756l-26.699 1.855M316.764 432.61l-.09.015-.089.045-.077.065-.057.08-.035.091-.016.095M316.4 433v5.119M316.4 438.12l.016.09.036.086.053.07M314.444 432.93l-.075-.055-.09-.03-.095-.004M314.184 432.84l-18.288 1.264M295.896 434.104l-.096.021-.087.044-.073.06-.061.08-.035.092-.015.099M295.53 434.5v5.12M295.53 439.62l.015.09.034.085.055.07M293.524 434.385l-.073-.059-.091-.03-.096-.006M293.264 434.29l-18.29 1.265M274.975 435.555l-.096.019-.085.046-.075.059-.06.08-.035.095-.013.096M274.61 435.95v5.121M274.61 441.071l.013.088.035.085.055.07M272.56 435.785l-.081-.056-.09-.03-.094-.003M272.294 435.695l-26.699 1.85M245.595 437.545l-.096.019-.084.038-.076.068-.06.079-.035.09-.014.095M245.23 437.934v5.12M245.23 443.055l.016.09.035.085.054.07M243.274 437.865l-.073-.056-.091-.03-.101-.002M243.008 437.777l-18.283 1.263M224.725 439.04l-.096.02-.085.044-.08.061-.055.08-.035.095-.013.095M224.36 439.434v5.121M224.36 444.555l.01.09.035.083.058.072M217.03 440.015l4.805 4.64M213.647 440.062l5.408 5.223M203.646 442.952l3.288 3.175M222.354 439.32l-.075-.056-.089-.035-.096-.004M222.095 439.225l-18.29 1.27M203.805 440.494l-.096.016-.085.045-.075.066-.06.078-.036.091-.013.095M203.44 440.885v5.119M203.44 446.004l.01.09.034.086.06.07M196.065 441.42l4.805 4.64M201.384 440.72l-.075-.056-.09-.03-.095-.006M201.124 440.629l-26.7 1.85M174.424 442.48l-.095.021-.084.039-.081.064-.053.08-.043.092-.01.096M174.059 442.871v5.119M174.059 447.99l.01.095.035.081.06.073M173.184 452.01l-.027.005M173.329 452.251v-1.45M435.037 431.833l-261.634 18.148M173.329 450.8l-.004-.095-.01-.09-.009-.09-.022-.076M173.284 450.45l-.205-.715M173.079 449.735l-.02-.076-.015-.085-.01-.088v-.096M173.034 449.39v-.9M173.034 448.49l-.004-.1-.01-.095-.014-.09-.021-.08-.026-.059-.025-.036" style="fill:none;stroke:#00ff4a;stroke-width:.999997;stroke-linecap:round;stroke-linejoin:round;stroke-miterlimit:4;stroke-dasharray:none;stroke-opacity:1;visibility:visible"/><path d="m436.259 429.765-.29.02" style="fill:none;stroke:#00ff4a;stroke-width:1.66666;stroke-linecap:round;stroke-linejoin:round;stroke-miterlimit:4;stroke-dasharray:none;stroke-opacity:1;visibility:visible"/><path d="m416.718 431.12-1.719.12M387.39 433.155l-1.67.113M366.469 434.603l-1.67.121M345.55 436.06l-1.721.115M316.219 438.09l-1.67.12M295.3 439.545l-1.67.113M274.38 440.995l-1.721.121M245.05 443.03l-1.67.115M224.13 444.48l-1.67.115M173.88 447.965l-.944.064-.981-.95M183.439 446.274l-6.856.481M196.48 445.358l-6.97.49" style="fill:none;stroke:#00ff4a;stroke-width:.999997;stroke-linecap:round;stroke-linejoin:round;stroke-miterlimit:4;stroke-dasharray:none;stroke-opacity:1;visibility:visible"/><path d="m171.953 447.08-.01-.007-.014-.002M435.968 424.76l-.01-.095-.035-.085-.055-.07" style="fill:none;stroke:#00ff4a;stroke-width:1.66666;stroke-linecap:round;stroke-linejoin:round;stroke-miterlimit:4;stroke-dasharray:none;stroke-opacity:1;visibility:visible"/><path d="m417.055 431.445.075.055.089.029.1.01" style="fill:none;stroke:#00ff4a;stroke-width:.999997;stroke-linecap:round;stroke-linejoin:round;stroke-miterlimit:4;stroke-dasharray:none;stroke-opacity:1;visibility:visible"/><path d="M435.968 429.785v-5.025" style="fill:none;stroke:#00ff4a;stroke-width:1.66666;stroke-linecap:round;stroke-linejoin:round;stroke-miterlimit:4;stroke-dasharray:none;stroke-opacity:1;visibility:visible"/><path d="m415 429.46 2.056 1.984M415 426.16l-.01-.09-.035-.085-.055-.07M387.674 433.43l.075.056.09.035.102.005" style="fill:none;stroke:#00ff4a;stroke-width:.999997;stroke-linecap:round;stroke-linejoin:round;stroke-miterlimit:4;stroke-dasharray:none;stroke-opacity:1;visibility:visible"/><path d="m414.634 431.674.095-.019.09-.044.075-.062.06-.079.036-.095.01-.096v-5.12M385.719 431.54l1.955 1.89M385.719 428.245l-.01-.095-.035-.085-.06-.07M366.805 434.93l.073.056.091.028.099.005M385.354 433.754l.096-.02.084-.039.079-.066.054-.08.038-.088.013-.096v-5.12M364.8 432.995l2.005 1.935M364.8 429.695l-.01-.096-.035-.079-.06-.074M345.884 436.38l.075.055.09.03.1.01M364.434 435.205l.095-.021.084-.039.081-.064.055-.08.041-.09.01-.095v-5.12M343.829 434.394l2.056 1.985M343.829 431.095l-.01-.09-.035-.083-.055-.072M316.505 438.366l.075.053.089.035.095.005M343.463 436.61l.097-.02.09-.045.074-.06.055-.08.04-.091.01-.1v-5.119M314.55 436.48l1.955 1.888M314.55 433.18l-.016-.095-.035-.08-.054-.074M295.634 439.865l.076.055.09.03.097.01M314.184 438.689l.095-.019.084-.041.077-.064.059-.08.034-.09.016-.095v-5.12M293.63 437.93l2.004 1.936M293.63 434.629l-.016-.09-.035-.083-.054-.071M274.713 441.314l.077.056.09.035.094.005M293.264 440.14l.096-.02.084-.039.076-.065.059-.081.034-.09.016-.094v-5.122M272.658 439.33l2.055 1.984M272.658 436.035l-.01-.096-.035-.085-.054-.068" style="fill:none;stroke:#00ff4a;stroke-width:.999997;stroke-linecap:round;stroke-linejoin:round;stroke-miterlimit:4;stroke-dasharray:none;stroke-opacity:1;visibility:visible"/><path d="m272.294 441.545.095-.02.09-.04.076-.065.055-.08.039-.091.009-.095v-5.12M243.38 441.415l1.956 1.885M243.38 438.116l-.016-.09-.035-.086-.054-.075M224.463 444.8l.077.055.09.034.094.006M243.008 443.626l.096-.023.09-.038.077-.066.058-.08.034-.089.016-.095v-5.12M222.46 442.865l2.004 1.935M222.46 439.564l-.015-.088-.036-.087-.054-.069M219.055 445.285l3.039-.21M203.544 446.251l.076.053.09.035.095.005 3.128-.217M222.095 445.074l.09-.02.089-.04.077-.064.057-.079.036-.092.015-.096v-5.118M201.49 444.269l2.055 1.983M201.49 440.97l-.01-.095-.035-.08-.06-.074M174.164 448.24l.075.056.09.03.095.005M198.054 446.692l3.07-.213M184.975 447.6l5.527-.383M174.424 448.331l3.255-.225M201.124 446.48l.095-.02.088-.039.077-.065.056-.08.035-.092.014-.093v-5.12M172.786 446.908l1.379 1.332" style="fill:none;stroke:#00ff4a;stroke-width:.999997;stroke-linecap:round;stroke-linejoin:round;stroke-miterlimit:4;stroke-dasharray:none;stroke-opacity:1;visibility:visible"/><path d="m171.565 450.545.004.095.01.1.017.09.018.08.02.055.031.04 1.565 1.515M436.579 434.269l.027-.015.018-.04.016-.058.01-.082.005-.089v-1.45M436.654 432.535l-.004-.09-.01-.095-.011-.086-.02-.074-.204-.714M436.404 431.476l-.02-.076-.016-.085-.01-.095v-.99M436.359 430.23l-.004-.1-.01-.099-.015-.09-.02-.075-.026-.06-.025-.04-.29-.28M171.93 447.071l-.025.013-.02.04-.015.059-.01.081v.99M171.86 448.254l-.007.085-.009.075-.01.06-.02.04-.205.316M171.61 448.83l-.021.045-.015.055-.005.08-.004.085v1.45M436.579 434.269 173.256 452.53" style="fill:none;stroke:#00ff4a;stroke-width:1.66666;stroke-linecap:round;stroke-linejoin:round;stroke-miterlimit:4;stroke-dasharray:none;stroke-opacity:1;visibility:visible"/><path d="M187.61 441.89v5.119M182.634 442.202l4.976 4.807M179.796 442.597l5.179 5.001M187.905 444.708l2.596 2.508M174.128 444.676l3.55 3.43M192.575 441.4l5.479 5.292M267.236 436.484l4.805 4.64M254.61 441.337l-6.856.481M267.65 440.421l-6.97.49M269.225 441.756l3.07-.213M256.145 442.663l5.527-.384M245.595 443.395l3.253-.225M258.781 436.954v5.119M253.805 437.266l4.976 4.807M250.967 437.661l5.179 5.001M259.076 439.772l2.596 2.508M245.299 439.74l3.55 3.43M263.746 436.464l5.479 5.292M338.405 431.548l4.804 4.64M325.779 436.402l-6.856.481M338.82 435.486l-6.97.49M340.394 436.82l3.07-.213M327.315 437.727l5.527-.383M316.764 438.46l3.255-.225M329.95 432.018v5.119M324.975 432.33l4.976 4.807M322.136 432.725l5.179 5.001M330.245 434.836l2.596 2.508M316.468 434.804l3.55 3.43M334.915 431.528l5.479 5.292M409.58 426.614l4.805 4.64M396.955 431.468l-6.856.481M409.995 430.553l-6.97.49M411.57 431.887l3.07-.213M398.49 432.794l5.527-.383M387.94 433.526l3.253-.225M401.126 427.085v5.119M396.15 427.397l4.976 4.807M393.312 427.792l5.179 5.001M401.42 429.903l2.596 2.508M387.644 429.87l3.55 3.43M406.09 426.595l5.479 5.292M237.95 438.566l4.805 4.64M234.567 438.613l5.408 5.223M224.566 441.502l3.288 3.175M239.975 443.835l3.039-.21M224.725 444.894l3.13-.217M288.2 435.082l4.805 4.64M284.817 435.129l5.408 5.223M274.816 438.018l3.288 3.175M290.225 440.351l3.039-.21M274.975 441.41l3.13-.217M309.12 433.63l4.805 4.64M305.738 433.678l5.408 5.223M295.737 436.567l3.288 3.175M311.146 438.9l3.039-.21M295.896 439.96l3.128-.217M359.374 430.146l4.805 4.64M355.992 430.193l5.408 5.223M345.99 433.082l3.288 3.175M361.4 435.415l3.039-.21M346.15 436.475l3.128-.217M380.293 428.69l4.805 4.64M376.91 428.737l5.408 5.223M366.91 431.627l3.288 3.175M382.32 433.96l3.039-.21M367.069 435.02l3.13-.217M430.544 425.211l4.805 4.64M427.162 425.258l5.408 5.223M417.16 428.148l3.288 3.175M432.57 430.481l3.039-.21M417.32 431.54l3.13-.217" style="fill:none;stroke:#00ff4a;stroke-width:.999997;stroke-linecap:round;stroke-linejoin:round;stroke-miterlimit:4;stroke-dasharray:none;stroke-opacity:1;visibility:visible"/><path d="m92.507 369.364 39 37.672" style="fill:none;stroke:#00ff4a;stroke-width:1.66666;stroke-linecap:round;stroke-linejoin:round;stroke-miterlimit:4;stroke-dasharray:none;stroke-opacity:1;visibility:visible"/><path d="m217.808 443.86-11.556.812M238.134 442.432l-11.556.812M288.08 438.924l-11.556.812M309.127 437.445l-11.556.812M360.284 433.852l-11.556.812M379.576 432.497l-11.556.812M431.101 428.878l-11.556.812" style="fill:none;stroke:#00ff4a;stroke-width:.999997;stroke-linecap:round;stroke-linejoin:round;stroke-miterlimit:4;stroke-dasharray:none;stroke-opacity:1;visibility:visible"/><path d="m90.733 361.642 5.591 11.409M131.507 407.036l2.455 2.375" style="fill:none;stroke:#00ff4a;stroke-width:1.66666;stroke-linecap:round;stroke-linejoin:round;stroke-miterlimit:4;stroke-dasharray:none;stroke-opacity:1;visibility:visible"/><path d="m222.353 439.323-5.323.692M222.353 439.323l-8.706.739M203.803 440.498l-.157 2.454M201.382 440.722l-5.317.698M435.968 429.785l-.931 2.048M184.975 447.6l-1.536-1.326M177.679 448.106l-1.096-1.35M198.054 446.692l-1.574-1.334M190.502 447.217l-.991-1.37M414.385 431.254l.615-1.794M385.098 433.33l.621-1.79M364.18 434.786l.62-1.791M343.209 436.188l.62-1.794M313.925 438.27l.625-1.79M293.005 439.722l.625-1.792M272.041 441.124l.617-1.794M242.755 443.206l.625-1.791M221.835 444.655l.625-1.79M200.87 446.06l.62-1.791M174.059 447.99l13.551-6.1M184.975 447.598l-2.341-5.396M174.423 442.482l5.373.115M187.61 447.009l.295-2.301M174.423 442.482l-.295 2.194M190.501 447.216l2.074-5.816M272.558 435.787l-5.322.697M256.145 442.663l-1.535-1.326M248.848 443.17l-1.094-1.352M269.225 441.756l-1.575-1.335M261.672 442.279l-.991-1.369M245.23 443.054l13.551-6.1M256.146 442.662l-2.341-5.396M245.592 437.549l5.375.112M258.781 442.073l.295-2.301M245.592 437.549l-.293 2.191M261.672 442.28l2.074-5.816M343.728 430.85l-5.323.698M327.315 437.727l-1.536-1.325M320.019 438.235l-1.096-1.352M340.394 436.82l-1.574-1.334M332.842 437.344l-.991-1.369M316.4 438.119l13.55-6.101M327.315 437.726l-2.34-5.396M316.76 432.612l5.376.113M329.951 437.137l.294-2.301M316.76 432.612l-.292 2.192M332.841 437.344l2.074-5.816M414.896 425.917l-5.316.697M398.49 432.794l-1.535-1.326M391.193 433.3l-1.094-1.35M411.57 431.887l-1.575-1.334M404.017 432.411l-.991-1.369M387.569 433.183l13.557-6.098M398.49 432.793l-2.34-5.396M387.939 427.675l5.373.117M401.126 432.204l.294-2.301M387.939 427.675l-.295 2.195M404.016 432.411l2.074-5.816M243.27 437.867l-5.32.699M243.27 437.867l-8.703.746M224.722 439.041l-.156 2.461M293.521 434.387l-5.321.695M293.521 434.387l-8.704.742M274.973 435.557l-.157 2.461M314.44 432.932l-5.32.698M314.44 432.932l-8.702.746M295.894 434.104l-.157 2.463M364.69 429.447l-5.316.699M364.69 429.447l-8.698.746M346.148 430.621l-.158 2.461M385.61 427.997l-5.317.693M385.61 427.997l-8.7.74M367.066 429.172l-.156 2.455M435.866 424.512l-5.322.699M435.866 424.512l-8.704.746M417.317 425.686l-.157 2.462" style="fill:none;stroke:#00ff4a;stroke-width:.999997;stroke-linecap:round;stroke-linejoin:round;stroke-miterlimit:4;stroke-dasharray:none;stroke-opacity:1;visibility:visible"/><path d="m133.962 409.411-2.455-2.375" style="fill:none;stroke:#00ff4a;stroke-width:1.66666;stroke-linecap:round;stroke-linejoin:round;stroke-miterlimit:4;stroke-dasharray:none;stroke-opacity:1;visibility:visible"/><path d="m219.055 445.285-1.247-1.425M206.933 446.127l-.681-1.455M239.975 443.835l-1.841-1.403M227.854 444.677l-1.276-1.433M290.225 440.351l-2.145-1.427M278.104 441.193l-1.58-1.457M311.146 438.9l-2.019-1.455M299.024 439.743l-1.453-1.486M361.4 435.415l-1.116-1.563M349.278 436.258l-.55-1.594M382.32 433.96l-2.744-1.463M366.469 434.603l1.551-1.294M432.57 430.481l-1.469-1.603M420.45 431.323l-.905-1.633" style="fill:none;stroke:#00ff4a;stroke-width:.999997;stroke-linecap:round;stroke-linejoin:round;stroke-miterlimit:4;stroke-dasharray:none;stroke-opacity:1;visibility:visible"/><path d="m432.57 430.481-1.538 4.149M404.016 432.411l.314 4.077" style="fill:none;stroke:red;stroke-width:.999997;stroke-linecap:round;stroke-linejoin:round;stroke-miterlimit:4;stroke-dasharray:none;stroke-opacity:1;visibility:visible"/><path d="m133.492 412.571 14.974 10.771" style="fill:none;stroke:red;stroke-width:.666665;stroke-linecap:round;stroke-linejoin:round;stroke-miterlimit:4;stroke-dasharray:none;stroke-opacity:1;visibility:visible"/><path d="m404.016 432.411-.257 13.901" style="fill:none;stroke:red;stroke-width:1.66666;stroke-linecap:round;stroke-linejoin:round;stroke-miterlimit:4;stroke-dasharray:none;stroke-opacity:1;visibility:visible"/><path d="m432.57 430.481-3.788 4.311" style="fill:none;stroke:red;stroke-width:.999997;stroke-linecap:round;stroke-linejoin:round;stroke-miterlimit:4;stroke-dasharray:none;stroke-opacity:1;visibility:visible"/></svg>