<svg xmlns="http://www.w3.org/2000/svg" baseProfile="full" height="1122.52" preserveAspectRatio="xMinYMin meet" style="width:912px;height:1303px" width="793.701" xml:space="preserve"><path d="M373.506 420.455c-.583.25-1.422-.28-1.88-1.183-.459-.9-.362-1.832.224-2.082.576-.248 1.418.28 1.88 1.182.456.904.357 1.835-.224 2.083" style="fill:none;fill-opacity:1;fill-rule:nonzero;stroke:red;stroke-width:1.33333;visibility:visible"/><path d="m373.523 420.331-.23.095M372.012 417.215l-.225.096M372.986 420.454a.477.477 0 0 0 .304-.028M371.786 417.312a.452.452 0 0 0-.23.195M371.558 417.507a1.212 1.212 0 0 0-.155.619" style="fill:none;stroke:red;stroke-width:.666665;stroke-linecap:round;stroke-linejoin:round;stroke-miterlimit:2;stroke-dasharray:none;stroke-opacity:1;visibility:visible"/><path d="M371.403 418.126c.013.384.104.758.273 1.101a2.933 2.933 0 0 0 .704.92M372.382 420.146c.161.144.368.25.604.306M372.395 418.588l.123-.334M373.523 420.331a.433.433 0 0 0 .227-.195M373.75 420.138c.112-.2.164-.416.156-.622" style="fill:none;stroke:red;stroke-width:.666665;stroke-linecap:round;stroke-linejoin:round;stroke-miterlimit:2;stroke-dasharray:none;stroke-opacity:1;visibility:visible"/><path d="M373.906 419.516a2.748 2.748 0 0 0-.272-1.1 3.016 3.016 0 0 0-.704-.921M372.928 417.495a1.43 1.43 0 0 0-.606-.307M372.322 417.188a.53.53 0 0 0-.31.028" style="fill:none;stroke:red;stroke-width:.666665;stroke-linecap:round;stroke-linejoin:round;stroke-miterlimit:2;stroke-dasharray:none;stroke-opacity:1;visibility:visible"/><path d="m362.4 425.002-.355-.162" style="fill:none;stroke:red;stroke-width:1.99999;stroke-linecap:round;stroke-linejoin:round;stroke-miterlimit:4;stroke-dasharray:none;stroke-opacity:1;visibility:visible"/><path d="m369.088 421.53-.03-.007h-.043l-.021.007M369.72 421.227l-.04-.017h-.04l-.033.017M369.922 420.114l-.042-.024-.033-.023-.007-.032M370.08 421.387l-.363-.16" style="fill:none;stroke:red;stroke-width:.999997;stroke-linecap:round;stroke-linejoin:round;stroke-miterlimit:4;stroke-dasharray:none;stroke-opacity:1;visibility:visible"/><path d="m362.4 425.002.006.006.009.012M361.823 424.995v.041l.017.031M361.903 425.036l.019-.046.03-.05.024-.04.04-.033.03-.025M362.4 425.002l-.04.017-.037.031-.028.047M362.048 424.842l-.033-.006h-.041l-.03.006" style="fill:none;stroke:red;stroke-width:1.99999;stroke-linecap:round;stroke-linejoin:round;stroke-miterlimit:4;stroke-dasharray:none;stroke-opacity:1;visibility:visible"/><path d="m235.887 604.873 3.016-1.558M239.815 610.05l8.807-4.578M235.6 615.275l.01-9.92M370.08 421.387l.014.007.009.01" style="fill:none;stroke:red;stroke-width:.999997;stroke-linecap:round;stroke-linejoin:round;stroke-miterlimit:4;stroke-dasharray:none;stroke-opacity:1;visibility:visible"/><path d="m238.273 609.764-.083.047-.077.073-.073.079-.073.086-.056.098-.049.112-.03.104-.027.104-.005.103.006.099.025.075.031.076.05.055.054.037.064.028h.083l.077-.016.083-.032.077-.057.081-.065.072-.081.075-.086.055-.103.047-.104.033-.104.024-.115.008-.096-.008-.094-.024-.079-.033-.072-.047-.056-.055-.041-.075-.023h-.072l-.08.014-.078.034M244.72 610.001l-.081.055-.08.067-.069.076-.075.091-.055.105-.049.105-.03.1-.026.105-.005.105.005.097.026.078.029.07.05.061.055.037.063.027h.073l.082-.017.08-.034.086-.054.071-.066.083-.084.064-.084.056-.101.047-.105.039-.107.018-.104.008-.101-.008-.098-.018-.081-.038-.07-.041-.054-.063-.044-.064-.013-.074-.008-.079.014-.079.032" style="fill:none;stroke:red;stroke-width:.666665;stroke-linecap:round;stroke-linejoin:round;stroke-miterlimit:4;stroke-dasharray:none;stroke-opacity:1;visibility:visible"/><path d="m235.969 616.036-.083-.05-.07-.061-.062-.085-.057-.084-.039-.107-.033-.118-.018-.122-.005-.134M236.289 616.083h0" style="fill:none;stroke:red;stroke-width:.999997;stroke-linecap:round;stroke-linejoin:round;stroke-miterlimit:4;stroke-dasharray:none;stroke-opacity:1;visibility:visible"/><path d="m238.903 603.315.05-.016.056-.01h.046l.042.019" style="fill:none;stroke:red;stroke-width:1.99999;stroke-linecap:round;stroke-linejoin:round;stroke-miterlimit:4;stroke-dasharray:none;stroke-opacity:1;visibility:visible"/><path d="m248.625 605.473.048-.023.056-.006.045.005.043.021M235.609 605.353l.008-.07.016-.09.04-.08.04-.069.054-.075.056-.056.064-.04" style="fill:none;stroke:red;stroke-width:.999997;stroke-linecap:round;stroke-linejoin:round;stroke-miterlimit:4;stroke-dasharray:none;stroke-opacity:1;visibility:visible"/><path d="M238.903 603.315h-.025" style="fill:none;stroke:red;stroke-width:1.99999;stroke-linecap:round;stroke-linejoin:round;stroke-miterlimit:4;stroke-dasharray:none;stroke-opacity:1;visibility:visible"/><path d="m235.6 615.275-.016-.007v-.012M248.6 605.47h.01l.015.002M235.609 605.353l-.019-.009v-.004M235.887 604.873l-.007-.005-.018.005" style="fill:none;stroke:red;stroke-width:.999997;stroke-linecap:round;stroke-linejoin:round;stroke-miterlimit:4;stroke-dasharray:none;stroke-opacity:1;visibility:visible"/><path d="m239.823 606.201-.008 4.579" style="fill:none;stroke:red;stroke-width:1.99999;stroke-linecap:round;stroke-linejoin:round;stroke-miterlimit:4;stroke-dasharray:none;stroke-opacity:1;visibility:visible"/><path d="m247.72 605.924-7.905 4.11M236.535 616.299l-.017-.009" style="fill:none;stroke:red;stroke-width:.999997;stroke-linecap:round;stroke-linejoin:round;stroke-miterlimit:4;stroke-dasharray:none;stroke-opacity:1;visibility:visible"/><path d="m130.457 544.716.857-.406M131.313 544.308l.072-.041.064-.047.055-.05.032-.058.016-.057V544l-.008-.055-.034-.054M125.633 542.108l.104-.064.12-.064.137-.056.143-.05.152-.039.15-.031.168-.024.167-.008h.338l.16.016.161.023.153.039.134.042.137.05.12.054.104.061.085.073.076.07.055.084.03.087.026.079-.008.089-.017.081-.039.088-.057.08-.072.07-.087.082-.104.063M123.465 540.745l-.104.042-.103.032M122.686 539.445l.088.005.17.015.158.023.148.033.142.047.128.047.122.053.103.065.085.072.074.075.056.073.04.08.016.08v.087l-.016.077-.04.088-.056.08-.074.07-.085.08-.103.062" style="fill:none;stroke:red;stroke-width:.666665;stroke-linecap:round;stroke-linejoin:round;stroke-miterlimit:4;stroke-dasharray:none;stroke-opacity:1;visibility:visible"/><path d="M109.752 537.02 235.6 605.25" style="fill:none;stroke:red;stroke-width:.999997;stroke-linecap:round;stroke-linejoin:round;stroke-miterlimit:4;stroke-dasharray:none;stroke-opacity:1;visibility:visible"/><path d="m127.593 543.163 111.261 60.16M122.768 540.561l3.336 1.802" style="fill:none;stroke:red;stroke-width:1.99999;stroke-linecap:round;stroke-linejoin:round;stroke-miterlimit:4;stroke-dasharray:none;stroke-opacity:1;visibility:visible"/><path d="m130.386 543.683.086-.035.088-.023.098-.024.094-.006h.186l.08.015.087.015.081.023.08.043.08.038.064.058.056.046.048.058M130.386 543.683l-.976.462" style="fill:none;stroke:red;stroke-width:.666665;stroke-linecap:round;stroke-linejoin:round;stroke-miterlimit:4;stroke-dasharray:none;stroke-opacity:1;visibility:visible"/><path d="m363.968 431.762.056.048.048.046.04.05.023.054.017.05M362.344 432.363l-.086-.04-.074-.056-.072-.05-.048-.053-.032-.057-.024-.064-.008-.056.015-.065.025-.056.04-.056.056-.047.064-.05M366.736 429.955l-.049-.033-.032-.024-.023-.039v-.033l.018-.03.03-.034.048-.022.064-.017.064-.017.08-.007.071.007.073.01.064.022.056.025.042.024.022.033.016.04-.009.031-.03.03-.039.026-.051.021-.063.02-.072.006h-.08l-.073-.007-.063-.01-.064-.021M366.96 430.684l-.14-.008-.134-.016-.128-.017-.122-.03-.116-.035-.108-.046M367.831 429.94l.064.04.05.045.028.051.027.055.015.047M366.215 430.531l-.088-.041-.079-.048-.064-.056-.048-.058-.04-.054-.018-.064-.007-.056.009-.056.023-.064.041-.047.056-.056.072-.048M362.871 431.787l-.056-.032-.03-.032-.019-.032v-.033l.018-.032.031-.03.048-.026.057-.024.072-.008.072-.008.08.008.07.008.066.018.056.023.04.033.024.028.006.035-.007.04-.023.032-.04.023-.056.025-.065.017-.072.006h-.073l-.07-.007-.072-.016-.057-.016" style="fill:none;stroke:red;stroke-width:.999997;stroke-linecap:round;stroke-linejoin:round;stroke-miterlimit:4;stroke-dasharray:none;stroke-opacity:1;visibility:visible"/><path d="m363.088 432.512-.137-.005-.135-.017-.129-.015-.121-.033-.11-.03-.114-.05" style="fill:none;stroke:red;stroke-width:.999997;stroke-linecap:round;stroke-linejoin:round;stroke-miterlimit:4;stroke-dasharray:none;stroke-opacity:1;visibility:visible"/><path d="m133.673 540.601.085.056.074.067.056.063.04.063.025.073v.07M131.904 541.419l-.095-.059-.08-.06-.056-.073-.04-.072-.025-.072-.008-.083.017-.072.039-.077.049-.072.07-.063.091-.068" style="fill:none;stroke:red;stroke-width:.666665;stroke-linecap:round;stroke-linejoin:round;stroke-miterlimit:4;stroke-dasharray:none;stroke-opacity:1;visibility:visible"/><path d="m132.68 541.595-.144-.008-.144-.017-.135-.026-.13-.037-.121-.038-.103-.049" style="fill:none;stroke:red;stroke-width:.999997;stroke-linecap:round;stroke-linejoin:round;stroke-miterlimit:4;stroke-dasharray:none;stroke-opacity:1;visibility:visible"/><path d="m136.536 539.227-.096-.057-.08-.063-.066-.074-.037-.07-.027-.073v-.071l.02-.079.031-.072.056-.073.07-.07.081-.07M132.504 540.761l-.04-.033-.034-.038-.013-.04.005-.04.028-.041.038-.029.064-.035.065-.022.08-.016h.16l.08.016.064.022.056.022.037.042.027.042v.037l-.017.042-.031.04-.048.03-.064.025-.083.025-.078.007h-.08l-.079-.007-.073-.018-.064-.03" style="fill:none;stroke:red;stroke-width:.666665;stroke-linecap:round;stroke-linejoin:round;stroke-miterlimit:4;stroke-dasharray:none;stroke-opacity:1;visibility:visible"/><path d="m138.305 538.419.081.054.07.054.056.066.041.075.025.06v.073" style="fill:none;stroke:red;stroke-width:.999997;stroke-linecap:round;stroke-linejoin:round;stroke-miterlimit:4;stroke-dasharray:none;stroke-opacity:1;visibility:visible"/><path d="m137.137 538.579-.048-.032-.033-.04-.006-.039v-.041l.031-.04.039-.042.056-.03.074-.016.072-.016.088-.008.08.008.068.007.075.025.047.03.04.035.025.04.008.037-.016.043-.04.04-.047.032-.064.023-.074.025-.079.007h-.08l-.079-.007-.073-.017-.064-.024M137.313 539.401l-.145-.008-.144-.016-.136-.022-.128-.035-.12-.048-.104-.047" style="fill:none;stroke:red;stroke-width:.666665;stroke-linecap:round;stroke-linejoin:round;stroke-miterlimit:4;stroke-dasharray:none;stroke-opacity:1;visibility:visible"/><path d="m131.504 542.21 239.31-113.302" style="fill:none;stroke:red;stroke-width:1.99999;stroke-linecap:round;stroke-linejoin:round;stroke-miterlimit:4;stroke-dasharray:none;stroke-opacity:1;visibility:visible"/><path d="m366.578 423.626.054.008.048.024M128.44 540.555l-.663-.362M128.593 540.745l-.033-.062-.032-.048-.039-.048-.05-.032M128.44 540.555 367.75 427.53M128.593 540.753v-.009M131.504 542.21l-.039-.016h-.043l-.029.017-.032.029v.01" style="fill:none;stroke:red;stroke-width:.999997;stroke-linecap:round;stroke-linejoin:round;stroke-miterlimit:4;stroke-dasharray:none;stroke-opacity:1;visibility:visible"/><path d="m318.215 447.211-.081.047-.077.064-.083.073-.07.087-.064.105-.055.104-.048.112-.043.112-.021.11-.008.115v.102l.015.096.023.088.04.081.05.055.056.048.07.032.074.008h.08l.077-.023.081-.04.09-.057.079-.071.07-.081.073-.094.067-.104.047-.105.037-.113.035-.12.014-.112.007-.104-.007-.104-.013-.087-.043-.088-.037-.065-.057-.055-.067-.033-.07-.024h-.07l-.084.009-.087.032M183.96 510.419l-.096.055-.09.064-.086.088-.072.088-.072.112-.064.113-.048.11-.04.121-.024.12-.008.113.008.109.014.108.034.086.048.072.056.064.065.048.077.025.082.013.096-.005.089-.033.095-.04.086-.064.09-.074.08-.086.08-.102.064-.104.056-.113.04-.121.029-.118.017-.122v-.112l-.008-.106-.022-.093-.043-.079-.045-.073-.066-.057-.07-.04-.082-.018h-.086l-.09.018-.094.033M248.617 479.98l-.088.056-.09.064-.078.079-.081.09-.065.099-.055.108-.057.119-.03.112-.024.119-.01.114v.103l.018.103.032.089.038.072.058.063.065.049.07.024.072.013.086-.005.09-.025.086-.04.091-.063.077-.073.081-.08.074-.095.062-.112.055-.113.043-.111.03-.12.018-.112.008-.112-.016-.105-.018-.096-.038-.08-.048-.07-.056-.048-.072-.042-.075-.015-.077-.01-.091.016-.085.035M257.065 476.002l-.088.048-.09.064-.077.08-.073.096-.075.096-.053.112-.05.114-.038.116-.027.114-.007.113v.112l.016.096.034.087.041.078.055.059.064.047.069.034.075.006.086-.006.09-.026.085-.04.083-.058.085-.07.083-.087.072-.097.062-.1.05-.118.049-.11.023-.12.024-.115v-.108l-.008-.107-.026-.092-.032-.08-.046-.073-.056-.05-.072-.037-.074-.026h-.077l-.092.014-.085.034M359.408 427.82l-.08.046-.078.057-.074.08-.073.088-.061.097-.056.103-.05.104-.033.112-.023.113-.016.111v.105l.016.095.023.087.033.072.05.065.056.039.061.033.073.016.082-.008.077-.025.081-.032.078-.055.073-.073.083-.08.064-.087.061-.105.05-.104.039-.11.029-.114.021-.11.008-.105-.008-.104-.02-.088-.03-.081-.04-.07-.056-.05-.054-.039-.072-.025h-.075l-.077.01-.082.03M275.625 467.268l-.088.047-.08.065-.082.078-.078.088-.067.104-.053.106-.048.114-.04.118-.024.112-.01.112v.102l.018.106.024.088.04.072.056.063.065.048.061.025.082.014.079-.004.087-.027.088-.041.082-.055.085-.075.073-.085.075-.097.063-.103.056-.113.038-.111.031-.11.019-.124.008-.101-.008-.104-.024-.097-.043-.079-.037-.074-.058-.047-.072-.039-.07-.024h-.08l-.083.016-.085.032M229.657 488.908l-.09.048-.087.07-.079.083-.081.086-.063.104-.067.111-.047.116-.04.118-.016.114-.014.116.005.105.017.104.035.087.037.073.056.065.067.047.069.025.081.007h.086l.09-.032.088-.04.089-.056.086-.072.082-.087.069-.097.065-.11.056-.113.04-.11.031-.124.018-.111v-.112l-.009-.103-.024-.096-.03-.08-.057-.073-.055-.056-.072-.03-.073-.028h-.09l-.088.017-.085.034M136.617 532.716l-.096.047-.09.073-.087.087-.089.097-.069.104-.065.11-.048.121-.04.12-.017.118-.016.124.009.109.024.104.032.09.048.08.064.055.065.045.078.027.089.016.095-.016.096-.027.097-.045.096-.056.085-.079.092-.09.069-.104.075-.109.054-.123.038-.121.036-.118.014-.12v-.11l-.006-.105-.034-.097-.039-.087-.056-.073-.064-.047-.073-.043-.088-.016h-.087l-.097.016-.095.043" style="fill:none;stroke:red;stroke-width:.666665;stroke-linecap:round;stroke-linejoin:round;stroke-miterlimit:4;stroke-dasharray:none;stroke-opacity:1;visibility:visible"/><path d="m499.273 469.25-.513-.255-2.43 1.255M122.793 537.505l-.04-.009-.033-.006-.032.006M127.337 539.747l-.008.056-.017.04-.023.03-.033.02h-.04l-.039-.021M127.177 539.872l.15-.077M127.777 535.707l-.096.112-.097.126-.08.127-.072.148-.055.143-.048.144-.032.142-.016.144-.008.135M127.273 536.928l.064 2.819M127.777 535.707l.072-.064.079-.056.081-.043.072-.032.087-.03.097-.03M366.167 423.522l-.025.014-.015.01-.015.008-.018.016-.014.016-.016.016M128.36 535.508l-.095-.057M366.16 423.642l-.097-.04M366.578 423.626l-.058-.007-.064-.009h-.073l-.061.01-.08.006-.082.017" style="fill:none;stroke:red;stroke-width:.999997;stroke-linecap:round;stroke-linejoin:round;stroke-miterlimit:4;stroke-dasharray:none;stroke-opacity:1;visibility:visible"/><path d="m498.16 474.81.063-.031.066-.009.056.008.047.025.05.039.028.056.025.065.01.08.009.087-.019.097-.025.095-.03.098-.039.092-.05.091-.055.08-.063.072-.066.055-.072.04-.065.022-.065.012h-.053l-.05-.026-.047-.04-.029-.054-.026-.074-.01-.08v-.08l.01-.095.025-.096.031-.096.04-.099.05-.088.054-.078.061-.071.064-.057.075-.04M492.728 480.872l.073-.03.063-.006.057.006.047.025.05.04.029.056.026.063.015.08v.089l-.015.095-.016.097-.04.095-.04.097-.05.09-.055.076-.064.065-.063.062-.072.04-.065.028-.064.006h-.057l-.047-.023-.048-.04-.03-.057-.027-.07-.015-.073v-.088l.016-.097.015-.096.034-.095.046-.097.048-.087.054-.08.067-.073.063-.056.065-.042" style="fill:none;stroke:red;stroke-width:.666665;stroke-linecap:round;stroke-linejoin:round;stroke-miterlimit:4;stroke-dasharray:none;stroke-opacity:1;visibility:visible"/><path d="m498.76 468.995-.017-.004-.01.004M495.72 476.922l.01.005.005.017M496.064 470.667v.007l.016.01M496.33 470.25h-.03M487.592 484.826v.064l.016.049.013.039.027.042.039.016M488.017 481.055l-.049.035-.047.049-.046.061-.045.067-.03.072-.015.079-.017.072M498.895 468.99l-.036-.02-.05.008-.051.016" style="fill:none;stroke:red;stroke-width:.999997;stroke-linecap:round;stroke-linejoin:round;stroke-miterlimit:4;stroke-dasharray:none;stroke-opacity:1;visibility:visible"/><path d="m496.33 470.25-.05.033-.057.047-.036.065-.044.061-.03.082-.028.074-.005.072M495.657 477.09l.03-.023.026-.041.017-.036.006-.044M487.577 484.81l.01.01.006.006M487.752 481.468l.01.014.005.008M487.992 481.055l.016-.005.01.005" style="fill:none;stroke:red;stroke-width:.999997;stroke-linecap:round;stroke-linejoin:round;stroke-miterlimit:4;stroke-dasharray:none;stroke-opacity:1;visibility:visible"/><path d="M495.633 477.082h.01l.016.008" style="fill:none;stroke:red;stroke-width:.999997;stroke-linecap:round;stroke-linejoin:round;stroke-miterlimit:4;stroke-dasharray:none;stroke-opacity:1;visibility:visible"/><path d="M499.643 469.668h0" style="fill:none;stroke:red;stroke-width:1.99999;stroke-linecap:round;stroke-linejoin:round;stroke-miterlimit:4;stroke-dasharray:none;stroke-opacity:1;visibility:visible"/><path d="m374.663 416.948 121.41 53.655M487.617 484.055l.135-2.587M487.752 481.468l.01-.05.005-.058.025-.054.025-.058.024-.048.034-.037.03-.04.042-.033.021-.023.025-.012M487.992 481.055l7.639-3.973M495.633 477.082l.017-.01.013-.017.026-.03.007-.025.019-.03.004-.015v-.033M495.72 476.922l.344-6.256M496.064 470.667l.01-.055.006-.056.023-.058.017-.048.03-.047.036-.048.031-.041.041-.031.022-.013.024-.02" style="fill:none;stroke:red;stroke-width:.999997;stroke-linecap:round;stroke-linejoin:round;stroke-miterlimit:4;stroke-dasharray:none;stroke-opacity:1;visibility:visible"/><path d="m380.376 424.836.08.015h.079l.073-.015.064-.042.056-.048.047-.064.03-.072.027-.086.009-.098M380.928 421.402l-.088 3.024M380.928 421.402v-.104l-.017-.106-.031-.102-.04-.102-.056-.098-.056-.088-.072-.079-.081-.075-.08-.054-.08-.032-.079-.024-.08-.01-.074.018-.07.024-.056.048-.048.054-.042.074M376.88 422.074l.12.038.11.023.113.017.104-.008.104-.024.095-.04.088-.057.07-.071.076-.086.054-.098.048-.113.033-.12.013-.125.008-.136v-.144l-.02-.146-.035-.153-.039-.144-.055-.14-.065-.147-.08-.136-.087-.12-.095-.121-.097-.103-.112-.096-.104-.078-.12-.072-.112-.05-.112-.032-.112-.024h-.111l-.105.015-.099.033-.094.047-.08.064-.07.083-.067.086-.055.112-.032.112-.032.13-.018.128v.144l.018.141.024.145.04.152.048.144.065.143.07.137.081.127.09.129.096.112.103.098.112.085.112.075.113.064" style="fill:none;stroke:red;stroke-width:.666665;stroke-linecap:round;stroke-linejoin:round;stroke-miterlimit:4;stroke-dasharray:none;stroke-opacity:1;visibility:visible"/><path d="m366.922 427.018 120.993 54.096M362.431 425.01l.29.134M370.112 421.402l125.421 55.737" style="fill:none;stroke:red;stroke-width:.999997;stroke-linecap:round;stroke-linejoin:round;stroke-miterlimit:4;stroke-dasharray:none;stroke-opacity:1;visibility:visible"/><path d="m380.376 424.836-.064-.025-.072-.031-.058-.04-.062-.049-.056-.05-.049-.053-.05-.076-.045-.069-.033-.073-.033-.08-.014-.079-.017-.08v-.105M379.914 420.995l-.09 3.03M379.914 420.995l.008-.048.008-.056.008-.048.012-.048.018-.048M373.448 428.602l.04-.047.045-.048.045-.032.038-.025.031-.024.041-.016M373.688 428.412l4.608-2.185M378.296 426.226l.072-.032.08-.024.087-.016.081-.01h.168l.08.018.071.008.073.024.072.032.072.032.062.04.056.046.051.06.041.053M374.6 428.94l-.082.031-.088.024-.094.016-.105.016h-.11l-.107-.007-.111-.009-.107-.02-.084-.027-.088-.032-.073-.04-.056-.05-.039-.047-.033-.048-.01-.047.011-.05.024-.046M379.36 426.46l.023.046.007.041-.006.05-.024.037-.03.051-.059.028-.056.043-4.615 2.184M372.184 426.538l-.12-.048-.134-.04-.138-.03-.142-.035-.156-.015-.159-.016h-.303l-.152.016-.15.016-.137.033-.137.031-.12.05-.106.047-.094.048-.08.065-.066.063-.047.064-.03.07-.017.065.007.071.019.074.038.071.055.065.073.072.088.055.104.058.112.054.128.04.136.04.144.032.152.025.15.015.156.008h.158l.151-.008.153-.015.136-.025.135-.032.13-.04.119-.047.096-.047.089-.058.068-.063.066-.064.035-.065.022-.072.008-.072-.017-.07-.03-.074-.048-.063-.066-.073-.08-.055-.095-.064-.104-.057M367.96 425.468l.085-.048.081-.064.057-.056.047-.065.034-.064.016-.07v-.066l-.024-.064-.036-.07-.045-.066-.065-.064-.07-.055-.098-.056-.103-.057M367.84 424.602l-.106-.04-.111-.039-.121-.033-.119-.024-.127-.024-.136-.016-.138-.007" style="fill:none;stroke:red;stroke-width:.666665;stroke-linecap:round;stroke-linejoin:round;stroke-miterlimit:4;stroke-dasharray:none;stroke-opacity:1;visibility:visible"/><path d="m122.768 537.683-.354-.187" style="fill:none;stroke:red;stroke-width:.999997;stroke-linecap:round;stroke-linejoin:round;stroke-miterlimit:4;stroke-dasharray:none;stroke-opacity:1;visibility:visible"/><path d="m109.45 536.761.006.049.022.04.043.04.057.031M109.713 537.001l-.137-.078" style="fill:none;stroke:red;stroke-width:1.99999;stroke-linecap:round;stroke-linejoin:round;stroke-miterlimit:4;stroke-dasharray:none;stroke-opacity:1;visibility:visible"/><path d="m122.768 537.683.038-.015h.044l.038.015M122.544 537.49l-.04-.006h-.044l-.046.013M122.417 537.496l-.03-.015-.036-.009-.029.01" style="fill:none;stroke:red;stroke-width:.999997;stroke-linecap:round;stroke-linejoin:round;stroke-miterlimit:4;stroke-dasharray:none;stroke-opacity:1;visibility:visible"/><path d="M109.752 537.01h-.026l-.013-.01" style="fill:none;stroke:red;stroke-width:1.99999;stroke-linecap:round;stroke-linejoin:round;stroke-miterlimit:4;stroke-dasharray:none;stroke-opacity:1;visibility:visible"/><path d="m122.768 537.683.008.007.009.017" style="fill:none;stroke:red;stroke-width:.999997;stroke-linecap:round;stroke-linejoin:round;stroke-miterlimit:4;stroke-dasharray:none;stroke-opacity:1;visibility:visible"/><path d="m369.608 421.227.008-.007.008-.01.016-.008.016-.014.024-.025.014-.025.026-.03.016-.025.014-.04.008-.007v-.018l.018-.015.008-.032.008-.03.008-.044v-.039M369.8 420.858l.015-.159.009-.169.006-.16.01-.166v-.168M369.85 420.035l.134-4.561M110.208 547.17h0" style="fill:none;stroke:red;stroke-width:1.99999;stroke-linecap:round;stroke-linejoin:round;stroke-miterlimit:4;stroke-dasharray:none;stroke-opacity:1;visibility:visible"/><path d="m368.992 421.53.12-.062.13-.057.116-.067.13-.053.12-.064" style="fill:none;stroke:red;stroke-width:.999997;stroke-linecap:round;stroke-linejoin:round;stroke-miterlimit:4;stroke-dasharray:none;stroke-opacity:1;visibility:visible"/><path d="m361.807 425.082.016-.088M361.823 424.995v-.015h.008v-.024h.01v-.016h.006v-.017h.007v-.008h.01v-.007l.006-.008v-.009h.01v-.008h.007v-.008h.008v-.007h.008l.008-.01h.01v-.006h.014v-.009h.009M368.992 421.53l-7.048 3.312" style="fill:none;stroke:red;stroke-width:1.99999;stroke-linecap:round;stroke-linejoin:round;stroke-miterlimit:4;stroke-dasharray:none;stroke-opacity:1;visibility:visible"/><path d="m236.52 616.29-.546-.253M249.535 609.672h0M235.975 616.036h-.008" style="fill:none;stroke:red;stroke-width:.999997;stroke-linecap:round;stroke-linejoin:round;stroke-miterlimit:4;stroke-dasharray:none;stroke-opacity:1;visibility:visible"/><path d="m239.609 603.625-.515-.318" style="fill:none;stroke:red;stroke-width:1.99999;stroke-linecap:round;stroke-linejoin:round;stroke-miterlimit:4;stroke-dasharray:none;stroke-opacity:1;visibility:visible"/><path d="m249.329 605.788-.514-.319" style="fill:none;stroke:red;stroke-width:.999997;stroke-linecap:round;stroke-linejoin:round;stroke-miterlimit:4;stroke-dasharray:none;stroke-opacity:1;visibility:visible"/><path d="m249.329 605.788.056.039.045.046.048.068.035.062.022.073.008.072v.055l-.008 3.47M238.88 603.315l.03-.016.035-.01.03-.005h.066l.024.015.03.009M237.409 616.243l-.104.047-.096.035-.106.03-.103.015h-.19l-.105-.014-.09-.028-.078-.03M239.609 603.625l.056.048.055.05.038.064.035.062.021.075.01.07.006.056M249.32 610.025l-11.913 6.218M239.831 604.05l-.008 2.152" style="fill:none;stroke:red;stroke-width:1.99999;stroke-linecap:round;stroke-linejoin:round;stroke-miterlimit:4;stroke-dasharray:none;stroke-opacity:1;visibility:visible"/><path d="m249.535 609.672-.008.067-.017.065-.02.053-.036.056-.048.05-.047.037-.038.027" style="fill:none;stroke:red;stroke-width:1.99999;stroke-linecap:round;stroke-linejoin:round;stroke-miterlimit:4;stroke-dasharray:none;stroke-opacity:1;visibility:visible"/><path d="m248.6 605.47.03-.015.033-.014h.031l.035-.006.03.005.026.01.03.02M235.586 615.252v.005M248.6 605.47l-.88.453M238.88 603.315l-.88.455" style="fill:none;stroke:red;stroke-width:.999997;stroke-linecap:round;stroke-linejoin:round;stroke-miterlimit:4;stroke-dasharray:none;stroke-opacity:1;visibility:visible"/><path d="m235.953 616.025-.039-.024-.064-.048-.051-.046-.046-.058-.043-.062-.037-.064-.03-.08-.027-.08-.017-.094-.013-.106v-.107" style="fill:none;stroke:red;stroke-width:1.99999;stroke-linecap:round;stroke-linejoin:round;stroke-miterlimit:4;stroke-dasharray:none;stroke-opacity:1;visibility:visible"/><path d="m123.641 540.657-.09.051-.086.037" style="fill:none;stroke:red;stroke-width:.666665;stroke-linecap:round;stroke-linejoin:round;stroke-miterlimit:4;stroke-dasharray:none;stroke-opacity:1;visibility:visible"/><path d="m122.8 537.699.04-.016h.046l.036.016M127.969 543.001l-.112.069-.13.045-.132.048" style="fill:none;stroke:red;stroke-width:.999997;stroke-linecap:round;stroke-linejoin:round;stroke-miterlimit:4;stroke-dasharray:none;stroke-opacity:1;visibility:visible"/><path d="m128.373 540.64 120.204 64.843M126.104 542.363l1.489.8M110.328 547.235l125.345 68.488" style="fill:none;stroke:red;stroke-width:1.99999;stroke-linecap:round;stroke-linejoin:round;stroke-miterlimit:4;stroke-dasharray:none;stroke-opacity:1;visibility:visible"/><path d="m362.2 431.714.014-.015.014-.008.02-.007.016-.009.016-.01.023-.006.017-.016.016-.008.012-.008.02-.007.015-.01.015-.007h.017l.016-.008.023-.008.016-.007.018-.009.015-.007h.017l.023-.009.017-.008.016-.01h.016l.023-.005.016-.009h.017l.015-.01h.023l.017-.004h.017l.014-.009h.025l.016-.009h.04l.016-.008h.04l.016-.007h.295l.025.007h.057l.016.008h.04l.016.009h.014l.017.01h.025l.014.003h.017l.025.011h.014l.017.006.016.008h.025l.015.01.016.006.013.011h.02l.024.005.014.01.018.007.016.008.015.008h.016l.025.007.015.01.016.007.017.008.016.015.014.008.017.008.016.01.015.007.017.008.016.009.016.014.013.01.02.006.016.011.014.013.017.009M363.968 431.762l.047.04.04.03.041.04.024.05.024.038.008.042v.008M366.072 429.884l.016-.008.014-.016.018-.009.016-.008.016-.008.014-.008.018-.007.016-.009.014-.008.016-.007.02-.008.02-.008.018-.008.016-.008.018-.006.013-.01.016-.008h.027l.014-.008.016-.009.016-.007h.014l.025-.009.017-.007h.014l.018-.009h.024l.014-.008h.017l.027-.008h.013l.017-.007h.016l.022-.008h.034l.024-.009h.072l.016-.008h.208l.016.008h.08l.015.009h.039l.018.01h.016l.022.004h.02l.016.009h.012l.026.008h.018l.013.01h.017l.024.005.015.011.017.005h.016l.024.011.016.007.016.007h.016l.014.01.026.008.016.007.016.008.018.008.016.008.013.007.017.008.018.01.013.005.025.009.016.008.015.008.017.017.016.008.016.008.015.008.017.02.016.001.008.011.014.014M367.831 429.94l.049.03.04.04.04.04.023.04.025.041.007.047h.01" style="fill:none;stroke:red;stroke-width:.999997;stroke-linecap:round;stroke-linejoin:round;stroke-miterlimit:4;stroke-dasharray:none;stroke-opacity:1;visibility:visible"/><path d="m131.864 540.648.016-.013.013-.01.02-.008.016-.005.016-.01.013-.016.018-.009.024-.007.013-.009.019-.006.017-.01.013-.005.018-.013.016-.004.022-.01.018-.007.016-.009.016-.009.014-.005h.026l.016-.008.016-.008.017-.01h.023l.014-.009.019-.007.023-.006h.013l.019-.01h.017l.023-.005h.016l.016-.01h.02l.02-.01h.016l.024-.005h.032l.025-.01h.037l.018-.008h.072l.022-.007h.154l.013.007h.1l.013.008h.044l.012.01h.042l.022.005h.018l.016.011h.022l.018.008h.016l.013.006h.028l.016.01.013.005h.027l.016.01.013.006.018.01h.025l.013.01.018.007.016.006.022.007h.018l.017.01.013.007.018.009.016.006.022.011.019.006.016.01.016.005.013.017.019.01.016.006.013.008M133.673 540.601l.064.04.056.04.048.043.037.046.036.05.023.047.016.046.008.05v.026" style="fill:none;stroke:red;stroke-width:.666665;stroke-linecap:round;stroke-linejoin:round;stroke-miterlimit:4;stroke-dasharray:none;stroke-opacity:1;visibility:visible"/><path d="m138.305 538.419.056.03.056.051.047.037.038.05.035.038.021.047.02.056.008.05v.022" style="fill:none;stroke:red;stroke-width:.999997;stroke-linecap:round;stroke-linejoin:round;stroke-miterlimit:4;stroke-dasharray:none;stroke-opacity:1;visibility:visible"/><path d="m136.489 538.456.015-.006.022-.009.018-.016.016-.005.016-.01.017-.007.016-.008.016-.01.013-.005.019-.017.016-.01.021-.009.019-.007.016-.007.013-.006h.018l.016-.01.021-.008.019-.009.016-.007.017-.007h.023l.016-.01.016-.003.016-.013h.025l.016-.007.015-.009H137l.017-.008h.015l.025-.008h.015l.016-.005h.025l.015-.01h.016l.024-.01h.032l.024-.008h.056l.014-.007h.266l.024.008h.056l.017.007h.037l.019.01h.037l.018.01h.025l.013.005h.018l.025.008h.015l.016.008.016.009h.024l.017.007.016.013h.013l.027.003.016.01.013.006.019.008h.024l.013.01.018.006.017.011.015.006.024.007.016.007.016.01.016.008.016.007.016.011.016.005.025.01.016.015.013.009" style="fill:none;stroke:red;stroke-width:.666665;stroke-linecap:round;stroke-linejoin:round;stroke-miterlimit:4;stroke-dasharray:none;stroke-opacity:1;visibility:visible"/><path d="m371.592 432.402.056-.306.047-.31.033-.319.014-.33.01-.327-.011-.336-.021-.344-.034-.343-.038-.355M371.464 432.587l.038-.032.042-.043.034-.045.016-.064M366.408 423.538l-.048-.026-.046-.004M366.312 423.508l-.032-.008h-.024l-.026.008h-.015l-.024.006-.024.01M366.68 423.658l.07.04.065.057.056.065.041.078.04.097.022.101.011.115.005.12M367.08 427.235l-.05-.024-.038-.041-.032-.047-.024-.057-.016-.056v-.056l.072-2.624M367.887 427.698l-.025-.056-.03-.048-.041-.03-.041-.034-.67-.295M368.351 428.724l-.037-.024-.044-.04-.039-.049-.023-.055-.322-.856M369.76 429.356l-1.413-.632M370.815 428.908l-.03-.008-.044-.008-.029.016" style="fill:none;stroke:red;stroke-width:.999997;stroke-linecap:round;stroke-linejoin:round;stroke-miterlimit:4;stroke-dasharray:none;stroke-opacity:1;visibility:visible"/><path d="m371.648 429.435-.018-.055-.022-.057-.033-.047-.048-.04-.039-.033-.673-.295" style="fill:none;stroke:red;stroke-width:.999997;stroke-linecap:round;stroke-linejoin:round;stroke-miterlimit:4;stroke-dasharray:none;stroke-opacity:1;visibility:visible"/><path d="m362.08 425.002-.033-.014h-.033l-.03.006M362.567 425.22l-.487-.217" style="fill:none;stroke:red;stroke-width:1.99999;stroke-linecap:round;stroke-linejoin:round;stroke-miterlimit:4;stroke-dasharray:none;stroke-opacity:1;visibility:visible"/><path d="m122.688 537.496-.026.019-.012.03" style="fill:none;stroke:red;stroke-width:.999997;stroke-linecap:round;stroke-linejoin:round;stroke-miterlimit:4;stroke-dasharray:none;stroke-opacity:1;visibility:visible"/><path d="m135.704 544.595 235.758-112.008" style="fill:none;stroke:red;stroke-width:1.99999;stroke-linecap:round;stroke-linejoin:round;stroke-miterlimit:4;stroke-dasharray:none;stroke-opacity:1;visibility:visible"/><path d="m362.567 425.22 3.6-1.697M369.76 429.356l.951-.448" style="fill:none;stroke:red;stroke-width:.999997;stroke-linecap:round;stroke-linejoin:round;stroke-miterlimit:4;stroke-dasharray:none;stroke-opacity:1;visibility:visible"/><path d="m122.688 537.496 239.298-112.502" style="fill:none;stroke:red;stroke-width:1.99999;stroke-linecap:round;stroke-linejoin:round;stroke-miterlimit:4;stroke-dasharray:none;stroke-opacity:1;visibility:visible"/><path d="m366.408 423.538.272.12" style="fill:none;stroke:red;stroke-width:.999997;stroke-linecap:round;stroke-linejoin:round;stroke-miterlimit:4;stroke-dasharray:none;stroke-opacity:1;visibility:visible"/><path d="m488.223 485.243-.534-.207M499.401 469.243l-.506-.253" style="fill:none;stroke:red;stroke-width:1.99999;stroke-linecap:round;stroke-linejoin:round;stroke-miterlimit:4;stroke-dasharray:none;stroke-opacity:1;visibility:visible"/><path d="M488.601 485.22h0l-.056.015-.05.023-.055.01h-.104l-.046-.01-.067-.014" style="fill:none;stroke:red;stroke-width:.999997;stroke-linecap:round;stroke-linejoin:round;stroke-miterlimit:4;stroke-dasharray:none;stroke-opacity:1;visibility:visible"/><path d="m499.401 469.243.063.04.05.043.036.053.043.055.024.056.016.071.01.051v.056M499.136 478.754l.507-9.085M499.136 478.755l-.016.101-.015.112-.025.106-.03.112-.034.097-.039.105-.047.094-.05.097-.057.077-.055.09-.063.08-.062.072-.083.07-.08.067-.08.064-.085.045M488.601 485.22l9.712-5.074" style="fill:none;stroke:red;stroke-width:1.99999;stroke-linecap:round;stroke-linejoin:round;stroke-miterlimit:4;stroke-dasharray:none;stroke-opacity:1;visibility:visible"/><path d="m487.679 485.036-.024-.016-.023-.025-.027-.025-.013-.03-.007-.042-.009-.04v-.048M487.577 484.81l.04-.753M498.736 468.995l.025-.016.031-.008h.056l.027.008h.013" style="fill:none;stroke:red;stroke-width:.999997;stroke-linecap:round;stroke-linejoin:round;stroke-miterlimit:4;stroke-dasharray:none;stroke-opacity:1;visibility:visible"/><path d="m366.952 425.668.142-.01.148-.008.133-.014.137-.018.12-.032.12-.03.112-.04.096-.048" style="fill:none;stroke:red;stroke-width:.666665;stroke-linecap:round;stroke-linejoin:round;stroke-miterlimit:4;stroke-dasharray:none;stroke-opacity:1;visibility:visible"/><path d="m362.431 425.01-.039.026-.034.03-.03.041" style="fill:none;stroke:red;stroke-width:1.99999;stroke-linecap:round;stroke-linejoin:round;stroke-miterlimit:4;stroke-dasharray:none;stroke-opacity:1;visibility:visible"/><path d="m367.96 425.468.037-.048.026-.04.017-.05" style="fill:none;stroke:red;stroke-width:.666665;stroke-linecap:round;stroke-linejoin:round;stroke-miterlimit:4;stroke-dasharray:none;stroke-opacity:1;visibility:visible"/><path d="m109.45 536.761.006-.046.009-.059.023-.045.025-.051.039-.037.048-.04M110.208 547.17l-.083-.048-.075-.067-.065-.062-.064-.08-.057-.081-.04-.092-.032-.084-.032-.085-.018-.098-.012-.093M109.73 546.38l-.019-.168-.014-.168-.007-.17-.009-.168-.008-.161M109.673 545.544l-.223-8.781M110.208 547.17l.081.046M382.304 417.698l116.386 51.32M371.256 432.682l116.32 52.174" style="fill:none;stroke:red;stroke-width:1.99999;stroke-linecap:round;stroke-linejoin:round;stroke-miterlimit:4;stroke-dasharray:none;stroke-opacity:1;visibility:visible"/><path d="M122.321 537.481h.016v-.008h.021v-.005h.043l.005-.012h.034l.009.012h.04v.005h.024v.008h.013l.01.009h.008M122.544 537.49l.344.195" style="fill:none;stroke:red;stroke-width:.999997;stroke-linecap:round;stroke-linejoin:round;stroke-miterlimit:4;stroke-dasharray:none;stroke-opacity:1;visibility:visible"/><path d="m110.313 547.227-.027-.008" style="fill:none;stroke:red;stroke-width:1.99999;stroke-linecap:round;stroke-linejoin:round;stroke-miterlimit:4;stroke-dasharray:none;stroke-opacity:1;visibility:visible"/><path d="m122.922 537.699 5.451 2.94M122.888 537.683l.016.007" style="fill:none;stroke:red;stroke-width:.999997;stroke-linecap:round;stroke-linejoin:round;stroke-miterlimit:4;stroke-dasharray:none;stroke-opacity:1;visibility:visible"/><path d="M373.083 426.824c0 .487-.815.882-1.821.882-1.007 0-1.822-.396-1.822-.882 0-.488.815-.88 1.822-.88 1.006-.001 1.821.391 1.821.879" style="fill:none;fill-opacity:1;fill-rule:nonzero;stroke:red;stroke-width:1.33333;visibility:visible"/><path d="M369.624 426.496a.324.324 0 0 0-.096.224M369.527 426.908c0 .083.028.167.088.226M369.616 427.135a1.307 1.307 0 0 0 .507.325M370.123 427.46a3.536 3.536 0 0 0 2.237.03M372.36 427.491a1.315 1.315 0 0 0 .517-.31M371.827 426.752l-.292.202M370.935 426.938l-.257-.202M371.536 426.954l-.6-.016M372.974 426.77a.31.31 0 0 0-.088-.224M372.886 426.544a1.281 1.281 0 0 0-.51-.324M372.376 426.22a3.57 3.57 0 0 0-2.234-.033" style="fill:none;stroke:red;stroke-width:.666665;stroke-linecap:round;stroke-linejoin:round;stroke-miterlimit:2;stroke-dasharray:none;stroke-opacity:1;visibility:visible"/><path d="M370.143 426.188a1.32 1.32 0 0 0-.52.31M372.974 426.77l-.002.19M369.528 426.72v.19M372.876 427.182a.312.312 0 0 0 .095-.223" style="fill:none;stroke:red;stroke-width:.666665;stroke-linecap:round;stroke-linejoin:round;stroke-miterlimit:2;stroke-dasharray:none;stroke-opacity:1;visibility:visible"/><path d="M376.132 419.202c.582-.248 1.42.281 1.88 1.184.459.901.36 1.833-.224 2.082-.577.248-1.418-.28-1.88-1.184-.456-.902-.358-1.834.224-2.082" style="fill:none;fill-opacity:1;fill-rule:nonzero;stroke:red;stroke-width:1.33333;visibility:visible"/><path d="m376.116 419.327.23-.096M377.626 422.442l.226-.095M376.652 419.203a.499.499 0 0 0-.306.027M377.852 422.347a.477.477 0 0 0 .23-.196M378.083 422.15c.107-.2.161-.414.153-.618M378.236 421.532a2.718 2.718 0 0 0-.273-1.102 2.914 2.914 0 0 0-.705-.92M377.256 419.51a1.433 1.433 0 0 0-.604-.307M376.62 420.363l.37.159M377.244 421.068l-.122.334M376.991 420.522l.25.548M376.116 419.327a.435.435 0 0 0-.226.195M375.89 419.522a1.179 1.179 0 0 0-.156.62M375.732 420.142c.016.386.104.757.274 1.102.166.342.406.656.701.92M376.71 422.162c.164.144.368.25.606.308M377.316 422.47a.524.524 0 0 0 .308-.028" style="fill:none;stroke:red;stroke-width:.666665;stroke-linecap:round;stroke-linejoin:round;stroke-miterlimit:2;stroke-dasharray:none;stroke-opacity:1;visibility:visible"/><path d="m105.84 345.253 130.83 60.383M128.054 344.73l248.39-99.021" style="fill:none;stroke:red;stroke-width:.999997;stroke-linecap:round;stroke-linejoin:round;stroke-miterlimit:4;stroke-dasharray:none;stroke-opacity:1;visibility:visible"/><path d="M250.137 401.063h0" style="fill:none;stroke:red;stroke-width:1.99999;stroke-linecap:round;stroke-linejoin:round;stroke-miterlimit:4;stroke-dasharray:none;stroke-opacity:1;visibility:visible"/><path d="m238.509 412.726-.087.024-.079.008-.082-.018-.071-.025-.056-.055-.044-.065-.043-.083-.02-.097-.01-.105.009-.114.021-.114.043-.124.045-.104.055-.106.07-.097.084-.075.079-.068.085-.045.085-.033.084-.01.078.018.071.032.057.05.047.065.041.087.022.103.007.103-.007.106-.023.122-.039.112-.049.117-.056.097-.07.1-.081.079-.081.064-.085.05M245.247 405.715l-.087.025-.08.008-.082-.008-.062-.033-.063-.047-.05-.074-.04-.083-.015-.097-.008-.104.009-.116.021-.112.033-.116.05-.112.064-.107.07-.089.07-.087.088-.059.082-.05.084-.024.08-.01.08.01.071.032.056.056.047.065.044.083.021.097v.219l-.02.117-.045.112-.047.115-.065.106-.063.088-.079.083-.08.065-.084.047" style="fill:none;stroke:red;stroke-width:.666665;stroke-linecap:round;stroke-linejoin:round;stroke-miterlimit:4;stroke-dasharray:none;stroke-opacity:1;visibility:visible"/><path d="m236.814 405.568-.117.067-.124.072-.119.097-.11.11-.103.12-.101.138-.089.138-.078.157-.074.153-.064.162-.04.166-.039.17-.017.164-.008.153" style="fill:none;stroke:red;stroke-width:.999997;stroke-linecap:round;stroke-linejoin:round;stroke-miterlimit:4;stroke-dasharray:none;stroke-opacity:1;visibility:visible"/><path d="m250.106 404.802.016.081-.008.073-.017.067-.031.05-.047.03M250.106 404.802l.065-.007.039-.017.033-.015.023-.025.008-.026M249.493 400.075l-.048-.015h-.063l-.065.015M250.033 400.363l-.055-.016h-.065l-.064.016" style="fill:none;stroke:red;stroke-width:1.99999;stroke-linecap:round;stroke-linejoin:round;stroke-miterlimit:4;stroke-dasharray:none;stroke-opacity:1;visibility:visible"/><path d="m240.449 409.066-.01.09-.016.081-.037.073-.045.057-.058.033" style="fill:none;stroke:red;stroke-width:.999997;stroke-linecap:round;stroke-linejoin:round;stroke-miterlimit:4;stroke-dasharray:none;stroke-opacity:1;visibility:visible"/><path d="m239.95 417.344.005.082v.076l-.013.062-.032.052-.05.022M239.95 417.344l.055-.014.045-.007.036-.025.024-.019.007-.019" style="fill:none;stroke:red;stroke-width:1.99999;stroke-linecap:round;stroke-linejoin:round;stroke-miterlimit:4;stroke-dasharray:none;stroke-opacity:1;visibility:visible"/><path d="M236.814 405.568h-.024M235.733 407.435l-.018-.01v-.005" style="fill:none;stroke:red;stroke-width:.999997;stroke-linecap:round;stroke-linejoin:round;stroke-miterlimit:4;stroke-dasharray:none;stroke-opacity:1;visibility:visible"/><path d="M249.317 400.075h-.027" style="fill:none;stroke:red;stroke-width:1.99999;stroke-linecap:round;stroke-linejoin:round;stroke-miterlimit:4;stroke-dasharray:none;stroke-opacity:1;visibility:visible"/><path d="m372.028 415.102-.017-.036v-.03M235.72 407.42v-.115l.006-.122.024-.116.024-.119.03-.116.039-.12.042-.115.049-.114.056-.11.063-.103.065-.104.07-.096.074-.092.077-.083.076-.08.091-.067.088-.072.103-.056.096-.05 11.494-5.047M240.283 409.4h0" style="fill:none;stroke:red;stroke-width:.999997;stroke-linecap:round;stroke-linejoin:round;stroke-miterlimit:4;stroke-dasharray:none;stroke-opacity:1;visibility:visible"/><path d="m377.49 414.778-.04-.128-.024-.126-.01-.129v-.127l.02-.112.022-.112.041-.098.047-.086.066-.07.072-.067.08-.04.079-.032.097-.008h.096l.102.025.1.034M378.238 413.702l.102.056.095.064.096.078.095.098.084.102.07.12.074.12.044.128.045.128.039.136.013.13.007.128-.015.118-.016.112-.031.104-.05.098-.056.077-.069.065-.082.047-.083.041-.092.018h-.096l-.096-.018-.106-.032-.103-.049-.095-.061-.104-.072-.088-.098-.089-.104-.073-.113M377.64 409.722l-.028-.128-.032-.127-.01-.13v-.125l.013-.112.029-.11.04-.102.046-.084.066-.082.062-.056.081-.047.09-.032.093-.01h.096l.101.019.099.04M378.386 408.636l.104.056.093.062.099.082.098.096.078.112.082.111.062.121.056.13.041.132.03.13.016.128.01.127-.017.127-.014.114-.044.103-.045.09-.055.079-.071.07-.072.051-.09.03-.095.016-.098.01-.095-.026-.103-.031-.108-.049-.105-.064-.092-.081-.085-.095-.092-.097-.078-.12" style="fill:none;stroke:red;stroke-width:.666665;stroke-linecap:round;stroke-linejoin:round;stroke-miterlimit:4;stroke-dasharray:none;stroke-opacity:1;visibility:visible"/><path d="m377.966 414.491.046.032.056.04.04.065.037.063.025.063.017.074v.072l-.007.058-.024.056-.042.036-.039.028-.047.004-.056-.004-.057-.028-.057-.036-.046-.056-.041-.059-.03-.069-.019-.077-.006-.063v-.069l.024-.059.026-.039.037-.032.05-.017h.056l.057.016M383.028 254.045l.102.05.094.061.107.073.089.095.086.104.08.112.068.128.056.129.045.135.03.135.017.137.011.129-.011.135-.018.12-.038.112-.036.104-.056.088-.074.08-.08.067-.088.045-.086.026-.107.015-.095-.01-.106-.023-.108-.042-.098-.054-.102-.072-.098-.077-.088-.107-.08-.103-.073-.12-.063-.127-.057-.138-.031-.135-.033-.137-.007-.135v-.13l.016-.125.024-.121.038-.105.05-.096.064-.088.071-.07.088-.046.084-.044.101-.022h.102l.105.015.105.032M373.31 407.53l.005.066v.064l-.02.047-.021.05-.038.03-.04.025M378.115 409.428l.048.032.055.04.037.062.045.066.024.066.016.07v.071l-.009.056-.023.056-.041.04-.04.025-.047.008-.057-.008-.055-.025-.056-.04-.046-.056-.043-.056-.033-.07-.018-.072-.006-.065v-.065l.024-.063.025-.04.041-.032.047-.013h.056l.056.013M382.859 259.429l.107.048.101.062.103.082.089.094.087.106.073.112.072.117.056.141.05.123.032.137.014.14.01.131-.009.129-.029.123-.03.119-.045.097-.057.093-.064.075-.08.063-.087.048-.088.025-.108.016-.101-.01-.101-.022-.107-.04-.104-.058-.096-.07-.096-.08-.087-.107-.081-.1-.07-.123-.068-.13-.055-.132-.032-.137-.03-.136-.013-.128v-.135l.013-.13.03-.11.041-.115.047-.096.066-.08.071-.07.09-.056.084-.04.097-.015h.1l.101.007.104.032" style="fill:none;stroke:red;stroke-width:.666665;stroke-linecap:round;stroke-linejoin:round;stroke-miterlimit:4;stroke-dasharray:none;stroke-opacity:1;visibility:visible"/><path d="m382.74 254.862.056.034.058.035.034.059.043.07.025.073.015.072v.073l-.005.062-.027.057-.041.048-.039.024-.056.014-.056-.006-.056-.015-.053-.041-.052-.048-.04-.065-.031-.071-.024-.072-.007-.072.007-.073.017-.062.032-.05.042-.039.044-.017.056-.007.058.017M382.582 260.251l.056.027.044.045.048.057.042.066.024.07.016.072v.071l-.009.071-.024.057-.039.04-.049.033-.048.01h-.057l-.056-.025-.055-.04-.047-.05-.041-.063-.041-.063-.014-.082-.006-.072.006-.072.014-.053.036-.051.037-.039.05-.023h.054l.059.013" style="fill:none;stroke:red;stroke-width:.666665;stroke-linecap:round;stroke-linejoin:round;stroke-miterlimit:4;stroke-dasharray:none;stroke-opacity:1;visibility:visible"/><path d="m366.828 242.102-.04-.012-.042.012-.03.014-.033.032-.015.04M366.828 242.102l.146.055M105.302 357.42l-.049-.03-.05-.032-.021-.043-.011-.037M118.981 541.641l-4.233-179.807" style="fill:none;stroke:red;stroke-width:.999997;stroke-linecap:round;stroke-linejoin:round;stroke-miterlimit:4;stroke-dasharray:none;stroke-opacity:1;visibility:visible"/><path d="m377.046 237.797.05-.008.045.008.046.016M377.626 237.822h0M377.19 237.813l.086-.025.078-.015h.084l.072.01.078.024" style="fill:none;stroke:red;stroke-width:1.99999;stroke-linecap:round;stroke-linejoin:round;stroke-miterlimit:4;stroke-dasharray:none;stroke-opacity:1;visibility:visible"/><path d="m366.976 242.157.02.01h.011M366.634 242.2l-.028-.032-.019-.043v-.035" style="fill:none;stroke:red;stroke-width:.999997;stroke-linecap:round;stroke-linejoin:round;stroke-miterlimit:4;stroke-dasharray:none;stroke-opacity:1;visibility:visible"/><path d="M377.588 237.808h0" style="fill:none;stroke:red;stroke-width:1.99999;stroke-linecap:round;stroke-linejoin:round;stroke-miterlimit:4;stroke-dasharray:none;stroke-opacity:1;visibility:visible"/><path d="m505.267 298.815.35-6.529" style="fill:none;stroke:red;stroke-width:.999997;stroke-linecap:round;stroke-linejoin:round;stroke-miterlimit:4;stroke-dasharray:none;stroke-opacity:1;visibility:visible"/><path d="m507.943 293.531.061-.038.072-.058.064-.064.055-.08.057-.099.041-.099.031-.104.021-.106.02-.097v-.103l-.021-.085-.019-.084-.033-.064-.048-.05-.056-.03-.056-.016-.061.008-.072.016-.066.039-.073.06-.059.061-.057.083-.054.098-.045.101-.04.103-.015.104-.014.098v.101l.014.088.027.08.028.067.05.052.05.032.059.014h.062l.077-.028M502.725 292.22l.063-.04.07-.057.066-.066.051-.082.057-.094.05-.098.034-.109.024-.104.003-.108v-.099l-.014-.088-.024-.072-.029-.065-.046-.052-.055-.032-.06-.014h-.065l-.073.025-.06.032-.074.06-.063.07-.055.079-.053.091-.052.108-.03.104-.025.098-.004.108v.098l.014.09.025.08.03.063.045.051.051.033.059.016h.067l.073-.025" style="fill:none;stroke:red;stroke-width:.666665;stroke-linecap:round;stroke-linejoin:round;stroke-miterlimit:4;stroke-dasharray:none;stroke-opacity:1;visibility:visible"/><path d="M508.657 286.63h0M507.999 286.443l.093-.032.09-.024h.086l.077.006.08.033" style="fill:none;stroke:red;stroke-width:.999997;stroke-linecap:round;stroke-linejoin:round;stroke-miterlimit:4;stroke-dasharray:none;stroke-opacity:1;visibility:visible"/><path d="m505.381 299.067-.038-.024-.034-.04-.024-.051-.018-.062v-.073M509.324 287.471h0" style="fill:none;stroke:red;stroke-width:1.99999;stroke-linecap:round;stroke-linejoin:round;stroke-miterlimit:4;stroke-dasharray:none;stroke-opacity:1;visibility:visible"/><path d="m506.519 291.651-.01.091-.025.075-.039.063-.047.055-.063.036M497.65 291.326l.01-.073.02-.08.035-.086.041-.072.047-.057.052-.048.045-.033M497.572 295.295l-.041-.025-.034-.04-.02-.049-.017-.066v-.07" style="fill:none;stroke:red;stroke-width:.999997;stroke-linecap:round;stroke-linejoin:round;stroke-miterlimit:4;stroke-dasharray:none;stroke-opacity:1;visibility:visible"/><path d="M505.255 298.797v.01l.013.01" style="fill:none;stroke:red;stroke-width:1.99999;stroke-linecap:round;stroke-linejoin:round;stroke-miterlimit:4;stroke-dasharray:none;stroke-opacity:1;visibility:visible"/><path d="m497.904 290.877-.004-.007-.021.007M497.632 291.309v.006l.019.011M507.999 286.443l-.01-.008-.008.008M497.444 295.026v.008l.016.01" style="fill:none;stroke:red;stroke-width:.999997;stroke-linecap:round;stroke-linejoin:round;stroke-miterlimit:4;stroke-dasharray:none;stroke-opacity:1;visibility:visible"/><path d="m508.961 286.655.009.01M506.337 291.971l-4.9 2.159" style="fill:none;stroke:red;stroke-width:1.99999;stroke-linecap:round;stroke-linejoin:round;stroke-miterlimit:4;stroke-dasharray:none;stroke-opacity:1;visibility:visible"/><path d="m118.122 340.249.14.065M367.01 242.173l130.622 49.087M507.601 286.607l-9.72 4.27M497.632 291.309l-.156 3.016" style="fill:none;stroke:red;stroke-width:.999997;stroke-linecap:round;stroke-linejoin:round;stroke-miterlimit:4;stroke-dasharray:none;stroke-opacity:1;visibility:visible"/><path d="m105.484 345.195.062-.024h.071l.08.016M104.846 357.267l.008.039.034.041.04.033.052.031M105.126 357.477l-.146-.067M106.364 344.893l-.128.052-.119.048-.104.047-.092.04-.104.049-.12.057" style="fill:none;stroke:red;stroke-width:1.99999;stroke-linecap:round;stroke-linejoin:round;stroke-miterlimit:4;stroke-dasharray:none;stroke-opacity:1;visibility:visible"/><path d="m118.122 340.249-.065-.026H118l-.055.008M106.192 344.878l.046-.008h.063l.064.024" style="fill:none;stroke:red;stroke-width:.999997;stroke-linecap:round;stroke-linejoin:round;stroke-miterlimit:4;stroke-dasharray:none;stroke-opacity:1;visibility:visible"/><path d="m105.07 357.575-.038-.024-.024-.041-.028-.041v-.06M105.126 357.477l.007.057.017.05.022.032.038.026" style="fill:none;stroke:red;stroke-width:1.99999;stroke-linecap:round;stroke-linejoin:round;stroke-miterlimit:4;stroke-dasharray:none;stroke-opacity:1;visibility:visible"/><path d="m118.374 340.314-.029-.017h-.043l-.038.017M118.23 340.24l-.038-.01h-.034l-.036.02" style="fill:none;stroke:red;stroke-width:.999997;stroke-linecap:round;stroke-linejoin:round;stroke-miterlimit:4;stroke-dasharray:none;stroke-opacity:1;visibility:visible"/><path d="M105.157 357.483h-.017l-.014-.006M105.81 345.238l.008.007.016.015" style="fill:none;stroke:red;stroke-width:1.99999;stroke-linecap:round;stroke-linejoin:round;stroke-miterlimit:4;stroke-dasharray:none;stroke-opacity:1;visibility:visible"/><path d="m379.506 251.124-2.058.833M377.45 251.956l-.094.046-.1.066-.093.072-.095.096-.082.104-.076.12-.074.119-.065.137-.047.134M379.5 250.997l.027.019.039.02.004.024-.004.024-.02.025-.039.015M378.796 250.733l.702.264M379.5 250.997l-.01.136M378.731 250.646l-.007.024.007.023.032.024.033.016M378.86 250.205l.035.015.036.026.01.022-.009.024-.202.354M378.86 250.205v.215M118.264 340.314l.016.008.006.007" style="fill:none;stroke:red;stroke-width:.999997;stroke-linecap:round;stroke-linejoin:round;stroke-miterlimit:4;stroke-dasharray:none;stroke-opacity:1;visibility:visible"/><path d="M371.963 417.442v-.038l.01-.034.008-.032.005-.039.01-.032.005-.039" style="fill:none;stroke:red;stroke-width:1.99999;stroke-linecap:round;stroke-linejoin:round;stroke-miterlimit:4;stroke-dasharray:none;stroke-opacity:1;visibility:visible"/><path d="m376.724 252.852-.026.088-.014.097v.077l.007.09.007.091.017.095" style="fill:none;stroke:red;stroke-width:.999997;stroke-linecap:round;stroke-linejoin:round;stroke-miterlimit:4;stroke-dasharray:none;stroke-opacity:1;visibility:visible"/><path d="m372.496 417.987-.06-.03-.056-.05-.049-.053-.041-.064-.04-.075" style="fill:none;stroke:red;stroke-width:1.99999;stroke-linecap:round;stroke-linejoin:round;stroke-miterlimit:4;stroke-dasharray:none;stroke-opacity:1;visibility:visible"/><path d="m379.786 251.228-4.863 165.792" style="fill:none;stroke:red;stroke-width:.999997;stroke-linecap:round;stroke-linejoin:round;stroke-miterlimit:4;stroke-dasharray:none;stroke-opacity:1;visibility:visible"/><path d="m375.226 336.42.012-.112.018-.113.034-.118.04-.112.057-.105.065-.097.072-.086.071-.079.079-.067.08-.048.082-.033.08-.005h.079l.065.024.064.03.056.058.038.073.037.079.019.088.008.102v.114l-.015.112-.024.112-.043.112-.046.114-.066.1-.06.098-.072.079-.084.07-.076.06-.08.039-.079.016-.083.008-.074-.008-.06-.035-.057-.045-.051-.056-.04-.08-.03-.089-.016-.094v-.107M373.155 408.068l.008-.112.021-.11.032-.114.042-.112.056-.104.065-.094.063-.09.08-.08.074-.065.078-.047.08-.03.082-.019h.07l.074.017.063.043.047.044.048.065.032.08.024.09.008.094-.008.106-.014.11-.025.112-.04.112-.047.112-.056.095-.066.097-.072.08-.08.07-.079.057-.08.05-.081.023-.07.009-.074-.017-.066-.025-.06-.04-.047-.055-.035-.073-.03-.085-.018-.098v-.096M377.364 262.646l.007-.113.016-.12.039-.113.041-.11.056-.114.061-.097.076-.088.078-.077.08-.067.078-.037.084-.033.08-.008h.08l.071.024.057.047.056.058.047.07.03.079.025.104.011.106v.112l-.021.111-.029.12-.043.113-.044.11-.058.107-.072.097-.072.08-.086.071-.072.055-.084.032-.085.024h-.073l-.083-.019-.061-.03-.055-.047-.057-.064-.042-.082-.02-.085-.017-.107v-.109" style="fill:none;stroke:red;stroke-width:.666665;stroke-linecap:round;stroke-linejoin:round;stroke-miterlimit:4;stroke-dasharray:none;stroke-opacity:1;visibility:visible"/><path d="m366.944 242.149-.054-.013h-.062l-.056.013M383.924 252.629l-4.994 165.4M385.136 252.545l.056.015.056.009h.127l.057-.016M384.451 252.277l.685.268M383.93 252.614l-.006.024.006.022.03.017.043.021M384.059 252.165l.037.025.028.015.016.023-.009.024-.203.362M382.18 251.449l1.88.716M384.059 252.165l-.008.223M382.18 251.449l-4.942 165.827" style="fill:none;stroke:red;stroke-width:.999997;stroke-linecap:round;stroke-linejoin:round;stroke-miterlimit:4;stroke-dasharray:none;stroke-opacity:1;visibility:visible"/><path d="m105.157 357.495.008.058.016.046.03.034.029.024" style="fill:none;stroke:red;stroke-width:1.99999;stroke-linecap:round;stroke-linejoin:round;stroke-miterlimit:4;stroke-dasharray:none;stroke-opacity:1;visibility:visible"/><path d="m105.242 357.655 9.215 4.302M118.408 340.33l9.606 4.39" style="fill:none;stroke:red;stroke-width:.999997;stroke-linecap:round;stroke-linejoin:round;stroke-miterlimit:4;stroke-dasharray:none;stroke-opacity:1;visibility:visible"/><path d="m250.273 404.712.016-3.892M240.283 409.4l9.735-4.297M250.273 404.712l-.008.075-.018.067-.021.061-.04.06-.041.048-.059.041-.03.023-.037.017M250.033 400.363l-.54-.288M239.86 417.638h0M240.117 417.26h0M250.018 405.104h0M250.273 404.712h0" style="fill:none;stroke:red;stroke-width:1.99999;stroke-linecap:round;stroke-linejoin:round;stroke-miterlimit:4;stroke-dasharray:none;stroke-opacity:1;visibility:visible"/><path d="M240.283 409.4v.007h-.008l-.017.019-.013.006-.016.023-.009.017-.017.026-.018.024-.015.025-.007.033-.017.022-.005.033-.008.025v.026l-.008.024v.024" style="fill:none;stroke:red;stroke-width:.999997;stroke-linecap:round;stroke-linejoin:round;stroke-miterlimit:4;stroke-dasharray:none;stroke-opacity:1;visibility:visible"/><path d="m240.117 417.259-.008.064-.019.065-.03.066-.03.056-.051.048-.049.05-.028.013-.041.017M240.117 417.26l.008-7.527M250.033 400.363l.062.037.056.05.05.066.029.066.035.074.015.071.006.093" style="fill:none;stroke:red;stroke-width:1.99999;stroke-linecap:round;stroke-linejoin:round;stroke-miterlimit:4;stroke-dasharray:none;stroke-opacity:1;visibility:visible"/><path d="m248.286 400.524 1.008-.449" style="fill:none;stroke:red;stroke-width:.999997;stroke-linecap:round;stroke-linejoin:round;stroke-miterlimit:4;stroke-dasharray:none;stroke-opacity:1;visibility:visible"/><path d="m249.293 400.075.037-.015.036-.006h.063l.036.006.025.015" style="fill:none;stroke:red;stroke-width:1.99999;stroke-linecap:round;stroke-linejoin:round;stroke-miterlimit:4;stroke-dasharray:none;stroke-opacity:1;visibility:visible"/><path d="M377.796 410.05v-.007l-.01-.007v-.008h-.007v-.008l-.009-.009v-.01l-.003-.004v-.01h-.011v-.016h-.01v-.016h-.006v-.01l-.009-.006v-.016h-.008v-.015h-.01v-.018h-.003v-.014h-.01v-.016l-.01-.009v-.017h-.006v-.012l-.01-.01v-.008l-.007-.008v-.02l-.01-.005v-.015h-.002v-.025h-.013v-.01M377.66 415.123h-.009v-.007l-.011-.008v-.006h-.005v-.01l-.007-.01v-.004l-.01-.01v-.01h-.006v-.012h-.01v-.018h-.006v-.008l-.013-.006v-.01l-.005-.008v-.006l-.008-.01v-.009l-.009-.008v-.017h-.006v-.016h-.009v-.015h-.008v-.015l-.01-.006v-.012l-.006-.007v-.013l-.007-.01v-.017h-.008v-.024h-.007v-.015l-.01-.008v-.01" style="fill:none;stroke:red;stroke-width:.666665;stroke-linecap:round;stroke-linejoin:round;stroke-miterlimit:4;stroke-dasharray:none;stroke-opacity:1;visibility:visible"/><path d="m122.325 540.37-.25.17-.265.167-.272.162-.296.151-.302.144-.31.144-.33.13-.344.124-.344.114M105.172 357.277l.01-.034.013-.04.042-.033.039-.032" style="fill:none;stroke:red;stroke-width:.999997;stroke-linecap:round;stroke-linejoin:round;stroke-miterlimit:4;stroke-dasharray:none;stroke-opacity:1;visibility:visible"/><path d="m376.412 238.015-9.6 3.801M376.412 238.016l.118-.04.128-.046.124-.051.13-.039.133-.04M377.046 237.797l.089-.024.085-.017h.178l.096.017.093.033M377.588 237.808l.09.032M377.588 237.808h0M122.333 540.29l-4.025-176.055M109.732 536.539l-4.56-179.262" style="fill:none;stroke:red;stroke-width:1.99999;stroke-linecap:round;stroke-linejoin:round;stroke-miterlimit:4;stroke-dasharray:none;stroke-opacity:1;visibility:visible"/><path d="m366.586 242.09.018-.048.01-.046.028-.044.03-.034.034-.036.032-.025.037-.027.037-.017M366.56 242.232l.026-.14" style="fill:none;stroke:red;stroke-width:.999997;stroke-linecap:round;stroke-linejoin:round;stroke-miterlimit:4;stroke-dasharray:none;stroke-opacity:1;visibility:visible"/><path d="m377.68 237.838.013.006" style="fill:none;stroke:red;stroke-width:1.99999;stroke-linecap:round;stroke-linejoin:round;stroke-miterlimit:4;stroke-dasharray:none;stroke-opacity:1;visibility:visible"/><path d="M508.425 286.426h0" style="fill:none;stroke:red;stroke-width:.999997;stroke-linecap:round;stroke-linejoin:round;stroke-miterlimit:4;stroke-dasharray:none;stroke-opacity:1;visibility:visible"/><path d="m505.381 299.058-.033-.008-.021-.024-.028-.024-.024-.035-.016-.037-.007-.052v-.083M508.944 297.797l-.004.063-.02.058-.023.057-.04.051-.043.039-.054.041-.037.025M509.492 287.725l-.548 10.073M508.723 298.131l-2.454 1.084M508.97 286.663l.08.042.076.045.073.068.064.075.057.077.047.084.046.097.032.107.023.105.017.123.008.115v.121M506.27 299.215l-.056.023-.055.017H506l-.056-.017M501.436 294.127l-2.975 1.323M498.461 295.449h0l-.056.016-.055.015-.057.01h-.049l-.054-.01-.055-.015M498.135 295.465l-.563-.17M505.944 299.238l-.563-.17M508.961 286.655l-.534-.228M508.723 298.131h0" style="fill:none;stroke:red;stroke-width:1.99999;stroke-linecap:round;stroke-linejoin:round;stroke-miterlimit:4;stroke-dasharray:none;stroke-opacity:1;visibility:visible"/><path d="m507.983 286.443-.383.164M497.476 294.325l-.03.7M507.983 286.443l.072-.032.06-.018.07-.006h.075l.056.006.055.01.029.008M497.572 295.295l-.032-.017-.023-.023-.027-.024-.02-.036-.022-.038-.005-.048-.008-.046.008-.038M505.285 298.106l-.03.69" style="fill:none;stroke:red;stroke-width:.999997;stroke-linecap:round;stroke-linejoin:round;stroke-miterlimit:4;stroke-dasharray:none;stroke-opacity:1;visibility:visible"/><path d="m105.07 357.575-.038-.015-.044-.026-.03-.025-.025-.034-.037-.045-.034-.067-.008-.05-.008-.046M105.07 357.575l.14.066M105.484 345.195l.133-.065.136-.065.143-.065.144-.054.15-.068 11.755-4.648M104.616 346.598l.016-.108.013-.103.028-.107.03-.103.033-.11.048-.097.008-.024.016-.033.054-.104.063-.107.075-.09.07-.099.072-.074.068-.065.083-.064.085-.057.104-.058M104.606 347.503l-.008-.188v-.178l.008-.18v-.179l.01-.18M104.606 347.503l.24 9.764M376.111 249.502l129.141 49.378M377.708 237.844l130.335 48.566" style="fill:none;stroke:red;stroke-width:1.99999;stroke-linecap:round;stroke-linejoin:round;stroke-miterlimit:4;stroke-dasharray:none;stroke-opacity:1;visibility:visible"/><path d="m118.374 340.314-.144-.075M117.945 340.231l.03-.006.042-.011.048-.008h.039l.04.008.033.01.053.016" style="fill:none;stroke:red;stroke-width:.999997;stroke-linecap:round;stroke-linejoin:round;stroke-miterlimit:4;stroke-dasharray:none;stroke-opacity:1;visibility:visible"/><path d="m105.226 357.647-.016-.005" style="fill:none;stroke:red;stroke-width:1.99999;stroke-linecap:round;stroke-linejoin:round;stroke-miterlimit:4;stroke-dasharray:none;stroke-opacity:1;visibility:visible"/><path d="m372.028 415.116-.153-.066M118.374 340.314l.018.008" style="fill:none;stroke:red;stroke-width:.999997;stroke-linecap:round;stroke-linejoin:round;stroke-miterlimit:4;stroke-dasharray:none;stroke-opacity:1;visibility:visible"/><path d="m382.212 417.946.03-.03.028-.033.005-.04" style="fill:none;stroke:red;stroke-width:1.99999;stroke-linecap:round;stroke-linejoin:round;stroke-miterlimit:4;stroke-dasharray:none;stroke-opacity:1;visibility:visible"/><path d="M372.003 415.036h.017l.01-.008" style="fill:none;stroke:red;stroke-width:.999997;stroke-linecap:round;stroke-linejoin:round;stroke-miterlimit:4;stroke-dasharray:none;stroke-opacity:1;visibility:visible"/><path d="m372.93 417.956 1.992-.936M372.93 417.955l-.094.041-.092.015-.088.009-.076-.009-.084-.025M371.986 417.597l-.004-.025-.01-.025-.01-.023v-.08M371.986 417.598l.032.07.05.064.048.058.056.046.064.031" style="fill:none;stroke:red;stroke-width:1.99999;stroke-linecap:round;stroke-linejoin:round;stroke-miterlimit:4;stroke-dasharray:none;stroke-opacity:1;visibility:visible"/><path d="m379.946 418.988.297-.088.285-.096.282-.104.265-.11.255-.12.24-.122.233-.128.21-.137.197-.136M379.659 418.971l.051.025.06.008h.12l.056-.016M378.914 418.603l.01.025.019.032.052.015.665.295M375.915 417.326l.048.013.057.008.064.01.056-.011.871-.103M374.922 417.02l.048-.018.057-.007h.113l.054.007.046.026.674.298" style="fill:none;stroke:red;stroke-width:.999997;stroke-linecap:round;stroke-linejoin:round;stroke-miterlimit:4;stroke-dasharray:none;stroke-opacity:1;visibility:visible"/><path d="m374.848 250.586-4.657 164.154M387.362 254.3l-5.052 163.542" style="fill:none;stroke:red;stroke-width:1.99999;stroke-linecap:round;stroke-linejoin:round;stroke-miterlimit:4;stroke-dasharray:none;stroke-opacity:1;visibility:visible"/><path d="m378.93 418.028-.02.575M372.028 415.028l-.065 2.416" style="fill:none;stroke:red;stroke-width:.999997;stroke-linecap:round;stroke-linejoin:round;stroke-miterlimit:4;stroke-dasharray:none;stroke-opacity:1;visibility:visible"/><path d="m372.496 417.987-.258-.12" style="fill:none;stroke:red;stroke-width:1.99999;stroke-linecap:round;stroke-linejoin:round;stroke-miterlimit:4;stroke-dasharray:none;stroke-opacity:1;visibility:visible"/><path d="M376.971 246.258s-.001 2.432-.241 3.052M377.372 417.324l1.068.484" style="fill:none;stroke:red;stroke-width:.999997;stroke-linecap:round;stroke-linejoin:round;stroke-miterlimit:4;stroke-dasharray:none;stroke-opacity:1;visibility:visible"/><path d="m133.08 347.028 243.26-97.366M128.014 344.717 249.231 400.1M235.727 418.534l-.017-.01-.008-.005M235.727 418.534v.073l.016.067.03.047.038.042.043.023" style="fill:none;stroke:red;stroke-width:1.99999;stroke-linecap:round;stroke-linejoin:round;stroke-miterlimit:4;stroke-dasharray:none;stroke-opacity:1;visibility:visible"/><path d="m235.703 417.695.016-10.277" style="fill:none;stroke:red;stroke-width:.999997;stroke-linecap:round;stroke-linejoin:round;stroke-miterlimit:4;stroke-dasharray:none;stroke-opacity:1;visibility:visible"/><path d="m236.426 419.016-.575-.23M236.807 419l-.055.024-.065.016-.064.01h-.052l-.059-.01-.057-.016-.03-.007" style="fill:none;stroke:red;stroke-width:1.99999;stroke-linecap:round;stroke-linejoin:round;stroke-miterlimit:4;stroke-dasharray:none;stroke-opacity:1;visibility:visible"/><path d="m235.844 418.786-.03-.016-.033-.032-.022-.032-.024-.044-.018-.045-.008-.058-.005-.04v-.824" style="fill:none;stroke:red;stroke-width:.999997;stroke-linecap:round;stroke-linejoin:round;stroke-miterlimit:4;stroke-dasharray:none;stroke-opacity:1;visibility:visible"/><path d="m114.457 361.956 121.252 56.61M237.055 418.623l-.03.107-.034.09-.056.08-.067.058-.062.041M236.807 419l3.053-1.361M118.487 340.36l248.286-98.214" style="fill:none;stroke:red;stroke-width:1.99999;stroke-linecap:round;stroke-linejoin:round;stroke-miterlimit:4;stroke-dasharray:none;stroke-opacity:1;visibility:visible"/><path d="m239.815 610.034-1.542-.27M238.88 603.315l-.607 6.449M249.321 610.027l-4.601-.026M237.409 616.243l7.312-6.242M131.314 544.31l-1.904-.165M361.944 424.842l-2.536 2.978M362.4 425.002l-2.992 2.816M136.489 538.456l.128-5.74M127.327 539.795l9.29-7.079M495.631 477.082l2.529-2.272M495.633 477.082l2.527-2.272M487.993 481.055l4.735-.183M495.633 477.082l-2.905 3.79" style="fill:none;stroke:red;stroke-width:.666665;stroke-linecap:round;stroke-linejoin:round;stroke-miterlimit:4;stroke-dasharray:none;stroke-opacity:1;visibility:visible"/><path d="m131.314 544.31 4.39.285" style="fill:none;stroke:red;stroke-width:1.99999;stroke-linecap:round;stroke-linejoin:round;stroke-miterlimit:4;stroke-dasharray:none;stroke-opacity:1;visibility:visible"/><path d="m368.025 430.178-1.073-4.51M239.95 417.344l-1.441-4.618M236.814 405.568l1.695 7.157M249.317 400.075l-4.07 5.64M236.814 405.568l8.433.147M497.9 290.877l10.043 2.654M506.269 299.215l1.674-5.684M497.9 290.877l4.825 1.343M501.437 294.13l1.288-1.909M379.786 251.228l-2.422 11.418M379.49 251.133l-2.127 11.513" style="fill:none;stroke:red;stroke-width:.666665;stroke-linecap:round;stroke-linejoin:round;stroke-miterlimit:4;stroke-dasharray:none;stroke-opacity:1;visibility:visible"/><path d="m104.846 357.267 13.462 6.968M378.86 250.42l-4.012.166M384.051 252.388l3.311 1.912M117.945 340.23l15.135 6.798" style="fill:none;stroke:red;stroke-width:1.99999;stroke-linecap:round;stroke-linejoin:round;stroke-miterlimit:4;stroke-dasharray:none;stroke-opacity:1;visibility:visible"/><path d="M226.88 286.663h.022l.028-.005M226.953 309.642l.057 64.632M226.929 286.66l.016 10.781M225 328.802l.087.033M226.113 326.233l.08.04M225.087 434.466l.083.038M226.266 431.992l.08.042M233.6 430.642l.086.04M234.769 428.176l.081.04" style="fill:none;stroke:#00ff4a;stroke-width:.999997;stroke-linecap:round;stroke-linejoin:round;stroke-miterlimit:4;stroke-dasharray:none;stroke-opacity:1;visibility:visible" visibility="hidden"/><path d="m226.929 286.66 6.27-2.458" style="fill:none;stroke:#00ff4a;stroke-width:1.99999;stroke-linecap:round;stroke-linejoin:round;stroke-miterlimit:4;stroke-dasharray:none;stroke-opacity:1;visibility:visible" visibility="hidden"/><path d="m223.617 310.975.12 77.633M223.58 287.698l.015 11.063M223.58 287.698l.07.024.087.016.09.015h.187l.096-.015.09-.016.075-.024M231.586 281.337l-.033-.008-.05-.009-.048.009-.038.008M231.417 281.337v3.352" style="fill:none;stroke:#00ff4a;stroke-width:.999997;stroke-linecap:round;stroke-linejoin:round;stroke-miterlimit:4;stroke-dasharray:none;stroke-opacity:1;visibility:visible" visibility="hidden"/><path d="m224.273 287.698.15-.056" style="fill:none;stroke:#00ff4a;stroke-width:1.99999;stroke-linecap:round;stroke-linejoin:round;stroke-miterlimit:4;stroke-dasharray:none;stroke-opacity:1;visibility:visible" visibility="hidden"/><path d="M224.457 287.506v-.016l.016-.01M224.64 413.207l.081 58.62M224.45 287.618l.007-.112M224.426 287.642l.015-.017.009-.007" style="fill:none;stroke:#00ff4a;stroke-width:.999997;stroke-linecap:round;stroke-linejoin:round;stroke-miterlimit:4;stroke-dasharray:none;stroke-opacity:1;visibility:visible" visibility="hidden"/><path d="m224.473 287.482 2.072-.808" style="fill:none;stroke:#00ff4a;stroke-width:1.99999;stroke-linecap:round;stroke-linejoin:round;stroke-miterlimit:4;stroke-dasharray:none;stroke-opacity:1;visibility:visible" visibility="hidden"/><path d="m233.23 307.122-.02 64.521M233.169 417.194l-.027 50.873M227.04 414.328l.048 56.554M226.543 286.673l.027-.008h.31" style="fill:none;stroke:#00ff4a;stroke-width:.999997;stroke-linecap:round;stroke-linejoin:round;stroke-miterlimit:4;stroke-dasharray:none;stroke-opacity:1;visibility:visible" visibility="hidden"/><path d="m219.45 285.891.007.04.022.041.044.031.063.021 3.994 1.674M219.87 410.975l.14 59.2" style="fill:none;stroke:#00ff4a;stroke-width:1.99999;stroke-linecap:round;stroke-linejoin:round;stroke-miterlimit:4;stroke-dasharray:none;stroke-opacity:1;visibility:visible" visibility="hidden"/><path d="m226.113 326.233-.103-.031-.107-.016h-.103l-.113.02-.117.035-.113.048-.112.073-.115.08-.1.095-.1.112-.092.121-.087.128-.076.136-.073.144-.045.15-.047.154-.03.141-.02.154-.007.145M224.554 327.922l.006.136.02.136.03.119.04.112.045.095.063.09.073.08.08.063.09.049M225.298 328.882h.112l.12-.024.112-.041.119-.055.112-.072.113-.087.112-.103.095-.12.096-.12.09-.147.069-.139.062-.147.048-.16.044-.153.03-.15.01-.163v-.142l-.016-.145-.032-.127-.041-.122-.05-.112-.071-.095-.072-.079M226.266 431.992l-.096-.038-.103-.018h-.106l-.111.018-.12.038-.113.048-.112.066-.11.086-.109.096-.103.104-.093.12-.088.136-.079.138-.068.142-.057.146-.047.149-.028.155-.025.144v.144M224.698 433.667v.14l.025.13.03.121.046.112.058.096.066.081.08.063.085.057M225.345 434.552l.105.011.104-.017.112-.024.112-.05.11-.056.112-.08.102-.086.108-.106.095-.109.088-.121.08-.128.07-.144.067-.144.045-.144.042-.147.025-.141.016-.146v-.142l-.01-.128-.022-.128-.033-.112-.047-.106-.066-.097-.063-.07M234.769 428.176l-.096-.032-.103-.016h-.107l-.11.016-.113.032-.113.05-.112.07-.112.08-.106.095-.102.115-.094.121-.088.127-.083.134-.06.143-.06.145-.045.151-.035.153-.015.144-.005.143M233.21 429.848l.005.136.015.128.035.13.048.105.056.095.071.088.073.064.087.046M233.857 430.728l.103.008.106-.008.114-.028.11-.05.1-.059.112-.079.108-.089.104-.096.096-.112.088-.125.082-.13.071-.134.06-.147.05-.149.039-.142.025-.146.017-.146v-.133l-.01-.139-.021-.117-.045-.121-.044-.106-.057-.088-.07-.072M233.698 325.249l.085.038M234.794 322.69l.084.04" style="fill:none;stroke:#00ff4a;stroke-width:.999997;stroke-linecap:round;stroke-linejoin:round;stroke-miterlimit:4;stroke-dasharray:none;stroke-opacity:1;visibility:visible" visibility="hidden"/><path d="M227.04 470.887h.026l.021-.007 6.04-2.8M223.857 472.066l.073.03.08.015.088.017.095.008.087-.008.09-.017.086-.015.073-.024.141-.072M235.986 283.027l-.01-.04-.019-.042-.055-.03-.052-.034-4-1.646M233.169 467.908l1.984-.913M219.503 312.625l.178 74.135M219.45 285.891l.03 14.503M235.857 418.592l-.047 48.151M235.96 306.023l-.064 68.928M235.986 283.027l-.01 10.833M220.01 470.176l3.847 1.89M219.594 285.753l-.05.025-.041.024-.033.032-.019.026v.031M219.882 470.018l.005.049.024.039.043.032.056.04" style="fill:none;stroke:#00ff4a;stroke-width:1.99999;stroke-linecap:round;stroke-linejoin:round;stroke-miterlimit:4;stroke-dasharray:none;stroke-opacity:1;visibility:visible" visibility="hidden"/><path d="m231.851 281.235-.074-.028-.079-.013-.096-.014h-.192l-.087.006-.092.021-.073.028-11.563 4.518" style="fill:none;stroke:#00ff4a;stroke-width:1.99999;stroke-linecap:round;stroke-linejoin:round;stroke-miterlimit:4;stroke-dasharray:none;stroke-opacity:1;visibility:visible" visibility="hidden"/><path d="m234.794 322.69-.097-.03-.103-.02-.107.01-.109.015-.112.033-.112.055-.112.064-.112.089-.107.096-.093.105-.097.118-.08.129-.083.135-.059.145-.058.153-.049.143-.022.152-.024.152-.007.144" style="fill:none;stroke:#00ff4a;stroke-width:.999997;stroke-linecap:round;stroke-linejoin:round;stroke-miterlimit:4;stroke-dasharray:none;stroke-opacity:1;visibility:visible" visibility="hidden"/><path d="m233.251 324.378.007.135.016.127.03.122.041.112.053.103.057.089.075.077.08.058.088.048M233.994 325.337l.11-.008.109-.019.125-.036.112-.057.12-.08.112-.088.103-.099.094-.116.098-.127.088-.137.07-.145.063-.152.05-.153.039-.147.023-.166.02-.15v-.147l-.02-.14-.028-.128-.04-.121-.057-.114-.063-.094-.072-.079M223.595 298.761l3.358 10.881M224.457 287.506l2.488 9.935" style="fill:none;stroke:#00ff4a;stroke-width:.999997;stroke-linecap:round;stroke-linejoin:round;stroke-miterlimit:4;stroke-dasharray:none;stroke-opacity:1;visibility:visible" visibility="hidden"/><path d="m226.543 286.673 6.656-2.471" style="fill:none;stroke:#00ff4a;stroke-width:1.99999;stroke-linecap:round;stroke-linejoin:round;stroke-miterlimit:4;stroke-dasharray:none;stroke-opacity:1;visibility:visible" visibility="hidden"/><path d="m219.48 300.394 4.137 10.581M224.457 287.506l-.862 11.255M235.986 283.027l-4.569 1.662M233.21 429.847l-8.57-16.64M226.945 297.441l6.285 9.681M233.21 429.847l-.041-12.653M233.21 429.847l-6.17-15.519" style="fill:none;stroke:#00ff4a;stroke-width:.999997;stroke-linecap:round;stroke-linejoin:round;stroke-miterlimit:4;stroke-dasharray:none;stroke-opacity:1;visibility:visible" visibility="hidden"/><path d="m219.48 300.394.023 12.231M223.617 310.975l-4.137-10.581M233.21 429.847l2.647-11.255M235.976 293.86l-.016 12.163M226.929 286.66l9.047 7.2" style="fill:none;stroke:#00ff4a;stroke-width:1.99999;stroke-linecap:round;stroke-linejoin:round;stroke-miterlimit:4;stroke-dasharray:none;stroke-opacity:1;visibility:visible" visibility="hidden"/><path d="m235.153 466.995 13.464 12.985" style="fill:none;stroke:red;stroke-width:.666665;stroke-linecap:round;stroke-linejoin:round;stroke-miterlimit:4;stroke-dasharray:none;stroke-opacity:1;visibility:visible"/><path d="m235.72 407.42-15.85 3.555" style="fill:none;stroke:#00ff4a;stroke-width:1.99999;stroke-linecap:round;stroke-linejoin:round;stroke-miterlimit:4;stroke-dasharray:none;stroke-opacity:1;visibility:visible" visibility="hidden"/></svg>