<svg xmlns="http://www.w3.org/2000/svg" baseProfile="full" height="1122.52" preserveAspectRatio="xMinYMin meet" style="width:912px;height:1246px" width="793.701" xml:space="preserve"><path d="m322.957 445.04-.36-.159" style="fill:none;stroke:red;stroke-width:.999997;stroke-linecap:round;stroke-linejoin:round;stroke-miterlimit:4;stroke-dasharray:none;stroke-opacity:1;visibility:visible"/><path d="m322.941 438.566.352.155M325.478 437.226l.056-.01.064-.006.056.007.055.009.048.015M325.99 437.297l-.03-.008-.026.008-.03.008M325.756 437.24l.033-.008h.032l.023.008" style="fill:none;stroke:red;stroke-width:1.99999;stroke-linecap:round;stroke-linejoin:round;stroke-miterlimit:4;stroke-dasharray:none;stroke-opacity:1;visibility:visible"/><path d="m325.478 437.226-.032-.016h-.033" style="fill:none;stroke:red;stroke-width:.999997;stroke-linecap:round;stroke-linejoin:round;stroke-miterlimit:4;stroke-dasharray:none;stroke-opacity:1;visibility:visible"/><path d="m323.1 438.297-.047-.008-.048.008-.046.015" style="fill:none;stroke:red;stroke-width:1.99999;stroke-linecap:round;stroke-linejoin:round;stroke-miterlimit:4;stroke-dasharray:none;stroke-opacity:1;visibility:visible"/><path d="m322.941 438.566.008-.056.017-.055.023-.046.033-.047.039-.041.039-.024" style="fill:none;stroke:red;stroke-width:1.99999;stroke-linecap:round;stroke-linejoin:round;stroke-miterlimit:4;stroke-dasharray:none;stroke-opacity:1;visibility:visible"/><path d="m322.87 438.488.008.033.023.024.041.022" style="fill:none;stroke:red;stroke-width:1.99999;stroke-linecap:round;stroke-linejoin:round;stroke-miterlimit:4;stroke-dasharray:none;stroke-opacity:1;visibility:visible"/><path d="m322.798 443.769-.041-.025-.032-.022-.008-.033M322.597 444.881l-.04-.017h-.04l-.032.017M321.965 445.184l-.03-.008h-.042l-.023.008" style="fill:none;stroke:red;stroke-width:.999997;stroke-linecap:round;stroke-linejoin:round;stroke-miterlimit:4;stroke-dasharray:none;stroke-opacity:1;visibility:visible"/><path d="m325.925 437.322-.017-.01-.008-.007" style="fill:none;stroke:red;stroke-width:1.99999;stroke-linecap:round;stroke-linejoin:round;stroke-miterlimit:4;stroke-dasharray:none;stroke-opacity:1;visibility:visible"/><path d="M323.325 438.728h-.017l-.015-.007M322.957 445.04l.016.008.01.008M189.126 639.664h0M188.478 638.928l.008-9.919M192.693 633.703l8.808-4.576M188.764 628.527l3.016-1.559" style="fill:none;stroke:red;stroke-width:.999997;stroke-linecap:round;stroke-linejoin:round;stroke-miterlimit:4;stroke-dasharray:none;stroke-opacity:1;visibility:visible"/><path d="m197.597 633.656-.08.055-.081.065-.072.077-.072.092-.056.104-.047.107-.032.099-.024.106-.008.103.008.097.024.078.032.072.047.058.056.039.064.027h.072l.081-.018.08-.033.09-.056.069-.064.081-.084.064-.084.056-.101.048-.106.039-.106.017-.103.008-.103-.008-.096-.017-.084-.039-.068-.039-.054-.065-.044-.064-.014-.073-.006-.078.012-.081.033M191.15 633.417l-.081.047-.079.072-.072.08-.073.085-.055.097-.05.112-.031.106-.024.104-.007.104.007.097.024.076.032.075.049.056.055.037.064.027h.081l.079-.015.081-.033.081-.058.078-.064.072-.078.074-.09.056-.1.047-.104.032-.105.024-.113.008-.096-.008-.096-.024-.079-.032-.073-.047-.056-.056-.04-.074-.024h-.072l-.078.016-.081.033" style="fill:none;stroke:red;stroke-width:.666665;stroke-linecap:round;stroke-linejoin:round;stroke-miterlimit:4;stroke-dasharray:none;stroke-opacity:1;visibility:visible"/><path d="M189.165 639.737h0M188.845 639.69l-.081-.05-.071-.062-.064-.083-.056-.085-.037-.107-.035-.12-.016-.12-.005-.134" style="fill:none;stroke:red;stroke-width:.999997;stroke-linecap:round;stroke-linejoin:round;stroke-miterlimit:4;stroke-dasharray:none;stroke-opacity:1;visibility:visible"/><path d="m191.78 626.968.05-.016.055-.01h.048l.042.02" style="fill:none;stroke:red;stroke-width:1.99999;stroke-linecap:round;stroke-linejoin:round;stroke-miterlimit:4;stroke-dasharray:none;stroke-opacity:1;visibility:visible"/><path d="m188.486 629.007.008-.07.017-.09.039-.08.04-.068.055-.076.056-.056.064-.039M201.501 629.127l.048-.024.056-.005.048.005.041.02" style="fill:none;stroke:red;stroke-width:.999997;stroke-linecap:round;stroke-linejoin:round;stroke-miterlimit:4;stroke-dasharray:none;stroke-opacity:1;visibility:visible"/><path d="M191.78 626.968h-.024" style="fill:none;stroke:red;stroke-width:1.99999;stroke-linecap:round;stroke-linejoin:round;stroke-miterlimit:4;stroke-dasharray:none;stroke-opacity:1;visibility:visible"/><path d="m188.764 628.527-.008-.005-.016.005M188.486 629.007l-.016-.008v-.007M201.478 629.123h.008l.017.004M188.478 638.928l-.016-.007v-.01" style="fill:none;stroke:red;stroke-width:.999997;stroke-linecap:round;stroke-linejoin:round;stroke-miterlimit:4;stroke-dasharray:none;stroke-opacity:1;visibility:visible"/><path d="m192.7 629.855-.008 4.577" style="fill:none;stroke:red;stroke-width:1.99999;stroke-linecap:round;stroke-linejoin:round;stroke-miterlimit:4;stroke-dasharray:none;stroke-opacity:1;visibility:visible"/><path d="m189.413 639.953-.016-.008M200.597 629.578l-7.905 4.11" style="fill:none;stroke:red;stroke-width:.999997;stroke-linecap:round;stroke-linejoin:round;stroke-miterlimit:4;stroke-dasharray:none;stroke-opacity:1;visibility:visible"/><path d="m74.181 563.423.112-.07.112-.057.137-.056.143-.046.152-.042.152-.032.168-.025.168-.007.168-.008.16.008.168.015.16.024.145.033.143.047.128.048.121.056.103.065.088.072.07.075.058.076.04.08.016.08v.088l-.016.079-.04.09-.057.079-.071.072-.088.08-.103.064M76.341 564.398l-.104.043-.103.032M78.51 565.76l.104-.063.12-.065.137-.055.143-.05.152-.039.152-.032.168-.024.168-.007h.336l.16.016.16.023.153.04.135.04.136.05.121.055.103.06.087.075.074.07.055.083.032.086.024.081-.008.088-.016.081-.04.088-.057.079-.071.07-.088.083-.104.062M84.19 567.963l.072-.04.065-.048.055-.05.03-.057.017-.057v-.053l-.008-.058-.032-.054M83.333 568.369l.859-.407" style="fill:none;stroke:red;stroke-width:.666665;stroke-linecap:round;stroke-linejoin:round;stroke-miterlimit:4;stroke-dasharray:none;stroke-opacity:1;visibility:visible"/><path d="m62.63 560.673 125.849 68.23M73.837 563.783l.04.027.024.03v.034l-.008.029-.03.033-.042.026M71.854 564.888l-.056.023-.065.01-.064.007-.064-.007-.063-.018-.05-.015M71.854 564.888l1.97-.925M73.845 563.944l-.008-.161" style="fill:none;stroke:red;stroke-width:.999997;stroke-linecap:round;stroke-linejoin:round;stroke-miterlimit:4;stroke-dasharray:none;stroke-opacity:1;visibility:visible"/><path d="m80.47 566.816 111.262 60.16" style="fill:none;stroke:red;stroke-width:1.99999;stroke-linecap:round;stroke-linejoin:round;stroke-miterlimit:4;stroke-dasharray:none;stroke-opacity:1;visibility:visible"/><path d="m83.262 567.338.087-.035.088-.022.097-.026.095-.006h.185l.081.016.086.016.082.022.079.042.08.038.065.059.056.047.047.056M83.262 567.338l-.975.461" style="fill:none;stroke:red;stroke-width:.666665;stroke-linecap:round;stroke-linejoin:round;stroke-miterlimit:4;stroke-dasharray:none;stroke-opacity:1;visibility:visible"/><path d="m319.092 454.185-.085-.041-.082-.047-.064-.056-.048-.059-.041-.053-.016-.064-.008-.057.008-.055.024-.064.041-.047.056-.057.074-.048M320.708 453.592l.064.04.05.048.031.05.024.054.016.047M319.837 454.338l-.137-.01-.135-.017-.13-.014-.118-.032-.119-.034-.106-.046M319.613 453.61l-.048-.033-.032-.024-.024-.039v-.035l.019-.029.029-.032.048-.025.064-.016.064-.016.08-.007.072.007.072.008.065.024.056.025.04.024.023.032.016.04-.008.03-.03.033-.04.024-.05.021-.064.02-.072.007h-.08l-.072-.007-.064-.01-.064-.022M315.221 456.017l-.085-.04-.075-.056-.072-.048-.048-.056-.032-.056-.024-.064-.008-.056.016-.064.024-.057.04-.055.056-.048.065-.05M316.845 455.417l.056.048.048.045.04.051.024.055.016.049M315.965 456.167l-.136-.005-.136-.019-.128-.015-.121-.032-.111-.032-.112-.048M315.748 455.441l-.056-.032-.03-.032-.018-.033v-.032l.019-.032.029-.032.048-.024.057-.024.072-.01.074-.005.077.005.072.01.065.017.056.024.04.032.023.03.008.034-.008.04-.023.032-.04.023-.056.024-.065.016-.072.008h-.072l-.07-.008-.073-.016-.057-.015" style="fill:none;stroke:red;stroke-width:.999997;stroke-linecap:round;stroke-linejoin:round;stroke-miterlimit:4;stroke-dasharray:none;stroke-opacity:1;visibility:visible"/><path d="m84.78 565.073-.095-.057-.08-.064-.056-.071-.04-.07-.024-.074-.008-.081.016-.075.04-.076.05-.072.07-.064.088-.067M86.55 564.255l.087.056.072.065.056.064.041.064.024.072v.071" style="fill:none;stroke:red;stroke-width:.666665;stroke-linecap:round;stroke-linejoin:round;stroke-miterlimit:4;stroke-dasharray:none;stroke-opacity:1;visibility:visible"/><path d="m85.557 565.248-.143-.007-.145-.017-.133-.025-.131-.038-.12-.038-.105-.05" style="fill:none;stroke:red;stroke-width:.999997;stroke-linecap:round;stroke-linejoin:round;stroke-miterlimit:4;stroke-dasharray:none;stroke-opacity:1;visibility:visible"/><path d="m85.38 564.417-.039-.035-.033-.038-.013-.042.005-.037.025-.041.039-.03.064-.033.065-.023.082-.017h.16l.078.017.064.023.056.021.039.042.025.041v.037l-.017.042-.03.038-.047.035-.066.024-.081.024-.077.008h-.082l-.078-.008-.075-.017-.064-.031M89.413 562.881l-.095-.056-.081-.065-.064-.072-.039-.072-.026-.071v-.073l.018-.078.034-.072.056-.074.069-.071.08-.067" style="fill:none;stroke:red;stroke-width:.666665;stroke-linecap:round;stroke-linejoin:round;stroke-miterlimit:4;stroke-dasharray:none;stroke-opacity:1;visibility:visible"/><path d="m91.181 562.073.083.055.069.054.056.066.041.074.024.06v.075" style="fill:none;stroke:red;stroke-width:.999997;stroke-linecap:round;stroke-linejoin:round;stroke-miterlimit:4;stroke-dasharray:none;stroke-opacity:1;visibility:visible"/><path d="m90.19 563.056-.144-.007-.145-.017-.136-.023-.128-.033-.119-.048-.105-.047M90.013 562.232l-.048-.032-.032-.039-.005-.04v-.04l.029-.041.04-.041.056-.031.073-.016.074-.015.085-.009.081.01.07.006.073.024.048.03.04.037.024.037.008.039-.016.044-.04.037-.047.033-.064.023-.073.025-.08.007h-.08l-.077-.007-.075-.017-.064-.024" style="fill:none;stroke:red;stroke-width:.666665;stroke-linecap:round;stroke-linejoin:round;stroke-miterlimit:4;stroke-dasharray:none;stroke-opacity:1;visibility:visible"/><path d="m84.38 565.866 239.311-113.305" style="fill:none;stroke:red;stroke-width:1.99999;stroke-linecap:round;stroke-linejoin:round;stroke-miterlimit:4;stroke-dasharray:none;stroke-opacity:1;visibility:visible"/><path d="m84.38 565.866-.039-.019H84.3l-.03.019-.031.03v.009M81.47 564.409v-.01M81.318 564.209l229.258-108.277M81.47 564.398l-.033-.063-.032-.048-.04-.046-.047-.032M81.318 564.209l-.664-.361M319.454 447.28l.055.008.048.024" style="fill:none;stroke:red;stroke-width:.999997;stroke-linecap:round;stroke-linejoin:round;stroke-miterlimit:4;stroke-dasharray:none;stroke-opacity:1;visibility:visible"/><path d="m182.534 512.561-.088.05-.09.069-.077.081-.081.087-.064.104-.065.112-.048.114-.04.119-.016.113-.014.118.006.104.016.105.033.087.039.072.056.065.066.047.07.026.081.006h.087l.089-.032.087-.04.09-.058.086-.07.082-.087.07-.097.064-.111.056-.112.04-.112.032-.121.017-.112v-.112l-.01-.103-.023-.095-.031-.08-.056-.074-.056-.056-.072-.031-.072-.027h-.09l-.087.018-.087.033M201.493 503.633l-.087.056-.089.064-.079.079-.081.09-.065.1-.056.107-.056.119-.031.113-.024.119-.008.113v.104l.016.101.032.09.04.073.056.061.065.051.071.023.072.014.087-.006.088-.024.089-.04.088-.064.079-.072.08-.079.074-.097.063-.112.055-.112.041-.111.03-.121.018-.111.008-.112-.016-.105-.017-.096-.039-.079-.048-.072-.056-.048-.072-.041-.073-.016-.079-.01-.09.018-.086.033M136.837 534.073l-.096.055-.088.064-.088.089-.072.087-.072.112-.064.113-.048.112-.04.12-.024.119-.008.112.008.112.016.105.032.088.048.07.056.065.065.049.079.024.08.015.096-.007.09-.032.094-.041.088-.063.088-.073.08-.088.08-.1.064-.106.056-.113.04-.121.03-.116.017-.124v-.112l-.008-.106-.023-.093-.041-.079-.047-.072-.064-.057-.07-.04-.083-.019h-.087l-.088.019-.096.032" style="fill:none;stroke:red;stroke-width:.666665;stroke-linecap:round;stroke-linejoin:round;stroke-miterlimit:4;stroke-dasharray:none;stroke-opacity:1;visibility:visible"/><path d="m319.454 447.28-.057-.007-.064-.009h-.072l-.062.01-.081.006-.08.017M319.036 447.297l-.095-.041M319.044 447.176l-.024.015-.015.009-.016.008-.017.016-.013.016-.018.016M75.67 561.16l-.04-.01-.032-.007-.032.006M452.15 492.903l-.513-.255-2.431 1.255" style="fill:none;stroke:red;stroke-width:.999997;stroke-linecap:round;stroke-linejoin:round;stroke-miterlimit:4;stroke-dasharray:none;stroke-opacity:1;visibility:visible"/><path d="m445.606 504.527.072-.03.064-.007.057.006.046.026.049.038.03.056.026.063.017.081v.088l-.017.095-.016.097-.04.096-.039.096-.049.09-.056.078-.064.064-.064.063-.072.039-.065.029-.063.005h-.057l-.047-.022-.05-.042-.029-.057-.026-.07-.016-.071v-.09l.016-.096.016-.097.033-.095.047-.096.048-.086.054-.08.067-.074.063-.056.065-.041M451.037 498.465l.063-.033.066-.008.056.008.047.024.05.04.03.056.023.064.009.081.01.087-.02.097-.022.095-.03.098-.04.092-.049.09-.056.081-.064.072-.066.056-.072.039-.063.022-.065.011h-.054l-.05-.027-.047-.038-.03-.056-.026-.072-.01-.079v-.083l.01-.093.025-.096.031-.096.041-.099.048-.088.058-.078.06-.071.065-.057.072-.039" style="fill:none;stroke:red;stroke-width:.666665;stroke-linecap:round;stroke-linejoin:round;stroke-miterlimit:4;stroke-dasharray:none;stroke-opacity:1;visibility:visible"/><path d="m448.535 500.745.03-.023.026-.042.016-.036.008-.044M449.207 493.904l-.05.033-.057.047-.034.065-.044.062-.031.081-.025.073-.008.074M451.772 492.643l-.036-.019-.05.008-.049.016M440.894 504.71l-.05.035-.046.048-.045.061-.044.068-.031.07-.016.08-.017.071M440.47 508.48v.065l.016.048.015.04.025.04.04.016M449.207 493.904h-.025M448.94 494.32v.005l.016.012M448.597 500.577l.01.004.006.019M451.637 492.648l-.016-.005-.01.005" style="fill:none;stroke:red;stroke-width:.999997;stroke-linecap:round;stroke-linejoin:round;stroke-miterlimit:4;stroke-dasharray:none;stroke-opacity:1;visibility:visible"/><path d="M448.51 500.737h.01l.017.008M440.87 504.71l.016-.005.01.005M440.628 505.123l.01.013.006.008M440.454 508.465l.01.007.006.008" style="fill:none;stroke:red;stroke-width:.999997;stroke-linecap:round;stroke-linejoin:round;stroke-miterlimit:4;stroke-dasharray:none;stroke-opacity:1;visibility:visible"/><path d="M452.519 493.321h0" style="fill:none;stroke:red;stroke-width:1.99999;stroke-linecap:round;stroke-linejoin:round;stroke-miterlimit:4;stroke-dasharray:none;stroke-opacity:1;visibility:visible"/><path d="m448.94 494.32.01-.056.006-.055.024-.058.016-.047.03-.047.037-.049.03-.041.042-.031.021-.013.027-.019M448.597 500.577l.344-6.256M448.51 500.737l.016-.01.015-.017.025-.03.007-.026.02-.029.004-.015v-.033M440.87 504.71l7.64-3.973M440.628 505.123l.01-.05.006-.058.024-.055.025-.057.026-.048.032-.039.03-.038.042-.034.021-.022.027-.012M440.494 507.71l.136-2.587M323.325 438.737l125.625 55.519" style="fill:none;stroke:red;stroke-width:.999997;stroke-linecap:round;stroke-linejoin:round;stroke-miterlimit:4;stroke-dasharray:none;stroke-opacity:1;visibility:visible"/><path d="m325.613 441.385-.12-.041-.113-.032-.111-.008-.104.008-.104.024-.087.041-.089.056-.077.07-.075.089-.056.097-.039.11-.033.12-.023.13-.009.136.01.144.014.143.032.144.048.154.056.142.065.137.079.136.08.127.096.12.104.105.104.096.11.08.114.063.112.049.11.04.114.016h.112l.103-.016.1-.033.093-.048.079-.063.072-.081.064-.088.049-.104.04-.12.032-.119.008-.137v-.144l-.008-.144-.024-.144-.04-.144-.047-.142-.065-.144-.072-.137-.08-.136-.088-.121-.105-.114-.103-.102-.104-.087-.112-.072-.112-.056M329.957 443.303l-.12-.039-.112-.022-.112-.018-.104.008-.104.024-.096.042-.088.056-.07.07-.074.087-.056.097-.048.114-.032.12-.013.125-.01.139v.142l.023.144.032.154.04.144.056.141.065.145.079.136.088.122.096.12.096.102.112.096.103.08.121.071.112.05.112.031.112.024h.112l.103-.014.1-.034.093-.046.08-.064.072-.083.065-.087.055-.112.032-.112.032-.128.019-.129v-.144l-.019-.141-.024-.146-.04-.152-.047-.144-.065-.142-.072-.136-.08-.128-.088-.128-.096-.114-.104-.097-.112-.085-.112-.074-.112-.065M333.806 445.056l-.087 3.025M333.806 445.056v-.104l-.016-.104-.033-.103-.038-.102-.056-.098-.056-.089-.073-.079-.08-.074-.081-.055-.08-.03-.079-.026-.08-.008-.073.016-.071.024-.056.048-.047.055-.042.073M333.254 448.49l.081.015h.078l.073-.015.064-.041.056-.05.048-.062.03-.072.025-.087.009-.096" style="fill:none;stroke:red;stroke-width:.666665;stroke-linecap:round;stroke-linejoin:round;stroke-miterlimit:4;stroke-dasharray:none;stroke-opacity:1;visibility:visible"/><path d="m322.99 445.056 125.422 55.737M319.798 450.672l120.993 54.096" style="fill:none;stroke:red;stroke-width:.999997;stroke-linecap:round;stroke-linejoin:round;stroke-miterlimit:4;stroke-dasharray:none;stroke-opacity:1;visibility:visible"/><path d="m320.717 448.256-.104-.039-.112-.04-.121-.033-.119-.024-.127-.024-.137-.015-.136-.008" style="fill:none;stroke:red;stroke-width:.666665;stroke-linecap:round;stroke-linejoin:round;stroke-miterlimit:4;stroke-dasharray:none;stroke-opacity:1;visibility:visible"/><path d="m320.837 449.121.088-.048.08-.064.056-.057.047-.063.034-.064.015-.072v-.064l-.023-.065-.034-.07-.047-.065-.064-.065-.07-.055-.098-.057-.104-.056M325.06 450.192l-.12-.048-.133-.039-.139-.032-.141-.033-.156-.015-.159-.017h-.304l-.153.017-.151.015-.135.033-.137.032-.12.05-.105.045-.095.05-.08.062-.064.065-.048.064-.03.07-.02.066.009.071.018.073.039.071.056.065.072.071.088.056.104.059.112.053.128.04.136.04.144.033.152.023.15.016.155.008h.159l.15-.008.154-.016.136-.023.136-.033.128-.04.121-.047.095-.046.088-.059.07-.063.065-.064.034-.065.023-.07.008-.074-.016-.07-.03-.074-.05-.063-.064-.073-.08-.056-.096-.063-.104-.057M332.237 450.112l.027.05.005.038-.005.05-.027.038-.03.05-.055.03-.059.041-4.615 2.184M327.478 452.593l-.081.03-.088.026-.095.015-.105.016h-.111l-.103-.008-.113-.008-.105-.02-.087-.027-.087-.03-.074-.042-.056-.05-.038-.047-.034-.048-.008-.048.008-.05.025-.046" style="fill:none;stroke:red;stroke-width:.666665;stroke-linecap:round;stroke-linejoin:round;stroke-miterlimit:4;stroke-dasharray:none;stroke-opacity:1;visibility:visible"/><path d="m334.317 441.297-1.61.761M334.317 441.297l.03-.024.025-.025v-.023l-.008-.035-.022-.02-.042-.017M332.39 442.05l.047.016.057.016h.12l.048-.008.047-.016M334.3 441.305v-.152" style="fill:none;stroke:red;stroke-width:.999997;stroke-linecap:round;stroke-linejoin:round;stroke-miterlimit:4;stroke-dasharray:none;stroke-opacity:1;visibility:visible"/><path d="m331.173 449.88.072-.033.08-.023.088-.017.08-.01h.168l.08.019.072.008.072.023.072.033.073.032.062.039.057.048.05.058.038.054M326.565 452.065l4.608-2.184M326.325 452.256l.039-.047.048-.048.042-.032.039-.024.032-.024.04-.016M332.79 444.648l-.088 3.032M332.79 444.648l.008-.048.008-.056.01-.048.013-.048.016-.048M333.254 448.49l-.064-.024-.072-.032-.057-.041-.063-.048-.056-.048-.05-.056-.047-.074-.047-.07-.033-.074-.032-.078-.015-.079-.017-.081v-.104" style="fill:none;stroke:red;stroke-width:.666665;stroke-linecap:round;stroke-linejoin:round;stroke-miterlimit:4;stroke-dasharray:none;stroke-opacity:1;visibility:visible"/><path d="m75.645 561.338-.352-.188" style="fill:none;stroke:red;stroke-width:.999997;stroke-linecap:round;stroke-linejoin:round;stroke-miterlimit:4;stroke-dasharray:none;stroke-opacity:1;visibility:visible"/><path d="m62.59 560.655-.136-.077M65.429 558.76l.344.184M62.326 560.417l.008.048.023.039.041.041.057.032M65.429 558.76l-.024-.016-.024-.008h-.024" style="fill:none;stroke:red;stroke-width:1.99999;stroke-linecap:round;stroke-linejoin:round;stroke-miterlimit:4;stroke-dasharray:none;stroke-opacity:1;visibility:visible"/><path d="m65.557 558.752-.039-.007h-.041l-.05.015M65.772 558.944l.05-.016h.04l.04.016" style="fill:none;stroke:red;stroke-width:1.99999;stroke-linecap:round;stroke-linejoin:round;stroke-miterlimit:4;stroke-dasharray:none;stroke-opacity:1;visibility:visible"/><path d="m75.293 561.15-.03-.015-.034-.008-.03.008M75.42 561.144l-.04-.008h-.04l-.048.015M75.645 561.338l.04-.016h.043l.037.016" style="fill:none;stroke:red;stroke-width:.999997;stroke-linecap:round;stroke-linejoin:round;stroke-miterlimit:4;stroke-dasharray:none;stroke-opacity:1;visibility:visible"/><path d="M62.63 560.664h-.024l-.015-.01M65.798 558.968l-.008-.015-.019-.009" style="fill:none;stroke:red;stroke-width:1.99999;stroke-linecap:round;stroke-linejoin:round;stroke-miterlimit:4;stroke-dasharray:none;stroke-opacity:1;visibility:visible"/><path d="m75.645 561.338.01.007.007.017" style="fill:none;stroke:red;stroke-width:.999997;stroke-linecap:round;stroke-linejoin:round;stroke-miterlimit:4;stroke-dasharray:none;stroke-opacity:1;visibility:visible"/><path d="M63.085 570.825h0M325.845 437.24l.144.056M325.412 437.21l.05-.01.055-.009.055-.006h.048l.048.006.05.008.06.018.066.024M322.957 438.312l.17-.11.166-.113.187-.106.189-.102.203-.097.197-.095.216-.097.224-.088.224-.079.224-.081.224-.07.232-.065M322.87 438.488v-.04h.008v-.024h.008v-.023h.01v-.017h.005v-.007h.008v-.014h.009v-.008h.008v-.01h.008v-.006h.008v-.01h.01v-.008h.005v-.009M322.717 443.69l.152-5.201M322.677 444.51l.016-.159.01-.168.005-.161.009-.167v-.166M322.485 444.881l.008-.008.008-.01.016-.009.016-.013.024-.025.015-.024.025-.031.016-.024.015-.04.008-.008v-.017l.017-.015.008-.033.008-.031.01-.043v-.04" style="fill:none;stroke:red;stroke-width:1.99999;stroke-linecap:round;stroke-linejoin:round;stroke-miterlimit:4;stroke-dasharray:none;stroke-opacity:1;visibility:visible"/><path d="m321.87 445.184.12-.063.13-.057.117-.065.128-.055.121-.063" style="fill:none;stroke:red;stroke-width:.999997;stroke-linecap:round;stroke-linejoin:round;stroke-miterlimit:4;stroke-dasharray:none;stroke-opacity:1;visibility:visible"/><path d="m325.99 437.297.016.015" style="fill:none;stroke:red;stroke-width:1.99999;stroke-linecap:round;stroke-linejoin:round;stroke-miterlimit:4;stroke-dasharray:none;stroke-opacity:1;visibility:visible"/><path d="M188.854 639.69h-.01M202.413 633.326h0M189.397 639.945l-.543-.255" style="fill:none;stroke:red;stroke-width:.999997;stroke-linecap:round;stroke-linejoin:round;stroke-miterlimit:4;stroke-dasharray:none;stroke-opacity:1;visibility:visible"/><path d="m192.485 627.28-.513-.319" style="fill:none;stroke:red;stroke-width:1.99999;stroke-linecap:round;stroke-linejoin:round;stroke-miterlimit:4;stroke-dasharray:none;stroke-opacity:1;visibility:visible"/><path d="m202.206 629.44-.513-.319" style="fill:none;stroke:red;stroke-width:.999997;stroke-linecap:round;stroke-linejoin:round;stroke-miterlimit:4;stroke-dasharray:none;stroke-opacity:1;visibility:visible"/><path d="m202.206 629.44.056.039.047.046.048.068.033.062.023.073.008.07v.057l-.008 3.47M202.413 633.326l-.008.067-.016.062-.024.055-.032.056-.048.05-.048.04-.039.025M192.708 627.704l-.008 2.15M202.198 633.68l-11.913 6.216M192.485 627.28l.056.048.056.05.039.063.033.063.023.075.008.07.008.055M190.285 639.895l-.104.05-.095.033-.106.03-.103.014h-.192l-.104-.014-.088-.025-.08-.03M191.756 626.968l.033-.016.032-.01.032-.005h.064l.024.015.031.01" style="fill:none;stroke:red;stroke-width:1.99999;stroke-linecap:round;stroke-linejoin:round;stroke-miterlimit:4;stroke-dasharray:none;stroke-opacity:1;visibility:visible"/><path d="m191.756 626.968-.879.456M201.478 629.123l-.88.455M188.462 638.905v.005M201.478 629.123l.03-.013.034-.015h.03l.034-.007.03.007.026.008.03.02" style="fill:none;stroke:red;stroke-width:.999997;stroke-linecap:round;stroke-linejoin:round;stroke-miterlimit:4;stroke-dasharray:none;stroke-opacity:1;visibility:visible"/><path d="m188.83 639.68-.039-.025-.065-.048-.048-.047-.047-.056-.041-.064-.04-.065-.03-.079-.026-.08-.016-.095-.013-.105v-.105" style="fill:none;stroke:red;stroke-width:1.99999;stroke-linecap:round;stroke-linejoin:round;stroke-miterlimit:4;stroke-dasharray:none;stroke-opacity:1;visibility:visible"/><path d="m76.518 564.311-.088.05-.09.037" style="fill:none;stroke:red;stroke-width:.666665;stroke-linecap:round;stroke-linejoin:round;stroke-miterlimit:4;stroke-dasharray:none;stroke-opacity:1;visibility:visible"/><path d="m80.845 566.655-.112.068-.128.045-.135.048M189.092 639.6h0" style="fill:none;stroke:red;stroke-width:.999997;stroke-linecap:round;stroke-linejoin:round;stroke-miterlimit:4;stroke-dasharray:none;stroke-opacity:1;visibility:visible"/><path d="m65.806 558.968.048-.015h.039l.041.008" style="fill:none;stroke:red;stroke-width:1.99999;stroke-linecap:round;stroke-linejoin:round;stroke-miterlimit:4;stroke-dasharray:none;stroke-opacity:1;visibility:visible"/><path d="m75.677 561.353.04-.016h.047l.034.016" style="fill:none;stroke:red;stroke-width:.999997;stroke-linecap:round;stroke-linejoin:round;stroke-miterlimit:4;stroke-dasharray:none;stroke-opacity:1;visibility:visible"/><path d="m63.206 570.89 125.344 68.486M65.934 558.96l6.896 3.727M78.98 566.017l1.49.8M81.249 564.294l120.205 64.841" style="fill:none;stroke:red;stroke-width:1.99999;stroke-linecap:round;stroke-linejoin:round;stroke-miterlimit:4;stroke-dasharray:none;stroke-opacity:1;visibility:visible"/><path d="m320.708 453.592.048.03.041.04.04.04.024.042.024.04.008.047h.01M318.949 453.537l.016-.007.015-.017.017-.01.016-.007.017-.007.014-.01.017-.005.016-.009.015-.01.016-.005.018-.009.023-.008.016-.008.016-.007.017-.008.015-.01.016-.007h.025l.015-.008.016-.008.016-.008h.016l.024-.008.016-.008h.015l.017-.01h.024l.015-.006h.016l.026-.01h.015l.016-.006h.017l.023-.01h.032l.024-.006h.072l.016-.008h.208l.016.008h.08l.016.007h.039l.017.009h.016l.023.007h.018l.016.009h.015l.024.007h.017l.015.009h.016l.024.008.016.008.016.008h.016l.024.008.016.008.016.007h.016l.015.01.025.008.016.007.015.008.018.008.016.01.015.005.016.009.017.01.015.005.024.009.016.007.016.008.016.017.016.01.016.006.016.008.016.017.016.004.01.011.013.016M316.845 455.417l.048.04.04.032.04.039.024.049.024.039.008.041v.008M315.077 455.368l.016-.015.015-.009.018-.005.016-.011.018-.008.021-.008.017-.015.018-.009.013-.008.016-.007.017-.009.015-.008h.016l.016-.008.024-.007.016-.009.016-.007.017-.008h.015l.024-.008.017-.009.016-.01h.016l.023-.005.016-.009h.017l.016-.008h.023l.016-.007h.017l.015-.008h.024l.019-.009h.037l.016-.008h.04l.016-.007h.296l.024.007h.057l.018.008h.038l.018.01h.013l.016.007h.027l.013.007h.016l.025.008h.015l.016.01.016.005h.024l.016.009.016.01.015.007h.018l.024.008.015.007.017.01.016.006.015.008h.016l.025.008.015.01.016.006.016.008.019.015.013.009.016.008.016.008.016.01.016.006.016.01.016.014.015.01.018.007.016.008.015.016.016.008" style="fill:none;stroke:red;stroke-width:.999997;stroke-linecap:round;stroke-linejoin:round;stroke-miterlimit:4;stroke-dasharray:none;stroke-opacity:1;visibility:visible"/><path d="m86.55 564.255.064.041.056.039.048.041.039.047.034.05.023.047.016.047.008.05v.026M84.74 564.302l.016-.015.015-.008.018-.008.016-.006.018-.01.013-.014.017-.01.026-.008.013-.006.016-.008.017-.01.015-.006.016-.011.016-.005.024-.011.016-.005.016-.011.017-.007.015-.006h.024l.017-.008.016-.008.016-.011h.023l.016-.005.017-.01.023-.008h.016l.016-.006h.019l.021-.008h.016l.019-.008h.021l.016-.01h.017l.023-.006h.033l.024-.01h.039l.016-.008h.072l.024-.009h.152l.015.01h.098l.015.007h.041l.015.01h.04l.024.006h.016l.016.01h.024l.016.008h.016l.015.008h.026l.018.006.013.008h.025l.018.01.013.005.016.01h.027l.013.009.016.008.016.006.024.007h.016l.016.01.015.006.017.01.016.006.023.01.018.007.016.01.018.008.013.014.017.01.016.006.015.008" style="fill:none;stroke:red;stroke-width:.666665;stroke-linecap:round;stroke-linejoin:round;stroke-miterlimit:4;stroke-dasharray:none;stroke-opacity:1;visibility:visible"/><path d="m91.181 562.073.056.032.056.05.048.037.039.05.033.039.023.045.018.056.008.051v.024" style="fill:none;stroke:red;stroke-width:.999997;stroke-linecap:round;stroke-linejoin:round;stroke-miterlimit:4;stroke-dasharray:none;stroke-opacity:1;visibility:visible"/><path d="m89.365 562.11.016-.007.024-.008.016-.014.016-.01.017-.008.016-.006.016-.008.018-.01.014-.006.016-.018.016-.009.023-.008.017-.007.016-.008.015-.006h.016l.017-.01.023-.008.016-.009.016-.007.017-.006h.023l.016-.01.016-.005.017-.012h.024l.015-.007.017-.009h.024l.015-.007h.016l.025-.008h.015l.016-.008h.025l.015-.006h.016l.024-.011h.032l.024-.008h.057l.015-.008h.264l.025.008h.056l.016.008h.039l.017.01h.039l.016.007h.025l.015.008h.016l.025.008h.015l.016.007.016.01h.025l.016.006.016.012h.015l.025.005.016.01.015.006.017.007h.024l.015.01.016.007.017.01.015.006.024.008.016.007.016.008.016.01.016.006.016.01.017.007.024.01.018.014.013.008" style="fill:none;stroke:red;stroke-width:.666665;stroke-linecap:round;stroke-linejoin:round;stroke-miterlimit:4;stroke-dasharray:none;stroke-opacity:1;visibility:visible"/><path d="m324.34 456.24.039-.032.042-.041.032-.047.016-.064M324.47 456.056l.056-.305.047-.31.034-.321.014-.33.008-.326-.008-.336-.023-.345-.033-.342-.039-.354" style="fill:none;stroke:red;stroke-width:.999997;stroke-linecap:round;stroke-linejoin:round;stroke-miterlimit:4;stroke-dasharray:none;stroke-opacity:1;visibility:visible"/><path d="m324.526 453.088-.017-.056-.023-.056-.032-.048-.05-.039-.04-.034-.671-.294M323.692 452.561l-.03-.01-.042-.006-.03.016M322.636 453.009l-1.408-.632M321.229 452.377l-.039-.025-.041-.04-.041-.048-.022-.055-.322-.856M320.764 451.353l-.024-.056-.032-.05-.039-.03-.041-.032-.67-.295M319.957 450.89l-.048-.025-.037-.04-.035-.048-.021-.055-.018-.059v-.054l.074-2.624M319.557 447.312l.072.041.065.056.056.063.04.08.039.097.027.103.006.115.007.117M319.19 447.161l-.03-.008h-.026l-.027.008h-.014l-.024.005-.023.01M319.285 447.19l-.048-.024-.047-.005M75.565 561.15l-.024.02-.015.03" style="fill:none;stroke:red;stroke-width:.999997;stroke-linecap:round;stroke-linejoin:round;stroke-miterlimit:4;stroke-dasharray:none;stroke-opacity:1;visibility:visible"/><path d="m88.58 568.248 235.76-112.006" style="fill:none;stroke:red;stroke-width:1.99999;stroke-linecap:round;stroke-linejoin:round;stroke-miterlimit:4;stroke-dasharray:none;stroke-opacity:1;visibility:visible"/><path d="m322.636 453.009.953-.448" style="fill:none;stroke:red;stroke-width:.999997;stroke-linecap:round;stroke-linejoin:round;stroke-miterlimit:4;stroke-dasharray:none;stroke-opacity:1;visibility:visible"/><path d="m95.264 551.89 210.31-98.876" style="fill:none;stroke:red;stroke-width:1.99999;stroke-linecap:round;stroke-linejoin:round;stroke-miterlimit:4;stroke-dasharray:none;stroke-opacity:1;visibility:visible"/><path d="m319.285 447.19.272.121" style="fill:none;stroke:red;stroke-width:.999997;stroke-linecap:round;stroke-linejoin:round;stroke-miterlimit:4;stroke-dasharray:none;stroke-opacity:1;visibility:visible"/><path d="m452.278 492.897-.507-.253M441.1 508.897l-.533-.208" style="fill:none;stroke:red;stroke-width:1.99999;stroke-linecap:round;stroke-linejoin:round;stroke-miterlimit:4;stroke-dasharray:none;stroke-opacity:1;visibility:visible"/><path d="M441.479 508.873h0l-.056.015-.05.022-.054.011h-.105l-.046-.01-.068-.014" style="fill:none;stroke:red;stroke-width:.999997;stroke-linecap:round;stroke-linejoin:round;stroke-miterlimit:4;stroke-dasharray:none;stroke-opacity:1;visibility:visible"/><path d="m441.479 508.873 9.712-5.075M452.012 502.41l.507-9.088M452.012 502.41l-.016.101-.013.112-.027.106-.03.112-.033.097-.04.105-.046.094-.05.096-.056.078-.056.09-.064.08-.062.072-.082.07-.081.067-.079.064-.086.045M452.278 492.897l.063.04.05.041.036.055.044.055.023.056.016.072.01.049v.056" style="fill:none;stroke:red;stroke-width:1.99999;stroke-linecap:round;stroke-linejoin:round;stroke-miterlimit:4;stroke-dasharray:none;stroke-opacity:1;visibility:visible"/><path d="m451.613 492.648.027-.016.029-.008h.056l.027.008h.014M440.454 508.465l.04-.755M440.557 508.69l-.023-.016-.024-.025-.025-.024-.013-.031-.008-.04-.01-.043v-.045" style="fill:none;stroke:red;stroke-width:.999997;stroke-linecap:round;stroke-linejoin:round;stroke-miterlimit:4;stroke-dasharray:none;stroke-opacity:1;visibility:visible"/><path d="m319.83 449.322.143-.01.146-.007.135-.015.136-.017.12-.032.121-.031.112-.039.095-.049M320.837 449.121l.04-.048.024-.04.019-.05" style="fill:none;stroke:red;stroke-width:.666665;stroke-linecap:round;stroke-linejoin:round;stroke-miterlimit:4;stroke-dasharray:none;stroke-opacity:1;visibility:visible"/><path d="m324.134 456.336 116.32 52.175M326.02 437.312l125.545 55.36M63.085 570.825l.083.048M62.55 569.199l-.224-8.781M62.606 570.034l-.016-.168-.015-.17-.009-.169-.008-.166-.008-.162M63.085 570.825l-.08-.047-.079-.068-.064-.061-.064-.083-.057-.078-.04-.094-.032-.082-.032-.087-.016-.097-.013-.094M62.326 560.417l.008-.048.008-.057.023-.047.025-.048.039-.04.049-.039M62.478 560.138l.193-.144.207-.139.215-.128.225-.134.232-.122.248-.118.247-.12.256-.112.264-.104.257-.095.27-.097.265-.088M65.901 558.944l-.344-.192M65.357 558.737h.016l.01-.01h.113v.01h.022v.008h.024v.007h.015M72.397 562.456l2.803-1.32" style="fill:none;stroke:red;stroke-width:1.99999;stroke-linecap:round;stroke-linejoin:round;stroke-miterlimit:4;stroke-dasharray:none;stroke-opacity:1;visibility:visible"/><path d="m75.42 561.144.344.195M75.198 561.136h.016v-.008h.023v-.005h.042l.006-.012h.033l.008.012h.039v.005h.026v.008h.014l.008.008h.008" style="fill:none;stroke:red;stroke-width:.999997;stroke-linecap:round;stroke-linejoin:round;stroke-miterlimit:4;stroke-dasharray:none;stroke-opacity:1;visibility:visible"/><path d="m63.19 570.881-.025-.01M65.901 558.944l.017.01" style="fill:none;stroke:red;stroke-width:1.99999;stroke-linecap:round;stroke-linejoin:round;stroke-miterlimit:4;stroke-dasharray:none;stroke-opacity:1;visibility:visible"/><path d="m75.764 561.338.016.007M75.798 561.353l5.45 2.941" style="fill:none;stroke:red;stroke-width:.999997;stroke-linecap:round;stroke-linejoin:round;stroke-miterlimit:4;stroke-dasharray:none;stroke-opacity:1;visibility:visible"/><path d="M325.96 450.479c0 .487-.816.883-1.823.883-1.007 0-1.819-.396-1.819-.883s.812-.881 1.82-.881c1.007 0 1.821.394 1.821.881" style="fill:none;fill-opacity:1;fill-rule:nonzero;stroke:red;stroke-width:1.33333;visibility:visible"/><path d="m325.85 450.426-.001.189M322.405 450.375l-.002.19M325.753 450.838a.313.313 0 0 0 .096-.223M322.403 450.564c0 .084.03.167.09.227M322.493 450.791a1.324 1.324 0 0 0 .506.323M323 451.114a3.543 3.543 0 0 0 2.234.032M325.235 451.146a1.303 1.303 0 0 0 .519-.308M324.703 450.408l-.29.202M323.813 450.594l-.256-.204M324.413 450.608l-.603-.014M325.85 450.426a.307.307 0 0 0-.087-.226M325.762 450.199a1.292 1.292 0 0 0-.508-.324M325.254 449.876a3.552 3.552 0 0 0-2.236-.033M323.018 449.842a1.305 1.305 0 0 0-.519.308M322.5 450.152a.324.324 0 0 0-.094.223" style="fill:none;stroke:red;stroke-width:.666665;stroke-linecap:round;stroke-linejoin:round;stroke-miterlimit:2;stroke-dasharray:none;stroke-opacity:1;visibility:visible"/><path d="m74.654 563.672.99.545M75.645 564.216l3.336 1.8M72.83 562.688l1.824.984" style="fill:none;stroke:red;stroke-width:1.99999;stroke-linecap:round;stroke-linejoin:round;stroke-miterlimit:4;stroke-dasharray:none;stroke-opacity:1;visibility:visible"/><path d="m202.198 633.68-4.601-.024M190.285 639.895l7.312-6.239M192.692 633.689l-1.542-.272M190.285 639.895l.865-6.478M84.192 567.962l-1.905-.163" style="fill:none;stroke:red;stroke-width:.666665;stroke-linecap:round;stroke-linejoin:round;stroke-miterlimit:4;stroke-dasharray:none;stroke-opacity:1;visibility:visible"/><path d="m318.949 453.537-8.373 2.395" style="fill:none;stroke:red;stroke-width:.999997;stroke-linecap:round;stroke-linejoin:round;stroke-miterlimit:4;stroke-dasharray:none;stroke-opacity:1;visibility:visible"/><path d="m440.87 504.71 4.736-.183M440.87 504.71l4.736-.183M448.51 500.737l2.527-2.272M448.51 500.737l2.527-2.272M323.325 438.737l2.288 2.648M323.293 438.72l2.32 2.665M332.39 442.05l-2.433 1.253M322.798 443.769l7.159-.466" style="fill:none;stroke:red;stroke-width:.666665;stroke-linecap:round;stroke-linejoin:round;stroke-miterlimit:4;stroke-dasharray:none;stroke-opacity:1;visibility:visible"/><path d="m84.192 567.962 4.388.286M84.192 567.962l11.072-16.072M318.949 453.537l-13.375-.523" style="fill:none;stroke:red;stroke-width:1.99999;stroke-linecap:round;stroke-linejoin:round;stroke-miterlimit:4;stroke-dasharray:none;stroke-opacity:1;visibility:visible"/><path d="m320.903 453.83-1.073-4.508" style="fill:none;stroke:red;stroke-width:.666665;stroke-linecap:round;stroke-linejoin:round;stroke-miterlimit:4;stroke-dasharray:none;stroke-opacity:1;visibility:visible"/><path d="m66.387 538.245-.088-.038-.099-.032-.077-.01-.08.009-.08.021-.064.041-.064.057-.048.07M67.626 538.357l.114 4.351M70.986 540.75l-.08-.083-.078-.059-.088-.05M70.97 542.517l.031.007h.035M70.74 540.557l-.088-.04-.098-.026-.078-.004-.09.005-.072.024-.064.041-.064.056-.046.063M70.514 357.47l-.256.144-.272.143-.286.145-.306.136-.318.127-.328.12-.346.112-.352.113-.366.104M70.57 357.397l-.008.023-.016.027-.032.023M68.274 357.06l.047.019.065.014h.138l.958-.103M68.186 357.02l.088.04M57.53 354.253l-.053-.031-.041-.033-.024-.042-.01-.037M67.026 358.582l-9.496-4.328M71.298 540.308l-4.27-181.726M67.684 358.615l-.098.015-.096.017h-.104l-.104-.007-.096-.01-.085-.02-.073-.027M70.522 542.723l.506-.23M69.684 540.892l.598-.279M66.17 540.404l.6-.27M65.33 538.575l.608-.283M69.586 540.956l-.056.064-.038.08-.034.093-.022.108v.247l.022.13.034.126.038.137.056.127.064.127.075.115.077.113.09.085.094.085.09.068.094.047.088.03.098.019h.08M65.379 538.557l-.074.031-.07.047-.049.065-.046.091-.033.085-.017.112-.007.112.007.127.017.13.032.135.04.128.058.128.06.128.074.112.079.11.089.098.094.081.09.064.096.05.088.029.086.016h.09l.08-.023" style="fill:none;stroke:#00ff4a;stroke-width:.999997;stroke-linecap:round;stroke-linejoin:round;stroke-miterlimit:4;stroke-dasharray:none;stroke-opacity:1;visibility:visible" visibility="hidden"/><path d="m66.618 540.195.089.012.087-.012.073-.03.071-.041.055-.064.05-.072.041-.088.022-.107.016-.109.008-.121-.016-.127-.016-.13-.032-.132-.046-.13-.058-.127-.064-.126-.072-.123-.078-.11-.09-.098-.088-.088-.087-.07-.097-.058" style="fill:none;stroke:#00ff4a;stroke-width:.999997;stroke-linecap:round;stroke-linejoin:round;stroke-miterlimit:4;stroke-dasharray:none;stroke-opacity:1;visibility:visible" visibility="hidden"/><path d="m65.45 349.453-.16-.071" style="fill:none;stroke:#00ff4a;stroke-width:1.99999;stroke-linecap:round;stroke-linejoin:round;stroke-miterlimit:4;stroke-dasharray:none;stroke-opacity:1;visibility:visible" visibility="hidden"/><path d="m67.89 350.56-.297.11M66.546 352.311l-.086-.081-.097-.064-.099-.047-.093-.032-.096-.017-.09.008-.085.015-.073.04-.072.057-.056.07M66.459 354.214l.064.01h.064M67.593 350.78v-.11M61.947 352.158l.096.017.087-.01.089-.03.08-.042.064-.064.064-.08.048-.095.032-.11.022-.121.011-.129-.011-.136-.014-.144-.032-.144-.04-.144-.056-.144-.067-.128-.077-.128-.08-.121-.087-.103-.099-.088-.094-.07-.104-.058-.095-.04-.104-.024h-.09l-.086.024-.091.041-.07.056-.056.07M60.084 355.167l.206-.201" style="fill:none;stroke:#00ff4a;stroke-width:.999997;stroke-linecap:round;stroke-linejoin:round;stroke-miterlimit:4;stroke-dasharray:none;stroke-opacity:1;visibility:visible" visibility="hidden"/><path d="m65.387 349.333.032-.023.024-.023v-.026M65.29 349.382l.098-.05" style="fill:none;stroke:#00ff4a;stroke-width:1.99999;stroke-linecap:round;stroke-linejoin:round;stroke-miterlimit:4;stroke-dasharray:none;stroke-opacity:1;visibility:visible" visibility="hidden"/><path d="M66.546 352.47v-.153l.017-.142.031-.153.039-.153.058-.151.063-.145.072-.133.087-.13.088-.12.097-.104.103-.088.112-.081.105-.055M67.593 350.78l-.175.083M66.684 358.117l-.138-5.647M66.684 358.175v-.058M67.593 350.78l.032-.024.016-.016v-.023l-.016-.024-.032-.023M60.657 347.287l-.294.11" style="fill:none;stroke:#00ff4a;stroke-width:.999997;stroke-linecap:round;stroke-linejoin:round;stroke-miterlimit:4;stroke-dasharray:none;stroke-opacity:1;visibility:visible" visibility="hidden"/><path d="M65.387 349.429v-.096" style="fill:none;stroke:#00ff4a;stroke-width:1.99999;stroke-linecap:round;stroke-linejoin:round;stroke-miterlimit:4;stroke-dasharray:none;stroke-opacity:1;visibility:visible" visibility="hidden"/><path d="m61.49 352.342.626-.25M60.723 350.391l.634-.241M66.001 354.391l.584-.225M65.235 352.437l.633-.24M61.13 352.317l.098.032.096.016.088-.007.08-.024M60.763 350.382l-.08.032-.073.048-.063.07-.057.09-.04.095-.022.113-.018.119v.138l.017.135.025.136.038.145.057.135.053.127.077.13.078.112.089.095.095.087.096.073.094.056M65.641 354.366l.099.03.096.021h.084l.087-.024M65.195 352.462l-.072.047-.064.073-.059.088-.037.097-.023.11-.017.131v.126l.017.136.023.139.037.14.06.137.055.13.072.125.09.113.079.104.094.08.098.072.095.056M63.587 356.76l-.192-8.152" style="fill:none;stroke:#00ff4a;stroke-width:.999997;stroke-linecap:round;stroke-linejoin:round;stroke-miterlimit:4;stroke-dasharray:none;stroke-opacity:1;visibility:visible" visibility="hidden"/><path d="m65.17 541.341 2.57 1.367M68.058 542.723l-.065.016-.072.01-.07-.009-.066-.011-.045-.019M68.058 542.723l.032-.006M68.09 542.717l.04-.009.046-.005.042.005.032.015M68.25 542.723l1.25.666" style="fill:none;stroke:#00ff4a;stroke-width:1.99999;stroke-linecap:round;stroke-linejoin:round;stroke-miterlimit:4;stroke-dasharray:none;stroke-opacity:1;visibility:visible" visibility="hidden"/><path d="m64.921 541.341.049-.016.057-.005h.056l.046.005.042.016" style="fill:none;stroke:#00ff4a;stroke-width:.999997;stroke-linecap:round;stroke-linejoin:round;stroke-miterlimit:4;stroke-dasharray:none;stroke-opacity:1;visibility:visible" visibility="hidden"/><path d="m63.467 540.564-.111-4.477" style="fill:none;stroke:#00ff4a;stroke-width:1.99999;stroke-linecap:round;stroke-linejoin:round;stroke-miterlimit:4;stroke-dasharray:none;stroke-opacity:1;visibility:visible" visibility="hidden"/><path d="m64.921 541.341-.191.072" style="fill:none;stroke:#00ff4a;stroke-width:.999997;stroke-linecap:round;stroke-linejoin:round;stroke-miterlimit:4;stroke-dasharray:none;stroke-opacity:1;visibility:visible" visibility="hidden"/><path d="m64.02 541.38-.225-.144M72.45 540.175l.112 4.933M63.467 540.564l.017.121.015.12.04.103.049.105.055.08.073.081.079.062M64.02 541.38l.087.04.096.03.096.027h.104l.112-.009.104-.023.111-.033M63.336 536.072l-1.196-.637" style="fill:none;stroke:#00ff4a;stroke-width:1.99999;stroke-linecap:round;stroke-linejoin:round;stroke-miterlimit:4;stroke-dasharray:none;stroke-opacity:1;visibility:visible" visibility="hidden"/><path d="m57.403 354.11.009-.033.017-.04.031-.029.047-.034M71.938 540.348l-.096.015-.096.017-.096.012-.096-.012-.096-.017-.088-.023-.07-.033-7.964-4.235" style="fill:none;stroke:#00ff4a;stroke-width:.999997;stroke-linecap:round;stroke-linejoin:round;stroke-miterlimit:4;stroke-dasharray:none;stroke-opacity:1;visibility:visible" visibility="hidden"/><path d="m57.507 353.975.233-.13.239-.119.248-.118.263-.113.266-.113M62.14 535.436l-.056-.028-.04-.044-.024-.041-.008-.046" style="fill:none;stroke:#00ff4a;stroke-width:1.99999;stroke-linecap:round;stroke-linejoin:round;stroke-miterlimit:4;stroke-dasharray:none;stroke-opacity:1;visibility:visible" visibility="hidden"/><path d="m69.378 354.415.016.04.01.035.006.029.008.032.008.039v.04M68.77 353.957l-.105-.032-.11-.016h-.114l-.119.016-.121.04M68.114 353.995l.087-.03" style="fill:none;stroke:#00ff4a;stroke-width:.999997;stroke-linecap:round;stroke-linejoin:round;stroke-miterlimit:4;stroke-dasharray:none;stroke-opacity:1;visibility:visible" visibility="hidden"/><path d="m69.05 354.086.096.056.088.07.08.098.063.104" style="fill:none;stroke:#00ff4a;stroke-width:1.99999;stroke-linecap:round;stroke-linejoin:round;stroke-miterlimit:4;stroke-dasharray:none;stroke-opacity:1;visibility:visible" visibility="hidden"/><path d="m69.482 356.99.072-.008" style="fill:none;stroke:#00ff4a;stroke-width:.999997;stroke-linecap:round;stroke-linejoin:round;stroke-miterlimit:4;stroke-dasharray:none;stroke-opacity:1;visibility:visible" visibility="hidden"/><path d="M69.554 356.982h.14l.059.016.051.016.694.319" style="fill:none;stroke:#00ff4a;stroke-width:1.99999;stroke-linecap:round;stroke-linejoin:round;stroke-miterlimit:4;stroke-dasharray:none;stroke-opacity:1;visibility:visible" visibility="hidden"/><path d="m70.498 357.333.04.016.024.026.008.022" style="fill:none;stroke:#00ff4a;stroke-width:.999997;stroke-linecap:round;stroke-linejoin:round;stroke-miterlimit:4;stroke-dasharray:none;stroke-opacity:1;visibility:visible" visibility="hidden"/><path d="m63.707 348.429-.058-.015-.064-.01-.072-.008-.07.007-.073.02-.13.03-2.583-1.165" style="fill:none;stroke:#00ff4a;stroke-width:1.99999;stroke-linecap:round;stroke-linejoin:round;stroke-miterlimit:4;stroke-dasharray:none;stroke-opacity:1;visibility:visible" visibility="hidden"/><path d="m65.443 349.26-.008-.022-.016-.025-.04-.023-1.672-.761M67.89 350.56l-2.44-1.108M69.05 354.086l-.28-.13M74.706 538.981 70.57 357.397M69.482 356.99l-.056-2.36M62.012 535.277l-4.61-181.167M74.666 539.053l-.246.167-.264.17-.28.15-.296.153-.304.143-.32.144-.328.128-.336.12-.352.12M74.706 538.981v.026l-.016.023-.025.023" style="fill:none;stroke:#00ff4a;stroke-width:1.99999;stroke-linecap:round;stroke-linejoin:round;stroke-miterlimit:4;stroke-dasharray:none;stroke-opacity:1;visibility:visible" visibility="hidden"/><path d="m68.042 350.717-.016-.047-.025-.04-.045-.04-.066-.032" style="fill:none;stroke:#00ff4a;stroke-width:.999997;stroke-linecap:round;stroke-linejoin:round;stroke-miterlimit:4;stroke-dasharray:none;stroke-opacity:1;visibility:visible" visibility="hidden"/><path d="m59.867 347.26.096-.022.104-.018.105-.007h.216l.096.016.095.025.08.033" style="fill:none;stroke:#00ff4a;stroke-width:1.99999;stroke-linecap:round;stroke-linejoin:round;stroke-miterlimit:4;stroke-dasharray:none;stroke-opacity:1;visibility:visible" visibility="hidden"/><path d="M58.787 354.575v-.082" style="fill:none;stroke:#00ff4a;stroke-width:.999997;stroke-linecap:round;stroke-linejoin:round;stroke-miterlimit:4;stroke-dasharray:none;stroke-opacity:1;visibility:visible" visibility="hidden"/><path d="m58.641 348.863.144 5.632" style="fill:none;stroke:#00ff4a;stroke-width:1.99999;stroke-linecap:round;stroke-linejoin:round;stroke-miterlimit:4;stroke-dasharray:none;stroke-opacity:1;visibility:visible" visibility="hidden"/><path d="m59.667 347.333.2-.073" style="fill:none;stroke:#00ff4a;stroke-width:.999997;stroke-linecap:round;stroke-linejoin:round;stroke-miterlimit:4;stroke-dasharray:none;stroke-opacity:1;visibility:visible" visibility="hidden"/><path d="m68.112 353.863-.07-3.145M59.667 347.333l-.127.049-.12.064-.12.087-.12.097-.103.103-.097.129-.088.128-.08.136-.056.144-.048.153-.041.142-.017.152-.007.145" style="fill:none;stroke:#00ff4a;stroke-width:1.99999;stroke-linecap:round;stroke-linejoin:round;stroke-miterlimit:4;stroke-dasharray:none;stroke-opacity:1;visibility:visible" visibility="hidden"/><path d="m68.194 357.549.008.065.01.072.01.079.011.074.025.079.024.075.032.076.034.08.024.058M68.194 357.549l-.082-3.687" style="fill:none;stroke:#00ff4a;stroke-width:.999997;stroke-linecap:round;stroke-linejoin:round;stroke-miterlimit:4;stroke-dasharray:none;stroke-opacity:1;visibility:visible" visibility="hidden"/><path d="m65.45 349.453-.006-.193" style="fill:none;stroke:#00ff4a;stroke-width:1.99999;stroke-linecap:round;stroke-linejoin:round;stroke-miterlimit:4;stroke-dasharray:none;stroke-opacity:1;visibility:visible" visibility="hidden"/><path d="m71.298 540.308-3.672-1.951M66.684 358.117l-3.097-1.357" style="fill:none;stroke:#00ff4a;stroke-width:.999997;stroke-linecap:round;stroke-linejoin:round;stroke-miterlimit:4;stroke-dasharray:none;stroke-opacity:1;visibility:visible" visibility="hidden"/><path d="m70.74 540.558-1.24 2.831M74.706 538.981l-2.144 6.127M61.49 352.342l-2.734 1.04" style="fill:none;stroke:#00ff4a;stroke-width:1.99999;stroke-linecap:round;stroke-linejoin:round;stroke-miterlimit:4;stroke-dasharray:none;stroke-opacity:1;visibility:visible" visibility="hidden"/><path d="m331.106 415.342-.04-.128-.024-.127-.016-.121-.006-.122.006-.12.016-.109.035-.105.037-.087.056-.081.056-.072.073-.056.079-.039.09-.027.085-.014.096.01.097.013.096.039M331.842 414.196l.104.05.096.064.097.081.087.096.08.101.08.115.064.119.056.121.04.135.032.126.022.128.01.128-.01.122-.013.113-.033.112-.048.093-.048.082-.072.072-.072.056-.08.04-.087.025-.097.007-.096-.007-.104-.025-.103-.048-.097-.056-.096-.072-.096-.079-.088-.097-.08-.103-.072-.123M331.265 410.246l-.04-.13-.031-.124-.015-.122-.009-.128.01-.12.013-.112.033-.102.039-.092.048-.088.065-.065.072-.061.079-.042.08-.022.098-.018.093.008.099.018.094.04M331.993 409.086l.105.048.094.061.098.083.088.097.087.103.072.112.063.118.056.13.051.124.033.138.015.13.007.128-.008.118-.014.12-.033.106-.051.092-.055.082-.063.071-.08.059-.08.038-.088.018-.098.006-.102-.006-.097-.032-.103-.042-.104-.057-.096-.07-.098-.086-.078-.107-.08-.105-.072-.117" style="fill:none;stroke:#9500ff;stroke-width:.666665;stroke-linecap:round;stroke-linejoin:round;stroke-miterlimit:4;stroke-dasharray:none;stroke-opacity:1;visibility:visible" visibility="hidden"/><path d="m331.562 414.99.056.03.047.043.049.053.043.074.02.065.018.07v.072l-.017.063-.021.05-.035.038-.039.024-.057.01-.056-.01-.048-.024-.056-.038-.046-.05-.042-.064-.03-.064-.028-.07-.007-.072.007-.064.019-.056.031-.05.042-.03.046-.015h.048l.056.015M326.92 408.855l-.062-.027-.073-.037M331.714 409.878l.056.032.056.038.039.06.042.067.023.068.016.07v.072l-.017.065-.022.046-.033.04-.04.026-.056.008-.048-.008-.055-.026-.057-.032-.048-.054-.04-.056-.032-.07-.024-.077-.01-.071.011-.062.015-.056.03-.048.043-.032.047-.018h.047l.057.018" style="fill:none;stroke:#9500ff;stroke-width:.666665;stroke-linecap:round;stroke-linejoin:round;stroke-miterlimit:4;stroke-dasharray:none;stroke-opacity:1;visibility:visible" visibility="hidden"/><path d="m332.928 419.342-.14 4.886M330.434 417.806l-.152 5.336M326.882 407.975l.016.07v.058l-.008.063-.025.048-.023.04-.042.03-.04.02" style="fill:none;stroke:#9500ff;stroke-width:.999997;stroke-linecap:round;stroke-linejoin:round;stroke-miterlimit:4;stroke-dasharray:none;stroke-opacity:1;visibility:visible" visibility="hidden"/><path d="m327.2 418.508.084.04.078.06.072.067.064.088.064.09.05.093.036.106.026.104.016.104v.096l-.016.095-.025.089-.039.074-.049.061-.054.041-.064.031-.073.016h-.081l-.08-.02-.079-.036-.081-.047-.079-.065-.073-.079-.057-.089-.055-.096-.047-.096-.032-.103-.016-.102-.008-.106.008-.096.016-.088.032-.08.041-.073.056-.047.062-.04.072-.025.073-.007.078.008.08.032M331.57 420.396l.08.051.08.053.072.076.064.076.064.1.048.093.032.105.031.104.009.102v.1l-.008.091-.023.089-.041.074-.048.054-.055.051-.073.032-.072.015h-.08l-.08-.024-.08-.032-.08-.058-.07-.064-.075-.07-.063-.088-.055-.098-.041-.104-.03-.104-.026-.1-.008-.099.008-.105.025-.086.03-.08.043-.063.054-.059.056-.036.07-.028h.084l.078.008.08.024" style="fill:none;stroke:#9500ff;stroke-width:.666665;stroke-linecap:round;stroke-linejoin:round;stroke-miterlimit:4;stroke-dasharray:none;stroke-opacity:1;visibility:visible" visibility="hidden"/><path d="m328.329 417.647-.136 4.59" style="fill:none;stroke:#9500ff;stroke-width:.999997;stroke-linecap:round;stroke-linejoin:round;stroke-miterlimit:4;stroke-dasharray:none;stroke-opacity:1;visibility:visible" visibility="hidden"/><path d="m336.674 252.998.102.048.104.064.098.083.096.085.086.104.08.12.064.121.058.127.048.137.03.137.016.142.008.128-.008.136-.016.12-.04.121-.038.104-.066.087-.064.083-.08.064-.088.045-.096.032-.096.007h-.104l-.105-.023-.103-.038-.104-.057-.102-.075-.096-.077-.09-.103-.077-.105-.073-.12-.066-.128-.056-.136-.03-.137-.034-.137-.008-.135v-.136l.016-.121.026-.118.038-.113.048-.104.066-.081.078-.07.08-.058.087-.037.099-.027h.102l.104.009.106.032M336.514 258.437l.104.052.104.061.097.082.095.086.079.113.082.114.072.118.055.134.04.13.032.143.024.136.008.127-.008.137-.024.12-.032.12-.048.104-.055.09-.073.076-.073.066-.087.05-.096.019-.096.02-.104-.009-.104-.016-.104-.04-.104-.056-.104-.07-.096-.091-.088-.095-.089-.112-.071-.119-.056-.129-.055-.127-.039-.137-.025-.137-.019-.135v-.137l.02-.127.032-.12.039-.104.047-.103.064-.081.072-.071.09-.058.086-.037.096-.027h.104l.104.008.104.032" style="fill:none;stroke:#9500ff;stroke-width:.666665;stroke-linecap:round;stroke-linejoin:round;stroke-miterlimit:4;stroke-dasharray:none;stroke-opacity:1;visibility:visible" visibility="hidden"/><path d="m337.074 253.246.025.024.056.063.056.076.045.07.04.079.042.08.041.08.031.08.026.088.02.09.018.086.008.08.008.088v.072M336.386 253.82l.056.034.056.038.048.057.033.073.031.07.017.074v.071l-.017.073-.026.056-.029.038-.049.032-.056.018-.056-.008-.055-.018-.057-.036-.048-.05-.041-.064-.032-.07-.023-.075-.008-.079.008-.062.016-.067.032-.055.04-.03.048-.026.055-.008.057.015M332.21 246.246l-.081-.038-.08-.06-.079-.069-.071-.082-.057-.095-.048-.094-.04-.114-.032-.102-.008-.112-.008-.104.016-.106.024-.094.04-.083.056-.063.057-.054.071-.043.072-.023h.081l.087.01.08.032.08.046.08.063.07.075.074.088.055.102.04.104.034.104.023.114.008.102-.008.104-.024.103-.032.083-.041.077-.056.067-.064.048-.07.022-.081.016-.081-.01-.087-.013M336.912 258.685l.028.024.044.064.058.072.048.072.048.08.038.08.034.08.03.08.024.088.024.088.016.08.016.09v.087l.008.063M336.226 259.26l.056.034.057.039.039.064.042.062.02.075.019.07v.074l-.009.071-.024.057-.04.04-.039.032-.057.016-.056-.008-.056-.023-.056-.033-.047-.055-.041-.058-.041-.07-.017-.077-.006-.077.006-.066.017-.064.036-.053.036-.032.049-.024h.056l.056.007" style="fill:none;stroke:#9500ff;stroke-width:.666665;stroke-linecap:round;stroke-linejoin:round;stroke-miterlimit:4;stroke-dasharray:none;stroke-opacity:1;visibility:visible" visibility="hidden"/><path d="m333.546 243.205-.072.043M333.898 243.256l.03-.027.01-.024M333.898 243.256l-.016.006M333.882 243.26l-.017.019-.009.014.018.017.024.01M333.898 243.32l.03.013M331.193 242.166l.776.28" style="fill:none;stroke:#9500ff;stroke-width:1.99999;stroke-linecap:round;stroke-linejoin:round;stroke-miterlimit:4;stroke-dasharray:none;stroke-opacity:1;visibility:visible" visibility="hidden"/><path d="m338.026 251.032.184-6.122M335.418 250.246l.182-6.286" style="fill:none;stroke:#9500ff;stroke-width:.999997;stroke-linecap:round;stroke-linejoin:round;stroke-miterlimit:4;stroke-dasharray:none;stroke-opacity:1;visibility:visible" visibility="hidden"/><path d="m336.738 247.9-.083-.03-.087-.056-.072-.07-.069-.082-.056-.097-.059-.105-.04-.102-.024-.112-.016-.104v-.11l.016-.1.024-.094.04-.081.05-.072.065-.055.07-.034.07-.02.083-.011.088.015.081.034.085.047.072.064.08.07.064.09.056.097.04.104.04.11.016.114.008.103-.008.104-.016.097-.032.087-.048.081-.056.064-.064.048-.07.024-.082.015-.08-.007-.086-.025" style="fill:none;stroke:#9500ff;stroke-width:.666665;stroke-linecap:round;stroke-linejoin:round;stroke-miterlimit:4;stroke-dasharray:none;stroke-opacity:1;visibility:visible" visibility="hidden"/><path d="M333.898 243.32v-.066M333.874 243.31l.008-.05M339.274 244.84h.088l.08.016.081.032M331.17 242.149v-.072M331.626 241.976l-.072-.02-.079.011-.081.014-.088.032M331.026 241.925l.279.088M331.17 242.077l.137-.064M331.17 242.077l-.024.016-.006.017v.018l.02.02.036.018M330.89 241.992l.28.085" style="fill:none;stroke:#9500ff;stroke-width:1.99999;stroke-linecap:round;stroke-linejoin:round;stroke-miterlimit:4;stroke-dasharray:none;stroke-opacity:1;visibility:visible" visibility="hidden"/><path d="m333.146 250.077-2.072.81M331.074 250.886l-.097.047-.097.064-.095.081-.095.088-.088.104-.073.12-.072.12-.064.136-.055.136M333.128 249.949l.04.017.024.026.008.02v.027l-.024.015-.029.023M332.426 249.686l.702.264M333.128 249.949l-.007.128M332.354 249.606v.024l.008.018.023.024.04.014M332.49 249.166l.039.026.025.013.016.024-.009.025-.206.352M330.61 248.48l1.88.688M332.49 249.166l-.008.224M330.378 248.456l.064-.008.056.008.056.006.056.018M329.474 248.544l.904-.088M329.24 248.517l.05.01.056.016h.128M328.554 248.26l.688.258M328.474 248.189l.008.025.023.026.05.02M340.992 250.984l.042-.026.024-.03.008-.032M333.248 249.776l.186-6.483" style="fill:none;stroke:#9500ff;stroke-width:.999997;stroke-linecap:round;stroke-linejoin:round;stroke-miterlimit:4;stroke-dasharray:none;stroke-opacity:1;visibility:visible" visibility="hidden"/><path d="M325.538 417.962v-.039l.008-.039.008-.032.01-.038.004-.032.009-.042" style="fill:none;stroke:#9500ff;stroke-width:1.99999;stroke-linecap:round;stroke-linejoin:round;stroke-miterlimit:4;stroke-dasharray:none;stroke-opacity:1;visibility:visible" visibility="hidden"/><path d="m333.426 250.176-4.913 167.388M326.082 418.508l-.064-.032-.058-.05-.047-.056-.048-.06-.032-.08" style="fill:none;stroke:#9500ff;stroke-width:.999997;stroke-linecap:round;stroke-linejoin:round;stroke-miterlimit:4;stroke-dasharray:none;stroke-opacity:1;visibility:visible" visibility="hidden"/><path d="m328.826 336.166.008-.11.023-.114.033-.12.048-.112.055-.103.065-.097.064-.095.078-.073.08-.063.082-.049.08-.033.08-.007h.07l.072.024.066.041.056.055.04.067.038.083.018.09.008.104v.11l-.016.115-.024.118-.04.113-.048.113-.064.102-.065.09-.072.086-.079.064-.08.055-.082.043-.08.023-.078.008-.072-.016-.07-.03-.056-.051-.051-.064-.04-.071-.021-.088-.018-.104-.008-.104M326.738 408.494l.008-.102.023-.112.031-.114.04-.112.057-.106.063-.102.066-.09.079-.07.072-.064.08-.05.089-.03.072-.016h.079l.063.016.065.04.057.048.038.065.034.08.023.087.008.101v.107l-.016.112-.031.11-.03.112-.054.112-.06.104-.065.09-.072.085-.08.068-.072.063-.088.04-.071.024-.081.008-.075-.016-.06-.024-.065-.048-.046-.055-.042-.073-.023-.088-.016-.096v-.104M330.977 261.678l.016-.113.017-.118.04-.12.04-.115.056-.102.064-.103.072-.087.08-.074.081-.064.078-.048.079-.024.08-.016.082.008.074.025.061.047.056.053.04.074.04.088.017.097.015.11-.006.114-.017.11-.024.12-.041.123-.057.114-.055.101-.072.088-.07.088-.082.063-.081.06-.08.037-.078.017h-.082l-.08-.017-.063-.032-.057-.048-.055-.072-.04-.081-.022-.088-.018-.104-.008-.11" style="fill:none;stroke:#9500ff;stroke-width:.666665;stroke-linecap:round;stroke-linejoin:round;stroke-miterlimit:4;stroke-dasharray:none;stroke-opacity:1;visibility:visible" visibility="hidden"/><path d="m337.576 251.549-5.029 167M330.306 252.008l-4.704 163.6M332.354 249.624l-.027.769M338.648 251.888l.306-.08.302-.082.29-.096.28-.096.256-.093.258-.115.228-.104.224-.12.2-.118M338.354 251.87l.046.018.064.012h.064l.064-.004.056-.008M337.656 251.616l.698.256M337.586 251.536l-.008.014.008.024.032.024.04.018M337.714 251.093l.04.017.024.024.017.024-.01.026-.199.35M335.826 250.397l1.888.696M337.714 251.093l-.008.227M335.592 250.374h.122l.064.01.048.014M334.69 250.462l.902-.09M335.592 250.374l-4.982 167.41M334.458 250.437l.048.019.056.006h.13M333.754 250.182l.702.254M333.426 250.176l.038-.011.058-.008.062-.01.066.011.056.007.048.017" style="fill:none;stroke:#9500ff;stroke-width:.999997;stroke-linecap:round;stroke-linejoin:round;stroke-miterlimit:4;stroke-dasharray:none;stroke-opacity:1;visibility:visible" visibility="hidden"/><path d="M326.92 408.855h-.014l-.066-.032-.055-.032M331.362 410.446h0-.008v-.02h-.008v-.012h-.008v-.019h-.008v-.015h-.01v-.017h-.006v-.015h-.009v-.014l-.008-.01v-.014h-.008v-.018h-.009v-.024h-.005v-.016h-.01v-.006M331.218 415.572v-.008h-.008v-.008l-.01-.008v-.005h-.006v-.017h-.007v-.016h-.01v-.016l-.007-.007v-.007l-.008-.01v-.01l-.008-.008v-.005l-.008-.007v-.02h-.008v-.012l-.008-.012v-.014h-.009v-.018h-.006v-.022h-.009" style="fill:none;stroke:#9500ff;stroke-width:.666665;stroke-linecap:round;stroke-linejoin:round;stroke-miterlimit:4;stroke-dasharray:none;stroke-opacity:1;visibility:visible" visibility="hidden"/><path d="M328.193 422.236v.144M325.714 418.335l-.081 2.687M325.633 421.02l.007.034.018.038.04.042.04.03.062.026M334.506 422.846l-.016.13-.014.125-.041.129-.041.13-.055.12-.065.127-.079.113-.081.102-.085.097-.101.091-.095.068-.094.065-.105.047M333.632 424.188l-.158.058M334.506 422.846l.112-3.71M333.474 424.246l-.074.024-.088.014-.088.008-.096.01-.094-.01-.088-.014-.09-.018-.072-.032M328.193 422.236l-2.393-1.046M328.265 422.462l-.04-.026-.023-.032-.009-.022M330.17 423.175l-.056.015h-.121l-.064-.008-.047-.024-1.617-.696" style="fill:none;stroke:#9500ff;stroke-width:1.99999;stroke-linecap:round;stroke-linejoin:round;stroke-miterlimit:4;stroke-dasharray:none;stroke-opacity:1;visibility:visible" visibility="hidden"/><path d="m332.786 424.228-2.504-1.084-.112.031" style="fill:none;stroke:#9500ff;stroke-width:1.99999;stroke-linecap:round;stroke-linejoin:round;stroke-miterlimit:4;stroke-dasharray:none;stroke-opacity:1;visibility:visible" visibility="hidden"/><path d="m335.928 254.311-.028-.087-.026-.089-.026-.089-.014-.09-.008-.086v-.246l.017-.084.013-.07.026-.072.022-.072.034-.064.038-.057.042-.056.04-.047.056-.041.048-.039.056-.032.056-.024.066-.014.06-.008h.128l.064.014.064.018.066.022.07.032.064.03.064.05.064.047.058.057.032.034M337.328 259.733v.017l-.008.088-.008.08-.012.072-.026.072-.026.072-.03.064-.03.063-.043.056-.047.05-.048.046-.05.033-.054.032-.056.024-.064.024-.056.008-.064.01-.066-.011-.06-.007-.067-.016-.071-.023-.064-.025-.066-.039-.064-.042-.06-.047-.067-.05-.055-.061-.056-.057-.047-.073-.056-.07-.043-.075-.054-.102-.04-.096M335.77 259.749l-.03-.087-.026-.09-.024-.088-.015-.089-.01-.075-.01-.093v-.085l.009-.08.02-.08.015-.072.015-.071.032-.075.032-.062.032-.056.04-.059.048-.045.048-.041.054-.041.058-.025.056-.02.056-.021.064-.013h.064l.064.009.064.004.064.021.072.019.064.036.064.039.064.04.064.046.056.058.038.032" style="fill:none;stroke:#9500ff;stroke-width:.666665;stroke-linecap:round;stroke-linejoin:round;stroke-miterlimit:4;stroke-dasharray:none;stroke-opacity:1;visibility:visible" visibility="hidden"/><path d="M337.49 254.302v.015l-.008.078-.008.083-.015.08-.017.072-.032.073-.024.063-.038.056-.044.055-.04.05-.046.046-.056.041-.056.032-.056.024-.058.016-.064.007-.064.007h-.064l-.06-.014-.065-.016-.075-.016-.062-.033-.064-.032-.064-.046-.062-.042-.057-.056-.065-.053-.056-.067-.047-.072-.056-.073-.041-.07-.058-.106-.04-.094" style="fill:none;stroke:#9500ff;stroke-width:.666665;stroke-linecap:round;stroke-linejoin:round;stroke-miterlimit:4;stroke-dasharray:none;stroke-opacity:1;visibility:visible" visibility="hidden"/><path d="m331.346 241.886-.073-.008h-.08l-.08.014-.087.033M331.969 242.446l-.03-.104-.035-.088-.04-.078-.045-.074-.057-.057-.064-.039-.073-.03M331.026 241.925l-.137.067M330.89 241.992l-.048.02-.032.027-.024.029v.035M333.938 243.205l-.01-.021-.029-.026-.043-.014M333.928 243.334l1.356.496M335.282 243.829l.038.008h.114M335.434 243.838l.03-.008M335.77 243.838l-.056-.017-.065-.007h-.129l-.056.016M331.969 242.446l1.887.696M335.77 243.838l2.68.976" style="fill:none;stroke:#9500ff;stroke-width:1.99999;stroke-linecap:round;stroke-linejoin:round;stroke-miterlimit:4;stroke-dasharray:none;stroke-opacity:1;visibility:visible" visibility="hidden"/><path d="m339.874 251.294-.04-.08-.034-.09-.022-.085-.016-.081v-.086M339.874 251.294l.016.016M338.682 244.82l-.042.009-.046.009h-.055l-.049-.01-.042-.014" style="fill:none;stroke:#9500ff;stroke-width:.999997;stroke-linecap:round;stroke-linejoin:round;stroke-miterlimit:4;stroke-dasharray:none;stroke-opacity:1;visibility:visible" visibility="hidden"/><path d="m339.52 244.886.082.04.08.056.064.072.054.082.04.093.042.104.022.113.016.114v.126M338.848 244.765l.088-.025.098-.007h.086l.08.017.08.032M338.682 244.82l.166-.054M339.92 245.686l-.158 5.186" style="fill:none;stroke:#9500ff;stroke-width:1.99999;stroke-linecap:round;stroke-linejoin:round;stroke-miterlimit:4;stroke-dasharray:none;stroke-opacity:1;visibility:visible" visibility="hidden"/><path d="m337.218 247.184-.03-.067-.027-.063-.023-.064" style="fill:none;stroke:#9500ff;stroke-width:.666665;stroke-linecap:round;stroke-linejoin:round;stroke-miterlimit:4;stroke-dasharray:none;stroke-opacity:1;visibility:visible" visibility="hidden"/><path d="m335.834 418.478.03-.03.026-.035.008-.041M333.938 243.205l-.01.13M331.626 241.976l-.279-.09M339.282 244.782l.24.104M330.6 248.304l.183-6.202" style="fill:none;stroke:#9500ff;stroke-width:1.99999;stroke-linecap:round;stroke-linejoin:round;stroke-miterlimit:4;stroke-dasharray:none;stroke-opacity:1;visibility:visible" visibility="hidden"/><path d="m341.066 250.896-.008-.024-.016-.032-.03-.032-.051-.024-.055-.026-1.128-.414" style="fill:none;stroke:#9500ff;stroke-width:.999997;stroke-linecap:round;stroke-linejoin:round;stroke-miterlimit:4;stroke-dasharray:none;stroke-opacity:1;visibility:visible" visibility="hidden"/><path d="m323.738 415.308.008.032.023.023.04.027M330.633 247.27l-.28.08-.27.09-.265.085-.25.099-.239.093-.225.103-.215.106-.2.112-.183.112" style="fill:none;stroke:#9500ff;stroke-width:1.99999;stroke-linecap:round;stroke-linejoin:round;stroke-miterlimit:4;stroke-dasharray:none;stroke-opacity:1;visibility:visible" visibility="hidden"/><path d="m328.506 248.15-.024.015-.005.024" style="fill:none;stroke:#9500ff;stroke-width:.999997;stroke-linecap:round;stroke-linejoin:round;stroke-miterlimit:4;stroke-dasharray:none;stroke-opacity:1;visibility:visible" visibility="hidden"/><path d="m324.474 415.676.055.018.048.006.063.008h.058l.879-.102M323.81 415.391l.664.287" style="fill:none;stroke:#9500ff;stroke-width:1.99999;stroke-linecap:round;stroke-linejoin:round;stroke-miterlimit:4;stroke-dasharray:none;stroke-opacity:1;visibility:visible" visibility="hidden"/><path d="M325.577 415.606h.025" style="fill:none;stroke:#9500ff;stroke-width:.999997;stroke-linecap:round;stroke-linejoin:round;stroke-miterlimit:4;stroke-dasharray:none;stroke-opacity:1;visibility:visible" visibility="hidden"/><path d="m325.563 418.11-.009-.024-.008-.026-.008-.022v-.075M325.562 418.11l.038.078.043.064.058.064.056.042.06.038" style="fill:none;stroke:#9500ff;stroke-width:1.99999;stroke-linecap:round;stroke-linejoin:round;stroke-miterlimit:4;stroke-dasharray:none;stroke-opacity:1;visibility:visible" visibility="hidden"/><path d="m333.274 419.484.046.018.058.014h.064l.056-.006.056-.008M332.52 419.116l.01.032.03.027.042.021.67.288M330.61 417.783h.12l.056.015.048.016 1.712.736M329.514 417.86l.048.018.056.008h.112l.88-.103M328.514 417.564l.048-.016.048-.008.065-.006.055.006.056.008.048.016.68.296M326.505 418.487l2.01-.923M326.506 418.487l-.086.03-.091.024h-.087l-.08-.009-.077-.022" style="fill:none;stroke:#9500ff;stroke-width:.999997;stroke-linecap:round;stroke-linejoin:round;stroke-miterlimit:4;stroke-dasharray:none;stroke-opacity:1;visibility:visible" visibility="hidden"/><path d="m325.6 415.606-.064 2.357M328.474 248.189l-4.736 167.12M341.066 250.896l-5.168 167.478M333.554 419.502l.305-.088.287-.095.28-.107.272-.112.256-.112.238-.118.226-.13.217-.127.199-.137" style="fill:none;stroke:#9500ff;stroke-width:1.99999;stroke-linecap:round;stroke-linejoin:round;stroke-miterlimit:4;stroke-dasharray:none;stroke-opacity:1;visibility:visible" visibility="hidden"/><path d="m326.082 418.508-.264-.113M332.546 418.55l-.026.566" style="fill:none;stroke:#9500ff;stroke-width:.999997;stroke-linecap:round;stroke-linejoin:round;stroke-miterlimit:4;stroke-dasharray:none;stroke-opacity:1;visibility:visible" visibility="hidden"/><path d="m328.265 422.462 3.305-2.066M333.274 419.484l-1.704.912M333.898 243.32l-1.688 2.926M331.346 241.886l.864 4.361M333.128 249.949l-2.151 11.729M337.328 259.733l-6.351 1.946" style="fill:none;stroke:#9500ff;stroke-width:.666665;stroke-linecap:round;stroke-linejoin:round;stroke-miterlimit:4;stroke-dasharray:none;stroke-opacity:1;visibility:visible" visibility="hidden"/><path d="m335.898 418.374-1.28.762M333.426 250.176l-2.793-2.906" style="fill:none;stroke:#9500ff;stroke-width:1.99999;stroke-linecap:round;stroke-linejoin:round;stroke-miterlimit:4;stroke-dasharray:none;stroke-opacity:1;visibility:visible" visibility="hidden"/></svg>