<svg xmlns="http://www.w3.org/2000/svg" baseProfile="full" height="793.701" preserveAspectRatio="xMinYMin meet" style="width:738px;height:965px" width="559.371" xml:space="preserve"><path d="m212.411 345.443-59.269-15.437M208.149 579.088l-86.035-29.394M129.122 548.368l-.037.115-.077.096-.116.096-.174.095-.21.078-.25.076-.268.078-.328.057-.345.039-.384.038-.384.038-.421.02h-.442l-.442-.02h-.462l-.441-.038-.46-.038M123.881 549.098l-.193-.02h-.191l-.173.021-.174.019-.306.057-.268.095-.136.058-.135.096-.057.039-.058.077-.057.076-.019.078M122.114 549.692l-2.132 15.054M153.141 330.006l.02-.096.057-.076.058-.059.057-.057.133-.096.154-.076.154-.059.136-.037.307-.077.172-.019.171-.02h.386M150.933 345.693l2.208-15.687M152.029 327.99l-.29-.115-.246-.134-.213-.116-.172-.135-.135-.115-.096-.114-.057-.116v-.096M207.765 577.724l.02.058.018.077.02.076.037.095.058.194.077.21.038.135.057.154.021.076.017.096.021.095v.097M207.765 577.667v.057M208.149 579.088l-.307 16.167M212.123 361.994l.288-16.55M212.411 345.443v-.096l-.018-.096-.039-.171-.037-.135-.059-.135-.077-.192-.058-.173-.037-.076-.02-.059-.019-.076v-.039M119.982 564.746v.057l.02.077.038.115.077.115.076.097.173.152.194.116.21.115.248.116M150.933 345.693l-.02.077.02.076.057.135.096.114.096.096.192.174.211.133.25.116.308.096M163.548 575.978l.249.057.27.039.266-.04.251-.055.25-.116.21-.155.213-.192.192-.25.171-.266.136-.29.114-.326.078-.364.057-.365.019-.365v-.403l-.038-.384-.076-.385-.097-.364-.133-.364-.155-.328-.192-.326-.193-.288-.21-.25-.25-.21-.25-.174-.25-.134-.27-.096-.265-.038h-.251l-.268.038-.25.096-.231.134-.21.173-.214.212-.171.268-.153.27-.117.324-.094.347-.076.346-.04.384v.384l.02.384.056.384.078.365.116.384.152.345.173.327.173.288.21.268.232.25.249.19.25.156.27.115M213.563 343.965l.364.038.386.04.402.035.423.022.423.02.461.036h.46l.46.021h1.824l.424-.02.401-.019.386-.02.345-.018M427.355 292.47l.347.02.345.02h.787l.402-.02.424-.038.422-.06.442-.035.422-.079.422-.077.404-.076.403-.096.383-.115.366-.097.346-.115.306-.134M365.723 278.55l.307.115.345.077.347.096.384.058.402.057.404.039.422.02.422.018h.442l.422-.038.423-.019.403-.059.404-.057.364-.096.365-.076.327-.116.306-.115M152.2 328.049l.326.115.366.115.384.115.402.097.423.096.423.076.44.078.463.076.441.057.46.059.442.037.422.02.424.02h.766l.364-.02M217.883 555.528l197.49-62.226M182.9 566.568l25.21-7.948" style="fill:none;stroke:red;stroke-width:.999997;stroke-linecap:round;stroke-linejoin:round;stroke-miterlimit:4;stroke-dasharray:none;stroke-opacity:1;visibility:visible" visibility="hidden"/><path d="m157.537 348.151-5.395-1.44" style="fill:none;stroke:red;stroke-width:1.99999;stroke-linecap:round;stroke-linejoin:round;stroke-miterlimit:4;stroke-dasharray:none;stroke-opacity:1;visibility:visible" visibility="hidden"/><path d="m207.497 595.753-.059-.018" style="fill:none;stroke:red;stroke-width:.999997;stroke-linecap:round;stroke-linejoin:round;stroke-miterlimit:4;stroke-dasharray:none;stroke-opacity:1;visibility:visible" visibility="hidden"/><path d="m207.765 577.667.057-2.63M126.396 567.568l-5.376-1.862" style="fill:none;stroke:red;stroke-width:1.99999;stroke-linecap:round;stroke-linejoin:round;stroke-miterlimit:4;stroke-dasharray:none;stroke-opacity:1;visibility:visible" visibility="hidden"/><path d="M373.442 277.802v-.212M375.764 472.74v-.25M367.22 280.337l59.308 13.42M369.736 475.427l86.074 24.921M457.556 514.826h.059l.037-.02.058-.019.057-.057.02-.04.019-.056v-.174M457.807 514.46l-1.997-14.112M455.808 500.348l-.018-.077-.04-.095-.055-.154-.059-.134-.076-.134-.116-.21-.097-.214-.037-.095-.038-.077-.04-.096-.018-.076M455.214 498.986l-.02-.058-.017-.057M425.916 292.452l.038.057.02.077.036.076.058.096.098.192.114.192.058.135.077.135.02.076.037.077.039.095.019.097 2.093 14.783M425.896 292.356l.02.038v.058M371.291 474.698l.404-.019.403-.059.402-.057.384-.057.384-.096.366-.096.346-.116.326-.115.29-.135.266-.134.231-.134.192-.153.173-.155.134-.152.096-.154.058-.174.018-.152M369.736 475.427l.02-.077.038-.076.038-.059.04-.057.113-.076.135-.078.115-.057.136-.039.249-.096.152-.038.155-.019.193-.039.171-.018" style="fill:none;stroke:red;stroke-width:.999997;stroke-linecap:round;stroke-linejoin:round;stroke-miterlimit:4;stroke-dasharray:none;stroke-opacity:1;visibility:visible" visibility="hidden"/><path d="m370.792 489.288-.21-.057-.174-.077-.153-.095-.155-.116-.057-.057-.056-.078-.059-.096-.018-.096-.174-13.189M368.814 279.549l-.174.02-.172.037-.173.039-.153.039-.288.096-.25.114-.114.078-.116.096-.058.057-.036.059-.04.076-.02.077M367.22 280.337l.04 2.885M160.264 328.969v-.059M129.122 548.368l.02-.096" style="fill:none;stroke:red;stroke-width:.999997;stroke-linecap:round;stroke-linejoin:round;stroke-miterlimit:4;stroke-dasharray:none;stroke-opacity:1;visibility:visible" visibility="hidden"/><path d="m455.176 498.87-.518-3.648" style="fill:none;stroke:red;stroke-width:1.99999;stroke-linecap:round;stroke-linejoin:round;stroke-miterlimit:4;stroke-dasharray:none;stroke-opacity:1;visibility:visible" visibility="hidden"/><path d="m425.896 292.356-.076-.538" style="fill:none;stroke:red;stroke-width:.999997;stroke-linecap:round;stroke-linejoin:round;stroke-miterlimit:4;stroke-dasharray:none;stroke-opacity:1;visibility:visible" visibility="hidden"/><path d="m370.792 489.288 5.184 1.536" style="fill:none;stroke:red;stroke-width:1.99999;stroke-linecap:round;stroke-linejoin:round;stroke-miterlimit:4;stroke-dasharray:none;stroke-opacity:1;visibility:visible" visibility="hidden"/><path d="m457.442 514.787.114.039" style="fill:none;stroke:red;stroke-width:.999997;stroke-linecap:round;stroke-linejoin:round;stroke-miterlimit:4;stroke-dasharray:none;stroke-opacity:1;visibility:visible" visibility="hidden"/><path d="m368.43 295.14 5.222 1.209M212.66 697.648l-.325.039-.365.038-.385.019-.385.019-.401.02h-.404l-.404-.02-.401-.02-.385-.037-.365-.039-.365-.04-.345-.055" style="fill:none;stroke:red;stroke-width:1.99999;stroke-linecap:round;stroke-linejoin:round;stroke-miterlimit:4;stroke-dasharray:none;stroke-opacity:1;visibility:visible" visibility="hidden"/><path d="m415.508 499.484.116-.057.096-.077.058-.135.037-.153v-.154M415.815 498.908l-.441-5.606M415.374 493.302l-.02-.172-.058-.192-.096-.155-.094-.153-.136-.115-.115-.097-.153-.058M414.702 492.362l-4.435-1.306M410.267 491.056l-.135-.02-.114.02" style="fill:none;stroke:red;stroke-width:.999997;stroke-linecap:round;stroke-linejoin:round;stroke-miterlimit:4;stroke-dasharray:none;stroke-opacity:1;visibility:visible" visibility="hidden"/><path d="m217.98 551.324 192.035-60.268M176.43 564.362l31.756-9.966M217.767 562.248l197.741-62.765M193.154 570.044l14.841-4.704" style="fill:none;stroke:red;stroke-width:1.99999;stroke-linecap:round;stroke-linejoin:round;stroke-miterlimit:4;stroke-dasharray:none;stroke-opacity:1;visibility:visible" visibility="hidden"/><path d="m158.746 328.989.307-.039.27-.038.251-.039.229-.056.174-.077.152-.078.116-.076.057-.096.038-.096v-.096" style="fill:none;stroke:red;stroke-width:.999997;stroke-linecap:round;stroke-linejoin:round;stroke-miterlimit:4;stroke-dasharray:none;stroke-opacity:1;visibility:visible" visibility="hidden"/><path d="M153.64 325.533h.557l.556.019.557.038.558.078.556.096.536.096.558.153.519.153M158.037 326.166l.25.077.21.077.211.077.212.096.173.096.25.133.229.155.193.173.173.192.115.154.076.191.077.211M151.107 326.493l.093-.154.117-.113.115-.117.136-.096.132-.096.136-.077.192-.076.212-.058.19-.056.288-.04.29-.038.306-.041h.326M151.106 326.493l-.249.442M160.206 327.798l.135.5" style="fill:none;stroke:red;stroke-width:1.99999;stroke-linecap:round;stroke-linejoin:round;stroke-miterlimit:4;stroke-dasharray:none;stroke-opacity:1;visibility:visible" visibility="hidden"/><path d="m372.212 278.456.27-.116.25-.134.19-.134.173-.135.153-.153.098-.155.057-.153.039-.154-.02-.134-.038-.154M364.532 277.149l-.038.153-.019.154.037.154.078.154.096.153.134.135.191.134.193.134.25.116.27.114" style="fill:none;stroke:red;stroke-width:.999997;stroke-linecap:round;stroke-linejoin:round;stroke-miterlimit:4;stroke-dasharray:none;stroke-opacity:1;visibility:visible" visibility="hidden"/><path d="m364.706 276.726.076-.153.077-.153.115-.115.096-.135.172-.173.193-.135.21-.134.232-.135.267-.115.27-.114.288-.096.27-.058.266-.077.289-.039.288-.057.308-.019.27-.038h.267l.27-.02h.288l.268.02.306.018.328.02.307.039.288.057.307.056.288.078.268.096.25.096.27.116.248.134.23.172.212.174.154.172.134.192.115.212M364.706 276.726l-.174.424M373.191 276.612l.193.422" style="fill:none;stroke:red;stroke-width:1.99999;stroke-linecap:round;stroke-linejoin:round;stroke-miterlimit:4;stroke-dasharray:none;stroke-opacity:1;visibility:visible" visibility="hidden"/><path d="m425.838 291.684-.02.114.041.116.057.096.115.096.153.096.19.076.233.059M433.576 291.569l.288-.115.25-.116.212-.133.172-.116.154-.115.115-.134.076-.116.039-.115-.02-.116-.035-.095" style="fill:none;stroke:red;stroke-width:.999997;stroke-linecap:round;stroke-linejoin:round;stroke-miterlimit:4;stroke-dasharray:none;stroke-opacity:1;visibility:visible" visibility="hidden"/><path d="m428.738 289.38.537-.115.519-.096.536-.077.52-.058.537-.038M431.387 288.996h.883l.288.02.269.037.25.039.25.057.229.059.27.114.268.135.134.115.135.116.115.132.097.154M425.954 291.204l.056-.154.058-.173.096-.135.096-.134.115-.134.115-.116.193-.133.212-.135.23-.134.212-.096.249-.116.269-.096.268-.096.29-.076.17-.058.155-.038M425.954 291.204l-.116.48M434.575 289.974l.25.423" style="fill:none;stroke:red;stroke-width:1.99999;stroke-linecap:round;stroke-linejoin:round;stroke-miterlimit:4;stroke-dasharray:none;stroke-opacity:1;visibility:visible" visibility="hidden"/><path d="m220.322 344.1.325-.04.288-.017.25-.04.23-.038.175-.038.133-.057.077-.04.057-.057v-.038" style="fill:none;stroke:red;stroke-width:.999997;stroke-linecap:round;stroke-linejoin:round;stroke-miterlimit:4;stroke-dasharray:none;stroke-opacity:1;visibility:visible" visibility="hidden"/><path d="m104.412 656.597-.019-.114v-.116M208.13 697.57l-.23-.037-.232-.058-.229-.058-.213-.057-.189-.077-.25-.115-.251-.135-.211-.133-.172-.175-.135-.133-.115-.173-.077-.192M215.024 696.381l-.079.154-.075.134-.116.134-.114.116-.115.096-.136.077-.17.115-.195.096-.191.077-.27.076-.288.077-.285.058-.328.057M215.023 696.381l.211-.5M205.826 696.227l-.193-.5M215.253 695.785v.058l-.02.037M205.634 695.728l-.019-.039v-.057M373.652 296.349l10.288 2.373M407.843 304.236l20.415 4.709M373.442 277.59l54.125 12.174M375.764 472.49l78.894 22.732M410.671 501.02l46.77 13.767M375.975 490.826l17.952 5.28M478.465 600.188l-43.583-309.676M454.658 495.222l-26.402-186.278M469.71 601.379l-12.269-86.592M373.442 277.59v-.306M375.764 472.49l-1.916-159.698M373.714 301.436l-.062-5.086M376.11 501.692l-.135-10.866M376.898 568.298l-.672-56.334M367.508 504.4l-2.53-189.466M364.823 303.437l-.107-8.003M364.563 284.009l-.087-6.59M368.354 568.394l-.71-53.704M434.826 290.397l.037.057.02.058M373.442 277.284l-.02-.135-.038-.115M364.532 277.149l-.038.135-.019.134M212.66 342.525l-52.395-13.615M207.822 575.036l-78.681-26.765M160.264 328.911l.076-.498M129.141 548.27l28.396-200.12M113.626 657.595l12.768-90.028M104.393 656.368l46.425-329.318M215.253 695.785l6.604-352.03M207.822 575.036l3.879-212.446M205.615 695.63l1.823-99.895M207.44 595.735l-81.044-28.167M211.7 362.589l-30.194-8.05M163.926 349.853l-6.39-1.703M160.34 328.298v.115M150.818 327.049l.019-.059.019-.056M113.493 657.941l.057-.114.06-.117.018-.114M213.353 342.198l.576-.135.596-.096.594-.096.595-.057.539-.039h.94l.384.02.383.04.385.035.384.06.365.057.517.096.5.115.499.135M220.61 342.333l.153.057.154.057.172.096.097.06.116.093.095.097.076.096.077.096.077.134.04.096M212.256 343.022l.059-.112.078-.117.094-.115.076-.096.098-.077.096-.058.096-.057.096-.057.076-.039.115-.039.095-.018.116-.039M212.257 343.023l-.21.52M221.666 343.215l.192.52M212.046 343.542v.039M478.331 600.88l-.058.152-.057.153-.079.136-.074.134-.154.192-.173.153-.173.155-.21.153-.233.153-.249.135-.268.115-.25.096-.269.096-.27.096-.286.077-.288.076-.27.059-.248.037-.27.039-.268.038-.27.04-.325.017h-.902l-.308-.038-.289-.019-.27-.057-.267-.057-.269-.078-.268-.113-.25-.117-.232-.154-.189-.153-.155-.173-.154-.193M478.33 600.879l.116-.442M470.036 602.032l-.23-.384M478.465 600.188v.096M469.807 601.648l-.058-.135-.037-.133M478.465 600.284v.077l-.02.076M376.647 569.103l-.095.173-.097.154-.115.153-.134.135-.154.152-.172.136-.193.134-.19.115-.271.135-.269.114-.305.098-.309.094-.25.059-.266.057-.271.039-.288.019-.268.018-.346.02h-.326l-.326-.02-.308-.037-.327-.039-.287-.057-.308-.077-.268-.076-.288-.098-.269-.114-.25-.135-.232-.153-.189-.135-.175-.153-.153-.154-.154-.192-.115-.192-.039-.096M376.647 569.103l.153-.384M368.64 569.18l-.192-.364M368.45 568.816l-.04-.134-.038-.154-.018-.134M376.898 568.298l-.02.134-.018.154-.058.133M113.302 658.268l-.096.135-.116.134-.094.115-.116.096-.192.135-.192.114-.212.096-.25.097-.268.077-.269.057-.287.057-.269.039-.308.019-.307.02h-.634l-.268-.02-.288-.019-.288-.039-.288-.037-.27-.039-.326-.077-.326-.057-.308-.078-.306-.096-.288-.094-.29-.116-.268-.115-.248-.116-.269-.153-.23-.154-.231-.173-.21-.192-.137-.172-.133-.193-.115-.211-.077-.23M113.302 658.268l.25-.421M104.526 657.077l-.116-.48" style="fill:none;stroke:red;stroke-width:1.99999;stroke-linecap:round;stroke-linejoin:round;stroke-miterlimit:4;stroke-dasharray:none;stroke-opacity:1;visibility:visible" visibility="hidden"/><path d="m113.626 657.616-.036.115-.041.116" style="fill:none;stroke:red;stroke-width:1.99999;stroke-linecap:round;stroke-linejoin:round;stroke-miterlimit:4;stroke-dasharray:none;stroke-opacity:1;visibility:visible" visibility="hidden"/><path d="m153.64 325.533 1.306 3.801M208.186 554.396l9.697 1.132M217.883 555.528l-9.773 3.092M364.476 277.419l2.784 5.803" style="fill:none;stroke:red;stroke-width:.999997;stroke-linecap:round;stroke-linejoin:round;stroke-miterlimit:4;stroke-dasharray:none;stroke-opacity:1;visibility:visible" visibility="hidden"/><path d="m383.94 298.722-15.51-3.582M208.186 554.396l9.794-3.072M217.883 555.528l-9.697-1.132M207.995 565.34l9.772-3.092M208.11 558.62l-14.956 11.424M217.767 562.248l-9.772 3.092M368.43 295.14l15.51 3.582M414.702 492.362l-4.031 8.658M410.267 491.056l-16.34 5.05M373.714 301.436l.134 11.356M364.716 295.434l8.998 6.002M376.226 511.964l-.116-10.272M376.11 501.692l.116 10.272M367.644 514.69l-.136-10.29M364.823 303.437l.155 11.497M373.652 296.35l-8.829 7.087M373.714 301.436l-8.998-6.002M367.22 280.337l-2.657 3.672M367.508 504.4l.136 10.29M163.926 349.853l17.58 4.686M152.142 346.711l11.784 3.142" style="fill:none;stroke:red;stroke-width:1.99999;stroke-linecap:round;stroke-linejoin:round;stroke-miterlimit:4;stroke-dasharray:none;stroke-opacity:1;visibility:visible" visibility="hidden"/><path d="m366.99 285.289.173.057.154.058.096.058.077.058.019.057-.019.077-.077.058-.096.057-.154.057-.173.039-.21.039-.231.038-.268.019h-.808l-.248-.019-.251-.038-.23-.019-.191-.059-.174-.057-.116-.037-.094-.078-.04-.058v-.058l.04-.057.094-.077.116-.038.174-.057.19-.039.212-.038.25-.02.268-.019.269-.019.27.019h.269l.248.019.25.038.211.039M181.616 329.526l-.212-.039-.23-.038-.269-.038h-.288l-.288-.02-.289.02-.287.019-.269.019-.23.038-.23.059-.193.057-.134.058-.114.076-.058.058-.02.076.02.078.075.057.116.076.173.059.192.038.23.039.25.037.268.02.288.019h.29l.288-.019.286-.02.251-.037.23-.039.211-.058.172-.058.116-.076.096-.058.038-.076v-.078l-.058-.057-.096-.077-.133-.058-.192-.057M176.335 333.078l202.713-48.519M379.184 291.126l.096-.057.096-.078.076-.096.039-.134.038-.135v-.172l-.481-5.895M379.048 284.56l-.019-.173-.057-.192-.096-.172-.096-.135-.135-.135-.133-.077-.136-.057-4.492-1.018" style="fill:none;stroke:#00ff4a;stroke-width:.999997;stroke-linecap:round;stroke-linejoin:round;stroke-miterlimit:4;stroke-dasharray:none;stroke-opacity:1;visibility:visible" visibility="hidden"/><path d="m169.385 331.273 204.305-48.672M190.39 336.745l188.794-45.619" style="fill:none;stroke:#00ff4a;stroke-width:1.99999;stroke-linecap:round;stroke-linejoin:round;stroke-miterlimit:4;stroke-dasharray:none;stroke-opacity:1;visibility:visible" visibility="hidden"/><path d="m373.884 282.601-6.894 2.688" style="fill:none;stroke:#00ff4a;stroke-width:.999997;stroke-linecap:round;stroke-linejoin:round;stroke-miterlimit:4;stroke-dasharray:none;stroke-opacity:1;visibility:visible" visibility="hidden"/><path d="m408.31 294.717.173.039.152.057.116.057.078.058.018.077-.018.057-.058.076-.097.059-.153.039-.174.057-.21.037-.231.039-.268.02h-.27l-.267.019-.288-.019-.251-.02-.25-.019-.23-.038-.21-.058-.174-.057-.135-.059-.076-.057-.057-.057v-.078l.037-.057.078-.057.134-.058.155-.057.19-.039.231-.038.25-.019.269-.019.27-.02.267.02h.268l.27.038.23.02.231.057M222.934 340.182l-.21-.039-.251-.038-.268-.038-.288-.02h-.576l-.288.02-.27.038-.249.038-.23.058-.193.058-.134.058-.115.076-.057.077-.019.057.037.078.078.077.133.056.153.057.214.059.229.039.27.038.267.019.29.019h.286l.308-.019.268-.019.27-.038.23-.039.211-.059.153-.076.135-.057.077-.077.038-.076v-.058l-.058-.077-.114-.077-.134-.058-.193-.057M221.493 342.908l198.95-48.96M420.52 300.572l.115-.039.096-.076.077-.116.057-.114.019-.154v-.173l-.441-5.952M420.444 293.948l-.037-.192-.059-.172-.077-.173-.115-.155-.133-.133-.136-.078-.135-.057-4.608-1.037" style="fill:none;stroke:#9500ff;stroke-width:.999997;stroke-linecap:round;stroke-linejoin:round;stroke-miterlimit:4;stroke-dasharray:none;stroke-opacity:1;visibility:visible"/><path d="m210.626 341.987 204.306-50.035M221.743 349.955l198.777-49.383" style="fill:none;stroke:#9500ff;stroke-width:1.99999;stroke-linecap:round;stroke-linejoin:round;stroke-miterlimit:4;stroke-dasharray:none;stroke-opacity:1;visibility:visible"/><path d="m211.74 362.609-.039-.019M212.046 343.542v.039l.039.057.077.039.133.057.155.039.19.037.214.06.269.036.285.039M212.046 344.195l-.019-.018v-.02M220.88 342.487l-.02-.037-.057-.04-.077-.037-.115-.039M212.257 343.023v.04M212.029 344.155l.018-.594" style="fill:none;stroke:#9500ff;stroke-width:.999997;stroke-linecap:round;stroke-linejoin:round;stroke-miterlimit:4;stroke-dasharray:none;stroke-opacity:1;visibility:visible"/><path d="M221.858 343.754v-.019" style="fill:none;stroke:#9500ff;stroke-width:1.99999;stroke-linecap:round;stroke-linejoin:round;stroke-miterlimit:4;stroke-dasharray:none;stroke-opacity:1;visibility:visible"/><path d="m415.144 291.95-6.834 2.767" style="fill:none;stroke:#9500ff;stroke-width:.999997;stroke-linecap:round;stroke-linejoin:round;stroke-miterlimit:4;stroke-dasharray:none;stroke-opacity:1;visibility:visible"/><path d="m415.144 291.95 11.384 1.807" style="fill:none;stroke:red;stroke-width:.999997;stroke-linecap:round;stroke-linejoin:round;stroke-miterlimit:4;stroke-dasharray:none;stroke-opacity:1;visibility:visible" visibility="hidden"/><path d="m408.31 294.717-.467 9.519M415.144 291.95l12.423-2.186" style="fill:none;stroke:red;stroke-width:1.99999;stroke-linecap:round;stroke-linejoin:round;stroke-miterlimit:4;stroke-dasharray:none;stroke-opacity:1;visibility:visible" visibility="hidden"/><path d="m213.563 343.965 9.371-3.783M220.61 342.333l2.324-2.151" style="fill:none;stroke:#9500ff;stroke-width:.999997;stroke-linecap:round;stroke-linejoin:round;stroke-miterlimit:4;stroke-dasharray:none;stroke-opacity:1;visibility:visible"/><path d="m213.351 342.198-2.725-.211M213.351 342.198l8.392 7.757" style="fill:none;stroke:#9500ff;stroke-width:1.99999;stroke-linecap:round;stroke-linejoin:round;stroke-miterlimit:4;stroke-dasharray:none;stroke-opacity:1;visibility:visible"/></svg>