<svg xmlns="http://www.w3.org/2000/svg" baseProfile="full" height="793.701" preserveAspectRatio="xMinYMin meet" style="width:738px;height:965px" width="559.371" xml:space="preserve"><path d="m181.855 468.76 1.273-.396" style="fill:none;stroke:red;stroke-width:.666665;stroke-linecap:round;stroke-linejoin:round;stroke-miterlimit:4;stroke-dasharray:none;stroke-opacity:1;visibility:visible" visibility="hidden"/><path d="m185.703 467.563 24.455-7.599" style="fill:none;stroke:red;stroke-width:.666665;stroke-linecap:round;stroke-linejoin:round;stroke-miterlimit:4;stroke-dasharray:2.69599,2.69599;stroke-dashoffset:0;stroke-opacity:1;visibility:visible" visibility="hidden"/><path d="m211.444 459.565 1.273-.396M221.512 456.439l1.273-.395" style="fill:none;stroke:red;stroke-width:.666665;stroke-linecap:round;stroke-linejoin:round;stroke-miterlimit:4;stroke-dasharray:none;stroke-opacity:1;visibility:visible" visibility="hidden"/><path d="m181.855 468.76.104.139.07.154.069.174.016.189.018.173-.034.156-.052.138" style="fill:none;stroke:red;stroke-width:.666665;stroke-linecap:round;stroke-linejoin:round;stroke-miterlimit:4;stroke-dasharray:1.2;stroke-dashoffset:0;stroke-opacity:1;visibility:visible" visibility="hidden"/><path d="m181.003 467.734.852 1.025M166.113 450.719l-.599 1.19M432.804 413.091l1.27-.405M441.85 410.198l1.27-.407" style="fill:none;stroke:red;stroke-width:.666665;stroke-linecap:round;stroke-linejoin:round;stroke-miterlimit:4;stroke-dasharray:none;stroke-opacity:1;visibility:visible" visibility="hidden"/><path d="m444.762 409.267 2.463-.787" style="fill:none;stroke:red;stroke-width:.666665;stroke-linecap:round;stroke-linejoin:round;stroke-miterlimit:4;stroke-dasharray:1.72266,1.72266;stroke-dashoffset:0;stroke-opacity:1;visibility:visible" visibility="hidden"/><path d="m448.045 408.218 1.27-.405" style="fill:none;stroke:red;stroke-width:.666665;stroke-linecap:round;stroke-linejoin:round;stroke-miterlimit:4;stroke-dasharray:none;stroke-opacity:1;visibility:visible" visibility="hidden"/><path d="m197.943 488.095.104.139.068.156.052.172.035.19v.172l-.018.156-.05.139" style="fill:none;stroke:red;stroke-width:.666665;stroke-linecap:round;stroke-linejoin:round;stroke-miterlimit:4;stroke-dasharray:1.19333;stroke-dashoffset:0;stroke-opacity:1;visibility:visible" visibility="hidden"/><path d="m197.09 487.07.852 1.025" style="fill:none;stroke:red;stroke-width:.666665;stroke-linecap:round;stroke-linejoin:round;stroke-miterlimit:4;stroke-dasharray:none;stroke-opacity:1;visibility:visible" visibility="hidden"/><path d="m196.768 491.81-.07.087-.069.069-.085.05" style="fill:none;stroke:red;stroke-width:.666665;stroke-linecap:round;stroke-linejoin:round;stroke-miterlimit:4;stroke-dasharray:.309333;stroke-dashoffset:0;stroke-opacity:1;visibility:visible" visibility="hidden"/><path d="m198.133 489.22-.621 1.18M197.389 490.631l-.621 1.18" style="fill:none;stroke:red;stroke-width:.666665;stroke-linecap:round;stroke-linejoin:round;stroke-miterlimit:4;stroke-dasharray:none;stroke-opacity:1;visibility:visible" visibility="hidden"/><path d="m449.315 407.813.07-.017h.05l.035.034" style="fill:none;stroke:red;stroke-width:.666665;stroke-linecap:round;stroke-linejoin:round;stroke-miterlimit:4;stroke-dasharray:.172;stroke-dashoffset:0;stroke-opacity:1;visibility:visible" visibility="hidden"/><path d="m196.543 492.018 1.27-.408" style="fill:none;stroke:red;stroke-width:.666665;stroke-linecap:round;stroke-linejoin:round;stroke-miterlimit:4;stroke-dasharray:none;stroke-opacity:1;visibility:visible" visibility="hidden"/><path d="m200.436 490.768 9.183-2.95" style="fill:none;stroke:red;stroke-width:.666665;stroke-linecap:round;stroke-linejoin:round;stroke-miterlimit:4;stroke-dasharray:2.75599,2.75599;stroke-dashoffset:0;stroke-opacity:1;visibility:visible" visibility="hidden"/><path d="m210.93 487.397 1.27-.408M220.994 484.173l1.27-.407M442.282 413.239l1.27-.41M446.525 411.868l1.27-.41" style="fill:none;stroke:red;stroke-width:.666665;stroke-linecap:round;stroke-linejoin:round;stroke-miterlimit:4;stroke-dasharray:none;stroke-opacity:1;visibility:visible" visibility="hidden"/><path d="m448.157 411.183-.052.052-.052.068-.05.052-.053.035-.069.034-.07.035h-.017" style="fill:none;stroke:red;stroke-width:.666665;stroke-linecap:round;stroke-linejoin:round;stroke-miterlimit:4;stroke-dasharray:.466666;stroke-dashoffset:0;stroke-opacity:1;visibility:visible" visibility="hidden"/><path d="m448.157 411.183.68-1.147M448.912 409.91l.68-1.147" style="fill:none;stroke:red;stroke-width:.666665;stroke-linecap:round;stroke-linejoin:round;stroke-miterlimit:4;stroke-dasharray:none;stroke-opacity:1;visibility:visible" visibility="hidden"/><path d="m449.47 407.83.087.087.052.121.052.103.017.138.016.122-.016.121-.035.12-.052.121" style="fill:none;stroke:red;stroke-width:.666665;stroke-linecap:round;stroke-linejoin:round;stroke-miterlimit:4;stroke-dasharray:1.01066;stroke-dashoffset:0;stroke-opacity:1;visibility:visible" visibility="hidden"/><path d="m449.47 407.83-.895-.988M195.766 491.776l-.852-1.027" style="fill:none;stroke:red;stroke-width:.666665;stroke-linecap:round;stroke-linejoin:round;stroke-miterlimit:4;stroke-dasharray:none;stroke-opacity:1;visibility:visible" visibility="hidden"/><path d="m196.543 492.018-.104.017-.12.018-.104-.018-.104-.017-.104-.052-.087-.052-.085-.068-.07-.07" style="fill:none;stroke:red;stroke-width:.666665;stroke-linecap:round;stroke-linejoin:round;stroke-miterlimit:4;stroke-dasharray:.862665;stroke-dashoffset:0;stroke-opacity:1;visibility:visible" visibility="hidden"/><path d="M212.013 488.942v.052M142.885 470.027v-.139l.035-.138.052-.12.068-.104.088-.086.085-.069.07-.051.085-.018M158.418 479.22l.07.018.052-.035.034-.068.018-.104-.052-3.577M143.593 469.302l15.155 5.201M221.405 455.08l188.75-58.542M158.748 474.503l53.842-16.693M140.224 472.964h.069l.05-.034.037-.07.016-.102-.068-3.543M125.605 463.15l14.93 5.114M221.613 443.469l170.311-52.116M140.533 468.266l72.265-22.101" style="fill:none;stroke:red;stroke-width:.999997;stroke-linecap:round;stroke-linejoin:round;stroke-miterlimit:4;stroke-dasharray:none;stroke-opacity:1;visibility:visible" visibility="hidden"/><path d="m142.885 470.027.052 2.679" style="fill:none;stroke:red;stroke-width:1.99999;stroke-linecap:round;stroke-linejoin:round;stroke-miterlimit:4;stroke-dasharray:none;stroke-opacity:1;visibility:visible" visibility="hidden"/><path d="m176.874 485.58.07.015.052-.033.052-.07v-.104l-.052-3.593M161.84 475.558l15.36 5.27M221.18 467.003l207.445-65.213M177.202 480.827l35.165-11.059" style="fill:none;stroke:red;stroke-width:.999997;stroke-linecap:round;stroke-linejoin:round;stroke-miterlimit:4;stroke-dasharray:none;stroke-opacity:1;visibility:visible" visibility="hidden"/><path d="m161.168 478.962-.052-2.679" style="fill:none;stroke:red;stroke-width:1.99999;stroke-linecap:round;stroke-linejoin:round;stroke-miterlimit:4;stroke-dasharray:none;stroke-opacity:1;visibility:visible" visibility="hidden"/><path d="m180.106 481.9 32.227-10.163M196.522 488.223l.035 3.63M180.346 481.9l15.604 5.355M441.534 408.942l5.789-1.85M220.938 479.272l212.82-67.84M195.952 487.256l16.191-5.166M161.116 476.283l.017-.139.035-.137.052-.121.068-.122.086-.086.087-.068.069-.035.07-.017" style="fill:none;stroke:red;stroke-width:.999997;stroke-linecap:round;stroke-linejoin:round;stroke-miterlimit:4;stroke-dasharray:none;stroke-opacity:1;visibility:visible" visibility="hidden"/><path d="m179.657 485.302-.035-2.679" style="fill:none;stroke:red;stroke-width:1.99999;stroke-linecap:round;stroke-linejoin:round;stroke-miterlimit:4;stroke-dasharray:none;stroke-opacity:1;visibility:visible" visibility="hidden"/><path d="m179.622 482.624.018-.138.034-.138.052-.12.068-.105.087-.085.087-.088.069-.034.07-.016" style="fill:none;stroke:red;stroke-width:.999997;stroke-linecap:round;stroke-linejoin:round;stroke-miterlimit:4;stroke-dasharray:none;stroke-opacity:1;visibility:visible" visibility="hidden"/><path d="m195.813 492.422-15.587-5.375M180.226 487.048l-.104-.034-.102-.07-.087-.086-.087-.086-.07-.12-.049-.122-.035-.12-.02-.14v-.05M432.53 402.86l-.654-.19M447.462 407.093l-6.446-1.831M447.462 407.094l.104.035.086.069.088.068.084.07.07.104.052.121.034.104.016.137v.07M447.946 411.207l.052-3.334M447.946 411.207l-.018.123-.034.12-.052.12-.07.087-.07.086-.083.051-.071.035-.052.036M442.172 413.557l5.323-1.694M220.853 484.543l213.562-68.498M196.245 492.44l15.81-5.08M429.283 403.378l2.23-.708M428.747 401.789l-15.38-4.372M428.747 401.789l.103.034.104.052.086.07.07.085.069.088.051.12.036.104.017.139v.068M161.72 480.672l-.104-.034-.087-.07-.103-.086-.07-.087-.067-.103-.053-.138-.036-.12-.016-.139v-.035l-.018-.898M177.1 485.978l-15.38-5.306M177.514 485.978l2.143-.675M410.292 396.535l.088.035.103.05.087.072.068.085.069.103.052.105.035.121.016.12.018.07-.017.81 2.21-.689M395.103 392.215l15.19 4.32M143.489 474.399l-.104-.052-.103-.07-.086-.068-.07-.103-.069-.104-.052-.122-.035-.137-.017-.121-.017-.052M143.489 474.4l15.155 5.217M392.58 392.889l2.178-.656M159.058 479.618l2.11-.658M124.896 463.86l.069 3.523M125.518 468.195l-.104-.052-.102-.052-.087-.087-.07-.086-.068-.103-.053-.121-.05-.138-.019-.138v-.035M124.896 463.86l.017-.14.017-.138.052-.12.07-.104.085-.088.104-.069.07-.033.069-.034M125.518 468.195l14.932 5.15M392.062 391.351l.104.035.086.052.088.07.067.085.07.104.05.103.036.122.017.121.018.068-.018.779M377.08 387.102l14.98 4.25M221.802 433.965l154.932-46.863M125.38 463.132l87.609-26.49M140.845 473.346l2.09-.639" style="fill:none;stroke:red;stroke-width:1.99999;stroke-linecap:round;stroke-linejoin:round;stroke-miterlimit:4;stroke-dasharray:none;stroke-opacity:1;visibility:visible" visibility="hidden"/><path d="m221.37 456.982 189.441-58.873M221.578 445.318 392.58 392.89M161.6 475.558l50.958-15.845M143.368 469.302l69.395-21.288M221.146 468.974l208.138-65.595" style="fill:none;stroke:red;stroke-width:.999997;stroke-linecap:round;stroke-linejoin:round;stroke-miterlimit:4;stroke-dasharray:none;stroke-opacity:1;visibility:visible" visibility="hidden"/><path d="m185.703 467.563-2.575.801" style="fill:none;stroke:red;stroke-width:.666665;stroke-linecap:round;stroke-linejoin:round;stroke-miterlimit:4;stroke-dasharray:none;stroke-opacity:1;visibility:visible" visibility="hidden"/><path d="m183.128 468.364 2.575-.801M211.444 459.565l-1.286.4" style="fill:none;stroke:red;stroke-width:.666665;stroke-linecap:round;stroke-linejoin:round;stroke-miterlimit:4;stroke-dasharray:2.69599,2.69599;stroke-dashoffset:0;stroke-opacity:1;visibility:visible" visibility="hidden"/><path d="m212.558 459.713-1.114-.148M221.405 455.08l1.38.964M433.758 411.432l-.954 1.659M442.172 413.557l-8.097-.871M443.551 412.83l-1.701-2.632M444.762 409.267l-1.643.524" style="fill:none;stroke:red;stroke-width:.666665;stroke-linecap:round;stroke-linejoin:round;stroke-miterlimit:4;stroke-dasharray:none;stroke-opacity:1;visibility:visible" visibility="hidden"/><path d="m443.12 409.791 1.642-.524" style="fill:none;stroke:red;stroke-width:.666665;stroke-linecap:round;stroke-linejoin:round;stroke-miterlimit:4;stroke-dasharray:1.72266,1.72266;stroke-dashoffset:0;stroke-opacity:1;visibility:visible" visibility="hidden"/><path d="m195.766 491.776 1.324-4.706M196.245 492.44l1.567-.83" style="fill:none;stroke:red;stroke-width:.666665;stroke-linecap:round;stroke-linejoin:round;stroke-miterlimit:4;stroke-dasharray:none;stroke-opacity:1;visibility:visible" visibility="hidden"/><path d="m197.812 491.61 2.624-.842M210.93 487.397l-1.311.422" style="fill:none;stroke:red;stroke-width:.666665;stroke-linecap:round;stroke-linejoin:round;stroke-miterlimit:4;stroke-dasharray:2.75599,2.75599;stroke-dashoffset:0;stroke-opacity:1;visibility:visible" visibility="hidden"/><path d="m212.055 487.36-1.125.037M220.853 484.543l1.41-.777M442.172 413.557l1.38-.727M449.47 407.83l-.895-.988M197.942 488.095l-3.028 2.654" style="fill:none;stroke:red;stroke-width:.666665;stroke-linecap:round;stroke-linejoin:round;stroke-miterlimit:4;stroke-dasharray:none;stroke-opacity:1;visibility:visible" visibility="hidden"/><path d="m196.557 491.853 15.456-2.911M196.522 488.223l15.491.771M222.785 456.044l-1.38-.964M211.444 459.565l1.146-1.755M212.798 446.165l8.815-2.696M221.578 445.318l-8.78.847M212.367 469.768l8.813-2.765M221.146 468.974l-8.779.794M221.146 468.974l-8.813 2.763M212.013 488.994l-15.491-.771M443.12 409.791l-1.586-.849M222.263 483.766l-1.325-4.494M432.804 413.091l.954-1.659M210.93 487.397l1.213-5.307" style="fill:none;stroke:red;stroke-width:.999997;stroke-linecap:round;stroke-linejoin:round;stroke-miterlimit:4;stroke-dasharray:none;stroke-opacity:1;visibility:visible" visibility="hidden"/><path d="m428.747 401.789 3.783 1.071M432.53 402.86l8.486 2.402M432.804 413.091l1.611 2.954M212.989 436.642l8.813-2.677M221.802 433.965l-8.813 2.677" style="fill:none;stroke:red;stroke-width:1.99999;stroke-linecap:round;stroke-linejoin:round;stroke-miterlimit:4;stroke-dasharray:none;stroke-opacity:1;visibility:visible" visibility="hidden"/><path d="m392.58 392.889 18.231 5.22M212.798 446.165l8.78-.847M221.578 445.318l-8.815 2.696M212.367 469.768l8.779-.794" style="fill:none;stroke:red;stroke-width:.999997;stroke-linecap:round;stroke-linejoin:round;stroke-miterlimit:4;stroke-dasharray:none;stroke-opacity:1;visibility:visible" visibility="hidden"/><path d="m151.732 259.278 12.146-2.833" style="fill:none;stroke:#00ff4a;stroke-width:.666665;stroke-linecap:round;stroke-linejoin:round;stroke-miterlimit:4;stroke-dasharray:none;stroke-opacity:1;visibility:visible"/><path d="m137.616 255.632 21.873-5.062" style="fill:none;stroke:#00ff4a;stroke-width:.999997;stroke-linecap:round;stroke-linejoin:round;stroke-miterlimit:4;stroke-dasharray:none;stroke-opacity:1;visibility:visible"/><path d="m154.652 260.038 9.502-2.228" style="fill:none;stroke:#00ff4a;stroke-width:.666665;stroke-linecap:round;stroke-linejoin:round;stroke-miterlimit:4;stroke-dasharray:none;stroke-opacity:1;visibility:visible"/><path d="m430.524 418.009 4.69 1.358M437.012 432.067l-1.797-12.697M409.904 240.844l.847 5.925M410.751 246.769v.087l-.017.086-.018.051-.016.053-.053.052-.052.034-.052.034h-.052" style="fill:none;stroke:#00ff4a;stroke-width:.999997;stroke-linecap:round;stroke-linejoin:round;stroke-miterlimit:4;stroke-dasharray:none;stroke-opacity:1;visibility:visible"/><path d="m434.644 418.038-.466-3.283" style="fill:none;stroke:#00ff4a;stroke-width:1.99999;stroke-linecap:round;stroke-linejoin:round;stroke-miterlimit:4;stroke-dasharray:none;stroke-opacity:1;visibility:visible"/><path d="m410.422 247.132.068.034" style="fill:none;stroke:#00ff4a;stroke-width:.999997;stroke-linecap:round;stroke-linejoin:round;stroke-miterlimit:4;stroke-dasharray:none;stroke-opacity:1;visibility:visible"/><path d="m171.704 487.146.173.104.172.104.173.07M172.222 487.422l.243.052.241.033.224-.033.243-.052.207-.104.208-.155.19-.173.172-.226.156-.258.12-.276" style="fill:none;stroke:#00ff4a;stroke-width:.666665;stroke-linecap:round;stroke-linejoin:round;stroke-miterlimit:4;stroke-dasharray:none;stroke-opacity:1;visibility:visible"/><path d="m215.587 295.422-.034-.017M212.358 490.222l-3.277-1.12M133.71 472.442l-.69 4.873M212.358 490.222l-.277 14.548M215.933 294.869l.104-5.65M133.021 477.315v.052l.017.07.035.101.07.105.068.087.155.138.174.104.189.103.225.105" style="fill:none;stroke:#00ff4a;stroke-width:.999997;stroke-linecap:round;stroke-linejoin:round;stroke-miterlimit:4;stroke-dasharray:none;stroke-opacity:1;visibility:visible"/><path d="m212.013 488.942.052-2.367M138.792 479.855l-4.838-1.675" style="fill:none;stroke:#00ff4a;stroke-width:1.99999;stroke-linecap:round;stroke-linejoin:round;stroke-miterlimit:4;stroke-dasharray:none;stroke-opacity:1;visibility:visible"/><path d="m462.772 182.375-85.056-17.347M409.611 194.281l-24.136-5.131" style="fill:none;stroke:#00ff4a;stroke-width:.666665;stroke-linecap:round;stroke-linejoin:round;stroke-miterlimit:4;stroke-dasharray:none;stroke-opacity:1;visibility:visible"/><path d="M100.436 222.77h.104M377.527 162.819h-.12M385.666 170.663h-15.48M407.036 181.807h-.016M407.019 181.807l-.293-.052-.276-.018h-.278l-.276.035-.276.035M405.619 181.807l-.345.103-.347.139-.31.172-.31.19-.295.243-.277.276-.259.293-.224.329-.225.363-.19.38-.154.397-.14.432-.12.432-.484 2.194M401.939 187.75l-.07.26-.101.26-.14.224-.138.206-.172.173-.191.139-.19.104-.224.07" style="fill:none;stroke:#00ff4a;stroke-width:.999997;stroke-linecap:round;stroke-linejoin:round;stroke-miterlimit:4;stroke-dasharray:none;stroke-opacity:1;visibility:visible"/><path d="m103.028 224.513-2.886-.725M108.333 223.53l269.385-58.5" style="fill:none;stroke:#00ff4a;stroke-width:.666665;stroke-linecap:round;stroke-linejoin:round;stroke-miterlimit:4;stroke-dasharray:none;stroke-opacity:1;visibility:visible"/><path d="M377.612 162.819h-.086" style="fill:none;stroke:#00ff4a;stroke-width:.999997;stroke-linecap:round;stroke-linejoin:round;stroke-miterlimit:4;stroke-dasharray:none;stroke-opacity:1;visibility:visible"/><path d="M189.206 246.058 103.373 224.6M189.5 271.528l-85.574-22.254" style="fill:none;stroke:#00ff4a;stroke-width:.666665;stroke-linecap:round;stroke-linejoin:round;stroke-miterlimit:4;stroke-dasharray:none;stroke-opacity:1;visibility:visible"/><path d="m161.234 236.316 208.778-47.167M100.972 247.806l.07-.016.049.016M133.47 243.936l-.466-.122M133.004 243.814l-.278-.069-.276-.016-.276-.019-.258.02-.26.049M131.656 243.78l-.33.104-.328.138-.328.172-.293.208-.277.259-.26.293-.258.328-.206.348-.208.396-.174.398-.154.449-.122.465-.104.468-.414 2.384M128.2 250.19l-.052.311-.104.26-.104.259-.155.206-.156.191-.172.137-.207.122-.208.069" style="fill:none;stroke:#00ff4a;stroke-width:.999997;stroke-linecap:round;stroke-linejoin:round;stroke-miterlimit:4;stroke-dasharray:none;stroke-opacity:1;visibility:visible"/><path d="m103.562 249.17-2.868-.742" style="fill:none;stroke:#00ff4a;stroke-width:.666665;stroke-linecap:round;stroke-linejoin:round;stroke-miterlimit:4;stroke-dasharray:none;stroke-opacity:1;visibility:visible"/><path d="m190.173 270.974.052-.017.07.017" style="fill:none;stroke:#00ff4a;stroke-width:.999997;stroke-linecap:round;stroke-linejoin:round;stroke-miterlimit:4;stroke-dasharray:none;stroke-opacity:1;visibility:visible"/><path d="m193.768 272.426 276.26-66.724" style="fill:none;stroke:#00ff4a;stroke-width:.666665;stroke-linecap:round;stroke-linejoin:round;stroke-miterlimit:4;stroke-dasharray:none;stroke-opacity:1;visibility:visible"/><path d="m193.768 272.426.258 21.908" style="fill:none;stroke:#00ff4a;stroke-width:.999997;stroke-linecap:round;stroke-linejoin:round;stroke-miterlimit:4;stroke-dasharray:none;stroke-opacity:1;visibility:visible"/><path d="m192.973 272.426-3.093-.794" style="fill:none;stroke:#00ff4a;stroke-width:.666665;stroke-linecap:round;stroke-linejoin:round;stroke-miterlimit:4;stroke-dasharray:none;stroke-opacity:1;visibility:visible"/><path d="m189.88 271.63-.07-.034-.052-.036-.017-.034" style="fill:none;stroke:#00ff4a;stroke-width:.999997;stroke-linecap:round;stroke-linejoin:round;stroke-miterlimit:4;stroke-dasharray:none;stroke-opacity:1;visibility:visible"/><path d="m193.768 272.426-.122.018-.136.016h-.296l-.12-.016-.121-.018" style="fill:none;stroke:#00ff4a;stroke-width:.666665;stroke-linecap:round;stroke-linejoin:round;stroke-miterlimit:4;stroke-dasharray:none;stroke-opacity:1;visibility:visible"/><path d="m193.733 268.573-.017.139-.036.12-.051.086-.07.07-.084.052" style="fill:none;stroke:#00ff4a;stroke-width:.999997;stroke-linecap:round;stroke-linejoin:round;stroke-miterlimit:4;stroke-dasharray:none;stroke-opacity:1;visibility:visible"/><path d="m193.474 246.938 277.022-64.322" style="fill:none;stroke:#00ff4a;stroke-width:.666665;stroke-linecap:round;stroke-linejoin:round;stroke-miterlimit:4;stroke-dasharray:none;stroke-opacity:1;visibility:visible"/><path d="m193.474 246.929.259 21.643" style="fill:none;stroke:#00ff4a;stroke-width:.999997;stroke-linecap:round;stroke-linejoin:round;stroke-miterlimit:4;stroke-dasharray:none;stroke-opacity:1;visibility:visible"/><path d="m171.48 486.058.156.086.154.052.174.018.136-.035.157-.052.139-.087.12-.12" style="fill:none;stroke:#00ff4a;stroke-width:.666665;stroke-linecap:round;stroke-linejoin:round;stroke-miterlimit:4;stroke-dasharray:none;stroke-opacity:1;visibility:visible"/><path d="m172.516 485.92.104-.14.104-.172.069-.19.052-.208M193.474 246.929l-.121.017-.137.018h-.296l-.138-.018-.102-.016M192.68 246.938l-3.092-.777" style="fill:none;stroke:#00ff4a;stroke-width:.666665;stroke-linecap:round;stroke-linejoin:round;stroke-miterlimit:4;stroke-dasharray:none;stroke-opacity:1;visibility:visible"/><path d="m413.81 193.296-12.14-2.563M466.279 204.388l-2.004-.415M142.044 456.98l24.062-169.559M127.302 560.868l11.49-81.013M118.992 559.762l12.405-88.019M133.113 459.56l24.58-174.401M218.75 595.232l5.788-308.138M212.063 486.575l3.491-191.171M210.077 595.093l1.641-89.893M211.72 505.2l-72.928-25.345M215.554 295.404l-11.75-3.127M397.05 244.057l13.372 3.076M411.292 424.887l25.39 7.474M455.603 509.208l-38.045-270.266M434.179 414.755l-23.756-167.622M447.723 510.28l-11.04-77.92M363.135 390.018l-1.641-137.098M364.206 480.512l-.488-40.922M355.351 392.593l-1.839-137.668M356.52 480.598l-.51-38.44" style="fill:none;stroke:#00ff4a;stroke-width:1.99999;stroke-linecap:round;stroke-linejoin:round;stroke-miterlimit:4;stroke-dasharray:none;stroke-opacity:1;visibility:visible"/><path d="m377.716 164.633-.034 3.888" style="fill:none;stroke:#00ff4a;stroke-width:.999997;stroke-linecap:round;stroke-linejoin:round;stroke-miterlimit:4;stroke-dasharray:none;stroke-opacity:1;visibility:visible"/><path d="m404.79 187.025-.052.19-.07.191-.068.174-.104.153-.086.157-.122.137-.12.12-.121.123-.139.103-.154.068-.156.07-.174.052M404.79 187.025l.484-2.177M407.036 181.807l-.104.086-.206.19-.191.191-.172.206-.173.243-.174.24-.136.261-.157.293-.137.31-.122.331-.104.343-.086.347M435.319 188.321l-.139-.121-.224-.172-.242-.156-.242-.137-.241-.14-.243-.102-.241-.088-.241-.085-.243-.053M433.263 187.267l-26.227-5.46M400.712 189.183l-.104.019-.12.018h-.121l-.121-.02h-.12l-.087-.016M400.712 189.184l2.712-.621M466.745 180.927l-85.865-17.45M400.039 189.184l-13.74-2.904M466.884 181.03l-.07-.07-.068-.035" style="fill:none;stroke:#00ff4a;stroke-width:1.99999;stroke-linecap:round;stroke-linejoin:round;stroke-miterlimit:4;stroke-dasharray:none;stroke-opacity:1;visibility:visible"/><path d="M377.716 201.658h-7.325M377.682 168.521l-7.015 1.539M370.184 170.663l.484-.606M370.184 170.663l-.277 30.614M370.391 201.658l-.484-.38M385.146 170.06l.518.604M385.146 170.059l-7.464-1.539M385.666 170.663l-.311 29.215" style="fill:none;stroke:#00ff4a;stroke-width:.999997;stroke-linecap:round;stroke-linejoin:round;stroke-miterlimit:4;stroke-dasharray:none;stroke-opacity:1;visibility:visible"/><path d="M377.406 162.819h.206l2.903.588M103.977 245.905h0-.172v-.017h-.052M100.885 245.145l2.868.743M100.885 245.145h0-.017l-.018-.017h-.034l-.018-.018h-.017l-.017-.017h-.018v-.017h-.033v-.018h-.019v-.017h-.017l-.016-.017h-.019v-.018h-.016v-.016l-.018-.018-.016-.018-.018-.017v-.016h-.017v-.019l-.017-.016v-.018l-.018-.016v-.035h-.017v-.035l-.017-.017v-.07h-.018v-.068M100.004 223.324l.466 21.302M100.004 223.324v-.104h.016v-.07l.018-.017v-.033h.018v-.035h.017v-.035h.017v-.017l.018-.019v-.016h.017v-.017l.017-.017.018-.018v-.016h.017l.017-.018.018-.018h.016v-.017h.018l.018-.017h.016v-.018h.034v-.017h.036v-.017h.051v-.018h.035M154.306 234.59l214.658-48.238M100.436 222.77l276.97-59.95" style="fill:none;stroke:#00ff4a;stroke-width:1.99999;stroke-linecap:round;stroke-linejoin:round;stroke-miterlimit:4;stroke-dasharray:none;stroke-opacity:1;visibility:visible"/><path d="m103.926 249.274.45 21.199" style="fill:none;stroke:#00ff4a;stroke-width:.999997;stroke-linecap:round;stroke-linejoin:round;stroke-miterlimit:4;stroke-dasharray:none;stroke-opacity:1;visibility:visible"/><path d="M189.88 268.124h.034M103.84 245.542l.017.122.035.121.07.085.068.07.086.034M165.293 262.796l-38.053-9.862M190.036 293.849l-85.384-22.944M190.036 293.849h.172M104.376 270.473l.017.121.035.122.068.084.07.071.085.033" style="fill:none;stroke:#00ff4a;stroke-width:1.99999;stroke-linecap:round;stroke-linejoin:round;stroke-miterlimit:4;stroke-dasharray:none;stroke-opacity:1;visibility:visible"/><path d="m103.373 224.205.467 21.337" style="fill:none;stroke:#00ff4a;stroke-width:.999997;stroke-linecap:round;stroke-linejoin:round;stroke-miterlimit:4;stroke-dasharray:none;stroke-opacity:1;visibility:visible"/><path d="M104.513 270.818v.018h-.156v-.018h-.067M101.42 270.042l2.87.778M101.421 270.042h0-.035v-.017h-.034v-.017h-.035l-.017-.018h-.018v-.017h-.017l-.017-.017h-.018v-.018h-.017v-.017h-.016v-.017h-.019l-.017-.018v-.016h-.017v-.018h-.018v-.018l-.016-.016v-.018h-.018v-.016l-.016-.019v-.033h-.018v-.035h-.017v-.052l-.017-.017v-.104M100.557 248.342l.467 21.183M100.557 248.342v-.121h.017v-.07h.018v-.032h.017v-.035l.017-.018v-.016h.016v-.018l.02-.018v-.017h.014v-.017h.02v-.018h.017v-.017l.017-.017h.018v-.018h.016v-.017h.016v-.017h.036v-.018h.017l.017-.016h.018l.017-.018h.035l.017-.016h.035M100.972 247.806l5.442-1.226M131.706 249.309l-.034.208-.07.207-.068.19-.086.172-.088.174-.12.156-.12.137-.14.121-.138.104-.154.087-.156.068-.174.052M131.706 249.309l.415-2.384M133.47 243.936l-.052.052-.172.206-.173.243-.173.259-.155.276-.139.294-.121.294-.103.328-.104.328-.086.346-.07.363M166.4 262.093l-.156-.052-.172-.068-.156-.07-.138-.103-.156-.104-.138-.138-.14-.138-.119-.14-.138-.171-.103-.19-.122-.191-.086-.207-.087-.207-.069-.208-.07-.225-.05-.224M164.5 259.658l-.502-2.644M164 257.014l-.086-.397-.086-.38-.122-.38-.121-.38-.12-.363-.156-.362-.139-.347-.172-.345-.173-.328-.173-.312-.207-.309-.19-.295-.208-.276-.207-.26-.224-.242-.226-.241-.24-.208-.225-.207-.243-.172-.241-.173-.243-.139-.241-.121-.225-.121-.242-.086-.258-.069M159.23 250.501l-25.76-6.565M127.042 251.745l-.104.017-.12.018h-.242l-.12-.018-.122-.034M127.042 251.745l3.318-.76M193.076 244.246l-84.167-20.956M189.724 268.124l-23.324-6.03M126.334 251.729l-22.218-5.753M193.232 244.333l-.07-.052-.086-.033M189.724 268.124l.086.016.07-.016" style="fill:none;stroke:#00ff4a;stroke-width:1.99999;stroke-linecap:round;stroke-linejoin:round;stroke-miterlimit:4;stroke-dasharray:none;stroke-opacity:1;visibility:visible"/><path d="m190.173 270.974 3.63-.873" style="fill:none;stroke:#00ff4a;stroke-width:.999997;stroke-linecap:round;stroke-linejoin:round;stroke-miterlimit:4;stroke-dasharray:none;stroke-opacity:1;visibility:visible"/><path d="M469.752 225.518v.07h-.017v.07h-.018v.05h-.017v.034h-.017v.035h-.018v.019l-.017.016v.017h-.017v.017h-.018v.018h-.017v.016h-.016v.018h-.02v.018h-.016v.017h-.016l-.017.017h-.018v.018h-.033v.017h-.036v.017h-.052l-.017.018M469.752 205.13h.035l.017.018h.036v.017h.033v.017h.035v.018h.016l.019.017h.017v.017h.016v.018h.017v.017h.018v.017h.017v.018h.017v.016l.018.018v.016h.017v.036h.017v.035h.018v.035l.017.016v.052h.018v.104l-.398 19.886" style="fill:none;stroke:#00ff4a;stroke-width:1.99999;stroke-linecap:round;stroke-linejoin:round;stroke-miterlimit:4;stroke-dasharray:none;stroke-opacity:1;visibility:visible"/><path d="M466.452 204.476h.088v-.018h.05v.018h.086l3.076.656M193.768 294.782l275.587-68.762" style="fill:none;stroke:#00ff4a;stroke-width:1.99999;stroke-linecap:round;stroke-linejoin:round;stroke-miterlimit:4;stroke-dasharray:none;stroke-opacity:1;visibility:visible"/><path d="m189.742 271.528.259 21.889M189.742 271.528v-.122h.018v-.069h.017v-.033l.017-.019v-.016l.018-.019v-.016l.016-.017v-.017h.018v-.018h.016v-.017l.019-.017.016-.018.017-.017.018-.017h.017v-.018h.017v-.017h.018v-.017H190l.018-.018h.018l.017-.016h.035v-.018h.034l.018-.018h.034" style="fill:none;stroke:#00ff4a;stroke-width:.999997;stroke-linecap:round;stroke-linejoin:round;stroke-miterlimit:4;stroke-dasharray:none;stroke-opacity:1;visibility:visible"/><path d="m193.85 244.192 267.902-61.984M193.768 294.782h0-.052l-.018.018h-.121l-.017-.018h-.07M190.416 293.953l3.074.83" style="fill:none;stroke:#00ff4a;stroke-width:1.99999;stroke-linecap:round;stroke-linejoin:round;stroke-miterlimit:4;stroke-dasharray:none;stroke-opacity:1;visibility:visible"/><path d="m189.88 245.11 3.97-.918" style="fill:none;stroke:#00ff4a;stroke-width:.666665;stroke-linecap:round;stroke-linejoin:round;stroke-miterlimit:4;stroke-dasharray:none;stroke-opacity:1;visibility:visible"/><path d="m193.474 269.04 276.347-66.396" style="fill:none;stroke:#00ff4a;stroke-width:1.99999;stroke-linecap:round;stroke-linejoin:round;stroke-miterlimit:4;stroke-dasharray:none;stroke-opacity:1;visibility:visible"/><path d="M189.43 245.68v-.104h.018v-.068h.017v-.052h.017v-.036h.018v-.034h.017v-.016l.017-.018v-.018h.018v-.017l.017-.017.017-.018v-.017h.016v-.017h.019l.016-.016.017-.019h.018v-.017h.017l.017-.016h.018l.016-.02h.018l.018-.015h.034v-.019h.052l.018-.016" style="fill:none;stroke:#00ff4a;stroke-width:.666665;stroke-linecap:round;stroke-linejoin:round;stroke-miterlimit:4;stroke-dasharray:none;stroke-opacity:1;visibility:visible"/><path d="m189.43 245.68.26 22.012" style="fill:none;stroke:#00ff4a;stroke-width:.999997;stroke-linecap:round;stroke-linejoin:round;stroke-miterlimit:4;stroke-dasharray:none;stroke-opacity:1;visibility:visible"/><path d="M470.219 202.142v.088h-.019v.07h-.016v.032l-.017.018v.016l-.018.02v.014h-.016v.036h-.018v.017h-.016v.019h-.019v.016l-.016.017-.017.017h-.019v.018h-.016v.017h-.017l-.018.017h-.017v.018h-.035v.017h-.034l-.018.017h-.033l-.02.018M470.219 181.635h.017v.017h.052v.017h.035l.017.018h.017l.018.017h.017v.016h.018l.017.02h.016v.016h.017v.017h.017v.018h.02v.016h.015v.018l.018.016v.019h.02v.017l.013.016v.019l.018.016v.035h.019v.052h.016v.138l-.396 19.99" style="fill:none;stroke:#00ff4a;stroke-width:1.99999;stroke-linecap:round;stroke-linejoin:round;stroke-miterlimit:4;stroke-dasharray:none;stroke-opacity:1;visibility:visible"/><path d="M466.919 181.013h.07v-.017h.085v.017h.051l3.095.622M193.474 269.04h0-.258v-.018h-.02M190.12 268.228l3.078.794" style="fill:none;stroke:#00ff4a;stroke-width:1.99999;stroke-linecap:round;stroke-linejoin:round;stroke-miterlimit:4;stroke-dasharray:none;stroke-opacity:1;visibility:visible"/><path d="m172.5 487.284 1.174-.19M170.6 485.884l.069.156M172.5 487.284h-.224l-.226-.017-.224-.067-.225-.106-.208-.155-.207-.173-.19-.224-.171-.242-.157-.26M170.288 483.88l-.035.295-.017.293.034.294.035.293.07.277.102.294.121.258" style="fill:none;stroke:#00ff4a;stroke-width:.666665;stroke-linecap:round;stroke-linejoin:round;stroke-miterlimit:4;stroke-dasharray:none;stroke-opacity:1;visibility:visible"/><path d="m455.482 509.83-.052.14-.052.138-.07.12-.07.122-.135.173-.157.137-.156.14-.19.138-.206.137-.226.121-.242.104-.224.087-.242.085-.242.088-.26.069-.258.066-.242.053-.224.035-.244.035-.24.034-.242.035-.294.017h-.812l-.276-.034-.26-.018-.241-.052-.242-.052-.243-.068-.24-.104-.225-.104-.208-.138-.173-.138-.138-.156-.138-.173M455.482 509.831l.104-.397M448.018 510.867l-.208-.345M455.603 509.208v.086M447.81 510.522l-.052-.122-.035-.12M455.603 509.295v.07l-.017.068M363.982 481.236l-.087.156-.087.138-.104.138-.12.122-.138.138-.156.12-.172.122-.172.102-.243.122-.241.104-.278.086-.276.087-.225.05-.241.054-.242.033-.26.018-.24.017-.313.017h-.293l-.294-.017-.276-.035-.293-.034-.26-.052-.276-.07-.241-.068-.26-.086-.242-.104-.225-.122-.207-.137-.173-.121-.156-.139-.137-.137-.139-.174-.103-.172-.034-.086M363.982 481.236l.138-.345M356.778 481.306l-.174-.328M356.604 480.978l-.034-.122-.035-.136-.015-.122M364.206 480.512l-.018.12-.017.14-.051.119M216.418 596.907l-.501.07-.5.033-.52.035h-.518l-.518-.017-.501-.052-.52-.052-.5-.087M212.34 596.839l-.208-.035-.207-.05-.207-.054-.19-.052-.175-.068-.223-.104-.225-.121-.19-.121-.155-.155-.12-.121-.105-.155-.069-.173M218.543 595.769l-.071.138-.068.12-.103.121-.104.104-.104.088-.123.067-.153.103-.174.087-.172.07-.241.07-.26.066-.26.053-.293.052M218.542 595.768l.19-.45M210.266 595.63l-.172-.45M218.75 595.232v.052l-.017.036M210.093 595.18l-.018-.035v-.052M127.008 561.472l-.088.122-.103.12-.087.105-.102.085-.174.122-.172.104-.19.086-.224.086-.243.068-.241.053-.26.052-.242.035-.276.017-.276.017h-.57l-.243-.017-.259-.017-.258-.035-.26-.035-.242-.034-.293-.07-.295-.052-.276-.068-.276-.086-.26-.087-.258-.104-.243-.104-.224-.103-.241-.138-.207-.14-.208-.154-.19-.173-.123-.155-.119-.172-.104-.191-.07-.206M127.008 561.472l.224-.38M119.113 560.402l-.104-.432M127.302 560.884l-.034.104-.035.104M119.009 559.968l-.017-.104v-.104" style="fill:none;stroke:#00ff4a;stroke-width:1.99999;stroke-linecap:round;stroke-linejoin:round;stroke-miterlimit:4;stroke-dasharray:none;stroke-opacity:1;visibility:visible"/><path d="m159.489 250.57-7.757 8.708" style="fill:none;stroke:#00ff4a;stroke-width:.666665;stroke-linecap:round;stroke-linejoin:round;stroke-miterlimit:4;stroke-dasharray:none;stroke-opacity:1;visibility:visible"/><path d="m130.36 250.985 7.256 4.647" style="fill:none;stroke:#00ff4a;stroke-width:.999997;stroke-linecap:round;stroke-linejoin:round;stroke-miterlimit:4;stroke-dasharray:none;stroke-opacity:1;visibility:visible"/><path d="m163.878 256.445-9.226 3.593" style="fill:none;stroke:#00ff4a;stroke-width:.666665;stroke-linecap:round;stroke-linejoin:round;stroke-miterlimit:4;stroke-dasharray:none;stroke-opacity:1;visibility:visible"/><path d="m436.682 432.361-6.158-14.352" style="fill:none;stroke:#00ff4a;stroke-width:.999997;stroke-linecap:round;stroke-linejoin:round;stroke-miterlimit:4;stroke-dasharray:none;stroke-opacity:1;visibility:visible"/><path d="m435.215 419.37-.571-1.332" style="fill:none;stroke:#00ff4a;stroke-width:1.99999;stroke-linecap:round;stroke-linejoin:round;stroke-miterlimit:4;stroke-dasharray:none;stroke-opacity:1;visibility:visible"/><path d="m211.72 505.2-2.639-16.098M133.113 459.56l.597 12.882" style="fill:none;stroke:#00ff4a;stroke-width:.999997;stroke-linecap:round;stroke-linejoin:round;stroke-miterlimit:4;stroke-dasharray:none;stroke-opacity:1;visibility:visible"/><path d="m212.358 490.222-.345-1.28" style="fill:none;stroke:#00ff4a;stroke-width:1.99999;stroke-linecap:round;stroke-linejoin:round;stroke-miterlimit:4;stroke-dasharray:none;stroke-opacity:1;visibility:visible"/><path d="m401.67 190.733 7.941 3.548M400.039 189.184l-14.564-.034" style="fill:none;stroke:#00ff4a;stroke-width:.666665;stroke-linecap:round;stroke-linejoin:round;stroke-miterlimit:4;stroke-dasharray:none;stroke-opacity:1;visibility:visible"/><path d="m159.489 250.57 1.745-14.254M370.667 170.06l-.655 19.089" style="fill:none;stroke:#00ff4a;stroke-width:.999997;stroke-linecap:round;stroke-linejoin:round;stroke-miterlimit:4;stroke-dasharray:none;stroke-opacity:1;visibility:visible"/><path d="m407.036 181.807 6.774 11.489M400.039 189.184l1.631 1.549M469.752 205.132l-5.477-1.159M133.71 472.442l8.334-15.462M133.02 477.315l-1.623-5.572M131.397 471.743l1.716-12.183M215.933 294.869l8.605-7.775M193.49 294.783l10.314-2.506M410.751 246.769l6.807-7.827M385.146 170.059l1.153 16.221M159.489 250.57l-5.183-15.98M370.667 170.06l-1.703 16.292M166.4 262.094l-1.107.702M126.334 251.729l.906 1.205M100.972 247.806l5.442-1.226" style="fill:none;stroke:#00ff4a;stroke-width:1.99999;stroke-linecap:round;stroke-linejoin:round;stroke-miterlimit:4;stroke-dasharray:none;stroke-opacity:1;visibility:visible"/><path d="m193.474 269.04.329 1.061" style="fill:none;stroke:#00ff4a;stroke-width:.999997;stroke-linecap:round;stroke-linejoin:round;stroke-miterlimit:4;stroke-dasharray:none;stroke-opacity:1;visibility:visible"/><path d="m174.226 486.23 7.82-16.347" style="fill:none;stroke:red;stroke-width:.666665;stroke-linecap:round;stroke-linejoin:round;stroke-miterlimit:4;stroke-dasharray:1.2;stroke-dashoffset:0;stroke-opacity:1;visibility:visible" visibility="hidden"/><path d="m182.046 469.883-7.82 16.347" style="fill:none;stroke:#00ff4a;stroke-width:.666665;stroke-linecap:round;stroke-linejoin:round;stroke-miterlimit:4;stroke-dasharray:none;stroke-opacity:1;visibility:visible"/><path d="m385.475 189.15-7.759 12.508" style="fill:none;stroke:#00ff4a;stroke-width:.999997;stroke-linecap:round;stroke-linejoin:round;stroke-miterlimit:4;stroke-dasharray:none;stroke-opacity:1;visibility:visible"/><path d="m179.622 482.624-9.334 1.256" style="fill:none;stroke:#00ff4a;stroke-width:.666665;stroke-linecap:round;stroke-linejoin:round;stroke-miterlimit:4;stroke-dasharray:none;stroke-opacity:1;visibility:visible"/></svg>