<svg xmlns="http://www.w3.org/2000/svg" baseProfile="full" height="793.701" preserveAspectRatio="xMinYMin meet" style="width:738px;height:965px" width="559.371" xml:space="preserve"><path d="m150.383 335.826 17.313-3.232M177.253 330.815l242.94-45.221M388.293 268.832v.035M455.893 292.419v.207l.033.156.036.173.016.12.018.121v.087l.018.07v.086l-.018.087-2.575 14.41M455.893 292.419h0M453.422 307.937l-.017.07-.018.069-.034.085-.052.07-.035.051-.068.087-.07.052-.051.035h-.035M381.001 284.038v.07l.017.069.052.12.07.104.086.104.172.154.19.122.225.121.26.121M381.745 269.558l-.744 14.48M383.247 269.004l-.155-.017h-.156l-.156.017-.154.017-.26.052-.242.087-.121.052-.104.087-.052.05-.05.052-.035.087-.018.07M388.293 268.866l-.05.07-.089.051-.12.051-.172.052-.208.053-.241.034-.277.017-.294.017-.346.018h-.742l-.398-.018-.415-.034-.415-.034-.43-.034-.416-.052-.432-.052M455.996 293.525l-74.25-23.968" style="fill:none;stroke:red;stroke-width:.999997;stroke-linecap:round;stroke-linejoin:round;stroke-miterlimit:4;stroke-dasharray:none;stroke-opacity:1;visibility:visible"/><path d="m456.204 290.657-.31 1.763" style="fill:none;stroke:red;stroke-width:1.99999;stroke-linecap:round;stroke-linejoin:round;stroke-miterlimit:4;stroke-dasharray:none;stroke-opacity:1;visibility:visible"/><path d="M388.293 268.832h0M453.042 308.455h-.017" style="fill:none;stroke:red;stroke-width:.999997;stroke-linecap:round;stroke-linejoin:round;stroke-miterlimit:4;stroke-dasharray:none;stroke-opacity:1;visibility:visible"/><path d="m387.36 286.769-5.288-1.745" style="fill:none;stroke:red;stroke-width:1.99999;stroke-linecap:round;stroke-linejoin:round;stroke-miterlimit:4;stroke-dasharray:none;stroke-opacity:1;visibility:visible"/><path d="m134.26 338.574-.207-.07-.19-.017-.19.035-.173.07-.156.103-.139.155-.102.208M134.917 344.587l.207.087.209.052h.19l.171-.052.174-.087.137-.12.139-.173.104-.207.085-.243.053-.277.035-.293.017-.328-.017-.346-.035-.362-.069-.364-.087-.363-.104-.38-.137-.363-.139-.345-.173-.33-.173-.31-.207-.293-.19-.26-.207-.224-.226-.172-.206-.156-.207-.104" style="fill:none;stroke:red;stroke-width:.666665;stroke-linecap:round;stroke-linejoin:round;stroke-miterlimit:4;stroke-dasharray:none;stroke-opacity:1;visibility:visible"/><path d="M101.255 320.516h-.155l-.173.017-.139.035-.156.035-.24.086-.209.12-.103.07-.086.104-.035.052-.035.069-.017.07v.086l69.103 27.924M169.01 349.184l-.017-.121-.018-.103-.017-.105-.017-.103-.035-.156-.035-.156-.017-.137-.017-.156M81.038 225.822l.035.085.086.087.122.07.173.069.223.052.242.034.295.035.328.017h.725l.398-.034.432-.018.432-.052.449-.052.467-.069.449-.085.467-.087.449-.087.43-.104.417-.104.397-.12.38-.121.363-.121.312-.12.292-.122.242-.121.207-.12M90.266 224.25l-.017.087-.035.104-.087.104-.12.085-.157.104M102.603 336.206l-2.695-14.947M101.255 320.516l.45-.017.466-.035.45-.052.466-.068.45-.07.449-.086.432-.104.397-.121.397-.12.363-.139.328-.139.295-.137.258-.156.224-.156.191-.155.137-.173.106-.156" style="fill:none;stroke:red;stroke-width:.999997;stroke-linecap:round;stroke-linejoin:round;stroke-miterlimit:4;stroke-dasharray:none;stroke-opacity:1;visibility:visible"/><path d="m107.113 318.633.017-.035.018-.034.017-.035.017-.017M103.45 336.95l-.19-.087-.157-.086-.137-.104-.139-.12-.069-.07-.052-.069-.068-.103-.036-.105M171.775 253.28l-.017.19-.052.173-.103.19-.156.172-.19.174-.225.173-.277.155-.31.156-.346.154-.38.122-.415.121-.414.104-.45.103-.466.069-.467.052-.483.052-.485.017-.465.018-.467-.018-.468-.034-.432-.035-.413-.07-.398-.086-.364-.085-.328-.122-.293-.121-.26-.137-.224-.139-.173-.156-.12-.172-.087-.173-.035-.174M170.082 363.993l-1.072-14.808M170.013 364.373h0l.017-.017.016-.035.018-.07.018-.085v-.173" style="fill:none;stroke:red;stroke-width:.999997;stroke-linecap:round;stroke-linejoin:round;stroke-miterlimit:4;stroke-dasharray:none;stroke-opacity:1;visibility:visible"/><path d="m168.457 343.067.38 5.08" style="fill:none;stroke:red;stroke-width:1.99999;stroke-linecap:round;stroke-linejoin:round;stroke-miterlimit:4;stroke-dasharray:none;stroke-opacity:1;visibility:visible"/><path d="M107.182 318.511h.017" style="fill:none;stroke:red;stroke-width:.999997;stroke-linecap:round;stroke-linejoin:round;stroke-miterlimit:4;stroke-dasharray:none;stroke-opacity:1;visibility:visible"/><path d="m103.45 336.95 7.62 3.144" style="fill:none;stroke:red;stroke-width:1.99999;stroke-linecap:round;stroke-linejoin:round;stroke-miterlimit:4;stroke-dasharray:none;stroke-opacity:1;visibility:visible"/><path d="M170.013 364.373h0" style="fill:none;stroke:red;stroke-width:.999997;stroke-linecap:round;stroke-linejoin:round;stroke-miterlimit:4;stroke-dasharray:none;stroke-opacity:1;visibility:visible"/><path d="m133.845 340.388-.139-.087-.137-.052-.121-.017-.122.017-.12.07-.086.086-.07.122M134.657 341.718l-.07-.241-.103-.243-.103-.207-.121-.208-.138-.172-.138-.156-.139-.104M134.693 343.205l.05-.156.035-.19.018-.207v-.207l-.018-.241-.052-.243-.068-.243M133.88 343.36l.139.087.137.034.139.018.12-.018.104-.052.086-.104.087-.121" style="fill:none;stroke:red;stroke-width:.666665;stroke-linecap:round;stroke-linejoin:round;stroke-miterlimit:4;stroke-dasharray:none;stroke-opacity:1;visibility:visible"/><path d="m420.193 285.593-.656 5.944M419.086 292.194l.104-.035.104-.086.087-.087.068-.137.053-.156.035-.156M416.027 283.416l-.07-.017h-.085M419.777 284.625l-3.75-1.21M420.193 285.593l.017-.173-.017-.19-.052-.173-.07-.156-.085-.12-.088-.104-.121-.052" style="fill:none;stroke:red;stroke-width:.999997;stroke-linecap:round;stroke-linejoin:round;stroke-miterlimit:4;stroke-dasharray:none;stroke-opacity:1;visibility:visible"/><path d="m144.888 333.614 22.584-4.181M177.029 327.653 415.872 283.4M162.047 340.492l6.15-1.157M177.72 337.537l241.365-45.343M480.95 203.081l.017-.035-.017-.05M472.066 201.578v-.017M384.44 177.8v-.017M393.062 178.215h0M456.204 290.657l-67.912-21.825M472.066 201.578l-15.861 89.078M393.062 178.215l-4.77 90.616M384.44 177.8l-5.859 112.51M453.025 308.455l-43.684-14.43M391.075 287.995l-3.715-1.227M81.038 225.735l-.017.035.017.052M90.249 224.232h.017v.017M171.689 253.003l.052.139.033.138M162.012 253.953v-.139l.035-.154M90.266 224.25l16.933 94.262M162.012 253.953l6.445 89.113M107.2 318.511l61.257 24.556M111.07 340.094l58.943 24.279" style="fill:none;stroke:red;stroke-width:1.99999;stroke-linecap:round;stroke-linejoin:round;stroke-miterlimit:4;stroke-dasharray:none;stroke-opacity:1;visibility:visible"/><path d="m132.566 340.043-.05.241-.035.26-.018.276.018.294.034.329.07.31.085.329.104.328.12.312.14.293.155.277.173.242.172.224.19.19.19.139M135.142 344.552l-.173.035h-.155l-.19-.052-.174-.087-.19-.103M132.704 339.645l.087-.207.104-.173.104-.139.137-.102.156-.07M132.566 340.043l.139-.397M133.914 344.086l.347.259M133.293 338.954l1.053-.345M135.142 344.552l1.053-.345" style="fill:none;stroke:red;stroke-width:.666665;stroke-linecap:round;stroke-linejoin:round;stroke-miterlimit:4;stroke-dasharray:none;stroke-opacity:1;visibility:visible"/><path d="m171.463 252.554.225.45M162.219 253.193l.07-.172.086-.156.087-.156.104-.137.189-.191.19-.173.225-.172.242-.156.276-.138.294-.121.294-.121.294-.104.293-.087.312-.068.328-.07.328-.051.276-.035.31-.035.295-.034.294-.018h.64l.345.018.345.017.33.035.328.052.31.069.311.07.277.102.294.104.293.139.26.154.241.191.191.19.155.19.138.225M162.219 253.193l-.172.467M89.954 223.696l.259.432M81.142 225.234l.033-.156.07-.155.069-.121.087-.139.086-.102.086-.104.14-.122.154-.102.138-.087.26-.156.293-.121.312-.138M81.142 225.234l-.104.501M87.811 222.867l.225.017.224.018.226.017.189.035.208.034.259.086.277.121.139.087.137.121.139.137.12.156M82.87 223.73l.519-.172.534-.173.536-.139.536-.121.57-.103.554-.07.57-.051.552-.018.57-.017M480.845 202.51l.104.484M472.36 201.042l.104-.12.103-.104.104-.104.121-.087.104-.069.12-.052.156-.07.172-.05.156-.035.276-.052.295-.017.294-.017M472.36 201.042l-.259.432M479.238 201.111l.207.07.19.086.19.104.173.085.173.104.191.156.19.19.102.138.07.139.087.155.034.173M474.366 200.265h.552l.536.017.536.035.535.07.449.085.468.086.465.122.45.121.449.137.432.174M392.907 177.75l.155.467M384.647 177.351l.052-.104.07-.103.069-.086.086-.087.086-.07.086-.051.087-.052.07-.034.069-.018.085-.034.052-.017M384.647 177.351l-.207.432M392.164 177.023l.087.035.104.052.068.034.069.051.088.07.103.103.086.104.087.138.052.138M385.46 176.695l.535-.104.52-.087.534-.069.536-.05h.311l.312-.02h.517l.191.02.207.015.52.052.397.052.396.07.397.086.38.087.486.139.465.137" style="fill:none;stroke:red;stroke-width:1.99999;stroke-linecap:round;stroke-linejoin:round;stroke-miterlimit:4;stroke-dasharray:none;stroke-opacity:1;visibility:visible"/><path d="m364.626 485.11-.267.067-.226.093-.2.08-.16.08-.119.107-.095.106-.026.12v.107l.053.12.068.107.132.106.16.094.213.093.215.08.28.067.279.08.306.053.334.027.32.04.346.013.174-.013h.52l.333-.04.307-.027.306-.053.267-.08.253-.08.214-.094.173-.08.16-.106.08-.107.068-.093.012-.12-.012-.107-.068-.107-.107-.12-.146-.093-.174-.093-.225-.094-.241-.08-.28-.066-.307-.054-.32-.053-.32-.04-.347-.013h-.68l-.346.04-.32.026-.294.04-.293.067M164.52 532.643l.32-.067.333-.053.347-.027.361-.026.199-.014h.16l.373.014.347.026.333.027.334.053.293.067.28.067.24.093.215.107.172.093.133.12.081.107.039.12v.146l-.053.12-.08.12-.147.12-.173.107-.199.093-.241.094-.28.08-.306.093-.333.053-.348.054-.347.013-.358.013h-.735l-.347-.026-.32-.054-.333-.053-.265-.067-.268-.093-.227-.08-.187-.107-.158-.12-.095-.106-.08-.12-.013-.12.013-.134.08-.12.12-.133.148-.093.199-.107.213-.107.28-.08.28-.093M163.773 536.43l2.36-.56 16.012-3.827M191.306 529.87l5.961-1.427 169.145-40.346 14.054-3.347M377.56 472.817v.04M420.16 494.67l.013-.093v-.16l-.013-.08-.015-.12-.025-.12-.013-.107v-.08l-.04-.173v-.267" style="fill:none;stroke:red;stroke-width:.999997;stroke-linecap:round;stroke-linejoin:round;stroke-miterlimit:4;stroke-dasharray:none;stroke-opacity:1;visibility:visible"/><path d="m417.72 508.39 1.759-9.893.681-3.827M417.374 508.776h.039l.053-.013.053-.027.067-.08.028-.027.04-.053.039-.093.014-.054.014-.04M371.08 473.79l.028-.067.025-.066.054-.054.053-.053.107-.093.133-.054.228-.066.252-.054h.148l.145-.013.16.013.16.027M372.573 473.31l.415.053.425.04.413.04.414.04.414.014h.387l.387-.014.358-.026.32-.014.322-.053.265-.053.227-.054.213-.066.173-.08.122-.094.078-.08.054-.106M370.586 483.577v-.027l.493-9.76" style="fill:none;stroke:red;stroke-width:.999997;stroke-linecap:round;stroke-linejoin:round;stroke-miterlimit:4;stroke-dasharray:none;stroke-opacity:1;visibility:visible"/><path d="m420.16 494.67-20.628-8.773-28.453-12.107" style="fill:none;stroke:red;stroke-width:.999997;stroke-linecap:round;stroke-linejoin:round;stroke-miterlimit:4;stroke-dasharray:none;stroke-opacity:1;visibility:visible"/><path d="m420.52 490.99-.013.04-.44 2.44" style="fill:none;stroke:red;stroke-width:1.99999;stroke-linecap:round;stroke-linejoin:round;stroke-miterlimit:4;stroke-dasharray:none;stroke-opacity:1;visibility:visible"/><path d="m377.586 472.803-.027.013M417.374 508.776l-.028-.013" style="fill:none;stroke:red;stroke-width:.999997;stroke-linecap:round;stroke-linejoin:round;stroke-miterlimit:4;stroke-dasharray:none;stroke-opacity:1;visibility:visible"/><path d="m145.72 540.07-.12-.04-.173-.053h-.175l-.172.026-.147.067-.133.133-.108.134-.092.173M145.786 540.097l-.053-.027M146.6 545.763l.173.08.187.04.172-.013.173-.054.135-.093.053-.053.067-.08.132-.174.015-.053.066-.16.054-.213.053-.28.013-.294-.013-.32-.04-.346-.053-.334-.08-.346-.107-.374-.121-.333-.159-.347-.147-.333-.173-.307-.201-.293-.186-.267-.201-.226-.213-.2-.199-.16-.213-.134" style="fill:none;stroke:red;stroke-width:.666665;stroke-linecap:round;stroke-linejoin:round;stroke-miterlimit:4;stroke-dasharray:none;stroke-opacity:1;visibility:visible"/><path d="M138.88 528.976h-.173l-.16.027-.16.013-.135.04-.239.067-.106.053-.108.053-.107.067-.079.08-.04.053-.026.054-.028.08.028.08 28.705 14.68 17.535 8.973" style="fill:none;stroke:red;stroke-width:.999997;stroke-linecap:round;stroke-linejoin:round;stroke-miterlimit:4;stroke-dasharray:none;stroke-opacity:1;visibility:visible"/><path d="m144.506 526.87-.08.2-.12.173-.173.187-.227.187-.24.173-.293.173-.32.16-.347.147-.373.147-.4.133-.414.107-.44.106-.44.067-.453.067-.427.053-.453.013-.427.014M144.573 526.683v.013l-.013.027v.027l-.014.053-.04.067M140.107 543.843l.013.08.054.093.106.12.094.12.12.094.145.08.135.093M137.547 529.643l2.56 14.2M183.786 553.297l.16 2.147.827 11.573M184.773 567.017v.227l-.028.026-.012.04h-.027" style="fill:none;stroke:red;stroke-width:.999997;stroke-linecap:round;stroke-linejoin:round;stroke-miterlimit:4;stroke-dasharray:none;stroke-opacity:1;visibility:visible"/><path d="m183.186 546.283.013.24.387 5.307.027.44" style="fill:none;stroke:red;stroke-width:1.99999;stroke-linecap:round;stroke-linejoin:round;stroke-miterlimit:4;stroke-dasharray:none;stroke-opacity:1;visibility:visible"/><path d="m140.773 544.523 1.44.733M397.52 499.323l-.252.08-.227.08-.214.093-.147.094-.12.106-.093.107-.039.12.025.12.027.107.107.12.121.106.173.094.214.093.238.08.28.093.294.067.308.053.333.04.333.027h1.066l.321-.027.333-.053.292-.053.28-.067.24-.08.2-.08.2-.107.134-.106.106-.094.054-.12.013-.106-.04-.12-.067-.12-.106-.107-.146-.107-.201-.106-.213-.08-.267-.094-.28-.066-.307-.054-.333-.053-.32-.027-.347-.013h-.065l-.295-.027-.346.027-.334.013-.333.027-.307.053-.293.067M195.812 548.47l.307-.067.346-.053.347-.053.361-.014.359-.013h.028l.359.013.361.014.345.04.334.053.308.067.28.08.252.093.213.107.173.106.135.12.107.12.038.134.014.12-.052.12-.094.146-.134.12-.174.094-.198.106-.255.107-.267.08-.318.08-.32.067-.347.053-.361.027-.374.026h-.372l-.361-.026-.373-.027-.319-.053-.333-.054-.295-.066-.252-.094-.24-.106-.2-.094-.148-.12-.12-.12-.079-.133-.014-.12.014-.133.079-.12.095-.12.16-.12.185-.107.24-.107.267-.106.293-.067M192.92 552.91h.015l4.652-1.147 80.373-19.653 28.626-7 17.974-4.4 30.293-7.413 11.453-2.8 3.802-.934 20.452-5 8.84-2.16 14.173-3.466M138.827 544.79l-.028-.013-.065-.094" style="fill:none;stroke:red;stroke-width:.999997;stroke-linecap:round;stroke-linejoin:round;stroke-miterlimit:4;stroke-dasharray:none;stroke-opacity:1;visibility:visible"/><path d="m145.987 542.67-.04-.107-.12-.2-.135-.2-.132-.146-.133-.147M146.2 543.243l-.067-.253-.092-.214-.04-.106M146.293 544.203l.013-.107v-.2l-.013-.213-.04-.227-.053-.213M146.253 544.403l.04-.133v-.054M145.387 544.537l.145.107.122.08.133.04h.12l.107-.04.08-.067.093-.093M145.346 541.817l-.067-.053-.12-.067-.133-.027h-.107l-.12.027-.08.053-.093.107M145.427 541.87l-.068-.053" style="fill:none;stroke:red;stroke-width:.666665;stroke-linecap:round;stroke-linejoin:round;stroke-miterlimit:4;stroke-dasharray:none;stroke-opacity:1;visibility:visible"/><path d="m146.186 544.563.053-.12.014-.04.014-.08" style="fill:none;stroke:red;stroke-width:.666665;stroke-linecap:round;stroke-linejoin:round;stroke-miterlimit:4;stroke-dasharray:none;stroke-opacity:1;visibility:visible"/><path d="m380.466 484.75.013-.173-.013-.2-.053-.174-.054-.146-.08-.12-.106-.107-.107-.067-3.572-1.546M379.466 491.003l.081-.04.092-.067.068-.08.066-.133.04-.12.026-.147M380.466 484.75l-.627 5.667" style="fill:none;stroke:red;stroke-width:.999997;stroke-linecap:round;stroke-linejoin:round;stroke-miterlimit:4;stroke-dasharray:none;stroke-opacity:1;visibility:visible"/><path d="m172.293 540.75 10.293-2.467M191.746 536.083l5.6-1.347 169.04-40.586 11.026-2.654.802-.2h.012l1.24-.293M158.76 533.883l7.319-1.733 15.8-3.76M191.04 526.217h.013l6.092-1.453M197.267 524.737h.013l169.147-40.187 2.08-.493 2.078-.507 5.695-1.346M425.786 510.856l-.013.04-.08.12M420.52 490.99l-20.96-8.88-21.973-9.307M480.947 203.083 427.84 499.416l-2.028 11.333M453.026 308.457 420.519 490.99M417.346 508.763l-.08.453M386.76 298.256l-9.175 174.546M378.08 299.897l-9.573 184.16M417.346 508.763l-6.853-2.96-.027-.013M396.04 499.55l-18.628-8.053M111.066 340.097l33.507 186.586M81.04 225.817l57.585 318.626" style="fill:none;stroke:red;stroke-width:1.99999;stroke-linecap:round;stroke-linejoin:round;stroke-miterlimit:4;stroke-dasharray:none;stroke-opacity:1;visibility:visible"/><path d="m171.773 253.283 19.28 272.933v.066l.173 2.454.079 1.133.401 5.707.039.506.921 13.014v.066l.187 2.6.08 1.147.067.987.346 4.84.04.52.56 8.013M170.013 364.377l11.88 164.093.187 2.467.08 1.106.413 5.734.04.506.573 8M184.707 567.31l.039.653M142.213 545.256l.599.32.588.293 23.026 11.96 1.667.854 16.613 8.626M144.573 526.683l14.188 7.2 3.492 1.773 1.52.774 2.387 1.213 5.44 2.76.693.347 10.893 5.533M184.893 568.43l-.067-.147-.053-.16-.027-.16M193.947 567.27v.173l-.013.08v.08l-.04.12-.014.054M185.094 568.83l-.121-.253-.054-.107-.025-.04" style="fill:none;stroke:red;stroke-width:1.99999;stroke-linecap:round;stroke-linejoin:round;stroke-miterlimit:4;stroke-dasharray:none;stroke-opacity:1;visibility:visible"/><path d="m193.72 568.19-.013.013-.068.174-.107.2-.119.173-.146.16-.174.173-.174.174-.199.146-.213.147-.267.16-.293.133-.334.147-.333.12-.267.08-.28.08-.293.04-.307.053-.306.04-.334.04-.373.014h-.36l-.347-.014-.32-.04-.346-.053-.32-.053-.307-.08-.308-.094-.292-.12-.28-.133-.268-.16-.199-.133-.213-.16-.173-.187-.147-.187-.147-.213M193.72 568.19l.16-.413" style="fill:none;stroke:red;stroke-width:1.99999;stroke-linecap:round;stroke-linejoin:round;stroke-miterlimit:4;stroke-dasharray:none;stroke-opacity:1;visibility:visible"/><path d="m413.573 498.937.013-.173-.013-.2-.053-.174-.054-.146-.08-.147-.106-.093-.12-.067-3.68-1.573M412.533 505.297l.121-.053.092-.094.082-.133.053-.147.039-.16M413.573 498.937l-.093.773-.56 5" style="fill:none;stroke:red;stroke-width:.999997;stroke-linecap:round;stroke-linejoin:round;stroke-miterlimit:4;stroke-dasharray:none;stroke-opacity:1;visibility:visible"/><path d="M193.374 559.256h.013l4.292-1.053 168.588-41.52 33.08-8.147 11.146-2.733.787-.2 1.252-.307M192.667 549.097l4.865-1.187 168.788-41.12 29.72-7.24.8-.186h.013l2.573-.627 9.826-2.4M417.267 509.403l-.015-.08.015-.107M417.374 509.856l-.107-.453M425.493 511.323l-.12.16-.133.133-.134.12-.173.107-.173.08-.175.093-.227.067-.226.067-.239.04-.267.026-.253.04h-.28l-.281.014-.292-.014-.294-.013-.254-.027-.252-.026-.28-.04-.267-.054-.255-.026-.292-.08-.293-.08-.293-.067-.28-.093-.282-.094-.252-.106-.266-.107-.215-.12-.252-.133-.213-.147-.214-.147-.186-.173-.16-.173-.135-.2-.092-.147-.067-.173v-.027l-.053-.147M138.707 544.657l-.04-.093-.013-.014-.028-.106M138.96 545.056l-.227-.373-.025-.027M143.4 545.883l-.253.027-.32.053-.307.04-.307.013-.32.027h-.293l-.293-.027-.267-.013-.279-.013-.281-.054-.28-.066-.253-.094-.24-.106-.214-.094-.186-.146-.12-.12-.12-.12v-.014l-.107-.12" style="fill:none;stroke:red;stroke-width:1.99999;stroke-linecap:round;stroke-linejoin:round;stroke-miterlimit:4;stroke-dasharray:none;stroke-opacity:1;visibility:visible"/><path d="m144.227 543.19.093.307.12.293.134.293.16.294.16.24.173.24.187.213.173.16.187.133M144.146 541.457l-.052.187-.015.226-.025.24.025.254.028.266.054.267.066.293M144.267 541.043l.067-.173.066-.16.107-.12.12-.08.119-.067M146.733 545.723l-.133.04h-.16l-.147-.013-.16-.08-.16-.08M144.146 541.457l.121-.413M145.613 545.363l.36.227M144.746 540.443l.387-.147.586-.226h.014M146.733 545.723l.12-.053.853-.307M176.868 556.088l-.124-.041-.177-.055h-.176l-.178.028-.15.068-.138.137-.109.136-.095.178M176.936 556.116l-.055-.028M177.77 561.918l.177.083.191.04.177-.014.179-.054.136-.096.055-.054.068-.082.137-.178.013-.054.068-.164.054-.219.054-.287.015-.3-.015-.328-.04-.354-.054-.342-.082-.354-.109-.383-.123-.341-.164-.355-.15-.341-.178-.315-.205-.3-.19-.273-.206-.232-.219-.204-.204-.164-.218-.138M177.142 558.75l-.041-.11-.123-.203-.137-.206-.136-.149-.138-.15M177.36 559.338l-.068-.259-.096-.218-.04-.11M177.456 560.32l.013-.11v-.203l-.013-.219-.041-.232-.055-.219M177.414 560.525l.041-.136v-.055M176.527 560.662l.15.11.122.082.137.04h.123l.11-.04.08-.07.097-.094M176.486 557.877l-.068-.055-.124-.068-.135-.026h-.109l-.124.026-.081.055-.096.11M176.568 557.931l-.068-.055" style="fill:none;stroke:red;stroke-width:.666665;stroke-linecap:round;stroke-linejoin:round;stroke-miterlimit:4;stroke-dasharray:none;stroke-opacity:1;visibility:visible"/><path d="m177.346 560.69.055-.123.013-.041.015-.081M175.339 559.283l.096.313.123.302.137.3.164.3.164.246.177.246.191.218.177.164.191.136M175.258 557.508l-.055.192-.014.23-.027.247.027.259.028.273.054.274.068.3M175.38 557.085l.068-.177.07-.164.109-.123.121-.083.123-.068M177.906 561.877l-.137.041h-.164l-.15-.013-.164-.083-.164-.081M175.258 557.508l.123-.423M176.76 561.508l.368.232M175.871 556.47l.396-.15.601-.233h.014M177.906 561.877l.123-.055.873-.313" style="fill:none;stroke:red;stroke-width:.666665;stroke-linecap:round;stroke-linejoin:round;stroke-miterlimit:4;stroke-dasharray:none;stroke-opacity:1;visibility:visible"/><path d="m135.142 344.552 15.241-8.726M162.047 340.492l5.65-7.898M167.696 332.594l9.557-1.779M107.2 318.512l-7.292 2.747" style="fill:none;stroke:red;stroke-width:.999997;stroke-linecap:round;stroke-linejoin:round;stroke-miterlimit:4;stroke-dasharray:none;stroke-opacity:1;visibility:visible"/><path d="m135.142 344.552 9.746-10.938M177.029 327.653l-9.557 1.78M167.472 329.433l9.557-1.78M167.696 332.594l-5.649 7.898M177.72 337.537l-9.522 1.798M168.198 339.335l9.522-1.798M381.001 284.038l-2.42 6.272M416.027 283.416l-6.686 10.61M382.072 285.024l9.003 2.971" style="fill:none;stroke:red;stroke-width:1.99999;stroke-linecap:round;stroke-linejoin:round;stroke-miterlimit:4;stroke-dasharray:none;stroke-opacity:1;visibility:visible"/><path d="m133.293 338.954 2.902 5.253" style="fill:none;stroke:red;stroke-width:.666665;stroke-linecap:round;stroke-linejoin:round;stroke-miterlimit:4;stroke-dasharray:none;stroke-opacity:1;visibility:visible"/><path d="m376.28 482.204-11.654 2.906M182.145 532.043l-17.625.6M172.293 540.75l-7.773-8.107M182.586 538.283l-18.813-1.853M191.306 529.87l-9.161 2.173M197.145 524.764l-5.839 5.106M377.56 472.817l-6.974 10.76M144.573 526.683l-7.026 2.96" style="fill:none;stroke:red;stroke-width:.999997;stroke-linecap:round;stroke-linejoin:round;stroke-miterlimit:4;stroke-dasharray:none;stroke-opacity:1;visibility:visible"/><path d="m183.786 553.297-.173-1.027" style="fill:none;stroke:red;stroke-width:1.99999;stroke-linecap:round;stroke-linejoin:round;stroke-miterlimit:4;stroke-dasharray:none;stroke-opacity:1;visibility:visible"/><path d="m409.252 496.337-11.732 2.986M182.586 538.283l13.226 10.187M192.667 549.097l3.145-.627M176.882 556.087l16.038-3.177" style="fill:none;stroke:red;stroke-width:.999997;stroke-linecap:round;stroke-linejoin:round;stroke-miterlimit:4;stroke-dasharray:none;stroke-opacity:1;visibility:visible"/><path d="m164.52 532.643 7.773 8.107M191.746 536.083l-9.16 2.2M182.586 538.283l9.16-2.2M146.733 545.723l12.027-11.84M191.306 529.87l-9.426-1.48M378.581 290.31l8.179 7.946M378.581 290.31l-.501 9.587M371.08 473.79l-2.573 10.267M417.374 508.776l-6.908-2.986M409.48 496.364l-13.44 3.186M176.882 556.087l16.492 3.169M195.812 548.47l-3.145.627M138.88 528.977l4.52 16.906" style="fill:none;stroke:red;stroke-width:1.99999;stroke-linecap:round;stroke-linejoin:round;stroke-miterlimit:4;stroke-dasharray:none;stroke-opacity:1;visibility:visible"/><path d="m144.746 540.443 2.96 4.92M175.871 556.47l3.031 5.039" style="fill:none;stroke:red;stroke-width:.666665;stroke-linecap:round;stroke-linejoin:round;stroke-miterlimit:4;stroke-dasharray:none;stroke-opacity:1;visibility:visible"/><path d="m126.64 631.75 52.587-13.707M204.866 611.35l77.348-20.147M307.094 584.723l72.746-18.973M403.987 559.47l41.027-10.707M114.64 624.883l52.373-13.533M192.586 604.776l5.707-1.48 71.374-18.427M294.466 578.47l72.533-18.733h.027M391.094 553.537l7.919-2.04 30.946-8M141.186 640.07l52.813-13.92M219.746 619.35l77.653-20.467M322.346 592.297h.028l73.012-19.267M419.6 566.657h.013l41.147-10.853M128.987 633.097l52.627-13.747M207.267 612.657l77.4-20.2M309.547 585.95h.013l72.787-19.027h.026M406.507 560.616l38.987-10.16M98.213 615.483l52.133-13.267M175.786 595.737l22.333-5.68 54.4-13.853M277.2 569.923h.015l72.226-18.413h.025M373.44 545.416l25.667-6.547 15.106-3.84M86.693 608.897l53.867-13.6M163.987 589.416l2.865-.72 31.135-7.853 44.506-11.24h.014M265.08 563.91l74.16-18.707M361.026 539.71l5.135-1.293 33.025-8.347 2.493-.627M112.32 623.55l52.333-13.493M190.2 603.496l8.081-2.08 68.972-17.773M292.026 577.256l72.493-18.68M388.6 552.39l10.425-2.693 30.468-7.84M100.506 616.803l52.16-13.307M178.12 596.99l20.027-5.107 56.76-14.48M279.613 571.11l72.266-18.453h.027M375.893 546.537l23.2-5.907 15.573-3.973M143.586 641.443l52.855-13.96M222.2 620.67l77.706-20.533M324.88 593.537l73.053-19.293M422.173 567.83l39.053-10.32M167.453 598.776l.093-.04.067-.053.027-.027-.014-.053-.053-.04-.08-.027-.12-.04h-.267l-.12.04-.08.013-.08.054-.026.053.013.027.053.053.094.04.12.013.12.027.133-.027.12-.013M198.56 615.603l.107-.027.066-.04.014-.053-.014-.053-.053-.054-.08-.026-.133-.014h-.254l-.12.014-.106.026-.067.054-.013.053.013.053.053.04.08.027.12.04h.267l.12-.04M205.693 627.136l-.12.053-.107.08-.066.12-.026.16-.028.147.028.173M141.88 592.336l63.812 34.8M205.693 627.136l18.961-5.027M224.654 622.11l.08-.027.107.027.106.04M206.613 632.803l.013.067.04.053M205.374 627.87l1.24 4.933M401.24 527.283l75.626 33.667M300.893 588.51l-.093.013-.067.054-.013.053.013.04.067.053.093.027.12.027h.253l.107-.027.105-.027.054-.053.014-.04-.014-.053-.066-.054-.093-.013-.107-.027h-.253l-.12.027M268.947 572.563l-.107.013-.053.054-.013.04.013.053.053.027.079.04.121.013.12.013.12-.013.134-.013.08-.04.066-.027.026-.053-.026-.04-.053-.027-.093-.04-.107-.04h-.267l-.093.04M327.4 594.91l.08-.027.107.027.093.013M309.466 599.657l-65.613-32.973M327.4 594.91l-17.933 4.747M309.466 599.657l-.107.053-.106.08-.067.12-.04.147-.013.16.04.147M309.173 600.363l1.2 4.787M310.427 605.297v-.013l-.015-.067-.038-.067M483.76 582.07l.052-.013M152.32 650.403l.36 21.653M152.32 650.403l332.132-88.706M151.506 650.363l.107.04.12.027.146.013.147.013.147-.013.146-.04M151.506 650.363l-2.547-1.453M483.213 605.47l.013-.013.026-.014M152.746 675.83l.361 21.507M152.746 675.83l331.146-90.613M480.707 583.27l-.053.027M151.933 675.776l.107.053.12.027.16.027h.133l.16-.027.132-.027M151.933 675.776l-2.521-1.493M149.92 696.097l-.027-.013-.012-.014M149.973 696.136l-.027-.013M149.306 674.163l.028.053.025.04.054.027M480.96 583.297l.028.013M149.387 670.763l-.028-.013-.079-.014-.053-.026M78.586 608.47l70.068 40.24" style="fill:none;stroke:#00ff4a;stroke-width:.999997;stroke-linecap:round;stroke-linejoin:round;stroke-miterlimit:4;stroke-dasharray:none;stroke-opacity:1;visibility:visible" visibility="hidden"/><path d="m82.56 631.603 18.053 10.6 2.094 1.227.4.24M133 661.19l.36.213 15.813 9.267.054.04" style="fill:none;stroke:#00ff4a;stroke-width:1.99999;stroke-linecap:round;stroke-linejoin:round;stroke-miterlimit:4;stroke-dasharray:none;stroke-opacity:1;visibility:visible" visibility="hidden"/><path d="m129.973 662.856 19.135 11.24M98.893 648.51l-.44-2.667M98.453 645.843l-.053-.293-.067-.28-.08-.267-.12-.28-.12-.24-.133-.24-.147-.2-.147-.187-.146-.133-.16-.107M79.227 632.99l18.053 10.627M124.427 669.03l-21.361-12.68M103.066 656.35l-.305-.187-.295-.24-.307-.28-.293-.306-.293-.347-.307-.36-.267-.413-.266-.44-.254-.454-.24-.48-.226-.493-.214-.52-.2-.533-.172-.547-.161-.547-.16-.56-.12-.56-.093-.573M149.573 673.43l3.92-1.053" style="fill:none;stroke:#00ff4a;stroke-width:.999997;stroke-linecap:round;stroke-linejoin:round;stroke-miterlimit:4;stroke-dasharray:none;stroke-opacity:1;visibility:visible" visibility="hidden"/><path d="m126.654 668.71.173-.053.16-.08.159-.107.147-.12.161-.16.132-.187.148-.213.107-.2.012-.027.12-.24.106-.253.042-.12.04-.147" style="fill:none;stroke:#00ff4a;stroke-width:1.99999;stroke-linecap:round;stroke-linejoin:round;stroke-miterlimit:4;stroke-dasharray:none;stroke-opacity:1;visibility:visible" visibility="hidden"/><path d="m83.693 607.177 57.707-14.52M160.906 587.75l5.907-1.48 31.146-7.827 45.427-11.426M261.933 562.35l78.252-19.693M357.812 538.23l8.361-2.107 33.026-8.32 2.04-.52M78.293 608.297l-2.333-1.347M76.613 628.123l-.013-.027M76.707 628.163l-.028-.013M424.773 569.123l.08-.013h.08l.08.026M407.773 573.616l-67.135-31.28M424.773 569.123l-17 4.493M407.773 573.616l-.107.053-.093.08-.067.12-.028.147-.025.147.04.16M407.493 574.323l1.187 4.653M408.733 579.11v-.013l-.027-.054-.026-.066M78.933 632.817l-2.333-1.36M77.346 652.537l-.027-.013-.026-.014M445.493 549.737v-.173l-.04-.174-.053-.16-.08-.146-.094-.147-.094-.093-.119-.08-12.893-5.734M432.12 543.03l-.107-.04h-.106M445.493 550.457v-.72M429.96 543.496l1.947-.507M461.253 556.763v-.173l-.039-.174-.053-.16-.081-.16-.092-.12-.122-.106-.105-.067-13.081-5.84M447.68 549.963l-.12-.04-.093.013M461.227 557.51l.027-.747M445.493 550.457l1.972-.52M414.68 535.976l-.013-.173-.04-.147-.054-.173-.066-.16-.079-.12-.108-.107-.107-.067-12.533-5.586M414.667 536.657l.013-.68M429.973 542.803v-.173l-.039-.174-.068-.146-.066-.16-.079-.12-.108-.107-.119-.067-12.708-5.666M416.786 536.19l-.107-.04-.093.027M429.96 543.496l.013-.693M414.667 536.657l1.919-.48M474.026 561.71l-10.56-4.72M463.466 556.99l-.107-.013h-.106M461.227 557.51l2.027-.533M141.88 592.336l18.613-4.693M141.88 592.336l-.12.027-.133.093-.108.08-.107.12-.079.107-.053.12" style="fill:none;stroke:#00ff4a;stroke-width:.999997;stroke-linecap:round;stroke-linejoin:round;stroke-miterlimit:4;stroke-dasharray:none;stroke-opacity:1;visibility:visible" visibility="hidden"/><path d="m224.947 622.15.107.08.092.093.081.12.053.147M225.28 622.59l1.24 4.907M226.533 627.63l-.013-.067v-.066" style="fill:none;stroke:#00ff4a;stroke-width:1.99999;stroke-linecap:round;stroke-linejoin:round;stroke-miterlimit:4;stroke-dasharray:none;stroke-opacity:1;visibility:visible" visibility="hidden"/><path d="m140.24 596.403-.013.107.013.093.04.067.041.053M141.28 592.883l-.695 2.333-.012.08h-.013l-.32 1.107" style="fill:none;stroke:#00ff4a;stroke-width:.999997;stroke-linecap:round;stroke-linejoin:round;stroke-miterlimit:4;stroke-dasharray:none;stroke-opacity:1;visibility:visible" visibility="hidden"/><path d="m160.733 587.67.173.093 2.974 1.6.106.054 2.894 1.56 8.893 4.773 1.44.76.907.493 12.08 6.494 1.453.773.933.507.094.053h.013l5.667 3.04 6.493 3.493 1.467.787.946.507.107.053 12.373 6.64 1.467.8.987.52.106.067 2.64 1.413" style="fill:none;stroke:#00ff4a;stroke-width:1.99999;stroke-linecap:round;stroke-linejoin:round;stroke-miterlimit:4;stroke-dasharray:none;stroke-opacity:1;visibility:visible" visibility="hidden"/><path d="m140.32 596.723 10.027 5.493 1.413.774.907.506.106.054 11.88 6.506h.014l1.44.8.906.494h.012l.095.053 12.107 6.64 1.44.787.946.52.094.053L194 626.136l1.465.8.975.547 10.038 5.493M401.2 529.496l.04-2.213M401.24 527.283l.013-.12.04-.12.067-.12.08-.107.107-.066.108-.054 3.106-.773.132-.04" style="fill:none;stroke:#00ff4a;stroke-width:.999997;stroke-linecap:round;stroke-linejoin:round;stroke-miterlimit:4;stroke-dasharray:none;stroke-opacity:1;visibility:visible" visibility="hidden"/><path d="m481.24 559.67.067.053.04.054M404.947 525.883H405l.094.027 76.146 33.76M404.893 525.883h.04M261.506 562.243l.067-.013h.093l.053.013M327.68 594.923l.093.08.107.107.067.12.053.146" style="fill:none;stroke:#00ff4a;stroke-width:1.99999;stroke-linecap:round;stroke-linejoin:round;stroke-miterlimit:4;stroke-dasharray:none;stroke-opacity:1;visibility:visible" visibility="hidden"/><path d="m261.506 562.243-17.653 4.44M243.853 566.683l-.12.04-.12.067-.107.093-.106.12-.014.013-.065.08-.053.12-.748 2.307-.027.08-.36 1.093M242.227 571.003l-.067-.053-.04-.067v-.08l.014-.107" style="fill:none;stroke:#00ff4a;stroke-width:.999997;stroke-linecap:round;stroke-linejoin:round;stroke-miterlimit:4;stroke-dasharray:none;stroke-opacity:1;visibility:visible" visibility="hidden"/><path d="m329.213 600.136.013.08.026.053v.014M328 595.377l1.213 4.76M327.68 594.923l-2.693-1.333h-.014l-.093-.054-1-.493-1.505-.747-12.708-6.293-.107-.053-.973-.494-1.492-.733h-.015l-12.507-6.2-.106-.053-.947-.467-1.493-.747-12.307-6.093h-.012l-.095-.053h-.013l-.933-.467-1.454-.72-12.133-6.013h-.013l-.094-.054h-.013l-3.026-1.506h-.014l-.2-.107" style="fill:none;stroke:#00ff4a;stroke-width:1.99999;stroke-linecap:round;stroke-linejoin:round;stroke-miterlimit:4;stroke-dasharray:none;stroke-opacity:1;visibility:visible" visibility="hidden"/><path d="m310.2 605.336-10.187-5.147-.106-.053-1-.507-1.507-.76-12.613-6.36-1.094-.56-1.478-.746-12.428-6.28-.119-.054-.935-.48-1.48-.746-12.24-6.187h-.012l-.094-.053-.906-.454-1.48-.746-10.293-5.2" style="fill:none;stroke:#00ff4a;stroke-width:.999997;stroke-linecap:round;stroke-linejoin:round;stroke-miterlimit:4;stroke-dasharray:none;stroke-opacity:1;visibility:visible" visibility="hidden"/><path d="m164.707 669.11 283.52-77.346.373-.107h.013l19.093-5.2 9.24-2.52 3.28-.907.12-.026 3.414-.934M152.52 672.443l.028-.013.732-.187.173-.053.52-.147 10.735-2.92M153.43 647.099l52.927-14.09.186-.053 19.824-5.282 83.487-22.232.226-.067 18.787-5.003 79.057-21.06.253-.067 17.802-4.736 50.186-13.372" style="fill:none;stroke:#00ff4a;stroke-width:1.99999;stroke-linecap:round;stroke-linejoin:round;stroke-miterlimit:4;stroke-dasharray:none;stroke-opacity:1;visibility:visible" visibility="hidden"/><path d="m149.306 648.203 4.125-1.105M476.866 560.95l.561-.147 3.8-1.013" style="fill:none;stroke:#00ff4a;stroke-width:.999997;stroke-linecap:round;stroke-linejoin:round;stroke-miterlimit:4;stroke-dasharray:none;stroke-opacity:1;visibility:visible" visibility="hidden"/><path d="M484.16 581.563v.053l-.015.014v.08h-.013v.04h-.025v.04l-.014.013v.027h-.014v.026h-.026v.014h-.013v.026h-.015v.014l-.012.013-.026.027-.015.013-.012.013h-.027v.027h-.014l-.012.013h-.014v.014h-.04v.013h-.041v.013l-.013.014h-.039M484.654 561.55l-.493 20.013M484.333 561.03v.027h.04v.013h.013l.014.013h.026v.027h.014l.013.013.025.014h.015v.026h.013v.014h.014v.026h.026v.027h.014v.013l.013.014v.026h.027v.027h.013v.053h.013v.054h.027v.133" style="fill:none;stroke:#00ff4a;stroke-width:1.99999;stroke-linecap:round;stroke-linejoin:round;stroke-miterlimit:4;stroke-dasharray:none;stroke-opacity:1;visibility:visible" visibility="hidden"/><path d="m481.586 559.83 2.735 1.2h.013M152.52 672.443h-.04v.013h-.212v-.013h-.068v-.013h-.053v-.027h-.04v-.013h-.027v-.014M149.533 670.883h-.013l-.014-.013h-.026v-.014h-.014v-.026h-.013v-.014h-.025v-.013h-.015v-.027h-.013v-.013h-.012v-.013h-.028v-.04h-.014v-.014h-.012v-.04h-.028v-.026h-.013v-.04l-.012-.014v-.053h-.028v-.12M149.533 670.883l2.455 1.44.092.053" style="fill:none;stroke:#00ff4a;stroke-width:1.99999;stroke-linecap:round;stroke-linejoin:round;stroke-miterlimit:4;stroke-dasharray:none;stroke-opacity:1;visibility:visible" visibility="hidden"/><path d="M148.88 648.79v-.12l.013-.027v-.053l.026-.013v-.04h.014v-.027h.014v-.04h.013v-.013l.027-.014v-.026H149v-.014h.013v-.013l.027-.027.013-.013.014-.013h.026v-.014h.014v-.026h.013l.012-.014h.028v-.013h.013l.012-.027h.028l.014-.013h.025v-.013h.053v-.014M148.88 648.79v.027l.372 21.586" style="fill:none;stroke:#00ff4a;stroke-width:.999997;stroke-linecap:round;stroke-linejoin:round;stroke-miterlimit:4;stroke-dasharray:none;stroke-opacity:1;visibility:visible" visibility="hidden"/><path d="M152.96 697.723h-.053l-.014.013h-.2v-.013h-.066v-.013h-.054v-.027h-.026v-.013h-.04v-.014M152.96 697.723 483.2 605.47M149.973 696.136h-.027v-.027h-.012l-.014-.013h-.027v-.013h-.012v-.027h-.015v-.013h-.013v-.014h-.025v-.013h-.015v-.027l-.013-.013v-.013h-.026v-.04h-.013v-.014l-.015-.026v-.027h-.025v-.053h-.013v-.067h-.015v-.093M149.973 696.136l2.455 1.467.078.053" style="fill:none;stroke:#00ff4a;stroke-width:1.99999;stroke-linecap:round;stroke-linejoin:round;stroke-miterlimit:4;stroke-dasharray:none;stroke-opacity:1;visibility:visible" visibility="hidden"/><path d="m149.306 674.163.387 21.48" style="fill:none;stroke:#00ff4a;stroke-width:.999997;stroke-linecap:round;stroke-linejoin:round;stroke-miterlimit:4;stroke-dasharray:none;stroke-opacity:1;visibility:visible" visibility="hidden"/><path d="M483.573 604.963v.12h-.013v.053l-.014.014v.013l-.026.027v.026h-.014v.027l-.013.013-.027.014v.026h-.013v.014h-.013v.013h-.012v.013h-.028v.027h-.014v.013h-.012v.014h-.041v.026h-.012l-.028.014h-.013l-.012.013h-.042v.027h-.026M484.08 585.056l-.507 19.907M483.76 584.55v.027h.027l.012.013h.013l.028.013h.012v.027h.013v.013h.028v.014h.012v.013h.014v.027h.014v.013h.026v.013h.013v.027l.015.013v.014h.025v.04h.013v.026h.015v.054h.013v.066l.026.027v.067M481.013 583.31l2.733 1.24h.015" style="fill:none;stroke:#00ff4a;stroke-width:1.99999;stroke-linecap:round;stroke-linejoin:round;stroke-miterlimit:4;stroke-dasharray:none;stroke-opacity:1;visibility:visible" visibility="hidden"/><path d="m79.333 629.71-.093-.053-.042-.054-.012-.04-.026-.093-.027-.12v-.093l-.548-20.787M78.586 608.47l.015-.133.038-.147.082-.133.092-.107.121-.08h.013l.107-.04 3.852-.973" style="fill:none;stroke:#00ff4a;stroke-width:.999997;stroke-linecap:round;stroke-linejoin:round;stroke-miterlimit:4;stroke-dasharray:none;stroke-opacity:1;visibility:visible" visibility="hidden"/><path d="m79.333 629.71.532.32.068.04 2.333 1.36.294.173M103.107 643.67l4.627 2.707.386.226L133 661.19M83.2 606.897l.493.28 3 1.72 11.522 6.587 1.412.813.88.507.094.053 11.72 6.693 1.412.814.894.52h.013l.093.053 11.907 6.813 1.44.814.908.533.107.053 12.092 6.92 1.44.827.96.547.106.066 9.575 5.48.106.054" style="fill:none;stroke:#00ff4a;stroke-width:1.99999;stroke-linecap:round;stroke-linejoin:round;stroke-miterlimit:4;stroke-dasharray:none;stroke-opacity:1;visibility:visible" visibility="hidden"/><path d="m79.693 632.35 2.867-.747" style="fill:none;stroke:#00ff4a;stroke-width:.999997;stroke-linecap:round;stroke-linejoin:round;stroke-miterlimit:4;stroke-dasharray:none;stroke-opacity:1;visibility:visible" visibility="hidden"/><path d="m149.812 695.99-.092-.013-.067-.04" style="fill:none;stroke:#00ff4a;stroke-width:1.99999;stroke-linecap:round;stroke-linejoin:round;stroke-miterlimit:4;stroke-dasharray:none;stroke-opacity:1;visibility:visible" visibility="hidden"/><path d="m79.973 654.11-.092-.067-.053-.08-.028-.093-.026-.107v-.106l-.548-20.667M79.227 632.99l.013-.08v-.053l.054-.147.066-.12.094-.107.12-.08h.013l.107-.053" style="fill:none;stroke:#00ff4a;stroke-width:.999997;stroke-linecap:round;stroke-linejoin:round;stroke-miterlimit:4;stroke-dasharray:none;stroke-opacity:1;visibility:visible" visibility="hidden"/><path d="m79.973 654.11 69.681 41.827M129.773 662.056l3.227-.867M128.733 663.523l.028-.2.052-.213.067-.187.093-.173.08-.16.133-.16.12-.12.147-.094.16-.093.16-.067M128.387 665.776l.347-2.253M128.16 666.803l.013-.027.094-.32.066-.32.054-.36M103.107 643.67l.053.12.067.227.053.2.054.2.025.2M103.8 647.283l.028.133.039.267.014.053.054.334.092.386.093.4.12.4.12.374.135.36.132.373.134.36.159.36.16.333.147.32.173.334.173.306.188.294.174.28.198.253.188.267.186.226.186.2.214.187.188.2.185.147.2.146.107.067.121.067M103.8 647.283l-.44-2.667M128.16 666.803l-20.453-12.093M76.306 606.297l90.48-22.693 31.133-7.814 168.266-42.213 33.028-8.293 2.679-.667M402.227 524.63l2.507 1.12.04.013M401.893 524.616h.013v-.027h.214v.027h.066v.013h.04M79.2 629.603h-.039v-.013h-.053v-.027h-.041v-.013h-.026v-.014M76.707 628.163h-.028v-.013h-.025v-.014h-.028v-.013h-.012v-.027H76.6v-.013h-.028v-.013h-.012v-.027h-.013v-.013h-.015v-.014l-.025-.026v-.014h-.013v-.026h-.015v-.04h-.025v-.054h-.014v-.066l-.013-.014v-.08M76.707 628.163l2.24 1.32.093.053M75.866 606.843v-.08h.028v-.093h.012v-.054h.013v-.026h.028v-.027l.012-.013v-.014h.014v-.013l.014-.027v-.013h.026v-.013h.013v-.027l.015-.013h.025v-.014h.013v-.026h.015v-.014h.013l.026-.013h.013v-.013h.04v-.027h.028v-.013h.039l.014-.014h.039M75.866 606.843l.561 20.853M357.4 538.123l.067-.013h.066l.054.013M425.013 569.136l.107.08.106.093.067.12.053.16" style="fill:none;stroke:#00ff4a;stroke-width:1.99999;stroke-linecap:round;stroke-linejoin:round;stroke-miterlimit:4;stroke-dasharray:none;stroke-opacity:1;visibility:visible" visibility="hidden"/><path d="m357.4 538.123-16.76 4.213M340.64 542.336l-.12.04-.12.067-.107.08-.106.133-.067.093-.053.12-.799 2.254-.028.08-.387 1.08M338.92 546.59l-.053-.053-.027-.067v-.093l.013-.094" style="fill:none;stroke:#00ff4a;stroke-width:.999997;stroke-linecap:round;stroke-linejoin:round;stroke-miterlimit:4;stroke-dasharray:none;stroke-opacity:1;visibility:visible" visibility="hidden"/><path d="m426.533 574.217.015.08.025.053v.014M425.346 569.59l1.187 4.627M425.013 569.136l-2.733-1.253-.107-.054h-.013l-1-.466h-.014l-1.533-.707-12.987-5.987-.12-.053-.986-.44-1.534-.707-5.013-2.306-7.76-3.574h-.013l-.106-.053-.988-.453-1.506-.694h-.014l-12.6-5.8-.093-.053-.933-.427-1.52-.693h-.012l-7.282-3.36-5.12-2.347-.106-.053-3.107-1.427h-.013l-.214-.106" style="fill:none;stroke:#00ff4a;stroke-width:1.99999;stroke-linecap:round;stroke-linejoin:round;stroke-miterlimit:4;stroke-dasharray:none;stroke-opacity:1;visibility:visible" visibility="hidden"/><path d="m408.48 579.163-10.425-4.88-1.135-.533-1.52-.72h-.012l-12.921-6.054h-.014l-.106-.053-.987-.467h-.013l-1.506-.706-12.72-5.96h-.013l-.107-.054-.946-.44-1.522-.72h-.013l-12.519-5.866h-.013l-.107-.054-.908-.426-1.532-.72-10.52-4.92M103.866 647.737h.015l4.238-1.133h.014" style="fill:none;stroke:#00ff4a;stroke-width:.999997;stroke-linecap:round;stroke-linejoin:round;stroke-miterlimit:4;stroke-dasharray:none;stroke-opacity:1;visibility:visible" visibility="hidden"/><path d="m76.947 630.776 2.919-.747M79.84 654.003h-.028v-.013h-.052v-.027h-.04v-.013h-.027v-.014h-.026M77.346 652.537h-.027v-.013h-.013l-.013-.014v-.013h-.027v-.013h-.013v-.014h-.014v-.026h-.026v-.014h-.014v-.013h-.013v-.04h-.013v-.013h-.027v-.014l-.013-.026v-.014l-.014-.013v-.04h-.025v-.053l-.015-.014v-.093l-.013-.013v-.014M77.346 652.537l2.32 1.4M76.533 631.35v-.133h.015v-.054l.013-.026v-.027l.012-.027v-.013l.028-.013v-.014h.013v-.026l.012-.014v-.013h.028v-.027h.014v-.013h.012v-.013l.028-.014h.013v-.026h.012v-.014h.013l.028-.013h.012v-.027h.014l.028-.013h.012v-.013h.041l.013-.027h.054v-.013M76.533 631.35l.533 20.72" style="fill:none;stroke:#00ff4a;stroke-width:1.99999;stroke-linecap:round;stroke-linejoin:round;stroke-miterlimit:4;stroke-dasharray:none;stroke-opacity:1;visibility:visible" visibility="hidden"/><path d="m190.2 603.496-10.973 14.547M198.56 615.603l6.306-4.253M292.026 577.256l-9.812 13.947M299.906 600.137l7.188-15.414M388.6 552.39l-8.76 13.36M397.933 574.244l6.054-14.774M445.493 550.457l-.48-1.694M175.786 595.737l-8.773 15.613M198.56 615.603l-5.974-10.827M279.613 571.11l-9.946 13.76M284.667 592.457l9.799-13.987M379.84 565.75l11.254-12.213M153.431 647.098l-12.245-7.028M198.56 615.603 194 626.15M224.654 622.11l-4.908-2.76M300.893 588.51l-3.494 10.373M407.773 573.616l-12.387-.586M461.227 557.51l-.467-1.706M198.56 615.603l-16.946 3.747M198.56 615.603l8.707-2.946M300.893 588.51l-16.226 3.947M397.933 574.244l8.574-13.628M82.906 606.857l15.307 8.626M141.88 592.336l8.466 9.88M160.493 587.643l15.293 8.094M243.853 566.683l8.666 9.52M364.52 558.576l8.92-13.16M414.667 536.657l-.454-1.628M82.906 606.857l3.787 2.04M141.88 592.336l-1.32 2.961M160.493 587.643l3.494 1.773M261.506 562.243l3.574 1.667M340.64 542.336l-1.4 2.867M357.4 538.123l3.626 1.587M175.786 595.737l-11.133 14.32M198.56 615.603l-8.36-12.107M279.613 571.11l-12.36 12.533M284.667 592.457l7.359-15.201M373.44 545.416l-8.92 13.16M379.84 565.75l8.76-13.36M429.96 543.496l-.467-1.64M141.88 592.336l10.786 11.16M167.013 611.35l11.107-14.36M243.853 566.683l11.053 10.72M269.667 584.87l9.946-13.76M364.52 558.576l11.373-12.039M153.431 647.098l-9.845-5.655M205.693 627.136l-9.252.347M224.654 622.11l-2.454-1.44M309.467 599.657l-9.56.48M327.4 594.91l-2.52-1.373M407.773 573.616l-9.84.628M424.773 569.123l-2.6-1.293M194 626.15l4.56-10.547M204.866 611.35l-6.306 4.253M297.4 598.883l3.493-10.373M261.506 562.243l7.441 10.32M129.973 662.856l-5.546 6.174" style="fill:none;stroke:#00ff4a;stroke-width:.999997;stroke-linecap:round;stroke-linejoin:round;stroke-miterlimit:4;stroke-dasharray:none;stroke-opacity:1;visibility:visible" visibility="hidden"/><path d="m133 661.19-6.346 7.52" style="fill:none;stroke:#00ff4a;stroke-width:1.99999;stroke-linecap:round;stroke-linejoin:round;stroke-miterlimit:4;stroke-dasharray:none;stroke-opacity:1;visibility:visible" visibility="hidden"/><path d="m481.586 559.83-7.56 1.88" style="fill:none;stroke:#00ff4a;stroke-width:.999997;stroke-linecap:round;stroke-linejoin:round;stroke-miterlimit:4;stroke-dasharray:none;stroke-opacity:1;visibility:visible" visibility="hidden"/><path d="m182.145 532.043 8.895-5.826" style="fill:none;stroke:red;stroke-width:1.99999;stroke-linecap:round;stroke-linejoin:round;stroke-miterlimit:4;stroke-dasharray:none;stroke-opacity:1;visibility:visible"/><path d="m309.467 599.657 12.879-7.36M407.773 573.616l11.827-6.959M309.467 599.657l.08-13.707M395.386 573.03l-13.013-6.107" style="fill:none;stroke:#00ff4a;stroke-width:.999997;stroke-linecap:round;stroke-linejoin:round;stroke-miterlimit:4;stroke-dasharray:none;stroke-opacity:1;visibility:visible" visibility="hidden"/></svg>