<svg xmlns="http://www.w3.org/2000/svg" baseProfile="full" height="793.701" preserveAspectRatio="xMinYMin meet" style="width:738px;height:965px" width="559.371" xml:space="preserve"><path d="m183.824 182.507.327.115.365.114.384.116.403.096.422.096.422.076.442.078.46.077.443.057.46.058.443.038.421.02.423.019h.768l.364-.019M243.881 197.483v.039M245.187 198.423l.364.039.385.038.403.038.423.02.422.018.46.039h.46l.462.019h1.824l.424-.019.401-.02.385-.019.344-.018M252.503 196.945l-.02-.039-.057-.038-.076-.038-.115-.038M192.944 195.063l.27.039h.267l.27-.039.249-.096.25-.135.211-.172.211-.23.192-.251.173-.287.135-.326.115-.346.096-.365.057-.365.02-.384-.02-.403-.037-.384-.078-.384-.096-.384-.134-.345-.154-.327-.173-.308-.21-.287-.211-.23-.251-.192-.25-.174-.267-.114-.251-.059-.268-.019-.27.019-.267.059-.251.114-.23.174-.211.192-.211.23-.173.287-.154.308-.134.327-.096.345-.058.384-.038.384-.019.384.037.384.04.403.095.365.116.365.133.346.174.326.192.287.21.25.231.231.25.172.25.135.268.096M234.224 205.95l.27.039h.267l.27-.039.269-.096.25-.135.23-.192.23-.21.191-.27.174-.288.154-.325.114-.345.077-.366.059-.384.018-.384v-.404l-.038-.402-.076-.384-.098-.384-.133-.366-.173-.325-.174-.308-.21-.288-.231-.23-.248-.211-.25-.154-.27-.134-.288-.058-.268-.038-.27.038-.267.058-.251.114-.248.174-.23.192-.213.249-.172.27-.173.306-.135.345-.096.347-.077.384-.037.384v.403l.018.384.058.402.096.384.116.366.153.345.172.327.192.306.212.251.25.23.249.173.269.153.268.096M182.557 200.151l-.02.077.02.076.057.135.096.115.096.097.192.172.211.135.25.114.307.096M151.607 419.204v.057l.02.078.037.114.078.115.076.097.173.154.192.114.212.116.248.115M243.67 198.654l-.02-.02v-.019M244.035 199.902v-.096l-.019-.096-.038-.173-.038-.135-.058-.135-.078-.192-.057-.172-.037-.077-.02-.057-.019-.076v-.039M243.747 216.452l.288-16.55M239.773 433.547l-.307 16.167M239.39 432.126v.057M239.39 432.183l.02.057.017.078.02.077.039.095.057.193.078.21.037.135.059.154.018.077.019.095.02.097v.095M243.67 198v.039l.039.057.077.039.133.057.155.039.19.038.211.058.271.037.287.039M183.65 182.449l-.288-.115-.248-.134-.213-.115-.171-.136-.136-.115-.095-.114-.058-.116v-.096M182.557 200.151l2.208-15.687M184.766 184.465l.019-.096.058-.077.058-.058.057-.057.133-.096.154-.077.154-.058.135-.038.307-.078.173-.018.172-.019h.385M153.738 404.151l-2.132 15.053M155.504 403.556l-.192-.02h-.192l-.172.02-.173.019-.307.058-.27.095-.134.059-.135.096-.057.037-.057.077-.059.078-.017.076M160.746 402.826l-.039.115-.077.096-.115.096-.173.096-.21.077-.25.076-.27.077-.326.059-.345.037-.384.039-.384.039-.422.018h-.442l-.442-.018h-.461l-.441-.039-.462-.039M239.773 433.547l-86.034-29.395M244.035 199.902l-59.27-15.437M243.363 217.067l-.037-.02" style="fill:none;stroke:red;stroke-width:.999997;stroke-linecap:round;stroke-linejoin:round;stroke-miterlimit:4;stroke-dasharray:none;stroke-opacity:1;visibility:visible" visibility="hidden"/><path d="m189.161 202.61-5.395-1.44" style="fill:none;stroke:red;stroke-width:1.99999;stroke-linecap:round;stroke-linejoin:round;stroke-miterlimit:4;stroke-dasharray:none;stroke-opacity:1;visibility:visible" visibility="hidden"/><path d="m239.12 450.212-.057-.019" style="fill:none;stroke:red;stroke-width:.999997;stroke-linecap:round;stroke-linejoin:round;stroke-miterlimit:4;stroke-dasharray:none;stroke-opacity:1;visibility:visible" visibility="hidden"/><path d="m158.02 422.026-5.376-1.861M239.39 432.126l.057-2.63" style="fill:none;stroke:red;stroke-width:1.99999;stroke-linecap:round;stroke-linejoin:round;stroke-miterlimit:4;stroke-dasharray:none;stroke-opacity:1;visibility:visible" visibility="hidden"/><path d="m243.65 198.616.02-.596M160.746 402.826l.02-.096M191.888 183.428v-.057" style="fill:none;stroke:red;stroke-width:.999997;stroke-linecap:round;stroke-linejoin:round;stroke-miterlimit:4;stroke-dasharray:none;stroke-opacity:1;visibility:visible" visibility="hidden"/><path d="m244.285 552.106-.327.039-.365.038-.384.019-.384.019-.401.02h-.404l-.404-.02-.403-.019-.384-.039-.364-.037-.367-.039-.344-.058" style="fill:none;stroke:red;stroke-width:1.99999;stroke-linecap:round;stroke-linejoin:round;stroke-miterlimit:4;stroke-dasharray:none;stroke-opacity:1;visibility:visible" visibility="hidden"/><path d="m190.371 183.448.307-.039.27-.038.248-.038.231-.058.173-.076.154-.078.116-.077.057-.096.037-.096v-.096" style="fill:none;stroke:red;stroke-width:.999997;stroke-linecap:round;stroke-linejoin:round;stroke-miterlimit:4;stroke-dasharray:none;stroke-opacity:1;visibility:visible" visibility="hidden"/><path d="m191.83 182.257.135.5M182.73 180.951l.095-.153.116-.116.114-.115.136-.096.134-.096.134-.077.191-.076.213-.058.191-.058.288-.039.288-.037.307-.039h.326M182.73 180.951l-.25.441M189.661 180.625l.25.077.211.076.211.078.21.096.174.096.25.134.229.154.193.173.173.192.115.153.076.192.077.211M185.264 179.991h.557l.556.02.558.037.557.078.556.096.537.096.558.153.518.153" style="fill:none;stroke:red;stroke-width:1.99999;stroke-linecap:round;stroke-linejoin:round;stroke-miterlimit:4;stroke-dasharray:none;stroke-opacity:1;visibility:visible" visibility="hidden"/><path d="m251.945 198.558.327-.039.288-.018.249-.039.23-.039.174-.037.135-.059.076-.038.057-.058v-.037" style="fill:none;stroke:red;stroke-width:.999997;stroke-linecap:round;stroke-linejoin:round;stroke-miterlimit:4;stroke-dasharray:none;stroke-opacity:1;visibility:visible" visibility="hidden"/><path d="M243.67 198v.039M253.29 197.675l.192.519M243.881 197.483l.059-.115.077-.116.095-.114.076-.098.097-.076.096-.057.095-.059.097-.057.076-.037.116-.039.095-.019.116-.038M243.881 197.483l-.21.519M252.234 196.791l.153.057.154.058.172.096.097.058.116.095.095.097.076.095.077.097.077.134.039.097M244.977 196.657l.576-.135.595-.096.594-.096.596-.057.538-.039h.941l.384.019.384.039.384.038.384.058.365.057.518.097.498.115.5.135M253.482 198.212v-.019M145.117 512.4l.057-.115.058-.116.02-.114M182.441 181.508l.02-.057.019-.058M191.965 182.756v.115M243.325 217.047l-54.164-14.439M167.848 425.442l-9.828-3.416M239.062 450.193l-51.6-17.933M237.238 550.09l1.824-99.897M239.447 429.495l3.879-212.447M246.878 550.244l6.604-352.031M136.017 510.827l46.424-329.318M145.251 512.056l12.768-90.03M160.766 402.73l28.396-200.12M191.888 183.37l.077-.5M239.447 429.495l-78.681-26.764M244.285 196.983l-52.397-13.612M237.258 550.187l-.02-.039v-.057M246.878 550.244v.057l-.02.039M237.45 550.686l-.193-.5M246.647 550.84l-.077.153-.076.135-.116.135-.115.114-.116.096-.135.078-.172.114-.192.096-.193.078-.268.076-.288.077-.287.057-.326.058M246.647 550.84l.21-.5M239.754 552.03l-.23-.039-.231-.057-.231-.057-.21-.058-.191-.077-.251-.115-.25-.134-.211-.135-.172-.172-.135-.135-.115-.173-.077-.192M136.035 511.057l-.019-.115v-.116" style="fill:none;stroke:red;stroke-width:1.99999;stroke-linecap:round;stroke-linejoin:round;stroke-miterlimit:4;stroke-dasharray:none;stroke-opacity:1;visibility:visible" visibility="hidden"/><path d="m145.251 512.075-.037.115-.04.116M136.15 511.537l-.116-.48M144.926 512.728l-.096.135-.116.134-.095.115-.116.096-.192.133-.192.116-.212.096-.249.096-.268.078-.27.057-.287.057-.268.039-.308.019-.307.02h-.635l-.268-.02-.288-.019-.288-.039-.289-.038-.268-.039-.327-.076-.325-.057-.308-.078-.307-.096-.288-.096-.289-.114-.268-.116-.25-.115-.267-.153-.231-.155-.23-.172-.211-.192-.136-.173-.134-.192-.114-.211-.078-.23M144.926 512.728l.25-.423" style="fill:none;stroke:red;stroke-width:1.99999;stroke-linecap:round;stroke-linejoin:round;stroke-miterlimit:4;stroke-dasharray:none;stroke-opacity:1;visibility:visible" visibility="hidden"/><path d="M109.832 587.676 66.2 665.401M109.556 588.08l5.313-9.465M109.556 588.08l-5.825 1.005M114.87 578.613l-.695-5.223M114.174 573.39l-.33-.392M110.032 587.23a2.718 2.718 0 0 1-.476.85M109.556 588.079a5.635 5.635 0 0 1-5.826 1.005" style="fill:none;stroke:red;stroke-width:.999997;stroke-linecap:round;stroke-linejoin:round;stroke-miterlimit:10;stroke-dasharray:none;stroke-opacity:1;visibility:visible" visibility="hidden"/><path d="m189.161 202.608 3.783-7.545M245.033 198.403l-10.809 7.547M185.264 179.991l1.307 3.802" style="fill:none;stroke:red;stroke-width:.999997;stroke-linecap:round;stroke-linejoin:round;stroke-miterlimit:4;stroke-dasharray:none;stroke-opacity:1;visibility:visible" visibility="hidden"/><path d="m152.644 420.165 15.204 5.277" style="fill:none;stroke:red;stroke-width:1.99999;stroke-linecap:round;stroke-linejoin:round;stroke-miterlimit:4;stroke-dasharray:none;stroke-opacity:1;visibility:visible" visibility="hidden"/><path d="m214.525 421.028 25.21-7.95M249.508 409.988l197.49-62.227M397.348 133.009l.307.115.345.077.347.096.384.057.402.059.404.039.422.018.422.019h.442l.422-.037.423-.02.403-.058.404-.058.364-.095.365-.077.327-.115.306-.116M458.98 146.929l.347.02.345.019h.787l.402-.019.424-.039.422-.058.441-.038.423-.077.422-.076.404-.077.402-.096.384-.115.366-.096.346-.116.306-.135M449.495 152.593l-.21-.057-.231-.115-.211-.155-.193-.173-.191-.23-.155-.23-.153-.268-.116-.27-.076-.287-.057-.288-.02-.27.02-.268.038-.269.078-.23.094-.193.134-.172.173-.134.173-.096.192-.058.212-.018.211.018.23.076.211.116.211.154.212.172.173.212.172.249.135.25.115.287.077.27.057.288.019.288v.268l-.057.25-.076.231-.096.21-.135.173-.155.134-.19.096-.194.059-.21.019-.211-.039M408.215 143.185l-.23-.077-.211-.115-.194-.135-.21-.192-.174-.21-.153-.231-.152-.25-.096-.269-.097-.288-.058-.288-.018-.269.018-.268.039-.25.076-.23.097-.21.134-.174.153-.135.173-.096.174-.057h.21l.212.019.211.077.21.096.213.153.192.174.192.21.153.25.135.249.114.27.096.287.039.288.039.27-.02.268-.038.249-.077.23-.096.211-.135.155-.153.135-.173.096-.191.057-.193.019-.211-.019M399.038 148.868v.057l.019.058.058.096.076.096.078.057.172.136.173.076.19.077.251.076M398.845 134.795l.193 14.073M400.439 134.007l-.173.019-.172.038-.174.039-.153.039-.288.096-.25.114-.114.078-.116.096-.057.057-.039.057-.039.078-.018.076M402.417 343.748l-.21-.057-.174-.078-.153-.096-.155-.114-.057-.059-.058-.076-.057-.096-.019-.096-.173-13.19M401.36 329.886l.02-.077.037-.076.038-.058.04-.058.114-.076.135-.078.115-.057.134-.039.25-.096.153-.038.155-.019.19-.039.174-.018M402.915 329.156l.404-.019.401-.058.404-.058.384-.057.384-.096.366-.096.346-.115.326-.114.288-.136.269-.134.23-.134.191-.154.174-.154.134-.152.096-.155.058-.173.018-.154M460.247 163v.096l-.02.096-.019.057-.02.058-.057.058-.057.039-.058.039h-.058M457.52 146.813l.019.039v.057M457.539 146.91l.039.057.02.078.037.076.057.096.096.193.115.192.059.133.077.135.02.076.037.077.038.096.02.096L460.247 163M486.838 353.444l-.02-.057-.017-.058M487.433 354.808l-.02-.077-.037-.096-.058-.154-.057-.134-.077-.135-.115-.21-.097-.211-.038-.096-.038-.078-.039-.096-.019-.076M489.43 368.92l-1.997-14.112M489.18 369.284h.057l.039-.019.057-.02.058-.057.02-.039.018-.057v-.172M401.36 329.886l86.073 24.921M398.845 134.795l59.308 13.42M407.39 327.198v-.25M405.066 132.26v-.21" style="fill:none;stroke:#00ff4a;stroke-width:.999997;stroke-linecap:round;stroke-linejoin:round;stroke-miterlimit:4;stroke-dasharray:none;stroke-opacity:1;visibility:visible"/><path d="m486.8 353.33-.519-3.648" style="fill:none;stroke:#00ff4a;stroke-width:1.99999;stroke-linecap:round;stroke-linejoin:round;stroke-miterlimit:4;stroke-dasharray:none;stroke-opacity:1;visibility:visible"/><path d="m457.52 146.813-.077-.537" style="fill:none;stroke:#00ff4a;stroke-width:.999997;stroke-linecap:round;stroke-linejoin:round;stroke-miterlimit:4;stroke-dasharray:none;stroke-opacity:1;visibility:visible"/><path d="m402.417 343.748 5.184 1.536" style="fill:none;stroke:#00ff4a;stroke-width:1.99999;stroke-linecap:round;stroke-linejoin:round;stroke-miterlimit:4;stroke-dasharray:none;stroke-opacity:1;visibility:visible"/><path d="m489.066 369.246.115.039" style="fill:none;stroke:#00ff4a;stroke-width:.999997;stroke-linecap:round;stroke-linejoin:round;stroke-miterlimit:4;stroke-dasharray:none;stroke-opacity:1;visibility:visible"/><path d="m400.055 149.598 5.223 1.21" style="fill:none;stroke:#00ff4a;stroke-width:1.99999;stroke-linecap:round;stroke-linejoin:round;stroke-miterlimit:4;stroke-dasharray:none;stroke-opacity:1;visibility:visible"/><path d="m459.881 163.403.077.039M441.892 345.515l-.136-.02-.113.02M446.327 346.82l-4.435-1.305M446.999 347.76l-.02-.172-.057-.192-.096-.155-.095-.153-.136-.115-.115-.096-.153-.058M447.44 353.367l-.441-5.607M447.133 353.943l.116-.057.095-.078.058-.133.038-.153v-.155" style="fill:none;stroke:#00ff4a;stroke-width:.999997;stroke-linecap:round;stroke-linejoin:round;stroke-miterlimit:4;stroke-dasharray:none;stroke-opacity:1;visibility:visible"/><path d="m224.779 424.504 14.841-4.704M249.392 416.708l197.74-62.765M208.055 418.82l31.756-9.965M249.604 405.783l192.037-60.27" style="fill:none;stroke:#00ff4a;stroke-width:1.99999;stroke-linecap:round;stroke-linejoin:round;stroke-miterlimit:4;stroke-dasharray:none;stroke-opacity:1;visibility:visible"/><path d="m396.157 131.607-.039.153-.02.154.039.154.077.154.096.153.135.135.19.134.194.134.25.116.269.114M403.837 132.913l.268-.115.25-.134.193-.135.172-.135.153-.153.097-.153.058-.154.038-.154-.02-.135-.038-.153" style="fill:none;stroke:#00ff4a;stroke-width:.999997;stroke-linecap:round;stroke-linejoin:round;stroke-miterlimit:4;stroke-dasharray:none;stroke-opacity:1;visibility:visible"/><path d="m404.816 131.07.192.421M396.33 131.185l.077-.153.076-.154.116-.116.096-.134.172-.172.194-.135.21-.135.231-.134.268-.115.27-.115.287-.097.268-.057.27-.076.288-.039.288-.059.306-.018.271-.039h.268l.268-.019h.29l.267.019.307.02.328.019.307.038.288.058.306.057.288.077.268.096.251.096.268.116.25.134.23.173.21.172.155.173.134.192.116.212M396.33 131.185l-.172.421" style="fill:none;stroke:#00ff4a;stroke-width:1.99999;stroke-linecap:round;stroke-linejoin:round;stroke-miterlimit:4;stroke-dasharray:none;stroke-opacity:1;visibility:visible"/><path d="m465.2 146.026.288-.115.25-.116.211-.133.172-.116.155-.115.115-.134.076-.115.038-.116-.018-.115-.039-.096M457.462 146.142l-.019.115.039.116.057.096.116.096.154.096.19.076.231.058" style="fill:none;stroke:#00ff4a;stroke-width:.999997;stroke-linecap:round;stroke-linejoin:round;stroke-miterlimit:4;stroke-dasharray:none;stroke-opacity:1;visibility:visible"/><path d="m466.2 144.433.25.421M457.578 145.662l.057-.153.058-.174.096-.134.096-.134.114-.134.116-.116.192-.134.211-.134.23-.135.213-.096.249-.115.27-.097.267-.095.288-.077.174-.057.153-.039M457.578 145.662l-.116.48M463.012 143.453h.883l.288.02.269.037.25.039.249.057.23.059.27.115.268.134.134.115.135.116.115.135.097.153M460.362 143.837l.537-.115.519-.096.537-.077.519-.057.537-.039M396.157 131.607l-.039.135-.02.134M405.066 131.742l-.02-.135-.039-.114M466.448 144.855l.039.057.02.058M399.978 422.852l-.71-53.701M399.133 358.858 396.1 131.876M408.522 422.756l-.672-56.333M407.734 356.151l-.135-10.867M407.39 326.948l-2.112-176.14M405.066 132.05v-.307M501.335 455.838l-12.268-86.592M486.283 349.68l-26.401-186.277M510.09 454.647 466.506 144.97M407.6 345.284l17.952 5.28M442.294 355.48l46.772 13.767M407.39 326.948l78.893 22.732M405.066 132.05l54.125 12.172M405.277 150.808l54.604 12.595M408.522 422.756l-.02.135-.019.153-.057.135M400.074 423.274l-.039-.135-.038-.153-.019-.135M400.266 423.64l-.192-.365M408.272 423.563l-.096.172-.096.155-.115.153-.134.133-.154.155-.173.135-.192.133-.192.116-.268.135-.27.114-.306.096-.308.096-.25.058-.267.057-.27.039-.288.02-.268.018-.346.02h-.327l-.325-.02-.308-.038-.327-.039-.288-.057-.307-.076-.268-.078-.289-.096-.268-.114-.25-.135-.231-.153-.191-.135-.173-.153-.154-.155-.154-.192-.115-.192-.039-.095M408.272 423.563l.153-.384M510.09 454.743v.077l-.02.076M501.43 456.106l-.057-.135-.039-.134M510.09 454.647v.096M501.661 456.49l-.23-.384M509.956 455.338l-.057.153-.059.154-.077.136-.075.133-.155.192-.172.153-.173.155-.21.153-.231.154-.251.134-.268.115-.25.096-.269.096-.269.096-.288.077-.287.078-.27.057-.248.037-.27.039-.268.039-.27.038-.326.019h-.901l-.308-.037-.288-.02-.27-.058-.267-.057-.27-.077-.268-.115-.25-.116-.231-.153-.19-.154-.154-.173-.155-.192M509.956 455.338l.115-.441" style="fill:none;stroke:#00ff4a;stroke-width:1.99999;stroke-linecap:round;stroke-linejoin:round;stroke-miterlimit:4;stroke-dasharray:none;stroke-opacity:1;visibility:visible"/><path d="m249.508 409.988-9.774 3.09M239.81 408.855l9.698 1.133M458.153 148.215l-8.658 4.378M397.348 133.009l10.867 10.176M449.495 152.593l8.658-4.378" style="fill:none;stroke:#00ff4a;stroke-width:.999997;stroke-linecap:round;stroke-linejoin:round;stroke-miterlimit:4;stroke-dasharray:none;stroke-opacity:1;visibility:visible"/><path d="m239.734 413.079-14.955 11.425M249.392 416.708l-9.772 3.092M239.62 419.8l9.772-3.092M249.508 409.988l-9.697-1.133M239.81 408.855l9.794-3.072M399.133 358.858l.136 10.293M399.269 369.15l-.136-10.292M407.734 356.151l.116 10.272M407.85 366.423l-.116-10.272M441.892 345.515l-16.34 5.049M446.327 346.82l-4.033 8.66M449.495 152.593l9.696-8.371" style="fill:none;stroke:#00ff4a;stroke-width:1.99999;stroke-linecap:round;stroke-linejoin:round;stroke-miterlimit:4;stroke-dasharray:none;stroke-opacity:1;visibility:visible"/></svg>