<svg xmlns="http://www.w3.org/2000/svg" baseProfile="full" height="793.701" preserveAspectRatio="xMinYMin meet" style="width:738px;height:965px" width="559.371" xml:space="preserve"><path d="m267.844 328.361.31.059.351.02.37-.02.388-.02.389-.059.428-.096.408-.097.428-.136.428-.136.427-.176.408-.195.409-.193.388-.215.37-.233.35-.252.31-.252.293-.254.252-.253.233-.272.195-.252M205.344 312.848l.272.156.33.116.35.097.37.078.389.038.408.02.428-.02.426-.038.428-.058.448-.097.428-.097.427-.156.428-.155.408-.176.37-.213.369-.215.33-.232.311-.253.273-.254.232-.27.215-.274.156-.272M260.34 332.774l-.233-.077-.234-.118-.233-.136-.233-.174-.234-.195-.213-.213-.195-.234-.174-.253-.156-.252-.116-.253-.079-.234-.057-.252-.02-.214.02-.194.038-.174.098-.156.116-.098.136-.078.176-.039h.193l.215.039.233.058.233.118.234.136.252.174.213.195.215.213.213.234.175.253.137.252.116.253.097.252.059.234.019.213-.019.215-.059.174-.077.136-.117.118-.156.077-.175.039h-.193l-.215-.039M218.622 322.412l-.213-.077-.234-.098-.233-.136-.233-.174-.234-.195-.194-.215-.195-.233-.175-.252-.156-.233-.116-.254-.097-.252-.059-.233-.018-.213.018-.195.039-.176.079-.136.116-.116.156-.077.156-.04h.193l.215.04.213.057.233.117.234.136.233.175.215.195.213.213.195.233.174.234.155.253.117.252.098.233.038.234.039.233-.02.195-.057.174-.079.136-.116.118-.136.077-.156.039h-.195l-.213-.039M211.254 326.923l.039.057.038.059.118.097.097.078.136.058.136.059.156.039M207.638 314.597l3.616 12.325M213.47 309.68v.039l.02.018v.02M261.04 495.02l-.136-.039-.116-.058-.097-.059-.098-.059-.097-.077-.039-.059-.02-.038-3.305-11.255" style="fill:none;stroke:red;stroke-width:.999997;stroke-linecap:round;stroke-linejoin:round;stroke-miterlimit:4;stroke-dasharray:none;stroke-opacity:1;visibility:visible" visibility="hidden"/><path d="M257.132 483.376v-.079l.02-.058.019-.058.04-.038.096-.078.098-.078.116-.078.098-.058.252-.098.136-.058.136-.058.176-.038.174-.059M258.493 482.54l.41-.117.426-.136.41-.156.387-.194.39-.194.368-.234.332-.233.31-.253.272-.252.252-.272.215-.272.175-.292.116-.272.098-.272.058-.272v-.254l-.039-.252M273.112 342.416l.02.057.019.059v.059l-.019.038v.039h-.059M266.814 328.108l.097.195.098.194.116.194.136.194.078.098.058.117.097.136.019.077.04.059 5.56 13.044M344.223 509.27l-.039-.059-.018-.057-.079-.136-.077-.099-.078-.116-.117-.194-.117-.195-.116-.195-.098-.213M349.375 521.38l-5.152-12.11M349.336 521.595h.059l.02-.02v-.096l-.02-.04-.02-.059M257.132 483.376l87.09 25.893M207.638 314.597l59.915 14.775M213.47 309.68l-.057-.195" style="fill:none;stroke:red;stroke-width:.999997;stroke-linecap:round;stroke-linejoin:round;stroke-miterlimit:4;stroke-dasharray:none;stroke-opacity:1;visibility:visible" visibility="hidden"/><path d="m343.485 508.006-2.839-6.668" style="fill:none;stroke:red;stroke-width:1.99999;stroke-linecap:round;stroke-linejoin:round;stroke-miterlimit:4;stroke-dasharray:none;stroke-opacity:1;visibility:visible" visibility="hidden"/><path d="m266.814 328.108-.233-.544" style="fill:none;stroke:red;stroke-width:.999997;stroke-linecap:round;stroke-linejoin:round;stroke-miterlimit:4;stroke-dasharray:none;stroke-opacity:1;visibility:visible" visibility="hidden"/><path d="m261.04 495.02 7.037 2.119" style="fill:none;stroke:red;stroke-width:1.99999;stroke-linecap:round;stroke-linejoin:round;stroke-miterlimit:4;stroke-dasharray:none;stroke-opacity:1;visibility:visible" visibility="hidden"/><path d="m349.258 521.575.077.02" style="fill:none;stroke:red;stroke-width:.999997;stroke-linecap:round;stroke-linejoin:round;stroke-miterlimit:4;stroke-dasharray:none;stroke-opacity:1;visibility:visible" visibility="hidden"/><path d="m211.973 327.37 7.173 1.788" style="fill:none;stroke:red;stroke-width:1.99999;stroke-linecap:round;stroke-linejoin:round;stroke-miterlimit:4;stroke-dasharray:none;stroke-opacity:1;visibility:visible" visibility="hidden"/><path d="m273.015 342.65.057.02" style="fill:none;stroke:red;stroke-width:.999997;stroke-linecap:round;stroke-linejoin:round;stroke-miterlimit:4;stroke-dasharray:none;stroke-opacity:1;visibility:visible" visibility="hidden"/><path d="m286.273 559.6.059.213.02.234v.253l-.04.233M278.477 562.827l-.175-.195-.136-.194-.097-.194-.077-.233M278.73 563.08l-.253-.252M286.234 560.883l-.079.252-.077.233-.117.254-.135.213-.156.233-.175.234-.194.214-.214.195-.214.155-.214.156-.214.154-.234.136-.252.136-.233.118-.253.097-.271.097-.273.078-.252.058-.274.059-.272.039-.272.038-.272.019h-.252l-.33-.019-.331-.038-.31-.059-.293-.079-.253-.077-.213-.096-.234-.117-.194-.118-.194-.154-.137-.098-.116-.117M286.234 560.883l.077-.35M389.072 592.434v.156M381.121 595.933l-.156-.156-.136-.175-.097-.194M388.975 591.948l.057.156.02.155.02.174M381.432 596.205l-.31-.272M389.052 592.998l-.02.215-.037.232-.079.233-.077.215-.118.233-.136.233-.136.214-.174.213-.175.195-.195.176-.194.193-.215.176-.213.155-.232.156-.254.156-.253.136-.252.136-.272.116-.253.097-.252.097-.272.078-.274.077-.252.059-.33.058-.331.039-.33.02h-.311l-.311-.02-.312-.057-.31-.059-.273-.097-.213-.098-.195-.097-.194-.136-.175-.136M389.052 592.998l.02-.408" style="fill:none;stroke:red;stroke-width:1.99999;stroke-linecap:round;stroke-linejoin:round;stroke-miterlimit:4;stroke-dasharray:none;stroke-opacity:1;visibility:visible" visibility="hidden"/><path d="m267.28 328.205.252.097.312.059M274.979 325.329l.136-.233.116-.252.079-.215.038-.233v-.214l-.038-.194-.059-.175-.116-.176-.137-.136" style="fill:none;stroke:red;stroke-width:.999997;stroke-linecap:round;stroke-linejoin:round;stroke-miterlimit:4;stroke-dasharray:none;stroke-opacity:1;visibility:visible" visibility="hidden"/><path d="M266.503 327.117v.195l.057.194.079.175.116.156.137.136.175.116.213.116M274.667 323.17l.33.33M266.503 326.65l.02-.195.037-.214.059-.214.059-.194.097-.214.117-.194.136-.214.136-.194.214-.254.233-.232.253-.234.291-.214.233-.174.254-.156.252-.156.273-.155.29-.136.311-.156.351-.136.33-.116.35-.117.33-.098.331-.058.331-.058.31-.038.331-.02h.331l.31.02.291.038.254.058.253.078.233.098.214.116.213.136.137.117M266.503 326.65v.467" style="fill:none;stroke:red;stroke-width:1.99999;stroke-linecap:round;stroke-linejoin:round;stroke-miterlimit:4;stroke-dasharray:none;stroke-opacity:1;visibility:visible" visibility="hidden"/><path d="m204.411 311.06-.02.272v.253l.059.252.097.234.156.233.175.195.213.194.253.155M213.14 310.573l.116-.29.079-.274.038-.252v-.272l-.038-.253-.079-.234-.136-.233-.175-.213" style="fill:none;stroke:red;stroke-width:.999997;stroke-linecap:round;stroke-linejoin:round;stroke-miterlimit:4;stroke-dasharray:none;stroke-opacity:1;visibility:visible" visibility="hidden"/><path d="m212.673 308.26.272.292M204.489 310.651l.057-.233.079-.234.097-.233.116-.233.156-.234.156-.213.195-.215.213-.213.195-.175.213-.176.234-.154.253-.156.232-.136.273-.136.272-.118.272-.116.272-.097.292-.096.272-.059.291-.078.273-.039.291-.039.272-.02.35-.018h.35l.33.038.331.039.252.059.254.077.253.077.233.118.214.117.233.136.213.175.195.194M204.489 310.651l-.077.408M204.411 311.06l-.02.252v.253l.059.234M213.334 309.193l-.097-.213-.116-.215-.176-.213M274.997 323.5l.117.097.078.136.078.118M277.991 562.01l-8.243-27.995M266.6 523.306 204.45 311.8M286.273 559.6l-9.097-31.24M274.064 517.648l-5.987-20.51M262.595 478.302l-43.448-149.144M213.412 309.485l-.079-.292M380.732 595.39l-31.473-73.813M340.646 501.338l-67.632-158.689M388.975 591.948 275.271 323.851M268.077 497.14l81.181 24.436M262.595 478.302l78.052 23.036M213.412 309.485l56.2 13.744M219.146 329.158l53.868 13.492" style="fill:none;stroke:red;stroke-width:1.99999;stroke-linecap:round;stroke-linejoin:round;stroke-miterlimit:4;stroke-dasharray:none;stroke-opacity:1;visibility:visible" visibility="hidden"/><path d="m267.28 328.205-6.94 4.569M267.553 329.372l-7.213 3.402M219.146 329.158l-.524-6.746M267.844 328.361l-.291 1.01" style="fill:none;stroke:red;stroke-width:.999997;stroke-linecap:round;stroke-linejoin:round;stroke-miterlimit:4;stroke-dasharray:none;stroke-opacity:1;visibility:visible" visibility="hidden"/><path d="m266.6 523.306 3.148 10.71M269.748 534.015l-3.148-10.709M274.064 517.648l3.112 10.712M277.176 528.36l-3.112-10.712M267.844 328.361l1.768-5.132" style="fill:none;stroke:red;stroke-width:1.99999;stroke-linecap:round;stroke-linejoin:round;stroke-miterlimit:4;stroke-dasharray:none;stroke-opacity:1;visibility:visible" visibility="hidden"/><path d="M52.255 686.952 287.692 507.52l5.345 2.198 1.75 4.801L57.913 694.728l-4.549-1.595-1.108-6.181" style="fill:none;fill-opacity:1;fill-rule:nonzero;stroke:#00ff4a;stroke-width:1.33333;visibility:visible"/><path d="m58.359 694.902.019.175-.019.136-.039.117-.078.097M57.348 689.129l1.01 5.773M56.609 688.098l.136.079.136.096.136.136.117.176.096.174.079.175.039.195M52.157 686.368l4.452 1.73M51.827 686.388l.097-.039.116-.02.118.039M57.348 689.129l235.69-179.412" style="fill:none;stroke:#00ff4a;stroke-width:.999997;stroke-linecap:round;stroke-linejoin:round;stroke-miterlimit:4;stroke-dasharray:none;stroke-opacity:1;visibility:visible"/><path d="m292.183 508.881-4.49-1.361M293.038 509.717l-.077-.156-.078-.136-.136-.155-.117-.136-.156-.117-.155-.077-.136-.059M294.788 514.519l-1.75-4.801M294.73 514.966l.059-.079.038-.096v-.136l-.038-.136M53.46 693.717l4.432 1.73M58.241 695.427l-.097.039-.116.018-.136-.037M51.69 686.913l1.03 5.773M51.69 686.913l-.019-.156.019-.155.059-.117.078-.097M53.46 693.717l-.136-.079-.136-.116-.136-.136-.117-.154-.098-.176-.077-.195-.039-.175M58.241 695.427l236.487-180.46M51.827 686.388 287.361 507.54" style="fill:none;stroke:#00ff4a;stroke-width:1.99999;stroke-linecap:round;stroke-linejoin:round;stroke-miterlimit:4;stroke-dasharray:none;stroke-opacity:1;visibility:visible"/><path d="M55.9 690.515c.3.585.176 1.249-.277 1.48-.453.234-1.063-.055-1.363-.639-.3-.588-.176-1.251.276-1.483.453-.232 1.064.055 1.364.642" style="fill:none;stroke:#00ff4a;stroke-width:.999997;stroke-linecap:round;stroke-linejoin:round;stroke-miterlimit:4;stroke-dasharray:none;stroke-opacity:1;visibility:visible"/></svg>