<svg xmlns="http://www.w3.org/2000/svg" baseProfile="full" height="1122.52" preserveAspectRatio="xMinYMin meet" style="width:765px;height:886px" width="793.701" xml:space="preserve"><path d="m264.727 728.067 6.556 226.483" style="fill:none;stroke:red;stroke-width:1.6;stroke-linecap:round;stroke-linejoin:round;stroke-miterlimit:4;stroke-dasharray:none;stroke-opacity:1;visibility:visible"/><path d="M279.562 728.37v-.495" style="fill:none;stroke:red;stroke-width:.999997;stroke-linecap:round;stroke-linejoin:round;stroke-miterlimit:4;stroke-dasharray:none;stroke-opacity:1;visibility:visible"/><path d="m277.117 957.075 6.425-2.079M398.593 762.393l1.817 200.914M310.188 737.13l217.26-47.177M329.119 761.507l3.161 160.002" style="fill:none;stroke:red;stroke-width:1.6;stroke-linecap:round;stroke-linejoin:round;stroke-miterlimit:4;stroke-dasharray:none;stroke-opacity:1;visibility:visible"/><path d="M634.831 705.424v-.047" style="fill:none;stroke:red;stroke-width:.999997;stroke-linecap:round;stroke-linejoin:round;stroke-miterlimit:4;stroke-dasharray:none;stroke-opacity:1;visibility:visible"/><path d="m567.085 708.25 32.676 6.768M273.03 745.736l125.7 33.443M277.724 917.505l122.689 44.97" style="fill:none;stroke:red;stroke-width:1.6;stroke-linecap:round;stroke-linejoin:round;stroke-miterlimit:4;stroke-dasharray:none;stroke-opacity:1;visibility:visible"/><path d="m276.946 902.859.395 14.257M508.22 680.174v-.112" style="fill:none;stroke:red;stroke-width:.999997;stroke-linecap:round;stroke-linejoin:round;stroke-miterlimit:4;stroke-dasharray:none;stroke-opacity:1;visibility:visible"/><path d="m642.595 730.455.628-23.473M637.429 923.453l4.023-150.254" style="fill:none;stroke:red;stroke-width:1.6;stroke-linecap:round;stroke-linejoin:round;stroke-miterlimit:4;stroke-dasharray:none;stroke-opacity:1;visibility:visible"/><path d="m629.123 706.848-.008 1.115" style="fill:none;stroke:red;stroke-width:.999997;stroke-linecap:round;stroke-linejoin:round;stroke-miterlimit:4;stroke-dasharray:none;stroke-opacity:1;visibility:visible"/><path d="m631.841 925.684 5.152-1.797M273.16 726.257h-.58M273.485 726.318c-.099 0-.195-.06-.327-.06" style="fill:none;stroke:red;stroke-width:1.6;stroke-linecap:round;stroke-linejoin:round;stroke-miterlimit:4;stroke-dasharray:none;stroke-opacity:1;visibility:visible"/><path d="m279.453 727.82-5.968-1.503M279.523 728.005l.039-.09M275.437 728.93l3.895-.852M275.205 728.93l-1.136-.33M275.205 728.93h.232M274.07 728.598l-1.8.39M272.271 728.989l1.116.287M273.387 729.377v-.101M272.08 729.622l1.307-.245M271.695 729.665c.17 0 .228 0 .385-.041M271.117 729.663h.58M270.8 729.622a.79.79 0 0 0 .313.042M264.853 728.077l5.948 1.544" style="fill:none;stroke:red;stroke-width:.999997;stroke-linecap:round;stroke-linejoin:round;stroke-miterlimit:4;stroke-dasharray:none;stroke-opacity:1;visibility:visible"/><path d="m264.853 727.913-.128.09M264.985 727.82l7.287-1.503M272.58 726.258c-.07 0-.223.06-.308.06" style="fill:none;stroke:red;stroke-width:1.6;stroke-linecap:round;stroke-linejoin:round;stroke-miterlimit:4;stroke-dasharray:none;stroke-opacity:1;visibility:visible"/><path d="M273.387 729.275v.101M273.83 745.973l4.297 155.869M274.07 728.598v.14M275.205 728.93h0M279.33 918.086a29.13 29.13 0 0 0 1.064 5.366M278.588 924.317l-.036-6.568M280.627 923.643l-2.039.675M280.538 918.53l.088 5.112" style="fill:none;stroke:red;stroke-width:.999997;stroke-linecap:round;stroke-linejoin:round;stroke-miterlimit:4;stroke-dasharray:none;stroke-opacity:1;visibility:visible"/><path d="m284.098 954.304-.097.248M283.654 954.997l.244-.307M271.345 954.687l.35.31" style="fill:none;stroke:red;stroke-width:1.6;stroke-linecap:round;stroke-linejoin:round;stroke-miterlimit:4;stroke-dasharray:none;stroke-opacity:1;visibility:visible"/><path d="M406.016 764.291h.627M405.668 764.277c.068.016.223.016.347.016M398.73 762.468l6.939 1.807M398.616 762.239l-.024.153M400.067 761.807l-1.305.279M400.317 761.807l1.333.328M400.317 761.807h-.25M401.65 762.135l1.877-.443M403.528 761.692l-1.36-.33M402.168 761.356v.005" style="fill:none;stroke:red;stroke-width:.999997;stroke-linecap:round;stroke-linejoin:round;stroke-miterlimit:4;stroke-dasharray:none;stroke-opacity:1;visibility:visible"/><path d="m406.103 760.338-3.935 1.019M406.489 760.338h-.385M407.08 760.338h-.59M407.47 760.338h-.39M414.392 762.085l-6.921-1.748" style="fill:none;stroke:red;stroke-width:1.6;stroke-linecap:round;stroke-linejoin:round;stroke-miterlimit:4;stroke-dasharray:none;stroke-opacity:1;visibility:visible"/><path d="M414.496 762.393v-.153M414.366 762.468l-7.33 1.807M406.642 764.292c.137 0 .258 0 .393-.016M415.89 963.117l-.052.19M402.168 761.361h0" style="fill:none;stroke:red;stroke-width:.999997;stroke-linecap:round;stroke-linejoin:round;stroke-miterlimit:4;stroke-dasharray:none;stroke-opacity:1;visibility:visible"/><path d="M415.36 1005.171v.188" style="fill:none;stroke:red;stroke-width:1.6;stroke-linecap:round;stroke-linejoin:round;stroke-miterlimit:4;stroke-dasharray:none;stroke-opacity:1;visibility:visible"/><path d="m408.2 1008.286-.344-.3" style="fill:none;stroke:red;stroke-width:.999997;stroke-linecap:round;stroke-linejoin:round;stroke-miterlimit:4;stroke-dasharray:none;stroke-opacity:1;visibility:visible"/><path d="m415.237 1005.554-.288.29M402.017 1005.843l-.336-.29" style="fill:none;stroke:red;stroke-width:1.6;stroke-linecap:round;stroke-linejoin:round;stroke-miterlimit:4;stroke-dasharray:none;stroke-opacity:1;visibility:visible"/><path d="M527.581 685.821c0-.15-.077-.24-.134-.305M527.582 689.752v-3.932M450.412 697.248c-.136-.243.078-.263.078-.263l.54-.065h.257c.288.065.521.065.521.065-.292.281-.54.281-.54.281h-.624M364.444 715.502c-.089-.27.116-.284.116-.284.292-.06.58-.06.58-.06h.294c.301 0 .522.074.522.074-.096.221-.358.286-.358.286l-.29.032h-.295l-.287-.031M630.59 886.94l.292-13.823M630.457 887.247l-.3.276M632.703 803.127l.307-11.656M632.62 803.41l-.345.297M499.472 681l-221.749 46.372" style="fill:none;stroke:red;stroke-width:.999997;stroke-linecap:round;stroke-linejoin:round;stroke-miterlimit:4;stroke-dasharray:none;stroke-opacity:1;visibility:visible"/><path d="m495.551 680.192-221.72 46.161" style="fill:none;stroke:red;stroke-width:1.6;stroke-linecap:round;stroke-linejoin:round;stroke-miterlimit:4;stroke-dasharray:none;stroke-opacity:1;visibility:visible"/><path d="M435.499 693.556a3.506 3.506 0 0 0-.477-.082c-.215 0-.5.022-.5.022-.167.06-.3.117-.3.117.167.148.415.148.415.148.235.043.527.043.527.043a4.49 4.49 0 0 1 .356-.055M349.67 711.433c-.222 0-.454-.024-.454-.024-.264 0-.546.024-.546.024a1.91 1.91 0 0 0-.326.085.581.581 0 0 0 .386.207h.518c.26 0 .452-.07.452-.07M393.692 702.264l-.521-.052h-.348l-.24.028c-.281.024-.497.07-.497.07.154.208.389.3.389.3l.303.04h.276l.35-.04c.23-.092.431-.092.431-.092M499.472 682.229v-1.23" style="fill:none;stroke:red;stroke-width:.999997;stroke-linecap:round;stroke-linejoin:round;stroke-miterlimit:4;stroke-dasharray:none;stroke-opacity:1;visibility:visible"/><path d="m409.47 760.913 221.86-53.484" style="fill:none;stroke:red;stroke-width:1.6;stroke-linecap:round;stroke-linejoin:round;stroke-miterlimit:4;stroke-dasharray:none;stroke-opacity:1;visibility:visible"/><path d="m414.043 762.02 221.825-53.667M635.428 723.286c.005-.046.057-.172.057-.242M484.945 743.784c.22.056.508.056.508.056h.295c.288-.01.52-.114.52-.114-.153-.24-.393-.278-.393-.278h-.558c-.287.038-.517.086-.517.086M570.852 723.045c.2.044.528.044.528.044h.31c.2-.044.428-.044.428-.044-.194-.237-.429-.284-.429-.284l-.309-.063h-.28c-.216.063-.44.12-.44.12M528.745 733.19c.256.027.585.082.585.082h.346l.33-.055c.294-.027.421-.092.421-.092-.064-.235-.206-.24-.206-.24-.304-.107-.585-.132-.585-.132h-.373l-.299.025c-.295.107-.421.112-.421.112.009.235.202.3.202.3M635.429 723.286l-.387.347M626.476 785.242l6.905 1.617M415.114 849.715l218.266-62.857M565.989 769.53l3.367.82M565.989 769.53l-151.128 40.341M569.356 770.35l.812-.221M627.245 783.695l-57.077-13.565M627.245 785.015l-.77.227M633.38 786.859l.356.628M633.736 787.486l-.068 3.524M633.668 791.01l-.424.43M633.244 791.44l-218.075 63.38M624.487 866.744l6.77 1.896M415.75 940.976l215.507-72.336M564.715 848.588l3.377.973M564.715 848.588l-149.31 46.581M568.093 849.56l.761-.276M625.2 865.002l-56.345-15.719M625.2 866.505l-.712.24M631.257 868.64l.372.588M631.63 869.229l-.09 3.461M631.54 872.687l-.43.393M631.108 873.08l-215.314 72.85M336.322 743.84l3.063.768" style="fill:none;stroke:red;stroke-width:.999997;stroke-linecap:round;stroke-linejoin:round;stroke-miterlimit:4;stroke-dasharray:none;stroke-opacity:1;visibility:visible"/><path d="m336.322 743.84 227.966-50.948" style="fill:none;stroke:red;stroke-width:1.6;stroke-linecap:round;stroke-linejoin:round;stroke-miterlimit:4;stroke-dasharray:none;stroke-opacity:1;visibility:visible"/><path d="m339.575 745.093 227.96-51.136M415.359 727.13c.088-.234-.104-.292-.104-.292-.241 0-.539-.052-.539-.052l-.288.052c-.23 0-.385.074-.385.074.239.27.453.288.453.288h.588M501.299 707.904c-.084-.279-.366-.334-.366-.334-.3 0-.59.055-.59.055-.207.003-.353.085-.353.085.097.152.337.215.337.215h.476c.293 0 .496-.021.496-.021M459.468 717.354c.152-.082.29-.148.29-.148-.138-.149-.289-.232-.289-.232-.289-.002-.587-.002-.587-.002h-.607a1.069 1.069 0 0 0-.432.085c.165.297.432.297.432.297l.308.047h.299l.298-.047M567.344 693.473l-.48 29.487M566.564 740.854l-.435 28.685M565.262 823.69l-.377 24.956M461.736 726.161l-.066-.419-.127-.406-.161-.32c-.163-.216-.46-.438-.46-.438l-.262-.078h-.318l-.315.078-.268.222a4.697 4.697 0 0 0-.579.536l-.137.406-.123.44-.106.432v.427l.106.388.123.355.137.293c.288.23.58.373.58.373l.267.066.315-.066.317-.144.264-.229.296-.293.163-.355.16-.388.128-.448.066-.432M562.71 702.018l-.087-.36-.078-.416-.135-.286c-.154-.252-.375-.446-.375-.446-.276-.046-.583-.046-.583-.046a1.52 1.52 0 0 0-.492.24 4.347 4.347 0 0 0-.453.51l-.172.416-.183.388-.057.396v.407l.057.367.136.361.152.292c.231.23.433.365.433.365h.537c.263-.136.562-.365.562-.365l.217-.292.221-.317.127-.392.087-.387.085-.435M459.181 725.6v-.177" style="fill:none;stroke:red;stroke-width:.999997;stroke-linecap:round;stroke-linejoin:round;stroke-miterlimit:4;stroke-dasharray:none;stroke-opacity:1;visibility:visible"/><path d="M458.88 726.988c.223-.438.3-.87.3-1.386M338.51 763.385l-.632.445M329.119 761.492l.083-.57M341.385 924.963l-.585-.393M340.483 924.184c.077.134.163.287.315.386M337.88 763.832a.672.672 0 0 0-.31.294M329.1 761.445c0 .15.066.297.16.437M341.383 924.963a.715.715 0 0 0 .397.13M338.8 763.253c-.098.01-.197.096-.29.156M341.775 925.057l.63-.24M339.525 763.408l2.88 161.352M342.405 924.76v.057M332.28 921.51l.028.193M570.593 709.182l-.579.35M570.013 709.521a1.619 1.619 0 0 0-.382.305M570.885 708.99c-.085.042-.222.082-.294.14M569.1 849.372l.445-26.94M570.41 770.156l.476-30.399M633.796 705.671l1.01-.248M634.831 705.872l-1.035-.197M634.91 705.953l-1.113.25M634.91 705.953l-.079-.081M633.44 706.203h.357M632.369 706.015l1.07.19M631.257 706.301l1.112-.287M504.375 680.908l1.212-.252M504.375 680.908l126.881 25.393M505.588 680.653l-.924-.18M504.663 680.408v.065M505.767 680.192l-1.104.216M506.056 680.192l.943.177M506.056 680.192h-.29M507 680.37l.98-.195M508.306 680.174h-.327" style="fill:none;stroke:red;stroke-width:.999997;stroke-linecap:round;stroke-linejoin:round;stroke-miterlimit:4;stroke-dasharray:none;stroke-opacity:1;visibility:visible"/><path d="m508.306 680.174 126.498 25.15" style="fill:none;stroke:red;stroke-width:1.6;stroke-linecap:round;stroke-linejoin:round;stroke-miterlimit:4;stroke-dasharray:none;stroke-opacity:1;visibility:visible"/><path d="M543.02 688.073c.239 0 .48.033.48.033.22 0 .519-.033.519-.033.3-.068.3-.117.3-.117-.23-.104-.52-.14-.52-.14-.234-.043-.519 0-.519 0-.215 0-.367.036-.367.036M591.877 697.85h1.04c0-.259-.205-.286-.205-.286-.308-.02-.584-.02-.584-.02-.22.021-.443.094-.443.094M531.001 685.737c.299.03.599.083.599.083h.263c.254-.052.544-.083.544-.083-.07-.297-.347-.31-.347-.31h-.536c-.328.001-.527.013-.527.013M604.336 700.365c.254.052.55.099.55.099h.322l.262-.047c.228-.052.424-.079.424-.079-.262-.268-.488-.288-.488-.288h-.944a1.856 1.856 0 0 0-.376.07M632.369 706.018v-.003M504.375 681.21v-.303M531.087 694.652v-.446l-.088-.404-.199-.328-.147-.358c-.29-.248-.543-.483-.543-.483l-.273-.112-.354-.071-.238.071c-.281.157-.5.376-.5.376-.192.273-.365.577-.365.577l-.02.418v.344l.019.416.164.406.202.346.219.284a1.7 1.7 0 0 0 .519.406l.297.088h.288c.295-.088.524-.236.524-.236.208-.284.407-.57.407-.57l.088-.36v-.364M604.39 709.617v-.39l-.084-.426-.165-.441-.247-.3-.196-.298-.336-.192-.288-.14-.296-.091-.354.089-.281.142c-.243.206-.434.49-.434.49l-.162.34-.033.402-.042.424.043.391.165.385.156.394.288.297.26.284.253.159.37.074h.291l.294-.085c.292-.148.55-.432.55-.432l.163-.297.085-.394v-.385M633.44 706.203h0M633.796 706.203v.099M634.91 706.018v-.065M504.663 695.252l-.288-.325M504.663 680.473v-.065M504.663 680.473h0M273.452 729.317l-1.24.305M272.58 729.104l.872.213M272.608 728.989l1.424-.25M272.608 728.989l-.028.115M274.416 728.736h-.383M275.331 728.953l-.916-.216" style="fill:none;stroke:red;stroke-width:.999997;stroke-linecap:round;stroke-linejoin:round;stroke-miterlimit:4;stroke-dasharray:none;stroke-opacity:1;visibility:visible"/><path d="m403.556 761.01-126.762-32.36" style="fill:none;stroke:red;stroke-width:1.6;stroke-linecap:round;stroke-linejoin:round;stroke-miterlimit:4;stroke-dasharray:none;stroke-opacity:1;visibility:visible"/><path d="m403.556 761.01-1.479.355M402.077 761.361l1.017.235M403.094 761.692v-.096M401.65 762.02l1.444-.328M401.241 762.02l-1.021-.213M401.241 762.02h.41M400.22 761.807l-1.257.279M398.51 762.085l-126.344-32.396M398.51 762.085h.453M360.852 750.928c-.216-.04-.512-.04-.512-.04h-.288l-.285.041a4.11 4.11 0 0 0-.387.108.564.564 0 0 0 .391.257h.889a1.297 1.297 0 0 0 .4-.144M312.033 738.448c-.195-.022-.456-.022-.456-.022h-.292l-.572.044a.475.475 0 0 0 .28.342h.585c.259-.036.491-.094.491-.094M373.698 754.152a9.312 9.312 0 0 0-.638-.088h-.317l-.365.033-.236.055a1.876 1.876 0 0 0-.39.14c.27.208.562.292.562.292h1.008l.268-.084c.2-.067.35-.146.35-.146M300.447 735.373c-.257 0-.547-.021-.547-.021h-.373l-.3.021h-.284c-.213.133-.377.156-.377.156a1.208 1.208 0 0 0 .464.279h.997l.299-.063a.685.685 0 0 0 .316-.14M401.241 762.08v-.06M401.65 762.02l.03.115M400.22 761.807h0M403.094 761.807v-.115M403.094 761.596v.21M272.667 745.455l.239.219M272.58 729.104h0M277.23 902.236l-.239.33M276.946 902.711c0 .195 0 .303.017.344M277.486 902.044l.63-.2M400.266 945.538l-57.861-20.721M332.232 921.257l-54.116-19.415M277.408 917.226l.208.237M502.076 681.357c.11 0 .195 0 .25-.013M501.523 681.356h.555M501.23 681.344c.154.013.223.013.292.013M501.232 681.343l-5.972-1.232M495.097 679.976v.085" style="fill:none;stroke:red;stroke-width:.999997;stroke-linecap:round;stroke-linejoin:round;stroke-miterlimit:4;stroke-dasharray:none;stroke-opacity:1;visibility:visible"/><path d="m495.26 679.89 5.713-1.185M501.23 678.662c-.077 0-.134.044-.257.044M501.805 678.66h-.573M502.076 678.706c-.105 0-.195-.044-.272-.044M502.077 678.705l6.027 1.188" style="fill:none;stroke:red;stroke-width:1.6;stroke-linecap:round;stroke-linejoin:round;stroke-miterlimit:4;stroke-dasharray:none;stroke-opacity:1;visibility:visible"/><path d="M508.22 680.062v-.085M508.103 680.111l-1.033.21M506.904 680.322h.165M505.767 680.111l1.137.21M504.308 680.408l1.46-.297M505.477 680.63l-1.17-.221M505.477 680.708l-3.15.636M505.477 680.708v-.079M505.308 706.07l.035-10.625M505.767 680.111v.081M506.904 680.322h0M495.097 679.976v.341M495.03 696.984l-.07 11.372M635.233 705.377h-.267" style="fill:none;stroke:red;stroke-width:.999997;stroke-linecap:round;stroke-linejoin:round;stroke-miterlimit:4;stroke-dasharray:none;stroke-opacity:1;visibility:visible"/><path d="M635.84 705.377h-.607M636.13 705.377l6.881 1.383M636.13 705.377h-.29M643.223 706.932l-.085-.083" style="fill:none;stroke:red;stroke-width:1.6;stroke-linecap:round;stroke-linejoin:round;stroke-miterlimit:4;stroke-dasharray:none;stroke-opacity:1;visibility:visible"/><path d="m643.13 707.051-5.701 1.352M637.164 708.444a.867.867 0 0 0 .262-.042M636.558 708.442h.608M636.21 708.401c.107.041.215.041.346.041M636.21 708.4l-6.859-1.35M629.123 706.848l.083.083M629.285 706.76l3.057-.743M632.498 706.018h-.155M633.796 706.301l-1.299-.284M635.26 705.953l-1.464.35M633.926 705.726l1.333.227M633.926 705.624l1.04-.248M633.926 705.624v.101M633.926 705.726v-.101M633.926 705.726h0M632.179 925.35h-.55" style="fill:none;stroke:red;stroke-width:.999997;stroke-linecap:round;stroke-linejoin:round;stroke-miterlimit:4;stroke-dasharray:none;stroke-opacity:1;visibility:visible"/><path d="m625.269 923.346-.07-.143" style="fill:none;stroke:red;stroke-width:1.6;stroke-linecap:round;stroke-linejoin:round;stroke-miterlimit:4;stroke-dasharray:none;stroke-opacity:1;visibility:visible"/><path d="m631.929 925.643.279-.203M631.736 925.643l-.239-.24" style="fill:none;stroke:red;stroke-width:.999997;stroke-linecap:round;stroke-linejoin:round;stroke-miterlimit:4;stroke-dasharray:none;stroke-opacity:1;visibility:visible"/><path d="m625.612 923.794-.25-.292M637.301 923.502l-.29.292" style="fill:none;stroke:red;stroke-width:1.6;stroke-linecap:round;stroke-linejoin:round;stroke-miterlimit:4;stroke-dasharray:none;stroke-opacity:1;visibility:visible"/><path d="m276.017 917.656-5.216-188.033M276.45 956.442l-.432-38.787M279.331 728.395v-.315M279.523 728.005v.364M279.562 728.37v-.456" style="fill:none;stroke:red;stroke-width:.999997;stroke-linecap:round;stroke-linejoin:round;stroke-miterlimit:4;stroke-dasharray:none;stroke-opacity:1;visibility:visible"/><path d="m284.098 954.304.396-34.35M271.693 954.997l5.27 2.028" style="fill:none;stroke:red;stroke-width:1.6;stroke-linecap:round;stroke-linejoin:round;stroke-miterlimit:4;stroke-dasharray:none;stroke-opacity:1;visibility:visible"/><path d="m406.016 764.291 1.947 243.6" style="fill:none;stroke:red;stroke-width:.999997;stroke-linecap:round;stroke-linejoin:round;stroke-miterlimit:4;stroke-dasharray:none;stroke-opacity:1;visibility:visible"/><path d="m400.565 963.445 1.168 41.915M415.89 963.117l-1.393-200.877M415.838 963.307l-.477 42.05M408.361 1008.286l6.588-2.443M402.017 1005.843l6.183 2.443" style="fill:none;stroke:red;stroke-width:1.6;stroke-linecap:round;stroke-linejoin:round;stroke-miterlimit:4;stroke-dasharray:none;stroke-opacity:1;visibility:visible"/><path d="m299.67 734.489 227.777-48.973M505.105 681.062l-227.574 47.735" style="fill:none;stroke:red;stroke-width:.999997;stroke-linecap:round;stroke-linejoin:round;stroke-miterlimit:4;stroke-dasharray:none;stroke-opacity:1;visibility:visible"/><path d="m415.89 961.75 214.267-74.226M415.237 868.307l217.037-64.599M414.658 778.96l220.383-55.328" style="fill:none;stroke:red;stroke-width:1.6;stroke-linecap:round;stroke-linejoin:round;stroke-miterlimit:4;stroke-dasharray:none;stroke-opacity:1;visibility:visible"/><path d="m340.483 924.184-2.917-160.06M332.31 921.7l9.075 3.263M569.718 709.825l-2.633-.555M567.45 849.372l.43-26.461M568.767 770.156l.433-29.959M569.546 722.37l.172-12.544" style="fill:none;stroke:red;stroke-width:.999997;stroke-linecap:round;stroke-linejoin:round;stroke-miterlimit:4;stroke-dasharray:none;stroke-opacity:1;visibility:visible"/><path d="m504.663 695.252 25.447 5.257" style="fill:none;stroke:red;stroke-width:1.6;stroke-linecap:round;stroke-linejoin:round;stroke-miterlimit:4;stroke-dasharray:none;stroke-opacity:1;visibility:visible"/><path d="m272.166 729.69.415 15.352M400.181 947.343l-123.218-44.185M501.523 681.356v.437M502.077 681.671v-.315M501.097 707.041l.057-11.38M501.232 681.88v-.536M502.326 681.343v.305M495.26 680.111v.15M508.103 680.174v-.063M495.097 680.317v-.255M634.649 782.505l-2.72 105.521M636.558 708.442l-.744 28.877M629.352 707.051l-.04.872M629.123 707.963l.083-1.028M629.123 706.848l-.008 1.115" style="fill:none;stroke:red;stroke-width:.999997;stroke-linecap:round;stroke-linejoin:round;stroke-miterlimit:4;stroke-dasharray:none;stroke-opacity:1;visibility:visible"/><path d="m627.687 765.239-.517 20.203M628.707 725.283l-.47 18.268M626.67 805.398l-1.47 61.55" style="fill:none;stroke:red;stroke-width:1.6;stroke-linecap:round;stroke-linejoin:round;stroke-miterlimit:4;stroke-dasharray:none;stroke-opacity:1;visibility:visible"/><path d="m631.929 888.025-.3 37.325" style="fill:none;stroke:red;stroke-width:.999997;stroke-linecap:round;stroke-linejoin:round;stroke-miterlimit:4;stroke-dasharray:none;stroke-opacity:1;visibility:visible"/><path d="m624.745 889.327.455 33.872M625.612 923.794l6.124 1.85" style="fill:none;stroke:red;stroke-width:1.6;stroke-linecap:round;stroke-linejoin:round;stroke-miterlimit:4;stroke-dasharray:none;stroke-opacity:1;visibility:visible"/><path d="M311.514 739.344c-.904.04-1.655-.504-1.688-1.216l-.156-3.511c-.033-.716.67-1.325 1.57-1.364.903-.043 1.654.505 1.687 1.219l.155 3.508c.033.716-.67 1.325-1.568 1.364" style="fill:none;fill-opacity:1;fill-rule:nonzero;stroke:red;stroke-width:1.33333;visibility:visible"/><path d="M310.873 738.862c.004 0 .004.003.004.006M310.875 738.868a.504.504 0 0 0 .2.112M311.078 738.98a1.37 1.37 0 0 0 .845-.028M311.923 738.95a.557.557 0 0 0 .194-.128M312.266 734.646l.128 3.779M310.44 734.708l.132 3.778M311.965 734.272l.254.265M310.72 734.316l-.238.281M312.223 734.769a.175.175 0 0 0-.002-.232M310.483 734.597a.17.17 0 0 0-.041.112.183.183 0 0 0 .055.123M310.495 734.832a.633.633 0 0 0 .279.15M310.774 734.982a1.82 1.82 0 0 0 1.18-.036M311.954 734.945a.652.652 0 0 0 .266-.177M311.96 734.268a.503.503 0 0 0-.199-.112M311.76 734.157a1.375 1.375 0 0 0-.846.028M310.914 734.182a.533.533 0 0 0-.192.131M312.35 738.542a.163.163 0 0 0 .044-.117M310.571 738.488c0 .044.022.085.054.117M312.358 738.537l-.238.281M310.618 738.6l.252.262" style="fill:none;stroke:red;stroke-width:.666665;stroke-linecap:round;stroke-linejoin:round;stroke-miterlimit:2;stroke-dasharray:none;stroke-opacity:1;visibility:visible"/><path d="M312.115 738.824c0-.006.003-.006.003-.006" style="fill:none;stroke:red;stroke-width:.666665;stroke-linecap:round;stroke-linejoin:round;stroke-miterlimit:2;stroke-dasharray:none;stroke-opacity:1;visibility:visible"/><path d="M360.306 752.054c-.902.028-1.643-.53-1.666-1.244l-.098-3.513c-.02-.715.69-1.313 1.593-1.337.903-.03 1.645.53 1.665 1.245l.096 3.51c.024.718-.689 1.314-1.59 1.341" style="fill:none;fill-opacity:1;fill-rule:nonzero;stroke:red;stroke-width:1.33333;visibility:visible"/><path d="M360.82 747.665a.681.681 0 0 0 .271-.172M360.84 746.99a.48.48 0 0 0-.198-.117M360.642 746.873a1.332 1.332 0 0 0-.427-.06 1.304 1.304 0 0 0-.423.073M359.794 746.886a.533.533 0 0 0-.195.126M361.154 751.268a.176.176 0 0 0 .046-.118M359.38 751.182a.156.156 0 0 0 .05.118M361.163 751.26l-.241.28M359.424 751.294l.25.266M360.918 751.545c0-.005.002-.005.002-.005M359.674 751.56s.004.005.004.01M359.68 751.568a.5.5 0 0 0 .195.114M359.876 751.682a1.287 1.287 0 0 0 .846-.016M360.72 751.668a.505.505 0 0 0 .196-.123M361.136 747.373l.066 3.779M359.312 747.4l.068 3.783M360.842 746.993l.252.267M359.595 747.014l-.241.276M361.092 747.493a.17.17 0 0 0 .044-.12.181.181 0 0 0-.04-.113M359.355 747.289a.17.17 0 0 0-.043.111.187.187 0 0 0 .054.126M359.366 747.526a.645.645 0 0 0 .273.156" style="fill:none;stroke:red;stroke-width:.666665;stroke-linecap:round;stroke-linejoin:round;stroke-miterlimit:2;stroke-dasharray:none;stroke-opacity:1;visibility:visible"/><path d="M359.64 747.682a1.773 1.773 0 0 0 .591.086c.205-.003.401-.036.591-.104" style="fill:none;stroke:red;stroke-width:.666665;stroke-linecap:round;stroke-linejoin:round;stroke-miterlimit:2;stroke-dasharray:none;stroke-opacity:1;visibility:visible"/><path d="M348.903 712.445c-.905.027-1.643-.53-1.667-1.245l-.096-3.512c-.022-.716.691-1.316 1.592-1.339.902-.029 1.643.533 1.664 1.244l.096 3.513c.024.714-.689 1.312-1.589 1.339" style="fill:none;fill-opacity:1;fill-rule:nonzero;stroke:red;stroke-width:1.33333;visibility:visible"/><path d="M348.268 711.95c.006 0 .006 0 .006.006M348.274 711.956a.481.481 0 0 0 .196.114M348.472 712.07c.136.042.28.063.428.063.143 0 .282-.032.42-.076M349.32 712.057a.533.533 0 0 0 .193-.125M349.734 707.761l.064 3.779M347.91 707.792l.066 3.778M349.44 707.381l.25.268M348.191 707.401l-.24.276M349.69 707.878a.16.16 0 0 0 .044-.117.173.173 0 0 0-.044-.112M347.951 707.677a.181.181 0 0 0-.041.115.173.173 0 0 0 .052.122M347.962 707.914a.656.656 0 0 0 .274.159M348.236 708.073c.195.06.392.088.592.085a1.8 1.8 0 0 0 .59-.106M349.418 708.053a.646.646 0 0 0 .27-.175M349.435 707.378a.515.515 0 0 0-.197-.117M349.238 707.261a1.405 1.405 0 0 0-.428-.06 1.24 1.24 0 0 0-.422.076M348.388 707.274a.563.563 0 0 0-.193.126M349.752 711.657a.164.164 0 0 0 .046-.117M347.976 711.57a.155.155 0 0 0 .05.118M349.76 711.652l-.243.276M348.02 711.682l.25.268" style="fill:none;stroke:red;stroke-width:.666665;stroke-linecap:round;stroke-linejoin:round;stroke-miterlimit:2;stroke-dasharray:none;stroke-opacity:1;visibility:visible"/><path d="M349.512 711.933c0-.005.003-.005.003-.005" style="fill:none;stroke:red;stroke-width:.666665;stroke-linecap:round;stroke-linejoin:round;stroke-miterlimit:2;stroke-dasharray:none;stroke-opacity:1;visibility:visible"/><path d="M414.908 727.206c-.902.028-1.646-.528-1.668-1.242l-.097-3.512c-.019-.718.692-1.316 1.595-1.339.901-.03 1.642.53 1.664 1.244l.098 3.51c.022.718-.692 1.316-1.592 1.341" style="fill:none;fill-opacity:1;fill-rule:nonzero;stroke:red;stroke-width:1.33333;visibility:visible"/><path d="m415.738 722.524.066 3.781M413.915 722.553l.065 3.781M415.444 722.144l.251.268M414.198 722.165l-.242.276M415.695 722.644a.173.173 0 0 0 .043-.12.172.172 0 0 0-.042-.112M413.956 722.441a.173.173 0 0 0 .011.237M413.967 722.677a.648.648 0 0 0 .275.159M414.242 722.836c.194.06.392.088.592.084a1.8 1.8 0 0 0 .589-.106M415.423 722.814a.667.667 0 0 0 .27-.172M415.44 722.141a.515.515 0 0 0-.197-.117M415.243 722.024a1.332 1.332 0 0 0-.85.016M414.394 722.04a.516.516 0 0 0-.192.122M415.758 726.42a.17.17 0 0 0 .046-.115M413.98 726.334c0 .044.02.086.052.118M415.766 726.414l-.242.276M414.024 726.445l.251.268M415.519 726.696c0-.006.003-.006.003-.006M414.275 726.714s.004.003.004.006M414.279 726.72a.544.544 0 0 0 .197.114M414.478 726.834a1.273 1.273 0 0 0 .845-.016M415.323 726.818a.463.463 0 0 0 .195-.122" style="fill:none;stroke:red;stroke-width:.666665;stroke-linecap:round;stroke-linejoin:round;stroke-miterlimit:2;stroke-dasharray:none;stroke-opacity:1;visibility:visible"/><path d="M485.559 744.477c-.903.028-1.644-.53-1.666-1.245l-.098-3.512c-.02-.715.692-1.316 1.593-1.34.902-.026 1.643.534 1.664 1.245l.099 3.513c.021.716-.691 1.312-1.592 1.339" style="fill:none;fill-opacity:1;fill-rule:nonzero;stroke:red;stroke-width:1.33333;visibility:visible"/><path d="M484.619 739.945a.643.643 0 0 0 .273.159M484.892 740.105a1.87 1.87 0 0 0 1.183-.019M486.075 740.086a.683.683 0 0 0 .268-.172M486.092 739.412a.484.484 0 0 0-.197-.118M485.893 739.294a1.319 1.319 0 0 0-.848.014M485.045 739.308a.539.539 0 0 0-.193.125M486.408 743.69a.17.17 0 0 0 .047-.117M484.633 743.605a.16.16 0 0 0 .05.117M486.415 743.682l-.239.279M484.679 743.717l.25.265M486.172 743.966l.001-.005M484.927 743.982s.005.003.005.008M484.932 743.99a.493.493 0 0 0 .196.115" style="fill:none;stroke:red;stroke-width:.666665;stroke-linecap:round;stroke-linejoin:round;stroke-miterlimit:2;stroke-dasharray:none;stroke-opacity:1;visibility:visible"/><path d="M485.128 744.105a1.287 1.287 0 0 0 .847-.016M485.975 744.089a.5.5 0 0 0 .194-.123M486.39 739.794l.064 3.779M484.565 739.824l.068 3.78M486.095 739.414l.25.268M484.85 739.436l-.243.276M486.345 739.914a.182.182 0 0 0 .045-.12.173.173 0 0 0-.043-.112M484.608 739.712a.176.176 0 0 0-.043.112.165.165 0 0 0 .055.122" style="fill:none;stroke:red;stroke-width:.666665;stroke-linecap:round;stroke-linejoin:round;stroke-miterlimit:2;stroke-dasharray:none;stroke-opacity:1;visibility:visible"/><path d="M500.79 707.425c-.906.027-1.647-.53-1.67-1.245l-.096-3.512c-.019-.716.692-1.316 1.593-1.339.903-.029 1.644.533 1.664 1.244l.1 3.513c.021.714-.691 1.312-1.593 1.339" style="fill:none;fill-opacity:1;fill-rule:nonzero;stroke:red;stroke-width:1.33333;visibility:visible"/><path d="m501.619 702.74.066 3.778M499.795 702.772l.065 3.781M501.323 702.361l.253.269M500.079 702.381l-.243.276M501.576 702.86a.168.168 0 0 0 .044-.12.179.179 0 0 0-.043-.112M499.836 702.657a.181.181 0 0 0-.041.115.185.185 0 0 0 .052.122M499.847 702.894a.653.653 0 0 0 .276.159M500.123 703.053c.194.06.392.088.592.085.202-.002.4-.038.588-.106M501.303 703.032a.672.672 0 0 0 .27-.172M501.32 702.357a.547.547 0 0 0-.196-.117M501.124 702.241a1.408 1.408 0 0 0-.428-.06 1.232 1.232 0 0 0-.421.076M500.275 702.253a.539.539 0 0 0-.195.125M501.639 706.638a.183.183 0 0 0 .046-.12M499.86 706.553c0 .041.02.085.052.115M501.647 706.63l-.242.276M499.905 706.662l.25.268M501.399 706.912l.001-.006M500.156 706.93s.005.003.005.006M500.161 706.934a.468.468 0 0 0 .196.116M500.359 707.05c.134.042.28.063.426.063.146 0 .283-.032.42-.076M501.205 707.037a.533.533 0 0 0 .195-.125" style="fill:none;stroke:red;stroke-width:.666665;stroke-linecap:round;stroke-linejoin:round;stroke-miterlimit:2;stroke-dasharray:none;stroke-opacity:1;visibility:visible"/><path d="M543.59 688.74c-.906.01-1.635-.566-1.64-1.28l-.028-3.515c-.002-.715.721-1.295 1.622-1.301.903-.01 1.632.568 1.637 1.278l.029 3.512c.006.718-.718 1.3-1.62 1.306" style="fill:none;fill-opacity:1;fill-rule:nonzero;stroke:red;stroke-width:1.33333;visibility:visible"/><path d="m544.516 684.073-.013 3.781M542.692 684.068l-.013 3.781M544.23 683.69l.245.271M542.984 683.685l-.25.27M544.47 684.193a.173.173 0 0 0 .045-.12.183.183 0 0 0-.039-.112M542.735 683.956a.176.176 0 0 0-.042.112.165.165 0 0 0 .05.125M542.743 684.193a.619.619 0 0 0 .269.161M543.012 684.354c.195.068.392.1.59.1a1.72 1.72 0 0 0 .592-.094M544.193 684.361a.684.684 0 0 0 .275-.167M544.227 683.685a.512.512 0 0 0-.195-.12M544.032 683.565a1.373 1.373 0 0 0-.85-.005M543.183 683.561a.493.493 0 0 0-.195.123M544.455 687.972a.179.179 0 0 0 .048-.118M542.68 687.85a.164.164 0 0 0 .05.115M544.464 687.964l-.25.273M542.721 687.961l.247.27M544.212 688.242c0-.005.003-.005.003-.005M542.968 688.232s.005.002.005.008M542.972 688.241a.527.527 0 0 0 .195.12M543.167 688.361c.133.044.278.069.425.07a1.284 1.284 0 0 0 .42-.066M544.012 688.362a.555.555 0 0 0 .199-.12" style="fill:none;stroke:red;stroke-width:.666665;stroke-linecap:round;stroke-linejoin:round;stroke-miterlimit:2;stroke-dasharray:none;stroke-opacity:1;visibility:visible"/><path d="M592.353 698.196c-.903.004-1.633-.568-1.64-1.282l-.026-3.516c-.004-.716.72-1.296 1.622-1.3.902-.013 1.631.566 1.638 1.277l.026 3.514c.007.716-.718 1.299-1.62 1.307" style="fill:none;fill-opacity:1;fill-rule:nonzero;stroke:red;stroke-width:1.33333;visibility:visible"/><path d="M591.947 693.016a.525.525 0 0 0-.197.12M593.22 697.425a.183.183 0 0 0 .047-.117M591.443 697.302a.17.17 0 0 0 .049.118M593.228 697.417l-.248.273M591.485 697.414l.247.274M592.977 697.696c0-.006.003-.006.003-.006M591.732 697.688s.005 0 .005.005M591.737 697.694a.476.476 0 0 0 .195.12M591.932 697.813a1.324 1.324 0 0 0 .845.004M592.776 697.814a.573.573 0 0 0 .2-.12M592.959 693.813a.693.693 0 0 0 .271-.167M592.99 693.141a.461.461 0 0 0-.196-.123" style="fill:none;stroke:red;stroke-width:.666665;stroke-linecap:round;stroke-linejoin:round;stroke-miterlimit:2;stroke-dasharray:none;stroke-opacity:1;visibility:visible"/><path d="M592.796 693.018a1.333 1.333 0 0 0-.85-.002M593.28 693.526l-.013 3.782M591.456 693.521l-.013 3.781M592.992 693.144l.245.273M591.745 693.138l-.25.272M593.233 693.646a.179.179 0 0 0 .047-.12.16.16 0 0 0-.043-.109M591.499 693.41a.17.17 0 0 0 .008.233M591.507 693.644a.613.613 0 0 0 .269.164M591.776 693.808c.193.068.39.098.59.098.206.004.403-.028.594-.093" style="fill:none;stroke:red;stroke-width:.666665;stroke-linecap:round;stroke-linejoin:round;stroke-miterlimit:2;stroke-dasharray:none;stroke-opacity:1;visibility:visible"/><path d="M571.353 723.665c-.902.008-1.633-.568-1.638-1.279l-.028-3.516c-.004-.716.72-1.298 1.62-1.304.905-.01 1.633.568 1.639 1.282l.027 3.512c.007.717-.718 1.297-1.62 1.305" style="fill:none;fill-opacity:1;fill-rule:nonzero;stroke:red;stroke-width:1.33333;visibility:visible"/><path d="M570.505 719.114a.673.673 0 0 0 .27.164M570.776 719.278a1.888 1.888 0 0 0 1.183.006M571.959 719.284a.684.684 0 0 0 .271-.167M571.99 718.61a.47.47 0 0 0-.196-.122M571.796 718.488a1.36 1.36 0 0 0-.848-.003M570.948 718.485a.48.48 0 0 0-.196.123M572.219 722.894a.173.173 0 0 0 .048-.117M570.443 722.772a.17.17 0 0 0 .049.117M572.227 722.889l-.247.27M570.487 722.884l.245.273M571.976 723.165c0-.005.003-.005.007-.005M570.732 723.157s.004.003.004.008M570.736 723.165a.508.508 0 0 0 .194.117M570.93 723.281c.135.044.28.068.428.07a1.284 1.284 0 0 0 .419-.066M571.776 723.284a.497.497 0 0 0 .199-.12M572.279 718.998l-.012 3.779M570.456 718.99l-.013 3.782M571.992 718.612l.245.273M570.745 718.61l-.245.268M572.233 719.117a.177.177 0 0 0 .047-.12.165.165 0 0 0-.043-.112" style="fill:none;stroke:red;stroke-width:.666665;stroke-linecap:round;stroke-linejoin:round;stroke-miterlimit:2;stroke-dasharray:none;stroke-opacity:1;visibility:visible"/><path d="M570.5 718.878a.172.172 0 0 0-.044.112c0 .047.016.088.05.126" style="fill:none;stroke:red;stroke-width:.666665;stroke-linecap:round;stroke-linejoin:round;stroke-miterlimit:2;stroke-dasharray:none;stroke-opacity:1;visibility:visible"/><path d="M434.795 693.896c-.905.026-1.648-.53-1.667-1.246l-.1-3.512c-.018-.716.694-1.316 1.594-1.338.902-.027 1.644.533 1.665 1.244l.099 3.513c.02.713-.692 1.313-1.591 1.339" style="fill:none;fill-opacity:1;fill-rule:nonzero;stroke:red;stroke-width:1.33333;visibility:visible"/><path d="m435.623 689.212.065 3.778M433.799 689.242l.068 3.78M435.328 688.832l.252.268M434.084 688.852l-.242.276M435.58 689.332a.176.176 0 0 0 .043-.12.179.179 0 0 0-.041-.112M433.842 689.128a.183.183 0 0 0-.043.114.175.175 0 0 0 .053.123M433.852 689.365a.667.667 0 0 0 .274.159M434.126 689.524a1.92 1.92 0 0 0 1.182-.019M435.308 689.505a.703.703 0 0 0 .27-.175M435.323 688.828a.53.53 0 0 0-.195-.118M435.128 688.712a1.327 1.327 0 0 0-.426-.06 1.24 1.24 0 0 0-.423.076M434.279 688.726a.532.532 0 0 0-.193.124M435.642 693.108a.16.16 0 0 0 .046-.118M433.866 693.021a.17.17 0 0 0 .049.12M435.65 693.102l-.24.276M433.91 693.134l.25.268M435.404 693.384c0-.006.003-.006.003-.006M434.159 693.401s.005.003.005.005M434.164 693.406a.459.459 0 0 0 .199.115M434.364 693.521c.136.041.279.063.427.063.143 0 .281-.032.419-.076M435.21 693.508a.544.544 0 0 0 .194-.126" style="fill:none;stroke:red;stroke-width:.666665;stroke-linecap:round;stroke-linejoin:round;stroke-miterlimit:2;stroke-dasharray:none;stroke-opacity:1;visibility:visible"/><path d="M634.393 925.208c0 .995-1.308 1.803-2.925 1.803-1.618 0-2.928-.808-2.928-1.803M411.498 1007.812c0 .992-1.31 1.8-2.928 1.8-1.618 0-2.927-.808-2.927-1.8" style="fill:none;stroke:red;stroke-width:.666665;stroke-linecap:round;stroke-linejoin:round;stroke-miterlimit:4;stroke-dasharray:none;stroke-opacity:1;visibility:visible"/><path d="m569.718 709.825-2.633-1.575M604.336 700.365l-4.575 14.653M405.668 764.277l-6.938 14.902M635.485 723.044l7.11 7.411M627.17 785.442l14.282-12.243" style="fill:none;stroke:red;stroke-width:1.6;stroke-linecap:round;stroke-linejoin:round;stroke-miterlimit:4;stroke-dasharray:none;stroke-opacity:1;visibility:visible"/><path d="m277.34 917.116 3.198 1.414M434.795 693.896l15.849 3.37M279.332 728.078l-1.609-.706M501.232 681.344l-1.76.885" style="fill:none;stroke:red;stroke-width:.999997;stroke-linecap:round;stroke-linejoin:round;stroke-miterlimit:4;stroke-dasharray:none;stroke-opacity:1;visibility:visible"/><path d="m406.103 760.338 3.367.575M631.257 706.301l.074 1.128" style="fill:none;stroke:red;stroke-width:1.6;stroke-linecap:round;stroke-linejoin:round;stroke-miterlimit:4;stroke-dasharray:none;stroke-opacity:1;visibility:visible"/><path d="m626.476 785.242.769-1.547M624.487 866.744l.713-1.742M570.443 722.772l-3.579.188M566.864 722.96l-.3 17.894M570.736 723.165l.15 16.592M543.59 688.74l-12.593-3.3M591.776 693.808l12.56 6.557M592.777 697.817l11.309 2.303M527.582 685.82l3.505 8.832M527.582 689.752l3.505 4.9M593.267 697.308l11.123 12.309M592.977 697.696l11.413 11.921M361.06 751.15l12.88 3.204M310.873 738.862l-10.426-3.489M501.685 706.518l3.623-.448M499.86 706.553l-4.83-9.569M499.86 706.553l-4.9 1.803" style="fill:none;stroke:red;stroke-width:.999997;stroke-linecap:round;stroke-linejoin:round;stroke-miterlimit:4;stroke-dasharray:none;stroke-opacity:1;visibility:visible"/><path d="m280.626 923.642 3.868-3.687M414.366 762.468l.292 16.492" style="fill:none;stroke:red;stroke-width:1.6;stroke-linecap:round;stroke-linejoin:round;stroke-miterlimit:4;stroke-dasharray:none;stroke-opacity:1;visibility:visible"/><path d="m570.736 723.165-1.536 17.032M501.685 706.518l-.53-10.857M627.17 785.442l7.479-2.937M628.707 725.283l7.107 12.036" style="fill:none;stroke:red;stroke-width:.999997;stroke-linecap:round;stroke-linejoin:round;stroke-miterlimit:4;stroke-dasharray:none;stroke-opacity:1;visibility:visible"/><path d="m635.428 723.286-6.721 1.997M632.703 803.127l-6.033 2.271M630.59 886.94l-5.845 2.387" style="fill:none;stroke:red;stroke-width:1.6;stroke-linecap:round;stroke-linejoin:round;stroke-miterlimit:4;stroke-dasharray:none;stroke-opacity:1;visibility:visible"/><path d="m631.629 925.35 2.764-.142M631.629 925.35l-3.089-.142M407.963 1007.892l3.535-.08M407.963 1007.892l-2.32-.08" style="fill:none;stroke:red;stroke-width:.666665;stroke-linecap:round;stroke-linejoin:round;stroke-miterlimit:4;stroke-dasharray:none;stroke-opacity:1;visibility:visible"/><path d="m651.358 610.316-68.383-10.367M563.99 597.068l-12.014-1.817M543.948 594.032l-40.605-6.156M651.897 616.677l.11-5.536M652.006 611.141c.084-.393-.29-.776-.646-.825M503.123 587.876l-208.578 33.09M413.524 662.698l237.682-45.22M291.878 640.699l92.198 18.575" style="fill:none;stroke:#00ff4a;stroke-width:1.6;stroke-linecap:round;stroke-linejoin:round;stroke-miterlimit:10;stroke-dasharray:none;stroke-opacity:1;visibility:visible" visibility="hidden"/><path d="m414.962 654.248 236.292-43.932M291.151 632.896l107.861 21.234" style="fill:none;stroke:#00ff4a;stroke-width:.999997;stroke-linecap:round;stroke-linejoin:round;stroke-miterlimit:10;stroke-dasharray:.945331,.189333,.189333,.189333,.189333,.189333;stroke-dashoffset:0;stroke-opacity:1;visibility:visible" visibility="hidden"/><path d="m563.99 597.068 18.985 2.881M582.975 599.949l-18.985-2.881M543.948 594.032l8.028 1.219M551.976 595.251l-8.028-1.219" style="fill:none;stroke:#00ff4a;stroke-width:1.6;stroke-linecap:round;stroke-linejoin:round;stroke-miterlimit:10;stroke-dasharray:none;stroke-opacity:1;visibility:visible" visibility="hidden"/><path d="m530.997 685.44-.887 15.07" style="fill:none;stroke:red;stroke-width:1.6;stroke-linecap:round;stroke-linejoin:round;stroke-miterlimit:4;stroke-dasharray:none;stroke-opacity:1;visibility:visible"/></svg>