<svg xmlns="http://www.w3.org/2000/svg" baseProfile="full" height="1122.52" preserveAspectRatio="xMinYMin meet" style="width:904px;height:1119px" width="793.701" xml:space="preserve"><path d="m214.638 624.639 366.045-73.167" style="fill:none;stroke:red;stroke-width:.999997;stroke-linecap:round;stroke-linejoin:round;stroke-miterlimit:4;stroke-dasharray:none;stroke-opacity:1;visibility:visible" visibility="hidden"/><path d="m409.334 595.895.022.197.032.199.066.181.076.155.108.143.117.117.13.093.155.057.155.023.156.007.152-.034.16-.066.16-.095.14-.116.128-.147.123-.157.1-.187.069-.19.06-.211.03-.201.008-.214-.009-.199-.032-.195-.068-.185-.081-.162-.101-.148-.115-.113-.135-.087-.148-.064-.154-.027-.159.006-.167.025-.156.067-.149.097-.14.115-.143.144-.108.169-.098.18-.088.197-.047.203-.037.21-.012.212M548.839 567.4l.001.195.036.182.047.166.07.157.088.133.109.115.122.087.123.055.141.037.137-.008.142-.024.148-.058.133-.089.133-.107.123-.14.099-.15.089-.174.08-.187.047-.194.028-.19.02-.208-.012-.182-.028-.185-.05-.174-.077-.156-.083-.138-.109-.115-.119-.085-.125-.054-.136-.036-.14.007-.147.03-.141.052-.144.086-.132.112-.108.14-.112.149-.09.171-.072.19-.05.194-.036.197-.005.199M252.715 627.881l.015.21.05.208.07.185.103.173.122.144.132.124.155.098.164.054.17.038.179-.015.185-.032.174-.07.176-.094.159-.134.146-.157.13-.173.11-.196.079-.204.064-.215.033-.218.002-.224-.019-.22-.047-.199-.07-.192-.091-.172-.12-.145-.139-.127-.153-.088-.17-.063-.174-.027-.181.005-.171.03-.184.072-.164.096-.17.134-.14.156-.126.17-.111.195-.083.21-.065.217-.029.217-.01.23M285.395 621.199l.019.234.033.219.073.203.102.184.112.165.133.135.159.116.164.077.177.052.183.019.189-.011.184-.052.188-.075.175-.105.172-.141.145-.155.144-.187.113-.205.087-.217.076-.228.052-.227.011-.227.003-.232-.039-.231-.05-.199-.087-.208-.103-.176-.123-.152-.147-.125-.155-.097-.18-.066-.175-.037-.184.003-.196.034-.181.06-.186.099-.17.111-.157.154-.151.177-.118.18-.114.219-.086.217-.057.23-.035.236v.229M522.019 572.87l.014.21.04.204.04.181.084.175.09.15.108.133.128.109.133.073.147.047.147.024.157-.013.152-.039.16-.065.149-.1.136-.116.135-.153.12-.157.101-.19.083-.193.062-.21.047-.21.016-.217-.001-.202-.015-.206-.044-.195-.07-.18-.078-.168-.101-.137-.115-.117-.13-.095-.141-.063-.143-.037-.159-.003-.159.026-.152.056-.148.078-.155.105-.133.135-.121.162-.111.172-.09.192-.07.2-.063.212-.028.212-.021.21" style="fill:none;stroke:red;stroke-width:.666665;stroke-linecap:round;stroke-linejoin:round;stroke-miterlimit:4;stroke-dasharray:none;stroke-opacity:1;visibility:visible" visibility="hidden"/><path d="m210.229 622.708 3.971 1.067" style="fill:none;stroke:red;stroke-width:.999997;stroke-linecap:round;stroke-linejoin:round;stroke-miterlimit:4;stroke-dasharray:none;stroke-opacity:1;visibility:visible" visibility="hidden"/><path d="m211.698 634.848.016.232.039.22.04.23.082.21.085.203.1.194.107.164.12.142.124.11.134.09.133.047.132.022.128-.01.123-.05.109-.072.1-.11.09-.13.077-.16.058-.176.031-.199.024-.218.005-.214-.018-.233-.037-.228-.055-.233-.067-.211-.09-.203-.098-.193-.112-.16-.12-.147-.128-.112-.127-.077-.137-.053-.125-.027-.131.016-.12.047-.117.073-.103.104-.09.137-.065.154-.062.189-.039.197-.024.207.008.228M216.431 772.878l.02.23.034.222.048.228.07.216.084.208.103.19.112.18.11.146.121.13.137.1.128.067.14.037.117.01.123-.025.117-.065.095-.087.083-.117.08-.138.052-.17.035-.18.027-.206v-.221l-.017-.215-.037-.226-.047-.226-.07-.218-.088-.206-.099-.198-.112-.167-.11-.16-.133-.119-.128-.101-.133-.077-.13-.038-.12.002-.122.024-.116.056-.092.086-.087.116-.083.15-.043.161-.04.188-.027.2-.002.213M220.853 901.743l.024.207.025.22.06.23.068.218.08.211.104.204.1.172.123.164.12.145.13.115.126.08.127.065.12.013.126-.012.112-.032.095-.076.092-.101.064-.128.06-.152.041-.173.021-.196v-.204l-.013-.22-.044-.224-.048-.22-.07-.222-.074-.213-.102-.195-.113-.182-.112-.167-.125-.144-.125-.108-.13-.088-.125-.049-.133-.025-.122.009-.105.045-.107.065-.076.108-.08.13-.049.152-.038.173-.02.197-.008.208" style="fill:none;stroke:red;stroke-width:.666665;stroke-linecap:round;stroke-linejoin:round;stroke-miterlimit:4;stroke-dasharray:none;stroke-opacity:1;visibility:visible" visibility="hidden"/><path d="m673.59 814.393-88.989-27.879M578.11 786.598l95.44 30.057M578.113 785.022l5.468 1.719M582.53 786.08l-.096-.081-.104-.087-.095-.102-.096-.11-.074-.112M583.35 786.622l.099.06.098.044.1.035.086.003.076-.01M583.352 786.622l-.822-.541M584.079 573.941l-2.014 211.647M584.6 786.514l2.1-213.638M584.6 786.514l-.792.239M584.601 786.514l2.099-213.638" style="fill:none;stroke:red;stroke-width:.999997;stroke-linecap:round;stroke-linejoin:round;stroke-miterlimit:4;stroke-dasharray:none;stroke-opacity:1;visibility:visible" visibility="hidden"/><path d="m644.446 825.1.007.187.024.179.064.175.072.178.097.166.12.148.13.133.138.104.148.085.149.063.155.019h.144l.138-.027.118-.067.118-.08.086-.113.076-.132.06-.147.023-.173-.005-.177-.019-.188-.037-.173-.072-.187-.09-.167-.105-.156-.125-.148-.136-.115-.139-.092-.157-.074-.155-.039-.137-.022-.148.027-.122.043-.12.07-.108.098-.076.13-.06.139-.05.162-.006.173" style="fill:none;stroke:red;stroke-width:.666665;stroke-linecap:round;stroke-linejoin:round;stroke-miterlimit:4;stroke-dasharray:none;stroke-opacity:1;visibility:visible" visibility="hidden"/><path d="m491.853 482.027-7.743 1.281M491.173 526.175l.18 9.515M491.173 526.175l-2.47.45M491.352 535.69l1.573-.288.005.241M487.428 537.243l-.004.06.021.056.011.064.012.047.035.063.024.075M487.455 556.457l.014-.04.004-.05.02-.039.007-.05.025-.052.038-.049M487.883 536.425l.07-.055.072-.049.078-.021M516.895 561.615l-29.07-4.648M580.24 551.055l98.497 14.298M487.528 537.61l86.75 12.58M489.157 536.108l-1.054.19M488.895 536.07l.261.04M629.224 812.949l.002.305.026.296.046.303.064.306.084.304.094.298.12.301.136.285.152.284.164.269.184.253.184.247.202.238.216.21.22.192.236.179.236.162.238.134.252.111.242.094.252.065.25.05.241.021h.243l.232-.034.233-.047.22-.073.204-.102.207-.117.19-.136.164-.166.16-.181.143-.198.125-.217.115-.238.087-.256.07-.253.062-.277.025-.281.015-.295.002-.302-.03-.305-.044-.307-.068-.298-.075-.304-.103-.304-.117-.299-.137-.295-.15-.276-.165-.268-.179-.265-.19-.242-.212-.227-.216-.223-.22-.193-.238-.178-.233-.154-.25-.13-.245-.112-.25-.092-.247-.068-.241-.046-.254-.023-.237.01-.233.023-.226.056-.217.075-.21.102-.199.117-.18.145-.177.163-.155.18-.144.198-.13.222-.107.233-.085.247-.072.265-.05.273-.034.282-.018.284M679.096 565.608h0M488.895 536.153v-.043M491.099 535.707l.253-.017M493.112 535.204h0M493.108 535.324l-.013.019-.042.021-.05.019-.079.017M475.599 481.322l.084-.008.07-.008M491.179 480.815l-.083-.001-.084-.004M483.465 480.032v.012M473.89 535.767l.01.021.03.01.05.024.072.01M492.039 481.6h0M492 481.708l.033.022v-.008M492.035 481.722l.004-.122M482.984 537.101l-.083-53.47M493.112 535.204l.004.463M493.103 535.667l.006-.342M493.112 535.204l-.005.121M475.27 481.514l.045-.07.035-.058M474.739 482.283h0l.025-.008M483.033 557.988l-.049-20.887M488.705 526.625l.006.151.005.164M490.917 526.53l.123-.18.133-.174M489.44 535.46l-.553.104M489.441 535.459l-.001.11M488.716 526.939l.18 9.171v.045M482.452 483.362l-7.545-.786M482.357 480.948l-.137.028-.113.028-.087.027-.067.029-.028.02v.029l.018.031.05.024.069.018.106.024.125.012.157.014.16.014.184.004.189.004.194.005.21-.005.198-.02.196-.002.199-.016.18-.03.155-.016.145-.03.131-.024.105-.017.074-.029.042-.03.021-.029-.009-.031-.044-.02-.059-.02-.093-.025-.117-.023-.128-.01-.159-.015-.179-.003-.188-.012-.187.004-.206.004-.199.007-.195.008-.199.017-.191.015-.168.016-.155.025M142.374 624.628l-7.193-2.076M210.289 677.012l.094.072.091.046.096.024.081-.017.083-.039.073-.062.064-.099.039-.107.035-.138.01-.15-.002-.154-.02-.159-.04-.161M210.893 676.068l-.053-.154-.07-.144-.08-.116-.092-.09-.091-.07-.096-.037-.09-.015-.092.028-.083.054-.063.086-.057.11M211.078 677.486l.115-.033.09-.068.087-.095.065-.128.06-.148.039-.168.018-.18.003-.193-.008-.197-.037-.203-.05-.19M211.46 675.882l-.06-.194-.077-.17-.103-.164-.098-.136-.101-.117-.118-.083-.126-.054-.11-.027-.117.016M211.229 703.773l.096.077.088.044.09.016.087-.01.084-.034.06-.068.06-.097.047-.11.026-.13.018-.148-.012-.152-.019-.164-.033-.152M211.822 702.845l-.062-.152-.063-.143-.082-.12-.094-.1-.095-.074-.085-.036-.102-.014-.089.03-.076.054-.07.087-.048.11M212.02 704.241l.103-.03.091-.07.086-.095.067-.133.053-.136.035-.167.025-.178v-.186l-.01-.2-.031-.19-.049-.194M212.393 702.664l-.07-.195-.08-.183-.101-.154-.102-.147-.115-.115-.11-.09-.118-.054-.119-.028-.11.016M216.92 865.685l.088.055.087.037.095.009.072-.019.075-.056.061-.068.04-.1.035-.122.007-.146-.002-.142-.023-.156-.032-.159M217.425 864.817l-.05-.144-.062-.151-.078-.121-.08-.108-.09-.084-.094-.059-.09-.036-.083.003-.078.023-.069.049-.051.08-.047.1M217.69 866.094l.101-.047.087-.076.063-.098.058-.131.043-.15.03-.176-.004-.175-.007-.196-.027-.196-.05-.199M217.983 864.651l-.072-.193-.07-.18-.091-.17-.092-.141-.115-.129-.106-.101-.115-.08-.11-.047-.108-.02-.101.015M703.372 503.192l-.034.122-.048.12-.07.133M682.793 504.124l-.083-.114-.06-.127-.051-.124M678.833 565.527l.01.022.032.011.035.012.056.012.052.013.076.011M678.726 565.361h.014v.012M683.793 502.655l-.137.007-.118.02M691.94 501.104l.013.012.009.01M702.34 502.159l-.105-.012-.097.008M682.598 503.759l.068-.081.055-.082M682.54 503.766l.014.012.044-.02M682.434 503.622l-.004.01.018.012M683.216 502.878l.046-.072.035-.06M682.54 503.766l-.092-.122M678.833 565.527h0M678.738 565.372h0M693.385 504.69l-10.667-1.093M682.721 503.596l.493-.718M678.833 565.527l-.093-.155M703.242 503.022l-8.61 1.637M691.073 567.3l2.472-62.39M684.968 844.343l6.105-277.042M694.034 502.202l-.197-.027-.219-.007-.237-.016-.243.008-.242-.006-.25.006-.23.015-.227.015-.221.014-.195.024-.176.03-.145.026-.12.039-.087.03-.057.039-.02.031.005.029.056.044.076.03.12.024.137.034.168.016.195.026.21.013.228.016.242.007.237-.007.255-.003.237-.005.232-.017.23-.015.209-.027.188-.028.15-.025.133-.03.111-.025.064-.042.049-.028v-.043l-.032-.03-.063-.032-.101-.034-.128-.023-.156-.034-.186-.012" style="fill:none;stroke:red;stroke-width:.999997;stroke-linecap:round;stroke-linejoin:round;stroke-miterlimit:4;stroke-dasharray:none;stroke-opacity:1;visibility:visible" visibility="hidden"/><path d="m135.885 625.897 6.49-1.267" style="fill:none;stroke:red;stroke-width:1.99999;stroke-linecap:round;stroke-linejoin:round;stroke-miterlimit:4;stroke-dasharray:none;stroke-opacity:1;visibility:visible" visibility="hidden"/><path d="m211.07 647.021-4.06-1.181M207.01 645.84l-1.675.35M135.885 625.897l69.45 20.293" style="fill:none;stroke:red;stroke-width:.999997;stroke-linecap:round;stroke-linejoin:round;stroke-miterlimit:4;stroke-dasharray:none;stroke-opacity:1;visibility:visible" visibility="hidden"/><path d="m370.75 580.26.117-.027.09-.026.073-.027.048-.03.008-.04-.023-.032-.037-.018-.07-.035-.102-.021-.11-.015-.133-.013-.155-.007-.154-.004-.162.002-.164.009-.153.016-.148.012-.13.028-.117.028-.094.027-.07.023-.043.027-.009.033.015.031.041.031.065.033.107.023.112.015.132.013.15.007.156.005.166-.005.162-.007.156-.016.14-.013.136-.027M276.406 598.673l.123-.023.101-.035.081-.026.055-.039.02-.03-.012-.041-.024-.03-.068-.028-.09-.028-.104-.023-.134-.013-.15-.009-.161-.007-.161.007-.172.004-.163.017-.164.022-.123.017-.135.035-.102.029-.073.033-.05.03-.024.037v.03l.038.032.07.031.09.023.105.024.134.017.147.012.159.007.164-.003.17-.014.157-.016.156-.012.14-.03" style="fill:none;stroke:red;stroke-width:.666665;stroke-linecap:round;stroke-linejoin:round;stroke-miterlimit:4;stroke-dasharray:none;stroke-opacity:1;visibility:visible" visibility="hidden"/><path d="m135.341 629.243-.099-2.428" style="fill:none;stroke:red;stroke-width:1.99999;stroke-linecap:round;stroke-linejoin:round;stroke-miterlimit:4;stroke-dasharray:none;stroke-opacity:1;visibility:visible" visibility="hidden"/><path d="m204.853 653.039-.203-5.862" style="fill:none;stroke:red;stroke-width:.999997;stroke-linecap:round;stroke-linejoin:round;stroke-miterlimit:4;stroke-dasharray:none;stroke-opacity:1;visibility:visible" visibility="hidden"/><path d="m135.885 625.897-.643.918" style="fill:none;stroke:red;stroke-width:1.99999;stroke-linecap:round;stroke-linejoin:round;stroke-miterlimit:4;stroke-dasharray:none;stroke-opacity:1;visibility:visible" visibility="hidden"/><path d="m147.724 750.54-7.124-2.975M204.65 647.179l.687-.99M207.273 653.379l-.263-7.539M204.853 653.039l.745.688" style="fill:none;stroke:red;stroke-width:.999997;stroke-linecap:round;stroke-linejoin:round;stroke-miterlimit:4;stroke-dasharray:none;stroke-opacity:1;visibility:visible" visibility="hidden"/><path d="m141.336 752.072 6.388-1.53" style="fill:none;stroke:red;stroke-width:1.99999;stroke-linecap:round;stroke-linejoin:round;stroke-miterlimit:4;stroke-dasharray:none;stroke-opacity:1;visibility:visible" visibility="hidden"/><path d="m215.74 782.414-4.018-1.693M211.723 780.72l-1.65.43M141.336 752.072l68.737 29.077" style="fill:none;stroke:red;stroke-width:.999997;stroke-linecap:round;stroke-linejoin:round;stroke-miterlimit:4;stroke-dasharray:none;stroke-opacity:1;visibility:visible" visibility="hidden"/><path d="m140.75 754.038-.04-1.048" style="fill:none;stroke:red;stroke-width:1.99999;stroke-linecap:round;stroke-linejoin:round;stroke-miterlimit:4;stroke-dasharray:none;stroke-opacity:1;visibility:visible" visibility="hidden"/><path d="m141 752.564-.066.04-.052.066-.041.078M141.336 752.08l-.044.009-.032.007M209.406 782.134l.667-.986M211.975 788.02l-.25-7.3M209.6 787.822l.725.621M141.336 752.072l-.63.92M209.6 787.822l-.196-5.69" style="fill:none;stroke:red;stroke-width:.999997;stroke-linecap:round;stroke-linejoin:round;stroke-miterlimit:4;stroke-dasharray:none;stroke-opacity:1;visibility:visible" visibility="hidden"/><path d="m215.737 782.414-2.704-78.402M220.242 913.055l-1.63-47.229M210.229 622.708l365.341-72.77" style="fill:none;stroke:red;stroke-width:1.99999;stroke-linecap:round;stroke-linejoin:round;stroke-miterlimit:4;stroke-dasharray:none;stroke-opacity:1;visibility:visible" visibility="hidden"/><path d="m215.989 789.74-.25-7.327" style="fill:none;stroke:red;stroke-width:.999997;stroke-linecap:round;stroke-linejoin:round;stroke-miterlimit:4;stroke-dasharray:none;stroke-opacity:1;visibility:visible" visibility="hidden"/><path d="m211.04 646.232-.81-23.525M212.945 701.372l-.828-24.11M218.523 863.171l-2.532-73.431" style="fill:none;stroke:red;stroke-width:1.99999;stroke-linecap:round;stroke-linejoin:round;stroke-miterlimit:4;stroke-dasharray:none;stroke-opacity:1;visibility:visible" visibility="hidden"/><path d="m211.357 655.372-.314-9.139" style="fill:none;stroke:red;stroke-width:.999997;stroke-linecap:round;stroke-linejoin:round;stroke-miterlimit:4;stroke-dasharray:none;stroke-opacity:1;visibility:visible" visibility="hidden"/><path d="m224.11 915.164-3.868-2.109M224.111 915.165l353.809-108.65M212.02 674.628l-.662-19.255" style="fill:none;stroke:red;stroke-width:1.99999;stroke-linecap:round;stroke-linejoin:round;stroke-miterlimit:4;stroke-dasharray:none;stroke-opacity:1;visibility:visible" visibility="hidden"/><path d="m575.57 549.935 4.677.672M580.247 550.608l-2.327 255.906" style="fill:none;stroke:red;stroke-width:.999997;stroke-linecap:round;stroke-linejoin:round;stroke-miterlimit:4;stroke-dasharray:none;stroke-opacity:1;visibility:visible" visibility="hidden"/><path d="m673.112 837.847-95.192-31.333M215.195 703.521l.105-.047.091-.068.086-.096.065-.125.063-.15.038-.166.011-.181.003-.194-.014-.2-.036-.204-.047-.19-.07-.185-.076-.177-.104-.156-.1-.136-.104-.114-.116-.078-.117-.052-.118-.026-.112.017M214.262 676.788l.115-.038.092-.065.085-.108.067-.112.058-.15.042-.165.018-.184.011-.198-.016-.199-.041-.203-.046-.192-.06-.192-.077-.177-.104-.153-.101-.134-.103-.113-.115-.087-.114-.056-.12-.016-.11.008M220.802 865.198l.099-.045.089-.076.063-.102.057-.129.044-.14.026-.172v-.175l-.013-.199-.026-.199-.051-.187-.056-.2-.084-.18-.08-.17-.1-.154-.107-.128-.113-.101-.117-.081-.11-.046-.113-.021-.103.016" style="fill:none;stroke:red;stroke-width:1.99999;stroke-linecap:round;stroke-linejoin:round;stroke-miterlimit:4;stroke-dasharray:none;stroke-opacity:1;visibility:visible" visibility="hidden"/><path d="m488.03 557.081-.075-.02-.067-.034-.061-.059M487.79 536.535l.041-.059.049-.05M487.444 537.13l.01-.068.036-.061.041-.073M487.532 536.93l.256-.396M487.825 556.967l-.26-.292M487.563 556.676l-.04-.055-.034-.05-.016-.042M489.304 535.564h.513M492.145 535.543l-1.048.204-1.28-.183M488.892 535.647l.412-.083" style="fill:none;stroke:red;stroke-width:.999997;stroke-linecap:round;stroke-linejoin:round;stroke-miterlimit:4;stroke-dasharray:none;stroke-opacity:1;visibility:visible" visibility="hidden"/><path d="M492.145 535.543h.055l.044.002" style="fill:none;stroke:red;stroke-width:1.99999;stroke-linecap:round;stroke-linejoin:round;stroke-miterlimit:4;stroke-dasharray:none;stroke-opacity:1;visibility:visible" visibility="hidden"/><path d="m487.444 537.13-.016.024v.029l-.003.017v.043M487.473 556.53l-.009-.01v-.01l.001-.01v-.011l-.012-.019v-.011" style="fill:none;stroke:red;stroke-width:.999997;stroke-linecap:round;stroke-linejoin:round;stroke-miterlimit:4;stroke-dasharray:none;stroke-opacity:1;visibility:visible" visibility="hidden"/><path d="m580.045 571.808 98.233 15.725M492.245 535.545l186.679 26.686" style="fill:none;stroke:red;stroke-width:1.99999;stroke-linecap:round;stroke-linejoin:round;stroke-miterlimit:4;stroke-dasharray:none;stroke-opacity:1;visibility:visible" visibility="hidden"/><path d="m487.455 556.457-.028-19.214" style="fill:none;stroke:red;stroke-width:.999997;stroke-linecap:round;stroke-linejoin:round;stroke-miterlimit:4;stroke-dasharray:none;stroke-opacity:1;visibility:visible" visibility="hidden"/><path d="m474.536 556.761-339.354 65.792M211.33 654.588l-4.057-1.208-1.675.347-69.408-20.788M210.289 677.012l.276.272M210.026 675.72l.139-.363M213.745 674.252l-3.195.7M214.262 676.788l-3.185.698M210.026 675.72l-.036.128-.019.146.003.163.008.159.041.161.05.156.062.139.075.137.077.103M210.565 677.284l.101.094.105.067.107.033.102.027.1-.019M210.549 674.953l-.09.028-.086.063-.082.076-.068.108-.057.128M211.229 703.773l.284.277M210.955 702.486l.13-.376M214.643 700.994l-3.173.722M215.195 703.521l-3.174.72M210.955 702.486l-.037.127-.017.15v.152l.019.169.03.161.051.157.071.143.075.125.083.102M211.513 704.05l.096.083.101.064.108.05.104.013.099-.016M211.469 701.714l-.09.036-.097.055-.071.077-.065.106-.063.121M216.92 865.685l.3.253M216.551 864.37l.123-.384M220.109 862.709l-3.107.896M220.802 865.198l-3.112.896M216.551 864.37l-.028.121-.008.135.008.145.015.156.035.144.052.15.05.136.075.129.088.11.082.088M217.22 865.938l.099.083.096.046.1.024.095.019.08-.016M217.002 863.605l-.085.035-.074.057-.065.078-.057.1-.047.11M673.24 831.77l-.172 8.347M678.726 565.361l-5.44 264.096M703.385 503.202l-7.883 337.943M678.726 565.361l3.707-61.738M691.941 501.104l-8.403 1.578M691.94 501.104l10.403 1.056M678.726 565.361h0M683.538 502.682l-.121.028-.123.037M691.94 501.104h0M702.64 502.215l-.141-.032-.158-.023M682.456 503.57l-.011.03-.013.022M682.593 503.42l-.067.07-.072.08M683.294 502.748l-.05.044-.062.058-.589.572M703.372 503.192l.013.008M703.242 503.022l.068.084.063.084M702.64 502.215l.043.067.062.072M703.242 503.022l-.497-.67M673.068 840.117v.021M673.068 840.137l.09.298M673.161 840.433l.021.057.058.035.073.049.1.036M684.432 844.254l.122.044.132.019.132.02.148.006M684.968 844.343l.892.032M685.86 844.375h.146l.134-.018.114-.011.1-.025M695.34 841.275l.075-.028.046-.029.033-.037.008-.038M686.356 844.32l8.984-3.044M673.413 840.61l11.019 3.643M493.116 535.667l-.004-.463M473.912 543.721l-.024-7.956M473.96 556.873l-.044-10.898M492.039 481.6l1.076 53.604M475.599 481.322l7.865-1.29M483.465 480.032l7.712.783M473.89 535.767l.848-53.484M493.112 535.204h0M475.348 481.387l.115-.039.134-.026M491.432 480.867l-.127-.035-.125-.018M483.465 480.032h0M473.89 535.767h0M491.51 480.946l-.052-.048-.029-.031M492.017 481.54l-.06-.07-.045-.06M492.039 481.6l.001-.018-.023-.042M491.51 480.946l.402.464M474.777 482.1l-.024.046-.012.017M474.877 481.967l-.044.06-.053.073M475.348 481.387l-.03.039-.051.048M474.739 482.283h0M474.877 481.967l.394-.493M474.74 482.162l-.003.12" style="fill:none;stroke:red;stroke-width:1.99999;stroke-linecap:round;stroke-linejoin:round;stroke-miterlimit:4;stroke-dasharray:none;stroke-opacity:1;visibility:visible" visibility="hidden"/><path d="m488.333 557.13-4.8.936-8.583-1.385-.415.08" style="fill:none;stroke:red;stroke-width:.999997;stroke-linecap:round;stroke-linejoin:round;stroke-miterlimit:4;stroke-dasharray:none;stroke-opacity:1;visibility:visible" visibility="hidden"/><path d="m141.637 758.913-.701-.601M140.213 748.13l.388-.566M140.934 758.31l-.186-4.272M140.39 752.178l-.177-4.048M213.937 730.06 140.6 747.564M215.991 789.74l-4.016-1.72-1.65.424-68.69-29.531M136.19 632.937l-.713-.642M135.04 628.628l.304.615M134.802 623.21l.38-.658M135.477 632.293l-.136-3.05M135.005 625.627l-.107-2.415M140.84 752.748l.146-.362M141.336 752.08l-.076.017M140.84 752.748l-.026.048-.009.049M141.262 752.094l-.08.028-.072.066-.074.086-.047.11" style="fill:none;stroke:red;stroke-width:1.99999;stroke-linecap:round;stroke-linejoin:round;stroke-miterlimit:4;stroke-dasharray:none;stroke-opacity:1;visibility:visible" visibility="hidden"/><path d="M215.685 674.948c.395 1.766-.419 3.456-1.823 3.77l-6.899 1.544c-1.408.318-2.862-.866-3.253-2.634-.4-1.768.417-3.454 1.819-3.77l6.9-1.542c1.401-.319 2.86.861 3.256 2.632" style="fill:none;fill-opacity:1;fill-rule:nonzero;stroke:red;stroke-width:1.33333;visibility:visible" visibility="hidden"/><path d="m206.109 675.104 7.44-1.582M206.877 678.696l7.437-1.583M205.475 675.834l.431-.6M205.997 678.29l.64.367M206.365 675.148a.345.345 0 0 0-.456.085M206.637 678.658a.344.344 0 0 0 .24.038.336.336 0 0 0 .213-.147M207.091 678.55a1.41 1.41 0 0 0 .216-.606M207.306 677.945a3.738 3.738 0 0 0-.063-1.205 3.713 3.713 0 0 0-.437-1.127M206.807 675.614a1.317 1.317 0 0 0-.445-.46M205.469 675.844a.98.98 0 0 0-.154.434M205.315 676.278a2.639 2.639 0 0 0 .042.863c.06.287.162.556.313.805M205.669 677.948a1.017 1.017 0 0 0 .318.332M213.802 673.568a.341.341 0 0 0-.25-.044M214.315 677.113a.336.336 0 0 0 .215-.143M213.786 673.558l.639.37M214.52 676.982l.428-.6M214.437 673.938l-.01-.008M214.95 676.382l.01-.012M214.96 676.37a.921.921 0 0 0 .148-.432M215.111 675.938a2.67 2.67 0 0 0-.356-1.672M214.758 674.268a1.088 1.088 0 0 0-.318-.33" style="fill:none;stroke:red;stroke-width:.666665;stroke-linecap:round;stroke-linejoin:round;stroke-miterlimit:2;stroke-dasharray:none;stroke-opacity:1;visibility:visible" visibility="hidden"/><path d="m208.349 676.473 4.95-.999" style="fill:none;stroke:red;stroke-width:.666665;stroke-linecap:round;stroke-linejoin:round;stroke-miterlimit:4;stroke-dasharray:none;stroke-opacity:1;visibility:visible" visibility="hidden"/><path d="M216.595 701.714c.4 1.767-.417 3.456-1.82 3.771l-6.9 1.543c-1.409.318-2.863-.866-3.255-2.634-.4-1.768.418-3.453 1.819-3.769l6.902-1.544c1.402-.317 2.858.863 3.254 2.633" style="fill:none;fill-opacity:1;fill-rule:nonzero;stroke:red;stroke-width:1.33333;visibility:visible" visibility="hidden"/><path d="m207.023 701.87 7.44-1.58M207.789 705.464l7.44-1.584M206.387 702.602l.433-.601M206.909 705.054l.641.37M207.278 701.916a.363.363 0 0 0-.255-.044.34.34 0 0 0-.203.13M207.551 705.425a.339.339 0 0 0 .454-.11M208.005 705.314a1.41 1.41 0 0 0 .213-.602M208.218 704.712a3.709 3.709 0 0 0-.063-1.207 3.713 3.713 0 0 0-.434-1.125M207.72 702.381a1.357 1.357 0 0 0-.444-.463M206.38 702.61a.996.996 0 0 0-.155.435M206.226 703.045a2.64 2.64 0 0 0 .044.863 2.493 2.493 0 0 0 .312.805M206.58 704.714a1.035 1.035 0 0 0 .32.334M214.713 700.334a.335.335 0 0 0-.25-.044M215.229 703.881a.333.333 0 0 0 .21-.144M214.698 700.325l.64.37M215.431 703.748l.432-.599M215.351 700.705c-.008-.004-.01-.008-.013-.01M215.865 703.15l.008-.014M215.871 703.137a.923.923 0 0 0 .151-.432M216.023 702.705a2.632 2.632 0 0 0-.353-1.672M215.669 701.033a1.07 1.07 0 0 0-.319-.33" style="fill:none;stroke:red;stroke-width:.666665;stroke-linecap:round;stroke-linejoin:round;stroke-miterlimit:2;stroke-dasharray:none;stroke-opacity:1;visibility:visible" visibility="hidden"/><path d="m209.262 703.241 4.95-1" style="fill:none;stroke:red;stroke-width:.666665;stroke-linecap:round;stroke-linejoin:round;stroke-miterlimit:4;stroke-dasharray:none;stroke-opacity:1;visibility:visible" visibility="hidden"/><path d="M222.049 863.347c.396 1.767-.419 3.455-1.823 3.771l-6.899 1.544c-1.407.317-2.862-.867-3.254-2.636-.399-1.767.417-3.452 1.82-3.768l6.9-1.543c1.402-.318 2.86.862 3.256 2.632" style="fill:none;fill-opacity:1;fill-rule:nonzero;stroke:red;stroke-width:1.33333;visibility:visible" visibility="hidden"/><path d="m212.474 863.505 7.44-1.582M213.242 867.097l7.438-1.583M211.84 864.237l.434-.602M212.362 866.69l.64.37M212.729 863.549a.345.345 0 0 0-.459.085M213.002 867.06a.344.344 0 0 0 .24.036.333.333 0 0 0 .213-.147M213.455 866.949c.118-.186.195-.389.216-.603M213.671 866.346a3.756 3.756 0 0 0-.061-1.208 3.725 3.725 0 0 0-.44-1.124M213.171 864.014a1.333 1.333 0 0 0-.445-.463M211.833 864.245a.98.98 0 0 0-.154.434M211.68 864.68a2.639 2.639 0 0 0 .04.861c.06.288.164.557.315.806M212.033 866.347a1.008 1.008 0 0 0 .32.334M220.166 861.969a.341.341 0 0 0-.25-.044M220.68 865.514a.336.336 0 0 0 .212-.144M220.15 861.96l.64.368M220.885 865.383l.43-.6M220.802 862.34c-.005-.006-.008-.01-.012-.01M221.315 864.783l.011-.012M221.325 864.771a.921.921 0 0 0 .15-.431M221.477 864.34a2.67 2.67 0 0 0-.357-1.674M221.122 862.667a1.088 1.088 0 0 0-.319-.329" style="fill:none;stroke:red;stroke-width:.666665;stroke-linecap:round;stroke-linejoin:round;stroke-miterlimit:2;stroke-dasharray:none;stroke-opacity:1;visibility:visible" visibility="hidden"/><path d="m214.713 864.875 4.95-1" style="fill:none;stroke:red;stroke-width:.666665;stroke-linecap:round;stroke-linejoin:round;stroke-miterlimit:4;stroke-dasharray:none;stroke-opacity:1;visibility:visible" visibility="hidden"/><path d="m134.732 753.637 5.528-1.177M135.5 757.23l4.994-1.064M134.098 754.366l.432-.6M134.62 756.82l.64.37M134.986 753.68a.339.339 0 0 0-.253-.042.323.323 0 0 0-.203.127M135.26 757.19a.353.353 0 0 0 .24.04.335.335 0 0 0 .213-.15M135.713 757.08c.117-.183.193-.386.216-.601M135.929 756.477a3.747 3.747 0 0 0-.063-1.207 3.733 3.733 0 0 0-.436-1.125M135.429 754.145a1.34 1.34 0 0 0-.445-.461M134.09 754.376a.98.98 0 0 0-.153.434M133.937 754.81a2.639 2.639 0 0 0 .041.863c.06.287.163.556.314.805M134.292 756.478a1.008 1.008 0 0 0 .318.335" style="fill:none;stroke:red;stroke-width:.666665;stroke-linecap:round;stroke-linejoin:round;stroke-miterlimit:2;stroke-dasharray:none;stroke-opacity:1;visibility:visible" visibility="hidden"/><path d="m136.97 755.006 3.524-.706" style="fill:none;stroke:red;stroke-width:.666665;stroke-linecap:round;stroke-linejoin:round;stroke-miterlimit:4;stroke-dasharray:none;stroke-opacity:1;visibility:visible" visibility="hidden"/><path d="m129.445 627.452 5.53-1.176M130.213 631.044l4.995-1.064M128.813 628.181l.432-.601M129.333 630.637l.64.367M129.7 627.495a.345.345 0 0 0-.456.085M129.973 631.007a.337.337 0 0 0 .453-.111M130.426 630.895c.118-.186.194-.388.216-.603M130.644 630.293a3.747 3.747 0 0 0-.064-1.206 3.72 3.72 0 0 0-.436-1.127M130.144 627.961a1.344 1.344 0 0 0-.446-.461M128.804 628.192a.963.963 0 0 0-.154.435M128.65 628.627a2.639 2.639 0 0 0 .042.862c.06.287.162.556.313.806M129.005 630.295a1 1 0 0 0 .32.334" style="fill:none;stroke:red;stroke-width:.666665;stroke-linecap:round;stroke-linejoin:round;stroke-miterlimit:2;stroke-dasharray:none;stroke-opacity:1;visibility:visible" visibility="hidden"/><path d="m131.685 628.821 3.524-.71" style="fill:none;stroke:red;stroke-width:.666665;stroke-linecap:round;stroke-linejoin:round;stroke-miterlimit:4;stroke-dasharray:none;stroke-opacity:1;visibility:visible" visibility="hidden"/><path d="m214.203 623.773 9.91 291.392" style="fill:none;stroke:red;stroke-width:.999997;stroke-linecap:round;stroke-linejoin:round;stroke-miterlimit:4;stroke-dasharray:none;stroke-opacity:1;visibility:visible" visibility="hidden"/><path d="M479.852 544.647h0M479.304 545.468l-.01-.001M479.832 544.801a.48.48 0 0 0 .01-.073.587.587 0 0 0 .018-.136c.005-.044.004-.095.01-.141 0-.051 0-.102-.004-.156.001-.048-.006-.099-.006-.16a1.995 1.995 0 0 0-.012-.159c0-.05-.01-.104-.018-.161-.01-.055-.025-.107-.034-.158a.54.54 0 0 0-.036-.162c-.01-.055-.02-.112-.036-.166-.02-.052-.03-.105-.044-.152a1.66 1.66 0 0 1-.06-.152c-.019-.045-.037-.097-.056-.145-.027-.045-.044-.091-.063-.135-.024-.044-.05-.085-.066-.13l-.075-.112c-.025-.039-.048-.079-.079-.113-.026-.033-.048-.07-.08-.095a.472.472 0 0 0-.081-.08c-.03-.027-.048-.05-.081-.068a.339.339 0 0 0-.09-.054c-.031-.013-.055-.026-.086-.037a.677.677 0 0 0-.08-.021.2.2 0 0 0-.09.002c-.013-.002-.03.004-.056.01M479.379 545.45a.347.347 0 0 0 .056-.014c.032-.011.052-.024.073-.036a.233.233 0 0 0 .063-.05.292.292 0 0 0 .059-.063c.017-.022.037-.043.058-.075.012-.035.036-.061.052-.099.005-.029.027-.063.043-.1.01-.041.021-.081.03-.125.005-.028.007-.055.019-.085M479.304 545.468l.076-.018" style="fill:none;stroke:red;stroke-width:.666665;stroke-linecap:round;stroke-linejoin:round;stroke-miterlimit:10;stroke-dasharray:none;stroke-opacity:1;visibility:visible" visibility="hidden"/><path d="m211.04 646.232.658-11.384M214.203 623.773l-2.505 11.075M215.737 782.414l.694-9.536M211.725 780.72l4.706-7.842M220.242 913.055l.611-11.312" style="fill:none;stroke:red;stroke-width:.666665;stroke-linecap:round;stroke-linejoin:round;stroke-miterlimit:4;stroke-dasharray:none;stroke-opacity:1;visibility:visible" visibility="hidden"/><path d="m583.581 786.741-5.471-.143" style="fill:none;stroke:red;stroke-width:.999997;stroke-linecap:round;stroke-linejoin:round;stroke-miterlimit:4;stroke-dasharray:none;stroke-opacity:1;visibility:visible" visibility="hidden"/><path d="m629.224 812.949 15.222 12.153" style="fill:none;stroke:red;stroke-width:.666665;stroke-linecap:round;stroke-linejoin:round;stroke-miterlimit:4;stroke-dasharray:none;stroke-opacity:1;visibility:visible" visibility="hidden"/><path d="m482.357 480.948 1.753 2.36M575.57 549.935l-1.292.255M644.446 825.102l-15.222-12.153M487.453 556.459l-4.42 1.529M484.11 483.308l-1.753-2.36M483.464 480.032l-1.107.916M691.941 501.104l2.691 3.555M691.94 501.104l2.094 1.098M693.385 504.69l.649-2.488M211.358 655.373l-4.085-1.994M215.991 789.74l-4.016-1.72" style="fill:none;stroke:red;stroke-width:.999997;stroke-linecap:round;stroke-linejoin:round;stroke-miterlimit:4;stroke-dasharray:none;stroke-opacity:1;visibility:visible" visibility="hidden"/><path d="m212.945 701.372.088 2.64M213.033 704.012l-.088-2.64M212.02 674.628l.097 2.634M218.612 865.826l-.089-2.655M212.117 677.262l-.097-2.634M673.413 840.61l-.301-2.763M673.286 829.457l-.046 2.313M673.24 831.77l.046-2.313M473.916 545.975l-.004-2.254M473.912 543.721l.004 2.254" style="fill:none;stroke:red;stroke-width:1.99999;stroke-linecap:round;stroke-linejoin:round;stroke-miterlimit:4;stroke-dasharray:none;stroke-opacity:1;visibility:visible" visibility="hidden"/><path d="m211.46 675.882 4.225-.934M211.46 675.883l4.225-.935" style="fill:none;fill-opacity:1;fill-rule:nonzero;stroke:red;stroke-width:1.33333;visibility:visible" visibility="hidden"/><path d="m211.08 677.486-2.731-1.013M214.315 677.113l-1.016-1.639" style="fill:none;stroke:red;stroke-width:.666665;stroke-linecap:round;stroke-linejoin:round;stroke-miterlimit:4;stroke-dasharray:none;stroke-opacity:1;visibility:visible" visibility="hidden"/><path d="m212.39 702.662 4.205-.948" style="fill:none;fill-opacity:1;fill-rule:nonzero;stroke:red;stroke-width:1.33333;visibility:visible" visibility="hidden"/><path d="m212.021 704.244-2.759-1.003M214.643 700.993l-.431 1.248" style="fill:none;stroke:red;stroke-width:.666665;stroke-linecap:round;stroke-linejoin:round;stroke-miterlimit:4;stroke-dasharray:none;stroke-opacity:1;visibility:visible" visibility="hidden"/><path d="m217.984 864.65 4.065-1.303" style="fill:none;fill-opacity:1;fill-rule:nonzero;stroke:red;stroke-width:1.33333;visibility:visible" visibility="hidden"/><path d="m217.69 866.094-2.977-1.219M220.107 862.709l-.444 1.166" style="fill:none;stroke:red;stroke-width:.666665;stroke-linecap:round;stroke-linejoin:round;stroke-miterlimit:4;stroke-dasharray:none;stroke-opacity:1;visibility:visible" visibility="hidden"/><path d="m136.97 755.006 3.524 1.16" style="fill:none;stroke:red;stroke-width:.666665;stroke-linecap:round;stroke-linejoin:round;stroke-miterlimit:2;stroke-dasharray:none;stroke-opacity:1;visibility:visible" visibility="hidden"/><path d="m140.494 756.166-3.524-1.16M135.208 629.98l-3.523-1.159" style="fill:none;stroke:red;stroke-width:.666665;stroke-linecap:round;stroke-linejoin:round;stroke-miterlimit:4;stroke-dasharray:none;stroke-opacity:1;visibility:visible" visibility="hidden"/><path d="m479.38 545.45-.743-3.403" style="fill:none;stroke:red;stroke-width:.666665;stroke-linecap:round;stroke-linejoin:round;stroke-miterlimit:10;stroke-dasharray:none;stroke-opacity:1;visibility:visible" visibility="hidden"/><path d="m219.969 952.47-.063-.028h-.056M253.133 972.294l-.015-.126-.035-.12-.041-.117-.057-.101-.068-.08-.071-.055M253.218 979.538l.052-.038.047-.062.028-.094.005-.102M253.349 979.242l-.216-6.947M634.425 845.3 252.843 971.697M252.846 971.696l-32.877-19.226" style="fill:none;stroke:#00ff4a;stroke-width:.999997;stroke-linecap:round;stroke-linejoin:round;stroke-miterlimit:4;stroke-dasharray:none;stroke-opacity:1;visibility:visible"/><path d="M595.735 832.071 219.849 952.44M634.485 852.127 253.218 979.54M219.96 959.486l.014.118.021.107.047.116.053.096.068.081.07.063M219.849 952.44l-.059.036-.043.062-.013.092-.004.1M253.086 979.515l.073.028.061-.004M634.745 845.791l-.01-.104-.028-.1-.057-.101-.06-.079-.08-.07-.082-.037M595.892 832.071l-.082-.011-.074.011M634.485 852.127l.067-.033.05-.064.03-.087.014-.093M219.729 952.728l.231 6.756M242.395 973.183l10.691 6.332M225.322 963.066l15.352 9.097M220.234 960.064l3.404 2.012M634.646 851.85l.096-6.059M634.425 845.3l-38.533-13.228" style="fill:none;stroke:#00ff4a;stroke-width:1.99999;stroke-linecap:round;stroke-linejoin:round;stroke-miterlimit:4;stroke-dasharray:none;stroke-opacity:1;visibility:visible"/><path d="m511.545 873.113-.055-.086-.179-.201-.238-.177-.292-.139-.326-.124-.37-.11-.369-.083-.405-.055-.407-.012-.414.04-.393.035-.372.089-.34.099-.322.138-.264.144-.23.18-.158.199M368.932 919.707l-.057-.085-.179-.205-.236-.177-.293-.138-.325-.125-.37-.11-.37-.077-.406-.061-.406-.012-.415.04-.39.037-.374.089-.339.099-.325.137-.261.144-.232.179-.156.198" style="fill:none;stroke:#00ff4a;stroke-width:.666665;stroke-linecap:round;stroke-linejoin:round;stroke-miterlimit:4;stroke-dasharray:none;stroke-opacity:1;visibility:visible"/><path d="m506.67 873.29.323.175.344.13.414.111.428.099.428.064.48.016.441-.026.455-.066.407-.066.38-.129.362-.156.29-.159.236-.192.201-.224.111-.229.05-.212-.016-.24-.07-.217-.15-.229-.199-.223-.268-.191-.32-.155-.369-.134-.408-.12-.41-.088-.452-.066-.455-.008-.46.04-.433.042-.42.096-.378.106-.352.154-.293.157-.26.192-.174.224-.133.228-.055.204.012.243.1.219.137.218.216.241.26.171M364.056 919.882l.324.177.343.128.415.11.426.101.43.062.478.014.442-.024.456-.064.408-.066.38-.13.361-.156.288-.157.239-.195.198-.222.114-.23.048-.212-.014-.24-.07-.218-.154-.227-.197-.224-.267-.19-.32-.156-.369-.133-.407-.12-.413-.09-.45-.066-.458-.01-.457.044-.432.042-.42.093-.378.107-.353.157-.295.155-.26.193-.172.222-.133.229-.055.204.011.24.101.223.136.216.216.244.26.169" style="fill:none;stroke:#00ff4a;stroke-width:.666665;stroke-linecap:round;stroke-linejoin:round;stroke-miterlimit:4;stroke-dasharray:none;stroke-opacity:1;visibility:visible"/><path d="M229.18 961.331c.596 1.71-.02 3.483-1.376 3.956l-6.677 2.327c-1.36.476-2.94-.53-3.534-2.242-.603-1.712.016-3.48 1.373-3.956l6.676-2.325c1.358-.477 2.941.529 3.538 2.24" style="fill:none;fill-opacity:1;fill-rule:nonzero;stroke:#00ff4a;stroke-width:1.33333;visibility:visible"/><path d="M219.031 963.847c0 .29.05.581.143.855.092.277.226.532.401.762M219.575 965.466a1.016 1.016 0 0 0 .36.296M227.15 960.176a.361.361 0 0 0-.253-.014M228.07 963.64a.322.322 0 0 0 .195-.169M227.133 960.17l.681.293M228.258 963.486l.362-.643M227.826 960.472c-.008-.002-.01-.006-.013-.008M228.617 962.84s.002-.009.008-.012M228.625 962.828a.97.97 0 0 0 .101-.446M228.726 962.382a2.67 2.67 0 0 0-.546-1.619M228.18 960.764a.968.968 0 0 0-.356-.292M219.687 962.59l7.208-2.426M220.862 966.071l7.208-2.43M219.14 963.388l.363-.644M219.94 965.766l.681.292M219.946 962.604a.347.347 0 0 0-.256-.016.327.327 0 0 0-.187.155M220.622 966.06a.365.365 0 0 0 .241.01.36.36 0 0 0 .197-.174M221.06 965.896c.09-.194.142-.406.141-.622M221.203 965.274a3.787 3.787 0 0 0-.762-2.259M220.44 963.014a1.446 1.446 0 0 0-.496-.408" style="fill:none;stroke:#00ff4a;stroke-width:.666665;stroke-linecap:round;stroke-linejoin:round;stroke-miterlimit:2;stroke-dasharray:none;stroke-opacity:1;visibility:visible"/><path d="M219.135 963.398a.963.963 0 0 0-.104.45" style="fill:none;stroke:#00ff4a;stroke-width:.666665;stroke-linecap:round;stroke-linejoin:round;stroke-miterlimit:2;stroke-dasharray:none;stroke-opacity:1;visibility:visible"/><path d="m222.07 963.694 4.803-1.562" style="fill:none;stroke:#00ff4a;stroke-width:.666665;stroke-linecap:round;stroke-linejoin:round;stroke-miterlimit:4;stroke-dasharray:none;stroke-opacity:1;visibility:visible"/><path d="m609.33 835.697 5.314-1.79M613.038 838.32l2.78-.936M614.9 833.92a.367.367 0 0 0-.255-.013M615.818 837.383a.332.332 0 0 0 .195-.168M614.882 833.915l.68.292M616.006 837.23l.36-.645M615.573 834.215l-.013-.009M616.366 836.585a.02.02 0 0 1 .007-.011M616.372 836.573a.936.936 0 0 0 .1-.446M616.473 836.127a2.67 2.67 0 0 0-.543-1.62M615.93 834.506a.993.993 0 0 0-.358-.29" style="fill:none;stroke:#00ff4a;stroke-width:.666665;stroke-linecap:round;stroke-linejoin:round;stroke-miterlimit:2;stroke-dasharray:none;stroke-opacity:1;visibility:visible"/><path d="m611.24 836.974 3.378-1.1" style="fill:none;stroke:#00ff4a;stroke-width:.666665;stroke-linecap:round;stroke-linejoin:round;stroke-miterlimit:4;stroke-dasharray:none;stroke-opacity:1;visibility:visible"/><path d="m628.95 842.311 5.314-1.79M632.661 844.935l2.78-.937M634.52 840.534a.361.361 0 0 0-.254-.015M635.438 843.998a.33.33 0 0 0 .195-.17M634.502 840.529l.682.293M635.628 843.843l.36-.642M635.196 840.83c-.01-.004-.012-.008-.016-.01M635.985 843.198a.027.027 0 0 1 .008-.012M635.994 843.187a.937.937 0 0 0 .1-.446M636.096 842.74a2.67 2.67 0 0 0-.546-1.62M635.55 841.12a.993.993 0 0 0-.356-.29" style="fill:none;stroke:#00ff4a;stroke-width:.666665;stroke-linecap:round;stroke-linejoin:round;stroke-miterlimit:2;stroke-dasharray:none;stroke-opacity:1;visibility:visible"/><path d="m630.862 843.59 3.378-1.1" style="fill:none;stroke:#00ff4a;stroke-width:.666665;stroke-linecap:round;stroke-linejoin:round;stroke-miterlimit:4;stroke-dasharray:none;stroke-opacity:1;visibility:visible"/><path d="M245.573 971.155c.596 1.71-.023 3.481-1.375 3.956l-6.677 2.327c-1.363.476-2.941-.531-3.536-2.242-.602-1.712.015-3.48 1.372-3.956l6.677-2.325c1.359-.477 2.941.527 3.539 2.24" style="fill:none;fill-opacity:1;fill-rule:nonzero;stroke:#00ff4a;stroke-width:1.33333;visibility:visible"/><path d="m236.08 972.414 7.205-2.427M237.254 975.894l7.207-2.43M235.533 973.214l.361-.644M236.333 975.591l.681.292M236.338 972.427a.373.373 0 0 0-.257-.015.328.328 0 0 0-.188.154M237.013 975.882a.355.355 0 0 0 .242.012.36.36 0 0 0 .198-.174M237.453 975.72c.09-.194.142-.406.141-.622M237.595 975.098a3.853 3.853 0 0 0-.2-1.191 3.735 3.735 0 0 0-.565-1.067M236.83 972.84a1.411 1.411 0 0 0-.495-.409M235.526 973.222a.964.964 0 0 0-.101.448M235.425 973.672a2.693 2.693 0 0 0 .544 1.616M235.969 975.288a.992.992 0 0 0 .357.295M243.543 970a.367.367 0 0 0-.253-.014M244.463 973.466a.34.34 0 0 0 .194-.17M243.526 969.994l.68.293M244.65 973.31l.36-.643M244.218 970.298l-.013-.011M245.01 972.664a.03.03 0 0 1 .005-.012M245.015 972.654a.905.905 0 0 0 .102-.447M245.117 972.206a2.692 2.692 0 0 0-.544-1.62M244.573 970.587a.987.987 0 0 0-.356-.29" style="fill:none;stroke:#00ff4a;stroke-width:.666665;stroke-linecap:round;stroke-linejoin:round;stroke-miterlimit:2;stroke-dasharray:none;stroke-opacity:1;visibility:visible"/><path d="m238.463 973.519 4.802-1.564" style="fill:none;stroke:#00ff4a;stroke-width:.666665;stroke-linecap:round;stroke-linejoin:round;stroke-miterlimit:4;stroke-dasharray:none;stroke-opacity:1;visibility:visible"/><path d="m240.674 972.163 1.721 1.02M223.638 962.076l1.684.99M242.395 973.183l-1.721-1.02M225.322 963.066l-1.684-.99" style="fill:none;stroke:#00ff4a;stroke-width:1.99999;stroke-linecap:round;stroke-linejoin:round;stroke-miterlimit:4;stroke-dasharray:none;stroke-opacity:1;visibility:visible"/><path d="m245.573 971.155-16.393-9.824M245.573 971.155l-16.393-9.824" style="fill:none;fill-opacity:1;fill-rule:nonzero;stroke:#00ff4a;stroke-width:1.33333;visibility:visible"/><path d="m226.895 960.164-4.825 3.53M228.07 963.64l-1.197-1.508" style="fill:none;stroke:#00ff4a;stroke-width:.666665;stroke-linecap:round;stroke-linejoin:round;stroke-miterlimit:4;stroke-dasharray:none;stroke-opacity:1;visibility:visible"/><path d="m614.618 835.874-5.288-.177M614.618 835.874l-1.58 2.446" style="fill:none;stroke:#00ff4a;stroke-width:.666665;stroke-linecap:round;stroke-linejoin:round;stroke-miterlimit:2;stroke-dasharray:none;stroke-opacity:1;visibility:visible"/><path d="m614.644 833.907-3.404 3.067M615.818 837.383l-1.2-1.509" style="fill:none;stroke:#00ff4a;stroke-width:.666665;stroke-linecap:round;stroke-linejoin:round;stroke-miterlimit:4;stroke-dasharray:none;stroke-opacity:1;visibility:visible"/><path d="m634.24 842.49-5.29-.179M634.425 845.3l-1.764-.365" style="fill:none;stroke:#00ff4a;stroke-width:.666665;stroke-linecap:round;stroke-linejoin:round;stroke-miterlimit:2;stroke-dasharray:none;stroke-opacity:1;visibility:visible"/><path d="m634.425 845.3-3.563-1.71M635.438 843.998l-1.198-1.508" style="fill:none;stroke:#00ff4a;stroke-width:.666665;stroke-linecap:round;stroke-linejoin:round;stroke-miterlimit:4;stroke-dasharray:none;stroke-opacity:1;visibility:visible"/><path d="m229.18 961.331 16.393 9.824M229.18 961.331l16.393 9.824" style="fill:none;fill-opacity:1;fill-rule:nonzero;stroke:#00ff4a;stroke-width:1.33333;visibility:visible"/><path d="m243.285 969.987-4.822 3.532M244.463 973.466l-1.198-1.511" style="fill:none;stroke:#00ff4a;stroke-width:.666665;stroke-linecap:round;stroke-linejoin:round;stroke-miterlimit:4;stroke-dasharray:none;stroke-opacity:1;visibility:visible"/></svg>