<svg xmlns="http://www.w3.org/2000/svg" baseProfile="full" height="1122.52" preserveAspectRatio="xMinYMin meet" style="width:904px;height:1119px" width="793.701" xml:space="preserve"><path d="m236.447 981.227-4.508-2.235M237.942 1006.837l-.535-23.805M236.796 981.611l-.077-.121-.084-.118-.09-.082-.1-.064M236.796 981.611l.46.844M231.94 978.993l-.083-.024-.086-.01-.078.013M237.405 983.032l-.015-.139-.029-.154-.045-.14-.06-.144M234.429 990.878l.159.057.146.036.148-.013.131-.037.123-.072.098-.099.1-.136.066-.153.054-.184.022-.207.002-.216-.017-.227-.037-.236-.058-.236-.074-.234-.098-.224-.116-.219-.124-.197-.137-.176-.153-.144-.151-.127-.152-.09-.156-.063-.144-.028h-.152l-.13.045-.123.067-.102.106-.085.134-.07.16-.047.181-.035.201-.005.219.022.221.032.247.063.232.083.233.086.226.115.208.127.198.136.172.149.16.15.116.154.099M608.353 859.896 237.257 982.454M231.049 995.94l-.13-.055-.111-.036-.118-.005-.106.028M231.497 998.482l.112-.056.101-.084.086-.116.049-.153.044-.17.016-.189v-.204l-.03-.201-.053-.216-.072-.215-.081-.203-.1-.188-.119-.177-.128-.145-.13-.128-.143-.098M230.647 996.488l-.092-.044-.104-.024-.1.015-.07.038-.082.056-.05.094-.051.104M230.585 998.09l.104.064.115.033.094.006.098-.034.078-.057.068-.09.055-.118.023-.141.004-.151-.01-.159-.046-.176-.048-.165-.063-.164-.09-.144-.098-.125-.107-.107-.114-.075" style="fill:none;stroke:red;stroke-width:.999997;stroke-linecap:round;stroke-linejoin:round;stroke-miterlimit:4;stroke-dasharray:none;stroke-opacity:1;visibility:visible"/><path d="m607.496 858.956-4.741-1.308M607.926 880.222l-369.983 126.614M607.926 880.222l.588-19.861M231.588 1003.553l6.356 3.284M231.051 979.88l.35 15.71M231.476 998.493l.112 5.06M607.877 859.231l-.083-.09-.097-.08-.095-.073-.105-.032M608.353 859.896l-.476-.665M608.515 860.359l-.016-.119-.03-.114-.05-.12-.065-.11M231.694 978.972l-.052.023-.047.034M231.176 979.442l-.057.079-.039.11-.03.116v.134M231.176 979.442l.417-.413M235.01 997.303l.112-.055.09-.084.08-.12.065-.14.044-.158.013-.183.004-.2-.025-.199-.05-.206-.062-.204-.079-.204-.095-.2-.105-.166-.13-.156-.133-.126-.128-.107-.129-.075-.144-.038-.127-.015-.124.025M231.694 978.972l370.794-121.336M230.585 995.872l-.101.043-.076.069-.082.087-.064.106-.04.132M230.942 998.346l.115.079.112.056.114.025.122.003.092-.024M230.098 996.727l-.02.15-.008.16.017.171.043.176.06.175.08.163.092.144.101.13.12.094M235.01 997.303l-3.515 1.18M234.085 994.692l-3.5 1.18M230.098 996.727l.124-.419M230.585 998.09l.359.255" style="fill:none;stroke:red;stroke-width:1.99999;stroke-linecap:round;stroke-linejoin:round;stroke-miterlimit:4;stroke-dasharray:none;stroke-opacity:1;visibility:visible"/><path d="M236.634 995.378c.547 1.669-.084 3.376-1.413 3.809l-6.522 2.128c-1.326.433-2.839-.576-3.385-2.245-.548-1.671.086-3.375 1.407-3.81l6.525-2.126c1.328-.435 2.841.57 3.388 2.244" style="fill:none;fill-opacity:1;fill-rule:nonzero;stroke:red;stroke-width:1.33333;visibility:visible"/><path d="m227.4 996.41 7.04-2.212M228.473 999.81l7.037-2.215M226.855 997.174l.362-.62M227.585 999.498l.653.296M227.653 996.43a.355.355 0 0 0-.25-.02.324.324 0 0 0-.186.145M228.238 999.792a.325.325 0 0 0 .235.018.36.36 0 0 0 .193-.162M228.667 999.648c.093-.193.147-.393.15-.604M228.818 999.044a3.723 3.723 0 0 0-.696-2.206M228.12 996.838a1.347 1.347 0 0 0-.47-.406M226.85 997.184a.89.89 0 0 0-.11.434M226.74 997.618c-.004.28.036.561.12.829.083.275.21.523.376.748M227.235 999.195a.965.965 0 0 0 .342.297M234.689 994.22a.325.325 0 0 0-.25-.022M235.51 997.595a.323.323 0 0 0 .192-.16M234.67 994.211l.652.299M235.697 997.448l.361-.617M235.337 994.515c-.008-.003-.01-.007-.015-.008M236.055 996.831c.003-.001.006-.01.008-.013M236.063 996.818a.89.89 0 0 0 .107-.431M236.17 996.387a2.452 2.452 0 0 0-.117-.828 2.67 2.67 0 0 0-.378-.755M235.675 994.804a1.028 1.028 0 0 0-.338-.289" style="fill:none;stroke:red;stroke-width:.666665;stroke-linecap:round;stroke-linejoin:round;stroke-miterlimit:2;stroke-dasharray:none;stroke-opacity:1;visibility:visible"/><path d="m229.689 997.527 4.691-1.417" style="fill:none;stroke:red;stroke-width:.666665;stroke-linecap:round;stroke-linejoin:round;stroke-miterlimit:4;stroke-dasharray:none;stroke-opacity:1;visibility:visible"/><path d="m609.492 868.211 2.892-.908M609.246 872.026l4.207-1.325M612.63 867.325a.328.328 0 0 0-.248-.022M613.453 870.7a.318.318 0 0 0 .19-.16M612.612 867.318l.653.296M613.638 870.554l.36-.617M613.278 867.62a.028.028 0 0 1-.013-.006M613.998 869.938c.002-.001.004-.012.008-.015M614.005 869.923a.875.875 0 0 0 .107-.43M614.112 869.493a2.452 2.452 0 0 0-.118-.828 2.724 2.724 0 0 0-.377-.755M613.617 867.91a1.059 1.059 0 0 0-.339-.29" style="fill:none;stroke:red;stroke-width:.666665;stroke-linecap:round;stroke-linejoin:round;stroke-miterlimit:2;stroke-dasharray:none;stroke-opacity:1;visibility:visible"/><path d="m607.63 870.633 4.691-1.418" style="fill:none;stroke:red;stroke-width:.666665;stroke-linecap:round;stroke-linejoin:round;stroke-miterlimit:4;stroke-dasharray:none;stroke-opacity:1;visibility:visible"/><path d="m235.322 994.51-.893-3.632M235.337 994.515l-.908-3.637" style="fill:none;stroke:red;stroke-width:.999997;stroke-linecap:round;stroke-linejoin:round;stroke-miterlimit:4;stroke-dasharray:none;stroke-opacity:1;visibility:visible"/><path d="m237.256 982.455-.622 12.923" style="fill:none;fill-opacity:1;fill-rule:nonzero;stroke:red;stroke-width:1.33333;visibility:visible"/><path d="m236.055 996.831-1.675-.721" style="fill:none;stroke:red;stroke-width:.666665;stroke-linecap:round;stroke-linejoin:round;stroke-miterlimit:4;stroke-dasharray:none;stroke-opacity:1;visibility:visible"/><path d="m612.321 869.215-2.829-1.004M612.321 869.215l-3.075 2.811" style="fill:none;stroke:red;stroke-width:.666665;stroke-linecap:round;stroke-linejoin:round;stroke-miterlimit:2;stroke-dasharray:none;stroke-opacity:1;visibility:visible"/><path d="m612.384 867.303-4.754 3.33M613.453 870.7l-1.132-1.485" style="fill:none;stroke:red;stroke-width:.666665;stroke-linecap:round;stroke-linejoin:round;stroke-miterlimit:4;stroke-dasharray:none;stroke-opacity:1;visibility:visible"/><path d="m205.916 649.283 355.135-70.985" style="fill:none;stroke:#00ff4a;stroke-width:.999997;stroke-linecap:round;stroke-linejoin:round;stroke-miterlimit:4;stroke-dasharray:none;stroke-opacity:1;visibility:visible"/><path d="m504.137 599.058.013.2.039.199.041.18.079.168.088.145.104.128.121.107.134.069.141.047.144.024.152-.015.143-.035.158-.068.146-.093.13-.113.132-.147.118-.155.098-.184.079-.185.06-.204.044-.208.016-.205v-.198l-.016-.201-.041-.188-.067-.177-.075-.163-.098-.13-.112-.115-.126-.092-.134-.06-.144-.039-.151-.003-.156.028-.148.052-.144.076-.15.104-.13.131-.116.155-.108.169-.087.184-.069.197-.059.202-.028.208-.021.205M274.564 645.945l.02.225.03.215.07.199.101.176.107.158.132.134.152.112.159.076.174.049.175.017.185-.008.179-.049.18-.076.172-.101.167-.14.138-.148.139-.18.11-.199.085-.21.074-.222.052-.223.011-.22v-.224l-.032-.222-.052-.196-.085-.199-.102-.17-.117-.149-.144-.12-.148-.094-.176-.066-.173-.034-.172.002-.192.032-.178.059-.18.096-.162.108-.155.148-.148.17-.112.178-.112.21-.083.211-.057.224-.032.23v.221M242.858 652.43l.017.203.048.205.067.176.097.168.122.141.126.12.155.095.157.055.164.032.176-.011.175-.033.168-.068.17-.091.157-.13.141-.151.13-.17.102-.188.077-.2.062-.206.033-.214.004-.214-.02-.214-.047-.196-.068-.186-.086-.166-.116-.141-.136-.124-.148-.083-.164-.062-.17-.028-.174.005-.17.032-.178.068-.158.095-.166.126-.131.155-.127.165-.105.188-.083.203-.06.212-.026.208-.015.224M530.155 593.748l.001.19.038.175.044.163.068.156.084.124.102.112.124.085.118.056.137.034.136-.01.132-.021.147-.057.126-.087.131-.104.12-.132.096-.15.084-.169.08-.182.044-.188.027-.184.021-.2-.015-.178-.025-.18-.047-.168-.076-.15-.08-.134-.106-.109-.115-.085-.12-.052-.137-.034-.131.007-.144.027-.137.052-.139.085-.127.108-.105.132-.11.15-.087.162-.068.183-.046.189-.041.19-.004.194M394.809 621.394l.023.193.032.192.062.174.075.15.103.142.118.114.122.09.15.056.15.02.15.008.152-.034.155-.065.156-.09.135-.115.122-.14.12-.154.096-.181.068-.185.058-.204.029-.194.008-.208-.008-.196-.032-.188-.065-.176-.08-.16-.099-.145-.11-.108-.13-.083-.144-.064-.152-.026-.152.005-.163.027-.148.062-.149.094-.13.112-.142.14-.104.165-.096.175-.088.192-.043.193-.038.205-.011.207" style="fill:none;stroke:#00ff4a;stroke-width:.666665;stroke-linecap:round;stroke-linejoin:round;stroke-miterlimit:4;stroke-dasharray:none;stroke-opacity:1;visibility:visible"/><path d="m201.64 647.407 3.856 1.036" style="fill:none;stroke:#00ff4a;stroke-width:.999997;stroke-linecap:round;stroke-linejoin:round;stroke-miterlimit:4;stroke-dasharray:none;stroke-opacity:1;visibility:visible"/><path d="m211.947 918.127.023.2.024.216.06.223.065.209.077.207.102.196.097.166.12.162.116.14.121.11.127.078.123.062.117.014.124-.011.105-.032.094-.072.088-.099.061-.125.06-.147.04-.168.021-.19v-.2l-.014-.212-.04-.219-.047-.207-.068-.218-.076-.208-.097-.187-.112-.18-.107-.159-.121-.142-.12-.106-.127-.08-.123-.049-.129-.03-.113.013-.108.044-.1.064-.071.104-.08.125-.05.148-.037.167-.02.193-.005.2M207.655 793.105l.02.223.035.214.046.222.068.208.08.204.102.18.105.177.11.141.118.126.13.098.126.066.135.034.114.008.116-.021.112-.064.096-.084.082-.113.077-.134.05-.165.034-.176.028-.199v-.213l-.019-.21-.033-.218-.045-.22-.072-.212-.086-.2-.094-.195-.107-.161-.107-.153-.134-.116-.116-.098-.132-.076-.128-.036-.116.003-.12.021-.112.056-.09.086-.084.112-.077.142-.044.159-.04.183-.025.193-.003.208M203.064 659.187l.017.225.035.212.037.224.08.203.082.199.1.188.102.161.122.135.117.106.128.091.13.044.13.02.119-.01.124-.046.106-.073.099-.106.084-.125.075-.155.057-.17.027-.194.025-.212.005-.209-.021-.225-.03-.222-.058-.225-.06-.204-.088-.199-.097-.185-.108-.157-.115-.143-.128-.11-.124-.073-.128-.052-.125-.022-.127.014-.117.046-.112.068-.104.101-.084.132-.063.15-.06.185-.035.192-.025.2.008.221" style="fill:none;stroke:#00ff4a;stroke-width:.666665;stroke-linecap:round;stroke-linejoin:round;stroke-miterlimit:4;stroke-dasharray:none;stroke-opacity:1;visibility:visible"/><path d="m564.853 806.333 2.036-207.273M564.853 806.333l-.768.23M564.853 806.333l2.036-207.273M564.345 600.096l-1.95 205.338M563.642 806.438l.093.059.095.041.099.033.082.006.074-.014M563.642 806.438l-.8-.525M562.843 805.913l-.093-.081-.103-.086-.088-.096-.093-.106-.071-.108M558.559 804.886l5.303 1.665M558.556 806.415l92.596 29.163M651.19 833.378l-86.336-27.045M608.145 831.981l.003.295.025.288.045.292.063.298.08.295.09.29.118.293.132.277.147.272.158.261.178.247.184.24.19.228.212.204.214.19.229.171.23.158.227.13.246.106.237.093.243.063.244.049.23.019h.236l.228-.031.224-.047.215-.07.2-.1.196-.112.187-.134.158-.16.154-.176.141-.194.12-.208.112-.232.085-.246.068-.248.058-.27.026-.272.012-.286.003-.292-.027-.294-.044-.3-.065-.29-.075-.296-.098-.293-.116-.29-.13-.283-.148-.271-.158-.257-.172-.259-.188-.237-.204-.219-.21-.215-.212-.189-.23-.173-.227-.148-.243-.128-.24-.11-.24-.084-.241-.068-.235-.044-.241-.024-.236.011-.224.021-.219.056-.209.071-.204.099-.192.114-.176.142-.173.158-.148.175-.142.192-.124.212-.105.228-.084.24-.067.257-.049.264-.033.276-.019.275M472 563.353l.255.037M472.254 563.39l-1.024.185M470.674 564.848l84.166 12.205M560.621 577.893l95.562 13.868M499.163 588.137l-28.2-4.51M471.017 563.699l.068-.056.07-.045.075-.022M470.6 583.133l.016-.04.003-.045.02-.04.006-.048.026-.051.036-.048M470.575 564.491l-.003.057.022.056.006.06.016.05.031.06.027.073M474.385 562.986l1.524-.281.004.234M474.213 553.753l.172 9.233M474.213 553.753l-2.399.436M474.87 510.92l-7.513 1.244" style="fill:none;stroke:#00ff4a;stroke-width:.999997;stroke-linecap:round;stroke-linejoin:round;stroke-miterlimit:4;stroke-dasharray:none;stroke-opacity:1;visibility:visible"/><path d="m461.621 575.45-.112-.003-.123.018-.104.041-.102.081-.088.095-.072.101-.062.139-.046.143-.01.157-.008.16.014.165.033.156.047.158.073.14.079.129.093.113.112.09.11.072.117.04.114.016.116-.006.116-.026.106-.066.094-.077.074-.107.077-.121.044-.137.037-.159.006-.153-.006-.159-.018-.167-.047-.156-.057-.149-.076-.14-.086-.12-.098-.103-.11-.08-.12-.053-.117-.032" style="fill:none;stroke:#00ff4a;stroke-width:.666665;stroke-linecap:round;stroke-linejoin:round;stroke-miterlimit:4;stroke-dasharray:none;stroke-opacity:1;visibility:visible"/><path d="m465.658 509.874-.133.028-.112.027-.08.025-.068.032-.028.016v.03l.017.027.047.026.07.016.104.024.12.012.151.013.155.013.181.004.18.004.19.006.203-.007.192-.019.194-.001.188-.016.177-.03.15-.014.145-.03.121-.023.104-.016.07-.027.04-.03.023-.027-.012-.032-.04-.019-.054-.019-.092-.024-.115-.022-.127-.011-.152-.015-.174-.002-.18-.012-.182.005-.2.004-.196.005-.186.01-.196.016-.183.013-.161.016-.151.024M465.75 512.215l-7.324-.763M471.825 554.494l.175 8.897v.043M472.53 562.762l-.539.1M472.53 562.762l-.003.105M473.963 554.098l.117-.175.132-.17M471.814 554.19l.005.145.004.16M466.312 584.617l-.047-20.261M458.265 511.17h0l.024-.008M458.78 510.423l.043-.067.033-.057M476.093 562.514l-.005.113M476.082 562.96l.005-.332M476.093 562.514l.003.445M466.265 564.354l-.083-51.879M475.046 510.624l.003-.117M475.015 510.612l.03.02v-.008M475.047 510.507h0M457.442 563.058l.01.021.029.011.049.021.07.011M466.73 508.986h0v.01M474.215 509.744l-.079-.001-.082-.004M459.098 510.237l.083-.01.07-.006M476.088 562.628l-.013.019-.042.021-.049.019-.076.018M476.093 562.514h0M474.137 563l.248-.015M472 563.434v-.043M656.53 592.011h0" style="fill:none;stroke:#00ff4a;stroke-width:.999997;stroke-linecap:round;stroke-linejoin:round;stroke-miterlimit:4;stroke-dasharray:none;stroke-opacity:1;visibility:visible"/><path d="m657.814 851.885-.147-.028-.153-.007-.147.019-.129.056-.123.075-.098.109-.078.119-.057.154-.04.156-.004.178.01.177.037.181.062.179.091.173.11.162.111.158.139.12.139.107.146.077.167.052.15.023.142-.015.141-.03.119-.071.115-.093.085-.112.079-.142.042-.157.02-.165.003-.176-.023-.188-.049-.18-.087-.174-.094-.176-.1-.15-.142-.144-.138-.11-.148-.097-.151-.06" style="fill:none;stroke:#00ff4a;stroke-width:.666665;stroke-linecap:round;stroke-linejoin:round;stroke-miterlimit:4;stroke-dasharray:none;stroke-opacity:1;visibility:visible"/><path d="m671.025 530.493-.193-.025-.211-.007-.23-.015-.235.007-.235-.007-.243.007-.221.013-.224.015-.213.015-.19.024-.169.028-.141.026-.119.036-.081.03-.058.04-.021.026.008.03.055.044.073.029.117.023.131.033.165.015.191.025.199.012.221.017.239.004.229-.004.245-.002.231-.007.227-.016.224-.016.198-.025.183-.027.15-.025.127-.028.107-.026.061-.041.047-.027v-.041l-.03-.028-.062-.032-.099-.033-.122-.022-.151-.033-.18-.012M662.228 862.44l5.924-268.786M668.153 593.653l2.401-60.532M679.959 531.29l-8.353 1.588M656.275 591.932l-.09-.15M660.047 531.848l.48-.699M670.397 532.91l-10.35-1.061M656.184 591.78h0M656.275 591.932h0M659.874 532.01l-.092-.117M660.528 531.15l.047-.07.032-.054M659.77 531.871l-.003.01.015.011M659.874 532.01l.013.012.042-.019M659.929 532.004l.065-.079.054-.077M679.085 530.453l-.105-.012-.092.008M668.994 529.43l.01.012.009.01M661.09 530.934l-.135.007-.114.02M656.17 591.771h.013v.01M656.275 591.932l.01.023.031.01.035.011.05.012.054.013.075.012M660.119 532.359l-.081-.11-.06-.123-.05-.122M680.085 531.455l-.033.117-.048.118-.064.128M209.163 882.143l-.07-.188-.069-.175-.085-.165-.095-.137-.109-.126-.1-.097-.113-.079-.108-.045-.107-.019-.097.014M208.877 883.54l.097-.045.086-.074.064-.094.054-.128.04-.147.03-.17-.006-.169-.004-.19-.028-.188-.046-.194M208.621 882.303l-.05-.141-.062-.144-.075-.118-.078-.105-.086-.081-.093-.058-.088-.037-.077.003-.08.026-.062.047-.053.077-.047.094M208.132 883.143l.084.056.085.035.09.006.072-.014.073-.055.064-.068.035-.099.032-.114.005-.142v-.137l-.017-.155-.034-.153M203.739 724.981l-.068-.188-.079-.177-.097-.152-.097-.14-.112-.112-.11-.088-.112-.052-.118-.027-.106.016M203.377 726.512l.097-.03.092-.063.082-.094.065-.129.05-.133.034-.163.025-.173v-.179l-.01-.195-.027-.184-.047-.188M203.184 725.158l-.06-.148-.06-.139-.079-.118-.09-.094-.095-.077-.084-.03-.095-.013-.086.028-.075.051-.072.087-.043.104M202.608 726.057l.092.077.085.042.088.014.088-.009.079-.032.057-.064.058-.096.045-.108.025-.127.02-.141-.01-.147-.02-.158-.03-.15M202.832 698.998l-.057-.188-.078-.168-.097-.157-.096-.13-.097-.113-.112-.084-.124-.05-.107-.026-.115.013M202.463 700.554l.11-.032.089-.065.082-.096.063-.119.061-.144.038-.167.02-.174.002-.182-.012-.196-.036-.193-.049-.188M202.283 699.178l-.05-.147-.07-.142-.076-.111-.088-.09-.09-.067-.097-.032-.084-.018-.086.026-.08.053-.066.085-.054.106" style="fill:none;stroke:#00ff4a;stroke-width:.999997;stroke-linecap:round;stroke-linejoin:round;stroke-miterlimit:4;stroke-dasharray:none;stroke-opacity:1;visibility:visible"/><path d="m201.697 700.093.092.07.09.046.091.023.08-.018.079-.037.07-.059.063-.097.036-.103.036-.133.01-.147-.006-.149-.012-.152-.045-.16M135.806 649.273l-6.975-2.015" style="fill:none;stroke:#00ff4a;stroke-width:.999997;stroke-linecap:round;stroke-linejoin:round;stroke-miterlimit:4;stroke-dasharray:none;stroke-opacity:1;visibility:visible"/><path d="m129.51 650.503 6.299-1.23" style="fill:none;stroke:#00ff4a;stroke-width:1.99999;stroke-linecap:round;stroke-linejoin:round;stroke-miterlimit:4;stroke-dasharray:none;stroke-opacity:1;visibility:visible"/><path d="m129.51 650.503 67.383 19.687M198.517 669.85l-1.627.339M202.455 670.998l-3.937-1.145" style="fill:none;stroke:#00ff4a;stroke-width:.999997;stroke-linecap:round;stroke-linejoin:round;stroke-miterlimit:4;stroke-dasharray:none;stroke-opacity:1;visibility:visible"/><path d="m265.843 624.09.12-.023.099-.036.08-.024.05-.037.019-.025-.007-.043-.028-.028-.065-.03-.088-.025-.1-.024-.13-.012-.149-.006-.154-.008-.155.008-.167.004-.156.014-.158.022-.126.018-.129.032-.097.028-.072.032-.05.027-.024.039v.03l.039.031.068.028.084.023.104.022.13.016.146.014.153.005.159-.003.164-.013.153-.015.15-.013.137-.028M357.374 606.226l.115-.025.086-.027.072-.025.043-.028.01-.039-.02-.033-.038-.018-.067-.03-.097-.024-.11-.014-.131-.014-.144-.003-.154-.005-.154.002-.162.006-.148.017-.141.01-.13.029-.111.026-.09.027-.072.024-.04.028-.009.028.02.032.033.028.068.033.1.023.11.013.129.015.144.005.15.004.16-.004.16-.005.15-.016.136-.015.132-.025" style="fill:none;stroke:#00ff4a;stroke-width:.666665;stroke-linecap:round;stroke-linejoin:round;stroke-miterlimit:4;stroke-dasharray:none;stroke-opacity:1;visibility:visible"/><path d="m128.983 653.75-.095-2.356" style="fill:none;stroke:#00ff4a;stroke-width:1.99999;stroke-linecap:round;stroke-linejoin:round;stroke-miterlimit:4;stroke-dasharray:none;stroke-opacity:1;visibility:visible"/><path d="m196.422 676.837-.195-5.688" style="fill:none;stroke:#00ff4a;stroke-width:.999997;stroke-linecap:round;stroke-linejoin:round;stroke-miterlimit:4;stroke-dasharray:none;stroke-opacity:1;visibility:visible"/><path d="m129.51 650.503-.623.89" style="fill:none;stroke:#00ff4a;stroke-width:1.99999;stroke-linecap:round;stroke-linejoin:round;stroke-miterlimit:4;stroke-dasharray:none;stroke-opacity:1;visibility:visible"/><path d="m196.422 676.837.724.667M198.77 677.166l-.25-7.313M196.228 671.15l.664-.96M140.997 771.432l-6.91-2.888" style="fill:none;stroke:#00ff4a;stroke-width:.999997;stroke-linecap:round;stroke-linejoin:round;stroke-miterlimit:4;stroke-dasharray:none;stroke-opacity:1;visibility:visible"/><path d="m134.799 772.917 6.196-1.485" style="fill:none;stroke:#00ff4a;stroke-width:1.99999;stroke-linecap:round;stroke-linejoin:round;stroke-miterlimit:4;stroke-dasharray:none;stroke-opacity:1;visibility:visible"/><path d="m134.799 772.917 66.69 28.208M203.089 800.71l-1.604.416M206.983 802.355l-3.893-1.643" style="fill:none;stroke:#00ff4a;stroke-width:.999997;stroke-linecap:round;stroke-linejoin:round;stroke-miterlimit:4;stroke-dasharray:none;stroke-opacity:1;visibility:visible"/><path d="m134.228 774.825-.037-1.016" style="fill:none;stroke:#00ff4a;stroke-width:1.99999;stroke-linecap:round;stroke-linejoin:round;stroke-miterlimit:4;stroke-dasharray:none;stroke-opacity:1;visibility:visible"/><path d="m201.028 807.603-.19-5.521M134.799 772.917l-.61.892M201.028 807.603l.701.6M203.335 807.795l-.247-7.084M200.84 802.084l.644-.959M134.799 772.925l-.041.007-.031.008M134.473 773.395l-.063.039-.052.064-.038.074" style="fill:none;stroke:#00ff4a;stroke-width:.999997;stroke-linecap:round;stroke-linejoin:round;stroke-miterlimit:4;stroke-dasharray:none;stroke-opacity:1;visibility:visible"/><path d="m201.64 647.407 354.451-70.601M211.353 929.105l-1.583-45.823M206.983 802.355l-2.627-76.066" style="fill:none;stroke:#00ff4a;stroke-width:1.99999;stroke-linecap:round;stroke-linejoin:round;stroke-miterlimit:4;stroke-dasharray:none;stroke-opacity:1;visibility:visible"/><path d="m207.228 809.462-.247-7.107" style="fill:none;stroke:#00ff4a;stroke-width:.999997;stroke-linecap:round;stroke-linejoin:round;stroke-miterlimit:4;stroke-dasharray:none;stroke-opacity:1;visibility:visible"/><path d="m209.684 880.704-2.456-71.242M204.273 723.729l-.804-23.39M202.426 670.231l-.787-22.824" style="fill:none;stroke:#00ff4a;stroke-width:1.99999;stroke-linecap:round;stroke-linejoin:round;stroke-miterlimit:4;stroke-dasharray:none;stroke-opacity:1;visibility:visible"/><path d="m202.733 679.1-.305-8.867" style="fill:none;stroke:#00ff4a;stroke-width:.999997;stroke-linecap:round;stroke-linejoin:round;stroke-miterlimit:4;stroke-dasharray:none;stroke-opacity:1;visibility:visible"/><path d="m203.377 697.782-.641-18.683M215.106 931.15l-3.75-2.045M215.106 931.15 558.37 825.737" style="fill:none;stroke:#00ff4a;stroke-width:1.99999;stroke-linecap:round;stroke-linejoin:round;stroke-miterlimit:4;stroke-dasharray:none;stroke-opacity:1;visibility:visible"/><path d="m560.63 577.459-2.257 248.277M556.093 576.805l4.536.653" style="fill:none;stroke:#00ff4a;stroke-width:.999997;stroke-linecap:round;stroke-linejoin:round;stroke-miterlimit:4;stroke-dasharray:none;stroke-opacity:1;visibility:visible"/><path d="m211.895 882.671.099-.044.085-.07.065-.1.055-.125.037-.136.024-.168v-.168l-.006-.194-.031-.194-.047-.182-.054-.192-.083-.176-.079-.167-.094-.145-.106-.128-.112-.095-.112-.079-.106-.048-.11-.017-.097.012M205.551 699.877l.112-.036.09-.064.082-.105.067-.107.057-.147.037-.164.023-.176.007-.19-.015-.195-.043-.196-.042-.187-.059-.186-.075-.168-.102-.152-.098-.127-.098-.11-.112-.085-.11-.056-.117-.017-.107.008M206.455 725.813l.101-.045.094-.064.078-.092.066-.124.06-.146.038-.161.008-.176.003-.187-.01-.196-.037-.197-.042-.187-.072-.177-.074-.17-.098-.153-.103-.128-.096-.113-.112-.076-.115-.05-.112-.029-.109.019M601.642 839.981l-43.27-14.245" style="fill:none;stroke:#00ff4a;stroke-width:1.99999;stroke-linecap:round;stroke-linejoin:round;stroke-miterlimit:4;stroke-dasharray:none;stroke-opacity:1;visibility:visible"/><path d="m471.996 562.942.399-.08M475.155 562.842l-1.019.197-1.245-.177M472.395 562.862h.497M470.707 583.344l-.04-.053-.03-.05-.018-.037M470.963 583.627l-.255-.283M470.679 564.187l.25-.383M470.593 564.382l.007-.067.037-.06.041-.068M470.929 563.804l.041-.056.047-.05M471.16 583.739l-.07-.021-.067-.032-.059-.059" style="fill:none;stroke:#00ff4a;stroke-width:.999997;stroke-linecap:round;stroke-linejoin:round;stroke-miterlimit:4;stroke-dasharray:none;stroke-opacity:1;visibility:visible"/><path d="M475.155 562.842h.052l.044.003" style="fill:none;stroke:#00ff4a;stroke-width:1.99999;stroke-linecap:round;stroke-linejoin:round;stroke-miterlimit:4;stroke-dasharray:none;stroke-opacity:1;visibility:visible"/><path d="m470.619 583.202-.008-.01v-.009l.003-.01v-.01l-.014-.02v-.01M470.593 564.382l-.016.023v.028l-.003.017v.041" style="fill:none;stroke:#00ff4a;stroke-width:.999997;stroke-linecap:round;stroke-linejoin:round;stroke-miterlimit:4;stroke-dasharray:none;stroke-opacity:1;visibility:visible"/><path d="m475.252 562.844 181.112 25.89M560.434 598.025l95.301 15.257" style="fill:none;stroke:#00ff4a;stroke-width:1.99999;stroke-linecap:round;stroke-linejoin:round;stroke-miterlimit:4;stroke-dasharray:none;stroke-opacity:1;visibility:visible"/><path d="m470.6 583.133-.027-18.641" style="fill:none;stroke:#00ff4a;stroke-width:.999997;stroke-linecap:round;stroke-linejoin:round;stroke-miterlimit:4;stroke-dasharray:none;stroke-opacity:1;visibility:visible"/><path d="m458.267 511.053-.003.116M458.4 510.863l.38-.479M458.265 511.17h0M458.856 510.299l-.032.039-.044.046M458.4 510.863l-.044.057-.052.072M458.304 510.992l-.024.043-.013.017M474.535 509.871l.393.45M475.047 510.507l.003-.019-.02-.04M475.03 510.448l-.06-.068-.041-.057M474.535 509.871l-.05-.045-.026-.031M457.442 563.058h0M466.73 508.986h0" style="fill:none;stroke:#00ff4a;stroke-width:1.99999;stroke-linecap:round;stroke-linejoin:round;stroke-miterlimit:4;stroke-dasharray:none;stroke-opacity:1;visibility:visible"/><path d="m474.46 509.796-.123-.035-.122-.017M458.856 510.299l.112-.036.13-.025M476.093 562.514h0M457.442 563.058l.823-51.89M466.73 508.986l7.484.757M459.098 510.237l7.633-1.25M475.047 510.507l1.044 52.008M457.51 583.536l-.044-10.573M457.463 570.778l-.021-7.72M476.095 562.96l-.003-.445M651.017 858.817l10.69 3.533M663.575 862.417l8.719-2.956M672.292 859.462l.072-.028.047-.028.03-.035.007-.036M663.093 862.47h.143l.13-.019.11-.01.098-.024M662.228 862.44l.864.03M661.707 862.35l.119.044.129.017.127.022.146.005M679.959 531.29l-.483-.648M679.374 530.505l.039.065.062.071M679.959 531.29l.067.081.06.084M680.085 531.455l.01.01M660.606 531.025l-.05.041-.06.056-.573.555" style="fill:none;stroke:#00ff4a;stroke-width:1.99999;stroke-linecap:round;stroke-linejoin:round;stroke-miterlimit:4;stroke-dasharray:none;stroke-opacity:1;visibility:visible"/><path d="m659.924 531.676-.063.07-.07.074M659.79 531.82l-.008.03-.013.02M679.374 530.505l-.139-.03-.15-.022M668.994 529.43h0M660.84 530.96l-.117.028-.118.036M656.17 591.771h0M668.994 529.43l-8.153 1.53M668.994 529.43l10.09 1.024M656.17 591.771l3.599-59.9M680.095 531.464l-7.647 327.87M656.17 591.771l-5.279 256.223M650.85 850.239l-.167 8.099M208.21 881.126l-.083.035-.07.056-.066.074-.054.099-.048.104M208.42 883.39l.095.08.097.044.095.024.09.019.079-.016M207.773 881.865l-.028.12-.004.13.004.14.017.153.034.141.049.143.044.133.079.125.084.107.082.085M211.895 882.671l-3.02.87M211.222 880.256l-3.01.87M207.773 881.865l.116-.37M208.132 883.143l.29.25M202.84 724.06l-.087.036-.09.05-.072.078-.062.101-.062.119M202.885 726.326l.092.081.103.063.104.05.097.007.096-.013M202.345 724.81l-.037.123-.018.146v.147l.02.165.027.156.052.152.068.139.072.12.077.101M206.455 725.813l-3.08.699M205.92 723.361l-3.083.699M202.345 724.81l.121-.364M202.608 726.057l.276.27M201.95 698.096l-.087.028-.082.06-.08.077-.067.102-.055.125M201.965 700.356l.095.093.104.063.106.036.096.023.096-.018M201.442 698.84l-.035.124-.02.144.006.156.009.155.037.157.047.15.063.135.068.132.078.099M205.551 699.877l-3.087.677M205.049 697.417l-3.099.679M201.442 698.84l.137-.353M201.697 700.093l.268.263M202.707 678.338l-3.937-1.17-1.626.335-67.338-20.169M458.07 583.43l-329.24 63.83" style="fill:none;stroke:#00ff4a;stroke-width:1.99999;stroke-linecap:round;stroke-linejoin:round;stroke-miterlimit:4;stroke-dasharray:none;stroke-opacity:1;visibility:visible"/><path d="m471.455 583.787-4.656.908-8.33-1.345-.4.078" style="fill:none;stroke:#00ff4a;stroke-width:.999997;stroke-linecap:round;stroke-linejoin:round;stroke-miterlimit:4;stroke-dasharray:none;stroke-opacity:1;visibility:visible"/><path d="m128.658 650.24-.104-2.343M129.114 656.709l-.132-2.96M128.46 647.895l.368-.637M128.69 653.153l.296.596M129.806 657.333l-.695-.624M207.228 809.462l-3.893-1.667-1.604.411-66.641-28.652M205.236 751.56l-71.146 16.983M133.882 773.021l-.172-3.928M134.41 778.97l-.184-4.143M133.71 769.093l.377-.55M135.09 779.554l-.68-.583M134.728 772.94l-.08.028-.067.063-.072.082-.046.107M134.32 773.572l-.025.047-.01.048M134.799 772.925l-.072.015M134.32 773.572l.141-.353" style="fill:none;stroke:#00ff4a;stroke-width:1.99999;stroke-linecap:round;stroke-linejoin:round;stroke-miterlimit:4;stroke-dasharray:none;stroke-opacity:1;visibility:visible"/><path d="M206.93 698.094c.385 1.714-.408 3.352-1.768 3.656l-6.695 1.498c-1.361.308-2.775-.839-3.157-2.556-.388-1.715.407-3.35 1.764-3.658l6.697-1.496c1.36-.308 2.774.836 3.16 2.556" style="fill:none;fill-opacity:1;fill-rule:nonzero;stroke:#00ff4a;stroke-width:1.33333;visibility:visible"/><path d="m197.642 698.244 7.219-1.532M198.386 701.728l7.216-1.534M197.026 698.953l.417-.583M197.533 701.334l.623.36M197.888 698.286a.339.339 0 0 0-.248-.042.325.325 0 0 0-.195.126M198.155 701.69a.328.328 0 0 0 .44-.104M198.595 701.586c.113-.18.187-.376.207-.584M198.804 701.001c.04-.39.022-.785-.06-1.172a3.616 3.616 0 0 0-.424-1.088M198.32 698.74a1.31 1.31 0 0 0-.433-.448M197.02 698.961a.923.923 0 0 0-.15.421M196.869 699.384a2.675 2.675 0 0 0 .041.836c.058.278.158.541.307.782M197.214 701.001a.961.961 0 0 0 .308.325M205.106 696.753a.34.34 0 0 0-.246-.043M205.602 700.194a.327.327 0 0 0 .204-.14M205.089 696.745l.62.36M205.8 700.065l.42-.581M205.722 697.112l-.012-.01M206.22 699.485l.006-.012M206.227 699.473a.847.847 0 0 0 .144-.417M206.373 699.054a2.57 2.57 0 0 0-.343-1.622M206.033 697.432a1.133 1.133 0 0 0-.308-.319" style="fill:none;stroke:#00ff4a;stroke-width:.666665;stroke-linecap:round;stroke-linejoin:round;stroke-miterlimit:2;stroke-dasharray:none;stroke-opacity:1;visibility:visible"/><path d="m199.813 699.574 4.805-.969" style="fill:none;stroke:#00ff4a;stroke-width:.666665;stroke-linecap:round;stroke-linejoin:round;stroke-miterlimit:4;stroke-dasharray:none;stroke-opacity:1;visibility:visible"/><path d="M207.817 724.061c.385 1.715-.408 3.355-1.768 3.659l-6.695 1.498c-1.363.306-2.776-.842-3.157-2.557-.385-1.715.406-3.35 1.763-3.659l6.698-1.496c1.36-.306 2.776.836 3.159 2.555" style="fill:none;fill-opacity:1;fill-rule:nonzero;stroke:#00ff4a;stroke-width:1.33333;visibility:visible"/><path d="m198.528 724.213 7.217-1.532M199.272 727.698l7.215-1.534M197.913 724.921l.417-.583M198.418 727.304l.623.358M198.774 724.254a.345.345 0 0 0-.25-.042.337.337 0 0 0-.191.125M199.04 727.662a.323.323 0 0 0 .232.036.335.335 0 0 0 .208-.142M199.48 727.556c.111-.179.186-.376.208-.584M199.689 726.97c.04-.392.025-.785-.063-1.17a3.595 3.595 0 0 0-.42-1.092M199.205 724.708a1.321 1.321 0 0 0-.432-.448M197.905 724.93a.928.928 0 0 0-.15.423M197.756 725.353a2.519 2.519 0 0 0 .044.836c.053.28.154.54.3.781M198.1 726.97a.933.933 0 0 0 .31.324M205.989 722.721a.332.332 0 0 0-.244-.043M206.489 726.161a.319.319 0 0 0 .204-.139M205.975 722.714l.62.36M206.686 726.036l.417-.583M206.607 723.082l-.013-.009M207.106 725.454l.008-.012M207.113 725.441a.827.827 0 0 0 .144-.417M207.26 725.022a2.637 2.637 0 0 0-.343-1.622M206.918 723.401a1.097 1.097 0 0 0-.308-.319" style="fill:none;stroke:#00ff4a;stroke-width:.666665;stroke-linecap:round;stroke-linejoin:round;stroke-miterlimit:2;stroke-dasharray:none;stroke-opacity:1;visibility:visible"/><path d="m200.702 725.542 4.804-.968" style="fill:none;stroke:#00ff4a;stroke-width:.666665;stroke-linecap:round;stroke-linejoin:round;stroke-miterlimit:4;stroke-dasharray:none;stroke-opacity:1;visibility:visible"/><path d="M213.106 880.878c.385 1.715-.408 3.355-1.765 3.659l-6.698 1.497c-1.362.305-2.776-.84-3.157-2.557-.385-1.715.407-3.348 1.764-3.657l6.697-1.497c1.36-.306 2.774.837 3.16 2.555" style="fill:none;fill-opacity:1;fill-rule:nonzero;stroke:#00ff4a;stroke-width:1.33333;visibility:visible"/><path d="M212.207 880.217a1.08 1.08 0 0 0-.307-.32M203.817 881.029l7.218-1.532M204.56 884.515l7.22-1.534M203.202 881.738l.418-.583M203.706 884.12l.624.36M204.063 881.071c-.073-.041-.16-.061-.249-.041a.33.33 0 0 0-.193.124M204.329 884.477a.324.324 0 0 0 .44-.107M204.769 884.371c.111-.181.186-.376.208-.581M204.977 883.787a3.558 3.558 0 0 0-.058-1.17 3.593 3.593 0 0 0-.425-1.092M204.493 881.523a1.31 1.31 0 0 0-.433-.448M203.194 881.749a.903.903 0 0 0-.147.42M203.046 882.17a2.51 2.51 0 0 0 .041.835c.058.28.155.54.303.78M203.389 883.787a.937.937 0 0 0 .308.326M211.28 879.54a.335.335 0 0 0-.248-.046M211.78 882.98a.313.313 0 0 0 .2-.14M211.263 879.53l.62.36M211.975 882.851l.418-.581M211.897 879.897l-.014-.01M212.394 882.271c.003-.001.006-.01.008-.013M212.402 882.26a.86.86 0 0 0 .148-.42" style="fill:none;stroke:#00ff4a;stroke-width:.666665;stroke-linecap:round;stroke-linejoin:round;stroke-miterlimit:2;stroke-dasharray:none;stroke-opacity:1;visibility:visible"/><path d="M212.55 881.838a2.621 2.621 0 0 0-.344-1.623" style="fill:none;stroke:#00ff4a;stroke-width:.666665;stroke-linecap:round;stroke-linejoin:round;stroke-miterlimit:2;stroke-dasharray:none;stroke-opacity:1;visibility:visible"/><path d="m205.989 882.36 4.805-.97" style="fill:none;stroke:#00ff4a;stroke-width:.666665;stroke-linecap:round;stroke-linejoin:round;stroke-miterlimit:4;stroke-dasharray:none;stroke-opacity:1;visibility:visible"/><path d="m128.392 774.437 5.362-1.14M129.133 777.92l4.85-1.026M127.777 775.145l.417-.583M128.28 777.525l.626.36M128.64 774.48a.339.339 0 0 0-.25-.043.317.317 0 0 0-.193.125M128.905 777.885a.333.333 0 0 0 .44-.107M129.346 777.777a1.37 1.37 0 0 0 .208-.583M129.553 777.194a3.68 3.68 0 0 0-.063-1.172 3.576 3.576 0 0 0-.42-1.092M129.069 774.93a1.303 1.303 0 0 0-.43-.446M127.769 775.153a.939.939 0 0 0-.15.424M127.618 775.577a2.667 2.667 0 0 0 .042.836c.057.277.157.537.302.78M127.962 777.194a1.067 1.067 0 0 0 .311.326" style="fill:none;stroke:#00ff4a;stroke-width:.666665;stroke-linecap:round;stroke-linejoin:round;stroke-miterlimit:2;stroke-dasharray:none;stroke-opacity:1;visibility:visible"/><path d="m130.566 775.766 3.416-.69" style="fill:none;stroke:#00ff4a;stroke-width:.666665;stroke-linecap:round;stroke-linejoin:round;stroke-miterlimit:4;stroke-dasharray:none;stroke-opacity:1;visibility:visible"/><path d="m123.262 652.01 5.366-1.137M124.006 655.499l4.851-1.03M122.648 652.721l.417-.581M123.153 655.102l.623.36M123.51 652.055a.35.35 0 0 0-.249-.045.325.325 0 0 0-.193.127M123.774 655.46a.333.333 0 0 0 .232.037.333.333 0 0 0 .208-.144M124.214 655.353a1.31 1.31 0 0 0 .207-.582M124.424 654.77a3.591 3.591 0 0 0-.06-1.174 3.64 3.64 0 0 0-.424-1.091M123.938 652.505a1.33 1.33 0 0 0-.428-.445M122.64 652.73a.899.899 0 0 0-.147.42M122.49 653.153a2.525 2.525 0 0 0 .042.837 2.453 2.453 0 0 0 .302.78M122.834 654.77a.956.956 0 0 0 .311.324" style="fill:none;stroke:#00ff4a;stroke-width:.666665;stroke-linecap:round;stroke-linejoin:round;stroke-miterlimit:2;stroke-dasharray:none;stroke-opacity:1;visibility:visible"/><path d="m125.436 653.34 3.417-.688" style="fill:none;stroke:#00ff4a;stroke-width:.666665;stroke-linecap:round;stroke-linejoin:round;stroke-miterlimit:4;stroke-dasharray:none;stroke-opacity:1;visibility:visible"/><path d="m205.493 648.444 9.612 282.704" style="fill:none;stroke:#00ff4a;stroke-width:.999997;stroke-linecap:round;stroke-linejoin:round;stroke-miterlimit:4;stroke-dasharray:none;stroke-opacity:1;visibility:visible"/><path d="M451.219 576.567a3.312 3.312 0 0 1-3.904-2.583 3.313 3.313 0 0 1 2.584-3.905l10.87-2.207a3.31 3.31 0 1 1 1.317 6.488l-10.867 2.207" style="fill:none;fill-opacity:1;fill-rule:nonzero;stroke:#00ff4a;stroke-width:1.33333;visibility:visible"/><path d="m451.212 574.004 1.703-.37M452.59 572.101l-1.714.371" style="fill:none;stroke:#00ff4a;stroke-width:.666665;stroke-linecap:round;stroke-linejoin:round;stroke-miterlimit:2;stroke-dasharray:none;stroke-opacity:1;visibility:visible"/><path d="m455.716 572.207 3.93-.847M461.688 572.517a.152.152 0 0 1 .055-.02c.024-.009.041-.024.067-.034.018-.018.042-.03.057-.048a.39.39 0 0 0 .056-.067.647.647 0 0 0 .053-.077.76.76 0 0 0 .038-.091c.024-.033.03-.066.044-.105.01-.034.026-.072.03-.114.007-.041.016-.08.019-.12.008-.045.013-.085.016-.129l.01-.144c-.001-.045-.003-.093.005-.136l-.009-.152c-.004-.045-.007-.097-.021-.15 0-.05 0-.103-.012-.155l-.026-.109M462.07 570.865l-.011-.054c-.012-.046-.021-.095-.041-.142a1.097 1.097 0 0 0-.045-.145l-.055-.14a.833.833 0 0 0-.058-.136c-.018-.038-.037-.084-.06-.121-.026-.044-.038-.083-.065-.122-.021-.032-.047-.072-.07-.104a1.746 1.746 0 0 0-.074-.096c-.02-.028-.055-.062-.075-.088-.028-.02-.054-.047-.078-.067-.028-.025-.058-.04-.083-.059a.34.34 0 0 0-.081-.043c-.027-.017-.055-.024-.084-.032a.872.872 0 0 0-.08-.01c-.022.004-.047.004-.072.011M461.032 569.516l-8.568 1.852M453.115 574.368l8.568-1.85M452.09 572.183c.024-.443.153-.764.374-.811.172-.039.36.09.53.333M453.308 572.348c.039.12.076.25.104.387.18.825.044 1.553-.3 1.628-.22.049-.478-.193-.678-.593M463.227 571.673h0M462.055 569.153l-.008.002M462.692 572.472l-.008-.001M451.183 574.068a.26.26 0 0 0 .016-.061l.015-.124c0-.039.002-.084.005-.124 0-.05-.005-.092-.005-.135-.004-.05-.004-.09-.011-.137-.007-.044-.015-.091-.017-.138-.008-.045-.02-.086-.03-.129-.01-.052-.016-.1-.028-.145-.016-.042-.026-.086-.044-.131-.008-.041-.03-.084-.044-.125a1.388 1.388 0 0 0-.048-.119c-.017-.045-.044-.083-.057-.117-.025-.036-.041-.076-.059-.107-.026-.036-.05-.073-.076-.103a.36.36 0 0 0-.076-.082c-.022-.028-.044-.059-.072-.082-.03-.018-.054-.037-.081-.049-.021-.02-.047-.032-.076-.048-.027-.01-.052-.016-.077-.027a.365.365 0 0 0-.082-.008.235.235 0 0 0-.08.003c-.013 0-.021.005-.032.01M450.772 574.617a.12.12 0 0 0 .05-.016.428.428 0 0 0 .076-.029.274.274 0 0 0 .065-.05c.02-.021.04-.039.057-.059a.385.385 0 0 0 .047-.067.213.213 0 0 0 .043-.084c.02-.03.026-.061.048-.097.002-.035.016-.068.026-.112 0-.011.007-.024 0-.036M449.914 574.803l.853-.184M450.219 572.087l-.85.185M448.95 572.823a.644.644 0 0 1-.011.061.497.497 0 0 1-.015.121c.003.042-.004.083-.004.127l.01.136a1.147 1.147 0 0 0 .008.136c.005.045.012.092.016.139l.03.13.03.139c.016.047.028.087.04.133l.049.128.047.122a.836.836 0 0 0 .058.114.44.44 0 0 0 .063.107c.024.033.044.068.065.101.024.026.05.058.079.083.02.033.05.052.08.083.021.017.047.04.073.054.026.013.052.024.078.039.026.01.053.019.076.024.026.01.052.008.084.015a.363.363 0 0 0 .098-.012" style="fill:none;stroke:#00ff4a;stroke-width:.666665;stroke-linecap:round;stroke-linejoin:round;stroke-miterlimit:10;stroke-dasharray:none;stroke-opacity:1;visibility:visible"/><path d="m449.366 572.272-.05.013c-.025.012-.046.019-.076.035-.017.015-.04.029-.057.048a.765.765 0 0 0-.06.055.587.587 0 0 0-.096.154.757.757 0 0 0-.037.094c-.01.037-.023.073-.032.114l-.008.038M463.207 571.827a.33.33 0 0 0 .008-.072c.013-.038.015-.083.02-.131.005-.044.005-.092.01-.137a2.6 2.6 0 0 0-.001-.152c-.001-.047-.006-.092-.009-.152a1.805 1.805 0 0 0-.013-.156c0-.05-.01-.102-.018-.157-.008-.051-.021-.103-.033-.154a.684.684 0 0 0-.032-.156c-.013-.055-.023-.108-.036-.16-.019-.05-.03-.1-.044-.15-.021-.05-.043-.097-.059-.145-.017-.045-.038-.094-.053-.141a.907.907 0 0 1-.063-.132c-.021-.041-.046-.082-.062-.127-.03-.038-.05-.073-.074-.108-.025-.037-.044-.076-.078-.107-.023-.034-.046-.07-.075-.095a.572.572 0 0 0-.081-.079c-.026-.025-.044-.046-.075-.065a.304.304 0 0 0-.092-.051c-.025-.013-.05-.028-.079-.036a.39.39 0 0 0-.08-.021.193.193 0 0 0-.088.002c-.012-.002-.026.006-.053.01M462.766 572.452a.149.149 0 0 0 .054-.012c.03-.01.05-.023.067-.033a.22.22 0 0 0 .063-.05.364.364 0 0 0 .06-.06c.016-.024.033-.042.056-.073.012-.035.033-.059.049-.097.008-.028.028-.062.04-.098.01-.038.024-.077.032-.118.005-.028.008-.055.019-.086M462.692 572.472l.074-.021M462.055 569.153l-.076.015M462.058 572.115c.005.005.012.008.012.014.029.038.05.068.076.096.026.028.057.055.076.08l.086.068a.316.316 0 0 0 .088.048c.024.019.058.027.084.039a.327.327 0 0 0 .08.016.196.196 0 0 0 .08 0c.01 0 .029-.004.043-.01M461.98 569.168c-.025.004-.038.01-.062.016a.493.493 0 0 0-.131.083l-.059.058c-.018.028-.032.047-.048.08-.025.023-.03.052-.046.086-.015.036-.024.066-.04.108a.283.283 0 0 0-.029.109c-.009.017-.011.033-.019.047" style="fill:none;stroke:#00ff4a;stroke-width:.666665;stroke-linecap:round;stroke-linejoin:round;stroke-miterlimit:10;stroke-dasharray:none;stroke-opacity:1;visibility:visible"/><path d="m261.07 963.989-13.948-8.088M649.273 850.25l-34.763 11.493" style="fill:none;stroke:#00ff4a;stroke-width:.999997;stroke-linecap:round;stroke-linejoin:round;stroke-miterlimit:4;stroke-dasharray:none;stroke-opacity:1;visibility:visible"/><path d="m520.632 879.701.17.048.178.048.207.035.224.017.213.019.23.002.215-.014.214-.018.196-.032.174-.045.159-.053.135-.067.098-.052.068-.08.047-.065.003-.083-.023-.073-.06-.082-.093-.065-.116-.065-.151-.068-.17-.046-.178-.05-.204-.027-.23-.03-.213-.011-.224-.003-.213.01-.203.023-.21.031-.172.044-.156.053-.131.055-.107.065-.07.078-.042.066-.008.082.022.072.064.073.097.075.11.065.15.068M381.835 925.137l.156.061.167.05.197.037.21.036.205.021.232.004.21-.009.222-.027.197-.025.181-.044.176-.061.143-.059.112-.072.093-.081.056-.086.026-.078-.008-.087-.038-.08-.072-.087-.1-.081-.124-.07-.161-.057-.172-.05-.2-.04-.197-.032-.218-.024-.218-.003-.224.019-.212.013-.199.039-.187.04-.169.057-.141.059-.127.07-.081.084-.063.086-.025.072.002.09.052.079.067.083.103.089.129.064" style="fill:none;stroke:#00ff4a;stroke-width:.666665;stroke-linecap:round;stroke-linejoin:round;stroke-miterlimit:4;stroke-dasharray:none;stroke-opacity:1;visibility:visible"/><path d="m247.121 955.9-.057-.023-.052-.004M649.273 850.25l-39.765-11.896M649.504 856.592l.099-5.876" style="fill:none;stroke:#00ff4a;stroke-width:.999997;stroke-linecap:round;stroke-linejoin:round;stroke-miterlimit:4;stroke-dasharray:none;stroke-opacity:1;visibility:visible"/><path d="m247.361 962.777 3.084 1.815M251.976 965.485l4.117 2.424M246.903 956.137l.21 6.116M649.332 856.867l.07-.036.053-.064.033-.084.016-.09M247.012 955.873l-.052.033-.04.055-.012.084-.005.092M247.114 962.253l.015.108.017.097.045.104.046.088.064.074.062.054M649.332 856.867l-30.568 10.155M609.348 838.355l-362.335 117.52" style="fill:none;stroke:#00ff4a;stroke-width:1.99999;stroke-linecap:round;stroke-linejoin:round;stroke-miterlimit:4;stroke-dasharray:none;stroke-opacity:1;visibility:visible"/><path d="m658.06 845.946-.016-.055c-.018-.041-.034-.088-.058-.136a.645.645 0 0 0-.062-.137c-.02-.045-.047-.092-.067-.135-.024-.041-.045-.09-.073-.125a.592.592 0 0 0-.074-.113c-.03-.046-.049-.08-.08-.116a1.347 1.347 0 0 0-.165-.183c-.023-.028-.059-.056-.083-.079-.032-.017-.06-.044-.085-.06a1.027 1.027 0 0 0-.09-.049.256.256 0 0 0-.084-.032c-.03-.015-.058-.016-.087-.021-.02 0-.05-.003-.082 0-.02.005-.044.008-.072.017M656.878 844.722l-8.305 2.803M659.297 846.773c.003-.024.003-.048.003-.073a.997.997 0 0 0 .005-.131c0-.046-.008-.092-.008-.135a2.904 2.904 0 0 0-.019-.15c-.005-.05-.017-.096-.025-.156-.01-.045-.016-.095-.03-.153-.006-.048-.023-.097-.033-.152a4.06 4.06 0 0 1-.052-.15.607.607 0 0 0-.05-.151l-.054-.156c-.024-.047-.04-.097-.06-.143-.026-.049-.052-.092-.073-.138l-.073-.135a1.295 1.295 0 0 1-.074-.123c-.024-.04-.056-.077-.077-.116-.032-.038-.057-.073-.083-.101-.029-.035-.054-.072-.089-.1-.028-.03-.055-.061-.085-.085a.821.821 0 0 0-.092-.068c-.028-.023-.05-.042-.084-.057a.323.323 0 0 0-.092-.041c-.03-.009-.055-.019-.084-.026a.425.425 0 0 0-.083-.013.19.19 0 0 0-.087.014c-.013-.001-.025.007-.052.013M658.932 847.446a.773.773 0 0 0 .052-.016c.029-.013.046-.032.065-.044a.27.27 0 0 0 .055-.056.237.237 0 0 0 .052-.068l.044-.077c.011-.035.031-.065.041-.1.001-.031.019-.065.03-.103.004-.04.014-.08.017-.12.004-.032.004-.056.008-.09M658.86 847.473l.072-.028M657.854 844.245l-.073.025M658.19 847.189c.006.004.012.006.016.013a.753.753 0 0 0 .086.087c.028.024.062.046.081.068.036.025.065.041.095.061a.476.476 0 0 0 .092.037c.024.016.06.022.085.03.027.005.061.005.087.009a.255.255 0 0 0 .076-.01c.012-.006.03-.008.044-.016" style="fill:none;stroke:#00ff4a;stroke-width:.666665;stroke-linecap:round;stroke-linejoin:round;stroke-miterlimit:10;stroke-dasharray:none;stroke-opacity:1;visibility:visible"/><path d="M657.78 844.267a.285.285 0 0 0-.06.024.168.168 0 0 0-.055.039.344.344 0 0 0-.065.056l-.051.068c-.017.028-.025.048-.041.084-.022.027-.024.053-.036.09-.012.036-.016.07-.026.112a.32.32 0 0 0-.02.11c-.006.019-.006.032-.009.052M657.868 847.63c.018-.013.038-.02.052-.027.024-.012.037-.029.062-.041l.055-.055a.436.436 0 0 0 .044-.072c.016-.028.032-.048.047-.082a1.072 1.072 0 0 0 .026-.094c.019-.037.022-.069.034-.109.002-.039.012-.075.016-.119 0-.04.005-.08.005-.118a.76.76 0 0 0 .003-.135c-.006-.05-.006-.092-.008-.141-.006-.044-.014-.092-.011-.139-.008-.05-.019-.095-.025-.147a.903.903 0 0 0-.036-.146.827.827 0 0 0-.032-.155c-.014-.03-.027-.072-.04-.105M659.3 846.62h0M657.854 844.245l-.008.002M658.86 847.473l-.008-.003" style="fill:none;stroke:#00ff4a;stroke-width:.666665;stroke-linecap:round;stroke-linejoin:round;stroke-miterlimit:10;stroke-dasharray:none;stroke-opacity:1;visibility:visible"/><path d="M255.634 963.488c.547 1.67-.084 3.376-1.413 3.812l-6.522 2.124c-1.326.434-2.839-.573-3.385-2.244-.548-1.67.086-3.376 1.407-3.809l6.525-2.127c1.328-.434 2.841.57 3.388 2.244" style="fill:none;fill-opacity:1;fill-rule:nonzero;stroke:#00ff4a;stroke-width:1.33333;visibility:visible"/><path d="m246.4 964.52 7.04-2.212M247.473 967.92l7.037-2.214M245.855 965.284l.362-.618M246.585 967.608l.653.298M246.653 964.54a.355.355 0 0 0-.25-.02.324.324 0 0 0-.186.146M247.238 967.904a.34.34 0 0 0 .235.016.357.357 0 0 0 .193-.162M247.667 967.758a1.43 1.43 0 0 0 .15-.603M247.818 967.155a3.723 3.723 0 0 0-.696-2.207M247.12 964.948a1.347 1.347 0 0 0-.47-.405M245.85 965.295a.89.89 0 0 0-.11.433M245.74 965.728c-.004.28.036.562.12.83.083.272.21.524.376.748M246.235 967.306a.965.965 0 0 0 .342.297M253.689 962.33a.337.337 0 0 0-.25-.022M254.51 965.707a.325.325 0 0 0 .192-.161M253.67 962.32l.652.296M254.697 965.56l.361-.618M254.337 962.627c-.008-.003-.011-.007-.015-.01M255.055 964.942c.003-.002.006-.01.008-.014M255.063 964.928a.885.885 0 0 0 .107-.43M255.17 964.498a2.47 2.47 0 0 0-.117-.828 2.645 2.645 0 0 0-.378-.754M254.675 962.916a1.065 1.065 0 0 0-.338-.29" style="fill:none;stroke:#00ff4a;stroke-width:.666665;stroke-linecap:round;stroke-linejoin:round;stroke-miterlimit:2;stroke-dasharray:none;stroke-opacity:1;visibility:visible"/><path d="m248.689 965.638 4.691-1.416M211.353 929.105l.594-10.978M206.983 802.355l.672-9.25M203.088 800.711l4.567-7.606M202.426 670.231l.638-11.044M205.493 648.444l-2.429 10.743" style="fill:none;stroke:#00ff4a;stroke-width:.666665;stroke-linecap:round;stroke-linejoin:round;stroke-miterlimit:4;stroke-dasharray:none;stroke-opacity:1;visibility:visible"/><path d="m563.862 806.551-5.306-.136M658.852 847.47l-7.7-11.892M658.852 847.47l-7.662-14.092M556.093 576.805l-1.253.248M465.658 509.874l1.699 2.29" style="fill:none;stroke:#00ff4a;stroke-width:.999997;stroke-linecap:round;stroke-linejoin:round;stroke-miterlimit:4;stroke-dasharray:none;stroke-opacity:1;visibility:visible"/><path d="m462.766 572.452-1.145 2.998M471.16 583.739l-9.539-8.289" style="fill:none;stroke:#00ff4a;stroke-width:.666665;stroke-linecap:round;stroke-linejoin:round;stroke-miterlimit:4;stroke-dasharray:none;stroke-opacity:1;visibility:visible"/><path d="m467.357 512.164-1.699-2.29M466.731 508.986l-1.073.888M470.6 583.133l-4.288 1.484" style="fill:none;stroke:#00ff4a;stroke-width:.999997;stroke-linecap:round;stroke-linejoin:round;stroke-miterlimit:4;stroke-dasharray:none;stroke-opacity:1;visibility:visible"/><path d="m658.86 847.473-1.046 4.412" style="fill:none;stroke:#00ff4a;stroke-width:.666665;stroke-linecap:round;stroke-linejoin:round;stroke-miterlimit:4;stroke-dasharray:none;stroke-opacity:1;visibility:visible"/><path d="m668.994 529.43 2.031 1.063M670.397 532.91l.628-2.417M668.994 529.43l2.612 3.448M202.736 679.1l-3.966-1.934M207.228 809.462l-3.893-1.667" style="fill:none;stroke:#00ff4a;stroke-width:.999997;stroke-linecap:round;stroke-linejoin:round;stroke-miterlimit:4;stroke-dasharray:none;stroke-opacity:1;visibility:visible"/><path d="m204.273 723.729.083 2.56M209.77 883.282l-.086-2.578M204.356 726.289l-.083-2.56M203.377 697.782l.092 2.556M203.469 700.338l-.092-2.556M609.508 838.354l-7.866 1.627M457.463 570.778l.003 2.185M457.466 572.963l-.003-2.185M650.85 850.239l.041-2.245M650.891 847.994l-.041 2.245" style="fill:none;stroke:#00ff4a;stroke-width:1.99999;stroke-linecap:round;stroke-linejoin:round;stroke-miterlimit:4;stroke-dasharray:none;stroke-opacity:1;visibility:visible"/><path d="m202.832 698.998 4.098-.904M202.831 698.998l4.1-.904" style="fill:none;fill-opacity:1;fill-rule:nonzero;stroke:#00ff4a;stroke-width:1.33333;visibility:visible"/><path d="m202.462 700.553-2.649-.979M205.602 700.194l-.984-1.589" style="fill:none;stroke:#00ff4a;stroke-width:.666665;stroke-linecap:round;stroke-linejoin:round;stroke-miterlimit:4;stroke-dasharray:none;stroke-opacity:1;visibility:visible"/><path d="m203.738 724.981 4.079-.92" style="fill:none;fill-opacity:1;fill-rule:nonzero;stroke:#00ff4a;stroke-width:1.33333;visibility:visible"/><path d="m203.377 726.514-2.675-.972M205.923 723.361l-.417 1.213" style="fill:none;stroke:#00ff4a;stroke-width:.666665;stroke-linecap:round;stroke-linejoin:round;stroke-miterlimit:4;stroke-dasharray:none;stroke-opacity:1;visibility:visible"/><path d="m209.164 882.141 3.943-1.263" style="fill:none;fill-opacity:1;fill-rule:nonzero;stroke:#00ff4a;stroke-width:1.33333;visibility:visible"/><path d="m208.876 883.54-2.887-1.18M211.223 880.255l-.429 1.135" style="fill:none;stroke:#00ff4a;stroke-width:.666665;stroke-linecap:round;stroke-linejoin:round;stroke-miterlimit:4;stroke-dasharray:none;stroke-opacity:1;visibility:visible"/><path d="m130.566 775.766 3.417 1.128" style="fill:none;stroke:#00ff4a;stroke-width:.666665;stroke-linecap:round;stroke-linejoin:round;stroke-miterlimit:2;stroke-dasharray:none;stroke-opacity:1;visibility:visible"/><path d="m133.983 776.894-3.417-1.128M128.857 654.469l-3.421-1.129" style="fill:none;stroke:#00ff4a;stroke-width:.666665;stroke-linecap:round;stroke-linejoin:round;stroke-miterlimit:4;stroke-dasharray:none;stroke-opacity:1;visibility:visible"/><path d="m449.914 574.803 1.305 1.764M450.767 574.619l.452 1.948" style="fill:none;fill-opacity:1;fill-rule:nonzero;stroke:#00ff4a;stroke-width:1.33333;visibility:visible"/><path d="m452.59 572.101 3.126.106M461.038 569.517l-1.392 1.843" style="fill:none;stroke:#00ff4a;stroke-width:.666665;stroke-linecap:round;stroke-linejoin:round;stroke-miterlimit:10;stroke-dasharray:none;stroke-opacity:1;visibility:visible"/><path d="m254.337 962.626 6.733 1.363" style="fill:none;stroke:#00ff4a;stroke-width:.999997;stroke-linecap:round;stroke-linejoin:round;stroke-miterlimit:4;stroke-dasharray:none;stroke-opacity:1;visibility:visible"/><path d="m251.976 965.485-1.531-.893M250.445 964.592l1.531.893M254.337 962.626l1.756 5.283" style="fill:none;stroke:#00ff4a;stroke-width:1.99999;stroke-linecap:round;stroke-linejoin:round;stroke-miterlimit:4;stroke-dasharray:none;stroke-opacity:1;visibility:visible"/><path d="m649.273 850.25-.7-2.725" style="fill:none;stroke:#00ff4a;stroke-width:.666665;stroke-linecap:round;stroke-linejoin:round;stroke-miterlimit:10;stroke-dasharray:none;stroke-opacity:1;visibility:visible"/><path d="m253.44 962.308-4.751 3.33M254.51 965.707l-1.13-1.485" style="fill:none;stroke:#00ff4a;stroke-width:.666665;stroke-linecap:round;stroke-linejoin:round;stroke-miterlimit:4;stroke-dasharray:none;stroke-opacity:1;visibility:visible"/><path d="m612.384 867.303 2.126-5.56" style="fill:none;stroke:#00ff4a;stroke-width:.999997;stroke-linecap:round;stroke-linejoin:round;stroke-miterlimit:4;stroke-dasharray:none;stroke-opacity:1;visibility:visible"/><path d="m612.384 867.303 6.38-.281" style="fill:none;stroke:#00ff4a;stroke-width:1.99999;stroke-linecap:round;stroke-linejoin:round;stroke-miterlimit:4;stroke-dasharray:none;stroke-opacity:1;visibility:visible"/><path d="m256.093 967.909-.459-4.421M254.337 962.626l1.297.862" style="fill:none;fill-opacity:1;fill-rule:nonzero;stroke:#00ff4a;stroke-width:1.33333;visibility:visible"/></svg>