<svg xmlns="http://www.w3.org/2000/svg" baseProfile="full" height="1122.52" preserveAspectRatio="xMinYMin meet" style="width:904px;height:1119px" width="793.701" xml:space="preserve"><path d="m331.189 795.566 6.983 3.264" style="fill:none;fill-opacity:1;fill-rule:nonzero;stroke:red;stroke-width:1.33333;visibility:visible" visibility="hidden"/><path d="m614.628 404.804.134-4.549M614.381 389.733l.655 1.037" style="fill:none;stroke:red;stroke-width:1.99999;stroke-linecap:round;stroke-linejoin:round;stroke-miterlimit:4;stroke-dasharray:none;stroke-opacity:1;visibility:visible" visibility="hidden"/><path d="m328.009 646.084 8.264 145.932M328.01 646.084l6.139-5.164M334.149 640.921l-.94-17.057M615.037 390.771 333.208 623.864M618.212 401.795l-3.584 3.01" style="fill:none;stroke:red;stroke-width:.999997;stroke-linecap:round;stroke-linejoin:round;stroke-miterlimit:4;stroke-dasharray:none;stroke-opacity:1;visibility:visible" visibility="hidden"/><path d="m337.712 790.629-1.44 1.388" style="fill:none;stroke:red;stroke-width:1.99999;stroke-linecap:round;stroke-linejoin:round;stroke-miterlimit:4;stroke-dasharray:none;stroke-opacity:1;visibility:visible" visibility="hidden"/><path d="m338.172 798.83-.46-8.2" style="fill:none;stroke:red;stroke-width:.999997;stroke-linecap:round;stroke-linejoin:round;stroke-miterlimit:4;stroke-dasharray:none;stroke-opacity:1;visibility:visible" visibility="hidden"/><path d="m529.084 601.815.16-.175.159-.205.166-.235.151-.264.144-.283.152-.302.12-.321.123-.335.108-.345.097-.341.075-.358.071-.356.038-.346.041-.329.006-.328v-.31l-.019-.304-.03-.262-.061-.25-.074-.216-.075-.19-.099-.164-.109-.11-.13-.099-.132-.043-.142-.024-.148.023-.156.061-.159.083-.174.132-.162.157-.172.18-.158.224-.151.25-.163.28-.144.283-.134.322-.133.322-.106.35-.103.341-.085.363-.079.349-.045.347-.045.345-.024.333-.006.322.006.301.034.277.048.268.066.23.074.209.087.17.103.141.117.101.132.073.143.033.152-.01.149-.037.153-.076.169-.108.174-.144M593.379 539.759l.14-.156.146-.178.129-.22.15-.238.126-.262.129-.268.12-.306.105-.307.104-.32.087-.33.075-.327.054-.327.05-.33.036-.32.018-.31-.003-.307-.004-.273-.02-.26-.053-.24-.056-.216-.06-.184-.082-.16-.091-.125-.112-.095-.107-.052-.123-.04-.126.013-.142.047-.138.076-.155.101-.139.142-.15.173-.144.192-.136.228-.137.25-.126.27-.127.281-.116.309-.104.32-.09.325-.085.331-.066.325-.057.337-.034.328-.03.32-.016.294.011.294.027.273.027.254.046.216.059.205.083.17.078.134.113.12.106.074.114.042.129.012.133-.032.135-.055.15-.097.15-.12M370.248 755.128l.228-.243.218-.259.2-.298.198-.32.19-.351.188-.368.157-.373.153-.398.13-.406.112-.412.084-.403.073-.4.041-.399.027-.377.003-.371-.023-.331-.04-.313-.067-.301-.089-.26-.111-.221-.12-.191-.15-.157-.16-.098-.175-.073-.193-.039-.195.028-.212.05-.217.093-.226.148-.214.165-.228.214-.212.248-.222.288-.198.297-.204.35-.19.356-.17.374-.154.385-.148.404-.112.408-.105.41-.079.404-.056.406-.03.39-.015.368.008.357.028.328.057.303.082.284.102.233.106.212.141.165.153.128.172.099.186.047.196-.003.213-.039.201-.07.224-.127.214-.15.23-.19" style="fill:none;stroke:red;stroke-width:.666665;stroke-linecap:round;stroke-linejoin:round;stroke-miterlimit:4;stroke-dasharray:none;stroke-opacity:1;visibility:visible" visibility="hidden"/><path d="m320.88 643.884 5.687 2.4M326.653 620.157l5.694 2.36" style="fill:none;stroke:red;stroke-width:.999997;stroke-linecap:round;stroke-linejoin:round;stroke-miterlimit:4;stroke-dasharray:none;stroke-opacity:1;visibility:visible" visibility="hidden"/><path d="m330.898 790.385 3.982 1.86" style="fill:none;stroke:red;stroke-width:1.99999;stroke-linecap:round;stroke-linejoin:round;stroke-miterlimit:4;stroke-dasharray:none;stroke-opacity:1;visibility:visible" visibility="hidden"/><path d="m527.477 600.401.008.034-.002.037.002.021v.023l-.002.036.002.019M368.075 752.213l.08.07.081.084.086.095.058.095.1.196.071.212.023.195.016.196-.014.204-.058.19-.078.195-.106.163-.07.082-.08.074-.092.072-.092.057" style="fill:none;stroke:red;stroke-width:.666665;stroke-linecap:round;stroke-linejoin:round;stroke-miterlimit:4;stroke-dasharray:none;stroke-opacity:1;visibility:visible" visibility="hidden"/><path d="m328.01 646.084-1.445.199M320.711 643.001l.17.883M329.977 629.89l-.2-.074-.187-.021-.18.025-.147.06-.145.107-.113.125-.086.177-.053.198-.03.22.002.237.047.25.069.256.09.253.128.24.145.237.153.21.188.183.184.157.193.12.2.081.19.048.181-.006.177-.043.14-.082.118-.119.109-.146.07-.18.044-.207.018-.241-.023-.246-.059-.244-.079-.258-.112-.262-.135-.23-.159-.222-.164-.201-.2-.16-.185-.147-.19-.095M326.866 637.863l7.283 3.057M332.346 622.515l.861 1.35" style="fill:none;stroke:red;stroke-width:.999997;stroke-linecap:round;stroke-linejoin:round;stroke-miterlimit:4;stroke-dasharray:none;stroke-opacity:1;visibility:visible" visibility="hidden"/><path d="m329.44 789.703-.172-.937M617.908 401.263l.305.532M329.44 789.703l1.46.683M609.636 388.235l-282.983 231.92M609.636 388.235l4.746 1.498M613.505 530.162l.203-6.868M613.505 530.161 338.172 798.83l-6.984-3.264-.29-5.183M614.761 400.255l.275-9.484M613.71 523.295l.85-.833 3.653-120.668M329.267 788.766l-8.556-145.765 6.154-5.138-.971-17.034M614.761 400.255l3.145 1.007M334.88 792.242l1.392-.227" style="fill:none;stroke:red;stroke-width:1.99999;stroke-linecap:round;stroke-linejoin:round;stroke-miterlimit:4;stroke-dasharray:none;stroke-opacity:1;visibility:visible" visibility="hidden"/><path d="M331.787 629.755c1.255 1.425 1.358 3.392.226 4.389l-5.575 4.899c-1.132.997-3.067.642-4.32-.786-1.258-1.426-1.358-3.392-.225-4.385l5.573-4.899c1.128-1 3.067-.646 4.321.782" style="fill:none;fill-opacity:1;fill-rule:nonzero;stroke:red;stroke-width:1.33333;visibility:visible" visibility="hidden"/><path d="m323.057 634.723 6.048-5.204M325.571 637.641l6.049-5.205M322.84 635.716l.096-.77M324.56 637.71l.776.019M323.315 634.636a.36.36 0 0 0-.377.308M325.335 637.727a.364.364 0 0 0 .239-.087.364.364 0 0 0 .123-.243M325.695 637.397a1.502 1.502 0 0 0-.105-.661M325.59 636.736a3.914 3.914 0 0 0-.667-1.081 3.92 3.92 0 0 0-.966-.816M323.957 634.839a1.456 1.456 0 0 0-.64-.2M322.84 635.727a.955.955 0 0 0 .077.477M322.917 636.205c.113.283.276.546.473.772.2.235.431.43.695.588M324.085 637.563a1.064 1.064 0 0 0 .46.145M329.358 629.433a.379.379 0 0 0-.252.084M331.62 632.436a.336.336 0 0 0 .121-.24M329.34 629.433l.776.019M331.742 632.215l.092-.77M330.133 629.452l-.014-.002M331.835 631.444c0-.001 0-.01.006-.016M331.84 631.428a1.004 1.004 0 0 0-.08-.472M331.76 630.956a2.75 2.75 0 0 0-.473-.776 2.924 2.924 0 0 0-.697-.585M330.591 629.595a1.053 1.053 0 0 0-.46-.142" style="fill:none;stroke:red;stroke-width:.666665;stroke-linecap:round;stroke-linejoin:round;stroke-miterlimit:2;stroke-dasharray:none;stroke-opacity:1;visibility:visible" visibility="hidden"/><path d="m325.807 634.855 4.054-3.415" style="fill:none;stroke:red;stroke-width:.666665;stroke-linecap:round;stroke-linejoin:round;stroke-miterlimit:4;stroke-dasharray:none;stroke-opacity:1;visibility:visible" visibility="hidden"/><path d="m614.57 395.987 2.691-2.28M614.822 400.464l4.75-4.026M617.5 393.63a.328.328 0 0 0-.24.076M619.572 396.438a.324.324 0 0 0 .12-.222M617.482 393.628l.723.023M619.692 396.234l.092-.716M618.213 393.651h-.01M619.785 395.52c0-.007 0-.01.003-.017M619.786 395.503a.92.92 0 0 0-.066-.441M619.72 395.063a2.539 2.539 0 0 0-.436-.723c-.186-.217-.4-.4-.639-.55M618.646 393.788a1.067 1.067 0 0 0-.432-.137" style="fill:none;stroke:red;stroke-width:.666665;stroke-linecap:round;stroke-linejoin:round;stroke-miterlimit:2;stroke-dasharray:none;stroke-opacity:1;visibility:visible" visibility="hidden"/><path d="m614.917 398.022 2.953-2.502" style="fill:none;stroke:red;stroke-width:.666665;stroke-linecap:round;stroke-linejoin:round;stroke-miterlimit:4;stroke-dasharray:none;stroke-opacity:1;visibility:visible" visibility="hidden"/><path d="m393.315 746.208.08 3.526M389.772 747.998l.042 1.812M393.3 749.968a.32.32 0 0 0 .091-.235M389.812 749.812a.32.32 0 0 0 .098.23M393.314 749.953l-.472.547M389.899 750.03l.496.524M392.834 750.508a.036.036 0 0 0 .006-.008M390.395 750.553a.016.016 0 0 1 .01.01M390.404 750.564a.924.924 0 0 0 .387.226M390.791 750.79c.27.083.55.124.836.116.284-.01.563-.058.83-.148M392.456 750.757a1.048 1.048 0 0 0 .378-.25" style="fill:none;stroke:red;stroke-width:.666665;stroke-linecap:round;stroke-linejoin:round;stroke-miterlimit:2;stroke-dasharray:none;stroke-opacity:1;visibility:visible" visibility="hidden"/><path d="m391.546 746.616.053 2.446" style="fill:none;stroke:red;stroke-width:.666665;stroke-linecap:round;stroke-linejoin:round;stroke-miterlimit:4;stroke-dasharray:none;stroke-opacity:1;visibility:visible" visibility="hidden"/><path d="m575.764 568.688.079 3.528M572.221 570.481l.04 1.812M575.748 572.45a.32.32 0 0 0 .092-.235M572.261 572.295a.328.328 0 0 0 .099.23M575.761 572.436l-.471.548M572.348 572.512l.496.525M575.284 572.99l.005-.005M572.844 573.036a.016.016 0 0 1 .01.01M572.852 573.045a.885.885 0 0 0 .387.228M573.239 573.272a2.641 2.641 0 0 0 1.664-.032M574.904 573.241a1.113 1.113 0 0 0 .38-.249" style="fill:none;stroke:red;stroke-width:.666665;stroke-linecap:round;stroke-linejoin:round;stroke-miterlimit:2;stroke-dasharray:none;stroke-opacity:1;visibility:visible" visibility="hidden"/><path d="m573.995 569.099.053 2.446" style="fill:none;stroke:red;stroke-width:.666665;stroke-linecap:round;stroke-linejoin:round;stroke-miterlimit:4;stroke-dasharray:none;stroke-opacity:1;visibility:visible" visibility="hidden"/><path d="m334.88 792.245-3.691 3.321" style="fill:none;fill-opacity:1;fill-rule:nonzero;stroke:red;stroke-width:1.33333;visibility:visible" visibility="hidden"/><path d="m326.567 646.284.299-8.421" style="fill:none;stroke:red;stroke-width:.999997;stroke-linecap:round;stroke-linejoin:round;stroke-miterlimit:4;stroke-dasharray:none;stroke-opacity:1;visibility:visible" visibility="hidden"/><path d="m331.835 631.444-5.941-10.615" style="fill:none;stroke:red;stroke-width:1.99999;stroke-linecap:round;stroke-linejoin:round;stroke-miterlimit:4;stroke-dasharray:none;stroke-opacity:1;visibility:visible" visibility="hidden"/><path d="m329.105 629.519-3.298 5.336M331.62 632.436l-1.759-.996" style="fill:none;stroke:red;stroke-width:.666665;stroke-linecap:round;stroke-linejoin:round;stroke-miterlimit:4;stroke-dasharray:none;stroke-opacity:1;visibility:visible" visibility="hidden"/><path d="m617.87 395.52-3.3.467" style="fill:none;stroke:red;stroke-width:.666665;stroke-linecap:round;stroke-linejoin:round;stroke-miterlimit:2;stroke-dasharray:none;stroke-opacity:1;visibility:visible" visibility="hidden"/><path d="m617.261 393.707-2.344 4.315M617.26 393.706l.61 1.814" style="fill:none;stroke:red;stroke-width:.666665;stroke-linecap:round;stroke-linejoin:round;stroke-miterlimit:4;stroke-dasharray:none;stroke-opacity:1;visibility:visible" visibility="hidden"/><path d="m391.599 749.062 1.716-2.854M391.599 749.062l-1.827-1.064" style="fill:none;stroke:red;stroke-width:.666665;stroke-linecap:round;stroke-linejoin:round;stroke-miterlimit:2;stroke-dasharray:none;stroke-opacity:1;visibility:visible" visibility="hidden"/><path d="m393.395 749.734-1.849-3.118M393.391 749.733l-1.792-.671" style="fill:none;stroke:red;stroke-width:.666665;stroke-linecap:round;stroke-linejoin:round;stroke-miterlimit:4;stroke-dasharray:none;stroke-opacity:1;visibility:visible" visibility="hidden"/><path d="m574.048 571.545 1.716-2.857M574.048 571.545l-1.827-1.064" style="fill:none;stroke:red;stroke-width:.666665;stroke-linecap:round;stroke-linejoin:round;stroke-miterlimit:2;stroke-dasharray:none;stroke-opacity:1;visibility:visible" visibility="hidden"/><path d="m575.843 572.216-1.848-3.117M575.84 572.215l-1.792-.67" style="fill:none;stroke:red;stroke-width:.666665;stroke-linecap:round;stroke-linejoin:round;stroke-miterlimit:4;stroke-dasharray:none;stroke-opacity:1;visibility:visible" visibility="hidden"/><path d="m98.57 741.313 265.59 116.349M364.16 857.662l144.975-143.646M526.648 696.665 640.645 583.71" style="fill:none;stroke:#00ff4a;stroke-width:.999997;stroke-linecap:round;stroke-linejoin:round;stroke-miterlimit:4;stroke-dasharray:none;stroke-opacity:1;visibility:visible" visibility="hidden"/><path d="m503.365 705.124-.193-.084-.17-.108-.139-.114-.105-.12-.086-.132-.039-.14-.008-.15.016-.136.063-.138.096-.128.12-.114.141-.106.183-.097.191-.075.21-.052.223-.04.235-.012h.233l.224.032.221.046.211.07.19.084.162.098.139.112.117.132.067.132.05.142.013.136-.02.138-.062.138-.093.135-.12.117-.155.106-.168.097-.19.073-.221.052-.221.032-.237.02-.226-.008-.232-.025-.22-.048-.201-.065M607.572 602.855l-.178-.078-.162-.086-.15-.102-.104-.108-.084-.108-.048-.122-.022-.122.014-.129.048-.113.076-.117.103-.102.13-.087.157-.088.184-.065.196-.043.194-.033.228-.015h.206l.216.036.208.031.205.068.181.067.16.086.133.1.115.108.075.119.052.124.025.121-.014.12-.047.123-.069.109-.115.111-.125.084-.166.08-.172.061-.192.059-.214.03-.206.013-.22-.014-.22-.021-.206-.041-.192-.056" style="fill:none;stroke:#00ff4a;stroke-width:.666665;stroke-linecap:round;stroke-linejoin:round;stroke-miterlimit:4;stroke-dasharray:none;stroke-opacity:1;visibility:visible" visibility="hidden"/><path d="m364.5 841.398-.33-.12-.329-.1-.351-.083-.363-.048-.375-.021h-.37l-.378.021-.364.048-.364.083-.349.1-.336.12-.313.144-.294.17-.266.179-.23.189-.213.222-.167.224-.14.239-.107.238-.058.243-.028.25.012.254.047.239.098.244.116.23.172.219.195.21.223.192.265.176.28.157.304.129.333.112.346.09.361.059.364.04.37.009.379-.009.374-.04.361-.06.359-.089.348-.112.324-.13.297-.156.29-.177.249-.19.222-.211.187-.219.153-.23.123-.244.084-.239.043-.253.001-.251-.028-.243-.075-.238-.112-.239-.14-.224-.188-.21-.209-.199-.241-.182-.274-.17-.288-.143M236.702 785.965l-.29-.112-.321-.088-.331-.075-.355-.054-.346-.022h-.369l-.355.022-.365.054-.352.075-.35.088-.324.112-.318.139-.299.148-.265.18-.252.18-.216.194-.173.219-.162.215-.114.222-.079.24-.046.223-.006.239.036.224.067.222.106.217.137.203.175.196.206.186.239.162.258.146.292.123.31.102.323.081.344.059.348.035.366.018.364-.017.368-.036.352-.059.354-.081.338-.102.328-.123.294-.146.288-.162.26-.186.227-.196.208-.204.165-.215.128-.222.095-.226.072-.238.012-.225-.012-.237-.05-.223-.081-.216-.127-.218-.155-.194-.199-.18-.22-.18-.247-.148-.28-.14M121.425 735.956l-.284-.104-.299-.086-.322-.061-.33-.055-.345-.018h-.345l-.356.018-.351.055-.345.061-.35.086-.322.104-.323.134-.296.135-.264.168-.255.165-.225.192-.184.196-.167.211-.132.208-.094.221-.058.219-.025.21.025.219.046.206.081.2.123.198.148.178.198.166.214.16.245.135.272.117.288.102.313.072.326.052.336.044.349.009.355-.01.358-.043.351-.052.343-.072.336-.102.328-.117.297-.135.287-.16.265-.166.233-.178.21-.185.184-.213.144-.207.101-.217.083-.211.032-.219.008-.221-.039-.208-.07-.21-.099-.197-.14-.192-.164-.165-.203-.168-.239-.135-.253-.134M625.358 585.401l-.284-.09-.298-.076-.308-.056-.304-.031-.319-.024h-.319l-.316.024-.308.03-.288.058-.28.074-.272.09-.236.096-.233.113-.201.135-.17.141-.142.155-.12.156-.086.176-.046.165-.03.175.016.177.043.178.077.176.107.177.137.167.16.153.199.143.217.141.236.127.266.112.277.084.297.088.295.055.325.055.31.02.318.011.312-.01.314-.021.3-.055.29-.055.266-.076.262-.096.231-.113.22-.126.184-.141.16-.143.128-.153.103-.167.072-.177.037-.176.003-.178-.038-.177-.054-.175-.088-.165-.132-.176-.155-.156-.17-.155-.206-.141-.231-.135-.253-.113-.275-.095M364.16 857.662l-.254 5.897" style="fill:none;stroke:#00ff4a;stroke-width:.999997;stroke-linecap:round;stroke-linejoin:round;stroke-miterlimit:4;stroke-dasharray:none;stroke-opacity:1;visibility:visible" visibility="hidden"/><path d="m352.874 854.314-.218-.081-.2-.05-.216-.009-.186.01-.172.042-.152.067-.138.112-.105.117-.085.16-.05.17-.031.192.013.198.038.212.068.221.103.219.117.208.14.212.172.19.176.174.206.156.204.137.21.11.22.081.206.05.202.01.2-.011.167-.037.155-.072.134-.11.108-.122.087-.145.044-.18.03-.195-.008-.199-.039-.205-.07-.22-.097-.221-.123-.212-.138-.21-.168-.188-.184-.181-.2-.16-.206-.13-.214-.111M224.754 798.14l-.19-.081-.203-.042-.178-.008-.173.02-.151.04-.133.08-.115.101-.086.135-.062.155-.033.175-.007.191.028.204.054.216.075.215.109.212.124.204.146.206.164.195.18.163.194.154.193.13.203.101.19.075.199.041.176.008.173-.008.154-.052.135-.084.117-.099.081-.134.063-.153.037-.174.003-.195-.024-.204-.047-.204-.087-.225-.096-.215-.134-.2-.148-.207-.158-.183-.187-.174-.186-.154-.2-.132-.2-.093M109.226 747.473l-.194-.073-.17-.03-.181-.01-.151.02-.132.053-.113.081-.09.103-.072.139-.041.154-.02.176.008.2.042.199.062.205.08.22.111.206.133.21.152.199.16.184.175.168.181.147.187.114.192.102.185.064.17.038.175.014.151-.032.132-.051.124-.075.092-.114.063-.136.053-.154.004-.18-.004-.182-.033-.2-.063-.22-.09-.204-.108-.222-.136-.206-.143-.2-.164-.18-.17-.162-.194-.145-.181-.127-.182-.093" style="fill:none;stroke:#00ff4a;stroke-width:.666665;stroke-linecap:round;stroke-linejoin:round;stroke-miterlimit:4;stroke-dasharray:none;stroke-opacity:1;visibility:visible" visibility="hidden"/><path d="m623.304 588.524-.038-.19-.005-.172.043-.19.056-.177.078-.163.108-.17.144-.139.144-.126.14-.097.149-.076.167-.067.174-.047.17-.02h.166l.168.02.148.047.154.074.144.102.14.122.121.141.107.19.08.188.063.198.048.221M362.815 845.835l-.332-.018h-.339l-.328.018" style="fill:none;stroke:#00ff4a;stroke-width:.999997;stroke-linecap:round;stroke-linejoin:round;stroke-miterlimit:4;stroke-dasharray:none;stroke-opacity:1;visibility:visible" visibility="hidden"/><path d="m640.645 583.708-1.123 5.82M139.6 764.937l-40.308-17.724M286.48 829.514 142.444 766.19M311.36 840.454l-22.05-9.69M363.904 863.558l-49.713-21.859M363.904 863.558 510.8 717.512M530.12 698.305 639.522 589.53M99.29 747.213l-.72-5.899M98.57 741.313l93.2-74.157M600.185 569.913l40.459 13.798M425.554 510.346l15.946 5.44M441.498 515.78h0" style="fill:none;stroke:#00ff4a;stroke-width:1.99999;stroke-linecap:round;stroke-linejoin:round;stroke-miterlimit:4;stroke-dasharray:none;stroke-opacity:1;visibility:visible" visibility="hidden"/><path d="M144.653 763.665c1.284 1.401 1.423 3.363.313 4.384l-5.469 5.01c-1.113 1.021-3.055.708-4.339-.696-1.286-1.399-1.422-3.361-.313-4.379l5.47-5.012c1.109-1.022 3.049-.712 4.337.693" style="fill:none;fill-opacity:1;fill-rule:nonzero;stroke:#00ff4a;stroke-width:1.33333;visibility:visible" visibility="hidden"/><path d="M138.72 771.432a1.466 1.466 0 0 0-.12-.66M138.6 770.772a3.896 3.896 0 0 0-.69-1.066 3.825 3.825 0 0 0-.982-.794M136.928 768.912a1.456 1.456 0 0 0-.644-.19M135.828 769.82a1.043 1.043 0 0 0 .086.477M135.916 770.296c.12.28.288.537.49.762a2.68 2.68 0 0 0 .704.57M137.11 771.629a1.059 1.059 0 0 0 .467.139M142.218 763.392a.357.357 0 0 0-.25.092M144.541 766.349a.35.35 0 0 0 .117-.243M142.2 763.392l.776.002M144.657 766.124l.081-.77M142.99 763.396h-.016M144.737 765.354l.001-.017M144.738 765.337a1.064 1.064 0 0 0-.085-.472M144.652 764.865a2.883 2.883 0 0 0-1.196-1.335M143.453 763.529a1.093 1.093 0 0 0-.463-.133M136.026 768.812l5.94-5.327M138.601 771.678l5.939-5.33M135.83 769.808l.083-.772M137.589 771.768h.776M136.28 768.72a.357.357 0 0 0-.367.316" style="fill:none;stroke:#00ff4a;stroke-width:.666665;stroke-linecap:round;stroke-linejoin:round;stroke-miterlimit:2;stroke-dasharray:none;stroke-opacity:1;visibility:visible" visibility="hidden"/><path d="M138.365 771.768a.373.373 0 0 0 .239-.088.382.382 0 0 0 .116-.25" style="fill:none;stroke:#00ff4a;stroke-width:.666665;stroke-linecap:round;stroke-linejoin:round;stroke-miterlimit:2;stroke-dasharray:none;stroke-opacity:1;visibility:visible" visibility="hidden"/><path d="m138.778 768.889 3.98-3.499" style="fill:none;stroke:#00ff4a;stroke-width:.666665;stroke-linecap:round;stroke-linejoin:round;stroke-miterlimit:4;stroke-dasharray:none;stroke-opacity:1;visibility:visible" visibility="hidden"/><path d="M290.695 827.018c1.342 1.344 1.562 3.3.496 4.364l-5.257 5.235c-1.07 1.066-3.024.836-4.365-.514-1.344-1.343-1.563-3.3-.495-4.362l5.259-5.236c1.064-1.068 3.017-.839 4.362.513" style="fill:none;fill-opacity:1;fill-rule:nonzero;stroke:#00ff4a;stroke-width:1.33333;visibility:visible" visibility="hidden"/><path d="M285.089 835.025a1.503 1.503 0 0 0-.147-.655M284.94 834.37a3.904 3.904 0 0 0-.73-1.035 3.835 3.835 0 0 0-1.017-.753M283.194 832.582a1.427 1.427 0 0 0-.653-.162M282.133 833.534a1.023 1.023 0 0 0 .107.472M282.24 834.006a2.804 2.804 0 0 0 1.248 1.284M283.489 835.289a1.096 1.096 0 0 0 .47.117M288.251 826.846a.373.373 0 0 0-.249.101M290.693 829.706a.352.352 0 0 0 .106-.25M288.233 826.847l.776-.027M290.8 829.474l.046-.773M289.022 826.818h-.01M290.849 828.7v-.014M290.849 828.685a.993.993 0 0 0-.107-.47M290.742 828.217a2.707 2.707 0 0 0-.523-.742 2.842 2.842 0 0 0-.728-.542M289.49 826.933a1.088 1.088 0 0 0-.47-.115M282.289 832.518l5.713-5.57M284.982 835.274l5.712-5.57M282.135 833.522l.048-.775M283.973 835.407l.776-.032M282.54 832.417a.341.341 0 0 0-.25.102.356.356 0 0 0-.108.231" style="fill:none;stroke:#00ff4a;stroke-width:.666665;stroke-linecap:round;stroke-linejoin:round;stroke-miterlimit:2;stroke-dasharray:none;stroke-opacity:1;visibility:visible" visibility="hidden"/><path d="M284.749 835.374a.348.348 0 0 0 .233-.1.343.343 0 0 0 .107-.25" style="fill:none;stroke:#00ff4a;stroke-width:.666665;stroke-linecap:round;stroke-linejoin:round;stroke-miterlimit:2;stroke-dasharray:none;stroke-opacity:1;visibility:visible" visibility="hidden"/><path d="m285.042 832.48 3.832-3.66" style="fill:none;stroke:#00ff4a;stroke-width:.666665;stroke-linecap:round;stroke-linejoin:round;stroke-miterlimit:4;stroke-dasharray:none;stroke-opacity:1;visibility:visible" visibility="hidden"/><path d="M315.146 838.405c1.341 1.345 1.563 3.302.496 4.365l-5.257 5.236c-1.07 1.065-3.023.835-4.366-.513-1.344-1.346-1.562-3.303-.494-4.366l5.258-5.234c1.064-1.067 3.019-.839 4.363.512" style="fill:none;fill-opacity:1;fill-rule:nonzero;stroke:#00ff4a;stroke-width:1.33333;visibility:visible" visibility="hidden"/><path d="M315.193 839.606a2.7 2.7 0 0 0-.523-.744 2.737 2.737 0 0 0-.728-.539M313.94 838.32a1.035 1.035 0 0 0-.468-.113M306.74 843.907l5.712-5.57M309.433 846.663l5.712-5.572M306.586 844.911l.048-.776M308.423 846.794l.777-.028M306.99 843.803a.363.363 0 0 0-.357.332M309.2 846.765a.368.368 0 0 0 .232-.1.347.347 0 0 0 .107-.252M309.54 846.413a1.512 1.512 0 0 0-.148-.655M309.391 845.76a3.889 3.889 0 0 0-.731-1.038 3.835 3.835 0 0 0-1.017-.752M307.645 843.969a1.445 1.445 0 0 0-.655-.163M306.583 844.92a1.023 1.023 0 0 0 .108.474M306.691 845.393a2.81 2.81 0 0 0 1.25 1.284M307.94 846.677a1.096 1.096 0 0 0 .47.117M312.702 838.234a.373.373 0 0 0-.25.101M315.145 841.093a.345.345 0 0 0 .105-.25M312.683 838.237l.777-.03M315.251 840.862l.049-.773M313.473 838.207h-.014M315.3 840.089v-.015" style="fill:none;stroke:#00ff4a;stroke-width:.666665;stroke-linecap:round;stroke-linejoin:round;stroke-miterlimit:2;stroke-dasharray:none;stroke-opacity:1;visibility:visible" visibility="hidden"/><path d="M315.3 840.074a1.013 1.013 0 0 0-.108-.47" style="fill:none;stroke:#00ff4a;stroke-width:.666665;stroke-linecap:round;stroke-linejoin:round;stroke-miterlimit:2;stroke-dasharray:none;stroke-opacity:1;visibility:visible" visibility="hidden"/><path d="m309.493 843.867 3.83-3.657" style="fill:none;stroke:#00ff4a;stroke-width:.666665;stroke-linecap:round;stroke-linejoin:round;stroke-miterlimit:4;stroke-dasharray:none;stroke-opacity:1;visibility:visible" visibility="hidden"/><path d="m364.16 857.662.34-16.264M224.754 798.14l11.948-12.175M224.754 798.14l11.949-12.176M640.644 583.711l-15.286 1.69" style="fill:none;stroke:#00ff4a;stroke-width:.999997;stroke-linecap:round;stroke-linejoin:round;stroke-miterlimit:4;stroke-dasharray:none;stroke-opacity:1;visibility:visible" visibility="hidden"/><path d="m364.16 857.662-11.286-3.349M236.703 785.964l-11.949 12.176M236.702 785.965l-11.948 12.175M99.292 747.213l9.934.26" style="fill:none;stroke:#00ff4a;stroke-width:.666665;stroke-linecap:round;stroke-linejoin:round;stroke-miterlimit:4;stroke-dasharray:none;stroke-opacity:1;visibility:visible" visibility="hidden"/><path d="m142.444 766.19-2.844-1.253M289.31 830.764l-2.83-1.25M314.191 841.699l-2.831-1.245M286.48 829.514l2.83 1.25M311.36 840.454l2.831 1.245" style="fill:none;stroke:#00ff4a;stroke-width:1.99999;stroke-linecap:round;stroke-linejoin:round;stroke-miterlimit:4;stroke-dasharray:none;stroke-opacity:1;visibility:visible" visibility="hidden"/><path d="m141.966 763.485-3.188 5.404M288.002 826.948l-2.96 5.532M290.693 829.706l-1.819-.886M312.452 838.337l-2.959 5.53M315.145 841.093l-1.822-.883" style="fill:none;stroke:#00ff4a;stroke-width:.666665;stroke-linecap:round;stroke-linejoin:round;stroke-miterlimit:4;stroke-dasharray:none;stroke-opacity:1;visibility:visible" visibility="hidden"/><path d="m203.822 677.068 6.761 3.625" style="fill:none;fill-opacity:1;fill-rule:nonzero;stroke:#9500ff;stroke-width:1.33333;visibility:visible"/><path d="m506.927 290.735.193-4.758M506.775 274.994l.748 1.056" style="fill:none;stroke:#9500ff;stroke-width:1.99999;stroke-linecap:round;stroke-linejoin:round;stroke-miterlimit:4;stroke-dasharray:none;stroke-opacity:1;visibility:visible"/><path d="m201.866 533.749 6.921 140.271M201.866 533.75l5.997-4.776M207.863 528.975l-.78-16.387M507.523 276.049l-300.44 236.54M511.092 287.422l-4.167 3.313" style="fill:none;stroke:#9500ff;stroke-width:.999997;stroke-linecap:round;stroke-linejoin:round;stroke-miterlimit:4;stroke-dasharray:none;stroke-opacity:1;visibility:visible"/><path d="m210.198 672.788-1.41 1.23" style="fill:none;stroke:#9500ff;stroke-width:1.99999;stroke-linecap:round;stroke-linejoin:round;stroke-miterlimit:4;stroke-dasharray:none;stroke-opacity:1;visibility:visible"/><path d="m210.585 680.692-.387-7.904" style="fill:none;stroke:#9500ff;stroke-width:.999997;stroke-linecap:round;stroke-linejoin:round;stroke-miterlimit:4;stroke-dasharray:none;stroke-opacity:1;visibility:visible"/><path d="m409.168 494.883.183-.173.172-.21.184-.23.164-.266.164-.288.164-.301.14-.325.135-.34.116-.345.113-.353.088-.357.077-.363.047-.35.045-.34.01-.33.004-.313-.02-.309-.034-.266-.06-.26-.074-.224-.084-.191-.112-.164-.114-.117-.141-.102-.141-.05-.164-.022-.156.022-.174.055-.173.087-.187.124-.18.16-.191.186-.169.22-.173.254-.177.277-.162.287-.153.328-.141.325-.122.35-.112.35-.097.361-.088.36-.055.348-.054.352-.024.338-.015.328.008.304.032.284.052.27.067.232.08.216.096.176.108.143.129.108.141.073.16.036.162-.006.165-.032.172-.078.179-.104.19-.145M481.381 431.74l.166-.165.168-.184.153-.23.163-.244.149-.269.152-.282.138-.319.12-.319.125-.33.1-.343.09-.34.062-.34.057-.345.046-.33.022-.32v-.6l-.025-.275-.05-.243-.065-.227-.065-.192-.097-.163-.1-.132-.123-.094-.123-.059-.144-.04-.145.013-.156.046-.164.084-.17.104-.165.15-.168.18-.164.196-.158.235-.155.263-.152.28-.147.293-.133.321-.123.33-.1.34-.103.34-.077.342-.068.344-.042.342-.037.33-.02.308.012.306.025.282.027.26.055.227.068.212.09.177.086.142.124.118.121.076.13.046.148.01.156-.032.15-.056.17-.098.165-.127M329.9 564.212l.19-.192.2-.23.19-.258.19-.27.18-.304.163-.323.162-.336.139-.362.13-.365.106-.37.092-.379.072-.369.046-.369.039-.349.012-.348-.005-.327-.033-.298-.048-.28-.075-.248-.089-.223-.102-.202-.122-.153-.138-.125-.154-.084-.17-.056-.173-.007-.182.032-.2.063-.193.107-.197.136-.201.18-.196.2-.203.25-.19.259-.188.292-.167.323-.163.33-.147.349-.138.361-.12.368-.095.38-.082.365-.066.368-.047.357-.022.363.01.323.018.325.04.294.057.267.083.235.092.2.112.18.133.143.144.101.16.07.176.022.177-.007.19-.049.201-.087.201-.122.201-.15M242.474 640.657l.226-.217.22-.241.201-.274.206-.301.19-.325.185-.349.161-.354.154-.372.132-.387.117-.393.081-.388.078-.384.045-.379.032-.368.004-.352-.019-.326-.04-.31-.063-.293-.087-.256-.11-.224-.117-.192-.148-.159-.16-.106-.17-.078-.194-.049-.193.016-.208.036-.218.075-.225.13-.214.15-.229.195-.211.229-.219.268-.204.27-.207.323-.19.338-.17.349-.155.365-.145.384-.12.385-.105.392-.086.39-.058.387-.032.378-.019.356.01.344.022.323.056.296.077.278.096.234.107.212.14.169.152.125.17.11.184.053.187.011.215-.021.201-.057.226-.108.212-.134.23-.174M410.915 368.105l.107-.106.106-.129.099-.16.085-.172.075-.203.068-.205.044-.224.037-.21.007-.194-.004-.199-.027-.156-.04-.142-.061-.115-.076-.076-.088-.04-.1-.008-.093.036-.106.07-.11.095-.104.138-.096.148-.092.189-.076.196-.062.21-.041.212-.035.213-.014.197.009.187.021.172.039.137.068.116.07.07.091.046.095.011.097-.04.107-.063M328.547 433.766l.116-.114.117-.137.101-.165.098-.196.087-.219.064-.215.045-.218.032-.216.003-.207-.012-.196-.023-.17-.052-.136-.076-.115-.084-.082-.101-.036h-.105l-.112.044-.126.072-.114.111-.107.144-.115.175-.1.18-.07.216-.063.216-.053.22-.028.217-.012.216.008.195.042.157.053.15.066.108.088.078.093.033.11.004.117-.03.113-.085" style="fill:none;stroke:#9500ff;stroke-width:.666665;stroke-linecap:round;stroke-linejoin:round;stroke-miterlimit:4;stroke-dasharray:none;stroke-opacity:1;visibility:visible"/><path d="m194.984 531.444 5.478 2.456M200.746 508.892l5.508 2.386" style="fill:none;stroke:#9500ff;stroke-width:.999997;stroke-linecap:round;stroke-linejoin:round;stroke-miterlimit:4;stroke-dasharray:none;stroke-opacity:1;visibility:visible"/><path d="m203.575 672.084 3.862 2.056" style="fill:none;stroke:#9500ff;stroke-width:1.99999;stroke-linecap:round;stroke-linejoin:round;stroke-miterlimit:4;stroke-dasharray:none;stroke-opacity:1;visibility:visible"/><path d="m327.963 561.863.075.133.067.137.045.131.03.13.02.117.006.116-.009.116-.014.114-.033.128-.05.1-.064.112-.086.106M407.428 493.418l.012.034-.004.035.004.023v.022l-.004.039.004.019" style="fill:none;stroke:#9500ff;stroke-width:.999997;stroke-linecap:round;stroke-linejoin:round;stroke-miterlimit:4;stroke-dasharray:none;stroke-opacity:1;visibility:visible"/><path d="m240.34 637.704.081.075.079.084.082.097.058.099.1.194.068.208.022.19.013.194-.017.198-.056.18-.08.181-.105.155-.072.073-.083.067-.09.065-.088.05" style="fill:none;stroke:#9500ff;stroke-width:.666665;stroke-linecap:round;stroke-linejoin:round;stroke-miterlimit:4;stroke-dasharray:none;stroke-opacity:1;visibility:visible"/><path d="m201.866 533.75-1.403.146M194.822 530.593l.16.851M203.893 518.29l-.193-.07-.181-.03-.173.024-.145.05-.143.098-.11.118-.082.168-.053.186-.03.216.002.222.037.241.07.247.082.248.121.23.139.225.152.211.177.184.183.15.187.12.193.084.18.048.174.003.171-.038.14-.076.12-.111.099-.139.072-.169.044-.201.016-.226-.015-.235-.057-.237-.073-.248-.107-.253-.132-.23-.15-.216-.159-.196-.192-.161-.175-.139-.19-.097M200.817 525.848l7.046 3.127M206.253 511.278l.827 1.31" style="fill:none;stroke:#9500ff;stroke-width:.999997;stroke-linecap:round;stroke-linejoin:round;stroke-miterlimit:4;stroke-dasharray:none;stroke-opacity:1;visibility:visible"/><path d="m202.163 671.332-.153-.91M510.744 286.88l.35.541M200.746 508.892l-.743.626M202.163 671.332l1.414.752M501.329 273.667 200.746 508.892M501.33 273.667l5.444 1.327M504.503 421.702l.304-7.17M504.503 421.702l-293.918 258.99-6.763-3.626-.245-4.982M507.119 285.975l.404-9.928M504.807 414.53l.988-.875 5.298-126.234M202.009 670.422l-7.189-139.829 5.995-4.745-.81-16.33M507.119 285.975l3.625.903M207.434 674.14l1.353-.122" style="fill:none;stroke:#9500ff;stroke-width:1.99999;stroke-linecap:round;stroke-linejoin:round;stroke-miterlimit:4;stroke-dasharray:none;stroke-opacity:1;visibility:visible"/><path d="M205.602 518.503c1.203 1.472 1.23 3.437.064 4.394l-5.75 4.691c-1.167.955-3.086.531-4.286-.941-1.208-1.474-1.231-3.439-.064-4.394l5.745-4.688c1.167-.957 3.089-.537 4.291.938" style="fill:none;fill-opacity:1;fill-rule:nonzero;stroke:#9500ff;stroke-width:1.33333;visibility:visible"/><path d="M205.594 520.18a.999.999 0 0 0-.061-.476M205.533 519.703a2.857 2.857 0 0 0-1.12-1.403M204.413 518.3a1.072 1.072 0 0 0-.454-.157M196.697 523.15l6.233-4.98M199.102 526.159l6.235-4.98M196.444 524.135l.125-.767M198.088 526.19l.775.046M196.957 523.073a.357.357 0 0 0-.388.294M198.863 526.235a.352.352 0 0 0 .373-.315M199.236 525.919a1.497 1.497 0 0 0-.083-.666M199.153 525.255a3.953 3.953 0 0 0-.627-1.105 3.792 3.792 0 0 0-.936-.847M197.59 523.302a1.419 1.419 0 0 0-.633-.225M196.44 524.144a.996.996 0 0 0 .06.48M196.5 524.624c.105.288.257.556.447.792.189.239.415.444.671.608M197.618 526.024a1.083 1.083 0 0 0 .456.164M203.186 518.094a.373.373 0 0 0-.256.076M205.337 521.178a.347.347 0 0 0 .13-.236M203.169 518.092l.774.048M205.466 520.962l.124-.766M203.96 518.143a.188.188 0 0 1-.015-.003" style="fill:none;stroke:#9500ff;stroke-width:.666665;stroke-linecap:round;stroke-linejoin:round;stroke-miterlimit:2;stroke-dasharray:none;stroke-opacity:1;visibility:visible"/><path d="M205.59 520.195c0-.005 0-.01.004-.016" style="fill:none;stroke:#9500ff;stroke-width:.666665;stroke-linecap:round;stroke-linejoin:round;stroke-miterlimit:2;stroke-dasharray:none;stroke-opacity:1;visibility:visible"/><path d="m199.44 523.383 4.175-3.264" style="fill:none;stroke:#9500ff;stroke-width:.666665;stroke-linecap:round;stroke-linejoin:round;stroke-miterlimit:4;stroke-dasharray:none;stroke-opacity:1;visibility:visible"/><path d="m507.101 279.882 2.682-2.295M507.376 284.358l4.734-4.05M510.023 277.51a.332.332 0 0 0-.24.076M512.108 280.309a.325.325 0 0 0 .117-.222M510.003 277.509l.722.02M512.225 280.103l.09-.713M510.735 277.529h-.01M512.315 279.389c0-.006 0-.01.002-.014M512.317 279.375a.912.912 0 0 0-.069-.44M512.248 278.934a2.545 2.545 0 0 0-.44-.723 2.79 2.79 0 0 0-.641-.546M511.167 277.663a1.085 1.085 0 0 0-.432-.136" style="fill:none;stroke:#9500ff;stroke-width:.666665;stroke-linecap:round;stroke-linejoin:round;stroke-miterlimit:2;stroke-dasharray:none;stroke-opacity:1;visibility:visible"/><path d="m507.459 281.914 2.94-2.513" style="fill:none;stroke:#9500ff;stroke-width:.666665;stroke-linecap:round;stroke-linejoin:round;stroke-miterlimit:4;stroke-dasharray:none;stroke-opacity:1;visibility:visible"/><path d="m272.406 627.077.08 3.528M268.865 628.872l.04 1.81M272.391 630.839a.316.316 0 0 0 .091-.234M268.905 630.683c0 .087.035.17.097.23M272.405 630.825l-.472.548M268.99 630.901l.496.526M271.926 631.38l.007-.007M269.486 631.427c.005.002.007.002.01.008M269.495 631.435a.885.885 0 0 0 .387.228M269.882 631.663a2.641 2.641 0 0 0 1.665-.033M271.547 631.63a1.103 1.103 0 0 0 .378-.25" style="fill:none;stroke:#9500ff;stroke-width:.666665;stroke-linecap:round;stroke-linejoin:round;stroke-miterlimit:2;stroke-dasharray:none;stroke-opacity:1;visibility:visible"/><path d="m270.638 627.488.053 2.447" style="fill:none;stroke:#9500ff;stroke-width:.666665;stroke-linecap:round;stroke-linejoin:round;stroke-miterlimit:4;stroke-dasharray:none;stroke-opacity:1;visibility:visible"/><path d="M373.228 542.53a1.07 1.07 0 0 0 .38-.25M374.087 537.979l.079 3.528M370.546 539.772l.038 1.812M374.072 541.741a.333.333 0 0 0 .092-.234M370.586 541.584a.325.325 0 0 0 .097.23M374.086 541.725l-.472.548M370.671 541.804l.496.524" style="fill:none;stroke:#9500ff;stroke-width:.666665;stroke-linecap:round;stroke-linejoin:round;stroke-miterlimit:2;stroke-dasharray:none;stroke-opacity:1;visibility:visible"/><path d="M373.607 542.281a.03.03 0 0 0 .005-.006M371.167 542.327a.019.019 0 0 1 .01.008M371.176 542.335a.937.937 0 0 0 .387.23M371.563 542.564c.27.083.55.124.837.116a2.93 2.93 0 0 0 .83-.151" style="fill:none;stroke:#9500ff;stroke-width:.666665;stroke-linecap:round;stroke-linejoin:round;stroke-miterlimit:2;stroke-dasharray:none;stroke-opacity:1;visibility:visible"/><path d="m372.32 538.39.051 2.444" style="fill:none;stroke:#9500ff;stroke-width:.666665;stroke-linecap:round;stroke-linejoin:round;stroke-miterlimit:4;stroke-dasharray:none;stroke-opacity:1;visibility:visible"/><path d="m460.692 461.679-.138 3.525M457.047 463.25l-.073 1.81M460.446 465.432a.323.323 0 0 0 .106-.226M456.975 465.059a.344.344 0 0 0 .083.236M460.462 465.418l-.508.517M457.047 465.283l.463.553M459.948 465.942c0-.003.004-.004.006-.007M457.51 465.836a.016.016 0 0 1 .009.01M457.519 465.846a.928.928 0 0 0 .371.252M457.892 466.099a2.6 2.6 0 0 0 .828.167c.283.008.563-.024.836-.098" style="fill:none;stroke:#9500ff;stroke-width:.666665;stroke-linecap:round;stroke-linejoin:round;stroke-miterlimit:2;stroke-dasharray:none;stroke-opacity:1;visibility:visible"/><path d="M459.555 466.167a1.067 1.067 0 0 0 .393-.225" style="fill:none;stroke:#9500ff;stroke-width:.666665;stroke-linecap:round;stroke-linejoin:round;stroke-miterlimit:2;stroke-dasharray:none;stroke-opacity:1;visibility:visible"/><path d="m458.904 461.978-.098 2.445" style="fill:none;stroke:#9500ff;stroke-width:.666665;stroke-linecap:round;stroke-linejoin:round;stroke-miterlimit:4;stroke-dasharray:none;stroke-opacity:1;visibility:visible"/><path d="m207.437 674.14-3.615 2.928" style="fill:none;fill-opacity:1;fill-rule:nonzero;stroke:#9500ff;stroke-width:1.33333;visibility:visible"/><path d="m200.462 533.9.355-8.052" style="fill:none;stroke:#9500ff;stroke-width:.999997;stroke-linecap:round;stroke-linejoin:round;stroke-miterlimit:4;stroke-dasharray:none;stroke-opacity:1;visibility:visible"/><path d="m202.93 518.17-3.49 5.213M205.337 521.178l-1.722-1.059" style="fill:none;stroke:#9500ff;stroke-width:.666665;stroke-linecap:round;stroke-linejoin:round;stroke-miterlimit:4;stroke-dasharray:none;stroke-opacity:1;visibility:visible"/><path d="m510.399 279.401-3.298.481M511.092 287.422l-3.716-3.064" style="fill:none;stroke:#9500ff;stroke-width:.666665;stroke-linecap:round;stroke-linejoin:round;stroke-miterlimit:2;stroke-dasharray:none;stroke-opacity:1;visibility:visible"/><path d="m509.783 277.587-2.324 4.327M509.783 277.586l.616 1.815" style="fill:none;stroke:#9500ff;stroke-width:.666665;stroke-linecap:round;stroke-linejoin:round;stroke-miterlimit:4;stroke-dasharray:none;stroke-opacity:1;visibility:visible"/><path d="m270.691 629.935 1.715-2.858M270.691 629.935l-1.826-1.063" style="fill:none;stroke:#9500ff;stroke-width:.666665;stroke-linecap:round;stroke-linejoin:round;stroke-miterlimit:2;stroke-dasharray:none;stroke-opacity:1;visibility:visible"/><path d="m272.486 630.605-1.848-3.117M272.482 630.605l-1.791-.67" style="fill:none;stroke:#9500ff;stroke-width:.666665;stroke-linecap:round;stroke-linejoin:round;stroke-miterlimit:4;stroke-dasharray:none;stroke-opacity:1;visibility:visible"/><path d="m372.371 540.834 1.716-2.855M372.371 540.834l-1.825-1.062" style="fill:none;stroke:#9500ff;stroke-width:.666665;stroke-linecap:round;stroke-linejoin:round;stroke-miterlimit:2;stroke-dasharray:none;stroke-opacity:1;visibility:visible"/><path d="m374.166 541.507-1.846-3.117M374.164 541.507l-1.793-.673" style="fill:none;stroke:#9500ff;stroke-width:.666665;stroke-linecap:round;stroke-linejoin:round;stroke-miterlimit:4;stroke-dasharray:none;stroke-opacity:1;visibility:visible"/><path d="m458.806 464.423 1.886-2.744M458.806 464.423l-1.759-1.173" style="fill:none;stroke:#9500ff;stroke-width:.666665;stroke-linecap:round;stroke-linejoin:round;stroke-miterlimit:2;stroke-dasharray:none;stroke-opacity:1;visibility:visible"/><path d="m460.554 465.204-1.65-3.226M460.552 465.206l-1.746-.783" style="fill:none;stroke:#9500ff;stroke-width:.666665;stroke-linecap:round;stroke-linejoin:round;stroke-miterlimit:4;stroke-dasharray:none;stroke-opacity:1;visibility:visible"/><path d="m203.822 677.068-12.052-9.912" style="fill:none;stroke:#00ff4a;stroke-width:1.99999;stroke-linecap:round;stroke-linejoin:round;stroke-miterlimit:4;stroke-dasharray:none;stroke-opacity:1;visibility:visible" visibility="hidden"/></svg>