<svg xmlns="http://www.w3.org/2000/svg" baseProfile="full" height="1122.52" preserveAspectRatio="xMinYMin meet" style="width:904px;height:1119px" width="793.701" xml:space="preserve"><path d="m413.558 269.48.003 16.721M674.94 192.712l-261.307 77.27M410.98 268.14l2.252.757M413.56 286.201l-.32.356M413.232 268.898l.325.583M675.32 192.076l-.347 14.157M672.38 191.178l2.576.435" style="fill:none;stroke:red;stroke-width:.999997;stroke-linecap:round;stroke-linejoin:round;stroke-miterlimit:4;stroke-dasharray:none;stroke-opacity:1;visibility:visible" visibility="hidden"/><path d="m410.98 268.14 261.4-76.962M410.987 285.749l-.008-17.608M674.602 206.562l-261.36 79.994-2.254-.808" style="fill:none;stroke:red;stroke-width:1.99999;stroke-linecap:round;stroke-linejoin:round;stroke-miterlimit:4;stroke-dasharray:none;stroke-opacity:1;visibility:visible" visibility="hidden"/><path d="m675.32 192.076-.364-.464" style="fill:none;stroke:red;stroke-width:.999997;stroke-linecap:round;stroke-linejoin:round;stroke-miterlimit:4;stroke-dasharray:none;stroke-opacity:1;visibility:visible" visibility="hidden"/><path d="m573.31 172.564 1.073-.288-.01.217M573.258 166l.052 6.565M573.258 166l-1.695.433M574.138 135.566l-5.31 1.263M571.607 173l-.044-6.568M567.175 134.86l-.096.024-.073.028-.055.025-.036.032-.016.024v.027l.027.024.044.025.062.02.083.018.093.021.12.01.123.006.136.007.143.008.14-.008.154-.008.14-.006.147-.01.135-.015.133-.019.107-.025.098-.019.086-.026.068-.028.044-.023.026-.033.011-.026-.016-.026-.044-.026-.05-.018-.067-.026-.096-.013-.099-.017-.125-.011-.123-.01h-.141l-.143-.005-.153.006-.147.009-.14.01-.143.017-.13.014-.115.023-.112.02M567.623 136.878l-5.8-.748M573.118 172.609v-.04M571.842 172.355l-.232.055M571.842 172.355l-.005.097M571.842 172.355l.008-.501.03-.495.04-.492.058-.487.07-.484.08-.478.097-.475.109-.467.128-.464.137-.453.147-.448.159-.437.172-.43M573.076 166.244l.088-.123.095-.122M560.493 172.715l-.024-.116M561.664 135.803l.016.108M567.3 188.365l.2-14.443M561.68 135.911l.016.008.012-.008M561.709 135.911l.039-.05.034-.043.287-.45M562.068 135.368l.028-.05.027-.04M561.67 135.797h0l-.005.005M567.5 173.923h0M567.5 173.923l.456-37.01M574.172 135.24l.033.044.04.052M574.245 135.335l.008.008.008-.007M573.81 134.734l.028.044.021.047.312.414M567.623 136.878l.333.035M561.709 135.911l.033.072.032.073.05.075M560.493 172.715l.008.017.03.016.045.019.062.01M560.47 172.598h0M567.703 133.956v.01l.008.011M573.675 134.71l-.085-.01-.082.003M562.245 135.244l.09-.024.09-.004M574.498 172.212l-.005.02-.026.02-.032.012-.052.013" style="fill:none;stroke:#00ff4a;stroke-width:.999997;stroke-linecap:round;stroke-linejoin:round;stroke-miterlimit:4;stroke-dasharray:none;stroke-opacity:1;visibility:visible"/><path d="m574.245 135.335-.021.073-.042.074-.044.084M573.118 172.568l.193-.004M733.021 155.595l-.161-.019-.17-.008-.188-.014h-.178l-.183-.002-.185.011-.18.01-.164.02-.154.022-.134.016-.126.03-.098.03-.082.033-.049.035-.03.032v.04l.014.035.057.032.079.033.096.027.115.028.142.024.158.021.158.015.18.014.182-.004.188.006h.18l.184-.014.169-.012.161-.021.155-.017.127-.028.109-.027.097-.033.055-.03.047-.036.012-.04-.012-.032-.038-.034-.064-.034-.086-.033-.104-.025-.136-.027-.143-.024M725.55 400.135l5.779-198.194M731.328 201.94l2.021-43.917M740.01 156.166l-5.857 1.661M721.493 200.266l-.125-.16M724.683 156.765l.339-.516M733.217 157.863l-8.533-1.099M721.367 200.105h0M721.493 200.266h0M724.529 156.884l-.125-.135M725.021 156.249l.033-.056.014-.05M724.396 156.722l-.005.016.013.012M724.529 156.884l.019.013.033-.008M724.581 156.89l.052-.064.05-.061M739.35 155.553l-.104-.013-.096-.002M730.97 154.496l.019.007.012.013M725.435 156.076l-.09.005-.105.014-.092.028M721.36 200.08v.028l.008-.001M724.743 157.157l-.06-.095-.057-.084-.044-.089M740.105 156.287l-.01.09-.04.095-.054.091M571.61 172.934l.183.023M571.792 172.956l-.727.195M570.675 174.098l67.79 11.565M642.81 186.41l28.972 4.944M675.203 191.937l46.175 7.88M570.85 173.325l.047-.065.046-.05.06-.044.063-.016M570.41 187.121v-.03l.008-.035.016-.027.017-.032.022-.037.025-.043M570.6 173.818v.053l.008.044.013.046.008.046.026.046.021.045M639.334 352.524l76.97 26.567M680.435 373.521l.003.183.013.19.028.188.044.195.05.19.078.193.079.189.088.187.104.18.117.177.125.168.128.159.14.153.146.144.16.13.156.123.166.108.167.092.172.084.172.068.17.052.175.043.17.023.172.01.164-.008.158-.018.152-.038.146-.05.141-.064.13-.082.117-.092.117-.105.096-.124.092-.127.075-.145.068-.148.046-.16.036-.168.032-.177.006-.182v-.186l-.014-.187-.033-.195-.04-.194-.057-.192-.064-.192-.082-.192-.096-.182-.104-.189-.112-.175-.125-.166-.139-.162-.14-.153-.145-.143-.157-.13-.162-.119-.161-.105-.167-.096-.174-.086-.176-.069-.17-.05-.174-.038-.172-.02-.167-.01-.159.005-.158.024-.152.041-.148.05-.142.065-.126.08-.12.096-.11.105-.101.117-.084.135-.077.137-.066.154-.049.157-.035.165-.033.18-.008.179M716.36 377.322l-72.016-24.732" style="fill:none;stroke:#00ff4a;stroke-width:.999997;stroke-linecap:round;stroke-linejoin:round;stroke-miterlimit:4;stroke-dasharray:none;stroke-opacity:1;visibility:visible"/><path d="m683.506 376.22.073.024.086.017.076.011.085.007.081.002.078-.001.076-.004.078-.007.075-.014.079-.011.085-.024.079-.021" style="fill:none;stroke:#00ff4a;stroke-width:.999997;stroke-linecap:round;stroke-linejoin:round;stroke-miterlimit:4;stroke-dasharray:none;stroke-opacity:1;visibility:visible"/><path d="m684.654 375.884-.039-.021-.044-.018-.04-.017-.046-.017-.055-.015-.052-.02-.06-.019-.057-.014-.058-.02-.06-.012-.054-.018-.058-.012-.057-.014-.063-.006-.113-.014-.097-.008-.102-.006-.093.006-.079.018-.077.019-.057.03-.046.035-.038.043-.026.053-.002.059.009.053.021.056.022.032.028.034.032.029.036.027.03.029.048.027.044.021.055.016M682.487 372.64l.003.181.016.183.03.188.038.184.054.187.064.186.074.184.082.18.103.182.11.172.117.164.126.157.136.153.14.143.147.132.159.121.156.108.164.098.164.086.166.075.17.061M682.623 371.934l-.041.132-.042.139-.026.14-.022.144-.006.15M644.344 352.59l2.95-137.664M644.344 352.59l-.555.22M645.396 215.506l-2.901 136.481M643.461 352.732l.07.043.075.028.063.016.068.004.052-.014M643.461 352.732l-.61-.385M642.852 352.348l-.073-.059-.08-.061-.076-.072-.063-.08-.065-.088M639.36 351.344l4.243 1.459M382.23 434.03l-.05-.143-.045-.138-.069-.13-.085-.117-.074-.104-.09-.087-.092-.069-.082-.048-.09-.025h-.079l-.088.013M382.024 435.036l.083-.039.054-.069.058-.087.037-.102.03-.127.009-.133-.006-.14-.021-.159-.04-.15M381.805 434.157l-.044-.123-.048-.116-.07-.108-.067-.088-.076-.065-.072-.05-.088-.023-.064-.006-.067.024-.048.051-.05.072-.025.087M381.412 434.762l.07.048.074.027.08.004.06-.026.052-.048.05-.069.027-.081.019-.106v-.113l-.012-.121-.027-.12M381.86 316.22l-.05-.141-.057-.131-.07-.121-.074-.111-.085-.096-.09-.07-.094-.05-.09-.035-.091-.004-.095.01M381.592 317.31l.08-.036.064-.06.067-.076.048-.101.04-.114.024-.125.008-.14-.011-.143-.015-.148-.037-.146M381.427 316.36l-.037-.113-.052-.108-.064-.096-.074-.076-.074-.062-.074-.037-.073-.017-.077.01-.059.035-.057.048-.048.076-.032.09M380.956 316.995l.077.057.067.038.08.009.072-.012.06-.032.06-.056.05-.083.026-.09.016-.11.005-.113-.018-.12-.023-.124M322.69 255.092l-.07-.036-.065-.019-.064-.006-.06.009M322.443 255.442l-.06-.041-.063-.019-.061-.001-.057.018-.043.038-.044.056-.04.072M327.404 253.757l-5.592-2.012" style="fill:none;stroke:#00ff4a;stroke-width:.999997;stroke-linecap:round;stroke-linejoin:round;stroke-miterlimit:4;stroke-dasharray:none;stroke-opacity:1;visibility:visible"/><path d="m322.732 255.027 4.672-1.27" style="fill:none;stroke:#00ff4a;stroke-width:1.99999;stroke-linecap:round;stroke-linejoin:round;stroke-miterlimit:4;stroke-dasharray:none;stroke-opacity:1;visibility:visible"/><path d="m322.732 255.027 54.716 19.9M378.667 274.567l-1.219.36M381.938 275.756l-3.27-1.19" style="fill:none;stroke:#00ff4a;stroke-width:.999997;stroke-linecap:round;stroke-linejoin:round;stroke-miterlimit:4;stroke-dasharray:none;stroke-opacity:1;visibility:visible"/><path d="m423.05 227.956.096-.03.065-.026.058-.035.03-.034.008-.032-.002-.034-.034-.032-.052-.028-.068-.017-.088-.024-.098-.015-.115-.004-.12-.004-.123-.004-.12.012-.12.011-.109.025-.099.024-.09.023-.068.032-.055.03-.03.035-.009.03.004.037.027.03.057.027.071.027.08.016.104.012.11.01.125.006.12-.004.12-.01.12-.013.112-.017.093-.024M489.422 209.911l.076-.024.063-.027.041-.032.03-.032v-.024l-.017-.036-.042-.025-.05-.023-.073-.028-.088-.01-.096-.015-.12-.008h-.117l-.115.004-.128.013-.107.011-.101.016-.099.02-.076.024-.062.032-.047.025-.023.034-.002.028.017.026.032.03.057.026.08.02.09.014.098.016.112.006.118.006.117-.007.117-.005.118-.012.101-.018.096-.025" style="fill:none;stroke:#00ff4a;stroke-width:.666665;stroke-linecap:round;stroke-linejoin:round;stroke-miterlimit:4;stroke-dasharray:none;stroke-opacity:1;visibility:visible"/><path d="m322.258 256.828-.003-1.113M376.961 279.881l-.02-4.205M322.732 255.027l-.475.688M376.961 279.881l.51.445M378.685 279.968l-.02-5.401M376.943 275.676l.505-.75M381.797 296.937l-.04-.141-.061-.13-.074-.121-.076-.101-.08-.098-.089-.069-.093-.048-.088-.028-.094-.01-.078.011" style="fill:none;stroke:#00ff4a;stroke-width:.999997;stroke-linecap:round;stroke-linejoin:round;stroke-miterlimit:4;stroke-dasharray:none;stroke-opacity:1;visibility:visible"/><path d="m381.513 298.048.084-.041.077-.066.06-.076.058-.097.032-.119.02-.132.01-.14v-.148l-.021-.145-.036-.148M381.365 297.076l-.039-.113-.05-.108-.064-.088-.071-.082-.075-.057-.073-.035-.07-.014-.08.01-.06.031-.057.052-.048.077-.034.087M380.883 297.722l.08.053.07.035.077.019.074-.014.067-.037.052-.057.05-.08.03-.091.023-.115v-.113l-.018-.124-.025-.121M328.141 343.41l-5.552-2.765" style="fill:none;stroke:#00ff4a;stroke-width:.999997;stroke-linecap:round;stroke-linejoin:round;stroke-miterlimit:4;stroke-dasharray:none;stroke-opacity:1;visibility:visible"/><path d="m323.51 344.91 4.632-1.5" style="fill:none;stroke:#00ff4a;stroke-width:1.99999;stroke-linecap:round;stroke-linejoin:round;stroke-miterlimit:4;stroke-dasharray:none;stroke-opacity:1;visibility:visible"/><path d="m323.51 344.91 54.292 27.348M379.003 371.833l-1.199.425M382.245 373.464l-3.244-1.632M377.313 377.153l.505.416M377.313 377.153l-.02-4.128M379.024 377.138l-.023-5.305M377.295 373.024l.508-.767M445.276 508.042l.093.13.095.154.072.152.063.17.046.162.038.168.009.159-.001.154-.022.128-.032.126-.056.1-.065.073-.081.053M444.579 507.732l.088-.025h.095l.098.02.104.045.112.075.099.086.101.108M444.922 508.4l.07.103.069.12.058.13.046.13.022.13.014.126-.011.117-.016.101-.036.088-.057.063-.058.045-.073.018-.077-.007-.084-.032-.091-.05" style="fill:none;stroke:#00ff4a;stroke-width:.999997;stroke-linecap:round;stroke-linejoin:round;stroke-miterlimit:4;stroke-dasharray:none;stroke-opacity:1;visibility:visible"/><path d="m444.284 508.482.021-.092.034-.087.044-.064.057-.046.079-.018.07-.001.083.027.084.042.083.071.084.087M430.771 498.799l.09.13.093.146.068.15.064.165.042.164.039.165.005.152v.153l-.018.132-.039.119-.047.095-.07.073-.082.053M430.107 498.493l.088-.024.084-.001.099.029.096.041.102.066.102.088.093.106M430.422 499.14l.07.11.066.114.055.121.041.132.025.127.014.125-.006.112-.017.102-.043.08-.044.073-.06.039-.07.016-.07-.006-.086-.028-.083-.046" style="fill:none;stroke:#00ff4a;stroke-width:.999997;stroke-linecap:round;stroke-linejoin:round;stroke-miterlimit:4;stroke-dasharray:none;stroke-opacity:1;visibility:visible"/><path d="m429.815 499.22.019-.1.041-.087.06-.061.07-.039.078-.01.081.02.083.044.092.069.083.084M466.87 499.16l-3.75-2.284M467.641 500.673l257.458-116.322M467.547 519.005l.093-18.332M467.157 499.5l-.06-.107-.07-.1-.075-.076-.082-.057M467.157 499.5l.364.707M463.123 496.876l-.073-.033-.066-.022-.064.006-.054.018M467.641 500.673l-.008-.12-.023-.11-.037-.12-.052-.117M464.948 506.316l.133.067.122.037.125.016.115-.01.101-.045.092-.065.075-.084.062-.115.044-.14.035-.15.005-.167-.005-.177-.027-.188-.046-.184-.063-.19-.075-.188-.092-.178-.098-.163-.118-.153-.122-.139-.124-.108-.12-.092-.136-.067-.12-.044-.12-.008-.116.007-.106.047-.088.06-.082.088-.06.112-.04.138-.034.155-.008.16.014.176.022.187.04.192.066.192.072.181.089.18.104.163.115.153.12.133.124.119.125.092M462.576 510.408l-.107-.065-.106-.039-.092-.019-.091.01-.085.021M462.985 512.39l.083-.061.078-.072.05-.111.041-.123.016-.136-.003-.157-.01-.17-.042-.169-.049-.169-.068-.165-.085-.164-.094-.152-.102-.131-.112-.11-.112-.091M462.29 510.837l-.083-.048-.089-.023-.077-.004-.079.024-.063.051-.049.068-.036.093-.021.102" style="fill:none;stroke:#00ff4a;stroke-width:.999997;stroke-linecap:round;stroke-linejoin:round;stroke-miterlimit:4;stroke-dasharray:none;stroke-opacity:1;visibility:visible"/><path d="m462.224 512.088.088.057.103.03.082.008.082-.022.066-.05.048-.08.036-.094.023-.114v-.135l-.023-.141-.044-.136-.057-.143-.065-.13-.09-.117-.082-.1-.102-.084M454.28 509.175l-27.912-17.628M462.315 505.527l-8.036 3.648" style="fill:none;stroke:#00ff4a;stroke-width:.999997;stroke-linecap:round;stroke-linejoin:round;stroke-miterlimit:4;stroke-dasharray:none;stroke-opacity:1;visibility:visible"/><path d="m628.878 416.41.136.052.156.045.156.026.172.024.164.017.175.001.161-.009.156-.019.133-.03.122-.039.117-.044.084-.056.057-.061.042-.066.016-.069-.008-.072-.034-.076-.065-.068-.081-.07-.104-.066-.126-.056-.132-.05-.158-.045-.155-.029-.172-.023-.164-.016h-.172l-.156.008-.161.02-.143.028-.12.043-.104.044-.09.052-.063.065-.038.064-.016.074.011.07.032.072.065.07.083.069.101.065.123.055M530.625 460.012l.128.06.148.05.17.04.16.031.18.018.175.005.175-.015.164-.018.156-.027.137-.053.118-.054.106-.056.076-.076.06-.074.026-.082.01-.088-.025-.08-.048-.082-.067-.084-.101-.075-.112-.07-.141-.06-.138-.051-.172-.039-.161-.03-.175-.011-.177-.012-.177.014-.164.019-.151.033-.141.046-.122.05-.102.07-.083.068-.055.077-.026.075-.01.088.026.082.044.086.073.081.09.073.126.071" style="fill:none;stroke:#00ff4a;stroke-width:.666665;stroke-linecap:round;stroke-linejoin:round;stroke-miterlimit:4;stroke-dasharray:none;stroke-opacity:1;visibility:visible"/><path d="m454.5 514.751.019-5.112M454.407 514.944l.036-.025.032-.042.017-.049.008-.077M454.519 509.64l-.013-.087-.023-.092-.035-.09-.046-.078-.06-.07-.063-.047M426.368 491.547l-.044-.024-.047-.012-.045.012M385.058 259.848l257.762-73.372M381.886 258.395l3.172 1.07" style="fill:none;stroke:#00ff4a;stroke-width:.999997;stroke-linecap:round;stroke-linejoin:round;stroke-miterlimit:4;stroke-dasharray:none;stroke-opacity:1;visibility:visible"/><path d="m383.344 460.874.008.168.021.164.039.167.05.168.069.168.066.152.08.149.099.136.096.112.104.097.097.076.11.051.101.036.092.007.097-.019.075-.045.08-.059.057-.09.05-.103.034-.127.028-.136v-.312l-.021-.165-.041-.174-.05-.166-.062-.162-.078-.162-.078-.146-.095-.126-.1-.123-.1-.09-.104-.077-.099-.056-.102-.028-.098-.006-.092.014-.084.042-.072.066-.068.09-.044.104-.037.12-.02.14-.008.145M383.055 366.682l.013.157.019.174.036.165.047.161.062.159.079.147.088.142.081.12.104.096.106.09.106.068.103.037.104.017.09-.008.1-.03.078-.051.076-.081.07-.091.049-.116.037-.135.015-.145.009-.153-.007-.164-.025-.166-.032-.165-.055-.165-.064-.16-.07-.147-.09-.139-.092-.121-.1-.103-.101-.086-.11-.062-.094-.044-.104-.017-.105.01-.084.034-.088.055-.074.073-.062.1-.05.116-.036.127-.021.145-.008.156M382.748 267.157l.008.165.02.163.043.167.046.164.072.144.07.148.088.128.093.108.095.092.104.068.11.05.107.026.095.002.106-.024.092-.042.086-.07.07-.089.063-.104.048-.124.043-.143.021-.153v-.156l-.005-.167-.019-.161-.04-.167-.05-.158-.062-.15-.075-.148-.09-.128-.092-.105-.102-.097-.098-.064-.115-.052-.1-.019-.103-.003-.098.015-.092.052-.088.064-.074.09-.06.109-.052.125-.037.135-.025.15-.003.159" style="fill:none;stroke:#00ff4a;stroke-width:.666665;stroke-linecap:round;stroke-linejoin:round;stroke-miterlimit:4;stroke-dasharray:none;stroke-opacity:1;visibility:visible"/><path d="m561.756 135.657.305-.321M562.123 135.278l-.03.021-.033.036M561.756 135.657l-.039.047-.042.048M561.675 135.751l-.005.025v.022M573.857 134.794l.273.29M574.26 135.337h0M574.26 135.337l-.03-.116M574.23 135.22l-.005-.02-.023-.023M574.2 135.178l-.039-.052-.032-.041M573.857 134.794l-.028-.035-.019-.025M560.47 172.598h0M567.703 133.956h0M573.81 134.734l-.07-.012-.067-.012M562.123 135.278l.06-.017.063-.016M574.498 172.212h0M560.47 172.598l1.2-36.801M567.703 133.956l5.972.753M562.245 135.244l5.459-1.288M574.26 135.337l.237 36.875M560.47 172.598l-.081 6.023M560.37 180.295l-.104 7.123M574.498 172.212l-.005.293M724.649 399.89l.481.176M726.594 400.092l6.237-2.89M732.831 397.201l.05-.03.029-.033.02-.044M726.232 400.15l.11-.001.1-.011.085-.019.066-.026M725.55 400.135l.683.016M725.13 400.066l.093.025.107.019.107.017.112.008M740.01 156.166l-.407-.48M739.519 155.583l.044.048.04.055M740.01 156.166l.044.06.05.061M740.105 156.287v.005M725.068 156.143l-.041.027-.044.032-.472.392M724.51 156.594l-.057.045-.05.062" style="fill:none;stroke:#00ff4a;stroke-width:1.99999;stroke-linecap:round;stroke-linejoin:round;stroke-miterlimit:4;stroke-dasharray:none;stroke-opacity:1;visibility:visible"/><path d="m724.404 156.7-.008.01v.013M739.519 155.583l-.079-.017-.09-.014M730.95 154.496h.019M725.149 156.123l-.044.008-.039.012M721.36 200.08h0M730.97 154.496l8.38 1.056M730.95 154.496l-5.804 1.627M721.36 200.08l3.036-43.359M740.105 156.293l-7.175 240.8M721.36 200.08l-5.172 183.277" style="fill:none;stroke:#00ff4a;stroke-width:1.99999;stroke-linecap:round;stroke-linejoin:round;stroke-miterlimit:4;stroke-dasharray:none;stroke-opacity:1;visibility:visible"/><path d="m571.605 172.496.161-.037M573.852 172.418l-.727.192-.984-.17M571.766 172.459l.375-.019M570.472 187.249l-.024-.033-.02-.034-.013-.029M570.649 187.439l-.177-.19M570.78 173.433l.07-.108M570.667 173.61l.112-.177M570.6 173.76l.016-.047.023-.052.029-.05M570.763 187.503l-.039-.015-.046-.024-.03-.025" style="fill:none;stroke:#00ff4a;stroke-width:.999997;stroke-linecap:round;stroke-linejoin:round;stroke-miterlimit:4;stroke-dasharray:none;stroke-opacity:1;visibility:visible"/><path d="m573.852 172.418.044-.005.044.004" style="fill:none;stroke:#00ff4a;stroke-width:1.99999;stroke-linecap:round;stroke-linejoin:round;stroke-miterlimit:4;stroke-dasharray:none;stroke-opacity:1;visibility:visible"/><path d="m570.414 187.153-.008-.004v-.021l.003-.007M570.6 173.76l.003.012-.003.007v.04" style="fill:none;stroke:#00ff4a;stroke-width:.999997;stroke-linecap:round;stroke-linejoin:round;stroke-miterlimit:4;stroke-dasharray:none;stroke-opacity:1;visibility:visible"/><path d="m573.94 172.416 147.617 24.821" style="fill:none;stroke:#00ff4a;stroke-width:1.99999;stroke-linecap:round;stroke-linejoin:round;stroke-miterlimit:4;stroke-dasharray:none;stroke-opacity:1;visibility:visible"/><path d="m570.763 187.503 6.637 1.233" style="fill:none;stroke:#00ff4a;stroke-width:.999997;stroke-linecap:round;stroke-linejoin:round;stroke-miterlimit:4;stroke-dasharray:none;stroke-opacity:1;visibility:visible"/><path d="m674.144 206.707 46.779 8.683" style="fill:none;stroke:#00ff4a;stroke-width:1.99999;stroke-linecap:round;stroke-linejoin:round;stroke-miterlimit:4;stroke-dasharray:none;stroke-opacity:1;visibility:visible"/><path d="m570.41 187.121.19-13.304" style="fill:none;stroke:#00ff4a;stroke-width:.999997;stroke-linecap:round;stroke-linejoin:round;stroke-miterlimit:4;stroke-dasharray:none;stroke-opacity:1;visibility:visible"/><path d="m679.654 381.378-40.612-14.624M381.386 433.182l-.065.03-.052.058-.052.075-.032.081-.034.095M381.638 434.944l.083.056.084.03.074.026.075-.001.07-.019M381.086 433.812l-.02.11v.111l.015.122.028.12.046.124.048.106.06.103.07.088.078.065M384.305 434.15l-2.281.887M383.675 432.299l-2.29.884M381.086 433.812l.065-.29M381.412 434.762l.227.183M381.065 315.471l-.075.041-.062.056-.064.071-.048.093-.04.112M381.154 317.178l.084.07.093.051.087.02.09.011.083-.019M380.706 316.11l-.023.095-.005.105.015.11.016.11.029.11.039.11.052.096.061.081.065.068M383.899 316.582l-2.305.728M383.373 314.74l-2.305.732M380.706 316.11l.07-.265M380.956 316.995l.196.183M322.43 255.04l-.065.025-.055.036-.05.059-.046.065-.035.08M322.073 255.564l-.025.081-.01.104v.104l.007.108.028.111.028.1.047.097.045.086.064.065M324.6 254.45l-2.17.59M322.073 255.564l.104-.259M381.959 281.182l-3.273-1.215-1.214.359-54.697-20.31M322.258 256.828l-.404-.152M561.086 187.201l-239.275 64.544" style="fill:none;stroke:#00ff4a;stroke-width:1.99999;stroke-linecap:round;stroke-linejoin:round;stroke-miterlimit:4;stroke-dasharray:none;stroke-opacity:1;visibility:visible"/><path d="m571.006 187.545-3.297.893-6.622-1.237" style="fill:none;stroke:#00ff4a;stroke-width:.999997;stroke-linecap:round;stroke-linejoin:round;stroke-miterlimit:4;stroke-dasharray:none;stroke-opacity:1;visibility:visible"/><path d="m321.5 253.26-.01-1.085M322.284 259.595l-.028-2.767M321.49 252.175l.32-.43M324.795 254.464l-.065-.02-.07-.007-.06.012M322.776 260.016l-.492-.42M381.024 296.201l-.084.041-.072.056-.06.079-.05.088-.04.11M381.076 297.902l.083.067.097.054.084.032.097.002.076-.008M380.644 296.837l-.023.1-.005.1.005.112.02.107.031.113.035.101.054.095.06.09.064.069M383.831 297.331l-2.317.717M383.331 295.496l-2.305.705M380.644 296.837l.077-.26M380.883 297.722l.195.18M382.266 378.794l-3.244-1.656-1.204.43-54.265-27.753M382.084 321.526l-59.495 19.117M322.29 342.299l-.013-1.276M323.06 349.426l-.03-3.728M322.263 341.023l.325-.379M323.553 349.815l-.492-.39M445.435 509.772l-.085.025-.095.002-.104-.022-.101-.045-.104-.065M444.32 508.17l.027-.123.033-.109.052-.09.063-.069.082-.046M444.698 509.483l-.079-.073-.082-.094-.076-.106-.055-.116-.06-.122-.033-.128-.027-.125-.012-.12.008-.117M444.579 507.732l2.38-1.076M445.435 509.772l2.38-1.075M444.284 508.482l.036-.312M444.698 509.483l.248.184M430.917 500.496l-.081.025h-.091l-.09-.021-.102-.041-.092-.064M429.852 498.906l.03-.112.035-.1.052-.093.066-.06.072-.047M430.214 500.21l-.079-.072-.082-.09-.071-.102-.057-.12-.05-.12-.044-.13-.016-.12-.01-.127.01-.11M430.107 498.493l2.355-1.035M430.917 500.496l2.357-1.044M429.815 499.22l.036-.313M430.214 500.21l.248.184" style="fill:none;stroke:#00ff4a;stroke-width:1.99999;stroke-linecap:round;stroke-linejoin:round;stroke-miterlimit:4;stroke-dasharray:none;stroke-opacity:1;visibility:visible"/><path d="m724.26 383.178-4.177-1.45" style="fill:none;stroke:#00ff4a;stroke-width:.999997;stroke-linecap:round;stroke-linejoin:round;stroke-miterlimit:4;stroke-dasharray:none;stroke-opacity:1;visibility:visible"/><path d="m724.649 399.89-257.1 119.114M462.266 515.667l5.281 3.337" style="fill:none;stroke:#00ff4a;stroke-width:1.99999;stroke-linecap:round;stroke-linejoin:round;stroke-miterlimit:4;stroke-dasharray:none;stroke-opacity:1;visibility:visible"/><path d="m462.31 505.871-.021 4.356" style="fill:none;stroke:#00ff4a;stroke-width:.999997;stroke-linecap:round;stroke-linejoin:round;stroke-miterlimit:4;stroke-dasharray:none;stroke-opacity:1;visibility:visible"/><path d="m462.347 497.44-.036 8.43M462.29 512.129l-.024 3.539" style="fill:none;stroke:#00ff4a;stroke-width:1.99999;stroke-linecap:round;stroke-linejoin:round;stroke-miterlimit:4;stroke-dasharray:none;stroke-opacity:1;visibility:visible"/><path d="m724.581 383.424-.068-.084-.07-.07-.089-.053-.093-.04M724.974 383.983l-.393-.559M725.1 384.35l-.003-.084-.025-.099-.04-.098-.057-.086" style="fill:none;stroke:#00ff4a;stroke-width:.999997;stroke-linecap:round;stroke-linejoin:round;stroke-miterlimit:4;stroke-dasharray:none;stroke-opacity:1;visibility:visible"/><path d="m720.084 381.728-.083-.017-.062-.004-.079.004-.057.021M462.865 496.844l-.019.004-.012.017M462.47 497.128l-.047.055-.041.072-.027.085-.008.1M462.47 497.128l.364-.263M465.388 511.288l.083-.052.065-.073.05-.106.04-.109.025-.143v-.146l-.011-.164-.033-.164-.047-.167-.063-.165-.076-.163-.096-.144-.098-.132-.102-.117-.112-.095-.109-.075-.115-.053-.112-.03-.101.002-.095.028M462.865 496.844l256.937-115.112M462.094 510.316l-.085.055-.071.074-.055.102-.034.113-.023.133M462.47 512.268l.107.072.109.052.112.024.099-.004.089-.023M461.792 511.1l.005.125.014.143.033.133.052.147.07.13.074.12.088.103.096.087M465.388 511.288l-2.404 1.101M464.482 509.22l-2.388 1.095M461.792 511.1l.033-.305M462.224 512.088l.245.18" style="fill:none;stroke:#00ff4a;stroke-width:1.99999;stroke-linecap:round;stroke-linejoin:round;stroke-miterlimit:4;stroke-dasharray:none;stroke-opacity:1;visibility:visible"/><path d="m708.373 386.856-22.65-8.052" style="fill:none;stroke:#00ff4a;stroke-width:.999997;stroke-linecap:round;stroke-linejoin:round;stroke-miterlimit:4;stroke-dasharray:none;stroke-opacity:1;visibility:visible"/><path d="m426.357 497.098 3.448 2.201M431.373 500.3l12.904 8.25M445.883 509.567l8.38 5.361M426.144 491.715l-.003 4.94M685.722 378.805l-.05-.01h-.054l-.044.01M454.263 514.928l.047.024.052.003.044-.011M426.232 491.523l-.033.027-.027.044-.019.06-.009.061M426.141 496.655l.01.077.018.091.035.09.046.074.052.063.055.049M447.815 508.697l.081-.052.07-.079.049-.09.045-.122.018-.13v-.15l-.012-.156-.024-.161-.05-.167-.06-.154-.068-.16-.088-.146-.101-.132-.097-.116-.107-.097-.11-.072-.111-.053-.099-.027-.099-.001-.094.025M433.274 499.452l.083-.047.07-.074.044-.092.043-.115.02-.127.005-.149-.013-.147-.023-.162-.044-.156-.06-.163-.068-.152-.084-.144-.082-.13-.104-.115-.099-.094-.11-.074-.105-.051-.098-.028h-.091l-.096.025M461.86 511.55l-7.453 3.395M685.573 378.805l-259.34 112.718M674.602 206.562l.372-.33M381.886 258.395l257.267-72.922M382.555 469.098l-.117-34.223M382.43 432.778l-.363-115.617M382.063 315.163l-.057-17.273M382 295.906l-.115-37.512M385.657 471.083l-3.101-1.984M385.657 471.083l253.385-104.328" style="fill:none;stroke:#00ff4a;stroke-width:1.99999;stroke-linecap:round;stroke-linejoin:round;stroke-miterlimit:4;stroke-dasharray:none;stroke-opacity:1;visibility:visible"/><path d="m642.82 186.095-.284 13.87M642.188 216.484l-3.145 150.27M639.154 185.472l3.667.623" style="fill:none;stroke:#00ff4a;stroke-width:.999997;stroke-linecap:round;stroke-linejoin:round;stroke-miterlimit:4;stroke-dasharray:none;stroke-opacity:1;visibility:visible"/><path d="m384.305 434.15.075-.044.066-.061.051-.082.04-.102.021-.118.012-.128v-.144l-.016-.14-.036-.149-.044-.148-.049-.148-.068-.128-.08-.125-.084-.108-.083-.091-.092-.068-.09-.053-.094-.03-.086-.001-.075.017M383.831 297.331l.08-.032.07-.061.057-.078.057-.098.037-.112.027-.124.013-.14-.008-.139-.022-.152-.024-.144-.046-.14-.061-.135-.07-.121-.078-.11-.076-.093-.1-.076-.085-.05-.091-.038-.096-.006-.084.014M383.899 316.582l.077-.039.067-.065.063-.079.052-.097.042-.112.022-.128.008-.135-.012-.146-.014-.14-.041-.151-.043-.14-.062-.13-.064-.122-.079-.112-.09-.096-.087-.068-.09-.057-.09-.031-.096-.01-.091.015" style="fill:none;stroke:#00ff4a;stroke-width:1.99999;stroke-linecap:round;stroke-linejoin:round;stroke-miterlimit:4;stroke-dasharray:none;stroke-opacity:1;visibility:visible"/><path d="m393.342 253.644 1.279.383M505.371 222.91l1.3.301M602.002 195.874l1.312.236" style="fill:none;stroke:#00ff4a;stroke-width:.666665;stroke-linecap:round;stroke-linejoin:round;stroke-miterlimit:4;stroke-dasharray:none;stroke-opacity:1;visibility:visible"/><path d="m317.84 258.077 4.85-1.03M316.482 255.3l.417-.581M316.986 257.682l.623.359M317.343 254.634a.352.352 0 0 0-.25-.044.325.325 0 0 0-.191.127M317.609 258.04a.328.328 0 0 0 .44-.108M318.049 257.933c.111-.179.186-.376.206-.583M318.258 257.349a3.723 3.723 0 0 0-.483-2.263M317.773 255.085a1.347 1.347 0 0 0-.433-.448M316.474 255.309a.917.917 0 0 0-.15.423M316.323 255.732a2.676 2.676 0 0 0 .042.837c.057.277.157.537.305.779M316.669 257.349a1 1 0 0 0 .308.325" style="fill:none;stroke:#00ff4a;stroke-width:.666665;stroke-linecap:round;stroke-linejoin:round;stroke-miterlimit:2;stroke-dasharray:none;stroke-opacity:1;visibility:visible"/><path d="m317.097 254.589 6.47-1.375s.728.988.563 2.03" style="fill:none;stroke:#00ff4a;stroke-width:.666665;stroke-linecap:round;stroke-linejoin:round;stroke-miterlimit:2;stroke-dasharray:none;stroke-opacity:1;visibility:visible"/><path d="m319.27 255.92 3.416-.688" style="fill:none;stroke:#00ff4a;stroke-width:.666665;stroke-linecap:round;stroke-linejoin:round;stroke-miterlimit:4;stroke-dasharray:none;stroke-opacity:1;visibility:visible"/><path d="m317.86 347.54 4.85-1.034M316.5 344.762l.42-.583M317.006 347.142l.623.358M317.365 344.095a.36.36 0 0 0-.25-.044.328.328 0 0 0-.194.127M317.629 347.502a.339.339 0 0 0 .231.038.353.353 0 0 0 .209-.146M318.069 347.393c.113-.178.185-.376.208-.583M318.277 346.809a3.693 3.693 0 0 0-.06-1.172 3.61 3.61 0 0 0-.424-1.091M317.793 344.546a1.343 1.343 0 0 0-.431-.448M316.493 344.77a.91.91 0 0 0-.148.42M316.343 345.191a2.644 2.644 0 0 0 .04.839c.059.277.159.539.307.779M316.689 346.809a.964.964 0 0 0 .309.325" style="fill:none;stroke:#00ff4a;stroke-width:.666665;stroke-linecap:round;stroke-linejoin:round;stroke-miterlimit:2;stroke-dasharray:none;stroke-opacity:1;visibility:visible"/><path d="m317.115 344.051 6.472-1.374s.728.988.563 2.03" style="fill:none;stroke:#00ff4a;stroke-width:.666665;stroke-linecap:round;stroke-linejoin:round;stroke-miterlimit:2;stroke-dasharray:none;stroke-opacity:1;visibility:visible"/><path d="m319.29 345.38 3.417-.686" style="fill:none;stroke:#00ff4a;stroke-width:.666665;stroke-linecap:round;stroke-linejoin:round;stroke-miterlimit:4;stroke-dasharray:none;stroke-opacity:1;visibility:visible"/><path d="M385.32 295.889c.472 1.484-.105 2.99-1.285 3.361l-5.797 1.828c-1.182.373-2.514-.532-2.982-2.02-.469-1.487.107-2.987 1.284-3.364l5.8-1.824c1.178-.375 2.511.53 2.98 2.02" style="fill:none;fill-opacity:1;fill-rule:nonzero;stroke:#00ff4a;stroke-width:1.33333;visibility:visible"/><path d="m377.131 296.72 6.257-1.896M378.05 299.743l6.257-1.9M376.64 297.395l.325-.548M377.266 299.458l.576.268M377.354 296.74a.313.313 0 0 0-.224-.02.288.288 0 0 0-.163.13M377.842 299.726a.304.304 0 0 0 .208.017.31.31 0 0 0 .173-.142M378.223 299.602a1.256 1.256 0 0 0 .141-.532M378.366 299.069a3.323 3.323 0 0 0-.143-1.03 3.363 3.363 0 0 0-.456-.932M377.766 297.106a1.195 1.195 0 0 0-.416-.361M376.634 297.402a.861.861 0 0 0-.1.384M376.532 297.786a2.327 2.327 0 0 0 .426 1.404M376.96 299.189a.84.84 0 0 0 .3.261M383.608 294.843a.285.285 0 0 0-.218-.02M384.308 297.843a.28.28 0 0 0 .172-.138M383.594 294.837l.576.27M384.474 297.717l.325-.547M384.18 295.113a.028.028 0 0 1-.01-.007M384.799 297.171c.003 0 .003-.009.007-.01M384.806 297.16a.799.799 0 0 0 .097-.38M384.903 296.778a2.292 2.292 0 0 0-.097-.736 2.462 2.462 0 0 0-.326-.67M384.479 295.371a.96.96 0 0 0-.299-.258" style="fill:none;stroke:#00ff4a;stroke-width:.666665;stroke-linecap:round;stroke-linejoin:round;stroke-miterlimit:2;stroke-dasharray:none;stroke-opacity:1;visibility:visible"/><path d="m379.15 297.731 4.169-1.218" style="fill:none;stroke:#00ff4a;stroke-width:.666665;stroke-linecap:round;stroke-linejoin:round;stroke-miterlimit:4;stroke-dasharray:none;stroke-opacity:1;visibility:visible"/><path d="M385.178 315.171c.472 1.484-.106 2.991-1.286 3.362l-5.797 1.826c-1.181.375-2.513-.529-2.981-2.018-.47-1.488.106-2.991 1.284-3.364l5.798-1.824c1.179-.376 2.512.527 2.982 2.017" style="fill:none;fill-opacity:1;fill-rule:nonzero;stroke:#00ff4a;stroke-width:1.33333;visibility:visible"/><path d="M384.759 316.06a2.296 2.296 0 0 0-.097-.738 2.48 2.48 0 0 0-.326-.669M384.335 314.654a.96.96 0 0 0-.299-.259M376.987 316.002l6.257-1.896M377.907 319.023l6.257-1.898M376.496 316.677l.327-.547M377.123 318.74l.577.27M377.211 316.022a.307.307 0 0 0-.223-.02.283.283 0 0 0-.164.128M377.7 319.009a.299.299 0 0 0 .38-.124M378.08 318.885a1.267 1.267 0 0 0 .139-.535M378.222 318.349a3.328 3.328 0 0 0-.143-1.03 3.356 3.356 0 0 0-.456-.929M377.623 316.389a1.184 1.184 0 0 0-.416-.363M376.49 316.685a.857.857 0 0 0-.1.384M376.39 317.069a2.327 2.327 0 0 0 .425 1.401M376.818 318.47a.845.845 0 0 0 .298.264M383.466 314.125a.279.279 0 0 0-.219-.019M384.164 317.125a.272.272 0 0 0 .171-.139M383.45 314.118l.577.27M384.33 316.997l.325-.544M384.038 314.395c-.008-.002-.01-.005-.011-.008M384.656 316.453c.004-.003.004-.01.007-.011" style="fill:none;stroke:#00ff4a;stroke-width:.666665;stroke-linecap:round;stroke-linejoin:round;stroke-miterlimit:2;stroke-dasharray:none;stroke-opacity:1;visibility:visible"/><path d="M384.662 316.442a.8.8 0 0 0 .097-.383" style="fill:none;stroke:#00ff4a;stroke-width:.666665;stroke-linecap:round;stroke-linejoin:round;stroke-miterlimit:2;stroke-dasharray:none;stroke-opacity:1;visibility:visible"/><path d="m379.006 317.015 4.169-1.22" style="fill:none;stroke:#00ff4a;stroke-width:.666665;stroke-linecap:round;stroke-linejoin:round;stroke-miterlimit:4;stroke-dasharray:none;stroke-opacity:1;visibility:visible"/><path d="M385.5 432.558c.591 1.44.143 2.99-1 3.457l-5.626 2.301c-1.148.472-2.55-.32-3.139-1.764-.595-1.442-.144-2.985 1-3.458l5.627-2.299c1.145-.473 2.55.317 3.138 1.763" style="fill:none;fill-opacity:1;fill-rule:nonzero;stroke:#00ff4a;stroke-width:1.33333;visibility:visible"/><path d="m377.408 434.068 6.08-2.412M378.575 437.002l6.08-2.414M376.976 434.778l.28-.572M377.77 436.784l.594.219M377.631 434.068a.299.299 0 0 0-.376.14M378.367 437.002a.292.292 0 0 0 .368-.156M378.736 436.847a1.236 1.236 0 0 0 .095-.544M378.832 436.303a3.317 3.317 0 0 0-.758-1.905M378.074 434.398a1.215 1.215 0 0 0-.446-.328M376.97 434.788a.856.856 0 0 0-.071.39M376.9 435.178c.015.25.072.494.162.724.09.234.218.45.381.638M377.443 436.54a.853.853 0 0 0 .317.24M383.707 431.658a.293.293 0 0 0-.22-.002M384.652 434.588a.267.267 0 0 0 .159-.152M383.692 431.652l.595.222M384.808 434.447l.279-.57M384.3 431.88l-.009-.007M385.087 433.88c.003 0 .003-.01.007-.014M385.092 433.867a.797.797 0 0 0 .066-.387M385.159 433.48a2.37 2.37 0 0 0-.539-1.369M384.619 432.112a.935.935 0 0 0-.319-.232" style="fill:none;stroke:#00ff4a;stroke-width:.666665;stroke-linecap:round;stroke-linejoin:round;stroke-miterlimit:2;stroke-dasharray:none;stroke-opacity:1;visibility:visible"/><path d="m379.503 434.907 4.053-1.56" style="fill:none;stroke:#00ff4a;stroke-width:.666665;stroke-linecap:round;stroke-linejoin:round;stroke-miterlimit:4;stroke-dasharray:none;stroke-opacity:1;visibility:visible"/><path d="M434.602 497.864c.642 1.419.248 2.984-.878 3.49l-5.538 2.503c-1.132.511-2.56-.231-3.202-1.653-.644-1.421-.246-2.98.876-3.492l5.544-2.497c1.126-.513 2.559.227 3.198 1.65" style="fill:none;fill-opacity:1;fill-rule:nonzero;stroke:#00ff4a;stroke-width:1.33333;visibility:visible"/><path d="M434.29 498.799a2.24 2.24 0 0 0-.182-.72 2.395 2.395 0 0 0-.404-.629M433.704 497.45a.952.952 0 0 0-.326-.22M426.567 499.662l5.99-2.627M427.839 502.55l5.99-2.625M426.16 500.388l.258-.581M427.026 502.364l.604.198M426.79 499.655a.296.296 0 0 0-.37.152M427.63 502.562a.287.287 0 0 0 .208-.012.293.293 0 0 0 .156-.158M427.994 502.39a1.301 1.301 0 0 0 .076-.545M428.07 501.844a3.285 3.285 0 0 0-.825-1.876M427.244 499.968a1.193 1.193 0 0 0-.456-.31M426.156 500.395a.852.852 0 0 0-.054.395M426.102 500.79c.02.248.085.49.185.717.099.23.233.443.403.625M426.69 502.132a.861.861 0 0 0 .329.226M432.776 497.028a.28.28 0 0 0-.22.007M433.827 499.924a.27.27 0 0 0 .15-.157M432.763 497.023l.601.2M433.976 499.779l.258-.579M433.378 497.228c-.008-.001-.011-.004-.014-.005M434.234 499.2c.002 0 .002-.01.005-.012" style="fill:none;stroke:#00ff4a;stroke-width:.666665;stroke-linecap:round;stroke-linejoin:round;stroke-miterlimit:2;stroke-dasharray:none;stroke-opacity:1;visibility:visible"/><path d="M434.239 499.188a.79.79 0 0 0 .051-.39" style="fill:none;stroke:#00ff4a;stroke-width:.666665;stroke-linecap:round;stroke-linejoin:round;stroke-miterlimit:2;stroke-dasharray:none;stroke-opacity:1;visibility:visible"/><path d="m428.692 500.426 3.995-1.703" style="fill:none;stroke:#00ff4a;stroke-width:.666665;stroke-linecap:round;stroke-linejoin:round;stroke-miterlimit:4;stroke-dasharray:none;stroke-opacity:1;visibility:visible"/><path d="M449.206 507.124c.642 1.419.249 2.983-.876 3.49l-5.54 2.5c-1.131.514-2.56-.227-3.202-1.647-.644-1.424-.246-2.983.878-3.497l5.542-2.496c1.127-.514 2.559.226 3.198 1.65" style="fill:none;fill-opacity:1;fill-rule:nonzero;stroke:#00ff4a;stroke-width:1.33333;visibility:visible"/><path d="m441.172 508.922 5.99-2.627M442.443 511.812l5.987-2.628M440.766 509.647l.257-.58M441.63 511.624l.606.199M441.395 508.914a.293.293 0 0 0-.223.009.275.275 0 0 0-.148.144M442.235 511.823a.287.287 0 0 0 .208-.01.297.297 0 0 0 .155-.161M442.599 511.652a1.301 1.301 0 0 0 .079-.546M442.676 511.106a3.253 3.253 0 0 0-.828-1.876M441.848 509.228a1.193 1.193 0 0 0-.456-.31M440.759 509.655a.847.847 0 0 0-.055.393M440.706 510.05c.022.248.084.492.186.718.099.23.234.442.404.623M441.296 511.39a.83.83 0 0 0 .327.229M447.382 506.29a.28.28 0 0 0-.22.006M448.432 509.184a.27.27 0 0 0 .152-.158M447.367 506.284l.603.2M448.582 509.039l.257-.58M447.983 506.49c-.008 0-.01-.004-.013-.006M448.839 508.46s.003-.01.005-.012M448.844 508.448a.798.798 0 0 0 .05-.39M448.895 508.058a2.204 2.204 0 0 0-.183-.72 2.452 2.452 0 0 0-.402-.626M448.31 506.71a.959.959 0 0 0-.327-.22" style="fill:none;stroke:#00ff4a;stroke-width:.666665;stroke-linecap:round;stroke-linejoin:round;stroke-miterlimit:2;stroke-dasharray:none;stroke-opacity:1;visibility:visible"/><path d="m443.296 509.686 3.995-1.703" style="fill:none;stroke:#00ff4a;stroke-width:.666665;stroke-linecap:round;stroke-linejoin:round;stroke-miterlimit:4;stroke-dasharray:none;stroke-opacity:1;visibility:visible"/><path d="M466.601 509.615c.643 1.419.25 2.984-.877 3.49l-5.538 2.503c-1.132.509-2.56-.231-3.202-1.651-.644-1.426-.246-2.983.876-3.496l5.544-2.497c1.126-.513 2.559.227 3.197 1.65" style="fill:none;fill-opacity:1;fill-rule:nonzero;stroke:#00ff4a;stroke-width:1.33333;visibility:visible"/><path d="M466.239 510.938a.783.783 0 0 0 .051-.39M466.29 510.548a2.248 2.248 0 0 0-.182-.72 2.44 2.44 0 0 0-.404-.628M465.704 509.202a.933.933 0 0 0-.327-.222M458.567 511.41l5.99-2.623M459.839 514.302l5.99-2.628M458.16 512.136l.258-.58M459.026 514.112l.604.199M458.79 511.404a.31.31 0 0 0-.222.007.284.284 0 0 0-.149.147M459.63 514.312a.293.293 0 0 0 .364-.17M459.994 514.14a1.295 1.295 0 0 0 .076-.545M460.07 513.595a3.324 3.324 0 0 0-.825-1.877M459.244 511.718a1.205 1.205 0 0 0-.456-.31M458.156 512.146a.847.847 0 0 0-.054.393M458.102 512.539c.02.248.085.493.185.719.099.23.233.44.403.624M458.69 513.882a.861.861 0 0 0 .329.225M464.776 508.779a.28.28 0 0 0-.22.007M465.827 511.674a.267.267 0 0 0 .15-.16M464.763 508.775l.601.2M465.976 511.528l.257-.58M465.377 508.979l-.012-.005" style="fill:none;stroke:#00ff4a;stroke-width:.666665;stroke-linecap:round;stroke-linejoin:round;stroke-miterlimit:2;stroke-dasharray:none;stroke-opacity:1;visibility:visible"/><path d="M466.233 510.948c.003-.001.003-.01.007-.012" style="fill:none;stroke:#00ff4a;stroke-width:.666665;stroke-linecap:round;stroke-linejoin:round;stroke-miterlimit:2;stroke-dasharray:none;stroke-opacity:1;visibility:visible"/><path d="m460.692 512.175 3.995-1.703" style="fill:none;stroke:#00ff4a;stroke-width:.666665;stroke-linecap:round;stroke-linejoin:round;stroke-miterlimit:4;stroke-dasharray:none;stroke-opacity:1;visibility:visible"/><path d="m385.056 259.469.599 211.617M568.829 136.829l-1.654-1.969M567.704 133.956l-.529.904M560.37 180.295l6.93 8.07M730.97 154.496l2.051 1.099M733.217 157.863l-.196-2.268M675.203 191.937l-3.421-.583M671.782 191.354l3.421.583M643.603 352.803l-4.269-.279M720.083 381.729l-3.78-2.638M682.486 372.64l-2.051.881M682.487 372.64l-2.052.881M720.083 381.729l-3.723-4.407M642.536 199.966l4.759 14.96M642.536 199.966l2.86 15.54M381.886 258.395l.052 17.361M376.941 275.676l1.744 4.292M377.293 373.025l1.731 4.113M465.377 508.979l-.429-2.663M462.576 510.409l2.372-4.093" style="fill:none;stroke:#00ff4a;stroke-width:.999997;stroke-linecap:round;stroke-linejoin:round;stroke-miterlimit:4;stroke-dasharray:none;stroke-opacity:1;visibility:visible"/><path d="m382.555 469.098.789-8.224M379.024 377.138l4.031-10.456M379.001 371.833l4.054-5.151M378.685 279.968l4.063-12.811M385.056 259.469l-2.308 7.688" style="fill:none;stroke:#00ff4a;stroke-width:.666665;stroke-linecap:round;stroke-linejoin:round;stroke-miterlimit:4;stroke-dasharray:none;stroke-opacity:1;visibility:visible"/><path d="m560.37 180.295.019-1.674M560.389 178.62l-.019 1.675" style="fill:none;stroke:#00ff4a;stroke-width:1.99999;stroke-linecap:round;stroke-linejoin:round;stroke-miterlimit:4;stroke-dasharray:none;stroke-opacity:1;visibility:visible"/><path d="m570.675 174.098 6.725 14.638" style="fill:none;stroke:#00ff4a;stroke-width:.999997;stroke-linecap:round;stroke-linejoin:round;stroke-miterlimit:4;stroke-dasharray:none;stroke-opacity:1;visibility:visible"/><path d="m683.506 376.22-3.852 5.158M378.667 274.567l3.292 6.615M322.255 255.715l-.755-2.455M379.001 371.832l3.265 6.962M381.594 317.31l.49 4.216M323.03 345.698l-.74-3.399" style="fill:none;stroke:#00ff4a;stroke-width:1.99999;stroke-linecap:round;stroke-linejoin:round;stroke-miterlimit:4;stroke-dasharray:none;stroke-opacity:1;visibility:visible"/><path d="m720.083 381.729-11.71 5.127" style="fill:none;stroke:#00ff4a;stroke-width:.999997;stroke-linecap:round;stroke-linejoin:round;stroke-miterlimit:4;stroke-dasharray:none;stroke-opacity:1;visibility:visible"/><path d="m382.438 434.875-.008-2.097M382.067 317.161l-.004-1.998M382.006 297.89l-.006-1.984" style="fill:none;stroke:#00ff4a;stroke-width:1.99999;stroke-linecap:round;stroke-linejoin:round;stroke-miterlimit:4;stroke-dasharray:none;stroke-opacity:1;visibility:visible"/><path d="m647.295 214.926-4.759-14.96M642.536 199.966l-.348 16.518" style="fill:none;stroke:#00ff4a;stroke-width:.999997;stroke-linecap:round;stroke-linejoin:round;stroke-miterlimit:4;stroke-dasharray:none;stroke-opacity:1;visibility:visible"/><path d="m385.058 259.466 8.284-5.822M381.886 258.395l12.735-4.368M322.69 257.047l-3.42-1.127M322.71 346.506l-3.42-1.126M383.831 297.331l-4.681.4M381.591 317.311l-2.585-.296M384.164 317.125l-.989-1.33M381.386 433.182l-1.883 1.725M384.652 434.588l-1.096-1.241M433.274 499.452l-4.582.974M447.815 508.697l-4.519.989M461.86 511.55l-1.168.625M466.233 510.948l-1.546-.476" style="fill:none;stroke:#00ff4a;stroke-width:.666665;stroke-linecap:round;stroke-linejoin:round;stroke-miterlimit:4;stroke-dasharray:none;stroke-opacity:1;visibility:visible"/></svg>