<svg xmlns="http://www.w3.org/2000/svg" baseProfile="full" height="1122.52" preserveAspectRatio="xMinYMin meet" style="width:904px;height:1119px" width="793.701" xml:space="preserve"><path d="M312.058 470.515 88.364 500.927M99.157 502.088l-.119-.024-.145-.026-.152-.018-.173-.016-.172-.008h-.35l-.174.008-.152.007-.138.017-.124.027-.1.027-.074.024-.052.037-.018.032.008.033.036.035.06.035.092.025.11.035.13.026.154.018.164.016.17.017h.522l.165-.01.143-.016.14-.018.11-.027.083-.024.06-.034.04-.024.005-.036-.016-.036-.052-.032-.077-.035-.104-.035M133.429 499.418l46.853 12.634M136.176 505.179l-.274.035-.252.042-.225.052-.217.05-.188.054-.162.058-.138.06-.114.06-.082.06-.05.066-.037.072v.067l.028.067.05.06.076.07.113.068.128.068.162.062.179.058.204.06.224.052.25.05.267.054.28.042.3.042.316.035.326.035.333.026.335.024.35.016.35.01.352.01h.702l.339-.009.336-.02.325-.016.318-.025.297-.027.292-.032.265-.041.262-.044.229-.046.204-.05.188-.049.164-.062.145-.06.11-.06.086-.07.058-.059.04-.066v-.071l-.02-.067-.052-.068-.078-.062-.112-.068-.124-.068-.16-.06-.176-.06-.206-.06-.224-.06-.248-.05-.264-.052-.282-.044-.301-.043-.317-.033-.322-.035-.336-.025-.342-.026-.351-.016-.352-.01-.359-.006h-.702l-.342.016-.34.007-.326.017-.319.027-.299.033-.29.036M126.657 500.318l118.902 31.745" style="fill:none;stroke:red;stroke-width:.999997;stroke-linecap:round;stroke-linejoin:round;stroke-miterlimit:4;stroke-dasharray:none;stroke-opacity:1;visibility:visible" visibility="hidden"/><path d="m101.562 503.672-4.532.608M196.928 490.938 104.13 503.33M367.692 447.98 89.016 487.734M89.016 487.734l-.07.02-.059.04-.049.054M88.837 487.847l-.35.456M88.488 488.303l-.054.073-.032.106-.026.108-.01.122M88.365 500.927l.01.121.024.115.035.124.054.1M88.488 501.388l.352.634M88.837 502.02l.06.095.07.075.073.053.08.035M88.365 488.712v12.215M89.12 502.278l7.805 1.992M175.786 519.412l-65.088-16.964" style="fill:none;stroke:red;stroke-width:1.99999;stroke-linecap:round;stroke-linejoin:round;stroke-miterlimit:4;stroke-dasharray:none;stroke-opacity:1;visibility:visible" visibility="hidden"/><path d="m190.293 516.656-8.805-2.362M190.293 516.656h.007M246.294 529.88l165.332-18.488M188.137 490.97l-.12-.026-.137-.024-.154-.018-.172-.018-.178-.013h-.371l-.176.005-.164.016-.157.019-.134.027-.11.024-.09.028-.064.033-.036.041v.034l.026.036.052.044.082.032.104.026.13.035.155.017.161.018.169.014.183.01h.19l.176-.01.17-.006.164-.015.149-.02.117-.027.104-.032.072-.028.048-.041.026-.035-.02-.034-.032-.042-.071-.036-.092-.033M195.156 516.064l50.951 13.739M212.827 525.455l-.265.032-.239.036-.23.041-.206.044-.19.042-.16.052-.147.053-.12.052-.093.058-.068.053-.054.057-.017.054v.061l.037.056.052.051.083.06.103.053.13.06.154.051.17.043.188.05.215.044.241.043.247.034.255.034.281.034.292.027.304.025.304.015.316.018.32.01.324.009h.316l.324-.009h.321l.315-.018.307-.019.292-.016.291-.025.274-.024.256-.035.249-.034.222-.043.206-.043.186-.045.173-.048.147-.053.117-.052.092-.05.081-.06.04-.052.028-.06v-.06l-.037-.057-.048-.051-.079-.063-.102-.052-.128-.05-.147-.06-.177-.042-.19-.051-.213-.045-.232-.045-.25-.033-.262-.041-.284-.025-.288-.026-.303-.028-.306-.016-.318-.016-.325-.01-.325-.01h-.65l-.317.01-.32.02-.305.014-.3.019-.283.023-.275.029M215.183 528.792l-.12.01-.103.026-.085.016-.06.027-.037.026-.015.026.015.033.037.025.06.029.086.014.101.026.121.017.13.017.144.008.152.01h.31l.143-.011.139-.007.126-.017.113-.018.097-.025.063-.014.055-.029.026-.036v-.022l-.018-.026-.052-.026-.066-.027-.096-.017-.11-.024-.129-.01-.136-.018-.156-.009h-.453l-.145.009-.137.017M226.615 531.779l-.117.018-.103.015-.085.025-.06.02-.036.023-.014.027.007.026.034.027.061.023.075.026.101.021.12.014.13.017.142.011.15.005h.297l.157-.005.136-.01.119-.019.111-.013.094-.02.079-.027.05-.023.024-.027v-.026l-.024-.027-.042-.024-.068-.025-.094-.019-.105-.015-.124-.017-.141-.021-.144-.007h-.302l-.153.008-.143.009-.132.011M190.3 516.656l.02-.008.017-.01M180.306 512.008l173.154-21.525M202.885 513.198l-.13.018-.114.026-.084.025-.068.023-.03.036-.014.024.013.037.04.023.07.036.082.024.112.028.13.017.136.015.157.01.161.01h.334l.154-.01.144-.01.137-.014.122-.018.093-.028.076-.024.055-.036.022-.023v-.037l-.022-.024-.055-.036-.076-.023-.103-.025-.117-.026-.143-.018-.142-.008-.162-.018h-.486l-.157.018-.135.008M181.726 514.336l175.386-21.585M180.272 512.06l.032-.052" style="fill:none;stroke:red;stroke-width:.999997;stroke-linecap:round;stroke-linejoin:round;stroke-miterlimit:4;stroke-dasharray:none;stroke-opacity:1;visibility:visible" visibility="hidden"/><path d="m230.658 533.715-52.517-13.685M266.88 507.359l-76.58 9.297" style="fill:none;stroke:red;stroke-width:1.99999;stroke-linecap:round;stroke-linejoin:round;stroke-miterlimit:4;stroke-dasharray:none;stroke-opacity:1;visibility:visible" visibility="hidden"/><path d="m245.56 532.063.082-.027.088-.032.08-.063.065-.074M246.269 531.352l.061-.095.041-.094.029-.1.007-.106M246.269 529.855l.138.137M245.875 531.865l.395-.514M246.106 529.803l.161.052M246.406 530.957v-.965M245.56 532.063l-14.904 1.652" style="fill:none;stroke:red;stroke-width:.999997;stroke-linecap:round;stroke-linejoin:round;stroke-miterlimit:4;stroke-dasharray:none;stroke-opacity:1;visibility:visible" visibility="hidden"/><path d="M230.658 533.715v3.69M306.994 476.232l-107.41 14.346M243.64 539.33l-6.567.708M230.658 537.404l.008.112.017.1.027.095.032.094M230.742 537.805l.265.54M231.007 538.344l.044.079.05.057.061.044.052.026M237.015 540.03l.035.01h.025M231.214 538.55l5.801 1.48" style="fill:none;stroke:red;stroke-width:1.99999;stroke-linecap:round;stroke-linejoin:round;stroke-miterlimit:4;stroke-dasharray:none;stroke-opacity:1;visibility:visible" visibility="hidden"/><path d="m340.22 496.398-.149.026-.127.024-.11.027-.087.033-.057.035-.03.035-.006.036.028.033.057.035.077.024.102.033.13.02.14.015.159.016.164.009h.35l.169-.009.172-.016.154-.015.138-.029.118-.024.095-.024.07-.035.051-.033.016-.036-.017-.035-.033-.035-.072-.033-.092-.027-.11-.024-.137-.026-.148-.016-.17-.012h-.522l-.163.018-.16.01M320.02 498.87l-.143.027-.131.017-.1.034-.077.027-.062.035-.026.033v.033l.026.035.05.033.089.027.1.035.132.016.135.016.157.018.165.008h.355l.168-.008.165-.018.143-.016.137-.027.122-.025.093-.026.07-.033.042-.035.008-.033-.008-.033-.043-.035-.07-.027-.091-.034-.112-.026-.137-.017-.154-.016-.165-.01-.17-.006h-.169l-.171.007-.178.009-.15.015" style="fill:none;stroke:red;stroke-width:.666665;stroke-linecap:round;stroke-linejoin:round;stroke-miterlimit:4;stroke-dasharray:none;stroke-opacity:1;visibility:visible" visibility="hidden"/><path d="M434.71 516.486h0M434.71 516.486l4.897 1.78M434.239 505.735l8.715-.935M442.952 508.082v-3.28M434.239 515.21h0M434.239 515.21v-6.206M433.468 503.742l.77-.084M434.239 505.735v-2.079M433.194 511.204h-.078l-.014.007-.02-.007M416.34 513.07h.028l.008-.006h.018M433.59 511.043l-103.187-38.347M434.666 508.815l-.427-.153M434.239 508.663v.35M364.696 495.476h.098l.094-.012M357.304 492.442l-.036.086-.034.079-.032.059-.043.05-.048.035M357.464 491.922l-.16.52" style="fill:none;stroke:red;stroke-width:.999997;stroke-linecap:round;stroke-linejoin:round;stroke-miterlimit:4;stroke-dasharray:none;stroke-opacity:1;visibility:visible" visibility="hidden"/><path d="m487.328 503.012-.077-.025-.066.008-.077.045-.07.058-.063.096-.047.109-.055.13-.038.153-.028.174-.018.176-.009.198v.198l.017.196.026.187.033.195.045.184.051.162.059.154.059.129.07.101.078.086.078.06.076.037h.076l.068-.021.076-.049.059-.077.062-.105.054-.119.04-.145.036-.163.022-.178.022-.18v-.2l-.01-.193-.017-.198-.033-.2-.035-.177-.052-.17-.05-.165-.06-.135-.07-.122-.079-.1-.074-.071-.079-.043" style="fill:none;stroke:red;stroke-width:.666665;stroke-linecap:round;stroke-linejoin:round;stroke-miterlimit:4;stroke-dasharray:none;stroke-opacity:1;visibility:visible" visibility="hidden"/><path d="m434.306 503.27.216-.426M434.523 516.246l-131.361 14.258-9.605 1.044-62.55 6.796M434.523 516.246l-.225-.6M442.952 504.802l-.121.12-.119.111M442.714 507.968l.118.052.122.062M434.239 508.867l.07-.01 8.404-.888M434.916 506.334l.352-.034M435.268 508.759V506.3" style="fill:none;stroke:red;stroke-width:.999997;stroke-linecap:round;stroke-linejoin:round;stroke-miterlimit:4;stroke-dasharray:none;stroke-opacity:1;visibility:visible" visibility="hidden"/><path d="m431.91 503.14 2.613-.298" style="fill:none;stroke:red;stroke-width:1.99999;stroke-linecap:round;stroke-linejoin:round;stroke-miterlimit:4;stroke-dasharray:none;stroke-opacity:1;visibility:visible" visibility="hidden"/><path d="M484.24 508.928v-10.894M484.377 497.356l-.049.035-.037.049M484.531 497.448l-.067-.05-.087-.042M484.53 497.448l.496.482M434.523 516.246h0M434.298 515.646h0M434.298 515.646l49.787-6.522M485.044 509.124l4.27 1.728M434.306 503.27l-1.584.179" style="fill:none;stroke:red;stroke-width:.999997;stroke-linecap:round;stroke-linejoin:round;stroke-miterlimit:4;stroke-dasharray:none;stroke-opacity:1;visibility:visible" visibility="hidden"/><path d="m489.419 499.907-.01.06-.019.06-.023.067" style="fill:none;stroke:red;stroke-width:1.99999;stroke-linecap:round;stroke-linejoin:round;stroke-miterlimit:4;stroke-dasharray:none;stroke-opacity:1;visibility:visible" visibility="hidden"/><path d="m364.887 495.464.11-.024.109-.026.102-.044.092-.052M365.298 495.318l.545-.382M434.239 505.735l.07.207M434.306 508.858l-.07.146M434.523 516.246l.025.069.034.05.025.035.023.035.034.027.046.025M488.487 511.658l-.078.008h-.086M439.656 518.274h-.028l-.022-.007M484.365 497.356h.012M434.642 502.73l-.043.018-.043.034-.033.06M434.306 503.27l-.032.08-.018.09-.02.106v.112M434.239 515.21v.16l.01.07.011.07.015.068.024.068M489.419 510.666l-.01-.087-.019-.095-.023-.092" style="fill:none;stroke:red;stroke-width:.999997;stroke-linecap:round;stroke-linejoin:round;stroke-miterlimit:4;stroke-dasharray:none;stroke-opacity:1;visibility:visible" visibility="hidden"/><path d="m364.887 495.464-95.573 11.599" style="fill:none;stroke:red;stroke-width:1.99999;stroke-linecap:round;stroke-linejoin:round;stroke-miterlimit:4;stroke-dasharray:none;stroke-opacity:1;visibility:visible" visibility="hidden"/><path d="m433.59 511.043-.062.05-.06.033-.06.026-.068.019-.07.016-.075.017M416.264 513.063l.011.007h.067M433.59 503.828l-.034-.036-.036-.017-.034-.015-.027-.018-.033-.02-.044-.014M434.239 504.69l-.019-.11-.022-.111-.052-.096-.068-.075M434.076 510.476l.068-.093.052-.103.024-.112.018-.118M433.768 510.862l.306-.387M433.768 510.862l-.06.06-.061.068-.059.053M433.59 503.828l.058.05.062.05.06.054M434.076 504.298l-.306-.316M434.239 506.076l.73.284M435.12 508.643l-.068.139M434.239 509.012v1.036M434.239 504.69v1.387" style="fill:none;stroke:red;stroke-width:.999997;stroke-linecap:round;stroke-linejoin:round;stroke-miterlimit:4;stroke-dasharray:none;stroke-opacity:1;visibility:visible" visibility="hidden"/><path d="m370.484 496.602-58.526-21.038M416.264 513.063l-43.246-15.544M433.38 503.707l-87.862-33.592" style="fill:none;stroke:red;stroke-width:1.99999;stroke-linecap:round;stroke-linejoin:round;stroke-miterlimit:4;stroke-dasharray:none;stroke-opacity:1;visibility:visible" visibility="hidden"/><path d="m433.194 511.204-16.854 1.867" style="fill:none;stroke:red;stroke-width:.999997;stroke-linecap:round;stroke-linejoin:round;stroke-miterlimit:4;stroke-dasharray:none;stroke-opacity:1;visibility:visible" visibility="hidden"/><path d="m489.408 499.864.01.024v.018M488.7 499.179l.05.035.06.05M489.297 499.734l.063.061.049.07M489.297 499.735l-.486-.47M488.81 511.478l-.06.068-.05.06M489.408 510.724l-.041.068-.052.06-.505.626" style="fill:none;stroke:red;stroke-width:1.99999;stroke-linecap:round;stroke-linejoin:round;stroke-miterlimit:4;stroke-dasharray:none;stroke-opacity:1;visibility:visible" visibility="hidden"/><path d="M484.29 497.339h.042l.033.016M434.642 502.73h0M489.408 510.724l.01-.036v-.022" style="fill:none;stroke:red;stroke-width:.999997;stroke-linecap:round;stroke-linejoin:round;stroke-miterlimit:4;stroke-dasharray:none;stroke-opacity:1;visibility:visible" visibility="hidden"/><path d="M488.7 499.179h-.01l-.019-.009" style="fill:none;stroke:red;stroke-width:1.99999;stroke-linecap:round;stroke-linejoin:round;stroke-miterlimit:4;stroke-dasharray:none;stroke-opacity:1;visibility:visible" visibility="hidden"/><path d="m488.7 511.607-.104.025-.11.026M439.656 518.274h0" style="fill:none;stroke:red;stroke-width:.999997;stroke-linecap:round;stroke-linejoin:round;stroke-miterlimit:4;stroke-dasharray:none;stroke-opacity:1;visibility:visible" visibility="hidden"/><path d="M319.531 474.539h0M439.656 518.274l-130.353 14.002-17.17 1.839-46.591 5.008M434.642 502.73l-2.928.337M488.487 511.658l-48.83 6.616M488.673 499.17l-4.308-1.813M434.642 502.73l49.647-5.39M489.419 499.907v10.759" style="fill:none;stroke:red;stroke-width:1.99999;stroke-linecap:round;stroke-linejoin:round;stroke-miterlimit:4;stroke-dasharray:none;stroke-opacity:1;visibility:visible" visibility="hidden"/><path d="m312.058 470.515 54.934-9.09M294.36 476.728l-.11-.034-.14-.024-.163-.027-.17-.016-.174-.01-.193-.01h-.196l-.188.009-.183.019-.17.019-.153.024-.127.034-.104.035-.086.035-.05.04-.015.044.016.044.043.033.068.041.1.036.123.028.143.023.164.027.18.018.19.007h.195l.187-.007.187-.01.175-.016.158-.027.15-.027.112-.033.091-.043.073-.033.03-.045v-.042l-.025-.03-.053-.048-.086-.034M303.889 474.898l-.123-.034-.128-.026-.165-.026-.167-.017-.179-.008-.201-.01h-.196l-.189.011-.179.015-.168.017-.156.035-.136.027-.103.032-.088.042-.05.044-.021.035.01.044.044.041.07.035.099.04.12.028.151.025.171.026.178.009.188.007.189.01.195-.01.192-.007.17-.019.16-.022.149-.036.119-.036.093-.034.067-.033.035-.043.007-.044-.021-.04-.06-.044-.077-.034" style="fill:none;stroke:red;stroke-width:.999997;stroke-linecap:round;stroke-linejoin:round;stroke-miterlimit:4;stroke-dasharray:none;stroke-opacity:1;visibility:visible" visibility="hidden"/><path d="m370.894 456.195.008.24.024.232.036.232.052.23.07.213.066.198.085.17.095.154.1.128.105.104.11.068.106.034.111.009.102-.035.094-.057.092-.095.078-.12.072-.146.06-.171.04-.196.023-.205.02-.224v-.232l-.02-.239-.023-.23-.04-.23-.06-.225-.07-.206-.082-.186-.089-.164-.095-.144-.102-.112-.11-.086-.108-.052-.109-.017-.104.008-.101.044-.095.077-.085.111-.067.136-.07.153-.05.191-.037.196-.024.223-.008.221" style="fill:none;stroke:red;stroke-width:.666665;stroke-linecap:round;stroke-linejoin:round;stroke-miterlimit:4;stroke-dasharray:none;stroke-opacity:1;visibility:visible" visibility="hidden"/><path d="m368.48 461.948 6.001 2.432M367.751 447.988l-.065.043-.044.05M367.926 448.099l-.078-.059-.097-.052M367.531 461.683v-12.916" style="fill:none;stroke:red;stroke-width:.999997;stroke-linecap:round;stroke-linejoin:round;stroke-miterlimit:4;stroke-dasharray:none;stroke-opacity:1;visibility:visible" visibility="hidden"/><path d="M319.531 474.539h.019l.01.008h.05" style="fill:none;stroke:red;stroke-width:1.99999;stroke-linecap:round;stroke-linejoin:round;stroke-miterlimit:4;stroke-dasharray:none;stroke-opacity:1;visibility:visible" visibility="hidden"/><path d="M373.352 465.327h.116l.122-.013" style="fill:none;stroke:red;stroke-width:.999997;stroke-linecap:round;stroke-linejoin:round;stroke-miterlimit:4;stroke-dasharray:none;stroke-opacity:1;visibility:visible" visibility="hidden"/><path d="m374.523 463.804.043.138.036.128.004.128" style="fill:none;stroke:red;stroke-width:1.99999;stroke-linecap:round;stroke-linejoin:round;stroke-miterlimit:4;stroke-dasharray:none;stroke-opacity:1;visibility:visible" visibility="hidden"/><path d="M367.751 447.988h0" style="fill:none;stroke:red;stroke-width:.999997;stroke-linecap:round;stroke-linejoin:round;stroke-miterlimit:4;stroke-dasharray:none;stroke-opacity:1;visibility:visible" visibility="hidden"/><path d="M319.609 474.547h.009M374.483 451.18l.057.08.07.076M373.812 450.548l.06.043.062.052M374.607 464.215l-.07.088-.057.076M373.907 465.115l-.06.079-.061.066M374.483 451.18l-.548-.537M374.483 464.378l-.577.736" style="fill:none;stroke:red;stroke-width:1.99999;stroke-linecap:round;stroke-linejoin:round;stroke-miterlimit:4;stroke-dasharray:none;stroke-opacity:1;visibility:visible" visibility="hidden"/><path d="m373.59 465.314.102-.027.094-.028" style="fill:none;stroke:red;stroke-width:.999997;stroke-linecap:round;stroke-linejoin:round;stroke-miterlimit:4;stroke-dasharray:none;stroke-opacity:1;visibility:visible" visibility="hidden"/><path d="M374.607 464.198v.016M374.607 451.336v.007" style="fill:none;stroke:red;stroke-width:1.99999;stroke-linecap:round;stroke-linejoin:round;stroke-miterlimit:4;stroke-dasharray:none;stroke-opacity:1;visibility:visible" visibility="hidden"/><path d="m367.751 447.988-.031-.008h-.028" style="fill:none;stroke:red;stroke-width:.999997;stroke-linecap:round;stroke-linejoin:round;stroke-miterlimit:4;stroke-dasharray:none;stroke-opacity:1;visibility:visible" visibility="hidden"/><path d="m319.609 474.547-9.832 1.31M373.786 450.539l-6.034-2.55M374.607 464.198v-12.855M319.618 474.547l53.972-9.233M373.812 450.548h-.017l-.01-.008" style="fill:none;stroke:red;stroke-width:1.99999;stroke-linecap:round;stroke-linejoin:round;stroke-miterlimit:4;stroke-dasharray:none;stroke-opacity:1;visibility:visible" visibility="hidden"/><path d="m89.12 502.278 10.037-.19M96.925 504.27l2.232-2.182" style="fill:none;stroke:red;stroke-width:.999997;stroke-linecap:round;stroke-linejoin:round;stroke-miterlimit:4;stroke-dasharray:none;stroke-opacity:1;visibility:visible" visibility="hidden"/><path d="m104.13 503.33-2.568.342M199.584 490.578l-2.656.36M101.562 503.672l2.568-.342M178.141 520.03l-2.355-.618M99.157 502.088l11.541.36" style="fill:none;stroke:red;stroke-width:1.99999;stroke-linecap:round;stroke-linejoin:round;stroke-miterlimit:4;stroke-dasharray:none;stroke-opacity:1;visibility:visible" visibility="hidden"/><path d="m416.34 513.071-4.714-1.679M190.293 516.656l4.863-.592M215.183 528.792l-2.356-3.337M215.183 528.792l-2.356-3.337M212.827 525.455l2.356 3.337M212.827 525.455l2.356 3.337M230.656 533.715l-4.041-1.936M215.183 528.792l11.432 2.988M340.22 496.398l13.24-5.915M190.3 516.656l12.585-3.458M190.3 516.656l12.585-3.458" style="fill:none;stroke:red;stroke-width:.999997;stroke-linecap:round;stroke-linejoin:round;stroke-miterlimit:4;stroke-dasharray:none;stroke-opacity:1;visibility:visible" visibility="hidden"/><path d="m175.786 519.412 2.355.618M269.314 507.063l-2.434.296M309.777 475.857l-2.783.375M196.928 490.938l2.656-.36M245.542 539.123l-1.902.207" style="fill:none;stroke:red;stroke-width:1.99999;stroke-linecap:round;stroke-linejoin:round;stroke-miterlimit:4;stroke-dasharray:none;stroke-opacity:1;visibility:visible" visibility="hidden"/><path d="m353.46 490.483-13.24 5.915M484.365 497.357l2.963 5.655M484.365 497.355l2.963 5.657" style="fill:none;stroke:red;stroke-width:.666665;stroke-linecap:round;stroke-linejoin:round;stroke-miterlimit:4;stroke-dasharray:none;stroke-opacity:1;visibility:visible" visibility="hidden"/><path d="m266.88 507.359 2.434-.296M373.018 497.519l-2.534-.917M303.889 474.898l8.069.666M370.484 496.602l2.534.917M243.64 539.33l1.902-.207" style="fill:none;stroke:red;stroke-width:1.99999;stroke-linecap:round;stroke-linejoin:round;stroke-miterlimit:4;stroke-dasharray:none;stroke-opacity:1;visibility:visible" visibility="hidden"/><path d="m311.958 475.564-17.598 1.164M311.958 475.564l-8.069-.666" style="fill:none;stroke:red;stroke-width:.999997;stroke-linecap:round;stroke-linejoin:round;stroke-miterlimit:4;stroke-dasharray:none;stroke-opacity:1;visibility:visible" visibility="hidden"/><path d="m374.607 451.343-3.713 4.852M374.607 451.343l-3.713 4.852" style="fill:none;stroke:red;stroke-width:.666665;stroke-linecap:round;stroke-linejoin:round;stroke-miterlimit:4;stroke-dasharray:none;stroke-opacity:1;visibility:visible" visibility="hidden"/><path d="m306.994 476.232 2.783-.375" style="fill:none;stroke:red;stroke-width:1.99999;stroke-linecap:round;stroke-linejoin:round;stroke-miterlimit:4;stroke-dasharray:none;stroke-opacity:1;visibility:visible" visibility="hidden"/><path d="m371.948 958.347-.17-.035-.174-.048-.153-.088-.151-.113-.129-.128-.123-.153-.092-.163-.08-.179-.05-.186-.022-.2v-.187l.022-.199.05-.177.08-.165.092-.156.123-.127.129-.11.151-.081.153-.065.174-.023h.17l.172.023.164.053.16.086.142.11.142.128.12.156.094.171.077.177.051.19.023.188v.196l-.023.19-.05.178-.079.172-.093.148-.12.133-.14.113-.146.088-.158.048-.164.035h-.172M381.167 999.354V560.06" style="fill:none;stroke:#00ff4a;stroke-width:.999997;stroke-linecap:round;stroke-linejoin:round;stroke-miterlimit:4;stroke-dasharray:none;stroke-opacity:1;visibility:visible"/><path d="M371.948 603.633h-.17l-.174-.032-.153-.061-.151-.087-.129-.101-.123-.136-.092-.156-.08-.163-.05-.177-.022-.2v-.188l.022-.196.05-.188.08-.177.092-.164.123-.155.129-.127.151-.112.153-.088.174-.05.17-.025h.172l.164.025.16.06.142.085.142.112.12.127.094.153.077.176.051.177.023.191v.187l-.023.194-.05.19-.079.178-.093.175-.12.143-.14.137-.146.101-.158.089-.164.051-.172.032" style="fill:none;stroke:#00ff4a;stroke-width:.666665;stroke-linecap:round;stroke-linejoin:round;stroke-miterlimit:4;stroke-dasharray:none;stroke-opacity:1;visibility:visible"/><path d="m371.948 983.102-.256-.008-.248.024-.249.041-.233.088-.23.103-.214.137-.199.153-.176.18-.165.206-.135.224-.121.237-.094.255-.077.268-.043.282-.017.283.01.281.026.284.059.282.084.281.102.265.14.259.145.239.171.229.194.207.206.188.215.154.235.136.244.112.25.088.243.048.261.028.245-.008.254-.036.236-.06.23-.092.222-.124.208-.144.19-.172.176-.194.146-.214.139-.232.104-.25.084-.255.058-.273.035-.284v-.282l-.017-.292-.039-.281-.083-.283-.092-.273-.12-.264-.134-.252-.164-.232-.18-.21-.208-.201-.21-.173-.226-.148-.238-.12-.238-.093-.256-.068-.25-.044M268.173 973.454l-.231-.008-.223.016-.222.054-.217.075-.201.104-.201.13-.177.141-.164.178-.154.199-.126.216-.107.221-.083.247-.069.259-.041.257-.018.273.008.274.035.262.05.276.068.267.101.257.122.24.138.231.153.212.173.197.188.172.196.154.215.128.221.104.223.076.23.052.233.025.224-.008.232-.036.213-.06.212-.085.196-.118.19-.138.17-.162.164-.189.136-.207.119-.22.097-.234.072-.254.052-.26.036-.262v-.275l-.017-.273-.043-.274-.059-.265-.086-.257-.112-.259-.127-.23-.147-.222-.164-.207-.184-.186-.192-.164-.204-.143-.213-.112-.224-.096-.23-.06-.232-.033M176.952 964.974l-.215-.008-.205.014-.21.054-.192.07-.19.099-.18.124-.162.144-.153.17-.13.186-.118.207-.104.216-.076.238-.06.238-.033.257-.018.257v.26l.034.263.04.257.07.248.096.247.102.232.126.224.15.197.152.19.172.168.188.144.188.121.205.103.207.07.204.051.212.016.205-.007.207-.037.206-.061.19-.084.186-.11.172-.136.154-.156.145-.18.13-.186.109-.218.088-.229.068-.237.05-.248.024-.258.01-.256-.016-.268-.043-.256-.052-.257-.083-.245-.097-.242-.119-.233-.136-.205-.156-.196-.161-.178-.18-.156-.19-.137-.196-.112-.205-.083-.206-.058-.204-.028M371.948 570.75l-.256.033-.248.071-.249.092-.233.119-.23.156-.214.169-.199.198-.176.215-.165.23-.135.247-.121.268-.094.275-.077.281-.043.283-.017.28.01.293.026.273.059.271.084.27.102.246.14.232.145.215.171.19.194.17.206.143.215.129.235.088.244.066.25.034.243.009.261-.025.245-.054.254-.076.236-.11.23-.136.222-.155.208-.187.19-.208.176-.221.146-.25.139-.254.104-.268.084-.275.058-.289.035-.284v-.283l-.017-.281-.039-.28-.083-.268-.092-.255-.12-.24-.134-.222-.164-.205-.18-.183-.208-.16-.21-.137-.226-.102-.238-.078-.238-.05-.256-.028-.25.018M268.173 580.396l-.231.035-.223.066-.222.091-.217.115-.201.137-.201.164-.177.19-.164.204-.154.222-.126.233-.107.258-.083.256-.069.265-.041.272-.018.275.008.265.035.261.05.271.068.247.101.237.122.223.138.206.153.182.173.161.188.145.196.111.215.097.221.059.223.033.23.01.233-.02.224-.05.232-.077.213-.103.212-.124.196-.158.19-.171.17-.197.164-.215.136-.23.119-.239.097-.259.072-.261.052-.275.036-.267v-.276l-.017-.272-.043-.266-.059-.247-.086-.248-.112-.232-.127-.213-.147-.197-.164-.171-.184-.156-.192-.126-.204-.102-.213-.079-.224-.041-.23-.027-.232.008M176.952 588.881l-.215.031-.205.06-.21.085-.192.114-.19.128-.18.164-.162.167-.153.199-.13.215-.118.224-.104.237-.076.248-.06.258-.033.258-.018.263v.259l.034.256.04.25.07.238.096.23.102.203.126.2.15.177.152.166.172.126.188.111.188.096.205.059.207.036.204.008.212-.027.205-.043.207-.069.206-.101.19-.119.186-.145.172-.166.154-.185.145-.208.13-.223.109-.228.088-.242.068-.255.05-.257.024-.27.01-.252-.016-.257-.043-.257-.052-.243-.083-.237-.097-.214-.119-.206-.136-.188-.156-.171-.161-.145-.18-.12-.19-.102-.196-.077-.205-.041-.206-.019h-.204M182.009 778.646l-.06-.318-.077-.316-.104-.31-.12-.297-.135-.285-.145-.264-.17-.254-.19-.24-.194-.225-.218-.197-.228-.18-.232-.162-.25-.136-.245-.112-.259-.086-.268-.06-.262-.039-.266-.013M178.586 775.152l-.273.018-.265.035-.268.067-.264.086-.256.12-.25.139-.23.161-.23.187-.213.207-.199.225-.19.245-.162.258-.152.28-.136.295-.112.295-.094.322-.078.314-.06.332-.037.327-.004.335.004.34.028.328.052.334.068.324.087.316.108.3.13.298.154.284.162.264.182.248.196.233.206.21.223.191.237.17.242.148.256.128.257.093.264.076.265.047.274.022.276-.008.264-.025.274-.061.258-.084.256-.102.257-.138.241-.156.228-.178.218-.194.204-.224.185-.24.183-.26.153-.271.145-.293.12-.298.104-.308.074-.317.06-.333M371.948 780.989l-.17-.015-.174-.042-.153-.072-.151-.1-.129-.12-.123-.14-.092-.155-.08-.176-.05-.19-.022-.185v-.196l.022-.19.05-.192.08-.168.092-.163.123-.136.129-.121.151-.103.153-.065.174-.047.17-.007.172.007.164.047.16.073.142.095.142.12.12.151.094.149.077.182.051.178.023.197v.188l-.023.187-.05.189-.079.175-.093.156-.12.148-.14.118-.146.095-.158.069-.164.045-.172.015" style="fill:none;stroke:#00ff4a;stroke-width:.999997;stroke-linecap:round;stroke-linejoin:round;stroke-miterlimit:4;stroke-dasharray:none;stroke-opacity:1;visibility:visible"/><path d="m179.877 775.464-.237.136-.24.153-.222.183-.217.192-.204.225-.181.23-.17.257-.153.276-.137.282-.12.298-.101.298-.081.319-.058.323-.042.326-.018.324v.335l.018.324.042.335.069.32.077.314.104.308.118.292.136.284.157.27.17.251.188.239.205.212.21.207.227.17.24.166.248.125M175.949 779.452l.017.168.01.096.018.088.026.082.02.087.074.153.084.147.095.117.101.112.112.088.11.058.104.044.102.016.098-.008.092-.026.084-.053.069-.067.068-.084.052-.096.041-.101.036-.13.034-.126.018-.145.016-.148.009-.154.008-.145-.009-.147-.01-.145-.013-.144-.029-.147-.032-.126-.034-.112-.043-.104-.05-.092-.063-.08-.076-.068-.084-.043-.084-.023-.098-.01-.092.019-.105.042-.101.05-.06.042-.06.051-.102.105-.097.119-.085.145-.042.079-.026.086-.032.082-.027.088-.016.085-.01.093-.01.087-.009.095M178.424 589.51l-.138.035-.126.036-.138.023-.121.019-.112.02-.101.006-.094-.006-.086-.013-.06-.015-.059-.022-.044-.04-.035-.032-.025-.041-.005-.052v-.045l.005-.043.019-.052.033-.05.052-.041.06-.047.073-.041.096-.024.104-.029.112-.007M178.596 589.761l-.18.143-.162.163-.164.19-.136.204-.12.215-.112.233-.085.239-.07.247-.05.257-.025.256v.257l.017.258.033.249.06.237.078.241.096.215.109.203M269.746 581.012l-.17.043-.154.037-.153.04-.159.035-.133.025-.13.017-.121.008-.101-.007-.075-.009-.07-.025-.05-.033-.045-.046-.023-.049-.01-.052.009-.053.017-.058.041-.058.052-.057.069-.06.085-.04.112-.042.13-.035.143-.017h.15M269.875 581.175l-.205.118-.207.147-.188.163-.178.186-.154.206-.146.23-.119.235-.103.255-.085.255-.06.266-.033.265-.019.274.01.265.03.268.063.253.076.252.103.228.12.219.134.203M373.644 571.348l-.104.028-.104.013-.093.021-.103.023-.197.054-.188.041-.163.035-.16.034-.147.028-.129.005-.102-.005-.079-.02-.065-.035-.046-.042-.024-.057v-.071l.015-.06.045-.068.06-.077.076-.068.111-.062.119-.05.08-.027.084-.015.085-.018.087-.008h.086l.103-.011.092.01.103.01M373.738 571.452l-.242.095-.238.109-.222.148-.214.163-.21.186-.179.208-.169.23-.144.239-.12.259-.106.263-.074.285-.053.275-.025.28-.007.284.025.283.052.271.075.265.095.245.118.235.147.221.164.199M177.84 969.852h-.05M177.79 969.852l-.102-.02-.102-.022-.088-.036-.073-.042-.052-.044-.048-.05-.03-.04-.019-.052v-.096l.018-.044.026-.043.042-.033.042-.036.06-.016.07-.019.076-.007.096-.008.092.008.11.018.132.016.125.026.13.034.136.036M177.876 965.331l-.111.207-.092.212-.079.241-.052.24-.042.25-.008.254v.256l.028.259.049.246.067.251.097.245.1.223.127.221.138.2.162.19.164.16.18.146M269.173 978.547l-.043.008h-.035l-.025-.008h-.101M268.967 978.547l-.129-.016-.112-.039-.112-.038-.083-.05-.068-.052-.052-.06-.033-.052-.016-.06-.01-.062.009-.05.024-.042.034-.042.052-.036.06-.026.069-.008.086-.007h.103l.11.007.121.026.127.024.147.026.153.044.155.034.161.034M268.9 973.67l-.14.194-.11.224-.104.23-.075.246-.051.262-.034.262-.01.268.019.264.039.275.064.264.077.257.111.251.121.236.143.224.163.207.172.186.189.162.204.144.215.121M373.102 988.424l-.078.011-.076.005h-.197l-.067-.005" style="fill:none;stroke:#00ff4a;stroke-width:.999997;stroke-linecap:round;stroke-linejoin:round;stroke-miterlimit:4;stroke-dasharray:none;stroke-opacity:1;visibility:visible"/><path d="m372.684 988.435-.164-.021-.138-.042-.124-.052-.112-.06-.076-.068-.06-.06-.046-.064-.024-.07v-.071l.016-.05.026-.05.052-.035.06-.026.074-.019h.095l.117.008.124.019.136.025.148.027.144.041.168.044.192.045.178.031.19.033M372.394 983.192l-.164.2-.138.222-.118.229-.098.259-.074.257-.046.27-.02.286.005.283.026.281.061.284.078.273.104.266.117.254.157.24.16.224.19.214.193.19.213.162.236.134.24.112.239.088" style="fill:none;stroke:#00ff4a;stroke-width:.999997;stroke-linecap:round;stroke-linejoin:round;stroke-miterlimit:4;stroke-dasharray:none;stroke-opacity:1;visibility:visible"/><path d="m301.262 550.697-6.13-1.704" style="fill:none;stroke:#00ff4a;stroke-width:1.99999;stroke-linecap:round;stroke-linejoin:round;stroke-miterlimit:4;stroke-dasharray:none;stroke-opacity:1;visibility:visible"/><path d="M294.277 548.753v462.353M301.262 543.044v7.652" style="fill:none;stroke:#00ff4a;stroke-width:.999997;stroke-linecap:round;stroke-linejoin:round;stroke-miterlimit:4;stroke-dasharray:none;stroke-opacity:1;visibility:visible"/><path d="m301.262 1009.12-6.13 1.746" style="fill:none;stroke:#00ff4a;stroke-width:1.99999;stroke-linecap:round;stroke-linejoin:round;stroke-miterlimit:4;stroke-dasharray:none;stroke-opacity:1;visibility:visible"/><path d="M301.262 1016.77v-7.65" style="fill:none;stroke:#00ff4a;stroke-width:.999997;stroke-linecap:round;stroke-linejoin:round;stroke-miterlimit:4;stroke-dasharray:none;stroke-opacity:1;visibility:visible"/><path d="m301.673 716.321-.011-.172-.024-.17-.038-.156-.05-.143-.072-.13-.061-.113-.09-.077-.08-.05-.09-.017-.087.007-.084.037-.086.07-.07.093-.069.12-.047.136-.034.154-.03.163-.007.17.007.181.03.162.034.162.048.146.07.128.068.104.086.079.084.048.088.027.09-.01.079-.042.089-.06.061-.094.075-.118.049-.14.037-.156.024-.167.01-.172M301.673 843.487l-.011-.17-.024-.172-.038-.146-.05-.146-.072-.113-.061-.09-.09-.07-.08-.033-.09-.009-.087.016-.084.05-.086.088-.07.101-.069.13-.047.147-.034.163-.03.16-.007.181.007.167.03.165.034.159.048.132.07.12.068.093.086.068.084.037.088.007.09-.023.079-.054.089-.076.061-.104.075-.125.049-.15.037-.16.024-.172.01-.17" style="fill:none;stroke:#00ff4a;stroke-width:.666665;stroke-linecap:round;stroke-linejoin:round;stroke-miterlimit:4;stroke-dasharray:none;stroke-opacity:1;visibility:visible"/><path d="m300.577 542.317.686.727M301.262 1016.77l-.687.72" style="fill:none;stroke:#00ff4a;stroke-width:.999997;stroke-linecap:round;stroke-linejoin:round;stroke-miterlimit:4;stroke-dasharray:none;stroke-opacity:1;visibility:visible"/><path d="m195.078 561.883-5.533-1.293" style="fill:none;stroke:#00ff4a;stroke-width:1.99999;stroke-linecap:round;stroke-linejoin:round;stroke-miterlimit:4;stroke-dasharray:none;stroke-opacity:1;visibility:visible"/><path d="M187.58 560.137v439.294M195.078 554.607v7.277" style="fill:none;stroke:#00ff4a;stroke-width:.999997;stroke-linecap:round;stroke-linejoin:round;stroke-miterlimit:4;stroke-dasharray:none;stroke-opacity:1;visibility:visible"/><path d="m195.078 997.635-5.533 1.325" style="fill:none;stroke:#00ff4a;stroke-width:1.99999;stroke-linecap:round;stroke-linejoin:round;stroke-miterlimit:4;stroke-dasharray:none;stroke-opacity:1;visibility:visible"/><path d="M195.078 1004.908v-7.273" style="fill:none;stroke:#00ff4a;stroke-width:.999997;stroke-linecap:round;stroke-linejoin:round;stroke-miterlimit:4;stroke-dasharray:none;stroke-opacity:1;visibility:visible"/><path d="M195.514 719.314v-.162l-.024-.163-.045-.147-.048-.144-.072-.118-.075-.095-.094-.077-.086-.052-.093-.014-.104.004-.085.036-.084.068-.087.088-.059.11-.061.137-.044.147-.019.152-.004.162.004.171.019.153.044.156.061.139.059.119.087.102.084.078.085.041.104.025.093-.008.086-.044.094-.058.075-.095.072-.108.048-.13.044-.147.025-.163v-.163M195.514 840.193v-.163l-.024-.153-.045-.147-.048-.136-.072-.112-.075-.085-.094-.062-.086-.04-.093-.009-.104.025-.085.052-.084.067-.087.104-.059.123-.061.133-.044.155-.019.162-.004.163.004.163.019.161.044.15.061.126.059.112.087.095.084.06.085.03.104.01.093-.015.086-.053.094-.079.075-.097.072-.124.048-.139.044-.149.025-.156v-.172" style="fill:none;stroke:#00ff4a;stroke-width:.666665;stroke-linecap:round;stroke-linejoin:round;stroke-miterlimit:4;stroke-dasharray:none;stroke-opacity:1;visibility:visible"/><path d="m194.465 553.924.613.681M195.078 1004.908l-.613.683" style="fill:none;stroke:#00ff4a;stroke-width:.999997;stroke-linecap:round;stroke-linejoin:round;stroke-miterlimit:4;stroke-dasharray:none;stroke-opacity:1;visibility:visible"/><path d="m362.15 997.086-3.152.924M358.996 998.01v1.754M295.133 1010.864l-.858.243M295.133 548.992l-.858-.239M358.996 561.377v-1.754M288.102 1010.438V549.412M295.133 1016.083v-.735M295.133 543.715v.352M295.809 542.839l4.768-.522 57.771 16.631M381.167 999.354l2.728-.824M381.167 560.061l2.728.804M383.895 998.531V560.865M361.212 997.37l19.955 1.984M259.733 987.227l28.367 2.833M168.796 978.138l13.213 1.325" style="fill:none;stroke:#00ff4a;stroke-width:1.99999;stroke-linecap:round;stroke-linejoin:round;stroke-miterlimit:4;stroke-dasharray:none;stroke-opacity:1;visibility:visible"/><path d="M362.15 562.276v434.81" style="fill:none;stroke:#00ff4a;stroke-width:.999997;stroke-linecap:round;stroke-linejoin:round;stroke-miterlimit:4;stroke-dasharray:none;stroke-opacity:1;visibility:visible"/><path d="m358.996 559.623-.648-.675M358.348 1000.44l.648-.674M288.102 549.412l.276-.187M294.277 548.753l-1.107-.042M295.809 542.839l-.676.876M295.133 1016.083l.676.867M288.38 1010.627l-.278-.19M293.173 1011.147l1.105-.041M358.348 1000.44l-57.771 17.05M295.809 1016.95l4.768.538M288.38 549.224l4.792-.513M288.38 1010.627l4.792.521M362.15 562.276l-3.152-.899" style="fill:none;stroke:#00ff4a;stroke-width:1.99999;stroke-linecap:round;stroke-linejoin:round;stroke-miterlimit:4;stroke-dasharray:none;stroke-opacity:1;visibility:visible"/><path d="m295.909 1014.58.5-.486M293.911 1014.57l-.5-.498M293.389 1011.279v2.75M294.873 1010.875v2.765M296.435 1010.583v3.453M295.909 1014.58l-.052.036-.1.03-.119.02-.166.024-.172.02h-.197l-.193.013-.196-.012-.196-.008-.175-.013-.158-.024-.127-.028-.095-.036-.052-.035M293.411 1014.072l-.013-.024-.01-.02M296.435 1014.036l-.013.036-.015.022" style="fill:none;stroke:#00ff4a;stroke-width:.666665;stroke-linecap:round;stroke-linejoin:round;stroke-miterlimit:4;stroke-dasharray:none;stroke-opacity:1;visibility:visible"/><path d="m260.753 986.976-3.418.839M257.335 987.818v1.669M189.544 998.96l-1.964.472M189.544 560.59l-1.964-.45M257.335 571.323v-1.676M182.009 998.823V560.728M189.544 555.216v.305M190.158 554.393l4.306-.468 62.283 15.08" style="fill:none;stroke:#00ff4a;stroke-width:1.99999;stroke-linecap:round;stroke-linejoin:round;stroke-miterlimit:4;stroke-dasharray:none;stroke-opacity:1;visibility:visible"/><path d="M260.753 572.137v414.838" style="fill:none;stroke:#00ff4a;stroke-width:.999997;stroke-linecap:round;stroke-linejoin:round;stroke-miterlimit:4;stroke-dasharray:none;stroke-opacity:1;visibility:visible"/><path d="m257.335 569.647-.588-.643M256.746 990.138l.588-.651M182.009 560.727l.171-.168M187.58 560.137l-1.07-.045M190.158 554.393l-.614.824M189.544 1004.283l.614.82M182.18 998.995l-.17-.172M186.512 999.463l1.068-.03M256.746 990.138l-62.282 15.452M190.158 1005.104l4.306.487M182.18 560.557l4.333-.465M182.18 998.995l4.333.47M260.753 572.137l-3.418-.813" style="fill:none;stroke:#00ff4a;stroke-width:1.99999;stroke-linecap:round;stroke-linejoin:round;stroke-miterlimit:4;stroke-dasharray:none;stroke-opacity:1;visibility:visible"/><path d="M356.108 720.697v1.75M356.966 721.745l-1.716-.343M355.67 719.072l.07-.068.067-.059.069-.052.076-.041.074-.03.072-.028.072-.014.074-.007.072.003.072.013.072.021.072.031.068.039.07.049.07.055.06.066.061.072.058.083.056.088.056.095.05.101.045.11.046.119.042.118.038.129.032.13.024.138.028.141.024.143.011.147.016.15.008.152.003.152v.156l-.003.156-.01.152-.015.155-.019.155-.019.152-.024.148-.033.146-.033.143-.038.141-.04.136-.044.13-.046.128-.05.117-.059.116-.051.108-.064.101-.062.094-.062.086-.067.08-.069.074-.066.061-.074.053-.074.047-.069.039-.075.028-.072.02-.074.008-.074.004-.07-.008-.074-.016-.072-.024-.069-.038-.07-.04-.067-.054-.062-.062-.065-.069-.06-.077-.059-.086-.053-.088-.051-.102-.05-.108-.047-.111-.045-.119-.036-.122-.034-.13-.032-.136-.025-.138-.024-.144-.021-.143-.012-.148-.01-.153-.007-.152v-.151l.002-.156.007-.156.01-.155.015-.153.019-.153.025-.15.027-.149.03-.144.038-.143.037-.137.043-.133.048-.128.052-.123.05-.117.055-.112.061-.107.058-.096.061-.092.065-.081.07-.076M355.87 724.038l.117.01M356.522 600.883v1.749M357.38 601.93l-1.716-.344M356.083 599.257l.07-.07.07-.058.069-.049.074-.044.074-.032.071-.024.075-.016.073-.007.072.003.07.015.075.02.071.032.068.037.068.05.07.054.061.067.063.073.055.081.056.088.056.095.051.103.047.109.044.117.041.119.039.128.032.133.025.136.027.143.024.143.012.145.016.15.008.152.002.154v.155l-.002.156-.01.152-.017.156-.017.152-.019.152-.025.149-.032.148-.034.14-.036.145-.042.132-.044.132-.046.128-.052.116-.056.116-.053.108-.061.103-.063.092-.063.087-.068.08-.069.074-.067.059-.072.056-.073.047-.07.037-.074.028-.071.021-.078.007-.071.004-.07-.008-.076-.015-.069-.026-.072-.037-.068-.041-.068-.053-.062-.061-.064-.07-.06-.077-.06-.084-.052-.09-.052-.103-.05-.106-.049-.112-.043-.118-.036-.122-.033-.13-.032-.136-.027-.139-.022-.143-.022-.142-.013-.151-.01-.152-.004-.15v-.31l.007-.155.01-.154.016-.152.018-.155.024-.15.028-.148.03-.143.038-.144.036-.139.044-.13.047-.13.053-.123.05-.117.056-.112.06-.105.058-.098.06-.09.067-.085.068-.073M356.283 604.225l.117.008M253.885 949.587v1.75M254.745 950.632l-1.716-.344M253.447 947.96l.07-.07.069-.058.07-.05.074-.042.075-.032.069-.026.075-.015.074-.007.072.003.071.013.072.022.073.03.069.04.067.049.07.053.061.068.063.072.056.084.056.086.056.095.05.101.046.111.045.117.041.12.039.126.032.133.025.137.027.142.024.142.012.147.015.15.008.154.002.151v.156l-.002.154-.011.154-.015.156-.017.152-.02.152-.024.15-.033.147-.034.141-.036.142-.041.136-.044.13-.047.126-.051.118-.055.116-.055.108-.061.102-.063.093-.063.087-.066.08-.071.073-.067.061-.072.054-.072.046-.069.04-.076.027-.072.021-.075.006-.073.006-.07-.009-.076-.016-.07-.024-.07-.037-.068-.04-.066-.054-.065-.062-.065-.07-.06-.077-.058-.085-.053-.09-.052-.1-.048-.109-.05-.111-.042-.118-.038-.123-.032-.13-.033-.135-.027-.14-.022-.142-.02-.144-.015-.149-.01-.152-.004-.15v-.153l.001-.156.006-.156.01-.154.017-.154.017-.153.026-.15.026-.148.031-.145.037-.142.038-.138.044-.133.046-.13.055-.119.048-.12.055-.111.06-.107.06-.096.057-.09.07-.083.067-.075M253.647 952.926l.118.01M356.551 956.696v1.75M357.411 957.743l-1.716-.343M356.114 955.07l.07-.07.067-.057.071-.052.074-.041.075-.032.07-.026.073-.014.076-.008.072.004.07.013.072.021.074.032.068.04.068.047.07.055.059.066.064.072.056.084.057.086.055.096.05.101.047.11.044.119.042.119.037.127.033.132.026.136.026.142.024.143.012.147.015.15.009.152.002.152v.156l-.003.155-.009.153-.017.155-.018.153-.019.154-.024.148-.032.146-.034.144-.036.14-.042.135-.044.13-.046.13-.052.115-.056.117-.054.108-.06.103-.065.092-.061.086-.067.08-.07.075-.068.059-.071.054-.072.048-.07.04-.076.025-.072.021-.074.01-.074.002-.07-.008-.076-.016-.069-.026-.071-.036-.069-.04-.065-.053-.065-.063-.064-.068-.06-.078-.059-.086-.053-.089-.052-.101-.048-.106-.05-.112-.041-.12-.038-.12-.032-.133-.034-.135-.026-.138-.024-.142-.019-.144-.015-.15-.009-.15-.005-.155v-.149l.001-.158.007-.154.01-.156.015-.153.019-.153.025-.15.027-.148.03-.145.037-.143.037-.137.045-.132.047-.13.053-.121.05-.12.053-.109.062-.108.06-.095.058-.093.068-.081.068-.076M356.314 960.036l.116.011M356.966 837.771v1.75M357.826 838.82l-1.716-.347M356.528 836.145l.07-.07.07-.057.067-.052.076-.041.075-.03.07-.029.074-.013.074-.007.072.004.071.013.073.019.072.032.068.039.068.05.07.055.061.065.063.072.056.085.056.085.056.095.05.102.046.11.044.118.042.12.038.125.033.135.025.135.027.144.025.141.011.147.015.15.008.151.002.153v.156l-.002.156-.01.152-.017.155-.016.153-.02.154-.024.148-.033.148-.032.141-.038.141-.04.136-.046.13-.046.128-.052.116-.054.117-.056.108-.059.101-.064.094-.063.085-.066.081-.07.074-.068.06-.072.054-.072.047-.069.039-.076.025-.071.024-.076.007-.073.005-.07-.01-.076-.014-.069-.027-.07-.037-.07-.039-.066-.053-.064-.064-.063-.07-.061-.074-.059-.088-.053-.088-.052-.101-.048-.107-.05-.112-.042-.119-.038-.121-.032-.132-.033-.135-.027-.138-.022-.143-.02-.144-.016-.15-.009-.152-.004-.149v-.155l.001-.155.006-.155.01-.153.016-.155.018-.153.026-.15.026-.149.03-.144.038-.143.038-.137.044-.133.046-.128.054-.124.05-.116.053-.112.061-.107.06-.096.058-.092.068-.081.068-.076M356.727 841.113l.117.009M254.362 835.649v1.75M255.218 836.695l-1.716-.344M253.923 834.025l.07-.07.069-.059.07-.051.073-.042.074-.032.072-.024.074-.016.073-.006.072.002.072.015.072.02.072.03.07.041.066.047.071.057.06.065.062.073.058.082.056.088.056.094.049.102.047.109.045.12.041.117.039.128.032.135.024.135.028.141.023.144.012.145.015.15.009.153.001.152v.312l-.012.152-.013.156-.02.152-.019.152-.024.15-.033.146-.034.141-.037.146-.04.132-.044.131-.045.129-.052.116-.058.115-.052.109-.062.101-.063.093-.063.088-.066.079-.07.075-.066.058-.074.057-.072.046-.07.037-.075.028-.072.022-.075.006-.073.004-.07-.008-.075-.014-.071-.027-.07-.036-.068-.041-.069-.054-.061-.061-.065-.07-.06-.076-.059-.085-.053-.09-.052-.102-.05-.106-.048-.113-.044-.118-.036-.121-.033-.131-.032-.136-.025-.139-.025-.142-.021-.143-.012-.15-.01-.154-.007-.151v-.15l.003-.156.006-.156.011-.155.015-.152.018-.155.027-.15.025-.148.031-.143.037-.144.038-.136.042-.135.048-.128.052-.122.05-.118.057-.112.06-.105.057-.097.063-.093.065-.082.068-.073M254.122 838.991l.117.009M254.826 722.966v1.75M255.683 724.013l-1.716-.343M254.387 721.34l.068-.07.071-.057.068-.052.075-.041.074-.031.071-.027.073-.014.075-.008.072.004.072.013.07.023.074.029.068.039.07.052.066.053.063.065.062.072.058.084.056.086.056.096.049.102.045.11.047.117.041.119.039.128.032.133.024.135.028.144.023.141.012.147.014.15.008.152.003.152v.156l-.003.156-.01.152-.014.156-.02.154-.017.152-.024.148-.035.146-.031.144-.038.142-.04.134-.044.13-.047.128-.051.116-.057.117-.053.108-.063.101-.062.094-.063.086-.065.08-.071.074-.067.06-.073.054-.072.047-.07.039-.074.028-.073.021-.074.007-.073.004-.072-.008-.073-.016-.071-.026-.07-.036-.069-.04-.068-.053-.062-.061-.065-.071-.061-.077-.057-.086-.055-.089-.052-.101-.048-.107-.047-.112-.045-.119-.037-.121-.032-.13-.033-.136-.026-.139-.024-.143-.02-.144-.013-.148-.01-.153-.007-.152v-.152l.004-.154.005-.156.01-.156.018-.153.016-.153.027-.15.025-.148.03-.145.039-.143.038-.137.042-.133.048-.128.052-.124.05-.116.056-.112.06-.107.057-.096.061-.092.067-.081.07-.076M254.586 726.308l.117.008M254.302 609.559v1.749M255.16 610.604l-1.714-.345M253.865 607.93l.069-.068.07-.057.068-.053.075-.042.075-.03.07-.027.073-.013.076-.008.072.003.07.013.072.021.075.031.067.04.068.05.069.053.061.066.063.072.056.084.056.086.056.097.05.1.047.11.044.119.043.119.036.127.033.133.026.136.025.143.025.14.012.149.015.149.008.152.003.152v.156l-.003.157-.01.151-.016.155-.018.153-.019.154-.024.146-.033.148-.033.143-.037.14-.041.137-.044.13-.045.128-.053.117-.055.116-.055.108-.061.101-.063.094-.062.086-.067.08-.07.074-.068.059-.071.055-.072.047-.07.038-.076.029-.072.02-.074.01-.074.001-.07-.007-.075-.016-.07-.027-.071-.035-.069-.038-.065-.055-.065-.063-.064-.069-.06-.076-.059-.088-.053-.088-.052-.1-.048-.108-.05-.11-.041-.12-.038-.122-.032-.13-.035-.138-.025-.139-.023-.141-.02-.143-.015-.15-.009-.151-.005-.153v-.151l.001-.156.007-.156.009-.155.017-.153.018-.153.025-.15.027-.149.029-.144.039-.143.037-.138.044-.132.047-.128.053-.123.05-.119.054-.112.06-.105.06-.096.059-.092.068-.081.068-.077M254.063 612.899l.118.01" style="fill:none;stroke:#00ff4a;stroke-width:.666665;stroke-linecap:round;stroke-linejoin:round;stroke-miterlimit:10;stroke-dasharray:none;stroke-opacity:1;visibility:visible"/><path d="M294.543 546.007v2.61M293.48 544.524l-.534.533M295.657 544.55l.549.532M296.23 549.088v-3.956M292.92 548.321v-3.225M293.48 544.524l.048-.027.078-.024.096-.02.138-.031.149-.009M293.99 544.415l.185-.03h.648l.198.015.189.023.161.03.139.02.097.042.05.037M292.92 545.095v-.015l.026-.023M296.206 545.081l.01.026.018.026M188.756 557.603v2.61M187.693 556.12l-.533.533M189.87 556.148l.55.53M190.442 560.685v-3.955M187.133 559.919v-3.227M187.693 556.12l.05-.027.077-.023.097-.02.137-.032.15-.009M188.204 556.01l.185-.03h.648l.196.015.192.024.159.03.136.019.1.042.05.04M187.133 556.692v-.015l.027-.022M190.42 556.677l.01.027.015.026" style="fill:none;stroke:#00ff4a;stroke-width:.999997;stroke-linecap:round;stroke-linejoin:round;stroke-miterlimit:4;stroke-dasharray:none;stroke-opacity:1;visibility:visible"/><path d="M168.796 978.138v-397.39M168.796 580.748l13.213-1.292M259.706 571.888l28.396-2.763M361.19 562.003l19.976-1.943" style="fill:none;stroke:#00ff4a;stroke-width:1.99999;stroke-linecap:round;stroke-linejoin:round;stroke-miterlimit:4;stroke-dasharray:none;stroke-opacity:1;visibility:visible"/><path d="m189.45 1003.398.498-.488M187.453 1003.387l-.5-.497M186.93 1000.096v2.752M188.412 999.692v2.768M189.973 999.4v3.456M189.45 1003.398l-.054.038-.098.027-.118.023-.167.02-.173.026h-.195l-.197.008-.194-.01-.194-.01-.175-.014-.161-.02-.126-.031-.096-.033-.052-.035M186.95 1002.891l-.01-.021-.011-.023M189.973 1002.856l-.013.034-.014.02" style="fill:none;stroke:#00ff4a;stroke-width:.666665;stroke-linecap:round;stroke-linejoin:round;stroke-miterlimit:4;stroke-dasharray:none;stroke-opacity:1;visibility:visible"/><path d="m355.695 957.4 16.253.947" style="fill:none;stroke:#00ff4a;stroke-width:.999997;stroke-linecap:round;stroke-linejoin:round;stroke-miterlimit:4;stroke-dasharray:none;stroke-opacity:1;visibility:visible"/><path d="m356.283 604.225 15.665-.592" style="fill:none;stroke:#00ff4a;stroke-width:.666665;stroke-linecap:round;stroke-linejoin:round;stroke-miterlimit:4;stroke-dasharray:none;stroke-opacity:1;visibility:visible"/><path d="m361.19 562.003 10.758 8.747M381.166 560.06l-9.218 10.69M259.706 571.888l8.467 8.508M269.16 580.576l-.988-.18M175.949 779.452l6.06-.806M175.948 779.452l6.06.812M182.009 778.646l-6.06.806M182.008 780.264l-6.06-.812" style="fill:none;stroke:#00ff4a;stroke-width:.999997;stroke-linecap:round;stroke-linejoin:round;stroke-miterlimit:4;stroke-dasharray:none;stroke-opacity:1;visibility:visible"/><path d="m268.967 978.547-9.234 8.68M176.952 964.974l5.057 14.489" style="fill:none;stroke:#00ff4a;stroke-width:1.99999;stroke-linecap:round;stroke-linejoin:round;stroke-miterlimit:4;stroke-dasharray:none;stroke-opacity:1;visibility:visible"/><path d="m295.133 1015.348-.26-1.708M294.277 1011.106l2.158-.523" style="fill:none;stroke:#00ff4a;stroke-width:.666665;stroke-linecap:round;stroke-linejoin:round;stroke-miterlimit:4;stroke-dasharray:none;stroke-opacity:1;visibility:visible"/><path d="m371.948 603.633-15.665.592M371.948 958.347l-16.253-.947" style="fill:none;stroke:#00ff4a;stroke-width:.666665;stroke-linecap:round;stroke-linejoin:round;stroke-miterlimit:10;stroke-dasharray:none;stroke-opacity:1;visibility:visible"/><path d="m292.92 545.095 1.623.912M294.277 548.753l1.953.335M187.133 556.692l1.623.911" style="fill:none;stroke:#00ff4a;stroke-width:.999997;stroke-linecap:round;stroke-linejoin:round;stroke-miterlimit:4;stroke-dasharray:none;stroke-opacity:1;visibility:visible"/><path d="m182.18 560.557-.171 18.899M268.173 580.396l-8.467-8.508M288.38 549.224l-.278 19.901" style="fill:none;stroke:#00ff4a;stroke-width:1.99999;stroke-linecap:round;stroke-linejoin:round;stroke-miterlimit:4;stroke-dasharray:none;stroke-opacity:1;visibility:visible"/><path d="m186.93 1000.096 1.482 2.364" style="fill:none;stroke:#00ff4a;stroke-width:.666665;stroke-linecap:round;stroke-linejoin:round;stroke-miterlimit:4;stroke-dasharray:none;stroke-opacity:1;visibility:visible"/><path d="m371.948 958.347-15.634 1.689M355.695 957.4l.735 2.647" style="fill:none;stroke:#00ff4a;stroke-width:.666665;stroke-linecap:round;stroke-linejoin:round;stroke-miterlimit:10;stroke-dasharray:none;stroke-opacity:1;visibility:visible"/></svg>