<svg xmlns="http://www.w3.org/2000/svg" baseProfile="full" height="1122.52" preserveAspectRatio="xMinYMin meet" style="width:904px;height:1119px" width="793.701" xml:space="preserve"><path d="m115.788 904.874-.099-15.034M116.425 888.791l3.619-.931M115.689 889.84l222.24 94.227" style="fill:none;stroke:red;stroke-width:.999997;stroke-linecap:round;stroke-linejoin:round;stroke-miterlimit:4;stroke-dasharray:none;stroke-opacity:1;visibility:visible"/><path d="m337.418 1001.919-221.63-97.045" style="fill:none;stroke:red;stroke-width:1.99999;stroke-linecap:round;stroke-linejoin:round;stroke-miterlimit:4;stroke-dasharray:none;stroke-opacity:1;visibility:visible"/><path d="m116.15 888.997.063-.074.061-.058.076-.047.074-.025M116.15 888.997l-.346.486" style="fill:none;stroke:red;stroke-width:.999997;stroke-linecap:round;stroke-linejoin:round;stroke-miterlimit:4;stroke-dasharray:none;stroke-opacity:1;visibility:visible"/><path d="m120.044 887.86.076-.014.064.004.062.019" style="fill:none;stroke:red;stroke-width:1.99999;stroke-linecap:round;stroke-linejoin:round;stroke-miterlimit:4;stroke-dasharray:none;stroke-opacity:1;visibility:visible"/><path d="m115.689 889.84.01-.097.013-.089.044-.085.048-.086" style="fill:none;stroke:red;stroke-width:.999997;stroke-linecap:round;stroke-linejoin:round;stroke-miterlimit:4;stroke-dasharray:none;stroke-opacity:1;visibility:visible"/><path d="m120.246 887.867 218.4 91.823" style="fill:none;stroke:red;stroke-width:1.99999;stroke-linecap:round;stroke-linejoin:round;stroke-miterlimit:4;stroke-dasharray:none;stroke-opacity:1;visibility:visible"/><path d="m256.22 689.657.08.13.08.128M257.413 696.226v-.516l-.016-.508-.031-.5-.039-.505-.054-.496-.063-.495-.084-.492-.088-.48-.107-.48-.117-.473-.133-.465-.142-.454-.157-.445M256.18 696.37l-.001.022M257.407 696.296l.007-.07M257.525 696.252l-.112-.026M261.36 657.817l-.092.017-.082.008-.07.015-.055.017-.029.012-.021.02.009.018.022.016.043.018.061.02.083.016.084.018.109.016.121.01.128.012.126.004.141.006.133.005.136-.001.134.002.122-.009.12-.004.107-.007.093-.013.078-.017.053-.008.047-.019.026-.019.003-.016-.016-.016-.035-.017-.052-.019-.069-.016-.081-.02-.108-.014-.109-.015-.12-.013-.126-.006-.137-.01-.139-.004h-.136l-.136-.004-.13.004-.121.01-.115.003M257.725 689.972l-.211 6.71M257.725 689.972l-1.507-.314M257.343 711.505l-.082 6.956M255.049 696.302l.004-.144M256.009 696.361l-.956-.203M258.4 697.416l-.006.044-.012.053-.01.045-.017.043-.02.043-.025.052M258.18 696.942l-.041-.056-.044-.045-.05-.039-.051-.02M197.906 704.757l60.404-7.061M120.36 713.825l70.254-8.216M257.51 696.628l-.16.02M257.35 696.646l.645.136M185.924 869.406l-63.972 15.637M121.968 886.5l68.424-16.794M186.509 869.593l3.883-.948M187.222 869.147l.07-.042.07-.062.067-.066.063-.079.06-.075M186.68 869.515l-.064.035-.068.028-.054.012-.056.005-.05-.009M186.68 869.515l.545-.365M187.608 803.84l.049-47.03M187.553 868.825l.013-18.191M185.933 850.045l-.01 19.361M186 756.349l-.031 47.426M186.389 869.586l-.467-.18" style="fill:none;stroke:red;stroke-width:.999997;stroke-linecap:round;stroke-linejoin:round;stroke-miterlimit:4;stroke-dasharray:none;stroke-opacity:1;visibility:visible"/><path d="M267.853 658.734v-.008M267.789 658.788l.014.019.007-.009M267.717 658.684l.033.055.037.046M267.42 658.184l.014.033.029.046.255.42M267.809 658.797l.041-.064" style="fill:none;stroke:red;stroke-width:1.99999;stroke-linecap:round;stroke-linejoin:round;stroke-miterlimit:4;stroke-dasharray:none;stroke-opacity:1;visibility:visible"/><path d="m260.662 697.333.573-38.033M267.717 658.684l-5.859.501M260.397 719.185l.265-21.853" style="fill:none;stroke:red;stroke-width:.999997;stroke-linecap:round;stroke-linejoin:round;stroke-miterlimit:4;stroke-dasharray:none;stroke-opacity:1;visibility:visible"/><path d="M260.662 697.333h.43a.43.43 0 1 0-.859 0 .43.43 0 0 0 .858 0h-.429" style="fill:none;fill-opacity:1;fill-rule:nonzero;stroke:red;stroke-width:1.33333;visibility:visible"/><path d="m256.133 658.365.04-.05.034-.049M256.123 658.372h.01l.001-.007M256.527 657.858l.026-.044.026-.034M256.209 658.265l.318-.407" style="fill:none;stroke:red;stroke-width:1.99999;stroke-linecap:round;stroke-linejoin:round;stroke-miterlimit:4;stroke-dasharray:none;stroke-opacity:1;visibility:visible"/><path d="M262.44 657.273h0l-.007.008M261.158 659.158l-4.95-.893" style="fill:none;stroke:red;stroke-width:.999997;stroke-linecap:round;stroke-linejoin:round;stroke-miterlimit:4;stroke-dasharray:none;stroke-opacity:1;visibility:visible"/><path d="m256.755 657.748.055-.006.05.006M267.26 658.13l-.059-.008-.055-.002" style="fill:none;stroke:red;stroke-width:1.99999;stroke-linecap:round;stroke-linejoin:round;stroke-miterlimit:4;stroke-dasharray:none;stroke-opacity:1;visibility:visible"/><path d="m254.96 696.11.006.011.015.016.028.01.044.009" style="fill:none;stroke:red;stroke-width:.999997;stroke-linecap:round;stroke-linejoin:round;stroke-miterlimit:4;stroke-dasharray:none;stroke-opacity:1;visibility:visible"/><path d="m267.789 658.788-.04.072-.035.07-.05.08M256.133 658.365l.016.07.03.073.043.082" style="fill:none;stroke:red;stroke-width:1.99999;stroke-linecap:round;stroke-linejoin:round;stroke-miterlimit:4;stroke-dasharray:none;stroke-opacity:1;visibility:visible"/><path d="M267.991 696.468h.862a.864.864 0 0 0-.863-.862.864.864 0 0 0-.86.862c0 .474.388.861.861.861a.864.864 0 0 0 .862-.861h-.862" style="fill:none;fill-opacity:1;fill-rule:nonzero;stroke:red;stroke-width:1.33333;visibility:visible"/><path d="m111.096 714.793-1.076-42.34M113.141 904.787l-2.045-189.994M118.082 671.81l-7.092.6M110.73 670.674l.094.014.114.017.127.016.141.01.147.004.159.009.153.005.164-.001.159-.002.146-.01.143-.003.128-.02.12-.013.101-.015.08-.015.058-.025.041-.019.019-.024.002-.022-.033-.018-.044-.02-.07-.021-.087-.025-.1-.018-.126-.008-.136-.013-.14-.012-.151-.005-.161-.006h-.161l-.157.002-.15.004-.148.01-.132.01-.133.011-.104.015-.088.015-.073.024-.052.017-.035.02-.003.024.015.024.04.02.053.02.08.024M105.072 671.334l4.817 1.056M256.009 696.361l.171.009" style="fill:none;stroke:red;stroke-width:.999997;stroke-linecap:round;stroke-linejoin:round;stroke-miterlimit:4;stroke-dasharray:none;stroke-opacity:1;visibility:visible"/><path d="M120.346 713.713h.431a.43.43 0 1 0-.861 0 .43.43 0 0 0 .861 0h-.431" style="fill:none;fill-opacity:1;fill-rule:nonzero;stroke:red;stroke-width:1.33333;visibility:visible"/><path d="m105.717 670.386.055-.002.057-.006M104.99 671.078l.018.087.02.079.044.09M118.082 671.81l.064-.089.046-.081.038-.074M117.856 670.862l.021.048.017.05M118.405 671.497l.003-.013v-.015M118.23 671.566l.031.012h.019M118.162 671.45l.036.06.034.056M118.405 671.497l-.125.083" style="fill:none;stroke:red;stroke-width:1.99999;stroke-linecap:round;stroke-linejoin:round;stroke-miterlimit:4;stroke-dasharray:none;stroke-opacity:1;visibility:visible"/><path d="m112.917 669.784-.01-.002-.017.01" style="fill:none;stroke:red;stroke-width:.999997;stroke-linecap:round;stroke-linejoin:round;stroke-miterlimit:4;stroke-dasharray:none;stroke-opacity:1;visibility:visible"/><path d="m117.538 670.794.088.01.076.014" style="fill:none;stroke:red;stroke-width:1.99999;stroke-linecap:round;stroke-linejoin:round;stroke-miterlimit:4;stroke-dasharray:none;stroke-opacity:1;visibility:visible"/><path d="m414.766 757.485 3.314-.633M287.873 913.14v.185l.014.193.019.19.033.193.042.188.052.191.054.183.07.182.078.174.083.171.09.158.099.154.109.145.107.128.112.13.122.105.12.097.126.087.122.073.13.056.127.042.125.025.127.013.121-.003.122-.018.12-.03.11-.052.11-.065.109-.072.089-.093.095-.1.075-.117.073-.13.068-.133.053-.153.051-.158.037-.162.03-.175.013-.175.011-.186.003-.186-.017-.192-.02-.19-.03-.196-.047-.188-.049-.19-.057-.188-.067-.178-.08-.18-.082-.17-.096-.156-.097-.156-.1-.144-.115-.13-.11-.129-.121-.106-.123-.1-.124-.082-.129-.067-.125-.06-.128-.035-.125-.031-.13-.012-.122.005-.121.02-.116.031-.111.054-.11.058-.106.075-.091.092-.085.104-.085.116-.075.13-.063.134-.062.153-.04.155-.036.164-.027.174-.02.174-.009.186M407.206 968.21l7.561-210.725M414.766 757.485l-224.146-52.19M120.346 713.713h.008v-.016" style="fill:none;stroke:red;stroke-width:.999997;stroke-linecap:round;stroke-linejoin:round;stroke-miterlimit:4;stroke-dasharray:none;stroke-opacity:1;visibility:visible"/><path d="m290.066 915.934.064.019.07.017.065.008.069-.003h.085l.092-.008M289.743 912.575l.003.186.008.186.026.198.03.184.04.191.052.19.055.184.073.183.075.173.08.17.093.158.104.152.1.145.11.132.118.124.112.109.124.098" style="fill:none;stroke:red;stroke-width:.999997;stroke-linecap:round;stroke-linejoin:round;stroke-miterlimit:4;stroke-dasharray:none;stroke-opacity:1;visibility:visible"/><path d="m290.865 915.52-.087-.02-.079-.018-.085-.012-.085-.015-.08-.005h-.155l-.07.008-.059.015-.057.02-.049.017-.045.025-.039.025-.03.031-.03.03-.013.038-.012.034-.005.04.005.037.012.037.032.039.035.033.045.031.052.025M418.636 757.222l.326-.517M421.127 756.296l-2.167.412M418.636 757.222l-.558-.125M289.925 911.609l-.055.146-.043.15-.032.16-.03.165-.015.17-.007.178" style="fill:none;stroke:red;stroke-width:.999997;stroke-linecap:round;stroke-linejoin:round;stroke-miterlimit:4;stroke-dasharray:none;stroke-opacity:1;visibility:visible"/><path d="m190.373 883.605-48.327 12.398" style="fill:none;stroke:red;stroke-width:1.99999;stroke-linecap:round;stroke-linejoin:round;stroke-miterlimit:4;stroke-dasharray:none;stroke-opacity:1;visibility:visible"/><path d="M258.394 697.37v.006l-.005.01v.007l.009.005v.018M258.23 711.04v-.023l.003-.008M255.525 696.261l-.027-.004h-.023M257.88 711.434l.048-.021.047-.021.042-.043M258.342 697.222l-.021-.03M258.322 697.19l-.14-.249M258.342 697.222l.019.054.018.048.015.045M258.23 711.04l-.012.029-.016.039-.027.032M258.017 711.348l.16-.208M256.165 696.39l.942-.11M257.107 696.284l.351.018M257.52 696.31l-.061-.01M255.525 696.261l.641.13" style="fill:none;stroke:red;stroke-width:.999997;stroke-linecap:round;stroke-linejoin:round;stroke-miterlimit:4;stroke-dasharray:none;stroke-opacity:1;visibility:visible"/><path d="m120.274 711.854 135.2-15.596" style="fill:none;stroke:red;stroke-width:1.99999;stroke-linecap:round;stroke-linejoin:round;stroke-miterlimit:4;stroke-dasharray:none;stroke-opacity:1;visibility:visible"/><path d="m258.4 697.416-.168 13.592M237.905 713.994l19.974-2.56M155.692 724.532l34.908-4.476" style="fill:none;stroke:red;stroke-width:.999997;stroke-linecap:round;stroke-linejoin:round;stroke-miterlimit:4;stroke-dasharray:none;stroke-opacity:1;visibility:visible"/><path d="m256.202 658.262-.019.031-.008.017M256.275 658.174l-.033.042-.041.046M256.578 657.781l-.017.03-.024.033M256.275 658.174l.26-.329M256.174 658.31l-.05.061M267.845 658.69l-.038-.05-.036-.048M267.853 658.726l.001-.013-.01-.023M267.478 658.24l-.028-.03-.03-.026M267.478 658.241l.295.35" style="fill:none;stroke:red;stroke-width:1.99999;stroke-linecap:round;stroke-linejoin:round;stroke-miterlimit:4;stroke-dasharray:none;stroke-opacity:1;visibility:visible"/><path d="M256.123 658.372h.862a.863.863 0 0 0-1.723 0c0 .473.388.861.861.861a.864.864 0 0 0 .862-.861h-.862" style="fill:none;fill-opacity:1;fill-rule:nonzero;stroke:red;stroke-width:1.33333;visibility:visible"/><path d="M262.449 657.276h0l-.011-.003" style="fill:none;stroke:red;stroke-width:.999997;stroke-linecap:round;stroke-linejoin:round;stroke-miterlimit:4;stroke-dasharray:none;stroke-opacity:1;visibility:visible"/><path d="m256.578 657.781.092-.021.084-.01M267.42 658.184l-.074-.03-.087-.022" style="fill:none;stroke:red;stroke-width:1.99999;stroke-linecap:round;stroke-linejoin:round;stroke-miterlimit:4;stroke-dasharray:none;stroke-opacity:1;visibility:visible"/><path d="M267.991 696.468h.862a.864.864 0 0 0-.863-.862.864.864 0 0 0-.86.862c0 .474.388.861.861.861a.864.864 0 0 0 .862-.861h-.862M254.96 696.11h.43a.432.432 0 1 0-.863.002.432.432 0 0 0 .863-.002h-.43" style="fill:none;fill-opacity:1;fill-rule:nonzero;stroke:red;stroke-width:1.33333;visibility:visible"/><path d="m267.853 658.726.137 37.744M254.96 696.11l1.162-37.74M256.755 657.748l5.685-.475M262.449 657.276l4.81.856" style="fill:none;stroke:red;stroke-width:1.99999;stroke-linecap:round;stroke-linejoin:round;stroke-miterlimit:4;stroke-dasharray:none;stroke-opacity:1;visibility:visible"/><path d="m254.951 696.316.009-.204" style="fill:none;stroke:red;stroke-width:.999997;stroke-linecap:round;stroke-linejoin:round;stroke-miterlimit:4;stroke-dasharray:none;stroke-opacity:1;visibility:visible"/><path d="m105.504 670.428.11-.03.102-.013M117.938 670.933l-.045-.033-.037-.038M118.408 671.441l-.042-.053-.041-.043-.387-.413M118.408 671.468v-.028M104.99 671.078l.046-.058.037-.047M104.99 671.085h0v-.007M105.43 670.521l.04-.05.035-.041M105.43 670.521l-.358.452M107.67 902.427l.002.026.031.026.041.028M112.84 904.742l.058.018.07.017.082.008.091.002M113.141 904.787l.575.016M113.716 904.803l.09-.003.088-.005.092-.01.086-.023M107.744 902.507l5.096 2.234M114.07 904.76l2.069-.53M267.666 720.862l.325-24.394" style="fill:none;stroke:red;stroke-width:1.99999;stroke-linecap:round;stroke-linejoin:round;stroke-miterlimit:4;stroke-dasharray:none;stroke-opacity:1;visibility:visible"/><path d="M112.92 669.785h0l-.004-.001" style="fill:none;stroke:red;stroke-width:.999997;stroke-linecap:round;stroke-linejoin:round;stroke-miterlimit:4;stroke-dasharray:none;stroke-opacity:1;visibility:visible"/><path d="m117.702 670.818.079.024.076.022" style="fill:none;stroke:red;stroke-width:1.99999;stroke-linecap:round;stroke-linejoin:round;stroke-miterlimit:4;stroke-dasharray:none;stroke-opacity:1;visibility:visible"/><path d="M120.354 713.697h.431a.432.432 0 1 0-.863.001.432.432 0 0 0 .863-.001h-.431" style="fill:none;fill-opacity:1;fill-rule:nonzero;stroke:red;stroke-width:1.33333;visibility:visible"/><path d="m120.368 715.16-.015-1.463M121.22 806.222l-.638-68.125M121.978 887.329l-.568-60.642M118.408 671.468l1.945 42.229M117.702 670.818l-4.781-1.032M105.717 670.386l7.199-.6M107.67 902.427l-2.683-231.343" style="fill:none;stroke:red;stroke-width:1.99999;stroke-linecap:round;stroke-linejoin:round;stroke-miterlimit:4;stroke-dasharray:none;stroke-opacity:1;visibility:visible"/><path d="m190.598 720.29.024-14.994M190.373 883.605l.044-31.943" style="fill:none;stroke:red;stroke-width:.999997;stroke-linecap:round;stroke-linejoin:round;stroke-miterlimit:4;stroke-dasharray:none;stroke-opacity:1;visibility:visible"/><path d="m338.146 941.263-147.772-57.658" style="fill:none;stroke:red;stroke-width:1.99999;stroke-linecap:round;stroke-linejoin:round;stroke-miterlimit:4;stroke-dasharray:none;stroke-opacity:1;visibility:visible"/><path d="m418.082 756.852-.626 17.152M194.76 705.081l-.771-.18" style="fill:none;stroke:red;stroke-width:.999997;stroke-linecap:round;stroke-linejoin:round;stroke-miterlimit:4;stroke-dasharray:none;stroke-opacity:1;visibility:visible"/><path d="m415.948 815.635-4.186 115.195" style="fill:none;stroke:red;stroke-width:1.99999;stroke-linecap:round;stroke-linejoin:round;stroke-miterlimit:4;stroke-dasharray:none;stroke-opacity:1;visibility:visible"/><path d="m190.62 705.296 3.369-.396" style="fill:none;stroke:red;stroke-width:.999997;stroke-linecap:round;stroke-linejoin:round;stroke-miterlimit:4;stroke-dasharray:none;stroke-opacity:1;visibility:visible"/><path d="m113.27 736.054 226.374 63.16" style="fill:none;stroke:red;stroke-width:1.99999;stroke-linecap:round;stroke-linejoin:round;stroke-miterlimit:4;stroke-dasharray:none;stroke-opacity:1;visibility:visible"/><path d="m113.27 736.054-.488-.48M112.782 735.574l-.037-3.826M190.757 720.276l14.448 3.554M215.831 726.444l47.082 11.582M203.866 723.501l210.036 51.668" style="fill:none;stroke:red;stroke-width:.999997;stroke-linecap:round;stroke-linejoin:round;stroke-miterlimit:4;stroke-dasharray:none;stroke-opacity:1;visibility:visible"/><path d="m114.181 824.069 224.033 81.09" style="fill:none;stroke:red;stroke-width:1.99999;stroke-linecap:round;stroke-linejoin:round;stroke-miterlimit:4;stroke-dasharray:none;stroke-opacity:1;visibility:visible"/><path d="m197.252 704.604-2.195.256M114.181 824.069l-.476-.434M114.136 819.287l-.468.618M113.705 823.635l-.036-3.73M190.64 803.258l149.004 47.563M186.893 803.98l-.74-.24-45.563 8.806" style="fill:none;stroke:red;stroke-width:.999997;stroke-linecap:round;stroke-linejoin:round;stroke-miterlimit:4;stroke-dasharray:none;stroke-opacity:1;visibility:visible"/><path d="m420.502 773.32.625-17.025M197.252 704.604l223.875 51.693" style="fill:none;stroke:red;stroke-width:1.99999;stroke-linecap:round;stroke-linejoin:round;stroke-miterlimit:4;stroke-dasharray:none;stroke-opacity:1;visibility:visible"/><path d="m195.057 704.861-.184.244" style="fill:none;stroke:red;stroke-width:.999997;stroke-linecap:round;stroke-linejoin:round;stroke-miterlimit:4;stroke-dasharray:none;stroke-opacity:1;visibility:visible"/><path d="m208.523 718.025-.077.005-.088-.006-.084-.015-.074-.023-.074-.036-.076-.045-.075-.059-.07-.069-.066-.08-.066-.09-.06-.104-.058-.113-.032-.097-.03-.084-.023-.105-.016-.088-.013-.094-.008-.098-.007-.095v-.101l.007-.092.013-.092.015-.088.021-.082.03-.082.038-.083.036-.079.047-.068.052-.064.05-.065.062-.047.073-.049.072-.04.08-.023.085-.018M208.522 718.025l.21-.024M208.207 715.654l.215-.026M209.222 717.514l-.039.111-.057.092-.063.088-.065.07-.075.055-.08.04-.083.022M208.42 715.629h.084l.083.008.086.03.085.044.082.059.082.078.07.089M208.991 715.938l.076.114.067.128.06.133.043.15.041.148.02.163.008.156.004.152-.02.154-.028.141-.039.139M208.762 717.993l-.012.01h-.016M195.589 877.735v1.063M196.102 878.402l-1.028-.27M194.42 878.014l.007.2.023.203.03.2.038.197.054.188.073.188.07.175.09.16.088.154.107.134.108.12.114.106.118.079.117.065.123.047.122.023h.126l.117-.01.123-.037.11-.057.099-.076.1-.103.097-.113.083-.131.067-.139.065-.165.047-.173.036-.182.024-.192.016-.188.002-.205-.016-.207-.025-.197-.037-.198-.047-.195-.06-.187-.072-.183-.08-.165-.085-.164-.102-.139-.11-.133-.11-.11-.116-.09-.117-.074-.123-.055-.122-.032-.122-.016h-.128l-.118.031-.112.052-.106.07-.101.083-.096.106-.087.126-.074.137-.068.148-.06.172-.036.173-.04.187-.014.195-.01.197M195.976 713.248v1.062M196.492 713.913l-1.028-.27M194.809 713.522l.007.199.02.204.033.2.039.196.052.19.073.189.073.176.086.16.088.152.106.132.11.124.114.101.12.083.118.065.12.044.122.025.124.003.119-.013.121-.038.116-.056.096-.076.102-.101.096-.117.08-.131.069-.139.067-.164.044-.173.036-.181.024-.192.016-.188v-.204l-.011-.206-.025-.196-.038-.2-.046-.193-.063-.19-.072-.183-.081-.169-.086-.159-.097-.138-.111-.136-.11-.106-.12-.096-.114-.069-.122-.056-.124-.033-.122-.017-.125.003-.121.029-.112.052-.107.07-.1.082-.096.109-.085.123-.076.137-.066.147-.06.175-.04.173-.037.187-.015.193-.009.197M292.36 735.785h.084l.081.008.091.028.087.045.08.059.079.079.068.088M292.931 736.093l.079.115.067.128.058.134.045.15.041.148.019.161.009.156.004.155-.02.149-.027.143-.041.14M292.709 738.15l-.019.008h-.012" style="fill:none;stroke:red;stroke-width:.666665;stroke-linecap:round;stroke-linejoin:round;stroke-miterlimit:4;stroke-dasharray:none;stroke-opacity:1;visibility:visible"/><path d="m207.989 716.637.297.197-.18.348M292.462 738.181l-.076.005-.083-.008-.086-.016-.078-.021-.073-.036-.073-.044-.074-.06-.072-.068-.065-.081-.068-.09-.059-.104-.055-.113-.034-.096-.03-.084-.023-.104-.016-.09-.017-.091-.006-.102-.007-.093v-.103l.007-.09.012-.092.017-.089.022-.082.03-.084.038-.08.036-.079.044-.068.052-.064.052-.068.062-.046.074-.047.072-.04.078-.023.087-.018M292.462 738.181l.216-.024M292.15 735.812l.21-.027M293.165 737.669l-.042.11-.052.091-.064.087-.064.075-.081.054-.075.04-.077.024M389.574 761.31l-.076.006-.086-.008-.086-.018-.076-.02-.075-.037-.073-.047-.072-.056-.071-.07-.065-.08-.068-.09-.062-.105-.052-.11-.037-.097-.03-.084-.025-.104-.013-.091-.015-.095-.006-.098-.007-.096v-.1l.007-.09.012-.091.016-.09.022-.083.031-.08.035-.082.038-.08.044-.068.052-.065.052-.065.059-.046.075-.048.073-.04.076-.025.088-.017M389.574 761.31l.213-.024M389.259 758.94l.213-.027M390.274 760.797l-.039.11-.053.093-.067.088-.063.072-.076.054-.08.039-.078.024M389.472 758.913h.086l.082.007.087.029.087.045.08.06.08.078.069.088M390.043 759.22l.076.115.07.129.057.134.045.15.039.146.022.164.008.155.003.153-.019.152-.028.144-.041.136M389.819 761.277l-.017.01h-.014" style="fill:none;stroke:red;stroke-width:.666665;stroke-linecap:round;stroke-linejoin:round;stroke-miterlimit:4;stroke-dasharray:none;stroke-opacity:1;visibility:visible"/><path d="m291.93 736.789.303.2-.184.35M316.413 754.258l-1.264.167M316.395 754.51l-1.228-.34M317.325 754.065l-.14-.036-.139-.033-.164-.02-.18-.024-.183-.024-.192-.008-.202-.015-.215.007-.197-.01-.211.014-.204.004-.196.024-.195.016-.192.024-.173.036-.157.025-.148.035-.132.04-.12.048-.095.04-.075.049-.06.051-.034.049-.021.047.008.048.023.04.052.053.068.044.086.036.109.05.128.03.136.039.165.023.165.033.18.013.193.015.2.014.2.008.205-.005.212-.005.21-.002.203-.01.196-.023.188-.019.184-.036.164-.026.158-.032.137-.04.127-.039.105-.043.09-.05.065-.045.042-.043.028-.062.004-.048-.02-.038-.034-.052-.058-.046-.082-.042-.098-.038-.114-.041M256.667 739.104l-1.261.165M256.65 739.353l-1.227-.336M257.58 738.91l-.14-.037-.14-.033-.165-.018-.178-.026-.183-.022-.193-.009-.202-.016-.212.007-.2-.008-.212.012-.202.005-.198.023-.194.016-.191.024-.173.036-.16.025-.148.036-.132.041-.114.048-.101.042-.073.046-.059.052-.035.048-.018.044.003.051.025.04.052.052.066.047.088.036.107.046.13.028.134.044.165.02.168.032.178.015.192.013.202.015.203.008.201-.004.214-.007.208-.001.202-.01.199-.024.188-.018.181-.035.163-.024.163-.036.136-.038.125-.039.104-.041.092-.05.065-.048.04-.042.031-.06.004-.047-.021-.04-.032-.052-.058-.045-.088-.046-.097-.034-.11-.042M314.746 846.534l-1.261.167M314.73 846.79l-1.23-.34M315.658 846.343l-.139-.036-.141-.033-.164-.02-.177-.024-.184-.023-.194-.009-.197-.013-.215.005-.202-.007-.211.011-.2.004-.199.024-.194.016-.191.023-.172.036-.161.026-.148.038-.132.038-.117.051-.1.037-.07.048-.061.055-.036.044-.018.048.005.048.026.039.05.054.068.044.086.036.108.05.128.027.137.046.164.017.167.034.176.016.195.012.202.015.203.009.199-.006.216-.005.208-.003.2-.01.199-.022.189-.02.181-.033.164-.027.159-.036.138-.037.129-.04.101-.041.091-.05.066-.046.04-.043.033-.06.003-.047-.021-.041-.035-.052-.059-.044-.081-.047-.1-.033-.112-.043M255.54 827.6l-1.26.164M255.522 827.85l-1.227-.336M256.453 827.405l-.139-.036-.14-.035-.164-.016-.177-.027-.186-.021-.192-.01-.202-.015-.214.005-.198-.007-.211.012-.203.006-.197.024-.195.015-.192.022-.172.038-.157.027-.15.034-.13.039-.117.05-.099.043-.076.044-.057.053-.036.047-.019.045.005.05.027.041.048.054.07.044.086.035.108.048.13.028.135.044.162.019.169.033.177.013.191.015.203.016.202.008.204-.007.211-.003.21-.003.202-.01.196-.026.192-.015.181-.035.164-.026.158-.035.137-.036.127-.041.105-.043.091-.049.064-.047.042-.043.03-.06.002-.046-.021-.042-.032-.05-.057-.044-.086-.046-.096-.036-.114-.042M201.713 724.889l-1.264.168M201.713 809.905l-1.264.168M201.693 725.142l-1.227-.338M201.693 810.158l-1.227-.338M202.62 724.697l-.137-.036-.141-.033-.164-.02-.176-.024-.187-.024-.191-.009-.2-.016-.214.009-.2-.01-.21.014-.205.004-.197.024-.193.017-.19.021-.175.038-.16.028-.15.034-.13.042-.115.046-.099.04-.074.046-.06.054-.034.048-.02.046.006.05.026.039.05.052.069.045.087.038.106.046.128.03.137.042.165.02.168.035.175.012.195.013.202.016.2.01.199-.006.216-.005.211-.003.202-.012.196-.021.189-.019.182-.036.165-.025.157-.032.137-.04.128-.04.106-.04.088-.05.069-.047.04-.044.03-.06v-.047l-.017-.039-.034-.053-.06-.047-.081-.044-.1-.034-.115-.043M202.62 809.713l-.137-.035-.141-.035-.164-.02-.176-.023-.187-.023-.191-.01-.2-.016-.214.01-.2-.011-.21.012-.205.005-.197.023-.193.02-.19.02-.175.037-.16.028-.15.035-.13.041-.115.047-.099.04-.074.047-.06.053-.034.048-.02.044.006.052.026.039.05.052.069.045.087.037.106.047.128.03.137.041.165.021.168.033.175.014.195.013.202.016.2.01.199-.007.216-.003.211-.004.202-.012.196-.021.189-.019.182-.036.165-.025.157-.033.137-.04.128-.04.106-.04.088-.05.069-.046.04-.044.03-.06v-.047l-.017-.039-.034-.053-.06-.046-.081-.045-.1-.035-.115-.042M389.043 759.92l.297.198-.182.348" style="fill:none;stroke:red;stroke-width:.666665;stroke-linecap:round;stroke-linejoin:round;stroke-miterlimit:4;stroke-dasharray:none;stroke-opacity:1;visibility:visible"/><path d="m338.443 793.713-8.2-2.286c-.01.004-.021.004-.033.004l-.035-.004-216.981-59.589a.125.125 0 0 1-.094-.12l-.036-15.24.03-.208.032-.096.06-.102.398-.555.165-.121a.08.08 0 0 1 .039-.014l.072-.018 3.531-.622.158.004M114.49 807.55l223.821 77.455M339.146 901.327c-.018.004-.028.004-.04.004a.147.147 0 0 1-.047-.008l-224.458-81.47a.136.136 0 0 1-.09-.133l-.137-12.183.018-.095.101-.205.41-.543.079-.07a.128.128 0 0 1 .029-.019l.153-.06 3.773-.64a.12.12 0 0 1 .072.005" style="fill:none;stroke:red;stroke-width:.999997;stroke-linecap:round;stroke-linejoin:round;stroke-miterlimit:4;stroke-dasharray:none;stroke-opacity:1;visibility:visible"/><path d="m117.549 714.748 221.206 56.22.136.064a.155.155 0 0 1 .029.02l.044.048.43.512a.084.084 0 0 1 .016.034l.054.196.014.138" style="fill:none;stroke:red;stroke-width:1.99999;stroke-linecap:round;stroke-linejoin:round;stroke-miterlimit:4;stroke-dasharray:none;stroke-opacity:1;visibility:visible"/><path d="m113.186 716.478 225.625 58.058" style="fill:none;stroke:red;stroke-width:.999997;stroke-linecap:round;stroke-linejoin:round;stroke-miterlimit:4;stroke-dasharray:none;stroke-opacity:1;visibility:visible"/><path d="m118.774 805.909 218.312 74.678.052-.012a.074.074 0 0 1 .048 0l.086.015a.252.252 0 0 1 .048.013l.131.097.44.485.047.1a.059.059 0 0 1 .012.037l.028.215M359.388 741.465l70.426 16.26" style="fill:none;stroke:red;stroke-width:1.99999;stroke-linecap:round;stroke-linejoin:round;stroke-miterlimit:4;stroke-dasharray:none;stroke-opacity:1;visibility:visible"/><path d="m359 761.246 24.14 5.938M423.35 758.929l-63.901-14.879" style="fill:none;stroke:red;stroke-width:.999997;stroke-linecap:round;stroke-linejoin:round;stroke-miterlimit:4;stroke-dasharray:none;stroke-opacity:1;visibility:visible"/><path d="m328.11 781.128-.167-.003-.17.03-.14.065-.139.076-.128.117-.112.13-.084.162-.088.177-.05.202-.032.209-.03.233.005.242.025.268.054.258.05.272.086.266.092.262.108.274.137.25.134.255.159.241.159.219.178.21.178.19.183.167.196.137.199.121.18.1.191.063.181.043.173.013.17-.012.162-.041.153-.068.132-.104.115-.115.104-.155.073-.162.068-.188.047-.212.03-.22.01-.246-.017-.252-.02-.257-.056-.27-.067-.267-.096-.268-.096-.274-.125-.268-.135-.25-.15-.235-.165-.233-.171-.226-.184-.197-.167-.173-.195-.148-.193-.14-.198-.107-.182-.083-.198-.05-.177-.028M328.11 887.46l-.167-.001-.17.029-.14.066-.139.075-.128.117-.112.13-.084.164-.088.175-.05.202-.032.209-.03.233.005.242.025.268.054.26.05.27.086.266.092.262.108.275.137.25.134.253.159.242.159.219.178.212.178.187.183.169.196.136.199.123.18.097.191.065.181.043.173.012.17-.01.162-.043.153-.069.132-.102.115-.116.104-.155.073-.161.068-.19.047-.209.03-.222.01-.244-.017-.254-.02-.257-.056-.27-.067-.265-.096-.268-.096-.275-.125-.269-.135-.25-.15-.235-.165-.232-.171-.227-.184-.197-.167-.173-.195-.148-.193-.14-.198-.107-.182-.083-.198-.049-.177-.03" style="fill:none;stroke:red;stroke-width:.666665;stroke-linecap:round;stroke-linejoin:round;stroke-miterlimit:4;stroke-dasharray:3.19999,3.19999;stroke-dashoffset:0;stroke-opacity:1;visibility:visible"/><path d="m256.755 657.748 4.605.069M262.44 657.273l-1.08.544M120.044 887.86l1.908-2.817M186.509 869.593l3.883.113M185.923 869.406l1.643-18.772M187.553 868.825l-1.62-18.78M257.343 711.505l3.054 7.68M109.889 672.39l.841-1.716M112.916 669.784l-2.186.89M289.743 912.578l-1.87.562M289.743 912.575l-1.87.565" style="fill:none;stroke:red;stroke-width:.999997;stroke-linecap:round;stroke-linejoin:round;stroke-miterlimit:4;stroke-dasharray:none;stroke-opacity:1;visibility:visible"/><path d="m257.343 711.505 10.323 9.357M120.354 713.697l.014 1.463M113.669 819.905l7.551-13.683M112.782 735.574l7.8 2.523M113.705 823.635l7.705 3.052" style="fill:none;stroke:red;stroke-width:1.99999;stroke-linecap:round;stroke-linejoin:round;stroke-miterlimit:4;stroke-dasharray:none;stroke-opacity:1;visibility:visible"/><path d="m187.553 868.825 2.864-17.163M414.767 757.485l2.689 16.519M111.096 714.793l1.649 16.955M203.866 723.501l1.339.329M205.205 723.83l10.626 2.614M255.423 739.017l7.49-.991M205.205 723.83l-1.339-.329M418.078 757.097l-4.176 18.072M186.893 803.98l3.747-.722" style="fill:none;stroke:red;stroke-width:.999997;stroke-linecap:round;stroke-linejoin:round;stroke-miterlimit:4;stroke-dasharray:none;stroke-opacity:1;visibility:visible"/><path d="m418.082 756.852 2.42 16.468" style="fill:none;stroke:red;stroke-width:1.99999;stroke-linecap:round;stroke-linejoin:round;stroke-miterlimit:4;stroke-dasharray:none;stroke-opacity:1;visibility:visible"/><path d="m119.009 805.91-4.519 1.64" style="fill:none;stroke:red;stroke-width:.999997;stroke-linecap:round;stroke-linejoin:round;stroke-miterlimit:4;stroke-dasharray:none;stroke-opacity:1;visibility:visible"/><path d="m418.078 757.097 11.736.628" style="fill:none;stroke:red;stroke-width:1.99999;stroke-linecap:round;stroke-linejoin:round;stroke-miterlimit:4;stroke-dasharray:none;stroke-opacity:1;visibility:visible"/><path d="m418.078 757.097 5.272 1.832" style="fill:none;stroke:red;stroke-width:.999997;stroke-linecap:round;stroke-linejoin:round;stroke-miterlimit:4;stroke-dasharray:none;stroke-opacity:1;visibility:visible"/><path d="M405.124 763.832v.233l.024.241.032.234.06.234.066.23.081.225.107.207.112.2.128.178.136.168.149.148.157.123.164.1.166.092.174.055.172.038.175.01.17-.014.17-.038.155-.066.148-.084.149-.1.13-.133.122-.145.105-.174.098-.178.08-.204.053-.214.043-.221.028-.228.012-.232-.015-.239-.024-.24-.044-.234-.061-.231-.083-.228-.097-.219-.103-.201-.124-.19-.133-.172-.144-.157-.154-.136-.162-.117-.16-.096-.171-.07-.172-.047-.173-.02-.178.002-.168.022-.161.048-.159.077-.141.093-.14.126-.124.14-.119.154-.098.179-.083.187-.068.205-.05.221-.036.23-.021.228M516.615 740.598l3.798 1.559M521.684 761.988l-6.941 175.627" style="fill:none;stroke:#00ff4a;stroke-width:.999997;stroke-linecap:round;stroke-linejoin:round;stroke-miterlimit:4;stroke-dasharray:none;stroke-opacity:1;visibility:visible"/><path d="m516.615 740.598.465.032a.505.505 0 0 0-.455-.514.45.45 0 0 0-.477.452.505.505 0 0 0 .456.514.448.448 0 0 0 .477-.452l-.466-.032" style="fill:none;fill-opacity:1;fill-rule:nonzero;stroke:#00ff4a;stroke-width:1.33333;visibility:visible"/><path d="m535 694.124.012.001.01-.01M534.916 693.976l.04.074.044.074M534.916 693.976l-.304-.596M534.556 693.254l.028.062.028.064M535.047 693.934l-.027.183M520.91 733.628l.101.172.111.158M522.484 742.034l-.343-.138M522.14 741.896v.164M522.141 741.896l.014-.656.004-.634-.016-.638-.028-.638-.046-.629-.066-.619-.078-.622-.095-.602-.115-.602-.126-.584-.138-.583-.166-.568-.162-.564M520.644 742.182l-.001.062M528.53 692.378l-.13-.036-.147-.044-.16-.032-.153-.03-.18-.02-.176-.012-.18-.014-.167-.005h-.172l-.144.008-.14.015-.129.034-.107.02-.081.038-.073.033-.036.037-.011.051.01.055.026.041.06.056.077.045.096.052.12.036.138.04.146.042.17.032.166.024.177.02.178.013.164.013.168.002.17-.01.15-.011.13-.021.114-.022.091-.035.081-.036.05-.039.03-.048v-.04l-.017-.053-.051-.057-.068-.044-.088-.047-.102-.051M527.967 695.554l6.882-1.132M520.412 742.157l.497-8.53M526.528 695.43l-6.344-2.37M522.928 734.445l-.493 8.528M522.928 734.445l-2.019-.82" style="fill:none;stroke:#00ff4a;stroke-width:.999997;stroke-linecap:round;stroke-linejoin:round;stroke-miterlimit:4;stroke-dasharray:none;stroke-opacity:1;visibility:visible"/><path d="m535.047 693.934.466.032a.504.504 0 0 0-.456-.514.447.447 0 0 0-.477.45.507.507 0 0 0 .456.516.448.448 0 0 0 .477-.452l-.466-.032" style="fill:none;fill-opacity:1;fill-rule:nonzero;stroke:#00ff4a;stroke-width:1.33333;visibility:visible"/><path d="m521.007 691.917-.128-.01-.129.012M527.87 690.766v.01l-.012.026M534.465 693.218l-.084-.028-.091-.014-.087-.02M520.57 692.06l.041-.056.031-.064M520.061 692.73l.009.015.013-.012M524.079 743.592l2.851-47.872M515.643 955.558l8.436-211.968M356.823 775.505l.08-.025.068-.026.052-.026.019-.038M357.15 775.148l.005-.01v-.013M349.36 719.756l.021-.036.017-.012M355.764 722.554l-.118-.037-.116-.041-.132-.016M340.916 721.085l.136-.01.14-.004M356.42 723.3v-.031M356.255 723.518l.04.003.01-.017M356.17 723.364l.038.074.044.08M355.782 722.569l.02.07.037.078M356.17 723.364l-.33-.647M356.306 723.505l.114-.203M357.15 775.148l-.107.24M340.175 721.956l.055-.079.045-.07M340.164 721.954h0l.011.002M340.712 721.232l.055-.066.036-.056M340.712 721.232l-.436.576M345.406 1006.155l1.304-280.966M349.115 722.129l.136-.017.13-.044.109-.034.08-.048.061-.054.027-.052.001-.062-.016-.052-.05-.053-.065-.057-.098-.056-.12-.052-.146-.051-.144-.04-.178-.032-.179-.025-.187-.022-.198-.013-.19-.004-.184-.001-.18.006-.169.018-.157.03-.13.034-.117.032-.101.045-.072.045-.038.058-.022.052.01.06.039.056.056.053.077.06.12.047.123.049.152.041.156.044.177.031.188.025.186.022.2.005h.185l.187-.005.17-.01.171-.029M340.275 722.31l6.04 2.743M347.86 725.201l8.222-1.353M520.412 742.157l.232.027M535 694.124l-.037.101-.054.1-.059.097M516.477 740.486v.02l.02.011.019.023.02.02.037.014.043.024" style="fill:none;stroke:#00ff4a;stroke-width:.999997;stroke-linecap:round;stroke-linejoin:round;stroke-miterlimit:4;stroke-dasharray:none;stroke-opacity:1;visibility:visible"/><path d="m520.081 692.734.027.103.028.105.048.118M432.564 961.887l9.79-2.819M437.518 779.642l.089.07.077.078.087.076.077.079.07.075M448.999 777.356l-.01.093-.034.104-.04.099-.053.098-.074.098M433.372 961.463l.079-.05.079-.071.09-.075.073-.096.075-.084M449.074 776.665v-.048M436.836 779.09l-.084-.066-.08-.056-.065-.044-.068-.046M432.692 961.836l-.081.035-.081.027-.076.002-.07-.005-.056-.027M444.514 958.431v.007M436.836 779.09l.684.554M448.999 777.356l.075-.692M433.372 961.463l-.68.375M433.768 961.086l4.15-181.066M432.328 961.87l-.606-.368M435.823 779.009l-4.1 182.49M515.86 938.923l-.003.072-.009.065-.021.058-.02.056-.023.062-.03.06M355.743 985.234l.037.05.03.04.033.027.025.037.028.032.028.042M355.924 985.462l159.828-46.166M431.72 961.502l-75.972 21.87M514.144 937.776l-69.617 20.05M522.919 761.4l-.012-.04-.007-.033-.008-.041-.02-.044-.017-.04-.027-.045M357.03 794.22l.036-.05.042-.036.028-.05.034-.039.026-.051.031-.044M523.593 744.193l-.001.07-.012.064-.016.059-.023.048-.025.063-.028.07M357.152 775.793l.04.057.041.043.023.036.031.039.03.036.03.042M523.07 743.244l.077.036.06.056.066.074.05.087M357.346 776.046l166.142-31.478M523.07 743.244l-.854-.356.22-.035M340.275 722.31l-.045-.128-.038-.109-.017-.117M339.314 773.728l-.056-.035-.043-.045-.008-.042M356.082 723.848l.074-.108.06-.106.04-.116" style="fill:none;stroke:#00ff4a;stroke-width:.999997;stroke-linecap:round;stroke-linejoin:round;stroke-miterlimit:4;stroke-dasharray:none;stroke-opacity:1;visibility:visible"/><path d="m520.125 692.481-.021.037-.007.032M520.215 692.382l-.039.04-.05.06M520.579 692.001l-.363.381M520.061 692.73l.035-.184M535.037 693.861l-.047-.065-.039-.054M535.047 693.934v-.029l-.008-.045M534.625 693.32l-.038-.032-.03-.034M534.625 693.32l.326.424M515.288 955.46l.079.034.077.029.097.027.102.006M515.643 955.558l.641.074M516.283 955.631l.1.007.094-.006.091-.002.079-.024M524.087 953.4l.069-.025.052-.027.024-.037.013-.041M524.245 953.27l.028-.282M524.272 952.987l.008.001M516.648 955.607l7.44-2.207M515.212 955.415l.078.043" style="fill:none;stroke:#00ff4a;stroke-width:1.99999;stroke-linecap:round;stroke-linejoin:round;stroke-miterlimit:4;stroke-dasharray:none;stroke-opacity:1;visibility:visible"/><path d="m520.061 692.73.932.067c.012-.535-.398-.997-.91-1.035a.9.9 0 0 0-.954.903c-.012.533.399.997.912 1.033a.897.897 0 0 0 .952-.9l-.932-.068" style="fill:none;fill-opacity:1;fill-rule:nonzero;stroke:#00ff4a;stroke-width:1.33333;visibility:visible"/><path d="m534.556 693.254-.039-.014-.052-.022M520.639 691.941l-.022.029-.04.031" style="fill:none;stroke:#00ff4a;stroke-width:1.99999;stroke-linecap:round;stroke-linejoin:round;stroke-miterlimit:4;stroke-dasharray:none;stroke-opacity:1;visibility:visible"/><path d="m527.87 690.766.935.066c.009-.534-.401-.998-.913-1.034a.9.9 0 0 0-.953.902c-.011.534.398.997.911 1.034a.901.901 0 0 0 .954-.902l-.934-.066" style="fill:none;fill-opacity:1;fill-rule:nonzero;stroke:#00ff4a;stroke-width:1.33333;visibility:visible"/><path d="m349.4 719.708.01.001M355.782 722.569l-.01-.001-.01-.015M340.803 721.11l.063-.018.05-.007M356.412 723.217l-.046-.068-.05-.056M356.42 723.268v-.023l-.008-.03M355.871 722.633l-.051-.044-.037-.02M356.315 723.093l-.444-.459M340.175 721.934l-.01.011v.01M340.342 721.652l-.03.048-.026.032M340.431 721.542l-.043.052-.045.058M340.803 721.11l-.021.018-.028.04-.324.374M340.287 721.73l-.112.206M338.48 1001.467l.017.064.037.048.05.052M345.043 1006.039l.068.039.09.032.094.026.112.019M345.406 1006.155l.692.081M346.098 1006.235l.11.008.097-.003.107-.016.092-.009M355.302 1003.595l.081-.032.057-.037.051-.038.017-.05M355.508 1003.438l.107-.31M355.615 1003.127v-.04M338.584 1001.631l6.46 4.408M346.503 1006.216l8.8-2.62M516.395 742.48l.082-1.994M520.061 692.73l-3.584 47.742M527.871 690.766l-7.121 1.152M527.87 690.766l6.596 2.452M524.28 952.99l10.765-259.054M516.479 740.473h0l-.002.012M520.75 691.918l-.045.018-.065.004" style="fill:none;stroke:#00ff4a;stroke-width:1.99999;stroke-linecap:round;stroke-linejoin:round;stroke-miterlimit:4;stroke-dasharray:none;stroke-opacity:1;visibility:visible"/><path d="m339.207 773.609.933.065c.01-.534-.4-.997-.91-1.034a.9.9 0 0 0-.956.904c-.011.533.4.996.911 1.033a.901.901 0 0 0 .955-.903l-.933-.065M357.154 775.126l.932.067c.012-.535-.399-.997-.91-1.035a.901.901 0 0 0-.955.904c-.009.534.399.996.911 1.034a.9.9 0 0 0 .954-.903l-.932-.067" style="fill:none;fill-opacity:1;fill-rule:nonzero;stroke:#00ff4a;stroke-width:1.33333;visibility:visible"/><path d="m340.164 721.954-.958 51.652M357.154 775.126l-.735-51.86M355.764 722.554l-6.353-2.844M349.4 719.708l-8.485 1.377" style="fill:none;stroke:#00ff4a;stroke-width:1.99999;stroke-linecap:round;stroke-linejoin:round;stroke-miterlimit:4;stroke-dasharray:none;stroke-opacity:1;visibility:visible"/><path d="m357.022 794.649.133-19.523" style="fill:none;stroke:#00ff4a;stroke-width:.999997;stroke-linecap:round;stroke-linejoin:round;stroke-miterlimit:4;stroke-dasharray:none;stroke-opacity:1;visibility:visible"/><path d="m355.735 985.459 1.287-190.812" style="fill:none;stroke:#00ff4a;stroke-width:1.99999;stroke-linecap:round;stroke-linejoin:round;stroke-miterlimit:4;stroke-dasharray:none;stroke-opacity:1;visibility:visible"/><path d="m355.615 1003.087.12-17.627" style="fill:none;stroke:#00ff4a;stroke-width:.999997;stroke-linecap:round;stroke-linejoin:round;stroke-miterlimit:4;stroke-dasharray:none;stroke-opacity:1;visibility:visible"/><path d="m338.48 1001.467.725-227.86" style="fill:none;stroke:#00ff4a;stroke-width:1.99999;stroke-linecap:round;stroke-linejoin:round;stroke-miterlimit:4;stroke-dasharray:none;stroke-opacity:1;visibility:visible"/><path d="m523.323 743.498.026.055.168.35M523.519 743.9l.04.067.017.073.019.06M520.632 742.242l-.852-.357M521.785 742.025l.44.043M522.225 742.068l.256.101M521.785 742.025l-1.152.215" style="fill:none;stroke:#00ff4a;stroke-width:.999997;stroke-linecap:round;stroke-linejoin:round;stroke-miterlimit:4;stroke-dasharray:none;stroke-opacity:1;visibility:visible"/><path d="m522.907 761.44-.019.03-.03.038-.032.04M522.827 761.55l-.232.218" style="fill:none;stroke:#00ff4a;stroke-width:1.99999;stroke-linecap:round;stroke-linejoin:round;stroke-miterlimit:4;stroke-dasharray:none;stroke-opacity:1;visibility:visible"/><path d="m519.639 741.876.071-.008.069.017" style="fill:none;stroke:#00ff4a;stroke-width:.999997;stroke-linecap:round;stroke-linejoin:round;stroke-miterlimit:4;stroke-dasharray:none;stroke-opacity:1;visibility:visible"/><path d="m522.597 761.768-.049.036-.061.028" style="fill:none;stroke:#00ff4a;stroke-width:1.99999;stroke-linecap:round;stroke-linejoin:round;stroke-miterlimit:4;stroke-dasharray:none;stroke-opacity:1;visibility:visible"/><path d="M523.595 744.102v.051l-.002.01v.031" style="fill:none;stroke:#00ff4a;stroke-width:.999997;stroke-linecap:round;stroke-linejoin:round;stroke-miterlimit:4;stroke-dasharray:none;stroke-opacity:1;visibility:visible"/><path d="m515.212 955.467-.027.03-.025.026-.05.027M355.81 1002.875l-.059.013-.06.012-.071-.005M355.811 1002.875l159.3-47.325M357.114 772.386l124.554-23.381M476.917 749.894l42.723-8.021M357.03 794.649l165.458-32.817M522.907 761.44v-.03l.013-.012" style="fill:none;stroke:#00ff4a;stroke-width:1.99999;stroke-linecap:round;stroke-linejoin:round;stroke-miterlimit:4;stroke-dasharray:none;stroke-opacity:1;visibility:visible"/><path d="m515.364 937.947.061.055.067.052.056.09.047.082M515.596 938.227l.192.408M515.787 938.635l.036.06.02.072.017.075M514.743 937.615l-.599.161M514.743 937.615l.621.332" style="fill:none;stroke:#00ff4a;stroke-width:.999997;stroke-linecap:round;stroke-linejoin:round;stroke-miterlimit:4;stroke-dasharray:none;stroke-opacity:1;visibility:visible"/><path d="m449.074 776.617-.011-.081-.015-.074-.038-.052M444.514 958.44v.01h-.011" style="fill:none;stroke:#00ff4a;stroke-width:1.99999;stroke-linecap:round;stroke-linejoin:round;stroke-miterlimit:4;stroke-dasharray:none;stroke-opacity:1;visibility:visible"/><path d="m442.354 959.067 2.149-.619" style="fill:none;stroke:#00ff4a;stroke-width:.999997;stroke-linecap:round;stroke-linejoin:round;stroke-miterlimit:4;stroke-dasharray:none;stroke-opacity:1;visibility:visible"/><path d="m444.514 958.44 4.56-181.824" style="fill:none;stroke:#00ff4a;stroke-width:1.99999;stroke-linecap:round;stroke-linejoin:round;stroke-miterlimit:4;stroke-dasharray:none;stroke-opacity:1;visibility:visible"/><path d="m498.652 947.814.179-.028.182-.003.184.023.183.05.183.074.18.098.176.123.168.145.158.168.151.183.137.2.124.217.11.23.093.241.081.248.059.255.043.256.025.258.003.255-.012.25-.032.239-.05.236-.07.216-.084.206-.099.19-.117.166-.13.151-.142.128-.155.103-.164.082-.172.053M419.986 971.814l.178-.028.183-.003.184.023.183.05.182.074.18.098.176.123.168.145.16.168.149.183.139.2.122.217.11.23.094.241.08.248.06.255.043.256.025.258.002.255-.012.25-.032.239-.05.236-.068.216-.086.206-.1.189-.116.168-.13.15-.142.128-.154.103-.164.082-.172.053M520.123 942.96l-.139-.037-.147-.01-.13.024-.13.034-.133.072-.119.083-.102.12-.111.128-.083.156-.069.168-.073.186-.048.204-.035.227-.01.227-.014.234.015.24.022.238.034.25.061.236.059.24.081.231.088.217.103.214.109.192.116.178.135.152.137.146.133.12.144.092.143.073.143.047.141.025h.143l.141-.025.133-.059.119-.072.119-.107.094-.118.095-.144.084-.166.068-.176.063-.202.036-.214.038-.218.01-.236v-.235l-.024-.243-.024-.248-.049-.249-.058-.237-.075-.226-.092-.226-.093-.224-.112-.203-.103-.179-.132-.165-.129-.155-.144-.13-.133-.107-.155-.083-.141-.06M441.456 966.96l-.138-.037-.148-.01-.13.024-.13.034-.132.072-.12.083-.101.12-.111.128-.083.156-.07.168-.073.186-.048.204-.034.227-.01.227-.014.234.014.24.023.238.033.25.062.236.058.24.082.231.088.217.102.214.11.192.116.178.134.152.139.146.132.12.143.092.142.073.144.047.142.025h.142l.142-.025.133-.059.119-.072.118-.107.095-.118.095-.144.084-.166.068-.176.062-.202.036-.214.039-.218.009-.236v-.235l-.025-.243-.023-.248-.048-.249-.058-.237-.076-.226-.091-.226-.093-.224-.112-.203-.104-.179-.131-.165-.13-.155-.142-.13-.135-.107-.154-.083-.142-.06M328.11 986.46l-.167-.002-.17.03-.14.064-.139.076-.128.118-.112.129-.084.165-.088.175-.05.201-.032.211-.03.232.005.241.025.268.054.26.05.272.086.264.092.263.108.275.137.25.134.254.159.241.159.219.178.212.178.186.183.17.196.136.199.122.18.099.191.064.181.043.173.012.17-.011.162-.041.153-.07.132-.104.115-.113.104-.155.073-.162.068-.19.047-.21.03-.222.01-.244-.017-.253-.02-.257-.056-.27-.067-.266-.096-.267-.096-.276-.125-.267-.135-.25-.15-.236-.165-.231-.171-.228-.184-.196-.167-.173-.195-.148-.193-.142-.198-.106-.182-.083-.198-.05-.177-.029M441.456 867.958l-.138-.036-.148-.01-.13.024-.13.034-.132.07-.12.086-.101.119-.111.128-.083.156-.07.168-.073.186-.048.204-.034.227-.01.227-.014.234.014.24.023.236.033.251.062.237.058.239.082.233.088.216.102.214.11.192.116.177.134.153.139.144.132.123.143.089.142.075.144.045.142.026h.142l.142-.026.133-.058.119-.071.118-.107.095-.118.095-.145.084-.165.068-.177.062-.201.036-.214.039-.218.009-.235v-.236l-.025-.243-.023-.248-.048-.249-.058-.237-.076-.227-.091-.227-.093-.222-.112-.203-.104-.179-.131-.165-.13-.156-.142-.13-.135-.106-.154-.083-.142-.061M441.456 766.625l-.138-.036-.148-.01-.13.024-.13.034-.132.07-.12.086-.101.119-.111.128-.083.156-.07.168-.073.186-.048.204-.034.227-.01.227-.014.234.014.24.023.236.033.25.062.239.058.238.082.233.088.216.102.214.11.192.116.177.134.153.139.146.132.12.143.09.142.075.144.045.142.026h.142l.142-.026.133-.058.119-.071.118-.107.095-.118.095-.144.084-.166.068-.177.062-.201.036-.214.039-.218.009-.235v-.237l-.025-.242-.023-.248-.048-.25-.058-.235-.076-.227-.091-.228-.093-.222-.112-.203-.104-.179-.131-.165-.13-.156-.142-.13-.135-.106-.154-.083-.142-.061M499.535 947.627s.87-.225 1.094-.156c.223.064.848.38.938.649.09.266-.38.176-.38.176l-.627-.088M420.868 971.627s.87-.225 1.095-.156c.223.064.847.38.937.648.09.267-.38.177-.38.177l-.625-.088M499.844 952.827l-.173.028-.181.003-.18-.022-.182-.048-.181-.072-.178-.094-.173-.119-.166-.143-.158-.158-.148-.18-.139-.196-.124-.214-.11-.222-.099-.238-.079-.242-.063-.25-.043-.25-.032-.258-.007-.249M421.178 976.827l-.174.028-.18.003-.18-.022-.182-.048-.182-.072-.177-.094-.173-.119-.167-.143-.157-.158-.148-.18-.14-.196-.123-.214-.11-.222-.101-.238-.076-.242-.065-.25-.043-.25-.032-.258-.006-.249" style="fill:none;stroke:#00ff4a;stroke-width:.666665;stroke-linecap:round;stroke-linejoin:round;stroke-miterlimit:4;stroke-dasharray:3.19999,3.19999;stroke-dashoffset:0;stroke-opacity:1;visibility:visible"/><path d="m497.428 949.903.007-.256.028-.25.047-.241.066-.226.085-.214.1-.193.119-.177.13-.152.146-.134.156-.108.168-.08.173-.058M418.762 973.903l.006-.256.028-.25.048-.241.066-.226.085-.214.1-.193.117-.177.132-.152.146-.134.156-.108.168-.081.173-.056M500.963 947.244s1.006-.222 1.297-.088c.288.134.804.536.804.536l.044.424-.336-.02-.647.019-.022 2.147.47.38.067.312s.18.336.401.425v.671s-.649.177-.805.202l-1.541.309M422.296 971.244s1.007-.222 1.298-.088c.288.134.804.536.804.536l.044.424-.336-.021-.647.021-.023 2.146.47.38.068.312s.178.336.4.425v.67s-.647.178-.804.203l-1.542.309M499.172 949.603l-.136 1.63M420.506 973.603l-.136 1.63M499.89 950.643l-1.574-.452M421.223 974.643l-1.572-.452" style="fill:none;stroke:#00ff4a;stroke-width:.666665;stroke-linecap:round;stroke-linejoin:round;stroke-miterlimit:4;stroke-dasharray:3.19999,3.19999;stroke-dashoffset:0;stroke-opacity:1;visibility:visible"/><path d="m501.187 951.267.67-.156s.335-.29.447-.447M422.52 975.267l.67-.156s.337-.29.449-.447M506.735 948.743l12.445-2.959M428.068 972.743l12.446-2.959M504.86 949.19l16.196-3.85M426.194 973.19l16.196-3.85" style="fill:none;stroke:#00ff4a;stroke-width:.666665;stroke-linecap:round;stroke-linejoin:round;stroke-miterlimit:4;stroke-dasharray:3.19999,3.19999;stroke-dashoffset:0;stroke-opacity:1;visibility:visible"/><path d="m527.87 690.766.66 1.612M527.871 690.766l.096 4.788M349.4 719.708l-.285 2.421M347.86 725.201l1.255-3.072M349.115 722.129l-1.255 3.072M355.81 1002.875l-.062-19.503" style="fill:none;stroke:#00ff4a;stroke-width:.999997;stroke-linecap:round;stroke-linejoin:round;stroke-miterlimit:4;stroke-dasharray:none;stroke-opacity:1;visibility:visible"/><path d="m516.477 740.486-.082 1.994M476.917 749.894l4.751-.889M481.668 749.005l-4.751.889" style="fill:none;stroke:#00ff4a;stroke-width:1.99999;stroke-linecap:round;stroke-linejoin:round;stroke-miterlimit:4;stroke-dasharray:none;stroke-opacity:1;visibility:visible"/><path d="m515.643 955.556-15.083-7.348M499.844 952.827l1.119-5.583M421.178 976.827l1.118-5.583M497.428 949.903l1.744-.3M500.963 947.244l-1.927 3.989M418.762 973.903l1.744-.3M499.844 952.827l1.343-1.56M421.178 976.827l1.342-1.56M499.844 952.827l6.891-4.084M514.144 937.776l5.036 8.008M421.178 976.827l6.89-4.084M442.354 959.067l-1.84 10.717M499.844 952.827l5.016-3.637M514.144 937.776l6.912 7.564M421.178 976.827l5.016-3.637M442.354 959.067l.036 10.273" style="fill:none;stroke:#00ff4a;stroke-width:.666665;stroke-linecap:round;stroke-linejoin:round;stroke-miterlimit:4;stroke-dasharray:3.19999,3.19999;stroke-dashoffset:0;stroke-opacity:1;visibility:visible"/><path d="m418.762 973.903-11.556-5.693" style="fill:none;stroke:red;stroke-width:.999997;stroke-linecap:round;stroke-linejoin:round;stroke-miterlimit:4;stroke-dasharray:none;stroke-opacity:1;visibility:visible"/><path d="m339.207 773.606.271-1.626M355.764 722.554l3.624 18.911" style="fill:none;stroke:red;stroke-width:1.99999;stroke-linecap:round;stroke-linejoin:round;stroke-miterlimit:4;stroke-dasharray:none;stroke-opacity:1;visibility:visible"/><path d="m339.207 773.609-11.097 7.519" style="fill:none;stroke:red;stroke-width:.666665;stroke-linecap:round;stroke-linejoin:round;stroke-miterlimit:4;stroke-dasharray:3.19999,3.19999;stroke-dashoffset:0;stroke-opacity:1;visibility:visible"/><path d="m417.456 774.004-12.332-10.172M414.767 757.485l-9.643 6.347" style="fill:none;stroke:#00ff4a;stroke-width:.999997;stroke-linecap:round;stroke-linejoin:round;stroke-miterlimit:4;stroke-dasharray:none;stroke-opacity:1;visibility:visible"/><path d="m515.643 955.556 4.48-12.596M423.35 758.929l18.106 7.696" style="fill:none;stroke:#00ff4a;stroke-width:.666665;stroke-linecap:round;stroke-linejoin:round;stroke-miterlimit:4;stroke-dasharray:3.19999,3.19999;stroke-dashoffset:0;stroke-opacity:1;visibility:visible"/></svg>