<svg xmlns="http://www.w3.org/2000/svg" baseProfile="full" height="1122.52" preserveAspectRatio="xMinYMin meet" style="width:738px;height:965px" width="793.701" xml:space="preserve"><path d="m127.945 842.282 8.573 4.77" style="fill:none;stroke:red;stroke-width:.999997;stroke-linecap:round;stroke-linejoin:round;stroke-miterlimit:4;stroke-dasharray:none;stroke-opacity:1;visibility:visible" visibility="hidden"/><path d="m424.715 933.604-5.125-2.482M136.52 847.051l-5.671 2.351" style="fill:none;stroke:red;stroke-width:1.99999;stroke-linecap:round;stroke-linejoin:round;stroke-miterlimit:4;stroke-dasharray:none;stroke-opacity:1;visibility:visible" visibility="hidden"/><path d="m419.591 931.122 11.299-7.967" style="fill:none;stroke:red;stroke-width:.999997;stroke-linecap:round;stroke-linejoin:round;stroke-miterlimit:4;stroke-dasharray:none;stroke-opacity:1;visibility:visible" visibility="hidden"/><path d="m127.73 847.63 3.134 1.768" style="fill:none;stroke:red;stroke-width:1.99999;stroke-linecap:round;stroke-linejoin:round;stroke-miterlimit:4;stroke-dasharray:none;stroke-opacity:1;visibility:visible" visibility="hidden"/><path d="m360.967 979.12.51-5.75M435.127 938.778l-58.64 42.96M375.89 987.534l.596-5.798" style="fill:none;stroke:red;stroke-width:.999997;stroke-linecap:round;stroke-linejoin:round;stroke-miterlimit:4;stroke-dasharray:none;stroke-opacity:1;visibility:visible" visibility="hidden"/><path d="m360.967 979.12 14.923 8.414" style="fill:none;stroke:red;stroke-width:1.99999;stroke-linecap:round;stroke-linejoin:round;stroke-miterlimit:4;stroke-dasharray:none;stroke-opacity:1;visibility:visible" visibility="hidden"/><path d="m347.73 983.087-225.58-129.89M361.476 973.37l-13.746 9.717M360.95 979.134l.017-.012M347.282 988.891l.448-5.805M376.487 981.738l-15.01-8.368" style="fill:none;stroke:red;stroke-width:.999997;stroke-linecap:round;stroke-linejoin:round;stroke-miterlimit:4;stroke-dasharray:none;stroke-opacity:1;visibility:visible" visibility="hidden"/><path d="m122.7 858.14 224.582 130.753M347.282 988.891l13.668-9.759M375.89 987.534l58.409-43.215M434.3 944.32l.828-5.54M424.715 933.604l6.243-4.457M430.958 929.147l.786-5.445M127.73 847.63l-.514-4.86M122.7 858.14l-.548-4.942M195.517 822.583l-8.705-4.217M207.226 817.729l-11.71 4.854M430.89 923.157l-37.674-17.758M388.474 903.163l-160.996-75.886M222.466 824.914l-15.24-7.184M434.246 938.222l-9.531-4.616M130.848 849.402l-7.95 3.297M134.752 839.517l-6.807 2.765M186.812 818.367l-23.498 9.547" style="fill:none;stroke:red;stroke-width:1.99999;stroke-linecap:round;stroke-linejoin:round;stroke-miterlimit:4;stroke-dasharray:none;stroke-opacity:1;visibility:visible" visibility="hidden"/><path d="m375.89 987.534-.198-.09" style="fill:none;stroke:red;stroke-width:.999997;stroke-linecap:round;stroke-linejoin:round;stroke-miterlimit:4;stroke-dasharray:none;stroke-opacity:1;visibility:visible" visibility="hidden"/><path d="m127.216 842.77.729-.488M122.152 853.197l.746-.498M431.746 923.702l-.856-.547M435.127 938.778l-.881-.556M127.73 847.63l.83.484M388.474 903.163l4.742 2.236M393.216 905.399l-4.742-2.236M222.466 824.914l5.012 2.363M227.478 827.277l-5.012-2.363M130.849 849.402l3.903-9.885" style="fill:none;stroke:red;stroke-width:1.99999;stroke-linecap:round;stroke-linejoin:round;stroke-miterlimit:4;stroke-dasharray:none;stroke-opacity:1;visibility:visible" visibility="hidden"/><path d="m356.331 944.582-.004.206.02.184.043.162.068.13.09.099.11.063.126.031.143-.005.153-.042.162-.078.165-.11.167-.142.164-.168.156-.192.146-.21.134-.229.118-.237.098-.24.077-.24.055-.234.03-.223.005-.205-.019-.186-.043-.16-.068-.133-.09-.099-.108-.066-.127-.03-.142.003-.153.044-.161.076-.167.11-.167.141-.164.17-.157.192-.148.212-.133.227-.12.239-.098.241-.076.241-.054.236-.03.222M355.264 937.234l-1.412 17.506M355.264 937.234l.532-.94M360.586 933.168l-4.79 3.127M355.264 937.234 122.27 815.299" style="fill:none;stroke:#00ff4a;stroke-width:.999997;stroke-linecap:round;stroke-linejoin:round;stroke-miterlimit:4;stroke-dasharray:none;stroke-opacity:1;visibility:visible" visibility="hidden"/><path d="m360.586 933.168-38.08-19.657M317.114 910.727l-166.134-85.76M146.13 822.46l-18.694-9.648M127.437 812.811l-4.747 1.784M122.69 814.595l-.42.705M123.849 829.978l-1.58-14.677M353.852 954.74 123.85 829.977M361.01 933.481l-.424-.314M361.01 933.482l-1.487 17.43M359.523 950.911l-5.67 3.83" style="fill:none;stroke:#00ff4a;stroke-width:1.99999;stroke-linecap:round;stroke-linejoin:round;stroke-miterlimit:4;stroke-dasharray:none;stroke-opacity:1;visibility:visible" visibility="hidden"/><path d="m359.523 950.912-3.192-6.33M355.264 937.234l1.068 7.348" style="fill:none;stroke:#00ff4a;stroke-width:.999997;stroke-linecap:round;stroke-linejoin:round;stroke-miterlimit:4;stroke-dasharray:none;stroke-opacity:1;visibility:visible" visibility="hidden"/><path d="m317.114 910.727 5.392 2.784M322.506 913.511l-5.392-2.784M146.13 822.46l4.85 2.507M150.98 824.967l-4.85-2.507" style="fill:none;stroke:#00ff4a;stroke-width:1.99999;stroke-linecap:round;stroke-linejoin:round;stroke-miterlimit:4;stroke-dasharray:none;stroke-opacity:1;visibility:visible" visibility="hidden"/><path d="m429.86 895.758-.017.195.003.177.024.156.042.13.062.099.08.075.098.039.108.006.12-.025.13-.061.136-.089.137-.119.137-.146.135-.168.128-.187.119-.205.105-.213.092-.22.076-.222.059-.217.036-.208.02-.194-.002-.178-.024-.156-.042-.13-.063-.102-.079-.071-.094-.043-.111-.006-.12.026-.13.058-.135.091-.14.116-.135.148-.136.17-.129.186-.12.204-.104.216-.092.22-.076.22-.06.22-.038.208M427.258 905.175l2.28-16.47M430.014 887.861l-.474.845M430.015 887.86l3.899-2.544M200.3 794.777l.02.217.037.221.053.225.071.221.087.218.099.211.113.201.126.187.135.17.142.156.147.133.153.112.152.085.155.064.149.036.143.012.141-.016.129-.044.118-.07.108-.09.092-.119.08-.137.06-.16.045-.176.027-.192.008-.204-.008-.213-.028-.22-.047-.225-.062-.223-.078-.224-.094-.214-.107-.208-.121-.196-.13-.18-.14-.163-.145-.143-.152-.123-.152-.099-.155-.074-.15-.05-.151-.02-.139.001-.137.031-.121.058-.113.081-.1.106-.086.13-.068.147-.053.17-.036.183-.017.196v.21M424.386 894.898l.02-.258-.012-.27-.04-.272-.07-.275-.097-.273-.127-.27-.15-.26-.171-.243-.193-.231-.214-.208-.224-.188-.238-.159-.246-.133-.25-.104-.251-.072-.249-.04-.244-.01-.235.028-.221.055-.206.09-.188.118-.166.147-.144.173-.116.198-.091.218-.063.236-.033.252-.003.263.027.269.056.275.083.273.112.27.136.265.161.248.183.24.2.217.217.198.232.174.239.146.249.12.25.089.251.056.247.027.239-.007.229-.04.215-.07.197-.106.179-.129.157-.16.13-.185.107-.21.076-.227.05-.245M429.539 888.707 197.522 786.953" style="fill:none;stroke:#9500ff;stroke-width:.999997;stroke-linecap:round;stroke-linejoin:round;stroke-miterlimit:4;stroke-dasharray:none;stroke-opacity:1;visibility:visible"/><path d="m421.77 891.634-.042.083-.033.076-.027.07-.02.07-.018.072-.014.08M421.616 892.086l-.01.139.011.135.029.13.046.124.059.106.072.095.079.083.086.072.087.06.093.045.098.036.1.026.098.01.098-.004.094-.016.088-.032.088-.048.08-.065.07-.08.066-.093.06-.123.052-.136.042-.143.037-.152M201.866 793.774l-.032.086-.024.085-.017.085-.008.088.005.156.013.079.02.076.057.137.077.128.093.113.105.1.125.087.134.072.164.059.084.02.083.01" style="fill:none;stroke:#9500ff;stroke-width:.999997;stroke-linecap:round;stroke-linejoin:round;stroke-miterlimit:4;stroke-dasharray:none;stroke-opacity:1;visibility:visible"/><path d="m433.914 885.315-37.155-16.104M392.44 867.34l-166.174-72.028M221.449 793.226l-19.489-8.448M433.914 885.315l.305.335M431.89 902.05l2.328-16.4M198.191 800.825l229.068 104.35M427.258 905.175l4.632-3.125M197.522 786.952l.384-.65M197.522 786.952l.67 13.873M197.906 786.302l4.055-1.524" style="fill:none;stroke:#9500ff;stroke-width:1.99999;stroke-linecap:round;stroke-linejoin:round;stroke-miterlimit:4;stroke-dasharray:none;stroke-opacity:1;visibility:visible"/><path d="m424.386 894.898 5.474.86M424.386 894.898l5.474.86M198.192 800.825l2.108-6.048M197.522 786.952l2.778 7.824M421.616 892.086l2.77 2.812M421.616 892.085l2.77 2.813M421.616 892.085l1.623.17" style="fill:none;stroke:#9500ff;stroke-width:.999997;stroke-linecap:round;stroke-linejoin:round;stroke-miterlimit:4;stroke-dasharray:none;stroke-opacity:1;visibility:visible"/><path d="m392.44 867.34 4.319 1.871M396.759 869.211l-4.319-1.871M221.449 793.226l4.817 2.086M226.266 795.312l-4.817-2.086" style="fill:none;stroke:#9500ff;stroke-width:1.99999;stroke-linecap:round;stroke-linejoin:round;stroke-miterlimit:4;stroke-dasharray:none;stroke-opacity:1;visibility:visible"/><path d="m198.192 800.825 3.674-7.051" style="fill:none;stroke:#9500ff;stroke-width:.999997;stroke-linecap:round;stroke-linejoin:round;stroke-miterlimit:4;stroke-dasharray:none;stroke-opacity:1;visibility:visible"/></svg>