<svg xmlns="http://www.w3.org/2000/svg" baseProfile="full" height="1122.52" preserveAspectRatio="xMinYMin meet" style="width:738px;height:965px" width="793.701" xml:space="preserve"><path d="m504.872 140.61.08.02M504.712 141.04l.304-.522M505.016 140.518l-.28-.656M504.736 139.862l-.581-.136M504.997 141.71l-.013.003-.012.005M340.2 91.967l.194-.471M340.396 91.496l-.24-.567M340.156 90.93l-.432-.098M340.44 92.545l-.066.035-.066.023M562.764 158.785l-7.44 80.177M549.13 154.713l13.634 4.07M550.647 137.256l-1.519 17.457M552.67 153.174l-3.54 1.54M326.954 73.605l223.694 63.652M554.208 135.781l-3.561 1.476" style="fill:none;stroke:red;stroke-width:.999997;stroke-linecap:round;stroke-linejoin:round;stroke-miterlimit:4;stroke-dasharray:none;stroke-opacity:1;visibility:visible" visibility="hidden"/><path d="m545.399 235.36-3.19-1.16" style="fill:none;stroke:red;stroke-width:1.99999;stroke-linecap:round;stroke-linejoin:round;stroke-miterlimit:4;stroke-dasharray:none;stroke-opacity:1;visibility:visible" visibility="hidden"/><path d="m504.024 138.996.14-.043.147-.019.149.004.15.028.153.05.147.072M504.91 139.09l.159.103.147.128.132.152.117.17.098.181.077.193.055.199.032.202.006.2-.017.195-.044.185M505.121 141.66l-.014.005-.012.005M498.201 236.34l.289-.46M498.49 235.88l-.268-.634M498.223 235.246l-.555-.173M340.13 176.59l.19-.422M340.32 176.168l-.23-.551M340.09 175.617l-.42-.125M340.363 177.149l-.023.01-.024.011M532.796 240.692l.139-.084.112-.095.082-.099.051-.106.02-.11-.012-.116-.041-.11-.075-.114-.103-.11-.132-.108-.157-.102-.181-.096-.203-.086-.221-.08-.239-.066-.25-.057-.259-.045-.262-.031-.266-.019-.263-.006-.257.008-.249.02-.234.035-.219.047-.2.058-.176.07-.154.08-.127.088-.096.096-.067.104-.037.108-.008.11.028.117.056.112.087.11.117.111.145.106.17.098.192.09.213.087.23.071.247.063.254.052.264.039.264.026.268.01h.26l.256-.014.241-.028.228-.041.21-.053.188-.064.166-.076M316.686 164.106l214.818 80.447M535.937 246.549l.123-.079.124-.105.119-.13.114-.155.104-.167.096-.183.083-.194.067-.2.05-.199.035-.199.015-.19-.002-.178-.02-.162-.037-.144-.057-.12-.071-.095-.085-.069-.098-.04-.107-.007-.115.019-.122.052-.123.076-.123.109-.119.13-.115.151-.105.17-.095.185-.082.193-.067.199-.052.203-.033.196-.016.192.002.178.018.164.04.143.054.12.074.095.085.066.097.039.108.007.116-.02.12-.051M531.504 244.553l-.401.736M531.504 244.553l9.933-5.26M530.959 251.129l-.31-.357M531.103 245.289l-.454 5.483M315.946 80.945l223.651 65.896M544.152 149.684l.127-.067.125-.1.124-.124.117-.15.11-.169.097-.189.087-.201.07-.208.055-.212.036-.214.017-.204-.001-.196-.021-.18-.036-.165-.059-.141-.072-.115-.087-.085-.101-.058-.112-.026-.116.004-.125.04-.128.068-.129.097-.122.125-.119.151-.109.17-.1.19-.085.2-.068.208-.055.215-.036.21-.019.208.003.195.02.183.04.162.056.14.073.115.087.089.1.054.113.026.118-.006.125-.04M538.69 153.54l.317.437M538.69 153.541l.49-5.95M539.181 147.592l.419-.75M549.844 142.532l-10.247 4.31M542.212 234.2l-1.401 16.104M504.972 141.72l.123-.048M503.903 139.045l.121-.05M504.972 141.72l-.162.048-.17.014-.176-.014-.176-.048-.172-.075-.165-.103-.154-.13-.14-.154-.12-.173-.105-.19-.079-.197-.057-.211-.029-.207-.004-.208.021-.2.05-.188.069-.172.097-.155.115-.13.134-.107.152-.074" style="fill:none;stroke:red;stroke-width:.999997;stroke-linecap:round;stroke-linejoin:round;stroke-miterlimit:4;stroke-dasharray:none;stroke-opacity:1;visibility:visible" visibility="hidden"/><path d="m505.672 140.997-.067.177-.092.16-.113.133-.133.111-.147.082M339.743 90.159l.108-.02h.11l.113.021.114.041.112.062.107.077M340.407 90.341l.115.109.104.126.094.143.083.158.065.167.052.173.031.179.015.176-.004.172-.023.164-.039.152M340.567 92.51l-.065.032-.067.025M340.308 92.603l.127-.036M339.616 90.196l.127-.037M340.308 92.603l-.125.02-.13-.005-.13-.035-.131-.06-.126-.083-.12-.108-.11-.13-.1-.146-.086-.161-.067-.176-.053-.179-.032-.18-.014-.184.006-.177.025-.17.045-.154.063-.14.077-.12.091-.1.11-.071.113-.049" style="fill:none;stroke:red;stroke-width:.999997;stroke-linecap:round;stroke-linejoin:round;stroke-miterlimit:4;stroke-dasharray:none;stroke-opacity:1;visibility:visible" visibility="hidden"/><path d="m340.9 92.059-.06.144-.076.125-.092.102-.105.078" style="fill:none;stroke:red;stroke-width:.999997;stroke-linecap:round;stroke-linejoin:round;stroke-miterlimit:4;stroke-dasharray:none;stroke-opacity:1;visibility:visible" visibility="hidden"/><path d="m321.662 156.93-6.965 2.397M315.946 80.945l10.654-2.902M315.615 86.583l-.045-5.03M326.954 73.605l-.01.705M540.81 250.304l-4.89-1.84M544.245 248.44l1.155-13.08M544.245 248.44l-3.435 1.865M555.324 238.962l-9.924-3.602M558.759 237.114l7.528-79.9M558.759 237.114l-3.435 1.848M566.287 157.212l-13.617-4.038M552.67 153.174l1.539-17.393M554.208 135.781 330.67 72.608M330.67 72.608l-3.716.997M323.053 154.617l-4.595-1.667M326.943 74.31l.019 3.836M317.906 87.55l.53 65.18" style="fill:none;stroke:red;stroke-width:1.99999;stroke-linecap:round;stroke-linejoin:round;stroke-miterlimit:4;stroke-dasharray:none;stroke-opacity:1;visibility:visible" visibility="hidden"/><path d="m326.6 78.043 223.245 64.489" style="fill:none;stroke:red;stroke-width:.999997;stroke-linecap:round;stroke-linejoin:round;stroke-miterlimit:4;stroke-dasharray:none;stroke-opacity:1;visibility:visible" visibility="hidden"/><path d="m530.959 251.129 9.911-5.321M539.007 153.978l-223.01-67M549.23 149.597l-10.222 4.381" style="fill:none;stroke:red;stroke-width:1.99999;stroke-linecap:round;stroke-linejoin:round;stroke-miterlimit:4;stroke-dasharray:none;stroke-opacity:1;visibility:visible" visibility="hidden"/><path d="m541.439 239.293-214.456-78.788" style="fill:none;stroke:red;stroke-width:.999997;stroke-linecap:round;stroke-linejoin:round;stroke-miterlimit:4;stroke-dasharray:none;stroke-opacity:1;visibility:visible" visibility="hidden"/><path d="m530.959 251.129-214.225-81.385M322.757 161.981l-6.072 2.124M316.322 164.706l.363-.6M316.322 164.706l.041 4.7M316.363 169.405l.37.339" style="fill:none;stroke:red;stroke-width:1.99999;stroke-linecap:round;stroke-linejoin:round;stroke-miterlimit:4;stroke-dasharray:none;stroke-opacity:1;visibility:visible" visibility="hidden"/><path d="m498.576 236.944.119-.062M497.297 234.468l.123-.06M498.576 236.944l-.05.022-.051.019M498.475 236.985l-.148.033-.157.008-.16-.021-.162-.048-.161-.075-.155-.097-.145-.121-.138-.144-.119-.156-.106-.174-.083-.18-.066-.191-.04-.191-.022-.188.007-.184.024-.174.052-.162.072-.144.092-.127.11-.103.125-.078M499.156 236.206l-.035.148-.054.139-.07.124-.089.108-.103.088-.112.07M497.419 234.406l.121-.05.133-.026.14-.006.144.016.144.038.146.06M498.245 234.438l.156.09.15.114.139.134.127.153.111.167.093.18.072.184.051.19.027.191.004.187-.019.178M340.316 177.172l.124-.047M339.483 174.909l.123-.047M340.316 177.172l-.114.028h-.123l-.124-.023-.127-.05-.125-.073-.12-.096-.115-.116-.104-.136-.092-.148-.078-.161-.062-.17-.046-.172-.024-.174-.01-.17.011-.162.03-.152.045-.137.065-.12.08-.099.097-.079.103-.052M340.836 176.613l-.04.133-.056.118-.074.102-.083.08-.099.06M339.606 174.864l.097-.026.105-.005.107.013.11.032.108.052.111.067M340.243 174.997l.115.096.108.117.101.131.088.144.072.156.063.164.044.167.026.168.01.164-.008.16-.026.148M340.484 177.106l-.024.011-.02.008M541.437 239.293l-8.641 1.399M531.504 244.553l1.292-3.861M540.87 245.808l-4.933.741M531.504 244.553l4.433 1.996M549.23 149.597l-5.078.087M550.647 137.257l-6.495 12.427" style="fill:none;stroke:red;stroke-width:.999997;stroke-linecap:round;stroke-linejoin:round;stroke-miterlimit:4;stroke-dasharray:none;stroke-opacity:1;visibility:visible" visibility="hidden"/><path d="m316.685 164.105 4.977-7.175M322.757 161.981l-8.06-2.654M530.959 251.129l4.961-2.665M326.983 160.505l-3.93-5.888M315.615 86.583l2.291.967M540.81 250.305l.06-4.497M544.152 149.684l5.078-.087" style="fill:none;stroke:red;stroke-width:1.99999;stroke-linecap:round;stroke-linejoin:round;stroke-miterlimit:4;stroke-dasharray:none;stroke-opacity:1;visibility:visible" visibility="hidden"/><path d="m323.053 154.617 3.93 5.888" style="fill:none;stroke:red;stroke-width:.999997;stroke-linecap:round;stroke-linejoin:round;stroke-miterlimit:4;stroke-dasharray:none;stroke-opacity:1;visibility:visible" visibility="hidden"/><path d="m314.697 159.327 8.06 2.654" style="fill:none;stroke:red;stroke-width:1.99999;stroke-linecap:round;stroke-linejoin:round;stroke-miterlimit:4;stroke-dasharray:none;stroke-opacity:1;visibility:visible" visibility="hidden"/><path d="m255.382 133.086.181-.069.179-.09.172-.119.164-.136.157-.159.142-.177.13-.192.115-.206.095-.218.08-.223.058-.23.04-.229.016-.231-.001-.225-.021-.22-.044-.21-.065-.199-.083-.179-.102-.164-.114-.145-.132-.124-.149-.099-.157-.074-.166-.05-.175-.026-.18.002-.184.027-.181.057-.182.08-.177.106-.167.126-.164.15-.147.168-.138.185-.121.2-.107.212-.088.221-.07.227-.046.232-.031.232-.008.23.014.223.032.214.053.204.077.19.091.172.11.155.124.135.142.11.152.088.164.062.17.037.179.008.18-.015.183-.044M254.665 111.928l.185-.065.179-.09.174-.116.167-.14.157-.154.144-.178.131-.192.113-.208.099-.217.077-.225.062-.233.04-.234.017-.233-.003-.231-.021-.223-.047-.214-.062-.202-.084-.186-.103-.17-.117-.15-.135-.127-.147-.104-.158-.081-.17-.055-.173-.027-.184-.001-.184.027-.184.05-.183.078-.177.102-.172.126-.163.149-.15.166-.139.185-.124.202-.105.214-.088.224-.07.229-.05.235-.031.236-.008.23.013.227.036.221.055.208.073.195.095.177.109.159.127.138.144.117.152.092.164.068.172.04.18.013.184-.013.183-.04M256.086 153.884l.18-.07.179-.096.17-.117.165-.137.153-.162.14-.174.129-.194.112-.204.095-.214.078-.223.06-.227.039-.229.017-.227-.001-.22-.024-.218-.041-.202-.067-.194-.079-.178-.101-.158-.116-.14-.13-.118-.144-.097-.157-.07-.165-.045-.173-.02-.179.004-.179.031-.182.06-.179.083-.176.106-.168.128-.16.151-.148.168-.136.185-.119.2-.108.209-.086.221-.068.224-.048.23-.03.23-.008.223.015.221.032.21.053.2.074.183.092.17.106.148.127.131.137.106.153.082.161.058.169.033.176.005.179-.02.181-.046M253.774 166.085l-2.436-69.652M211.1 146.532l.193-.074.193-.098.187-.123.177-.145.164-.167.152-.183.136-.202.12-.214.1-.224.081-.232.062-.238.038-.24.017-.239-.007-.232-.028-.227-.052-.217-.07-.201-.097-.188-.109-.168-.13-.147-.147-.127-.159-.1-.172-.076-.182-.05-.19-.024-.195.006-.197.032-.196.06-.196.087-.188.11-.185.132-.171.157-.159.174-.147.194-.126.21-.112.22-.095.23-.067.237-.052.239-.025.241-.004.237.018.231.04.221.062.21.083.193.104.18.12.156.138.139.154.112.168.088.178.061.187.037.19.007.201-.019.193-.046M209.958 124.665l.196-.07.196-.098.187-.119.176-.144.167-.164.157-.186.136-.201.121-.215.101-.228.083-.235.062-.24.037-.244.017-.24-.007-.237-.032-.232-.049-.22-.075-.208-.09-.19-.115-.178-.13-.151-.15-.13-.159-.106-.176-.081-.181-.055-.193-.026h-.197l-.2.029-.2.056-.195.084-.192.108-.183.132-.175.156-.16.175-.147.193-.129.21-.115.221-.091.233-.073.239-.047.241-.03.246-.003.241.02.233.038.226.062.217.086.2.105.18.123.163.139.143.156.119.168.093.18.067.19.04.191.012.202-.016.198-.043M212.22 168.013l.196-.076.19-.101.184-.124.173-.146.164-.168.151-.184.136-.2.117-.213.102-.224.08-.23.06-.233.037-.238.017-.236-.007-.229-.029-.223-.049-.208-.07-.2-.094-.182-.108-.164-.131-.14-.146-.123-.156-.095-.17-.07-.181-.046-.188-.02-.193.011-.195.033-.195.064-.194.09-.188.11-.179.136-.17.156-.159.176-.142.194-.129.207-.11.22-.09.23-.071.233-.05.237-.026.236-.006.233.018.226.041.218.062.203.08.192.103.17.121.158.136.129.153.108.166.083.174.057.185.032.193.003.193-.023.195-.049M209.96 180.636l-3.847-71.968" style="fill:none;stroke:#00ff4a;stroke-width:.999997;stroke-linecap:round;stroke-linejoin:round;stroke-miterlimit:4;stroke-dasharray:none;stroke-opacity:1;visibility:visible"/><path d="m254.453 152.69.153-.14.143-.156.13-.174.121-.184.103-.196.091-.207.07-.215.058-.213.036-.22.017-.215-.001-.212-.017-.208M253.035 110.808l.15-.139.141-.154.13-.171.119-.184.1-.197.09-.204.072-.212.053-.217.037-.22.019-.216.001-.217-.017-.21-.037-.201M253.747 131.93l.158-.147.148-.163.134-.179.123-.196.105-.205.088-.216.071-.224.05-.226.034-.226.011-.228-.009-.218-.03-.214M177.474 116.085l-.301.41M176.51 101.332l-.372-.665M168.326 97.836l7.81 2.83M210.557 99.868l-.027-.238-.045-.227-.068-.218-.09-.201-.109-.184-.128-.163-.145-.141-.162-.119-.172-.093-.184-.065-.19-.039-.199-.009-.201.016-.202.048-.198.072-.195.1-.188.127-.177.146-.167.17-.153.19-.137.207-.115.22-.098.232-.077.24-.057.245-.035.246-.01.246.014.24.037.233.056.226.082.208.1.193.118.173.138.154.153.129.167.105.177.079.19.05.195.024.2-.006.203-.034.199-.06.197-.084.19-.114.184-.136.172-.16.16-.18.14-.199.129-.21.106-.227.087-.236.068-.241.045-.246.022-.246v-.243M255.61 87.97l-.019-.23-.038-.223-.063-.207-.076-.197-.1-.177-.115-.161-.129-.14-.148-.115-.157-.09-.167-.065-.179-.04-.179-.012-.187.017-.187.041-.184.069-.181.093-.175.118-.165.142-.156.162-.146.182-.126.198-.111.212-.095.223-.076.23-.054.237-.037.239-.01.237.008.232.027.227.052.215.069.202.09.188.105.17.126.149.14.127.151.102.164.078.173.052.18.025.183-.003.187-.03.185-.054.183-.084.177-.105.171-.13.161-.154.148-.172.136-.19.12-.204.103-.217.084-.225.065-.233.045-.239.024-.236.003-.235M300.733 75.88l-.03-.16-.052-.145-.066-.132-.085-.114-.097-.089-.11-.07-.117-.042-.129-.019-.127.008-.133.036-.127.059-.125.084-.117.105-.108.126-.095.142-.078.155-.063.167-.045.172-.03.174-.006.175.014.168.03.16.053.145.067.132.083.114.099.089.111.07.117.042.127.017.13-.008.129-.034.131-.06M343.615 58.232l-167.105 43.1M176.51 101.332l.964 14.753M210.445 166.88l.18-.13.173-.149.16-.17.145-.19.132-.201.115-.215.095-.223.075-.232.055-.233.032-.235.011-.232-.01-.228-.034-.22M208.19 123.61l.18-.13.17-.147.156-.168.144-.185.13-.2.112-.213.095-.223.073-.232.056-.233.032-.239.012-.234-.01-.229-.03-.224-.052-.213M209.325 145.438l.174-.122.164-.143.157-.163.142-.177.125-.192.115-.204.095-.215.077-.22.06-.225.039-.227.017-.229v-.22l-.02-.219-.043-.208" style="fill:none;stroke:#00ff4a;stroke-width:.999997;stroke-linecap:round;stroke-linejoin:round;stroke-miterlimit:4;stroke-dasharray:none;stroke-opacity:1;visibility:visible"/><path d="m167.898 98.492.428-.656" style="fill:none;stroke:#00ff4a;stroke-width:1.99999;stroke-linecap:round;stroke-linejoin:round;stroke-miterlimit:4;stroke-dasharray:none;stroke-opacity:1;visibility:visible"/><path d="m347.89 54.2-3.46.883M343.736 55.08l-8.929-2.345M343.695 73.676l.04-18.595M252.426 89.352l.164-.15.15-.174.136-.188.123-.204.104-.221.087-.227.067-.235.045-.237.024-.24.003-.236M253.329 87.239l-.015-.182-.024-.176-.039-.17M207.562 99.273l-.01-.103-.014-.099M207.153 101.42l.17-.121.162-.144.153-.16.142-.175.123-.192.111-.203.093-.214.076-.222.057-.226.04-.228.014-.228v-.227M208.295 99.08l-.022-.22-.04-.209-.06-.202" style="fill:none;stroke:#00ff4a;stroke-width:.999997;stroke-linecap:round;stroke-linejoin:round;stroke-miterlimit:4;stroke-dasharray:none;stroke-opacity:1;visibility:visible"/><path d="m347.89 54.2-.344-.567M335.154 52.173l-.348.562" style="fill:none;stroke:#00ff4a;stroke-width:1.99999;stroke-linecap:round;stroke-linejoin:round;stroke-miterlimit:4;stroke-dasharray:none;stroke-opacity:1;visibility:visible"/><path d="m183.234 204.381-.294.344M182.338 190.669l-.36-.655M181.978 190.014l133.99-44.504M174.398 186.534l7.582 3.48M215.022 186.632l-.022-.222-.046-.209-.064-.197-.085-.18-.105-.164-.125-.143-.137-.121-.155-.098-.165-.074-.178-.047-.18-.021-.194.008-.191.03-.195.059-.19.085-.188.108-.182.132-.17.152-.16.174-.147.188-.13.204-.115.216-.093.224-.076.229-.055.235-.032.234-.01.231.012.223.034.216.056.204.077.189.095.172.115.155.129.13.15.111.161.084.169.059.183.034.186.008.194-.021.192-.048.193-.072.19-.096.182-.12.176-.143.164-.164.153-.178.14-.196.122-.212.105-.218.081-.228.067-.23.043-.234.021-.232v-.226M258.393 171.946l-.018-.214-.037-.203-.057-.192-.078-.176-.093-.159-.11-.141-.128-.12-.139-.096-.153-.073-.163-.048-.167-.022-.177.003-.178.028-.18.053-.18.082-.173.101-.168.125-.163.146-.149.164-.137.18-.123.196-.108.205-.092.219-.072.221-.055.225-.033.227-.012.223.007.217.026.21.05.199.067.184.086.168.104.15.119.129.134.108.147.084.157.061.167.034.172.009.179-.016.18-.043.178-.066.175-.092.17-.116.166-.135.155-.153.144-.174.13-.188.117-.2.1-.212.078-.218.064-.224.044-.226.024-.222.003-.222M182.338 190.669l.896 13.713M344.43 55.083l-.695-.003" style="fill:none;stroke:#00ff4a;stroke-width:.999997;stroke-linecap:round;stroke-linejoin:round;stroke-miterlimit:4;stroke-dasharray:none;stroke-opacity:1;visibility:visible"/><path d="m173.986 187.181.414-.647" style="fill:none;stroke:#00ff4a;stroke-width:1.99999;stroke-linecap:round;stroke-linejoin:round;stroke-miterlimit:4;stroke-dasharray:none;stroke-opacity:1;visibility:visible"/><path d="m292.58 85.277 1.21 66.268M255.258 173.144l.152-.138.141-.156.13-.169.117-.183.105-.193.088-.203.072-.208.058-.212.037-.212.021-.212.002-.208M256.182 171.05l-.003-.07-.006-.07M211.711 187.032l.106-.13.09-.14.078-.152.062-.16.044-.16.027-.164M211.657 187.993l.176-.125.164-.143.153-.163.145-.18.127-.19.115-.206.093-.212.081-.22.06-.221.039-.224.018-.225v-.218M212.829 185.668l-.01-.114-.014-.109" style="fill:none;stroke:#00ff4a;stroke-width:.999997;stroke-linecap:round;stroke-linejoin:round;stroke-miterlimit:4;stroke-dasharray:none;stroke-opacity:1;visibility:visible"/><path d="m256.213 95.115 2.29 69.4" style="fill:none;stroke:#00ff4a;stroke-width:1.99999;stroke-linecap:round;stroke-linejoin:round;stroke-miterlimit:4;stroke-dasharray:none;stroke-opacity:1;visibility:visible"/><path d="m246.51 163.173 7.264 2.912" style="fill:none;stroke:#00ff4a;stroke-width:.999997;stroke-linecap:round;stroke-linejoin:round;stroke-miterlimit:4;stroke-dasharray:none;stroke-opacity:1;visibility:visible"/><path d="m211.38 107.243 3.674 71.7M244.053 98.403l2.457 64.769" style="fill:none;stroke:#00ff4a;stroke-width:1.99999;stroke-linecap:round;stroke-linejoin:round;stroke-miterlimit:4;stroke-dasharray:none;stroke-opacity:1;visibility:visible"/><path d="m202.755 177.5 7.203 3.136" style="fill:none;stroke:#00ff4a;stroke-width:.999997;stroke-linecap:round;stroke-linejoin:round;stroke-miterlimit:4;stroke-dasharray:none;stroke-opacity:1;visibility:visible"/><path d="m198.986 110.595 3.77 66.905" style="fill:none;stroke:#00ff4a;stroke-width:1.99999;stroke-linecap:round;stroke-linejoin:round;stroke-miterlimit:4;stroke-dasharray:none;stroke-opacity:1;visibility:visible"/><path d="m343.242 71.572.345-.376M343.27 57.664l.345.568M343.27 57.664l-8.005-2.123" style="fill:none;stroke:#00ff4a;stroke-width:.999997;stroke-linecap:round;stroke-linejoin:round;stroke-miterlimit:4;stroke-dasharray:none;stroke-opacity:1;visibility:visible"/><path d="m173.986 187.181.124-.295M174.92 200.8l.476.344M174.398 186.534l-.29.352M305.85 162.376l-122.91 42.349M182.94 204.725l-7.543-3.581M202.743 177.258l-28.345 9.276M246.5 162.938l-31.732 10.383M289.742 148.786l-31.419 10.284M315.92 140.222l-11.884 3.888M173.986 187.181l.935 13.619M347.89 54.2l-.002-.18M347.888 54.02l-.342-.388M334.807 52.736l.008-.176M334.814 52.559l.34-.386M338.615 51.31l-3.461.864M347.546 53.633l-8.93-2.325M347.812 74.661l.08-20.461M334.807 52.736l.004 2.92M167.898 98.492l.134-.24M168.904 113.136l.496.41M168.326 97.836l-.296.417M307.702 81.187l-130.53 35.308M343.242 71.572l-5.323 1.44M177.173 116.496l-7.773-2.95M335.266 55.54 168.328 97.835M167.898 98.492l1.006 14.643" style="fill:none;stroke:#00ff4a;stroke-width:1.99999;stroke-linecap:round;stroke-linejoin:round;stroke-miterlimit:4;stroke-dasharray:none;stroke-opacity:1;visibility:visible"/><path d="m289.773 150.314 3.314 1.23M293.087 151.544l.703.001M304.094 148.136l-10.305 3.41" style="fill:none;stroke:#00ff4a;stroke-width:.999997;stroke-linecap:round;stroke-linejoin:round;stroke-miterlimit:4;stroke-dasharray:none;stroke-opacity:1;visibility:visible"/><path d="m288.498 86.381 1.275 63.933M303.173 82.412l.92 65.724" style="fill:none;stroke:#00ff4a;stroke-width:1.99999;stroke-linecap:round;stroke-linejoin:round;stroke-miterlimit:4;stroke-dasharray:none;stroke-opacity:1;visibility:visible"/><path d="M341.296 72.099v1.331" style="fill:none;stroke:#00ff4a;stroke-width:.999997;stroke-linecap:round;stroke-linejoin:round;stroke-miterlimit:4;stroke-dasharray:none;stroke-opacity:1;visibility:visible"/><path d="m318.458 152.95-.023-.22" style="fill:none;stroke:#00ff4a;stroke-width:1.99999;stroke-linecap:round;stroke-linejoin:round;stroke-miterlimit:4;stroke-dasharray:none;stroke-opacity:1;visibility:visible"/><path d="m246.5 162.938 9.586-9.054M258.323 159.07l-2.237-5.186M253.329 87.239l-1.991 9.194M202.743 177.258l9.477-9.245M214.768 173.321l-2.547-5.308M207.562 99.273l-1.449 9.395M258.503 164.515l-3.146-14.165M207.538 99.071l3.019.797M256.213 95.115l-.603-7.145M341.296 72.099l2.399 1.577M304.036 144.11l11.932 1.4M212.805 185.445l2.217 1.187M215.054 178.943l-.032 7.689M256.173 170.91l2.22 1.036M256.182 171.05l2.211.896" style="fill:none;stroke:#00ff4a;stroke-width:.999997;stroke-linecap:round;stroke-linejoin:round;stroke-miterlimit:4;stroke-dasharray:none;stroke-opacity:1;visibility:visible"/><path d="m255.61 87.97.603 7.145M256.173 170.91l2.33-6.395M210.557 99.868l.823 7.375M212.805 185.445l2.249-6.502M253.329 87.239l-9.276 11.164M207.562 99.273l-8.576 11.322M293.789 151.546l12.061 10.83M212.221 168.013l2.547 5.308M293.789 151.546l-4.047-2.76M256.086 153.884l2.237 5.186M304.094 148.136l-.058-4.026M341.296 72.099l6.516 2.562M343.615 58.232l-5.696 14.78" style="fill:none;stroke:#00ff4a;stroke-width:1.99999;stroke-linecap:round;stroke-linejoin:round;stroke-miterlimit:4;stroke-dasharray:none;stroke-opacity:1;visibility:visible"/><path d="m343.695 73.676-2.399-1.577M343.735 55.081l-2.439 18.349M256.086 153.884l-1.633-1.194M256.086 153.884l-.828 19.26" style="fill:none;stroke:#00ff4a;stroke-width:.999997;stroke-linecap:round;stroke-linejoin:round;stroke-miterlimit:4;stroke-dasharray:none;stroke-opacity:1;visibility:visible"/><path d="m314.697 159.327 1.223-19.105M315.946 80.945l-8.244.242M315.615 86.583l-12.442-4.171" style="fill:none;stroke:#00ff4a;stroke-width:1.99999;stroke-linecap:round;stroke-linejoin:round;stroke-miterlimit:4;stroke-dasharray:none;stroke-opacity:1;visibility:visible"/></svg>