<svg xmlns="http://www.w3.org/2000/svg" baseProfile="full" height="1122.52" preserveAspectRatio="xMinYMin meet" style="width:738px;height:965px" width="793.701" xml:space="preserve"><path d="m310.7 176.553-.01.087-.037.086-.066.087-.09.083-.118.08-.141.076-.163.07-.181.064-.201.058-.215.049-.23.041-.236.032-.245.024-.25.014-.245.004-.247-.008-.24-.014-.231-.025-.22-.035-.205-.044-.187-.05-.168-.059-.148-.067-.123-.072-.098-.076-.072-.081-.047-.084-.016-.085" style="fill:none;stroke:red;stroke-width:.999997;stroke-linecap:round;stroke-linejoin:round;stroke-miterlimit:4;stroke-dasharray:none;stroke-opacity:1;visibility:visible"/><path d="m307.585 177.22-.087-.051-.061-.056-.037-.059-.006-.061.02-.06.046-.061.074-.058.096-.053.12-.048.139-.043.153-.034.164-.026.17-.017.176-.007.173.004M308.725 176.589l.169.012.161.021.146.032.129.04.107.046.083.053.058.057.027.062v.062l-.028.062-.058.061-.084.057M316.898 417.834l.019.121.04.119.07.116.089.108.112.101.132.093.153.084.169.072.185.063.196.049.207.034.216.022.22.01.223-.007.22-.019.221-.032.212-.045.201-.059.194-.07.177-.084.161-.089.146-.099.125-.108.103-.114.078-.118.058-.12.032-.123.006-.124M306.27 176.706l.01-.086.036-.087.066-.085.09-.084.118-.08.139-.076.16-.07.185-.064.196-.058.216-.05.227-.04.236-.033.241-.023.25-.014.246-.004.244.005M308.933 175.857l.24.015.234.025.22.033.207.044.188.051.17.059.151.066.123.072.101.078.073.08.045.086.017.086" style="fill:none;stroke:red;stroke-width:.999997;stroke-linecap:round;stroke-linejoin:round;stroke-miterlimit:4;stroke-dasharray:none;stroke-opacity:1;visibility:visible"/><path d="m320.863 417.615-8.626-204.645M312.04 208.336l-1.34-31.782M316.898 417.834l-9.1-206.454M307.67 208.482l-1.4-31.776M312.04 208.336l.197 4.634M312.237 212.97l-.197-4.634M307.67 208.482l.128 2.898M307.798 211.38l-.128-2.898" style="fill:none;stroke:red;stroke-width:1.6;stroke-linecap:round;stroke-linejoin:round;stroke-miterlimit:4;stroke-dasharray:none;stroke-opacity:1;visibility:visible"/><path d="m302.366 209.216-1.256-.45M301.111 208.765l1.24-.49" style="fill:none;stroke:#00ff4a;stroke-width:.666665;stroke-linecap:round;stroke-linejoin:round;stroke-miterlimit:4;stroke-dasharray:none;stroke-opacity:1;visibility:visible"/><path d="m386.639 184.448.115-.046" style="fill:none;stroke:#00ff4a;stroke-width:.666665;stroke-linecap:round;stroke-linejoin:round;stroke-miterlimit:4;stroke-dasharray:.122666;stroke-dashoffset:0;stroke-opacity:1;visibility:visible"/><path d="m388.446 349.913.058.145.042.147.028.145.01.14-.008.133-.024.124-.038.11-.058.096-.069.077-.081.061M386.508 183.342l.052.048M386.191 182.902l-.39.158M386.5 183.198l.008.144M386.508 183.342l-.677.274M385.831 183.616l.388.37M386.219 183.985l.361-.185M386.582 183.801l-.03-.556M386.551 183.245l-.39-.37M386.162 182.874l-.362.186M385.802 183.061l.028.555M385.75 182.33l.12-.033.126-.008.13.019.133.044.13.068.125.09.12.114.108.129.096.147.082.157M386.919 183.057l.064.164.047.168.028.168.01.167-.01.161-.03.15-.046.135-.066.12-.081.102-.095.081-.108.057M453.838 204.638l.152.142M453.563 204.177l-.408.184M453.83 204.426l.009.212M453.838 204.638l-.668.302M453.17 204.94l.42.393M453.59 205.333l.41-.185M453.999 205.148l-.015-.578M453.986 204.569l-.422-.392M453.563 204.177l-.408.184M453.155 204.362l.015.579M453.07 203.621l.122-.041.13-.018.136.006.138.032.136.053.135.077.128.098.12.116.11.133.095.145.082.158" style="fill:none;stroke:#00ff4a;stroke-width:.999997;stroke-linecap:round;stroke-linejoin:round;stroke-miterlimit:4;stroke-dasharray:none;stroke-opacity:1;visibility:visible"/><path d="m454.402 204.38.064.165.044.17.029.168.007.169-.012.161-.031.152-.053.139-.066.125-.084.105-.1.087-.112.065M457.228 171.888l-4.994 234.282M460.275 169.51l.107-.054.08-.056.057-.06.025-.064v-.066l-.028-.064-.054-.062-.083-.059-.107-.055-.126-.05-.147-.043-.163-.035-.174-.025-.183-.017-.185-.008-.188.002-.183.012-.173.02-.163.031-.147.039-.126.044-.107.053-.08.057-.055.06-.03.064v.064l.03.064.055.064.08.059.105.056.13.049.145.042.163.036.174.025.184.017.187.008.187-.002.182-.011.176-.023.162-.029.145-.039.128-.044M452.176 170.41l.082.264M457.228 171.888l9.475-3.982M457.228 171.888l-.76.018M452.256 170.674l4.21 1.231M450.502 377.9l-.372.23M450.33 377.369l-.588.368M449.742 377.737l.388.393M450.13 378.131l.377-.104M450.506 378.029l-.016-.499M450.492 377.531l-.39-.393M450.1 377.138l-.373.104M449.727 377.242l.015.496M449.506 376.655l.1-.048.114-.026.122-.004.128.018.129.04.133.065.13.083.12.1.117.119.104.132.093.141.076.15M450.874 377.425l.058.144.04.145.028.145.01.141-.008.131-.026.124-.04.11-.054.101-.072.081-.082.066M394.707 372.446l.135-.088.13-.108.128-.127.122-.141.114-.155.106-.167.094-.178.084-.184.07-.188.057-.19.043-.189.025-.185.01-.18-.005-.17-.02-.161-.036-.145-.05-.132-.067-.115-.079-.093-.09-.076-.102-.055-.112-.029-.118-.011-.127.012-.13.036-.132.058-.134.077-.133.1-.132.116-.123.135-.119.147-.11.163-.103.172-.09.183-.076.185-.063.19-.051.191-.033.189-.02.182-.002.176.014.166.028.153.044.14.06.12.072.107.084.083.098.066.106.041.116.02.122-.001.131-.026.13-.046.135-.068M388.752 165.926l.3 36.168M389.3 232.15l1.207 145.572M394.54 372.166l-.014-2.319M394.786 369.542l.069.112M394.871 372.12l-.017-2.466" style="fill:none;stroke:#00ff4a;stroke-width:.999997;stroke-linecap:round;stroke-linejoin:round;stroke-miterlimit:4;stroke-dasharray:none;stroke-opacity:1;visibility:visible"/><path d="m395.654 370.269-.024-.143-.038-.13-.054-.115-.068-.094-.08-.076-.089-.054-.103-.035-.109-.012-.113.012-.122.032M394.456 369.736l-.034-.018M394.456 369.735l-.121.108-.116.122-.112.137-.103.15-.093.161-.084.169-.07.172-.061.175-.044.177-.031.174-.018.17-.001.163.016.153.028.14.042.127.058.11.07.094.082.073.09.056M395.266 369.54l-.087-.03-.092-.016-.097.001-.1.016-.104.032M394.786 369.542l-.078-.033M388.126 350.427l-.331.186M388.003 349.922l-.57.321M387.432 350.242l.362.37M387.795 350.613l.336-.108M388.131 350.505l-.028-.48M388.103 350.025l-.361-.372M387.742 349.653l-.335.109M387.407 349.762l.027.481M387.234 349.174l.092-.039.101-.018h.108l.11.021.115.042.115.061.112.077.11.096.101.108.094.121.082.13.072.141M394.456 369.735l.071.115" style="fill:none;stroke:#00ff4a;stroke-width:.999997;stroke-linecap:round;stroke-linejoin:round;stroke-miterlimit:4;stroke-dasharray:none;stroke-opacity:1;visibility:visible"/><path d="m394.527 369.847-.119.108-.116.123-.108.139-.098.15-.091.16-.077.17-.068.172-.049.174-.041.174-.02.17-.008.163.01.155.025.14.039.131.054.111.068.095.079.075.092.053.1.035.11.01.113-.01.12-.035M298.674 435.868l.526 9.838M297.953 435.898l-9.544-5.17" style="fill:none;stroke:#00ff4a;stroke-width:.999997;stroke-linecap:round;stroke-linejoin:round;stroke-miterlimit:4;stroke-dasharray:none;stroke-opacity:1;visibility:visible"/><path d="m394.535 371.238.024.281.035.286.042.288M394.602 369.575l-.044.326-.03.334" style="fill:none;stroke:#00ff4a;stroke-width:.999997;stroke-linecap:round;stroke-linejoin:round;stroke-miterlimit:4;stroke-dasharray:none;stroke-opacity:1;visibility:visible"/><path d="m387.328 392.54 8.338-5.029M372.143 401.702l6.323-3.815M350.835 414.556l8.13-4.902M335.863 423.588l10.947-6.605M299.2 445.708l23.466-14.158" style="fill:none;stroke:#00ff4a;stroke-width:1.99999;stroke-linecap:round;stroke-linejoin:round;stroke-miterlimit:4;stroke-dasharray:none;stroke-opacity:1;visibility:visible"/><path d="m331.577 416.315-32.904 19.555M346.528 407.428l-11 6.54M362.1 398.174l-11.528 6.852M368.131 394.59l-1.887 1.12M378.335 388.526l-6.353 3.776M399.066 376.206l-11.831 7.03" style="fill:none;stroke:#00ff4a;stroke-width:.999997;stroke-linecap:round;stroke-linejoin:round;stroke-miterlimit:4;stroke-dasharray:none;stroke-opacity:1;visibility:visible"/><path d="m288.753 430.088-.346.64" style="fill:none;stroke:#00ff4a;stroke-width:1.99999;stroke-linecap:round;stroke-linejoin:round;stroke-miterlimit:4;stroke-dasharray:none;stroke-opacity:1;visibility:visible"/><path d="m298.674 435.868-.721.028" style="fill:none;stroke:#00ff4a;stroke-width:.999997;stroke-linecap:round;stroke-linejoin:round;stroke-miterlimit:4;stroke-dasharray:none;stroke-opacity:1;visibility:visible"/><path d="m322.3 431.348 43.247 22.834M299.2 445.708l-.33.227M298.48 445.735l.72-.028" style="fill:none;stroke:#00ff4a;stroke-width:1.99999;stroke-linecap:round;stroke-linejoin:round;stroke-miterlimit:4;stroke-dasharray:none;stroke-opacity:1;visibility:visible"/><path d="m373.462 449.048-51.545-26.85" style="fill:none;stroke:#00ff4a;stroke-width:.999997;stroke-linecap:round;stroke-linejoin:round;stroke-miterlimit:4;stroke-dasharray:none;stroke-opacity:1;visibility:visible"/><path d="m383.012 421.555 18.596 9.232M366.6 413.406l12.173 6.044M358.624 409.447l3.767 1.87" style="fill:none;stroke:#00ff4a;stroke-width:1.99999;stroke-linecap:round;stroke-linejoin:round;stroke-miterlimit:4;stroke-dasharray:none;stroke-opacity:1;visibility:visible"/><path d="m473.987 167.425-3.295 1.392M461.55 163.873l-3.307 1.368M461.85 150.942l-3.326 1.332M457.76 152.8l-55.68-15.507M457.483 165.761l.277-12.961M460.946 166.757l-3.463-.996M469.925 169.342l-3.237-.932M463.71 401.447l6.216-232.106M460.812 400.131l2.9 1.316M419.458 393.764l22.89 10.594M403.132 386.209l12.26 5.673M393.528 381.765l5.574 2.578M467.892 381.26l6.008 2.63M362.194 402.358l-3.784-1.852M378.643 410.412l-12.225-5.988M409.63 425.584l-26.728-13.086M467.372 399.431l27.248-17.994M361.408 469.415l102.59-67.756M350.872 463.712l10.535 5.703M497.785 382.355l-.655.026M496.95 392.954l-.261-.208M500.579 380.502l-2.794 1.855M497.13 382.38l-28.918-12.433M496.688 392.746l.442-10.366M464.378 401.831l-.668-.383M470.692 168.816l-.767.524M458.243 165.241l-.759.52M458.524 152.274l-.762.527" style="fill:none;stroke:#00ff4a;stroke-width:.999997;stroke-linecap:round;stroke-linejoin:round;stroke-miterlimit:4;stroke-dasharray:none;stroke-opacity:1;visibility:visible"/><path d="M484.444 377.06 467.7 387.923" style="fill:none;stroke:#00ff4a;stroke-width:1.99999;stroke-linecap:round;stroke-linejoin:round;stroke-miterlimit:4;stroke-dasharray:none;stroke-opacity:1;visibility:visible"/><path d="m415.286 421.926-32.019 20.77M447.77 400.852l-28.452 18.46" style="fill:none;stroke:#00ff4a;stroke-width:.999997;stroke-linecap:round;stroke-linejoin:round;stroke-miterlimit:4;stroke-dasharray:none;stroke-opacity:1;visibility:visible"/><path d="m350.52 464.387.285 10.11M379.136 445.375l-28.264 18.337" style="fill:none;stroke:#00ff4a;stroke-width:1.99999;stroke-linecap:round;stroke-linejoin:round;stroke-miterlimit:4;stroke-dasharray:none;stroke-opacity:1;visibility:visible"/><path d="m361.807 470.063.233 10.163" style="fill:none;stroke:#00ff4a;stroke-width:.999997;stroke-linecap:round;stroke-linejoin:round;stroke-miterlimit:4;stroke-dasharray:none;stroke-opacity:1;visibility:visible"/><path d="m350.873 463.712-.355.674M350.872 463.712l-.369.228" style="fill:none;stroke:#00ff4a;stroke-width:1.99999;stroke-linecap:round;stroke-linejoin:round;stroke-miterlimit:4;stroke-dasharray:none;stroke-opacity:1;visibility:visible"/><path d="m361.408 469.415.4.648" style="fill:none;stroke:#00ff4a;stroke-width:.999997;stroke-linecap:round;stroke-linejoin:round;stroke-miterlimit:4;stroke-dasharray:none;stroke-opacity:1;visibility:visible"/><path d="m350.503 463.94.017.446" style="fill:none;stroke:#00ff4a;stroke-width:1.99999;stroke-linecap:round;stroke-linejoin:round;stroke-miterlimit:4;stroke-dasharray:none;stroke-opacity:1;visibility:visible"/><path d="m361.29 480.256.75-.032M398.404 177.018l-.062-15.088M390.506 377.723l-.656.023M390.506 377.722l8.544-5.05M389.851 377.746l-2.681-1.237M402.652 177.314l-.012.087-.044.088-.07.085-.096.082-.123.077-.144.073-.168.064M385.151 171.909l-.01.077-.035.076-.052.075-.076.073-.096.07-.118.066-.134.062-.152.057" style="fill:none;stroke:#00ff4a;stroke-width:.999997;stroke-linecap:round;stroke-linejoin:round;stroke-miterlimit:4;stroke-dasharray:none;stroke-opacity:1;visibility:visible"/><path d="m384.276 171.312-.033-3.386" style="fill:none;stroke:#00ff4a;stroke-width:1.99999;stroke-linecap:round;stroke-linejoin:round;stroke-miterlimit:4;stroke-dasharray:none;stroke-opacity:1;visibility:visible"/><path d="m450.978 377.362.06.157.045.158.024.157.005.15M450.239 376.586l.125.064.124.084.116.101.11.115.1.128.089.137.075.146" style="fill:none;stroke:#00ff4a;stroke-width:.999997;stroke-linecap:round;stroke-linejoin:round;stroke-miterlimit:4;stroke-dasharray:none;stroke-opacity:1;visibility:visible"/><path d="m451.112 377.983-.012.123-.028.113-.042.102-.054.089-.066.077-.08.063M461.664 166.457l5.039 1.448M450.728 378.613l.103-.066M449.506 376.655l.102-.064M450.728 378.613l-.105.05-.115.027-.124.004-.13-.021-.131-.043-.135-.067-.13-.086-.124-.107-.116-.12-.106-.136-.09-.147-.075-.153-.06-.157-.04-.16-.02-.153-.001-.151.02-.137.037-.126.059-.112.074-.09.09-.075M449.61 376.591l.088-.044.1-.026.104-.011.108.008.116.025.114.044" style="fill:none;stroke:#00ff4a;stroke-width:.999997;stroke-linecap:round;stroke-linejoin:round;stroke-miterlimit:4;stroke-dasharray:none;stroke-opacity:1;visibility:visible"/><path d="m452.176 170.41 9.488-3.953" style="fill:none;stroke:#00ff4a;stroke-width:1.99999;stroke-linecap:round;stroke-linejoin:round;stroke-miterlimit:4;stroke-dasharray:none;stroke-opacity:1;visibility:visible"/><path d="m447.78 404.455-.073-.372M447.779 404.455l3.77 1.74M451.55 406.195l.684-.027M460.802 400.54l-8.568 5.628M466.703 167.905 460.8 400.54" style="fill:none;stroke:#00ff4a;stroke-width:.999997;stroke-linecap:round;stroke-linejoin:round;stroke-miterlimit:4;stroke-dasharray:none;stroke-opacity:1;visibility:visible"/><path d="m447.707 404.083 4.47-233.673" style="fill:none;stroke:#00ff4a;stroke-width:1.99999;stroke-linecap:round;stroke-linejoin:round;stroke-miterlimit:4;stroke-dasharray:none;stroke-opacity:1;visibility:visible"/><path d="m387.92 349.149.107.061.103.08.1.092.093.104.085.114.076.125.066.128M388.687 350.515l-.016.115-.028.104-.04.096-.055.08-.064.068-.074.052M388.55 349.853l.054.134.042.136.028.134.013.132v.126M386.634 184.53l.113-.046M385.75 182.329l.113-.045M386.634 184.53l-.118.034-.125.006-.128-.016-.132-.044-.13-.066-.126-.09-.117-.109-.11-.13-.097-.141-.081-.158-.067-.164-.048-.17-.03-.17-.009-.168.009-.162.026-.152.049-.137.066-.123.081-.1.096-.082.107-.058M385.862 182.284l.101-.03.108-.012.11.008.115.028.111.044.112.064M386.519 182.386l.123.091.113.11.105.13.094.141.078.154M387.15 183.956l-.036.122-.05.112-.064.098-.076.081-.084.067-.094.048M387.032 183.01l.062.158.045.162.03.163.011.16-.006.156-.024.147M454.087 205.888l.112-.051M453.07 203.621l.112-.05M454.087 205.888l-.13.042-.134.016-.144-.01-.145-.036-.144-.062-.14-.086-.131-.108-.121-.128-.11-.146-.094-.16-.075-.169-.057-.176-.038-.177-.014-.178.005-.172.03-.161.046-.15.071-.132.086-.114.103-.09.117-.071M453.182 203.57l.108-.038.12-.019h.12l.126.021.124.04.123.059M453.903 203.634l.123.08.116.096.108.111.1.127.088.136.074.145M454.63 205.252l-.038.132-.052.12-.066.108-.082.092-.09.074-.102.058M454.512 204.329l.06.153.046.158.029.158.01.156-.007.152-.02.146M395.654 370.269l-.008-.079M395.266 369.54l-.3-.136M393.988 372.365l-.298-.136M394.54 372.31l-.068.05M394.54 372.311v-.145M394.87 372.12l-.069.048M394.871 372.12l.119-.108.113-.123.107-.139.1-.149.089-.159.077-.166.067-.174.052-.173.036-.172.024-.17.007-.162-.008-.155M393.988 372.365l.087.03.095.015h.097l.1-.017.105-.033M394.636 372.093l-.016.013-.016.014-.016.01-.014.011-.016.014-.018.011M394.803 372.169l-.165-.075M395.646 370.193l-.022-.133-.032-.121-.044-.109-.056-.095-.066-.082-.076-.064-.084-.05M388.306 351.091l.104-.058M387.234 349.174l.104-.059M388.306 351.091l-.099.04-.107.019-.114-.004-.119-.027-.123-.049-.121-.068-.119-.092-.11-.105-.104-.122-.092-.133-.082-.144-.064-.15-.05-.15-.032-.152-.015-.148.003-.14.022-.13.04-.116.056-.1.072-.083.086-.063" style="fill:none;stroke:#00ff4a;stroke-width:.999997;stroke-linecap:round;stroke-linejoin:round;stroke-miterlimit:4;stroke-dasharray:none;stroke-opacity:1;visibility:visible"/><path d="m387.338 349.115.084-.035.092-.02.096-.003.1.013.104.03.108.05" style="fill:none;stroke:#00ff4a;stroke-width:.999997;stroke-linecap:round;stroke-linejoin:round;stroke-miterlimit:4;stroke-dasharray:none;stroke-opacity:1;visibility:visible"/><path d="m316.72 413.754-27.967 16.334M331.17 405.314l-10.565 6.17M346.206 396.531l-11.063 6.46M353.258 392.412l-2.988 1.743M361.863 387.385l-4.82 2.815M367.926 383.843l-1.898 1.108M378.184 377.851l-6.386 3.73M298.871 445.935l-.39-.199M288.431 430.322l-.024.404M288.753 430.088l-.323.235M288.98 440.514l9.5 5.221M288.409 430.727l.571 9.788" style="fill:none;stroke:#00ff4a;stroke-width:1.99999;stroke-linecap:round;stroke-linejoin:round;stroke-miterlimit:4;stroke-dasharray:none;stroke-opacity:1;visibility:visible"/><path d="m322.3 431.348-.384-9.148M322.667 431.548l-.367-.2" style="fill:none;stroke:#00ff4a;stroke-width:.999997;stroke-linecap:round;stroke-linejoin:round;stroke-miterlimit:4;stroke-dasharray:none;stroke-opacity:1;visibility:visible"/><path d="m331.807 422.594-5.68-2.936M347.212 430.562l-11.308-5.848M362.992 438.723l-11.656-6.028M377.044 445.991l-9.898-5.12" style="fill:none;stroke:#00ff4a;stroke-width:1.99999;stroke-linecap:round;stroke-linejoin:round;stroke-miterlimit:4;stroke-dasharray:none;stroke-opacity:1;visibility:visible"/><path d="m358.624 409.447-.213-8.943M358.964 409.652l-.34-.205M377.044 445.991l.616.333M321.917 422.2l.688-.446M326.129 419.66l-3.526 2.093" style="fill:none;stroke:#00ff4a;stroke-width:.999997;stroke-linecap:round;stroke-linejoin:round;stroke-miterlimit:4;stroke-dasharray:none;stroke-opacity:1;visibility:visible"/><path d="m378.582 405.991-6.418-3.121M399.234 416.036l-11.731-5.705M412.966 422.714l-9.759-4.747" style="fill:none;stroke:#00ff4a;stroke-width:1.99999;stroke-linecap:round;stroke-linejoin:round;stroke-miterlimit:4;stroke-dasharray:none;stroke-opacity:1;visibility:visible"/><path d="m371.663 404.42.133-.093.116-.095.095-.102.075-.108.054-.11.032-.114.01-.114M402.715 419.564l.127-.089.108-.095.091-.104.075-.106.049-.11.032-.114.01-.114M362.103 398.275l-3.021 1.796M368.252 400.967l-1.92-.935M419.51 384.465l28.326 12.917M403.111 376.986l12.315 5.614M393.559 386.529l-.31-.211M393.528 381.765l5.548-3.31M393.528 381.765l-.305.582M393.25 386.318l-.028-3.972M469.456 386.774l-1.7-.75M468.136 372.706l13.808 5.964M412.966 422.714l.584.326M358.411 400.504l.672-.434" style="fill:none;stroke:#00ff4a;stroke-width:.999997;stroke-linecap:round;stroke-linejoin:round;stroke-miterlimit:4;stroke-dasharray:none;stroke-opacity:1;visibility:visible"/><path d="m399.119 389.122-5.56-2.594M415.375 396.703l-12.233-5.705M437.932 407.223l-18.501-8.63" style="fill:none;stroke:#00ff4a;stroke-width:1.99999;stroke-linecap:round;stroke-linejoin:round;stroke-miterlimit:4;stroke-dasharray:none;stroke-opacity:1;visibility:visible"/><path d="m464.378 401.831-3.568-1.62M467.361 399.86l-2.981 1.971" style="fill:none;stroke:#00ff4a;stroke-width:.999997;stroke-linecap:round;stroke-linejoin:round;stroke-miterlimit:4;stroke-dasharray:none;stroke-opacity:1;visibility:visible"/><path d="m405.41 135.345-3.376 1.227M496.95 392.954l-2.925-1.28M500.123 390.844l.456-10.343M497.341 392.722l2.782-1.876M500.22 379.94l-31.903-13.634M467.361 399.86l6.627-232.435M473.987 167.425l-12.437-3.552M461.55 163.873l.3-12.93M461.85 150.942l-56.44-15.596M402.034 137.293l-.002-.721" style="fill:none;stroke:#00ff4a;stroke-width:1.99999;stroke-linecap:round;stroke-linejoin:round;stroke-miterlimit:4;stroke-dasharray:none;stroke-opacity:1;visibility:visible"/><path d="m497.341 392.722-.39.233" style="fill:none;stroke:#00ff4a;stroke-width:.999997;stroke-linecap:round;stroke-linejoin:round;stroke-miterlimit:4;stroke-dasharray:none;stroke-opacity:1;visibility:visible"/><path d="m500.579 380.502-.099-.345M500.48 380.157l-.26-.217" style="fill:none;stroke:#00ff4a;stroke-width:1.99999;stroke-linecap:round;stroke-linejoin:round;stroke-miterlimit:4;stroke-dasharray:none;stroke-opacity:1;visibility:visible"/><path d="m494.977 381.998-.36-.561M484.06 377.3l.384-.24M494.977 381.998l-.385 9.292" style="fill:none;stroke:#00ff4a;stroke-width:.999997;stroke-linecap:round;stroke-linejoin:round;stroke-miterlimit:4;stroke-dasharray:none;stroke-opacity:1;visibility:visible"/><path d="m350.807 474.495-.016-.448M362.04 480.226l132.551-88.936M419.319 419.3l28.451-18.459M383.267 442.686l32.019-20.77M350.807 474.495l10.483 5.761" style="fill:none;stroke:#00ff4a;stroke-width:1.99999;stroke-linecap:round;stroke-linejoin:round;stroke-miterlimit:4;stroke-dasharray:none;stroke-opacity:1;visibility:visible"/><path d="m361.663 480.446-.373-.188M362.04 480.226l-.378.22M461.664 166.457l-1.389 3.053M457.228 171.888l3.047-2.378M384.276 171.312l4.476-5.386M386.552 183.245l2.5 18.849" style="fill:none;stroke:#00ff4a;stroke-width:.999997;stroke-linecap:round;stroke-linejoin:round;stroke-miterlimit:4;stroke-dasharray:none;stroke-opacity:1;visibility:visible"/><path d="m378.335 388.526 8.993 4.014M393.528 381.765l2.138 5.746M368.131 394.59l4.012 7.112M371.982 392.302l6.484 5.585M346.81 416.983l4.025-2.427M331.577 416.315l4.286 7.273M350.835 414.556l-4.025 2.427" style="fill:none;stroke:#00ff4a;stroke-width:1.99999;stroke-linecap:round;stroke-linejoin:round;stroke-miterlimit:4;stroke-dasharray:none;stroke-opacity:1;visibility:visible"/><path d="m335.528 413.968-3.951 2.347M350.572 405.026l-4.044 2.402M331.577 416.315l3.951-2.347M346.528 407.428l4.044-2.402M371.982 392.302l-3.851 2.288M362.1 398.174l4.144-2.464M371.798 381.581l6.537 6.945M368.131 394.59l3.851-2.288M394.707 372.446l4.359 3.76M395.666 387.511l-8.431-4.275" style="fill:none;stroke:#00ff4a;stroke-width:.999997;stroke-linecap:round;stroke-linejoin:round;stroke-miterlimit:4;stroke-dasharray:none;stroke-opacity:1;visibility:visible"/><path d="m367.146 440.871-1.599 13.311" style="fill:none;stroke:#00ff4a;stroke-width:1.99999;stroke-linecap:round;stroke-linejoin:round;stroke-miterlimit:4;stroke-dasharray:none;stroke-opacity:1;visibility:visible"/><path d="m377.044 445.991-3.582 3.057" style="fill:none;stroke:#00ff4a;stroke-width:.999997;stroke-linecap:round;stroke-linejoin:round;stroke-miterlimit:4;stroke-dasharray:none;stroke-opacity:1;visibility:visible"/><path d="m378.773 419.45 4.239 2.105M403.207 417.967l-1.599 12.82M362.391 411.317l4.209 2.089M383.012 421.555l-4.239-2.105M358.624 409.447l3.767 1.87" style="fill:none;stroke:#00ff4a;stroke-width:1.99999;stroke-linecap:round;stroke-linejoin:round;stroke-miterlimit:4;stroke-dasharray:none;stroke-opacity:1;visibility:visible"/><path d="m415.392 391.882 4.066 1.882M447.779 404.455l-5.431-.097M399.102 384.343l4.03 1.866M419.458 393.764l-4.066-1.882M403.132 386.209l-4.03-1.866M469.456 386.774l-1.564-5.514M467.756 386.024l6.144-2.134M366.418 404.424l-4.224-2.066M382.902 412.498l-4.259-2.086M368.252 400.967l-1.834 3.457M412.966 422.714l-3.336 2.87M378.643 410.412l4.259 2.086M473.9 383.89l-5.688-13.943" style="fill:none;stroke:#00ff4a;stroke-width:.999997;stroke-linecap:round;stroke-linejoin:round;stroke-miterlimit:4;stroke-dasharray:none;stroke-opacity:1;visibility:visible"/><path d="m467.361 399.86.339-11.937M383.267 442.696l-4.131 2.679" style="fill:none;stroke:#00ff4a;stroke-width:1.99999;stroke-linecap:round;stroke-linejoin:round;stroke-miterlimit:4;stroke-dasharray:none;stroke-opacity:1;visibility:visible"/><path d="m386.552 183.245 11.852-6.227M384.276 171.312l14.066-9.382M394.801 372.168l4.249.504M393.988 372.365l-6.818 4.144M387.15 183.956l15.502-6.642M386.508 183.342l15.487-5.472M387.15 183.956l-1.999-12.047M385.863 182.284l-1.385-9.819" style="fill:none;stroke:#00ff4a;stroke-width:.999997;stroke-linecap:round;stroke-linejoin:round;stroke-miterlimit:4;stroke-dasharray:none;stroke-opacity:1;visibility:visible"/><path d="m388.752 165.926-4.476 5.386M386.508 183.342l-2.265-15.416M320.605 411.484l-3.885 2.27M335.143 402.991l-3.973 2.323M316.72 413.754l3.885-2.27M350.27 394.155l-4.064 2.376M331.17 405.314l3.973-2.323M357.043 390.2l-3.785 2.212M346.206 396.531l4.064-2.376M366.028 384.951l-4.165 2.434M353.258 392.412l3.785-2.212M371.798 381.581l-3.872 2.262M361.863 387.385l4.165-2.434M387.235 383.236l-9.051-5.385M367.926 383.843l3.872-2.262M335.904 424.714l-4.097-2.12M351.336 432.695l-4.124-2.133M331.807 422.594l4.097 2.12M367.146 440.871l-4.154-2.148M347.212 430.562l4.124 2.133M362.992 438.723l4.154 2.148M382.902 412.498l-4.32-6.507M403.207 417.967l-3.973-1.931M378.643 410.412l8.86-.081" style="fill:none;stroke:#00ff4a;stroke-width:1.99999;stroke-linecap:round;stroke-linejoin:round;stroke-miterlimit:4;stroke-dasharray:none;stroke-opacity:1;visibility:visible"/><path d="m378.466 397.887-6.803 6.533M415.286 421.916l-12.571-2.352M366.418 404.424l1.834-3.457M362.194 402.358l4.138-2.326M415.426 382.6l4.084 1.865M447.779 404.455l.057-7.073M399.102 384.343l4.009-7.357M419.51 384.465l-4.084-1.865M394.707 372.446l4.369 6.009M467.892 381.26l1.564 5.514M473.9 383.89l-6.144 2.134M473.9 383.89l-5.764-11.184M467.892 381.26l14.052-2.59" style="fill:none;stroke:#00ff4a;stroke-width:.999997;stroke-linecap:round;stroke-linejoin:round;stroke-miterlimit:4;stroke-dasharray:none;stroke-opacity:1;visibility:visible"/><path d="m403.142 390.998-4.023-1.876M419.431 398.593l-4.056-1.89M399.119 389.122l4.023 1.876M447.779 404.455l-9.847 2.768M415.375 396.703l4.056 1.89M481.944 378.67l-13.627-12.364" style="fill:none;stroke:#00ff4a;stroke-width:1.99999;stroke-linecap:round;stroke-linejoin:round;stroke-miterlimit:4;stroke-dasharray:none;stroke-opacity:1;visibility:visible"/><path d="m323.426 214.437.699-.02" style="fill:none;stroke:#9500ff;stroke-width:.666665;stroke-linecap:round;stroke-linejoin:round;stroke-miterlimit:4;stroke-dasharray:.699998;stroke-dashoffset:0;stroke-opacity:1;visibility:visible"/><path d="m323.426 214.437.003.07" style="fill:none;stroke:#9500ff;stroke-width:.666665;stroke-linecap:round;stroke-linejoin:round;stroke-miterlimit:4;stroke-dasharray:.0706665;stroke-dashoffset:0;stroke-opacity:1;visibility:visible"/><path d="m324.129 214.488-.702.018" style="fill:none;stroke:#9500ff;stroke-width:.666665;stroke-linecap:round;stroke-linejoin:round;stroke-miterlimit:4;stroke-dasharray:.702665;stroke-dashoffset:0;stroke-opacity:1;visibility:visible"/><path d="M323.426 214.508v-.071" style="fill:none;stroke:#9500ff;stroke-width:.666665;stroke-linecap:round;stroke-linejoin:round;stroke-miterlimit:4;stroke-dasharray:.0706665;stroke-dashoffset:0;stroke-opacity:1;visibility:visible"/><path d="m328.549 214.3.7-.02M329.251 214.352l-.701.018" style="fill:none;stroke:#9500ff;stroke-width:.666665;stroke-linecap:round;stroke-linejoin:round;stroke-miterlimit:4;stroke-dasharray:.702665;stroke-dashoffset:0;stroke-opacity:1;visibility:visible"/><path d="M329.251 214.282v.07" style="fill:none;stroke:#9500ff;stroke-width:.666665;stroke-linecap:round;stroke-linejoin:round;stroke-miterlimit:4;stroke-dasharray:.0706665;stroke-dashoffset:0;stroke-opacity:1;visibility:visible"/><path d="m328.337 215.154-.443-.157" style="fill:none;stroke:#9500ff;stroke-width:.666665;stroke-linecap:round;stroke-linejoin:round;stroke-miterlimit:4;stroke-dasharray:.469332;stroke-dashoffset:0;stroke-opacity:1;visibility:visible"/><path d="m327.969 214.925.497.175" style="fill:none;stroke:#9500ff;stroke-width:.666665;stroke-linecap:round;stroke-linejoin:round;stroke-miterlimit:4;stroke-dasharray:.527999;stroke-dashoffset:0;stroke-opacity:1;visibility:visible"/><path d="m328.466 215.1-.13.057" style="fill:none;stroke:#9500ff;stroke-width:.666665;stroke-linecap:round;stroke-linejoin:round;stroke-miterlimit:4;stroke-dasharray:.141333;stroke-dashoffset:0;stroke-opacity:1;visibility:visible"/><path d="m326.247 215.512-.001-.27" style="fill:none;stroke:#9500ff;stroke-width:.666665;stroke-linecap:round;stroke-linejoin:round;stroke-miterlimit:4;stroke-dasharray:.269333;stroke-dashoffset:0;stroke-opacity:1;visibility:visible"/><path d="M326.258 215.512h-.01" style="fill:none;stroke:#9500ff;stroke-width:.666665;stroke-linecap:round;stroke-linejoin:round;stroke-miterlimit:4;stroke-dasharray:none;stroke-opacity:1;visibility:visible"/><path d="m324.213 215.214.497-.202" style="fill:none;stroke:#9500ff;stroke-width:.666665;stroke-linecap:round;stroke-linejoin:round;stroke-miterlimit:4;stroke-dasharray:.537332;stroke-dashoffset:0;stroke-opacity:1;visibility:visible"/><path d="m324.791 215.077-.45.183" style="fill:none;stroke:#9500ff;stroke-width:.666665;stroke-linecap:round;stroke-linejoin:round;stroke-miterlimit:4;stroke-dasharray:.485332;stroke-dashoffset:0;stroke-opacity:1;visibility:visible"/><path d="m324.342 215.26-.13-.046" style="fill:none;stroke:#9500ff;stroke-width:.666665;stroke-linecap:round;stroke-linejoin:round;stroke-miterlimit:4;stroke-dasharray:.138666;stroke-dashoffset:0;stroke-opacity:1;visibility:visible"/><path d="m327.893 214.997-.055-.02" style="fill:none;stroke:#9500ff;stroke-width:.666665;stroke-linecap:round;stroke-linejoin:round;stroke-miterlimit:4;stroke-dasharray:.0586665;stroke-dashoffset:0;stroke-opacity:1;visibility:visible"/><path d="M326.431 215.237v.27" style="fill:none;stroke:#9500ff;stroke-width:.666665;stroke-linecap:round;stroke-linejoin:round;stroke-miterlimit:4;stroke-dasharray:.270666;stroke-dashoffset:0;stroke-opacity:1;visibility:visible"/><path d="m326.431 215.508-.173.004" style="fill:none;stroke:#9500ff;stroke-width:.666665;stroke-linecap:round;stroke-linejoin:round;stroke-miterlimit:4;stroke-dasharray:.173333;stroke-dashoffset:0;stroke-opacity:1;visibility:visible"/><path d="m324.84 215.057-.05.02" style="fill:none;stroke:#9500ff;stroke-width:.666665;stroke-linecap:round;stroke-linejoin:round;stroke-miterlimit:4;stroke-dasharray:.0519999;stroke-dashoffset:0;stroke-opacity:1;visibility:visible"/><path d="m326.431 215.237.222-.013.217-.022.213-.03.207-.038.193-.044.184-.054.173-.06" style="fill:none;stroke:#9500ff;stroke-width:.666665;stroke-linecap:round;stroke-linejoin:round;stroke-miterlimit:4;stroke-dasharray:1.43733;stroke-dashoffset:0;stroke-opacity:1;visibility:visible"/><path d="m324.84 215.057.17.05.185.043.195.035.205.027.215.02.217.008.22.004" style="fill:none;stroke:#9500ff;stroke-width:.666665;stroke-linecap:round;stroke-linejoin:round;stroke-miterlimit:4;stroke-dasharray:1.42533;stroke-dashoffset:0;stroke-opacity:1;visibility:visible"/><path d="m324.129 214.488.02.084.045.08.061.081.085.077.105.07.124.069.14.061" style="fill:none;stroke:#9500ff;stroke-width:.666665;stroke-linecap:round;stroke-linejoin:round;stroke-miterlimit:4;stroke-dasharray:.815998;stroke-dashoffset:0;stroke-opacity:1;visibility:visible"/><path d="m327.969 214.925.14-.07.125-.072.104-.079.085-.08.064-.084.043-.084.019-.084" style="fill:none;stroke:#9500ff;stroke-width:.666665;stroke-linecap:round;stroke-linejoin:round;stroke-miterlimit:4;stroke-dasharray:.834665;stroke-dashoffset:0;stroke-opacity:1;visibility:visible"/><path d="m327.973 215.025-.003-.101" style="fill:none;stroke:#9500ff;stroke-width:.666665;stroke-linecap:round;stroke-linejoin:round;stroke-miterlimit:4;stroke-dasharray:.101333;stroke-dashoffset:0;stroke-opacity:1;visibility:visible"/><path d="m326.246 215.242.01.27" style="fill:none;stroke:#9500ff;stroke-width:.666665;stroke-linecap:round;stroke-linejoin:round;stroke-miterlimit:4;stroke-dasharray:.269333;stroke-dashoffset:0;stroke-opacity:1;visibility:visible"/><path d="m324.709 215.01.004.1" style="fill:none;stroke:#9500ff;stroke-width:.666665;stroke-linecap:round;stroke-linejoin:round;stroke-miterlimit:4;stroke-dasharray:.0986664;stroke-dashoffset:0;stroke-opacity:1;visibility:visible"/><path d="m327.413 182.08-.011.086-.035.086-.064.085-.086.083-.111.08-.133.076-.158.069-.174.064M326.64 182.709l-.2.061-.22.052-.23.044-.244.034-.248.025-.256.015-.255.004-.252-.007-.245-.016-.24-.027-.225-.036-.211-.044-.196-.054-.173-.062-.151-.068-.127-.076-.104-.081-.073-.084-.045-.088-.02-.09M331.923 425.76l.019.123.041.123.065.116.092.112.11.106.134.096.149.087.171.077.183.064.197.052.209.04.214.024.221.011.224-.003.222-.014.221-.03.215-.044.207-.057.193-.068.183-.08.165-.092M335.36 426.403l.147-.1.133-.11.107-.119.084-.119.06-.128.035-.125.008-.13" style="fill:none;stroke:#9500ff;stroke-width:.999997;stroke-linecap:round;stroke-linejoin:round;stroke-miterlimit:4;stroke-dasharray:none;stroke-opacity:1;visibility:visible"/><path d="m322.926 182.213.01-.09.041-.089.065-.089.093-.085.119-.082.144-.077.167-.072.182-.064.206-.057.217-.05.231-.041.239-.032.25-.023.25-.012h.254l.246.006.243.017.234.028.22.036.209.045.188.055.17.061.151.068.122.075.1.08.073.084.045.085.016.09" style="fill:none;stroke:#9500ff;stroke-width:.999997;stroke-linecap:round;stroke-linejoin:round;stroke-miterlimit:4;stroke-dasharray:none;stroke-opacity:1;visibility:visible"/><path d="m335.932 425.572-7.231-206.692M328.533 214.082l-1.123-32.002M331.923 425.76l-7.701-208.484M324.109 214.198l-1.183-31.985M327.973 215.025l.728 3.855M324.713 215.11l-.491 2.166" style="fill:none;stroke:#9500ff;stroke-width:1.6;stroke-linecap:round;stroke-linejoin:round;stroke-miterlimit:4;stroke-dasharray:none;stroke-opacity:1;visibility:visible"/><path d="m343.818 188.39-.204.063-.22.053-.235.046-.247.034-.252.027-.26.013-.26.004-.258-.008-.254-.016-.242-.028-.232-.038-.216-.047-.199-.057-.177-.066-.156-.07-.13-.08-.104-.083-.076-.088-.046-.092-.018-.092M347.306 433.732l.017.13.04.124.068.122.09.116.115.11.135.1.155.09.172.08.188.068.202.056.212.04.22.028.223.014.229-.003.228-.016.223-.03.217-.046.21-.055.196-.07.184-.085.166-.093M350.798 434.414l.146-.104.127-.109.105-.116.084-.121.06-.129.031-.125.009-.13" style="fill:none;stroke:#ffdf00;stroke-width:.999997;stroke-linecap:round;stroke-linejoin:round;stroke-miterlimit:4;stroke-dasharray:none;stroke-opacity:1;visibility:visible"/><path d="m340.032 187.865.011-.092.04-.092.068-.09.096-.086.12-.085.145-.078.168-.072.188-.066.206-.058.222-.05.234-.04.245-.031.25-.021.255-.011.254-.001.25.008.247.021.236.03.225.037.208.049.191.057.172.064.15.072.127.076.098.084.074.086.044.089.018.092" style="fill:none;stroke:#ffdf00;stroke-width:.999997;stroke-linecap:round;stroke-linejoin:round;stroke-miterlimit:4;stroke-dasharray:none;stroke-opacity:1;visibility:visible"/><path d="m351.36 433.582-5.746-208.096M345.463 219.94l-.888-32.182M347.306 433.732l-6.199-209.56M340.986 220.093l-.954-32.228M345.463 219.94l.151 5.546M345.614 225.486l-.151-5.546M340.986 220.093l.121 4.079M341.107 224.172l-.121-4.079" style="fill:none;stroke:#ffdf00;stroke-width:1.6;stroke-linecap:round;stroke-linejoin:round;stroke-miterlimit:4;stroke-dasharray:none;stroke-opacity:1;visibility:visible"/><path d="m358.524 192.292 1.266.417" style="fill:none;stroke:#00d4ff;stroke-width:.666665;stroke-linecap:round;stroke-linejoin:round;stroke-miterlimit:4;stroke-dasharray:none;stroke-opacity:1;visibility:visible"/><path d="m361.464 194.226-.202.064-.226.056-.236.047-.25.035-.262.026-.26.016-.268.003-.264-.008-.256-.019-.25-.029-.237-.041-.221-.05-.205-.06-.181-.068-.159-.076-.133-.081-.106-.087-.078-.092-.048-.094-.016-.096" style="fill:none;stroke:#00d4ff;stroke-width:.999997;stroke-linecap:round;stroke-linejoin:round;stroke-miterlimit:4;stroke-dasharray:none;stroke-opacity:1;visibility:visible"/><path d="m362.206 193.59-.01.087-.036.088-.06.085-.085.084-.107.079-.126.077-.15.071-.17.065M363.063 441.899l.017.133.04.131.068.125.092.122.116.113.138.105.158.095.176.084.192.07.206.059.216.043.224.03.23.015.232-.002.232-.016.228-.031.22-.047.212-.057.2-.073.184-.086.168-.096" style="fill:none;stroke:#00d4ff;stroke-width:.999997;stroke-linecap:round;stroke-linejoin:round;stroke-miterlimit:4;stroke-dasharray:none;stroke-opacity:1;visibility:visible"/><path d="m366.612 442.616.144-.102.124-.11.102-.116.082-.122.058-.126.033-.126.01-.13M357.606 193.672l.01-.095.042-.095.07-.09.096-.09.124-.085.147-.079.172-.074.19-.066.211-.058.224-.05.238-.04.246-.031.255-.021.256-.01h.259l.254.013.247.023.241.03.227.042.21.05.195.06.171.067.153.075.127.081.101.085.072.088.046.094.016.094" style="fill:none;stroke:#00d4ff;stroke-width:.999997;stroke-linecap:round;stroke-linejoin:round;stroke-miterlimit:4;stroke-dasharray:none;stroke-opacity:1;visibility:visible"/><path d="m367.164 441.784-4.208-210.652M362.86 226.289l-.653-32.699M363.063 441.899l-4.67-212.467M358.327 226.493l-.721-32.821M362.86 226.289l.096 4.843M362.956 231.132l-.096-4.843M358.327 226.493l.066 2.939M358.393 229.432l-.066-2.939" style="fill:none;stroke:#00d4ff;stroke-width:1.6;stroke-linecap:round;stroke-linejoin:round;stroke-miterlimit:4;stroke-dasharray:none;stroke-opacity:1;visibility:visible"/><path d="m380.48 203.582.683-.017" style="fill:none;stroke:#ff008a;stroke-width:.666665;stroke-linecap:round;stroke-linejoin:round;stroke-miterlimit:4;stroke-dasharray:.682665;stroke-dashoffset:0;stroke-opacity:1;visibility:visible"/><path d="m381.171 203.632-.684.018" style="fill:none;stroke:#ff008a;stroke-width:.666665;stroke-linecap:round;stroke-linejoin:round;stroke-miterlimit:4;stroke-dasharray:.683998;stroke-dashoffset:0;stroke-opacity:1;visibility:visible"/><path d="m380.487 203.65-.007-.068" style="fill:none;stroke:#ff008a;stroke-width:.666665;stroke-linecap:round;stroke-linejoin:round;stroke-miterlimit:4;stroke-dasharray:.0679998;stroke-dashoffset:0;stroke-opacity:1;visibility:visible"/><path d="m380.332 199.489.788.259" style="fill:none;stroke:#ff008a;stroke-width:.666665;stroke-linecap:round;stroke-linejoin:round;stroke-miterlimit:4;stroke-dasharray:.827998;stroke-dashoffset:0;stroke-opacity:1;visibility:visible"/><path d="m381.171 203.632.03.08.05.078.073.076.092.071.112.07.128.066.147.056" style="fill:none;stroke:#ff008a;stroke-width:.666665;stroke-linecap:round;stroke-linejoin:round;stroke-miterlimit:4;stroke-dasharray:.831998;stroke-dashoffset:0;stroke-opacity:1;visibility:visible"/><path d="M381.163 203.564v.001" style="fill:none;stroke:#ff008a;stroke-width:.666665;stroke-linecap:round;stroke-linejoin:round;stroke-miterlimit:4;stroke-dasharray:none;stroke-opacity:1;visibility:visible"/><path d="m381.163 203.565.001.067" style="fill:none;stroke:#ff008a;stroke-width:.666665;stroke-linecap:round;stroke-linejoin:round;stroke-miterlimit:4;stroke-dasharray:.0666665;stroke-dashoffset:0;stroke-opacity:1;visibility:visible"/><path d="m375.664 199.638.016.098.047.097.076.093.105.091.132.084.156.077.182.072.201.062.221.053.235.045.25.034.255.021.263.01h.267l.265-.009.26-.024.253-.032.24-.045.228-.053.211-.063.19-.07M379.719 200.178l.156-.072.137-.078.114-.083.088-.087.064-.09.038-.091.012-.092" style="fill:none;stroke:#ff008a;stroke-width:.999997;stroke-linecap:round;stroke-linejoin:round;stroke-miterlimit:4;stroke-dasharray:none;stroke-opacity:1;visibility:visible"/><path d="m378.891 200.242.11-.058.084-.064.055-.068.024-.07-.004-.072-.037-.068-.067-.065-.093-.06-.12-.053-.141-.046-.16-.036-.175-.025-.183-.016-.189-.003-.188.008-.184.019-.173.03-.16.039-.14.047-.12.059-.089.06-.067.068-.034.069-.002.07.025.071.057.066.086.062.112.056M379.204 450.122l.016.134.042.135.065.128.09.124.116.117.135.11.156.097.176.088.19.076.205.061.216.048.224.034.23.018.23.004.233-.012.232-.026.22-.042.216-.056.204-.069.19-.083.168-.093.156-.103.133-.112.11-.122.088-.128.063-.132.036-.135.012-.135" style="fill:none;stroke:#ff008a;stroke-width:.999997;stroke-linecap:round;stroke-linejoin:round;stroke-miterlimit:4;stroke-dasharray:none;stroke-opacity:1;visibility:visible"/><path d="m380.327 199.586-.016-.096-.045-.096-.074-.093-.101-.088-.127-.083-.153-.078-.176-.072-.195-.06-.213-.055-.23-.044-.244-.035-.25-.024-.259-.012-.26-.002-.26.006-.259.02-.249.03-.242.04-.228.049-.212.059-.195.066-.173.075-.15.08-.126.087-.1.092-.07.094-.042.096-.014.098" style="fill:none;stroke:#ff008a;stroke-width:.999997;stroke-linecap:round;stroke-linejoin:round;stroke-miterlimit:4;stroke-dasharray:none;stroke-opacity:1;visibility:visible"/><path d="m375.664 199.638.47 33.243M376.176 235.928l3.028 214.194M380.327 199.586l.4 33.106M380.767 235.986l2.59 214.062M376.176 235.928l-.042-3.047M376.134 232.881l.042 3.047M380.767 235.986l-.04-3.294M380.727 232.692l.04 3.294" style="fill:none;stroke:#ff008a;stroke-width:1.6;stroke-linecap:round;stroke-linejoin:round;stroke-miterlimit:4;stroke-dasharray:none;stroke-opacity:1;visibility:visible"/><path d="m351.48 161.514-.009.078-.035.074-.056.075-.08.072-.1.07-.12.067-.143.062-.157.056M350.78 162.066l-.192.056-.205.048-.221.038-.23.032-.241.02-.243.014-.245.004-.241-.006-.239-.016-.23-.026-.217-.033-.204-.044-.188-.05-.168-.056-.145-.065-.123-.069-.096-.073-.072-.08-.044-.08-.016-.083M353.36 396.355l.013.115.041.113.062.108.084.104.107.097.125.09.148.082.162.072.174.06.191.051.199.039.208.024.212.014h.214l.214-.014.21-.027.207-.037.197-.05.187-.065.173-.069.158-.083.141-.089.121-.1.102-.103.08-.11.057-.11.033-.117.01-.115" style="fill:none;stroke:#40ff00;stroke-width:.999997;stroke-linecap:round;stroke-linejoin:round;stroke-miterlimit:4;stroke-dasharray:none;stroke-opacity:1;visibility:visible"/><path d="m347.22 161.598.01-.08.04-.08.064-.081.088-.075.114-.072.138-.07.156-.062.178-.058.194-.05.208-.045.22-.035.228-.026.236-.019.238-.01h.24l.233.011.231.016.222.028.212.034.193.044.18.05.161.055.14.064.118.07.094.07.067.079.043.078.014.08" style="fill:none;stroke:#40ff00;stroke-width:.999997;stroke-linecap:round;stroke-linejoin:round;stroke-miterlimit:4;stroke-dasharray:none;stroke-opacity:1;visibility:visible"/><path d="m357.19 396.235-4.1-168.59M352.23 192.314l-.75-30.8M353.36 396.355l-4.454-170.227M348.028 192.537l-.808-30.94" style="fill:none;stroke:#40ff00;stroke-width:1.6;stroke-linecap:round;stroke-linejoin:round;stroke-miterlimit:4;stroke-dasharray:none;stroke-opacity:1;visibility:visible"/><path d="m368.1 166.645-.01.076-.032.076-.056.075-.079.073-.099.07-.118.065-.138.064-.156.056M367.412 167.2l-.182.054-.198.047-.212.04-.22.032-.233.023-.233.014-.239.007-.235-.004-.234-.013-.227-.02-.219-.03-.206-.038-.194-.046-.174-.052-.156-.06-.138-.064-.116-.071-.089-.072-.067-.079-.04-.08-.014-.082M368.306 403.774l.014.118.04.118.064.113.086.108.11.101.13.095.15.085.163.075.184.064.196.052.205.04.212.027.216.012.222-.002.218-.013.215-.027.21-.04.201-.055.188-.063.174-.076.16-.086M363.786 166.706l.013-.082.037-.084.067-.08.09-.078.117-.074.14-.07.158-.064.18-.058.196-.05.211-.046.223-.034.232-.025.238-.017.24-.008h.242l.24.012.233.018.223.03.212.036.198.045.182.053.161.06.141.065.12.071.093.075.069.08.042.081.014.083" style="fill:none;stroke:#0b00ff;stroke-width:.999997;stroke-linecap:round;stroke-linejoin:round;stroke-miterlimit:4;stroke-dasharray:none;stroke-opacity:1;visibility:visible"/><path d="m372.178 403.686-2.928-170.197M368.632 197.592l-.532-30.947M368.306 403.774l-3.278-171.905M364.383 197.981l-.596-31.275" style="fill:none;stroke:#0b00ff;stroke-width:1.6;stroke-linecap:round;stroke-linejoin:round;stroke-miterlimit:4;stroke-dasharray:none;stroke-opacity:1;visibility:visible"/><path d="m384.479 172.466-.184.056-.2.05-.213.04-.226.033-.234.025-.24.014-.242.005-.24-.004-.241-.013-.23-.023-.226-.03-.211-.041-.196-.048-.18-.054-.16-.063-.14-.068-.116-.073-.093-.076-.067-.082-.04-.082-.017-.084M383.596 411.224l.015.123.039.121.064.118.088.112.11.105.135.099.152.088.17.078.185.068.198.055.208.04.22.029.222.015h.222l.223-.015.22-.028.213-.04.202-.055.19-.067.175-.078.16-.088M387.007 411.903l.132-.09.112-.094.093-.104.074-.107.052-.112.031-.113.012-.113M380.784 171.948l.012-.084.04-.086.068-.082.092-.08.12-.076.139-.071.165-.065.18-.058.2-.05.214-.043.225-.035.235-.026.241-.016.245-.007.244.003.242.012.234.021.228.03.215.039.199.049.184.055.164.062.142.068.119.074.095.078.069.08.043.085.012.085" style="fill:none;stroke:#f50;stroke-width:.999997;stroke-linecap:round;stroke-linejoin:round;stroke-miterlimit:4;stroke-dasharray:none;stroke-opacity:1;visibility:visible"/><path d="m387.512 411.17-1.75-177.421M385.46 203.181l-.308-31.27M381.155 203.441l-.37-31.493" style="fill:none;stroke:#f50;stroke-width:1.6;stroke-linecap:round;stroke-linejoin:round;stroke-miterlimit:4;stroke-dasharray:none;stroke-opacity:1;visibility:visible"/><path d="m401.994 177.87-.186.06-.202.049-.218.043-.228.034-.24.024-.242.014-.248.006-.247-.006-.243-.014-.238-.024-.228-.032-.216-.044-.202-.049-.184-.059-.164-.063-.141-.07-.121-.078-.096-.079-.066-.084-.042-.086-.015-.087M399.246 418.848l.013.127.039.125.066.122.088.117.114.111.137.098.155.096.172.08.191.071.201.057.216.044.221.031.225.015.228.001.228-.013.223-.03.215-.04.206-.057.192-.068.178-.08.161-.09" style="fill:none;stroke:#00ffa0;stroke-width:.999997;stroke-linecap:round;stroke-linejoin:round;stroke-miterlimit:4;stroke-dasharray:none;stroke-opacity:1;visibility:visible"/><path d="m398.226 177.326.014-.088.04-.085.07-.085.094-.08.122-.079.141-.07.165-.068.186-.057.201-.052.217-.042.228-.034.239-.025.245-.016.247-.005.248.005.244.013.239.023.23.033.216.042.203.05.187.058.164.065.144.07.12.078.096.08.068.084.044.087.012.086" style="fill:none;stroke:#00ffa0;stroke-width:.999997;stroke-linecap:round;stroke-linejoin:round;stroke-miterlimit:4;stroke-dasharray:none;stroke-opacity:1;visibility:visible"/><path d="m403.207 418.832-.443-192.734M402.726 209.074l-.076-31.76M399.246 418.848l-.806-190.824M398.362 208.949l-.135-31.624M402.726 209.074l.038 17.024M402.764 226.098l-.038-17.024M398.362 208.949l.078 19.075M402.764 226.098l-4.402-17.149" style="fill:none;stroke:#00ffa0;stroke-width:1.6;stroke-linecap:round;stroke-linejoin:round;stroke-miterlimit:4;stroke-dasharray:none;stroke-opacity:1;visibility:visible"/><path d="m420.619 182.864-.015.088-.041.088-.068.085-.093.08-.119.079-.141.072-.164.064M419.976 183.421l-.188.06-.204.052-.22.044-.233.035-.241.024-.25.014-.252.004-.253-.004-.248-.016-.243-.024-.234-.036-.22-.044-.207-.053-.19-.06-.166-.07-.148-.07-.121-.081-.098-.084-.069-.087-.043-.088-.013-.092M415.268 426.515l.012.127.038.124.062.122.084.118.11.112.128.104.15.094.168.086.182.074.197.064.207.05.216.037.221.021.224.008.225-.006.222-.02.216-.034.208-.046.198-.06.184-.072.166-.084.152-.094.129-.102.11-.11.085-.118.065-.122.036-.124.015-.126M416.136 182.845l.015-.09.043-.086.069-.089.096-.082.123-.077.145-.073.17-.066.186-.06.205-.05.222-.044.232-.034.242-.024.246-.013.252-.004.25.005.248.016.24.027.234.035.22.044.202.053.19.06.166.068.146.073.12.08.098.083.067.087.044.089.012.09" style="fill:none;stroke:#ea00ff;stroke-width:.999997;stroke-linecap:round;stroke-linejoin:round;stroke-miterlimit:4;stroke-dasharray:none;stroke-opacity:1;visibility:visible"/><path d="m419.278 426.54 1.146-208.39M420.442 215.052l.177-32.19M415.268 426.515l.734-206.285M416.022 214.825l.114-31.98M420.442 215.052l-.018 3.098M420.424 218.15l.018-3.098M416.022 214.825l-.02 5.405M416.002 220.23l.02-5.405" style="fill:none;stroke:#ea00ff;stroke-width:1.6;stroke-linecap:round;stroke-linejoin:round;stroke-miterlimit:4;stroke-dasharray:none;stroke-opacity:1;visibility:visible"/><path d="m380.727 232.692 8.573-.542" style="fill:none;stroke:#00ff4a;stroke-width:.999997;stroke-linecap:round;stroke-linejoin:round;stroke-miterlimit:4;stroke-dasharray:none;stroke-opacity:1;visibility:visible"/><path d="m358.327 226.493-5.237 1.152M357.606 193.672l-5.376-1.358M345.614 225.486l3.292.642M344.575 187.758l3.453 4.779" style="fill:none;stroke:#40ff00;stroke-width:1.6;stroke-linecap:round;stroke-linejoin:round;stroke-miterlimit:4;stroke-dasharray:none;stroke-opacity:1;visibility:visible"/><path d="m362.956 231.132 6.294 2.357M375.664 199.638l-7.032-2.046M362.956 231.132l2.072.737M362.207 193.59l2.176 4.391" style="fill:none;stroke:#0b00ff;stroke-width:1.6;stroke-linecap:round;stroke-linejoin:round;stroke-miterlimit:4;stroke-dasharray:none;stroke-opacity:1;visibility:visible"/><path d="m380.727 232.692 5.035 1.057M381.163 203.564l4.297-.383" style="fill:none;stroke:#f50;stroke-width:1.6;stroke-linecap:round;stroke-linejoin:round;stroke-miterlimit:4;stroke-dasharray:none;stroke-opacity:1;visibility:visible"/></svg>