<svg xmlns="http://www.w3.org/2000/svg" baseProfile="full" height="1122.52" preserveAspectRatio="xMinYMin meet" style="width:738px;height:965px" width="793.701" xml:space="preserve"><path d="m588.447 254.456.053-.027M588.501 254.482l-.054-.026" style="fill:none;stroke:red;stroke-width:.999997;stroke-linecap:round;stroke-linejoin:round;stroke-miterlimit:4;stroke-dasharray:none;stroke-opacity:1;visibility:visible"/><path d="m626.302 245.209-.012-.36v-.213M626.29 244.637l-.16-.147-.266-.253" style="fill:none;stroke:red;stroke-width:.666665;stroke-linecap:round;stroke-linejoin:round;stroke-miterlimit:4;stroke-dasharray:none;stroke-opacity:1;visibility:visible"/><path d="m471.155 475.802.532 9.84M461.235 470.028l9.545 5.16M670.274 422.295l-.666.027M669.433 432.895l-.265-.213M673.061 420.442l-2.787 1.853M669.608 422.322l-2.454-1.054-26.454-11.386M669.168 432.682l.44-10.36M629.66 214.162l-4.947 231.946" style="fill:none;stroke:red;stroke-width:.999997;stroke-linecap:round;stroke-linejoin:round;stroke-miterlimit:4;stroke-dasharray:none;stroke-opacity:1;visibility:visible"/><path d="m560.639 431.982 7.516-4.527M545.39 441.186l4.55-2.743M509.136 463.051l8.748-5.275M471.688 485.642l23.468-14.16" style="fill:none;stroke:red;stroke-width:1.99999;stroke-linecap:round;stroke-linejoin:round;stroke-miterlimit:4;stroke-dasharray:none;stroke-opacity:1;visibility:visible"/><path d="m504.061 456.255-5.508 3.267-27.398 16.28M519.007 447.362l-10.987 6.546h-.013M534.581 438.108l-11.52 6.854M550.821 428.468l-6.361 3.774M571.553 416.148l-11.838 7.027" style="fill:none;stroke:red;stroke-width:.999997;stroke-linecap:round;stroke-linejoin:round;stroke-miterlimit:4;stroke-dasharray:none;stroke-opacity:1;visibility:visible"/><path d="m461.235 470.028-.348.64" style="fill:none;stroke:red;stroke-width:1.99999;stroke-linecap:round;stroke-linejoin:round;stroke-miterlimit:4;stroke-dasharray:none;stroke-opacity:1;visibility:visible"/><path d="m470.78 475.188.375.614" style="fill:none;stroke:red;stroke-width:.999997;stroke-linecap:round;stroke-linejoin:round;stroke-miterlimit:4;stroke-dasharray:none;stroke-opacity:1;visibility:visible"/><path d="m556.635 195.429.065 6.467M471.688 485.642l-.333.226M470.968 485.668l.72-.026" style="fill:none;stroke:red;stroke-width:1.99999;stroke-linecap:round;stroke-linejoin:round;stroke-miterlimit:4;stroke-dasharray:none;stroke-opacity:1;visibility:visible"/><path d="m561.795 272.642 1.198 145.013M561.34 218.242l.015 2.468M534.673 442.295l-3.786-1.853M551.128 450.348l-12.227-5.986M582.113 465.522l-26.732-13.08M591.941 433.708l22.893 10.587M575.621 426.148l12.252 5.667M566.007 421.695l5.573 2.587M640.38 421.202l6 2.626M545.941 488.988l-51.546-26.853M643.181 208.749l-.773.533M574.515 176.509l.053.72M643.181 208.749l-6.32 233.026M642.766 208.629l.415.12M646.473 207.362l-3.293 1.388M574.515 176.509l55.953 15.556M574.568 177.229v2.947M642.408 209.282l-.708-.2" style="fill:none;stroke:red;stroke-width:.999997;stroke-linecap:round;stroke-linejoin:round;stroke-miterlimit:4;stroke-dasharray:none;stroke-opacity:1;visibility:visible"/><path d="m633.345 196.096.081.053.04.067.011.066-.012.054-.039.066-.068.054-.106.053-.107.053-.147.04-.146.028-.174.026-.186.013-.186.013h-.188l-.186-.012-.172-.028-.175-.026-.159-.04-.134-.04-.12-.054-.094-.052-.066-.068-.039-.052-.015-.068.015-.066.039-.054" style="fill:none;stroke:red;stroke-width:.666665;stroke-linecap:round;stroke-linejoin:round;stroke-miterlimit:4;stroke-dasharray:none;stroke-opacity:1;visibility:visible"/><path d="m528.061 257.109.427-.4" style="fill:none;stroke:red;stroke-width:.999997;stroke-linecap:round;stroke-linejoin:round;stroke-miterlimit:4;stroke-dasharray:none;stroke-opacity:1;visibility:visible"/><path d="m515.873 238.949-.4.733" style="fill:none;stroke:red;stroke-width:1.99999;stroke-linecap:round;stroke-linejoin:round;stroke-miterlimit:4;stroke-dasharray:none;stroke-opacity:1;visibility:visible"/><path d="m596.207 180.349 7.813-2.933M523.367 503.655l10.52 5.693" style="fill:none;stroke:red;stroke-width:.999997;stroke-linecap:round;stroke-linejoin:round;stroke-miterlimit:4;stroke-dasharray:none;stroke-opacity:1;visibility:visible"/><path d="m523.007 504.322.268 9.666M587.767 461.868l-2.107 1.36-3.145 2.04-.322.214-25.342 16.446M620.248 440.788l-5.414 3.507M614.154 444.735l-3.734 2.427-17.703 11.502" style="fill:none;stroke:red;stroke-width:1.99999;stroke-linecap:round;stroke-linejoin:round;stroke-miterlimit:4;stroke-dasharray:none;stroke-opacity:1;visibility:visible"/><path d="m533.767 520.202.76-.04M522.98 503.882l.027.44M533.887 509.348l.401.654M523.355 503.655l-.348.667M523.355 503.655l-.375.227M667.461 421.935l-133.173 88.067M534.288 510.002l.24 10.16M599.528 255.615l.012-.68" style="fill:none;stroke:red;stroke-width:.999997;stroke-linecap:round;stroke-linejoin:round;stroke-miterlimit:4;stroke-dasharray:none;stroke-opacity:1;visibility:visible"/><path d="m626.993 244.269.068.147.039.16.028.16.012.16v.146l-.026.148M626.568 245.829l.08-.04.04-.013M625.554 243.562l.106-.052M626.568 245.829l-.12.04-.148.013-.132-.012-.148-.028-.147-.066-.132-.08-.133-.12-.12-.12-.12-.147-.094-.16-.068-.173-.065-.174-.027-.172-.026-.188.012-.16.028-.172.052-.148.068-.132.078-.108.107-.092.121-.068M625.66 243.509l.12-.04.108-.013h.12l.132.013.12.04.12.067M626.38 243.576l.134.08.107.093.107.107.106.133.092.133.067.148" style="fill:none;stroke:red;stroke-width:.666665;stroke-linecap:round;stroke-linejoin:round;stroke-miterlimit:4;stroke-dasharray:none;stroke-opacity:1;visibility:visible"/><path d="m627.114 245.189-.04.133-.053.12-.067.108-.08.092-.094.08-.092.054" style="fill:none;stroke:red;stroke-width:.666665;stroke-linecap:round;stroke-linejoin:round;stroke-miterlimit:4;stroke-dasharray:none;stroke-opacity:1;visibility:visible"/><path d="m620.26 444.388-.067-.36M620.26 444.388l3.773 1.747M624.033 446.135l.68-.027M633.288 440.482l-8.575 5.626M639.128 210.162 633.3 440.068v.08l-.012.334" style="fill:none;stroke:red;stroke-width:.999997;stroke-linecap:round;stroke-linejoin:round;stroke-miterlimit:4;stroke-dasharray:none;stroke-opacity:1;visibility:visible"/><path d="m669.433 432.895-2.932-1.28M672.608 430.788l.452-10.346M669.821 432.655l2.787-1.867M672.7 419.882h-.014l-31.88-13.64M620.194 444.028l.067-3.24.067-3.466 4.212-220.986" style="fill:none;stroke:red;stroke-width:1.99999;stroke-linecap:round;stroke-linejoin:round;stroke-miterlimit:4;stroke-dasharray:none;stroke-opacity:1;visibility:visible"/><path d="m669.821 432.655-.388.24" style="fill:none;stroke:red;stroke-width:.999997;stroke-linecap:round;stroke-linejoin:round;stroke-miterlimit:4;stroke-dasharray:none;stroke-opacity:1;visibility:visible"/><path d="m488.63 454.034-27.396 15.996M503.193 445.522l-9.638 5.641h-.012M518.132 436.792l-9.944 5.819h-.012M525.416 432.54l-1.753 1.025M533.599 427.756l-3.351 1.96M549.699 418.351l-4.947 2.899M673.061 420.442l-.093-.347M672.968 420.095l-.268-.213" style="fill:none;stroke:red;stroke-width:1.99999;stroke-linecap:round;stroke-linejoin:round;stroke-miterlimit:4;stroke-dasharray:none;stroke-opacity:1;visibility:visible"/><path d="m489.381 457.775.014.12.052.12.068.107.08.12.12.093.133.093.145.08.175.08.185.054.187.053.213.04.214.013.226.014h.215l.225-.027.215-.027.213-.053.2-.053.2-.067.172-.08.174-.093.133-.107.135-.107.093-.106.079-.12.066-.12.027-.12.013-.134M525.848 436.295l.013.107.04.12.054.106.093.107.107.093.12.094.145.08.161.066.186.067.188.053.2.04.2.027h.638l.215-.027.213-.04.187-.053.187-.067.173-.066.16-.08.147-.094.12-.093.105-.107.081-.106.054-.12.025-.107.013-.12" style="fill:none;stroke:red;stroke-width:.999997;stroke-linecap:round;stroke-linejoin:round;stroke-miterlimit:4;stroke-dasharray:none;stroke-opacity:1;visibility:visible"/><path d="m471.355 485.868-.387-.2M460.915 470.255l-.028.413M461.235 470.028l-.32.227M461.462 480.455l9.506 5.213M460.887 470.668l.575 9.787M531.473 449.602l-7.138 4.31" style="fill:none;stroke:red;stroke-width:1.99999;stroke-linecap:round;stroke-linejoin:round;stroke-miterlimit:4;stroke-dasharray:none;stroke-opacity:1;visibility:visible"/><path d="m636.861 441.775-.371-.173-3.189-1.454h-.013M570.848 206.149l-.038-8.107M570.799 195.232l-.02-3.895M562.993 417.655l-.653.027M562.993 417.655l8.534-5.04h.013M562.34 417.682l-2.693-1.24" style="fill:none;stroke:red;stroke-width:.999997;stroke-linecap:round;stroke-linejoin:round;stroke-miterlimit:4;stroke-dasharray:none;stroke-opacity:1;visibility:visible"/><path d="m630.312 189.773-33.745-9.33-.36-.095-18.32-5.066" style="fill:none;stroke:red;stroke-width:1.99999;stroke-linecap:round;stroke-linejoin:round;stroke-miterlimit:4;stroke-dasharray:none;stroke-opacity:1;visibility:visible"/><path d="m646.473 207.362-.427-.12" style="fill:none;stroke:red;stroke-width:.999997;stroke-linecap:round;stroke-linejoin:round;stroke-miterlimit:4;stroke-dasharray:none;stroke-opacity:1;visibility:visible"/><path d="m639.848 439.802.012-.427.334-11.52.054-1.893v-.094l.106-3.973.026-.693.24-8.56.081-2.76.012-.694.095-2.946 5.666-198.88" style="fill:none;stroke:red;stroke-width:1.99999;stroke-linecap:round;stroke-linejoin:round;stroke-miterlimit:4;stroke-dasharray:none;stroke-opacity:1;visibility:visible"/><path d="m494.78 471.282-.385-9.147M495.155 471.482l-.375-.2" style="fill:none;stroke:red;stroke-width:.999997;stroke-linecap:round;stroke-linejoin:round;stroke-miterlimit:4;stroke-dasharray:none;stroke-opacity:1;visibility:visible"/><path d="m504.059 462.418-5.222-2.696M518.315 469.78l-9.24-4.772M535.473 478.668l-11.652-6.04M549.528 485.935l-8.945-4.63M538.021 494.122l-42.84-22.627-.025-.013" style="fill:none;stroke:red;stroke-width:1.99999;stroke-linecap:round;stroke-linejoin:round;stroke-miterlimit:4;stroke-dasharray:none;stroke-opacity:1;visibility:visible"/><path d="m566.048 426.468-.32-.213M566.007 421.695l5.546-3.307M566.007 421.695l-.307.587M565.728 426.255l-.028-3.973M641.941 426.708l-1.695-.746h-.012M640.621 412.642l13.8 5.973M549.528 485.935l.613.32M519.795 473.668l.013.134.04.12.067.12.092.12.106.106.15.107.145.093.173.08.186.067.201.053.213.04.227.027.227.013h.225l.228-.013.227-.04.213-.04.213-.053.189-.08.183-.08.162-.094M523.275 474.348l.158-.093.12-.12.107-.107.081-.133.066-.12.028-.133.013-.12M504.408 465.695l.013.133.054.12.053.107.093.12.107.107.133.093.16.093.174.067.173.067.2.053.212.04.213.027.215.013.227-.013.225-.014.215-.026.213-.04.213-.067.2-.067.172-.08.175-.08M507.848 466.348l.145-.106.135-.107.107-.12.08-.12.053-.133.04-.12.013-.134M535.54 481.842l.028.133.04.12.065.133.094.12.106.12.147.094.16.093.173.093.187.067.213.053.214.054.226.026.227.014h.227l.24-.014.226-.04.214-.04.213-.066.2-.067.188-.08.172-.093" style="fill:none;stroke:red;stroke-width:.999997;stroke-linecap:round;stroke-linejoin:round;stroke-miterlimit:4;stroke-dasharray:none;stroke-opacity:1;visibility:visible"/><path d="m539.1 482.562.135-.107.132-.107.106-.12.067-.12.068-.133.025-.12.014-.133" style="fill:none;stroke:red;stroke-width:.999997;stroke-linecap:round;stroke-linejoin:round;stroke-miterlimit:4;stroke-dasharray:none;stroke-opacity:1;visibility:visible"/><path d="m593.35 425.02 26.965 12.303M576.803 417.472l9.884 4.504" style="fill:none;stroke:red;stroke-width:.666665;stroke-linecap:round;stroke-linejoin:round;stroke-miterlimit:4;stroke-dasharray:none;stroke-opacity:1;visibility:visible"/><path d="m570.448 428.514-2.268-1.059h-.025l-2.107-.987M586.89 436.19l-10.179-4.746M610.42 447.162l-17.35-8.087" style="fill:none;stroke:red;stroke-width:1.99999;stroke-linecap:round;stroke-linejoin:round;stroke-miterlimit:4;stroke-dasharray:none;stroke-opacity:1;visibility:visible"/><path d="m531.1 449.388-.213-8.946M531.447 449.588l-.347-.2" style="fill:none;stroke:red;stroke-width:.999997;stroke-linecap:round;stroke-linejoin:round;stroke-miterlimit:4;stroke-dasharray:none;stroke-opacity:1;visibility:visible"/><path d="m550.288 445.559-4.915-2.401M570.568 455.418l-10.588-5.148M585.447 462.655l-8.877-4.317M533.741 450.732l-2.266-1.129-.028-.013M549.99 458.806 540.317 454M574.061 470.748l-17.3-8.586" style="fill:none;stroke:red;stroke-width:1.99999;stroke-linecap:round;stroke-linejoin:round;stroke-miterlimit:4;stroke-dasharray:none;stroke-opacity:1;visibility:visible"/><path d="m544.14 444.362.135-.094.118-.093.095-.107.079-.106.053-.107.027-.12.013-.107M571.728 458.788l.012.12.04.134.068.12.092.12.108.106.132.107.16.093.175.08.185.067.215.053.213.054.212.026.228.014h.227l.225-.014.228-.026.212-.04.213-.054.188-.08.172-.08.162-.08M575.195 459.508l.133-.093.107-.093.093-.107.068-.107.052-.106.04-.12v-.107M559.488 451.842l.132-.094.12-.093.095-.107.065-.106.055-.107.025-.107.013-.12" style="fill:none;stroke:red;stroke-width:.999997;stroke-linecap:round;stroke-linejoin:round;stroke-miterlimit:4;stroke-dasharray:none;stroke-opacity:1;visibility:visible"/><path d="m540.795 443.708.013.12.04.12.067.107.078.12.107.093.135.094.145.093.173.067.175.066.201.054.199.04.212.026.228.014h.212l.213-.014.227-.026.201-.04.2-.054.187-.066.185-.08.148-.08M525.075 195.602l.36-.652M525.075 195.602l.265 11.16M585.447 462.655l.586.32M556.075 451.162l.025.12.041.12.054.12.093.12.107.093.133.107.16.08.16.08.187.066.2.054.212.053.213.027.227.013h.226l.214-.013.226-.027.215-.04.2-.067.188-.066.17-.067.164-.093M525.34 206.762l.161.108.24.146.359.226M484.381 222.122l.172.108.254.159.386.227" style="fill:none;stroke:red;stroke-width:.999997;stroke-linecap:round;stroke-linejoin:round;stroke-miterlimit:4;stroke-dasharray:none;stroke-opacity:1;visibility:visible"/><path d="m515.461 239.362.414-.412M515.835 252.282l.013.32M515.848 252.602l.427.388" style="fill:none;stroke:red;stroke-width:1.99999;stroke-linecap:round;stroke-linejoin:round;stroke-miterlimit:4;stroke-dasharray:none;stroke-opacity:1;visibility:visible"/><path d="m523.848 473.522-.027-.894-.494-18.106v-.027l-.267-9.533-.025-.787-.28-10.08L518.1 265.43M513.488 260.522v-.067l-.815-27.105-.04-1.561M519.795 473.668l-.095-3.173-.399-13.547v-.026l-.28-9.56-.028-.787-.305-10.107-5.107-172.666M535.355 266.575v-.065l-.255-12.375M539.647 481.722l-.014-.907-.546-27.427-.187-9.026-.013-.774-.08-3.613-.079-4.32-.013-.787-.202-9.973-3.066-153.24M530.821 266.709v-.08l-.241-10.587M535.54 481.842l-.067-3.174-.6-27.373v-.04l-.2-8.96-.013-.773-.08-3.294v-.12l-.012-.773-.228-10.013-3.453-157.307M524.42 220.136l-.307-12.507M529.673 436.175l-.145-6.04-3.947-162.025M520.155 218.749l-.255-9.533M525.848 436.295l-.107-3.947-4.333-165.733M540.915 225.442l-.242-13.652M544.66 443.628l-.013-.826-.027-1.134-.159-9.426-.014-.774-.172-9.946-2.535-147.613M536.608 224.056l-.268-13.614M557.741 222.162v-.012l-.053-5.054M559.993 451.108l-.013-.84-.173-17.76v-.026l-.092-9.307v-.773l-.068-5.96-.252-26.694-1.148-115.506M553.408 223.896l-.093-8.16M575.207 249.282v-2.386l-.027-9.707M575.688 458.775v-.867l-.068-26.973v-4.053l-.012-.734-.012-9.226-.348-150.36M570.848 249.296v-.707l-.013-3.133-.027-6.414M571.728 458.788l-.013-2.813-.107-26.92v-.067l-.028-3.973v-.733l-.027-5.894v-2.24l-.013-.773-.012-2.76-.6-144.093M592.928 255.175v-.105l.012-2.321.121-23.107v-.012M591.753 466.482l.04-7.227.12-20.72v-.067l.015-4.026.012-.734.04-9.306.92-165.8M588.501 255.162v-.732l.014-3.134.08-19.774M587.753 466.455l.014-4.587v-.013l.093-25.213v-.067l.013-4.013v-.747l.04-9.28.575-161.945M548.66 276.402l2 141.386.147 9.907.013.773.135 9.36v.027l.105 8.08.053 3.64.015.773.119 9.04v.04l.373 25.88.068 4.747M548.275 248.562l.345 24.413v.08M553.261 276.482l1.667 138.813.132 10.64.12 9.333v.027l.147 12.707.04 3.653.013.787.108 9.093.252 21.107.095 7.346M552.901 246.616l.319 26.226v.08M484.54 248.536v-.067l-.173-3.947-.907-21.626M493.355 457.548l-.255-6.12-8.359-197.972M480.168 248.642v-.066l-.107-2.347-.96-21.693v-.014M489.381 457.775l-.174-4.08-8.907-201.84M501.033 254.389v-.067l-.573-16.146-.373-10.574M508.42 465.508l-.027-.853-.04-1.093v-.04l-.333-9.614-.04-.8-.347-10.173-6.426-183.573M496.608 254.509v-.067l-.547-14.532-.508-13.828M504.408 465.695l-.12-3.16-.227-6.28-.026-.8-.387-10.2-6.92-187.506M517.355 238.362v-.012l-.147-5.028" style="fill:none;stroke:red;stroke-width:1.6;stroke-linecap:round;stroke-linejoin:round;stroke-miterlimit:4;stroke-dasharray:none;stroke-opacity:1;visibility:visible"/><path d="m667.461 421.935-.361-.56M656.54 417.242l.386-.24M667.461 421.935l-.387 9.293M551.688 490.055l.012.147.041.133.067.12.092.133.121.107.135.107.159.106.174.08.184.08.202.067.213.04.227.04.238.013h.454l.24-.026.215-.054.211-.053.214-.067.188-.08.173-.093.147-.107.133-.106.12-.12.08-.134.067-.133.04-.133v-.134M587.753 466.455l.014.12.04.133.053.12.093.12.107.107.12.107.159.093.161.08.187.08.2.067.2.053.213.027.227.026h.453l.213-.013.227-.04.2-.053.2-.054.185-.066.163-.094.145-.093.134-.093.106-.12.094-.107.068-.133.038-.12v-.12" style="fill:none;stroke:red;stroke-width:.999997;stroke-linecap:round;stroke-linejoin:round;stroke-miterlimit:4;stroke-dasharray:none;stroke-opacity:1;visibility:visible"/><path d="m534.14 520.388-.373-.187M534.528 520.162l-.387.226M523.288 514.428l-.013-.44M534.528 520.162l131.973-88.547.573-.387M640.181 427.855h.013l1.747-1.147.08-.053 3.707-2.4.652-.427 8.04-5.213 2.121-1.373M522.98 503.882l15.04-9.76h.013l7.908-5.134.12-.08 4.079-2.64.585-.38M523.288 514.428l10.479 5.774" style="fill:none;stroke:red;stroke-width:1.99999;stroke-linecap:round;stroke-linejoin:round;stroke-miterlimit:4;stroke-dasharray:none;stroke-opacity:1;visibility:visible"/><path d="M567.237 409.803v2.512M568.155 411.34c-.387.871-1.136 1.386-1.672 1.147-.536-.237-.658-1.136-.271-2.007.388-.87 1.136-1.386 1.67-1.149.538.237.658 1.137.274 2.01l-.001-.001M560.915 391.227l.08-.04.04-.013M559.901 388.96l.106-.055M560.915 391.227l-.12.04-.147.013-.133-.013-.147-.027-.148-.066-.132-.08-.133-.12-.122-.12-.118-.147-.095-.16-.067-.173-.063-.174-.029-.173-.026-.186.012-.161.028-.173.053-.147.067-.132.078-.107.107-.095.12-.065M560.007 388.906l.12-.04.109-.013h.119l.133.012.119.041.12.067M560.727 388.974l.133.08.108.093.107.107.105.133.093.134.067.146M561.461 390.586l-.04.133-.053.121-.068.106-.08.093-.092.081-.093.052M561.34 389.667l.068.147.039.16.028.16.013.16v.146l-.028.147M560.65 390.607l-.015-.36v-.213M560.636 390.034l-.16-.147-.267-.253M623.101 418.735l.08-.04.04-.013M622.088 416.468l.105-.053M623.101 418.735l-.12.04-.147.013-.133-.013-.147-.027-.148-.066-.132-.08-.133-.12-.121-.12-.12-.147-.092-.16-.068-.173-.066-.174-.026-.172-.028-.188.013-.16.028-.173.053-.145.067-.135.079-.107.106-.092.122-.068M622.194 416.415l.122-.04.106-.013h.122l.13.013.12.04.12.067M622.914 416.482l.136.081.106.092.106.107.108.134.091.132.067.148M623.648 418.095l-.04.135-.054.118-.066.107-.082.093-.092.08-.093.054M623.528 417.176l.068.147.038.159.028.161.012.16v.147l-.024.145M622.837 418.116l-.013-.36v-.214M622.825 417.542l-.16-.146-.267-.253M564.225 139.158h-.024l-.22.026-.254.014-.255.002h-.27l-.255-.009-.252-.024-.22-.021h-.035M562.579 137.522l-.04.048v.035l.021.05.049.039M562.62 137.706l.048.027.084.039M562.752 137.773l.108.028.123.019.12.016.047.002.095.016.136-.006.132.005M563.513 137.853l.137-.019.121-.018.109-.02.025-.012.062-.022.05-.022M564.028 137.74l.016-.01.05-.049M560.847 137.998l-.007.402M565.828 138.045l-.008.413M561.383 137.376l-.066.07-.341.302M565.281 137.416l.07.074.341.307M562.44 139.145l-.23-.033-.202-.046-.208-.045-.192-.056-.168-.055-.155-.068-.13-.065-.108-.067-.094-.076-.057-.074-.036-.075-.02-.087M565.821 138.457l-.016.073-.038.071-.051.083-.09.07-.109.066-.127.07-.16.054-.17.053-.184.053-.199.042-.217.038-.235.028M560.847 137.998l.002-.072.027-.06.039-.058.062-.059M565.692 137.796l.058.064.034.05.035.071.01.064M561.383 137.376l.073-.058.088-.045.112-.056.124-.044.145-.043M561.925 137.13l.175-.04.18-.042.21-.028.21-.028.216-.015.232-.015.232.01.23.01.217.008.22.02.203.034.205.033.18.044.17.056.155.053.132.055.107.065.081.064" style="fill:none;stroke:red;stroke-width:.666665;stroke-linecap:round;stroke-linejoin:round;stroke-miterlimit:4;stroke-dasharray:none;stroke-opacity:1;visibility:visible"/><path d="m562.579 137.522.009.06.01.05.011.061.009.013" style="fill:none;stroke:red;stroke-width:.666665;stroke-linecap:round;stroke-linejoin:round;stroke-miterlimit:4;stroke-dasharray:none;stroke-opacity:1;visibility:visible"/><path d="m646.38 423.828-5.68-13.946" style="fill:none;stroke:red;stroke-width:.999997;stroke-linecap:round;stroke-linejoin:round;stroke-miterlimit:4;stroke-dasharray:none;stroke-opacity:1;visibility:visible"/><path d="m550.821 428.468 9.818 3.514M566.007 421.695l2.148 5.76M544.141 444.362l1.249-3.176M544.46 432.242l5.48 6.201M504.061 456.255l5.075 6.796M524.335 453.912l-6.451 3.864" style="fill:none;stroke:red;stroke-width:1.99999;stroke-linecap:round;stroke-linejoin:round;stroke-miterlimit:4;stroke-dasharray:none;stroke-opacity:1;visibility:visible"/><path d="m509.136 463.051-5.075-6.796M523.061 444.962l-4.054 2.4M530.248 429.716l4.333 8.392M519.007 447.362l4.054-2.4M544.752 421.25l6.069 7.218M549.94 438.443l-5.48-6.201M566.007 421.695l5.546-5.547M568.155 427.455l-8.44-4.28" style="fill:none;stroke:red;stroke-width:.999997;stroke-linecap:round;stroke-linejoin:round;stroke-miterlimit:4;stroke-dasharray:none;stroke-opacity:1;visibility:visible"/><path d="m570.799 195.232-14.164.197M553.315 215.736l3.385-13.84" style="fill:none;stroke:red;stroke-width:1.99999;stroke-linecap:round;stroke-linejoin:round;stroke-miterlimit:4;stroke-dasharray:none;stroke-opacity:1;visibility:visible"/><path d="m553.22 272.922 8.575-.28M557.741 222.162l3.599-3.92M557.688 217.096l3.667 3.614M538.901 444.362l-4.228-2.067M555.381 452.442l-4.253-2.094M534.673 442.295l4.228 2.067M585.447 462.655l-3.334 2.867M551.128 450.348l4.253 2.094M587.873 431.815l4.068 1.893M571.58 424.282l4.041 1.866M591.941 433.708l-4.068-1.893M575.621 426.148l-4.041-1.866M641.941 426.708l-1.561-5.506M640.621 412.642l5.759 11.186M549.528 485.935l-3.587 3.053M574.515 176.509l.053 3.667" style="fill:none;stroke:red;stroke-width:.999997;stroke-linecap:round;stroke-linejoin:round;stroke-miterlimit:4;stroke-dasharray:none;stroke-opacity:1;visibility:visible"/><path d="m592.717 458.664-4.95 3.204M550.725 485.888l6.126-3.96M624.713 446.108l-4.465-5.32M587.767 461.868l4.95-3.204" style="fill:none;stroke:red;stroke-width:1.99999;stroke-linecap:round;stroke-linejoin:round;stroke-miterlimit:4;stroke-dasharray:none;stroke-opacity:1;visibility:visible"/><path d="m592.9 258.602 6.628-2.987M592.928 255.175l6.612-.24" style="fill:none;stroke:red;stroke-width:.999997;stroke-linecap:round;stroke-linejoin:round;stroke-miterlimit:4;stroke-dasharray:none;stroke-opacity:1;visibility:visible"/><path d="m654.421 418.615-13.615-12.373M509.136 463.051l-5.943-17.529M523.663 433.565l-5.531 3.227M530.248 429.716l-4.832 2.824M518.132 436.792l5.531-3.227M523.663 433.565l9.936-5.809M525.416 432.54l4.832-2.824M559.715 423.175l-10.016-4.824M550.821 428.468l-6.069-7.218M517.884 457.776l6.451-3.864" style="fill:none;stroke:red;stroke-width:1.99999;stroke-linecap:round;stroke-linejoin:round;stroke-miterlimit:4;stroke-dasharray:none;stroke-opacity:1;visibility:visible"/><path d="m570.779 191.337.069 14.812M570.799 195.232l.011 2.81M570.81 198.042l-.011-2.81M574.568 180.176l-3.789 11.161M562.34 417.682l9.2-5.067M571.58 424.282l-11.933-7.84" style="fill:none;stroke:red;stroke-width:.999997;stroke-linecap:round;stroke-linejoin:round;stroke-miterlimit:4;stroke-dasharray:none;stroke-opacity:1;visibility:visible"/><path d="m509.075 465.008-5.016-2.59M495.155 471.482l3.682-11.76M523.821 472.628l-5.506-2.848M540.583 481.305l-5.11-2.637M535.473 478.668l5.11 2.637M540.583 481.305l-2.562 12.817" style="fill:none;stroke:red;stroke-width:1.99999;stroke-linecap:round;stroke-linejoin:round;stroke-miterlimit:4;stroke-dasharray:none;stroke-opacity:1;visibility:visible"/><path d="m562.993 417.655 8.56.733M640.38 421.202l1.561 5.506M646.38 423.828l-5.759-11.186M640.38 421.202l14.041-2.587" style="fill:none;stroke:red;stroke-width:.999997;stroke-linecap:round;stroke-linejoin:round;stroke-miterlimit:4;stroke-dasharray:none;stroke-opacity:1;visibility:visible"/><path d="m586.687 421.976 6.663 3.044M620.26 444.388l.055-7.065M571.58 424.282l5.223-6.81M593.35 425.02l-6.663-3.044" style="fill:none;stroke:red;stroke-width:.666665;stroke-linecap:round;stroke-linejoin:round;stroke-miterlimit:4;stroke-dasharray:none;stroke-opacity:1;visibility:visible"/><path d="m575.621 426.148-5.173 2.366M591.941 433.708l-5.051 2.482M570.448 428.514l6.263 2.93M620.26 444.388l-9.84 2.774M586.89 436.19l6.18 2.885M555.381 452.442l-5.093-6.883M576.57 458.338l-6.002-2.92M531.1 449.388l2.641 1.344M556.761 462.162l-6.771-3.356M533.741 450.732l6.576 3.268M576.57 458.338l-2.509 12.41M549.99 458.806l6.771 3.356" style="fill:none;stroke:red;stroke-width:1.99999;stroke-linecap:round;stroke-linejoin:round;stroke-miterlimit:4;stroke-dasharray:none;stroke-opacity:1;visibility:visible"/><path d="m531.1 449.388 9.695-5.68" style="fill:none;stroke:red;stroke-width:.999997;stroke-linecap:round;stroke-linejoin:round;stroke-miterlimit:4;stroke-dasharray:none;stroke-opacity:1;visibility:visible"/><path d="m513.488 260.522 4.612 4.908M513.581 263.802l-.093-3.28M517.355 238.362l-4.722-6.573M513.488 260.522l.093 3.28M535.447 271.655l-.092-5.08M530.821 266.709l4.279-12.574M535.355 266.575l.092 5.08M530.887 270.015l-.066-3.306M535.355 266.575l-4.775-10.533M530.821 266.709l.066 3.306M519.9 209.216l4.52 10.92M525.34 206.762l-1.227.867M530.821 266.709l-5.24 1.401M524.113 207.629l-3.958 11.12M525.34 206.762l-5.44 2.454M530.821 266.709l-9.413-.094M536.34 210.442l4.575 15M536.608 224.056l4.065-12.266M548.62 273.055l-6.88.854M540.673 211.79l-4.065 12.266M525.34 206.762l11 3.68M561.34 218.242l-3.599 3.92M561.355 220.71l-3.667-3.614M553.22 272.922l5.027 1.32M557.688 217.096l-4.28 6.8M557.741 222.162l-4.426-6.426M570.808 239.042l4.399 10.24M570.848 249.296l4.332-12.107M575.207 249.282l.041 17.28M575.18 237.189l-4.332 12.107M575.207 249.282l-4.399-10.24M553.22 272.922l17.708-4.4M592.9 258.602l.028-3.427M592.928 255.175l-.028 3.427M588.501 255.162l-.013 5.428M548.62 273.055l.04 3.347M548.66 276.402l-.04-3.347M553.22 272.922l.041 3.56M570.848 249.296l-17.947-2.68M553.261 276.482l-.041-3.56M484.741 253.456l-.201-4.92M484.54 248.536l.201 4.92M480.3 251.855l-.132-3.213M480.168 248.642l.132 3.213M501.207 259.362l-.174-4.973M501.033 254.389l.174 4.973M496.728 257.749l-.12-3.24M496.608 254.509l.12 3.24M512.633 231.789l4.722 6.573M520.155 218.749l-2.947 14.573" style="fill:none;stroke:red;stroke-width:1.6;stroke-linecap:round;stroke-linejoin:round;stroke-miterlimit:4;stroke-dasharray:none;stroke-opacity:1;visibility:visible"/><path d="m562.993 417.655 4.244-7.852M565.7 422.282l1.537-9.967M565.7 422.282l2.455-10.942" style="fill:none;stroke:red;stroke-width:.666665;stroke-linecap:round;stroke-linejoin:round;stroke-miterlimit:4;stroke-dasharray:none;stroke-opacity:1;visibility:visible"/><path d="m515.873 238.949 11.867 4.027M540.595 229.042h-.015l-56.68-18.44M581.381 212.669l-56.306-17.067" style="fill:none;stroke:#00ff4a;stroke-width:.999997;stroke-linecap:round;stroke-linejoin:round;stroke-miterlimit:4;stroke-dasharray:none;stroke-opacity:1;visibility:visible"/><path d="m551.275 229.002.133.054.119.066.08.068.067.066.041.066v.08l-.042.068-.052.079-.081.067-.12.053-.132.067-.16.04-.173.04-.202.026-.2.028h-.398l-.2-.014-.202-.027-.173-.027-.16-.052-.132-.054-.12-.054-.093-.066-.055-.067-.04-.08v-.067l.027-.08.068-.066.08-.067.12-.067.133-.052.16-.054.173-.04.2-.027.199-.013.2-.014h.2l.201.014.187.026.185.04.162.04" style="fill:none;stroke:#00ff4a;stroke-width:.666665;stroke-linecap:round;stroke-linejoin:round;stroke-miterlimit:4;stroke-dasharray:none;stroke-opacity:1;visibility:visible"/><path d="m528.181 243.682-.44-.706M677.38 182.482l-42.932 17.614-106.268 43.586M528.181 243.682l.307 13.028M683.608 181.162l-3.082 1.268M679.248 195.309l.546-12.867M629.694 169.322l-21.06-5.52-12.894-3.372M679.794 182.442l-2.773-.72-11.4-2.986-29.692-7.772" style="fill:none;stroke:#00ff4a;stroke-width:.999997;stroke-linecap:round;stroke-linejoin:round;stroke-miterlimit:4;stroke-dasharray:none;stroke-opacity:1;visibility:visible"/><path d="m683.608 181.162-.402-.6" style="fill:none;stroke:#00ff4a;stroke-width:1.99999;stroke-linecap:round;stroke-linejoin:round;stroke-miterlimit:4;stroke-dasharray:none;stroke-opacity:1;visibility:visible"/><path d="m680.528 182.429-.734.013" style="fill:none;stroke:#00ff4a;stroke-width:.999997;stroke-linecap:round;stroke-linejoin:round;stroke-miterlimit:4;stroke-dasharray:none;stroke-opacity:1;visibility:visible"/><path d="m595.741 160.43-.053-.2M596.061 159.856l-.32.573" style="fill:none;stroke:#00ff4a;stroke-width:1.99999;stroke-linecap:round;stroke-linejoin:round;stroke-miterlimit:4;stroke-dasharray:none;stroke-opacity:1;visibility:visible"/><path d="m457.075 219.016 25.414-9.24 5.532-2 40.866-14.854 36.376-13.212 12.572-4.574 30.76-11.174M446.462 215.416l10.613 3.6M679.528 195.669l-.28-.36" style="fill:none;stroke:#00ff4a;stroke-width:.999997;stroke-linecap:round;stroke-linejoin:round;stroke-miterlimit:4;stroke-dasharray:none;stroke-opacity:1;visibility:visible"/><path d="m481.488 206.496.12.053.092.053.08.054.055.066.013.068-.013.066-.042.066-.065.068-.095.052-.118.054-.135.053-.159.053-.174.028-.174.026-.2.013-.185.013h-.2l-.188-.012-.172-.028-.175-.026-.132-.04-.12-.054-.106-.052-.082-.054-.038-.067-.028-.067.013-.066.041-.067.065-.067.094-.052.12-.054.135-.054.158-.04.175-.04.187-.026.185-.014.201-.012h.186l.186.012.175.028.172.026.148.04" style="fill:none;stroke:#00ff4a;stroke-width:.666665;stroke-linecap:round;stroke-linejoin:round;stroke-miterlimit:4;stroke-dasharray:none;stroke-opacity:1;visibility:visible"/><path d="m457.488 219.682-.414-.666M457.795 232.522l.361-.386M457.488 219.682l.667 12.454" style="fill:none;stroke:#00ff4a;stroke-width:.999997;stroke-linecap:round;stroke-linejoin:round;stroke-miterlimit:4;stroke-dasharray:none;stroke-opacity:1;visibility:visible"/><path d="m446.462 215.416-.387.68" style="fill:none;stroke:#00ff4a;stroke-width:1.99999;stroke-linecap:round;stroke-linejoin:round;stroke-miterlimit:4;stroke-dasharray:none;stroke-opacity:1;visibility:visible"/><path d="m635.881 180.202 15.819 4.254M599.914 170.549l29.536 7.928M564.381 183.576l52.305 14.933" style="fill:none;stroke:#00ff4a;stroke-width:.999997;stroke-linecap:round;stroke-linejoin:round;stroke-miterlimit:4;stroke-dasharray:none;stroke-opacity:1;visibility:visible"/><path d="m564.807 219.322-3.468-1.08-.72-.226-2.931-.92-4.375-1.36-12.641-3.947-4.333-1.347-10.239-3.2M586.155 210.749l-15.307-4.6-9.628-2.893-.732-.227-3.788-1.133-.04-.014-9.56-2.88-.36-.106-17.6-5.294" style="fill:none;stroke:#00ff4a;stroke-width:1.99999;stroke-linecap:round;stroke-linejoin:round;stroke-miterlimit:4;stroke-dasharray:none;stroke-opacity:1;visibility:visible"/><path d="m483.901 210.602.374-.666M483.901 210.602l.48 11.52" style="fill:none;stroke:#00ff4a;stroke-width:.999997;stroke-linecap:round;stroke-linejoin:round;stroke-miterlimit:4;stroke-dasharray:none;stroke-opacity:1;visibility:visible"/><path d="M524.14 235.642h-.013l-6.92-2.32-4.574-1.532-12.546-4.188-4.534-1.52-10.36-3.466M545.7 226.989l-4.787-1.547-4.305-1.386-12.188-3.92-4.265-1.387-13.816-4.44-.359-.12-17.705-5.707M676.461 194.389l-.639.267-29.776 12.586-3.28 1.388h-.012l-1.053.452-2.573 1.08-9.468 4-.76.334-4.266 1.8-.093.04-31.48 13.293M593.061 229.642l-4.466 1.88-13.415 5.668-4.372 1.852-8.52 3.6-9.388 3.974-4.625 1.946-13.175 5.573-4.519 1.908-2.52 1.067M528.061 257.109l-10.294-3.6-1.492-.52" style="fill:none;stroke:#00ff4a;stroke-width:1.99999;stroke-linecap:round;stroke-linejoin:round;stroke-miterlimit:4;stroke-dasharray:none;stroke-opacity:1;visibility:visible"/><path d="m676.9 194.016-.439.373M676.901 194.016l.479-11.534M676.98 181.882l.4.6" style="fill:none;stroke:#00ff4a;stroke-width:.999997;stroke-linecap:round;stroke-linejoin:round;stroke-miterlimit:4;stroke-dasharray:none;stroke-opacity:1;visibility:visible"/><path d="m457.795 232.522-10.56-3.692M682.593 194.362l.44-.372M595.688 160.23l.372-.375M683.608 181.162l-.12-.24M683.488 180.922l-.282-.36M683.033 193.989l.575-12.827M629.296 166.537l-30.076-7.815M683.206 180.562l-46.805-12.172M599.22 158.722l-3.16 1.134M595.673 162.162l.015-1.932M682.593 194.362l-3.067 1.308M679.528 195.669l-3.706-1.013M515.835 252.282l-.362-12.6-.012-.32M665.581 178.896l-4.987 2-8.893 3.56-8.853 3.56-8.534 3.413M630.234 193.069l-.213.093-3.787 1.52-9.546 3.828-8.868 3.559-21.665 8.68-3.655 1.48h-.012l-1.108.44-16.212 6.507-.36.146-3.453 1.388-.707.279-2.908 1.16M557.741 222.162l-4.333 1.734-7.708 3.093-3.959 1.587-1.16.466-16.12 6.468-.333.132-6.773 2.708M517.355 238.362l-1.48.588M484.807 222.389l-1.347.507-4.36 1.626M479.1 224.536l-21.305 7.986M525.741 207.016l-1.628.613-4.212 1.587-13.56 5.093M568.955 190.802l-7.815 2.934-.732.28-3.773 1.413-.04.013-9.495 3.56" style="fill:none;stroke:#00ff4a;stroke-width:1.99999;stroke-linecap:round;stroke-linejoin:round;stroke-miterlimit:4;stroke-dasharray:none;stroke-opacity:1;visibility:visible"/><path d="m608.941 167.242.039-2.706M608.593 163.962l.387.574" style="fill:none;stroke:#00ff4a;stroke-width:.999997;stroke-linecap:round;stroke-linejoin:round;stroke-miterlimit:4;stroke-dasharray:none;stroke-opacity:1;visibility:visible"/><path d="m446.1 215.816.362-.4M446.075 216.096l.027-.28M446.795 228.456l.44.373M446.075 216.096l.72 12.36M598.248 161.256l-2.575.92-30.148 10.76M561.132 174.504l-82.364 29.38-32.306 11.533" style="fill:none;stroke:#00ff4a;stroke-width:1.99999;stroke-linecap:round;stroke-linejoin:round;stroke-miterlimit:4;stroke-dasharray:none;stroke-opacity:1;visibility:visible"/><path d="m626.234 194.669-51.666-14.493-.04-.014-.468-.132M574.061 180.029l-9.68 3.547M564.033 184.202l.348-.626M564.033 184.202l.04 4.92" style="fill:none;stroke:#00ff4a;stroke-width:.999997;stroke-linecap:round;stroke-linejoin:round;stroke-miterlimit:4;stroke-dasharray:none;stroke-opacity:1;visibility:visible"/><path d="m607.821 202.056-37.041-10.734-1.825-.52-.347-.106-4.188-1.214" style="fill:none;stroke:#00ff4a;stroke-width:1.99999;stroke-linecap:round;stroke-linejoin:round;stroke-miterlimit:4;stroke-dasharray:none;stroke-opacity:1;visibility:visible"/><path d="m629.528 172.673-20.586-5.43M660.593 180.882l-24.345-6.436M608.941 167.242l-9.028 3.308M599.581 171.15l.333-.601M599.581 171.149l-.04 4.773" style="fill:none;stroke:#00ff4a;stroke-width:.999997;stroke-linecap:round;stroke-linejoin:round;stroke-miterlimit:4;stroke-dasharray:none;stroke-opacity:1;visibility:visible"/><path d="m642.848 188.002-8.03-2.19M629.98 184.494l-25.614-6.984-.346-.093-4.16-1.133" style="fill:none;stroke:#00ff4a;stroke-width:1.99999;stroke-linecap:round;stroke-linejoin:round;stroke-miterlimit:4;stroke-dasharray:none;stroke-opacity:1;visibility:visible"/><path d="m545.7 226.989 5.575 2.013" style="fill:none;stroke:#00ff4a;stroke-width:.666665;stroke-linecap:round;stroke-linejoin:round;stroke-miterlimit:4;stroke-dasharray:none;stroke-opacity:1;visibility:visible"/><path d="m635.929 170.964-6.235-1.642M629.694 169.322l6.235 1.642" style="fill:none;stroke:#00ff4a;stroke-width:.999997;stroke-linecap:round;stroke-linejoin:round;stroke-miterlimit:4;stroke-dasharray:none;stroke-opacity:1;visibility:visible"/><path d="m483.9 210.602-2.412-4.106" style="fill:none;stroke:#00ff4a;stroke-width:.666665;stroke-linecap:round;stroke-linejoin:round;stroke-miterlimit:4;stroke-dasharray:none;stroke-opacity:1;visibility:visible"/><path d="m629.45 178.477 6.431 1.725M634.818 185.812l16.882-1.356M635.881 180.202l-6.431-1.725" style="fill:none;stroke:#00ff4a;stroke-width:.999997;stroke-linecap:round;stroke-linejoin:round;stroke-miterlimit:4;stroke-dasharray:none;stroke-opacity:1;visibility:visible"/><path d="m551.275 229.002 13.532-9.68M551.275 229.002l-5.575-2.013M481.488 206.496l6.787 1.986M636.401 168.39l-7.105-1.853M629.694 169.322l6.707-.932M599.581 171.149l-3.908-8.987M680.526 182.43l-14.945-3.534M630.234 193.069l4.08-1.64M634.314 191.429l-4.08 1.64M564.381 183.576l4.574 7.226M596.06 159.856l2.188 1.4M561.132 174.504l4.393-1.568M565.525 172.936l-4.393 1.568" style="fill:none;stroke:#00ff4a;stroke-width:1.99999;stroke-linecap:round;stroke-linejoin:round;stroke-miterlimit:4;stroke-dasharray:none;stroke-opacity:1;visibility:visible"/><path d="m634.818 185.812-8.584 8.857M635.929 170.964l-6.401 1.709M629.528 172.673l6.72 1.773" style="fill:none;stroke:#00ff4a;stroke-width:.999997;stroke-linecap:round;stroke-linejoin:round;stroke-miterlimit:4;stroke-dasharray:none;stroke-opacity:1;visibility:visible"/><path d="m635.881 180.202 6.967 7.8M629.98 184.494l4.838 1.318M634.818 185.812l-4.838-1.318" style="fill:none;stroke:#00ff4a;stroke-width:1.99999;stroke-linecap:round;stroke-linejoin:round;stroke-miterlimit:4;stroke-dasharray:none;stroke-opacity:1;visibility:visible"/><path d="m629.98 184.494.488 7.571M608.941 167.242l-12.734 13.107M599.913 170.55l4.107 6.866" style="fill:none;stroke:red;stroke-width:.999997;stroke-linecap:round;stroke-linejoin:round;stroke-miterlimit:4;stroke-dasharray:none;stroke-opacity:1;visibility:visible"/><path d="m629.98 184.494.332 5.279M620.315 437.323l19.533 2.479" style="fill:none;stroke:red;stroke-width:1.99999;stroke-linecap:round;stroke-linejoin:round;stroke-miterlimit:4;stroke-dasharray:none;stroke-opacity:1;visibility:visible"/><path d="m484.381 222.122-.921.774M484.381 222.122l15.706 5.48M484.381 222.122l11.172 3.96" style="fill:none;stroke:red;stroke-width:1.6;stroke-linecap:round;stroke-linejoin:round;stroke-miterlimit:4;stroke-dasharray:none;stroke-opacity:1;visibility:visible"/><path d="m629.98 184.494-13.294 14.015" style="fill:none;stroke:#00ff4a;stroke-width:.999997;stroke-linecap:round;stroke-linejoin:round;stroke-miterlimit:4;stroke-dasharray:none;stroke-opacity:1;visibility:visible"/><path d="m536.34 210.442-7.2-16.84" style="fill:none;stroke:#00ff4a;stroke-width:1.99999;stroke-linecap:round;stroke-linejoin:round;stroke-miterlimit:4;stroke-dasharray:none;stroke-opacity:1;visibility:visible"/><path d="m665.581 178.896-4.988 1.986" style="fill:none;stroke:#00ff4a;stroke-width:.999997;stroke-linecap:round;stroke-linejoin:round;stroke-miterlimit:4;stroke-dasharray:none;stroke-opacity:1;visibility:visible"/></svg>